<svg xmlns="http://www.w3.org/2000/svg"
viewBox="0 0 595 635">
<path d="
M 170 554 
L 170 554 
Q 155 554 , 147 554 
Q 139 554 , 129 554 
Q 108 554 , 98 554 
Q 86 554 , 86 554 
Q 86 555 , 98 555 
Q 108 555 , 129 555 
Q 139 555 , 147 555 
Q 155 555 , 170 555 
L 170 555 
Q 159 555 , 149 555 
Q 139 555 , 128 555 
Q 101 555 , 86 555 
Q 70 555 , 70 554 
Q 70 554 , 86 554 
Q 101 554 , 128 554 
Q 139 554 , 149 554 
Q 160 554 , 170 554 
" fill="#545FFF" />
<path d="
M 70 553 
L 88 553 
L 88 553 
Q 88 554 , 96 554 
Q 103 554 , 120 554 
Q 137 554 , 145 554 
Q 152 554 , 152 553 
L 152 553 
L 170 553 
L 170 554 
Q 170 554 , 157 554 
Q 145 554 , 120 554 
Q 96 554 , 83 554 
Q 70 554 , 70 554 
L 70 553 
" fill="#D21010" />
<path d="
M 120 552 
L 102 553 
L 136 553 
L 120 552 
M 113 552 
L 127 552 
L 170 553 
L 154 553 
L 142 553 
L 98 553 
L 85 553 
L 70 553 
L 113 552 
" fill="#339541" />
<path d="
M 154 551 
L 154 551 
L 125 551 
L 125 551 
L 170 551 
L 170 551 
Q 159 551 , 148 551 
Q 139 551 , 127 551 
Q 101 551 , 85 551 
Q 70 551 , 70 551 
Q 70 550 , 85 550 
Q 101 550 , 127 550 
Q 138 550 , 147 550 
Q 157 550 , 167 550 
L 167 550 
Q 154 550 , 146 550 
Q 137 550 , 128 550 
Q 107 550 , 96 550 
Q 86 550 , 86 551 
Q 86 551 , 96 551 
Q 107 551 , 128 551 
Q 137 551 , 144 551 
Q 151 551 , 154 551 
" fill="#F5C000" />
<path d="
M 275 550 
L 275 551 
Q 260 551 , 252 551 
Q 244 551 , 234 551 
Q 213 551 , 203 551 
Q 191 551 , 191 552 
Q 191 553 , 203 554 
Q 213 554 , 234 554 
Q 244 554 , 252 554 
Q 260 554 , 275 553 
L 275 554 
Q 264 554 , 254 555 
Q 244 555 , 233 555 
Q 206 555 , 191 554 
Q 175 553 , 175 552 
Q 175 551 , 191 551 
Q 206 550 , 233 550 
Q 244 550 , 254 550 
Q 265 550 , 275 550 
" fill="#545FFF" />
<path d="
M 225 542 
L 207 546 
L 241 546 
L 225 542 
M 218 540 
L 232 540 
L 275 550 
L 259 550 
L 247 547 
L 203 547 
L 190 550 
L 175 550 
L 218 540 
" fill="#339541" />
<path d="
M 259 536 
L 259 528 
L 230 528 
L 230 525 
L 275 525 
L 275 537 
Q 264 539 , 253 539 
Q 244 540 , 232 540 
Q 206 540 , 190 536 
Q 175 532 , 175 526 
Q 175 519 , 190 516 
Q 206 512 , 232 512 
Q 243 512 , 252 512 
Q 262 513 , 272 514 
L 272 518 
Q 259 516 , 251 516 
Q 242 515 , 233 515 
Q 212 515 , 201 518 
Q 191 520 , 191 526 
Q 191 531 , 201 534 
Q 212 537 , 233 537 
Q 242 537 , 249 536 
Q 256 536 , 259 536 
" fill="#F5C000" />
<path d="
M 175 484 
L 193 484 
L 193 500 
Q 193 505 , 201 507 
Q 208 509 , 225 509 
Q 242 509 , 250 507 
Q 257 505 , 257 500 
L 257 484 
L 275 484 
L 275 501 
Q 275 506 , 262 509 
Q 250 512 , 225 512 
Q 201 512 , 188 509 
Q 175 506 , 175 501 
L 175 484 
" fill="#D21010" />
<path d="
M 380 546 
L 380 548 
Q 365 547 , 357 546 
Q 349 546 , 339 546 
Q 318 546 , 308 547 
Q 296 548 , 296 550 
Q 296 552 , 308 553 
Q 318 554 , 339 554 
Q 349 554 , 357 553 
Q 365 553 , 380 552 
L 380 554 
Q 369 554 , 359 554 
Q 349 555 , 338 555 
Q 311 555 , 296 553 
Q 280 552 , 280 550 
Q 280 548 , 296 546 
Q 311 545 , 338 545 
Q 349 545 , 359 545 
Q 370 545 , 380 546 
" fill="#545FFF" />
<path d="
M 330 529 
L 312 537 
L 346 537 
L 330 529 
M 323 526 
L 337 526 
L 380 545 
L 364 545 
L 352 539 
L 308 539 
L 295 545 
L 280 545 
L 323 526 
" fill="#339541" />
<path d="
M 280 506 
L 298 506 
L 298 517 
Q 298 521 , 306 522 
Q 313 523 , 330 523 
Q 347 523 , 355 522 
Q 362 521 , 362 517 
L 362 506 
L 380 506 
L 380 518 
Q 380 521 , 367 523 
Q 355 525 , 330 525 
Q 306 525 , 293 523 
Q 280 521 , 280 518 
L 280 506 
" fill="#D21010" />
<path d="
M 364 492 
L 364 466 
L 335 466 
L 335 456 
L 380 456 
L 380 498 
Q 369 502 , 358 504 
Q 349 506 , 337 506 
Q 311 506 , 295 493 
Q 280 480 , 280 458 
Q 280 436 , 295 423 
Q 311 410 , 337 410 
Q 348 410 , 357 412 
Q 367 413 , 377 418 
L 377 430 
Q 364 425 , 356 423 
Q 347 421 , 338 421 
Q 317 421 , 306 430 
Q 296 439 , 296 458 
Q 296 477 , 306 486 
Q 317 495 , 338 495 
Q 347 495 , 354 494 
Q 361 493 , 364 492 
" fill="#F5C000" />
<path d="
M 485 550 
L 485 550 
Q 470 550 , 462 550 
Q 454 550 , 444 550 
Q 423 550 , 413 550 
Q 401 551 , 401 551 
Q 401 552 , 413 553 
Q 423 553 , 444 553 
Q 454 553 , 462 553 
Q 470 553 , 485 553 
L 485 554 
Q 474 554 , 464 554 
Q 454 554 , 443 554 
Q 416 554 , 401 553 
Q 385 553 , 385 552 
Q 385 550 , 401 550 
Q 416 549 , 443 549 
Q 454 549 , 464 549 
Q 475 549 , 485 550 
" fill="#545FFF" />
<path d="
M 385 535 
L 403 535 
L 403 543 
Q 403 545 , 411 546 
Q 418 547 , 435 547 
Q 452 547 , 460 546 
Q 467 545 , 467 543 
L 467 535 
L 485 535 
L 485 543 
Q 485 546 , 472 547 
Q 460 548 , 435 548 
Q 411 548 , 398 547 
Q 385 546 , 385 543 
L 385 535 
" fill="#D21010" />
<path d="
M 435 523 
L 417 529 
L 451 529 
L 435 523 
M 428 521 
L 442 521 
L 485 535 
L 469 535 
L 457 531 
L 413 531 
L 400 535 
L 385 535 
L 428 521 
" fill="#339541" />
<path d="
M 469 516 
L 469 508 
L 440 508 
L 440 505 
L 485 505 
L 485 518 
Q 474 520 , 463 520 
Q 454 521 , 442 521 
Q 416 521 , 400 517 
Q 385 513 , 385 505 
Q 385 498 , 400 494 
Q 416 490 , 442 490 
Q 453 490 , 462 491 
Q 472 491 , 482 492 
L 482 496 
Q 469 495 , 461 494 
Q 452 494 , 443 494 
Q 422 494 , 411 497 
Q 401 499 , 401 505 
Q 401 511 , 411 514 
Q 422 517 , 443 517 
Q 452 517 , 459 517 
Q 466 517 , 469 516 
" fill="#F5C000" />
<path d="
M 590 554 
L 590 554 
Q 575 554 , 567 554 
Q 559 554 , 549 554 
Q 528 554 , 518 554 
Q 506 554 , 506 554 
Q 506 555 , 518 555 
Q 528 555 , 549 555 
Q 559 555 , 567 555 
Q 575 555 , 590 555 
L 590 555 
Q 579 555 , 569 555 
Q 559 555 , 548 555 
Q 521 555 , 506 555 
Q 490 555 , 490 554 
Q 490 554 , 506 554 
Q 521 554 , 548 554 
Q 559 554 , 569 554 
Q 580 554 , 590 554 
" fill="#545FFF" />
<path d="
M 490 553 
L 508 553 
L 508 553 
Q 508 554 , 516 554 
Q 523 554 , 540 554 
Q 557 554 , 565 554 
Q 572 554 , 572 553 
L 572 553 
L 590 553 
L 590 554 
Q 590 554 , 577 554 
Q 565 554 , 540 554 
Q 516 554 , 503 554 
Q 490 554 , 490 554 
L 490 553 
" fill="#D21010" />
<path d="
M 540 552 
L 522 553 
L 556 553 
L 540 552 
M 533 552 
L 547 552 
L 590 553 
L 574 553 
L 562 553 
L 518 553 
L 505 553 
L 490 553 
L 533 552 
" fill="#339541" />
<path d="
M 574 551 
L 574 551 
L 545 551 
L 545 551 
L 590 551 
L 590 551 
Q 579 551 , 568 551 
Q 559 551 , 547 551 
Q 521 551 , 505 551 
Q 490 551 , 490 551 
Q 490 550 , 505 550 
Q 521 550 , 547 550 
Q 558 550 , 567 550 
Q 577 550 , 587 550 
L 587 550 
Q 574 550 , 566 550 
Q 557 550 , 548 550 
Q 527 550 , 516 550 
Q 506 550 , 506 551 
Q 506 551 , 516 551 
Q 527 551 , 548 551 
Q 557 551 , 564 551 
Q 571 551 , 574 551 
" fill="#F5C000" />
<path d="M 65 55 L 65 555 " stroke="black" stroke-width="1.5"/>
<path d="M 55 555 L 65 555 " stroke="black" stroke-width="4"/>
<text text-anchor="end" x="50" y="555" font-size="50" alignment-baseline="middle">0</text>
<path d="M 55 305 L 65 305 " stroke="black" stroke-width="4"/>
<text text-anchor="end" x="50" y="305" font-size="50" alignment-baseline="middle">1</text>
<path d="M 55 55 L 65 55 " stroke="black" stroke-width="4"/>
<text text-anchor="end" x="50" y="55" font-size="50" alignment-baseline="middle">2</text>
<text text-anchor="middle" x="330" y="50" font-size="50" alignment-baseline="baseline"></text>
G<path d="
M 160 582 
L 126 595 
L 160 608 
L 157 611 
L 123 598 
L 123 623 
L 117 623 
L 117 599 
L 83 611 
L 80 608 
L 114 595 
L 80 582 
L 83 579 
L 117 591 
L 117 567 
L 123 567 
L 123 591 
L 157 579 
L 160 582 
" fill="black" />
<path d="
" fill="black" />
<path d="
M 211 567 
L 238 567 
L 238 623 
L 211 623 
L 211 567 
" fill="black" />
<path d="
" fill="black" />
<path d="
" fill="black" />
<path d="
M 316 567 
L 343 567 
L 343 623 
L 316 623 
L 316 567 
" fill="black" />
<path d="
" fill="black" />
<path d="
" fill="black" />
<path d="
M 421 567 
L 448 567 
L 448 623 
L 421 623 
L 421 567 
" fill="black" />
<path d="
" fill="black" />
<path d="
M 580 582 
L 546 595 
L 580 608 
L 577 611 
L 543 598 
L 543 623 
L 537 623 
L 537 599 
L 503 611 
L 500 608 
L 534 595 
L 500 582 
L 503 579 
L 537 591 
L 537 567 
L 543 567 
L 543 591 
L 577 579 
L 580 582 
" fill="black" />
</svg>
