<svg xmlns="http://www.w3.org/2000/svg"
viewBox="0 0 1330 635">
<path d="
M 120 552 
L 102 553 
L 136 553 
L 120 552 
M 113 551 
L 127 551 
L 170 555 
L 154 555 
L 142 554 
L 98 554 
L 85 555 
L 70 555 
L 113 551 
" fill="#339541" />
<path d="
M 154 550 
L 154 549 
L 125 549 
L 125 548 
L 170 548 
L 170 550 
Q 159 551 , 148 551 
Q 139 551 , 127 551 
Q 101 551 , 85 550 
Q 70 549 , 70 548 
Q 70 547 , 85 547 
Q 101 546 , 127 546 
Q 138 546 , 147 546 
Q 157 546 , 167 546 
L 167 547 
Q 154 547 , 146 547 
Q 137 547 , 128 547 
Q 107 547 , 96 547 
Q 86 547 , 86 548 
Q 86 549 , 96 550 
Q 107 550 , 128 550 
Q 137 550 , 144 550 
Q 151 550 , 154 550 
" fill="#F5C000" />
<path d="
M 70 540 
L 88 540 
L 88 543 
Q 88 544 , 96 545 
Q 103 545 , 120 545 
Q 137 545 , 145 545 
Q 152 544 , 152 543 
L 152 540 
L 170 540 
L 170 543 
Q 170 544 , 157 545 
Q 145 546 , 120 546 
Q 96 546 , 83 545 
Q 70 544 , 70 543 
L 70 540 
" fill="#D21010" />
<path d="
M 170 531 
L 170 532 
Q 155 532 , 147 531 
Q 139 531 , 129 531 
Q 108 531 , 98 532 
Q 86 533 , 86 535 
Q 86 537 , 98 538 
Q 108 538 , 129 538 
Q 139 538 , 147 538 
Q 155 538 , 170 537 
L 170 539 
Q 159 539 , 149 539 
Q 139 540 , 128 540 
Q 101 540 , 86 538 
Q 70 537 , 70 535 
Q 70 533 , 86 531 
Q 101 530 , 128 530 
Q 139 530 , 149 530 
Q 160 530 , 170 531 
" fill="#545FFF" />
<path d="
M 225 549 
L 207 552 
L 241 552 
L 225 549 
M 218 548 
L 232 548 
L 275 555 
L 259 555 
L 247 553 
L 203 553 
L 190 555 
L 175 555 
L 218 548 
" fill="#339541" />
<path d="
M 259 546 
L 259 543 
L 230 543 
L 230 542 
L 275 542 
L 275 547 
Q 264 547 , 253 547 
Q 244 548 , 232 548 
Q 206 548 , 190 546 
Q 175 545 , 175 542 
Q 175 540 , 190 538 
Q 206 537 , 232 537 
Q 243 537 , 252 537 
Q 262 537 , 272 538 
L 272 539 
Q 259 539 , 251 538 
Q 242 538 , 233 538 
Q 212 538 , 201 539 
Q 191 540 , 191 542 
Q 191 544 , 201 545 
Q 212 546 , 233 546 
Q 242 546 , 249 546 
Q 256 546 , 259 546 
" fill="#F5C000" />
<path d="
M 275 523 
L 275 525 
Q 260 524 , 252 523 
Q 244 523 , 234 523 
Q 213 523 , 203 524 
Q 191 526 , 191 529 
Q 191 532 , 203 534 
Q 213 535 , 234 535 
Q 244 535 , 252 535 
Q 260 534 , 275 533 
L 275 535 
Q 264 536 , 254 537 
Q 244 537 , 233 537 
Q 206 537 , 191 535 
Q 175 533 , 175 529 
Q 175 525 , 191 523 
Q 206 521 , 233 521 
Q 244 521 , 254 521 
Q 265 522 , 275 523 
" fill="#545FFF" />
<path d="
M 175 485 
L 193 485 
L 193 506 
Q 193 512 , 201 514 
Q 208 516 , 225 516 
Q 242 516 , 250 514 
Q 257 512 , 257 506 
L 257 485 
L 275 485 
L 275 506 
Q 275 513 , 262 517 
Q 250 520 , 225 520 
Q 201 520 , 188 517 
Q 175 513 , 175 506 
L 175 485 
" fill="#D21010" />
<path d="
M 330 543 
L 312 548 
L 346 548 
L 330 543 
M 323 540 
L 337 540 
L 380 554 
L 364 554 
L 352 550 
L 308 550 
L 295 554 
L 280 554 
L 323 540 
" fill="#339541" />
<path d="
M 364 537 
L 364 533 
L 335 533 
L 335 531 
L 380 531 
L 380 538 
Q 369 539 , 358 539 
Q 349 539 , 337 539 
Q 311 539 , 295 537 
Q 280 535 , 280 531 
Q 280 527 , 295 525 
Q 311 523 , 337 523 
Q 348 523 , 357 523 
Q 367 524 , 377 524 
L 377 526 
Q 364 525 , 356 525 
Q 347 525 , 338 525 
Q 317 525 , 306 526 
Q 296 528 , 296 531 
Q 296 534 , 306 536 
Q 317 538 , 338 538 
Q 347 538 , 354 537 
Q 361 537 , 364 537 
" fill="#F5C000" />
<path d="
M 280 504 
L 298 504 
L 298 515 
Q 298 518 , 306 519 
Q 313 521 , 330 521 
Q 347 521 , 355 519 
Q 362 518 , 362 515 
L 362 504 
L 380 504 
L 380 515 
Q 380 519 , 367 521 
Q 355 523 , 330 523 
Q 306 523 , 293 521 
Q 280 519 , 280 515 
L 280 504 
" fill="#D21010" />
<path d="
M 380 349 
L 380 375 
Q 365 358 , 357 354 
Q 349 349 , 339 349 
Q 318 349 , 308 366 
Q 296 383 , 296 417 
Q 296 451 , 308 468 
Q 318 485 , 339 485 
Q 349 485 , 357 481 
Q 365 476 , 380 459 
L 380 486 
Q 369 496 , 359 500 
Q 349 504 , 338 504 
Q 311 504 , 296 480 
Q 280 457 , 280 417 
Q 280 377 , 296 354 
Q 311 330 , 338 330 
Q 349 330 , 359 334 
Q 370 338 , 380 349 
" fill="#545FFF" />
<path d="
M 469 554 
L 469 552 
L 440 552 
L 440 551 
L 485 551 
L 485 554 
Q 474 554 , 463 554 
Q 454 555 , 442 555 
Q 416 555 , 400 554 
Q 385 553 , 385 551 
Q 385 550 , 400 549 
Q 416 548 , 442 548 
Q 453 548 , 462 548 
Q 472 548 , 482 549 
L 482 549 
Q 469 549 , 461 549 
Q 452 549 , 443 549 
Q 422 549 , 411 549 
Q 401 550 , 401 551 
Q 401 553 , 411 553 
Q 422 554 , 443 554 
Q 452 554 , 459 554 
Q 466 554 , 469 554 
" fill="#F5C000" />
<path d="
M 435 542 
L 417 545 
L 451 545 
L 435 542 
M 428 541 
L 442 541 
L 485 548 
L 469 548 
L 457 546 
L 413 546 
L 400 548 
L 385 548 
L 428 541 
" fill="#339541" />
<path d="
M 385 502 
L 403 502 
L 403 525 
Q 403 531 , 411 534 
Q 418 536 , 435 536 
Q 452 536 , 460 534 
Q 467 531 , 467 525 
L 467 502 
L 485 502 
L 485 525 
Q 485 533 , 472 536 
Q 460 540 , 435 540 
Q 411 540 , 398 536 
Q 385 533 , 385 525 
L 385 502 
" fill="#D21010" />
<path d="
M 485 303 
L 485 337 
Q 470 315 , 462 309 
Q 454 304 , 444 304 
Q 423 304 , 413 325 
Q 401 347 , 401 390 
Q 401 434 , 413 456 
Q 423 478 , 444 478 
Q 454 478 , 462 472 
Q 470 466 , 485 444 
L 485 479 
Q 474 492 , 464 497 
Q 454 502 , 443 502 
Q 416 502 , 401 472 
Q 385 442 , 385 391 
Q 385 339 , 401 309 
Q 416 279 , 443 279 
Q 454 279 , 464 285 
Q 475 290 , 485 303 
" fill="#545FFF" />
<path d="
M 540 549 
L 522 552 
L 556 552 
L 540 549 
M 533 548 
L 547 548 
L 590 554 
L 574 554 
L 562 552 
L 518 552 
L 505 554 
L 490 554 
L 533 548 
" fill="#339541" />
<path d="
M 574 546 
L 574 544 
L 545 544 
L 545 543 
L 590 543 
L 590 547 
Q 579 547 , 568 547 
Q 559 547 , 547 547 
Q 521 547 , 505 546 
Q 490 545 , 490 543 
Q 490 541 , 505 540 
Q 521 539 , 547 539 
Q 558 539 , 567 539 
Q 577 539 , 587 540 
L 587 541 
Q 574 540 , 566 540 
Q 557 540 , 548 540 
Q 527 540 , 516 541 
Q 506 542 , 506 543 
Q 506 545 , 516 546 
Q 527 546 , 548 546 
Q 557 546 , 564 546 
Q 571 546 , 574 546 
" fill="#F5C000" />
<path d="
M 490 500 
L 508 500 
L 508 523 
Q 508 529 , 516 532 
Q 523 534 , 540 534 
Q 557 534 , 565 532 
Q 572 529 , 572 523 
L 572 500 
L 590 500 
L 590 524 
Q 590 531 , 577 535 
Q 565 539 , 540 539 
Q 516 539 , 503 535 
Q 490 531 , 490 524 
L 490 500 
" fill="#D21010" />
<path d="
M 590 311 
L 590 344 
Q 575 323 , 567 318 
Q 559 312 , 549 312 
Q 528 312 , 518 333 
Q 506 354 , 506 394 
Q 506 435 , 518 456 
Q 528 476 , 549 476 
Q 559 476 , 567 471 
Q 575 465 , 590 445 
L 590 478 
Q 579 489 , 569 494 
Q 559 499 , 548 499 
Q 521 499 , 506 471 
Q 490 442 , 490 394 
Q 490 346 , 506 318 
Q 521 289 , 548 289 
Q 559 289 , 569 294 
Q 580 299 , 590 311 
" fill="#545FFF" />
<path d="
M 645 548 
L 627 551 
L 661 551 
L 645 548 
M 638 547 
L 652 547 
L 695 554 
L 679 554 
L 667 552 
L 623 552 
L 610 554 
L 595 554 
L 638 547 
" fill="#339541" />
<path d="
M 679 545 
L 679 542 
L 650 542 
L 650 541 
L 695 541 
L 695 546 
Q 684 547 , 673 547 
Q 664 547 , 652 547 
Q 626 547 , 610 545 
Q 595 544 , 595 541 
Q 595 539 , 610 537 
Q 626 536 , 652 536 
Q 663 536 , 672 536 
Q 682 536 , 692 537 
L 692 538 
Q 679 538 , 671 537 
Q 662 537 , 653 537 
Q 632 537 , 621 538 
Q 611 539 , 611 541 
Q 611 544 , 621 545 
Q 632 546 , 653 546 
Q 662 546 , 669 546 
Q 676 545 , 679 545 
" fill="#F5C000" />
<path d="
M 595 497 
L 613 497 
L 613 520 
Q 613 526 , 621 529 
Q 628 531 , 645 531 
Q 662 531 , 670 529 
Q 677 526 , 677 520 
L 677 497 
L 695 497 
L 695 520 
Q 695 528 , 682 532 
Q 670 536 , 645 536 
Q 621 536 , 608 532 
Q 595 528 , 595 520 
L 595 497 
" fill="#D21010" />
<path d="
M 695 387 
L 695 406 
Q 680 394 , 672 391 
Q 664 388 , 654 388 
Q 633 388 , 623 400 
Q 611 412 , 611 435 
Q 611 459 , 623 472 
Q 633 484 , 654 484 
Q 664 484 , 672 481 
Q 680 477 , 695 465 
L 695 484 
Q 684 491 , 674 494 
Q 664 497 , 653 497 
Q 626 497 , 611 480 
Q 595 464 , 595 436 
Q 595 407 , 611 391 
Q 626 374 , 653 374 
Q 664 374 , 674 377 
Q 685 380 , 695 387 
" fill="#545FFF" />
<path d="
M 800 551 
L 800 551 
Q 785 551 , 777 551 
Q 769 551 , 759 551 
Q 738 551 , 728 551 
Q 716 551 , 716 552 
Q 716 553 , 728 554 
Q 738 554 , 759 554 
Q 769 554 , 777 554 
Q 785 554 , 800 553 
L 800 554 
Q 789 554 , 779 555 
Q 769 555 , 758 555 
Q 731 555 , 716 554 
Q 700 553 , 700 552 
Q 700 551 , 716 551 
Q 731 550 , 758 550 
Q 769 550 , 779 550 
Q 790 550 , 800 551 
" fill="#545FFF" />
<path d="
M 784 548 
L 784 543 
L 755 543 
L 755 542 
L 800 542 
L 800 549 
Q 789 549 , 778 550 
Q 769 550 , 757 550 
Q 731 550 , 715 548 
Q 700 546 , 700 542 
Q 700 538 , 715 536 
Q 731 534 , 757 534 
Q 768 534 , 777 534 
Q 787 535 , 797 535 
L 797 537 
Q 784 536 , 776 536 
Q 767 536 , 758 536 
Q 737 536 , 726 537 
Q 716 539 , 716 542 
Q 716 545 , 726 547 
Q 737 548 , 758 548 
Q 767 548 , 774 548 
Q 781 548 , 784 548 
" fill="#F5C000" />
<path d="
M 750 515 
L 732 524 
L 766 524 
L 750 515 
M 743 511 
L 757 511 
L 800 534 
L 784 534 
L 772 527 
L 728 527 
L 715 534 
L 700 534 
L 743 511 
" fill="#339541" />
<path d="
M 700 460 
L 718 460 
L 718 490 
Q 718 498 , 726 502 
Q 733 505 , 750 505 
Q 767 505 , 775 502 
Q 782 498 , 782 490 
L 782 460 
L 800 460 
L 800 491 
Q 800 501 , 787 506 
Q 775 511 , 750 511 
Q 726 511 , 713 506 
Q 700 501 , 700 491 
L 700 460 
" fill="#D21010" />
<path d="
M 855 547 
L 837 550 
L 871 550 
L 855 547 
M 848 545 
L 862 545 
L 905 554 
L 889 554 
L 877 551 
L 833 551 
L 820 554 
L 805 554 
L 848 545 
" fill="#339541" />
<path d="
M 889 542 
L 889 538 
L 860 538 
L 860 537 
L 905 537 
L 905 543 
Q 894 544 , 883 544 
Q 874 544 , 862 544 
Q 836 544 , 820 542 
Q 805 540 , 805 537 
Q 805 534 , 820 532 
Q 836 530 , 862 530 
Q 873 530 , 882 530 
Q 892 531 , 902 531 
L 902 533 
Q 889 532 , 881 532 
Q 872 532 , 863 532 
Q 842 532 , 831 533 
Q 821 534 , 821 537 
Q 821 540 , 831 541 
Q 842 543 , 863 543 
Q 872 543 , 879 543 
Q 886 542 , 889 542 
" fill="#F5C000" />
<path d="
M 805 501 
L 823 501 
L 823 518 
Q 823 523 , 831 525 
Q 838 527 , 855 527 
Q 872 527 , 880 525 
Q 887 523 , 887 518 
L 887 501 
L 905 501 
L 905 518 
Q 905 524 , 892 527 
Q 880 530 , 855 530 
Q 831 530 , 818 527 
Q 805 524 , 805 518 
L 805 501 
" fill="#D21010" />
<path d="
M 905 385 
L 905 405 
Q 890 392 , 882 389 
Q 874 385 , 864 385 
Q 843 385 , 833 398 
Q 821 411 , 821 436 
Q 821 461 , 833 474 
Q 843 487 , 864 487 
Q 874 487 , 882 484 
Q 890 480 , 905 467 
L 905 488 
Q 894 495 , 884 498 
Q 874 501 , 863 501 
Q 836 501 , 821 483 
Q 805 466 , 805 436 
Q 805 406 , 821 389 
Q 836 371 , 863 371 
Q 874 371 , 884 374 
Q 895 377 , 905 385 
" fill="#545FFF" />
<path d="
M 960 548 
L 942 551 
L 976 551 
L 960 548 
M 953 547 
L 967 547 
L 1010 554 
L 994 554 
L 982 552 
L 938 552 
L 925 554 
L 910 554 
L 953 547 
" fill="#339541" />
<path d="
M 994 545 
L 994 542 
L 965 542 
L 965 541 
L 1010 541 
L 1010 546 
Q 999 546 , 988 546 
Q 979 546 , 967 546 
Q 941 546 , 925 545 
Q 910 544 , 910 541 
Q 910 539 , 925 537 
Q 941 536 , 967 536 
Q 978 536 , 987 536 
Q 997 536 , 1007 537 
L 1007 538 
Q 994 538 , 986 537 
Q 977 537 , 968 537 
Q 947 537 , 936 538 
Q 926 539 , 926 541 
Q 926 543 , 936 544 
Q 947 545 , 968 545 
Q 977 545 , 984 545 
Q 991 545 , 994 545 
" fill="#F5C000" />
<path d="
M 910 524 
L 928 524 
L 928 531 
Q 928 533 , 936 533 
Q 943 534 , 960 534 
Q 977 534 , 985 533 
Q 992 533 , 992 531 
L 992 524 
L 1010 524 
L 1010 531 
Q 1010 533 , 997 534 
Q 985 535 , 960 535 
Q 936 535 , 923 534 
Q 910 533 , 910 531 
L 910 524 
" fill="#D21010" />
<path d="
M 1010 219 
L 1010 271 
Q 995 237 , 987 229 
Q 979 220 , 969 220 
Q 948 220 , 938 253 
Q 926 287 , 926 353 
Q 926 419 , 938 453 
Q 948 487 , 969 487 
Q 979 487 , 987 478 
Q 995 469 , 1010 435 
L 1010 489 
Q 999 508 , 989 516 
Q 979 524 , 968 524 
Q 941 524 , 926 477 
Q 910 431 , 910 353 
Q 910 274 , 926 229 
Q 941 182 , 968 182 
Q 979 182 , 989 190 
Q 1000 199 , 1010 219 
" fill="#545FFF" />
<path d="
M 1099 553 
L 1099 550 
L 1070 550 
L 1070 549 
L 1115 549 
L 1115 554 
Q 1104 554 , 1093 554 
Q 1084 554 , 1072 554 
Q 1046 554 , 1030 553 
Q 1015 552 , 1015 550 
Q 1015 547 , 1030 546 
Q 1046 545 , 1072 545 
Q 1083 545 , 1092 545 
Q 1102 545 , 1112 546 
L 1112 547 
Q 1099 546 , 1091 546 
Q 1082 546 , 1073 546 
Q 1052 546 , 1041 547 
Q 1031 548 , 1031 550 
Q 1031 551 , 1041 552 
Q 1052 553 , 1073 553 
Q 1082 553 , 1089 553 
Q 1096 553 , 1099 553 
" fill="#F5C000" />
<path d="
M 1065 530 
L 1047 537 
L 1081 537 
L 1065 530 
M 1058 527 
L 1072 527 
L 1115 544 
L 1099 544 
L 1087 539 
L 1043 539 
L 1030 544 
L 1015 544 
L 1058 527 
" fill="#339541" />
<path d="
M 1015 502 
L 1033 502 
L 1033 517 
Q 1033 521 , 1041 522 
Q 1048 524 , 1065 524 
Q 1082 524 , 1090 522 
Q 1097 521 , 1097 517 
L 1097 502 
L 1115 502 
L 1115 517 
Q 1115 522 , 1102 524 
Q 1090 527 , 1065 527 
Q 1041 527 , 1028 524 
Q 1015 522 , 1015 517 
L 1015 502 
" fill="#D21010" />
<path d="
M 1115 388 
L 1115 407 
Q 1100 395 , 1092 391 
Q 1084 388 , 1074 388 
Q 1053 388 , 1043 401 
Q 1031 413 , 1031 438 
Q 1031 463 , 1043 476 
Q 1053 488 , 1074 488 
Q 1084 488 , 1092 485 
Q 1100 481 , 1115 469 
L 1115 489 
Q 1104 496 , 1094 499 
Q 1084 502 , 1073 502 
Q 1046 502 , 1031 485 
Q 1015 467 , 1015 438 
Q 1015 409 , 1031 391 
Q 1046 374 , 1073 374 
Q 1084 374 , 1094 377 
Q 1105 380 , 1115 388 
" fill="#545FFF" />
<path d="
M 1204 554 
L 1204 552 
L 1175 552 
L 1175 551 
L 1220 551 
L 1220 554 
Q 1209 555 , 1198 555 
Q 1189 555 , 1177 555 
Q 1151 555 , 1135 554 
Q 1120 553 , 1120 551 
Q 1120 550 , 1135 549 
Q 1151 548 , 1177 548 
Q 1188 548 , 1197 548 
Q 1207 548 , 1217 549 
L 1217 549 
Q 1204 549 , 1196 549 
Q 1187 549 , 1178 549 
Q 1157 549 , 1146 549 
Q 1136 550 , 1136 551 
Q 1136 553 , 1146 553 
Q 1157 554 , 1178 554 
Q 1187 554 , 1194 554 
Q 1201 554 , 1204 554 
" fill="#F5C000" />
<path d="
M 1170 540 
L 1152 544 
L 1186 544 
L 1170 540 
M 1163 538 
L 1177 538 
L 1220 548 
L 1204 548 
L 1192 545 
L 1148 545 
L 1135 548 
L 1120 548 
L 1163 538 
" fill="#339541" />
<path d="
M 1120 521 
L 1138 521 
L 1138 531 
Q 1138 533 , 1146 534 
Q 1153 535 , 1170 535 
Q 1187 535 , 1195 534 
Q 1202 533 , 1202 531 
L 1202 521 
L 1220 521 
L 1220 531 
Q 1220 534 , 1207 536 
Q 1195 537 , 1170 537 
Q 1146 537 , 1133 536 
Q 1120 534 , 1120 531 
L 1120 521 
" fill="#D21010" />
<path d="
M 1220 490 
L 1220 495 
Q 1205 491 , 1197 491 
Q 1189 490 , 1179 490 
Q 1158 490 , 1148 493 
Q 1136 496 , 1136 503 
Q 1136 510 , 1148 513 
Q 1158 516 , 1179 516 
Q 1189 516 , 1197 516 
Q 1205 515 , 1220 511 
L 1220 517 
Q 1209 518 , 1199 519 
Q 1189 520 , 1178 520 
Q 1151 520 , 1136 515 
Q 1120 511 , 1120 503 
Q 1120 495 , 1136 491 
Q 1151 486 , 1178 486 
Q 1189 486 , 1199 487 
Q 1210 488 , 1220 490 
" fill="#545FFF" />
<path d="
M 1275 552 
L 1257 553 
L 1291 553 
L 1275 552 
M 1268 551 
L 1282 551 
L 1325 555 
L 1309 555 
L 1297 554 
L 1253 554 
L 1240 555 
L 1225 555 
L 1268 551 
" fill="#339541" />
<path d="
M 1309 550 
L 1309 549 
L 1280 549 
L 1280 548 
L 1325 548 
L 1325 550 
Q 1314 551 , 1303 551 
Q 1294 551 , 1282 551 
Q 1256 551 , 1240 550 
Q 1225 549 , 1225 548 
Q 1225 547 , 1240 547 
Q 1256 546 , 1282 546 
Q 1293 546 , 1302 546 
Q 1312 546 , 1322 546 
L 1322 547 
Q 1309 547 , 1301 547 
Q 1292 547 , 1283 547 
Q 1262 547 , 1251 547 
Q 1241 547 , 1241 548 
Q 1241 549 , 1251 550 
Q 1262 550 , 1283 550 
Q 1292 550 , 1299 550 
Q 1306 550 , 1309 550 
" fill="#F5C000" />
<path d="
M 1225 540 
L 1243 540 
L 1243 543 
Q 1243 544 , 1251 545 
Q 1258 545 , 1275 545 
Q 1292 545 , 1300 545 
Q 1307 544 , 1307 543 
L 1307 540 
L 1325 540 
L 1325 543 
Q 1325 544 , 1312 545 
Q 1300 546 , 1275 546 
Q 1251 546 , 1238 545 
Q 1225 544 , 1225 543 
L 1225 540 
" fill="#D21010" />
<path d="
M 1325 531 
L 1325 532 
Q 1310 532 , 1302 531 
Q 1294 531 , 1284 531 
Q 1263 531 , 1253 532 
Q 1241 533 , 1241 535 
Q 1241 537 , 1253 538 
Q 1263 538 , 1284 538 
Q 1294 538 , 1302 538 
Q 1310 538 , 1325 537 
L 1325 539 
Q 1314 539 , 1304 539 
Q 1294 540 , 1283 540 
Q 1256 540 , 1241 538 
Q 1225 537 , 1225 535 
Q 1225 533 , 1241 531 
Q 1256 530 , 1283 530 
Q 1294 530 , 1304 530 
Q 1315 530 , 1325 531 
" fill="#545FFF" />
<path d="M 65 55 L 65 555 " stroke="black" stroke-width="1.5"/>
<path d="M 55 555 L 65 555 " stroke="black" stroke-width="4"/>
<text text-anchor="end" x="50" y="555" font-size="50" alignment-baseline="middle">0</text>
<path d="M 55 305 L 65 305 " stroke="black" stroke-width="4"/>
<text text-anchor="end" x="50" y="305" font-size="50" alignment-baseline="middle">1</text>
<path d="M 55 55 L 65 55 " stroke="black" stroke-width="4"/>
<text text-anchor="end" x="50" y="55" font-size="50" alignment-baseline="middle">2</text>
<text text-anchor="middle" x="697" y="50" font-size="50" alignment-baseline="baseline"></text>
G<path d="
M 160 582 
L 126 595 
L 160 608 
L 157 611 
L 123 598 
L 123 623 
L 117 623 
L 117 599 
L 83 611 
L 80 608 
L 114 595 
L 80 582 
L 83 579 
L 117 591 
L 117 567 
L 123 567 
L 123 591 
L 157 579 
L 160 582 
" fill="black" />
<path d="
" fill="black" />
<path d="
M 211 567 
L 238 567 
L 238 623 
L 211 623 
L 211 567 
" fill="black" />
<path d="
" fill="black" />
<path d="
" fill="black" />
<path d="
M 316 567 
L 343 567 
L 343 623 
L 316 623 
L 316 567 
" fill="black" />
<path d="
" fill="black" />
<path d="
" fill="black" />
<path d="
M 421 567 
L 448 567 
L 448 623 
L 421 623 
L 421 567 
" fill="black" />
<path d="
" fill="black" />
<path d="
" fill="black" />
<path d="
M 526 567 
L 553 567 
L 553 623 
L 526 623 
L 526 567 
" fill="black" />
<path d="
" fill="black" />
<path d="
" fill="black" />
<path d="
M 631 567 
L 658 567 
L 658 623 
L 631 623 
L 631 567 
" fill="black" />
<path d="
" fill="black" />
<path d="
" fill="black" />
<path d="
M 736 567 
L 763 567 
L 763 623 
L 736 623 
L 736 567 
" fill="black" />
<path d="
" fill="black" />
<path d="
" fill="black" />
<path d="
M 841 567 
L 868 567 
L 868 623 
L 841 623 
L 841 567 
" fill="black" />
<path d="
" fill="black" />
<path d="
" fill="black" />
<path d="
M 946 567 
L 973 567 
L 973 623 
L 946 623 
L 946 567 
" fill="black" />
<path d="
" fill="black" />
<path d="
" fill="black" />
<path d="
M 1051 567 
L 1078 567 
L 1078 623 
L 1051 623 
L 1051 567 
" fill="black" />
<path d="
" fill="black" />
<path d="
" fill="black" />
<path d="
M 1156 567 
L 1183 567 
L 1183 623 
L 1156 623 
L 1156 567 
" fill="black" />
<path d="
" fill="black" />
<path d="
M 1315 582 
L 1281 595 
L 1315 608 
L 1312 611 
L 1278 598 
L 1278 623 
L 1272 623 
L 1272 599 
L 1238 611 
L 1235 608 
L 1269 595 
L 1235 582 
L 1238 579 
L 1272 591 
L 1272 567 
L 1278 567 
L 1278 591 
L 1312 579 
L 1315 582 
" fill="black" />
</svg>
