<svg xmlns="http://www.w3.org/2000/svg"
viewBox="0 0 700 635">
<path d="
M 170 554 
L 170 554 
Q 155 554 , 147 554 
Q 139 554 , 129 554 
Q 108 554 , 98 554 
Q 86 554 , 86 554 
Q 86 554 , 98 554 
Q 108 554 , 129 554 
Q 139 554 , 147 554 
Q 155 554 , 170 554 
L 170 554 
Q 159 554 , 149 554 
Q 139 554 , 128 554 
Q 101 554 , 86 554 
Q 70 554 , 70 554 
Q 70 554 , 86 554 
Q 101 554 , 128 554 
Q 139 554 , 149 554 
Q 160 554 , 170 554 
" fill="#545FFF" />
<path d="
M 120 553 
L 102 553 
L 136 553 
L 120 553 
M 113 553 
L 127 553 
L 170 553 
L 154 553 
L 142 553 
L 98 553 
L 85 553 
L 70 553 
L 113 553 
" fill="#339541" />
<path d="
M 70 552 
L 88 552 
L 88 552 
Q 88 552 , 96 552 
Q 103 552 , 120 552 
Q 137 552 , 145 552 
Q 152 552 , 152 552 
L 152 552 
L 170 552 
L 170 552 
Q 170 552 , 157 552 
Q 145 552 , 120 552 
Q 96 552 , 83 552 
Q 70 552 , 70 552 
L 70 552 
" fill="#D21010" />
<path d="
M 154 551 
L 154 551 
L 125 551 
L 125 551 
L 170 551 
L 170 551 
Q 159 551 , 148 551 
Q 139 551 , 127 551 
Q 101 551 , 85 551 
Q 70 551 , 70 551 
Q 70 551 , 85 551 
Q 101 551 , 127 551 
Q 138 551 , 147 551 
Q 157 551 , 167 551 
L 167 551 
Q 154 551 , 146 551 
Q 137 551 , 128 551 
Q 107 551 , 96 551 
Q 86 551 , 86 551 
Q 86 551 , 96 551 
Q 107 551 , 128 551 
Q 137 551 , 144 551 
Q 151 551 , 154 551 
" fill="#F5C000" />
<path d="
M 275 551 
L 275 551 
Q 260 551 , 252 551 
Q 244 551 , 234 551 
Q 213 551 , 203 551 
Q 191 551 , 191 552 
Q 191 553 , 203 554 
Q 213 554 , 234 554 
Q 244 554 , 252 554 
Q 260 554 , 275 553 
L 275 554 
Q 264 554 , 254 555 
Q 244 555 , 233 555 
Q 206 555 , 191 554 
Q 175 553 , 175 552 
Q 175 551 , 191 551 
Q 206 550 , 233 550 
Q 244 550 , 254 550 
Q 265 550 , 275 551 
" fill="#545FFF" />
<path d="
M 225 539 
L 207 544 
L 241 544 
L 225 539 
M 218 537 
L 232 537 
L 275 549 
L 259 549 
L 247 546 
L 203 546 
L 190 549 
L 175 549 
L 218 537 
" fill="#339541" />
<path d="
M 259 531 
L 259 523 
L 230 523 
L 230 519 
L 275 519 
L 275 534 
Q 264 535 , 253 536 
Q 244 536 , 232 536 
Q 206 536 , 190 532 
Q 175 527 , 175 520 
Q 175 512 , 190 507 
Q 206 503 , 232 503 
Q 243 503 , 252 504 
Q 262 504 , 272 506 
L 272 510 
Q 259 508 , 251 507 
Q 242 507 , 233 507 
Q 212 507 , 201 510 
Q 191 513 , 191 520 
Q 191 526 , 201 529 
Q 212 533 , 233 533 
Q 242 533 , 249 532 
Q 256 532 , 259 531 
" fill="#F5C000" />
<path d="
M 175 451 
L 193 451 
L 193 482 
Q 193 490 , 201 494 
Q 208 497 , 225 497 
Q 242 497 , 250 494 
Q 257 490 , 257 482 
L 257 451 
L 275 451 
L 275 482 
Q 275 492 , 262 498 
Q 250 503 , 225 503 
Q 201 503 , 188 498 
Q 175 492 , 175 482 
L 175 451 
" fill="#D21010" />
<path d="
M 380 549 
L 380 550 
Q 365 549 , 357 549 
Q 349 549 , 339 549 
Q 318 549 , 308 549 
Q 296 550 , 296 551 
Q 296 553 , 308 553 
Q 318 554 , 339 554 
Q 349 554 , 357 554 
Q 365 554 , 380 553 
L 380 554 
Q 369 554 , 359 555 
Q 349 555 , 338 555 
Q 311 555 , 296 554 
Q 280 553 , 280 551 
Q 280 550 , 296 549 
Q 311 548 , 338 548 
Q 349 548 , 359 548 
Q 370 548 , 380 549 
" fill="#545FFF" />
<path d="
M 330 532 
L 312 540 
L 346 540 
L 330 532 
M 323 529 
L 337 529 
L 380 547 
L 364 547 
L 352 542 
L 308 542 
L 295 547 
L 280 547 
L 323 529 
" fill="#339541" />
<path d="
M 280 504 
L 298 504 
L 298 518 
Q 298 522 , 306 524 
Q 313 525 , 330 525 
Q 347 525 , 355 524 
Q 362 522 , 362 518 
L 362 504 
L 380 504 
L 380 519 
Q 380 523 , 367 526 
Q 355 528 , 330 528 
Q 306 528 , 293 526 
Q 280 523 , 280 519 
L 280 504 
" fill="#D21010" />
<path d="
M 364 490 
L 364 467 
L 335 467 
L 335 457 
L 380 457 
L 380 496 
Q 369 500 , 358 501 
Q 349 503 , 337 503 
Q 311 503 , 295 491 
Q 280 480 , 280 459 
Q 280 439 , 295 427 
Q 311 415 , 337 415 
Q 348 415 , 357 417 
Q 367 418 , 377 422 
L 377 433 
Q 364 428 , 356 427 
Q 347 426 , 338 426 
Q 317 426 , 306 434 
Q 296 442 , 296 459 
Q 296 476 , 306 485 
Q 317 493 , 338 493 
Q 347 493 , 354 492 
Q 361 492 , 364 490 
" fill="#F5C000" />
<path d="
M 485 550 
L 485 551 
Q 470 550 , 462 550 
Q 454 550 , 444 550 
Q 423 550 , 413 550 
Q 401 551 , 401 552 
Q 401 553 , 413 554 
Q 423 554 , 444 554 
Q 454 554 , 462 554 
Q 470 554 , 485 553 
L 485 554 
Q 474 555 , 464 555 
Q 454 555 , 443 555 
Q 416 555 , 401 554 
Q 385 553 , 385 552 
Q 385 551 , 401 550 
Q 416 549 , 443 549 
Q 454 549 , 464 549 
Q 475 549 , 485 550 
" fill="#545FFF" />
<path d="
M 469 546 
L 469 541 
L 440 541 
L 440 539 
L 485 539 
L 485 547 
Q 474 548 , 463 548 
Q 454 549 , 442 549 
Q 416 549 , 400 546 
Q 385 544 , 385 540 
Q 385 536 , 400 533 
Q 416 531 , 442 531 
Q 453 531 , 462 531 
Q 472 532 , 482 532 
L 482 535 
Q 469 534 , 461 533 
Q 452 533 , 443 533 
Q 422 533 , 411 535 
Q 401 536 , 401 540 
Q 401 543 , 411 545 
Q 422 547 , 443 547 
Q 452 547 , 459 546 
Q 466 546 , 469 546 
" fill="#F5C000" />
<path d="
M 435 515 
L 417 522 
L 451 522 
L 435 515 
M 428 511 
L 442 511 
L 485 530 
L 469 530 
L 457 525 
L 413 525 
L 400 530 
L 385 530 
L 428 511 
" fill="#339541" />
<path d="
M 385 453 
L 403 453 
L 403 487 
Q 403 496 , 411 500 
Q 418 504 , 435 504 
Q 452 504 , 460 500 
Q 467 496 , 467 487 
L 467 453 
L 485 453 
L 485 488 
Q 485 499 , 472 505 
Q 460 511 , 435 511 
Q 411 511 , 398 505 
Q 385 499 , 385 488 
L 385 453 
" fill="#D21010" />
<path d="
M 590 551 
L 590 552 
Q 575 552 , 567 551 
Q 559 551 , 549 551 
Q 528 551 , 518 552 
Q 506 552 , 506 552 
Q 506 553 , 518 554 
Q 528 554 , 549 554 
Q 559 554 , 567 554 
Q 575 554 , 590 553 
L 590 554 
Q 579 554 , 569 554 
Q 559 554 , 548 554 
Q 521 554 , 506 554 
Q 490 553 , 490 553 
Q 490 552 , 506 551 
Q 521 551 , 548 551 
Q 559 551 , 569 551 
Q 580 551 , 590 551 
" fill="#545FFF" />
<path d="
M 490 538 
L 508 538 
L 508 545 
Q 508 547 , 516 548 
Q 523 549 , 540 549 
Q 557 549 , 565 548 
Q 572 547 , 572 545 
L 572 538 
L 590 538 
L 590 545 
Q 590 548 , 577 549 
Q 565 550 , 540 550 
Q 516 550 , 503 549 
Q 490 548 , 490 545 
L 490 538 
" fill="#D21010" />
<path d="
M 574 535 
L 574 530 
L 545 530 
L 545 528 
L 590 528 
L 590 536 
Q 579 537 , 568 537 
Q 559 538 , 547 538 
Q 521 538 , 505 535 
Q 490 533 , 490 528 
Q 490 524 , 505 522 
Q 521 519 , 547 519 
Q 558 519 , 567 519 
Q 577 520 , 587 521 
L 587 523 
Q 574 522 , 566 522 
Q 557 521 , 548 521 
Q 527 521 , 516 523 
Q 506 525 , 506 528 
Q 506 532 , 516 534 
Q 527 536 , 548 536 
Q 557 536 , 564 535 
Q 571 535 , 574 535 
" fill="#F5C000" />
<path d="
M 540 502 
L 522 510 
L 556 510 
L 540 502 
M 533 498 
L 547 498 
L 590 519 
L 574 519 
L 562 513 
L 518 513 
L 505 519 
L 490 519 
L 533 498 
" fill="#339541" />
<path d="
M 695 554 
L 695 554 
Q 680 554 , 672 554 
Q 664 554 , 654 554 
Q 633 554 , 623 554 
Q 611 554 , 611 554 
Q 611 554 , 623 554 
Q 633 554 , 654 554 
Q 664 554 , 672 554 
Q 680 554 , 695 554 
L 695 554 
Q 684 554 , 674 554 
Q 664 554 , 653 554 
Q 626 554 , 611 554 
Q 595 554 , 595 554 
Q 595 554 , 611 554 
Q 626 554 , 653 554 
Q 664 554 , 674 554 
Q 685 554 , 695 554 
" fill="#545FFF" />
<path d="
M 645 553 
L 627 553 
L 661 553 
L 645 553 
M 638 553 
L 652 553 
L 695 553 
L 679 553 
L 667 553 
L 623 553 
L 610 553 
L 595 553 
L 638 553 
" fill="#339541" />
<path d="
M 595 552 
L 613 552 
L 613 552 
Q 613 552 , 621 552 
Q 628 552 , 645 552 
Q 662 552 , 670 552 
Q 677 552 , 677 552 
L 677 552 
L 695 552 
L 695 552 
Q 695 552 , 682 552 
Q 670 552 , 645 552 
Q 621 552 , 608 552 
Q 595 552 , 595 552 
L 595 552 
" fill="#D21010" />
<path d="
M 679 551 
L 679 551 
L 650 551 
L 650 551 
L 695 551 
L 695 551 
Q 684 551 , 673 551 
Q 664 551 , 652 551 
Q 626 551 , 610 551 
Q 595 551 , 595 551 
Q 595 551 , 610 551 
Q 626 551 , 652 551 
Q 663 551 , 672 551 
Q 682 551 , 692 551 
L 692 551 
Q 679 551 , 671 551 
Q 662 551 , 653 551 
Q 632 551 , 621 551 
Q 611 551 , 611 551 
Q 611 551 , 621 551 
Q 632 551 , 653 551 
Q 662 551 , 669 551 
Q 676 551 , 679 551 
" fill="#F5C000" />
<path d="M 65 55 L 65 555 " stroke="black" stroke-width="1.5"/>
<path d="M 55 555 L 65 555 " stroke="black" stroke-width="4"/>
<text text-anchor="end" x="50" y="555" font-size="50" alignment-baseline="middle">0</text>
<path d="M 55 305 L 65 305 " stroke="black" stroke-width="4"/>
<text text-anchor="end" x="50" y="305" font-size="50" alignment-baseline="middle">1</text>
<path d="M 55 55 L 65 55 " stroke="black" stroke-width="4"/>
<text text-anchor="end" x="50" y="55" font-size="50" alignment-baseline="middle">2</text>
<text text-anchor="middle" x="382" y="50" font-size="50" alignment-baseline="baseline"></text>
G<path d="
M 160 582 
L 126 595 
L 160 608 
L 157 611 
L 123 598 
L 123 623 
L 117 623 
L 117 599 
L 83 611 
L 80 608 
L 114 595 
L 80 582 
L 83 579 
L 117 591 
L 117 567 
L 123 567 
L 123 591 
L 157 579 
L 160 582 
" fill="black" />
<path d="
" fill="black" />
<path d="
M 211 567 
L 238 567 
L 238 623 
L 211 623 
L 211 567 
" fill="black" />
<path d="
" fill="black" />
<path d="
" fill="black" />
<path d="
M 316 567 
L 343 567 
L 343 623 
L 316 623 
L 316 567 
" fill="black" />
<path d="
" fill="black" />
<path d="
" fill="black" />
<path d="
M 421 567 
L 448 567 
L 448 623 
L 421 623 
L 421 567 
" fill="black" />
<path d="
" fill="black" />
<path d="
" fill="black" />
<path d="
M 526 567 
L 553 567 
L 553 623 
L 526 623 
L 526 567 
" fill="black" />
<path d="
" fill="black" />
<path d="
M 685 582 
L 651 595 
L 685 608 
L 682 611 
L 648 598 
L 648 623 
L 642 623 
L 642 599 
L 608 611 
L 605 608 
L 639 595 
L 605 582 
L 608 579 
L 642 591 
L 642 567 
L 648 567 
L 648 591 
L 682 579 
L 685 582 
" fill="black" />
</svg>
