<svg xmlns="http://www.w3.org/2000/svg"
viewBox="0 0 805 635">
<path d="
M 170 554 
L 170 554 
Q 155 554 , 147 554 
Q 139 554 , 129 554 
Q 108 554 , 98 554 
Q 86 554 , 86 554 
Q 86 554 , 98 554 
Q 108 554 , 129 554 
Q 139 554 , 147 554 
Q 155 554 , 170 554 
L 170 554 
Q 159 554 , 149 554 
Q 139 554 , 128 554 
Q 101 554 , 86 554 
Q 70 554 , 70 554 
Q 70 554 , 86 554 
Q 101 554 , 128 554 
Q 139 554 , 149 554 
Q 160 554 , 170 554 
" fill="#545FFF" />
<path d="
M 70 553 
L 88 553 
L 88 553 
Q 88 553 , 96 553 
Q 103 554 , 120 554 
Q 137 554 , 145 553 
Q 152 553 , 152 553 
L 152 553 
L 170 553 
L 170 553 
Q 170 553 , 157 554 
Q 145 554 , 120 554 
Q 96 554 , 83 554 
Q 70 553 , 70 553 
L 70 553 
" fill="#D21010" />
<path d="
M 120 552 
L 102 552 
L 136 552 
L 120 552 
M 113 552 
L 127 552 
L 170 553 
L 154 553 
L 142 552 
L 98 552 
L 85 553 
L 70 553 
L 113 552 
" fill="#339541" />
<path d="
M 154 552 
L 154 551 
L 125 551 
L 125 551 
L 170 551 
L 170 552 
Q 159 552 , 148 552 
Q 139 552 , 127 552 
Q 101 552 , 85 552 
Q 70 551 , 70 551 
Q 70 551 , 85 551 
Q 101 551 , 127 551 
Q 138 551 , 147 551 
Q 157 551 , 167 551 
L 167 551 
Q 154 551 , 146 551 
Q 137 551 , 128 551 
Q 107 551 , 96 551 
Q 86 551 , 86 551 
Q 86 551 , 96 552 
Q 107 552 , 128 552 
Q 137 552 , 144 552 
Q 151 552 , 154 552 
" fill="#F5C000" />
<path d="
M 275 551 
L 275 551 
Q 260 551 , 252 551 
Q 244 551 , 234 551 
Q 213 551 , 203 551 
Q 191 551 , 191 552 
Q 191 553 , 203 554 
Q 213 554 , 234 554 
Q 244 554 , 252 554 
Q 260 554 , 275 554 
L 275 554 
Q 264 555 , 254 555 
Q 244 555 , 233 555 
Q 206 555 , 191 554 
Q 175 553 , 175 552 
Q 175 551 , 191 551 
Q 206 550 , 233 550 
Q 244 550 , 254 550 
Q 265 550 , 275 551 
" fill="#545FFF" />
<path d="
M 225 542 
L 207 546 
L 241 546 
L 225 542 
M 218 540 
L 232 540 
L 275 550 
L 259 550 
L 247 547 
L 203 547 
L 190 550 
L 175 550 
L 218 540 
" fill="#339541" />
<path d="
M 175 492 
L 193 492 
L 193 520 
Q 193 528 , 201 531 
Q 208 534 , 225 534 
Q 242 534 , 250 531 
Q 257 528 , 257 520 
L 257 492 
L 275 492 
L 275 521 
Q 275 530 , 262 534 
Q 250 539 , 225 539 
Q 201 539 , 188 534 
Q 175 530 , 175 521 
L 175 492 
" fill="#D21010" />
<path d="
M 259 473 
L 259 438 
L 230 438 
L 230 424 
L 275 424 
L 275 482 
Q 264 487 , 253 489 
Q 244 491 , 232 492 
Q 206 492 , 190 474 
Q 175 457 , 175 427 
Q 175 397 , 190 379 
Q 206 362 , 232 362 
Q 243 362 , 252 364 
Q 262 367 , 272 372 
L 272 389 
Q 259 382 , 251 380 
Q 242 377 , 233 377 
Q 212 377 , 201 390 
Q 191 402 , 191 427 
Q 191 452 , 201 465 
Q 212 477 , 233 477 
Q 242 477 , 249 476 
Q 256 475 , 259 473 
" fill="#F5C000" />
<path d="
M 280 550 
L 298 550 
L 298 552 
Q 298 553 , 306 553 
Q 313 554 , 330 554 
Q 347 554 , 355 553 
Q 362 553 , 362 552 
L 362 550 
L 380 550 
L 380 552 
Q 380 553 , 367 554 
Q 355 554 , 330 554 
Q 306 554 , 293 554 
Q 280 553 , 280 552 
L 280 550 
" fill="#D21010" />
<path d="
M 380 545 
L 380 545 
Q 365 545 , 357 545 
Q 349 545 , 339 545 
Q 318 545 , 308 545 
Q 296 546 , 296 546 
Q 296 547 , 308 548 
Q 318 548 , 339 548 
Q 349 548 , 357 548 
Q 365 548 , 380 548 
L 380 549 
Q 369 549 , 359 549 
Q 349 549 , 338 549 
Q 311 549 , 296 548 
Q 280 548 , 280 547 
Q 280 545 , 296 545 
Q 311 544 , 338 544 
Q 349 544 , 359 544 
Q 370 544 , 380 545 
" fill="#545FFF" />
<path d="
M 364 543 
L 364 541 
L 335 541 
L 335 540 
L 380 540 
L 380 543 
Q 369 544 , 358 544 
Q 349 544 , 337 544 
Q 311 544 , 295 543 
Q 280 542 , 280 540 
Q 280 539 , 295 538 
Q 311 537 , 337 537 
Q 348 537 , 357 537 
Q 367 537 , 377 538 
L 377 538 
Q 364 538 , 356 538 
Q 347 538 , 338 538 
Q 317 538 , 306 538 
Q 296 539 , 296 540 
Q 296 542 , 306 542 
Q 317 543 , 338 543 
Q 347 543 , 354 543 
Q 361 543 , 364 543 
" fill="#F5C000" />
<path d="
M 330 528 
L 312 532 
L 346 532 
L 330 528 
M 323 526 
L 337 526 
L 380 537 
L 364 537 
L 352 534 
L 308 534 
L 295 537 
L 280 537 
L 323 526 
" fill="#339541" />
<path d="
M 485 552 
L 485 553 
Q 470 552 , 462 552 
Q 454 552 , 444 552 
Q 423 552 , 413 553 
Q 401 553 , 401 553 
Q 401 554 , 413 554 
Q 423 555 , 444 555 
Q 454 555 , 462 555 
Q 470 554 , 485 554 
L 485 555 
Q 474 555 , 464 555 
Q 454 555 , 443 555 
Q 416 555 , 401 555 
Q 385 554 , 385 553 
Q 385 553 , 401 552 
Q 416 552 , 443 552 
Q 454 552 , 464 552 
Q 475 552 , 485 552 
" fill="#545FFF" />
<path d="
M 469 548 
L 469 543 
L 440 543 
L 440 541 
L 485 541 
L 485 550 
Q 474 550 , 463 551 
Q 454 551 , 442 551 
Q 416 551 , 400 548 
Q 385 546 , 385 542 
Q 385 537 , 400 535 
Q 416 532 , 442 532 
Q 453 532 , 462 532 
Q 472 533 , 482 534 
L 482 536 
Q 469 535 , 461 535 
Q 452 534 , 443 534 
Q 422 534 , 411 536 
Q 401 538 , 401 542 
Q 401 545 , 411 547 
Q 422 549 , 443 549 
Q 452 549 , 459 549 
Q 466 549 , 469 548 
" fill="#F5C000" />
<path d="
M 435 510 
L 417 521 
L 451 521 
L 435 510 
M 428 505 
L 442 505 
L 485 531 
L 469 531 
L 457 524 
L 413 524 
L 400 531 
L 385 531 
L 428 505 
" fill="#339541" />
<path d="
M 385 452 
L 403 452 
L 403 483 
Q 403 492 , 411 496 
Q 418 499 , 435 499 
Q 452 499 , 460 496 
Q 467 492 , 467 483 
L 467 452 
L 485 452 
L 485 484 
Q 485 494 , 472 499 
Q 460 505 , 435 505 
Q 411 505 , 398 499 
Q 385 494 , 385 484 
L 385 452 
" fill="#D21010" />
<path d="
M 590 549 
L 590 550 
Q 575 549 , 567 549 
Q 559 549 , 549 549 
Q 528 549 , 518 549 
Q 506 550 , 506 551 
Q 506 552 , 518 553 
Q 528 553 , 549 553 
Q 559 553 , 567 553 
Q 575 553 , 590 552 
L 590 553 
Q 579 554 , 569 554 
Q 559 554 , 548 554 
Q 521 554 , 506 553 
Q 490 552 , 490 551 
Q 490 550 , 506 549 
Q 521 548 , 548 548 
Q 559 548 , 569 548 
Q 580 548 , 590 549 
" fill="#545FFF" />
<path d="
M 540 538 
L 522 543 
L 556 543 
L 540 538 
M 533 536 
L 547 536 
L 590 547 
L 574 547 
L 562 544 
L 518 544 
L 505 547 
L 490 547 
L 533 536 
" fill="#339541" />
<path d="
M 490 496 
L 508 496 
L 508 519 
Q 508 525 , 516 528 
Q 523 531 , 540 531 
Q 557 531 , 565 528 
Q 572 525 , 572 519 
L 572 496 
L 590 496 
L 590 520 
Q 590 527 , 577 531 
Q 565 535 , 540 535 
Q 516 535 , 503 531 
Q 490 527 , 490 520 
L 490 496 
" fill="#D21010" />
<path d="
M 574 472 
L 574 430 
L 545 430 
L 545 412 
L 590 412 
L 590 483 
Q 579 490 , 568 492 
Q 559 495 , 547 495 
Q 521 495 , 505 474 
Q 490 453 , 490 416 
Q 490 378 , 505 357 
Q 521 336 , 547 336 
Q 558 336 , 567 339 
Q 577 342 , 587 349 
L 587 369 
Q 574 360 , 566 358 
Q 557 355 , 548 355 
Q 527 355 , 516 370 
Q 506 385 , 506 416 
Q 506 447 , 516 462 
Q 527 477 , 548 477 
Q 557 477 , 564 476 
Q 571 474 , 574 472 
" fill="#F5C000" />
<path d="
M 695 545 
L 695 547 
Q 680 546 , 672 545 
Q 664 545 , 654 545 
Q 633 545 , 623 546 
Q 611 547 , 611 549 
Q 611 551 , 623 552 
Q 633 553 , 654 553 
Q 664 553 , 672 553 
Q 680 553 , 695 552 
L 695 553 
Q 684 554 , 674 554 
Q 664 554 , 653 554 
Q 626 554 , 611 553 
Q 595 552 , 595 549 
Q 595 547 , 611 545 
Q 626 544 , 653 544 
Q 664 544 , 674 544 
Q 685 545 , 695 545 
" fill="#545FFF" />
<path d="
M 679 542 
L 679 539 
L 650 539 
L 650 537 
L 695 537 
L 695 543 
Q 684 543 , 673 543 
Q 664 543 , 652 543 
Q 626 543 , 610 542 
Q 595 540 , 595 538 
Q 595 535 , 610 534 
Q 626 532 , 652 532 
Q 663 532 , 672 532 
Q 682 532 , 692 533 
L 692 534 
Q 679 534 , 671 534 
Q 662 533 , 653 533 
Q 632 533 , 621 534 
Q 611 536 , 611 538 
Q 611 540 , 621 541 
Q 632 542 , 653 542 
Q 662 542 , 669 542 
Q 676 542 , 679 542 
" fill="#F5C000" />
<path d="
M 595 502 
L 613 502 
L 613 520 
Q 613 524 , 621 527 
Q 628 528 , 645 528 
Q 662 528 , 670 527 
Q 677 524 , 677 520 
L 677 502 
L 695 502 
L 695 520 
Q 695 526 , 682 529 
Q 670 532 , 645 532 
Q 621 532 , 608 529 
Q 595 526 , 595 520 
L 595 502 
" fill="#D21010" />
<path d="
M 645 410 
L 627 456 
L 661 456 
L 645 410 
M 638 390 
L 652 390 
L 695 501 
L 679 501 
L 667 468 
L 623 468 
L 610 501 
L 595 501 
L 638 390 
" fill="#339541" />
<path d="
M 800 554 
L 800 554 
Q 785 554 , 777 554 
Q 769 554 , 759 554 
Q 738 554 , 728 554 
Q 716 554 , 716 554 
Q 716 554 , 728 554 
Q 738 554 , 759 554 
Q 769 554 , 777 554 
Q 785 554 , 800 554 
L 800 554 
Q 789 554 , 779 554 
Q 769 554 , 758 554 
Q 731 554 , 716 554 
Q 700 554 , 700 554 
Q 700 554 , 716 554 
Q 731 554 , 758 554 
Q 769 554 , 779 554 
Q 790 554 , 800 554 
" fill="#545FFF" />
<path d="
M 700 553 
L 718 553 
L 718 553 
Q 718 553 , 726 553 
Q 733 554 , 750 554 
Q 767 554 , 775 553 
Q 782 553 , 782 553 
L 782 553 
L 800 553 
L 800 553 
Q 800 553 , 787 554 
Q 775 554 , 750 554 
Q 726 554 , 713 554 
Q 700 553 , 700 553 
L 700 553 
" fill="#D21010" />
<path d="
M 750 552 
L 732 552 
L 766 552 
L 750 552 
M 743 552 
L 757 552 
L 800 553 
L 784 553 
L 772 552 
L 728 552 
L 715 553 
L 700 553 
L 743 552 
" fill="#339541" />
<path d="
M 784 552 
L 784 551 
L 755 551 
L 755 551 
L 800 551 
L 800 552 
Q 789 552 , 778 552 
Q 769 552 , 757 552 
Q 731 552 , 715 552 
Q 700 551 , 700 551 
Q 700 551 , 715 551 
Q 731 551 , 757 551 
Q 768 551 , 777 551 
Q 787 551 , 797 551 
L 797 551 
Q 784 551 , 776 551 
Q 767 551 , 758 551 
Q 737 551 , 726 551 
Q 716 551 , 716 551 
Q 716 551 , 726 552 
Q 737 552 , 758 552 
Q 767 552 , 774 552 
Q 781 552 , 784 552 
" fill="#F5C000" />
<path d="M 65 55 L 65 555 " stroke="black" stroke-width="1.5"/>
<path d="M 55 555 L 65 555 " stroke="black" stroke-width="4"/>
<text text-anchor="end" x="50" y="555" font-size="50" alignment-baseline="middle">0</text>
<path d="M 55 305 L 65 305 " stroke="black" stroke-width="4"/>
<text text-anchor="end" x="50" y="305" font-size="50" alignment-baseline="middle">1</text>
<path d="M 55 55 L 65 55 " stroke="black" stroke-width="4"/>
<text text-anchor="end" x="50" y="55" font-size="50" alignment-baseline="middle">2</text>
<text text-anchor="middle" x="435" y="50" font-size="50" alignment-baseline="baseline"></text>
G<path d="
M 160 582 
L 126 595 
L 160 608 
L 157 611 
L 123 598 
L 123 623 
L 117 623 
L 117 599 
L 83 611 
L 80 608 
L 114 595 
L 80 582 
L 83 579 
L 117 591 
L 117 567 
L 123 567 
L 123 591 
L 157 579 
L 160 582 
" fill="black" />
<path d="
" fill="black" />
<path d="
M 211 567 
L 238 567 
L 238 623 
L 211 623 
L 211 567 
" fill="black" />
<path d="
" fill="black" />
<path d="
" fill="black" />
<path d="
M 316 567 
L 343 567 
L 343 623 
L 316 623 
L 316 567 
" fill="black" />
<path d="
" fill="black" />
<path d="
" fill="black" />
<path d="
M 421 567 
L 448 567 
L 448 623 
L 421 623 
L 421 567 
" fill="black" />
<path d="
" fill="black" />
<path d="
" fill="black" />
<path d="
M 526 567 
L 553 567 
L 553 623 
L 526 623 
L 526 567 
" fill="black" />
<path d="
" fill="black" />
<path d="
" fill="black" />
<path d="
M 631 567 
L 658 567 
L 658 623 
L 631 623 
L 631 567 
" fill="black" />
<path d="
" fill="black" />
<path d="
M 790 582 
L 756 595 
L 790 608 
L 787 611 
L 753 598 
L 753 623 
L 747 623 
L 747 599 
L 713 611 
L 710 608 
L 744 595 
L 710 582 
L 713 579 
L 747 591 
L 747 567 
L 753 567 
L 753 591 
L 787 579 
L 790 582 
" fill="black" />
</svg>
