<svg xmlns="http://www.w3.org/2000/svg"
viewBox="0 0 1330 635">
<path d="
M 154 555 
L 154 554 
L 125 554 
L 125 554 
L 170 554 
L 170 555 
Q 159 555 , 148 555 
Q 139 555 , 127 555 
Q 101 555 , 85 555 
Q 70 555 , 70 554 
Q 70 554 , 85 554 
Q 101 554 , 127 554 
Q 138 554 , 147 554 
Q 157 554 , 167 554 
L 167 554 
Q 154 554 , 146 554 
Q 137 554 , 128 554 
Q 107 554 , 96 554 
Q 86 554 , 86 554 
Q 86 555 , 96 555 
Q 107 555 , 128 555 
Q 137 555 , 144 555 
Q 151 555 , 154 555 
" fill="#F5C000" />
<path d="
M 170 553 
L 170 553 
Q 155 553 , 147 553 
Q 139 553 , 129 553 
Q 108 553 , 98 553 
Q 86 553 , 86 553 
Q 86 554 , 98 554 
Q 108 554 , 129 554 
Q 139 554 , 147 554 
Q 155 554 , 170 554 
L 170 554 
Q 159 554 , 149 554 
Q 139 554 , 128 554 
Q 101 554 , 86 554 
Q 70 554 , 70 553 
Q 70 553 , 86 553 
Q 101 553 , 128 553 
Q 139 553 , 149 553 
Q 160 553 , 170 553 
" fill="#545FFF" />
<path d="
M 70 552 
L 88 552 
L 88 553 
Q 88 553 , 96 553 
Q 103 553 , 120 553 
Q 137 553 , 145 553 
Q 152 553 , 152 553 
L 152 552 
L 170 552 
L 170 553 
Q 170 553 , 157 553 
Q 145 553 , 120 553 
Q 96 553 , 83 553 
Q 70 553 , 70 553 
L 70 552 
" fill="#D21010" />
<path d="
M 120 550 
L 102 551 
L 136 551 
L 120 550 
M 113 550 
L 127 550 
L 170 551 
L 154 551 
L 142 551 
L 98 551 
L 85 551 
L 70 551 
L 113 550 
" fill="#339541" />
<path d="
M 225 554 
L 207 554 
L 241 554 
L 225 554 
M 218 554 
L 232 554 
L 275 555 
L 259 555 
L 247 554 
L 203 554 
L 190 555 
L 175 555 
L 218 554 
" fill="#339541" />
<path d="
M 259 554 
L 259 553 
L 230 553 
L 230 553 
L 275 553 
L 275 554 
Q 264 554 , 253 554 
Q 244 554 , 232 554 
Q 206 554 , 190 554 
Q 175 554 , 175 553 
Q 175 553 , 190 553 
Q 206 553 , 232 553 
Q 243 553 , 252 553 
Q 262 553 , 272 553 
L 272 553 
Q 259 553 , 251 553 
Q 242 553 , 233 553 
Q 212 553 , 201 553 
Q 191 553 , 191 553 
Q 191 553 , 201 554 
Q 212 554 , 233 554 
Q 242 554 , 249 554 
Q 256 554 , 259 554 
" fill="#F5C000" />
<path d="
M 175 552 
L 193 552 
L 193 553 
Q 193 553 , 201 553 
Q 208 553 , 225 553 
Q 242 553 , 250 553 
Q 257 553 , 257 553 
L 257 552 
L 275 552 
L 275 553 
Q 275 553 , 262 553 
Q 250 553 , 225 553 
Q 201 553 , 188 553 
Q 175 553 , 175 553 
L 175 552 
" fill="#D21010" />
<path d="
M 275 551 
L 275 551 
Q 260 551 , 252 551 
Q 244 551 , 234 551 
Q 213 551 , 203 551 
Q 191 551 , 191 551 
Q 191 552 , 203 552 
Q 213 552 , 234 552 
Q 244 552 , 252 552 
Q 260 552 , 275 552 
L 275 552 
Q 264 552 , 254 552 
Q 244 552 , 233 552 
Q 206 552 , 191 552 
Q 175 552 , 175 551 
Q 175 551 , 191 551 
Q 206 551 , 233 551 
Q 244 551 , 254 551 
Q 265 551 , 275 551 
" fill="#545FFF" />
<path d="
M 280 553 
L 289 553 
L 289 554 
Q 289 554 , 293 555 
Q 296 555 , 305 555 
Q 314 555 , 317 555 
Q 321 554 , 321 554 
L 321 553 
L 330 553 
L 330 554 
Q 330 554 , 324 555 
Q 317 555 , 305 555 
Q 293 555 , 286 555 
Q 280 554 , 280 554 
L 280 553 
" fill="#D21010" />
<path d="
M 355 553 
L 346 554 
L 363 554 
L 355 553 
M 351 553 
L 359 553 
L 380 555 
L 372 555 
L 366 554 
L 344 554 
L 337 555 
L 330 555 
L 351 553 
" fill="lightgray" />
<path d="
M 305 550 
L 296 551 
L 313 551 
L 305 550 
M 301 549 
L 309 549 
L 330 553 
L 322 553 
L 316 552 
L 294 552 
L 287 553 
L 280 553 
L 301 549 
" fill="#339541" />
<path d="
M 330 549 
L 339 549 
L 339 551 
Q 339 552 , 343 552 
Q 346 552 , 355 552 
Q 364 552 , 367 552 
Q 371 552 , 371 551 
L 371 549 
L 380 549 
L 380 551 
Q 380 552 , 374 552 
Q 367 553 , 355 553 
Q 343 553 , 336 552 
Q 330 552 , 330 551 
L 330 549 
" fill="lightgray" />
<path d="
M 322 548 
L 322 546 
L 308 546 
L 308 546 
L 330 546 
L 330 548 
Q 325 548 , 319 548 
Q 314 548 , 308 548 
Q 295 548 , 288 548 
Q 280 547 , 280 546 
Q 280 545 , 288 545 
Q 295 544 , 308 544 
Q 314 544 , 319 544 
Q 324 544 , 329 544 
L 329 545 
Q 322 545 , 318 545 
Q 314 544 , 309 544 
Q 299 544 , 293 545 
Q 288 545 , 288 546 
Q 288 547 , 293 547 
Q 299 548 , 309 548 
Q 314 548 , 317 548 
Q 321 548 , 322 548 
" fill="#F5C000" />
<path d="
M 380 544 
L 380 545 
Q 373 545 , 369 545 
Q 364 544 , 359 544 
Q 349 544 , 344 545 
Q 338 545 , 338 546 
Q 338 547 , 344 547 
Q 349 548 , 359 548 
Q 364 548 , 369 548 
Q 373 547 , 380 547 
L 380 548 
Q 375 548 , 369 548 
Q 365 548 , 359 548 
Q 345 548 , 338 548 
Q 330 547 , 330 546 
Q 330 545 , 338 545 
Q 345 544 , 359 544 
Q 365 544 , 370 544 
Q 375 544 , 380 544 
" fill="lightgray" />
<path d="
M 322 539 
L 322 531 
L 308 531 
L 308 528 
L 330 528 
L 330 541 
Q 325 543 , 319 543 
Q 314 544 , 308 544 
Q 295 544 , 288 540 
Q 280 536 , 280 528 
Q 280 521 , 288 517 
Q 295 513 , 308 513 
Q 314 513 , 319 514 
Q 324 514 , 329 515 
L 329 519 
Q 322 518 , 318 517 
Q 314 517 , 309 517 
Q 299 517 , 293 520 
Q 288 522 , 288 528 
Q 288 534 , 293 537 
Q 299 540 , 309 540 
Q 314 540 , 317 540 
Q 321 540 , 322 539 
" fill="#F5C000" />
<path d="
M 330 513 
L 339 513 
L 339 531 
Q 339 536 , 343 538 
Q 346 540 , 355 540 
Q 364 540 , 367 538 
Q 371 536 , 371 531 
L 371 513 
L 380 513 
L 380 532 
Q 380 538 , 374 541 
Q 367 544 , 355 544 
Q 343 544 , 336 541 
Q 330 538 , 330 532 
L 330 513 
" fill="lightgray" />
<path d="
M 330 483 
L 330 488 
Q 323 484 , 319 484 
Q 314 483 , 309 483 
Q 299 483 , 294 486 
Q 288 489 , 288 495 
Q 288 502 , 294 506 
Q 299 509 , 309 509 
Q 314 509 , 319 508 
Q 323 507 , 330 504 
L 330 509 
Q 325 511 , 319 512 
Q 315 513 , 309 513 
Q 295 513 , 288 508 
Q 280 504 , 280 496 
Q 280 488 , 288 484 
Q 295 479 , 309 479 
Q 315 479 , 320 480 
Q 325 481 , 330 483 
" fill="#545FFF" />
<path d="
M 372 508 
L 372 499 
L 358 499 
L 358 495 
L 380 495 
L 380 510 
Q 375 511 , 369 512 
Q 364 513 , 358 513 
Q 345 513 , 338 508 
Q 330 504 , 330 496 
Q 330 488 , 338 484 
Q 345 479 , 358 479 
Q 364 479 , 369 480 
Q 374 480 , 379 482 
L 379 486 
Q 372 484 , 368 484 
Q 364 483 , 359 483 
Q 349 483 , 343 486 
Q 338 489 , 338 496 
Q 338 502 , 343 506 
Q 349 509 , 359 509 
Q 364 509 , 367 509 
Q 371 508 , 372 508 
" fill="lightgray" />
<path d="
M 280 439 
L 289 439 
L 289 462 
Q 289 469 , 293 472 
Q 296 474 , 305 474 
Q 314 474 , 317 472 
Q 321 469 , 321 462 
L 321 439 
L 330 439 
L 330 463 
Q 330 471 , 324 475 
Q 317 479 , 305 479 
Q 293 479 , 286 475 
Q 280 471 , 280 463 
L 280 439 
" fill="#D21010" />
<path d="
M 372 473 
L 372 462 
L 358 462 
L 358 458 
L 380 458 
L 380 476 
Q 375 477 , 369 478 
Q 364 479 , 358 479 
Q 345 479 , 338 473 
Q 330 468 , 330 459 
Q 330 450 , 338 444 
Q 345 439 , 358 439 
Q 364 439 , 369 440 
Q 374 440 , 379 442 
L 379 447 
Q 372 445 , 368 444 
Q 364 444 , 359 444 
Q 349 444 , 343 447 
Q 338 451 , 338 459 
Q 338 467 , 343 471 
Q 349 474 , 359 474 
Q 364 474 , 367 474 
Q 371 474 , 372 473 
" fill="lightgray" />
<path d="
M 485 553 
L 485 553 
Q 470 553 , 462 553 
Q 454 553 , 444 553 
Q 423 553 , 413 553 
Q 401 554 , 401 554 
Q 401 554 , 413 554 
Q 423 555 , 444 555 
Q 454 555 , 462 554 
Q 470 554 , 485 554 
L 485 555 
Q 474 555 , 464 555 
Q 454 555 , 443 555 
Q 416 555 , 401 554 
Q 385 554 , 385 554 
Q 385 553 , 401 553 
Q 416 553 , 443 553 
Q 454 553 , 464 553 
Q 475 553 , 485 553 
" fill="#545FFF" />
<path d="
M 385 550 
L 403 550 
L 403 552 
Q 403 552 , 411 552 
Q 418 552 , 435 552 
Q 452 552 , 460 552 
Q 467 552 , 467 552 
L 467 550 
L 485 550 
L 485 552 
Q 485 552 , 472 552 
Q 460 553 , 435 553 
Q 411 553 , 398 552 
Q 385 552 , 385 552 
L 385 550 
" fill="#D21010" />
<path d="
M 469 549 
L 469 548 
L 440 548 
L 440 548 
L 485 548 
L 485 549 
Q 474 549 , 463 549 
Q 454 549 , 442 549 
Q 416 549 , 400 549 
Q 385 548 , 385 548 
Q 385 547 , 400 546 
Q 416 546 , 442 546 
Q 453 546 , 462 546 
Q 472 546 , 482 546 
L 482 547 
Q 469 546 , 461 546 
Q 452 546 , 443 546 
Q 422 546 , 411 547 
Q 401 547 , 401 548 
Q 401 548 , 411 549 
Q 422 549 , 443 549 
Q 452 549 , 459 549 
Q 466 549 , 469 549 
" fill="#F5C000" />
<path d="
M 435 543 
L 417 544 
L 451 544 
L 435 543 
M 428 542 
L 442 542 
L 485 546 
L 469 546 
L 457 545 
L 413 545 
L 400 546 
L 385 546 
L 428 542 
" fill="#339541" />
<path d="
M 490 545 
L 508 545 
L 508 551 
Q 508 553 , 516 553 
Q 523 554 , 540 554 
Q 557 554 , 565 553 
Q 572 553 , 572 551 
L 572 545 
L 590 545 
L 590 551 
Q 590 553 , 577 554 
Q 565 555 , 540 555 
Q 516 555 , 503 554 
Q 490 553 , 490 551 
L 490 545 
" fill="#D21010" />
<path d="
M 574 543 
L 574 540 
L 545 540 
L 545 539 
L 590 539 
L 590 544 
Q 579 544 , 568 545 
Q 559 545 , 547 545 
Q 521 545 , 505 543 
Q 490 542 , 490 539 
Q 490 537 , 505 535 
Q 521 534 , 547 534 
Q 558 534 , 567 534 
Q 577 534 , 587 535 
L 587 536 
Q 574 536 , 566 535 
Q 557 535 , 548 535 
Q 527 535 , 516 536 
Q 506 537 , 506 539 
Q 506 542 , 516 543 
Q 527 544 , 548 544 
Q 557 544 , 564 544 
Q 571 543 , 574 543 
" fill="#F5C000" />
<path d="
M 590 522 
L 590 524 
Q 575 523 , 567 523 
Q 559 522 , 549 522 
Q 528 522 , 518 524 
Q 506 525 , 506 527 
Q 506 530 , 518 531 
Q 528 533 , 549 533 
Q 559 533 , 567 532 
Q 575 532 , 590 531 
L 590 533 
Q 579 533 , 569 534 
Q 559 534 , 548 534 
Q 521 534 , 506 532 
Q 490 530 , 490 528 
Q 490 525 , 506 523 
Q 521 521 , 548 521 
Q 559 521 , 569 521 
Q 580 522 , 590 522 
" fill="#545FFF" />
<path d="
M 540 473 
L 522 497 
L 556 497 
L 540 473 
M 533 462 
L 547 462 
L 590 521 
L 574 521 
L 562 504 
L 518 504 
L 505 521 
L 490 521 
L 533 462 
" fill="#339541" />
<path d="
M 679 554 
L 679 553 
L 650 553 
L 650 553 
L 695 553 
L 695 554 
Q 684 554 , 673 554 
Q 664 554 , 652 554 
Q 626 554 , 610 554 
Q 595 553 , 595 553 
Q 595 552 , 610 551 
Q 626 551 , 652 551 
Q 663 551 , 672 551 
Q 682 551 , 692 551 
L 692 552 
Q 679 551 , 671 551 
Q 662 551 , 653 551 
Q 632 551 , 621 552 
Q 611 552 , 611 553 
Q 611 553 , 621 554 
Q 632 554 , 653 554 
Q 662 554 , 669 554 
Q 676 554 , 679 554 
" fill="#F5C000" />
<path d="
M 595 544 
L 613 544 
L 613 548 
Q 613 549 , 621 549 
Q 628 550 , 645 550 
Q 662 550 , 670 549 
Q 677 549 , 677 548 
L 677 544 
L 695 544 
L 695 548 
Q 695 549 , 682 550 
Q 670 551 , 645 551 
Q 621 551 , 608 550 
Q 595 549 , 595 548 
L 595 544 
" fill="#D21010" />
<path d="
M 695 531 
L 695 533 
Q 680 532 , 672 532 
Q 664 531 , 654 531 
Q 633 531 , 623 533 
Q 611 534 , 611 536 
Q 611 539 , 623 540 
Q 633 542 , 654 542 
Q 664 542 , 672 541 
Q 680 541 , 695 540 
L 695 542 
Q 684 542 , 674 543 
Q 664 543 , 653 543 
Q 626 543 , 611 541 
Q 595 540 , 595 537 
Q 595 534 , 611 532 
Q 626 530 , 653 530 
Q 664 530 , 674 530 
Q 685 531 , 695 531 
" fill="#545FFF" />
<path d="
M 645 518 
L 627 524 
L 661 524 
L 645 518 
M 638 515 
L 652 515 
L 695 530 
L 679 530 
L 667 525 
L 623 525 
L 610 530 
L 595 530 
L 638 515 
" fill="#339541" />
<path d="
M 784 554 
L 784 554 
L 755 554 
L 755 554 
L 800 554 
L 800 555 
Q 789 555 , 778 555 
Q 769 555 , 757 555 
Q 731 555 , 715 554 
Q 700 554 , 700 554 
Q 700 553 , 715 553 
Q 731 553 , 757 553 
Q 768 553 , 777 553 
Q 787 553 , 797 553 
L 797 553 
Q 784 553 , 776 553 
Q 767 553 , 758 553 
Q 737 553 , 726 553 
Q 716 554 , 716 554 
Q 716 554 , 726 554 
Q 737 554 , 758 554 
Q 767 554 , 774 554 
Q 781 554 , 784 554 
" fill="#F5C000" />
<path d="
M 700 550 
L 718 550 
L 718 551 
Q 718 552 , 726 552 
Q 733 552 , 750 552 
Q 767 552 , 775 552 
Q 782 552 , 782 551 
L 782 550 
L 800 550 
L 800 551 
Q 800 552 , 787 552 
Q 775 552 , 750 552 
Q 726 552 , 713 552 
Q 700 552 , 700 551 
L 700 550 
" fill="#D21010" />
<path d="
M 750 547 
L 732 548 
L 766 548 
L 750 547 
M 743 547 
L 757 547 
L 800 550 
L 784 550 
L 772 549 
L 728 549 
L 715 550 
L 700 550 
L 743 547 
" fill="#339541" />
<path d="
M 800 543 
L 800 544 
Q 785 544 , 777 543 
Q 769 543 , 759 543 
Q 738 543 , 728 544 
Q 716 544 , 716 544 
Q 716 545 , 728 546 
Q 738 546 , 759 546 
Q 769 546 , 777 546 
Q 785 546 , 800 545 
L 800 546 
Q 789 546 , 779 546 
Q 769 546 , 758 546 
Q 731 546 , 716 546 
Q 700 545 , 700 545 
Q 700 544 , 716 543 
Q 731 543 , 758 543 
Q 769 543 , 779 543 
Q 790 543 , 800 543 
" fill="#545FFF" />
<path d="
M 805 553 
L 814 553 
L 814 554 
Q 814 554 , 818 555 
Q 821 555 , 830 555 
Q 839 555 , 842 555 
Q 846 554 , 846 554 
L 846 553 
L 855 553 
L 855 554 
Q 855 554 , 849 555 
Q 842 555 , 830 555 
Q 818 555 , 811 555 
Q 805 554 , 805 554 
L 805 553 
" fill="lightgray" />
<path d="
M 880 553 
L 871 554 
L 888 554 
L 880 553 
M 876 553 
L 884 553 
L 905 555 
L 897 555 
L 891 554 
L 869 554 
L 862 555 
L 855 555 
L 876 553 
" fill="#339541" />
<path d="
M 830 550 
L 821 551 
L 838 551 
L 830 550 
M 826 549 
L 834 549 
L 855 553 
L 847 553 
L 841 552 
L 819 552 
L 812 553 
L 805 553 
L 826 549 
" fill="lightgray" />
<path d="
M 855 549 
L 864 549 
L 864 551 
Q 864 552 , 868 552 
Q 871 552 , 880 552 
Q 889 552 , 892 552 
Q 896 552 , 896 551 
L 896 549 
L 905 549 
L 905 551 
Q 905 552 , 899 552 
Q 892 553 , 880 553 
Q 868 553 , 861 552 
Q 855 552 , 855 551 
L 855 549 
" fill="#D21010" />
<path d="
M 847 548 
L 847 546 
L 833 546 
L 833 546 
L 855 546 
L 855 548 
Q 850 548 , 844 548 
Q 839 548 , 833 548 
Q 820 548 , 813 548 
Q 805 547 , 805 546 
Q 805 545 , 813 545 
Q 820 544 , 833 544 
Q 839 544 , 844 544 
Q 849 544 , 854 544 
L 854 545 
Q 847 545 , 843 545 
Q 839 544 , 834 544 
Q 824 544 , 818 545 
Q 813 545 , 813 546 
Q 813 547 , 818 547 
Q 824 548 , 834 548 
Q 839 548 , 842 548 
Q 846 548 , 847 548 
" fill="lightgray" />
<path d="
M 905 544 
L 905 545 
Q 898 545 , 894 545 
Q 889 544 , 884 544 
Q 874 544 , 869 545 
Q 863 545 , 863 546 
Q 863 547 , 869 547 
Q 874 548 , 884 548 
Q 889 548 , 894 548 
Q 898 547 , 905 547 
L 905 548 
Q 900 548 , 894 548 
Q 890 548 , 884 548 
Q 870 548 , 863 548 
Q 855 547 , 855 546 
Q 855 545 , 863 545 
Q 870 544 , 884 544 
Q 890 544 , 895 544 
Q 900 544 , 905 544 
" fill="#545FFF" />
<path d="
M 847 539 
L 847 531 
L 833 531 
L 833 528 
L 855 528 
L 855 541 
Q 850 543 , 844 543 
Q 839 544 , 833 544 
Q 820 544 , 813 540 
Q 805 536 , 805 528 
Q 805 521 , 813 517 
Q 820 513 , 833 513 
Q 839 513 , 844 514 
Q 849 514 , 854 515 
L 854 519 
Q 847 518 , 843 517 
Q 839 517 , 834 517 
Q 824 517 , 818 520 
Q 813 522 , 813 528 
Q 813 534 , 818 537 
Q 824 540 , 834 540 
Q 839 540 , 842 540 
Q 846 540 , 847 539 
" fill="lightgray" />
<path d="
M 855 513 
L 864 513 
L 864 531 
Q 864 536 , 868 538 
Q 871 540 , 880 540 
Q 889 540 , 892 538 
Q 896 536 , 896 531 
L 896 513 
L 905 513 
L 905 532 
Q 905 538 , 899 541 
Q 892 544 , 880 544 
Q 868 544 , 861 541 
Q 855 538 , 855 532 
L 855 513 
" fill="#D21010" />
<path d="
M 855 483 
L 855 488 
Q 848 484 , 844 484 
Q 839 483 , 834 483 
Q 824 483 , 819 486 
Q 813 489 , 813 495 
Q 813 502 , 819 506 
Q 824 509 , 834 509 
Q 839 509 , 844 508 
Q 848 507 , 855 504 
L 855 509 
Q 850 511 , 844 512 
Q 840 513 , 834 513 
Q 820 513 , 813 508 
Q 805 504 , 805 496 
Q 805 488 , 813 484 
Q 820 479 , 834 479 
Q 840 479 , 845 480 
Q 850 481 , 855 483 
" fill="lightgray" />
<path d="
M 897 508 
L 897 499 
L 883 499 
L 883 495 
L 905 495 
L 905 510 
Q 900 511 , 894 512 
Q 889 513 , 883 513 
Q 870 513 , 863 508 
Q 855 504 , 855 496 
Q 855 488 , 863 484 
Q 870 479 , 883 479 
Q 889 479 , 894 480 
Q 899 480 , 904 482 
L 904 486 
Q 897 484 , 893 484 
Q 889 483 , 884 483 
Q 874 483 , 868 486 
Q 863 489 , 863 496 
Q 863 502 , 868 506 
Q 874 509 , 884 509 
Q 889 509 , 892 509 
Q 896 508 , 897 508 
" fill="#F5C000" />
<path d="
M 805 439 
L 814 439 
L 814 462 
Q 814 469 , 818 472 
Q 821 474 , 830 474 
Q 839 474 , 842 472 
Q 846 469 , 846 462 
L 846 439 
L 855 439 
L 855 463 
Q 855 471 , 849 475 
Q 842 479 , 830 479 
Q 818 479 , 811 475 
Q 805 471 , 805 463 
L 805 439 
" fill="lightgray" />
<path d="
M 897 473 
L 897 462 
L 883 462 
L 883 458 
L 905 458 
L 905 476 
Q 900 477 , 894 478 
Q 889 479 , 883 479 
Q 870 479 , 863 473 
Q 855 468 , 855 459 
Q 855 450 , 863 444 
Q 870 439 , 883 439 
Q 889 439 , 894 440 
Q 899 440 , 904 442 
L 904 447 
Q 897 445 , 893 444 
Q 889 444 , 884 444 
Q 874 444 , 868 447 
Q 863 451 , 863 459 
Q 863 467 , 868 471 
Q 874 474 , 884 474 
Q 889 474 , 892 474 
Q 896 474 , 897 473 
" fill="#F5C000" />
<path d="
M 994 554 
L 994 553 
L 965 553 
L 965 552 
L 1010 552 
L 1010 554 
Q 999 555 , 988 555 
Q 979 555 , 967 555 
Q 941 555 , 925 554 
Q 910 553 , 910 552 
Q 910 551 , 925 551 
Q 941 550 , 967 550 
Q 978 550 , 987 550 
Q 997 550 , 1007 550 
L 1007 551 
Q 994 551 , 986 551 
Q 977 551 , 968 551 
Q 947 551 , 936 551 
Q 926 551 , 926 552 
Q 926 553 , 936 554 
Q 947 554 , 968 554 
Q 977 554 , 984 554 
Q 991 554 , 994 554 
" fill="#F5C000" />
<path d="
M 910 543 
L 928 543 
L 928 547 
Q 928 548 , 936 548 
Q 943 549 , 960 549 
Q 977 549 , 985 548 
Q 992 548 , 992 547 
L 992 543 
L 1010 543 
L 1010 547 
Q 1010 548 , 997 549 
Q 985 550 , 960 550 
Q 936 550 , 923 549 
Q 910 548 , 910 547 
L 910 543 
" fill="#D21010" />
<path d="
M 1010 525 
L 1010 528 
Q 995 526 , 987 526 
Q 979 525 , 969 525 
Q 948 525 , 938 527 
Q 926 529 , 926 532 
Q 926 536 , 938 538 
Q 948 540 , 969 540 
Q 979 540 , 987 540 
Q 995 539 , 1010 537 
L 1010 540 
Q 999 541 , 989 542 
Q 979 542 , 968 542 
Q 941 542 , 926 540 
Q 910 537 , 910 533 
Q 910 528 , 926 526 
Q 941 523 , 968 523 
Q 979 523 , 989 523 
Q 1000 524 , 1010 525 
" fill="#545FFF" />
<path d="
M 960 502 
L 942 512 
L 976 512 
L 960 502 
M 953 497 
L 967 497 
L 1010 522 
L 994 522 
L 982 515 
L 938 515 
L 925 522 
L 910 522 
L 953 497 
" fill="#339541" />
<path d="
M 1015 548 
L 1033 548 
L 1033 552 
Q 1033 553 , 1041 554 
Q 1048 554 , 1065 554 
Q 1082 554 , 1090 554 
Q 1097 553 , 1097 552 
L 1097 548 
L 1115 548 
L 1115 552 
Q 1115 553 , 1102 554 
Q 1090 555 , 1065 555 
Q 1041 555 , 1028 554 
Q 1015 553 , 1015 552 
L 1015 548 
" fill="#D21010" />
<path d="
M 1115 540 
L 1115 541 
Q 1100 540 , 1092 540 
Q 1084 540 , 1074 540 
Q 1053 540 , 1043 541 
Q 1031 541 , 1031 543 
Q 1031 545 , 1043 545 
Q 1053 546 , 1074 546 
Q 1084 546 , 1092 546 
Q 1100 546 , 1115 545 
L 1115 546 
Q 1104 547 , 1094 547 
Q 1084 547 , 1073 547 
Q 1046 547 , 1031 546 
Q 1015 545 , 1015 543 
Q 1015 541 , 1031 540 
Q 1046 539 , 1073 539 
Q 1084 539 , 1094 539 
Q 1105 539 , 1115 540 
" fill="#545FFF" />
<path d="
M 1099 536 
L 1099 532 
L 1070 532 
L 1070 530 
L 1115 530 
L 1115 537 
Q 1104 538 , 1093 538 
Q 1084 538 , 1072 538 
Q 1046 538 , 1030 536 
Q 1015 534 , 1015 531 
Q 1015 527 , 1030 525 
Q 1046 523 , 1072 523 
Q 1083 523 , 1092 523 
Q 1102 524 , 1112 524 
L 1112 526 
Q 1099 525 , 1091 525 
Q 1082 525 , 1073 525 
Q 1052 525 , 1041 526 
Q 1031 528 , 1031 531 
Q 1031 534 , 1041 535 
Q 1052 536 , 1073 536 
Q 1082 536 , 1089 536 
Q 1096 536 , 1099 536 
" fill="#F5C000" />
<path d="
M 1065 491 
L 1047 506 
L 1081 506 
L 1065 491 
M 1058 484 
L 1072 484 
L 1115 522 
L 1099 522 
L 1087 511 
L 1043 511 
L 1030 522 
L 1015 522 
L 1058 484 
" fill="#339541" />
<path d="
M 1204 554 
L 1204 553 
L 1175 553 
L 1175 552 
L 1220 552 
L 1220 554 
Q 1209 554 , 1198 554 
Q 1189 554 , 1177 554 
Q 1151 554 , 1135 554 
Q 1120 553 , 1120 552 
Q 1120 551 , 1135 551 
Q 1151 550 , 1177 550 
Q 1188 550 , 1197 550 
Q 1207 550 , 1217 550 
L 1217 551 
Q 1204 551 , 1196 551 
Q 1187 551 , 1178 551 
Q 1157 551 , 1146 551 
Q 1136 551 , 1136 552 
Q 1136 553 , 1146 554 
Q 1157 554 , 1178 554 
Q 1187 554 , 1194 554 
Q 1201 554 , 1204 554 
" fill="#F5C000" />
<path d="
M 1220 545 
L 1220 546 
Q 1205 546 , 1197 546 
Q 1189 546 , 1179 546 
Q 1158 546 , 1148 546 
Q 1136 546 , 1136 547 
Q 1136 548 , 1148 549 
Q 1158 549 , 1179 549 
Q 1189 549 , 1197 549 
Q 1205 549 , 1220 548 
L 1220 549 
Q 1209 549 , 1199 549 
Q 1189 550 , 1178 550 
Q 1151 550 , 1136 549 
Q 1120 548 , 1120 547 
Q 1120 546 , 1136 546 
Q 1151 545 , 1178 545 
Q 1189 545 , 1199 545 
Q 1210 545 , 1220 545 
" fill="#545FFF" />
<path d="
M 1120 539 
L 1138 539 
L 1138 542 
Q 1138 543 , 1146 544 
Q 1153 544 , 1170 544 
Q 1187 544 , 1195 544 
Q 1202 543 , 1202 542 
L 1202 539 
L 1220 539 
L 1220 542 
Q 1220 543 , 1207 544 
Q 1195 544 , 1170 544 
Q 1146 544 , 1133 544 
Q 1120 543 , 1120 542 
L 1120 539 
" fill="#D21010" />
<path d="
M 1170 529 
L 1152 534 
L 1186 534 
L 1170 529 
M 1163 527 
L 1177 527 
L 1220 539 
L 1204 539 
L 1192 535 
L 1148 535 
L 1135 539 
L 1120 539 
L 1163 527 
" fill="#339541" />
<path d="
M 1309 555 
L 1309 554 
L 1280 554 
L 1280 554 
L 1325 554 
L 1325 555 
Q 1314 555 , 1303 555 
Q 1294 555 , 1282 555 
Q 1256 555 , 1240 555 
Q 1225 555 , 1225 554 
Q 1225 554 , 1240 554 
Q 1256 554 , 1282 554 
Q 1293 554 , 1302 554 
Q 1312 554 , 1322 554 
L 1322 554 
Q 1309 554 , 1301 554 
Q 1292 554 , 1283 554 
Q 1262 554 , 1251 554 
Q 1241 554 , 1241 554 
Q 1241 555 , 1251 555 
Q 1262 555 , 1283 555 
Q 1292 555 , 1299 555 
Q 1306 555 , 1309 555 
" fill="#F5C000" />
<path d="
M 1325 553 
L 1325 553 
Q 1310 553 , 1302 553 
Q 1294 553 , 1284 553 
Q 1263 553 , 1253 553 
Q 1241 553 , 1241 553 
Q 1241 554 , 1253 554 
Q 1263 554 , 1284 554 
Q 1294 554 , 1302 554 
Q 1310 554 , 1325 554 
L 1325 554 
Q 1314 554 , 1304 554 
Q 1294 554 , 1283 554 
Q 1256 554 , 1241 554 
Q 1225 554 , 1225 553 
Q 1225 553 , 1241 553 
Q 1256 553 , 1283 553 
Q 1294 553 , 1304 553 
Q 1315 553 , 1325 553 
" fill="#545FFF" />
<path d="
M 1225 552 
L 1243 552 
L 1243 553 
Q 1243 553 , 1251 553 
Q 1258 553 , 1275 553 
Q 1292 553 , 1300 553 
Q 1307 553 , 1307 553 
L 1307 552 
L 1325 552 
L 1325 553 
Q 1325 553 , 1312 553 
Q 1300 553 , 1275 553 
Q 1251 553 , 1238 553 
Q 1225 553 , 1225 553 
L 1225 552 
" fill="#D21010" />
<path d="
M 1275 550 
L 1257 551 
L 1291 551 
L 1275 550 
M 1268 550 
L 1282 550 
L 1325 551 
L 1309 551 
L 1297 551 
L 1253 551 
L 1240 551 
L 1225 551 
L 1268 550 
" fill="#339541" />
<path d="M 65 168 L 65 555 " stroke="black" stroke-width="1.5"/>
<path d="M 55 555 L 65 555 " stroke="black" stroke-width="4"/>
<text text-anchor="end" x="50" y="555" font-size="50" alignment-baseline="middle">0</text>
<path d="M 55 362 L 65 362 " stroke="black" stroke-width="4"/>
<text text-anchor="end" x="50" y="362" font-size="50" alignment-baseline="middle">1</text>
<path d="M 55 168 L 65 168 " stroke="black" stroke-width="4"/>
<text text-anchor="end" x="50" y="168" font-size="50" alignment-baseline="middle">2</text>
<text text-anchor="middle" x="697" y="50" font-size="50" alignment-baseline="baseline"></text>
G<path d="
M 160 582 
L 126 595 
L 160 608 
L 157 611 
L 123 598 
L 123 623 
L 117 623 
L 117 599 
L 83 611 
L 80 608 
L 114 595 
L 80 582 
L 83 579 
L 117 591 
L 117 567 
L 123 567 
L 123 591 
L 157 579 
L 160 582 
" fill="black" />
<path d="
" fill="black" />
<path d="
M 211 567 
L 238 567 
L 238 623 
L 211 623 
L 211 567 
" fill="black" />
<path d="
" fill="black" />
<path d="
M 370 567 
Q 341 574 , 328 581 
Q 315 588 , 315 595 
Q 315 602 , 328 609 
Q 341 616 , 370 623 
L 346 623 
Q 318 616 , 304 609 
Q 290 602 , 290 595 
Q 290 588 , 304 581 
Q 318 574 , 346 567 
L 370 567 
" fill="black" />
<path d="
" fill="black" />
<path d="
M 421 567 
L 448 567 
L 448 623 
L 421 623 
L 421 567 
" fill="black" />
<path d="
" fill="black" />
<path d="
" fill="black" />
<path d="
M 526 567 
L 553 567 
L 553 623 
L 526 623 
L 526 567 
" fill="black" />
<path d="
" fill="black" />
<path d="
" fill="black" />
<path d="
M 631 567 
L 658 567 
L 658 623 
L 631 623 
L 631 567 
" fill="black" />
<path d="
" fill="black" />
<path d="
" fill="black" />
<path d="
M 736 567 
L 763 567 
L 763 623 
L 736 623 
L 736 567 
" fill="black" />
<path d="
" fill="black" />
<path d="
M 815 567 
L 839 567 
Q 867 574 , 881 581 
Q 895 588 , 895 595 
Q 895 602 , 881 609 
Q 867 616 , 839 623 
L 815 623 
Q 844 616 , 857 609 
Q 870 602 , 870 595 
Q 870 588 , 857 581 
Q 844 574 , 815 567 
" fill="black" />
<path d="
" fill="black" />
<path d="
M 946 567 
L 973 567 
L 973 623 
L 946 623 
L 946 567 
" fill="black" />
<path d="
" fill="black" />
<path d="
" fill="black" />
<path d="
M 1051 567 
L 1078 567 
L 1078 623 
L 1051 623 
L 1051 567 
" fill="black" />
<path d="
" fill="black" />
<path d="
" fill="black" />
<path d="
M 1156 567 
L 1183 567 
L 1183 623 
L 1156 623 
L 1156 567 
" fill="black" />
<path d="
" fill="black" />
<path d="
M 1315 582 
L 1281 595 
L 1315 608 
L 1312 611 
L 1278 598 
L 1278 623 
L 1272 623 
L 1272 599 
L 1238 611 
L 1235 608 
L 1269 595 
L 1235 582 
L 1238 579 
L 1272 591 
L 1272 567 
L 1278 567 
L 1278 591 
L 1312 579 
L 1315 582 
" fill="black" />
</svg>
