<svg xmlns="http://www.w3.org/2000/svg"
viewBox="0 0 700 635">
<path d="
M 170 552 
L 170 553 
Q 155 552 , 147 552 
Q 139 552 , 129 552 
Q 108 552 , 98 552 
Q 86 553 , 86 553 
Q 86 554 , 98 554 
Q 108 554 , 129 554 
Q 139 554 , 147 554 
Q 155 554 , 170 554 
L 170 554 
Q 159 554 , 149 554 
Q 139 554 , 128 554 
Q 101 554 , 86 554 
Q 70 554 , 70 553 
Q 70 553 , 86 552 
Q 101 552 , 128 552 
Q 139 552 , 149 552 
Q 160 552 , 170 552 
" fill="#545FFF" />
<path d="
M 70 549 
L 88 549 
L 88 551 
Q 88 551 , 96 551 
Q 103 552 , 120 552 
Q 137 552 , 145 551 
Q 152 551 , 152 551 
L 152 549 
L 170 549 
L 170 551 
Q 170 551 , 157 552 
Q 145 552 , 120 552 
Q 96 552 , 83 552 
Q 70 551 , 70 551 
L 70 549 
" fill="#D21010" />
<path d="
M 154 548 
L 154 547 
L 125 547 
L 125 547 
L 170 547 
L 170 548 
Q 159 548 , 148 548 
Q 139 548 , 127 548 
Q 101 548 , 85 548 
Q 70 547 , 70 547 
Q 70 546 , 85 545 
Q 101 545 , 127 545 
Q 138 545 , 147 545 
Q 157 545 , 167 545 
L 167 546 
Q 154 545 , 146 545 
Q 137 545 , 128 545 
Q 107 545 , 96 546 
Q 86 546 , 86 547 
Q 86 547 , 96 548 
Q 107 548 , 128 548 
Q 137 548 , 144 548 
Q 151 548 , 154 548 
" fill="#F5C000" />
<path d="
M 120 541 
L 102 543 
L 136 543 
L 120 541 
M 113 540 
L 127 540 
L 170 544 
L 154 544 
L 142 543 
L 98 543 
L 85 544 
L 70 544 
L 113 540 
" fill="#339541" />
<path d="
M 275 551 
L 275 551 
Q 260 551 , 252 551 
Q 244 551 , 234 551 
Q 213 551 , 203 551 
Q 191 551 , 191 552 
Q 191 553 , 203 554 
Q 213 554 , 234 554 
Q 244 554 , 252 554 
Q 260 554 , 275 554 
L 275 554 
Q 264 555 , 254 555 
Q 244 555 , 233 555 
Q 206 555 , 191 554 
Q 175 553 , 175 552 
Q 175 551 , 191 551 
Q 206 550 , 233 550 
Q 244 550 , 254 550 
Q 265 550 , 275 551 
" fill="#545FFF" />
<path d="
M 175 544 
L 193 544 
L 193 547 
Q 193 548 , 201 548 
Q 208 549 , 225 549 
Q 242 549 , 250 548 
Q 257 548 , 257 547 
L 257 544 
L 275 544 
L 275 547 
Q 275 548 , 262 549 
Q 250 549 , 225 549 
Q 201 549 , 188 549 
Q 175 548 , 175 547 
L 175 544 
" fill="#D21010" />
<path d="
M 225 506 
L 207 525 
L 241 525 
L 225 506 
M 218 498 
L 232 498 
L 275 543 
L 259 543 
L 247 530 
L 203 530 
L 190 543 
L 175 543 
L 218 498 
" fill="#339541" />
<path d="
M 259 467 
L 259 408 
L 230 408 
L 230 384 
L 275 384 
L 275 481 
Q 264 490 , 253 494 
Q 244 498 , 232 498 
Q 206 498 , 190 469 
Q 175 440 , 175 389 
Q 175 338 , 190 309 
Q 206 280 , 232 280 
Q 243 280 , 252 284 
Q 262 288 , 272 298 
L 272 325 
Q 259 313 , 251 309 
Q 242 306 , 233 306 
Q 212 306 , 201 326 
Q 191 347 , 191 389 
Q 191 432 , 201 453 
Q 212 474 , 233 474 
Q 242 474 , 249 471 
Q 256 469 , 259 467 
" fill="#F5C000" />
<path d="
M 280 552 
L 298 552 
L 298 554 
Q 298 554 , 306 554 
Q 313 554 , 330 554 
Q 347 554 , 355 554 
Q 362 554 , 362 554 
L 362 552 
L 380 552 
L 380 554 
Q 380 554 , 367 554 
Q 355 555 , 330 555 
Q 306 555 , 293 554 
Q 280 554 , 280 554 
L 280 552 
" fill="#D21010" />
<path d="
M 380 548 
L 380 549 
Q 365 549 , 357 549 
Q 349 548 , 339 548 
Q 318 548 , 308 549 
Q 296 549 , 296 550 
Q 296 551 , 308 551 
Q 318 551 , 339 551 
Q 349 551 , 357 551 
Q 365 551 , 380 551 
L 380 551 
Q 369 552 , 359 552 
Q 349 552 , 338 552 
Q 311 552 , 296 551 
Q 280 551 , 280 550 
Q 280 549 , 296 549 
Q 311 548 , 338 548 
Q 349 548 , 359 548 
Q 370 548 , 380 548 
" fill="#545FFF" />
<path d="
M 364 546 
L 364 543 
L 335 543 
L 335 541 
L 380 541 
L 380 546 
Q 369 547 , 358 547 
Q 349 547 , 337 547 
Q 311 547 , 295 546 
Q 280 544 , 280 542 
Q 280 539 , 295 538 
Q 311 536 , 337 536 
Q 348 536 , 357 536 
Q 367 536 , 377 537 
L 377 538 
Q 364 538 , 356 538 
Q 347 537 , 338 537 
Q 317 537 , 306 538 
Q 296 539 , 296 542 
Q 296 544 , 306 545 
Q 317 546 , 338 546 
Q 347 546 , 354 546 
Q 361 546 , 364 546 
" fill="#F5C000" />
<path d="
M 330 204 
L 312 370 
L 346 370 
L 330 204 
M 323 130 
L 337 130 
L 380 536 
L 364 536 
L 352 416 
L 308 416 
L 295 536 
L 280 536 
L 323 130 
" fill="#339541" />
<path d="
M 485 552 
L 485 553 
Q 470 552 , 462 552 
Q 454 552 , 444 552 
Q 423 552 , 413 552 
Q 401 553 , 401 553 
Q 401 554 , 413 554 
Q 423 554 , 444 554 
Q 454 554 , 462 554 
Q 470 554 , 485 554 
L 485 554 
Q 474 554 , 464 554 
Q 454 554 , 443 554 
Q 416 554 , 401 554 
Q 385 554 , 385 553 
Q 385 553 , 401 552 
Q 416 552 , 443 552 
Q 454 552 , 464 552 
Q 475 552 , 485 552 
" fill="#545FFF" />
<path d="
M 469 550 
L 469 548 
L 440 548 
L 440 547 
L 485 547 
L 485 551 
Q 474 551 , 463 552 
Q 454 552 , 442 552 
Q 416 552 , 400 551 
Q 385 549 , 385 547 
Q 385 545 , 400 543 
Q 416 542 , 442 542 
Q 453 542 , 462 542 
Q 472 542 , 482 543 
L 482 544 
Q 469 543 , 461 543 
Q 452 543 , 443 543 
Q 422 543 , 411 544 
Q 401 545 , 401 547 
Q 401 549 , 411 550 
Q 422 551 , 443 551 
Q 452 551 , 459 551 
Q 466 551 , 469 550 
" fill="#F5C000" />
<path d="
M 385 505 
L 403 505 
L 403 526 
Q 403 532 , 411 535 
Q 418 537 , 435 537 
Q 452 537 , 460 535 
Q 467 532 , 467 526 
L 467 505 
L 485 505 
L 485 527 
Q 485 534 , 472 537 
Q 460 541 , 435 541 
Q 411 541 , 398 537 
Q 385 534 , 385 527 
L 385 505 
" fill="#D21010" />
<path d="
M 435 298 
L 417 401 
L 451 401 
L 435 298 
M 428 251 
L 442 251 
L 485 505 
L 469 505 
L 457 430 
L 413 430 
L 400 505 
L 385 505 
L 428 251 
" fill="#339541" />
<path d="
M 590 549 
L 590 550 
Q 575 549 , 567 549 
Q 559 549 , 549 549 
Q 528 549 , 518 549 
Q 506 550 , 506 551 
Q 506 552 , 518 553 
Q 528 553 , 549 553 
Q 559 553 , 567 553 
Q 575 553 , 590 553 
L 590 554 
Q 579 554 , 569 554 
Q 559 554 , 548 554 
Q 521 554 , 506 553 
Q 490 552 , 490 551 
Q 490 550 , 506 549 
Q 521 548 , 548 548 
Q 559 548 , 569 548 
Q 580 548 , 590 549 
" fill="#545FFF" />
<path d="
M 490 537 
L 508 537 
L 508 543 
Q 508 545 , 516 545 
Q 523 546 , 540 546 
Q 557 546 , 565 545 
Q 572 545 , 572 543 
L 572 537 
L 590 537 
L 590 543 
Q 590 545 , 577 546 
Q 565 547 , 540 547 
Q 516 547 , 503 546 
Q 490 545 , 490 543 
L 490 537 
" fill="#D21010" />
<path d="
M 540 502 
L 522 519 
L 556 519 
L 540 502 
M 533 494 
L 547 494 
L 590 536 
L 574 536 
L 562 524 
L 518 524 
L 505 536 
L 490 536 
L 533 494 
" fill="#339541" />
<path d="
M 574 473 
L 574 435 
L 545 435 
L 545 419 
L 590 419 
L 590 482 
Q 579 489 , 568 491 
Q 559 493 , 547 493 
Q 521 493 , 505 474 
Q 490 455 , 490 422 
Q 490 389 , 505 370 
Q 521 351 , 547 351 
Q 558 351 , 567 353 
Q 577 356 , 587 363 
L 587 381 
Q 574 373 , 566 370 
Q 557 368 , 548 368 
Q 527 368 , 516 381 
Q 506 395 , 506 422 
Q 506 450 , 516 464 
Q 527 478 , 548 478 
Q 557 478 , 564 476 
Q 571 475 , 574 473 
" fill="#F5C000" />
<path d="
M 695 552 
L 695 553 
Q 680 552 , 672 552 
Q 664 552 , 654 552 
Q 633 552 , 623 552 
Q 611 553 , 611 553 
Q 611 554 , 623 554 
Q 633 554 , 654 554 
Q 664 554 , 672 554 
Q 680 554 , 695 554 
L 695 554 
Q 684 554 , 674 554 
Q 664 554 , 653 554 
Q 626 554 , 611 554 
Q 595 554 , 595 553 
Q 595 553 , 611 552 
Q 626 552 , 653 552 
Q 664 552 , 674 552 
Q 685 552 , 695 552 
" fill="#545FFF" />
<path d="
M 595 549 
L 613 549 
L 613 551 
Q 613 551 , 621 551 
Q 628 552 , 645 552 
Q 662 552 , 670 551 
Q 677 551 , 677 551 
L 677 549 
L 695 549 
L 695 551 
Q 695 551 , 682 552 
Q 670 552 , 645 552 
Q 621 552 , 608 552 
Q 595 551 , 595 551 
L 595 549 
" fill="#D21010" />
<path d="
M 679 548 
L 679 547 
L 650 547 
L 650 547 
L 695 547 
L 695 548 
Q 684 548 , 673 548 
Q 664 548 , 652 548 
Q 626 548 , 610 548 
Q 595 547 , 595 547 
Q 595 546 , 610 545 
Q 626 545 , 652 545 
Q 663 545 , 672 545 
Q 682 545 , 692 545 
L 692 546 
Q 679 545 , 671 545 
Q 662 545 , 653 545 
Q 632 545 , 621 546 
Q 611 546 , 611 547 
Q 611 547 , 621 548 
Q 632 548 , 653 548 
Q 662 548 , 669 548 
Q 676 548 , 679 548 
" fill="#F5C000" />
<path d="
M 645 541 
L 627 543 
L 661 543 
L 645 541 
M 638 540 
L 652 540 
L 695 544 
L 679 544 
L 667 543 
L 623 543 
L 610 544 
L 595 544 
L 638 540 
" fill="#339541" />
<path d="M 65 55 L 65 555 " stroke="black" stroke-width="1.5"/>
<path d="M 55 555 L 65 555 " stroke="black" stroke-width="4"/>
<text text-anchor="end" x="50" y="555" font-size="50" alignment-baseline="middle">0</text>
<path d="M 55 305 L 65 305 " stroke="black" stroke-width="4"/>
<text text-anchor="end" x="50" y="305" font-size="50" alignment-baseline="middle">1</text>
<path d="M 55 55 L 65 55 " stroke="black" stroke-width="4"/>
<text text-anchor="end" x="50" y="55" font-size="50" alignment-baseline="middle">2</text>
<text text-anchor="middle" x="382" y="50" font-size="50" alignment-baseline="baseline"></text>
G<path d="
M 160 582 
L 126 595 
L 160 608 
L 157 611 
L 123 598 
L 123 623 
L 117 623 
L 117 599 
L 83 611 
L 80 608 
L 114 595 
L 80 582 
L 83 579 
L 117 591 
L 117 567 
L 123 567 
L 123 591 
L 157 579 
L 160 582 
" fill="black" />
<path d="
" fill="black" />
<path d="
M 211 567 
L 238 567 
L 238 623 
L 211 623 
L 211 567 
" fill="black" />
<path d="
" fill="black" />
<path d="
" fill="black" />
<path d="
M 316 567 
L 343 567 
L 343 623 
L 316 623 
L 316 567 
" fill="black" />
<path d="
" fill="black" />
<path d="
" fill="black" />
<path d="
M 421 567 
L 448 567 
L 448 623 
L 421 623 
L 421 567 
" fill="black" />
<path d="
" fill="black" />
<path d="
" fill="black" />
<path d="
M 526 567 
L 553 567 
L 553 623 
L 526 623 
L 526 567 
" fill="black" />
<path d="
" fill="black" />
<path d="
M 685 582 
L 651 595 
L 685 608 
L 682 611 
L 648 598 
L 648 623 
L 642 623 
L 642 599 
L 608 611 
L 605 608 
L 639 595 
L 605 582 
L 608 579 
L 642 591 
L 642 567 
L 648 567 
L 648 591 
L 682 579 
L 685 582 
" fill="black" />
</svg>
