<svg xmlns="http://www.w3.org/2000/svg"
viewBox="0 0 910 635">
<path d="
M 170 552 
L 170 553 
Q 155 552 , 147 552 
Q 139 552 , 129 552 
Q 108 552 , 98 552 
Q 86 553 , 86 553 
Q 86 553 , 98 554 
Q 108 554 , 129 554 
Q 139 554 , 147 554 
Q 155 554 , 170 554 
L 170 554 
Q 159 554 , 149 554 
Q 139 554 , 128 554 
Q 101 554 , 86 554 
Q 70 554 , 70 553 
Q 70 553 , 86 552 
Q 101 552 , 128 552 
Q 139 552 , 149 552 
Q 160 552 , 170 552 
" fill="#545FFF" />
<path d="
M 70 549 
L 88 549 
L 88 551 
Q 88 551 , 96 551 
Q 103 551 , 120 551 
Q 137 551 , 145 551 
Q 152 551 , 152 551 
L 152 549 
L 170 549 
L 170 551 
Q 170 551 , 157 551 
Q 145 552 , 120 552 
Q 96 552 , 83 551 
Q 70 551 , 70 551 
L 70 549 
" fill="#D21010" />
<path d="
M 154 548 
L 154 547 
L 125 547 
L 125 546 
L 170 546 
L 170 548 
Q 159 548 , 148 548 
Q 139 548 , 127 548 
Q 101 548 , 85 548 
Q 70 547 , 70 547 
Q 70 546 , 85 545 
Q 101 545 , 127 545 
Q 138 545 , 147 545 
Q 157 545 , 167 545 
L 167 546 
Q 154 545 , 146 545 
Q 137 545 , 128 545 
Q 107 545 , 96 546 
Q 86 546 , 86 547 
Q 86 547 , 96 547 
Q 107 548 , 128 548 
Q 137 548 , 144 548 
Q 151 548 , 154 548 
" fill="#F5C000" />
<path d="
M 120 541 
L 102 543 
L 136 543 
L 120 541 
M 113 540 
L 127 540 
L 170 544 
L 154 544 
L 142 543 
L 98 543 
L 85 544 
L 70 544 
L 113 540 
" fill="#339541" />
<path d="
M 275 552 
L 275 553 
Q 260 552 , 252 552 
Q 244 552 , 234 552 
Q 213 552 , 203 552 
Q 191 553 , 191 553 
Q 191 553 , 203 554 
Q 213 554 , 234 554 
Q 244 554 , 252 554 
Q 260 554 , 275 553 
L 275 554 
Q 264 554 , 254 554 
Q 244 554 , 233 554 
Q 206 554 , 191 554 
Q 175 553 , 175 553 
Q 175 553 , 191 552 
Q 206 552 , 233 552 
Q 244 552 , 254 552 
Q 265 552 , 275 552 
" fill="#545FFF" />
<path d="
M 259 549 
L 259 544 
L 230 544 
L 230 542 
L 275 542 
L 275 550 
Q 264 551 , 253 551 
Q 244 552 , 232 552 
Q 206 552 , 190 549 
Q 175 547 , 175 542 
Q 175 538 , 190 535 
Q 206 533 , 232 533 
Q 243 533 , 252 533 
Q 262 534 , 272 535 
L 272 537 
Q 259 536 , 251 536 
Q 242 535 , 233 535 
Q 212 535 , 201 537 
Q 191 539 , 191 542 
Q 191 546 , 201 548 
Q 212 550 , 233 550 
Q 242 550 , 249 549 
Q 256 549 , 259 549 
" fill="#F5C000" />
<path d="
M 175 506 
L 193 506 
L 193 522 
Q 193 526 , 201 528 
Q 208 530 , 225 530 
Q 242 530 , 250 528 
Q 257 526 , 257 522 
L 257 506 
L 275 506 
L 275 522 
Q 275 527 , 262 530 
Q 250 533 , 225 533 
Q 201 533 , 188 530 
Q 175 527 , 175 522 
L 175 506 
" fill="#D21010" />
<path d="
M 225 481 
L 207 493 
L 241 493 
L 225 481 
M 218 475 
L 232 475 
L 275 505 
L 259 505 
L 247 496 
L 203 496 
L 190 505 
L 175 505 
L 218 475 
" fill="#339541" />
<path d="
M 280 552 
L 298 552 
L 298 554 
Q 298 554 , 306 554 
Q 313 554 , 330 554 
Q 347 554 , 355 554 
Q 362 554 , 362 554 
L 362 552 
L 380 552 
L 380 554 
Q 380 554 , 367 554 
Q 355 555 , 330 555 
Q 306 555 , 293 554 
Q 280 554 , 280 554 
L 280 552 
" fill="#D21010" />
<path d="
M 380 548 
L 380 549 
Q 365 549 , 357 549 
Q 349 548 , 339 548 
Q 318 548 , 308 549 
Q 296 549 , 296 550 
Q 296 551 , 308 551 
Q 318 551 , 339 551 
Q 349 551 , 357 551 
Q 365 551 , 380 551 
L 380 551 
Q 369 552 , 359 552 
Q 349 552 , 338 552 
Q 311 552 , 296 551 
Q 280 551 , 280 550 
Q 280 549 , 296 549 
Q 311 548 , 338 548 
Q 349 548 , 359 548 
Q 370 548 , 380 548 
" fill="#545FFF" />
<path d="
M 330 500 
L 312 523 
L 346 523 
L 330 500 
M 323 489 
L 337 489 
L 380 547 
L 364 547 
L 352 530 
L 308 530 
L 295 547 
L 280 547 
L 323 489 
" fill="#339541" />
<path d="
M 364 460 
L 364 406 
L 335 406 
L 335 384 
L 380 384 
L 380 473 
Q 369 482 , 358 485 
Q 349 489 , 337 489 
Q 311 489 , 295 462 
Q 280 435 , 280 388 
Q 280 341 , 295 314 
Q 311 287 , 337 287 
Q 348 287 , 357 290 
Q 367 294 , 377 303 
L 377 329 
Q 364 318 , 356 314 
Q 347 311 , 338 311 
Q 317 311 , 306 330 
Q 296 349 , 296 388 
Q 296 428 , 306 447 
Q 317 466 , 338 466 
Q 347 466 , 354 464 
Q 361 462 , 364 460 
" fill="#F5C000" />
<path d="
M 385 552 
L 403 552 
L 403 553 
Q 403 554 , 411 554 
Q 418 554 , 435 554 
Q 452 554 , 460 554 
Q 467 554 , 467 553 
L 467 552 
L 485 552 
L 485 553 
Q 485 554 , 472 554 
Q 460 554 , 435 554 
Q 411 554 , 398 554 
Q 385 554 , 385 553 
L 385 552 
" fill="#D21010" />
<path d="
M 485 548 
L 485 549 
Q 470 549 , 462 548 
Q 454 548 , 444 548 
Q 423 548 , 413 549 
Q 401 549 , 401 549 
Q 401 550 , 413 551 
Q 423 551 , 444 551 
Q 454 551 , 462 551 
Q 470 551 , 485 551 
L 485 551 
Q 474 551 , 464 551 
Q 454 551 , 443 551 
Q 416 551 , 401 551 
Q 385 551 , 385 550 
Q 385 549 , 401 548 
Q 416 548 , 443 548 
Q 454 548 , 464 548 
Q 475 548 , 485 548 
" fill="#545FFF" />
<path d="
M 469 545 
L 469 541 
L 440 541 
L 440 540 
L 485 540 
L 485 546 
Q 474 547 , 463 547 
Q 454 547 , 442 547 
Q 416 547 , 400 545 
Q 385 543 , 385 540 
Q 385 537 , 400 535 
Q 416 533 , 442 533 
Q 453 533 , 462 533 
Q 472 534 , 482 534 
L 482 536 
Q 469 535 , 461 535 
Q 452 535 , 443 535 
Q 422 535 , 411 536 
Q 401 537 , 401 540 
Q 401 543 , 411 544 
Q 422 546 , 443 546 
Q 452 546 , 459 546 
Q 466 545 , 469 545 
" fill="#F5C000" />
<path d="
M 435 209 
L 417 370 
L 451 370 
L 435 209 
M 428 136 
L 442 136 
L 485 533 
L 469 533 
L 457 416 
L 413 416 
L 400 533 
L 385 533 
L 428 136 
" fill="#339541" />
<path d="
M 590 552 
L 590 553 
Q 575 552 , 567 552 
Q 559 552 , 549 552 
Q 528 552 , 518 553 
Q 506 553 , 506 553 
Q 506 554 , 518 554 
Q 528 554 , 549 554 
Q 559 554 , 567 554 
Q 575 554 , 590 554 
L 590 554 
Q 579 554 , 569 555 
Q 559 555 , 548 555 
Q 521 555 , 506 554 
Q 490 554 , 490 553 
Q 490 553 , 506 552 
Q 521 552 , 548 552 
Q 559 552 , 569 552 
Q 580 552 , 590 552 
" fill="#545FFF" />
<path d="
M 574 550 
L 574 547 
L 545 547 
L 545 546 
L 590 546 
L 590 551 
Q 579 551 , 568 552 
Q 559 552 , 547 552 
Q 521 552 , 505 550 
Q 490 549 , 490 546 
Q 490 543 , 505 542 
Q 521 540 , 547 540 
Q 558 540 , 567 540 
Q 577 540 , 587 541 
L 587 542 
Q 574 542 , 566 542 
Q 557 541 , 548 541 
Q 527 541 , 516 543 
Q 506 544 , 506 546 
Q 506 548 , 516 549 
Q 527 551 , 548 551 
Q 557 551 , 564 550 
Q 571 550 , 574 550 
" fill="#F5C000" />
<path d="
M 490 510 
L 508 510 
L 508 528 
Q 508 533 , 516 535 
Q 523 537 , 540 537 
Q 557 537 , 565 535 
Q 572 533 , 572 528 
L 572 510 
L 590 510 
L 590 528 
Q 590 534 , 577 537 
Q 565 540 , 540 540 
Q 516 540 , 503 537 
Q 490 534 , 490 528 
L 490 510 
" fill="#D21010" />
<path d="
M 540 290 
L 522 400 
L 556 400 
L 540 290 
M 533 241 
L 547 241 
L 590 510 
L 574 510 
L 562 431 
L 518 431 
L 505 510 
L 490 510 
L 533 241 
" fill="#339541" />
<path d="
M 695 551 
L 695 551 
Q 680 551 , 672 551 
Q 664 551 , 654 551 
Q 633 551 , 623 551 
Q 611 552 , 611 552 
Q 611 553 , 623 554 
Q 633 554 , 654 554 
Q 664 554 , 672 554 
Q 680 554 , 695 554 
L 695 554 
Q 684 555 , 674 555 
Q 664 555 , 653 555 
Q 626 555 , 611 554 
Q 595 554 , 595 552 
Q 595 551 , 611 551 
Q 626 550 , 653 550 
Q 664 550 , 674 550 
Q 685 550 , 695 551 
" fill="#545FFF" />
<path d="
M 595 542 
L 613 542 
L 613 547 
Q 613 548 , 621 548 
Q 628 549 , 645 549 
Q 662 549 , 670 548 
Q 677 548 , 677 547 
L 677 542 
L 695 542 
L 695 547 
Q 695 548 , 682 549 
Q 670 550 , 645 550 
Q 621 550 , 608 549 
Q 595 548 , 595 547 
L 595 542 
" fill="#D21010" />
<path d="
M 645 503 
L 627 522 
L 661 522 
L 645 503 
M 638 495 
L 652 495 
L 695 541 
L 679 541 
L 667 528 
L 623 528 
L 610 541 
L 595 541 
L 638 495 
" fill="#339541" />
<path d="
M 679 468 
L 679 420 
L 650 420 
L 650 400 
L 695 400 
L 695 481 
Q 684 488 , 673 491 
Q 664 494 , 652 494 
Q 626 494 , 610 470 
Q 595 446 , 595 404 
Q 595 361 , 610 337 
Q 626 313 , 652 313 
Q 663 313 , 672 316 
Q 682 320 , 692 328 
L 692 351 
Q 679 341 , 671 338 
Q 662 335 , 653 335 
Q 632 335 , 621 352 
Q 611 369 , 611 404 
Q 611 439 , 621 457 
Q 632 474 , 653 474 
Q 662 474 , 669 472 
Q 676 471 , 679 468 
" fill="#F5C000" />
<path d="
M 700 545 
L 718 545 
L 718 551 
Q 718 552 , 726 553 
Q 733 554 , 750 554 
Q 767 554 , 775 553 
Q 782 552 , 782 551 
L 782 545 
L 800 545 
L 800 551 
Q 800 553 , 787 554 
Q 775 555 , 750 555 
Q 726 555 , 713 554 
Q 700 553 , 700 551 
L 700 545 
" fill="#D21010" />
<path d="
M 784 543 
L 784 540 
L 755 540 
L 755 538 
L 800 538 
L 800 543 
Q 789 544 , 778 544 
Q 769 544 , 757 544 
Q 731 544 , 715 543 
Q 700 541 , 700 539 
Q 700 536 , 715 534 
Q 731 533 , 757 533 
Q 768 533 , 777 533 
Q 787 533 , 797 534 
L 797 535 
Q 784 535 , 776 535 
Q 767 534 , 758 534 
Q 737 534 , 726 535 
Q 716 536 , 716 539 
Q 716 541 , 726 542 
Q 737 543 , 758 543 
Q 767 543 , 774 543 
Q 781 543 , 784 543 
" fill="#F5C000" />
<path d="
M 800 518 
L 800 520 
Q 785 519 , 777 518 
Q 769 518 , 759 518 
Q 738 518 , 728 520 
Q 716 521 , 716 524 
Q 716 528 , 728 529 
Q 738 531 , 759 531 
Q 769 531 , 777 531 
Q 785 530 , 800 529 
L 800 531 
Q 789 532 , 779 533 
Q 769 533 , 758 533 
Q 731 533 , 716 531 
Q 700 528 , 700 524 
Q 700 521 , 716 518 
Q 731 516 , 758 516 
Q 769 516 , 779 516 
Q 790 517 , 800 518 
" fill="#545FFF" />
<path d="
M 750 474 
L 732 495 
L 766 495 
L 750 474 
M 743 465 
L 757 465 
L 800 515 
L 784 515 
L 772 501 
L 728 501 
L 715 515 
L 700 515 
L 743 465 
" fill="#339541" />
<path d="
M 905 552 
L 905 553 
Q 890 552 , 882 552 
Q 874 552 , 864 552 
Q 843 552 , 833 552 
Q 821 553 , 821 553 
Q 821 553 , 833 554 
Q 843 554 , 864 554 
Q 874 554 , 882 554 
Q 890 554 , 905 554 
L 905 554 
Q 894 554 , 884 554 
Q 874 554 , 863 554 
Q 836 554 , 821 554 
Q 805 554 , 805 553 
Q 805 553 , 821 552 
Q 836 552 , 863 552 
Q 874 552 , 884 552 
Q 895 552 , 905 552 
" fill="#545FFF" />
<path d="
M 805 549 
L 823 549 
L 823 551 
Q 823 551 , 831 551 
Q 838 551 , 855 551 
Q 872 551 , 880 551 
Q 887 551 , 887 551 
L 887 549 
L 905 549 
L 905 551 
Q 905 551 , 892 551 
Q 880 552 , 855 552 
Q 831 552 , 818 551 
Q 805 551 , 805 551 
L 805 549 
" fill="#D21010" />
<path d="
M 889 548 
L 889 547 
L 860 547 
L 860 546 
L 905 546 
L 905 548 
Q 894 548 , 883 548 
Q 874 548 , 862 548 
Q 836 548 , 820 548 
Q 805 547 , 805 547 
Q 805 546 , 820 545 
Q 836 545 , 862 545 
Q 873 545 , 882 545 
Q 892 545 , 902 545 
L 902 546 
Q 889 545 , 881 545 
Q 872 545 , 863 545 
Q 842 545 , 831 546 
Q 821 546 , 821 547 
Q 821 547 , 831 547 
Q 842 548 , 863 548 
Q 872 548 , 879 548 
Q 886 548 , 889 548 
" fill="#F5C000" />
<path d="
M 855 541 
L 837 543 
L 871 543 
L 855 541 
M 848 540 
L 862 540 
L 905 544 
L 889 544 
L 877 543 
L 833 543 
L 820 544 
L 805 544 
L 848 540 
" fill="#339541" />
<path d="M 65 55 L 65 555 " stroke="black" stroke-width="1.5"/>
<path d="M 55 555 L 65 555 " stroke="black" stroke-width="4"/>
<text text-anchor="end" x="50" y="555" font-size="50" alignment-baseline="middle">0</text>
<path d="M 55 305 L 65 305 " stroke="black" stroke-width="4"/>
<text text-anchor="end" x="50" y="305" font-size="50" alignment-baseline="middle">1</text>
<path d="M 55 55 L 65 55 " stroke="black" stroke-width="4"/>
<text text-anchor="end" x="50" y="55" font-size="50" alignment-baseline="middle">2</text>
<text text-anchor="middle" x="487" y="50" font-size="50" alignment-baseline="baseline"></text>
G<path d="
M 160 582 
L 126 595 
L 160 608 
L 157 611 
L 123 598 
L 123 623 
L 117 623 
L 117 599 
L 83 611 
L 80 608 
L 114 595 
L 80 582 
L 83 579 
L 117 591 
L 117 567 
L 123 567 
L 123 591 
L 157 579 
L 160 582 
" fill="black" />
<path d="
" fill="black" />
<path d="
M 211 567 
L 238 567 
L 238 623 
L 211 623 
L 211 567 
" fill="black" />
<path d="
" fill="black" />
<path d="
" fill="black" />
<path d="
M 316 567 
L 343 567 
L 343 623 
L 316 623 
L 316 567 
" fill="black" />
<path d="
" fill="black" />
<path d="
" fill="black" />
<path d="
M 421 567 
L 448 567 
L 448 623 
L 421 623 
L 421 567 
" fill="black" />
<path d="
" fill="black" />
<path d="
" fill="black" />
<path d="
M 526 567 
L 553 567 
L 553 623 
L 526 623 
L 526 567 
" fill="black" />
<path d="
" fill="black" />
<path d="
" fill="black" />
<path d="
M 631 567 
L 658 567 
L 658 623 
L 631 623 
L 631 567 
" fill="black" />
<path d="
" fill="black" />
<path d="
" fill="black" />
<path d="
M 736 567 
L 763 567 
L 763 623 
L 736 623 
L 736 567 
" fill="black" />
<path d="
" fill="black" />
<path d="
M 895 582 
L 861 595 
L 895 608 
L 892 611 
L 858 598 
L 858 623 
L 852 623 
L 852 599 
L 818 611 
L 815 608 
L 849 595 
L 815 582 
L 818 579 
L 852 591 
L 852 567 
L 858 567 
L 858 591 
L 892 579 
L 895 582 
" fill="black" />
</svg>
