<svg xmlns="http://www.w3.org/2000/svg"
viewBox="0 0 805 635">
<path d="
M 170 552 
L 170 553 
Q 155 552 , 147 552 
Q 139 552 , 129 552 
Q 108 552 , 98 552 
Q 86 553 , 86 553 
Q 86 553 , 98 554 
Q 108 554 , 129 554 
Q 139 554 , 147 554 
Q 155 554 , 170 554 
L 170 554 
Q 159 554 , 149 554 
Q 139 554 , 128 554 
Q 101 554 , 86 554 
Q 70 554 , 70 553 
Q 70 553 , 86 552 
Q 101 552 , 128 552 
Q 139 552 , 149 552 
Q 160 552 , 170 552 
" fill="#545FFF" />
<path d="
M 70 549 
L 88 549 
L 88 551 
Q 88 551 , 96 551 
Q 103 551 , 120 551 
Q 137 551 , 145 551 
Q 152 551 , 152 551 
L 152 549 
L 170 549 
L 170 551 
Q 170 551 , 157 551 
Q 145 552 , 120 552 
Q 96 552 , 83 551 
Q 70 551 , 70 551 
L 70 549 
" fill="#D21010" />
<path d="
M 154 548 
L 154 547 
L 125 547 
L 125 546 
L 170 546 
L 170 548 
Q 159 548 , 148 548 
Q 139 548 , 127 548 
Q 101 548 , 85 548 
Q 70 547 , 70 547 
Q 70 546 , 85 545 
Q 101 545 , 127 545 
Q 138 545 , 147 545 
Q 157 545 , 167 545 
L 167 546 
Q 154 545 , 146 545 
Q 137 545 , 128 545 
Q 107 545 , 96 546 
Q 86 546 , 86 547 
Q 86 547 , 96 547 
Q 107 548 , 128 548 
Q 137 548 , 144 548 
Q 151 548 , 154 548 
" fill="#F5C000" />
<path d="
M 120 541 
L 102 543 
L 136 543 
L 120 541 
M 113 540 
L 127 540 
L 170 544 
L 154 544 
L 142 543 
L 98 543 
L 85 544 
L 70 544 
L 113 540 
" fill="#339541" />
<path d="
M 275 553 
L 275 554 
Q 260 553 , 252 553 
Q 244 553 , 234 553 
Q 213 553 , 203 553 
Q 191 554 , 191 554 
Q 191 554 , 203 555 
Q 213 555 , 234 555 
Q 244 555 , 252 555 
Q 260 555 , 275 554 
L 275 555 
Q 264 555 , 254 555 
Q 244 555 , 233 555 
Q 206 555 , 191 555 
Q 175 554 , 175 554 
Q 175 554 , 191 553 
Q 206 553 , 233 553 
Q 244 553 , 254 553 
Q 265 553 , 275 553 
" fill="#545FFF" />
<path d="
M 259 550 
L 259 544 
L 230 544 
L 230 541 
L 275 541 
L 275 551 
Q 264 552 , 253 552 
Q 244 553 , 232 553 
Q 206 553 , 190 550 
Q 175 547 , 175 542 
Q 175 537 , 190 534 
Q 206 531 , 232 531 
Q 243 531 , 252 531 
Q 262 532 , 272 533 
L 272 536 
Q 259 534 , 251 534 
Q 242 534 , 233 534 
Q 212 534 , 201 536 
Q 191 538 , 191 542 
Q 191 546 , 201 548 
Q 212 550 , 233 550 
Q 242 550 , 249 550 
Q 256 550 , 259 550 
" fill="#F5C000" />
<path d="
M 175 507 
L 193 507 
L 193 521 
Q 193 525 , 201 526 
Q 208 528 , 225 528 
Q 242 528 , 250 526 
Q 257 525 , 257 521 
L 257 507 
L 275 507 
L 275 521 
Q 275 526 , 262 528 
Q 250 530 , 225 530 
Q 201 530 , 188 528 
Q 175 526 , 175 521 
L 175 507 
" fill="#D21010" />
<path d="
M 225 476 
L 207 491 
L 241 491 
L 225 476 
M 218 469 
L 232 469 
L 275 507 
L 259 507 
L 247 496 
L 203 496 
L 190 507 
L 175 507 
L 218 469 
" fill="#339541" />
<path d="
M 280 552 
L 298 552 
L 298 553 
Q 298 554 , 306 554 
Q 313 554 , 330 554 
Q 347 554 , 355 554 
Q 362 554 , 362 553 
L 362 552 
L 380 552 
L 380 554 
Q 380 554 , 367 554 
Q 355 555 , 330 555 
Q 306 555 , 293 554 
Q 280 554 , 280 554 
L 280 552 
" fill="#D21010" />
<path d="
M 380 548 
L 380 549 
Q 365 549 , 357 548 
Q 349 548 , 339 548 
Q 318 548 , 308 549 
Q 296 549 , 296 549 
Q 296 550 , 308 551 
Q 318 551 , 339 551 
Q 349 551 , 357 551 
Q 365 551 , 380 551 
L 380 551 
Q 369 551 , 359 551 
Q 349 551 , 338 551 
Q 311 551 , 296 551 
Q 280 551 , 280 550 
Q 280 549 , 296 548 
Q 311 548 , 338 548 
Q 349 548 , 359 548 
Q 370 548 , 380 548 
" fill="#545FFF" />
<path d="
M 330 500 
L 312 524 
L 346 524 
L 330 500 
M 323 489 
L 337 489 
L 380 548 
L 364 548 
L 352 531 
L 308 531 
L 295 548 
L 280 548 
L 323 489 
" fill="#339541" />
<path d="
M 364 459 
L 364 405 
L 335 405 
L 335 382 
L 380 382 
L 380 473 
Q 369 481 , 358 485 
Q 349 488 , 337 488 
Q 311 488 , 295 461 
Q 280 434 , 280 387 
Q 280 339 , 295 312 
Q 311 285 , 337 285 
Q 348 285 , 357 289 
Q 367 292 , 377 301 
L 377 327 
Q 364 316 , 356 313 
Q 347 309 , 338 309 
Q 317 309 , 306 328 
Q 296 347 , 296 387 
Q 296 427 , 306 446 
Q 317 466 , 338 466 
Q 347 466 , 354 464 
Q 361 462 , 364 459 
" fill="#F5C000" />
<path d="
M 385 552 
L 403 552 
L 403 553 
Q 403 554 , 411 554 
Q 418 554 , 435 554 
Q 452 554 , 460 554 
Q 467 554 , 467 553 
L 467 552 
L 485 552 
L 485 553 
Q 485 554 , 472 554 
Q 460 554 , 435 554 
Q 411 554 , 398 554 
Q 385 554 , 385 553 
L 385 552 
" fill="#D21010" />
<path d="
M 485 549 
L 485 550 
Q 470 549 , 462 549 
Q 454 549 , 444 549 
Q 423 549 , 413 550 
Q 401 550 , 401 550 
Q 401 551 , 413 551 
Q 423 551 , 444 551 
Q 454 551 , 462 551 
Q 470 551 , 485 551 
L 485 551 
Q 474 552 , 464 552 
Q 454 552 , 443 552 
Q 416 552 , 401 551 
Q 385 551 , 385 550 
Q 385 550 , 401 549 
Q 416 549 , 443 549 
Q 454 549 , 464 549 
Q 475 549 , 485 549 
" fill="#545FFF" />
<path d="
M 469 547 
L 469 544 
L 440 544 
L 440 543 
L 485 543 
L 485 548 
Q 474 548 , 463 548 
Q 454 548 , 442 548 
Q 416 548 , 400 547 
Q 385 546 , 385 544 
Q 385 541 , 400 540 
Q 416 539 , 442 539 
Q 453 539 , 462 539 
Q 472 539 , 482 540 
L 482 541 
Q 469 540 , 461 540 
Q 452 540 , 443 540 
Q 422 540 , 411 541 
Q 401 542 , 401 544 
Q 401 545 , 411 546 
Q 422 547 , 443 547 
Q 452 547 , 459 547 
Q 466 547 , 469 547 
" fill="#F5C000" />
<path d="
M 435 192 
L 417 364 
L 451 364 
L 435 192 
M 428 114 
L 442 114 
L 485 538 
L 469 538 
L 457 413 
L 413 413 
L 400 538 
L 385 538 
L 428 114 
" fill="#339541" />
<path d="
M 590 552 
L 590 553 
Q 575 552 , 567 552 
Q 559 552 , 549 552 
Q 528 552 , 518 553 
Q 506 553 , 506 553 
Q 506 554 , 518 554 
Q 528 555 , 549 555 
Q 559 555 , 567 554 
Q 575 554 , 590 554 
L 590 555 
Q 579 555 , 569 555 
Q 559 555 , 548 555 
Q 521 555 , 506 554 
Q 490 554 , 490 553 
Q 490 553 , 506 552 
Q 521 552 , 548 552 
Q 559 552 , 569 552 
Q 580 552 , 590 552 
" fill="#545FFF" />
<path d="
M 574 550 
L 574 547 
L 545 547 
L 545 545 
L 590 545 
L 590 550 
Q 579 551 , 568 551 
Q 559 551 , 547 551 
Q 521 551 , 505 550 
Q 490 548 , 490 546 
Q 490 543 , 505 542 
Q 521 540 , 547 540 
Q 558 540 , 567 540 
Q 577 540 , 587 541 
L 587 542 
Q 574 542 , 566 542 
Q 557 541 , 548 541 
Q 527 541 , 516 542 
Q 506 543 , 506 546 
Q 506 548 , 516 549 
Q 527 550 , 548 550 
Q 557 550 , 564 550 
Q 571 550 , 574 550 
" fill="#F5C000" />
<path d="
M 490 503 
L 508 503 
L 508 525 
Q 508 531 , 516 533 
Q 523 536 , 540 536 
Q 557 536 , 565 533 
Q 572 531 , 572 525 
L 572 503 
L 590 503 
L 590 525 
Q 590 532 , 577 536 
Q 565 540 , 540 540 
Q 516 540 , 503 536 
Q 490 532 , 490 525 
L 490 503 
" fill="#D21010" />
<path d="
M 540 314 
L 522 408 
L 556 408 
L 540 314 
M 533 271 
L 547 271 
L 590 503 
L 574 503 
L 562 435 
L 518 435 
L 505 503 
L 490 503 
L 533 271 
" fill="#339541" />
<path d="
M 595 546 
L 613 546 
L 613 551 
Q 613 552 , 621 553 
Q 628 553 , 645 553 
Q 662 553 , 670 553 
Q 677 552 , 677 551 
L 677 546 
L 695 546 
L 695 551 
Q 695 552 , 682 553 
Q 670 554 , 645 554 
Q 621 554 , 608 553 
Q 595 552 , 595 551 
L 595 546 
" fill="#D21010" />
<path d="
M 695 536 
L 695 538 
Q 680 537 , 672 536 
Q 664 536 , 654 536 
Q 633 536 , 623 537 
Q 611 538 , 611 540 
Q 611 542 , 623 543 
Q 633 544 , 654 544 
Q 664 544 , 672 544 
Q 680 544 , 695 543 
L 695 545 
Q 684 545 , 674 545 
Q 664 546 , 653 546 
Q 626 546 , 611 544 
Q 595 543 , 595 540 
Q 595 538 , 611 536 
Q 626 535 , 653 535 
Q 664 535 , 674 535 
Q 685 536 , 695 536 
" fill="#545FFF" />
<path d="
M 645 505 
L 627 519 
L 661 519 
L 645 505 
M 638 498 
L 652 498 
L 695 534 
L 679 534 
L 667 523 
L 623 523 
L 610 534 
L 595 534 
L 638 498 
" fill="#339541" />
<path d="
M 679 474 
L 679 432 
L 650 432 
L 650 414 
L 695 414 
L 695 485 
Q 684 492 , 673 494 
Q 664 497 , 652 497 
Q 626 497 , 610 476 
Q 595 455 , 595 418 
Q 595 381 , 610 359 
Q 626 338 , 652 338 
Q 663 338 , 672 341 
Q 682 344 , 692 351 
L 692 371 
Q 679 362 , 671 360 
Q 662 357 , 653 357 
Q 632 357 , 621 372 
Q 611 387 , 611 418 
Q 611 449 , 621 464 
Q 632 480 , 653 480 
Q 662 480 , 669 478 
Q 676 476 , 679 474 
" fill="#F5C000" />
<path d="
M 800 552 
L 800 553 
Q 785 552 , 777 552 
Q 769 552 , 759 552 
Q 738 552 , 728 552 
Q 716 553 , 716 553 
Q 716 553 , 728 554 
Q 738 554 , 759 554 
Q 769 554 , 777 554 
Q 785 554 , 800 554 
L 800 554 
Q 789 554 , 779 554 
Q 769 554 , 758 554 
Q 731 554 , 716 554 
Q 700 554 , 700 553 
Q 700 553 , 716 552 
Q 731 552 , 758 552 
Q 769 552 , 779 552 
Q 790 552 , 800 552 
" fill="#545FFF" />
<path d="
M 700 549 
L 718 549 
L 718 551 
Q 718 551 , 726 551 
Q 733 551 , 750 551 
Q 767 551 , 775 551 
Q 782 551 , 782 551 
L 782 549 
L 800 549 
L 800 551 
Q 800 551 , 787 551 
Q 775 552 , 750 552 
Q 726 552 , 713 551 
Q 700 551 , 700 551 
L 700 549 
" fill="#D21010" />
<path d="
M 784 548 
L 784 547 
L 755 547 
L 755 546 
L 800 546 
L 800 548 
Q 789 548 , 778 548 
Q 769 548 , 757 548 
Q 731 548 , 715 548 
Q 700 547 , 700 547 
Q 700 546 , 715 545 
Q 731 545 , 757 545 
Q 768 545 , 777 545 
Q 787 545 , 797 545 
L 797 546 
Q 784 545 , 776 545 
Q 767 545 , 758 545 
Q 737 545 , 726 546 
Q 716 546 , 716 547 
Q 716 547 , 726 547 
Q 737 548 , 758 548 
Q 767 548 , 774 548 
Q 781 548 , 784 548 
" fill="#F5C000" />
<path d="
M 750 541 
L 732 543 
L 766 543 
L 750 541 
M 743 540 
L 757 540 
L 800 544 
L 784 544 
L 772 543 
L 728 543 
L 715 544 
L 700 544 
L 743 540 
" fill="#339541" />
<path d="M 65 55 L 65 555 " stroke="black" stroke-width="1.5"/>
<path d="M 55 555 L 65 555 " stroke="black" stroke-width="4"/>
<text text-anchor="end" x="50" y="555" font-size="50" alignment-baseline="middle">0</text>
<path d="M 55 305 L 65 305 " stroke="black" stroke-width="4"/>
<text text-anchor="end" x="50" y="305" font-size="50" alignment-baseline="middle">1</text>
<path d="M 55 55 L 65 55 " stroke="black" stroke-width="4"/>
<text text-anchor="end" x="50" y="55" font-size="50" alignment-baseline="middle">2</text>
<text text-anchor="middle" x="435" y="50" font-size="50" alignment-baseline="baseline"></text>
G<path d="
M 160 582 
L 126 595 
L 160 608 
L 157 611 
L 123 598 
L 123 623 
L 117 623 
L 117 599 
L 83 611 
L 80 608 
L 114 595 
L 80 582 
L 83 579 
L 117 591 
L 117 567 
L 123 567 
L 123 591 
L 157 579 
L 160 582 
" fill="black" />
<path d="
" fill="black" />
<path d="
M 211 567 
L 238 567 
L 238 623 
L 211 623 
L 211 567 
" fill="black" />
<path d="
" fill="black" />
<path d="
" fill="black" />
<path d="
M 316 567 
L 343 567 
L 343 623 
L 316 623 
L 316 567 
" fill="black" />
<path d="
" fill="black" />
<path d="
" fill="black" />
<path d="
M 421 567 
L 448 567 
L 448 623 
L 421 623 
L 421 567 
" fill="black" />
<path d="
" fill="black" />
<path d="
" fill="black" />
<path d="
M 526 567 
L 553 567 
L 553 623 
L 526 623 
L 526 567 
" fill="black" />
<path d="
" fill="black" />
<path d="
" fill="black" />
<path d="
M 631 567 
L 658 567 
L 658 623 
L 631 623 
L 631 567 
" fill="black" />
<path d="
" fill="black" />
<path d="
M 790 582 
L 756 595 
L 790 608 
L 787 611 
L 753 598 
L 753 623 
L 747 623 
L 747 599 
L 713 611 
L 710 608 
L 744 595 
L 710 582 
L 713 579 
L 747 591 
L 747 567 
L 753 567 
L 753 591 
L 787 579 
L 790 582 
" fill="black" />
</svg>
