<svg xmlns="http://www.w3.org/2000/svg"
viewBox="0 0 1435 635">
<path d="
M 120 554 
L 102 554 
L 136 554 
L 120 554 
M 113 554 
L 127 554 
L 170 554 
L 154 554 
L 142 554 
L 98 554 
L 85 554 
L 70 554 
L 113 554 
" fill="#339541" />
<path d="
M 70 553 
L 88 553 
L 88 553 
Q 88 553 , 96 553 
Q 103 553 , 120 553 
Q 137 553 , 145 553 
Q 152 553 , 152 553 
L 152 553 
L 170 553 
L 170 553 
Q 170 553 , 157 553 
Q 145 553 , 120 553 
Q 96 553 , 83 553 
Q 70 553 , 70 553 
L 70 553 
" fill="#D21010" />
<path d="
M 170 552 
L 170 552 
Q 155 552 , 147 552 
Q 139 552 , 129 552 
Q 108 552 , 98 552 
Q 86 552 , 86 552 
Q 86 552 , 98 552 
Q 108 552 , 129 552 
Q 139 552 , 147 552 
Q 155 552 , 170 552 
L 170 552 
Q 159 552 , 149 552 
Q 139 552 , 128 552 
Q 101 552 , 86 552 
Q 70 552 , 70 552 
Q 70 552 , 86 552 
Q 101 552 , 128 552 
Q 139 552 , 149 552 
Q 160 552 , 170 552 
" fill="#545FFF" />
<path d="
M 154 551 
L 154 551 
L 125 551 
L 125 551 
L 170 551 
L 170 551 
Q 159 551 , 148 551 
Q 139 551 , 127 551 
Q 101 551 , 85 551 
Q 70 551 , 70 551 
Q 70 551 , 85 551 
Q 101 551 , 127 551 
Q 138 551 , 147 551 
Q 157 551 , 167 551 
L 167 551 
Q 154 551 , 146 551 
Q 137 551 , 128 551 
Q 107 551 , 96 551 
Q 86 551 , 86 551 
Q 86 551 , 96 551 
Q 107 551 , 128 551 
Q 137 551 , 144 551 
Q 151 551 , 154 551 
" fill="#F5C000" />
<path d="
M 225 551 
L 207 553 
L 241 553 
L 225 551 
M 218 550 
L 232 550 
L 275 555 
L 259 555 
L 247 553 
L 203 553 
L 190 555 
L 175 555 
L 218 550 
" fill="#339541" />
<path d="
M 175 544 
L 193 544 
L 193 547 
Q 193 548 , 201 548 
Q 208 549 , 225 549 
Q 242 549 , 250 548 
Q 257 548 , 257 547 
L 257 544 
L 275 544 
L 275 547 
Q 275 548 , 262 549 
Q 250 549 , 225 549 
Q 201 549 , 188 549 
Q 175 548 , 175 547 
L 175 544 
" fill="#D21010" />
<path d="
M 259 538 
L 259 527 
L 230 527 
L 230 523 
L 275 523 
L 275 541 
Q 264 543 , 253 543 
Q 244 544 , 232 544 
Q 206 544 , 190 538 
Q 175 533 , 175 524 
Q 175 514 , 190 508 
Q 206 503 , 232 503 
Q 243 503 , 252 504 
Q 262 504 , 272 506 
L 272 512 
Q 259 509 , 251 509 
Q 242 508 , 233 508 
Q 212 508 , 201 512 
Q 191 516 , 191 524 
Q 191 532 , 201 536 
Q 212 539 , 233 539 
Q 242 539 , 249 539 
Q 256 539 , 259 538 
" fill="#F5C000" />
<path d="
M 275 416 
L 275 431 
Q 260 422 , 252 419 
Q 244 417 , 234 417 
Q 213 417 , 203 426 
Q 191 436 , 191 454 
Q 191 473 , 203 483 
Q 213 492 , 234 492 
Q 244 492 , 252 490 
Q 260 487 , 275 478 
L 275 493 
Q 264 498 , 254 501 
Q 244 503 , 233 503 
Q 206 503 , 191 490 
Q 175 477 , 175 454 
Q 175 432 , 191 419 
Q 206 406 , 233 406 
Q 244 406 , 254 408 
Q 265 411 , 275 416 
" fill="#545FFF" />
<path d="
M 380 550 
L 380 551 
Q 365 551 , 357 551 
Q 349 550 , 339 550 
Q 318 550 , 308 551 
Q 296 551 , 296 552 
Q 296 553 , 308 553 
Q 318 554 , 339 554 
Q 349 554 , 357 554 
Q 365 554 , 380 553 
L 380 554 
Q 369 554 , 359 554 
Q 349 554 , 338 554 
Q 311 554 , 296 554 
Q 280 553 , 280 552 
Q 280 551 , 296 551 
Q 311 550 , 338 550 
Q 349 550 , 359 550 
Q 370 550 , 380 550 
" fill="#545FFF" />
<path d="
M 364 549 
L 364 548 
L 335 548 
L 335 547 
L 380 547 
L 380 549 
Q 369 549 , 358 549 
Q 349 549 , 337 549 
Q 311 549 , 295 549 
Q 280 548 , 280 547 
Q 280 546 , 295 546 
Q 311 545 , 337 545 
Q 348 545 , 357 545 
Q 367 545 , 377 545 
L 377 546 
Q 364 546 , 356 546 
Q 347 546 , 338 546 
Q 317 546 , 306 546 
Q 296 546 , 296 547 
Q 296 548 , 306 548 
Q 317 549 , 338 549 
Q 347 549 , 354 549 
Q 361 549 , 364 549 
" fill="#F5C000" />
<path d="
M 280 533 
L 298 533 
L 298 540 
Q 298 542 , 306 542 
Q 313 543 , 330 543 
Q 347 543 , 355 542 
Q 362 542 , 362 540 
L 362 533 
L 380 533 
L 380 540 
Q 380 542 , 367 543 
Q 355 544 , 330 544 
Q 306 544 , 293 543 
Q 280 542 , 280 540 
L 280 533 
" fill="#D21010" />
<path d="
M 330 522 
L 312 527 
L 346 527 
L 330 522 
M 323 520 
L 337 520 
L 380 533 
L 364 533 
L 352 529 
L 308 529 
L 295 533 
L 280 533 
L 323 520 
" fill="#339541" />
<path d="
M 435 551 
L 417 553 
L 451 553 
L 435 551 
M 428 550 
L 442 550 
L 485 554 
L 469 554 
L 457 553 
L 413 553 
L 400 554 
L 385 554 
L 428 550 
" fill="#339541" />
<path d="
M 385 545 
L 403 545 
L 403 548 
Q 403 549 , 411 549 
Q 418 549 , 435 549 
Q 452 549 , 460 549 
Q 467 549 , 467 548 
L 467 545 
L 485 545 
L 485 548 
Q 485 549 , 472 549 
Q 460 550 , 435 550 
Q 411 550 , 398 549 
Q 385 549 , 385 548 
L 385 545 
" fill="#D21010" />
<path d="
M 485 507 
L 485 513 
Q 470 509 , 462 508 
Q 454 507 , 444 507 
Q 423 507 , 413 511 
Q 401 515 , 401 523 
Q 401 532 , 413 536 
Q 423 540 , 444 540 
Q 454 540 , 462 539 
Q 470 538 , 485 534 
L 485 540 
Q 474 543 , 464 544 
Q 454 545 , 443 545 
Q 416 545 , 401 539 
Q 385 533 , 385 523 
Q 385 514 , 401 508 
Q 416 502 , 443 502 
Q 454 502 , 464 503 
Q 475 504 , 485 507 
" fill="#545FFF" />
<path d="
M 469 487 
L 469 461 
L 440 461 
L 440 450 
L 485 450 
L 485 494 
Q 474 498 , 463 499 
Q 454 501 , 442 501 
Q 416 501 , 400 488 
Q 385 475 , 385 452 
Q 385 429 , 400 416 
Q 416 403 , 442 403 
Q 453 403 , 462 405 
Q 472 407 , 482 411 
L 482 424 
Q 469 418 , 461 416 
Q 452 415 , 443 415 
Q 422 415 , 411 424 
Q 401 433 , 401 452 
Q 401 471 , 411 481 
Q 422 490 , 443 490 
Q 452 490 , 459 489 
Q 466 488 , 469 487 
" fill="#F5C000" />
<path d="
M 490 553 
L 499 553 
L 499 554 
Q 499 554 , 503 554 
Q 506 554 , 515 554 
Q 524 554 , 527 554 
Q 531 554 , 531 554 
L 531 553 
L 540 553 
L 540 554 
Q 540 554 , 534 554 
Q 527 554 , 515 554 
Q 503 554 , 496 554 
Q 490 554 , 490 554 
L 490 553 
" fill="#D21010" />
<path d="
M 582 554 
L 582 554 
L 568 554 
L 568 554 
L 590 554 
L 590 554 
Q 585 554 , 579 554 
Q 574 554 , 568 554 
Q 555 554 , 548 554 
Q 540 554 , 540 554 
Q 540 553 , 548 553 
Q 555 553 , 568 553 
Q 574 553 , 579 553 
Q 584 553 , 589 553 
L 589 553 
Q 582 553 , 578 553 
Q 574 553 , 569 553 
Q 559 553 , 553 553 
Q 548 553 , 548 554 
Q 548 554 , 553 554 
Q 559 554 , 569 554 
Q 574 554 , 577 554 
Q 581 554 , 582 554 
" fill="lightgray" />
<path d="
M 490 550 
L 499 550 
L 499 551 
Q 499 552 , 503 552 
Q 506 552 , 515 552 
Q 524 552 , 527 552 
Q 531 552 , 531 551 
L 531 550 
L 540 550 
L 540 552 
Q 540 552 , 534 552 
Q 527 553 , 515 553 
Q 503 553 , 496 552 
Q 490 552 , 490 552 
L 490 550 
" fill="#D21010" />
<path d="
M 565 550 
L 556 551 
L 573 551 
L 565 550 
M 561 550 
L 569 550 
L 590 553 
L 582 553 
L 576 552 
L 554 552 
L 547 553 
L 540 553 
L 561 550 
" fill="lightgray" />
<path d="
M 532 549 
L 532 547 
L 518 547 
L 518 547 
L 540 547 
L 540 549 
Q 535 549 , 529 549 
Q 524 549 , 518 550 
Q 505 550 , 498 549 
Q 490 548 , 490 547 
Q 490 545 , 498 545 
Q 505 544 , 518 544 
Q 524 544 , 529 544 
Q 534 544 , 539 544 
L 539 545 
Q 532 545 , 528 545 
Q 524 545 , 519 545 
Q 509 545 , 503 545 
Q 498 546 , 498 547 
Q 498 548 , 503 548 
Q 509 549 , 519 549 
Q 524 549 , 527 549 
Q 531 549 , 532 549 
" fill="#F5C000" />
<path d="
M 540 544 
L 549 544 
L 549 547 
Q 549 548 , 553 549 
Q 556 549 , 565 549 
Q 574 549 , 577 549 
Q 581 548 , 581 547 
L 581 544 
L 590 544 
L 590 547 
Q 590 548 , 584 549 
Q 577 550 , 565 550 
Q 553 550 , 546 549 
Q 540 548 , 540 547 
L 540 544 
" fill="lightgray" />
<path d="
M 515 537 
L 506 541 
L 523 541 
L 515 537 
M 511 536 
L 519 536 
L 540 544 
L 532 544 
L 526 541 
L 504 541 
L 497 544 
L 490 544 
L 511 536 
" fill="#339541" />
<path d="
M 540 536 
L 549 536 
L 549 541 
Q 549 542 , 553 542 
Q 556 543 , 565 543 
Q 574 543 , 577 542 
Q 581 542 , 581 541 
L 581 536 
L 590 536 
L 590 541 
Q 590 542 , 584 543 
Q 577 544 , 565 544 
Q 553 544 , 546 543 
Q 540 542 , 540 541 
L 540 536 
" fill="lightgray" />
<path d="
M 540 472 
L 540 483 
Q 533 476 , 529 474 
Q 524 472 , 519 472 
Q 509 472 , 504 479 
Q 498 486 , 498 500 
Q 498 514 , 504 521 
Q 509 528 , 519 528 
Q 524 528 , 529 526 
Q 533 524 , 540 517 
L 540 528 
Q 535 532 , 529 534 
Q 525 535 , 519 535 
Q 505 535 , 498 526 
Q 490 516 , 490 500 
Q 490 483 , 498 474 
Q 505 464 , 519 464 
Q 525 464 , 530 466 
Q 535 467 , 540 472 
" fill="#545FFF" />
<path d="
M 582 525 
L 582 506 
L 568 506 
L 568 498 
L 590 498 
L 590 530 
Q 585 533 , 579 534 
Q 574 535 , 568 535 
Q 555 535 , 548 526 
Q 540 516 , 540 500 
Q 540 483 , 548 474 
Q 555 464 , 568 464 
Q 574 464 , 579 465 
Q 584 467 , 589 470 
L 589 479 
Q 582 475 , 578 474 
Q 574 473 , 569 473 
Q 559 473 , 553 479 
Q 548 486 , 548 500 
Q 548 514 , 553 521 
Q 559 527 , 569 527 
Q 574 527 , 577 527 
Q 581 526 , 582 525 
" fill="lightgray" />
<path d="
M 532 441 
L 532 399 
L 518 399 
L 518 382 
L 540 382 
L 540 451 
Q 535 458 , 529 461 
Q 524 463 , 518 463 
Q 505 463 , 498 442 
Q 490 422 , 490 385 
Q 490 349 , 498 328 
Q 505 307 , 518 307 
Q 524 307 , 529 310 
Q 534 313 , 539 320 
L 539 340 
Q 532 331 , 528 328 
Q 524 326 , 519 326 
Q 509 326 , 503 340 
Q 498 355 , 498 385 
Q 498 416 , 503 431 
Q 509 446 , 519 446 
Q 524 446 , 527 444 
Q 531 443 , 532 441 
" fill="#F5C000" />
<path d="
M 590 324 
L 590 348 
Q 583 332 , 579 328 
Q 574 324 , 569 324 
Q 559 324 , 554 339 
Q 548 355 , 548 385 
Q 548 416 , 554 431 
Q 559 447 , 569 447 
Q 574 447 , 579 443 
Q 583 438 , 590 423 
L 590 448 
Q 585 456 , 579 460 
Q 575 463 , 569 463 
Q 555 463 , 548 442 
Q 540 421 , 540 385 
Q 540 349 , 548 328 
Q 555 307 , 569 307 
Q 575 307 , 580 311 
Q 585 315 , 590 324 
" fill="lightgray" />
<path d="
M 645 548 
L 627 551 
L 661 551 
L 645 548 
M 638 547 
L 652 547 
L 695 554 
L 679 554 
L 667 552 
L 623 552 
L 610 554 
L 595 554 
L 638 547 
" fill="#339541" />
<path d="
M 679 546 
L 679 543 
L 650 543 
L 650 542 
L 695 542 
L 695 546 
Q 684 546 , 673 547 
Q 664 547 , 652 547 
Q 626 547 , 610 546 
Q 595 544 , 595 542 
Q 595 540 , 610 539 
Q 626 538 , 652 538 
Q 663 538 , 672 538 
Q 682 538 , 692 539 
L 692 540 
Q 679 539 , 671 539 
Q 662 539 , 653 539 
Q 632 539 , 621 540 
Q 611 541 , 611 542 
Q 611 544 , 621 545 
Q 632 546 , 653 546 
Q 662 546 , 669 546 
Q 676 546 , 679 546 
" fill="#F5C000" />
<path d="
M 695 521 
L 695 524 
Q 680 522 , 672 522 
Q 664 521 , 654 521 
Q 633 521 , 623 523 
Q 611 525 , 611 528 
Q 611 532 , 623 534 
Q 633 536 , 654 536 
Q 664 536 , 672 535 
Q 680 535 , 695 533 
L 695 536 
Q 684 537 , 674 537 
Q 664 538 , 653 538 
Q 626 538 , 611 535 
Q 595 533 , 595 528 
Q 595 524 , 611 522 
Q 626 519 , 653 519 
Q 664 519 , 674 519 
Q 685 520 , 695 521 
" fill="#545FFF" />
<path d="
M 595 467 
L 613 467 
L 613 498 
Q 613 506 , 621 510 
Q 628 513 , 645 513 
Q 662 513 , 670 510 
Q 677 506 , 677 498 
L 677 467 
L 695 467 
L 695 498 
Q 695 508 , 682 514 
Q 670 519 , 645 519 
Q 621 519 , 608 514 
Q 595 508 , 595 498 
L 595 467 
" fill="#D21010" />
<path d="
M 750 554 
L 732 554 
L 766 554 
L 750 554 
M 743 554 
L 757 554 
L 800 554 
L 784 554 
L 772 554 
L 728 554 
L 715 554 
L 700 554 
L 743 554 
" fill="#339541" />
<path d="
M 700 553 
L 718 553 
L 718 553 
Q 718 553 , 726 553 
Q 733 553 , 750 553 
Q 767 553 , 775 553 
Q 782 553 , 782 553 
L 782 553 
L 800 553 
L 800 553 
Q 800 553 , 787 553 
Q 775 553 , 750 553 
Q 726 553 , 713 553 
Q 700 553 , 700 553 
L 700 553 
" fill="#D21010" />
<path d="
M 800 552 
L 800 552 
Q 785 552 , 777 552 
Q 769 552 , 759 552 
Q 738 552 , 728 552 
Q 716 552 , 716 552 
Q 716 552 , 728 552 
Q 738 552 , 759 552 
Q 769 552 , 777 552 
Q 785 552 , 800 552 
L 800 552 
Q 789 552 , 779 552 
Q 769 552 , 758 552 
Q 731 552 , 716 552 
Q 700 552 , 700 552 
Q 700 552 , 716 552 
Q 731 552 , 758 552 
Q 769 552 , 779 552 
Q 790 552 , 800 552 
" fill="#545FFF" />
<path d="
M 784 551 
L 784 551 
L 755 551 
L 755 551 
L 800 551 
L 800 551 
Q 789 551 , 778 551 
Q 769 551 , 757 551 
Q 731 551 , 715 551 
Q 700 551 , 700 551 
Q 700 551 , 715 551 
Q 731 551 , 757 551 
Q 768 551 , 777 551 
Q 787 551 , 797 551 
L 797 551 
Q 784 551 , 776 551 
Q 767 551 , 758 551 
Q 737 551 , 726 551 
Q 716 551 , 716 551 
Q 716 551 , 726 551 
Q 737 551 , 758 551 
Q 767 551 , 774 551 
Q 781 551 , 784 551 
" fill="#F5C000" />
<path d="
M 889 554 
L 889 552 
L 860 552 
L 860 552 
L 905 552 
L 905 554 
Q 894 554 , 883 554 
Q 874 554 , 862 554 
Q 836 554 , 820 554 
Q 805 553 , 805 552 
Q 805 550 , 820 550 
Q 836 549 , 862 549 
Q 873 549 , 882 549 
Q 892 549 , 902 549 
L 902 550 
Q 889 550 , 881 550 
Q 872 550 , 863 550 
Q 842 550 , 831 550 
Q 821 551 , 821 552 
Q 821 553 , 831 553 
Q 842 554 , 863 554 
Q 872 554 , 879 554 
Q 886 554 , 889 554 
" fill="#F5C000" />
<path d="
M 855 543 
L 837 546 
L 871 546 
L 855 543 
M 848 542 
L 862 542 
L 905 548 
L 889 548 
L 877 547 
L 833 547 
L 820 548 
L 805 548 
L 848 542 
" fill="#339541" />
<path d="
M 805 508 
L 823 508 
L 823 528 
Q 823 533 , 831 536 
Q 838 538 , 855 538 
Q 872 538 , 880 536 
Q 887 533 , 887 528 
L 887 508 
L 905 508 
L 905 528 
Q 905 535 , 892 538 
Q 880 542 , 855 542 
Q 831 542 , 818 538 
Q 805 535 , 805 528 
L 805 508 
" fill="#D21010" />
<path d="
M 905 403 
L 905 421 
Q 890 409 , 882 406 
Q 874 403 , 864 403 
Q 843 403 , 833 414 
Q 821 426 , 821 449 
Q 821 472 , 833 483 
Q 843 495 , 864 495 
Q 874 495 , 882 492 
Q 890 489 , 905 477 
L 905 496 
Q 894 502 , 884 505 
Q 874 508 , 863 508 
Q 836 508 , 821 492 
Q 805 476 , 805 449 
Q 805 422 , 821 406 
Q 836 390 , 863 390 
Q 874 390 , 884 393 
Q 895 396 , 905 403 
" fill="#545FFF" />
<path d="
M 910 553 
L 928 553 
L 928 554 
Q 928 554 , 936 555 
Q 943 555 , 960 555 
Q 977 555 , 985 555 
Q 992 554 , 992 554 
L 992 553 
L 1010 553 
L 1010 554 
Q 1010 555 , 997 555 
Q 985 555 , 960 555 
Q 936 555 , 923 555 
Q 910 555 , 910 554 
L 910 553 
" fill="#D21010" />
<path d="
M 960 546 
L 942 549 
L 976 549 
L 960 546 
M 953 545 
L 967 545 
L 1010 552 
L 994 552 
L 982 550 
L 938 550 
L 925 552 
L 910 552 
L 953 545 
" fill="#339541" />
<path d="
M 1010 500 
L 1010 508 
Q 995 503 , 987 502 
Q 979 501 , 969 501 
Q 948 501 , 938 505 
Q 926 510 , 926 520 
Q 926 530 , 938 535 
Q 948 539 , 969 539 
Q 979 539 , 987 538 
Q 995 537 , 1010 532 
L 1010 540 
Q 999 543 , 989 544 
Q 979 545 , 968 545 
Q 941 545 , 926 538 
Q 910 531 , 910 520 
Q 910 508 , 926 502 
Q 941 495 , 968 495 
Q 979 495 , 989 496 
Q 1000 497 , 1010 500 
" fill="#545FFF" />
<path d="
M 994 484 
L 994 464 
L 965 464 
L 965 456 
L 1010 456 
L 1010 489 
Q 999 492 , 988 493 
Q 979 494 , 967 494 
Q 941 494 , 925 484 
Q 910 475 , 910 458 
Q 910 441 , 925 431 
Q 941 421 , 967 421 
Q 978 421 , 987 422 
Q 997 424 , 1007 427 
L 1007 436 
Q 994 432 , 986 431 
Q 977 430 , 968 430 
Q 947 430 , 936 437 
Q 926 443 , 926 458 
Q 926 472 , 936 479 
Q 947 486 , 968 486 
Q 977 486 , 984 485 
Q 991 485 , 994 484 
" fill="#F5C000" />
<path d="
M 1015 551 
L 1033 551 
L 1033 553 
Q 1033 554 , 1041 554 
Q 1048 554 , 1065 554 
Q 1082 554 , 1090 554 
Q 1097 554 , 1097 553 
L 1097 551 
L 1115 551 
L 1115 553 
Q 1115 554 , 1102 554 
Q 1090 555 , 1065 555 
Q 1041 555 , 1028 554 
Q 1015 554 , 1015 553 
L 1015 551 
" fill="#D21010" />
<path d="
M 1115 544 
L 1115 545 
Q 1100 544 , 1092 544 
Q 1084 544 , 1074 544 
Q 1053 544 , 1043 545 
Q 1031 545 , 1031 546 
Q 1031 548 , 1043 549 
Q 1053 550 , 1074 550 
Q 1084 550 , 1092 549 
Q 1100 549 , 1115 549 
L 1115 550 
Q 1104 550 , 1094 550 
Q 1084 550 , 1073 550 
Q 1046 550 , 1031 549 
Q 1015 548 , 1015 547 
Q 1015 545 , 1031 544 
Q 1046 543 , 1073 543 
Q 1084 543 , 1094 543 
Q 1105 543 , 1115 544 
" fill="#545FFF" />
<path d="
M 1065 533 
L 1047 538 
L 1081 538 
L 1065 533 
M 1058 531 
L 1072 531 
L 1115 543 
L 1099 543 
L 1087 539 
L 1043 539 
L 1030 543 
L 1015 543 
L 1058 531 
" fill="#339541" />
<path d="
M 1099 528 
L 1099 523 
L 1070 523 
L 1070 521 
L 1115 521 
L 1115 529 
Q 1104 530 , 1093 530 
Q 1084 530 , 1072 530 
Q 1046 530 , 1030 528 
Q 1015 525 , 1015 521 
Q 1015 517 , 1030 514 
Q 1046 512 , 1072 512 
Q 1083 512 , 1092 512 
Q 1102 513 , 1112 513 
L 1112 516 
Q 1099 515 , 1091 514 
Q 1082 514 , 1073 514 
Q 1052 514 , 1041 516 
Q 1031 518 , 1031 521 
Q 1031 525 , 1041 527 
Q 1052 528 , 1073 528 
Q 1082 528 , 1089 528 
Q 1096 528 , 1099 528 
" fill="#F5C000" />
<path d="
M 1220 551 
L 1220 552 
Q 1205 552 , 1197 552 
Q 1189 551 , 1179 551 
Q 1158 551 , 1148 552 
Q 1136 552 , 1136 553 
Q 1136 554 , 1148 554 
Q 1158 554 , 1179 554 
Q 1189 554 , 1197 554 
Q 1205 554 , 1220 554 
L 1220 554 
Q 1209 555 , 1199 555 
Q 1189 555 , 1178 555 
Q 1151 555 , 1136 554 
Q 1120 554 , 1120 553 
Q 1120 552 , 1136 552 
Q 1151 551 , 1178 551 
Q 1189 551 , 1199 551 
Q 1210 551 , 1220 551 
" fill="#545FFF" />
<path d="
M 1170 544 
L 1152 548 
L 1186 548 
L 1170 544 
M 1163 543 
L 1177 543 
L 1220 551 
L 1204 551 
L 1192 549 
L 1148 549 
L 1135 551 
L 1120 551 
L 1163 543 
" fill="#339541" />
<path d="
M 1120 508 
L 1138 508 
L 1138 528 
Q 1138 534 , 1146 536 
Q 1153 539 , 1170 539 
Q 1187 539 , 1195 536 
Q 1202 534 , 1202 528 
L 1202 508 
L 1220 508 
L 1220 529 
Q 1220 536 , 1207 539 
Q 1195 543 , 1170 543 
Q 1146 543 , 1133 539 
Q 1120 536 , 1120 529 
L 1120 508 
" fill="#D21010" />
<path d="
M 1204 501 
L 1204 489 
L 1175 489 
L 1175 484 
L 1220 484 
L 1220 504 
Q 1209 506 , 1198 507 
Q 1189 508 , 1177 508 
Q 1151 508 , 1135 502 
Q 1120 496 , 1120 485 
Q 1120 475 , 1135 469 
Q 1151 463 , 1177 463 
Q 1188 463 , 1197 464 
Q 1207 465 , 1217 467 
L 1217 472 
Q 1204 470 , 1196 469 
Q 1187 468 , 1178 468 
Q 1157 468 , 1146 473 
Q 1136 477 , 1136 485 
Q 1136 494 , 1146 499 
Q 1157 503 , 1178 503 
Q 1187 503 , 1194 502 
Q 1201 502 , 1204 501 
" fill="#F5C000" />
<path d="
M 1225 553 
L 1234 553 
L 1234 554 
Q 1234 554 , 1238 554 
Q 1241 554 , 1250 554 
Q 1259 554 , 1262 554 
Q 1266 554 , 1266 554 
L 1266 553 
L 1275 553 
L 1275 554 
Q 1275 554 , 1269 554 
Q 1262 554 , 1250 554 
Q 1238 554 , 1231 554 
Q 1225 554 , 1225 554 
L 1225 553 
" fill="lightgray" />
<path d="
M 1317 554 
L 1317 554 
L 1303 554 
L 1303 554 
L 1325 554 
L 1325 554 
Q 1320 554 , 1314 554 
Q 1309 554 , 1303 554 
Q 1290 554 , 1283 554 
Q 1275 554 , 1275 554 
Q 1275 553 , 1283 553 
Q 1290 553 , 1303 553 
Q 1309 553 , 1314 553 
Q 1319 553 , 1324 553 
L 1324 553 
Q 1317 553 , 1313 553 
Q 1309 553 , 1304 553 
Q 1294 553 , 1288 553 
Q 1283 553 , 1283 554 
Q 1283 554 , 1288 554 
Q 1294 554 , 1304 554 
Q 1309 554 , 1312 554 
Q 1316 554 , 1317 554 
" fill="#F5C000" />
<path d="
M 1225 550 
L 1234 550 
L 1234 551 
Q 1234 552 , 1238 552 
Q 1241 552 , 1250 552 
Q 1259 552 , 1262 552 
Q 1266 552 , 1266 551 
L 1266 550 
L 1275 550 
L 1275 552 
Q 1275 552 , 1269 552 
Q 1262 553 , 1250 553 
Q 1238 553 , 1231 552 
Q 1225 552 , 1225 552 
L 1225 550 
" fill="lightgray" />
<path d="
M 1300 550 
L 1291 551 
L 1308 551 
L 1300 550 
M 1296 550 
L 1304 550 
L 1325 553 
L 1317 553 
L 1311 552 
L 1289 552 
L 1282 553 
L 1275 553 
L 1296 550 
" fill="#339541" />
<path d="
M 1267 549 
L 1267 547 
L 1253 547 
L 1253 547 
L 1275 547 
L 1275 549 
Q 1270 549 , 1264 549 
Q 1259 549 , 1253 550 
Q 1240 550 , 1233 549 
Q 1225 548 , 1225 547 
Q 1225 545 , 1233 545 
Q 1240 544 , 1253 544 
Q 1259 544 , 1264 544 
Q 1269 544 , 1274 544 
L 1274 545 
Q 1267 545 , 1263 545 
Q 1259 545 , 1254 545 
Q 1244 545 , 1238 545 
Q 1233 546 , 1233 547 
Q 1233 548 , 1238 548 
Q 1244 549 , 1254 549 
Q 1259 549 , 1262 549 
Q 1266 549 , 1267 549 
" fill="lightgray" />
<path d="
M 1275 544 
L 1284 544 
L 1284 547 
Q 1284 548 , 1288 549 
Q 1291 549 , 1300 549 
Q 1309 549 , 1312 549 
Q 1316 548 , 1316 547 
L 1316 544 
L 1325 544 
L 1325 547 
Q 1325 548 , 1319 549 
Q 1312 550 , 1300 550 
Q 1288 550 , 1281 549 
Q 1275 548 , 1275 547 
L 1275 544 
" fill="#D21010" />
<path d="
M 1250 537 
L 1241 541 
L 1258 541 
L 1250 537 
M 1246 536 
L 1254 536 
L 1275 544 
L 1267 544 
L 1261 541 
L 1239 541 
L 1232 544 
L 1225 544 
L 1246 536 
" fill="lightgray" />
<path d="
M 1275 536 
L 1284 536 
L 1284 541 
Q 1284 542 , 1288 542 
Q 1291 543 , 1300 543 
Q 1309 543 , 1312 542 
Q 1316 542 , 1316 541 
L 1316 536 
L 1325 536 
L 1325 541 
Q 1325 542 , 1319 543 
Q 1312 544 , 1300 544 
Q 1288 544 , 1281 543 
Q 1275 542 , 1275 541 
L 1275 536 
" fill="#D21010" />
<path d="
M 1275 472 
L 1275 483 
Q 1268 476 , 1264 474 
Q 1259 472 , 1254 472 
Q 1244 472 , 1239 479 
Q 1233 486 , 1233 500 
Q 1233 514 , 1239 521 
Q 1244 528 , 1254 528 
Q 1259 528 , 1264 526 
Q 1268 524 , 1275 517 
L 1275 528 
Q 1270 532 , 1264 534 
Q 1260 535 , 1254 535 
Q 1240 535 , 1233 526 
Q 1225 516 , 1225 500 
Q 1225 483 , 1233 474 
Q 1240 464 , 1254 464 
Q 1260 464 , 1265 466 
Q 1270 467 , 1275 472 
" fill="lightgray" />
<path d="
M 1317 525 
L 1317 506 
L 1303 506 
L 1303 498 
L 1325 498 
L 1325 530 
Q 1320 533 , 1314 534 
Q 1309 535 , 1303 535 
Q 1290 535 , 1283 526 
Q 1275 516 , 1275 500 
Q 1275 483 , 1283 474 
Q 1290 464 , 1303 464 
Q 1309 464 , 1314 465 
Q 1319 467 , 1324 470 
L 1324 479 
Q 1317 475 , 1313 474 
Q 1309 473 , 1304 473 
Q 1294 473 , 1288 479 
Q 1283 486 , 1283 500 
Q 1283 514 , 1288 521 
Q 1294 527 , 1304 527 
Q 1309 527 , 1312 527 
Q 1316 526 , 1317 525 
" fill="#F5C000" />
<path d="
M 1267 441 
L 1267 399 
L 1253 399 
L 1253 382 
L 1275 382 
L 1275 451 
Q 1270 458 , 1264 461 
Q 1259 463 , 1253 463 
Q 1240 463 , 1233 442 
Q 1225 422 , 1225 385 
Q 1225 349 , 1233 328 
Q 1240 307 , 1253 307 
Q 1259 307 , 1264 310 
Q 1269 313 , 1274 320 
L 1274 340 
Q 1267 331 , 1263 328 
Q 1259 326 , 1254 326 
Q 1244 326 , 1238 340 
Q 1233 355 , 1233 385 
Q 1233 416 , 1238 431 
Q 1244 446 , 1254 446 
Q 1259 446 , 1262 444 
Q 1266 443 , 1267 441 
" fill="lightgray" />
<path d="
M 1325 324 
L 1325 348 
Q 1318 332 , 1314 328 
Q 1309 324 , 1304 324 
Q 1294 324 , 1289 339 
Q 1283 355 , 1283 385 
Q 1283 416 , 1289 431 
Q 1294 447 , 1304 447 
Q 1309 447 , 1314 443 
Q 1318 438 , 1325 423 
L 1325 448 
Q 1320 456 , 1314 460 
Q 1310 463 , 1304 463 
Q 1290 463 , 1283 442 
Q 1275 421 , 1275 385 
Q 1275 349 , 1283 328 
Q 1290 307 , 1304 307 
Q 1310 307 , 1315 311 
Q 1320 315 , 1325 324 
" fill="#545FFF" />
<path d="
M 1380 554 
L 1362 554 
L 1396 554 
L 1380 554 
M 1373 554 
L 1387 554 
L 1430 554 
L 1414 554 
L 1402 554 
L 1358 554 
L 1345 554 
L 1330 554 
L 1373 554 
" fill="#339541" />
<path d="
M 1330 553 
L 1348 553 
L 1348 553 
Q 1348 553 , 1356 553 
Q 1363 553 , 1380 553 
Q 1397 553 , 1405 553 
Q 1412 553 , 1412 553 
L 1412 553 
L 1430 553 
L 1430 553 
Q 1430 553 , 1417 553 
Q 1405 553 , 1380 553 
Q 1356 553 , 1343 553 
Q 1330 553 , 1330 553 
L 1330 553 
" fill="#D21010" />
<path d="
M 1430 552 
L 1430 552 
Q 1415 552 , 1407 552 
Q 1399 552 , 1389 552 
Q 1368 552 , 1358 552 
Q 1346 552 , 1346 552 
Q 1346 552 , 1358 552 
Q 1368 552 , 1389 552 
Q 1399 552 , 1407 552 
Q 1415 552 , 1430 552 
L 1430 552 
Q 1419 552 , 1409 552 
Q 1399 552 , 1388 552 
Q 1361 552 , 1346 552 
Q 1330 552 , 1330 552 
Q 1330 552 , 1346 552 
Q 1361 552 , 1388 552 
Q 1399 552 , 1409 552 
Q 1420 552 , 1430 552 
" fill="#545FFF" />
<path d="
M 1414 551 
L 1414 551 
L 1385 551 
L 1385 551 
L 1430 551 
L 1430 551 
Q 1419 551 , 1408 551 
Q 1399 551 , 1387 551 
Q 1361 551 , 1345 551 
Q 1330 551 , 1330 551 
Q 1330 551 , 1345 551 
Q 1361 551 , 1387 551 
Q 1398 551 , 1407 551 
Q 1417 551 , 1427 551 
L 1427 551 
Q 1414 551 , 1406 551 
Q 1397 551 , 1388 551 
Q 1367 551 , 1356 551 
Q 1346 551 , 1346 551 
Q 1346 551 , 1356 551 
Q 1367 551 , 1388 551 
Q 1397 551 , 1404 551 
Q 1411 551 , 1414 551 
" fill="#F5C000" />
<path d="M 65 168 L 65 555 " stroke="black" stroke-width="1.5"/>
<path d="M 55 555 L 65 555 " stroke="black" stroke-width="4"/>
<text text-anchor="end" x="50" y="555" font-size="50" alignment-baseline="middle">0</text>
<path d="M 55 362 L 65 362 " stroke="black" stroke-width="4"/>
<text text-anchor="end" x="50" y="362" font-size="50" alignment-baseline="middle">1</text>
<path d="M 55 168 L 65 168 " stroke="black" stroke-width="4"/>
<text text-anchor="end" x="50" y="168" font-size="50" alignment-baseline="middle">2</text>
<text text-anchor="middle" x="750" y="50" font-size="50" alignment-baseline="baseline"></text>
G<path d="
M 160 582 
L 126 595 
L 160 608 
L 157 611 
L 123 598 
L 123 623 
L 117 623 
L 117 599 
L 83 611 
L 80 608 
L 114 595 
L 80 582 
L 83 579 
L 117 591 
L 117 567 
L 123 567 
L 123 591 
L 157 579 
L 160 582 
" fill="black" />
<path d="
" fill="black" />
<path d="
M 211 567 
L 238 567 
L 238 623 
L 211 623 
L 211 567 
" fill="black" />
<path d="
" fill="black" />
<path d="
" fill="black" />
<path d="
M 316 567 
L 343 567 
L 343 623 
L 316 623 
L 316 567 
" fill="black" />
<path d="
" fill="black" />
<path d="
" fill="black" />
<path d="
M 421 567 
L 448 567 
L 448 623 
L 421 623 
L 421 567 
" fill="black" />
<path d="
" fill="black" />
<path d="
M 580 567 
Q 551 574 , 538 581 
Q 525 588 , 525 595 
Q 525 602 , 538 609 
Q 551 616 , 580 623 
L 556 623 
Q 528 616 , 514 609 
Q 500 602 , 500 595 
Q 500 588 , 514 581 
Q 528 574 , 556 567 
L 580 567 
" fill="black" />
<path d="
" fill="black" />
<path d="
M 622 567 
L 642 567 
L 642 623 
L 622 623 
L 622 567 
" fill="black" />
<path d="
" fill="black" />
<path d="
M 687 595 
Q 686 591 , 682 591 
Q 679 591 , 677 595 
Q 675 599 , 675 605 
Q 675 612 , 677 615 
Q 679 619 , 682 619 
Q 686 619 , 687 615 
Q 689 612 , 689 605 
Q 689 599 , 687 595 
M 690 569 
L 690 574 
Q 689 572 , 687 571 
Q 686 571 , 684 571 
Q 678 571 , 676 581 
Q 675 586 , 675 595 
Q 675 593 , 677 590 
Q 679 587 , 682 587 
Q 687 587 , 689 592 
Q 692 597 , 692 604 
Q 692 613 , 689 618 
Q 687 623 , 682 623 
Q 677 623 , 675 616 
Q 672 609 , 672 595 
Q 672 581 , 675 574 
Q 679 567 , 684 567 
Q 686 567 , 687 568 
Q 689 568 , 690 569 
" fill="black" />
<path d="
M 790 582 
L 756 595 
L 790 608 
L 787 611 
L 753 598 
L 753 623 
L 747 623 
L 747 599 
L 713 611 
L 710 608 
L 744 595 
L 710 582 
L 713 579 
L 747 591 
L 747 567 
L 753 567 
L 753 591 
L 787 579 
L 790 582 
" fill="black" />
<path d="
" fill="black" />
<path d="
M 841 567 
L 868 567 
L 868 623 
L 841 623 
L 841 567 
" fill="black" />
<path d="
" fill="black" />
<path d="
" fill="black" />
<path d="
M 946 567 
L 973 567 
L 973 623 
L 946 623 
L 946 567 
" fill="black" />
<path d="
" fill="black" />
<path d="
" fill="black" />
<path d="
M 1051 567 
L 1078 567 
L 1078 623 
L 1051 623 
L 1051 567 
" fill="black" />
<path d="
" fill="black" />
<path d="
" fill="black" />
<path d="
M 1156 567 
L 1183 567 
L 1183 623 
L 1156 623 
L 1156 567 
" fill="black" />
<path d="
" fill="black" />
<path d="
M 1235 567 
L 1259 567 
Q 1287 574 , 1301 581 
Q 1315 588 , 1315 595 
Q 1315 602 , 1301 609 
Q 1287 616 , 1259 623 
L 1235 623 
Q 1264 616 , 1277 609 
Q 1290 602 , 1290 595 
Q 1290 588 , 1277 581 
Q 1264 574 , 1235 567 
" fill="black" />
<path d="
M 1420 582 
L 1386 595 
L 1420 608 
L 1417 611 
L 1383 598 
L 1383 623 
L 1377 623 
L 1377 599 
L 1343 611 
L 1340 608 
L 1374 595 
L 1340 582 
L 1343 579 
L 1377 591 
L 1377 567 
L 1383 567 
L 1383 591 
L 1417 579 
L 1420 582 
" fill="black" />
</svg>
