<svg xmlns="http://www.w3.org/2000/svg"
viewBox="0 0 1435 635">
<path d="
M 70 554 
L 88 554 
L 88 554 
Q 88 554 , 96 554 
Q 103 554 , 120 554 
Q 137 554 , 145 554 
Q 152 554 , 152 554 
L 152 554 
L 170 554 
L 170 554 
Q 170 554 , 157 554 
Q 145 554 , 120 554 
Q 96 554 , 83 554 
Q 70 554 , 70 554 
L 70 554 
" fill="#D21010" />
<path d="
M 170 553 
L 170 553 
Q 155 553 , 147 553 
Q 139 553 , 129 553 
Q 108 553 , 98 553 
Q 86 553 , 86 553 
Q 86 553 , 98 553 
Q 108 553 , 129 553 
Q 139 553 , 147 553 
Q 155 553 , 170 553 
L 170 553 
Q 159 553 , 149 553 
Q 139 553 , 128 553 
Q 101 553 , 86 553 
Q 70 553 , 70 553 
Q 70 553 , 86 553 
Q 101 553 , 128 553 
Q 139 553 , 149 553 
Q 160 553 , 170 553 
" fill="#545FFF" />
<path d="
M 120 552 
L 102 552 
L 136 552 
L 120 552 
M 113 552 
L 127 552 
L 170 552 
L 154 552 
L 142 552 
L 98 552 
L 85 552 
L 70 552 
L 113 552 
" fill="#339541" />
<path d="
M 154 551 
L 154 551 
L 125 551 
L 125 551 
L 170 551 
L 170 551 
Q 159 551 , 148 551 
Q 139 551 , 127 551 
Q 101 551 , 85 551 
Q 70 551 , 70 551 
Q 70 551 , 85 551 
Q 101 551 , 127 551 
Q 138 551 , 147 551 
Q 157 551 , 167 551 
L 167 551 
Q 154 551 , 146 551 
Q 137 551 , 128 551 
Q 107 551 , 96 551 
Q 86 551 , 86 551 
Q 86 551 , 96 551 
Q 107 551 , 128 551 
Q 137 551 , 144 551 
Q 151 551 , 154 551 
" fill="#F5C000" />
<path d="
M 217 554 
L 217 553 
L 203 553 
L 203 553 
L 225 553 
L 225 554 
Q 220 554 , 214 554 
Q 209 554 , 203 554 
Q 190 554 , 183 554 
Q 175 554 , 175 553 
Q 175 553 , 183 552 
Q 190 552 , 203 552 
Q 209 552 , 214 552 
Q 219 552 , 224 552 
L 224 553 
Q 217 552 , 213 552 
Q 209 552 , 204 552 
Q 194 552 , 188 553 
Q 183 553 , 183 553 
Q 183 554 , 188 554 
Q 194 554 , 204 554 
Q 209 554 , 212 554 
Q 216 554 , 217 554 
" fill="#F5C000" />
<path d="
M 225 552 
L 234 552 
L 234 553 
Q 234 554 , 238 554 
Q 241 554 , 250 554 
Q 259 554 , 262 554 
Q 266 554 , 266 553 
L 266 552 
L 275 552 
L 275 553 
Q 275 554 , 269 554 
Q 262 554 , 250 554 
Q 238 554 , 231 554 
Q 225 554 , 225 553 
L 225 552 
" fill="lightgray" />
<path d="
M 200 546 
L 191 549 
L 208 549 
L 200 546 
M 196 545 
L 204 545 
L 225 552 
L 217 552 
L 211 550 
L 189 550 
L 182 552 
L 175 552 
L 196 545 
" fill="#339541" />
<path d="
M 225 545 
L 234 545 
L 234 549 
Q 234 550 , 238 550 
Q 241 551 , 250 551 
Q 259 551 , 262 550 
Q 266 550 , 266 549 
L 266 545 
L 275 545 
L 275 549 
Q 275 550 , 269 551 
Q 262 552 , 250 552 
Q 238 552 , 231 551 
Q 225 550 , 225 549 
L 225 545 
" fill="lightgray" />
<path d="
M 175 537 
L 184 537 
L 184 542 
Q 184 543 , 188 544 
Q 191 544 , 200 544 
Q 209 544 , 212 544 
Q 216 543 , 216 542 
L 216 537 
L 225 537 
L 225 542 
Q 225 543 , 219 544 
Q 212 545 , 200 545 
Q 188 545 , 181 544 
Q 175 543 , 175 542 
L 175 537 
" fill="#D21010" />
<path d="
M 250 538 
L 241 542 
L 258 542 
L 250 538 
M 246 537 
L 254 537 
L 275 545 
L 267 545 
L 261 543 
L 239 543 
L 232 545 
L 225 545 
L 246 537 
" fill="lightgray" />
<path d="
M 175 526 
L 184 526 
L 184 532 
Q 184 534 , 188 535 
Q 191 536 , 200 536 
Q 209 536 , 212 535 
Q 216 534 , 216 532 
L 216 526 
L 225 526 
L 225 533 
Q 225 535 , 219 536 
Q 212 537 , 200 537 
Q 188 537 , 181 536 
Q 175 535 , 175 533 
L 175 526 
" fill="#D21010" />
<path d="
M 267 535 
L 267 532 
L 253 532 
L 253 531 
L 275 531 
L 275 536 
Q 270 536 , 264 537 
Q 259 537 , 253 537 
Q 240 537 , 233 535 
Q 225 534 , 225 531 
Q 225 529 , 233 527 
Q 240 526 , 253 526 
Q 259 526 , 264 526 
Q 269 526 , 274 527 
L 274 528 
Q 267 528 , 263 527 
Q 259 527 , 254 527 
Q 244 527 , 238 528 
Q 233 529 , 233 531 
Q 233 534 , 238 535 
Q 244 536 , 254 536 
Q 259 536 , 262 535 
Q 266 535 , 267 535 
" fill="lightgray" />
<path d="
M 225 490 
L 225 496 
Q 218 492 , 214 491 
Q 209 490 , 204 490 
Q 194 490 , 189 494 
Q 183 498 , 183 506 
Q 183 514 , 189 518 
Q 194 522 , 204 522 
Q 209 522 , 214 521 
Q 218 519 , 225 515 
L 225 522 
Q 220 524 , 214 525 
Q 210 526 , 204 526 
Q 190 526 , 183 520 
Q 175 515 , 175 506 
Q 175 497 , 183 491 
Q 190 486 , 204 486 
Q 210 486 , 215 487 
Q 220 488 , 225 490 
" fill="#545FFF" />
<path d="
M 267 520 
L 267 509 
L 253 509 
L 253 505 
L 275 505 
L 275 523 
Q 270 524 , 264 525 
Q 259 526 , 253 526 
Q 240 526 , 233 520 
Q 225 515 , 225 506 
Q 225 497 , 233 491 
Q 240 486 , 253 486 
Q 259 486 , 264 487 
Q 269 487 , 274 489 
L 274 494 
Q 267 492 , 263 491 
Q 259 491 , 254 491 
Q 244 491 , 238 494 
Q 233 498 , 233 506 
Q 233 514 , 238 518 
Q 244 521 , 254 521 
Q 259 521 , 262 521 
Q 266 521 , 267 520 
" fill="lightgray" />
<path d="
M 217 478 
L 217 464 
L 203 464 
L 203 459 
L 225 459 
L 225 482 
Q 220 484 , 214 485 
Q 209 486 , 203 486 
Q 190 486 , 183 479 
Q 175 472 , 175 460 
Q 175 448 , 183 441 
Q 190 434 , 203 434 
Q 209 434 , 214 435 
Q 219 436 , 224 438 
L 224 445 
Q 217 442 , 213 441 
Q 209 440 , 204 440 
Q 194 440 , 188 445 
Q 183 450 , 183 460 
Q 183 470 , 188 475 
Q 194 480 , 204 480 
Q 209 480 , 212 479 
Q 216 479 , 217 478 
" fill="#F5C000" />
<path d="
M 275 440 
L 275 447 
Q 268 442 , 264 441 
Q 259 440 , 254 440 
Q 244 440 , 239 445 
Q 233 450 , 233 460 
Q 233 470 , 239 475 
Q 244 480 , 254 480 
Q 259 480 , 264 479 
Q 268 477 , 275 472 
L 275 480 
Q 270 483 , 264 485 
Q 260 486 , 254 486 
Q 240 486 , 233 479 
Q 225 472 , 225 460 
Q 225 448 , 233 441 
Q 240 434 , 254 434 
Q 260 434 , 265 435 
Q 270 437 , 275 440 
" fill="lightgray" />
<path d="
M 364 554 
L 364 553 
L 335 553 
L 335 553 
L 380 553 
L 380 554 
Q 369 554 , 358 554 
Q 349 554 , 337 554 
Q 311 554 , 295 554 
Q 280 554 , 280 553 
Q 280 553 , 295 552 
Q 311 552 , 337 552 
Q 348 552 , 357 552 
Q 367 552 , 377 552 
L 377 552 
Q 364 552 , 356 552 
Q 347 552 , 338 552 
Q 317 552 , 306 552 
Q 296 553 , 296 553 
Q 296 554 , 306 554 
Q 317 554 , 338 554 
Q 347 554 , 354 554 
Q 361 554 , 364 554 
" fill="#F5C000" />
<path d="
M 330 545 
L 312 549 
L 346 549 
L 330 545 
M 323 544 
L 337 544 
L 380 552 
L 364 552 
L 352 550 
L 308 550 
L 295 552 
L 280 552 
L 323 544 
" fill="#339541" />
<path d="
M 280 535 
L 298 535 
L 298 540 
Q 298 542 , 306 542 
Q 313 543 , 330 543 
Q 347 543 , 355 542 
Q 362 542 , 362 540 
L 362 535 
L 380 535 
L 380 540 
Q 380 542 , 367 543 
Q 355 544 , 330 544 
Q 306 544 , 293 543 
Q 280 542 , 280 540 
L 280 535 
" fill="#D21010" />
<path d="
M 380 526 
L 380 527 
Q 365 527 , 357 526 
Q 349 526 , 339 526 
Q 318 526 , 308 527 
Q 296 528 , 296 530 
Q 296 532 , 308 533 
Q 318 533 , 339 533 
Q 349 533 , 357 533 
Q 365 533 , 380 532 
L 380 534 
Q 369 534 , 359 534 
Q 349 535 , 338 535 
Q 311 535 , 296 533 
Q 280 532 , 280 530 
Q 280 528 , 296 526 
Q 311 525 , 338 525 
Q 349 525 , 359 525 
Q 370 525 , 380 526 
" fill="#545FFF" />
<path d="
M 427 554 
L 427 553 
L 413 553 
L 413 553 
L 435 553 
L 435 554 
Q 430 554 , 424 554 
Q 419 555 , 413 555 
Q 400 555 , 393 554 
Q 385 554 , 385 553 
Q 385 553 , 393 552 
Q 400 552 , 413 552 
Q 419 552 , 424 552 
Q 429 552 , 434 552 
L 434 553 
Q 427 552 , 423 552 
Q 419 552 , 414 552 
Q 404 552 , 398 553 
Q 393 553 , 393 553 
Q 393 554 , 398 554 
Q 404 554 , 414 554 
Q 419 554 , 422 554 
Q 426 554 , 427 554 
" fill="#F5C000" />
<path d="
M 435 552 
L 444 552 
L 444 553 
Q 444 554 , 448 554 
Q 451 554 , 460 554 
Q 469 554 , 472 554 
Q 476 554 , 476 553 
L 476 552 
L 485 552 
L 485 554 
Q 485 554 , 479 554 
Q 472 555 , 460 555 
Q 448 555 , 441 554 
Q 435 554 , 435 554 
L 435 552 
" fill="lightgray" />
<path d="
M 385 547 
L 394 547 
L 394 550 
Q 394 551 , 398 551 
Q 401 551 , 410 551 
Q 419 551 , 422 551 
Q 426 551 , 426 550 
L 426 547 
L 435 547 
L 435 550 
Q 435 551 , 429 551 
Q 422 552 , 410 552 
Q 398 552 , 391 551 
Q 385 551 , 385 550 
L 385 547 
" fill="#D21010" />
<path d="
M 460 548 
L 451 550 
L 468 550 
L 460 548 
M 456 547 
L 464 547 
L 485 552 
L 477 552 
L 471 551 
L 449 551 
L 442 552 
L 435 552 
L 456 547 
" fill="lightgray" />
<path d="
M 385 534 
L 394 534 
L 394 541 
Q 394 543 , 398 544 
Q 401 545 , 410 545 
Q 419 545 , 422 544 
Q 426 543 , 426 541 
L 426 534 
L 435 534 
L 435 541 
Q 435 544 , 429 545 
Q 422 546 , 410 546 
Q 398 546 , 391 545 
Q 385 544 , 385 541 
L 385 534 
" fill="#D21010" />
<path d="
M 477 544 
L 477 541 
L 463 541 
L 463 540 
L 485 540 
L 485 545 
Q 480 546 , 474 546 
Q 469 546 , 463 546 
Q 450 546 , 443 544 
Q 435 543 , 435 540 
Q 435 537 , 443 536 
Q 450 534 , 463 534 
Q 469 534 , 474 534 
Q 479 534 , 484 535 
L 484 537 
Q 477 536 , 473 536 
Q 469 535 , 464 535 
Q 454 535 , 448 537 
Q 443 538 , 443 540 
Q 443 542 , 448 544 
Q 454 545 , 464 545 
Q 469 545 , 472 545 
Q 476 545 , 477 544 
" fill="lightgray" />
<path d="
M 410 521 
L 401 527 
L 418 527 
L 410 521 
M 406 518 
L 414 518 
L 435 534 
L 427 534 
L 421 529 
L 399 529 
L 392 534 
L 385 534 
L 406 518 
" fill="#339541" />
<path d="
M 435 518 
L 444 518 
L 444 527 
Q 444 530 , 448 531 
Q 451 532 , 460 532 
Q 469 532 , 472 531 
Q 476 530 , 476 527 
L 476 518 
L 485 518 
L 485 528 
Q 485 531 , 479 532 
Q 472 534 , 460 534 
Q 448 534 , 441 532 
Q 435 531 , 435 528 
L 435 518 
" fill="lightgray" />
<path d="
M 435 493 
L 435 497 
Q 428 494 , 424 494 
Q 419 493 , 414 493 
Q 404 493 , 399 496 
Q 393 498 , 393 503 
Q 393 509 , 399 512 
Q 404 514 , 414 514 
Q 419 514 , 424 514 
Q 428 513 , 435 510 
L 435 515 
Q 430 516 , 424 517 
Q 420 517 , 414 517 
Q 400 517 , 393 514 
Q 385 510 , 385 504 
Q 385 497 , 393 494 
Q 400 490 , 414 490 
Q 420 490 , 425 491 
Q 430 491 , 435 493 
" fill="#545FFF" />
<path d="
M 477 513 
L 477 506 
L 463 506 
L 463 503 
L 485 503 
L 485 515 
Q 480 516 , 474 517 
Q 469 517 , 463 517 
Q 450 517 , 443 514 
Q 435 510 , 435 504 
Q 435 497 , 443 494 
Q 450 490 , 463 490 
Q 469 490 , 474 490 
Q 479 491 , 484 492 
L 484 496 
Q 477 494 , 473 494 
Q 469 493 , 464 493 
Q 454 493 , 448 496 
Q 443 498 , 443 504 
Q 443 509 , 448 512 
Q 454 514 , 464 514 
Q 469 514 , 472 514 
Q 476 514 , 477 513 
" fill="lightgray" />
<path d="
M 427 464 
L 427 416 
L 413 416 
L 413 396 
L 435 396 
L 435 476 
Q 430 483 , 424 486 
Q 419 489 , 413 490 
Q 400 490 , 393 466 
Q 385 442 , 385 400 
Q 385 359 , 393 335 
Q 400 311 , 413 311 
Q 419 311 , 424 314 
Q 429 317 , 434 325 
L 434 348 
Q 427 338 , 423 335 
Q 419 332 , 414 332 
Q 404 332 , 398 349 
Q 393 366 , 393 400 
Q 393 435 , 398 453 
Q 404 470 , 414 470 
Q 419 470 , 422 468 
Q 426 466 , 427 464 
" fill="#F5C000" />
<path d="
M 485 330 
L 485 357 
Q 478 340 , 474 335 
Q 469 331 , 464 331 
Q 454 331 , 449 348 
Q 443 366 , 443 400 
Q 443 435 , 449 453 
Q 454 470 , 464 470 
Q 469 470 , 474 466 
Q 478 461 , 485 443 
L 485 471 
Q 480 481 , 474 485 
Q 470 490 , 464 490 
Q 450 490 , 443 465 
Q 435 441 , 435 400 
Q 435 359 , 443 335 
Q 450 311 , 464 311 
Q 470 311 , 475 315 
Q 480 320 , 485 330 
" fill="lightgray" />
<path d="
M 490 552 
L 508 552 
L 508 553 
Q 508 554 , 516 554 
Q 523 554 , 540 554 
Q 557 554 , 565 554 
Q 572 554 , 572 553 
L 572 552 
L 590 552 
L 590 554 
Q 590 554 , 577 554 
Q 565 555 , 540 555 
Q 516 555 , 503 554 
Q 490 554 , 490 554 
L 490 552 
" fill="#D21010" />
<path d="
M 540 543 
L 522 547 
L 556 547 
L 540 543 
M 533 541 
L 547 541 
L 590 551 
L 574 551 
L 562 548 
L 518 548 
L 505 551 
L 490 551 
L 533 541 
" fill="#339541" />
<path d="
M 590 510 
L 590 515 
Q 575 512 , 567 511 
Q 559 510 , 549 510 
Q 528 510 , 518 513 
Q 506 516 , 506 523 
Q 506 530 , 518 533 
Q 528 536 , 549 536 
Q 559 536 , 567 536 
Q 575 535 , 590 531 
L 590 537 
Q 579 539 , 569 539 
Q 559 540 , 548 540 
Q 521 540 , 506 536 
Q 490 531 , 490 523 
Q 490 515 , 506 511 
Q 521 506 , 548 506 
Q 559 506 , 569 507 
Q 580 508 , 590 510 
" fill="#545FFF" />
<path d="
M 574 498 
L 574 484 
L 545 484 
L 545 478 
L 590 478 
L 590 501 
Q 579 503 , 568 504 
Q 559 505 , 547 505 
Q 521 505 , 505 498 
Q 490 491 , 490 479 
Q 490 467 , 505 460 
Q 521 453 , 547 453 
Q 558 453 , 567 454 
Q 577 455 , 587 457 
L 587 464 
Q 574 461 , 566 460 
Q 557 459 , 548 459 
Q 527 459 , 516 464 
Q 506 469 , 506 479 
Q 506 489 , 516 494 
Q 527 499 , 548 499 
Q 557 499 , 564 499 
Q 571 498 , 574 498 
" fill="#F5C000" />
<path d="
M 679 554 
L 679 552 
L 650 552 
L 650 552 
L 695 552 
L 695 554 
Q 684 555 , 673 555 
Q 664 555 , 652 555 
Q 626 555 , 610 554 
Q 595 553 , 595 552 
Q 595 551 , 610 550 
Q 626 549 , 652 549 
Q 663 549 , 672 549 
Q 682 549 , 692 549 
L 692 550 
Q 679 550 , 671 550 
Q 662 550 , 653 550 
Q 632 550 , 621 550 
Q 611 551 , 611 552 
Q 611 553 , 621 554 
Q 632 554 , 653 554 
Q 662 554 , 669 554 
Q 676 554 , 679 554 
" fill="#F5C000" />
<path d="
M 695 543 
L 695 544 
Q 680 543 , 672 543 
Q 664 543 , 654 543 
Q 633 543 , 623 543 
Q 611 544 , 611 545 
Q 611 546 , 623 547 
Q 633 547 , 654 547 
Q 664 547 , 672 547 
Q 680 547 , 695 546 
L 695 547 
Q 684 548 , 674 548 
Q 664 548 , 653 548 
Q 626 548 , 611 547 
Q 595 546 , 595 545 
Q 595 544 , 611 543 
Q 626 542 , 653 542 
Q 664 542 , 674 542 
Q 685 542 , 695 543 
" fill="#545FFF" />
<path d="
M 595 527 
L 613 527 
L 613 536 
Q 613 538 , 621 539 
Q 628 540 , 645 540 
Q 662 540 , 670 539 
Q 677 538 , 677 536 
L 677 527 
L 695 527 
L 695 536 
Q 695 539 , 682 540 
Q 670 542 , 645 542 
Q 621 542 , 608 540 
Q 595 539 , 595 536 
L 595 527 
" fill="#D21010" />
<path d="
M 645 505 
L 627 516 
L 661 516 
L 645 505 
M 638 500 
L 652 500 
L 695 526 
L 679 526 
L 667 519 
L 623 519 
L 610 526 
L 595 526 
L 638 500 
" fill="#339541" />
<path d="
M 700 554 
L 718 554 
L 718 554 
Q 718 554 , 726 554 
Q 733 554 , 750 554 
Q 767 554 , 775 554 
Q 782 554 , 782 554 
L 782 554 
L 800 554 
L 800 554 
Q 800 554 , 787 554 
Q 775 554 , 750 554 
Q 726 554 , 713 554 
Q 700 554 , 700 554 
L 700 554 
" fill="#D21010" />
<path d="
M 800 553 
L 800 553 
Q 785 553 , 777 553 
Q 769 553 , 759 553 
Q 738 553 , 728 553 
Q 716 553 , 716 553 
Q 716 553 , 728 553 
Q 738 553 , 759 553 
Q 769 553 , 777 553 
Q 785 553 , 800 553 
L 800 553 
Q 789 553 , 779 553 
Q 769 553 , 758 553 
Q 731 553 , 716 553 
Q 700 553 , 700 553 
Q 700 553 , 716 553 
Q 731 553 , 758 553 
Q 769 553 , 779 553 
Q 790 553 , 800 553 
" fill="#545FFF" />
<path d="
M 750 552 
L 732 552 
L 766 552 
L 750 552 
M 743 552 
L 757 552 
L 800 552 
L 784 552 
L 772 552 
L 728 552 
L 715 552 
L 700 552 
L 743 552 
" fill="#339541" />
<path d="
M 784 551 
L 784 551 
L 755 551 
L 755 551 
L 800 551 
L 800 551 
Q 789 551 , 778 551 
Q 769 551 , 757 551 
Q 731 551 , 715 551 
Q 700 551 , 700 551 
Q 700 551 , 715 551 
Q 731 551 , 757 551 
Q 768 551 , 777 551 
Q 787 551 , 797 551 
L 797 551 
Q 784 551 , 776 551 
Q 767 551 , 758 551 
Q 737 551 , 726 551 
Q 716 551 , 716 551 
Q 716 551 , 726 551 
Q 737 551 , 758 551 
Q 767 551 , 774 551 
Q 781 551 , 784 551 
" fill="#F5C000" />
<path d="
M 855 552 
L 837 554 
L 871 554 
L 855 552 
M 848 552 
L 862 552 
L 905 555 
L 889 555 
L 877 554 
L 833 554 
L 820 555 
L 805 555 
L 848 552 
" fill="#339541" />
<path d="
M 805 547 
L 823 547 
L 823 549 
Q 823 550 , 831 550 
Q 838 551 , 855 551 
Q 872 551 , 880 550 
Q 887 550 , 887 549 
L 887 547 
L 905 547 
L 905 549 
Q 905 550 , 892 551 
Q 880 551 , 855 551 
Q 831 551 , 818 551 
Q 805 550 , 805 549 
L 805 547 
" fill="#D21010" />
<path d="
M 905 542 
L 905 543 
Q 890 542 , 882 542 
Q 874 542 , 864 542 
Q 843 542 , 833 542 
Q 821 543 , 821 544 
Q 821 545 , 833 546 
Q 843 546 , 864 546 
Q 874 546 , 882 546 
Q 890 546 , 905 545 
L 905 546 
Q 894 547 , 884 547 
Q 874 547 , 863 547 
Q 836 547 , 821 546 
Q 805 545 , 805 544 
Q 805 543 , 821 542 
Q 836 541 , 863 541 
Q 874 541 , 884 541 
Q 895 541 , 905 542 
" fill="#545FFF" />
<path d="
M 889 540 
L 889 538 
L 860 538 
L 860 537 
L 905 537 
L 905 540 
Q 894 540 , 883 541 
Q 874 541 , 862 541 
Q 836 541 , 820 540 
Q 805 539 , 805 537 
Q 805 535 , 820 534 
Q 836 533 , 862 533 
Q 873 533 , 882 533 
Q 892 533 , 902 534 
L 902 535 
Q 889 534 , 881 534 
Q 872 534 , 863 534 
Q 842 534 , 831 535 
Q 821 535 , 821 537 
Q 821 538 , 831 539 
Q 842 540 , 863 540 
Q 872 540 , 879 540 
Q 886 540 , 889 540 
" fill="#F5C000" />
<path d="
M 952 554 
L 952 553 
L 938 553 
L 938 553 
L 960 553 
L 960 554 
Q 955 554 , 949 554 
Q 944 555 , 938 555 
Q 925 555 , 918 554 
Q 910 554 , 910 553 
Q 910 553 , 918 552 
Q 925 552 , 938 552 
Q 944 552 , 949 552 
Q 954 552 , 959 552 
L 959 553 
Q 952 552 , 948 552 
Q 944 552 , 939 552 
Q 929 552 , 923 553 
Q 918 553 , 918 553 
Q 918 554 , 923 554 
Q 929 554 , 939 554 
Q 944 554 , 947 554 
Q 951 554 , 952 554 
" fill="lightgray" />
<path d="
M 960 552 
L 969 552 
L 969 553 
Q 969 554 , 973 554 
Q 976 554 , 985 554 
Q 994 554 , 997 554 
Q 1001 554 , 1001 553 
L 1001 552 
L 1010 552 
L 1010 554 
Q 1010 554 , 1004 554 
Q 997 555 , 985 555 
Q 973 555 , 966 554 
Q 960 554 , 960 554 
L 960 552 
" fill="#D21010" />
<path d="
M 910 547 
L 919 547 
L 919 550 
Q 919 551 , 923 551 
Q 926 551 , 935 551 
Q 944 551 , 947 551 
Q 951 551 , 951 550 
L 951 547 
L 960 547 
L 960 550 
Q 960 551 , 954 551 
Q 947 552 , 935 552 
Q 923 552 , 916 551 
Q 910 551 , 910 550 
L 910 547 
" fill="lightgray" />
<path d="
M 985 548 
L 976 550 
L 993 550 
L 985 548 
M 981 547 
L 989 547 
L 1010 552 
L 1002 552 
L 996 551 
L 974 551 
L 967 552 
L 960 552 
L 981 547 
" fill="#339541" />
<path d="
M 910 534 
L 919 534 
L 919 541 
Q 919 543 , 923 544 
Q 926 545 , 935 545 
Q 944 545 , 947 544 
Q 951 543 , 951 541 
L 951 534 
L 960 534 
L 960 541 
Q 960 544 , 954 545 
Q 947 546 , 935 546 
Q 923 546 , 916 545 
Q 910 544 , 910 541 
L 910 534 
" fill="lightgray" />
<path d="
M 1002 544 
L 1002 541 
L 988 541 
L 988 540 
L 1010 540 
L 1010 545 
Q 1005 546 , 999 546 
Q 994 546 , 988 546 
Q 975 546 , 968 544 
Q 960 543 , 960 540 
Q 960 537 , 968 536 
Q 975 534 , 988 534 
Q 994 534 , 999 534 
Q 1004 534 , 1009 535 
L 1009 537 
Q 1002 536 , 998 536 
Q 994 535 , 989 535 
Q 979 535 , 973 537 
Q 968 538 , 968 540 
Q 968 542 , 973 544 
Q 979 545 , 989 545 
Q 994 545 , 997 545 
Q 1001 545 , 1002 544 
" fill="#F5C000" />
<path d="
M 935 521 
L 926 527 
L 943 527 
L 935 521 
M 931 518 
L 939 518 
L 960 534 
L 952 534 
L 946 529 
L 924 529 
L 917 534 
L 910 534 
L 931 518 
" fill="lightgray" />
<path d="
M 960 518 
L 969 518 
L 969 527 
Q 969 530 , 973 531 
Q 976 532 , 985 532 
Q 994 532 , 997 531 
Q 1001 530 , 1001 527 
L 1001 518 
L 1010 518 
L 1010 528 
Q 1010 531 , 1004 532 
Q 997 534 , 985 534 
Q 973 534 , 966 532 
Q 960 531 , 960 528 
L 960 518 
" fill="#D21010" />
<path d="
M 960 493 
L 960 497 
Q 953 494 , 949 494 
Q 944 493 , 939 493 
Q 929 493 , 924 496 
Q 918 498 , 918 503 
Q 918 509 , 924 512 
Q 929 514 , 939 514 
Q 944 514 , 949 514 
Q 953 513 , 960 510 
L 960 515 
Q 955 516 , 949 517 
Q 945 517 , 939 517 
Q 925 517 , 918 514 
Q 910 510 , 910 504 
Q 910 497 , 918 494 
Q 925 490 , 939 490 
Q 945 490 , 950 491 
Q 955 491 , 960 493 
" fill="lightgray" />
<path d="
M 1002 513 
L 1002 506 
L 988 506 
L 988 503 
L 1010 503 
L 1010 515 
Q 1005 516 , 999 517 
Q 994 517 , 988 517 
Q 975 517 , 968 514 
Q 960 510 , 960 504 
Q 960 497 , 968 494 
Q 975 490 , 988 490 
Q 994 490 , 999 490 
Q 1004 491 , 1009 492 
L 1009 496 
Q 1002 494 , 998 494 
Q 994 493 , 989 493 
Q 979 493 , 973 496 
Q 968 498 , 968 504 
Q 968 509 , 973 512 
Q 979 514 , 989 514 
Q 994 514 , 997 514 
Q 1001 514 , 1002 513 
" fill="#F5C000" />
<path d="
M 952 464 
L 952 416 
L 938 416 
L 938 396 
L 960 396 
L 960 476 
Q 955 483 , 949 486 
Q 944 489 , 938 490 
Q 925 490 , 918 466 
Q 910 442 , 910 400 
Q 910 359 , 918 335 
Q 925 311 , 938 311 
Q 944 311 , 949 314 
Q 954 317 , 959 325 
L 959 348 
Q 952 338 , 948 335 
Q 944 332 , 939 332 
Q 929 332 , 923 349 
Q 918 366 , 918 400 
Q 918 435 , 923 453 
Q 929 470 , 939 470 
Q 944 470 , 947 468 
Q 951 466 , 952 464 
" fill="lightgray" />
<path d="
M 1010 330 
L 1010 357 
Q 1003 340 , 999 335 
Q 994 331 , 989 331 
Q 979 331 , 974 348 
Q 968 366 , 968 400 
Q 968 435 , 974 453 
Q 979 470 , 989 470 
Q 994 470 , 999 466 
Q 1003 461 , 1010 443 
L 1010 471 
Q 1005 481 , 999 485 
Q 995 490 , 989 490 
Q 975 490 , 968 465 
Q 960 441 , 960 400 
Q 960 359 , 968 335 
Q 975 311 , 989 311 
Q 995 311 , 1000 315 
Q 1005 320 , 1010 330 
" fill="#545FFF" />
<path d="
M 1115 553 
L 1115 553 
Q 1100 553 , 1092 553 
Q 1084 553 , 1074 553 
Q 1053 553 , 1043 553 
Q 1031 553 , 1031 553 
Q 1031 554 , 1043 554 
Q 1053 554 , 1074 554 
Q 1084 554 , 1092 554 
Q 1100 554 , 1115 554 
L 1115 554 
Q 1104 554 , 1094 554 
Q 1084 554 , 1073 554 
Q 1046 554 , 1031 554 
Q 1015 554 , 1015 554 
Q 1015 553 , 1031 553 
Q 1046 553 , 1073 553 
Q 1084 553 , 1094 553 
Q 1105 553 , 1115 553 
" fill="#545FFF" />
<path d="
M 1015 551 
L 1033 551 
L 1033 552 
Q 1033 552 , 1041 552 
Q 1048 553 , 1065 553 
Q 1082 553 , 1090 552 
Q 1097 552 , 1097 552 
L 1097 551 
L 1115 551 
L 1115 552 
Q 1115 552 , 1102 553 
Q 1090 553 , 1065 553 
Q 1041 553 , 1028 553 
Q 1015 552 , 1015 552 
L 1015 551 
" fill="#D21010" />
<path d="
M 1099 551 
L 1099 550 
L 1070 550 
L 1070 550 
L 1115 550 
L 1115 551 
Q 1104 551 , 1093 551 
Q 1084 551 , 1072 551 
Q 1046 551 , 1030 551 
Q 1015 550 , 1015 550 
Q 1015 550 , 1030 549 
Q 1046 549 , 1072 549 
Q 1083 549 , 1092 549 
Q 1102 549 , 1112 549 
L 1112 549 
Q 1099 549 , 1091 549 
Q 1082 549 , 1073 549 
Q 1052 549 , 1041 549 
Q 1031 550 , 1031 550 
Q 1031 550 , 1041 551 
Q 1052 551 , 1073 551 
Q 1082 551 , 1089 551 
Q 1096 551 , 1099 551 
" fill="#F5C000" />
<path d="
M 1065 546 
L 1047 547 
L 1081 547 
L 1065 546 
M 1058 546 
L 1072 546 
L 1115 548 
L 1099 548 
L 1087 547 
L 1043 547 
L 1030 548 
L 1015 548 
L 1058 546 
" fill="#339541" />
<path d="
M 1120 546 
L 1138 546 
L 1138 551 
Q 1138 552 , 1146 553 
Q 1153 553 , 1170 553 
Q 1187 553 , 1195 553 
Q 1202 552 , 1202 551 
L 1202 546 
L 1220 546 
L 1220 551 
Q 1220 552 , 1207 553 
Q 1195 554 , 1170 554 
Q 1146 554 , 1133 553 
Q 1120 552 , 1120 551 
L 1120 546 
" fill="#D21010" />
<path d="
M 1220 536 
L 1220 538 
Q 1205 537 , 1197 536 
Q 1189 536 , 1179 536 
Q 1158 536 , 1148 537 
Q 1136 538 , 1136 540 
Q 1136 542 , 1148 543 
Q 1158 544 , 1179 544 
Q 1189 544 , 1197 544 
Q 1205 544 , 1220 543 
L 1220 545 
Q 1209 545 , 1199 545 
Q 1189 546 , 1178 546 
Q 1151 546 , 1136 544 
Q 1120 543 , 1120 540 
Q 1120 538 , 1136 536 
Q 1151 535 , 1178 535 
Q 1189 535 , 1199 535 
Q 1210 536 , 1220 536 
" fill="#545FFF" />
<path d="
M 1170 523 
L 1152 528 
L 1186 528 
L 1170 523 
M 1163 520 
L 1177 520 
L 1220 534 
L 1204 534 
L 1192 530 
L 1148 530 
L 1135 534 
L 1120 534 
L 1163 520 
" fill="#339541" />
<path d="
M 1204 512 
L 1204 498 
L 1175 498 
L 1175 492 
L 1220 492 
L 1220 516 
Q 1209 518 , 1198 519 
Q 1189 519 , 1177 520 
Q 1151 520 , 1135 512 
Q 1120 506 , 1120 493 
Q 1120 481 , 1135 474 
Q 1151 467 , 1177 467 
Q 1188 467 , 1197 468 
Q 1207 469 , 1217 471 
L 1217 478 
Q 1204 475 , 1196 474 
Q 1187 473 , 1178 473 
Q 1157 473 , 1146 478 
Q 1136 483 , 1136 493 
Q 1136 504 , 1146 509 
Q 1157 514 , 1178 514 
Q 1187 514 , 1194 513 
Q 1201 513 , 1204 512 
" fill="#F5C000" />
<path d="
M 1267 554 
L 1267 553 
L 1253 553 
L 1253 553 
L 1275 553 
L 1275 554 
Q 1270 554 , 1264 554 
Q 1259 554 , 1253 554 
Q 1240 554 , 1233 554 
Q 1225 554 , 1225 553 
Q 1225 553 , 1233 552 
Q 1240 552 , 1253 552 
Q 1259 552 , 1264 552 
Q 1269 552 , 1274 552 
L 1274 553 
Q 1267 552 , 1263 552 
Q 1259 552 , 1254 552 
Q 1244 552 , 1238 553 
Q 1233 553 , 1233 553 
Q 1233 554 , 1238 554 
Q 1244 554 , 1254 554 
Q 1259 554 , 1262 554 
Q 1266 554 , 1267 554 
" fill="lightgray" />
<path d="
M 1275 552 
L 1284 552 
L 1284 553 
Q 1284 554 , 1288 554 
Q 1291 554 , 1300 554 
Q 1309 554 , 1312 554 
Q 1316 554 , 1316 553 
L 1316 552 
L 1325 552 
L 1325 553 
Q 1325 554 , 1319 554 
Q 1312 554 , 1300 554 
Q 1288 554 , 1281 554 
Q 1275 554 , 1275 553 
L 1275 552 
" fill="#D21010" />
<path d="
M 1250 546 
L 1241 549 
L 1258 549 
L 1250 546 
M 1246 545 
L 1254 545 
L 1275 552 
L 1267 552 
L 1261 550 
L 1239 550 
L 1232 552 
L 1225 552 
L 1246 545 
" fill="lightgray" />
<path d="
M 1275 545 
L 1284 545 
L 1284 549 
Q 1284 550 , 1288 550 
Q 1291 551 , 1300 551 
Q 1309 551 , 1312 550 
Q 1316 550 , 1316 549 
L 1316 545 
L 1325 545 
L 1325 549 
Q 1325 550 , 1319 551 
Q 1312 552 , 1300 552 
Q 1288 552 , 1281 551 
Q 1275 550 , 1275 549 
L 1275 545 
" fill="#D21010" />
<path d="
M 1225 537 
L 1234 537 
L 1234 542 
Q 1234 543 , 1238 544 
Q 1241 544 , 1250 544 
Q 1259 544 , 1262 544 
Q 1266 543 , 1266 542 
L 1266 537 
L 1275 537 
L 1275 542 
Q 1275 543 , 1269 544 
Q 1262 545 , 1250 545 
Q 1238 545 , 1231 544 
Q 1225 543 , 1225 542 
L 1225 537 
" fill="lightgray" />
<path d="
M 1300 538 
L 1291 542 
L 1308 542 
L 1300 538 
M 1296 537 
L 1304 537 
L 1325 545 
L 1317 545 
L 1311 543 
L 1289 543 
L 1282 545 
L 1275 545 
L 1296 537 
" fill="#339541" />
<path d="
M 1225 526 
L 1234 526 
L 1234 532 
Q 1234 534 , 1238 535 
Q 1241 536 , 1250 536 
Q 1259 536 , 1262 535 
Q 1266 534 , 1266 532 
L 1266 526 
L 1275 526 
L 1275 533 
Q 1275 535 , 1269 536 
Q 1262 537 , 1250 537 
Q 1238 537 , 1231 536 
Q 1225 535 , 1225 533 
L 1225 526 
" fill="lightgray" />
<path d="
M 1317 535 
L 1317 532 
L 1303 532 
L 1303 531 
L 1325 531 
L 1325 536 
Q 1320 536 , 1314 537 
Q 1309 537 , 1303 537 
Q 1290 537 , 1283 535 
Q 1275 534 , 1275 531 
Q 1275 529 , 1283 527 
Q 1290 526 , 1303 526 
Q 1309 526 , 1314 526 
Q 1319 526 , 1324 527 
L 1324 528 
Q 1317 528 , 1313 527 
Q 1309 527 , 1304 527 
Q 1294 527 , 1288 528 
Q 1283 529 , 1283 531 
Q 1283 534 , 1288 535 
Q 1294 536 , 1304 536 
Q 1309 536 , 1312 535 
Q 1316 535 , 1317 535 
" fill="#F5C000" />
<path d="
M 1275 490 
L 1275 496 
Q 1268 492 , 1264 491 
Q 1259 490 , 1254 490 
Q 1244 490 , 1239 494 
Q 1233 498 , 1233 506 
Q 1233 514 , 1239 518 
Q 1244 522 , 1254 522 
Q 1259 522 , 1264 521 
Q 1268 519 , 1275 515 
L 1275 522 
Q 1270 524 , 1264 525 
Q 1260 526 , 1254 526 
Q 1240 526 , 1233 520 
Q 1225 515 , 1225 506 
Q 1225 497 , 1233 491 
Q 1240 486 , 1254 486 
Q 1260 486 , 1265 487 
Q 1270 488 , 1275 490 
" fill="lightgray" />
<path d="
M 1317 520 
L 1317 509 
L 1303 509 
L 1303 505 
L 1325 505 
L 1325 523 
Q 1320 524 , 1314 525 
Q 1309 526 , 1303 526 
Q 1290 526 , 1283 520 
Q 1275 515 , 1275 506 
Q 1275 497 , 1283 491 
Q 1290 486 , 1303 486 
Q 1309 486 , 1314 487 
Q 1319 487 , 1324 489 
L 1324 494 
Q 1317 492 , 1313 491 
Q 1309 491 , 1304 491 
Q 1294 491 , 1288 494 
Q 1283 498 , 1283 506 
Q 1283 514 , 1288 518 
Q 1294 521 , 1304 521 
Q 1309 521 , 1312 521 
Q 1316 521 , 1317 520 
" fill="#F5C000" />
<path d="
M 1267 478 
L 1267 464 
L 1253 464 
L 1253 459 
L 1275 459 
L 1275 482 
Q 1270 484 , 1264 485 
Q 1259 486 , 1253 486 
Q 1240 486 , 1233 479 
Q 1225 472 , 1225 460 
Q 1225 448 , 1233 441 
Q 1240 434 , 1253 434 
Q 1259 434 , 1264 435 
Q 1269 436 , 1274 438 
L 1274 445 
Q 1267 442 , 1263 441 
Q 1259 440 , 1254 440 
Q 1244 440 , 1238 445 
Q 1233 450 , 1233 460 
Q 1233 470 , 1238 475 
Q 1244 480 , 1254 480 
Q 1259 480 , 1262 479 
Q 1266 479 , 1267 478 
" fill="lightgray" />
<path d="
M 1325 440 
L 1325 447 
Q 1318 442 , 1314 441 
Q 1309 440 , 1304 440 
Q 1294 440 , 1289 445 
Q 1283 450 , 1283 460 
Q 1283 470 , 1289 475 
Q 1294 480 , 1304 480 
Q 1309 480 , 1314 479 
Q 1318 477 , 1325 472 
L 1325 480 
Q 1320 483 , 1314 485 
Q 1310 486 , 1304 486 
Q 1290 486 , 1283 479 
Q 1275 472 , 1275 460 
Q 1275 448 , 1283 441 
Q 1290 434 , 1304 434 
Q 1310 434 , 1315 435 
Q 1320 437 , 1325 440 
" fill="#545FFF" />
<path d="
M 1330 554 
L 1348 554 
L 1348 554 
Q 1348 554 , 1356 554 
Q 1363 554 , 1380 554 
Q 1397 554 , 1405 554 
Q 1412 554 , 1412 554 
L 1412 554 
L 1430 554 
L 1430 554 
Q 1430 554 , 1417 554 
Q 1405 554 , 1380 554 
Q 1356 554 , 1343 554 
Q 1330 554 , 1330 554 
L 1330 554 
" fill="#D21010" />
<path d="
M 1430 553 
L 1430 553 
Q 1415 553 , 1407 553 
Q 1399 553 , 1389 553 
Q 1368 553 , 1358 553 
Q 1346 553 , 1346 553 
Q 1346 553 , 1358 553 
Q 1368 553 , 1389 553 
Q 1399 553 , 1407 553 
Q 1415 553 , 1430 553 
L 1430 553 
Q 1419 553 , 1409 553 
Q 1399 553 , 1388 553 
Q 1361 553 , 1346 553 
Q 1330 553 , 1330 553 
Q 1330 553 , 1346 553 
Q 1361 553 , 1388 553 
Q 1399 553 , 1409 553 
Q 1420 553 , 1430 553 
" fill="#545FFF" />
<path d="
M 1380 552 
L 1362 552 
L 1396 552 
L 1380 552 
M 1373 552 
L 1387 552 
L 1430 552 
L 1414 552 
L 1402 552 
L 1358 552 
L 1345 552 
L 1330 552 
L 1373 552 
" fill="#339541" />
<path d="
M 1414 551 
L 1414 551 
L 1385 551 
L 1385 551 
L 1430 551 
L 1430 551 
Q 1419 551 , 1408 551 
Q 1399 551 , 1387 551 
Q 1361 551 , 1345 551 
Q 1330 551 , 1330 551 
Q 1330 551 , 1345 551 
Q 1361 551 , 1387 551 
Q 1398 551 , 1407 551 
Q 1417 551 , 1427 551 
L 1427 551 
Q 1414 551 , 1406 551 
Q 1397 551 , 1388 551 
Q 1367 551 , 1356 551 
Q 1346 551 , 1346 551 
Q 1346 551 , 1356 551 
Q 1367 551 , 1388 551 
Q 1397 551 , 1404 551 
Q 1411 551 , 1414 551 
" fill="#F5C000" />
<path d="M 65 168 L 65 555 " stroke="black" stroke-width="1.5"/>
<path d="M 55 555 L 65 555 " stroke="black" stroke-width="4"/>
<text text-anchor="end" x="50" y="555" font-size="50" alignment-baseline="middle">0</text>
<path d="M 55 362 L 65 362 " stroke="black" stroke-width="4"/>
<text text-anchor="end" x="50" y="362" font-size="50" alignment-baseline="middle">1</text>
<path d="M 55 168 L 65 168 " stroke="black" stroke-width="4"/>
<text text-anchor="end" x="50" y="168" font-size="50" alignment-baseline="middle">2</text>
<text text-anchor="middle" x="750" y="50" font-size="50" alignment-baseline="baseline"></text>
G<path d="
M 160 582 
L 126 595 
L 160 608 
L 157 611 
L 123 598 
L 123 623 
L 117 623 
L 117 599 
L 83 611 
L 80 608 
L 114 595 
L 80 582 
L 83 579 
L 117 591 
L 117 567 
L 123 567 
L 123 591 
L 157 579 
L 160 582 
" fill="black" />
<path d="
M 265 567 
Q 236 574 , 223 581 
Q 210 588 , 210 595 
Q 210 602 , 223 609 
Q 236 616 , 265 623 
L 241 623 
Q 213 616 , 199 609 
Q 185 602 , 185 595 
Q 185 588 , 199 581 
Q 213 574 , 241 567 
L 265 567 
" fill="black" />
<path d="
" fill="black" />
<path d="
M 316 567 
L 343 567 
L 343 623 
L 316 623 
L 316 567 
" fill="black" />
<path d="
" fill="black" />
<path d="
M 475 567 
Q 446 574 , 433 581 
Q 420 588 , 420 595 
Q 420 602 , 433 609 
Q 446 616 , 475 623 
L 451 623 
Q 423 616 , 409 609 
Q 395 602 , 395 595 
Q 395 588 , 409 581 
Q 423 574 , 451 567 
L 475 567 
" fill="black" />
<path d="
" fill="black" />
<path d="
M 526 567 
L 553 567 
L 553 623 
L 526 623 
L 526 567 
" fill="black" />
<path d="
" fill="black" />
<path d="
" fill="black" />
<path d="
M 622 567 
L 642 567 
L 642 623 
L 622 623 
L 622 567 
" fill="black" />
<path d="
" fill="black" />
<path d="
M 672 567 
L 692 567 
L 692 571 
L 680 623 
L 677 623 
L 689 571 
L 672 571 
L 672 567 
" fill="black" />
<path d="
M 790 582 
L 756 595 
L 790 608 
L 787 611 
L 753 598 
L 753 623 
L 747 623 
L 747 599 
L 713 611 
L 710 608 
L 744 595 
L 710 582 
L 713 579 
L 747 591 
L 747 567 
L 753 567 
L 753 591 
L 787 579 
L 790 582 
" fill="black" />
<path d="
" fill="black" />
<path d="
M 841 567 
L 868 567 
L 868 623 
L 841 623 
L 841 567 
" fill="black" />
<path d="
" fill="black" />
<path d="
M 920 567 
L 944 567 
Q 972 574 , 986 581 
Q 1000 588 , 1000 595 
Q 1000 602 , 986 609 
Q 972 616 , 944 623 
L 920 623 
Q 949 616 , 962 609 
Q 975 602 , 975 595 
Q 975 588 , 962 581 
Q 949 574 , 920 567 
" fill="black" />
<path d="
" fill="black" />
<path d="
M 1051 567 
L 1078 567 
L 1078 623 
L 1051 623 
L 1051 567 
" fill="black" />
<path d="
" fill="black" />
<path d="
" fill="black" />
<path d="
M 1156 567 
L 1183 567 
L 1183 623 
L 1156 623 
L 1156 567 
" fill="black" />
<path d="
" fill="black" />
<path d="
M 1235 567 
L 1259 567 
Q 1287 574 , 1301 581 
Q 1315 588 , 1315 595 
Q 1315 602 , 1301 609 
Q 1287 616 , 1259 623 
L 1235 623 
Q 1264 616 , 1277 609 
Q 1290 602 , 1290 595 
Q 1290 588 , 1277 581 
Q 1264 574 , 1235 567 
" fill="black" />
<path d="
M 1420 582 
L 1386 595 
L 1420 608 
L 1417 611 
L 1383 598 
L 1383 623 
L 1377 623 
L 1377 599 
L 1343 611 
L 1340 608 
L 1374 595 
L 1340 582 
L 1343 579 
L 1377 591 
L 1377 567 
L 1383 567 
L 1383 591 
L 1417 579 
L 1420 582 
" fill="black" />
</svg>
