<svg xmlns="http://www.w3.org/2000/svg"
viewBox="0 0 1330 635">
<path d="
M 70 554 
L 88 554 
L 88 554 
Q 88 554 , 96 554 
Q 103 554 , 120 554 
Q 137 554 , 145 554 
Q 152 554 , 152 554 
L 152 554 
L 170 554 
L 170 554 
Q 170 554 , 157 554 
Q 145 554 , 120 554 
Q 96 554 , 83 554 
Q 70 554 , 70 554 
L 70 554 
" fill="#D21010" />
<path d="
M 170 553 
L 170 553 
Q 155 553 , 147 553 
Q 139 553 , 129 553 
Q 108 553 , 98 553 
Q 86 553 , 86 553 
Q 86 553 , 98 553 
Q 108 553 , 129 553 
Q 139 553 , 147 553 
Q 155 553 , 170 553 
L 170 553 
Q 159 553 , 149 553 
Q 139 553 , 128 553 
Q 101 553 , 86 553 
Q 70 553 , 70 553 
Q 70 553 , 86 553 
Q 101 553 , 128 553 
Q 139 553 , 149 553 
Q 160 553 , 170 553 
" fill="#545FFF" />
<path d="
M 120 552 
L 102 552 
L 136 552 
L 120 552 
M 113 552 
L 127 552 
L 170 552 
L 154 552 
L 142 552 
L 98 552 
L 85 552 
L 70 552 
L 113 552 
" fill="#339541" />
<path d="
M 154 551 
L 154 551 
L 125 551 
L 125 551 
L 170 551 
L 170 551 
Q 159 551 , 148 551 
Q 139 551 , 127 551 
Q 101 551 , 85 551 
Q 70 551 , 70 551 
Q 70 551 , 85 551 
Q 101 551 , 127 551 
Q 138 551 , 147 551 
Q 157 551 , 167 551 
L 167 551 
Q 154 551 , 146 551 
Q 137 551 , 128 551 
Q 107 551 , 96 551 
Q 86 551 , 86 551 
Q 86 551 , 96 551 
Q 107 551 , 128 551 
Q 137 551 , 144 551 
Q 151 551 , 154 551 
" fill="#F5C000" />
<path d="
M 175 550 
L 193 550 
L 193 553 
Q 193 554 , 201 554 
Q 208 554 , 225 554 
Q 242 554 , 250 554 
Q 257 554 , 257 553 
L 257 550 
L 275 550 
L 275 553 
Q 275 554 , 262 554 
Q 250 555 , 225 555 
Q 201 555 , 188 554 
Q 175 554 , 175 553 
L 175 550 
" fill="#D21010" />
<path d="
M 225 546 
L 207 548 
L 241 548 
L 225 546 
M 218 545 
L 232 545 
L 275 550 
L 259 550 
L 247 548 
L 203 548 
L 190 550 
L 175 550 
L 218 545 
" fill="#339541" />
<path d="
M 275 539 
L 275 540 
Q 260 539 , 252 539 
Q 244 539 , 234 539 
Q 213 539 , 203 539 
Q 191 540 , 191 541 
Q 191 542 , 203 543 
Q 213 544 , 234 544 
Q 244 544 , 252 543 
Q 260 543 , 275 543 
L 275 544 
Q 264 544 , 254 544 
Q 244 544 , 233 544 
Q 206 544 , 191 543 
Q 175 543 , 175 541 
Q 175 540 , 191 539 
Q 206 538 , 233 538 
Q 244 538 , 254 538 
Q 265 538 , 275 539 
" fill="#545FFF" />
<path d="
M 259 536 
L 259 532 
L 230 532 
L 230 531 
L 275 531 
L 275 537 
Q 264 537 , 253 537 
Q 244 538 , 232 538 
Q 206 538 , 190 536 
Q 175 534 , 175 531 
Q 175 528 , 190 526 
Q 206 524 , 232 524 
Q 243 524 , 252 524 
Q 262 524 , 272 525 
L 272 527 
Q 259 526 , 251 526 
Q 242 526 , 233 526 
Q 212 526 , 201 527 
Q 191 528 , 191 531 
Q 191 533 , 201 535 
Q 212 536 , 233 536 
Q 242 536 , 249 536 
Q 256 536 , 259 536 
" fill="#F5C000" />
<path d="
M 280 552 
L 289 552 
L 289 554 
Q 289 554 , 293 554 
Q 296 554 , 305 554 
Q 314 554 , 317 554 
Q 321 554 , 321 554 
L 321 552 
L 330 552 
L 330 554 
Q 330 554 , 324 554 
Q 317 555 , 305 555 
Q 293 555 , 286 554 
Q 280 554 , 280 554 
L 280 552 
" fill="#D21010" />
<path d="
M 355 552 
L 346 554 
L 363 554 
L 355 552 
M 351 552 
L 359 552 
L 380 555 
L 372 555 
L 366 554 
L 344 554 
L 337 555 
L 330 555 
L 351 552 
" fill="lightgray" />
<path d="
M 322 551 
L 322 550 
L 308 550 
L 308 550 
L 330 550 
L 330 552 
Q 325 552 , 319 552 
Q 314 552 , 308 552 
Q 295 552 , 288 551 
Q 280 551 , 280 550 
Q 280 549 , 288 549 
Q 295 548 , 308 548 
Q 314 548 , 319 548 
Q 324 548 , 329 548 
L 329 549 
Q 322 549 , 318 549 
Q 314 548 , 309 548 
Q 299 548 , 293 549 
Q 288 549 , 288 550 
Q 288 551 , 293 551 
Q 299 551 , 309 551 
Q 314 551 , 317 551 
Q 321 551 , 322 551 
" fill="#F5C000" />
<path d="
M 330 548 
L 339 548 
L 339 550 
Q 339 551 , 343 551 
Q 346 551 , 355 551 
Q 364 551 , 367 551 
Q 371 551 , 371 550 
L 371 548 
L 380 548 
L 380 550 
Q 380 551 , 374 551 
Q 367 552 , 355 552 
Q 343 552 , 336 551 
Q 330 551 , 330 550 
L 330 548 
" fill="lightgray" />
<path d="
M 305 544 
L 296 546 
L 313 546 
L 305 544 
M 301 543 
L 309 543 
L 330 548 
L 322 548 
L 316 546 
L 294 546 
L 287 548 
L 280 548 
L 301 543 
" fill="#339541" />
<path d="
M 330 543 
L 339 543 
L 339 546 
Q 339 547 , 343 547 
Q 346 547 , 355 547 
Q 364 547 , 367 547 
Q 371 547 , 371 546 
L 371 543 
L 380 543 
L 380 546 
Q 380 547 , 374 547 
Q 367 548 , 355 548 
Q 343 548 , 336 547 
Q 330 547 , 330 546 
L 330 543 
" fill="lightgray" />
<path d="
M 280 526 
L 289 526 
L 289 535 
Q 289 538 , 293 539 
Q 296 540 , 305 540 
Q 314 540 , 317 539 
Q 321 538 , 321 535 
L 321 526 
L 330 526 
L 330 536 
Q 330 539 , 324 540 
Q 317 542 , 305 542 
Q 293 542 , 286 540 
Q 280 539 , 280 536 
L 280 526 
" fill="#D21010" />
<path d="
M 372 540 
L 372 535 
L 358 535 
L 358 534 
L 380 534 
L 380 541 
Q 375 541 , 369 542 
Q 364 542 , 358 542 
Q 345 542 , 338 540 
Q 330 538 , 330 534 
Q 330 530 , 338 528 
Q 345 526 , 358 526 
Q 364 526 , 369 526 
Q 374 527 , 379 527 
L 379 529 
Q 372 528 , 368 528 
Q 364 528 , 359 528 
Q 349 528 , 343 529 
Q 338 531 , 338 534 
Q 338 537 , 343 539 
Q 349 540 , 359 540 
Q 364 540 , 367 540 
Q 371 540 , 372 540 
" fill="lightgray" />
<path d="
M 330 475 
L 330 484 
Q 323 478 , 319 477 
Q 314 475 , 309 475 
Q 299 475 , 294 481 
Q 288 486 , 288 497 
Q 288 508 , 294 514 
Q 299 519 , 309 519 
Q 314 519 , 319 518 
Q 323 516 , 330 511 
L 330 520 
Q 325 523 , 319 524 
Q 315 525 , 309 525 
Q 295 525 , 288 518 
Q 280 510 , 280 497 
Q 280 484 , 288 477 
Q 295 469 , 309 469 
Q 315 469 , 320 470 
Q 325 472 , 330 475 
" fill="#545FFF" />
<path d="
M 372 517 
L 372 502 
L 358 502 
L 358 496 
L 380 496 
L 380 521 
Q 375 523 , 369 524 
Q 364 525 , 358 525 
Q 345 525 , 338 518 
Q 330 510 , 330 497 
Q 330 484 , 338 477 
Q 345 469 , 358 469 
Q 364 469 , 369 470 
Q 374 471 , 379 474 
L 379 481 
Q 372 478 , 368 477 
Q 364 476 , 359 476 
Q 349 476 , 343 481 
Q 338 486 , 338 497 
Q 338 508 , 343 514 
Q 349 519 , 359 519 
Q 364 519 , 367 518 
Q 371 518 , 372 517 
" fill="lightgray" />
<path d="
M 322 457 
L 322 434 
L 308 434 
L 308 425 
L 330 425 
L 330 462 
Q 325 466 , 319 467 
Q 314 468 , 308 469 
Q 295 469 , 288 457 
Q 280 446 , 280 427 
Q 280 407 , 288 396 
Q 295 385 , 308 385 
Q 314 385 , 319 386 
Q 324 388 , 329 392 
L 329 402 
Q 322 398 , 318 396 
Q 314 395 , 309 395 
Q 299 395 , 293 403 
Q 288 411 , 288 427 
Q 288 443 , 293 451 
Q 299 459 , 309 459 
Q 314 459 , 317 458 
Q 321 458 , 322 457 
" fill="#F5C000" />
<path d="
M 380 394 
L 380 407 
Q 373 398 , 369 396 
Q 364 394 , 359 394 
Q 349 394 , 344 402 
Q 338 411 , 338 427 
Q 338 443 , 344 451 
Q 349 460 , 359 460 
Q 364 460 , 369 457 
Q 373 455 , 380 447 
L 380 460 
Q 375 465 , 369 467 
Q 365 469 , 359 469 
Q 345 469 , 338 457 
Q 330 446 , 330 427 
Q 330 408 , 338 396 
Q 345 385 , 359 385 
Q 365 385 , 370 387 
Q 375 389 , 380 394 
" fill="lightgray" />
<path d="
M 485 552 
L 485 553 
Q 470 552 , 462 552 
Q 454 552 , 444 552 
Q 423 552 , 413 552 
Q 401 553 , 401 553 
Q 401 554 , 413 554 
Q 423 554 , 444 554 
Q 454 554 , 462 554 
Q 470 554 , 485 554 
L 485 554 
Q 474 554 , 464 554 
Q 454 554 , 443 554 
Q 416 554 , 401 554 
Q 385 554 , 385 553 
Q 385 553 , 401 552 
Q 416 552 , 443 552 
Q 454 552 , 464 552 
Q 475 552 , 485 552 
" fill="#545FFF" />
<path d="
M 385 545 
L 403 545 
L 403 549 
Q 403 550 , 411 550 
Q 418 551 , 435 551 
Q 452 551 , 460 550 
Q 467 550 , 467 549 
L 467 545 
L 485 545 
L 485 549 
Q 485 550 , 472 551 
Q 460 551 , 435 551 
Q 411 551 , 398 551 
Q 385 550 , 385 549 
L 385 545 
" fill="#D21010" />
<path d="
M 469 543 
L 469 542 
L 440 542 
L 440 541 
L 485 541 
L 485 544 
Q 474 544 , 463 544 
Q 454 544 , 442 544 
Q 416 544 , 400 543 
Q 385 543 , 385 541 
Q 385 540 , 400 539 
Q 416 538 , 442 538 
Q 453 538 , 462 538 
Q 472 538 , 482 539 
L 482 539 
Q 469 539 , 461 539 
Q 452 539 , 443 539 
Q 422 539 , 411 539 
Q 401 540 , 401 541 
Q 401 542 , 411 543 
Q 422 544 , 443 544 
Q 452 544 , 459 544 
Q 466 543 , 469 543 
" fill="#F5C000" />
<path d="
M 435 531 
L 417 534 
L 451 534 
L 435 531 
M 428 529 
L 442 529 
L 485 538 
L 469 538 
L 457 535 
L 413 535 
L 400 538 
L 385 538 
L 428 529 
" fill="#339541" />
<path d="
M 490 551 
L 508 551 
L 508 553 
Q 508 553 , 516 554 
Q 523 554 , 540 554 
Q 557 554 , 565 554 
Q 572 553 , 572 553 
L 572 551 
L 590 551 
L 590 553 
Q 590 553 , 577 554 
Q 565 554 , 540 554 
Q 516 554 , 503 554 
Q 490 553 , 490 553 
L 490 551 
" fill="#D21010" />
<path d="
M 590 543 
L 590 544 
Q 575 543 , 567 543 
Q 559 543 , 549 543 
Q 528 543 , 518 544 
Q 506 545 , 506 546 
Q 506 548 , 518 549 
Q 528 550 , 549 550 
Q 559 550 , 567 550 
Q 575 549 , 590 549 
L 590 550 
Q 579 550 , 569 551 
Q 559 551 , 548 551 
Q 521 551 , 506 550 
Q 490 548 , 490 546 
Q 490 544 , 506 543 
Q 521 542 , 548 542 
Q 559 542 , 569 542 
Q 580 542 , 590 543 
" fill="#545FFF" />
<path d="
M 540 513 
L 522 527 
L 556 527 
L 540 513 
M 533 506 
L 547 506 
L 590 542 
L 574 542 
L 562 531 
L 518 531 
L 505 542 
L 490 542 
L 533 506 
" fill="#339541" />
<path d="
M 574 500 
L 574 490 
L 545 490 
L 545 486 
L 590 486 
L 590 503 
Q 579 505 , 568 505 
Q 559 506 , 547 506 
Q 521 506 , 505 501 
Q 490 496 , 490 486 
Q 490 477 , 505 472 
Q 521 467 , 547 467 
Q 558 467 , 567 468 
Q 577 468 , 587 470 
L 587 475 
Q 574 473 , 566 472 
Q 557 472 , 548 472 
Q 527 472 , 516 475 
Q 506 479 , 506 486 
Q 506 494 , 516 498 
Q 527 502 , 548 502 
Q 557 502 , 564 501 
Q 571 501 , 574 500 
" fill="#F5C000" />
<path d="
M 595 552 
L 613 552 
L 613 553 
Q 613 554 , 621 554 
Q 628 554 , 645 554 
Q 662 554 , 670 554 
Q 677 554 , 677 553 
L 677 552 
L 695 552 
L 695 553 
Q 695 554 , 682 554 
Q 670 554 , 645 554 
Q 621 554 , 608 554 
Q 595 554 , 595 553 
L 595 552 
" fill="#D21010" />
<path d="
M 679 550 
L 679 547 
L 650 547 
L 650 546 
L 695 546 
L 695 551 
Q 684 551 , 673 552 
Q 664 552 , 652 552 
Q 626 552 , 610 550 
Q 595 549 , 595 546 
Q 595 543 , 610 542 
Q 626 540 , 652 540 
Q 663 540 , 672 540 
Q 682 540 , 692 541 
L 692 542 
Q 679 542 , 671 542 
Q 662 541 , 653 541 
Q 632 541 , 621 543 
Q 611 544 , 611 546 
Q 611 548 , 621 549 
Q 632 551 , 653 551 
Q 662 551 , 669 550 
Q 676 550 , 679 550 
" fill="#F5C000" />
<path d="
M 695 522 
L 695 525 
Q 680 523 , 672 523 
Q 664 522 , 654 522 
Q 633 522 , 623 524 
Q 611 526 , 611 530 
Q 611 534 , 623 536 
Q 633 538 , 654 538 
Q 664 538 , 672 537 
Q 680 537 , 695 535 
L 695 538 
Q 684 539 , 674 539 
Q 664 540 , 653 540 
Q 626 540 , 611 537 
Q 595 534 , 595 530 
Q 595 525 , 611 523 
Q 626 520 , 653 520 
Q 664 520 , 674 520 
Q 685 521 , 695 522 
" fill="#545FFF" />
<path d="
M 645 504 
L 627 512 
L 661 512 
L 645 504 
M 638 500 
L 652 500 
L 695 520 
L 679 520 
L 667 514 
L 623 514 
L 610 520 
L 595 520 
L 638 500 
" fill="#339541" />
<path d="
M 800 552 
L 800 553 
Q 785 552 , 777 552 
Q 769 552 , 759 552 
Q 738 552 , 728 553 
Q 716 553 , 716 553 
Q 716 554 , 728 554 
Q 738 554 , 759 554 
Q 769 554 , 777 554 
Q 785 554 , 800 554 
L 800 554 
Q 789 555 , 779 555 
Q 769 555 , 758 555 
Q 731 555 , 716 554 
Q 700 554 , 700 553 
Q 700 553 , 716 552 
Q 731 552 , 758 552 
Q 769 552 , 779 552 
Q 790 552 , 800 552 
" fill="#545FFF" />
<path d="
M 750 547 
L 732 549 
L 766 549 
L 750 547 
M 743 546 
L 757 546 
L 800 551 
L 784 551 
L 772 550 
L 728 550 
L 715 551 
L 700 551 
L 743 546 
" fill="#339541" />
<path d="
M 700 540 
L 718 540 
L 718 543 
Q 718 544 , 726 545 
Q 733 545 , 750 545 
Q 767 545 , 775 545 
Q 782 544 , 782 543 
L 782 540 
L 800 540 
L 800 543 
Q 800 545 , 787 545 
Q 775 546 , 750 546 
Q 726 546 , 713 545 
Q 700 545 , 700 543 
L 700 540 
" fill="#D21010" />
<path d="
M 784 538 
L 784 535 
L 755 535 
L 755 534 
L 800 534 
L 800 539 
Q 789 539 , 778 539 
Q 769 539 , 757 539 
Q 731 539 , 715 538 
Q 700 537 , 700 535 
Q 700 532 , 715 531 
Q 731 530 , 757 530 
Q 768 530 , 777 530 
Q 787 530 , 797 531 
L 797 532 
Q 784 531 , 776 531 
Q 767 531 , 758 531 
Q 737 531 , 726 532 
Q 716 533 , 716 535 
Q 716 536 , 726 537 
Q 737 538 , 758 538 
Q 767 538 , 774 538 
Q 781 538 , 784 538 
" fill="#F5C000" />
<path d="
M 805 552 
L 814 552 
L 814 554 
Q 814 554 , 818 554 
Q 821 554 , 830 554 
Q 839 554 , 842 554 
Q 846 554 , 846 554 
L 846 552 
L 855 552 
L 855 554 
Q 855 554 , 849 554 
Q 842 555 , 830 555 
Q 818 555 , 811 554 
Q 805 554 , 805 554 
L 805 552 
" fill="lightgray" />
<path d="
M 880 552 
L 871 554 
L 888 554 
L 880 552 
M 876 552 
L 884 552 
L 905 555 
L 897 555 
L 891 554 
L 869 554 
L 862 555 
L 855 555 
L 876 552 
" fill="#339541" />
<path d="
M 847 551 
L 847 550 
L 833 550 
L 833 550 
L 855 550 
L 855 552 
Q 850 552 , 844 552 
Q 839 552 , 833 552 
Q 820 552 , 813 551 
Q 805 551 , 805 550 
Q 805 549 , 813 549 
Q 820 548 , 833 548 
Q 839 548 , 844 548 
Q 849 548 , 854 548 
L 854 549 
Q 847 549 , 843 549 
Q 839 548 , 834 548 
Q 824 548 , 818 549 
Q 813 549 , 813 550 
Q 813 551 , 818 551 
Q 824 551 , 834 551 
Q 839 551 , 842 551 
Q 846 551 , 847 551 
" fill="lightgray" />
<path d="
M 855 548 
L 864 548 
L 864 550 
Q 864 551 , 868 551 
Q 871 551 , 880 551 
Q 889 551 , 892 551 
Q 896 551 , 896 550 
L 896 548 
L 905 548 
L 905 550 
Q 905 551 , 899 551 
Q 892 552 , 880 552 
Q 868 552 , 861 551 
Q 855 551 , 855 550 
L 855 548 
" fill="#D21010" />
<path d="
M 830 544 
L 821 546 
L 838 546 
L 830 544 
M 826 543 
L 834 543 
L 855 548 
L 847 548 
L 841 546 
L 819 546 
L 812 548 
L 805 548 
L 826 543 
" fill="lightgray" />
<path d="
M 855 543 
L 864 543 
L 864 546 
Q 864 547 , 868 547 
Q 871 547 , 880 547 
Q 889 547 , 892 547 
Q 896 547 , 896 546 
L 896 543 
L 905 543 
L 905 546 
Q 905 547 , 899 547 
Q 892 548 , 880 548 
Q 868 548 , 861 547 
Q 855 547 , 855 546 
L 855 543 
" fill="#D21010" />
<path d="
M 805 526 
L 814 526 
L 814 535 
Q 814 538 , 818 539 
Q 821 540 , 830 540 
Q 839 540 , 842 539 
Q 846 538 , 846 535 
L 846 526 
L 855 526 
L 855 536 
Q 855 539 , 849 540 
Q 842 542 , 830 542 
Q 818 542 , 811 540 
Q 805 539 , 805 536 
L 805 526 
" fill="lightgray" />
<path d="
M 897 540 
L 897 535 
L 883 535 
L 883 534 
L 905 534 
L 905 541 
Q 900 541 , 894 542 
Q 889 542 , 883 542 
Q 870 542 , 863 540 
Q 855 538 , 855 534 
Q 855 530 , 863 528 
Q 870 526 , 883 526 
Q 889 526 , 894 526 
Q 899 527 , 904 527 
L 904 529 
Q 897 528 , 893 528 
Q 889 528 , 884 528 
Q 874 528 , 868 529 
Q 863 531 , 863 534 
Q 863 537 , 868 539 
Q 874 540 , 884 540 
Q 889 540 , 892 540 
Q 896 540 , 897 540 
" fill="#F5C000" />
<path d="
M 855 475 
L 855 484 
Q 848 478 , 844 477 
Q 839 475 , 834 475 
Q 824 475 , 819 481 
Q 813 486 , 813 497 
Q 813 508 , 819 514 
Q 824 519 , 834 519 
Q 839 519 , 844 518 
Q 848 516 , 855 511 
L 855 520 
Q 850 523 , 844 524 
Q 840 525 , 834 525 
Q 820 525 , 813 518 
Q 805 510 , 805 497 
Q 805 484 , 813 477 
Q 820 469 , 834 469 
Q 840 469 , 845 470 
Q 850 472 , 855 475 
" fill="lightgray" />
<path d="
M 897 517 
L 897 502 
L 883 502 
L 883 496 
L 905 496 
L 905 521 
Q 900 523 , 894 524 
Q 889 525 , 883 525 
Q 870 525 , 863 518 
Q 855 510 , 855 497 
Q 855 484 , 863 477 
Q 870 469 , 883 469 
Q 889 469 , 894 470 
Q 899 471 , 904 474 
L 904 481 
Q 897 478 , 893 477 
Q 889 476 , 884 476 
Q 874 476 , 868 481 
Q 863 486 , 863 497 
Q 863 508 , 868 514 
Q 874 519 , 884 519 
Q 889 519 , 892 518 
Q 896 518 , 897 517 
" fill="#F5C000" />
<path d="
M 847 457 
L 847 434 
L 833 434 
L 833 425 
L 855 425 
L 855 462 
Q 850 466 , 844 467 
Q 839 468 , 833 469 
Q 820 469 , 813 457 
Q 805 446 , 805 427 
Q 805 407 , 813 396 
Q 820 385 , 833 385 
Q 839 385 , 844 386 
Q 849 388 , 854 392 
L 854 402 
Q 847 398 , 843 396 
Q 839 395 , 834 395 
Q 824 395 , 818 403 
Q 813 411 , 813 427 
Q 813 443 , 818 451 
Q 824 459 , 834 459 
Q 839 459 , 842 458 
Q 846 458 , 847 457 
" fill="lightgray" />
<path d="
M 905 394 
L 905 407 
Q 898 398 , 894 396 
Q 889 394 , 884 394 
Q 874 394 , 869 402 
Q 863 411 , 863 427 
Q 863 443 , 869 451 
Q 874 460 , 884 460 
Q 889 460 , 894 457 
Q 898 455 , 905 447 
L 905 460 
Q 900 465 , 894 467 
Q 890 469 , 884 469 
Q 870 469 , 863 457 
Q 855 446 , 855 427 
Q 855 408 , 863 396 
Q 870 385 , 884 385 
Q 890 385 , 895 387 
Q 900 389 , 905 394 
" fill="#545FFF" />
<path d="
M 994 554 
L 994 553 
L 965 553 
L 965 553 
L 1010 553 
L 1010 554 
Q 999 554 , 988 554 
Q 979 554 , 967 554 
Q 941 554 , 925 554 
Q 910 553 , 910 553 
Q 910 552 , 925 551 
Q 941 551 , 967 551 
Q 978 551 , 987 551 
Q 997 551 , 1007 551 
L 1007 552 
Q 994 551 , 986 551 
Q 977 551 , 968 551 
Q 947 551 , 936 552 
Q 926 552 , 926 553 
Q 926 553 , 936 554 
Q 947 554 , 968 554 
Q 977 554 , 984 554 
Q 991 554 , 994 554 
" fill="#F5C000" />
<path d="
M 960 544 
L 942 547 
L 976 547 
L 960 544 
M 953 543 
L 967 543 
L 1010 550 
L 994 550 
L 982 548 
L 938 548 
L 925 550 
L 910 550 
L 953 543 
" fill="#339541" />
<path d="
M 910 534 
L 928 534 
L 928 539 
Q 928 541 , 936 541 
Q 943 542 , 960 542 
Q 977 542 , 985 541 
Q 992 541 , 992 539 
L 992 534 
L 1010 534 
L 1010 539 
Q 1010 541 , 997 542 
Q 985 543 , 960 543 
Q 936 543 , 923 542 
Q 910 541 , 910 539 
L 910 534 
" fill="#D21010" />
<path d="
M 1010 521 
L 1010 523 
Q 995 521 , 987 521 
Q 979 521 , 969 521 
Q 948 521 , 938 522 
Q 926 523 , 926 526 
Q 926 529 , 938 531 
Q 948 532 , 969 532 
Q 979 532 , 987 532 
Q 995 531 , 1010 530 
L 1010 532 
Q 999 533 , 989 533 
Q 979 534 , 968 534 
Q 941 534 , 926 532 
Q 910 530 , 910 526 
Q 910 523 , 926 521 
Q 941 519 , 968 519 
Q 979 519 , 989 519 
Q 1000 520 , 1010 521 
" fill="#545FFF" />
<path d="
M 1065 548 
L 1047 551 
L 1081 551 
L 1065 548 
M 1058 546 
L 1072 546 
L 1115 555 
L 1099 555 
L 1087 552 
L 1043 552 
L 1030 555 
L 1015 555 
L 1058 546 
" fill="#339541" />
<path d="
M 1115 537 
L 1115 538 
Q 1100 538 , 1092 537 
Q 1084 537 , 1074 537 
Q 1053 537 , 1043 538 
Q 1031 539 , 1031 540 
Q 1031 542 , 1043 543 
Q 1053 544 , 1074 544 
Q 1084 544 , 1092 544 
Q 1100 544 , 1115 543 
L 1115 544 
Q 1104 545 , 1094 545 
Q 1084 545 , 1073 545 
Q 1046 545 , 1031 544 
Q 1015 543 , 1015 541 
Q 1015 539 , 1031 537 
Q 1046 536 , 1073 536 
Q 1084 536 , 1094 536 
Q 1105 536 , 1115 537 
" fill="#545FFF" />
<path d="
M 1015 520 
L 1033 520 
L 1033 529 
Q 1033 532 , 1041 533 
Q 1048 534 , 1065 534 
Q 1082 534 , 1090 533 
Q 1097 532 , 1097 529 
L 1097 520 
L 1115 520 
L 1115 530 
Q 1115 533 , 1102 534 
Q 1090 536 , 1065 536 
Q 1041 536 , 1028 534 
Q 1015 533 , 1015 530 
L 1015 520 
" fill="#D21010" />
<path d="
M 1099 512 
L 1099 496 
L 1070 496 
L 1070 490 
L 1115 490 
L 1115 515 
Q 1104 518 , 1093 519 
Q 1084 520 , 1072 520 
Q 1046 520 , 1030 512 
Q 1015 505 , 1015 491 
Q 1015 478 , 1030 471 
Q 1046 463 , 1072 463 
Q 1083 463 , 1092 464 
Q 1102 465 , 1112 468 
L 1112 475 
Q 1099 472 , 1091 471 
Q 1082 470 , 1073 470 
Q 1052 470 , 1041 475 
Q 1031 480 , 1031 491 
Q 1031 503 , 1041 508 
Q 1052 513 , 1073 513 
Q 1082 513 , 1089 513 
Q 1096 512 , 1099 512 
" fill="#F5C000" />
<path d="
M 1120 550 
L 1138 550 
L 1138 553 
Q 1138 554 , 1146 554 
Q 1153 554 , 1170 554 
Q 1187 554 , 1195 554 
Q 1202 554 , 1202 553 
L 1202 550 
L 1220 550 
L 1220 553 
Q 1220 554 , 1207 554 
Q 1195 555 , 1170 555 
Q 1146 555 , 1133 554 
Q 1120 554 , 1120 553 
L 1120 550 
" fill="#D21010" />
<path d="
M 1220 544 
L 1220 545 
Q 1205 544 , 1197 544 
Q 1189 544 , 1179 544 
Q 1158 544 , 1148 544 
Q 1136 545 , 1136 546 
Q 1136 548 , 1148 548 
Q 1158 549 , 1179 549 
Q 1189 549 , 1197 549 
Q 1205 549 , 1220 548 
L 1220 549 
Q 1209 549 , 1199 550 
Q 1189 550 , 1178 550 
Q 1151 550 , 1136 549 
Q 1120 548 , 1120 546 
Q 1120 545 , 1136 544 
Q 1151 543 , 1178 543 
Q 1189 543 , 1199 543 
Q 1210 543 , 1220 544 
" fill="#545FFF" />
<path d="
M 1170 533 
L 1152 538 
L 1186 538 
L 1170 533 
M 1163 531 
L 1177 531 
L 1220 542 
L 1204 542 
L 1192 539 
L 1148 539 
L 1135 542 
L 1120 542 
L 1163 531 
" fill="#339541" />
<path d="
M 1204 527 
L 1204 522 
L 1175 522 
L 1175 519 
L 1220 519 
L 1220 529 
Q 1209 530 , 1198 530 
Q 1189 530 , 1177 530 
Q 1151 530 , 1135 528 
Q 1120 525 , 1120 520 
Q 1120 515 , 1135 512 
Q 1151 509 , 1177 509 
Q 1188 509 , 1197 509 
Q 1207 510 , 1217 511 
L 1217 513 
Q 1204 512 , 1196 512 
Q 1187 512 , 1178 512 
Q 1157 512 , 1146 514 
Q 1136 516 , 1136 520 
Q 1136 524 , 1146 526 
Q 1157 528 , 1178 528 
Q 1187 528 , 1194 528 
Q 1201 528 , 1204 527 
" fill="#F5C000" />
<path d="
M 1225 554 
L 1243 554 
L 1243 554 
Q 1243 554 , 1251 554 
Q 1258 554 , 1275 554 
Q 1292 554 , 1300 554 
Q 1307 554 , 1307 554 
L 1307 554 
L 1325 554 
L 1325 554 
Q 1325 554 , 1312 554 
Q 1300 554 , 1275 554 
Q 1251 554 , 1238 554 
Q 1225 554 , 1225 554 
L 1225 554 
" fill="#D21010" />
<path d="
M 1325 553 
L 1325 553 
Q 1310 553 , 1302 553 
Q 1294 553 , 1284 553 
Q 1263 553 , 1253 553 
Q 1241 553 , 1241 553 
Q 1241 553 , 1253 553 
Q 1263 553 , 1284 553 
Q 1294 553 , 1302 553 
Q 1310 553 , 1325 553 
L 1325 553 
Q 1314 553 , 1304 553 
Q 1294 553 , 1283 553 
Q 1256 553 , 1241 553 
Q 1225 553 , 1225 553 
Q 1225 553 , 1241 553 
Q 1256 553 , 1283 553 
Q 1294 553 , 1304 553 
Q 1315 553 , 1325 553 
" fill="#545FFF" />
<path d="
M 1275 552 
L 1257 552 
L 1291 552 
L 1275 552 
M 1268 552 
L 1282 552 
L 1325 552 
L 1309 552 
L 1297 552 
L 1253 552 
L 1240 552 
L 1225 552 
L 1268 552 
" fill="#339541" />
<path d="
M 1309 551 
L 1309 551 
L 1280 551 
L 1280 551 
L 1325 551 
L 1325 551 
Q 1314 551 , 1303 551 
Q 1294 551 , 1282 551 
Q 1256 551 , 1240 551 
Q 1225 551 , 1225 551 
Q 1225 551 , 1240 551 
Q 1256 551 , 1282 551 
Q 1293 551 , 1302 551 
Q 1312 551 , 1322 551 
L 1322 551 
Q 1309 551 , 1301 551 
Q 1292 551 , 1283 551 
Q 1262 551 , 1251 551 
Q 1241 551 , 1241 551 
Q 1241 551 , 1251 551 
Q 1262 551 , 1283 551 
Q 1292 551 , 1299 551 
Q 1306 551 , 1309 551 
" fill="#F5C000" />
<path d="M 65 168 L 65 555 " stroke="black" stroke-width="1.5"/>
<path d="M 55 555 L 65 555 " stroke="black" stroke-width="4"/>
<text text-anchor="end" x="50" y="555" font-size="50" alignment-baseline="middle">0</text>
<path d="M 55 362 L 65 362 " stroke="black" stroke-width="4"/>
<text text-anchor="end" x="50" y="362" font-size="50" alignment-baseline="middle">1</text>
<path d="M 55 168 L 65 168 " stroke="black" stroke-width="4"/>
<text text-anchor="end" x="50" y="168" font-size="50" alignment-baseline="middle">2</text>
<text text-anchor="middle" x="697" y="50" font-size="50" alignment-baseline="baseline"></text>
G<path d="
M 160 582 
L 126 595 
L 160 608 
L 157 611 
L 123 598 
L 123 623 
L 117 623 
L 117 599 
L 83 611 
L 80 608 
L 114 595 
L 80 582 
L 83 579 
L 117 591 
L 117 567 
L 123 567 
L 123 591 
L 157 579 
L 160 582 
" fill="black" />
<path d="
" fill="black" />
<path d="
M 211 567 
L 238 567 
L 238 623 
L 211 623 
L 211 567 
" fill="black" />
<path d="
" fill="black" />
<path d="
M 370 567 
Q 341 574 , 328 581 
Q 315 588 , 315 595 
Q 315 602 , 328 609 
Q 341 616 , 370 623 
L 346 623 
Q 318 616 , 304 609 
Q 290 602 , 290 595 
Q 290 588 , 304 581 
Q 318 574 , 346 567 
L 370 567 
" fill="black" />
<path d="
" fill="black" />
<path d="
M 421 567 
L 448 567 
L 448 623 
L 421 623 
L 421 567 
" fill="black" />
<path d="
" fill="black" />
<path d="
" fill="black" />
<path d="
M 526 567 
L 553 567 
L 553 623 
L 526 623 
L 526 567 
" fill="black" />
<path d="
" fill="black" />
<path d="
" fill="black" />
<path d="
M 631 567 
L 658 567 
L 658 623 
L 631 623 
L 631 567 
" fill="black" />
<path d="
" fill="black" />
<path d="
" fill="black" />
<path d="
M 736 567 
L 763 567 
L 763 623 
L 736 623 
L 736 567 
" fill="black" />
<path d="
" fill="black" />
<path d="
M 815 567 
L 839 567 
Q 867 574 , 881 581 
Q 895 588 , 895 595 
Q 895 602 , 881 609 
Q 867 616 , 839 623 
L 815 623 
Q 844 616 , 857 609 
Q 870 602 , 870 595 
Q 870 588 , 857 581 
Q 844 574 , 815 567 
" fill="black" />
<path d="
" fill="black" />
<path d="
M 946 567 
L 973 567 
L 973 623 
L 946 623 
L 946 567 
" fill="black" />
<path d="
" fill="black" />
<path d="
" fill="black" />
<path d="
M 1051 567 
L 1078 567 
L 1078 623 
L 1051 623 
L 1051 567 
" fill="black" />
<path d="
" fill="black" />
<path d="
" fill="black" />
<path d="
M 1156 567 
L 1183 567 
L 1183 623 
L 1156 623 
L 1156 567 
" fill="black" />
<path d="
" fill="black" />
<path d="
M 1315 582 
L 1281 595 
L 1315 608 
L 1312 611 
L 1278 598 
L 1278 623 
L 1272 623 
L 1272 599 
L 1238 611 
L 1235 608 
L 1269 595 
L 1235 582 
L 1238 579 
L 1272 591 
L 1272 567 
L 1278 567 
L 1278 591 
L 1312 579 
L 1315 582 
" fill="black" />
</svg>
