<svg xmlns="http://www.w3.org/2000/svg"
viewBox="0 0 1435 635">
<path d="
M 154 554 
L 154 554 
L 125 554 
L 125 554 
L 170 554 
L 170 554 
Q 159 554 , 148 554 
Q 139 554 , 127 554 
Q 101 554 , 85 554 
Q 70 554 , 70 554 
Q 70 553 , 85 553 
Q 101 553 , 127 553 
Q 138 553 , 147 553 
Q 157 553 , 167 553 
L 167 553 
Q 154 553 , 146 553 
Q 137 553 , 128 553 
Q 107 553 , 96 553 
Q 86 553 , 86 554 
Q 86 554 , 96 554 
Q 107 554 , 128 554 
Q 137 554 , 144 554 
Q 151 554 , 154 554 
" fill="#F5C000" />
<path d="
M 170 551 
L 170 551 
Q 155 551 , 147 551 
Q 139 551 , 129 551 
Q 108 551 , 98 551 
Q 86 551 , 86 551 
Q 86 552 , 98 552 
Q 108 552 , 129 552 
Q 139 552 , 147 552 
Q 155 552 , 170 552 
L 170 552 
Q 159 552 , 149 552 
Q 139 553 , 128 553 
Q 101 553 , 86 552 
Q 70 552 , 70 552 
Q 70 551 , 86 551 
Q 101 551 , 128 551 
Q 139 551 , 149 551 
Q 160 551 , 170 551 
" fill="#545FFF" />
<path d="
M 120 549 
L 102 550 
L 136 550 
L 120 549 
M 113 549 
L 127 549 
L 170 551 
L 154 551 
L 142 550 
L 98 550 
L 85 551 
L 70 551 
L 113 549 
" fill="#339541" />
<path d="
M 70 546 
L 88 546 
L 88 547 
Q 88 548 , 96 548 
Q 103 548 , 120 548 
Q 137 548 , 145 548 
Q 152 548 , 152 547 
L 152 546 
L 170 546 
L 170 547 
Q 170 548 , 157 548 
Q 145 548 , 120 548 
Q 96 548 , 83 548 
Q 70 548 , 70 547 
L 70 546 
" fill="#D21010" />
<path d="
M 225 549 
L 207 552 
L 241 552 
L 225 549 
M 218 548 
L 232 548 
L 275 555 
L 259 555 
L 247 553 
L 203 553 
L 190 555 
L 175 555 
L 218 548 
" fill="#339541" />
<path d="
M 275 537 
L 275 539 
Q 260 538 , 252 538 
Q 244 537 , 234 537 
Q 213 537 , 203 538 
Q 191 539 , 191 541 
Q 191 544 , 203 545 
Q 213 546 , 234 546 
Q 244 546 , 252 546 
Q 260 545 , 275 544 
L 275 546 
Q 264 547 , 254 547 
Q 244 547 , 233 547 
Q 206 547 , 191 546 
Q 175 544 , 175 542 
Q 175 539 , 191 538 
Q 206 536 , 233 536 
Q 244 536 , 254 536 
Q 265 537 , 275 537 
" fill="#545FFF" />
<path d="
M 259 530 
L 259 519 
L 230 519 
L 230 515 
L 275 515 
L 275 532 
Q 264 534 , 253 534 
Q 244 535 , 232 535 
Q 206 535 , 190 530 
Q 175 525 , 175 516 
Q 175 506 , 190 501 
Q 206 496 , 232 496 
Q 243 496 , 252 497 
Q 262 497 , 272 499 
L 272 504 
Q 259 502 , 251 501 
Q 242 501 , 233 501 
Q 212 501 , 201 504 
Q 191 508 , 191 516 
Q 191 523 , 201 527 
Q 212 531 , 233 531 
Q 242 531 , 249 530 
Q 256 530 , 259 530 
" fill="#F5C000" />
<path d="
M 175 365 
L 193 365 
L 193 442 
Q 193 464 , 201 473 
Q 208 481 , 225 481 
Q 242 481 , 250 473 
Q 257 464 , 257 442 
L 257 365 
L 275 365 
L 275 444 
Q 275 469 , 262 483 
Q 250 496 , 225 496 
Q 201 496 , 188 483 
Q 175 469 , 175 444 
L 175 365 
" fill="#D21010" />
<path d="
M 330 552 
L 312 553 
L 346 553 
L 330 552 
M 323 551 
L 337 551 
L 380 554 
L 364 554 
L 352 553 
L 308 553 
L 295 554 
L 280 554 
L 323 551 
" fill="#339541" />
<path d="
M 380 539 
L 380 541 
Q 365 540 , 357 540 
Q 349 539 , 339 539 
Q 318 539 , 308 541 
Q 296 542 , 296 544 
Q 296 547 , 308 548 
Q 318 549 , 339 549 
Q 349 549 , 357 549 
Q 365 548 , 380 547 
L 380 549 
Q 369 550 , 359 550 
Q 349 550 , 338 550 
Q 311 550 , 296 549 
Q 280 547 , 280 544 
Q 280 541 , 296 540 
Q 311 538 , 338 538 
Q 349 538 , 359 538 
Q 370 539 , 380 539 
" fill="#545FFF" />
<path d="
M 364 531 
L 364 519 
L 335 519 
L 335 515 
L 380 515 
L 380 534 
Q 369 536 , 358 536 
Q 349 537 , 337 537 
Q 311 537 , 295 531 
Q 280 526 , 280 516 
Q 280 506 , 295 500 
Q 311 494 , 337 494 
Q 348 494 , 357 495 
Q 367 496 , 377 497 
L 377 503 
Q 364 501 , 356 500 
Q 347 499 , 338 499 
Q 317 499 , 306 503 
Q 296 507 , 296 516 
Q 296 524 , 306 528 
Q 317 532 , 338 532 
Q 347 532 , 354 532 
Q 361 531 , 364 531 
" fill="#F5C000" />
<path d="
M 280 328 
L 298 328 
L 298 426 
Q 298 453 , 306 464 
Q 313 475 , 330 475 
Q 347 475 , 355 464 
Q 362 453 , 362 426 
L 362 328 
L 380 328 
L 380 428 
Q 380 460 , 367 477 
Q 355 493 , 330 493 
Q 306 493 , 293 477 
Q 280 460 , 280 428 
L 280 328 
" fill="#D21010" />
<path d="
M 435 552 
L 417 554 
L 451 554 
L 435 552 
M 428 552 
L 442 552 
L 485 555 
L 469 555 
L 457 554 
L 413 554 
L 400 555 
L 385 555 
L 428 552 
" fill="#339541" />
<path d="
M 469 549 
L 469 544 
L 440 544 
L 440 543 
L 485 543 
L 485 550 
Q 474 551 , 463 551 
Q 454 551 , 442 551 
Q 416 551 , 400 549 
Q 385 547 , 385 543 
Q 385 539 , 400 537 
Q 416 535 , 442 535 
Q 453 535 , 462 535 
Q 472 536 , 482 536 
L 482 538 
Q 469 537 , 461 537 
Q 452 537 , 443 537 
Q 422 537 , 411 538 
Q 401 540 , 401 543 
Q 401 546 , 411 548 
Q 422 549 , 443 549 
Q 452 549 , 459 549 
Q 466 549 , 469 549 
" fill="#F5C000" />
<path d="
M 485 499 
L 485 505 
Q 470 501 , 462 500 
Q 454 499 , 444 499 
Q 423 499 , 413 503 
Q 401 507 , 401 514 
Q 401 522 , 413 526 
Q 423 530 , 444 530 
Q 454 530 , 462 529 
Q 470 528 , 485 524 
L 485 531 
Q 474 533 , 464 534 
Q 454 535 , 443 535 
Q 416 535 , 401 529 
Q 385 524 , 385 515 
Q 385 506 , 401 500 
Q 416 495 , 443 495 
Q 454 495 , 464 496 
Q 475 497 , 485 499 
" fill="#545FFF" />
<path d="
M 385 337 
L 403 337 
L 403 430 
Q 403 456 , 411 467 
Q 418 477 , 435 477 
Q 452 477 , 460 467 
Q 467 456 , 467 430 
L 467 337 
L 485 337 
L 485 433 
Q 485 463 , 472 479 
Q 460 495 , 435 495 
Q 411 495 , 398 479 
Q 385 463 , 385 433 
L 385 337 
" fill="#D21010" />
<path d="
M 540 552 
L 522 554 
L 556 554 
L 540 552 
M 533 552 
L 547 552 
L 590 555 
L 574 555 
L 562 554 
L 518 554 
L 505 555 
L 490 555 
L 533 552 
" fill="#339541" />
<path d="
M 574 549 
L 574 543 
L 545 543 
L 545 541 
L 590 541 
L 590 550 
Q 579 551 , 568 551 
Q 559 551 , 547 551 
Q 521 551 , 505 549 
Q 490 546 , 490 542 
Q 490 537 , 505 535 
Q 521 532 , 547 532 
Q 558 532 , 567 532 
Q 577 533 , 587 534 
L 587 536 
Q 574 535 , 566 535 
Q 557 534 , 548 534 
Q 527 534 , 516 536 
Q 506 538 , 506 542 
Q 506 546 , 516 547 
Q 527 549 , 548 549 
Q 557 549 , 564 549 
Q 571 549 , 574 549 
" fill="#F5C000" />
<path d="
M 590 511 
L 590 515 
Q 575 513 , 567 512 
Q 559 512 , 549 512 
Q 528 512 , 518 514 
Q 506 516 , 506 520 
Q 506 525 , 518 527 
Q 528 529 , 549 529 
Q 559 529 , 567 529 
Q 575 528 , 590 526 
L 590 529 
Q 579 531 , 569 531 
Q 559 532 , 548 532 
Q 521 532 , 506 529 
Q 490 526 , 490 520 
Q 490 515 , 506 512 
Q 521 509 , 548 509 
Q 559 509 , 569 510 
Q 580 510 , 590 511 
" fill="#545FFF" />
<path d="
M 490 469 
L 508 469 
L 508 493 
Q 508 499 , 516 502 
Q 523 504 , 540 504 
Q 557 504 , 565 502 
Q 572 499 , 572 493 
L 572 469 
L 590 469 
L 590 493 
Q 590 501 , 577 505 
Q 565 509 , 540 509 
Q 516 509 , 503 505 
Q 490 501 , 490 493 
L 490 469 
" fill="#D21010" />
<path d="
M 645 547 
L 627 550 
L 661 550 
L 645 547 
M 638 545 
L 652 545 
L 695 554 
L 679 554 
L 667 552 
L 623 552 
L 610 554 
L 595 554 
L 638 545 
" fill="#339541" />
<path d="
M 695 532 
L 695 534 
Q 680 532 , 672 532 
Q 664 532 , 654 532 
Q 633 532 , 623 533 
Q 611 534 , 611 537 
Q 611 540 , 623 542 
Q 633 543 , 654 543 
Q 664 543 , 672 543 
Q 680 542 , 695 541 
L 695 543 
Q 684 544 , 674 544 
Q 664 545 , 653 545 
Q 626 545 , 611 543 
Q 595 541 , 595 537 
Q 595 534 , 611 532 
Q 626 530 , 653 530 
Q 664 530 , 674 530 
Q 685 531 , 695 532 
" fill="#545FFF" />
<path d="
M 679 526 
L 679 519 
L 650 519 
L 650 516 
L 695 516 
L 695 528 
Q 684 529 , 673 529 
Q 664 530 , 652 530 
Q 626 530 , 610 526 
Q 595 523 , 595 517 
Q 595 511 , 610 507 
Q 626 504 , 652 504 
Q 663 504 , 672 504 
Q 682 505 , 692 506 
L 692 509 
Q 679 508 , 671 507 
Q 662 507 , 653 507 
Q 632 507 , 621 509 
Q 611 512 , 611 517 
Q 611 522 , 621 524 
Q 632 527 , 653 527 
Q 662 527 , 669 526 
Q 676 526 , 679 526 
" fill="#F5C000" />
<path d="
M 595 310 
L 613 310 
L 613 424 
Q 613 456 , 621 469 
Q 628 482 , 645 482 
Q 662 482 , 670 469 
Q 677 456 , 677 424 
L 677 310 
L 695 310 
L 695 427 
Q 695 464 , 682 484 
Q 670 503 , 645 503 
Q 621 503 , 608 484 
Q 595 464 , 595 427 
L 595 310 
" fill="#D21010" />
<path d="
M 784 554 
L 784 554 
L 755 554 
L 755 554 
L 800 554 
L 800 554 
Q 789 554 , 778 554 
Q 769 554 , 757 554 
Q 731 554 , 715 554 
Q 700 554 , 700 554 
Q 700 553 , 715 553 
Q 731 553 , 757 553 
Q 768 553 , 777 553 
Q 787 553 , 797 553 
L 797 553 
Q 784 553 , 776 553 
Q 767 553 , 758 553 
Q 737 553 , 726 553 
Q 716 553 , 716 554 
Q 716 554 , 726 554 
Q 737 554 , 758 554 
Q 767 554 , 774 554 
Q 781 554 , 784 554 
" fill="#F5C000" />
<path d="
M 800 551 
L 800 551 
Q 785 551 , 777 551 
Q 769 551 , 759 551 
Q 738 551 , 728 551 
Q 716 551 , 716 551 
Q 716 552 , 728 552 
Q 738 552 , 759 552 
Q 769 552 , 777 552 
Q 785 552 , 800 552 
L 800 552 
Q 789 552 , 779 552 
Q 769 553 , 758 553 
Q 731 553 , 716 552 
Q 700 552 , 700 552 
Q 700 551 , 716 551 
Q 731 551 , 758 551 
Q 769 551 , 779 551 
Q 790 551 , 800 551 
" fill="#545FFF" />
<path d="
M 750 549 
L 732 550 
L 766 550 
L 750 549 
M 743 549 
L 757 549 
L 800 551 
L 784 551 
L 772 550 
L 728 550 
L 715 551 
L 700 551 
L 743 549 
" fill="#339541" />
<path d="
M 700 546 
L 718 546 
L 718 547 
Q 718 548 , 726 548 
Q 733 548 , 750 548 
Q 767 548 , 775 548 
Q 782 548 , 782 547 
L 782 546 
L 800 546 
L 800 547 
Q 800 548 , 787 548 
Q 775 548 , 750 548 
Q 726 548 , 713 548 
Q 700 548 , 700 547 
L 700 546 
" fill="#D21010" />
<path d="
M 855 547 
L 837 551 
L 871 551 
L 855 547 
M 848 545 
L 862 545 
L 905 555 
L 889 555 
L 877 552 
L 833 552 
L 820 555 
L 805 555 
L 848 545 
" fill="#339541" />
<path d="
M 805 530 
L 823 530 
L 823 539 
Q 823 541 , 831 542 
Q 838 543 , 855 543 
Q 872 543 , 880 542 
Q 887 541 , 887 539 
L 887 530 
L 905 530 
L 905 539 
Q 905 542 , 892 543 
Q 880 545 , 855 545 
Q 831 545 , 818 543 
Q 805 542 , 805 539 
L 805 530 
" fill="#D21010" />
<path d="
M 889 526 
L 889 521 
L 860 521 
L 860 518 
L 905 518 
L 905 528 
Q 894 529 , 883 529 
Q 874 529 , 862 529 
Q 836 529 , 820 526 
Q 805 524 , 805 519 
Q 805 514 , 820 511 
Q 836 508 , 862 508 
Q 873 508 , 882 508 
Q 892 509 , 902 510 
L 902 512 
Q 889 511 , 881 511 
Q 872 511 , 863 511 
Q 842 511 , 831 513 
Q 821 515 , 821 519 
Q 821 523 , 831 525 
Q 842 527 , 863 527 
Q 872 527 , 879 527 
Q 886 527 , 889 526 
" fill="#F5C000" />
<path d="
M 905 436 
L 905 448 
Q 890 440 , 882 438 
Q 874 436 , 864 436 
Q 843 436 , 833 444 
Q 821 452 , 821 467 
Q 821 483 , 833 491 
Q 843 499 , 864 499 
Q 874 499 , 882 497 
Q 890 495 , 905 487 
L 905 499 
Q 894 504 , 884 506 
Q 874 507 , 863 507 
Q 836 507 , 821 497 
Q 805 486 , 805 467 
Q 805 449 , 821 438 
Q 836 427 , 863 427 
Q 874 427 , 884 429 
Q 895 431 , 905 436 
" fill="#545FFF" />
<path d="
M 994 553 
L 994 551 
L 965 551 
L 965 550 
L 1010 550 
L 1010 554 
Q 999 555 , 988 555 
Q 979 555 , 967 555 
Q 941 555 , 925 554 
Q 910 552 , 910 550 
Q 910 548 , 925 546 
Q 941 545 , 967 545 
Q 978 545 , 987 545 
Q 997 545 , 1007 546 
L 1007 547 
Q 994 546 , 986 546 
Q 977 546 , 968 546 
Q 947 546 , 936 547 
Q 926 548 , 926 550 
Q 926 552 , 936 553 
Q 947 554 , 968 554 
Q 977 554 , 984 554 
Q 991 554 , 994 553 
" fill="#F5C000" />
<path d="
M 960 533 
L 942 538 
L 976 538 
L 960 533 
M 953 530 
L 967 530 
L 1010 544 
L 994 544 
L 982 540 
L 938 540 
L 925 544 
L 910 544 
L 953 530 
" fill="#339541" />
<path d="
M 1010 506 
L 1010 510 
Q 995 507 , 987 507 
Q 979 506 , 969 506 
Q 948 506 , 938 508 
Q 926 511 , 926 516 
Q 926 521 , 938 524 
Q 948 526 , 969 526 
Q 979 526 , 987 526 
Q 995 525 , 1010 522 
L 1010 527 
Q 999 528 , 989 529 
Q 979 529 , 968 529 
Q 941 529 , 926 526 
Q 910 522 , 910 516 
Q 910 510 , 926 507 
Q 941 503 , 968 503 
Q 979 503 , 989 504 
Q 1000 504 , 1010 506 
" fill="#545FFF" />
<path d="
M 910 322 
L 928 322 
L 928 429 
Q 928 458 , 936 471 
Q 943 483 , 960 483 
Q 977 483 , 985 471 
Q 992 458 , 992 429 
L 992 322 
L 1010 322 
L 1010 432 
Q 1010 466 , 997 484 
Q 985 503 , 960 503 
Q 936 503 , 923 484 
Q 910 466 , 910 432 
L 910 322 
" fill="#D21010" />
<path d="
M 1065 553 
L 1047 554 
L 1081 554 
L 1065 553 
M 1058 552 
L 1072 552 
L 1115 555 
L 1099 555 
L 1087 554 
L 1043 554 
L 1030 555 
L 1015 555 
L 1058 552 
" fill="#339541" />
<path d="
M 1115 540 
L 1115 542 
Q 1100 541 , 1092 541 
Q 1084 540 , 1074 540 
Q 1053 540 , 1043 542 
Q 1031 543 , 1031 545 
Q 1031 547 , 1043 549 
Q 1053 550 , 1074 550 
Q 1084 550 , 1092 550 
Q 1100 549 , 1115 548 
L 1115 550 
Q 1104 551 , 1094 551 
Q 1084 551 , 1073 551 
Q 1046 551 , 1031 550 
Q 1015 548 , 1015 545 
Q 1015 542 , 1031 541 
Q 1046 539 , 1073 539 
Q 1084 539 , 1094 539 
Q 1105 540 , 1115 540 
" fill="#545FFF" />
<path d="
M 1099 532 
L 1099 518 
L 1070 518 
L 1070 513 
L 1115 513 
L 1115 535 
Q 1104 537 , 1093 538 
Q 1084 539 , 1072 539 
Q 1046 539 , 1030 532 
Q 1015 525 , 1015 514 
Q 1015 502 , 1030 496 
Q 1046 489 , 1072 489 
Q 1083 489 , 1092 490 
Q 1102 491 , 1112 493 
L 1112 499 
Q 1099 497 , 1091 496 
Q 1082 495 , 1073 495 
Q 1052 495 , 1041 500 
Q 1031 504 , 1031 514 
Q 1031 524 , 1041 528 
Q 1052 533 , 1073 533 
Q 1082 533 , 1089 533 
Q 1096 532 , 1099 532 
" fill="#F5C000" />
<path d="
M 1015 382 
L 1033 382 
L 1033 445 
Q 1033 462 , 1041 470 
Q 1048 476 , 1065 476 
Q 1082 476 , 1090 470 
Q 1097 462 , 1097 445 
L 1097 382 
L 1115 382 
L 1115 446 
Q 1115 467 , 1102 477 
Q 1090 488 , 1065 488 
Q 1041 488 , 1028 477 
Q 1015 467 , 1015 446 
L 1015 382 
" fill="#D21010" />
<path d="
M 1170 553 
L 1152 554 
L 1186 554 
L 1170 553 
M 1163 553 
L 1177 553 
L 1220 554 
L 1204 554 
L 1192 554 
L 1148 554 
L 1135 554 
L 1120 554 
L 1163 553 
" fill="#339541" />
<path d="
M 1220 532 
L 1220 535 
Q 1205 533 , 1197 532 
Q 1189 532 , 1179 532 
Q 1158 532 , 1148 534 
Q 1136 536 , 1136 540 
Q 1136 545 , 1148 548 
Q 1158 550 , 1179 550 
Q 1189 550 , 1197 549 
Q 1205 549 , 1220 546 
L 1220 550 
Q 1209 552 , 1199 552 
Q 1189 553 , 1178 553 
Q 1151 553 , 1136 549 
Q 1120 546 , 1120 541 
Q 1120 535 , 1136 532 
Q 1151 529 , 1178 529 
Q 1189 529 , 1199 530 
Q 1210 530 , 1220 532 
" fill="#545FFF" />
<path d="
M 1204 525 
L 1204 517 
L 1175 517 
L 1175 514 
L 1220 514 
L 1220 527 
Q 1209 528 , 1198 528 
Q 1189 529 , 1177 529 
Q 1151 529 , 1135 525 
Q 1120 521 , 1120 515 
Q 1120 508 , 1135 505 
Q 1151 501 , 1177 501 
Q 1188 501 , 1197 501 
Q 1207 502 , 1217 503 
L 1217 507 
Q 1204 505 , 1196 505 
Q 1187 504 , 1178 504 
Q 1157 504 , 1146 507 
Q 1136 510 , 1136 515 
Q 1136 520 , 1146 523 
Q 1157 526 , 1178 526 
Q 1187 526 , 1194 525 
Q 1201 525 , 1204 525 
" fill="#F5C000" />
<path d="
M 1120 449 
L 1138 449 
L 1138 480 
Q 1138 488 , 1146 492 
Q 1153 495 , 1170 495 
Q 1187 495 , 1195 492 
Q 1202 488 , 1202 480 
L 1202 449 
L 1220 449 
L 1220 480 
Q 1220 490 , 1207 496 
Q 1195 501 , 1170 501 
Q 1146 501 , 1133 496 
Q 1120 490 , 1120 480 
L 1120 449 
" fill="#D21010" />
<path d="
M 1275 551 
L 1257 553 
L 1291 553 
L 1275 551 
M 1268 550 
L 1282 550 
L 1325 554 
L 1309 554 
L 1297 553 
L 1253 553 
L 1240 554 
L 1225 554 
L 1268 550 
" fill="#339541" />
<path d="
M 1225 538 
L 1243 538 
L 1243 545 
Q 1243 546 , 1251 547 
Q 1258 548 , 1275 548 
Q 1292 548 , 1300 547 
Q 1307 546 , 1307 545 
L 1307 538 
L 1325 538 
L 1325 545 
Q 1325 547 , 1312 548 
Q 1300 549 , 1275 549 
Q 1251 549 , 1238 548 
Q 1225 547 , 1225 545 
L 1225 538 
" fill="#D21010" />
<path d="
M 1309 531 
L 1309 519 
L 1280 519 
L 1280 514 
L 1325 514 
L 1325 534 
Q 1314 536 , 1303 537 
Q 1294 537 , 1282 537 
Q 1256 537 , 1240 532 
Q 1225 526 , 1225 515 
Q 1225 505 , 1240 499 
Q 1256 493 , 1282 493 
Q 1293 493 , 1302 494 
Q 1312 495 , 1322 497 
L 1322 502 
Q 1309 500 , 1301 499 
Q 1292 498 , 1283 498 
Q 1262 498 , 1251 502 
Q 1241 507 , 1241 515 
Q 1241 524 , 1251 528 
Q 1262 533 , 1283 533 
Q 1292 533 , 1299 532 
Q 1306 532 , 1309 531 
" fill="#F5C000" />
<path d="
M 1325 452 
L 1325 459 
Q 1310 454 , 1302 453 
Q 1294 452 , 1284 452 
Q 1263 452 , 1253 456 
Q 1241 461 , 1241 469 
Q 1241 478 , 1253 483 
Q 1263 487 , 1284 487 
Q 1294 487 , 1302 486 
Q 1310 485 , 1325 481 
L 1325 488 
Q 1314 490 , 1304 491 
Q 1294 492 , 1283 492 
Q 1256 492 , 1241 486 
Q 1225 480 , 1225 470 
Q 1225 459 , 1241 453 
Q 1256 447 , 1283 447 
Q 1294 447 , 1304 448 
Q 1315 449 , 1325 452 
" fill="#545FFF" />
<path d="
M 1414 554 
L 1414 554 
L 1385 554 
L 1385 554 
L 1430 554 
L 1430 554 
Q 1419 554 , 1408 554 
Q 1399 554 , 1387 554 
Q 1361 554 , 1345 554 
Q 1330 554 , 1330 554 
Q 1330 553 , 1345 553 
Q 1361 553 , 1387 553 
Q 1398 553 , 1407 553 
Q 1417 553 , 1427 553 
L 1427 553 
Q 1414 553 , 1406 553 
Q 1397 553 , 1388 553 
Q 1367 553 , 1356 553 
Q 1346 553 , 1346 554 
Q 1346 554 , 1356 554 
Q 1367 554 , 1388 554 
Q 1397 554 , 1404 554 
Q 1411 554 , 1414 554 
" fill="#F5C000" />
<path d="
M 1430 551 
L 1430 551 
Q 1415 551 , 1407 551 
Q 1399 551 , 1389 551 
Q 1368 551 , 1358 551 
Q 1346 551 , 1346 551 
Q 1346 552 , 1358 552 
Q 1368 552 , 1389 552 
Q 1399 552 , 1407 552 
Q 1415 552 , 1430 552 
L 1430 552 
Q 1419 552 , 1409 552 
Q 1399 553 , 1388 553 
Q 1361 553 , 1346 552 
Q 1330 552 , 1330 552 
Q 1330 551 , 1346 551 
Q 1361 551 , 1388 551 
Q 1399 551 , 1409 551 
Q 1420 551 , 1430 551 
" fill="#545FFF" />
<path d="
M 1380 549 
L 1362 550 
L 1396 550 
L 1380 549 
M 1373 549 
L 1387 549 
L 1430 551 
L 1414 551 
L 1402 550 
L 1358 550 
L 1345 551 
L 1330 551 
L 1373 549 
" fill="#339541" />
<path d="
M 1330 546 
L 1348 546 
L 1348 547 
Q 1348 548 , 1356 548 
Q 1363 548 , 1380 548 
Q 1397 548 , 1405 548 
Q 1412 548 , 1412 547 
L 1412 546 
L 1430 546 
L 1430 547 
Q 1430 548 , 1417 548 
Q 1405 548 , 1380 548 
Q 1356 548 , 1343 548 
Q 1330 548 , 1330 547 
L 1330 546 
" fill="#D21010" />
<path d="M 65 55 L 65 555 " stroke="black" stroke-width="1.5"/>
<path d="M 55 555 L 65 555 " stroke="black" stroke-width="4"/>
<text text-anchor="end" x="50" y="555" font-size="50" alignment-baseline="middle">0</text>
<path d="M 55 305 L 65 305 " stroke="black" stroke-width="4"/>
<text text-anchor="end" x="50" y="305" font-size="50" alignment-baseline="middle">1</text>
<path d="M 55 55 L 65 55 " stroke="black" stroke-width="4"/>
<text text-anchor="end" x="50" y="55" font-size="50" alignment-baseline="middle">2</text>
<text text-anchor="middle" x="750" y="50" font-size="50" alignment-baseline="baseline"></text>
G<path d="
M 160 582 
L 126 595 
L 160 608 
L 157 611 
L 123 598 
L 123 623 
L 117 623 
L 117 599 
L 83 611 
L 80 608 
L 114 595 
L 80 582 
L 83 579 
L 117 591 
L 117 567 
L 123 567 
L 123 591 
L 157 579 
L 160 582 
" fill="black" />
<path d="
" fill="black" />
<path d="
M 211 567 
L 238 567 
L 238 623 
L 211 623 
L 211 567 
" fill="black" />
<path d="
" fill="black" />
<path d="
" fill="black" />
<path d="
M 316 567 
L 343 567 
L 343 623 
L 316 623 
L 316 567 
" fill="black" />
<path d="
" fill="black" />
<path d="
" fill="black" />
<path d="
M 421 567 
L 448 567 
L 448 623 
L 421 623 
L 421 567 
" fill="black" />
<path d="
" fill="black" />
<path d="
" fill="black" />
<path d="
M 526 567 
L 553 567 
L 553 623 
L 526 623 
L 526 567 
" fill="black" />
<path d="
" fill="black" />
<path d="
" fill="black" />
<path d="
M 617 567 
L 633 567 
L 633 623 
L 617 623 
L 617 567 
" fill="black" />
<path d="
" fill="black" />
<path d="
M 669 593 
Q 671 594 , 672 597 
Q 673 601 , 673 606 
Q 673 614 , 671 618 
Q 669 623 , 664 623 
Q 662 623 , 661 622 
Q 659 621 , 657 619 
L 657 613 
Q 659 617 , 660 618 
Q 662 619 , 664 619 
Q 667 619 , 669 616 
Q 671 613 , 671 606 
Q 671 601 , 669 598 
Q 668 595 , 664 595 
L 661 595 
L 661 591 
L 665 591 
Q 667 591 , 669 589 
Q 670 586 , 670 582 
Q 670 577 , 669 574 
Q 667 571 , 664 571 
Q 663 571 , 661 572 
Q 660 573 , 658 575 
L 658 571 
Q 660 569 , 662 568 
Q 663 567 , 665 567 
Q 669 567 , 671 571 
Q 672 575 , 672 581 
Q 672 586 , 671 589 
Q 671 592 , 669 593 
" fill="black" />
<path d="
M 689 595 
Q 688 591 , 685 591 
Q 683 591 , 681 595 
Q 680 599 , 680 605 
Q 680 612 , 681 615 
Q 683 619 , 685 619 
Q 688 619 , 689 615 
Q 691 612 , 691 605 
Q 691 599 , 689 595 
M 692 569 
L 692 574 
Q 690 572 , 689 571 
Q 688 571 , 687 571 
Q 682 571 , 680 581 
Q 679 586 , 679 595 
Q 680 593 , 681 590 
Q 683 587 , 685 587 
Q 689 587 , 691 592 
Q 693 597 , 693 604 
Q 693 613 , 691 618 
Q 689 623 , 685 623 
Q 681 623 , 679 616 
Q 677 609 , 677 595 
Q 677 581 , 680 574 
Q 682 567 , 687 567 
Q 688 567 , 689 568 
Q 690 568 , 692 569 
" fill="black" />
<path d="
M 790 582 
L 756 595 
L 790 608 
L 787 611 
L 753 598 
L 753 623 
L 747 623 
L 747 599 
L 713 611 
L 710 608 
L 744 595 
L 710 582 
L 713 579 
L 747 591 
L 747 567 
L 753 567 
L 753 591 
L 787 579 
L 790 582 
" fill="black" />
<path d="
" fill="black" />
<path d="
M 841 567 
L 868 567 
L 868 623 
L 841 623 
L 841 567 
" fill="black" />
<path d="
" fill="black" />
<path d="
" fill="black" />
<path d="
M 946 567 
L 973 567 
L 973 623 
L 946 623 
L 946 567 
" fill="black" />
<path d="
" fill="black" />
<path d="
" fill="black" />
<path d="
M 1051 567 
L 1078 567 
L 1078 623 
L 1051 623 
L 1051 567 
" fill="black" />
<path d="
" fill="black" />
<path d="
" fill="black" />
<path d="
M 1156 567 
L 1183 567 
L 1183 623 
L 1156 623 
L 1156 567 
" fill="black" />
<path d="
" fill="black" />
<path d="
" fill="black" />
<path d="
M 1261 567 
L 1288 567 
L 1288 623 
L 1261 623 
L 1261 567 
" fill="black" />
<path d="
" fill="black" />
<path d="
M 1420 582 
L 1386 595 
L 1420 608 
L 1417 611 
L 1383 598 
L 1383 623 
L 1377 623 
L 1377 599 
L 1343 611 
L 1340 608 
L 1374 595 
L 1340 582 
L 1343 579 
L 1377 591 
L 1377 567 
L 1383 567 
L 1383 591 
L 1417 579 
L 1420 582 
" fill="black" />
</svg>
