<svg xmlns="http://www.w3.org/2000/svg"
viewBox="0 0 1435 635">
<path d="
M 170 554 
L 170 554 
Q 155 554 , 147 554 
Q 139 554 , 129 554 
Q 108 554 , 98 554 
Q 86 554 , 86 554 
Q 86 554 , 98 554 
Q 108 554 , 129 554 
Q 139 554 , 147 554 
Q 155 554 , 170 554 
L 170 554 
Q 159 554 , 149 554 
Q 139 554 , 128 554 
Q 101 554 , 86 554 
Q 70 554 , 70 554 
Q 70 554 , 86 554 
Q 101 554 , 128 554 
Q 139 554 , 149 554 
Q 160 554 , 170 554 
" fill="#545FFF" />
<path d="
M 70 553 
L 88 553 
L 88 553 
Q 88 553 , 96 553 
Q 103 553 , 120 553 
Q 137 553 , 145 553 
Q 152 553 , 152 553 
L 152 553 
L 170 553 
L 170 553 
Q 170 553 , 157 553 
Q 145 553 , 120 553 
Q 96 553 , 83 553 
Q 70 553 , 70 553 
L 70 553 
" fill="#D21010" />
<path d="
M 154 553 
L 154 552 
L 125 552 
L 125 552 
L 170 552 
L 170 553 
Q 159 553 , 148 553 
Q 139 553 , 127 553 
Q 101 553 , 85 553 
Q 70 552 , 70 552 
Q 70 552 , 85 552 
Q 101 552 , 127 552 
Q 138 552 , 147 552 
Q 157 552 , 167 552 
L 167 552 
Q 154 552 , 146 552 
Q 137 552 , 128 552 
Q 107 552 , 96 552 
Q 86 552 , 86 552 
Q 86 552 , 96 552 
Q 107 553 , 128 553 
Q 137 553 , 144 553 
Q 151 553 , 154 553 
" fill="#F5C000" />
<path d="
M 120 551 
L 102 551 
L 136 551 
L 120 551 
M 113 551 
L 127 551 
L 170 552 
L 154 552 
L 142 551 
L 98 551 
L 85 552 
L 70 552 
L 113 551 
" fill="#339541" />
<path d="
M 200 552 
L 191 553 
L 208 553 
L 200 552 
M 196 552 
L 204 552 
L 225 554 
L 217 554 
L 211 554 
L 189 554 
L 182 554 
L 175 554 
L 196 552 
" fill="#339541" />
<path d="
M 225 552 
L 234 552 
L 234 553 
Q 234 554 , 238 554 
Q 241 554 , 250 554 
Q 259 554 , 262 554 
Q 266 554 , 266 553 
L 266 552 
L 275 552 
L 275 553 
Q 275 554 , 269 554 
Q 262 554 , 250 554 
Q 238 554 , 231 554 
Q 225 554 , 225 553 
L 225 552 
" fill="lightgray" />
<path d="
M 217 551 
L 217 551 
L 203 551 
L 203 550 
L 225 550 
L 225 551 
Q 220 552 , 214 552 
Q 209 552 , 203 552 
Q 190 552 , 183 551 
Q 175 551 , 175 550 
Q 175 550 , 183 549 
Q 190 549 , 203 549 
Q 209 549 , 214 549 
Q 219 549 , 224 549 
L 224 550 
Q 217 549 , 213 549 
Q 209 549 , 204 549 
Q 194 549 , 188 550 
Q 183 550 , 183 550 
Q 183 551 , 188 551 
Q 194 551 , 204 551 
Q 209 551 , 212 551 
Q 216 551 , 217 551 
" fill="#F5C000" />
<path d="
M 225 549 
L 234 549 
L 234 551 
Q 234 551 , 238 551 
Q 241 551 , 250 551 
Q 259 551 , 262 551 
Q 266 551 , 266 551 
L 266 549 
L 275 549 
L 275 551 
Q 275 551 , 269 551 
Q 262 552 , 250 552 
Q 238 552 , 231 551 
Q 225 551 , 225 551 
L 225 549 
" fill="lightgray" />
<path d="
M 175 540 
L 184 540 
L 184 545 
Q 184 547 , 188 547 
Q 191 548 , 200 548 
Q 209 548 , 212 547 
Q 216 547 , 216 545 
L 216 540 
L 225 540 
L 225 545 
Q 225 547 , 219 548 
Q 212 549 , 200 549 
Q 188 549 , 181 548 
Q 175 547 , 175 545 
L 175 540 
" fill="#D21010" />
<path d="
M 267 547 
L 267 545 
L 253 545 
L 253 544 
L 275 544 
L 275 548 
Q 270 548 , 264 548 
Q 259 549 , 253 549 
Q 240 549 , 233 547 
Q 225 546 , 225 544 
Q 225 542 , 233 541 
Q 240 540 , 253 540 
Q 259 540 , 264 540 
Q 269 540 , 274 541 
L 274 542 
Q 267 541 , 263 541 
Q 259 541 , 254 541 
Q 244 541 , 238 542 
Q 233 543 , 233 544 
Q 233 546 , 238 547 
Q 244 548 , 254 548 
Q 259 548 , 262 548 
Q 266 548 , 267 547 
" fill="lightgray" />
<path d="
M 217 536 
L 217 529 
L 203 529 
L 203 527 
L 225 527 
L 225 538 
Q 220 539 , 214 539 
Q 209 540 , 203 540 
Q 190 540 , 183 536 
Q 175 533 , 175 527 
Q 175 522 , 183 518 
Q 190 515 , 203 515 
Q 209 515 , 214 515 
Q 219 516 , 224 517 
L 224 520 
Q 217 519 , 213 518 
Q 209 518 , 204 518 
Q 194 518 , 188 520 
Q 183 523 , 183 527 
Q 183 532 , 188 534 
Q 194 537 , 204 537 
Q 209 537 , 212 537 
Q 216 536 , 217 536 
" fill="#F5C000" />
<path d="
M 275 518 
L 275 521 
Q 268 519 , 264 518 
Q 259 518 , 254 518 
Q 244 518 , 239 520 
Q 233 523 , 233 527 
Q 233 532 , 239 535 
Q 244 537 , 254 537 
Q 259 537 , 264 536 
Q 268 536 , 275 533 
L 275 537 
Q 270 538 , 264 539 
Q 260 540 , 254 540 
Q 240 540 , 233 536 
Q 225 533 , 225 527 
Q 225 522 , 233 518 
Q 240 515 , 254 515 
Q 260 515 , 265 516 
Q 270 516 , 275 518 
" fill="lightgray" />
<path d="
M 175 484 
L 184 484 
L 184 502 
Q 184 507 , 188 509 
Q 191 511 , 200 511 
Q 209 511 , 212 509 
Q 216 507 , 216 502 
L 216 484 
L 225 484 
L 225 502 
Q 225 508 , 219 511 
Q 212 514 , 200 514 
Q 188 514 , 181 511 
Q 175 508 , 175 502 
L 175 484 
" fill="#D21010" />
<path d="
M 250 490 
L 241 502 
L 258 502 
L 250 490 
M 246 484 
L 254 484 
L 275 514 
L 267 514 
L 261 505 
L 239 505 
L 232 514 
L 225 514 
L 246 484 
" fill="lightgray" />
<path d="
M 225 417 
L 225 428 
Q 218 421 , 214 419 
Q 209 417 , 204 417 
Q 194 417 , 189 425 
Q 183 432 , 183 446 
Q 183 461 , 189 468 
Q 194 476 , 204 476 
Q 209 476 , 214 474 
Q 218 472 , 225 464 
L 225 476 
Q 220 480 , 214 482 
Q 210 484 , 204 484 
Q 190 484 , 183 474 
Q 175 464 , 175 446 
Q 175 429 , 183 419 
Q 190 409 , 204 409 
Q 210 409 , 215 411 
Q 220 413 , 225 417 
" fill="#545FFF" />
<path d="
M 267 473 
L 267 453 
L 253 453 
L 253 445 
L 275 445 
L 275 478 
Q 270 481 , 264 482 
Q 259 484 , 253 484 
Q 240 484 , 233 474 
Q 225 464 , 225 446 
Q 225 429 , 233 419 
Q 240 409 , 253 409 
Q 259 409 , 264 410 
Q 269 412 , 274 415 
L 274 425 
Q 267 420 , 263 419 
Q 259 418 , 254 418 
Q 244 418 , 238 425 
Q 233 432 , 233 446 
Q 233 461 , 238 468 
Q 244 475 , 254 475 
Q 259 475 , 262 475 
Q 266 474 , 267 473 
" fill="lightgray" />
<path d="
M 280 551 
L 298 551 
L 298 553 
Q 298 553 , 306 553 
Q 313 554 , 330 554 
Q 347 554 , 355 553 
Q 362 553 , 362 553 
L 362 551 
L 380 551 
L 380 553 
Q 380 553 , 367 554 
Q 355 554 , 330 554 
Q 306 554 , 293 554 
Q 280 553 , 280 553 
L 280 551 
" fill="#D21010" />
<path d="
M 380 537 
L 380 539 
Q 365 537 , 357 537 
Q 349 537 , 339 537 
Q 318 537 , 308 538 
Q 296 540 , 296 542 
Q 296 545 , 308 547 
Q 318 548 , 339 548 
Q 349 548 , 357 548 
Q 365 548 , 380 546 
L 380 549 
Q 369 549 , 359 550 
Q 349 550 , 338 550 
Q 311 550 , 296 548 
Q 280 546 , 280 543 
Q 280 539 , 296 537 
Q 311 535 , 338 535 
Q 349 535 , 359 535 
Q 370 536 , 380 537 
" fill="#545FFF" />
<path d="
M 330 514 
L 312 524 
L 346 524 
L 330 514 
M 323 510 
L 337 510 
L 380 534 
L 364 534 
L 352 527 
L 308 527 
L 295 534 
L 280 534 
L 323 510 
" fill="#339541" />
<path d="
M 364 498 
L 364 476 
L 335 476 
L 335 468 
L 380 468 
L 380 503 
Q 369 507 , 358 508 
Q 349 510 , 337 510 
Q 311 510 , 295 499 
Q 280 488 , 280 469 
Q 280 451 , 295 440 
Q 311 429 , 337 429 
Q 348 429 , 357 430 
Q 367 432 , 377 436 
L 377 446 
Q 364 441 , 356 440 
Q 347 439 , 338 439 
Q 317 439 , 306 446 
Q 296 454 , 296 469 
Q 296 485 , 306 493 
Q 317 501 , 338 501 
Q 347 501 , 354 500 
Q 361 499 , 364 498 
" fill="#F5C000" />
<path d="
M 485 550 
L 485 551 
Q 470 550 , 462 550 
Q 454 550 , 444 550 
Q 423 550 , 413 550 
Q 401 551 , 401 552 
Q 401 553 , 413 554 
Q 423 554 , 444 554 
Q 454 554 , 462 554 
Q 470 554 , 485 553 
L 485 554 
Q 474 555 , 464 555 
Q 454 555 , 443 555 
Q 416 555 , 401 554 
Q 385 553 , 385 552 
Q 385 551 , 401 550 
Q 416 549 , 443 549 
Q 454 549 , 464 549 
Q 475 549 , 485 550 
" fill="#545FFF" />
<path d="
M 385 536 
L 403 536 
L 403 543 
Q 403 546 , 411 546 
Q 418 547 , 435 547 
Q 452 547 , 460 546 
Q 467 546 , 467 543 
L 467 536 
L 485 536 
L 485 544 
Q 485 546 , 472 547 
Q 460 549 , 435 549 
Q 411 549 , 398 547 
Q 385 546 , 385 544 
L 385 536 
" fill="#D21010" />
<path d="
M 469 532 
L 469 526 
L 440 526 
L 440 524 
L 485 524 
L 485 533 
Q 474 534 , 463 535 
Q 454 535 , 442 535 
Q 416 535 , 400 532 
Q 385 529 , 385 524 
Q 385 519 , 400 516 
Q 416 513 , 442 513 
Q 453 513 , 462 513 
Q 472 514 , 482 515 
L 482 518 
Q 469 516 , 461 516 
Q 452 516 , 443 516 
Q 422 516 , 411 518 
Q 401 520 , 401 524 
Q 401 528 , 411 530 
Q 422 533 , 443 533 
Q 452 533 , 459 532 
Q 466 532 , 469 532 
" fill="#F5C000" />
<path d="
M 435 430 
L 417 471 
L 451 471 
L 435 430 
M 428 411 
L 442 411 
L 485 513 
L 469 513 
L 457 483 
L 413 483 
L 400 513 
L 385 513 
L 428 411 
" fill="#339541" />
<path d="
M 490 551 
L 508 551 
L 508 553 
Q 508 554 , 516 554 
Q 523 554 , 540 554 
Q 557 554 , 565 554 
Q 572 554 , 572 553 
L 572 551 
L 590 551 
L 590 553 
Q 590 554 , 577 554 
Q 565 554 , 540 554 
Q 516 554 , 503 554 
Q 490 554 , 490 553 
L 490 551 
" fill="#D21010" />
<path d="
M 590 543 
L 590 544 
Q 575 543 , 567 543 
Q 559 543 , 549 543 
Q 528 543 , 518 544 
Q 506 545 , 506 546 
Q 506 548 , 518 549 
Q 528 550 , 549 550 
Q 559 550 , 567 550 
Q 575 549 , 590 548 
L 590 550 
Q 579 550 , 569 551 
Q 559 551 , 548 551 
Q 521 551 , 506 550 
Q 490 548 , 490 546 
Q 490 544 , 506 543 
Q 521 542 , 548 542 
Q 559 542 , 569 542 
Q 580 542 , 590 543 
" fill="#545FFF" />
<path d="
M 574 538 
L 574 531 
L 545 531 
L 545 528 
L 590 528 
L 590 540 
Q 579 541 , 568 541 
Q 559 542 , 547 542 
Q 521 542 , 505 538 
Q 490 534 , 490 528 
Q 490 522 , 505 519 
Q 521 515 , 547 515 
Q 558 515 , 567 515 
Q 577 516 , 587 517 
L 587 521 
Q 574 519 , 566 519 
Q 557 518 , 548 518 
Q 527 518 , 516 521 
Q 506 523 , 506 528 
Q 506 534 , 516 536 
Q 527 539 , 548 539 
Q 557 539 , 564 538 
Q 571 538 , 574 538 
" fill="#F5C000" />
<path d="
M 540 491 
L 522 503 
L 556 503 
L 540 491 
M 533 486 
L 547 486 
L 590 514 
L 574 514 
L 562 506 
L 518 506 
L 505 514 
L 490 514 
L 533 486 
" fill="#339541" />
<path d="
M 595 553 
L 613 553 
L 613 554 
Q 613 554 , 621 554 
Q 628 554 , 645 554 
Q 662 554 , 670 554 
Q 677 554 , 677 554 
L 677 553 
L 695 553 
L 695 554 
Q 695 554 , 682 554 
Q 670 555 , 645 555 
Q 621 555 , 608 554 
Q 595 554 , 595 554 
L 595 553 
" fill="#D21010" />
<path d="
M 645 542 
L 627 547 
L 661 547 
L 645 542 
M 638 539 
L 652 539 
L 695 553 
L 679 553 
L 667 549 
L 623 549 
L 610 553 
L 595 553 
L 638 539 
" fill="#339541" />
<path d="
M 695 514 
L 695 518 
Q 680 515 , 672 515 
Q 664 514 , 654 514 
Q 633 514 , 623 517 
Q 611 519 , 611 524 
Q 611 530 , 623 533 
Q 633 536 , 654 536 
Q 664 536 , 672 535 
Q 680 534 , 695 531 
L 695 536 
Q 684 537 , 674 538 
Q 664 539 , 653 539 
Q 626 539 , 611 535 
Q 595 531 , 595 525 
Q 595 518 , 611 515 
Q 626 511 , 653 511 
Q 664 511 , 674 512 
Q 685 512 , 695 514 
" fill="#545FFF" />
<path d="
M 679 504 
L 679 492 
L 650 492 
L 650 486 
L 695 486 
L 695 507 
Q 684 509 , 673 510 
Q 664 511 , 652 511 
Q 626 511 , 610 505 
Q 595 498 , 595 488 
Q 595 477 , 610 470 
Q 626 464 , 652 464 
Q 663 464 , 672 465 
Q 682 466 , 692 468 
L 692 474 
Q 679 471 , 671 470 
Q 662 470 , 653 470 
Q 632 470 , 621 474 
Q 611 478 , 611 488 
Q 611 497 , 621 501 
Q 632 506 , 653 506 
Q 662 506 , 669 505 
Q 676 505 , 679 504 
" fill="#F5C000" />
<path d="
M 800 554 
L 800 554 
Q 785 554 , 777 554 
Q 769 554 , 759 554 
Q 738 554 , 728 554 
Q 716 554 , 716 554 
Q 716 554 , 728 554 
Q 738 554 , 759 554 
Q 769 554 , 777 554 
Q 785 554 , 800 554 
L 800 554 
Q 789 554 , 779 554 
Q 769 554 , 758 554 
Q 731 554 , 716 554 
Q 700 554 , 700 554 
Q 700 554 , 716 554 
Q 731 554 , 758 554 
Q 769 554 , 779 554 
Q 790 554 , 800 554 
" fill="#545FFF" />
<path d="
M 700 553 
L 718 553 
L 718 553 
Q 718 553 , 726 553 
Q 733 553 , 750 553 
Q 767 553 , 775 553 
Q 782 553 , 782 553 
L 782 553 
L 800 553 
L 800 553 
Q 800 553 , 787 553 
Q 775 553 , 750 553 
Q 726 553 , 713 553 
Q 700 553 , 700 553 
L 700 553 
" fill="#D21010" />
<path d="
M 784 553 
L 784 552 
L 755 552 
L 755 552 
L 800 552 
L 800 553 
Q 789 553 , 778 553 
Q 769 553 , 757 553 
Q 731 553 , 715 553 
Q 700 552 , 700 552 
Q 700 552 , 715 552 
Q 731 552 , 757 552 
Q 768 552 , 777 552 
Q 787 552 , 797 552 
L 797 552 
Q 784 552 , 776 552 
Q 767 552 , 758 552 
Q 737 552 , 726 552 
Q 716 552 , 716 552 
Q 716 552 , 726 552 
Q 737 553 , 758 553 
Q 767 553 , 774 553 
Q 781 553 , 784 553 
" fill="#F5C000" />
<path d="
M 750 551 
L 732 551 
L 766 551 
L 750 551 
M 743 551 
L 757 551 
L 800 552 
L 784 552 
L 772 551 
L 728 551 
L 715 552 
L 700 552 
L 743 551 
" fill="#339541" />
<path d="
M 889 554 
L 889 553 
L 860 553 
L 860 553 
L 905 553 
L 905 554 
Q 894 554 , 883 554 
Q 874 554 , 862 554 
Q 836 554 , 820 554 
Q 805 554 , 805 553 
Q 805 553 , 820 552 
Q 836 552 , 862 552 
Q 873 552 , 882 552 
Q 892 552 , 902 552 
L 902 552 
Q 889 552 , 881 552 
Q 872 552 , 863 552 
Q 842 552 , 831 553 
Q 821 553 , 821 553 
Q 821 554 , 831 554 
Q 842 554 , 863 554 
Q 872 554 , 879 554 
Q 886 554 , 889 554 
" fill="#F5C000" />
<path d="
M 805 549 
L 823 549 
L 823 551 
Q 823 551 , 831 551 
Q 838 551 , 855 551 
Q 872 551 , 880 551 
Q 887 551 , 887 551 
L 887 549 
L 905 549 
L 905 551 
Q 905 551 , 892 551 
Q 880 552 , 855 552 
Q 831 552 , 818 551 
Q 805 551 , 805 551 
L 805 549 
" fill="#D21010" />
<path d="
M 905 546 
L 905 547 
Q 890 546 , 882 546 
Q 874 546 , 864 546 
Q 843 546 , 833 547 
Q 821 547 , 821 547 
Q 821 548 , 833 548 
Q 843 549 , 864 549 
Q 874 549 , 882 548 
Q 890 548 , 905 548 
L 905 549 
Q 894 549 , 884 549 
Q 874 549 , 863 549 
Q 836 549 , 821 548 
Q 805 548 , 805 547 
Q 805 547 , 821 546 
Q 836 546 , 863 546 
Q 874 546 , 884 546 
Q 895 546 , 905 546 
" fill="#545FFF" />
<path d="
M 855 542 
L 837 544 
L 871 544 
L 855 542 
M 848 541 
L 862 541 
L 905 546 
L 889 546 
L 877 544 
L 833 544 
L 820 546 
L 805 546 
L 848 541 
" fill="#339541" />
<path d="
M 935 552 
L 926 553 
L 943 553 
L 935 552 
M 931 552 
L 939 552 
L 960 554 
L 952 554 
L 946 554 
L 924 554 
L 917 554 
L 910 554 
L 931 552 
" fill="lightgray" />
<path d="
M 960 552 
L 969 552 
L 969 553 
Q 969 554 , 973 554 
Q 976 554 , 985 554 
Q 994 554 , 997 554 
Q 1001 554 , 1001 553 
L 1001 552 
L 1010 552 
L 1010 553 
Q 1010 554 , 1004 554 
Q 997 554 , 985 554 
Q 973 554 , 966 554 
Q 960 554 , 960 553 
L 960 552 
" fill="#D21010" />
<path d="
M 952 551 
L 952 551 
L 938 551 
L 938 550 
L 960 550 
L 960 551 
Q 955 552 , 949 552 
Q 944 552 , 938 552 
Q 925 552 , 918 551 
Q 910 551 , 910 550 
Q 910 550 , 918 549 
Q 925 549 , 938 549 
Q 944 549 , 949 549 
Q 954 549 , 959 549 
L 959 550 
Q 952 549 , 948 549 
Q 944 549 , 939 549 
Q 929 549 , 923 550 
Q 918 550 , 918 550 
Q 918 551 , 923 551 
Q 929 551 , 939 551 
Q 944 551 , 947 551 
Q 951 551 , 952 551 
" fill="lightgray" />
<path d="
M 960 549 
L 969 549 
L 969 551 
Q 969 551 , 973 551 
Q 976 551 , 985 551 
Q 994 551 , 997 551 
Q 1001 551 , 1001 551 
L 1001 549 
L 1010 549 
L 1010 551 
Q 1010 551 , 1004 551 
Q 997 552 , 985 552 
Q 973 552 , 966 551 
Q 960 551 , 960 551 
L 960 549 
" fill="#D21010" />
<path d="
M 910 540 
L 919 540 
L 919 545 
Q 919 547 , 923 547 
Q 926 548 , 935 548 
Q 944 548 , 947 547 
Q 951 547 , 951 545 
L 951 540 
L 960 540 
L 960 545 
Q 960 547 , 954 548 
Q 947 549 , 935 549 
Q 923 549 , 916 548 
Q 910 547 , 910 545 
L 910 540 
" fill="lightgray" />
<path d="
M 1002 547 
L 1002 545 
L 988 545 
L 988 544 
L 1010 544 
L 1010 548 
Q 1005 548 , 999 548 
Q 994 549 , 988 549 
Q 975 549 , 968 547 
Q 960 546 , 960 544 
Q 960 542 , 968 541 
Q 975 540 , 988 540 
Q 994 540 , 999 540 
Q 1004 540 , 1009 541 
L 1009 542 
Q 1002 541 , 998 541 
Q 994 541 , 989 541 
Q 979 541 , 973 542 
Q 968 543 , 968 544 
Q 968 546 , 973 547 
Q 979 548 , 989 548 
Q 994 548 , 997 548 
Q 1001 548 , 1002 547 
" fill="#F5C000" />
<path d="
M 952 536 
L 952 529 
L 938 529 
L 938 527 
L 960 527 
L 960 538 
Q 955 539 , 949 539 
Q 944 540 , 938 540 
Q 925 540 , 918 536 
Q 910 533 , 910 527 
Q 910 522 , 918 518 
Q 925 515 , 938 515 
Q 944 515 , 949 515 
Q 954 516 , 959 517 
L 959 520 
Q 952 519 , 948 518 
Q 944 518 , 939 518 
Q 929 518 , 923 520 
Q 918 523 , 918 527 
Q 918 532 , 923 534 
Q 929 537 , 939 537 
Q 944 537 , 947 537 
Q 951 536 , 952 536 
" fill="lightgray" />
<path d="
M 1010 518 
L 1010 521 
Q 1003 519 , 999 518 
Q 994 518 , 989 518 
Q 979 518 , 974 520 
Q 968 523 , 968 527 
Q 968 532 , 974 535 
Q 979 537 , 989 537 
Q 994 537 , 999 536 
Q 1003 536 , 1010 533 
L 1010 537 
Q 1005 538 , 999 539 
Q 995 540 , 989 540 
Q 975 540 , 968 536 
Q 960 533 , 960 527 
Q 960 522 , 968 518 
Q 975 515 , 989 515 
Q 995 515 , 1000 516 
Q 1005 516 , 1010 518 
" fill="#545FFF" />
<path d="
M 910 484 
L 919 484 
L 919 502 
Q 919 507 , 923 509 
Q 926 511 , 935 511 
Q 944 511 , 947 509 
Q 951 507 , 951 502 
L 951 484 
L 960 484 
L 960 502 
Q 960 508 , 954 511 
Q 947 514 , 935 514 
Q 923 514 , 916 511 
Q 910 508 , 910 502 
L 910 484 
" fill="lightgray" />
<path d="
M 985 490 
L 976 502 
L 993 502 
L 985 490 
M 981 484 
L 989 484 
L 1010 514 
L 1002 514 
L 996 505 
L 974 505 
L 967 514 
L 960 514 
L 981 484 
" fill="#339541" />
<path d="
M 960 417 
L 960 428 
Q 953 421 , 949 419 
Q 944 417 , 939 417 
Q 929 417 , 924 425 
Q 918 432 , 918 446 
Q 918 461 , 924 468 
Q 929 476 , 939 476 
Q 944 476 , 949 474 
Q 953 472 , 960 464 
L 960 476 
Q 955 480 , 949 482 
Q 945 484 , 939 484 
Q 925 484 , 918 474 
Q 910 464 , 910 446 
Q 910 429 , 918 419 
Q 925 409 , 939 409 
Q 945 409 , 950 411 
Q 955 413 , 960 417 
" fill="lightgray" />
<path d="
M 1002 473 
L 1002 453 
L 988 453 
L 988 445 
L 1010 445 
L 1010 478 
Q 1005 481 , 999 482 
Q 994 484 , 988 484 
Q 975 484 , 968 474 
Q 960 464 , 960 446 
Q 960 429 , 968 419 
Q 975 409 , 988 409 
Q 994 409 , 999 410 
Q 1004 412 , 1009 415 
L 1009 425 
Q 1002 420 , 998 419 
Q 994 418 , 989 418 
Q 979 418 , 973 425 
Q 968 432 , 968 446 
Q 968 461 , 973 468 
Q 979 475 , 989 475 
Q 994 475 , 997 475 
Q 1001 474 , 1002 473 
" fill="#F5C000" />
<path d="
M 1015 553 
L 1033 553 
L 1033 554 
Q 1033 554 , 1041 554 
Q 1048 555 , 1065 555 
Q 1082 555 , 1090 554 
Q 1097 554 , 1097 554 
L 1097 553 
L 1115 553 
L 1115 554 
Q 1115 554 , 1102 555 
Q 1090 555 , 1065 555 
Q 1041 555 , 1028 555 
Q 1015 554 , 1015 554 
L 1015 553 
" fill="#D21010" />
<path d="
M 1115 538 
L 1115 540 
Q 1100 539 , 1092 538 
Q 1084 538 , 1074 538 
Q 1053 538 , 1043 540 
Q 1031 541 , 1031 544 
Q 1031 548 , 1043 549 
Q 1053 551 , 1074 551 
Q 1084 551 , 1092 551 
Q 1100 550 , 1115 549 
L 1115 551 
Q 1104 552 , 1094 553 
Q 1084 553 , 1073 553 
Q 1046 553 , 1031 551 
Q 1015 548 , 1015 544 
Q 1015 541 , 1031 538 
Q 1046 536 , 1073 536 
Q 1084 536 , 1094 536 
Q 1105 537 , 1115 538 
" fill="#545FFF" />
<path d="
M 1099 532 
L 1099 525 
L 1070 525 
L 1070 522 
L 1115 522 
L 1115 534 
Q 1104 535 , 1093 535 
Q 1084 536 , 1072 536 
Q 1046 536 , 1030 532 
Q 1015 529 , 1015 523 
Q 1015 517 , 1030 513 
Q 1046 510 , 1072 510 
Q 1083 510 , 1092 510 
Q 1102 511 , 1112 512 
L 1112 515 
Q 1099 514 , 1091 514 
Q 1082 513 , 1073 513 
Q 1052 513 , 1041 516 
Q 1031 518 , 1031 523 
Q 1031 528 , 1041 531 
Q 1052 533 , 1073 533 
Q 1082 533 , 1089 533 
Q 1096 533 , 1099 532 
" fill="#F5C000" />
<path d="
M 1065 442 
L 1047 476 
L 1081 476 
L 1065 442 
M 1058 427 
L 1072 427 
L 1115 509 
L 1099 509 
L 1087 485 
L 1043 485 
L 1030 509 
L 1015 509 
L 1058 427 
" fill="#339541" />
<path d="
M 1204 554 
L 1204 552 
L 1175 552 
L 1175 552 
L 1220 552 
L 1220 554 
Q 1209 554 , 1198 554 
Q 1189 554 , 1177 554 
Q 1151 554 , 1135 554 
Q 1120 553 , 1120 552 
Q 1120 550 , 1135 550 
Q 1151 549 , 1177 549 
Q 1188 549 , 1197 549 
Q 1207 549 , 1217 549 
L 1217 550 
Q 1204 550 , 1196 550 
Q 1187 550 , 1178 550 
Q 1157 550 , 1146 550 
Q 1136 551 , 1136 552 
Q 1136 553 , 1146 553 
Q 1157 554 , 1178 554 
Q 1187 554 , 1194 554 
Q 1201 554 , 1204 554 
" fill="#F5C000" />
<path d="
M 1220 537 
L 1220 539 
Q 1205 538 , 1197 538 
Q 1189 537 , 1179 537 
Q 1158 537 , 1148 539 
Q 1136 540 , 1136 542 
Q 1136 545 , 1148 546 
Q 1158 547 , 1179 547 
Q 1189 547 , 1197 547 
Q 1205 546 , 1220 545 
L 1220 547 
Q 1209 548 , 1199 548 
Q 1189 548 , 1178 548 
Q 1151 548 , 1136 547 
Q 1120 545 , 1120 542 
Q 1120 539 , 1136 538 
Q 1151 536 , 1178 536 
Q 1189 536 , 1199 536 
Q 1210 537 , 1220 537 
" fill="#545FFF" />
<path d="
M 1120 518 
L 1138 518 
L 1138 528 
Q 1138 531 , 1146 533 
Q 1153 534 , 1170 534 
Q 1187 534 , 1195 533 
Q 1202 531 , 1202 528 
L 1202 518 
L 1220 518 
L 1220 529 
Q 1220 532 , 1207 534 
Q 1195 536 , 1170 536 
Q 1146 536 , 1133 534 
Q 1120 532 , 1120 529 
L 1120 518 
" fill="#D21010" />
<path d="
M 1170 472 
L 1152 495 
L 1186 495 
L 1170 472 
M 1163 462 
L 1177 462 
L 1220 517 
L 1204 517 
L 1192 501 
L 1148 501 
L 1135 517 
L 1120 517 
L 1163 462 
" fill="#339541" />
<path d="
M 1225 552 
L 1243 552 
L 1243 554 
Q 1243 554 , 1251 554 
Q 1258 555 , 1275 555 
Q 1292 555 , 1300 554 
Q 1307 554 , 1307 554 
L 1307 552 
L 1325 552 
L 1325 554 
Q 1325 554 , 1312 555 
Q 1300 555 , 1275 555 
Q 1251 555 , 1238 555 
Q 1225 554 , 1225 554 
L 1225 552 
" fill="#D21010" />
<path d="
M 1275 536 
L 1257 544 
L 1291 544 
L 1275 536 
M 1268 533 
L 1282 533 
L 1325 552 
L 1309 552 
L 1297 546 
L 1253 546 
L 1240 552 
L 1225 552 
L 1268 533 
" fill="#339541" />
<path d="
M 1325 514 
L 1325 517 
Q 1310 515 , 1302 515 
Q 1294 514 , 1284 514 
Q 1263 514 , 1253 516 
Q 1241 518 , 1241 522 
Q 1241 527 , 1253 529 
Q 1263 531 , 1284 531 
Q 1294 531 , 1302 530 
Q 1310 530 , 1325 527 
L 1325 531 
Q 1314 532 , 1304 532 
Q 1294 533 , 1283 533 
Q 1256 533 , 1241 530 
Q 1225 527 , 1225 522 
Q 1225 518 , 1241 515 
Q 1256 512 , 1283 512 
Q 1294 512 , 1304 513 
Q 1315 513 , 1325 514 
" fill="#545FFF" />
<path d="
M 1309 498 
L 1309 472 
L 1280 472 
L 1280 461 
L 1325 461 
L 1325 504 
Q 1314 509 , 1303 510 
Q 1294 512 , 1282 512 
Q 1256 512 , 1240 499 
Q 1225 486 , 1225 463 
Q 1225 441 , 1240 428 
Q 1256 415 , 1282 415 
Q 1293 415 , 1302 417 
Q 1312 418 , 1322 423 
L 1322 435 
Q 1309 430 , 1301 428 
Q 1292 427 , 1283 427 
Q 1262 427 , 1251 436 
Q 1241 445 , 1241 463 
Q 1241 482 , 1251 492 
Q 1262 501 , 1283 501 
Q 1292 501 , 1299 500 
Q 1306 499 , 1309 498 
" fill="#F5C000" />
<path d="
M 1430 554 
L 1430 554 
Q 1415 554 , 1407 554 
Q 1399 554 , 1389 554 
Q 1368 554 , 1358 554 
Q 1346 554 , 1346 554 
Q 1346 554 , 1358 554 
Q 1368 554 , 1389 554 
Q 1399 554 , 1407 554 
Q 1415 554 , 1430 554 
L 1430 554 
Q 1419 554 , 1409 554 
Q 1399 554 , 1388 554 
Q 1361 554 , 1346 554 
Q 1330 554 , 1330 554 
Q 1330 554 , 1346 554 
Q 1361 554 , 1388 554 
Q 1399 554 , 1409 554 
Q 1420 554 , 1430 554 
" fill="#545FFF" />
<path d="
M 1330 553 
L 1348 553 
L 1348 553 
Q 1348 553 , 1356 553 
Q 1363 553 , 1380 553 
Q 1397 553 , 1405 553 
Q 1412 553 , 1412 553 
L 1412 553 
L 1430 553 
L 1430 553 
Q 1430 553 , 1417 553 
Q 1405 553 , 1380 553 
Q 1356 553 , 1343 553 
Q 1330 553 , 1330 553 
L 1330 553 
" fill="#D21010" />
<path d="
M 1414 553 
L 1414 552 
L 1385 552 
L 1385 552 
L 1430 552 
L 1430 553 
Q 1419 553 , 1408 553 
Q 1399 553 , 1387 553 
Q 1361 553 , 1345 553 
Q 1330 552 , 1330 552 
Q 1330 552 , 1345 552 
Q 1361 552 , 1387 552 
Q 1398 552 , 1407 552 
Q 1417 552 , 1427 552 
L 1427 552 
Q 1414 552 , 1406 552 
Q 1397 552 , 1388 552 
Q 1367 552 , 1356 552 
Q 1346 552 , 1346 552 
Q 1346 552 , 1356 552 
Q 1367 553 , 1388 553 
Q 1397 553 , 1404 553 
Q 1411 553 , 1414 553 
" fill="#F5C000" />
<path d="
M 1380 551 
L 1362 551 
L 1396 551 
L 1380 551 
M 1373 551 
L 1387 551 
L 1430 552 
L 1414 552 
L 1402 551 
L 1358 551 
L 1345 552 
L 1330 552 
L 1373 551 
" fill="#339541" />
<path d="M 65 168 L 65 555 " stroke="black" stroke-width="1.5"/>
<path d="M 55 555 L 65 555 " stroke="black" stroke-width="4"/>
<text text-anchor="end" x="50" y="555" font-size="50" alignment-baseline="middle">0</text>
<path d="M 55 362 L 65 362 " stroke="black" stroke-width="4"/>
<text text-anchor="end" x="50" y="362" font-size="50" alignment-baseline="middle">1</text>
<path d="M 55 168 L 65 168 " stroke="black" stroke-width="4"/>
<text text-anchor="end" x="50" y="168" font-size="50" alignment-baseline="middle">2</text>
<text text-anchor="middle" x="750" y="50" font-size="50" alignment-baseline="baseline"></text>
G<path d="
M 160 582 
L 126 595 
L 160 608 
L 157 611 
L 123 598 
L 123 623 
L 117 623 
L 117 599 
L 83 611 
L 80 608 
L 114 595 
L 80 582 
L 83 579 
L 117 591 
L 117 567 
L 123 567 
L 123 591 
L 157 579 
L 160 582 
" fill="black" />
<path d="
M 265 567 
Q 236 574 , 223 581 
Q 210 588 , 210 595 
Q 210 602 , 223 609 
Q 236 616 , 265 623 
L 241 623 
Q 213 616 , 199 609 
Q 185 602 , 185 595 
Q 185 588 , 199 581 
Q 213 574 , 241 567 
L 265 567 
" fill="black" />
<path d="
" fill="black" />
<path d="
M 316 567 
L 343 567 
L 343 623 
L 316 623 
L 316 567 
" fill="black" />
<path d="
" fill="black" />
<path d="
" fill="black" />
<path d="
M 421 567 
L 448 567 
L 448 623 
L 421 623 
L 421 567 
" fill="black" />
<path d="
" fill="black" />
<path d="
" fill="black" />
<path d="
M 526 567 
L 553 567 
L 553 623 
L 526 623 
L 526 567 
" fill="black" />
<path d="
" fill="black" />
<path d="
" fill="black" />
<path d="
M 622 567 
L 642 567 
L 642 623 
L 622 623 
L 622 567 
" fill="black" />
<path d="
" fill="black" />
<path d="
M 672 567 
L 692 567 
L 692 571 
L 680 623 
L 677 623 
L 689 571 
L 672 571 
L 672 567 
" fill="black" />
<path d="
M 790 582 
L 756 595 
L 790 608 
L 787 611 
L 753 598 
L 753 623 
L 747 623 
L 747 599 
L 713 611 
L 710 608 
L 744 595 
L 710 582 
L 713 579 
L 747 591 
L 747 567 
L 753 567 
L 753 591 
L 787 579 
L 790 582 
" fill="black" />
<path d="
" fill="black" />
<path d="
M 841 567 
L 868 567 
L 868 623 
L 841 623 
L 841 567 
" fill="black" />
<path d="
" fill="black" />
<path d="
M 920 567 
L 944 567 
Q 972 574 , 986 581 
Q 1000 588 , 1000 595 
Q 1000 602 , 986 609 
Q 972 616 , 944 623 
L 920 623 
Q 949 616 , 962 609 
Q 975 602 , 975 595 
Q 975 588 , 962 581 
Q 949 574 , 920 567 
" fill="black" />
<path d="
" fill="black" />
<path d="
M 1051 567 
L 1078 567 
L 1078 623 
L 1051 623 
L 1051 567 
" fill="black" />
<path d="
" fill="black" />
<path d="
" fill="black" />
<path d="
M 1156 567 
L 1183 567 
L 1183 623 
L 1156 623 
L 1156 567 
" fill="black" />
<path d="
" fill="black" />
<path d="
" fill="black" />
<path d="
M 1261 567 
L 1288 567 
L 1288 623 
L 1261 623 
L 1261 567 
" fill="black" />
<path d="
" fill="black" />
<path d="
M 1420 582 
L 1386 595 
L 1420 608 
L 1417 611 
L 1383 598 
L 1383 623 
L 1377 623 
L 1377 599 
L 1343 611 
L 1340 608 
L 1374 595 
L 1340 582 
L 1343 579 
L 1377 591 
L 1377 567 
L 1383 567 
L 1383 591 
L 1417 579 
L 1420 582 
" fill="black" />
</svg>
