<svg xmlns="http://www.w3.org/2000/svg"
viewBox="0 0 1435 635">
<path d="
M 120 553 
L 102 554 
L 136 554 
L 120 553 
M 113 553 
L 127 553 
L 170 554 
L 154 554 
L 142 554 
L 98 554 
L 85 554 
L 70 554 
L 113 553 
" fill="#339541" />
<path d="
M 70 551 
L 88 551 
L 88 552 
Q 88 552 , 96 552 
Q 103 552 , 120 552 
Q 137 552 , 145 552 
Q 152 552 , 152 552 
L 152 551 
L 170 551 
L 170 552 
Q 170 552 , 157 552 
Q 145 553 , 120 553 
Q 96 553 , 83 552 
Q 70 552 , 70 552 
L 70 551 
" fill="#D21010" />
<path d="
M 170 549 
L 170 549 
Q 155 549 , 147 549 
Q 139 549 , 129 549 
Q 108 549 , 98 549 
Q 86 550 , 86 550 
Q 86 550 , 98 550 
Q 108 551 , 129 551 
Q 139 551 , 147 551 
Q 155 550 , 170 550 
L 170 551 
Q 159 551 , 149 551 
Q 139 551 , 128 551 
Q 101 551 , 86 551 
Q 70 550 , 70 550 
Q 70 549 , 86 549 
Q 101 549 , 128 549 
Q 139 549 , 149 549 
Q 160 549 , 170 549 
" fill="#545FFF" />
<path d="
M 154 548 
L 154 547 
L 125 547 
L 125 547 
L 170 547 
L 170 548 
Q 159 548 , 148 548 
Q 139 549 , 127 549 
Q 101 549 , 85 548 
Q 70 548 , 70 547 
Q 70 547 , 85 546 
Q 101 546 , 127 546 
Q 138 546 , 147 546 
Q 157 546 , 167 546 
L 167 547 
Q 154 546 , 146 546 
Q 137 546 , 128 546 
Q 107 546 , 96 547 
Q 86 547 , 86 547 
Q 86 548 , 96 548 
Q 107 548 , 128 548 
Q 137 548 , 144 548 
Q 151 548 , 154 548 
" fill="#F5C000" />
<path d="
M 200 553 
L 191 554 
L 208 554 
L 200 553 
M 196 553 
L 204 553 
L 225 554 
L 217 554 
L 211 554 
L 189 554 
L 182 554 
L 175 554 
L 196 553 
" fill="#339541" />
<path d="
M 225 553 
L 234 553 
L 234 554 
Q 234 554 , 238 554 
Q 241 554 , 250 554 
Q 259 554 , 262 554 
Q 266 554 , 266 554 
L 266 553 
L 275 553 
L 275 554 
Q 275 554 , 269 554 
Q 262 554 , 250 554 
Q 238 554 , 231 554 
Q 225 554 , 225 554 
L 225 553 
" fill="lightgray" />
<path d="
M 217 552 
L 217 551 
L 203 551 
L 203 551 
L 225 551 
L 225 552 
Q 220 552 , 214 552 
Q 209 552 , 203 552 
Q 190 552 , 183 552 
Q 175 552 , 175 551 
Q 175 551 , 183 550 
Q 190 550 , 203 550 
Q 209 550 , 214 550 
Q 219 550 , 224 550 
L 224 550 
Q 217 550 , 213 550 
Q 209 550 , 204 550 
Q 194 550 , 188 550 
Q 183 551 , 183 551 
Q 183 552 , 188 552 
Q 194 552 , 204 552 
Q 209 552 , 212 552 
Q 216 552 , 217 552 
" fill="#F5C000" />
<path d="
M 225 550 
L 234 550 
L 234 551 
Q 234 552 , 238 552 
Q 241 552 , 250 552 
Q 259 552 , 262 552 
Q 266 552 , 266 551 
L 266 550 
L 275 550 
L 275 551 
Q 275 552 , 269 552 
Q 262 552 , 250 552 
Q 238 552 , 231 552 
Q 225 552 , 225 551 
L 225 550 
" fill="lightgray" />
<path d="
M 175 544 
L 184 544 
L 184 547 
Q 184 548 , 188 548 
Q 191 549 , 200 549 
Q 209 549 , 212 548 
Q 216 548 , 216 547 
L 216 544 
L 225 544 
L 225 547 
Q 225 548 , 219 549 
Q 212 549 , 200 549 
Q 188 549 , 181 549 
Q 175 548 , 175 547 
L 175 544 
" fill="#D21010" />
<path d="
M 267 549 
L 267 547 
L 253 547 
L 253 547 
L 275 547 
L 275 549 
Q 270 549 , 264 549 
Q 259 549 , 253 549 
Q 240 549 , 233 549 
Q 225 548 , 225 547 
Q 225 545 , 233 545 
Q 240 544 , 253 544 
Q 259 544 , 264 544 
Q 269 544 , 274 544 
L 274 545 
Q 267 545 , 263 545 
Q 259 545 , 254 545 
Q 244 545 , 238 545 
Q 233 546 , 233 547 
Q 233 548 , 238 548 
Q 244 549 , 254 549 
Q 259 549 , 262 549 
Q 266 549 , 267 549 
" fill="lightgray" />
<path d="
M 175 532 
L 184 532 
L 184 539 
Q 184 541 , 188 541 
Q 191 542 , 200 542 
Q 209 542 , 212 541 
Q 216 541 , 216 539 
L 216 532 
L 225 532 
L 225 539 
Q 225 541 , 219 542 
Q 212 543 , 200 543 
Q 188 543 , 181 542 
Q 175 541 , 175 539 
L 175 532 
" fill="#D21010" />
<path d="
M 250 534 
L 241 539 
L 258 539 
L 250 534 
M 246 532 
L 254 532 
L 275 543 
L 267 543 
L 261 540 
L 239 540 
L 232 543 
L 225 543 
L 246 532 
" fill="lightgray" />
<path d="
M 225 460 
L 225 473 
Q 218 465 , 214 463 
Q 209 461 , 204 461 
Q 194 461 , 189 468 
Q 183 476 , 183 491 
Q 183 507 , 189 515 
Q 194 523 , 204 523 
Q 209 523 , 214 521 
Q 218 519 , 225 511 
L 225 523 
Q 220 528 , 214 530 
Q 210 531 , 204 531 
Q 190 531 , 183 521 
Q 175 510 , 175 492 
Q 175 473 , 183 463 
Q 190 452 , 204 452 
Q 210 452 , 215 454 
Q 220 456 , 225 460 
" fill="#545FFF" />
<path d="
M 267 520 
L 267 499 
L 253 499 
L 253 490 
L 275 490 
L 275 525 
Q 270 529 , 264 530 
Q 259 531 , 253 531 
Q 240 531 , 233 521 
Q 225 510 , 225 492 
Q 225 473 , 233 463 
Q 240 452 , 253 452 
Q 259 452 , 264 453 
Q 269 455 , 274 458 
L 274 469 
Q 267 464 , 263 463 
Q 259 461 , 254 461 
Q 244 461 , 238 469 
Q 233 476 , 233 492 
Q 233 507 , 238 515 
Q 244 523 , 254 523 
Q 259 523 , 262 522 
Q 266 521 , 267 520 
" fill="lightgray" />
<path d="
M 217 436 
L 217 407 
L 203 407 
L 203 395 
L 225 395 
L 225 443 
Q 220 448 , 214 450 
Q 209 452 , 203 452 
Q 190 452 , 183 437 
Q 175 423 , 175 397 
Q 175 371 , 183 357 
Q 190 342 , 203 342 
Q 209 342 , 214 344 
Q 219 346 , 224 351 
L 224 365 
Q 217 359 , 213 357 
Q 209 355 , 204 355 
Q 194 355 , 188 365 
Q 183 376 , 183 397 
Q 183 419 , 188 429 
Q 194 440 , 204 440 
Q 209 440 , 212 439 
Q 216 437 , 217 436 
" fill="#F5C000" />
<path d="
M 275 354 
L 275 371 
Q 268 360 , 264 357 
Q 259 354 , 254 354 
Q 244 354 , 239 365 
Q 233 376 , 233 397 
Q 233 418 , 239 429 
Q 244 440 , 254 440 
Q 259 440 , 264 437 
Q 268 434 , 275 423 
L 275 441 
Q 270 447 , 264 449 
Q 260 452 , 254 452 
Q 240 452 , 233 437 
Q 225 422 , 225 397 
Q 225 372 , 233 357 
Q 240 342 , 254 342 
Q 260 342 , 265 345 
Q 270 347 , 275 354 
" fill="lightgray" />
<path d="
M 280 548 
L 298 548 
L 298 552 
Q 298 553 , 306 553 
Q 313 553 , 330 553 
Q 347 553 , 355 553 
Q 362 553 , 362 552 
L 362 548 
L 380 548 
L 380 552 
Q 380 553 , 367 553 
Q 355 554 , 330 554 
Q 306 554 , 293 553 
Q 280 553 , 280 552 
L 280 548 
" fill="#D21010" />
<path d="
M 380 540 
L 380 541 
Q 365 540 , 357 540 
Q 349 540 , 339 540 
Q 318 540 , 308 541 
Q 296 541 , 296 543 
Q 296 545 , 308 545 
Q 318 546 , 339 546 
Q 349 546 , 357 546 
Q 365 546 , 380 545 
L 380 546 
Q 369 547 , 359 547 
Q 349 547 , 338 547 
Q 311 547 , 296 546 
Q 280 545 , 280 543 
Q 280 541 , 296 540 
Q 311 539 , 338 539 
Q 349 539 , 359 539 
Q 370 539 , 380 540 
" fill="#545FFF" />
<path d="
M 330 515 
L 312 527 
L 346 527 
L 330 515 
M 323 510 
L 337 510 
L 380 538 
L 364 538 
L 352 530 
L 308 530 
L 295 538 
L 280 538 
L 323 510 
" fill="#339541" />
<path d="
M 364 491 
L 364 457 
L 335 457 
L 335 443 
L 380 443 
L 380 500 
Q 369 505 , 358 507 
Q 349 509 , 337 510 
Q 311 510 , 295 492 
Q 280 475 , 280 445 
Q 280 415 , 295 398 
Q 311 381 , 337 381 
Q 348 381 , 357 383 
Q 367 386 , 377 391 
L 377 408 
Q 364 401 , 356 398 
Q 347 396 , 338 396 
Q 317 396 , 306 408 
Q 296 421 , 296 445 
Q 296 471 , 306 483 
Q 317 495 , 338 495 
Q 347 495 , 354 494 
Q 361 493 , 364 491 
" fill="#F5C000" />
<path d="
M 427 554 
L 427 554 
L 413 554 
L 413 553 
L 435 553 
L 435 554 
Q 430 554 , 424 554 
Q 419 554 , 413 554 
Q 400 554 , 393 554 
Q 385 554 , 385 554 
Q 385 553 , 393 553 
Q 400 553 , 413 553 
Q 419 553 , 424 553 
Q 429 553 , 434 553 
L 434 553 
Q 427 553 , 423 553 
Q 419 553 , 414 553 
Q 404 553 , 398 553 
Q 393 553 , 393 554 
Q 393 554 , 398 554 
Q 404 554 , 414 554 
Q 419 554 , 422 554 
Q 426 554 , 427 554 
" fill="#F5C000" />
<path d="
M 435 553 
L 444 553 
L 444 554 
Q 444 554 , 448 554 
Q 451 554 , 460 554 
Q 469 554 , 472 554 
Q 476 554 , 476 554 
L 476 553 
L 485 553 
L 485 554 
Q 485 554 , 479 554 
Q 472 554 , 460 554 
Q 448 554 , 441 554 
Q 435 554 , 435 554 
L 435 553 
" fill="lightgray" />
<path d="
M 410 549 
L 401 551 
L 418 551 
L 410 549 
M 406 548 
L 414 548 
L 435 552 
L 427 552 
L 421 551 
L 399 551 
L 392 552 
L 385 552 
L 406 548 
" fill="#339541" />
<path d="
M 435 548 
L 444 548 
L 444 551 
Q 444 551 , 448 552 
Q 451 552 , 460 552 
Q 469 552 , 472 552 
Q 476 551 , 476 551 
L 476 548 
L 485 548 
L 485 551 
Q 485 552 , 479 552 
Q 472 552 , 460 552 
Q 448 552 , 441 552 
Q 435 552 , 435 551 
L 435 548 
" fill="lightgray" />
<path d="
M 385 540 
L 394 540 
L 394 545 
Q 394 546 , 398 547 
Q 401 547 , 410 547 
Q 419 547 , 422 547 
Q 426 546 , 426 545 
L 426 540 
L 435 540 
L 435 545 
Q 435 546 , 429 547 
Q 422 548 , 410 548 
Q 398 548 , 391 547 
Q 385 546 , 385 545 
L 385 540 
" fill="#D21010" />
<path d="
M 460 541 
L 451 545 
L 468 545 
L 460 541 
M 456 540 
L 464 540 
L 485 548 
L 477 548 
L 471 546 
L 449 546 
L 442 548 
L 435 548 
L 456 540 
" fill="lightgray" />
<path d="
M 427 538 
L 427 535 
L 413 535 
L 413 533 
L 435 533 
L 435 538 
Q 430 539 , 424 539 
Q 419 539 , 413 539 
Q 400 539 , 393 538 
Q 385 536 , 385 534 
Q 385 531 , 393 530 
Q 400 528 , 413 528 
Q 419 528 , 424 528 
Q 429 528 , 434 529 
L 434 530 
Q 427 530 , 423 530 
Q 419 529 , 414 529 
Q 404 529 , 398 530 
Q 393 531 , 393 534 
Q 393 536 , 398 537 
Q 404 538 , 414 538 
Q 419 538 , 422 538 
Q 426 538 , 427 538 
" fill="#F5C000" />
<path d="
M 485 529 
L 485 531 
Q 478 530 , 474 530 
Q 469 529 , 464 529 
Q 454 529 , 449 530 
Q 443 531 , 443 533 
Q 443 536 , 449 537 
Q 454 538 , 464 538 
Q 469 538 , 474 538 
Q 478 537 , 485 536 
L 485 538 
Q 480 539 , 474 539 
Q 470 539 , 464 539 
Q 450 539 , 443 538 
Q 435 536 , 435 534 
Q 435 531 , 443 530 
Q 450 528 , 464 528 
Q 470 528 , 475 528 
Q 480 529 , 485 529 
" fill="lightgray" />
<path d="
M 435 515 
L 435 517 
Q 428 515 , 424 515 
Q 419 515 , 414 515 
Q 404 515 , 399 516 
Q 393 517 , 393 520 
Q 393 523 , 399 524 
Q 404 526 , 414 526 
Q 419 526 , 424 525 
Q 428 525 , 435 524 
L 435 526 
Q 430 527 , 424 527 
Q 420 527 , 414 527 
Q 400 527 , 393 525 
Q 385 523 , 385 520 
Q 385 517 , 393 515 
Q 400 513 , 414 513 
Q 420 513 , 425 513 
Q 430 514 , 435 515 
" fill="#545FFF" />
<path d="
M 477 525 
L 477 521 
L 463 521 
L 463 520 
L 485 520 
L 485 526 
Q 480 527 , 474 527 
Q 469 527 , 463 527 
Q 450 527 , 443 525 
Q 435 523 , 435 520 
Q 435 517 , 443 515 
Q 450 513 , 463 513 
Q 469 513 , 474 513 
Q 479 514 , 484 514 
L 484 516 
Q 477 515 , 473 515 
Q 469 515 , 464 515 
Q 454 515 , 448 516 
Q 443 517 , 443 520 
Q 443 523 , 448 524 
Q 454 526 , 464 526 
Q 469 526 , 472 525 
Q 476 525 , 477 525 
" fill="lightgray" />
<path d="
M 385 497 
L 394 497 
L 394 506 
Q 394 509 , 398 510 
Q 401 511 , 410 511 
Q 419 511 , 422 510 
Q 426 509 , 426 506 
L 426 497 
L 435 497 
L 435 506 
Q 435 509 , 429 511 
Q 422 512 , 410 512 
Q 398 512 , 391 511 
Q 385 509 , 385 506 
L 385 497 
" fill="#D21010" />
<path d="
M 477 510 
L 477 506 
L 463 506 
L 463 504 
L 485 504 
L 485 511 
Q 480 512 , 474 512 
Q 469 512 , 463 512 
Q 450 512 , 443 510 
Q 435 508 , 435 505 
Q 435 501 , 443 499 
Q 450 497 , 463 497 
Q 469 497 , 474 497 
Q 479 498 , 484 498 
L 484 500 
Q 477 499 , 473 499 
Q 469 499 , 464 499 
Q 454 499 , 448 500 
Q 443 502 , 443 505 
Q 443 508 , 448 509 
Q 454 511 , 464 511 
Q 469 511 , 472 511 
Q 476 510 , 477 510 
" fill="lightgray" />
<path d="
M 490 552 
L 508 552 
L 508 554 
Q 508 554 , 516 554 
Q 523 555 , 540 555 
Q 557 555 , 565 554 
Q 572 554 , 572 554 
L 572 552 
L 590 552 
L 590 554 
Q 590 554 , 577 555 
Q 565 555 , 540 555 
Q 516 555 , 503 555 
Q 490 554 , 490 554 
L 490 552 
" fill="#D21010" />
<path d="
M 574 549 
L 574 545 
L 545 545 
L 545 543 
L 590 543 
L 590 550 
Q 579 551 , 568 551 
Q 559 551 , 547 551 
Q 521 551 , 505 549 
Q 490 547 , 490 544 
Q 490 540 , 505 538 
Q 521 536 , 547 536 
Q 558 536 , 567 536 
Q 577 537 , 587 537 
L 587 539 
Q 574 538 , 566 538 
Q 557 538 , 548 538 
Q 527 538 , 516 539 
Q 506 541 , 506 544 
Q 506 547 , 516 548 
Q 527 549 , 548 549 
Q 557 549 , 564 549 
Q 571 549 , 574 549 
" fill="#F5C000" />
<path d="
M 590 513 
L 590 517 
Q 575 514 , 567 513 
Q 559 513 , 549 513 
Q 528 513 , 518 515 
Q 506 518 , 506 523 
Q 506 528 , 518 530 
Q 528 533 , 549 533 
Q 559 533 , 567 532 
Q 575 531 , 590 529 
L 590 533 
Q 579 534 , 569 535 
Q 559 535 , 548 535 
Q 521 535 , 506 532 
Q 490 528 , 490 523 
Q 490 517 , 506 513 
Q 521 510 , 548 510 
Q 559 510 , 569 511 
Q 580 511 , 590 513 
" fill="#545FFF" />
<path d="
M 540 431 
L 522 470 
L 556 470 
L 540 431 
M 533 414 
L 547 414 
L 590 509 
L 574 509 
L 562 481 
L 518 481 
L 505 509 
L 490 509 
L 533 414 
" fill="#339541" />
<path d="
M 645 553 
L 627 554 
L 661 554 
L 645 553 
M 638 552 
L 652 552 
L 695 555 
L 679 555 
L 667 554 
L 623 554 
L 610 555 
L 595 555 
L 638 552 
" fill="#339541" />
<path d="
M 695 541 
L 695 543 
Q 680 542 , 672 542 
Q 664 541 , 654 541 
Q 633 541 , 623 542 
Q 611 544 , 611 546 
Q 611 548 , 623 549 
Q 633 550 , 654 550 
Q 664 550 , 672 550 
Q 680 550 , 695 549 
L 695 551 
Q 684 551 , 674 551 
Q 664 552 , 653 552 
Q 626 552 , 611 550 
Q 595 549 , 595 546 
Q 595 543 , 611 542 
Q 626 540 , 653 540 
Q 664 540 , 674 540 
Q 685 541 , 695 541 
" fill="#545FFF" />
<path d="
M 595 518 
L 613 518 
L 613 531 
Q 613 534 , 621 536 
Q 628 537 , 645 537 
Q 662 537 , 670 536 
Q 677 534 , 677 531 
L 677 518 
L 695 518 
L 695 531 
Q 695 535 , 682 537 
Q 670 539 , 645 539 
Q 621 539 , 608 537 
Q 595 535 , 595 531 
L 595 518 
" fill="#D21010" />
<path d="
M 679 512 
L 679 502 
L 650 502 
L 650 497 
L 695 497 
L 695 514 
Q 684 516 , 673 517 
Q 664 517 , 652 517 
Q 626 517 , 610 512 
Q 595 507 , 595 498 
Q 595 489 , 610 484 
Q 626 479 , 652 479 
Q 663 479 , 672 480 
Q 682 480 , 692 482 
L 692 487 
Q 679 485 , 671 484 
Q 662 484 , 653 484 
Q 632 484 , 621 487 
Q 611 491 , 611 498 
Q 611 506 , 621 509 
Q 632 513 , 653 513 
Q 662 513 , 669 513 
Q 676 512 , 679 512 
" fill="#F5C000" />
<path d="
M 750 553 
L 732 554 
L 766 554 
L 750 553 
M 743 553 
L 757 553 
L 800 554 
L 784 554 
L 772 554 
L 728 554 
L 715 554 
L 700 554 
L 743 553 
" fill="#339541" />
<path d="
M 700 551 
L 718 551 
L 718 552 
Q 718 552 , 726 552 
Q 733 552 , 750 552 
Q 767 552 , 775 552 
Q 782 552 , 782 552 
L 782 551 
L 800 551 
L 800 552 
Q 800 552 , 787 552 
Q 775 553 , 750 553 
Q 726 553 , 713 552 
Q 700 552 , 700 552 
L 700 551 
" fill="#D21010" />
<path d="
M 800 549 
L 800 549 
Q 785 549 , 777 549 
Q 769 549 , 759 549 
Q 738 549 , 728 549 
Q 716 550 , 716 550 
Q 716 550 , 728 550 
Q 738 551 , 759 551 
Q 769 551 , 777 551 
Q 785 550 , 800 550 
L 800 551 
Q 789 551 , 779 551 
Q 769 551 , 758 551 
Q 731 551 , 716 551 
Q 700 550 , 700 550 
Q 700 549 , 716 549 
Q 731 549 , 758 549 
Q 769 549 , 779 549 
Q 790 549 , 800 549 
" fill="#545FFF" />
<path d="
M 784 548 
L 784 547 
L 755 547 
L 755 547 
L 800 547 
L 800 548 
Q 789 548 , 778 548 
Q 769 549 , 757 549 
Q 731 549 , 715 548 
Q 700 548 , 700 547 
Q 700 547 , 715 546 
Q 731 546 , 757 546 
Q 768 546 , 777 546 
Q 787 546 , 797 546 
L 797 547 
Q 784 546 , 776 546 
Q 767 546 , 758 546 
Q 737 546 , 726 547 
Q 716 547 , 716 547 
Q 716 548 , 726 548 
Q 737 548 , 758 548 
Q 767 548 , 774 548 
Q 781 548 , 784 548 
" fill="#F5C000" />
<path d="
M 855 552 
L 837 553 
L 871 553 
L 855 552 
M 848 551 
L 862 551 
L 905 554 
L 889 554 
L 877 553 
L 833 553 
L 820 554 
L 805 554 
L 848 551 
" fill="#339541" />
<path d="
M 805 545 
L 823 545 
L 823 548 
Q 823 549 , 831 550 
Q 838 550 , 855 550 
Q 872 550 , 880 550 
Q 887 549 , 887 548 
L 887 545 
L 905 545 
L 905 548 
Q 905 549 , 892 550 
Q 880 551 , 855 551 
Q 831 551 , 818 550 
Q 805 549 , 805 548 
L 805 545 
" fill="#D21010" />
<path d="
M 905 517 
L 905 522 
Q 890 519 , 882 518 
Q 874 517 , 864 517 
Q 843 517 , 833 520 
Q 821 523 , 821 529 
Q 821 535 , 833 538 
Q 843 541 , 864 541 
Q 874 541 , 882 540 
Q 890 539 , 905 536 
L 905 541 
Q 894 543 , 884 544 
Q 874 544 , 863 544 
Q 836 544 , 821 540 
Q 805 536 , 805 529 
Q 805 522 , 821 518 
Q 836 514 , 863 514 
Q 874 514 , 884 515 
Q 895 515 , 905 517 
" fill="#545FFF" />
<path d="
M 889 487 
L 889 437 
L 860 437 
L 860 417 
L 905 417 
L 905 499 
Q 894 507 , 883 510 
Q 874 513 , 862 514 
Q 836 514 , 820 489 
Q 805 464 , 805 421 
Q 805 378 , 820 353 
Q 836 328 , 862 328 
Q 873 328 , 882 331 
Q 892 335 , 902 343 
L 902 367 
Q 889 356 , 881 353 
Q 872 350 , 863 350 
Q 842 350 , 831 367 
Q 821 385 , 821 421 
Q 821 457 , 831 475 
Q 842 493 , 863 493 
Q 872 493 , 879 491 
Q 886 489 , 889 487 
" fill="#F5C000" />
<path d="
M 952 554 
L 952 554 
L 938 554 
L 938 553 
L 960 553 
L 960 554 
Q 955 554 , 949 554 
Q 944 554 , 938 554 
Q 925 554 , 918 554 
Q 910 554 , 910 554 
Q 910 553 , 918 553 
Q 925 553 , 938 553 
Q 944 553 , 949 553 
Q 954 553 , 959 553 
L 959 553 
Q 952 553 , 948 553 
Q 944 553 , 939 553 
Q 929 553 , 923 553 
Q 918 553 , 918 554 
Q 918 554 , 923 554 
Q 929 554 , 939 554 
Q 944 554 , 947 554 
Q 951 554 , 952 554 
" fill="lightgray" />
<path d="
M 960 553 
L 969 553 
L 969 554 
Q 969 554 , 973 554 
Q 976 554 , 985 554 
Q 994 554 , 997 554 
Q 1001 554 , 1001 554 
L 1001 553 
L 1010 553 
L 1010 554 
Q 1010 554 , 1004 554 
Q 997 554 , 985 554 
Q 973 554 , 966 554 
Q 960 554 , 960 554 
L 960 553 
" fill="#D21010" />
<path d="
M 935 549 
L 926 551 
L 943 551 
L 935 549 
M 931 548 
L 939 548 
L 960 552 
L 952 552 
L 946 551 
L 924 551 
L 917 552 
L 910 552 
L 931 548 
" fill="lightgray" />
<path d="
M 960 548 
L 969 548 
L 969 551 
Q 969 551 , 973 552 
Q 976 552 , 985 552 
Q 994 552 , 997 552 
Q 1001 551 , 1001 551 
L 1001 548 
L 1010 548 
L 1010 551 
Q 1010 552 , 1004 552 
Q 997 552 , 985 552 
Q 973 552 , 966 552 
Q 960 552 , 960 551 
L 960 548 
" fill="#D21010" />
<path d="
M 910 540 
L 919 540 
L 919 545 
Q 919 546 , 923 547 
Q 926 547 , 935 547 
Q 944 547 , 947 547 
Q 951 546 , 951 545 
L 951 540 
L 960 540 
L 960 545 
Q 960 546 , 954 547 
Q 947 548 , 935 548 
Q 923 548 , 916 547 
Q 910 546 , 910 545 
L 910 540 
" fill="lightgray" />
<path d="
M 985 541 
L 976 545 
L 993 545 
L 985 541 
M 981 540 
L 989 540 
L 1010 548 
L 1002 548 
L 996 546 
L 974 546 
L 967 548 
L 960 548 
L 981 540 
" fill="#339541" />
<path d="
M 952 538 
L 952 535 
L 938 535 
L 938 533 
L 960 533 
L 960 538 
Q 955 539 , 949 539 
Q 944 539 , 938 539 
Q 925 539 , 918 538 
Q 910 536 , 910 534 
Q 910 531 , 918 530 
Q 925 528 , 938 528 
Q 944 528 , 949 528 
Q 954 528 , 959 529 
L 959 530 
Q 952 530 , 948 530 
Q 944 529 , 939 529 
Q 929 529 , 923 530 
Q 918 531 , 918 534 
Q 918 536 , 923 537 
Q 929 538 , 939 538 
Q 944 538 , 947 538 
Q 951 538 , 952 538 
" fill="lightgray" />
<path d="
M 1010 529 
L 1010 531 
Q 1003 530 , 999 530 
Q 994 529 , 989 529 
Q 979 529 , 974 530 
Q 968 531 , 968 533 
Q 968 536 , 974 537 
Q 979 538 , 989 538 
Q 994 538 , 999 538 
Q 1003 537 , 1010 536 
L 1010 538 
Q 1005 539 , 999 539 
Q 995 539 , 989 539 
Q 975 539 , 968 538 
Q 960 536 , 960 534 
Q 960 531 , 968 530 
Q 975 528 , 989 528 
Q 995 528 , 1000 528 
Q 1005 529 , 1010 529 
" fill="#545FFF" />
<path d="
M 960 515 
L 960 517 
Q 953 515 , 949 515 
Q 944 515 , 939 515 
Q 929 515 , 924 516 
Q 918 517 , 918 520 
Q 918 523 , 924 524 
Q 929 526 , 939 526 
Q 944 526 , 949 525 
Q 953 525 , 960 524 
L 960 526 
Q 955 527 , 949 527 
Q 945 527 , 939 527 
Q 925 527 , 918 525 
Q 910 523 , 910 520 
Q 910 517 , 918 515 
Q 925 513 , 939 513 
Q 945 513 , 950 513 
Q 955 514 , 960 515 
" fill="lightgray" />
<path d="
M 1002 525 
L 1002 521 
L 988 521 
L 988 520 
L 1010 520 
L 1010 526 
Q 1005 527 , 999 527 
Q 994 527 , 988 527 
Q 975 527 , 968 525 
Q 960 523 , 960 520 
Q 960 517 , 968 515 
Q 975 513 , 988 513 
Q 994 513 , 999 513 
Q 1004 514 , 1009 514 
L 1009 516 
Q 1002 515 , 998 515 
Q 994 515 , 989 515 
Q 979 515 , 973 516 
Q 968 517 , 968 520 
Q 968 523 , 973 524 
Q 979 526 , 989 526 
Q 994 526 , 997 525 
Q 1001 525 , 1002 525 
" fill="#F5C000" />
<path d="
M 910 497 
L 919 497 
L 919 506 
Q 919 509 , 923 510 
Q 926 511 , 935 511 
Q 944 511 , 947 510 
Q 951 509 , 951 506 
L 951 497 
L 960 497 
L 960 506 
Q 960 509 , 954 511 
Q 947 512 , 935 512 
Q 923 512 , 916 511 
Q 910 509 , 910 506 
L 910 497 
" fill="lightgray" />
<path d="
M 1002 510 
L 1002 506 
L 988 506 
L 988 504 
L 1010 504 
L 1010 511 
Q 1005 512 , 999 512 
Q 994 512 , 988 512 
Q 975 512 , 968 510 
Q 960 508 , 960 505 
Q 960 501 , 968 499 
Q 975 497 , 988 497 
Q 994 497 , 999 497 
Q 1004 498 , 1009 498 
L 1009 500 
Q 1002 499 , 998 499 
Q 994 499 , 989 499 
Q 979 499 , 973 500 
Q 968 502 , 968 505 
Q 968 508 , 973 509 
Q 979 511 , 989 511 
Q 994 511 , 997 511 
Q 1001 510 , 1002 510 
" fill="#F5C000" />
<path d="
M 1115 548 
L 1115 549 
Q 1100 548 , 1092 548 
Q 1084 548 , 1074 548 
Q 1053 548 , 1043 549 
Q 1031 549 , 1031 550 
Q 1031 552 , 1043 553 
Q 1053 554 , 1074 554 
Q 1084 554 , 1092 553 
Q 1100 553 , 1115 553 
L 1115 554 
Q 1104 554 , 1094 554 
Q 1084 554 , 1073 554 
Q 1046 554 , 1031 553 
Q 1015 552 , 1015 551 
Q 1015 549 , 1031 548 
Q 1046 547 , 1073 547 
Q 1084 547 , 1094 547 
Q 1105 547 , 1115 548 
" fill="#545FFF" />
<path d="
M 1065 536 
L 1047 541 
L 1081 541 
L 1065 536 
M 1058 534 
L 1072 534 
L 1115 546 
L 1099 546 
L 1087 543 
L 1043 543 
L 1030 546 
L 1015 546 
L 1058 534 
" fill="#339541" />
<path d="
M 1099 531 
L 1099 527 
L 1070 527 
L 1070 526 
L 1115 526 
L 1115 532 
Q 1104 533 , 1093 533 
Q 1084 533 , 1072 533 
Q 1046 533 , 1030 531 
Q 1015 529 , 1015 526 
Q 1015 523 , 1030 521 
Q 1046 519 , 1072 519 
Q 1083 519 , 1092 519 
Q 1102 520 , 1112 520 
L 1112 522 
Q 1099 521 , 1091 521 
Q 1082 521 , 1073 521 
Q 1052 521 , 1041 522 
Q 1031 523 , 1031 526 
Q 1031 529 , 1041 530 
Q 1052 532 , 1073 532 
Q 1082 532 , 1089 531 
Q 1096 531 , 1099 531 
" fill="#F5C000" />
<path d="
M 1015 463 
L 1033 463 
L 1033 495 
Q 1033 505 , 1041 508 
Q 1048 512 , 1065 512 
Q 1082 512 , 1090 508 
Q 1097 505 , 1097 495 
L 1097 463 
L 1115 463 
L 1115 496 
Q 1115 507 , 1102 512 
Q 1090 518 , 1065 518 
Q 1041 518 , 1028 512 
Q 1015 507 , 1015 496 
L 1015 463 
" fill="#D21010" />
<path d="
M 1145 553 
L 1136 554 
L 1153 554 
L 1145 553 
M 1141 553 
L 1149 553 
L 1170 554 
L 1162 554 
L 1156 554 
L 1134 554 
L 1127 554 
L 1120 554 
L 1141 553 
" fill="lightgray" />
<path d="
M 1170 553 
L 1179 553 
L 1179 554 
Q 1179 554 , 1183 554 
Q 1186 554 , 1195 554 
Q 1204 554 , 1207 554 
Q 1211 554 , 1211 554 
L 1211 553 
L 1220 553 
L 1220 554 
Q 1220 554 , 1214 554 
Q 1207 554 , 1195 554 
Q 1183 554 , 1176 554 
Q 1170 554 , 1170 554 
L 1170 553 
" fill="#D21010" />
<path d="
M 1162 552 
L 1162 551 
L 1148 551 
L 1148 551 
L 1170 551 
L 1170 552 
Q 1165 552 , 1159 552 
Q 1154 552 , 1148 552 
Q 1135 552 , 1128 552 
Q 1120 552 , 1120 551 
Q 1120 551 , 1128 550 
Q 1135 550 , 1148 550 
Q 1154 550 , 1159 550 
Q 1164 550 , 1169 550 
L 1169 550 
Q 1162 550 , 1158 550 
Q 1154 550 , 1149 550 
Q 1139 550 , 1133 550 
Q 1128 551 , 1128 551 
Q 1128 552 , 1133 552 
Q 1139 552 , 1149 552 
Q 1154 552 , 1157 552 
Q 1161 552 , 1162 552 
" fill="lightgray" />
<path d="
M 1170 550 
L 1179 550 
L 1179 551 
Q 1179 552 , 1183 552 
Q 1186 552 , 1195 552 
Q 1204 552 , 1207 552 
Q 1211 552 , 1211 551 
L 1211 550 
L 1220 550 
L 1220 551 
Q 1220 552 , 1214 552 
Q 1207 552 , 1195 552 
Q 1183 552 , 1176 552 
Q 1170 552 , 1170 551 
L 1170 550 
" fill="#D21010" />
<path d="
M 1120 544 
L 1129 544 
L 1129 547 
Q 1129 548 , 1133 548 
Q 1136 549 , 1145 549 
Q 1154 549 , 1157 548 
Q 1161 548 , 1161 547 
L 1161 544 
L 1170 544 
L 1170 547 
Q 1170 548 , 1164 549 
Q 1157 549 , 1145 549 
Q 1133 549 , 1126 549 
Q 1120 548 , 1120 547 
L 1120 544 
" fill="lightgray" />
<path d="
M 1212 549 
L 1212 547 
L 1198 547 
L 1198 547 
L 1220 547 
L 1220 549 
Q 1215 549 , 1209 549 
Q 1204 549 , 1198 549 
Q 1185 549 , 1178 549 
Q 1170 548 , 1170 547 
Q 1170 545 , 1178 545 
Q 1185 544 , 1198 544 
Q 1204 544 , 1209 544 
Q 1214 544 , 1219 544 
L 1219 545 
Q 1212 545 , 1208 545 
Q 1204 545 , 1199 545 
Q 1189 545 , 1183 545 
Q 1178 546 , 1178 547 
Q 1178 548 , 1183 548 
Q 1189 549 , 1199 549 
Q 1204 549 , 1207 549 
Q 1211 549 , 1212 549 
" fill="#F5C000" />
<path d="
M 1120 532 
L 1129 532 
L 1129 539 
Q 1129 541 , 1133 541 
Q 1136 542 , 1145 542 
Q 1154 542 , 1157 541 
Q 1161 541 , 1161 539 
L 1161 532 
L 1170 532 
L 1170 539 
Q 1170 541 , 1164 542 
Q 1157 543 , 1145 543 
Q 1133 543 , 1126 542 
Q 1120 541 , 1120 539 
L 1120 532 
" fill="lightgray" />
<path d="
M 1195 534 
L 1186 539 
L 1203 539 
L 1195 534 
M 1191 532 
L 1199 532 
L 1220 543 
L 1212 543 
L 1206 540 
L 1184 540 
L 1177 543 
L 1170 543 
L 1191 532 
" fill="#339541" />
<path d="
M 1170 460 
L 1170 473 
Q 1163 465 , 1159 463 
Q 1154 461 , 1149 461 
Q 1139 461 , 1134 468 
Q 1128 476 , 1128 491 
Q 1128 507 , 1134 515 
Q 1139 523 , 1149 523 
Q 1154 523 , 1159 521 
Q 1163 519 , 1170 511 
L 1170 523 
Q 1165 528 , 1159 530 
Q 1155 531 , 1149 531 
Q 1135 531 , 1128 521 
Q 1120 510 , 1120 492 
Q 1120 473 , 1128 463 
Q 1135 452 , 1149 452 
Q 1155 452 , 1160 454 
Q 1165 456 , 1170 460 
" fill="lightgray" />
<path d="
M 1212 520 
L 1212 499 
L 1198 499 
L 1198 490 
L 1220 490 
L 1220 525 
Q 1215 529 , 1209 530 
Q 1204 531 , 1198 531 
Q 1185 531 , 1178 521 
Q 1170 510 , 1170 492 
Q 1170 473 , 1178 463 
Q 1185 452 , 1198 452 
Q 1204 452 , 1209 453 
Q 1214 455 , 1219 458 
L 1219 469 
Q 1212 464 , 1208 463 
Q 1204 461 , 1199 461 
Q 1189 461 , 1183 469 
Q 1178 476 , 1178 492 
Q 1178 507 , 1183 515 
Q 1189 523 , 1199 523 
Q 1204 523 , 1207 522 
Q 1211 521 , 1212 520 
" fill="#F5C000" />
<path d="
M 1162 436 
L 1162 407 
L 1148 407 
L 1148 395 
L 1170 395 
L 1170 443 
Q 1165 448 , 1159 450 
Q 1154 452 , 1148 452 
Q 1135 452 , 1128 437 
Q 1120 423 , 1120 397 
Q 1120 371 , 1128 357 
Q 1135 342 , 1148 342 
Q 1154 342 , 1159 344 
Q 1164 346 , 1169 351 
L 1169 365 
Q 1162 359 , 1158 357 
Q 1154 355 , 1149 355 
Q 1139 355 , 1133 365 
Q 1128 376 , 1128 397 
Q 1128 419 , 1133 429 
Q 1139 440 , 1149 440 
Q 1154 440 , 1157 439 
Q 1161 437 , 1162 436 
" fill="lightgray" />
<path d="
M 1220 354 
L 1220 371 
Q 1213 360 , 1209 357 
Q 1204 354 , 1199 354 
Q 1189 354 , 1184 365 
Q 1178 376 , 1178 397 
Q 1178 418 , 1184 429 
Q 1189 440 , 1199 440 
Q 1204 440 , 1209 437 
Q 1213 434 , 1220 423 
L 1220 441 
Q 1215 447 , 1209 449 
Q 1205 452 , 1199 452 
Q 1185 452 , 1178 437 
Q 1170 422 , 1170 397 
Q 1170 372 , 1178 357 
Q 1185 342 , 1199 342 
Q 1205 342 , 1210 345 
Q 1215 347 , 1220 354 
" fill="#545FFF" />
<path d="
M 1309 554 
L 1309 553 
L 1280 553 
L 1280 553 
L 1325 553 
L 1325 554 
Q 1314 554 , 1303 554 
Q 1294 554 , 1282 554 
Q 1256 554 , 1240 554 
Q 1225 554 , 1225 553 
Q 1225 553 , 1240 552 
Q 1256 552 , 1282 552 
Q 1293 552 , 1302 552 
Q 1312 552 , 1322 552 
L 1322 553 
Q 1309 552 , 1301 552 
Q 1292 552 , 1283 552 
Q 1262 552 , 1251 553 
Q 1241 553 , 1241 553 
Q 1241 554 , 1251 554 
Q 1262 554 , 1283 554 
Q 1292 554 , 1299 554 
Q 1306 554 , 1309 554 
" fill="#F5C000" />
<path d="
M 1275 549 
L 1257 550 
L 1291 550 
L 1275 549 
M 1268 548 
L 1282 548 
L 1325 551 
L 1309 551 
L 1297 550 
L 1253 550 
L 1240 551 
L 1225 551 
L 1268 548 
" fill="#339541" />
<path d="
M 1325 543 
L 1325 544 
Q 1310 544 , 1302 544 
Q 1294 543 , 1284 543 
Q 1263 543 , 1253 544 
Q 1241 544 , 1241 545 
Q 1241 546 , 1253 546 
Q 1263 547 , 1284 547 
Q 1294 547 , 1302 546 
Q 1310 546 , 1325 546 
L 1325 547 
Q 1314 547 , 1304 547 
Q 1294 547 , 1283 547 
Q 1256 547 , 1241 546 
Q 1225 546 , 1225 545 
Q 1225 544 , 1241 544 
Q 1256 543 , 1283 543 
Q 1294 543 , 1304 543 
Q 1315 543 , 1325 543 
" fill="#545FFF" />
<path d="
M 1225 536 
L 1243 536 
L 1243 540 
Q 1243 541 , 1251 541 
Q 1258 542 , 1275 542 
Q 1292 542 , 1300 541 
Q 1307 541 , 1307 540 
L 1307 536 
L 1325 536 
L 1325 540 
Q 1325 541 , 1312 542 
Q 1300 542 , 1275 542 
Q 1251 542 , 1238 542 
Q 1225 541 , 1225 540 
L 1225 536 
" fill="#D21010" />
<path d="
M 1380 553 
L 1362 554 
L 1396 554 
L 1380 553 
M 1373 553 
L 1387 553 
L 1430 554 
L 1414 554 
L 1402 554 
L 1358 554 
L 1345 554 
L 1330 554 
L 1373 553 
" fill="#339541" />
<path d="
M 1330 551 
L 1348 551 
L 1348 552 
Q 1348 552 , 1356 552 
Q 1363 552 , 1380 552 
Q 1397 552 , 1405 552 
Q 1412 552 , 1412 552 
L 1412 551 
L 1430 551 
L 1430 552 
Q 1430 552 , 1417 552 
Q 1405 553 , 1380 553 
Q 1356 553 , 1343 552 
Q 1330 552 , 1330 552 
L 1330 551 
" fill="#D21010" />
<path d="
M 1430 549 
L 1430 549 
Q 1415 549 , 1407 549 
Q 1399 549 , 1389 549 
Q 1368 549 , 1358 549 
Q 1346 550 , 1346 550 
Q 1346 550 , 1358 550 
Q 1368 551 , 1389 551 
Q 1399 551 , 1407 551 
Q 1415 550 , 1430 550 
L 1430 551 
Q 1419 551 , 1409 551 
Q 1399 551 , 1388 551 
Q 1361 551 , 1346 551 
Q 1330 550 , 1330 550 
Q 1330 549 , 1346 549 
Q 1361 549 , 1388 549 
Q 1399 549 , 1409 549 
Q 1420 549 , 1430 549 
" fill="#545FFF" />
<path d="
M 1414 548 
L 1414 547 
L 1385 547 
L 1385 547 
L 1430 547 
L 1430 548 
Q 1419 548 , 1408 548 
Q 1399 549 , 1387 549 
Q 1361 549 , 1345 548 
Q 1330 548 , 1330 547 
Q 1330 547 , 1345 546 
Q 1361 546 , 1387 546 
Q 1398 546 , 1407 546 
Q 1417 546 , 1427 546 
L 1427 547 
Q 1414 546 , 1406 546 
Q 1397 546 , 1388 546 
Q 1367 546 , 1356 547 
Q 1346 547 , 1346 547 
Q 1346 548 , 1356 548 
Q 1367 548 , 1388 548 
Q 1397 548 , 1404 548 
Q 1411 548 , 1414 548 
" fill="#F5C000" />
<path d="M 65 168 L 65 555 " stroke="black" stroke-width="1.5"/>
<path d="M 55 555 L 65 555 " stroke="black" stroke-width="4"/>
<text text-anchor="end" x="50" y="555" font-size="50" alignment-baseline="middle">0</text>
<path d="M 55 362 L 65 362 " stroke="black" stroke-width="4"/>
<text text-anchor="end" x="50" y="362" font-size="50" alignment-baseline="middle">1</text>
<path d="M 55 168 L 65 168 " stroke="black" stroke-width="4"/>
<text text-anchor="end" x="50" y="168" font-size="50" alignment-baseline="middle">2</text>
<text text-anchor="middle" x="750" y="50" font-size="50" alignment-baseline="baseline"></text>
G<path d="
M 115 582 
L 98 595 
L 115 608 
L 113 611 
L 97 598 
L 97 623 
L 93 623 
L 93 599 
L 77 611 
L 75 608 
L 92 595 
L 75 582 
L 77 579 
L 93 591 
L 93 567 
L 97 567 
L 97 591 
L 113 579 
L 115 582 
" fill="black" />
<path d="
M 131 619 
L 165 619 
L 165 623 
L 125 623 
L 125 619 
L 140 604 
Q 146 599 , 150 595 
Q 155 591 , 156 589 
Q 157 587 , 157 583 
Q 157 577 , 153 573 
Q 150 571 , 144 571 
Q 139 571 , 134 573 
Q 132 574 , 126 577 
L 126 573 
Q 128 571 , 133 569 
Q 138 567 , 143 567 
Q 151 567 , 157 571 
Q 162 574 , 162 583 
Q 162 586 , 161 589 
Q 159 593 , 156 597 
Q 155 598 , 149 603 
L 131 619 
" fill="black" />
<path d="
M 265 567 
Q 236 574 , 223 581 
Q 210 588 , 210 595 
Q 210 602 , 223 609 
Q 236 616 , 265 623 
L 241 623 
Q 213 616 , 199 609 
Q 185 602 , 185 595 
Q 185 588 , 199 581 
Q 213 574 , 241 567 
L 265 567 
" fill="black" />
<path d="
" fill="black" />
<path d="
M 316 567 
L 343 567 
L 343 623 
L 316 623 
L 316 567 
" fill="black" />
<path d="
" fill="black" />
<path d="
M 475 567 
Q 446 574 , 433 581 
Q 420 588 , 420 595 
Q 420 602 , 433 609 
Q 446 616 , 475 623 
L 451 623 
Q 423 616 , 409 609 
Q 395 602 , 395 595 
Q 395 588 , 409 581 
Q 423 574 , 451 567 
L 475 567 
" fill="black" />
<path d="
" fill="black" />
<path d="
M 526 567 
L 553 567 
L 553 623 
L 526 623 
L 526 567 
" fill="black" />
<path d="
" fill="black" />
<path d="
" fill="black" />
<path d="
M 622 567 
L 642 567 
L 642 623 
L 622 623 
L 622 567 
" fill="black" />
<path d="
" fill="black" />
<path d="
M 674 621 
L 674 616 
Q 675 618 , 677 619 
Q 678 619 , 680 619 
Q 686 619 , 688 609 
Q 689 604 , 689 595 
Q 689 597 , 687 600 
Q 685 603 , 681 603 
Q 677 603 , 675 598 
Q 672 593 , 672 586 
Q 672 577 , 675 572 
Q 677 567 , 682 567 
Q 687 567 , 689 574 
Q 692 581 , 692 595 
Q 692 609 , 689 616 
Q 685 623 , 680 623 
Q 678 623 , 677 622 
Q 675 622 , 674 621 
M 676 595 
Q 678 599 , 681 599 
Q 685 599 , 687 595 
Q 689 591 , 689 584 
Q 689 578 , 687 574 
Q 685 571 , 681 571 
Q 678 571 , 676 574 
Q 675 578 , 675 584 
Q 675 591 , 676 595 
" fill="black" />
<path d="
M 790 582 
L 756 595 
L 790 608 
L 787 611 
L 753 598 
L 753 623 
L 747 623 
L 747 599 
L 713 611 
L 710 608 
L 744 595 
L 710 582 
L 713 579 
L 747 591 
L 747 567 
L 753 567 
L 753 591 
L 787 579 
L 790 582 
" fill="black" />
<path d="
" fill="black" />
<path d="
M 841 567 
L 868 567 
L 868 623 
L 841 623 
L 841 567 
" fill="black" />
<path d="
" fill="black" />
<path d="
M 920 567 
L 944 567 
Q 972 574 , 986 581 
Q 1000 588 , 1000 595 
Q 1000 602 , 986 609 
Q 972 616 , 944 623 
L 920 623 
Q 949 616 , 962 609 
Q 975 602 , 975 595 
Q 975 588 , 962 581 
Q 949 574 , 920 567 
" fill="black" />
<path d="
" fill="black" />
<path d="
M 1042 567 
L 1062 567 
L 1062 623 
L 1042 623 
L 1042 567 
" fill="black" />
<path d="
" fill="black" />
<path d="
M 1095 619 
L 1112 619 
L 1112 623 
L 1092 623 
L 1092 619 
L 1100 604 
Q 1102 599 , 1105 595 
Q 1107 591 , 1107 589 
Q 1108 587 , 1108 583 
Q 1108 577 , 1106 573 
Q 1105 571 , 1101 571 
Q 1099 571 , 1097 573 
Q 1096 574 , 1092 577 
L 1092 573 
Q 1094 571 , 1096 569 
Q 1099 567 , 1101 567 
Q 1105 567 , 1108 571 
Q 1111 574 , 1111 583 
Q 1111 586 , 1110 589 
Q 1109 593 , 1107 597 
Q 1107 598 , 1104 603 
L 1095 619 
" fill="black" />
<path d="
M 1130 567 
L 1154 567 
Q 1182 574 , 1196 581 
Q 1210 588 , 1210 595 
Q 1210 602 , 1196 609 
Q 1182 616 , 1154 623 
L 1130 623 
Q 1159 616 , 1172 609 
Q 1185 602 , 1185 595 
Q 1185 588 , 1172 581 
Q 1159 574 , 1130 567 
" fill="black" />
<path d="
" fill="black" />
<path d="
M 1261 567 
L 1288 567 
L 1288 623 
L 1261 623 
L 1261 567 
" fill="black" />
<path d="
" fill="black" />
<path d="
M 1375 582 
L 1358 595 
L 1375 608 
L 1373 611 
L 1357 598 
L 1357 623 
L 1353 623 
L 1353 599 
L 1337 611 
L 1335 608 
L 1352 595 
L 1335 582 
L 1337 579 
L 1353 591 
L 1353 567 
L 1357 567 
L 1357 591 
L 1373 579 
L 1375 582 
" fill="black" />
<path d="
M 1391 619 
L 1425 619 
L 1425 623 
L 1385 623 
L 1385 619 
L 1400 604 
Q 1406 599 , 1410 595 
Q 1415 591 , 1416 589 
Q 1417 587 , 1417 583 
Q 1417 577 , 1413 573 
Q 1410 571 , 1404 571 
Q 1399 571 , 1394 573 
Q 1392 574 , 1386 577 
L 1386 573 
Q 1388 571 , 1393 569 
Q 1398 567 , 1403 567 
Q 1411 567 , 1417 571 
Q 1422 574 , 1422 583 
Q 1422 586 , 1421 589 
Q 1419 593 , 1416 597 
Q 1415 598 , 1409 603 
L 1391 619 
" fill="black" />
</svg>
