<svg xmlns="http://www.w3.org/2000/svg"
viewBox="0 0 1435 635">
<path d="
M 120 553 
L 102 554 
L 136 554 
L 120 553 
M 113 553 
L 127 553 
L 170 555 
L 154 555 
L 142 554 
L 98 554 
L 85 555 
L 70 555 
L 113 553 
" fill="#339541" />
<path d="
M 70 550 
L 88 550 
L 88 551 
Q 88 552 , 96 552 
Q 103 552 , 120 552 
Q 137 552 , 145 552 
Q 152 552 , 152 551 
L 152 550 
L 170 550 
L 170 551 
Q 170 552 , 157 552 
Q 145 552 , 120 552 
Q 96 552 , 83 552 
Q 70 552 , 70 551 
L 70 550 
" fill="#D21010" />
<path d="
M 170 546 
L 170 547 
Q 155 547 , 147 546 
Q 139 546 , 129 546 
Q 108 546 , 98 547 
Q 86 547 , 86 547 
Q 86 548 , 98 549 
Q 108 549 , 129 549 
Q 139 549 , 147 549 
Q 155 549 , 170 548 
L 170 549 
Q 159 549 , 149 549 
Q 139 549 , 128 549 
Q 101 549 , 86 549 
Q 70 548 , 70 548 
Q 70 547 , 86 546 
Q 101 546 , 128 546 
Q 139 546 , 149 546 
Q 160 546 , 170 546 
" fill="#545FFF" />
<path d="
M 154 545 
L 154 544 
L 125 544 
L 125 544 
L 170 544 
L 170 546 
Q 159 546 , 148 546 
Q 139 546 , 127 546 
Q 101 546 , 85 545 
Q 70 545 , 70 544 
Q 70 543 , 85 543 
Q 101 542 , 127 542 
Q 138 542 , 147 542 
Q 157 542 , 167 542 
L 167 543 
Q 154 543 , 146 543 
Q 137 542 , 128 542 
Q 107 542 , 96 543 
Q 86 543 , 86 544 
Q 86 545 , 96 545 
Q 107 546 , 128 546 
Q 137 546 , 144 545 
Q 151 545 , 154 545 
" fill="#F5C000" />
<path d="
M 225 549 
L 207 552 
L 241 552 
L 225 549 
M 218 548 
L 232 548 
L 275 554 
L 259 554 
L 247 552 
L 203 552 
L 190 554 
L 175 554 
L 218 548 
" fill="#339541" />
<path d="
M 175 539 
L 193 539 
L 193 544 
Q 193 545 , 201 546 
Q 208 546 , 225 546 
Q 242 546 , 250 546 
Q 257 545 , 257 544 
L 257 539 
L 275 539 
L 275 544 
Q 275 546 , 262 546 
Q 250 547 , 225 547 
Q 201 547 , 188 546 
Q 175 546 , 175 544 
L 175 539 
" fill="#D21010" />
<path d="
M 275 514 
L 275 518 
Q 260 515 , 252 515 
Q 244 514 , 234 514 
Q 213 514 , 203 517 
Q 191 519 , 191 524 
Q 191 530 , 203 533 
Q 213 535 , 234 535 
Q 244 535 , 252 535 
Q 260 534 , 275 531 
L 275 536 
Q 264 537 , 254 538 
Q 244 538 , 233 538 
Q 206 538 , 191 535 
Q 175 531 , 175 525 
Q 175 518 , 191 515 
Q 206 511 , 233 511 
Q 244 511 , 254 512 
Q 265 512 , 275 514 
" fill="#545FFF" />
<path d="
M 259 500 
L 259 481 
L 230 481 
L 230 473 
L 275 473 
L 275 505 
Q 264 508 , 253 509 
Q 244 510 , 232 510 
Q 206 510 , 190 501 
Q 175 491 , 175 474 
Q 175 457 , 190 448 
Q 206 438 , 232 438 
Q 243 438 , 252 439 
Q 262 441 , 272 444 
L 272 453 
Q 259 449 , 251 448 
Q 242 447 , 233 447 
Q 212 447 , 201 453 
Q 191 460 , 191 474 
Q 191 488 , 201 495 
Q 212 502 , 233 502 
Q 242 502 , 249 502 
Q 256 501 , 259 500 
" fill="#F5C000" />
<path d="
M 330 552 
L 312 553 
L 346 553 
L 330 552 
M 323 551 
L 337 551 
L 380 555 
L 364 555 
L 352 554 
L 308 554 
L 295 555 
L 280 555 
L 323 551 
" fill="#339541" />
<path d="
M 280 542 
L 298 542 
L 298 547 
Q 298 548 , 306 549 
Q 313 549 , 330 549 
Q 347 549 , 355 549 
Q 362 548 , 362 547 
L 362 542 
L 380 542 
L 380 547 
Q 380 549 , 367 549 
Q 355 550 , 330 550 
Q 306 550 , 293 549 
Q 280 549 , 280 547 
L 280 542 
" fill="#D21010" />
<path d="
M 364 540 
L 364 536 
L 335 536 
L 335 535 
L 380 535 
L 380 540 
Q 369 541 , 358 541 
Q 349 541 , 337 541 
Q 311 541 , 295 540 
Q 280 538 , 280 535 
Q 280 532 , 295 531 
Q 311 529 , 337 529 
Q 348 529 , 357 529 
Q 367 529 , 377 530 
L 377 532 
Q 364 531 , 356 531 
Q 347 530 , 338 530 
Q 317 530 , 306 532 
Q 296 533 , 296 535 
Q 296 538 , 306 539 
Q 317 540 , 338 540 
Q 347 540 , 354 540 
Q 361 540 , 364 540 
" fill="#F5C000" />
<path d="
M 380 509 
L 380 513 
Q 365 511 , 357 510 
Q 349 509 , 339 509 
Q 318 509 , 308 512 
Q 296 514 , 296 518 
Q 296 522 , 308 524 
Q 318 527 , 339 527 
Q 349 527 , 357 526 
Q 365 525 , 380 523 
L 380 527 
Q 369 528 , 359 528 
Q 349 529 , 338 529 
Q 311 529 , 296 526 
Q 280 523 , 280 518 
Q 280 513 , 296 510 
Q 311 507 , 338 507 
Q 349 507 , 359 508 
Q 370 508 , 380 509 
" fill="#545FFF" />
<path d="
M 410 551 
L 401 553 
L 418 553 
L 410 551 
M 406 550 
L 414 550 
L 435 555 
L 427 555 
L 421 553 
L 399 553 
L 392 555 
L 385 555 
L 406 550 
" fill="#339541" />
<path d="
M 435 550 
L 444 550 
L 444 553 
Q 444 554 , 448 554 
Q 451 554 , 460 554 
Q 469 554 , 472 554 
Q 476 554 , 476 553 
L 476 550 
L 485 550 
L 485 553 
Q 485 554 , 479 554 
Q 472 555 , 460 555 
Q 448 555 , 441 554 
Q 435 554 , 435 553 
L 435 550 
" fill="lightgray" />
<path d="
M 385 544 
L 394 544 
L 394 547 
Q 394 548 , 398 549 
Q 401 549 , 410 549 
Q 419 549 , 422 549 
Q 426 548 , 426 547 
L 426 544 
L 435 544 
L 435 547 
Q 435 548 , 429 549 
Q 422 550 , 410 550 
Q 398 550 , 391 549 
Q 385 548 , 385 547 
L 385 544 
" fill="#D21010" />
<path d="
M 477 549 
L 477 547 
L 463 547 
L 463 547 
L 485 547 
L 485 549 
Q 480 549 , 474 549 
Q 469 549 , 463 550 
Q 450 550 , 443 549 
Q 435 548 , 435 547 
Q 435 545 , 443 545 
Q 450 544 , 463 544 
Q 469 544 , 474 544 
Q 479 544 , 484 544 
L 484 545 
Q 477 545 , 473 545 
Q 469 545 , 464 545 
Q 454 545 , 448 545 
Q 443 546 , 443 547 
Q 443 548 , 448 548 
Q 454 549 , 464 549 
Q 469 549 , 472 549 
Q 476 549 , 477 549 
" fill="lightgray" />
<path d="
M 385 536 
L 394 536 
L 394 541 
Q 394 542 , 398 543 
Q 401 543 , 410 543 
Q 419 543 , 422 543 
Q 426 542 , 426 541 
L 426 536 
L 435 536 
L 435 541 
Q 435 542 , 429 543 
Q 422 544 , 410 544 
Q 398 544 , 391 543 
Q 385 542 , 385 541 
L 385 536 
" fill="#D21010" />
<path d="
M 460 537 
L 451 541 
L 468 541 
L 460 537 
M 456 536 
L 464 536 
L 485 544 
L 477 544 
L 471 542 
L 449 542 
L 442 544 
L 435 544 
L 456 536 
" fill="lightgray" />
<path d="
M 427 534 
L 427 532 
L 413 532 
L 413 531 
L 435 531 
L 435 535 
Q 430 536 , 424 536 
Q 419 536 , 413 536 
Q 400 536 , 393 535 
Q 385 533 , 385 531 
Q 385 529 , 393 527 
Q 400 526 , 413 526 
Q 419 526 , 424 526 
Q 429 526 , 434 527 
L 434 528 
Q 427 527 , 423 527 
Q 419 527 , 414 527 
Q 404 527 , 398 528 
Q 393 529 , 393 531 
Q 393 533 , 398 534 
Q 404 535 , 414 535 
Q 419 535 , 422 535 
Q 426 535 , 427 534 
" fill="#F5C000" />
<path d="
M 435 526 
L 444 526 
L 444 532 
Q 444 533 , 448 534 
Q 451 535 , 460 535 
Q 469 535 , 472 534 
Q 476 533 , 476 532 
L 476 526 
L 485 526 
L 485 532 
Q 485 534 , 479 535 
Q 472 536 , 460 536 
Q 448 536 , 441 535 
Q 435 534 , 435 532 
L 435 526 
" fill="lightgray" />
<path d="
M 427 522 
L 427 514 
L 413 514 
L 413 511 
L 435 511 
L 435 523 
Q 430 525 , 424 525 
Q 419 525 , 413 526 
Q 400 526 , 393 522 
Q 385 518 , 385 512 
Q 385 505 , 393 502 
Q 400 498 , 413 498 
Q 419 498 , 424 498 
Q 429 499 , 434 500 
L 434 504 
Q 427 502 , 423 502 
Q 419 501 , 414 501 
Q 404 501 , 398 504 
Q 393 506 , 393 512 
Q 393 517 , 398 520 
Q 404 522 , 414 522 
Q 419 522 , 422 522 
Q 426 522 , 427 522 
" fill="#F5C000" />
<path d="
M 485 501 
L 485 505 
Q 478 502 , 474 502 
Q 469 501 , 464 501 
Q 454 501 , 449 504 
Q 443 506 , 443 511 
Q 443 517 , 449 520 
Q 454 523 , 464 523 
Q 469 523 , 474 522 
Q 478 521 , 485 518 
L 485 523 
Q 480 524 , 474 525 
Q 470 526 , 464 526 
Q 450 526 , 443 522 
Q 435 518 , 435 512 
Q 435 505 , 443 502 
Q 450 498 , 464 498 
Q 470 498 , 475 499 
Q 480 499 , 485 501 
" fill="lightgray" />
<path d="
M 435 452 
L 435 459 
Q 428 454 , 424 453 
Q 419 452 , 414 452 
Q 404 452 , 399 457 
Q 393 462 , 393 472 
Q 393 482 , 399 487 
Q 404 492 , 414 492 
Q 419 492 , 424 491 
Q 428 489 , 435 484 
L 435 493 
Q 430 495 , 424 497 
Q 420 498 , 414 498 
Q 400 498 , 393 491 
Q 385 484 , 385 472 
Q 385 460 , 393 453 
Q 400 446 , 414 446 
Q 420 446 , 425 447 
Q 430 449 , 435 452 
" fill="#545FFF" />
<path d="
M 477 490 
L 477 476 
L 463 476 
L 463 471 
L 485 471 
L 485 494 
Q 480 496 , 474 497 
Q 469 498 , 463 498 
Q 450 498 , 443 491 
Q 435 484 , 435 472 
Q 435 460 , 443 453 
Q 450 446 , 463 446 
Q 469 446 , 474 447 
Q 479 448 , 484 450 
L 484 457 
Q 477 454 , 473 453 
Q 469 452 , 464 452 
Q 454 452 , 448 457 
Q 443 462 , 443 472 
Q 443 482 , 448 487 
Q 454 492 , 464 492 
Q 469 492 , 472 492 
Q 476 491 , 477 490 
" fill="lightgray" />
<path d="
M 532 554 
L 532 553 
L 518 553 
L 518 553 
L 540 553 
L 540 554 
Q 535 554 , 529 554 
Q 524 555 , 518 555 
Q 505 555 , 498 554 
Q 490 554 , 490 553 
Q 490 553 , 498 552 
Q 505 552 , 518 552 
Q 524 552 , 529 552 
Q 534 552 , 539 552 
L 539 553 
Q 532 552 , 528 552 
Q 524 552 , 519 552 
Q 509 552 , 503 553 
Q 498 553 , 498 553 
Q 498 554 , 503 554 
Q 509 554 , 519 554 
Q 524 554 , 527 554 
Q 531 554 , 532 554 
" fill="#F5C000" />
<path d="
M 540 552 
L 549 552 
L 549 553 
Q 549 554 , 553 554 
Q 556 554 , 565 554 
Q 574 554 , 577 554 
Q 581 554 , 581 553 
L 581 552 
L 590 552 
L 590 554 
Q 590 554 , 584 554 
Q 577 555 , 565 555 
Q 553 555 , 546 554 
Q 540 554 , 540 554 
L 540 552 
" fill="lightgray" />
<path d="
M 490 547 
L 499 547 
L 499 550 
Q 499 550 , 503 551 
Q 506 551 , 515 551 
Q 524 551 , 527 551 
Q 531 550 , 531 550 
L 531 547 
L 540 547 
L 540 550 
Q 540 551 , 534 551 
Q 527 551 , 515 551 
Q 503 551 , 496 551 
Q 490 551 , 490 550 
L 490 547 
" fill="#D21010" />
<path d="
M 565 548 
L 556 550 
L 573 550 
L 565 548 
M 561 547 
L 569 547 
L 590 551 
L 582 551 
L 576 550 
L 554 550 
L 547 551 
L 540 551 
L 561 547 
" fill="lightgray" />
<path d="
M 490 533 
L 499 533 
L 499 541 
Q 499 543 , 503 544 
Q 506 545 , 515 545 
Q 524 545 , 527 544 
Q 531 543 , 531 541 
L 531 533 
L 540 533 
L 540 541 
Q 540 544 , 534 545 
Q 527 546 , 515 546 
Q 503 546 , 496 545 
Q 490 544 , 490 541 
L 490 533 
" fill="#D21010" />
<path d="
M 582 544 
L 582 541 
L 568 541 
L 568 539 
L 590 539 
L 590 545 
Q 585 546 , 579 546 
Q 574 546 , 568 546 
Q 555 546 , 548 545 
Q 540 543 , 540 540 
Q 540 537 , 548 535 
Q 555 533 , 568 533 
Q 574 533 , 579 533 
Q 584 533 , 589 534 
L 589 536 
Q 582 535 , 578 535 
Q 574 535 , 569 535 
Q 559 535 , 553 536 
Q 548 537 , 548 540 
Q 548 542 , 553 544 
Q 559 545 , 569 545 
Q 574 545 , 577 545 
Q 581 545 , 582 544 
" fill="lightgray" />
<path d="
M 540 519 
L 540 521 
Q 533 520 , 529 519 
Q 524 519 , 519 519 
Q 509 519 , 504 520 
Q 498 522 , 498 525 
Q 498 528 , 504 529 
Q 509 531 , 519 531 
Q 524 531 , 529 530 
Q 533 530 , 540 528 
L 540 531 
Q 535 532 , 529 532 
Q 525 533 , 519 533 
Q 505 533 , 498 530 
Q 490 528 , 490 525 
Q 490 521 , 498 519 
Q 505 517 , 519 517 
Q 525 517 , 530 517 
Q 535 518 , 540 519 
" fill="#545FFF" />
<path d="
M 582 530 
L 582 526 
L 568 526 
L 568 524 
L 590 524 
L 590 531 
Q 585 532 , 579 532 
Q 574 532 , 568 533 
Q 555 533 , 548 530 
Q 540 528 , 540 525 
Q 540 521 , 548 519 
Q 555 517 , 568 517 
Q 574 517 , 579 517 
Q 584 518 , 589 518 
L 589 520 
Q 582 519 , 578 519 
Q 574 519 , 569 519 
Q 559 519 , 553 520 
Q 548 522 , 548 525 
Q 548 528 , 553 529 
Q 559 531 , 569 531 
Q 574 531 , 577 531 
Q 581 530 , 582 530 
" fill="lightgray" />
<path d="
M 515 497 
L 506 507 
L 523 507 
L 515 497 
M 511 492 
L 519 492 
L 540 517 
L 532 517 
L 526 509 
L 504 509 
L 497 517 
L 490 517 
L 511 492 
" fill="#339541" />
<path d="
M 540 492 
L 549 492 
L 549 507 
Q 549 511 , 553 512 
Q 556 514 , 565 514 
Q 574 514 , 577 512 
Q 581 511 , 581 507 
L 581 492 
L 590 492 
L 590 507 
Q 590 512 , 584 514 
Q 577 517 , 565 517 
Q 553 517 , 546 514 
Q 540 512 , 540 507 
L 540 492 
" fill="lightgray" />
<path d="
M 532 464 
L 532 410 
L 518 410 
L 518 389 
L 540 389 
L 540 477 
Q 535 485 , 529 488 
Q 524 492 , 518 492 
Q 505 492 , 498 465 
Q 490 439 , 490 393 
Q 490 347 , 498 321 
Q 505 294 , 518 294 
Q 524 294 , 529 297 
Q 534 301 , 539 310 
L 539 335 
Q 532 324 , 528 321 
Q 524 318 , 519 318 
Q 509 318 , 503 336 
Q 498 355 , 498 393 
Q 498 432 , 503 451 
Q 509 470 , 519 470 
Q 524 470 , 527 468 
Q 531 466 , 532 464 
" fill="#F5C000" />
<path d="
M 590 315 
L 590 346 
Q 583 326 , 579 321 
Q 574 316 , 569 316 
Q 559 316 , 554 335 
Q 548 355 , 548 393 
Q 548 431 , 554 451 
Q 559 471 , 569 471 
Q 574 471 , 579 466 
Q 583 460 , 590 441 
L 590 472 
Q 585 483 , 579 487 
Q 575 492 , 569 492 
Q 555 492 , 548 465 
Q 540 439 , 540 393 
Q 540 348 , 548 321 
Q 555 294 , 569 294 
Q 575 294 , 580 299 
Q 585 304 , 590 315 
" fill="lightgray" />
<path d="
M 645 553 
L 627 554 
L 661 554 
L 645 553 
M 638 552 
L 652 552 
L 695 555 
L 679 555 
L 667 554 
L 623 554 
L 610 555 
L 595 555 
L 638 552 
" fill="#339541" />
<path d="
M 595 543 
L 613 543 
L 613 548 
Q 613 549 , 621 550 
Q 628 550 , 645 550 
Q 662 550 , 670 550 
Q 677 549 , 677 548 
L 677 543 
L 695 543 
L 695 548 
Q 695 550 , 682 550 
Q 670 551 , 645 551 
Q 621 551 , 608 550 
Q 595 550 , 595 548 
L 595 543 
" fill="#D21010" />
<path d="
M 679 537 
L 679 526 
L 650 526 
L 650 521 
L 695 521 
L 695 540 
Q 684 541 , 673 542 
Q 664 543 , 652 543 
Q 626 543 , 610 537 
Q 595 532 , 595 522 
Q 595 512 , 610 507 
Q 626 501 , 652 501 
Q 663 501 , 672 502 
Q 682 503 , 692 504 
L 692 510 
Q 679 507 , 671 507 
Q 662 506 , 653 506 
Q 632 506 , 621 510 
Q 611 514 , 611 522 
Q 611 530 , 621 534 
Q 632 538 , 653 538 
Q 662 538 , 669 538 
Q 676 537 , 679 537 
" fill="#F5C000" />
<path d="
M 695 455 
L 695 462 
Q 680 457 , 672 456 
Q 664 455 , 654 455 
Q 633 455 , 623 460 
Q 611 465 , 611 475 
Q 611 485 , 623 490 
Q 633 495 , 654 495 
Q 664 495 , 672 494 
Q 680 492 , 695 487 
L 695 495 
Q 684 498 , 674 499 
Q 664 501 , 653 501 
Q 626 501 , 611 494 
Q 595 487 , 595 475 
Q 595 463 , 611 456 
Q 626 449 , 653 449 
Q 664 449 , 674 450 
Q 685 452 , 695 455 
" fill="#545FFF" />
<path d="
M 750 553 
L 732 554 
L 766 554 
L 750 553 
M 743 553 
L 757 553 
L 800 555 
L 784 555 
L 772 554 
L 728 554 
L 715 555 
L 700 555 
L 743 553 
" fill="#339541" />
<path d="
M 700 550 
L 718 550 
L 718 551 
Q 718 552 , 726 552 
Q 733 552 , 750 552 
Q 767 552 , 775 552 
Q 782 552 , 782 551 
L 782 550 
L 800 550 
L 800 551 
Q 800 552 , 787 552 
Q 775 552 , 750 552 
Q 726 552 , 713 552 
Q 700 552 , 700 551 
L 700 550 
" fill="#D21010" />
<path d="
M 800 546 
L 800 547 
Q 785 547 , 777 546 
Q 769 546 , 759 546 
Q 738 546 , 728 547 
Q 716 547 , 716 547 
Q 716 548 , 728 549 
Q 738 549 , 759 549 
Q 769 549 , 777 549 
Q 785 549 , 800 548 
L 800 549 
Q 789 549 , 779 549 
Q 769 549 , 758 549 
Q 731 549 , 716 549 
Q 700 548 , 700 548 
Q 700 547 , 716 546 
Q 731 546 , 758 546 
Q 769 546 , 779 546 
Q 790 546 , 800 546 
" fill="#545FFF" />
<path d="
M 784 545 
L 784 544 
L 755 544 
L 755 544 
L 800 544 
L 800 546 
Q 789 546 , 778 546 
Q 769 546 , 757 546 
Q 731 546 , 715 545 
Q 700 545 , 700 544 
Q 700 543 , 715 543 
Q 731 542 , 757 542 
Q 768 542 , 777 542 
Q 787 542 , 797 542 
L 797 543 
Q 784 543 , 776 543 
Q 767 542 , 758 542 
Q 737 542 , 726 543 
Q 716 543 , 716 544 
Q 716 545 , 726 545 
Q 737 546 , 758 546 
Q 767 546 , 774 545 
Q 781 545 , 784 545 
" fill="#F5C000" />
<path d="
M 855 552 
L 837 554 
L 871 554 
L 855 552 
M 848 552 
L 862 552 
L 905 555 
L 889 555 
L 877 554 
L 833 554 
L 820 555 
L 805 555 
L 848 552 
" fill="#339541" />
<path d="
M 805 544 
L 823 544 
L 823 549 
Q 823 550 , 831 550 
Q 838 551 , 855 551 
Q 872 551 , 880 550 
Q 887 550 , 887 549 
L 887 544 
L 905 544 
L 905 549 
Q 905 550 , 892 551 
Q 880 552 , 855 552 
Q 831 552 , 818 551 
Q 805 550 , 805 549 
L 805 544 
" fill="#D21010" />
<path d="
M 889 542 
L 889 538 
L 860 538 
L 860 537 
L 905 537 
L 905 543 
Q 894 543 , 883 544 
Q 874 544 , 862 544 
Q 836 544 , 820 542 
Q 805 540 , 805 537 
Q 805 534 , 820 533 
Q 836 531 , 862 531 
Q 873 531 , 882 531 
Q 892 531 , 902 532 
L 902 534 
Q 889 533 , 881 533 
Q 872 533 , 863 533 
Q 842 533 , 831 534 
Q 821 535 , 821 537 
Q 821 540 , 831 541 
Q 842 542 , 863 542 
Q 872 542 , 879 542 
Q 886 542 , 889 542 
" fill="#F5C000" />
<path d="
M 905 518 
L 905 521 
Q 890 519 , 882 519 
Q 874 518 , 864 518 
Q 843 518 , 833 520 
Q 821 521 , 821 523 
Q 821 526 , 833 528 
Q 843 529 , 864 529 
Q 874 529 , 882 529 
Q 890 528 , 905 527 
L 905 529 
Q 894 530 , 884 530 
Q 874 531 , 863 531 
Q 836 531 , 821 529 
Q 805 527 , 805 524 
Q 805 521 , 821 519 
Q 836 517 , 863 517 
Q 874 517 , 884 517 
Q 895 518 , 905 518 
" fill="#545FFF" />
<path d="
M 960 553 
L 942 554 
L 976 554 
L 960 553 
M 953 552 
L 967 552 
L 1010 555 
L 994 555 
L 982 554 
L 938 554 
L 925 555 
L 910 555 
L 953 552 
" fill="#339541" />
<path d="
M 910 544 
L 928 544 
L 928 549 
Q 928 550 , 936 550 
Q 943 551 , 960 551 
Q 977 551 , 985 550 
Q 992 550 , 992 549 
L 992 544 
L 1010 544 
L 1010 549 
Q 1010 550 , 997 551 
Q 985 552 , 960 552 
Q 936 552 , 923 551 
Q 910 550 , 910 549 
L 910 544 
" fill="#D21010" />
<path d="
M 1010 507 
L 1010 514 
Q 995 510 , 987 509 
Q 979 508 , 969 508 
Q 948 508 , 938 511 
Q 926 515 , 926 523 
Q 926 531 , 938 535 
Q 948 539 , 969 539 
Q 979 539 , 987 538 
Q 995 537 , 1010 533 
L 1010 540 
Q 999 542 , 989 543 
Q 979 544 , 968 544 
Q 941 544 , 926 538 
Q 910 533 , 910 523 
Q 910 514 , 926 509 
Q 941 503 , 968 503 
Q 979 503 , 989 504 
Q 1000 505 , 1010 507 
" fill="#545FFF" />
<path d="
M 994 491 
L 994 468 
L 965 468 
L 965 458 
L 1010 458 
L 1010 496 
Q 999 500 , 988 501 
Q 979 503 , 967 503 
Q 941 503 , 925 491 
Q 910 480 , 910 460 
Q 910 440 , 925 429 
Q 941 417 , 967 417 
Q 978 417 , 987 418 
Q 997 420 , 1007 424 
L 1007 435 
Q 994 430 , 986 429 
Q 977 427 , 968 427 
Q 947 427 , 936 435 
Q 926 443 , 926 460 
Q 926 477 , 936 485 
Q 947 493 , 968 493 
Q 977 493 , 984 493 
Q 991 492 , 994 491 
" fill="#F5C000" />
<path d="
M 1057 554 
L 1057 553 
L 1043 553 
L 1043 553 
L 1065 553 
L 1065 554 
Q 1060 554 , 1054 554 
Q 1049 555 , 1043 555 
Q 1030 555 , 1023 554 
Q 1015 554 , 1015 553 
Q 1015 553 , 1023 552 
Q 1030 552 , 1043 552 
Q 1049 552 , 1054 552 
Q 1059 552 , 1064 552 
L 1064 553 
Q 1057 552 , 1053 552 
Q 1049 552 , 1044 552 
Q 1034 552 , 1028 553 
Q 1023 553 , 1023 553 
Q 1023 554 , 1028 554 
Q 1034 554 , 1044 554 
Q 1049 554 , 1052 554 
Q 1056 554 , 1057 554 
" fill="lightgray" />
<path d="
M 1065 552 
L 1074 552 
L 1074 553 
Q 1074 554 , 1078 554 
Q 1081 554 , 1090 554 
Q 1099 554 , 1102 554 
Q 1106 554 , 1106 553 
L 1106 552 
L 1115 552 
L 1115 554 
Q 1115 554 , 1109 554 
Q 1102 555 , 1090 555 
Q 1078 555 , 1071 554 
Q 1065 554 , 1065 554 
L 1065 552 
" fill="#D21010" />
<path d="
M 1015 547 
L 1024 547 
L 1024 550 
Q 1024 550 , 1028 551 
Q 1031 551 , 1040 551 
Q 1049 551 , 1052 551 
Q 1056 550 , 1056 550 
L 1056 547 
L 1065 547 
L 1065 550 
Q 1065 551 , 1059 551 
Q 1052 551 , 1040 551 
Q 1028 551 , 1021 551 
Q 1015 551 , 1015 550 
L 1015 547 
" fill="lightgray" />
<path d="
M 1090 548 
L 1081 550 
L 1098 550 
L 1090 548 
M 1086 547 
L 1094 547 
L 1115 551 
L 1107 551 
L 1101 550 
L 1079 550 
L 1072 551 
L 1065 551 
L 1086 547 
" fill="#339541" />
<path d="
M 1015 533 
L 1024 533 
L 1024 541 
Q 1024 543 , 1028 544 
Q 1031 545 , 1040 545 
Q 1049 545 , 1052 544 
Q 1056 543 , 1056 541 
L 1056 533 
L 1065 533 
L 1065 541 
Q 1065 544 , 1059 545 
Q 1052 546 , 1040 546 
Q 1028 546 , 1021 545 
Q 1015 544 , 1015 541 
L 1015 533 
" fill="lightgray" />
<path d="
M 1107 544 
L 1107 541 
L 1093 541 
L 1093 539 
L 1115 539 
L 1115 545 
Q 1110 546 , 1104 546 
Q 1099 546 , 1093 546 
Q 1080 546 , 1073 545 
Q 1065 543 , 1065 540 
Q 1065 537 , 1073 535 
Q 1080 533 , 1093 533 
Q 1099 533 , 1104 533 
Q 1109 533 , 1114 534 
L 1114 536 
Q 1107 535 , 1103 535 
Q 1099 535 , 1094 535 
Q 1084 535 , 1078 536 
Q 1073 537 , 1073 540 
Q 1073 542 , 1078 544 
Q 1084 545 , 1094 545 
Q 1099 545 , 1102 545 
Q 1106 545 , 1107 544 
" fill="#F5C000" />
<path d="
M 1065 519 
L 1065 521 
Q 1058 520 , 1054 519 
Q 1049 519 , 1044 519 
Q 1034 519 , 1029 520 
Q 1023 522 , 1023 525 
Q 1023 528 , 1029 529 
Q 1034 531 , 1044 531 
Q 1049 531 , 1054 530 
Q 1058 530 , 1065 528 
L 1065 531 
Q 1060 532 , 1054 532 
Q 1050 533 , 1044 533 
Q 1030 533 , 1023 530 
Q 1015 528 , 1015 525 
Q 1015 521 , 1023 519 
Q 1030 517 , 1044 517 
Q 1050 517 , 1055 517 
Q 1060 518 , 1065 519 
" fill="lightgray" />
<path d="
M 1107 530 
L 1107 526 
L 1093 526 
L 1093 524 
L 1115 524 
L 1115 531 
Q 1110 532 , 1104 532 
Q 1099 532 , 1093 533 
Q 1080 533 , 1073 530 
Q 1065 528 , 1065 525 
Q 1065 521 , 1073 519 
Q 1080 517 , 1093 517 
Q 1099 517 , 1104 517 
Q 1109 518 , 1114 518 
L 1114 520 
Q 1107 519 , 1103 519 
Q 1099 519 , 1094 519 
Q 1084 519 , 1078 520 
Q 1073 522 , 1073 525 
Q 1073 528 , 1078 529 
Q 1084 531 , 1094 531 
Q 1099 531 , 1102 531 
Q 1106 530 , 1107 530 
" fill="#F5C000" />
<path d="
M 1040 497 
L 1031 507 
L 1048 507 
L 1040 497 
M 1036 492 
L 1044 492 
L 1065 517 
L 1057 517 
L 1051 509 
L 1029 509 
L 1022 517 
L 1015 517 
L 1036 492 
" fill="lightgray" />
<path d="
M 1065 492 
L 1074 492 
L 1074 507 
Q 1074 511 , 1078 512 
Q 1081 514 , 1090 514 
Q 1099 514 , 1102 512 
Q 1106 511 , 1106 507 
L 1106 492 
L 1115 492 
L 1115 507 
Q 1115 512 , 1109 514 
Q 1102 517 , 1090 517 
Q 1078 517 , 1071 514 
Q 1065 512 , 1065 507 
L 1065 492 
" fill="#D21010" />
<path d="
M 1057 464 
L 1057 410 
L 1043 410 
L 1043 389 
L 1065 389 
L 1065 477 
Q 1060 485 , 1054 488 
Q 1049 492 , 1043 492 
Q 1030 492 , 1023 465 
Q 1015 439 , 1015 393 
Q 1015 347 , 1023 321 
Q 1030 294 , 1043 294 
Q 1049 294 , 1054 297 
Q 1059 301 , 1064 310 
L 1064 335 
Q 1057 324 , 1053 321 
Q 1049 318 , 1044 318 
Q 1034 318 , 1028 336 
Q 1023 355 , 1023 393 
Q 1023 432 , 1028 451 
Q 1034 470 , 1044 470 
Q 1049 470 , 1052 468 
Q 1056 466 , 1057 464 
" fill="lightgray" />
<path d="
M 1115 315 
L 1115 346 
Q 1108 326 , 1104 321 
Q 1099 316 , 1094 316 
Q 1084 316 , 1079 335 
Q 1073 355 , 1073 393 
Q 1073 431 , 1079 451 
Q 1084 471 , 1094 471 
Q 1099 471 , 1104 466 
Q 1108 460 , 1115 441 
L 1115 472 
Q 1110 483 , 1104 487 
Q 1100 492 , 1094 492 
Q 1080 492 , 1073 465 
Q 1065 439 , 1065 393 
Q 1065 348 , 1073 321 
Q 1080 294 , 1094 294 
Q 1100 294 , 1105 299 
Q 1110 304 , 1115 315 
" fill="#545FFF" />
<path d="
M 1145 551 
L 1136 553 
L 1153 553 
L 1145 551 
M 1141 550 
L 1149 550 
L 1170 555 
L 1162 555 
L 1156 553 
L 1134 553 
L 1127 555 
L 1120 555 
L 1141 550 
" fill="lightgray" />
<path d="
M 1170 550 
L 1179 550 
L 1179 553 
Q 1179 554 , 1183 554 
Q 1186 554 , 1195 554 
Q 1204 554 , 1207 554 
Q 1211 554 , 1211 553 
L 1211 550 
L 1220 550 
L 1220 553 
Q 1220 554 , 1214 554 
Q 1207 555 , 1195 555 
Q 1183 555 , 1176 554 
Q 1170 554 , 1170 553 
L 1170 550 
" fill="#D21010" />
<path d="
M 1120 544 
L 1129 544 
L 1129 547 
Q 1129 548 , 1133 549 
Q 1136 549 , 1145 549 
Q 1154 549 , 1157 549 
Q 1161 548 , 1161 547 
L 1161 544 
L 1170 544 
L 1170 547 
Q 1170 548 , 1164 549 
Q 1157 550 , 1145 550 
Q 1133 550 , 1126 549 
Q 1120 548 , 1120 547 
L 1120 544 
" fill="lightgray" />
<path d="
M 1212 549 
L 1212 547 
L 1198 547 
L 1198 547 
L 1220 547 
L 1220 549 
Q 1215 549 , 1209 549 
Q 1204 549 , 1198 550 
Q 1185 550 , 1178 549 
Q 1170 548 , 1170 547 
Q 1170 545 , 1178 545 
Q 1185 544 , 1198 544 
Q 1204 544 , 1209 544 
Q 1214 544 , 1219 544 
L 1219 545 
Q 1212 545 , 1208 545 
Q 1204 545 , 1199 545 
Q 1189 545 , 1183 545 
Q 1178 546 , 1178 547 
Q 1178 548 , 1183 548 
Q 1189 549 , 1199 549 
Q 1204 549 , 1207 549 
Q 1211 549 , 1212 549 
" fill="#F5C000" />
<path d="
M 1120 536 
L 1129 536 
L 1129 541 
Q 1129 542 , 1133 543 
Q 1136 543 , 1145 543 
Q 1154 543 , 1157 543 
Q 1161 542 , 1161 541 
L 1161 536 
L 1170 536 
L 1170 541 
Q 1170 542 , 1164 543 
Q 1157 544 , 1145 544 
Q 1133 544 , 1126 543 
Q 1120 542 , 1120 541 
L 1120 536 
" fill="lightgray" />
<path d="
M 1195 537 
L 1186 541 
L 1203 541 
L 1195 537 
M 1191 536 
L 1199 536 
L 1220 544 
L 1212 544 
L 1206 542 
L 1184 542 
L 1177 544 
L 1170 544 
L 1191 536 
" fill="#339541" />
<path d="
M 1162 534 
L 1162 532 
L 1148 532 
L 1148 531 
L 1170 531 
L 1170 535 
Q 1165 536 , 1159 536 
Q 1154 536 , 1148 536 
Q 1135 536 , 1128 535 
Q 1120 533 , 1120 531 
Q 1120 529 , 1128 527 
Q 1135 526 , 1148 526 
Q 1154 526 , 1159 526 
Q 1164 526 , 1169 527 
L 1169 528 
Q 1162 527 , 1158 527 
Q 1154 527 , 1149 527 
Q 1139 527 , 1133 528 
Q 1128 529 , 1128 531 
Q 1128 533 , 1133 534 
Q 1139 535 , 1149 535 
Q 1154 535 , 1157 535 
Q 1161 535 , 1162 534 
" fill="lightgray" />
<path d="
M 1170 526 
L 1179 526 
L 1179 532 
Q 1179 533 , 1183 534 
Q 1186 535 , 1195 535 
Q 1204 535 , 1207 534 
Q 1211 533 , 1211 532 
L 1211 526 
L 1220 526 
L 1220 532 
Q 1220 534 , 1214 535 
Q 1207 536 , 1195 536 
Q 1183 536 , 1176 535 
Q 1170 534 , 1170 532 
L 1170 526 
" fill="#D21010" />
<path d="
M 1162 522 
L 1162 514 
L 1148 514 
L 1148 511 
L 1170 511 
L 1170 523 
Q 1165 525 , 1159 525 
Q 1154 525 , 1148 526 
Q 1135 526 , 1128 522 
Q 1120 518 , 1120 512 
Q 1120 505 , 1128 502 
Q 1135 498 , 1148 498 
Q 1154 498 , 1159 498 
Q 1164 499 , 1169 500 
L 1169 504 
Q 1162 502 , 1158 502 
Q 1154 501 , 1149 501 
Q 1139 501 , 1133 504 
Q 1128 506 , 1128 512 
Q 1128 517 , 1133 520 
Q 1139 522 , 1149 522 
Q 1154 522 , 1157 522 
Q 1161 522 , 1162 522 
" fill="lightgray" />
<path d="
M 1220 501 
L 1220 505 
Q 1213 502 , 1209 502 
Q 1204 501 , 1199 501 
Q 1189 501 , 1184 504 
Q 1178 506 , 1178 511 
Q 1178 517 , 1184 520 
Q 1189 523 , 1199 523 
Q 1204 523 , 1209 522 
Q 1213 521 , 1220 518 
L 1220 523 
Q 1215 524 , 1209 525 
Q 1205 526 , 1199 526 
Q 1185 526 , 1178 522 
Q 1170 518 , 1170 512 
Q 1170 505 , 1178 502 
Q 1185 498 , 1199 498 
Q 1205 498 , 1210 499 
Q 1215 499 , 1220 501 
" fill="#545FFF" />
<path d="
M 1170 452 
L 1170 459 
Q 1163 454 , 1159 453 
Q 1154 452 , 1149 452 
Q 1139 452 , 1134 457 
Q 1128 462 , 1128 472 
Q 1128 482 , 1134 487 
Q 1139 492 , 1149 492 
Q 1154 492 , 1159 491 
Q 1163 489 , 1170 484 
L 1170 493 
Q 1165 495 , 1159 497 
Q 1155 498 , 1149 498 
Q 1135 498 , 1128 491 
Q 1120 484 , 1120 472 
Q 1120 460 , 1128 453 
Q 1135 446 , 1149 446 
Q 1155 446 , 1160 447 
Q 1165 449 , 1170 452 
" fill="lightgray" />
<path d="
M 1212 490 
L 1212 476 
L 1198 476 
L 1198 471 
L 1220 471 
L 1220 494 
Q 1215 496 , 1209 497 
Q 1204 498 , 1198 498 
Q 1185 498 , 1178 491 
Q 1170 484 , 1170 472 
Q 1170 460 , 1178 453 
Q 1185 446 , 1198 446 
Q 1204 446 , 1209 447 
Q 1214 448 , 1219 450 
L 1219 457 
Q 1212 454 , 1208 453 
Q 1204 452 , 1199 452 
Q 1189 452 , 1183 457 
Q 1178 462 , 1178 472 
Q 1178 482 , 1183 487 
Q 1189 492 , 1199 492 
Q 1204 492 , 1207 492 
Q 1211 491 , 1212 490 
" fill="#F5C000" />
<path d="
M 1275 551 
L 1257 552 
L 1291 552 
L 1275 551 
M 1268 550 
L 1282 550 
L 1325 554 
L 1309 554 
L 1297 553 
L 1253 553 
L 1240 554 
L 1225 554 
L 1268 550 
" fill="#339541" />
<path d="
M 1225 540 
L 1243 540 
L 1243 545 
Q 1243 547 , 1251 548 
Q 1258 548 , 1275 548 
Q 1292 548 , 1300 548 
Q 1307 547 , 1307 545 
L 1307 540 
L 1325 540 
L 1325 546 
Q 1325 547 , 1312 548 
Q 1300 549 , 1275 549 
Q 1251 549 , 1238 548 
Q 1225 547 , 1225 546 
L 1225 540 
" fill="#D21010" />
<path d="
M 1325 511 
L 1325 516 
Q 1310 513 , 1302 512 
Q 1294 512 , 1284 512 
Q 1263 512 , 1253 515 
Q 1241 518 , 1241 524 
Q 1241 530 , 1253 533 
Q 1263 536 , 1284 536 
Q 1294 536 , 1302 536 
Q 1310 535 , 1325 532 
L 1325 537 
Q 1314 538 , 1304 539 
Q 1294 540 , 1283 540 
Q 1256 540 , 1241 536 
Q 1225 531 , 1225 524 
Q 1225 517 , 1241 512 
Q 1256 508 , 1283 508 
Q 1294 508 , 1304 509 
Q 1315 510 , 1325 511 
" fill="#545FFF" />
<path d="
M 1309 494 
L 1309 469 
L 1280 469 
L 1280 458 
L 1325 458 
L 1325 500 
Q 1314 504 , 1303 506 
Q 1294 508 , 1282 508 
Q 1256 508 , 1240 495 
Q 1225 482 , 1225 460 
Q 1225 438 , 1240 426 
Q 1256 413 , 1282 413 
Q 1293 413 , 1302 415 
Q 1312 416 , 1322 421 
L 1322 433 
Q 1309 427 , 1301 426 
Q 1292 424 , 1283 424 
Q 1262 424 , 1251 433 
Q 1241 442 , 1241 460 
Q 1241 479 , 1251 488 
Q 1262 497 , 1283 497 
Q 1292 497 , 1299 496 
Q 1306 495 , 1309 494 
" fill="#F5C000" />
<path d="
M 1380 553 
L 1362 554 
L 1396 554 
L 1380 553 
M 1373 553 
L 1387 553 
L 1430 555 
L 1414 555 
L 1402 554 
L 1358 554 
L 1345 555 
L 1330 555 
L 1373 553 
" fill="#339541" />
<path d="
M 1330 550 
L 1348 550 
L 1348 551 
Q 1348 552 , 1356 552 
Q 1363 552 , 1380 552 
Q 1397 552 , 1405 552 
Q 1412 552 , 1412 551 
L 1412 550 
L 1430 550 
L 1430 551 
Q 1430 552 , 1417 552 
Q 1405 552 , 1380 552 
Q 1356 552 , 1343 552 
Q 1330 552 , 1330 551 
L 1330 550 
" fill="#D21010" />
<path d="
M 1430 546 
L 1430 547 
Q 1415 547 , 1407 546 
Q 1399 546 , 1389 546 
Q 1368 546 , 1358 547 
Q 1346 547 , 1346 547 
Q 1346 548 , 1358 549 
Q 1368 549 , 1389 549 
Q 1399 549 , 1407 549 
Q 1415 549 , 1430 548 
L 1430 549 
Q 1419 549 , 1409 549 
Q 1399 549 , 1388 549 
Q 1361 549 , 1346 549 
Q 1330 548 , 1330 548 
Q 1330 547 , 1346 546 
Q 1361 546 , 1388 546 
Q 1399 546 , 1409 546 
Q 1420 546 , 1430 546 
" fill="#545FFF" />
<path d="
M 1414 545 
L 1414 544 
L 1385 544 
L 1385 544 
L 1430 544 
L 1430 546 
Q 1419 546 , 1408 546 
Q 1399 546 , 1387 546 
Q 1361 546 , 1345 545 
Q 1330 545 , 1330 544 
Q 1330 543 , 1345 543 
Q 1361 542 , 1387 542 
Q 1398 542 , 1407 542 
Q 1417 542 , 1427 542 
L 1427 543 
Q 1414 543 , 1406 543 
Q 1397 542 , 1388 542 
Q 1367 542 , 1356 543 
Q 1346 543 , 1346 544 
Q 1346 545 , 1356 545 
Q 1367 546 , 1388 546 
Q 1397 546 , 1404 545 
Q 1411 545 , 1414 545 
" fill="#F5C000" />
<path d="M 65 168 L 65 555 " stroke="black" stroke-width="1.5"/>
<path d="M 55 555 L 65 555 " stroke="black" stroke-width="4"/>
<text text-anchor="end" x="50" y="555" font-size="50" alignment-baseline="middle">0</text>
<path d="M 55 362 L 65 362 " stroke="black" stroke-width="4"/>
<text text-anchor="end" x="50" y="362" font-size="50" alignment-baseline="middle">1</text>
<path d="M 55 168 L 65 168 " stroke="black" stroke-width="4"/>
<text text-anchor="end" x="50" y="168" font-size="50" alignment-baseline="middle">2</text>
<text text-anchor="middle" x="750" y="50" font-size="50" alignment-baseline="baseline"></text>
G<path d="
M 160 582 
L 126 595 
L 160 608 
L 157 611 
L 123 598 
L 123 623 
L 117 623 
L 117 599 
L 83 611 
L 80 608 
L 114 595 
L 80 582 
L 83 579 
L 117 591 
L 117 567 
L 123 567 
L 123 591 
L 157 579 
L 160 582 
" fill="black" />
<path d="
" fill="black" />
<path d="
M 211 567 
L 238 567 
L 238 623 
L 211 623 
L 211 567 
" fill="black" />
<path d="
" fill="black" />
<path d="
" fill="black" />
<path d="
M 316 567 
L 343 567 
L 343 623 
L 316 623 
L 316 567 
" fill="black" />
<path d="
" fill="black" />
<path d="
M 475 567 
Q 446 574 , 433 581 
Q 420 588 , 420 595 
Q 420 602 , 433 609 
Q 446 616 , 475 623 
L 451 623 
Q 423 616 , 409 609 
Q 395 602 , 395 595 
Q 395 588 , 409 581 
Q 423 574 , 451 567 
L 475 567 
" fill="black" />
<path d="
M 580 567 
Q 551 574 , 538 581 
Q 525 588 , 525 595 
Q 525 602 , 538 609 
Q 551 616 , 580 623 
L 556 623 
Q 528 616 , 514 609 
Q 500 602 , 500 595 
Q 500 588 , 514 581 
Q 528 574 , 556 567 
L 580 567 
" fill="black" />
<path d="
" fill="black" />
<path d="
M 622 567 
L 642 567 
L 642 623 
L 622 623 
L 622 567 
" fill="black" />
<path d="
" fill="black" />
<path d="
M 682 595 
Q 679 595 , 677 599 
Q 675 602 , 675 607 
Q 675 613 , 677 616 
Q 679 619 , 682 619 
Q 685 619 , 687 616 
Q 689 613 , 689 607 
Q 689 602 , 687 599 
Q 685 595 , 682 595 
M 677 593 
Q 675 592 , 674 589 
Q 673 586 , 673 581 
Q 673 575 , 675 571 
Q 678 567 , 682 567 
Q 686 567 , 689 571 
Q 691 575 , 691 581 
Q 691 586 , 690 589 
Q 688 592 , 687 593 
Q 689 594 , 690 598 
Q 692 601 , 692 607 
Q 692 614 , 689 619 
Q 687 623 , 682 623 
Q 677 623 , 675 619 
Q 672 614 , 672 607 
Q 672 601 , 674 598 
Q 675 594 , 677 593 
M 677 573 
Q 675 576 , 675 581 
Q 675 586 , 677 589 
Q 679 592 , 682 592 
Q 685 592 , 687 589 
Q 689 586 , 689 581 
Q 689 576 , 687 574 
Q 685 571 , 682 571 
Q 679 571 , 677 573 
" fill="black" />
<path d="
M 790 582 
L 756 595 
L 790 608 
L 787 611 
L 753 598 
L 753 623 
L 747 623 
L 747 599 
L 713 611 
L 710 608 
L 744 595 
L 710 582 
L 713 579 
L 747 591 
L 747 567 
L 753 567 
L 753 591 
L 787 579 
L 790 582 
" fill="black" />
<path d="
" fill="black" />
<path d="
M 841 567 
L 868 567 
L 868 623 
L 841 623 
L 841 567 
" fill="black" />
<path d="
" fill="black" />
<path d="
" fill="black" />
<path d="
M 946 567 
L 973 567 
L 973 623 
L 946 623 
L 946 567 
" fill="black" />
<path d="
" fill="black" />
<path d="
M 1025 567 
L 1049 567 
Q 1077 574 , 1091 581 
Q 1105 588 , 1105 595 
Q 1105 602 , 1091 609 
Q 1077 616 , 1049 623 
L 1025 623 
Q 1054 616 , 1067 609 
Q 1080 602 , 1080 595 
Q 1080 588 , 1067 581 
Q 1054 574 , 1025 567 
" fill="black" />
<path d="
M 1130 567 
L 1154 567 
Q 1182 574 , 1196 581 
Q 1210 588 , 1210 595 
Q 1210 602 , 1196 609 
Q 1182 616 , 1154 623 
L 1130 623 
Q 1159 616 , 1172 609 
Q 1185 602 , 1185 595 
Q 1185 588 , 1172 581 
Q 1159 574 , 1130 567 
" fill="black" />
<path d="
" fill="black" />
<path d="
M 1261 567 
L 1288 567 
L 1288 623 
L 1261 623 
L 1261 567 
" fill="black" />
<path d="
" fill="black" />
<path d="
M 1420 582 
L 1386 595 
L 1420 608 
L 1417 611 
L 1383 598 
L 1383 623 
L 1377 623 
L 1377 599 
L 1343 611 
L 1340 608 
L 1374 595 
L 1340 582 
L 1343 579 
L 1377 591 
L 1377 567 
L 1383 567 
L 1383 591 
L 1417 579 
L 1420 582 
" fill="black" />
</svg>
