<svg xmlns="http://www.w3.org/2000/svg"
viewBox="0 0 700 635">
<path d="
M 70 554 
L 88 554 
L 88 554 
Q 88 554 , 96 554 
Q 103 555 , 120 555 
Q 137 555 , 145 554 
Q 152 554 , 152 554 
L 152 554 
L 170 554 
L 170 554 
Q 170 554 , 157 555 
Q 145 555 , 120 555 
Q 96 555 , 83 555 
Q 70 554 , 70 554 
L 70 554 
" fill="#D21010" />
<path d="
M 120 553 
L 102 553 
L 136 553 
L 120 553 
M 113 553 
L 127 553 
L 170 554 
L 154 554 
L 142 553 
L 98 553 
L 85 554 
L 70 554 
L 113 553 
" fill="#339541" />
<path d="
M 170 552 
L 170 552 
Q 155 552 , 147 552 
Q 139 552 , 129 552 
Q 108 552 , 98 552 
Q 86 552 , 86 552 
Q 86 552 , 98 553 
Q 108 553 , 129 553 
Q 139 553 , 147 553 
Q 155 553 , 170 552 
L 170 553 
Q 159 553 , 149 553 
Q 139 553 , 128 553 
Q 101 553 , 86 553 
Q 70 552 , 70 552 
Q 70 552 , 86 552 
Q 101 552 , 128 552 
Q 139 552 , 149 552 
Q 160 552 , 170 552 
" fill="#545FFF" />
<path d="
M 154 552 
L 154 551 
L 125 551 
L 125 551 
L 170 551 
L 170 552 
Q 159 552 , 148 552 
Q 139 552 , 127 552 
Q 101 552 , 85 552 
Q 70 552 , 70 551 
Q 70 551 , 85 551 
Q 101 551 , 127 551 
Q 138 551 , 147 551 
Q 157 551 , 167 551 
L 167 551 
Q 154 551 , 146 551 
Q 137 551 , 128 551 
Q 107 551 , 96 551 
Q 86 551 , 86 551 
Q 86 552 , 96 552 
Q 107 552 , 128 552 
Q 137 552 , 144 552 
Q 151 552 , 154 552 
" fill="#F5C000" />
<path d="
M 225 549 
L 207 552 
L 241 552 
L 225 549 
M 218 548 
L 232 548 
L 275 554 
L 259 554 
L 247 552 
L 203 552 
L 190 554 
L 175 554 
L 218 548 
" fill="#339541" />
<path d="
M 175 535 
L 193 535 
L 193 542 
Q 193 544 , 201 545 
Q 208 546 , 225 546 
Q 242 546 , 250 545 
Q 257 544 , 257 542 
L 257 535 
L 275 535 
L 275 542 
Q 275 545 , 262 546 
Q 250 547 , 225 547 
Q 201 547 , 188 546 
Q 175 545 , 175 542 
L 175 535 
" fill="#D21010" />
<path d="
M 275 504 
L 275 509 
Q 260 506 , 252 505 
Q 244 504 , 234 504 
Q 213 504 , 203 507 
Q 191 511 , 191 517 
Q 191 524 , 203 527 
Q 213 531 , 234 531 
Q 244 531 , 252 530 
Q 260 529 , 275 526 
L 275 531 
Q 264 533 , 254 534 
Q 244 535 , 233 535 
Q 206 535 , 191 530 
Q 175 525 , 175 517 
Q 175 509 , 191 505 
Q 206 500 , 233 500 
Q 244 500 , 254 501 
Q 265 502 , 275 504 
" fill="#545FFF" />
<path d="
M 259 473 
L 259 421 
L 230 421 
L 230 400 
L 275 400 
L 275 485 
Q 264 493 , 253 496 
Q 244 500 , 232 500 
Q 206 500 , 190 474 
Q 175 449 , 175 405 
Q 175 360 , 190 335 
Q 206 309 , 232 309 
Q 243 309 , 252 312 
Q 262 316 , 272 324 
L 272 349 
Q 259 338 , 251 335 
Q 242 332 , 233 332 
Q 212 332 , 201 350 
Q 191 368 , 191 405 
Q 191 442 , 201 460 
Q 212 479 , 233 479 
Q 242 479 , 249 477 
Q 256 475 , 259 473 
" fill="#F5C000" />
<path d="
M 280 550 
L 298 550 
L 298 553 
Q 298 553 , 306 553 
Q 313 554 , 330 554 
Q 347 554 , 355 553 
Q 362 553 , 362 553 
L 362 550 
L 380 550 
L 380 553 
Q 380 553 , 367 554 
Q 355 554 , 330 554 
Q 306 554 , 293 554 
Q 280 553 , 280 553 
L 280 550 
" fill="#D21010" />
<path d="
M 364 547 
L 364 542 
L 335 542 
L 335 540 
L 380 540 
L 380 548 
Q 369 549 , 358 549 
Q 349 549 , 337 549 
Q 311 549 , 295 547 
Q 280 544 , 280 540 
Q 280 536 , 295 533 
Q 311 531 , 337 531 
Q 348 531 , 357 531 
Q 367 532 , 377 532 
L 377 535 
Q 364 534 , 356 533 
Q 347 533 , 338 533 
Q 317 533 , 306 535 
Q 296 537 , 296 540 
Q 296 544 , 306 546 
Q 317 547 , 338 547 
Q 347 547 , 354 547 
Q 361 547 , 364 547 
" fill="#F5C000" />
<path d="
M 380 505 
L 380 509 
Q 365 507 , 357 506 
Q 349 505 , 339 505 
Q 318 505 , 308 508 
Q 296 511 , 296 516 
Q 296 522 , 308 524 
Q 318 527 , 339 527 
Q 349 527 , 357 527 
Q 365 526 , 380 523 
L 380 527 
Q 369 529 , 359 530 
Q 349 530 , 338 530 
Q 311 530 , 296 526 
Q 280 523 , 280 516 
Q 280 510 , 296 506 
Q 311 502 , 338 502 
Q 349 502 , 359 503 
Q 370 503 , 380 505 
" fill="#545FFF" />
<path d="
M 330 439 
L 312 470 
L 346 470 
L 330 439 
M 323 425 
L 337 425 
L 380 501 
L 364 501 
L 352 479 
L 308 479 
L 295 501 
L 280 501 
L 323 425 
" fill="#339541" />
<path d="
M 485 552 
L 485 553 
Q 470 552 , 462 552 
Q 454 552 , 444 552 
Q 423 552 , 413 552 
Q 401 553 , 401 553 
Q 401 554 , 413 554 
Q 423 554 , 444 554 
Q 454 554 , 462 554 
Q 470 554 , 485 554 
L 485 554 
Q 474 554 , 464 554 
Q 454 554 , 443 554 
Q 416 554 , 401 554 
Q 385 554 , 385 553 
Q 385 553 , 401 552 
Q 416 552 , 443 552 
Q 454 552 , 464 552 
Q 475 552 , 485 552 
" fill="#545FFF" />
<path d="
M 385 549 
L 403 549 
L 403 550 
Q 403 551 , 411 551 
Q 418 551 , 435 551 
Q 452 551 , 460 551 
Q 467 551 , 467 550 
L 467 549 
L 485 549 
L 485 551 
Q 485 551 , 472 551 
Q 460 552 , 435 552 
Q 411 552 , 398 551 
Q 385 551 , 385 551 
L 385 549 
" fill="#D21010" />
<path d="
M 435 546 
L 417 547 
L 451 547 
L 435 546 
M 428 545 
L 442 545 
L 485 549 
L 469 549 
L 457 548 
L 413 548 
L 400 549 
L 385 549 
L 428 545 
" fill="#339541" />
<path d="
M 469 543 
L 469 542 
L 440 542 
L 440 542 
L 485 542 
L 485 544 
Q 474 544 , 463 544 
Q 454 544 , 442 544 
Q 416 544 , 400 544 
Q 385 543 , 385 542 
Q 385 541 , 400 541 
Q 416 540 , 442 540 
Q 453 540 , 462 540 
Q 472 540 , 482 540 
L 482 541 
Q 469 541 , 461 541 
Q 452 540 , 443 540 
Q 422 540 , 411 541 
Q 401 541 , 401 542 
Q 401 543 , 411 543 
Q 422 544 , 443 544 
Q 452 544 , 459 544 
Q 466 544 , 469 543 
" fill="#F5C000" />
<path d="
M 490 550 
L 508 550 
L 508 553 
Q 508 553 , 516 554 
Q 523 554 , 540 554 
Q 557 554 , 565 554 
Q 572 553 , 572 553 
L 572 550 
L 590 550 
L 590 553 
Q 590 553 , 577 554 
Q 565 554 , 540 554 
Q 516 554 , 503 554 
Q 490 553 , 490 553 
L 490 550 
" fill="#D21010" />
<path d="
M 540 545 
L 522 547 
L 556 547 
L 540 545 
M 533 544 
L 547 544 
L 590 549 
L 574 549 
L 562 548 
L 518 548 
L 505 549 
L 490 549 
L 533 544 
" fill="#339541" />
<path d="
M 590 497 
L 590 505 
Q 575 500 , 567 499 
Q 559 498 , 549 498 
Q 528 498 , 518 503 
Q 506 508 , 506 518 
Q 506 528 , 518 533 
Q 528 538 , 549 538 
Q 559 538 , 567 536 
Q 575 535 , 590 530 
L 590 538 
Q 579 541 , 569 542 
Q 559 543 , 548 543 
Q 521 543 , 506 536 
Q 490 529 , 490 518 
Q 490 506 , 506 499 
Q 521 492 , 548 492 
Q 559 492 , 569 493 
Q 580 494 , 590 497 
" fill="#545FFF" />
<path d="
M 574 464 
L 574 411 
L 545 411 
L 545 389 
L 590 389 
L 590 477 
Q 579 485 , 568 488 
Q 559 492 , 547 492 
Q 521 492 , 505 465 
Q 490 439 , 490 394 
Q 490 348 , 505 321 
Q 521 295 , 547 295 
Q 558 295 , 567 298 
Q 577 302 , 587 311 
L 587 336 
Q 574 325 , 566 322 
Q 557 318 , 548 318 
Q 527 318 , 516 337 
Q 506 355 , 506 394 
Q 506 432 , 516 451 
Q 527 470 , 548 470 
Q 557 470 , 564 468 
Q 571 466 , 574 464 
" fill="#F5C000" />
<path d="
M 595 554 
L 613 554 
L 613 554 
Q 613 554 , 621 554 
Q 628 555 , 645 555 
Q 662 555 , 670 554 
Q 677 554 , 677 554 
L 677 554 
L 695 554 
L 695 554 
Q 695 554 , 682 555 
Q 670 555 , 645 555 
Q 621 555 , 608 555 
Q 595 554 , 595 554 
L 595 554 
" fill="#D21010" />
<path d="
M 645 553 
L 627 553 
L 661 553 
L 645 553 
M 638 553 
L 652 553 
L 695 554 
L 679 554 
L 667 553 
L 623 553 
L 610 554 
L 595 554 
L 638 553 
" fill="#339541" />
<path d="
M 695 552 
L 695 552 
Q 680 552 , 672 552 
Q 664 552 , 654 552 
Q 633 552 , 623 552 
Q 611 552 , 611 552 
Q 611 552 , 623 553 
Q 633 553 , 654 553 
Q 664 553 , 672 553 
Q 680 553 , 695 552 
L 695 553 
Q 684 553 , 674 553 
Q 664 553 , 653 553 
Q 626 553 , 611 553 
Q 595 552 , 595 552 
Q 595 552 , 611 552 
Q 626 552 , 653 552 
Q 664 552 , 674 552 
Q 685 552 , 695 552 
" fill="#545FFF" />
<path d="
M 679 552 
L 679 551 
L 650 551 
L 650 551 
L 695 551 
L 695 552 
Q 684 552 , 673 552 
Q 664 552 , 652 552 
Q 626 552 , 610 552 
Q 595 552 , 595 551 
Q 595 551 , 610 551 
Q 626 551 , 652 551 
Q 663 551 , 672 551 
Q 682 551 , 692 551 
L 692 551 
Q 679 551 , 671 551 
Q 662 551 , 653 551 
Q 632 551 , 621 551 
Q 611 551 , 611 551 
Q 611 552 , 621 552 
Q 632 552 , 653 552 
Q 662 552 , 669 552 
Q 676 552 , 679 552 
" fill="#F5C000" />
<path d="M 65 55 L 65 555 " stroke="black" stroke-width="1.5"/>
<path d="M 55 555 L 65 555 " stroke="black" stroke-width="4"/>
<text text-anchor="end" x="50" y="555" font-size="50" alignment-baseline="middle">0</text>
<path d="M 55 305 L 65 305 " stroke="black" stroke-width="4"/>
<text text-anchor="end" x="50" y="305" font-size="50" alignment-baseline="middle">1</text>
<path d="M 55 55 L 65 55 " stroke="black" stroke-width="4"/>
<text text-anchor="end" x="50" y="55" font-size="50" alignment-baseline="middle">2</text>
<text text-anchor="middle" x="382" y="50" font-size="50" alignment-baseline="baseline"></text>
G<path d="
M 160 582 
L 126 595 
L 160 608 
L 157 611 
L 123 598 
L 123 623 
L 117 623 
L 117 599 
L 83 611 
L 80 608 
L 114 595 
L 80 582 
L 83 579 
L 117 591 
L 117 567 
L 123 567 
L 123 591 
L 157 579 
L 160 582 
" fill="black" />
<path d="
" fill="black" />
<path d="
M 211 567 
L 238 567 
L 238 623 
L 211 623 
L 211 567 
" fill="black" />
<path d="
" fill="black" />
<path d="
" fill="black" />
<path d="
M 316 567 
L 343 567 
L 343 623 
L 316 623 
L 316 567 
" fill="black" />
<path d="
" fill="black" />
<path d="
" fill="black" />
<path d="
M 421 567 
L 448 567 
L 448 623 
L 421 623 
L 421 567 
" fill="black" />
<path d="
" fill="black" />
<path d="
" fill="black" />
<path d="
M 526 567 
L 553 567 
L 553 623 
L 526 623 
L 526 567 
" fill="black" />
<path d="
" fill="black" />
<path d="
M 685 582 
L 651 595 
L 685 608 
L 682 611 
L 648 598 
L 648 623 
L 642 623 
L 642 599 
L 608 611 
L 605 608 
L 639 595 
L 605 582 
L 608 579 
L 642 591 
L 642 567 
L 648 567 
L 648 591 
L 682 579 
L 685 582 
" fill="black" />
</svg>
