<svg xmlns="http://www.w3.org/2000/svg"
viewBox="0 0 1330 635">
<path d="
M 70 554 
L 88 554 
L 88 554 
Q 88 554 , 96 554 
Q 103 554 , 120 554 
Q 137 554 , 145 554 
Q 152 554 , 152 554 
L 152 554 
L 170 554 
L 170 554 
Q 170 554 , 157 554 
Q 145 554 , 120 554 
Q 96 554 , 83 554 
Q 70 554 , 70 554 
L 70 554 
" fill="#D21010" />
<path d="
M 120 553 
L 102 553 
L 136 553 
L 120 553 
M 113 553 
L 127 553 
L 170 554 
L 154 554 
L 142 553 
L 98 553 
L 85 554 
L 70 554 
L 113 553 
" fill="#339541" />
<path d="
M 170 552 
L 170 552 
Q 155 552 , 147 552 
Q 139 552 , 129 552 
Q 108 552 , 98 552 
Q 86 552 , 86 552 
Q 86 552 , 98 552 
Q 108 552 , 129 552 
Q 139 552 , 147 552 
Q 155 552 , 170 552 
L 170 552 
Q 159 553 , 149 553 
Q 139 553 , 128 553 
Q 101 553 , 86 552 
Q 70 552 , 70 552 
Q 70 552 , 86 552 
Q 101 552 , 128 552 
Q 139 552 , 149 552 
Q 160 552 , 170 552 
" fill="#545FFF" />
<path d="
M 154 552 
L 154 551 
L 125 551 
L 125 551 
L 170 551 
L 170 552 
Q 159 552 , 148 552 
Q 139 552 , 127 552 
Q 101 552 , 85 552 
Q 70 551 , 70 551 
Q 70 551 , 85 551 
Q 101 551 , 127 551 
Q 138 551 , 147 551 
Q 157 551 , 167 551 
L 167 551 
Q 154 551 , 146 551 
Q 137 551 , 128 551 
Q 107 551 , 96 551 
Q 86 551 , 86 551 
Q 86 551 , 96 552 
Q 107 552 , 128 552 
Q 137 552 , 144 552 
Q 151 552 , 154 552 
" fill="#F5C000" />
<path d="
M 275 546 
L 275 548 
Q 260 547 , 252 546 
Q 244 546 , 234 546 
Q 213 546 , 203 547 
Q 191 548 , 191 550 
Q 191 552 , 203 553 
Q 213 554 , 234 554 
Q 244 554 , 252 554 
Q 260 553 , 275 552 
L 275 554 
Q 264 554 , 254 555 
Q 244 555 , 233 555 
Q 206 555 , 191 554 
Q 175 552 , 175 550 
Q 175 548 , 191 546 
Q 206 545 , 233 545 
Q 244 545 , 254 545 
Q 265 545 , 275 546 
" fill="#545FFF" />
<path d="
M 225 535 
L 207 540 
L 241 540 
L 225 535 
M 218 533 
L 232 533 
L 275 545 
L 259 545 
L 247 541 
L 203 541 
L 190 545 
L 175 545 
L 218 533 
" fill="#339541" />
<path d="
M 175 510 
L 193 510 
L 193 523 
Q 193 527 , 201 528 
Q 208 530 , 225 530 
Q 242 530 , 250 528 
Q 257 527 , 257 523 
L 257 510 
L 275 510 
L 275 524 
Q 275 528 , 262 530 
Q 250 532 , 225 532 
Q 201 532 , 188 530 
Q 175 528 , 175 524 
L 175 510 
" fill="#D21010" />
<path d="
M 259 500 
L 259 482 
L 230 482 
L 230 475 
L 275 475 
L 275 505 
Q 264 508 , 253 509 
Q 244 510 , 232 510 
Q 206 510 , 190 501 
Q 175 492 , 175 477 
Q 175 461 , 190 452 
Q 206 443 , 232 443 
Q 243 443 , 252 444 
Q 262 445 , 272 448 
L 272 457 
Q 259 453 , 251 452 
Q 242 451 , 233 451 
Q 212 451 , 201 457 
Q 191 464 , 191 477 
Q 191 490 , 201 496 
Q 212 503 , 233 503 
Q 242 503 , 249 502 
Q 256 501 , 259 500 
" fill="#F5C000" />
<path d="
M 280 549 
L 298 549 
L 298 552 
Q 298 553 , 306 554 
Q 313 554 , 330 554 
Q 347 554 , 355 554 
Q 362 553 , 362 552 
L 362 549 
L 380 549 
L 380 552 
Q 380 553 , 367 554 
Q 355 554 , 330 554 
Q 306 554 , 293 554 
Q 280 553 , 280 552 
L 280 549 
" fill="#D21010" />
<path d="
M 380 540 
L 380 541 
Q 365 540 , 357 540 
Q 349 540 , 339 540 
Q 318 540 , 308 541 
Q 296 542 , 296 543 
Q 296 545 , 308 546 
Q 318 547 , 339 547 
Q 349 547 , 357 547 
Q 365 547 , 380 546 
L 380 547 
Q 369 548 , 359 548 
Q 349 548 , 338 548 
Q 311 548 , 296 547 
Q 280 546 , 280 544 
Q 280 541 , 296 540 
Q 311 539 , 338 539 
Q 349 539 , 359 539 
Q 370 539 , 380 540 
" fill="#545FFF" />
<path d="
M 330 501 
L 312 520 
L 346 520 
L 330 501 
M 323 493 
L 337 493 
L 380 539 
L 364 539 
L 352 525 
L 308 525 
L 295 539 
L 280 539 
L 323 493 
" fill="#339541" />
<path d="
M 364 484 
L 364 469 
L 335 469 
L 335 463 
L 380 463 
L 380 488 
Q 369 491 , 358 492 
Q 349 493 , 337 493 
Q 311 493 , 295 485 
Q 280 477 , 280 464 
Q 280 450 , 295 443 
Q 311 435 , 337 435 
Q 348 435 , 357 436 
Q 367 437 , 377 440 
L 377 447 
Q 364 444 , 356 443 
Q 347 442 , 338 442 
Q 317 442 , 306 447 
Q 296 453 , 296 464 
Q 296 475 , 306 481 
Q 317 486 , 338 486 
Q 347 486 , 354 486 
Q 361 485 , 364 484 
" fill="#F5C000" />
<path d="
M 385 553 
L 403 553 
L 403 554 
Q 403 554 , 411 555 
Q 418 555 , 435 555 
Q 452 555 , 460 555 
Q 467 554 , 467 554 
L 467 553 
L 485 553 
L 485 554 
Q 485 554 , 472 555 
Q 460 555 , 435 555 
Q 411 555 , 398 555 
Q 385 554 , 385 554 
L 385 553 
" fill="#D21010" />
<path d="
M 469 552 
L 469 551 
L 440 551 
L 440 551 
L 485 551 
L 485 552 
Q 474 552 , 463 552 
Q 454 553 , 442 553 
Q 416 553 , 400 552 
Q 385 552 , 385 551 
Q 385 551 , 400 550 
Q 416 550 , 442 550 
Q 453 550 , 462 550 
Q 472 550 , 482 550 
L 482 551 
Q 469 550 , 461 550 
Q 452 550 , 443 550 
Q 422 550 , 411 551 
Q 401 551 , 401 551 
Q 401 552 , 411 552 
Q 422 552 , 443 552 
Q 452 552 , 459 552 
Q 466 552 , 469 552 
" fill="#F5C000" />
<path d="
M 485 546 
L 485 547 
Q 470 546 , 462 546 
Q 454 546 , 444 546 
Q 423 546 , 413 547 
Q 401 547 , 401 547 
Q 401 548 , 413 548 
Q 423 549 , 444 549 
Q 454 549 , 462 549 
Q 470 549 , 485 548 
L 485 549 
Q 474 549 , 464 549 
Q 454 549 , 443 549 
Q 416 549 , 401 549 
Q 385 548 , 385 548 
Q 385 547 , 401 546 
Q 416 546 , 443 546 
Q 454 546 , 464 546 
Q 475 546 , 485 546 
" fill="#545FFF" />
<path d="
M 435 543 
L 417 544 
L 451 544 
L 435 543 
M 428 542 
L 442 542 
L 485 546 
L 469 546 
L 457 545 
L 413 545 
L 400 546 
L 385 546 
L 428 542 
" fill="#339541" />
<path d="
M 490 550 
L 508 550 
L 508 553 
Q 508 554 , 516 554 
Q 523 554 , 540 554 
Q 557 554 , 565 554 
Q 572 554 , 572 553 
L 572 550 
L 590 550 
L 590 553 
Q 590 554 , 577 554 
Q 565 555 , 540 555 
Q 516 555 , 503 554 
Q 490 554 , 490 553 
L 490 550 
" fill="#D21010" />
<path d="
M 590 532 
L 590 535 
Q 575 533 , 567 533 
Q 559 532 , 549 532 
Q 528 532 , 518 534 
Q 506 536 , 506 540 
Q 506 544 , 518 546 
Q 528 548 , 549 548 
Q 559 548 , 567 547 
Q 575 546 , 590 545 
L 590 548 
Q 579 549 , 569 549 
Q 559 550 , 548 550 
Q 521 550 , 506 547 
Q 490 544 , 490 540 
Q 490 535 , 506 533 
Q 521 530 , 548 530 
Q 559 530 , 569 530 
Q 580 531 , 590 532 
" fill="#545FFF" />
<path d="
M 540 511 
L 522 520 
L 556 520 
L 540 511 
M 533 507 
L 547 507 
L 590 530 
L 574 530 
L 562 523 
L 518 523 
L 505 530 
L 490 530 
L 533 507 
" fill="#339541" />
<path d="
M 574 473 
L 574 411 
L 545 411 
L 545 386 
L 590 386 
L 590 488 
Q 579 498 , 568 502 
Q 559 506 , 547 506 
Q 521 506 , 505 475 
Q 490 445 , 490 391 
Q 490 337 , 505 306 
Q 521 275 , 547 275 
Q 558 275 , 567 279 
Q 577 283 , 587 294 
L 587 323 
Q 574 310 , 566 306 
Q 557 303 , 548 303 
Q 527 303 , 516 324 
Q 506 346 , 506 391 
Q 506 436 , 516 458 
Q 527 480 , 548 480 
Q 557 480 , 564 478 
Q 571 476 , 574 473 
" fill="#F5C000" />
<path d="
M 595 550 
L 613 550 
L 613 553 
Q 613 554 , 621 554 
Q 628 554 , 645 554 
Q 662 554 , 670 554 
Q 677 554 , 677 553 
L 677 550 
L 695 550 
L 695 553 
Q 695 554 , 682 554 
Q 670 555 , 645 555 
Q 621 555 , 608 554 
Q 595 554 , 595 553 
L 595 550 
" fill="#D21010" />
<path d="
M 695 533 
L 695 536 
Q 680 534 , 672 533 
Q 664 533 , 654 533 
Q 633 533 , 623 535 
Q 611 537 , 611 540 
Q 611 544 , 623 545 
Q 633 547 , 654 547 
Q 664 547 , 672 547 
Q 680 546 , 695 544 
L 695 547 
Q 684 548 , 674 549 
Q 664 549 , 653 549 
Q 626 549 , 611 547 
Q 595 544 , 595 540 
Q 595 536 , 611 533 
Q 626 531 , 653 531 
Q 664 531 , 674 531 
Q 685 532 , 695 533 
" fill="#545FFF" />
<path d="
M 679 528 
L 679 523 
L 650 523 
L 650 521 
L 695 521 
L 695 529 
Q 684 529 , 673 530 
Q 664 530 , 652 530 
Q 626 530 , 610 528 
Q 595 525 , 595 521 
Q 595 517 , 610 514 
Q 626 512 , 652 512 
Q 663 512 , 672 512 
Q 682 513 , 692 513 
L 692 516 
Q 679 515 , 671 514 
Q 662 514 , 653 514 
Q 632 514 , 621 516 
Q 611 518 , 611 521 
Q 611 525 , 621 526 
Q 632 528 , 653 528 
Q 662 528 , 669 528 
Q 676 528 , 679 528 
" fill="#F5C000" />
<path d="
M 645 474 
L 627 493 
L 661 493 
L 645 474 
M 638 465 
L 652 465 
L 695 512 
L 679 512 
L 667 498 
L 623 498 
L 610 512 
L 595 512 
L 638 465 
" fill="#339541" />
<path d="
M 800 548 
L 800 549 
Q 785 548 , 777 548 
Q 769 548 , 759 548 
Q 738 548 , 728 549 
Q 716 549 , 716 550 
Q 716 552 , 728 553 
Q 738 553 , 759 553 
Q 769 553 , 777 553 
Q 785 553 , 800 552 
L 800 554 
Q 789 554 , 779 554 
Q 769 554 , 758 554 
Q 731 554 , 716 553 
Q 700 552 , 700 551 
Q 700 549 , 716 548 
Q 731 547 , 758 547 
Q 769 547 , 779 547 
Q 790 547 , 800 548 
" fill="#545FFF" />
<path d="
M 700 533 
L 718 533 
L 718 541 
Q 718 543 , 726 544 
Q 733 545 , 750 545 
Q 767 545 , 775 544 
Q 782 543 , 782 541 
L 782 533 
L 800 533 
L 800 541 
Q 800 544 , 787 545 
Q 775 547 , 750 547 
Q 726 547 , 713 545 
Q 700 544 , 700 541 
L 700 533 
" fill="#D21010" />
<path d="
M 784 530 
L 784 525 
L 755 525 
L 755 523 
L 800 523 
L 800 531 
Q 789 532 , 778 532 
Q 769 533 , 757 533 
Q 731 533 , 715 530 
Q 700 528 , 700 524 
Q 700 520 , 715 517 
Q 731 515 , 757 515 
Q 768 515 , 777 515 
Q 787 516 , 797 516 
L 797 519 
Q 784 518 , 776 517 
Q 767 517 , 758 517 
Q 737 517 , 726 519 
Q 716 520 , 716 524 
Q 716 527 , 726 529 
Q 737 531 , 758 531 
Q 767 531 , 774 531 
Q 781 530 , 784 530 
" fill="#F5C000" />
<path d="
M 750 474 
L 732 494 
L 766 494 
L 750 474 
M 743 465 
L 757 465 
L 800 515 
L 784 515 
L 772 500 
L 728 500 
L 715 515 
L 700 515 
L 743 465 
" fill="#339541" />
<path d="
M 805 547 
L 823 547 
L 823 551 
Q 823 552 , 831 553 
Q 838 553 , 855 553 
Q 872 553 , 880 553 
Q 887 552 , 887 551 
L 887 547 
L 905 547 
L 905 551 
Q 905 553 , 892 553 
Q 880 554 , 855 554 
Q 831 554 , 818 553 
Q 805 553 , 805 551 
L 805 547 
" fill="#D21010" />
<path d="
M 855 540 
L 837 543 
L 871 543 
L 855 540 
M 848 539 
L 862 539 
L 905 546 
L 889 546 
L 877 544 
L 833 544 
L 820 546 
L 805 546 
L 848 539 
" fill="#339541" />
<path d="
M 905 517 
L 905 521 
Q 890 519 , 882 518 
Q 874 518 , 864 518 
Q 843 518 , 833 520 
Q 821 522 , 821 526 
Q 821 531 , 833 533 
Q 843 536 , 864 536 
Q 874 536 , 882 535 
Q 890 534 , 905 532 
L 905 536 
Q 894 537 , 884 538 
Q 874 538 , 863 538 
Q 836 538 , 821 535 
Q 805 532 , 805 527 
Q 805 521 , 821 518 
Q 836 515 , 863 515 
Q 874 515 , 884 516 
Q 895 516 , 905 517 
" fill="#545FFF" />
<path d="
M 889 472 
L 889 392 
L 860 392 
L 860 359 
L 905 359 
L 905 492 
Q 894 504 , 883 509 
Q 874 514 , 862 514 
Q 836 514 , 820 474 
Q 805 435 , 805 366 
Q 805 296 , 820 257 
Q 836 217 , 862 217 
Q 873 217 , 882 222 
Q 892 228 , 902 241 
L 902 279 
Q 889 262 , 881 257 
Q 872 252 , 863 252 
Q 842 252 , 831 280 
Q 821 308 , 821 366 
Q 821 424 , 831 453 
Q 842 481 , 863 481 
Q 872 481 , 879 478 
Q 886 475 , 889 472 
" fill="#F5C000" />
<path d="
M 910 550 
L 928 550 
L 928 553 
Q 928 554 , 936 554 
Q 943 554 , 960 554 
Q 977 554 , 985 554 
Q 992 554 , 992 553 
L 992 550 
L 1010 550 
L 1010 553 
Q 1010 554 , 997 554 
Q 985 555 , 960 555 
Q 936 555 , 923 554 
Q 910 554 , 910 553 
L 910 550 
" fill="#D21010" />
<path d="
M 1010 540 
L 1010 542 
Q 995 541 , 987 540 
Q 979 540 , 969 540 
Q 948 540 , 938 541 
Q 926 542 , 926 544 
Q 926 546 , 938 547 
Q 948 548 , 969 548 
Q 979 548 , 987 548 
Q 995 548 , 1010 547 
L 1010 548 
Q 999 549 , 989 549 
Q 979 549 , 968 549 
Q 941 549 , 926 548 
Q 910 546 , 910 544 
Q 910 542 , 926 540 
Q 941 539 , 968 539 
Q 979 539 , 989 539 
Q 1000 539 , 1010 540 
" fill="#545FFF" />
<path d="
M 994 535 
L 994 528 
L 965 528 
L 965 525 
L 1010 525 
L 1010 537 
Q 999 538 , 988 538 
Q 979 539 , 967 539 
Q 941 539 , 925 535 
Q 910 532 , 910 525 
Q 910 519 , 925 516 
Q 941 512 , 967 512 
Q 978 512 , 987 512 
Q 997 513 , 1007 514 
L 1007 518 
Q 994 516 , 986 516 
Q 977 515 , 968 515 
Q 947 515 , 936 518 
Q 926 520 , 926 525 
Q 926 531 , 936 533 
Q 947 536 , 968 536 
Q 977 536 , 984 535 
Q 991 535 , 994 535 
" fill="#F5C000" />
<path d="
M 960 486 
L 942 499 
L 976 499 
L 960 486 
M 953 480 
L 967 480 
L 1010 511 
L 994 511 
L 982 502 
L 938 502 
L 925 511 
L 910 511 
L 953 480 
" fill="#339541" />
<path d="
M 1115 553 
L 1115 553 
Q 1100 553 , 1092 553 
Q 1084 553 , 1074 553 
Q 1053 553 , 1043 553 
Q 1031 554 , 1031 554 
Q 1031 554 , 1043 554 
Q 1053 554 , 1074 554 
Q 1084 554 , 1092 554 
Q 1100 554 , 1115 554 
L 1115 554 
Q 1104 555 , 1094 555 
Q 1084 555 , 1073 555 
Q 1046 555 , 1031 554 
Q 1015 554 , 1015 554 
Q 1015 553 , 1031 553 
Q 1046 553 , 1073 553 
Q 1084 553 , 1094 553 
Q 1105 553 , 1115 553 
" fill="#545FFF" />
<path d="
M 1099 552 
L 1099 552 
L 1070 552 
L 1070 552 
L 1115 552 
L 1115 553 
Q 1104 553 , 1093 553 
Q 1084 553 , 1072 553 
Q 1046 553 , 1030 552 
Q 1015 552 , 1015 552 
Q 1015 551 , 1030 551 
Q 1046 551 , 1072 551 
Q 1083 551 , 1092 551 
Q 1102 551 , 1112 551 
L 1112 551 
Q 1099 551 , 1091 551 
Q 1082 551 , 1073 551 
Q 1052 551 , 1041 551 
Q 1031 552 , 1031 552 
Q 1031 552 , 1041 552 
Q 1052 553 , 1073 553 
Q 1082 553 , 1089 552 
Q 1096 552 , 1099 552 
" fill="#F5C000" />
<path d="
M 1015 548 
L 1033 548 
L 1033 549 
Q 1033 550 , 1041 550 
Q 1048 550 , 1065 550 
Q 1082 550 , 1090 550 
Q 1097 550 , 1097 549 
L 1097 548 
L 1115 548 
L 1115 549 
Q 1115 550 , 1102 550 
Q 1090 550 , 1065 550 
Q 1041 550 , 1028 550 
Q 1015 550 , 1015 549 
L 1015 548 
" fill="#D21010" />
<path d="
M 1065 546 
L 1047 547 
L 1081 547 
L 1065 546 
M 1058 545 
L 1072 545 
L 1115 548 
L 1099 548 
L 1087 547 
L 1043 547 
L 1030 548 
L 1015 548 
L 1058 545 
" fill="#339541" />
<path d="
M 1120 549 
L 1138 549 
L 1138 552 
Q 1138 553 , 1146 553 
Q 1153 554 , 1170 554 
Q 1187 554 , 1195 553 
Q 1202 553 , 1202 552 
L 1202 549 
L 1220 549 
L 1220 552 
Q 1220 553 , 1207 554 
Q 1195 554 , 1170 554 
Q 1146 554 , 1133 554 
Q 1120 553 , 1120 552 
L 1120 549 
" fill="#D21010" />
<path d="
M 1170 542 
L 1152 545 
L 1186 545 
L 1170 542 
M 1163 540 
L 1177 540 
L 1220 549 
L 1204 549 
L 1192 546 
L 1148 546 
L 1135 549 
L 1120 549 
L 1163 540 
" fill="#339541" />
<path d="
M 1220 493 
L 1220 501 
Q 1205 496 , 1197 495 
Q 1189 494 , 1179 494 
Q 1158 494 , 1148 499 
Q 1136 504 , 1136 514 
Q 1136 524 , 1148 529 
Q 1158 534 , 1179 534 
Q 1189 534 , 1197 532 
Q 1205 531 , 1220 526 
L 1220 534 
Q 1209 537 , 1199 538 
Q 1189 539 , 1178 539 
Q 1151 539 , 1136 532 
Q 1120 525 , 1120 514 
Q 1120 502 , 1136 495 
Q 1151 488 , 1178 488 
Q 1189 488 , 1199 489 
Q 1210 491 , 1220 493 
" fill="#545FFF" />
<path d="
M 1204 478 
L 1204 459 
L 1175 459 
L 1175 451 
L 1220 451 
L 1220 482 
Q 1209 485 , 1198 487 
Q 1189 488 , 1177 488 
Q 1151 488 , 1135 478 
Q 1120 469 , 1120 452 
Q 1120 436 , 1135 426 
Q 1151 417 , 1177 417 
Q 1188 417 , 1197 418 
Q 1207 420 , 1217 423 
L 1217 432 
Q 1204 428 , 1196 427 
Q 1187 425 , 1178 425 
Q 1157 425 , 1146 432 
Q 1136 439 , 1136 452 
Q 1136 466 , 1146 473 
Q 1157 480 , 1178 480 
Q 1187 480 , 1194 479 
Q 1201 479 , 1204 478 
" fill="#F5C000" />
<path d="
M 1225 554 
L 1243 554 
L 1243 554 
Q 1243 554 , 1251 554 
Q 1258 554 , 1275 554 
Q 1292 554 , 1300 554 
Q 1307 554 , 1307 554 
L 1307 554 
L 1325 554 
L 1325 554 
Q 1325 554 , 1312 554 
Q 1300 554 , 1275 554 
Q 1251 554 , 1238 554 
Q 1225 554 , 1225 554 
L 1225 554 
" fill="#D21010" />
<path d="
M 1275 553 
L 1257 553 
L 1291 553 
L 1275 553 
M 1268 553 
L 1282 553 
L 1325 554 
L 1309 554 
L 1297 553 
L 1253 553 
L 1240 554 
L 1225 554 
L 1268 553 
" fill="#339541" />
<path d="
M 1325 552 
L 1325 552 
Q 1310 552 , 1302 552 
Q 1294 552 , 1284 552 
Q 1263 552 , 1253 552 
Q 1241 552 , 1241 552 
Q 1241 552 , 1253 552 
Q 1263 552 , 1284 552 
Q 1294 552 , 1302 552 
Q 1310 552 , 1325 552 
L 1325 552 
Q 1314 553 , 1304 553 
Q 1294 553 , 1283 553 
Q 1256 553 , 1241 552 
Q 1225 552 , 1225 552 
Q 1225 552 , 1241 552 
Q 1256 552 , 1283 552 
Q 1294 552 , 1304 552 
Q 1315 552 , 1325 552 
" fill="#545FFF" />
<path d="
M 1309 552 
L 1309 551 
L 1280 551 
L 1280 551 
L 1325 551 
L 1325 552 
Q 1314 552 , 1303 552 
Q 1294 552 , 1282 552 
Q 1256 552 , 1240 552 
Q 1225 551 , 1225 551 
Q 1225 551 , 1240 551 
Q 1256 551 , 1282 551 
Q 1293 551 , 1302 551 
Q 1312 551 , 1322 551 
L 1322 551 
Q 1309 551 , 1301 551 
Q 1292 551 , 1283 551 
Q 1262 551 , 1251 551 
Q 1241 551 , 1241 551 
Q 1241 551 , 1251 552 
Q 1262 552 , 1283 552 
Q 1292 552 , 1299 552 
Q 1306 552 , 1309 552 
" fill="#F5C000" />
<path d="M 65 55 L 65 555 " stroke="black" stroke-width="1.5"/>
<path d="M 55 555 L 65 555 " stroke="black" stroke-width="4"/>
<text text-anchor="end" x="50" y="555" font-size="50" alignment-baseline="middle">0</text>
<path d="M 55 305 L 65 305 " stroke="black" stroke-width="4"/>
<text text-anchor="end" x="50" y="305" font-size="50" alignment-baseline="middle">1</text>
<path d="M 55 55 L 65 55 " stroke="black" stroke-width="4"/>
<text text-anchor="end" x="50" y="55" font-size="50" alignment-baseline="middle">2</text>
<text text-anchor="middle" x="697" y="50" font-size="50" alignment-baseline="baseline"></text>
G<path d="
M 160 582 
L 126 595 
L 160 608 
L 157 611 
L 123 598 
L 123 623 
L 117 623 
L 117 599 
L 83 611 
L 80 608 
L 114 595 
L 80 582 
L 83 579 
L 117 591 
L 117 567 
L 123 567 
L 123 591 
L 157 579 
L 160 582 
" fill="black" />
<path d="
" fill="black" />
<path d="
M 211 567 
L 238 567 
L 238 623 
L 211 623 
L 211 567 
" fill="black" />
<path d="
" fill="black" />
<path d="
" fill="black" />
<path d="
M 316 567 
L 343 567 
L 343 623 
L 316 623 
L 316 567 
" fill="black" />
<path d="
" fill="black" />
<path d="
" fill="black" />
<path d="
M 421 567 
L 448 567 
L 448 623 
L 421 623 
L 421 567 
" fill="black" />
<path d="
" fill="black" />
<path d="
" fill="black" />
<path d="
M 526 567 
L 553 567 
L 553 623 
L 526 623 
L 526 567 
" fill="black" />
<path d="
" fill="black" />
<path d="
" fill="black" />
<path d="
M 631 567 
L 658 567 
L 658 623 
L 631 623 
L 631 567 
" fill="black" />
<path d="
" fill="black" />
<path d="
" fill="black" />
<path d="
M 736 567 
L 763 567 
L 763 623 
L 736 623 
L 736 567 
" fill="black" />
<path d="
" fill="black" />
<path d="
" fill="black" />
<path d="
M 841 567 
L 868 567 
L 868 623 
L 841 623 
L 841 567 
" fill="black" />
<path d="
" fill="black" />
<path d="
" fill="black" />
<path d="
M 946 567 
L 973 567 
L 973 623 
L 946 623 
L 946 567 
" fill="black" />
<path d="
" fill="black" />
<path d="
" fill="black" />
<path d="
M 1051 567 
L 1078 567 
L 1078 623 
L 1051 623 
L 1051 567 
" fill="black" />
<path d="
" fill="black" />
<path d="
" fill="black" />
<path d="
M 1156 567 
L 1183 567 
L 1183 623 
L 1156 623 
L 1156 567 
" fill="black" />
<path d="
" fill="black" />
<path d="
M 1315 582 
L 1281 595 
L 1315 608 
L 1312 611 
L 1278 598 
L 1278 623 
L 1272 623 
L 1272 599 
L 1238 611 
L 1235 608 
L 1269 595 
L 1235 582 
L 1238 579 
L 1272 591 
L 1272 567 
L 1278 567 
L 1278 591 
L 1312 579 
L 1315 582 
" fill="black" />
</svg>
