<svg xmlns="http://www.w3.org/2000/svg"
viewBox="0 0 910 635">
<path d="
M 70 554 
L 88 554 
L 88 554 
Q 88 554 , 96 554 
Q 103 555 , 120 555 
Q 137 555 , 145 554 
Q 152 554 , 152 554 
L 152 554 
L 170 554 
L 170 554 
Q 170 554 , 157 555 
Q 145 555 , 120 555 
Q 96 555 , 83 555 
Q 70 554 , 70 554 
L 70 554 
" fill="#D21010" />
<path d="
M 120 553 
L 102 553 
L 136 553 
L 120 553 
M 113 553 
L 127 553 
L 170 554 
L 154 554 
L 142 553 
L 98 553 
L 85 554 
L 70 554 
L 113 553 
" fill="#339541" />
<path d="
M 170 552 
L 170 552 
Q 155 552 , 147 552 
Q 139 552 , 129 552 
Q 108 552 , 98 552 
Q 86 552 , 86 552 
Q 86 552 , 98 553 
Q 108 553 , 129 553 
Q 139 553 , 147 553 
Q 155 553 , 170 552 
L 170 553 
Q 159 553 , 149 553 
Q 139 553 , 128 553 
Q 101 553 , 86 553 
Q 70 552 , 70 552 
Q 70 552 , 86 552 
Q 101 552 , 128 552 
Q 139 552 , 149 552 
Q 160 552 , 170 552 
" fill="#545FFF" />
<path d="
M 154 552 
L 154 551 
L 125 551 
L 125 551 
L 170 551 
L 170 552 
Q 159 552 , 148 552 
Q 139 552 , 127 552 
Q 101 552 , 85 552 
Q 70 552 , 70 551 
Q 70 551 , 85 551 
Q 101 551 , 127 551 
Q 138 551 , 147 551 
Q 157 551 , 167 551 
L 167 551 
Q 154 551 , 146 551 
Q 137 551 , 128 551 
Q 107 551 , 96 551 
Q 86 551 , 86 551 
Q 86 552 , 96 552 
Q 107 552 , 128 552 
Q 137 552 , 144 552 
Q 151 552 , 154 552 
" fill="#F5C000" />
<path d="
M 175 551 
L 193 551 
L 193 553 
Q 193 554 , 201 554 
Q 208 554 , 225 554 
Q 242 554 , 250 554 
Q 257 554 , 257 553 
L 257 551 
L 275 551 
L 275 553 
Q 275 554 , 262 554 
Q 250 554 , 225 554 
Q 201 554 , 188 554 
Q 175 554 , 175 553 
L 175 551 
" fill="#D21010" />
<path d="
M 259 550 
L 259 548 
L 230 548 
L 230 547 
L 275 547 
L 275 550 
Q 264 550 , 253 550 
Q 244 550 , 232 550 
Q 206 550 , 190 550 
Q 175 549 , 175 547 
Q 175 546 , 190 545 
Q 206 544 , 232 544 
Q 243 544 , 252 544 
Q 262 544 , 272 545 
L 272 545 
Q 259 545 , 251 545 
Q 242 545 , 233 545 
Q 212 545 , 201 545 
Q 191 546 , 191 547 
Q 191 549 , 201 549 
Q 212 550 , 233 550 
Q 242 550 , 249 550 
Q 256 550 , 259 550 
" fill="#F5C000" />
<path d="
M 275 534 
L 275 536 
Q 260 535 , 252 534 
Q 244 534 , 234 534 
Q 213 534 , 203 535 
Q 191 536 , 191 538 
Q 191 540 , 203 541 
Q 213 542 , 234 542 
Q 244 542 , 252 542 
Q 260 542 , 275 541 
L 275 542 
Q 264 543 , 254 543 
Q 244 543 , 233 543 
Q 206 543 , 191 542 
Q 175 541 , 175 538 
Q 175 536 , 191 534 
Q 206 533 , 233 533 
Q 244 533 , 254 533 
Q 265 534 , 275 534 
" fill="#545FFF" />
<path d="
M 225 524 
L 207 528 
L 241 528 
L 225 524 
M 218 522 
L 232 522 
L 275 533 
L 259 533 
L 247 530 
L 203 530 
L 190 533 
L 175 533 
L 218 522 
" fill="#339541" />
<path d="
M 364 554 
L 364 554 
L 335 554 
L 335 554 
L 380 554 
L 380 554 
Q 369 555 , 358 555 
Q 349 555 , 337 555 
Q 311 555 , 295 554 
Q 280 554 , 280 554 
Q 280 553 , 295 553 
Q 311 553 , 337 553 
Q 348 553 , 357 553 
Q 367 553 , 377 553 
L 377 553 
Q 364 553 , 356 553 
Q 347 553 , 338 553 
Q 317 553 , 306 553 
Q 296 553 , 296 554 
Q 296 554 , 306 554 
Q 317 554 , 338 554 
Q 347 554 , 354 554 
Q 361 554 , 364 554 
" fill="#F5C000" />
<path d="
M 330 551 
L 312 552 
L 346 552 
L 330 551 
M 323 551 
L 337 551 
L 380 553 
L 364 553 
L 352 552 
L 308 552 
L 295 553 
L 280 553 
L 323 551 
" fill="#339541" />
<path d="
M 380 549 
L 380 550 
Q 365 549 , 357 549 
Q 349 549 , 339 549 
Q 318 549 , 308 549 
Q 296 550 , 296 550 
Q 296 550 , 308 551 
Q 318 551 , 339 551 
Q 349 551 , 357 551 
Q 365 551 , 380 550 
L 380 551 
Q 369 551 , 359 551 
Q 349 551 , 338 551 
Q 311 551 , 296 551 
Q 280 550 , 280 550 
Q 280 550 , 296 549 
Q 311 549 , 338 549 
Q 349 549 , 359 549 
Q 370 549 , 380 549 
" fill="#545FFF" />
<path d="
M 280 546 
L 298 546 
L 298 548 
Q 298 548 , 306 548 
Q 313 549 , 330 549 
Q 347 549 , 355 548 
Q 362 548 , 362 548 
L 362 546 
L 380 546 
L 380 548 
Q 380 548 , 367 549 
Q 355 549 , 330 549 
Q 306 549 , 293 549 
Q 280 548 , 280 548 
L 280 546 
" fill="#D21010" />
<path d="
M 385 549 
L 403 549 
L 403 552 
Q 403 553 , 411 553 
Q 418 553 , 435 553 
Q 452 553 , 460 553 
Q 467 553 , 467 552 
L 467 549 
L 485 549 
L 485 552 
Q 485 553 , 472 554 
Q 460 554 , 435 554 
Q 411 554 , 398 554 
Q 385 553 , 385 552 
L 385 549 
" fill="#D21010" />
<path d="
M 435 544 
L 417 546 
L 451 546 
L 435 544 
M 428 543 
L 442 543 
L 485 549 
L 469 549 
L 457 547 
L 413 547 
L 400 549 
L 385 549 
L 428 543 
" fill="#339541" />
<path d="
M 485 528 
L 485 530 
Q 470 529 , 462 528 
Q 454 528 , 444 528 
Q 423 528 , 413 529 
Q 401 531 , 401 534 
Q 401 538 , 413 539 
Q 423 541 , 444 541 
Q 454 541 , 462 541 
Q 470 540 , 485 538 
L 485 541 
Q 474 542 , 464 542 
Q 454 543 , 443 543 
Q 416 543 , 401 541 
Q 385 538 , 385 534 
Q 385 531 , 401 528 
Q 416 526 , 443 526 
Q 454 526 , 464 526 
Q 475 527 , 485 528 
" fill="#545FFF" />
<path d="
M 469 475 
L 469 380 
L 440 380 
L 440 341 
L 485 341 
L 485 499 
Q 474 514 , 463 520 
Q 454 525 , 442 526 
Q 416 526 , 400 478 
Q 385 432 , 385 349 
Q 385 266 , 400 219 
Q 416 172 , 442 172 
Q 453 172 , 462 178 
Q 472 185 , 482 201 
L 482 246 
Q 469 226 , 461 220 
Q 452 214 , 443 214 
Q 422 214 , 411 247 
Q 401 281 , 401 349 
Q 401 419 , 411 453 
Q 422 487 , 443 487 
Q 452 487 , 459 483 
Q 466 480 , 469 475 
" fill="#F5C000" />
<path d="
M 490 549 
L 508 549 
L 508 552 
Q 508 553 , 516 553 
Q 523 554 , 540 554 
Q 557 554 , 565 553 
Q 572 553 , 572 552 
L 572 549 
L 590 549 
L 590 552 
Q 590 553 , 577 554 
Q 565 554 , 540 554 
Q 516 554 , 503 554 
Q 490 553 , 490 552 
L 490 549 
" fill="#D21010" />
<path d="
M 590 539 
L 590 541 
Q 575 540 , 567 539 
Q 559 539 , 549 539 
Q 528 539 , 518 540 
Q 506 541 , 506 543 
Q 506 545 , 518 546 
Q 528 547 , 549 547 
Q 559 547 , 567 547 
Q 575 547 , 590 546 
L 590 548 
Q 579 548 , 569 548 
Q 559 549 , 548 549 
Q 521 549 , 506 547 
Q 490 546 , 490 543 
Q 490 541 , 506 539 
Q 521 538 , 548 538 
Q 559 538 , 569 538 
Q 580 539 , 590 539 
" fill="#545FFF" />
<path d="
M 574 533 
L 574 523 
L 545 523 
L 545 519 
L 590 519 
L 590 535 
Q 579 537 , 568 537 
Q 559 538 , 547 538 
Q 521 538 , 505 533 
Q 490 528 , 490 519 
Q 490 511 , 505 506 
Q 521 501 , 547 501 
Q 558 501 , 567 502 
Q 577 502 , 587 504 
L 587 509 
Q 574 507 , 566 506 
Q 557 505 , 548 505 
Q 527 505 , 516 509 
Q 506 512 , 506 519 
Q 506 527 , 516 530 
Q 527 534 , 548 534 
Q 557 534 , 564 533 
Q 571 533 , 574 533 
" fill="#F5C000" />
<path d="
M 540 459 
L 522 480 
L 556 480 
L 540 459 
M 533 450 
L 547 450 
L 590 501 
L 574 501 
L 562 486 
L 518 486 
L 505 501 
L 490 501 
L 533 450 
" fill="#339541" />
<path d="
M 595 547 
L 613 547 
L 613 551 
Q 613 552 , 621 553 
Q 628 553 , 645 553 
Q 662 553 , 670 553 
Q 677 552 , 677 551 
L 677 547 
L 695 547 
L 695 551 
Q 695 553 , 682 553 
Q 670 554 , 645 554 
Q 621 554 , 608 553 
Q 595 553 , 595 551 
L 595 547 
" fill="#D21010" />
<path d="
M 695 536 
L 695 538 
Q 680 537 , 672 537 
Q 664 536 , 654 536 
Q 633 536 , 623 537 
Q 611 539 , 611 541 
Q 611 543 , 623 544 
Q 633 545 , 654 545 
Q 664 545 , 672 545 
Q 680 545 , 695 544 
L 695 545 
Q 684 546 , 674 546 
Q 664 547 , 653 547 
Q 626 547 , 611 545 
Q 595 543 , 595 541 
Q 595 538 , 611 537 
Q 626 535 , 653 535 
Q 664 535 , 674 535 
Q 685 536 , 695 536 
" fill="#545FFF" />
<path d="
M 679 532 
L 679 528 
L 650 528 
L 650 527 
L 695 527 
L 695 533 
Q 684 534 , 673 534 
Q 664 534 , 652 534 
Q 626 534 , 610 532 
Q 595 531 , 595 527 
Q 595 524 , 610 522 
Q 626 520 , 652 520 
Q 663 520 , 672 520 
Q 682 521 , 692 521 
L 692 523 
Q 679 522 , 671 522 
Q 662 522 , 653 522 
Q 632 522 , 621 523 
Q 611 524 , 611 527 
Q 611 530 , 621 531 
Q 632 533 , 653 533 
Q 662 533 , 669 533 
Q 676 533 , 679 532 
" fill="#F5C000" />
<path d="
M 645 489 
L 627 504 
L 661 504 
L 645 489 
M 638 482 
L 652 482 
L 695 519 
L 679 519 
L 667 508 
L 623 508 
L 610 519 
L 595 519 
L 638 482 
" fill="#339541" />
<path d="
M 750 548 
L 732 552 
L 766 552 
L 750 548 
M 743 547 
L 757 547 
L 800 555 
L 784 555 
L 772 552 
L 728 552 
L 715 555 
L 700 555 
L 743 547 
" fill="#339541" />
<path d="
M 700 537 
L 718 537 
L 718 543 
Q 718 544 , 726 545 
Q 733 546 , 750 546 
Q 767 546 , 775 545 
Q 782 544 , 782 543 
L 782 537 
L 800 537 
L 800 543 
Q 800 545 , 787 546 
Q 775 547 , 750 547 
Q 726 547 , 713 546 
Q 700 545 , 700 543 
L 700 537 
" fill="#D21010" />
<path d="
M 800 502 
L 800 508 
Q 785 504 , 777 503 
Q 769 502 , 759 502 
Q 738 502 , 728 506 
Q 716 510 , 716 517 
Q 716 525 , 728 529 
Q 738 532 , 759 532 
Q 769 532 , 777 531 
Q 785 530 , 800 526 
L 800 533 
Q 789 535 , 779 536 
Q 769 536 , 758 536 
Q 731 536 , 716 531 
Q 700 526 , 700 517 
Q 700 508 , 716 503 
Q 731 498 , 758 498 
Q 769 498 , 779 499 
Q 790 500 , 800 502 
" fill="#545FFF" />
<path d="
M 784 475 
L 784 434 
L 755 434 
L 755 417 
L 800 417 
L 800 485 
Q 789 492 , 778 494 
Q 769 497 , 757 497 
Q 731 497 , 715 477 
Q 700 456 , 700 421 
Q 700 385 , 715 365 
Q 731 344 , 757 344 
Q 768 344 , 777 347 
Q 787 349 , 797 356 
L 797 376 
Q 784 367 , 776 365 
Q 767 362 , 758 362 
Q 737 362 , 726 377 
Q 716 391 , 716 421 
Q 716 451 , 726 466 
Q 737 480 , 758 480 
Q 767 480 , 774 479 
Q 781 477 , 784 475 
" fill="#F5C000" />
<path d="
M 805 554 
L 823 554 
L 823 554 
Q 823 554 , 831 554 
Q 838 555 , 855 555 
Q 872 555 , 880 554 
Q 887 554 , 887 554 
L 887 554 
L 905 554 
L 905 554 
Q 905 554 , 892 555 
Q 880 555 , 855 555 
Q 831 555 , 818 555 
Q 805 554 , 805 554 
L 805 554 
" fill="#D21010" />
<path d="
M 855 553 
L 837 553 
L 871 553 
L 855 553 
M 848 553 
L 862 553 
L 905 554 
L 889 554 
L 877 553 
L 833 553 
L 820 554 
L 805 554 
L 848 553 
" fill="#339541" />
<path d="
M 905 552 
L 905 552 
Q 890 552 , 882 552 
Q 874 552 , 864 552 
Q 843 552 , 833 552 
Q 821 552 , 821 552 
Q 821 552 , 833 553 
Q 843 553 , 864 553 
Q 874 553 , 882 553 
Q 890 553 , 905 552 
L 905 553 
Q 894 553 , 884 553 
Q 874 553 , 863 553 
Q 836 553 , 821 553 
Q 805 552 , 805 552 
Q 805 552 , 821 552 
Q 836 552 , 863 552 
Q 874 552 , 884 552 
Q 895 552 , 905 552 
" fill="#545FFF" />
<path d="
M 889 552 
L 889 551 
L 860 551 
L 860 551 
L 905 551 
L 905 552 
Q 894 552 , 883 552 
Q 874 552 , 862 552 
Q 836 552 , 820 552 
Q 805 552 , 805 551 
Q 805 551 , 820 551 
Q 836 551 , 862 551 
Q 873 551 , 882 551 
Q 892 551 , 902 551 
L 902 551 
Q 889 551 , 881 551 
Q 872 551 , 863 551 
Q 842 551 , 831 551 
Q 821 551 , 821 551 
Q 821 552 , 831 552 
Q 842 552 , 863 552 
Q 872 552 , 879 552 
Q 886 552 , 889 552 
" fill="#F5C000" />
<path d="M 65 55 L 65 555 " stroke="black" stroke-width="1.5"/>
<path d="M 55 555 L 65 555 " stroke="black" stroke-width="4"/>
<text text-anchor="end" x="50" y="555" font-size="50" alignment-baseline="middle">0</text>
<path d="M 55 305 L 65 305 " stroke="black" stroke-width="4"/>
<text text-anchor="end" x="50" y="305" font-size="50" alignment-baseline="middle">1</text>
<path d="M 55 55 L 65 55 " stroke="black" stroke-width="4"/>
<text text-anchor="end" x="50" y="55" font-size="50" alignment-baseline="middle">2</text>
<text text-anchor="middle" x="487" y="50" font-size="50" alignment-baseline="baseline"></text>
G<path d="
M 160 582 
L 126 595 
L 160 608 
L 157 611 
L 123 598 
L 123 623 
L 117 623 
L 117 599 
L 83 611 
L 80 608 
L 114 595 
L 80 582 
L 83 579 
L 117 591 
L 117 567 
L 123 567 
L 123 591 
L 157 579 
L 160 582 
" fill="black" />
<path d="
" fill="black" />
<path d="
M 211 567 
L 238 567 
L 238 623 
L 211 623 
L 211 567 
" fill="black" />
<path d="
" fill="black" />
<path d="
" fill="black" />
<path d="
M 316 567 
L 343 567 
L 343 623 
L 316 623 
L 316 567 
" fill="black" />
<path d="
" fill="black" />
<path d="
" fill="black" />
<path d="
M 421 567 
L 448 567 
L 448 623 
L 421 623 
L 421 567 
" fill="black" />
<path d="
" fill="black" />
<path d="
" fill="black" />
<path d="
M 526 567 
L 553 567 
L 553 623 
L 526 623 
L 526 567 
" fill="black" />
<path d="
" fill="black" />
<path d="
" fill="black" />
<path d="
M 631 567 
L 658 567 
L 658 623 
L 631 623 
L 631 567 
" fill="black" />
<path d="
" fill="black" />
<path d="
" fill="black" />
<path d="
M 736 567 
L 763 567 
L 763 623 
L 736 623 
L 736 567 
" fill="black" />
<path d="
" fill="black" />
<path d="
M 895 582 
L 861 595 
L 895 608 
L 892 611 
L 858 598 
L 858 623 
L 852 623 
L 852 599 
L 818 611 
L 815 608 
L 849 595 
L 815 582 
L 818 579 
L 852 591 
L 852 567 
L 858 567 
L 858 591 
L 892 579 
L 895 582 
" fill="black" />
</svg>
