<svg xmlns="http://www.w3.org/2000/svg"
viewBox="0 0 1435 635">
<path d="
M 170 552 
L 170 553 
Q 155 552 , 147 552 
Q 139 552 , 129 552 
Q 108 552 , 98 553 
Q 86 553 , 86 553 
Q 86 554 , 98 554 
Q 108 554 , 129 554 
Q 139 554 , 147 554 
Q 155 554 , 170 554 
L 170 554 
Q 159 555 , 149 555 
Q 139 555 , 128 555 
Q 101 555 , 86 554 
Q 70 554 , 70 553 
Q 70 553 , 86 552 
Q 101 552 , 128 552 
Q 139 552 , 149 552 
Q 160 552 , 170 552 
" fill="#545FFF" />
<path d="
M 154 551 
L 154 550 
L 125 550 
L 125 550 
L 170 550 
L 170 552 
Q 159 552 , 148 552 
Q 139 552 , 127 552 
Q 101 552 , 85 551 
Q 70 551 , 70 550 
Q 70 549 , 85 549 
Q 101 548 , 127 548 
Q 138 548 , 147 548 
Q 157 548 , 167 548 
L 167 549 
Q 154 549 , 146 549 
Q 137 548 , 128 548 
Q 107 548 , 96 549 
Q 86 549 , 86 550 
Q 86 551 , 96 551 
Q 107 551 , 128 551 
Q 137 551 , 144 551 
Q 151 551 , 154 551 
" fill="#F5C000" />
<path d="
M 120 544 
L 102 546 
L 136 546 
L 120 544 
M 113 543 
L 127 543 
L 170 548 
L 154 548 
L 142 546 
L 98 546 
L 85 548 
L 70 548 
L 113 543 
" fill="#339541" />
<path d="
M 70 535 
L 88 535 
L 88 539 
Q 88 541 , 96 541 
Q 103 542 , 120 542 
Q 137 542 , 145 541 
Q 152 541 , 152 539 
L 152 535 
L 170 535 
L 170 540 
Q 170 541 , 157 542 
Q 145 543 , 120 543 
Q 96 543 , 83 542 
Q 70 541 , 70 540 
L 70 535 
" fill="#D21010" />
<path d="
M 275 552 
L 275 553 
Q 260 552 , 252 552 
Q 244 552 , 234 552 
Q 213 552 , 203 552 
Q 191 553 , 191 553 
Q 191 553 , 203 554 
Q 213 554 , 234 554 
Q 244 554 , 252 554 
Q 260 554 , 275 554 
L 275 554 
Q 264 554 , 254 554 
Q 244 554 , 233 554 
Q 206 554 , 191 554 
Q 175 554 , 175 553 
Q 175 553 , 191 552 
Q 206 552 , 233 552 
Q 244 552 , 254 552 
Q 265 552 , 275 552 
" fill="#545FFF" />
<path d="
M 225 536 
L 207 544 
L 241 544 
L 225 536 
M 218 533 
L 232 533 
L 275 551 
L 259 551 
L 247 546 
L 203 546 
L 190 551 
L 175 551 
L 218 533 
" fill="#339541" />
<path d="
M 259 530 
L 259 525 
L 230 525 
L 230 522 
L 275 522 
L 275 531 
Q 264 532 , 253 532 
Q 244 533 , 232 533 
Q 206 533 , 190 530 
Q 175 527 , 175 523 
Q 175 518 , 190 516 
Q 206 513 , 232 513 
Q 243 513 , 252 513 
Q 262 514 , 272 515 
L 272 517 
Q 259 516 , 251 516 
Q 242 515 , 233 515 
Q 212 515 , 201 517 
Q 191 519 , 191 523 
Q 191 527 , 201 529 
Q 212 530 , 233 530 
Q 242 530 , 249 530 
Q 256 530 , 259 530 
" fill="#F5C000" />
<path d="
M 175 459 
L 193 459 
L 193 490 
Q 193 499 , 201 503 
Q 208 506 , 225 506 
Q 242 506 , 250 503 
Q 257 499 , 257 490 
L 257 459 
L 275 459 
L 275 491 
Q 275 502 , 262 507 
Q 250 512 , 225 512 
Q 201 512 , 188 507 
Q 175 502 , 175 491 
L 175 459 
" fill="#D21010" />
<path d="
M 380 554 
L 380 554 
Q 365 554 , 357 554 
Q 349 554 , 339 554 
Q 318 554 , 308 554 
Q 296 554 , 296 554 
Q 296 555 , 308 555 
Q 318 555 , 339 555 
Q 349 555 , 357 555 
Q 365 555 , 380 555 
L 380 555 
Q 369 555 , 359 555 
Q 349 555 , 338 555 
Q 311 555 , 296 555 
Q 280 555 , 280 554 
Q 280 554 , 296 554 
Q 311 554 , 338 554 
Q 349 554 , 359 554 
Q 370 554 , 380 554 
" fill="#545FFF" />
<path d="
M 364 553 
L 364 551 
L 335 551 
L 335 551 
L 380 551 
L 380 553 
Q 369 553 , 358 553 
Q 349 553 , 337 553 
Q 311 553 , 295 553 
Q 280 552 , 280 551 
Q 280 549 , 295 549 
Q 311 548 , 337 548 
Q 348 548 , 357 548 
Q 367 548 , 377 548 
L 377 549 
Q 364 549 , 356 549 
Q 347 549 , 338 549 
Q 317 549 , 306 549 
Q 296 550 , 296 551 
Q 296 552 , 306 552 
Q 317 553 , 338 553 
Q 347 553 , 354 553 
Q 361 553 , 364 553 
" fill="#F5C000" />
<path d="
M 330 533 
L 312 540 
L 346 540 
L 330 533 
M 323 530 
L 337 530 
L 380 548 
L 364 548 
L 352 542 
L 308 542 
L 295 548 
L 280 548 
L 323 530 
" fill="#339541" />
<path d="
M 280 262 
L 298 262 
L 298 420 
Q 298 464 , 306 483 
Q 313 500 , 330 500 
Q 347 500 , 355 483 
Q 362 464 , 362 420 
L 362 262 
L 380 262 
L 380 424 
Q 380 476 , 367 503 
Q 355 530 , 330 530 
Q 306 530 , 293 503 
Q 280 476 , 280 424 
L 280 262 
" fill="#D21010" />
<path d="
M 435 554 
L 435 554 
Q 428 554 , 424 554 
Q 419 554 , 414 554 
Q 404 554 , 399 554 
Q 393 554 , 393 554 
Q 393 554 , 399 554 
Q 404 555 , 414 555 
Q 419 555 , 424 554 
Q 428 554 , 435 554 
L 435 555 
Q 430 555 , 424 555 
Q 420 555 , 414 555 
Q 400 555 , 393 554 
Q 385 554 , 385 554 
Q 385 554 , 393 554 
Q 400 554 , 414 554 
Q 420 554 , 425 554 
Q 430 554 , 435 554 
" fill="#545FFF" />
<path d="
M 477 554 
L 477 554 
L 463 554 
L 463 554 
L 485 554 
L 485 555 
Q 480 555 , 474 555 
Q 469 555 , 463 555 
Q 450 555 , 443 554 
Q 435 554 , 435 554 
Q 435 554 , 443 554 
Q 450 554 , 463 554 
Q 469 554 , 474 554 
Q 479 554 , 484 554 
L 484 554 
Q 477 554 , 473 554 
Q 469 554 , 464 554 
Q 454 554 , 448 554 
Q 443 554 , 443 554 
Q 443 554 , 448 554 
Q 454 555 , 464 555 
Q 469 555 , 472 554 
Q 476 554 , 477 554 
" fill="lightgray" />
<path d="
M 427 553 
L 427 552 
L 413 552 
L 413 551 
L 435 551 
L 435 553 
Q 430 554 , 424 554 
Q 419 554 , 413 554 
Q 400 554 , 393 553 
Q 385 553 , 385 551 
Q 385 550 , 393 550 
Q 400 549 , 413 549 
Q 419 549 , 424 549 
Q 429 549 , 434 549 
L 434 550 
Q 427 550 , 423 550 
Q 419 550 , 414 550 
Q 404 550 , 398 550 
Q 393 550 , 393 551 
Q 393 552 , 398 553 
Q 404 553 , 414 553 
Q 419 553 , 422 553 
Q 426 553 , 427 553 
" fill="#F5C000" />
<path d="
M 485 550 
L 485 550 
Q 478 550 , 474 550 
Q 469 550 , 464 550 
Q 454 550 , 449 550 
Q 443 550 , 443 551 
Q 443 552 , 449 553 
Q 454 553 , 464 553 
Q 469 553 , 474 553 
Q 478 553 , 485 553 
L 485 553 
Q 480 554 , 474 554 
Q 470 554 , 464 554 
Q 450 554 , 443 553 
Q 435 553 , 435 551 
Q 435 550 , 443 550 
Q 450 549 , 464 549 
Q 470 549 , 475 549 
Q 480 549 , 485 550 
" fill="lightgray" />
<path d="
M 385 542 
L 394 542 
L 394 546 
Q 394 547 , 398 547 
Q 401 547 , 410 547 
Q 419 547 , 422 547 
Q 426 547 , 426 546 
L 426 542 
L 435 542 
L 435 546 
Q 435 547 , 429 547 
Q 422 548 , 410 548 
Q 398 548 , 391 547 
Q 385 547 , 385 546 
L 385 542 
" fill="#D21010" />
<path d="
M 460 543 
L 451 546 
L 468 546 
L 460 543 
M 456 542 
L 464 542 
L 485 548 
L 477 548 
L 471 546 
L 449 546 
L 442 548 
L 435 548 
L 456 542 
" fill="lightgray" />
<path d="
M 385 516 
L 394 516 
L 394 531 
Q 394 535 , 398 537 
Q 401 538 , 410 538 
Q 419 538 , 422 537 
Q 426 535 , 426 531 
L 426 516 
L 435 516 
L 435 531 
Q 435 536 , 429 539 
Q 422 541 , 410 541 
Q 398 541 , 391 539 
Q 385 536 , 385 531 
L 385 516 
" fill="#D21010" />
<path d="
M 477 537 
L 477 531 
L 463 531 
L 463 528 
L 485 528 
L 485 539 
Q 480 540 , 474 541 
Q 469 541 , 463 541 
Q 450 541 , 443 538 
Q 435 534 , 435 529 
Q 435 523 , 443 519 
Q 450 516 , 463 516 
Q 469 516 , 474 516 
Q 479 517 , 484 518 
L 484 521 
Q 477 520 , 473 519 
Q 469 519 , 464 519 
Q 454 519 , 448 521 
Q 443 524 , 443 529 
Q 443 533 , 448 536 
Q 454 538 , 464 538 
Q 469 538 , 472 538 
Q 476 538 , 477 537 
" fill="lightgray" />
<path d="
M 410 485 
L 401 500 
L 418 500 
L 410 485 
M 406 478 
L 414 478 
L 435 515 
L 427 515 
L 421 504 
L 399 504 
L 392 515 
L 385 515 
L 406 478 
" fill="#339541" />
<path d="
M 435 478 
L 444 478 
L 444 500 
Q 444 506 , 448 509 
Q 451 511 , 460 511 
Q 469 511 , 472 509 
Q 476 506 , 476 500 
L 476 478 
L 485 478 
L 485 501 
Q 485 508 , 479 511 
Q 472 515 , 460 515 
Q 448 515 , 441 511 
Q 435 508 , 435 501 
L 435 478 
" fill="lightgray" />
<path d="
M 427 469 
L 427 452 
L 413 452 
L 413 445 
L 435 445 
L 435 473 
Q 430 475 , 424 476 
Q 419 477 , 413 478 
Q 400 478 , 393 469 
Q 385 461 , 385 447 
Q 385 432 , 393 424 
Q 400 416 , 413 416 
Q 419 416 , 424 417 
Q 429 418 , 434 421 
L 434 429 
Q 427 425 , 423 424 
Q 419 423 , 414 423 
Q 404 423 , 398 429 
Q 393 435 , 393 447 
Q 393 459 , 398 465 
Q 404 471 , 414 471 
Q 419 471 , 422 470 
Q 426 469 , 427 469 
" fill="#F5C000" />
<path d="
M 435 416 
L 444 416 
L 444 452 
Q 444 462 , 448 467 
Q 451 471 , 460 471 
Q 469 471 , 472 467 
Q 476 462 , 476 452 
L 476 416 
L 485 416 
L 485 453 
Q 485 465 , 479 471 
Q 472 478 , 460 478 
Q 448 478 , 441 471 
Q 435 465 , 435 453 
L 435 416 
" fill="lightgray" />
<path d="
M 532 555 
L 532 554 
L 518 554 
L 518 554 
L 540 554 
L 540 555 
Q 535 555 , 529 555 
Q 524 555 , 518 555 
Q 505 555 , 498 555 
Q 490 554 , 490 554 
Q 490 554 , 498 553 
Q 505 553 , 518 553 
Q 524 553 , 529 553 
Q 534 553 , 539 553 
L 539 553 
Q 532 553 , 528 553 
Q 524 553 , 519 553 
Q 509 553 , 503 553 
Q 498 554 , 498 554 
Q 498 554 , 503 555 
Q 509 555 , 519 555 
Q 524 555 , 527 555 
Q 531 555 , 532 555 
" fill="#F5C000" />
<path d="
M 590 553 
L 590 554 
Q 583 553 , 579 553 
Q 574 553 , 569 553 
Q 559 553 , 554 553 
Q 548 554 , 548 554 
Q 548 554 , 554 555 
Q 559 555 , 569 555 
Q 574 555 , 579 555 
Q 583 555 , 590 554 
L 590 555 
Q 585 555 , 579 555 
Q 575 555 , 569 555 
Q 555 555 , 548 555 
Q 540 554 , 540 554 
Q 540 554 , 548 553 
Q 555 553 , 569 553 
Q 575 553 , 580 553 
Q 585 553 , 590 553 
" fill="lightgray" />
<path d="
M 540 550 
L 540 551 
Q 533 550 , 529 550 
Q 524 550 , 519 550 
Q 509 550 , 504 551 
Q 498 551 , 498 551 
Q 498 552 , 504 552 
Q 509 553 , 519 553 
Q 524 553 , 529 552 
Q 533 552 , 540 552 
L 540 553 
Q 535 553 , 529 553 
Q 525 553 , 519 553 
Q 505 553 , 498 552 
Q 490 552 , 490 551 
Q 490 551 , 498 550 
Q 505 550 , 519 550 
Q 525 550 , 530 550 
Q 535 550 , 540 550 
" fill="#545FFF" />
<path d="
M 582 552 
L 582 552 
L 568 552 
L 568 551 
L 590 551 
L 590 553 
Q 585 553 , 579 553 
Q 574 553 , 568 553 
Q 555 553 , 548 552 
Q 540 552 , 540 551 
Q 540 551 , 548 550 
Q 555 550 , 568 550 
Q 574 550 , 579 550 
Q 584 550 , 589 550 
L 589 551 
Q 582 550 , 578 550 
Q 574 550 , 569 550 
Q 559 550 , 553 551 
Q 548 551 , 548 551 
Q 548 552 , 553 552 
Q 559 553 , 569 553 
Q 574 553 , 577 552 
Q 581 552 , 582 552 
" fill="lightgray" />
<path d="
M 515 546 
L 506 548 
L 523 548 
L 515 546 
M 511 545 
L 519 545 
L 540 549 
L 532 549 
L 526 548 
L 504 548 
L 497 549 
L 490 549 
L 511 545 
" fill="#339541" />
<path d="
M 540 545 
L 549 545 
L 549 548 
Q 549 548 , 553 549 
Q 556 549 , 565 549 
Q 574 549 , 577 549 
Q 581 548 , 581 548 
L 581 545 
L 590 545 
L 590 548 
Q 590 549 , 584 549 
Q 577 549 , 565 549 
Q 553 549 , 546 549 
Q 540 549 , 540 548 
L 540 545 
" fill="lightgray" />
<path d="
M 532 542 
L 532 538 
L 518 538 
L 518 537 
L 540 537 
L 540 543 
Q 535 544 , 529 544 
Q 524 544 , 518 544 
Q 505 544 , 498 542 
Q 490 540 , 490 537 
Q 490 534 , 498 532 
Q 505 530 , 518 530 
Q 524 530 , 529 530 
Q 534 531 , 539 531 
L 539 533 
Q 532 532 , 528 532 
Q 524 532 , 519 532 
Q 509 532 , 503 533 
Q 498 534 , 498 537 
Q 498 540 , 503 541 
Q 509 543 , 519 543 
Q 524 543 , 527 542 
Q 531 542 , 532 542 
" fill="#F5C000" />
<path d="
M 540 530 
L 549 530 
L 549 538 
Q 549 541 , 553 542 
Q 556 543 , 565 543 
Q 574 543 , 577 542 
Q 581 541 , 581 538 
L 581 530 
L 590 530 
L 590 539 
Q 590 541 , 584 543 
Q 577 544 , 565 544 
Q 553 544 , 546 543 
Q 540 541 , 540 539 
L 540 530 
" fill="lightgray" />
<path d="
M 490 467 
L 499 467 
L 499 504 
Q 499 514 , 503 518 
Q 506 522 , 515 522 
Q 524 522 , 527 518 
Q 531 514 , 531 504 
L 531 467 
L 540 467 
L 540 505 
Q 540 517 , 534 523 
Q 527 529 , 515 529 
Q 503 529 , 496 523 
Q 490 517 , 490 505 
L 490 467 
" fill="#D21010" />
<path d="
M 565 478 
L 556 504 
L 573 504 
L 565 478 
M 561 467 
L 569 467 
L 590 529 
L 582 529 
L 576 511 
L 554 511 
L 547 529 
L 540 529 
L 561 467 
" fill="lightgray" />
<path d="
M 490 339 
L 499 339 
L 499 414 
Q 499 435 , 503 444 
Q 506 452 , 515 452 
Q 524 452 , 527 444 
Q 531 435 , 531 414 
L 531 339 
L 540 339 
L 540 416 
Q 540 441 , 534 454 
Q 527 467 , 515 467 
Q 503 467 , 496 454 
Q 490 441 , 490 416 
L 490 339 
" fill="#D21010" />
<path d="
M 582 448 
L 582 414 
L 568 414 
L 568 400 
L 590 400 
L 590 457 
Q 585 462 , 579 464 
Q 574 467 , 568 467 
Q 555 467 , 548 450 
Q 540 433 , 540 403 
Q 540 373 , 548 356 
Q 555 339 , 568 339 
Q 574 339 , 579 341 
Q 584 344 , 589 349 
L 589 366 
Q 582 358 , 578 356 
Q 574 354 , 569 354 
Q 559 354 , 553 366 
Q 548 378 , 548 403 
Q 548 428 , 553 440 
Q 559 453 , 569 453 
Q 574 453 , 577 451 
Q 581 450 , 582 448 
" fill="lightgray" />
<path d="
M 695 552 
L 695 553 
Q 680 552 , 672 552 
Q 664 552 , 654 552 
Q 633 552 , 623 552 
Q 611 553 , 611 553 
Q 611 554 , 623 554 
Q 633 554 , 654 554 
Q 664 554 , 672 554 
Q 680 554 , 695 554 
L 695 554 
Q 684 554 , 674 554 
Q 664 554 , 653 554 
Q 626 554 , 611 554 
Q 595 554 , 595 553 
Q 595 553 , 611 552 
Q 626 552 , 653 552 
Q 664 552 , 674 552 
Q 685 552 , 695 552 
" fill="#545FFF" />
<path d="
M 679 550 
L 679 547 
L 650 547 
L 650 546 
L 695 546 
L 695 551 
Q 684 552 , 673 552 
Q 664 552 , 652 552 
Q 626 552 , 610 550 
Q 595 549 , 595 546 
Q 595 543 , 610 542 
Q 626 540 , 652 540 
Q 663 540 , 672 540 
Q 682 540 , 692 541 
L 692 543 
Q 679 542 , 671 542 
Q 662 541 , 653 541 
Q 632 541 , 621 543 
Q 611 544 , 611 546 
Q 611 548 , 621 550 
Q 632 551 , 653 551 
Q 662 551 , 669 551 
Q 676 550 , 679 550 
" fill="#F5C000" />
<path d="
M 645 524 
L 627 531 
L 661 531 
L 645 524 
M 638 520 
L 652 520 
L 695 539 
L 679 539 
L 667 534 
L 623 534 
L 610 539 
L 595 539 
L 638 520 
" fill="#339541" />
<path d="
M 595 494 
L 613 494 
L 613 509 
Q 613 513 , 621 515 
Q 628 516 , 645 516 
Q 662 516 , 670 515 
Q 677 513 , 677 509 
L 677 494 
L 695 494 
L 695 509 
Q 695 514 , 682 517 
Q 670 519 , 645 519 
Q 621 519 , 608 517 
Q 595 514 , 595 509 
L 595 494 
" fill="#D21010" />
<path d="
M 800 552 
L 800 553 
Q 785 552 , 777 552 
Q 769 552 , 759 552 
Q 738 552 , 728 553 
Q 716 553 , 716 553 
Q 716 554 , 728 554 
Q 738 554 , 759 554 
Q 769 554 , 777 554 
Q 785 554 , 800 554 
L 800 554 
Q 789 555 , 779 555 
Q 769 555 , 758 555 
Q 731 555 , 716 554 
Q 700 554 , 700 553 
Q 700 553 , 716 552 
Q 731 552 , 758 552 
Q 769 552 , 779 552 
Q 790 552 , 800 552 
" fill="#545FFF" />
<path d="
M 784 551 
L 784 550 
L 755 550 
L 755 550 
L 800 550 
L 800 552 
Q 789 552 , 778 552 
Q 769 552 , 757 552 
Q 731 552 , 715 551 
Q 700 551 , 700 550 
Q 700 549 , 715 549 
Q 731 548 , 757 548 
Q 768 548 , 777 548 
Q 787 548 , 797 548 
L 797 549 
Q 784 549 , 776 549 
Q 767 548 , 758 548 
Q 737 548 , 726 549 
Q 716 549 , 716 550 
Q 716 551 , 726 551 
Q 737 551 , 758 551 
Q 767 551 , 774 551 
Q 781 551 , 784 551 
" fill="#F5C000" />
<path d="
M 750 544 
L 732 546 
L 766 546 
L 750 544 
M 743 543 
L 757 543 
L 800 548 
L 784 548 
L 772 546 
L 728 546 
L 715 548 
L 700 548 
L 743 543 
" fill="#339541" />
<path d="
M 700 535 
L 718 535 
L 718 539 
Q 718 541 , 726 541 
Q 733 542 , 750 542 
Q 767 542 , 775 541 
Q 782 541 , 782 539 
L 782 535 
L 800 535 
L 800 540 
Q 800 541 , 787 542 
Q 775 543 , 750 543 
Q 726 543 , 713 542 
Q 700 541 , 700 540 
L 700 535 
" fill="#D21010" />
<path d="
M 905 553 
L 905 553 
Q 890 553 , 882 553 
Q 874 553 , 864 553 
Q 843 553 , 833 553 
Q 821 553 , 821 553 
Q 821 554 , 833 554 
Q 843 554 , 864 554 
Q 874 554 , 882 554 
Q 890 554 , 905 554 
L 905 554 
Q 894 555 , 884 555 
Q 874 555 , 863 555 
Q 836 555 , 821 554 
Q 805 554 , 805 554 
Q 805 553 , 821 553 
Q 836 553 , 863 553 
Q 874 553 , 884 553 
Q 895 553 , 905 553 
" fill="#545FFF" />
<path d="
M 855 542 
L 837 548 
L 871 548 
L 855 542 
M 848 540 
L 862 540 
L 905 553 
L 889 553 
L 877 549 
L 833 549 
L 820 553 
L 805 553 
L 848 540 
" fill="#339541" />
<path d="
M 889 536 
L 889 528 
L 860 528 
L 860 525 
L 905 525 
L 905 537 
Q 894 539 , 883 539 
Q 874 539 , 862 540 
Q 836 540 , 820 536 
Q 805 532 , 805 526 
Q 805 519 , 820 516 
Q 836 512 , 862 512 
Q 873 512 , 882 512 
Q 892 513 , 902 514 
L 902 518 
Q 889 516 , 881 516 
Q 872 515 , 863 515 
Q 842 515 , 831 518 
Q 821 520 , 821 526 
Q 821 531 , 831 534 
Q 842 536 , 863 536 
Q 872 536 , 879 536 
Q 886 536 , 889 536 
" fill="#F5C000" />
<path d="
M 805 358 
L 823 358 
L 823 449 
Q 823 474 , 831 484 
Q 838 494 , 855 494 
Q 872 494 , 880 484 
Q 887 474 , 887 449 
L 887 358 
L 905 358 
L 905 451 
Q 905 480 , 892 496 
Q 880 512 , 855 512 
Q 831 512 , 818 496 
Q 805 480 , 805 451 
L 805 358 
" fill="#D21010" />
<path d="
M 1010 554 
L 1010 554 
Q 995 554 , 987 554 
Q 979 554 , 969 554 
Q 948 554 , 938 554 
Q 926 554 , 926 554 
Q 926 555 , 938 555 
Q 948 555 , 969 555 
Q 979 555 , 987 555 
Q 995 555 , 1010 555 
L 1010 555 
Q 999 555 , 989 555 
Q 979 555 , 968 555 
Q 941 555 , 926 555 
Q 910 555 , 910 554 
Q 910 554 , 926 554 
Q 941 554 , 968 554 
Q 979 554 , 989 554 
Q 1000 554 , 1010 554 
" fill="#545FFF" />
<path d="
M 960 541 
L 942 547 
L 976 547 
L 960 541 
M 953 538 
L 967 538 
L 1010 553 
L 994 553 
L 982 549 
L 938 549 
L 925 553 
L 910 553 
L 953 538 
" fill="#339541" />
<path d="
M 994 533 
L 994 525 
L 965 525 
L 965 521 
L 1010 521 
L 1010 535 
Q 999 536 , 988 537 
Q 979 537 , 967 538 
Q 941 538 , 925 533 
Q 910 529 , 910 522 
Q 910 514 , 925 510 
Q 941 506 , 967 506 
Q 978 506 , 987 507 
Q 997 507 , 1007 509 
L 1007 513 
Q 994 511 , 986 510 
Q 977 510 , 968 510 
Q 947 510 , 936 513 
Q 926 516 , 926 522 
Q 926 528 , 936 531 
Q 947 534 , 968 534 
Q 977 534 , 984 534 
Q 991 533 , 994 533 
" fill="#F5C000" />
<path d="
M 910 445 
L 928 445 
L 928 481 
Q 928 491 , 936 495 
Q 943 499 , 960 499 
Q 977 499 , 985 495 
Q 992 491 , 992 481 
L 992 445 
L 1010 445 
L 1010 482 
Q 1010 493 , 997 500 
Q 985 506 , 960 506 
Q 936 506 , 923 500 
Q 910 493 , 910 482 
L 910 445 
" fill="#D21010" />
<path d="
M 1115 554 
L 1115 554 
Q 1100 554 , 1092 554 
Q 1084 554 , 1074 554 
Q 1053 554 , 1043 554 
Q 1031 554 , 1031 554 
Q 1031 555 , 1043 555 
Q 1053 555 , 1074 555 
Q 1084 555 , 1092 555 
Q 1100 555 , 1115 555 
L 1115 555 
Q 1104 555 , 1094 555 
Q 1084 555 , 1073 555 
Q 1046 555 , 1031 555 
Q 1015 555 , 1015 554 
Q 1015 554 , 1031 554 
Q 1046 554 , 1073 554 
Q 1084 554 , 1094 554 
Q 1105 554 , 1115 554 
" fill="#545FFF" />
<path d="
M 1099 552 
L 1099 549 
L 1070 549 
L 1070 548 
L 1115 548 
L 1115 553 
Q 1104 553 , 1093 553 
Q 1084 553 , 1072 553 
Q 1046 553 , 1030 552 
Q 1015 551 , 1015 549 
Q 1015 546 , 1030 545 
Q 1046 544 , 1072 544 
Q 1083 544 , 1092 544 
Q 1102 544 , 1112 545 
L 1112 546 
Q 1099 545 , 1091 545 
Q 1082 545 , 1073 545 
Q 1052 545 , 1041 546 
Q 1031 547 , 1031 549 
Q 1031 550 , 1041 551 
Q 1052 552 , 1073 552 
Q 1082 552 , 1089 552 
Q 1096 552 , 1099 552 
" fill="#F5C000" />
<path d="
M 1065 526 
L 1047 535 
L 1081 535 
L 1065 526 
M 1058 522 
L 1072 522 
L 1115 544 
L 1099 544 
L 1087 537 
L 1043 537 
L 1030 544 
L 1015 544 
L 1058 522 
" fill="#339541" />
<path d="
M 1015 296 
L 1033 296 
L 1033 429 
Q 1033 466 , 1041 482 
Q 1048 496 , 1065 496 
Q 1082 496 , 1090 482 
Q 1097 466 , 1097 429 
L 1097 296 
L 1115 296 
L 1115 433 
Q 1115 476 , 1102 499 
Q 1090 522 , 1065 522 
Q 1041 522 , 1028 499 
Q 1015 476 , 1015 433 
L 1015 296 
" fill="#D21010" />
<path d="
M 1162 555 
L 1162 554 
L 1148 554 
L 1148 554 
L 1170 554 
L 1170 555 
Q 1165 555 , 1159 555 
Q 1154 555 , 1148 555 
Q 1135 555 , 1128 555 
Q 1120 554 , 1120 554 
Q 1120 554 , 1128 553 
Q 1135 553 , 1148 553 
Q 1154 553 , 1159 553 
Q 1164 553 , 1169 553 
L 1169 553 
Q 1162 553 , 1158 553 
Q 1154 553 , 1149 553 
Q 1139 553 , 1133 553 
Q 1128 554 , 1128 554 
Q 1128 554 , 1133 555 
Q 1139 555 , 1149 555 
Q 1154 555 , 1157 555 
Q 1161 555 , 1162 555 
" fill="lightgray" />
<path d="
M 1220 553 
L 1220 554 
Q 1213 553 , 1209 553 
Q 1204 553 , 1199 553 
Q 1189 553 , 1184 553 
Q 1178 554 , 1178 554 
Q 1178 554 , 1184 555 
Q 1189 555 , 1199 555 
Q 1204 555 , 1209 555 
Q 1213 555 , 1220 554 
L 1220 555 
Q 1215 555 , 1209 555 
Q 1205 555 , 1199 555 
Q 1185 555 , 1178 555 
Q 1170 554 , 1170 554 
Q 1170 554 , 1178 553 
Q 1185 553 , 1199 553 
Q 1205 553 , 1210 553 
Q 1215 553 , 1220 553 
" fill="#545FFF" />
<path d="
M 1170 550 
L 1170 551 
Q 1163 550 , 1159 550 
Q 1154 550 , 1149 550 
Q 1139 550 , 1134 551 
Q 1128 551 , 1128 551 
Q 1128 552 , 1134 552 
Q 1139 553 , 1149 553 
Q 1154 553 , 1159 552 
Q 1163 552 , 1170 552 
L 1170 553 
Q 1165 553 , 1159 553 
Q 1155 553 , 1149 553 
Q 1135 553 , 1128 552 
Q 1120 552 , 1120 551 
Q 1120 551 , 1128 550 
Q 1135 550 , 1149 550 
Q 1155 550 , 1160 550 
Q 1165 550 , 1170 550 
" fill="lightgray" />
<path d="
M 1212 552 
L 1212 552 
L 1198 552 
L 1198 551 
L 1220 551 
L 1220 553 
Q 1215 553 , 1209 553 
Q 1204 553 , 1198 553 
Q 1185 553 , 1178 552 
Q 1170 552 , 1170 551 
Q 1170 551 , 1178 550 
Q 1185 550 , 1198 550 
Q 1204 550 , 1209 550 
Q 1214 550 , 1219 550 
L 1219 551 
Q 1212 550 , 1208 550 
Q 1204 550 , 1199 550 
Q 1189 550 , 1183 551 
Q 1178 551 , 1178 551 
Q 1178 552 , 1183 552 
Q 1189 553 , 1199 553 
Q 1204 553 , 1207 552 
Q 1211 552 , 1212 552 
" fill="#F5C000" />
<path d="
M 1145 546 
L 1136 548 
L 1153 548 
L 1145 546 
M 1141 545 
L 1149 545 
L 1170 549 
L 1162 549 
L 1156 548 
L 1134 548 
L 1127 549 
L 1120 549 
L 1141 545 
" fill="lightgray" />
<path d="
M 1170 545 
L 1179 545 
L 1179 548 
Q 1179 548 , 1183 549 
Q 1186 549 , 1195 549 
Q 1204 549 , 1207 549 
Q 1211 548 , 1211 548 
L 1211 545 
L 1220 545 
L 1220 548 
Q 1220 549 , 1214 549 
Q 1207 549 , 1195 549 
Q 1183 549 , 1176 549 
Q 1170 549 , 1170 548 
L 1170 545 
" fill="#D21010" />
<path d="
M 1162 542 
L 1162 538 
L 1148 538 
L 1148 537 
L 1170 537 
L 1170 543 
Q 1165 544 , 1159 544 
Q 1154 544 , 1148 544 
Q 1135 544 , 1128 542 
Q 1120 540 , 1120 537 
Q 1120 534 , 1128 532 
Q 1135 530 , 1148 530 
Q 1154 530 , 1159 530 
Q 1164 531 , 1169 531 
L 1169 533 
Q 1162 532 , 1158 532 
Q 1154 532 , 1149 532 
Q 1139 532 , 1133 533 
Q 1128 534 , 1128 537 
Q 1128 540 , 1133 541 
Q 1139 543 , 1149 543 
Q 1154 543 , 1157 542 
Q 1161 542 , 1162 542 
" fill="lightgray" />
<path d="
M 1170 530 
L 1179 530 
L 1179 538 
Q 1179 541 , 1183 542 
Q 1186 543 , 1195 543 
Q 1204 543 , 1207 542 
Q 1211 541 , 1211 538 
L 1211 530 
L 1220 530 
L 1220 539 
Q 1220 541 , 1214 543 
Q 1207 544 , 1195 544 
Q 1183 544 , 1176 543 
Q 1170 541 , 1170 539 
L 1170 530 
" fill="#D21010" />
<path d="
M 1120 467 
L 1129 467 
L 1129 504 
Q 1129 514 , 1133 518 
Q 1136 522 , 1145 522 
Q 1154 522 , 1157 518 
Q 1161 514 , 1161 504 
L 1161 467 
L 1170 467 
L 1170 505 
Q 1170 517 , 1164 523 
Q 1157 529 , 1145 529 
Q 1133 529 , 1126 523 
Q 1120 517 , 1120 505 
L 1120 467 
" fill="lightgray" />
<path d="
M 1195 478 
L 1186 504 
L 1203 504 
L 1195 478 
M 1191 467 
L 1199 467 
L 1220 529 
L 1212 529 
L 1206 511 
L 1184 511 
L 1177 529 
L 1170 529 
L 1191 467 
" fill="#339541" />
<path d="
M 1120 339 
L 1129 339 
L 1129 414 
Q 1129 435 , 1133 444 
Q 1136 452 , 1145 452 
Q 1154 452 , 1157 444 
Q 1161 435 , 1161 414 
L 1161 339 
L 1170 339 
L 1170 416 
Q 1170 441 , 1164 454 
Q 1157 467 , 1145 467 
Q 1133 467 , 1126 454 
Q 1120 441 , 1120 416 
L 1120 339 
" fill="lightgray" />
<path d="
M 1212 448 
L 1212 414 
L 1198 414 
L 1198 400 
L 1220 400 
L 1220 457 
Q 1215 462 , 1209 464 
Q 1204 467 , 1198 467 
Q 1185 467 , 1178 450 
Q 1170 433 , 1170 403 
Q 1170 373 , 1178 356 
Q 1185 339 , 1198 339 
Q 1204 339 , 1209 341 
Q 1214 344 , 1219 349 
L 1219 366 
Q 1212 358 , 1208 356 
Q 1204 354 , 1199 354 
Q 1189 354 , 1183 366 
Q 1178 378 , 1178 403 
Q 1178 428 , 1183 440 
Q 1189 453 , 1199 453 
Q 1204 453 , 1207 451 
Q 1211 450 , 1212 448 
" fill="#F5C000" />
<path d="
M 1275 554 
L 1275 554 
Q 1268 554 , 1264 554 
Q 1259 554 , 1254 554 
Q 1244 554 , 1239 554 
Q 1233 554 , 1233 554 
Q 1233 554 , 1239 554 
Q 1244 555 , 1254 555 
Q 1259 555 , 1264 554 
Q 1268 554 , 1275 554 
L 1275 555 
Q 1270 555 , 1264 555 
Q 1260 555 , 1254 555 
Q 1240 555 , 1233 554 
Q 1225 554 , 1225 554 
Q 1225 554 , 1233 554 
Q 1240 554 , 1254 554 
Q 1260 554 , 1265 554 
Q 1270 554 , 1275 554 
" fill="lightgray" />
<path d="
M 1317 554 
L 1317 554 
L 1303 554 
L 1303 554 
L 1325 554 
L 1325 555 
Q 1320 555 , 1314 555 
Q 1309 555 , 1303 555 
Q 1290 555 , 1283 554 
Q 1275 554 , 1275 554 
Q 1275 554 , 1283 554 
Q 1290 554 , 1303 554 
Q 1309 554 , 1314 554 
Q 1319 554 , 1324 554 
L 1324 554 
Q 1317 554 , 1313 554 
Q 1309 554 , 1304 554 
Q 1294 554 , 1288 554 
Q 1283 554 , 1283 554 
Q 1283 554 , 1288 554 
Q 1294 555 , 1304 555 
Q 1309 555 , 1312 554 
Q 1316 554 , 1317 554 
" fill="#F5C000" />
<path d="
M 1267 553 
L 1267 552 
L 1253 552 
L 1253 551 
L 1275 551 
L 1275 553 
Q 1270 554 , 1264 554 
Q 1259 554 , 1253 554 
Q 1240 554 , 1233 553 
Q 1225 553 , 1225 551 
Q 1225 550 , 1233 550 
Q 1240 549 , 1253 549 
Q 1259 549 , 1264 549 
Q 1269 549 , 1274 549 
L 1274 550 
Q 1267 550 , 1263 550 
Q 1259 550 , 1254 550 
Q 1244 550 , 1238 550 
Q 1233 550 , 1233 551 
Q 1233 552 , 1238 553 
Q 1244 553 , 1254 553 
Q 1259 553 , 1262 553 
Q 1266 553 , 1267 553 
" fill="lightgray" />
<path d="
M 1325 550 
L 1325 550 
Q 1318 550 , 1314 550 
Q 1309 550 , 1304 550 
Q 1294 550 , 1289 550 
Q 1283 550 , 1283 551 
Q 1283 552 , 1289 553 
Q 1294 553 , 1304 553 
Q 1309 553 , 1314 553 
Q 1318 553 , 1325 553 
L 1325 553 
Q 1320 554 , 1314 554 
Q 1310 554 , 1304 554 
Q 1290 554 , 1283 553 
Q 1275 553 , 1275 551 
Q 1275 550 , 1283 550 
Q 1290 549 , 1304 549 
Q 1310 549 , 1315 549 
Q 1320 549 , 1325 550 
" fill="#545FFF" />
<path d="
M 1225 542 
L 1234 542 
L 1234 546 
Q 1234 547 , 1238 547 
Q 1241 547 , 1250 547 
Q 1259 547 , 1262 547 
Q 1266 547 , 1266 546 
L 1266 542 
L 1275 542 
L 1275 546 
Q 1275 547 , 1269 547 
Q 1262 548 , 1250 548 
Q 1238 548 , 1231 547 
Q 1225 547 , 1225 546 
L 1225 542 
" fill="lightgray" />
<path d="
M 1300 543 
L 1291 546 
L 1308 546 
L 1300 543 
M 1296 542 
L 1304 542 
L 1325 548 
L 1317 548 
L 1311 546 
L 1289 546 
L 1282 548 
L 1275 548 
L 1296 542 
" fill="#339541" />
<path d="
M 1225 516 
L 1234 516 
L 1234 531 
Q 1234 535 , 1238 537 
Q 1241 538 , 1250 538 
Q 1259 538 , 1262 537 
Q 1266 535 , 1266 531 
L 1266 516 
L 1275 516 
L 1275 531 
Q 1275 536 , 1269 539 
Q 1262 541 , 1250 541 
Q 1238 541 , 1231 539 
Q 1225 536 , 1225 531 
L 1225 516 
" fill="lightgray" />
<path d="
M 1317 537 
L 1317 531 
L 1303 531 
L 1303 528 
L 1325 528 
L 1325 539 
Q 1320 540 , 1314 541 
Q 1309 541 , 1303 541 
Q 1290 541 , 1283 538 
Q 1275 534 , 1275 529 
Q 1275 523 , 1283 519 
Q 1290 516 , 1303 516 
Q 1309 516 , 1314 516 
Q 1319 517 , 1324 518 
L 1324 521 
Q 1317 520 , 1313 519 
Q 1309 519 , 1304 519 
Q 1294 519 , 1288 521 
Q 1283 524 , 1283 529 
Q 1283 533 , 1288 536 
Q 1294 538 , 1304 538 
Q 1309 538 , 1312 538 
Q 1316 538 , 1317 537 
" fill="#F5C000" />
<path d="
M 1250 485 
L 1241 500 
L 1258 500 
L 1250 485 
M 1246 478 
L 1254 478 
L 1275 515 
L 1267 515 
L 1261 504 
L 1239 504 
L 1232 515 
L 1225 515 
L 1246 478 
" fill="lightgray" />
<path d="
M 1275 478 
L 1284 478 
L 1284 500 
Q 1284 506 , 1288 509 
Q 1291 511 , 1300 511 
Q 1309 511 , 1312 509 
Q 1316 506 , 1316 500 
L 1316 478 
L 1325 478 
L 1325 501 
Q 1325 508 , 1319 511 
Q 1312 515 , 1300 515 
Q 1288 515 , 1281 511 
Q 1275 508 , 1275 501 
L 1275 478 
" fill="#D21010" />
<path d="
M 1267 469 
L 1267 452 
L 1253 452 
L 1253 445 
L 1275 445 
L 1275 473 
Q 1270 475 , 1264 476 
Q 1259 477 , 1253 478 
Q 1240 478 , 1233 469 
Q 1225 461 , 1225 447 
Q 1225 432 , 1233 424 
Q 1240 416 , 1253 416 
Q 1259 416 , 1264 417 
Q 1269 418 , 1274 421 
L 1274 429 
Q 1267 425 , 1263 424 
Q 1259 423 , 1254 423 
Q 1244 423 , 1238 429 
Q 1233 435 , 1233 447 
Q 1233 459 , 1238 465 
Q 1244 471 , 1254 471 
Q 1259 471 , 1262 470 
Q 1266 469 , 1267 469 
" fill="lightgray" />
<path d="
M 1275 416 
L 1284 416 
L 1284 452 
Q 1284 462 , 1288 467 
Q 1291 471 , 1300 471 
Q 1309 471 , 1312 467 
Q 1316 462 , 1316 452 
L 1316 416 
L 1325 416 
L 1325 453 
Q 1325 465 , 1319 471 
Q 1312 478 , 1300 478 
Q 1288 478 , 1281 471 
Q 1275 465 , 1275 453 
L 1275 416 
" fill="#D21010" />
<path d="
M 1430 552 
L 1430 553 
Q 1415 552 , 1407 552 
Q 1399 552 , 1389 552 
Q 1368 552 , 1358 553 
Q 1346 553 , 1346 553 
Q 1346 554 , 1358 554 
Q 1368 554 , 1389 554 
Q 1399 554 , 1407 554 
Q 1415 554 , 1430 554 
L 1430 554 
Q 1419 555 , 1409 555 
Q 1399 555 , 1388 555 
Q 1361 555 , 1346 554 
Q 1330 554 , 1330 553 
Q 1330 553 , 1346 552 
Q 1361 552 , 1388 552 
Q 1399 552 , 1409 552 
Q 1420 552 , 1430 552 
" fill="#545FFF" />
<path d="
M 1414 551 
L 1414 550 
L 1385 550 
L 1385 550 
L 1430 550 
L 1430 552 
Q 1419 552 , 1408 552 
Q 1399 552 , 1387 552 
Q 1361 552 , 1345 551 
Q 1330 551 , 1330 550 
Q 1330 549 , 1345 549 
Q 1361 548 , 1387 548 
Q 1398 548 , 1407 548 
Q 1417 548 , 1427 548 
L 1427 549 
Q 1414 549 , 1406 549 
Q 1397 548 , 1388 548 
Q 1367 548 , 1356 549 
Q 1346 549 , 1346 550 
Q 1346 551 , 1356 551 
Q 1367 551 , 1388 551 
Q 1397 551 , 1404 551 
Q 1411 551 , 1414 551 
" fill="#F5C000" />
<path d="
M 1380 544 
L 1362 546 
L 1396 546 
L 1380 544 
M 1373 543 
L 1387 543 
L 1430 548 
L 1414 548 
L 1402 546 
L 1358 546 
L 1345 548 
L 1330 548 
L 1373 543 
" fill="#339541" />
<path d="
M 1330 535 
L 1348 535 
L 1348 539 
Q 1348 541 , 1356 541 
Q 1363 542 , 1380 542 
Q 1397 542 , 1405 541 
Q 1412 541 , 1412 539 
L 1412 535 
L 1430 535 
L 1430 540 
Q 1430 541 , 1417 542 
Q 1405 543 , 1380 543 
Q 1356 543 , 1343 542 
Q 1330 541 , 1330 540 
L 1330 535 
" fill="#D21010" />
<path d="M 65 168 L 65 555 " stroke="black" stroke-width="1.5"/>
<path d="M 55 555 L 65 555 " stroke="black" stroke-width="4"/>
<text text-anchor="end" x="50" y="555" font-size="50" alignment-baseline="middle">0</text>
<path d="M 55 362 L 65 362 " stroke="black" stroke-width="4"/>
<text text-anchor="end" x="50" y="362" font-size="50" alignment-baseline="middle">1</text>
<path d="M 55 168 L 65 168 " stroke="black" stroke-width="4"/>
<text text-anchor="end" x="50" y="168" font-size="50" alignment-baseline="middle">2</text>
<text text-anchor="middle" x="750" y="50" font-size="50" alignment-baseline="baseline"></text>
G<path d="
M 160 582 
L 126 595 
L 160 608 
L 157 611 
L 123 598 
L 123 623 
L 117 623 
L 117 599 
L 83 611 
L 80 608 
L 114 595 
L 80 582 
L 83 579 
L 117 591 
L 117 567 
L 123 567 
L 123 591 
L 157 579 
L 160 582 
" fill="black" />
<path d="
" fill="black" />
<path d="
M 211 567 
L 238 567 
L 238 623 
L 211 623 
L 211 567 
" fill="black" />
<path d="
" fill="black" />
<path d="
" fill="black" />
<path d="
M 316 567 
L 343 567 
L 343 623 
L 316 623 
L 316 567 
" fill="black" />
<path d="
" fill="black" />
<path d="
M 475 567 
Q 446 574 , 433 581 
Q 420 588 , 420 595 
Q 420 602 , 433 609 
Q 446 616 , 475 623 
L 451 623 
Q 423 616 , 409 609 
Q 395 602 , 395 595 
Q 395 588 , 409 581 
Q 423 574 , 451 567 
L 475 567 
" fill="black" />
<path d="
M 580 567 
Q 551 574 , 538 581 
Q 525 588 , 525 595 
Q 525 602 , 538 609 
Q 551 616 , 580 623 
L 556 623 
Q 528 616 , 514 609 
Q 500 602 , 500 595 
Q 500 588 , 514 581 
Q 528 574 , 556 567 
L 580 567 
" fill="black" />
<path d="
" fill="black" />
<path d="
M 622 567 
L 642 567 
L 642 623 
L 622 623 
L 622 567 
" fill="black" />
<path d="
" fill="black" />
<path d="
M 682 595 
Q 679 595 , 677 599 
Q 675 602 , 675 607 
Q 675 613 , 677 616 
Q 679 619 , 682 619 
Q 685 619 , 687 616 
Q 689 613 , 689 607 
Q 689 602 , 687 599 
Q 685 595 , 682 595 
M 677 593 
Q 675 592 , 674 589 
Q 673 586 , 673 581 
Q 673 575 , 675 571 
Q 678 567 , 682 567 
Q 686 567 , 689 571 
Q 691 575 , 691 581 
Q 691 586 , 690 589 
Q 688 592 , 687 593 
Q 689 594 , 690 598 
Q 692 601 , 692 607 
Q 692 614 , 689 619 
Q 687 623 , 682 623 
Q 677 623 , 675 619 
Q 672 614 , 672 607 
Q 672 601 , 674 598 
Q 675 594 , 677 593 
M 677 573 
Q 675 576 , 675 581 
Q 675 586 , 677 589 
Q 679 592 , 682 592 
Q 685 592 , 687 589 
Q 689 586 , 689 581 
Q 689 576 , 687 574 
Q 685 571 , 682 571 
Q 679 571 , 677 573 
" fill="black" />
<path d="
M 790 582 
L 756 595 
L 790 608 
L 787 611 
L 753 598 
L 753 623 
L 747 623 
L 747 599 
L 713 611 
L 710 608 
L 744 595 
L 710 582 
L 713 579 
L 747 591 
L 747 567 
L 753 567 
L 753 591 
L 787 579 
L 790 582 
" fill="black" />
<path d="
" fill="black" />
<path d="
M 841 567 
L 868 567 
L 868 623 
L 841 623 
L 841 567 
" fill="black" />
<path d="
" fill="black" />
<path d="
" fill="black" />
<path d="
M 946 567 
L 973 567 
L 973 623 
L 946 623 
L 946 567 
" fill="black" />
<path d="
" fill="black" />
<path d="
" fill="black" />
<path d="
M 1051 567 
L 1078 567 
L 1078 623 
L 1051 623 
L 1051 567 
" fill="black" />
<path d="
" fill="black" />
<path d="
M 1130 567 
L 1154 567 
Q 1182 574 , 1196 581 
Q 1210 588 , 1210 595 
Q 1210 602 , 1196 609 
Q 1182 616 , 1154 623 
L 1130 623 
Q 1159 616 , 1172 609 
Q 1185 602 , 1185 595 
Q 1185 588 , 1172 581 
Q 1159 574 , 1130 567 
" fill="black" />
<path d="
M 1235 567 
L 1259 567 
Q 1287 574 , 1301 581 
Q 1315 588 , 1315 595 
Q 1315 602 , 1301 609 
Q 1287 616 , 1259 623 
L 1235 623 
Q 1264 616 , 1277 609 
Q 1290 602 , 1290 595 
Q 1290 588 , 1277 581 
Q 1264 574 , 1235 567 
" fill="black" />
<path d="
M 1420 582 
L 1386 595 
L 1420 608 
L 1417 611 
L 1383 598 
L 1383 623 
L 1377 623 
L 1377 599 
L 1343 611 
L 1340 608 
L 1374 595 
L 1340 582 
L 1343 579 
L 1377 591 
L 1377 567 
L 1383 567 
L 1383 591 
L 1417 579 
L 1420 582 
" fill="black" />
</svg>
