<svg xmlns="http://www.w3.org/2000/svg"
viewBox="0 0 1435 635">
<path d="
M 120 552 
L 102 553 
L 136 553 
L 120 552 
M 113 552 
L 127 552 
L 170 554 
L 154 554 
L 142 554 
L 98 554 
L 85 554 
L 70 554 
L 113 552 
" fill="#339541" />
<path d="
M 70 549 
L 88 549 
L 88 551 
Q 88 551 , 96 551 
Q 103 551 , 120 551 
Q 137 551 , 145 551 
Q 152 551 , 152 551 
L 152 549 
L 170 549 
L 170 551 
Q 170 551 , 157 551 
Q 145 552 , 120 552 
Q 96 552 , 83 551 
Q 70 551 , 70 551 
L 70 549 
" fill="#D21010" />
<path d="
M 170 545 
L 170 546 
Q 155 546 , 147 545 
Q 139 545 , 129 545 
Q 108 545 , 98 546 
Q 86 546 , 86 547 
Q 86 548 , 98 548 
Q 108 548 , 129 548 
Q 139 548 , 147 548 
Q 155 548 , 170 548 
L 170 548 
Q 159 548 , 149 549 
Q 139 549 , 128 549 
Q 101 549 , 86 548 
Q 70 548 , 70 547 
Q 70 546 , 86 545 
Q 101 545 , 128 545 
Q 139 545 , 149 545 
Q 160 545 , 170 545 
" fill="#545FFF" />
<path d="
M 154 544 
L 154 543 
L 125 543 
L 125 542 
L 170 542 
L 170 544 
Q 159 545 , 148 545 
Q 139 545 , 127 545 
Q 101 545 , 85 544 
Q 70 544 , 70 542 
Q 70 541 , 85 541 
Q 101 540 , 127 540 
Q 138 540 , 147 540 
Q 157 540 , 167 540 
L 167 541 
Q 154 541 , 146 541 
Q 137 541 , 128 541 
Q 107 541 , 96 541 
Q 86 541 , 86 542 
Q 86 543 , 96 544 
Q 107 544 , 128 544 
Q 137 544 , 144 544 
Q 151 544 , 154 544 
" fill="#F5C000" />
<path d="
M 259 554 
L 259 553 
L 230 553 
L 230 553 
L 275 553 
L 275 554 
Q 264 554 , 253 554 
Q 244 554 , 232 554 
Q 206 554 , 190 554 
Q 175 554 , 175 553 
Q 175 552 , 190 551 
Q 206 551 , 232 551 
Q 243 551 , 252 551 
Q 262 551 , 272 551 
L 272 552 
Q 259 552 , 251 551 
Q 242 551 , 233 551 
Q 212 551 , 201 552 
Q 191 552 , 191 553 
Q 191 553 , 201 554 
Q 212 554 , 233 554 
Q 242 554 , 249 554 
Q 256 554 , 259 554 
" fill="#F5C000" />
<path d="
M 275 546 
L 275 547 
Q 260 547 , 252 547 
Q 244 547 , 234 547 
Q 213 547 , 203 547 
Q 191 547 , 191 548 
Q 191 549 , 203 550 
Q 213 550 , 234 550 
Q 244 550 , 252 550 
Q 260 550 , 275 549 
L 275 550 
Q 264 550 , 254 550 
Q 244 551 , 233 551 
Q 206 551 , 191 550 
Q 175 549 , 175 548 
Q 175 547 , 191 547 
Q 206 546 , 233 546 
Q 244 546 , 254 546 
Q 265 546 , 275 546 
" fill="#545FFF" />
<path d="
M 225 540 
L 207 543 
L 241 543 
L 225 540 
M 218 539 
L 232 539 
L 275 545 
L 259 545 
L 247 544 
L 203 544 
L 190 545 
L 175 545 
L 218 539 
" fill="#339541" />
<path d="
M 175 529 
L 193 529 
L 193 534 
Q 193 536 , 201 537 
Q 208 537 , 225 537 
Q 242 537 , 250 537 
Q 257 536 , 257 534 
L 257 529 
L 275 529 
L 275 535 
Q 275 536 , 262 537 
Q 250 538 , 225 538 
Q 201 538 , 188 537 
Q 175 536 , 175 535 
L 175 529 
" fill="#D21010" />
<path d="
M 330 550 
L 312 552 
L 346 552 
L 330 550 
M 323 549 
L 337 549 
L 380 555 
L 364 555 
L 352 553 
L 308 553 
L 295 555 
L 280 555 
L 323 549 
" fill="#339541" />
<path d="
M 380 543 
L 380 544 
Q 365 543 , 357 543 
Q 349 543 , 339 543 
Q 318 543 , 308 543 
Q 296 544 , 296 545 
Q 296 546 , 308 547 
Q 318 548 , 339 548 
Q 349 548 , 357 547 
Q 365 547 , 380 547 
L 380 548 
Q 369 548 , 359 548 
Q 349 548 , 338 548 
Q 311 548 , 296 547 
Q 280 547 , 280 545 
Q 280 544 , 296 543 
Q 311 542 , 338 542 
Q 349 542 , 359 542 
Q 370 542 , 380 543 
" fill="#545FFF" />
<path d="
M 280 522 
L 298 522 
L 298 534 
Q 298 537 , 306 538 
Q 313 540 , 330 540 
Q 347 540 , 355 538 
Q 362 537 , 362 534 
L 362 522 
L 380 522 
L 380 534 
Q 380 538 , 367 540 
Q 355 542 , 330 542 
Q 306 542 , 293 540 
Q 280 538 , 280 534 
L 280 522 
" fill="#D21010" />
<path d="
M 364 474 
L 364 385 
L 335 385 
L 335 348 
L 380 348 
L 380 496 
Q 369 510 , 358 516 
Q 349 521 , 337 522 
Q 311 522 , 295 477 
Q 280 433 , 280 356 
Q 280 278 , 295 234 
Q 311 189 , 337 189 
Q 348 189 , 357 195 
Q 367 201 , 377 216 
L 377 259 
Q 364 240 , 356 234 
Q 347 229 , 338 229 
Q 317 229 , 306 260 
Q 296 291 , 296 356 
Q 296 421 , 306 453 
Q 317 485 , 338 485 
Q 347 485 , 354 481 
Q 361 478 , 364 474 
" fill="#F5C000" />
<path d="
M 435 552 
L 417 554 
L 451 554 
L 435 552 
M 428 552 
L 442 552 
L 485 555 
L 469 555 
L 457 554 
L 413 554 
L 400 555 
L 385 555 
L 428 552 
" fill="#339541" />
<path d="
M 485 547 
L 485 547 
Q 470 547 , 462 547 
Q 454 547 , 444 547 
Q 423 547 , 413 547 
Q 401 548 , 401 549 
Q 401 550 , 413 551 
Q 423 551 , 444 551 
Q 454 551 , 462 551 
Q 470 551 , 485 550 
L 485 551 
Q 474 551 , 464 552 
Q 454 552 , 443 552 
Q 416 552 , 401 551 
Q 385 550 , 385 549 
Q 385 548 , 401 547 
Q 416 546 , 443 546 
Q 454 546 , 464 546 
Q 475 546 , 485 547 
" fill="#545FFF" />
<path d="
M 385 525 
L 403 525 
L 403 537 
Q 403 540 , 411 542 
Q 418 543 , 435 543 
Q 452 543 , 460 542 
Q 467 540 , 467 537 
L 467 525 
L 485 525 
L 485 537 
Q 485 541 , 472 543 
Q 460 545 , 435 545 
Q 411 545 , 398 543 
Q 385 541 , 385 537 
L 385 525 
" fill="#D21010" />
<path d="
M 469 474 
L 469 379 
L 440 379 
L 440 340 
L 485 340 
L 485 497 
Q 474 512 , 463 518 
Q 454 524 , 442 524 
Q 416 524 , 400 477 
Q 385 430 , 385 347 
Q 385 265 , 400 218 
Q 416 170 , 442 170 
Q 453 170 , 462 176 
Q 472 183 , 482 199 
L 482 244 
Q 469 224 , 461 218 
Q 452 212 , 443 212 
Q 422 212 , 411 245 
Q 401 279 , 401 347 
Q 401 417 , 411 451 
Q 422 485 , 443 485 
Q 452 485 , 459 481 
Q 466 478 , 469 474 
" fill="#F5C000" />
<path d="
M 540 548 
L 522 551 
L 556 551 
L 540 548 
M 533 547 
L 547 547 
L 590 554 
L 574 554 
L 562 552 
L 518 552 
L 505 554 
L 490 554 
L 533 547 
" fill="#339541" />
<path d="
M 590 537 
L 590 539 
Q 575 538 , 567 537 
Q 559 537 , 549 537 
Q 528 537 , 518 538 
Q 506 539 , 506 541 
Q 506 543 , 518 544 
Q 528 546 , 549 546 
Q 559 546 , 567 545 
Q 575 545 , 590 544 
L 590 546 
Q 579 546 , 569 546 
Q 559 547 , 548 547 
Q 521 547 , 506 545 
Q 490 544 , 490 541 
Q 490 539 , 506 537 
Q 521 536 , 548 536 
Q 559 536 , 569 536 
Q 580 537 , 590 537 
" fill="#545FFF" />
<path d="
M 490 518 
L 508 518 
L 508 528 
Q 508 531 , 516 532 
Q 523 534 , 540 534 
Q 557 534 , 565 532 
Q 572 531 , 572 528 
L 572 518 
L 590 518 
L 590 529 
Q 590 532 , 577 534 
Q 565 536 , 540 536 
Q 516 536 , 503 534 
Q 490 532 , 490 529 
L 490 518 
" fill="#D21010" />
<path d="
M 574 474 
L 574 392 
L 545 392 
L 545 358 
L 590 358 
L 590 494 
Q 579 507 , 568 512 
Q 559 518 , 547 518 
Q 521 518 , 505 477 
Q 490 436 , 490 365 
Q 490 293 , 505 252 
Q 521 211 , 547 211 
Q 558 211 , 567 216 
Q 577 222 , 587 236 
L 587 275 
Q 574 258 , 566 253 
Q 557 248 , 548 248 
Q 527 248 , 516 276 
Q 506 305 , 506 365 
Q 506 425 , 516 455 
Q 527 484 , 548 484 
Q 557 484 , 564 481 
Q 571 478 , 574 474 
" fill="#F5C000" />
<path d="
M 679 553 
L 679 552 
L 650 552 
L 650 551 
L 695 551 
L 695 554 
Q 684 554 , 673 554 
Q 664 554 , 652 554 
Q 626 554 , 610 553 
Q 595 553 , 595 552 
Q 595 550 , 610 550 
Q 626 549 , 652 549 
Q 663 549 , 672 549 
Q 682 549 , 692 549 
L 692 550 
Q 679 550 , 671 550 
Q 662 550 , 653 550 
Q 632 550 , 621 550 
Q 611 551 , 611 552 
Q 611 553 , 621 553 
Q 632 554 , 653 554 
Q 662 554 , 669 553 
Q 676 553 , 679 553 
" fill="#F5C000" />
<path d="
M 695 544 
L 695 544 
Q 680 544 , 672 544 
Q 664 544 , 654 544 
Q 633 544 , 623 544 
Q 611 545 , 611 546 
Q 611 547 , 623 547 
Q 633 548 , 654 548 
Q 664 548 , 672 547 
Q 680 547 , 695 547 
L 695 548 
Q 684 548 , 674 548 
Q 664 548 , 653 548 
Q 626 548 , 611 547 
Q 595 547 , 595 546 
Q 595 544 , 611 544 
Q 626 543 , 653 543 
Q 664 543 , 674 543 
Q 685 543 , 695 544 
" fill="#545FFF" />
<path d="
M 645 533 
L 627 538 
L 661 538 
L 645 533 
M 638 531 
L 652 531 
L 695 543 
L 679 543 
L 667 539 
L 623 539 
L 610 543 
L 595 543 
L 638 531 
" fill="#339541" />
<path d="
M 595 516 
L 613 516 
L 613 524 
Q 613 527 , 621 528 
Q 628 529 , 645 529 
Q 662 529 , 670 528 
Q 677 527 , 677 524 
L 677 516 
L 695 516 
L 695 525 
Q 695 527 , 682 529 
Q 670 530 , 645 530 
Q 621 530 , 608 529 
Q 595 527 , 595 525 
L 595 516 
" fill="#D21010" />
<path d="
M 750 552 
L 732 553 
L 766 553 
L 750 552 
M 743 552 
L 757 552 
L 800 554 
L 784 554 
L 772 554 
L 728 554 
L 715 554 
L 700 554 
L 743 552 
" fill="#339541" />
<path d="
M 700 549 
L 718 549 
L 718 551 
Q 718 551 , 726 551 
Q 733 551 , 750 551 
Q 767 551 , 775 551 
Q 782 551 , 782 551 
L 782 549 
L 800 549 
L 800 551 
Q 800 551 , 787 551 
Q 775 552 , 750 552 
Q 726 552 , 713 551 
Q 700 551 , 700 551 
L 700 549 
" fill="#D21010" />
<path d="
M 800 545 
L 800 546 
Q 785 546 , 777 545 
Q 769 545 , 759 545 
Q 738 545 , 728 546 
Q 716 546 , 716 547 
Q 716 548 , 728 548 
Q 738 548 , 759 548 
Q 769 548 , 777 548 
Q 785 548 , 800 548 
L 800 548 
Q 789 548 , 779 549 
Q 769 549 , 758 549 
Q 731 549 , 716 548 
Q 700 548 , 700 547 
Q 700 546 , 716 545 
Q 731 545 , 758 545 
Q 769 545 , 779 545 
Q 790 545 , 800 545 
" fill="#545FFF" />
<path d="
M 784 544 
L 784 543 
L 755 543 
L 755 542 
L 800 542 
L 800 544 
Q 789 545 , 778 545 
Q 769 545 , 757 545 
Q 731 545 , 715 544 
Q 700 544 , 700 542 
Q 700 541 , 715 541 
Q 731 540 , 757 540 
Q 768 540 , 777 540 
Q 787 540 , 797 540 
L 797 541 
Q 784 541 , 776 541 
Q 767 541 , 758 541 
Q 737 541 , 726 541 
Q 716 541 , 716 542 
Q 716 543 , 726 544 
Q 737 544 , 758 544 
Q 767 544 , 774 544 
Q 781 544 , 784 544 
" fill="#F5C000" />
<path d="
M 805 549 
L 823 549 
L 823 553 
Q 823 553 , 831 554 
Q 838 554 , 855 554 
Q 872 554 , 880 554 
Q 887 553 , 887 553 
L 887 549 
L 905 549 
L 905 553 
Q 905 554 , 892 554 
Q 880 555 , 855 555 
Q 831 555 , 818 554 
Q 805 554 , 805 553 
L 805 549 
" fill="#D21010" />
<path d="
M 855 541 
L 837 545 
L 871 545 
L 855 541 
M 848 539 
L 862 539 
L 905 549 
L 889 549 
L 877 546 
L 833 546 
L 820 549 
L 805 549 
L 848 539 
" fill="#339541" />
<path d="
M 889 533 
L 889 522 
L 860 522 
L 860 517 
L 905 517 
L 905 535 
Q 894 537 , 883 538 
Q 874 538 , 862 538 
Q 836 538 , 820 533 
Q 805 528 , 805 518 
Q 805 509 , 820 503 
Q 836 498 , 862 498 
Q 873 498 , 882 499 
Q 892 499 , 902 501 
L 902 506 
Q 889 504 , 881 503 
Q 872 503 , 863 503 
Q 842 503 , 831 507 
Q 821 510 , 821 518 
Q 821 526 , 831 530 
Q 842 534 , 863 534 
Q 872 534 , 879 534 
Q 886 533 , 889 533 
" fill="#F5C000" />
<path d="
M 905 435 
L 905 446 
Q 890 439 , 882 438 
Q 874 436 , 864 436 
Q 843 436 , 833 442 
Q 821 449 , 821 462 
Q 821 476 , 833 483 
Q 843 490 , 864 490 
Q 874 490 , 882 488 
Q 890 486 , 905 480 
L 905 491 
Q 894 495 , 884 496 
Q 874 498 , 863 498 
Q 836 498 , 821 488 
Q 805 479 , 805 463 
Q 805 447 , 821 438 
Q 836 428 , 863 428 
Q 874 428 , 884 430 
Q 895 431 , 905 435 
" fill="#545FFF" />
<path d="
M 1010 549 
L 1010 550 
Q 995 549 , 987 549 
Q 979 549 , 969 549 
Q 948 549 , 938 549 
Q 926 550 , 926 551 
Q 926 552 , 938 553 
Q 948 554 , 969 554 
Q 979 554 , 987 553 
Q 995 553 , 1010 553 
L 1010 554 
Q 999 554 , 989 554 
Q 979 554 , 968 554 
Q 941 554 , 926 553 
Q 910 553 , 910 551 
Q 910 550 , 926 549 
Q 941 548 , 968 548 
Q 979 548 , 989 548 
Q 1000 548 , 1010 549 
" fill="#545FFF" />
<path d="
M 960 540 
L 942 544 
L 976 544 
L 960 540 
M 953 538 
L 967 538 
L 1010 548 
L 994 548 
L 982 545 
L 938 545 
L 925 548 
L 910 548 
L 953 538 
" fill="#339541" />
<path d="
M 994 536 
L 994 532 
L 965 532 
L 965 530 
L 1010 530 
L 1010 537 
Q 999 537 , 988 537 
Q 979 538 , 967 538 
Q 941 538 , 925 536 
Q 910 534 , 910 531 
Q 910 528 , 925 526 
Q 941 524 , 967 524 
Q 978 524 , 987 524 
Q 997 524 , 1007 525 
L 1007 527 
Q 994 526 , 986 526 
Q 977 526 , 968 526 
Q 947 526 , 936 527 
Q 926 528 , 926 531 
Q 926 533 , 936 535 
Q 947 536 , 968 536 
Q 977 536 , 984 536 
Q 991 536 , 994 536 
" fill="#F5C000" />
<path d="
M 910 495 
L 928 495 
L 928 512 
Q 928 517 , 936 519 
Q 943 521 , 960 521 
Q 977 521 , 985 519 
Q 992 517 , 992 512 
L 992 495 
L 1010 495 
L 1010 512 
Q 1010 518 , 997 521 
Q 985 524 , 960 524 
Q 936 524 , 923 521 
Q 910 518 , 910 512 
L 910 495 
" fill="#D21010" />
<path d="
M 1065 549 
L 1047 552 
L 1081 552 
L 1065 549 
M 1058 548 
L 1072 548 
L 1115 554 
L 1099 554 
L 1087 553 
L 1043 553 
L 1030 554 
L 1015 554 
L 1058 548 
" fill="#339541" />
<path d="
M 1115 540 
L 1115 541 
Q 1100 540 , 1092 540 
Q 1084 540 , 1074 540 
Q 1053 540 , 1043 541 
Q 1031 541 , 1031 543 
Q 1031 545 , 1043 545 
Q 1053 546 , 1074 546 
Q 1084 546 , 1092 546 
Q 1100 546 , 1115 545 
L 1115 546 
Q 1104 547 , 1094 547 
Q 1084 547 , 1073 547 
Q 1046 547 , 1031 546 
Q 1015 545 , 1015 543 
Q 1015 541 , 1031 540 
Q 1046 539 , 1073 539 
Q 1084 539 , 1094 539 
Q 1105 539 , 1115 540 
" fill="#545FFF" />
<path d="
M 1015 529 
L 1033 529 
L 1033 535 
Q 1033 536 , 1041 537 
Q 1048 537 , 1065 537 
Q 1082 537 , 1090 537 
Q 1097 536 , 1097 535 
L 1097 529 
L 1115 529 
L 1115 535 
Q 1115 537 , 1102 538 
Q 1090 539 , 1065 539 
Q 1041 539 , 1028 538 
Q 1015 537 , 1015 535 
L 1015 529 
" fill="#D21010" />
<path d="
M 1099 476 
L 1099 376 
L 1070 376 
L 1070 336 
L 1115 336 
L 1115 500 
Q 1104 516 , 1093 522 
Q 1084 528 , 1072 528 
Q 1046 528 , 1030 479 
Q 1015 430 , 1015 344 
Q 1015 258 , 1030 209 
Q 1046 159 , 1072 159 
Q 1083 159 , 1092 165 
Q 1102 172 , 1112 189 
L 1112 236 
Q 1099 215 , 1091 209 
Q 1082 203 , 1073 203 
Q 1052 203 , 1041 238 
Q 1031 272 , 1031 344 
Q 1031 417 , 1041 452 
Q 1052 487 , 1073 487 
Q 1082 487 , 1089 484 
Q 1096 480 , 1099 476 
" fill="#F5C000" />
<path d="
M 1170 551 
L 1152 553 
L 1186 553 
L 1170 551 
M 1163 550 
L 1177 550 
L 1220 555 
L 1204 555 
L 1192 553 
L 1148 553 
L 1135 555 
L 1120 555 
L 1163 550 
" fill="#339541" />
<path d="
M 1220 535 
L 1220 537 
Q 1205 536 , 1197 535 
Q 1189 535 , 1179 535 
Q 1158 535 , 1148 536 
Q 1136 538 , 1136 541 
Q 1136 545 , 1148 546 
Q 1158 548 , 1179 548 
Q 1189 548 , 1197 547 
Q 1205 547 , 1220 545 
L 1220 548 
Q 1209 549 , 1199 549 
Q 1189 550 , 1178 550 
Q 1151 550 , 1136 547 
Q 1120 545 , 1120 541 
Q 1120 537 , 1136 535 
Q 1151 533 , 1178 533 
Q 1189 533 , 1199 533 
Q 1210 534 , 1220 535 
" fill="#545FFF" />
<path d="
M 1120 500 
L 1138 500 
L 1138 519 
Q 1138 524 , 1146 527 
Q 1153 529 , 1170 529 
Q 1187 529 , 1195 527 
Q 1202 524 , 1202 519 
L 1202 500 
L 1220 500 
L 1220 520 
Q 1220 526 , 1207 529 
Q 1195 532 , 1170 532 
Q 1146 532 , 1133 529 
Q 1120 526 , 1120 520 
L 1120 500 
" fill="#D21010" />
<path d="
M 1204 474 
L 1204 426 
L 1175 426 
L 1175 407 
L 1220 407 
L 1220 486 
Q 1209 493 , 1198 496 
Q 1189 499 , 1177 499 
Q 1151 499 , 1135 475 
Q 1120 452 , 1120 411 
Q 1120 369 , 1135 346 
Q 1151 322 , 1177 322 
Q 1188 322 , 1197 325 
Q 1207 328 , 1217 336 
L 1217 359 
Q 1204 349 , 1196 346 
Q 1187 343 , 1178 343 
Q 1157 343 , 1146 360 
Q 1136 376 , 1136 411 
Q 1136 446 , 1146 463 
Q 1157 479 , 1178 479 
Q 1187 479 , 1194 478 
Q 1201 476 , 1204 474 
" fill="#F5C000" />
<path d="
M 1225 547 
L 1243 547 
L 1243 551 
Q 1243 552 , 1251 553 
Q 1258 553 , 1275 553 
Q 1292 553 , 1300 553 
Q 1307 552 , 1307 551 
L 1307 547 
L 1325 547 
L 1325 551 
Q 1325 553 , 1312 553 
Q 1300 554 , 1275 554 
Q 1251 554 , 1238 553 
Q 1225 553 , 1225 551 
L 1225 547 
" fill="#D21010" />
<path d="
M 1275 536 
L 1257 541 
L 1291 541 
L 1275 536 
M 1268 534 
L 1282 534 
L 1325 546 
L 1309 546 
L 1297 543 
L 1253 543 
L 1240 546 
L 1225 546 
L 1268 534 
" fill="#339541" />
<path d="
M 1309 530 
L 1309 524 
L 1280 524 
L 1280 522 
L 1325 522 
L 1325 532 
Q 1314 533 , 1303 533 
Q 1294 534 , 1282 534 
Q 1256 534 , 1240 531 
Q 1225 528 , 1225 522 
Q 1225 517 , 1240 514 
Q 1256 511 , 1282 511 
Q 1293 511 , 1302 511 
Q 1312 512 , 1322 513 
L 1322 516 
Q 1309 514 , 1301 514 
Q 1292 514 , 1283 514 
Q 1262 514 , 1251 516 
Q 1241 518 , 1241 522 
Q 1241 527 , 1251 529 
Q 1262 531 , 1283 531 
Q 1292 531 , 1299 531 
Q 1306 531 , 1309 530 
" fill="#F5C000" />
<path d="
M 1325 464 
L 1325 472 
Q 1310 466 , 1302 465 
Q 1294 464 , 1284 464 
Q 1263 464 , 1253 469 
Q 1241 474 , 1241 484 
Q 1241 494 , 1253 500 
Q 1263 505 , 1284 505 
Q 1294 505 , 1302 504 
Q 1310 502 , 1325 497 
L 1325 505 
Q 1314 508 , 1304 509 
Q 1294 511 , 1283 511 
Q 1256 511 , 1241 503 
Q 1225 496 , 1225 484 
Q 1225 472 , 1241 465 
Q 1256 458 , 1283 458 
Q 1294 458 , 1304 459 
Q 1315 461 , 1325 464 
" fill="#545FFF" />
<path d="
M 1380 552 
L 1362 553 
L 1396 553 
L 1380 552 
M 1373 552 
L 1387 552 
L 1430 554 
L 1414 554 
L 1402 554 
L 1358 554 
L 1345 554 
L 1330 554 
L 1373 552 
" fill="#339541" />
<path d="
M 1330 549 
L 1348 549 
L 1348 551 
Q 1348 551 , 1356 551 
Q 1363 551 , 1380 551 
Q 1397 551 , 1405 551 
Q 1412 551 , 1412 551 
L 1412 549 
L 1430 549 
L 1430 551 
Q 1430 551 , 1417 551 
Q 1405 552 , 1380 552 
Q 1356 552 , 1343 551 
Q 1330 551 , 1330 551 
L 1330 549 
" fill="#D21010" />
<path d="
M 1430 545 
L 1430 546 
Q 1415 546 , 1407 545 
Q 1399 545 , 1389 545 
Q 1368 545 , 1358 546 
Q 1346 546 , 1346 547 
Q 1346 548 , 1358 548 
Q 1368 548 , 1389 548 
Q 1399 548 , 1407 548 
Q 1415 548 , 1430 548 
L 1430 548 
Q 1419 548 , 1409 549 
Q 1399 549 , 1388 549 
Q 1361 549 , 1346 548 
Q 1330 548 , 1330 547 
Q 1330 546 , 1346 545 
Q 1361 545 , 1388 545 
Q 1399 545 , 1409 545 
Q 1420 545 , 1430 545 
" fill="#545FFF" />
<path d="
M 1414 544 
L 1414 543 
L 1385 543 
L 1385 542 
L 1430 542 
L 1430 544 
Q 1419 545 , 1408 545 
Q 1399 545 , 1387 545 
Q 1361 545 , 1345 544 
Q 1330 544 , 1330 542 
Q 1330 541 , 1345 541 
Q 1361 540 , 1387 540 
Q 1398 540 , 1407 540 
Q 1417 540 , 1427 540 
L 1427 541 
Q 1414 541 , 1406 541 
Q 1397 541 , 1388 541 
Q 1367 541 , 1356 541 
Q 1346 541 , 1346 542 
Q 1346 543 , 1356 544 
Q 1367 544 , 1388 544 
Q 1397 544 , 1404 544 
Q 1411 544 , 1414 544 
" fill="#F5C000" />
<path d="M 65 55 L 65 555 " stroke="black" stroke-width="1.5"/>
<path d="M 55 555 L 65 555 " stroke="black" stroke-width="4"/>
<text text-anchor="end" x="50" y="555" font-size="50" alignment-baseline="middle">0</text>
<path d="M 55 305 L 65 305 " stroke="black" stroke-width="4"/>
<text text-anchor="end" x="50" y="305" font-size="50" alignment-baseline="middle">1</text>
<path d="M 55 55 L 65 55 " stroke="black" stroke-width="4"/>
<text text-anchor="end" x="50" y="55" font-size="50" alignment-baseline="middle">2</text>
<text text-anchor="middle" x="750" y="50" font-size="50" alignment-baseline="baseline"></text>
G<path d="
M 160 582 
L 126 595 
L 160 608 
L 157 611 
L 123 598 
L 123 623 
L 117 623 
L 117 599 
L 83 611 
L 80 608 
L 114 595 
L 80 582 
L 83 579 
L 117 591 
L 117 567 
L 123 567 
L 123 591 
L 157 579 
L 160 582 
" fill="black" />
<path d="
" fill="black" />
<path d="
M 211 567 
L 238 567 
L 238 623 
L 211 623 
L 211 567 
" fill="black" />
<path d="
" fill="black" />
<path d="
" fill="black" />
<path d="
M 316 567 
L 343 567 
L 343 623 
L 316 623 
L 316 567 
" fill="black" />
<path d="
" fill="black" />
<path d="
" fill="black" />
<path d="
M 421 567 
L 448 567 
L 448 623 
L 421 623 
L 421 567 
" fill="black" />
<path d="
" fill="black" />
<path d="
" fill="black" />
<path d="
M 526 567 
L 553 567 
L 553 623 
L 526 623 
L 526 567 
" fill="black" />
<path d="
" fill="black" />
<path d="
" fill="black" />
<path d="
M 617 567 
L 633 567 
L 633 623 
L 617 623 
L 617 567 
" fill="black" />
<path d="
" fill="black" />
<path d="
M 669 593 
Q 671 594 , 672 597 
Q 673 601 , 673 606 
Q 673 614 , 671 618 
Q 669 623 , 664 623 
Q 662 623 , 661 622 
Q 659 621 , 657 619 
L 657 613 
Q 659 617 , 660 618 
Q 662 619 , 664 619 
Q 667 619 , 669 616 
Q 671 613 , 671 606 
Q 671 601 , 669 598 
Q 668 595 , 664 595 
L 661 595 
L 661 591 
L 665 591 
Q 667 591 , 669 589 
Q 670 586 , 670 582 
Q 670 577 , 669 574 
Q 667 571 , 664 571 
Q 663 571 , 661 572 
Q 660 573 , 658 575 
L 658 571 
Q 660 569 , 662 568 
Q 663 567 , 665 567 
Q 669 567 , 671 571 
Q 672 575 , 672 581 
Q 672 586 , 671 589 
Q 671 592 , 669 593 
" fill="black" />
<path d="
M 677 567 
L 693 567 
L 693 571 
L 684 623 
L 681 623 
L 691 571 
L 677 571 
L 677 567 
" fill="black" />
<path d="
M 790 582 
L 756 595 
L 790 608 
L 787 611 
L 753 598 
L 753 623 
L 747 623 
L 747 599 
L 713 611 
L 710 608 
L 744 595 
L 710 582 
L 713 579 
L 747 591 
L 747 567 
L 753 567 
L 753 591 
L 787 579 
L 790 582 
" fill="black" />
<path d="
" fill="black" />
<path d="
M 841 567 
L 868 567 
L 868 623 
L 841 623 
L 841 567 
" fill="black" />
<path d="
" fill="black" />
<path d="
" fill="black" />
<path d="
M 946 567 
L 973 567 
L 973 623 
L 946 623 
L 946 567 
" fill="black" />
<path d="
" fill="black" />
<path d="
" fill="black" />
<path d="
M 1051 567 
L 1078 567 
L 1078 623 
L 1051 623 
L 1051 567 
" fill="black" />
<path d="
" fill="black" />
<path d="
" fill="black" />
<path d="
M 1156 567 
L 1183 567 
L 1183 623 
L 1156 623 
L 1156 567 
" fill="black" />
<path d="
" fill="black" />
<path d="
" fill="black" />
<path d="
M 1261 567 
L 1288 567 
L 1288 623 
L 1261 623 
L 1261 567 
" fill="black" />
<path d="
" fill="black" />
<path d="
M 1420 582 
L 1386 595 
L 1420 608 
L 1417 611 
L 1383 598 
L 1383 623 
L 1377 623 
L 1377 599 
L 1343 611 
L 1340 608 
L 1374 595 
L 1340 582 
L 1343 579 
L 1377 591 
L 1377 567 
L 1383 567 
L 1383 591 
L 1417 579 
L 1420 582 
" fill="black" />
</svg>
