<svg xmlns="http://www.w3.org/2000/svg"
viewBox="0 0 1435 635">
<path d="
M 120 553 
L 102 554 
L 136 554 
L 120 553 
M 113 553 
L 127 553 
L 170 555 
L 154 555 
L 142 554 
L 98 554 
L 85 555 
L 70 555 
L 113 553 
" fill="#339541" />
<path d="
M 70 550 
L 88 550 
L 88 551 
Q 88 552 , 96 552 
Q 103 552 , 120 552 
Q 137 552 , 145 552 
Q 152 552 , 152 551 
L 152 550 
L 170 550 
L 170 551 
Q 170 552 , 157 552 
Q 145 552 , 120 552 
Q 96 552 , 83 552 
Q 70 552 , 70 551 
L 70 550 
" fill="#D21010" />
<path d="
M 170 547 
L 170 548 
Q 155 547 , 147 547 
Q 139 547 , 129 547 
Q 108 547 , 98 548 
Q 86 548 , 86 548 
Q 86 549 , 98 549 
Q 108 550 , 129 550 
Q 139 550 , 147 549 
Q 155 549 , 170 549 
L 170 550 
Q 159 550 , 149 550 
Q 139 550 , 128 550 
Q 101 550 , 86 549 
Q 70 549 , 70 548 
Q 70 548 , 86 547 
Q 101 547 , 128 547 
Q 139 547 , 149 547 
Q 160 547 , 170 547 
" fill="#545FFF" />
<path d="
M 154 546 
L 154 545 
L 125 545 
L 125 545 
L 170 545 
L 170 547 
Q 159 547 , 148 547 
Q 139 547 , 127 547 
Q 101 547 , 85 546 
Q 70 546 , 70 545 
Q 70 544 , 85 544 
Q 101 543 , 127 543 
Q 138 543 , 147 543 
Q 157 543 , 167 543 
L 167 544 
Q 154 544 , 146 544 
Q 137 543 , 128 543 
Q 107 543 , 96 544 
Q 86 544 , 86 545 
Q 86 546 , 96 546 
Q 107 546 , 128 546 
Q 137 546 , 144 546 
Q 151 546 , 154 546 
" fill="#F5C000" />
<path d="
M 275 554 
L 275 554 
Q 260 554 , 252 554 
Q 244 554 , 234 554 
Q 213 554 , 203 554 
Q 191 554 , 191 554 
Q 191 554 , 203 555 
Q 213 555 , 234 555 
Q 244 555 , 252 555 
Q 260 555 , 275 554 
L 275 555 
Q 264 555 , 254 555 
Q 244 555 , 233 555 
Q 206 555 , 191 555 
Q 175 554 , 175 554 
Q 175 554 , 191 554 
Q 206 554 , 233 554 
Q 244 554 , 254 554 
Q 265 554 , 275 554 
" fill="#545FFF" />
<path d="
M 225 553 
L 207 554 
L 241 554 
L 225 553 
M 218 553 
L 232 553 
L 275 554 
L 259 554 
L 247 554 
L 203 554 
L 190 554 
L 175 554 
L 218 553 
" fill="#339541" />
<path d="
M 175 552 
L 193 552 
L 193 553 
Q 193 553 , 201 553 
Q 208 553 , 225 553 
Q 242 553 , 250 553 
Q 257 553 , 257 553 
L 257 552 
L 275 552 
L 275 553 
Q 275 553 , 262 553 
Q 250 553 , 225 553 
Q 201 553 , 188 553 
Q 175 553 , 175 553 
L 175 552 
" fill="#D21010" />
<path d="
M 259 551 
L 259 551 
L 230 551 
L 230 550 
L 275 550 
L 275 551 
Q 264 551 , 253 551 
Q 244 551 , 232 551 
Q 206 551 , 190 551 
Q 175 551 , 175 551 
Q 175 550 , 190 550 
Q 206 550 , 232 550 
Q 243 550 , 252 550 
Q 262 550 , 272 550 
L 272 550 
Q 259 550 , 251 550 
Q 242 550 , 233 550 
Q 212 550 , 201 550 
Q 191 550 , 191 551 
Q 191 551 , 201 551 
Q 212 551 , 233 551 
Q 242 551 , 249 551 
Q 256 551 , 259 551 
" fill="#F5C000" />
<path d="
M 322 554 
L 322 554 
L 308 554 
L 308 554 
L 330 554 
L 330 554 
Q 325 554 , 319 554 
Q 314 554 , 308 554 
Q 295 554 , 288 554 
Q 280 554 , 280 554 
Q 280 553 , 288 553 
Q 295 553 , 308 553 
Q 314 553 , 319 553 
Q 324 553 , 329 553 
L 329 553 
Q 322 553 , 318 553 
Q 314 553 , 309 553 
Q 299 553 , 293 553 
Q 288 553 , 288 554 
Q 288 554 , 293 554 
Q 299 554 , 309 554 
Q 314 554 , 317 554 
Q 321 554 , 322 554 
" fill="#F5C000" />
<path d="
M 330 553 
L 339 553 
L 339 554 
Q 339 554 , 343 554 
Q 346 554 , 355 554 
Q 364 554 , 367 554 
Q 371 554 , 371 554 
L 371 553 
L 380 553 
L 380 554 
Q 380 554 , 374 554 
Q 367 554 , 355 554 
Q 343 554 , 336 554 
Q 330 554 , 330 554 
L 330 553 
" fill="lightgray" />
<path d="
M 280 548 
L 289 548 
L 289 551 
Q 289 551 , 293 552 
Q 296 552 , 305 552 
Q 314 552 , 317 552 
Q 321 551 , 321 551 
L 321 548 
L 330 548 
L 330 551 
Q 330 551 , 324 552 
Q 317 552 , 305 552 
Q 293 552 , 286 552 
Q 280 551 , 280 551 
L 280 548 
" fill="#D21010" />
<path d="
M 372 552 
L 372 551 
L 358 551 
L 358 550 
L 380 550 
L 380 552 
Q 375 552 , 369 552 
Q 364 552 , 358 552 
Q 345 552 , 338 552 
Q 330 551 , 330 550 
Q 330 549 , 338 549 
Q 345 548 , 358 548 
Q 364 548 , 369 548 
Q 374 548 , 379 548 
L 379 549 
Q 372 549 , 368 549 
Q 364 549 , 359 549 
Q 349 549 , 343 549 
Q 338 549 , 338 550 
Q 338 551 , 343 551 
Q 349 552 , 359 552 
Q 364 552 , 367 552 
Q 371 552 , 372 552 
" fill="lightgray" />
<path d="
M 330 538 
L 330 540 
Q 323 539 , 319 538 
Q 314 538 , 309 538 
Q 299 538 , 294 539 
Q 288 540 , 288 542 
Q 288 544 , 294 546 
Q 299 547 , 309 547 
Q 314 547 , 319 546 
Q 323 546 , 330 545 
L 330 547 
Q 325 547 , 319 547 
Q 315 548 , 309 548 
Q 295 548 , 288 546 
Q 280 545 , 280 542 
Q 280 540 , 288 538 
Q 295 537 , 309 537 
Q 315 537 , 320 537 
Q 325 538 , 330 538 
" fill="#545FFF" />
<path d="
M 372 546 
L 372 543 
L 358 543 
L 358 542 
L 380 542 
L 380 547 
Q 375 547 , 369 548 
Q 364 548 , 358 548 
Q 345 548 , 338 546 
Q 330 545 , 330 542 
Q 330 540 , 338 538 
Q 345 537 , 358 537 
Q 364 537 , 369 537 
Q 374 537 , 379 538 
L 379 539 
Q 372 539 , 368 538 
Q 364 538 , 359 538 
Q 349 538 , 343 539 
Q 338 540 , 338 542 
Q 338 544 , 343 546 
Q 349 547 , 359 547 
Q 364 547 , 367 546 
Q 371 546 , 372 546 
" fill="lightgray" />
<path d="
M 280 521 
L 289 521 
L 289 530 
Q 289 533 , 293 534 
Q 296 535 , 305 535 
Q 314 535 , 317 534 
Q 321 533 , 321 530 
L 321 521 
L 330 521 
L 330 531 
Q 330 534 , 324 535 
Q 317 537 , 305 537 
Q 293 537 , 286 535 
Q 280 534 , 280 531 
L 280 521 
" fill="#D21010" />
<path d="
M 355 524 
L 346 530 
L 363 530 
L 355 524 
M 351 521 
L 359 521 
L 380 537 
L 372 537 
L 366 532 
L 344 532 
L 337 537 
L 330 537 
L 351 521 
" fill="lightgray" />
<path d="
M 305 491 
L 296 506 
L 313 506 
L 305 491 
M 301 485 
L 309 485 
L 330 520 
L 322 520 
L 316 510 
L 294 510 
L 287 520 
L 280 520 
L 301 485 
" fill="#339541" />
<path d="
M 330 485 
L 339 485 
L 339 506 
Q 339 512 , 343 514 
Q 346 516 , 355 516 
Q 364 516 , 367 514 
Q 371 512 , 371 506 
L 371 485 
L 380 485 
L 380 506 
Q 380 513 , 374 517 
Q 367 520 , 355 520 
Q 343 520 , 336 517 
Q 330 513 , 330 506 
L 330 485 
" fill="lightgray" />
<path d="
M 322 475 
L 322 457 
L 308 457 
L 308 450 
L 330 450 
L 330 479 
Q 325 482 , 319 483 
Q 314 484 , 308 485 
Q 295 485 , 288 476 
Q 280 467 , 280 451 
Q 280 436 , 288 427 
Q 295 418 , 308 418 
Q 314 418 , 319 419 
Q 324 420 , 329 423 
L 329 432 
Q 322 428 , 318 427 
Q 314 426 , 309 426 
Q 299 426 , 293 432 
Q 288 438 , 288 451 
Q 288 464 , 293 471 
Q 299 477 , 309 477 
Q 314 477 , 317 476 
Q 321 476 , 322 475 
" fill="#F5C000" />
<path d="
M 380 425 
L 380 435 
Q 373 429 , 369 427 
Q 364 425 , 359 425 
Q 349 425 , 344 432 
Q 338 438 , 338 451 
Q 338 464 , 344 471 
Q 349 477 , 359 477 
Q 364 477 , 369 476 
Q 373 474 , 380 467 
L 380 478 
Q 375 481 , 369 483 
Q 365 485 , 359 485 
Q 345 485 , 338 476 
Q 330 467 , 330 451 
Q 330 436 , 338 427 
Q 345 418 , 359 418 
Q 365 418 , 370 420 
Q 375 421 , 380 425 
" fill="lightgray" />
<path d="
M 435 552 
L 417 553 
L 451 553 
L 435 552 
M 428 552 
L 442 552 
L 485 555 
L 469 555 
L 457 554 
L 413 554 
L 400 555 
L 385 555 
L 428 552 
" fill="#339541" />
<path d="
M 485 546 
L 485 547 
Q 470 546 , 462 546 
Q 454 546 , 444 546 
Q 423 546 , 413 546 
Q 401 547 , 401 548 
Q 401 549 , 413 550 
Q 423 551 , 444 551 
Q 454 551 , 462 550 
Q 470 550 , 485 550 
L 485 551 
Q 474 551 , 464 551 
Q 454 551 , 443 551 
Q 416 551 , 401 550 
Q 385 550 , 385 548 
Q 385 547 , 401 546 
Q 416 545 , 443 545 
Q 454 545 , 464 545 
Q 475 545 , 485 546 
" fill="#545FFF" />
<path d="
M 385 526 
L 403 526 
L 403 537 
Q 403 540 , 411 541 
Q 418 542 , 435 542 
Q 452 542 , 460 541 
Q 467 540 , 467 537 
L 467 526 
L 485 526 
L 485 537 
Q 485 541 , 472 542 
Q 460 544 , 435 544 
Q 411 544 , 398 542 
Q 385 541 , 385 537 
L 385 526 
" fill="#D21010" />
<path d="
M 469 490 
L 469 423 
L 440 423 
L 440 396 
L 485 396 
L 485 506 
Q 474 517 , 463 521 
Q 454 525 , 442 525 
Q 416 525 , 400 492 
Q 385 459 , 385 402 
Q 385 344 , 400 311 
Q 416 278 , 442 278 
Q 453 278 , 462 282 
Q 472 287 , 482 298 
L 482 330 
Q 469 316 , 461 311 
Q 452 307 , 443 307 
Q 422 307 , 411 331 
Q 401 354 , 401 402 
Q 401 450 , 411 474 
Q 422 498 , 443 498 
Q 452 498 , 459 495 
Q 466 493 , 469 490 
" fill="#F5C000" />
<path d="
M 532 554 
L 532 554 
L 518 554 
L 518 554 
L 540 554 
L 540 554 
Q 535 554 , 529 554 
Q 524 554 , 518 554 
Q 505 554 , 498 554 
Q 490 554 , 490 554 
Q 490 553 , 498 553 
Q 505 553 , 518 553 
Q 524 553 , 529 553 
Q 534 553 , 539 553 
L 539 553 
Q 532 553 , 528 553 
Q 524 553 , 519 553 
Q 509 553 , 503 553 
Q 498 553 , 498 554 
Q 498 554 , 503 554 
Q 509 554 , 519 554 
Q 524 554 , 527 554 
Q 531 554 , 532 554 
" fill="#F5C000" />
<path d="
M 540 553 
L 549 553 
L 549 554 
Q 549 554 , 553 554 
Q 556 554 , 565 554 
Q 574 554 , 577 554 
Q 581 554 , 581 554 
L 581 553 
L 590 553 
L 590 554 
Q 590 554 , 584 554 
Q 577 554 , 565 554 
Q 553 554 , 546 554 
Q 540 554 , 540 554 
L 540 553 
" fill="lightgray" />
<path d="
M 490 550 
L 499 550 
L 499 551 
Q 499 552 , 503 552 
Q 506 552 , 515 552 
Q 524 552 , 527 552 
Q 531 552 , 531 551 
L 531 550 
L 540 550 
L 540 551 
Q 540 552 , 534 552 
Q 527 552 , 515 552 
Q 503 552 , 496 552 
Q 490 552 , 490 551 
L 490 550 
" fill="#D21010" />
<path d="
M 582 552 
L 582 551 
L 568 551 
L 568 551 
L 590 551 
L 590 552 
Q 585 552 , 579 552 
Q 574 552 , 568 552 
Q 555 552 , 548 552 
Q 540 552 , 540 551 
Q 540 551 , 548 550 
Q 555 550 , 568 550 
Q 574 550 , 579 550 
Q 584 550 , 589 550 
L 589 550 
Q 582 550 , 578 550 
Q 574 550 , 569 550 
Q 559 550 , 553 550 
Q 548 551 , 548 551 
Q 548 552 , 553 552 
Q 559 552 , 569 552 
Q 574 552 , 577 552 
Q 581 552 , 582 552 
" fill="lightgray" />
<path d="
M 490 535 
L 499 535 
L 499 544 
Q 499 546 , 503 547 
Q 506 548 , 515 548 
Q 524 548 , 527 547 
Q 531 546 , 531 544 
L 531 535 
L 540 535 
L 540 544 
Q 540 547 , 534 548 
Q 527 549 , 515 549 
Q 503 549 , 496 548 
Q 490 547 , 490 544 
L 490 535 
" fill="#D21010" />
<path d="
M 565 538 
L 556 544 
L 573 544 
L 565 538 
M 561 535 
L 569 535 
L 590 550 
L 582 550 
L 576 545 
L 554 545 
L 547 550 
L 540 550 
L 561 535 
" fill="lightgray" />
<path d="
M 515 523 
L 506 529 
L 523 529 
L 515 523 
M 511 520 
L 519 520 
L 540 535 
L 532 535 
L 526 530 
L 504 530 
L 497 535 
L 490 535 
L 511 520 
" fill="#339541" />
<path d="
M 540 520 
L 549 520 
L 549 529 
Q 549 531 , 553 532 
Q 556 533 , 565 533 
Q 574 533 , 577 532 
Q 581 531 , 581 529 
L 581 520 
L 590 520 
L 590 529 
Q 590 532 , 584 533 
Q 577 535 , 565 535 
Q 553 535 , 546 533 
Q 540 532 , 540 529 
L 540 520 
" fill="lightgray" />
<path d="
M 540 503 
L 540 506 
Q 533 504 , 529 504 
Q 524 503 , 519 503 
Q 509 503 , 504 505 
Q 498 507 , 498 510 
Q 498 514 , 504 516 
Q 509 518 , 519 518 
Q 524 518 , 529 517 
Q 533 517 , 540 515 
L 540 518 
Q 535 519 , 529 520 
Q 525 520 , 519 520 
Q 505 520 , 498 517 
Q 490 515 , 490 510 
Q 490 506 , 498 504 
Q 505 501 , 519 501 
Q 525 501 , 530 501 
Q 535 502 , 540 503 
" fill="#545FFF" />
<path d="
M 582 517 
L 582 512 
L 568 512 
L 568 510 
L 590 510 
L 590 518 
Q 585 519 , 579 520 
Q 574 520 , 568 520 
Q 555 520 , 548 517 
Q 540 515 , 540 510 
Q 540 506 , 548 504 
Q 555 501 , 568 501 
Q 574 501 , 579 501 
Q 584 502 , 589 503 
L 589 505 
Q 582 504 , 578 504 
Q 574 503 , 569 503 
Q 559 503 , 553 505 
Q 548 507 , 548 510 
Q 548 514 , 553 516 
Q 559 518 , 569 518 
Q 574 518 , 577 518 
Q 581 517 , 582 517 
" fill="lightgray" />
<path d="
M 532 498 
L 532 491 
L 518 491 
L 518 488 
L 540 488 
L 540 499 
Q 535 500 , 529 501 
Q 524 501 , 518 501 
Q 505 501 , 498 498 
Q 490 495 , 490 489 
Q 490 483 , 498 480 
Q 505 477 , 518 477 
Q 524 477 , 529 477 
Q 534 478 , 539 479 
L 539 482 
Q 532 481 , 528 480 
Q 524 480 , 519 480 
Q 509 480 , 503 482 
Q 498 484 , 498 489 
Q 498 494 , 503 496 
Q 509 498 , 519 498 
Q 524 498 , 527 498 
Q 531 498 , 532 498 
" fill="#F5C000" />
<path d="
M 590 480 
L 590 483 
Q 583 481 , 579 480 
Q 574 480 , 569 480 
Q 559 480 , 554 482 
Q 548 484 , 548 489 
Q 548 494 , 554 496 
Q 559 498 , 569 498 
Q 574 498 , 579 498 
Q 583 497 , 590 495 
L 590 499 
Q 585 500 , 579 500 
Q 575 501 , 569 501 
Q 555 501 , 548 498 
Q 540 494 , 540 489 
Q 540 483 , 548 480 
Q 555 477 , 569 477 
Q 575 477 , 580 478 
Q 585 478 , 590 480 
" fill="lightgray" />
<path d="
M 645 554 
L 627 554 
L 661 554 
L 645 554 
M 638 554 
L 652 554 
L 695 555 
L 679 555 
L 667 555 
L 623 555 
L 610 555 
L 595 555 
L 638 554 
" fill="#339541" />
<path d="
M 679 553 
L 679 553 
L 650 553 
L 650 553 
L 695 553 
L 695 553 
Q 684 553 , 673 553 
Q 664 553 , 652 553 
Q 626 553 , 610 553 
Q 595 553 , 595 553 
Q 595 552 , 610 552 
Q 626 552 , 652 552 
Q 663 552 , 672 552 
Q 682 552 , 692 552 
L 692 552 
Q 679 552 , 671 552 
Q 662 552 , 653 552 
Q 632 552 , 621 552 
Q 611 552 , 611 553 
Q 611 553 , 621 553 
Q 632 553 , 653 553 
Q 662 553 , 669 553 
Q 676 553 , 679 553 
" fill="#F5C000" />
<path d="
M 695 550 
L 695 550 
Q 680 550 , 672 550 
Q 664 550 , 654 550 
Q 633 550 , 623 550 
Q 611 550 , 611 550 
Q 611 551 , 623 551 
Q 633 551 , 654 551 
Q 664 551 , 672 551 
Q 680 551 , 695 551 
L 695 551 
Q 684 551 , 674 551 
Q 664 551 , 653 551 
Q 626 551 , 611 551 
Q 595 551 , 595 551 
Q 595 550 , 611 550 
Q 626 550 , 653 550 
Q 664 550 , 674 550 
Q 685 550 , 695 550 
" fill="#545FFF" />
<path d="
M 595 548 
L 613 548 
L 613 549 
Q 613 549 , 621 549 
Q 628 549 , 645 549 
Q 662 549 , 670 549 
Q 677 549 , 677 549 
L 677 548 
L 695 548 
L 695 549 
Q 695 549 , 682 549 
Q 670 549 , 645 549 
Q 621 549 , 608 549 
Q 595 549 , 595 549 
L 595 548 
" fill="#D21010" />
<path d="
M 750 553 
L 732 554 
L 766 554 
L 750 553 
M 743 553 
L 757 553 
L 800 555 
L 784 555 
L 772 554 
L 728 554 
L 715 555 
L 700 555 
L 743 553 
" fill="#339541" />
<path d="
M 700 550 
L 718 550 
L 718 551 
Q 718 552 , 726 552 
Q 733 552 , 750 552 
Q 767 552 , 775 552 
Q 782 552 , 782 551 
L 782 550 
L 800 550 
L 800 551 
Q 800 552 , 787 552 
Q 775 552 , 750 552 
Q 726 552 , 713 552 
Q 700 552 , 700 551 
L 700 550 
" fill="#D21010" />
<path d="
M 800 547 
L 800 548 
Q 785 547 , 777 547 
Q 769 547 , 759 547 
Q 738 547 , 728 548 
Q 716 548 , 716 548 
Q 716 549 , 728 549 
Q 738 550 , 759 550 
Q 769 550 , 777 549 
Q 785 549 , 800 549 
L 800 550 
Q 789 550 , 779 550 
Q 769 550 , 758 550 
Q 731 550 , 716 549 
Q 700 549 , 700 548 
Q 700 548 , 716 547 
Q 731 547 , 758 547 
Q 769 547 , 779 547 
Q 790 547 , 800 547 
" fill="#545FFF" />
<path d="
M 784 546 
L 784 545 
L 755 545 
L 755 545 
L 800 545 
L 800 547 
Q 789 547 , 778 547 
Q 769 547 , 757 547 
Q 731 547 , 715 546 
Q 700 546 , 700 545 
Q 700 544 , 715 544 
Q 731 543 , 757 543 
Q 768 543 , 777 543 
Q 787 543 , 797 543 
L 797 544 
Q 784 544 , 776 544 
Q 767 543 , 758 543 
Q 737 543 , 726 544 
Q 716 544 , 716 545 
Q 716 546 , 726 546 
Q 737 546 , 758 546 
Q 767 546 , 774 546 
Q 781 546 , 784 546 
" fill="#F5C000" />
<path d="
M 905 552 
L 905 553 
Q 890 552 , 882 552 
Q 874 552 , 864 552 
Q 843 552 , 833 553 
Q 821 553 , 821 553 
Q 821 554 , 833 554 
Q 843 554 , 864 554 
Q 874 554 , 882 554 
Q 890 554 , 905 554 
L 905 554 
Q 894 554 , 884 554 
Q 874 554 , 863 554 
Q 836 554 , 821 554 
Q 805 554 , 805 553 
Q 805 553 , 821 552 
Q 836 552 , 863 552 
Q 874 552 , 884 552 
Q 895 552 , 905 552 
" fill="#545FFF" />
<path d="
M 855 548 
L 837 550 
L 871 550 
L 855 548 
M 848 547 
L 862 547 
L 905 552 
L 889 552 
L 877 550 
L 833 550 
L 820 552 
L 805 552 
L 848 547 
" fill="#339541" />
<path d="
M 889 545 
L 889 543 
L 860 543 
L 860 543 
L 905 543 
L 905 546 
Q 894 546 , 883 546 
Q 874 546 , 862 546 
Q 836 546 , 820 545 
Q 805 544 , 805 543 
Q 805 541 , 820 540 
Q 836 539 , 862 539 
Q 873 539 , 882 539 
Q 892 539 , 902 540 
L 902 541 
Q 889 540 , 881 540 
Q 872 540 , 863 540 
Q 842 540 , 831 541 
Q 821 541 , 821 543 
Q 821 544 , 831 545 
Q 842 546 , 863 546 
Q 872 546 , 879 546 
Q 886 545 , 889 545 
" fill="#F5C000" />
<path d="
M 805 531 
L 823 531 
L 823 536 
Q 823 537 , 831 537 
Q 838 538 , 855 538 
Q 872 538 , 880 537 
Q 887 537 , 887 536 
L 887 531 
L 905 531 
L 905 536 
Q 905 537 , 892 538 
Q 880 539 , 855 539 
Q 831 539 , 818 538 
Q 805 537 , 805 536 
L 805 531 
" fill="#D21010" />
<path d="
M 960 551 
L 942 553 
L 976 553 
L 960 551 
M 953 550 
L 967 550 
L 1010 555 
L 994 555 
L 982 553 
L 938 553 
L 925 555 
L 910 555 
L 953 550 
" fill="#339541" />
<path d="
M 1010 534 
L 1010 537 
Q 995 535 , 987 534 
Q 979 534 , 969 534 
Q 948 534 , 938 536 
Q 926 537 , 926 540 
Q 926 544 , 938 546 
Q 948 548 , 969 548 
Q 979 548 , 987 547 
Q 995 547 , 1010 545 
L 1010 548 
Q 999 549 , 989 549 
Q 979 549 , 968 549 
Q 941 549 , 926 547 
Q 910 545 , 910 541 
Q 910 537 , 926 534 
Q 941 532 , 968 532 
Q 979 532 , 989 532 
Q 1000 533 , 1010 534 
" fill="#545FFF" />
<path d="
M 910 514 
L 928 514 
L 928 524 
Q 928 527 , 936 529 
Q 943 530 , 960 530 
Q 977 530 , 985 529 
Q 992 527 , 992 524 
L 992 514 
L 1010 514 
L 1010 525 
Q 1010 528 , 997 530 
Q 985 532 , 960 532 
Q 936 532 , 923 530 
Q 910 528 , 910 525 
L 910 514 
" fill="#D21010" />
<path d="
M 994 494 
L 994 458 
L 965 458 
L 965 443 
L 1010 443 
L 1010 503 
Q 999 509 , 988 511 
Q 979 513 , 967 514 
Q 941 514 , 925 495 
Q 910 478 , 910 446 
Q 910 414 , 925 396 
Q 941 378 , 967 378 
Q 978 378 , 987 380 
Q 997 383 , 1007 389 
L 1007 406 
Q 994 399 , 986 396 
Q 977 394 , 968 394 
Q 947 394 , 936 407 
Q 926 420 , 926 446 
Q 926 473 , 936 486 
Q 947 499 , 968 499 
Q 977 499 , 984 497 
Q 991 496 , 994 494 
" fill="#F5C000" />
<path d="
M 1057 554 
L 1057 554 
L 1043 554 
L 1043 554 
L 1065 554 
L 1065 554 
Q 1060 554 , 1054 554 
Q 1049 554 , 1043 554 
Q 1030 554 , 1023 554 
Q 1015 554 , 1015 554 
Q 1015 553 , 1023 553 
Q 1030 553 , 1043 553 
Q 1049 553 , 1054 553 
Q 1059 553 , 1064 553 
L 1064 553 
Q 1057 553 , 1053 553 
Q 1049 553 , 1044 553 
Q 1034 553 , 1028 553 
Q 1023 553 , 1023 554 
Q 1023 554 , 1028 554 
Q 1034 554 , 1044 554 
Q 1049 554 , 1052 554 
Q 1056 554 , 1057 554 
" fill="lightgray" />
<path d="
M 1065 553 
L 1074 553 
L 1074 554 
Q 1074 554 , 1078 554 
Q 1081 554 , 1090 554 
Q 1099 554 , 1102 554 
Q 1106 554 , 1106 554 
L 1106 553 
L 1115 553 
L 1115 554 
Q 1115 554 , 1109 554 
Q 1102 554 , 1090 554 
Q 1078 554 , 1071 554 
Q 1065 554 , 1065 554 
L 1065 553 
" fill="#D21010" />
<path d="
M 1015 550 
L 1024 550 
L 1024 551 
Q 1024 552 , 1028 552 
Q 1031 552 , 1040 552 
Q 1049 552 , 1052 552 
Q 1056 552 , 1056 551 
L 1056 550 
L 1065 550 
L 1065 551 
Q 1065 552 , 1059 552 
Q 1052 552 , 1040 552 
Q 1028 552 , 1021 552 
Q 1015 552 , 1015 551 
L 1015 550 
" fill="lightgray" />
<path d="
M 1107 552 
L 1107 551 
L 1093 551 
L 1093 551 
L 1115 551 
L 1115 552 
Q 1110 552 , 1104 552 
Q 1099 552 , 1093 552 
Q 1080 552 , 1073 552 
Q 1065 552 , 1065 551 
Q 1065 551 , 1073 550 
Q 1080 550 , 1093 550 
Q 1099 550 , 1104 550 
Q 1109 550 , 1114 550 
L 1114 550 
Q 1107 550 , 1103 550 
Q 1099 550 , 1094 550 
Q 1084 550 , 1078 550 
Q 1073 551 , 1073 551 
Q 1073 552 , 1078 552 
Q 1084 552 , 1094 552 
Q 1099 552 , 1102 552 
Q 1106 552 , 1107 552 
" fill="#F5C000" />
<path d="
M 1015 535 
L 1024 535 
L 1024 544 
Q 1024 546 , 1028 547 
Q 1031 548 , 1040 548 
Q 1049 548 , 1052 547 
Q 1056 546 , 1056 544 
L 1056 535 
L 1065 535 
L 1065 544 
Q 1065 547 , 1059 548 
Q 1052 549 , 1040 549 
Q 1028 549 , 1021 548 
Q 1015 547 , 1015 544 
L 1015 535 
" fill="lightgray" />
<path d="
M 1090 538 
L 1081 544 
L 1098 544 
L 1090 538 
M 1086 535 
L 1094 535 
L 1115 550 
L 1107 550 
L 1101 545 
L 1079 545 
L 1072 550 
L 1065 550 
L 1086 535 
" fill="#339541" />
<path d="
M 1040 523 
L 1031 529 
L 1048 529 
L 1040 523 
M 1036 520 
L 1044 520 
L 1065 535 
L 1057 535 
L 1051 530 
L 1029 530 
L 1022 535 
L 1015 535 
L 1036 520 
" fill="lightgray" />
<path d="
M 1065 520 
L 1074 520 
L 1074 529 
Q 1074 531 , 1078 532 
Q 1081 533 , 1090 533 
Q 1099 533 , 1102 532 
Q 1106 531 , 1106 529 
L 1106 520 
L 1115 520 
L 1115 529 
Q 1115 532 , 1109 533 
Q 1102 535 , 1090 535 
Q 1078 535 , 1071 533 
Q 1065 532 , 1065 529 
L 1065 520 
" fill="#D21010" />
<path d="
M 1065 503 
L 1065 506 
Q 1058 504 , 1054 504 
Q 1049 503 , 1044 503 
Q 1034 503 , 1029 505 
Q 1023 507 , 1023 510 
Q 1023 514 , 1029 516 
Q 1034 518 , 1044 518 
Q 1049 518 , 1054 517 
Q 1058 517 , 1065 515 
L 1065 518 
Q 1060 519 , 1054 520 
Q 1050 520 , 1044 520 
Q 1030 520 , 1023 517 
Q 1015 515 , 1015 510 
Q 1015 506 , 1023 504 
Q 1030 501 , 1044 501 
Q 1050 501 , 1055 501 
Q 1060 502 , 1065 503 
" fill="lightgray" />
<path d="
M 1107 517 
L 1107 512 
L 1093 512 
L 1093 510 
L 1115 510 
L 1115 518 
Q 1110 519 , 1104 520 
Q 1099 520 , 1093 520 
Q 1080 520 , 1073 517 
Q 1065 515 , 1065 510 
Q 1065 506 , 1073 504 
Q 1080 501 , 1093 501 
Q 1099 501 , 1104 501 
Q 1109 502 , 1114 503 
L 1114 505 
Q 1107 504 , 1103 504 
Q 1099 503 , 1094 503 
Q 1084 503 , 1078 505 
Q 1073 507 , 1073 510 
Q 1073 514 , 1078 516 
Q 1084 518 , 1094 518 
Q 1099 518 , 1102 518 
Q 1106 517 , 1107 517 
" fill="#F5C000" />
<path d="
M 1057 498 
L 1057 491 
L 1043 491 
L 1043 488 
L 1065 488 
L 1065 499 
Q 1060 500 , 1054 501 
Q 1049 501 , 1043 501 
Q 1030 501 , 1023 498 
Q 1015 495 , 1015 489 
Q 1015 483 , 1023 480 
Q 1030 477 , 1043 477 
Q 1049 477 , 1054 477 
Q 1059 478 , 1064 479 
L 1064 482 
Q 1057 481 , 1053 480 
Q 1049 480 , 1044 480 
Q 1034 480 , 1028 482 
Q 1023 484 , 1023 489 
Q 1023 494 , 1028 496 
Q 1034 498 , 1044 498 
Q 1049 498 , 1052 498 
Q 1056 498 , 1057 498 
" fill="lightgray" />
<path d="
M 1115 480 
L 1115 483 
Q 1108 481 , 1104 480 
Q 1099 480 , 1094 480 
Q 1084 480 , 1079 482 
Q 1073 484 , 1073 489 
Q 1073 494 , 1079 496 
Q 1084 498 , 1094 498 
Q 1099 498 , 1104 498 
Q 1108 497 , 1115 495 
L 1115 499 
Q 1110 500 , 1104 500 
Q 1100 501 , 1094 501 
Q 1080 501 , 1073 498 
Q 1065 494 , 1065 489 
Q 1065 483 , 1073 480 
Q 1080 477 , 1094 477 
Q 1100 477 , 1105 478 
Q 1110 478 , 1115 480 
" fill="#545FFF" />
<path d="
M 1170 552 
L 1152 553 
L 1186 553 
L 1170 552 
M 1163 552 
L 1177 552 
L 1220 555 
L 1204 555 
L 1192 554 
L 1148 554 
L 1135 555 
L 1120 555 
L 1163 552 
" fill="#339541" />
<path d="
M 1120 544 
L 1138 544 
L 1138 549 
Q 1138 550 , 1146 550 
Q 1153 551 , 1170 551 
Q 1187 551 , 1195 550 
Q 1202 550 , 1202 549 
L 1202 544 
L 1220 544 
L 1220 549 
Q 1220 550 , 1207 551 
Q 1195 552 , 1170 552 
Q 1146 552 , 1133 551 
Q 1120 550 , 1120 549 
L 1120 544 
" fill="#D21010" />
<path d="
M 1220 505 
L 1220 511 
Q 1205 507 , 1197 506 
Q 1189 505 , 1179 505 
Q 1158 505 , 1148 509 
Q 1136 513 , 1136 521 
Q 1136 530 , 1148 535 
Q 1158 539 , 1179 539 
Q 1189 539 , 1197 538 
Q 1205 537 , 1220 532 
L 1220 539 
Q 1209 542 , 1199 543 
Q 1189 544 , 1178 544 
Q 1151 544 , 1136 538 
Q 1120 532 , 1120 522 
Q 1120 512 , 1136 506 
Q 1151 500 , 1178 500 
Q 1189 500 , 1199 501 
Q 1210 502 , 1220 505 
" fill="#545FFF" />
<path d="
M 1204 490 
L 1204 472 
L 1175 472 
L 1175 465 
L 1220 465 
L 1220 495 
Q 1209 498 , 1198 499 
Q 1189 500 , 1177 500 
Q 1151 500 , 1135 491 
Q 1120 482 , 1120 466 
Q 1120 451 , 1135 442 
Q 1151 433 , 1177 433 
Q 1188 433 , 1197 434 
Q 1207 435 , 1217 438 
L 1217 447 
Q 1204 443 , 1196 442 
Q 1187 441 , 1178 441 
Q 1157 441 , 1146 447 
Q 1136 454 , 1136 466 
Q 1136 480 , 1146 486 
Q 1157 492 , 1178 492 
Q 1187 492 , 1194 492 
Q 1201 491 , 1204 490 
" fill="#F5C000" />
<path d="
M 1267 554 
L 1267 554 
L 1253 554 
L 1253 554 
L 1275 554 
L 1275 554 
Q 1270 554 , 1264 554 
Q 1259 554 , 1253 554 
Q 1240 554 , 1233 554 
Q 1225 554 , 1225 554 
Q 1225 553 , 1233 553 
Q 1240 553 , 1253 553 
Q 1259 553 , 1264 553 
Q 1269 553 , 1274 553 
L 1274 553 
Q 1267 553 , 1263 553 
Q 1259 553 , 1254 553 
Q 1244 553 , 1238 553 
Q 1233 553 , 1233 554 
Q 1233 554 , 1238 554 
Q 1244 554 , 1254 554 
Q 1259 554 , 1262 554 
Q 1266 554 , 1267 554 
" fill="lightgray" />
<path d="
M 1275 553 
L 1284 553 
L 1284 554 
Q 1284 554 , 1288 554 
Q 1291 554 , 1300 554 
Q 1309 554 , 1312 554 
Q 1316 554 , 1316 554 
L 1316 553 
L 1325 553 
L 1325 554 
Q 1325 554 , 1319 554 
Q 1312 554 , 1300 554 
Q 1288 554 , 1281 554 
Q 1275 554 , 1275 554 
L 1275 553 
" fill="#D21010" />
<path d="
M 1225 548 
L 1234 548 
L 1234 551 
Q 1234 551 , 1238 552 
Q 1241 552 , 1250 552 
Q 1259 552 , 1262 552 
Q 1266 551 , 1266 551 
L 1266 548 
L 1275 548 
L 1275 551 
Q 1275 551 , 1269 552 
Q 1262 552 , 1250 552 
Q 1238 552 , 1231 552 
Q 1225 551 , 1225 551 
L 1225 548 
" fill="lightgray" />
<path d="
M 1317 552 
L 1317 551 
L 1303 551 
L 1303 550 
L 1325 550 
L 1325 552 
Q 1320 552 , 1314 552 
Q 1309 552 , 1303 552 
Q 1290 552 , 1283 552 
Q 1275 551 , 1275 550 
Q 1275 549 , 1283 549 
Q 1290 548 , 1303 548 
Q 1309 548 , 1314 548 
Q 1319 548 , 1324 548 
L 1324 549 
Q 1317 549 , 1313 549 
Q 1309 549 , 1304 549 
Q 1294 549 , 1288 549 
Q 1283 549 , 1283 550 
Q 1283 551 , 1288 551 
Q 1294 552 , 1304 552 
Q 1309 552 , 1312 552 
Q 1316 552 , 1317 552 
" fill="#F5C000" />
<path d="
M 1275 538 
L 1275 540 
Q 1268 539 , 1264 538 
Q 1259 538 , 1254 538 
Q 1244 538 , 1239 539 
Q 1233 540 , 1233 542 
Q 1233 544 , 1239 546 
Q 1244 547 , 1254 547 
Q 1259 547 , 1264 546 
Q 1268 546 , 1275 545 
L 1275 547 
Q 1270 547 , 1264 547 
Q 1260 548 , 1254 548 
Q 1240 548 , 1233 546 
Q 1225 545 , 1225 542 
Q 1225 540 , 1233 538 
Q 1240 537 , 1254 537 
Q 1260 537 , 1265 537 
Q 1270 538 , 1275 538 
" fill="lightgray" />
<path d="
M 1317 546 
L 1317 543 
L 1303 543 
L 1303 542 
L 1325 542 
L 1325 547 
Q 1320 547 , 1314 548 
Q 1309 548 , 1303 548 
Q 1290 548 , 1283 546 
Q 1275 545 , 1275 542 
Q 1275 540 , 1283 538 
Q 1290 537 , 1303 537 
Q 1309 537 , 1314 537 
Q 1319 537 , 1324 538 
L 1324 539 
Q 1317 539 , 1313 538 
Q 1309 538 , 1304 538 
Q 1294 538 , 1288 539 
Q 1283 540 , 1283 542 
Q 1283 544 , 1288 546 
Q 1294 547 , 1304 547 
Q 1309 547 , 1312 546 
Q 1316 546 , 1317 546 
" fill="#F5C000" />
<path d="
M 1225 521 
L 1234 521 
L 1234 530 
Q 1234 533 , 1238 534 
Q 1241 535 , 1250 535 
Q 1259 535 , 1262 534 
Q 1266 533 , 1266 530 
L 1266 521 
L 1275 521 
L 1275 531 
Q 1275 534 , 1269 535 
Q 1262 537 , 1250 537 
Q 1238 537 , 1231 535 
Q 1225 534 , 1225 531 
L 1225 521 
" fill="lightgray" />
<path d="
M 1300 524 
L 1291 530 
L 1308 530 
L 1300 524 
M 1296 521 
L 1304 521 
L 1325 537 
L 1317 537 
L 1311 532 
L 1289 532 
L 1282 537 
L 1275 537 
L 1296 521 
" fill="#339541" />
<path d="
M 1250 491 
L 1241 506 
L 1258 506 
L 1250 491 
M 1246 485 
L 1254 485 
L 1275 520 
L 1267 520 
L 1261 510 
L 1239 510 
L 1232 520 
L 1225 520 
L 1246 485 
" fill="lightgray" />
<path d="
M 1275 485 
L 1284 485 
L 1284 506 
Q 1284 512 , 1288 514 
Q 1291 516 , 1300 516 
Q 1309 516 , 1312 514 
Q 1316 512 , 1316 506 
L 1316 485 
L 1325 485 
L 1325 506 
Q 1325 513 , 1319 517 
Q 1312 520 , 1300 520 
Q 1288 520 , 1281 517 
Q 1275 513 , 1275 506 
L 1275 485 
" fill="#D21010" />
<path d="
M 1267 475 
L 1267 457 
L 1253 457 
L 1253 450 
L 1275 450 
L 1275 479 
Q 1270 482 , 1264 483 
Q 1259 484 , 1253 485 
Q 1240 485 , 1233 476 
Q 1225 467 , 1225 451 
Q 1225 436 , 1233 427 
Q 1240 418 , 1253 418 
Q 1259 418 , 1264 419 
Q 1269 420 , 1274 423 
L 1274 432 
Q 1267 428 , 1263 427 
Q 1259 426 , 1254 426 
Q 1244 426 , 1238 432 
Q 1233 438 , 1233 451 
Q 1233 464 , 1238 471 
Q 1244 477 , 1254 477 
Q 1259 477 , 1262 476 
Q 1266 476 , 1267 475 
" fill="lightgray" />
<path d="
M 1325 425 
L 1325 435 
Q 1318 429 , 1314 427 
Q 1309 425 , 1304 425 
Q 1294 425 , 1289 432 
Q 1283 438 , 1283 451 
Q 1283 464 , 1289 471 
Q 1294 477 , 1304 477 
Q 1309 477 , 1314 476 
Q 1318 474 , 1325 467 
L 1325 478 
Q 1320 481 , 1314 483 
Q 1310 485 , 1304 485 
Q 1290 485 , 1283 476 
Q 1275 467 , 1275 451 
Q 1275 436 , 1283 427 
Q 1290 418 , 1304 418 
Q 1310 418 , 1315 420 
Q 1320 421 , 1325 425 
" fill="#545FFF" />
<path d="
M 1380 553 
L 1362 554 
L 1396 554 
L 1380 553 
M 1373 553 
L 1387 553 
L 1430 555 
L 1414 555 
L 1402 554 
L 1358 554 
L 1345 555 
L 1330 555 
L 1373 553 
" fill="#339541" />
<path d="
M 1330 550 
L 1348 550 
L 1348 551 
Q 1348 552 , 1356 552 
Q 1363 552 , 1380 552 
Q 1397 552 , 1405 552 
Q 1412 552 , 1412 551 
L 1412 550 
L 1430 550 
L 1430 551 
Q 1430 552 , 1417 552 
Q 1405 552 , 1380 552 
Q 1356 552 , 1343 552 
Q 1330 552 , 1330 551 
L 1330 550 
" fill="#D21010" />
<path d="
M 1430 547 
L 1430 548 
Q 1415 547 , 1407 547 
Q 1399 547 , 1389 547 
Q 1368 547 , 1358 548 
Q 1346 548 , 1346 548 
Q 1346 549 , 1358 549 
Q 1368 550 , 1389 550 
Q 1399 550 , 1407 549 
Q 1415 549 , 1430 549 
L 1430 550 
Q 1419 550 , 1409 550 
Q 1399 550 , 1388 550 
Q 1361 550 , 1346 549 
Q 1330 549 , 1330 548 
Q 1330 548 , 1346 547 
Q 1361 547 , 1388 547 
Q 1399 547 , 1409 547 
Q 1420 547 , 1430 547 
" fill="#545FFF" />
<path d="
M 1414 546 
L 1414 545 
L 1385 545 
L 1385 545 
L 1430 545 
L 1430 547 
Q 1419 547 , 1408 547 
Q 1399 547 , 1387 547 
Q 1361 547 , 1345 546 
Q 1330 546 , 1330 545 
Q 1330 544 , 1345 544 
Q 1361 543 , 1387 543 
Q 1398 543 , 1407 543 
Q 1417 543 , 1427 543 
L 1427 544 
Q 1414 544 , 1406 544 
Q 1397 543 , 1388 543 
Q 1367 543 , 1356 544 
Q 1346 544 , 1346 545 
Q 1346 546 , 1356 546 
Q 1367 546 , 1388 546 
Q 1397 546 , 1404 546 
Q 1411 546 , 1414 546 
" fill="#F5C000" />
<path d="M 65 168 L 65 555 " stroke="black" stroke-width="1.5"/>
<path d="M 55 555 L 65 555 " stroke="black" stroke-width="4"/>
<text text-anchor="end" x="50" y="555" font-size="50" alignment-baseline="middle">0</text>
<path d="M 55 362 L 65 362 " stroke="black" stroke-width="4"/>
<text text-anchor="end" x="50" y="362" font-size="50" alignment-baseline="middle">1</text>
<path d="M 55 168 L 65 168 " stroke="black" stroke-width="4"/>
<text text-anchor="end" x="50" y="168" font-size="50" alignment-baseline="middle">2</text>
<text text-anchor="middle" x="750" y="50" font-size="50" alignment-baseline="baseline"></text>
G<path d="
M 160 582 
L 126 595 
L 160 608 
L 157 611 
L 123 598 
L 123 623 
L 117 623 
L 117 599 
L 83 611 
L 80 608 
L 114 595 
L 80 582 
L 83 579 
L 117 591 
L 117 567 
L 123 567 
L 123 591 
L 157 579 
L 160 582 
" fill="black" />
<path d="
" fill="black" />
<path d="
M 211 567 
L 238 567 
L 238 623 
L 211 623 
L 211 567 
" fill="black" />
<path d="
" fill="black" />
<path d="
M 370 567 
Q 341 574 , 328 581 
Q 315 588 , 315 595 
Q 315 602 , 328 609 
Q 341 616 , 370 623 
L 346 623 
Q 318 616 , 304 609 
Q 290 602 , 290 595 
Q 290 588 , 304 581 
Q 318 574 , 346 567 
L 370 567 
" fill="black" />
<path d="
" fill="black" />
<path d="
M 421 567 
L 448 567 
L 448 623 
L 421 623 
L 421 567 
" fill="black" />
<path d="
" fill="black" />
<path d="
M 580 567 
Q 551 574 , 538 581 
Q 525 588 , 525 595 
Q 525 602 , 538 609 
Q 551 616 , 580 623 
L 556 623 
Q 528 616 , 514 609 
Q 500 602 , 500 595 
Q 500 588 , 514 581 
Q 528 574 , 556 567 
L 580 567 
" fill="black" />
<path d="
" fill="black" />
<path d="
M 622 567 
L 642 567 
L 642 623 
L 622 623 
L 622 567 
" fill="black" />
<path d="
" fill="black" />
<path d="
M 674 621 
L 674 616 
Q 675 618 , 677 619 
Q 678 619 , 680 619 
Q 686 619 , 688 609 
Q 689 604 , 689 595 
Q 689 597 , 687 600 
Q 685 603 , 681 603 
Q 677 603 , 675 598 
Q 672 593 , 672 586 
Q 672 577 , 675 572 
Q 677 567 , 682 567 
Q 687 567 , 689 574 
Q 692 581 , 692 595 
Q 692 609 , 689 616 
Q 685 623 , 680 623 
Q 678 623 , 677 622 
Q 675 622 , 674 621 
M 676 595 
Q 678 599 , 681 599 
Q 685 599 , 687 595 
Q 689 591 , 689 584 
Q 689 578 , 687 574 
Q 685 571 , 681 571 
Q 678 571 , 676 574 
Q 675 578 , 675 584 
Q 675 591 , 676 595 
" fill="black" />
<path d="
M 790 582 
L 756 595 
L 790 608 
L 787 611 
L 753 598 
L 753 623 
L 747 623 
L 747 599 
L 713 611 
L 710 608 
L 744 595 
L 710 582 
L 713 579 
L 747 591 
L 747 567 
L 753 567 
L 753 591 
L 787 579 
L 790 582 
" fill="black" />
<path d="
" fill="black" />
<path d="
M 841 567 
L 868 567 
L 868 623 
L 841 623 
L 841 567 
" fill="black" />
<path d="
" fill="black" />
<path d="
" fill="black" />
<path d="
M 946 567 
L 973 567 
L 973 623 
L 946 623 
L 946 567 
" fill="black" />
<path d="
" fill="black" />
<path d="
M 1025 567 
L 1049 567 
Q 1077 574 , 1091 581 
Q 1105 588 , 1105 595 
Q 1105 602 , 1091 609 
Q 1077 616 , 1049 623 
L 1025 623 
Q 1054 616 , 1067 609 
Q 1080 602 , 1080 595 
Q 1080 588 , 1067 581 
Q 1054 574 , 1025 567 
" fill="black" />
<path d="
" fill="black" />
<path d="
M 1156 567 
L 1183 567 
L 1183 623 
L 1156 623 
L 1156 567 
" fill="black" />
<path d="
" fill="black" />
<path d="
M 1235 567 
L 1259 567 
Q 1287 574 , 1301 581 
Q 1315 588 , 1315 595 
Q 1315 602 , 1301 609 
Q 1287 616 , 1259 623 
L 1235 623 
Q 1264 616 , 1277 609 
Q 1290 602 , 1290 595 
Q 1290 588 , 1277 581 
Q 1264 574 , 1235 567 
" fill="black" />
<path d="
M 1420 582 
L 1386 595 
L 1420 608 
L 1417 611 
L 1383 598 
L 1383 623 
L 1377 623 
L 1377 599 
L 1343 611 
L 1340 608 
L 1374 595 
L 1340 582 
L 1343 579 
L 1377 591 
L 1377 567 
L 1383 567 
L 1383 591 
L 1417 579 
L 1420 582 
" fill="black" />
</svg>
