<svg xmlns="http://www.w3.org/2000/svg"
viewBox="0 0 1435 635">
<path d="
M 70 554 
L 88 554 
L 88 554 
Q 88 554 , 96 554 
Q 103 554 , 120 554 
Q 137 554 , 145 554 
Q 152 554 , 152 554 
L 152 554 
L 170 554 
L 170 554 
Q 170 554 , 157 554 
Q 145 554 , 120 554 
Q 96 554 , 83 554 
Q 70 554 , 70 554 
L 70 554 
" fill="#D21010" />
<path d="
M 120 553 
L 102 553 
L 136 553 
L 120 553 
M 113 553 
L 127 553 
L 170 554 
L 154 554 
L 142 553 
L 98 553 
L 85 554 
L 70 554 
L 113 553 
" fill="#339541" />
<path d="
M 170 552 
L 170 552 
Q 155 552 , 147 552 
Q 139 552 , 129 552 
Q 108 552 , 98 552 
Q 86 552 , 86 552 
Q 86 552 , 98 552 
Q 108 552 , 129 552 
Q 139 552 , 147 552 
Q 155 552 , 170 552 
L 170 552 
Q 159 553 , 149 553 
Q 139 553 , 128 553 
Q 101 553 , 86 552 
Q 70 552 , 70 552 
Q 70 552 , 86 552 
Q 101 552 , 128 552 
Q 139 552 , 149 552 
Q 160 552 , 170 552 
" fill="#545FFF" />
<path d="
M 154 552 
L 154 551 
L 125 551 
L 125 551 
L 170 551 
L 170 552 
Q 159 552 , 148 552 
Q 139 552 , 127 552 
Q 101 552 , 85 552 
Q 70 551 , 70 551 
Q 70 551 , 85 551 
Q 101 551 , 127 551 
Q 138 551 , 147 551 
Q 157 551 , 167 551 
L 167 551 
Q 154 551 , 146 551 
Q 137 551 , 128 551 
Q 107 551 , 96 551 
Q 86 551 , 86 551 
Q 86 551 , 96 551 
Q 107 552 , 128 552 
Q 137 552 , 144 552 
Q 151 552 , 154 552 
" fill="#F5C000" />
<path d="
M 259 553 
L 259 552 
L 230 552 
L 230 551 
L 275 551 
L 275 554 
Q 264 554 , 253 554 
Q 244 554 , 232 554 
Q 206 554 , 190 553 
Q 175 553 , 175 552 
Q 175 550 , 190 550 
Q 206 549 , 232 549 
Q 243 549 , 252 549 
Q 262 549 , 272 549 
L 272 550 
Q 259 550 , 251 550 
Q 242 550 , 233 550 
Q 212 550 , 201 550 
Q 191 551 , 191 552 
Q 191 553 , 201 553 
Q 212 554 , 233 554 
Q 242 554 , 249 554 
Q 256 553 , 259 553 
" fill="#F5C000" />
<path d="
M 175 532 
L 193 532 
L 193 542 
Q 193 544 , 201 546 
Q 208 547 , 225 547 
Q 242 547 , 250 546 
Q 257 544 , 257 542 
L 257 532 
L 275 532 
L 275 542 
Q 275 545 , 262 547 
Q 250 548 , 225 548 
Q 201 548 , 188 547 
Q 175 545 , 175 542 
L 175 532 
" fill="#D21010" />
<path d="
M 225 516 
L 207 524 
L 241 524 
L 225 516 
M 218 513 
L 232 513 
L 275 531 
L 259 531 
L 247 526 
L 203 526 
L 190 531 
L 175 531 
L 218 513 
" fill="#339541" />
<path d="
M 275 435 
L 275 449 
Q 260 440 , 252 438 
Q 244 436 , 234 436 
Q 213 436 , 203 444 
Q 191 453 , 191 469 
Q 191 486 , 203 495 
Q 213 504 , 234 504 
Q 244 504 , 252 501 
Q 260 499 , 275 490 
L 275 504 
Q 264 509 , 254 511 
Q 244 513 , 233 513 
Q 206 513 , 191 501 
Q 175 489 , 175 470 
Q 175 450 , 191 438 
Q 206 426 , 233 426 
Q 244 426 , 254 428 
Q 265 430 , 275 435 
" fill="#545FFF" />
<path d="
M 322 554 
L 322 554 
L 308 554 
L 308 554 
L 330 554 
L 330 555 
Q 325 555 , 319 555 
Q 314 555 , 308 555 
Q 295 555 , 288 554 
Q 280 554 , 280 554 
Q 280 554 , 288 554 
Q 295 554 , 308 554 
Q 314 554 , 319 554 
Q 324 554 , 329 554 
L 329 554 
Q 322 554 , 318 554 
Q 314 554 , 309 554 
Q 299 554 , 293 554 
Q 288 554 , 288 554 
Q 288 554 , 293 554 
Q 299 554 , 309 554 
Q 314 554 , 317 554 
Q 321 554 , 322 554 
" fill="#F5C000" />
<path d="
M 330 554 
L 339 554 
L 339 554 
Q 339 554 , 343 554 
Q 346 554 , 355 554 
Q 364 554 , 367 554 
Q 371 554 , 371 554 
L 371 554 
L 380 554 
L 380 554 
Q 380 554 , 374 554 
Q 367 555 , 355 555 
Q 343 555 , 336 554 
Q 330 554 , 330 554 
L 330 554 
" fill="lightgray" />
<path d="
M 330 548 
L 330 549 
Q 323 548 , 319 548 
Q 314 548 , 309 548 
Q 299 548 , 294 548 
Q 288 549 , 288 550 
Q 288 552 , 294 552 
Q 299 553 , 309 553 
Q 314 553 , 319 553 
Q 323 553 , 330 552 
L 330 553 
Q 325 553 , 319 554 
Q 315 554 , 309 554 
Q 295 554 , 288 553 
Q 280 552 , 280 550 
Q 280 549 , 288 548 
Q 295 547 , 309 547 
Q 315 547 , 320 547 
Q 325 547 , 330 548 
" fill="#545FFF" />
<path d="
M 372 553 
L 372 551 
L 358 551 
L 358 550 
L 380 550 
L 380 553 
Q 375 553 , 369 554 
Q 364 554 , 358 554 
Q 345 554 , 338 553 
Q 330 552 , 330 550 
Q 330 549 , 338 548 
Q 345 547 , 358 547 
Q 364 547 , 369 547 
Q 374 547 , 379 548 
L 379 548 
Q 372 548 , 368 548 
Q 364 548 , 359 548 
Q 349 548 , 343 548 
Q 338 549 , 338 550 
Q 338 552 , 343 552 
Q 349 553 , 359 553 
Q 364 553 , 367 553 
Q 371 553 , 372 553 
" fill="lightgray" />
<path d="
M 280 538 
L 289 538 
L 289 543 
Q 289 544 , 293 545 
Q 296 545 , 305 545 
Q 314 545 , 317 545 
Q 321 544 , 321 543 
L 321 538 
L 330 538 
L 330 543 
Q 330 544 , 324 545 
Q 317 546 , 305 546 
Q 293 546 , 286 545 
Q 280 544 , 280 543 
L 280 538 
" fill="#D21010" />
<path d="
M 372 545 
L 372 543 
L 358 543 
L 358 542 
L 380 542 
L 380 546 
Q 375 546 , 369 546 
Q 364 546 , 358 546 
Q 345 546 , 338 545 
Q 330 544 , 330 542 
Q 330 540 , 338 539 
Q 345 538 , 358 538 
Q 364 538 , 369 538 
Q 374 538 , 379 539 
L 379 540 
Q 372 539 , 368 539 
Q 364 539 , 359 539 
Q 349 539 , 343 540 
Q 338 540 , 338 542 
Q 338 544 , 343 544 
Q 349 545 , 359 545 
Q 364 545 , 367 545 
Q 371 545 , 372 545 
" fill="lightgray" />
<path d="
M 280 528 
L 289 528 
L 289 534 
Q 289 536 , 293 536 
Q 296 537 , 305 537 
Q 314 537 , 317 536 
Q 321 536 , 321 534 
L 321 528 
L 330 528 
L 330 534 
Q 330 536 , 324 537 
Q 317 538 , 305 538 
Q 293 538 , 286 537 
Q 280 536 , 280 534 
L 280 528 
" fill="#D21010" />
<path d="
M 355 530 
L 346 534 
L 363 534 
L 355 530 
M 351 528 
L 359 528 
L 380 538 
L 372 538 
L 366 535 
L 344 535 
L 337 538 
L 330 538 
L 351 528 
" fill="lightgray" />
<path d="
M 305 515 
L 296 521 
L 313 521 
L 305 515 
M 301 512 
L 309 512 
L 330 528 
L 322 528 
L 316 523 
L 294 523 
L 287 528 
L 280 528 
L 301 512 
" fill="#339541" />
<path d="
M 330 512 
L 339 512 
L 339 521 
Q 339 524 , 343 525 
Q 346 526 , 355 526 
Q 364 526 , 367 525 
Q 371 524 , 371 521 
L 371 512 
L 380 512 
L 380 522 
Q 380 525 , 374 526 
Q 367 528 , 355 528 
Q 343 528 , 336 526 
Q 330 525 , 330 522 
L 330 512 
" fill="lightgray" />
<path d="
M 322 509 
L 322 505 
L 308 505 
L 308 503 
L 330 503 
L 330 511 
Q 325 511 , 319 512 
Q 314 512 , 308 512 
Q 295 512 , 288 510 
Q 280 507 , 280 503 
Q 280 500 , 288 497 
Q 295 495 , 308 495 
Q 314 495 , 319 495 
Q 324 496 , 329 496 
L 329 499 
Q 322 498 , 318 497 
Q 314 497 , 309 497 
Q 299 497 , 293 499 
Q 288 500 , 288 503 
Q 288 507 , 293 508 
Q 299 510 , 309 510 
Q 314 510 , 317 510 
Q 321 510 , 322 509 
" fill="#F5C000" />
<path d="
M 380 497 
L 380 499 
Q 373 498 , 369 497 
Q 364 497 , 359 497 
Q 349 497 , 344 499 
Q 338 500 , 338 503 
Q 338 507 , 344 508 
Q 349 510 , 359 510 
Q 364 510 , 369 510 
Q 373 509 , 380 508 
L 380 510 
Q 375 511 , 369 512 
Q 365 512 , 359 512 
Q 345 512 , 338 510 
Q 330 507 , 330 503 
Q 330 500 , 338 497 
Q 345 495 , 359 495 
Q 365 495 , 370 495 
Q 375 496 , 380 497 
" fill="lightgray" />
<path d="
M 435 553 
L 417 554 
L 451 554 
L 435 553 
M 428 552 
L 442 552 
L 485 555 
L 469 555 
L 457 554 
L 413 554 
L 400 555 
L 385 555 
L 428 552 
" fill="#339541" />
<path d="
M 485 548 
L 485 549 
Q 470 549 , 462 548 
Q 454 548 , 444 548 
Q 423 548 , 413 549 
Q 401 549 , 401 550 
Q 401 551 , 413 551 
Q 423 551 , 444 551 
Q 454 551 , 462 551 
Q 470 551 , 485 551 
L 485 551 
Q 474 551 , 464 552 
Q 454 552 , 443 552 
Q 416 552 , 401 551 
Q 385 551 , 385 550 
Q 385 549 , 401 548 
Q 416 548 , 443 548 
Q 454 548 , 464 548 
Q 475 548 , 485 548 
" fill="#545FFF" />
<path d="
M 385 508 
L 403 508 
L 403 532 
Q 403 538 , 411 541 
Q 418 543 , 435 543 
Q 452 543 , 460 541 
Q 467 538 , 467 532 
L 467 508 
L 485 508 
L 485 532 
Q 485 540 , 472 544 
Q 460 548 , 435 548 
Q 411 548 , 398 544 
Q 385 540 , 385 532 
L 385 508 
" fill="#D21010" />
<path d="
M 469 484 
L 469 441 
L 440 441 
L 440 423 
L 485 423 
L 485 495 
Q 474 502 , 463 504 
Q 454 507 , 442 507 
Q 416 507 , 400 486 
Q 385 464 , 385 427 
Q 385 389 , 400 368 
Q 416 346 , 442 346 
Q 453 346 , 462 349 
Q 472 352 , 482 359 
L 482 380 
Q 469 371 , 461 368 
Q 452 365 , 443 365 
Q 422 365 , 411 380 
Q 401 396 , 401 427 
Q 401 458 , 411 474 
Q 422 489 , 443 489 
Q 452 489 , 459 488 
Q 466 486 , 469 484 
" fill="#F5C000" />
<path d="
M 540 551 
L 522 553 
L 556 553 
L 540 551 
M 533 550 
L 547 550 
L 590 555 
L 574 555 
L 562 554 
L 518 554 
L 505 555 
L 490 555 
L 533 550 
" fill="#339541" />
<path d="
M 574 548 
L 574 546 
L 545 546 
L 545 545 
L 590 545 
L 590 549 
Q 579 549 , 568 549 
Q 559 549 , 547 549 
Q 521 549 , 505 548 
Q 490 547 , 490 545 
Q 490 543 , 505 542 
Q 521 541 , 547 541 
Q 558 541 , 567 541 
Q 577 541 , 587 542 
L 587 543 
Q 574 542 , 566 542 
Q 557 542 , 548 542 
Q 527 542 , 516 543 
Q 506 544 , 506 545 
Q 506 547 , 516 548 
Q 527 548 , 548 548 
Q 557 548 , 564 548 
Q 571 548 , 574 548 
" fill="#F5C000" />
<path d="
M 490 531 
L 508 531 
L 508 537 
Q 508 538 , 516 539 
Q 523 540 , 540 540 
Q 557 540 , 565 539 
Q 572 538 , 572 537 
L 572 531 
L 590 531 
L 590 537 
Q 590 539 , 577 540 
Q 565 541 , 540 541 
Q 516 541 , 503 540 
Q 490 539 , 490 537 
L 490 531 
" fill="#D21010" />
<path d="
M 590 510 
L 590 513 
Q 575 511 , 567 510 
Q 559 510 , 549 510 
Q 528 510 , 518 512 
Q 506 514 , 506 518 
Q 506 523 , 518 526 
Q 528 528 , 549 528 
Q 559 528 , 567 527 
Q 575 527 , 590 524 
L 590 528 
Q 579 529 , 569 530 
Q 559 530 , 548 530 
Q 521 530 , 506 527 
Q 490 524 , 490 519 
Q 490 513 , 506 510 
Q 521 507 , 548 507 
Q 559 507 , 569 508 
Q 580 508 , 590 510 
" fill="#545FFF" />
<path d="
M 645 552 
L 627 553 
L 661 553 
L 645 552 
M 638 551 
L 652 551 
L 695 554 
L 679 554 
L 667 553 
L 623 553 
L 610 554 
L 595 554 
L 638 551 
" fill="#339541" />
<path d="
M 595 540 
L 613 540 
L 613 546 
Q 613 548 , 621 548 
Q 628 549 , 645 549 
Q 662 549 , 670 548 
Q 677 548 , 677 546 
L 677 540 
L 695 540 
L 695 546 
Q 695 548 , 682 549 
Q 670 550 , 645 550 
Q 621 550 , 608 549 
Q 595 548 , 595 546 
L 595 540 
" fill="#D21010" />
<path d="
M 679 538 
L 679 534 
L 650 534 
L 650 533 
L 695 533 
L 695 539 
Q 684 540 , 673 540 
Q 664 540 , 652 540 
Q 626 540 , 610 538 
Q 595 536 , 595 533 
Q 595 530 , 610 528 
Q 626 526 , 652 526 
Q 663 526 , 672 526 
Q 682 527 , 692 527 
L 692 529 
Q 679 528 , 671 528 
Q 662 528 , 653 528 
Q 632 528 , 621 529 
Q 611 530 , 611 533 
Q 611 536 , 621 537 
Q 632 538 , 653 538 
Q 662 538 , 669 538 
Q 676 538 , 679 538 
" fill="#F5C000" />
<path d="
M 695 503 
L 695 507 
Q 680 504 , 672 504 
Q 664 503 , 654 503 
Q 633 503 , 623 505 
Q 611 508 , 611 513 
Q 611 518 , 623 520 
Q 633 523 , 654 523 
Q 664 523 , 672 522 
Q 680 522 , 695 519 
L 695 523 
Q 684 525 , 674 525 
Q 664 526 , 653 526 
Q 626 526 , 611 522 
Q 595 519 , 595 513 
Q 595 507 , 611 504 
Q 626 500 , 653 500 
Q 664 500 , 674 501 
Q 685 501 , 695 503 
" fill="#545FFF" />
<path d="
M 700 554 
L 718 554 
L 718 554 
Q 718 554 , 726 554 
Q 733 554 , 750 554 
Q 767 554 , 775 554 
Q 782 554 , 782 554 
L 782 554 
L 800 554 
L 800 554 
Q 800 554 , 787 554 
Q 775 554 , 750 554 
Q 726 554 , 713 554 
Q 700 554 , 700 554 
L 700 554 
" fill="#D21010" />
<path d="
M 750 553 
L 732 553 
L 766 553 
L 750 553 
M 743 553 
L 757 553 
L 800 554 
L 784 554 
L 772 553 
L 728 553 
L 715 554 
L 700 554 
L 743 553 
" fill="#339541" />
<path d="
M 800 552 
L 800 552 
Q 785 552 , 777 552 
Q 769 552 , 759 552 
Q 738 552 , 728 552 
Q 716 552 , 716 552 
Q 716 552 , 728 552 
Q 738 552 , 759 552 
Q 769 552 , 777 552 
Q 785 552 , 800 552 
L 800 552 
Q 789 553 , 779 553 
Q 769 553 , 758 553 
Q 731 553 , 716 552 
Q 700 552 , 700 552 
Q 700 552 , 716 552 
Q 731 552 , 758 552 
Q 769 552 , 779 552 
Q 790 552 , 800 552 
" fill="#545FFF" />
<path d="
M 784 552 
L 784 551 
L 755 551 
L 755 551 
L 800 551 
L 800 552 
Q 789 552 , 778 552 
Q 769 552 , 757 552 
Q 731 552 , 715 552 
Q 700 551 , 700 551 
Q 700 551 , 715 551 
Q 731 551 , 757 551 
Q 768 551 , 777 551 
Q 787 551 , 797 551 
L 797 551 
Q 784 551 , 776 551 
Q 767 551 , 758 551 
Q 737 551 , 726 551 
Q 716 551 , 716 551 
Q 716 551 , 726 551 
Q 737 552 , 758 552 
Q 767 552 , 774 552 
Q 781 552 , 784 552 
" fill="#F5C000" />
<path d="
M 855 553 
L 837 554 
L 871 554 
L 855 553 
M 848 553 
L 862 553 
L 905 555 
L 889 555 
L 877 554 
L 833 554 
L 820 555 
L 805 555 
L 848 553 
" fill="#339541" />
<path d="
M 805 550 
L 823 550 
L 823 551 
Q 823 552 , 831 552 
Q 838 552 , 855 552 
Q 872 552 , 880 552 
Q 887 552 , 887 551 
L 887 550 
L 905 550 
L 905 552 
Q 905 552 , 892 552 
Q 880 552 , 855 552 
Q 831 552 , 818 552 
Q 805 552 , 805 552 
L 805 550 
" fill="#D21010" />
<path d="
M 889 539 
L 889 520 
L 860 520 
L 860 512 
L 905 512 
L 905 544 
Q 894 547 , 883 548 
Q 874 549 , 862 549 
Q 836 549 , 820 540 
Q 805 530 , 805 514 
Q 805 497 , 820 488 
Q 836 478 , 862 478 
Q 873 478 , 882 479 
Q 892 481 , 902 484 
L 902 493 
Q 889 489 , 881 488 
Q 872 486 , 863 486 
Q 842 486 , 831 493 
Q 821 500 , 821 514 
Q 821 528 , 831 534 
Q 842 541 , 863 541 
Q 872 541 , 879 541 
Q 886 540 , 889 539 
" fill="#F5C000" />
<path d="
M 905 403 
L 905 416 
Q 890 407 , 882 405 
Q 874 403 , 864 403 
Q 843 403 , 833 411 
Q 821 420 , 821 436 
Q 821 452 , 833 460 
Q 843 468 , 864 468 
Q 874 468 , 882 466 
Q 890 464 , 905 455 
L 905 469 
Q 894 473 , 884 475 
Q 874 477 , 863 477 
Q 836 477 , 821 466 
Q 805 455 , 805 436 
Q 805 416 , 821 405 
Q 836 394 , 863 394 
Q 874 394 , 884 396 
Q 895 398 , 905 403 
" fill="#545FFF" />
<path d="
M 952 554 
L 952 554 
L 938 554 
L 938 554 
L 960 554 
L 960 555 
Q 955 555 , 949 555 
Q 944 555 , 938 555 
Q 925 555 , 918 554 
Q 910 554 , 910 554 
Q 910 554 , 918 554 
Q 925 554 , 938 554 
Q 944 554 , 949 554 
Q 954 554 , 959 554 
L 959 554 
Q 952 554 , 948 554 
Q 944 554 , 939 554 
Q 929 554 , 923 554 
Q 918 554 , 918 554 
Q 918 554 , 923 554 
Q 929 554 , 939 554 
Q 944 554 , 947 554 
Q 951 554 , 952 554 
" fill="lightgray" />
<path d="
M 960 554 
L 969 554 
L 969 554 
Q 969 554 , 973 554 
Q 976 554 , 985 554 
Q 994 554 , 997 554 
Q 1001 554 , 1001 554 
L 1001 554 
L 1010 554 
L 1010 554 
Q 1010 554 , 1004 554 
Q 997 555 , 985 555 
Q 973 555 , 966 554 
Q 960 554 , 960 554 
L 960 554 
" fill="#D21010" />
<path d="
M 960 548 
L 960 549 
Q 953 548 , 949 548 
Q 944 548 , 939 548 
Q 929 548 , 924 548 
Q 918 549 , 918 550 
Q 918 552 , 924 552 
Q 929 553 , 939 553 
Q 944 553 , 949 553 
Q 953 553 , 960 552 
L 960 553 
Q 955 553 , 949 554 
Q 945 554 , 939 554 
Q 925 554 , 918 553 
Q 910 552 , 910 550 
Q 910 549 , 918 548 
Q 925 547 , 939 547 
Q 945 547 , 950 547 
Q 955 547 , 960 548 
" fill="lightgray" />
<path d="
M 1002 553 
L 1002 551 
L 988 551 
L 988 550 
L 1010 550 
L 1010 553 
Q 1005 553 , 999 554 
Q 994 554 , 988 554 
Q 975 554 , 968 553 
Q 960 552 , 960 550 
Q 960 549 , 968 548 
Q 975 547 , 988 547 
Q 994 547 , 999 547 
Q 1004 547 , 1009 548 
L 1009 548 
Q 1002 548 , 998 548 
Q 994 548 , 989 548 
Q 979 548 , 973 548 
Q 968 549 , 968 550 
Q 968 552 , 973 552 
Q 979 553 , 989 553 
Q 994 553 , 997 553 
Q 1001 553 , 1002 553 
" fill="#F5C000" />
<path d="
M 910 538 
L 919 538 
L 919 543 
Q 919 544 , 923 545 
Q 926 545 , 935 545 
Q 944 545 , 947 545 
Q 951 544 , 951 543 
L 951 538 
L 960 538 
L 960 543 
Q 960 544 , 954 545 
Q 947 546 , 935 546 
Q 923 546 , 916 545 
Q 910 544 , 910 543 
L 910 538 
" fill="lightgray" />
<path d="
M 1002 545 
L 1002 543 
L 988 543 
L 988 542 
L 1010 542 
L 1010 546 
Q 1005 546 , 999 546 
Q 994 546 , 988 546 
Q 975 546 , 968 545 
Q 960 544 , 960 542 
Q 960 540 , 968 539 
Q 975 538 , 988 538 
Q 994 538 , 999 538 
Q 1004 538 , 1009 539 
L 1009 540 
Q 1002 539 , 998 539 
Q 994 539 , 989 539 
Q 979 539 , 973 540 
Q 968 540 , 968 542 
Q 968 544 , 973 544 
Q 979 545 , 989 545 
Q 994 545 , 997 545 
Q 1001 545 , 1002 545 
" fill="#F5C000" />
<path d="
M 910 528 
L 919 528 
L 919 534 
Q 919 536 , 923 536 
Q 926 537 , 935 537 
Q 944 537 , 947 536 
Q 951 536 , 951 534 
L 951 528 
L 960 528 
L 960 534 
Q 960 536 , 954 537 
Q 947 538 , 935 538 
Q 923 538 , 916 537 
Q 910 536 , 910 534 
L 910 528 
" fill="lightgray" />
<path d="
M 985 530 
L 976 534 
L 993 534 
L 985 530 
M 981 528 
L 989 528 
L 1010 538 
L 1002 538 
L 996 535 
L 974 535 
L 967 538 
L 960 538 
L 981 528 
" fill="#339541" />
<path d="
M 935 515 
L 926 521 
L 943 521 
L 935 515 
M 931 512 
L 939 512 
L 960 528 
L 952 528 
L 946 523 
L 924 523 
L 917 528 
L 910 528 
L 931 512 
" fill="lightgray" />
<path d="
M 960 512 
L 969 512 
L 969 521 
Q 969 524 , 973 525 
Q 976 526 , 985 526 
Q 994 526 , 997 525 
Q 1001 524 , 1001 521 
L 1001 512 
L 1010 512 
L 1010 522 
Q 1010 525 , 1004 526 
Q 997 528 , 985 528 
Q 973 528 , 966 526 
Q 960 525 , 960 522 
L 960 512 
" fill="#D21010" />
<path d="
M 952 509 
L 952 505 
L 938 505 
L 938 503 
L 960 503 
L 960 511 
Q 955 511 , 949 512 
Q 944 512 , 938 512 
Q 925 512 , 918 510 
Q 910 507 , 910 503 
Q 910 500 , 918 497 
Q 925 495 , 938 495 
Q 944 495 , 949 495 
Q 954 496 , 959 496 
L 959 499 
Q 952 498 , 948 497 
Q 944 497 , 939 497 
Q 929 497 , 923 499 
Q 918 500 , 918 503 
Q 918 507 , 923 508 
Q 929 510 , 939 510 
Q 944 510 , 947 510 
Q 951 510 , 952 509 
" fill="lightgray" />
<path d="
M 1010 497 
L 1010 499 
Q 1003 498 , 999 497 
Q 994 497 , 989 497 
Q 979 497 , 974 499 
Q 968 500 , 968 503 
Q 968 507 , 974 508 
Q 979 510 , 989 510 
Q 994 510 , 999 510 
Q 1003 509 , 1010 508 
L 1010 510 
Q 1005 511 , 999 512 
Q 995 512 , 989 512 
Q 975 512 , 968 510 
Q 960 507 , 960 503 
Q 960 500 , 968 497 
Q 975 495 , 989 495 
Q 995 495 , 1000 495 
Q 1005 496 , 1010 497 
" fill="#545FFF" />
<path d="
M 1115 551 
L 1115 552 
Q 1100 551 , 1092 551 
Q 1084 551 , 1074 551 
Q 1053 551 , 1043 552 
Q 1031 552 , 1031 552 
Q 1031 553 , 1043 553 
Q 1053 554 , 1074 554 
Q 1084 554 , 1092 554 
Q 1100 554 , 1115 553 
L 1115 554 
Q 1104 554 , 1094 554 
Q 1084 554 , 1073 554 
Q 1046 554 , 1031 554 
Q 1015 553 , 1015 553 
Q 1015 552 , 1031 551 
Q 1046 551 , 1073 551 
Q 1084 551 , 1094 551 
Q 1105 551 , 1115 551 
" fill="#545FFF" />
<path d="
M 1015 546 
L 1033 546 
L 1033 549 
Q 1033 549 , 1041 550 
Q 1048 550 , 1065 550 
Q 1082 550 , 1090 550 
Q 1097 549 , 1097 549 
L 1097 546 
L 1115 546 
L 1115 549 
Q 1115 550 , 1102 550 
Q 1090 550 , 1065 550 
Q 1041 550 , 1028 550 
Q 1015 550 , 1015 549 
L 1015 546 
" fill="#D21010" />
<path d="
M 1065 508 
L 1047 527 
L 1081 527 
L 1065 508 
M 1058 500 
L 1072 500 
L 1115 545 
L 1099 545 
L 1087 532 
L 1043 532 
L 1030 545 
L 1015 545 
L 1058 500 
" fill="#339541" />
<path d="
M 1099 482 
L 1099 451 
L 1070 451 
L 1070 438 
L 1115 438 
L 1115 490 
Q 1104 495 , 1093 497 
Q 1084 499 , 1072 499 
Q 1046 499 , 1030 483 
Q 1015 468 , 1015 440 
Q 1015 413 , 1030 397 
Q 1046 381 , 1072 381 
Q 1083 381 , 1092 383 
Q 1102 385 , 1112 391 
L 1112 406 
Q 1099 399 , 1091 397 
Q 1082 395 , 1073 395 
Q 1052 395 , 1041 406 
Q 1031 417 , 1031 440 
Q 1031 463 , 1041 475 
Q 1052 486 , 1073 486 
Q 1082 486 , 1089 485 
Q 1096 484 , 1099 482 
" fill="#F5C000" />
<path d="
M 1170 551 
L 1152 552 
L 1186 552 
L 1170 551 
M 1163 550 
L 1177 550 
L 1220 554 
L 1204 554 
L 1192 553 
L 1148 553 
L 1135 554 
L 1120 554 
L 1163 550 
" fill="#339541" />
<path d="
M 1120 541 
L 1138 541 
L 1138 546 
Q 1138 548 , 1146 548 
Q 1153 549 , 1170 549 
Q 1187 549 , 1195 548 
Q 1202 548 , 1202 546 
L 1202 541 
L 1220 541 
L 1220 546 
Q 1220 548 , 1207 549 
Q 1195 550 , 1170 550 
Q 1146 550 , 1133 549 
Q 1120 548 , 1120 546 
L 1120 541 
" fill="#D21010" />
<path d="
M 1204 538 
L 1204 533 
L 1175 533 
L 1175 531 
L 1220 531 
L 1220 539 
Q 1209 540 , 1198 540 
Q 1189 540 , 1177 540 
Q 1151 540 , 1135 538 
Q 1120 536 , 1120 532 
Q 1120 528 , 1135 525 
Q 1151 523 , 1177 523 
Q 1188 523 , 1197 523 
Q 1207 524 , 1217 524 
L 1217 527 
Q 1204 526 , 1196 525 
Q 1187 525 , 1178 525 
Q 1157 525 , 1146 527 
Q 1136 528 , 1136 532 
Q 1136 535 , 1146 537 
Q 1157 538 , 1178 538 
Q 1187 538 , 1194 538 
Q 1201 538 , 1204 538 
" fill="#F5C000" />
<path d="
M 1220 494 
L 1220 499 
Q 1205 496 , 1197 495 
Q 1189 494 , 1179 494 
Q 1158 494 , 1148 497 
Q 1136 501 , 1136 507 
Q 1136 513 , 1148 516 
Q 1158 519 , 1179 519 
Q 1189 519 , 1197 518 
Q 1205 517 , 1220 514 
L 1220 519 
Q 1209 521 , 1199 521 
Q 1189 522 , 1178 522 
Q 1151 522 , 1136 518 
Q 1120 514 , 1120 507 
Q 1120 499 , 1136 495 
Q 1151 491 , 1178 491 
Q 1189 491 , 1199 492 
Q 1210 493 , 1220 494 
" fill="#545FFF" />
<path d="
M 1225 549 
L 1243 549 
L 1243 552 
Q 1243 553 , 1251 553 
Q 1258 554 , 1275 554 
Q 1292 554 , 1300 553 
Q 1307 553 , 1307 552 
L 1307 549 
L 1325 549 
L 1325 552 
Q 1325 553 , 1312 554 
Q 1300 554 , 1275 554 
Q 1251 554 , 1238 554 
Q 1225 553 , 1225 552 
L 1225 549 
" fill="#D21010" />
<path d="
M 1275 542 
L 1257 545 
L 1291 545 
L 1275 542 
M 1268 540 
L 1282 540 
L 1325 548 
L 1309 548 
L 1297 546 
L 1253 546 
L 1240 548 
L 1225 548 
L 1268 540 
" fill="#339541" />
<path d="
M 1309 536 
L 1309 528 
L 1280 528 
L 1280 524 
L 1325 524 
L 1325 538 
Q 1314 539 , 1303 539 
Q 1294 540 , 1282 540 
Q 1256 540 , 1240 536 
Q 1225 532 , 1225 525 
Q 1225 518 , 1240 514 
Q 1256 510 , 1282 510 
Q 1293 510 , 1302 511 
Q 1312 511 , 1322 512 
L 1322 516 
Q 1309 515 , 1301 514 
Q 1292 514 , 1283 514 
Q 1262 514 , 1251 516 
Q 1241 519 , 1241 525 
Q 1241 531 , 1251 534 
Q 1262 537 , 1283 537 
Q 1292 537 , 1299 536 
Q 1306 536 , 1309 536 
" fill="#F5C000" />
<path d="
M 1325 398 
L 1325 417 
Q 1310 405 , 1302 402 
Q 1294 399 , 1284 399 
Q 1263 399 , 1253 411 
Q 1241 423 , 1241 447 
Q 1241 471 , 1253 484 
Q 1263 496 , 1284 496 
Q 1294 496 , 1302 493 
Q 1310 490 , 1325 477 
L 1325 497 
Q 1314 504 , 1304 507 
Q 1294 510 , 1283 510 
Q 1256 510 , 1241 493 
Q 1225 476 , 1225 447 
Q 1225 419 , 1241 402 
Q 1256 385 , 1283 385 
Q 1294 385 , 1304 388 
Q 1315 391 , 1325 398 
" fill="#545FFF" />
<path d="
M 1330 554 
L 1348 554 
L 1348 554 
Q 1348 554 , 1356 554 
Q 1363 554 , 1380 554 
Q 1397 554 , 1405 554 
Q 1412 554 , 1412 554 
L 1412 554 
L 1430 554 
L 1430 554 
Q 1430 554 , 1417 554 
Q 1405 554 , 1380 554 
Q 1356 554 , 1343 554 
Q 1330 554 , 1330 554 
L 1330 554 
" fill="#D21010" />
<path d="
M 1380 553 
L 1362 553 
L 1396 553 
L 1380 553 
M 1373 553 
L 1387 553 
L 1430 554 
L 1414 554 
L 1402 553 
L 1358 553 
L 1345 554 
L 1330 554 
L 1373 553 
" fill="#339541" />
<path d="
M 1430 552 
L 1430 552 
Q 1415 552 , 1407 552 
Q 1399 552 , 1389 552 
Q 1368 552 , 1358 552 
Q 1346 552 , 1346 552 
Q 1346 552 , 1358 552 
Q 1368 552 , 1389 552 
Q 1399 552 , 1407 552 
Q 1415 552 , 1430 552 
L 1430 552 
Q 1419 553 , 1409 553 
Q 1399 553 , 1388 553 
Q 1361 553 , 1346 552 
Q 1330 552 , 1330 552 
Q 1330 552 , 1346 552 
Q 1361 552 , 1388 552 
Q 1399 552 , 1409 552 
Q 1420 552 , 1430 552 
" fill="#545FFF" />
<path d="
M 1414 552 
L 1414 551 
L 1385 551 
L 1385 551 
L 1430 551 
L 1430 552 
Q 1419 552 , 1408 552 
Q 1399 552 , 1387 552 
Q 1361 552 , 1345 552 
Q 1330 551 , 1330 551 
Q 1330 551 , 1345 551 
Q 1361 551 , 1387 551 
Q 1398 551 , 1407 551 
Q 1417 551 , 1427 551 
L 1427 551 
Q 1414 551 , 1406 551 
Q 1397 551 , 1388 551 
Q 1367 551 , 1356 551 
Q 1346 551 , 1346 551 
Q 1346 551 , 1356 551 
Q 1367 552 , 1388 552 
Q 1397 552 , 1404 552 
Q 1411 552 , 1414 552 
" fill="#F5C000" />
<path d="M 65 168 L 65 555 " stroke="black" stroke-width="1.5"/>
<path d="M 55 555 L 65 555 " stroke="black" stroke-width="4"/>
<text text-anchor="end" x="50" y="555" font-size="50" alignment-baseline="middle">0</text>
<path d="M 55 362 L 65 362 " stroke="black" stroke-width="4"/>
<text text-anchor="end" x="50" y="362" font-size="50" alignment-baseline="middle">1</text>
<path d="M 55 168 L 65 168 " stroke="black" stroke-width="4"/>
<text text-anchor="end" x="50" y="168" font-size="50" alignment-baseline="middle">2</text>
<text text-anchor="middle" x="750" y="50" font-size="50" alignment-baseline="baseline"></text>
G<path d="
M 160 582 
L 126 595 
L 160 608 
L 157 611 
L 123 598 
L 123 623 
L 117 623 
L 117 599 
L 83 611 
L 80 608 
L 114 595 
L 80 582 
L 83 579 
L 117 591 
L 117 567 
L 123 567 
L 123 591 
L 157 579 
L 160 582 
" fill="black" />
<path d="
" fill="black" />
<path d="
M 211 567 
L 238 567 
L 238 623 
L 211 623 
L 211 567 
" fill="black" />
<path d="
" fill="black" />
<path d="
M 370 567 
Q 341 574 , 328 581 
Q 315 588 , 315 595 
Q 315 602 , 328 609 
Q 341 616 , 370 623 
L 346 623 
Q 318 616 , 304 609 
Q 290 602 , 290 595 
Q 290 588 , 304 581 
Q 318 574 , 346 567 
L 370 567 
" fill="black" />
<path d="
" fill="black" />
<path d="
M 421 567 
L 448 567 
L 448 623 
L 421 623 
L 421 567 
" fill="black" />
<path d="
" fill="black" />
<path d="
" fill="black" />
<path d="
M 526 567 
L 553 567 
L 553 623 
L 526 623 
L 526 567 
" fill="black" />
<path d="
" fill="black" />
<path d="
" fill="black" />
<path d="
M 622 567 
L 642 567 
L 642 623 
L 622 623 
L 622 567 
" fill="black" />
<path d="
" fill="black" />
<path d="
M 673 567 
L 690 567 
L 690 571 
L 676 571 
L 676 588 
Q 677 588 , 678 587 
Q 679 587 , 681 587 
Q 686 587 , 689 592 
Q 692 596 , 692 604 
Q 692 613 , 689 618 
Q 686 623 , 680 623 
Q 678 623 , 676 623 
Q 674 622 , 672 621 
L 672 616 
Q 674 618 , 676 618 
Q 678 619 , 680 619 
Q 684 619 , 686 615 
Q 689 611 , 689 604 
Q 689 598 , 687 594 
Q 684 591 , 680 591 
Q 679 591 , 677 591 
Q 676 592 , 673 594 
L 673 567 
" fill="black" />
<path d="
M 790 582 
L 756 595 
L 790 608 
L 787 611 
L 753 598 
L 753 623 
L 747 623 
L 747 599 
L 713 611 
L 710 608 
L 744 595 
L 710 582 
L 713 579 
L 747 591 
L 747 567 
L 753 567 
L 753 591 
L 787 579 
L 790 582 
" fill="black" />
<path d="
" fill="black" />
<path d="
M 841 567 
L 868 567 
L 868 623 
L 841 623 
L 841 567 
" fill="black" />
<path d="
" fill="black" />
<path d="
M 920 567 
L 944 567 
Q 972 574 , 986 581 
Q 1000 588 , 1000 595 
Q 1000 602 , 986 609 
Q 972 616 , 944 623 
L 920 623 
Q 949 616 , 962 609 
Q 975 602 , 975 595 
Q 975 588 , 962 581 
Q 949 574 , 920 567 
" fill="black" />
<path d="
" fill="black" />
<path d="
M 1051 567 
L 1078 567 
L 1078 623 
L 1051 623 
L 1051 567 
" fill="black" />
<path d="
" fill="black" />
<path d="
" fill="black" />
<path d="
M 1156 567 
L 1183 567 
L 1183 623 
L 1156 623 
L 1156 567 
" fill="black" />
<path d="
" fill="black" />
<path d="
" fill="black" />
<path d="
M 1261 567 
L 1288 567 
L 1288 623 
L 1261 623 
L 1261 567 
" fill="black" />
<path d="
" fill="black" />
<path d="
M 1420 582 
L 1386 595 
L 1420 608 
L 1417 611 
L 1383 598 
L 1383 623 
L 1377 623 
L 1377 599 
L 1343 611 
L 1340 608 
L 1374 595 
L 1340 582 
L 1343 579 
L 1377 591 
L 1377 567 
L 1383 567 
L 1383 591 
L 1417 579 
L 1420 582 
" fill="black" />
</svg>
