<svg xmlns="http://www.w3.org/2000/svg"
viewBox="0 0 1435 635">
<path d="
M 70 554 
L 88 554 
L 88 554 
Q 88 554 , 96 554 
Q 103 554 , 120 554 
Q 137 554 , 145 554 
Q 152 554 , 152 554 
L 152 554 
L 170 554 
L 170 554 
Q 170 554 , 157 554 
Q 145 554 , 120 554 
Q 96 554 , 83 554 
Q 70 554 , 70 554 
L 70 554 
" fill="#D21010" />
<path d="
M 120 553 
L 102 553 
L 136 553 
L 120 553 
M 113 553 
L 127 553 
L 170 554 
L 154 554 
L 142 553 
L 98 553 
L 85 554 
L 70 554 
L 113 553 
" fill="#339541" />
<path d="
M 170 552 
L 170 552 
Q 155 552 , 147 552 
Q 139 552 , 129 552 
Q 108 552 , 98 552 
Q 86 552 , 86 552 
Q 86 552 , 98 552 
Q 108 553 , 129 553 
Q 139 553 , 147 553 
Q 155 552 , 170 552 
L 170 553 
Q 159 553 , 149 553 
Q 139 553 , 128 553 
Q 101 553 , 86 553 
Q 70 552 , 70 552 
Q 70 552 , 86 552 
Q 101 552 , 128 552 
Q 139 552 , 149 552 
Q 160 552 , 170 552 
" fill="#545FFF" />
<path d="
M 154 552 
L 154 551 
L 125 551 
L 125 551 
L 170 551 
L 170 552 
Q 159 552 , 148 552 
Q 139 552 , 127 552 
Q 101 552 , 85 552 
Q 70 552 , 70 551 
Q 70 551 , 85 551 
Q 101 551 , 127 551 
Q 138 551 , 147 551 
Q 157 551 , 167 551 
L 167 551 
Q 154 551 , 146 551 
Q 137 551 , 128 551 
Q 107 551 , 96 551 
Q 86 551 , 86 551 
Q 86 551 , 96 552 
Q 107 552 , 128 552 
Q 137 552 , 144 552 
Q 151 552 , 154 552 
" fill="#F5C000" />
<path d="
M 259 554 
L 259 553 
L 230 553 
L 230 553 
L 275 553 
L 275 554 
Q 264 554 , 253 554 
Q 244 554 , 232 554 
Q 206 554 , 190 554 
Q 175 554 , 175 553 
Q 175 553 , 190 552 
Q 206 552 , 232 552 
Q 243 552 , 252 552 
Q 262 552 , 272 552 
L 272 553 
Q 259 552 , 251 552 
Q 242 552 , 233 552 
Q 212 552 , 201 553 
Q 191 553 , 191 553 
Q 191 554 , 201 554 
Q 212 554 , 233 554 
Q 242 554 , 249 554 
Q 256 554 , 259 554 
" fill="#F5C000" />
<path d="
M 275 542 
L 275 544 
Q 260 543 , 252 542 
Q 244 542 , 234 542 
Q 213 542 , 203 543 
Q 191 544 , 191 546 
Q 191 548 , 203 549 
Q 213 550 , 234 550 
Q 244 550 , 252 550 
Q 260 549 , 275 548 
L 275 550 
Q 264 551 , 254 551 
Q 244 551 , 233 551 
Q 206 551 , 191 550 
Q 175 548 , 175 546 
Q 175 544 , 191 542 
Q 206 541 , 233 541 
Q 244 541 , 254 541 
Q 265 541 , 275 542 
" fill="#545FFF" />
<path d="
M 225 532 
L 207 536 
L 241 536 
L 225 532 
M 218 530 
L 232 530 
L 275 541 
L 259 541 
L 247 537 
L 203 537 
L 190 541 
L 175 541 
L 218 530 
" fill="#339541" />
<path d="
M 175 515 
L 193 515 
L 193 524 
Q 193 526 , 201 527 
Q 208 528 , 225 528 
Q 242 528 , 250 527 
Q 257 526 , 257 524 
L 257 515 
L 275 515 
L 275 524 
Q 275 527 , 262 528 
Q 250 530 , 225 530 
Q 201 530 , 188 528 
Q 175 527 , 175 524 
L 175 515 
" fill="#D21010" />
<path d="
M 280 554 
L 289 554 
L 289 554 
Q 289 554 , 293 555 
Q 296 555 , 305 555 
Q 314 555 , 317 555 
Q 321 554 , 321 554 
L 321 554 
L 330 554 
L 330 554 
Q 330 555 , 324 555 
Q 317 555 , 305 555 
Q 293 555 , 286 555 
Q 280 555 , 280 554 
L 280 554 
" fill="#D21010" />
<path d="
M 372 555 
L 372 554 
L 358 554 
L 358 554 
L 380 554 
L 380 555 
Q 375 555 , 369 555 
Q 364 555 , 358 555 
Q 345 555 , 338 555 
Q 330 554 , 330 554 
Q 330 554 , 338 554 
Q 345 554 , 358 554 
Q 364 554 , 369 554 
Q 374 554 , 379 554 
L 379 554 
Q 372 554 , 368 554 
Q 364 554 , 359 554 
Q 349 554 , 343 554 
Q 338 554 , 338 554 
Q 338 554 , 343 555 
Q 349 555 , 359 555 
Q 364 555 , 367 555 
Q 371 555 , 372 555 
" fill="lightgray" />
<path d="
M 322 554 
L 322 553 
L 308 553 
L 308 553 
L 330 553 
L 330 554 
Q 325 554 , 319 554 
Q 314 554 , 308 554 
Q 295 554 , 288 554 
Q 280 554 , 280 553 
Q 280 553 , 288 553 
Q 295 553 , 308 553 
Q 314 553 , 319 553 
Q 324 553 , 329 553 
L 329 553 
Q 322 553 , 318 553 
Q 314 553 , 309 553 
Q 299 553 , 293 553 
Q 288 553 , 288 553 
Q 288 554 , 293 554 
Q 299 554 , 309 554 
Q 314 554 , 317 554 
Q 321 554 , 322 554 
" fill="#F5C000" />
<path d="
M 330 553 
L 339 553 
L 339 553 
Q 339 554 , 343 554 
Q 346 554 , 355 554 
Q 364 554 , 367 554 
Q 371 554 , 371 553 
L 371 553 
L 380 553 
L 380 553 
Q 380 554 , 374 554 
Q 367 554 , 355 554 
Q 343 554 , 336 554 
Q 330 554 , 330 553 
L 330 553 
" fill="lightgray" />
<path d="
M 305 550 
L 296 551 
L 313 551 
L 305 550 
M 301 549 
L 309 549 
L 330 553 
L 322 553 
L 316 552 
L 294 552 
L 287 553 
L 280 553 
L 301 549 
" fill="#339541" />
<path d="
M 330 549 
L 339 549 
L 339 551 
Q 339 552 , 343 552 
Q 346 552 , 355 552 
Q 364 552 , 367 552 
Q 371 552 , 371 551 
L 371 549 
L 380 549 
L 380 551 
Q 380 552 , 374 552 
Q 367 553 , 355 553 
Q 343 553 , 336 552 
Q 330 552 , 330 551 
L 330 549 
" fill="lightgray" />
<path d="
M 280 524 
L 289 524 
L 289 538 
Q 289 542 , 293 544 
Q 296 545 , 305 545 
Q 314 545 , 317 544 
Q 321 542 , 321 538 
L 321 524 
L 330 524 
L 330 539 
Q 330 543 , 324 546 
Q 317 548 , 305 548 
Q 293 548 , 286 546 
Q 280 543 , 280 539 
L 280 524 
" fill="#D21010" />
<path d="
M 355 528 
L 346 538 
L 363 538 
L 355 528 
M 351 524 
L 359 524 
L 380 548 
L 372 548 
L 366 541 
L 344 541 
L 337 548 
L 330 548 
L 351 524 
" fill="lightgray" />
<path d="
M 322 513 
L 322 492 
L 308 492 
L 308 484 
L 330 484 
L 330 518 
Q 325 521 , 319 523 
Q 314 524 , 308 524 
Q 295 524 , 288 514 
Q 280 503 , 280 486 
Q 280 468 , 288 457 
Q 295 447 , 308 447 
Q 314 447 , 319 448 
Q 324 450 , 329 453 
L 329 463 
Q 322 459 , 318 457 
Q 314 456 , 309 456 
Q 299 456 , 293 463 
Q 288 471 , 288 486 
Q 288 501 , 293 508 
Q 299 515 , 309 515 
Q 314 515 , 317 515 
Q 321 514 , 322 513 
" fill="#F5C000" />
<path d="
M 380 455 
L 380 467 
Q 373 459 , 369 458 
Q 364 456 , 359 456 
Q 349 456 , 344 463 
Q 338 471 , 338 485 
Q 338 500 , 344 508 
Q 349 516 , 359 516 
Q 364 516 , 369 514 
Q 373 512 , 380 504 
L 380 516 
Q 375 520 , 369 522 
Q 365 524 , 359 524 
Q 345 524 , 338 514 
Q 330 503 , 330 486 
Q 330 468 , 338 458 
Q 345 447 , 359 447 
Q 365 447 , 370 449 
Q 375 451 , 380 455 
" fill="lightgray" />
<path d="
M 330 372 
L 330 385 
Q 323 377 , 319 374 
Q 314 372 , 309 372 
Q 299 372 , 294 380 
Q 288 389 , 288 405 
Q 288 421 , 294 429 
Q 299 438 , 309 438 
Q 314 438 , 319 436 
Q 323 433 , 330 425 
L 330 438 
Q 325 443 , 319 445 
Q 315 447 , 309 447 
Q 295 447 , 288 435 
Q 280 424 , 280 405 
Q 280 386 , 288 374 
Q 295 363 , 309 363 
Q 315 363 , 320 365 
Q 325 367 , 330 372 
" fill="#545FFF" />
<path d="
M 372 435 
L 372 412 
L 358 412 
L 358 403 
L 380 403 
L 380 440 
Q 375 444 , 369 445 
Q 364 447 , 358 447 
Q 345 447 , 338 435 
Q 330 424 , 330 405 
Q 330 385 , 338 374 
Q 345 363 , 358 363 
Q 364 363 , 369 364 
Q 374 366 , 379 370 
L 379 380 
Q 372 376 , 368 374 
Q 364 373 , 359 373 
Q 349 373 , 343 381 
Q 338 389 , 338 405 
Q 338 421 , 343 429 
Q 349 437 , 359 437 
Q 364 437 , 367 437 
Q 371 436 , 372 435 
" fill="lightgray" />
<path d="
M 427 554 
L 427 554 
L 413 554 
L 413 553 
L 435 553 
L 435 554 
Q 430 555 , 424 555 
Q 419 555 , 413 555 
Q 400 555 , 393 554 
Q 385 554 , 385 553 
Q 385 553 , 393 552 
Q 400 552 , 413 552 
Q 419 552 , 424 552 
Q 429 552 , 434 552 
L 434 553 
Q 427 552 , 423 552 
Q 419 552 , 414 552 
Q 404 552 , 398 553 
Q 393 553 , 393 553 
Q 393 554 , 398 554 
Q 404 554 , 414 554 
Q 419 554 , 422 554 
Q 426 554 , 427 554 
" fill="#F5C000" />
<path d="
M 435 552 
L 444 552 
L 444 554 
Q 444 554 , 448 554 
Q 451 554 , 460 554 
Q 469 554 , 472 554 
Q 476 554 , 476 554 
L 476 552 
L 485 552 
L 485 554 
Q 485 554 , 479 554 
Q 472 555 , 460 555 
Q 448 555 , 441 554 
Q 435 554 , 435 554 
L 435 552 
" fill="lightgray" />
<path d="
M 385 548 
L 394 548 
L 394 550 
Q 394 551 , 398 551 
Q 401 551 , 410 551 
Q 419 551 , 422 551 
Q 426 551 , 426 550 
L 426 548 
L 435 548 
L 435 550 
Q 435 551 , 429 551 
Q 422 551 , 410 551 
Q 398 551 , 391 551 
Q 385 551 , 385 550 
L 385 548 
" fill="#D21010" />
<path d="
M 460 549 
L 451 550 
L 468 550 
L 460 549 
M 456 548 
L 464 548 
L 485 551 
L 477 551 
L 471 550 
L 449 550 
L 442 551 
L 435 551 
L 456 548 
" fill="lightgray" />
<path d="
M 385 541 
L 394 541 
L 394 545 
Q 394 546 , 398 546 
Q 401 547 , 410 547 
Q 419 547 , 422 546 
Q 426 546 , 426 545 
L 426 541 
L 435 541 
L 435 545 
Q 435 546 , 429 547 
Q 422 548 , 410 548 
Q 398 548 , 391 547 
Q 385 546 , 385 545 
L 385 541 
" fill="#D21010" />
<path d="
M 477 547 
L 477 545 
L 463 545 
L 463 544 
L 485 544 
L 485 547 
Q 480 547 , 474 547 
Q 469 548 , 463 548 
Q 450 548 , 443 547 
Q 435 546 , 435 544 
Q 435 543 , 443 542 
Q 450 541 , 463 541 
Q 469 541 , 474 541 
Q 479 541 , 484 542 
L 484 542 
Q 477 542 , 473 542 
Q 469 542 , 464 542 
Q 454 542 , 448 542 
Q 443 543 , 443 544 
Q 443 546 , 448 546 
Q 454 547 , 464 547 
Q 469 547 , 472 547 
Q 476 547 , 477 547 
" fill="lightgray" />
<path d="
M 427 538 
L 427 533 
L 413 533 
L 413 531 
L 435 531 
L 435 539 
Q 430 540 , 424 540 
Q 419 540 , 413 540 
Q 400 540 , 393 538 
Q 385 536 , 385 532 
Q 385 528 , 393 525 
Q 400 523 , 413 523 
Q 419 523 , 424 523 
Q 429 524 , 434 524 
L 434 527 
Q 427 526 , 423 525 
Q 419 525 , 414 525 
Q 404 525 , 398 527 
Q 393 528 , 393 532 
Q 393 535 , 398 537 
Q 404 538 , 414 538 
Q 419 538 , 422 538 
Q 426 538 , 427 538 
" fill="#F5C000" />
<path d="
M 485 525 
L 485 528 
Q 478 526 , 474 525 
Q 469 525 , 464 525 
Q 454 525 , 449 527 
Q 443 528 , 443 531 
Q 443 535 , 449 537 
Q 454 539 , 464 539 
Q 469 539 , 474 538 
Q 478 538 , 485 536 
L 485 539 
Q 480 540 , 474 540 
Q 470 540 , 464 540 
Q 450 540 , 443 538 
Q 435 536 , 435 532 
Q 435 528 , 443 525 
Q 450 523 , 464 523 
Q 470 523 , 475 523 
Q 480 524 , 485 525 
" fill="lightgray" />
<path d="
M 435 502 
L 435 506 
Q 428 504 , 424 503 
Q 419 502 , 414 502 
Q 404 502 , 399 505 
Q 393 507 , 393 511 
Q 393 516 , 399 518 
Q 404 520 , 414 520 
Q 419 520 , 424 519 
Q 428 519 , 435 517 
L 435 520 
Q 430 521 , 424 522 
Q 420 522 , 414 522 
Q 400 522 , 393 519 
Q 385 516 , 385 511 
Q 385 506 , 393 503 
Q 400 500 , 414 500 
Q 420 500 , 425 501 
Q 430 501 , 435 502 
" fill="#545FFF" />
<path d="
M 477 519 
L 477 513 
L 463 513 
L 463 511 
L 485 511 
L 485 521 
Q 480 522 , 474 522 
Q 469 522 , 463 522 
Q 450 522 , 443 519 
Q 435 516 , 435 511 
Q 435 506 , 443 503 
Q 450 500 , 463 500 
Q 469 500 , 474 500 
Q 479 501 , 484 502 
L 484 505 
Q 477 503 , 473 503 
Q 469 503 , 464 503 
Q 454 503 , 448 505 
Q 443 507 , 443 511 
Q 443 516 , 448 518 
Q 454 520 , 464 520 
Q 469 520 , 472 520 
Q 476 519 , 477 519 
" fill="lightgray" />
<path d="
M 410 477 
L 401 488 
L 418 488 
L 410 477 
M 406 472 
L 414 472 
L 435 500 
L 427 500 
L 421 492 
L 399 492 
L 392 500 
L 385 500 
L 406 472 
" fill="#339541" />
<path d="
M 435 472 
L 444 472 
L 444 488 
Q 444 493 , 448 495 
Q 451 497 , 460 497 
Q 469 497 , 472 495 
Q 476 493 , 476 488 
L 476 472 
L 485 472 
L 485 489 
Q 485 494 , 479 497 
Q 472 500 , 460 500 
Q 448 500 , 441 497 
Q 435 494 , 435 489 
L 435 472 
" fill="lightgray" />
<path d="
M 540 553 
L 522 554 
L 556 554 
L 540 553 
M 533 553 
L 547 553 
L 590 554 
L 574 554 
L 562 554 
L 518 554 
L 505 554 
L 490 554 
L 533 553 
" fill="#339541" />
<path d="
M 490 537 
L 508 537 
L 508 546 
Q 508 549 , 516 550 
Q 523 551 , 540 551 
Q 557 551 , 565 550 
Q 572 549 , 572 546 
L 572 537 
L 590 537 
L 590 546 
Q 590 549 , 577 551 
Q 565 552 , 540 552 
Q 516 552 , 503 551 
Q 490 549 , 490 546 
L 490 537 
" fill="#D21010" />
<path d="
M 590 513 
L 590 517 
Q 575 514 , 567 514 
Q 559 513 , 549 513 
Q 528 513 , 518 516 
Q 506 518 , 506 523 
Q 506 529 , 518 531 
Q 528 534 , 549 534 
Q 559 534 , 567 533 
Q 575 533 , 590 530 
L 590 534 
Q 579 536 , 569 536 
Q 559 537 , 548 537 
Q 521 537 , 506 533 
Q 490 530 , 490 523 
Q 490 517 , 506 514 
Q 521 510 , 548 510 
Q 559 510 , 569 511 
Q 580 511 , 590 513 
" fill="#545FFF" />
<path d="
M 574 503 
L 574 490 
L 545 490 
L 545 485 
L 590 485 
L 590 506 
Q 579 508 , 568 509 
Q 559 509 , 547 509 
Q 521 509 , 505 503 
Q 490 497 , 490 486 
Q 490 475 , 505 469 
Q 521 463 , 547 463 
Q 558 463 , 567 464 
Q 577 465 , 587 467 
L 587 473 
Q 574 470 , 566 469 
Q 557 469 , 548 469 
Q 527 469 , 516 473 
Q 506 477 , 506 486 
Q 506 495 , 516 500 
Q 527 504 , 548 504 
Q 557 504 , 564 504 
Q 571 503 , 574 503 
" fill="#F5C000" />
<path d="
M 679 554 
L 679 553 
L 650 553 
L 650 553 
L 695 553 
L 695 554 
Q 684 554 , 673 554 
Q 664 554 , 652 554 
Q 626 554 , 610 554 
Q 595 554 , 595 553 
Q 595 553 , 610 552 
Q 626 552 , 652 552 
Q 663 552 , 672 552 
Q 682 552 , 692 552 
L 692 552 
Q 679 552 , 671 552 
Q 662 552 , 653 552 
Q 632 552 , 621 552 
Q 611 553 , 611 553 
Q 611 554 , 621 554 
Q 632 554 , 653 554 
Q 662 554 , 669 554 
Q 676 554 , 679 554 
" fill="#F5C000" />
<path d="
M 595 545 
L 613 545 
L 613 549 
Q 613 550 , 621 550 
Q 628 551 , 645 551 
Q 662 551 , 670 550 
Q 677 550 , 677 549 
L 677 545 
L 695 545 
L 695 549 
Q 695 550 , 682 551 
Q 670 551 , 645 551 
Q 621 551 , 608 551 
Q 595 550 , 595 549 
L 595 545 
" fill="#D21010" />
<path d="
M 695 539 
L 695 540 
Q 680 539 , 672 539 
Q 664 539 , 654 539 
Q 633 539 , 623 539 
Q 611 540 , 611 541 
Q 611 543 , 623 543 
Q 633 544 , 654 544 
Q 664 544 , 672 544 
Q 680 544 , 695 543 
L 695 544 
Q 684 545 , 674 545 
Q 664 545 , 653 545 
Q 626 545 , 611 544 
Q 595 543 , 595 541 
Q 595 540 , 611 539 
Q 626 538 , 653 538 
Q 664 538 , 674 538 
Q 685 538 , 695 539 
" fill="#545FFF" />
<path d="
M 645 531 
L 627 534 
L 661 534 
L 645 531 
M 638 529 
L 652 529 
L 695 537 
L 679 537 
L 667 535 
L 623 535 
L 610 537 
L 595 537 
L 638 529 
" fill="#339541" />
<path d="
M 700 554 
L 718 554 
L 718 554 
Q 718 554 , 726 554 
Q 733 554 , 750 554 
Q 767 554 , 775 554 
Q 782 554 , 782 554 
L 782 554 
L 800 554 
L 800 554 
Q 800 554 , 787 554 
Q 775 554 , 750 554 
Q 726 554 , 713 554 
Q 700 554 , 700 554 
L 700 554 
" fill="#D21010" />
<path d="
M 750 553 
L 732 553 
L 766 553 
L 750 553 
M 743 553 
L 757 553 
L 800 554 
L 784 554 
L 772 553 
L 728 553 
L 715 554 
L 700 554 
L 743 553 
" fill="#339541" />
<path d="
M 800 552 
L 800 552 
Q 785 552 , 777 552 
Q 769 552 , 759 552 
Q 738 552 , 728 552 
Q 716 552 , 716 552 
Q 716 552 , 728 552 
Q 738 553 , 759 553 
Q 769 553 , 777 553 
Q 785 552 , 800 552 
L 800 553 
Q 789 553 , 779 553 
Q 769 553 , 758 553 
Q 731 553 , 716 553 
Q 700 552 , 700 552 
Q 700 552 , 716 552 
Q 731 552 , 758 552 
Q 769 552 , 779 552 
Q 790 552 , 800 552 
" fill="#545FFF" />
<path d="
M 784 552 
L 784 551 
L 755 551 
L 755 551 
L 800 551 
L 800 552 
Q 789 552 , 778 552 
Q 769 552 , 757 552 
Q 731 552 , 715 552 
Q 700 552 , 700 551 
Q 700 551 , 715 551 
Q 731 551 , 757 551 
Q 768 551 , 777 551 
Q 787 551 , 797 551 
L 797 551 
Q 784 551 , 776 551 
Q 767 551 , 758 551 
Q 737 551 , 726 551 
Q 716 551 , 716 551 
Q 716 551 , 726 552 
Q 737 552 , 758 552 
Q 767 552 , 774 552 
Q 781 552 , 784 552 
" fill="#F5C000" />
<path d="
M 805 553 
L 823 553 
L 823 554 
Q 823 554 , 831 555 
Q 838 555 , 855 555 
Q 872 555 , 880 555 
Q 887 554 , 887 554 
L 887 553 
L 905 553 
L 905 554 
Q 905 554 , 892 555 
Q 880 555 , 855 555 
Q 831 555 , 818 555 
Q 805 554 , 805 554 
L 805 553 
" fill="#D21010" />
<path d="
M 855 549 
L 837 551 
L 871 551 
L 855 549 
M 848 548 
L 862 548 
L 905 553 
L 889 553 
L 877 551 
L 833 551 
L 820 553 
L 805 553 
L 848 548 
" fill="#339541" />
<path d="
M 889 539 
L 889 524 
L 860 524 
L 860 517 
L 905 517 
L 905 543 
Q 894 545 , 883 546 
Q 874 547 , 862 547 
Q 836 547 , 820 540 
Q 805 532 , 805 519 
Q 805 505 , 820 498 
Q 836 490 , 862 490 
Q 873 490 , 882 491 
Q 892 492 , 902 495 
L 902 502 
Q 889 499 , 881 498 
Q 872 497 , 863 497 
Q 842 497 , 831 502 
Q 821 508 , 821 519 
Q 821 530 , 831 535 
Q 842 541 , 863 541 
Q 872 541 , 879 540 
Q 886 540 , 889 539 
" fill="#F5C000" />
<path d="
M 905 411 
L 905 425 
Q 890 416 , 882 414 
Q 874 412 , 864 412 
Q 843 412 , 833 420 
Q 821 429 , 821 446 
Q 821 463 , 833 472 
Q 843 480 , 864 480 
Q 874 480 , 882 478 
Q 890 476 , 905 467 
L 905 481 
Q 894 486 , 884 488 
Q 874 490 , 863 490 
Q 836 490 , 821 478 
Q 805 466 , 805 446 
Q 805 426 , 821 414 
Q 836 402 , 863 402 
Q 874 402 , 884 404 
Q 895 406 , 905 411 
" fill="#545FFF" />
<path d="
M 952 554 
L 952 554 
L 938 554 
L 938 553 
L 960 553 
L 960 554 
Q 955 555 , 949 555 
Q 944 555 , 938 555 
Q 925 555 , 918 554 
Q 910 554 , 910 553 
Q 910 553 , 918 552 
Q 925 552 , 938 552 
Q 944 552 , 949 552 
Q 954 552 , 959 552 
L 959 553 
Q 952 552 , 948 552 
Q 944 552 , 939 552 
Q 929 552 , 923 553 
Q 918 553 , 918 553 
Q 918 554 , 923 554 
Q 929 554 , 939 554 
Q 944 554 , 947 554 
Q 951 554 , 952 554 
" fill="lightgray" />
<path d="
M 960 552 
L 969 552 
L 969 554 
Q 969 554 , 973 554 
Q 976 554 , 985 554 
Q 994 554 , 997 554 
Q 1001 554 , 1001 554 
L 1001 552 
L 1010 552 
L 1010 554 
Q 1010 554 , 1004 554 
Q 997 555 , 985 555 
Q 973 555 , 966 554 
Q 960 554 , 960 554 
L 960 552 
" fill="#D21010" />
<path d="
M 910 548 
L 919 548 
L 919 550 
Q 919 551 , 923 551 
Q 926 551 , 935 551 
Q 944 551 , 947 551 
Q 951 551 , 951 550 
L 951 548 
L 960 548 
L 960 550 
Q 960 551 , 954 551 
Q 947 551 , 935 551 
Q 923 551 , 916 551 
Q 910 551 , 910 550 
L 910 548 
" fill="lightgray" />
<path d="
M 985 549 
L 976 550 
L 993 550 
L 985 549 
M 981 548 
L 989 548 
L 1010 551 
L 1002 551 
L 996 550 
L 974 550 
L 967 551 
L 960 551 
L 981 548 
" fill="#339541" />
<path d="
M 910 541 
L 919 541 
L 919 545 
Q 919 546 , 923 546 
Q 926 547 , 935 547 
Q 944 547 , 947 546 
Q 951 546 , 951 545 
L 951 541 
L 960 541 
L 960 545 
Q 960 546 , 954 547 
Q 947 548 , 935 548 
Q 923 548 , 916 547 
Q 910 546 , 910 545 
L 910 541 
" fill="lightgray" />
<path d="
M 1002 547 
L 1002 545 
L 988 545 
L 988 544 
L 1010 544 
L 1010 547 
Q 1005 547 , 999 547 
Q 994 548 , 988 548 
Q 975 548 , 968 547 
Q 960 546 , 960 544 
Q 960 543 , 968 542 
Q 975 541 , 988 541 
Q 994 541 , 999 541 
Q 1004 541 , 1009 542 
L 1009 542 
Q 1002 542 , 998 542 
Q 994 542 , 989 542 
Q 979 542 , 973 542 
Q 968 543 , 968 544 
Q 968 546 , 973 546 
Q 979 547 , 989 547 
Q 994 547 , 997 547 
Q 1001 547 , 1002 547 
" fill="#F5C000" />
<path d="
M 952 538 
L 952 533 
L 938 533 
L 938 531 
L 960 531 
L 960 539 
Q 955 540 , 949 540 
Q 944 540 , 938 540 
Q 925 540 , 918 538 
Q 910 536 , 910 532 
Q 910 528 , 918 525 
Q 925 523 , 938 523 
Q 944 523 , 949 523 
Q 954 524 , 959 524 
L 959 527 
Q 952 526 , 948 525 
Q 944 525 , 939 525 
Q 929 525 , 923 527 
Q 918 528 , 918 532 
Q 918 535 , 923 537 
Q 929 538 , 939 538 
Q 944 538 , 947 538 
Q 951 538 , 952 538 
" fill="lightgray" />
<path d="
M 1010 525 
L 1010 528 
Q 1003 526 , 999 525 
Q 994 525 , 989 525 
Q 979 525 , 974 527 
Q 968 528 , 968 531 
Q 968 535 , 974 537 
Q 979 539 , 989 539 
Q 994 539 , 999 538 
Q 1003 538 , 1010 536 
L 1010 539 
Q 1005 540 , 999 540 
Q 995 540 , 989 540 
Q 975 540 , 968 538 
Q 960 536 , 960 532 
Q 960 528 , 968 525 
Q 975 523 , 989 523 
Q 995 523 , 1000 523 
Q 1005 524 , 1010 525 
" fill="#545FFF" />
<path d="
M 960 502 
L 960 506 
Q 953 504 , 949 503 
Q 944 502 , 939 502 
Q 929 502 , 924 505 
Q 918 507 , 918 511 
Q 918 516 , 924 518 
Q 929 520 , 939 520 
Q 944 520 , 949 519 
Q 953 519 , 960 517 
L 960 520 
Q 955 521 , 949 522 
Q 945 522 , 939 522 
Q 925 522 , 918 519 
Q 910 516 , 910 511 
Q 910 506 , 918 503 
Q 925 500 , 939 500 
Q 945 500 , 950 501 
Q 955 501 , 960 502 
" fill="lightgray" />
<path d="
M 1002 519 
L 1002 513 
L 988 513 
L 988 511 
L 1010 511 
L 1010 521 
Q 1005 522 , 999 522 
Q 994 522 , 988 522 
Q 975 522 , 968 519 
Q 960 516 , 960 511 
Q 960 506 , 968 503 
Q 975 500 , 988 500 
Q 994 500 , 999 500 
Q 1004 501 , 1009 502 
L 1009 505 
Q 1002 503 , 998 503 
Q 994 503 , 989 503 
Q 979 503 , 973 505 
Q 968 507 , 968 511 
Q 968 516 , 973 518 
Q 979 520 , 989 520 
Q 994 520 , 997 520 
Q 1001 519 , 1002 519 
" fill="#F5C000" />
<path d="
M 935 477 
L 926 488 
L 943 488 
L 935 477 
M 931 472 
L 939 472 
L 960 500 
L 952 500 
L 946 492 
L 924 492 
L 917 500 
L 910 500 
L 931 472 
" fill="lightgray" />
<path d="
M 960 472 
L 969 472 
L 969 488 
Q 969 493 , 973 495 
Q 976 497 , 985 497 
Q 994 497 , 997 495 
Q 1001 493 , 1001 488 
L 1001 472 
L 1010 472 
L 1010 489 
Q 1010 494 , 1004 497 
Q 997 500 , 985 500 
Q 973 500 , 966 497 
Q 960 494 , 960 489 
L 960 472 
" fill="#D21010" />
<path d="
M 1015 553 
L 1033 553 
L 1033 554 
Q 1033 554 , 1041 554 
Q 1048 554 , 1065 554 
Q 1082 554 , 1090 554 
Q 1097 554 , 1097 554 
L 1097 553 
L 1115 553 
L 1115 554 
Q 1115 554 , 1102 554 
Q 1090 554 , 1065 554 
Q 1041 554 , 1028 554 
Q 1015 554 , 1015 554 
L 1015 553 
" fill="#D21010" />
<path d="
M 1115 537 
L 1115 540 
Q 1100 538 , 1092 537 
Q 1084 537 , 1074 537 
Q 1053 537 , 1043 539 
Q 1031 540 , 1031 543 
Q 1031 547 , 1043 549 
Q 1053 551 , 1074 551 
Q 1084 551 , 1092 550 
Q 1100 550 , 1115 548 
L 1115 551 
Q 1104 552 , 1094 552 
Q 1084 552 , 1073 552 
Q 1046 552 , 1031 550 
Q 1015 548 , 1015 544 
Q 1015 540 , 1031 537 
Q 1046 535 , 1073 535 
Q 1084 535 , 1094 535 
Q 1105 536 , 1115 537 
" fill="#545FFF" />
<path d="
M 1065 513 
L 1047 524 
L 1081 524 
L 1065 513 
M 1058 508 
L 1072 508 
L 1115 535 
L 1099 535 
L 1087 527 
L 1043 527 
L 1030 535 
L 1015 535 
L 1058 508 
" fill="#339541" />
<path d="
M 1099 495 
L 1099 471 
L 1070 471 
L 1070 462 
L 1115 462 
L 1115 501 
Q 1104 504 , 1093 506 
Q 1084 507 , 1072 507 
Q 1046 507 , 1030 496 
Q 1015 484 , 1015 464 
Q 1015 443 , 1030 432 
Q 1046 420 , 1072 420 
Q 1083 420 , 1092 422 
Q 1102 423 , 1112 427 
L 1112 438 
Q 1099 433 , 1091 432 
Q 1082 430 , 1073 430 
Q 1052 430 , 1041 439 
Q 1031 447 , 1031 464 
Q 1031 481 , 1041 489 
Q 1052 498 , 1073 498 
Q 1082 498 , 1089 497 
Q 1096 496 , 1099 495 
" fill="#F5C000" />
<path d="
M 1204 553 
L 1204 552 
L 1175 552 
L 1175 551 
L 1220 551 
L 1220 554 
Q 1209 554 , 1198 554 
Q 1189 554 , 1177 554 
Q 1151 554 , 1135 553 
Q 1120 553 , 1120 552 
Q 1120 550 , 1135 550 
Q 1151 549 , 1177 549 
Q 1188 549 , 1197 549 
Q 1207 549 , 1217 549 
L 1217 550 
Q 1204 550 , 1196 550 
Q 1187 550 , 1178 550 
Q 1157 550 , 1146 550 
Q 1136 551 , 1136 552 
Q 1136 552 , 1146 553 
Q 1157 553 , 1178 553 
Q 1187 553 , 1194 553 
Q 1201 553 , 1204 553 
" fill="#F5C000" />
<path d="
M 1120 538 
L 1138 538 
L 1138 544 
Q 1138 546 , 1146 547 
Q 1153 547 , 1170 547 
Q 1187 547 , 1195 547 
Q 1202 546 , 1202 544 
L 1202 538 
L 1220 538 
L 1220 544 
Q 1220 546 , 1207 548 
Q 1195 549 , 1170 549 
Q 1146 549 , 1133 548 
Q 1120 546 , 1120 544 
L 1120 538 
" fill="#D21010" />
<path d="
M 1170 527 
L 1152 532 
L 1186 532 
L 1170 527 
M 1163 524 
L 1177 524 
L 1220 538 
L 1204 538 
L 1192 534 
L 1148 534 
L 1135 538 
L 1120 538 
L 1163 524 
" fill="#339541" />
<path d="
M 1220 492 
L 1220 497 
Q 1205 494 , 1197 493 
Q 1189 492 , 1179 492 
Q 1158 492 , 1148 495 
Q 1136 499 , 1136 506 
Q 1136 513 , 1148 516 
Q 1158 520 , 1179 520 
Q 1189 520 , 1197 519 
Q 1205 518 , 1220 514 
L 1220 520 
Q 1209 522 , 1199 523 
Q 1189 523 , 1178 523 
Q 1151 523 , 1136 519 
Q 1120 514 , 1120 506 
Q 1120 498 , 1136 493 
Q 1151 488 , 1178 488 
Q 1189 488 , 1199 489 
Q 1210 490 , 1220 492 
" fill="#545FFF" />
<path d="
M 1225 554 
L 1234 554 
L 1234 554 
Q 1234 554 , 1238 555 
Q 1241 555 , 1250 555 
Q 1259 555 , 1262 555 
Q 1266 554 , 1266 554 
L 1266 554 
L 1275 554 
L 1275 554 
Q 1275 555 , 1269 555 
Q 1262 555 , 1250 555 
Q 1238 555 , 1231 555 
Q 1225 555 , 1225 554 
L 1225 554 
" fill="lightgray" />
<path d="
M 1317 555 
L 1317 554 
L 1303 554 
L 1303 554 
L 1325 554 
L 1325 555 
Q 1320 555 , 1314 555 
Q 1309 555 , 1303 555 
Q 1290 555 , 1283 555 
Q 1275 554 , 1275 554 
Q 1275 554 , 1283 554 
Q 1290 554 , 1303 554 
Q 1309 554 , 1314 554 
Q 1319 554 , 1324 554 
L 1324 554 
Q 1317 554 , 1313 554 
Q 1309 554 , 1304 554 
Q 1294 554 , 1288 554 
Q 1283 554 , 1283 554 
Q 1283 554 , 1288 555 
Q 1294 555 , 1304 555 
Q 1309 555 , 1312 555 
Q 1316 555 , 1317 555 
" fill="#F5C000" />
<path d="
M 1267 554 
L 1267 553 
L 1253 553 
L 1253 553 
L 1275 553 
L 1275 554 
Q 1270 554 , 1264 554 
Q 1259 554 , 1253 554 
Q 1240 554 , 1233 554 
Q 1225 554 , 1225 553 
Q 1225 553 , 1233 553 
Q 1240 553 , 1253 553 
Q 1259 553 , 1264 553 
Q 1269 553 , 1274 553 
L 1274 553 
Q 1267 553 , 1263 553 
Q 1259 553 , 1254 553 
Q 1244 553 , 1238 553 
Q 1233 553 , 1233 553 
Q 1233 554 , 1238 554 
Q 1244 554 , 1254 554 
Q 1259 554 , 1262 554 
Q 1266 554 , 1267 554 
" fill="lightgray" />
<path d="
M 1275 553 
L 1284 553 
L 1284 553 
Q 1284 554 , 1288 554 
Q 1291 554 , 1300 554 
Q 1309 554 , 1312 554 
Q 1316 554 , 1316 553 
L 1316 553 
L 1325 553 
L 1325 553 
Q 1325 554 , 1319 554 
Q 1312 554 , 1300 554 
Q 1288 554 , 1281 554 
Q 1275 554 , 1275 553 
L 1275 553 
" fill="#D21010" />
<path d="
M 1250 550 
L 1241 551 
L 1258 551 
L 1250 550 
M 1246 549 
L 1254 549 
L 1275 553 
L 1267 553 
L 1261 552 
L 1239 552 
L 1232 553 
L 1225 553 
L 1246 549 
" fill="lightgray" />
<path d="
M 1275 549 
L 1284 549 
L 1284 551 
Q 1284 552 , 1288 552 
Q 1291 552 , 1300 552 
Q 1309 552 , 1312 552 
Q 1316 552 , 1316 551 
L 1316 549 
L 1325 549 
L 1325 551 
Q 1325 552 , 1319 552 
Q 1312 553 , 1300 553 
Q 1288 553 , 1281 552 
Q 1275 552 , 1275 551 
L 1275 549 
" fill="#D21010" />
<path d="
M 1225 524 
L 1234 524 
L 1234 538 
Q 1234 542 , 1238 544 
Q 1241 545 , 1250 545 
Q 1259 545 , 1262 544 
Q 1266 542 , 1266 538 
L 1266 524 
L 1275 524 
L 1275 539 
Q 1275 543 , 1269 546 
Q 1262 548 , 1250 548 
Q 1238 548 , 1231 546 
Q 1225 543 , 1225 539 
L 1225 524 
" fill="lightgray" />
<path d="
M 1300 528 
L 1291 538 
L 1308 538 
L 1300 528 
M 1296 524 
L 1304 524 
L 1325 548 
L 1317 548 
L 1311 541 
L 1289 541 
L 1282 548 
L 1275 548 
L 1296 524 
" fill="#339541" />
<path d="
M 1267 513 
L 1267 492 
L 1253 492 
L 1253 484 
L 1275 484 
L 1275 518 
Q 1270 521 , 1264 523 
Q 1259 524 , 1253 524 
Q 1240 524 , 1233 514 
Q 1225 503 , 1225 486 
Q 1225 468 , 1233 457 
Q 1240 447 , 1253 447 
Q 1259 447 , 1264 448 
Q 1269 450 , 1274 453 
L 1274 463 
Q 1267 459 , 1263 457 
Q 1259 456 , 1254 456 
Q 1244 456 , 1238 463 
Q 1233 471 , 1233 486 
Q 1233 501 , 1238 508 
Q 1244 515 , 1254 515 
Q 1259 515 , 1262 515 
Q 1266 514 , 1267 513 
" fill="lightgray" />
<path d="
M 1325 455 
L 1325 467 
Q 1318 459 , 1314 458 
Q 1309 456 , 1304 456 
Q 1294 456 , 1289 463 
Q 1283 471 , 1283 485 
Q 1283 500 , 1289 508 
Q 1294 516 , 1304 516 
Q 1309 516 , 1314 514 
Q 1318 512 , 1325 504 
L 1325 516 
Q 1320 520 , 1314 522 
Q 1310 524 , 1304 524 
Q 1290 524 , 1283 514 
Q 1275 503 , 1275 486 
Q 1275 468 , 1283 458 
Q 1290 447 , 1304 447 
Q 1310 447 , 1315 449 
Q 1320 451 , 1325 455 
" fill="#545FFF" />
<path d="
M 1275 372 
L 1275 385 
Q 1268 377 , 1264 374 
Q 1259 372 , 1254 372 
Q 1244 372 , 1239 380 
Q 1233 389 , 1233 405 
Q 1233 421 , 1239 429 
Q 1244 438 , 1254 438 
Q 1259 438 , 1264 436 
Q 1268 433 , 1275 425 
L 1275 438 
Q 1270 443 , 1264 445 
Q 1260 447 , 1254 447 
Q 1240 447 , 1233 435 
Q 1225 424 , 1225 405 
Q 1225 386 , 1233 374 
Q 1240 363 , 1254 363 
Q 1260 363 , 1265 365 
Q 1270 367 , 1275 372 
" fill="lightgray" />
<path d="
M 1317 435 
L 1317 412 
L 1303 412 
L 1303 403 
L 1325 403 
L 1325 440 
Q 1320 444 , 1314 445 
Q 1309 447 , 1303 447 
Q 1290 447 , 1283 435 
Q 1275 424 , 1275 405 
Q 1275 385 , 1283 374 
Q 1290 363 , 1303 363 
Q 1309 363 , 1314 364 
Q 1319 366 , 1324 370 
L 1324 380 
Q 1317 376 , 1313 374 
Q 1309 373 , 1304 373 
Q 1294 373 , 1288 381 
Q 1283 389 , 1283 405 
Q 1283 421 , 1288 429 
Q 1294 437 , 1304 437 
Q 1309 437 , 1312 437 
Q 1316 436 , 1317 435 
" fill="#F5C000" />
<path d="
M 1330 554 
L 1348 554 
L 1348 554 
Q 1348 554 , 1356 554 
Q 1363 554 , 1380 554 
Q 1397 554 , 1405 554 
Q 1412 554 , 1412 554 
L 1412 554 
L 1430 554 
L 1430 554 
Q 1430 554 , 1417 554 
Q 1405 554 , 1380 554 
Q 1356 554 , 1343 554 
Q 1330 554 , 1330 554 
L 1330 554 
" fill="#D21010" />
<path d="
M 1380 553 
L 1362 553 
L 1396 553 
L 1380 553 
M 1373 553 
L 1387 553 
L 1430 554 
L 1414 554 
L 1402 553 
L 1358 553 
L 1345 554 
L 1330 554 
L 1373 553 
" fill="#339541" />
<path d="
M 1430 552 
L 1430 552 
Q 1415 552 , 1407 552 
Q 1399 552 , 1389 552 
Q 1368 552 , 1358 552 
Q 1346 552 , 1346 552 
Q 1346 552 , 1358 552 
Q 1368 553 , 1389 553 
Q 1399 553 , 1407 553 
Q 1415 552 , 1430 552 
L 1430 553 
Q 1419 553 , 1409 553 
Q 1399 553 , 1388 553 
Q 1361 553 , 1346 553 
Q 1330 552 , 1330 552 
Q 1330 552 , 1346 552 
Q 1361 552 , 1388 552 
Q 1399 552 , 1409 552 
Q 1420 552 , 1430 552 
" fill="#545FFF" />
<path d="
M 1414 552 
L 1414 551 
L 1385 551 
L 1385 551 
L 1430 551 
L 1430 552 
Q 1419 552 , 1408 552 
Q 1399 552 , 1387 552 
Q 1361 552 , 1345 552 
Q 1330 552 , 1330 551 
Q 1330 551 , 1345 551 
Q 1361 551 , 1387 551 
Q 1398 551 , 1407 551 
Q 1417 551 , 1427 551 
L 1427 551 
Q 1414 551 , 1406 551 
Q 1397 551 , 1388 551 
Q 1367 551 , 1356 551 
Q 1346 551 , 1346 551 
Q 1346 551 , 1356 552 
Q 1367 552 , 1388 552 
Q 1397 552 , 1404 552 
Q 1411 552 , 1414 552 
" fill="#F5C000" />
<path d="M 65 168 L 65 555 " stroke="black" stroke-width="1.5"/>
<path d="M 55 555 L 65 555 " stroke="black" stroke-width="4"/>
<text text-anchor="end" x="50" y="555" font-size="50" alignment-baseline="middle">0</text>
<path d="M 55 362 L 65 362 " stroke="black" stroke-width="4"/>
<text text-anchor="end" x="50" y="362" font-size="50" alignment-baseline="middle">1</text>
<path d="M 55 168 L 65 168 " stroke="black" stroke-width="4"/>
<text text-anchor="end" x="50" y="168" font-size="50" alignment-baseline="middle">2</text>
<text text-anchor="middle" x="750" y="50" font-size="50" alignment-baseline="baseline"></text>
G<path d="
M 160 582 
L 126 595 
L 160 608 
L 157 611 
L 123 598 
L 123 623 
L 117 623 
L 117 599 
L 83 611 
L 80 608 
L 114 595 
L 80 582 
L 83 579 
L 117 591 
L 117 567 
L 123 567 
L 123 591 
L 157 579 
L 160 582 
" fill="black" />
<path d="
" fill="black" />
<path d="
M 211 567 
L 238 567 
L 238 623 
L 211 623 
L 211 567 
" fill="black" />
<path d="
" fill="black" />
<path d="
M 370 567 
Q 341 574 , 328 581 
Q 315 588 , 315 595 
Q 315 602 , 328 609 
Q 341 616 , 370 623 
L 346 623 
Q 318 616 , 304 609 
Q 290 602 , 290 595 
Q 290 588 , 304 581 
Q 318 574 , 346 567 
L 370 567 
" fill="black" />
<path d="
M 475 567 
Q 446 574 , 433 581 
Q 420 588 , 420 595 
Q 420 602 , 433 609 
Q 446 616 , 475 623 
L 451 623 
Q 423 616 , 409 609 
Q 395 602 , 395 595 
Q 395 588 , 409 581 
Q 423 574 , 451 567 
L 475 567 
" fill="black" />
<path d="
" fill="black" />
<path d="
M 526 567 
L 553 567 
L 553 623 
L 526 623 
L 526 567 
" fill="black" />
<path d="
" fill="black" />
<path d="
" fill="black" />
<path d="
M 622 567 
L 642 567 
L 642 623 
L 622 623 
L 622 567 
" fill="black" />
<path d="
" fill="black" />
<path d="
M 682 595 
Q 679 595 , 677 599 
Q 675 602 , 675 607 
Q 675 613 , 677 616 
Q 679 619 , 682 619 
Q 685 619 , 687 616 
Q 689 613 , 689 607 
Q 689 602 , 687 599 
Q 685 595 , 682 595 
M 677 593 
Q 675 592 , 674 589 
Q 673 586 , 673 581 
Q 673 575 , 675 571 
Q 678 567 , 682 567 
Q 686 567 , 689 571 
Q 691 575 , 691 581 
Q 691 586 , 690 589 
Q 688 592 , 687 593 
Q 689 594 , 690 598 
Q 692 601 , 692 607 
Q 692 614 , 689 619 
Q 687 623 , 682 623 
Q 677 623 , 675 619 
Q 672 614 , 672 607 
Q 672 601 , 674 598 
Q 675 594 , 677 593 
M 677 573 
Q 675 576 , 675 581 
Q 675 586 , 677 589 
Q 679 592 , 682 592 
Q 685 592 , 687 589 
Q 689 586 , 689 581 
Q 689 576 , 687 574 
Q 685 571 , 682 571 
Q 679 571 , 677 573 
" fill="black" />
<path d="
M 790 582 
L 756 595 
L 790 608 
L 787 611 
L 753 598 
L 753 623 
L 747 623 
L 747 599 
L 713 611 
L 710 608 
L 744 595 
L 710 582 
L 713 579 
L 747 591 
L 747 567 
L 753 567 
L 753 591 
L 787 579 
L 790 582 
" fill="black" />
<path d="
" fill="black" />
<path d="
M 841 567 
L 868 567 
L 868 623 
L 841 623 
L 841 567 
" fill="black" />
<path d="
" fill="black" />
<path d="
M 920 567 
L 944 567 
Q 972 574 , 986 581 
Q 1000 588 , 1000 595 
Q 1000 602 , 986 609 
Q 972 616 , 944 623 
L 920 623 
Q 949 616 , 962 609 
Q 975 602 , 975 595 
Q 975 588 , 962 581 
Q 949 574 , 920 567 
" fill="black" />
<path d="
" fill="black" />
<path d="
M 1051 567 
L 1078 567 
L 1078 623 
L 1051 623 
L 1051 567 
" fill="black" />
<path d="
" fill="black" />
<path d="
" fill="black" />
<path d="
M 1156 567 
L 1183 567 
L 1183 623 
L 1156 623 
L 1156 567 
" fill="black" />
<path d="
" fill="black" />
<path d="
M 1235 567 
L 1259 567 
Q 1287 574 , 1301 581 
Q 1315 588 , 1315 595 
Q 1315 602 , 1301 609 
Q 1287 616 , 1259 623 
L 1235 623 
Q 1264 616 , 1277 609 
Q 1290 602 , 1290 595 
Q 1290 588 , 1277 581 
Q 1264 574 , 1235 567 
" fill="black" />
<path d="
M 1420 582 
L 1386 595 
L 1420 608 
L 1417 611 
L 1383 598 
L 1383 623 
L 1377 623 
L 1377 599 
L 1343 611 
L 1340 608 
L 1374 595 
L 1340 582 
L 1343 579 
L 1377 591 
L 1377 567 
L 1383 567 
L 1383 591 
L 1417 579 
L 1420 582 
" fill="black" />
</svg>
