<svg xmlns="http://www.w3.org/2000/svg"
viewBox="0 0 1330 635">
<path d="
M 120 554 
L 102 555 
L 136 555 
L 120 554 
M 113 554 
L 127 554 
L 170 555 
L 154 555 
L 142 555 
L 98 555 
L 85 555 
L 70 555 
L 113 554 
" fill="#339541" />
<path d="
M 70 552 
L 88 552 
L 88 553 
Q 88 553 , 96 553 
Q 103 553 , 120 553 
Q 137 553 , 145 553 
Q 152 553 , 152 553 
L 152 552 
L 170 552 
L 170 553 
Q 170 553 , 157 553 
Q 145 553 , 120 553 
Q 96 553 , 83 553 
Q 70 553 , 70 553 
L 70 552 
" fill="#D21010" />
<path d="
M 170 550 
L 170 550 
Q 155 550 , 147 550 
Q 139 550 , 129 550 
Q 108 550 , 98 550 
Q 86 550 , 86 550 
Q 86 551 , 98 551 
Q 108 551 , 129 551 
Q 139 551 , 147 551 
Q 155 551 , 170 551 
L 170 551 
Q 159 551 , 149 551 
Q 139 551 , 128 551 
Q 101 551 , 86 551 
Q 70 551 , 70 551 
Q 70 550 , 86 550 
Q 101 550 , 128 550 
Q 139 550 , 149 550 
Q 160 550 , 170 550 
" fill="#545FFF" />
<path d="
M 154 549 
L 154 549 
L 125 549 
L 125 549 
L 170 549 
L 170 549 
Q 159 549 , 148 549 
Q 139 549 , 127 549 
Q 101 549 , 85 549 
Q 70 549 , 70 549 
Q 70 548 , 85 548 
Q 101 548 , 127 548 
Q 138 548 , 147 548 
Q 157 548 , 167 548 
L 167 548 
Q 154 548 , 146 548 
Q 137 548 , 128 548 
Q 107 548 , 96 548 
Q 86 548 , 86 549 
Q 86 549 , 96 549 
Q 107 549 , 128 549 
Q 137 549 , 144 549 
Q 151 549 , 154 549 
" fill="#F5C000" />
<path d="
M 259 553 
L 259 552 
L 230 552 
L 230 552 
L 275 552 
L 275 554 
Q 264 554 , 253 554 
Q 244 554 , 232 554 
Q 206 554 , 190 554 
Q 175 553 , 175 552 
Q 175 551 , 190 551 
Q 206 550 , 232 550 
Q 243 550 , 252 550 
Q 262 550 , 272 550 
L 272 551 
Q 259 551 , 251 551 
Q 242 550 , 233 550 
Q 212 550 , 201 551 
Q 191 551 , 191 552 
Q 191 553 , 201 553 
Q 212 554 , 233 554 
Q 242 554 , 249 554 
Q 256 554 , 259 553 
" fill="#F5C000" />
<path d="
M 175 543 
L 193 543 
L 193 547 
Q 193 548 , 201 548 
Q 208 548 , 225 548 
Q 242 548 , 250 548 
Q 257 548 , 257 547 
L 257 543 
L 275 543 
L 275 547 
Q 275 548 , 262 548 
Q 250 549 , 225 549 
Q 201 549 , 188 548 
Q 175 548 , 175 547 
L 175 543 
" fill="#D21010" />
<path d="
M 225 533 
L 207 538 
L 241 538 
L 225 533 
M 218 531 
L 232 531 
L 275 543 
L 259 543 
L 247 539 
L 203 539 
L 190 543 
L 175 543 
L 218 531 
" fill="#339541" />
<path d="
M 275 519 
L 275 521 
Q 260 520 , 252 520 
Q 244 519 , 234 519 
Q 213 519 , 203 521 
Q 191 522 , 191 524 
Q 191 527 , 203 528 
Q 213 530 , 234 530 
Q 244 530 , 252 529 
Q 260 529 , 275 528 
L 275 530 
Q 264 530 , 254 531 
Q 244 531 , 233 531 
Q 206 531 , 191 529 
Q 175 527 , 175 524 
Q 175 522 , 191 520 
Q 206 518 , 233 518 
Q 244 518 , 254 518 
Q 265 519 , 275 519 
" fill="#545FFF" />
<path d="
M 330 553 
L 312 554 
L 346 554 
L 330 553 
M 323 552 
L 337 552 
L 380 555 
L 364 555 
L 352 554 
L 308 554 
L 295 555 
L 280 555 
L 323 552 
" fill="#339541" />
<path d="
M 280 547 
L 298 547 
L 298 550 
Q 298 550 , 306 551 
Q 313 551 , 330 551 
Q 347 551 , 355 551 
Q 362 550 , 362 550 
L 362 547 
L 380 547 
L 380 550 
Q 380 550 , 367 551 
Q 355 551 , 330 551 
Q 306 551 , 293 551 
Q 280 550 , 280 550 
L 280 547 
" fill="#D21010" />
<path d="
M 364 534 
L 364 511 
L 335 511 
L 335 501 
L 380 501 
L 380 539 
Q 369 543 , 358 545 
Q 349 546 , 337 546 
Q 311 546 , 295 535 
Q 280 523 , 280 503 
Q 280 483 , 295 472 
Q 311 460 , 337 460 
Q 348 460 , 357 461 
Q 367 463 , 377 467 
L 377 478 
Q 364 473 , 356 472 
Q 347 470 , 338 470 
Q 317 470 , 306 478 
Q 296 486 , 296 503 
Q 296 520 , 306 528 
Q 317 536 , 338 536 
Q 347 536 , 354 536 
Q 361 535 , 364 534 
" fill="#F5C000" />
<path d="
M 380 371 
L 380 386 
Q 365 376 , 357 374 
Q 349 371 , 339 371 
Q 318 371 , 308 381 
Q 296 391 , 296 410 
Q 296 429 , 308 439 
Q 318 449 , 339 449 
Q 349 449 , 357 446 
Q 365 444 , 380 434 
L 380 450 
Q 369 455 , 359 457 
Q 349 460 , 338 460 
Q 311 460 , 296 446 
Q 280 433 , 280 410 
Q 280 387 , 296 374 
Q 311 360 , 338 360 
Q 349 360 , 359 362 
Q 370 365 , 380 371 
" fill="#545FFF" />
<path d="
M 435 553 
L 417 554 
L 451 554 
L 435 553 
M 428 553 
L 442 553 
L 485 554 
L 469 554 
L 457 554 
L 413 554 
L 400 554 
L 385 554 
L 428 553 
" fill="#339541" />
<path d="
M 485 532 
L 485 535 
Q 470 533 , 462 532 
Q 454 532 , 444 532 
Q 423 532 , 413 534 
Q 401 536 , 401 540 
Q 401 545 , 413 548 
Q 423 550 , 444 550 
Q 454 550 , 462 549 
Q 470 549 , 485 546 
L 485 550 
Q 474 551 , 464 552 
Q 454 552 , 443 552 
Q 416 552 , 401 549 
Q 385 546 , 385 541 
Q 385 535 , 401 532 
Q 416 529 , 443 529 
Q 454 529 , 464 530 
Q 475 530 , 485 532 
" fill="#545FFF" />
<path d="
M 385 501 
L 403 501 
L 403 517 
Q 403 522 , 411 524 
Q 418 525 , 435 525 
Q 452 525 , 460 524 
Q 467 522 , 467 517 
L 467 501 
L 485 501 
L 485 518 
Q 485 523 , 472 526 
Q 460 529 , 435 529 
Q 411 529 , 398 526 
Q 385 523 , 385 518 
L 385 501 
" fill="#D21010" />
<path d="
M 469 494 
L 469 483 
L 440 483 
L 440 478 
L 485 478 
L 485 497 
Q 474 499 , 463 500 
Q 454 501 , 442 501 
Q 416 501 , 400 495 
Q 385 489 , 385 479 
Q 385 469 , 400 463 
Q 416 457 , 442 457 
Q 453 457 , 462 458 
Q 472 459 , 482 461 
L 482 466 
Q 469 464 , 461 463 
Q 452 462 , 443 462 
Q 422 462 , 411 466 
Q 401 470 , 401 479 
Q 401 487 , 411 492 
Q 422 496 , 443 496 
Q 452 496 , 459 495 
Q 466 495 , 469 494 
" fill="#F5C000" />
<path d="
M 540 553 
L 522 554 
L 556 554 
L 540 553 
M 533 553 
L 547 553 
L 590 554 
L 574 554 
L 562 554 
L 518 554 
L 505 554 
L 490 554 
L 533 553 
" fill="#339541" />
<path d="
M 574 549 
L 574 542 
L 545 542 
L 545 539 
L 590 539 
L 590 550 
Q 579 551 , 568 552 
Q 559 552 , 547 552 
Q 521 552 , 505 549 
Q 490 545 , 490 540 
Q 490 534 , 505 530 
Q 521 527 , 547 527 
Q 558 527 , 567 527 
Q 577 528 , 587 529 
L 587 532 
Q 574 531 , 566 530 
Q 557 530 , 548 530 
Q 527 530 , 516 532 
Q 506 535 , 506 540 
Q 506 545 , 516 547 
Q 527 549 , 548 549 
Q 557 549 , 564 549 
Q 571 549 , 574 549 
" fill="#F5C000" />
<path d="
M 590 502 
L 590 506 
Q 575 503 , 567 503 
Q 559 502 , 549 502 
Q 528 502 , 518 505 
Q 506 507 , 506 512 
Q 506 518 , 518 521 
Q 528 523 , 549 523 
Q 559 523 , 567 523 
Q 575 522 , 590 519 
L 590 523 
Q 579 525 , 569 526 
Q 559 526 , 548 526 
Q 521 526 , 506 523 
Q 490 519 , 490 513 
Q 490 506 , 506 503 
Q 521 499 , 548 499 
Q 559 499 , 569 500 
Q 580 500 , 590 502 
" fill="#545FFF" />
<path d="
M 490 448 
L 508 448 
L 508 478 
Q 508 486 , 516 489 
Q 523 493 , 540 493 
Q 557 493 , 565 489 
Q 572 486 , 572 478 
L 572 448 
L 590 448 
L 590 478 
Q 590 488 , 577 493 
Q 565 498 , 540 498 
Q 516 498 , 503 493 
Q 490 488 , 490 478 
L 490 448 
" fill="#D21010" />
<path d="
M 645 551 
L 627 552 
L 661 552 
L 645 551 
M 638 550 
L 652 550 
L 695 554 
L 679 554 
L 667 553 
L 623 553 
L 610 554 
L 595 554 
L 638 550 
" fill="#339541" />
<path d="
M 595 534 
L 613 534 
L 613 543 
Q 613 545 , 621 546 
Q 628 547 , 645 547 
Q 662 547 , 670 546 
Q 677 545 , 677 543 
L 677 534 
L 695 534 
L 695 543 
Q 695 546 , 682 548 
Q 670 549 , 645 549 
Q 621 549 , 608 548 
Q 595 546 , 595 543 
L 595 534 
" fill="#D21010" />
<path d="
M 695 499 
L 695 505 
Q 680 501 , 672 500 
Q 664 499 , 654 499 
Q 633 499 , 623 503 
Q 611 507 , 611 514 
Q 611 522 , 623 525 
Q 633 529 , 654 529 
Q 664 529 , 672 528 
Q 680 527 , 695 523 
L 695 529 
Q 684 532 , 674 532 
Q 664 533 , 653 533 
Q 626 533 , 611 528 
Q 595 523 , 595 514 
Q 595 505 , 611 500 
Q 626 495 , 653 495 
Q 664 495 , 674 496 
Q 685 497 , 695 499 
" fill="#545FFF" />
<path d="
M 679 479 
L 679 450 
L 650 450 
L 650 438 
L 695 438 
L 695 486 
Q 684 491 , 673 493 
Q 664 495 , 652 495 
Q 626 495 , 610 480 
Q 595 466 , 595 440 
Q 595 415 , 610 401 
Q 626 386 , 652 386 
Q 663 386 , 672 388 
Q 682 390 , 692 395 
L 692 409 
Q 679 403 , 671 401 
Q 662 399 , 653 399 
Q 632 399 , 621 409 
Q 611 419 , 611 440 
Q 611 462 , 621 472 
Q 632 483 , 653 483 
Q 662 483 , 669 482 
Q 676 481 , 679 479 
" fill="#F5C000" />
<path d="
M 784 553 
L 784 551 
L 755 551 
L 755 551 
L 800 551 
L 800 554 
Q 789 554 , 778 554 
Q 769 554 , 757 554 
Q 731 554 , 715 553 
Q 700 552 , 700 551 
Q 700 549 , 715 548 
Q 731 547 , 757 547 
Q 768 547 , 777 547 
Q 787 547 , 797 548 
L 797 549 
Q 784 548 , 776 548 
Q 767 548 , 758 548 
Q 737 548 , 726 549 
Q 716 549 , 716 551 
Q 716 552 , 726 553 
Q 737 554 , 758 554 
Q 767 554 , 774 553 
Q 781 553 , 784 553 
" fill="#F5C000" />
<path d="
M 750 536 
L 732 542 
L 766 542 
L 750 536 
M 743 534 
L 757 534 
L 800 547 
L 784 547 
L 772 543 
L 728 543 
L 715 547 
L 700 547 
L 743 534 
" fill="#339541" />
<path d="
M 700 520 
L 718 520 
L 718 528 
Q 718 530 , 726 531 
Q 733 532 , 750 532 
Q 767 532 , 775 531 
Q 782 530 , 782 528 
L 782 520 
L 800 520 
L 800 528 
Q 800 531 , 787 532 
Q 775 533 , 750 533 
Q 726 533 , 713 532 
Q 700 531 , 700 528 
L 700 520 
" fill="#D21010" />
<path d="
M 800 485 
L 800 491 
Q 785 487 , 777 486 
Q 769 485 , 759 485 
Q 738 485 , 728 489 
Q 716 493 , 716 500 
Q 716 508 , 728 512 
Q 738 515 , 759 515 
Q 769 515 , 777 514 
Q 785 513 , 800 510 
L 800 516 
Q 789 518 , 779 519 
Q 769 520 , 758 520 
Q 731 520 , 716 514 
Q 700 509 , 700 500 
Q 700 491 , 716 486 
Q 731 481 , 758 481 
Q 769 481 , 779 482 
Q 790 483 , 800 485 
" fill="#545FFF" />
<path d="
M 855 549 
L 837 552 
L 871 552 
L 855 549 
M 848 548 
L 862 548 
L 905 555 
L 889 555 
L 877 553 
L 833 553 
L 820 555 
L 805 555 
L 848 548 
" fill="#339541" />
<path d="
M 889 547 
L 889 545 
L 860 545 
L 860 544 
L 905 544 
L 905 547 
Q 894 547 , 883 548 
Q 874 548 , 862 548 
Q 836 548 , 820 547 
Q 805 546 , 805 544 
Q 805 542 , 820 541 
Q 836 540 , 862 540 
Q 873 540 , 882 540 
Q 892 540 , 902 541 
L 902 542 
Q 889 541 , 881 541 
Q 872 541 , 863 541 
Q 842 541 , 831 542 
Q 821 542 , 821 544 
Q 821 545 , 831 546 
Q 842 547 , 863 547 
Q 872 547 , 879 547 
Q 886 547 , 889 547 
" fill="#F5C000" />
<path d="
M 805 494 
L 823 494 
L 823 521 
Q 823 528 , 831 531 
Q 838 534 , 855 534 
Q 872 534 , 880 531 
Q 887 528 , 887 521 
L 887 494 
L 905 494 
L 905 522 
Q 905 530 , 892 535 
Q 880 539 , 855 539 
Q 831 539 , 818 535 
Q 805 530 , 805 522 
L 805 494 
" fill="#D21010" />
<path d="
M 905 437 
L 905 447 
Q 890 440 , 882 439 
Q 874 437 , 864 437 
Q 843 437 , 833 443 
Q 821 449 , 821 461 
Q 821 474 , 833 480 
Q 843 487 , 864 487 
Q 874 487 , 882 485 
Q 890 483 , 905 477 
L 905 487 
Q 894 491 , 884 492 
Q 874 493 , 863 493 
Q 836 493 , 821 485 
Q 805 476 , 805 462 
Q 805 447 , 821 439 
Q 836 430 , 863 430 
Q 874 430 , 884 432 
Q 895 433 , 905 437 
" fill="#545FFF" />
<path d="
M 960 553 
L 942 554 
L 976 554 
L 960 553 
M 953 553 
L 967 553 
L 1010 554 
L 994 554 
L 982 554 
L 938 554 
L 925 554 
L 910 554 
L 953 553 
" fill="#339541" />
<path d="
M 1010 537 
L 1010 540 
Q 995 538 , 987 537 
Q 979 537 , 969 537 
Q 948 537 , 938 539 
Q 926 540 , 926 543 
Q 926 547 , 938 549 
Q 948 551 , 969 551 
Q 979 551 , 987 550 
Q 995 550 , 1010 548 
L 1010 551 
Q 999 552 , 989 552 
Q 979 553 , 968 553 
Q 941 553 , 926 550 
Q 910 548 , 910 544 
Q 910 540 , 926 537 
Q 941 535 , 968 535 
Q 979 535 , 989 535 
Q 1000 536 , 1010 537 
" fill="#545FFF" />
<path d="
M 910 490 
L 928 490 
L 928 516 
Q 928 523 , 936 526 
Q 943 529 , 960 529 
Q 977 529 , 985 526 
Q 992 523 , 992 516 
L 992 490 
L 1010 490 
L 1010 517 
Q 1010 525 , 997 530 
Q 985 534 , 960 534 
Q 936 534 , 923 530 
Q 910 525 , 910 517 
L 910 490 
" fill="#D21010" />
<path d="
M 994 477 
L 994 455 
L 965 455 
L 965 446 
L 1010 446 
L 1010 483 
Q 999 487 , 988 488 
Q 979 489 , 967 489 
Q 941 489 , 925 478 
Q 910 467 , 910 448 
Q 910 428 , 925 417 
Q 941 406 , 967 406 
Q 978 406 , 987 407 
Q 997 409 , 1007 413 
L 1007 423 
Q 994 419 , 986 417 
Q 977 416 , 968 416 
Q 947 416 , 936 424 
Q 926 432 , 926 448 
Q 926 464 , 936 472 
Q 947 480 , 968 480 
Q 977 480 , 984 479 
Q 991 478 , 994 477 
" fill="#F5C000" />
<path d="
M 1065 552 
L 1047 553 
L 1081 553 
L 1065 552 
M 1058 551 
L 1072 551 
L 1115 554 
L 1099 554 
L 1087 553 
L 1043 553 
L 1030 554 
L 1015 554 
L 1058 551 
" fill="#339541" />
<path d="
M 1115 538 
L 1115 540 
Q 1100 538 , 1092 538 
Q 1084 538 , 1074 538 
Q 1053 538 , 1043 539 
Q 1031 540 , 1031 543 
Q 1031 546 , 1043 547 
Q 1053 549 , 1074 549 
Q 1084 549 , 1092 548 
Q 1100 548 , 1115 546 
L 1115 549 
Q 1104 549 , 1094 550 
Q 1084 550 , 1073 550 
Q 1046 550 , 1031 548 
Q 1015 546 , 1015 543 
Q 1015 540 , 1031 538 
Q 1046 536 , 1073 536 
Q 1084 536 , 1094 536 
Q 1105 537 , 1115 538 
" fill="#545FFF" />
<path d="
M 1015 495 
L 1033 495 
L 1033 519 
Q 1033 526 , 1041 529 
Q 1048 531 , 1065 531 
Q 1082 531 , 1090 529 
Q 1097 526 , 1097 519 
L 1097 495 
L 1115 495 
L 1115 520 
Q 1115 528 , 1102 532 
Q 1090 536 , 1065 536 
Q 1041 536 , 1028 532 
Q 1015 528 , 1015 520 
L 1015 495 
" fill="#D21010" />
<path d="
M 1099 470 
L 1099 426 
L 1070 426 
L 1070 407 
L 1115 407 
L 1115 481 
Q 1104 489 , 1093 491 
Q 1084 494 , 1072 494 
Q 1046 494 , 1030 472 
Q 1015 450 , 1015 411 
Q 1015 372 , 1030 350 
Q 1046 328 , 1072 328 
Q 1083 328 , 1092 331 
Q 1102 334 , 1112 341 
L 1112 363 
Q 1099 353 , 1091 350 
Q 1082 348 , 1073 348 
Q 1052 348 , 1041 363 
Q 1031 379 , 1031 411 
Q 1031 444 , 1041 460 
Q 1052 476 , 1073 476 
Q 1082 476 , 1089 474 
Q 1096 472 , 1099 470 
" fill="#F5C000" />
<path d="
M 1120 550 
L 1138 550 
L 1138 553 
Q 1138 553 , 1146 554 
Q 1153 554 , 1170 554 
Q 1187 554 , 1195 554 
Q 1202 553 , 1202 553 
L 1202 550 
L 1220 550 
L 1220 553 
Q 1220 554 , 1207 554 
Q 1195 555 , 1170 555 
Q 1146 555 , 1133 554 
Q 1120 554 , 1120 553 
L 1120 550 
" fill="#D21010" />
<path d="
M 1204 548 
L 1204 544 
L 1175 544 
L 1175 543 
L 1220 543 
L 1220 549 
Q 1209 549 , 1198 549 
Q 1189 550 , 1177 550 
Q 1151 550 , 1135 548 
Q 1120 546 , 1120 543 
Q 1120 540 , 1135 539 
Q 1151 537 , 1177 537 
Q 1188 537 , 1197 537 
Q 1207 537 , 1217 538 
L 1217 540 
Q 1204 539 , 1196 539 
Q 1187 539 , 1178 539 
Q 1157 539 , 1146 540 
Q 1136 541 , 1136 543 
Q 1136 546 , 1146 547 
Q 1157 548 , 1178 548 
Q 1187 548 , 1194 548 
Q 1201 548 , 1204 548 
" fill="#F5C000" />
<path d="
M 1170 524 
L 1152 530 
L 1186 530 
L 1170 524 
M 1163 521 
L 1177 521 
L 1220 536 
L 1204 536 
L 1192 532 
L 1148 532 
L 1135 536 
L 1120 536 
L 1163 521 
" fill="#339541" />
<path d="
M 1220 494 
L 1220 499 
Q 1205 496 , 1197 495 
Q 1189 494 , 1179 494 
Q 1158 494 , 1148 497 
Q 1136 500 , 1136 505 
Q 1136 511 , 1148 514 
Q 1158 517 , 1179 517 
Q 1189 517 , 1197 516 
Q 1205 516 , 1220 513 
L 1220 517 
Q 1209 519 , 1199 520 
Q 1189 520 , 1178 520 
Q 1151 520 , 1136 516 
Q 1120 512 , 1120 506 
Q 1120 499 , 1136 495 
Q 1151 491 , 1178 491 
Q 1189 491 , 1199 492 
Q 1210 492 , 1220 494 
" fill="#545FFF" />
<path d="
M 1275 554 
L 1257 555 
L 1291 555 
L 1275 554 
M 1268 554 
L 1282 554 
L 1325 555 
L 1309 555 
L 1297 555 
L 1253 555 
L 1240 555 
L 1225 555 
L 1268 554 
" fill="#339541" />
<path d="
M 1225 552 
L 1243 552 
L 1243 553 
Q 1243 553 , 1251 553 
Q 1258 553 , 1275 553 
Q 1292 553 , 1300 553 
Q 1307 553 , 1307 553 
L 1307 552 
L 1325 552 
L 1325 553 
Q 1325 553 , 1312 553 
Q 1300 553 , 1275 553 
Q 1251 553 , 1238 553 
Q 1225 553 , 1225 553 
L 1225 552 
" fill="#D21010" />
<path d="
M 1325 550 
L 1325 550 
Q 1310 550 , 1302 550 
Q 1294 550 , 1284 550 
Q 1263 550 , 1253 550 
Q 1241 550 , 1241 550 
Q 1241 551 , 1253 551 
Q 1263 551 , 1284 551 
Q 1294 551 , 1302 551 
Q 1310 551 , 1325 551 
L 1325 551 
Q 1314 551 , 1304 551 
Q 1294 551 , 1283 551 
Q 1256 551 , 1241 551 
Q 1225 551 , 1225 551 
Q 1225 550 , 1241 550 
Q 1256 550 , 1283 550 
Q 1294 550 , 1304 550 
Q 1315 550 , 1325 550 
" fill="#545FFF" />
<path d="
M 1309 549 
L 1309 549 
L 1280 549 
L 1280 549 
L 1325 549 
L 1325 549 
Q 1314 549 , 1303 549 
Q 1294 549 , 1282 549 
Q 1256 549 , 1240 549 
Q 1225 549 , 1225 549 
Q 1225 548 , 1240 548 
Q 1256 548 , 1282 548 
Q 1293 548 , 1302 548 
Q 1312 548 , 1322 548 
L 1322 548 
Q 1309 548 , 1301 548 
Q 1292 548 , 1283 548 
Q 1262 548 , 1251 548 
Q 1241 548 , 1241 549 
Q 1241 549 , 1251 549 
Q 1262 549 , 1283 549 
Q 1292 549 , 1299 549 
Q 1306 549 , 1309 549 
" fill="#F5C000" />
<path d="M 65 55 L 65 555 " stroke="black" stroke-width="1.5"/>
<path d="M 55 555 L 65 555 " stroke="black" stroke-width="4"/>
<text text-anchor="end" x="50" y="555" font-size="50" alignment-baseline="middle">0</text>
<path d="M 55 305 L 65 305 " stroke="black" stroke-width="4"/>
<text text-anchor="end" x="50" y="305" font-size="50" alignment-baseline="middle">1</text>
<path d="M 55 55 L 65 55 " stroke="black" stroke-width="4"/>
<text text-anchor="end" x="50" y="55" font-size="50" alignment-baseline="middle">2</text>
<text text-anchor="middle" x="697" y="50" font-size="50" alignment-baseline="baseline"></text>
G<path d="
M 160 582 
L 126 595 
L 160 608 
L 157 611 
L 123 598 
L 123 623 
L 117 623 
L 117 599 
L 83 611 
L 80 608 
L 114 595 
L 80 582 
L 83 579 
L 117 591 
L 117 567 
L 123 567 
L 123 591 
L 157 579 
L 160 582 
" fill="black" />
<path d="
" fill="black" />
<path d="
M 211 567 
L 238 567 
L 238 623 
L 211 623 
L 211 567 
" fill="black" />
<path d="
" fill="black" />
<path d="
" fill="black" />
<path d="
M 316 567 
L 343 567 
L 343 623 
L 316 623 
L 316 567 
" fill="black" />
<path d="
" fill="black" />
<path d="
" fill="black" />
<path d="
M 421 567 
L 448 567 
L 448 623 
L 421 623 
L 421 567 
" fill="black" />
<path d="
" fill="black" />
<path d="
" fill="black" />
<path d="
M 526 567 
L 553 567 
L 553 623 
L 526 623 
L 526 567 
" fill="black" />
<path d="
" fill="black" />
<path d="
" fill="black" />
<path d="
M 631 567 
L 658 567 
L 658 623 
L 631 623 
L 631 567 
" fill="black" />
<path d="
" fill="black" />
<path d="
" fill="black" />
<path d="
M 736 567 
L 763 567 
L 763 623 
L 736 623 
L 736 567 
" fill="black" />
<path d="
" fill="black" />
<path d="
" fill="black" />
<path d="
M 841 567 
L 868 567 
L 868 623 
L 841 623 
L 841 567 
" fill="black" />
<path d="
" fill="black" />
<path d="
" fill="black" />
<path d="
M 946 567 
L 973 567 
L 973 623 
L 946 623 
L 946 567 
" fill="black" />
<path d="
" fill="black" />
<path d="
" fill="black" />
<path d="
M 1051 567 
L 1078 567 
L 1078 623 
L 1051 623 
L 1051 567 
" fill="black" />
<path d="
" fill="black" />
<path d="
" fill="black" />
<path d="
M 1156 567 
L 1183 567 
L 1183 623 
L 1156 623 
L 1156 567 
" fill="black" />
<path d="
" fill="black" />
<path d="
M 1315 582 
L 1281 595 
L 1315 608 
L 1312 611 
L 1278 598 
L 1278 623 
L 1272 623 
L 1272 599 
L 1238 611 
L 1235 608 
L 1269 595 
L 1235 582 
L 1238 579 
L 1272 591 
L 1272 567 
L 1278 567 
L 1278 591 
L 1312 579 
L 1315 582 
" fill="black" />
</svg>
