<svg xmlns="http://www.w3.org/2000/svg"
viewBox="0 0 1435 635">
<path d="
M 170 554 
L 170 554 
Q 155 554 , 147 554 
Q 139 554 , 129 554 
Q 108 554 , 98 554 
Q 86 554 , 86 554 
Q 86 554 , 98 555 
Q 108 555 , 129 555 
Q 139 555 , 147 555 
Q 155 555 , 170 555 
L 170 555 
Q 159 555 , 149 555 
Q 139 555 , 128 555 
Q 101 555 , 86 555 
Q 70 555 , 70 554 
Q 70 554 , 86 554 
Q 101 554 , 128 554 
Q 139 554 , 149 554 
Q 160 554 , 170 554 
" fill="#545FFF" />
<path d="
M 70 552 
L 88 552 
L 88 553 
Q 88 553 , 96 553 
Q 103 553 , 120 553 
Q 137 553 , 145 553 
Q 152 553 , 152 553 
L 152 552 
L 170 552 
L 170 553 
Q 170 553 , 157 553 
Q 145 553 , 120 553 
Q 96 553 , 83 553 
Q 70 553 , 70 553 
L 70 552 
" fill="#D21010" />
<path d="
M 154 551 
L 154 551 
L 125 551 
L 125 551 
L 170 551 
L 170 551 
Q 159 551 , 148 551 
Q 139 551 , 127 551 
Q 101 551 , 85 551 
Q 70 551 , 70 551 
Q 70 550 , 85 550 
Q 101 550 , 127 550 
Q 138 550 , 147 550 
Q 157 550 , 167 550 
L 167 550 
Q 154 550 , 146 550 
Q 137 550 , 128 550 
Q 107 550 , 96 550 
Q 86 550 , 86 551 
Q 86 551 , 96 551 
Q 107 551 , 128 551 
Q 137 551 , 144 551 
Q 151 551 , 154 551 
" fill="#F5C000" />
<path d="
M 120 548 
L 102 549 
L 136 549 
L 120 548 
M 113 548 
L 127 548 
L 170 549 
L 154 549 
L 142 549 
L 98 549 
L 85 549 
L 70 549 
L 113 548 
" fill="#339541" />
<path d="
M 275 551 
L 275 552 
Q 260 551 , 252 551 
Q 244 551 , 234 551 
Q 213 551 , 203 552 
Q 191 552 , 191 552 
Q 191 553 , 203 553 
Q 213 554 , 234 554 
Q 244 554 , 252 554 
Q 260 554 , 275 553 
L 275 554 
Q 264 554 , 254 554 
Q 244 554 , 233 554 
Q 206 554 , 191 554 
Q 175 553 , 175 553 
Q 175 552 , 191 551 
Q 206 551 , 233 551 
Q 244 551 , 254 551 
Q 265 551 , 275 551 
" fill="#545FFF" />
<path d="
M 225 544 
L 207 547 
L 241 547 
L 225 544 
M 218 542 
L 232 542 
L 275 551 
L 259 551 
L 247 548 
L 203 548 
L 190 551 
L 175 551 
L 218 542 
" fill="#339541" />
<path d="
M 175 530 
L 193 530 
L 193 537 
Q 193 538 , 201 539 
Q 208 540 , 225 540 
Q 242 540 , 250 539 
Q 257 538 , 257 537 
L 257 530 
L 275 530 
L 275 537 
Q 275 539 , 262 540 
Q 250 541 , 225 541 
Q 201 541 , 188 540 
Q 175 539 , 175 537 
L 175 530 
" fill="#D21010" />
<path d="
M 259 527 
L 259 522 
L 230 522 
L 230 520 
L 275 520 
L 275 528 
Q 264 529 , 253 529 
Q 244 529 , 232 530 
Q 206 530 , 190 527 
Q 175 525 , 175 521 
Q 175 517 , 190 514 
Q 206 512 , 232 512 
Q 243 512 , 252 512 
Q 262 513 , 272 513 
L 272 516 
Q 259 515 , 251 514 
Q 242 514 , 233 514 
Q 212 514 , 201 516 
Q 191 517 , 191 521 
Q 191 524 , 201 526 
Q 212 528 , 233 528 
Q 242 528 , 249 527 
Q 256 527 , 259 527 
" fill="#F5C000" />
<path d="
M 322 554 
L 322 553 
L 308 553 
L 308 552 
L 330 552 
L 330 554 
Q 325 554 , 319 554 
Q 314 554 , 308 554 
Q 295 554 , 288 554 
Q 280 553 , 280 553 
Q 280 552 , 288 551 
Q 295 551 , 308 551 
Q 314 551 , 319 551 
Q 324 551 , 329 551 
L 329 552 
Q 322 551 , 318 551 
Q 314 551 , 309 551 
Q 299 551 , 293 552 
Q 288 552 , 288 553 
Q 288 553 , 293 553 
Q 299 554 , 309 554 
Q 314 554 , 317 554 
Q 321 554 , 322 554 
" fill="#F5C000" />
<path d="
M 380 551 
L 380 552 
Q 373 551 , 369 551 
Q 364 551 , 359 551 
Q 349 551 , 344 552 
Q 338 552 , 338 552 
Q 338 553 , 344 553 
Q 349 554 , 359 554 
Q 364 554 , 369 554 
Q 373 554 , 380 553 
L 380 554 
Q 375 554 , 369 554 
Q 365 554 , 359 554 
Q 345 554 , 338 554 
Q 330 553 , 330 553 
Q 330 552 , 338 551 
Q 345 551 , 359 551 
Q 365 551 , 370 551 
Q 375 551 , 380 551 
" fill="lightgray" />
<path d="
M 322 550 
L 322 549 
L 308 549 
L 308 549 
L 330 549 
L 330 550 
Q 325 550 , 319 550 
Q 314 550 , 308 550 
Q 295 550 , 288 550 
Q 280 550 , 280 549 
Q 280 548 , 288 547 
Q 295 547 , 308 547 
Q 314 547 , 319 547 
Q 324 547 , 329 547 
L 329 548 
Q 322 548 , 318 547 
Q 314 547 , 309 547 
Q 299 547 , 293 548 
Q 288 548 , 288 549 
Q 288 549 , 293 550 
Q 299 550 , 309 550 
Q 314 550 , 317 550 
Q 321 550 , 322 550 
" fill="#F5C000" />
<path d="
M 330 547 
L 339 547 
L 339 549 
Q 339 550 , 343 550 
Q 346 550 , 355 550 
Q 364 550 , 367 550 
Q 371 550 , 371 549 
L 371 547 
L 380 547 
L 380 549 
Q 380 550 , 374 550 
Q 367 550 , 355 550 
Q 343 550 , 336 550 
Q 330 550 , 330 549 
L 330 547 
" fill="lightgray" />
<path d="
M 305 542 
L 296 544 
L 313 544 
L 305 542 
M 301 541 
L 309 541 
L 330 547 
L 322 547 
L 316 545 
L 294 545 
L 287 547 
L 280 547 
L 301 541 
" fill="#339541" />
<path d="
M 330 541 
L 339 541 
L 339 544 
Q 339 545 , 343 546 
Q 346 546 , 355 546 
Q 364 546 , 367 546 
Q 371 545 , 371 544 
L 371 541 
L 380 541 
L 380 545 
Q 380 546 , 374 546 
Q 367 547 , 355 547 
Q 343 547 , 336 546 
Q 330 546 , 330 545 
L 330 541 
" fill="lightgray" />
<path d="
M 280 523 
L 289 523 
L 289 533 
Q 289 536 , 293 538 
Q 296 539 , 305 539 
Q 314 539 , 317 538 
Q 321 536 , 321 533 
L 321 523 
L 330 523 
L 330 534 
Q 330 537 , 324 539 
Q 317 541 , 305 541 
Q 293 541 , 286 539 
Q 280 537 , 280 534 
L 280 523 
" fill="#D21010" />
<path d="
M 372 538 
L 372 533 
L 358 533 
L 358 531 
L 380 531 
L 380 539 
Q 375 540 , 369 540 
Q 364 541 , 358 541 
Q 345 541 , 338 538 
Q 330 536 , 330 532 
Q 330 528 , 338 525 
Q 345 523 , 358 523 
Q 364 523 , 369 523 
Q 374 524 , 379 524 
L 379 527 
Q 372 526 , 368 525 
Q 364 525 , 359 525 
Q 349 525 , 343 527 
Q 338 528 , 338 532 
Q 338 535 , 343 537 
Q 349 539 , 359 539 
Q 364 539 , 367 538 
Q 371 538 , 372 538 
" fill="lightgray" />
<path d="
M 330 506 
L 330 509 
Q 323 507 , 319 507 
Q 314 506 , 309 506 
Q 299 506 , 294 508 
Q 288 510 , 288 513 
Q 288 517 , 294 519 
Q 299 521 , 309 521 
Q 314 521 , 319 520 
Q 323 520 , 330 518 
L 330 521 
Q 325 522 , 319 522 
Q 315 523 , 309 523 
Q 295 523 , 288 520 
Q 280 518 , 280 513 
Q 280 509 , 288 507 
Q 295 504 , 309 504 
Q 315 504 , 320 504 
Q 325 505 , 330 506 
" fill="#545FFF" />
<path d="
M 372 520 
L 372 515 
L 358 515 
L 358 513 
L 380 513 
L 380 521 
Q 375 522 , 369 522 
Q 364 523 , 358 523 
Q 345 523 , 338 520 
Q 330 518 , 330 513 
Q 330 509 , 338 506 
Q 345 504 , 358 504 
Q 364 504 , 369 504 
Q 374 505 , 379 506 
L 379 508 
Q 372 507 , 368 507 
Q 364 506 , 359 506 
Q 349 506 , 343 508 
Q 338 510 , 338 513 
Q 338 517 , 343 519 
Q 349 521 , 359 521 
Q 364 521 , 367 520 
Q 371 520 , 372 520 
" fill="lightgray" />
<path d="
M 280 477 
L 289 477 
L 289 493 
Q 289 497 , 293 499 
Q 296 501 , 305 501 
Q 314 501 , 317 499 
Q 321 497 , 321 493 
L 321 477 
L 330 477 
L 330 493 
Q 330 498 , 324 501 
Q 317 504 , 305 504 
Q 293 504 , 286 501 
Q 280 498 , 280 493 
L 280 477 
" fill="#D21010" />
<path d="
M 355 482 
L 346 493 
L 363 493 
L 355 482 
M 351 477 
L 359 477 
L 380 504 
L 372 504 
L 366 496 
L 344 496 
L 337 504 
L 330 504 
L 351 477 
" fill="lightgray" />
<path d="
M 485 552 
L 485 553 
Q 470 552 , 462 552 
Q 454 552 , 444 552 
Q 423 552 , 413 553 
Q 401 553 , 401 553 
Q 401 554 , 413 554 
Q 423 554 , 444 554 
Q 454 554 , 462 554 
Q 470 554 , 485 554 
L 485 554 
Q 474 555 , 464 555 
Q 454 555 , 443 555 
Q 416 555 , 401 554 
Q 385 554 , 385 553 
Q 385 553 , 401 552 
Q 416 552 , 443 552 
Q 454 552 , 464 552 
Q 475 552 , 485 552 
" fill="#545FFF" />
<path d="
M 469 550 
L 469 547 
L 440 547 
L 440 546 
L 485 546 
L 485 551 
Q 474 551 , 463 552 
Q 454 552 , 442 552 
Q 416 552 , 400 550 
Q 385 549 , 385 546 
Q 385 544 , 400 542 
Q 416 541 , 442 541 
Q 453 541 , 462 541 
Q 472 541 , 482 542 
L 482 543 
Q 469 543 , 461 542 
Q 452 542 , 443 542 
Q 422 542 , 411 543 
Q 401 544 , 401 546 
Q 401 549 , 411 550 
Q 422 551 , 443 551 
Q 452 551 , 459 551 
Q 466 550 , 469 550 
" fill="#F5C000" />
<path d="
M 385 518 
L 403 518 
L 403 531 
Q 403 535 , 411 537 
Q 418 538 , 435 538 
Q 452 538 , 460 537 
Q 467 535 , 467 531 
L 467 518 
L 485 518 
L 485 532 
Q 485 536 , 472 538 
Q 460 541 , 435 541 
Q 411 541 , 398 538 
Q 385 536 , 385 532 
L 385 518 
" fill="#D21010" />
<path d="
M 435 363 
L 417 440 
L 451 440 
L 435 363 
M 428 328 
L 442 328 
L 485 517 
L 469 517 
L 457 461 
L 413 461 
L 400 517 
L 385 517 
L 428 328 
" fill="#339541" />
<path d="
M 590 552 
L 590 553 
Q 575 552 , 567 552 
Q 559 552 , 549 552 
Q 528 552 , 518 553 
Q 506 553 , 506 553 
Q 506 554 , 518 554 
Q 528 554 , 549 554 
Q 559 554 , 567 554 
Q 575 554 , 590 554 
L 590 554 
Q 579 554 , 569 554 
Q 559 554 , 548 554 
Q 521 554 , 506 554 
Q 490 554 , 490 553 
Q 490 553 , 506 552 
Q 521 552 , 548 552 
Q 559 552 , 569 552 
Q 580 552 , 590 552 
" fill="#545FFF" />
<path d="
M 490 546 
L 508 546 
L 508 549 
Q 508 550 , 516 551 
Q 523 551 , 540 551 
Q 557 551 , 565 551 
Q 572 550 , 572 549 
L 572 546 
L 590 546 
L 590 550 
Q 590 551 , 577 551 
Q 565 552 , 540 552 
Q 516 552 , 503 551 
Q 490 551 , 490 550 
L 490 546 
" fill="#D21010" />
<path d="
M 540 539 
L 522 542 
L 556 542 
L 540 539 
M 533 537 
L 547 537 
L 590 545 
L 574 545 
L 562 543 
L 518 543 
L 505 545 
L 490 545 
L 533 537 
" fill="#339541" />
<path d="
M 574 494 
L 574 414 
L 545 414 
L 545 381 
L 590 381 
L 590 513 
Q 579 526 , 568 531 
Q 559 536 , 547 536 
Q 521 536 , 505 496 
Q 490 457 , 490 387 
Q 490 318 , 505 278 
Q 521 238 , 547 238 
Q 558 238 , 567 243 
Q 577 249 , 587 262 
L 587 300 
Q 574 283 , 566 278 
Q 557 274 , 548 274 
Q 527 274 , 516 301 
Q 506 330 , 506 387 
Q 506 446 , 516 475 
Q 527 503 , 548 503 
Q 557 503 , 564 500 
Q 571 497 , 574 494 
" fill="#F5C000" />
<path d="
M 695 552 
L 695 553 
Q 680 552 , 672 552 
Q 664 552 , 654 552 
Q 633 552 , 623 553 
Q 611 553 , 611 553 
Q 611 554 , 623 554 
Q 633 554 , 654 554 
Q 664 554 , 672 554 
Q 680 554 , 695 554 
L 695 554 
Q 684 555 , 674 555 
Q 664 555 , 653 555 
Q 626 555 , 611 554 
Q 595 554 , 595 553 
Q 595 553 , 611 552 
Q 626 552 , 653 552 
Q 664 552 , 674 552 
Q 685 552 , 695 552 
" fill="#545FFF" />
<path d="
M 679 550 
L 679 548 
L 650 548 
L 650 547 
L 695 547 
L 695 551 
Q 684 551 , 673 551 
Q 664 551 , 652 551 
Q 626 551 , 610 550 
Q 595 549 , 595 547 
Q 595 545 , 610 544 
Q 626 543 , 652 543 
Q 663 543 , 672 543 
Q 682 543 , 692 544 
L 692 545 
Q 679 544 , 671 544 
Q 662 544 , 653 544 
Q 632 544 , 621 545 
Q 611 546 , 611 547 
Q 611 549 , 621 550 
Q 632 550 , 653 550 
Q 662 550 , 669 550 
Q 676 550 , 679 550 
" fill="#F5C000" />
<path d="
M 645 532 
L 627 538 
L 661 538 
L 645 532 
M 638 530 
L 652 530 
L 695 543 
L 679 543 
L 667 539 
L 623 539 
L 610 543 
L 595 543 
L 638 530 
" fill="#339541" />
<path d="
M 595 515 
L 613 515 
L 613 524 
Q 613 526 , 621 527 
Q 628 528 , 645 528 
Q 662 528 , 670 527 
Q 677 526 , 677 524 
L 677 515 
L 695 515 
L 695 524 
Q 695 527 , 682 528 
Q 670 529 , 645 529 
Q 621 529 , 608 528 
Q 595 527 , 595 524 
L 595 515 
" fill="#D21010" />
<path d="
M 800 554 
L 800 554 
Q 785 554 , 777 554 
Q 769 554 , 759 554 
Q 738 554 , 728 554 
Q 716 554 , 716 554 
Q 716 554 , 728 555 
Q 738 555 , 759 555 
Q 769 555 , 777 555 
Q 785 555 , 800 555 
L 800 555 
Q 789 555 , 779 555 
Q 769 555 , 758 555 
Q 731 555 , 716 555 
Q 700 555 , 700 554 
Q 700 554 , 716 554 
Q 731 554 , 758 554 
Q 769 554 , 779 554 
Q 790 554 , 800 554 
" fill="#545FFF" />
<path d="
M 700 552 
L 718 552 
L 718 553 
Q 718 553 , 726 553 
Q 733 553 , 750 553 
Q 767 553 , 775 553 
Q 782 553 , 782 553 
L 782 552 
L 800 552 
L 800 553 
Q 800 553 , 787 553 
Q 775 553 , 750 553 
Q 726 553 , 713 553 
Q 700 553 , 700 553 
L 700 552 
" fill="#D21010" />
<path d="
M 784 551 
L 784 551 
L 755 551 
L 755 551 
L 800 551 
L 800 551 
Q 789 551 , 778 551 
Q 769 551 , 757 551 
Q 731 551 , 715 551 
Q 700 551 , 700 551 
Q 700 550 , 715 550 
Q 731 550 , 757 550 
Q 768 550 , 777 550 
Q 787 550 , 797 550 
L 797 550 
Q 784 550 , 776 550 
Q 767 550 , 758 550 
Q 737 550 , 726 550 
Q 716 550 , 716 551 
Q 716 551 , 726 551 
Q 737 551 , 758 551 
Q 767 551 , 774 551 
Q 781 551 , 784 551 
" fill="#F5C000" />
<path d="
M 750 548 
L 732 549 
L 766 549 
L 750 548 
M 743 548 
L 757 548 
L 800 549 
L 784 549 
L 772 549 
L 728 549 
L 715 549 
L 700 549 
L 743 548 
" fill="#339541" />
<path d="
M 905 550 
L 905 551 
Q 890 551 , 882 551 
Q 874 551 , 864 551 
Q 843 551 , 833 551 
Q 821 551 , 821 552 
Q 821 553 , 833 554 
Q 843 554 , 864 554 
Q 874 554 , 882 554 
Q 890 554 , 905 553 
L 905 554 
Q 894 554 , 884 554 
Q 874 555 , 863 555 
Q 836 555 , 821 554 
Q 805 553 , 805 552 
Q 805 551 , 821 551 
Q 836 550 , 863 550 
Q 874 550 , 884 550 
Q 895 550 , 905 550 
" fill="#545FFF" />
<path d="
M 889 547 
L 889 544 
L 860 544 
L 860 543 
L 905 543 
L 905 548 
Q 894 549 , 883 549 
Q 874 549 , 862 549 
Q 836 549 , 820 548 
Q 805 546 , 805 543 
Q 805 540 , 820 539 
Q 836 537 , 862 537 
Q 873 537 , 882 537 
Q 892 537 , 902 538 
L 902 540 
Q 889 539 , 881 539 
Q 872 538 , 863 538 
Q 842 538 , 831 540 
Q 821 541 , 821 543 
Q 821 545 , 831 547 
Q 842 548 , 863 548 
Q 872 548 , 879 548 
Q 886 548 , 889 547 
" fill="#F5C000" />
<path d="
M 805 519 
L 823 519 
L 823 529 
Q 823 532 , 831 533 
Q 838 534 , 855 534 
Q 872 534 , 880 533 
Q 887 532 , 887 529 
L 887 519 
L 905 519 
L 905 529 
Q 905 533 , 892 534 
Q 880 536 , 855 536 
Q 831 536 , 818 534 
Q 805 533 , 805 529 
L 805 519 
" fill="#D21010" />
<path d="
M 855 481 
L 837 500 
L 871 500 
L 855 481 
M 848 473 
L 862 473 
L 905 518 
L 889 518 
L 877 505 
L 833 505 
L 820 518 
L 805 518 
L 848 473 
" fill="#339541" />
<path d="
M 1010 554 
L 1010 554 
Q 995 554 , 987 554 
Q 979 554 , 969 554 
Q 948 554 , 938 554 
Q 926 554 , 926 554 
Q 926 555 , 938 555 
Q 948 555 , 969 555 
Q 979 555 , 987 555 
Q 995 555 , 1010 555 
L 1010 555 
Q 999 555 , 989 555 
Q 979 555 , 968 555 
Q 941 555 , 926 555 
Q 910 555 , 910 554 
Q 910 554 , 926 554 
Q 941 554 , 968 554 
Q 979 554 , 989 554 
Q 1000 554 , 1010 554 
" fill="#545FFF" />
<path d="
M 910 540 
L 928 540 
L 928 548 
Q 928 550 , 936 551 
Q 943 552 , 960 552 
Q 977 552 , 985 551 
Q 992 550 , 992 548 
L 992 540 
L 1010 540 
L 1010 548 
Q 1010 551 , 997 552 
Q 985 554 , 960 554 
Q 936 554 , 923 552 
Q 910 551 , 910 548 
L 910 540 
" fill="#D21010" />
<path d="
M 960 510 
L 942 524 
L 976 524 
L 960 510 
M 953 503 
L 967 503 
L 1010 539 
L 994 539 
L 982 528 
L 938 528 
L 925 539 
L 910 539 
L 953 503 
" fill="#339541" />
<path d="
M 994 496 
L 994 483 
L 965 483 
L 965 477 
L 1010 477 
L 1010 499 
Q 999 501 , 988 502 
Q 979 503 , 967 503 
Q 941 503 , 925 496 
Q 910 490 , 910 478 
Q 910 467 , 925 461 
Q 941 454 , 967 454 
Q 978 454 , 987 455 
Q 997 456 , 1007 458 
L 1007 464 
Q 994 461 , 986 461 
Q 977 460 , 968 460 
Q 947 460 , 936 464 
Q 926 469 , 926 478 
Q 926 488 , 936 493 
Q 947 497 , 968 497 
Q 977 497 , 984 497 
Q 991 496 , 994 496 
" fill="#F5C000" />
<path d="
M 1057 554 
L 1057 553 
L 1043 553 
L 1043 552 
L 1065 552 
L 1065 554 
Q 1060 554 , 1054 554 
Q 1049 554 , 1043 554 
Q 1030 554 , 1023 554 
Q 1015 553 , 1015 553 
Q 1015 552 , 1023 551 
Q 1030 551 , 1043 551 
Q 1049 551 , 1054 551 
Q 1059 551 , 1064 551 
L 1064 552 
Q 1057 551 , 1053 551 
Q 1049 551 , 1044 551 
Q 1034 551 , 1028 552 
Q 1023 552 , 1023 553 
Q 1023 553 , 1028 553 
Q 1034 554 , 1044 554 
Q 1049 554 , 1052 554 
Q 1056 554 , 1057 554 
" fill="lightgray" />
<path d="
M 1115 551 
L 1115 552 
Q 1108 551 , 1104 551 
Q 1099 551 , 1094 551 
Q 1084 551 , 1079 552 
Q 1073 552 , 1073 552 
Q 1073 553 , 1079 553 
Q 1084 554 , 1094 554 
Q 1099 554 , 1104 554 
Q 1108 554 , 1115 553 
L 1115 554 
Q 1110 554 , 1104 554 
Q 1100 554 , 1094 554 
Q 1080 554 , 1073 554 
Q 1065 553 , 1065 553 
Q 1065 552 , 1073 551 
Q 1080 551 , 1094 551 
Q 1100 551 , 1105 551 
Q 1110 551 , 1115 551 
" fill="#545FFF" />
<path d="
M 1057 550 
L 1057 549 
L 1043 549 
L 1043 549 
L 1065 549 
L 1065 550 
Q 1060 550 , 1054 550 
Q 1049 550 , 1043 550 
Q 1030 550 , 1023 550 
Q 1015 550 , 1015 549 
Q 1015 548 , 1023 547 
Q 1030 547 , 1043 547 
Q 1049 547 , 1054 547 
Q 1059 547 , 1064 547 
L 1064 548 
Q 1057 548 , 1053 547 
Q 1049 547 , 1044 547 
Q 1034 547 , 1028 548 
Q 1023 548 , 1023 549 
Q 1023 549 , 1028 550 
Q 1034 550 , 1044 550 
Q 1049 550 , 1052 550 
Q 1056 550 , 1057 550 
" fill="lightgray" />
<path d="
M 1065 547 
L 1074 547 
L 1074 549 
Q 1074 550 , 1078 550 
Q 1081 550 , 1090 550 
Q 1099 550 , 1102 550 
Q 1106 550 , 1106 549 
L 1106 547 
L 1115 547 
L 1115 549 
Q 1115 550 , 1109 550 
Q 1102 550 , 1090 550 
Q 1078 550 , 1071 550 
Q 1065 550 , 1065 549 
L 1065 547 
" fill="#D21010" />
<path d="
M 1040 542 
L 1031 544 
L 1048 544 
L 1040 542 
M 1036 541 
L 1044 541 
L 1065 547 
L 1057 547 
L 1051 545 
L 1029 545 
L 1022 547 
L 1015 547 
L 1036 541 
" fill="lightgray" />
<path d="
M 1065 541 
L 1074 541 
L 1074 544 
Q 1074 545 , 1078 546 
Q 1081 546 , 1090 546 
Q 1099 546 , 1102 546 
Q 1106 545 , 1106 544 
L 1106 541 
L 1115 541 
L 1115 545 
Q 1115 546 , 1109 546 
Q 1102 547 , 1090 547 
Q 1078 547 , 1071 546 
Q 1065 546 , 1065 545 
L 1065 541 
" fill="#D21010" />
<path d="
M 1015 523 
L 1024 523 
L 1024 533 
Q 1024 536 , 1028 538 
Q 1031 539 , 1040 539 
Q 1049 539 , 1052 538 
Q 1056 536 , 1056 533 
L 1056 523 
L 1065 523 
L 1065 534 
Q 1065 537 , 1059 539 
Q 1052 541 , 1040 541 
Q 1028 541 , 1021 539 
Q 1015 537 , 1015 534 
L 1015 523 
" fill="lightgray" />
<path d="
M 1107 538 
L 1107 533 
L 1093 533 
L 1093 531 
L 1115 531 
L 1115 539 
Q 1110 540 , 1104 540 
Q 1099 541 , 1093 541 
Q 1080 541 , 1073 538 
Q 1065 536 , 1065 532 
Q 1065 528 , 1073 525 
Q 1080 523 , 1093 523 
Q 1099 523 , 1104 523 
Q 1109 524 , 1114 524 
L 1114 527 
Q 1107 526 , 1103 525 
Q 1099 525 , 1094 525 
Q 1084 525 , 1078 527 
Q 1073 528 , 1073 532 
Q 1073 535 , 1078 537 
Q 1084 539 , 1094 539 
Q 1099 539 , 1102 538 
Q 1106 538 , 1107 538 
" fill="#F5C000" />
<path d="
M 1065 506 
L 1065 509 
Q 1058 507 , 1054 507 
Q 1049 506 , 1044 506 
Q 1034 506 , 1029 508 
Q 1023 510 , 1023 513 
Q 1023 517 , 1029 519 
Q 1034 521 , 1044 521 
Q 1049 521 , 1054 520 
Q 1058 520 , 1065 518 
L 1065 521 
Q 1060 522 , 1054 522 
Q 1050 523 , 1044 523 
Q 1030 523 , 1023 520 
Q 1015 518 , 1015 513 
Q 1015 509 , 1023 507 
Q 1030 504 , 1044 504 
Q 1050 504 , 1055 504 
Q 1060 505 , 1065 506 
" fill="lightgray" />
<path d="
M 1107 520 
L 1107 515 
L 1093 515 
L 1093 513 
L 1115 513 
L 1115 521 
Q 1110 522 , 1104 522 
Q 1099 523 , 1093 523 
Q 1080 523 , 1073 520 
Q 1065 518 , 1065 513 
Q 1065 509 , 1073 506 
Q 1080 504 , 1093 504 
Q 1099 504 , 1104 504 
Q 1109 505 , 1114 506 
L 1114 508 
Q 1107 507 , 1103 507 
Q 1099 506 , 1094 506 
Q 1084 506 , 1078 508 
Q 1073 510 , 1073 513 
Q 1073 517 , 1078 519 
Q 1084 521 , 1094 521 
Q 1099 521 , 1102 520 
Q 1106 520 , 1107 520 
" fill="#F5C000" />
<path d="
M 1015 477 
L 1024 477 
L 1024 493 
Q 1024 497 , 1028 499 
Q 1031 501 , 1040 501 
Q 1049 501 , 1052 499 
Q 1056 497 , 1056 493 
L 1056 477 
L 1065 477 
L 1065 493 
Q 1065 498 , 1059 501 
Q 1052 504 , 1040 504 
Q 1028 504 , 1021 501 
Q 1015 498 , 1015 493 
L 1015 477 
" fill="lightgray" />
<path d="
M 1090 482 
L 1081 493 
L 1098 493 
L 1090 482 
M 1086 477 
L 1094 477 
L 1115 504 
L 1107 504 
L 1101 496 
L 1079 496 
L 1072 504 
L 1065 504 
L 1086 477 
" fill="#339541" />
<path d="
M 1220 552 
L 1220 553 
Q 1205 552 , 1197 552 
Q 1189 552 , 1179 552 
Q 1158 552 , 1148 552 
Q 1136 553 , 1136 553 
Q 1136 554 , 1148 554 
Q 1158 554 , 1179 554 
Q 1189 554 , 1197 554 
Q 1205 554 , 1220 554 
L 1220 554 
Q 1209 554 , 1199 554 
Q 1189 554 , 1178 554 
Q 1151 554 , 1136 554 
Q 1120 554 , 1120 553 
Q 1120 553 , 1136 552 
Q 1151 552 , 1178 552 
Q 1189 552 , 1199 552 
Q 1210 552 , 1220 552 
" fill="#545FFF" />
<path d="
M 1120 546 
L 1138 546 
L 1138 550 
Q 1138 551 , 1146 551 
Q 1153 551 , 1170 551 
Q 1187 551 , 1195 551 
Q 1202 551 , 1202 550 
L 1202 546 
L 1220 546 
L 1220 550 
Q 1220 551 , 1207 551 
Q 1195 552 , 1170 552 
Q 1146 552 , 1133 551 
Q 1120 551 , 1120 550 
L 1120 546 
" fill="#D21010" />
<path d="
M 1204 545 
L 1204 544 
L 1175 544 
L 1175 543 
L 1220 543 
L 1220 546 
Q 1209 546 , 1198 546 
Q 1189 546 , 1177 546 
Q 1151 546 , 1135 545 
Q 1120 544 , 1120 543 
Q 1120 542 , 1135 541 
Q 1151 540 , 1177 540 
Q 1188 540 , 1197 540 
Q 1207 540 , 1217 540 
L 1217 541 
Q 1204 541 , 1196 541 
Q 1187 541 , 1178 541 
Q 1157 541 , 1146 541 
Q 1136 542 , 1136 543 
Q 1136 544 , 1146 545 
Q 1157 545 , 1178 545 
Q 1187 545 , 1194 545 
Q 1201 545 , 1204 545 
" fill="#F5C000" />
<path d="
M 1170 532 
L 1152 536 
L 1186 536 
L 1170 532 
M 1163 531 
L 1177 531 
L 1220 539 
L 1204 539 
L 1192 537 
L 1148 537 
L 1135 539 
L 1120 539 
L 1163 531 
" fill="#339541" />
<path d="
M 1225 550 
L 1243 550 
L 1243 552 
Q 1243 553 , 1251 553 
Q 1258 554 , 1275 554 
Q 1292 554 , 1300 553 
Q 1307 553 , 1307 552 
L 1307 550 
L 1325 550 
L 1325 553 
Q 1325 553 , 1312 554 
Q 1300 554 , 1275 554 
Q 1251 554 , 1238 554 
Q 1225 553 , 1225 553 
L 1225 550 
" fill="#D21010" />
<path d="
M 1325 543 
L 1325 544 
Q 1310 543 , 1302 543 
Q 1294 543 , 1284 543 
Q 1263 543 , 1253 544 
Q 1241 544 , 1241 545 
Q 1241 547 , 1253 548 
Q 1263 549 , 1284 549 
Q 1294 549 , 1302 548 
Q 1310 548 , 1325 548 
L 1325 549 
Q 1314 549 , 1304 549 
Q 1294 549 , 1283 549 
Q 1256 549 , 1241 548 
Q 1225 547 , 1225 546 
Q 1225 544 , 1241 543 
Q 1256 542 , 1283 542 
Q 1294 542 , 1304 542 
Q 1315 542 , 1325 543 
" fill="#545FFF" />
<path d="
M 1309 540 
L 1309 537 
L 1280 537 
L 1280 536 
L 1325 536 
L 1325 541 
Q 1314 541 , 1303 541 
Q 1294 542 , 1282 542 
Q 1256 542 , 1240 540 
Q 1225 538 , 1225 536 
Q 1225 533 , 1240 532 
Q 1256 530 , 1282 530 
Q 1293 530 , 1302 530 
Q 1312 530 , 1322 531 
L 1322 532 
Q 1309 532 , 1301 532 
Q 1292 531 , 1283 531 
Q 1262 531 , 1251 532 
Q 1241 534 , 1241 536 
Q 1241 538 , 1251 539 
Q 1262 540 , 1283 540 
Q 1292 540 , 1299 540 
Q 1306 540 , 1309 540 
" fill="#F5C000" />
<path d="
M 1275 512 
L 1257 520 
L 1291 520 
L 1275 512 
M 1268 508 
L 1282 508 
L 1325 529 
L 1309 529 
L 1297 523 
L 1253 523 
L 1240 529 
L 1225 529 
L 1268 508 
" fill="#339541" />
<path d="
M 1430 554 
L 1430 554 
Q 1415 554 , 1407 554 
Q 1399 554 , 1389 554 
Q 1368 554 , 1358 554 
Q 1346 554 , 1346 554 
Q 1346 554 , 1358 555 
Q 1368 555 , 1389 555 
Q 1399 555 , 1407 555 
Q 1415 555 , 1430 555 
L 1430 555 
Q 1419 555 , 1409 555 
Q 1399 555 , 1388 555 
Q 1361 555 , 1346 555 
Q 1330 555 , 1330 554 
Q 1330 554 , 1346 554 
Q 1361 554 , 1388 554 
Q 1399 554 , 1409 554 
Q 1420 554 , 1430 554 
" fill="#545FFF" />
<path d="
M 1330 552 
L 1348 552 
L 1348 553 
Q 1348 553 , 1356 553 
Q 1363 553 , 1380 553 
Q 1397 553 , 1405 553 
Q 1412 553 , 1412 553 
L 1412 552 
L 1430 552 
L 1430 553 
Q 1430 553 , 1417 553 
Q 1405 553 , 1380 553 
Q 1356 553 , 1343 553 
Q 1330 553 , 1330 553 
L 1330 552 
" fill="#D21010" />
<path d="
M 1414 551 
L 1414 551 
L 1385 551 
L 1385 551 
L 1430 551 
L 1430 551 
Q 1419 551 , 1408 551 
Q 1399 551 , 1387 551 
Q 1361 551 , 1345 551 
Q 1330 551 , 1330 551 
Q 1330 550 , 1345 550 
Q 1361 550 , 1387 550 
Q 1398 550 , 1407 550 
Q 1417 550 , 1427 550 
L 1427 550 
Q 1414 550 , 1406 550 
Q 1397 550 , 1388 550 
Q 1367 550 , 1356 550 
Q 1346 550 , 1346 551 
Q 1346 551 , 1356 551 
Q 1367 551 , 1388 551 
Q 1397 551 , 1404 551 
Q 1411 551 , 1414 551 
" fill="#F5C000" />
<path d="
M 1380 548 
L 1362 549 
L 1396 549 
L 1380 548 
M 1373 548 
L 1387 548 
L 1430 549 
L 1414 549 
L 1402 549 
L 1358 549 
L 1345 549 
L 1330 549 
L 1373 548 
" fill="#339541" />
<path d="M 65 168 L 65 555 " stroke="black" stroke-width="1.5"/>
<path d="M 55 555 L 65 555 " stroke="black" stroke-width="4"/>
<text text-anchor="end" x="50" y="555" font-size="50" alignment-baseline="middle">0</text>
<path d="M 55 362 L 65 362 " stroke="black" stroke-width="4"/>
<text text-anchor="end" x="50" y="362" font-size="50" alignment-baseline="middle">1</text>
<path d="M 55 168 L 65 168 " stroke="black" stroke-width="4"/>
<text text-anchor="end" x="50" y="168" font-size="50" alignment-baseline="middle">2</text>
<text text-anchor="middle" x="750" y="50" font-size="50" alignment-baseline="baseline"></text>
G<path d="
M 160 582 
L 126 595 
L 160 608 
L 157 611 
L 123 598 
L 123 623 
L 117 623 
L 117 599 
L 83 611 
L 80 608 
L 114 595 
L 80 582 
L 83 579 
L 117 591 
L 117 567 
L 123 567 
L 123 591 
L 157 579 
L 160 582 
" fill="black" />
<path d="
" fill="black" />
<path d="
M 211 567 
L 238 567 
L 238 623 
L 211 623 
L 211 567 
" fill="black" />
<path d="
" fill="black" />
<path d="
M 370 567 
Q 341 574 , 328 581 
Q 315 588 , 315 595 
Q 315 602 , 328 609 
Q 341 616 , 370 623 
L 346 623 
Q 318 616 , 304 609 
Q 290 602 , 290 595 
Q 290 588 , 304 581 
Q 318 574 , 346 567 
L 370 567 
" fill="black" />
<path d="
" fill="black" />
<path d="
M 421 567 
L 448 567 
L 448 623 
L 421 623 
L 421 567 
" fill="black" />
<path d="
" fill="black" />
<path d="
" fill="black" />
<path d="
M 526 567 
L 553 567 
L 553 623 
L 526 623 
L 526 567 
" fill="black" />
<path d="
" fill="black" />
<path d="
" fill="black" />
<path d="
M 622 567 
L 642 567 
L 642 623 
L 622 623 
L 622 567 
" fill="black" />
<path d="
" fill="black" />
<path d="
M 682 595 
Q 679 595 , 677 599 
Q 675 602 , 675 607 
Q 675 613 , 677 616 
Q 679 619 , 682 619 
Q 685 619 , 687 616 
Q 689 613 , 689 607 
Q 689 602 , 687 599 
Q 685 595 , 682 595 
M 677 593 
Q 675 592 , 674 589 
Q 673 586 , 673 581 
Q 673 575 , 675 571 
Q 678 567 , 682 567 
Q 686 567 , 689 571 
Q 691 575 , 691 581 
Q 691 586 , 690 589 
Q 688 592 , 687 593 
Q 689 594 , 690 598 
Q 692 601 , 692 607 
Q 692 614 , 689 619 
Q 687 623 , 682 623 
Q 677 623 , 675 619 
Q 672 614 , 672 607 
Q 672 601 , 674 598 
Q 675 594 , 677 593 
M 677 573 
Q 675 576 , 675 581 
Q 675 586 , 677 589 
Q 679 592 , 682 592 
Q 685 592 , 687 589 
Q 689 586 , 689 581 
Q 689 576 , 687 574 
Q 685 571 , 682 571 
Q 679 571 , 677 573 
" fill="black" />
<path d="
M 790 582 
L 756 595 
L 790 608 
L 787 611 
L 753 598 
L 753 623 
L 747 623 
L 747 599 
L 713 611 
L 710 608 
L 744 595 
L 710 582 
L 713 579 
L 747 591 
L 747 567 
L 753 567 
L 753 591 
L 787 579 
L 790 582 
" fill="black" />
<path d="
" fill="black" />
<path d="
M 841 567 
L 868 567 
L 868 623 
L 841 623 
L 841 567 
" fill="black" />
<path d="
" fill="black" />
<path d="
" fill="black" />
<path d="
M 946 567 
L 973 567 
L 973 623 
L 946 623 
L 946 567 
" fill="black" />
<path d="
" fill="black" />
<path d="
M 1025 567 
L 1049 567 
Q 1077 574 , 1091 581 
Q 1105 588 , 1105 595 
Q 1105 602 , 1091 609 
Q 1077 616 , 1049 623 
L 1025 623 
Q 1054 616 , 1067 609 
Q 1080 602 , 1080 595 
Q 1080 588 , 1067 581 
Q 1054 574 , 1025 567 
" fill="black" />
<path d="
" fill="black" />
<path d="
M 1156 567 
L 1183 567 
L 1183 623 
L 1156 623 
L 1156 567 
" fill="black" />
<path d="
" fill="black" />
<path d="
" fill="black" />
<path d="
M 1261 567 
L 1288 567 
L 1288 623 
L 1261 623 
L 1261 567 
" fill="black" />
<path d="
" fill="black" />
<path d="
M 1420 582 
L 1386 595 
L 1420 608 
L 1417 611 
L 1383 598 
L 1383 623 
L 1377 623 
L 1377 599 
L 1343 611 
L 1340 608 
L 1374 595 
L 1340 582 
L 1343 579 
L 1377 591 
L 1377 567 
L 1383 567 
L 1383 591 
L 1417 579 
L 1420 582 
" fill="black" />
</svg>
