<svg xmlns="http://www.w3.org/2000/svg"
viewBox="0 0 1015 615">
<path d="
M 70 553 
Q 70 552 , 86 551 
Q 102 551 , 133 551 
Q 149 551 , 168 551 
L 168 552 
Q 146 552 , 133 552 
Q 102 552 , 102 553 
Q 102 553 , 110 553 
Q 118 554 , 133 554 
Q 146 554 , 170 554 
L 170 554 
Q 151 554 , 133 554 
Q 102 554 , 86 554 
Q 70 554 , 70 553 
" fill="#545FFF" stroke="black" stroke-width="1"/>
<path d="
M 157 549 
Q 145 550 , 121 550 
Q 97 550 , 83 549 
Q 70 548 , 70 545 
L 70 532 
L 102 532 
L 102 545 
Q 102 546 , 106 546 
Q 111 547 , 121 547 
Q 132 547 , 136 546 
Q 141 546 , 141 545 
L 141 532 
L 170 532 
L 170 545 
Q 170 548 , 157 549 
" fill="#D21010" stroke="black" stroke-width="1"/>
<path d="
M 141 526 
L 141 516 
L 108 516 
L 108 510 
L 170 510 
L 170 530 
Q 148 532 , 128 532 
Q 99 532 , 84 527 
Q 70 523 , 70 514 
Q 70 505 , 84 501 
Q 99 497 , 130 497 
Q 143 497 , 163 498 
L 163 504 
Q 143 502 , 130 502 
Q 114 502 , 105 505 
Q 97 508 , 97 514 
Q 97 526 , 128 526 
Q 137 526 , 141 526 
" fill="#F5C000" stroke="black" stroke-width="1"/>
<path d="
M 115 410 
L 125 410 
L 111 453 
L 129 453 
L 115 410 
M 134 469 
L 102 469 
L 93 497 
L 70 497 
L 106 394 
L 134 394 
L 170 497 
L 143 497 
L 134 469 
" fill="#339541" stroke="black" stroke-width="1"/>
<path d="
M 175 552 
Q 175 550 , 191 549 
Q 207 549 , 238 549 
Q 254 549 , 273 549 
L 273 550 
Q 251 550 , 238 550 
Q 207 550 , 207 552 
Q 207 553 , 215 553 
Q 223 554 , 238 554 
Q 251 554 , 275 554 
L 275 555 
Q 256 555 , 238 555 
Q 207 555 , 191 554 
Q 175 554 , 175 552 
" fill="#545FFF" stroke="black" stroke-width="1"/>
<path d="
M 262 547 
Q 250 548 , 226 548 
Q 202 548 , 188 547 
Q 175 546 , 175 544 
L 175 535 
L 207 535 
L 207 544 
Q 207 545 , 211 545 
Q 216 546 , 226 546 
Q 237 546 , 241 545 
Q 246 545 , 246 544 
L 246 535 
L 275 535 
L 275 544 
Q 275 546 , 262 547 
" fill="#D21010" stroke="black" stroke-width="1"/>
<path d="
M 220 507 
L 230 507 
L 216 521 
L 234 521 
L 220 507 
M 239 526 
L 207 526 
L 198 534 
L 175 534 
L 211 502 
L 239 502 
L 275 534 
L 248 534 
L 239 526 
" fill="#339541" stroke="black" stroke-width="1"/>
<path d="
M 246 489 
L 246 467 
L 213 467 
L 213 456 
L 275 456 
L 275 496 
Q 253 501 , 233 501 
Q 204 501 , 189 492 
Q 175 483 , 175 464 
Q 175 445 , 189 436 
Q 204 427 , 235 427 
Q 248 427 , 268 430 
L 268 442 
Q 248 438 , 235 438 
Q 219 438 , 210 444 
Q 202 450 , 202 464 
Q 202 490 , 233 490 
Q 242 490 , 246 489 
" fill="#F5C000" stroke="black" stroke-width="1"/>
<path d="
M 280 553 
Q 280 553 , 296 552 
Q 312 552 , 343 552 
Q 359 552 , 378 552 
L 378 552 
Q 356 552 , 343 552 
Q 312 552 , 312 553 
Q 312 554 , 320 554 
Q 328 554 , 343 554 
Q 356 554 , 380 554 
L 380 554 
Q 361 554 , 343 554 
Q 312 554 , 296 554 
Q 280 554 , 280 553 
" fill="#545FFF" stroke="black" stroke-width="1"/>
<path d="
M 325 533 
L 335 533 
L 321 543 
L 339 543 
L 325 533 
M 344 546 
L 312 546 
L 303 552 
L 280 552 
L 316 530 
L 344 530 
L 380 552 
L 353 552 
L 344 546 
" fill="#339541" stroke="black" stroke-width="1"/>
<path d="
M 367 528 
Q 355 530 , 331 530 
Q 307 530 , 293 528 
Q 280 526 , 280 522 
L 280 504 
L 312 504 
L 312 522 
Q 312 524 , 316 525 
Q 321 526 , 331 526 
Q 342 526 , 346 525 
Q 351 524 , 351 522 
L 351 504 
L 380 504 
L 380 522 
Q 380 526 , 367 528 
" fill="#D21010" stroke="black" stroke-width="1"/>
<path d="
M 351 494 
L 351 479 
L 318 479 
L 318 471 
L 380 471 
L 380 500 
Q 358 503 , 338 503 
Q 309 503 , 294 496 
Q 280 490 , 280 477 
Q 280 463 , 294 456 
Q 309 450 , 340 450 
Q 353 450 , 373 452 
L 373 461 
Q 353 458 , 340 458 
Q 324 458 , 315 462 
Q 307 466 , 307 477 
Q 307 495 , 338 495 
Q 347 495 , 351 494 
" fill="#F5C000" stroke="black" stroke-width="1"/>
<path d="
M 430 552 
L 440 552 
L 426 553 
L 444 553 
L 430 552 
M 449 554 
L 417 554 
L 408 555 
L 385 555 
L 421 551 
L 449 551 
L 485 555 
L 458 555 
L 449 554 
" fill="#339541" stroke="black" stroke-width="1"/>
<path d="
M 385 547 
Q 385 545 , 401 544 
Q 417 543 , 448 543 
Q 464 543 , 483 543 
L 483 545 
Q 461 544 , 448 544 
Q 417 544 , 417 547 
Q 417 549 , 425 549 
Q 433 550 , 448 550 
Q 461 550 , 485 549 
L 485 551 
Q 466 551 , 448 551 
Q 417 551 , 401 550 
Q 385 549 , 385 547 
" fill="#545FFF" stroke="black" stroke-width="1"/>
<path d="
M 456 541 
L 456 538 
L 423 538 
L 423 536 
L 485 536 
L 485 542 
Q 463 543 , 443 543 
Q 414 543 , 399 541 
Q 385 540 , 385 537 
Q 385 535 , 399 533 
Q 414 532 , 445 532 
Q 458 532 , 478 532 
L 478 534 
Q 458 534 , 445 534 
Q 429 534 , 420 534 
Q 412 535 , 412 537 
Q 412 541 , 443 541 
Q 452 541 , 456 541 
" fill="#F5C000" stroke="black" stroke-width="1"/>
<path d="
M 472 530 
Q 460 531 , 436 531 
Q 412 531 , 398 530 
Q 385 529 , 385 527 
L 385 517 
L 417 517 
L 417 527 
Q 417 528 , 421 528 
Q 426 529 , 436 529 
Q 447 529 , 451 528 
Q 456 528 , 456 527 
L 456 517 
L 485 517 
L 485 527 
Q 485 529 , 472 530 
" fill="#D21010" stroke="black" stroke-width="1"/>
<path d="
M 490 553 
Q 490 552 , 506 551 
Q 522 551 , 553 551 
Q 569 551 , 588 551 
L 588 552 
Q 566 552 , 553 552 
Q 522 552 , 522 553 
Q 522 553 , 530 553 
Q 538 554 , 553 554 
Q 566 554 , 590 554 
L 590 554 
Q 571 554 , 553 554 
Q 522 554 , 506 554 
Q 490 554 , 490 553 
" fill="#545FFF" stroke="black" stroke-width="1"/>
<path d="
M 561 548 
L 561 544 
L 528 544 
L 528 542 
L 590 542 
L 590 550 
Q 568 551 , 548 551 
Q 519 551 , 504 549 
Q 490 547 , 490 543 
Q 490 540 , 504 538 
Q 519 536 , 550 536 
Q 563 536 , 583 537 
L 583 539 
Q 563 538 , 550 538 
Q 534 538 , 525 539 
Q 517 541 , 517 543 
Q 517 549 , 548 549 
Q 557 549 , 561 548 
" fill="#F5C000" stroke="black" stroke-width="1"/>
<path d="
M 577 535 
Q 565 536 , 541 536 
Q 517 536 , 503 535 
Q 490 534 , 490 531 
L 490 520 
L 522 520 
L 522 531 
Q 522 532 , 526 532 
Q 531 533 , 541 533 
Q 552 533 , 556 532 
Q 561 532 , 561 531 
L 561 520 
L 590 520 
L 590 531 
Q 590 534 , 577 535 
" fill="#D21010" stroke="black" stroke-width="1"/>
<path d="
M 535 250 
L 545 250 
L 531 385 
L 549 385 
L 535 250 
M 554 434 
L 522 434 
L 513 519 
L 490 519 
L 526 201 
L 554 201 
L 590 519 
L 563 519 
L 554 434 
" fill="#339541" stroke="black" stroke-width="1"/>
<path d="
M 595 553 
Q 595 552 , 611 551 
Q 627 551 , 658 551 
Q 674 551 , 693 551 
L 693 552 
Q 671 552 , 658 552 
Q 627 552 , 627 553 
Q 627 554 , 635 554 
Q 643 554 , 658 554 
Q 671 554 , 695 554 
L 695 555 
Q 676 555 , 658 555 
Q 627 555 , 611 554 
Q 595 554 , 595 553 
" fill="#545FFF" stroke="black" stroke-width="1"/>
<path d="
M 682 549 
Q 670 550 , 646 550 
Q 622 550 , 608 549 
Q 595 549 , 595 548 
L 595 542 
L 627 542 
L 627 548 
Q 627 549 , 631 549 
Q 636 549 , 646 549 
Q 657 549 , 661 549 
Q 666 549 , 666 548 
L 666 542 
L 695 542 
L 695 548 
Q 695 549 , 682 549 
" fill="#D21010" stroke="black" stroke-width="1"/>
<path d="
M 640 534 
L 650 534 
L 636 538 
L 654 538 
L 640 534 
M 659 540 
L 627 540 
L 618 542 
L 595 542 
L 631 533 
L 659 533 
L 695 542 
L 668 542 
L 659 540 
" fill="#339541" stroke="black" stroke-width="1"/>
<path d="
M 666 467 
L 666 354 
L 633 354 
L 633 295 
L 695 295 
L 695 509 
Q 673 533 , 653 533 
Q 624 533 , 609 485 
Q 595 438 , 595 339 
Q 595 241 , 609 193 
Q 624 146 , 655 146 
Q 668 146 , 688 161 
L 688 226 
Q 668 205 , 655 205 
Q 639 205 , 630 235 
Q 622 266 , 622 339 
Q 622 473 , 653 473 
Q 662 473 , 666 467 
" fill="#F5C000" stroke="black" stroke-width="1"/>
<path d="
M 700 554 
Q 700 553 , 716 553 
Q 732 553 , 763 553 
Q 779 553 , 798 553 
L 798 553 
Q 776 553 , 763 553 
Q 732 553 , 732 554 
Q 732 554 , 740 554 
Q 748 555 , 763 555 
Q 776 555 , 800 555 
L 800 555 
Q 781 555 , 763 555 
Q 732 555 , 716 555 
Q 700 555 , 700 554 
" fill="#545FFF" stroke="black" stroke-width="1"/>
<path d="
M 771 550 
L 771 545 
L 738 545 
L 738 542 
L 800 542 
L 800 552 
Q 778 553 , 758 553 
Q 729 553 , 714 551 
Q 700 549 , 700 544 
Q 700 539 , 714 537 
Q 729 535 , 760 535 
Q 773 535 , 793 536 
L 793 539 
Q 773 538 , 760 538 
Q 744 538 , 735 539 
Q 727 541 , 727 544 
Q 727 550 , 758 550 
Q 767 550 , 771 550 
" fill="#F5C000" stroke="black" stroke-width="1"/>
<path d="
M 787 532 
Q 775 534 , 751 534 
Q 727 534 , 713 532 
Q 700 530 , 700 525 
L 700 502 
L 732 502 
L 732 524 
Q 732 527 , 736 528 
Q 741 529 , 751 529 
Q 762 529 , 766 528 
Q 771 527 , 771 524 
L 771 502 
L 800 502 
L 800 525 
Q 800 530 , 787 532 
" fill="#D21010" stroke="black" stroke-width="1"/>
<path d="
M 745 466 
L 755 466 
L 741 484 
L 759 484 
L 745 466 
M 764 491 
L 732 491 
L 723 502 
L 700 502 
L 736 460 
L 764 460 
L 800 502 
L 773 502 
L 764 491 
" fill="#339541" stroke="black" stroke-width="1"/>
<path d="
M 805 553 
Q 805 552 , 821 551 
Q 837 551 , 868 551 
Q 884 551 , 903 551 
L 903 552 
Q 881 552 , 868 552 
Q 837 552 , 837 553 
Q 837 553 , 845 553 
Q 853 554 , 868 554 
Q 881 554 , 905 554 
L 905 554 
Q 886 554 , 868 554 
Q 837 554 , 821 554 
Q 805 554 , 805 553 
" fill="#545FFF" stroke="black" stroke-width="1"/>
<path d="
M 892 549 
Q 880 550 , 856 550 
Q 832 550 , 818 549 
Q 805 549 , 805 547 
L 805 540 
L 837 540 
L 837 547 
Q 837 548 , 841 548 
Q 846 549 , 856 549 
Q 867 549 , 871 548 
Q 876 548 , 876 547 
L 876 540 
L 905 540 
L 905 547 
Q 905 549 , 892 549 
" fill="#D21010" stroke="black" stroke-width="1"/>
<path d="
M 876 537 
L 876 532 
L 843 532 
L 843 530 
L 905 530 
L 905 539 
Q 883 540 , 863 540 
Q 834 540 , 819 538 
Q 805 536 , 805 532 
Q 805 528 , 819 526 
Q 834 524 , 865 524 
Q 878 524 , 898 525 
L 898 527 
Q 878 526 , 865 526 
Q 849 526 , 840 527 
Q 832 529 , 832 532 
Q 832 537 , 863 537 
Q 872 537 , 876 537 
" fill="#F5C000" stroke="black" stroke-width="1"/>
<path d="
M 850 509 
L 860 509 
L 846 516 
L 864 516 
L 850 509 
M 869 519 
L 837 519 
L 828 523 
L 805 523 
L 841 506 
L 869 506 
L 905 523 
L 878 523 
L 869 519 
" fill="#339541" stroke="black" stroke-width="1"/>
<path d="
M 910 553 
Q 910 552 , 926 551 
Q 942 551 , 973 551 
Q 989 551 , 1008 551 
L 1008 552 
Q 986 552 , 973 552 
Q 942 552 , 942 553 
Q 942 553 , 950 553 
Q 958 554 , 973 554 
Q 986 554 , 1010 554 
L 1010 554 
Q 991 554 , 973 554 
Q 942 554 , 926 554 
Q 910 554 , 910 553 
" fill="#545FFF" stroke="black" stroke-width="1"/>
<path d="
M 997 549 
Q 985 550 , 961 550 
Q 937 550 , 923 549 
Q 910 548 , 910 545 
L 910 531 
L 942 531 
L 942 544 
Q 942 546 , 946 546 
Q 951 547 , 961 547 
Q 972 547 , 976 546 
Q 981 546 , 981 544 
L 981 531 
L 1010 531 
L 1010 545 
Q 1010 548 , 997 549 
" fill="#D21010" stroke="black" stroke-width="1"/>
<path d="
M 981 527 
L 981 520 
L 948 520 
L 948 517 
L 1010 517 
L 1010 530 
Q 988 531 , 968 531 
Q 939 531 , 924 528 
Q 910 525 , 910 519 
Q 910 514 , 924 511 
Q 939 508 , 970 508 
Q 983 508 , 1003 509 
L 1003 513 
Q 983 511 , 970 511 
Q 954 511 , 945 513 
Q 937 515 , 937 519 
Q 937 527 , 968 527 
Q 977 527 , 981 527 
" fill="#F5C000" stroke="black" stroke-width="1"/>
<path d="
M 955 463 
L 965 463 
L 951 485 
L 969 485 
L 955 463 
M 974 493 
L 942 493 
L 933 507 
L 910 507 
L 946 455 
L 974 455 
L 1010 507 
L 983 507 
L 974 493 
" fill="#339541" stroke="black" stroke-width="1"/>
<path d="M 65 55 L 65 555 " stroke="black" stroke-width="1.5"/>
<path d="M 55 555 L 65 555 " stroke="black" stroke-width="4"/>
<text text-anchor="end" x="50" y="555" font-size="50" alignment-baseline="middle">0</text>
<path d="M 55 305 L 65 305 " stroke="black" stroke-width="4"/>
<text text-anchor="end" x="50" y="305" font-size="50" alignment-baseline="middle">1</text>
<path d="M 55 55 L 65 55 " stroke="black" stroke-width="4"/>
<text text-anchor="end" x="50" y="55" font-size="50" alignment-baseline="middle">2</text>
<text text-anchor="middle" x="540" y="50" font-size="50" alignment-baseline="baseline"></text>
G</svg>
