<svg xmlns="http://www.w3.org/2000/svg"
viewBox="0 0 700 635">
<path d="
M 170 553 
L 170 553 
Q 155 553 , 147 553 
Q 139 553 , 129 553 
Q 108 553 , 98 553 
Q 86 554 , 86 554 
Q 86 554 , 98 554 
Q 108 555 , 129 555 
Q 139 555 , 147 555 
Q 155 555 , 170 554 
L 170 555 
Q 159 555 , 149 555 
Q 139 555 , 128 555 
Q 101 555 , 86 555 
Q 70 554 , 70 554 
Q 70 553 , 86 553 
Q 101 553 , 128 553 
Q 139 553 , 149 553 
Q 160 553 , 170 553 
" fill="#545FFF" />
<path d="
M 70 550 
L 88 550 
L 88 552 
Q 88 552 , 96 552 
Q 103 552 , 120 552 
Q 137 552 , 145 552 
Q 152 552 , 152 552 
L 152 550 
L 170 550 
L 170 552 
Q 170 552 , 157 553 
Q 145 553 , 120 553 
Q 96 553 , 83 553 
Q 70 552 , 70 552 
L 70 550 
" fill="#D21010" />
<path d="
M 154 550 
L 154 549 
L 125 549 
L 125 548 
L 170 548 
L 170 550 
Q 159 550 , 148 550 
Q 139 550 , 127 550 
Q 101 550 , 85 550 
Q 70 549 , 70 548 
Q 70 548 , 85 547 
Q 101 547 , 127 547 
Q 138 547 , 147 547 
Q 157 547 , 167 547 
L 167 548 
Q 154 547 , 146 547 
Q 137 547 , 128 547 
Q 107 547 , 96 548 
Q 86 548 , 86 548 
Q 86 549 , 96 549 
Q 107 550 , 128 550 
Q 137 550 , 144 550 
Q 151 550 , 154 550 
" fill="#F5C000" />
<path d="
M 120 544 
L 102 545 
L 136 545 
L 120 544 
M 113 543 
L 127 543 
L 170 547 
L 154 547 
L 142 546 
L 98 546 
L 85 547 
L 70 547 
L 113 543 
" fill="#339541" />
<path d="
M 275 551 
L 275 552 
Q 260 552 , 252 551 
Q 244 551 , 234 551 
Q 213 551 , 203 552 
Q 191 552 , 191 552 
Q 191 553 , 203 554 
Q 213 554 , 234 554 
Q 244 554 , 252 554 
Q 260 554 , 275 554 
L 275 554 
Q 264 554 , 254 554 
Q 244 554 , 233 554 
Q 206 554 , 191 554 
Q 175 554 , 175 553 
Q 175 552 , 191 551 
Q 206 551 , 233 551 
Q 244 551 , 254 551 
Q 265 551 , 275 551 
" fill="#545FFF" />
<path d="
M 225 543 
L 207 546 
L 241 546 
L 225 543 
M 218 541 
L 232 541 
L 275 550 
L 259 550 
L 247 547 
L 203 547 
L 190 550 
L 175 550 
L 218 541 
" fill="#339541" />
<path d="
M 175 529 
L 193 529 
L 193 536 
Q 193 538 , 201 538 
Q 208 539 , 225 539 
Q 242 539 , 250 538 
Q 257 538 , 257 536 
L 257 529 
L 275 529 
L 275 536 
Q 275 538 , 262 539 
Q 250 540 , 225 540 
Q 201 540 , 188 539 
Q 175 538 , 175 536 
L 175 529 
" fill="#D21010" />
<path d="
M 259 475 
L 259 375 
L 230 375 
L 230 334 
L 275 334 
L 275 500 
Q 264 516 , 253 522 
Q 244 528 , 232 528 
Q 206 528 , 190 478 
Q 175 429 , 175 342 
Q 175 255 , 190 206 
Q 206 156 , 232 156 
Q 243 156 , 252 162 
Q 262 169 , 272 186 
L 272 234 
Q 259 213 , 251 206 
Q 242 200 , 233 200 
Q 212 200 , 201 235 
Q 191 270 , 191 342 
Q 191 415 , 201 451 
Q 212 487 , 233 487 
Q 242 487 , 249 483 
Q 256 479 , 259 475 
" fill="#F5C000" />
<path d="
M 380 551 
L 380 552 
Q 365 552 , 357 552 
Q 349 551 , 339 551 
Q 318 551 , 308 552 
Q 296 552 , 296 553 
Q 296 554 , 308 554 
Q 318 554 , 339 554 
Q 349 554 , 357 554 
Q 365 554 , 380 554 
L 380 554 
Q 369 555 , 359 555 
Q 349 555 , 338 555 
Q 311 555 , 296 554 
Q 280 554 , 280 553 
Q 280 552 , 296 552 
Q 311 551 , 338 551 
Q 349 551 , 359 551 
Q 370 551 , 380 551 
" fill="#545FFF" />
<path d="
M 364 549 
L 364 546 
L 335 546 
L 335 545 
L 380 545 
L 380 549 
Q 369 550 , 358 550 
Q 349 550 , 337 550 
Q 311 550 , 295 549 
Q 280 547 , 280 545 
Q 280 543 , 295 541 
Q 311 540 , 337 540 
Q 348 540 , 357 540 
Q 367 540 , 377 541 
L 377 542 
Q 364 542 , 356 541 
Q 347 541 , 338 541 
Q 317 541 , 306 542 
Q 296 543 , 296 545 
Q 296 547 , 306 548 
Q 317 549 , 338 549 
Q 347 549 , 354 549 
Q 361 549 , 364 549 
" fill="#F5C000" />
<path d="
M 280 489 
L 298 489 
L 298 519 
Q 298 527 , 306 530 
Q 313 534 , 330 534 
Q 347 534 , 355 530 
Q 362 527 , 362 519 
L 362 489 
L 380 489 
L 380 519 
Q 380 529 , 367 534 
Q 355 539 , 330 539 
Q 306 539 , 293 534 
Q 280 529 , 280 519 
L 280 489 
" fill="#D21010" />
<path d="
M 330 388 
L 312 438 
L 346 438 
L 330 388 
M 323 365 
L 337 365 
L 380 489 
L 364 489 
L 352 452 
L 308 452 
L 295 489 
L 280 489 
L 323 365 
" fill="#339541" />
<path d="
M 485 553 
L 485 553 
Q 470 553 , 462 553 
Q 454 553 , 444 553 
Q 423 553 , 413 553 
Q 401 554 , 401 554 
Q 401 554 , 413 554 
Q 423 554 , 444 554 
Q 454 554 , 462 554 
Q 470 554 , 485 554 
L 485 555 
Q 474 555 , 464 555 
Q 454 555 , 443 555 
Q 416 555 , 401 554 
Q 385 554 , 385 554 
Q 385 553 , 401 553 
Q 416 553 , 443 553 
Q 454 553 , 464 553 
Q 475 553 , 485 553 
" fill="#545FFF" />
<path d="
M 469 551 
L 469 549 
L 440 549 
L 440 548 
L 485 548 
L 485 552 
Q 474 552 , 463 553 
Q 454 553 , 442 553 
Q 416 553 , 400 551 
Q 385 550 , 385 548 
Q 385 546 , 400 544 
Q 416 543 , 442 543 
Q 453 543 , 462 543 
Q 472 543 , 482 544 
L 482 545 
Q 469 544 , 461 544 
Q 452 544 , 443 544 
Q 422 544 , 411 545 
Q 401 546 , 401 548 
Q 401 550 , 411 551 
Q 422 552 , 443 552 
Q 452 552 , 459 552 
Q 466 552 , 469 551 
" fill="#F5C000" />
<path d="
M 385 481 
L 403 481 
L 403 517 
Q 403 528 , 411 532 
Q 418 536 , 435 536 
Q 452 536 , 460 532 
Q 467 528 , 467 517 
L 467 481 
L 485 481 
L 485 518 
Q 485 530 , 472 536 
Q 460 543 , 435 543 
Q 411 543 , 398 536 
Q 385 530 , 385 518 
L 385 481 
" fill="#D21010" />
<path d="
M 435 385 
L 417 432 
L 451 432 
L 435 385 
M 428 363 
L 442 363 
L 485 480 
L 469 480 
L 457 446 
L 413 446 
L 400 480 
L 385 480 
L 428 363 
" fill="#339541" />
<path d="
M 590 547 
L 590 548 
Q 575 547 , 567 547 
Q 559 547 , 549 547 
Q 528 547 , 518 548 
Q 506 548 , 506 550 
Q 506 552 , 518 552 
Q 528 553 , 549 553 
Q 559 553 , 567 553 
Q 575 553 , 590 552 
L 590 553 
Q 579 554 , 569 554 
Q 559 554 , 548 554 
Q 521 554 , 506 553 
Q 490 552 , 490 550 
Q 490 548 , 506 547 
Q 521 546 , 548 546 
Q 559 546 , 569 546 
Q 580 546 , 590 547 
" fill="#545FFF" />
<path d="
M 540 530 
L 522 537 
L 556 537 
L 540 530 
M 533 526 
L 547 526 
L 590 545 
L 574 545 
L 562 539 
L 518 539 
L 505 545 
L 490 545 
L 533 526 
" fill="#339541" />
<path d="
M 490 501 
L 508 501 
L 508 515 
Q 508 519 , 516 521 
Q 523 523 , 540 523 
Q 557 523 , 565 521 
Q 572 519 , 572 515 
L 572 501 
L 590 501 
L 590 516 
Q 590 520 , 577 523 
Q 565 525 , 540 525 
Q 516 525 , 503 523 
Q 490 520 , 490 516 
L 490 501 
" fill="#D21010" />
<path d="
M 574 481 
L 574 444 
L 545 444 
L 545 429 
L 590 429 
L 590 490 
Q 579 496 , 568 498 
Q 559 500 , 547 500 
Q 521 500 , 505 482 
Q 490 464 , 490 432 
Q 490 400 , 505 382 
Q 521 364 , 547 364 
Q 558 364 , 567 366 
Q 577 369 , 587 375 
L 587 392 
Q 574 385 , 566 382 
Q 557 380 , 548 380 
Q 527 380 , 516 393 
Q 506 406 , 506 432 
Q 506 459 , 516 472 
Q 527 485 , 548 485 
Q 557 485 , 564 484 
Q 571 482 , 574 481 
" fill="#F5C000" />
<path d="
M 695 553 
L 695 553 
Q 680 553 , 672 553 
Q 664 553 , 654 553 
Q 633 553 , 623 553 
Q 611 554 , 611 554 
Q 611 554 , 623 554 
Q 633 555 , 654 555 
Q 664 555 , 672 555 
Q 680 555 , 695 554 
L 695 555 
Q 684 555 , 674 555 
Q 664 555 , 653 555 
Q 626 555 , 611 555 
Q 595 554 , 595 554 
Q 595 553 , 611 553 
Q 626 553 , 653 553 
Q 664 553 , 674 553 
Q 685 553 , 695 553 
" fill="#545FFF" />
<path d="
M 595 550 
L 613 550 
L 613 552 
Q 613 552 , 621 552 
Q 628 552 , 645 552 
Q 662 552 , 670 552 
Q 677 552 , 677 552 
L 677 550 
L 695 550 
L 695 552 
Q 695 552 , 682 553 
Q 670 553 , 645 553 
Q 621 553 , 608 553 
Q 595 552 , 595 552 
L 595 550 
" fill="#D21010" />
<path d="
M 679 550 
L 679 549 
L 650 549 
L 650 548 
L 695 548 
L 695 550 
Q 684 550 , 673 550 
Q 664 550 , 652 550 
Q 626 550 , 610 550 
Q 595 549 , 595 548 
Q 595 548 , 610 547 
Q 626 547 , 652 547 
Q 663 547 , 672 547 
Q 682 547 , 692 547 
L 692 548 
Q 679 547 , 671 547 
Q 662 547 , 653 547 
Q 632 547 , 621 548 
Q 611 548 , 611 548 
Q 611 549 , 621 549 
Q 632 550 , 653 550 
Q 662 550 , 669 550 
Q 676 550 , 679 550 
" fill="#F5C000" />
<path d="
M 645 544 
L 627 545 
L 661 545 
L 645 544 
M 638 543 
L 652 543 
L 695 547 
L 679 547 
L 667 546 
L 623 546 
L 610 547 
L 595 547 
L 638 543 
" fill="#339541" />
<path d="M 65 55 L 65 555 " stroke="black" stroke-width="1.5"/>
<path d="M 55 555 L 65 555 " stroke="black" stroke-width="4"/>
<text text-anchor="end" x="50" y="555" font-size="50" alignment-baseline="middle">0</text>
<path d="M 55 305 L 65 305 " stroke="black" stroke-width="4"/>
<text text-anchor="end" x="50" y="305" font-size="50" alignment-baseline="middle">1</text>
<path d="M 55 55 L 65 55 " stroke="black" stroke-width="4"/>
<text text-anchor="end" x="50" y="55" font-size="50" alignment-baseline="middle">2</text>
<text text-anchor="middle" x="382" y="50" font-size="50" alignment-baseline="baseline"></text>
G<path d="
M 160 582 
L 126 595 
L 160 608 
L 157 611 
L 123 598 
L 123 623 
L 117 623 
L 117 599 
L 83 611 
L 80 608 
L 114 595 
L 80 582 
L 83 579 
L 117 591 
L 117 567 
L 123 567 
L 123 591 
L 157 579 
L 160 582 
" fill="black" />
<path d="
" fill="black" />
<path d="
M 211 567 
L 238 567 
L 238 623 
L 211 623 
L 211 567 
" fill="black" />
<path d="
" fill="black" />
<path d="
" fill="black" />
<path d="
M 316 567 
L 343 567 
L 343 623 
L 316 623 
L 316 567 
" fill="black" />
<path d="
" fill="black" />
<path d="
" fill="black" />
<path d="
M 421 567 
L 448 567 
L 448 623 
L 421 623 
L 421 567 
" fill="black" />
<path d="
" fill="black" />
<path d="
" fill="black" />
<path d="
M 526 567 
L 553 567 
L 553 623 
L 526 623 
L 526 567 
" fill="black" />
<path d="
" fill="black" />
<path d="
M 685 582 
L 651 595 
L 685 608 
L 682 611 
L 648 598 
L 648 623 
L 642 623 
L 642 599 
L 608 611 
L 605 608 
L 639 595 
L 605 582 
L 608 579 
L 642 591 
L 642 567 
L 648 567 
L 648 591 
L 682 579 
L 685 582 
" fill="black" />
</svg>
