<svg xmlns="http://www.w3.org/2000/svg"
viewBox="0 0 595 635">
<path d="
M 170 553 
L 170 553 
Q 155 553 , 147 553 
Q 139 553 , 129 553 
Q 108 553 , 98 553 
Q 86 554 , 86 554 
Q 86 554 , 98 554 
Q 108 555 , 129 555 
Q 139 555 , 147 555 
Q 155 555 , 170 554 
L 170 555 
Q 159 555 , 149 555 
Q 139 555 , 128 555 
Q 101 555 , 86 555 
Q 70 554 , 70 554 
Q 70 553 , 86 553 
Q 101 553 , 128 553 
Q 139 553 , 149 553 
Q 160 553 , 170 553 
" fill="#545FFF" />
<path d="
M 70 550 
L 88 550 
L 88 552 
Q 88 552 , 96 552 
Q 103 552 , 120 552 
Q 137 552 , 145 552 
Q 152 552 , 152 552 
L 152 550 
L 170 550 
L 170 552 
Q 170 552 , 157 553 
Q 145 553 , 120 553 
Q 96 553 , 83 553 
Q 70 552 , 70 552 
L 70 550 
" fill="#D21010" />
<path d="
M 154 549 
L 154 548 
L 125 548 
L 125 547 
L 170 547 
L 170 549 
Q 159 549 , 148 549 
Q 139 549 , 127 549 
Q 101 549 , 85 549 
Q 70 548 , 70 548 
Q 70 547 , 85 546 
Q 101 546 , 127 546 
Q 138 546 , 147 546 
Q 157 546 , 167 546 
L 167 547 
Q 154 546 , 146 546 
Q 137 546 , 128 546 
Q 107 546 , 96 547 
Q 86 547 , 86 548 
Q 86 548 , 96 548 
Q 107 549 , 128 549 
Q 137 549 , 144 549 
Q 151 549 , 154 549 
" fill="#F5C000" />
<path d="
M 120 543 
L 102 544 
L 136 544 
L 120 543 
M 113 542 
L 127 542 
L 170 546 
L 154 546 
L 142 545 
L 98 545 
L 85 546 
L 70 546 
L 113 542 
" fill="#339541" />
<path d="
M 275 552 
L 275 553 
Q 260 552 , 252 552 
Q 244 552 , 234 552 
Q 213 552 , 203 552 
Q 191 553 , 191 553 
Q 191 553 , 203 554 
Q 213 554 , 234 554 
Q 244 554 , 252 554 
Q 260 554 , 275 554 
L 275 554 
Q 264 554 , 254 554 
Q 244 554 , 233 554 
Q 206 554 , 191 554 
Q 175 554 , 175 553 
Q 175 553 , 191 552 
Q 206 552 , 233 552 
Q 244 552 , 254 552 
Q 265 552 , 275 552 
" fill="#545FFF" />
<path d="
M 175 544 
L 193 544 
L 193 549 
Q 193 550 , 201 551 
Q 208 551 , 225 551 
Q 242 551 , 250 551 
Q 257 550 , 257 549 
L 257 544 
L 275 544 
L 275 549 
Q 275 550 , 262 551 
Q 250 552 , 225 552 
Q 201 552 , 188 551 
Q 175 550 , 175 549 
L 175 544 
" fill="#D21010" />
<path d="
M 225 536 
L 207 540 
L 241 540 
L 225 536 
M 218 534 
L 232 534 
L 275 544 
L 259 544 
L 247 541 
L 203 541 
L 190 544 
L 175 544 
L 218 534 
" fill="#339541" />
<path d="
M 259 477 
L 259 371 
L 230 371 
L 230 328 
L 275 328 
L 275 503 
Q 264 520 , 253 527 
Q 244 533 , 232 534 
Q 206 534 , 190 481 
Q 175 429 , 175 337 
Q 175 244 , 190 192 
Q 206 139 , 232 139 
Q 243 139 , 252 146 
Q 262 153 , 272 171 
L 272 221 
Q 259 199 , 251 192 
Q 242 186 , 233 186 
Q 212 186 , 201 223 
Q 191 260 , 191 337 
Q 191 414 , 201 452 
Q 212 490 , 233 490 
Q 242 490 , 249 486 
Q 256 482 , 259 477 
" fill="#F5C000" />
<path d="
M 380 553 
L 380 553 
Q 365 553 , 357 553 
Q 349 553 , 339 553 
Q 318 553 , 308 553 
Q 296 553 , 296 553 
Q 296 554 , 308 554 
Q 318 554 , 339 554 
Q 349 554 , 357 554 
Q 365 554 , 380 554 
L 380 554 
Q 369 554 , 359 554 
Q 349 554 , 338 554 
Q 311 554 , 296 554 
Q 280 554 , 280 554 
Q 280 553 , 296 553 
Q 311 553 , 338 553 
Q 349 553 , 359 553 
Q 370 553 , 380 553 
" fill="#545FFF" />
<path d="
M 364 550 
L 364 545 
L 335 545 
L 335 543 
L 380 543 
L 380 551 
Q 369 552 , 358 552 
Q 349 552 , 337 552 
Q 311 552 , 295 550 
Q 280 547 , 280 543 
Q 280 539 , 295 536 
Q 311 534 , 337 534 
Q 348 534 , 357 534 
Q 367 535 , 377 535 
L 377 538 
Q 364 537 , 356 536 
Q 347 536 , 338 536 
Q 317 536 , 306 538 
Q 296 540 , 296 543 
Q 296 547 , 306 548 
Q 317 550 , 338 550 
Q 347 550 , 354 550 
Q 361 550 , 364 550 
" fill="#F5C000" />
<path d="
M 280 492 
L 298 492 
L 298 517 
Q 298 523 , 306 526 
Q 313 529 , 330 529 
Q 347 529 , 355 526 
Q 362 523 , 362 517 
L 362 492 
L 380 492 
L 380 517 
Q 380 525 , 367 529 
Q 355 534 , 330 534 
Q 306 534 , 293 529 
Q 280 525 , 280 517 
L 280 492 
" fill="#D21010" />
<path d="
M 330 440 
L 312 466 
L 346 466 
L 330 440 
M 323 428 
L 337 428 
L 380 492 
L 364 492 
L 352 473 
L 308 473 
L 295 492 
L 280 492 
L 323 428 
" fill="#339541" />
<path d="
M 485 552 
L 485 553 
Q 470 552 , 462 552 
Q 454 552 , 444 552 
Q 423 552 , 413 552 
Q 401 553 , 401 553 
Q 401 553 , 413 554 
Q 423 554 , 444 554 
Q 454 554 , 462 554 
Q 470 554 , 485 554 
L 485 554 
Q 474 554 , 464 554 
Q 454 554 , 443 554 
Q 416 554 , 401 554 
Q 385 554 , 385 553 
Q 385 553 , 401 552 
Q 416 552 , 443 552 
Q 454 552 , 464 552 
Q 475 552 , 485 552 
" fill="#545FFF" />
<path d="
M 469 550 
L 469 548 
L 440 548 
L 440 547 
L 485 547 
L 485 551 
Q 474 551 , 463 552 
Q 454 552 , 442 552 
Q 416 552 , 400 550 
Q 385 549 , 385 547 
Q 385 545 , 400 543 
Q 416 542 , 442 542 
Q 453 542 , 462 542 
Q 472 542 , 482 543 
L 482 544 
Q 469 543 , 461 543 
Q 452 543 , 443 543 
Q 422 543 , 411 544 
Q 401 545 , 401 547 
Q 401 549 , 411 550 
Q 422 551 , 443 551 
Q 452 551 , 459 551 
Q 466 550 , 469 550 
" fill="#F5C000" />
<path d="
M 385 494 
L 403 494 
L 403 522 
Q 403 530 , 411 533 
Q 418 536 , 435 536 
Q 452 536 , 460 533 
Q 467 530 , 467 522 
L 467 494 
L 485 494 
L 485 523 
Q 485 532 , 472 537 
Q 460 542 , 435 542 
Q 411 542 , 398 537 
Q 385 532 , 385 523 
L 385 494 
" fill="#D21010" />
<path d="
M 435 335 
L 417 414 
L 451 414 
L 435 335 
M 428 299 
L 442 299 
L 485 493 
L 469 493 
L 457 436 
L 413 436 
L 400 493 
L 385 493 
L 428 299 
" fill="#339541" />
<path d="
M 590 553 
L 590 553 
Q 575 553 , 567 553 
Q 559 553 , 549 553 
Q 528 553 , 518 553 
Q 506 554 , 506 554 
Q 506 554 , 518 554 
Q 528 555 , 549 555 
Q 559 555 , 567 555 
Q 575 555 , 590 554 
L 590 555 
Q 579 555 , 569 555 
Q 559 555 , 548 555 
Q 521 555 , 506 555 
Q 490 554 , 490 554 
Q 490 553 , 506 553 
Q 521 553 , 548 553 
Q 559 553 , 569 553 
Q 580 553 , 590 553 
" fill="#545FFF" />
<path d="
M 490 550 
L 508 550 
L 508 552 
Q 508 552 , 516 552 
Q 523 552 , 540 552 
Q 557 552 , 565 552 
Q 572 552 , 572 552 
L 572 550 
L 590 550 
L 590 552 
Q 590 552 , 577 553 
Q 565 553 , 540 553 
Q 516 553 , 503 553 
Q 490 552 , 490 552 
L 490 550 
" fill="#D21010" />
<path d="
M 574 549 
L 574 548 
L 545 548 
L 545 547 
L 590 547 
L 590 549 
Q 579 549 , 568 549 
Q 559 549 , 547 549 
Q 521 549 , 505 549 
Q 490 548 , 490 548 
Q 490 547 , 505 546 
Q 521 546 , 547 546 
Q 558 546 , 567 546 
Q 577 546 , 587 546 
L 587 547 
Q 574 546 , 566 546 
Q 557 546 , 548 546 
Q 527 546 , 516 547 
Q 506 547 , 506 548 
Q 506 548 , 516 548 
Q 527 549 , 548 549 
Q 557 549 , 564 549 
Q 571 549 , 574 549 
" fill="#F5C000" />
<path d="
M 540 543 
L 522 544 
L 556 544 
L 540 543 
M 533 542 
L 547 542 
L 590 546 
L 574 546 
L 562 545 
L 518 545 
L 505 546 
L 490 546 
L 533 542 
" fill="#339541" />
<path d="M 65 55 L 65 555 " stroke="black" stroke-width="1.5"/>
<path d="M 55 555 L 65 555 " stroke="black" stroke-width="4"/>
<text text-anchor="end" x="50" y="555" font-size="50" alignment-baseline="middle">0</text>
<path d="M 55 305 L 65 305 " stroke="black" stroke-width="4"/>
<text text-anchor="end" x="50" y="305" font-size="50" alignment-baseline="middle">1</text>
<path d="M 55 55 L 65 55 " stroke="black" stroke-width="4"/>
<text text-anchor="end" x="50" y="55" font-size="50" alignment-baseline="middle">2</text>
<text text-anchor="middle" x="330" y="50" font-size="50" alignment-baseline="baseline"></text>
G<path d="
M 160 582 
L 126 595 
L 160 608 
L 157 611 
L 123 598 
L 123 623 
L 117 623 
L 117 599 
L 83 611 
L 80 608 
L 114 595 
L 80 582 
L 83 579 
L 117 591 
L 117 567 
L 123 567 
L 123 591 
L 157 579 
L 160 582 
" fill="black" />
<path d="
" fill="black" />
<path d="
M 211 567 
L 238 567 
L 238 623 
L 211 623 
L 211 567 
" fill="black" />
<path d="
" fill="black" />
<path d="
" fill="black" />
<path d="
M 316 567 
L 343 567 
L 343 623 
L 316 623 
L 316 567 
" fill="black" />
<path d="
" fill="black" />
<path d="
" fill="black" />
<path d="
M 421 567 
L 448 567 
L 448 623 
L 421 623 
L 421 567 
" fill="black" />
<path d="
" fill="black" />
<path d="
M 580 582 
L 546 595 
L 580 608 
L 577 611 
L 543 598 
L 543 623 
L 537 623 
L 537 599 
L 503 611 
L 500 608 
L 534 595 
L 500 582 
L 503 579 
L 537 591 
L 537 567 
L 543 567 
L 543 591 
L 577 579 
L 580 582 
" fill="black" />
</svg>
