<svg xmlns="http://www.w3.org/2000/svg"
viewBox="0 0 1330 635">
<path d="
M 120 554 
L 102 554 
L 136 554 
L 120 554 
M 113 554 
L 127 554 
L 170 554 
L 154 554 
L 142 554 
L 98 554 
L 85 554 
L 70 554 
L 113 554 
" fill="#339541" />
<path d="
M 170 553 
L 170 553 
Q 155 553 , 147 553 
Q 139 553 , 129 553 
Q 108 553 , 98 553 
Q 86 553 , 86 553 
Q 86 553 , 98 553 
Q 108 553 , 129 553 
Q 139 553 , 147 553 
Q 155 553 , 170 553 
L 170 553 
Q 159 553 , 149 553 
Q 139 553 , 128 553 
Q 101 553 , 86 553 
Q 70 553 , 70 553 
Q 70 553 , 86 553 
Q 101 553 , 128 553 
Q 139 553 , 149 553 
Q 160 553 , 170 553 
" fill="#545FFF" />
<path d="
M 70 552 
L 88 552 
L 88 552 
Q 88 552 , 96 552 
Q 103 552 , 120 552 
Q 137 552 , 145 552 
Q 152 552 , 152 552 
L 152 552 
L 170 552 
L 170 552 
Q 170 552 , 157 552 
Q 145 552 , 120 552 
Q 96 552 , 83 552 
Q 70 552 , 70 552 
L 70 552 
" fill="#D21010" />
<path d="
M 154 551 
L 154 551 
L 125 551 
L 125 551 
L 170 551 
L 170 551 
Q 159 551 , 148 551 
Q 139 551 , 127 551 
Q 101 551 , 85 551 
Q 70 551 , 70 551 
Q 70 551 , 85 551 
Q 101 551 , 127 551 
Q 138 551 , 147 551 
Q 157 551 , 167 551 
L 167 551 
Q 154 551 , 146 551 
Q 137 551 , 128 551 
Q 107 551 , 96 551 
Q 86 551 , 86 551 
Q 86 551 , 96 551 
Q 107 551 , 128 551 
Q 137 551 , 144 551 
Q 151 551 , 154 551 
" fill="#F5C000" />
<path d="
M 225 552 
L 207 553 
L 241 553 
L 225 552 
M 218 552 
L 232 552 
L 275 555 
L 259 555 
L 247 554 
L 203 554 
L 190 555 
L 175 555 
L 218 552 
" fill="#339541" />
<path d="
M 259 550 
L 259 545 
L 230 545 
L 230 543 
L 275 543 
L 275 551 
Q 264 551 , 253 552 
Q 244 552 , 232 552 
Q 206 552 , 190 550 
Q 175 547 , 175 543 
Q 175 540 , 190 537 
Q 206 535 , 232 535 
Q 243 535 , 252 535 
Q 262 536 , 272 536 
L 272 539 
Q 259 538 , 251 537 
Q 242 537 , 233 537 
Q 212 537 , 201 539 
Q 191 540 , 191 543 
Q 191 547 , 201 548 
Q 212 550 , 233 550 
Q 242 550 , 249 550 
Q 256 550 , 259 550 
" fill="#F5C000" />
<path d="
M 175 517 
L 193 517 
L 193 527 
Q 193 530 , 201 531 
Q 208 533 , 225 533 
Q 242 533 , 250 531 
Q 257 530 , 257 527 
L 257 517 
L 275 517 
L 275 528 
Q 275 531 , 262 533 
Q 250 535 , 225 535 
Q 201 535 , 188 533 
Q 175 531 , 175 528 
L 175 517 
" fill="#D21010" />
<path d="
M 275 501 
L 275 504 
Q 260 502 , 252 501 
Q 244 501 , 234 501 
Q 213 501 , 203 503 
Q 191 504 , 191 507 
Q 191 511 , 203 513 
Q 213 515 , 234 515 
Q 244 515 , 252 514 
Q 260 514 , 275 512 
L 275 515 
Q 264 516 , 254 516 
Q 244 517 , 233 517 
Q 206 517 , 191 514 
Q 175 512 , 175 508 
Q 175 504 , 191 501 
Q 206 499 , 233 499 
Q 244 499 , 254 499 
Q 265 500 , 275 501 
" fill="#545FFF" />
<path d="
M 330 553 
L 312 554 
L 346 554 
L 330 553 
M 323 552 
L 337 552 
L 380 555 
L 364 555 
L 352 554 
L 308 554 
L 295 555 
L 280 555 
L 323 552 
" fill="#339541" />
<path d="
M 280 537 
L 298 537 
L 298 545 
Q 298 548 , 306 549 
Q 313 550 , 330 550 
Q 347 550 , 355 549 
Q 362 548 , 362 545 
L 362 537 
L 380 537 
L 380 546 
Q 380 548 , 367 550 
Q 355 551 , 330 551 
Q 306 551 , 293 550 
Q 280 548 , 280 546 
L 280 537 
" fill="#D21010" />
<path d="
M 380 520 
L 380 523 
Q 365 521 , 357 521 
Q 349 520 , 339 520 
Q 318 520 , 308 522 
Q 296 524 , 296 527 
Q 296 531 , 308 533 
Q 318 535 , 339 535 
Q 349 535 , 357 534 
Q 365 534 , 380 532 
L 380 535 
Q 369 536 , 359 536 
Q 349 537 , 338 537 
Q 311 537 , 296 534 
Q 280 532 , 280 527 
Q 280 523 , 296 521 
Q 311 518 , 338 518 
Q 349 518 , 359 518 
Q 370 519 , 380 520 
" fill="#545FFF" />
<path d="
M 364 515 
L 364 509 
L 335 509 
L 335 506 
L 380 506 
L 380 516 
Q 369 517 , 358 517 
Q 349 518 , 337 518 
Q 311 518 , 295 515 
Q 280 512 , 280 507 
Q 280 502 , 295 499 
Q 311 496 , 337 496 
Q 348 496 , 357 496 
Q 367 497 , 377 498 
L 377 501 
Q 364 499 , 356 499 
Q 347 499 , 338 499 
Q 317 499 , 306 501 
Q 296 503 , 296 507 
Q 296 511 , 306 513 
Q 317 515 , 338 515 
Q 347 515 , 354 515 
Q 361 515 , 364 515 
" fill="#F5C000" />
<path d="
M 435 550 
L 417 552 
L 451 552 
L 435 550 
M 428 549 
L 442 549 
L 485 555 
L 469 555 
L 457 553 
L 413 553 
L 400 555 
L 385 555 
L 428 549 
" fill="#339541" />
<path d="
M 485 540 
L 485 541 
Q 470 540 , 462 540 
Q 454 540 , 444 540 
Q 423 540 , 413 541 
Q 401 542 , 401 543 
Q 401 545 , 413 546 
Q 423 547 , 444 547 
Q 454 547 , 462 547 
Q 470 547 , 485 546 
L 485 547 
Q 474 548 , 464 548 
Q 454 548 , 443 548 
Q 416 548 , 401 547 
Q 385 546 , 385 544 
Q 385 541 , 401 540 
Q 416 539 , 443 539 
Q 454 539 , 464 539 
Q 475 539 , 485 540 
" fill="#545FFF" />
<path d="
M 469 533 
L 469 523 
L 440 523 
L 440 519 
L 485 519 
L 485 536 
Q 474 537 , 463 538 
Q 454 539 , 442 539 
Q 416 539 , 400 534 
Q 385 529 , 385 520 
Q 385 511 , 400 506 
Q 416 501 , 442 501 
Q 453 501 , 462 502 
Q 472 502 , 482 504 
L 482 509 
Q 469 507 , 461 506 
Q 452 505 , 443 505 
Q 422 505 , 411 509 
Q 401 513 , 401 520 
Q 401 527 , 411 531 
Q 422 534 , 443 534 
Q 452 534 , 459 534 
Q 466 534 , 469 533 
" fill="#F5C000" />
<path d="
M 385 289 
L 403 289 
L 403 414 
Q 403 449 , 411 463 
Q 418 477 , 435 477 
Q 452 477 , 460 463 
Q 467 449 , 467 414 
L 467 289 
L 485 289 
L 485 417 
Q 485 458 , 472 479 
Q 460 501 , 435 501 
Q 411 501 , 398 479 
Q 385 458 , 385 417 
L 385 289 
" fill="#D21010" />
<path d="
M 540 551 
L 522 553 
L 556 553 
L 540 551 
M 533 550 
L 547 550 
L 590 554 
L 574 554 
L 562 553 
L 518 553 
L 505 554 
L 490 554 
L 533 550 
" fill="#339541" />
<path d="
M 590 534 
L 590 536 
Q 575 535 , 567 534 
Q 559 534 , 549 534 
Q 528 534 , 518 536 
Q 506 537 , 506 540 
Q 506 544 , 518 546 
Q 528 547 , 549 547 
Q 559 547 , 567 547 
Q 575 546 , 590 545 
L 590 547 
Q 579 548 , 569 549 
Q 559 549 , 548 549 
Q 521 549 , 506 547 
Q 490 545 , 490 541 
Q 490 537 , 506 534 
Q 521 532 , 548 532 
Q 559 532 , 569 532 
Q 580 533 , 590 534 
" fill="#545FFF" />
<path d="
M 490 502 
L 508 502 
L 508 520 
Q 508 525 , 516 527 
Q 523 529 , 540 529 
Q 557 529 , 565 527 
Q 572 525 , 572 520 
L 572 502 
L 590 502 
L 590 520 
Q 590 526 , 577 529 
Q 565 532 , 540 532 
Q 516 532 , 503 529 
Q 490 526 , 490 520 
L 490 502 
" fill="#D21010" />
<path d="
M 574 491 
L 574 471 
L 545 471 
L 545 463 
L 590 463 
L 590 496 
Q 579 499 , 568 500 
Q 559 502 , 547 502 
Q 521 502 , 505 492 
Q 490 482 , 490 464 
Q 490 447 , 505 437 
Q 521 427 , 547 427 
Q 558 427 , 567 428 
Q 577 430 , 587 433 
L 587 443 
Q 574 438 , 566 437 
Q 557 436 , 548 436 
Q 527 436 , 516 443 
Q 506 450 , 506 464 
Q 506 479 , 516 486 
Q 527 493 , 548 493 
Q 557 493 , 564 493 
Q 571 492 , 574 491 
" fill="#F5C000" />
<path d="
M 645 553 
L 627 554 
L 661 554 
L 645 553 
M 638 552 
L 652 552 
L 695 555 
L 679 555 
L 667 554 
L 623 554 
L 610 555 
L 595 555 
L 638 552 
" fill="#339541" />
<path d="
M 679 550 
L 679 546 
L 650 546 
L 650 544 
L 695 544 
L 695 551 
Q 684 551 , 673 552 
Q 664 552 , 652 552 
Q 626 552 , 610 550 
Q 595 548 , 595 544 
Q 595 541 , 610 539 
Q 626 537 , 652 537 
Q 663 537 , 672 537 
Q 682 538 , 692 538 
L 692 540 
Q 679 539 , 671 539 
Q 662 539 , 653 539 
Q 632 539 , 621 540 
Q 611 542 , 611 544 
Q 611 547 , 621 549 
Q 632 550 , 653 550 
Q 662 550 , 669 550 
Q 676 550 , 679 550 
" fill="#F5C000" />
<path d="
M 695 520 
L 695 523 
Q 680 521 , 672 521 
Q 664 520 , 654 520 
Q 633 520 , 623 522 
Q 611 524 , 611 527 
Q 611 531 , 623 533 
Q 633 535 , 654 535 
Q 664 535 , 672 534 
Q 680 534 , 695 532 
L 695 535 
Q 684 536 , 674 536 
Q 664 537 , 653 537 
Q 626 537 , 611 534 
Q 595 532 , 595 527 
Q 595 523 , 611 521 
Q 626 518 , 653 518 
Q 664 518 , 674 518 
Q 685 519 , 695 520 
" fill="#545FFF" />
<path d="
M 595 493 
L 613 493 
L 613 508 
Q 613 512 , 621 514 
Q 628 515 , 645 515 
Q 662 515 , 670 514 
Q 677 512 , 677 508 
L 677 493 
L 695 493 
L 695 508 
Q 695 513 , 682 515 
Q 670 518 , 645 518 
Q 621 518 , 608 515 
Q 595 513 , 595 508 
L 595 493 
" fill="#D21010" />
<path d="
M 750 550 
L 732 552 
L 766 552 
L 750 550 
M 743 549 
L 757 549 
L 800 554 
L 784 554 
L 772 553 
L 728 553 
L 715 554 
L 700 554 
L 743 549 
" fill="#339541" />
<path d="
M 700 538 
L 718 538 
L 718 544 
Q 718 546 , 726 547 
Q 733 547 , 750 547 
Q 767 547 , 775 547 
Q 782 546 , 782 544 
L 782 538 
L 800 538 
L 800 544 
Q 800 547 , 787 548 
Q 775 549 , 750 549 
Q 726 549 , 713 548 
Q 700 547 , 700 544 
L 700 538 
" fill="#D21010" />
<path d="
M 784 535 
L 784 530 
L 755 530 
L 755 528 
L 800 528 
L 800 536 
Q 789 536 , 778 537 
Q 769 537 , 757 537 
Q 731 537 , 715 535 
Q 700 532 , 700 529 
Q 700 525 , 715 522 
Q 731 520 , 757 520 
Q 768 520 , 777 520 
Q 787 521 , 797 521 
L 797 524 
Q 784 523 , 776 522 
Q 767 522 , 758 522 
Q 737 522 , 726 524 
Q 716 525 , 716 529 
Q 716 532 , 726 534 
Q 737 535 , 758 535 
Q 767 535 , 774 535 
Q 781 535 , 784 535 
" fill="#F5C000" />
<path d="
M 800 492 
L 800 497 
Q 785 494 , 777 493 
Q 769 492 , 759 492 
Q 738 492 , 728 495 
Q 716 498 , 716 504 
Q 716 510 , 728 513 
Q 738 516 , 759 516 
Q 769 516 , 777 515 
Q 785 515 , 800 512 
L 800 516 
Q 789 518 , 779 519 
Q 769 520 , 758 520 
Q 731 520 , 716 515 
Q 700 511 , 700 504 
Q 700 497 , 716 493 
Q 731 489 , 758 489 
Q 769 489 , 779 490 
Q 790 490 , 800 492 
" fill="#545FFF" />
<path d="
M 855 551 
L 837 553 
L 871 553 
L 855 551 
M 848 550 
L 862 550 
L 905 555 
L 889 555 
L 877 553 
L 833 553 
L 820 555 
L 805 555 
L 848 550 
" fill="#339541" />
<path d="
M 905 534 
L 905 537 
Q 890 535 , 882 534 
Q 874 534 , 864 534 
Q 843 534 , 833 536 
Q 821 537 , 821 540 
Q 821 544 , 833 546 
Q 843 548 , 864 548 
Q 874 548 , 882 547 
Q 890 547 , 905 545 
L 905 548 
Q 894 549 , 884 549 
Q 874 549 , 863 549 
Q 836 549 , 821 547 
Q 805 545 , 805 541 
Q 805 537 , 821 534 
Q 836 532 , 863 532 
Q 874 532 , 884 532 
Q 895 533 , 905 534 
" fill="#545FFF" />
<path d="
M 889 527 
L 889 518 
L 860 518 
L 860 515 
L 905 515 
L 905 529 
Q 894 531 , 883 531 
Q 874 532 , 862 532 
Q 836 532 , 820 527 
Q 805 523 , 805 515 
Q 805 508 , 820 503 
Q 836 499 , 862 499 
Q 873 499 , 882 500 
Q 892 500 , 902 502 
L 902 506 
Q 889 504 , 881 503 
Q 872 503 , 863 503 
Q 842 503 , 831 506 
Q 821 509 , 821 515 
Q 821 522 , 831 525 
Q 842 528 , 863 528 
Q 872 528 , 879 528 
Q 886 528 , 889 527 
" fill="#F5C000" />
<path d="
M 805 377 
L 823 377 
L 823 449 
Q 823 469 , 831 477 
Q 838 485 , 855 485 
Q 872 485 , 880 477 
Q 887 469 , 887 449 
L 887 377 
L 905 377 
L 905 451 
Q 905 474 , 892 486 
Q 880 499 , 855 499 
Q 831 499 , 818 486 
Q 805 474 , 805 451 
L 805 377 
" fill="#D21010" />
<path d="
M 960 552 
L 942 553 
L 976 553 
L 960 552 
M 953 552 
L 967 552 
L 1010 554 
L 994 554 
L 982 554 
L 938 554 
L 925 554 
L 910 554 
L 953 552 
" fill="#339541" />
<path d="
M 1010 537 
L 1010 539 
Q 995 538 , 987 537 
Q 979 537 , 969 537 
Q 948 537 , 938 538 
Q 926 540 , 926 543 
Q 926 547 , 938 548 
Q 948 550 , 969 550 
Q 979 550 , 987 549 
Q 995 549 , 1010 547 
L 1010 550 
Q 999 551 , 989 551 
Q 979 552 , 968 552 
Q 941 552 , 926 549 
Q 910 547 , 910 543 
Q 910 540 , 926 537 
Q 941 535 , 968 535 
Q 979 535 , 989 535 
Q 1000 536 , 1010 537 
" fill="#545FFF" />
<path d="
M 910 499 
L 928 499 
L 928 520 
Q 928 526 , 936 528 
Q 943 531 , 960 531 
Q 977 531 , 985 528 
Q 992 526 , 992 520 
L 992 499 
L 1010 499 
L 1010 521 
Q 1010 528 , 997 531 
Q 985 535 , 960 535 
Q 936 535 , 923 531 
Q 910 528 , 910 521 
L 910 499 
" fill="#D21010" />
<path d="
M 994 491 
L 994 478 
L 965 478 
L 965 473 
L 1010 473 
L 1010 494 
Q 999 497 , 988 497 
Q 979 498 , 967 498 
Q 941 498 , 925 492 
Q 910 485 , 910 474 
Q 910 462 , 925 456 
Q 941 449 , 967 449 
Q 978 449 , 987 450 
Q 997 451 , 1007 453 
L 1007 459 
Q 994 456 , 986 456 
Q 977 455 , 968 455 
Q 947 455 , 936 459 
Q 926 464 , 926 474 
Q 926 483 , 936 488 
Q 947 493 , 968 493 
Q 977 493 , 984 492 
Q 991 492 , 994 491 
" fill="#F5C000" />
<path d="
M 1065 550 
L 1047 552 
L 1081 552 
L 1065 550 
M 1058 549 
L 1072 549 
L 1115 554 
L 1099 554 
L 1087 553 
L 1043 553 
L 1030 554 
L 1015 554 
L 1058 549 
" fill="#339541" />
<path d="
M 1115 536 
L 1115 538 
Q 1100 536 , 1092 536 
Q 1084 536 , 1074 536 
Q 1053 536 , 1043 537 
Q 1031 539 , 1031 541 
Q 1031 544 , 1043 546 
Q 1053 547 , 1074 547 
Q 1084 547 , 1092 547 
Q 1100 546 , 1115 545 
L 1115 547 
Q 1104 548 , 1094 548 
Q 1084 549 , 1073 549 
Q 1046 549 , 1031 547 
Q 1015 545 , 1015 541 
Q 1015 538 , 1031 536 
Q 1046 534 , 1073 534 
Q 1084 534 , 1094 534 
Q 1105 535 , 1115 536 
" fill="#545FFF" />
<path d="
M 1099 529 
L 1099 520 
L 1070 520 
L 1070 517 
L 1115 517 
L 1115 531 
Q 1104 532 , 1093 533 
Q 1084 533 , 1072 533 
Q 1046 533 , 1030 529 
Q 1015 525 , 1015 518 
Q 1015 510 , 1030 506 
Q 1046 502 , 1072 502 
Q 1083 502 , 1092 503 
Q 1102 503 , 1112 505 
L 1112 509 
Q 1099 507 , 1091 506 
Q 1082 506 , 1073 506 
Q 1052 506 , 1041 509 
Q 1031 512 , 1031 518 
Q 1031 524 , 1041 527 
Q 1052 530 , 1073 530 
Q 1082 530 , 1089 529 
Q 1096 529 , 1099 529 
" fill="#F5C000" />
<path d="
M 1015 427 
L 1033 427 
L 1033 471 
Q 1033 483 , 1041 488 
Q 1048 493 , 1065 493 
Q 1082 493 , 1090 488 
Q 1097 483 , 1097 471 
L 1097 427 
L 1115 427 
L 1115 472 
Q 1115 486 , 1102 494 
Q 1090 501 , 1065 501 
Q 1041 501 , 1028 494 
Q 1015 486 , 1015 472 
L 1015 427 
" fill="#D21010" />
<path d="
M 1170 550 
L 1152 552 
L 1186 552 
L 1170 550 
M 1163 549 
L 1177 549 
L 1220 555 
L 1204 555 
L 1192 553 
L 1148 553 
L 1135 555 
L 1120 555 
L 1163 549 
" fill="#339541" />
<path d="
M 1120 542 
L 1138 542 
L 1138 546 
Q 1138 547 , 1146 547 
Q 1153 548 , 1170 548 
Q 1187 548 , 1195 547 
Q 1202 547 , 1202 546 
L 1202 542 
L 1220 542 
L 1220 546 
Q 1220 547 , 1207 548 
Q 1195 549 , 1170 549 
Q 1146 549 , 1133 548 
Q 1120 547 , 1120 546 
L 1120 542 
" fill="#D21010" />
<path d="
M 1220 529 
L 1220 531 
Q 1205 529 , 1197 529 
Q 1189 529 , 1179 529 
Q 1158 529 , 1148 530 
Q 1136 532 , 1136 534 
Q 1136 537 , 1148 539 
Q 1158 540 , 1179 540 
Q 1189 540 , 1197 540 
Q 1205 539 , 1220 538 
L 1220 540 
Q 1209 541 , 1199 541 
Q 1189 542 , 1178 542 
Q 1151 542 , 1136 540 
Q 1120 538 , 1120 534 
Q 1120 531 , 1136 529 
Q 1151 527 , 1178 527 
Q 1189 527 , 1199 527 
Q 1210 528 , 1220 529 
" fill="#545FFF" />
<path d="
M 1204 524 
L 1204 519 
L 1175 519 
L 1175 516 
L 1220 516 
L 1220 525 
Q 1209 526 , 1198 526 
Q 1189 527 , 1177 527 
Q 1151 527 , 1135 524 
Q 1120 521 , 1120 517 
Q 1120 512 , 1135 510 
Q 1151 507 , 1177 507 
Q 1188 507 , 1197 507 
Q 1207 508 , 1217 509 
L 1217 511 
Q 1204 510 , 1196 510 
Q 1187 509 , 1178 509 
Q 1157 509 , 1146 511 
Q 1136 513 , 1136 517 
Q 1136 521 , 1146 523 
Q 1157 525 , 1178 525 
Q 1187 525 , 1194 524 
Q 1201 524 , 1204 524 
" fill="#F5C000" />
<path d="
M 1275 554 
L 1257 554 
L 1291 554 
L 1275 554 
M 1268 554 
L 1282 554 
L 1325 554 
L 1309 554 
L 1297 554 
L 1253 554 
L 1240 554 
L 1225 554 
L 1268 554 
" fill="#339541" />
<path d="
M 1325 553 
L 1325 553 
Q 1310 553 , 1302 553 
Q 1294 553 , 1284 553 
Q 1263 553 , 1253 553 
Q 1241 553 , 1241 553 
Q 1241 553 , 1253 553 
Q 1263 553 , 1284 553 
Q 1294 553 , 1302 553 
Q 1310 553 , 1325 553 
L 1325 553 
Q 1314 553 , 1304 553 
Q 1294 553 , 1283 553 
Q 1256 553 , 1241 553 
Q 1225 553 , 1225 553 
Q 1225 553 , 1241 553 
Q 1256 553 , 1283 553 
Q 1294 553 , 1304 553 
Q 1315 553 , 1325 553 
" fill="#545FFF" />
<path d="
M 1225 552 
L 1243 552 
L 1243 552 
Q 1243 552 , 1251 552 
Q 1258 552 , 1275 552 
Q 1292 552 , 1300 552 
Q 1307 552 , 1307 552 
L 1307 552 
L 1325 552 
L 1325 552 
Q 1325 552 , 1312 552 
Q 1300 552 , 1275 552 
Q 1251 552 , 1238 552 
Q 1225 552 , 1225 552 
L 1225 552 
" fill="#D21010" />
<path d="
M 1309 551 
L 1309 551 
L 1280 551 
L 1280 551 
L 1325 551 
L 1325 551 
Q 1314 551 , 1303 551 
Q 1294 551 , 1282 551 
Q 1256 551 , 1240 551 
Q 1225 551 , 1225 551 
Q 1225 551 , 1240 551 
Q 1256 551 , 1282 551 
Q 1293 551 , 1302 551 
Q 1312 551 , 1322 551 
L 1322 551 
Q 1309 551 , 1301 551 
Q 1292 551 , 1283 551 
Q 1262 551 , 1251 551 
Q 1241 551 , 1241 551 
Q 1241 551 , 1251 551 
Q 1262 551 , 1283 551 
Q 1292 551 , 1299 551 
Q 1306 551 , 1309 551 
" fill="#F5C000" />
<path d="M 65 55 L 65 555 " stroke="black" stroke-width="1.5"/>
<path d="M 55 555 L 65 555 " stroke="black" stroke-width="4"/>
<text text-anchor="end" x="50" y="555" font-size="50" alignment-baseline="middle">0</text>
<path d="M 55 305 L 65 305 " stroke="black" stroke-width="4"/>
<text text-anchor="end" x="50" y="305" font-size="50" alignment-baseline="middle">1</text>
<path d="M 55 55 L 65 55 " stroke="black" stroke-width="4"/>
<text text-anchor="end" x="50" y="55" font-size="50" alignment-baseline="middle">2</text>
<text text-anchor="middle" x="697" y="50" font-size="50" alignment-baseline="baseline"></text>
G<path d="
M 160 582 
L 126 595 
L 160 608 
L 157 611 
L 123 598 
L 123 623 
L 117 623 
L 117 599 
L 83 611 
L 80 608 
L 114 595 
L 80 582 
L 83 579 
L 117 591 
L 117 567 
L 123 567 
L 123 591 
L 157 579 
L 160 582 
" fill="black" />
<path d="
" fill="black" />
<path d="
M 211 567 
L 238 567 
L 238 623 
L 211 623 
L 211 567 
" fill="black" />
<path d="
" fill="black" />
<path d="
" fill="black" />
<path d="
M 316 567 
L 343 567 
L 343 623 
L 316 623 
L 316 567 
" fill="black" />
<path d="
" fill="black" />
<path d="
" fill="black" />
<path d="
M 421 567 
L 448 567 
L 448 623 
L 421 623 
L 421 567 
" fill="black" />
<path d="
" fill="black" />
<path d="
" fill="black" />
<path d="
M 526 567 
L 553 567 
L 553 623 
L 526 623 
L 526 567 
" fill="black" />
<path d="
" fill="black" />
<path d="
" fill="black" />
<path d="
M 631 567 
L 658 567 
L 658 623 
L 631 623 
L 631 567 
" fill="black" />
<path d="
" fill="black" />
<path d="
" fill="black" />
<path d="
M 736 567 
L 763 567 
L 763 623 
L 736 623 
L 736 567 
" fill="black" />
<path d="
" fill="black" />
<path d="
" fill="black" />
<path d="
M 841 567 
L 868 567 
L 868 623 
L 841 623 
L 841 567 
" fill="black" />
<path d="
" fill="black" />
<path d="
" fill="black" />
<path d="
M 946 567 
L 973 567 
L 973 623 
L 946 623 
L 946 567 
" fill="black" />
<path d="
" fill="black" />
<path d="
" fill="black" />
<path d="
M 1051 567 
L 1078 567 
L 1078 623 
L 1051 623 
L 1051 567 
" fill="black" />
<path d="
" fill="black" />
<path d="
" fill="black" />
<path d="
M 1156 567 
L 1183 567 
L 1183 623 
L 1156 623 
L 1156 567 
" fill="black" />
<path d="
" fill="black" />
<path d="
M 1315 582 
L 1281 595 
L 1315 608 
L 1312 611 
L 1278 598 
L 1278 623 
L 1272 623 
L 1272 599 
L 1238 611 
L 1235 608 
L 1269 595 
L 1235 582 
L 1238 579 
L 1272 591 
L 1272 567 
L 1278 567 
L 1278 591 
L 1312 579 
L 1315 582 
" fill="black" />
</svg>
