<svg xmlns="http://www.w3.org/2000/svg"
viewBox="0 0 910 635">
<path d="
M 120 554 
L 102 554 
L 136 554 
L 120 554 
M 113 554 
L 127 554 
L 170 554 
L 154 554 
L 142 554 
L 98 554 
L 85 554 
L 70 554 
L 113 554 
" fill="#339541" />
<path d="
M 170 553 
L 170 553 
Q 155 553 , 147 553 
Q 139 553 , 129 553 
Q 108 553 , 98 553 
Q 86 553 , 86 553 
Q 86 553 , 98 553 
Q 108 553 , 129 553 
Q 139 553 , 147 553 
Q 155 553 , 170 553 
L 170 553 
Q 159 553 , 149 553 
Q 139 553 , 128 553 
Q 101 553 , 86 553 
Q 70 553 , 70 553 
Q 70 553 , 86 553 
Q 101 553 , 128 553 
Q 139 553 , 149 553 
Q 160 553 , 170 553 
" fill="#545FFF" />
<path d="
M 70 552 
L 88 552 
L 88 552 
Q 88 552 , 96 552 
Q 103 552 , 120 552 
Q 137 552 , 145 552 
Q 152 552 , 152 552 
L 152 552 
L 170 552 
L 170 552 
Q 170 552 , 157 552 
Q 145 552 , 120 552 
Q 96 552 , 83 552 
Q 70 552 , 70 552 
L 70 552 
" fill="#D21010" />
<path d="
M 154 551 
L 154 551 
L 125 551 
L 125 551 
L 170 551 
L 170 551 
Q 159 551 , 148 551 
Q 139 551 , 127 551 
Q 101 551 , 85 551 
Q 70 551 , 70 551 
Q 70 551 , 85 551 
Q 101 551 , 127 551 
Q 138 551 , 147 551 
Q 157 551 , 167 551 
L 167 551 
Q 154 551 , 146 551 
Q 137 551 , 128 551 
Q 107 551 , 96 551 
Q 86 551 , 86 551 
Q 86 551 , 96 551 
Q 107 551 , 128 551 
Q 137 551 , 144 551 
Q 151 551 , 154 551 
" fill="#F5C000" />
<path d="
M 225 552 
L 207 553 
L 241 553 
L 225 552 
M 218 552 
L 232 552 
L 275 555 
L 259 555 
L 247 554 
L 203 554 
L 190 555 
L 175 555 
L 218 552 
" fill="#339541" />
<path d="
M 175 535 
L 193 535 
L 193 545 
Q 193 548 , 201 549 
Q 208 550 , 225 550 
Q 242 550 , 250 549 
Q 257 548 , 257 545 
L 257 535 
L 275 535 
L 275 545 
Q 275 548 , 262 550 
Q 250 552 , 225 552 
Q 201 552 , 188 550 
Q 175 548 , 175 545 
L 175 535 
" fill="#D21010" />
<path d="
M 259 532 
L 259 527 
L 230 527 
L 230 525 
L 275 525 
L 275 533 
Q 264 534 , 253 534 
Q 244 534 , 232 534 
Q 206 534 , 190 532 
Q 175 530 , 175 526 
Q 175 522 , 190 519 
Q 206 517 , 232 517 
Q 243 517 , 252 517 
Q 262 518 , 272 518 
L 272 521 
Q 259 520 , 251 519 
Q 242 519 , 233 519 
Q 212 519 , 201 521 
Q 191 522 , 191 526 
Q 191 529 , 201 531 
Q 212 532 , 233 532 
Q 242 532 , 249 532 
Q 256 532 , 259 532 
" fill="#F5C000" />
<path d="
M 275 501 
L 275 504 
Q 260 502 , 252 501 
Q 244 501 , 234 501 
Q 213 501 , 203 503 
Q 191 504 , 191 507 
Q 191 511 , 203 513 
Q 213 515 , 234 515 
Q 244 515 , 252 514 
Q 260 514 , 275 512 
L 275 515 
Q 264 516 , 254 516 
Q 244 517 , 233 517 
Q 206 517 , 191 514 
Q 175 512 , 175 508 
Q 175 504 , 191 501 
Q 206 499 , 233 499 
Q 244 499 , 254 499 
Q 265 500 , 275 501 
" fill="#545FFF" />
<path d="
M 330 553 
L 312 554 
L 346 554 
L 330 553 
M 323 553 
L 337 553 
L 380 555 
L 364 555 
L 352 554 
L 308 554 
L 295 555 
L 280 555 
L 323 553 
" fill="#339541" />
<path d="
M 280 531 
L 298 531 
L 298 543 
Q 298 547 , 306 548 
Q 313 550 , 330 550 
Q 347 550 , 355 548 
Q 362 547 , 362 543 
L 362 531 
L 380 531 
L 380 544 
Q 380 548 , 367 550 
Q 355 552 , 330 552 
Q 306 552 , 293 550 
Q 280 548 , 280 544 
L 280 531 
" fill="#D21010" />
<path d="
M 364 526 
L 364 518 
L 335 518 
L 335 515 
L 380 515 
L 380 528 
Q 369 529 , 358 530 
Q 349 530 , 337 530 
Q 311 530 , 295 526 
Q 280 522 , 280 516 
Q 280 509 , 295 505 
Q 311 501 , 337 501 
Q 348 501 , 357 502 
Q 367 502 , 377 503 
L 377 507 
Q 364 505 , 356 505 
Q 347 504 , 338 504 
Q 317 504 , 306 507 
Q 296 510 , 296 516 
Q 296 521 , 306 524 
Q 317 527 , 338 527 
Q 347 527 , 354 527 
Q 361 526 , 364 526 
" fill="#F5C000" />
<path d="
M 380 457 
L 380 464 
Q 365 460 , 357 459 
Q 349 457 , 339 457 
Q 318 457 , 308 462 
Q 296 467 , 296 476 
Q 296 485 , 308 490 
Q 318 495 , 339 495 
Q 349 495 , 357 494 
Q 365 492 , 380 488 
L 380 495 
Q 369 498 , 359 499 
Q 349 500 , 338 500 
Q 311 500 , 296 494 
Q 280 487 , 280 476 
Q 280 465 , 296 459 
Q 311 452 , 338 452 
Q 349 452 , 359 453 
Q 370 454 , 380 457 
" fill="#545FFF" />
<path d="
M 435 552 
L 417 553 
L 451 553 
L 435 552 
M 428 551 
L 442 551 
L 485 555 
L 469 555 
L 457 554 
L 413 554 
L 400 555 
L 385 555 
L 428 551 
" fill="#339541" />
<path d="
M 485 540 
L 485 542 
Q 470 541 , 462 541 
Q 454 540 , 444 540 
Q 423 540 , 413 541 
Q 401 542 , 401 544 
Q 401 547 , 413 548 
Q 423 549 , 444 549 
Q 454 549 , 462 549 
Q 470 548 , 485 547 
L 485 549 
Q 474 550 , 464 550 
Q 454 550 , 443 550 
Q 416 550 , 401 549 
Q 385 547 , 385 545 
Q 385 542 , 401 541 
Q 416 539 , 443 539 
Q 454 539 , 464 539 
Q 475 540 , 485 540 
" fill="#545FFF" />
<path d="
M 469 535 
L 469 528 
L 440 528 
L 440 525 
L 485 525 
L 485 537 
Q 474 538 , 463 538 
Q 454 539 , 442 539 
Q 416 539 , 400 535 
Q 385 532 , 385 525 
Q 385 519 , 400 516 
Q 416 512 , 442 512 
Q 453 512 , 462 512 
Q 472 513 , 482 514 
L 482 518 
Q 469 516 , 461 516 
Q 452 515 , 443 515 
Q 422 515 , 411 518 
Q 401 520 , 401 525 
Q 401 531 , 411 533 
Q 422 536 , 443 536 
Q 452 536 , 459 535 
Q 466 535 , 469 535 
" fill="#F5C000" />
<path d="
M 385 231 
L 403 231 
L 403 396 
Q 403 442 , 411 462 
Q 418 480 , 435 480 
Q 452 480 , 460 462 
Q 467 442 , 467 396 
L 467 231 
L 485 231 
L 485 401 
Q 485 454 , 472 483 
Q 460 511 , 435 511 
Q 411 511 , 398 483 
Q 385 454 , 385 401 
L 385 231 
" fill="#D21010" />
<path d="
M 540 553 
L 522 554 
L 556 554 
L 540 553 
M 533 553 
L 547 553 
L 590 555 
L 574 555 
L 562 554 
L 518 554 
L 505 555 
L 490 555 
L 533 553 
" fill="#339541" />
<path d="
M 590 548 
L 590 549 
Q 575 548 , 567 548 
Q 559 548 , 549 548 
Q 528 548 , 518 548 
Q 506 549 , 506 550 
Q 506 551 , 518 552 
Q 528 552 , 549 552 
Q 559 552 , 567 552 
Q 575 552 , 590 551 
L 590 552 
Q 579 553 , 569 553 
Q 559 553 , 548 553 
Q 521 553 , 506 552 
Q 490 551 , 490 550 
Q 490 549 , 506 548 
Q 521 547 , 548 547 
Q 559 547 , 569 547 
Q 580 547 , 590 548 
" fill="#545FFF" />
<path d="
M 490 482 
L 508 482 
L 508 520 
Q 508 531 , 516 535 
Q 523 540 , 540 540 
Q 557 540 , 565 535 
Q 572 531 , 572 520 
L 572 482 
L 590 482 
L 590 521 
Q 590 534 , 577 540 
Q 565 547 , 540 547 
Q 516 547 , 503 540 
Q 490 534 , 490 521 
L 490 482 
" fill="#D21010" />
<path d="
M 574 459 
L 574 416 
L 545 416 
L 545 399 
L 590 399 
L 590 469 
Q 579 476 , 568 478 
Q 559 481 , 547 481 
Q 521 481 , 505 460 
Q 490 439 , 490 403 
Q 490 366 , 505 345 
Q 521 324 , 547 324 
Q 558 324 , 567 327 
Q 577 330 , 587 337 
L 587 357 
Q 574 348 , 566 345 
Q 557 343 , 548 343 
Q 527 343 , 516 357 
Q 506 372 , 506 403 
Q 506 433 , 516 449 
Q 527 464 , 548 464 
Q 557 464 , 564 462 
Q 571 460 , 574 459 
" fill="#F5C000" />
<path d="
M 645 548 
L 627 551 
L 661 551 
L 645 548 
M 638 547 
L 652 547 
L 695 554 
L 679 554 
L 667 552 
L 623 552 
L 610 554 
L 595 554 
L 638 547 
" fill="#339541" />
<path d="
M 695 537 
L 695 539 
Q 680 538 , 672 537 
Q 664 537 , 654 537 
Q 633 537 , 623 538 
Q 611 539 , 611 541 
Q 611 543 , 623 544 
Q 633 545 , 654 545 
Q 664 545 , 672 545 
Q 680 544 , 695 543 
L 695 545 
Q 684 546 , 674 546 
Q 664 546 , 653 546 
Q 626 546 , 611 545 
Q 595 543 , 595 541 
Q 595 539 , 611 537 
Q 626 536 , 653 536 
Q 664 536 , 674 536 
Q 685 536 , 695 537 
" fill="#545FFF" />
<path d="
M 679 530 
L 679 519 
L 650 519 
L 650 515 
L 695 515 
L 695 533 
Q 684 534 , 673 535 
Q 664 536 , 652 536 
Q 626 536 , 610 531 
Q 595 525 , 595 516 
Q 595 507 , 610 501 
Q 626 496 , 652 496 
Q 663 496 , 672 497 
Q 682 497 , 692 499 
L 692 504 
Q 679 502 , 671 501 
Q 662 501 , 653 501 
Q 632 501 , 621 504 
Q 611 508 , 611 516 
Q 611 524 , 621 528 
Q 632 531 , 653 531 
Q 662 531 , 669 531 
Q 676 531 , 679 530 
" fill="#F5C000" />
<path d="
M 595 399 
L 613 399 
L 613 456 
Q 613 472 , 621 479 
Q 628 485 , 645 485 
Q 662 485 , 670 479 
Q 677 472 , 677 456 
L 677 399 
L 695 399 
L 695 458 
Q 695 476 , 682 486 
Q 670 496 , 645 496 
Q 621 496 , 608 486 
Q 595 476 , 595 458 
L 595 399 
" fill="#D21010" />
<path d="
M 700 549 
L 718 549 
L 718 552 
Q 718 553 , 726 554 
Q 733 554 , 750 554 
Q 767 554 , 775 554 
Q 782 553 , 782 552 
L 782 549 
L 800 549 
L 800 552 
Q 800 554 , 787 554 
Q 775 555 , 750 555 
Q 726 555 , 713 554 
Q 700 554 , 700 552 
L 700 549 
" fill="#D21010" />
<path d="
M 750 542 
L 732 545 
L 766 545 
L 750 542 
M 743 540 
L 757 540 
L 800 548 
L 784 548 
L 772 546 
L 728 546 
L 715 548 
L 700 548 
L 743 540 
" fill="#339541" />
<path d="
M 800 520 
L 800 524 
Q 785 521 , 777 521 
Q 769 520 , 759 520 
Q 738 520 , 728 522 
Q 716 525 , 716 529 
Q 716 533 , 728 535 
Q 738 537 , 759 537 
Q 769 537 , 777 537 
Q 785 536 , 800 534 
L 800 537 
Q 789 538 , 779 539 
Q 769 539 , 758 539 
Q 731 539 , 716 537 
Q 700 534 , 700 529 
Q 700 524 , 716 521 
Q 731 518 , 758 518 
Q 769 518 , 779 519 
Q 790 519 , 800 520 
" fill="#545FFF" />
<path d="
M 784 513 
L 784 506 
L 755 506 
L 755 502 
L 800 502 
L 800 515 
Q 789 516 , 778 517 
Q 769 517 , 757 517 
Q 731 517 , 715 513 
Q 700 510 , 700 503 
Q 700 497 , 715 493 
Q 731 489 , 757 489 
Q 768 489 , 777 489 
Q 787 490 , 797 491 
L 797 495 
Q 784 493 , 776 493 
Q 767 492 , 758 492 
Q 737 492 , 726 495 
Q 716 498 , 716 503 
Q 716 509 , 726 511 
Q 737 514 , 758 514 
Q 767 514 , 774 514 
Q 781 514 , 784 513 
" fill="#F5C000" />
<path d="
M 855 554 
L 837 554 
L 871 554 
L 855 554 
M 848 554 
L 862 554 
L 905 554 
L 889 554 
L 877 554 
L 833 554 
L 820 554 
L 805 554 
L 848 554 
" fill="#339541" />
<path d="
M 905 553 
L 905 553 
Q 890 553 , 882 553 
Q 874 553 , 864 553 
Q 843 553 , 833 553 
Q 821 553 , 821 553 
Q 821 553 , 833 553 
Q 843 553 , 864 553 
Q 874 553 , 882 553 
Q 890 553 , 905 553 
L 905 553 
Q 894 553 , 884 553 
Q 874 553 , 863 553 
Q 836 553 , 821 553 
Q 805 553 , 805 553 
Q 805 553 , 821 553 
Q 836 553 , 863 553 
Q 874 553 , 884 553 
Q 895 553 , 905 553 
" fill="#545FFF" />
<path d="
M 805 552 
L 823 552 
L 823 552 
Q 823 552 , 831 552 
Q 838 552 , 855 552 
Q 872 552 , 880 552 
Q 887 552 , 887 552 
L 887 552 
L 905 552 
L 905 552 
Q 905 552 , 892 552 
Q 880 552 , 855 552 
Q 831 552 , 818 552 
Q 805 552 , 805 552 
L 805 552 
" fill="#D21010" />
<path d="
M 889 551 
L 889 551 
L 860 551 
L 860 551 
L 905 551 
L 905 551 
Q 894 551 , 883 551 
Q 874 551 , 862 551 
Q 836 551 , 820 551 
Q 805 551 , 805 551 
Q 805 551 , 820 551 
Q 836 551 , 862 551 
Q 873 551 , 882 551 
Q 892 551 , 902 551 
L 902 551 
Q 889 551 , 881 551 
Q 872 551 , 863 551 
Q 842 551 , 831 551 
Q 821 551 , 821 551 
Q 821 551 , 831 551 
Q 842 551 , 863 551 
Q 872 551 , 879 551 
Q 886 551 , 889 551 
" fill="#F5C000" />
<path d="M 65 55 L 65 555 " stroke="black" stroke-width="1.5"/>
<path d="M 55 555 L 65 555 " stroke="black" stroke-width="4"/>
<text text-anchor="end" x="50" y="555" font-size="50" alignment-baseline="middle">0</text>
<path d="M 55 305 L 65 305 " stroke="black" stroke-width="4"/>
<text text-anchor="end" x="50" y="305" font-size="50" alignment-baseline="middle">1</text>
<path d="M 55 55 L 65 55 " stroke="black" stroke-width="4"/>
<text text-anchor="end" x="50" y="55" font-size="50" alignment-baseline="middle">2</text>
<text text-anchor="middle" x="487" y="50" font-size="50" alignment-baseline="baseline"></text>
G<path d="
M 160 582 
L 126 595 
L 160 608 
L 157 611 
L 123 598 
L 123 623 
L 117 623 
L 117 599 
L 83 611 
L 80 608 
L 114 595 
L 80 582 
L 83 579 
L 117 591 
L 117 567 
L 123 567 
L 123 591 
L 157 579 
L 160 582 
" fill="black" />
<path d="
" fill="black" />
<path d="
M 211 567 
L 238 567 
L 238 623 
L 211 623 
L 211 567 
" fill="black" />
<path d="
" fill="black" />
<path d="
" fill="black" />
<path d="
M 316 567 
L 343 567 
L 343 623 
L 316 623 
L 316 567 
" fill="black" />
<path d="
" fill="black" />
<path d="
" fill="black" />
<path d="
M 421 567 
L 448 567 
L 448 623 
L 421 623 
L 421 567 
" fill="black" />
<path d="
" fill="black" />
<path d="
" fill="black" />
<path d="
M 526 567 
L 553 567 
L 553 623 
L 526 623 
L 526 567 
" fill="black" />
<path d="
" fill="black" />
<path d="
" fill="black" />
<path d="
M 631 567 
L 658 567 
L 658 623 
L 631 623 
L 631 567 
" fill="black" />
<path d="
" fill="black" />
<path d="
" fill="black" />
<path d="
M 736 567 
L 763 567 
L 763 623 
L 736 623 
L 736 567 
" fill="black" />
<path d="
" fill="black" />
<path d="
M 895 582 
L 861 595 
L 895 608 
L 892 611 
L 858 598 
L 858 623 
L 852 623 
L 852 599 
L 818 611 
L 815 608 
L 849 595 
L 815 582 
L 818 579 
L 852 591 
L 852 567 
L 858 567 
L 858 591 
L 892 579 
L 895 582 
" fill="black" />
</svg>
