<svg xmlns="http://www.w3.org/2000/svg"
viewBox="0 0 595 615">
<path d="
M 115 553 
L 125 553 
L 111 554 
L 129 554 
L 115 553 
M 134 554 
L 102 554 
L 93 555 
L 70 555 
L 106 553 
L 134 553 
L 170 555 
L 143 555 
L 134 554 
" fill="#339541" stroke="black" stroke-width="1"/>
<path d="
M 141 548 
L 141 542 
L 108 542 
L 108 539 
L 170 539 
L 170 551 
Q 148 552 , 128 552 
Q 99 552 , 84 549 
Q 70 547 , 70 541 
Q 70 535 , 84 532 
Q 99 530 , 130 530 
Q 143 530 , 163 531 
L 163 535 
Q 143 533 , 130 533 
Q 114 533 , 105 535 
Q 97 537 , 97 541 
Q 97 549 , 128 549 
Q 137 549 , 141 548 
" fill="#F5C000" stroke="black" stroke-width="1"/>
<path d="
M 157 528 
Q 145 530 , 121 530 
Q 97 530 , 83 528 
Q 70 527 , 70 523 
L 70 506 
L 102 506 
L 102 523 
Q 102 525 , 106 525 
Q 111 526 , 121 526 
Q 132 526 , 136 525 
Q 141 525 , 141 523 
L 141 506 
L 170 506 
L 170 523 
Q 170 527 , 157 528 
" fill="#D21010" stroke="black" stroke-width="1"/>
<path d="
M 70 493 
Q 70 486 , 86 483 
Q 102 480 , 133 480 
Q 149 480 , 168 481 
L 168 486 
Q 146 484 , 133 484 
Q 102 484 , 102 493 
Q 102 498 , 110 500 
Q 118 502 , 133 502 
Q 146 502 , 170 500 
L 170 505 
Q 151 506 , 133 506 
Q 102 506 , 86 503 
Q 70 500 , 70 493 
" fill="#545FFF" stroke="black" stroke-width="1"/>
<path d="
M 220 554 
L 230 554 
L 216 555 
L 234 555 
L 220 554 
M 239 555 
L 207 555 
L 198 555 
L 175 555 
L 211 554 
L 239 554 
L 275 555 
L 248 555 
L 239 555 
" fill="#339541" stroke="black" stroke-width="1"/>
<path d="
M 262 552 
Q 250 554 , 226 554 
Q 202 554 , 188 552 
Q 175 550 , 175 546 
L 175 528 
L 207 528 
L 207 546 
Q 207 548 , 211 549 
Q 216 550 , 226 550 
Q 237 550 , 241 549 
Q 246 548 , 246 546 
L 246 528 
L 275 528 
L 275 546 
Q 275 550 , 262 552 
" fill="#D21010" stroke="black" stroke-width="1"/>
<path d="
M 246 523 
L 246 514 
L 213 514 
L 213 510 
L 275 510 
L 275 526 
Q 253 528 , 233 528 
Q 204 528 , 189 524 
Q 175 521 , 175 513 
Q 175 506 , 189 502 
Q 204 499 , 235 499 
Q 248 499 , 268 500 
L 268 505 
Q 248 503 , 235 503 
Q 219 503 , 210 505 
Q 202 508 , 202 513 
Q 202 523 , 233 523 
Q 242 523 , 246 523 
" fill="#F5C000" stroke="black" stroke-width="1"/>
<path d="
M 175 482 
Q 175 474 , 191 470 
Q 207 466 , 238 466 
Q 254 466 , 273 468 
L 273 473 
Q 251 471 , 238 471 
Q 207 471 , 207 482 
Q 207 489 , 215 491 
Q 223 494 , 238 494 
Q 251 494 , 275 491 
L 275 497 
Q 256 499 , 238 499 
Q 207 499 , 191 495 
Q 175 491 , 175 482 
" fill="#545FFF" stroke="black" stroke-width="1"/>
<path d="
M 325 552 
L 335 552 
L 321 553 
L 339 553 
L 325 552 
M 344 553 
L 312 553 
L 303 554 
L 280 554 
L 316 551 
L 344 551 
L 380 554 
L 353 554 
L 344 553 
" fill="#339541" stroke="black" stroke-width="1"/>
<path d="
M 280 546 
Q 280 544 , 296 543 
Q 312 542 , 343 542 
Q 359 542 , 378 542 
L 378 544 
Q 356 543 , 343 543 
Q 312 543 , 312 546 
Q 312 548 , 320 548 
Q 328 549 , 343 549 
Q 356 549 , 380 548 
L 380 550 
Q 361 550 , 343 550 
Q 312 550 , 296 549 
Q 280 548 , 280 546 
" fill="#545FFF" stroke="black" stroke-width="1"/>
<path d="
M 351 536 
L 351 526 
L 318 526 
L 318 520 
L 380 520 
L 380 540 
Q 358 542 , 338 542 
Q 309 542 , 294 537 
Q 280 533 , 280 524 
Q 280 516 , 294 511 
Q 309 507 , 340 507 
Q 353 507 , 373 508 
L 373 514 
Q 353 512 , 340 512 
Q 324 512 , 315 515 
Q 307 518 , 307 524 
Q 307 536 , 338 536 
Q 347 536 , 351 536 
" fill="#F5C000" stroke="black" stroke-width="1"/>
<path d="
M 367 488 
Q 355 507 , 331 507 
Q 307 507 , 293 488 
Q 280 469 , 280 432 
L 280 243 
L 312 243 
L 312 425 
Q 312 449 , 316 457 
Q 321 466 , 331 466 
Q 342 466 , 346 457 
Q 351 449 , 351 425 
L 351 243 
L 380 243 
L 380 432 
Q 380 469 , 367 488 
" fill="#D21010" stroke="black" stroke-width="1"/>
<path d="
M 430 552 
L 440 552 
L 426 553 
L 444 553 
L 430 552 
M 449 554 
L 417 554 
L 408 554 
L 385 554 
L 421 552 
L 449 552 
L 485 554 
L 458 554 
L 449 554 
" fill="#339541" stroke="black" stroke-width="1"/>
<path d="
M 385 547 
Q 385 544 , 401 543 
Q 417 542 , 448 542 
Q 464 542 , 483 542 
L 483 544 
Q 461 543 , 448 543 
Q 417 543 , 417 547 
Q 417 549 , 425 549 
Q 433 550 , 448 550 
Q 461 550 , 485 549 
L 485 551 
Q 466 552 , 448 552 
Q 417 552 , 401 550 
Q 385 549 , 385 547 
" fill="#545FFF" stroke="black" stroke-width="1"/>
<path d="
M 472 537 
Q 460 541 , 436 541 
Q 412 541 , 398 537 
Q 385 534 , 385 528 
L 385 494 
L 417 494 
L 417 527 
Q 417 531 , 421 532 
Q 426 534 , 436 534 
Q 447 534 , 451 532 
Q 456 531 , 456 527 
L 456 494 
L 485 494 
L 485 528 
Q 485 534 , 472 537 
" fill="#D21010" stroke="black" stroke-width="1"/>
<path d="
M 456 461 
L 456 403 
L 423 403 
L 423 374 
L 485 374 
L 485 481 
Q 463 493 , 443 493 
Q 414 493 , 399 469 
Q 385 446 , 385 396 
Q 385 347 , 399 323 
Q 414 299 , 445 299 
Q 458 299 , 478 307 
L 478 339 
Q 458 329 , 445 329 
Q 429 329 , 420 344 
Q 412 359 , 412 396 
Q 412 464 , 443 464 
Q 452 464 , 456 461 
" fill="#F5C000" stroke="black" stroke-width="1"/>
<path d="
M 535 549 
L 545 549 
L 531 552 
L 549 552 
L 535 549 
M 554 552 
L 522 552 
L 513 554 
L 490 554 
L 526 548 
L 554 548 
L 590 554 
L 563 554 
L 554 552 
" fill="#339541" stroke="black" stroke-width="1"/>
<path d="
M 490 543 
Q 490 540 , 506 539 
Q 522 538 , 553 538 
Q 569 538 , 588 538 
L 588 540 
Q 566 539 , 553 539 
Q 522 539 , 522 543 
Q 522 545 , 530 545 
Q 538 546 , 553 546 
Q 566 546 , 590 545 
L 590 547 
Q 571 547 , 553 547 
Q 522 547 , 506 546 
Q 490 545 , 490 543 
" fill="#545FFF" stroke="black" stroke-width="1"/>
<path d="
M 561 535 
L 561 530 
L 528 530 
L 528 527 
L 590 527 
L 590 537 
Q 568 538 , 548 538 
Q 519 538 , 504 536 
Q 490 534 , 490 529 
Q 490 524 , 504 522 
Q 519 520 , 550 520 
Q 563 520 , 583 521 
L 583 524 
Q 563 523 , 550 523 
Q 534 523 , 525 524 
Q 517 526 , 517 529 
Q 517 535 , 548 535 
Q 557 535 , 561 535 
" fill="#F5C000" stroke="black" stroke-width="1"/>
<path d="
M 577 517 
Q 565 520 , 541 520 
Q 517 520 , 503 517 
Q 490 515 , 490 511 
L 490 488 
L 522 488 
L 522 510 
Q 522 513 , 526 514 
Q 531 515 , 541 515 
Q 552 515 , 556 514 
Q 561 513 , 561 510 
L 561 488 
L 590 488 
L 590 511 
Q 590 515 , 577 517 
" fill="#D21010" stroke="black" stroke-width="1"/>
<path d="M 65 55 L 65 555 " stroke="black" stroke-width="1.5"/>
<path d="M 55 555 L 65 555 " stroke="black" stroke-width="4"/>
<text text-anchor="end" x="50" y="555" font-size="50" alignment-baseline="middle">0</text>
<path d="M 55 305 L 65 305 " stroke="black" stroke-width="4"/>
<text text-anchor="end" x="50" y="305" font-size="50" alignment-baseline="middle">1</text>
<path d="M 55 55 L 65 55 " stroke="black" stroke-width="4"/>
<text text-anchor="end" x="50" y="55" font-size="50" alignment-baseline="middle">2</text>
<text text-anchor="middle" x="330" y="50" font-size="50" alignment-baseline="baseline"></text>
G</svg>
