<svg xmlns="http://www.w3.org/2000/svg"
viewBox="0 0 1435 635">
<path d="
M 120 552 
L 102 553 
L 136 553 
L 120 552 
M 113 552 
L 127 552 
L 170 554 
L 154 554 
L 142 554 
L 98 554 
L 85 554 
L 70 554 
L 113 552 
" fill="#339541" />
<path d="
M 70 548 
L 88 548 
L 88 550 
Q 88 550 , 96 551 
Q 103 551 , 120 551 
Q 137 551 , 145 551 
Q 152 550 , 152 550 
L 152 548 
L 170 548 
L 170 550 
Q 170 550 , 157 551 
Q 145 551 , 120 551 
Q 96 551 , 83 551 
Q 70 550 , 70 550 
L 70 548 
" fill="#D21010" />
<path d="
M 170 543 
L 170 544 
Q 155 544 , 147 544 
Q 139 543 , 129 543 
Q 108 543 , 98 544 
Q 86 544 , 86 545 
Q 86 546 , 98 546 
Q 108 547 , 129 547 
Q 139 547 , 147 547 
Q 155 547 , 170 546 
L 170 547 
Q 159 547 , 149 547 
Q 139 547 , 128 547 
Q 101 547 , 86 547 
Q 70 546 , 70 545 
Q 70 544 , 86 544 
Q 101 543 , 128 543 
Q 139 543 , 149 543 
Q 160 543 , 170 543 
" fill="#545FFF" />
<path d="
M 154 542 
L 154 540 
L 125 540 
L 125 540 
L 170 540 
L 170 542 
Q 159 542 , 148 542 
Q 139 542 , 127 542 
Q 101 542 , 85 542 
Q 70 541 , 70 540 
Q 70 538 , 85 538 
Q 101 537 , 127 537 
Q 138 537 , 147 537 
Q 157 537 , 167 537 
L 167 538 
Q 154 538 , 146 538 
Q 137 538 , 128 538 
Q 107 538 , 96 538 
Q 86 539 , 86 540 
Q 86 541 , 96 541 
Q 107 542 , 128 542 
Q 137 542 , 144 542 
Q 151 542 , 154 542 
" fill="#F5C000" />
<path d="
M 175 554 
L 184 554 
L 184 554 
Q 184 555 , 188 555 
Q 191 555 , 200 555 
Q 209 555 , 212 555 
Q 216 555 , 216 554 
L 216 554 
L 225 554 
L 225 554 
Q 225 555 , 219 555 
Q 212 555 , 200 555 
Q 188 555 , 181 555 
Q 175 555 , 175 554 
L 175 554 
" fill="#D21010" />
<path d="
M 267 555 
L 267 554 
L 253 554 
L 253 554 
L 275 554 
L 275 555 
Q 270 555 , 264 555 
Q 259 555 , 253 555 
Q 240 555 , 233 555 
Q 225 555 , 225 554 
Q 225 554 , 233 554 
Q 240 554 , 253 554 
Q 259 554 , 264 554 
Q 269 554 , 274 554 
L 274 554 
Q 267 554 , 263 554 
Q 259 554 , 254 554 
Q 244 554 , 238 554 
Q 233 554 , 233 554 
Q 233 555 , 238 555 
Q 244 555 , 254 555 
Q 259 555 , 262 555 
Q 266 555 , 267 555 
" fill="lightgray" />
<path d="
M 217 554 
L 217 554 
L 203 554 
L 203 553 
L 225 553 
L 225 554 
Q 220 554 , 214 554 
Q 209 554 , 203 554 
Q 190 554 , 183 554 
Q 175 554 , 175 553 
Q 175 553 , 183 553 
Q 190 553 , 203 553 
Q 209 553 , 214 553 
Q 219 553 , 224 553 
L 224 553 
Q 217 553 , 213 553 
Q 209 553 , 204 553 
Q 194 553 , 188 553 
Q 183 553 , 183 553 
Q 183 554 , 188 554 
Q 194 554 , 204 554 
Q 209 554 , 212 554 
Q 216 554 , 217 554 
" fill="#F5C000" />
<path d="
M 225 553 
L 234 553 
L 234 554 
Q 234 554 , 238 554 
Q 241 554 , 250 554 
Q 259 554 , 262 554 
Q 266 554 , 266 554 
L 266 553 
L 275 553 
L 275 554 
Q 275 554 , 269 554 
Q 262 554 , 250 554 
Q 238 554 , 231 554 
Q 225 554 , 225 554 
L 225 553 
" fill="lightgray" />
<path d="
M 175 546 
L 184 546 
L 184 550 
Q 184 551 , 188 552 
Q 191 552 , 200 552 
Q 209 552 , 212 552 
Q 216 551 , 216 550 
L 216 546 
L 225 546 
L 225 550 
Q 225 551 , 219 552 
Q 212 553 , 200 553 
Q 188 553 , 181 552 
Q 175 551 , 175 550 
L 175 546 
" fill="#D21010" />
<path d="
M 250 547 
L 241 550 
L 258 550 
L 250 547 
M 246 546 
L 254 546 
L 275 553 
L 267 553 
L 261 551 
L 239 551 
L 232 553 
L 225 553 
L 246 546 
" fill="lightgray" />
<path d="
M 200 534 
L 191 540 
L 208 540 
L 200 534 
M 196 532 
L 204 532 
L 225 545 
L 217 545 
L 211 542 
L 189 542 
L 182 545 
L 175 545 
L 196 532 
" fill="#339541" />
<path d="
M 225 532 
L 234 532 
L 234 540 
Q 234 542 , 238 543 
Q 241 544 , 250 544 
Q 259 544 , 262 543 
Q 266 542 , 266 540 
L 266 532 
L 275 532 
L 275 540 
Q 275 543 , 269 544 
Q 262 545 , 250 545 
Q 238 545 , 231 544 
Q 225 543 , 225 540 
L 225 532 
" fill="lightgray" />
<path d="
M 217 518 
L 217 494 
L 203 494 
L 203 484 
L 225 484 
L 225 524 
Q 220 528 , 214 530 
Q 209 531 , 203 531 
Q 190 531 , 183 519 
Q 175 507 , 175 486 
Q 175 465 , 183 453 
Q 190 441 , 203 441 
Q 209 441 , 214 443 
Q 219 444 , 224 448 
L 224 460 
Q 217 455 , 213 453 
Q 209 452 , 204 452 
Q 194 452 , 188 460 
Q 183 469 , 183 486 
Q 183 504 , 188 513 
Q 194 521 , 204 521 
Q 209 521 , 212 520 
Q 216 520 , 217 518 
" fill="#F5C000" />
<path d="
M 275 451 
L 275 465 
Q 268 456 , 264 453 
Q 259 451 , 254 451 
Q 244 451 , 239 460 
Q 233 469 , 233 486 
Q 233 504 , 239 513 
Q 244 522 , 254 522 
Q 259 522 , 264 519 
Q 268 517 , 275 508 
L 275 522 
Q 270 527 , 264 529 
Q 260 531 , 254 531 
Q 240 531 , 233 519 
Q 225 507 , 225 486 
Q 225 465 , 233 453 
Q 240 441 , 254 441 
Q 260 441 , 265 443 
Q 270 445 , 275 451 
" fill="lightgray" />
<path d="
M 225 359 
L 225 373 
Q 218 364 , 214 362 
Q 209 359 , 204 359 
Q 194 359 , 189 368 
Q 183 377 , 183 395 
Q 183 413 , 189 422 
Q 194 431 , 204 431 
Q 209 431 , 214 429 
Q 218 426 , 225 417 
L 225 432 
Q 220 437 , 214 439 
Q 210 441 , 204 441 
Q 190 441 , 183 428 
Q 175 416 , 175 395 
Q 175 374 , 183 362 
Q 190 349 , 204 349 
Q 210 349 , 215 351 
Q 220 353 , 225 359 
" fill="#545FFF" />
<path d="
M 267 428 
L 267 403 
L 253 403 
L 253 393 
L 275 393 
L 275 434 
Q 270 438 , 264 439 
Q 259 441 , 253 441 
Q 240 441 , 233 429 
Q 225 416 , 225 395 
Q 225 374 , 233 361 
Q 240 349 , 253 349 
Q 259 349 , 264 351 
Q 269 352 , 274 356 
L 274 368 
Q 267 363 , 263 361 
Q 259 360 , 254 360 
Q 244 360 , 238 369 
Q 233 377 , 233 395 
Q 233 413 , 238 422 
Q 244 431 , 254 431 
Q 259 431 , 262 430 
Q 266 429 , 267 428 
" fill="lightgray" />
<path d="
M 330 552 
L 312 553 
L 346 553 
L 330 552 
M 323 551 
L 337 551 
L 380 554 
L 364 554 
L 352 553 
L 308 553 
L 295 554 
L 280 554 
L 323 551 
" fill="#339541" />
<path d="
M 364 548 
L 364 544 
L 335 544 
L 335 542 
L 380 542 
L 380 549 
Q 369 550 , 358 550 
Q 349 550 , 337 550 
Q 311 550 , 295 548 
Q 280 546 , 280 543 
Q 280 539 , 295 537 
Q 311 535 , 337 535 
Q 348 535 , 357 535 
Q 367 536 , 377 536 
L 377 538 
Q 364 537 , 356 537 
Q 347 537 , 338 537 
Q 317 537 , 306 538 
Q 296 540 , 296 543 
Q 296 546 , 306 547 
Q 317 549 , 338 549 
Q 347 549 , 354 548 
Q 361 548 , 364 548 
" fill="#F5C000" />
<path d="
M 280 511 
L 298 511 
L 298 525 
Q 298 529 , 306 531 
Q 313 532 , 330 532 
Q 347 532 , 355 531 
Q 362 529 , 362 525 
L 362 511 
L 380 511 
L 380 525 
Q 380 530 , 367 532 
Q 355 535 , 330 535 
Q 306 535 , 293 532 
Q 280 530 , 280 525 
L 280 511 
" fill="#D21010" />
<path d="
M 380 399 
L 380 418 
Q 365 406 , 357 403 
Q 349 400 , 339 400 
Q 318 400 , 308 412 
Q 296 424 , 296 448 
Q 296 473 , 308 485 
Q 318 497 , 339 497 
Q 349 497 , 357 494 
Q 365 491 , 380 478 
L 380 498 
Q 369 505 , 359 508 
Q 349 511 , 338 511 
Q 311 511 , 296 494 
Q 280 477 , 280 448 
Q 280 420 , 296 403 
Q 311 386 , 338 386 
Q 349 386 , 359 389 
Q 370 392 , 380 399 
" fill="#545FFF" />
<path d="
M 485 552 
L 485 553 
Q 470 552 , 462 552 
Q 454 552 , 444 552 
Q 423 552 , 413 553 
Q 401 553 , 401 553 
Q 401 554 , 413 554 
Q 423 554 , 444 554 
Q 454 554 , 462 554 
Q 470 554 , 485 554 
L 485 554 
Q 474 554 , 464 555 
Q 454 555 , 443 555 
Q 416 555 , 401 554 
Q 385 554 , 385 553 
Q 385 553 , 401 552 
Q 416 552 , 443 552 
Q 454 552 , 464 552 
Q 475 552 , 485 552 
" fill="#545FFF" />
<path d="
M 435 543 
L 417 547 
L 451 547 
L 435 543 
M 428 541 
L 442 541 
L 485 551 
L 469 551 
L 457 548 
L 413 548 
L 400 551 
L 385 551 
L 428 541 
" fill="#339541" />
<path d="
M 385 513 
L 403 513 
L 403 529 
Q 403 534 , 411 536 
Q 418 538 , 435 538 
Q 452 538 , 460 536 
Q 467 534 , 467 529 
L 467 513 
L 485 513 
L 485 530 
Q 485 535 , 472 538 
Q 460 541 , 435 541 
Q 411 541 , 398 538 
Q 385 535 , 385 530 
L 385 513 
" fill="#D21010" />
<path d="
M 469 508 
L 469 499 
L 440 499 
L 440 496 
L 485 496 
L 485 510 
Q 474 512 , 463 512 
Q 454 513 , 442 513 
Q 416 513 , 400 509 
Q 385 504 , 385 496 
Q 385 489 , 400 484 
Q 416 480 , 442 480 
Q 453 480 , 462 481 
Q 472 481 , 482 483 
L 482 487 
Q 469 485 , 461 484 
Q 452 484 , 443 484 
Q 422 484 , 411 487 
Q 401 490 , 401 496 
Q 401 503 , 411 506 
Q 422 509 , 443 509 
Q 452 509 , 459 509 
Q 466 509 , 469 508 
" fill="#F5C000" />
<path d="
M 540 553 
L 522 554 
L 556 554 
L 540 553 
M 533 553 
L 547 553 
L 590 554 
L 574 554 
L 562 554 
L 518 554 
L 505 554 
L 490 554 
L 533 553 
" fill="#339541" />
<path d="
M 490 547 
L 508 547 
L 508 551 
Q 508 552 , 516 552 
Q 523 552 , 540 552 
Q 557 552 , 565 552 
Q 572 552 , 572 551 
L 572 547 
L 590 547 
L 590 551 
Q 590 552 , 577 552 
Q 565 553 , 540 553 
Q 516 553 , 503 552 
Q 490 552 , 490 551 
L 490 547 
" fill="#D21010" />
<path d="
M 590 501 
L 590 508 
Q 575 503 , 567 502 
Q 559 501 , 549 501 
Q 528 501 , 518 506 
Q 506 511 , 506 521 
Q 506 531 , 518 536 
Q 528 541 , 549 541 
Q 559 541 , 567 540 
Q 575 539 , 590 533 
L 590 542 
Q 579 544 , 569 546 
Q 559 547 , 548 547 
Q 521 547 , 506 540 
Q 490 533 , 490 521 
Q 490 509 , 506 502 
Q 521 495 , 548 495 
Q 559 495 , 569 496 
Q 580 498 , 590 501 
" fill="#545FFF" />
<path d="
M 574 481 
L 574 454 
L 545 454 
L 545 444 
L 590 444 
L 590 487 
Q 579 491 , 568 493 
Q 559 494 , 547 494 
Q 521 494 , 505 481 
Q 490 469 , 490 446 
Q 490 423 , 505 410 
Q 521 397 , 547 397 
Q 558 397 , 567 399 
Q 577 400 , 587 405 
L 587 417 
Q 574 412 , 566 410 
Q 557 409 , 548 409 
Q 527 409 , 516 418 
Q 506 427 , 506 446 
Q 506 465 , 516 474 
Q 527 484 , 548 484 
Q 557 484 , 564 483 
Q 571 482 , 574 481 
" fill="#F5C000" />
<path d="
M 645 553 
L 627 554 
L 661 554 
L 645 553 
M 638 553 
L 652 553 
L 695 554 
L 679 554 
L 667 554 
L 623 554 
L 610 554 
L 595 554 
L 638 553 
" fill="#339541" />
<path d="
M 595 549 
L 613 549 
L 613 551 
Q 613 552 , 621 552 
Q 628 552 , 645 552 
Q 662 552 , 670 552 
Q 677 552 , 677 551 
L 677 549 
L 695 549 
L 695 551 
Q 695 552 , 682 552 
Q 670 553 , 645 553 
Q 621 553 , 608 552 
Q 595 552 , 595 551 
L 595 549 
" fill="#D21010" />
<path d="
M 695 487 
L 695 498 
Q 680 491 , 672 489 
Q 664 488 , 654 488 
Q 633 488 , 623 494 
Q 611 501 , 611 514 
Q 611 527 , 623 534 
Q 633 541 , 654 541 
Q 664 541 , 672 539 
Q 680 537 , 695 530 
L 695 541 
Q 684 545 , 674 546 
Q 664 548 , 653 548 
Q 626 548 , 611 539 
Q 595 530 , 595 514 
Q 595 498 , 611 489 
Q 626 480 , 653 480 
Q 664 480 , 674 482 
Q 685 483 , 695 487 
" fill="#545FFF" />
<path d="
M 679 467 
L 679 444 
L 650 444 
L 650 434 
L 695 434 
L 695 473 
Q 684 476 , 673 478 
Q 664 479 , 652 479 
Q 626 479 , 610 468 
Q 595 456 , 595 436 
Q 595 416 , 610 405 
Q 626 393 , 652 393 
Q 663 393 , 672 394 
Q 682 396 , 692 400 
L 692 411 
Q 679 406 , 671 405 
Q 662 403 , 653 403 
Q 632 403 , 621 411 
Q 611 420 , 611 436 
Q 611 453 , 621 462 
Q 632 470 , 653 470 
Q 662 470 , 669 469 
Q 676 468 , 679 467 
" fill="#F5C000" />
<path d="
M 750 552 
L 732 553 
L 766 553 
L 750 552 
M 743 552 
L 757 552 
L 800 554 
L 784 554 
L 772 554 
L 728 554 
L 715 554 
L 700 554 
L 743 552 
" fill="#339541" />
<path d="
M 700 548 
L 718 548 
L 718 550 
Q 718 550 , 726 551 
Q 733 551 , 750 551 
Q 767 551 , 775 551 
Q 782 550 , 782 550 
L 782 548 
L 800 548 
L 800 550 
Q 800 550 , 787 551 
Q 775 551 , 750 551 
Q 726 551 , 713 551 
Q 700 550 , 700 550 
L 700 548 
" fill="#D21010" />
<path d="
M 800 543 
L 800 544 
Q 785 544 , 777 544 
Q 769 543 , 759 543 
Q 738 543 , 728 544 
Q 716 544 , 716 545 
Q 716 546 , 728 546 
Q 738 547 , 759 547 
Q 769 547 , 777 547 
Q 785 547 , 800 546 
L 800 547 
Q 789 547 , 779 547 
Q 769 547 , 758 547 
Q 731 547 , 716 547 
Q 700 546 , 700 545 
Q 700 544 , 716 544 
Q 731 543 , 758 543 
Q 769 543 , 779 543 
Q 790 543 , 800 543 
" fill="#545FFF" />
<path d="
M 784 542 
L 784 540 
L 755 540 
L 755 540 
L 800 540 
L 800 542 
Q 789 542 , 778 542 
Q 769 542 , 757 542 
Q 731 542 , 715 542 
Q 700 541 , 700 540 
Q 700 538 , 715 538 
Q 731 537 , 757 537 
Q 768 537 , 777 537 
Q 787 537 , 797 537 
L 797 538 
Q 784 538 , 776 538 
Q 767 538 , 758 538 
Q 737 538 , 726 538 
Q 716 539 , 716 540 
Q 716 541 , 726 541 
Q 737 542 , 758 542 
Q 767 542 , 774 542 
Q 781 542 , 784 542 
" fill="#F5C000" />
<path d="
M 855 553 
L 837 554 
L 871 554 
L 855 553 
M 848 553 
L 862 553 
L 905 554 
L 889 554 
L 877 554 
L 833 554 
L 820 554 
L 805 554 
L 848 553 
" fill="#339541" />
<path d="
M 889 550 
L 889 547 
L 860 547 
L 860 545 
L 905 545 
L 905 551 
Q 894 552 , 883 552 
Q 874 552 , 862 552 
Q 836 552 , 820 551 
Q 805 549 , 805 545 
Q 805 542 , 820 540 
Q 836 538 , 862 538 
Q 873 538 , 882 538 
Q 892 539 , 902 539 
L 902 541 
Q 889 540 , 881 540 
Q 872 540 , 863 540 
Q 842 540 , 831 541 
Q 821 542 , 821 545 
Q 821 548 , 831 549 
Q 842 551 , 863 551 
Q 872 551 , 879 551 
Q 886 551 , 889 550 
" fill="#F5C000" />
<path d="
M 905 511 
L 905 516 
Q 890 513 , 882 512 
Q 874 511 , 864 511 
Q 843 511 , 833 514 
Q 821 517 , 821 523 
Q 821 529 , 833 532 
Q 843 535 , 864 535 
Q 874 535 , 882 534 
Q 890 533 , 905 530 
L 905 535 
Q 894 537 , 884 537 
Q 874 538 , 863 538 
Q 836 538 , 821 534 
Q 805 530 , 805 523 
Q 805 516 , 821 512 
Q 836 508 , 863 508 
Q 874 508 , 884 509 
Q 895 509 , 905 511 
" fill="#545FFF" />
<path d="
M 805 475 
L 823 475 
L 823 494 
Q 823 499 , 831 502 
Q 838 504 , 855 504 
Q 872 504 , 880 502 
Q 887 499 , 887 494 
L 887 475 
L 905 475 
L 905 495 
Q 905 501 , 892 504 
Q 880 507 , 855 507 
Q 831 507 , 818 504 
Q 805 501 , 805 495 
L 805 475 
" fill="#D21010" />
<path d="
M 960 552 
L 942 553 
L 976 553 
L 960 552 
M 953 552 
L 967 552 
L 1010 554 
L 994 554 
L 982 553 
L 938 553 
L 925 554 
L 910 554 
L 953 552 
" fill="#339541" />
<path d="
M 910 541 
L 928 541 
L 928 547 
Q 928 549 , 936 550 
Q 943 551 , 960 551 
Q 977 551 , 985 550 
Q 992 549 , 992 547 
L 992 541 
L 1010 541 
L 1010 548 
Q 1010 550 , 997 551 
Q 985 552 , 960 552 
Q 936 552 , 923 551 
Q 910 550 , 910 548 
L 910 541 
" fill="#D21010" />
<path d="
M 1010 508 
L 1010 513 
Q 995 510 , 987 509 
Q 979 508 , 969 508 
Q 948 508 , 938 512 
Q 926 515 , 926 522 
Q 926 529 , 938 533 
Q 948 536 , 969 536 
Q 979 536 , 987 535 
Q 995 534 , 1010 531 
L 1010 536 
Q 999 538 , 989 539 
Q 979 540 , 968 540 
Q 941 540 , 926 535 
Q 910 530 , 910 522 
Q 910 514 , 926 509 
Q 941 504 , 968 504 
Q 979 504 , 989 505 
Q 1000 506 , 1010 508 
" fill="#545FFF" />
<path d="
M 994 492 
L 994 471 
L 965 471 
L 965 462 
L 1010 462 
L 1010 498 
Q 999 501 , 988 502 
Q 979 504 , 967 504 
Q 941 504 , 925 493 
Q 910 482 , 910 463 
Q 910 445 , 925 434 
Q 941 423 , 967 423 
Q 978 423 , 987 424 
Q 997 426 , 1007 430 
L 1007 440 
Q 994 435 , 986 434 
Q 977 433 , 968 433 
Q 947 433 , 936 440 
Q 926 448 , 926 463 
Q 926 479 , 936 487 
Q 947 495 , 968 495 
Q 977 495 , 984 494 
Q 991 493 , 994 492 
" fill="#F5C000" />
<path d="
M 1015 554 
L 1024 554 
L 1024 554 
Q 1024 555 , 1028 555 
Q 1031 555 , 1040 555 
Q 1049 555 , 1052 555 
Q 1056 555 , 1056 554 
L 1056 554 
L 1065 554 
L 1065 554 
Q 1065 555 , 1059 555 
Q 1052 555 , 1040 555 
Q 1028 555 , 1021 555 
Q 1015 555 , 1015 554 
L 1015 554 
" fill="lightgray" />
<path d="
M 1107 555 
L 1107 554 
L 1093 554 
L 1093 554 
L 1115 554 
L 1115 555 
Q 1110 555 , 1104 555 
Q 1099 555 , 1093 555 
Q 1080 555 , 1073 555 
Q 1065 555 , 1065 554 
Q 1065 554 , 1073 554 
Q 1080 554 , 1093 554 
Q 1099 554 , 1104 554 
Q 1109 554 , 1114 554 
L 1114 554 
Q 1107 554 , 1103 554 
Q 1099 554 , 1094 554 
Q 1084 554 , 1078 554 
Q 1073 554 , 1073 554 
Q 1073 555 , 1078 555 
Q 1084 555 , 1094 555 
Q 1099 555 , 1102 555 
Q 1106 555 , 1107 555 
" fill="#F5C000" />
<path d="
M 1057 554 
L 1057 554 
L 1043 554 
L 1043 553 
L 1065 553 
L 1065 554 
Q 1060 554 , 1054 554 
Q 1049 554 , 1043 554 
Q 1030 554 , 1023 554 
Q 1015 554 , 1015 553 
Q 1015 553 , 1023 553 
Q 1030 553 , 1043 553 
Q 1049 553 , 1054 553 
Q 1059 553 , 1064 553 
L 1064 553 
Q 1057 553 , 1053 553 
Q 1049 553 , 1044 553 
Q 1034 553 , 1028 553 
Q 1023 553 , 1023 553 
Q 1023 554 , 1028 554 
Q 1034 554 , 1044 554 
Q 1049 554 , 1052 554 
Q 1056 554 , 1057 554 
" fill="lightgray" />
<path d="
M 1065 553 
L 1074 553 
L 1074 554 
Q 1074 554 , 1078 554 
Q 1081 554 , 1090 554 
Q 1099 554 , 1102 554 
Q 1106 554 , 1106 554 
L 1106 553 
L 1115 553 
L 1115 554 
Q 1115 554 , 1109 554 
Q 1102 554 , 1090 554 
Q 1078 554 , 1071 554 
Q 1065 554 , 1065 554 
L 1065 553 
" fill="#D21010" />
<path d="
M 1015 546 
L 1024 546 
L 1024 550 
Q 1024 551 , 1028 552 
Q 1031 552 , 1040 552 
Q 1049 552 , 1052 552 
Q 1056 551 , 1056 550 
L 1056 546 
L 1065 546 
L 1065 550 
Q 1065 551 , 1059 552 
Q 1052 553 , 1040 553 
Q 1028 553 , 1021 552 
Q 1015 551 , 1015 550 
L 1015 546 
" fill="lightgray" />
<path d="
M 1090 547 
L 1081 550 
L 1098 550 
L 1090 547 
M 1086 546 
L 1094 546 
L 1115 553 
L 1107 553 
L 1101 551 
L 1079 551 
L 1072 553 
L 1065 553 
L 1086 546 
" fill="#339541" />
<path d="
M 1040 534 
L 1031 540 
L 1048 540 
L 1040 534 
M 1036 532 
L 1044 532 
L 1065 545 
L 1057 545 
L 1051 542 
L 1029 542 
L 1022 545 
L 1015 545 
L 1036 532 
" fill="lightgray" />
<path d="
M 1065 532 
L 1074 532 
L 1074 540 
Q 1074 542 , 1078 543 
Q 1081 544 , 1090 544 
Q 1099 544 , 1102 543 
Q 1106 542 , 1106 540 
L 1106 532 
L 1115 532 
L 1115 540 
Q 1115 543 , 1109 544 
Q 1102 545 , 1090 545 
Q 1078 545 , 1071 544 
Q 1065 543 , 1065 540 
L 1065 532 
" fill="#D21010" />
<path d="
M 1057 518 
L 1057 494 
L 1043 494 
L 1043 484 
L 1065 484 
L 1065 524 
Q 1060 528 , 1054 530 
Q 1049 531 , 1043 531 
Q 1030 531 , 1023 519 
Q 1015 507 , 1015 486 
Q 1015 465 , 1023 453 
Q 1030 441 , 1043 441 
Q 1049 441 , 1054 443 
Q 1059 444 , 1064 448 
L 1064 460 
Q 1057 455 , 1053 453 
Q 1049 452 , 1044 452 
Q 1034 452 , 1028 460 
Q 1023 469 , 1023 486 
Q 1023 504 , 1028 513 
Q 1034 521 , 1044 521 
Q 1049 521 , 1052 520 
Q 1056 520 , 1057 518 
" fill="lightgray" />
<path d="
M 1115 451 
L 1115 465 
Q 1108 456 , 1104 453 
Q 1099 451 , 1094 451 
Q 1084 451 , 1079 460 
Q 1073 469 , 1073 486 
Q 1073 504 , 1079 513 
Q 1084 522 , 1094 522 
Q 1099 522 , 1104 519 
Q 1108 517 , 1115 508 
L 1115 522 
Q 1110 527 , 1104 529 
Q 1100 531 , 1094 531 
Q 1080 531 , 1073 519 
Q 1065 507 , 1065 486 
Q 1065 465 , 1073 453 
Q 1080 441 , 1094 441 
Q 1100 441 , 1105 443 
Q 1110 445 , 1115 451 
" fill="#545FFF" />
<path d="
M 1065 359 
L 1065 373 
Q 1058 364 , 1054 362 
Q 1049 359 , 1044 359 
Q 1034 359 , 1029 368 
Q 1023 377 , 1023 395 
Q 1023 413 , 1029 422 
Q 1034 431 , 1044 431 
Q 1049 431 , 1054 429 
Q 1058 426 , 1065 417 
L 1065 432 
Q 1060 437 , 1054 439 
Q 1050 441 , 1044 441 
Q 1030 441 , 1023 428 
Q 1015 416 , 1015 395 
Q 1015 374 , 1023 362 
Q 1030 349 , 1044 349 
Q 1050 349 , 1055 351 
Q 1060 353 , 1065 359 
" fill="lightgray" />
<path d="
M 1107 428 
L 1107 403 
L 1093 403 
L 1093 393 
L 1115 393 
L 1115 434 
Q 1110 438 , 1104 439 
Q 1099 441 , 1093 441 
Q 1080 441 , 1073 429 
Q 1065 416 , 1065 395 
Q 1065 374 , 1073 361 
Q 1080 349 , 1093 349 
Q 1099 349 , 1104 351 
Q 1109 352 , 1114 356 
L 1114 368 
Q 1107 363 , 1103 361 
Q 1099 360 , 1094 360 
Q 1084 360 , 1078 369 
Q 1073 377 , 1073 395 
Q 1073 413 , 1078 422 
Q 1084 431 , 1094 431 
Q 1099 431 , 1102 430 
Q 1106 429 , 1107 428 
" fill="#F5C000" />
<path d="
M 1170 552 
L 1152 553 
L 1186 553 
L 1170 552 
M 1163 552 
L 1177 552 
L 1220 554 
L 1204 554 
L 1192 553 
L 1148 553 
L 1135 554 
L 1120 554 
L 1163 552 
" fill="#339541" />
<path d="
M 1120 547 
L 1138 547 
L 1138 550 
Q 1138 550 , 1146 551 
Q 1153 551 , 1170 551 
Q 1187 551 , 1195 551 
Q 1202 550 , 1202 550 
L 1202 547 
L 1220 547 
L 1220 550 
Q 1220 551 , 1207 551 
Q 1195 551 , 1170 551 
Q 1146 551 , 1133 551 
Q 1120 551 , 1120 550 
L 1120 547 
" fill="#D21010" />
<path d="
M 1220 542 
L 1220 543 
Q 1205 542 , 1197 542 
Q 1189 542 , 1179 542 
Q 1158 542 , 1148 542 
Q 1136 543 , 1136 544 
Q 1136 545 , 1148 546 
Q 1158 546 , 1179 546 
Q 1189 546 , 1197 546 
Q 1205 546 , 1220 545 
L 1220 546 
Q 1209 547 , 1199 547 
Q 1189 547 , 1178 547 
Q 1151 547 , 1136 546 
Q 1120 545 , 1120 544 
Q 1120 543 , 1136 542 
Q 1151 541 , 1178 541 
Q 1189 541 , 1199 541 
Q 1210 541 , 1220 542 
" fill="#545FFF" />
<path d="
M 1204 539 
L 1204 538 
L 1175 538 
L 1175 537 
L 1220 537 
L 1220 540 
Q 1209 540 , 1198 540 
Q 1189 540 , 1177 540 
Q 1151 540 , 1135 539 
Q 1120 538 , 1120 537 
Q 1120 536 , 1135 535 
Q 1151 534 , 1177 534 
Q 1188 534 , 1197 534 
Q 1207 534 , 1217 534 
L 1217 535 
Q 1204 535 , 1196 535 
Q 1187 535 , 1178 535 
Q 1157 535 , 1146 535 
Q 1136 536 , 1136 537 
Q 1136 538 , 1146 539 
Q 1157 539 , 1178 539 
Q 1187 539 , 1194 539 
Q 1201 539 , 1204 539 
" fill="#F5C000" />
<path d="
M 1275 553 
L 1257 554 
L 1291 554 
L 1275 553 
M 1268 553 
L 1282 553 
L 1325 554 
L 1309 554 
L 1297 554 
L 1253 554 
L 1240 554 
L 1225 554 
L 1268 553 
" fill="#339541" />
<path d="
M 1225 540 
L 1243 540 
L 1243 547 
Q 1243 549 , 1251 550 
Q 1258 551 , 1275 551 
Q 1292 551 , 1300 550 
Q 1307 549 , 1307 547 
L 1307 540 
L 1325 540 
L 1325 548 
Q 1325 550 , 1312 551 
Q 1300 552 , 1275 552 
Q 1251 552 , 1238 551 
Q 1225 550 , 1225 548 
L 1225 540 
" fill="#D21010" />
<path d="
M 1325 504 
L 1325 510 
Q 1310 506 , 1302 505 
Q 1294 504 , 1284 504 
Q 1263 504 , 1253 508 
Q 1241 512 , 1241 519 
Q 1241 527 , 1253 531 
Q 1263 535 , 1284 535 
Q 1294 535 , 1302 534 
Q 1310 533 , 1325 529 
L 1325 535 
Q 1314 537 , 1304 538 
Q 1294 539 , 1283 539 
Q 1256 539 , 1241 534 
Q 1225 529 , 1225 520 
Q 1225 511 , 1241 505 
Q 1256 500 , 1283 500 
Q 1294 500 , 1304 501 
Q 1315 502 , 1325 504 
" fill="#545FFF" />
<path d="
M 1309 493 
L 1309 483 
L 1280 483 
L 1280 478 
L 1325 478 
L 1325 496 
Q 1314 498 , 1303 498 
Q 1294 499 , 1282 499 
Q 1256 499 , 1240 494 
Q 1225 488 , 1225 479 
Q 1225 470 , 1240 464 
Q 1256 459 , 1282 459 
Q 1293 459 , 1302 460 
Q 1312 460 , 1322 462 
L 1322 467 
Q 1309 465 , 1301 464 
Q 1292 464 , 1283 464 
Q 1262 464 , 1251 468 
Q 1241 471 , 1241 479 
Q 1241 487 , 1251 491 
Q 1262 495 , 1283 495 
Q 1292 495 , 1299 494 
Q 1306 494 , 1309 493 
" fill="#F5C000" />
<path d="
M 1380 552 
L 1362 553 
L 1396 553 
L 1380 552 
M 1373 552 
L 1387 552 
L 1430 554 
L 1414 554 
L 1402 554 
L 1358 554 
L 1345 554 
L 1330 554 
L 1373 552 
" fill="#339541" />
<path d="
M 1330 548 
L 1348 548 
L 1348 550 
Q 1348 550 , 1356 551 
Q 1363 551 , 1380 551 
Q 1397 551 , 1405 551 
Q 1412 550 , 1412 550 
L 1412 548 
L 1430 548 
L 1430 550 
Q 1430 550 , 1417 551 
Q 1405 551 , 1380 551 
Q 1356 551 , 1343 551 
Q 1330 550 , 1330 550 
L 1330 548 
" fill="#D21010" />
<path d="
M 1430 543 
L 1430 544 
Q 1415 544 , 1407 544 
Q 1399 543 , 1389 543 
Q 1368 543 , 1358 544 
Q 1346 544 , 1346 545 
Q 1346 546 , 1358 546 
Q 1368 547 , 1389 547 
Q 1399 547 , 1407 547 
Q 1415 547 , 1430 546 
L 1430 547 
Q 1419 547 , 1409 547 
Q 1399 547 , 1388 547 
Q 1361 547 , 1346 547 
Q 1330 546 , 1330 545 
Q 1330 544 , 1346 544 
Q 1361 543 , 1388 543 
Q 1399 543 , 1409 543 
Q 1420 543 , 1430 543 
" fill="#545FFF" />
<path d="
M 1414 542 
L 1414 540 
L 1385 540 
L 1385 540 
L 1430 540 
L 1430 542 
Q 1419 542 , 1408 542 
Q 1399 542 , 1387 542 
Q 1361 542 , 1345 542 
Q 1330 541 , 1330 540 
Q 1330 538 , 1345 538 
Q 1361 537 , 1387 537 
Q 1398 537 , 1407 537 
Q 1417 537 , 1427 537 
L 1427 538 
Q 1414 538 , 1406 538 
Q 1397 538 , 1388 538 
Q 1367 538 , 1356 538 
Q 1346 539 , 1346 540 
Q 1346 541 , 1356 541 
Q 1367 542 , 1388 542 
Q 1397 542 , 1404 542 
Q 1411 542 , 1414 542 
" fill="#F5C000" />
<path d="M 65 168 L 65 555 " stroke="black" stroke-width="1.5"/>
<path d="M 55 555 L 65 555 " stroke="black" stroke-width="4"/>
<text text-anchor="end" x="50" y="555" font-size="50" alignment-baseline="middle">0</text>
<path d="M 55 362 L 65 362 " stroke="black" stroke-width="4"/>
<text text-anchor="end" x="50" y="362" font-size="50" alignment-baseline="middle">1</text>
<path d="M 55 168 L 65 168 " stroke="black" stroke-width="4"/>
<text text-anchor="end" x="50" y="168" font-size="50" alignment-baseline="middle">2</text>
<text text-anchor="middle" x="750" y="50" font-size="50" alignment-baseline="baseline"></text>
G<path d="
M 160 582 
L 126 595 
L 160 608 
L 157 611 
L 123 598 
L 123 623 
L 117 623 
L 117 599 
L 83 611 
L 80 608 
L 114 595 
L 80 582 
L 83 579 
L 117 591 
L 117 567 
L 123 567 
L 123 591 
L 157 579 
L 160 582 
" fill="black" />
<path d="
M 265 567 
Q 236 574 , 223 581 
Q 210 588 , 210 595 
Q 210 602 , 223 609 
Q 236 616 , 265 623 
L 241 623 
Q 213 616 , 199 609 
Q 185 602 , 185 595 
Q 185 588 , 199 581 
Q 213 574 , 241 567 
L 265 567 
" fill="black" />
<path d="
" fill="black" />
<path d="
M 316 567 
L 343 567 
L 343 623 
L 316 623 
L 316 567 
" fill="black" />
<path d="
" fill="black" />
<path d="
" fill="black" />
<path d="
M 421 567 
L 448 567 
L 448 623 
L 421 623 
L 421 567 
" fill="black" />
<path d="
" fill="black" />
<path d="
" fill="black" />
<path d="
M 526 567 
L 553 567 
L 553 623 
L 526 623 
L 526 567 
" fill="black" />
<path d="
" fill="black" />
<path d="
" fill="black" />
<path d="
M 622 567 
L 642 567 
L 642 623 
L 622 623 
L 622 567 
" fill="black" />
<path d="
" fill="black" />
<path d="
M 673 567 
L 690 567 
L 690 571 
L 676 571 
L 676 588 
Q 677 588 , 678 587 
Q 679 587 , 681 587 
Q 686 587 , 689 592 
Q 692 596 , 692 604 
Q 692 613 , 689 618 
Q 686 623 , 680 623 
Q 678 623 , 676 623 
Q 674 622 , 672 621 
L 672 616 
Q 674 618 , 676 618 
Q 678 619 , 680 619 
Q 684 619 , 686 615 
Q 689 611 , 689 604 
Q 689 598 , 687 594 
Q 684 591 , 680 591 
Q 679 591 , 677 591 
Q 676 592 , 673 594 
L 673 567 
" fill="black" />
<path d="
M 790 582 
L 756 595 
L 790 608 
L 787 611 
L 753 598 
L 753 623 
L 747 623 
L 747 599 
L 713 611 
L 710 608 
L 744 595 
L 710 582 
L 713 579 
L 747 591 
L 747 567 
L 753 567 
L 753 591 
L 787 579 
L 790 582 
" fill="black" />
<path d="
" fill="black" />
<path d="
M 841 567 
L 868 567 
L 868 623 
L 841 623 
L 841 567 
" fill="black" />
<path d="
" fill="black" />
<path d="
" fill="black" />
<path d="
M 946 567 
L 973 567 
L 973 623 
L 946 623 
L 946 567 
" fill="black" />
<path d="
" fill="black" />
<path d="
M 1025 567 
L 1049 567 
Q 1077 574 , 1091 581 
Q 1105 588 , 1105 595 
Q 1105 602 , 1091 609 
Q 1077 616 , 1049 623 
L 1025 623 
Q 1054 616 , 1067 609 
Q 1080 602 , 1080 595 
Q 1080 588 , 1067 581 
Q 1054 574 , 1025 567 
" fill="black" />
<path d="
" fill="black" />
<path d="
M 1156 567 
L 1183 567 
L 1183 623 
L 1156 623 
L 1156 567 
" fill="black" />
<path d="
" fill="black" />
<path d="
" fill="black" />
<path d="
M 1261 567 
L 1288 567 
L 1288 623 
L 1261 623 
L 1261 567 
" fill="black" />
<path d="
" fill="black" />
<path d="
M 1420 582 
L 1386 595 
L 1420 608 
L 1417 611 
L 1383 598 
L 1383 623 
L 1377 623 
L 1377 599 
L 1343 611 
L 1340 608 
L 1374 595 
L 1340 582 
L 1343 579 
L 1377 591 
L 1377 567 
L 1383 567 
L 1383 591 
L 1417 579 
L 1420 582 
" fill="black" />
</svg>
