<svg xmlns="http://www.w3.org/2000/svg"
viewBox="0 0 1435 635">
<path d="
M 120 552 
L 102 554 
L 136 554 
L 120 552 
M 113 552 
L 127 552 
L 170 555 
L 154 555 
L 142 554 
L 98 554 
L 85 555 
L 70 555 
L 113 552 
" fill="#339541" />
<path d="
M 70 548 
L 88 548 
L 88 550 
Q 88 551 , 96 551 
Q 103 551 , 120 551 
Q 137 551 , 145 551 
Q 152 551 , 152 550 
L 152 548 
L 170 548 
L 170 550 
Q 170 551 , 157 551 
Q 145 552 , 120 552 
Q 96 552 , 83 551 
Q 70 551 , 70 550 
L 70 548 
" fill="#D21010" />
<path d="
M 170 543 
L 170 543 
Q 155 543 , 147 543 
Q 139 543 , 129 543 
Q 108 543 , 98 543 
Q 86 544 , 86 545 
Q 86 546 , 98 546 
Q 108 547 , 129 547 
Q 139 547 , 147 546 
Q 155 546 , 170 546 
L 170 547 
Q 159 547 , 149 547 
Q 139 547 , 128 547 
Q 101 547 , 86 546 
Q 70 546 , 70 545 
Q 70 543 , 86 543 
Q 101 542 , 128 542 
Q 139 542 , 149 542 
Q 160 542 , 170 543 
" fill="#545FFF" />
<path d="
M 154 540 
L 154 539 
L 125 539 
L 125 538 
L 170 538 
L 170 541 
Q 159 541 , 148 541 
Q 139 541 , 127 541 
Q 101 541 , 85 541 
Q 70 540 , 70 538 
Q 70 537 , 85 536 
Q 101 535 , 127 535 
Q 138 535 , 147 535 
Q 157 535 , 167 536 
L 167 536 
Q 154 536 , 146 536 
Q 137 536 , 128 536 
Q 107 536 , 96 536 
Q 86 537 , 86 538 
Q 86 539 , 96 540 
Q 107 541 , 128 541 
Q 137 541 , 144 541 
Q 151 541 , 154 540 
" fill="#F5C000" />
<path d="
M 225 553 
L 207 554 
L 241 554 
L 225 553 
M 218 553 
L 232 553 
L 275 554 
L 259 554 
L 247 554 
L 203 554 
L 190 554 
L 175 554 
L 218 553 
" fill="#339541" />
<path d="
M 175 532 
L 193 532 
L 193 544 
Q 193 548 , 201 549 
Q 208 550 , 225 550 
Q 242 550 , 250 549 
Q 257 548 , 257 544 
L 257 532 
L 275 532 
L 275 545 
Q 275 548 , 262 551 
Q 250 553 , 225 553 
Q 201 553 , 188 551 
Q 175 548 , 175 545 
L 175 532 
" fill="#D21010" />
<path d="
M 275 498 
L 275 504 
Q 260 500 , 252 499 
Q 244 498 , 234 498 
Q 213 498 , 203 502 
Q 191 506 , 191 513 
Q 191 520 , 203 524 
Q 213 527 , 234 527 
Q 244 527 , 252 527 
Q 260 526 , 275 522 
L 275 528 
Q 264 530 , 254 531 
Q 244 532 , 233 532 
Q 206 532 , 191 526 
Q 175 521 , 175 513 
Q 175 504 , 191 499 
Q 206 494 , 233 494 
Q 244 494 , 254 495 
Q 265 496 , 275 498 
" fill="#545FFF" />
<path d="
M 259 487 
L 259 475 
L 230 475 
L 230 471 
L 275 471 
L 275 490 
Q 264 492 , 253 493 
Q 244 493 , 232 493 
Q 206 493 , 190 488 
Q 175 482 , 175 472 
Q 175 462 , 190 456 
Q 206 450 , 232 450 
Q 243 450 , 252 451 
Q 262 452 , 272 454 
L 272 459 
Q 259 457 , 251 456 
Q 242 455 , 233 455 
Q 212 455 , 201 459 
Q 191 463 , 191 472 
Q 191 480 , 201 484 
Q 212 489 , 233 489 
Q 242 489 , 249 488 
Q 256 488 , 259 487 
" fill="#F5C000" />
<path d="
M 330 553 
L 312 554 
L 346 554 
L 330 553 
M 323 553 
L 337 553 
L 380 554 
L 364 554 
L 352 554 
L 308 554 
L 295 554 
L 280 554 
L 323 553 
" fill="#339541" />
<path d="
M 280 530 
L 298 530 
L 298 543 
Q 298 547 , 306 548 
Q 313 550 , 330 550 
Q 347 550 , 355 548 
Q 362 547 , 362 543 
L 362 530 
L 380 530 
L 380 544 
Q 380 548 , 367 550 
Q 355 552 , 330 552 
Q 306 552 , 293 550 
Q 280 548 , 280 544 
L 280 530 
" fill="#D21010" />
<path d="
M 364 525 
L 364 516 
L 335 516 
L 335 512 
L 380 512 
L 380 527 
Q 369 529 , 358 529 
Q 349 530 , 337 530 
Q 311 530 , 295 525 
Q 280 521 , 280 513 
Q 280 505 , 295 501 
Q 311 496 , 337 496 
Q 348 496 , 357 497 
Q 367 497 , 377 499 
L 377 503 
Q 364 501 , 356 501 
Q 347 500 , 338 500 
Q 317 500 , 306 503 
Q 296 506 , 296 513 
Q 296 520 , 306 523 
Q 317 526 , 338 526 
Q 347 526 , 354 526 
Q 361 525 , 364 525 
" fill="#F5C000" />
<path d="
M 380 445 
L 380 454 
Q 365 448 , 357 447 
Q 349 445 , 339 445 
Q 318 445 , 308 451 
Q 296 457 , 296 468 
Q 296 479 , 308 484 
Q 318 490 , 339 490 
Q 349 490 , 357 488 
Q 365 487 , 380 481 
L 380 490 
Q 369 493 , 359 495 
Q 349 496 , 338 496 
Q 311 496 , 296 488 
Q 280 481 , 280 468 
Q 280 454 , 296 447 
Q 311 439 , 338 439 
Q 349 439 , 359 440 
Q 370 442 , 380 445 
" fill="#545FFF" />
<path d="
M 435 553 
L 417 554 
L 451 554 
L 435 553 
M 428 553 
L 442 553 
L 485 554 
L 469 554 
L 457 554 
L 413 554 
L 400 554 
L 385 554 
L 428 553 
" fill="#339541" />
<path d="
M 485 535 
L 485 538 
Q 470 536 , 462 536 
Q 454 535 , 444 535 
Q 423 535 , 413 537 
Q 401 539 , 401 543 
Q 401 547 , 413 548 
Q 423 550 , 444 550 
Q 454 550 , 462 550 
Q 470 549 , 485 547 
L 485 551 
Q 474 552 , 464 552 
Q 454 552 , 443 552 
Q 416 552 , 401 550 
Q 385 547 , 385 543 
Q 385 538 , 401 536 
Q 416 533 , 443 533 
Q 454 533 , 464 533 
Q 475 534 , 485 535 
" fill="#545FFF" />
<path d="
M 385 492 
L 403 492 
L 403 516 
Q 403 523 , 411 525 
Q 418 528 , 435 528 
Q 452 528 , 460 525 
Q 467 523 , 467 516 
L 467 492 
L 485 492 
L 485 517 
Q 485 524 , 472 529 
Q 460 533 , 435 533 
Q 411 533 , 398 529 
Q 385 524 , 385 517 
L 385 492 
" fill="#D21010" />
<path d="
M 469 483 
L 469 465 
L 440 465 
L 440 458 
L 485 458 
L 485 487 
Q 474 489 , 463 491 
Q 454 492 , 442 492 
Q 416 492 , 400 483 
Q 385 475 , 385 460 
Q 385 445 , 400 437 
Q 416 428 , 442 428 
Q 453 428 , 462 429 
Q 472 430 , 482 433 
L 482 441 
Q 469 438 , 461 437 
Q 452 436 , 443 436 
Q 422 436 , 411 442 
Q 401 448 , 401 460 
Q 401 472 , 411 479 
Q 422 485 , 443 485 
Q 452 485 , 459 484 
Q 466 483 , 469 483 
" fill="#F5C000" />
<path d="
M 540 553 
L 522 554 
L 556 554 
L 540 553 
M 533 553 
L 547 553 
L 590 554 
L 574 554 
L 562 554 
L 518 554 
L 505 554 
L 490 554 
L 533 553 
" fill="#339541" />
<path d="
M 490 537 
L 508 537 
L 508 546 
Q 508 548 , 516 549 
Q 523 550 , 540 550 
Q 557 550 , 565 549 
Q 572 548 , 572 546 
L 572 537 
L 590 537 
L 590 546 
Q 590 549 , 577 551 
Q 565 552 , 540 552 
Q 516 552 , 503 551 
Q 490 549 , 490 546 
L 490 537 
" fill="#D21010" />
<path d="
M 590 497 
L 590 504 
Q 575 499 , 567 498 
Q 559 497 , 549 497 
Q 528 497 , 518 501 
Q 506 506 , 506 514 
Q 506 523 , 518 527 
Q 528 532 , 549 532 
Q 559 532 , 567 531 
Q 575 529 , 590 525 
L 590 532 
Q 579 535 , 569 536 
Q 559 537 , 548 537 
Q 521 537 , 506 531 
Q 490 525 , 490 514 
Q 490 504 , 506 498 
Q 521 492 , 548 492 
Q 559 492 , 569 493 
Q 580 494 , 590 497 
" fill="#545FFF" />
<path d="
M 574 469 
L 574 426 
L 545 426 
L 545 408 
L 590 408 
L 590 479 
Q 579 486 , 568 489 
Q 559 491 , 547 492 
Q 521 492 , 505 470 
Q 490 449 , 490 412 
Q 490 375 , 505 353 
Q 521 332 , 547 332 
Q 558 332 , 567 335 
Q 577 338 , 587 345 
L 587 365 
Q 574 356 , 566 354 
Q 557 351 , 548 351 
Q 527 351 , 516 366 
Q 506 381 , 506 412 
Q 506 443 , 516 459 
Q 527 474 , 548 474 
Q 557 474 , 564 472 
Q 571 471 , 574 469 
" fill="#F5C000" />
<path d="
M 645 553 
L 627 554 
L 661 554 
L 645 553 
M 638 553 
L 652 553 
L 695 555 
L 679 555 
L 667 554 
L 623 554 
L 610 555 
L 595 555 
L 638 553 
" fill="#339541" />
<path d="
M 595 533 
L 613 533 
L 613 545 
Q 613 548 , 621 549 
Q 628 551 , 645 551 
Q 662 551 , 670 549 
Q 677 548 , 677 545 
L 677 533 
L 695 533 
L 695 545 
Q 695 549 , 682 551 
Q 670 553 , 645 553 
Q 621 553 , 608 551 
Q 595 549 , 595 545 
L 595 533 
" fill="#D21010" />
<path d="
M 695 500 
L 695 506 
Q 680 502 , 672 501 
Q 664 500 , 654 500 
Q 633 500 , 623 504 
Q 611 507 , 611 514 
Q 611 522 , 623 525 
Q 633 529 , 654 529 
Q 664 529 , 672 528 
Q 680 527 , 695 523 
L 695 529 
Q 684 531 , 674 532 
Q 664 533 , 653 533 
Q 626 533 , 611 528 
Q 595 523 , 595 514 
Q 595 506 , 611 501 
Q 626 496 , 653 496 
Q 664 496 , 674 497 
Q 685 498 , 695 500 
" fill="#545FFF" />
<path d="
M 679 486 
L 679 467 
L 650 467 
L 650 460 
L 695 460 
L 695 490 
Q 684 493 , 673 494 
Q 664 496 , 652 496 
Q 626 496 , 610 486 
Q 595 477 , 595 461 
Q 595 445 , 610 436 
Q 626 427 , 652 427 
Q 663 427 , 672 428 
Q 682 429 , 692 433 
L 692 441 
Q 679 437 , 671 436 
Q 662 435 , 653 435 
Q 632 435 , 621 442 
Q 611 448 , 611 461 
Q 611 475 , 621 481 
Q 632 488 , 653 488 
Q 662 488 , 669 487 
Q 676 487 , 679 486 
" fill="#F5C000" />
<path d="
M 750 552 
L 732 554 
L 766 554 
L 750 552 
M 743 552 
L 757 552 
L 800 555 
L 784 555 
L 772 554 
L 728 554 
L 715 555 
L 700 555 
L 743 552 
" fill="#339541" />
<path d="
M 700 548 
L 718 548 
L 718 550 
Q 718 551 , 726 551 
Q 733 551 , 750 551 
Q 767 551 , 775 551 
Q 782 551 , 782 550 
L 782 548 
L 800 548 
L 800 550 
Q 800 551 , 787 551 
Q 775 552 , 750 552 
Q 726 552 , 713 551 
Q 700 551 , 700 550 
L 700 548 
" fill="#D21010" />
<path d="
M 800 543 
L 800 543 
Q 785 543 , 777 543 
Q 769 543 , 759 543 
Q 738 543 , 728 543 
Q 716 544 , 716 545 
Q 716 546 , 728 546 
Q 738 547 , 759 547 
Q 769 547 , 777 546 
Q 785 546 , 800 546 
L 800 547 
Q 789 547 , 779 547 
Q 769 547 , 758 547 
Q 731 547 , 716 546 
Q 700 546 , 700 545 
Q 700 543 , 716 543 
Q 731 542 , 758 542 
Q 769 542 , 779 542 
Q 790 542 , 800 543 
" fill="#545FFF" />
<path d="
M 784 540 
L 784 539 
L 755 539 
L 755 538 
L 800 538 
L 800 541 
Q 789 541 , 778 541 
Q 769 541 , 757 541 
Q 731 541 , 715 541 
Q 700 540 , 700 538 
Q 700 537 , 715 536 
Q 731 535 , 757 535 
Q 768 535 , 777 535 
Q 787 535 , 797 536 
L 797 536 
Q 784 536 , 776 536 
Q 767 536 , 758 536 
Q 737 536 , 726 536 
Q 716 537 , 716 538 
Q 716 539 , 726 540 
Q 737 541 , 758 541 
Q 767 541 , 774 541 
Q 781 541 , 784 540 
" fill="#F5C000" />
<path d="
M 855 554 
L 837 555 
L 871 555 
L 855 554 
M 848 554 
L 862 554 
L 905 555 
L 889 555 
L 877 555 
L 833 555 
L 820 555 
L 805 555 
L 848 554 
" fill="#339541" />
<path d="
M 805 533 
L 823 533 
L 823 545 
Q 823 548 , 831 550 
Q 838 551 , 855 551 
Q 872 551 , 880 550 
Q 887 548 , 887 545 
L 887 533 
L 905 533 
L 905 545 
Q 905 549 , 892 551 
Q 880 553 , 855 553 
Q 831 553 , 818 551 
Q 805 549 , 805 545 
L 805 533 
" fill="#D21010" />
<path d="
M 889 527 
L 889 516 
L 860 516 
L 860 512 
L 905 512 
L 905 530 
Q 894 531 , 883 532 
Q 874 533 , 862 533 
Q 836 533 , 820 527 
Q 805 522 , 805 513 
Q 805 504 , 820 498 
Q 836 493 , 862 493 
Q 873 493 , 882 494 
Q 892 494 , 902 496 
L 902 501 
Q 889 499 , 881 498 
Q 872 498 , 863 498 
Q 842 498 , 831 501 
Q 821 505 , 821 513 
Q 821 521 , 831 524 
Q 842 528 , 863 528 
Q 872 528 , 879 528 
Q 886 527 , 889 527 
" fill="#F5C000" />
<path d="
M 905 442 
L 905 451 
Q 890 445 , 882 444 
Q 874 442 , 864 442 
Q 843 442 , 833 448 
Q 821 453 , 821 464 
Q 821 475 , 833 481 
Q 843 487 , 864 487 
Q 874 487 , 882 485 
Q 890 484 , 905 478 
L 905 487 
Q 894 490 , 884 491 
Q 874 493 , 863 493 
Q 836 493 , 821 485 
Q 805 477 , 805 464 
Q 805 451 , 821 444 
Q 836 436 , 863 436 
Q 874 436 , 884 437 
Q 895 439 , 905 442 
" fill="#545FFF" />
<path d="
M 960 553 
L 942 554 
L 976 554 
L 960 553 
M 953 553 
L 967 553 
L 1010 554 
L 994 554 
L 982 554 
L 938 554 
L 925 554 
L 910 554 
L 953 553 
" fill="#339541" />
<path d="
M 910 546 
L 928 546 
L 928 550 
Q 928 551 , 936 552 
Q 943 552 , 960 552 
Q 977 552 , 985 552 
Q 992 551 , 992 550 
L 992 546 
L 1010 546 
L 1010 550 
Q 1010 551 , 997 552 
Q 985 553 , 960 553 
Q 936 553 , 923 552 
Q 910 551 , 910 550 
L 910 546 
" fill="#D21010" />
<path d="
M 994 537 
L 994 520 
L 965 520 
L 965 514 
L 1010 514 
L 1010 541 
Q 999 544 , 988 545 
Q 979 546 , 967 546 
Q 941 546 , 925 538 
Q 910 529 , 910 515 
Q 910 500 , 925 492 
Q 941 484 , 967 484 
Q 978 484 , 987 485 
Q 997 486 , 1007 489 
L 1007 497 
Q 994 493 , 986 492 
Q 977 491 , 968 491 
Q 947 491 , 936 497 
Q 926 503 , 926 515 
Q 926 527 , 936 533 
Q 947 539 , 968 539 
Q 977 539 , 984 538 
Q 991 538 , 994 537 
" fill="#F5C000" />
<path d="
M 1010 330 
L 1010 357 
Q 995 340 , 987 335 
Q 979 331 , 969 331 
Q 948 331 , 938 348 
Q 926 365 , 926 398 
Q 926 431 , 938 448 
Q 948 465 , 969 465 
Q 979 465 , 987 461 
Q 995 456 , 1010 439 
L 1010 466 
Q 999 476 , 989 480 
Q 979 484 , 968 484 
Q 941 484 , 926 461 
Q 910 437 , 910 398 
Q 910 359 , 926 335 
Q 941 312 , 968 312 
Q 979 312 , 989 316 
Q 1000 320 , 1010 330 
" fill="#545FFF" />
<path d="
M 1065 553 
L 1047 554 
L 1081 554 
L 1065 553 
M 1058 553 
L 1072 553 
L 1115 554 
L 1099 554 
L 1087 554 
L 1043 554 
L 1030 554 
L 1015 554 
L 1058 553 
" fill="#339541" />
<path d="
M 1115 534 
L 1115 537 
Q 1100 535 , 1092 535 
Q 1084 534 , 1074 534 
Q 1053 534 , 1043 536 
Q 1031 538 , 1031 542 
Q 1031 546 , 1043 549 
Q 1053 551 , 1074 551 
Q 1084 551 , 1092 550 
Q 1100 550 , 1115 547 
L 1115 551 
Q 1104 552 , 1094 552 
Q 1084 553 , 1073 553 
Q 1046 553 , 1031 550 
Q 1015 547 , 1015 542 
Q 1015 538 , 1031 535 
Q 1046 532 , 1073 532 
Q 1084 532 , 1094 533 
Q 1105 533 , 1115 534 
" fill="#545FFF" />
<path d="
M 1099 527 
L 1099 518 
L 1070 518 
L 1070 515 
L 1115 515 
L 1115 529 
Q 1104 531 , 1093 531 
Q 1084 532 , 1072 532 
Q 1046 532 , 1030 527 
Q 1015 523 , 1015 515 
Q 1015 508 , 1030 503 
Q 1046 499 , 1072 499 
Q 1083 499 , 1092 500 
Q 1102 500 , 1112 502 
L 1112 506 
Q 1099 504 , 1091 503 
Q 1082 503 , 1073 503 
Q 1052 503 , 1041 506 
Q 1031 509 , 1031 515 
Q 1031 522 , 1041 525 
Q 1052 528 , 1073 528 
Q 1082 528 , 1089 528 
Q 1096 527 , 1099 527 
" fill="#F5C000" />
<path d="
M 1015 307 
L 1033 307 
L 1033 420 
Q 1033 451 , 1041 464 
Q 1048 477 , 1065 477 
Q 1082 477 , 1090 464 
Q 1097 451 , 1097 420 
L 1097 307 
L 1115 307 
L 1115 423 
Q 1115 459 , 1102 479 
Q 1090 498 , 1065 498 
Q 1041 498 , 1028 479 
Q 1015 459 , 1015 423 
L 1015 307 
" fill="#D21010" />
<path d="
M 1170 554 
L 1152 555 
L 1186 555 
L 1170 554 
M 1163 554 
L 1177 554 
L 1220 555 
L 1204 555 
L 1192 555 
L 1148 555 
L 1135 555 
L 1120 555 
L 1163 554 
" fill="#339541" />
<path d="
M 1120 548 
L 1138 548 
L 1138 551 
Q 1138 552 , 1146 553 
Q 1153 553 , 1170 553 
Q 1187 553 , 1195 553 
Q 1202 552 , 1202 551 
L 1202 548 
L 1220 548 
L 1220 552 
Q 1220 553 , 1207 553 
Q 1195 554 , 1170 554 
Q 1146 554 , 1133 553 
Q 1120 553 , 1120 552 
L 1120 548 
" fill="#D21010" />
<path d="
M 1220 483 
L 1220 494 
Q 1205 487 , 1197 485 
Q 1189 483 , 1179 483 
Q 1158 483 , 1148 490 
Q 1136 497 , 1136 511 
Q 1136 525 , 1148 533 
Q 1158 540 , 1179 540 
Q 1189 540 , 1197 538 
Q 1205 536 , 1220 529 
L 1220 540 
Q 1209 544 , 1199 546 
Q 1189 548 , 1178 548 
Q 1151 548 , 1136 538 
Q 1120 528 , 1120 511 
Q 1120 495 , 1136 485 
Q 1151 475 , 1178 475 
Q 1189 475 , 1199 477 
Q 1210 479 , 1220 483 
" fill="#545FFF" />
<path d="
M 1204 454 
L 1204 415 
L 1175 415 
L 1175 399 
L 1220 399 
L 1220 464 
Q 1209 470 , 1198 472 
Q 1189 475 , 1177 475 
Q 1151 475 , 1135 455 
Q 1120 436 , 1120 402 
Q 1120 369 , 1135 349 
Q 1151 330 , 1177 330 
Q 1188 330 , 1197 333 
Q 1207 335 , 1217 342 
L 1217 360 
Q 1204 352 , 1196 350 
Q 1187 347 , 1178 347 
Q 1157 347 , 1146 361 
Q 1136 374 , 1136 402 
Q 1136 431 , 1146 445 
Q 1157 459 , 1178 459 
Q 1187 459 , 1194 457 
Q 1201 456 , 1204 454 
" fill="#F5C000" />
<path d="
M 1275 553 
L 1257 554 
L 1291 554 
L 1275 553 
M 1268 553 
L 1282 553 
L 1325 554 
L 1309 554 
L 1297 554 
L 1253 554 
L 1240 554 
L 1225 554 
L 1268 553 
" fill="#339541" />
<path d="
M 1225 533 
L 1243 533 
L 1243 545 
Q 1243 548 , 1251 549 
Q 1258 550 , 1275 550 
Q 1292 550 , 1300 549 
Q 1307 548 , 1307 545 
L 1307 533 
L 1325 533 
L 1325 545 
Q 1325 549 , 1312 551 
Q 1300 553 , 1275 553 
Q 1251 553 , 1238 551 
Q 1225 549 , 1225 545 
L 1225 533 
" fill="#D21010" />
<path d="
M 1309 527 
L 1309 516 
L 1280 516 
L 1280 511 
L 1325 511 
L 1325 530 
Q 1314 531 , 1303 532 
Q 1294 533 , 1282 533 
Q 1256 533 , 1240 527 
Q 1225 522 , 1225 512 
Q 1225 503 , 1240 497 
Q 1256 492 , 1282 492 
Q 1293 492 , 1302 493 
Q 1312 493 , 1322 495 
L 1322 500 
Q 1309 498 , 1301 497 
Q 1292 497 , 1283 497 
Q 1262 497 , 1251 501 
Q 1241 504 , 1241 512 
Q 1241 520 , 1251 524 
Q 1262 528 , 1283 528 
Q 1292 528 , 1299 528 
Q 1306 527 , 1309 527 
" fill="#F5C000" />
<path d="
M 1325 416 
L 1325 429 
Q 1310 421 , 1302 419 
Q 1294 416 , 1284 416 
Q 1263 416 , 1253 425 
Q 1241 433 , 1241 449 
Q 1241 466 , 1253 474 
Q 1263 482 , 1284 482 
Q 1294 482 , 1302 480 
Q 1310 478 , 1325 469 
L 1325 483 
Q 1314 487 , 1304 489 
Q 1294 491 , 1283 491 
Q 1256 491 , 1241 480 
Q 1225 469 , 1225 449 
Q 1225 430 , 1241 419 
Q 1256 407 , 1283 407 
Q 1294 407 , 1304 409 
Q 1315 411 , 1325 416 
" fill="#545FFF" />
<path d="
M 1380 552 
L 1362 554 
L 1396 554 
L 1380 552 
M 1373 552 
L 1387 552 
L 1430 555 
L 1414 555 
L 1402 554 
L 1358 554 
L 1345 555 
L 1330 555 
L 1373 552 
" fill="#339541" />
<path d="
M 1330 548 
L 1348 548 
L 1348 550 
Q 1348 551 , 1356 551 
Q 1363 551 , 1380 551 
Q 1397 551 , 1405 551 
Q 1412 551 , 1412 550 
L 1412 548 
L 1430 548 
L 1430 550 
Q 1430 551 , 1417 551 
Q 1405 552 , 1380 552 
Q 1356 552 , 1343 551 
Q 1330 551 , 1330 550 
L 1330 548 
" fill="#D21010" />
<path d="
M 1430 543 
L 1430 543 
Q 1415 543 , 1407 543 
Q 1399 543 , 1389 543 
Q 1368 543 , 1358 543 
Q 1346 544 , 1346 545 
Q 1346 546 , 1358 546 
Q 1368 547 , 1389 547 
Q 1399 547 , 1407 546 
Q 1415 546 , 1430 546 
L 1430 547 
Q 1419 547 , 1409 547 
Q 1399 547 , 1388 547 
Q 1361 547 , 1346 546 
Q 1330 546 , 1330 545 
Q 1330 543 , 1346 543 
Q 1361 542 , 1388 542 
Q 1399 542 , 1409 542 
Q 1420 542 , 1430 543 
" fill="#545FFF" />
<path d="
M 1414 540 
L 1414 539 
L 1385 539 
L 1385 538 
L 1430 538 
L 1430 541 
Q 1419 541 , 1408 541 
Q 1399 541 , 1387 541 
Q 1361 541 , 1345 541 
Q 1330 540 , 1330 538 
Q 1330 537 , 1345 536 
Q 1361 535 , 1387 535 
Q 1398 535 , 1407 535 
Q 1417 535 , 1427 536 
L 1427 536 
Q 1414 536 , 1406 536 
Q 1397 536 , 1388 536 
Q 1367 536 , 1356 536 
Q 1346 537 , 1346 538 
Q 1346 539 , 1356 540 
Q 1367 541 , 1388 541 
Q 1397 541 , 1404 541 
Q 1411 541 , 1414 540 
" fill="#F5C000" />
<path d="M 65 55 L 65 555 " stroke="black" stroke-width="1.5"/>
<path d="M 55 555 L 65 555 " stroke="black" stroke-width="4"/>
<text text-anchor="end" x="50" y="555" font-size="50" alignment-baseline="middle">0</text>
<path d="M 55 305 L 65 305 " stroke="black" stroke-width="4"/>
<text text-anchor="end" x="50" y="305" font-size="50" alignment-baseline="middle">1</text>
<path d="M 55 55 L 65 55 " stroke="black" stroke-width="4"/>
<text text-anchor="end" x="50" y="55" font-size="50" alignment-baseline="middle">2</text>
<text text-anchor="middle" x="750" y="50" font-size="50" alignment-baseline="baseline"></text>
G<path d="
M 160 582 
L 126 595 
L 160 608 
L 157 611 
L 123 598 
L 123 623 
L 117 623 
L 117 599 
L 83 611 
L 80 608 
L 114 595 
L 80 582 
L 83 579 
L 117 591 
L 117 567 
L 123 567 
L 123 591 
L 157 579 
L 160 582 
" fill="black" />
<path d="
" fill="black" />
<path d="
M 211 567 
L 238 567 
L 238 623 
L 211 623 
L 211 567 
" fill="black" />
<path d="
" fill="black" />
<path d="
" fill="black" />
<path d="
M 316 567 
L 343 567 
L 343 623 
L 316 623 
L 316 567 
" fill="black" />
<path d="
" fill="black" />
<path d="
" fill="black" />
<path d="
M 421 567 
L 448 567 
L 448 623 
L 421 623 
L 421 567 
" fill="black" />
<path d="
" fill="black" />
<path d="
" fill="black" />
<path d="
M 526 567 
L 553 567 
L 553 623 
L 526 623 
L 526 567 
" fill="black" />
<path d="
" fill="black" />
<path d="
" fill="black" />
<path d="
M 617 567 
L 633 567 
L 633 623 
L 617 623 
L 617 567 
" fill="black" />
<path d="
" fill="black" />
<path d="
M 669 593 
Q 671 594 , 672 597 
Q 673 601 , 673 606 
Q 673 614 , 671 618 
Q 669 623 , 664 623 
Q 662 623 , 661 622 
Q 659 621 , 657 619 
L 657 613 
Q 659 617 , 660 618 
Q 662 619 , 664 619 
Q 667 619 , 669 616 
Q 671 613 , 671 606 
Q 671 601 , 669 598 
Q 668 595 , 664 595 
L 661 595 
L 661 591 
L 665 591 
Q 667 591 , 669 589 
Q 670 586 , 670 582 
Q 670 577 , 669 574 
Q 667 571 , 664 571 
Q 663 571 , 661 572 
Q 660 573 , 658 575 
L 658 571 
Q 660 569 , 662 568 
Q 663 567 , 665 567 
Q 669 567 , 671 571 
Q 672 575 , 672 581 
Q 672 586 , 671 589 
Q 671 592 , 669 593 
" fill="black" />
<path d="
M 677 567 
L 693 567 
L 693 571 
L 684 623 
L 681 623 
L 691 571 
L 677 571 
L 677 567 
" fill="black" />
<path d="
M 790 582 
L 756 595 
L 790 608 
L 787 611 
L 753 598 
L 753 623 
L 747 623 
L 747 599 
L 713 611 
L 710 608 
L 744 595 
L 710 582 
L 713 579 
L 747 591 
L 747 567 
L 753 567 
L 753 591 
L 787 579 
L 790 582 
" fill="black" />
<path d="
" fill="black" />
<path d="
M 841 567 
L 868 567 
L 868 623 
L 841 623 
L 841 567 
" fill="black" />
<path d="
" fill="black" />
<path d="
" fill="black" />
<path d="
M 946 567 
L 973 567 
L 973 623 
L 946 623 
L 946 567 
" fill="black" />
<path d="
" fill="black" />
<path d="
" fill="black" />
<path d="
M 1051 567 
L 1078 567 
L 1078 623 
L 1051 623 
L 1051 567 
" fill="black" />
<path d="
" fill="black" />
<path d="
" fill="black" />
<path d="
M 1156 567 
L 1183 567 
L 1183 623 
L 1156 623 
L 1156 567 
" fill="black" />
<path d="
" fill="black" />
<path d="
" fill="black" />
<path d="
M 1261 567 
L 1288 567 
L 1288 623 
L 1261 623 
L 1261 567 
" fill="black" />
<path d="
" fill="black" />
<path d="
M 1420 582 
L 1386 595 
L 1420 608 
L 1417 611 
L 1383 598 
L 1383 623 
L 1377 623 
L 1377 599 
L 1343 611 
L 1340 608 
L 1374 595 
L 1340 582 
L 1343 579 
L 1377 591 
L 1377 567 
L 1383 567 
L 1383 591 
L 1417 579 
L 1420 582 
" fill="black" />
</svg>
