<svg xmlns="http://www.w3.org/2000/svg"
viewBox="0 0 1435 635">
<path d="
M 120 553 
L 102 554 
L 136 554 
L 120 553 
M 113 552 
L 127 552 
L 170 555 
L 154 555 
L 142 554 
L 98 554 
L 85 555 
L 70 555 
L 113 552 
" fill="#339541" />
<path d="
M 70 549 
L 88 549 
L 88 551 
Q 88 551 , 96 551 
Q 103 552 , 120 552 
Q 137 552 , 145 551 
Q 152 551 , 152 551 
L 152 549 
L 170 549 
L 170 551 
Q 170 551 , 157 552 
Q 145 552 , 120 552 
Q 96 552 , 83 552 
Q 70 551 , 70 551 
L 70 549 
" fill="#D21010" />
<path d="
M 170 545 
L 170 545 
Q 155 545 , 147 545 
Q 139 545 , 129 545 
Q 108 545 , 98 545 
Q 86 546 , 86 546 
Q 86 547 , 98 548 
Q 108 548 , 129 548 
Q 139 548 , 147 548 
Q 155 548 , 170 548 
L 170 548 
Q 159 549 , 149 549 
Q 139 549 , 128 549 
Q 101 549 , 86 548 
Q 70 548 , 70 546 
Q 70 545 , 86 545 
Q 101 544 , 128 544 
Q 139 544 , 149 544 
Q 160 544 , 170 545 
" fill="#545FFF" />
<path d="
M 154 543 
L 154 541 
L 125 541 
L 125 540 
L 170 540 
L 170 543 
Q 159 543 , 148 543 
Q 139 544 , 127 544 
Q 101 544 , 85 543 
Q 70 542 , 70 540 
Q 70 539 , 85 538 
Q 101 537 , 127 537 
Q 138 537 , 147 537 
Q 157 537 , 167 538 
L 167 538 
Q 154 538 , 146 538 
Q 137 538 , 128 538 
Q 107 538 , 96 538 
Q 86 539 , 86 540 
Q 86 542 , 96 542 
Q 107 543 , 128 543 
Q 137 543 , 144 543 
Q 151 543 , 154 543 
" fill="#F5C000" />
<path d="
M 175 553 
L 184 553 
L 184 554 
Q 184 554 , 188 555 
Q 191 555 , 200 555 
Q 209 555 , 212 555 
Q 216 554 , 216 554 
L 216 553 
L 225 553 
L 225 554 
Q 225 554 , 219 555 
Q 212 555 , 200 555 
Q 188 555 , 181 555 
Q 175 554 , 175 554 
L 175 553 
" fill="#D21010" />
<path d="
M 267 555 
L 267 554 
L 253 554 
L 253 554 
L 275 554 
L 275 555 
Q 270 555 , 264 555 
Q 259 555 , 253 555 
Q 240 555 , 233 555 
Q 225 554 , 225 554 
Q 225 553 , 233 553 
Q 240 553 , 253 553 
Q 259 553 , 264 553 
Q 269 553 , 274 553 
L 274 553 
Q 267 553 , 263 553 
Q 259 553 , 254 553 
Q 244 553 , 238 553 
Q 233 554 , 233 554 
Q 233 554 , 238 554 
Q 244 555 , 254 555 
Q 259 555 , 262 555 
Q 266 555 , 267 555 
" fill="lightgray" />
<path d="
M 217 553 
L 217 552 
L 203 552 
L 203 552 
L 225 552 
L 225 553 
Q 220 553 , 214 553 
Q 209 553 , 203 553 
Q 190 553 , 183 553 
Q 175 552 , 175 552 
Q 175 552 , 183 551 
Q 190 551 , 203 551 
Q 209 551 , 214 551 
Q 219 551 , 224 551 
L 224 551 
Q 217 551 , 213 551 
Q 209 551 , 204 551 
Q 194 551 , 188 551 
Q 183 552 , 183 552 
Q 183 552 , 188 553 
Q 194 553 , 204 553 
Q 209 553 , 212 553 
Q 216 553 , 217 553 
" fill="#F5C000" />
<path d="
M 225 551 
L 234 551 
L 234 552 
Q 234 552 , 238 553 
Q 241 553 , 250 553 
Q 259 553 , 262 553 
Q 266 552 , 266 552 
L 266 551 
L 275 551 
L 275 552 
Q 275 553 , 269 553 
Q 262 553 , 250 553 
Q 238 553 , 231 553 
Q 225 553 , 225 552 
L 225 551 
" fill="lightgray" />
<path d="
M 175 543 
L 184 543 
L 184 547 
Q 184 548 , 188 549 
Q 191 549 , 200 549 
Q 209 549 , 212 549 
Q 216 548 , 216 547 
L 216 543 
L 225 543 
L 225 547 
Q 225 549 , 219 550 
Q 212 550 , 200 550 
Q 188 550 , 181 550 
Q 175 549 , 175 547 
L 175 543 
" fill="#D21010" />
<path d="
M 250 544 
L 241 547 
L 258 547 
L 250 544 
M 246 543 
L 254 543 
L 275 550 
L 267 550 
L 261 548 
L 239 548 
L 232 550 
L 225 550 
L 246 543 
" fill="lightgray" />
<path d="
M 200 534 
L 191 538 
L 208 538 
L 200 534 
M 196 532 
L 204 532 
L 225 543 
L 217 543 
L 211 540 
L 189 540 
L 182 543 
L 175 543 
L 196 532 
" fill="#339541" />
<path d="
M 225 532 
L 234 532 
L 234 538 
Q 234 540 , 238 541 
Q 241 541 , 250 541 
Q 259 541 , 262 541 
Q 266 540 , 266 538 
L 266 532 
L 275 532 
L 275 538 
Q 275 541 , 269 542 
Q 262 543 , 250 543 
Q 238 543 , 231 542 
Q 225 541 , 225 538 
L 225 532 
" fill="lightgray" />
<path d="
M 225 460 
L 225 473 
Q 218 465 , 214 463 
Q 209 461 , 204 461 
Q 194 461 , 189 468 
Q 183 476 , 183 491 
Q 183 507 , 189 515 
Q 194 522 , 204 522 
Q 209 522 , 214 520 
Q 218 518 , 225 511 
L 225 523 
Q 220 527 , 214 529 
Q 210 531 , 204 531 
Q 190 531 , 183 520 
Q 175 510 , 175 492 
Q 175 473 , 183 463 
Q 190 452 , 204 452 
Q 210 452 , 215 454 
Q 220 456 , 225 460 
" fill="#545FFF" />
<path d="
M 267 520 
L 267 498 
L 253 498 
L 253 490 
L 275 490 
L 275 525 
Q 270 528 , 264 530 
Q 259 531 , 253 531 
Q 240 531 , 233 520 
Q 225 510 , 225 492 
Q 225 473 , 233 463 
Q 240 452 , 253 452 
Q 259 452 , 264 453 
Q 269 455 , 274 458 
L 274 469 
Q 267 464 , 263 463 
Q 259 461 , 254 461 
Q 244 461 , 238 469 
Q 233 476 , 233 492 
Q 233 507 , 238 515 
Q 244 522 , 254 522 
Q 259 522 , 262 521 
Q 266 521 , 267 520 
" fill="lightgray" />
<path d="
M 217 438 
L 217 412 
L 203 412 
L 203 401 
L 225 401 
L 225 444 
Q 220 448 , 214 450 
Q 209 452 , 203 452 
Q 190 452 , 183 439 
Q 175 426 , 175 403 
Q 175 381 , 183 368 
Q 190 355 , 203 355 
Q 209 355 , 214 357 
Q 219 358 , 224 363 
L 224 375 
Q 217 370 , 213 368 
Q 209 367 , 204 367 
Q 194 367 , 188 376 
Q 183 385 , 183 403 
Q 183 422 , 188 432 
Q 194 441 , 204 441 
Q 209 441 , 212 440 
Q 216 439 , 217 438 
" fill="#F5C000" />
<path d="
M 275 365 
L 275 380 
Q 268 371 , 264 368 
Q 259 366 , 254 366 
Q 244 366 , 239 375 
Q 233 385 , 233 403 
Q 233 422 , 239 432 
Q 244 441 , 254 441 
Q 259 441 , 264 439 
Q 268 436 , 275 427 
L 275 442 
Q 270 447 , 264 449 
Q 260 452 , 254 452 
Q 240 452 , 233 439 
Q 225 426 , 225 403 
Q 225 381 , 233 368 
Q 240 355 , 254 355 
Q 260 355 , 265 357 
Q 270 360 , 275 365 
" fill="lightgray" />
<path d="
M 330 551 
L 312 553 
L 346 553 
L 330 551 
M 323 550 
L 337 550 
L 380 555 
L 364 555 
L 352 553 
L 308 553 
L 295 555 
L 280 555 
L 323 550 
" fill="#339541" />
<path d="
M 364 548 
L 364 547 
L 335 547 
L 335 546 
L 380 546 
L 380 549 
Q 369 549 , 358 549 
Q 349 549 , 337 549 
Q 311 549 , 295 548 
Q 280 547 , 280 546 
Q 280 545 , 295 544 
Q 311 543 , 337 543 
Q 348 543 , 357 543 
Q 367 543 , 377 543 
L 377 544 
Q 364 544 , 356 544 
Q 347 544 , 338 544 
Q 317 544 , 306 544 
Q 296 545 , 296 546 
Q 296 547 , 306 548 
Q 317 548 , 338 548 
Q 347 548 , 354 548 
Q 361 548 , 364 548 
" fill="#F5C000" />
<path d="
M 280 504 
L 298 504 
L 298 526 
Q 298 533 , 306 535 
Q 313 538 , 330 538 
Q 347 538 , 355 535 
Q 362 533 , 362 526 
L 362 504 
L 380 504 
L 380 527 
Q 380 534 , 367 538 
Q 355 542 , 330 542 
Q 306 542 , 293 538 
Q 280 534 , 280 527 
L 280 504 
" fill="#D21010" />
<path d="
M 380 437 
L 380 448 
Q 365 441 , 357 439 
Q 349 437 , 339 437 
Q 318 437 , 308 444 
Q 296 452 , 296 466 
Q 296 481 , 308 488 
Q 318 495 , 339 495 
Q 349 495 , 357 494 
Q 365 492 , 380 484 
L 380 496 
Q 369 500 , 359 502 
Q 349 503 , 338 503 
Q 311 503 , 296 493 
Q 280 483 , 280 466 
Q 280 449 , 296 439 
Q 311 429 , 338 429 
Q 349 429 , 359 431 
Q 370 433 , 380 437 
" fill="#545FFF" />
<path d="
M 435 552 
L 417 553 
L 451 553 
L 435 552 
M 428 552 
L 442 552 
L 485 554 
L 469 554 
L 457 553 
L 413 553 
L 400 554 
L 385 554 
L 428 552 
" fill="#339541" />
<path d="
M 385 541 
L 403 541 
L 403 547 
Q 403 549 , 411 550 
Q 418 550 , 435 550 
Q 452 550 , 460 550 
Q 467 549 , 467 547 
L 467 541 
L 485 541 
L 485 547 
Q 485 550 , 472 551 
Q 460 552 , 435 552 
Q 411 552 , 398 551 
Q 385 550 , 385 547 
L 385 541 
" fill="#D21010" />
<path d="
M 485 509 
L 485 514 
Q 470 511 , 462 510 
Q 454 509 , 444 509 
Q 423 509 , 413 512 
Q 401 516 , 401 523 
Q 401 530 , 413 533 
Q 423 537 , 444 537 
Q 454 537 , 462 536 
Q 470 535 , 485 531 
L 485 537 
Q 474 539 , 464 540 
Q 454 540 , 443 540 
Q 416 540 , 401 536 
Q 385 531 , 385 523 
Q 385 515 , 401 510 
Q 416 505 , 443 505 
Q 454 505 , 464 506 
Q 475 507 , 485 509 
" fill="#545FFF" />
<path d="
M 469 490 
L 469 464 
L 440 464 
L 440 453 
L 485 453 
L 485 497 
Q 474 501 , 463 502 
Q 454 504 , 442 504 
Q 416 504 , 400 491 
Q 385 478 , 385 456 
Q 385 433 , 400 420 
Q 416 407 , 442 407 
Q 453 407 , 462 409 
Q 472 410 , 482 415 
L 482 427 
Q 469 422 , 461 420 
Q 452 419 , 443 419 
Q 422 419 , 411 428 
Q 401 437 , 401 456 
Q 401 475 , 411 484 
Q 422 493 , 443 493 
Q 452 493 , 459 492 
Q 466 491 , 469 490 
" fill="#F5C000" />
<path d="
M 540 552 
L 522 553 
L 556 553 
L 540 552 
M 533 551 
L 547 551 
L 590 555 
L 574 555 
L 562 554 
L 518 554 
L 505 555 
L 490 555 
L 533 551 
" fill="#339541" />
<path d="
M 490 540 
L 508 540 
L 508 546 
Q 508 548 , 516 548 
Q 523 549 , 540 549 
Q 557 549 , 565 548 
Q 572 548 , 572 546 
L 572 540 
L 590 540 
L 590 546 
Q 590 548 , 577 549 
Q 565 550 , 540 550 
Q 516 550 , 503 549 
Q 490 548 , 490 546 
L 490 540 
" fill="#D21010" />
<path d="
M 590 525 
L 590 527 
Q 575 526 , 567 525 
Q 559 525 , 549 525 
Q 528 525 , 518 526 
Q 506 528 , 506 531 
Q 506 534 , 518 536 
Q 528 538 , 549 538 
Q 559 538 , 567 537 
Q 575 537 , 590 535 
L 590 538 
Q 579 539 , 569 539 
Q 559 540 , 548 540 
Q 521 540 , 506 537 
Q 490 535 , 490 531 
Q 490 527 , 506 525 
Q 521 523 , 548 523 
Q 559 523 , 569 523 
Q 580 524 , 590 525 
" fill="#545FFF" />
<path d="
M 574 490 
L 574 431 
L 545 431 
L 545 406 
L 590 406 
L 590 505 
Q 579 515 , 568 518 
Q 559 522 , 547 522 
Q 521 522 , 505 492 
Q 490 463 , 490 411 
Q 490 359 , 505 330 
Q 521 300 , 547 300 
Q 558 300 , 567 304 
Q 577 308 , 587 318 
L 587 346 
Q 574 334 , 566 330 
Q 557 327 , 548 327 
Q 527 327 , 516 347 
Q 506 368 , 506 411 
Q 506 455 , 516 476 
Q 527 498 , 548 498 
Q 557 498 , 564 495 
Q 571 493 , 574 490 
" fill="#F5C000" />
<path d="
M 645 551 
L 627 553 
L 661 553 
L 645 551 
M 638 550 
L 652 550 
L 695 554 
L 679 554 
L 667 553 
L 623 553 
L 610 554 
L 595 554 
L 638 550 
" fill="#339541" />
<path d="
M 595 543 
L 613 543 
L 613 547 
Q 613 548 , 621 549 
Q 628 549 , 645 549 
Q 662 549 , 670 549 
Q 677 548 , 677 547 
L 677 543 
L 695 543 
L 695 547 
Q 695 549 , 682 549 
Q 670 550 , 645 550 
Q 621 550 , 608 549 
Q 595 549 , 595 547 
L 595 543 
" fill="#D21010" />
<path d="
M 695 521 
L 695 524 
Q 680 522 , 672 521 
Q 664 521 , 654 521 
Q 633 521 , 623 523 
Q 611 525 , 611 530 
Q 611 535 , 623 537 
Q 633 539 , 654 539 
Q 664 539 , 672 539 
Q 680 538 , 695 536 
L 695 540 
Q 684 541 , 674 542 
Q 664 542 , 653 542 
Q 626 542 , 611 539 
Q 595 536 , 595 530 
Q 595 525 , 611 521 
Q 626 518 , 653 518 
Q 664 518 , 674 519 
Q 685 519 , 695 521 
" fill="#545FFF" />
<path d="
M 679 514 
L 679 507 
L 650 507 
L 650 504 
L 695 504 
L 695 516 
Q 684 517 , 673 517 
Q 664 518 , 652 518 
Q 626 518 , 610 514 
Q 595 511 , 595 504 
Q 595 498 , 610 495 
Q 626 491 , 652 491 
Q 663 491 , 672 491 
Q 682 492 , 692 493 
L 692 497 
Q 679 495 , 671 495 
Q 662 494 , 653 494 
Q 632 494 , 621 497 
Q 611 499 , 611 504 
Q 611 510 , 621 512 
Q 632 515 , 653 515 
Q 662 515 , 669 515 
Q 676 514 , 679 514 
" fill="#F5C000" />
<path d="
M 750 553 
L 732 554 
L 766 554 
L 750 553 
M 743 552 
L 757 552 
L 800 555 
L 784 555 
L 772 554 
L 728 554 
L 715 555 
L 700 555 
L 743 552 
" fill="#339541" />
<path d="
M 700 549 
L 718 549 
L 718 551 
Q 718 551 , 726 551 
Q 733 552 , 750 552 
Q 767 552 , 775 551 
Q 782 551 , 782 551 
L 782 549 
L 800 549 
L 800 551 
Q 800 551 , 787 552 
Q 775 552 , 750 552 
Q 726 552 , 713 552 
Q 700 551 , 700 551 
L 700 549 
" fill="#D21010" />
<path d="
M 800 545 
L 800 545 
Q 785 545 , 777 545 
Q 769 545 , 759 545 
Q 738 545 , 728 545 
Q 716 546 , 716 546 
Q 716 547 , 728 548 
Q 738 548 , 759 548 
Q 769 548 , 777 548 
Q 785 548 , 800 548 
L 800 548 
Q 789 549 , 779 549 
Q 769 549 , 758 549 
Q 731 549 , 716 548 
Q 700 548 , 700 546 
Q 700 545 , 716 545 
Q 731 544 , 758 544 
Q 769 544 , 779 544 
Q 790 544 , 800 545 
" fill="#545FFF" />
<path d="
M 784 543 
L 784 541 
L 755 541 
L 755 540 
L 800 540 
L 800 543 
Q 789 543 , 778 543 
Q 769 544 , 757 544 
Q 731 544 , 715 543 
Q 700 542 , 700 540 
Q 700 539 , 715 538 
Q 731 537 , 757 537 
Q 768 537 , 777 537 
Q 787 537 , 797 538 
L 797 538 
Q 784 538 , 776 538 
Q 767 538 , 758 538 
Q 737 538 , 726 538 
Q 716 539 , 716 540 
Q 716 542 , 726 542 
Q 737 543 , 758 543 
Q 767 543 , 774 543 
Q 781 543 , 784 543 
" fill="#F5C000" />
<path d="
M 855 553 
L 837 554 
L 871 554 
L 855 553 
M 848 553 
L 862 553 
L 905 555 
L 889 555 
L 877 554 
L 833 554 
L 820 555 
L 805 555 
L 848 553 
" fill="#339541" />
<path d="
M 805 544 
L 823 544 
L 823 549 
Q 823 550 , 831 551 
Q 838 551 , 855 551 
Q 872 551 , 880 551 
Q 887 550 , 887 549 
L 887 544 
L 905 544 
L 905 549 
Q 905 550 , 892 551 
Q 880 552 , 855 552 
Q 831 552 , 818 551 
Q 805 550 , 805 549 
L 805 544 
" fill="#D21010" />
<path d="
M 905 503 
L 905 510 
Q 890 505 , 882 504 
Q 874 503 , 864 503 
Q 843 503 , 833 507 
Q 821 512 , 821 521 
Q 821 530 , 833 534 
Q 843 539 , 864 539 
Q 874 539 , 882 537 
Q 890 536 , 905 532 
L 905 539 
Q 894 541 , 884 542 
Q 874 543 , 863 543 
Q 836 543 , 821 537 
Q 805 531 , 805 521 
Q 805 510 , 821 504 
Q 836 498 , 863 498 
Q 874 498 , 884 499 
Q 895 500 , 905 503 
" fill="#545FFF" />
<path d="
M 889 486 
L 889 464 
L 860 464 
L 860 456 
L 905 456 
L 905 491 
Q 894 495 , 883 496 
Q 874 498 , 862 498 
Q 836 498 , 820 487 
Q 805 476 , 805 457 
Q 805 439 , 820 428 
Q 836 417 , 862 417 
Q 873 417 , 882 418 
Q 892 420 , 902 424 
L 902 434 
Q 889 429 , 881 428 
Q 872 427 , 863 427 
Q 842 427 , 831 434 
Q 821 442 , 821 457 
Q 821 473 , 831 481 
Q 842 489 , 863 489 
Q 872 489 , 879 488 
Q 886 487 , 889 486 
" fill="#F5C000" />
<path d="
M 960 549 
L 942 552 
L 976 552 
L 960 549 
M 953 548 
L 967 548 
L 1010 554 
L 994 554 
L 982 552 
L 938 552 
L 925 554 
L 910 554 
L 953 548 
" fill="#339541" />
<path d="
M 994 546 
L 994 544 
L 965 544 
L 965 543 
L 1010 543 
L 1010 547 
Q 999 547 , 988 547 
Q 979 548 , 967 548 
Q 941 548 , 925 546 
Q 910 545 , 910 543 
Q 910 541 , 925 539 
Q 941 538 , 967 538 
Q 978 538 , 987 538 
Q 997 538 , 1007 539 
L 1007 540 
Q 994 539 , 986 539 
Q 977 539 , 968 539 
Q 947 539 , 936 540 
Q 926 541 , 926 543 
Q 926 545 , 936 546 
Q 947 547 , 968 547 
Q 977 547 , 984 546 
Q 991 546 , 994 546 
" fill="#F5C000" />
<path d="
M 910 511 
L 928 511 
L 928 526 
Q 928 531 , 936 533 
Q 943 534 , 960 534 
Q 977 534 , 985 533 
Q 992 531 , 992 526 
L 992 511 
L 1010 511 
L 1010 527 
Q 1010 532 , 997 535 
Q 985 537 , 960 537 
Q 936 537 , 923 535 
Q 910 532 , 910 527 
L 910 511 
" fill="#D21010" />
<path d="
M 1010 417 
L 1010 433 
Q 995 423 , 987 420 
Q 979 418 , 969 418 
Q 948 418 , 938 428 
Q 926 438 , 926 458 
Q 926 478 , 938 489 
Q 948 499 , 969 499 
Q 979 499 , 987 496 
Q 995 493 , 1010 483 
L 1010 500 
Q 999 505 , 989 508 
Q 979 510 , 968 510 
Q 941 510 , 926 496 
Q 910 482 , 910 458 
Q 910 434 , 926 420 
Q 941 406 , 968 406 
Q 979 406 , 989 409 
Q 1000 411 , 1010 417 
" fill="#545FFF" />
<path d="
M 1065 550 
L 1047 552 
L 1081 552 
L 1065 550 
M 1058 549 
L 1072 549 
L 1115 554 
L 1099 554 
L 1087 553 
L 1043 553 
L 1030 554 
L 1015 554 
L 1058 549 
" fill="#339541" />
<path d="
M 1015 539 
L 1033 539 
L 1033 545 
Q 1033 546 , 1041 547 
Q 1048 548 , 1065 548 
Q 1082 548 , 1090 547 
Q 1097 546 , 1097 545 
L 1097 539 
L 1115 539 
L 1115 545 
Q 1115 547 , 1102 548 
Q 1090 549 , 1065 549 
Q 1041 549 , 1028 548 
Q 1015 547 , 1015 545 
L 1015 539 
" fill="#D21010" />
<path d="
M 1115 524 
L 1115 526 
Q 1100 525 , 1092 524 
Q 1084 524 , 1074 524 
Q 1053 524 , 1043 525 
Q 1031 527 , 1031 530 
Q 1031 534 , 1043 535 
Q 1053 537 , 1074 537 
Q 1084 537 , 1092 537 
Q 1100 536 , 1115 534 
L 1115 537 
Q 1104 538 , 1094 538 
Q 1084 539 , 1073 539 
Q 1046 539 , 1031 536 
Q 1015 534 , 1015 530 
Q 1015 527 , 1031 524 
Q 1046 522 , 1073 522 
Q 1084 522 , 1094 522 
Q 1105 523 , 1115 524 
" fill="#545FFF" />
<path d="
M 1099 516 
L 1099 506 
L 1070 506 
L 1070 502 
L 1115 502 
L 1115 519 
Q 1104 521 , 1093 521 
Q 1084 522 , 1072 522 
Q 1046 522 , 1030 517 
Q 1015 512 , 1015 502 
Q 1015 493 , 1030 488 
Q 1046 483 , 1072 483 
Q 1083 483 , 1092 484 
Q 1102 484 , 1112 486 
L 1112 491 
Q 1099 489 , 1091 488 
Q 1082 488 , 1073 488 
Q 1052 488 , 1041 491 
Q 1031 495 , 1031 502 
Q 1031 510 , 1041 514 
Q 1052 518 , 1073 518 
Q 1082 518 , 1089 517 
Q 1096 517 , 1099 516 
" fill="#F5C000" />
<path d="
M 1170 551 
L 1152 553 
L 1186 553 
L 1170 551 
M 1163 550 
L 1177 550 
L 1220 555 
L 1204 555 
L 1192 553 
L 1148 553 
L 1135 555 
L 1120 555 
L 1163 550 
" fill="#339541" />
<path d="
M 1220 539 
L 1220 541 
Q 1205 540 , 1197 540 
Q 1189 539 , 1179 539 
Q 1158 539 , 1148 540 
Q 1136 541 , 1136 543 
Q 1136 546 , 1148 547 
Q 1158 548 , 1179 548 
Q 1189 548 , 1197 548 
Q 1205 547 , 1220 546 
L 1220 548 
Q 1209 549 , 1199 549 
Q 1189 549 , 1178 549 
Q 1151 549 , 1136 548 
Q 1120 546 , 1120 544 
Q 1120 541 , 1136 540 
Q 1151 538 , 1178 538 
Q 1189 538 , 1199 538 
Q 1210 539 , 1220 539 
" fill="#545FFF" />
<path d="
M 1120 522 
L 1138 522 
L 1138 531 
Q 1138 534 , 1146 535 
Q 1153 536 , 1170 536 
Q 1187 536 , 1195 535 
Q 1202 534 , 1202 531 
L 1202 522 
L 1220 522 
L 1220 532 
Q 1220 535 , 1207 536 
Q 1195 538 , 1170 538 
Q 1146 538 , 1133 536 
Q 1120 535 , 1120 532 
L 1120 522 
" fill="#D21010" />
<path d="
M 1204 491 
L 1204 435 
L 1175 435 
L 1175 411 
L 1220 411 
L 1220 505 
Q 1209 514 , 1198 518 
Q 1189 521 , 1177 522 
Q 1151 522 , 1135 493 
Q 1120 465 , 1120 416 
Q 1120 367 , 1135 338 
Q 1151 310 , 1177 310 
Q 1188 310 , 1197 314 
Q 1207 318 , 1217 327 
L 1217 354 
Q 1204 342 , 1196 339 
Q 1187 335 , 1178 335 
Q 1157 335 , 1146 355 
Q 1136 375 , 1136 416 
Q 1136 458 , 1146 478 
Q 1157 498 , 1178 498 
Q 1187 498 , 1194 496 
Q 1201 494 , 1204 491 
" fill="#F5C000" />
<path d="
M 1225 553 
L 1234 553 
L 1234 554 
Q 1234 554 , 1238 555 
Q 1241 555 , 1250 555 
Q 1259 555 , 1262 555 
Q 1266 554 , 1266 554 
L 1266 553 
L 1275 553 
L 1275 554 
Q 1275 554 , 1269 555 
Q 1262 555 , 1250 555 
Q 1238 555 , 1231 555 
Q 1225 554 , 1225 554 
L 1225 553 
" fill="lightgray" />
<path d="
M 1317 555 
L 1317 554 
L 1303 554 
L 1303 554 
L 1325 554 
L 1325 555 
Q 1320 555 , 1314 555 
Q 1309 555 , 1303 555 
Q 1290 555 , 1283 555 
Q 1275 554 , 1275 554 
Q 1275 553 , 1283 553 
Q 1290 553 , 1303 553 
Q 1309 553 , 1314 553 
Q 1319 553 , 1324 553 
L 1324 553 
Q 1317 553 , 1313 553 
Q 1309 553 , 1304 553 
Q 1294 553 , 1288 553 
Q 1283 554 , 1283 554 
Q 1283 554 , 1288 554 
Q 1294 555 , 1304 555 
Q 1309 555 , 1312 555 
Q 1316 555 , 1317 555 
" fill="#F5C000" />
<path d="
M 1267 553 
L 1267 552 
L 1253 552 
L 1253 552 
L 1275 552 
L 1275 553 
Q 1270 553 , 1264 553 
Q 1259 553 , 1253 553 
Q 1240 553 , 1233 553 
Q 1225 552 , 1225 552 
Q 1225 552 , 1233 551 
Q 1240 551 , 1253 551 
Q 1259 551 , 1264 551 
Q 1269 551 , 1274 551 
L 1274 551 
Q 1267 551 , 1263 551 
Q 1259 551 , 1254 551 
Q 1244 551 , 1238 551 
Q 1233 552 , 1233 552 
Q 1233 552 , 1238 553 
Q 1244 553 , 1254 553 
Q 1259 553 , 1262 553 
Q 1266 553 , 1267 553 
" fill="lightgray" />
<path d="
M 1275 551 
L 1284 551 
L 1284 552 
Q 1284 552 , 1288 553 
Q 1291 553 , 1300 553 
Q 1309 553 , 1312 553 
Q 1316 552 , 1316 552 
L 1316 551 
L 1325 551 
L 1325 552 
Q 1325 553 , 1319 553 
Q 1312 553 , 1300 553 
Q 1288 553 , 1281 553 
Q 1275 553 , 1275 552 
L 1275 551 
" fill="#D21010" />
<path d="
M 1225 543 
L 1234 543 
L 1234 547 
Q 1234 548 , 1238 549 
Q 1241 549 , 1250 549 
Q 1259 549 , 1262 549 
Q 1266 548 , 1266 547 
L 1266 543 
L 1275 543 
L 1275 547 
Q 1275 549 , 1269 550 
Q 1262 550 , 1250 550 
Q 1238 550 , 1231 550 
Q 1225 549 , 1225 547 
L 1225 543 
" fill="lightgray" />
<path d="
M 1300 544 
L 1291 547 
L 1308 547 
L 1300 544 
M 1296 543 
L 1304 543 
L 1325 550 
L 1317 550 
L 1311 548 
L 1289 548 
L 1282 550 
L 1275 550 
L 1296 543 
" fill="#339541" />
<path d="
M 1250 534 
L 1241 538 
L 1258 538 
L 1250 534 
M 1246 532 
L 1254 532 
L 1275 543 
L 1267 543 
L 1261 540 
L 1239 540 
L 1232 543 
L 1225 543 
L 1246 532 
" fill="lightgray" />
<path d="
M 1275 532 
L 1284 532 
L 1284 538 
Q 1284 540 , 1288 541 
Q 1291 541 , 1300 541 
Q 1309 541 , 1312 541 
Q 1316 540 , 1316 538 
L 1316 532 
L 1325 532 
L 1325 538 
Q 1325 541 , 1319 542 
Q 1312 543 , 1300 543 
Q 1288 543 , 1281 542 
Q 1275 541 , 1275 538 
L 1275 532 
" fill="#D21010" />
<path d="
M 1275 460 
L 1275 473 
Q 1268 465 , 1264 463 
Q 1259 461 , 1254 461 
Q 1244 461 , 1239 468 
Q 1233 476 , 1233 491 
Q 1233 507 , 1239 515 
Q 1244 522 , 1254 522 
Q 1259 522 , 1264 520 
Q 1268 518 , 1275 511 
L 1275 523 
Q 1270 527 , 1264 529 
Q 1260 531 , 1254 531 
Q 1240 531 , 1233 520 
Q 1225 510 , 1225 492 
Q 1225 473 , 1233 463 
Q 1240 452 , 1254 452 
Q 1260 452 , 1265 454 
Q 1270 456 , 1275 460 
" fill="lightgray" />
<path d="
M 1317 520 
L 1317 498 
L 1303 498 
L 1303 490 
L 1325 490 
L 1325 525 
Q 1320 528 , 1314 530 
Q 1309 531 , 1303 531 
Q 1290 531 , 1283 520 
Q 1275 510 , 1275 492 
Q 1275 473 , 1283 463 
Q 1290 452 , 1303 452 
Q 1309 452 , 1314 453 
Q 1319 455 , 1324 458 
L 1324 469 
Q 1317 464 , 1313 463 
Q 1309 461 , 1304 461 
Q 1294 461 , 1288 469 
Q 1283 476 , 1283 492 
Q 1283 507 , 1288 515 
Q 1294 522 , 1304 522 
Q 1309 522 , 1312 521 
Q 1316 521 , 1317 520 
" fill="#F5C000" />
<path d="
M 1267 438 
L 1267 412 
L 1253 412 
L 1253 401 
L 1275 401 
L 1275 444 
Q 1270 448 , 1264 450 
Q 1259 452 , 1253 452 
Q 1240 452 , 1233 439 
Q 1225 426 , 1225 403 
Q 1225 381 , 1233 368 
Q 1240 355 , 1253 355 
Q 1259 355 , 1264 357 
Q 1269 358 , 1274 363 
L 1274 375 
Q 1267 370 , 1263 368 
Q 1259 367 , 1254 367 
Q 1244 367 , 1238 376 
Q 1233 385 , 1233 403 
Q 1233 422 , 1238 432 
Q 1244 441 , 1254 441 
Q 1259 441 , 1262 440 
Q 1266 439 , 1267 438 
" fill="lightgray" />
<path d="
M 1325 365 
L 1325 380 
Q 1318 371 , 1314 368 
Q 1309 366 , 1304 366 
Q 1294 366 , 1289 375 
Q 1283 385 , 1283 403 
Q 1283 422 , 1289 432 
Q 1294 441 , 1304 441 
Q 1309 441 , 1314 439 
Q 1318 436 , 1325 427 
L 1325 442 
Q 1320 447 , 1314 449 
Q 1310 452 , 1304 452 
Q 1290 452 , 1283 439 
Q 1275 426 , 1275 403 
Q 1275 381 , 1283 368 
Q 1290 355 , 1304 355 
Q 1310 355 , 1315 357 
Q 1320 360 , 1325 365 
" fill="#545FFF" />
<path d="
M 1380 553 
L 1362 554 
L 1396 554 
L 1380 553 
M 1373 552 
L 1387 552 
L 1430 555 
L 1414 555 
L 1402 554 
L 1358 554 
L 1345 555 
L 1330 555 
L 1373 552 
" fill="#339541" />
<path d="
M 1330 549 
L 1348 549 
L 1348 551 
Q 1348 551 , 1356 551 
Q 1363 552 , 1380 552 
Q 1397 552 , 1405 551 
Q 1412 551 , 1412 551 
L 1412 549 
L 1430 549 
L 1430 551 
Q 1430 551 , 1417 552 
Q 1405 552 , 1380 552 
Q 1356 552 , 1343 552 
Q 1330 551 , 1330 551 
L 1330 549 
" fill="#D21010" />
<path d="
M 1430 545 
L 1430 545 
Q 1415 545 , 1407 545 
Q 1399 545 , 1389 545 
Q 1368 545 , 1358 545 
Q 1346 546 , 1346 546 
Q 1346 547 , 1358 548 
Q 1368 548 , 1389 548 
Q 1399 548 , 1407 548 
Q 1415 548 , 1430 548 
L 1430 548 
Q 1419 549 , 1409 549 
Q 1399 549 , 1388 549 
Q 1361 549 , 1346 548 
Q 1330 548 , 1330 546 
Q 1330 545 , 1346 545 
Q 1361 544 , 1388 544 
Q 1399 544 , 1409 544 
Q 1420 544 , 1430 545 
" fill="#545FFF" />
<path d="
M 1414 543 
L 1414 541 
L 1385 541 
L 1385 540 
L 1430 540 
L 1430 543 
Q 1419 543 , 1408 543 
Q 1399 544 , 1387 544 
Q 1361 544 , 1345 543 
Q 1330 542 , 1330 540 
Q 1330 539 , 1345 538 
Q 1361 537 , 1387 537 
Q 1398 537 , 1407 537 
Q 1417 537 , 1427 538 
L 1427 538 
Q 1414 538 , 1406 538 
Q 1397 538 , 1388 538 
Q 1367 538 , 1356 538 
Q 1346 539 , 1346 540 
Q 1346 542 , 1356 542 
Q 1367 543 , 1388 543 
Q 1397 543 , 1404 543 
Q 1411 543 , 1414 543 
" fill="#F5C000" />
<path d="M 65 168 L 65 555 " stroke="black" stroke-width="1.5"/>
<path d="M 55 555 L 65 555 " stroke="black" stroke-width="4"/>
<text text-anchor="end" x="50" y="555" font-size="50" alignment-baseline="middle">0</text>
<path d="M 55 362 L 65 362 " stroke="black" stroke-width="4"/>
<text text-anchor="end" x="50" y="362" font-size="50" alignment-baseline="middle">1</text>
<path d="M 55 168 L 65 168 " stroke="black" stroke-width="4"/>
<text text-anchor="end" x="50" y="168" font-size="50" alignment-baseline="middle">2</text>
<text text-anchor="middle" x="750" y="50" font-size="50" alignment-baseline="baseline"></text>
G<path d="
M 160 582 
L 126 595 
L 160 608 
L 157 611 
L 123 598 
L 123 623 
L 117 623 
L 117 599 
L 83 611 
L 80 608 
L 114 595 
L 80 582 
L 83 579 
L 117 591 
L 117 567 
L 123 567 
L 123 591 
L 157 579 
L 160 582 
" fill="black" />
<path d="
M 265 567 
Q 236 574 , 223 581 
Q 210 588 , 210 595 
Q 210 602 , 223 609 
Q 236 616 , 265 623 
L 241 623 
Q 213 616 , 199 609 
Q 185 602 , 185 595 
Q 185 588 , 199 581 
Q 213 574 , 241 567 
L 265 567 
" fill="black" />
<path d="
" fill="black" />
<path d="
M 316 567 
L 343 567 
L 343 623 
L 316 623 
L 316 567 
" fill="black" />
<path d="
" fill="black" />
<path d="
" fill="black" />
<path d="
M 421 567 
L 448 567 
L 448 623 
L 421 623 
L 421 567 
" fill="black" />
<path d="
" fill="black" />
<path d="
" fill="black" />
<path d="
M 526 567 
L 553 567 
L 553 623 
L 526 623 
L 526 567 
" fill="black" />
<path d="
" fill="black" />
<path d="
" fill="black" />
<path d="
M 622 567 
L 642 567 
L 642 623 
L 622 623 
L 622 567 
" fill="black" />
<path d="
" fill="black" />
<path d="
M 674 621 
L 674 616 
Q 675 618 , 677 619 
Q 678 619 , 680 619 
Q 686 619 , 688 609 
Q 689 604 , 689 595 
Q 689 597 , 687 600 
Q 685 603 , 681 603 
Q 677 603 , 675 598 
Q 672 593 , 672 586 
Q 672 577 , 675 572 
Q 677 567 , 682 567 
Q 687 567 , 689 574 
Q 692 581 , 692 595 
Q 692 609 , 689 616 
Q 685 623 , 680 623 
Q 678 623 , 677 622 
Q 675 622 , 674 621 
M 676 595 
Q 678 599 , 681 599 
Q 685 599 , 687 595 
Q 689 591 , 689 584 
Q 689 578 , 687 574 
Q 685 571 , 681 571 
Q 678 571 , 676 574 
Q 675 578 , 675 584 
Q 675 591 , 676 595 
" fill="black" />
<path d="
M 790 582 
L 756 595 
L 790 608 
L 787 611 
L 753 598 
L 753 623 
L 747 623 
L 747 599 
L 713 611 
L 710 608 
L 744 595 
L 710 582 
L 713 579 
L 747 591 
L 747 567 
L 753 567 
L 753 591 
L 787 579 
L 790 582 
" fill="black" />
<path d="
" fill="black" />
<path d="
M 841 567 
L 868 567 
L 868 623 
L 841 623 
L 841 567 
" fill="black" />
<path d="
" fill="black" />
<path d="
" fill="black" />
<path d="
M 946 567 
L 973 567 
L 973 623 
L 946 623 
L 946 567 
" fill="black" />
<path d="
" fill="black" />
<path d="
" fill="black" />
<path d="
M 1051 567 
L 1078 567 
L 1078 623 
L 1051 623 
L 1051 567 
" fill="black" />
<path d="
" fill="black" />
<path d="
" fill="black" />
<path d="
M 1156 567 
L 1183 567 
L 1183 623 
L 1156 623 
L 1156 567 
" fill="black" />
<path d="
" fill="black" />
<path d="
M 1235 567 
L 1259 567 
Q 1287 574 , 1301 581 
Q 1315 588 , 1315 595 
Q 1315 602 , 1301 609 
Q 1287 616 , 1259 623 
L 1235 623 
Q 1264 616 , 1277 609 
Q 1290 602 , 1290 595 
Q 1290 588 , 1277 581 
Q 1264 574 , 1235 567 
" fill="black" />
<path d="
M 1420 582 
L 1386 595 
L 1420 608 
L 1417 611 
L 1383 598 
L 1383 623 
L 1377 623 
L 1377 599 
L 1343 611 
L 1340 608 
L 1374 595 
L 1340 582 
L 1343 579 
L 1377 591 
L 1377 567 
L 1383 567 
L 1383 591 
L 1417 579 
L 1420 582 
" fill="black" />
</svg>
