<svg xmlns="http://www.w3.org/2000/svg"
viewBox="0 0 1330 635">
<path d="
M 154 555 
L 154 554 
L 125 554 
L 125 554 
L 170 554 
L 170 555 
Q 159 555 , 148 555 
Q 139 555 , 127 555 
Q 101 555 , 85 555 
Q 70 555 , 70 554 
Q 70 554 , 85 554 
Q 101 554 , 127 554 
Q 138 554 , 147 554 
Q 157 554 , 167 554 
L 167 554 
Q 154 554 , 146 554 
Q 137 554 , 128 554 
Q 107 554 , 96 554 
Q 86 554 , 86 554 
Q 86 554 , 96 555 
Q 107 555 , 128 555 
Q 137 555 , 144 555 
Q 151 555 , 154 555 
" fill="#F5C000" />
<path d="
M 70 553 
L 88 553 
L 88 553 
Q 88 554 , 96 554 
Q 103 554 , 120 554 
Q 137 554 , 145 554 
Q 152 554 , 152 553 
L 152 553 
L 170 553 
L 170 553 
Q 170 554 , 157 554 
Q 145 554 , 120 554 
Q 96 554 , 83 554 
Q 70 554 , 70 553 
L 70 553 
" fill="#D21010" />
<path d="
M 120 552 
L 102 553 
L 136 553 
L 120 552 
M 113 552 
L 127 552 
L 170 553 
L 154 553 
L 142 553 
L 98 553 
L 85 553 
L 70 553 
L 113 552 
" fill="#339541" />
<path d="
M 170 550 
L 170 550 
Q 155 550 , 147 550 
Q 139 550 , 129 550 
Q 108 550 , 98 550 
Q 86 550 , 86 550 
Q 86 551 , 98 551 
Q 108 551 , 129 551 
Q 139 551 , 147 551 
Q 155 551 , 170 551 
L 170 551 
Q 159 551 , 149 551 
Q 139 551 , 128 551 
Q 101 551 , 86 551 
Q 70 551 , 70 551 
Q 70 550 , 86 550 
Q 101 550 , 128 550 
Q 139 550 , 149 550 
Q 160 550 , 170 550 
" fill="#545FFF" />
<path d="
M 225 552 
L 225 553 
Q 218 552 , 214 552 
Q 209 552 , 204 552 
Q 194 552 , 189 552 
Q 183 553 , 183 553 
Q 183 553 , 189 554 
Q 194 554 , 204 554 
Q 209 554 , 214 554 
Q 218 554 , 225 553 
L 225 554 
Q 220 554 , 214 554 
Q 210 554 , 204 554 
Q 190 554 , 183 554 
Q 175 553 , 175 553 
Q 175 553 , 183 552 
Q 190 552 , 204 552 
Q 210 552 , 215 552 
Q 220 552 , 225 552 
" fill="#545FFF" />
<path d="
M 267 554 
L 267 553 
L 253 553 
L 253 553 
L 275 553 
L 275 554 
Q 270 554 , 264 554 
Q 259 554 , 253 554 
Q 240 554 , 233 554 
Q 225 553 , 225 553 
Q 225 553 , 233 552 
Q 240 552 , 253 552 
Q 259 552 , 264 552 
Q 269 552 , 274 552 
L 274 552 
Q 267 552 , 263 552 
Q 259 552 , 254 552 
Q 244 552 , 238 552 
Q 233 553 , 233 553 
Q 233 553 , 238 554 
Q 244 554 , 254 554 
Q 259 554 , 262 554 
Q 266 554 , 267 554 
" fill="lightgray" />
<path d="
M 200 546 
L 191 549 
L 208 549 
L 200 546 
M 196 545 
L 204 545 
L 225 552 
L 217 552 
L 211 550 
L 189 550 
L 182 552 
L 175 552 
L 196 545 
" fill="#339541" />
<path d="
M 225 545 
L 234 545 
L 234 549 
Q 234 550 , 238 551 
Q 241 551 , 250 551 
Q 259 551 , 262 551 
Q 266 550 , 266 549 
L 266 545 
L 275 545 
L 275 549 
Q 275 551 , 269 551 
Q 262 552 , 250 552 
Q 238 552 , 231 551 
Q 225 551 , 225 549 
L 225 545 
" fill="lightgray" />
<path d="
M 175 534 
L 184 534 
L 184 540 
Q 184 542 , 188 543 
Q 191 543 , 200 543 
Q 209 543 , 212 543 
Q 216 542 , 216 540 
L 216 534 
L 225 534 
L 225 540 
Q 225 542 , 219 544 
Q 212 545 , 200 545 
Q 188 545 , 181 544 
Q 175 542 , 175 540 
L 175 534 
" fill="#D21010" />
<path d="
M 267 543 
L 267 540 
L 253 540 
L 253 539 
L 275 539 
L 275 544 
Q 270 544 , 264 544 
Q 259 545 , 253 545 
Q 240 545 , 233 543 
Q 225 542 , 225 539 
Q 225 537 , 233 535 
Q 240 534 , 253 534 
Q 259 534 , 264 534 
Q 269 534 , 274 535 
L 274 536 
Q 267 536 , 263 535 
Q 259 535 , 254 535 
Q 244 535 , 238 536 
Q 233 537 , 233 539 
Q 233 541 , 238 542 
Q 244 543 , 254 543 
Q 259 543 , 262 543 
Q 266 543 , 267 543 
" fill="lightgray" />
<path d="
M 175 519 
L 184 519 
L 184 528 
Q 184 530 , 188 531 
Q 191 532 , 200 532 
Q 209 532 , 212 531 
Q 216 530 , 216 528 
L 216 519 
L 225 519 
L 225 528 
Q 225 531 , 219 532 
Q 212 534 , 200 534 
Q 188 534 , 181 532 
Q 175 531 , 175 528 
L 175 519 
" fill="#D21010" />
<path d="
M 250 522 
L 241 528 
L 258 528 
L 250 522 
M 246 519 
L 254 519 
L 275 534 
L 267 534 
L 261 530 
L 239 530 
L 232 534 
L 225 534 
L 246 519 
" fill="lightgray" />
<path d="
M 217 516 
L 217 511 
L 203 511 
L 203 510 
L 225 510 
L 225 517 
Q 220 517 , 214 518 
Q 209 518 , 203 518 
Q 190 518 , 183 516 
Q 175 514 , 175 510 
Q 175 506 , 183 504 
Q 190 502 , 203 502 
Q 209 502 , 214 502 
Q 219 503 , 224 503 
L 224 505 
Q 217 504 , 213 504 
Q 209 504 , 204 504 
Q 194 504 , 188 505 
Q 183 507 , 183 510 
Q 183 513 , 188 515 
Q 194 516 , 204 516 
Q 209 516 , 212 516 
Q 216 516 , 217 516 
" fill="#F5C000" />
<path d="
M 225 502 
L 234 502 
L 234 511 
Q 234 514 , 238 515 
Q 241 516 , 250 516 
Q 259 516 , 262 515 
Q 266 514 , 266 511 
L 266 502 
L 275 502 
L 275 512 
Q 275 515 , 269 516 
Q 262 518 , 250 518 
Q 238 518 , 231 516 
Q 225 515 , 225 512 
L 225 502 
" fill="lightgray" />
<path d="
M 217 495 
L 217 482 
L 203 482 
L 203 477 
L 225 477 
L 225 498 
Q 220 500 , 214 501 
Q 209 502 , 203 502 
Q 190 502 , 183 495 
Q 175 489 , 175 478 
Q 175 467 , 183 460 
Q 190 454 , 203 454 
Q 209 454 , 214 455 
Q 219 456 , 224 458 
L 224 464 
Q 217 461 , 213 460 
Q 209 460 , 204 460 
Q 194 460 , 188 464 
Q 183 469 , 183 478 
Q 183 487 , 188 492 
Q 194 497 , 204 497 
Q 209 497 , 212 496 
Q 216 496 , 217 495 
" fill="#F5C000" />
<path d="
M 275 459 
L 275 466 
Q 268 462 , 264 461 
Q 259 459 , 254 459 
Q 244 459 , 239 464 
Q 233 469 , 233 478 
Q 233 487 , 239 492 
Q 244 497 , 254 497 
Q 259 497 , 264 496 
Q 268 494 , 275 489 
L 275 497 
Q 270 500 , 264 501 
Q 260 502 , 254 502 
Q 240 502 , 233 495 
Q 225 489 , 225 478 
Q 225 467 , 233 461 
Q 240 454 , 254 454 
Q 260 454 , 265 455 
Q 270 456 , 275 459 
" fill="lightgray" />
<path d="
M 330 554 
L 312 554 
L 346 554 
L 330 554 
M 323 554 
L 337 554 
L 380 555 
L 364 555 
L 352 555 
L 308 555 
L 295 555 
L 280 555 
L 323 554 
" fill="#339541" />
<path d="
M 364 553 
L 364 553 
L 335 553 
L 335 553 
L 380 553 
L 380 553 
Q 369 553 , 358 553 
Q 349 553 , 337 553 
Q 311 553 , 295 553 
Q 280 553 , 280 553 
Q 280 552 , 295 552 
Q 311 552 , 337 552 
Q 348 552 , 357 552 
Q 367 552 , 377 552 
L 377 552 
Q 364 552 , 356 552 
Q 347 552 , 338 552 
Q 317 552 , 306 552 
Q 296 552 , 296 553 
Q 296 553 , 306 553 
Q 317 553 , 338 553 
Q 347 553 , 354 553 
Q 361 553 , 364 553 
" fill="#F5C000" />
<path d="
M 380 550 
L 380 550 
Q 365 550 , 357 550 
Q 349 550 , 339 550 
Q 318 550 , 308 550 
Q 296 550 , 296 550 
Q 296 551 , 308 551 
Q 318 551 , 339 551 
Q 349 551 , 357 551 
Q 365 551 , 380 551 
L 380 551 
Q 369 551 , 359 551 
Q 349 551 , 338 551 
Q 311 551 , 296 551 
Q 280 551 , 280 551 
Q 280 550 , 296 550 
Q 311 550 , 338 550 
Q 349 550 , 359 550 
Q 370 550 , 380 550 
" fill="#545FFF" />
<path d="
M 280 548 
L 298 548 
L 298 549 
Q 298 549 , 306 549 
Q 313 549 , 330 549 
Q 347 549 , 355 549 
Q 362 549 , 362 549 
L 362 548 
L 380 548 
L 380 549 
Q 380 549 , 367 549 
Q 355 549 , 330 549 
Q 306 549 , 293 549 
Q 280 549 , 280 549 
L 280 548 
" fill="#D21010" />
<path d="
M 385 552 
L 403 552 
L 403 553 
Q 403 554 , 411 554 
Q 418 554 , 435 554 
Q 452 554 , 460 554 
Q 467 554 , 467 553 
L 467 552 
L 485 552 
L 485 553 
Q 485 554 , 472 554 
Q 460 554 , 435 554 
Q 411 554 , 398 554 
Q 385 554 , 385 553 
L 385 552 
" fill="#D21010" />
<path d="
M 469 551 
L 469 550 
L 440 550 
L 440 550 
L 485 550 
L 485 551 
Q 474 551 , 463 551 
Q 454 551 , 442 551 
Q 416 551 , 400 551 
Q 385 550 , 385 550 
Q 385 549 , 400 548 
Q 416 548 , 442 548 
Q 453 548 , 462 548 
Q 472 548 , 482 548 
L 482 549 
Q 469 548 , 461 548 
Q 452 548 , 443 548 
Q 422 548 , 411 549 
Q 401 549 , 401 550 
Q 401 550 , 411 551 
Q 422 551 , 443 551 
Q 452 551 , 459 551 
Q 466 551 , 469 551 
" fill="#F5C000" />
<path d="
M 485 544 
L 485 545 
Q 470 545 , 462 544 
Q 454 544 , 444 544 
Q 423 544 , 413 545 
Q 401 545 , 401 545 
Q 401 546 , 413 547 
Q 423 547 , 444 547 
Q 454 547 , 462 547 
Q 470 547 , 485 547 
L 485 547 
Q 474 547 , 464 547 
Q 454 548 , 443 548 
Q 416 548 , 401 547 
Q 385 547 , 385 546 
Q 385 545 , 401 544 
Q 416 544 , 443 544 
Q 454 544 , 464 544 
Q 475 544 , 485 544 
" fill="#545FFF" />
<path d="
M 435 539 
L 417 541 
L 451 541 
L 435 539 
M 428 538 
L 442 538 
L 485 544 
L 469 544 
L 457 542 
L 413 542 
L 400 544 
L 385 544 
L 428 538 
" fill="#339541" />
<path d="
M 540 552 
L 522 553 
L 556 553 
L 540 552 
M 533 551 
L 547 551 
L 590 555 
L 574 555 
L 562 554 
L 518 554 
L 505 555 
L 490 555 
L 533 551 
" fill="#339541" />
<path d="
M 574 550 
L 574 548 
L 545 548 
L 545 547 
L 590 547 
L 590 550 
Q 579 551 , 568 551 
Q 559 551 , 547 551 
Q 521 551 , 505 550 
Q 490 549 , 490 547 
Q 490 545 , 505 544 
Q 521 543 , 547 543 
Q 558 543 , 567 543 
Q 577 543 , 587 544 
L 587 545 
Q 574 544 , 566 544 
Q 557 544 , 548 544 
Q 527 544 , 516 545 
Q 506 545 , 506 547 
Q 506 549 , 516 549 
Q 527 550 , 548 550 
Q 557 550 , 564 550 
Q 571 550 , 574 550 
" fill="#F5C000" />
<path d="
M 490 533 
L 508 533 
L 508 538 
Q 508 540 , 516 540 
Q 523 541 , 540 541 
Q 557 541 , 565 540 
Q 572 540 , 572 538 
L 572 533 
L 590 533 
L 590 538 
Q 590 540 , 577 541 
Q 565 542 , 540 542 
Q 516 542 , 503 541 
Q 490 540 , 490 538 
L 490 533 
" fill="#D21010" />
<path d="
M 590 517 
L 590 520 
Q 575 518 , 567 517 
Q 559 517 , 549 517 
Q 528 517 , 518 519 
Q 506 520 , 506 523 
Q 506 527 , 518 529 
Q 528 530 , 549 530 
Q 559 530 , 567 530 
Q 575 530 , 590 528 
L 590 531 
Q 579 532 , 569 532 
Q 559 532 , 548 532 
Q 521 532 , 506 530 
Q 490 528 , 490 524 
Q 490 520 , 506 517 
Q 521 515 , 548 515 
Q 559 515 , 569 515 
Q 580 516 , 590 517 
" fill="#545FFF" />
<path d="
M 679 555 
L 679 554 
L 650 554 
L 650 553 
L 695 553 
L 695 555 
Q 684 555 , 673 555 
Q 664 555 , 652 555 
Q 626 555 , 610 555 
Q 595 554 , 595 553 
Q 595 553 , 610 552 
Q 626 552 , 652 552 
Q 663 552 , 672 552 
Q 682 552 , 692 552 
L 692 553 
Q 679 552 , 671 552 
Q 662 552 , 653 552 
Q 632 552 , 621 553 
Q 611 553 , 611 553 
Q 611 554 , 621 554 
Q 632 555 , 653 555 
Q 662 555 , 669 555 
Q 676 555 , 679 555 
" fill="#F5C000" />
<path d="
M 695 545 
L 695 546 
Q 680 545 , 672 545 
Q 664 545 , 654 545 
Q 633 545 , 623 546 
Q 611 546 , 611 547 
Q 611 549 , 623 550 
Q 633 551 , 654 551 
Q 664 551 , 672 551 
Q 680 550 , 695 550 
L 695 551 
Q 684 551 , 674 551 
Q 664 552 , 653 552 
Q 626 552 , 611 551 
Q 595 550 , 595 548 
Q 595 546 , 611 545 
Q 626 544 , 653 544 
Q 664 544 , 674 544 
Q 685 544 , 695 545 
" fill="#545FFF" />
<path d="
M 595 534 
L 613 534 
L 613 540 
Q 613 541 , 621 542 
Q 628 543 , 645 543 
Q 662 543 , 670 542 
Q 677 541 , 677 540 
L 677 534 
L 695 534 
L 695 540 
Q 695 542 , 682 543 
Q 670 544 , 645 544 
Q 621 544 , 608 543 
Q 595 542 , 595 540 
L 595 534 
" fill="#D21010" />
<path d="
M 645 522 
L 627 528 
L 661 528 
L 645 522 
M 638 519 
L 652 519 
L 695 534 
L 679 534 
L 667 529 
L 623 529 
L 610 534 
L 595 534 
L 638 519 
" fill="#339541" />
<path d="
M 750 552 
L 750 553 
Q 743 552 , 739 552 
Q 734 552 , 729 552 
Q 719 552 , 714 552 
Q 708 553 , 708 553 
Q 708 553 , 714 554 
Q 719 554 , 729 554 
Q 734 554 , 739 554 
Q 743 554 , 750 553 
L 750 554 
Q 745 554 , 739 554 
Q 735 554 , 729 554 
Q 715 554 , 708 554 
Q 700 553 , 700 553 
Q 700 553 , 708 552 
Q 715 552 , 729 552 
Q 735 552 , 740 552 
Q 745 552 , 750 552 
" fill="lightgray" />
<path d="
M 792 554 
L 792 553 
L 778 553 
L 778 553 
L 800 553 
L 800 554 
Q 795 554 , 789 554 
Q 784 554 , 778 554 
Q 765 554 , 758 554 
Q 750 553 , 750 553 
Q 750 553 , 758 552 
Q 765 552 , 778 552 
Q 784 552 , 789 552 
Q 794 552 , 799 552 
L 799 552 
Q 792 552 , 788 552 
Q 784 552 , 779 552 
Q 769 552 , 763 552 
Q 758 553 , 758 553 
Q 758 553 , 763 554 
Q 769 554 , 779 554 
Q 784 554 , 787 554 
Q 791 554 , 792 554 
" fill="#F5C000" />
<path d="
M 725 546 
L 716 549 
L 733 549 
L 725 546 
M 721 545 
L 729 545 
L 750 552 
L 742 552 
L 736 550 
L 714 550 
L 707 552 
L 700 552 
L 721 545 
" fill="lightgray" />
<path d="
M 750 545 
L 759 545 
L 759 549 
Q 759 550 , 763 551 
Q 766 551 , 775 551 
Q 784 551 , 787 551 
Q 791 550 , 791 549 
L 791 545 
L 800 545 
L 800 549 
Q 800 551 , 794 551 
Q 787 552 , 775 552 
Q 763 552 , 756 551 
Q 750 551 , 750 549 
L 750 545 
" fill="#D21010" />
<path d="
M 700 534 
L 709 534 
L 709 540 
Q 709 542 , 713 543 
Q 716 543 , 725 543 
Q 734 543 , 737 543 
Q 741 542 , 741 540 
L 741 534 
L 750 534 
L 750 540 
Q 750 542 , 744 544 
Q 737 545 , 725 545 
Q 713 545 , 706 544 
Q 700 542 , 700 540 
L 700 534 
" fill="lightgray" />
<path d="
M 792 543 
L 792 540 
L 778 540 
L 778 539 
L 800 539 
L 800 544 
Q 795 544 , 789 544 
Q 784 545 , 778 545 
Q 765 545 , 758 543 
Q 750 542 , 750 539 
Q 750 537 , 758 535 
Q 765 534 , 778 534 
Q 784 534 , 789 534 
Q 794 534 , 799 535 
L 799 536 
Q 792 536 , 788 535 
Q 784 535 , 779 535 
Q 769 535 , 763 536 
Q 758 537 , 758 539 
Q 758 541 , 763 542 
Q 769 543 , 779 543 
Q 784 543 , 787 543 
Q 791 543 , 792 543 
" fill="#F5C000" />
<path d="
M 700 519 
L 709 519 
L 709 528 
Q 709 530 , 713 531 
Q 716 532 , 725 532 
Q 734 532 , 737 531 
Q 741 530 , 741 528 
L 741 519 
L 750 519 
L 750 528 
Q 750 531 , 744 532 
Q 737 534 , 725 534 
Q 713 534 , 706 532 
Q 700 531 , 700 528 
L 700 519 
" fill="lightgray" />
<path d="
M 775 522 
L 766 528 
L 783 528 
L 775 522 
M 771 519 
L 779 519 
L 800 534 
L 792 534 
L 786 530 
L 764 530 
L 757 534 
L 750 534 
L 771 519 
" fill="#339541" />
<path d="
M 742 516 
L 742 511 
L 728 511 
L 728 510 
L 750 510 
L 750 517 
Q 745 517 , 739 518 
Q 734 518 , 728 518 
Q 715 518 , 708 516 
Q 700 514 , 700 510 
Q 700 506 , 708 504 
Q 715 502 , 728 502 
Q 734 502 , 739 502 
Q 744 503 , 749 503 
L 749 505 
Q 742 504 , 738 504 
Q 734 504 , 729 504 
Q 719 504 , 713 505 
Q 708 507 , 708 510 
Q 708 513 , 713 515 
Q 719 516 , 729 516 
Q 734 516 , 737 516 
Q 741 516 , 742 516 
" fill="lightgray" />
<path d="
M 750 502 
L 759 502 
L 759 511 
Q 759 514 , 763 515 
Q 766 516 , 775 516 
Q 784 516 , 787 515 
Q 791 514 , 791 511 
L 791 502 
L 800 502 
L 800 512 
Q 800 515 , 794 516 
Q 787 518 , 775 518 
Q 763 518 , 756 516 
Q 750 515 , 750 512 
L 750 502 
" fill="#D21010" />
<path d="
M 742 495 
L 742 482 
L 728 482 
L 728 477 
L 750 477 
L 750 498 
Q 745 500 , 739 501 
Q 734 502 , 728 502 
Q 715 502 , 708 495 
Q 700 489 , 700 478 
Q 700 467 , 708 460 
Q 715 454 , 728 454 
Q 734 454 , 739 455 
Q 744 456 , 749 458 
L 749 464 
Q 742 461 , 738 460 
Q 734 460 , 729 460 
Q 719 460 , 713 464 
Q 708 469 , 708 478 
Q 708 487 , 713 492 
Q 719 497 , 729 497 
Q 734 497 , 737 496 
Q 741 496 , 742 495 
" fill="lightgray" />
<path d="
M 800 459 
L 800 466 
Q 793 462 , 789 461 
Q 784 459 , 779 459 
Q 769 459 , 764 464 
Q 758 469 , 758 478 
Q 758 487 , 764 492 
Q 769 497 , 779 497 
Q 784 497 , 789 496 
Q 793 494 , 800 489 
L 800 497 
Q 795 500 , 789 501 
Q 785 502 , 779 502 
Q 765 502 , 758 495 
Q 750 489 , 750 478 
Q 750 467 , 758 461 
Q 765 454 , 779 454 
Q 785 454 , 790 455 
Q 795 456 , 800 459 
" fill="#545FFF" />
<path d="
M 889 554 
L 889 554 
L 860 554 
L 860 554 
L 905 554 
L 905 554 
Q 894 554 , 883 554 
Q 874 554 , 862 554 
Q 836 554 , 820 554 
Q 805 554 , 805 554 
Q 805 553 , 820 553 
Q 836 553 , 862 553 
Q 873 553 , 882 553 
Q 892 553 , 902 553 
L 902 553 
Q 889 553 , 881 553 
Q 872 553 , 863 553 
Q 842 553 , 831 553 
Q 821 553 , 821 554 
Q 821 554 , 831 554 
Q 842 554 , 863 554 
Q 872 554 , 879 554 
Q 886 554 , 889 554 
" fill="#F5C000" />
<path d="
M 805 551 
L 823 551 
L 823 552 
Q 823 552 , 831 552 
Q 838 552 , 855 552 
Q 872 552 , 880 552 
Q 887 552 , 887 552 
L 887 551 
L 905 551 
L 905 552 
Q 905 552 , 892 552 
Q 880 553 , 855 553 
Q 831 553 , 818 552 
Q 805 552 , 805 552 
L 805 551 
" fill="#D21010" />
<path d="
M 905 549 
L 905 549 
Q 890 549 , 882 549 
Q 874 549 , 864 549 
Q 843 549 , 833 549 
Q 821 550 , 821 550 
Q 821 550 , 833 550 
Q 843 551 , 864 551 
Q 874 551 , 882 551 
Q 890 551 , 905 550 
L 905 551 
Q 894 551 , 884 551 
Q 874 551 , 863 551 
Q 836 551 , 821 551 
Q 805 550 , 805 550 
Q 805 549 , 821 549 
Q 836 549 , 863 549 
Q 874 549 , 884 549 
Q 895 549 , 905 549 
" fill="#545FFF" />
<path d="
M 855 546 
L 837 547 
L 871 547 
L 855 546 
M 848 546 
L 862 546 
L 905 548 
L 889 548 
L 877 548 
L 833 548 
L 820 548 
L 805 548 
L 848 546 
" fill="#339541" />
<path d="
M 910 549 
L 928 549 
L 928 552 
Q 928 553 , 936 553 
Q 943 554 , 960 554 
Q 977 554 , 985 553 
Q 992 553 , 992 552 
L 992 549 
L 1010 549 
L 1010 552 
Q 1010 553 , 997 554 
Q 985 554 , 960 554 
Q 936 554 , 923 554 
Q 910 553 , 910 552 
L 910 549 
" fill="#D21010" />
<path d="
M 960 542 
L 942 545 
L 976 545 
L 960 542 
M 953 541 
L 967 541 
L 1010 548 
L 994 548 
L 982 546 
L 938 546 
L 925 548 
L 910 548 
L 953 541 
" fill="#339541" />
<path d="
M 994 536 
L 994 527 
L 965 527 
L 965 523 
L 1010 523 
L 1010 538 
Q 999 539 , 988 540 
Q 979 540 , 967 540 
Q 941 540 , 925 536 
Q 910 532 , 910 524 
Q 910 517 , 925 512 
Q 941 508 , 967 508 
Q 978 508 , 987 509 
Q 997 509 , 1007 511 
L 1007 515 
Q 994 513 , 986 512 
Q 977 512 , 968 512 
Q 947 512 , 936 515 
Q 926 518 , 926 524 
Q 926 530 , 936 534 
Q 947 537 , 968 537 
Q 977 537 , 984 536 
Q 991 536 , 994 536 
" fill="#F5C000" />
<path d="
M 1010 451 
L 1010 460 
Q 995 454 , 987 453 
Q 979 451 , 969 451 
Q 948 451 , 938 457 
Q 926 463 , 926 475 
Q 926 488 , 938 494 
Q 948 501 , 969 501 
Q 979 501 , 987 499 
Q 995 497 , 1010 491 
L 1010 501 
Q 999 504 , 989 506 
Q 979 507 , 968 507 
Q 941 507 , 926 499 
Q 910 490 , 910 476 
Q 910 461 , 926 453 
Q 941 444 , 968 444 
Q 979 444 , 989 446 
Q 1000 447 , 1010 451 
" fill="#545FFF" />
<path d="
M 1099 553 
L 1099 552 
L 1070 552 
L 1070 551 
L 1115 551 
L 1115 554 
Q 1104 554 , 1093 554 
Q 1084 554 , 1072 554 
Q 1046 554 , 1030 553 
Q 1015 553 , 1015 552 
Q 1015 550 , 1030 550 
Q 1046 549 , 1072 549 
Q 1083 549 , 1092 549 
Q 1102 549 , 1112 549 
L 1112 550 
Q 1099 550 , 1091 550 
Q 1082 550 , 1073 550 
Q 1052 550 , 1041 550 
Q 1031 551 , 1031 552 
Q 1031 553 , 1041 553 
Q 1052 554 , 1073 554 
Q 1082 554 , 1089 553 
Q 1096 553 , 1099 553 
" fill="#F5C000" />
<path d="
M 1015 538 
L 1033 538 
L 1033 544 
Q 1033 546 , 1041 546 
Q 1048 547 , 1065 547 
Q 1082 547 , 1090 546 
Q 1097 546 , 1097 544 
L 1097 538 
L 1115 538 
L 1115 544 
Q 1115 546 , 1102 547 
Q 1090 548 , 1065 548 
Q 1041 548 , 1028 547 
Q 1015 546 , 1015 544 
L 1015 538 
" fill="#D21010" />
<path d="
M 1115 527 
L 1115 529 
Q 1100 528 , 1092 528 
Q 1084 527 , 1074 527 
Q 1053 527 , 1043 528 
Q 1031 530 , 1031 532 
Q 1031 534 , 1043 535 
Q 1053 537 , 1074 537 
Q 1084 537 , 1092 536 
Q 1100 536 , 1115 535 
L 1115 537 
Q 1104 537 , 1094 538 
Q 1084 538 , 1073 538 
Q 1046 538 , 1031 536 
Q 1015 535 , 1015 532 
Q 1015 529 , 1031 528 
Q 1046 526 , 1073 526 
Q 1084 526 , 1094 526 
Q 1105 527 , 1115 527 
" fill="#545FFF" />
<path d="
M 1065 501 
L 1047 513 
L 1081 513 
L 1065 501 
M 1058 495 
L 1072 495 
L 1115 526 
L 1099 526 
L 1087 517 
L 1043 517 
L 1030 526 
L 1015 526 
L 1058 495 
" fill="#339541" />
<path d="
M 1170 552 
L 1152 554 
L 1186 554 
L 1170 552 
M 1163 552 
L 1177 552 
L 1220 555 
L 1204 555 
L 1192 554 
L 1148 554 
L 1135 555 
L 1120 555 
L 1163 552 
" fill="#339541" />
<path d="
M 1120 547 
L 1138 547 
L 1138 549 
Q 1138 550 , 1146 550 
Q 1153 551 , 1170 551 
Q 1187 551 , 1195 550 
Q 1202 550 , 1202 549 
L 1202 547 
L 1220 547 
L 1220 550 
Q 1220 550 , 1207 551 
Q 1195 551 , 1170 551 
Q 1146 551 , 1133 551 
Q 1120 550 , 1120 550 
L 1120 547 
" fill="#D21010" />
<path d="
M 1204 546 
L 1204 544 
L 1175 544 
L 1175 544 
L 1220 544 
L 1220 546 
Q 1209 546 , 1198 547 
Q 1189 547 , 1177 547 
Q 1151 547 , 1135 546 
Q 1120 545 , 1120 544 
Q 1120 543 , 1135 542 
Q 1151 541 , 1177 541 
Q 1188 541 , 1197 541 
Q 1207 541 , 1217 541 
L 1217 542 
Q 1204 542 , 1196 542 
Q 1187 542 , 1178 542 
Q 1157 542 , 1146 542 
Q 1136 543 , 1136 544 
Q 1136 545 , 1146 545 
Q 1157 546 , 1178 546 
Q 1187 546 , 1194 546 
Q 1201 546 , 1204 546 
" fill="#F5C000" />
<path d="
M 1220 533 
L 1220 534 
Q 1205 533 , 1197 533 
Q 1189 533 , 1179 533 
Q 1158 533 , 1148 534 
Q 1136 534 , 1136 536 
Q 1136 538 , 1148 538 
Q 1158 539 , 1179 539 
Q 1189 539 , 1197 539 
Q 1205 539 , 1220 538 
L 1220 539 
Q 1209 540 , 1199 540 
Q 1189 540 , 1178 540 
Q 1151 540 , 1136 539 
Q 1120 538 , 1120 536 
Q 1120 534 , 1136 533 
Q 1151 532 , 1178 532 
Q 1189 532 , 1199 532 
Q 1210 532 , 1220 533 
" fill="#545FFF" />
<path d="
M 1309 555 
L 1309 554 
L 1280 554 
L 1280 554 
L 1325 554 
L 1325 555 
Q 1314 555 , 1303 555 
Q 1294 555 , 1282 555 
Q 1256 555 , 1240 555 
Q 1225 555 , 1225 554 
Q 1225 554 , 1240 554 
Q 1256 554 , 1282 554 
Q 1293 554 , 1302 554 
Q 1312 554 , 1322 554 
L 1322 554 
Q 1309 554 , 1301 554 
Q 1292 554 , 1283 554 
Q 1262 554 , 1251 554 
Q 1241 554 , 1241 554 
Q 1241 554 , 1251 555 
Q 1262 555 , 1283 555 
Q 1292 555 , 1299 555 
Q 1306 555 , 1309 555 
" fill="#F5C000" />
<path d="
M 1225 553 
L 1243 553 
L 1243 553 
Q 1243 554 , 1251 554 
Q 1258 554 , 1275 554 
Q 1292 554 , 1300 554 
Q 1307 554 , 1307 553 
L 1307 553 
L 1325 553 
L 1325 553 
Q 1325 554 , 1312 554 
Q 1300 554 , 1275 554 
Q 1251 554 , 1238 554 
Q 1225 554 , 1225 553 
L 1225 553 
" fill="#D21010" />
<path d="
M 1275 552 
L 1257 553 
L 1291 553 
L 1275 552 
M 1268 552 
L 1282 552 
L 1325 553 
L 1309 553 
L 1297 553 
L 1253 553 
L 1240 553 
L 1225 553 
L 1268 552 
" fill="#339541" />
<path d="
M 1325 550 
L 1325 550 
Q 1310 550 , 1302 550 
Q 1294 550 , 1284 550 
Q 1263 550 , 1253 550 
Q 1241 550 , 1241 550 
Q 1241 551 , 1253 551 
Q 1263 551 , 1284 551 
Q 1294 551 , 1302 551 
Q 1310 551 , 1325 551 
L 1325 551 
Q 1314 551 , 1304 551 
Q 1294 551 , 1283 551 
Q 1256 551 , 1241 551 
Q 1225 551 , 1225 551 
Q 1225 550 , 1241 550 
Q 1256 550 , 1283 550 
Q 1294 550 , 1304 550 
Q 1315 550 , 1325 550 
" fill="#545FFF" />
<path d="M 65 168 L 65 555 " stroke="black" stroke-width="1.5"/>
<path d="M 55 555 L 65 555 " stroke="black" stroke-width="4"/>
<text text-anchor="end" x="50" y="555" font-size="50" alignment-baseline="middle">0</text>
<path d="M 55 362 L 65 362 " stroke="black" stroke-width="4"/>
<text text-anchor="end" x="50" y="362" font-size="50" alignment-baseline="middle">1</text>
<path d="M 55 168 L 65 168 " stroke="black" stroke-width="4"/>
<text text-anchor="end" x="50" y="168" font-size="50" alignment-baseline="middle">2</text>
<text text-anchor="middle" x="697" y="50" font-size="50" alignment-baseline="baseline"></text>
G<path d="
M 160 582 
L 126 595 
L 160 608 
L 157 611 
L 123 598 
L 123 623 
L 117 623 
L 117 599 
L 83 611 
L 80 608 
L 114 595 
L 80 582 
L 83 579 
L 117 591 
L 117 567 
L 123 567 
L 123 591 
L 157 579 
L 160 582 
" fill="black" />
<path d="
M 265 567 
Q 236 574 , 223 581 
Q 210 588 , 210 595 
Q 210 602 , 223 609 
Q 236 616 , 265 623 
L 241 623 
Q 213 616 , 199 609 
Q 185 602 , 185 595 
Q 185 588 , 199 581 
Q 213 574 , 241 567 
L 265 567 
" fill="black" />
<path d="
" fill="black" />
<path d="
M 316 567 
L 343 567 
L 343 623 
L 316 623 
L 316 567 
" fill="black" />
<path d="
" fill="black" />
<path d="
" fill="black" />
<path d="
M 421 567 
L 448 567 
L 448 623 
L 421 623 
L 421 567 
" fill="black" />
<path d="
" fill="black" />
<path d="
" fill="black" />
<path d="
M 526 567 
L 553 567 
L 553 623 
L 526 623 
L 526 567 
" fill="black" />
<path d="
" fill="black" />
<path d="
" fill="black" />
<path d="
M 631 567 
L 658 567 
L 658 623 
L 631 623 
L 631 567 
" fill="black" />
<path d="
" fill="black" />
<path d="
M 710 567 
L 734 567 
Q 762 574 , 776 581 
Q 790 588 , 790 595 
Q 790 602 , 776 609 
Q 762 616 , 734 623 
L 710 623 
Q 739 616 , 752 609 
Q 765 602 , 765 595 
Q 765 588 , 752 581 
Q 739 574 , 710 567 
" fill="black" />
<path d="
" fill="black" />
<path d="
M 841 567 
L 868 567 
L 868 623 
L 841 623 
L 841 567 
" fill="black" />
<path d="
" fill="black" />
<path d="
" fill="black" />
<path d="
M 946 567 
L 973 567 
L 973 623 
L 946 623 
L 946 567 
" fill="black" />
<path d="
" fill="black" />
<path d="
" fill="black" />
<path d="
M 1051 567 
L 1078 567 
L 1078 623 
L 1051 623 
L 1051 567 
" fill="black" />
<path d="
" fill="black" />
<path d="
" fill="black" />
<path d="
M 1156 567 
L 1183 567 
L 1183 623 
L 1156 623 
L 1156 567 
" fill="black" />
<path d="
" fill="black" />
<path d="
M 1315 582 
L 1281 595 
L 1315 608 
L 1312 611 
L 1278 598 
L 1278 623 
L 1272 623 
L 1272 599 
L 1238 611 
L 1235 608 
L 1269 595 
L 1235 582 
L 1238 579 
L 1272 591 
L 1272 567 
L 1278 567 
L 1278 591 
L 1312 579 
L 1315 582 
" fill="black" />
</svg>
