<svg xmlns="http://www.w3.org/2000/svg"
viewBox="0 0 1435 635">
<path d="
M 120 554 
L 102 554 
L 136 554 
L 120 554 
M 113 554 
L 127 554 
L 170 555 
L 154 555 
L 142 555 
L 98 555 
L 85 555 
L 70 555 
L 113 554 
" fill="#339541" />
<path d="
M 154 554 
L 154 554 
L 125 554 
L 125 553 
L 170 553 
L 170 554 
Q 159 554 , 148 554 
Q 139 554 , 127 554 
Q 101 554 , 85 554 
Q 70 554 , 70 553 
Q 70 553 , 85 553 
Q 101 553 , 127 553 
Q 138 553 , 147 553 
Q 157 553 , 167 553 
L 167 553 
Q 154 553 , 146 553 
Q 137 553 , 128 553 
Q 107 553 , 96 553 
Q 86 553 , 86 553 
Q 86 554 , 96 554 
Q 107 554 , 128 554 
Q 137 554 , 144 554 
Q 151 554 , 154 554 
" fill="#F5C000" />
<path d="
M 70 552 
L 88 552 
L 88 553 
Q 88 553 , 96 553 
Q 103 553 , 120 553 
Q 137 553 , 145 553 
Q 152 553 , 152 553 
L 152 552 
L 170 552 
L 170 553 
Q 170 553 , 157 553 
Q 145 553 , 120 553 
Q 96 553 , 83 553 
Q 70 553 , 70 553 
L 70 552 
" fill="#D21010" />
<path d="
M 170 550 
L 170 550 
Q 155 550 , 147 550 
Q 139 550 , 129 550 
Q 108 550 , 98 550 
Q 86 550 , 86 550 
Q 86 551 , 98 551 
Q 108 551 , 129 551 
Q 139 551 , 147 551 
Q 155 551 , 170 551 
L 170 551 
Q 159 551 , 149 551 
Q 139 551 , 128 551 
Q 101 551 , 86 551 
Q 70 551 , 70 551 
Q 70 550 , 86 550 
Q 101 550 , 128 550 
Q 139 550 , 149 550 
Q 160 550 , 170 550 
" fill="#545FFF" />
<path d="
M 259 554 
L 259 553 
L 230 553 
L 230 553 
L 275 553 
L 275 554 
Q 264 554 , 253 554 
Q 244 554 , 232 554 
Q 206 554 , 190 554 
Q 175 554 , 175 553 
Q 175 553 , 190 552 
Q 206 552 , 232 552 
Q 243 552 , 252 552 
Q 262 552 , 272 552 
L 272 552 
Q 259 552 , 251 552 
Q 242 552 , 233 552 
Q 212 552 , 201 552 
Q 191 553 , 191 553 
Q 191 554 , 201 554 
Q 212 554 , 233 554 
Q 242 554 , 249 554 
Q 256 554 , 259 554 
" fill="#F5C000" />
<path d="
M 275 545 
L 275 546 
Q 260 545 , 252 545 
Q 244 545 , 234 545 
Q 213 545 , 203 546 
Q 191 546 , 191 547 
Q 191 549 , 203 550 
Q 213 551 , 234 551 
Q 244 551 , 252 551 
Q 260 550 , 275 550 
L 275 551 
Q 264 551 , 254 551 
Q 244 552 , 233 552 
Q 206 552 , 191 551 
Q 175 550 , 175 548 
Q 175 546 , 191 545 
Q 206 544 , 233 544 
Q 244 544 , 254 544 
Q 265 544 , 275 545 
" fill="#545FFF" />
<path d="
M 175 536 
L 193 536 
L 193 541 
Q 193 542 , 201 542 
Q 208 543 , 225 543 
Q 242 543 , 250 542 
Q 257 542 , 257 541 
L 257 536 
L 275 536 
L 275 541 
Q 275 542 , 262 543 
Q 250 544 , 225 544 
Q 201 544 , 188 543 
Q 175 542 , 175 541 
L 175 536 
" fill="#D21010" />
<path d="
M 225 529 
L 207 532 
L 241 532 
L 225 529 
M 218 527 
L 232 527 
L 275 535 
L 259 535 
L 247 533 
L 203 533 
L 190 535 
L 175 535 
L 218 527 
" fill="#339541" />
<path d="
M 330 552 
L 312 553 
L 346 553 
L 330 552 
M 323 552 
L 337 552 
L 380 554 
L 364 554 
L 352 554 
L 308 554 
L 295 554 
L 280 554 
L 323 552 
" fill="#339541" />
<path d="
M 364 550 
L 364 548 
L 335 548 
L 335 547 
L 380 547 
L 380 551 
Q 369 551 , 358 551 
Q 349 552 , 337 552 
Q 311 552 , 295 550 
Q 280 549 , 280 547 
Q 280 545 , 295 543 
Q 311 542 , 337 542 
Q 348 542 , 357 542 
Q 367 542 , 377 543 
L 377 544 
Q 364 543 , 356 543 
Q 347 543 , 338 543 
Q 317 543 , 306 544 
Q 296 545 , 296 547 
Q 296 549 , 306 550 
Q 317 550 , 338 550 
Q 347 550 , 354 550 
Q 361 550 , 364 550 
" fill="#F5C000" />
<path d="
M 380 530 
L 380 532 
Q 365 531 , 357 531 
Q 349 530 , 339 530 
Q 318 530 , 308 532 
Q 296 533 , 296 535 
Q 296 538 , 308 539 
Q 318 540 , 339 540 
Q 349 540 , 357 540 
Q 365 540 , 380 538 
L 380 540 
Q 369 541 , 359 541 
Q 349 542 , 338 542 
Q 311 542 , 296 540 
Q 280 538 , 280 535 
Q 280 532 , 296 531 
Q 311 529 , 338 529 
Q 349 529 , 359 529 
Q 370 530 , 380 530 
" fill="#545FFF" />
<path d="
M 280 514 
L 298 514 
L 298 522 
Q 298 525 , 306 526 
Q 313 527 , 330 527 
Q 347 527 , 355 526 
Q 362 525 , 362 522 
L 362 514 
L 380 514 
L 380 523 
Q 380 525 , 367 527 
Q 355 528 , 330 528 
Q 306 528 , 293 527 
Q 280 525 , 280 523 
L 280 514 
" fill="#D21010" />
<path d="
M 435 551 
L 417 553 
L 451 553 
L 435 551 
M 428 550 
L 442 550 
L 485 554 
L 469 554 
L 457 553 
L 413 553 
L 400 554 
L 385 554 
L 428 550 
" fill="#339541" />
<path d="
M 385 537 
L 403 537 
L 403 544 
Q 403 546 , 411 547 
Q 418 548 , 435 548 
Q 452 548 , 460 547 
Q 467 546 , 467 544 
L 467 537 
L 485 537 
L 485 545 
Q 485 547 , 472 548 
Q 460 549 , 435 549 
Q 411 549 , 398 548 
Q 385 547 , 385 545 
L 385 537 
" fill="#D21010" />
<path d="
M 469 535 
L 469 531 
L 440 531 
L 440 529 
L 485 529 
L 485 536 
Q 474 536 , 463 537 
Q 454 537 , 442 537 
Q 416 537 , 400 535 
Q 385 533 , 385 529 
Q 385 526 , 400 524 
Q 416 522 , 442 522 
Q 453 522 , 462 522 
Q 472 523 , 482 523 
L 482 525 
Q 469 524 , 461 524 
Q 452 524 , 443 524 
Q 422 524 , 411 525 
Q 401 527 , 401 529 
Q 401 532 , 411 534 
Q 422 535 , 443 535 
Q 452 535 , 459 535 
Q 466 535 , 469 535 
" fill="#F5C000" />
<path d="
M 485 332 
L 485 364 
Q 470 343 , 462 338 
Q 454 332 , 444 332 
Q 423 332 , 413 353 
Q 401 374 , 401 415 
Q 401 456 , 413 478 
Q 423 498 , 444 498 
Q 454 498 , 462 493 
Q 470 487 , 485 466 
L 485 500 
Q 474 512 , 464 516 
Q 454 521 , 443 521 
Q 416 521 , 401 493 
Q 385 464 , 385 415 
Q 385 366 , 401 338 
Q 416 309 , 443 309 
Q 454 309 , 464 314 
Q 475 319 , 485 332 
" fill="#545FFF" />
<path d="
M 574 553 
L 574 552 
L 545 552 
L 545 552 
L 590 552 
L 590 554 
Q 579 554 , 568 554 
Q 559 554 , 547 554 
Q 521 554 , 505 554 
Q 490 553 , 490 552 
Q 490 551 , 505 551 
Q 521 550 , 547 550 
Q 558 550 , 567 550 
Q 577 550 , 587 550 
L 587 551 
Q 574 551 , 566 551 
Q 557 550 , 548 550 
Q 527 550 , 516 551 
Q 506 551 , 506 552 
Q 506 553 , 516 553 
Q 527 554 , 548 554 
Q 557 554 , 564 554 
Q 571 554 , 574 553 
" fill="#F5C000" />
<path d="
M 540 544 
L 522 547 
L 556 547 
L 540 544 
M 533 543 
L 547 543 
L 590 549 
L 574 549 
L 562 547 
L 518 547 
L 505 549 
L 490 549 
L 533 543 
" fill="#339541" />
<path d="
M 590 530 
L 590 532 
Q 575 530 , 567 530 
Q 559 530 , 549 530 
Q 528 530 , 518 531 
Q 506 533 , 506 535 
Q 506 538 , 518 540 
Q 528 541 , 549 541 
Q 559 541 , 567 541 
Q 575 541 , 590 539 
L 590 541 
Q 579 542 , 569 543 
Q 559 543 , 548 543 
Q 521 543 , 506 541 
Q 490 539 , 490 536 
Q 490 532 , 506 530 
Q 521 528 , 548 528 
Q 559 528 , 569 528 
Q 580 529 , 590 530 
" fill="#545FFF" />
<path d="
M 490 509 
L 508 509 
L 508 520 
Q 508 523 , 516 524 
Q 523 526 , 540 526 
Q 557 526 , 565 524 
Q 572 523 , 572 520 
L 572 509 
L 590 509 
L 590 520 
Q 590 524 , 577 526 
Q 565 528 , 540 528 
Q 516 528 , 503 526 
Q 490 524 , 490 520 
L 490 509 
" fill="#D21010" />
<path d="
M 637 554 
L 637 554 
L 623 554 
L 623 553 
L 645 553 
L 645 554 
Q 640 555 , 634 555 
Q 629 555 , 623 555 
Q 610 555 , 603 554 
Q 595 554 , 595 553 
Q 595 553 , 603 552 
Q 610 552 , 623 552 
Q 629 552 , 634 552 
Q 639 552 , 644 552 
L 644 553 
Q 637 552 , 633 552 
Q 629 552 , 624 552 
Q 614 552 , 608 553 
Q 603 553 , 603 553 
Q 603 554 , 608 554 
Q 614 554 , 624 554 
Q 629 554 , 632 554 
Q 636 554 , 637 554 
" fill="#F5C000" />
<path d="
M 645 552 
L 654 552 
L 654 554 
Q 654 554 , 658 554 
Q 661 554 , 670 554 
Q 679 554 , 682 554 
Q 686 554 , 686 554 
L 686 552 
L 695 552 
L 695 554 
Q 695 554 , 689 554 
Q 682 555 , 670 555 
Q 658 555 , 651 554 
Q 645 554 , 645 554 
L 645 552 
" fill="lightgray" />
<path d="
M 620 548 
L 611 549 
L 628 549 
L 620 548 
M 616 547 
L 624 547 
L 645 551 
L 637 551 
L 631 550 
L 609 550 
L 602 551 
L 595 551 
L 616 547 
" fill="#339541" />
<path d="
M 645 547 
L 654 547 
L 654 549 
Q 654 550 , 658 550 
Q 661 551 , 670 551 
Q 679 551 , 682 550 
Q 686 550 , 686 549 
L 686 547 
L 695 547 
L 695 550 
Q 695 550 , 689 551 
Q 682 551 , 670 551 
Q 658 551 , 651 551 
Q 645 550 , 645 550 
L 645 547 
" fill="lightgray" />
<path d="
M 595 536 
L 604 536 
L 604 542 
Q 604 544 , 608 545 
Q 611 545 , 620 545 
Q 629 545 , 632 545 
Q 636 544 , 636 542 
L 636 536 
L 645 536 
L 645 542 
Q 645 544 , 639 545 
Q 632 546 , 620 546 
Q 608 546 , 601 545 
Q 595 544 , 595 542 
L 595 536 
" fill="#D21010" />
<path d="
M 670 538 
L 661 542 
L 678 542 
L 670 538 
M 666 536 
L 674 536 
L 695 546 
L 687 546 
L 681 543 
L 659 543 
L 652 546 
L 645 546 
L 666 536 
" fill="lightgray" />
<path d="
M 595 524 
L 604 524 
L 604 531 
Q 604 532 , 608 533 
Q 611 534 , 620 534 
Q 629 534 , 632 533 
Q 636 532 , 636 531 
L 636 524 
L 645 524 
L 645 531 
Q 645 533 , 639 534 
Q 632 535 , 620 535 
Q 608 535 , 601 534 
Q 595 533 , 595 531 
L 595 524 
" fill="#D21010" />
<path d="
M 687 534 
L 687 531 
L 673 531 
L 673 529 
L 695 529 
L 695 534 
Q 690 535 , 684 535 
Q 679 535 , 673 535 
Q 660 535 , 653 534 
Q 645 532 , 645 530 
Q 645 527 , 653 525 
Q 660 524 , 673 524 
Q 679 524 , 684 524 
Q 689 524 , 694 525 
L 694 526 
Q 687 526 , 683 526 
Q 679 525 , 674 525 
Q 664 525 , 658 526 
Q 653 527 , 653 530 
Q 653 532 , 658 533 
Q 664 534 , 674 534 
Q 679 534 , 682 534 
Q 686 534 , 687 534 
" fill="lightgray" />
<path d="
M 645 502 
L 645 505 
Q 638 503 , 634 502 
Q 629 502 , 624 502 
Q 614 502 , 609 504 
Q 603 507 , 603 511 
Q 603 516 , 609 518 
Q 614 521 , 624 521 
Q 629 521 , 634 520 
Q 638 520 , 645 517 
L 645 521 
Q 640 522 , 634 523 
Q 630 523 , 624 523 
Q 610 523 , 603 520 
Q 595 517 , 595 511 
Q 595 506 , 603 502 
Q 610 499 , 624 499 
Q 630 499 , 635 500 
Q 640 500 , 645 502 
" fill="#545FFF" />
<path d="
M 687 520 
L 687 513 
L 673 513 
L 673 511 
L 695 511 
L 695 522 
Q 690 523 , 684 523 
Q 679 523 , 673 523 
Q 660 523 , 653 520 
Q 645 517 , 645 511 
Q 645 506 , 653 502 
Q 660 499 , 673 499 
Q 679 499 , 684 499 
Q 689 500 , 694 501 
L 694 504 
Q 687 503 , 683 502 
Q 679 502 , 674 502 
Q 664 502 , 658 504 
Q 653 507 , 653 511 
Q 653 516 , 658 518 
Q 664 521 , 674 521 
Q 679 521 , 682 521 
Q 686 520 , 687 520 
" fill="lightgray" />
<path d="
M 637 493 
L 637 483 
L 623 483 
L 623 479 
L 645 479 
L 645 496 
Q 640 498 , 634 498 
Q 629 499 , 623 499 
Q 610 499 , 603 494 
Q 595 489 , 595 480 
Q 595 470 , 603 465 
Q 610 460 , 623 460 
Q 629 460 , 634 461 
Q 639 461 , 644 463 
L 644 468 
Q 637 466 , 633 465 
Q 629 465 , 624 465 
Q 614 465 , 608 468 
Q 603 472 , 603 480 
Q 603 487 , 608 491 
Q 614 495 , 624 495 
Q 629 495 , 632 494 
Q 636 494 , 637 493 
" fill="#F5C000" />
<path d="
M 695 464 
L 695 470 
Q 688 466 , 684 465 
Q 679 464 , 674 464 
Q 664 464 , 659 468 
Q 653 472 , 653 479 
Q 653 487 , 659 491 
Q 664 495 , 674 495 
Q 679 495 , 684 494 
Q 688 493 , 695 489 
L 695 495 
Q 690 497 , 684 498 
Q 680 499 , 674 499 
Q 660 499 , 653 494 
Q 645 488 , 645 480 
Q 645 471 , 653 465 
Q 660 460 , 674 460 
Q 680 460 , 685 461 
Q 690 462 , 695 464 
" fill="lightgray" />
<path d="
M 750 554 
L 732 554 
L 766 554 
L 750 554 
M 743 554 
L 757 554 
L 800 555 
L 784 555 
L 772 555 
L 728 555 
L 715 555 
L 700 555 
L 743 554 
" fill="#339541" />
<path d="
M 784 554 
L 784 554 
L 755 554 
L 755 553 
L 800 553 
L 800 554 
Q 789 554 , 778 554 
Q 769 554 , 757 554 
Q 731 554 , 715 554 
Q 700 554 , 700 553 
Q 700 553 , 715 553 
Q 731 553 , 757 553 
Q 768 553 , 777 553 
Q 787 553 , 797 553 
L 797 553 
Q 784 553 , 776 553 
Q 767 553 , 758 553 
Q 737 553 , 726 553 
Q 716 553 , 716 553 
Q 716 554 , 726 554 
Q 737 554 , 758 554 
Q 767 554 , 774 554 
Q 781 554 , 784 554 
" fill="#F5C000" />
<path d="
M 700 552 
L 718 552 
L 718 553 
Q 718 553 , 726 553 
Q 733 553 , 750 553 
Q 767 553 , 775 553 
Q 782 553 , 782 553 
L 782 552 
L 800 552 
L 800 553 
Q 800 553 , 787 553 
Q 775 553 , 750 553 
Q 726 553 , 713 553 
Q 700 553 , 700 553 
L 700 552 
" fill="#D21010" />
<path d="
M 800 550 
L 800 550 
Q 785 550 , 777 550 
Q 769 550 , 759 550 
Q 738 550 , 728 550 
Q 716 550 , 716 550 
Q 716 551 , 728 551 
Q 738 551 , 759 551 
Q 769 551 , 777 551 
Q 785 551 , 800 551 
L 800 551 
Q 789 551 , 779 551 
Q 769 551 , 758 551 
Q 731 551 , 716 551 
Q 700 551 , 700 551 
Q 700 550 , 716 550 
Q 731 550 , 758 550 
Q 769 550 , 779 550 
Q 790 550 , 800 550 
" fill="#545FFF" />
<path d="
M 855 552 
L 837 553 
L 871 553 
L 855 552 
M 848 552 
L 862 552 
L 905 554 
L 889 554 
L 877 554 
L 833 554 
L 820 554 
L 805 554 
L 848 552 
" fill="#339541" />
<path d="
M 889 550 
L 889 548 
L 860 548 
L 860 548 
L 905 548 
L 905 551 
Q 894 551 , 883 551 
Q 874 552 , 862 552 
Q 836 552 , 820 551 
Q 805 550 , 805 548 
Q 805 546 , 820 545 
Q 836 544 , 862 544 
Q 873 544 , 882 544 
Q 892 544 , 902 545 
L 902 546 
Q 889 545 , 881 545 
Q 872 545 , 863 545 
Q 842 545 , 831 546 
Q 821 546 , 821 548 
Q 821 549 , 831 550 
Q 842 551 , 863 551 
Q 872 551 , 879 551 
Q 886 551 , 889 550 
" fill="#F5C000" />
<path d="
M 805 534 
L 823 534 
L 823 540 
Q 823 541 , 831 542 
Q 838 542 , 855 542 
Q 872 542 , 880 542 
Q 887 541 , 887 540 
L 887 534 
L 905 534 
L 905 540 
Q 905 541 , 892 542 
Q 880 543 , 855 543 
Q 831 543 , 818 542 
Q 805 541 , 805 540 
L 805 534 
" fill="#D21010" />
<path d="
M 905 525 
L 905 526 
Q 890 526 , 882 525 
Q 874 525 , 864 525 
Q 843 525 , 833 526 
Q 821 527 , 821 529 
Q 821 531 , 833 532 
Q 843 533 , 864 533 
Q 874 533 , 882 532 
Q 890 532 , 905 531 
L 905 533 
Q 894 533 , 884 533 
Q 874 534 , 863 534 
Q 836 534 , 821 532 
Q 805 531 , 805 529 
Q 805 527 , 821 525 
Q 836 524 , 863 524 
Q 874 524 , 884 524 
Q 895 524 , 905 525 
" fill="#545FFF" />
<path d="
M 960 550 
L 942 552 
L 976 552 
L 960 550 
M 953 549 
L 967 549 
L 1010 554 
L 994 554 
L 982 553 
L 938 553 
L 925 554 
L 910 554 
L 953 549 
" fill="#339541" />
<path d="
M 910 536 
L 928 536 
L 928 543 
Q 928 546 , 936 546 
Q 943 547 , 960 547 
Q 977 547 , 985 546 
Q 992 546 , 992 543 
L 992 536 
L 1010 536 
L 1010 544 
Q 1010 546 , 997 547 
Q 985 549 , 960 549 
Q 936 549 , 923 547 
Q 910 546 , 910 544 
L 910 536 
" fill="#D21010" />
<path d="
M 994 532 
L 994 526 
L 965 526 
L 965 524 
L 1010 524 
L 1010 534 
Q 999 535 , 988 535 
Q 979 535 , 967 535 
Q 941 535 , 925 532 
Q 910 529 , 910 524 
Q 910 519 , 925 516 
Q 941 513 , 967 513 
Q 978 513 , 987 513 
Q 997 514 , 1007 515 
L 1007 518 
Q 994 516 , 986 516 
Q 977 516 , 968 516 
Q 947 516 , 936 518 
Q 926 520 , 926 524 
Q 926 529 , 936 531 
Q 947 533 , 968 533 
Q 977 533 , 984 533 
Q 991 532 , 994 532 
" fill="#F5C000" />
<path d="
M 1010 397 
L 1010 417 
Q 995 404 , 987 401 
Q 979 397 , 969 397 
Q 948 397 , 938 410 
Q 926 423 , 926 448 
Q 926 473 , 938 486 
Q 948 499 , 969 499 
Q 979 499 , 987 495 
Q 995 492 , 1010 479 
L 1010 500 
Q 999 507 , 989 510 
Q 979 513 , 968 513 
Q 941 513 , 926 495 
Q 910 478 , 910 448 
Q 910 418 , 926 401 
Q 941 383 , 968 383 
Q 979 383 , 989 386 
Q 1000 389 , 1010 397 
" fill="#545FFF" />
<path d="
M 1099 554 
L 1099 553 
L 1070 553 
L 1070 552 
L 1115 552 
L 1115 554 
Q 1104 555 , 1093 555 
Q 1084 555 , 1072 555 
Q 1046 555 , 1030 554 
Q 1015 554 , 1015 552 
Q 1015 551 , 1030 551 
Q 1046 550 , 1072 550 
Q 1083 550 , 1092 550 
Q 1102 550 , 1112 550 
L 1112 551 
Q 1099 551 , 1091 551 
Q 1082 551 , 1073 551 
Q 1052 551 , 1041 551 
Q 1031 551 , 1031 552 
Q 1031 553 , 1041 554 
Q 1052 554 , 1073 554 
Q 1082 554 , 1089 554 
Q 1096 554 , 1099 554 
" fill="#F5C000" />
<path d="
M 1065 545 
L 1047 547 
L 1081 547 
L 1065 545 
M 1058 544 
L 1072 544 
L 1115 550 
L 1099 550 
L 1087 548 
L 1043 548 
L 1030 550 
L 1015 550 
L 1058 544 
" fill="#339541" />
<path d="
M 1115 530 
L 1115 532 
Q 1100 530 , 1092 530 
Q 1084 530 , 1074 530 
Q 1053 530 , 1043 531 
Q 1031 533 , 1031 536 
Q 1031 539 , 1043 540 
Q 1053 542 , 1074 542 
Q 1084 542 , 1092 541 
Q 1100 541 , 1115 539 
L 1115 542 
Q 1104 543 , 1094 543 
Q 1084 543 , 1073 543 
Q 1046 543 , 1031 541 
Q 1015 539 , 1015 536 
Q 1015 532 , 1031 530 
Q 1046 528 , 1073 528 
Q 1084 528 , 1094 528 
Q 1105 529 , 1115 530 
" fill="#545FFF" />
<path d="
M 1015 508 
L 1033 508 
L 1033 520 
Q 1033 523 , 1041 524 
Q 1048 526 , 1065 526 
Q 1082 526 , 1090 524 
Q 1097 523 , 1097 520 
L 1097 508 
L 1115 508 
L 1115 520 
Q 1115 524 , 1102 526 
Q 1090 528 , 1065 528 
Q 1041 528 , 1028 526 
Q 1015 524 , 1015 520 
L 1015 508 
" fill="#D21010" />
<path d="
M 1170 550 
L 1152 552 
L 1186 552 
L 1170 550 
M 1163 549 
L 1177 549 
L 1220 554 
L 1204 554 
L 1192 553 
L 1148 553 
L 1135 554 
L 1120 554 
L 1163 549 
" fill="#339541" />
<path d="
M 1120 541 
L 1138 541 
L 1138 545 
Q 1138 546 , 1146 547 
Q 1153 547 , 1170 547 
Q 1187 547 , 1195 547 
Q 1202 546 , 1202 545 
L 1202 541 
L 1220 541 
L 1220 545 
Q 1220 547 , 1207 547 
Q 1195 548 , 1170 548 
Q 1146 548 , 1133 547 
Q 1120 547 , 1120 545 
L 1120 541 
" fill="#D21010" />
<path d="
M 1220 534 
L 1220 535 
Q 1205 534 , 1197 534 
Q 1189 534 , 1179 534 
Q 1158 534 , 1148 535 
Q 1136 535 , 1136 536 
Q 1136 538 , 1148 539 
Q 1158 539 , 1179 539 
Q 1189 539 , 1197 539 
Q 1205 539 , 1220 538 
L 1220 540 
Q 1209 540 , 1199 540 
Q 1189 540 , 1178 540 
Q 1151 540 , 1136 539 
Q 1120 538 , 1120 537 
Q 1120 535 , 1136 534 
Q 1151 533 , 1178 533 
Q 1189 533 , 1199 533 
Q 1210 533 , 1220 534 
" fill="#545FFF" />
<path d="
M 1204 530 
L 1204 525 
L 1175 525 
L 1175 523 
L 1220 523 
L 1220 531 
Q 1209 532 , 1198 532 
Q 1189 532 , 1177 532 
Q 1151 532 , 1135 530 
Q 1120 527 , 1120 523 
Q 1120 519 , 1135 516 
Q 1151 514 , 1177 514 
Q 1188 514 , 1197 514 
Q 1207 515 , 1217 515 
L 1217 518 
Q 1204 517 , 1196 516 
Q 1187 516 , 1178 516 
Q 1157 516 , 1146 518 
Q 1136 520 , 1136 523 
Q 1136 527 , 1146 529 
Q 1157 530 , 1178 530 
Q 1187 530 , 1194 530 
Q 1201 530 , 1204 530 
" fill="#F5C000" />
<path d="
M 1267 554 
L 1267 554 
L 1253 554 
L 1253 553 
L 1275 553 
L 1275 554 
Q 1270 555 , 1264 555 
Q 1259 555 , 1253 555 
Q 1240 555 , 1233 554 
Q 1225 554 , 1225 553 
Q 1225 553 , 1233 552 
Q 1240 552 , 1253 552 
Q 1259 552 , 1264 552 
Q 1269 552 , 1274 552 
L 1274 553 
Q 1267 552 , 1263 552 
Q 1259 552 , 1254 552 
Q 1244 552 , 1238 553 
Q 1233 553 , 1233 553 
Q 1233 554 , 1238 554 
Q 1244 554 , 1254 554 
Q 1259 554 , 1262 554 
Q 1266 554 , 1267 554 
" fill="lightgray" />
<path d="
M 1275 552 
L 1284 552 
L 1284 554 
Q 1284 554 , 1288 554 
Q 1291 554 , 1300 554 
Q 1309 554 , 1312 554 
Q 1316 554 , 1316 554 
L 1316 552 
L 1325 552 
L 1325 554 
Q 1325 554 , 1319 554 
Q 1312 555 , 1300 555 
Q 1288 555 , 1281 554 
Q 1275 554 , 1275 554 
L 1275 552 
" fill="#D21010" />
<path d="
M 1250 548 
L 1241 549 
L 1258 549 
L 1250 548 
M 1246 547 
L 1254 547 
L 1275 551 
L 1267 551 
L 1261 550 
L 1239 550 
L 1232 551 
L 1225 551 
L 1246 547 
" fill="lightgray" />
<path d="
M 1275 547 
L 1284 547 
L 1284 549 
Q 1284 550 , 1288 550 
Q 1291 551 , 1300 551 
Q 1309 551 , 1312 550 
Q 1316 550 , 1316 549 
L 1316 547 
L 1325 547 
L 1325 550 
Q 1325 550 , 1319 551 
Q 1312 551 , 1300 551 
Q 1288 551 , 1281 551 
Q 1275 550 , 1275 550 
L 1275 547 
" fill="#D21010" />
<path d="
M 1225 536 
L 1234 536 
L 1234 542 
Q 1234 544 , 1238 545 
Q 1241 545 , 1250 545 
Q 1259 545 , 1262 545 
Q 1266 544 , 1266 542 
L 1266 536 
L 1275 536 
L 1275 542 
Q 1275 544 , 1269 545 
Q 1262 546 , 1250 546 
Q 1238 546 , 1231 545 
Q 1225 544 , 1225 542 
L 1225 536 
" fill="lightgray" />
<path d="
M 1300 538 
L 1291 542 
L 1308 542 
L 1300 538 
M 1296 536 
L 1304 536 
L 1325 546 
L 1317 546 
L 1311 543 
L 1289 543 
L 1282 546 
L 1275 546 
L 1296 536 
" fill="#339541" />
<path d="
M 1225 524 
L 1234 524 
L 1234 531 
Q 1234 532 , 1238 533 
Q 1241 534 , 1250 534 
Q 1259 534 , 1262 533 
Q 1266 532 , 1266 531 
L 1266 524 
L 1275 524 
L 1275 531 
Q 1275 533 , 1269 534 
Q 1262 535 , 1250 535 
Q 1238 535 , 1231 534 
Q 1225 533 , 1225 531 
L 1225 524 
" fill="lightgray" />
<path d="
M 1317 534 
L 1317 531 
L 1303 531 
L 1303 529 
L 1325 529 
L 1325 534 
Q 1320 535 , 1314 535 
Q 1309 535 , 1303 535 
Q 1290 535 , 1283 534 
Q 1275 532 , 1275 530 
Q 1275 527 , 1283 525 
Q 1290 524 , 1303 524 
Q 1309 524 , 1314 524 
Q 1319 524 , 1324 525 
L 1324 526 
Q 1317 526 , 1313 526 
Q 1309 525 , 1304 525 
Q 1294 525 , 1288 526 
Q 1283 527 , 1283 530 
Q 1283 532 , 1288 533 
Q 1294 534 , 1304 534 
Q 1309 534 , 1312 534 
Q 1316 534 , 1317 534 
" fill="#F5C000" />
<path d="
M 1275 502 
L 1275 505 
Q 1268 503 , 1264 502 
Q 1259 502 , 1254 502 
Q 1244 502 , 1239 504 
Q 1233 507 , 1233 511 
Q 1233 516 , 1239 518 
Q 1244 521 , 1254 521 
Q 1259 521 , 1264 520 
Q 1268 520 , 1275 517 
L 1275 521 
Q 1270 522 , 1264 523 
Q 1260 523 , 1254 523 
Q 1240 523 , 1233 520 
Q 1225 517 , 1225 511 
Q 1225 506 , 1233 502 
Q 1240 499 , 1254 499 
Q 1260 499 , 1265 500 
Q 1270 500 , 1275 502 
" fill="lightgray" />
<path d="
M 1317 520 
L 1317 513 
L 1303 513 
L 1303 511 
L 1325 511 
L 1325 522 
Q 1320 523 , 1314 523 
Q 1309 523 , 1303 523 
Q 1290 523 , 1283 520 
Q 1275 517 , 1275 511 
Q 1275 506 , 1283 502 
Q 1290 499 , 1303 499 
Q 1309 499 , 1314 499 
Q 1319 500 , 1324 501 
L 1324 504 
Q 1317 503 , 1313 502 
Q 1309 502 , 1304 502 
Q 1294 502 , 1288 504 
Q 1283 507 , 1283 511 
Q 1283 516 , 1288 518 
Q 1294 521 , 1304 521 
Q 1309 521 , 1312 521 
Q 1316 520 , 1317 520 
" fill="#F5C000" />
<path d="
M 1267 493 
L 1267 483 
L 1253 483 
L 1253 479 
L 1275 479 
L 1275 496 
Q 1270 498 , 1264 498 
Q 1259 499 , 1253 499 
Q 1240 499 , 1233 494 
Q 1225 489 , 1225 480 
Q 1225 470 , 1233 465 
Q 1240 460 , 1253 460 
Q 1259 460 , 1264 461 
Q 1269 461 , 1274 463 
L 1274 468 
Q 1267 466 , 1263 465 
Q 1259 465 , 1254 465 
Q 1244 465 , 1238 468 
Q 1233 472 , 1233 480 
Q 1233 487 , 1238 491 
Q 1244 495 , 1254 495 
Q 1259 495 , 1262 494 
Q 1266 494 , 1267 493 
" fill="lightgray" />
<path d="
M 1325 464 
L 1325 470 
Q 1318 466 , 1314 465 
Q 1309 464 , 1304 464 
Q 1294 464 , 1289 468 
Q 1283 472 , 1283 479 
Q 1283 487 , 1289 491 
Q 1294 495 , 1304 495 
Q 1309 495 , 1314 494 
Q 1318 493 , 1325 489 
L 1325 495 
Q 1320 497 , 1314 498 
Q 1310 499 , 1304 499 
Q 1290 499 , 1283 494 
Q 1275 488 , 1275 480 
Q 1275 471 , 1283 465 
Q 1290 460 , 1304 460 
Q 1310 460 , 1315 461 
Q 1320 462 , 1325 464 
" fill="#545FFF" />
<path d="
M 1380 554 
L 1362 554 
L 1396 554 
L 1380 554 
M 1373 554 
L 1387 554 
L 1430 555 
L 1414 555 
L 1402 555 
L 1358 555 
L 1345 555 
L 1330 555 
L 1373 554 
" fill="#339541" />
<path d="
M 1414 554 
L 1414 554 
L 1385 554 
L 1385 553 
L 1430 553 
L 1430 554 
Q 1419 554 , 1408 554 
Q 1399 554 , 1387 554 
Q 1361 554 , 1345 554 
Q 1330 554 , 1330 553 
Q 1330 553 , 1345 553 
Q 1361 553 , 1387 553 
Q 1398 553 , 1407 553 
Q 1417 553 , 1427 553 
L 1427 553 
Q 1414 553 , 1406 553 
Q 1397 553 , 1388 553 
Q 1367 553 , 1356 553 
Q 1346 553 , 1346 553 
Q 1346 554 , 1356 554 
Q 1367 554 , 1388 554 
Q 1397 554 , 1404 554 
Q 1411 554 , 1414 554 
" fill="#F5C000" />
<path d="
M 1330 552 
L 1348 552 
L 1348 553 
Q 1348 553 , 1356 553 
Q 1363 553 , 1380 553 
Q 1397 553 , 1405 553 
Q 1412 553 , 1412 553 
L 1412 552 
L 1430 552 
L 1430 553 
Q 1430 553 , 1417 553 
Q 1405 553 , 1380 553 
Q 1356 553 , 1343 553 
Q 1330 553 , 1330 553 
L 1330 552 
" fill="#D21010" />
<path d="
M 1430 550 
L 1430 550 
Q 1415 550 , 1407 550 
Q 1399 550 , 1389 550 
Q 1368 550 , 1358 550 
Q 1346 550 , 1346 550 
Q 1346 551 , 1358 551 
Q 1368 551 , 1389 551 
Q 1399 551 , 1407 551 
Q 1415 551 , 1430 551 
L 1430 551 
Q 1419 551 , 1409 551 
Q 1399 551 , 1388 551 
Q 1361 551 , 1346 551 
Q 1330 551 , 1330 551 
Q 1330 550 , 1346 550 
Q 1361 550 , 1388 550 
Q 1399 550 , 1409 550 
Q 1420 550 , 1430 550 
" fill="#545FFF" />
<path d="M 65 168 L 65 555 " stroke="black" stroke-width="1.5"/>
<path d="M 55 555 L 65 555 " stroke="black" stroke-width="4"/>
<text text-anchor="end" x="50" y="555" font-size="50" alignment-baseline="middle">0</text>
<path d="M 55 362 L 65 362 " stroke="black" stroke-width="4"/>
<text text-anchor="end" x="50" y="362" font-size="50" alignment-baseline="middle">1</text>
<path d="M 55 168 L 65 168 " stroke="black" stroke-width="4"/>
<text text-anchor="end" x="50" y="168" font-size="50" alignment-baseline="middle">2</text>
<text text-anchor="middle" x="750" y="50" font-size="50" alignment-baseline="baseline"></text>
G<path d="
M 160 582 
L 126 595 
L 160 608 
L 157 611 
L 123 598 
L 123 623 
L 117 623 
L 117 599 
L 83 611 
L 80 608 
L 114 595 
L 80 582 
L 83 579 
L 117 591 
L 117 567 
L 123 567 
L 123 591 
L 157 579 
L 160 582 
" fill="black" />
<path d="
" fill="black" />
<path d="
M 211 567 
L 238 567 
L 238 623 
L 211 623 
L 211 567 
" fill="black" />
<path d="
" fill="black" />
<path d="
" fill="black" />
<path d="
M 316 567 
L 343 567 
L 343 623 
L 316 623 
L 316 567 
" fill="black" />
<path d="
" fill="black" />
<path d="
" fill="black" />
<path d="
M 421 567 
L 448 567 
L 448 623 
L 421 623 
L 421 567 
" fill="black" />
<path d="
" fill="black" />
<path d="
" fill="black" />
<path d="
M 526 567 
L 553 567 
L 553 623 
L 526 623 
L 526 567 
" fill="black" />
<path d="
" fill="black" />
<path d="
M 640 567 
Q 626 574 , 619 581 
Q 612 588 , 612 595 
Q 612 602 , 619 609 
Q 626 616 , 640 623 
L 628 623 
Q 614 616 , 607 609 
Q 600 602 , 600 595 
Q 600 588 , 607 581 
Q 614 574 , 628 567 
L 640 567 
" fill="black" />
<path d="
M 653 567 
L 685 567 
L 685 571 
L 658 571 
L 658 588 
Q 659 588 , 661 587 
Q 664 587 , 667 587 
Q 678 587 , 684 592 
Q 690 596 , 690 604 
Q 690 613 , 684 618 
Q 677 623 , 666 623 
Q 662 623 , 658 623 
Q 654 622 , 650 621 
L 650 616 
Q 654 618 , 658 618 
Q 661 619 , 666 619 
Q 674 619 , 679 615 
Q 685 611 , 685 604 
Q 685 598 , 680 594 
Q 675 591 , 666 591 
Q 664 591 , 661 591 
Q 657 592 , 653 594 
L 653 567 
" fill="black" />
<path d="
M 790 582 
L 756 595 
L 790 608 
L 787 611 
L 753 598 
L 753 623 
L 747 623 
L 747 599 
L 713 611 
L 710 608 
L 744 595 
L 710 582 
L 713 579 
L 747 591 
L 747 567 
L 753 567 
L 753 591 
L 787 579 
L 790 582 
" fill="black" />
<path d="
" fill="black" />
<path d="
M 841 567 
L 868 567 
L 868 623 
L 841 623 
L 841 567 
" fill="black" />
<path d="
" fill="black" />
<path d="
" fill="black" />
<path d="
M 946 567 
L 973 567 
L 973 623 
L 946 623 
L 946 567 
" fill="black" />
<path d="
" fill="black" />
<path d="
" fill="black" />
<path d="
M 1051 567 
L 1078 567 
L 1078 623 
L 1051 623 
L 1051 567 
" fill="black" />
<path d="
" fill="black" />
<path d="
" fill="black" />
<path d="
M 1156 567 
L 1183 567 
L 1183 623 
L 1156 623 
L 1156 567 
" fill="black" />
<path d="
" fill="black" />
<path d="
M 1235 567 
L 1259 567 
Q 1287 574 , 1301 581 
Q 1315 588 , 1315 595 
Q 1315 602 , 1301 609 
Q 1287 616 , 1259 623 
L 1235 623 
Q 1264 616 , 1277 609 
Q 1290 602 , 1290 595 
Q 1290 588 , 1277 581 
Q 1264 574 , 1235 567 
" fill="black" />
<path d="
M 1420 582 
L 1386 595 
L 1420 608 
L 1417 611 
L 1383 598 
L 1383 623 
L 1377 623 
L 1377 599 
L 1343 611 
L 1340 608 
L 1374 595 
L 1340 582 
L 1343 579 
L 1377 591 
L 1377 567 
L 1383 567 
L 1383 591 
L 1417 579 
L 1420 582 
" fill="black" />
</svg>
