<svg xmlns="http://www.w3.org/2000/svg"
viewBox="0 0 1435 635">
<path d="
M 120 554 
L 102 554 
L 136 554 
L 120 554 
M 113 554 
L 127 554 
L 170 555 
L 154 555 
L 142 555 
L 98 555 
L 85 555 
L 70 555 
L 113 554 
" fill="#339541" />
<path d="
M 154 554 
L 154 554 
L 125 554 
L 125 553 
L 170 553 
L 170 554 
Q 159 554 , 148 554 
Q 139 554 , 127 554 
Q 101 554 , 85 554 
Q 70 554 , 70 553 
Q 70 553 , 85 553 
Q 101 553 , 127 553 
Q 138 553 , 147 553 
Q 157 553 , 167 553 
L 167 553 
Q 154 553 , 146 553 
Q 137 553 , 128 553 
Q 107 553 , 96 553 
Q 86 553 , 86 553 
Q 86 554 , 96 554 
Q 107 554 , 128 554 
Q 137 554 , 144 554 
Q 151 554 , 154 554 
" fill="#F5C000" />
<path d="
M 70 552 
L 88 552 
L 88 553 
Q 88 553 , 96 553 
Q 103 553 , 120 553 
Q 137 553 , 145 553 
Q 152 553 , 152 553 
L 152 552 
L 170 552 
L 170 553 
Q 170 553 , 157 553 
Q 145 553 , 120 553 
Q 96 553 , 83 553 
Q 70 553 , 70 553 
L 70 552 
" fill="#D21010" />
<path d="
M 170 550 
L 170 550 
Q 155 550 , 147 550 
Q 139 550 , 129 550 
Q 108 550 , 98 550 
Q 86 550 , 86 550 
Q 86 551 , 98 551 
Q 108 551 , 129 551 
Q 139 551 , 147 551 
Q 155 551 , 170 551 
L 170 551 
Q 159 551 , 149 551 
Q 139 551 , 128 551 
Q 101 551 , 86 551 
Q 70 551 , 70 551 
Q 70 550 , 86 550 
Q 101 550 , 128 550 
Q 139 550 , 149 550 
Q 160 550 , 170 550 
" fill="#545FFF" />
<path d="
M 225 553 
L 207 554 
L 241 554 
L 225 553 
M 218 553 
L 232 553 
L 275 554 
L 259 554 
L 247 554 
L 203 554 
L 190 554 
L 175 554 
L 218 553 
" fill="#339541" />
<path d="
M 275 551 
L 275 551 
Q 260 551 , 252 551 
Q 244 551 , 234 551 
Q 213 551 , 203 551 
Q 191 552 , 191 552 
Q 191 552 , 203 552 
Q 213 553 , 234 553 
Q 244 553 , 252 553 
Q 260 553 , 275 552 
L 275 553 
Q 264 553 , 254 553 
Q 244 553 , 233 553 
Q 206 553 , 191 553 
Q 175 552 , 175 552 
Q 175 552 , 191 551 
Q 206 551 , 233 551 
Q 244 551 , 254 551 
Q 265 551 , 275 551 
" fill="#545FFF" />
<path d="
M 259 550 
L 259 549 
L 230 549 
L 230 549 
L 275 549 
L 275 550 
Q 264 550 , 253 550 
Q 244 550 , 232 550 
Q 206 550 , 190 550 
Q 175 549 , 175 549 
Q 175 549 , 190 548 
Q 206 548 , 232 548 
Q 243 548 , 252 548 
Q 262 548 , 272 548 
L 272 548 
Q 259 548 , 251 548 
Q 242 548 , 233 548 
Q 212 548 , 201 548 
Q 191 549 , 191 549 
Q 191 549 , 201 550 
Q 212 550 , 233 550 
Q 242 550 , 249 550 
Q 256 550 , 259 550 
" fill="#F5C000" />
<path d="
M 175 545 
L 193 545 
L 193 547 
Q 193 547 , 201 547 
Q 208 548 , 225 548 
Q 242 548 , 250 547 
Q 257 547 , 257 547 
L 257 545 
L 275 545 
L 275 547 
Q 275 547 , 262 548 
Q 250 548 , 225 548 
Q 201 548 , 188 548 
Q 175 547 , 175 547 
L 175 545 
" fill="#D21010" />
<path d="
M 322 554 
L 322 553 
L 308 553 
L 308 552 
L 330 552 
L 330 554 
Q 325 555 , 319 555 
Q 314 555 , 308 555 
Q 295 555 , 288 554 
Q 280 553 , 280 552 
Q 280 551 , 288 551 
Q 295 550 , 308 550 
Q 314 550 , 319 550 
Q 324 550 , 329 550 
L 329 551 
Q 322 551 , 318 551 
Q 314 551 , 309 551 
Q 299 551 , 293 551 
Q 288 551 , 288 552 
Q 288 553 , 293 554 
Q 299 554 , 309 554 
Q 314 554 , 317 554 
Q 321 554 , 322 554 
" fill="#F5C000" />
<path d="
M 330 550 
L 339 550 
L 339 553 
Q 339 554 , 343 554 
Q 346 554 , 355 554 
Q 364 554 , 367 554 
Q 371 554 , 371 553 
L 371 550 
L 380 550 
L 380 553 
Q 380 554 , 374 554 
Q 367 555 , 355 555 
Q 343 555 , 336 554 
Q 330 554 , 330 553 
L 330 550 
" fill="lightgray" />
<path d="
M 305 545 
L 296 547 
L 313 547 
L 305 545 
M 301 544 
L 309 544 
L 330 550 
L 322 550 
L 316 548 
L 294 548 
L 287 550 
L 280 550 
L 301 544 
" fill="#339541" />
<path d="
M 330 544 
L 339 544 
L 339 547 
Q 339 548 , 343 549 
Q 346 549 , 355 549 
Q 364 549 , 367 549 
Q 371 548 , 371 547 
L 371 544 
L 380 544 
L 380 547 
Q 380 548 , 374 549 
Q 367 550 , 355 550 
Q 343 550 , 336 549 
Q 330 548 , 330 547 
L 330 544 
" fill="lightgray" />
<path d="
M 280 535 
L 289 535 
L 289 540 
Q 289 542 , 293 542 
Q 296 543 , 305 543 
Q 314 543 , 317 542 
Q 321 542 , 321 540 
L 321 535 
L 330 535 
L 330 540 
Q 330 542 , 324 543 
Q 317 544 , 305 544 
Q 293 544 , 286 543 
Q 280 542 , 280 540 
L 280 535 
" fill="#D21010" />
<path d="
M 372 543 
L 372 540 
L 358 540 
L 358 539 
L 380 539 
L 380 543 
Q 375 544 , 369 544 
Q 364 544 , 358 544 
Q 345 544 , 338 543 
Q 330 542 , 330 539 
Q 330 537 , 338 536 
Q 345 535 , 358 535 
Q 364 535 , 369 535 
Q 374 535 , 379 536 
L 379 537 
Q 372 536 , 368 536 
Q 364 536 , 359 536 
Q 349 536 , 343 537 
Q 338 538 , 338 539 
Q 338 541 , 343 542 
Q 349 543 , 359 543 
Q 364 543 , 367 543 
Q 371 543 , 372 543 
" fill="lightgray" />
<path d="
M 280 522 
L 289 522 
L 289 529 
Q 289 531 , 293 532 
Q 296 533 , 305 533 
Q 314 533 , 317 532 
Q 321 531 , 321 529 
L 321 522 
L 330 522 
L 330 529 
Q 330 532 , 324 533 
Q 317 534 , 305 534 
Q 293 534 , 286 533 
Q 280 532 , 280 529 
L 280 522 
" fill="#D21010" />
<path d="
M 355 524 
L 346 529 
L 363 529 
L 355 524 
M 351 522 
L 359 522 
L 380 534 
L 372 534 
L 366 531 
L 344 531 
L 337 534 
L 330 534 
L 351 522 
" fill="lightgray" />
<path d="
M 330 493 
L 330 498 
Q 323 495 , 319 494 
Q 314 493 , 309 493 
Q 299 493 , 294 496 
Q 288 500 , 288 506 
Q 288 512 , 294 515 
Q 299 518 , 309 518 
Q 314 518 , 319 517 
Q 323 516 , 330 513 
L 330 518 
Q 325 520 , 319 520 
Q 315 521 , 309 521 
Q 295 521 , 288 517 
Q 280 513 , 280 506 
Q 280 498 , 288 494 
Q 295 490 , 309 490 
Q 315 490 , 320 491 
Q 325 492 , 330 493 
" fill="#545FFF" />
<path d="
M 372 517 
L 372 508 
L 358 508 
L 358 505 
L 380 505 
L 380 519 
Q 375 520 , 369 521 
Q 364 521 , 358 521 
Q 345 521 , 338 517 
Q 330 513 , 330 506 
Q 330 498 , 338 494 
Q 345 490 , 358 490 
Q 364 490 , 369 491 
Q 374 491 , 379 493 
L 379 496 
Q 372 495 , 368 494 
Q 364 494 , 359 494 
Q 349 494 , 343 497 
Q 338 500 , 338 506 
Q 338 512 , 343 515 
Q 349 518 , 359 518 
Q 364 518 , 367 517 
Q 371 517 , 372 517 
" fill="lightgray" />
<path d="
M 322 479 
L 322 458 
L 308 458 
L 308 449 
L 330 449 
L 330 484 
Q 325 487 , 319 489 
Q 314 490 , 308 490 
Q 295 490 , 288 479 
Q 280 469 , 280 451 
Q 280 433 , 288 422 
Q 295 412 , 308 412 
Q 314 412 , 319 413 
Q 324 415 , 329 418 
L 329 428 
Q 322 424 , 318 423 
Q 314 421 , 309 421 
Q 299 421 , 293 429 
Q 288 436 , 288 451 
Q 288 466 , 293 474 
Q 299 481 , 309 481 
Q 314 481 , 317 480 
Q 321 480 , 322 479 
" fill="#F5C000" />
<path d="
M 380 420 
L 380 432 
Q 373 425 , 369 423 
Q 364 421 , 359 421 
Q 349 421 , 344 428 
Q 338 436 , 338 451 
Q 338 466 , 344 474 
Q 349 481 , 359 481 
Q 364 481 , 369 480 
Q 373 477 , 380 470 
L 380 482 
Q 375 486 , 369 488 
Q 365 490 , 359 490 
Q 345 490 , 338 479 
Q 330 469 , 330 451 
Q 330 433 , 338 423 
Q 345 412 , 359 412 
Q 365 412 , 370 414 
Q 375 416 , 380 420 
" fill="lightgray" />
<path d="
M 469 553 
L 469 551 
L 440 551 
L 440 550 
L 485 550 
L 485 554 
Q 474 554 , 463 555 
Q 454 555 , 442 555 
Q 416 555 , 400 554 
Q 385 552 , 385 550 
Q 385 548 , 400 547 
Q 416 546 , 442 546 
Q 453 546 , 462 546 
Q 472 546 , 482 547 
L 482 548 
Q 469 547 , 461 547 
Q 452 547 , 443 547 
Q 422 547 , 411 548 
Q 401 549 , 401 550 
Q 401 552 , 411 553 
Q 422 554 , 443 554 
Q 452 554 , 459 554 
Q 466 554 , 469 553 
" fill="#F5C000" />
<path d="
M 435 534 
L 417 540 
L 451 540 
L 435 534 
M 428 531 
L 442 531 
L 485 546 
L 469 546 
L 457 541 
L 413 541 
L 400 546 
L 385 546 
L 428 531 
" fill="#339541" />
<path d="
M 385 515 
L 403 515 
L 403 524 
Q 403 527 , 411 528 
Q 418 529 , 435 529 
Q 452 529 , 460 528 
Q 467 527 , 467 524 
L 467 515 
L 485 515 
L 485 524 
Q 485 527 , 472 529 
Q 460 530 , 435 530 
Q 411 530 , 398 529 
Q 385 527 , 385 524 
L 385 515 
" fill="#D21010" />
<path d="
M 485 415 
L 485 432 
Q 470 421 , 462 418 
Q 454 415 , 444 415 
Q 423 415 , 413 426 
Q 401 437 , 401 459 
Q 401 481 , 413 492 
Q 423 503 , 444 503 
Q 454 503 , 462 500 
Q 470 497 , 485 486 
L 485 504 
Q 474 510 , 464 512 
Q 454 515 , 443 515 
Q 416 515 , 401 500 
Q 385 485 , 385 459 
Q 385 433 , 401 418 
Q 416 403 , 443 403 
Q 454 403 , 464 406 
Q 475 408 , 485 415 
" fill="#545FFF" />
<path d="
M 574 554 
L 574 552 
L 545 552 
L 545 552 
L 590 552 
L 590 554 
Q 579 555 , 568 555 
Q 559 555 , 547 555 
Q 521 555 , 505 554 
Q 490 553 , 490 552 
Q 490 551 , 505 550 
Q 521 549 , 547 549 
Q 558 549 , 567 549 
Q 577 549 , 587 549 
L 587 550 
Q 574 550 , 566 550 
Q 557 550 , 548 550 
Q 527 550 , 516 550 
Q 506 551 , 506 552 
Q 506 553 , 516 554 
Q 527 554 , 548 554 
Q 557 554 , 564 554 
Q 571 554 , 574 554 
" fill="#F5C000" />
<path d="
M 540 542 
L 522 546 
L 556 546 
L 540 542 
M 533 541 
L 547 541 
L 590 549 
L 574 549 
L 562 547 
L 518 547 
L 505 549 
L 490 549 
L 533 541 
" fill="#339541" />
<path d="
M 490 512 
L 508 512 
L 508 529 
Q 508 533 , 516 535 
Q 523 537 , 540 537 
Q 557 537 , 565 535 
Q 572 533 , 572 529 
L 572 512 
L 590 512 
L 590 529 
Q 590 535 , 577 538 
Q 565 540 , 540 540 
Q 516 540 , 503 538 
Q 490 535 , 490 529 
L 490 512 
" fill="#D21010" />
<path d="
M 590 449 
L 590 460 
Q 575 453 , 567 451 
Q 559 450 , 549 450 
Q 528 450 , 518 456 
Q 506 463 , 506 476 
Q 506 490 , 518 497 
Q 528 504 , 549 504 
Q 559 504 , 567 502 
Q 575 500 , 590 493 
L 590 504 
Q 579 508 , 569 510 
Q 559 511 , 548 511 
Q 521 511 , 506 502 
Q 490 493 , 490 477 
Q 490 461 , 506 451 
Q 521 442 , 548 442 
Q 559 442 , 569 444 
Q 580 445 , 590 449 
" fill="#545FFF" />
<path d="
M 645 552 
L 627 553 
L 661 553 
L 645 552 
M 638 552 
L 652 552 
L 695 555 
L 679 555 
L 667 554 
L 623 554 
L 610 555 
L 595 555 
L 638 552 
" fill="#339541" />
<path d="
M 679 550 
L 679 547 
L 650 547 
L 650 546 
L 695 546 
L 695 551 
Q 684 551 , 673 552 
Q 664 552 , 652 552 
Q 626 552 , 610 550 
Q 595 549 , 595 546 
Q 595 544 , 610 542 
Q 626 541 , 652 541 
Q 663 541 , 672 541 
Q 682 541 , 692 542 
L 692 543 
Q 679 543 , 671 542 
Q 662 542 , 653 542 
Q 632 542 , 621 543 
Q 611 544 , 611 546 
Q 611 549 , 621 550 
Q 632 551 , 653 551 
Q 662 551 , 669 550 
Q 676 550 , 679 550 
" fill="#F5C000" />
<path d="
M 595 528 
L 613 528 
L 613 536 
Q 613 538 , 621 539 
Q 628 539 , 645 539 
Q 662 539 , 670 539 
Q 677 538 , 677 536 
L 677 528 
L 695 528 
L 695 536 
Q 695 538 , 682 540 
Q 670 541 , 645 541 
Q 621 541 , 608 540 
Q 595 538 , 595 536 
L 595 528 
" fill="#D21010" />
<path d="
M 695 510 
L 695 513 
Q 680 511 , 672 511 
Q 664 510 , 654 510 
Q 633 510 , 623 512 
Q 611 514 , 611 517 
Q 611 521 , 623 523 
Q 633 525 , 654 525 
Q 664 525 , 672 524 
Q 680 524 , 695 522 
L 695 525 
Q 684 526 , 674 527 
Q 664 527 , 653 527 
Q 626 527 , 611 524 
Q 595 522 , 595 518 
Q 595 513 , 611 511 
Q 626 508 , 653 508 
Q 664 508 , 674 508 
Q 685 509 , 695 510 
" fill="#545FFF" />
<path d="
M 750 554 
L 732 554 
L 766 554 
L 750 554 
M 743 554 
L 757 554 
L 800 555 
L 784 555 
L 772 555 
L 728 555 
L 715 555 
L 700 555 
L 743 554 
" fill="#339541" />
<path d="
M 784 554 
L 784 554 
L 755 554 
L 755 553 
L 800 553 
L 800 554 
Q 789 554 , 778 554 
Q 769 554 , 757 554 
Q 731 554 , 715 554 
Q 700 554 , 700 553 
Q 700 553 , 715 553 
Q 731 553 , 757 553 
Q 768 553 , 777 553 
Q 787 553 , 797 553 
L 797 553 
Q 784 553 , 776 553 
Q 767 553 , 758 553 
Q 737 553 , 726 553 
Q 716 553 , 716 553 
Q 716 554 , 726 554 
Q 737 554 , 758 554 
Q 767 554 , 774 554 
Q 781 554 , 784 554 
" fill="#F5C000" />
<path d="
M 700 552 
L 718 552 
L 718 553 
Q 718 553 , 726 553 
Q 733 553 , 750 553 
Q 767 553 , 775 553 
Q 782 553 , 782 553 
L 782 552 
L 800 552 
L 800 553 
Q 800 553 , 787 553 
Q 775 553 , 750 553 
Q 726 553 , 713 553 
Q 700 553 , 700 553 
L 700 552 
" fill="#D21010" />
<path d="
M 800 550 
L 800 550 
Q 785 550 , 777 550 
Q 769 550 , 759 550 
Q 738 550 , 728 550 
Q 716 550 , 716 550 
Q 716 551 , 728 551 
Q 738 551 , 759 551 
Q 769 551 , 777 551 
Q 785 551 , 800 551 
L 800 551 
Q 789 551 , 779 551 
Q 769 551 , 758 551 
Q 731 551 , 716 551 
Q 700 551 , 700 551 
Q 700 550 , 716 550 
Q 731 550 , 758 550 
Q 769 550 , 779 550 
Q 790 550 , 800 550 
" fill="#545FFF" />
<path d="
M 855 552 
L 837 554 
L 871 554 
L 855 552 
M 848 552 
L 862 552 
L 905 555 
L 889 555 
L 877 554 
L 833 554 
L 820 555 
L 805 555 
L 848 552 
" fill="#339541" />
<path d="
M 805 541 
L 823 541 
L 823 547 
Q 823 549 , 831 550 
Q 838 551 , 855 551 
Q 872 551 , 880 550 
Q 887 549 , 887 547 
L 887 541 
L 905 541 
L 905 548 
Q 905 550 , 892 551 
Q 880 552 , 855 552 
Q 831 552 , 818 551 
Q 805 550 , 805 548 
L 805 541 
" fill="#D21010" />
<path d="
M 905 530 
L 905 532 
Q 890 531 , 882 531 
Q 874 530 , 864 530 
Q 843 530 , 833 531 
Q 821 533 , 821 535 
Q 821 537 , 833 538 
Q 843 539 , 864 539 
Q 874 539 , 882 539 
Q 890 539 , 905 538 
L 905 539 
Q 894 540 , 884 540 
Q 874 541 , 863 541 
Q 836 541 , 821 539 
Q 805 537 , 805 535 
Q 805 532 , 821 531 
Q 836 529 , 863 529 
Q 874 529 , 884 529 
Q 895 530 , 905 530 
" fill="#545FFF" />
<path d="
M 889 526 
L 889 521 
L 860 521 
L 860 519 
L 905 519 
L 905 527 
Q 894 528 , 883 528 
Q 874 528 , 862 528 
Q 836 528 , 820 526 
Q 805 524 , 805 519 
Q 805 515 , 820 512 
Q 836 510 , 862 510 
Q 873 510 , 882 510 
Q 892 511 , 902 511 
L 902 514 
Q 889 513 , 881 512 
Q 872 512 , 863 512 
Q 842 512 , 831 514 
Q 821 516 , 821 519 
Q 821 523 , 831 525 
Q 842 526 , 863 526 
Q 872 526 , 879 526 
Q 886 526 , 889 526 
" fill="#F5C000" />
<path d="
M 952 554 
L 952 553 
L 938 553 
L 938 552 
L 960 552 
L 960 554 
Q 955 555 , 949 555 
Q 944 555 , 938 555 
Q 925 555 , 918 554 
Q 910 553 , 910 552 
Q 910 551 , 918 551 
Q 925 550 , 938 550 
Q 944 550 , 949 550 
Q 954 550 , 959 550 
L 959 551 
Q 952 551 , 948 551 
Q 944 551 , 939 551 
Q 929 551 , 923 551 
Q 918 551 , 918 552 
Q 918 553 , 923 554 
Q 929 554 , 939 554 
Q 944 554 , 947 554 
Q 951 554 , 952 554 
" fill="lightgray" />
<path d="
M 960 550 
L 969 550 
L 969 553 
Q 969 554 , 973 554 
Q 976 554 , 985 554 
Q 994 554 , 997 554 
Q 1001 554 , 1001 553 
L 1001 550 
L 1010 550 
L 1010 553 
Q 1010 554 , 1004 554 
Q 997 555 , 985 555 
Q 973 555 , 966 554 
Q 960 554 , 960 553 
L 960 550 
" fill="#D21010" />
<path d="
M 935 545 
L 926 547 
L 943 547 
L 935 545 
M 931 544 
L 939 544 
L 960 550 
L 952 550 
L 946 548 
L 924 548 
L 917 550 
L 910 550 
L 931 544 
" fill="lightgray" />
<path d="
M 960 544 
L 969 544 
L 969 547 
Q 969 548 , 973 549 
Q 976 549 , 985 549 
Q 994 549 , 997 549 
Q 1001 548 , 1001 547 
L 1001 544 
L 1010 544 
L 1010 547 
Q 1010 548 , 1004 549 
Q 997 550 , 985 550 
Q 973 550 , 966 549 
Q 960 548 , 960 547 
L 960 544 
" fill="#D21010" />
<path d="
M 910 535 
L 919 535 
L 919 540 
Q 919 542 , 923 542 
Q 926 543 , 935 543 
Q 944 543 , 947 542 
Q 951 542 , 951 540 
L 951 535 
L 960 535 
L 960 540 
Q 960 542 , 954 543 
Q 947 544 , 935 544 
Q 923 544 , 916 543 
Q 910 542 , 910 540 
L 910 535 
" fill="lightgray" />
<path d="
M 1002 543 
L 1002 540 
L 988 540 
L 988 539 
L 1010 539 
L 1010 543 
Q 1005 544 , 999 544 
Q 994 544 , 988 544 
Q 975 544 , 968 543 
Q 960 542 , 960 539 
Q 960 537 , 968 536 
Q 975 535 , 988 535 
Q 994 535 , 999 535 
Q 1004 535 , 1009 536 
L 1009 537 
Q 1002 536 , 998 536 
Q 994 536 , 989 536 
Q 979 536 , 973 537 
Q 968 538 , 968 539 
Q 968 541 , 973 542 
Q 979 543 , 989 543 
Q 994 543 , 997 543 
Q 1001 543 , 1002 543 
" fill="#F5C000" />
<path d="
M 910 522 
L 919 522 
L 919 529 
Q 919 531 , 923 532 
Q 926 533 , 935 533 
Q 944 533 , 947 532 
Q 951 531 , 951 529 
L 951 522 
L 960 522 
L 960 529 
Q 960 532 , 954 533 
Q 947 534 , 935 534 
Q 923 534 , 916 533 
Q 910 532 , 910 529 
L 910 522 
" fill="lightgray" />
<path d="
M 985 524 
L 976 529 
L 993 529 
L 985 524 
M 981 522 
L 989 522 
L 1010 534 
L 1002 534 
L 996 531 
L 974 531 
L 967 534 
L 960 534 
L 981 522 
" fill="#339541" />
<path d="
M 960 493 
L 960 498 
Q 953 495 , 949 494 
Q 944 493 , 939 493 
Q 929 493 , 924 496 
Q 918 500 , 918 506 
Q 918 512 , 924 515 
Q 929 518 , 939 518 
Q 944 518 , 949 517 
Q 953 516 , 960 513 
L 960 518 
Q 955 520 , 949 520 
Q 945 521 , 939 521 
Q 925 521 , 918 517 
Q 910 513 , 910 506 
Q 910 498 , 918 494 
Q 925 490 , 939 490 
Q 945 490 , 950 491 
Q 955 492 , 960 493 
" fill="lightgray" />
<path d="
M 1002 517 
L 1002 508 
L 988 508 
L 988 505 
L 1010 505 
L 1010 519 
Q 1005 520 , 999 521 
Q 994 521 , 988 521 
Q 975 521 , 968 517 
Q 960 513 , 960 506 
Q 960 498 , 968 494 
Q 975 490 , 988 490 
Q 994 490 , 999 491 
Q 1004 491 , 1009 493 
L 1009 496 
Q 1002 495 , 998 494 
Q 994 494 , 989 494 
Q 979 494 , 973 497 
Q 968 500 , 968 506 
Q 968 512 , 973 515 
Q 979 518 , 989 518 
Q 994 518 , 997 517 
Q 1001 517 , 1002 517 
" fill="#F5C000" />
<path d="
M 952 479 
L 952 458 
L 938 458 
L 938 449 
L 960 449 
L 960 484 
Q 955 487 , 949 489 
Q 944 490 , 938 490 
Q 925 490 , 918 479 
Q 910 469 , 910 451 
Q 910 433 , 918 422 
Q 925 412 , 938 412 
Q 944 412 , 949 413 
Q 954 415 , 959 418 
L 959 428 
Q 952 424 , 948 423 
Q 944 421 , 939 421 
Q 929 421 , 923 429 
Q 918 436 , 918 451 
Q 918 466 , 923 474 
Q 929 481 , 939 481 
Q 944 481 , 947 480 
Q 951 480 , 952 479 
" fill="lightgray" />
<path d="
M 1010 420 
L 1010 432 
Q 1003 425 , 999 423 
Q 994 421 , 989 421 
Q 979 421 , 974 428 
Q 968 436 , 968 451 
Q 968 466 , 974 474 
Q 979 481 , 989 481 
Q 994 481 , 999 480 
Q 1003 477 , 1010 470 
L 1010 482 
Q 1005 486 , 999 488 
Q 995 490 , 989 490 
Q 975 490 , 968 479 
Q 960 469 , 960 451 
Q 960 433 , 968 423 
Q 975 412 , 989 412 
Q 995 412 , 1000 414 
Q 1005 416 , 1010 420 
" fill="#545FFF" />
<path d="
M 1065 552 
L 1047 553 
L 1081 553 
L 1065 552 
M 1058 552 
L 1072 552 
L 1115 554 
L 1099 554 
L 1087 554 
L 1043 554 
L 1030 554 
L 1015 554 
L 1058 552 
" fill="#339541" />
<path d="
M 1099 551 
L 1099 550 
L 1070 550 
L 1070 550 
L 1115 550 
L 1115 551 
Q 1104 551 , 1093 551 
Q 1084 551 , 1072 551 
Q 1046 551 , 1030 551 
Q 1015 551 , 1015 550 
Q 1015 550 , 1030 549 
Q 1046 549 , 1072 549 
Q 1083 549 , 1092 549 
Q 1102 549 , 1112 549 
L 1112 550 
Q 1099 549 , 1091 549 
Q 1082 549 , 1073 549 
Q 1052 549 , 1041 550 
Q 1031 550 , 1031 550 
Q 1031 551 , 1041 551 
Q 1052 551 , 1073 551 
Q 1082 551 , 1089 551 
Q 1096 551 , 1099 551 
" fill="#F5C000" />
<path d="
M 1015 545 
L 1033 545 
L 1033 547 
Q 1033 548 , 1041 548 
Q 1048 548 , 1065 548 
Q 1082 548 , 1090 548 
Q 1097 548 , 1097 547 
L 1097 545 
L 1115 545 
L 1115 547 
Q 1115 548 , 1102 549 
Q 1090 549 , 1065 549 
Q 1041 549 , 1028 549 
Q 1015 548 , 1015 547 
L 1015 545 
" fill="#D21010" />
<path d="
M 1115 541 
L 1115 541 
Q 1100 541 , 1092 541 
Q 1084 541 , 1074 541 
Q 1053 541 , 1043 541 
Q 1031 541 , 1031 542 
Q 1031 543 , 1043 544 
Q 1053 544 , 1074 544 
Q 1084 544 , 1092 544 
Q 1100 544 , 1115 544 
L 1115 544 
Q 1104 545 , 1094 545 
Q 1084 545 , 1073 545 
Q 1046 545 , 1031 544 
Q 1015 544 , 1015 542 
Q 1015 541 , 1031 541 
Q 1046 540 , 1073 540 
Q 1084 540 , 1094 540 
Q 1105 540 , 1115 541 
" fill="#545FFF" />
<path d="
M 1170 552 
L 1152 554 
L 1186 554 
L 1170 552 
M 1163 552 
L 1177 552 
L 1220 555 
L 1204 555 
L 1192 554 
L 1148 554 
L 1135 555 
L 1120 555 
L 1163 552 
" fill="#339541" />
<path d="
M 1120 547 
L 1138 547 
L 1138 550 
Q 1138 551 , 1146 551 
Q 1153 551 , 1170 551 
Q 1187 551 , 1195 551 
Q 1202 551 , 1202 550 
L 1202 547 
L 1220 547 
L 1220 550 
Q 1220 551 , 1207 551 
Q 1195 552 , 1170 552 
Q 1146 552 , 1133 551 
Q 1120 551 , 1120 550 
L 1120 547 
" fill="#D21010" />
<path d="
M 1204 546 
L 1204 544 
L 1175 544 
L 1175 543 
L 1220 543 
L 1220 546 
Q 1209 547 , 1198 547 
Q 1189 547 , 1177 547 
Q 1151 547 , 1135 546 
Q 1120 545 , 1120 543 
Q 1120 542 , 1135 541 
Q 1151 540 , 1177 540 
Q 1188 540 , 1197 540 
Q 1207 540 , 1217 541 
L 1217 541 
Q 1204 541 , 1196 541 
Q 1187 541 , 1178 541 
Q 1157 541 , 1146 541 
Q 1136 542 , 1136 543 
Q 1136 545 , 1146 545 
Q 1157 546 , 1178 546 
Q 1187 546 , 1194 546 
Q 1201 546 , 1204 546 
" fill="#F5C000" />
<path d="
M 1220 532 
L 1220 533 
Q 1205 532 , 1197 532 
Q 1189 532 , 1179 532 
Q 1158 532 , 1148 533 
Q 1136 534 , 1136 535 
Q 1136 537 , 1148 538 
Q 1158 539 , 1179 539 
Q 1189 539 , 1197 539 
Q 1205 538 , 1220 538 
L 1220 539 
Q 1209 539 , 1199 540 
Q 1189 540 , 1178 540 
Q 1151 540 , 1136 539 
Q 1120 537 , 1120 535 
Q 1120 533 , 1136 532 
Q 1151 531 , 1178 531 
Q 1189 531 , 1199 531 
Q 1210 531 , 1220 532 
" fill="#545FFF" />
<path d="
M 1275 551 
L 1257 553 
L 1291 553 
L 1275 551 
M 1268 550 
L 1282 550 
L 1325 555 
L 1309 555 
L 1297 553 
L 1253 553 
L 1240 555 
L 1225 555 
L 1268 550 
" fill="#339541" />
<path d="
M 1309 548 
L 1309 546 
L 1280 546 
L 1280 546 
L 1325 546 
L 1325 549 
Q 1314 549 , 1303 549 
Q 1294 549 , 1282 549 
Q 1256 549 , 1240 548 
Q 1225 547 , 1225 546 
Q 1225 544 , 1240 543 
Q 1256 542 , 1282 542 
Q 1293 542 , 1302 542 
Q 1312 542 , 1322 543 
L 1322 544 
Q 1309 543 , 1301 543 
Q 1292 543 , 1283 543 
Q 1262 543 , 1251 544 
Q 1241 544 , 1241 546 
Q 1241 547 , 1251 548 
Q 1262 549 , 1283 549 
Q 1292 549 , 1299 549 
Q 1306 548 , 1309 548 
" fill="#F5C000" />
<path d="
M 1225 532 
L 1243 532 
L 1243 538 
Q 1243 539 , 1251 540 
Q 1258 541 , 1275 541 
Q 1292 541 , 1300 540 
Q 1307 539 , 1307 538 
L 1307 532 
L 1325 532 
L 1325 538 
Q 1325 540 , 1312 541 
Q 1300 542 , 1275 542 
Q 1251 542 , 1238 541 
Q 1225 540 , 1225 538 
L 1225 532 
" fill="#D21010" />
<path d="
M 1325 512 
L 1325 515 
Q 1310 513 , 1302 513 
Q 1294 512 , 1284 512 
Q 1263 512 , 1253 514 
Q 1241 516 , 1241 520 
Q 1241 525 , 1253 527 
Q 1263 529 , 1284 529 
Q 1294 529 , 1302 528 
Q 1310 528 , 1325 526 
L 1325 529 
Q 1314 530 , 1304 531 
Q 1294 531 , 1283 531 
Q 1256 531 , 1241 528 
Q 1225 525 , 1225 521 
Q 1225 516 , 1241 513 
Q 1256 510 , 1283 510 
Q 1294 510 , 1304 511 
Q 1315 511 , 1325 512 
" fill="#545FFF" />
<path d="
M 1380 554 
L 1362 554 
L 1396 554 
L 1380 554 
M 1373 554 
L 1387 554 
L 1430 555 
L 1414 555 
L 1402 555 
L 1358 555 
L 1345 555 
L 1330 555 
L 1373 554 
" fill="#339541" />
<path d="
M 1414 554 
L 1414 554 
L 1385 554 
L 1385 553 
L 1430 553 
L 1430 554 
Q 1419 554 , 1408 554 
Q 1399 554 , 1387 554 
Q 1361 554 , 1345 554 
Q 1330 554 , 1330 553 
Q 1330 553 , 1345 553 
Q 1361 553 , 1387 553 
Q 1398 553 , 1407 553 
Q 1417 553 , 1427 553 
L 1427 553 
Q 1414 553 , 1406 553 
Q 1397 553 , 1388 553 
Q 1367 553 , 1356 553 
Q 1346 553 , 1346 553 
Q 1346 554 , 1356 554 
Q 1367 554 , 1388 554 
Q 1397 554 , 1404 554 
Q 1411 554 , 1414 554 
" fill="#F5C000" />
<path d="
M 1330 552 
L 1348 552 
L 1348 553 
Q 1348 553 , 1356 553 
Q 1363 553 , 1380 553 
Q 1397 553 , 1405 553 
Q 1412 553 , 1412 553 
L 1412 552 
L 1430 552 
L 1430 553 
Q 1430 553 , 1417 553 
Q 1405 553 , 1380 553 
Q 1356 553 , 1343 553 
Q 1330 553 , 1330 553 
L 1330 552 
" fill="#D21010" />
<path d="
M 1430 550 
L 1430 550 
Q 1415 550 , 1407 550 
Q 1399 550 , 1389 550 
Q 1368 550 , 1358 550 
Q 1346 550 , 1346 550 
Q 1346 551 , 1358 551 
Q 1368 551 , 1389 551 
Q 1399 551 , 1407 551 
Q 1415 551 , 1430 551 
L 1430 551 
Q 1419 551 , 1409 551 
Q 1399 551 , 1388 551 
Q 1361 551 , 1346 551 
Q 1330 551 , 1330 551 
Q 1330 550 , 1346 550 
Q 1361 550 , 1388 550 
Q 1399 550 , 1409 550 
Q 1420 550 , 1430 550 
" fill="#545FFF" />
<path d="M 65 168 L 65 555 " stroke="black" stroke-width="1.5"/>
<path d="M 55 555 L 65 555 " stroke="black" stroke-width="4"/>
<text text-anchor="end" x="50" y="555" font-size="50" alignment-baseline="middle">0</text>
<path d="M 55 362 L 65 362 " stroke="black" stroke-width="4"/>
<text text-anchor="end" x="50" y="362" font-size="50" alignment-baseline="middle">1</text>
<path d="M 55 168 L 65 168 " stroke="black" stroke-width="4"/>
<text text-anchor="end" x="50" y="168" font-size="50" alignment-baseline="middle">2</text>
<text text-anchor="middle" x="750" y="50" font-size="50" alignment-baseline="baseline"></text>
G<path d="
M 160 582 
L 126 595 
L 160 608 
L 157 611 
L 123 598 
L 123 623 
L 117 623 
L 117 599 
L 83 611 
L 80 608 
L 114 595 
L 80 582 
L 83 579 
L 117 591 
L 117 567 
L 123 567 
L 123 591 
L 157 579 
L 160 582 
" fill="black" />
<path d="
" fill="black" />
<path d="
M 211 567 
L 238 567 
L 238 623 
L 211 623 
L 211 567 
" fill="black" />
<path d="
" fill="black" />
<path d="
M 370 567 
Q 341 574 , 328 581 
Q 315 588 , 315 595 
Q 315 602 , 328 609 
Q 341 616 , 370 623 
L 346 623 
Q 318 616 , 304 609 
Q 290 602 , 290 595 
Q 290 588 , 304 581 
Q 318 574 , 346 567 
L 370 567 
" fill="black" />
<path d="
" fill="black" />
<path d="
M 421 567 
L 448 567 
L 448 623 
L 421 623 
L 421 567 
" fill="black" />
<path d="
" fill="black" />
<path d="
" fill="black" />
<path d="
M 526 567 
L 553 567 
L 553 623 
L 526 623 
L 526 567 
" fill="black" />
<path d="
" fill="black" />
<path d="
" fill="black" />
<path d="
M 622 567 
L 642 567 
L 642 623 
L 622 623 
L 622 567 
" fill="black" />
<path d="
" fill="black" />
<path d="
M 686 571 
L 675 605 
L 686 605 
L 686 571 
M 684 567 
L 688 567 
L 688 605 
L 692 605 
L 692 608 
L 688 608 
L 688 623 
L 686 623 
L 686 608 
L 672 608 
L 672 604 
L 684 567 
" fill="black" />
<path d="
M 790 582 
L 756 595 
L 790 608 
L 787 611 
L 753 598 
L 753 623 
L 747 623 
L 747 599 
L 713 611 
L 710 608 
L 744 595 
L 710 582 
L 713 579 
L 747 591 
L 747 567 
L 753 567 
L 753 591 
L 787 579 
L 790 582 
" fill="black" />
<path d="
" fill="black" />
<path d="
M 841 567 
L 868 567 
L 868 623 
L 841 623 
L 841 567 
" fill="black" />
<path d="
" fill="black" />
<path d="
M 920 567 
L 944 567 
Q 972 574 , 986 581 
Q 1000 588 , 1000 595 
Q 1000 602 , 986 609 
Q 972 616 , 944 623 
L 920 623 
Q 949 616 , 962 609 
Q 975 602 , 975 595 
Q 975 588 , 962 581 
Q 949 574 , 920 567 
" fill="black" />
<path d="
" fill="black" />
<path d="
M 1051 567 
L 1078 567 
L 1078 623 
L 1051 623 
L 1051 567 
" fill="black" />
<path d="
" fill="black" />
<path d="
" fill="black" />
<path d="
M 1156 567 
L 1183 567 
L 1183 623 
L 1156 623 
L 1156 567 
" fill="black" />
<path d="
" fill="black" />
<path d="
" fill="black" />
<path d="
M 1261 567 
L 1288 567 
L 1288 623 
L 1261 623 
L 1261 567 
" fill="black" />
<path d="
" fill="black" />
<path d="
M 1420 582 
L 1386 595 
L 1420 608 
L 1417 611 
L 1383 598 
L 1383 623 
L 1377 623 
L 1377 599 
L 1343 611 
L 1340 608 
L 1374 595 
L 1340 582 
L 1343 579 
L 1377 591 
L 1377 567 
L 1383 567 
L 1383 591 
L 1417 579 
L 1420 582 
" fill="black" />
</svg>
