<svg xmlns="http://www.w3.org/2000/svg"
viewBox="0 0 1330 635">
<path d="
M 120 554 
L 102 555 
L 136 555 
L 120 554 
M 113 554 
L 127 554 
L 170 555 
L 154 555 
L 142 555 
L 98 555 
L 85 555 
L 70 555 
L 113 554 
" fill="#339541" />
<path d="
M 70 552 
L 88 552 
L 88 553 
Q 88 553 , 96 553 
Q 103 553 , 120 553 
Q 137 553 , 145 553 
Q 152 553 , 152 553 
L 152 552 
L 170 552 
L 170 553 
Q 170 553 , 157 553 
Q 145 553 , 120 553 
Q 96 553 , 83 553 
Q 70 553 , 70 553 
L 70 552 
" fill="#D21010" />
<path d="
M 154 551 
L 154 551 
L 125 551 
L 125 550 
L 170 550 
L 170 551 
Q 159 551 , 148 551 
Q 139 551 , 127 551 
Q 101 551 , 85 551 
Q 70 551 , 70 551 
Q 70 550 , 85 550 
Q 101 550 , 127 550 
Q 138 550 , 147 550 
Q 157 550 , 167 550 
L 167 550 
Q 154 550 , 146 550 
Q 137 550 , 128 550 
Q 107 550 , 96 550 
Q 86 550 , 86 551 
Q 86 551 , 96 551 
Q 107 551 , 128 551 
Q 137 551 , 144 551 
Q 151 551 , 154 551 
" fill="#F5C000" />
<path d="
M 170 548 
L 170 548 
Q 155 548 , 147 548 
Q 139 548 , 129 548 
Q 108 548 , 98 548 
Q 86 548 , 86 548 
Q 86 549 , 98 549 
Q 108 549 , 129 549 
Q 139 549 , 147 549 
Q 155 549 , 170 549 
L 170 549 
Q 159 549 , 149 549 
Q 139 549 , 128 549 
Q 101 549 , 86 549 
Q 70 549 , 70 549 
Q 70 548 , 86 548 
Q 101 548 , 128 548 
Q 139 548 , 149 548 
Q 160 548 , 170 548 
" fill="#545FFF" />
<path d="
M 275 550 
L 275 551 
Q 260 551 , 252 551 
Q 244 550 , 234 550 
Q 213 550 , 203 551 
Q 191 551 , 191 552 
Q 191 553 , 203 553 
Q 213 554 , 234 554 
Q 244 554 , 252 554 
Q 260 553 , 275 553 
L 275 554 
Q 264 554 , 254 554 
Q 244 554 , 233 554 
Q 206 554 , 191 554 
Q 175 553 , 175 552 
Q 175 551 , 191 551 
Q 206 550 , 233 550 
Q 244 550 , 254 550 
Q 265 550 , 275 550 
" fill="#545FFF" />
<path d="
M 259 548 
L 259 547 
L 230 547 
L 230 547 
L 275 547 
L 275 549 
Q 264 549 , 253 549 
Q 244 549 , 232 549 
Q 206 549 , 190 549 
Q 175 548 , 175 547 
Q 175 545 , 190 545 
Q 206 544 , 232 544 
Q 243 544 , 252 544 
Q 262 544 , 272 544 
L 272 545 
Q 259 545 , 251 545 
Q 242 545 , 233 545 
Q 212 545 , 201 545 
Q 191 546 , 191 547 
Q 191 548 , 201 548 
Q 212 549 , 233 549 
Q 242 549 , 249 549 
Q 256 549 , 259 548 
" fill="#F5C000" />
<path d="
M 175 534 
L 193 534 
L 193 539 
Q 193 541 , 201 541 
Q 208 542 , 225 542 
Q 242 542 , 250 541 
Q 257 541 , 257 539 
L 257 534 
L 275 534 
L 275 539 
Q 275 541 , 262 542 
Q 250 543 , 225 543 
Q 201 543 , 188 542 
Q 175 541 , 175 539 
L 175 534 
" fill="#D21010" />
<path d="
M 225 524 
L 207 529 
L 241 529 
L 225 524 
M 218 522 
L 232 522 
L 275 534 
L 259 534 
L 247 530 
L 203 530 
L 190 534 
L 175 534 
L 218 522 
" fill="#339541" />
<path d="
M 330 550 
L 312 552 
L 346 552 
L 330 550 
M 323 549 
L 337 549 
L 380 555 
L 364 555 
L 352 553 
L 308 553 
L 295 555 
L 280 555 
L 323 549 
" fill="#339541" />
<path d="
M 280 538 
L 298 538 
L 298 544 
Q 298 546 , 306 546 
Q 313 547 , 330 547 
Q 347 547 , 355 546 
Q 362 546 , 362 544 
L 362 538 
L 380 538 
L 380 544 
Q 380 546 , 367 547 
Q 355 548 , 330 548 
Q 306 548 , 293 547 
Q 280 546 , 280 544 
L 280 538 
" fill="#D21010" />
<path d="
M 364 534 
L 364 528 
L 335 528 
L 335 526 
L 380 526 
L 380 535 
Q 369 536 , 358 537 
Q 349 537 , 337 537 
Q 311 537 , 295 534 
Q 280 531 , 280 526 
Q 280 521 , 295 518 
Q 311 515 , 337 515 
Q 348 515 , 357 515 
Q 367 516 , 377 517 
L 377 520 
Q 364 518 , 356 518 
Q 347 518 , 338 518 
Q 317 518 , 306 520 
Q 296 522 , 296 526 
Q 296 530 , 306 533 
Q 317 535 , 338 535 
Q 347 535 , 354 534 
Q 361 534 , 364 534 
" fill="#F5C000" />
<path d="
M 380 483 
L 380 488 
Q 365 485 , 357 484 
Q 349 483 , 339 483 
Q 318 483 , 308 486 
Q 296 490 , 296 496 
Q 296 503 , 308 507 
Q 318 510 , 339 510 
Q 349 510 , 357 510 
Q 365 509 , 380 505 
L 380 511 
Q 369 513 , 359 513 
Q 349 514 , 338 514 
Q 311 514 , 296 509 
Q 280 505 , 280 497 
Q 280 489 , 296 484 
Q 311 479 , 338 479 
Q 349 479 , 359 480 
Q 370 481 , 380 483 
" fill="#545FFF" />
<path d="
M 435 549 
L 417 552 
L 451 552 
L 435 549 
M 428 548 
L 442 548 
L 485 554 
L 469 554 
L 457 552 
L 413 552 
L 400 554 
L 385 554 
L 428 548 
" fill="#339541" />
<path d="
M 469 545 
L 469 541 
L 440 541 
L 440 540 
L 485 540 
L 485 546 
Q 474 547 , 463 547 
Q 454 547 , 442 547 
Q 416 547 , 400 545 
Q 385 543 , 385 540 
Q 385 537 , 400 535 
Q 416 533 , 442 533 
Q 453 533 , 462 533 
Q 472 534 , 482 534 
L 482 536 
Q 469 535 , 461 535 
Q 452 535 , 443 535 
Q 422 535 , 411 536 
Q 401 537 , 401 540 
Q 401 543 , 411 544 
Q 422 546 , 443 546 
Q 452 546 , 459 545 
Q 466 545 , 469 545 
" fill="#F5C000" />
<path d="
M 385 504 
L 403 504 
L 403 521 
Q 403 525 , 411 527 
Q 418 529 , 435 529 
Q 452 529 , 460 527 
Q 467 525 , 467 521 
L 467 504 
L 485 504 
L 485 521 
Q 485 527 , 472 529 
Q 460 532 , 435 532 
Q 411 532 , 398 529 
Q 385 527 , 385 521 
L 385 504 
" fill="#D21010" />
<path d="
M 485 441 
L 485 451 
Q 470 444 , 462 443 
Q 454 441 , 444 441 
Q 423 441 , 413 448 
Q 401 455 , 401 468 
Q 401 482 , 413 489 
Q 423 496 , 444 496 
Q 454 496 , 462 494 
Q 470 492 , 485 485 
L 485 497 
Q 474 501 , 464 502 
Q 454 504 , 443 504 
Q 416 504 , 401 494 
Q 385 485 , 385 468 
Q 385 452 , 401 443 
Q 416 433 , 443 433 
Q 454 433 , 464 435 
Q 475 436 , 485 441 
" fill="#545FFF" />
<path d="
M 540 547 
L 522 551 
L 556 551 
L 540 547 
M 533 546 
L 547 546 
L 590 554 
L 574 554 
L 562 552 
L 518 552 
L 505 554 
L 490 554 
L 533 546 
" fill="#339541" />
<path d="
M 574 543 
L 574 539 
L 545 539 
L 545 537 
L 590 537 
L 590 544 
Q 579 545 , 568 545 
Q 559 545 , 547 545 
Q 521 545 , 505 543 
Q 490 541 , 490 537 
Q 490 533 , 505 531 
Q 521 529 , 547 529 
Q 558 529 , 567 529 
Q 577 530 , 587 530 
L 587 532 
Q 574 531 , 566 531 
Q 557 531 , 548 531 
Q 527 531 , 516 532 
Q 506 534 , 506 537 
Q 506 540 , 516 542 
Q 527 544 , 548 544 
Q 557 544 , 564 543 
Q 571 543 , 574 543 
" fill="#F5C000" />
<path d="
M 490 504 
L 508 504 
L 508 518 
Q 508 522 , 516 524 
Q 523 525 , 540 525 
Q 557 525 , 565 524 
Q 572 522 , 572 518 
L 572 504 
L 590 504 
L 590 519 
Q 590 523 , 577 526 
Q 565 528 , 540 528 
Q 516 528 , 503 526 
Q 490 523 , 490 519 
L 490 504 
" fill="#D21010" />
<path d="
M 590 424 
L 590 438 
Q 575 429 , 567 427 
Q 559 425 , 549 425 
Q 528 425 , 518 433 
Q 506 442 , 506 459 
Q 506 477 , 518 485 
Q 528 494 , 549 494 
Q 559 494 , 567 492 
Q 575 489 , 590 481 
L 590 495 
Q 579 500 , 569 502 
Q 559 504 , 548 504 
Q 521 504 , 506 492 
Q 490 480 , 490 459 
Q 490 439 , 506 427 
Q 521 415 , 548 415 
Q 559 415 , 569 417 
Q 580 419 , 590 424 
" fill="#545FFF" />
<path d="
M 645 549 
L 627 552 
L 661 552 
L 645 549 
M 638 548 
L 652 548 
L 695 554 
L 679 554 
L 667 552 
L 623 552 
L 610 554 
L 595 554 
L 638 548 
" fill="#339541" />
<path d="
M 595 537 
L 613 537 
L 613 543 
Q 613 545 , 621 546 
Q 628 547 , 645 547 
Q 662 547 , 670 546 
Q 677 545 , 677 543 
L 677 537 
L 695 537 
L 695 544 
Q 695 546 , 682 547 
Q 670 548 , 645 548 
Q 621 548 , 608 547 
Q 595 546 , 595 544 
L 595 537 
" fill="#D21010" />
<path d="
M 679 531 
L 679 522 
L 650 522 
L 650 518 
L 695 518 
L 695 534 
Q 684 535 , 673 536 
Q 664 536 , 652 536 
Q 626 536 , 610 532 
Q 595 527 , 595 519 
Q 595 511 , 610 507 
Q 626 502 , 652 502 
Q 663 502 , 672 503 
Q 682 503 , 692 505 
L 692 509 
Q 679 507 , 671 507 
Q 662 506 , 653 506 
Q 632 506 , 621 509 
Q 611 513 , 611 519 
Q 611 526 , 621 529 
Q 632 532 , 653 532 
Q 662 532 , 669 532 
Q 676 532 , 679 531 
" fill="#F5C000" />
<path d="
M 695 317 
L 695 349 
Q 680 328 , 672 323 
Q 664 318 , 654 318 
Q 633 318 , 623 338 
Q 611 358 , 611 398 
Q 611 438 , 623 459 
Q 633 479 , 654 479 
Q 664 479 , 672 474 
Q 680 469 , 695 448 
L 695 481 
Q 684 492 , 674 497 
Q 664 502 , 653 502 
Q 626 502 , 611 474 
Q 595 446 , 595 398 
Q 595 351 , 611 323 
Q 626 295 , 653 295 
Q 664 295 , 674 300 
Q 685 305 , 695 317 
" fill="#545FFF" />
<path d="
M 750 548 
L 732 551 
L 766 551 
L 750 548 
M 743 546 
L 757 546 
L 800 554 
L 784 554 
L 772 552 
L 728 552 
L 715 554 
L 700 554 
L 743 546 
" fill="#339541" />
<path d="
M 800 537 
L 800 538 
Q 785 537 , 777 537 
Q 769 537 , 759 537 
Q 738 537 , 728 538 
Q 716 539 , 716 540 
Q 716 542 , 728 543 
Q 738 544 , 759 544 
Q 769 544 , 777 544 
Q 785 544 , 800 543 
L 800 544 
Q 789 545 , 779 545 
Q 769 545 , 758 545 
Q 731 545 , 716 544 
Q 700 543 , 700 541 
Q 700 538 , 716 537 
Q 731 536 , 758 536 
Q 769 536 , 779 536 
Q 790 536 , 800 537 
" fill="#545FFF" />
<path d="
M 784 534 
L 784 531 
L 755 531 
L 755 530 
L 800 530 
L 800 535 
Q 789 535 , 778 535 
Q 769 536 , 757 536 
Q 731 536 , 715 534 
Q 700 533 , 700 530 
Q 700 528 , 715 526 
Q 731 525 , 757 525 
Q 768 525 , 777 525 
Q 787 525 , 797 526 
L 797 527 
Q 784 527 , 776 526 
Q 767 526 , 758 526 
Q 737 526 , 726 527 
Q 716 528 , 716 530 
Q 716 532 , 726 533 
Q 737 534 , 758 534 
Q 767 534 , 774 534 
Q 781 534 , 784 534 
" fill="#F5C000" />
<path d="
M 700 495 
L 718 495 
L 718 513 
Q 718 518 , 726 520 
Q 733 522 , 750 522 
Q 767 522 , 775 520 
Q 782 518 , 782 513 
L 782 495 
L 800 495 
L 800 513 
Q 800 519 , 787 522 
Q 775 525 , 750 525 
Q 726 525 , 713 522 
Q 700 519 , 700 513 
L 700 495 
" fill="#D21010" />
<path d="
M 855 552 
L 837 553 
L 871 553 
L 855 552 
M 848 551 
L 862 551 
L 905 555 
L 889 555 
L 877 554 
L 833 554 
L 820 555 
L 805 555 
L 848 551 
" fill="#339541" />
<path d="
M 805 543 
L 823 543 
L 823 548 
Q 823 549 , 831 549 
Q 838 550 , 855 550 
Q 872 550 , 880 549 
Q 887 549 , 887 548 
L 887 543 
L 905 543 
L 905 548 
Q 905 549 , 892 550 
Q 880 551 , 855 551 
Q 831 551 , 818 550 
Q 805 549 , 805 548 
L 805 543 
" fill="#D21010" />
<path d="
M 905 535 
L 905 536 
Q 890 535 , 882 535 
Q 874 535 , 864 535 
Q 843 535 , 833 536 
Q 821 537 , 821 538 
Q 821 540 , 833 541 
Q 843 541 , 864 541 
Q 874 541 , 882 541 
Q 890 541 , 905 540 
L 905 541 
Q 894 542 , 884 542 
Q 874 542 , 863 542 
Q 836 542 , 821 541 
Q 805 540 , 805 538 
Q 805 536 , 821 535 
Q 836 534 , 863 534 
Q 874 534 , 884 534 
Q 895 534 , 905 535 
" fill="#545FFF" />
<path d="
M 889 532 
L 889 528 
L 860 528 
L 860 527 
L 905 527 
L 905 533 
Q 894 533 , 883 534 
Q 874 534 , 862 534 
Q 836 534 , 820 532 
Q 805 530 , 805 527 
Q 805 524 , 820 522 
Q 836 520 , 862 520 
Q 873 520 , 882 520 
Q 892 520 , 902 521 
L 902 523 
Q 889 522 , 881 522 
Q 872 522 , 863 522 
Q 842 522 , 831 523 
Q 821 524 , 821 527 
Q 821 530 , 831 531 
Q 842 532 , 863 532 
Q 872 532 , 879 532 
Q 886 532 , 889 532 
" fill="#F5C000" />
<path d="
M 960 546 
L 942 550 
L 976 550 
L 960 546 
M 953 544 
L 967 544 
L 1010 555 
L 994 555 
L 982 551 
L 938 551 
L 925 555 
L 910 555 
L 953 544 
" fill="#339541" />
<path d="
M 910 528 
L 928 528 
L 928 537 
Q 928 540 , 936 541 
Q 943 542 , 960 542 
Q 977 542 , 985 541 
Q 992 540 , 992 537 
L 992 528 
L 1010 528 
L 1010 537 
Q 1010 540 , 997 542 
Q 985 543 , 960 543 
Q 936 543 , 923 542 
Q 910 540 , 910 537 
L 910 528 
" fill="#D21010" />
<path d="
M 994 525 
L 994 519 
L 965 519 
L 965 517 
L 1010 517 
L 1010 526 
Q 999 527 , 988 527 
Q 979 528 , 967 528 
Q 941 528 , 925 525 
Q 910 522 , 910 517 
Q 910 513 , 925 510 
Q 941 507 , 967 507 
Q 978 507 , 987 507 
Q 997 508 , 1007 509 
L 1007 511 
Q 994 510 , 986 510 
Q 977 509 , 968 509 
Q 947 509 , 936 511 
Q 926 513 , 926 517 
Q 926 521 , 936 523 
Q 947 525 , 968 525 
Q 977 525 , 984 525 
Q 991 525 , 994 525 
" fill="#F5C000" />
<path d="
M 1010 310 
L 1010 344 
Q 995 322 , 987 317 
Q 979 311 , 969 311 
Q 948 311 , 938 333 
Q 926 354 , 926 396 
Q 926 439 , 938 461 
Q 948 483 , 969 483 
Q 979 483 , 987 477 
Q 995 471 , 1010 449 
L 1010 484 
Q 999 496 , 989 501 
Q 979 506 , 968 506 
Q 941 506 , 926 477 
Q 910 447 , 910 397 
Q 910 346 , 926 317 
Q 941 287 , 968 287 
Q 979 287 , 989 292 
Q 1000 298 , 1010 310 
" fill="#545FFF" />
<path d="
M 1099 554 
L 1099 553 
L 1070 553 
L 1070 553 
L 1115 553 
L 1115 555 
Q 1104 555 , 1093 555 
Q 1084 555 , 1072 555 
Q 1046 555 , 1030 554 
Q 1015 554 , 1015 553 
Q 1015 552 , 1030 552 
Q 1046 551 , 1072 551 
Q 1083 551 , 1092 551 
Q 1102 551 , 1112 551 
L 1112 552 
Q 1099 552 , 1091 552 
Q 1082 551 , 1073 551 
Q 1052 551 , 1041 552 
Q 1031 552 , 1031 553 
Q 1031 554 , 1041 554 
Q 1052 554 , 1073 554 
Q 1082 554 , 1089 554 
Q 1096 554 , 1099 554 
" fill="#F5C000" />
<path d="
M 1065 543 
L 1047 546 
L 1081 546 
L 1065 543 
M 1058 541 
L 1072 541 
L 1115 550 
L 1099 550 
L 1087 547 
L 1043 547 
L 1030 550 
L 1015 550 
L 1058 541 
" fill="#339541" />
<path d="
M 1015 528 
L 1033 528 
L 1033 535 
Q 1033 537 , 1041 538 
Q 1048 539 , 1065 539 
Q 1082 539 , 1090 538 
Q 1097 537 , 1097 535 
L 1097 528 
L 1115 528 
L 1115 536 
Q 1115 538 , 1102 539 
Q 1090 540 , 1065 540 
Q 1041 540 , 1028 539 
Q 1015 538 , 1015 536 
L 1015 528 
" fill="#D21010" />
<path d="
M 1115 511 
L 1115 514 
Q 1100 512 , 1092 511 
Q 1084 511 , 1074 511 
Q 1053 511 , 1043 513 
Q 1031 515 , 1031 518 
Q 1031 522 , 1043 523 
Q 1053 525 , 1074 525 
Q 1084 525 , 1092 525 
Q 1100 524 , 1115 522 
L 1115 525 
Q 1104 526 , 1094 527 
Q 1084 527 , 1073 527 
Q 1046 527 , 1031 525 
Q 1015 522 , 1015 518 
Q 1015 514 , 1031 511 
Q 1046 509 , 1073 509 
Q 1084 509 , 1094 509 
Q 1105 510 , 1115 511 
" fill="#545FFF" />
<path d="
M 1170 551 
L 1152 553 
L 1186 553 
L 1170 551 
M 1163 550 
L 1177 550 
L 1220 555 
L 1204 555 
L 1192 553 
L 1148 553 
L 1135 555 
L 1120 555 
L 1163 550 
" fill="#339541" />
<path d="
M 1120 544 
L 1138 544 
L 1138 547 
Q 1138 548 , 1146 549 
Q 1153 549 , 1170 549 
Q 1187 549 , 1195 549 
Q 1202 548 , 1202 547 
L 1202 544 
L 1220 544 
L 1220 547 
Q 1220 549 , 1207 549 
Q 1195 550 , 1170 550 
Q 1146 550 , 1133 549 
Q 1120 549 , 1120 547 
L 1120 544 
" fill="#D21010" />
<path d="
M 1220 535 
L 1220 537 
Q 1205 536 , 1197 535 
Q 1189 535 , 1179 535 
Q 1158 535 , 1148 536 
Q 1136 537 , 1136 539 
Q 1136 541 , 1148 542 
Q 1158 543 , 1179 543 
Q 1189 543 , 1197 542 
Q 1205 542 , 1220 541 
L 1220 543 
Q 1209 543 , 1199 544 
Q 1189 544 , 1178 544 
Q 1151 544 , 1136 542 
Q 1120 541 , 1120 539 
Q 1120 537 , 1136 535 
Q 1151 534 , 1178 534 
Q 1189 534 , 1199 534 
Q 1210 534 , 1220 535 
" fill="#545FFF" />
<path d="
M 1204 532 
L 1204 528 
L 1175 528 
L 1175 526 
L 1220 526 
L 1220 532 
Q 1209 533 , 1198 533 
Q 1189 534 , 1177 534 
Q 1151 534 , 1135 532 
Q 1120 530 , 1120 526 
Q 1120 523 , 1135 521 
Q 1151 519 , 1177 519 
Q 1188 519 , 1197 519 
Q 1207 520 , 1217 520 
L 1217 522 
Q 1204 521 , 1196 521 
Q 1187 521 , 1178 521 
Q 1157 521 , 1146 522 
Q 1136 523 , 1136 526 
Q 1136 529 , 1146 531 
Q 1157 532 , 1178 532 
Q 1187 532 , 1194 532 
Q 1201 532 , 1204 532 
" fill="#F5C000" />
<path d="
M 1275 554 
L 1257 555 
L 1291 555 
L 1275 554 
M 1268 554 
L 1282 554 
L 1325 555 
L 1309 555 
L 1297 555 
L 1253 555 
L 1240 555 
L 1225 555 
L 1268 554 
" fill="#339541" />
<path d="
M 1225 552 
L 1243 552 
L 1243 553 
Q 1243 553 , 1251 553 
Q 1258 553 , 1275 553 
Q 1292 553 , 1300 553 
Q 1307 553 , 1307 553 
L 1307 552 
L 1325 552 
L 1325 553 
Q 1325 553 , 1312 553 
Q 1300 553 , 1275 553 
Q 1251 553 , 1238 553 
Q 1225 553 , 1225 553 
L 1225 552 
" fill="#D21010" />
<path d="
M 1309 551 
L 1309 551 
L 1280 551 
L 1280 550 
L 1325 550 
L 1325 551 
Q 1314 551 , 1303 551 
Q 1294 551 , 1282 551 
Q 1256 551 , 1240 551 
Q 1225 551 , 1225 551 
Q 1225 550 , 1240 550 
Q 1256 550 , 1282 550 
Q 1293 550 , 1302 550 
Q 1312 550 , 1322 550 
L 1322 550 
Q 1309 550 , 1301 550 
Q 1292 550 , 1283 550 
Q 1262 550 , 1251 550 
Q 1241 550 , 1241 551 
Q 1241 551 , 1251 551 
Q 1262 551 , 1283 551 
Q 1292 551 , 1299 551 
Q 1306 551 , 1309 551 
" fill="#F5C000" />
<path d="
M 1325 548 
L 1325 548 
Q 1310 548 , 1302 548 
Q 1294 548 , 1284 548 
Q 1263 548 , 1253 548 
Q 1241 548 , 1241 548 
Q 1241 549 , 1253 549 
Q 1263 549 , 1284 549 
Q 1294 549 , 1302 549 
Q 1310 549 , 1325 549 
L 1325 549 
Q 1314 549 , 1304 549 
Q 1294 549 , 1283 549 
Q 1256 549 , 1241 549 
Q 1225 549 , 1225 549 
Q 1225 548 , 1241 548 
Q 1256 548 , 1283 548 
Q 1294 548 , 1304 548 
Q 1315 548 , 1325 548 
" fill="#545FFF" />
<path d="M 65 55 L 65 555 " stroke="black" stroke-width="1.5"/>
<path d="M 55 555 L 65 555 " stroke="black" stroke-width="4"/>
<text text-anchor="end" x="50" y="555" font-size="50" alignment-baseline="middle">0</text>
<path d="M 55 305 L 65 305 " stroke="black" stroke-width="4"/>
<text text-anchor="end" x="50" y="305" font-size="50" alignment-baseline="middle">1</text>
<path d="M 55 55 L 65 55 " stroke="black" stroke-width="4"/>
<text text-anchor="end" x="50" y="55" font-size="50" alignment-baseline="middle">2</text>
<text text-anchor="middle" x="697" y="50" font-size="50" alignment-baseline="baseline"></text>
G<path d="
M 160 582 
L 126 595 
L 160 608 
L 157 611 
L 123 598 
L 123 623 
L 117 623 
L 117 599 
L 83 611 
L 80 608 
L 114 595 
L 80 582 
L 83 579 
L 117 591 
L 117 567 
L 123 567 
L 123 591 
L 157 579 
L 160 582 
" fill="black" />
<path d="
" fill="black" />
<path d="
M 211 567 
L 238 567 
L 238 623 
L 211 623 
L 211 567 
" fill="black" />
<path d="
" fill="black" />
<path d="
" fill="black" />
<path d="
M 316 567 
L 343 567 
L 343 623 
L 316 623 
L 316 567 
" fill="black" />
<path d="
" fill="black" />
<path d="
" fill="black" />
<path d="
M 421 567 
L 448 567 
L 448 623 
L 421 623 
L 421 567 
" fill="black" />
<path d="
" fill="black" />
<path d="
" fill="black" />
<path d="
M 526 567 
L 553 567 
L 553 623 
L 526 623 
L 526 567 
" fill="black" />
<path d="
" fill="black" />
<path d="
" fill="black" />
<path d="
M 631 567 
L 658 567 
L 658 623 
L 631 623 
L 631 567 
" fill="black" />
<path d="
" fill="black" />
<path d="
" fill="black" />
<path d="
M 736 567 
L 763 567 
L 763 623 
L 736 623 
L 736 567 
" fill="black" />
<path d="
" fill="black" />
<path d="
" fill="black" />
<path d="
M 841 567 
L 868 567 
L 868 623 
L 841 623 
L 841 567 
" fill="black" />
<path d="
" fill="black" />
<path d="
" fill="black" />
<path d="
M 946 567 
L 973 567 
L 973 623 
L 946 623 
L 946 567 
" fill="black" />
<path d="
" fill="black" />
<path d="
" fill="black" />
<path d="
M 1051 567 
L 1078 567 
L 1078 623 
L 1051 623 
L 1051 567 
" fill="black" />
<path d="
" fill="black" />
<path d="
" fill="black" />
<path d="
M 1156 567 
L 1183 567 
L 1183 623 
L 1156 623 
L 1156 567 
" fill="black" />
<path d="
" fill="black" />
<path d="
M 1315 582 
L 1281 595 
L 1315 608 
L 1312 611 
L 1278 598 
L 1278 623 
L 1272 623 
L 1272 599 
L 1238 611 
L 1235 608 
L 1269 595 
L 1235 582 
L 1238 579 
L 1272 591 
L 1272 567 
L 1278 567 
L 1278 591 
L 1312 579 
L 1315 582 
" fill="black" />
</svg>
