<svg xmlns="http://www.w3.org/2000/svg"
viewBox="0 0 700 635">
<path d="
M 120 553 
L 102 554 
L 136 554 
L 120 553 
M 113 553 
L 127 553 
L 170 554 
L 154 554 
L 142 554 
L 98 554 
L 85 554 
L 70 554 
L 113 553 
" fill="#339541" />
<path d="
M 154 552 
L 154 552 
L 125 552 
L 125 552 
L 170 552 
L 170 552 
Q 159 552 , 148 552 
Q 139 552 , 127 552 
Q 101 552 , 85 552 
Q 70 552 , 70 552 
Q 70 551 , 85 551 
Q 101 551 , 127 551 
Q 138 551 , 147 551 
Q 157 551 , 167 551 
L 167 551 
Q 154 551 , 146 551 
Q 137 551 , 128 551 
Q 107 551 , 96 551 
Q 86 551 , 86 552 
Q 86 552 , 96 552 
Q 107 552 , 128 552 
Q 137 552 , 144 552 
Q 151 552 , 154 552 
" fill="#F5C000" />
<path d="
M 70 549 
L 88 549 
L 88 550 
Q 88 550 , 96 550 
Q 103 550 , 120 550 
Q 137 550 , 145 550 
Q 152 550 , 152 550 
L 152 549 
L 170 549 
L 170 550 
Q 170 550 , 157 550 
Q 145 550 , 120 550 
Q 96 550 , 83 550 
Q 70 550 , 70 550 
L 70 549 
" fill="#D21010" />
<path d="
M 170 547 
L 170 547 
Q 155 547 , 147 547 
Q 139 547 , 129 547 
Q 108 547 , 98 547 
Q 86 548 , 86 548 
Q 86 548 , 98 548 
Q 108 549 , 129 549 
Q 139 549 , 147 548 
Q 155 548 , 170 548 
L 170 549 
Q 159 549 , 149 549 
Q 139 549 , 128 549 
Q 101 549 , 86 548 
Q 70 548 , 70 548 
Q 70 547 , 86 547 
Q 101 547 , 128 547 
Q 139 547 , 149 547 
Q 160 547 , 170 547 
" fill="#545FFF" />
<path d="
M 225 552 
L 207 553 
L 241 553 
L 225 552 
M 218 552 
L 232 552 
L 275 554 
L 259 554 
L 247 554 
L 203 554 
L 190 554 
L 175 554 
L 218 552 
" fill="#339541" />
<path d="
M 275 536 
L 275 538 
Q 260 537 , 252 536 
Q 244 536 , 234 536 
Q 213 536 , 203 538 
Q 191 539 , 191 542 
Q 191 546 , 203 548 
Q 213 549 , 234 549 
Q 244 549 , 252 549 
Q 260 548 , 275 547 
L 275 549 
Q 264 550 , 254 551 
Q 244 551 , 233 551 
Q 206 551 , 191 549 
Q 175 546 , 175 543 
Q 175 539 , 191 536 
Q 206 534 , 233 534 
Q 244 534 , 254 534 
Q 265 535 , 275 536 
" fill="#545FFF" />
<path d="
M 175 507 
L 193 507 
L 193 523 
Q 193 527 , 201 529 
Q 208 531 , 225 531 
Q 242 531 , 250 529 
Q 257 527 , 257 523 
L 257 507 
L 275 507 
L 275 523 
Q 275 528 , 262 531 
Q 250 534 , 225 534 
Q 201 534 , 188 531 
Q 175 528 , 175 523 
L 175 507 
" fill="#D21010" />
<path d="
M 259 502 
L 259 494 
L 230 494 
L 230 491 
L 275 491 
L 275 504 
Q 264 505 , 253 506 
Q 244 506 , 232 506 
Q 206 506 , 190 502 
Q 175 498 , 175 492 
Q 175 485 , 190 481 
Q 206 477 , 232 477 
Q 243 477 , 252 478 
Q 262 478 , 272 479 
L 272 483 
Q 259 481 , 251 481 
Q 242 480 , 233 480 
Q 212 480 , 201 483 
Q 191 486 , 191 492 
Q 191 497 , 201 500 
Q 212 503 , 233 503 
Q 242 503 , 249 503 
Q 256 502 , 259 502 
" fill="#F5C000" />
<path d="
M 330 550 
L 312 552 
L 346 552 
L 330 550 
M 323 549 
L 337 549 
L 380 555 
L 364 555 
L 352 553 
L 308 553 
L 295 555 
L 280 555 
L 323 549 
" fill="#339541" />
<path d="
M 280 536 
L 298 536 
L 298 543 
Q 298 545 , 306 546 
Q 313 547 , 330 547 
Q 347 547 , 355 546 
Q 362 545 , 362 543 
L 362 536 
L 380 536 
L 380 543 
Q 380 546 , 367 547 
Q 355 548 , 330 548 
Q 306 548 , 293 547 
Q 280 546 , 280 543 
L 280 536 
" fill="#D21010" />
<path d="
M 364 534 
L 364 530 
L 335 530 
L 335 528 
L 380 528 
L 380 535 
Q 369 535 , 358 536 
Q 349 536 , 337 536 
Q 311 536 , 295 534 
Q 280 532 , 280 528 
Q 280 525 , 295 523 
Q 311 521 , 337 521 
Q 348 521 , 357 521 
Q 367 522 , 377 522 
L 377 524 
Q 364 523 , 356 523 
Q 347 523 , 338 523 
Q 317 523 , 306 524 
Q 296 526 , 296 528 
Q 296 531 , 306 533 
Q 317 534 , 338 534 
Q 347 534 , 354 534 
Q 361 534 , 364 534 
" fill="#F5C000" />
<path d="
M 380 232 
L 380 282 
Q 365 250 , 357 242 
Q 349 234 , 339 234 
Q 318 234 , 308 265 
Q 296 297 , 296 359 
Q 296 422 , 308 454 
Q 318 485 , 339 485 
Q 349 485 , 357 477 
Q 365 468 , 380 437 
L 380 488 
Q 369 505 , 359 513 
Q 349 520 , 338 520 
Q 311 520 , 296 477 
Q 280 433 , 280 359 
Q 280 285 , 296 242 
Q 311 198 , 338 198 
Q 349 198 , 359 206 
Q 370 214 , 380 232 
" fill="#545FFF" />
<path d="
M 469 554 
L 469 553 
L 440 553 
L 440 552 
L 485 552 
L 485 554 
Q 474 554 , 463 554 
Q 454 554 , 442 554 
Q 416 554 , 400 554 
Q 385 553 , 385 552 
Q 385 551 , 400 551 
Q 416 550 , 442 550 
Q 453 550 , 462 550 
Q 472 550 , 482 550 
L 482 551 
Q 469 551 , 461 551 
Q 452 551 , 443 551 
Q 422 551 , 411 551 
Q 401 551 , 401 552 
Q 401 553 , 411 553 
Q 422 554 , 443 554 
Q 452 554 , 459 554 
Q 466 554 , 469 554 
" fill="#F5C000" />
<path d="
M 435 542 
L 417 546 
L 451 546 
L 435 542 
M 428 540 
L 442 540 
L 485 550 
L 469 550 
L 457 547 
L 413 547 
L 400 550 
L 385 550 
L 428 540 
" fill="#339541" />
<path d="
M 385 489 
L 403 489 
L 403 519 
Q 403 527 , 411 531 
Q 418 534 , 435 534 
Q 452 534 , 460 531 
Q 467 527 , 467 519 
L 467 489 
L 485 489 
L 485 520 
Q 485 530 , 472 535 
Q 460 540 , 435 540 
Q 411 540 , 398 535 
Q 385 530 , 385 520 
L 385 489 
" fill="#D21010" />
<path d="
M 485 418 
L 485 430 
Q 470 422 , 462 420 
Q 454 418 , 444 418 
Q 423 418 , 413 426 
Q 401 434 , 401 449 
Q 401 464 , 413 472 
Q 423 480 , 444 480 
Q 454 480 , 462 478 
Q 470 476 , 485 468 
L 485 481 
Q 474 485 , 464 487 
Q 454 489 , 443 489 
Q 416 489 , 401 478 
Q 385 467 , 385 449 
Q 385 431 , 401 420 
Q 416 409 , 443 409 
Q 454 409 , 464 411 
Q 475 413 , 485 418 
" fill="#545FFF" />
<path d="
M 540 552 
L 522 553 
L 556 553 
L 540 552 
M 533 552 
L 547 552 
L 590 554 
L 574 554 
L 562 554 
L 518 554 
L 505 554 
L 490 554 
L 533 552 
" fill="#339541" />
<path d="
M 490 532 
L 508 532 
L 508 544 
Q 508 547 , 516 548 
Q 523 549 , 540 549 
Q 557 549 , 565 548 
Q 572 547 , 572 544 
L 572 532 
L 590 532 
L 590 544 
Q 590 548 , 577 550 
Q 565 552 , 540 552 
Q 516 552 , 503 550 
Q 490 548 , 490 544 
L 490 532 
" fill="#D21010" />
<path d="
M 590 513 
L 590 516 
Q 575 514 , 567 514 
Q 559 513 , 549 513 
Q 528 513 , 518 515 
Q 506 517 , 506 521 
Q 506 525 , 518 528 
Q 528 530 , 549 530 
Q 559 530 , 567 529 
Q 575 528 , 590 526 
L 590 530 
Q 579 531 , 569 531 
Q 559 532 , 548 532 
Q 521 532 , 506 529 
Q 490 526 , 490 521 
Q 490 517 , 506 514 
Q 521 511 , 548 511 
Q 559 511 , 569 512 
Q 580 512 , 590 513 
" fill="#545FFF" />
<path d="
M 574 507 
L 574 500 
L 545 500 
L 545 497 
L 590 497 
L 590 509 
Q 579 510 , 568 510 
Q 559 511 , 547 511 
Q 521 511 , 505 507 
Q 490 504 , 490 497 
Q 490 491 , 505 488 
Q 521 484 , 547 484 
Q 558 484 , 567 484 
Q 577 485 , 587 486 
L 587 490 
Q 574 488 , 566 488 
Q 557 487 , 548 487 
Q 527 487 , 516 490 
Q 506 492 , 506 497 
Q 506 503 , 516 505 
Q 527 508 , 548 508 
Q 557 508 , 564 508 
Q 571 507 , 574 507 
" fill="#F5C000" />
<path d="
M 645 553 
L 627 554 
L 661 554 
L 645 553 
M 638 553 
L 652 553 
L 695 554 
L 679 554 
L 667 554 
L 623 554 
L 610 554 
L 595 554 
L 638 553 
" fill="#339541" />
<path d="
M 679 552 
L 679 552 
L 650 552 
L 650 552 
L 695 552 
L 695 552 
Q 684 552 , 673 552 
Q 664 552 , 652 552 
Q 626 552 , 610 552 
Q 595 552 , 595 552 
Q 595 551 , 610 551 
Q 626 551 , 652 551 
Q 663 551 , 672 551 
Q 682 551 , 692 551 
L 692 551 
Q 679 551 , 671 551 
Q 662 551 , 653 551 
Q 632 551 , 621 551 
Q 611 551 , 611 552 
Q 611 552 , 621 552 
Q 632 552 , 653 552 
Q 662 552 , 669 552 
Q 676 552 , 679 552 
" fill="#F5C000" />
<path d="
M 595 549 
L 613 549 
L 613 550 
Q 613 550 , 621 550 
Q 628 550 , 645 550 
Q 662 550 , 670 550 
Q 677 550 , 677 550 
L 677 549 
L 695 549 
L 695 550 
Q 695 550 , 682 550 
Q 670 550 , 645 550 
Q 621 550 , 608 550 
Q 595 550 , 595 550 
L 595 549 
" fill="#D21010" />
<path d="
M 695 547 
L 695 547 
Q 680 547 , 672 547 
Q 664 547 , 654 547 
Q 633 547 , 623 547 
Q 611 548 , 611 548 
Q 611 548 , 623 548 
Q 633 549 , 654 549 
Q 664 549 , 672 548 
Q 680 548 , 695 548 
L 695 549 
Q 684 549 , 674 549 
Q 664 549 , 653 549 
Q 626 549 , 611 548 
Q 595 548 , 595 548 
Q 595 547 , 611 547 
Q 626 547 , 653 547 
Q 664 547 , 674 547 
Q 685 547 , 695 547 
" fill="#545FFF" />
<path d="M 65 55 L 65 555 " stroke="black" stroke-width="1.5"/>
<path d="M 55 555 L 65 555 " stroke="black" stroke-width="4"/>
<text text-anchor="end" x="50" y="555" font-size="50" alignment-baseline="middle">0</text>
<path d="M 55 305 L 65 305 " stroke="black" stroke-width="4"/>
<text text-anchor="end" x="50" y="305" font-size="50" alignment-baseline="middle">1</text>
<path d="M 55 55 L 65 55 " stroke="black" stroke-width="4"/>
<text text-anchor="end" x="50" y="55" font-size="50" alignment-baseline="middle">2</text>
<text text-anchor="middle" x="382" y="50" font-size="50" alignment-baseline="baseline"></text>
G<path d="
M 160 582 
L 126 595 
L 160 608 
L 157 611 
L 123 598 
L 123 623 
L 117 623 
L 117 599 
L 83 611 
L 80 608 
L 114 595 
L 80 582 
L 83 579 
L 117 591 
L 117 567 
L 123 567 
L 123 591 
L 157 579 
L 160 582 
" fill="black" />
<path d="
" fill="black" />
<path d="
M 211 567 
L 238 567 
L 238 623 
L 211 623 
L 211 567 
" fill="black" />
<path d="
" fill="black" />
<path d="
" fill="black" />
<path d="
M 316 567 
L 343 567 
L 343 623 
L 316 623 
L 316 567 
" fill="black" />
<path d="
" fill="black" />
<path d="
" fill="black" />
<path d="
M 421 567 
L 448 567 
L 448 623 
L 421 623 
L 421 567 
" fill="black" />
<path d="
" fill="black" />
<path d="
" fill="black" />
<path d="
M 526 567 
L 553 567 
L 553 623 
L 526 623 
L 526 567 
" fill="black" />
<path d="
" fill="black" />
<path d="
M 685 582 
L 651 595 
L 685 608 
L 682 611 
L 648 598 
L 648 623 
L 642 623 
L 642 599 
L 608 611 
L 605 608 
L 639 595 
L 605 582 
L 608 579 
L 642 591 
L 642 567 
L 648 567 
L 648 591 
L 682 579 
L 685 582 
" fill="black" />
</svg>
