<svg xmlns="http://www.w3.org/2000/svg"
viewBox="0 0 1330 635">
<path d="
M 120 554 
L 102 554 
L 136 554 
L 120 554 
M 113 554 
L 127 554 
L 170 554 
L 154 554 
L 142 554 
L 98 554 
L 85 554 
L 70 554 
L 113 554 
" fill="#339541" />
<path d="
M 154 553 
L 154 553 
L 125 553 
L 125 553 
L 170 553 
L 170 553 
Q 159 553 , 148 553 
Q 139 553 , 127 553 
Q 101 553 , 85 553 
Q 70 553 , 70 553 
Q 70 553 , 85 553 
Q 101 553 , 127 553 
Q 138 553 , 147 553 
Q 157 553 , 167 553 
L 167 553 
Q 154 553 , 146 553 
Q 137 553 , 128 553 
Q 107 553 , 96 553 
Q 86 553 , 86 553 
Q 86 553 , 96 553 
Q 107 553 , 128 553 
Q 137 553 , 144 553 
Q 151 553 , 154 553 
" fill="#F5C000" />
<path d="
M 170 552 
L 170 552 
Q 155 552 , 147 552 
Q 139 552 , 129 552 
Q 108 552 , 98 552 
Q 86 552 , 86 552 
Q 86 552 , 98 552 
Q 108 552 , 129 552 
Q 139 552 , 147 552 
Q 155 552 , 170 552 
L 170 552 
Q 159 552 , 149 552 
Q 139 552 , 128 552 
Q 101 552 , 86 552 
Q 70 552 , 70 552 
Q 70 552 , 86 552 
Q 101 552 , 128 552 
Q 139 552 , 149 552 
Q 160 552 , 170 552 
" fill="#545FFF" />
<path d="
M 70 551 
L 88 551 
L 88 551 
Q 88 551 , 96 551 
Q 103 551 , 120 551 
Q 137 551 , 145 551 
Q 152 551 , 152 551 
L 152 551 
L 170 551 
L 170 551 
Q 170 551 , 157 551 
Q 145 551 , 120 551 
Q 96 551 , 83 551 
Q 70 551 , 70 551 
L 70 551 
" fill="#D21010" />
<path d="
M 225 551 
L 207 552 
L 241 552 
L 225 551 
M 218 550 
L 232 550 
L 275 554 
L 259 554 
L 247 553 
L 203 553 
L 190 554 
L 175 554 
L 218 550 
" fill="#339541" />
<path d="
M 175 541 
L 193 541 
L 193 546 
Q 193 547 , 201 548 
Q 208 548 , 225 548 
Q 242 548 , 250 548 
Q 257 547 , 257 546 
L 257 541 
L 275 541 
L 275 546 
Q 275 547 , 262 548 
Q 250 549 , 225 549 
Q 201 549 , 188 548 
Q 175 547 , 175 546 
L 175 541 
" fill="#D21010" />
<path d="
M 275 528 
L 275 530 
Q 260 528 , 252 528 
Q 244 528 , 234 528 
Q 213 528 , 203 529 
Q 191 531 , 191 533 
Q 191 536 , 203 538 
Q 213 539 , 234 539 
Q 244 539 , 252 539 
Q 260 538 , 275 537 
L 275 539 
Q 264 540 , 254 540 
Q 244 541 , 233 541 
Q 206 541 , 191 539 
Q 175 537 , 175 533 
Q 175 530 , 191 528 
Q 206 526 , 233 526 
Q 244 526 , 254 526 
Q 265 527 , 275 528 
" fill="#545FFF" />
<path d="
M 259 522 
L 259 515 
L 230 515 
L 230 513 
L 275 513 
L 275 523 
Q 264 525 , 253 525 
Q 244 525 , 232 525 
Q 206 525 , 190 522 
Q 175 519 , 175 513 
Q 175 507 , 190 504 
Q 206 501 , 232 501 
Q 243 501 , 252 501 
Q 262 502 , 272 503 
L 272 506 
Q 259 505 , 251 504 
Q 242 504 , 233 504 
Q 212 504 , 201 506 
Q 191 508 , 191 513 
Q 191 518 , 201 520 
Q 212 523 , 233 523 
Q 242 523 , 249 522 
Q 256 522 , 259 522 
" fill="#F5C000" />
<path d="
M 330 553 
L 312 554 
L 346 554 
L 330 553 
M 323 553 
L 337 553 
L 380 555 
L 364 555 
L 352 554 
L 308 554 
L 295 555 
L 280 555 
L 323 553 
" fill="#339541" />
<path d="
M 280 550 
L 298 550 
L 298 552 
Q 298 552 , 306 552 
Q 313 553 , 330 553 
Q 347 553 , 355 552 
Q 362 552 , 362 552 
L 362 550 
L 380 550 
L 380 552 
Q 380 552 , 367 553 
Q 355 553 , 330 553 
Q 306 553 , 293 553 
Q 280 552 , 280 552 
L 280 550 
" fill="#D21010" />
<path d="
M 364 549 
L 364 548 
L 335 548 
L 335 547 
L 380 547 
L 380 549 
Q 369 549 , 358 549 
Q 349 549 , 337 549 
Q 311 549 , 295 549 
Q 280 548 , 280 547 
Q 280 546 , 295 546 
Q 311 545 , 337 545 
Q 348 545 , 357 545 
Q 367 545 , 377 545 
L 377 546 
Q 364 546 , 356 546 
Q 347 546 , 338 546 
Q 317 546 , 306 546 
Q 296 546 , 296 547 
Q 296 548 , 306 548 
Q 317 549 , 338 549 
Q 347 549 , 354 549 
Q 361 549 , 364 549 
" fill="#F5C000" />
<path d="
M 380 540 
L 380 541 
Q 365 541 , 357 541 
Q 349 540 , 339 540 
Q 318 540 , 308 541 
Q 296 541 , 296 542 
Q 296 543 , 308 544 
Q 318 544 , 339 544 
Q 349 544 , 357 544 
Q 365 544 , 380 543 
L 380 544 
Q 369 544 , 359 544 
Q 349 544 , 338 544 
Q 311 544 , 296 544 
Q 280 543 , 280 542 
Q 280 541 , 296 541 
Q 311 540 , 338 540 
Q 349 540 , 359 540 
Q 370 540 , 380 540 
" fill="#545FFF" />
<path d="
M 469 554 
L 469 552 
L 440 552 
L 440 552 
L 485 552 
L 485 554 
Q 474 554 , 463 554 
Q 454 554 , 442 554 
Q 416 554 , 400 554 
Q 385 553 , 385 552 
Q 385 551 , 400 551 
Q 416 550 , 442 550 
Q 453 550 , 462 550 
Q 472 550 , 482 550 
L 482 551 
Q 469 551 , 461 551 
Q 452 550 , 443 550 
Q 422 550 , 411 551 
Q 401 551 , 401 552 
Q 401 553 , 411 553 
Q 422 554 , 443 554 
Q 452 554 , 459 554 
Q 466 554 , 469 554 
" fill="#F5C000" />
<path d="
M 435 546 
L 417 548 
L 451 548 
L 435 546 
M 428 545 
L 442 545 
L 485 550 
L 469 550 
L 457 548 
L 413 548 
L 400 550 
L 385 550 
L 428 545 
" fill="#339541" />
<path d="
M 485 541 
L 485 541 
Q 470 541 , 462 541 
Q 454 541 , 444 541 
Q 423 541 , 413 541 
Q 401 542 , 401 542 
Q 401 543 , 413 544 
Q 423 544 , 444 544 
Q 454 544 , 462 544 
Q 470 544 , 485 544 
L 485 544 
Q 474 545 , 464 545 
Q 454 545 , 443 545 
Q 416 545 , 401 544 
Q 385 544 , 385 542 
Q 385 541 , 401 541 
Q 416 540 , 443 540 
Q 454 540 , 464 540 
Q 475 540 , 485 541 
" fill="#545FFF" />
<path d="
M 385 529 
L 403 529 
L 403 535 
Q 403 537 , 411 538 
Q 418 539 , 435 539 
Q 452 539 , 460 538 
Q 467 537 , 467 535 
L 467 529 
L 485 529 
L 485 536 
Q 485 538 , 472 539 
Q 460 540 , 435 540 
Q 411 540 , 398 539 
Q 385 538 , 385 536 
L 385 529 
" fill="#D21010" />
<path d="
M 490 551 
L 499 551 
L 499 553 
Q 499 554 , 503 554 
Q 506 555 , 515 555 
Q 524 555 , 527 554 
Q 531 554 , 531 553 
L 531 551 
L 540 551 
L 540 553 
Q 540 554 , 534 555 
Q 527 555 , 515 555 
Q 503 555 , 496 555 
Q 490 554 , 490 553 
L 490 551 
" fill="#D21010" />
<path d="
M 565 552 
L 556 553 
L 573 553 
L 565 552 
M 561 551 
L 569 551 
L 590 555 
L 582 555 
L 576 554 
L 554 554 
L 547 555 
L 540 555 
L 561 551 
" fill="lightgray" />
<path d="
M 532 550 
L 532 549 
L 518 549 
L 518 548 
L 540 548 
L 540 550 
Q 535 551 , 529 551 
Q 524 551 , 518 551 
Q 505 551 , 498 550 
Q 490 549 , 490 548 
Q 490 547 , 498 547 
Q 505 546 , 518 546 
Q 524 546 , 529 546 
Q 534 546 , 539 546 
L 539 547 
Q 532 547 , 528 547 
Q 524 547 , 519 547 
Q 509 547 , 503 547 
Q 498 547 , 498 548 
Q 498 549 , 503 550 
Q 509 550 , 519 550 
Q 524 550 , 527 550 
Q 531 550 , 532 550 
" fill="#F5C000" />
<path d="
M 540 546 
L 549 546 
L 549 549 
Q 549 550 , 553 550 
Q 556 550 , 565 550 
Q 574 550 , 577 550 
Q 581 550 , 581 549 
L 581 546 
L 590 546 
L 590 549 
Q 590 550 , 584 550 
Q 577 551 , 565 551 
Q 553 551 , 546 550 
Q 540 550 , 540 549 
L 540 546 
" fill="lightgray" />
<path d="
M 540 541 
L 540 541 
Q 533 541 , 529 541 
Q 524 541 , 519 541 
Q 509 541 , 504 541 
Q 498 542 , 498 543 
Q 498 544 , 504 544 
Q 509 545 , 519 545 
Q 524 545 , 529 545 
Q 533 544 , 540 544 
L 540 545 
Q 535 545 , 529 545 
Q 525 545 , 519 545 
Q 505 545 , 498 545 
Q 490 544 , 490 543 
Q 490 541 , 498 541 
Q 505 540 , 519 540 
Q 525 540 , 530 540 
Q 535 540 , 540 541 
" fill="#545FFF" />
<path d="
M 582 545 
L 582 543 
L 568 543 
L 568 543 
L 590 543 
L 590 545 
Q 585 545 , 579 545 
Q 574 545 , 568 545 
Q 555 545 , 548 545 
Q 540 544 , 540 543 
Q 540 541 , 548 541 
Q 555 540 , 568 540 
Q 574 540 , 579 540 
Q 584 540 , 589 540 
L 589 541 
Q 582 541 , 578 541 
Q 574 541 , 569 541 
Q 559 541 , 553 541 
Q 548 542 , 548 543 
Q 548 544 , 553 544 
Q 559 545 , 569 545 
Q 574 545 , 577 545 
Q 581 545 , 582 545 
" fill="lightgray" />
<path d="
M 490 529 
L 499 529 
L 499 535 
Q 499 537 , 503 537 
Q 506 538 , 515 538 
Q 524 538 , 527 537 
Q 531 537 , 531 535 
L 531 529 
L 540 529 
L 540 535 
Q 540 537 , 534 538 
Q 527 539 , 515 539 
Q 503 539 , 496 538 
Q 490 537 , 490 535 
L 490 529 
" fill="#D21010" />
<path d="
M 582 538 
L 582 535 
L 568 535 
L 568 534 
L 590 534 
L 590 539 
Q 585 539 , 579 539 
Q 574 539 , 568 539 
Q 555 539 , 548 538 
Q 540 537 , 540 534 
Q 540 532 , 548 530 
Q 555 529 , 568 529 
Q 574 529 , 579 529 
Q 584 529 , 589 530 
L 589 531 
Q 582 531 , 578 530 
Q 574 530 , 569 530 
Q 559 530 , 553 531 
Q 548 532 , 548 534 
Q 548 536 , 553 537 
Q 559 538 , 569 538 
Q 574 538 , 577 538 
Q 581 538 , 582 538 
" fill="lightgray" />
<path d="
M 515 514 
L 506 522 
L 523 522 
L 515 514 
M 511 511 
L 519 511 
L 540 529 
L 532 529 
L 526 524 
L 504 524 
L 497 529 
L 490 529 
L 511 511 
" fill="#339541" />
<path d="
M 540 511 
L 549 511 
L 549 522 
Q 549 524 , 553 526 
Q 556 527 , 565 527 
Q 574 527 , 577 526 
Q 581 524 , 581 522 
L 581 511 
L 590 511 
L 590 522 
Q 590 525 , 584 527 
Q 577 529 , 565 529 
Q 553 529 , 546 527 
Q 540 525 , 540 522 
L 540 511 
" fill="lightgray" />
<path d="
M 532 507 
L 532 500 
L 518 500 
L 518 497 
L 540 497 
L 540 509 
Q 535 510 , 529 510 
Q 524 511 , 518 511 
Q 505 511 , 498 507 
Q 490 504 , 490 497 
Q 490 491 , 498 488 
Q 505 484 , 518 484 
Q 524 484 , 529 484 
Q 534 485 , 539 486 
L 539 490 
Q 532 488 , 528 488 
Q 524 487 , 519 487 
Q 509 487 , 503 490 
Q 498 492 , 498 497 
Q 498 503 , 503 505 
Q 509 508 , 519 508 
Q 524 508 , 527 508 
Q 531 507 , 532 507 
" fill="#F5C000" />
<path d="
M 590 487 
L 590 491 
Q 583 488 , 579 488 
Q 574 487 , 569 487 
Q 559 487 , 554 490 
Q 548 492 , 548 497 
Q 548 503 , 554 505 
Q 559 508 , 569 508 
Q 574 508 , 579 507 
Q 583 507 , 590 504 
L 590 508 
Q 585 510 , 579 510 
Q 575 511 , 569 511 
Q 555 511 , 548 507 
Q 540 504 , 540 497 
Q 540 491 , 548 488 
Q 555 484 , 569 484 
Q 575 484 , 580 485 
Q 585 485 , 590 487 
" fill="lightgray" />
<path d="
M 645 552 
L 627 553 
L 661 553 
L 645 552 
M 638 552 
L 652 552 
L 695 554 
L 679 554 
L 667 553 
L 623 553 
L 610 554 
L 595 554 
L 638 552 
" fill="#339541" />
<path d="
M 595 540 
L 613 540 
L 613 547 
Q 613 548 , 621 549 
Q 628 550 , 645 550 
Q 662 550 , 670 549 
Q 677 548 , 677 547 
L 677 540 
L 695 540 
L 695 547 
Q 695 549 , 682 550 
Q 670 551 , 645 551 
Q 621 551 , 608 550 
Q 595 549 , 595 547 
L 595 540 
" fill="#D21010" />
<path d="
M 679 538 
L 679 534 
L 650 534 
L 650 532 
L 695 532 
L 695 539 
Q 684 539 , 673 539 
Q 664 540 , 652 540 
Q 626 540 , 610 538 
Q 595 536 , 595 533 
Q 595 530 , 610 528 
Q 626 526 , 652 526 
Q 663 526 , 672 526 
Q 682 526 , 692 527 
L 692 529 
Q 679 528 , 671 528 
Q 662 528 , 653 528 
Q 632 528 , 621 529 
Q 611 530 , 611 533 
Q 611 535 , 621 537 
Q 632 538 , 653 538 
Q 662 538 , 669 538 
Q 676 538 , 679 538 
" fill="#F5C000" />
<path d="
M 695 513 
L 695 515 
Q 680 513 , 672 513 
Q 664 513 , 654 513 
Q 633 513 , 623 514 
Q 611 515 , 611 518 
Q 611 521 , 623 522 
Q 633 524 , 654 524 
Q 664 524 , 672 523 
Q 680 523 , 695 522 
L 695 524 
Q 684 525 , 674 525 
Q 664 525 , 653 525 
Q 626 525 , 611 523 
Q 595 521 , 595 518 
Q 595 515 , 611 513 
Q 626 511 , 653 511 
Q 664 511 , 674 511 
Q 685 512 , 695 513 
" fill="#545FFF" />
<path d="
M 784 554 
L 784 553 
L 755 553 
L 755 553 
L 800 553 
L 800 554 
Q 789 554 , 778 554 
Q 769 554 , 757 554 
Q 731 554 , 715 554 
Q 700 554 , 700 553 
Q 700 552 , 715 551 
Q 731 551 , 757 551 
Q 768 551 , 777 551 
Q 787 551 , 797 551 
L 797 552 
Q 784 552 , 776 551 
Q 767 551 , 758 551 
Q 737 551 , 726 552 
Q 716 552 , 716 553 
Q 716 553 , 726 554 
Q 737 554 , 758 554 
Q 767 554 , 774 554 
Q 781 554 , 784 554 
" fill="#F5C000" />
<path d="
M 750 543 
L 732 547 
L 766 547 
L 750 543 
M 743 541 
L 757 541 
L 800 551 
L 784 551 
L 772 548 
L 728 548 
L 715 551 
L 700 551 
L 743 541 
" fill="#339541" />
<path d="
M 700 529 
L 718 529 
L 718 536 
Q 718 538 , 726 538 
Q 733 539 , 750 539 
Q 767 539 , 775 538 
Q 782 538 , 782 536 
L 782 529 
L 800 529 
L 800 536 
Q 800 538 , 787 539 
Q 775 540 , 750 540 
Q 726 540 , 713 539 
Q 700 538 , 700 536 
L 700 529 
" fill="#D21010" />
<path d="
M 800 509 
L 800 513 
Q 785 510 , 777 510 
Q 769 509 , 759 509 
Q 738 509 , 728 511 
Q 716 514 , 716 518 
Q 716 522 , 728 524 
Q 738 526 , 759 526 
Q 769 526 , 777 526 
Q 785 525 , 800 523 
L 800 526 
Q 789 528 , 779 528 
Q 769 529 , 758 529 
Q 731 529 , 716 526 
Q 700 523 , 700 518 
Q 700 513 , 716 510 
Q 731 507 , 758 507 
Q 769 507 , 779 508 
Q 790 508 , 800 509 
" fill="#545FFF" />
<path d="
M 855 553 
L 837 554 
L 871 554 
L 855 553 
M 848 553 
L 862 553 
L 905 554 
L 889 554 
L 877 554 
L 833 554 
L 820 554 
L 805 554 
L 848 553 
" fill="#339541" />
<path d="
M 905 551 
L 905 551 
Q 890 551 , 882 551 
Q 874 551 , 864 551 
Q 843 551 , 833 551 
Q 821 551 , 821 551 
Q 821 552 , 833 552 
Q 843 552 , 864 552 
Q 874 552 , 882 552 
Q 890 552 , 905 552 
L 905 552 
Q 894 552 , 884 552 
Q 874 552 , 863 552 
Q 836 552 , 821 552 
Q 805 552 , 805 552 
Q 805 551 , 821 551 
Q 836 551 , 863 551 
Q 874 551 , 884 551 
Q 895 551 , 905 551 
" fill="#545FFF" />
<path d="
M 805 549 
L 823 549 
L 823 550 
Q 823 550 , 831 550 
Q 838 550 , 855 550 
Q 872 550 , 880 550 
Q 887 550 , 887 550 
L 887 549 
L 905 549 
L 905 550 
Q 905 550 , 892 550 
Q 880 551 , 855 551 
Q 831 551 , 818 550 
Q 805 550 , 805 550 
L 805 549 
" fill="#D21010" />
<path d="
M 889 548 
L 889 548 
L 860 548 
L 860 548 
L 905 548 
L 905 549 
Q 894 549 , 883 549 
Q 874 549 , 862 549 
Q 836 549 , 820 548 
Q 805 548 , 805 548 
Q 805 547 , 820 547 
Q 836 547 , 862 547 
Q 873 547 , 882 547 
Q 892 547 , 902 547 
L 902 547 
Q 889 547 , 881 547 
Q 872 547 , 863 547 
Q 842 547 , 831 547 
Q 821 548 , 821 548 
Q 821 548 , 831 548 
Q 842 549 , 863 549 
Q 872 549 , 879 549 
Q 886 549 , 889 548 
" fill="#F5C000" />
<path d="
M 960 550 
L 942 552 
L 976 552 
L 960 550 
M 953 549 
L 967 549 
L 1010 555 
L 994 555 
L 982 553 
L 938 553 
L 925 555 
L 910 555 
L 953 549 
" fill="#339541" />
<path d="
M 994 547 
L 994 546 
L 965 546 
L 965 545 
L 1010 545 
L 1010 548 
Q 999 548 , 988 548 
Q 979 548 , 967 548 
Q 941 548 , 925 547 
Q 910 546 , 910 545 
Q 910 544 , 925 543 
Q 941 542 , 967 542 
Q 978 542 , 987 542 
Q 997 542 , 1007 542 
L 1007 543 
Q 994 543 , 986 543 
Q 977 543 , 968 543 
Q 947 543 , 936 543 
Q 926 544 , 926 545 
Q 926 546 , 936 547 
Q 947 547 , 968 547 
Q 977 547 , 984 547 
Q 991 547 , 994 547 
" fill="#F5C000" />
<path d="
M 1010 533 
L 1010 534 
Q 995 534 , 987 533 
Q 979 533 , 969 533 
Q 948 533 , 938 534 
Q 926 535 , 926 536 
Q 926 538 , 938 539 
Q 948 540 , 969 540 
Q 979 540 , 987 540 
Q 995 540 , 1010 539 
L 1010 540 
Q 999 541 , 989 541 
Q 979 541 , 968 541 
Q 941 541 , 926 540 
Q 910 539 , 910 537 
Q 910 535 , 926 533 
Q 941 532 , 968 532 
Q 979 532 , 989 532 
Q 1000 532 , 1010 533 
" fill="#545FFF" />
<path d="
M 910 511 
L 928 511 
L 928 523 
Q 928 527 , 936 528 
Q 943 530 , 960 530 
Q 977 530 , 985 528 
Q 992 527 , 992 523 
L 992 511 
L 1010 511 
L 1010 524 
Q 1010 528 , 997 530 
Q 985 532 , 960 532 
Q 936 532 , 923 530 
Q 910 528 , 910 524 
L 910 511 
" fill="#D21010" />
<path d="
M 1015 552 
L 1033 552 
L 1033 554 
Q 1033 554 , 1041 554 
Q 1048 554 , 1065 554 
Q 1082 554 , 1090 554 
Q 1097 554 , 1097 554 
L 1097 552 
L 1115 552 
L 1115 554 
Q 1115 554 , 1102 554 
Q 1090 555 , 1065 555 
Q 1041 555 , 1028 554 
Q 1015 554 , 1015 554 
L 1015 552 
" fill="#D21010" />
<path d="
M 1115 544 
L 1115 545 
Q 1100 544 , 1092 544 
Q 1084 544 , 1074 544 
Q 1053 544 , 1043 545 
Q 1031 546 , 1031 547 
Q 1031 549 , 1043 550 
Q 1053 551 , 1074 551 
Q 1084 551 , 1092 551 
Q 1100 551 , 1115 550 
L 1115 551 
Q 1104 552 , 1094 552 
Q 1084 552 , 1073 552 
Q 1046 552 , 1031 551 
Q 1015 550 , 1015 548 
Q 1015 545 , 1031 544 
Q 1046 543 , 1073 543 
Q 1084 543 , 1094 543 
Q 1105 543 , 1115 544 
" fill="#545FFF" />
<path d="
M 1065 532 
L 1047 537 
L 1081 537 
L 1065 532 
M 1058 530 
L 1072 530 
L 1115 542 
L 1099 542 
L 1087 539 
L 1043 539 
L 1030 542 
L 1015 542 
L 1058 530 
" fill="#339541" />
<path d="
M 1099 527 
L 1099 523 
L 1070 523 
L 1070 521 
L 1115 521 
L 1115 528 
Q 1104 529 , 1093 529 
Q 1084 530 , 1072 530 
Q 1046 530 , 1030 528 
Q 1015 525 , 1015 521 
Q 1015 517 , 1030 515 
Q 1046 513 , 1072 513 
Q 1083 513 , 1092 513 
Q 1102 514 , 1112 514 
L 1112 517 
Q 1099 516 , 1091 515 
Q 1082 515 , 1073 515 
Q 1052 515 , 1041 517 
Q 1031 518 , 1031 521 
Q 1031 525 , 1041 526 
Q 1052 528 , 1073 528 
Q 1082 528 , 1089 528 
Q 1096 528 , 1099 527 
" fill="#F5C000" />
<path d="
M 1120 551 
L 1129 551 
L 1129 553 
Q 1129 554 , 1133 554 
Q 1136 555 , 1145 555 
Q 1154 555 , 1157 554 
Q 1161 554 , 1161 553 
L 1161 551 
L 1170 551 
L 1170 553 
Q 1170 554 , 1164 555 
Q 1157 555 , 1145 555 
Q 1133 555 , 1126 555 
Q 1120 554 , 1120 553 
L 1120 551 
" fill="lightgray" />
<path d="
M 1195 552 
L 1186 553 
L 1203 553 
L 1195 552 
M 1191 551 
L 1199 551 
L 1220 555 
L 1212 555 
L 1206 554 
L 1184 554 
L 1177 555 
L 1170 555 
L 1191 551 
" fill="#339541" />
<path d="
M 1162 550 
L 1162 549 
L 1148 549 
L 1148 548 
L 1170 548 
L 1170 550 
Q 1165 551 , 1159 551 
Q 1154 551 , 1148 551 
Q 1135 551 , 1128 550 
Q 1120 549 , 1120 548 
Q 1120 547 , 1128 547 
Q 1135 546 , 1148 546 
Q 1154 546 , 1159 546 
Q 1164 546 , 1169 546 
L 1169 547 
Q 1162 547 , 1158 547 
Q 1154 547 , 1149 547 
Q 1139 547 , 1133 547 
Q 1128 547 , 1128 548 
Q 1128 549 , 1133 550 
Q 1139 550 , 1149 550 
Q 1154 550 , 1157 550 
Q 1161 550 , 1162 550 
" fill="lightgray" />
<path d="
M 1170 546 
L 1179 546 
L 1179 549 
Q 1179 550 , 1183 550 
Q 1186 550 , 1195 550 
Q 1204 550 , 1207 550 
Q 1211 550 , 1211 549 
L 1211 546 
L 1220 546 
L 1220 549 
Q 1220 550 , 1214 550 
Q 1207 551 , 1195 551 
Q 1183 551 , 1176 550 
Q 1170 550 , 1170 549 
L 1170 546 
" fill="#D21010" />
<path d="
M 1170 541 
L 1170 541 
Q 1163 541 , 1159 541 
Q 1154 541 , 1149 541 
Q 1139 541 , 1134 541 
Q 1128 542 , 1128 543 
Q 1128 544 , 1134 544 
Q 1139 545 , 1149 545 
Q 1154 545 , 1159 545 
Q 1163 544 , 1170 544 
L 1170 545 
Q 1165 545 , 1159 545 
Q 1155 545 , 1149 545 
Q 1135 545 , 1128 545 
Q 1120 544 , 1120 543 
Q 1120 541 , 1128 541 
Q 1135 540 , 1149 540 
Q 1155 540 , 1160 540 
Q 1165 540 , 1170 541 
" fill="lightgray" />
<path d="
M 1212 545 
L 1212 543 
L 1198 543 
L 1198 543 
L 1220 543 
L 1220 545 
Q 1215 545 , 1209 545 
Q 1204 545 , 1198 545 
Q 1185 545 , 1178 545 
Q 1170 544 , 1170 543 
Q 1170 541 , 1178 541 
Q 1185 540 , 1198 540 
Q 1204 540 , 1209 540 
Q 1214 540 , 1219 540 
L 1219 541 
Q 1212 541 , 1208 541 
Q 1204 541 , 1199 541 
Q 1189 541 , 1183 541 
Q 1178 542 , 1178 543 
Q 1178 544 , 1183 544 
Q 1189 545 , 1199 545 
Q 1204 545 , 1207 545 
Q 1211 545 , 1212 545 
" fill="#F5C000" />
<path d="
M 1120 529 
L 1129 529 
L 1129 535 
Q 1129 537 , 1133 537 
Q 1136 538 , 1145 538 
Q 1154 538 , 1157 537 
Q 1161 537 , 1161 535 
L 1161 529 
L 1170 529 
L 1170 535 
Q 1170 537 , 1164 538 
Q 1157 539 , 1145 539 
Q 1133 539 , 1126 538 
Q 1120 537 , 1120 535 
L 1120 529 
" fill="lightgray" />
<path d="
M 1212 538 
L 1212 535 
L 1198 535 
L 1198 534 
L 1220 534 
L 1220 539 
Q 1215 539 , 1209 539 
Q 1204 539 , 1198 539 
Q 1185 539 , 1178 538 
Q 1170 537 , 1170 534 
Q 1170 532 , 1178 530 
Q 1185 529 , 1198 529 
Q 1204 529 , 1209 529 
Q 1214 529 , 1219 530 
L 1219 531 
Q 1212 531 , 1208 530 
Q 1204 530 , 1199 530 
Q 1189 530 , 1183 531 
Q 1178 532 , 1178 534 
Q 1178 536 , 1183 537 
Q 1189 538 , 1199 538 
Q 1204 538 , 1207 538 
Q 1211 538 , 1212 538 
" fill="#F5C000" />
<path d="
M 1145 514 
L 1136 522 
L 1153 522 
L 1145 514 
M 1141 511 
L 1149 511 
L 1170 529 
L 1162 529 
L 1156 524 
L 1134 524 
L 1127 529 
L 1120 529 
L 1141 511 
" fill="lightgray" />
<path d="
M 1170 511 
L 1179 511 
L 1179 522 
Q 1179 524 , 1183 526 
Q 1186 527 , 1195 527 
Q 1204 527 , 1207 526 
Q 1211 524 , 1211 522 
L 1211 511 
L 1220 511 
L 1220 522 
Q 1220 525 , 1214 527 
Q 1207 529 , 1195 529 
Q 1183 529 , 1176 527 
Q 1170 525 , 1170 522 
L 1170 511 
" fill="#D21010" />
<path d="
M 1162 507 
L 1162 500 
L 1148 500 
L 1148 497 
L 1170 497 
L 1170 509 
Q 1165 510 , 1159 510 
Q 1154 511 , 1148 511 
Q 1135 511 , 1128 507 
Q 1120 504 , 1120 497 
Q 1120 491 , 1128 488 
Q 1135 484 , 1148 484 
Q 1154 484 , 1159 484 
Q 1164 485 , 1169 486 
L 1169 490 
Q 1162 488 , 1158 488 
Q 1154 487 , 1149 487 
Q 1139 487 , 1133 490 
Q 1128 492 , 1128 497 
Q 1128 503 , 1133 505 
Q 1139 508 , 1149 508 
Q 1154 508 , 1157 508 
Q 1161 507 , 1162 507 
" fill="lightgray" />
<path d="
M 1220 487 
L 1220 491 
Q 1213 488 , 1209 488 
Q 1204 487 , 1199 487 
Q 1189 487 , 1184 490 
Q 1178 492 , 1178 497 
Q 1178 503 , 1184 505 
Q 1189 508 , 1199 508 
Q 1204 508 , 1209 507 
Q 1213 507 , 1220 504 
L 1220 508 
Q 1215 510 , 1209 510 
Q 1205 511 , 1199 511 
Q 1185 511 , 1178 507 
Q 1170 504 , 1170 497 
Q 1170 491 , 1178 488 
Q 1185 484 , 1199 484 
Q 1205 484 , 1210 485 
Q 1215 485 , 1220 487 
" fill="#545FFF" />
<path d="
M 1275 554 
L 1257 554 
L 1291 554 
L 1275 554 
M 1268 554 
L 1282 554 
L 1325 554 
L 1309 554 
L 1297 554 
L 1253 554 
L 1240 554 
L 1225 554 
L 1268 554 
" fill="#339541" />
<path d="
M 1309 553 
L 1309 553 
L 1280 553 
L 1280 553 
L 1325 553 
L 1325 553 
Q 1314 553 , 1303 553 
Q 1294 553 , 1282 553 
Q 1256 553 , 1240 553 
Q 1225 553 , 1225 553 
Q 1225 553 , 1240 553 
Q 1256 553 , 1282 553 
Q 1293 553 , 1302 553 
Q 1312 553 , 1322 553 
L 1322 553 
Q 1309 553 , 1301 553 
Q 1292 553 , 1283 553 
Q 1262 553 , 1251 553 
Q 1241 553 , 1241 553 
Q 1241 553 , 1251 553 
Q 1262 553 , 1283 553 
Q 1292 553 , 1299 553 
Q 1306 553 , 1309 553 
" fill="#F5C000" />
<path d="
M 1325 552 
L 1325 552 
Q 1310 552 , 1302 552 
Q 1294 552 , 1284 552 
Q 1263 552 , 1253 552 
Q 1241 552 , 1241 552 
Q 1241 552 , 1253 552 
Q 1263 552 , 1284 552 
Q 1294 552 , 1302 552 
Q 1310 552 , 1325 552 
L 1325 552 
Q 1314 552 , 1304 552 
Q 1294 552 , 1283 552 
Q 1256 552 , 1241 552 
Q 1225 552 , 1225 552 
Q 1225 552 , 1241 552 
Q 1256 552 , 1283 552 
Q 1294 552 , 1304 552 
Q 1315 552 , 1325 552 
" fill="#545FFF" />
<path d="
M 1225 551 
L 1243 551 
L 1243 551 
Q 1243 551 , 1251 551 
Q 1258 551 , 1275 551 
Q 1292 551 , 1300 551 
Q 1307 551 , 1307 551 
L 1307 551 
L 1325 551 
L 1325 551 
Q 1325 551 , 1312 551 
Q 1300 551 , 1275 551 
Q 1251 551 , 1238 551 
Q 1225 551 , 1225 551 
L 1225 551 
" fill="#D21010" />
<path d="M 65 168 L 65 555 " stroke="black" stroke-width="1.5"/>
<path d="M 55 555 L 65 555 " stroke="black" stroke-width="4"/>
<text text-anchor="end" x="50" y="555" font-size="50" alignment-baseline="middle">0</text>
<path d="M 55 362 L 65 362 " stroke="black" stroke-width="4"/>
<text text-anchor="end" x="50" y="362" font-size="50" alignment-baseline="middle">1</text>
<path d="M 55 168 L 65 168 " stroke="black" stroke-width="4"/>
<text text-anchor="end" x="50" y="168" font-size="50" alignment-baseline="middle">2</text>
<text text-anchor="middle" x="697" y="50" font-size="50" alignment-baseline="baseline"></text>
G<path d="
M 160 582 
L 126 595 
L 160 608 
L 157 611 
L 123 598 
L 123 623 
L 117 623 
L 117 599 
L 83 611 
L 80 608 
L 114 595 
L 80 582 
L 83 579 
L 117 591 
L 117 567 
L 123 567 
L 123 591 
L 157 579 
L 160 582 
" fill="black" />
<path d="
" fill="black" />
<path d="
M 211 567 
L 238 567 
L 238 623 
L 211 623 
L 211 567 
" fill="black" />
<path d="
" fill="black" />
<path d="
" fill="black" />
<path d="
M 316 567 
L 343 567 
L 343 623 
L 316 623 
L 316 567 
" fill="black" />
<path d="
" fill="black" />
<path d="
" fill="black" />
<path d="
M 421 567 
L 448 567 
L 448 623 
L 421 623 
L 421 567 
" fill="black" />
<path d="
" fill="black" />
<path d="
M 580 567 
Q 551 574 , 538 581 
Q 525 588 , 525 595 
Q 525 602 , 538 609 
Q 551 616 , 580 623 
L 556 623 
Q 528 616 , 514 609 
Q 500 602 , 500 595 
Q 500 588 , 514 581 
Q 528 574 , 556 567 
L 580 567 
" fill="black" />
<path d="
" fill="black" />
<path d="
M 631 567 
L 658 567 
L 658 623 
L 631 623 
L 631 567 
" fill="black" />
<path d="
" fill="black" />
<path d="
" fill="black" />
<path d="
M 736 567 
L 763 567 
L 763 623 
L 736 623 
L 736 567 
" fill="black" />
<path d="
" fill="black" />
<path d="
" fill="black" />
<path d="
M 841 567 
L 868 567 
L 868 623 
L 841 623 
L 841 567 
" fill="black" />
<path d="
" fill="black" />
<path d="
" fill="black" />
<path d="
M 946 567 
L 973 567 
L 973 623 
L 946 623 
L 946 567 
" fill="black" />
<path d="
" fill="black" />
<path d="
" fill="black" />
<path d="
M 1051 567 
L 1078 567 
L 1078 623 
L 1051 623 
L 1051 567 
" fill="black" />
<path d="
" fill="black" />
<path d="
M 1130 567 
L 1154 567 
Q 1182 574 , 1196 581 
Q 1210 588 , 1210 595 
Q 1210 602 , 1196 609 
Q 1182 616 , 1154 623 
L 1130 623 
Q 1159 616 , 1172 609 
Q 1185 602 , 1185 595 
Q 1185 588 , 1172 581 
Q 1159 574 , 1130 567 
" fill="black" />
<path d="
M 1315 582 
L 1281 595 
L 1315 608 
L 1312 611 
L 1278 598 
L 1278 623 
L 1272 623 
L 1272 599 
L 1238 611 
L 1235 608 
L 1269 595 
L 1235 582 
L 1238 579 
L 1272 591 
L 1272 567 
L 1278 567 
L 1278 591 
L 1312 579 
L 1315 582 
" fill="black" />
</svg>
