<svg xmlns="http://www.w3.org/2000/svg"
viewBox="0 0 1225 615">
<path d="
M 115 552 
L 125 552 
L 111 554 
L 129 554 
L 115 552 
M 134 554 
L 102 554 
L 93 555 
L 70 555 
L 106 552 
L 134 552 
L 170 555 
L 143 555 
L 134 554 
" fill="#339541" stroke="black" stroke-width="1"/>
<path d="
M 157 550 
Q 145 551 , 121 551 
Q 97 551 , 83 550 
Q 70 550 , 70 550 
L 70 545 
L 102 545 
L 102 549 
Q 102 550 , 106 550 
Q 111 550 , 121 550 
Q 132 550 , 136 550 
Q 141 550 , 141 549 
L 141 545 
L 170 545 
L 170 550 
Q 170 550 , 157 550 
" fill="#D21010" stroke="black" stroke-width="1"/>
<path d="
M 70 539 
Q 70 537 , 86 535 
Q 102 534 , 133 534 
Q 149 534 , 168 535 
L 168 536 
Q 146 536 , 133 536 
Q 102 536 , 102 539 
Q 102 542 , 110 542 
Q 118 543 , 133 543 
Q 146 543 , 170 542 
L 170 544 
Q 151 545 , 133 545 
Q 102 545 , 86 543 
Q 70 542 , 70 539 
" fill="#545FFF" stroke="black" stroke-width="1"/>
<path d="
M 141 532 
L 141 528 
L 108 528 
L 108 527 
L 170 527 
L 170 533 
Q 148 534 , 128 534 
Q 99 534 , 84 532 
Q 70 531 , 70 528 
Q 70 525 , 84 523 
Q 99 522 , 130 522 
Q 143 522 , 163 522 
L 163 524 
Q 143 524 , 130 524 
Q 114 524 , 105 525 
Q 97 526 , 97 528 
Q 97 532 , 128 532 
Q 137 532 , 141 532 
" fill="#F5C000" stroke="black" stroke-width="1"/>
<path d="
M 218 554 
Q 212 555 , 200 555 
Q 188 555 , 181 554 
Q 175 554 , 175 554 
L 175 551 
L 191 551 
L 191 554 
Q 191 554 , 193 554 
Q 196 554 , 201 554 
Q 206 554 , 208 554 
Q 210 554 , 210 554 
L 210 551 
L 225 551 
L 225 554 
Q 225 554 , 218 554 
" fill="#D21010" stroke="black" stroke-width="1"/>
<path d="
M 261 554 
L 261 553 
L 244 553 
L 244 552 
L 275 552 
L 275 555 
Q 264 555 , 254 555 
Q 239 555 , 232 554 
Q 225 554 , 225 553 
Q 225 552 , 232 551 
Q 239 551 , 255 551 
Q 262 551 , 272 551 
L 272 552 
Q 262 552 , 255 552 
Q 247 552 , 242 552 
Q 238 552 , 238 553 
Q 238 554 , 254 554 
Q 258 554 , 261 554 
" fill="white" stroke="black" stroke-width="1"/>
<path d="
M 198 547 
L 202 547 
L 195 548 
L 205 548 
L 198 547 
M 207 549 
L 191 549 
L 186 550 
L 175 550 
L 193 546 
L 207 546 
L 225 550 
L 211 550 
L 207 549 
" fill="#339541" stroke="black" stroke-width="1"/>
<path d="
M 268 550 
Q 262 550 , 250 550 
Q 238 550 , 231 550 
Q 225 550 , 225 549 
L 225 546 
L 241 546 
L 241 549 
Q 241 549 , 243 549 
Q 246 549 , 251 549 
Q 256 549 , 258 549 
Q 260 549 , 260 549 
L 260 546 
L 275 546 
L 275 549 
Q 275 550 , 268 550 
" fill="white" stroke="black" stroke-width="1"/>
<path d="
M 218 545 
Q 212 546 , 200 546 
Q 188 546 , 181 545 
Q 175 545 , 175 544 
L 175 538 
L 191 538 
L 191 543 
Q 191 544 , 193 544 
Q 196 545 , 201 545 
Q 206 545 , 208 544 
Q 210 544 , 210 543 
L 210 538 
L 225 538 
L 225 544 
Q 225 545 , 218 545 
" fill="#D21010" stroke="black" stroke-width="1"/>
<path d="
M 248 539 
L 252 539 
L 245 543 
L 255 543 
L 248 539 
M 257 544 
L 241 544 
L 236 546 
L 225 546 
L 243 538 
L 257 538 
L 275 546 
L 261 546 
L 257 544 
" fill="white" stroke="black" stroke-width="1"/>
<path d="
M 211 535 
L 211 531 
L 194 531 
L 194 529 
L 225 529 
L 225 537 
Q 214 537 , 204 537 
Q 189 537 , 182 535 
Q 175 534 , 175 531 
Q 175 527 , 182 525 
Q 189 524 , 205 524 
Q 212 524 , 222 525 
L 222 527 
Q 212 526 , 205 526 
Q 197 526 , 192 527 
Q 188 528 , 188 531 
Q 188 535 , 204 535 
Q 208 535 , 211 535 
" fill="#F5C000" stroke="black" stroke-width="1"/>
<path d="
M 268 536 
Q 262 537 , 250 537 
Q 238 537 , 231 536 
Q 225 535 , 225 534 
L 225 524 
L 241 524 
L 241 533 
Q 241 534 , 243 534 
Q 246 535 , 251 535 
Q 256 535 , 258 534 
Q 260 534 , 260 533 
L 260 524 
L 275 524 
L 275 534 
Q 275 535 , 268 536 
" fill="white" stroke="black" stroke-width="1"/>
<path d="
M 175 510 
Q 175 503 , 183 499 
Q 191 496 , 207 496 
Q 215 496 , 224 497 
L 224 502 
Q 213 500 , 207 500 
Q 191 500 , 191 510 
Q 191 515 , 195 517 
Q 199 519 , 207 519 
Q 213 519 , 225 517 
L 225 522 
Q 215 523 , 207 523 
Q 191 523 , 183 520 
Q 175 517 , 175 510 
" fill="#545FFF" stroke="black" stroke-width="1"/>
<path d="
M 261 519 
L 261 511 
L 244 511 
L 244 507 
L 275 507 
L 275 522 
Q 264 523 , 254 523 
Q 239 523 , 232 520 
Q 225 517 , 225 510 
Q 225 503 , 232 499 
Q 239 496 , 255 496 
Q 262 496 , 272 497 
L 272 502 
Q 262 500 , 255 500 
Q 247 500 , 242 502 
Q 238 504 , 238 510 
Q 238 519 , 254 519 
Q 258 519 , 261 519 
" fill="white" stroke="black" stroke-width="1"/>
<path d="
M 211 488 
L 211 474 
L 194 474 
L 194 466 
L 225 466 
L 225 493 
Q 214 496 , 204 496 
Q 189 496 , 182 490 
Q 175 484 , 175 472 
Q 175 460 , 182 454 
Q 189 448 , 205 448 
Q 212 448 , 222 450 
L 222 458 
Q 212 455 , 205 455 
Q 197 455 , 192 459 
Q 188 463 , 188 472 
Q 188 489 , 204 489 
Q 208 489 , 211 488 
" fill="#F5C000" stroke="black" stroke-width="1"/>
<path d="
M 225 472 
Q 225 460 , 233 454 
Q 241 448 , 257 448 
Q 265 448 , 274 450 
L 274 458 
Q 263 455 , 257 455 
Q 241 455 , 241 472 
Q 241 481 , 245 485 
Q 249 489 , 257 489 
Q 263 489 , 275 485 
L 275 493 
Q 265 496 , 257 496 
Q 241 496 , 233 490 
Q 225 485 , 225 472 
" fill="white" stroke="black" stroke-width="1"/>
<path d="
M 351 554 
L 351 552 
L 318 552 
L 318 552 
L 380 552 
L 380 554 
Q 358 554 , 338 554 
Q 309 554 , 294 553 
Q 280 553 , 280 552 
Q 280 551 , 294 550 
Q 309 550 , 340 550 
Q 353 550 , 373 550 
L 373 551 
Q 353 551 , 340 551 
Q 324 551 , 315 551 
Q 307 551 , 307 552 
Q 307 554 , 338 554 
Q 347 554 , 351 554 
" fill="#F5C000" stroke="black" stroke-width="1"/>
<path d="
M 280 546 
Q 280 545 , 296 544 
Q 312 543 , 343 543 
Q 359 543 , 378 543 
L 378 544 
Q 356 544 , 343 544 
Q 312 544 , 312 546 
Q 312 547 , 320 547 
Q 328 548 , 343 548 
Q 356 548 , 380 548 
L 380 549 
Q 361 549 , 343 549 
Q 312 549 , 296 548 
Q 280 548 , 280 546 
" fill="#545FFF" stroke="black" stroke-width="1"/>
<path d="
M 325 536 
L 335 536 
L 321 540 
L 339 540 
L 325 536 
M 344 541 
L 312 541 
L 303 543 
L 280 543 
L 316 535 
L 344 535 
L 380 543 
L 353 543 
L 344 541 
" fill="#339541" stroke="black" stroke-width="1"/>
<path d="
M 367 534 
Q 355 535 , 331 535 
Q 307 535 , 293 534 
Q 280 533 , 280 530 
L 280 519 
L 312 519 
L 312 530 
Q 312 531 , 316 531 
Q 321 532 , 331 532 
Q 342 532 , 346 531 
Q 351 531 , 351 530 
L 351 519 
L 380 519 
L 380 530 
Q 380 533 , 367 534 
" fill="#D21010" stroke="black" stroke-width="1"/>
<path d="
M 430 551 
L 440 551 
L 426 553 
L 444 553 
L 430 551 
M 449 554 
L 417 554 
L 408 555 
L 385 555 
L 421 550 
L 449 550 
L 485 555 
L 458 555 
L 449 554 
" fill="#339541" stroke="black" stroke-width="1"/>
<path d="
M 472 549 
Q 460 550 , 436 550 
Q 412 550 , 398 549 
Q 385 549 , 385 548 
L 385 542 
L 417 542 
L 417 547 
Q 417 548 , 421 548 
Q 426 549 , 436 549 
Q 447 549 , 451 548 
Q 456 548 , 456 547 
L 456 542 
L 485 542 
L 485 548 
Q 485 549 , 472 549 
" fill="#D21010" stroke="black" stroke-width="1"/>
<path d="
M 385 525 
Q 385 517 , 401 513 
Q 417 509 , 448 509 
Q 464 509 , 483 511 
L 483 516 
Q 461 514 , 448 514 
Q 417 514 , 417 525 
Q 417 532 , 425 534 
Q 433 537 , 448 537 
Q 461 537 , 485 534 
L 485 540 
Q 466 542 , 448 542 
Q 417 542 , 401 538 
Q 385 534 , 385 525 
" fill="#545FFF" stroke="black" stroke-width="1"/>
<path d="
M 456 495 
L 456 471 
L 423 471 
L 423 459 
L 485 459 
L 485 504 
Q 463 509 , 443 509 
Q 414 509 , 399 499 
Q 385 489 , 385 468 
Q 385 448 , 399 438 
Q 414 428 , 445 428 
Q 458 428 , 478 431 
L 478 445 
Q 458 440 , 445 440 
Q 429 440 , 420 446 
Q 412 453 , 412 468 
Q 412 496 , 443 496 
Q 452 496 , 456 495 
" fill="#F5C000" stroke="black" stroke-width="1"/>
<path d="
M 535 551 
L 545 551 
L 531 552 
L 549 552 
L 535 551 
M 554 553 
L 522 553 
L 513 554 
L 490 554 
L 526 550 
L 554 550 
L 590 554 
L 563 554 
L 554 553 
" fill="#339541" stroke="black" stroke-width="1"/>
<path d="
M 490 545 
Q 490 542 , 506 541 
Q 522 540 , 553 540 
Q 569 540 , 588 540 
L 588 542 
Q 566 541 , 553 541 
Q 522 541 , 522 545 
Q 522 547 , 530 547 
Q 538 548 , 553 548 
Q 566 548 , 590 547 
L 590 549 
Q 571 549 , 553 549 
Q 522 549 , 506 548 
Q 490 547 , 490 545 
" fill="#545FFF" stroke="black" stroke-width="1"/>
<path d="
M 561 537 
L 561 534 
L 528 534 
L 528 532 
L 590 532 
L 590 538 
Q 568 539 , 548 539 
Q 519 539 , 504 537 
Q 490 536 , 490 533 
Q 490 530 , 504 528 
Q 519 527 , 550 527 
Q 563 527 , 583 527 
L 583 530 
Q 563 529 , 550 529 
Q 534 529 , 525 530 
Q 517 531 , 517 533 
Q 517 537 , 548 537 
Q 557 537 , 561 537 
" fill="#F5C000" stroke="black" stroke-width="1"/>
<path d="
M 577 525 
Q 565 527 , 541 527 
Q 517 527 , 503 525 
Q 490 523 , 490 520 
L 490 501 
L 522 501 
L 522 519 
Q 522 521 , 526 522 
Q 531 523 , 541 523 
Q 552 523 , 556 522 
Q 561 521 , 561 519 
L 561 501 
L 590 501 
L 590 520 
Q 590 523 , 577 525 
" fill="#D21010" stroke="black" stroke-width="1"/>
<path d="
M 700 552 
Q 700 551 , 716 550 
Q 732 550 , 763 550 
Q 779 550 , 798 550 
L 798 551 
Q 776 551 , 763 551 
Q 732 551 , 732 552 
Q 732 553 , 740 553 
Q 748 554 , 763 554 
Q 776 554 , 800 554 
L 800 554 
Q 781 555 , 763 555 
Q 732 555 , 716 554 
Q 700 553 , 700 552 
" fill="#545FFF" stroke="black" stroke-width="1"/>
<path d="
M 787 548 
Q 775 549 , 751 549 
Q 727 549 , 713 548 
Q 700 548 , 700 547 
L 700 543 
L 732 543 
L 732 547 
Q 732 548 , 736 548 
Q 741 548 , 751 548 
Q 762 548 , 766 548 
Q 771 548 , 771 547 
L 771 543 
L 800 543 
L 800 547 
Q 800 548 , 787 548 
" fill="#D21010" stroke="black" stroke-width="1"/>
<path d="
M 745 530 
L 755 530 
L 741 537 
L 759 537 
L 745 530 
M 764 539 
L 732 539 
L 723 543 
L 700 543 
L 736 528 
L 764 528 
L 800 543 
L 773 543 
L 764 539 
" fill="#339541" stroke="black" stroke-width="1"/>
<path d="
M 771 524 
L 771 518 
L 738 518 
L 738 515 
L 800 515 
L 800 526 
Q 778 527 , 758 527 
Q 729 527 , 714 524 
Q 700 522 , 700 517 
Q 700 512 , 714 509 
Q 729 507 , 760 507 
Q 773 507 , 793 508 
L 793 511 
Q 773 510 , 760 510 
Q 744 510 , 735 511 
Q 727 513 , 727 517 
Q 727 524 , 758 524 
Q 767 524 , 771 524 
" fill="#F5C000" stroke="black" stroke-width="1"/>
<path d="
M 850 553 
L 860 553 
L 846 554 
L 864 554 
L 850 553 
M 869 554 
L 837 554 
L 828 554 
L 805 554 
L 841 553 
L 869 553 
L 905 554 
L 878 554 
L 869 554 
" fill="#339541" stroke="black" stroke-width="1"/>
<path d="
M 892 552 
Q 880 553 , 856 553 
Q 832 553 , 818 552 
Q 805 552 , 805 552 
L 805 551 
L 837 551 
L 837 552 
Q 837 552 , 841 552 
Q 846 552 , 856 552 
Q 867 552 , 871 552 
Q 876 552 , 876 552 
L 876 551 
L 905 551 
L 905 552 
Q 905 552 , 892 552 
" fill="#D21010" stroke="black" stroke-width="1"/>
<path d="
M 805 549 
Q 805 549 , 821 548 
Q 837 548 , 868 548 
Q 884 548 , 903 548 
L 903 549 
Q 881 548 , 868 548 
Q 837 548 , 837 549 
Q 837 550 , 845 550 
Q 853 550 , 868 550 
Q 881 550 , 905 550 
L 905 550 
Q 886 550 , 868 550 
Q 837 550 , 821 550 
Q 805 550 , 805 549 
" fill="#545FFF" stroke="black" stroke-width="1"/>
<path d="
M 876 547 
L 876 546 
L 843 546 
L 843 546 
L 905 546 
L 905 547 
Q 883 548 , 863 548 
Q 834 548 , 819 547 
Q 805 547 , 805 546 
Q 805 546 , 819 545 
Q 834 545 , 865 545 
Q 878 545 , 898 545 
L 898 546 
Q 878 545 , 865 545 
Q 849 545 , 840 545 
Q 832 546 , 832 546 
Q 832 547 , 863 547 
Q 872 547 , 876 547 
" fill="#F5C000" stroke="black" stroke-width="1"/>
<path d="
M 997 554 
Q 985 555 , 961 555 
Q 937 555 , 923 554 
Q 910 553 , 910 552 
L 910 544 
L 942 544 
L 942 552 
Q 942 553 , 946 553 
Q 951 553 , 961 553 
Q 972 553 , 976 553 
Q 981 553 , 981 552 
L 981 544 
L 1010 544 
L 1010 552 
Q 1010 553 , 997 554 
" fill="#D21010" stroke="black" stroke-width="1"/>
<path d="
M 981 541 
L 981 538 
L 948 538 
L 948 536 
L 1010 536 
L 1010 543 
Q 988 543 , 968 543 
Q 939 543 , 924 542 
Q 910 541 , 910 538 
Q 910 535 , 924 533 
Q 939 532 , 970 532 
Q 983 532 , 1003 532 
L 1003 534 
Q 983 534 , 970 534 
Q 954 534 , 945 535 
Q 937 536 , 937 538 
Q 937 542 , 968 542 
Q 977 542 , 981 541 
" fill="#F5C000" stroke="black" stroke-width="1"/>
<path d="
M 955 518 
L 965 518 
L 951 524 
L 969 524 
L 955 518 
M 974 527 
L 942 527 
L 933 531 
L 910 531 
L 946 515 
L 974 515 
L 1010 531 
L 983 531 
L 974 527 
" fill="#339541" stroke="black" stroke-width="1"/>
<path d="
M 910 457 
Q 910 427 , 926 413 
Q 942 399 , 973 399 
Q 989 399 , 1008 405 
L 1008 424 
Q 986 417 , 973 417 
Q 942 417 , 942 457 
Q 942 479 , 950 488 
Q 958 497 , 973 497 
Q 986 497 , 1010 489 
L 1010 509 
Q 991 515 , 973 515 
Q 942 515 , 926 501 
Q 910 487 , 910 457 
" fill="#545FFF" stroke="black" stroke-width="1"/>
<path d="
M 1086 553 
L 1086 551 
L 1053 551 
L 1053 550 
L 1115 550 
L 1115 554 
Q 1093 554 , 1073 554 
Q 1044 554 , 1029 553 
Q 1015 553 , 1015 551 
Q 1015 549 , 1029 548 
Q 1044 548 , 1075 548 
Q 1088 548 , 1108 548 
L 1108 549 
Q 1088 549 , 1075 549 
Q 1059 549 , 1050 549 
Q 1042 550 , 1042 551 
Q 1042 553 , 1073 553 
Q 1082 553 , 1086 553 
" fill="#F5C000" stroke="black" stroke-width="1"/>
<path d="
M 1015 544 
Q 1015 542 , 1031 541 
Q 1047 540 , 1078 540 
Q 1094 540 , 1113 540 
L 1113 542 
Q 1091 541 , 1078 541 
Q 1047 541 , 1047 544 
Q 1047 545 , 1055 545 
Q 1063 546 , 1078 546 
Q 1091 546 , 1115 546 
L 1115 547 
Q 1096 547 , 1078 547 
Q 1047 547 , 1031 546 
Q 1015 546 , 1015 544 
" fill="#545FFF" stroke="black" stroke-width="1"/>
<path d="
M 1060 518 
L 1070 518 
L 1056 529 
L 1074 529 
L 1060 518 
M 1079 533 
L 1047 533 
L 1038 540 
L 1015 540 
L 1051 514 
L 1079 514 
L 1115 540 
L 1088 540 
L 1079 533 
" fill="#339541" stroke="black" stroke-width="1"/>
<path d="
M 1102 510 
Q 1090 514 , 1066 514 
Q 1042 514 , 1028 510 
Q 1015 506 , 1015 499 
L 1015 461 
L 1047 461 
L 1047 497 
Q 1047 502 , 1051 504 
Q 1056 506 , 1066 506 
Q 1077 506 , 1081 504 
Q 1086 502 , 1086 497 
L 1086 461 
L 1115 461 
L 1115 499 
Q 1115 506 , 1102 510 
" fill="#D21010" stroke="black" stroke-width="1"/>
<path d="
M 1163 554 
Q 1157 555 , 1145 555 
Q 1133 555 , 1126 554 
Q 1120 554 , 1120 554 
L 1120 551 
L 1136 551 
L 1136 554 
Q 1136 554 , 1138 554 
Q 1141 554 , 1146 554 
Q 1151 554 , 1153 554 
Q 1155 554 , 1155 554 
L 1155 551 
L 1170 551 
L 1170 554 
Q 1170 554 , 1163 554 
" fill="white" stroke="black" stroke-width="1"/>
<path d="
M 1206 554 
L 1206 553 
L 1189 553 
L 1189 552 
L 1220 552 
L 1220 555 
Q 1209 555 , 1199 555 
Q 1184 555 , 1177 554 
Q 1170 554 , 1170 553 
Q 1170 552 , 1177 551 
Q 1184 551 , 1200 551 
Q 1207 551 , 1217 551 
L 1217 552 
Q 1207 552 , 1200 552 
Q 1192 552 , 1187 552 
Q 1183 552 , 1183 553 
Q 1183 554 , 1199 554 
Q 1203 554 , 1206 554 
" fill="#F5C000" stroke="black" stroke-width="1"/>
<path d="
M 1143 547 
L 1147 547 
L 1140 548 
L 1150 548 
L 1143 547 
M 1152 549 
L 1136 549 
L 1131 550 
L 1120 550 
L 1138 546 
L 1152 546 
L 1170 550 
L 1156 550 
L 1152 549 
" fill="white" stroke="black" stroke-width="1"/>
<path d="
M 1213 550 
Q 1207 550 , 1195 550 
Q 1183 550 , 1176 550 
Q 1170 550 , 1170 549 
L 1170 546 
L 1186 546 
L 1186 549 
Q 1186 549 , 1188 549 
Q 1191 549 , 1196 549 
Q 1201 549 , 1203 549 
Q 1205 549 , 1205 549 
L 1205 546 
L 1220 546 
L 1220 549 
Q 1220 550 , 1213 550 
" fill="#D21010" stroke="black" stroke-width="1"/>
<path d="
M 1163 545 
Q 1157 546 , 1145 546 
Q 1133 546 , 1126 545 
Q 1120 545 , 1120 544 
L 1120 538 
L 1136 538 
L 1136 543 
Q 1136 544 , 1138 544 
Q 1141 545 , 1146 545 
Q 1151 545 , 1153 544 
Q 1155 544 , 1155 543 
L 1155 538 
L 1170 538 
L 1170 544 
Q 1170 545 , 1163 545 
" fill="white" stroke="black" stroke-width="1"/>
<path d="
M 1193 539 
L 1197 539 
L 1190 543 
L 1200 543 
L 1193 539 
M 1202 544 
L 1186 544 
L 1181 546 
L 1170 546 
L 1188 538 
L 1202 538 
L 1220 546 
L 1206 546 
L 1202 544 
" fill="#339541" stroke="black" stroke-width="1"/>
<path d="
M 1156 535 
L 1156 531 
L 1139 531 
L 1139 529 
L 1170 529 
L 1170 537 
Q 1159 537 , 1149 537 
Q 1134 537 , 1127 535 
Q 1120 534 , 1120 531 
Q 1120 527 , 1127 525 
Q 1134 524 , 1150 524 
Q 1157 524 , 1167 525 
L 1167 527 
Q 1157 526 , 1150 526 
Q 1142 526 , 1137 527 
Q 1133 528 , 1133 531 
Q 1133 535 , 1149 535 
Q 1153 535 , 1156 535 
" fill="white" stroke="black" stroke-width="1"/>
<path d="
M 1213 536 
Q 1207 537 , 1195 537 
Q 1183 537 , 1176 536 
Q 1170 535 , 1170 534 
L 1170 524 
L 1186 524 
L 1186 533 
Q 1186 534 , 1188 534 
Q 1191 535 , 1196 535 
Q 1201 535 , 1203 534 
Q 1205 534 , 1205 533 
L 1205 524 
L 1220 524 
L 1220 534 
Q 1220 535 , 1213 536 
" fill="#D21010" stroke="black" stroke-width="1"/>
<path d="
M 1120 510 
Q 1120 503 , 1128 499 
Q 1136 496 , 1152 496 
Q 1160 496 , 1169 497 
L 1169 502 
Q 1158 500 , 1152 500 
Q 1136 500 , 1136 510 
Q 1136 515 , 1140 517 
Q 1144 519 , 1152 519 
Q 1158 519 , 1170 517 
L 1170 522 
Q 1160 523 , 1152 523 
Q 1136 523 , 1128 520 
Q 1120 517 , 1120 510 
" fill="white" stroke="black" stroke-width="1"/>
<path d="
M 1206 519 
L 1206 511 
L 1189 511 
L 1189 507 
L 1220 507 
L 1220 522 
Q 1209 523 , 1199 523 
Q 1184 523 , 1177 520 
Q 1170 517 , 1170 510 
Q 1170 503 , 1177 499 
Q 1184 496 , 1200 496 
Q 1207 496 , 1217 497 
L 1217 502 
Q 1207 500 , 1200 500 
Q 1192 500 , 1187 502 
Q 1183 504 , 1183 510 
Q 1183 519 , 1199 519 
Q 1203 519 , 1206 519 
" fill="#F5C000" stroke="black" stroke-width="1"/>
<path d="
M 1156 488 
L 1156 474 
L 1139 474 
L 1139 466 
L 1170 466 
L 1170 493 
Q 1159 496 , 1149 496 
Q 1134 496 , 1127 490 
Q 1120 484 , 1120 472 
Q 1120 460 , 1127 454 
Q 1134 448 , 1150 448 
Q 1157 448 , 1167 450 
L 1167 458 
Q 1157 455 , 1150 455 
Q 1142 455 , 1137 459 
Q 1133 463 , 1133 472 
Q 1133 489 , 1149 489 
Q 1153 489 , 1156 488 
" fill="white" stroke="black" stroke-width="1"/>
<path d="
M 1170 472 
Q 1170 460 , 1178 454 
Q 1186 448 , 1202 448 
Q 1210 448 , 1219 450 
L 1219 458 
Q 1208 455 , 1202 455 
Q 1186 455 , 1186 472 
Q 1186 481 , 1190 485 
Q 1194 489 , 1202 489 
Q 1208 489 , 1220 485 
L 1220 493 
Q 1210 496 , 1202 496 
Q 1186 496 , 1178 490 
Q 1170 485 , 1170 472 
" fill="#545FFF" stroke="black" stroke-width="1"/>
<path d="M 65 168 L 65 555 " stroke="black" stroke-width="1.5"/>
<path d="M 55 555 L 65 555 " stroke="black" stroke-width="4"/>
<text text-anchor="end" x="50" y="555" font-size="50" alignment-baseline="middle">0</text>
<path d="M 55 362 L 65 362 " stroke="black" stroke-width="4"/>
<text text-anchor="end" x="50" y="362" font-size="50" alignment-baseline="middle">1</text>
<path d="M 55 168 L 65 168 " stroke="black" stroke-width="4"/>
<text text-anchor="end" x="50" y="168" font-size="50" alignment-baseline="middle">2</text>
<text text-anchor="middle" x="645" y="50" font-size="50" alignment-baseline="baseline"></text>
G<path d="
M 232 605 
Q 185 597 , 185 585 
Q 185 573 , 232 565 
L 265 565 
Q 212 574 , 212 585 
Q 212 596 , 265 605 
L 232 605 
" fill="black" stroke="black" stroke-width="1"/>
<path d="
M 635 565 
L 655 565 
L 655 578 
L 679 574 
L 685 584 
L 661 588 
L 677 599 
L 661 605 
L 645 594 
L 631 605 
L 615 599 
L 631 588 
L 605 584 
L 611 574 
L 637 578 
L 635 565 
" fill="black" stroke="black" stroke-width="1"/>
<path d="
M 1163 565 
Q 1210 573 , 1210 585 
Q 1210 597 , 1163 605 
L 1130 605 
Q 1182 596 , 1182 585 
Q 1182 574 , 1130 565 
L 1163 565 
" fill="black" stroke="black" stroke-width="1"/>
</svg>
