<svg xmlns="http://www.w3.org/2000/svg"
viewBox="0 0 910 615">
<path d="
M 70 554 
Q 70 553 , 86 553 
Q 102 553 , 133 553 
Q 149 553 , 168 553 
L 168 553 
Q 146 553 , 133 553 
Q 102 553 , 102 554 
Q 102 554 , 110 554 
Q 118 554 , 133 554 
Q 146 554 , 170 554 
L 170 555 
Q 151 555 , 133 555 
Q 102 555 , 86 554 
Q 70 554 , 70 554 
" fill="#545FFF" stroke="black" stroke-width="1"/>
<path d="
M 141 552 
L 141 551 
L 108 551 
L 108 551 
L 170 551 
L 170 552 
Q 148 552 , 128 552 
Q 99 552 , 84 552 
Q 70 552 , 70 551 
Q 70 551 , 84 550 
Q 99 550 , 130 550 
Q 143 550 , 163 550 
L 163 550 
Q 143 550 , 130 550 
Q 114 550 , 105 550 
Q 97 551 , 97 551 
Q 97 552 , 128 552 
Q 137 552 , 141 552 
" fill="#F5C000" stroke="black" stroke-width="1"/>
<path d="
M 115 546 
L 125 546 
L 111 547 
L 129 547 
L 115 546 
M 134 548 
L 102 548 
L 93 549 
L 70 549 
L 106 545 
L 134 545 
L 170 549 
L 143 549 
L 134 548 
" fill="#339541" stroke="black" stroke-width="1"/>
<path d="
M 157 512 
Q 145 545 , 121 545 
Q 97 545 , 83 512 
Q 70 480 , 70 415 
L 70 90 
L 102 90 
L 102 404 
Q 102 445 , 106 460 
Q 111 475 , 121 475 
Q 132 475 , 136 460 
Q 141 445 , 141 404 
L 141 90 
L 170 90 
L 170 415 
Q 170 480 , 157 512 
" fill="#D21010" stroke="black" stroke-width="1"/>
<path d="
M 175 554 
Q 175 553 , 191 553 
Q 207 553 , 238 553 
Q 254 553 , 273 553 
L 273 553 
Q 251 553 , 238 553 
Q 207 553 , 207 554 
Q 207 554 , 215 554 
Q 223 554 , 238 554 
Q 251 554 , 275 554 
L 275 554 
Q 256 554 , 238 554 
Q 207 554 , 191 554 
Q 175 554 , 175 554 
" fill="#545FFF" stroke="black" stroke-width="1"/>
<path d="
M 220 545 
L 230 545 
L 216 549 
L 234 549 
L 220 545 
M 239 550 
L 207 550 
L 198 553 
L 175 553 
L 211 544 
L 239 544 
L 275 553 
L 248 553 
L 239 550 
" fill="#339541" stroke="black" stroke-width="1"/>
<path d="
M 262 542 
Q 250 543 , 226 543 
Q 202 543 , 188 542 
Q 175 542 , 175 540 
L 175 533 
L 207 533 
L 207 540 
Q 207 541 , 211 541 
Q 216 542 , 226 542 
Q 237 542 , 241 541 
Q 246 541 , 246 540 
L 246 533 
L 275 533 
L 275 540 
Q 275 542 , 262 542 
" fill="#D21010" stroke="black" stroke-width="1"/>
<path d="
M 246 466 
L 246 351 
L 213 351 
L 213 292 
L 275 292 
L 275 508 
Q 253 533 , 233 533 
Q 204 533 , 189 484 
Q 175 436 , 175 336 
Q 175 236 , 189 188 
Q 204 140 , 235 140 
Q 248 140 , 268 155 
L 268 221 
Q 248 200 , 235 200 
Q 219 200 , 210 230 
Q 202 261 , 202 336 
Q 202 472 , 233 472 
Q 242 472 , 246 466 
" fill="#F5C000" stroke="black" stroke-width="1"/>
<path d="
M 280 554 
Q 280 554 , 296 554 
Q 312 554 , 343 554 
Q 359 554 , 378 554 
L 378 554 
Q 356 554 , 343 554 
Q 312 554 , 312 554 
Q 312 555 , 320 555 
Q 328 555 , 343 555 
Q 356 555 , 380 555 
L 380 555 
Q 361 555 , 343 555 
Q 312 555 , 296 555 
Q 280 555 , 280 554 
" fill="#545FFF" stroke="black" stroke-width="1"/>
<path d="
M 351 553 
L 351 552 
L 318 552 
L 318 552 
L 380 552 
L 380 553 
Q 358 553 , 338 553 
Q 309 553 , 294 553 
Q 280 553 , 280 552 
Q 280 552 , 294 551 
Q 309 551 , 340 551 
Q 353 551 , 373 551 
L 373 551 
Q 353 551 , 340 551 
Q 324 551 , 315 551 
Q 307 552 , 307 552 
Q 307 553 , 338 553 
Q 347 553 , 351 553 
" fill="#F5C000" stroke="black" stroke-width="1"/>
<path d="
M 325 547 
L 335 547 
L 321 549 
L 339 549 
L 325 547 
M 344 549 
L 312 549 
L 303 550 
L 280 550 
L 316 547 
L 344 547 
L 380 550 
L 353 550 
L 344 549 
" fill="#339541" stroke="black" stroke-width="1"/>
<path d="
M 367 513 
Q 355 547 , 331 547 
Q 307 547 , 293 513 
Q 280 480 , 280 414 
L 280 82 
L 312 82 
L 312 402 
Q 312 445 , 316 460 
Q 321 475 , 331 475 
Q 342 475 , 346 460 
Q 351 445 , 351 402 
L 351 82 
L 380 82 
L 380 414 
Q 380 480 , 367 513 
" fill="#D21010" stroke="black" stroke-width="1"/>
<path d="
M 385 554 
Q 385 553 , 401 553 
Q 417 553 , 448 553 
Q 464 553 , 483 553 
L 483 553 
Q 461 553 , 448 553 
Q 417 553 , 417 554 
Q 417 554 , 425 554 
Q 433 554 , 448 554 
Q 461 554 , 485 554 
L 485 554 
Q 466 555 , 448 555 
Q 417 555 , 401 554 
Q 385 554 , 385 554 
" fill="#545FFF" stroke="black" stroke-width="1"/>
<path d="
M 472 551 
Q 460 552 , 436 552 
Q 412 552 , 398 551 
Q 385 551 , 385 549 
L 385 542 
L 417 542 
L 417 549 
Q 417 550 , 421 550 
Q 426 551 , 436 551 
Q 447 551 , 451 550 
Q 456 550 , 456 549 
L 456 542 
L 485 542 
L 485 549 
Q 485 551 , 472 551 
" fill="#D21010" stroke="black" stroke-width="1"/>
<path d="
M 456 540 
L 456 536 
L 423 536 
L 423 535 
L 485 535 
L 485 541 
Q 463 542 , 443 542 
Q 414 542 , 399 540 
Q 385 539 , 385 536 
Q 385 533 , 399 531 
Q 414 530 , 445 530 
Q 458 530 , 478 530 
L 478 532 
Q 458 532 , 445 532 
Q 429 532 , 420 533 
Q 412 534 , 412 536 
Q 412 540 , 443 540 
Q 452 540 , 456 540 
" fill="#F5C000" stroke="black" stroke-width="1"/>
<path d="
M 430 212 
L 440 212 
L 426 371 
L 444 371 
L 430 212 
M 449 429 
L 417 429 
L 408 530 
L 385 530 
L 421 154 
L 449 154 
L 485 530 
L 458 530 
L 449 429 
" fill="#339541" stroke="black" stroke-width="1"/>
<path d="
M 561 554 
L 561 554 
L 528 554 
L 528 554 
L 590 554 
L 590 554 
Q 568 554 , 548 554 
Q 519 554 , 504 554 
Q 490 554 , 490 554 
Q 490 553 , 504 553 
Q 519 553 , 550 553 
Q 563 553 , 583 553 
L 583 553 
Q 563 553 , 550 553 
Q 534 553 , 525 553 
Q 517 553 , 517 554 
Q 517 554 , 548 554 
Q 557 554 , 561 554 
" fill="#F5C000" stroke="black" stroke-width="1"/>
<path d="
M 490 541 
Q 490 535 , 506 532 
Q 522 529 , 553 529 
Q 569 529 , 588 530 
L 588 534 
Q 566 533 , 553 533 
Q 522 533 , 522 541 
Q 522 545 , 530 547 
Q 538 549 , 553 549 
Q 566 549 , 590 547 
L 590 551 
Q 571 553 , 553 553 
Q 522 553 , 506 550 
Q 490 547 , 490 541 
" fill="#545FFF" stroke="black" stroke-width="1"/>
<path d="
M 535 508 
L 545 508 
L 531 518 
L 549 518 
L 535 508 
M 554 522 
L 522 522 
L 513 528 
L 490 528 
L 526 504 
L 554 504 
L 590 528 
L 563 528 
L 554 522 
" fill="#339541" stroke="black" stroke-width="1"/>
<path d="
M 577 500 
Q 565 503 , 541 503 
Q 517 503 , 503 500 
Q 490 498 , 490 493 
L 490 469 
L 522 469 
L 522 493 
Q 522 496 , 526 497 
Q 531 498 , 541 498 
Q 552 498 , 556 497 
Q 561 496 , 561 493 
L 561 469 
L 590 469 
L 590 493 
Q 590 498 , 577 500 
" fill="#D21010" stroke="black" stroke-width="1"/>
<path d="
M 595 554 
Q 595 553 , 611 553 
Q 627 553 , 658 553 
Q 674 553 , 693 553 
L 693 553 
Q 671 553 , 658 553 
Q 627 553 , 627 554 
Q 627 554 , 635 554 
Q 643 554 , 658 554 
Q 671 554 , 695 554 
L 695 555 
Q 676 555 , 658 555 
Q 627 555 , 611 554 
Q 595 554 , 595 554 
" fill="#545FFF" stroke="black" stroke-width="1"/>
<path d="
M 666 551 
L 666 548 
L 633 548 
L 633 547 
L 695 547 
L 695 552 
Q 673 552 , 653 552 
Q 624 552 , 609 551 
Q 595 550 , 595 548 
Q 595 545 , 609 544 
Q 624 543 , 655 543 
Q 668 543 , 688 543 
L 688 545 
Q 668 544 , 655 544 
Q 639 544 , 630 545 
Q 622 546 , 622 548 
Q 622 551 , 653 551 
Q 662 551 , 666 551 
" fill="#F5C000" stroke="black" stroke-width="1"/>
<path d="
M 682 541 
Q 670 542 , 646 542 
Q 622 542 , 608 541 
Q 595 540 , 595 537 
L 595 525 
L 627 525 
L 627 537 
Q 627 538 , 631 539 
Q 636 540 , 646 540 
Q 657 540 , 661 539 
Q 666 538 , 666 537 
L 666 525 
L 695 525 
L 695 537 
Q 695 540 , 682 541 
" fill="#D21010" stroke="black" stroke-width="1"/>
<path d="
M 640 224 
L 650 224 
L 636 374 
L 654 374 
L 640 224 
M 659 429 
L 627 429 
L 618 524 
L 595 524 
L 631 169 
L 659 169 
L 695 524 
L 668 524 
L 659 429 
" fill="#339541" stroke="black" stroke-width="1"/>
<path d="
M 700 554 
Q 700 554 , 716 554 
Q 732 554 , 763 554 
Q 779 554 , 798 554 
L 798 554 
Q 776 554 , 763 554 
Q 732 554 , 732 554 
Q 732 555 , 740 555 
Q 748 555 , 763 555 
Q 776 555 , 800 555 
L 800 555 
Q 781 555 , 763 555 
Q 732 555 , 716 555 
Q 700 555 , 700 554 
" fill="#545FFF" stroke="black" stroke-width="1"/>
<path d="
M 745 538 
L 755 538 
L 741 546 
L 759 546 
L 745 538 
M 764 549 
L 732 549 
L 723 554 
L 700 554 
L 736 535 
L 764 535 
L 800 554 
L 773 554 
L 764 549 
" fill="#339541" stroke="black" stroke-width="1"/>
<path d="
M 771 529 
L 771 521 
L 738 521 
L 738 516 
L 800 516 
L 800 532 
Q 778 534 , 758 534 
Q 729 534 , 714 530 
Q 700 527 , 700 520 
Q 700 512 , 714 508 
Q 729 505 , 760 505 
Q 773 505 , 793 506 
L 793 511 
Q 773 509 , 760 509 
Q 744 509 , 735 511 
Q 727 514 , 727 520 
Q 727 530 , 758 530 
Q 767 530 , 771 529 
" fill="#F5C000" stroke="black" stroke-width="1"/>
<path d="
M 787 487 
Q 775 505 , 751 505 
Q 727 505 , 713 487 
Q 700 469 , 700 434 
L 700 258 
L 732 258 
L 732 428 
Q 732 450 , 736 458 
Q 741 467 , 751 467 
Q 762 467 , 766 458 
Q 771 450 , 771 428 
L 771 258 
L 800 258 
L 800 434 
Q 800 469 , 787 487 
" fill="#D21010" stroke="black" stroke-width="1"/>
<path d="
M 805 554 
Q 805 553 , 821 553 
Q 837 553 , 868 553 
Q 884 553 , 903 553 
L 903 553 
Q 881 553 , 868 553 
Q 837 553 , 837 554 
Q 837 554 , 845 554 
Q 853 554 , 868 554 
Q 881 554 , 905 554 
L 905 554 
Q 886 555 , 868 555 
Q 837 555 , 821 554 
Q 805 554 , 805 554 
" fill="#545FFF" stroke="black" stroke-width="1"/>
<path d="
M 876 551 
L 876 546 
L 843 546 
L 843 544 
L 905 544 
L 905 552 
Q 883 553 , 863 553 
Q 834 553 , 819 551 
Q 805 550 , 805 546 
Q 805 542 , 819 540 
Q 834 539 , 865 539 
Q 878 539 , 898 540 
L 898 542 
Q 878 541 , 865 541 
Q 849 541 , 840 542 
Q 832 543 , 832 546 
Q 832 551 , 863 551 
Q 872 551 , 876 551 
" fill="#F5C000" stroke="black" stroke-width="1"/>
<path d="
M 892 535 
Q 880 539 , 856 539 
Q 832 539 , 818 535 
Q 805 532 , 805 525 
L 805 491 
L 837 491 
L 837 524 
Q 837 528 , 841 530 
Q 846 532 , 856 532 
Q 867 532 , 871 530 
Q 876 528 , 876 524 
L 876 491 
L 905 491 
L 905 525 
Q 905 532 , 892 535 
" fill="#D21010" stroke="black" stroke-width="1"/>
<path d="
M 850 367 
L 860 367 
L 846 429 
L 864 429 
L 850 367 
M 869 451 
L 837 451 
L 828 490 
L 805 490 
L 841 345 
L 869 345 
L 905 490 
L 878 490 
L 869 451 
" fill="#339541" stroke="black" stroke-width="1"/>
<path d="M 65 55 L 65 555 " stroke="black" stroke-width="1.5"/>
<path d="M 55 555 L 65 555 " stroke="black" stroke-width="4"/>
<text text-anchor="end" x="50" y="555" font-size="50" alignment-baseline="middle">0</text>
<path d="M 55 305 L 65 305 " stroke="black" stroke-width="4"/>
<text text-anchor="end" x="50" y="305" font-size="50" alignment-baseline="middle">1</text>
<path d="M 55 55 L 65 55 " stroke="black" stroke-width="4"/>
<text text-anchor="end" x="50" y="55" font-size="50" alignment-baseline="middle">2</text>
<text text-anchor="middle" x="487" y="50" font-size="50" alignment-baseline="baseline"></text>
G</svg>
