<svg xmlns="http://www.w3.org/2000/svg"
viewBox="0 0 1330 635">
<path d="
M 170 553 
L 170 553 
Q 155 553 , 147 553 
Q 139 553 , 129 553 
Q 108 553 , 98 553 
Q 86 554 , 86 554 
Q 86 554 , 98 554 
Q 108 555 , 129 555 
Q 139 555 , 147 555 
Q 155 554 , 170 554 
L 170 555 
Q 159 555 , 149 555 
Q 139 555 , 128 555 
Q 101 555 , 86 555 
Q 70 554 , 70 554 
Q 70 553 , 86 553 
Q 101 553 , 128 553 
Q 139 553 , 149 553 
Q 160 553 , 170 553 
" fill="#545FFF" />
<path d="
M 154 553 
L 154 552 
L 125 552 
L 125 552 
L 170 552 
L 170 553 
Q 159 553 , 148 553 
Q 139 553 , 127 553 
Q 101 553 , 85 553 
Q 70 552 , 70 552 
Q 70 552 , 85 551 
Q 101 551 , 127 551 
Q 138 551 , 147 551 
Q 157 551 , 167 551 
L 167 551 
Q 154 551 , 146 551 
Q 137 551 , 128 551 
Q 107 551 , 96 551 
Q 86 552 , 86 552 
Q 86 552 , 96 553 
Q 107 553 , 128 553 
Q 137 553 , 144 553 
Q 151 553 , 154 553 
" fill="#F5C000" />
<path d="
M 120 548 
L 102 549 
L 136 549 
L 120 548 
M 113 548 
L 127 548 
L 170 550 
L 154 550 
L 142 550 
L 98 550 
L 85 550 
L 70 550 
L 113 548 
" fill="#339541" />
<path d="
M 70 544 
L 88 544 
L 88 546 
Q 88 546 , 96 547 
Q 103 547 , 120 547 
Q 137 547 , 145 547 
Q 152 546 , 152 546 
L 152 544 
L 170 544 
L 170 546 
Q 170 546 , 157 547 
Q 145 547 , 120 547 
Q 96 547 , 83 547 
Q 70 546 , 70 546 
L 70 544 
" fill="#D21010" />
<path d="
M 259 555 
L 259 554 
L 230 554 
L 230 554 
L 275 554 
L 275 555 
Q 264 555 , 253 555 
Q 244 555 , 232 555 
Q 206 555 , 190 555 
Q 175 554 , 175 554 
Q 175 554 , 190 553 
Q 206 553 , 232 553 
Q 243 553 , 252 553 
Q 262 553 , 272 553 
L 272 553 
Q 259 553 , 251 553 
Q 242 553 , 233 553 
Q 212 553 , 201 553 
Q 191 554 , 191 554 
Q 191 554 , 201 554 
Q 212 555 , 233 555 
Q 242 555 , 249 555 
Q 256 555 , 259 555 
" fill="#F5C000" />
<path d="
M 275 550 
L 275 551 
Q 260 550 , 252 550 
Q 244 550 , 234 550 
Q 213 550 , 203 551 
Q 191 551 , 191 551 
Q 191 552 , 203 552 
Q 213 552 , 234 552 
Q 244 552 , 252 552 
Q 260 552 , 275 552 
L 275 552 
Q 264 553 , 254 553 
Q 244 553 , 233 553 
Q 206 553 , 191 552 
Q 175 552 , 175 551 
Q 175 551 , 191 550 
Q 206 550 , 233 550 
Q 244 550 , 254 550 
Q 265 550 , 275 550 
" fill="#545FFF" />
<path d="
M 225 546 
L 207 548 
L 241 548 
L 225 546 
M 218 545 
L 232 545 
L 275 550 
L 259 550 
L 247 548 
L 203 548 
L 190 550 
L 175 550 
L 218 545 
" fill="#339541" />
<path d="
M 175 98 
L 193 98 
L 193 362 
Q 193 435 , 201 466 
Q 208 495 , 225 495 
Q 242 495 , 250 466 
Q 257 435 , 257 362 
L 257 98 
L 275 98 
L 275 369 
Q 275 454 , 262 499 
Q 250 545 , 225 545 
Q 201 545 , 188 499 
Q 175 454 , 175 369 
L 175 98 
" fill="#D21010" />
<path d="
M 380 554 
L 380 554 
Q 365 554 , 357 554 
Q 349 554 , 339 554 
Q 318 554 , 308 554 
Q 296 554 , 296 554 
Q 296 554 , 308 554 
Q 318 555 , 339 555 
Q 349 555 , 357 555 
Q 365 554 , 380 554 
L 380 555 
Q 369 555 , 359 555 
Q 349 555 , 338 555 
Q 311 555 , 296 555 
Q 280 554 , 280 554 
Q 280 554 , 296 554 
Q 311 554 , 338 554 
Q 349 554 , 359 554 
Q 370 554 , 380 554 
" fill="#545FFF" />
<path d="
M 330 547 
L 312 550 
L 346 550 
L 330 547 
M 323 545 
L 337 545 
L 380 554 
L 364 554 
L 352 551 
L 308 551 
L 295 554 
L 280 554 
L 323 545 
" fill="#339541" />
<path d="
M 280 534 
L 298 534 
L 298 540 
Q 298 542 , 306 543 
Q 313 543 , 330 543 
Q 347 543 , 355 543 
Q 362 542 , 362 540 
L 362 534 
L 380 534 
L 380 540 
Q 380 542 , 367 543 
Q 355 545 , 330 545 
Q 306 545 , 293 543 
Q 280 542 , 280 540 
L 280 534 
" fill="#D21010" />
<path d="
M 364 477 
L 364 370 
L 335 370 
L 335 327 
L 380 327 
L 380 503 
Q 369 520 , 358 526 
Q 349 533 , 337 533 
Q 311 533 , 295 480 
Q 280 428 , 280 335 
Q 280 243 , 295 190 
Q 311 137 , 337 137 
Q 348 137 , 357 144 
Q 367 151 , 377 169 
L 377 220 
Q 364 197 , 356 191 
Q 347 184 , 338 184 
Q 317 184 , 306 221 
Q 296 259 , 296 335 
Q 296 413 , 306 452 
Q 317 489 , 338 489 
Q 347 489 , 354 485 
Q 361 481 , 364 477 
" fill="#F5C000" />
<path d="
M 485 554 
L 485 554 
Q 470 554 , 462 554 
Q 454 554 , 444 554 
Q 423 554 , 413 554 
Q 401 554 , 401 554 
Q 401 554 , 413 554 
Q 423 554 , 444 554 
Q 454 554 , 462 554 
Q 470 554 , 485 554 
L 485 554 
Q 474 554 , 464 554 
Q 454 554 , 443 554 
Q 416 554 , 401 554 
Q 385 554 , 385 554 
Q 385 554 , 401 554 
Q 416 554 , 443 554 
Q 454 554 , 464 554 
Q 475 554 , 485 554 
" fill="#545FFF" />
<path d="
M 469 554 
L 469 553 
L 440 553 
L 440 553 
L 485 553 
L 485 554 
Q 474 554 , 463 554 
Q 454 554 , 442 554 
Q 416 554 , 400 554 
Q 385 553 , 385 553 
Q 385 553 , 400 552 
Q 416 552 , 442 552 
Q 453 552 , 462 552 
Q 472 552 , 482 552 
L 482 552 
Q 469 552 , 461 552 
Q 452 552 , 443 552 
Q 422 552 , 411 552 
Q 401 553 , 401 553 
Q 401 553 , 411 554 
Q 422 554 , 443 554 
Q 452 554 , 459 554 
Q 466 554 , 469 554 
" fill="#F5C000" />
<path d="
M 435 547 
L 417 549 
L 451 549 
L 435 547 
M 428 546 
L 442 546 
L 485 552 
L 469 552 
L 457 550 
L 413 550 
L 400 552 
L 385 552 
L 428 546 
" fill="#339541" />
<path d="
M 385 89 
L 403 89 
L 403 358 
Q 403 433 , 411 465 
Q 418 494 , 435 494 
Q 452 494 , 460 465 
Q 467 433 , 467 358 
L 467 89 
L 485 89 
L 485 366 
Q 485 453 , 472 499 
Q 460 545 , 435 545 
Q 411 545 , 398 499 
Q 385 453 , 385 366 
L 385 89 
" fill="#D21010" />
<path d="
M 590 553 
L 590 553 
Q 575 553 , 567 553 
Q 559 553 , 549 553 
Q 528 553 , 518 553 
Q 506 553 , 506 553 
Q 506 554 , 518 554 
Q 528 554 , 549 554 
Q 559 554 , 567 554 
Q 575 554 , 590 554 
L 590 554 
Q 579 554 , 569 554 
Q 559 554 , 548 554 
Q 521 554 , 506 554 
Q 490 554 , 490 554 
Q 490 553 , 506 553 
Q 521 553 , 548 553 
Q 559 553 , 569 553 
Q 580 553 , 590 553 
" fill="#545FFF" />
<path d="
M 574 550 
L 574 547 
L 545 547 
L 545 546 
L 590 546 
L 590 551 
Q 579 552 , 568 552 
Q 559 552 , 547 552 
Q 521 552 , 505 551 
Q 490 549 , 490 547 
Q 490 544 , 505 542 
Q 521 541 , 547 541 
Q 558 541 , 567 541 
Q 577 541 , 587 542 
L 587 543 
Q 574 543 , 566 542 
Q 557 542 , 548 542 
Q 527 542 , 516 543 
Q 506 544 , 506 547 
Q 506 549 , 516 550 
Q 527 551 , 548 551 
Q 557 551 , 564 551 
Q 571 551 , 574 550 
" fill="#F5C000" />
<path d="
M 490 528 
L 508 528 
L 508 535 
Q 508 537 , 516 538 
Q 523 539 , 540 539 
Q 557 539 , 565 538 
Q 572 537 , 572 535 
L 572 528 
L 590 528 
L 590 536 
Q 590 538 , 577 539 
Q 565 541 , 540 541 
Q 516 541 , 503 539 
Q 490 538 , 490 536 
L 490 528 
" fill="#D21010" />
<path d="
M 540 224 
L 522 375 
L 556 375 
L 540 224 
M 533 156 
L 547 156 
L 590 527 
L 574 527 
L 562 418 
L 518 418 
L 505 527 
L 490 527 
L 533 156 
" fill="#339541" />
<path d="
M 679 554 
L 679 554 
L 650 554 
L 650 553 
L 695 553 
L 695 554 
Q 684 554 , 673 554 
Q 664 554 , 652 554 
Q 626 554 , 610 554 
Q 595 554 , 595 554 
Q 595 553 , 610 553 
Q 626 553 , 652 553 
Q 663 553 , 672 553 
Q 682 553 , 692 553 
L 692 553 
Q 679 553 , 671 553 
Q 662 553 , 653 553 
Q 632 553 , 621 553 
Q 611 553 , 611 554 
Q 611 554 , 621 554 
Q 632 554 , 653 554 
Q 662 554 , 669 554 
Q 676 554 , 679 554 
" fill="#F5C000" />
<path d="
M 695 532 
L 695 536 
Q 680 534 , 672 533 
Q 664 532 , 654 532 
Q 633 532 , 623 535 
Q 611 537 , 611 541 
Q 611 545 , 623 547 
Q 633 550 , 654 550 
Q 664 550 , 672 549 
Q 680 548 , 695 546 
L 695 550 
Q 684 551 , 674 552 
Q 664 552 , 653 552 
Q 626 552 , 611 549 
Q 595 546 , 595 541 
Q 595 536 , 611 533 
Q 626 530 , 653 530 
Q 664 530 , 674 531 
Q 685 531 , 695 532 
" fill="#545FFF" />
<path d="
M 645 501 
L 627 515 
L 661 515 
L 645 501 
M 638 495 
L 652 495 
L 695 530 
L 679 530 
L 667 519 
L 623 519 
L 610 530 
L 595 530 
L 638 495 
" fill="#339541" />
<path d="
M 595 456 
L 613 456 
L 613 479 
Q 613 485 , 621 488 
Q 628 490 , 645 490 
Q 662 490 , 670 488 
Q 677 485 , 677 479 
L 677 456 
L 695 456 
L 695 479 
Q 695 487 , 682 490 
Q 670 494 , 645 494 
Q 621 494 , 608 490 
Q 595 487 , 595 479 
L 595 456 
" fill="#D21010" />
<path d="
M 800 553 
L 800 553 
Q 785 553 , 777 553 
Q 769 553 , 759 553 
Q 738 553 , 728 553 
Q 716 554 , 716 554 
Q 716 554 , 728 554 
Q 738 554 , 759 554 
Q 769 554 , 777 554 
Q 785 554 , 800 554 
L 800 554 
Q 789 555 , 779 555 
Q 769 555 , 758 555 
Q 731 555 , 716 554 
Q 700 554 , 700 554 
Q 700 553 , 716 553 
Q 731 553 , 758 553 
Q 769 553 , 779 553 
Q 790 553 , 800 553 
" fill="#545FFF" />
<path d="
M 784 551 
L 784 548 
L 755 548 
L 755 546 
L 800 546 
L 800 552 
Q 789 552 , 778 552 
Q 769 552 , 757 552 
Q 731 552 , 715 551 
Q 700 549 , 700 547 
Q 700 544 , 715 543 
Q 731 541 , 757 541 
Q 768 541 , 777 541 
Q 787 541 , 797 542 
L 797 543 
Q 784 543 , 776 543 
Q 767 542 , 758 542 
Q 737 542 , 726 543 
Q 716 545 , 716 547 
Q 716 549 , 726 550 
Q 737 551 , 758 551 
Q 767 551 , 774 551 
Q 781 551 , 784 551 
" fill="#F5C000" />
<path d="
M 700 518 
L 718 518 
L 718 531 
Q 718 535 , 726 536 
Q 733 538 , 750 538 
Q 767 538 , 775 536 
Q 782 535 , 782 531 
L 782 518 
L 800 518 
L 800 532 
Q 800 536 , 787 538 
Q 775 540 , 750 540 
Q 726 540 , 713 538 
Q 700 536 , 700 532 
L 700 518 
" fill="#D21010" />
<path d="
M 750 257 
L 732 387 
L 766 387 
L 750 257 
M 743 199 
L 757 199 
L 800 517 
L 784 517 
L 772 424 
L 728 424 
L 715 517 
L 700 517 
L 743 199 
" fill="#339541" />
<path d="
M 905 554 
L 905 554 
Q 890 554 , 882 554 
Q 874 554 , 864 554 
Q 843 554 , 833 554 
Q 821 554 , 821 554 
Q 821 555 , 833 555 
Q 843 555 , 864 555 
Q 874 555 , 882 555 
Q 890 555 , 905 555 
L 905 555 
Q 894 555 , 884 555 
Q 874 555 , 863 555 
Q 836 555 , 821 555 
Q 805 555 , 805 554 
Q 805 554 , 821 554 
Q 836 554 , 863 554 
Q 874 554 , 884 554 
Q 895 554 , 905 554 
" fill="#545FFF" />
<path d="
M 889 552 
L 889 550 
L 860 550 
L 860 549 
L 905 549 
L 905 553 
Q 894 553 , 883 553 
Q 874 554 , 862 554 
Q 836 554 , 820 552 
Q 805 551 , 805 549 
Q 805 547 , 820 545 
Q 836 544 , 862 544 
Q 873 544 , 882 544 
Q 892 544 , 902 545 
L 902 546 
Q 889 545 , 881 545 
Q 872 545 , 863 545 
Q 842 545 , 831 546 
Q 821 547 , 821 549 
Q 821 551 , 831 552 
Q 842 552 , 863 552 
Q 872 552 , 879 552 
Q 886 552 , 889 552 
" fill="#F5C000" />
<path d="
M 855 518 
L 837 530 
L 871 530 
L 855 518 
M 848 512 
L 862 512 
L 905 543 
L 889 543 
L 877 534 
L 833 534 
L 820 543 
L 805 543 
L 848 512 
" fill="#339541" />
<path d="
M 805 217 
L 823 217 
L 823 391 
Q 823 439 , 831 460 
Q 838 479 , 855 479 
Q 872 479 , 880 460 
Q 887 439 , 887 391 
L 887 217 
L 905 217 
L 905 396 
Q 905 452 , 892 482 
Q 880 512 , 855 512 
Q 831 512 , 818 482 
Q 805 452 , 805 396 
L 805 217 
" fill="#D21010" />
<path d="
M 1010 550 
L 1010 551 
Q 995 551 , 987 551 
Q 979 550 , 969 550 
Q 948 550 , 938 551 
Q 926 551 , 926 552 
Q 926 553 , 938 553 
Q 948 554 , 969 554 
Q 979 554 , 987 554 
Q 995 554 , 1010 553 
L 1010 554 
Q 999 554 , 989 554 
Q 979 554 , 968 554 
Q 941 554 , 926 554 
Q 910 553 , 910 552 
Q 910 551 , 926 551 
Q 941 550 , 968 550 
Q 979 550 , 989 550 
Q 1000 550 , 1010 550 
" fill="#545FFF" />
<path d="
M 994 547 
L 994 542 
L 965 542 
L 965 540 
L 1010 540 
L 1010 548 
Q 999 549 , 988 550 
Q 979 550 , 967 550 
Q 941 550 , 925 547 
Q 910 545 , 910 540 
Q 910 536 , 925 534 
Q 941 531 , 967 531 
Q 978 531 , 987 531 
Q 997 532 , 1007 533 
L 1007 535 
Q 994 534 , 986 534 
Q 977 533 , 968 533 
Q 947 533 , 936 535 
Q 926 537 , 926 540 
Q 926 544 , 936 546 
Q 947 548 , 968 548 
Q 977 548 , 984 548 
Q 991 547 , 994 547 
" fill="#F5C000" />
<path d="
M 910 498 
L 928 498 
L 928 517 
Q 928 522 , 936 524 
Q 943 527 , 960 527 
Q 977 527 , 985 524 
Q 992 522 , 992 517 
L 992 498 
L 1010 498 
L 1010 517 
Q 1010 524 , 997 527 
Q 985 530 , 960 530 
Q 936 530 , 923 527 
Q 910 524 , 910 517 
L 910 498 
" fill="#D21010" />
<path d="
M 960 400 
L 942 449 
L 976 449 
L 960 400 
M 953 378 
L 967 378 
L 1010 497 
L 994 497 
L 982 462 
L 938 462 
L 925 497 
L 910 497 
L 953 378 
" fill="#339541" />
<path d="
M 1115 548 
L 1115 549 
Q 1100 548 , 1092 548 
Q 1084 548 , 1074 548 
Q 1053 548 , 1043 549 
Q 1031 549 , 1031 551 
Q 1031 553 , 1043 553 
Q 1053 554 , 1074 554 
Q 1084 554 , 1092 554 
Q 1100 554 , 1115 553 
L 1115 554 
Q 1104 555 , 1094 555 
Q 1084 555 , 1073 555 
Q 1046 555 , 1031 554 
Q 1015 553 , 1015 551 
Q 1015 549 , 1031 548 
Q 1046 547 , 1073 547 
Q 1084 547 , 1094 547 
Q 1105 547 , 1115 548 
" fill="#545FFF" />
<path d="
M 1099 545 
L 1099 542 
L 1070 542 
L 1070 541 
L 1115 541 
L 1115 546 
Q 1104 546 , 1093 547 
Q 1084 547 , 1072 547 
Q 1046 547 , 1030 545 
Q 1015 544 , 1015 541 
Q 1015 539 , 1030 537 
Q 1046 536 , 1072 536 
Q 1083 536 , 1092 536 
Q 1102 536 , 1112 537 
L 1112 538 
Q 1099 538 , 1091 537 
Q 1082 537 , 1073 537 
Q 1052 537 , 1041 538 
Q 1031 539 , 1031 541 
Q 1031 543 , 1041 545 
Q 1052 546 , 1073 546 
Q 1082 546 , 1089 545 
Q 1096 545 , 1099 545 
" fill="#F5C000" />
<path d="
M 1065 524 
L 1047 530 
L 1081 530 
L 1065 524 
M 1058 522 
L 1072 522 
L 1115 535 
L 1099 535 
L 1087 531 
L 1043 531 
L 1030 535 
L 1015 535 
L 1058 522 
" fill="#339541" />
<path d="
M 1015 486 
L 1033 486 
L 1033 507 
Q 1033 513 , 1041 515 
Q 1048 518 , 1065 518 
Q 1082 518 , 1090 515 
Q 1097 513 , 1097 507 
L 1097 486 
L 1115 486 
L 1115 508 
Q 1115 514 , 1102 518 
Q 1090 522 , 1065 522 
Q 1041 522 , 1028 518 
Q 1015 514 , 1015 508 
L 1015 486 
" fill="#D21010" />
<path d="
M 1220 551 
L 1220 551 
Q 1205 551 , 1197 551 
Q 1189 551 , 1179 551 
Q 1158 551 , 1148 551 
Q 1136 552 , 1136 552 
Q 1136 553 , 1148 554 
Q 1158 554 , 1179 554 
Q 1189 554 , 1197 554 
Q 1205 554 , 1220 554 
L 1220 554 
Q 1209 555 , 1199 555 
Q 1189 555 , 1178 555 
Q 1151 555 , 1136 554 
Q 1120 554 , 1120 552 
Q 1120 551 , 1136 551 
Q 1151 550 , 1178 550 
Q 1189 550 , 1199 550 
Q 1210 550 , 1220 551 
" fill="#545FFF" />
<path d="
M 1204 548 
L 1204 546 
L 1175 546 
L 1175 545 
L 1220 545 
L 1220 549 
Q 1209 549 , 1198 549 
Q 1189 549 , 1177 549 
Q 1151 549 , 1135 548 
Q 1120 547 , 1120 546 
Q 1120 544 , 1135 543 
Q 1151 542 , 1177 542 
Q 1188 542 , 1197 542 
Q 1207 542 , 1217 543 
L 1217 543 
Q 1204 543 , 1196 543 
Q 1187 543 , 1178 543 
Q 1157 543 , 1146 544 
Q 1136 544 , 1136 546 
Q 1136 547 , 1146 548 
Q 1157 548 , 1178 548 
Q 1187 548 , 1194 548 
Q 1201 548 , 1204 548 
" fill="#F5C000" />
<path d="
M 1170 535 
L 1152 539 
L 1186 539 
L 1170 535 
M 1163 534 
L 1177 534 
L 1220 542 
L 1204 542 
L 1192 539 
L 1148 539 
L 1135 542 
L 1120 542 
L 1163 534 
" fill="#339541" />
<path d="
M 1120 518 
L 1138 518 
L 1138 527 
Q 1138 530 , 1146 531 
Q 1153 532 , 1170 532 
Q 1187 532 , 1195 531 
Q 1202 530 , 1202 527 
L 1202 518 
L 1220 518 
L 1220 528 
Q 1220 531 , 1207 532 
Q 1195 534 , 1170 534 
Q 1146 534 , 1133 532 
Q 1120 531 , 1120 528 
L 1120 518 
" fill="#D21010" />
<path d="
M 1325 553 
L 1325 553 
Q 1310 553 , 1302 553 
Q 1294 553 , 1284 553 
Q 1263 553 , 1253 553 
Q 1241 554 , 1241 554 
Q 1241 554 , 1253 554 
Q 1263 555 , 1284 555 
Q 1294 555 , 1302 555 
Q 1310 554 , 1325 554 
L 1325 555 
Q 1314 555 , 1304 555 
Q 1294 555 , 1283 555 
Q 1256 555 , 1241 555 
Q 1225 554 , 1225 554 
Q 1225 553 , 1241 553 
Q 1256 553 , 1283 553 
Q 1294 553 , 1304 553 
Q 1315 553 , 1325 553 
" fill="#545FFF" />
<path d="
M 1309 553 
L 1309 552 
L 1280 552 
L 1280 552 
L 1325 552 
L 1325 553 
Q 1314 553 , 1303 553 
Q 1294 553 , 1282 553 
Q 1256 553 , 1240 553 
Q 1225 552 , 1225 552 
Q 1225 552 , 1240 551 
Q 1256 551 , 1282 551 
Q 1293 551 , 1302 551 
Q 1312 551 , 1322 551 
L 1322 551 
Q 1309 551 , 1301 551 
Q 1292 551 , 1283 551 
Q 1262 551 , 1251 551 
Q 1241 552 , 1241 552 
Q 1241 552 , 1251 553 
Q 1262 553 , 1283 553 
Q 1292 553 , 1299 553 
Q 1306 553 , 1309 553 
" fill="#F5C000" />
<path d="
M 1275 548 
L 1257 549 
L 1291 549 
L 1275 548 
M 1268 548 
L 1282 548 
L 1325 550 
L 1309 550 
L 1297 550 
L 1253 550 
L 1240 550 
L 1225 550 
L 1268 548 
" fill="#339541" />
<path d="
M 1225 544 
L 1243 544 
L 1243 546 
Q 1243 546 , 1251 547 
Q 1258 547 , 1275 547 
Q 1292 547 , 1300 547 
Q 1307 546 , 1307 546 
L 1307 544 
L 1325 544 
L 1325 546 
Q 1325 546 , 1312 547 
Q 1300 547 , 1275 547 
Q 1251 547 , 1238 547 
Q 1225 546 , 1225 546 
L 1225 544 
" fill="#D21010" />
<path d="M 65 55 L 65 555 " stroke="black" stroke-width="1.5"/>
<path d="M 55 555 L 65 555 " stroke="black" stroke-width="4"/>
<text text-anchor="end" x="50" y="555" font-size="50" alignment-baseline="middle">0</text>
<path d="M 55 305 L 65 305 " stroke="black" stroke-width="4"/>
<text text-anchor="end" x="50" y="305" font-size="50" alignment-baseline="middle">1</text>
<path d="M 55 55 L 65 55 " stroke="black" stroke-width="4"/>
<text text-anchor="end" x="50" y="55" font-size="50" alignment-baseline="middle">2</text>
<text text-anchor="middle" x="697" y="50" font-size="50" alignment-baseline="baseline"></text>
G<path d="
M 160 582 
L 126 595 
L 160 608 
L 157 611 
L 123 598 
L 123 623 
L 117 623 
L 117 599 
L 83 611 
L 80 608 
L 114 595 
L 80 582 
L 83 579 
L 117 591 
L 117 567 
L 123 567 
L 123 591 
L 157 579 
L 160 582 
" fill="black" />
<path d="
" fill="black" />
<path d="
M 211 567 
L 238 567 
L 238 623 
L 211 623 
L 211 567 
" fill="black" />
<path d="
" fill="black" />
<path d="
" fill="black" />
<path d="
M 316 567 
L 343 567 
L 343 623 
L 316 623 
L 316 567 
" fill="black" />
<path d="
" fill="black" />
<path d="
" fill="black" />
<path d="
M 421 567 
L 448 567 
L 448 623 
L 421 623 
L 421 567 
" fill="black" />
<path d="
" fill="black" />
<path d="
" fill="black" />
<path d="
M 526 567 
L 553 567 
L 553 623 
L 526 623 
L 526 567 
" fill="black" />
<path d="
" fill="black" />
<path d="
" fill="black" />
<path d="
M 631 567 
L 658 567 
L 658 623 
L 631 623 
L 631 567 
" fill="black" />
<path d="
" fill="black" />
<path d="
" fill="black" />
<path d="
M 736 567 
L 763 567 
L 763 623 
L 736 623 
L 736 567 
" fill="black" />
<path d="
" fill="black" />
<path d="
" fill="black" />
<path d="
M 841 567 
L 868 567 
L 868 623 
L 841 623 
L 841 567 
" fill="black" />
<path d="
" fill="black" />
<path d="
" fill="black" />
<path d="
M 946 567 
L 973 567 
L 973 623 
L 946 623 
L 946 567 
" fill="black" />
<path d="
" fill="black" />
<path d="
" fill="black" />
<path d="
M 1051 567 
L 1078 567 
L 1078 623 
L 1051 623 
L 1051 567 
" fill="black" />
<path d="
" fill="black" />
<path d="
" fill="black" />
<path d="
M 1156 567 
L 1183 567 
L 1183 623 
L 1156 623 
L 1156 567 
" fill="black" />
<path d="
" fill="black" />
<path d="
M 1315 582 
L 1281 595 
L 1315 608 
L 1312 611 
L 1278 598 
L 1278 623 
L 1272 623 
L 1272 599 
L 1238 611 
L 1235 608 
L 1269 595 
L 1235 582 
L 1238 579 
L 1272 591 
L 1272 567 
L 1278 567 
L 1278 591 
L 1312 579 
L 1315 582 
" fill="black" />
</svg>
