<svg xmlns="http://www.w3.org/2000/svg"
viewBox="0 0 1435 635">
<path d="
M 120 554 
L 102 554 
L 136 554 
L 120 554 
M 113 554 
L 127 554 
L 170 555 
L 154 555 
L 142 554 
L 98 554 
L 85 555 
L 70 555 
L 113 554 
" fill="#339541" />
<path d="
M 70 553 
L 88 553 
L 88 553 
Q 88 553 , 96 554 
Q 103 554 , 120 554 
Q 137 554 , 145 554 
Q 152 553 , 152 553 
L 152 553 
L 170 553 
L 170 553 
Q 170 554 , 157 554 
Q 145 554 , 120 554 
Q 96 554 , 83 554 
Q 70 554 , 70 553 
L 70 553 
" fill="#D21010" />
<path d="
M 170 552 
L 170 552 
Q 155 552 , 147 552 
Q 139 552 , 129 552 
Q 108 552 , 98 552 
Q 86 552 , 86 552 
Q 86 552 , 98 553 
Q 108 553 , 129 553 
Q 139 553 , 147 553 
Q 155 553 , 170 553 
L 170 553 
Q 159 553 , 149 553 
Q 139 553 , 128 553 
Q 101 553 , 86 553 
Q 70 553 , 70 552 
Q 70 552 , 86 552 
Q 101 552 , 128 552 
Q 139 552 , 149 552 
Q 160 552 , 170 552 
" fill="#545FFF" />
<path d="
M 154 552 
L 154 551 
L 125 551 
L 125 551 
L 170 551 
L 170 552 
Q 159 552 , 148 552 
Q 139 552 , 127 552 
Q 101 552 , 85 552 
Q 70 552 , 70 551 
Q 70 551 , 85 551 
Q 101 551 , 127 551 
Q 138 551 , 147 551 
Q 157 551 , 167 551 
L 167 551 
Q 154 551 , 146 551 
Q 137 551 , 128 551 
Q 107 551 , 96 551 
Q 86 551 , 86 551 
Q 86 551 , 96 552 
Q 107 552 , 128 552 
Q 137 552 , 144 552 
Q 151 552 , 154 552 
" fill="#F5C000" />
<path d="
M 225 552 
L 207 553 
L 241 553 
L 225 552 
M 218 551 
L 232 551 
L 275 555 
L 259 555 
L 247 554 
L 203 554 
L 190 555 
L 175 555 
L 218 551 
" fill="#339541" />
<path d="
M 275 541 
L 275 543 
Q 260 542 , 252 541 
Q 244 541 , 234 541 
Q 213 541 , 203 542 
Q 191 543 , 191 545 
Q 191 547 , 203 548 
Q 213 549 , 234 549 
Q 244 549 , 252 549 
Q 260 549 , 275 548 
L 275 549 
Q 264 550 , 254 550 
Q 244 550 , 233 550 
Q 206 550 , 191 549 
Q 175 548 , 175 545 
Q 175 543 , 191 541 
Q 206 540 , 233 540 
Q 244 540 , 254 540 
Q 265 541 , 275 541 
" fill="#545FFF" />
<path d="
M 259 532 
L 259 517 
L 230 517 
L 230 511 
L 275 511 
L 275 535 
Q 264 538 , 253 539 
Q 244 540 , 232 540 
Q 206 540 , 190 532 
Q 175 525 , 175 512 
Q 175 500 , 190 492 
Q 206 485 , 232 485 
Q 243 485 , 252 486 
Q 262 487 , 272 489 
L 272 496 
Q 259 493 , 251 492 
Q 242 492 , 233 492 
Q 212 492 , 201 497 
Q 191 502 , 191 512 
Q 191 523 , 201 528 
Q 212 534 , 233 534 
Q 242 534 , 249 533 
Q 256 532 , 259 532 
" fill="#F5C000" />
<path d="
M 175 419 
L 193 419 
L 193 457 
Q 193 468 , 201 473 
Q 208 477 , 225 477 
Q 242 477 , 250 473 
Q 257 468 , 257 457 
L 257 419 
L 275 419 
L 275 459 
Q 275 471 , 262 478 
Q 250 484 , 225 484 
Q 201 484 , 188 478 
Q 175 471 , 175 459 
L 175 419 
" fill="#D21010" />
<path d="
M 330 552 
L 312 553 
L 346 553 
L 330 552 
M 323 551 
L 337 551 
L 380 555 
L 364 555 
L 352 554 
L 308 554 
L 295 555 
L 280 555 
L 323 551 
" fill="#339541" />
<path d="
M 380 529 
L 380 532 
Q 365 530 , 357 529 
Q 349 529 , 339 529 
Q 318 529 , 308 531 
Q 296 534 , 296 538 
Q 296 543 , 308 546 
Q 318 548 , 339 548 
Q 349 548 , 357 548 
Q 365 547 , 380 544 
L 380 548 
Q 369 550 , 359 550 
Q 349 551 , 338 551 
Q 311 551 , 296 548 
Q 280 544 , 280 538 
Q 280 533 , 296 529 
Q 311 526 , 338 526 
Q 349 526 , 359 527 
Q 370 527 , 380 529 
" fill="#545FFF" />
<path d="
M 280 500 
L 298 500 
L 298 515 
Q 298 519 , 306 521 
Q 313 523 , 330 523 
Q 347 523 , 355 521 
Q 362 519 , 362 515 
L 362 500 
L 380 500 
L 380 516 
Q 380 521 , 367 523 
Q 355 526 , 330 526 
Q 306 526 , 293 523 
Q 280 521 , 280 516 
L 280 500 
" fill="#D21010" />
<path d="
M 364 477 
L 364 436 
L 335 436 
L 335 418 
L 380 418 
L 380 488 
Q 369 494 , 358 497 
Q 349 500 , 337 500 
Q 311 500 , 295 479 
Q 280 458 , 280 422 
Q 280 386 , 295 365 
Q 311 344 , 337 344 
Q 348 344 , 357 347 
Q 367 350 , 377 357 
L 377 377 
Q 364 368 , 356 365 
Q 347 363 , 338 363 
Q 317 363 , 306 377 
Q 296 392 , 296 422 
Q 296 453 , 306 468 
Q 317 482 , 338 482 
Q 347 482 , 354 481 
Q 361 479 , 364 477 
" fill="#F5C000" />
<path d="
M 435 551 
L 417 553 
L 451 553 
L 435 551 
M 428 550 
L 442 550 
L 485 554 
L 469 554 
L 457 553 
L 413 553 
L 400 554 
L 385 554 
L 428 550 
" fill="#339541" />
<path d="
M 485 537 
L 485 540 
Q 470 538 , 462 538 
Q 454 538 , 444 538 
Q 423 538 , 413 539 
Q 401 540 , 401 543 
Q 401 546 , 413 547 
Q 423 548 , 444 548 
Q 454 548 , 462 548 
Q 470 548 , 485 546 
L 485 549 
Q 474 549 , 464 550 
Q 454 550 , 443 550 
Q 416 550 , 401 548 
Q 385 546 , 385 543 
Q 385 540 , 401 538 
Q 416 536 , 443 536 
Q 454 536 , 464 536 
Q 475 537 , 485 537 
" fill="#545FFF" />
<path d="
M 469 530 
L 469 520 
L 440 520 
L 440 515 
L 485 515 
L 485 532 
Q 474 534 , 463 535 
Q 454 535 , 442 535 
Q 416 535 , 400 530 
Q 385 525 , 385 516 
Q 385 507 , 400 502 
Q 416 497 , 442 497 
Q 453 497 , 462 498 
Q 472 498 , 482 500 
L 482 505 
Q 469 503 , 461 502 
Q 452 502 , 443 502 
Q 422 502 , 411 505 
Q 401 509 , 401 516 
Q 401 524 , 411 528 
Q 422 531 , 443 531 
Q 452 531 , 459 531 
Q 466 530 , 469 530 
" fill="#F5C000" />
<path d="
M 385 409 
L 403 409 
L 403 461 
Q 403 475 , 411 481 
Q 418 487 , 435 487 
Q 452 487 , 460 481 
Q 467 475 , 467 461 
L 467 409 
L 485 409 
L 485 462 
Q 485 479 , 472 487 
Q 460 496 , 435 496 
Q 411 496 , 398 487 
Q 385 479 , 385 462 
L 385 409 
" fill="#D21010" />
<path d="
M 540 552 
L 522 553 
L 556 553 
L 540 552 
M 533 551 
L 547 551 
L 590 554 
L 574 554 
L 562 553 
L 518 553 
L 505 554 
L 490 554 
L 533 551 
" fill="#339541" />
<path d="
M 590 530 
L 590 534 
Q 575 532 , 567 531 
Q 559 530 , 549 530 
Q 528 530 , 518 533 
Q 506 535 , 506 539 
Q 506 543 , 518 546 
Q 528 548 , 549 548 
Q 559 548 , 567 547 
Q 575 547 , 590 544 
L 590 548 
Q 579 549 , 569 550 
Q 559 550 , 548 550 
Q 521 550 , 506 547 
Q 490 544 , 490 539 
Q 490 534 , 506 531 
Q 521 528 , 548 528 
Q 559 528 , 569 529 
Q 580 529 , 590 530 
" fill="#545FFF" />
<path d="
M 490 504 
L 508 504 
L 508 518 
Q 508 521 , 516 523 
Q 523 525 , 540 525 
Q 557 525 , 565 523 
Q 572 521 , 572 518 
L 572 504 
L 590 504 
L 590 518 
Q 590 522 , 577 525 
Q 565 527 , 540 527 
Q 516 527 , 503 525 
Q 490 522 , 490 518 
L 490 504 
" fill="#D21010" />
<path d="
M 574 494 
L 574 478 
L 545 478 
L 545 471 
L 590 471 
L 590 498 
Q 579 501 , 568 502 
Q 559 503 , 547 503 
Q 521 503 , 505 495 
Q 490 487 , 490 473 
Q 490 458 , 505 450 
Q 521 442 , 547 442 
Q 558 442 , 567 443 
Q 577 444 , 587 447 
L 587 455 
Q 574 451 , 566 450 
Q 557 449 , 548 449 
Q 527 449 , 516 455 
Q 506 461 , 506 473 
Q 506 485 , 516 490 
Q 527 496 , 548 496 
Q 557 496 , 564 496 
Q 571 495 , 574 494 
" fill="#F5C000" />
<path d="
M 645 552 
L 627 553 
L 661 553 
L 645 552 
M 638 551 
L 652 551 
L 695 554 
L 679 554 
L 667 553 
L 623 553 
L 610 554 
L 595 554 
L 638 551 
" fill="#339541" />
<path d="
M 679 548 
L 679 545 
L 650 545 
L 650 543 
L 695 543 
L 695 549 
Q 684 550 , 673 550 
Q 664 550 , 652 550 
Q 626 550 , 610 549 
Q 595 547 , 595 544 
Q 595 541 , 610 539 
Q 626 537 , 652 537 
Q 663 537 , 672 537 
Q 682 537 , 692 538 
L 692 540 
Q 679 539 , 671 539 
Q 662 539 , 653 539 
Q 632 539 , 621 540 
Q 611 541 , 611 544 
Q 611 546 , 621 548 
Q 632 549 , 653 549 
Q 662 549 , 669 549 
Q 676 549 , 679 548 
" fill="#F5C000" />
<path d="
M 595 493 
L 613 493 
L 613 518 
Q 613 525 , 621 528 
Q 628 531 , 645 531 
Q 662 531 , 670 528 
Q 677 525 , 677 518 
L 677 493 
L 695 493 
L 695 519 
Q 695 527 , 682 532 
Q 670 536 , 645 536 
Q 621 536 , 608 532 
Q 595 527 , 595 519 
L 595 493 
" fill="#D21010" />
<path d="
M 695 446 
L 695 454 
Q 680 449 , 672 448 
Q 664 447 , 654 447 
Q 633 447 , 623 452 
Q 611 457 , 611 467 
Q 611 477 , 623 482 
Q 633 487 , 654 487 
Q 664 487 , 672 485 
Q 680 484 , 695 479 
L 695 487 
Q 684 490 , 674 491 
Q 664 492 , 653 492 
Q 626 492 , 611 485 
Q 595 478 , 595 467 
Q 595 455 , 611 448 
Q 626 441 , 653 441 
Q 664 441 , 674 442 
Q 685 444 , 695 446 
" fill="#545FFF" />
<path d="
M 750 554 
L 732 554 
L 766 554 
L 750 554 
M 743 554 
L 757 554 
L 800 555 
L 784 555 
L 772 554 
L 728 554 
L 715 555 
L 700 555 
L 743 554 
" fill="#339541" />
<path d="
M 700 553 
L 718 553 
L 718 553 
Q 718 553 , 726 554 
Q 733 554 , 750 554 
Q 767 554 , 775 554 
Q 782 553 , 782 553 
L 782 553 
L 800 553 
L 800 553 
Q 800 554 , 787 554 
Q 775 554 , 750 554 
Q 726 554 , 713 554 
Q 700 554 , 700 553 
L 700 553 
" fill="#D21010" />
<path d="
M 800 552 
L 800 552 
Q 785 552 , 777 552 
Q 769 552 , 759 552 
Q 738 552 , 728 552 
Q 716 552 , 716 552 
Q 716 552 , 728 553 
Q 738 553 , 759 553 
Q 769 553 , 777 553 
Q 785 553 , 800 553 
L 800 553 
Q 789 553 , 779 553 
Q 769 553 , 758 553 
Q 731 553 , 716 553 
Q 700 553 , 700 552 
Q 700 552 , 716 552 
Q 731 552 , 758 552 
Q 769 552 , 779 552 
Q 790 552 , 800 552 
" fill="#545FFF" />
<path d="
M 784 552 
L 784 551 
L 755 551 
L 755 551 
L 800 551 
L 800 552 
Q 789 552 , 778 552 
Q 769 552 , 757 552 
Q 731 552 , 715 552 
Q 700 552 , 700 551 
Q 700 551 , 715 551 
Q 731 551 , 757 551 
Q 768 551 , 777 551 
Q 787 551 , 797 551 
L 797 551 
Q 784 551 , 776 551 
Q 767 551 , 758 551 
Q 737 551 , 726 551 
Q 716 551 , 716 551 
Q 716 551 , 726 552 
Q 737 552 , 758 552 
Q 767 552 , 774 552 
Q 781 552 , 784 552 
" fill="#F5C000" />
<path d="
M 855 552 
L 837 554 
L 871 554 
L 855 552 
M 848 552 
L 862 552 
L 905 555 
L 889 555 
L 877 554 
L 833 554 
L 820 555 
L 805 555 
L 848 552 
" fill="#339541" />
<path d="
M 889 549 
L 889 545 
L 860 545 
L 860 543 
L 905 543 
L 905 550 
Q 894 551 , 883 551 
Q 874 552 , 862 552 
Q 836 552 , 820 549 
Q 805 547 , 805 543 
Q 805 539 , 820 537 
Q 836 535 , 862 535 
Q 873 535 , 882 535 
Q 892 536 , 902 536 
L 902 538 
Q 889 538 , 881 537 
Q 872 537 , 863 537 
Q 842 537 , 831 539 
Q 821 540 , 821 543 
Q 821 547 , 831 548 
Q 842 550 , 863 550 
Q 872 550 , 879 550 
Q 886 549 , 889 549 
" fill="#F5C000" />
<path d="
M 905 499 
L 905 505 
Q 890 501 , 882 500 
Q 874 499 , 864 499 
Q 843 499 , 833 503 
Q 821 507 , 821 514 
Q 821 522 , 833 526 
Q 843 530 , 864 530 
Q 874 530 , 882 529 
Q 890 528 , 905 524 
L 905 530 
Q 894 533 , 884 534 
Q 874 534 , 863 534 
Q 836 534 , 821 529 
Q 805 524 , 805 515 
Q 805 506 , 821 500 
Q 836 495 , 863 495 
Q 874 495 , 884 496 
Q 895 497 , 905 499 
" fill="#545FFF" />
<path d="
M 805 347 
L 823 347 
L 823 434 
Q 823 459 , 831 469 
Q 838 478 , 855 478 
Q 872 478 , 880 469 
Q 887 459 , 887 434 
L 887 347 
L 905 347 
L 905 437 
Q 905 465 , 892 480 
Q 880 495 , 855 495 
Q 831 495 , 818 480 
Q 805 465 , 805 437 
L 805 347 
" fill="#D21010" />
<path d="
M 960 552 
L 942 553 
L 976 553 
L 960 552 
M 953 552 
L 967 552 
L 1010 554 
L 994 554 
L 982 554 
L 938 554 
L 925 554 
L 910 554 
L 953 552 
" fill="#339541" />
<path d="
M 994 549 
L 994 544 
L 965 544 
L 965 542 
L 1010 542 
L 1010 550 
Q 999 551 , 988 551 
Q 979 551 , 967 551 
Q 941 551 , 925 549 
Q 910 546 , 910 542 
Q 910 538 , 925 535 
Q 941 533 , 967 533 
Q 978 533 , 987 533 
Q 997 534 , 1007 534 
L 1007 537 
Q 994 536 , 986 535 
Q 977 535 , 968 535 
Q 947 535 , 936 537 
Q 926 539 , 926 542 
Q 926 546 , 936 548 
Q 947 549 , 968 549 
Q 977 549 , 984 549 
Q 991 549 , 994 549 
" fill="#F5C000" />
<path d="
M 910 509 
L 928 509 
L 928 523 
Q 928 526 , 936 528 
Q 943 530 , 960 530 
Q 977 530 , 985 528 
Q 992 526 , 992 523 
L 992 509 
L 1010 509 
L 1010 523 
Q 1010 527 , 997 530 
Q 985 532 , 960 532 
Q 936 532 , 923 530 
Q 910 527 , 910 523 
L 910 509 
" fill="#D21010" />
<path d="
M 1010 487 
L 1010 490 
Q 995 488 , 987 487 
Q 979 487 , 969 487 
Q 948 487 , 938 489 
Q 926 492 , 926 496 
Q 926 501 , 938 503 
Q 948 506 , 969 506 
Q 979 506 , 987 505 
Q 995 505 , 1010 502 
L 1010 506 
Q 999 507 , 989 508 
Q 979 509 , 968 509 
Q 941 509 , 926 505 
Q 910 502 , 910 496 
Q 910 491 , 926 487 
Q 941 484 , 968 484 
Q 979 484 , 989 485 
Q 1000 485 , 1010 487 
" fill="#545FFF" />
<path d="
M 1065 551 
L 1047 553 
L 1081 553 
L 1065 551 
M 1058 550 
L 1072 550 
L 1115 555 
L 1099 555 
L 1087 553 
L 1043 553 
L 1030 555 
L 1015 555 
L 1058 550 
" fill="#339541" />
<path d="
M 1099 549 
L 1099 547 
L 1070 547 
L 1070 546 
L 1115 546 
L 1115 549 
Q 1104 550 , 1093 550 
Q 1084 550 , 1072 550 
Q 1046 550 , 1030 549 
Q 1015 548 , 1015 546 
Q 1015 544 , 1030 543 
Q 1046 542 , 1072 542 
Q 1083 542 , 1092 542 
Q 1102 542 , 1112 543 
L 1112 544 
Q 1099 543 , 1091 543 
Q 1082 543 , 1073 543 
Q 1052 543 , 1041 544 
Q 1031 544 , 1031 546 
Q 1031 548 , 1041 548 
Q 1052 549 , 1073 549 
Q 1082 549 , 1089 549 
Q 1096 549 , 1099 549 
" fill="#F5C000" />
<path d="
M 1115 504 
L 1115 510 
Q 1100 506 , 1092 505 
Q 1084 504 , 1074 504 
Q 1053 504 , 1043 508 
Q 1031 512 , 1031 520 
Q 1031 528 , 1043 532 
Q 1053 537 , 1074 537 
Q 1084 537 , 1092 535 
Q 1100 534 , 1115 530 
L 1115 537 
Q 1104 539 , 1094 540 
Q 1084 541 , 1073 541 
Q 1046 541 , 1031 535 
Q 1015 530 , 1015 520 
Q 1015 510 , 1031 505 
Q 1046 499 , 1073 499 
Q 1084 499 , 1094 500 
Q 1105 501 , 1115 504 
" fill="#545FFF" />
<path d="
M 1015 290 
L 1033 290 
L 1033 413 
Q 1033 447 , 1041 462 
Q 1048 475 , 1065 475 
Q 1082 475 , 1090 462 
Q 1097 447 , 1097 413 
L 1097 290 
L 1115 290 
L 1115 416 
Q 1115 456 , 1102 477 
Q 1090 499 , 1065 499 
Q 1041 499 , 1028 477 
Q 1015 456 , 1015 416 
L 1015 290 
" fill="#D21010" />
<path d="
M 1170 552 
L 1152 553 
L 1186 553 
L 1170 552 
M 1163 552 
L 1177 552 
L 1220 554 
L 1204 554 
L 1192 553 
L 1148 553 
L 1135 554 
L 1120 554 
L 1163 552 
" fill="#339541" />
<path d="
M 1120 526 
L 1138 526 
L 1138 541 
Q 1138 545 , 1146 547 
Q 1153 549 , 1170 549 
Q 1187 549 , 1195 547 
Q 1202 545 , 1202 541 
L 1202 526 
L 1220 526 
L 1220 542 
Q 1220 546 , 1207 549 
Q 1195 552 , 1170 552 
Q 1146 552 , 1133 549 
Q 1120 546 , 1120 542 
L 1120 526 
" fill="#D21010" />
<path d="
M 1204 522 
L 1204 515 
L 1175 515 
L 1175 512 
L 1220 512 
L 1220 524 
Q 1209 525 , 1198 525 
Q 1189 526 , 1177 526 
Q 1151 526 , 1135 522 
Q 1120 519 , 1120 513 
Q 1120 507 , 1135 503 
Q 1151 500 , 1177 500 
Q 1188 500 , 1197 500 
Q 1207 501 , 1217 502 
L 1217 505 
Q 1204 504 , 1196 503 
Q 1187 503 , 1178 503 
Q 1157 503 , 1146 505 
Q 1136 508 , 1136 513 
Q 1136 518 , 1146 520 
Q 1157 523 , 1178 523 
Q 1187 523 , 1194 523 
Q 1201 522 , 1204 522 
" fill="#F5C000" />
<path d="
M 1220 437 
L 1220 448 
Q 1205 441 , 1197 440 
Q 1189 438 , 1179 438 
Q 1158 438 , 1148 444 
Q 1136 451 , 1136 464 
Q 1136 478 , 1148 485 
Q 1158 492 , 1179 492 
Q 1189 492 , 1197 490 
Q 1205 489 , 1220 482 
L 1220 493 
Q 1209 497 , 1199 498 
Q 1189 500 , 1178 500 
Q 1151 500 , 1136 490 
Q 1120 481 , 1120 465 
Q 1120 449 , 1136 440 
Q 1151 430 , 1178 430 
Q 1189 430 , 1199 432 
Q 1210 433 , 1220 437 
" fill="#545FFF" />
<path d="
M 1275 551 
L 1257 553 
L 1291 553 
L 1275 551 
M 1268 550 
L 1282 550 
L 1325 555 
L 1309 555 
L 1297 554 
L 1253 554 
L 1240 555 
L 1225 555 
L 1268 550 
" fill="#339541" />
<path d="
M 1309 548 
L 1309 547 
L 1280 547 
L 1280 546 
L 1325 546 
L 1325 549 
Q 1314 549 , 1303 549 
Q 1294 549 , 1282 549 
Q 1256 549 , 1240 548 
Q 1225 548 , 1225 547 
Q 1225 545 , 1240 545 
Q 1256 544 , 1282 544 
Q 1293 544 , 1302 544 
Q 1312 544 , 1322 544 
L 1322 545 
Q 1309 545 , 1301 545 
Q 1292 545 , 1283 545 
Q 1262 545 , 1251 545 
Q 1241 546 , 1241 547 
Q 1241 548 , 1251 548 
Q 1262 549 , 1283 549 
Q 1292 549 , 1299 549 
Q 1306 549 , 1309 548 
" fill="#F5C000" />
<path d="
M 1225 483 
L 1243 483 
L 1243 518 
Q 1243 528 , 1251 532 
Q 1258 536 , 1275 536 
Q 1292 536 , 1300 532 
Q 1307 528 , 1307 518 
L 1307 483 
L 1325 483 
L 1325 519 
Q 1325 531 , 1312 537 
Q 1300 543 , 1275 543 
Q 1251 543 , 1238 537 
Q 1225 531 , 1225 519 
L 1225 483 
" fill="#D21010" />
<path d="
M 1325 363 
L 1325 384 
Q 1310 371 , 1302 367 
Q 1294 364 , 1284 364 
Q 1263 364 , 1253 377 
Q 1241 390 , 1241 416 
Q 1241 442 , 1253 455 
Q 1263 468 , 1284 468 
Q 1294 468 , 1302 465 
Q 1310 461 , 1325 448 
L 1325 469 
Q 1314 476 , 1304 479 
Q 1294 482 , 1283 482 
Q 1256 482 , 1241 464 
Q 1225 446 , 1225 416 
Q 1225 385 , 1241 367 
Q 1256 349 , 1283 349 
Q 1294 349 , 1304 352 
Q 1315 356 , 1325 363 
" fill="#545FFF" />
<path d="
M 1380 554 
L 1362 554 
L 1396 554 
L 1380 554 
M 1373 554 
L 1387 554 
L 1430 555 
L 1414 555 
L 1402 554 
L 1358 554 
L 1345 555 
L 1330 555 
L 1373 554 
" fill="#339541" />
<path d="
M 1330 553 
L 1348 553 
L 1348 553 
Q 1348 553 , 1356 554 
Q 1363 554 , 1380 554 
Q 1397 554 , 1405 554 
Q 1412 553 , 1412 553 
L 1412 553 
L 1430 553 
L 1430 553 
Q 1430 554 , 1417 554 
Q 1405 554 , 1380 554 
Q 1356 554 , 1343 554 
Q 1330 554 , 1330 553 
L 1330 553 
" fill="#D21010" />
<path d="
M 1430 552 
L 1430 552 
Q 1415 552 , 1407 552 
Q 1399 552 , 1389 552 
Q 1368 552 , 1358 552 
Q 1346 552 , 1346 552 
Q 1346 552 , 1358 553 
Q 1368 553 , 1389 553 
Q 1399 553 , 1407 553 
Q 1415 553 , 1430 553 
L 1430 553 
Q 1419 553 , 1409 553 
Q 1399 553 , 1388 553 
Q 1361 553 , 1346 553 
Q 1330 553 , 1330 552 
Q 1330 552 , 1346 552 
Q 1361 552 , 1388 552 
Q 1399 552 , 1409 552 
Q 1420 552 , 1430 552 
" fill="#545FFF" />
<path d="
M 1414 552 
L 1414 551 
L 1385 551 
L 1385 551 
L 1430 551 
L 1430 552 
Q 1419 552 , 1408 552 
Q 1399 552 , 1387 552 
Q 1361 552 , 1345 552 
Q 1330 552 , 1330 551 
Q 1330 551 , 1345 551 
Q 1361 551 , 1387 551 
Q 1398 551 , 1407 551 
Q 1417 551 , 1427 551 
L 1427 551 
Q 1414 551 , 1406 551 
Q 1397 551 , 1388 551 
Q 1367 551 , 1356 551 
Q 1346 551 , 1346 551 
Q 1346 551 , 1356 552 
Q 1367 552 , 1388 552 
Q 1397 552 , 1404 552 
Q 1411 552 , 1414 552 
" fill="#F5C000" />
<path d="M 65 55 L 65 555 " stroke="black" stroke-width="1.5"/>
<path d="M 55 555 L 65 555 " stroke="black" stroke-width="4"/>
<text text-anchor="end" x="50" y="555" font-size="50" alignment-baseline="middle">0</text>
<path d="M 55 305 L 65 305 " stroke="black" stroke-width="4"/>
<text text-anchor="end" x="50" y="305" font-size="50" alignment-baseline="middle">1</text>
<path d="M 55 55 L 65 55 " stroke="black" stroke-width="4"/>
<text text-anchor="end" x="50" y="55" font-size="50" alignment-baseline="middle">2</text>
<text text-anchor="middle" x="750" y="50" font-size="50" alignment-baseline="baseline"></text>
G<path d="
M 160 582 
L 126 595 
L 160 608 
L 157 611 
L 123 598 
L 123 623 
L 117 623 
L 117 599 
L 83 611 
L 80 608 
L 114 595 
L 80 582 
L 83 579 
L 117 591 
L 117 567 
L 123 567 
L 123 591 
L 157 579 
L 160 582 
" fill="black" />
<path d="
" fill="black" />
<path d="
M 211 567 
L 238 567 
L 238 623 
L 211 623 
L 211 567 
" fill="black" />
<path d="
" fill="black" />
<path d="
" fill="black" />
<path d="
M 316 567 
L 343 567 
L 343 623 
L 316 623 
L 316 567 
" fill="black" />
<path d="
" fill="black" />
<path d="
" fill="black" />
<path d="
M 421 567 
L 448 567 
L 448 623 
L 421 623 
L 421 567 
" fill="black" />
<path d="
" fill="black" />
<path d="
" fill="black" />
<path d="
M 526 567 
L 553 567 
L 553 623 
L 526 623 
L 526 567 
" fill="black" />
<path d="
" fill="black" />
<path d="
" fill="black" />
<path d="
M 617 567 
L 633 567 
L 633 623 
L 617 623 
L 617 567 
" fill="black" />
<path d="
" fill="black" />
<path d="
M 669 593 
Q 671 594 , 672 597 
Q 673 601 , 673 606 
Q 673 614 , 671 618 
Q 669 623 , 664 623 
Q 662 623 , 661 622 
Q 659 621 , 657 619 
L 657 613 
Q 659 617 , 660 618 
Q 662 619 , 664 619 
Q 667 619 , 669 616 
Q 671 613 , 671 606 
Q 671 601 , 669 598 
Q 668 595 , 664 595 
L 661 595 
L 661 591 
L 665 591 
Q 667 591 , 669 589 
Q 670 586 , 670 582 
Q 670 577 , 669 574 
Q 667 571 , 664 571 
Q 663 571 , 661 572 
Q 660 573 , 658 575 
L 658 571 
Q 660 569 , 662 568 
Q 663 567 , 665 567 
Q 669 567 , 671 571 
Q 672 575 , 672 581 
Q 672 586 , 671 589 
Q 671 592 , 669 593 
" fill="black" />
<path d="
M 685 571 
Q 682 571 , 681 577 
Q 679 583 , 679 595 
Q 679 607 , 681 613 
Q 682 619 , 685 619 
Q 688 619 , 689 613 
Q 691 607 , 691 595 
Q 691 583 , 689 577 
Q 688 571 , 685 571 
M 685 567 
Q 689 567 , 691 573 
Q 693 580 , 693 595 
Q 693 610 , 691 617 
Q 689 623 , 685 623 
Q 681 623 , 679 617 
Q 677 610 , 677 595 
Q 677 580 , 679 573 
Q 681 567 , 685 567 
" fill="black" />
<path d="
M 790 582 
L 756 595 
L 790 608 
L 787 611 
L 753 598 
L 753 623 
L 747 623 
L 747 599 
L 713 611 
L 710 608 
L 744 595 
L 710 582 
L 713 579 
L 747 591 
L 747 567 
L 753 567 
L 753 591 
L 787 579 
L 790 582 
" fill="black" />
<path d="
" fill="black" />
<path d="
M 841 567 
L 868 567 
L 868 623 
L 841 623 
L 841 567 
" fill="black" />
<path d="
" fill="black" />
<path d="
" fill="black" />
<path d="
M 946 567 
L 973 567 
L 973 623 
L 946 623 
L 946 567 
" fill="black" />
<path d="
" fill="black" />
<path d="
" fill="black" />
<path d="
M 1051 567 
L 1078 567 
L 1078 623 
L 1051 623 
L 1051 567 
" fill="black" />
<path d="
" fill="black" />
<path d="
" fill="black" />
<path d="
M 1156 567 
L 1183 567 
L 1183 623 
L 1156 623 
L 1156 567 
" fill="black" />
<path d="
" fill="black" />
<path d="
" fill="black" />
<path d="
M 1261 567 
L 1288 567 
L 1288 623 
L 1261 623 
L 1261 567 
" fill="black" />
<path d="
" fill="black" />
<path d="
M 1420 582 
L 1386 595 
L 1420 608 
L 1417 611 
L 1383 598 
L 1383 623 
L 1377 623 
L 1377 599 
L 1343 611 
L 1340 608 
L 1374 595 
L 1340 582 
L 1343 579 
L 1377 591 
L 1377 567 
L 1383 567 
L 1383 591 
L 1417 579 
L 1420 582 
" fill="black" />
</svg>
