<svg xmlns="http://www.w3.org/2000/svg"
viewBox="0 0 1435 635">
<path d="
M 120 554 
L 102 554 
L 136 554 
L 120 554 
M 113 554 
L 127 554 
L 170 554 
L 154 554 
L 142 554 
L 98 554 
L 85 554 
L 70 554 
L 113 554 
" fill="#339541" />
<path d="
M 70 553 
L 88 553 
L 88 553 
Q 88 553 , 96 553 
Q 103 553 , 120 553 
Q 137 553 , 145 553 
Q 152 553 , 152 553 
L 152 553 
L 170 553 
L 170 553 
Q 170 553 , 157 554 
Q 145 554 , 120 554 
Q 96 554 , 83 554 
Q 70 553 , 70 553 
L 70 553 
" fill="#D21010" />
<path d="
M 170 552 
L 170 552 
Q 155 552 , 147 552 
Q 139 552 , 129 552 
Q 108 552 , 98 552 
Q 86 552 , 86 552 
Q 86 552 , 98 552 
Q 108 553 , 129 553 
Q 139 553 , 147 553 
Q 155 553 , 170 552 
L 170 553 
Q 159 553 , 149 553 
Q 139 553 , 128 553 
Q 101 553 , 86 553 
Q 70 552 , 70 552 
Q 70 552 , 86 552 
Q 101 552 , 128 552 
Q 139 552 , 149 552 
Q 160 552 , 170 552 
" fill="#545FFF" />
<path d="
M 154 552 
L 154 551 
L 125 551 
L 125 551 
L 170 551 
L 170 552 
Q 159 552 , 148 552 
Q 139 552 , 127 552 
Q 101 552 , 85 552 
Q 70 551 , 70 551 
Q 70 551 , 85 551 
Q 101 551 , 127 551 
Q 138 551 , 147 551 
Q 157 551 , 167 551 
L 167 551 
Q 154 551 , 146 551 
Q 137 551 , 128 551 
Q 107 551 , 96 551 
Q 86 551 , 86 551 
Q 86 551 , 96 551 
Q 107 552 , 128 552 
Q 137 552 , 144 552 
Q 151 552 , 154 552 
" fill="#F5C000" />
<path d="
M 225 551 
L 207 553 
L 241 553 
L 225 551 
M 218 550 
L 232 550 
L 275 555 
L 259 555 
L 247 553 
L 203 553 
L 190 555 
L 175 555 
L 218 550 
" fill="#339541" />
<path d="
M 275 546 
L 275 546 
Q 260 546 , 252 546 
Q 244 546 , 234 546 
Q 213 546 , 203 546 
Q 191 546 , 191 547 
Q 191 548 , 203 549 
Q 213 549 , 234 549 
Q 244 549 , 252 549 
Q 260 549 , 275 549 
L 275 549 
Q 264 550 , 254 550 
Q 244 550 , 233 550 
Q 206 550 , 191 549 
Q 175 549 , 175 547 
Q 175 546 , 191 546 
Q 206 545 , 233 545 
Q 244 545 , 254 545 
Q 265 545 , 275 546 
" fill="#545FFF" />
<path d="
M 259 544 
L 259 542 
L 230 542 
L 230 542 
L 275 542 
L 275 544 
Q 264 545 , 253 545 
Q 244 545 , 232 545 
Q 206 545 , 190 544 
Q 175 543 , 175 542 
Q 175 541 , 190 540 
Q 206 539 , 232 539 
Q 243 539 , 252 539 
Q 262 539 , 272 539 
L 272 540 
Q 259 540 , 251 540 
Q 242 540 , 233 540 
Q 212 540 , 201 540 
Q 191 541 , 191 542 
Q 191 543 , 201 544 
Q 212 544 , 233 544 
Q 242 544 , 249 544 
Q 256 544 , 259 544 
" fill="#F5C000" />
<path d="
M 175 525 
L 193 525 
L 193 533 
Q 193 535 , 201 536 
Q 208 537 , 225 537 
Q 242 537 , 250 536 
Q 257 535 , 257 533 
L 257 525 
L 275 525 
L 275 533 
Q 275 535 , 262 537 
Q 250 538 , 225 538 
Q 201 538 , 188 537 
Q 175 535 , 175 533 
L 175 525 
" fill="#D21010" />
<path d="
M 322 554 
L 322 554 
L 308 554 
L 308 553 
L 330 553 
L 330 555 
Q 325 555 , 319 555 
Q 314 555 , 308 555 
Q 295 555 , 288 554 
Q 280 554 , 280 553 
Q 280 553 , 288 552 
Q 295 552 , 308 552 
Q 314 552 , 319 552 
Q 324 552 , 329 552 
L 329 553 
Q 322 552 , 318 552 
Q 314 552 , 309 552 
Q 299 552 , 293 553 
Q 288 553 , 288 553 
Q 288 554 , 293 554 
Q 299 554 , 309 554 
Q 314 554 , 317 554 
Q 321 554 , 322 554 
" fill="#F5C000" />
<path d="
M 330 552 
L 339 552 
L 339 554 
Q 339 554 , 343 554 
Q 346 554 , 355 554 
Q 364 554 , 367 554 
Q 371 554 , 371 554 
L 371 552 
L 380 552 
L 380 554 
Q 380 554 , 374 554 
Q 367 555 , 355 555 
Q 343 555 , 336 554 
Q 330 554 , 330 554 
L 330 552 
" fill="lightgray" />
<path d="
M 280 545 
L 289 545 
L 289 549 
Q 289 550 , 293 551 
Q 296 551 , 305 551 
Q 314 551 , 317 551 
Q 321 550 , 321 549 
L 321 545 
L 330 545 
L 330 549 
Q 330 550 , 324 551 
Q 317 552 , 305 552 
Q 293 552 , 286 551 
Q 280 550 , 280 549 
L 280 545 
" fill="#D21010" />
<path d="
M 355 546 
L 346 549 
L 363 549 
L 355 546 
M 351 545 
L 359 545 
L 380 552 
L 372 552 
L 366 550 
L 344 550 
L 337 552 
L 330 552 
L 351 545 
" fill="lightgray" />
<path d="
M 330 538 
L 330 539 
Q 323 538 , 319 538 
Q 314 538 , 309 538 
Q 299 538 , 294 539 
Q 288 539 , 288 540 
Q 288 542 , 294 543 
Q 299 543 , 309 543 
Q 314 543 , 319 543 
Q 323 543 , 330 542 
L 330 544 
Q 325 544 , 319 544 
Q 315 544 , 309 544 
Q 295 544 , 288 543 
Q 280 542 , 280 541 
Q 280 539 , 288 538 
Q 295 537 , 309 537 
Q 315 537 , 320 537 
Q 325 537 , 330 538 
" fill="#545FFF" />
<path d="
M 372 543 
L 372 541 
L 358 541 
L 358 540 
L 380 540 
L 380 544 
Q 375 544 , 369 544 
Q 364 544 , 358 544 
Q 345 544 , 338 543 
Q 330 542 , 330 541 
Q 330 539 , 338 538 
Q 345 537 , 358 537 
Q 364 537 , 369 537 
Q 374 537 , 379 538 
L 379 539 
Q 372 538 , 368 538 
Q 364 538 , 359 538 
Q 349 538 , 343 539 
Q 338 539 , 338 541 
Q 338 542 , 343 543 
Q 349 543 , 359 543 
Q 364 543 , 367 543 
Q 371 543 , 372 543 
" fill="lightgray" />
<path d="
M 305 524 
L 296 530 
L 313 530 
L 305 524 
M 301 521 
L 309 521 
L 330 537 
L 322 537 
L 316 532 
L 294 532 
L 287 537 
L 280 537 
L 301 521 
" fill="#339541" />
<path d="
M 330 521 
L 339 521 
L 339 530 
Q 339 533 , 343 534 
Q 346 535 , 355 535 
Q 364 535 , 367 534 
Q 371 533 , 371 530 
L 371 521 
L 380 521 
L 380 531 
Q 380 534 , 374 535 
Q 367 537 , 355 537 
Q 343 537 , 336 535 
Q 330 534 , 330 531 
L 330 521 
" fill="lightgray" />
<path d="
M 280 504 
L 289 504 
L 289 514 
Q 289 517 , 293 518 
Q 296 519 , 305 519 
Q 314 519 , 317 518 
Q 321 517 , 321 514 
L 321 504 
L 330 504 
L 330 514 
Q 330 517 , 324 519 
Q 317 521 , 305 521 
Q 293 521 , 286 519 
Q 280 517 , 280 514 
L 280 504 
" fill="#D21010" />
<path d="
M 372 518 
L 372 514 
L 358 514 
L 358 512 
L 380 512 
L 380 519 
Q 375 520 , 369 520 
Q 364 521 , 358 521 
Q 345 521 , 338 519 
Q 330 516 , 330 512 
Q 330 508 , 338 506 
Q 345 504 , 358 504 
Q 364 504 , 369 504 
Q 374 505 , 379 505 
L 379 508 
Q 372 507 , 368 506 
Q 364 506 , 359 506 
Q 349 506 , 343 508 
Q 338 509 , 338 512 
Q 338 516 , 343 517 
Q 349 519 , 359 519 
Q 364 519 , 367 519 
Q 371 519 , 372 518 
" fill="lightgray" />
<path d="
M 322 497 
L 322 485 
L 308 485 
L 308 481 
L 330 481 
L 330 500 
Q 325 502 , 319 502 
Q 314 503 , 308 503 
Q 295 503 , 288 497 
Q 280 492 , 280 482 
Q 280 472 , 288 466 
Q 295 460 , 308 460 
Q 314 460 , 319 461 
Q 324 462 , 329 463 
L 329 469 
Q 322 467 , 318 466 
Q 314 465 , 309 465 
Q 299 465 , 293 469 
Q 288 473 , 288 482 
Q 288 490 , 293 494 
Q 299 498 , 309 498 
Q 314 498 , 317 498 
Q 321 498 , 322 497 
" fill="#F5C000" />
<path d="
M 380 465 
L 380 471 
Q 373 467 , 369 466 
Q 364 465 , 359 465 
Q 349 465 , 344 469 
Q 338 473 , 338 481 
Q 338 490 , 344 494 
Q 349 499 , 359 499 
Q 364 499 , 369 497 
Q 373 496 , 380 492 
L 380 499 
Q 375 501 , 369 502 
Q 365 503 , 359 503 
Q 345 503 , 338 497 
Q 330 492 , 330 482 
Q 330 472 , 338 466 
Q 345 460 , 359 460 
Q 365 460 , 370 461 
Q 375 462 , 380 465 
" fill="lightgray" />
<path d="
M 427 554 
L 427 554 
L 413 554 
L 413 554 
L 435 554 
L 435 555 
Q 430 555 , 424 555 
Q 419 555 , 413 555 
Q 400 555 , 393 554 
Q 385 554 , 385 554 
Q 385 553 , 393 553 
Q 400 553 , 413 553 
Q 419 553 , 424 553 
Q 429 553 , 434 553 
L 434 553 
Q 427 553 , 423 553 
Q 419 553 , 414 553 
Q 404 553 , 398 553 
Q 393 554 , 393 554 
Q 393 554 , 398 554 
Q 404 555 , 414 555 
Q 419 555 , 422 555 
Q 426 555 , 427 554 
" fill="#F5C000" />
<path d="
M 435 553 
L 444 553 
L 444 554 
Q 444 554 , 448 554 
Q 451 555 , 460 555 
Q 469 555 , 472 554 
Q 476 554 , 476 554 
L 476 553 
L 485 553 
L 485 554 
Q 485 554 , 479 555 
Q 472 555 , 460 555 
Q 448 555 , 441 555 
Q 435 554 , 435 554 
L 435 553 
" fill="lightgray" />
<path d="
M 385 549 
L 394 549 
L 394 551 
Q 394 551 , 398 552 
Q 401 552 , 410 552 
Q 419 552 , 422 552 
Q 426 551 , 426 551 
L 426 549 
L 435 549 
L 435 551 
Q 435 552 , 429 552 
Q 422 552 , 410 552 
Q 398 552 , 391 552 
Q 385 552 , 385 551 
L 385 549 
" fill="#D21010" />
<path d="
M 460 550 
L 451 551 
L 468 551 
L 460 550 
M 456 549 
L 464 549 
L 485 552 
L 477 552 
L 471 551 
L 449 551 
L 442 552 
L 435 552 
L 456 549 
" fill="lightgray" />
<path d="
M 385 544 
L 394 544 
L 394 546 
Q 394 547 , 398 547 
Q 401 548 , 410 548 
Q 419 548 , 422 547 
Q 426 547 , 426 546 
L 426 544 
L 435 544 
L 435 546 
Q 435 547 , 429 548 
Q 422 548 , 410 548 
Q 398 548 , 391 548 
Q 385 547 , 385 546 
L 385 544 
" fill="#D21010" />
<path d="
M 477 548 
L 477 546 
L 463 546 
L 463 546 
L 485 546 
L 485 548 
Q 480 548 , 474 548 
Q 469 548 , 463 548 
Q 450 548 , 443 548 
Q 435 547 , 435 546 
Q 435 545 , 443 545 
Q 450 544 , 463 544 
Q 469 544 , 474 544 
Q 479 544 , 484 544 
L 484 545 
Q 477 545 , 473 545 
Q 469 544 , 464 544 
Q 454 544 , 448 545 
Q 443 545 , 443 546 
Q 443 547 , 448 547 
Q 454 548 , 464 548 
Q 469 548 , 472 548 
Q 476 548 , 477 548 
" fill="lightgray" />
<path d="
M 427 543 
L 427 542 
L 413 542 
L 413 541 
L 435 541 
L 435 543 
Q 430 543 , 424 543 
Q 419 543 , 413 543 
Q 400 543 , 393 543 
Q 385 542 , 385 541 
Q 385 540 , 393 540 
Q 400 539 , 413 539 
Q 419 539 , 424 539 
Q 429 539 , 434 539 
L 434 540 
Q 427 540 , 423 540 
Q 419 540 , 414 540 
Q 404 540 , 398 540 
Q 393 540 , 393 541 
Q 393 542 , 398 542 
Q 404 543 , 414 543 
Q 419 543 , 422 543 
Q 426 543 , 427 543 
" fill="#F5C000" />
<path d="
M 485 539 
L 485 540 
Q 478 540 , 474 540 
Q 469 539 , 464 539 
Q 454 539 , 449 540 
Q 443 540 , 443 541 
Q 443 542 , 449 542 
Q 454 543 , 464 543 
Q 469 543 , 474 543 
Q 478 543 , 485 542 
L 485 543 
Q 480 543 , 474 543 
Q 470 543 , 464 543 
Q 450 543 , 443 543 
Q 435 542 , 435 541 
Q 435 540 , 443 540 
Q 450 539 , 464 539 
Q 470 539 , 475 539 
Q 480 539 , 485 539 
" fill="lightgray" />
<path d="
M 410 534 
L 401 536 
L 418 536 
L 410 534 
M 406 533 
L 414 533 
L 435 538 
L 427 538 
L 421 537 
L 399 537 
L 392 538 
L 385 538 
L 406 533 
" fill="#339541" />
<path d="
M 435 533 
L 444 533 
L 444 536 
Q 444 537 , 448 537 
Q 451 538 , 460 538 
Q 469 538 , 472 537 
Q 476 537 , 476 536 
L 476 533 
L 485 533 
L 485 536 
Q 485 537 , 479 538 
Q 472 538 , 460 538 
Q 448 538 , 441 538 
Q 435 537 , 435 536 
L 435 533 
" fill="lightgray" />
<path d="
M 435 525 
L 435 526 
Q 428 525 , 424 525 
Q 419 525 , 414 525 
Q 404 525 , 399 526 
Q 393 526 , 393 528 
Q 393 530 , 399 530 
Q 404 531 , 414 531 
Q 419 531 , 424 531 
Q 428 531 , 435 530 
L 435 531 
Q 430 532 , 424 532 
Q 420 532 , 414 532 
Q 400 532 , 393 531 
Q 385 530 , 385 528 
Q 385 526 , 393 525 
Q 400 524 , 414 524 
Q 420 524 , 425 524 
Q 430 524 , 435 525 
" fill="#545FFF" />
<path d="
M 477 531 
L 477 529 
L 463 529 
L 463 528 
L 485 528 
L 485 531 
Q 480 532 , 474 532 
Q 469 532 , 463 532 
Q 450 532 , 443 531 
Q 435 530 , 435 528 
Q 435 526 , 443 525 
Q 450 524 , 463 524 
Q 469 524 , 474 524 
Q 479 524 , 484 525 
L 484 526 
Q 477 525 , 473 525 
Q 469 525 , 464 525 
Q 454 525 , 448 526 
Q 443 526 , 443 528 
Q 443 530 , 448 530 
Q 454 531 , 464 531 
Q 469 531 , 472 531 
Q 476 531 , 477 531 
" fill="lightgray" />
<path d="
M 540 552 
L 522 553 
L 556 553 
L 540 552 
M 533 551 
L 547 551 
L 590 555 
L 574 555 
L 562 554 
L 518 554 
L 505 555 
L 490 555 
L 533 551 
" fill="#339541" />
<path d="
M 574 549 
L 574 547 
L 545 547 
L 545 546 
L 590 546 
L 590 550 
Q 579 550 , 568 550 
Q 559 550 , 547 550 
Q 521 550 , 505 549 
Q 490 548 , 490 546 
Q 490 544 , 505 543 
Q 521 542 , 547 542 
Q 558 542 , 567 542 
Q 577 542 , 587 543 
L 587 544 
Q 574 543 , 566 543 
Q 557 543 , 548 543 
Q 527 543 , 516 544 
Q 506 545 , 506 546 
Q 506 548 , 516 549 
Q 527 549 , 548 549 
Q 557 549 , 564 549 
Q 571 549 , 574 549 
" fill="#F5C000" />
<path d="
M 590 531 
L 590 533 
Q 575 532 , 567 532 
Q 559 531 , 549 531 
Q 528 531 , 518 532 
Q 506 534 , 506 536 
Q 506 538 , 518 539 
Q 528 541 , 549 541 
Q 559 541 , 567 540 
Q 575 540 , 590 539 
L 590 541 
Q 579 541 , 569 542 
Q 559 542 , 548 542 
Q 521 542 , 506 540 
Q 490 539 , 490 536 
Q 490 533 , 506 532 
Q 521 530 , 548 530 
Q 559 530 , 569 530 
Q 580 531 , 590 531 
" fill="#545FFF" />
<path d="
M 490 508 
L 508 508 
L 508 520 
Q 508 524 , 516 525 
Q 523 527 , 540 527 
Q 557 527 , 565 525 
Q 572 524 , 572 520 
L 572 508 
L 590 508 
L 590 521 
Q 590 525 , 577 527 
Q 565 529 , 540 529 
Q 516 529 , 503 527 
Q 490 525 , 490 521 
L 490 508 
" fill="#D21010" />
<path d="
M 645 553 
L 627 554 
L 661 554 
L 645 553 
M 638 553 
L 652 553 
L 695 554 
L 679 554 
L 667 554 
L 623 554 
L 610 554 
L 595 554 
L 638 553 
" fill="#339541" />
<path d="
M 595 537 
L 613 537 
L 613 546 
Q 613 549 , 621 550 
Q 628 551 , 645 551 
Q 662 551 , 670 550 
Q 677 549 , 677 546 
L 677 537 
L 695 537 
L 695 546 
Q 695 549 , 682 551 
Q 670 552 , 645 552 
Q 621 552 , 608 551 
Q 595 549 , 595 546 
L 595 537 
" fill="#D21010" />
<path d="
M 679 534 
L 679 528 
L 650 528 
L 650 526 
L 695 526 
L 695 535 
Q 684 536 , 673 536 
Q 664 536 , 652 536 
Q 626 536 , 610 534 
Q 595 531 , 595 527 
Q 595 522 , 610 520 
Q 626 517 , 652 517 
Q 663 517 , 672 517 
Q 682 518 , 692 519 
L 692 521 
Q 679 520 , 671 520 
Q 662 519 , 653 519 
Q 632 519 , 621 521 
Q 611 523 , 611 527 
Q 611 530 , 621 532 
Q 632 534 , 653 534 
Q 662 534 , 669 534 
Q 676 534 , 679 534 
" fill="#F5C000" />
<path d="
M 695 496 
L 695 499 
Q 680 497 , 672 496 
Q 664 496 , 654 496 
Q 633 496 , 623 498 
Q 611 500 , 611 505 
Q 611 510 , 623 512 
Q 633 514 , 654 514 
Q 664 514 , 672 514 
Q 680 513 , 695 511 
L 695 514 
Q 684 516 , 674 516 
Q 664 517 , 653 517 
Q 626 517 , 611 514 
Q 595 510 , 595 505 
Q 595 499 , 611 496 
Q 626 493 , 653 493 
Q 664 493 , 674 494 
Q 685 494 , 695 496 
" fill="#545FFF" />
<path d="
M 750 554 
L 732 554 
L 766 554 
L 750 554 
M 743 554 
L 757 554 
L 800 554 
L 784 554 
L 772 554 
L 728 554 
L 715 554 
L 700 554 
L 743 554 
" fill="#339541" />
<path d="
M 700 553 
L 718 553 
L 718 553 
Q 718 553 , 726 553 
Q 733 553 , 750 553 
Q 767 553 , 775 553 
Q 782 553 , 782 553 
L 782 553 
L 800 553 
L 800 553 
Q 800 553 , 787 554 
Q 775 554 , 750 554 
Q 726 554 , 713 554 
Q 700 553 , 700 553 
L 700 553 
" fill="#D21010" />
<path d="
M 800 552 
L 800 552 
Q 785 552 , 777 552 
Q 769 552 , 759 552 
Q 738 552 , 728 552 
Q 716 552 , 716 552 
Q 716 552 , 728 552 
Q 738 553 , 759 553 
Q 769 553 , 777 553 
Q 785 553 , 800 552 
L 800 553 
Q 789 553 , 779 553 
Q 769 553 , 758 553 
Q 731 553 , 716 553 
Q 700 552 , 700 552 
Q 700 552 , 716 552 
Q 731 552 , 758 552 
Q 769 552 , 779 552 
Q 790 552 , 800 552 
" fill="#545FFF" />
<path d="
M 784 552 
L 784 551 
L 755 551 
L 755 551 
L 800 551 
L 800 552 
Q 789 552 , 778 552 
Q 769 552 , 757 552 
Q 731 552 , 715 552 
Q 700 551 , 700 551 
Q 700 551 , 715 551 
Q 731 551 , 757 551 
Q 768 551 , 777 551 
Q 787 551 , 797 551 
L 797 551 
Q 784 551 , 776 551 
Q 767 551 , 758 551 
Q 737 551 , 726 551 
Q 716 551 , 716 551 
Q 716 551 , 726 551 
Q 737 552 , 758 552 
Q 767 552 , 774 552 
Q 781 552 , 784 552 
" fill="#F5C000" />
<path d="
M 855 552 
L 837 553 
L 871 553 
L 855 552 
M 848 552 
L 862 552 
L 905 554 
L 889 554 
L 877 554 
L 833 554 
L 820 554 
L 805 554 
L 848 552 
" fill="#339541" />
<path d="
M 889 550 
L 889 549 
L 860 549 
L 860 548 
L 905 548 
L 905 551 
Q 894 551 , 883 551 
Q 874 551 , 862 551 
Q 836 551 , 820 550 
Q 805 550 , 805 548 
Q 805 547 , 820 546 
Q 836 545 , 862 545 
Q 873 545 , 882 545 
Q 892 545 , 902 546 
L 902 546 
Q 889 546 , 881 546 
Q 872 546 , 863 546 
Q 842 546 , 831 546 
Q 821 547 , 821 548 
Q 821 549 , 831 550 
Q 842 551 , 863 551 
Q 872 551 , 879 551 
Q 886 550 , 889 550 
" fill="#F5C000" />
<path d="
M 905 539 
L 905 540 
Q 890 539 , 882 539 
Q 874 539 , 864 539 
Q 843 539 , 833 539 
Q 821 540 , 821 541 
Q 821 543 , 833 543 
Q 843 544 , 864 544 
Q 874 544 , 882 544 
Q 890 543 , 905 543 
L 905 544 
Q 894 544 , 884 544 
Q 874 545 , 863 545 
Q 836 545 , 821 544 
Q 805 543 , 805 541 
Q 805 540 , 821 539 
Q 836 538 , 863 538 
Q 874 538 , 884 538 
Q 895 538 , 905 539 
" fill="#545FFF" />
<path d="
M 805 530 
L 823 530 
L 823 535 
Q 823 536 , 831 536 
Q 838 537 , 855 537 
Q 872 537 , 880 536 
Q 887 536 , 887 535 
L 887 530 
L 905 530 
L 905 535 
Q 905 536 , 892 537 
Q 880 538 , 855 538 
Q 831 538 , 818 537 
Q 805 536 , 805 535 
L 805 530 
" fill="#D21010" />
<path d="
M 952 554 
L 952 554 
L 938 554 
L 938 554 
L 960 554 
L 960 555 
Q 955 555 , 949 555 
Q 944 555 , 938 555 
Q 925 555 , 918 554 
Q 910 554 , 910 554 
Q 910 553 , 918 553 
Q 925 553 , 938 553 
Q 944 553 , 949 553 
Q 954 553 , 959 553 
L 959 553 
Q 952 553 , 948 553 
Q 944 553 , 939 553 
Q 929 553 , 923 553 
Q 918 554 , 918 554 
Q 918 554 , 923 554 
Q 929 555 , 939 555 
Q 944 555 , 947 555 
Q 951 555 , 952 554 
" fill="lightgray" />
<path d="
M 960 553 
L 969 553 
L 969 554 
Q 969 554 , 973 554 
Q 976 555 , 985 555 
Q 994 555 , 997 554 
Q 1001 554 , 1001 554 
L 1001 553 
L 1010 553 
L 1010 554 
Q 1010 554 , 1004 555 
Q 997 555 , 985 555 
Q 973 555 , 966 555 
Q 960 554 , 960 554 
L 960 553 
" fill="#D21010" />
<path d="
M 910 549 
L 919 549 
L 919 551 
Q 919 551 , 923 552 
Q 926 552 , 935 552 
Q 944 552 , 947 552 
Q 951 551 , 951 551 
L 951 549 
L 960 549 
L 960 551 
Q 960 552 , 954 552 
Q 947 552 , 935 552 
Q 923 552 , 916 552 
Q 910 552 , 910 551 
L 910 549 
" fill="lightgray" />
<path d="
M 985 550 
L 976 551 
L 993 551 
L 985 550 
M 981 549 
L 989 549 
L 1010 552 
L 1002 552 
L 996 551 
L 974 551 
L 967 552 
L 960 552 
L 981 549 
" fill="#339541" />
<path d="
M 910 544 
L 919 544 
L 919 546 
Q 919 547 , 923 547 
Q 926 548 , 935 548 
Q 944 548 , 947 547 
Q 951 547 , 951 546 
L 951 544 
L 960 544 
L 960 546 
Q 960 547 , 954 548 
Q 947 548 , 935 548 
Q 923 548 , 916 548 
Q 910 547 , 910 546 
L 910 544 
" fill="lightgray" />
<path d="
M 1002 548 
L 1002 546 
L 988 546 
L 988 546 
L 1010 546 
L 1010 548 
Q 1005 548 , 999 548 
Q 994 548 , 988 548 
Q 975 548 , 968 548 
Q 960 547 , 960 546 
Q 960 545 , 968 545 
Q 975 544 , 988 544 
Q 994 544 , 999 544 
Q 1004 544 , 1009 544 
L 1009 545 
Q 1002 545 , 998 545 
Q 994 544 , 989 544 
Q 979 544 , 973 545 
Q 968 545 , 968 546 
Q 968 547 , 973 547 
Q 979 548 , 989 548 
Q 994 548 , 997 548 
Q 1001 548 , 1002 548 
" fill="#F5C000" />
<path d="
M 952 543 
L 952 542 
L 938 542 
L 938 541 
L 960 541 
L 960 543 
Q 955 543 , 949 543 
Q 944 543 , 938 543 
Q 925 543 , 918 543 
Q 910 542 , 910 541 
Q 910 540 , 918 540 
Q 925 539 , 938 539 
Q 944 539 , 949 539 
Q 954 539 , 959 539 
L 959 540 
Q 952 540 , 948 540 
Q 944 540 , 939 540 
Q 929 540 , 923 540 
Q 918 540 , 918 541 
Q 918 542 , 923 542 
Q 929 543 , 939 543 
Q 944 543 , 947 543 
Q 951 543 , 952 543 
" fill="lightgray" />
<path d="
M 1010 539 
L 1010 540 
Q 1003 540 , 999 540 
Q 994 539 , 989 539 
Q 979 539 , 974 540 
Q 968 540 , 968 541 
Q 968 542 , 974 542 
Q 979 543 , 989 543 
Q 994 543 , 999 543 
Q 1003 543 , 1010 542 
L 1010 543 
Q 1005 543 , 999 543 
Q 995 543 , 989 543 
Q 975 543 , 968 543 
Q 960 542 , 960 541 
Q 960 540 , 968 540 
Q 975 539 , 989 539 
Q 995 539 , 1000 539 
Q 1005 539 , 1010 539 
" fill="#545FFF" />
<path d="
M 935 534 
L 926 536 
L 943 536 
L 935 534 
M 931 533 
L 939 533 
L 960 538 
L 952 538 
L 946 537 
L 924 537 
L 917 538 
L 910 538 
L 931 533 
" fill="lightgray" />
<path d="
M 960 533 
L 969 533 
L 969 536 
Q 969 537 , 973 537 
Q 976 538 , 985 538 
Q 994 538 , 997 537 
Q 1001 537 , 1001 536 
L 1001 533 
L 1010 533 
L 1010 536 
Q 1010 537 , 1004 538 
Q 997 538 , 985 538 
Q 973 538 , 966 538 
Q 960 537 , 960 536 
L 960 533 
" fill="#D21010" />
<path d="
M 960 525 
L 960 526 
Q 953 525 , 949 525 
Q 944 525 , 939 525 
Q 929 525 , 924 526 
Q 918 526 , 918 528 
Q 918 530 , 924 530 
Q 929 531 , 939 531 
Q 944 531 , 949 531 
Q 953 531 , 960 530 
L 960 531 
Q 955 532 , 949 532 
Q 945 532 , 939 532 
Q 925 532 , 918 531 
Q 910 530 , 910 528 
Q 910 526 , 918 525 
Q 925 524 , 939 524 
Q 945 524 , 950 524 
Q 955 524 , 960 525 
" fill="lightgray" />
<path d="
M 1002 531 
L 1002 529 
L 988 529 
L 988 528 
L 1010 528 
L 1010 531 
Q 1005 532 , 999 532 
Q 994 532 , 988 532 
Q 975 532 , 968 531 
Q 960 530 , 960 528 
Q 960 526 , 968 525 
Q 975 524 , 988 524 
Q 994 524 , 999 524 
Q 1004 524 , 1009 525 
L 1009 526 
Q 1002 525 , 998 525 
Q 994 525 , 989 525 
Q 979 525 , 973 526 
Q 968 526 , 968 528 
Q 968 530 , 973 530 
Q 979 531 , 989 531 
Q 994 531 , 997 531 
Q 1001 531 , 1002 531 
" fill="#F5C000" />
<path d="
M 1065 553 
L 1047 554 
L 1081 554 
L 1065 553 
M 1058 553 
L 1072 553 
L 1115 555 
L 1099 555 
L 1087 554 
L 1043 554 
L 1030 555 
L 1015 555 
L 1058 553 
" fill="#339541" />
<path d="
M 1115 540 
L 1115 542 
Q 1100 540 , 1092 540 
Q 1084 540 , 1074 540 
Q 1053 540 , 1043 541 
Q 1031 542 , 1031 545 
Q 1031 548 , 1043 549 
Q 1053 551 , 1074 551 
Q 1084 551 , 1092 550 
Q 1100 550 , 1115 548 
L 1115 551 
Q 1104 551 , 1094 552 
Q 1084 552 , 1073 552 
Q 1046 552 , 1031 550 
Q 1015 548 , 1015 545 
Q 1015 542 , 1031 540 
Q 1046 538 , 1073 538 
Q 1084 538 , 1094 538 
Q 1105 539 , 1115 540 
" fill="#545FFF" />
<path d="
M 1099 535 
L 1099 531 
L 1070 531 
L 1070 529 
L 1115 529 
L 1115 536 
Q 1104 537 , 1093 537 
Q 1084 538 , 1072 538 
Q 1046 538 , 1030 536 
Q 1015 533 , 1015 530 
Q 1015 526 , 1030 524 
Q 1046 522 , 1072 522 
Q 1083 522 , 1092 522 
Q 1102 523 , 1112 523 
L 1112 525 
Q 1099 524 , 1091 524 
Q 1082 524 , 1073 524 
Q 1052 524 , 1041 525 
Q 1031 527 , 1031 530 
Q 1031 533 , 1041 534 
Q 1052 536 , 1073 536 
Q 1082 536 , 1089 536 
Q 1096 536 , 1099 535 
" fill="#F5C000" />
<path d="
M 1015 505 
L 1033 505 
L 1033 515 
Q 1033 517 , 1041 518 
Q 1048 519 , 1065 519 
Q 1082 519 , 1090 518 
Q 1097 517 , 1097 515 
L 1097 505 
L 1115 505 
L 1115 515 
Q 1115 518 , 1102 520 
Q 1090 521 , 1065 521 
Q 1041 521 , 1028 520 
Q 1015 518 , 1015 515 
L 1015 505 
" fill="#D21010" />
<path d="
M 1170 552 
L 1152 553 
L 1186 553 
L 1170 552 
M 1163 551 
L 1177 551 
L 1220 554 
L 1204 554 
L 1192 553 
L 1148 553 
L 1135 554 
L 1120 554 
L 1163 551 
" fill="#339541" />
<path d="
M 1120 543 
L 1138 543 
L 1138 547 
Q 1138 548 , 1146 549 
Q 1153 549 , 1170 549 
Q 1187 549 , 1195 549 
Q 1202 548 , 1202 547 
L 1202 543 
L 1220 543 
L 1220 547 
Q 1220 549 , 1207 549 
Q 1195 550 , 1170 550 
Q 1146 550 , 1133 549 
Q 1120 549 , 1120 547 
L 1120 543 
" fill="#D21010" />
<path d="
M 1204 541 
L 1204 536 
L 1175 536 
L 1175 535 
L 1220 535 
L 1220 542 
Q 1209 542 , 1198 543 
Q 1189 543 , 1177 543 
Q 1151 543 , 1135 541 
Q 1120 539 , 1120 535 
Q 1120 531 , 1135 529 
Q 1151 527 , 1177 527 
Q 1188 527 , 1197 527 
Q 1207 528 , 1217 528 
L 1217 530 
Q 1204 529 , 1196 529 
Q 1187 529 , 1178 529 
Q 1157 529 , 1146 530 
Q 1136 532 , 1136 535 
Q 1136 538 , 1146 540 
Q 1157 541 , 1178 541 
Q 1187 541 , 1194 541 
Q 1201 541 , 1204 541 
" fill="#F5C000" />
<path d="
M 1220 511 
L 1220 514 
Q 1205 512 , 1197 511 
Q 1189 511 , 1179 511 
Q 1158 511 , 1148 513 
Q 1136 514 , 1136 517 
Q 1136 521 , 1148 523 
Q 1158 525 , 1179 525 
Q 1189 525 , 1197 524 
Q 1205 524 , 1220 522 
L 1220 525 
Q 1209 526 , 1199 526 
Q 1189 527 , 1178 527 
Q 1151 527 , 1136 524 
Q 1120 522 , 1120 518 
Q 1120 514 , 1136 511 
Q 1151 509 , 1178 509 
Q 1189 509 , 1199 509 
Q 1210 510 , 1220 511 
" fill="#545FFF" />
<path d="
M 1267 554 
L 1267 554 
L 1253 554 
L 1253 553 
L 1275 553 
L 1275 555 
Q 1270 555 , 1264 555 
Q 1259 555 , 1253 555 
Q 1240 555 , 1233 554 
Q 1225 554 , 1225 553 
Q 1225 553 , 1233 552 
Q 1240 552 , 1253 552 
Q 1259 552 , 1264 552 
Q 1269 552 , 1274 552 
L 1274 553 
Q 1267 552 , 1263 552 
Q 1259 552 , 1254 552 
Q 1244 552 , 1238 553 
Q 1233 553 , 1233 553 
Q 1233 554 , 1238 554 
Q 1244 554 , 1254 554 
Q 1259 554 , 1262 554 
Q 1266 554 , 1267 554 
" fill="lightgray" />
<path d="
M 1275 552 
L 1284 552 
L 1284 554 
Q 1284 554 , 1288 554 
Q 1291 554 , 1300 554 
Q 1309 554 , 1312 554 
Q 1316 554 , 1316 554 
L 1316 552 
L 1325 552 
L 1325 554 
Q 1325 554 , 1319 554 
Q 1312 555 , 1300 555 
Q 1288 555 , 1281 554 
Q 1275 554 , 1275 554 
L 1275 552 
" fill="#D21010" />
<path d="
M 1225 545 
L 1234 545 
L 1234 549 
Q 1234 550 , 1238 551 
Q 1241 551 , 1250 551 
Q 1259 551 , 1262 551 
Q 1266 550 , 1266 549 
L 1266 545 
L 1275 545 
L 1275 549 
Q 1275 550 , 1269 551 
Q 1262 552 , 1250 552 
Q 1238 552 , 1231 551 
Q 1225 550 , 1225 549 
L 1225 545 
" fill="lightgray" />
<path d="
M 1300 546 
L 1291 549 
L 1308 549 
L 1300 546 
M 1296 545 
L 1304 545 
L 1325 552 
L 1317 552 
L 1311 550 
L 1289 550 
L 1282 552 
L 1275 552 
L 1296 545 
" fill="#339541" />
<path d="
M 1275 538 
L 1275 539 
Q 1268 538 , 1264 538 
Q 1259 538 , 1254 538 
Q 1244 538 , 1239 539 
Q 1233 539 , 1233 540 
Q 1233 542 , 1239 543 
Q 1244 543 , 1254 543 
Q 1259 543 , 1264 543 
Q 1268 543 , 1275 542 
L 1275 544 
Q 1270 544 , 1264 544 
Q 1260 544 , 1254 544 
Q 1240 544 , 1233 543 
Q 1225 542 , 1225 541 
Q 1225 539 , 1233 538 
Q 1240 537 , 1254 537 
Q 1260 537 , 1265 537 
Q 1270 537 , 1275 538 
" fill="lightgray" />
<path d="
M 1317 543 
L 1317 541 
L 1303 541 
L 1303 540 
L 1325 540 
L 1325 544 
Q 1320 544 , 1314 544 
Q 1309 544 , 1303 544 
Q 1290 544 , 1283 543 
Q 1275 542 , 1275 541 
Q 1275 539 , 1283 538 
Q 1290 537 , 1303 537 
Q 1309 537 , 1314 537 
Q 1319 537 , 1324 538 
L 1324 539 
Q 1317 538 , 1313 538 
Q 1309 538 , 1304 538 
Q 1294 538 , 1288 539 
Q 1283 539 , 1283 541 
Q 1283 542 , 1288 543 
Q 1294 543 , 1304 543 
Q 1309 543 , 1312 543 
Q 1316 543 , 1317 543 
" fill="#F5C000" />
<path d="
M 1250 524 
L 1241 530 
L 1258 530 
L 1250 524 
M 1246 521 
L 1254 521 
L 1275 537 
L 1267 537 
L 1261 532 
L 1239 532 
L 1232 537 
L 1225 537 
L 1246 521 
" fill="lightgray" />
<path d="
M 1275 521 
L 1284 521 
L 1284 530 
Q 1284 533 , 1288 534 
Q 1291 535 , 1300 535 
Q 1309 535 , 1312 534 
Q 1316 533 , 1316 530 
L 1316 521 
L 1325 521 
L 1325 531 
Q 1325 534 , 1319 535 
Q 1312 537 , 1300 537 
Q 1288 537 , 1281 535 
Q 1275 534 , 1275 531 
L 1275 521 
" fill="#D21010" />
<path d="
M 1225 504 
L 1234 504 
L 1234 514 
Q 1234 517 , 1238 518 
Q 1241 519 , 1250 519 
Q 1259 519 , 1262 518 
Q 1266 517 , 1266 514 
L 1266 504 
L 1275 504 
L 1275 514 
Q 1275 517 , 1269 519 
Q 1262 521 , 1250 521 
Q 1238 521 , 1231 519 
Q 1225 517 , 1225 514 
L 1225 504 
" fill="lightgray" />
<path d="
M 1317 518 
L 1317 514 
L 1303 514 
L 1303 512 
L 1325 512 
L 1325 519 
Q 1320 520 , 1314 520 
Q 1309 521 , 1303 521 
Q 1290 521 , 1283 519 
Q 1275 516 , 1275 512 
Q 1275 508 , 1283 506 
Q 1290 504 , 1303 504 
Q 1309 504 , 1314 504 
Q 1319 505 , 1324 505 
L 1324 508 
Q 1317 507 , 1313 506 
Q 1309 506 , 1304 506 
Q 1294 506 , 1288 508 
Q 1283 509 , 1283 512 
Q 1283 516 , 1288 517 
Q 1294 519 , 1304 519 
Q 1309 519 , 1312 519 
Q 1316 519 , 1317 518 
" fill="#F5C000" />
<path d="
M 1267 497 
L 1267 485 
L 1253 485 
L 1253 481 
L 1275 481 
L 1275 500 
Q 1270 502 , 1264 502 
Q 1259 503 , 1253 503 
Q 1240 503 , 1233 497 
Q 1225 492 , 1225 482 
Q 1225 472 , 1233 466 
Q 1240 460 , 1253 460 
Q 1259 460 , 1264 461 
Q 1269 462 , 1274 463 
L 1274 469 
Q 1267 467 , 1263 466 
Q 1259 465 , 1254 465 
Q 1244 465 , 1238 469 
Q 1233 473 , 1233 482 
Q 1233 490 , 1238 494 
Q 1244 498 , 1254 498 
Q 1259 498 , 1262 498 
Q 1266 498 , 1267 497 
" fill="lightgray" />
<path d="
M 1325 465 
L 1325 471 
Q 1318 467 , 1314 466 
Q 1309 465 , 1304 465 
Q 1294 465 , 1289 469 
Q 1283 473 , 1283 481 
Q 1283 490 , 1289 494 
Q 1294 499 , 1304 499 
Q 1309 499 , 1314 497 
Q 1318 496 , 1325 492 
L 1325 499 
Q 1320 501 , 1314 502 
Q 1310 503 , 1304 503 
Q 1290 503 , 1283 497 
Q 1275 492 , 1275 482 
Q 1275 472 , 1283 466 
Q 1290 460 , 1304 460 
Q 1310 460 , 1315 461 
Q 1320 462 , 1325 465 
" fill="#545FFF" />
<path d="
M 1380 554 
L 1362 554 
L 1396 554 
L 1380 554 
M 1373 554 
L 1387 554 
L 1430 554 
L 1414 554 
L 1402 554 
L 1358 554 
L 1345 554 
L 1330 554 
L 1373 554 
" fill="#339541" />
<path d="
M 1330 553 
L 1348 553 
L 1348 553 
Q 1348 553 , 1356 553 
Q 1363 553 , 1380 553 
Q 1397 553 , 1405 553 
Q 1412 553 , 1412 553 
L 1412 553 
L 1430 553 
L 1430 553 
Q 1430 553 , 1417 554 
Q 1405 554 , 1380 554 
Q 1356 554 , 1343 554 
Q 1330 553 , 1330 553 
L 1330 553 
" fill="#D21010" />
<path d="
M 1430 552 
L 1430 552 
Q 1415 552 , 1407 552 
Q 1399 552 , 1389 552 
Q 1368 552 , 1358 552 
Q 1346 552 , 1346 552 
Q 1346 552 , 1358 552 
Q 1368 553 , 1389 553 
Q 1399 553 , 1407 553 
Q 1415 553 , 1430 552 
L 1430 553 
Q 1419 553 , 1409 553 
Q 1399 553 , 1388 553 
Q 1361 553 , 1346 553 
Q 1330 552 , 1330 552 
Q 1330 552 , 1346 552 
Q 1361 552 , 1388 552 
Q 1399 552 , 1409 552 
Q 1420 552 , 1430 552 
" fill="#545FFF" />
<path d="
M 1414 552 
L 1414 551 
L 1385 551 
L 1385 551 
L 1430 551 
L 1430 552 
Q 1419 552 , 1408 552 
Q 1399 552 , 1387 552 
Q 1361 552 , 1345 552 
Q 1330 551 , 1330 551 
Q 1330 551 , 1345 551 
Q 1361 551 , 1387 551 
Q 1398 551 , 1407 551 
Q 1417 551 , 1427 551 
L 1427 551 
Q 1414 551 , 1406 551 
Q 1397 551 , 1388 551 
Q 1367 551 , 1356 551 
Q 1346 551 , 1346 551 
Q 1346 551 , 1356 551 
Q 1367 552 , 1388 552 
Q 1397 552 , 1404 552 
Q 1411 552 , 1414 552 
" fill="#F5C000" />
<path d="M 65 168 L 65 555 " stroke="black" stroke-width="1.5"/>
<path d="M 55 555 L 65 555 " stroke="black" stroke-width="4"/>
<text text-anchor="end" x="50" y="555" font-size="50" alignment-baseline="middle">0</text>
<path d="M 55 362 L 65 362 " stroke="black" stroke-width="4"/>
<text text-anchor="end" x="50" y="362" font-size="50" alignment-baseline="middle">1</text>
<path d="M 55 168 L 65 168 " stroke="black" stroke-width="4"/>
<text text-anchor="end" x="50" y="168" font-size="50" alignment-baseline="middle">2</text>
<text text-anchor="middle" x="750" y="50" font-size="50" alignment-baseline="baseline"></text>
G<path d="
M 160 582 
L 126 595 
L 160 608 
L 157 611 
L 123 598 
L 123 623 
L 117 623 
L 117 599 
L 83 611 
L 80 608 
L 114 595 
L 80 582 
L 83 579 
L 117 591 
L 117 567 
L 123 567 
L 123 591 
L 157 579 
L 160 582 
" fill="black" />
<path d="
" fill="black" />
<path d="
M 211 567 
L 238 567 
L 238 623 
L 211 623 
L 211 567 
" fill="black" />
<path d="
" fill="black" />
<path d="
M 370 567 
Q 341 574 , 328 581 
Q 315 588 , 315 595 
Q 315 602 , 328 609 
Q 341 616 , 370 623 
L 346 623 
Q 318 616 , 304 609 
Q 290 602 , 290 595 
Q 290 588 , 304 581 
Q 318 574 , 346 567 
L 370 567 
" fill="black" />
<path d="
M 475 567 
Q 446 574 , 433 581 
Q 420 588 , 420 595 
Q 420 602 , 433 609 
Q 446 616 , 475 623 
L 451 623 
Q 423 616 , 409 609 
Q 395 602 , 395 595 
Q 395 588 , 409 581 
Q 423 574 , 451 567 
L 475 567 
" fill="black" />
<path d="
" fill="black" />
<path d="
M 526 567 
L 553 567 
L 553 623 
L 526 623 
L 526 567 
" fill="black" />
<path d="
" fill="black" />
<path d="
" fill="black" />
<path d="
M 622 567 
L 642 567 
L 642 623 
L 622 623 
L 622 567 
" fill="black" />
<path d="
" fill="black" />
<path d="
M 682 595 
Q 679 595 , 677 599 
Q 675 602 , 675 607 
Q 675 613 , 677 616 
Q 679 619 , 682 619 
Q 685 619 , 687 616 
Q 689 613 , 689 607 
Q 689 602 , 687 599 
Q 685 595 , 682 595 
M 677 593 
Q 675 592 , 674 589 
Q 673 586 , 673 581 
Q 673 575 , 675 571 
Q 678 567 , 682 567 
Q 686 567 , 689 571 
Q 691 575 , 691 581 
Q 691 586 , 690 589 
Q 688 592 , 687 593 
Q 689 594 , 690 598 
Q 692 601 , 692 607 
Q 692 614 , 689 619 
Q 687 623 , 682 623 
Q 677 623 , 675 619 
Q 672 614 , 672 607 
Q 672 601 , 674 598 
Q 675 594 , 677 593 
M 677 573 
Q 675 576 , 675 581 
Q 675 586 , 677 589 
Q 679 592 , 682 592 
Q 685 592 , 687 589 
Q 689 586 , 689 581 
Q 689 576 , 687 574 
Q 685 571 , 682 571 
Q 679 571 , 677 573 
" fill="black" />
<path d="
M 790 582 
L 756 595 
L 790 608 
L 787 611 
L 753 598 
L 753 623 
L 747 623 
L 747 599 
L 713 611 
L 710 608 
L 744 595 
L 710 582 
L 713 579 
L 747 591 
L 747 567 
L 753 567 
L 753 591 
L 787 579 
L 790 582 
" fill="black" />
<path d="
" fill="black" />
<path d="
M 841 567 
L 868 567 
L 868 623 
L 841 623 
L 841 567 
" fill="black" />
<path d="
" fill="black" />
<path d="
M 920 567 
L 944 567 
Q 972 574 , 986 581 
Q 1000 588 , 1000 595 
Q 1000 602 , 986 609 
Q 972 616 , 944 623 
L 920 623 
Q 949 616 , 962 609 
Q 975 602 , 975 595 
Q 975 588 , 962 581 
Q 949 574 , 920 567 
" fill="black" />
<path d="
" fill="black" />
<path d="
M 1051 567 
L 1078 567 
L 1078 623 
L 1051 623 
L 1051 567 
" fill="black" />
<path d="
" fill="black" />
<path d="
" fill="black" />
<path d="
M 1156 567 
L 1183 567 
L 1183 623 
L 1156 623 
L 1156 567 
" fill="black" />
<path d="
" fill="black" />
<path d="
M 1235 567 
L 1259 567 
Q 1287 574 , 1301 581 
Q 1315 588 , 1315 595 
Q 1315 602 , 1301 609 
Q 1287 616 , 1259 623 
L 1235 623 
Q 1264 616 , 1277 609 
Q 1290 602 , 1290 595 
Q 1290 588 , 1277 581 
Q 1264 574 , 1235 567 
" fill="black" />
<path d="
M 1420 582 
L 1386 595 
L 1420 608 
L 1417 611 
L 1383 598 
L 1383 623 
L 1377 623 
L 1377 599 
L 1343 611 
L 1340 608 
L 1374 595 
L 1340 582 
L 1343 579 
L 1377 591 
L 1377 567 
L 1383 567 
L 1383 591 
L 1417 579 
L 1420 582 
" fill="black" />
</svg>
