<svg xmlns="http://www.w3.org/2000/svg"
viewBox="0 0 1435 635">
<path d="
M 120 554 
L 102 554 
L 136 554 
L 120 554 
M 113 554 
L 127 554 
L 170 555 
L 154 555 
L 142 554 
L 98 554 
L 85 555 
L 70 555 
L 113 554 
" fill="#339541" />
<path d="
M 70 553 
L 88 553 
L 88 553 
Q 88 553 , 96 554 
Q 103 554 , 120 554 
Q 137 554 , 145 554 
Q 152 553 , 152 553 
L 152 553 
L 170 553 
L 170 553 
Q 170 554 , 157 554 
Q 145 554 , 120 554 
Q 96 554 , 83 554 
Q 70 554 , 70 553 
L 70 553 
" fill="#D21010" />
<path d="
M 170 552 
L 170 552 
Q 155 552 , 147 552 
Q 139 552 , 129 552 
Q 108 552 , 98 552 
Q 86 552 , 86 552 
Q 86 553 , 98 553 
Q 108 553 , 129 553 
Q 139 553 , 147 553 
Q 155 553 , 170 553 
L 170 553 
Q 159 553 , 149 553 
Q 139 553 , 128 553 
Q 101 553 , 86 553 
Q 70 553 , 70 552 
Q 70 552 , 86 552 
Q 101 552 , 128 552 
Q 139 552 , 149 552 
Q 160 552 , 170 552 
" fill="#545FFF" />
<path d="
M 154 552 
L 154 551 
L 125 551 
L 125 551 
L 170 551 
L 170 552 
Q 159 552 , 148 552 
Q 139 552 , 127 552 
Q 101 552 , 85 552 
Q 70 552 , 70 551 
Q 70 551 , 85 551 
Q 101 551 , 127 551 
Q 138 551 , 147 551 
Q 157 551 , 167 551 
L 167 551 
Q 154 551 , 146 551 
Q 137 551 , 128 551 
Q 107 551 , 96 551 
Q 86 551 , 86 551 
Q 86 552 , 96 552 
Q 107 552 , 128 552 
Q 137 552 , 144 552 
Q 151 552 , 154 552 
" fill="#F5C000" />
<path d="
M 225 552 
L 207 553 
L 241 553 
L 225 552 
M 218 551 
L 232 551 
L 275 555 
L 259 555 
L 247 554 
L 203 554 
L 190 555 
L 175 555 
L 218 551 
" fill="#339541" />
<path d="
M 275 543 
L 275 544 
Q 260 543 , 252 543 
Q 244 543 , 234 543 
Q 213 543 , 203 544 
Q 191 545 , 191 546 
Q 191 548 , 203 549 
Q 213 549 , 234 549 
Q 244 549 , 252 549 
Q 260 549 , 275 548 
L 275 549 
Q 264 550 , 254 550 
Q 244 550 , 233 550 
Q 206 550 , 191 549 
Q 175 548 , 175 546 
Q 175 544 , 191 543 
Q 206 542 , 233 542 
Q 244 542 , 254 542 
Q 265 542 , 275 543 
" fill="#545FFF" />
<path d="
M 175 472 
L 193 472 
L 193 513 
Q 193 524 , 201 529 
Q 208 534 , 225 534 
Q 242 534 , 250 529 
Q 257 524 , 257 513 
L 257 472 
L 275 472 
L 275 514 
Q 275 527 , 262 534 
Q 250 541 , 225 541 
Q 201 541 , 188 534 
Q 175 527 , 175 514 
L 175 472 
" fill="#D21010" />
<path d="
M 259 461 
L 259 442 
L 230 442 
L 230 434 
L 275 434 
L 275 466 
Q 264 469 , 253 470 
Q 244 471 , 232 471 
Q 206 471 , 190 462 
Q 175 452 , 175 436 
Q 175 419 , 190 410 
Q 206 400 , 232 400 
Q 243 400 , 252 401 
Q 262 403 , 272 406 
L 272 415 
Q 259 411 , 251 410 
Q 242 409 , 233 409 
Q 212 409 , 201 415 
Q 191 422 , 191 436 
Q 191 450 , 201 457 
Q 212 463 , 233 463 
Q 242 463 , 249 463 
Q 256 462 , 259 461 
" fill="#F5C000" />
<path d="
M 330 552 
L 312 553 
L 346 553 
L 330 552 
M 323 551 
L 337 551 
L 380 555 
L 364 555 
L 352 554 
L 308 554 
L 295 555 
L 280 555 
L 323 551 
" fill="#339541" />
<path d="
M 280 532 
L 298 532 
L 298 543 
Q 298 546 , 306 547 
Q 313 548 , 330 548 
Q 347 548 , 355 547 
Q 362 546 , 362 543 
L 362 532 
L 380 532 
L 380 543 
Q 380 547 , 367 549 
Q 355 550 , 330 550 
Q 306 550 , 293 549 
Q 280 547 , 280 543 
L 280 532 
" fill="#D21010" />
<path d="
M 380 503 
L 380 508 
Q 365 504 , 357 503 
Q 349 503 , 339 503 
Q 318 503 , 308 506 
Q 296 509 , 296 515 
Q 296 522 , 308 525 
Q 318 528 , 339 528 
Q 349 528 , 357 527 
Q 365 527 , 380 523 
L 380 528 
Q 369 530 , 359 531 
Q 349 532 , 338 532 
Q 311 532 , 296 527 
Q 280 523 , 280 515 
Q 280 508 , 296 503 
Q 311 499 , 338 499 
Q 349 499 , 359 500 
Q 370 501 , 380 503 
" fill="#545FFF" />
<path d="
M 364 476 
L 364 434 
L 335 434 
L 335 417 
L 380 417 
L 380 487 
Q 369 493 , 358 496 
Q 349 498 , 337 499 
Q 311 499 , 295 478 
Q 280 457 , 280 420 
Q 280 384 , 295 363 
Q 311 342 , 337 342 
Q 348 342 , 357 345 
Q 367 348 , 377 355 
L 377 375 
Q 364 366 , 356 363 
Q 347 361 , 338 361 
Q 317 361 , 306 375 
Q 296 390 , 296 420 
Q 296 451 , 306 466 
Q 317 481 , 338 481 
Q 347 481 , 354 480 
Q 361 478 , 364 476 
" fill="#F5C000" />
<path d="
M 485 547 
L 485 548 
Q 470 547 , 462 547 
Q 454 547 , 444 547 
Q 423 547 , 413 548 
Q 401 549 , 401 550 
Q 401 552 , 413 553 
Q 423 553 , 444 553 
Q 454 553 , 462 553 
Q 470 553 , 485 552 
L 485 553 
Q 474 554 , 464 554 
Q 454 554 , 443 554 
Q 416 554 , 401 553 
Q 385 552 , 385 550 
Q 385 548 , 401 547 
Q 416 546 , 443 546 
Q 454 546 , 464 546 
Q 475 546 , 485 547 
" fill="#545FFF" />
<path d="
M 435 539 
L 417 542 
L 451 542 
L 435 539 
M 428 537 
L 442 537 
L 485 546 
L 469 546 
L 457 543 
L 413 543 
L 400 546 
L 385 546 
L 428 537 
" fill="#339541" />
<path d="
M 469 534 
L 469 528 
L 440 528 
L 440 526 
L 485 526 
L 485 535 
Q 474 536 , 463 537 
Q 454 537 , 442 537 
Q 416 537 , 400 534 
Q 385 531 , 385 527 
Q 385 522 , 400 519 
Q 416 516 , 442 516 
Q 453 516 , 462 516 
Q 472 517 , 482 518 
L 482 520 
Q 469 519 , 461 519 
Q 452 519 , 443 519 
Q 422 519 , 411 520 
Q 401 522 , 401 527 
Q 401 531 , 411 533 
Q 422 535 , 443 535 
Q 452 535 , 459 534 
Q 466 534 , 469 534 
" fill="#F5C000" />
<path d="
M 385 474 
L 403 474 
L 403 499 
Q 403 505 , 411 508 
Q 418 511 , 435 511 
Q 452 511 , 460 508 
Q 467 505 , 467 499 
L 467 474 
L 485 474 
L 485 499 
Q 485 507 , 472 511 
Q 460 516 , 435 516 
Q 411 516 , 398 511 
Q 385 507 , 385 499 
L 385 474 
" fill="#D21010" />
<path d="
M 540 551 
L 522 553 
L 556 553 
L 540 551 
M 533 550 
L 547 550 
L 590 554 
L 574 554 
L 562 553 
L 518 553 
L 505 554 
L 490 554 
L 533 550 
" fill="#339541" />
<path d="
M 590 531 
L 590 534 
Q 575 532 , 567 532 
Q 559 531 , 549 531 
Q 528 531 , 518 533 
Q 506 535 , 506 539 
Q 506 543 , 518 545 
Q 528 547 , 549 547 
Q 559 547 , 567 547 
Q 575 546 , 590 544 
L 590 547 
Q 579 548 , 569 549 
Q 559 549 , 548 549 
Q 521 549 , 506 547 
Q 490 544 , 490 539 
Q 490 535 , 506 532 
Q 521 529 , 548 529 
Q 559 529 , 569 530 
Q 580 530 , 590 531 
" fill="#545FFF" />
<path d="
M 490 502 
L 508 502 
L 508 517 
Q 508 522 , 516 524 
Q 523 525 , 540 525 
Q 557 525 , 565 524 
Q 572 522 , 572 517 
L 572 502 
L 590 502 
L 590 518 
Q 590 523 , 577 526 
Q 565 528 , 540 528 
Q 516 528 , 503 526 
Q 490 523 , 490 518 
L 490 502 
" fill="#D21010" />
<path d="
M 574 490 
L 574 468 
L 545 468 
L 545 460 
L 590 460 
L 590 495 
Q 579 499 , 568 500 
Q 559 501 , 547 502 
Q 521 502 , 505 491 
Q 490 480 , 490 461 
Q 490 443 , 505 432 
Q 521 421 , 547 421 
Q 558 421 , 567 422 
Q 577 424 , 587 428 
L 587 438 
Q 574 433 , 566 432 
Q 557 431 , 548 431 
Q 527 431 , 516 438 
Q 506 446 , 506 461 
Q 506 477 , 516 485 
Q 527 493 , 548 493 
Q 557 493 , 564 492 
Q 571 491 , 574 490 
" fill="#F5C000" />
<path d="
M 645 552 
L 627 553 
L 661 553 
L 645 552 
M 638 551 
L 652 551 
L 695 554 
L 679 554 
L 667 553 
L 623 553 
L 610 554 
L 595 554 
L 638 551 
" fill="#339541" />
<path d="
M 679 548 
L 679 544 
L 650 544 
L 650 543 
L 695 543 
L 695 549 
Q 684 550 , 673 550 
Q 664 550 , 652 550 
Q 626 550 , 610 548 
Q 595 547 , 595 543 
Q 595 540 , 610 538 
Q 626 536 , 652 536 
Q 663 536 , 672 536 
Q 682 537 , 692 537 
L 692 539 
Q 679 538 , 671 538 
Q 662 538 , 653 538 
Q 632 538 , 621 539 
Q 611 540 , 611 543 
Q 611 546 , 621 547 
Q 632 549 , 653 549 
Q 662 549 , 669 549 
Q 676 549 , 679 548 
" fill="#F5C000" />
<path d="
M 595 502 
L 613 502 
L 613 522 
Q 613 527 , 621 529 
Q 628 532 , 645 532 
Q 662 532 , 670 529 
Q 677 527 , 677 522 
L 677 502 
L 695 502 
L 695 522 
Q 695 529 , 682 532 
Q 670 535 , 645 535 
Q 621 535 , 608 532 
Q 595 529 , 595 522 
L 595 502 
" fill="#D21010" />
<path d="
M 695 464 
L 695 470 
Q 680 466 , 672 465 
Q 664 464 , 654 464 
Q 633 464 , 623 468 
Q 611 472 , 611 480 
Q 611 488 , 623 493 
Q 633 497 , 654 497 
Q 664 497 , 672 496 
Q 680 495 , 695 490 
L 695 497 
Q 684 499 , 674 500 
Q 664 501 , 653 501 
Q 626 501 , 611 496 
Q 595 490 , 595 480 
Q 595 470 , 611 465 
Q 626 459 , 653 459 
Q 664 459 , 674 460 
Q 685 461 , 695 464 
" fill="#545FFF" />
<path d="
M 750 554 
L 732 554 
L 766 554 
L 750 554 
M 743 554 
L 757 554 
L 800 555 
L 784 555 
L 772 554 
L 728 554 
L 715 555 
L 700 555 
L 743 554 
" fill="#339541" />
<path d="
M 700 553 
L 718 553 
L 718 553 
Q 718 553 , 726 554 
Q 733 554 , 750 554 
Q 767 554 , 775 554 
Q 782 553 , 782 553 
L 782 553 
L 800 553 
L 800 553 
Q 800 554 , 787 554 
Q 775 554 , 750 554 
Q 726 554 , 713 554 
Q 700 554 , 700 553 
L 700 553 
" fill="#D21010" />
<path d="
M 800 552 
L 800 552 
Q 785 552 , 777 552 
Q 769 552 , 759 552 
Q 738 552 , 728 552 
Q 716 552 , 716 552 
Q 716 553 , 728 553 
Q 738 553 , 759 553 
Q 769 553 , 777 553 
Q 785 553 , 800 553 
L 800 553 
Q 789 553 , 779 553 
Q 769 553 , 758 553 
Q 731 553 , 716 553 
Q 700 553 , 700 552 
Q 700 552 , 716 552 
Q 731 552 , 758 552 
Q 769 552 , 779 552 
Q 790 552 , 800 552 
" fill="#545FFF" />
<path d="
M 784 552 
L 784 551 
L 755 551 
L 755 551 
L 800 551 
L 800 552 
Q 789 552 , 778 552 
Q 769 552 , 757 552 
Q 731 552 , 715 552 
Q 700 552 , 700 551 
Q 700 551 , 715 551 
Q 731 551 , 757 551 
Q 768 551 , 777 551 
Q 787 551 , 797 551 
L 797 551 
Q 784 551 , 776 551 
Q 767 551 , 758 551 
Q 737 551 , 726 551 
Q 716 551 , 716 551 
Q 716 552 , 726 552 
Q 737 552 , 758 552 
Q 767 552 , 774 552 
Q 781 552 , 784 552 
" fill="#F5C000" />
<path d="
M 855 552 
L 837 554 
L 871 554 
L 855 552 
M 848 552 
L 862 552 
L 905 555 
L 889 555 
L 877 554 
L 833 554 
L 820 555 
L 805 555 
L 848 552 
" fill="#339541" />
<path d="
M 889 549 
L 889 545 
L 860 545 
L 860 543 
L 905 543 
L 905 550 
Q 894 551 , 883 551 
Q 874 551 , 862 551 
Q 836 551 , 820 549 
Q 805 547 , 805 543 
Q 805 539 , 820 537 
Q 836 535 , 862 535 
Q 873 535 , 882 535 
Q 892 536 , 902 536 
L 902 538 
Q 889 538 , 881 537 
Q 872 537 , 863 537 
Q 842 537 , 831 539 
Q 821 540 , 821 543 
Q 821 546 , 831 548 
Q 842 550 , 863 550 
Q 872 550 , 879 549 
Q 886 549 , 889 549 
" fill="#F5C000" />
<path d="
M 905 501 
L 905 507 
Q 890 503 , 882 502 
Q 874 501 , 864 501 
Q 843 501 , 833 505 
Q 821 509 , 821 516 
Q 821 523 , 833 527 
Q 843 531 , 864 531 
Q 874 531 , 882 530 
Q 890 529 , 905 525 
L 905 531 
Q 894 533 , 884 534 
Q 874 535 , 863 535 
Q 836 535 , 821 530 
Q 805 525 , 805 516 
Q 805 507 , 821 502 
Q 836 497 , 863 497 
Q 874 497 , 884 498 
Q 895 499 , 905 501 
" fill="#545FFF" />
<path d="
M 805 425 
L 823 425 
L 823 467 
Q 823 479 , 831 484 
Q 838 488 , 855 488 
Q 872 488 , 880 484 
Q 887 479 , 887 467 
L 887 425 
L 905 425 
L 905 468 
Q 905 482 , 892 489 
Q 880 496 , 855 496 
Q 831 496 , 818 489 
Q 805 482 , 805 468 
L 805 425 
" fill="#D21010" />
<path d="
M 960 552 
L 942 553 
L 976 553 
L 960 552 
M 953 552 
L 967 552 
L 1010 555 
L 994 555 
L 982 554 
L 938 554 
L 925 555 
L 910 555 
L 953 552 
" fill="#339541" />
<path d="
M 994 550 
L 994 545 
L 965 545 
L 965 543 
L 1010 543 
L 1010 551 
Q 999 551 , 988 552 
Q 979 552 , 967 552 
Q 941 552 , 925 550 
Q 910 547 , 910 543 
Q 910 540 , 925 537 
Q 941 535 , 967 535 
Q 978 535 , 987 535 
Q 997 536 , 1007 536 
L 1007 539 
Q 994 538 , 986 537 
Q 977 537 , 968 537 
Q 947 537 , 936 539 
Q 926 540 , 926 543 
Q 926 547 , 936 548 
Q 947 550 , 968 550 
Q 977 550 , 984 550 
Q 991 550 , 994 550 
" fill="#F5C000" />
<path d="
M 910 516 
L 928 516 
L 928 527 
Q 928 530 , 936 531 
Q 943 533 , 960 533 
Q 977 533 , 985 531 
Q 992 530 , 992 527 
L 992 516 
L 1010 516 
L 1010 527 
Q 1010 531 , 997 533 
Q 985 535 , 960 535 
Q 936 535 , 923 533 
Q 910 531 , 910 527 
L 910 516 
" fill="#D21010" />
<path d="
M 1010 494 
L 1010 498 
Q 995 496 , 987 495 
Q 979 495 , 969 495 
Q 948 495 , 938 497 
Q 926 499 , 926 503 
Q 926 508 , 938 510 
Q 948 513 , 969 513 
Q 979 513 , 987 512 
Q 995 511 , 1010 509 
L 1010 513 
Q 999 514 , 989 515 
Q 979 515 , 968 515 
Q 941 515 , 926 512 
Q 910 509 , 910 504 
Q 910 498 , 926 495 
Q 941 492 , 968 492 
Q 979 492 , 989 493 
Q 1000 493 , 1010 494 
" fill="#545FFF" />
<path d="
M 1065 548 
L 1047 551 
L 1081 551 
L 1065 548 
M 1058 547 
L 1072 547 
L 1115 555 
L 1099 555 
L 1087 552 
L 1043 552 
L 1030 555 
L 1015 555 
L 1058 547 
" fill="#339541" />
<path d="
M 1099 545 
L 1099 543 
L 1070 543 
L 1070 542 
L 1115 542 
L 1115 546 
Q 1104 546 , 1093 546 
Q 1084 547 , 1072 547 
Q 1046 547 , 1030 545 
Q 1015 544 , 1015 542 
Q 1015 540 , 1030 539 
Q 1046 538 , 1072 538 
Q 1083 538 , 1092 538 
Q 1102 538 , 1112 539 
L 1112 540 
Q 1099 539 , 1091 539 
Q 1082 539 , 1073 539 
Q 1052 539 , 1041 540 
Q 1031 541 , 1031 542 
Q 1031 544 , 1041 545 
Q 1052 546 , 1073 546 
Q 1082 546 , 1089 545 
Q 1096 545 , 1099 545 
" fill="#F5C000" />
<path d="
M 1115 500 
L 1115 507 
Q 1100 503 , 1092 502 
Q 1084 501 , 1074 501 
Q 1053 501 , 1043 505 
Q 1031 509 , 1031 517 
Q 1031 525 , 1043 529 
Q 1053 533 , 1074 533 
Q 1084 533 , 1092 532 
Q 1100 531 , 1115 527 
L 1115 533 
Q 1104 535 , 1094 536 
Q 1084 537 , 1073 537 
Q 1046 537 , 1031 532 
Q 1015 526 , 1015 517 
Q 1015 507 , 1031 502 
Q 1046 496 , 1073 496 
Q 1084 496 , 1094 497 
Q 1105 498 , 1115 500 
" fill="#545FFF" />
<path d="
M 1015 338 
L 1033 338 
L 1033 431 
Q 1033 457 , 1041 467 
Q 1048 478 , 1065 478 
Q 1082 478 , 1090 467 
Q 1097 457 , 1097 431 
L 1097 338 
L 1115 338 
L 1115 433 
Q 1115 463 , 1102 479 
Q 1090 495 , 1065 495 
Q 1041 495 , 1028 479 
Q 1015 463 , 1015 433 
L 1015 338 
" fill="#D21010" />
<path d="
M 1170 552 
L 1152 553 
L 1186 553 
L 1170 552 
M 1163 552 
L 1177 552 
L 1220 554 
L 1204 554 
L 1192 554 
L 1148 554 
L 1135 554 
L 1120 554 
L 1163 552 
" fill="#339541" />
<path d="
M 1120 534 
L 1138 534 
L 1138 544 
Q 1138 547 , 1146 548 
Q 1153 549 , 1170 549 
Q 1187 549 , 1195 548 
Q 1202 547 , 1202 544 
L 1202 534 
L 1220 534 
L 1220 544 
Q 1220 548 , 1207 549 
Q 1195 551 , 1170 551 
Q 1146 551 , 1133 549 
Q 1120 548 , 1120 544 
L 1120 534 
" fill="#D21010" />
<path d="
M 1204 529 
L 1204 521 
L 1175 521 
L 1175 517 
L 1220 517 
L 1220 531 
Q 1209 532 , 1198 533 
Q 1189 533 , 1177 533 
Q 1151 533 , 1135 529 
Q 1120 525 , 1120 518 
Q 1120 511 , 1135 507 
Q 1151 503 , 1177 503 
Q 1188 503 , 1197 504 
Q 1207 504 , 1217 505 
L 1217 509 
Q 1204 508 , 1196 507 
Q 1187 507 , 1178 507 
Q 1157 507 , 1146 509 
Q 1136 512 , 1136 518 
Q 1136 524 , 1146 527 
Q 1157 530 , 1178 530 
Q 1187 530 , 1194 530 
Q 1201 529 , 1204 529 
" fill="#F5C000" />
<path d="
M 1220 463 
L 1220 470 
Q 1205 465 , 1197 464 
Q 1189 463 , 1179 463 
Q 1158 463 , 1148 467 
Q 1136 472 , 1136 480 
Q 1136 489 , 1148 493 
Q 1158 498 , 1179 498 
Q 1189 498 , 1197 496 
Q 1205 495 , 1220 491 
L 1220 498 
Q 1209 500 , 1199 501 
Q 1189 502 , 1178 502 
Q 1151 502 , 1136 496 
Q 1120 490 , 1120 480 
Q 1120 470 , 1136 464 
Q 1151 458 , 1178 458 
Q 1189 458 , 1199 459 
Q 1210 460 , 1220 463 
" fill="#545FFF" />
<path d="
M 1309 553 
L 1309 552 
L 1280 552 
L 1280 551 
L 1325 551 
L 1325 554 
Q 1314 554 , 1303 554 
Q 1294 554 , 1282 554 
Q 1256 554 , 1240 554 
Q 1225 553 , 1225 552 
Q 1225 550 , 1240 550 
Q 1256 549 , 1282 549 
Q 1293 549 , 1302 549 
Q 1312 549 , 1322 549 
L 1322 550 
Q 1309 550 , 1301 550 
Q 1292 550 , 1283 550 
Q 1262 550 , 1251 550 
Q 1241 551 , 1241 552 
Q 1241 553 , 1251 553 
Q 1262 554 , 1283 554 
Q 1292 554 , 1299 554 
Q 1306 554 , 1309 553 
" fill="#F5C000" />
<path d="
M 1275 538 
L 1257 543 
L 1291 543 
L 1275 538 
M 1268 536 
L 1282 536 
L 1325 548 
L 1309 548 
L 1297 545 
L 1253 545 
L 1240 548 
L 1225 548 
L 1268 536 
" fill="#339541" />
<path d="
M 1225 496 
L 1243 496 
L 1243 520 
Q 1243 526 , 1251 529 
Q 1258 531 , 1275 531 
Q 1292 531 , 1300 529 
Q 1307 526 , 1307 520 
L 1307 496 
L 1325 496 
L 1325 520 
Q 1325 528 , 1312 532 
Q 1300 536 , 1275 536 
Q 1251 536 , 1238 532 
Q 1225 528 , 1225 520 
L 1225 496 
" fill="#D21010" />
<path d="
M 1325 407 
L 1325 422 
Q 1310 412 , 1302 410 
Q 1294 407 , 1284 407 
Q 1263 407 , 1253 417 
Q 1241 427 , 1241 446 
Q 1241 465 , 1253 475 
Q 1263 485 , 1284 485 
Q 1294 485 , 1302 482 
Q 1310 480 , 1325 470 
L 1325 486 
Q 1314 491 , 1304 493 
Q 1294 496 , 1283 496 
Q 1256 496 , 1241 482 
Q 1225 469 , 1225 446 
Q 1225 423 , 1241 410 
Q 1256 396 , 1283 396 
Q 1294 396 , 1304 398 
Q 1315 401 , 1325 407 
" fill="#545FFF" />
<path d="
M 1380 554 
L 1362 554 
L 1396 554 
L 1380 554 
M 1373 554 
L 1387 554 
L 1430 555 
L 1414 555 
L 1402 554 
L 1358 554 
L 1345 555 
L 1330 555 
L 1373 554 
" fill="#339541" />
<path d="
M 1330 553 
L 1348 553 
L 1348 553 
Q 1348 553 , 1356 554 
Q 1363 554 , 1380 554 
Q 1397 554 , 1405 554 
Q 1412 553 , 1412 553 
L 1412 553 
L 1430 553 
L 1430 553 
Q 1430 554 , 1417 554 
Q 1405 554 , 1380 554 
Q 1356 554 , 1343 554 
Q 1330 554 , 1330 553 
L 1330 553 
" fill="#D21010" />
<path d="
M 1430 552 
L 1430 552 
Q 1415 552 , 1407 552 
Q 1399 552 , 1389 552 
Q 1368 552 , 1358 552 
Q 1346 552 , 1346 552 
Q 1346 553 , 1358 553 
Q 1368 553 , 1389 553 
Q 1399 553 , 1407 553 
Q 1415 553 , 1430 553 
L 1430 553 
Q 1419 553 , 1409 553 
Q 1399 553 , 1388 553 
Q 1361 553 , 1346 553 
Q 1330 553 , 1330 552 
Q 1330 552 , 1346 552 
Q 1361 552 , 1388 552 
Q 1399 552 , 1409 552 
Q 1420 552 , 1430 552 
" fill="#545FFF" />
<path d="
M 1414 552 
L 1414 551 
L 1385 551 
L 1385 551 
L 1430 551 
L 1430 552 
Q 1419 552 , 1408 552 
Q 1399 552 , 1387 552 
Q 1361 552 , 1345 552 
Q 1330 552 , 1330 551 
Q 1330 551 , 1345 551 
Q 1361 551 , 1387 551 
Q 1398 551 , 1407 551 
Q 1417 551 , 1427 551 
L 1427 551 
Q 1414 551 , 1406 551 
Q 1397 551 , 1388 551 
Q 1367 551 , 1356 551 
Q 1346 551 , 1346 551 
Q 1346 552 , 1356 552 
Q 1367 552 , 1388 552 
Q 1397 552 , 1404 552 
Q 1411 552 , 1414 552 
" fill="#F5C000" />
<path d="M 65 55 L 65 555 " stroke="black" stroke-width="1.5"/>
<path d="M 55 555 L 65 555 " stroke="black" stroke-width="4"/>
<text text-anchor="end" x="50" y="555" font-size="50" alignment-baseline="middle">0</text>
<path d="M 55 305 L 65 305 " stroke="black" stroke-width="4"/>
<text text-anchor="end" x="50" y="305" font-size="50" alignment-baseline="middle">1</text>
<path d="M 55 55 L 65 55 " stroke="black" stroke-width="4"/>
<text text-anchor="end" x="50" y="55" font-size="50" alignment-baseline="middle">2</text>
<text text-anchor="middle" x="750" y="50" font-size="50" alignment-baseline="baseline"></text>
G<path d="
M 160 582 
L 126 595 
L 160 608 
L 157 611 
L 123 598 
L 123 623 
L 117 623 
L 117 599 
L 83 611 
L 80 608 
L 114 595 
L 80 582 
L 83 579 
L 117 591 
L 117 567 
L 123 567 
L 123 591 
L 157 579 
L 160 582 
" fill="black" />
<path d="
" fill="black" />
<path d="
M 211 567 
L 238 567 
L 238 623 
L 211 623 
L 211 567 
" fill="black" />
<path d="
" fill="black" />
<path d="
" fill="black" />
<path d="
M 316 567 
L 343 567 
L 343 623 
L 316 623 
L 316 567 
" fill="black" />
<path d="
" fill="black" />
<path d="
" fill="black" />
<path d="
M 421 567 
L 448 567 
L 448 623 
L 421 623 
L 421 567 
" fill="black" />
<path d="
" fill="black" />
<path d="
" fill="black" />
<path d="
M 526 567 
L 553 567 
L 553 623 
L 526 623 
L 526 567 
" fill="black" />
<path d="
" fill="black" />
<path d="
" fill="black" />
<path d="
M 617 567 
L 633 567 
L 633 623 
L 617 623 
L 617 567 
" fill="black" />
<path d="
" fill="black" />
<path d="
M 669 593 
Q 671 594 , 672 597 
Q 673 601 , 673 606 
Q 673 614 , 671 618 
Q 669 623 , 664 623 
Q 662 623 , 661 622 
Q 659 621 , 657 619 
L 657 613 
Q 659 617 , 660 618 
Q 662 619 , 664 619 
Q 667 619 , 669 616 
Q 671 613 , 671 606 
Q 671 601 , 669 598 
Q 668 595 , 664 595 
L 661 595 
L 661 591 
L 665 591 
Q 667 591 , 669 589 
Q 670 586 , 670 582 
Q 670 577 , 669 574 
Q 667 571 , 664 571 
Q 663 571 , 661 572 
Q 660 573 , 658 575 
L 658 571 
Q 660 569 , 662 568 
Q 663 567 , 665 567 
Q 669 567 , 671 571 
Q 672 575 , 672 581 
Q 672 586 , 671 589 
Q 671 592 , 669 593 
" fill="black" />
<path d="
M 688 571 
L 679 605 
L 688 605 
L 688 571 
M 687 567 
L 690 567 
L 690 605 
L 693 605 
L 693 608 
L 690 608 
L 690 623 
L 688 623 
L 688 608 
L 677 608 
L 677 604 
L 687 567 
" fill="black" />
<path d="
M 790 582 
L 756 595 
L 790 608 
L 787 611 
L 753 598 
L 753 623 
L 747 623 
L 747 599 
L 713 611 
L 710 608 
L 744 595 
L 710 582 
L 713 579 
L 747 591 
L 747 567 
L 753 567 
L 753 591 
L 787 579 
L 790 582 
" fill="black" />
<path d="
" fill="black" />
<path d="
M 841 567 
L 868 567 
L 868 623 
L 841 623 
L 841 567 
" fill="black" />
<path d="
" fill="black" />
<path d="
" fill="black" />
<path d="
M 946 567 
L 973 567 
L 973 623 
L 946 623 
L 946 567 
" fill="black" />
<path d="
" fill="black" />
<path d="
" fill="black" />
<path d="
M 1051 567 
L 1078 567 
L 1078 623 
L 1051 623 
L 1051 567 
" fill="black" />
<path d="
" fill="black" />
<path d="
" fill="black" />
<path d="
M 1156 567 
L 1183 567 
L 1183 623 
L 1156 623 
L 1156 567 
" fill="black" />
<path d="
" fill="black" />
<path d="
" fill="black" />
<path d="
M 1261 567 
L 1288 567 
L 1288 623 
L 1261 623 
L 1261 567 
" fill="black" />
<path d="
" fill="black" />
<path d="
M 1420 582 
L 1386 595 
L 1420 608 
L 1417 611 
L 1383 598 
L 1383 623 
L 1377 623 
L 1377 599 
L 1343 611 
L 1340 608 
L 1374 595 
L 1340 582 
L 1343 579 
L 1377 591 
L 1377 567 
L 1383 567 
L 1383 591 
L 1417 579 
L 1420 582 
" fill="black" />
</svg>
