<svg xmlns="http://www.w3.org/2000/svg"
viewBox="0 0 1435 635">
<path d="
M 120 554 
L 102 554 
L 136 554 
L 120 554 
M 113 554 
L 127 554 
L 170 554 
L 154 554 
L 142 554 
L 98 554 
L 85 554 
L 70 554 
L 113 554 
" fill="#339541" />
<path d="
M 70 553 
L 88 553 
L 88 553 
Q 88 553 , 96 553 
Q 103 553 , 120 553 
Q 137 553 , 145 553 
Q 152 553 , 152 553 
L 152 553 
L 170 553 
L 170 553 
Q 170 553 , 157 554 
Q 145 554 , 120 554 
Q 96 554 , 83 554 
Q 70 553 , 70 553 
L 70 553 
" fill="#D21010" />
<path d="
M 170 552 
L 170 552 
Q 155 552 , 147 552 
Q 139 552 , 129 552 
Q 108 552 , 98 552 
Q 86 552 , 86 552 
Q 86 552 , 98 552 
Q 108 553 , 129 553 
Q 139 553 , 147 553 
Q 155 553 , 170 552 
L 170 553 
Q 159 553 , 149 553 
Q 139 553 , 128 553 
Q 101 553 , 86 553 
Q 70 552 , 70 552 
Q 70 552 , 86 552 
Q 101 552 , 128 552 
Q 139 552 , 149 552 
Q 160 552 , 170 552 
" fill="#545FFF" />
<path d="
M 154 552 
L 154 551 
L 125 551 
L 125 551 
L 170 551 
L 170 552 
Q 159 552 , 148 552 
Q 139 552 , 127 552 
Q 101 552 , 85 552 
Q 70 551 , 70 551 
Q 70 551 , 85 551 
Q 101 551 , 127 551 
Q 138 551 , 147 551 
Q 157 551 , 167 551 
L 167 551 
Q 154 551 , 146 551 
Q 137 551 , 128 551 
Q 107 551 , 96 551 
Q 86 551 , 86 551 
Q 86 551 , 96 552 
Q 107 552 , 128 552 
Q 137 552 , 144 552 
Q 151 552 , 154 552 
" fill="#F5C000" />
<path d="
M 225 553 
L 207 554 
L 241 554 
L 225 553 
M 218 553 
L 232 553 
L 275 555 
L 259 555 
L 247 554 
L 203 554 
L 190 555 
L 175 555 
L 218 553 
" fill="#339541" />
<path d="
M 259 550 
L 259 545 
L 230 545 
L 230 543 
L 275 543 
L 275 551 
Q 264 552 , 253 552 
Q 244 552 , 232 552 
Q 206 552 , 190 550 
Q 175 548 , 175 544 
Q 175 540 , 190 537 
Q 206 535 , 232 535 
Q 243 535 , 252 535 
Q 262 536 , 272 536 
L 272 539 
Q 259 538 , 251 537 
Q 242 537 , 233 537 
Q 212 537 , 201 539 
Q 191 540 , 191 544 
Q 191 547 , 201 549 
Q 212 550 , 233 550 
Q 242 550 , 249 550 
Q 256 550 , 259 550 
" fill="#F5C000" />
<path d="
M 275 516 
L 275 519 
Q 260 517 , 252 517 
Q 244 516 , 234 516 
Q 213 516 , 203 518 
Q 191 520 , 191 524 
Q 191 528 , 203 531 
Q 213 533 , 234 533 
Q 244 533 , 252 532 
Q 260 531 , 275 529 
L 275 533 
Q 264 534 , 254 534 
Q 244 535 , 233 535 
Q 206 535 , 191 532 
Q 175 529 , 175 524 
Q 175 520 , 191 517 
Q 206 514 , 233 514 
Q 244 514 , 254 515 
Q 265 515 , 275 516 
" fill="#545FFF" />
<path d="
M 175 463 
L 193 463 
L 193 493 
Q 193 501 , 201 505 
Q 208 508 , 225 508 
Q 242 508 , 250 505 
Q 257 501 , 257 493 
L 257 463 
L 275 463 
L 275 494 
Q 275 503 , 262 509 
Q 250 514 , 225 514 
Q 201 514 , 188 509 
Q 175 503 , 175 494 
L 175 463 
" fill="#D21010" />
<path d="
M 280 553 
L 289 553 
L 289 554 
Q 289 554 , 293 554 
Q 296 554 , 305 554 
Q 314 554 , 317 554 
Q 321 554 , 321 554 
L 321 553 
L 330 553 
L 330 554 
Q 330 554 , 324 554 
Q 317 554 , 305 554 
Q 293 554 , 286 554 
Q 280 554 , 280 554 
L 280 553 
" fill="#D21010" />
<path d="
M 372 554 
L 372 554 
L 358 554 
L 358 554 
L 380 554 
L 380 554 
Q 375 554 , 369 554 
Q 364 554 , 358 554 
Q 345 554 , 338 554 
Q 330 554 , 330 554 
Q 330 553 , 338 553 
Q 345 553 , 358 553 
Q 364 553 , 369 553 
Q 374 553 , 379 553 
L 379 553 
Q 372 553 , 368 553 
Q 364 553 , 359 553 
Q 349 553 , 343 553 
Q 338 553 , 338 554 
Q 338 554 , 343 554 
Q 349 554 , 359 554 
Q 364 554 , 367 554 
Q 371 554 , 372 554 
" fill="lightgray" />
<path d="
M 322 553 
L 322 552 
L 308 552 
L 308 552 
L 330 552 
L 330 553 
Q 325 553 , 319 553 
Q 314 553 , 308 553 
Q 295 553 , 288 553 
Q 280 552 , 280 552 
Q 280 551 , 288 551 
Q 295 551 , 308 551 
Q 314 551 , 319 551 
Q 324 551 , 329 551 
L 329 551 
Q 322 551 , 318 551 
Q 314 551 , 309 551 
Q 299 551 , 293 551 
Q 288 552 , 288 552 
Q 288 552 , 293 552 
Q 299 553 , 309 553 
Q 314 553 , 317 553 
Q 321 553 , 322 553 
" fill="#F5C000" />
<path d="
M 330 551 
L 339 551 
L 339 552 
Q 339 552 , 343 552 
Q 346 553 , 355 553 
Q 364 553 , 367 552 
Q 371 552 , 371 552 
L 371 551 
L 380 551 
L 380 552 
Q 380 552 , 374 553 
Q 367 553 , 355 553 
Q 343 553 , 336 553 
Q 330 552 , 330 552 
L 330 551 
" fill="lightgray" />
<path d="
M 305 539 
L 296 545 
L 313 545 
L 305 539 
M 301 536 
L 309 536 
L 330 551 
L 322 551 
L 316 546 
L 294 546 
L 287 551 
L 280 551 
L 301 536 
" fill="#339541" />
<path d="
M 330 536 
L 339 536 
L 339 545 
Q 339 547 , 343 548 
Q 346 549 , 355 549 
Q 364 549 , 367 548 
Q 371 547 , 371 545 
L 371 536 
L 380 536 
L 380 545 
Q 380 548 , 374 549 
Q 367 551 , 355 551 
Q 343 551 , 336 549 
Q 330 548 , 330 545 
L 330 536 
" fill="lightgray" />
<path d="
M 280 519 
L 289 519 
L 289 529 
Q 289 531 , 293 532 
Q 296 533 , 305 533 
Q 314 533 , 317 532 
Q 321 531 , 321 529 
L 321 519 
L 330 519 
L 330 529 
Q 330 532 , 324 534 
Q 317 535 , 305 535 
Q 293 535 , 286 534 
Q 280 532 , 280 529 
L 280 519 
" fill="#D21010" />
<path d="
M 355 522 
L 346 529 
L 363 529 
L 355 522 
M 351 519 
L 359 519 
L 380 535 
L 372 535 
L 366 530 
L 344 530 
L 337 535 
L 330 535 
L 351 519 
" fill="lightgray" />
<path d="
M 322 513 
L 322 502 
L 308 502 
L 308 498 
L 330 498 
L 330 515 
Q 325 517 , 319 517 
Q 314 518 , 308 518 
Q 295 518 , 288 513 
Q 280 508 , 280 499 
Q 280 490 , 288 485 
Q 295 480 , 308 480 
Q 314 480 , 319 481 
Q 324 481 , 329 483 
L 329 488 
Q 322 486 , 318 485 
Q 314 485 , 309 485 
Q 299 485 , 293 488 
Q 288 492 , 288 499 
Q 288 507 , 293 510 
Q 299 514 , 309 514 
Q 314 514 , 317 513 
Q 321 513 , 322 513 
" fill="#F5C000" />
<path d="
M 380 484 
L 380 490 
Q 373 486 , 369 485 
Q 364 484 , 359 484 
Q 349 484 , 344 488 
Q 338 492 , 338 499 
Q 338 506 , 344 510 
Q 349 514 , 359 514 
Q 364 514 , 369 513 
Q 373 512 , 380 508 
L 380 514 
Q 375 516 , 369 517 
Q 365 518 , 359 518 
Q 345 518 , 338 513 
Q 330 508 , 330 499 
Q 330 490 , 338 485 
Q 345 480 , 359 480 
Q 365 480 , 370 481 
Q 375 482 , 380 484 
" fill="lightgray" />
<path d="
M 330 417 
L 330 428 
Q 323 421 , 319 420 
Q 314 418 , 309 418 
Q 299 418 , 294 424 
Q 288 431 , 288 444 
Q 288 458 , 294 465 
Q 299 472 , 309 472 
Q 314 472 , 319 470 
Q 323 469 , 330 462 
L 330 473 
Q 325 477 , 319 478 
Q 315 480 , 309 480 
Q 295 480 , 288 470 
Q 280 461 , 280 445 
Q 280 429 , 288 420 
Q 295 410 , 309 410 
Q 315 410 , 320 412 
Q 325 413 , 330 417 
" fill="#545FFF" />
<path d="
M 372 470 
L 372 451 
L 358 451 
L 358 443 
L 380 443 
L 380 474 
Q 375 477 , 369 479 
Q 364 480 , 358 480 
Q 345 480 , 338 470 
Q 330 461 , 330 445 
Q 330 429 , 338 419 
Q 345 410 , 358 410 
Q 364 410 , 369 411 
Q 374 413 , 379 416 
L 379 425 
Q 372 421 , 368 419 
Q 364 418 , 359 418 
Q 349 418 , 343 425 
Q 338 431 , 338 445 
Q 338 459 , 343 465 
Q 349 472 , 359 472 
Q 364 472 , 367 471 
Q 371 471 , 372 470 
" fill="lightgray" />
<path d="
M 435 550 
L 417 552 
L 451 552 
L 435 550 
M 428 549 
L 442 549 
L 485 554 
L 469 554 
L 457 553 
L 413 553 
L 400 554 
L 385 554 
L 428 549 
" fill="#339541" />
<path d="
M 485 536 
L 485 538 
Q 470 536 , 462 536 
Q 454 536 , 444 536 
Q 423 536 , 413 537 
Q 401 539 , 401 541 
Q 401 544 , 413 546 
Q 423 547 , 444 547 
Q 454 547 , 462 547 
Q 470 546 , 485 545 
L 485 547 
Q 474 548 , 464 549 
Q 454 549 , 443 549 
Q 416 549 , 401 547 
Q 385 545 , 385 541 
Q 385 538 , 401 536 
Q 416 534 , 443 534 
Q 454 534 , 464 534 
Q 475 535 , 485 536 
" fill="#545FFF" />
<path d="
M 469 530 
L 469 525 
L 440 525 
L 440 523 
L 485 523 
L 485 532 
Q 474 532 , 463 533 
Q 454 533 , 442 533 
Q 416 533 , 400 530 
Q 385 528 , 385 523 
Q 385 518 , 400 516 
Q 416 513 , 442 513 
Q 453 513 , 462 513 
Q 472 514 , 482 515 
L 482 517 
Q 469 516 , 461 516 
Q 452 515 , 443 515 
Q 422 515 , 411 517 
Q 401 519 , 401 523 
Q 401 527 , 411 529 
Q 422 531 , 443 531 
Q 452 531 , 459 531 
Q 466 530 , 469 530 
" fill="#F5C000" />
<path d="
M 385 398 
L 403 398 
L 403 466 
Q 403 484 , 411 492 
Q 418 500 , 435 500 
Q 452 500 , 460 492 
Q 467 484 , 467 466 
L 467 398 
L 485 398 
L 485 467 
Q 485 489 , 472 501 
Q 460 512 , 435 512 
Q 411 512 , 398 501 
Q 385 489 , 385 467 
L 385 398 
" fill="#D21010" />
<path d="
M 540 552 
L 522 553 
L 556 553 
L 540 552 
M 533 552 
L 547 552 
L 590 555 
L 574 555 
L 562 554 
L 518 554 
L 505 555 
L 490 555 
L 533 552 
" fill="#339541" />
<path d="
M 490 537 
L 508 537 
L 508 546 
Q 508 548 , 516 549 
Q 523 550 , 540 550 
Q 557 550 , 565 549 
Q 572 548 , 572 546 
L 572 537 
L 590 537 
L 590 546 
Q 590 549 , 577 550 
Q 565 552 , 540 552 
Q 516 552 , 503 550 
Q 490 549 , 490 546 
L 490 537 
" fill="#D21010" />
<path d="
M 590 520 
L 590 523 
Q 575 521 , 567 520 
Q 559 520 , 549 520 
Q 528 520 , 518 522 
Q 506 524 , 506 527 
Q 506 531 , 518 532 
Q 528 534 , 549 534 
Q 559 534 , 567 534 
Q 575 533 , 590 531 
L 590 534 
Q 579 535 , 569 536 
Q 559 536 , 548 536 
Q 521 536 , 506 534 
Q 490 531 , 490 527 
Q 490 523 , 506 520 
Q 521 518 , 548 518 
Q 559 518 , 569 518 
Q 580 519 , 590 520 
" fill="#545FFF" />
<path d="
M 574 512 
L 574 502 
L 545 502 
L 545 498 
L 590 498 
L 590 515 
Q 579 516 , 568 517 
Q 559 518 , 547 518 
Q 521 518 , 505 512 
Q 490 507 , 490 498 
Q 490 489 , 505 484 
Q 521 479 , 547 479 
Q 558 479 , 567 480 
Q 577 480 , 587 482 
L 587 487 
Q 574 485 , 566 484 
Q 557 484 , 548 484 
Q 527 484 , 516 487 
Q 506 491 , 506 498 
Q 506 506 , 516 510 
Q 527 513 , 548 513 
Q 557 513 , 564 513 
Q 571 513 , 574 512 
" fill="#F5C000" />
<path d="
M 645 552 
L 627 554 
L 661 554 
L 645 552 
M 638 552 
L 652 552 
L 695 555 
L 679 555 
L 667 554 
L 623 554 
L 610 555 
L 595 555 
L 638 552 
" fill="#339541" />
<path d="
M 679 550 
L 679 548 
L 650 548 
L 650 547 
L 695 547 
L 695 551 
Q 684 551 , 673 551 
Q 664 551 , 652 551 
Q 626 551 , 610 550 
Q 595 549 , 595 547 
Q 595 545 , 610 544 
Q 626 543 , 652 543 
Q 663 543 , 672 543 
Q 682 543 , 692 544 
L 692 545 
Q 679 544 , 671 544 
Q 662 544 , 653 544 
Q 632 544 , 621 545 
Q 611 546 , 611 547 
Q 611 549 , 621 550 
Q 632 550 , 653 550 
Q 662 550 , 669 550 
Q 676 550 , 679 550 
" fill="#F5C000" />
<path d="
M 695 504 
L 695 510 
Q 680 506 , 672 505 
Q 664 504 , 654 504 
Q 633 504 , 623 508 
Q 611 512 , 611 520 
Q 611 529 , 623 533 
Q 633 538 , 654 538 
Q 664 538 , 672 536 
Q 680 535 , 695 531 
L 695 538 
Q 684 540 , 674 541 
Q 664 542 , 653 542 
Q 626 542 , 611 536 
Q 595 531 , 595 521 
Q 595 511 , 611 505 
Q 626 499 , 653 499 
Q 664 499 , 674 500 
Q 685 501 , 695 504 
" fill="#545FFF" />
<path d="
M 595 444 
L 613 444 
L 613 476 
Q 613 485 , 621 489 
Q 628 493 , 645 493 
Q 662 493 , 670 489 
Q 677 485 , 677 476 
L 677 444 
L 695 444 
L 695 477 
Q 695 488 , 682 493 
Q 670 499 , 645 499 
Q 621 499 , 608 493 
Q 595 488 , 595 477 
L 595 444 
" fill="#D21010" />
<path d="
M 750 554 
L 732 554 
L 766 554 
L 750 554 
M 743 554 
L 757 554 
L 800 554 
L 784 554 
L 772 554 
L 728 554 
L 715 554 
L 700 554 
L 743 554 
" fill="#339541" />
<path d="
M 700 553 
L 718 553 
L 718 553 
Q 718 553 , 726 553 
Q 733 553 , 750 553 
Q 767 553 , 775 553 
Q 782 553 , 782 553 
L 782 553 
L 800 553 
L 800 553 
Q 800 553 , 787 554 
Q 775 554 , 750 554 
Q 726 554 , 713 554 
Q 700 553 , 700 553 
L 700 553 
" fill="#D21010" />
<path d="
M 800 552 
L 800 552 
Q 785 552 , 777 552 
Q 769 552 , 759 552 
Q 738 552 , 728 552 
Q 716 552 , 716 552 
Q 716 552 , 728 552 
Q 738 553 , 759 553 
Q 769 553 , 777 553 
Q 785 553 , 800 552 
L 800 553 
Q 789 553 , 779 553 
Q 769 553 , 758 553 
Q 731 553 , 716 553 
Q 700 552 , 700 552 
Q 700 552 , 716 552 
Q 731 552 , 758 552 
Q 769 552 , 779 552 
Q 790 552 , 800 552 
" fill="#545FFF" />
<path d="
M 784 552 
L 784 551 
L 755 551 
L 755 551 
L 800 551 
L 800 552 
Q 789 552 , 778 552 
Q 769 552 , 757 552 
Q 731 552 , 715 552 
Q 700 551 , 700 551 
Q 700 551 , 715 551 
Q 731 551 , 757 551 
Q 768 551 , 777 551 
Q 787 551 , 797 551 
L 797 551 
Q 784 551 , 776 551 
Q 767 551 , 758 551 
Q 737 551 , 726 551 
Q 716 551 , 716 551 
Q 716 551 , 726 552 
Q 737 552 , 758 552 
Q 767 552 , 774 552 
Q 781 552 , 784 552 
" fill="#F5C000" />
<path d="
M 855 552 
L 837 553 
L 871 553 
L 855 552 
M 848 552 
L 862 552 
L 905 554 
L 889 554 
L 877 554 
L 833 554 
L 820 554 
L 805 554 
L 848 552 
" fill="#339541" />
<path d="
M 805 538 
L 823 538 
L 823 546 
Q 823 548 , 831 549 
Q 838 550 , 855 550 
Q 872 550 , 880 549 
Q 887 548 , 887 546 
L 887 538 
L 905 538 
L 905 546 
Q 905 549 , 892 550 
Q 880 552 , 855 552 
Q 831 552 , 818 550 
Q 805 549 , 805 546 
L 805 538 
" fill="#D21010" />
<path d="
M 905 525 
L 905 527 
Q 890 525 , 882 525 
Q 874 525 , 864 525 
Q 843 525 , 833 526 
Q 821 528 , 821 530 
Q 821 533 , 833 535 
Q 843 536 , 864 536 
Q 874 536 , 882 536 
Q 890 536 , 905 534 
L 905 536 
Q 894 537 , 884 538 
Q 874 538 , 863 538 
Q 836 538 , 821 536 
Q 805 534 , 805 530 
Q 805 527 , 821 525 
Q 836 523 , 863 523 
Q 874 523 , 884 523 
Q 895 524 , 905 525 
" fill="#545FFF" />
<path d="
M 889 519 
L 889 512 
L 860 512 
L 860 509 
L 905 509 
L 905 520 
Q 894 521 , 883 522 
Q 874 522 , 862 522 
Q 836 522 , 820 519 
Q 805 516 , 805 510 
Q 805 504 , 820 501 
Q 836 498 , 862 498 
Q 873 498 , 882 498 
Q 892 499 , 902 500 
L 902 503 
Q 889 502 , 881 501 
Q 872 501 , 863 501 
Q 842 501 , 831 503 
Q 821 505 , 821 510 
Q 821 515 , 831 517 
Q 842 519 , 863 519 
Q 872 519 , 879 519 
Q 886 519 , 889 519 
" fill="#F5C000" />
<path d="
M 960 551 
L 942 553 
L 976 553 
L 960 551 
M 953 550 
L 967 550 
L 1010 554 
L 994 554 
L 982 553 
L 938 553 
L 925 554 
L 910 554 
L 953 550 
" fill="#339541" />
<path d="
M 910 539 
L 928 539 
L 928 545 
Q 928 547 , 936 548 
Q 943 549 , 960 549 
Q 977 549 , 985 548 
Q 992 547 , 992 545 
L 992 539 
L 1010 539 
L 1010 546 
Q 1010 548 , 997 549 
Q 985 550 , 960 550 
Q 936 550 , 923 549 
Q 910 548 , 910 546 
L 910 539 
" fill="#D21010" />
<path d="
M 994 535 
L 994 527 
L 965 527 
L 965 524 
L 1010 524 
L 1010 537 
Q 999 538 , 988 538 
Q 979 539 , 967 539 
Q 941 539 , 925 535 
Q 910 531 , 910 525 
Q 910 518 , 925 515 
Q 941 511 , 967 511 
Q 978 511 , 987 511 
Q 997 512 , 1007 513 
L 1007 517 
Q 994 515 , 986 515 
Q 977 514 , 968 514 
Q 947 514 , 936 517 
Q 926 520 , 926 525 
Q 926 530 , 936 533 
Q 947 536 , 968 536 
Q 977 536 , 984 535 
Q 991 535 , 994 535 
" fill="#F5C000" />
<path d="
M 1010 427 
L 1010 441 
Q 995 432 , 987 430 
Q 979 427 , 969 427 
Q 948 427 , 938 436 
Q 926 446 , 926 464 
Q 926 482 , 938 491 
Q 948 500 , 969 500 
Q 979 500 , 987 498 
Q 995 495 , 1010 486 
L 1010 501 
Q 999 506 , 989 508 
Q 979 510 , 968 510 
Q 941 510 , 926 498 
Q 910 485 , 910 464 
Q 910 442 , 926 430 
Q 941 417 , 968 417 
Q 979 417 , 989 419 
Q 1000 422 , 1010 427 
" fill="#545FFF" />
<path d="
M 1099 555 
L 1099 554 
L 1070 554 
L 1070 553 
L 1115 553 
L 1115 555 
Q 1104 555 , 1093 555 
Q 1084 555 , 1072 555 
Q 1046 555 , 1030 555 
Q 1015 554 , 1015 553 
Q 1015 553 , 1030 552 
Q 1046 552 , 1072 552 
Q 1083 552 , 1092 552 
Q 1102 552 , 1112 552 
L 1112 553 
Q 1099 552 , 1091 552 
Q 1082 552 , 1073 552 
Q 1052 552 , 1041 553 
Q 1031 553 , 1031 553 
Q 1031 554 , 1041 554 
Q 1052 555 , 1073 555 
Q 1082 555 , 1089 555 
Q 1096 555 , 1099 555 
" fill="#F5C000" />
<path d="
M 1115 548 
L 1115 549 
Q 1100 549 , 1092 548 
Q 1084 548 , 1074 548 
Q 1053 548 , 1043 549 
Q 1031 549 , 1031 550 
Q 1031 551 , 1043 551 
Q 1053 551 , 1074 551 
Q 1084 551 , 1092 551 
Q 1100 551 , 1115 551 
L 1115 551 
Q 1104 551 , 1094 552 
Q 1084 552 , 1073 552 
Q 1046 552 , 1031 551 
Q 1015 551 , 1015 550 
Q 1015 549 , 1031 548 
Q 1046 548 , 1073 548 
Q 1084 548 , 1094 548 
Q 1105 548 , 1115 548 
" fill="#545FFF" />
<path d="
M 1015 541 
L 1033 541 
L 1033 545 
Q 1033 546 , 1041 546 
Q 1048 547 , 1065 547 
Q 1082 547 , 1090 546 
Q 1097 546 , 1097 545 
L 1097 541 
L 1115 541 
L 1115 545 
Q 1115 546 , 1102 547 
Q 1090 548 , 1065 548 
Q 1041 548 , 1028 547 
Q 1015 546 , 1015 545 
L 1015 541 
" fill="#D21010" />
<path d="
M 1065 534 
L 1047 538 
L 1081 538 
L 1065 534 
M 1058 533 
L 1072 533 
L 1115 541 
L 1099 541 
L 1087 538 
L 1043 538 
L 1030 541 
L 1015 541 
L 1058 533 
" fill="#339541" />
<path d="
M 1120 553 
L 1129 553 
L 1129 554 
Q 1129 554 , 1133 554 
Q 1136 554 , 1145 554 
Q 1154 554 , 1157 554 
Q 1161 554 , 1161 554 
L 1161 553 
L 1170 553 
L 1170 554 
Q 1170 554 , 1164 554 
Q 1157 554 , 1145 554 
Q 1133 554 , 1126 554 
Q 1120 554 , 1120 554 
L 1120 553 
" fill="lightgray" />
<path d="
M 1212 554 
L 1212 554 
L 1198 554 
L 1198 554 
L 1220 554 
L 1220 554 
Q 1215 554 , 1209 554 
Q 1204 554 , 1198 554 
Q 1185 554 , 1178 554 
Q 1170 554 , 1170 554 
Q 1170 553 , 1178 553 
Q 1185 553 , 1198 553 
Q 1204 553 , 1209 553 
Q 1214 553 , 1219 553 
L 1219 553 
Q 1212 553 , 1208 553 
Q 1204 553 , 1199 553 
Q 1189 553 , 1183 553 
Q 1178 553 , 1178 554 
Q 1178 554 , 1183 554 
Q 1189 554 , 1199 554 
Q 1204 554 , 1207 554 
Q 1211 554 , 1212 554 
" fill="#F5C000" />
<path d="
M 1162 553 
L 1162 552 
L 1148 552 
L 1148 552 
L 1170 552 
L 1170 553 
Q 1165 553 , 1159 553 
Q 1154 553 , 1148 553 
Q 1135 553 , 1128 553 
Q 1120 552 , 1120 552 
Q 1120 551 , 1128 551 
Q 1135 551 , 1148 551 
Q 1154 551 , 1159 551 
Q 1164 551 , 1169 551 
L 1169 551 
Q 1162 551 , 1158 551 
Q 1154 551 , 1149 551 
Q 1139 551 , 1133 551 
Q 1128 552 , 1128 552 
Q 1128 552 , 1133 552 
Q 1139 553 , 1149 553 
Q 1154 553 , 1157 553 
Q 1161 553 , 1162 553 
" fill="lightgray" />
<path d="
M 1170 551 
L 1179 551 
L 1179 552 
Q 1179 552 , 1183 552 
Q 1186 553 , 1195 553 
Q 1204 553 , 1207 552 
Q 1211 552 , 1211 552 
L 1211 551 
L 1220 551 
L 1220 552 
Q 1220 552 , 1214 553 
Q 1207 553 , 1195 553 
Q 1183 553 , 1176 553 
Q 1170 552 , 1170 552 
L 1170 551 
" fill="#D21010" />
<path d="
M 1145 539 
L 1136 545 
L 1153 545 
L 1145 539 
M 1141 536 
L 1149 536 
L 1170 551 
L 1162 551 
L 1156 546 
L 1134 546 
L 1127 551 
L 1120 551 
L 1141 536 
" fill="lightgray" />
<path d="
M 1170 536 
L 1179 536 
L 1179 545 
Q 1179 547 , 1183 548 
Q 1186 549 , 1195 549 
Q 1204 549 , 1207 548 
Q 1211 547 , 1211 545 
L 1211 536 
L 1220 536 
L 1220 545 
Q 1220 548 , 1214 549 
Q 1207 551 , 1195 551 
Q 1183 551 , 1176 549 
Q 1170 548 , 1170 545 
L 1170 536 
" fill="#D21010" />
<path d="
M 1120 519 
L 1129 519 
L 1129 529 
Q 1129 531 , 1133 532 
Q 1136 533 , 1145 533 
Q 1154 533 , 1157 532 
Q 1161 531 , 1161 529 
L 1161 519 
L 1170 519 
L 1170 529 
Q 1170 532 , 1164 534 
Q 1157 535 , 1145 535 
Q 1133 535 , 1126 534 
Q 1120 532 , 1120 529 
L 1120 519 
" fill="lightgray" />
<path d="
M 1195 522 
L 1186 529 
L 1203 529 
L 1195 522 
M 1191 519 
L 1199 519 
L 1220 535 
L 1212 535 
L 1206 530 
L 1184 530 
L 1177 535 
L 1170 535 
L 1191 519 
" fill="#339541" />
<path d="
M 1162 513 
L 1162 502 
L 1148 502 
L 1148 498 
L 1170 498 
L 1170 515 
Q 1165 517 , 1159 517 
Q 1154 518 , 1148 518 
Q 1135 518 , 1128 513 
Q 1120 508 , 1120 499 
Q 1120 490 , 1128 485 
Q 1135 480 , 1148 480 
Q 1154 480 , 1159 481 
Q 1164 481 , 1169 483 
L 1169 488 
Q 1162 486 , 1158 485 
Q 1154 485 , 1149 485 
Q 1139 485 , 1133 488 
Q 1128 492 , 1128 499 
Q 1128 507 , 1133 510 
Q 1139 514 , 1149 514 
Q 1154 514 , 1157 513 
Q 1161 513 , 1162 513 
" fill="lightgray" />
<path d="
M 1220 484 
L 1220 490 
Q 1213 486 , 1209 485 
Q 1204 484 , 1199 484 
Q 1189 484 , 1184 488 
Q 1178 492 , 1178 499 
Q 1178 506 , 1184 510 
Q 1189 514 , 1199 514 
Q 1204 514 , 1209 513 
Q 1213 512 , 1220 508 
L 1220 514 
Q 1215 516 , 1209 517 
Q 1205 518 , 1199 518 
Q 1185 518 , 1178 513 
Q 1170 508 , 1170 499 
Q 1170 490 , 1178 485 
Q 1185 480 , 1199 480 
Q 1205 480 , 1210 481 
Q 1215 482 , 1220 484 
" fill="#545FFF" />
<path d="
M 1170 417 
L 1170 428 
Q 1163 421 , 1159 420 
Q 1154 418 , 1149 418 
Q 1139 418 , 1134 424 
Q 1128 431 , 1128 444 
Q 1128 458 , 1134 465 
Q 1139 472 , 1149 472 
Q 1154 472 , 1159 470 
Q 1163 469 , 1170 462 
L 1170 473 
Q 1165 477 , 1159 478 
Q 1155 480 , 1149 480 
Q 1135 480 , 1128 470 
Q 1120 461 , 1120 445 
Q 1120 429 , 1128 420 
Q 1135 410 , 1149 410 
Q 1155 410 , 1160 412 
Q 1165 413 , 1170 417 
" fill="lightgray" />
<path d="
M 1212 470 
L 1212 451 
L 1198 451 
L 1198 443 
L 1220 443 
L 1220 474 
Q 1215 477 , 1209 479 
Q 1204 480 , 1198 480 
Q 1185 480 , 1178 470 
Q 1170 461 , 1170 445 
Q 1170 429 , 1178 419 
Q 1185 410 , 1198 410 
Q 1204 410 , 1209 411 
Q 1214 413 , 1219 416 
L 1219 425 
Q 1212 421 , 1208 419 
Q 1204 418 , 1199 418 
Q 1189 418 , 1183 425 
Q 1178 431 , 1178 445 
Q 1178 459 , 1183 465 
Q 1189 472 , 1199 472 
Q 1204 472 , 1207 471 
Q 1211 471 , 1212 470 
" fill="#F5C000" />
<path d="
M 1225 550 
L 1243 550 
L 1243 552 
Q 1243 553 , 1251 553 
Q 1258 554 , 1275 554 
Q 1292 554 , 1300 553 
Q 1307 553 , 1307 552 
L 1307 550 
L 1325 550 
L 1325 552 
Q 1325 553 , 1312 554 
Q 1300 554 , 1275 554 
Q 1251 554 , 1238 554 
Q 1225 553 , 1225 552 
L 1225 550 
" fill="#D21010" />
<path d="
M 1325 545 
L 1325 546 
Q 1310 546 , 1302 546 
Q 1294 545 , 1284 545 
Q 1263 545 , 1253 546 
Q 1241 546 , 1241 547 
Q 1241 548 , 1253 549 
Q 1263 549 , 1284 549 
Q 1294 549 , 1302 549 
Q 1310 549 , 1325 548 
L 1325 549 
Q 1314 549 , 1304 549 
Q 1294 550 , 1283 550 
Q 1256 550 , 1241 549 
Q 1225 548 , 1225 547 
Q 1225 546 , 1241 546 
Q 1256 545 , 1283 545 
Q 1294 545 , 1304 545 
Q 1315 545 , 1325 545 
" fill="#545FFF" />
<path d="
M 1309 543 
L 1309 541 
L 1280 541 
L 1280 540 
L 1325 540 
L 1325 544 
Q 1314 544 , 1303 544 
Q 1294 544 , 1282 544 
Q 1256 544 , 1240 543 
Q 1225 542 , 1225 540 
Q 1225 538 , 1240 537 
Q 1256 536 , 1282 536 
Q 1293 536 , 1302 536 
Q 1312 536 , 1322 537 
L 1322 538 
Q 1309 537 , 1301 537 
Q 1292 537 , 1283 537 
Q 1262 537 , 1251 538 
Q 1241 538 , 1241 540 
Q 1241 542 , 1251 542 
Q 1262 543 , 1283 543 
Q 1292 543 , 1299 543 
Q 1306 543 , 1309 543 
" fill="#F5C000" />
<path d="
M 1275 525 
L 1257 530 
L 1291 530 
L 1275 525 
M 1268 523 
L 1282 523 
L 1325 535 
L 1309 535 
L 1297 532 
L 1253 532 
L 1240 535 
L 1225 535 
L 1268 523 
" fill="#339541" />
<path d="
M 1380 554 
L 1362 554 
L 1396 554 
L 1380 554 
M 1373 554 
L 1387 554 
L 1430 554 
L 1414 554 
L 1402 554 
L 1358 554 
L 1345 554 
L 1330 554 
L 1373 554 
" fill="#339541" />
<path d="
M 1330 553 
L 1348 553 
L 1348 553 
Q 1348 553 , 1356 553 
Q 1363 553 , 1380 553 
Q 1397 553 , 1405 553 
Q 1412 553 , 1412 553 
L 1412 553 
L 1430 553 
L 1430 553 
Q 1430 553 , 1417 554 
Q 1405 554 , 1380 554 
Q 1356 554 , 1343 554 
Q 1330 553 , 1330 553 
L 1330 553 
" fill="#D21010" />
<path d="
M 1430 552 
L 1430 552 
Q 1415 552 , 1407 552 
Q 1399 552 , 1389 552 
Q 1368 552 , 1358 552 
Q 1346 552 , 1346 552 
Q 1346 552 , 1358 552 
Q 1368 553 , 1389 553 
Q 1399 553 , 1407 553 
Q 1415 553 , 1430 552 
L 1430 553 
Q 1419 553 , 1409 553 
Q 1399 553 , 1388 553 
Q 1361 553 , 1346 553 
Q 1330 552 , 1330 552 
Q 1330 552 , 1346 552 
Q 1361 552 , 1388 552 
Q 1399 552 , 1409 552 
Q 1420 552 , 1430 552 
" fill="#545FFF" />
<path d="
M 1414 552 
L 1414 551 
L 1385 551 
L 1385 551 
L 1430 551 
L 1430 552 
Q 1419 552 , 1408 552 
Q 1399 552 , 1387 552 
Q 1361 552 , 1345 552 
Q 1330 551 , 1330 551 
Q 1330 551 , 1345 551 
Q 1361 551 , 1387 551 
Q 1398 551 , 1407 551 
Q 1417 551 , 1427 551 
L 1427 551 
Q 1414 551 , 1406 551 
Q 1397 551 , 1388 551 
Q 1367 551 , 1356 551 
Q 1346 551 , 1346 551 
Q 1346 551 , 1356 552 
Q 1367 552 , 1388 552 
Q 1397 552 , 1404 552 
Q 1411 552 , 1414 552 
" fill="#F5C000" />
<path d="M 65 168 L 65 555 " stroke="black" stroke-width="1.5"/>
<path d="M 55 555 L 65 555 " stroke="black" stroke-width="4"/>
<text text-anchor="end" x="50" y="555" font-size="50" alignment-baseline="middle">0</text>
<path d="M 55 362 L 65 362 " stroke="black" stroke-width="4"/>
<text text-anchor="end" x="50" y="362" font-size="50" alignment-baseline="middle">1</text>
<path d="M 55 168 L 65 168 " stroke="black" stroke-width="4"/>
<text text-anchor="end" x="50" y="168" font-size="50" alignment-baseline="middle">2</text>
<text text-anchor="middle" x="750" y="50" font-size="50" alignment-baseline="baseline"></text>
G<path d="
M 160 582 
L 126 595 
L 160 608 
L 157 611 
L 123 598 
L 123 623 
L 117 623 
L 117 599 
L 83 611 
L 80 608 
L 114 595 
L 80 582 
L 83 579 
L 117 591 
L 117 567 
L 123 567 
L 123 591 
L 157 579 
L 160 582 
" fill="black" />
<path d="
" fill="black" />
<path d="
M 211 567 
L 238 567 
L 238 623 
L 211 623 
L 211 567 
" fill="black" />
<path d="
" fill="black" />
<path d="
M 370 567 
Q 341 574 , 328 581 
Q 315 588 , 315 595 
Q 315 602 , 328 609 
Q 341 616 , 370 623 
L 346 623 
Q 318 616 , 304 609 
Q 290 602 , 290 595 
Q 290 588 , 304 581 
Q 318 574 , 346 567 
L 370 567 
" fill="black" />
<path d="
" fill="black" />
<path d="
M 421 567 
L 448 567 
L 448 623 
L 421 623 
L 421 567 
" fill="black" />
<path d="
" fill="black" />
<path d="
" fill="black" />
<path d="
M 526 567 
L 553 567 
L 553 623 
L 526 623 
L 526 567 
" fill="black" />
<path d="
" fill="black" />
<path d="
" fill="black" />
<path d="
M 622 567 
L 642 567 
L 642 623 
L 622 623 
L 622 567 
" fill="black" />
<path d="
" fill="black" />
<path d="
M 672 567 
L 692 567 
L 692 571 
L 680 623 
L 677 623 
L 689 571 
L 672 571 
L 672 567 
" fill="black" />
<path d="
M 790 582 
L 756 595 
L 790 608 
L 787 611 
L 753 598 
L 753 623 
L 747 623 
L 747 599 
L 713 611 
L 710 608 
L 744 595 
L 710 582 
L 713 579 
L 747 591 
L 747 567 
L 753 567 
L 753 591 
L 787 579 
L 790 582 
" fill="black" />
<path d="
" fill="black" />
<path d="
M 841 567 
L 868 567 
L 868 623 
L 841 623 
L 841 567 
" fill="black" />
<path d="
" fill="black" />
<path d="
" fill="black" />
<path d="
M 946 567 
L 973 567 
L 973 623 
L 946 623 
L 946 567 
" fill="black" />
<path d="
" fill="black" />
<path d="
" fill="black" />
<path d="
M 1051 567 
L 1078 567 
L 1078 623 
L 1051 623 
L 1051 567 
" fill="black" />
<path d="
" fill="black" />
<path d="
M 1130 567 
L 1154 567 
Q 1182 574 , 1196 581 
Q 1210 588 , 1210 595 
Q 1210 602 , 1196 609 
Q 1182 616 , 1154 623 
L 1130 623 
Q 1159 616 , 1172 609 
Q 1185 602 , 1185 595 
Q 1185 588 , 1172 581 
Q 1159 574 , 1130 567 
" fill="black" />
<path d="
" fill="black" />
<path d="
M 1261 567 
L 1288 567 
L 1288 623 
L 1261 623 
L 1261 567 
" fill="black" />
<path d="
" fill="black" />
<path d="
M 1420 582 
L 1386 595 
L 1420 608 
L 1417 611 
L 1383 598 
L 1383 623 
L 1377 623 
L 1377 599 
L 1343 611 
L 1340 608 
L 1374 595 
L 1340 582 
L 1343 579 
L 1377 591 
L 1377 567 
L 1383 567 
L 1383 591 
L 1417 579 
L 1420 582 
" fill="black" />
</svg>
