<svg xmlns="http://www.w3.org/2000/svg"
viewBox="0 0 1435 635">
<path d="
M 120 554 
L 102 554 
L 136 554 
L 120 554 
M 113 554 
L 127 554 
L 170 555 
L 154 555 
L 142 554 
L 98 554 
L 85 555 
L 70 555 
L 113 554 
" fill="#339541" />
<path d="
M 154 553 
L 154 553 
L 125 553 
L 125 553 
L 170 553 
L 170 554 
Q 159 554 , 148 554 
Q 139 554 , 127 554 
Q 101 554 , 85 553 
Q 70 553 , 70 553 
Q 70 553 , 85 553 
Q 101 553 , 127 553 
Q 138 553 , 147 553 
Q 157 553 , 167 553 
L 167 553 
Q 154 553 , 146 553 
Q 137 553 , 128 553 
Q 107 553 , 96 553 
Q 86 553 , 86 553 
Q 86 553 , 96 553 
Q 107 553 , 128 553 
Q 137 553 , 144 553 
Q 151 553 , 154 553 
" fill="#F5C000" />
<path d="
M 170 552 
L 170 552 
Q 155 552 , 147 552 
Q 139 552 , 129 552 
Q 108 552 , 98 552 
Q 86 552 , 86 552 
Q 86 552 , 98 553 
Q 108 553 , 129 553 
Q 139 553 , 147 553 
Q 155 553 , 170 553 
L 170 553 
Q 159 553 , 149 553 
Q 139 553 , 128 553 
Q 101 553 , 86 553 
Q 70 553 , 70 552 
Q 70 552 , 86 552 
Q 101 552 , 128 552 
Q 139 552 , 149 552 
Q 160 552 , 170 552 
" fill="#545FFF" />
<path d="
M 70 551 
L 88 551 
L 88 551 
Q 88 552 , 96 552 
Q 103 552 , 120 552 
Q 137 552 , 145 552 
Q 152 552 , 152 551 
L 152 551 
L 170 551 
L 170 551 
Q 170 552 , 157 552 
Q 145 552 , 120 552 
Q 96 552 , 83 552 
Q 70 552 , 70 551 
L 70 551 
" fill="#D21010" />
<path d="
M 217 554 
L 217 553 
L 203 553 
L 203 552 
L 225 552 
L 225 554 
Q 220 555 , 214 555 
Q 209 555 , 203 555 
Q 190 555 , 183 554 
Q 175 554 , 175 552 
Q 175 551 , 183 551 
Q 190 550 , 203 550 
Q 209 550 , 214 550 
Q 219 550 , 224 550 
L 224 551 
Q 217 551 , 213 551 
Q 209 551 , 204 551 
Q 194 551 , 188 551 
Q 183 551 , 183 552 
Q 183 553 , 188 554 
Q 194 554 , 204 554 
Q 209 554 , 212 554 
Q 216 554 , 217 554 
" fill="#F5C000" />
<path d="
M 225 550 
L 234 550 
L 234 553 
Q 234 554 , 238 554 
Q 241 554 , 250 554 
Q 259 554 , 262 554 
Q 266 554 , 266 553 
L 266 550 
L 275 550 
L 275 553 
Q 275 554 , 269 554 
Q 262 555 , 250 555 
Q 238 555 , 231 554 
Q 225 554 , 225 553 
L 225 550 
" fill="lightgray" />
<path d="
M 175 544 
L 184 544 
L 184 547 
Q 184 548 , 188 548 
Q 191 549 , 200 549 
Q 209 549 , 212 548 
Q 216 548 , 216 547 
L 216 544 
L 225 544 
L 225 547 
Q 225 548 , 219 549 
Q 212 549 , 200 549 
Q 188 549 , 181 549 
Q 175 548 , 175 547 
L 175 544 
" fill="#D21010" />
<path d="
M 250 545 
L 241 547 
L 258 547 
L 250 545 
M 246 544 
L 254 544 
L 275 549 
L 267 549 
L 261 548 
L 239 548 
L 232 549 
L 225 549 
L 246 544 
" fill="lightgray" />
<path d="
M 175 530 
L 184 530 
L 184 538 
Q 184 540 , 188 541 
Q 191 542 , 200 542 
Q 209 542 , 212 541 
Q 216 540 , 216 538 
L 216 530 
L 225 530 
L 225 538 
Q 225 540 , 219 542 
Q 212 543 , 200 543 
Q 188 543 , 181 542 
Q 175 540 , 175 538 
L 175 530 
" fill="#D21010" />
<path d="
M 267 541 
L 267 538 
L 253 538 
L 253 536 
L 275 536 
L 275 542 
Q 270 543 , 264 543 
Q 259 543 , 253 543 
Q 240 543 , 233 541 
Q 225 540 , 225 537 
Q 225 533 , 233 532 
Q 240 530 , 253 530 
Q 259 530 , 264 530 
Q 269 530 , 274 531 
L 274 533 
Q 267 532 , 263 532 
Q 259 532 , 254 532 
Q 244 532 , 238 533 
Q 233 534 , 233 537 
Q 233 539 , 238 540 
Q 244 542 , 254 542 
Q 259 542 , 262 541 
Q 266 541 , 267 541 
" fill="lightgray" />
<path d="
M 200 517 
L 191 523 
L 208 523 
L 200 517 
M 196 514 
L 204 514 
L 225 529 
L 217 529 
L 211 525 
L 189 525 
L 182 529 
L 175 529 
L 196 514 
" fill="#339541" />
<path d="
M 225 514 
L 234 514 
L 234 523 
Q 234 525 , 238 526 
Q 241 527 , 250 527 
Q 259 527 , 262 526 
Q 266 525 , 266 523 
L 266 514 
L 275 514 
L 275 523 
Q 275 526 , 269 528 
Q 262 529 , 250 529 
Q 238 529 , 231 528 
Q 225 526 , 225 523 
L 225 514 
" fill="lightgray" />
<path d="
M 225 494 
L 225 498 
Q 218 495 , 214 495 
Q 209 494 , 204 494 
Q 194 494 , 189 496 
Q 183 499 , 183 503 
Q 183 507 , 189 509 
Q 194 511 , 204 511 
Q 209 511 , 214 511 
Q 218 510 , 225 508 
L 225 511 
Q 220 513 , 214 513 
Q 210 514 , 204 514 
Q 190 514 , 183 511 
Q 175 508 , 175 503 
Q 175 498 , 183 495 
Q 190 492 , 204 492 
Q 210 492 , 215 493 
Q 220 493 , 225 494 
" fill="#545FFF" />
<path d="
M 267 510 
L 267 505 
L 253 505 
L 253 502 
L 275 502 
L 275 512 
Q 270 513 , 264 513 
Q 259 514 , 253 514 
Q 240 514 , 233 511 
Q 225 508 , 225 503 
Q 225 498 , 233 495 
Q 240 492 , 253 492 
Q 259 492 , 264 492 
Q 269 493 , 274 494 
L 274 497 
Q 267 495 , 263 495 
Q 259 495 , 254 495 
Q 244 495 , 238 497 
Q 233 499 , 233 503 
Q 233 507 , 238 509 
Q 244 511 , 254 511 
Q 259 511 , 262 511 
Q 266 511 , 267 510 
" fill="lightgray" />
<path d="
M 217 478 
L 217 453 
L 203 453 
L 203 442 
L 225 442 
L 225 484 
Q 220 488 , 214 490 
Q 209 491 , 203 491 
Q 190 491 , 183 479 
Q 175 466 , 175 444 
Q 175 422 , 183 410 
Q 190 397 , 203 397 
Q 209 397 , 214 399 
Q 219 400 , 224 405 
L 224 417 
Q 217 411 , 213 410 
Q 209 408 , 204 408 
Q 194 408 , 188 417 
Q 183 426 , 183 444 
Q 183 463 , 188 472 
Q 194 481 , 204 481 
Q 209 481 , 212 480 
Q 216 479 , 217 478 
" fill="#F5C000" />
<path d="
M 275 407 
L 275 422 
Q 268 412 , 264 410 
Q 259 407 , 254 407 
Q 244 407 , 239 417 
Q 233 426 , 233 444 
Q 233 462 , 239 472 
Q 244 481 , 254 481 
Q 259 481 , 264 479 
Q 268 476 , 275 467 
L 275 482 
Q 270 487 , 264 489 
Q 260 491 , 254 491 
Q 240 491 , 233 479 
Q 225 466 , 225 444 
Q 225 423 , 233 410 
Q 240 397 , 254 397 
Q 260 397 , 265 399 
Q 270 402 , 275 407 
" fill="lightgray" />
<path d="
M 364 553 
L 364 551 
L 335 551 
L 335 551 
L 380 551 
L 380 554 
Q 369 554 , 358 554 
Q 349 555 , 337 555 
Q 311 555 , 295 554 
Q 280 553 , 280 551 
Q 280 549 , 295 548 
Q 311 547 , 337 547 
Q 348 547 , 357 547 
Q 367 547 , 377 548 
L 377 549 
Q 364 548 , 356 548 
Q 347 548 , 338 548 
Q 317 548 , 306 549 
Q 296 549 , 296 551 
Q 296 552 , 306 553 
Q 317 554 , 338 554 
Q 347 554 , 354 554 
Q 361 554 , 364 553 
" fill="#F5C000" />
<path d="
M 330 537 
L 312 542 
L 346 542 
L 330 537 
M 323 535 
L 337 535 
L 380 547 
L 364 547 
L 352 543 
L 308 543 
L 295 547 
L 280 547 
L 323 535 
" fill="#339541" />
<path d="
M 280 514 
L 298 514 
L 298 526 
Q 298 529 , 306 531 
Q 313 532 , 330 532 
Q 347 532 , 355 531 
Q 362 529 , 362 526 
L 362 514 
L 380 514 
L 380 526 
Q 380 530 , 367 532 
Q 355 534 , 330 534 
Q 306 534 , 293 532 
Q 280 530 , 280 526 
L 280 514 
" fill="#D21010" />
<path d="
M 380 405 
L 380 424 
Q 365 412 , 357 409 
Q 349 405 , 339 405 
Q 318 405 , 308 417 
Q 296 429 , 296 452 
Q 296 476 , 308 489 
Q 318 500 , 339 500 
Q 349 500 , 357 497 
Q 365 494 , 380 482 
L 380 501 
Q 369 508 , 359 511 
Q 349 514 , 338 514 
Q 311 514 , 296 497 
Q 280 481 , 280 453 
Q 280 425 , 296 409 
Q 311 392 , 338 392 
Q 349 392 , 359 395 
Q 370 398 , 380 405 
" fill="#545FFF" />
<path d="
M 485 551 
L 485 552 
Q 470 552 , 462 552 
Q 454 551 , 444 551 
Q 423 551 , 413 552 
Q 401 552 , 401 553 
Q 401 554 , 413 554 
Q 423 554 , 444 554 
Q 454 554 , 462 554 
Q 470 554 , 485 554 
L 485 554 
Q 474 555 , 464 555 
Q 454 555 , 443 555 
Q 416 555 , 401 554 
Q 385 554 , 385 553 
Q 385 552 , 401 552 
Q 416 551 , 443 551 
Q 454 551 , 464 551 
Q 475 551 , 485 551 
" fill="#545FFF" />
<path d="
M 435 547 
L 417 549 
L 451 549 
L 435 547 
M 428 546 
L 442 546 
L 485 551 
L 469 551 
L 457 549 
L 413 549 
L 400 551 
L 385 551 
L 428 546 
" fill="#339541" />
<path d="
M 469 545 
L 469 543 
L 440 543 
L 440 542 
L 485 542 
L 485 545 
Q 474 546 , 463 546 
Q 454 546 , 442 546 
Q 416 546 , 400 545 
Q 385 544 , 385 542 
Q 385 540 , 400 539 
Q 416 538 , 442 538 
Q 453 538 , 462 538 
Q 472 538 , 482 539 
L 482 540 
Q 469 539 , 461 539 
Q 452 539 , 443 539 
Q 422 539 , 411 540 
Q 401 540 , 401 542 
Q 401 543 , 411 544 
Q 422 545 , 443 545 
Q 452 545 , 459 545 
Q 466 545 , 469 545 
" fill="#F5C000" />
<path d="
M 385 525 
L 403 525 
L 403 532 
Q 403 534 , 411 535 
Q 418 536 , 435 536 
Q 452 536 , 460 535 
Q 467 534 , 467 532 
L 467 525 
L 485 525 
L 485 532 
Q 485 535 , 472 536 
Q 460 537 , 435 537 
Q 411 537 , 398 536 
Q 385 535 , 385 532 
L 385 525 
" fill="#D21010" />
<path d="
M 540 552 
L 522 554 
L 556 554 
L 540 552 
M 533 552 
L 547 552 
L 590 555 
L 574 555 
L 562 554 
L 518 554 
L 505 555 
L 490 555 
L 533 552 
" fill="#339541" />
<path d="
M 590 542 
L 590 544 
Q 575 543 , 567 542 
Q 559 542 , 549 542 
Q 528 542 , 518 543 
Q 506 544 , 506 546 
Q 506 548 , 518 549 
Q 528 550 , 549 550 
Q 559 550 , 567 550 
Q 575 550 , 590 549 
L 590 550 
Q 579 551 , 569 551 
Q 559 551 , 548 551 
Q 521 551 , 506 550 
Q 490 549 , 490 546 
Q 490 544 , 506 542 
Q 521 541 , 548 541 
Q 559 541 , 569 541 
Q 580 542 , 590 542 
" fill="#545FFF" />
<path d="
M 490 520 
L 508 520 
L 508 532 
Q 508 535 , 516 537 
Q 523 538 , 540 538 
Q 557 538 , 565 537 
Q 572 535 , 572 532 
L 572 520 
L 590 520 
L 590 532 
Q 590 536 , 577 538 
Q 565 540 , 540 540 
Q 516 540 , 503 538 
Q 490 536 , 490 532 
L 490 520 
" fill="#D21010" />
<path d="
M 574 516 
L 574 509 
L 545 509 
L 545 506 
L 590 506 
L 590 518 
Q 579 519 , 568 519 
Q 559 520 , 547 520 
Q 521 520 , 505 516 
Q 490 513 , 490 507 
Q 490 501 , 505 497 
Q 521 494 , 547 494 
Q 558 494 , 567 494 
Q 577 495 , 587 496 
L 587 499 
Q 574 498 , 566 498 
Q 557 497 , 548 497 
Q 527 497 , 516 500 
Q 506 502 , 506 507 
Q 506 512 , 516 515 
Q 527 517 , 548 517 
Q 557 517 , 564 517 
Q 571 516 , 574 516 
" fill="#F5C000" />
<path d="
M 679 554 
L 679 553 
L 650 553 
L 650 552 
L 695 552 
L 695 555 
Q 684 555 , 673 555 
Q 664 555 , 652 555 
Q 626 555 , 610 554 
Q 595 554 , 595 552 
Q 595 551 , 610 551 
Q 626 550 , 652 550 
Q 663 550 , 672 550 
Q 682 550 , 692 550 
L 692 551 
Q 679 551 , 671 551 
Q 662 551 , 653 551 
Q 632 551 , 621 551 
Q 611 552 , 611 552 
Q 611 553 , 621 554 
Q 632 554 , 653 554 
Q 662 554 , 669 554 
Q 676 554 , 679 554 
" fill="#F5C000" />
<path d="
M 595 544 
L 613 544 
L 613 547 
Q 613 548 , 621 548 
Q 628 549 , 645 549 
Q 662 549 , 670 548 
Q 677 548 , 677 547 
L 677 544 
L 695 544 
L 695 547 
Q 695 548 , 682 549 
Q 670 549 , 645 549 
Q 621 549 , 608 549 
Q 595 548 , 595 547 
L 595 544 
" fill="#D21010" />
<path d="
M 645 538 
L 627 541 
L 661 541 
L 645 538 
M 638 537 
L 652 537 
L 695 544 
L 679 544 
L 667 542 
L 623 542 
L 610 544 
L 595 544 
L 638 537 
" fill="#339541" />
<path d="
M 695 524 
L 695 526 
Q 680 524 , 672 524 
Q 664 524 , 654 524 
Q 633 524 , 623 525 
Q 611 527 , 611 529 
Q 611 532 , 623 534 
Q 633 535 , 654 535 
Q 664 535 , 672 535 
Q 680 534 , 695 533 
L 695 535 
Q 684 536 , 674 536 
Q 664 537 , 653 537 
Q 626 537 , 611 535 
Q 595 533 , 595 529 
Q 595 526 , 611 524 
Q 626 522 , 653 522 
Q 664 522 , 674 522 
Q 685 523 , 695 524 
" fill="#545FFF" />
<path d="
M 750 554 
L 732 554 
L 766 554 
L 750 554 
M 743 554 
L 757 554 
L 800 555 
L 784 555 
L 772 554 
L 728 554 
L 715 555 
L 700 555 
L 743 554 
" fill="#339541" />
<path d="
M 784 553 
L 784 553 
L 755 553 
L 755 553 
L 800 553 
L 800 554 
Q 789 554 , 778 554 
Q 769 554 , 757 554 
Q 731 554 , 715 553 
Q 700 553 , 700 553 
Q 700 553 , 715 553 
Q 731 553 , 757 553 
Q 768 553 , 777 553 
Q 787 553 , 797 553 
L 797 553 
Q 784 553 , 776 553 
Q 767 553 , 758 553 
Q 737 553 , 726 553 
Q 716 553 , 716 553 
Q 716 553 , 726 553 
Q 737 553 , 758 553 
Q 767 553 , 774 553 
Q 781 553 , 784 553 
" fill="#F5C000" />
<path d="
M 800 552 
L 800 552 
Q 785 552 , 777 552 
Q 769 552 , 759 552 
Q 738 552 , 728 552 
Q 716 552 , 716 552 
Q 716 552 , 728 553 
Q 738 553 , 759 553 
Q 769 553 , 777 553 
Q 785 553 , 800 553 
L 800 553 
Q 789 553 , 779 553 
Q 769 553 , 758 553 
Q 731 553 , 716 553 
Q 700 553 , 700 552 
Q 700 552 , 716 552 
Q 731 552 , 758 552 
Q 769 552 , 779 552 
Q 790 552 , 800 552 
" fill="#545FFF" />
<path d="
M 700 551 
L 718 551 
L 718 551 
Q 718 552 , 726 552 
Q 733 552 , 750 552 
Q 767 552 , 775 552 
Q 782 552 , 782 551 
L 782 551 
L 800 551 
L 800 551 
Q 800 552 , 787 552 
Q 775 552 , 750 552 
Q 726 552 , 713 552 
Q 700 552 , 700 551 
L 700 551 
" fill="#D21010" />
<path d="
M 855 552 
L 837 553 
L 871 553 
L 855 552 
M 848 551 
L 862 551 
L 905 554 
L 889 554 
L 877 553 
L 833 553 
L 820 554 
L 805 554 
L 848 551 
" fill="#339541" />
<path d="
M 805 546 
L 823 546 
L 823 549 
Q 823 549 , 831 550 
Q 838 550 , 855 550 
Q 872 550 , 880 550 
Q 887 549 , 887 549 
L 887 546 
L 905 546 
L 905 549 
Q 905 549 , 892 550 
Q 880 550 , 855 550 
Q 831 550 , 818 550 
Q 805 549 , 805 549 
L 805 546 
" fill="#D21010" />
<path d="
M 905 538 
L 905 539 
Q 890 538 , 882 538 
Q 874 538 , 864 538 
Q 843 538 , 833 539 
Q 821 540 , 821 541 
Q 821 543 , 833 544 
Q 843 545 , 864 545 
Q 874 545 , 882 544 
Q 890 544 , 905 543 
L 905 545 
Q 894 545 , 884 545 
Q 874 546 , 863 546 
Q 836 546 , 821 544 
Q 805 543 , 805 541 
Q 805 539 , 821 538 
Q 836 537 , 863 537 
Q 874 537 , 884 537 
Q 895 537 , 905 538 
" fill="#545FFF" />
<path d="
M 889 536 
L 889 533 
L 860 533 
L 860 532 
L 905 532 
L 905 536 
Q 894 537 , 883 537 
Q 874 537 , 862 537 
Q 836 537 , 820 536 
Q 805 534 , 805 532 
Q 805 530 , 820 529 
Q 836 528 , 862 528 
Q 873 528 , 882 528 
Q 892 528 , 902 529 
L 902 530 
Q 889 529 , 881 529 
Q 872 529 , 863 529 
Q 842 529 , 831 530 
Q 821 531 , 821 532 
Q 821 534 , 831 535 
Q 842 536 , 863 536 
Q 872 536 , 879 536 
Q 886 536 , 889 536 
" fill="#F5C000" />
<path d="
M 994 553 
L 994 550 
L 965 550 
L 965 549 
L 1010 549 
L 1010 554 
Q 999 554 , 988 554 
Q 979 555 , 967 555 
Q 941 555 , 925 553 
Q 910 551 , 910 549 
Q 910 546 , 925 545 
Q 941 543 , 967 543 
Q 978 543 , 987 543 
Q 997 543 , 1007 544 
L 1007 545 
Q 994 545 , 986 545 
Q 977 544 , 968 544 
Q 947 544 , 936 545 
Q 926 547 , 926 549 
Q 926 551 , 936 552 
Q 947 553 , 968 553 
Q 977 553 , 984 553 
Q 991 553 , 994 553 
" fill="#F5C000" />
<path d="
M 960 532 
L 942 538 
L 976 538 
L 960 532 
M 953 530 
L 967 530 
L 1010 543 
L 994 543 
L 982 539 
L 938 539 
L 925 543 
L 910 543 
L 953 530 
" fill="#339541" />
<path d="
M 910 516 
L 928 516 
L 928 524 
Q 928 526 , 936 527 
Q 943 528 , 960 528 
Q 977 528 , 985 527 
Q 992 526 , 992 524 
L 992 516 
L 1010 516 
L 1010 524 
Q 1010 527 , 997 528 
Q 985 529 , 960 529 
Q 936 529 , 923 528 
Q 910 527 , 910 524 
L 910 516 
" fill="#D21010" />
<path d="
M 1010 432 
L 1010 446 
Q 995 437 , 987 435 
Q 979 432 , 969 432 
Q 948 432 , 938 441 
Q 926 451 , 926 469 
Q 926 487 , 938 496 
Q 948 506 , 969 506 
Q 979 506 , 987 503 
Q 995 501 , 1010 491 
L 1010 506 
Q 999 511 , 989 514 
Q 979 516 , 968 516 
Q 941 516 , 926 503 
Q 910 490 , 910 469 
Q 910 447 , 926 435 
Q 941 422 , 968 422 
Q 979 422 , 989 424 
Q 1000 427 , 1010 432 
" fill="#545FFF" />
<path d="
M 1099 554 
L 1099 553 
L 1070 553 
L 1070 552 
L 1115 552 
L 1115 554 
Q 1104 554 , 1093 554 
Q 1084 554 , 1072 554 
Q 1046 554 , 1030 554 
Q 1015 553 , 1015 552 
Q 1015 551 , 1030 551 
Q 1046 550 , 1072 550 
Q 1083 550 , 1092 550 
Q 1102 550 , 1112 550 
L 1112 551 
Q 1099 551 , 1091 551 
Q 1082 551 , 1073 551 
Q 1052 551 , 1041 551 
Q 1031 551 , 1031 552 
Q 1031 553 , 1041 553 
Q 1052 554 , 1073 554 
Q 1082 554 , 1089 554 
Q 1096 554 , 1099 554 
" fill="#F5C000" />
<path d="
M 1065 543 
L 1047 546 
L 1081 546 
L 1065 543 
M 1058 542 
L 1072 542 
L 1115 549 
L 1099 549 
L 1087 547 
L 1043 547 
L 1030 549 
L 1015 549 
L 1058 542 
" fill="#339541" />
<path d="
M 1115 524 
L 1115 527 
Q 1100 525 , 1092 525 
Q 1084 524 , 1074 524 
Q 1053 524 , 1043 526 
Q 1031 528 , 1031 531 
Q 1031 535 , 1043 537 
Q 1053 539 , 1074 539 
Q 1084 539 , 1092 539 
Q 1100 538 , 1115 536 
L 1115 539 
Q 1104 540 , 1094 541 
Q 1084 541 , 1073 541 
Q 1046 541 , 1031 539 
Q 1015 536 , 1015 532 
Q 1015 527 , 1031 525 
Q 1046 522 , 1073 522 
Q 1084 522 , 1094 522 
Q 1105 523 , 1115 524 
" fill="#545FFF" />
<path d="
M 1015 495 
L 1033 495 
L 1033 511 
Q 1033 515 , 1041 517 
Q 1048 519 , 1065 519 
Q 1082 519 , 1090 517 
Q 1097 515 , 1097 511 
L 1097 495 
L 1115 495 
L 1115 511 
Q 1115 516 , 1102 519 
Q 1090 522 , 1065 522 
Q 1041 522 , 1028 519 
Q 1015 516 , 1015 511 
L 1015 495 
" fill="#D21010" />
<path d="
M 1170 549 
L 1152 552 
L 1186 552 
L 1170 549 
M 1163 548 
L 1177 548 
L 1220 554 
L 1204 554 
L 1192 552 
L 1148 552 
L 1135 554 
L 1120 554 
L 1163 548 
" fill="#339541" />
<path d="
M 1220 540 
L 1220 541 
Q 1205 540 , 1197 540 
Q 1189 540 , 1179 540 
Q 1158 540 , 1148 541 
Q 1136 541 , 1136 543 
Q 1136 545 , 1148 545 
Q 1158 546 , 1179 546 
Q 1189 546 , 1197 546 
Q 1205 546 , 1220 545 
L 1220 546 
Q 1209 547 , 1199 547 
Q 1189 547 , 1178 547 
Q 1151 547 , 1136 546 
Q 1120 545 , 1120 543 
Q 1120 541 , 1136 540 
Q 1151 539 , 1178 539 
Q 1189 539 , 1199 539 
Q 1210 539 , 1220 540 
" fill="#545FFF" />
<path d="
M 1120 511 
L 1138 511 
L 1138 527 
Q 1138 531 , 1146 533 
Q 1153 535 , 1170 535 
Q 1187 535 , 1195 533 
Q 1202 531 , 1202 527 
L 1202 511 
L 1220 511 
L 1220 527 
Q 1220 533 , 1207 535 
Q 1195 538 , 1170 538 
Q 1146 538 , 1133 535 
Q 1120 533 , 1120 527 
L 1120 511 
" fill="#D21010" />
<path d="
M 1204 501 
L 1204 482 
L 1175 482 
L 1175 474 
L 1220 474 
L 1220 506 
Q 1209 509 , 1198 510 
Q 1189 511 , 1177 511 
Q 1151 511 , 1135 501 
Q 1120 492 , 1120 476 
Q 1120 459 , 1135 450 
Q 1151 440 , 1177 440 
Q 1188 440 , 1197 441 
Q 1207 443 , 1217 446 
L 1217 455 
Q 1204 451 , 1196 450 
Q 1187 448 , 1178 448 
Q 1157 448 , 1146 455 
Q 1136 462 , 1136 476 
Q 1136 490 , 1146 496 
Q 1157 503 , 1178 503 
Q 1187 503 , 1194 502 
Q 1201 502 , 1204 501 
" fill="#F5C000" />
<path d="
M 1267 554 
L 1267 553 
L 1253 553 
L 1253 552 
L 1275 552 
L 1275 554 
Q 1270 555 , 1264 555 
Q 1259 555 , 1253 555 
Q 1240 555 , 1233 554 
Q 1225 554 , 1225 552 
Q 1225 551 , 1233 551 
Q 1240 550 , 1253 550 
Q 1259 550 , 1264 550 
Q 1269 550 , 1274 550 
L 1274 551 
Q 1267 551 , 1263 551 
Q 1259 551 , 1254 551 
Q 1244 551 , 1238 551 
Q 1233 551 , 1233 552 
Q 1233 553 , 1238 554 
Q 1244 554 , 1254 554 
Q 1259 554 , 1262 554 
Q 1266 554 , 1267 554 
" fill="lightgray" />
<path d="
M 1275 550 
L 1284 550 
L 1284 553 
Q 1284 554 , 1288 554 
Q 1291 554 , 1300 554 
Q 1309 554 , 1312 554 
Q 1316 554 , 1316 553 
L 1316 550 
L 1325 550 
L 1325 553 
Q 1325 554 , 1319 554 
Q 1312 555 , 1300 555 
Q 1288 555 , 1281 554 
Q 1275 554 , 1275 553 
L 1275 550 
" fill="#D21010" />
<path d="
M 1225 544 
L 1234 544 
L 1234 547 
Q 1234 548 , 1238 548 
Q 1241 549 , 1250 549 
Q 1259 549 , 1262 548 
Q 1266 548 , 1266 547 
L 1266 544 
L 1275 544 
L 1275 547 
Q 1275 548 , 1269 549 
Q 1262 549 , 1250 549 
Q 1238 549 , 1231 549 
Q 1225 548 , 1225 547 
L 1225 544 
" fill="lightgray" />
<path d="
M 1300 545 
L 1291 547 
L 1308 547 
L 1300 545 
M 1296 544 
L 1304 544 
L 1325 549 
L 1317 549 
L 1311 548 
L 1289 548 
L 1282 549 
L 1275 549 
L 1296 544 
" fill="#339541" />
<path d="
M 1225 530 
L 1234 530 
L 1234 538 
Q 1234 540 , 1238 541 
Q 1241 542 , 1250 542 
Q 1259 542 , 1262 541 
Q 1266 540 , 1266 538 
L 1266 530 
L 1275 530 
L 1275 538 
Q 1275 540 , 1269 542 
Q 1262 543 , 1250 543 
Q 1238 543 , 1231 542 
Q 1225 540 , 1225 538 
L 1225 530 
" fill="lightgray" />
<path d="
M 1317 541 
L 1317 538 
L 1303 538 
L 1303 536 
L 1325 536 
L 1325 542 
Q 1320 543 , 1314 543 
Q 1309 543 , 1303 543 
Q 1290 543 , 1283 541 
Q 1275 540 , 1275 537 
Q 1275 533 , 1283 532 
Q 1290 530 , 1303 530 
Q 1309 530 , 1314 530 
Q 1319 530 , 1324 531 
L 1324 533 
Q 1317 532 , 1313 532 
Q 1309 532 , 1304 532 
Q 1294 532 , 1288 533 
Q 1283 534 , 1283 537 
Q 1283 539 , 1288 540 
Q 1294 542 , 1304 542 
Q 1309 542 , 1312 541 
Q 1316 541 , 1317 541 
" fill="#F5C000" />
<path d="
M 1250 517 
L 1241 523 
L 1258 523 
L 1250 517 
M 1246 514 
L 1254 514 
L 1275 529 
L 1267 529 
L 1261 525 
L 1239 525 
L 1232 529 
L 1225 529 
L 1246 514 
" fill="lightgray" />
<path d="
M 1275 514 
L 1284 514 
L 1284 523 
Q 1284 525 , 1288 526 
Q 1291 527 , 1300 527 
Q 1309 527 , 1312 526 
Q 1316 525 , 1316 523 
L 1316 514 
L 1325 514 
L 1325 523 
Q 1325 526 , 1319 528 
Q 1312 529 , 1300 529 
Q 1288 529 , 1281 528 
Q 1275 526 , 1275 523 
L 1275 514 
" fill="#D21010" />
<path d="
M 1275 494 
L 1275 498 
Q 1268 495 , 1264 495 
Q 1259 494 , 1254 494 
Q 1244 494 , 1239 496 
Q 1233 499 , 1233 503 
Q 1233 507 , 1239 509 
Q 1244 511 , 1254 511 
Q 1259 511 , 1264 511 
Q 1268 510 , 1275 508 
L 1275 511 
Q 1270 513 , 1264 513 
Q 1260 514 , 1254 514 
Q 1240 514 , 1233 511 
Q 1225 508 , 1225 503 
Q 1225 498 , 1233 495 
Q 1240 492 , 1254 492 
Q 1260 492 , 1265 493 
Q 1270 493 , 1275 494 
" fill="lightgray" />
<path d="
M 1317 510 
L 1317 505 
L 1303 505 
L 1303 502 
L 1325 502 
L 1325 512 
Q 1320 513 , 1314 513 
Q 1309 514 , 1303 514 
Q 1290 514 , 1283 511 
Q 1275 508 , 1275 503 
Q 1275 498 , 1283 495 
Q 1290 492 , 1303 492 
Q 1309 492 , 1314 492 
Q 1319 493 , 1324 494 
L 1324 497 
Q 1317 495 , 1313 495 
Q 1309 495 , 1304 495 
Q 1294 495 , 1288 497 
Q 1283 499 , 1283 503 
Q 1283 507 , 1288 509 
Q 1294 511 , 1304 511 
Q 1309 511 , 1312 511 
Q 1316 511 , 1317 510 
" fill="#F5C000" />
<path d="
M 1267 478 
L 1267 453 
L 1253 453 
L 1253 442 
L 1275 442 
L 1275 484 
Q 1270 488 , 1264 490 
Q 1259 491 , 1253 491 
Q 1240 491 , 1233 479 
Q 1225 466 , 1225 444 
Q 1225 422 , 1233 410 
Q 1240 397 , 1253 397 
Q 1259 397 , 1264 399 
Q 1269 400 , 1274 405 
L 1274 417 
Q 1267 411 , 1263 410 
Q 1259 408 , 1254 408 
Q 1244 408 , 1238 417 
Q 1233 426 , 1233 444 
Q 1233 463 , 1238 472 
Q 1244 481 , 1254 481 
Q 1259 481 , 1262 480 
Q 1266 479 , 1267 478 
" fill="lightgray" />
<path d="
M 1325 407 
L 1325 422 
Q 1318 412 , 1314 410 
Q 1309 407 , 1304 407 
Q 1294 407 , 1289 417 
Q 1283 426 , 1283 444 
Q 1283 462 , 1289 472 
Q 1294 481 , 1304 481 
Q 1309 481 , 1314 479 
Q 1318 476 , 1325 467 
L 1325 482 
Q 1320 487 , 1314 489 
Q 1310 491 , 1304 491 
Q 1290 491 , 1283 479 
Q 1275 466 , 1275 444 
Q 1275 423 , 1283 410 
Q 1290 397 , 1304 397 
Q 1310 397 , 1315 399 
Q 1320 402 , 1325 407 
" fill="#545FFF" />
<path d="
M 1380 554 
L 1362 554 
L 1396 554 
L 1380 554 
M 1373 554 
L 1387 554 
L 1430 555 
L 1414 555 
L 1402 554 
L 1358 554 
L 1345 555 
L 1330 555 
L 1373 554 
" fill="#339541" />
<path d="
M 1414 553 
L 1414 553 
L 1385 553 
L 1385 553 
L 1430 553 
L 1430 554 
Q 1419 554 , 1408 554 
Q 1399 554 , 1387 554 
Q 1361 554 , 1345 553 
Q 1330 553 , 1330 553 
Q 1330 553 , 1345 553 
Q 1361 553 , 1387 553 
Q 1398 553 , 1407 553 
Q 1417 553 , 1427 553 
L 1427 553 
Q 1414 553 , 1406 553 
Q 1397 553 , 1388 553 
Q 1367 553 , 1356 553 
Q 1346 553 , 1346 553 
Q 1346 553 , 1356 553 
Q 1367 553 , 1388 553 
Q 1397 553 , 1404 553 
Q 1411 553 , 1414 553 
" fill="#F5C000" />
<path d="
M 1430 552 
L 1430 552 
Q 1415 552 , 1407 552 
Q 1399 552 , 1389 552 
Q 1368 552 , 1358 552 
Q 1346 552 , 1346 552 
Q 1346 552 , 1358 553 
Q 1368 553 , 1389 553 
Q 1399 553 , 1407 553 
Q 1415 553 , 1430 553 
L 1430 553 
Q 1419 553 , 1409 553 
Q 1399 553 , 1388 553 
Q 1361 553 , 1346 553 
Q 1330 553 , 1330 552 
Q 1330 552 , 1346 552 
Q 1361 552 , 1388 552 
Q 1399 552 , 1409 552 
Q 1420 552 , 1430 552 
" fill="#545FFF" />
<path d="
M 1330 551 
L 1348 551 
L 1348 551 
Q 1348 552 , 1356 552 
Q 1363 552 , 1380 552 
Q 1397 552 , 1405 552 
Q 1412 552 , 1412 551 
L 1412 551 
L 1430 551 
L 1430 551 
Q 1430 552 , 1417 552 
Q 1405 552 , 1380 552 
Q 1356 552 , 1343 552 
Q 1330 552 , 1330 551 
L 1330 551 
" fill="#D21010" />
<path d="M 65 168 L 65 555 " stroke="black" stroke-width="1.5"/>
<path d="M 55 555 L 65 555 " stroke="black" stroke-width="4"/>
<text text-anchor="end" x="50" y="555" font-size="50" alignment-baseline="middle">0</text>
<path d="M 55 362 L 65 362 " stroke="black" stroke-width="4"/>
<text text-anchor="end" x="50" y="362" font-size="50" alignment-baseline="middle">1</text>
<path d="M 55 168 L 65 168 " stroke="black" stroke-width="4"/>
<text text-anchor="end" x="50" y="168" font-size="50" alignment-baseline="middle">2</text>
<text text-anchor="middle" x="750" y="50" font-size="50" alignment-baseline="baseline"></text>
G<path d="
M 160 582 
L 126 595 
L 160 608 
L 157 611 
L 123 598 
L 123 623 
L 117 623 
L 117 599 
L 83 611 
L 80 608 
L 114 595 
L 80 582 
L 83 579 
L 117 591 
L 117 567 
L 123 567 
L 123 591 
L 157 579 
L 160 582 
" fill="black" />
<path d="
M 265 567 
Q 236 574 , 223 581 
Q 210 588 , 210 595 
Q 210 602 , 223 609 
Q 236 616 , 265 623 
L 241 623 
Q 213 616 , 199 609 
Q 185 602 , 185 595 
Q 185 588 , 199 581 
Q 213 574 , 241 567 
L 265 567 
" fill="black" />
<path d="
" fill="black" />
<path d="
M 316 567 
L 343 567 
L 343 623 
L 316 623 
L 316 567 
" fill="black" />
<path d="
" fill="black" />
<path d="
" fill="black" />
<path d="
M 421 567 
L 448 567 
L 448 623 
L 421 623 
L 421 567 
" fill="black" />
<path d="
" fill="black" />
<path d="
" fill="black" />
<path d="
M 526 567 
L 553 567 
L 553 623 
L 526 623 
L 526 567 
" fill="black" />
<path d="
" fill="black" />
<path d="
" fill="black" />
<path d="
M 622 567 
L 642 567 
L 642 623 
L 622 623 
L 622 567 
" fill="black" />
<path d="
" fill="black" />
<path d="
M 673 567 
L 690 567 
L 690 571 
L 676 571 
L 676 588 
Q 677 588 , 678 587 
Q 679 587 , 681 587 
Q 686 587 , 689 592 
Q 692 596 , 692 604 
Q 692 613 , 689 618 
Q 686 623 , 680 623 
Q 678 623 , 676 623 
Q 674 622 , 672 621 
L 672 616 
Q 674 618 , 676 618 
Q 678 619 , 680 619 
Q 684 619 , 686 615 
Q 689 611 , 689 604 
Q 689 598 , 687 594 
Q 684 591 , 680 591 
Q 679 591 , 677 591 
Q 676 592 , 673 594 
L 673 567 
" fill="black" />
<path d="
M 790 582 
L 756 595 
L 790 608 
L 787 611 
L 753 598 
L 753 623 
L 747 623 
L 747 599 
L 713 611 
L 710 608 
L 744 595 
L 710 582 
L 713 579 
L 747 591 
L 747 567 
L 753 567 
L 753 591 
L 787 579 
L 790 582 
" fill="black" />
<path d="
" fill="black" />
<path d="
M 841 567 
L 868 567 
L 868 623 
L 841 623 
L 841 567 
" fill="black" />
<path d="
" fill="black" />
<path d="
" fill="black" />
<path d="
M 946 567 
L 973 567 
L 973 623 
L 946 623 
L 946 567 
" fill="black" />
<path d="
" fill="black" />
<path d="
" fill="black" />
<path d="
M 1051 567 
L 1078 567 
L 1078 623 
L 1051 623 
L 1051 567 
" fill="black" />
<path d="
" fill="black" />
<path d="
" fill="black" />
<path d="
M 1156 567 
L 1183 567 
L 1183 623 
L 1156 623 
L 1156 567 
" fill="black" />
<path d="
" fill="black" />
<path d="
M 1235 567 
L 1259 567 
Q 1287 574 , 1301 581 
Q 1315 588 , 1315 595 
Q 1315 602 , 1301 609 
Q 1287 616 , 1259 623 
L 1235 623 
Q 1264 616 , 1277 609 
Q 1290 602 , 1290 595 
Q 1290 588 , 1277 581 
Q 1264 574 , 1235 567 
" fill="black" />
<path d="
M 1420 582 
L 1386 595 
L 1420 608 
L 1417 611 
L 1383 598 
L 1383 623 
L 1377 623 
L 1377 599 
L 1343 611 
L 1340 608 
L 1374 595 
L 1340 582 
L 1343 579 
L 1377 591 
L 1377 567 
L 1383 567 
L 1383 591 
L 1417 579 
L 1420 582 
" fill="black" />
</svg>
