<svg xmlns="http://www.w3.org/2000/svg"
viewBox="0 0 1330 635">
<path d="
M 120 554 
L 102 554 
L 136 554 
L 120 554 
M 113 554 
L 127 554 
L 170 555 
L 154 555 
L 142 554 
L 98 554 
L 85 555 
L 70 555 
L 113 554 
" fill="#339541" />
<path d="
M 154 554 
L 154 553 
L 125 553 
L 125 553 
L 170 553 
L 170 554 
Q 159 554 , 148 554 
Q 139 554 , 127 554 
Q 101 554 , 85 554 
Q 70 554 , 70 553 
Q 70 553 , 85 553 
Q 101 553 , 127 553 
Q 138 553 , 147 553 
Q 157 553 , 167 553 
L 167 553 
Q 154 553 , 146 553 
Q 137 553 , 128 553 
Q 107 553 , 96 553 
Q 86 553 , 86 553 
Q 86 553 , 96 554 
Q 107 554 , 128 554 
Q 137 554 , 144 554 
Q 151 554 , 154 554 
" fill="#F5C000" />
<path d="
M 170 552 
L 170 552 
Q 155 552 , 147 552 
Q 139 552 , 129 552 
Q 108 552 , 98 552 
Q 86 552 , 86 552 
Q 86 553 , 98 553 
Q 108 553 , 129 553 
Q 139 553 , 147 553 
Q 155 553 , 170 553 
L 170 553 
Q 159 553 , 149 553 
Q 139 553 , 128 553 
Q 101 553 , 86 553 
Q 70 553 , 70 552 
Q 70 552 , 86 552 
Q 101 552 , 128 552 
Q 139 552 , 149 552 
Q 160 552 , 170 552 
" fill="#545FFF" />
<path d="
M 70 551 
L 88 551 
L 88 552 
Q 88 552 , 96 552 
Q 103 552 , 120 552 
Q 137 552 , 145 552 
Q 152 552 , 152 552 
L 152 551 
L 170 551 
L 170 552 
Q 170 552 , 157 552 
Q 145 552 , 120 552 
Q 96 552 , 83 552 
Q 70 552 , 70 552 
L 70 551 
" fill="#D21010" />
<path d="
M 259 553 
L 259 550 
L 230 550 
L 230 549 
L 275 549 
L 275 554 
Q 264 554 , 253 554 
Q 244 554 , 232 554 
Q 206 554 , 190 553 
Q 175 552 , 175 550 
Q 175 547 , 190 546 
Q 206 545 , 232 545 
Q 243 545 , 252 545 
Q 262 545 , 272 546 
L 272 547 
Q 259 546 , 251 546 
Q 242 546 , 233 546 
Q 212 546 , 201 547 
Q 191 548 , 191 550 
Q 191 551 , 201 552 
Q 212 553 , 233 553 
Q 242 553 , 249 553 
Q 256 553 , 259 553 
" fill="#F5C000" />
<path d="
M 275 532 
L 275 534 
Q 260 532 , 252 532 
Q 244 532 , 234 532 
Q 213 532 , 203 533 
Q 191 534 , 191 537 
Q 191 540 , 203 541 
Q 213 543 , 234 543 
Q 244 543 , 252 542 
Q 260 542 , 275 541 
L 275 543 
Q 264 544 , 254 544 
Q 244 544 , 233 544 
Q 206 544 , 191 542 
Q 175 541 , 175 537 
Q 175 534 , 191 532 
Q 206 530 , 233 530 
Q 244 530 , 254 530 
Q 265 531 , 275 532 
" fill="#545FFF" />
<path d="
M 225 517 
L 207 523 
L 241 523 
L 225 517 
M 218 514 
L 232 514 
L 275 530 
L 259 530 
L 247 525 
L 203 525 
L 190 530 
L 175 530 
L 218 514 
" fill="#339541" />
<path d="
M 175 458 
L 193 458 
L 193 491 
Q 193 500 , 201 504 
Q 208 507 , 225 507 
Q 242 507 , 250 504 
Q 257 500 , 257 491 
L 257 458 
L 275 458 
L 275 492 
Q 275 502 , 262 508 
Q 250 513 , 225 513 
Q 201 513 , 188 508 
Q 175 502 , 175 492 
L 175 458 
" fill="#D21010" />
<path d="
M 330 549 
L 312 552 
L 346 552 
L 330 549 
M 323 548 
L 337 548 
L 380 555 
L 364 555 
L 352 553 
L 308 553 
L 295 555 
L 280 555 
L 323 548 
" fill="#339541" />
<path d="
M 280 541 
L 298 541 
L 298 545 
Q 298 546 , 306 547 
Q 313 547 , 330 547 
Q 347 547 , 355 547 
Q 362 546 , 362 545 
L 362 541 
L 380 541 
L 380 545 
Q 380 546 , 367 547 
Q 355 548 , 330 548 
Q 306 548 , 293 547 
Q 280 546 , 280 545 
L 280 541 
" fill="#D21010" />
<path d="
M 380 525 
L 380 528 
Q 365 526 , 357 525 
Q 349 525 , 339 525 
Q 318 525 , 308 527 
Q 296 528 , 296 531 
Q 296 535 , 308 537 
Q 318 539 , 339 539 
Q 349 539 , 357 538 
Q 365 538 , 380 536 
L 380 539 
Q 369 540 , 359 540 
Q 349 540 , 338 540 
Q 311 540 , 296 538 
Q 280 536 , 280 532 
Q 280 528 , 296 525 
Q 311 523 , 338 523 
Q 349 523 , 359 523 
Q 370 524 , 380 525 
" fill="#545FFF" />
<path d="
M 364 519 
L 364 513 
L 335 513 
L 335 510 
L 380 510 
L 380 521 
Q 369 522 , 358 522 
Q 349 523 , 337 523 
Q 311 523 , 295 519 
Q 280 516 , 280 510 
Q 280 505 , 295 501 
Q 311 498 , 337 498 
Q 348 498 , 357 498 
Q 367 499 , 377 500 
L 377 503 
Q 364 502 , 356 501 
Q 347 501 , 338 501 
Q 317 501 , 306 503 
Q 296 506 , 296 510 
Q 296 515 , 306 518 
Q 317 520 , 338 520 
Q 347 520 , 354 520 
Q 361 520 , 364 519 
" fill="#F5C000" />
<path d="
M 435 545 
L 417 550 
L 451 550 
L 435 545 
M 428 543 
L 442 543 
L 485 555 
L 469 555 
L 457 551 
L 413 551 
L 400 555 
L 385 555 
L 428 543 
" fill="#339541" />
<path d="
M 385 529 
L 403 529 
L 403 537 
Q 403 540 , 411 540 
Q 418 541 , 435 541 
Q 452 541 , 460 540 
Q 467 540 , 467 537 
L 467 529 
L 485 529 
L 485 537 
Q 485 540 , 472 542 
Q 460 543 , 435 543 
Q 411 543 , 398 542 
Q 385 540 , 385 537 
L 385 529 
" fill="#D21010" />
<path d="
M 469 525 
L 469 518 
L 440 518 
L 440 515 
L 485 515 
L 485 527 
Q 474 528 , 463 528 
Q 454 528 , 442 529 
Q 416 529 , 400 525 
Q 385 522 , 385 516 
Q 385 510 , 400 506 
Q 416 503 , 442 503 
Q 453 503 , 462 503 
Q 472 504 , 482 505 
L 482 508 
Q 469 507 , 461 506 
Q 452 506 , 443 506 
Q 422 506 , 411 508 
Q 401 511 , 401 516 
Q 401 521 , 411 523 
Q 422 526 , 443 526 
Q 452 526 , 459 525 
Q 466 525 , 469 525 
" fill="#F5C000" />
<path d="
M 485 371 
L 485 393 
Q 470 379 , 462 375 
Q 454 371 , 444 371 
Q 423 371 , 413 386 
Q 401 400 , 401 429 
Q 401 458 , 413 472 
Q 423 487 , 444 487 
Q 454 487 , 462 483 
Q 470 479 , 485 464 
L 485 488 
Q 474 496 , 464 499 
Q 454 503 , 443 503 
Q 416 503 , 401 483 
Q 385 463 , 385 429 
Q 385 395 , 401 375 
Q 416 355 , 443 355 
Q 454 355 , 464 359 
Q 475 362 , 485 371 
" fill="#545FFF" />
<path d="
M 540 551 
L 522 553 
L 556 553 
L 540 551 
M 533 550 
L 547 550 
L 590 555 
L 574 555 
L 562 553 
L 518 553 
L 505 555 
L 490 555 
L 533 550 
" fill="#339541" />
<path d="
M 574 547 
L 574 545 
L 545 545 
L 545 543 
L 590 543 
L 590 548 
Q 579 549 , 568 549 
Q 559 549 , 547 549 
Q 521 549 , 505 548 
Q 490 546 , 490 544 
Q 490 541 , 505 539 
Q 521 538 , 547 538 
Q 558 538 , 567 538 
Q 577 538 , 587 539 
L 587 540 
Q 574 540 , 566 539 
Q 557 539 , 548 539 
Q 527 539 , 516 540 
Q 506 541 , 506 544 
Q 506 546 , 516 547 
Q 527 548 , 548 548 
Q 557 548 , 564 548 
Q 571 548 , 574 547 
" fill="#F5C000" />
<path d="
M 590 514 
L 590 518 
Q 575 515 , 567 515 
Q 559 514 , 549 514 
Q 528 514 , 518 516 
Q 506 519 , 506 524 
Q 506 529 , 518 532 
Q 528 534 , 549 534 
Q 559 534 , 567 534 
Q 575 533 , 590 531 
L 590 535 
Q 579 536 , 569 537 
Q 559 537 , 548 537 
Q 521 537 , 506 534 
Q 490 530 , 490 524 
Q 490 518 , 506 515 
Q 521 511 , 548 511 
Q 559 511 , 569 512 
Q 580 512 , 590 514 
" fill="#545FFF" />
<path d="
M 490 476 
L 508 476 
L 508 496 
Q 508 502 , 516 505 
Q 523 507 , 540 507 
Q 557 507 , 565 505 
Q 572 502 , 572 496 
L 572 476 
L 590 476 
L 590 497 
Q 590 504 , 577 507 
Q 565 511 , 540 511 
Q 516 511 , 503 507 
Q 490 504 , 490 497 
L 490 476 
" fill="#D21010" />
<path d="
M 645 553 
L 627 554 
L 661 554 
L 645 553 
M 638 552 
L 652 552 
L 695 555 
L 679 555 
L 667 554 
L 623 554 
L 610 555 
L 595 555 
L 638 552 
" fill="#339541" />
<path d="
M 695 539 
L 695 541 
Q 680 539 , 672 539 
Q 664 539 , 654 539 
Q 633 539 , 623 540 
Q 611 542 , 611 544 
Q 611 547 , 623 549 
Q 633 550 , 654 550 
Q 664 550 , 672 550 
Q 680 550 , 695 548 
L 695 550 
Q 684 551 , 674 552 
Q 664 552 , 653 552 
Q 626 552 , 611 550 
Q 595 548 , 595 544 
Q 595 541 , 611 539 
Q 626 537 , 653 537 
Q 664 537 , 674 537 
Q 685 538 , 695 539 
" fill="#545FFF" />
<path d="
M 679 532 
L 679 523 
L 650 523 
L 650 520 
L 695 520 
L 695 534 
Q 684 536 , 673 536 
Q 664 537 , 652 537 
Q 626 537 , 610 532 
Q 595 528 , 595 520 
Q 595 513 , 610 508 
Q 626 504 , 652 504 
Q 663 504 , 672 505 
Q 682 505 , 692 507 
L 692 511 
Q 679 509 , 671 508 
Q 662 508 , 653 508 
Q 632 508 , 621 511 
Q 611 514 , 611 520 
Q 611 527 , 621 530 
Q 632 533 , 653 533 
Q 662 533 , 669 533 
Q 676 532 , 679 532 
" fill="#F5C000" />
<path d="
M 595 469 
L 613 469 
L 613 490 
Q 613 495 , 621 498 
Q 628 500 , 645 500 
Q 662 500 , 670 498 
Q 677 495 , 677 490 
L 677 469 
L 695 469 
L 695 490 
Q 695 497 , 682 500 
Q 670 504 , 645 504 
Q 621 504 , 608 500 
Q 595 497 , 595 490 
L 595 469 
" fill="#D21010" />
<path d="
M 750 551 
L 732 552 
L 766 552 
L 750 551 
M 743 550 
L 757 550 
L 800 554 
L 784 554 
L 772 553 
L 728 553 
L 715 554 
L 700 554 
L 743 550 
" fill="#339541" />
<path d="
M 784 547 
L 784 541 
L 755 541 
L 755 539 
L 800 539 
L 800 548 
Q 789 549 , 778 549 
Q 769 549 , 757 549 
Q 731 549 , 715 547 
Q 700 544 , 700 540 
Q 700 535 , 715 533 
Q 731 530 , 757 530 
Q 768 530 , 777 530 
Q 787 531 , 797 532 
L 797 534 
Q 784 533 , 776 533 
Q 767 532 , 758 532 
Q 737 532 , 726 534 
Q 716 536 , 716 540 
Q 716 543 , 726 545 
Q 737 547 , 758 547 
Q 767 547 , 774 547 
Q 781 547 , 784 547 
" fill="#F5C000" />
<path d="
M 700 507 
L 718 507 
L 718 520 
Q 718 524 , 726 526 
Q 733 527 , 750 527 
Q 767 527 , 775 526 
Q 782 524 , 782 520 
L 782 507 
L 800 507 
L 800 521 
Q 800 525 , 787 527 
Q 775 530 , 750 530 
Q 726 530 , 713 527 
Q 700 525 , 700 521 
L 700 507 
" fill="#D21010" />
<path d="
M 800 453 
L 800 462 
Q 785 457 , 777 455 
Q 769 454 , 759 454 
Q 738 454 , 728 459 
Q 716 465 , 716 476 
Q 716 488 , 728 494 
Q 738 500 , 759 500 
Q 769 500 , 777 498 
Q 785 497 , 800 491 
L 800 500 
Q 789 503 , 779 505 
Q 769 506 , 758 506 
Q 731 506 , 716 498 
Q 700 490 , 700 477 
Q 700 463 , 716 455 
Q 731 447 , 758 447 
Q 769 447 , 779 448 
Q 790 450 , 800 453 
" fill="#545FFF" />
<path d="
M 855 552 
L 837 553 
L 871 553 
L 855 552 
M 848 552 
L 862 552 
L 905 554 
L 889 554 
L 877 554 
L 833 554 
L 820 554 
L 805 554 
L 848 552 
" fill="#339541" />
<path d="
M 889 549 
L 889 544 
L 860 544 
L 860 542 
L 905 542 
L 905 550 
Q 894 551 , 883 551 
Q 874 552 , 862 552 
Q 836 552 , 820 549 
Q 805 547 , 805 543 
Q 805 539 , 820 536 
Q 836 534 , 862 534 
Q 873 534 , 882 534 
Q 892 535 , 902 535 
L 902 538 
Q 889 537 , 881 536 
Q 872 536 , 863 536 
Q 842 536 , 831 538 
Q 821 539 , 821 543 
Q 821 546 , 831 548 
Q 842 550 , 863 550 
Q 872 550 , 879 550 
Q 886 549 , 889 549 
" fill="#F5C000" />
<path d="
M 805 507 
L 823 507 
L 823 523 
Q 823 527 , 831 529 
Q 838 531 , 855 531 
Q 872 531 , 880 529 
Q 887 527 , 887 523 
L 887 507 
L 905 507 
L 905 523 
Q 905 528 , 892 531 
Q 880 534 , 855 534 
Q 831 534 , 818 531 
Q 805 528 , 805 523 
L 805 507 
" fill="#D21010" />
<path d="
M 905 482 
L 905 486 
Q 890 483 , 882 483 
Q 874 482 , 864 482 
Q 843 482 , 833 485 
Q 821 487 , 821 492 
Q 821 498 , 833 501 
Q 843 503 , 864 503 
Q 874 503 , 882 503 
Q 890 502 , 905 499 
L 905 504 
Q 894 505 , 884 506 
Q 874 506 , 863 506 
Q 836 506 , 821 503 
Q 805 499 , 805 493 
Q 805 486 , 821 483 
Q 836 479 , 863 479 
Q 874 479 , 884 480 
Q 895 480 , 905 482 
" fill="#545FFF" />
<path d="
M 960 548 
L 942 551 
L 976 551 
L 960 548 
M 953 547 
L 967 547 
L 1010 554 
L 994 554 
L 982 552 
L 938 552 
L 925 554 
L 910 554 
L 953 547 
" fill="#339541" />
<path d="
M 994 544 
L 994 540 
L 965 540 
L 965 538 
L 1010 538 
L 1010 545 
Q 999 546 , 988 546 
Q 979 546 , 967 546 
Q 941 546 , 925 544 
Q 910 542 , 910 538 
Q 910 534 , 925 532 
Q 941 530 , 967 530 
Q 978 530 , 987 530 
Q 997 531 , 1007 531 
L 1007 533 
Q 994 532 , 986 532 
Q 977 532 , 968 532 
Q 947 532 , 936 533 
Q 926 535 , 926 538 
Q 926 541 , 936 543 
Q 947 544 , 968 544 
Q 977 544 , 984 544 
Q 991 544 , 994 544 
" fill="#F5C000" />
<path d="
M 910 506 
L 928 506 
L 928 520 
Q 928 524 , 936 525 
Q 943 527 , 960 527 
Q 977 527 , 985 525 
Q 992 524 , 992 520 
L 992 506 
L 1010 506 
L 1010 520 
Q 1010 525 , 997 527 
Q 985 529 , 960 529 
Q 936 529 , 923 527 
Q 910 525 , 910 520 
L 910 506 
" fill="#D21010" />
<path d="
M 1010 435 
L 1010 447 
Q 995 440 , 987 438 
Q 979 436 , 969 436 
Q 948 436 , 938 443 
Q 926 451 , 926 466 
Q 926 482 , 938 489 
Q 948 497 , 969 497 
Q 979 497 , 987 495 
Q 995 493 , 1010 485 
L 1010 498 
Q 999 502 , 989 504 
Q 979 506 , 968 506 
Q 941 506 , 926 495 
Q 910 484 , 910 466 
Q 910 448 , 926 438 
Q 941 427 , 968 427 
Q 979 427 , 989 429 
Q 1000 431 , 1010 435 
" fill="#545FFF" />
<path d="
M 1065 551 
L 1047 553 
L 1081 553 
L 1065 551 
M 1058 550 
L 1072 550 
L 1115 554 
L 1099 554 
L 1087 553 
L 1043 553 
L 1030 554 
L 1015 554 
L 1058 550 
" fill="#339541" />
<path d="
M 1099 547 
L 1099 543 
L 1070 543 
L 1070 541 
L 1115 541 
L 1115 548 
Q 1104 549 , 1093 549 
Q 1084 549 , 1072 549 
Q 1046 549 , 1030 547 
Q 1015 545 , 1015 542 
Q 1015 538 , 1030 536 
Q 1046 534 , 1072 534 
Q 1083 534 , 1092 534 
Q 1102 535 , 1112 535 
L 1112 537 
Q 1099 536 , 1091 536 
Q 1082 536 , 1073 536 
Q 1052 536 , 1041 537 
Q 1031 539 , 1031 542 
Q 1031 545 , 1041 546 
Q 1052 548 , 1073 548 
Q 1082 548 , 1089 547 
Q 1096 547 , 1099 547 
" fill="#F5C000" />
<path d="
M 1115 518 
L 1115 521 
Q 1100 519 , 1092 518 
Q 1084 518 , 1074 518 
Q 1053 518 , 1043 520 
Q 1031 521 , 1031 524 
Q 1031 528 , 1043 530 
Q 1053 532 , 1074 532 
Q 1084 532 , 1092 531 
Q 1100 531 , 1115 529 
L 1115 532 
Q 1104 533 , 1094 533 
Q 1084 534 , 1073 534 
Q 1046 534 , 1031 531 
Q 1015 529 , 1015 525 
Q 1015 521 , 1031 518 
Q 1046 516 , 1073 516 
Q 1084 516 , 1094 516 
Q 1105 517 , 1115 518 
" fill="#545FFF" />
<path d="
M 1015 479 
L 1033 479 
L 1033 501 
Q 1033 507 , 1041 509 
Q 1048 512 , 1065 512 
Q 1082 512 , 1090 509 
Q 1097 507 , 1097 501 
L 1097 479 
L 1115 479 
L 1115 501 
Q 1115 508 , 1102 512 
Q 1090 516 , 1065 516 
Q 1041 516 , 1028 512 
Q 1015 508 , 1015 501 
L 1015 479 
" fill="#D21010" />
<path d="
M 1120 554 
L 1138 554 
L 1138 554 
Q 1138 554 , 1146 554 
Q 1153 554 , 1170 554 
Q 1187 554 , 1195 554 
Q 1202 554 , 1202 554 
L 1202 554 
L 1220 554 
L 1220 554 
Q 1220 554 , 1207 554 
Q 1195 554 , 1170 554 
Q 1146 554 , 1133 554 
Q 1120 554 , 1120 554 
L 1120 554 
" fill="#D21010" />
<path d="
M 1170 553 
L 1152 553 
L 1186 553 
L 1170 553 
M 1163 553 
L 1177 553 
L 1220 553 
L 1204 553 
L 1192 553 
L 1148 553 
L 1135 553 
L 1120 553 
L 1163 553 
" fill="#339541" />
<path d="
M 1220 552 
L 1220 552 
Q 1205 552 , 1197 552 
Q 1189 552 , 1179 552 
Q 1158 552 , 1148 552 
Q 1136 552 , 1136 552 
Q 1136 552 , 1148 552 
Q 1158 552 , 1179 552 
Q 1189 552 , 1197 552 
Q 1205 552 , 1220 552 
L 1220 552 
Q 1209 552 , 1199 552 
Q 1189 552 , 1178 552 
Q 1151 552 , 1136 552 
Q 1120 552 , 1120 552 
Q 1120 552 , 1136 552 
Q 1151 552 , 1178 552 
Q 1189 552 , 1199 552 
Q 1210 552 , 1220 552 
" fill="#545FFF" />
<path d="
M 1204 551 
L 1204 551 
L 1175 551 
L 1175 551 
L 1220 551 
L 1220 551 
Q 1209 551 , 1198 551 
Q 1189 551 , 1177 551 
Q 1151 551 , 1135 551 
Q 1120 551 , 1120 551 
Q 1120 551 , 1135 551 
Q 1151 551 , 1177 551 
Q 1188 551 , 1197 551 
Q 1207 551 , 1217 551 
L 1217 551 
Q 1204 551 , 1196 551 
Q 1187 551 , 1178 551 
Q 1157 551 , 1146 551 
Q 1136 551 , 1136 551 
Q 1136 551 , 1146 551 
Q 1157 551 , 1178 551 
Q 1187 551 , 1194 551 
Q 1201 551 , 1204 551 
" fill="#F5C000" />
<path d="
M 1275 554 
L 1257 554 
L 1291 554 
L 1275 554 
M 1268 554 
L 1282 554 
L 1325 555 
L 1309 555 
L 1297 554 
L 1253 554 
L 1240 555 
L 1225 555 
L 1268 554 
" fill="#339541" />
<path d="
M 1309 554 
L 1309 553 
L 1280 553 
L 1280 553 
L 1325 553 
L 1325 554 
Q 1314 554 , 1303 554 
Q 1294 554 , 1282 554 
Q 1256 554 , 1240 554 
Q 1225 554 , 1225 553 
Q 1225 553 , 1240 553 
Q 1256 553 , 1282 553 
Q 1293 553 , 1302 553 
Q 1312 553 , 1322 553 
L 1322 553 
Q 1309 553 , 1301 553 
Q 1292 553 , 1283 553 
Q 1262 553 , 1251 553 
Q 1241 553 , 1241 553 
Q 1241 553 , 1251 554 
Q 1262 554 , 1283 554 
Q 1292 554 , 1299 554 
Q 1306 554 , 1309 554 
" fill="#F5C000" />
<path d="
M 1325 552 
L 1325 552 
Q 1310 552 , 1302 552 
Q 1294 552 , 1284 552 
Q 1263 552 , 1253 552 
Q 1241 552 , 1241 552 
Q 1241 553 , 1253 553 
Q 1263 553 , 1284 553 
Q 1294 553 , 1302 553 
Q 1310 553 , 1325 553 
L 1325 553 
Q 1314 553 , 1304 553 
Q 1294 553 , 1283 553 
Q 1256 553 , 1241 553 
Q 1225 553 , 1225 552 
Q 1225 552 , 1241 552 
Q 1256 552 , 1283 552 
Q 1294 552 , 1304 552 
Q 1315 552 , 1325 552 
" fill="#545FFF" />
<path d="
M 1225 551 
L 1243 551 
L 1243 552 
Q 1243 552 , 1251 552 
Q 1258 552 , 1275 552 
Q 1292 552 , 1300 552 
Q 1307 552 , 1307 552 
L 1307 551 
L 1325 551 
L 1325 552 
Q 1325 552 , 1312 552 
Q 1300 552 , 1275 552 
Q 1251 552 , 1238 552 
Q 1225 552 , 1225 552 
L 1225 551 
" fill="#D21010" />
<path d="M 65 55 L 65 555 " stroke="black" stroke-width="1.5"/>
<path d="M 55 555 L 65 555 " stroke="black" stroke-width="4"/>
<text text-anchor="end" x="50" y="555" font-size="50" alignment-baseline="middle">0</text>
<path d="M 55 305 L 65 305 " stroke="black" stroke-width="4"/>
<text text-anchor="end" x="50" y="305" font-size="50" alignment-baseline="middle">1</text>
<path d="M 55 55 L 65 55 " stroke="black" stroke-width="4"/>
<text text-anchor="end" x="50" y="55" font-size="50" alignment-baseline="middle">2</text>
<text text-anchor="middle" x="697" y="50" font-size="50" alignment-baseline="baseline"></text>
G<path d="
M 160 582 
L 126 595 
L 160 608 
L 157 611 
L 123 598 
L 123 623 
L 117 623 
L 117 599 
L 83 611 
L 80 608 
L 114 595 
L 80 582 
L 83 579 
L 117 591 
L 117 567 
L 123 567 
L 123 591 
L 157 579 
L 160 582 
" fill="black" />
<path d="
" fill="black" />
<path d="
M 211 567 
L 238 567 
L 238 623 
L 211 623 
L 211 567 
" fill="black" />
<path d="
" fill="black" />
<path d="
" fill="black" />
<path d="
M 316 567 
L 343 567 
L 343 623 
L 316 623 
L 316 567 
" fill="black" />
<path d="
" fill="black" />
<path d="
" fill="black" />
<path d="
M 421 567 
L 448 567 
L 448 623 
L 421 623 
L 421 567 
" fill="black" />
<path d="
" fill="black" />
<path d="
" fill="black" />
<path d="
M 526 567 
L 553 567 
L 553 623 
L 526 623 
L 526 567 
" fill="black" />
<path d="
" fill="black" />
<path d="
" fill="black" />
<path d="
M 631 567 
L 658 567 
L 658 623 
L 631 623 
L 631 567 
" fill="black" />
<path d="
" fill="black" />
<path d="
" fill="black" />
<path d="
M 736 567 
L 763 567 
L 763 623 
L 736 623 
L 736 567 
" fill="black" />
<path d="
" fill="black" />
<path d="
" fill="black" />
<path d="
M 841 567 
L 868 567 
L 868 623 
L 841 623 
L 841 567 
" fill="black" />
<path d="
" fill="black" />
<path d="
" fill="black" />
<path d="
M 946 567 
L 973 567 
L 973 623 
L 946 623 
L 946 567 
" fill="black" />
<path d="
" fill="black" />
<path d="
" fill="black" />
<path d="
M 1051 567 
L 1078 567 
L 1078 623 
L 1051 623 
L 1051 567 
" fill="black" />
<path d="
" fill="black" />
<path d="
" fill="black" />
<path d="
M 1156 567 
L 1183 567 
L 1183 623 
L 1156 623 
L 1156 567 
" fill="black" />
<path d="
" fill="black" />
<path d="
M 1315 582 
L 1281 595 
L 1315 608 
L 1312 611 
L 1278 598 
L 1278 623 
L 1272 623 
L 1272 599 
L 1238 611 
L 1235 608 
L 1269 595 
L 1235 582 
L 1238 579 
L 1272 591 
L 1272 567 
L 1278 567 
L 1278 591 
L 1312 579 
L 1315 582 
" fill="black" />
</svg>
