<svg xmlns="http://www.w3.org/2000/svg"
viewBox="0 0 1435 635">
<path d="
M 70 554 
L 88 554 
L 88 554 
Q 88 555 , 96 555 
Q 103 555 , 120 555 
Q 137 555 , 145 555 
Q 152 555 , 152 554 
L 152 554 
L 170 554 
L 170 554 
Q 170 555 , 157 555 
Q 145 555 , 120 555 
Q 96 555 , 83 555 
Q 70 555 , 70 554 
L 70 554 
" fill="#D21010" />
<path d="
M 120 553 
L 102 553 
L 136 553 
L 120 553 
M 113 553 
L 127 553 
L 170 554 
L 154 554 
L 142 554 
L 98 554 
L 85 554 
L 70 554 
L 113 553 
" fill="#339541" />
<path d="
M 154 553 
L 154 552 
L 125 552 
L 125 552 
L 170 552 
L 170 553 
Q 159 553 , 148 553 
Q 139 553 , 127 553 
Q 101 553 , 85 553 
Q 70 553 , 70 552 
Q 70 552 , 85 552 
Q 101 552 , 127 552 
Q 138 552 , 147 552 
Q 157 552 , 167 552 
L 167 552 
Q 154 552 , 146 552 
Q 137 552 , 128 552 
Q 107 552 , 96 552 
Q 86 552 , 86 552 
Q 86 553 , 96 553 
Q 107 553 , 128 553 
Q 137 553 , 144 553 
Q 151 553 , 154 553 
" fill="#F5C000" />
<path d="
M 170 550 
L 170 550 
Q 155 550 , 147 550 
Q 139 550 , 129 550 
Q 108 550 , 98 550 
Q 86 550 , 86 550 
Q 86 551 , 98 551 
Q 108 551 , 129 551 
Q 139 551 , 147 551 
Q 155 551 , 170 551 
L 170 551 
Q 159 551 , 149 551 
Q 139 551 , 128 551 
Q 101 551 , 86 551 
Q 70 551 , 70 551 
Q 70 550 , 86 550 
Q 101 550 , 128 550 
Q 139 550 , 149 550 
Q 160 550 , 170 550 
" fill="#545FFF" />
<path d="
M 225 551 
L 207 552 
L 241 552 
L 225 551 
M 218 550 
L 232 550 
L 275 554 
L 259 554 
L 247 553 
L 203 553 
L 190 554 
L 175 554 
L 218 550 
" fill="#339541" />
<path d="
M 175 543 
L 193 543 
L 193 547 
Q 193 548 , 201 548 
Q 208 549 , 225 549 
Q 242 549 , 250 548 
Q 257 548 , 257 547 
L 257 543 
L 275 543 
L 275 547 
Q 275 548 , 262 549 
Q 250 549 , 225 549 
Q 201 549 , 188 549 
Q 175 548 , 175 547 
L 175 543 
" fill="#D21010" />
<path d="
M 275 530 
L 275 532 
Q 260 530 , 252 530 
Q 244 530 , 234 530 
Q 213 530 , 203 531 
Q 191 533 , 191 535 
Q 191 538 , 203 540 
Q 213 541 , 234 541 
Q 244 541 , 252 541 
Q 260 540 , 275 539 
L 275 541 
Q 264 542 , 254 542 
Q 244 543 , 233 543 
Q 206 543 , 191 541 
Q 175 539 , 175 535 
Q 175 532 , 191 530 
Q 206 528 , 233 528 
Q 244 528 , 254 528 
Q 265 529 , 275 530 
" fill="#545FFF" />
<path d="
M 259 524 
L 259 519 
L 230 519 
L 230 517 
L 275 517 
L 275 526 
Q 264 526 , 253 527 
Q 244 527 , 232 527 
Q 206 527 , 190 524 
Q 175 522 , 175 518 
Q 175 513 , 190 511 
Q 206 508 , 232 508 
Q 243 508 , 252 508 
Q 262 509 , 272 510 
L 272 512 
Q 259 511 , 251 511 
Q 242 510 , 233 510 
Q 212 510 , 201 512 
Q 191 514 , 191 518 
Q 191 521 , 201 523 
Q 212 525 , 233 525 
Q 242 525 , 249 525 
Q 256 525 , 259 524 
" fill="#F5C000" />
<path d="
M 380 554 
L 380 554 
Q 365 554 , 357 554 
Q 349 554 , 339 554 
Q 318 554 , 308 554 
Q 296 554 , 296 554 
Q 296 554 , 308 554 
Q 318 554 , 339 554 
Q 349 554 , 357 554 
Q 365 554 , 380 554 
L 380 554 
Q 369 554 , 359 554 
Q 349 554 , 338 554 
Q 311 554 , 296 554 
Q 280 554 , 280 554 
Q 280 554 , 296 554 
Q 311 554 , 338 554 
Q 349 554 , 359 554 
Q 370 554 , 380 554 
" fill="#545FFF" />
<path d="
M 330 553 
L 312 553 
L 346 553 
L 330 553 
M 323 553 
L 337 553 
L 380 553 
L 364 553 
L 352 553 
L 308 553 
L 295 553 
L 280 553 
L 323 553 
" fill="#339541" />
<path d="
M 364 552 
L 364 552 
L 335 552 
L 335 552 
L 380 552 
L 380 552 
Q 369 552 , 358 552 
Q 349 552 , 337 552 
Q 311 552 , 295 552 
Q 280 552 , 280 552 
Q 280 552 , 295 552 
Q 311 552 , 337 552 
Q 348 552 , 357 552 
Q 367 552 , 377 552 
L 377 552 
Q 364 552 , 356 552 
Q 347 552 , 338 552 
Q 317 552 , 306 552 
Q 296 552 , 296 552 
Q 296 552 , 306 552 
Q 317 552 , 338 552 
Q 347 552 , 354 552 
Q 361 552 , 364 552 
" fill="#F5C000" />
<path d="
M 280 551 
L 298 551 
L 298 551 
Q 298 551 , 306 551 
Q 313 551 , 330 551 
Q 347 551 , 355 551 
Q 362 551 , 362 551 
L 362 551 
L 380 551 
L 380 551 
Q 380 551 , 367 551 
Q 355 551 , 330 551 
Q 306 551 , 293 551 
Q 280 551 , 280 551 
L 280 551 
" fill="#D21010" />
<path d="
M 385 552 
L 394 552 
L 394 553 
Q 394 554 , 398 554 
Q 401 554 , 410 554 
Q 419 554 , 422 554 
Q 426 554 , 426 553 
L 426 552 
L 435 552 
L 435 553 
Q 435 554 , 429 554 
Q 422 554 , 410 554 
Q 398 554 , 391 554 
Q 385 554 , 385 553 
L 385 552 
" fill="#D21010" />
<path d="
M 460 552 
L 451 553 
L 468 553 
L 460 552 
M 456 552 
L 464 552 
L 485 554 
L 477 554 
L 471 554 
L 449 554 
L 442 554 
L 435 554 
L 456 552 
" fill="lightgray" />
<path d="
M 410 548 
L 401 550 
L 418 550 
L 410 548 
M 406 547 
L 414 547 
L 435 551 
L 427 551 
L 421 550 
L 399 550 
L 392 551 
L 385 551 
L 406 547 
" fill="#339541" />
<path d="
M 435 547 
L 444 547 
L 444 550 
Q 444 550 , 448 551 
Q 451 551 , 460 551 
Q 469 551 , 472 551 
Q 476 550 , 476 550 
L 476 547 
L 485 547 
L 485 550 
Q 485 551 , 479 551 
Q 472 551 , 460 551 
Q 448 551 , 441 551 
Q 435 551 , 435 550 
L 435 547 
" fill="lightgray" />
<path d="
M 435 542 
L 435 542 
Q 428 542 , 424 542 
Q 419 542 , 414 542 
Q 404 542 , 399 542 
Q 393 543 , 393 544 
Q 393 545 , 399 545 
Q 404 546 , 414 546 
Q 419 546 , 424 545 
Q 428 545 , 435 545 
L 435 546 
Q 430 546 , 424 546 
Q 420 546 , 414 546 
Q 400 546 , 393 545 
Q 385 545 , 385 544 
Q 385 542 , 393 542 
Q 400 541 , 414 541 
Q 420 541 , 425 541 
Q 430 541 , 435 542 
" fill="#545FFF" />
<path d="
M 477 545 
L 477 544 
L 463 544 
L 463 543 
L 485 543 
L 485 546 
Q 480 546 , 474 546 
Q 469 546 , 463 546 
Q 450 546 , 443 545 
Q 435 545 , 435 544 
Q 435 542 , 443 542 
Q 450 541 , 463 541 
Q 469 541 , 474 541 
Q 479 541 , 484 541 
L 484 542 
Q 477 542 , 473 542 
Q 469 542 , 464 542 
Q 454 542 , 448 542 
Q 443 543 , 443 544 
Q 443 545 , 448 545 
Q 454 546 , 464 546 
Q 469 546 , 472 546 
Q 476 546 , 477 545 
" fill="lightgray" />
<path d="
M 427 540 
L 427 538 
L 413 538 
L 413 537 
L 435 537 
L 435 540 
Q 430 540 , 424 541 
Q 419 541 , 413 541 
Q 400 541 , 393 540 
Q 385 539 , 385 537 
Q 385 535 , 393 534 
Q 400 533 , 413 533 
Q 419 533 , 424 533 
Q 429 533 , 434 534 
L 434 535 
Q 427 534 , 423 534 
Q 419 534 , 414 534 
Q 404 534 , 398 535 
Q 393 535 , 393 537 
Q 393 538 , 398 539 
Q 404 540 , 414 540 
Q 419 540 , 422 540 
Q 426 540 , 427 540 
" fill="#F5C000" />
<path d="
M 435 533 
L 444 533 
L 444 538 
Q 444 539 , 448 539 
Q 451 540 , 460 540 
Q 469 540 , 472 539 
Q 476 539 , 476 538 
L 476 533 
L 485 533 
L 485 538 
Q 485 539 , 479 540 
Q 472 541 , 460 541 
Q 448 541 , 441 540 
Q 435 539 , 435 538 
L 435 533 
" fill="lightgray" />
<path d="
M 385 520 
L 394 520 
L 394 527 
Q 394 529 , 398 530 
Q 401 531 , 410 531 
Q 419 531 , 422 530 
Q 426 529 , 426 527 
L 426 520 
L 435 520 
L 435 527 
Q 435 530 , 429 531 
Q 422 532 , 410 532 
Q 398 532 , 391 531 
Q 385 530 , 385 527 
L 385 520 
" fill="#D21010" />
<path d="
M 477 531 
L 477 527 
L 463 527 
L 463 526 
L 485 526 
L 485 531 
Q 480 532 , 474 532 
Q 469 532 , 463 532 
Q 450 532 , 443 531 
Q 435 529 , 435 526 
Q 435 523 , 443 522 
Q 450 520 , 463 520 
Q 469 520 , 474 520 
Q 479 520 , 484 521 
L 484 523 
Q 477 522 , 473 522 
Q 469 521 , 464 521 
Q 454 521 , 448 523 
Q 443 524 , 443 526 
Q 443 529 , 448 530 
Q 454 531 , 464 531 
Q 469 531 , 472 531 
Q 476 531 , 477 531 
" fill="lightgray" />
<path d="
M 427 517 
L 427 513 
L 413 513 
L 413 511 
L 435 511 
L 435 518 
Q 430 519 , 424 519 
Q 419 520 , 413 520 
Q 400 520 , 393 518 
Q 385 515 , 385 512 
Q 385 508 , 393 506 
Q 400 504 , 413 504 
Q 419 504 , 424 504 
Q 429 505 , 434 505 
L 434 507 
Q 427 506 , 423 506 
Q 419 506 , 414 506 
Q 404 506 , 398 507 
Q 393 509 , 393 512 
Q 393 515 , 398 516 
Q 404 518 , 414 518 
Q 419 518 , 422 518 
Q 426 518 , 427 517 
" fill="#F5C000" />
<path d="
M 485 506 
L 485 508 
Q 478 507 , 474 506 
Q 469 506 , 464 506 
Q 454 506 , 449 507 
Q 443 509 , 443 512 
Q 443 515 , 449 516 
Q 454 518 , 464 518 
Q 469 518 , 474 518 
Q 478 517 , 485 516 
L 485 518 
Q 480 519 , 474 519 
Q 470 520 , 464 520 
Q 450 520 , 443 518 
Q 435 515 , 435 512 
Q 435 508 , 443 506 
Q 450 504 , 464 504 
Q 470 504 , 475 504 
Q 480 505 , 485 506 
" fill="lightgray" />
<path d="
M 515 553 
L 506 554 
L 523 554 
L 515 553 
M 511 553 
L 519 553 
L 540 554 
L 532 554 
L 526 554 
L 504 554 
L 497 554 
L 490 554 
L 511 553 
" fill="#339541" />
<path d="
M 540 553 
L 549 553 
L 549 554 
Q 549 554 , 553 554 
Q 556 554 , 565 554 
Q 574 554 , 577 554 
Q 581 554 , 581 554 
L 581 553 
L 590 553 
L 590 554 
Q 590 554 , 584 554 
Q 577 554 , 565 554 
Q 553 554 , 546 554 
Q 540 554 , 540 554 
L 540 553 
" fill="lightgray" />
<path d="
M 490 551 
L 499 551 
L 499 552 
Q 499 552 , 503 552 
Q 506 553 , 515 553 
Q 524 553 , 527 552 
Q 531 552 , 531 552 
L 531 551 
L 540 551 
L 540 552 
Q 540 552 , 534 553 
Q 527 553 , 515 553 
Q 503 553 , 496 553 
Q 490 552 , 490 552 
L 490 551 
" fill="#D21010" />
<path d="
M 565 551 
L 556 552 
L 573 552 
L 565 551 
M 561 551 
L 569 551 
L 590 553 
L 582 553 
L 576 552 
L 554 552 
L 547 553 
L 540 553 
L 561 551 
" fill="lightgray" />
<path d="
M 532 550 
L 532 549 
L 518 549 
L 518 549 
L 540 549 
L 540 550 
Q 535 550 , 529 550 
Q 524 550 , 518 550 
Q 505 550 , 498 550 
Q 490 550 , 490 549 
Q 490 549 , 498 548 
Q 505 548 , 518 548 
Q 524 548 , 529 548 
Q 534 548 , 539 548 
L 539 549 
Q 532 548 , 528 548 
Q 524 548 , 519 548 
Q 509 548 , 503 549 
Q 498 549 , 498 549 
Q 498 550 , 503 550 
Q 509 550 , 519 550 
Q 524 550 , 527 550 
Q 531 550 , 532 550 
" fill="#F5C000" />
<path d="
M 540 548 
L 549 548 
L 549 549 
Q 549 550 , 553 550 
Q 556 550 , 565 550 
Q 574 550 , 577 550 
Q 581 550 , 581 549 
L 581 548 
L 590 548 
L 590 549 
Q 590 550 , 584 550 
Q 577 550 , 565 550 
Q 553 550 , 546 550 
Q 540 550 , 540 549 
L 540 548 
" fill="lightgray" />
<path d="
M 540 544 
L 540 545 
Q 533 545 , 529 544 
Q 524 544 , 519 544 
Q 509 544 , 504 545 
Q 498 545 , 498 545 
Q 498 546 , 504 547 
Q 509 547 , 519 547 
Q 524 547 , 529 547 
Q 533 547 , 540 547 
L 540 547 
Q 535 547 , 529 547 
Q 525 547 , 519 547 
Q 505 547 , 498 547 
Q 490 546 , 490 546 
Q 490 545 , 498 544 
Q 505 544 , 519 544 
Q 525 544 , 530 544 
Q 535 544 , 540 544 
" fill="#545FFF" />
<path d="
M 582 547 
L 582 546 
L 568 546 
L 568 546 
L 590 546 
L 590 547 
Q 585 547 , 579 547 
Q 574 547 , 568 547 
Q 555 547 , 548 547 
Q 540 546 , 540 546 
Q 540 545 , 548 544 
Q 555 544 , 568 544 
Q 574 544 , 579 544 
Q 584 544 , 589 544 
L 589 545 
Q 582 545 , 578 544 
Q 574 544 , 569 544 
Q 559 544 , 553 545 
Q 548 545 , 548 546 
Q 548 546 , 553 547 
Q 559 547 , 569 547 
Q 574 547 , 577 547 
Q 581 547 , 582 547 
" fill="lightgray" />
<path d="
M 490 540 
L 499 540 
L 499 542 
Q 499 543 , 503 543 
Q 506 543 , 515 543 
Q 524 543 , 527 543 
Q 531 543 , 531 542 
L 531 540 
L 540 540 
L 540 542 
Q 540 543 , 534 543 
Q 527 544 , 515 544 
Q 503 544 , 496 543 
Q 490 543 , 490 542 
L 490 540 
" fill="#D21010" />
<path d="
M 582 543 
L 582 542 
L 568 542 
L 568 542 
L 590 542 
L 590 543 
Q 585 543 , 579 543 
Q 574 544 , 568 544 
Q 555 544 , 548 543 
Q 540 543 , 540 542 
Q 540 541 , 548 540 
Q 555 540 , 568 540 
Q 574 540 , 579 540 
Q 584 540 , 589 540 
L 589 541 
Q 582 541 , 578 540 
Q 574 540 , 569 540 
Q 559 540 , 553 541 
Q 548 541 , 548 542 
Q 548 542 , 553 543 
Q 559 543 , 569 543 
Q 574 543 , 577 543 
Q 581 543 , 582 543 
" fill="lightgray" />
<path d="
M 532 539 
L 532 538 
L 518 538 
L 518 538 
L 540 538 
L 540 539 
Q 535 540 , 529 540 
Q 524 540 , 518 540 
Q 505 540 , 498 539 
Q 490 539 , 490 538 
Q 490 537 , 498 537 
Q 505 536 , 518 536 
Q 524 536 , 529 536 
Q 534 536 , 539 536 
L 539 537 
Q 532 537 , 528 537 
Q 524 536 , 519 536 
Q 509 536 , 503 537 
Q 498 537 , 498 538 
Q 498 539 , 503 539 
Q 509 539 , 519 539 
Q 524 539 , 527 539 
Q 531 539 , 532 539 
" fill="#F5C000" />
<path d="
M 590 536 
L 590 537 
Q 583 537 , 579 537 
Q 574 536 , 569 536 
Q 559 536 , 554 537 
Q 548 537 , 548 538 
Q 548 539 , 554 539 
Q 559 539 , 569 539 
Q 574 539 , 579 539 
Q 583 539 , 590 539 
L 590 539 
Q 585 540 , 579 540 
Q 575 540 , 569 540 
Q 555 540 , 548 539 
Q 540 539 , 540 538 
Q 540 537 , 548 537 
Q 555 536 , 569 536 
Q 575 536 , 580 536 
Q 585 536 , 590 536 
" fill="lightgray" />
<path d="
M 645 553 
L 627 554 
L 661 554 
L 645 553 
M 638 553 
L 652 553 
L 695 555 
L 679 555 
L 667 554 
L 623 554 
L 610 555 
L 595 555 
L 638 553 
" fill="#339541" />
<path d="
M 679 552 
L 679 551 
L 650 551 
L 650 550 
L 695 550 
L 695 552 
Q 684 552 , 673 552 
Q 664 552 , 652 552 
Q 626 552 , 610 552 
Q 595 551 , 595 551 
Q 595 550 , 610 549 
Q 626 549 , 652 549 
Q 663 549 , 672 549 
Q 682 549 , 692 549 
L 692 550 
Q 679 549 , 671 549 
Q 662 549 , 653 549 
Q 632 549 , 621 550 
Q 611 550 , 611 551 
Q 611 551 , 621 551 
Q 632 552 , 653 552 
Q 662 552 , 669 552 
Q 676 552 , 679 552 
" fill="#F5C000" />
<path d="
M 695 544 
L 695 545 
Q 680 545 , 672 545 
Q 664 544 , 654 544 
Q 633 544 , 623 545 
Q 611 545 , 611 546 
Q 611 547 , 623 547 
Q 633 548 , 654 548 
Q 664 548 , 672 548 
Q 680 548 , 695 547 
L 695 548 
Q 684 548 , 674 548 
Q 664 548 , 653 548 
Q 626 548 , 611 548 
Q 595 547 , 595 546 
Q 595 545 , 611 545 
Q 626 544 , 653 544 
Q 664 544 , 674 544 
Q 685 544 , 695 544 
" fill="#545FFF" />
<path d="
M 595 539 
L 613 539 
L 613 542 
Q 613 543 , 621 543 
Q 628 543 , 645 543 
Q 662 543 , 670 543 
Q 677 543 , 677 542 
L 677 539 
L 695 539 
L 695 542 
Q 695 543 , 682 543 
Q 670 544 , 645 544 
Q 621 544 , 608 543 
Q 595 543 , 595 542 
L 595 539 
" fill="#D21010" />
<path d="
M 700 554 
L 718 554 
L 718 554 
Q 718 555 , 726 555 
Q 733 555 , 750 555 
Q 767 555 , 775 555 
Q 782 555 , 782 554 
L 782 554 
L 800 554 
L 800 554 
Q 800 555 , 787 555 
Q 775 555 , 750 555 
Q 726 555 , 713 555 
Q 700 555 , 700 554 
L 700 554 
" fill="#D21010" />
<path d="
M 750 553 
L 732 553 
L 766 553 
L 750 553 
M 743 553 
L 757 553 
L 800 554 
L 784 554 
L 772 554 
L 728 554 
L 715 554 
L 700 554 
L 743 553 
" fill="#339541" />
<path d="
M 784 553 
L 784 552 
L 755 552 
L 755 552 
L 800 552 
L 800 553 
Q 789 553 , 778 553 
Q 769 553 , 757 553 
Q 731 553 , 715 553 
Q 700 553 , 700 552 
Q 700 552 , 715 552 
Q 731 552 , 757 552 
Q 768 552 , 777 552 
Q 787 552 , 797 552 
L 797 552 
Q 784 552 , 776 552 
Q 767 552 , 758 552 
Q 737 552 , 726 552 
Q 716 552 , 716 552 
Q 716 553 , 726 553 
Q 737 553 , 758 553 
Q 767 553 , 774 553 
Q 781 553 , 784 553 
" fill="#F5C000" />
<path d="
M 800 550 
L 800 550 
Q 785 550 , 777 550 
Q 769 550 , 759 550 
Q 738 550 , 728 550 
Q 716 550 , 716 550 
Q 716 551 , 728 551 
Q 738 551 , 759 551 
Q 769 551 , 777 551 
Q 785 551 , 800 551 
L 800 551 
Q 789 551 , 779 551 
Q 769 551 , 758 551 
Q 731 551 , 716 551 
Q 700 551 , 700 551 
Q 700 550 , 716 550 
Q 731 550 , 758 550 
Q 769 550 , 779 550 
Q 790 550 , 800 550 
" fill="#545FFF" />
<path d="
M 855 551 
L 837 552 
L 871 552 
L 855 551 
M 848 550 
L 862 550 
L 905 554 
L 889 554 
L 877 553 
L 833 553 
L 820 554 
L 805 554 
L 848 550 
" fill="#339541" />
<path d="
M 805 543 
L 823 543 
L 823 547 
Q 823 548 , 831 548 
Q 838 549 , 855 549 
Q 872 549 , 880 548 
Q 887 548 , 887 547 
L 887 543 
L 905 543 
L 905 547 
Q 905 548 , 892 549 
Q 880 550 , 855 550 
Q 831 550 , 818 549 
Q 805 548 , 805 547 
L 805 543 
" fill="#D21010" />
<path d="
M 889 540 
L 889 536 
L 860 536 
L 860 534 
L 905 534 
L 905 541 
Q 894 542 , 883 542 
Q 874 543 , 862 543 
Q 836 543 , 820 541 
Q 805 538 , 805 535 
Q 805 531 , 820 529 
Q 836 527 , 862 527 
Q 873 527 , 882 527 
Q 892 528 , 902 528 
L 902 530 
Q 889 529 , 881 529 
Q 872 529 , 863 529 
Q 842 529 , 831 530 
Q 821 532 , 821 535 
Q 821 538 , 831 539 
Q 842 541 , 863 541 
Q 872 541 , 879 541 
Q 886 541 , 889 540 
" fill="#F5C000" />
<path d="
M 905 509 
L 905 512 
Q 890 510 , 882 510 
Q 874 509 , 864 509 
Q 843 509 , 833 511 
Q 821 513 , 821 517 
Q 821 521 , 833 523 
Q 843 525 , 864 525 
Q 874 525 , 882 524 
Q 890 524 , 905 522 
L 905 525 
Q 894 526 , 884 526 
Q 874 527 , 863 527 
Q 836 527 , 821 524 
Q 805 522 , 805 517 
Q 805 512 , 821 510 
Q 836 507 , 863 507 
Q 874 507 , 884 507 
Q 895 508 , 905 509 
" fill="#545FFF" />
<path d="
M 994 554 
L 994 553 
L 965 553 
L 965 553 
L 1010 553 
L 1010 554 
Q 999 554 , 988 554 
Q 979 554 , 967 554 
Q 941 554 , 925 554 
Q 910 553 , 910 553 
Q 910 552 , 925 551 
Q 941 551 , 967 551 
Q 978 551 , 987 551 
Q 997 551 , 1007 551 
L 1007 552 
Q 994 551 , 986 551 
Q 977 551 , 968 551 
Q 947 551 , 936 552 
Q 926 552 , 926 553 
Q 926 553 , 936 554 
Q 947 554 , 968 554 
Q 977 554 , 984 554 
Q 991 554 , 994 554 
" fill="#F5C000" />
<path d="
M 1010 545 
L 1010 546 
Q 995 545 , 987 545 
Q 979 545 , 969 545 
Q 948 545 , 938 545 
Q 926 546 , 926 547 
Q 926 549 , 938 549 
Q 948 550 , 969 550 
Q 979 550 , 987 550 
Q 995 550 , 1010 549 
L 1010 550 
Q 999 551 , 989 551 
Q 979 551 , 968 551 
Q 941 551 , 926 550 
Q 910 549 , 910 547 
Q 910 546 , 926 545 
Q 941 544 , 968 544 
Q 979 544 , 989 544 
Q 1000 544 , 1010 545 
" fill="#545FFF" />
<path d="
M 960 534 
L 942 539 
L 976 539 
L 960 534 
M 953 532 
L 967 532 
L 1010 544 
L 994 544 
L 982 540 
L 938 540 
L 925 544 
L 910 544 
L 953 532 
" fill="#339541" />
<path d="
M 910 516 
L 928 516 
L 928 525 
Q 928 527 , 936 528 
Q 943 529 , 960 529 
Q 977 529 , 985 528 
Q 992 527 , 992 525 
L 992 516 
L 1010 516 
L 1010 525 
Q 1010 528 , 997 530 
Q 985 531 , 960 531 
Q 936 531 , 923 530 
Q 910 528 , 910 525 
L 910 516 
" fill="#D21010" />
<path d="
M 1040 553 
L 1031 554 
L 1048 554 
L 1040 553 
M 1036 553 
L 1044 553 
L 1065 554 
L 1057 554 
L 1051 554 
L 1029 554 
L 1022 554 
L 1015 554 
L 1036 553 
" fill="lightgray" />
<path d="
M 1065 553 
L 1074 553 
L 1074 554 
Q 1074 554 , 1078 554 
Q 1081 554 , 1090 554 
Q 1099 554 , 1102 554 
Q 1106 554 , 1106 554 
L 1106 553 
L 1115 553 
L 1115 554 
Q 1115 554 , 1109 554 
Q 1102 554 , 1090 554 
Q 1078 554 , 1071 554 
Q 1065 554 , 1065 554 
L 1065 553 
" fill="#D21010" />
<path d="
M 1015 551 
L 1024 551 
L 1024 552 
Q 1024 552 , 1028 552 
Q 1031 553 , 1040 553 
Q 1049 553 , 1052 552 
Q 1056 552 , 1056 552 
L 1056 551 
L 1065 551 
L 1065 552 
Q 1065 552 , 1059 553 
Q 1052 553 , 1040 553 
Q 1028 553 , 1021 553 
Q 1015 552 , 1015 552 
L 1015 551 
" fill="lightgray" />
<path d="
M 1090 551 
L 1081 552 
L 1098 552 
L 1090 551 
M 1086 551 
L 1094 551 
L 1115 553 
L 1107 553 
L 1101 552 
L 1079 552 
L 1072 553 
L 1065 553 
L 1086 551 
" fill="#339541" />
<path d="
M 1057 550 
L 1057 549 
L 1043 549 
L 1043 549 
L 1065 549 
L 1065 550 
Q 1060 550 , 1054 550 
Q 1049 550 , 1043 550 
Q 1030 550 , 1023 550 
Q 1015 550 , 1015 549 
Q 1015 549 , 1023 548 
Q 1030 548 , 1043 548 
Q 1049 548 , 1054 548 
Q 1059 548 , 1064 548 
L 1064 549 
Q 1057 548 , 1053 548 
Q 1049 548 , 1044 548 
Q 1034 548 , 1028 549 
Q 1023 549 , 1023 549 
Q 1023 550 , 1028 550 
Q 1034 550 , 1044 550 
Q 1049 550 , 1052 550 
Q 1056 550 , 1057 550 
" fill="lightgray" />
<path d="
M 1065 548 
L 1074 548 
L 1074 549 
Q 1074 550 , 1078 550 
Q 1081 550 , 1090 550 
Q 1099 550 , 1102 550 
Q 1106 550 , 1106 549 
L 1106 548 
L 1115 548 
L 1115 549 
Q 1115 550 , 1109 550 
Q 1102 550 , 1090 550 
Q 1078 550 , 1071 550 
Q 1065 550 , 1065 549 
L 1065 548 
" fill="#D21010" />
<path d="
M 1065 544 
L 1065 545 
Q 1058 545 , 1054 544 
Q 1049 544 , 1044 544 
Q 1034 544 , 1029 545 
Q 1023 545 , 1023 545 
Q 1023 546 , 1029 547 
Q 1034 547 , 1044 547 
Q 1049 547 , 1054 547 
Q 1058 547 , 1065 547 
L 1065 547 
Q 1060 547 , 1054 547 
Q 1050 547 , 1044 547 
Q 1030 547 , 1023 547 
Q 1015 546 , 1015 546 
Q 1015 545 , 1023 544 
Q 1030 544 , 1044 544 
Q 1050 544 , 1055 544 
Q 1060 544 , 1065 544 
" fill="lightgray" />
<path d="
M 1107 547 
L 1107 546 
L 1093 546 
L 1093 546 
L 1115 546 
L 1115 547 
Q 1110 547 , 1104 547 
Q 1099 547 , 1093 547 
Q 1080 547 , 1073 547 
Q 1065 546 , 1065 546 
Q 1065 545 , 1073 544 
Q 1080 544 , 1093 544 
Q 1099 544 , 1104 544 
Q 1109 544 , 1114 544 
L 1114 545 
Q 1107 545 , 1103 544 
Q 1099 544 , 1094 544 
Q 1084 544 , 1078 545 
Q 1073 545 , 1073 546 
Q 1073 546 , 1078 547 
Q 1084 547 , 1094 547 
Q 1099 547 , 1102 547 
Q 1106 547 , 1107 547 
" fill="#F5C000" />
<path d="
M 1015 540 
L 1024 540 
L 1024 542 
Q 1024 543 , 1028 543 
Q 1031 543 , 1040 543 
Q 1049 543 , 1052 543 
Q 1056 543 , 1056 542 
L 1056 540 
L 1065 540 
L 1065 542 
Q 1065 543 , 1059 543 
Q 1052 544 , 1040 544 
Q 1028 544 , 1021 543 
Q 1015 543 , 1015 542 
L 1015 540 
" fill="lightgray" />
<path d="
M 1107 543 
L 1107 542 
L 1093 542 
L 1093 542 
L 1115 542 
L 1115 543 
Q 1110 543 , 1104 543 
Q 1099 544 , 1093 544 
Q 1080 544 , 1073 543 
Q 1065 543 , 1065 542 
Q 1065 541 , 1073 540 
Q 1080 540 , 1093 540 
Q 1099 540 , 1104 540 
Q 1109 540 , 1114 540 
L 1114 541 
Q 1107 541 , 1103 540 
Q 1099 540 , 1094 540 
Q 1084 540 , 1078 541 
Q 1073 541 , 1073 542 
Q 1073 542 , 1078 543 
Q 1084 543 , 1094 543 
Q 1099 543 , 1102 543 
Q 1106 543 , 1107 543 
" fill="#F5C000" />
<path d="
M 1057 539 
L 1057 538 
L 1043 538 
L 1043 538 
L 1065 538 
L 1065 539 
Q 1060 540 , 1054 540 
Q 1049 540 , 1043 540 
Q 1030 540 , 1023 539 
Q 1015 539 , 1015 538 
Q 1015 537 , 1023 537 
Q 1030 536 , 1043 536 
Q 1049 536 , 1054 536 
Q 1059 536 , 1064 536 
L 1064 537 
Q 1057 537 , 1053 537 
Q 1049 536 , 1044 536 
Q 1034 536 , 1028 537 
Q 1023 537 , 1023 538 
Q 1023 539 , 1028 539 
Q 1034 539 , 1044 539 
Q 1049 539 , 1052 539 
Q 1056 539 , 1057 539 
" fill="lightgray" />
<path d="
M 1115 536 
L 1115 537 
Q 1108 537 , 1104 537 
Q 1099 536 , 1094 536 
Q 1084 536 , 1079 537 
Q 1073 537 , 1073 538 
Q 1073 539 , 1079 539 
Q 1084 539 , 1094 539 
Q 1099 539 , 1104 539 
Q 1108 539 , 1115 539 
L 1115 539 
Q 1110 540 , 1104 540 
Q 1100 540 , 1094 540 
Q 1080 540 , 1073 539 
Q 1065 539 , 1065 538 
Q 1065 537 , 1073 537 
Q 1080 536 , 1094 536 
Q 1100 536 , 1105 536 
Q 1110 536 , 1115 536 
" fill="#545FFF" />
<path d="
M 1120 552 
L 1129 552 
L 1129 553 
Q 1129 554 , 1133 554 
Q 1136 554 , 1145 554 
Q 1154 554 , 1157 554 
Q 1161 554 , 1161 553 
L 1161 552 
L 1170 552 
L 1170 553 
Q 1170 554 , 1164 554 
Q 1157 554 , 1145 554 
Q 1133 554 , 1126 554 
Q 1120 554 , 1120 553 
L 1120 552 
" fill="lightgray" />
<path d="
M 1195 552 
L 1186 553 
L 1203 553 
L 1195 552 
M 1191 552 
L 1199 552 
L 1220 554 
L 1212 554 
L 1206 554 
L 1184 554 
L 1177 554 
L 1170 554 
L 1191 552 
" fill="#339541" />
<path d="
M 1145 548 
L 1136 550 
L 1153 550 
L 1145 548 
M 1141 547 
L 1149 547 
L 1170 551 
L 1162 551 
L 1156 550 
L 1134 550 
L 1127 551 
L 1120 551 
L 1141 547 
" fill="lightgray" />
<path d="
M 1170 547 
L 1179 547 
L 1179 550 
Q 1179 550 , 1183 551 
Q 1186 551 , 1195 551 
Q 1204 551 , 1207 551 
Q 1211 550 , 1211 550 
L 1211 547 
L 1220 547 
L 1220 550 
Q 1220 551 , 1214 551 
Q 1207 551 , 1195 551 
Q 1183 551 , 1176 551 
Q 1170 551 , 1170 550 
L 1170 547 
" fill="#D21010" />
<path d="
M 1170 542 
L 1170 542 
Q 1163 542 , 1159 542 
Q 1154 542 , 1149 542 
Q 1139 542 , 1134 542 
Q 1128 543 , 1128 544 
Q 1128 545 , 1134 545 
Q 1139 546 , 1149 546 
Q 1154 546 , 1159 545 
Q 1163 545 , 1170 545 
L 1170 546 
Q 1165 546 , 1159 546 
Q 1155 546 , 1149 546 
Q 1135 546 , 1128 545 
Q 1120 545 , 1120 544 
Q 1120 542 , 1128 542 
Q 1135 541 , 1149 541 
Q 1155 541 , 1160 541 
Q 1165 541 , 1170 542 
" fill="lightgray" />
<path d="
M 1212 545 
L 1212 544 
L 1198 544 
L 1198 543 
L 1220 543 
L 1220 546 
Q 1215 546 , 1209 546 
Q 1204 546 , 1198 546 
Q 1185 546 , 1178 545 
Q 1170 545 , 1170 544 
Q 1170 542 , 1178 542 
Q 1185 541 , 1198 541 
Q 1204 541 , 1209 541 
Q 1214 541 , 1219 541 
L 1219 542 
Q 1212 542 , 1208 542 
Q 1204 542 , 1199 542 
Q 1189 542 , 1183 542 
Q 1178 543 , 1178 544 
Q 1178 545 , 1183 545 
Q 1189 546 , 1199 546 
Q 1204 546 , 1207 546 
Q 1211 546 , 1212 545 
" fill="#F5C000" />
<path d="
M 1162 540 
L 1162 538 
L 1148 538 
L 1148 537 
L 1170 537 
L 1170 540 
Q 1165 540 , 1159 541 
Q 1154 541 , 1148 541 
Q 1135 541 , 1128 540 
Q 1120 539 , 1120 537 
Q 1120 535 , 1128 534 
Q 1135 533 , 1148 533 
Q 1154 533 , 1159 533 
Q 1164 533 , 1169 534 
L 1169 535 
Q 1162 534 , 1158 534 
Q 1154 534 , 1149 534 
Q 1139 534 , 1133 535 
Q 1128 535 , 1128 537 
Q 1128 538 , 1133 539 
Q 1139 540 , 1149 540 
Q 1154 540 , 1157 540 
Q 1161 540 , 1162 540 
" fill="lightgray" />
<path d="
M 1170 533 
L 1179 533 
L 1179 538 
Q 1179 539 , 1183 539 
Q 1186 540 , 1195 540 
Q 1204 540 , 1207 539 
Q 1211 539 , 1211 538 
L 1211 533 
L 1220 533 
L 1220 538 
Q 1220 539 , 1214 540 
Q 1207 541 , 1195 541 
Q 1183 541 , 1176 540 
Q 1170 539 , 1170 538 
L 1170 533 
" fill="#D21010" />
<path d="
M 1120 520 
L 1129 520 
L 1129 527 
Q 1129 529 , 1133 530 
Q 1136 531 , 1145 531 
Q 1154 531 , 1157 530 
Q 1161 529 , 1161 527 
L 1161 520 
L 1170 520 
L 1170 527 
Q 1170 530 , 1164 531 
Q 1157 532 , 1145 532 
Q 1133 532 , 1126 531 
Q 1120 530 , 1120 527 
L 1120 520 
" fill="lightgray" />
<path d="
M 1212 531 
L 1212 527 
L 1198 527 
L 1198 526 
L 1220 526 
L 1220 531 
Q 1215 532 , 1209 532 
Q 1204 532 , 1198 532 
Q 1185 532 , 1178 531 
Q 1170 529 , 1170 526 
Q 1170 523 , 1178 522 
Q 1185 520 , 1198 520 
Q 1204 520 , 1209 520 
Q 1214 520 , 1219 521 
L 1219 523 
Q 1212 522 , 1208 522 
Q 1204 521 , 1199 521 
Q 1189 521 , 1183 523 
Q 1178 524 , 1178 526 
Q 1178 529 , 1183 530 
Q 1189 531 , 1199 531 
Q 1204 531 , 1207 531 
Q 1211 531 , 1212 531 
" fill="#F5C000" />
<path d="
M 1162 517 
L 1162 513 
L 1148 513 
L 1148 511 
L 1170 511 
L 1170 518 
Q 1165 519 , 1159 519 
Q 1154 520 , 1148 520 
Q 1135 520 , 1128 518 
Q 1120 515 , 1120 512 
Q 1120 508 , 1128 506 
Q 1135 504 , 1148 504 
Q 1154 504 , 1159 504 
Q 1164 505 , 1169 505 
L 1169 507 
Q 1162 506 , 1158 506 
Q 1154 506 , 1149 506 
Q 1139 506 , 1133 507 
Q 1128 509 , 1128 512 
Q 1128 515 , 1133 516 
Q 1139 518 , 1149 518 
Q 1154 518 , 1157 518 
Q 1161 518 , 1162 517 
" fill="lightgray" />
<path d="
M 1220 506 
L 1220 508 
Q 1213 507 , 1209 506 
Q 1204 506 , 1199 506 
Q 1189 506 , 1184 507 
Q 1178 509 , 1178 512 
Q 1178 515 , 1184 516 
Q 1189 518 , 1199 518 
Q 1204 518 , 1209 518 
Q 1213 517 , 1220 516 
L 1220 518 
Q 1215 519 , 1209 519 
Q 1205 520 , 1199 520 
Q 1185 520 , 1178 518 
Q 1170 515 , 1170 512 
Q 1170 508 , 1178 506 
Q 1185 504 , 1199 504 
Q 1205 504 , 1210 504 
Q 1215 505 , 1220 506 
" fill="#545FFF" />
<path d="
M 1309 553 
L 1309 551 
L 1280 551 
L 1280 550 
L 1325 550 
L 1325 553 
Q 1314 554 , 1303 554 
Q 1294 554 , 1282 554 
Q 1256 554 , 1240 553 
Q 1225 552 , 1225 550 
Q 1225 548 , 1240 547 
Q 1256 546 , 1282 546 
Q 1293 546 , 1302 546 
Q 1312 546 , 1322 547 
L 1322 548 
Q 1309 547 , 1301 547 
Q 1292 547 , 1283 547 
Q 1262 547 , 1251 548 
Q 1241 548 , 1241 550 
Q 1241 552 , 1251 552 
Q 1262 553 , 1283 553 
Q 1292 553 , 1299 553 
Q 1306 553 , 1309 553 
" fill="#F5C000" />
<path d="
M 1225 533 
L 1243 533 
L 1243 540 
Q 1243 542 , 1251 543 
Q 1258 544 , 1275 544 
Q 1292 544 , 1300 543 
Q 1307 542 , 1307 540 
L 1307 533 
L 1325 533 
L 1325 540 
Q 1325 543 , 1312 544 
Q 1300 545 , 1275 545 
Q 1251 545 , 1238 544 
Q 1225 543 , 1225 540 
L 1225 533 
" fill="#D21010" />
<path d="
M 1275 519 
L 1257 526 
L 1291 526 
L 1275 519 
M 1268 516 
L 1282 516 
L 1325 533 
L 1309 533 
L 1297 528 
L 1253 528 
L 1240 533 
L 1225 533 
L 1268 516 
" fill="#339541" />
<path d="
M 1325 449 
L 1325 461 
Q 1310 453 , 1302 451 
Q 1294 449 , 1284 449 
Q 1263 449 , 1253 457 
Q 1241 464 , 1241 478 
Q 1241 493 , 1253 501 
Q 1263 508 , 1284 508 
Q 1294 508 , 1302 506 
Q 1310 504 , 1325 497 
L 1325 508 
Q 1314 513 , 1304 514 
Q 1294 516 , 1283 516 
Q 1256 516 , 1241 506 
Q 1225 496 , 1225 479 
Q 1225 461 , 1241 451 
Q 1256 441 , 1283 441 
Q 1294 441 , 1304 443 
Q 1315 445 , 1325 449 
" fill="#545FFF" />
<path d="
M 1330 554 
L 1348 554 
L 1348 554 
Q 1348 555 , 1356 555 
Q 1363 555 , 1380 555 
Q 1397 555 , 1405 555 
Q 1412 555 , 1412 554 
L 1412 554 
L 1430 554 
L 1430 554 
Q 1430 555 , 1417 555 
Q 1405 555 , 1380 555 
Q 1356 555 , 1343 555 
Q 1330 555 , 1330 554 
L 1330 554 
" fill="#D21010" />
<path d="
M 1380 553 
L 1362 553 
L 1396 553 
L 1380 553 
M 1373 553 
L 1387 553 
L 1430 554 
L 1414 554 
L 1402 554 
L 1358 554 
L 1345 554 
L 1330 554 
L 1373 553 
" fill="#339541" />
<path d="
M 1414 553 
L 1414 552 
L 1385 552 
L 1385 552 
L 1430 552 
L 1430 553 
Q 1419 553 , 1408 553 
Q 1399 553 , 1387 553 
Q 1361 553 , 1345 553 
Q 1330 553 , 1330 552 
Q 1330 552 , 1345 552 
Q 1361 552 , 1387 552 
Q 1398 552 , 1407 552 
Q 1417 552 , 1427 552 
L 1427 552 
Q 1414 552 , 1406 552 
Q 1397 552 , 1388 552 
Q 1367 552 , 1356 552 
Q 1346 552 , 1346 552 
Q 1346 553 , 1356 553 
Q 1367 553 , 1388 553 
Q 1397 553 , 1404 553 
Q 1411 553 , 1414 553 
" fill="#F5C000" />
<path d="
M 1430 550 
L 1430 550 
Q 1415 550 , 1407 550 
Q 1399 550 , 1389 550 
Q 1368 550 , 1358 550 
Q 1346 550 , 1346 550 
Q 1346 551 , 1358 551 
Q 1368 551 , 1389 551 
Q 1399 551 , 1407 551 
Q 1415 551 , 1430 551 
L 1430 551 
Q 1419 551 , 1409 551 
Q 1399 551 , 1388 551 
Q 1361 551 , 1346 551 
Q 1330 551 , 1330 551 
Q 1330 550 , 1346 550 
Q 1361 550 , 1388 550 
Q 1399 550 , 1409 550 
Q 1420 550 , 1430 550 
" fill="#545FFF" />
<path d="M 65 168 L 65 555 " stroke="black" stroke-width="1.5"/>
<path d="M 55 555 L 65 555 " stroke="black" stroke-width="4"/>
<text text-anchor="end" x="50" y="555" font-size="50" alignment-baseline="middle">0</text>
<path d="M 55 362 L 65 362 " stroke="black" stroke-width="4"/>
<text text-anchor="end" x="50" y="362" font-size="50" alignment-baseline="middle">1</text>
<path d="M 55 168 L 65 168 " stroke="black" stroke-width="4"/>
<text text-anchor="end" x="50" y="168" font-size="50" alignment-baseline="middle">2</text>
<text text-anchor="middle" x="750" y="50" font-size="50" alignment-baseline="baseline"></text>
G<path d="
M 160 582 
L 126 595 
L 160 608 
L 157 611 
L 123 598 
L 123 623 
L 117 623 
L 117 599 
L 83 611 
L 80 608 
L 114 595 
L 80 582 
L 83 579 
L 117 591 
L 117 567 
L 123 567 
L 123 591 
L 157 579 
L 160 582 
" fill="black" />
<path d="
" fill="black" />
<path d="
M 211 567 
L 238 567 
L 238 623 
L 211 623 
L 211 567 
" fill="black" />
<path d="
" fill="black" />
<path d="
" fill="black" />
<path d="
M 316 567 
L 343 567 
L 343 623 
L 316 623 
L 316 567 
" fill="black" />
<path d="
" fill="black" />
<path d="
M 475 567 
Q 446 574 , 433 581 
Q 420 588 , 420 595 
Q 420 602 , 433 609 
Q 446 616 , 475 623 
L 451 623 
Q 423 616 , 409 609 
Q 395 602 , 395 595 
Q 395 588 , 409 581 
Q 423 574 , 451 567 
L 475 567 
" fill="black" />
<path d="
M 580 567 
Q 551 574 , 538 581 
Q 525 588 , 525 595 
Q 525 602 , 538 609 
Q 551 616 , 580 623 
L 556 623 
Q 528 616 , 514 609 
Q 500 602 , 500 595 
Q 500 588 , 514 581 
Q 528 574 , 556 567 
L 580 567 
" fill="black" />
<path d="
" fill="black" />
<path d="
M 617 567 
L 633 567 
L 633 623 
L 617 623 
L 617 567 
" fill="black" />
<path d="
" fill="black" />
<path d="
M 659 619 
L 665 619 
L 665 572 
L 657 578 
L 657 573 
L 665 567 
L 667 567 
L 667 619 
L 673 619 
L 673 623 
L 659 623 
L 659 619 
" fill="black" />
<path d="
M 685 571 
Q 682 571 , 681 577 
Q 679 583 , 679 595 
Q 679 607 , 681 613 
Q 682 619 , 685 619 
Q 688 619 , 689 613 
Q 691 607 , 691 595 
Q 691 583 , 689 577 
Q 688 571 , 685 571 
M 685 567 
Q 689 567 , 691 573 
Q 693 580 , 693 595 
Q 693 610 , 691 617 
Q 689 623 , 685 623 
Q 681 623 , 679 617 
Q 677 610 , 677 595 
Q 677 580 , 679 573 
Q 681 567 , 685 567 
" fill="black" />
<path d="
M 790 582 
L 756 595 
L 790 608 
L 787 611 
L 753 598 
L 753 623 
L 747 623 
L 747 599 
L 713 611 
L 710 608 
L 744 595 
L 710 582 
L 713 579 
L 747 591 
L 747 567 
L 753 567 
L 753 591 
L 787 579 
L 790 582 
" fill="black" />
<path d="
" fill="black" />
<path d="
M 841 567 
L 868 567 
L 868 623 
L 841 623 
L 841 567 
" fill="black" />
<path d="
" fill="black" />
<path d="
" fill="black" />
<path d="
M 946 567 
L 973 567 
L 973 623 
L 946 623 
L 946 567 
" fill="black" />
<path d="
" fill="black" />
<path d="
M 1025 567 
L 1049 567 
Q 1077 574 , 1091 581 
Q 1105 588 , 1105 595 
Q 1105 602 , 1091 609 
Q 1077 616 , 1049 623 
L 1025 623 
Q 1054 616 , 1067 609 
Q 1080 602 , 1080 595 
Q 1080 588 , 1067 581 
Q 1054 574 , 1025 567 
" fill="black" />
<path d="
M 1130 567 
L 1154 567 
Q 1182 574 , 1196 581 
Q 1210 588 , 1210 595 
Q 1210 602 , 1196 609 
Q 1182 616 , 1154 623 
L 1130 623 
Q 1159 616 , 1172 609 
Q 1185 602 , 1185 595 
Q 1185 588 , 1172 581 
Q 1159 574 , 1130 567 
" fill="black" />
<path d="
" fill="black" />
<path d="
M 1261 567 
L 1288 567 
L 1288 623 
L 1261 623 
L 1261 567 
" fill="black" />
<path d="
" fill="black" />
<path d="
M 1420 582 
L 1386 595 
L 1420 608 
L 1417 611 
L 1383 598 
L 1383 623 
L 1377 623 
L 1377 599 
L 1343 611 
L 1340 608 
L 1374 595 
L 1340 582 
L 1343 579 
L 1377 591 
L 1377 567 
L 1383 567 
L 1383 591 
L 1417 579 
L 1420 582 
" fill="black" />
</svg>
