<svg xmlns="http://www.w3.org/2000/svg"
viewBox="0 0 1435 635">
<path d="
M 170 553 
L 170 553 
Q 155 553 , 147 553 
Q 139 553 , 129 553 
Q 108 553 , 98 553 
Q 86 553 , 86 553 
Q 86 554 , 98 554 
Q 108 554 , 129 554 
Q 139 554 , 147 554 
Q 155 554 , 170 554 
L 170 554 
Q 159 554 , 149 554 
Q 139 554 , 128 554 
Q 101 554 , 86 554 
Q 70 554 , 70 554 
Q 70 553 , 86 553 
Q 101 553 , 128 553 
Q 139 553 , 149 553 
Q 160 553 , 170 553 
" fill="#545FFF" />
<path d="
M 154 552 
L 154 552 
L 125 552 
L 125 552 
L 170 552 
L 170 552 
Q 159 552 , 148 552 
Q 139 552 , 127 552 
Q 101 552 , 85 552 
Q 70 552 , 70 552 
Q 70 551 , 85 551 
Q 101 551 , 127 551 
Q 138 551 , 147 551 
Q 157 551 , 167 551 
L 167 551 
Q 154 551 , 146 551 
Q 137 551 , 128 551 
Q 107 551 , 96 551 
Q 86 551 , 86 552 
Q 86 552 , 96 552 
Q 107 552 , 128 552 
Q 137 552 , 144 552 
Q 151 552 , 154 552 
" fill="#F5C000" />
<path d="
M 120 549 
L 102 550 
L 136 550 
L 120 549 
M 113 549 
L 127 549 
L 170 550 
L 154 550 
L 142 550 
L 98 550 
L 85 550 
L 70 550 
L 113 549 
" fill="#339541" />
<path d="
M 70 547 
L 88 547 
L 88 548 
Q 88 548 , 96 548 
Q 103 549 , 120 549 
Q 137 549 , 145 548 
Q 152 548 , 152 548 
L 152 547 
L 170 547 
L 170 548 
Q 170 548 , 157 549 
Q 145 549 , 120 549 
Q 96 549 , 83 549 
Q 70 548 , 70 548 
L 70 547 
" fill="#D21010" />
<path d="
M 217 555 
L 217 554 
L 203 554 
L 203 554 
L 225 554 
L 225 555 
Q 220 555 , 214 555 
Q 209 555 , 203 555 
Q 190 555 , 183 555 
Q 175 554 , 175 554 
Q 175 553 , 183 553 
Q 190 553 , 203 553 
Q 209 553 , 214 553 
Q 219 553 , 224 553 
L 224 553 
Q 217 553 , 213 553 
Q 209 553 , 204 553 
Q 194 553 , 188 553 
Q 183 554 , 183 554 
Q 183 554 , 188 554 
Q 194 555 , 204 555 
Q 209 555 , 212 555 
Q 216 555 , 217 555 
" fill="#F5C000" />
<path d="
M 275 553 
L 275 553 
Q 268 553 , 264 553 
Q 259 553 , 254 553 
Q 244 553 , 239 553 
Q 233 554 , 233 554 
Q 233 554 , 239 554 
Q 244 555 , 254 555 
Q 259 555 , 264 555 
Q 268 555 , 275 554 
L 275 555 
Q 270 555 , 264 555 
Q 260 555 , 254 555 
Q 240 555 , 233 555 
Q 225 554 , 225 554 
Q 225 553 , 233 553 
Q 240 553 , 254 553 
Q 260 553 , 265 553 
Q 270 553 , 275 553 
" fill="lightgray" />
<path d="
M 175 547 
L 184 547 
L 184 550 
Q 184 551 , 188 551 
Q 191 552 , 200 552 
Q 209 552 , 212 551 
Q 216 551 , 216 550 
L 216 547 
L 225 547 
L 225 550 
Q 225 551 , 219 552 
Q 212 552 , 200 552 
Q 188 552 , 181 552 
Q 175 551 , 175 550 
L 175 547 
" fill="#D21010" />
<path d="
M 250 548 
L 241 550 
L 258 550 
L 250 548 
M 246 547 
L 254 547 
L 275 552 
L 267 552 
L 261 551 
L 239 551 
L 232 552 
L 225 552 
L 246 547 
" fill="lightgray" />
<path d="
M 225 541 
L 225 542 
Q 218 541 , 214 541 
Q 209 541 , 204 541 
Q 194 541 , 189 541 
Q 183 542 , 183 543 
Q 183 545 , 189 545 
Q 194 546 , 204 546 
Q 209 546 , 214 546 
Q 218 546 , 225 545 
L 225 546 
Q 220 547 , 214 547 
Q 210 547 , 204 547 
Q 190 547 , 183 546 
Q 175 545 , 175 543 
Q 175 542 , 183 541 
Q 190 540 , 204 540 
Q 210 540 , 215 540 
Q 220 540 , 225 541 
" fill="#545FFF" />
<path d="
M 267 546 
L 267 544 
L 253 544 
L 253 543 
L 275 543 
L 275 546 
Q 270 547 , 264 547 
Q 259 547 , 253 547 
Q 240 547 , 233 546 
Q 225 545 , 225 543 
Q 225 542 , 233 541 
Q 240 540 , 253 540 
Q 259 540 , 264 540 
Q 269 540 , 274 541 
L 274 541 
Q 267 541 , 263 541 
Q 259 541 , 254 541 
Q 244 541 , 238 541 
Q 233 542 , 233 543 
Q 233 545 , 238 545 
Q 244 546 , 254 546 
Q 259 546 , 262 546 
Q 266 546 , 267 546 
" fill="lightgray" />
<path d="
M 175 529 
L 184 529 
L 184 535 
Q 184 537 , 188 537 
Q 191 538 , 200 538 
Q 209 538 , 212 537 
Q 216 537 , 216 535 
L 216 529 
L 225 529 
L 225 535 
Q 225 537 , 219 538 
Q 212 539 , 200 539 
Q 188 539 , 181 538 
Q 175 537 , 175 535 
L 175 529 
" fill="#D21010" />
<path d="
M 267 538 
L 267 535 
L 253 535 
L 253 534 
L 275 534 
L 275 538 
Q 270 539 , 264 539 
Q 259 539 , 253 539 
Q 240 539 , 233 538 
Q 225 536 , 225 534 
Q 225 532 , 233 530 
Q 240 529 , 253 529 
Q 259 529 , 264 529 
Q 269 529 , 274 530 
L 274 531 
Q 267 531 , 263 530 
Q 259 530 , 254 530 
Q 244 530 , 238 531 
Q 233 532 , 233 534 
Q 233 536 , 238 537 
Q 244 538 , 254 538 
Q 259 538 , 262 538 
Q 266 538 , 267 538 
" fill="lightgray" />
<path d="
M 200 520 
L 191 524 
L 208 524 
L 200 520 
M 196 518 
L 204 518 
L 225 528 
L 217 528 
L 211 525 
L 189 525 
L 182 528 
L 175 528 
L 196 518 
" fill="#339541" />
<path d="
M 225 518 
L 234 518 
L 234 524 
Q 234 526 , 238 527 
Q 241 527 , 250 527 
Q 259 527 , 262 527 
Q 266 526 , 266 524 
L 266 518 
L 275 518 
L 275 524 
Q 275 526 , 269 527 
Q 262 528 , 250 528 
Q 238 528 , 231 527 
Q 225 526 , 225 524 
L 225 518 
" fill="lightgray" />
<path d="
M 217 514 
L 217 509 
L 203 509 
L 203 507 
L 225 507 
L 225 516 
Q 220 517 , 214 517 
Q 209 517 , 203 517 
Q 190 517 , 183 515 
Q 175 512 , 175 507 
Q 175 502 , 183 500 
Q 190 497 , 203 497 
Q 209 497 , 214 497 
Q 219 498 , 224 499 
L 224 501 
Q 217 500 , 213 500 
Q 209 499 , 204 499 
Q 194 499 , 188 501 
Q 183 503 , 183 507 
Q 183 511 , 188 513 
Q 194 515 , 204 515 
Q 209 515 , 212 515 
Q 216 515 , 217 514 
" fill="#F5C000" />
<path d="
M 225 497 
L 234 497 
L 234 509 
Q 234 512 , 238 514 
Q 241 515 , 250 515 
Q 259 515 , 262 514 
Q 266 512 , 266 509 
L 266 497 
L 275 497 
L 275 509 
Q 275 513 , 269 515 
Q 262 517 , 250 517 
Q 238 517 , 231 515 
Q 225 513 , 225 509 
L 225 497 
" fill="lightgray" />
<path d="
M 330 550 
L 312 552 
L 346 552 
L 330 550 
M 323 549 
L 337 549 
L 380 555 
L 364 555 
L 352 553 
L 308 553 
L 295 555 
L 280 555 
L 323 549 
" fill="#339541" />
<path d="
M 380 542 
L 380 543 
Q 365 542 , 357 542 
Q 349 542 , 339 542 
Q 318 542 , 308 542 
Q 296 543 , 296 544 
Q 296 546 , 308 547 
Q 318 547 , 339 547 
Q 349 547 , 357 547 
Q 365 547 , 380 546 
L 380 547 
Q 369 548 , 359 548 
Q 349 548 , 338 548 
Q 311 548 , 296 547 
Q 280 546 , 280 545 
Q 280 543 , 296 542 
Q 311 541 , 338 541 
Q 349 541 , 359 541 
Q 370 541 , 380 542 
" fill="#545FFF" />
<path d="
M 364 536 
L 364 528 
L 335 528 
L 335 524 
L 380 524 
L 380 538 
Q 369 540 , 358 540 
Q 349 541 , 337 541 
Q 311 541 , 295 537 
Q 280 532 , 280 525 
Q 280 517 , 295 513 
Q 311 509 , 337 509 
Q 348 509 , 357 510 
Q 367 510 , 377 512 
L 377 516 
Q 364 514 , 356 513 
Q 347 513 , 338 513 
Q 317 513 , 306 516 
Q 296 519 , 296 525 
Q 296 531 , 306 534 
Q 317 537 , 338 537 
Q 347 537 , 354 537 
Q 361 537 , 364 536 
" fill="#F5C000" />
<path d="
M 280 429 
L 298 429 
L 298 476 
Q 298 489 , 306 494 
Q 313 500 , 330 500 
Q 347 500 , 355 494 
Q 362 489 , 362 476 
L 362 429 
L 380 429 
L 380 477 
Q 380 492 , 367 500 
Q 355 508 , 330 508 
Q 306 508 , 293 500 
Q 280 492 , 280 477 
L 280 429 
" fill="#D21010" />
<path d="
M 485 552 
L 485 553 
Q 470 552 , 462 552 
Q 454 552 , 444 552 
Q 423 552 , 413 553 
Q 401 553 , 401 553 
Q 401 554 , 413 554 
Q 423 554 , 444 554 
Q 454 554 , 462 554 
Q 470 554 , 485 554 
L 485 554 
Q 474 554 , 464 554 
Q 454 554 , 443 554 
Q 416 554 , 401 554 
Q 385 554 , 385 553 
Q 385 553 , 401 552 
Q 416 552 , 443 552 
Q 454 552 , 464 552 
Q 475 552 , 485 552 
" fill="#545FFF" />
<path d="
M 435 549 
L 417 551 
L 451 551 
L 435 549 
M 428 549 
L 442 549 
L 485 552 
L 469 552 
L 457 551 
L 413 551 
L 400 552 
L 385 552 
L 428 549 
" fill="#339541" />
<path d="
M 469 538 
L 469 518 
L 440 518 
L 440 510 
L 485 510 
L 485 543 
Q 474 546 , 463 547 
Q 454 548 , 442 548 
Q 416 548 , 400 538 
Q 385 529 , 385 512 
Q 385 495 , 400 486 
Q 416 476 , 442 476 
Q 453 476 , 462 477 
Q 472 479 , 482 482 
L 482 491 
Q 469 487 , 461 486 
Q 452 485 , 443 485 
Q 422 485 , 411 491 
Q 401 498 , 401 512 
Q 401 526 , 411 533 
Q 422 540 , 443 540 
Q 452 540 , 459 539 
Q 466 539 , 469 538 
" fill="#F5C000" />
<path d="
M 385 401 
L 403 401 
L 403 445 
Q 403 457 , 411 462 
Q 418 467 , 435 467 
Q 452 467 , 460 462 
Q 467 457 , 467 445 
L 467 401 
L 485 401 
L 485 446 
Q 485 460 , 472 468 
Q 460 476 , 435 476 
Q 411 476 , 398 468 
Q 385 460 , 385 446 
L 385 401 
" fill="#D21010" />
<path d="
M 590 551 
L 590 551 
Q 575 551 , 567 551 
Q 559 551 , 549 551 
Q 528 551 , 518 551 
Q 506 552 , 506 552 
Q 506 553 , 518 554 
Q 528 554 , 549 554 
Q 559 554 , 567 554 
Q 575 554 , 590 554 
L 590 554 
Q 579 555 , 569 555 
Q 559 555 , 548 555 
Q 521 555 , 506 554 
Q 490 554 , 490 552 
Q 490 551 , 506 551 
Q 521 550 , 548 550 
Q 559 550 , 569 550 
Q 580 550 , 590 551 
" fill="#545FFF" />
<path d="
M 540 544 
L 522 547 
L 556 547 
L 540 544 
M 533 543 
L 547 543 
L 590 550 
L 574 550 
L 562 548 
L 518 548 
L 505 550 
L 490 550 
L 533 543 
" fill="#339541" />
<path d="
M 574 540 
L 574 534 
L 545 534 
L 545 531 
L 590 531 
L 590 541 
Q 579 542 , 568 542 
Q 559 543 , 547 543 
Q 521 543 , 505 540 
Q 490 537 , 490 532 
Q 490 527 , 505 524 
Q 521 521 , 547 521 
Q 558 521 , 567 521 
Q 577 522 , 587 523 
L 587 526 
Q 574 524 , 566 524 
Q 557 524 , 548 524 
Q 527 524 , 516 526 
Q 506 528 , 506 532 
Q 506 536 , 516 538 
Q 527 540 , 548 540 
Q 557 540 , 564 540 
Q 571 540 , 574 540 
" fill="#F5C000" />
<path d="
M 490 313 
L 508 313 
L 508 435 
Q 508 469 , 516 484 
Q 523 497 , 540 497 
Q 557 497 , 565 484 
Q 572 469 , 572 435 
L 572 313 
L 590 313 
L 590 439 
Q 590 478 , 577 499 
Q 565 520 , 540 520 
Q 516 520 , 503 499 
Q 490 478 , 490 439 
L 490 313 
" fill="#D21010" />
<path d="
M 695 551 
L 695 552 
Q 680 552 , 672 551 
Q 664 551 , 654 551 
Q 633 551 , 623 552 
Q 611 552 , 611 552 
Q 611 553 , 623 554 
Q 633 554 , 654 554 
Q 664 554 , 672 554 
Q 680 554 , 695 553 
L 695 554 
Q 684 554 , 674 554 
Q 664 554 , 653 554 
Q 626 554 , 611 554 
Q 595 553 , 595 553 
Q 595 552 , 611 551 
Q 626 551 , 653 551 
Q 664 551 , 674 551 
Q 685 551 , 695 551 
" fill="#545FFF" />
<path d="
M 679 550 
L 679 548 
L 650 548 
L 650 548 
L 695 548 
L 695 550 
Q 684 550 , 673 550 
Q 664 551 , 652 551 
Q 626 551 , 610 550 
Q 595 549 , 595 548 
Q 595 546 , 610 546 
Q 626 545 , 652 545 
Q 663 545 , 672 545 
Q 682 545 , 692 545 
L 692 546 
Q 679 546 , 671 546 
Q 662 546 , 653 546 
Q 632 546 , 621 546 
Q 611 547 , 611 548 
Q 611 549 , 621 549 
Q 632 550 , 653 550 
Q 662 550 , 669 550 
Q 676 550 , 679 550 
" fill="#F5C000" />
<path d="
M 595 539 
L 613 539 
L 613 542 
Q 613 543 , 621 544 
Q 628 544 , 645 544 
Q 662 544 , 670 544 
Q 677 543 , 677 542 
L 677 539 
L 695 539 
L 695 543 
Q 695 544 , 682 544 
Q 670 545 , 645 545 
Q 621 545 , 608 544 
Q 595 544 , 595 543 
L 595 539 
" fill="#D21010" />
<path d="
M 645 530 
L 627 534 
L 661 534 
L 645 530 
M 638 528 
L 652 528 
L 695 539 
L 679 539 
L 667 536 
L 623 536 
L 610 539 
L 595 539 
L 638 528 
" fill="#339541" />
<path d="
M 800 553 
L 800 553 
Q 785 553 , 777 553 
Q 769 553 , 759 553 
Q 738 553 , 728 553 
Q 716 553 , 716 553 
Q 716 554 , 728 554 
Q 738 554 , 759 554 
Q 769 554 , 777 554 
Q 785 554 , 800 554 
L 800 554 
Q 789 554 , 779 554 
Q 769 554 , 758 554 
Q 731 554 , 716 554 
Q 700 554 , 700 554 
Q 700 553 , 716 553 
Q 731 553 , 758 553 
Q 769 553 , 779 553 
Q 790 553 , 800 553 
" fill="#545FFF" />
<path d="
M 784 552 
L 784 552 
L 755 552 
L 755 552 
L 800 552 
L 800 552 
Q 789 552 , 778 552 
Q 769 552 , 757 552 
Q 731 552 , 715 552 
Q 700 552 , 700 552 
Q 700 551 , 715 551 
Q 731 551 , 757 551 
Q 768 551 , 777 551 
Q 787 551 , 797 551 
L 797 551 
Q 784 551 , 776 551 
Q 767 551 , 758 551 
Q 737 551 , 726 551 
Q 716 551 , 716 552 
Q 716 552 , 726 552 
Q 737 552 , 758 552 
Q 767 552 , 774 552 
Q 781 552 , 784 552 
" fill="#F5C000" />
<path d="
M 750 549 
L 732 550 
L 766 550 
L 750 549 
M 743 549 
L 757 549 
L 800 550 
L 784 550 
L 772 550 
L 728 550 
L 715 550 
L 700 550 
L 743 549 
" fill="#339541" />
<path d="
M 700 547 
L 718 547 
L 718 548 
Q 718 548 , 726 548 
Q 733 549 , 750 549 
Q 767 549 , 775 548 
Q 782 548 , 782 548 
L 782 547 
L 800 547 
L 800 548 
Q 800 548 , 787 549 
Q 775 549 , 750 549 
Q 726 549 , 713 549 
Q 700 548 , 700 548 
L 700 547 
" fill="#D21010" />
<path d="
M 905 550 
L 905 551 
Q 890 551 , 882 551 
Q 874 550 , 864 550 
Q 843 550 , 833 551 
Q 821 551 , 821 552 
Q 821 553 , 833 553 
Q 843 554 , 864 554 
Q 874 554 , 882 554 
Q 890 554 , 905 553 
L 905 554 
Q 894 554 , 884 554 
Q 874 554 , 863 554 
Q 836 554 , 821 554 
Q 805 553 , 805 552 
Q 805 551 , 821 551 
Q 836 550 , 863 550 
Q 874 550 , 884 550 
Q 895 550 , 905 550 
" fill="#545FFF" />
<path d="
M 889 548 
L 889 546 
L 860 546 
L 860 546 
L 905 546 
L 905 549 
Q 894 549 , 883 549 
Q 874 549 , 862 549 
Q 836 549 , 820 548 
Q 805 547 , 805 546 
Q 805 544 , 820 543 
Q 836 542 , 862 542 
Q 873 542 , 882 542 
Q 892 542 , 902 543 
L 902 544 
Q 889 543 , 881 543 
Q 872 543 , 863 543 
Q 842 543 , 831 544 
Q 821 544 , 821 546 
Q 821 547 , 831 548 
Q 842 549 , 863 549 
Q 872 549 , 879 548 
Q 886 548 , 889 548 
" fill="#F5C000" />
<path d="
M 855 533 
L 837 537 
L 871 537 
L 855 533 
M 848 531 
L 862 531 
L 905 541 
L 889 541 
L 877 538 
L 833 538 
L 820 541 
L 805 541 
L 848 531 
" fill="#339541" />
<path d="
M 805 510 
L 823 510 
L 823 522 
Q 823 525 , 831 527 
Q 838 528 , 855 528 
Q 872 528 , 880 527 
Q 887 525 , 887 522 
L 887 510 
L 905 510 
L 905 522 
Q 905 526 , 892 528 
Q 880 530 , 855 530 
Q 831 530 , 818 528 
Q 805 526 , 805 522 
L 805 510 
" fill="#D21010" />
<path d="
M 960 553 
L 942 554 
L 976 554 
L 960 553 
M 953 553 
L 967 553 
L 1010 555 
L 994 555 
L 982 554 
L 938 554 
L 925 555 
L 910 555 
L 953 553 
" fill="#339541" />
<path d="
M 1010 548 
L 1010 549 
Q 995 549 , 987 549 
Q 979 548 , 969 548 
Q 948 548 , 938 549 
Q 926 549 , 926 550 
Q 926 551 , 938 551 
Q 948 552 , 969 552 
Q 979 552 , 987 552 
Q 995 551 , 1010 551 
L 1010 552 
Q 999 552 , 989 552 
Q 979 552 , 968 552 
Q 941 552 , 926 552 
Q 910 551 , 910 550 
Q 910 549 , 926 549 
Q 941 548 , 968 548 
Q 979 548 , 989 548 
Q 1000 548 , 1010 548 
" fill="#545FFF" />
<path d="
M 910 543 
L 928 543 
L 928 546 
Q 928 546 , 936 547 
Q 943 547 , 960 547 
Q 977 547 , 985 547 
Q 992 546 , 992 546 
L 992 543 
L 1010 543 
L 1010 546 
Q 1010 547 , 997 547 
Q 985 547 , 960 547 
Q 936 547 , 923 547 
Q 910 547 , 910 546 
L 910 543 
" fill="#D21010" />
<path d="
M 994 542 
L 994 541 
L 965 541 
L 965 540 
L 1010 540 
L 1010 542 
Q 999 543 , 988 543 
Q 979 543 , 967 543 
Q 941 543 , 925 542 
Q 910 542 , 910 540 
Q 910 539 , 925 539 
Q 941 538 , 967 538 
Q 978 538 , 987 538 
Q 997 538 , 1007 538 
L 1007 539 
Q 994 539 , 986 539 
Q 977 539 , 968 539 
Q 947 539 , 936 539 
Q 926 539 , 926 540 
Q 926 541 , 936 542 
Q 947 542 , 968 542 
Q 977 542 , 984 542 
Q 991 542 , 994 542 
" fill="#F5C000" />
<path d="
M 1065 550 
L 1047 552 
L 1081 552 
L 1065 550 
M 1058 549 
L 1072 549 
L 1115 554 
L 1099 554 
L 1087 553 
L 1043 553 
L 1030 554 
L 1015 554 
L 1058 549 
" fill="#339541" />
<path d="
M 1115 534 
L 1115 536 
Q 1100 535 , 1092 534 
Q 1084 534 , 1074 534 
Q 1053 534 , 1043 535 
Q 1031 537 , 1031 540 
Q 1031 543 , 1043 545 
Q 1053 547 , 1074 547 
Q 1084 547 , 1092 546 
Q 1100 546 , 1115 544 
L 1115 547 
Q 1104 548 , 1094 548 
Q 1084 548 , 1073 548 
Q 1046 548 , 1031 546 
Q 1015 544 , 1015 540 
Q 1015 536 , 1031 534 
Q 1046 532 , 1073 532 
Q 1084 532 , 1094 532 
Q 1105 533 , 1115 534 
" fill="#545FFF" />
<path d="
M 1099 529 
L 1099 524 
L 1070 524 
L 1070 522 
L 1115 522 
L 1115 530 
Q 1104 531 , 1093 531 
Q 1084 532 , 1072 532 
Q 1046 532 , 1030 529 
Q 1015 527 , 1015 522 
Q 1015 518 , 1030 515 
Q 1046 513 , 1072 513 
Q 1083 513 , 1092 513 
Q 1102 514 , 1112 515 
L 1112 517 
Q 1099 516 , 1091 516 
Q 1082 515 , 1073 515 
Q 1052 515 , 1041 517 
Q 1031 519 , 1031 522 
Q 1031 526 , 1041 528 
Q 1052 530 , 1073 530 
Q 1082 530 , 1089 529 
Q 1096 529 , 1099 529 
" fill="#F5C000" />
<path d="
M 1015 423 
L 1033 423 
L 1033 476 
Q 1033 490 , 1041 497 
Q 1048 502 , 1065 502 
Q 1082 502 , 1090 497 
Q 1097 490 , 1097 476 
L 1097 423 
L 1115 423 
L 1115 477 
Q 1115 494 , 1102 503 
Q 1090 512 , 1065 512 
Q 1041 512 , 1028 503 
Q 1015 494 , 1015 477 
L 1015 423 
" fill="#D21010" />
<path d="
M 1220 551 
L 1220 552 
Q 1205 552 , 1197 551 
Q 1189 551 , 1179 551 
Q 1158 551 , 1148 552 
Q 1136 552 , 1136 553 
Q 1136 554 , 1148 554 
Q 1158 554 , 1179 554 
Q 1189 554 , 1197 554 
Q 1205 554 , 1220 554 
L 1220 554 
Q 1209 554 , 1199 555 
Q 1189 555 , 1178 555 
Q 1151 555 , 1136 554 
Q 1120 554 , 1120 553 
Q 1120 552 , 1136 551 
Q 1151 551 , 1178 551 
Q 1189 551 , 1199 551 
Q 1210 551 , 1220 551 
" fill="#545FFF" />
<path d="
M 1204 548 
L 1204 544 
L 1175 544 
L 1175 543 
L 1220 543 
L 1220 550 
Q 1209 550 , 1198 550 
Q 1189 551 , 1177 551 
Q 1151 551 , 1135 549 
Q 1120 547 , 1120 543 
Q 1120 539 , 1135 537 
Q 1151 535 , 1177 535 
Q 1188 535 , 1197 535 
Q 1207 536 , 1217 536 
L 1217 538 
Q 1204 537 , 1196 537 
Q 1187 537 , 1178 537 
Q 1157 537 , 1146 538 
Q 1136 540 , 1136 543 
Q 1136 546 , 1146 547 
Q 1157 549 , 1178 549 
Q 1187 549 , 1194 549 
Q 1201 549 , 1204 548 
" fill="#F5C000" />
<path d="
M 1170 522 
L 1152 528 
L 1186 528 
L 1170 522 
M 1163 519 
L 1177 519 
L 1220 535 
L 1204 535 
L 1192 530 
L 1148 530 
L 1135 535 
L 1120 535 
L 1163 519 
" fill="#339541" />
<path d="
M 1120 471 
L 1138 471 
L 1138 499 
Q 1138 507 , 1146 510 
Q 1153 513 , 1170 513 
Q 1187 513 , 1195 510 
Q 1202 507 , 1202 499 
L 1202 471 
L 1220 471 
L 1220 500 
Q 1220 509 , 1207 514 
Q 1195 518 , 1170 518 
Q 1146 518 , 1133 514 
Q 1120 509 , 1120 500 
L 1120 471 
" fill="#D21010" />
<path d="
M 1267 555 
L 1267 554 
L 1253 554 
L 1253 554 
L 1275 554 
L 1275 555 
Q 1270 555 , 1264 555 
Q 1259 555 , 1253 555 
Q 1240 555 , 1233 555 
Q 1225 554 , 1225 554 
Q 1225 553 , 1233 553 
Q 1240 553 , 1253 553 
Q 1259 553 , 1264 553 
Q 1269 553 , 1274 553 
L 1274 553 
Q 1267 553 , 1263 553 
Q 1259 553 , 1254 553 
Q 1244 553 , 1238 553 
Q 1233 554 , 1233 554 
Q 1233 554 , 1238 554 
Q 1244 555 , 1254 555 
Q 1259 555 , 1262 555 
Q 1266 555 , 1267 555 
" fill="lightgray" />
<path d="
M 1325 553 
L 1325 553 
Q 1318 553 , 1314 553 
Q 1309 553 , 1304 553 
Q 1294 553 , 1289 553 
Q 1283 554 , 1283 554 
Q 1283 554 , 1289 554 
Q 1294 555 , 1304 555 
Q 1309 555 , 1314 555 
Q 1318 555 , 1325 554 
L 1325 555 
Q 1320 555 , 1314 555 
Q 1310 555 , 1304 555 
Q 1290 555 , 1283 555 
Q 1275 554 , 1275 554 
Q 1275 553 , 1283 553 
Q 1290 553 , 1304 553 
Q 1310 553 , 1315 553 
Q 1320 553 , 1325 553 
" fill="#545FFF" />
<path d="
M 1225 547 
L 1234 547 
L 1234 550 
Q 1234 551 , 1238 551 
Q 1241 552 , 1250 552 
Q 1259 552 , 1262 551 
Q 1266 551 , 1266 550 
L 1266 547 
L 1275 547 
L 1275 550 
Q 1275 551 , 1269 552 
Q 1262 552 , 1250 552 
Q 1238 552 , 1231 552 
Q 1225 551 , 1225 550 
L 1225 547 
" fill="lightgray" />
<path d="
M 1300 548 
L 1291 550 
L 1308 550 
L 1300 548 
M 1296 547 
L 1304 547 
L 1325 552 
L 1317 552 
L 1311 551 
L 1289 551 
L 1282 552 
L 1275 552 
L 1296 547 
" fill="#339541" />
<path d="
M 1275 541 
L 1275 542 
Q 1268 541 , 1264 541 
Q 1259 541 , 1254 541 
Q 1244 541 , 1239 541 
Q 1233 542 , 1233 543 
Q 1233 545 , 1239 545 
Q 1244 546 , 1254 546 
Q 1259 546 , 1264 546 
Q 1268 546 , 1275 545 
L 1275 546 
Q 1270 547 , 1264 547 
Q 1260 547 , 1254 547 
Q 1240 547 , 1233 546 
Q 1225 545 , 1225 543 
Q 1225 542 , 1233 541 
Q 1240 540 , 1254 540 
Q 1260 540 , 1265 540 
Q 1270 540 , 1275 541 
" fill="lightgray" />
<path d="
M 1317 546 
L 1317 544 
L 1303 544 
L 1303 543 
L 1325 543 
L 1325 546 
Q 1320 547 , 1314 547 
Q 1309 547 , 1303 547 
Q 1290 547 , 1283 546 
Q 1275 545 , 1275 543 
Q 1275 542 , 1283 541 
Q 1290 540 , 1303 540 
Q 1309 540 , 1314 540 
Q 1319 540 , 1324 541 
L 1324 541 
Q 1317 541 , 1313 541 
Q 1309 541 , 1304 541 
Q 1294 541 , 1288 541 
Q 1283 542 , 1283 543 
Q 1283 545 , 1288 545 
Q 1294 546 , 1304 546 
Q 1309 546 , 1312 546 
Q 1316 546 , 1317 546 
" fill="#F5C000" />
<path d="
M 1225 529 
L 1234 529 
L 1234 535 
Q 1234 537 , 1238 537 
Q 1241 538 , 1250 538 
Q 1259 538 , 1262 537 
Q 1266 537 , 1266 535 
L 1266 529 
L 1275 529 
L 1275 535 
Q 1275 537 , 1269 538 
Q 1262 539 , 1250 539 
Q 1238 539 , 1231 538 
Q 1225 537 , 1225 535 
L 1225 529 
" fill="lightgray" />
<path d="
M 1317 538 
L 1317 535 
L 1303 535 
L 1303 534 
L 1325 534 
L 1325 538 
Q 1320 539 , 1314 539 
Q 1309 539 , 1303 539 
Q 1290 539 , 1283 538 
Q 1275 536 , 1275 534 
Q 1275 532 , 1283 530 
Q 1290 529 , 1303 529 
Q 1309 529 , 1314 529 
Q 1319 529 , 1324 530 
L 1324 531 
Q 1317 531 , 1313 530 
Q 1309 530 , 1304 530 
Q 1294 530 , 1288 531 
Q 1283 532 , 1283 534 
Q 1283 536 , 1288 537 
Q 1294 538 , 1304 538 
Q 1309 538 , 1312 538 
Q 1316 538 , 1317 538 
" fill="#F5C000" />
<path d="
M 1250 520 
L 1241 524 
L 1258 524 
L 1250 520 
M 1246 518 
L 1254 518 
L 1275 528 
L 1267 528 
L 1261 525 
L 1239 525 
L 1232 528 
L 1225 528 
L 1246 518 
" fill="lightgray" />
<path d="
M 1275 518 
L 1284 518 
L 1284 524 
Q 1284 526 , 1288 527 
Q 1291 527 , 1300 527 
Q 1309 527 , 1312 527 
Q 1316 526 , 1316 524 
L 1316 518 
L 1325 518 
L 1325 524 
Q 1325 526 , 1319 527 
Q 1312 528 , 1300 528 
Q 1288 528 , 1281 527 
Q 1275 526 , 1275 524 
L 1275 518 
" fill="#D21010" />
<path d="
M 1267 514 
L 1267 509 
L 1253 509 
L 1253 507 
L 1275 507 
L 1275 516 
Q 1270 517 , 1264 517 
Q 1259 517 , 1253 517 
Q 1240 517 , 1233 515 
Q 1225 512 , 1225 507 
Q 1225 502 , 1233 500 
Q 1240 497 , 1253 497 
Q 1259 497 , 1264 497 
Q 1269 498 , 1274 499 
L 1274 501 
Q 1267 500 , 1263 500 
Q 1259 499 , 1254 499 
Q 1244 499 , 1238 501 
Q 1233 503 , 1233 507 
Q 1233 511 , 1238 513 
Q 1244 515 , 1254 515 
Q 1259 515 , 1262 515 
Q 1266 515 , 1267 514 
" fill="lightgray" />
<path d="
M 1275 497 
L 1284 497 
L 1284 509 
Q 1284 512 , 1288 514 
Q 1291 515 , 1300 515 
Q 1309 515 , 1312 514 
Q 1316 512 , 1316 509 
L 1316 497 
L 1325 497 
L 1325 509 
Q 1325 513 , 1319 515 
Q 1312 517 , 1300 517 
Q 1288 517 , 1281 515 
Q 1275 513 , 1275 509 
L 1275 497 
" fill="#D21010" />
<path d="
M 1430 553 
L 1430 553 
Q 1415 553 , 1407 553 
Q 1399 553 , 1389 553 
Q 1368 553 , 1358 553 
Q 1346 553 , 1346 553 
Q 1346 554 , 1358 554 
Q 1368 554 , 1389 554 
Q 1399 554 , 1407 554 
Q 1415 554 , 1430 554 
L 1430 554 
Q 1419 554 , 1409 554 
Q 1399 554 , 1388 554 
Q 1361 554 , 1346 554 
Q 1330 554 , 1330 554 
Q 1330 553 , 1346 553 
Q 1361 553 , 1388 553 
Q 1399 553 , 1409 553 
Q 1420 553 , 1430 553 
" fill="#545FFF" />
<path d="
M 1414 552 
L 1414 552 
L 1385 552 
L 1385 552 
L 1430 552 
L 1430 552 
Q 1419 552 , 1408 552 
Q 1399 552 , 1387 552 
Q 1361 552 , 1345 552 
Q 1330 552 , 1330 552 
Q 1330 551 , 1345 551 
Q 1361 551 , 1387 551 
Q 1398 551 , 1407 551 
Q 1417 551 , 1427 551 
L 1427 551 
Q 1414 551 , 1406 551 
Q 1397 551 , 1388 551 
Q 1367 551 , 1356 551 
Q 1346 551 , 1346 552 
Q 1346 552 , 1356 552 
Q 1367 552 , 1388 552 
Q 1397 552 , 1404 552 
Q 1411 552 , 1414 552 
" fill="#F5C000" />
<path d="
M 1380 549 
L 1362 550 
L 1396 550 
L 1380 549 
M 1373 549 
L 1387 549 
L 1430 550 
L 1414 550 
L 1402 550 
L 1358 550 
L 1345 550 
L 1330 550 
L 1373 549 
" fill="#339541" />
<path d="
M 1330 547 
L 1348 547 
L 1348 548 
Q 1348 548 , 1356 548 
Q 1363 549 , 1380 549 
Q 1397 549 , 1405 548 
Q 1412 548 , 1412 548 
L 1412 547 
L 1430 547 
L 1430 548 
Q 1430 548 , 1417 549 
Q 1405 549 , 1380 549 
Q 1356 549 , 1343 549 
Q 1330 548 , 1330 548 
L 1330 547 
" fill="#D21010" />
<path d="M 65 168 L 65 555 " stroke="black" stroke-width="1.5"/>
<path d="M 55 555 L 65 555 " stroke="black" stroke-width="4"/>
<text text-anchor="end" x="50" y="555" font-size="50" alignment-baseline="middle">0</text>
<path d="M 55 362 L 65 362 " stroke="black" stroke-width="4"/>
<text text-anchor="end" x="50" y="362" font-size="50" alignment-baseline="middle">1</text>
<path d="M 55 168 L 65 168 " stroke="black" stroke-width="4"/>
<text text-anchor="end" x="50" y="168" font-size="50" alignment-baseline="middle">2</text>
<text text-anchor="middle" x="750" y="50" font-size="50" alignment-baseline="baseline"></text>
G<path d="
M 160 582 
L 126 595 
L 160 608 
L 157 611 
L 123 598 
L 123 623 
L 117 623 
L 117 599 
L 83 611 
L 80 608 
L 114 595 
L 80 582 
L 83 579 
L 117 591 
L 117 567 
L 123 567 
L 123 591 
L 157 579 
L 160 582 
" fill="black" />
<path d="
M 265 567 
Q 236 574 , 223 581 
Q 210 588 , 210 595 
Q 210 602 , 223 609 
Q 236 616 , 265 623 
L 241 623 
Q 213 616 , 199 609 
Q 185 602 , 185 595 
Q 185 588 , 199 581 
Q 213 574 , 241 567 
L 265 567 
" fill="black" />
<path d="
" fill="black" />
<path d="
M 316 567 
L 343 567 
L 343 623 
L 316 623 
L 316 567 
" fill="black" />
<path d="
" fill="black" />
<path d="
" fill="black" />
<path d="
M 421 567 
L 448 567 
L 448 623 
L 421 623 
L 421 567 
" fill="black" />
<path d="
" fill="black" />
<path d="
" fill="black" />
<path d="
M 526 567 
L 553 567 
L 553 623 
L 526 623 
L 526 567 
" fill="black" />
<path d="
" fill="black" />
<path d="
" fill="black" />
<path d="
M 622 567 
L 642 567 
L 642 623 
L 622 623 
L 622 567 
" fill="black" />
<path d="
" fill="black" />
<path d="
M 687 595 
Q 686 591 , 682 591 
Q 679 591 , 677 595 
Q 675 599 , 675 605 
Q 675 612 , 677 615 
Q 679 619 , 682 619 
Q 686 619 , 687 615 
Q 689 612 , 689 605 
Q 689 599 , 687 595 
M 690 569 
L 690 574 
Q 689 572 , 687 571 
Q 686 571 , 684 571 
Q 678 571 , 676 581 
Q 675 586 , 675 595 
Q 675 593 , 677 590 
Q 679 587 , 682 587 
Q 687 587 , 689 592 
Q 692 597 , 692 604 
Q 692 613 , 689 618 
Q 687 623 , 682 623 
Q 677 623 , 675 616 
Q 672 609 , 672 595 
Q 672 581 , 675 574 
Q 679 567 , 684 567 
Q 686 567 , 687 568 
Q 689 568 , 690 569 
" fill="black" />
<path d="
M 790 582 
L 756 595 
L 790 608 
L 787 611 
L 753 598 
L 753 623 
L 747 623 
L 747 599 
L 713 611 
L 710 608 
L 744 595 
L 710 582 
L 713 579 
L 747 591 
L 747 567 
L 753 567 
L 753 591 
L 787 579 
L 790 582 
" fill="black" />
<path d="
" fill="black" />
<path d="
M 841 567 
L 868 567 
L 868 623 
L 841 623 
L 841 567 
" fill="black" />
<path d="
" fill="black" />
<path d="
" fill="black" />
<path d="
M 946 567 
L 973 567 
L 973 623 
L 946 623 
L 946 567 
" fill="black" />
<path d="
" fill="black" />
<path d="
" fill="black" />
<path d="
M 1051 567 
L 1078 567 
L 1078 623 
L 1051 623 
L 1051 567 
" fill="black" />
<path d="
" fill="black" />
<path d="
" fill="black" />
<path d="
M 1156 567 
L 1183 567 
L 1183 623 
L 1156 623 
L 1156 567 
" fill="black" />
<path d="
" fill="black" />
<path d="
M 1235 567 
L 1259 567 
Q 1287 574 , 1301 581 
Q 1315 588 , 1315 595 
Q 1315 602 , 1301 609 
Q 1287 616 , 1259 623 
L 1235 623 
Q 1264 616 , 1277 609 
Q 1290 602 , 1290 595 
Q 1290 588 , 1277 581 
Q 1264 574 , 1235 567 
" fill="black" />
<path d="
M 1420 582 
L 1386 595 
L 1420 608 
L 1417 611 
L 1383 598 
L 1383 623 
L 1377 623 
L 1377 599 
L 1343 611 
L 1340 608 
L 1374 595 
L 1340 582 
L 1343 579 
L 1377 591 
L 1377 567 
L 1383 567 
L 1383 591 
L 1417 579 
L 1420 582 
" fill="black" />
</svg>
