<svg xmlns="http://www.w3.org/2000/svg"
viewBox="0 0 1330 635">
<path d="
M 120 554 
L 102 554 
L 136 554 
L 120 554 
M 113 554 
L 127 554 
L 170 554 
L 154 554 
L 142 554 
L 98 554 
L 85 554 
L 70 554 
L 113 554 
" fill="#339541" />
<path d="
M 70 553 
L 88 553 
L 88 553 
Q 88 553 , 96 553 
Q 103 553 , 120 553 
Q 137 553 , 145 553 
Q 152 553 , 152 553 
L 152 553 
L 170 553 
L 170 553 
Q 170 553 , 157 553 
Q 145 553 , 120 553 
Q 96 553 , 83 553 
Q 70 553 , 70 553 
L 70 553 
" fill="#D21010" />
<path d="
M 170 552 
L 170 552 
Q 155 552 , 147 552 
Q 139 552 , 129 552 
Q 108 552 , 98 552 
Q 86 552 , 86 552 
Q 86 552 , 98 552 
Q 108 552 , 129 552 
Q 139 552 , 147 552 
Q 155 552 , 170 552 
L 170 552 
Q 159 552 , 149 553 
Q 139 553 , 128 553 
Q 101 553 , 86 552 
Q 70 552 , 70 552 
Q 70 552 , 86 552 
Q 101 552 , 128 552 
Q 139 552 , 149 552 
Q 160 552 , 170 552 
" fill="#545FFF" />
<path d="
M 154 552 
L 154 551 
L 125 551 
L 125 551 
L 170 551 
L 170 552 
Q 159 552 , 148 552 
Q 139 552 , 127 552 
Q 101 552 , 85 552 
Q 70 551 , 70 551 
Q 70 551 , 85 551 
Q 101 551 , 127 551 
Q 138 551 , 147 551 
Q 157 551 , 167 551 
L 167 551 
Q 154 551 , 146 551 
Q 137 551 , 128 551 
Q 107 551 , 96 551 
Q 86 551 , 86 551 
Q 86 551 , 96 551 
Q 107 552 , 128 552 
Q 137 552 , 144 552 
Q 151 552 , 154 552 
" fill="#F5C000" />
<path d="
M 259 554 
L 259 553 
L 230 553 
L 230 553 
L 275 553 
L 275 554 
Q 264 554 , 253 554 
Q 244 555 , 232 555 
Q 206 555 , 190 554 
Q 175 554 , 175 553 
Q 175 552 , 190 551 
Q 206 551 , 232 551 
Q 243 551 , 252 551 
Q 262 551 , 272 551 
L 272 552 
Q 259 552 , 251 551 
Q 242 551 , 233 551 
Q 212 551 , 201 552 
Q 191 552 , 191 553 
Q 191 553 , 201 554 
Q 212 554 , 233 554 
Q 242 554 , 249 554 
Q 256 554 , 259 554 
" fill="#F5C000" />
<path d="
M 225 547 
L 207 549 
L 241 549 
L 225 547 
M 218 546 
L 232 546 
L 275 551 
L 259 551 
L 247 550 
L 203 550 
L 190 551 
L 175 551 
L 218 546 
" fill="#339541" />
<path d="
M 275 541 
L 275 541 
Q 260 541 , 252 541 
Q 244 541 , 234 541 
Q 213 541 , 203 541 
Q 191 542 , 191 543 
Q 191 544 , 203 544 
Q 213 545 , 234 545 
Q 244 545 , 252 545 
Q 260 544 , 275 544 
L 275 545 
Q 264 545 , 254 545 
Q 244 545 , 233 545 
Q 206 545 , 191 545 
Q 175 544 , 175 543 
Q 175 541 , 191 541 
Q 206 540 , 233 540 
Q 244 540 , 254 540 
Q 265 540 , 275 541 
" fill="#545FFF" />
<path d="
M 175 530 
L 193 530 
L 193 535 
Q 193 537 , 201 538 
Q 208 538 , 225 538 
Q 242 538 , 250 538 
Q 257 537 , 257 535 
L 257 530 
L 275 530 
L 275 536 
Q 275 537 , 262 538 
Q 250 539 , 225 539 
Q 201 539 , 188 538 
Q 175 537 , 175 536 
L 175 530 
" fill="#D21010" />
<path d="
M 330 552 
L 312 553 
L 346 553 
L 330 552 
M 323 551 
L 337 551 
L 380 555 
L 364 555 
L 352 554 
L 308 554 
L 295 555 
L 280 555 
L 323 551 
" fill="#339541" />
<path d="
M 280 536 
L 298 536 
L 298 545 
Q 298 547 , 306 548 
Q 313 549 , 330 549 
Q 347 549 , 355 548 
Q 362 547 , 362 545 
L 362 536 
L 380 536 
L 380 545 
Q 380 548 , 367 549 
Q 355 551 , 330 551 
Q 306 551 , 293 549 
Q 280 548 , 280 545 
L 280 536 
" fill="#D21010" />
<path d="
M 380 504 
L 380 509 
Q 365 506 , 357 505 
Q 349 504 , 339 504 
Q 318 504 , 308 507 
Q 296 511 , 296 517 
Q 296 524 , 308 528 
Q 318 531 , 339 531 
Q 349 531 , 357 530 
Q 365 529 , 380 526 
L 380 532 
Q 369 533 , 359 534 
Q 349 535 , 338 535 
Q 311 535 , 296 530 
Q 280 526 , 280 518 
Q 280 509 , 296 505 
Q 311 500 , 338 500 
Q 349 500 , 359 501 
Q 370 502 , 380 504 
" fill="#545FFF" />
<path d="
M 364 490 
L 364 472 
L 335 472 
L 335 465 
L 380 465 
L 380 494 
Q 369 497 , 358 498 
Q 349 499 , 337 499 
Q 311 499 , 295 490 
Q 280 482 , 280 466 
Q 280 451 , 295 442 
Q 311 433 , 337 433 
Q 348 433 , 357 434 
Q 367 435 , 377 438 
L 377 447 
Q 364 443 , 356 442 
Q 347 441 , 338 441 
Q 317 441 , 306 447 
Q 296 453 , 296 466 
Q 296 479 , 306 486 
Q 317 492 , 338 492 
Q 347 492 , 354 491 
Q 361 491 , 364 490 
" fill="#F5C000" />
<path d="
M 385 546 
L 403 546 
L 403 551 
Q 403 552 , 411 553 
Q 418 553 , 435 553 
Q 452 553 , 460 553 
Q 467 552 , 467 551 
L 467 546 
L 485 546 
L 485 551 
Q 485 553 , 472 554 
Q 460 554 , 435 554 
Q 411 554 , 398 554 
Q 385 553 , 385 551 
L 385 546 
" fill="#D21010" />
<path d="
M 435 539 
L 417 542 
L 451 542 
L 435 539 
M 428 537 
L 442 537 
L 485 546 
L 469 546 
L 457 543 
L 413 543 
L 400 546 
L 385 546 
L 428 537 
" fill="#339541" />
<path d="
M 485 502 
L 485 508 
Q 470 504 , 462 503 
Q 454 502 , 444 502 
Q 423 502 , 413 506 
Q 401 510 , 401 517 
Q 401 525 , 413 528 
Q 423 532 , 444 532 
Q 454 532 , 462 531 
Q 470 530 , 485 526 
L 485 532 
Q 474 534 , 464 535 
Q 454 536 , 443 536 
Q 416 536 , 401 531 
Q 385 526 , 385 517 
Q 385 508 , 401 503 
Q 416 498 , 443 498 
Q 454 498 , 464 499 
Q 475 500 , 485 502 
" fill="#545FFF" />
<path d="
M 469 486 
L 469 463 
L 440 463 
L 440 454 
L 485 454 
L 485 491 
Q 474 495 , 463 496 
Q 454 498 , 442 498 
Q 416 498 , 400 486 
Q 385 475 , 385 456 
Q 385 436 , 400 425 
Q 416 414 , 442 414 
Q 453 414 , 462 415 
Q 472 417 , 482 421 
L 482 431 
Q 469 427 , 461 425 
Q 452 424 , 443 424 
Q 422 424 , 411 432 
Q 401 440 , 401 456 
Q 401 472 , 411 480 
Q 422 488 , 443 488 
Q 452 488 , 459 488 
Q 466 487 , 469 486 
" fill="#F5C000" />
<path d="
M 540 552 
L 522 553 
L 556 553 
L 540 552 
M 533 551 
L 547 551 
L 590 554 
L 574 554 
L 562 553 
L 518 553 
L 505 554 
L 490 554 
L 533 551 
" fill="#339541" />
<path d="
M 574 550 
L 574 548 
L 545 548 
L 545 547 
L 590 547 
L 590 550 
Q 579 551 , 568 551 
Q 559 551 , 547 551 
Q 521 551 , 505 550 
Q 490 549 , 490 547 
Q 490 546 , 505 545 
Q 521 544 , 547 544 
Q 558 544 , 567 544 
Q 577 544 , 587 545 
L 587 545 
Q 574 545 , 566 545 
Q 557 545 , 548 545 
Q 527 545 , 516 545 
Q 506 546 , 506 547 
Q 506 549 , 516 549 
Q 527 550 , 548 550 
Q 557 550 , 564 550 
Q 571 550 , 574 550 
" fill="#F5C000" />
<path d="
M 490 533 
L 508 533 
L 508 539 
Q 508 541 , 516 542 
Q 523 542 , 540 542 
Q 557 542 , 565 542 
Q 572 541 , 572 539 
L 572 533 
L 590 533 
L 590 539 
Q 590 541 , 577 542 
Q 565 543 , 540 543 
Q 516 543 , 503 542 
Q 490 541 , 490 539 
L 490 533 
" fill="#D21010" />
<path d="
M 590 521 
L 590 523 
Q 575 522 , 567 522 
Q 559 521 , 549 521 
Q 528 521 , 518 523 
Q 506 524 , 506 526 
Q 506 528 , 518 530 
Q 528 531 , 549 531 
Q 559 531 , 567 531 
Q 575 530 , 590 529 
L 590 531 
Q 579 532 , 569 532 
Q 559 532 , 548 532 
Q 521 532 , 506 531 
Q 490 529 , 490 526 
Q 490 523 , 506 522 
Q 521 520 , 548 520 
Q 559 520 , 569 520 
Q 580 521 , 590 521 
" fill="#545FFF" />
<path d="
M 645 551 
L 627 552 
L 661 552 
L 645 551 
M 638 550 
L 652 550 
L 695 554 
L 679 554 
L 667 553 
L 623 553 
L 610 554 
L 595 554 
L 638 550 
" fill="#339541" />
<path d="
M 595 535 
L 613 535 
L 613 543 
Q 613 546 , 621 547 
Q 628 548 , 645 548 
Q 662 548 , 670 547 
Q 677 546 , 677 543 
L 677 535 
L 695 535 
L 695 544 
Q 695 546 , 682 548 
Q 670 549 , 645 549 
Q 621 549 , 608 548 
Q 595 546 , 595 544 
L 595 535 
" fill="#D21010" />
<path d="
M 695 510 
L 695 514 
Q 680 511 , 672 511 
Q 664 510 , 654 510 
Q 633 510 , 623 513 
Q 611 516 , 611 521 
Q 611 526 , 623 529 
Q 633 532 , 654 532 
Q 664 532 , 672 531 
Q 680 530 , 695 528 
L 695 532 
Q 684 534 , 674 534 
Q 664 535 , 653 535 
Q 626 535 , 611 531 
Q 595 527 , 595 521 
Q 595 515 , 611 511 
Q 626 507 , 653 507 
Q 664 507 , 674 508 
Q 685 508 , 695 510 
" fill="#545FFF" />
<path d="
M 679 499 
L 679 486 
L 650 486 
L 650 481 
L 695 481 
L 695 503 
Q 684 505 , 673 506 
Q 664 506 , 652 506 
Q 626 506 , 610 500 
Q 595 493 , 595 482 
Q 595 470 , 610 464 
Q 626 457 , 652 457 
Q 663 457 , 672 458 
Q 682 459 , 692 461 
L 692 467 
Q 679 465 , 671 464 
Q 662 463 , 653 463 
Q 632 463 , 621 468 
Q 611 472 , 611 482 
Q 611 491 , 621 496 
Q 632 501 , 653 501 
Q 662 501 , 669 500 
Q 676 500 , 679 499 
" fill="#F5C000" />
<path d="
M 750 552 
L 732 553 
L 766 553 
L 750 552 
M 743 551 
L 757 551 
L 800 555 
L 784 555 
L 772 554 
L 728 554 
L 715 555 
L 700 555 
L 743 551 
" fill="#339541" />
<path d="
M 700 543 
L 718 543 
L 718 547 
Q 718 548 , 726 549 
Q 733 549 , 750 549 
Q 767 549 , 775 549 
Q 782 548 , 782 547 
L 782 543 
L 800 543 
L 800 547 
Q 800 549 , 787 549 
Q 775 550 , 750 550 
Q 726 550 , 713 549 
Q 700 549 , 700 547 
L 700 543 
" fill="#D21010" />
<path d="
M 800 532 
L 800 534 
Q 785 533 , 777 533 
Q 769 532 , 759 532 
Q 738 532 , 728 533 
Q 716 535 , 716 537 
Q 716 539 , 728 540 
Q 738 541 , 759 541 
Q 769 541 , 777 541 
Q 785 541 , 800 540 
L 800 541 
Q 789 542 , 779 542 
Q 769 543 , 758 543 
Q 731 543 , 716 541 
Q 700 539 , 700 537 
Q 700 534 , 716 533 
Q 731 531 , 758 531 
Q 769 531 , 779 531 
Q 790 532 , 800 532 
" fill="#545FFF" />
<path d="
M 784 528 
L 784 525 
L 755 525 
L 755 523 
L 800 523 
L 800 529 
Q 789 530 , 778 530 
Q 769 530 , 757 530 
Q 731 530 , 715 528 
Q 700 527 , 700 524 
Q 700 521 , 715 519 
Q 731 517 , 757 517 
Q 768 517 , 777 517 
Q 787 517 , 797 518 
L 797 520 
Q 784 519 , 776 519 
Q 767 519 , 758 519 
Q 737 519 , 726 520 
Q 716 521 , 716 524 
Q 716 526 , 726 527 
Q 737 529 , 758 529 
Q 767 529 , 774 529 
Q 781 528 , 784 528 
" fill="#F5C000" />
<path d="
M 855 552 
L 837 553 
L 871 553 
L 855 552 
M 848 551 
L 862 551 
L 905 554 
L 889 554 
L 877 553 
L 833 553 
L 820 554 
L 805 554 
L 848 551 
" fill="#339541" />
<path d="
M 889 549 
L 889 545 
L 860 545 
L 860 543 
L 905 543 
L 905 550 
Q 894 550 , 883 550 
Q 874 551 , 862 551 
Q 836 551 , 820 549 
Q 805 547 , 805 544 
Q 805 541 , 820 539 
Q 836 537 , 862 537 
Q 873 537 , 882 537 
Q 892 537 , 902 538 
L 902 540 
Q 889 539 , 881 539 
Q 872 539 , 863 539 
Q 842 539 , 831 540 
Q 821 541 , 821 544 
Q 821 546 , 831 548 
Q 842 549 , 863 549 
Q 872 549 , 879 549 
Q 886 549 , 889 549 
" fill="#F5C000" />
<path d="
M 805 508 
L 823 508 
L 823 525 
Q 823 529 , 831 531 
Q 838 533 , 855 533 
Q 872 533 , 880 531 
Q 887 529 , 887 525 
L 887 508 
L 905 508 
L 905 525 
Q 905 530 , 892 533 
Q 880 536 , 855 536 
Q 831 536 , 818 533 
Q 805 530 , 805 525 
L 805 508 
" fill="#D21010" />
<path d="
M 905 481 
L 905 486 
Q 890 483 , 882 482 
Q 874 481 , 864 481 
Q 843 481 , 833 484 
Q 821 487 , 821 492 
Q 821 498 , 833 501 
Q 843 504 , 864 504 
Q 874 504 , 882 503 
Q 890 502 , 905 500 
L 905 504 
Q 894 506 , 884 506 
Q 874 507 , 863 507 
Q 836 507 , 821 503 
Q 805 499 , 805 493 
Q 805 486 , 821 482 
Q 836 478 , 863 478 
Q 874 478 , 884 479 
Q 895 479 , 905 481 
" fill="#545FFF" />
<path d="
M 960 551 
L 942 553 
L 976 553 
L 960 551 
M 953 550 
L 967 550 
L 1010 555 
L 994 555 
L 982 553 
L 938 553 
L 925 555 
L 910 555 
L 953 550 
" fill="#339541" />
<path d="
M 910 537 
L 928 537 
L 928 544 
Q 928 546 , 936 547 
Q 943 548 , 960 548 
Q 977 548 , 985 547 
Q 992 546 , 992 544 
L 992 537 
L 1010 537 
L 1010 544 
Q 1010 547 , 997 548 
Q 985 549 , 960 549 
Q 936 549 , 923 548 
Q 910 547 , 910 544 
L 910 537 
" fill="#D21010" />
<path d="
M 1010 499 
L 1010 506 
Q 995 502 , 987 501 
Q 979 500 , 969 500 
Q 948 500 , 938 504 
Q 926 508 , 926 516 
Q 926 524 , 938 528 
Q 948 532 , 969 532 
Q 979 532 , 987 531 
Q 995 530 , 1010 526 
L 1010 532 
Q 999 534 , 989 535 
Q 979 536 , 968 536 
Q 941 536 , 926 531 
Q 910 525 , 910 516 
Q 910 506 , 926 501 
Q 941 495 , 968 495 
Q 979 495 , 989 496 
Q 1000 497 , 1010 499 
" fill="#545FFF" />
<path d="
M 994 482 
L 994 459 
L 965 459 
L 965 449 
L 1010 449 
L 1010 488 
Q 999 492 , 988 493 
Q 979 494 , 967 495 
Q 941 495 , 925 483 
Q 910 472 , 910 451 
Q 910 431 , 925 420 
Q 941 408 , 967 408 
Q 978 408 , 987 409 
Q 997 411 , 1007 415 
L 1007 426 
Q 994 421 , 986 420 
Q 977 418 , 968 418 
Q 947 418 , 936 426 
Q 926 435 , 926 451 
Q 926 468 , 936 477 
Q 947 485 , 968 485 
Q 977 485 , 984 484 
Q 991 483 , 994 482 
" fill="#F5C000" />
<path d="
M 1065 548 
L 1047 551 
L 1081 551 
L 1065 548 
M 1058 546 
L 1072 546 
L 1115 554 
L 1099 554 
L 1087 552 
L 1043 552 
L 1030 554 
L 1015 554 
L 1058 546 
" fill="#339541" />
<path d="
M 1015 528 
L 1033 528 
L 1033 538 
Q 1033 541 , 1041 542 
Q 1048 543 , 1065 543 
Q 1082 543 , 1090 542 
Q 1097 541 , 1097 538 
L 1097 528 
L 1115 528 
L 1115 538 
Q 1115 542 , 1102 543 
Q 1090 545 , 1065 545 
Q 1041 545 , 1028 543 
Q 1015 542 , 1015 538 
L 1015 528 
" fill="#D21010" />
<path d="
M 1115 508 
L 1115 512 
Q 1100 509 , 1092 509 
Q 1084 508 , 1074 508 
Q 1053 508 , 1043 510 
Q 1031 513 , 1031 517 
Q 1031 521 , 1043 523 
Q 1053 525 , 1074 525 
Q 1084 525 , 1092 525 
Q 1100 524 , 1115 522 
L 1115 525 
Q 1104 526 , 1094 527 
Q 1084 527 , 1073 527 
Q 1046 527 , 1031 525 
Q 1015 522 , 1015 517 
Q 1015 512 , 1031 509 
Q 1046 506 , 1073 506 
Q 1084 506 , 1094 507 
Q 1105 507 , 1115 508 
" fill="#545FFF" />
<path d="
M 1099 494 
L 1099 472 
L 1070 472 
L 1070 462 
L 1115 462 
L 1115 499 
Q 1104 503 , 1093 504 
Q 1084 505 , 1072 505 
Q 1046 505 , 1030 494 
Q 1015 483 , 1015 464 
Q 1015 445 , 1030 434 
Q 1046 423 , 1072 423 
Q 1083 423 , 1092 424 
Q 1102 426 , 1112 430 
L 1112 440 
Q 1099 436 , 1091 434 
Q 1082 433 , 1073 433 
Q 1052 433 , 1041 441 
Q 1031 448 , 1031 464 
Q 1031 480 , 1041 488 
Q 1052 496 , 1073 496 
Q 1082 496 , 1089 495 
Q 1096 495 , 1099 494 
" fill="#F5C000" />
<path d="
M 1120 554 
L 1138 554 
L 1138 554 
Q 1138 554 , 1146 554 
Q 1153 554 , 1170 554 
Q 1187 554 , 1195 554 
Q 1202 554 , 1202 554 
L 1202 554 
L 1220 554 
L 1220 554 
Q 1220 554 , 1207 554 
Q 1195 554 , 1170 554 
Q 1146 554 , 1133 554 
Q 1120 554 , 1120 554 
L 1120 554 
" fill="#D21010" />
<path d="
M 1204 554 
L 1204 553 
L 1175 553 
L 1175 553 
L 1220 553 
L 1220 554 
Q 1209 554 , 1198 554 
Q 1189 554 , 1177 554 
Q 1151 554 , 1135 554 
Q 1120 553 , 1120 553 
Q 1120 553 , 1135 553 
Q 1151 553 , 1177 553 
Q 1188 553 , 1197 553 
Q 1207 553 , 1217 553 
L 1217 553 
Q 1204 553 , 1196 553 
Q 1187 553 , 1178 553 
Q 1157 553 , 1146 553 
Q 1136 553 , 1136 553 
Q 1136 553 , 1146 553 
Q 1157 554 , 1178 554 
Q 1187 554 , 1194 554 
Q 1201 554 , 1204 554 
" fill="#F5C000" />
<path d="
M 1220 552 
L 1220 552 
Q 1205 552 , 1197 552 
Q 1189 552 , 1179 552 
Q 1158 552 , 1148 552 
Q 1136 552 , 1136 552 
Q 1136 552 , 1148 552 
Q 1158 553 , 1179 553 
Q 1189 553 , 1197 553 
Q 1205 552 , 1220 552 
L 1220 553 
Q 1209 553 , 1199 553 
Q 1189 553 , 1178 553 
Q 1151 553 , 1136 553 
Q 1120 552 , 1120 552 
Q 1120 552 , 1136 552 
Q 1151 552 , 1178 552 
Q 1189 552 , 1199 552 
Q 1210 552 , 1220 552 
" fill="#545FFF" />
<path d="
M 1170 551 
L 1152 551 
L 1186 551 
L 1170 551 
M 1163 551 
L 1177 551 
L 1220 552 
L 1204 552 
L 1192 551 
L 1148 551 
L 1135 552 
L 1120 552 
L 1163 551 
" fill="#339541" />
<path d="
M 1275 554 
L 1257 554 
L 1291 554 
L 1275 554 
M 1268 554 
L 1282 554 
L 1325 554 
L 1309 554 
L 1297 554 
L 1253 554 
L 1240 554 
L 1225 554 
L 1268 554 
" fill="#339541" />
<path d="
M 1225 553 
L 1243 553 
L 1243 553 
Q 1243 553 , 1251 553 
Q 1258 553 , 1275 553 
Q 1292 553 , 1300 553 
Q 1307 553 , 1307 553 
L 1307 553 
L 1325 553 
L 1325 553 
Q 1325 553 , 1312 553 
Q 1300 553 , 1275 553 
Q 1251 553 , 1238 553 
Q 1225 553 , 1225 553 
L 1225 553 
" fill="#D21010" />
<path d="
M 1325 552 
L 1325 552 
Q 1310 552 , 1302 552 
Q 1294 552 , 1284 552 
Q 1263 552 , 1253 552 
Q 1241 552 , 1241 552 
Q 1241 552 , 1253 552 
Q 1263 552 , 1284 552 
Q 1294 552 , 1302 552 
Q 1310 552 , 1325 552 
L 1325 552 
Q 1314 552 , 1304 553 
Q 1294 553 , 1283 553 
Q 1256 553 , 1241 552 
Q 1225 552 , 1225 552 
Q 1225 552 , 1241 552 
Q 1256 552 , 1283 552 
Q 1294 552 , 1304 552 
Q 1315 552 , 1325 552 
" fill="#545FFF" />
<path d="
M 1309 552 
L 1309 551 
L 1280 551 
L 1280 551 
L 1325 551 
L 1325 552 
Q 1314 552 , 1303 552 
Q 1294 552 , 1282 552 
Q 1256 552 , 1240 552 
Q 1225 551 , 1225 551 
Q 1225 551 , 1240 551 
Q 1256 551 , 1282 551 
Q 1293 551 , 1302 551 
Q 1312 551 , 1322 551 
L 1322 551 
Q 1309 551 , 1301 551 
Q 1292 551 , 1283 551 
Q 1262 551 , 1251 551 
Q 1241 551 , 1241 551 
Q 1241 551 , 1251 551 
Q 1262 552 , 1283 552 
Q 1292 552 , 1299 552 
Q 1306 552 , 1309 552 
" fill="#F5C000" />
<path d="M 65 55 L 65 555 " stroke="black" stroke-width="1.5"/>
<path d="M 55 555 L 65 555 " stroke="black" stroke-width="4"/>
<text text-anchor="end" x="50" y="555" font-size="50" alignment-baseline="middle">0</text>
<path d="M 55 305 L 65 305 " stroke="black" stroke-width="4"/>
<text text-anchor="end" x="50" y="305" font-size="50" alignment-baseline="middle">1</text>
<path d="M 55 55 L 65 55 " stroke="black" stroke-width="4"/>
<text text-anchor="end" x="50" y="55" font-size="50" alignment-baseline="middle">2</text>
<text text-anchor="middle" x="697" y="50" font-size="50" alignment-baseline="baseline"></text>
G<path d="
M 160 582 
L 126 595 
L 160 608 
L 157 611 
L 123 598 
L 123 623 
L 117 623 
L 117 599 
L 83 611 
L 80 608 
L 114 595 
L 80 582 
L 83 579 
L 117 591 
L 117 567 
L 123 567 
L 123 591 
L 157 579 
L 160 582 
" fill="black" />
<path d="
" fill="black" />
<path d="
M 211 567 
L 238 567 
L 238 623 
L 211 623 
L 211 567 
" fill="black" />
<path d="
" fill="black" />
<path d="
" fill="black" />
<path d="
M 316 567 
L 343 567 
L 343 623 
L 316 623 
L 316 567 
" fill="black" />
<path d="
" fill="black" />
<path d="
" fill="black" />
<path d="
M 421 567 
L 448 567 
L 448 623 
L 421 623 
L 421 567 
" fill="black" />
<path d="
" fill="black" />
<path d="
" fill="black" />
<path d="
M 526 567 
L 553 567 
L 553 623 
L 526 623 
L 526 567 
" fill="black" />
<path d="
" fill="black" />
<path d="
" fill="black" />
<path d="
M 631 567 
L 658 567 
L 658 623 
L 631 623 
L 631 567 
" fill="black" />
<path d="
" fill="black" />
<path d="
" fill="black" />
<path d="
M 736 567 
L 763 567 
L 763 623 
L 736 623 
L 736 567 
" fill="black" />
<path d="
" fill="black" />
<path d="
" fill="black" />
<path d="
M 841 567 
L 868 567 
L 868 623 
L 841 623 
L 841 567 
" fill="black" />
<path d="
" fill="black" />
<path d="
" fill="black" />
<path d="
M 946 567 
L 973 567 
L 973 623 
L 946 623 
L 946 567 
" fill="black" />
<path d="
" fill="black" />
<path d="
" fill="black" />
<path d="
M 1051 567 
L 1078 567 
L 1078 623 
L 1051 623 
L 1051 567 
" fill="black" />
<path d="
" fill="black" />
<path d="
" fill="black" />
<path d="
M 1156 567 
L 1183 567 
L 1183 623 
L 1156 623 
L 1156 567 
" fill="black" />
<path d="
" fill="black" />
<path d="
M 1315 582 
L 1281 595 
L 1315 608 
L 1312 611 
L 1278 598 
L 1278 623 
L 1272 623 
L 1272 599 
L 1238 611 
L 1235 608 
L 1269 595 
L 1235 582 
L 1238 579 
L 1272 591 
L 1272 567 
L 1278 567 
L 1278 591 
L 1312 579 
L 1315 582 
" fill="black" />
</svg>
