<svg xmlns="http://www.w3.org/2000/svg"
viewBox="0 0 805 635">
<path d="
M 157 553 
Q 145 554 , 120 554 
Q 96 554 , 83 553 
Q 70 553 , 70 552 
L 70 547 
L 110 547 
L 110 552 
Q 110 552 , 112 552 
Q 115 553 , 121 553 
Q 128 553 , 130 552 
Q 133 552 , 133 552 
L 133 547 
L 170 547 
L 170 552 
Q 170 553 , 157 553 
" fill="#D21010" />
<path d="
M 70 541 
Q 70 538 , 85 536 
Q 101 535 , 131 535 
Q 149 535 , 169 536 
L 169 538 
Q 143 537 , 133 537 
Q 109 537 , 109 541 
Q 109 543 , 115 543 
Q 121 544 , 133 544 
Q 143 544 , 170 543 
L 170 546 
Q 150 546 , 131 546 
Q 100 546 , 85 544 
Q 70 543 , 70 541 
" fill="#545FFF" />
<path d="
M 120 506 
L 120 506 
L 116 519 
L 124 519 
L 120 506 
M 132 526 
L 108 526 
L 101 535 
L 70 535 
L 105 501 
L 135 501 
L 170 535 
L 139 535 
L 132 526 
" fill="#339541" />
<path d="
M 134 461 
L 134 417 
L 104 417 
L 104 378 
L 170 378 
L 170 487 
Q 146 501 , 126 501 
Q 98 501 , 84 476 
Q 70 452 , 70 404 
Q 70 356 , 85 331 
Q 100 307 , 130 307 
Q 142 307 , 164 316 
L 164 359 
Q 140 346 , 130 346 
Q 118 346 , 111 358 
Q 104 371 , 104 404 
Q 104 462 , 128 462 
Q 134 462 , 134 461 
" fill="#F5C000" />
<path d="
M 175 552 
Q 175 550 , 190 549 
Q 206 549 , 236 549 
Q 254 549 , 274 549 
L 274 550 
Q 248 550 , 238 550 
Q 214 550 , 214 552 
Q 214 552 , 220 552 
Q 226 553 , 238 553 
Q 248 553 , 275 553 
L 275 554 
Q 255 554 , 236 554 
Q 205 554 , 190 553 
Q 175 553 , 175 552 
" fill="#545FFF" />
<path d="
M 239 547 
L 239 546 
L 209 546 
L 209 545 
L 275 545 
L 275 548 
Q 251 548 , 231 548 
Q 203 548 , 189 547 
Q 175 547 , 175 546 
Q 175 544 , 190 543 
Q 205 543 , 235 543 
Q 247 543 , 269 543 
L 269 544 
Q 245 544 , 235 544 
Q 223 544 , 216 544 
Q 209 545 , 209 546 
Q 209 547 , 233 547 
Q 239 547 , 239 547 
" fill="#F5C000" />
<path d="
M 225 534 
L 225 534 
L 221 538 
L 229 538 
L 225 534 
M 237 540 
L 213 540 
L 206 542 
L 175 542 
L 210 532 
L 240 532 
L 275 542 
L 244 542 
L 237 540 
" fill="#339541" />
<path d="
M 262 502 
Q 250 532 , 225 532 
Q 201 532 , 188 502 
Q 175 473 , 175 416 
L 175 143 
L 215 143 
L 215 407 
Q 215 437 , 217 444 
Q 220 452 , 226 452 
Q 233 452 , 235 444 
Q 238 437 , 238 407 
L 238 143 
L 275 143 
L 275 416 
Q 275 473 , 262 502 
" fill="#D21010" />
<path d="
M 280 553 
Q 280 553 , 295 552 
Q 311 552 , 341 552 
Q 359 552 , 379 552 
L 379 553 
Q 353 552 , 343 552 
Q 319 552 , 319 553 
Q 319 553 , 325 553 
Q 331 554 , 343 554 
Q 353 554 , 380 554 
L 380 554 
Q 360 554 , 341 554 
Q 310 554 , 295 554 
Q 280 554 , 280 553 
" fill="#545FFF" />
<path d="
M 367 551 
Q 355 551 , 330 551 
Q 306 551 , 293 551 
Q 280 551 , 280 550 
L 280 548 
L 320 548 
L 320 550 
Q 320 551 , 322 551 
Q 325 551 , 331 551 
Q 338 551 , 340 551 
Q 343 551 , 343 550 
L 343 548 
L 380 548 
L 380 550 
Q 380 551 , 367 551 
" fill="#D21010" />
<path d="
M 330 544 
L 330 544 
L 326 546 
L 334 546 
L 330 544 
M 342 547 
L 318 547 
L 311 548 
L 280 548 
L 315 543 
L 345 543 
L 380 548 
L 349 548 
L 342 547 
" fill="#339541" />
<path d="
M 344 452 
L 344 350 
L 314 350 
L 314 262 
L 380 262 
L 380 512 
Q 356 543 , 336 543 
Q 308 543 , 294 487 
Q 280 432 , 280 322 
Q 280 212 , 295 156 
Q 310 101 , 340 101 
Q 352 101 , 374 122 
L 374 220 
Q 350 190 , 340 190 
Q 328 190 , 321 218 
Q 314 246 , 314 322 
Q 314 453 , 338 453 
Q 344 453 , 344 452 
" fill="#F5C000" />
<path d="
M 449 554 
L 449 553 
L 419 553 
L 419 553 
L 485 553 
L 485 554 
Q 461 554 , 441 554 
Q 413 554 , 399 554 
Q 385 554 , 385 553 
Q 385 553 , 400 552 
Q 415 552 , 445 552 
Q 457 552 , 479 552 
L 479 553 
Q 455 553 , 445 553 
Q 433 553 , 426 553 
Q 419 553 , 419 553 
Q 419 554 , 443 554 
Q 449 554 , 449 554 
" fill="#F5C000" />
<path d="
M 385 541 
Q 385 535 , 400 532 
Q 416 530 , 446 530 
Q 464 530 , 484 531 
L 484 536 
Q 458 534 , 448 534 
Q 424 534 , 424 541 
Q 424 545 , 430 546 
Q 436 547 , 448 547 
Q 458 547 , 485 545 
L 485 551 
Q 465 552 , 446 552 
Q 415 552 , 400 549 
Q 385 547 , 385 541 
" fill="#545FFF" />
<path d="
M 435 503 
L 435 503 
L 431 515 
L 439 515 
L 435 503 
M 447 521 
L 423 521 
L 416 529 
L 385 529 
L 420 498 
L 450 498 
L 485 529 
L 454 529 
L 447 521 
" fill="#339541" />
<path d="
M 472 485 
Q 460 498 , 435 498 
Q 411 498 , 398 485 
Q 385 473 , 385 448 
L 385 332 
L 425 332 
L 425 445 
Q 425 457 , 427 460 
Q 430 464 , 436 464 
Q 443 464 , 445 460 
Q 448 457 , 448 445 
L 448 332 
L 485 332 
L 485 448 
Q 485 473 , 472 485 
" fill="#D21010" />
<path d="
M 490 553 
Q 490 552 , 505 551 
Q 521 551 , 551 551 
Q 569 551 , 589 551 
L 589 552 
Q 563 552 , 553 552 
Q 529 552 , 529 553 
Q 529 553 , 535 553 
Q 541 554 , 553 554 
Q 563 554 , 590 553 
L 590 554 
Q 570 555 , 551 555 
Q 520 555 , 505 554 
Q 490 554 , 490 553 
" fill="#545FFF" />
<path d="
M 577 550 
Q 565 551 , 540 551 
Q 516 551 , 503 550 
Q 490 549 , 490 548 
L 490 541 
L 530 541 
L 530 548 
Q 530 548 , 532 548 
Q 535 549 , 541 549 
Q 548 549 , 550 548 
Q 553 548 , 553 548 
L 553 541 
L 590 541 
L 590 548 
Q 590 549 , 577 550 
" fill="#D21010" />
<path d="
M 540 499 
L 540 499 
L 536 518 
L 544 518 
L 540 499 
M 552 528 
L 528 528 
L 521 540 
L 490 540 
L 525 492 
L 555 492 
L 590 540 
L 559 540 
L 552 528 
" fill="#339541" />
<path d="
M 554 458 
L 554 420 
L 524 420 
L 524 387 
L 590 387 
L 590 480 
Q 566 492 , 546 492 
Q 518 492 , 504 471 
Q 490 450 , 490 409 
Q 490 368 , 505 347 
Q 520 327 , 550 327 
Q 562 327 , 584 335 
L 584 372 
Q 560 360 , 550 360 
Q 538 360 , 531 370 
Q 524 381 , 524 409 
Q 524 458 , 548 458 
Q 554 458 , 554 458 
" fill="#F5C000" />
<path d="
M 659 554 
L 659 553 
L 629 553 
L 629 552 
L 695 552 
L 695 554 
Q 671 555 , 651 555 
Q 623 555 , 609 554 
Q 595 553 , 595 552 
Q 595 551 , 610 550 
Q 625 550 , 655 550 
Q 667 550 , 689 550 
L 689 551 
Q 665 551 , 655 551 
Q 643 551 , 636 551 
Q 629 552 , 629 552 
Q 629 554 , 653 554 
Q 659 554 , 659 554 
" fill="#F5C000" />
<path d="
M 595 547 
Q 595 545 , 610 544 
Q 626 544 , 656 544 
Q 674 544 , 694 544 
L 694 546 
Q 668 545 , 658 545 
Q 634 545 , 634 547 
Q 634 548 , 640 548 
Q 646 549 , 658 549 
Q 668 549 , 695 548 
L 695 549 
Q 675 550 , 656 550 
Q 625 550 , 610 549 
Q 595 548 , 595 547 
" fill="#545FFF" />
<path d="
M 645 538 
L 645 538 
L 641 541 
L 649 541 
L 645 538 
M 657 542 
L 633 542 
L 626 544 
L 595 544 
L 630 537 
L 660 537 
L 695 544 
L 664 544 
L 657 542 
" fill="#339541" />
<path d="
M 682 505 
Q 670 536 , 645 536 
Q 621 536 , 608 505 
Q 595 475 , 595 416 
L 595 131 
L 635 131 
L 635 406 
Q 635 437 , 637 445 
Q 640 454 , 646 454 
Q 653 454 , 655 445 
Q 658 437 , 658 406 
L 658 131 
L 695 131 
L 695 416 
Q 695 475 , 682 505 
" fill="#D21010" />
<path d="
M 700 553 
Q 700 553 , 715 552 
Q 731 552 , 761 552 
Q 779 552 , 799 552 
L 799 553 
Q 773 552 , 763 552 
Q 739 552 , 739 553 
Q 739 553 , 745 553 
Q 751 554 , 763 554 
Q 773 554 , 800 553 
L 800 554 
Q 780 554 , 761 554 
Q 730 554 , 715 554 
Q 700 554 , 700 553 
" fill="#545FFF" />
<path d="
M 787 550 
Q 775 551 , 750 551 
Q 726 551 , 713 550 
Q 700 550 , 700 549 
L 700 545 
L 740 545 
L 740 549 
Q 740 550 , 742 550 
Q 745 550 , 751 550 
Q 758 550 , 760 550 
Q 763 550 , 763 549 
L 763 545 
L 800 545 
L 800 549 
Q 800 550 , 787 550 
" fill="#D21010" />
<path d="
M 750 537 
L 750 537 
L 746 540 
L 754 540 
L 750 537 
M 762 542 
L 738 542 
L 731 544 
L 700 544 
L 735 536 
L 765 536 
L 800 544 
L 769 544 
L 762 542 
" fill="#339541" />
<path d="
M 764 451 
L 764 356 
L 734 356 
L 734 273 
L 800 273 
L 800 507 
Q 776 535 , 756 535 
Q 728 535 , 714 483 
Q 700 432 , 700 329 
Q 700 226 , 715 174 
Q 730 123 , 760 123 
Q 772 123 , 794 143 
L 794 235 
Q 770 207 , 760 207 
Q 748 207 , 741 233 
Q 734 259 , 734 329 
Q 734 452 , 758 452 
Q 764 452 , 764 451 
" fill="#F5C000" />
<path d="M 65 55 L 65 555 " stroke="black" stroke-width="1.5"/>
<path d="M 55 555 L 65 555 " stroke="black" stroke-width="4"/>
<text text-anchor="end" x="50" y="555" font-size="50" alignment-baseline="middle">0</text>
<path d="M 55 305 L 65 305 " stroke="black" stroke-width="4"/>
<text text-anchor="end" x="50" y="305" font-size="50" alignment-baseline="middle">1</text>
<path d="M 55 55 L 65 55 " stroke="black" stroke-width="4"/>
<text text-anchor="end" x="50" y="55" font-size="50" alignment-baseline="middle">2</text>
<text text-anchor="middle" x="435" y="50" font-size="50" alignment-baseline="baseline"></text>
G</svg>
