<svg xmlns="http://www.w3.org/2000/svg"
viewBox="0 0 1225 635">
<path d="
M 70 553 
Q 70 552 , 85 551 
Q 101 551 , 131 551 
Q 149 551 , 169 551 
L 169 552 
Q 143 552 , 133 552 
Q 109 552 , 109 553 
Q 109 553 , 115 553 
Q 121 554 , 133 554 
Q 143 554 , 170 553 
L 170 554 
Q 150 554 , 131 554 
Q 100 554 , 85 553 
Q 70 553 , 70 553 
" fill="#545FFF" />
<path d="
M 134 548 
L 134 546 
L 104 546 
L 104 544 
L 170 544 
L 170 549 
Q 146 550 , 126 550 
Q 98 550 , 84 549 
Q 70 548 , 70 545 
Q 70 543 , 85 541 
Q 100 540 , 130 540 
Q 142 540 , 164 540 
L 164 543 
Q 140 542 , 130 542 
Q 118 542 , 111 542 
Q 104 543 , 104 545 
Q 104 548 , 128 548 
Q 134 548 , 134 548 
" fill="#F5C000" />
<path d="
M 120 524 
L 120 524 
L 116 531 
L 124 531 
L 120 524 
M 132 535 
L 108 535 
L 101 539 
L 70 539 
L 105 521 
L 135 521 
L 170 539 
L 139 539 
L 132 535 
" fill="#339541" />
<path d="
M 157 504 
Q 145 520 , 120 520 
Q 96 520 , 83 504 
Q 70 488 , 70 456 
L 70 304 
L 110 304 
L 110 451 
Q 110 468 , 112 472 
Q 115 476 , 121 476 
Q 128 476 , 130 472 
Q 133 468 , 133 451 
L 133 304 
L 170 304 
L 170 456 
Q 170 488 , 157 504 
" fill="#D21010" />
<path d="
M 175 553 
Q 175 553 , 190 552 
Q 206 552 , 236 552 
Q 254 552 , 274 552 
L 274 553 
Q 248 552 , 238 552 
Q 214 552 , 214 553 
Q 214 553 , 220 553 
Q 226 554 , 238 554 
Q 248 554 , 275 553 
L 275 554 
Q 255 554 , 236 554 
Q 205 554 , 190 554 
Q 175 554 , 175 553 
" fill="#545FFF" />
<path d="
M 225 544 
L 225 544 
L 221 548 
L 229 548 
L 225 544 
M 237 549 
L 213 549 
L 206 551 
L 175 551 
L 210 543 
L 240 543 
L 275 551 
L 244 551 
L 237 549 
" fill="#339541" />
<path d="
M 262 542 
Q 250 543 , 225 543 
Q 201 543 , 188 542 
Q 175 541 , 175 540 
L 175 534 
L 215 534 
L 215 540 
Q 215 540 , 217 540 
Q 220 541 , 226 541 
Q 233 541 , 235 540 
Q 238 540 , 238 540 
L 238 534 
L 275 534 
L 275 540 
Q 275 541 , 262 542 
" fill="#D21010" />
<path d="
M 239 475 
L 239 409 
L 209 409 
L 209 351 
L 275 351 
L 275 514 
Q 251 533 , 231 533 
Q 203 533 , 189 497 
Q 175 462 , 175 390 
Q 175 319 , 190 283 
Q 205 247 , 235 247 
Q 247 247 , 269 261 
L 269 324 
Q 245 305 , 235 305 
Q 223 305 , 216 323 
Q 209 341 , 209 390 
Q 209 475 , 233 475 
Q 239 475 , 239 475 
" fill="#F5C000" />
<path d="
M 344 553 
L 344 551 
L 314 551 
L 314 549 
L 380 549 
L 380 554 
Q 356 555 , 336 555 
Q 308 555 , 294 553 
Q 280 552 , 280 550 
Q 280 548 , 295 547 
Q 310 546 , 340 546 
Q 352 546 , 374 546 
L 374 548 
Q 350 548 , 340 548 
Q 328 548 , 321 548 
Q 314 549 , 314 550 
Q 314 553 , 338 553 
Q 344 553 , 344 553 
" fill="#F5C000" />
<path d="
M 280 540 
Q 280 537 , 295 535 
Q 311 534 , 341 534 
Q 359 534 , 379 535 
L 379 537 
Q 353 536 , 343 536 
Q 319 536 , 319 540 
Q 319 541 , 325 542 
Q 331 543 , 343 543 
Q 353 543 , 380 542 
L 380 544 
Q 360 545 , 341 545 
Q 310 545 , 295 543 
Q 280 542 , 280 540 
" fill="#545FFF" />
<path d="
M 330 519 
L 330 519 
L 326 526 
L 334 526 
L 330 519 
M 342 530 
L 318 530 
L 311 534 
L 280 534 
L 315 517 
L 345 517 
L 380 534 
L 349 534 
L 342 530 
" fill="#339541" />
<path d="
M 367 504 
Q 355 517 , 330 517 
Q 306 517 , 293 504 
Q 280 492 , 280 468 
L 280 353 
L 320 353 
L 320 464 
Q 320 477 , 322 480 
Q 325 483 , 331 483 
Q 338 483 , 340 480 
Q 343 477 , 343 464 
L 343 353 
L 380 353 
L 380 468 
Q 380 492 , 367 504 
" fill="#D21010" />
<path d="
M 385 554 
Q 385 554 , 393 554 
Q 401 554 , 416 554 
Q 424 554 , 434 554 
L 434 554 
Q 421 554 , 416 554 
Q 404 554 , 404 554 
Q 404 554 , 407 554 
Q 411 554 , 416 554 
Q 421 554 , 435 554 
L 435 555 
Q 425 555 , 416 555 
Q 400 555 , 392 554 
Q 385 554 , 385 554 
" fill="#545FFF" />
<path d="
M 467 554 
L 467 554 
L 452 554 
L 452 554 
L 485 554 
L 485 555 
Q 473 555 , 463 555 
Q 449 555 , 442 554 
Q 435 554 , 435 554 
Q 435 554 , 442 554 
Q 450 554 , 465 554 
Q 471 554 , 482 554 
L 482 554 
Q 470 554 , 465 554 
Q 459 554 , 455 554 
Q 452 554 , 452 554 
Q 452 554 , 464 554 
Q 467 554 , 467 554 
" fill="lightgray" />
<path d="
M 429 553 
Q 423 554 , 410 554 
Q 398 554 , 391 553 
Q 385 553 , 385 553 
L 385 552 
L 405 552 
L 405 553 
Q 405 553 , 406 553 
Q 407 553 , 410 553 
Q 414 553 , 415 553 
Q 417 553 , 417 553 
L 417 552 
L 435 552 
L 435 553 
Q 435 553 , 429 553 
" fill="#D21010" />
<path d="
M 460 552 
L 460 552 
L 458 553 
L 462 553 
L 460 552 
M 466 553 
L 454 553 
L 450 554 
L 435 554 
L 452 552 
L 468 552 
L 485 554 
L 470 554 
L 466 553 
" fill="lightgray" />
<path d="
M 429 551 
Q 423 551 , 410 551 
Q 398 551 , 391 551 
Q 385 551 , 385 551 
L 385 549 
L 405 549 
L 405 551 
Q 405 551 , 406 551 
Q 407 551 , 410 551 
Q 414 551 , 415 551 
Q 417 551 , 417 551 
L 417 549 
L 435 549 
L 435 551 
Q 435 551 , 429 551 
" fill="#D21010" />
<path d="
M 467 551 
L 467 550 
L 452 550 
L 452 550 
L 485 550 
L 485 551 
Q 473 551 , 463 551 
Q 449 551 , 442 551 
Q 435 551 , 435 550 
Q 435 550 , 442 549 
Q 450 549 , 465 549 
Q 471 549 , 482 549 
L 482 550 
Q 470 549 , 465 549 
Q 459 549 , 455 549 
Q 452 550 , 452 550 
Q 452 551 , 464 551 
Q 467 551 , 467 551 
" fill="lightgray" />
<path d="
M 417 541 
L 417 534 
L 402 534 
L 402 527 
L 435 527 
L 435 546 
Q 423 548 , 413 548 
Q 399 548 , 392 544 
Q 385 540 , 385 532 
Q 385 523 , 392 519 
Q 400 515 , 415 515 
Q 421 515 , 432 517 
L 432 524 
Q 420 522 , 415 522 
Q 409 522 , 405 524 
Q 402 526 , 402 532 
Q 402 541 , 414 541 
Q 417 541 , 417 541 
" fill="#F5C000" />
<path d="
M 435 532 
Q 435 523 , 443 519 
Q 451 515 , 466 515 
Q 474 515 , 484 517 
L 484 524 
Q 471 522 , 466 522 
Q 454 522 , 454 532 
Q 454 537 , 457 539 
Q 461 541 , 466 541 
Q 471 541 , 485 538 
L 485 546 
Q 475 548 , 466 548 
Q 450 548 , 442 544 
Q 435 540 , 435 532 
" fill="lightgray" />
<path d="
M 410 478 
L 410 478 
L 408 495 
L 412 495 
L 410 478 
M 416 504 
L 404 504 
L 400 514 
L 385 514 
L 402 472 
L 418 472 
L 435 514 
L 420 514 
L 416 504 
" fill="#339541" />
<path d="
M 479 511 
Q 473 514 , 460 514 
Q 448 514 , 441 511 
Q 435 508 , 435 502 
L 435 472 
L 455 472 
L 455 501 
Q 455 504 , 456 505 
Q 457 506 , 460 506 
Q 464 506 , 465 505 
Q 467 504 , 467 501 
L 467 472 
L 485 472 
L 485 502 
Q 485 508 , 479 511 
" fill="lightgray" />
<path d="
M 417 441 
L 417 406 
L 402 406 
L 402 376 
L 435 376 
L 435 461 
Q 423 471 , 413 471 
Q 399 471 , 392 452 
Q 385 434 , 385 396 
Q 385 359 , 392 340 
Q 400 321 , 415 321 
Q 421 321 , 432 328 
L 432 362 
Q 420 351 , 415 351 
Q 409 351 , 405 360 
Q 402 370 , 402 396 
Q 402 441 , 414 441 
Q 417 441 , 417 441 
" fill="#F5C000" />
<path d="
M 479 460 
Q 473 471 , 460 471 
Q 448 471 , 441 460 
Q 435 449 , 435 427 
L 435 321 
L 455 321 
L 455 423 
Q 455 435 , 456 438 
Q 457 441 , 460 441 
Q 464 441 , 465 438 
Q 467 435 , 467 423 
L 467 321 
L 485 321 
L 485 427 
Q 485 449 , 479 460 
" fill="lightgray" />
<path d="
M 490 553 
Q 490 552 , 505 551 
Q 521 551 , 551 551 
Q 569 551 , 589 551 
L 589 552 
Q 563 552 , 553 552 
Q 529 552 , 529 553 
Q 529 553 , 535 553 
Q 541 554 , 553 554 
Q 563 554 , 590 553 
L 590 554 
Q 570 555 , 551 555 
Q 520 555 , 505 554 
Q 490 554 , 490 553 
" fill="#545FFF" />
<path d="
M 554 549 
L 554 547 
L 524 547 
L 524 546 
L 590 546 
L 590 550 
Q 566 550 , 546 550 
Q 518 550 , 504 549 
Q 490 549 , 490 547 
Q 490 545 , 505 544 
Q 520 543 , 550 543 
Q 562 543 , 584 543 
L 584 545 
Q 560 545 , 550 545 
Q 538 545 , 531 545 
Q 524 545 , 524 547 
Q 524 549 , 548 549 
Q 554 549 , 554 549 
" fill="#F5C000" />
<path d="
M 540 532 
L 540 532 
L 536 537 
L 544 537 
L 540 532 
M 552 539 
L 528 539 
L 521 542 
L 490 542 
L 525 530 
L 555 530 
L 590 542 
L 559 542 
L 552 539 
" fill="#339541" />
<path d="
M 577 509 
Q 565 529 , 540 529 
Q 516 529 , 503 509 
Q 490 490 , 490 451 
L 490 268 
L 530 268 
L 530 445 
Q 530 465 , 532 470 
Q 535 476 , 541 476 
Q 548 476 , 550 470 
Q 553 465 , 553 445 
L 553 268 
L 590 268 
L 590 451 
Q 590 490 , 577 509 
" fill="#D21010" />
<path d="
M 700 554 
Q 700 553 , 715 553 
Q 731 553 , 761 553 
Q 779 553 , 799 553 
L 799 553 
Q 773 553 , 763 553 
Q 739 553 , 739 554 
Q 739 554 , 745 554 
Q 751 554 , 763 554 
Q 773 554 , 800 554 
L 800 554 
Q 780 555 , 761 555 
Q 730 555 , 715 554 
Q 700 554 , 700 554 
" fill="#545FFF" />
<path d="
M 750 548 
L 750 548 
L 746 550 
L 754 550 
L 750 548 
M 762 551 
L 738 551 
L 731 553 
L 700 553 
L 735 547 
L 765 547 
L 800 553 
L 769 553 
L 762 551 
" fill="#339541" />
<path d="
M 787 545 
Q 775 546 , 750 546 
Q 726 546 , 713 545 
Q 700 545 , 700 544 
L 700 540 
L 740 540 
L 740 544 
Q 740 545 , 742 545 
Q 745 545 , 751 545 
Q 758 545 , 760 545 
Q 763 545 , 763 544 
L 763 540 
L 800 540 
L 800 544 
Q 800 545 , 787 545 
" fill="#D21010" />
<path d="
M 764 476 
L 764 404 
L 734 404 
L 734 341 
L 800 341 
L 800 518 
Q 776 540 , 756 540 
Q 728 540 , 714 501 
Q 700 462 , 700 384 
Q 700 305 , 715 266 
Q 730 227 , 760 227 
Q 772 227 , 794 242 
L 794 312 
Q 770 290 , 760 290 
Q 748 290 , 741 310 
Q 734 330 , 734 384 
Q 734 476 , 758 476 
Q 764 476 , 764 476 
" fill="#F5C000" />
<path d="
M 869 554 
L 869 553 
L 839 553 
L 839 552 
L 905 552 
L 905 554 
Q 881 555 , 861 555 
Q 833 555 , 819 554 
Q 805 553 , 805 552 
Q 805 551 , 820 550 
Q 835 550 , 865 550 
Q 877 550 , 899 550 
L 899 551 
Q 875 551 , 865 551 
Q 853 551 , 846 551 
Q 839 551 , 839 552 
Q 839 554 , 863 554 
Q 869 554 , 869 554 
" fill="#F5C000" />
<path d="
M 855 536 
L 855 536 
L 851 543 
L 859 543 
L 855 536 
M 867 546 
L 843 546 
L 836 550 
L 805 550 
L 840 534 
L 870 534 
L 905 550 
L 874 550 
L 867 546 
" fill="#339541" />
<path d="
M 805 523 
Q 805 518 , 820 515 
Q 836 513 , 866 513 
Q 884 513 , 904 514 
L 904 519 
Q 878 517 , 868 517 
Q 844 517 , 844 523 
Q 844 527 , 850 528 
Q 856 529 , 868 529 
Q 878 529 , 905 527 
L 905 532 
Q 885 533 , 866 533 
Q 835 533 , 820 530 
Q 805 528 , 805 523 
" fill="#545FFF" />
<path d="
M 892 506 
Q 880 513 , 855 513 
Q 831 513 , 818 506 
Q 805 499 , 805 486 
L 805 423 
L 845 423 
L 845 484 
Q 845 491 , 847 492 
Q 850 494 , 856 494 
Q 863 494 , 865 492 
Q 868 491 , 868 484 
L 868 423 
L 905 423 
L 905 486 
Q 905 499 , 892 506 
" fill="#D21010" />
<path d="
M 910 553 
Q 910 552 , 925 551 
Q 941 551 , 971 551 
Q 989 551 , 1009 551 
L 1009 552 
Q 983 552 , 973 552 
Q 949 552 , 949 553 
Q 949 553 , 955 553 
Q 961 554 , 973 554 
Q 983 554 , 1010 553 
L 1010 554 
Q 990 554 , 971 554 
Q 940 554 , 925 553 
Q 910 553 , 910 553 
" fill="#545FFF" />
<path d="
M 997 549 
Q 985 550 , 960 550 
Q 936 550 , 923 549 
Q 910 549 , 910 548 
L 910 542 
L 950 542 
L 950 548 
Q 950 548 , 952 548 
Q 955 549 , 961 549 
Q 968 549 , 970 548 
Q 973 548 , 973 548 
L 973 542 
L 1010 542 
L 1010 548 
Q 1010 549 , 997 549 
" fill="#D21010" />
<path d="
M 960 510 
L 960 510 
L 956 524 
L 964 524 
L 960 510 
M 972 532 
L 948 532 
L 941 542 
L 910 542 
L 945 504 
L 975 504 
L 1010 542 
L 979 542 
L 972 532 
" fill="#339541" />
<path d="
M 974 486 
L 974 467 
L 944 467 
L 944 451 
L 1010 451 
L 1010 498 
Q 986 503 , 966 503 
Q 938 503 , 924 493 
Q 910 483 , 910 462 
Q 910 442 , 925 431 
Q 940 421 , 970 421 
Q 982 421 , 1004 425 
L 1004 443 
Q 980 438 , 970 438 
Q 958 438 , 951 443 
Q 944 448 , 944 462 
Q 944 487 , 968 487 
Q 974 487 , 974 486 
" fill="#F5C000" />
<path d="
M 1015 554 
Q 1015 554 , 1023 554 
Q 1031 554 , 1046 554 
Q 1054 554 , 1064 554 
L 1064 554 
Q 1051 554 , 1046 554 
Q 1034 554 , 1034 554 
Q 1034 554 , 1037 554 
Q 1041 554 , 1046 554 
Q 1051 554 , 1065 554 
L 1065 555 
Q 1055 555 , 1046 555 
Q 1030 555 , 1022 554 
Q 1015 554 , 1015 554 
" fill="lightgray" />
<path d="
M 1097 554 
L 1097 554 
L 1082 554 
L 1082 554 
L 1115 554 
L 1115 555 
Q 1103 555 , 1093 555 
Q 1079 555 , 1072 554 
Q 1065 554 , 1065 554 
Q 1065 554 , 1072 554 
Q 1080 554 , 1095 554 
Q 1101 554 , 1112 554 
L 1112 554 
Q 1100 554 , 1095 554 
Q 1089 554 , 1085 554 
Q 1082 554 , 1082 554 
Q 1082 554 , 1094 554 
Q 1097 554 , 1097 554 
" fill="#F5C000" />
<path d="
M 1059 553 
Q 1053 554 , 1040 554 
Q 1028 554 , 1021 553 
Q 1015 553 , 1015 553 
L 1015 552 
L 1035 552 
L 1035 553 
Q 1035 553 , 1036 553 
Q 1037 553 , 1040 553 
Q 1044 553 , 1045 553 
Q 1047 553 , 1047 553 
L 1047 552 
L 1065 552 
L 1065 553 
Q 1065 553 , 1059 553 
" fill="lightgray" />
<path d="
M 1090 552 
L 1090 552 
L 1088 553 
L 1092 553 
L 1090 552 
M 1096 553 
L 1084 553 
L 1080 554 
L 1065 554 
L 1082 552 
L 1098 552 
L 1115 554 
L 1100 554 
L 1096 553 
" fill="#339541" />
<path d="
M 1059 551 
Q 1053 551 , 1040 551 
Q 1028 551 , 1021 551 
Q 1015 551 , 1015 551 
L 1015 549 
L 1035 549 
L 1035 551 
Q 1035 551 , 1036 551 
Q 1037 551 , 1040 551 
Q 1044 551 , 1045 551 
Q 1047 551 , 1047 551 
L 1047 549 
L 1065 549 
L 1065 551 
Q 1065 551 , 1059 551 
" fill="lightgray" />
<path d="
M 1097 551 
L 1097 550 
L 1082 550 
L 1082 550 
L 1115 550 
L 1115 551 
Q 1103 551 , 1093 551 
Q 1079 551 , 1072 551 
Q 1065 551 , 1065 550 
Q 1065 550 , 1072 549 
Q 1080 549 , 1095 549 
Q 1101 549 , 1112 549 
L 1112 550 
Q 1100 549 , 1095 549 
Q 1089 549 , 1085 549 
Q 1082 550 , 1082 550 
Q 1082 551 , 1094 551 
Q 1097 551 , 1097 551 
" fill="#F5C000" />
<path d="
M 1047 541 
L 1047 534 
L 1032 534 
L 1032 527 
L 1065 527 
L 1065 546 
Q 1053 548 , 1043 548 
Q 1029 548 , 1022 544 
Q 1015 540 , 1015 532 
Q 1015 523 , 1022 519 
Q 1030 515 , 1045 515 
Q 1051 515 , 1062 517 
L 1062 524 
Q 1050 522 , 1045 522 
Q 1039 522 , 1035 524 
Q 1032 526 , 1032 532 
Q 1032 541 , 1044 541 
Q 1047 541 , 1047 541 
" fill="lightgray" />
<path d="
M 1065 532 
Q 1065 523 , 1073 519 
Q 1081 515 , 1096 515 
Q 1104 515 , 1114 517 
L 1114 524 
Q 1101 522 , 1096 522 
Q 1084 522 , 1084 532 
Q 1084 537 , 1087 539 
Q 1091 541 , 1096 541 
Q 1101 541 , 1115 538 
L 1115 546 
Q 1105 548 , 1096 548 
Q 1080 548 , 1072 544 
Q 1065 540 , 1065 532 
" fill="#545FFF" />
<path d="
M 1040 478 
L 1040 478 
L 1038 495 
L 1042 495 
L 1040 478 
M 1046 504 
L 1034 504 
L 1030 514 
L 1015 514 
L 1032 472 
L 1048 472 
L 1065 514 
L 1050 514 
L 1046 504 
" fill="lightgray" />
<path d="
M 1109 511 
Q 1103 514 , 1090 514 
Q 1078 514 , 1071 511 
Q 1065 508 , 1065 502 
L 1065 472 
L 1085 472 
L 1085 501 
Q 1085 504 , 1086 505 
Q 1087 506 , 1090 506 
Q 1094 506 , 1095 505 
Q 1097 504 , 1097 501 
L 1097 472 
L 1115 472 
L 1115 502 
Q 1115 508 , 1109 511 
" fill="#D21010" />
<path d="
M 1047 441 
L 1047 406 
L 1032 406 
L 1032 376 
L 1065 376 
L 1065 461 
Q 1053 471 , 1043 471 
Q 1029 471 , 1022 452 
Q 1015 434 , 1015 396 
Q 1015 359 , 1022 340 
Q 1030 321 , 1045 321 
Q 1051 321 , 1062 328 
L 1062 362 
Q 1050 351 , 1045 351 
Q 1039 351 , 1035 360 
Q 1032 370 , 1032 396 
Q 1032 441 , 1044 441 
Q 1047 441 , 1047 441 
" fill="lightgray" />
<path d="
M 1109 460 
Q 1103 471 , 1090 471 
Q 1078 471 , 1071 460 
Q 1065 449 , 1065 427 
L 1065 321 
L 1085 321 
L 1085 423 
Q 1085 435 , 1086 438 
Q 1087 441 , 1090 441 
Q 1094 441 , 1095 438 
Q 1097 435 , 1097 423 
L 1097 321 
L 1115 321 
L 1115 427 
Q 1115 449 , 1109 460 
" fill="#D21010" />
<path d="
M 1120 553 
Q 1120 553 , 1135 552 
Q 1151 552 , 1181 552 
Q 1199 552 , 1219 552 
L 1219 553 
Q 1193 553 , 1183 553 
Q 1159 553 , 1159 553 
Q 1159 554 , 1165 554 
Q 1171 554 , 1183 554 
Q 1193 554 , 1220 554 
L 1220 554 
Q 1200 555 , 1181 555 
Q 1150 555 , 1135 554 
Q 1120 554 , 1120 553 
" fill="#545FFF" />
<path d="
M 1207 550 
Q 1195 551 , 1170 551 
Q 1146 551 , 1133 550 
Q 1120 550 , 1120 549 
L 1120 543 
L 1160 543 
L 1160 549 
Q 1160 549 , 1162 549 
Q 1165 550 , 1171 550 
Q 1178 550 , 1180 549 
Q 1183 549 , 1183 549 
L 1183 543 
L 1220 543 
L 1220 549 
Q 1220 550 , 1207 550 
" fill="#D21010" />
<path d="
M 1170 523 
L 1170 523 
L 1166 532 
L 1174 532 
L 1170 523 
M 1182 537 
L 1158 537 
L 1151 543 
L 1120 543 
L 1155 520 
L 1185 520 
L 1220 543 
L 1189 543 
L 1182 537 
" fill="#339541" />
<path d="
M 1184 476 
L 1184 428 
L 1154 428 
L 1154 386 
L 1220 386 
L 1220 505 
Q 1196 519 , 1176 519 
Q 1148 519 , 1134 493 
Q 1120 467 , 1120 415 
Q 1120 362 , 1135 336 
Q 1150 310 , 1180 310 
Q 1192 310 , 1214 320 
L 1214 367 
Q 1190 352 , 1180 352 
Q 1168 352 , 1161 365 
Q 1154 379 , 1154 415 
Q 1154 477 , 1178 477 
Q 1184 477 , 1184 476 
" fill="#F5C000" />
<path d="M 65 168 L 65 555 " stroke="black" stroke-width="1.5"/>
<path d="M 55 555 L 65 555 " stroke="black" stroke-width="4"/>
<text text-anchor="end" x="50" y="555" font-size="50" alignment-baseline="middle">0</text>
<path d="M 55 362 L 65 362 " stroke="black" stroke-width="4"/>
<text text-anchor="end" x="50" y="362" font-size="50" alignment-baseline="middle">1</text>
<path d="M 55 168 L 65 168 " stroke="black" stroke-width="4"/>
<text text-anchor="end" x="50" y="168" font-size="50" alignment-baseline="middle">2</text>
<text text-anchor="middle" x="645" y="50" font-size="50" alignment-baseline="baseline"></text>
G<path d="
M 447 623 
Q 395 612 , 395 595 
Q 395 578 , 447 567 
L 475 567 
Q 420 579 , 420 595 
Q 420 611 , 475 623 
L 447 623 
" fill="black" />
<path d="
M 615 567 
L 624 567 
L 624 588 
L 638 581 
L 640 593 
L 626 599 
L 635 616 
L 628 623 
L 619 606 
L 612 623 
L 604 616 
L 613 599 
L 600 593 
L 602 581 
L 616 588 
L 615 567 
" fill="black" />
<path d="
M 674 578 
L 674 579 
L 659 604 
L 658 604 
L 673 603 
L 674 578 
M 673 610 
L 650 610 
L 650 603 
L 672 567 
L 682 567 
L 682 603 
L 690 603 
L 690 610 
L 682 610 
L 682 623 
L 673 623 
L 673 610 
" fill="black" />
<path d="
M 1053 567 
Q 1105 578 , 1105 595 
Q 1105 612 , 1053 623 
L 1025 623 
Q 1080 611 , 1080 595 
Q 1080 579 , 1025 567 
L 1053 567 
" fill="black" />
</svg>
