<svg xmlns="http://www.w3.org/2000/svg"
viewBox="0 0 595 635">
<path d="
M 70 553 
Q 70 553 , 85 552 
Q 101 552 , 131 552 
Q 149 552 , 169 552 
L 169 553 
Q 143 552 , 133 552 
Q 109 552 , 109 553 
Q 109 553 , 115 553 
Q 121 554 , 133 554 
Q 143 554 , 170 553 
L 170 554 
Q 150 554 , 131 554 
Q 100 554 , 85 554 
Q 70 554 , 70 553 
" fill="#545FFF" />
<path d="
M 120 549 
L 120 549 
L 116 550 
L 124 550 
L 120 549 
M 132 551 
L 108 551 
L 101 552 
L 70 552 
L 105 548 
L 135 548 
L 170 552 
L 139 552 
L 132 551 
" fill="#339541" />
<path d="
M 157 547 
Q 145 547 , 120 547 
Q 96 547 , 83 547 
Q 70 547 , 70 546 
L 70 542 
L 110 542 
L 110 546 
Q 110 546 , 112 546 
Q 115 546 , 121 546 
Q 128 546 , 130 546 
Q 133 546 , 133 546 
L 133 542 
L 170 542 
L 170 546 
Q 170 547 , 157 547 
" fill="#D21010" />
<path d="
M 134 452 
L 134 351 
L 104 351 
L 104 263 
L 170 263 
L 170 511 
Q 146 541 , 126 541 
Q 98 541 , 84 486 
Q 70 432 , 70 322 
Q 70 213 , 85 158 
Q 100 103 , 130 103 
Q 142 103 , 164 124 
L 164 222 
Q 140 192 , 130 192 
Q 118 192 , 111 219 
Q 104 247 , 104 322 
Q 104 453 , 128 453 
Q 134 453 , 134 452 
" fill="#F5C000" />
<path d="
M 239 554 
L 239 553 
L 209 553 
L 209 552 
L 275 552 
L 275 554 
Q 251 555 , 231 555 
Q 203 555 , 189 554 
Q 175 554 , 175 553 
Q 175 552 , 190 551 
Q 205 551 , 235 551 
Q 247 551 , 269 551 
L 269 552 
Q 245 552 , 235 552 
Q 223 552 , 216 552 
Q 209 552 , 209 553 
Q 209 554 , 233 554 
Q 239 554 , 239 554 
" fill="#F5C000" />
<path d="
M 175 542 
Q 175 537 , 190 535 
Q 206 533 , 236 533 
Q 254 533 , 274 534 
L 274 538 
Q 248 536 , 238 536 
Q 214 536 , 214 542 
Q 214 545 , 220 546 
Q 226 547 , 238 547 
Q 248 547 , 275 545 
L 275 549 
Q 255 550 , 236 550 
Q 205 550 , 190 548 
Q 175 546 , 175 542 
" fill="#545FFF" />
<path d="
M 225 506 
L 225 506 
L 221 519 
L 229 519 
L 225 506 
M 237 525 
L 213 525 
L 206 533 
L 175 533 
L 210 502 
L 240 502 
L 275 533 
L 244 533 
L 237 525 
" fill="#339541" />
<path d="
M 262 485 
Q 250 501 , 225 501 
Q 201 501 , 188 485 
Q 175 470 , 175 439 
L 175 292 
L 215 292 
L 215 434 
Q 215 450 , 217 454 
Q 220 459 , 226 459 
Q 233 459 , 235 454 
Q 238 450 , 238 434 
L 238 292 
L 275 292 
L 275 439 
Q 275 470 , 262 485 
" fill="#D21010" />
<path d="
M 280 553 
Q 280 553 , 295 552 
Q 311 552 , 341 552 
Q 359 552 , 379 552 
L 379 553 
Q 353 553 , 343 553 
Q 319 553 , 319 553 
Q 319 554 , 325 554 
Q 331 554 , 343 554 
Q 353 554 , 380 554 
L 380 554 
Q 360 554 , 341 554 
Q 310 554 , 295 554 
Q 280 554 , 280 553 
" fill="#545FFF" />
<path d="
M 367 551 
Q 355 552 , 330 552 
Q 306 552 , 293 551 
Q 280 551 , 280 549 
L 280 544 
L 320 544 
L 320 549 
Q 320 550 , 322 550 
Q 325 550 , 331 550 
Q 338 550 , 340 550 
Q 343 550 , 343 549 
L 343 544 
L 380 544 
L 380 549 
Q 380 550 , 367 551 
" fill="#D21010" />
<path d="
M 330 504 
L 330 504 
L 326 522 
L 334 522 
L 330 504 
M 342 532 
L 318 532 
L 311 544 
L 280 544 
L 315 497 
L 345 497 
L 380 544 
L 349 544 
L 342 532 
" fill="#339541" />
<path d="
M 344 453 
L 344 403 
L 314 403 
L 314 360 
L 380 360 
L 380 482 
Q 356 497 , 336 497 
Q 308 497 , 294 470 
Q 280 443 , 280 389 
Q 280 335 , 295 308 
Q 310 281 , 340 281 
Q 352 281 , 374 291 
L 374 339 
Q 350 325 , 340 325 
Q 328 325 , 321 338 
Q 314 352 , 314 389 
Q 314 453 , 338 453 
Q 344 453 , 344 453 
" fill="#F5C000" />
<path d="
M 435 551 
L 435 551 
L 431 553 
L 439 553 
L 435 551 
M 447 553 
L 423 553 
L 416 554 
L 385 554 
L 420 551 
L 450 551 
L 485 554 
L 454 554 
L 447 553 
" fill="#339541" />
<path d="
M 385 549 
Q 385 548 , 400 547 
Q 416 547 , 446 547 
Q 464 547 , 484 547 
L 484 548 
Q 458 548 , 448 548 
Q 424 548 , 424 549 
Q 424 549 , 430 549 
Q 436 550 , 448 550 
Q 458 550 , 485 549 
L 485 550 
Q 465 550 , 446 550 
Q 415 550 , 400 550 
Q 385 550 , 385 549 
" fill="#545FFF" />
<path d="
M 449 546 
L 449 545 
L 419 545 
L 419 544 
L 485 544 
L 485 547 
Q 461 547 , 441 547 
Q 413 547 , 399 546 
Q 385 546 , 385 545 
Q 385 544 , 400 543 
Q 415 543 , 445 543 
Q 457 543 , 479 543 
L 479 544 
Q 455 544 , 445 544 
Q 433 544 , 426 544 
Q 419 544 , 419 545 
Q 419 546 , 443 546 
Q 449 546 , 449 546 
" fill="#F5C000" />
<path d="
M 472 509 
Q 460 543 , 435 543 
Q 411 543 , 398 509 
Q 385 476 , 385 411 
L 385 101 
L 425 101 
L 425 401 
Q 425 435 , 427 444 
Q 430 453 , 436 453 
Q 443 453 , 445 444 
Q 448 435 , 448 401 
L 448 101 
L 485 101 
L 485 411 
Q 485 476 , 472 509 
" fill="#D21010" />
<path d="
M 490 554 
Q 490 553 , 505 553 
Q 521 553 , 551 553 
Q 569 553 , 589 553 
L 589 554 
Q 563 553 , 553 553 
Q 529 553 , 529 554 
Q 529 554 , 535 554 
Q 541 555 , 553 555 
Q 563 555 , 590 554 
L 590 555 
Q 570 555 , 551 555 
Q 520 555 , 505 554 
Q 490 554 , 490 554 
" fill="#545FFF" />
<path d="
M 540 549 
L 540 549 
L 536 550 
L 544 550 
L 540 549 
M 552 551 
L 528 551 
L 521 552 
L 490 552 
L 525 548 
L 555 548 
L 590 552 
L 559 552 
L 552 551 
" fill="#339541" />
<path d="
M 577 547 
Q 565 548 , 540 548 
Q 516 548 , 503 547 
Q 490 547 , 490 546 
L 490 543 
L 530 543 
L 530 546 
Q 530 547 , 532 547 
Q 535 547 , 541 547 
Q 548 547 , 550 547 
Q 553 547 , 553 546 
L 553 543 
L 590 543 
L 590 546 
Q 590 547 , 577 547 
" fill="#D21010" />
<path d="
M 554 453 
L 554 352 
L 524 352 
L 524 264 
L 590 264 
L 590 512 
Q 566 543 , 546 543 
Q 518 543 , 504 488 
Q 490 433 , 490 324 
Q 490 214 , 505 159 
Q 520 104 , 550 104 
Q 562 104 , 584 125 
L 584 223 
Q 560 193 , 550 193 
Q 538 193 , 531 220 
Q 524 248 , 524 324 
Q 524 454 , 548 454 
Q 554 454 , 554 453 
" fill="#F5C000" />
<path d="M 65 55 L 65 555 " stroke="black" stroke-width="1.5"/>
<path d="M 55 555 L 65 555 " stroke="black" stroke-width="4"/>
<text text-anchor="end" x="50" y="555" font-size="50" alignment-baseline="middle">0</text>
<path d="M 55 305 L 65 305 " stroke="black" stroke-width="4"/>
<text text-anchor="end" x="50" y="305" font-size="50" alignment-baseline="middle">1</text>
<path d="M 55 55 L 65 55 " stroke="black" stroke-width="4"/>
<text text-anchor="end" x="50" y="55" font-size="50" alignment-baseline="middle">2</text>
<text text-anchor="middle" x="330" y="50" font-size="50" alignment-baseline="baseline"></text>
G</svg>
