<svg xmlns="http://www.w3.org/2000/svg"
viewBox="0 0 1435 635">
<path d="
M 120 554 
L 102 554 
L 136 554 
L 120 554 
M 113 554 
L 127 554 
L 170 554 
L 154 554 
L 142 554 
L 98 554 
L 85 554 
L 70 554 
L 113 554 
" fill="#339541" />
<path d="
M 70 553 
L 88 553 
L 88 553 
Q 88 553 , 96 553 
Q 103 553 , 120 553 
Q 137 553 , 145 553 
Q 152 553 , 152 553 
L 152 553 
L 170 553 
L 170 553 
Q 170 553 , 157 553 
Q 145 553 , 120 553 
Q 96 553 , 83 553 
Q 70 553 , 70 553 
L 70 553 
" fill="#D21010" />
<path d="
M 170 552 
L 170 552 
Q 155 552 , 147 552 
Q 139 552 , 129 552 
Q 108 552 , 98 552 
Q 86 552 , 86 552 
Q 86 552 , 98 552 
Q 108 552 , 129 552 
Q 139 552 , 147 552 
Q 155 552 , 170 552 
L 170 552 
Q 159 552 , 149 552 
Q 139 552 , 128 552 
Q 101 552 , 86 552 
Q 70 552 , 70 552 
Q 70 552 , 86 552 
Q 101 552 , 128 552 
Q 139 552 , 149 552 
Q 160 552 , 170 552 
" fill="#545FFF" />
<path d="
M 154 551 
L 154 551 
L 125 551 
L 125 551 
L 170 551 
L 170 551 
Q 159 551 , 148 551 
Q 139 551 , 127 551 
Q 101 551 , 85 551 
Q 70 551 , 70 551 
Q 70 551 , 85 551 
Q 101 551 , 127 551 
Q 138 551 , 147 551 
Q 157 551 , 167 551 
L 167 551 
Q 154 551 , 146 551 
Q 137 551 , 128 551 
Q 107 551 , 96 551 
Q 86 551 , 86 551 
Q 86 551 , 96 551 
Q 107 551 , 128 551 
Q 137 551 , 144 551 
Q 151 551 , 154 551 
" fill="#F5C000" />
<path d="
M 225 551 
L 207 552 
L 241 552 
L 225 551 
M 218 550 
L 232 550 
L 275 554 
L 259 554 
L 247 553 
L 203 553 
L 190 554 
L 175 554 
L 218 550 
" fill="#339541" />
<path d="
M 175 542 
L 193 542 
L 193 547 
Q 193 548 , 201 548 
Q 208 549 , 225 549 
Q 242 549 , 250 548 
Q 257 548 , 257 547 
L 257 542 
L 275 542 
L 275 547 
Q 275 548 , 262 549 
Q 250 550 , 225 550 
Q 201 550 , 188 549 
Q 175 548 , 175 547 
L 175 542 
" fill="#D21010" />
<path d="
M 275 523 
L 275 526 
Q 260 524 , 252 524 
Q 244 523 , 234 523 
Q 213 523 , 203 525 
Q 191 527 , 191 531 
Q 191 535 , 203 537 
Q 213 539 , 234 539 
Q 244 539 , 252 538 
Q 260 538 , 275 536 
L 275 539 
Q 264 540 , 254 541 
Q 244 541 , 233 541 
Q 206 541 , 191 538 
Q 175 536 , 175 531 
Q 175 526 , 191 524 
Q 206 521 , 233 521 
Q 244 521 , 254 521 
Q 265 522 , 275 523 
" fill="#545FFF" />
<path d="
M 259 517 
L 259 509 
L 230 509 
L 230 506 
L 275 506 
L 275 519 
Q 264 520 , 253 520 
Q 244 521 , 232 521 
Q 206 521 , 190 517 
Q 175 513 , 175 506 
Q 175 500 , 190 496 
Q 206 492 , 232 492 
Q 243 492 , 252 493 
Q 262 493 , 272 494 
L 272 498 
Q 259 496 , 251 496 
Q 242 495 , 233 495 
Q 212 495 , 201 498 
Q 191 501 , 191 506 
Q 191 512 , 201 515 
Q 212 518 , 233 518 
Q 242 518 , 249 517 
Q 256 517 , 259 517 
" fill="#F5C000" />
<path d="
M 280 552 
L 289 552 
L 289 554 
Q 289 554 , 293 554 
Q 296 554 , 305 554 
Q 314 554 , 317 554 
Q 321 554 , 321 554 
L 321 552 
L 330 552 
L 330 554 
Q 330 554 , 324 554 
Q 317 555 , 305 555 
Q 293 555 , 286 554 
Q 280 554 , 280 554 
L 280 552 
" fill="#D21010" />
<path d="
M 355 553 
L 346 554 
L 363 554 
L 355 553 
M 351 552 
L 359 552 
L 380 555 
L 372 555 
L 366 554 
L 344 554 
L 337 555 
L 330 555 
L 351 552 
" fill="lightgray" />
<path d="
M 322 551 
L 322 550 
L 308 550 
L 308 549 
L 330 549 
L 330 551 
Q 325 552 , 319 552 
Q 314 552 , 308 552 
Q 295 552 , 288 551 
Q 280 550 , 280 549 
Q 280 548 , 288 548 
Q 295 547 , 308 547 
Q 314 547 , 319 547 
Q 324 547 , 329 547 
L 329 548 
Q 322 548 , 318 548 
Q 314 548 , 309 548 
Q 299 548 , 293 548 
Q 288 548 , 288 549 
Q 288 550 , 293 551 
Q 299 551 , 309 551 
Q 314 551 , 317 551 
Q 321 551 , 322 551 
" fill="#F5C000" />
<path d="
M 330 547 
L 339 547 
L 339 550 
Q 339 551 , 343 551 
Q 346 551 , 355 551 
Q 364 551 , 367 551 
Q 371 551 , 371 550 
L 371 547 
L 380 547 
L 380 550 
Q 380 551 , 374 551 
Q 367 552 , 355 552 
Q 343 552 , 336 551 
Q 330 551 , 330 550 
L 330 547 
" fill="lightgray" />
<path d="
M 305 542 
L 296 544 
L 313 544 
L 305 542 
M 301 541 
L 309 541 
L 330 547 
L 322 547 
L 316 545 
L 294 545 
L 287 547 
L 280 547 
L 301 541 
" fill="#339541" />
<path d="
M 330 541 
L 339 541 
L 339 544 
Q 339 545 , 343 546 
Q 346 546 , 355 546 
Q 364 546 , 367 546 
Q 371 545 , 371 544 
L 371 541 
L 380 541 
L 380 544 
Q 380 546 , 374 546 
Q 367 547 , 355 547 
Q 343 547 , 336 546 
Q 330 546 , 330 544 
L 330 541 
" fill="lightgray" />
<path d="
M 322 539 
L 322 535 
L 308 535 
L 308 534 
L 330 534 
L 330 540 
Q 325 540 , 319 541 
Q 314 541 , 308 541 
Q 295 541 , 288 539 
Q 280 537 , 280 534 
Q 280 531 , 288 530 
Q 295 528 , 308 528 
Q 314 528 , 319 528 
Q 324 528 , 329 529 
L 329 531 
Q 322 530 , 318 530 
Q 314 530 , 309 530 
Q 299 530 , 293 531 
Q 288 532 , 288 534 
Q 288 537 , 293 538 
Q 299 539 , 309 539 
Q 314 539 , 317 539 
Q 321 539 , 322 539 
" fill="#F5C000" />
<path d="
M 380 529 
L 380 531 
Q 373 530 , 369 530 
Q 364 529 , 359 529 
Q 349 529 , 344 531 
Q 338 532 , 338 534 
Q 338 537 , 344 538 
Q 349 539 , 359 539 
Q 364 539 , 369 539 
Q 373 539 , 380 537 
L 380 539 
Q 375 540 , 369 540 
Q 365 541 , 359 541 
Q 345 541 , 338 539 
Q 330 537 , 330 534 
Q 330 531 , 338 530 
Q 345 528 , 359 528 
Q 365 528 , 370 528 
Q 375 529 , 380 529 
" fill="lightgray" />
<path d="
M 280 513 
L 289 513 
L 289 522 
Q 289 524 , 293 525 
Q 296 526 , 305 526 
Q 314 526 , 317 525 
Q 321 524 , 321 522 
L 321 513 
L 330 513 
L 330 522 
Q 330 525 , 324 526 
Q 317 528 , 305 528 
Q 293 528 , 286 526 
Q 280 525 , 280 522 
L 280 513 
" fill="#D21010" />
<path d="
M 372 525 
L 372 522 
L 358 522 
L 358 520 
L 380 520 
L 380 526 
Q 375 527 , 369 527 
Q 364 528 , 358 528 
Q 345 528 , 338 526 
Q 330 524 , 330 520 
Q 330 517 , 338 515 
Q 345 513 , 358 513 
Q 364 513 , 369 513 
Q 374 514 , 379 514 
L 379 516 
Q 372 515 , 368 515 
Q 364 515 , 359 515 
Q 349 515 , 343 516 
Q 338 517 , 338 520 
Q 338 523 , 343 525 
Q 349 526 , 359 526 
Q 364 526 , 367 526 
Q 371 526 , 372 525 
" fill="lightgray" />
<path d="
M 330 491 
L 330 494 
Q 323 492 , 319 491 
Q 314 491 , 309 491 
Q 299 491 , 294 493 
Q 288 496 , 288 500 
Q 288 505 , 294 508 
Q 299 510 , 309 510 
Q 314 510 , 319 509 
Q 323 509 , 330 506 
L 330 510 
Q 325 512 , 319 512 
Q 315 513 , 309 513 
Q 295 513 , 288 509 
Q 280 506 , 280 500 
Q 280 495 , 288 491 
Q 295 488 , 309 488 
Q 315 488 , 320 489 
Q 325 489 , 330 491 
" fill="#545FFF" />
<path d="
M 372 509 
L 372 503 
L 358 503 
L 358 500 
L 380 500 
L 380 511 
Q 375 512 , 369 512 
Q 364 513 , 358 513 
Q 345 513 , 338 509 
Q 330 506 , 330 500 
Q 330 495 , 338 491 
Q 345 488 , 358 488 
Q 364 488 , 369 488 
Q 374 489 , 379 490 
L 379 493 
Q 372 492 , 368 491 
Q 364 491 , 359 491 
Q 349 491 , 343 493 
Q 338 496 , 338 500 
Q 338 505 , 343 508 
Q 349 510 , 359 510 
Q 364 510 , 367 510 
Q 371 510 , 372 509 
" fill="lightgray" />
<path d="
M 385 552 
L 403 552 
L 403 554 
Q 403 554 , 411 554 
Q 418 554 , 435 554 
Q 452 554 , 460 554 
Q 467 554 , 467 554 
L 467 552 
L 485 552 
L 485 554 
Q 485 554 , 472 554 
Q 460 555 , 435 555 
Q 411 555 , 398 554 
Q 385 554 , 385 554 
L 385 552 
" fill="#D21010" />
<path d="
M 485 549 
L 485 550 
Q 470 549 , 462 549 
Q 454 549 , 444 549 
Q 423 549 , 413 550 
Q 401 550 , 401 550 
Q 401 551 , 413 551 
Q 423 551 , 444 551 
Q 454 551 , 462 551 
Q 470 551 , 485 551 
L 485 551 
Q 474 551 , 464 552 
Q 454 552 , 443 552 
Q 416 552 , 401 551 
Q 385 551 , 385 550 
Q 385 550 , 401 549 
Q 416 549 , 443 549 
Q 454 549 , 464 549 
Q 475 549 , 485 549 
" fill="#545FFF" />
<path d="
M 435 546 
L 417 548 
L 451 548 
L 435 546 
M 428 546 
L 442 546 
L 485 549 
L 469 549 
L 457 548 
L 413 548 
L 400 549 
L 385 549 
L 428 546 
" fill="#339541" />
<path d="
M 469 545 
L 469 544 
L 440 544 
L 440 543 
L 485 543 
L 485 545 
Q 474 546 , 463 546 
Q 454 546 , 442 546 
Q 416 546 , 400 545 
Q 385 545 , 385 543 
Q 385 542 , 400 542 
Q 416 541 , 442 541 
Q 453 541 , 462 541 
Q 472 541 , 482 541 
L 482 542 
Q 469 542 , 461 542 
Q 452 542 , 443 542 
Q 422 542 , 411 542 
Q 401 542 , 401 543 
Q 401 544 , 411 545 
Q 422 545 , 443 545 
Q 452 545 , 459 545 
Q 466 545 , 469 545 
" fill="#F5C000" />
<path d="
M 490 552 
L 499 552 
L 499 554 
Q 499 554 , 503 554 
Q 506 554 , 515 554 
Q 524 554 , 527 554 
Q 531 554 , 531 554 
L 531 552 
L 540 552 
L 540 554 
Q 540 554 , 534 554 
Q 527 555 , 515 555 
Q 503 555 , 496 554 
Q 490 554 , 490 554 
L 490 552 
" fill="#D21010" />
<path d="
M 565 552 
L 556 554 
L 573 554 
L 565 552 
M 561 552 
L 569 552 
L 590 555 
L 582 555 
L 576 554 
L 554 554 
L 547 555 
L 540 555 
L 561 552 
" fill="lightgray" />
<path d="
M 490 549 
L 499 549 
L 499 551 
Q 499 551 , 503 551 
Q 506 551 , 515 551 
Q 524 551 , 527 551 
Q 531 551 , 531 551 
L 531 549 
L 540 549 
L 540 551 
Q 540 551 , 534 551 
Q 527 552 , 515 552 
Q 503 552 , 496 551 
Q 490 551 , 490 551 
L 490 549 
" fill="#D21010" />
<path d="
M 582 551 
L 582 551 
L 568 551 
L 568 550 
L 590 550 
L 590 551 
Q 585 552 , 579 552 
Q 574 552 , 568 552 
Q 555 552 , 548 551 
Q 540 551 , 540 550 
Q 540 550 , 548 549 
Q 555 549 , 568 549 
Q 574 549 , 579 549 
Q 584 549 , 589 549 
L 589 550 
Q 582 549 , 578 549 
Q 574 549 , 569 549 
Q 559 549 , 553 550 
Q 548 550 , 548 550 
Q 548 551 , 553 551 
Q 559 551 , 569 551 
Q 574 551 , 577 551 
Q 581 551 , 582 551 
" fill="lightgray" />
<path d="
M 515 546 
L 506 547 
L 523 547 
L 515 546 
M 511 545 
L 519 545 
L 540 548 
L 532 548 
L 526 547 
L 504 547 
L 497 548 
L 490 548 
L 511 545 
" fill="#339541" />
<path d="
M 540 545 
L 549 545 
L 549 547 
Q 549 547 , 553 548 
Q 556 548 , 565 548 
Q 574 548 , 577 548 
Q 581 547 , 581 547 
L 581 545 
L 590 545 
L 590 547 
Q 590 547 , 584 548 
Q 577 548 , 565 548 
Q 553 548 , 546 548 
Q 540 547 , 540 547 
L 540 545 
" fill="lightgray" />
<path d="
M 532 544 
L 532 543 
L 518 543 
L 518 543 
L 540 543 
L 540 544 
Q 535 544 , 529 544 
Q 524 544 , 518 544 
Q 505 544 , 498 544 
Q 490 543 , 490 543 
Q 490 542 , 498 541 
Q 505 541 , 518 541 
Q 524 541 , 529 541 
Q 534 541 , 539 541 
L 539 542 
Q 532 542 , 528 541 
Q 524 541 , 519 541 
Q 509 541 , 503 542 
Q 498 542 , 498 543 
Q 498 543 , 503 544 
Q 509 544 , 519 544 
Q 524 544 , 527 544 
Q 531 544 , 532 544 
" fill="#F5C000" />
<path d="
M 540 541 
L 549 541 
L 549 543 
Q 549 544 , 553 544 
Q 556 544 , 565 544 
Q 574 544 , 577 544 
Q 581 544 , 581 543 
L 581 541 
L 590 541 
L 590 543 
Q 590 544 , 584 544 
Q 577 544 , 565 544 
Q 553 544 , 546 544 
Q 540 544 , 540 543 
L 540 541 
" fill="lightgray" />
<path d="
M 540 447 
L 540 463 
Q 533 453 , 529 450 
Q 524 448 , 519 448 
Q 509 448 , 504 458 
Q 498 468 , 498 488 
Q 498 509 , 504 519 
Q 509 530 , 519 530 
Q 524 530 , 529 527 
Q 533 524 , 540 514 
L 540 530 
Q 535 536 , 529 539 
Q 525 541 , 519 541 
Q 505 541 , 498 527 
Q 490 513 , 490 489 
Q 490 464 , 498 450 
Q 505 436 , 519 436 
Q 525 436 , 530 439 
Q 535 441 , 540 447 
" fill="#545FFF" />
<path d="
M 582 526 
L 582 498 
L 568 498 
L 568 486 
L 590 486 
L 590 533 
Q 585 537 , 579 539 
Q 574 541 , 568 541 
Q 555 541 , 548 527 
Q 540 513 , 540 489 
Q 540 464 , 548 450 
Q 555 436 , 568 436 
Q 574 436 , 579 438 
Q 584 440 , 589 444 
L 589 458 
Q 582 452 , 578 450 
Q 574 449 , 569 449 
Q 559 449 , 553 458 
Q 548 468 , 548 489 
Q 548 509 , 553 519 
Q 559 529 , 569 529 
Q 574 529 , 577 528 
Q 581 527 , 582 526 
" fill="lightgray" />
<path d="
M 532 417 
L 532 382 
L 518 382 
L 518 368 
L 540 368 
L 540 425 
Q 535 431 , 529 433 
Q 524 435 , 518 435 
Q 505 435 , 498 418 
Q 490 401 , 490 371 
Q 490 341 , 498 323 
Q 505 306 , 518 306 
Q 524 306 , 529 308 
Q 534 311 , 539 316 
L 539 333 
Q 532 326 , 528 323 
Q 524 321 , 519 321 
Q 509 321 , 503 333 
Q 498 346 , 498 371 
Q 498 396 , 503 409 
Q 509 421 , 519 421 
Q 524 421 , 527 420 
Q 531 418 , 532 417 
" fill="#F5C000" />
<path d="
M 590 320 
L 590 340 
Q 583 327 , 579 324 
Q 574 320 , 569 320 
Q 559 320 , 554 333 
Q 548 346 , 548 371 
Q 548 396 , 554 409 
Q 559 421 , 569 421 
Q 574 421 , 579 418 
Q 583 414 , 590 402 
L 590 422 
Q 585 429 , 579 432 
Q 575 435 , 569 435 
Q 555 435 , 548 418 
Q 540 400 , 540 371 
Q 540 341 , 548 324 
Q 555 306 , 569 306 
Q 575 306 , 580 309 
Q 585 312 , 590 320 
" fill="lightgray" />
<path d="
M 595 545 
L 613 545 
L 613 551 
Q 613 552 , 621 553 
Q 628 553 , 645 553 
Q 662 553 , 670 553 
Q 677 552 , 677 551 
L 677 545 
L 695 545 
L 695 551 
Q 695 553 , 682 554 
Q 670 554 , 645 554 
Q 621 554 , 608 554 
Q 595 553 , 595 551 
L 595 545 
" fill="#D21010" />
<path d="
M 679 543 
L 679 540 
L 650 540 
L 650 539 
L 695 539 
L 695 544 
Q 684 544 , 673 544 
Q 664 545 , 652 545 
Q 626 545 , 610 543 
Q 595 542 , 595 539 
Q 595 537 , 610 535 
Q 626 534 , 652 534 
Q 663 534 , 672 534 
Q 682 534 , 692 535 
L 692 536 
Q 679 536 , 671 535 
Q 662 535 , 653 535 
Q 632 535 , 621 536 
Q 611 537 , 611 539 
Q 611 541 , 621 542 
Q 632 543 , 653 543 
Q 662 543 , 669 543 
Q 676 543 , 679 543 
" fill="#F5C000" />
<path d="
M 645 523 
L 627 528 
L 661 528 
L 645 523 
M 638 520 
L 652 520 
L 695 534 
L 679 534 
L 667 530 
L 623 530 
L 610 534 
L 595 534 
L 638 520 
" fill="#339541" />
<path d="
M 695 467 
L 695 476 
Q 680 470 , 672 469 
Q 664 467 , 654 467 
Q 633 467 , 623 473 
Q 611 479 , 611 490 
Q 611 502 , 623 508 
Q 633 513 , 654 513 
Q 664 513 , 672 512 
Q 680 510 , 695 504 
L 695 514 
Q 684 517 , 674 518 
Q 664 520 , 653 520 
Q 626 520 , 611 512 
Q 595 504 , 595 490 
Q 595 477 , 611 469 
Q 626 461 , 653 461 
Q 664 461 , 674 462 
Q 685 464 , 695 467 
" fill="#545FFF" />
<path d="
M 750 554 
L 732 554 
L 766 554 
L 750 554 
M 743 554 
L 757 554 
L 800 554 
L 784 554 
L 772 554 
L 728 554 
L 715 554 
L 700 554 
L 743 554 
" fill="#339541" />
<path d="
M 700 553 
L 718 553 
L 718 553 
Q 718 553 , 726 553 
Q 733 553 , 750 553 
Q 767 553 , 775 553 
Q 782 553 , 782 553 
L 782 553 
L 800 553 
L 800 553 
Q 800 553 , 787 553 
Q 775 553 , 750 553 
Q 726 553 , 713 553 
Q 700 553 , 700 553 
L 700 553 
" fill="#D21010" />
<path d="
M 800 552 
L 800 552 
Q 785 552 , 777 552 
Q 769 552 , 759 552 
Q 738 552 , 728 552 
Q 716 552 , 716 552 
Q 716 552 , 728 552 
Q 738 552 , 759 552 
Q 769 552 , 777 552 
Q 785 552 , 800 552 
L 800 552 
Q 789 552 , 779 552 
Q 769 552 , 758 552 
Q 731 552 , 716 552 
Q 700 552 , 700 552 
Q 700 552 , 716 552 
Q 731 552 , 758 552 
Q 769 552 , 779 552 
Q 790 552 , 800 552 
" fill="#545FFF" />
<path d="
M 784 551 
L 784 551 
L 755 551 
L 755 551 
L 800 551 
L 800 551 
Q 789 551 , 778 551 
Q 769 551 , 757 551 
Q 731 551 , 715 551 
Q 700 551 , 700 551 
Q 700 551 , 715 551 
Q 731 551 , 757 551 
Q 768 551 , 777 551 
Q 787 551 , 797 551 
L 797 551 
Q 784 551 , 776 551 
Q 767 551 , 758 551 
Q 737 551 , 726 551 
Q 716 551 , 716 551 
Q 716 551 , 726 551 
Q 737 551 , 758 551 
Q 767 551 , 774 551 
Q 781 551 , 784 551 
" fill="#F5C000" />
<path d="
M 855 552 
L 837 553 
L 871 553 
L 855 552 
M 848 552 
L 862 552 
L 905 554 
L 889 554 
L 877 553 
L 833 553 
L 820 554 
L 805 554 
L 848 552 
" fill="#339541" />
<path d="
M 905 549 
L 905 550 
Q 890 549 , 882 549 
Q 874 549 , 864 549 
Q 843 549 , 833 550 
Q 821 550 , 821 550 
Q 821 551 , 833 551 
Q 843 551 , 864 551 
Q 874 551 , 882 551 
Q 890 551 , 905 551 
L 905 551 
Q 894 551 , 884 552 
Q 874 552 , 863 552 
Q 836 552 , 821 551 
Q 805 551 , 805 550 
Q 805 550 , 821 549 
Q 836 549 , 863 549 
Q 874 549 , 884 549 
Q 895 549 , 905 549 
" fill="#545FFF" />
<path d="
M 805 545 
L 823 545 
L 823 547 
Q 823 547 , 831 548 
Q 838 548 , 855 548 
Q 872 548 , 880 548 
Q 887 547 , 887 547 
L 887 545 
L 905 545 
L 905 547 
Q 905 548 , 892 548 
Q 880 548 , 855 548 
Q 831 548 , 818 548 
Q 805 548 , 805 547 
L 805 545 
" fill="#D21010" />
<path d="
M 889 544 
L 889 543 
L 860 543 
L 860 542 
L 905 542 
L 905 544 
Q 894 544 , 883 544 
Q 874 544 , 862 544 
Q 836 544 , 820 544 
Q 805 543 , 805 542 
Q 805 541 , 820 541 
Q 836 540 , 862 540 
Q 873 540 , 882 540 
Q 892 540 , 902 540 
L 902 541 
Q 889 541 , 881 541 
Q 872 541 , 863 541 
Q 842 541 , 831 541 
Q 821 541 , 821 542 
Q 821 543 , 831 544 
Q 842 544 , 863 544 
Q 872 544 , 879 544 
Q 886 544 , 889 544 
" fill="#F5C000" />
<path d="
M 910 551 
L 928 551 
L 928 553 
Q 928 554 , 936 554 
Q 943 554 , 960 554 
Q 977 554 , 985 554 
Q 992 554 , 992 553 
L 992 551 
L 1010 551 
L 1010 553 
Q 1010 554 , 997 554 
Q 985 555 , 960 555 
Q 936 555 , 923 554 
Q 910 554 , 910 553 
L 910 551 
" fill="#D21010" />
<path d="
M 960 536 
L 942 543 
L 976 543 
L 960 536 
M 953 533 
L 967 533 
L 1010 551 
L 994 551 
L 982 545 
L 938 545 
L 925 551 
L 910 551 
L 953 533 
" fill="#339541" />
<path d="
M 1010 515 
L 1010 518 
Q 995 516 , 987 516 
Q 979 515 , 969 515 
Q 948 515 , 938 517 
Q 926 519 , 926 523 
Q 926 527 , 938 528 
Q 948 530 , 969 530 
Q 979 530 , 987 530 
Q 995 529 , 1010 527 
L 1010 531 
Q 999 532 , 989 532 
Q 979 533 , 968 533 
Q 941 533 , 926 530 
Q 910 527 , 910 523 
Q 910 518 , 926 516 
Q 941 513 , 968 513 
Q 979 513 , 989 513 
Q 1000 514 , 1010 515 
" fill="#545FFF" />
<path d="
M 994 502 
L 994 481 
L 965 481 
L 965 472 
L 1010 472 
L 1010 507 
Q 999 510 , 988 511 
Q 979 513 , 967 513 
Q 941 513 , 925 502 
Q 910 492 , 910 474 
Q 910 456 , 925 445 
Q 941 435 , 967 435 
Q 978 435 , 987 436 
Q 997 438 , 1007 441 
L 1007 451 
Q 994 447 , 986 446 
Q 977 444 , 968 444 
Q 947 444 , 936 452 
Q 926 459 , 926 474 
Q 926 489 , 936 497 
Q 947 504 , 968 504 
Q 977 504 , 984 503 
Q 991 503 , 994 502 
" fill="#F5C000" />
<path d="
M 1015 552 
L 1024 552 
L 1024 554 
Q 1024 554 , 1028 554 
Q 1031 554 , 1040 554 
Q 1049 554 , 1052 554 
Q 1056 554 , 1056 554 
L 1056 552 
L 1065 552 
L 1065 554 
Q 1065 554 , 1059 554 
Q 1052 555 , 1040 555 
Q 1028 555 , 1021 554 
Q 1015 554 , 1015 554 
L 1015 552 
" fill="lightgray" />
<path d="
M 1090 552 
L 1081 554 
L 1098 554 
L 1090 552 
M 1086 552 
L 1094 552 
L 1115 555 
L 1107 555 
L 1101 554 
L 1079 554 
L 1072 555 
L 1065 555 
L 1086 552 
" fill="#339541" />
<path d="
M 1015 549 
L 1024 549 
L 1024 551 
Q 1024 551 , 1028 551 
Q 1031 551 , 1040 551 
Q 1049 551 , 1052 551 
Q 1056 551 , 1056 551 
L 1056 549 
L 1065 549 
L 1065 551 
Q 1065 551 , 1059 551 
Q 1052 552 , 1040 552 
Q 1028 552 , 1021 551 
Q 1015 551 , 1015 551 
L 1015 549 
" fill="lightgray" />
<path d="
M 1107 551 
L 1107 551 
L 1093 551 
L 1093 550 
L 1115 550 
L 1115 551 
Q 1110 552 , 1104 552 
Q 1099 552 , 1093 552 
Q 1080 552 , 1073 551 
Q 1065 551 , 1065 550 
Q 1065 550 , 1073 549 
Q 1080 549 , 1093 549 
Q 1099 549 , 1104 549 
Q 1109 549 , 1114 549 
L 1114 550 
Q 1107 549 , 1103 549 
Q 1099 549 , 1094 549 
Q 1084 549 , 1078 550 
Q 1073 550 , 1073 550 
Q 1073 551 , 1078 551 
Q 1084 551 , 1094 551 
Q 1099 551 , 1102 551 
Q 1106 551 , 1107 551 
" fill="#F5C000" />
<path d="
M 1040 546 
L 1031 547 
L 1048 547 
L 1040 546 
M 1036 545 
L 1044 545 
L 1065 548 
L 1057 548 
L 1051 547 
L 1029 547 
L 1022 548 
L 1015 548 
L 1036 545 
" fill="lightgray" />
<path d="
M 1065 545 
L 1074 545 
L 1074 547 
Q 1074 547 , 1078 548 
Q 1081 548 , 1090 548 
Q 1099 548 , 1102 548 
Q 1106 547 , 1106 547 
L 1106 545 
L 1115 545 
L 1115 547 
Q 1115 547 , 1109 548 
Q 1102 548 , 1090 548 
Q 1078 548 , 1071 548 
Q 1065 547 , 1065 547 
L 1065 545 
" fill="#D21010" />
<path d="
M 1057 544 
L 1057 543 
L 1043 543 
L 1043 543 
L 1065 543 
L 1065 544 
Q 1060 544 , 1054 544 
Q 1049 544 , 1043 544 
Q 1030 544 , 1023 544 
Q 1015 543 , 1015 543 
Q 1015 542 , 1023 541 
Q 1030 541 , 1043 541 
Q 1049 541 , 1054 541 
Q 1059 541 , 1064 541 
L 1064 542 
Q 1057 542 , 1053 541 
Q 1049 541 , 1044 541 
Q 1034 541 , 1028 542 
Q 1023 542 , 1023 543 
Q 1023 543 , 1028 544 
Q 1034 544 , 1044 544 
Q 1049 544 , 1052 544 
Q 1056 544 , 1057 544 
" fill="lightgray" />
<path d="
M 1065 541 
L 1074 541 
L 1074 543 
Q 1074 544 , 1078 544 
Q 1081 544 , 1090 544 
Q 1099 544 , 1102 544 
Q 1106 544 , 1106 543 
L 1106 541 
L 1115 541 
L 1115 543 
Q 1115 544 , 1109 544 
Q 1102 544 , 1090 544 
Q 1078 544 , 1071 544 
Q 1065 544 , 1065 543 
L 1065 541 
" fill="#D21010" />
<path d="
M 1065 447 
L 1065 463 
Q 1058 453 , 1054 450 
Q 1049 448 , 1044 448 
Q 1034 448 , 1029 458 
Q 1023 468 , 1023 488 
Q 1023 509 , 1029 519 
Q 1034 530 , 1044 530 
Q 1049 530 , 1054 527 
Q 1058 524 , 1065 514 
L 1065 530 
Q 1060 536 , 1054 539 
Q 1050 541 , 1044 541 
Q 1030 541 , 1023 527 
Q 1015 513 , 1015 489 
Q 1015 464 , 1023 450 
Q 1030 436 , 1044 436 
Q 1050 436 , 1055 439 
Q 1060 441 , 1065 447 
" fill="lightgray" />
<path d="
M 1107 526 
L 1107 498 
L 1093 498 
L 1093 486 
L 1115 486 
L 1115 533 
Q 1110 537 , 1104 539 
Q 1099 541 , 1093 541 
Q 1080 541 , 1073 527 
Q 1065 513 , 1065 489 
Q 1065 464 , 1073 450 
Q 1080 436 , 1093 436 
Q 1099 436 , 1104 438 
Q 1109 440 , 1114 444 
L 1114 458 
Q 1107 452 , 1103 450 
Q 1099 449 , 1094 449 
Q 1084 449 , 1078 458 
Q 1073 468 , 1073 489 
Q 1073 509 , 1078 519 
Q 1084 529 , 1094 529 
Q 1099 529 , 1102 528 
Q 1106 527 , 1107 526 
" fill="#F5C000" />
<path d="
M 1057 417 
L 1057 382 
L 1043 382 
L 1043 368 
L 1065 368 
L 1065 425 
Q 1060 431 , 1054 433 
Q 1049 435 , 1043 435 
Q 1030 435 , 1023 418 
Q 1015 401 , 1015 371 
Q 1015 341 , 1023 323 
Q 1030 306 , 1043 306 
Q 1049 306 , 1054 308 
Q 1059 311 , 1064 316 
L 1064 333 
Q 1057 326 , 1053 323 
Q 1049 321 , 1044 321 
Q 1034 321 , 1028 333 
Q 1023 346 , 1023 371 
Q 1023 396 , 1028 409 
Q 1034 421 , 1044 421 
Q 1049 421 , 1052 420 
Q 1056 418 , 1057 417 
" fill="lightgray" />
<path d="
M 1115 320 
L 1115 340 
Q 1108 327 , 1104 324 
Q 1099 320 , 1094 320 
Q 1084 320 , 1079 333 
Q 1073 346 , 1073 371 
Q 1073 396 , 1079 409 
Q 1084 421 , 1094 421 
Q 1099 421 , 1104 418 
Q 1108 414 , 1115 402 
L 1115 422 
Q 1110 429 , 1104 432 
Q 1100 435 , 1094 435 
Q 1080 435 , 1073 418 
Q 1065 400 , 1065 371 
Q 1065 341 , 1073 324 
Q 1080 306 , 1094 306 
Q 1100 306 , 1105 309 
Q 1110 312 , 1115 320 
" fill="#545FFF" />
<path d="
M 1120 552 
L 1138 552 
L 1138 554 
Q 1138 554 , 1146 554 
Q 1153 555 , 1170 555 
Q 1187 555 , 1195 554 
Q 1202 554 , 1202 554 
L 1202 552 
L 1220 552 
L 1220 554 
Q 1220 554 , 1207 555 
Q 1195 555 , 1170 555 
Q 1146 555 , 1133 555 
Q 1120 554 , 1120 554 
L 1120 552 
" fill="#D21010" />
<path d="
M 1204 550 
L 1204 548 
L 1175 548 
L 1175 547 
L 1220 547 
L 1220 551 
Q 1209 551 , 1198 551 
Q 1189 551 , 1177 551 
Q 1151 551 , 1135 550 
Q 1120 549 , 1120 547 
Q 1120 545 , 1135 544 
Q 1151 543 , 1177 543 
Q 1188 543 , 1197 543 
Q 1207 543 , 1217 544 
L 1217 545 
Q 1204 544 , 1196 544 
Q 1187 544 , 1178 544 
Q 1157 544 , 1146 545 
Q 1136 546 , 1136 547 
Q 1136 549 , 1146 550 
Q 1157 550 , 1178 550 
Q 1187 550 , 1194 550 
Q 1201 550 , 1204 550 
" fill="#F5C000" />
<path d="
M 1220 533 
L 1220 535 
Q 1205 534 , 1197 533 
Q 1189 533 , 1179 533 
Q 1158 533 , 1148 534 
Q 1136 535 , 1136 537 
Q 1136 540 , 1148 541 
Q 1158 542 , 1179 542 
Q 1189 542 , 1197 541 
Q 1205 541 , 1220 540 
L 1220 542 
Q 1209 542 , 1199 543 
Q 1189 543 , 1178 543 
Q 1151 543 , 1136 541 
Q 1120 540 , 1120 537 
Q 1120 535 , 1136 533 
Q 1151 532 , 1178 532 
Q 1189 532 , 1199 532 
Q 1210 533 , 1220 533 
" fill="#545FFF" />
<path d="
M 1170 518 
L 1152 525 
L 1186 525 
L 1170 518 
M 1163 515 
L 1177 515 
L 1220 531 
L 1204 531 
L 1192 527 
L 1148 527 
L 1135 531 
L 1120 531 
L 1163 515 
" fill="#339541" />
<path d="
M 1225 552 
L 1234 552 
L 1234 554 
Q 1234 554 , 1238 554 
Q 1241 554 , 1250 554 
Q 1259 554 , 1262 554 
Q 1266 554 , 1266 554 
L 1266 552 
L 1275 552 
L 1275 554 
Q 1275 554 , 1269 554 
Q 1262 555 , 1250 555 
Q 1238 555 , 1231 554 
Q 1225 554 , 1225 554 
L 1225 552 
" fill="lightgray" />
<path d="
M 1300 553 
L 1291 554 
L 1308 554 
L 1300 553 
M 1296 552 
L 1304 552 
L 1325 555 
L 1317 555 
L 1311 554 
L 1289 554 
L 1282 555 
L 1275 555 
L 1296 552 
" fill="#339541" />
<path d="
M 1267 551 
L 1267 550 
L 1253 550 
L 1253 549 
L 1275 549 
L 1275 551 
Q 1270 552 , 1264 552 
Q 1259 552 , 1253 552 
Q 1240 552 , 1233 551 
Q 1225 550 , 1225 549 
Q 1225 548 , 1233 548 
Q 1240 547 , 1253 547 
Q 1259 547 , 1264 547 
Q 1269 547 , 1274 547 
L 1274 548 
Q 1267 548 , 1263 548 
Q 1259 548 , 1254 548 
Q 1244 548 , 1238 548 
Q 1233 548 , 1233 549 
Q 1233 550 , 1238 551 
Q 1244 551 , 1254 551 
Q 1259 551 , 1262 551 
Q 1266 551 , 1267 551 
" fill="lightgray" />
<path d="
M 1275 547 
L 1284 547 
L 1284 550 
Q 1284 551 , 1288 551 
Q 1291 551 , 1300 551 
Q 1309 551 , 1312 551 
Q 1316 551 , 1316 550 
L 1316 547 
L 1325 547 
L 1325 550 
Q 1325 551 , 1319 551 
Q 1312 552 , 1300 552 
Q 1288 552 , 1281 551 
Q 1275 551 , 1275 550 
L 1275 547 
" fill="#D21010" />
<path d="
M 1250 542 
L 1241 544 
L 1258 544 
L 1250 542 
M 1246 541 
L 1254 541 
L 1275 547 
L 1267 547 
L 1261 545 
L 1239 545 
L 1232 547 
L 1225 547 
L 1246 541 
" fill="lightgray" />
<path d="
M 1275 541 
L 1284 541 
L 1284 544 
Q 1284 545 , 1288 546 
Q 1291 546 , 1300 546 
Q 1309 546 , 1312 546 
Q 1316 545 , 1316 544 
L 1316 541 
L 1325 541 
L 1325 544 
Q 1325 546 , 1319 546 
Q 1312 547 , 1300 547 
Q 1288 547 , 1281 546 
Q 1275 546 , 1275 544 
L 1275 541 
" fill="#D21010" />
<path d="
M 1267 539 
L 1267 535 
L 1253 535 
L 1253 534 
L 1275 534 
L 1275 540 
Q 1270 540 , 1264 541 
Q 1259 541 , 1253 541 
Q 1240 541 , 1233 539 
Q 1225 537 , 1225 534 
Q 1225 531 , 1233 530 
Q 1240 528 , 1253 528 
Q 1259 528 , 1264 528 
Q 1269 528 , 1274 529 
L 1274 531 
Q 1267 530 , 1263 530 
Q 1259 530 , 1254 530 
Q 1244 530 , 1238 531 
Q 1233 532 , 1233 534 
Q 1233 537 , 1238 538 
Q 1244 539 , 1254 539 
Q 1259 539 , 1262 539 
Q 1266 539 , 1267 539 
" fill="lightgray" />
<path d="
M 1325 529 
L 1325 531 
Q 1318 530 , 1314 530 
Q 1309 529 , 1304 529 
Q 1294 529 , 1289 531 
Q 1283 532 , 1283 534 
Q 1283 537 , 1289 538 
Q 1294 539 , 1304 539 
Q 1309 539 , 1314 539 
Q 1318 539 , 1325 537 
L 1325 539 
Q 1320 540 , 1314 540 
Q 1310 541 , 1304 541 
Q 1290 541 , 1283 539 
Q 1275 537 , 1275 534 
Q 1275 531 , 1283 530 
Q 1290 528 , 1304 528 
Q 1310 528 , 1315 528 
Q 1320 529 , 1325 529 
" fill="#545FFF" />
<path d="
M 1225 513 
L 1234 513 
L 1234 522 
Q 1234 524 , 1238 525 
Q 1241 526 , 1250 526 
Q 1259 526 , 1262 525 
Q 1266 524 , 1266 522 
L 1266 513 
L 1275 513 
L 1275 522 
Q 1275 525 , 1269 526 
Q 1262 528 , 1250 528 
Q 1238 528 , 1231 526 
Q 1225 525 , 1225 522 
L 1225 513 
" fill="lightgray" />
<path d="
M 1317 525 
L 1317 522 
L 1303 522 
L 1303 520 
L 1325 520 
L 1325 526 
Q 1320 527 , 1314 527 
Q 1309 528 , 1303 528 
Q 1290 528 , 1283 526 
Q 1275 524 , 1275 520 
Q 1275 517 , 1283 515 
Q 1290 513 , 1303 513 
Q 1309 513 , 1314 513 
Q 1319 514 , 1324 514 
L 1324 516 
Q 1317 515 , 1313 515 
Q 1309 515 , 1304 515 
Q 1294 515 , 1288 516 
Q 1283 517 , 1283 520 
Q 1283 523 , 1288 525 
Q 1294 526 , 1304 526 
Q 1309 526 , 1312 526 
Q 1316 526 , 1317 525 
" fill="#F5C000" />
<path d="
M 1275 491 
L 1275 494 
Q 1268 492 , 1264 491 
Q 1259 491 , 1254 491 
Q 1244 491 , 1239 493 
Q 1233 496 , 1233 500 
Q 1233 505 , 1239 508 
Q 1244 510 , 1254 510 
Q 1259 510 , 1264 509 
Q 1268 509 , 1275 506 
L 1275 510 
Q 1270 512 , 1264 512 
Q 1260 513 , 1254 513 
Q 1240 513 , 1233 509 
Q 1225 506 , 1225 500 
Q 1225 495 , 1233 491 
Q 1240 488 , 1254 488 
Q 1260 488 , 1265 489 
Q 1270 489 , 1275 491 
" fill="lightgray" />
<path d="
M 1317 509 
L 1317 503 
L 1303 503 
L 1303 500 
L 1325 500 
L 1325 511 
Q 1320 512 , 1314 512 
Q 1309 513 , 1303 513 
Q 1290 513 , 1283 509 
Q 1275 506 , 1275 500 
Q 1275 495 , 1283 491 
Q 1290 488 , 1303 488 
Q 1309 488 , 1314 488 
Q 1319 489 , 1324 490 
L 1324 493 
Q 1317 492 , 1313 491 
Q 1309 491 , 1304 491 
Q 1294 491 , 1288 493 
Q 1283 496 , 1283 500 
Q 1283 505 , 1288 508 
Q 1294 510 , 1304 510 
Q 1309 510 , 1312 510 
Q 1316 510 , 1317 509 
" fill="#F5C000" />
<path d="
M 1380 554 
L 1362 554 
L 1396 554 
L 1380 554 
M 1373 554 
L 1387 554 
L 1430 554 
L 1414 554 
L 1402 554 
L 1358 554 
L 1345 554 
L 1330 554 
L 1373 554 
" fill="#339541" />
<path d="
M 1330 553 
L 1348 553 
L 1348 553 
Q 1348 553 , 1356 553 
Q 1363 553 , 1380 553 
Q 1397 553 , 1405 553 
Q 1412 553 , 1412 553 
L 1412 553 
L 1430 553 
L 1430 553 
Q 1430 553 , 1417 553 
Q 1405 553 , 1380 553 
Q 1356 553 , 1343 553 
Q 1330 553 , 1330 553 
L 1330 553 
" fill="#D21010" />
<path d="
M 1430 552 
L 1430 552 
Q 1415 552 , 1407 552 
Q 1399 552 , 1389 552 
Q 1368 552 , 1358 552 
Q 1346 552 , 1346 552 
Q 1346 552 , 1358 552 
Q 1368 552 , 1389 552 
Q 1399 552 , 1407 552 
Q 1415 552 , 1430 552 
L 1430 552 
Q 1419 552 , 1409 552 
Q 1399 552 , 1388 552 
Q 1361 552 , 1346 552 
Q 1330 552 , 1330 552 
Q 1330 552 , 1346 552 
Q 1361 552 , 1388 552 
Q 1399 552 , 1409 552 
Q 1420 552 , 1430 552 
" fill="#545FFF" />
<path d="
M 1414 551 
L 1414 551 
L 1385 551 
L 1385 551 
L 1430 551 
L 1430 551 
Q 1419 551 , 1408 551 
Q 1399 551 , 1387 551 
Q 1361 551 , 1345 551 
Q 1330 551 , 1330 551 
Q 1330 551 , 1345 551 
Q 1361 551 , 1387 551 
Q 1398 551 , 1407 551 
Q 1417 551 , 1427 551 
L 1427 551 
Q 1414 551 , 1406 551 
Q 1397 551 , 1388 551 
Q 1367 551 , 1356 551 
Q 1346 551 , 1346 551 
Q 1346 551 , 1356 551 
Q 1367 551 , 1388 551 
Q 1397 551 , 1404 551 
Q 1411 551 , 1414 551 
" fill="#F5C000" />
<path d="M 65 168 L 65 555 " stroke="black" stroke-width="1.5"/>
<path d="M 55 555 L 65 555 " stroke="black" stroke-width="4"/>
<text text-anchor="end" x="50" y="555" font-size="50" alignment-baseline="middle">0</text>
<path d="M 55 362 L 65 362 " stroke="black" stroke-width="4"/>
<text text-anchor="end" x="50" y="362" font-size="50" alignment-baseline="middle">1</text>
<path d="M 55 168 L 65 168 " stroke="black" stroke-width="4"/>
<text text-anchor="end" x="50" y="168" font-size="50" alignment-baseline="middle">2</text>
<text text-anchor="middle" x="750" y="50" font-size="50" alignment-baseline="baseline"></text>
G<path d="
M 160 582 
L 126 595 
L 160 608 
L 157 611 
L 123 598 
L 123 623 
L 117 623 
L 117 599 
L 83 611 
L 80 608 
L 114 595 
L 80 582 
L 83 579 
L 117 591 
L 117 567 
L 123 567 
L 123 591 
L 157 579 
L 160 582 
" fill="black" />
<path d="
" fill="black" />
<path d="
M 211 567 
L 238 567 
L 238 623 
L 211 623 
L 211 567 
" fill="black" />
<path d="
" fill="black" />
<path d="
M 370 567 
Q 341 574 , 328 581 
Q 315 588 , 315 595 
Q 315 602 , 328 609 
Q 341 616 , 370 623 
L 346 623 
Q 318 616 , 304 609 
Q 290 602 , 290 595 
Q 290 588 , 304 581 
Q 318 574 , 346 567 
L 370 567 
" fill="black" />
<path d="
" fill="black" />
<path d="
M 421 567 
L 448 567 
L 448 623 
L 421 623 
L 421 567 
" fill="black" />
<path d="
" fill="black" />
<path d="
M 580 567 
Q 551 574 , 538 581 
Q 525 588 , 525 595 
Q 525 602 , 538 609 
Q 551 616 , 580 623 
L 556 623 
Q 528 616 , 514 609 
Q 500 602 , 500 595 
Q 500 588 , 514 581 
Q 528 574 , 556 567 
L 580 567 
" fill="black" />
<path d="
" fill="black" />
<path d="
M 622 567 
L 642 567 
L 642 623 
L 622 623 
L 622 567 
" fill="black" />
<path d="
" fill="black" />
<path d="
M 674 621 
L 674 616 
Q 675 618 , 677 619 
Q 678 619 , 680 619 
Q 686 619 , 688 609 
Q 689 604 , 689 595 
Q 689 597 , 687 600 
Q 685 603 , 681 603 
Q 677 603 , 675 598 
Q 672 593 , 672 586 
Q 672 577 , 675 572 
Q 677 567 , 682 567 
Q 687 567 , 689 574 
Q 692 581 , 692 595 
Q 692 609 , 689 616 
Q 685 623 , 680 623 
Q 678 623 , 677 622 
Q 675 622 , 674 621 
M 676 595 
Q 678 599 , 681 599 
Q 685 599 , 687 595 
Q 689 591 , 689 584 
Q 689 578 , 687 574 
Q 685 571 , 681 571 
Q 678 571 , 676 574 
Q 675 578 , 675 584 
Q 675 591 , 676 595 
" fill="black" />
<path d="
M 790 582 
L 756 595 
L 790 608 
L 787 611 
L 753 598 
L 753 623 
L 747 623 
L 747 599 
L 713 611 
L 710 608 
L 744 595 
L 710 582 
L 713 579 
L 747 591 
L 747 567 
L 753 567 
L 753 591 
L 787 579 
L 790 582 
" fill="black" />
<path d="
" fill="black" />
<path d="
M 841 567 
L 868 567 
L 868 623 
L 841 623 
L 841 567 
" fill="black" />
<path d="
" fill="black" />
<path d="
" fill="black" />
<path d="
M 946 567 
L 973 567 
L 973 623 
L 946 623 
L 946 567 
" fill="black" />
<path d="
" fill="black" />
<path d="
M 1025 567 
L 1049 567 
Q 1077 574 , 1091 581 
Q 1105 588 , 1105 595 
Q 1105 602 , 1091 609 
Q 1077 616 , 1049 623 
L 1025 623 
Q 1054 616 , 1067 609 
Q 1080 602 , 1080 595 
Q 1080 588 , 1067 581 
Q 1054 574 , 1025 567 
" fill="black" />
<path d="
" fill="black" />
<path d="
M 1156 567 
L 1183 567 
L 1183 623 
L 1156 623 
L 1156 567 
" fill="black" />
<path d="
" fill="black" />
<path d="
M 1235 567 
L 1259 567 
Q 1287 574 , 1301 581 
Q 1315 588 , 1315 595 
Q 1315 602 , 1301 609 
Q 1287 616 , 1259 623 
L 1235 623 
Q 1264 616 , 1277 609 
Q 1290 602 , 1290 595 
Q 1290 588 , 1277 581 
Q 1264 574 , 1235 567 
" fill="black" />
<path d="
M 1420 582 
L 1386 595 
L 1420 608 
L 1417 611 
L 1383 598 
L 1383 623 
L 1377 623 
L 1377 599 
L 1343 611 
L 1340 608 
L 1374 595 
L 1340 582 
L 1343 579 
L 1377 591 
L 1377 567 
L 1383 567 
L 1383 591 
L 1417 579 
L 1420 582 
" fill="black" />
</svg>
