<svg xmlns="http://www.w3.org/2000/svg"
viewBox="0 0 1330 635">
<path d="
M 120 554 
L 102 554 
L 136 554 
L 120 554 
M 113 554 
L 127 554 
L 170 555 
L 154 555 
L 142 554 
L 98 554 
L 85 555 
L 70 555 
L 113 554 
" fill="#339541" />
<path d="
M 70 553 
L 88 553 
L 88 553 
Q 88 554 , 96 554 
Q 103 554 , 120 554 
Q 137 554 , 145 554 
Q 152 554 , 152 553 
L 152 553 
L 170 553 
L 170 553 
Q 170 554 , 157 554 
Q 145 554 , 120 554 
Q 96 554 , 83 554 
Q 70 554 , 70 553 
L 70 553 
" fill="#D21010" />
<path d="
M 170 552 
L 170 552 
Q 155 552 , 147 552 
Q 139 552 , 129 552 
Q 108 552 , 98 552 
Q 86 552 , 86 552 
Q 86 553 , 98 553 
Q 108 553 , 129 553 
Q 139 553 , 147 553 
Q 155 553 , 170 553 
L 170 553 
Q 159 553 , 149 553 
Q 139 553 , 128 553 
Q 101 553 , 86 553 
Q 70 553 , 70 552 
Q 70 552 , 86 552 
Q 101 552 , 128 552 
Q 139 552 , 149 552 
Q 160 552 , 170 552 
" fill="#545FFF" />
<path d="
M 154 552 
L 154 552 
L 125 552 
L 125 551 
L 170 551 
L 170 552 
Q 159 552 , 148 552 
Q 139 552 , 127 552 
Q 101 552 , 85 552 
Q 70 552 , 70 551 
Q 70 551 , 85 551 
Q 101 551 , 127 551 
Q 138 551 , 147 551 
Q 157 551 , 167 551 
L 167 551 
Q 154 551 , 146 551 
Q 137 551 , 128 551 
Q 107 551 , 96 551 
Q 86 551 , 86 551 
Q 86 552 , 96 552 
Q 107 552 , 128 552 
Q 137 552 , 144 552 
Q 151 552 , 154 552 
" fill="#F5C000" />
<path d="
M 175 552 
L 184 552 
L 184 554 
Q 184 554 , 188 554 
Q 191 554 , 200 554 
Q 209 554 , 212 554 
Q 216 554 , 216 554 
L 216 552 
L 225 552 
L 225 554 
Q 225 554 , 219 554 
Q 212 555 , 200 555 
Q 188 555 , 181 554 
Q 175 554 , 175 554 
L 175 552 
" fill="#D21010" />
<path d="
M 250 552 
L 241 554 
L 258 554 
L 250 552 
M 246 552 
L 254 552 
L 275 555 
L 267 555 
L 261 554 
L 239 554 
L 232 555 
L 225 555 
L 246 552 
" fill="lightgray" />
<path d="
M 200 550 
L 191 551 
L 208 551 
L 200 550 
M 196 549 
L 204 549 
L 225 552 
L 217 552 
L 211 551 
L 189 551 
L 182 552 
L 175 552 
L 196 549 
" fill="#339541" />
<path d="
M 225 549 
L 234 549 
L 234 551 
Q 234 551 , 238 551 
Q 241 552 , 250 552 
Q 259 552 , 262 551 
Q 266 551 , 266 551 
L 266 549 
L 275 549 
L 275 551 
Q 275 551 , 269 552 
Q 262 552 , 250 552 
Q 238 552 , 231 552 
Q 225 551 , 225 551 
L 225 549 
" fill="lightgray" />
<path d="
M 217 547 
L 217 544 
L 203 544 
L 203 543 
L 225 543 
L 225 547 
Q 220 548 , 214 548 
Q 209 548 , 203 548 
Q 190 548 , 183 547 
Q 175 546 , 175 544 
Q 175 541 , 183 540 
Q 190 539 , 203 539 
Q 209 539 , 214 539 
Q 219 539 , 224 540 
L 224 541 
Q 217 540 , 213 540 
Q 209 540 , 204 540 
Q 194 540 , 188 541 
Q 183 542 , 183 544 
Q 183 545 , 188 546 
Q 194 547 , 204 547 
Q 209 547 , 212 547 
Q 216 547 , 217 547 
" fill="#F5C000" />
<path d="
M 225 539 
L 234 539 
L 234 544 
Q 234 546 , 238 546 
Q 241 547 , 250 547 
Q 259 547 , 262 546 
Q 266 546 , 266 544 
L 266 539 
L 275 539 
L 275 545 
Q 275 546 , 269 547 
Q 262 548 , 250 548 
Q 238 548 , 231 547 
Q 225 546 , 225 545 
L 225 539 
" fill="lightgray" />
<path d="
M 175 528 
L 184 528 
L 184 534 
Q 184 536 , 188 536 
Q 191 537 , 200 537 
Q 209 537 , 212 536 
Q 216 536 , 216 534 
L 216 528 
L 225 528 
L 225 534 
Q 225 536 , 219 537 
Q 212 538 , 200 538 
Q 188 538 , 181 537 
Q 175 536 , 175 534 
L 175 528 
" fill="#D21010" />
<path d="
M 267 537 
L 267 534 
L 253 534 
L 253 533 
L 275 533 
L 275 537 
Q 270 538 , 264 538 
Q 259 538 , 253 538 
Q 240 538 , 233 537 
Q 225 535 , 225 533 
Q 225 531 , 233 529 
Q 240 528 , 253 528 
Q 259 528 , 264 528 
Q 269 528 , 274 529 
L 274 530 
Q 267 530 , 263 529 
Q 259 529 , 254 529 
Q 244 529 , 238 530 
Q 233 531 , 233 533 
Q 233 535 , 238 536 
Q 244 537 , 254 537 
Q 259 537 , 262 537 
Q 266 537 , 267 537 
" fill="lightgray" />
<path d="
M 225 479 
L 225 487 
Q 218 482 , 214 480 
Q 209 479 , 204 479 
Q 194 479 , 189 484 
Q 183 490 , 183 500 
Q 183 511 , 189 516 
Q 194 522 , 204 522 
Q 209 522 , 214 520 
Q 218 519 , 225 513 
L 225 522 
Q 220 525 , 214 526 
Q 210 528 , 204 528 
Q 190 528 , 183 520 
Q 175 513 , 175 500 
Q 175 488 , 183 480 
Q 190 473 , 204 473 
Q 210 473 , 215 474 
Q 220 476 , 225 479 
" fill="#545FFF" />
<path d="
M 267 520 
L 267 505 
L 253 505 
L 253 499 
L 275 499 
L 275 523 
Q 270 526 , 264 527 
Q 259 528 , 253 528 
Q 240 528 , 233 520 
Q 225 513 , 225 500 
Q 225 488 , 233 480 
Q 240 473 , 253 473 
Q 259 473 , 264 474 
Q 269 475 , 274 477 
L 274 484 
Q 267 481 , 263 480 
Q 259 480 , 254 480 
Q 244 480 , 238 485 
Q 233 490 , 233 500 
Q 233 511 , 238 516 
Q 244 522 , 254 522 
Q 259 522 , 262 521 
Q 266 520 , 267 520 
" fill="lightgray" />
<path d="
M 217 454 
L 217 420 
L 203 420 
L 203 406 
L 225 406 
L 225 462 
Q 220 468 , 214 470 
Q 209 472 , 203 472 
Q 190 472 , 183 455 
Q 175 439 , 175 409 
Q 175 380 , 183 363 
Q 190 346 , 203 346 
Q 209 346 , 214 348 
Q 219 351 , 224 356 
L 224 372 
Q 217 365 , 213 363 
Q 209 361 , 204 361 
Q 194 361 , 188 373 
Q 183 385 , 183 409 
Q 183 434 , 188 446 
Q 194 458 , 204 458 
Q 209 458 , 212 457 
Q 216 456 , 217 454 
" fill="#F5C000" />
<path d="
M 275 359 
L 275 379 
Q 268 366 , 264 363 
Q 259 360 , 254 360 
Q 244 360 , 239 372 
Q 233 385 , 233 409 
Q 233 434 , 239 446 
Q 244 458 , 254 458 
Q 259 458 , 264 455 
Q 268 452 , 275 439 
L 275 459 
Q 270 466 , 264 469 
Q 260 472 , 254 472 
Q 240 472 , 233 455 
Q 225 438 , 225 409 
Q 225 380 , 233 363 
Q 240 346 , 254 346 
Q 260 346 , 265 349 
Q 270 352 , 275 359 
" fill="lightgray" />
<path d="
M 330 554 
L 312 554 
L 346 554 
L 330 554 
M 323 554 
L 337 554 
L 380 555 
L 364 555 
L 352 555 
L 308 555 
L 295 555 
L 280 555 
L 323 554 
" fill="#339541" />
<path d="
M 364 552 
L 364 550 
L 335 550 
L 335 549 
L 380 549 
L 380 553 
Q 369 554 , 358 554 
Q 349 554 , 337 554 
Q 311 554 , 295 553 
Q 280 551 , 280 549 
Q 280 547 , 295 545 
Q 311 544 , 337 544 
Q 348 544 , 357 544 
Q 367 544 , 377 545 
L 377 546 
Q 364 545 , 356 545 
Q 347 545 , 338 545 
Q 317 545 , 306 546 
Q 296 547 , 296 549 
Q 296 551 , 306 552 
Q 317 553 , 338 553 
Q 347 553 , 354 553 
Q 361 553 , 364 552 
" fill="#F5C000" />
<path d="
M 280 505 
L 298 505 
L 298 528 
Q 298 534 , 306 537 
Q 313 539 , 330 539 
Q 347 539 , 355 537 
Q 362 534 , 362 528 
L 362 505 
L 380 505 
L 380 528 
Q 380 536 , 367 539 
Q 355 543 , 330 543 
Q 306 543 , 293 539 
Q 280 536 , 280 528 
L 280 505 
" fill="#D21010" />
<path d="
M 380 389 
L 380 409 
Q 365 396 , 357 393 
Q 349 389 , 339 389 
Q 318 389 , 308 402 
Q 296 415 , 296 440 
Q 296 465 , 308 478 
Q 318 490 , 339 490 
Q 349 490 , 357 487 
Q 365 484 , 380 471 
L 380 491 
Q 369 499 , 359 502 
Q 349 504 , 338 504 
Q 311 504 , 296 487 
Q 280 470 , 280 440 
Q 280 410 , 296 393 
Q 311 375 , 338 375 
Q 349 375 , 359 378 
Q 370 381 , 380 389 
" fill="#545FFF" />
<path d="
M 435 552 
L 417 553 
L 451 553 
L 435 552 
M 428 551 
L 442 551 
L 485 555 
L 469 555 
L 457 554 
L 413 554 
L 400 555 
L 385 555 
L 428 551 
" fill="#339541" />
<path d="
M 469 549 
L 469 547 
L 440 547 
L 440 546 
L 485 546 
L 485 550 
Q 474 550 , 463 550 
Q 454 551 , 442 551 
Q 416 551 , 400 549 
Q 385 548 , 385 546 
Q 385 544 , 400 543 
Q 416 542 , 442 542 
Q 453 542 , 462 542 
Q 472 542 , 482 543 
L 482 544 
Q 469 543 , 461 543 
Q 452 543 , 443 543 
Q 422 543 , 411 544 
Q 401 545 , 401 546 
Q 401 548 , 411 549 
Q 422 550 , 443 550 
Q 452 550 , 459 550 
Q 466 549 , 469 549 
" fill="#F5C000" />
<path d="
M 485 519 
L 485 523 
Q 470 520 , 462 519 
Q 454 519 , 444 519 
Q 423 519 , 413 521 
Q 401 524 , 401 529 
Q 401 534 , 413 536 
Q 423 539 , 444 539 
Q 454 539 , 462 538 
Q 470 537 , 485 535 
L 485 539 
Q 474 540 , 464 541 
Q 454 542 , 443 542 
Q 416 542 , 401 538 
Q 385 535 , 385 529 
Q 385 523 , 401 519 
Q 416 516 , 443 516 
Q 454 516 , 464 517 
Q 475 517 , 485 519 
" fill="#545FFF" />
<path d="
M 385 480 
L 403 480 
L 403 501 
Q 403 507 , 411 509 
Q 418 512 , 435 512 
Q 452 512 , 460 509 
Q 467 507 , 467 501 
L 467 480 
L 485 480 
L 485 502 
Q 485 508 , 472 512 
Q 460 516 , 435 516 
Q 411 516 , 398 512 
Q 385 508 , 385 502 
L 385 480 
" fill="#D21010" />
<path d="
M 490 550 
L 508 550 
L 508 553 
Q 508 553 , 516 554 
Q 523 554 , 540 554 
Q 557 554 , 565 554 
Q 572 553 , 572 553 
L 572 550 
L 590 550 
L 590 553 
Q 590 554 , 577 554 
Q 565 554 , 540 554 
Q 516 554 , 503 554 
Q 490 554 , 490 553 
L 490 550 
" fill="#D21010" />
<path d="
M 540 542 
L 522 546 
L 556 546 
L 540 542 
M 533 541 
L 547 541 
L 590 549 
L 574 549 
L 562 547 
L 518 547 
L 505 549 
L 490 549 
L 533 541 
" fill="#339541" />
<path d="
M 590 516 
L 590 520 
Q 575 517 , 567 517 
Q 559 516 , 549 516 
Q 528 516 , 518 519 
Q 506 521 , 506 526 
Q 506 532 , 518 535 
Q 528 538 , 549 538 
Q 559 538 , 567 537 
Q 575 536 , 590 533 
L 590 538 
Q 579 539 , 569 540 
Q 559 541 , 548 541 
Q 521 541 , 506 537 
Q 490 533 , 490 527 
Q 490 520 , 506 517 
Q 521 513 , 548 513 
Q 559 513 , 569 514 
Q 580 514 , 590 516 
" fill="#545FFF" />
<path d="
M 574 506 
L 574 494 
L 545 494 
L 545 490 
L 590 490 
L 590 509 
Q 579 511 , 568 511 
Q 559 512 , 547 512 
Q 521 512 , 505 506 
Q 490 501 , 490 491 
Q 490 481 , 505 475 
Q 521 469 , 547 469 
Q 558 469 , 567 470 
Q 577 471 , 587 472 
L 587 478 
Q 574 476 , 566 475 
Q 557 474 , 548 474 
Q 527 474 , 516 478 
Q 506 482 , 506 491 
Q 506 499 , 516 503 
Q 527 507 , 548 507 
Q 557 507 , 564 507 
Q 571 506 , 574 506 
" fill="#F5C000" />
<path d="
M 695 551 
L 695 552 
Q 680 552 , 672 551 
Q 664 551 , 654 551 
Q 633 551 , 623 552 
Q 611 552 , 611 553 
Q 611 554 , 623 554 
Q 633 554 , 654 554 
Q 664 554 , 672 554 
Q 680 554 , 695 554 
L 695 554 
Q 684 554 , 674 555 
Q 664 555 , 653 555 
Q 626 555 , 611 554 
Q 595 554 , 595 553 
Q 595 552 , 611 551 
Q 626 551 , 653 551 
Q 664 551 , 674 551 
Q 685 551 , 695 551 
" fill="#545FFF" />
<path d="
M 679 550 
L 679 548 
L 650 548 
L 650 548 
L 695 548 
L 695 550 
Q 684 551 , 673 551 
Q 664 551 , 652 551 
Q 626 551 , 610 550 
Q 595 549 , 595 548 
Q 595 547 , 610 546 
Q 626 545 , 652 545 
Q 663 545 , 672 545 
Q 682 545 , 692 545 
L 692 546 
Q 679 546 , 671 546 
Q 662 546 , 653 546 
Q 632 546 , 621 546 
Q 611 547 , 611 548 
Q 611 549 , 621 550 
Q 632 550 , 653 550 
Q 662 550 , 669 550 
Q 676 550 , 679 550 
" fill="#F5C000" />
<path d="
M 595 538 
L 613 538 
L 613 542 
Q 613 543 , 621 543 
Q 628 544 , 645 544 
Q 662 544 , 670 543 
Q 677 543 , 677 542 
L 677 538 
L 695 538 
L 695 542 
Q 695 543 , 682 544 
Q 670 545 , 645 545 
Q 621 545 , 608 544 
Q 595 543 , 595 542 
L 595 538 
" fill="#D21010" />
<path d="
M 645 527 
L 627 532 
L 661 532 
L 645 527 
M 638 525 
L 652 525 
L 695 538 
L 679 538 
L 667 534 
L 623 534 
L 610 538 
L 595 538 
L 638 525 
" fill="#339541" />
<path d="
M 784 554 
L 784 553 
L 755 553 
L 755 553 
L 800 553 
L 800 555 
Q 789 555 , 778 555 
Q 769 555 , 757 555 
Q 731 555 , 715 554 
Q 700 554 , 700 553 
Q 700 552 , 715 552 
Q 731 551 , 757 551 
Q 768 551 , 777 551 
Q 787 551 , 797 551 
L 797 552 
Q 784 552 , 776 552 
Q 767 551 , 758 551 
Q 737 551 , 726 552 
Q 716 552 , 716 553 
Q 716 554 , 726 554 
Q 737 554 , 758 554 
Q 767 554 , 774 554 
Q 781 554 , 784 554 
" fill="#F5C000" />
<path d="
M 800 546 
L 800 546 
Q 785 546 , 777 546 
Q 769 546 , 759 546 
Q 738 546 , 728 546 
Q 716 547 , 716 548 
Q 716 549 , 728 549 
Q 738 550 , 759 550 
Q 769 550 , 777 550 
Q 785 549 , 800 549 
L 800 550 
Q 789 550 , 779 550 
Q 769 550 , 758 550 
Q 731 550 , 716 550 
Q 700 549 , 700 548 
Q 700 546 , 716 546 
Q 731 545 , 758 545 
Q 769 545 , 779 545 
Q 790 545 , 800 546 
" fill="#545FFF" />
<path d="
M 700 535 
L 718 535 
L 718 541 
Q 718 542 , 726 543 
Q 733 544 , 750 544 
Q 767 544 , 775 543 
Q 782 542 , 782 541 
L 782 535 
L 800 535 
L 800 541 
Q 800 543 , 787 544 
Q 775 545 , 750 545 
Q 726 545 , 713 544 
Q 700 543 , 700 541 
L 700 535 
" fill="#D21010" />
<path d="
M 750 523 
L 732 528 
L 766 528 
L 750 523 
M 743 520 
L 757 520 
L 800 534 
L 784 534 
L 772 530 
L 728 530 
L 715 534 
L 700 534 
L 743 520 
" fill="#339541" />
<path d="
M 805 547 
L 823 547 
L 823 551 
Q 823 553 , 831 553 
Q 838 554 , 855 554 
Q 872 554 , 880 553 
Q 887 553 , 887 551 
L 887 547 
L 905 547 
L 905 552 
Q 905 553 , 892 554 
Q 880 554 , 855 554 
Q 831 554 , 818 554 
Q 805 553 , 805 552 
L 805 547 
" fill="#D21010" />
<path d="
M 889 546 
L 889 543 
L 860 543 
L 860 542 
L 905 542 
L 905 546 
Q 894 547 , 883 547 
Q 874 547 , 862 547 
Q 836 547 , 820 546 
Q 805 544 , 805 542 
Q 805 540 , 820 538 
Q 836 537 , 862 537 
Q 873 537 , 882 537 
Q 892 537 , 902 538 
L 902 539 
Q 889 539 , 881 538 
Q 872 538 , 863 538 
Q 842 538 , 831 539 
Q 821 540 , 821 542 
Q 821 544 , 831 545 
Q 842 546 , 863 546 
Q 872 546 , 879 546 
Q 886 546 , 889 546 
" fill="#F5C000" />
<path d="
M 855 517 
L 837 527 
L 871 527 
L 855 517 
M 848 513 
L 862 513 
L 905 536 
L 889 536 
L 877 529 
L 833 529 
L 820 536 
L 805 536 
L 848 513 
" fill="#339541" />
<path d="
M 905 418 
L 905 434 
Q 890 424 , 882 421 
Q 874 419 , 864 419 
Q 843 419 , 833 429 
Q 821 439 , 821 459 
Q 821 480 , 833 491 
Q 843 501 , 864 501 
Q 874 501 , 882 498 
Q 890 495 , 905 485 
L 905 502 
Q 894 507 , 884 510 
Q 874 512 , 863 512 
Q 836 512 , 821 498 
Q 805 484 , 805 460 
Q 805 435 , 821 421 
Q 836 407 , 863 407 
Q 874 407 , 884 410 
Q 895 412 , 905 418 
" fill="#545FFF" />
<path d="
M 994 554 
L 994 553 
L 965 553 
L 965 552 
L 1010 552 
L 1010 554 
Q 999 554 , 988 555 
Q 979 555 , 967 555 
Q 941 555 , 925 554 
Q 910 553 , 910 552 
Q 910 551 , 925 551 
Q 941 550 , 967 550 
Q 978 550 , 987 550 
Q 997 550 , 1007 550 
L 1007 551 
Q 994 551 , 986 551 
Q 977 551 , 968 551 
Q 947 551 , 936 551 
Q 926 551 , 926 552 
Q 926 553 , 936 554 
Q 947 554 , 968 554 
Q 977 554 , 984 554 
Q 991 554 , 994 554 
" fill="#F5C000" />
<path d="
M 1010 545 
L 1010 545 
Q 995 545 , 987 545 
Q 979 545 , 969 545 
Q 948 545 , 938 545 
Q 926 546 , 926 547 
Q 926 548 , 938 549 
Q 948 549 , 969 549 
Q 979 549 , 987 549 
Q 995 549 , 1010 548 
L 1010 549 
Q 999 549 , 989 550 
Q 979 550 , 968 550 
Q 941 550 , 926 549 
Q 910 548 , 910 547 
Q 910 546 , 926 545 
Q 941 544 , 968 544 
Q 979 544 , 989 544 
Q 1000 544 , 1010 545 
" fill="#545FFF" />
<path d="
M 960 531 
L 942 537 
L 976 537 
L 960 531 
M 953 528 
L 967 528 
L 1010 543 
L 994 543 
L 982 539 
L 938 539 
L 925 543 
L 910 543 
L 953 528 
" fill="#339541" />
<path d="
M 910 508 
L 928 508 
L 928 519 
Q 928 523 , 936 524 
Q 943 525 , 960 525 
Q 977 525 , 985 524 
Q 992 523 , 992 519 
L 992 508 
L 1010 508 
L 1010 520 
Q 1010 523 , 997 525 
Q 985 527 , 960 527 
Q 936 527 , 923 525 
Q 910 523 , 910 520 
L 910 508 
" fill="#D21010" />
<path d="
M 1015 552 
L 1024 552 
L 1024 554 
Q 1024 554 , 1028 554 
Q 1031 554 , 1040 554 
Q 1049 554 , 1052 554 
Q 1056 554 , 1056 554 
L 1056 552 
L 1065 552 
L 1065 554 
Q 1065 554 , 1059 554 
Q 1052 555 , 1040 555 
Q 1028 555 , 1021 554 
Q 1015 554 , 1015 554 
L 1015 552 
" fill="lightgray" />
<path d="
M 1090 552 
L 1081 554 
L 1098 554 
L 1090 552 
M 1086 552 
L 1094 552 
L 1115 555 
L 1107 555 
L 1101 554 
L 1079 554 
L 1072 555 
L 1065 555 
L 1086 552 
" fill="#339541" />
<path d="
M 1040 550 
L 1031 551 
L 1048 551 
L 1040 550 
M 1036 549 
L 1044 549 
L 1065 552 
L 1057 552 
L 1051 551 
L 1029 551 
L 1022 552 
L 1015 552 
L 1036 549 
" fill="lightgray" />
<path d="
M 1065 549 
L 1074 549 
L 1074 551 
Q 1074 551 , 1078 551 
Q 1081 552 , 1090 552 
Q 1099 552 , 1102 551 
Q 1106 551 , 1106 551 
L 1106 549 
L 1115 549 
L 1115 551 
Q 1115 551 , 1109 552 
Q 1102 552 , 1090 552 
Q 1078 552 , 1071 552 
Q 1065 551 , 1065 551 
L 1065 549 
" fill="#D21010" />
<path d="
M 1057 547 
L 1057 544 
L 1043 544 
L 1043 543 
L 1065 543 
L 1065 547 
Q 1060 548 , 1054 548 
Q 1049 548 , 1043 548 
Q 1030 548 , 1023 547 
Q 1015 546 , 1015 544 
Q 1015 541 , 1023 540 
Q 1030 539 , 1043 539 
Q 1049 539 , 1054 539 
Q 1059 539 , 1064 540 
L 1064 541 
Q 1057 540 , 1053 540 
Q 1049 540 , 1044 540 
Q 1034 540 , 1028 541 
Q 1023 542 , 1023 544 
Q 1023 545 , 1028 546 
Q 1034 547 , 1044 547 
Q 1049 547 , 1052 547 
Q 1056 547 , 1057 547 
" fill="lightgray" />
<path d="
M 1065 539 
L 1074 539 
L 1074 544 
Q 1074 546 , 1078 546 
Q 1081 547 , 1090 547 
Q 1099 547 , 1102 546 
Q 1106 546 , 1106 544 
L 1106 539 
L 1115 539 
L 1115 545 
Q 1115 546 , 1109 547 
Q 1102 548 , 1090 548 
Q 1078 548 , 1071 547 
Q 1065 546 , 1065 545 
L 1065 539 
" fill="#D21010" />
<path d="
M 1015 528 
L 1024 528 
L 1024 534 
Q 1024 536 , 1028 536 
Q 1031 537 , 1040 537 
Q 1049 537 , 1052 536 
Q 1056 536 , 1056 534 
L 1056 528 
L 1065 528 
L 1065 534 
Q 1065 536 , 1059 537 
Q 1052 538 , 1040 538 
Q 1028 538 , 1021 537 
Q 1015 536 , 1015 534 
L 1015 528 
" fill="lightgray" />
<path d="
M 1107 537 
L 1107 534 
L 1093 534 
L 1093 533 
L 1115 533 
L 1115 537 
Q 1110 538 , 1104 538 
Q 1099 538 , 1093 538 
Q 1080 538 , 1073 537 
Q 1065 535 , 1065 533 
Q 1065 531 , 1073 529 
Q 1080 528 , 1093 528 
Q 1099 528 , 1104 528 
Q 1109 528 , 1114 529 
L 1114 530 
Q 1107 530 , 1103 529 
Q 1099 529 , 1094 529 
Q 1084 529 , 1078 530 
Q 1073 531 , 1073 533 
Q 1073 535 , 1078 536 
Q 1084 537 , 1094 537 
Q 1099 537 , 1102 537 
Q 1106 537 , 1107 537 
" fill="#F5C000" />
<path d="
M 1065 479 
L 1065 487 
Q 1058 482 , 1054 480 
Q 1049 479 , 1044 479 
Q 1034 479 , 1029 484 
Q 1023 490 , 1023 500 
Q 1023 511 , 1029 516 
Q 1034 522 , 1044 522 
Q 1049 522 , 1054 520 
Q 1058 519 , 1065 513 
L 1065 522 
Q 1060 525 , 1054 526 
Q 1050 528 , 1044 528 
Q 1030 528 , 1023 520 
Q 1015 513 , 1015 500 
Q 1015 488 , 1023 480 
Q 1030 473 , 1044 473 
Q 1050 473 , 1055 474 
Q 1060 476 , 1065 479 
" fill="lightgray" />
<path d="
M 1107 520 
L 1107 505 
L 1093 505 
L 1093 499 
L 1115 499 
L 1115 523 
Q 1110 526 , 1104 527 
Q 1099 528 , 1093 528 
Q 1080 528 , 1073 520 
Q 1065 513 , 1065 500 
Q 1065 488 , 1073 480 
Q 1080 473 , 1093 473 
Q 1099 473 , 1104 474 
Q 1109 475 , 1114 477 
L 1114 484 
Q 1107 481 , 1103 480 
Q 1099 480 , 1094 480 
Q 1084 480 , 1078 485 
Q 1073 490 , 1073 500 
Q 1073 511 , 1078 516 
Q 1084 522 , 1094 522 
Q 1099 522 , 1102 521 
Q 1106 520 , 1107 520 
" fill="#F5C000" />
<path d="
M 1057 454 
L 1057 420 
L 1043 420 
L 1043 406 
L 1065 406 
L 1065 462 
Q 1060 468 , 1054 470 
Q 1049 472 , 1043 472 
Q 1030 472 , 1023 455 
Q 1015 439 , 1015 409 
Q 1015 380 , 1023 363 
Q 1030 346 , 1043 346 
Q 1049 346 , 1054 348 
Q 1059 351 , 1064 356 
L 1064 372 
Q 1057 365 , 1053 363 
Q 1049 361 , 1044 361 
Q 1034 361 , 1028 373 
Q 1023 385 , 1023 409 
Q 1023 434 , 1028 446 
Q 1034 458 , 1044 458 
Q 1049 458 , 1052 457 
Q 1056 456 , 1057 454 
" fill="lightgray" />
<path d="
M 1115 359 
L 1115 379 
Q 1108 366 , 1104 363 
Q 1099 360 , 1094 360 
Q 1084 360 , 1079 372 
Q 1073 385 , 1073 409 
Q 1073 434 , 1079 446 
Q 1084 458 , 1094 458 
Q 1099 458 , 1104 455 
Q 1108 452 , 1115 439 
L 1115 459 
Q 1110 466 , 1104 469 
Q 1100 472 , 1094 472 
Q 1080 472 , 1073 455 
Q 1065 438 , 1065 409 
Q 1065 380 , 1073 363 
Q 1080 346 , 1094 346 
Q 1100 346 , 1105 349 
Q 1110 352 , 1115 359 
" fill="#545FFF" />
<path d="
M 1170 553 
L 1152 554 
L 1186 554 
L 1170 553 
M 1163 553 
L 1177 553 
L 1220 554 
L 1204 554 
L 1192 554 
L 1148 554 
L 1135 554 
L 1120 554 
L 1163 553 
" fill="#339541" />
<path d="
M 1120 542 
L 1138 542 
L 1138 548 
Q 1138 550 , 1146 551 
Q 1153 552 , 1170 552 
Q 1187 552 , 1195 551 
Q 1202 550 , 1202 548 
L 1202 542 
L 1220 542 
L 1220 549 
Q 1220 551 , 1207 552 
Q 1195 553 , 1170 553 
Q 1146 553 , 1133 552 
Q 1120 551 , 1120 549 
L 1120 542 
" fill="#D21010" />
<path d="
M 1220 504 
L 1220 510 
Q 1205 506 , 1197 505 
Q 1189 504 , 1179 504 
Q 1158 504 , 1148 508 
Q 1136 512 , 1136 520 
Q 1136 529 , 1148 533 
Q 1158 537 , 1179 537 
Q 1189 537 , 1197 536 
Q 1205 535 , 1220 531 
L 1220 537 
Q 1209 540 , 1199 541 
Q 1189 542 , 1178 542 
Q 1151 542 , 1136 536 
Q 1120 530 , 1120 520 
Q 1120 511 , 1136 505 
Q 1151 499 , 1178 499 
Q 1189 499 , 1199 500 
Q 1210 501 , 1220 504 
" fill="#545FFF" />
<path d="
M 1204 492 
L 1204 479 
L 1175 479 
L 1175 474 
L 1220 474 
L 1220 495 
Q 1209 497 , 1198 498 
Q 1189 499 , 1177 499 
Q 1151 499 , 1135 492 
Q 1120 486 , 1120 475 
Q 1120 464 , 1135 457 
Q 1151 451 , 1177 451 
Q 1188 451 , 1197 452 
Q 1207 453 , 1217 455 
L 1217 461 
Q 1204 458 , 1196 457 
Q 1187 457 , 1178 457 
Q 1157 457 , 1146 461 
Q 1136 466 , 1136 475 
Q 1136 484 , 1146 489 
Q 1157 494 , 1178 494 
Q 1187 494 , 1194 493 
Q 1201 493 , 1204 492 
" fill="#F5C000" />
<path d="
M 1275 554 
L 1257 554 
L 1291 554 
L 1275 554 
M 1268 554 
L 1282 554 
L 1325 555 
L 1309 555 
L 1297 554 
L 1253 554 
L 1240 555 
L 1225 555 
L 1268 554 
" fill="#339541" />
<path d="
M 1225 553 
L 1243 553 
L 1243 553 
Q 1243 554 , 1251 554 
Q 1258 554 , 1275 554 
Q 1292 554 , 1300 554 
Q 1307 554 , 1307 553 
L 1307 553 
L 1325 553 
L 1325 553 
Q 1325 554 , 1312 554 
Q 1300 554 , 1275 554 
Q 1251 554 , 1238 554 
Q 1225 554 , 1225 553 
L 1225 553 
" fill="#D21010" />
<path d="
M 1325 552 
L 1325 552 
Q 1310 552 , 1302 552 
Q 1294 552 , 1284 552 
Q 1263 552 , 1253 552 
Q 1241 552 , 1241 552 
Q 1241 553 , 1253 553 
Q 1263 553 , 1284 553 
Q 1294 553 , 1302 553 
Q 1310 553 , 1325 553 
L 1325 553 
Q 1314 553 , 1304 553 
Q 1294 553 , 1283 553 
Q 1256 553 , 1241 553 
Q 1225 553 , 1225 552 
Q 1225 552 , 1241 552 
Q 1256 552 , 1283 552 
Q 1294 552 , 1304 552 
Q 1315 552 , 1325 552 
" fill="#545FFF" />
<path d="
M 1309 552 
L 1309 552 
L 1280 552 
L 1280 551 
L 1325 551 
L 1325 552 
Q 1314 552 , 1303 552 
Q 1294 552 , 1282 552 
Q 1256 552 , 1240 552 
Q 1225 552 , 1225 551 
Q 1225 551 , 1240 551 
Q 1256 551 , 1282 551 
Q 1293 551 , 1302 551 
Q 1312 551 , 1322 551 
L 1322 551 
Q 1309 551 , 1301 551 
Q 1292 551 , 1283 551 
Q 1262 551 , 1251 551 
Q 1241 551 , 1241 551 
Q 1241 552 , 1251 552 
Q 1262 552 , 1283 552 
Q 1292 552 , 1299 552 
Q 1306 552 , 1309 552 
" fill="#F5C000" />
<path d="M 65 168 L 65 555 " stroke="black" stroke-width="1.5"/>
<path d="M 55 555 L 65 555 " stroke="black" stroke-width="4"/>
<text text-anchor="end" x="50" y="555" font-size="50" alignment-baseline="middle">0</text>
<path d="M 55 362 L 65 362 " stroke="black" stroke-width="4"/>
<text text-anchor="end" x="50" y="362" font-size="50" alignment-baseline="middle">1</text>
<path d="M 55 168 L 65 168 " stroke="black" stroke-width="4"/>
<text text-anchor="end" x="50" y="168" font-size="50" alignment-baseline="middle">2</text>
<text text-anchor="middle" x="697" y="50" font-size="50" alignment-baseline="baseline"></text>
G<path d="
M 115 582 
L 98 595 
L 115 608 
L 113 611 
L 97 598 
L 97 623 
L 93 623 
L 93 599 
L 77 611 
L 75 608 
L 92 595 
L 75 582 
L 77 579 
L 93 591 
L 93 567 
L 97 567 
L 97 591 
L 113 579 
L 115 582 
" fill="black" />
<path d="
M 156 593 
Q 159 594 , 162 597 
Q 165 601 , 165 606 
Q 165 614 , 159 618 
Q 154 623 , 142 623 
Q 138 623 , 134 622 
Q 130 621 , 125 619 
L 125 613 
Q 129 617 , 134 618 
Q 138 619 , 142 619 
Q 151 619 , 155 616 
Q 160 613 , 160 606 
Q 160 601 , 156 598 
Q 151 595 , 143 595 
L 136 595 
L 136 591 
L 144 591 
Q 151 591 , 155 589 
Q 158 586 , 158 582 
Q 158 577 , 155 574 
Q 151 571 , 143 571 
Q 140 571 , 136 572 
Q 133 573 , 127 575 
L 127 571 
Q 132 569 , 136 568 
Q 140 567 , 144 567 
Q 154 567 , 159 571 
Q 164 575 , 164 581 
Q 164 586 , 161 589 
Q 159 592 , 156 593 
" fill="black" />
<path d="
M 265 567 
Q 236 574 , 223 581 
Q 210 588 , 210 595 
Q 210 602 , 223 609 
Q 236 616 , 265 623 
L 241 623 
Q 213 616 , 199 609 
Q 185 602 , 185 595 
Q 185 588 , 199 581 
Q 213 574 , 241 567 
L 265 567 
" fill="black" />
<path d="
" fill="black" />
<path d="
M 316 567 
L 343 567 
L 343 623 
L 316 623 
L 316 567 
" fill="black" />
<path d="
" fill="black" />
<path d="
" fill="black" />
<path d="
M 421 567 
L 448 567 
L 448 623 
L 421 623 
L 421 567 
" fill="black" />
<path d="
" fill="black" />
<path d="
" fill="black" />
<path d="
M 526 567 
L 553 567 
L 553 623 
L 526 623 
L 526 567 
" fill="black" />
<path d="
" fill="black" />
<path d="
" fill="black" />
<path d="
M 631 567 
L 658 567 
L 658 623 
L 631 623 
L 631 567 
" fill="black" />
<path d="
" fill="black" />
<path d="
" fill="black" />
<path d="
M 736 567 
L 763 567 
L 763 623 
L 736 623 
L 736 567 
" fill="black" />
<path d="
" fill="black" />
<path d="
" fill="black" />
<path d="
M 841 567 
L 868 567 
L 868 623 
L 841 623 
L 841 567 
" fill="black" />
<path d="
" fill="black" />
<path d="
" fill="black" />
<path d="
M 937 567 
L 957 567 
L 957 623 
L 937 623 
L 937 567 
" fill="black" />
<path d="
" fill="black" />
<path d="
M 1002 593 
Q 1004 594 , 1005 597 
Q 1007 601 , 1007 606 
Q 1007 614 , 1004 618 
Q 1002 623 , 996 623 
Q 994 623 , 992 622 
Q 989 621 , 987 619 
L 987 613 
Q 989 617 , 991 618 
Q 993 619 , 995 619 
Q 1000 619 , 1002 616 
Q 1004 613 , 1004 606 
Q 1004 601 , 1002 598 
Q 1000 595 , 996 595 
L 992 595 
L 992 591 
L 997 591 
Q 1000 591 , 1002 589 
Q 1004 586 , 1004 582 
Q 1004 577 , 1002 574 
Q 1000 571 , 996 571 
Q 995 571 , 993 572 
Q 991 573 , 988 575 
L 988 571 
Q 991 569 , 993 568 
Q 995 567 , 997 567 
Q 1002 567 , 1004 571 
Q 1006 575 , 1006 581 
Q 1006 586 , 1005 589 
Q 1004 592 , 1002 593 
" fill="black" />
<path d="
M 1025 567 
L 1049 567 
Q 1077 574 , 1091 581 
Q 1105 588 , 1105 595 
Q 1105 602 , 1091 609 
Q 1077 616 , 1049 623 
L 1025 623 
Q 1054 616 , 1067 609 
Q 1080 602 , 1080 595 
Q 1080 588 , 1067 581 
Q 1054 574 , 1025 567 
" fill="black" />
<path d="
" fill="black" />
<path d="
M 1156 567 
L 1183 567 
L 1183 623 
L 1156 623 
L 1156 567 
" fill="black" />
<path d="
" fill="black" />
<path d="
M 1270 582 
L 1253 595 
L 1270 608 
L 1268 611 
L 1252 598 
L 1252 623 
L 1248 623 
L 1248 599 
L 1232 611 
L 1230 608 
L 1247 595 
L 1230 582 
L 1232 579 
L 1248 591 
L 1248 567 
L 1252 567 
L 1252 591 
L 1268 579 
L 1270 582 
" fill="black" />
<path d="
M 1311 593 
Q 1314 594 , 1317 597 
Q 1320 601 , 1320 606 
Q 1320 614 , 1314 618 
Q 1309 623 , 1297 623 
Q 1293 623 , 1289 622 
Q 1285 621 , 1280 619 
L 1280 613 
Q 1284 617 , 1289 618 
Q 1293 619 , 1297 619 
Q 1306 619 , 1310 616 
Q 1315 613 , 1315 606 
Q 1315 601 , 1311 598 
Q 1306 595 , 1298 595 
L 1291 595 
L 1291 591 
L 1299 591 
Q 1306 591 , 1310 589 
Q 1313 586 , 1313 582 
Q 1313 577 , 1310 574 
Q 1306 571 , 1298 571 
Q 1295 571 , 1291 572 
Q 1288 573 , 1282 575 
L 1282 571 
Q 1287 569 , 1291 568 
Q 1295 567 , 1299 567 
Q 1309 567 , 1314 571 
Q 1319 575 , 1319 581 
Q 1319 586 , 1316 589 
Q 1314 592 , 1311 593 
" fill="black" />
</svg>
