<svg xmlns="http://www.w3.org/2000/svg"
viewBox="0 0 1330 635">
<path d="
M 120 554 
L 102 554 
L 136 554 
L 120 554 
M 113 554 
L 127 554 
L 170 555 
L 154 555 
L 142 555 
L 98 555 
L 85 555 
L 70 555 
L 113 554 
" fill="#339541" />
<path d="
M 170 553 
L 170 553 
Q 155 553 , 147 553 
Q 139 553 , 129 553 
Q 108 553 , 98 553 
Q 86 553 , 86 553 
Q 86 554 , 98 554 
Q 108 554 , 129 554 
Q 139 554 , 147 554 
Q 155 554 , 170 554 
L 170 554 
Q 159 554 , 149 554 
Q 139 554 , 128 554 
Q 101 554 , 86 554 
Q 70 554 , 70 553 
Q 70 553 , 86 553 
Q 101 553 , 128 553 
Q 139 553 , 149 553 
Q 160 553 , 170 553 
" fill="#545FFF" />
<path d="
M 154 552 
L 154 552 
L 125 552 
L 125 552 
L 170 552 
L 170 552 
Q 159 552 , 148 552 
Q 139 552 , 127 552 
Q 101 552 , 85 552 
Q 70 552 , 70 552 
Q 70 551 , 85 551 
Q 101 551 , 127 551 
Q 138 551 , 147 551 
Q 157 551 , 167 551 
L 167 551 
Q 154 551 , 146 551 
Q 137 551 , 128 551 
Q 107 551 , 96 551 
Q 86 551 , 86 552 
Q 86 552 , 96 552 
Q 107 552 , 128 552 
Q 137 552 , 144 552 
Q 151 552 , 154 552 
" fill="#F5C000" />
<path d="
M 70 549 
L 88 549 
L 88 550 
Q 88 550 , 96 550 
Q 103 550 , 120 550 
Q 137 550 , 145 550 
Q 152 550 , 152 550 
L 152 549 
L 170 549 
L 170 550 
Q 170 550 , 157 550 
Q 145 550 , 120 550 
Q 96 550 , 83 550 
Q 70 550 , 70 550 
L 70 549 
" fill="#D21010" />
<path d="
M 225 546 
L 207 550 
L 241 550 
L 225 546 
M 218 544 
L 232 544 
L 275 554 
L 259 554 
L 247 551 
L 203 551 
L 190 554 
L 175 554 
L 218 544 
" fill="#339541" />
<path d="
M 275 531 
L 275 533 
Q 260 532 , 252 532 
Q 244 531 , 234 531 
Q 213 531 , 203 533 
Q 191 534 , 191 536 
Q 191 539 , 203 540 
Q 213 542 , 234 542 
Q 244 542 , 252 541 
Q 260 541 , 275 540 
L 275 542 
Q 264 543 , 254 543 
Q 244 543 , 233 543 
Q 206 543 , 191 541 
Q 175 540 , 175 537 
Q 175 534 , 191 532 
Q 206 530 , 233 530 
Q 244 530 , 254 530 
Q 265 531 , 275 531 
" fill="#545FFF" />
<path d="
M 175 503 
L 193 503 
L 193 518 
Q 193 523 , 201 525 
Q 208 526 , 225 526 
Q 242 526 , 250 525 
Q 257 523 , 257 518 
L 257 503 
L 275 503 
L 275 519 
Q 275 524 , 262 527 
Q 250 529 , 225 529 
Q 201 529 , 188 527 
Q 175 524 , 175 519 
L 175 503 
" fill="#D21010" />
<path d="
M 259 488 
L 259 462 
L 230 462 
L 230 451 
L 275 451 
L 275 495 
Q 264 499 , 253 501 
Q 244 502 , 232 502 
Q 206 502 , 190 489 
Q 175 476 , 175 453 
Q 175 430 , 190 417 
Q 206 404 , 232 404 
Q 243 404 , 252 406 
Q 262 408 , 272 412 
L 272 425 
Q 259 419 , 251 417 
Q 242 416 , 233 416 
Q 212 416 , 201 425 
Q 191 434 , 191 453 
Q 191 473 , 201 482 
Q 212 492 , 233 492 
Q 242 492 , 249 491 
Q 256 490 , 259 488 
" fill="#F5C000" />
<path d="
M 380 546 
L 380 548 
Q 365 547 , 357 546 
Q 349 546 , 339 546 
Q 318 546 , 308 547 
Q 296 548 , 296 550 
Q 296 552 , 308 553 
Q 318 554 , 339 554 
Q 349 554 , 357 554 
Q 365 553 , 380 552 
L 380 554 
Q 369 554 , 359 555 
Q 349 555 , 338 555 
Q 311 555 , 296 553 
Q 280 552 , 280 550 
Q 280 548 , 296 546 
Q 311 545 , 338 545 
Q 349 545 , 359 545 
Q 370 545 , 380 546 
" fill="#545FFF" />
<path d="
M 330 533 
L 312 539 
L 346 539 
L 330 533 
M 323 530 
L 337 530 
L 380 544 
L 364 544 
L 352 540 
L 308 540 
L 295 544 
L 280 544 
L 323 530 
" fill="#339541" />
<path d="
M 280 513 
L 298 513 
L 298 523 
Q 298 526 , 306 527 
Q 313 528 , 330 528 
Q 347 528 , 355 527 
Q 362 526 , 362 523 
L 362 513 
L 380 513 
L 380 523 
Q 380 526 , 367 528 
Q 355 530 , 330 530 
Q 306 530 , 293 528 
Q 280 526 , 280 523 
L 280 513 
" fill="#D21010" />
<path d="
M 364 504 
L 364 487 
L 335 487 
L 335 480 
L 380 480 
L 380 508 
Q 369 510 , 358 511 
Q 349 513 , 337 513 
Q 311 513 , 295 504 
Q 280 496 , 280 481 
Q 280 467 , 295 458 
Q 311 450 , 337 450 
Q 348 450 , 357 451 
Q 367 452 , 377 455 
L 377 463 
Q 364 460 , 356 458 
Q 347 457 , 338 457 
Q 317 457 , 306 463 
Q 296 469 , 296 481 
Q 296 494 , 306 500 
Q 317 506 , 338 506 
Q 347 506 , 354 505 
Q 361 504 , 364 504 
" fill="#F5C000" />
<path d="
M 435 552 
L 417 553 
L 451 553 
L 435 552 
M 428 552 
L 442 552 
L 485 554 
L 469 554 
L 457 554 
L 413 554 
L 400 554 
L 385 554 
L 428 552 
" fill="#339541" />
<path d="
M 385 531 
L 403 531 
L 403 543 
Q 403 546 , 411 548 
Q 418 549 , 435 549 
Q 452 549 , 460 548 
Q 467 546 , 467 543 
L 467 531 
L 485 531 
L 485 543 
Q 485 547 , 472 549 
Q 460 551 , 435 551 
Q 411 551 , 398 549 
Q 385 547 , 385 543 
L 385 531 
" fill="#D21010" />
<path d="
M 469 525 
L 469 516 
L 440 516 
L 440 512 
L 485 512 
L 485 527 
Q 474 529 , 463 529 
Q 454 530 , 442 530 
Q 416 530 , 400 525 
Q 385 521 , 385 513 
Q 385 505 , 400 501 
Q 416 496 , 442 496 
Q 453 496 , 462 497 
Q 472 497 , 482 499 
L 482 503 
Q 469 501 , 461 501 
Q 452 500 , 443 500 
Q 422 500 , 411 503 
Q 401 506 , 401 513 
Q 401 520 , 411 523 
Q 422 526 , 443 526 
Q 452 526 , 459 526 
Q 466 526 , 469 525 
" fill="#F5C000" />
<path d="
M 485 416 
L 485 429 
Q 470 420 , 462 418 
Q 454 416 , 444 416 
Q 423 416 , 413 425 
Q 401 433 , 401 450 
Q 401 468 , 413 477 
Q 423 486 , 444 486 
Q 454 486 , 462 483 
Q 470 481 , 485 472 
L 485 486 
Q 474 491 , 464 493 
Q 454 495 , 443 495 
Q 416 495 , 401 483 
Q 385 471 , 385 451 
Q 385 430 , 401 418 
Q 416 406 , 443 406 
Q 454 406 , 464 408 
Q 475 410 , 485 416 
" fill="#545FFF" />
<path d="
M 590 547 
L 590 548 
Q 575 547 , 567 547 
Q 559 547 , 549 547 
Q 528 547 , 518 548 
Q 506 549 , 506 550 
Q 506 552 , 518 553 
Q 528 554 , 549 554 
Q 559 554 , 567 554 
Q 575 553 , 590 552 
L 590 554 
Q 579 554 , 569 554 
Q 559 555 , 548 555 
Q 521 555 , 506 553 
Q 490 552 , 490 550 
Q 490 548 , 506 547 
Q 521 546 , 548 546 
Q 559 546 , 569 546 
Q 580 546 , 590 547 
" fill="#545FFF" />
<path d="
M 540 536 
L 522 541 
L 556 541 
L 540 536 
M 533 534 
L 547 534 
L 590 546 
L 574 546 
L 562 542 
L 518 542 
L 505 546 
L 490 546 
L 533 534 
" fill="#339541" />
<path d="
M 574 530 
L 574 524 
L 545 524 
L 545 522 
L 590 522 
L 590 532 
Q 579 533 , 568 533 
Q 559 534 , 547 534 
Q 521 534 , 505 531 
Q 490 528 , 490 522 
Q 490 517 , 505 514 
Q 521 511 , 547 511 
Q 558 511 , 567 511 
Q 577 512 , 587 513 
L 587 516 
Q 574 514 , 566 514 
Q 557 514 , 548 514 
Q 527 514 , 516 516 
Q 506 518 , 506 522 
Q 506 527 , 516 529 
Q 527 531 , 548 531 
Q 557 531 , 564 531 
Q 571 531 , 574 530 
" fill="#F5C000" />
<path d="
M 490 254 
L 508 254 
L 508 405 
Q 508 447 , 516 465 
Q 523 482 , 540 482 
Q 557 482 , 565 465 
Q 572 447 , 572 405 
L 572 254 
L 590 254 
L 590 409 
Q 590 458 , 577 484 
Q 565 510 , 540 510 
Q 516 510 , 503 484 
Q 490 458 , 490 409 
L 490 254 
" fill="#D21010" />
<path d="
M 645 552 
L 627 553 
L 661 553 
L 645 552 
M 638 551 
L 652 551 
L 695 555 
L 679 555 
L 667 554 
L 623 554 
L 610 555 
L 595 555 
L 638 551 
" fill="#339541" />
<path d="
M 695 534 
L 695 537 
Q 680 535 , 672 534 
Q 664 534 , 654 534 
Q 633 534 , 623 536 
Q 611 538 , 611 541 
Q 611 545 , 623 546 
Q 633 548 , 654 548 
Q 664 548 , 672 548 
Q 680 547 , 695 545 
L 695 548 
Q 684 549 , 674 550 
Q 664 550 , 653 550 
Q 626 550 , 611 548 
Q 595 545 , 595 541 
Q 595 537 , 611 534 
Q 626 532 , 653 532 
Q 664 532 , 674 532 
Q 685 533 , 695 534 
" fill="#545FFF" />
<path d="
M 595 513 
L 613 513 
L 613 524 
Q 613 527 , 621 528 
Q 628 529 , 645 529 
Q 662 529 , 670 528 
Q 677 527 , 677 524 
L 677 513 
L 695 513 
L 695 524 
Q 695 528 , 682 530 
Q 670 532 , 645 532 
Q 621 532 , 608 530 
Q 595 528 , 595 524 
L 595 513 
" fill="#D21010" />
<path d="
M 679 472 
L 679 397 
L 650 397 
L 650 367 
L 695 367 
L 695 491 
Q 684 503 , 673 507 
Q 664 512 , 652 512 
Q 626 512 , 610 475 
Q 595 438 , 595 373 
Q 595 308 , 610 270 
Q 626 233 , 652 233 
Q 663 233 , 672 238 
Q 682 243 , 692 256 
L 692 291 
Q 679 275 , 671 271 
Q 662 266 , 653 266 
Q 632 266 , 621 292 
Q 611 319 , 611 373 
Q 611 428 , 621 455 
Q 632 481 , 653 481 
Q 662 481 , 669 478 
Q 676 476 , 679 472 
" fill="#F5C000" />
<path d="
M 750 552 
L 732 553 
L 766 553 
L 750 552 
M 743 551 
L 757 551 
L 800 554 
L 784 554 
L 772 553 
L 728 553 
L 715 554 
L 700 554 
L 743 551 
" fill="#339541" />
<path d="
M 800 530 
L 800 534 
Q 785 532 , 777 531 
Q 769 530 , 759 530 
Q 738 530 , 728 533 
Q 716 535 , 716 539 
Q 716 543 , 728 546 
Q 738 548 , 759 548 
Q 769 548 , 777 547 
Q 785 547 , 800 545 
L 800 548 
Q 789 549 , 779 550 
Q 769 550 , 758 550 
Q 731 550 , 716 547 
Q 700 544 , 700 539 
Q 700 534 , 716 531 
Q 731 528 , 758 528 
Q 769 528 , 779 529 
Q 790 529 , 800 530 
" fill="#545FFF" />
<path d="
M 700 504 
L 718 504 
L 718 518 
Q 718 522 , 726 524 
Q 733 525 , 750 525 
Q 767 525 , 775 524 
Q 782 522 , 782 518 
L 782 504 
L 800 504 
L 800 518 
Q 800 523 , 787 525 
Q 775 528 , 750 528 
Q 726 528 , 713 525 
Q 700 523 , 700 518 
L 700 504 
" fill="#D21010" />
<path d="
M 784 495 
L 784 478 
L 755 478 
L 755 471 
L 800 471 
L 800 499 
Q 789 502 , 778 503 
Q 769 504 , 757 504 
Q 731 504 , 715 495 
Q 700 487 , 700 472 
Q 700 458 , 715 449 
Q 731 441 , 757 441 
Q 768 441 , 777 442 
Q 787 443 , 797 446 
L 797 454 
Q 784 451 , 776 449 
Q 767 448 , 758 448 
Q 737 448 , 726 454 
Q 716 460 , 716 472 
Q 716 485 , 726 491 
Q 737 497 , 758 497 
Q 767 497 , 774 496 
Q 781 496 , 784 495 
" fill="#F5C000" />
<path d="
M 889 554 
L 889 554 
L 860 554 
L 860 553 
L 905 553 
L 905 555 
Q 894 555 , 883 555 
Q 874 555 , 862 555 
Q 836 555 , 820 554 
Q 805 554 , 805 553 
Q 805 553 , 820 552 
Q 836 552 , 862 552 
Q 873 552 , 882 552 
Q 892 552 , 902 552 
L 902 553 
Q 889 552 , 881 552 
Q 872 552 , 863 552 
Q 842 552 , 831 553 
Q 821 553 , 821 553 
Q 821 554 , 831 554 
Q 842 555 , 863 555 
Q 872 555 , 879 554 
Q 886 554 , 889 554 
" fill="#F5C000" />
<path d="
M 805 549 
L 823 549 
L 823 551 
Q 823 551 , 831 551 
Q 838 552 , 855 552 
Q 872 552 , 880 551 
Q 887 551 , 887 551 
L 887 549 
L 905 549 
L 905 551 
Q 905 551 , 892 552 
Q 880 552 , 855 552 
Q 831 552 , 818 552 
Q 805 551 , 805 551 
L 805 549 
" fill="#D21010" />
<path d="
M 905 545 
L 905 546 
Q 890 546 , 882 545 
Q 874 545 , 864 545 
Q 843 545 , 833 546 
Q 821 546 , 821 546 
Q 821 547 , 833 548 
Q 843 548 , 864 548 
Q 874 548 , 882 548 
Q 890 548 , 905 547 
L 905 548 
Q 894 548 , 884 548 
Q 874 548 , 863 548 
Q 836 548 , 821 548 
Q 805 547 , 805 547 
Q 805 546 , 821 545 
Q 836 545 , 863 545 
Q 874 545 , 884 545 
Q 895 545 , 905 545 
" fill="#545FFF" />
<path d="
M 855 540 
L 837 542 
L 871 542 
L 855 540 
M 848 539 
L 862 539 
L 905 544 
L 889 544 
L 877 543 
L 833 543 
L 820 544 
L 805 544 
L 848 539 
" fill="#339541" />
<path d="
M 960 551 
L 942 552 
L 976 552 
L 960 551 
M 953 550 
L 967 550 
L 1010 554 
L 994 554 
L 982 553 
L 938 553 
L 925 554 
L 910 554 
L 953 550 
" fill="#339541" />
<path d="
M 910 537 
L 928 537 
L 928 545 
Q 928 547 , 936 547 
Q 943 548 , 960 548 
Q 977 548 , 985 547 
Q 992 547 , 992 545 
L 992 537 
L 1010 537 
L 1010 545 
Q 1010 547 , 997 548 
Q 985 550 , 960 550 
Q 936 550 , 923 548 
Q 910 547 , 910 545 
L 910 537 
" fill="#D21010" />
<path d="
M 1010 499 
L 1010 506 
Q 995 502 , 987 501 
Q 979 500 , 969 500 
Q 948 500 , 938 504 
Q 926 508 , 926 516 
Q 926 524 , 938 528 
Q 948 532 , 969 532 
Q 979 532 , 987 531 
Q 995 530 , 1010 526 
L 1010 532 
Q 999 535 , 989 536 
Q 979 537 , 968 537 
Q 941 537 , 926 531 
Q 910 525 , 910 516 
Q 910 506 , 926 501 
Q 941 495 , 968 495 
Q 979 495 , 989 496 
Q 1000 497 , 1010 499 
" fill="#545FFF" />
<path d="
M 994 483 
L 994 461 
L 965 461 
L 965 452 
L 1010 452 
L 1010 489 
Q 999 492 , 988 493 
Q 979 495 , 967 495 
Q 941 495 , 925 484 
Q 910 473 , 910 454 
Q 910 434 , 925 423 
Q 941 412 , 967 412 
Q 978 412 , 987 413 
Q 997 415 , 1007 419 
L 1007 429 
Q 994 425 , 986 423 
Q 977 422 , 968 422 
Q 947 422 , 936 430 
Q 926 437 , 926 454 
Q 926 470 , 936 478 
Q 947 486 , 968 486 
Q 977 486 , 984 485 
Q 991 484 , 994 483 
" fill="#F5C000" />
<path d="
M 1115 542 
L 1115 544 
Q 1100 543 , 1092 543 
Q 1084 542 , 1074 542 
Q 1053 542 , 1043 544 
Q 1031 545 , 1031 547 
Q 1031 550 , 1043 552 
Q 1053 553 , 1074 553 
Q 1084 553 , 1092 552 
Q 1100 552 , 1115 551 
L 1115 553 
Q 1104 554 , 1094 554 
Q 1084 554 , 1073 554 
Q 1046 554 , 1031 552 
Q 1015 551 , 1015 548 
Q 1015 545 , 1031 543 
Q 1046 541 , 1073 541 
Q 1084 541 , 1094 541 
Q 1105 542 , 1115 542 
" fill="#545FFF" />
<path d="
M 1099 539 
L 1099 534 
L 1070 534 
L 1070 532 
L 1115 532 
L 1115 540 
Q 1104 540 , 1093 541 
Q 1084 541 , 1072 541 
Q 1046 541 , 1030 539 
Q 1015 536 , 1015 532 
Q 1015 529 , 1030 526 
Q 1046 524 , 1072 524 
Q 1083 524 , 1092 524 
Q 1102 525 , 1112 525 
L 1112 528 
Q 1099 527 , 1091 526 
Q 1082 526 , 1073 526 
Q 1052 526 , 1041 528 
Q 1031 529 , 1031 532 
Q 1031 536 , 1041 537 
Q 1052 539 , 1073 539 
Q 1082 539 , 1089 539 
Q 1096 539 , 1099 539 
" fill="#F5C000" />
<path d="
M 1065 508 
L 1047 516 
L 1081 516 
L 1065 508 
M 1058 504 
L 1072 504 
L 1115 523 
L 1099 523 
L 1087 518 
L 1043 518 
L 1030 523 
L 1015 523 
L 1058 504 
" fill="#339541" />
<path d="
M 1015 368 
L 1033 368 
L 1033 448 
Q 1033 470 , 1041 479 
Q 1048 488 , 1065 488 
Q 1082 488 , 1090 479 
Q 1097 470 , 1097 448 
L 1097 368 
L 1115 368 
L 1115 450 
Q 1115 476 , 1102 490 
Q 1090 503 , 1065 503 
Q 1041 503 , 1028 490 
Q 1015 476 , 1015 450 
L 1015 368 
" fill="#D21010" />
<path d="
M 1170 547 
L 1152 550 
L 1186 550 
L 1170 547 
M 1163 545 
L 1177 545 
L 1220 554 
L 1204 554 
L 1192 552 
L 1148 552 
L 1135 554 
L 1120 554 
L 1163 545 
" fill="#339541" />
<path d="
M 1120 535 
L 1138 535 
L 1138 541 
Q 1138 542 , 1146 543 
Q 1153 543 , 1170 543 
Q 1187 543 , 1195 543 
Q 1202 542 , 1202 541 
L 1202 535 
L 1220 535 
L 1220 541 
Q 1220 543 , 1207 544 
Q 1195 544 , 1170 544 
Q 1146 544 , 1133 544 
Q 1120 543 , 1120 541 
L 1120 535 
" fill="#D21010" />
<path d="
M 1220 502 
L 1220 507 
Q 1205 504 , 1197 503 
Q 1189 502 , 1179 502 
Q 1158 502 , 1148 506 
Q 1136 509 , 1136 516 
Q 1136 523 , 1148 527 
Q 1158 530 , 1179 530 
Q 1189 530 , 1197 529 
Q 1205 528 , 1220 525 
L 1220 531 
Q 1209 533 , 1199 533 
Q 1189 534 , 1178 534 
Q 1151 534 , 1136 529 
Q 1120 525 , 1120 516 
Q 1120 508 , 1136 503 
Q 1151 498 , 1178 498 
Q 1189 498 , 1199 499 
Q 1210 500 , 1220 502 
" fill="#545FFF" />
<path d="
M 1204 476 
L 1204 436 
L 1175 436 
L 1175 419 
L 1220 419 
L 1220 486 
Q 1209 492 , 1198 495 
Q 1189 497 , 1177 498 
Q 1151 498 , 1135 477 
Q 1120 457 , 1120 422 
Q 1120 387 , 1135 367 
Q 1151 347 , 1177 347 
Q 1188 347 , 1197 350 
Q 1207 352 , 1217 359 
L 1217 378 
Q 1204 370 , 1196 367 
Q 1187 365 , 1178 365 
Q 1157 365 , 1146 379 
Q 1136 393 , 1136 422 
Q 1136 452 , 1146 467 
Q 1157 481 , 1178 481 
Q 1187 481 , 1194 479 
Q 1201 478 , 1204 476 
" fill="#F5C000" />
<path d="
M 1275 554 
L 1257 554 
L 1291 554 
L 1275 554 
M 1268 554 
L 1282 554 
L 1325 555 
L 1309 555 
L 1297 555 
L 1253 555 
L 1240 555 
L 1225 555 
L 1268 554 
" fill="#339541" />
<path d="
M 1325 553 
L 1325 553 
Q 1310 553 , 1302 553 
Q 1294 553 , 1284 553 
Q 1263 553 , 1253 553 
Q 1241 553 , 1241 553 
Q 1241 554 , 1253 554 
Q 1263 554 , 1284 554 
Q 1294 554 , 1302 554 
Q 1310 554 , 1325 554 
L 1325 554 
Q 1314 554 , 1304 554 
Q 1294 554 , 1283 554 
Q 1256 554 , 1241 554 
Q 1225 554 , 1225 553 
Q 1225 553 , 1241 553 
Q 1256 553 , 1283 553 
Q 1294 553 , 1304 553 
Q 1315 553 , 1325 553 
" fill="#545FFF" />
<path d="
M 1309 552 
L 1309 552 
L 1280 552 
L 1280 552 
L 1325 552 
L 1325 552 
Q 1314 552 , 1303 552 
Q 1294 552 , 1282 552 
Q 1256 552 , 1240 552 
Q 1225 552 , 1225 552 
Q 1225 551 , 1240 551 
Q 1256 551 , 1282 551 
Q 1293 551 , 1302 551 
Q 1312 551 , 1322 551 
L 1322 551 
Q 1309 551 , 1301 551 
Q 1292 551 , 1283 551 
Q 1262 551 , 1251 551 
Q 1241 551 , 1241 552 
Q 1241 552 , 1251 552 
Q 1262 552 , 1283 552 
Q 1292 552 , 1299 552 
Q 1306 552 , 1309 552 
" fill="#F5C000" />
<path d="
M 1225 549 
L 1243 549 
L 1243 550 
Q 1243 550 , 1251 550 
Q 1258 550 , 1275 550 
Q 1292 550 , 1300 550 
Q 1307 550 , 1307 550 
L 1307 549 
L 1325 549 
L 1325 550 
Q 1325 550 , 1312 550 
Q 1300 550 , 1275 550 
Q 1251 550 , 1238 550 
Q 1225 550 , 1225 550 
L 1225 549 
" fill="#D21010" />
<path d="M 65 55 L 65 555 " stroke="black" stroke-width="1.5"/>
<path d="M 55 555 L 65 555 " stroke="black" stroke-width="4"/>
<text text-anchor="end" x="50" y="555" font-size="50" alignment-baseline="middle">0</text>
<path d="M 55 305 L 65 305 " stroke="black" stroke-width="4"/>
<text text-anchor="end" x="50" y="305" font-size="50" alignment-baseline="middle">1</text>
<path d="M 55 55 L 65 55 " stroke="black" stroke-width="4"/>
<text text-anchor="end" x="50" y="55" font-size="50" alignment-baseline="middle">2</text>
<text text-anchor="middle" x="697" y="50" font-size="50" alignment-baseline="baseline"></text>
G<path d="
M 160 582 
L 126 595 
L 160 608 
L 157 611 
L 123 598 
L 123 623 
L 117 623 
L 117 599 
L 83 611 
L 80 608 
L 114 595 
L 80 582 
L 83 579 
L 117 591 
L 117 567 
L 123 567 
L 123 591 
L 157 579 
L 160 582 
" fill="black" />
<path d="
" fill="black" />
<path d="
M 211 567 
L 238 567 
L 238 623 
L 211 623 
L 211 567 
" fill="black" />
<path d="
" fill="black" />
<path d="
" fill="black" />
<path d="
M 316 567 
L 343 567 
L 343 623 
L 316 623 
L 316 567 
" fill="black" />
<path d="
" fill="black" />
<path d="
" fill="black" />
<path d="
M 421 567 
L 448 567 
L 448 623 
L 421 623 
L 421 567 
" fill="black" />
<path d="
" fill="black" />
<path d="
" fill="black" />
<path d="
M 526 567 
L 553 567 
L 553 623 
L 526 623 
L 526 567 
" fill="black" />
<path d="
" fill="black" />
<path d="
" fill="black" />
<path d="
M 631 567 
L 658 567 
L 658 623 
L 631 623 
L 631 567 
" fill="black" />
<path d="
" fill="black" />
<path d="
" fill="black" />
<path d="
M 736 567 
L 763 567 
L 763 623 
L 736 623 
L 736 567 
" fill="black" />
<path d="
" fill="black" />
<path d="
" fill="black" />
<path d="
M 841 567 
L 868 567 
L 868 623 
L 841 623 
L 841 567 
" fill="black" />
<path d="
" fill="black" />
<path d="
" fill="black" />
<path d="
M 946 567 
L 973 567 
L 973 623 
L 946 623 
L 946 567 
" fill="black" />
<path d="
" fill="black" />
<path d="
" fill="black" />
<path d="
M 1051 567 
L 1078 567 
L 1078 623 
L 1051 623 
L 1051 567 
" fill="black" />
<path d="
" fill="black" />
<path d="
" fill="black" />
<path d="
M 1156 567 
L 1183 567 
L 1183 623 
L 1156 623 
L 1156 567 
" fill="black" />
<path d="
" fill="black" />
<path d="
M 1315 582 
L 1281 595 
L 1315 608 
L 1312 611 
L 1278 598 
L 1278 623 
L 1272 623 
L 1272 599 
L 1238 611 
L 1235 608 
L 1269 595 
L 1235 582 
L 1238 579 
L 1272 591 
L 1272 567 
L 1278 567 
L 1278 591 
L 1312 579 
L 1315 582 
" fill="black" />
</svg>
