<svg xmlns="http://www.w3.org/2000/svg"
viewBox="0 0 1435 635">
<path d="
M 120 554 
L 102 554 
L 136 554 
L 120 554 
M 113 554 
L 127 554 
L 170 555 
L 154 555 
L 142 554 
L 98 554 
L 85 555 
L 70 555 
L 113 554 
" fill="#339541" />
<path d="
M 170 553 
L 170 553 
Q 155 553 , 147 553 
Q 139 553 , 129 553 
Q 108 553 , 98 553 
Q 86 553 , 86 553 
Q 86 554 , 98 554 
Q 108 554 , 129 554 
Q 139 554 , 147 554 
Q 155 554 , 170 554 
L 170 554 
Q 159 554 , 149 554 
Q 139 554 , 128 554 
Q 101 554 , 86 554 
Q 70 554 , 70 553 
Q 70 553 , 86 553 
Q 101 553 , 128 553 
Q 139 553 , 149 553 
Q 160 553 , 170 553 
" fill="#545FFF" />
<path d="
M 70 552 
L 88 552 
L 88 553 
Q 88 553 , 96 553 
Q 103 553 , 120 553 
Q 137 553 , 145 553 
Q 152 553 , 152 553 
L 152 552 
L 170 552 
L 170 553 
Q 170 553 , 157 553 
Q 145 553 , 120 553 
Q 96 553 , 83 553 
Q 70 553 , 70 553 
L 70 552 
" fill="#D21010" />
<path d="
M 154 552 
L 154 552 
L 125 552 
L 125 551 
L 170 551 
L 170 552 
Q 159 552 , 148 552 
Q 139 552 , 127 552 
Q 101 552 , 85 552 
Q 70 552 , 70 551 
Q 70 551 , 85 551 
Q 101 551 , 127 551 
Q 138 551 , 147 551 
Q 157 551 , 167 551 
L 167 551 
Q 154 551 , 146 551 
Q 137 551 , 128 551 
Q 107 551 , 96 551 
Q 86 551 , 86 551 
Q 86 552 , 96 552 
Q 107 552 , 128 552 
Q 137 552 , 144 552 
Q 151 552 , 154 552 
" fill="#F5C000" />
<path d="
M 225 552 
L 225 553 
Q 218 552 , 214 552 
Q 209 552 , 204 552 
Q 194 552 , 189 552 
Q 183 553 , 183 553 
Q 183 554 , 189 554 
Q 194 554 , 204 554 
Q 209 554 , 214 554 
Q 218 554 , 225 554 
L 225 554 
Q 220 554 , 214 554 
Q 210 554 , 204 554 
Q 190 554 , 183 554 
Q 175 554 , 175 553 
Q 175 553 , 183 552 
Q 190 552 , 204 552 
Q 210 552 , 215 552 
Q 220 552 , 225 552 
" fill="#545FFF" />
<path d="
M 267 554 
L 267 553 
L 253 553 
L 253 553 
L 275 553 
L 275 554 
Q 270 554 , 264 554 
Q 259 554 , 253 554 
Q 240 554 , 233 554 
Q 225 554 , 225 553 
Q 225 553 , 233 552 
Q 240 552 , 253 552 
Q 259 552 , 264 552 
Q 269 552 , 274 552 
L 274 552 
Q 267 552 , 263 552 
Q 259 552 , 254 552 
Q 244 552 , 238 552 
Q 233 553 , 233 553 
Q 233 554 , 238 554 
Q 244 554 , 254 554 
Q 259 554 , 262 554 
Q 266 554 , 267 554 
" fill="lightgray" />
<path d="
M 217 551 
L 217 551 
L 203 551 
L 203 550 
L 225 550 
L 225 551 
Q 220 552 , 214 552 
Q 209 552 , 203 552 
Q 190 552 , 183 551 
Q 175 551 , 175 550 
Q 175 550 , 183 549 
Q 190 549 , 203 549 
Q 209 549 , 214 549 
Q 219 549 , 224 549 
L 224 550 
Q 217 549 , 213 549 
Q 209 549 , 204 549 
Q 194 549 , 188 550 
Q 183 550 , 183 550 
Q 183 551 , 188 551 
Q 194 551 , 204 551 
Q 209 551 , 212 551 
Q 216 551 , 217 551 
" fill="#F5C000" />
<path d="
M 225 549 
L 234 549 
L 234 551 
Q 234 551 , 238 551 
Q 241 551 , 250 551 
Q 259 551 , 262 551 
Q 266 551 , 266 551 
L 266 549 
L 275 549 
L 275 551 
Q 275 551 , 269 551 
Q 262 552 , 250 552 
Q 238 552 , 231 551 
Q 225 551 , 225 551 
L 225 549 
" fill="lightgray" />
<path d="
M 200 547 
L 191 548 
L 208 548 
L 200 547 
M 196 546 
L 204 546 
L 225 549 
L 217 549 
L 211 548 
L 189 548 
L 182 549 
L 175 549 
L 196 546 
" fill="#339541" />
<path d="
M 225 546 
L 234 546 
L 234 548 
Q 234 548 , 238 548 
Q 241 548 , 250 548 
Q 259 548 , 262 548 
Q 266 548 , 266 548 
L 266 546 
L 275 546 
L 275 548 
Q 275 548 , 269 548 
Q 262 549 , 250 549 
Q 238 549 , 231 548 
Q 225 548 , 225 548 
L 225 546 
" fill="lightgray" />
<path d="
M 217 545 
L 217 545 
L 203 545 
L 203 544 
L 225 544 
L 225 546 
Q 220 546 , 214 546 
Q 209 546 , 203 546 
Q 190 546 , 183 546 
Q 175 545 , 175 544 
Q 175 544 , 183 543 
Q 190 543 , 203 543 
Q 209 543 , 214 543 
Q 219 543 , 224 543 
L 224 544 
Q 217 543 , 213 543 
Q 209 543 , 204 543 
Q 194 543 , 188 544 
Q 183 544 , 183 544 
Q 183 545 , 188 545 
Q 194 546 , 204 546 
Q 209 546 , 212 546 
Q 216 546 , 217 545 
" fill="#F5C000" />
<path d="
M 275 543 
L 275 544 
Q 268 543 , 264 543 
Q 259 543 , 254 543 
Q 244 543 , 239 544 
Q 233 544 , 233 544 
Q 233 545 , 239 545 
Q 244 546 , 254 546 
Q 259 546 , 264 546 
Q 268 545 , 275 545 
L 275 546 
Q 270 546 , 264 546 
Q 260 546 , 254 546 
Q 240 546 , 233 546 
Q 225 545 , 225 544 
Q 225 544 , 233 543 
Q 240 543 , 254 543 
Q 260 543 , 265 543 
Q 270 543 , 275 543 
" fill="lightgray" />
<path d="
M 175 537 
L 184 537 
L 184 540 
Q 184 541 , 188 541 
Q 191 542 , 200 542 
Q 209 542 , 212 541 
Q 216 541 , 216 540 
L 216 537 
L 225 537 
L 225 540 
Q 225 541 , 219 542 
Q 212 542 , 200 542 
Q 188 542 , 181 542 
Q 175 541 , 175 540 
L 175 537 
" fill="#D21010" />
<path d="
M 250 538 
L 241 540 
L 258 540 
L 250 538 
M 246 537 
L 254 537 
L 275 542 
L 267 542 
L 261 541 
L 239 541 
L 232 542 
L 225 542 
L 246 537 
" fill="lightgray" />
<path d="
M 175 530 
L 184 530 
L 184 534 
Q 184 535 , 188 535 
Q 191 536 , 200 536 
Q 209 536 , 212 535 
Q 216 535 , 216 534 
L 216 530 
L 225 530 
L 225 534 
Q 225 535 , 219 536 
Q 212 536 , 200 536 
Q 188 536 , 181 536 
Q 175 535 , 175 534 
L 175 530 
" fill="#D21010" />
<path d="
M 267 535 
L 267 534 
L 253 534 
L 253 533 
L 275 533 
L 275 536 
Q 270 536 , 264 536 
Q 259 536 , 253 536 
Q 240 536 , 233 535 
Q 225 535 , 225 533 
Q 225 532 , 233 531 
Q 240 530 , 253 530 
Q 259 530 , 264 530 
Q 269 530 , 274 531 
L 274 531 
Q 267 531 , 263 531 
Q 259 531 , 254 531 
Q 244 531 , 238 531 
Q 233 532 , 233 533 
Q 233 534 , 238 535 
Q 244 536 , 254 536 
Q 259 536 , 262 536 
Q 266 536 , 267 535 
" fill="lightgray" />
<path d="
M 330 552 
L 312 553 
L 346 553 
L 330 552 
M 323 552 
L 337 552 
L 380 554 
L 364 554 
L 352 554 
L 308 554 
L 295 554 
L 280 554 
L 323 552 
" fill="#339541" />
<path d="
M 364 549 
L 364 544 
L 335 544 
L 335 543 
L 380 543 
L 380 550 
Q 369 551 , 358 551 
Q 349 551 , 337 551 
Q 311 551 , 295 549 
Q 280 547 , 280 543 
Q 280 539 , 295 537 
Q 311 535 , 337 535 
Q 348 535 , 357 535 
Q 367 536 , 377 536 
L 377 538 
Q 364 537 , 356 537 
Q 347 537 , 338 537 
Q 317 537 , 306 538 
Q 296 540 , 296 543 
Q 296 546 , 306 548 
Q 317 549 , 338 549 
Q 347 549 , 354 549 
Q 361 549 , 364 549 
" fill="#F5C000" />
<path d="
M 380 516 
L 380 519 
Q 365 517 , 357 517 
Q 349 516 , 339 516 
Q 318 516 , 308 518 
Q 296 520 , 296 524 
Q 296 528 , 308 531 
Q 318 533 , 339 533 
Q 349 533 , 357 532 
Q 365 531 , 380 529 
L 380 533 
Q 369 534 , 359 534 
Q 349 535 , 338 535 
Q 311 535 , 296 532 
Q 280 529 , 280 524 
Q 280 520 , 296 517 
Q 311 514 , 338 514 
Q 349 514 , 359 515 
Q 370 515 , 380 516 
" fill="#545FFF" />
<path d="
M 280 460 
L 298 460 
L 298 491 
Q 298 500 , 306 504 
Q 313 507 , 330 507 
Q 347 507 , 355 504 
Q 362 500 , 362 491 
L 362 460 
L 380 460 
L 380 492 
Q 380 502 , 367 508 
Q 355 513 , 330 513 
Q 306 513 , 293 508 
Q 280 502 , 280 492 
L 280 460 
" fill="#D21010" />
<path d="
M 435 553 
L 417 554 
L 451 554 
L 435 553 
M 428 553 
L 442 553 
L 485 554 
L 469 554 
L 457 554 
L 413 554 
L 400 554 
L 385 554 
L 428 553 
" fill="#339541" />
<path d="
M 485 543 
L 485 545 
Q 470 544 , 462 543 
Q 454 543 , 444 543 
Q 423 543 , 413 544 
Q 401 545 , 401 547 
Q 401 549 , 413 550 
Q 423 551 , 444 551 
Q 454 551 , 462 551 
Q 470 550 , 485 549 
L 485 551 
Q 474 552 , 464 552 
Q 454 552 , 443 552 
Q 416 552 , 401 551 
Q 385 549 , 385 547 
Q 385 545 , 401 543 
Q 416 542 , 443 542 
Q 454 542 , 464 542 
Q 475 542 , 485 543 
" fill="#545FFF" />
<path d="
M 469 536 
L 469 525 
L 440 525 
L 440 520 
L 485 520 
L 485 538 
Q 474 540 , 463 541 
Q 454 541 , 442 541 
Q 416 541 , 400 536 
Q 385 531 , 385 521 
Q 385 512 , 400 506 
Q 416 501 , 442 501 
Q 453 501 , 462 502 
Q 472 502 , 482 504 
L 482 509 
Q 469 507 , 461 506 
Q 452 506 , 443 506 
Q 422 506 , 411 510 
Q 401 513 , 401 521 
Q 401 529 , 411 533 
Q 422 537 , 443 537 
Q 452 537 , 459 536 
Q 466 536 , 469 536 
" fill="#F5C000" />
<path d="
M 385 408 
L 403 408 
L 403 463 
Q 403 478 , 411 484 
Q 418 490 , 435 490 
Q 452 490 , 460 484 
Q 467 478 , 467 463 
L 467 408 
L 485 408 
L 485 464 
Q 485 482 , 472 491 
Q 460 501 , 435 501 
Q 411 501 , 398 491 
Q 385 482 , 385 464 
L 385 408 
" fill="#D21010" />
<path d="
M 540 552 
L 522 553 
L 556 553 
L 540 552 
M 533 552 
L 547 552 
L 590 554 
L 574 554 
L 562 554 
L 518 554 
L 505 554 
L 490 554 
L 533 552 
" fill="#339541" />
<path d="
M 590 538 
L 590 540 
Q 575 539 , 567 538 
Q 559 538 , 549 538 
Q 528 538 , 518 539 
Q 506 541 , 506 544 
Q 506 547 , 518 548 
Q 528 550 , 549 550 
Q 559 550 , 567 550 
Q 575 549 , 590 548 
L 590 550 
Q 579 551 , 569 551 
Q 559 552 , 548 552 
Q 521 552 , 506 550 
Q 490 547 , 490 544 
Q 490 540 , 506 538 
Q 521 536 , 548 536 
Q 559 536 , 569 536 
Q 580 537 , 590 538 
" fill="#545FFF" />
<path d="
M 574 532 
L 574 525 
L 545 525 
L 545 522 
L 590 522 
L 590 533 
Q 579 534 , 568 535 
Q 559 535 , 547 535 
Q 521 535 , 505 532 
Q 490 529 , 490 523 
Q 490 517 , 505 514 
Q 521 511 , 547 511 
Q 558 511 , 567 511 
Q 577 512 , 587 513 
L 587 516 
Q 574 515 , 566 514 
Q 557 514 , 548 514 
Q 527 514 , 516 516 
Q 506 518 , 506 523 
Q 506 528 , 516 530 
Q 527 532 , 548 532 
Q 557 532 , 564 532 
Q 571 532 , 574 532 
" fill="#F5C000" />
<path d="
M 490 443 
L 508 443 
L 508 483 
Q 508 494 , 516 498 
Q 523 503 , 540 503 
Q 557 503 , 565 498 
Q 572 494 , 572 483 
L 572 443 
L 590 443 
L 590 484 
Q 590 497 , 577 503 
Q 565 510 , 540 510 
Q 516 510 , 503 503 
Q 490 497 , 490 484 
L 490 443 
" fill="#D21010" />
<path d="
M 645 552 
L 645 553 
Q 638 552 , 634 552 
Q 629 552 , 624 552 
Q 614 552 , 609 552 
Q 603 553 , 603 553 
Q 603 554 , 609 554 
Q 614 554 , 624 554 
Q 629 554 , 634 554 
Q 638 554 , 645 554 
L 645 554 
Q 640 554 , 634 554 
Q 630 554 , 624 554 
Q 610 554 , 603 554 
Q 595 554 , 595 553 
Q 595 553 , 603 552 
Q 610 552 , 624 552 
Q 630 552 , 635 552 
Q 640 552 , 645 552 
" fill="lightgray" />
<path d="
M 687 554 
L 687 553 
L 673 553 
L 673 553 
L 695 553 
L 695 554 
Q 690 554 , 684 554 
Q 679 554 , 673 554 
Q 660 554 , 653 554 
Q 645 554 , 645 553 
Q 645 553 , 653 552 
Q 660 552 , 673 552 
Q 679 552 , 684 552 
Q 689 552 , 694 552 
L 694 552 
Q 687 552 , 683 552 
Q 679 552 , 674 552 
Q 664 552 , 658 552 
Q 653 553 , 653 553 
Q 653 554 , 658 554 
Q 664 554 , 674 554 
Q 679 554 , 682 554 
Q 686 554 , 687 554 
" fill="#F5C000" />
<path d="
M 637 551 
L 637 551 
L 623 551 
L 623 550 
L 645 550 
L 645 551 
Q 640 552 , 634 552 
Q 629 552 , 623 552 
Q 610 552 , 603 551 
Q 595 551 , 595 550 
Q 595 550 , 603 549 
Q 610 549 , 623 549 
Q 629 549 , 634 549 
Q 639 549 , 644 549 
L 644 550 
Q 637 549 , 633 549 
Q 629 549 , 624 549 
Q 614 549 , 608 550 
Q 603 550 , 603 550 
Q 603 551 , 608 551 
Q 614 551 , 624 551 
Q 629 551 , 632 551 
Q 636 551 , 637 551 
" fill="lightgray" />
<path d="
M 645 549 
L 654 549 
L 654 551 
Q 654 551 , 658 551 
Q 661 551 , 670 551 
Q 679 551 , 682 551 
Q 686 551 , 686 551 
L 686 549 
L 695 549 
L 695 551 
Q 695 551 , 689 551 
Q 682 552 , 670 552 
Q 658 552 , 651 551 
Q 645 551 , 645 551 
L 645 549 
" fill="#D21010" />
<path d="
M 620 547 
L 611 548 
L 628 548 
L 620 547 
M 616 546 
L 624 546 
L 645 549 
L 637 549 
L 631 548 
L 609 548 
L 602 549 
L 595 549 
L 616 546 
" fill="lightgray" />
<path d="
M 645 546 
L 654 546 
L 654 548 
Q 654 548 , 658 548 
Q 661 548 , 670 548 
Q 679 548 , 682 548 
Q 686 548 , 686 548 
L 686 546 
L 695 546 
L 695 548 
Q 695 548 , 689 548 
Q 682 549 , 670 549 
Q 658 549 , 651 548 
Q 645 548 , 645 548 
L 645 546 
" fill="#D21010" />
<path d="
M 637 545 
L 637 545 
L 623 545 
L 623 544 
L 645 544 
L 645 546 
Q 640 546 , 634 546 
Q 629 546 , 623 546 
Q 610 546 , 603 546 
Q 595 545 , 595 544 
Q 595 544 , 603 543 
Q 610 543 , 623 543 
Q 629 543 , 634 543 
Q 639 543 , 644 543 
L 644 544 
Q 637 543 , 633 543 
Q 629 543 , 624 543 
Q 614 543 , 608 544 
Q 603 544 , 603 544 
Q 603 545 , 608 545 
Q 614 546 , 624 546 
Q 629 546 , 632 546 
Q 636 546 , 637 545 
" fill="lightgray" />
<path d="
M 695 543 
L 695 544 
Q 688 543 , 684 543 
Q 679 543 , 674 543 
Q 664 543 , 659 544 
Q 653 544 , 653 544 
Q 653 545 , 659 545 
Q 664 546 , 674 546 
Q 679 546 , 684 546 
Q 688 545 , 695 545 
L 695 546 
Q 690 546 , 684 546 
Q 680 546 , 674 546 
Q 660 546 , 653 546 
Q 645 545 , 645 544 
Q 645 544 , 653 543 
Q 660 543 , 674 543 
Q 680 543 , 685 543 
Q 690 543 , 695 543 
" fill="#545FFF" />
<path d="
M 595 537 
L 604 537 
L 604 540 
Q 604 541 , 608 541 
Q 611 542 , 620 542 
Q 629 542 , 632 541 
Q 636 541 , 636 540 
L 636 537 
L 645 537 
L 645 540 
Q 645 541 , 639 542 
Q 632 542 , 620 542 
Q 608 542 , 601 542 
Q 595 541 , 595 540 
L 595 537 
" fill="lightgray" />
<path d="
M 670 538 
L 661 540 
L 678 540 
L 670 538 
M 666 537 
L 674 537 
L 695 542 
L 687 542 
L 681 541 
L 659 541 
L 652 542 
L 645 542 
L 666 537 
" fill="#339541" />
<path d="
M 595 530 
L 604 530 
L 604 534 
Q 604 535 , 608 535 
Q 611 536 , 620 536 
Q 629 536 , 632 535 
Q 636 535 , 636 534 
L 636 530 
L 645 530 
L 645 534 
Q 645 535 , 639 536 
Q 632 536 , 620 536 
Q 608 536 , 601 536 
Q 595 535 , 595 534 
L 595 530 
" fill="lightgray" />
<path d="
M 687 535 
L 687 534 
L 673 534 
L 673 533 
L 695 533 
L 695 536 
Q 690 536 , 684 536 
Q 679 536 , 673 536 
Q 660 536 , 653 535 
Q 645 535 , 645 533 
Q 645 532 , 653 531 
Q 660 530 , 673 530 
Q 679 530 , 684 530 
Q 689 530 , 694 531 
L 694 531 
Q 687 531 , 683 531 
Q 679 531 , 674 531 
Q 664 531 , 658 531 
Q 653 532 , 653 533 
Q 653 534 , 658 535 
Q 664 536 , 674 536 
Q 679 536 , 682 536 
Q 686 536 , 687 535 
" fill="#F5C000" />
<path d="
M 750 554 
L 732 554 
L 766 554 
L 750 554 
M 743 554 
L 757 554 
L 800 555 
L 784 555 
L 772 554 
L 728 554 
L 715 555 
L 700 555 
L 743 554 
" fill="#339541" />
<path d="
M 800 553 
L 800 553 
Q 785 553 , 777 553 
Q 769 553 , 759 553 
Q 738 553 , 728 553 
Q 716 553 , 716 553 
Q 716 554 , 728 554 
Q 738 554 , 759 554 
Q 769 554 , 777 554 
Q 785 554 , 800 554 
L 800 554 
Q 789 554 , 779 554 
Q 769 554 , 758 554 
Q 731 554 , 716 554 
Q 700 554 , 700 553 
Q 700 553 , 716 553 
Q 731 553 , 758 553 
Q 769 553 , 779 553 
Q 790 553 , 800 553 
" fill="#545FFF" />
<path d="
M 700 552 
L 718 552 
L 718 553 
Q 718 553 , 726 553 
Q 733 553 , 750 553 
Q 767 553 , 775 553 
Q 782 553 , 782 553 
L 782 552 
L 800 552 
L 800 553 
Q 800 553 , 787 553 
Q 775 553 , 750 553 
Q 726 553 , 713 553 
Q 700 553 , 700 553 
L 700 552 
" fill="#D21010" />
<path d="
M 784 552 
L 784 552 
L 755 552 
L 755 551 
L 800 551 
L 800 552 
Q 789 552 , 778 552 
Q 769 552 , 757 552 
Q 731 552 , 715 552 
Q 700 552 , 700 551 
Q 700 551 , 715 551 
Q 731 551 , 757 551 
Q 768 551 , 777 551 
Q 787 551 , 797 551 
L 797 551 
Q 784 551 , 776 551 
Q 767 551 , 758 551 
Q 737 551 , 726 551 
Q 716 551 , 716 551 
Q 716 552 , 726 552 
Q 737 552 , 758 552 
Q 767 552 , 774 552 
Q 781 552 , 784 552 
" fill="#F5C000" />
<path d="
M 855 553 
L 837 554 
L 871 554 
L 855 553 
M 848 553 
L 862 553 
L 905 555 
L 889 555 
L 877 554 
L 833 554 
L 820 555 
L 805 555 
L 848 553 
" fill="#339541" />
<path d="
M 805 548 
L 823 548 
L 823 551 
Q 823 552 , 831 552 
Q 838 552 , 855 552 
Q 872 552 , 880 552 
Q 887 552 , 887 551 
L 887 548 
L 905 548 
L 905 551 
Q 905 552 , 892 552 
Q 880 553 , 855 553 
Q 831 553 , 818 552 
Q 805 552 , 805 551 
L 805 548 
" fill="#D21010" />
<path d="
M 889 542 
L 889 533 
L 860 533 
L 860 529 
L 905 529 
L 905 544 
Q 894 546 , 883 547 
Q 874 547 , 862 547 
Q 836 547 , 820 542 
Q 805 538 , 805 530 
Q 805 521 , 820 517 
Q 836 512 , 862 512 
Q 873 512 , 882 513 
Q 892 513 , 902 515 
L 902 519 
Q 889 517 , 881 517 
Q 872 516 , 863 516 
Q 842 516 , 831 519 
Q 821 523 , 821 530 
Q 821 537 , 831 540 
Q 842 543 , 863 543 
Q 872 543 , 879 543 
Q 886 543 , 889 542 
" fill="#F5C000" />
<path d="
M 905 349 
L 905 377 
Q 890 359 , 882 355 
Q 874 350 , 864 350 
Q 843 350 , 833 368 
Q 821 386 , 821 421 
Q 821 456 , 833 474 
Q 843 492 , 864 492 
Q 874 492 , 882 487 
Q 890 482 , 905 464 
L 905 493 
Q 894 503 , 884 507 
Q 874 511 , 863 511 
Q 836 511 , 821 487 
Q 805 462 , 805 421 
Q 805 379 , 821 355 
Q 836 330 , 863 330 
Q 874 330 , 884 334 
Q 895 339 , 905 349 
" fill="#545FFF" />
<path d="
M 1010 550 
L 1010 551 
Q 995 551 , 987 551 
Q 979 550 , 969 550 
Q 948 550 , 938 551 
Q 926 551 , 926 552 
Q 926 553 , 938 553 
Q 948 554 , 969 554 
Q 979 554 , 987 554 
Q 995 554 , 1010 553 
L 1010 554 
Q 999 554 , 989 554 
Q 979 554 , 968 554 
Q 941 554 , 926 554 
Q 910 553 , 910 552 
Q 910 551 , 926 551 
Q 941 550 , 968 550 
Q 979 550 , 989 550 
Q 1000 550 , 1010 550 
" fill="#545FFF" />
<path d="
M 994 549 
L 994 547 
L 965 547 
L 965 547 
L 1010 547 
L 1010 549 
Q 999 549 , 988 549 
Q 979 549 , 967 549 
Q 941 549 , 925 549 
Q 910 548 , 910 547 
Q 910 545 , 925 545 
Q 941 544 , 967 544 
Q 978 544 , 987 544 
Q 997 544 , 1007 544 
L 1007 545 
Q 994 545 , 986 545 
Q 977 545 , 968 545 
Q 947 545 , 936 545 
Q 926 546 , 926 547 
Q 926 548 , 936 548 
Q 947 549 , 968 549 
Q 977 549 , 984 549 
Q 991 549 , 994 549 
" fill="#F5C000" />
<path d="
M 960 506 
L 942 524 
L 976 524 
L 960 506 
M 953 497 
L 967 497 
L 1010 543 
L 994 543 
L 982 530 
L 938 530 
L 925 543 
L 910 543 
L 953 497 
" fill="#339541" />
<path d="
M 910 441 
L 928 441 
L 928 474 
Q 928 483 , 936 487 
Q 943 490 , 960 490 
Q 977 490 , 985 487 
Q 992 483 , 992 474 
L 992 441 
L 1010 441 
L 1010 475 
Q 1010 485 , 997 491 
Q 985 497 , 960 497 
Q 936 497 , 923 491 
Q 910 485 , 910 475 
L 910 441 
" fill="#D21010" />
<path d="
M 1065 552 
L 1047 553 
L 1081 553 
L 1065 552 
M 1058 552 
L 1072 552 
L 1115 555 
L 1099 555 
L 1087 554 
L 1043 554 
L 1030 555 
L 1015 555 
L 1058 552 
" fill="#339541" />
<path d="
M 1015 547 
L 1033 547 
L 1033 550 
Q 1033 551 , 1041 551 
Q 1048 551 , 1065 551 
Q 1082 551 , 1090 551 
Q 1097 551 , 1097 550 
L 1097 547 
L 1115 547 
L 1115 550 
Q 1115 551 , 1102 551 
Q 1090 552 , 1065 552 
Q 1041 552 , 1028 551 
Q 1015 551 , 1015 550 
L 1015 547 
" fill="#D21010" />
<path d="
M 1115 530 
L 1115 533 
Q 1100 531 , 1092 531 
Q 1084 530 , 1074 530 
Q 1053 530 , 1043 532 
Q 1031 534 , 1031 537 
Q 1031 541 , 1043 543 
Q 1053 544 , 1074 544 
Q 1084 544 , 1092 544 
Q 1100 543 , 1115 542 
L 1115 545 
Q 1104 546 , 1094 546 
Q 1084 546 , 1073 546 
Q 1046 546 , 1031 544 
Q 1015 541 , 1015 537 
Q 1015 533 , 1031 531 
Q 1046 528 , 1073 528 
Q 1084 528 , 1094 528 
Q 1105 529 , 1115 530 
" fill="#545FFF" />
<path d="
M 1099 490 
L 1099 422 
L 1070 422 
L 1070 394 
L 1115 394 
L 1115 508 
Q 1104 518 , 1093 522 
Q 1084 527 , 1072 527 
Q 1046 527 , 1030 493 
Q 1015 459 , 1015 400 
Q 1015 340 , 1030 306 
Q 1046 272 , 1072 272 
Q 1083 272 , 1092 276 
Q 1102 281 , 1112 293 
L 1112 325 
Q 1099 311 , 1091 307 
Q 1082 302 , 1073 302 
Q 1052 302 , 1041 326 
Q 1031 350 , 1031 400 
Q 1031 450 , 1041 474 
Q 1052 499 , 1073 499 
Q 1082 499 , 1089 496 
Q 1096 494 , 1099 490 
" fill="#F5C000" />
<path d="
M 1170 552 
L 1152 553 
L 1186 553 
L 1170 552 
M 1163 552 
L 1177 552 
L 1220 554 
L 1204 554 
L 1192 554 
L 1148 554 
L 1135 554 
L 1120 554 
L 1163 552 
" fill="#339541" />
<path d="
M 1220 545 
L 1220 546 
Q 1205 545 , 1197 545 
Q 1189 545 , 1179 545 
Q 1158 545 , 1148 545 
Q 1136 546 , 1136 547 
Q 1136 549 , 1148 550 
Q 1158 550 , 1179 550 
Q 1189 550 , 1197 550 
Q 1205 550 , 1220 549 
L 1220 550 
Q 1209 551 , 1199 551 
Q 1189 551 , 1178 551 
Q 1151 551 , 1136 550 
Q 1120 549 , 1120 548 
Q 1120 546 , 1136 545 
Q 1151 544 , 1178 544 
Q 1189 544 , 1199 544 
Q 1210 544 , 1220 545 
" fill="#545FFF" />
<path d="
M 1120 496 
L 1138 496 
L 1138 524 
Q 1138 532 , 1146 535 
Q 1153 538 , 1170 538 
Q 1187 538 , 1195 535 
Q 1202 532 , 1202 524 
L 1202 496 
L 1220 496 
L 1220 525 
Q 1220 534 , 1207 539 
Q 1195 544 , 1170 544 
Q 1146 544 , 1133 539 
Q 1120 534 , 1120 525 
L 1120 496 
" fill="#D21010" />
<path d="
M 1204 484 
L 1204 465 
L 1175 465 
L 1175 456 
L 1220 456 
L 1220 489 
Q 1209 493 , 1198 494 
Q 1189 495 , 1177 495 
Q 1151 495 , 1135 485 
Q 1120 475 , 1120 458 
Q 1120 441 , 1135 431 
Q 1151 421 , 1177 421 
Q 1188 421 , 1197 422 
Q 1207 424 , 1217 427 
L 1217 436 
Q 1204 432 , 1196 431 
Q 1187 430 , 1178 430 
Q 1157 430 , 1146 437 
Q 1136 444 , 1136 458 
Q 1136 473 , 1146 480 
Q 1157 487 , 1178 487 
Q 1187 487 , 1194 486 
Q 1201 485 , 1204 484 
" fill="#F5C000" />
<path d="
M 1225 550 
L 1243 550 
L 1243 552 
Q 1243 553 , 1251 553 
Q 1258 554 , 1275 554 
Q 1292 554 , 1300 553 
Q 1307 553 , 1307 552 
L 1307 550 
L 1325 550 
L 1325 553 
Q 1325 553 , 1312 554 
Q 1300 554 , 1275 554 
Q 1251 554 , 1238 554 
Q 1225 553 , 1225 553 
L 1225 550 
" fill="#D21010" />
<path d="
M 1275 546 
L 1257 548 
L 1291 548 
L 1275 546 
M 1268 545 
L 1282 545 
L 1325 550 
L 1309 550 
L 1297 548 
L 1253 548 
L 1240 550 
L 1225 550 
L 1268 545 
" fill="#339541" />
<path d="
M 1309 537 
L 1309 523 
L 1280 523 
L 1280 517 
L 1325 517 
L 1325 540 
Q 1314 542 , 1303 543 
Q 1294 544 , 1282 544 
Q 1256 544 , 1240 537 
Q 1225 530 , 1225 519 
Q 1225 507 , 1240 500 
Q 1256 493 , 1282 493 
Q 1293 493 , 1302 494 
Q 1312 495 , 1322 497 
L 1322 504 
Q 1309 501 , 1301 500 
Q 1292 499 , 1283 499 
Q 1262 499 , 1251 504 
Q 1241 509 , 1241 519 
Q 1241 529 , 1251 534 
Q 1262 538 , 1283 538 
Q 1292 538 , 1299 538 
Q 1306 537 , 1309 537 
" fill="#F5C000" />
<path d="
M 1325 440 
L 1325 449 
Q 1310 443 , 1302 442 
Q 1294 440 , 1284 440 
Q 1263 440 , 1253 446 
Q 1241 452 , 1241 463 
Q 1241 475 , 1253 481 
Q 1263 486 , 1284 486 
Q 1294 486 , 1302 485 
Q 1310 483 , 1325 477 
L 1325 487 
Q 1314 490 , 1304 491 
Q 1294 493 , 1283 493 
Q 1256 493 , 1241 485 
Q 1225 477 , 1225 463 
Q 1225 450 , 1241 442 
Q 1256 434 , 1283 434 
Q 1294 434 , 1304 435 
Q 1315 437 , 1325 440 
" fill="#545FFF" />
<path d="
M 1380 554 
L 1362 554 
L 1396 554 
L 1380 554 
M 1373 554 
L 1387 554 
L 1430 555 
L 1414 555 
L 1402 554 
L 1358 554 
L 1345 555 
L 1330 555 
L 1373 554 
" fill="#339541" />
<path d="
M 1430 553 
L 1430 553 
Q 1415 553 , 1407 553 
Q 1399 553 , 1389 553 
Q 1368 553 , 1358 553 
Q 1346 553 , 1346 553 
Q 1346 554 , 1358 554 
Q 1368 554 , 1389 554 
Q 1399 554 , 1407 554 
Q 1415 554 , 1430 554 
L 1430 554 
Q 1419 554 , 1409 554 
Q 1399 554 , 1388 554 
Q 1361 554 , 1346 554 
Q 1330 554 , 1330 553 
Q 1330 553 , 1346 553 
Q 1361 553 , 1388 553 
Q 1399 553 , 1409 553 
Q 1420 553 , 1430 553 
" fill="#545FFF" />
<path d="
M 1330 552 
L 1348 552 
L 1348 553 
Q 1348 553 , 1356 553 
Q 1363 553 , 1380 553 
Q 1397 553 , 1405 553 
Q 1412 553 , 1412 553 
L 1412 552 
L 1430 552 
L 1430 553 
Q 1430 553 , 1417 553 
Q 1405 553 , 1380 553 
Q 1356 553 , 1343 553 
Q 1330 553 , 1330 553 
L 1330 552 
" fill="#D21010" />
<path d="
M 1414 552 
L 1414 552 
L 1385 552 
L 1385 551 
L 1430 551 
L 1430 552 
Q 1419 552 , 1408 552 
Q 1399 552 , 1387 552 
Q 1361 552 , 1345 552 
Q 1330 552 , 1330 551 
Q 1330 551 , 1345 551 
Q 1361 551 , 1387 551 
Q 1398 551 , 1407 551 
Q 1417 551 , 1427 551 
L 1427 551 
Q 1414 551 , 1406 551 
Q 1397 551 , 1388 551 
Q 1367 551 , 1356 551 
Q 1346 551 , 1346 551 
Q 1346 552 , 1356 552 
Q 1367 552 , 1388 552 
Q 1397 552 , 1404 552 
Q 1411 552 , 1414 552 
" fill="#F5C000" />
<path d="M 65 168 L 65 555 " stroke="black" stroke-width="1.5"/>
<path d="M 55 555 L 65 555 " stroke="black" stroke-width="4"/>
<text text-anchor="end" x="50" y="555" font-size="50" alignment-baseline="middle">0</text>
<path d="M 55 362 L 65 362 " stroke="black" stroke-width="4"/>
<text text-anchor="end" x="50" y="362" font-size="50" alignment-baseline="middle">1</text>
<path d="M 55 168 L 65 168 " stroke="black" stroke-width="4"/>
<text text-anchor="end" x="50" y="168" font-size="50" alignment-baseline="middle">2</text>
<text text-anchor="middle" x="750" y="50" font-size="50" alignment-baseline="baseline"></text>
G<path d="
M 160 582 
L 126 595 
L 160 608 
L 157 611 
L 123 598 
L 123 623 
L 117 623 
L 117 599 
L 83 611 
L 80 608 
L 114 595 
L 80 582 
L 83 579 
L 117 591 
L 117 567 
L 123 567 
L 123 591 
L 157 579 
L 160 582 
" fill="black" />
<path d="
M 265 567 
Q 236 574 , 223 581 
Q 210 588 , 210 595 
Q 210 602 , 223 609 
Q 236 616 , 265 623 
L 241 623 
Q 213 616 , 199 609 
Q 185 602 , 185 595 
Q 185 588 , 199 581 
Q 213 574 , 241 567 
L 265 567 
" fill="black" />
<path d="
" fill="black" />
<path d="
M 316 567 
L 343 567 
L 343 623 
L 316 623 
L 316 567 
" fill="black" />
<path d="
" fill="black" />
<path d="
" fill="black" />
<path d="
M 421 567 
L 448 567 
L 448 623 
L 421 623 
L 421 567 
" fill="black" />
<path d="
" fill="black" />
<path d="
" fill="black" />
<path d="
M 526 567 
L 553 567 
L 553 623 
L 526 623 
L 526 567 
" fill="black" />
<path d="
" fill="black" />
<path d="
M 598 567 
L 606 567 
Q 615 574 , 620 581 
Q 625 588 , 625 595 
Q 625 602 , 620 609 
Q 615 616 , 606 623 
L 598 623 
Q 608 616 , 612 609 
Q 616 602 , 616 595 
Q 616 588 , 612 581 
Q 608 574 , 598 567 
" fill="black" />
<path d="
M 635 619 
L 658 619 
L 658 623 
L 631 623 
L 631 619 
L 641 604 
Q 645 599 , 648 595 
Q 651 591 , 652 589 
Q 653 587 , 653 583 
Q 653 577 , 650 573 
Q 648 571 , 643 571 
Q 641 571 , 637 573 
Q 636 574 , 632 577 
L 632 573 
Q 633 571 , 636 569 
Q 640 567 , 643 567 
Q 649 567 , 652 571 
Q 656 574 , 656 583 
Q 656 586 , 655 589 
Q 654 593 , 651 597 
Q 651 598 , 647 603 
L 635 619 
" fill="black" />
<path d="
M 678 595 
Q 674 595 , 671 599 
Q 668 602 , 668 607 
Q 668 613 , 671 616 
Q 674 619 , 678 619 
Q 683 619 , 685 616 
Q 688 613 , 688 607 
Q 688 602 , 686 599 
Q 683 595 , 678 595 
M 672 593 
Q 670 592 , 668 589 
Q 666 586 , 666 581 
Q 666 575 , 669 571 
Q 673 567 , 678 567 
Q 684 567 , 687 571 
Q 691 575 , 691 581 
Q 691 586 , 689 589 
Q 687 592 , 685 593 
Q 687 594 , 689 598 
Q 692 601 , 692 607 
Q 692 614 , 688 619 
Q 685 623 , 678 623 
Q 672 623 , 668 619 
Q 665 614 , 665 607 
Q 665 601 , 667 598 
Q 669 594 , 672 593 
M 671 573 
Q 669 576 , 669 581 
Q 669 586 , 671 589 
Q 674 592 , 678 592 
Q 683 592 , 685 589 
Q 687 586 , 687 581 
Q 687 576 , 685 574 
Q 683 571 , 678 571 
Q 674 571 , 671 573 
" fill="black" />
<path d="
M 790 582 
L 756 595 
L 790 608 
L 787 611 
L 753 598 
L 753 623 
L 747 623 
L 747 599 
L 713 611 
L 710 608 
L 744 595 
L 710 582 
L 713 579 
L 747 591 
L 747 567 
L 753 567 
L 753 591 
L 787 579 
L 790 582 
" fill="black" />
<path d="
" fill="black" />
<path d="
M 841 567 
L 868 567 
L 868 623 
L 841 623 
L 841 567 
" fill="black" />
<path d="
" fill="black" />
<path d="
" fill="black" />
<path d="
M 946 567 
L 973 567 
L 973 623 
L 946 623 
L 946 567 
" fill="black" />
<path d="
" fill="black" />
<path d="
" fill="black" />
<path d="
M 1051 567 
L 1078 567 
L 1078 623 
L 1051 623 
L 1051 567 
" fill="black" />
<path d="
" fill="black" />
<path d="
" fill="black" />
<path d="
M 1156 567 
L 1183 567 
L 1183 623 
L 1156 623 
L 1156 567 
" fill="black" />
<path d="
" fill="black" />
<path d="
" fill="black" />
<path d="
M 1261 567 
L 1288 567 
L 1288 623 
L 1261 623 
L 1261 567 
" fill="black" />
<path d="
" fill="black" />
<path d="
M 1420 582 
L 1386 595 
L 1420 608 
L 1417 611 
L 1383 598 
L 1383 623 
L 1377 623 
L 1377 599 
L 1343 611 
L 1340 608 
L 1374 595 
L 1340 582 
L 1343 579 
L 1377 591 
L 1377 567 
L 1383 567 
L 1383 591 
L 1417 579 
L 1420 582 
" fill="black" />
</svg>
