<svg xmlns="http://www.w3.org/2000/svg"
viewBox="0 0 1435 635">
<path d="
M 120 554 
L 102 554 
L 136 554 
L 120 554 
M 113 554 
L 127 554 
L 170 555 
L 154 555 
L 142 554 
L 98 554 
L 85 555 
L 70 555 
L 113 554 
" fill="#339541" />
<path d="
M 170 553 
L 170 553 
Q 155 553 , 147 553 
Q 139 553 , 129 553 
Q 108 553 , 98 553 
Q 86 553 , 86 553 
Q 86 554 , 98 554 
Q 108 554 , 129 554 
Q 139 554 , 147 554 
Q 155 554 , 170 554 
L 170 554 
Q 159 554 , 149 554 
Q 139 554 , 128 554 
Q 101 554 , 86 554 
Q 70 554 , 70 553 
Q 70 553 , 86 553 
Q 101 553 , 128 553 
Q 139 553 , 149 553 
Q 160 553 , 170 553 
" fill="#545FFF" />
<path d="
M 70 552 
L 88 552 
L 88 553 
Q 88 553 , 96 553 
Q 103 553 , 120 553 
Q 137 553 , 145 553 
Q 152 553 , 152 553 
L 152 552 
L 170 552 
L 170 553 
Q 170 553 , 157 553 
Q 145 553 , 120 553 
Q 96 553 , 83 553 
Q 70 553 , 70 553 
L 70 552 
" fill="#D21010" />
<path d="
M 154 552 
L 154 552 
L 125 552 
L 125 551 
L 170 551 
L 170 552 
Q 159 552 , 148 552 
Q 139 552 , 127 552 
Q 101 552 , 85 552 
Q 70 552 , 70 551 
Q 70 551 , 85 551 
Q 101 551 , 127 551 
Q 138 551 , 147 551 
Q 157 551 , 167 551 
L 167 551 
Q 154 551 , 146 551 
Q 137 551 , 128 551 
Q 107 551 , 96 551 
Q 86 551 , 86 551 
Q 86 552 , 96 552 
Q 107 552 , 128 552 
Q 137 552 , 144 552 
Q 151 552 , 154 552 
" fill="#F5C000" />
<path d="
M 217 554 
L 217 553 
L 203 553 
L 203 553 
L 225 553 
L 225 554 
Q 220 554 , 214 554 
Q 209 554 , 203 554 
Q 190 554 , 183 554 
Q 175 553 , 175 553 
Q 175 552 , 183 551 
Q 190 551 , 203 551 
Q 209 551 , 214 551 
Q 219 551 , 224 551 
L 224 552 
Q 217 551 , 213 551 
Q 209 551 , 204 551 
Q 194 551 , 188 552 
Q 183 552 , 183 553 
Q 183 553 , 188 554 
Q 194 554 , 204 554 
Q 209 554 , 212 554 
Q 216 554 , 217 554 
" fill="#F5C000" />
<path d="
M 225 551 
L 234 551 
L 234 553 
Q 234 553 , 238 554 
Q 241 554 , 250 554 
Q 259 554 , 262 554 
Q 266 553 , 266 553 
L 266 551 
L 275 551 
L 275 553 
Q 275 554 , 269 554 
Q 262 554 , 250 554 
Q 238 554 , 231 554 
Q 225 554 , 225 553 
L 225 551 
" fill="lightgray" />
<path d="
M 225 545 
L 225 546 
Q 218 545 , 214 545 
Q 209 545 , 204 545 
Q 194 545 , 189 545 
Q 183 546 , 183 547 
Q 183 549 , 189 549 
Q 194 550 , 204 550 
Q 209 550 , 214 550 
Q 218 550 , 225 549 
L 225 550 
Q 220 550 , 214 550 
Q 210 551 , 204 551 
Q 190 551 , 183 550 
Q 175 549 , 175 547 
Q 175 546 , 183 545 
Q 190 544 , 204 544 
Q 210 544 , 215 544 
Q 220 544 , 225 545 
" fill="#545FFF" />
<path d="
M 267 550 
L 267 548 
L 253 548 
L 253 547 
L 275 547 
L 275 550 
Q 270 550 , 264 550 
Q 259 551 , 253 551 
Q 240 551 , 233 550 
Q 225 549 , 225 547 
Q 225 546 , 233 545 
Q 240 544 , 253 544 
Q 259 544 , 264 544 
Q 269 544 , 274 545 
L 274 545 
Q 267 545 , 263 545 
Q 259 545 , 254 545 
Q 244 545 , 238 545 
Q 233 546 , 233 547 
Q 233 549 , 238 549 
Q 244 550 , 254 550 
Q 259 550 , 262 550 
Q 266 550 , 267 550 
" fill="lightgray" />
<path d="
M 175 537 
L 184 537 
L 184 541 
Q 184 542 , 188 542 
Q 191 543 , 200 543 
Q 209 543 , 212 542 
Q 216 542 , 216 541 
L 216 537 
L 225 537 
L 225 541 
Q 225 542 , 219 543 
Q 212 544 , 200 544 
Q 188 544 , 181 543 
Q 175 542 , 175 541 
L 175 537 
" fill="#D21010" />
<path d="
M 267 543 
L 267 541 
L 253 541 
L 253 540 
L 275 540 
L 275 543 
Q 270 543 , 264 544 
Q 259 544 , 253 544 
Q 240 544 , 233 543 
Q 225 542 , 225 540 
Q 225 539 , 233 538 
Q 240 537 , 253 537 
Q 259 537 , 264 537 
Q 269 537 , 274 538 
L 274 538 
Q 267 538 , 263 538 
Q 259 538 , 254 538 
Q 244 538 , 238 538 
Q 233 539 , 233 540 
Q 233 542 , 238 542 
Q 244 543 , 254 543 
Q 259 543 , 262 543 
Q 266 543 , 267 543 
" fill="lightgray" />
<path d="
M 200 528 
L 191 532 
L 208 532 
L 200 528 
M 196 526 
L 204 526 
L 225 537 
L 217 537 
L 211 533 
L 189 533 
L 182 537 
L 175 537 
L 196 526 
" fill="#339541" />
<path d="
M 225 526 
L 234 526 
L 234 532 
Q 234 534 , 238 535 
Q 241 535 , 250 535 
Q 259 535 , 262 535 
Q 266 534 , 266 532 
L 266 526 
L 275 526 
L 275 532 
Q 275 534 , 269 536 
Q 262 537 , 250 537 
Q 238 537 , 231 536 
Q 225 534 , 225 532 
L 225 526 
" fill="lightgray" />
<path d="
M 175 493 
L 184 493 
L 184 512 
Q 184 517 , 188 519 
Q 191 521 , 200 521 
Q 209 521 , 212 519 
Q 216 517 , 216 512 
L 216 493 
L 225 493 
L 225 512 
Q 225 519 , 219 522 
Q 212 525 , 200 525 
Q 188 525 , 181 522 
Q 175 519 , 175 512 
L 175 493 
" fill="#D21010" />
<path d="
M 250 499 
L 241 512 
L 258 512 
L 250 499 
M 246 493 
L 254 493 
L 275 525 
L 267 525 
L 261 516 
L 239 516 
L 232 525 
L 225 525 
L 246 493 
" fill="lightgray" />
<path d="
M 217 486 
L 217 474 
L 203 474 
L 203 470 
L 225 470 
L 225 489 
Q 220 491 , 214 491 
Q 209 492 , 203 492 
Q 190 492 , 183 486 
Q 175 481 , 175 471 
Q 175 461 , 183 455 
Q 190 449 , 203 449 
Q 209 449 , 214 450 
Q 219 451 , 224 453 
L 224 458 
Q 217 456 , 213 455 
Q 209 454 , 204 454 
Q 194 454 , 188 458 
Q 183 462 , 183 471 
Q 183 479 , 188 483 
Q 194 487 , 204 487 
Q 209 487 , 212 487 
Q 216 487 , 217 486 
" fill="#F5C000" />
<path d="
M 275 454 
L 275 460 
Q 268 456 , 264 455 
Q 259 454 , 254 454 
Q 244 454 , 239 458 
Q 233 462 , 233 470 
Q 233 479 , 239 483 
Q 244 488 , 254 488 
Q 259 488 , 264 486 
Q 268 485 , 275 481 
L 275 488 
Q 270 490 , 264 491 
Q 260 492 , 254 492 
Q 240 492 , 233 486 
Q 225 481 , 225 471 
Q 225 461 , 233 455 
Q 240 449 , 254 449 
Q 260 449 , 265 450 
Q 270 451 , 275 454 
" fill="lightgray" />
<path d="
M 380 548 
L 380 549 
Q 365 548 , 357 548 
Q 349 548 , 339 548 
Q 318 548 , 308 548 
Q 296 549 , 296 550 
Q 296 552 , 308 553 
Q 318 553 , 339 553 
Q 349 553 , 357 553 
Q 365 553 , 380 552 
L 380 553 
Q 369 554 , 359 554 
Q 349 554 , 338 554 
Q 311 554 , 296 553 
Q 280 552 , 280 551 
Q 280 549 , 296 548 
Q 311 547 , 338 547 
Q 349 547 , 359 547 
Q 370 547 , 380 548 
" fill="#545FFF" />
<path d="
M 330 540 
L 312 544 
L 346 544 
L 330 540 
M 323 539 
L 337 539 
L 380 547 
L 364 547 
L 352 544 
L 308 544 
L 295 547 
L 280 547 
L 323 539 
" fill="#339541" />
<path d="
M 364 536 
L 364 531 
L 335 531 
L 335 528 
L 380 528 
L 380 537 
Q 369 538 , 358 538 
Q 349 539 , 337 539 
Q 311 539 , 295 536 
Q 280 533 , 280 529 
Q 280 524 , 295 522 
Q 311 519 , 337 519 
Q 348 519 , 357 519 
Q 367 520 , 377 521 
L 377 523 
Q 364 522 , 356 522 
Q 347 521 , 338 521 
Q 317 521 , 306 523 
Q 296 525 , 296 529 
Q 296 533 , 306 535 
Q 317 537 , 338 537 
Q 347 537 , 354 536 
Q 361 536 , 364 536 
" fill="#F5C000" />
<path d="
M 280 470 
L 298 470 
L 298 498 
Q 298 506 , 306 510 
Q 313 513 , 330 513 
Q 347 513 , 355 510 
Q 362 506 , 362 498 
L 362 470 
L 380 470 
L 380 499 
Q 380 508 , 367 513 
Q 355 518 , 330 518 
Q 306 518 , 293 513 
Q 280 508 , 280 499 
L 280 470 
" fill="#D21010" />
<path d="
M 435 552 
L 417 554 
L 451 554 
L 435 552 
M 428 552 
L 442 552 
L 485 555 
L 469 555 
L 457 554 
L 413 554 
L 400 555 
L 385 555 
L 428 552 
" fill="#339541" />
<path d="
M 469 550 
L 469 547 
L 440 547 
L 440 545 
L 485 545 
L 485 551 
Q 474 551 , 463 551 
Q 454 551 , 442 551 
Q 416 551 , 400 550 
Q 385 548 , 385 546 
Q 385 543 , 400 542 
Q 416 540 , 442 540 
Q 453 540 , 462 540 
Q 472 540 , 482 541 
L 482 542 
Q 469 542 , 461 542 
Q 452 541 , 443 541 
Q 422 541 , 411 542 
Q 401 543 , 401 546 
Q 401 548 , 411 549 
Q 422 550 , 443 550 
Q 452 550 , 459 550 
Q 466 550 , 469 550 
" fill="#F5C000" />
<path d="
M 485 522 
L 485 525 
Q 470 523 , 462 523 
Q 454 522 , 444 522 
Q 423 522 , 413 524 
Q 401 526 , 401 529 
Q 401 533 , 413 535 
Q 423 537 , 444 537 
Q 454 537 , 462 537 
Q 470 536 , 485 534 
L 485 537 
Q 474 538 , 464 539 
Q 454 539 , 443 539 
Q 416 539 , 401 537 
Q 385 534 , 385 530 
Q 385 525 , 401 523 
Q 416 520 , 443 520 
Q 454 520 , 464 520 
Q 475 521 , 485 522 
" fill="#545FFF" />
<path d="
M 385 490 
L 403 490 
L 403 508 
Q 403 512 , 411 514 
Q 418 516 , 435 516 
Q 452 516 , 460 514 
Q 467 512 , 467 508 
L 467 490 
L 485 490 
L 485 508 
Q 485 514 , 472 517 
Q 460 520 , 435 520 
Q 411 520 , 398 517 
Q 385 514 , 385 508 
L 385 490 
" fill="#D21010" />
<path d="
M 590 551 
L 590 552 
Q 575 552 , 567 552 
Q 559 551 , 549 551 
Q 528 551 , 518 552 
Q 506 552 , 506 553 
Q 506 554 , 518 554 
Q 528 554 , 549 554 
Q 559 554 , 567 554 
Q 575 554 , 590 554 
L 590 554 
Q 579 555 , 569 555 
Q 559 555 , 548 555 
Q 521 555 , 506 554 
Q 490 554 , 490 553 
Q 490 552 , 506 552 
Q 521 551 , 548 551 
Q 559 551 , 569 551 
Q 580 551 , 590 551 
" fill="#545FFF" />
<path d="
M 540 544 
L 522 547 
L 556 547 
L 540 544 
M 533 542 
L 547 542 
L 590 550 
L 574 550 
L 562 548 
L 518 548 
L 505 550 
L 490 550 
L 533 542 
" fill="#339541" />
<path d="
M 574 537 
L 574 527 
L 545 527 
L 545 523 
L 590 523 
L 590 539 
Q 579 540 , 568 541 
Q 559 541 , 547 541 
Q 521 541 , 505 537 
Q 490 532 , 490 524 
Q 490 516 , 505 512 
Q 521 507 , 547 507 
Q 558 507 , 567 508 
Q 577 508 , 587 510 
L 587 514 
Q 574 512 , 566 512 
Q 557 511 , 548 511 
Q 527 511 , 516 514 
Q 506 518 , 506 524 
Q 506 531 , 516 534 
Q 527 538 , 548 538 
Q 557 538 , 564 537 
Q 571 537 , 574 537 
" fill="#F5C000" />
<path d="
M 490 439 
L 508 439 
L 508 479 
Q 508 490 , 516 495 
Q 523 499 , 540 499 
Q 557 499 , 565 495 
Q 572 490 , 572 479 
L 572 439 
L 590 439 
L 590 480 
Q 590 493 , 577 500 
Q 565 507 , 540 507 
Q 516 507 , 503 500 
Q 490 493 , 490 480 
L 490 439 
" fill="#D21010" />
<path d="
M 637 554 
L 637 554 
L 623 554 
L 623 554 
L 645 554 
L 645 554 
Q 640 554 , 634 554 
Q 629 554 , 623 554 
Q 610 554 , 603 554 
Q 595 554 , 595 554 
Q 595 553 , 603 553 
Q 610 553 , 623 553 
Q 629 553 , 634 553 
Q 639 553 , 644 553 
L 644 553 
Q 637 553 , 633 553 
Q 629 553 , 624 553 
Q 614 553 , 608 553 
Q 603 553 , 603 554 
Q 603 554 , 608 554 
Q 614 554 , 624 554 
Q 629 554 , 632 554 
Q 636 554 , 637 554 
" fill="#F5C000" />
<path d="
M 645 553 
L 654 553 
L 654 554 
Q 654 554 , 658 554 
Q 661 554 , 670 554 
Q 679 554 , 682 554 
Q 686 554 , 686 554 
L 686 553 
L 695 553 
L 695 554 
Q 695 554 , 689 554 
Q 682 554 , 670 554 
Q 658 554 , 651 554 
Q 645 554 , 645 554 
L 645 553 
" fill="lightgray" />
<path d="
M 595 547 
L 604 547 
L 604 550 
Q 604 551 , 608 551 
Q 611 552 , 620 552 
Q 629 552 , 632 551 
Q 636 551 , 636 550 
L 636 547 
L 645 547 
L 645 550 
Q 645 551 , 639 552 
Q 632 552 , 620 552 
Q 608 552 , 601 552 
Q 595 551 , 595 550 
L 595 547 
" fill="#D21010" />
<path d="
M 670 548 
L 661 550 
L 678 550 
L 670 548 
M 666 547 
L 674 547 
L 695 552 
L 687 552 
L 681 551 
L 659 551 
L 652 552 
L 645 552 
L 666 547 
" fill="lightgray" />
<path d="
M 620 542 
L 611 544 
L 628 544 
L 620 542 
M 616 541 
L 624 541 
L 645 547 
L 637 547 
L 631 545 
L 609 545 
L 602 547 
L 595 547 
L 616 541 
" fill="#339541" />
<path d="
M 645 541 
L 654 541 
L 654 544 
Q 654 545 , 658 546 
Q 661 546 , 670 546 
Q 679 546 , 682 546 
Q 686 545 , 686 544 
L 686 541 
L 695 541 
L 695 545 
Q 695 546 , 689 546 
Q 682 547 , 670 547 
Q 658 547 , 651 546 
Q 645 546 , 645 545 
L 645 541 
" fill="lightgray" />
<path d="
M 595 533 
L 604 533 
L 604 537 
Q 604 539 , 608 539 
Q 611 540 , 620 540 
Q 629 540 , 632 539 
Q 636 539 , 636 537 
L 636 533 
L 645 533 
L 645 538 
Q 645 539 , 639 540 
Q 632 541 , 620 541 
Q 608 541 , 601 540 
Q 595 539 , 595 538 
L 595 533 
" fill="#D21010" />
<path d="
M 687 539 
L 687 537 
L 673 537 
L 673 537 
L 695 537 
L 695 540 
Q 690 540 , 684 540 
Q 679 541 , 673 541 
Q 660 541 , 653 540 
Q 645 539 , 645 537 
Q 645 535 , 653 534 
Q 660 533 , 673 533 
Q 679 533 , 684 533 
Q 689 533 , 694 534 
L 694 535 
Q 687 534 , 683 534 
Q 679 534 , 674 534 
Q 664 534 , 658 535 
Q 653 535 , 653 537 
Q 653 538 , 658 539 
Q 664 540 , 674 540 
Q 679 540 , 682 540 
Q 686 540 , 687 539 
" fill="lightgray" />
<path d="
M 637 531 
L 637 528 
L 623 528 
L 623 527 
L 645 527 
L 645 531 
Q 640 532 , 634 532 
Q 629 532 , 623 532 
Q 610 532 , 603 531 
Q 595 530 , 595 528 
Q 595 525 , 603 524 
Q 610 523 , 623 523 
Q 629 523 , 634 523 
Q 639 523 , 644 524 
L 644 525 
Q 637 524 , 633 524 
Q 629 524 , 624 524 
Q 614 524 , 608 525 
Q 603 526 , 603 528 
Q 603 529 , 608 530 
Q 614 531 , 624 531 
Q 629 531 , 632 531 
Q 636 531 , 637 531 
" fill="#F5C000" />
<path d="
M 695 524 
L 695 525 
Q 688 524 , 684 524 
Q 679 524 , 674 524 
Q 664 524 , 659 525 
Q 653 526 , 653 527 
Q 653 529 , 659 530 
Q 664 531 , 674 531 
Q 679 531 , 684 531 
Q 688 531 , 695 530 
L 695 531 
Q 690 532 , 684 532 
Q 680 532 , 674 532 
Q 660 532 , 653 531 
Q 645 530 , 645 528 
Q 645 525 , 653 524 
Q 660 523 , 674 523 
Q 680 523 , 685 523 
Q 690 523 , 695 524 
" fill="lightgray" />
<path d="
M 645 511 
L 645 513 
Q 638 512 , 634 512 
Q 629 511 , 624 511 
Q 614 511 , 609 513 
Q 603 514 , 603 516 
Q 603 519 , 609 520 
Q 614 521 , 624 521 
Q 629 521 , 634 521 
Q 638 520 , 645 519 
L 645 521 
Q 640 522 , 634 522 
Q 630 522 , 624 522 
Q 610 522 , 603 521 
Q 595 519 , 595 516 
Q 595 513 , 603 512 
Q 610 510 , 624 510 
Q 630 510 , 635 510 
Q 640 511 , 645 511 
" fill="#545FFF" />
<path d="
M 687 521 
L 687 517 
L 673 517 
L 673 516 
L 695 516 
L 695 521 
Q 690 522 , 684 522 
Q 679 522 , 673 522 
Q 660 522 , 653 521 
Q 645 519 , 645 516 
Q 645 513 , 653 512 
Q 660 510 , 673 510 
Q 679 510 , 684 510 
Q 689 510 , 694 511 
L 694 513 
Q 687 512 , 683 512 
Q 679 511 , 674 511 
Q 664 511 , 658 513 
Q 653 514 , 653 516 
Q 653 519 , 658 520 
Q 664 521 , 674 521 
Q 679 521 , 682 521 
Q 686 521 , 687 521 
" fill="lightgray" />
<path d="
M 750 554 
L 732 554 
L 766 554 
L 750 554 
M 743 554 
L 757 554 
L 800 555 
L 784 555 
L 772 554 
L 728 554 
L 715 555 
L 700 555 
L 743 554 
" fill="#339541" />
<path d="
M 800 553 
L 800 553 
Q 785 553 , 777 553 
Q 769 553 , 759 553 
Q 738 553 , 728 553 
Q 716 553 , 716 553 
Q 716 554 , 728 554 
Q 738 554 , 759 554 
Q 769 554 , 777 554 
Q 785 554 , 800 554 
L 800 554 
Q 789 554 , 779 554 
Q 769 554 , 758 554 
Q 731 554 , 716 554 
Q 700 554 , 700 553 
Q 700 553 , 716 553 
Q 731 553 , 758 553 
Q 769 553 , 779 553 
Q 790 553 , 800 553 
" fill="#545FFF" />
<path d="
M 700 552 
L 718 552 
L 718 553 
Q 718 553 , 726 553 
Q 733 553 , 750 553 
Q 767 553 , 775 553 
Q 782 553 , 782 553 
L 782 552 
L 800 552 
L 800 553 
Q 800 553 , 787 553 
Q 775 553 , 750 553 
Q 726 553 , 713 553 
Q 700 553 , 700 553 
L 700 552 
" fill="#D21010" />
<path d="
M 784 552 
L 784 552 
L 755 552 
L 755 551 
L 800 551 
L 800 552 
Q 789 552 , 778 552 
Q 769 552 , 757 552 
Q 731 552 , 715 552 
Q 700 552 , 700 551 
Q 700 551 , 715 551 
Q 731 551 , 757 551 
Q 768 551 , 777 551 
Q 787 551 , 797 551 
L 797 551 
Q 784 551 , 776 551 
Q 767 551 , 758 551 
Q 737 551 , 726 551 
Q 716 551 , 716 551 
Q 716 552 , 726 552 
Q 737 552 , 758 552 
Q 767 552 , 774 552 
Q 781 552 , 784 552 
" fill="#F5C000" />
<path d="
M 855 552 
L 837 553 
L 871 553 
L 855 552 
M 848 551 
L 862 551 
L 905 555 
L 889 555 
L 877 554 
L 833 554 
L 820 555 
L 805 555 
L 848 551 
" fill="#339541" />
<path d="
M 889 550 
L 889 547 
L 860 547 
L 860 546 
L 905 546 
L 905 550 
Q 894 551 , 883 551 
Q 874 551 , 862 551 
Q 836 551 , 820 550 
Q 805 549 , 805 546 
Q 805 544 , 820 543 
Q 836 542 , 862 542 
Q 873 542 , 882 542 
Q 892 542 , 902 543 
L 902 544 
Q 889 543 , 881 543 
Q 872 543 , 863 543 
Q 842 543 , 831 544 
Q 821 545 , 821 546 
Q 821 548 , 831 549 
Q 842 550 , 863 550 
Q 872 550 , 879 550 
Q 886 550 , 889 550 
" fill="#F5C000" />
<path d="
M 805 511 
L 823 511 
L 823 529 
Q 823 534 , 831 536 
Q 838 538 , 855 538 
Q 872 538 , 880 536 
Q 887 534 , 887 529 
L 887 511 
L 905 511 
L 905 529 
Q 905 535 , 892 538 
Q 880 541 , 855 541 
Q 831 541 , 818 538 
Q 805 535 , 805 529 
L 805 511 
" fill="#D21010" />
<path d="
M 905 466 
L 905 474 
Q 890 469 , 882 468 
Q 874 466 , 864 466 
Q 843 466 , 833 471 
Q 821 476 , 821 485 
Q 821 495 , 833 500 
Q 843 505 , 864 505 
Q 874 505 , 882 504 
Q 890 502 , 905 497 
L 905 505 
Q 894 508 , 884 509 
Q 874 510 , 863 510 
Q 836 510 , 821 504 
Q 805 497 , 805 486 
Q 805 474 , 821 468 
Q 836 461 , 863 461 
Q 874 461 , 884 462 
Q 895 463 , 905 466 
" fill="#545FFF" />
<path d="
M 1010 552 
L 1010 553 
Q 995 552 , 987 552 
Q 979 552 , 969 552 
Q 948 552 , 938 552 
Q 926 553 , 926 553 
Q 926 553 , 938 554 
Q 948 554 , 969 554 
Q 979 554 , 987 554 
Q 995 554 , 1010 554 
L 1010 554 
Q 999 554 , 989 554 
Q 979 554 , 968 554 
Q 941 554 , 926 554 
Q 910 554 , 910 553 
Q 910 553 , 926 552 
Q 941 552 , 968 552 
Q 979 552 , 989 552 
Q 1000 552 , 1010 552 
" fill="#545FFF" />
<path d="
M 994 551 
L 994 550 
L 965 550 
L 965 549 
L 1010 549 
L 1010 551 
Q 999 552 , 988 552 
Q 979 552 , 967 552 
Q 941 552 , 925 551 
Q 910 550 , 910 549 
Q 910 548 , 925 548 
Q 941 547 , 967 547 
Q 978 547 , 987 547 
Q 997 547 , 1007 547 
L 1007 548 
Q 994 548 , 986 548 
Q 977 548 , 968 548 
Q 947 548 , 936 548 
Q 926 548 , 926 549 
Q 926 550 , 936 551 
Q 947 551 , 968 551 
Q 977 551 , 984 551 
Q 991 551 , 994 551 
" fill="#F5C000" />
<path d="
M 910 542 
L 928 542 
L 928 545 
Q 928 546 , 936 546 
Q 943 546 , 960 546 
Q 977 546 , 985 546 
Q 992 546 , 992 545 
L 992 542 
L 1010 542 
L 1010 545 
Q 1010 546 , 997 546 
Q 985 547 , 960 547 
Q 936 547 , 923 546 
Q 910 546 , 910 545 
L 910 542 
" fill="#D21010" />
<path d="
M 960 536 
L 942 539 
L 976 539 
L 960 536 
M 953 535 
L 967 535 
L 1010 541 
L 994 541 
L 982 539 
L 938 539 
L 925 541 
L 910 541 
L 953 535 
" fill="#339541" />
<path d="
M 1065 552 
L 1047 553 
L 1081 553 
L 1065 552 
M 1058 551 
L 1072 551 
L 1115 554 
L 1099 554 
L 1087 553 
L 1043 553 
L 1030 554 
L 1015 554 
L 1058 551 
" fill="#339541" />
<path d="
M 1115 538 
L 1115 541 
Q 1100 539 , 1092 539 
Q 1084 538 , 1074 538 
Q 1053 538 , 1043 540 
Q 1031 541 , 1031 543 
Q 1031 546 , 1043 548 
Q 1053 549 , 1074 549 
Q 1084 549 , 1092 549 
Q 1100 548 , 1115 547 
L 1115 549 
Q 1104 550 , 1094 550 
Q 1084 550 , 1073 550 
Q 1046 550 , 1031 549 
Q 1015 547 , 1015 544 
Q 1015 541 , 1031 539 
Q 1046 537 , 1073 537 
Q 1084 537 , 1094 537 
Q 1105 538 , 1115 538 
" fill="#545FFF" />
<path d="
M 1015 510 
L 1033 510 
L 1033 526 
Q 1033 530 , 1041 532 
Q 1048 533 , 1065 533 
Q 1082 533 , 1090 532 
Q 1097 530 , 1097 526 
L 1097 510 
L 1115 510 
L 1115 526 
Q 1115 531 , 1102 534 
Q 1090 536 , 1065 536 
Q 1041 536 , 1028 534 
Q 1015 531 , 1015 526 
L 1015 510 
" fill="#D21010" />
<path d="
M 1099 492 
L 1099 459 
L 1070 459 
L 1070 446 
L 1115 446 
L 1115 500 
Q 1104 505 , 1093 507 
Q 1084 509 , 1072 509 
Q 1046 509 , 1030 493 
Q 1015 477 , 1015 449 
Q 1015 420 , 1030 404 
Q 1046 388 , 1072 388 
Q 1083 388 , 1092 390 
Q 1102 392 , 1112 398 
L 1112 413 
Q 1099 406 , 1091 404 
Q 1082 402 , 1073 402 
Q 1052 402 , 1041 414 
Q 1031 425 , 1031 449 
Q 1031 473 , 1041 484 
Q 1052 496 , 1073 496 
Q 1082 496 , 1089 495 
Q 1096 494 , 1099 492 
" fill="#F5C000" />
<path d="
M 1162 554 
L 1162 554 
L 1148 554 
L 1148 554 
L 1170 554 
L 1170 554 
Q 1165 554 , 1159 554 
Q 1154 554 , 1148 554 
Q 1135 554 , 1128 554 
Q 1120 554 , 1120 554 
Q 1120 553 , 1128 553 
Q 1135 553 , 1148 553 
Q 1154 553 , 1159 553 
Q 1164 553 , 1169 553 
L 1169 553 
Q 1162 553 , 1158 553 
Q 1154 553 , 1149 553 
Q 1139 553 , 1133 553 
Q 1128 553 , 1128 554 
Q 1128 554 , 1133 554 
Q 1139 554 , 1149 554 
Q 1154 554 , 1157 554 
Q 1161 554 , 1162 554 
" fill="lightgray" />
<path d="
M 1170 553 
L 1179 553 
L 1179 554 
Q 1179 554 , 1183 554 
Q 1186 554 , 1195 554 
Q 1204 554 , 1207 554 
Q 1211 554 , 1211 554 
L 1211 553 
L 1220 553 
L 1220 554 
Q 1220 554 , 1214 554 
Q 1207 554 , 1195 554 
Q 1183 554 , 1176 554 
Q 1170 554 , 1170 554 
L 1170 553 
" fill="#D21010" />
<path d="
M 1120 547 
L 1129 547 
L 1129 550 
Q 1129 551 , 1133 551 
Q 1136 552 , 1145 552 
Q 1154 552 , 1157 551 
Q 1161 551 , 1161 550 
L 1161 547 
L 1170 547 
L 1170 550 
Q 1170 551 , 1164 552 
Q 1157 552 , 1145 552 
Q 1133 552 , 1126 552 
Q 1120 551 , 1120 550 
L 1120 547 
" fill="lightgray" />
<path d="
M 1195 548 
L 1186 550 
L 1203 550 
L 1195 548 
M 1191 547 
L 1199 547 
L 1220 552 
L 1212 552 
L 1206 551 
L 1184 551 
L 1177 552 
L 1170 552 
L 1191 547 
" fill="#339541" />
<path d="
M 1145 542 
L 1136 544 
L 1153 544 
L 1145 542 
M 1141 541 
L 1149 541 
L 1170 547 
L 1162 547 
L 1156 545 
L 1134 545 
L 1127 547 
L 1120 547 
L 1141 541 
" fill="lightgray" />
<path d="
M 1170 541 
L 1179 541 
L 1179 544 
Q 1179 545 , 1183 546 
Q 1186 546 , 1195 546 
Q 1204 546 , 1207 546 
Q 1211 545 , 1211 544 
L 1211 541 
L 1220 541 
L 1220 545 
Q 1220 546 , 1214 546 
Q 1207 547 , 1195 547 
Q 1183 547 , 1176 546 
Q 1170 546 , 1170 545 
L 1170 541 
" fill="#D21010" />
<path d="
M 1120 533 
L 1129 533 
L 1129 537 
Q 1129 539 , 1133 539 
Q 1136 540 , 1145 540 
Q 1154 540 , 1157 539 
Q 1161 539 , 1161 537 
L 1161 533 
L 1170 533 
L 1170 538 
Q 1170 539 , 1164 540 
Q 1157 541 , 1145 541 
Q 1133 541 , 1126 540 
Q 1120 539 , 1120 538 
L 1120 533 
" fill="lightgray" />
<path d="
M 1212 539 
L 1212 537 
L 1198 537 
L 1198 537 
L 1220 537 
L 1220 540 
Q 1215 540 , 1209 540 
Q 1204 541 , 1198 541 
Q 1185 541 , 1178 540 
Q 1170 539 , 1170 537 
Q 1170 535 , 1178 534 
Q 1185 533 , 1198 533 
Q 1204 533 , 1209 533 
Q 1214 533 , 1219 534 
L 1219 535 
Q 1212 534 , 1208 534 
Q 1204 534 , 1199 534 
Q 1189 534 , 1183 535 
Q 1178 535 , 1178 537 
Q 1178 538 , 1183 539 
Q 1189 540 , 1199 540 
Q 1204 540 , 1207 540 
Q 1211 540 , 1212 539 
" fill="#F5C000" />
<path d="
M 1162 531 
L 1162 528 
L 1148 528 
L 1148 527 
L 1170 527 
L 1170 531 
Q 1165 532 , 1159 532 
Q 1154 532 , 1148 532 
Q 1135 532 , 1128 531 
Q 1120 530 , 1120 528 
Q 1120 525 , 1128 524 
Q 1135 523 , 1148 523 
Q 1154 523 , 1159 523 
Q 1164 523 , 1169 524 
L 1169 525 
Q 1162 524 , 1158 524 
Q 1154 524 , 1149 524 
Q 1139 524 , 1133 525 
Q 1128 526 , 1128 528 
Q 1128 529 , 1133 530 
Q 1139 531 , 1149 531 
Q 1154 531 , 1157 531 
Q 1161 531 , 1162 531 
" fill="lightgray" />
<path d="
M 1220 524 
L 1220 525 
Q 1213 524 , 1209 524 
Q 1204 524 , 1199 524 
Q 1189 524 , 1184 525 
Q 1178 526 , 1178 527 
Q 1178 529 , 1184 530 
Q 1189 531 , 1199 531 
Q 1204 531 , 1209 531 
Q 1213 531 , 1220 530 
L 1220 531 
Q 1215 532 , 1209 532 
Q 1205 532 , 1199 532 
Q 1185 532 , 1178 531 
Q 1170 530 , 1170 528 
Q 1170 525 , 1178 524 
Q 1185 523 , 1199 523 
Q 1205 523 , 1210 523 
Q 1215 523 , 1220 524 
" fill="#545FFF" />
<path d="
M 1170 511 
L 1170 513 
Q 1163 512 , 1159 512 
Q 1154 511 , 1149 511 
Q 1139 511 , 1134 513 
Q 1128 514 , 1128 516 
Q 1128 519 , 1134 520 
Q 1139 521 , 1149 521 
Q 1154 521 , 1159 521 
Q 1163 520 , 1170 519 
L 1170 521 
Q 1165 522 , 1159 522 
Q 1155 522 , 1149 522 
Q 1135 522 , 1128 521 
Q 1120 519 , 1120 516 
Q 1120 513 , 1128 512 
Q 1135 510 , 1149 510 
Q 1155 510 , 1160 510 
Q 1165 511 , 1170 511 
" fill="lightgray" />
<path d="
M 1212 521 
L 1212 517 
L 1198 517 
L 1198 516 
L 1220 516 
L 1220 521 
Q 1215 522 , 1209 522 
Q 1204 522 , 1198 522 
Q 1185 522 , 1178 521 
Q 1170 519 , 1170 516 
Q 1170 513 , 1178 512 
Q 1185 510 , 1198 510 
Q 1204 510 , 1209 510 
Q 1214 510 , 1219 511 
L 1219 513 
Q 1212 512 , 1208 512 
Q 1204 511 , 1199 511 
Q 1189 511 , 1183 513 
Q 1178 514 , 1178 516 
Q 1178 519 , 1183 520 
Q 1189 521 , 1199 521 
Q 1204 521 , 1207 521 
Q 1211 521 , 1212 521 
" fill="#F5C000" />
<path d="
M 1267 554 
L 1267 553 
L 1253 553 
L 1253 553 
L 1275 553 
L 1275 554 
Q 1270 554 , 1264 554 
Q 1259 554 , 1253 554 
Q 1240 554 , 1233 554 
Q 1225 553 , 1225 553 
Q 1225 552 , 1233 551 
Q 1240 551 , 1253 551 
Q 1259 551 , 1264 551 
Q 1269 551 , 1274 551 
L 1274 552 
Q 1267 551 , 1263 551 
Q 1259 551 , 1254 551 
Q 1244 551 , 1238 552 
Q 1233 552 , 1233 553 
Q 1233 553 , 1238 554 
Q 1244 554 , 1254 554 
Q 1259 554 , 1262 554 
Q 1266 554 , 1267 554 
" fill="lightgray" />
<path d="
M 1275 551 
L 1284 551 
L 1284 553 
Q 1284 553 , 1288 554 
Q 1291 554 , 1300 554 
Q 1309 554 , 1312 554 
Q 1316 553 , 1316 553 
L 1316 551 
L 1325 551 
L 1325 553 
Q 1325 554 , 1319 554 
Q 1312 554 , 1300 554 
Q 1288 554 , 1281 554 
Q 1275 554 , 1275 553 
L 1275 551 
" fill="#D21010" />
<path d="
M 1275 545 
L 1275 546 
Q 1268 545 , 1264 545 
Q 1259 545 , 1254 545 
Q 1244 545 , 1239 545 
Q 1233 546 , 1233 547 
Q 1233 549 , 1239 549 
Q 1244 550 , 1254 550 
Q 1259 550 , 1264 550 
Q 1268 550 , 1275 549 
L 1275 550 
Q 1270 550 , 1264 550 
Q 1260 551 , 1254 551 
Q 1240 551 , 1233 550 
Q 1225 549 , 1225 547 
Q 1225 546 , 1233 545 
Q 1240 544 , 1254 544 
Q 1260 544 , 1265 544 
Q 1270 544 , 1275 545 
" fill="lightgray" />
<path d="
M 1317 550 
L 1317 548 
L 1303 548 
L 1303 547 
L 1325 547 
L 1325 550 
Q 1320 550 , 1314 550 
Q 1309 551 , 1303 551 
Q 1290 551 , 1283 550 
Q 1275 549 , 1275 547 
Q 1275 546 , 1283 545 
Q 1290 544 , 1303 544 
Q 1309 544 , 1314 544 
Q 1319 544 , 1324 545 
L 1324 545 
Q 1317 545 , 1313 545 
Q 1309 545 , 1304 545 
Q 1294 545 , 1288 545 
Q 1283 546 , 1283 547 
Q 1283 549 , 1288 549 
Q 1294 550 , 1304 550 
Q 1309 550 , 1312 550 
Q 1316 550 , 1317 550 
" fill="#F5C000" />
<path d="
M 1225 537 
L 1234 537 
L 1234 541 
Q 1234 542 , 1238 542 
Q 1241 543 , 1250 543 
Q 1259 543 , 1262 542 
Q 1266 542 , 1266 541 
L 1266 537 
L 1275 537 
L 1275 541 
Q 1275 542 , 1269 543 
Q 1262 544 , 1250 544 
Q 1238 544 , 1231 543 
Q 1225 542 , 1225 541 
L 1225 537 
" fill="lightgray" />
<path d="
M 1317 543 
L 1317 541 
L 1303 541 
L 1303 540 
L 1325 540 
L 1325 543 
Q 1320 543 , 1314 544 
Q 1309 544 , 1303 544 
Q 1290 544 , 1283 543 
Q 1275 542 , 1275 540 
Q 1275 539 , 1283 538 
Q 1290 537 , 1303 537 
Q 1309 537 , 1314 537 
Q 1319 537 , 1324 538 
L 1324 538 
Q 1317 538 , 1313 538 
Q 1309 538 , 1304 538 
Q 1294 538 , 1288 538 
Q 1283 539 , 1283 540 
Q 1283 542 , 1288 542 
Q 1294 543 , 1304 543 
Q 1309 543 , 1312 543 
Q 1316 543 , 1317 543 
" fill="#F5C000" />
<path d="
M 1250 528 
L 1241 532 
L 1258 532 
L 1250 528 
M 1246 526 
L 1254 526 
L 1275 537 
L 1267 537 
L 1261 533 
L 1239 533 
L 1232 537 
L 1225 537 
L 1246 526 
" fill="lightgray" />
<path d="
M 1275 526 
L 1284 526 
L 1284 532 
Q 1284 534 , 1288 535 
Q 1291 535 , 1300 535 
Q 1309 535 , 1312 535 
Q 1316 534 , 1316 532 
L 1316 526 
L 1325 526 
L 1325 532 
Q 1325 534 , 1319 536 
Q 1312 537 , 1300 537 
Q 1288 537 , 1281 536 
Q 1275 534 , 1275 532 
L 1275 526 
" fill="#D21010" />
<path d="
M 1225 493 
L 1234 493 
L 1234 512 
Q 1234 517 , 1238 519 
Q 1241 521 , 1250 521 
Q 1259 521 , 1262 519 
Q 1266 517 , 1266 512 
L 1266 493 
L 1275 493 
L 1275 512 
Q 1275 519 , 1269 522 
Q 1262 525 , 1250 525 
Q 1238 525 , 1231 522 
Q 1225 519 , 1225 512 
L 1225 493 
" fill="lightgray" />
<path d="
M 1300 499 
L 1291 512 
L 1308 512 
L 1300 499 
M 1296 493 
L 1304 493 
L 1325 525 
L 1317 525 
L 1311 516 
L 1289 516 
L 1282 525 
L 1275 525 
L 1296 493 
" fill="#339541" />
<path d="
M 1267 486 
L 1267 474 
L 1253 474 
L 1253 470 
L 1275 470 
L 1275 489 
Q 1270 491 , 1264 491 
Q 1259 492 , 1253 492 
Q 1240 492 , 1233 486 
Q 1225 481 , 1225 471 
Q 1225 461 , 1233 455 
Q 1240 449 , 1253 449 
Q 1259 449 , 1264 450 
Q 1269 451 , 1274 453 
L 1274 458 
Q 1267 456 , 1263 455 
Q 1259 454 , 1254 454 
Q 1244 454 , 1238 458 
Q 1233 462 , 1233 471 
Q 1233 479 , 1238 483 
Q 1244 487 , 1254 487 
Q 1259 487 , 1262 487 
Q 1266 487 , 1267 486 
" fill="lightgray" />
<path d="
M 1325 454 
L 1325 460 
Q 1318 456 , 1314 455 
Q 1309 454 , 1304 454 
Q 1294 454 , 1289 458 
Q 1283 462 , 1283 470 
Q 1283 479 , 1289 483 
Q 1294 488 , 1304 488 
Q 1309 488 , 1314 486 
Q 1318 485 , 1325 481 
L 1325 488 
Q 1320 490 , 1314 491 
Q 1310 492 , 1304 492 
Q 1290 492 , 1283 486 
Q 1275 481 , 1275 471 
Q 1275 461 , 1283 455 
Q 1290 449 , 1304 449 
Q 1310 449 , 1315 450 
Q 1320 451 , 1325 454 
" fill="#545FFF" />
<path d="
M 1380 554 
L 1362 554 
L 1396 554 
L 1380 554 
M 1373 554 
L 1387 554 
L 1430 555 
L 1414 555 
L 1402 554 
L 1358 554 
L 1345 555 
L 1330 555 
L 1373 554 
" fill="#339541" />
<path d="
M 1430 553 
L 1430 553 
Q 1415 553 , 1407 553 
Q 1399 553 , 1389 553 
Q 1368 553 , 1358 553 
Q 1346 553 , 1346 553 
Q 1346 554 , 1358 554 
Q 1368 554 , 1389 554 
Q 1399 554 , 1407 554 
Q 1415 554 , 1430 554 
L 1430 554 
Q 1419 554 , 1409 554 
Q 1399 554 , 1388 554 
Q 1361 554 , 1346 554 
Q 1330 554 , 1330 553 
Q 1330 553 , 1346 553 
Q 1361 553 , 1388 553 
Q 1399 553 , 1409 553 
Q 1420 553 , 1430 553 
" fill="#545FFF" />
<path d="
M 1330 552 
L 1348 552 
L 1348 553 
Q 1348 553 , 1356 553 
Q 1363 553 , 1380 553 
Q 1397 553 , 1405 553 
Q 1412 553 , 1412 553 
L 1412 552 
L 1430 552 
L 1430 553 
Q 1430 553 , 1417 553 
Q 1405 553 , 1380 553 
Q 1356 553 , 1343 553 
Q 1330 553 , 1330 553 
L 1330 552 
" fill="#D21010" />
<path d="
M 1414 552 
L 1414 552 
L 1385 552 
L 1385 551 
L 1430 551 
L 1430 552 
Q 1419 552 , 1408 552 
Q 1399 552 , 1387 552 
Q 1361 552 , 1345 552 
Q 1330 552 , 1330 551 
Q 1330 551 , 1345 551 
Q 1361 551 , 1387 551 
Q 1398 551 , 1407 551 
Q 1417 551 , 1427 551 
L 1427 551 
Q 1414 551 , 1406 551 
Q 1397 551 , 1388 551 
Q 1367 551 , 1356 551 
Q 1346 551 , 1346 551 
Q 1346 552 , 1356 552 
Q 1367 552 , 1388 552 
Q 1397 552 , 1404 552 
Q 1411 552 , 1414 552 
" fill="#F5C000" />
<path d="M 65 168 L 65 555 " stroke="black" stroke-width="1.5"/>
<path d="M 55 555 L 65 555 " stroke="black" stroke-width="4"/>
<text text-anchor="end" x="50" y="555" font-size="50" alignment-baseline="middle">0</text>
<path d="M 55 362 L 65 362 " stroke="black" stroke-width="4"/>
<text text-anchor="end" x="50" y="362" font-size="50" alignment-baseline="middle">1</text>
<path d="M 55 168 L 65 168 " stroke="black" stroke-width="4"/>
<text text-anchor="end" x="50" y="168" font-size="50" alignment-baseline="middle">2</text>
<text text-anchor="middle" x="750" y="50" font-size="50" alignment-baseline="baseline"></text>
G<path d="
M 160 582 
L 126 595 
L 160 608 
L 157 611 
L 123 598 
L 123 623 
L 117 623 
L 117 599 
L 83 611 
L 80 608 
L 114 595 
L 80 582 
L 83 579 
L 117 591 
L 117 567 
L 123 567 
L 123 591 
L 157 579 
L 160 582 
" fill="black" />
<path d="
M 265 567 
Q 236 574 , 223 581 
Q 210 588 , 210 595 
Q 210 602 , 223 609 
Q 236 616 , 265 623 
L 241 623 
Q 213 616 , 199 609 
Q 185 602 , 185 595 
Q 185 588 , 199 581 
Q 213 574 , 241 567 
L 265 567 
" fill="black" />
<path d="
" fill="black" />
<path d="
M 316 567 
L 343 567 
L 343 623 
L 316 623 
L 316 567 
" fill="black" />
<path d="
" fill="black" />
<path d="
" fill="black" />
<path d="
M 421 567 
L 448 567 
L 448 623 
L 421 623 
L 421 567 
" fill="black" />
<path d="
" fill="black" />
<path d="
" fill="black" />
<path d="
M 526 567 
L 553 567 
L 553 623 
L 526 623 
L 526 567 
" fill="black" />
<path d="
" fill="black" />
<path d="
M 625 567 
Q 615 574 , 611 581 
Q 606 588 , 606 595 
Q 606 602 , 611 609 
Q 615 616 , 625 623 
L 617 623 
Q 607 616 , 603 609 
Q 598 602 , 598 595 
Q 598 588 , 602 581 
Q 607 574 , 617 567 
L 625 567 
" fill="black" />
<path d="
M 634 619 
L 644 619 
L 644 572 
L 631 578 
L 631 573 
L 644 567 
L 647 567 
L 647 619 
L 658 619 
L 658 623 
L 634 623 
L 634 619 
" fill="black" />
<path d="
M 668 619 
L 678 619 
L 678 572 
L 665 578 
L 665 573 
L 678 567 
L 681 567 
L 681 619 
L 692 619 
L 692 623 
L 668 623 
L 668 619 
" fill="black" />
<path d="
M 790 582 
L 756 595 
L 790 608 
L 787 611 
L 753 598 
L 753 623 
L 747 623 
L 747 599 
L 713 611 
L 710 608 
L 744 595 
L 710 582 
L 713 579 
L 747 591 
L 747 567 
L 753 567 
L 753 591 
L 787 579 
L 790 582 
" fill="black" />
<path d="
" fill="black" />
<path d="
M 841 567 
L 868 567 
L 868 623 
L 841 623 
L 841 567 
" fill="black" />
<path d="
" fill="black" />
<path d="
" fill="black" />
<path d="
M 946 567 
L 973 567 
L 973 623 
L 946 623 
L 946 567 
" fill="black" />
<path d="
" fill="black" />
<path d="
" fill="black" />
<path d="
M 1051 567 
L 1078 567 
L 1078 623 
L 1051 623 
L 1051 567 
" fill="black" />
<path d="
" fill="black" />
<path d="
M 1130 567 
L 1154 567 
Q 1182 574 , 1196 581 
Q 1210 588 , 1210 595 
Q 1210 602 , 1196 609 
Q 1182 616 , 1154 623 
L 1130 623 
Q 1159 616 , 1172 609 
Q 1185 602 , 1185 595 
Q 1185 588 , 1172 581 
Q 1159 574 , 1130 567 
" fill="black" />
<path d="
M 1235 567 
L 1259 567 
Q 1287 574 , 1301 581 
Q 1315 588 , 1315 595 
Q 1315 602 , 1301 609 
Q 1287 616 , 1259 623 
L 1235 623 
Q 1264 616 , 1277 609 
Q 1290 602 , 1290 595 
Q 1290 588 , 1277 581 
Q 1264 574 , 1235 567 
" fill="black" />
<path d="
M 1420 582 
L 1386 595 
L 1420 608 
L 1417 611 
L 1383 598 
L 1383 623 
L 1377 623 
L 1377 599 
L 1343 611 
L 1340 608 
L 1374 595 
L 1340 582 
L 1343 579 
L 1377 591 
L 1377 567 
L 1383 567 
L 1383 591 
L 1417 579 
L 1420 582 
" fill="black" />
</svg>
