<svg xmlns="http://www.w3.org/2000/svg"
viewBox="0 0 1435 635">
<path d="
M 170 554 
L 170 554 
Q 155 554 , 147 554 
Q 139 554 , 129 554 
Q 108 554 , 98 554 
Q 86 554 , 86 554 
Q 86 554 , 98 554 
Q 108 554 , 129 554 
Q 139 554 , 147 554 
Q 155 554 , 170 554 
L 170 554 
Q 159 554 , 149 554 
Q 139 554 , 128 554 
Q 101 554 , 86 554 
Q 70 554 , 70 554 
Q 70 554 , 86 554 
Q 101 554 , 128 554 
Q 139 554 , 149 554 
Q 160 554 , 170 554 
" fill="#545FFF" />
<path d="
M 120 553 
L 102 553 
L 136 553 
L 120 553 
M 113 553 
L 127 553 
L 170 553 
L 154 553 
L 142 553 
L 98 553 
L 85 553 
L 70 553 
L 113 553 
" fill="#339541" />
<path d="
M 70 552 
L 88 552 
L 88 552 
Q 88 552 , 96 552 
Q 103 552 , 120 552 
Q 137 552 , 145 552 
Q 152 552 , 152 552 
L 152 552 
L 170 552 
L 170 552 
Q 170 552 , 157 552 
Q 145 552 , 120 552 
Q 96 552 , 83 552 
Q 70 552 , 70 552 
L 70 552 
" fill="#D21010" />
<path d="
M 154 551 
L 154 551 
L 125 551 
L 125 551 
L 170 551 
L 170 552 
Q 159 552 , 148 552 
Q 139 552 , 127 552 
Q 101 552 , 85 551 
Q 70 551 , 70 551 
Q 70 551 , 85 551 
Q 101 551 , 127 551 
Q 138 551 , 147 551 
Q 157 551 , 167 551 
L 167 551 
Q 154 551 , 146 551 
Q 137 551 , 128 551 
Q 107 551 , 96 551 
Q 86 551 , 86 551 
Q 86 551 , 96 551 
Q 107 551 , 128 551 
Q 137 551 , 144 551 
Q 151 551 , 154 551 
" fill="#F5C000" />
<path d="
M 217 554 
L 217 554 
L 203 554 
L 203 554 
L 225 554 
L 225 554 
Q 220 554 , 214 554 
Q 209 554 , 203 554 
Q 190 554 , 183 554 
Q 175 554 , 175 554 
Q 175 553 , 183 553 
Q 190 553 , 203 553 
Q 209 553 , 214 553 
Q 219 553 , 224 553 
L 224 553 
Q 217 553 , 213 553 
Q 209 553 , 204 553 
Q 194 553 , 188 553 
Q 183 553 , 183 554 
Q 183 554 , 188 554 
Q 194 554 , 204 554 
Q 209 554 , 212 554 
Q 216 554 , 217 554 
" fill="#F5C000" />
<path d="
M 225 553 
L 234 553 
L 234 554 
Q 234 554 , 238 554 
Q 241 554 , 250 554 
Q 259 554 , 262 554 
Q 266 554 , 266 554 
L 266 553 
L 275 553 
L 275 554 
Q 275 554 , 269 554 
Q 262 554 , 250 554 
Q 238 554 , 231 554 
Q 225 554 , 225 554 
L 225 553 
" fill="lightgray" />
<path d="
M 217 552 
L 217 551 
L 203 551 
L 203 550 
L 225 550 
L 225 552 
Q 220 552 , 214 552 
Q 209 553 , 203 553 
Q 190 553 , 183 552 
Q 175 551 , 175 550 
Q 175 549 , 183 549 
Q 190 548 , 203 548 
Q 209 548 , 214 548 
Q 219 548 , 224 548 
L 224 549 
Q 217 549 , 213 549 
Q 209 549 , 204 549 
Q 194 549 , 188 549 
Q 183 549 , 183 550 
Q 183 551 , 188 552 
Q 194 552 , 204 552 
Q 209 552 , 212 552 
Q 216 552 , 217 552 
" fill="#F5C000" />
<path d="
M 275 548 
L 275 549 
Q 268 549 , 264 549 
Q 259 549 , 254 549 
Q 244 549 , 239 549 
Q 233 549 , 233 550 
Q 233 551 , 239 552 
Q 244 552 , 254 552 
Q 259 552 , 264 552 
Q 268 552 , 275 551 
L 275 552 
Q 270 552 , 264 552 
Q 260 553 , 254 553 
Q 240 553 , 233 552 
Q 225 551 , 225 550 
Q 225 549 , 233 549 
Q 240 548 , 254 548 
Q 260 548 , 265 548 
Q 270 548 , 275 548 
" fill="lightgray" />
<path d="
M 175 543 
L 184 543 
L 184 546 
Q 184 547 , 188 547 
Q 191 547 , 200 547 
Q 209 547 , 212 547 
Q 216 547 , 216 546 
L 216 543 
L 225 543 
L 225 546 
Q 225 547 , 219 547 
Q 212 548 , 200 548 
Q 188 548 , 181 547 
Q 175 547 , 175 546 
L 175 543 
" fill="#D21010" />
<path d="
M 267 547 
L 267 546 
L 253 546 
L 253 545 
L 275 545 
L 275 548 
Q 270 548 , 264 548 
Q 259 548 , 253 548 
Q 240 548 , 233 547 
Q 225 547 , 225 545 
Q 225 544 , 233 544 
Q 240 543 , 253 543 
Q 259 543 , 264 543 
Q 269 543 , 274 543 
L 274 544 
Q 267 544 , 263 544 
Q 259 544 , 254 544 
Q 244 544 , 238 544 
Q 233 545 , 233 545 
Q 233 546 , 238 547 
Q 244 547 , 254 547 
Q 259 547 , 262 547 
Q 266 547 , 267 547 
" fill="lightgray" />
<path d="
M 200 538 
L 191 540 
L 208 540 
L 200 538 
M 196 537 
L 204 537 
L 225 543 
L 217 543 
L 211 541 
L 189 541 
L 182 543 
L 175 543 
L 196 537 
" fill="#339541" />
<path d="
M 225 537 
L 234 537 
L 234 540 
Q 234 541 , 238 542 
Q 241 542 , 250 542 
Q 259 542 , 262 542 
Q 266 541 , 266 540 
L 266 537 
L 275 537 
L 275 540 
Q 275 541 , 269 542 
Q 262 543 , 250 543 
Q 238 543 , 231 542 
Q 225 541 , 225 540 
L 225 537 
" fill="lightgray" />
<path d="
M 175 530 
L 184 530 
L 184 534 
Q 184 535 , 188 535 
Q 191 535 , 200 535 
Q 209 535 , 212 535 
Q 216 535 , 216 534 
L 216 530 
L 225 530 
L 225 534 
Q 225 535 , 219 536 
Q 212 536 , 200 536 
Q 188 536 , 181 536 
Q 175 535 , 175 534 
L 175 530 
" fill="#D21010" />
<path d="
M 250 531 
L 241 534 
L 258 534 
L 250 531 
M 246 530 
L 254 530 
L 275 536 
L 267 536 
L 261 534 
L 239 534 
L 232 536 
L 225 536 
L 246 530 
" fill="lightgray" />
<path d="
M 225 522 
L 225 523 
Q 218 522 , 214 522 
Q 209 522 , 204 522 
Q 194 522 , 189 523 
Q 183 524 , 183 525 
Q 183 527 , 189 528 
Q 194 529 , 204 529 
Q 209 529 , 214 528 
Q 218 528 , 225 527 
L 225 529 
Q 220 529 , 214 529 
Q 210 530 , 204 530 
Q 190 530 , 183 528 
Q 175 527 , 175 525 
Q 175 523 , 183 522 
Q 190 521 , 204 521 
Q 210 521 , 215 521 
Q 220 521 , 225 522 
" fill="#545FFF" />
<path d="
M 267 528 
L 267 526 
L 253 526 
L 253 525 
L 275 525 
L 275 529 
Q 270 529 , 264 529 
Q 259 530 , 253 530 
Q 240 530 , 233 528 
Q 225 527 , 225 525 
Q 225 523 , 233 522 
Q 240 521 , 253 521 
Q 259 521 , 264 521 
Q 269 521 , 274 522 
L 274 523 
Q 267 522 , 263 522 
Q 259 522 , 254 522 
Q 244 522 , 238 523 
Q 233 524 , 233 525 
Q 233 527 , 238 528 
Q 244 529 , 254 529 
Q 259 529 , 262 529 
Q 266 528 , 267 528 
" fill="lightgray" />
<path d="
M 280 553 
L 289 553 
L 289 554 
Q 289 554 , 293 554 
Q 296 554 , 305 554 
Q 314 554 , 317 554 
Q 321 554 , 321 554 
L 321 553 
L 330 553 
L 330 554 
Q 330 554 , 324 554 
Q 317 554 , 305 554 
Q 293 554 , 286 554 
Q 280 554 , 280 554 
L 280 553 
" fill="#D21010" />
<path d="
M 372 554 
L 372 554 
L 358 554 
L 358 554 
L 380 554 
L 380 554 
Q 375 554 , 369 554 
Q 364 554 , 358 554 
Q 345 554 , 338 554 
Q 330 554 , 330 554 
Q 330 553 , 338 553 
Q 345 553 , 358 553 
Q 364 553 , 369 553 
Q 374 553 , 379 553 
L 379 553 
Q 372 553 , 368 553 
Q 364 553 , 359 553 
Q 349 553 , 343 553 
Q 338 553 , 338 554 
Q 338 554 , 343 554 
Q 349 554 , 359 554 
Q 364 554 , 367 554 
Q 371 554 , 372 554 
" fill="lightgray" />
<path d="
M 322 552 
L 322 551 
L 308 551 
L 308 551 
L 330 551 
L 330 552 
Q 325 553 , 319 553 
Q 314 553 , 308 553 
Q 295 553 , 288 552 
Q 280 552 , 280 551 
Q 280 550 , 288 549 
Q 295 549 , 308 549 
Q 314 549 , 319 549 
Q 324 549 , 329 549 
L 329 550 
Q 322 550 , 318 550 
Q 314 549 , 309 549 
Q 299 549 , 293 550 
Q 288 550 , 288 551 
Q 288 552 , 293 552 
Q 299 552 , 309 552 
Q 314 552 , 317 552 
Q 321 552 , 322 552 
" fill="#F5C000" />
<path d="
M 330 549 
L 339 549 
L 339 551 
Q 339 552 , 343 552 
Q 346 552 , 355 552 
Q 364 552 , 367 552 
Q 371 552 , 371 551 
L 371 549 
L 380 549 
L 380 551 
Q 380 552 , 374 552 
Q 367 553 , 355 553 
Q 343 553 , 336 552 
Q 330 552 , 330 551 
L 330 549 
" fill="lightgray" />
<path d="
M 330 544 
L 330 545 
Q 323 544 , 319 544 
Q 314 544 , 309 544 
Q 299 544 , 294 544 
Q 288 545 , 288 546 
Q 288 547 , 294 548 
Q 299 548 , 309 548 
Q 314 548 , 319 548 
Q 323 548 , 330 547 
L 330 548 
Q 325 549 , 319 549 
Q 315 549 , 309 549 
Q 295 549 , 288 548 
Q 280 547 , 280 546 
Q 280 545 , 288 544 
Q 295 543 , 309 543 
Q 315 543 , 320 543 
Q 325 543 , 330 544 
" fill="#545FFF" />
<path d="
M 372 548 
L 372 546 
L 358 546 
L 358 546 
L 380 546 
L 380 548 
Q 375 549 , 369 549 
Q 364 549 , 358 549 
Q 345 549 , 338 548 
Q 330 547 , 330 546 
Q 330 545 , 338 544 
Q 345 543 , 358 543 
Q 364 543 , 369 543 
Q 374 543 , 379 543 
L 379 544 
Q 372 544 , 368 544 
Q 364 544 , 359 544 
Q 349 544 , 343 544 
Q 338 545 , 338 546 
Q 338 547 , 343 548 
Q 349 548 , 359 548 
Q 364 548 , 367 548 
Q 371 548 , 372 548 
" fill="lightgray" />
<path d="
M 305 536 
L 296 539 
L 313 539 
L 305 536 
M 301 535 
L 309 535 
L 330 543 
L 322 543 
L 316 540 
L 294 540 
L 287 543 
L 280 543 
L 301 535 
" fill="#339541" />
<path d="
M 330 535 
L 339 535 
L 339 539 
Q 339 541 , 343 541 
Q 346 542 , 355 542 
Q 364 542 , 367 541 
Q 371 541 , 371 539 
L 371 535 
L 380 535 
L 380 540 
Q 380 541 , 374 542 
Q 367 543 , 355 543 
Q 343 543 , 336 542 
Q 330 541 , 330 540 
L 330 535 
" fill="lightgray" />
<path d="
M 322 533 
L 322 531 
L 308 531 
L 308 530 
L 330 530 
L 330 534 
Q 325 534 , 319 534 
Q 314 534 , 308 534 
Q 295 534 , 288 533 
Q 280 532 , 280 530 
Q 280 528 , 288 527 
Q 295 526 , 308 526 
Q 314 526 , 319 526 
Q 324 526 , 329 527 
L 329 528 
Q 322 527 , 318 527 
Q 314 527 , 309 527 
Q 299 527 , 293 528 
Q 288 529 , 288 530 
Q 288 532 , 293 533 
Q 299 533 , 309 533 
Q 314 533 , 317 533 
Q 321 533 , 322 533 
" fill="#F5C000" />
<path d="
M 380 527 
L 380 528 
Q 373 527 , 369 527 
Q 364 527 , 359 527 
Q 349 527 , 344 528 
Q 338 529 , 338 530 
Q 338 532 , 344 533 
Q 349 533 , 359 533 
Q 364 533 , 369 533 
Q 373 533 , 380 532 
L 380 533 
Q 375 534 , 369 534 
Q 365 534 , 359 534 
Q 345 534 , 338 533 
Q 330 532 , 330 530 
Q 330 528 , 338 527 
Q 345 526 , 359 526 
Q 365 526 , 370 526 
Q 375 526 , 380 527 
" fill="lightgray" />
<path d="
M 280 516 
L 289 516 
L 289 521 
Q 289 523 , 293 523 
Q 296 524 , 305 524 
Q 314 524 , 317 523 
Q 321 523 , 321 521 
L 321 516 
L 330 516 
L 330 521 
Q 330 523 , 324 524 
Q 317 525 , 305 525 
Q 293 525 , 286 524 
Q 280 523 , 280 521 
L 280 516 
" fill="#D21010" />
<path d="
M 355 518 
L 346 521 
L 363 521 
L 355 518 
M 351 516 
L 359 516 
L 380 525 
L 372 525 
L 366 522 
L 344 522 
L 337 525 
L 330 525 
L 351 516 
" fill="lightgray" />
<path d="
M 485 549 
L 485 550 
Q 470 549 , 462 549 
Q 454 549 , 444 549 
Q 423 549 , 413 549 
Q 401 550 , 401 551 
Q 401 552 , 413 553 
Q 423 553 , 444 553 
Q 454 553 , 462 553 
Q 470 553 , 485 553 
L 485 554 
Q 474 554 , 464 554 
Q 454 554 , 443 554 
Q 416 554 , 401 553 
Q 385 552 , 385 551 
Q 385 550 , 401 549 
Q 416 548 , 443 548 
Q 454 548 , 464 548 
Q 475 548 , 485 549 
" fill="#545FFF" />
<path d="
M 435 542 
L 417 545 
L 451 545 
L 435 542 
M 428 541 
L 442 541 
L 485 547 
L 469 547 
L 457 546 
L 413 546 
L 400 547 
L 385 547 
L 428 541 
" fill="#339541" />
<path d="
M 385 509 
L 403 509 
L 403 527 
Q 403 532 , 411 535 
Q 418 537 , 435 537 
Q 452 537 , 460 535 
Q 467 532 , 467 527 
L 467 509 
L 485 509 
L 485 528 
Q 485 534 , 472 537 
Q 460 540 , 435 540 
Q 411 540 , 398 537 
Q 385 534 , 385 528 
L 385 509 
" fill="#D21010" />
<path d="
M 469 499 
L 469 481 
L 440 481 
L 440 474 
L 485 474 
L 485 503 
Q 474 506 , 463 507 
Q 454 508 , 442 508 
Q 416 508 , 400 500 
Q 385 491 , 385 476 
Q 385 460 , 400 452 
Q 416 443 , 442 443 
Q 453 443 , 462 444 
Q 472 445 , 482 448 
L 482 457 
Q 469 453 , 461 452 
Q 452 451 , 443 451 
Q 422 451 , 411 457 
Q 401 463 , 401 476 
Q 401 489 , 411 495 
Q 422 501 , 443 501 
Q 452 501 , 459 500 
Q 466 500 , 469 499 
" fill="#F5C000" />
<path d="
M 490 551 
L 508 551 
L 508 553 
Q 508 554 , 516 554 
Q 523 554 , 540 554 
Q 557 554 , 565 554 
Q 572 554 , 572 553 
L 572 551 
L 590 551 
L 590 553 
Q 590 554 , 577 554 
Q 565 554 , 540 554 
Q 516 554 , 503 554 
Q 490 554 , 490 553 
L 490 551 
" fill="#D21010" />
<path d="
M 590 547 
L 590 548 
Q 575 548 , 567 547 
Q 559 547 , 549 547 
Q 528 547 , 518 548 
Q 506 548 , 506 548 
Q 506 549 , 518 550 
Q 528 550 , 549 550 
Q 559 550 , 567 550 
Q 575 550 , 590 550 
L 590 550 
Q 579 550 , 569 550 
Q 559 551 , 548 551 
Q 521 551 , 506 550 
Q 490 550 , 490 549 
Q 490 548 , 506 547 
Q 521 547 , 548 547 
Q 559 547 , 569 547 
Q 580 547 , 590 547 
" fill="#545FFF" />
<path d="
M 540 543 
L 522 545 
L 556 545 
L 540 543 
M 533 542 
L 547 542 
L 590 546 
L 574 546 
L 562 545 
L 518 545 
L 505 546 
L 490 546 
L 533 542 
" fill="#339541" />
<path d="
M 574 540 
L 574 538 
L 545 538 
L 545 537 
L 590 537 
L 590 541 
Q 579 541 , 568 541 
Q 559 541 , 547 541 
Q 521 541 , 505 540 
Q 490 539 , 490 537 
Q 490 535 , 505 534 
Q 521 533 , 547 533 
Q 558 533 , 567 533 
Q 577 533 , 587 534 
L 587 535 
Q 574 534 , 566 534 
Q 557 534 , 548 534 
Q 527 534 , 516 535 
Q 506 535 , 506 537 
Q 506 539 , 516 539 
Q 527 540 , 548 540 
Q 557 540 , 564 540 
Q 571 540 , 574 540 
" fill="#F5C000" />
<path d="
M 595 553 
L 613 553 
L 613 554 
Q 613 554 , 621 554 
Q 628 554 , 645 554 
Q 662 554 , 670 554 
Q 677 554 , 677 554 
L 677 553 
L 695 553 
L 695 554 
Q 695 554 , 682 554 
Q 670 554 , 645 554 
Q 621 554 , 608 554 
Q 595 554 , 595 554 
L 595 553 
" fill="#D21010" />
<path d="
M 645 551 
L 627 552 
L 661 552 
L 645 551 
M 638 551 
L 652 551 
L 695 553 
L 679 553 
L 667 552 
L 623 552 
L 610 553 
L 595 553 
L 638 551 
" fill="#339541" />
<path d="
M 695 549 
L 695 549 
Q 680 549 , 672 549 
Q 664 549 , 654 549 
Q 633 549 , 623 549 
Q 611 550 , 611 550 
Q 611 550 , 623 550 
Q 633 551 , 654 551 
Q 664 551 , 672 551 
Q 680 551 , 695 550 
L 695 551 
Q 684 551 , 674 551 
Q 664 551 , 653 551 
Q 626 551 , 611 551 
Q 595 550 , 595 550 
Q 595 550 , 611 549 
Q 626 549 , 653 549 
Q 664 549 , 674 549 
Q 685 549 , 695 549 
" fill="#545FFF" />
<path d="
M 679 548 
L 679 548 
L 650 548 
L 650 547 
L 695 547 
L 695 548 
Q 684 549 , 673 549 
Q 664 549 , 652 549 
Q 626 549 , 610 548 
Q 595 548 , 595 547 
Q 595 547 , 610 546 
Q 626 546 , 652 546 
Q 663 546 , 672 546 
Q 682 546 , 692 546 
L 692 547 
Q 679 546 , 671 546 
Q 662 546 , 653 546 
Q 632 546 , 621 547 
Q 611 547 , 611 547 
Q 611 548 , 621 548 
Q 632 548 , 653 548 
Q 662 548 , 669 548 
Q 676 548 , 679 548 
" fill="#F5C000" />
<path d="
M 800 554 
L 800 554 
Q 785 554 , 777 554 
Q 769 554 , 759 554 
Q 738 554 , 728 554 
Q 716 554 , 716 554 
Q 716 554 , 728 554 
Q 738 554 , 759 554 
Q 769 554 , 777 554 
Q 785 554 , 800 554 
L 800 554 
Q 789 554 , 779 554 
Q 769 554 , 758 554 
Q 731 554 , 716 554 
Q 700 554 , 700 554 
Q 700 554 , 716 554 
Q 731 554 , 758 554 
Q 769 554 , 779 554 
Q 790 554 , 800 554 
" fill="#545FFF" />
<path d="
M 750 553 
L 732 553 
L 766 553 
L 750 553 
M 743 553 
L 757 553 
L 800 553 
L 784 553 
L 772 553 
L 728 553 
L 715 553 
L 700 553 
L 743 553 
" fill="#339541" />
<path d="
M 700 552 
L 718 552 
L 718 552 
Q 718 552 , 726 552 
Q 733 552 , 750 552 
Q 767 552 , 775 552 
Q 782 552 , 782 552 
L 782 552 
L 800 552 
L 800 552 
Q 800 552 , 787 552 
Q 775 552 , 750 552 
Q 726 552 , 713 552 
Q 700 552 , 700 552 
L 700 552 
" fill="#D21010" />
<path d="
M 784 551 
L 784 551 
L 755 551 
L 755 551 
L 800 551 
L 800 552 
Q 789 552 , 778 552 
Q 769 552 , 757 552 
Q 731 552 , 715 551 
Q 700 551 , 700 551 
Q 700 551 , 715 551 
Q 731 551 , 757 551 
Q 768 551 , 777 551 
Q 787 551 , 797 551 
L 797 551 
Q 784 551 , 776 551 
Q 767 551 , 758 551 
Q 737 551 , 726 551 
Q 716 551 , 716 551 
Q 716 551 , 726 551 
Q 737 551 , 758 551 
Q 767 551 , 774 551 
Q 781 551 , 784 551 
" fill="#F5C000" />
<path d="
M 905 554 
L 905 554 
Q 890 554 , 882 554 
Q 874 554 , 864 554 
Q 843 554 , 833 554 
Q 821 554 , 821 554 
Q 821 554 , 833 555 
Q 843 555 , 864 555 
Q 874 555 , 882 555 
Q 890 555 , 905 554 
L 905 555 
Q 894 555 , 884 555 
Q 874 555 , 863 555 
Q 836 555 , 821 555 
Q 805 554 , 805 554 
Q 805 554 , 821 554 
Q 836 554 , 863 554 
Q 874 554 , 884 554 
Q 895 554 , 905 554 
" fill="#545FFF" />
<path d="
M 855 553 
L 837 553 
L 871 553 
L 855 553 
M 848 553 
L 862 553 
L 905 554 
L 889 554 
L 877 553 
L 833 553 
L 820 554 
L 805 554 
L 848 553 
" fill="#339541" />
<path d="
M 805 552 
L 823 552 
L 823 553 
Q 823 553 , 831 553 
Q 838 553 , 855 553 
Q 872 553 , 880 553 
Q 887 553 , 887 553 
L 887 552 
L 905 552 
L 905 553 
Q 905 553 , 892 553 
Q 880 553 , 855 553 
Q 831 553 , 818 553 
Q 805 553 , 805 553 
L 805 552 
" fill="#D21010" />
<path d="
M 889 552 
L 889 552 
L 860 552 
L 860 551 
L 905 551 
L 905 552 
Q 894 552 , 883 552 
Q 874 552 , 862 552 
Q 836 552 , 820 552 
Q 805 552 , 805 551 
Q 805 551 , 820 551 
Q 836 551 , 862 551 
Q 873 551 , 882 551 
Q 892 551 , 902 551 
L 902 551 
Q 889 551 , 881 551 
Q 872 551 , 863 551 
Q 842 551 , 831 551 
Q 821 551 , 821 551 
Q 821 552 , 831 552 
Q 842 552 , 863 552 
Q 872 552 , 879 552 
Q 886 552 , 889 552 
" fill="#F5C000" />
<path d="
M 910 553 
L 919 553 
L 919 554 
Q 919 554 , 923 554 
Q 926 554 , 935 554 
Q 944 554 , 947 554 
Q 951 554 , 951 554 
L 951 553 
L 960 553 
L 960 554 
Q 960 554 , 954 554 
Q 947 554 , 935 554 
Q 923 554 , 916 554 
Q 910 554 , 910 554 
L 910 553 
" fill="lightgray" />
<path d="
M 1002 554 
L 1002 554 
L 988 554 
L 988 554 
L 1010 554 
L 1010 554 
Q 1005 554 , 999 554 
Q 994 554 , 988 554 
Q 975 554 , 968 554 
Q 960 554 , 960 554 
Q 960 553 , 968 553 
Q 975 553 , 988 553 
Q 994 553 , 999 553 
Q 1004 553 , 1009 553 
L 1009 553 
Q 1002 553 , 998 553 
Q 994 553 , 989 553 
Q 979 553 , 973 553 
Q 968 553 , 968 554 
Q 968 554 , 973 554 
Q 979 554 , 989 554 
Q 994 554 , 997 554 
Q 1001 554 , 1002 554 
" fill="#F5C000" />
<path d="
M 952 552 
L 952 551 
L 938 551 
L 938 551 
L 960 551 
L 960 552 
Q 955 553 , 949 553 
Q 944 553 , 938 553 
Q 925 553 , 918 552 
Q 910 552 , 910 551 
Q 910 550 , 918 549 
Q 925 549 , 938 549 
Q 944 549 , 949 549 
Q 954 549 , 959 549 
L 959 550 
Q 952 550 , 948 550 
Q 944 549 , 939 549 
Q 929 549 , 923 550 
Q 918 550 , 918 551 
Q 918 552 , 923 552 
Q 929 552 , 939 552 
Q 944 552 , 947 552 
Q 951 552 , 952 552 
" fill="lightgray" />
<path d="
M 960 549 
L 969 549 
L 969 551 
Q 969 552 , 973 552 
Q 976 552 , 985 552 
Q 994 552 , 997 552 
Q 1001 552 , 1001 551 
L 1001 549 
L 1010 549 
L 1010 551 
Q 1010 552 , 1004 552 
Q 997 553 , 985 553 
Q 973 553 , 966 552 
Q 960 552 , 960 551 
L 960 549 
" fill="#D21010" />
<path d="
M 960 544 
L 960 545 
Q 953 544 , 949 544 
Q 944 544 , 939 544 
Q 929 544 , 924 544 
Q 918 545 , 918 546 
Q 918 547 , 924 548 
Q 929 548 , 939 548 
Q 944 548 , 949 548 
Q 953 548 , 960 547 
L 960 548 
Q 955 549 , 949 549 
Q 945 549 , 939 549 
Q 925 549 , 918 548 
Q 910 547 , 910 546 
Q 910 545 , 918 544 
Q 925 543 , 939 543 
Q 945 543 , 950 543 
Q 955 543 , 960 544 
" fill="lightgray" />
<path d="
M 1002 548 
L 1002 546 
L 988 546 
L 988 546 
L 1010 546 
L 1010 548 
Q 1005 549 , 999 549 
Q 994 549 , 988 549 
Q 975 549 , 968 548 
Q 960 547 , 960 546 
Q 960 545 , 968 544 
Q 975 543 , 988 543 
Q 994 543 , 999 543 
Q 1004 543 , 1009 543 
L 1009 544 
Q 1002 544 , 998 544 
Q 994 544 , 989 544 
Q 979 544 , 973 544 
Q 968 545 , 968 546 
Q 968 547 , 973 548 
Q 979 548 , 989 548 
Q 994 548 , 997 548 
Q 1001 548 , 1002 548 
" fill="#F5C000" />
<path d="
M 935 536 
L 926 539 
L 943 539 
L 935 536 
M 931 535 
L 939 535 
L 960 543 
L 952 543 
L 946 540 
L 924 540 
L 917 543 
L 910 543 
L 931 535 
" fill="lightgray" />
<path d="
M 960 535 
L 969 535 
L 969 539 
Q 969 541 , 973 541 
Q 976 542 , 985 542 
Q 994 542 , 997 541 
Q 1001 541 , 1001 539 
L 1001 535 
L 1010 535 
L 1010 540 
Q 1010 541 , 1004 542 
Q 997 543 , 985 543 
Q 973 543 , 966 542 
Q 960 541 , 960 540 
L 960 535 
" fill="#D21010" />
<path d="
M 952 533 
L 952 531 
L 938 531 
L 938 530 
L 960 530 
L 960 534 
Q 955 534 , 949 534 
Q 944 534 , 938 534 
Q 925 534 , 918 533 
Q 910 532 , 910 530 
Q 910 528 , 918 527 
Q 925 526 , 938 526 
Q 944 526 , 949 526 
Q 954 526 , 959 527 
L 959 528 
Q 952 527 , 948 527 
Q 944 527 , 939 527 
Q 929 527 , 923 528 
Q 918 529 , 918 530 
Q 918 532 , 923 533 
Q 929 533 , 939 533 
Q 944 533 , 947 533 
Q 951 533 , 952 533 
" fill="lightgray" />
<path d="
M 1010 527 
L 1010 528 
Q 1003 527 , 999 527 
Q 994 527 , 989 527 
Q 979 527 , 974 528 
Q 968 529 , 968 530 
Q 968 532 , 974 533 
Q 979 533 , 989 533 
Q 994 533 , 999 533 
Q 1003 533 , 1010 532 
L 1010 533 
Q 1005 534 , 999 534 
Q 995 534 , 989 534 
Q 975 534 , 968 533 
Q 960 532 , 960 530 
Q 960 528 , 968 527 
Q 975 526 , 989 526 
Q 995 526 , 1000 526 
Q 1005 526 , 1010 527 
" fill="#545FFF" />
<path d="
M 910 516 
L 919 516 
L 919 521 
Q 919 523 , 923 523 
Q 926 524 , 935 524 
Q 944 524 , 947 523 
Q 951 523 , 951 521 
L 951 516 
L 960 516 
L 960 521 
Q 960 523 , 954 524 
Q 947 525 , 935 525 
Q 923 525 , 916 524 
Q 910 523 , 910 521 
L 910 516 
" fill="lightgray" />
<path d="
M 985 518 
L 976 521 
L 993 521 
L 985 518 
M 981 516 
L 989 516 
L 1010 525 
L 1002 525 
L 996 522 
L 974 522 
L 967 525 
L 960 525 
L 981 516 
" fill="#339541" />
<path d="
M 1065 551 
L 1047 553 
L 1081 553 
L 1065 551 
M 1058 550 
L 1072 550 
L 1115 555 
L 1099 555 
L 1087 553 
L 1043 553 
L 1030 555 
L 1015 555 
L 1058 550 
" fill="#339541" />
<path d="
M 1115 539 
L 1115 541 
Q 1100 540 , 1092 540 
Q 1084 539 , 1074 539 
Q 1053 539 , 1043 540 
Q 1031 542 , 1031 544 
Q 1031 546 , 1043 547 
Q 1053 548 , 1074 548 
Q 1084 548 , 1092 548 
Q 1100 548 , 1115 547 
L 1115 548 
Q 1104 549 , 1094 549 
Q 1084 550 , 1073 550 
Q 1046 550 , 1031 548 
Q 1015 546 , 1015 544 
Q 1015 541 , 1031 540 
Q 1046 538 , 1073 538 
Q 1084 538 , 1094 538 
Q 1105 539 , 1115 539 
" fill="#545FFF" />
<path d="
M 1015 519 
L 1033 519 
L 1033 530 
Q 1033 533 , 1041 535 
Q 1048 536 , 1065 536 
Q 1082 536 , 1090 535 
Q 1097 533 , 1097 530 
L 1097 519 
L 1115 519 
L 1115 530 
Q 1115 534 , 1102 536 
Q 1090 538 , 1065 538 
Q 1041 538 , 1028 536 
Q 1015 534 , 1015 530 
L 1015 519 
" fill="#D21010" />
<path d="
M 1099 512 
L 1099 498 
L 1070 498 
L 1070 493 
L 1115 493 
L 1115 515 
Q 1104 517 , 1093 518 
Q 1084 519 , 1072 519 
Q 1046 519 , 1030 512 
Q 1015 506 , 1015 494 
Q 1015 482 , 1030 476 
Q 1046 469 , 1072 469 
Q 1083 469 , 1092 470 
Q 1102 471 , 1112 473 
L 1112 479 
Q 1099 477 , 1091 476 
Q 1082 475 , 1073 475 
Q 1052 475 , 1041 480 
Q 1031 484 , 1031 494 
Q 1031 504 , 1041 509 
Q 1052 513 , 1073 513 
Q 1082 513 , 1089 513 
Q 1096 512 , 1099 512 
" fill="#F5C000" />
<path d="
M 1220 552 
L 1220 553 
Q 1205 552 , 1197 552 
Q 1189 552 , 1179 552 
Q 1158 552 , 1148 552 
Q 1136 553 , 1136 553 
Q 1136 554 , 1148 554 
Q 1158 554 , 1179 554 
Q 1189 554 , 1197 554 
Q 1205 554 , 1220 554 
L 1220 554 
Q 1209 554 , 1199 554 
Q 1189 554 , 1178 554 
Q 1151 554 , 1136 554 
Q 1120 554 , 1120 553 
Q 1120 553 , 1136 552 
Q 1151 552 , 1178 552 
Q 1189 552 , 1199 552 
Q 1210 552 , 1220 552 
" fill="#545FFF" />
<path d="
M 1120 548 
L 1138 548 
L 1138 550 
Q 1138 551 , 1146 551 
Q 1153 551 , 1170 551 
Q 1187 551 , 1195 551 
Q 1202 551 , 1202 550 
L 1202 548 
L 1220 548 
L 1220 550 
Q 1220 551 , 1207 551 
Q 1195 552 , 1170 552 
Q 1146 552 , 1133 551 
Q 1120 551 , 1120 550 
L 1120 548 
" fill="#D21010" />
<path d="
M 1170 544 
L 1152 546 
L 1186 546 
L 1170 544 
M 1163 543 
L 1177 543 
L 1220 547 
L 1204 547 
L 1192 546 
L 1148 546 
L 1135 547 
L 1120 547 
L 1163 543 
" fill="#339541" />
<path d="
M 1204 541 
L 1204 540 
L 1175 540 
L 1175 539 
L 1220 539 
L 1220 542 
Q 1209 542 , 1198 542 
Q 1189 542 , 1177 542 
Q 1151 542 , 1135 541 
Q 1120 540 , 1120 539 
Q 1120 538 , 1135 537 
Q 1151 536 , 1177 536 
Q 1188 536 , 1197 536 
Q 1207 536 , 1217 536 
L 1217 537 
Q 1204 537 , 1196 537 
Q 1187 537 , 1178 537 
Q 1157 537 , 1146 537 
Q 1136 538 , 1136 539 
Q 1136 540 , 1146 541 
Q 1157 541 , 1178 541 
Q 1187 541 , 1194 541 
Q 1201 541 , 1204 541 
" fill="#F5C000" />
<path d="
M 1267 554 
L 1267 554 
L 1253 554 
L 1253 554 
L 1275 554 
L 1275 554 
Q 1270 554 , 1264 554 
Q 1259 554 , 1253 554 
Q 1240 554 , 1233 554 
Q 1225 554 , 1225 554 
Q 1225 553 , 1233 553 
Q 1240 553 , 1253 553 
Q 1259 553 , 1264 553 
Q 1269 553 , 1274 553 
L 1274 553 
Q 1267 553 , 1263 553 
Q 1259 553 , 1254 553 
Q 1244 553 , 1238 553 
Q 1233 553 , 1233 554 
Q 1233 554 , 1238 554 
Q 1244 554 , 1254 554 
Q 1259 554 , 1262 554 
Q 1266 554 , 1267 554 
" fill="lightgray" />
<path d="
M 1275 553 
L 1284 553 
L 1284 554 
Q 1284 554 , 1288 554 
Q 1291 554 , 1300 554 
Q 1309 554 , 1312 554 
Q 1316 554 , 1316 554 
L 1316 553 
L 1325 553 
L 1325 554 
Q 1325 554 , 1319 554 
Q 1312 554 , 1300 554 
Q 1288 554 , 1281 554 
Q 1275 554 , 1275 554 
L 1275 553 
" fill="#D21010" />
<path d="
M 1267 552 
L 1267 551 
L 1253 551 
L 1253 550 
L 1275 550 
L 1275 552 
Q 1270 552 , 1264 552 
Q 1259 553 , 1253 553 
Q 1240 553 , 1233 552 
Q 1225 551 , 1225 550 
Q 1225 549 , 1233 549 
Q 1240 548 , 1253 548 
Q 1259 548 , 1264 548 
Q 1269 548 , 1274 548 
L 1274 549 
Q 1267 549 , 1263 549 
Q 1259 549 , 1254 549 
Q 1244 549 , 1238 549 
Q 1233 549 , 1233 550 
Q 1233 551 , 1238 552 
Q 1244 552 , 1254 552 
Q 1259 552 , 1262 552 
Q 1266 552 , 1267 552 
" fill="lightgray" />
<path d="
M 1325 548 
L 1325 549 
Q 1318 549 , 1314 549 
Q 1309 549 , 1304 549 
Q 1294 549 , 1289 549 
Q 1283 549 , 1283 550 
Q 1283 551 , 1289 552 
Q 1294 552 , 1304 552 
Q 1309 552 , 1314 552 
Q 1318 552 , 1325 551 
L 1325 552 
Q 1320 552 , 1314 552 
Q 1310 553 , 1304 553 
Q 1290 553 , 1283 552 
Q 1275 551 , 1275 550 
Q 1275 549 , 1283 549 
Q 1290 548 , 1304 548 
Q 1310 548 , 1315 548 
Q 1320 548 , 1325 548 
" fill="#545FFF" />
<path d="
M 1225 543 
L 1234 543 
L 1234 546 
Q 1234 547 , 1238 547 
Q 1241 547 , 1250 547 
Q 1259 547 , 1262 547 
Q 1266 547 , 1266 546 
L 1266 543 
L 1275 543 
L 1275 546 
Q 1275 547 , 1269 547 
Q 1262 548 , 1250 548 
Q 1238 548 , 1231 547 
Q 1225 547 , 1225 546 
L 1225 543 
" fill="lightgray" />
<path d="
M 1317 547 
L 1317 546 
L 1303 546 
L 1303 545 
L 1325 545 
L 1325 548 
Q 1320 548 , 1314 548 
Q 1309 548 , 1303 548 
Q 1290 548 , 1283 547 
Q 1275 547 , 1275 545 
Q 1275 544 , 1283 544 
Q 1290 543 , 1303 543 
Q 1309 543 , 1314 543 
Q 1319 543 , 1324 543 
L 1324 544 
Q 1317 544 , 1313 544 
Q 1309 544 , 1304 544 
Q 1294 544 , 1288 544 
Q 1283 545 , 1283 545 
Q 1283 546 , 1288 547 
Q 1294 547 , 1304 547 
Q 1309 547 , 1312 547 
Q 1316 547 , 1317 547 
" fill="#F5C000" />
<path d="
M 1250 538 
L 1241 540 
L 1258 540 
L 1250 538 
M 1246 537 
L 1254 537 
L 1275 543 
L 1267 543 
L 1261 541 
L 1239 541 
L 1232 543 
L 1225 543 
L 1246 537 
" fill="lightgray" />
<path d="
M 1275 537 
L 1284 537 
L 1284 540 
Q 1284 541 , 1288 542 
Q 1291 542 , 1300 542 
Q 1309 542 , 1312 542 
Q 1316 541 , 1316 540 
L 1316 537 
L 1325 537 
L 1325 540 
Q 1325 541 , 1319 542 
Q 1312 543 , 1300 543 
Q 1288 543 , 1281 542 
Q 1275 541 , 1275 540 
L 1275 537 
" fill="#D21010" />
<path d="
M 1225 530 
L 1234 530 
L 1234 534 
Q 1234 535 , 1238 535 
Q 1241 535 , 1250 535 
Q 1259 535 , 1262 535 
Q 1266 535 , 1266 534 
L 1266 530 
L 1275 530 
L 1275 534 
Q 1275 535 , 1269 536 
Q 1262 536 , 1250 536 
Q 1238 536 , 1231 536 
Q 1225 535 , 1225 534 
L 1225 530 
" fill="lightgray" />
<path d="
M 1300 531 
L 1291 534 
L 1308 534 
L 1300 531 
M 1296 530 
L 1304 530 
L 1325 536 
L 1317 536 
L 1311 534 
L 1289 534 
L 1282 536 
L 1275 536 
L 1296 530 
" fill="#339541" />
<path d="
M 1275 522 
L 1275 523 
Q 1268 522 , 1264 522 
Q 1259 522 , 1254 522 
Q 1244 522 , 1239 523 
Q 1233 524 , 1233 525 
Q 1233 527 , 1239 528 
Q 1244 529 , 1254 529 
Q 1259 529 , 1264 528 
Q 1268 528 , 1275 527 
L 1275 529 
Q 1270 529 , 1264 529 
Q 1260 530 , 1254 530 
Q 1240 530 , 1233 528 
Q 1225 527 , 1225 525 
Q 1225 523 , 1233 522 
Q 1240 521 , 1254 521 
Q 1260 521 , 1265 521 
Q 1270 521 , 1275 522 
" fill="lightgray" />
<path d="
M 1317 528 
L 1317 526 
L 1303 526 
L 1303 525 
L 1325 525 
L 1325 529 
Q 1320 529 , 1314 529 
Q 1309 530 , 1303 530 
Q 1290 530 , 1283 528 
Q 1275 527 , 1275 525 
Q 1275 523 , 1283 522 
Q 1290 521 , 1303 521 
Q 1309 521 , 1314 521 
Q 1319 521 , 1324 522 
L 1324 523 
Q 1317 522 , 1313 522 
Q 1309 522 , 1304 522 
Q 1294 522 , 1288 523 
Q 1283 524 , 1283 525 
Q 1283 527 , 1288 528 
Q 1294 529 , 1304 529 
Q 1309 529 , 1312 529 
Q 1316 528 , 1317 528 
" fill="#F5C000" />
<path d="
M 1430 554 
L 1430 554 
Q 1415 554 , 1407 554 
Q 1399 554 , 1389 554 
Q 1368 554 , 1358 554 
Q 1346 554 , 1346 554 
Q 1346 554 , 1358 554 
Q 1368 554 , 1389 554 
Q 1399 554 , 1407 554 
Q 1415 554 , 1430 554 
L 1430 554 
Q 1419 554 , 1409 554 
Q 1399 554 , 1388 554 
Q 1361 554 , 1346 554 
Q 1330 554 , 1330 554 
Q 1330 554 , 1346 554 
Q 1361 554 , 1388 554 
Q 1399 554 , 1409 554 
Q 1420 554 , 1430 554 
" fill="#545FFF" />
<path d="
M 1380 553 
L 1362 553 
L 1396 553 
L 1380 553 
M 1373 553 
L 1387 553 
L 1430 553 
L 1414 553 
L 1402 553 
L 1358 553 
L 1345 553 
L 1330 553 
L 1373 553 
" fill="#339541" />
<path d="
M 1330 552 
L 1348 552 
L 1348 552 
Q 1348 552 , 1356 552 
Q 1363 552 , 1380 552 
Q 1397 552 , 1405 552 
Q 1412 552 , 1412 552 
L 1412 552 
L 1430 552 
L 1430 552 
Q 1430 552 , 1417 552 
Q 1405 552 , 1380 552 
Q 1356 552 , 1343 552 
Q 1330 552 , 1330 552 
L 1330 552 
" fill="#D21010" />
<path d="
M 1414 551 
L 1414 551 
L 1385 551 
L 1385 551 
L 1430 551 
L 1430 552 
Q 1419 552 , 1408 552 
Q 1399 552 , 1387 552 
Q 1361 552 , 1345 551 
Q 1330 551 , 1330 551 
Q 1330 551 , 1345 551 
Q 1361 551 , 1387 551 
Q 1398 551 , 1407 551 
Q 1417 551 , 1427 551 
L 1427 551 
Q 1414 551 , 1406 551 
Q 1397 551 , 1388 551 
Q 1367 551 , 1356 551 
Q 1346 551 , 1346 551 
Q 1346 551 , 1356 551 
Q 1367 551 , 1388 551 
Q 1397 551 , 1404 551 
Q 1411 551 , 1414 551 
" fill="#F5C000" />
<path d="M 65 168 L 65 555 " stroke="black" stroke-width="1.5"/>
<path d="M 55 555 L 65 555 " stroke="black" stroke-width="4"/>
<text text-anchor="end" x="50" y="555" font-size="50" alignment-baseline="middle">0</text>
<path d="M 55 362 L 65 362 " stroke="black" stroke-width="4"/>
<text text-anchor="end" x="50" y="362" font-size="50" alignment-baseline="middle">1</text>
<path d="M 55 168 L 65 168 " stroke="black" stroke-width="4"/>
<text text-anchor="end" x="50" y="168" font-size="50" alignment-baseline="middle">2</text>
<text text-anchor="middle" x="750" y="50" font-size="50" alignment-baseline="baseline"></text>
G<path d="
M 160 582 
L 126 595 
L 160 608 
L 157 611 
L 123 598 
L 123 623 
L 117 623 
L 117 599 
L 83 611 
L 80 608 
L 114 595 
L 80 582 
L 83 579 
L 117 591 
L 117 567 
L 123 567 
L 123 591 
L 157 579 
L 160 582 
" fill="black" />
<path d="
M 265 567 
Q 236 574 , 223 581 
Q 210 588 , 210 595 
Q 210 602 , 223 609 
Q 236 616 , 265 623 
L 241 623 
Q 213 616 , 199 609 
Q 185 602 , 185 595 
Q 185 588 , 199 581 
Q 213 574 , 241 567 
L 265 567 
" fill="black" />
<path d="
M 370 567 
Q 341 574 , 328 581 
Q 315 588 , 315 595 
Q 315 602 , 328 609 
Q 341 616 , 370 623 
L 346 623 
Q 318 616 , 304 609 
Q 290 602 , 290 595 
Q 290 588 , 304 581 
Q 318 574 , 346 567 
L 370 567 
" fill="black" />
<path d="
" fill="black" />
<path d="
M 421 567 
L 448 567 
L 448 623 
L 421 623 
L 421 567 
" fill="black" />
<path d="
" fill="black" />
<path d="
" fill="black" />
<path d="
M 526 567 
L 553 567 
L 553 623 
L 526 623 
L 526 567 
" fill="black" />
<path d="
" fill="black" />
<path d="
" fill="black" />
<path d="
M 622 567 
L 642 567 
L 642 623 
L 622 623 
L 622 567 
" fill="black" />
<path d="
" fill="black" />
<path d="
M 682 595 
Q 679 595 , 677 599 
Q 675 602 , 675 607 
Q 675 613 , 677 616 
Q 679 619 , 682 619 
Q 685 619 , 687 616 
Q 689 613 , 689 607 
Q 689 602 , 687 599 
Q 685 595 , 682 595 
M 677 593 
Q 675 592 , 674 589 
Q 673 586 , 673 581 
Q 673 575 , 675 571 
Q 678 567 , 682 567 
Q 686 567 , 689 571 
Q 691 575 , 691 581 
Q 691 586 , 690 589 
Q 688 592 , 687 593 
Q 689 594 , 690 598 
Q 692 601 , 692 607 
Q 692 614 , 689 619 
Q 687 623 , 682 623 
Q 677 623 , 675 619 
Q 672 614 , 672 607 
Q 672 601 , 674 598 
Q 675 594 , 677 593 
M 677 573 
Q 675 576 , 675 581 
Q 675 586 , 677 589 
Q 679 592 , 682 592 
Q 685 592 , 687 589 
Q 689 586 , 689 581 
Q 689 576 , 687 574 
Q 685 571 , 682 571 
Q 679 571 , 677 573 
" fill="black" />
<path d="
M 790 582 
L 756 595 
L 790 608 
L 787 611 
L 753 598 
L 753 623 
L 747 623 
L 747 599 
L 713 611 
L 710 608 
L 744 595 
L 710 582 
L 713 579 
L 747 591 
L 747 567 
L 753 567 
L 753 591 
L 787 579 
L 790 582 
" fill="black" />
<path d="
" fill="black" />
<path d="
M 841 567 
L 868 567 
L 868 623 
L 841 623 
L 841 567 
" fill="black" />
<path d="
" fill="black" />
<path d="
M 920 567 
L 944 567 
Q 972 574 , 986 581 
Q 1000 588 , 1000 595 
Q 1000 602 , 986 609 
Q 972 616 , 944 623 
L 920 623 
Q 949 616 , 962 609 
Q 975 602 , 975 595 
Q 975 588 , 962 581 
Q 949 574 , 920 567 
" fill="black" />
<path d="
" fill="black" />
<path d="
M 1051 567 
L 1078 567 
L 1078 623 
L 1051 623 
L 1051 567 
" fill="black" />
<path d="
" fill="black" />
<path d="
" fill="black" />
<path d="
M 1156 567 
L 1183 567 
L 1183 623 
L 1156 623 
L 1156 567 
" fill="black" />
<path d="
" fill="black" />
<path d="
M 1235 567 
L 1259 567 
Q 1287 574 , 1301 581 
Q 1315 588 , 1315 595 
Q 1315 602 , 1301 609 
Q 1287 616 , 1259 623 
L 1235 623 
Q 1264 616 , 1277 609 
Q 1290 602 , 1290 595 
Q 1290 588 , 1277 581 
Q 1264 574 , 1235 567 
" fill="black" />
<path d="
M 1420 582 
L 1386 595 
L 1420 608 
L 1417 611 
L 1383 598 
L 1383 623 
L 1377 623 
L 1377 599 
L 1343 611 
L 1340 608 
L 1374 595 
L 1340 582 
L 1343 579 
L 1377 591 
L 1377 567 
L 1383 567 
L 1383 591 
L 1417 579 
L 1420 582 
" fill="black" />
</svg>
