<svg xmlns="http://www.w3.org/2000/svg"
viewBox="0 0 1330 635">
<path d="
M 120 554 
L 102 554 
L 136 554 
L 120 554 
M 113 554 
L 127 554 
L 170 554 
L 154 554 
L 142 554 
L 98 554 
L 85 554 
L 70 554 
L 113 554 
" fill="#339541" />
<path d="
M 170 553 
L 170 553 
Q 155 553 , 147 553 
Q 139 553 , 129 553 
Q 108 553 , 98 553 
Q 86 553 , 86 553 
Q 86 553 , 98 553 
Q 108 553 , 129 553 
Q 139 553 , 147 553 
Q 155 553 , 170 553 
L 170 553 
Q 159 553 , 149 553 
Q 139 553 , 128 553 
Q 101 553 , 86 553 
Q 70 553 , 70 553 
Q 70 553 , 86 553 
Q 101 553 , 128 553 
Q 139 553 , 149 553 
Q 160 553 , 170 553 
" fill="#545FFF" />
<path d="
M 70 552 
L 88 552 
L 88 552 
Q 88 552 , 96 552 
Q 103 552 , 120 552 
Q 137 552 , 145 552 
Q 152 552 , 152 552 
L 152 552 
L 170 552 
L 170 552 
Q 170 552 , 157 552 
Q 145 552 , 120 552 
Q 96 552 , 83 552 
Q 70 552 , 70 552 
L 70 552 
" fill="#D21010" />
<path d="
M 154 551 
L 154 551 
L 125 551 
L 125 551 
L 170 551 
L 170 551 
Q 159 552 , 148 552 
Q 139 552 , 127 552 
Q 101 552 , 85 551 
Q 70 551 , 70 551 
Q 70 551 , 85 551 
Q 101 551 , 127 551 
Q 138 551 , 147 551 
Q 157 551 , 167 551 
L 167 551 
Q 154 551 , 146 551 
Q 137 551 , 128 551 
Q 107 551 , 96 551 
Q 86 551 , 86 551 
Q 86 551 , 96 551 
Q 107 551 , 128 551 
Q 137 551 , 144 551 
Q 151 551 , 154 551 
" fill="#F5C000" />
<path d="
M 275 544 
L 275 546 
Q 260 545 , 252 545 
Q 244 544 , 234 544 
Q 213 544 , 203 545 
Q 191 546 , 191 548 
Q 191 551 , 203 552 
Q 213 553 , 234 553 
Q 244 553 , 252 553 
Q 260 552 , 275 551 
L 275 553 
Q 264 554 , 254 554 
Q 244 554 , 233 554 
Q 206 554 , 191 553 
Q 175 551 , 175 549 
Q 175 546 , 191 545 
Q 206 543 , 233 543 
Q 244 543 , 254 543 
Q 265 544 , 275 544 
" fill="#545FFF" />
<path d="
M 225 532 
L 207 537 
L 241 537 
L 225 532 
M 218 529 
L 232 529 
L 275 543 
L 259 543 
L 247 539 
L 203 539 
L 190 543 
L 175 543 
L 218 529 
" fill="#339541" />
<path d="
M 259 526 
L 259 521 
L 230 521 
L 230 519 
L 275 519 
L 275 527 
Q 264 527 , 253 528 
Q 244 528 , 232 528 
Q 206 528 , 190 526 
Q 175 524 , 175 520 
Q 175 516 , 190 513 
Q 206 511 , 232 511 
Q 243 511 , 252 511 
Q 262 512 , 272 512 
L 272 515 
Q 259 514 , 251 513 
Q 242 513 , 233 513 
Q 212 513 , 201 515 
Q 191 516 , 191 520 
Q 191 523 , 201 525 
Q 212 526 , 233 526 
Q 242 526 , 249 526 
Q 256 526 , 259 526 
" fill="#F5C000" />
<path d="
M 175 443 
L 193 443 
L 193 483 
Q 193 494 , 201 499 
Q 208 503 , 225 503 
Q 242 503 , 250 499 
Q 257 494 , 257 483 
L 257 443 
L 275 443 
L 275 484 
Q 275 497 , 262 504 
Q 250 511 , 225 511 
Q 201 511 , 188 504 
Q 175 497 , 175 484 
L 175 443 
" fill="#D21010" />
<path d="
M 380 544 
L 380 546 
Q 365 545 , 357 545 
Q 349 544 , 339 544 
Q 318 544 , 308 545 
Q 296 547 , 296 549 
Q 296 551 , 308 553 
Q 318 554 , 339 554 
Q 349 554 , 357 553 
Q 365 553 , 380 552 
L 380 554 
Q 369 554 , 359 555 
Q 349 555 , 338 555 
Q 311 555 , 296 553 
Q 280 552 , 280 549 
Q 280 546 , 296 545 
Q 311 543 , 338 543 
Q 349 543 , 359 543 
Q 370 544 , 380 544 
" fill="#545FFF" />
<path d="
M 330 532 
L 312 537 
L 346 537 
L 330 532 
M 323 529 
L 337 529 
L 380 543 
L 364 543 
L 352 539 
L 308 539 
L 295 543 
L 280 543 
L 323 529 
" fill="#339541" />
<path d="
M 280 504 
L 298 504 
L 298 518 
Q 298 522 , 306 524 
Q 313 526 , 330 526 
Q 347 526 , 355 524 
Q 362 522 , 362 518 
L 362 504 
L 380 504 
L 380 519 
Q 380 524 , 367 526 
Q 355 529 , 330 529 
Q 306 529 , 293 526 
Q 280 524 , 280 519 
L 280 504 
" fill="#D21010" />
<path d="
M 364 480 
L 364 435 
L 335 435 
L 335 416 
L 380 416 
L 380 491 
Q 369 498 , 358 501 
Q 349 503 , 337 504 
Q 311 504 , 295 481 
Q 280 459 , 280 420 
Q 280 381 , 295 358 
Q 311 336 , 337 336 
Q 348 336 , 357 339 
Q 367 342 , 377 350 
L 377 371 
Q 364 361 , 356 359 
Q 347 356 , 338 356 
Q 317 356 , 306 372 
Q 296 388 , 296 420 
Q 296 453 , 306 469 
Q 317 485 , 338 485 
Q 347 485 , 354 483 
Q 361 482 , 364 480 
" fill="#F5C000" />
<path d="
M 485 549 
L 485 550 
Q 470 549 , 462 549 
Q 454 549 , 444 549 
Q 423 549 , 413 549 
Q 401 550 , 401 551 
Q 401 553 , 413 553 
Q 423 554 , 444 554 
Q 454 554 , 462 554 
Q 470 553 , 485 553 
L 485 554 
Q 474 554 , 464 554 
Q 454 555 , 443 555 
Q 416 555 , 401 554 
Q 385 553 , 385 551 
Q 385 550 , 401 549 
Q 416 548 , 443 548 
Q 454 548 , 464 548 
Q 475 548 , 485 549 
" fill="#545FFF" />
<path d="
M 435 541 
L 417 544 
L 451 544 
L 435 541 
M 428 539 
L 442 539 
L 485 547 
L 469 547 
L 457 545 
L 413 545 
L 400 547 
L 385 547 
L 428 539 
" fill="#339541" />
<path d="
M 385 524 
L 403 524 
L 403 533 
Q 403 535 , 411 536 
Q 418 537 , 435 537 
Q 452 537 , 460 536 
Q 467 535 , 467 533 
L 467 524 
L 485 524 
L 485 533 
Q 485 536 , 472 537 
Q 460 539 , 435 539 
Q 411 539 , 398 537 
Q 385 536 , 385 533 
L 385 524 
" fill="#D21010" />
<path d="
M 469 520 
L 469 512 
L 440 512 
L 440 509 
L 485 509 
L 485 522 
Q 474 523 , 463 523 
Q 454 524 , 442 524 
Q 416 524 , 400 520 
Q 385 516 , 385 510 
Q 385 503 , 400 500 
Q 416 496 , 442 496 
Q 453 496 , 462 496 
Q 472 497 , 482 498 
L 482 502 
Q 469 500 , 461 500 
Q 452 499 , 443 499 
Q 422 499 , 411 502 
Q 401 505 , 401 510 
Q 401 515 , 411 518 
Q 422 521 , 443 521 
Q 452 521 , 459 520 
Q 466 520 , 469 520 
" fill="#F5C000" />
<path d="
M 590 551 
L 590 551 
Q 575 551 , 567 551 
Q 559 551 , 549 551 
Q 528 551 , 518 551 
Q 506 551 , 506 552 
Q 506 553 , 518 554 
Q 528 554 , 549 554 
Q 559 554 , 567 554 
Q 575 554 , 590 554 
L 590 554 
Q 579 555 , 569 555 
Q 559 555 , 548 555 
Q 521 555 , 506 554 
Q 490 554 , 490 552 
Q 490 551 , 506 551 
Q 521 550 , 548 550 
Q 559 550 , 569 550 
Q 580 550 , 590 551 
" fill="#545FFF" />
<path d="
M 540 535 
L 522 542 
L 556 542 
L 540 535 
M 533 532 
L 547 532 
L 590 549 
L 574 549 
L 562 544 
L 518 544 
L 505 549 
L 490 549 
L 533 532 
" fill="#339541" />
<path d="
M 490 499 
L 508 499 
L 508 518 
Q 508 524 , 516 526 
Q 523 528 , 540 528 
Q 557 528 , 565 526 
Q 572 524 , 572 518 
L 572 499 
L 590 499 
L 590 519 
Q 590 525 , 577 528 
Q 565 532 , 540 532 
Q 516 532 , 503 528 
Q 490 525 , 490 519 
L 490 499 
" fill="#D21010" />
<path d="
M 574 476 
L 574 434 
L 545 434 
L 545 417 
L 590 417 
L 590 486 
Q 579 493 , 568 495 
Q 559 498 , 547 498 
Q 521 498 , 505 477 
Q 490 457 , 490 420 
Q 490 384 , 505 363 
Q 521 342 , 547 342 
Q 558 342 , 567 345 
Q 577 348 , 587 355 
L 587 375 
Q 574 366 , 566 363 
Q 557 361 , 548 361 
Q 527 361 , 516 375 
Q 506 390 , 506 420 
Q 506 451 , 516 466 
Q 527 481 , 548 481 
Q 557 481 , 564 479 
Q 571 478 , 574 476 
" fill="#F5C000" />
<path d="
M 695 545 
L 695 547 
Q 680 546 , 672 545 
Q 664 545 , 654 545 
Q 633 545 , 623 546 
Q 611 547 , 611 549 
Q 611 552 , 623 553 
Q 633 554 , 654 554 
Q 664 554 , 672 553 
Q 680 553 , 695 552 
L 695 554 
Q 684 554 , 674 555 
Q 664 555 , 653 555 
Q 626 555 , 611 553 
Q 595 552 , 595 549 
Q 595 547 , 611 545 
Q 626 544 , 653 544 
Q 664 544 , 674 544 
Q 685 545 , 695 545 
" fill="#545FFF" />
<path d="
M 645 532 
L 627 538 
L 661 538 
L 645 532 
M 638 530 
L 652 530 
L 695 543 
L 679 543 
L 667 539 
L 623 539 
L 610 543 
L 595 543 
L 638 530 
" fill="#339541" />
<path d="
M 595 503 
L 613 503 
L 613 519 
Q 613 523 , 621 525 
Q 628 527 , 645 527 
Q 662 527 , 670 525 
Q 677 523 , 677 519 
L 677 503 
L 695 503 
L 695 519 
Q 695 524 , 682 527 
Q 670 530 , 645 530 
Q 621 530 , 608 527 
Q 595 524 , 595 519 
L 595 503 
" fill="#D21010" />
<path d="
M 679 485 
L 679 453 
L 650 453 
L 650 440 
L 695 440 
L 695 493 
Q 684 498 , 673 500 
Q 664 502 , 652 502 
Q 626 502 , 610 486 
Q 595 470 , 595 443 
Q 595 415 , 610 399 
Q 626 383 , 652 383 
Q 663 383 , 672 385 
Q 682 387 , 692 393 
L 692 408 
Q 679 401 , 671 399 
Q 662 397 , 653 397 
Q 632 397 , 621 408 
Q 611 420 , 611 443 
Q 611 466 , 621 478 
Q 632 489 , 653 489 
Q 662 489 , 669 488 
Q 676 486 , 679 485 
" fill="#F5C000" />
<path d="
M 800 551 
L 800 552 
Q 785 552 , 777 551 
Q 769 551 , 759 551 
Q 738 551 , 728 552 
Q 716 552 , 716 552 
Q 716 553 , 728 554 
Q 738 554 , 759 554 
Q 769 554 , 777 554 
Q 785 554 , 800 554 
L 800 554 
Q 789 554 , 779 554 
Q 769 554 , 758 554 
Q 731 554 , 716 554 
Q 700 554 , 700 553 
Q 700 552 , 716 551 
Q 731 551 , 758 551 
Q 769 551 , 779 551 
Q 790 551 , 800 551 
" fill="#545FFF" />
<path d="
M 784 550 
L 784 548 
L 755 548 
L 755 547 
L 800 547 
L 800 550 
Q 789 551 , 778 551 
Q 769 551 , 757 551 
Q 731 551 , 715 550 
Q 700 549 , 700 547 
Q 700 546 , 715 545 
Q 731 544 , 757 544 
Q 768 544 , 777 544 
Q 787 544 , 797 545 
L 797 545 
Q 784 545 , 776 545 
Q 767 545 , 758 545 
Q 737 545 , 726 545 
Q 716 546 , 716 547 
Q 716 549 , 726 549 
Q 737 550 , 758 550 
Q 767 550 , 774 550 
Q 781 550 , 784 550 
" fill="#F5C000" />
<path d="
M 700 536 
L 718 536 
L 718 541 
Q 718 542 , 726 542 
Q 733 543 , 750 543 
Q 767 543 , 775 542 
Q 782 542 , 782 541 
L 782 536 
L 800 536 
L 800 541 
Q 800 542 , 787 543 
Q 775 544 , 750 544 
Q 726 544 , 713 543 
Q 700 542 , 700 541 
L 700 536 
" fill="#D21010" />
<path d="
M 750 526 
L 732 531 
L 766 531 
L 750 526 
M 743 524 
L 757 524 
L 800 536 
L 784 536 
L 772 532 
L 728 532 
L 715 536 
L 700 536 
L 743 524 
" fill="#339541" />
<path d="
M 905 549 
L 905 550 
Q 890 549 , 882 549 
Q 874 549 , 864 549 
Q 843 549 , 833 549 
Q 821 550 , 821 551 
Q 821 552 , 833 553 
Q 843 554 , 864 554 
Q 874 554 , 882 553 
Q 890 553 , 905 553 
L 905 554 
Q 894 554 , 884 554 
Q 874 554 , 863 554 
Q 836 554 , 821 553 
Q 805 553 , 805 551 
Q 805 550 , 821 549 
Q 836 548 , 863 548 
Q 874 548 , 884 548 
Q 895 548 , 905 549 
" fill="#545FFF" />
<path d="
M 805 530 
L 823 530 
L 823 540 
Q 823 543 , 831 545 
Q 838 546 , 855 546 
Q 872 546 , 880 545 
Q 887 543 , 887 540 
L 887 530 
L 905 530 
L 905 541 
Q 905 544 , 892 546 
Q 880 548 , 855 548 
Q 831 548 , 818 546 
Q 805 544 , 805 541 
L 805 530 
" fill="#D21010" />
<path d="
M 855 513 
L 837 521 
L 871 521 
L 855 513 
M 848 509 
L 862 509 
L 905 530 
L 889 530 
L 877 524 
L 833 524 
L 820 530 
L 805 530 
L 848 509 
" fill="#339541" />
<path d="
M 889 499 
L 889 482 
L 860 482 
L 860 474 
L 905 474 
L 905 504 
Q 894 506 , 883 507 
Q 874 509 , 862 509 
Q 836 509 , 820 500 
Q 805 491 , 805 476 
Q 805 461 , 820 452 
Q 836 443 , 862 443 
Q 873 443 , 882 444 
Q 892 445 , 902 448 
L 902 457 
Q 889 453 , 881 452 
Q 872 451 , 863 451 
Q 842 451 , 831 457 
Q 821 463 , 821 476 
Q 821 489 , 831 495 
Q 842 501 , 863 501 
Q 872 501 , 879 501 
Q 886 500 , 889 499 
" fill="#F5C000" />
<path d="
M 960 547 
L 942 551 
L 976 551 
L 960 547 
M 953 545 
L 967 545 
L 1010 555 
L 994 555 
L 982 552 
L 938 552 
L 925 555 
L 910 555 
L 953 545 
" fill="#339541" />
<path d="
M 1010 532 
L 1010 534 
Q 995 532 , 987 532 
Q 979 532 , 969 532 
Q 948 532 , 938 533 
Q 926 534 , 926 537 
Q 926 540 , 938 541 
Q 948 543 , 969 543 
Q 979 543 , 987 542 
Q 995 542 , 1010 541 
L 1010 543 
Q 999 544 , 989 544 
Q 979 544 , 968 544 
Q 941 544 , 926 542 
Q 910 540 , 910 537 
Q 910 534 , 926 532 
Q 941 530 , 968 530 
Q 979 530 , 989 530 
Q 1000 531 , 1010 532 
" fill="#545FFF" />
<path d="
M 910 503 
L 928 503 
L 928 518 
Q 928 523 , 936 524 
Q 943 526 , 960 526 
Q 977 526 , 985 524 
Q 992 523 , 992 518 
L 992 503 
L 1010 503 
L 1010 519 
Q 1010 524 , 997 526 
Q 985 529 , 960 529 
Q 936 529 , 923 526 
Q 910 524 , 910 519 
L 910 503 
" fill="#D21010" />
<path d="
M 994 476 
L 994 426 
L 965 426 
L 965 406 
L 1010 406 
L 1010 488 
Q 999 496 , 988 499 
Q 979 502 , 967 502 
Q 941 502 , 925 478 
Q 910 453 , 910 410 
Q 910 367 , 925 343 
Q 941 318 , 967 318 
Q 978 318 , 987 321 
Q 997 325 , 1007 333 
L 1007 357 
Q 994 346 , 986 343 
Q 977 340 , 968 340 
Q 947 340 , 936 357 
Q 926 375 , 926 410 
Q 926 447 , 936 464 
Q 947 482 , 968 482 
Q 977 482 , 984 480 
Q 991 478 , 994 476 
" fill="#F5C000" />
<path d="
M 1015 553 
L 1033 553 
L 1033 554 
Q 1033 554 , 1041 554 
Q 1048 555 , 1065 555 
Q 1082 555 , 1090 554 
Q 1097 554 , 1097 554 
L 1097 553 
L 1115 553 
L 1115 554 
Q 1115 554 , 1102 555 
Q 1090 555 , 1065 555 
Q 1041 555 , 1028 555 
Q 1015 554 , 1015 554 
L 1015 553 
" fill="#D21010" />
<path d="
M 1115 551 
L 1115 551 
Q 1100 551 , 1092 551 
Q 1084 551 , 1074 551 
Q 1053 551 , 1043 551 
Q 1031 552 , 1031 552 
Q 1031 552 , 1043 552 
Q 1053 553 , 1074 553 
Q 1084 553 , 1092 553 
Q 1100 553 , 1115 552 
L 1115 553 
Q 1104 553 , 1094 553 
Q 1084 553 , 1073 553 
Q 1046 553 , 1031 553 
Q 1015 552 , 1015 552 
Q 1015 552 , 1031 551 
Q 1046 551 , 1073 551 
Q 1084 551 , 1094 551 
Q 1105 551 , 1115 551 
" fill="#545FFF" />
<path d="
M 1065 548 
L 1047 549 
L 1081 549 
L 1065 548 
M 1058 548 
L 1072 548 
L 1115 550 
L 1099 550 
L 1087 550 
L 1043 550 
L 1030 550 
L 1015 550 
L 1058 548 
" fill="#339541" />
<path d="
M 1099 547 
L 1099 546 
L 1070 546 
L 1070 545 
L 1115 545 
L 1115 547 
Q 1104 547 , 1093 547 
Q 1084 547 , 1072 547 
Q 1046 547 , 1030 547 
Q 1015 546 , 1015 546 
Q 1015 545 , 1030 544 
Q 1046 544 , 1072 544 
Q 1083 544 , 1092 544 
Q 1102 544 , 1112 544 
L 1112 545 
Q 1099 544 , 1091 544 
Q 1082 544 , 1073 544 
Q 1052 544 , 1041 545 
Q 1031 545 , 1031 546 
Q 1031 546 , 1041 546 
Q 1052 547 , 1073 547 
Q 1082 547 , 1089 547 
Q 1096 547 , 1099 547 
" fill="#F5C000" />
<path d="
M 1220 551 
L 1220 552 
Q 1205 552 , 1197 552 
Q 1189 551 , 1179 551 
Q 1158 551 , 1148 552 
Q 1136 552 , 1136 553 
Q 1136 554 , 1148 554 
Q 1158 555 , 1179 555 
Q 1189 555 , 1197 554 
Q 1205 554 , 1220 554 
L 1220 555 
Q 1209 555 , 1199 555 
Q 1189 555 , 1178 555 
Q 1151 555 , 1136 554 
Q 1120 554 , 1120 553 
Q 1120 552 , 1136 552 
Q 1151 551 , 1178 551 
Q 1189 551 , 1199 551 
Q 1210 551 , 1220 551 
" fill="#545FFF" />
<path d="
M 1120 539 
L 1138 539 
L 1138 546 
Q 1138 548 , 1146 549 
Q 1153 549 , 1170 549 
Q 1187 549 , 1195 549 
Q 1202 548 , 1202 546 
L 1202 539 
L 1220 539 
L 1220 546 
Q 1220 548 , 1207 549 
Q 1195 551 , 1170 551 
Q 1146 551 , 1133 549 
Q 1120 548 , 1120 546 
L 1120 539 
" fill="#D21010" />
<path d="
M 1170 527 
L 1152 532 
L 1186 532 
L 1170 527 
M 1163 524 
L 1177 524 
L 1220 538 
L 1204 538 
L 1192 534 
L 1148 534 
L 1135 538 
L 1120 538 
L 1163 524 
" fill="#339541" />
<path d="
M 1204 520 
L 1204 514 
L 1175 514 
L 1175 511 
L 1220 511 
L 1220 522 
Q 1209 523 , 1198 523 
Q 1189 523 , 1177 523 
Q 1151 523 , 1135 520 
Q 1120 517 , 1120 512 
Q 1120 506 , 1135 503 
Q 1151 500 , 1177 500 
Q 1188 500 , 1197 500 
Q 1207 501 , 1217 502 
L 1217 505 
Q 1204 504 , 1196 503 
Q 1187 503 , 1178 503 
Q 1157 503 , 1146 505 
Q 1136 507 , 1136 512 
Q 1136 516 , 1146 519 
Q 1157 521 , 1178 521 
Q 1187 521 , 1194 521 
Q 1201 520 , 1204 520 
" fill="#F5C000" />
<path d="
M 1275 554 
L 1257 554 
L 1291 554 
L 1275 554 
M 1268 554 
L 1282 554 
L 1325 554 
L 1309 554 
L 1297 554 
L 1253 554 
L 1240 554 
L 1225 554 
L 1268 554 
" fill="#339541" />
<path d="
M 1325 553 
L 1325 553 
Q 1310 553 , 1302 553 
Q 1294 553 , 1284 553 
Q 1263 553 , 1253 553 
Q 1241 553 , 1241 553 
Q 1241 553 , 1253 553 
Q 1263 553 , 1284 553 
Q 1294 553 , 1302 553 
Q 1310 553 , 1325 553 
L 1325 553 
Q 1314 553 , 1304 553 
Q 1294 553 , 1283 553 
Q 1256 553 , 1241 553 
Q 1225 553 , 1225 553 
Q 1225 553 , 1241 553 
Q 1256 553 , 1283 553 
Q 1294 553 , 1304 553 
Q 1315 553 , 1325 553 
" fill="#545FFF" />
<path d="
M 1225 552 
L 1243 552 
L 1243 552 
Q 1243 552 , 1251 552 
Q 1258 552 , 1275 552 
Q 1292 552 , 1300 552 
Q 1307 552 , 1307 552 
L 1307 552 
L 1325 552 
L 1325 552 
Q 1325 552 , 1312 552 
Q 1300 552 , 1275 552 
Q 1251 552 , 1238 552 
Q 1225 552 , 1225 552 
L 1225 552 
" fill="#D21010" />
<path d="
M 1309 551 
L 1309 551 
L 1280 551 
L 1280 551 
L 1325 551 
L 1325 551 
Q 1314 552 , 1303 552 
Q 1294 552 , 1282 552 
Q 1256 552 , 1240 551 
Q 1225 551 , 1225 551 
Q 1225 551 , 1240 551 
Q 1256 551 , 1282 551 
Q 1293 551 , 1302 551 
Q 1312 551 , 1322 551 
L 1322 551 
Q 1309 551 , 1301 551 
Q 1292 551 , 1283 551 
Q 1262 551 , 1251 551 
Q 1241 551 , 1241 551 
Q 1241 551 , 1251 551 
Q 1262 551 , 1283 551 
Q 1292 551 , 1299 551 
Q 1306 551 , 1309 551 
" fill="#F5C000" />
<path d="M 65 55 L 65 555 " stroke="black" stroke-width="1.5"/>
<path d="M 55 555 L 65 555 " stroke="black" stroke-width="4"/>
<text text-anchor="end" x="50" y="555" font-size="50" alignment-baseline="middle">0</text>
<path d="M 55 305 L 65 305 " stroke="black" stroke-width="4"/>
<text text-anchor="end" x="50" y="305" font-size="50" alignment-baseline="middle">1</text>
<path d="M 55 55 L 65 55 " stroke="black" stroke-width="4"/>
<text text-anchor="end" x="50" y="55" font-size="50" alignment-baseline="middle">2</text>
<text text-anchor="middle" x="697" y="50" font-size="50" alignment-baseline="baseline"></text>
G<path d="
M 160 582 
L 126 595 
L 160 608 
L 157 611 
L 123 598 
L 123 623 
L 117 623 
L 117 599 
L 83 611 
L 80 608 
L 114 595 
L 80 582 
L 83 579 
L 117 591 
L 117 567 
L 123 567 
L 123 591 
L 157 579 
L 160 582 
" fill="black" />
<path d="
" fill="black" />
<path d="
M 211 567 
L 238 567 
L 238 623 
L 211 623 
L 211 567 
" fill="black" />
<path d="
" fill="black" />
<path d="
" fill="black" />
<path d="
M 316 567 
L 343 567 
L 343 623 
L 316 623 
L 316 567 
" fill="black" />
<path d="
" fill="black" />
<path d="
" fill="black" />
<path d="
M 421 567 
L 448 567 
L 448 623 
L 421 623 
L 421 567 
" fill="black" />
<path d="
" fill="black" />
<path d="
" fill="black" />
<path d="
M 526 567 
L 553 567 
L 553 623 
L 526 623 
L 526 567 
" fill="black" />
<path d="
" fill="black" />
<path d="
" fill="black" />
<path d="
M 631 567 
L 658 567 
L 658 623 
L 631 623 
L 631 567 
" fill="black" />
<path d="
" fill="black" />
<path d="
" fill="black" />
<path d="
M 736 567 
L 763 567 
L 763 623 
L 736 623 
L 736 567 
" fill="black" />
<path d="
" fill="black" />
<path d="
" fill="black" />
<path d="
M 841 567 
L 868 567 
L 868 623 
L 841 623 
L 841 567 
" fill="black" />
<path d="
" fill="black" />
<path d="
" fill="black" />
<path d="
M 946 567 
L 973 567 
L 973 623 
L 946 623 
L 946 567 
" fill="black" />
<path d="
" fill="black" />
<path d="
" fill="black" />
<path d="
M 1051 567 
L 1078 567 
L 1078 623 
L 1051 623 
L 1051 567 
" fill="black" />
<path d="
" fill="black" />
<path d="
" fill="black" />
<path d="
M 1156 567 
L 1183 567 
L 1183 623 
L 1156 623 
L 1156 567 
" fill="black" />
<path d="
" fill="black" />
<path d="
M 1315 582 
L 1281 595 
L 1315 608 
L 1312 611 
L 1278 598 
L 1278 623 
L 1272 623 
L 1272 599 
L 1238 611 
L 1235 608 
L 1269 595 
L 1235 582 
L 1238 579 
L 1272 591 
L 1272 567 
L 1278 567 
L 1278 591 
L 1312 579 
L 1315 582 
" fill="black" />
</svg>
