<svg xmlns="http://www.w3.org/2000/svg"
viewBox="0 0 595 635">
<path d="
M 120 554 
L 102 554 
L 136 554 
L 120 554 
M 113 554 
L 127 554 
L 170 555 
L 154 555 
L 142 554 
L 98 554 
L 85 555 
L 70 555 
L 113 554 
" fill="#339541" />
<path d="
M 170 553 
L 170 553 
Q 155 553 , 147 553 
Q 139 553 , 129 553 
Q 108 553 , 98 553 
Q 86 553 , 86 553 
Q 86 553 , 98 554 
Q 108 554 , 129 554 
Q 139 554 , 147 554 
Q 155 554 , 170 554 
L 170 554 
Q 159 554 , 149 554 
Q 139 554 , 128 554 
Q 101 554 , 86 554 
Q 70 554 , 70 553 
Q 70 553 , 86 553 
Q 101 553 , 128 553 
Q 139 553 , 149 553 
Q 160 553 , 170 553 
" fill="#545FFF" />
<path d="
M 70 552 
L 88 552 
L 88 552 
Q 88 553 , 96 553 
Q 103 553 , 120 553 
Q 137 553 , 145 553 
Q 152 553 , 152 552 
L 152 552 
L 170 552 
L 170 552 
Q 170 553 , 157 553 
Q 145 553 , 120 553 
Q 96 553 , 83 553 
Q 70 553 , 70 552 
L 70 552 
" fill="#D21010" />
<path d="
M 154 552 
L 154 552 
L 125 552 
L 125 551 
L 170 551 
L 170 552 
Q 159 552 , 148 552 
Q 139 552 , 127 552 
Q 101 552 , 85 552 
Q 70 552 , 70 551 
Q 70 551 , 85 551 
Q 101 551 , 127 551 
Q 138 551 , 147 551 
Q 157 551 , 167 551 
L 167 551 
Q 154 551 , 146 551 
Q 137 551 , 128 551 
Q 107 551 , 96 551 
Q 86 551 , 86 551 
Q 86 552 , 96 552 
Q 107 552 , 128 552 
Q 137 552 , 144 552 
Q 151 552 , 154 552 
" fill="#F5C000" />
<path d="
M 225 550 
L 207 552 
L 241 552 
L 225 550 
M 218 549 
L 232 549 
L 275 554 
L 259 554 
L 247 553 
L 203 553 
L 190 554 
L 175 554 
L 218 549 
" fill="#339541" />
<path d="
M 175 538 
L 193 538 
L 193 544 
Q 193 546 , 201 546 
Q 208 547 , 225 547 
Q 242 547 , 250 546 
Q 257 546 , 257 544 
L 257 538 
L 275 538 
L 275 544 
Q 275 546 , 262 547 
Q 250 548 , 225 548 
Q 201 548 , 188 547 
Q 175 546 , 175 544 
L 175 538 
" fill="#D21010" />
<path d="
M 275 500 
L 275 506 
Q 260 502 , 252 501 
Q 244 500 , 234 500 
Q 213 500 , 203 504 
Q 191 508 , 191 516 
Q 191 524 , 203 529 
Q 213 533 , 234 533 
Q 244 533 , 252 532 
Q 260 531 , 275 526 
L 275 533 
Q 264 535 , 254 536 
Q 244 537 , 233 537 
Q 206 537 , 191 532 
Q 175 526 , 175 516 
Q 175 506 , 191 501 
Q 206 495 , 233 495 
Q 244 495 , 254 496 
Q 265 497 , 275 500 
" fill="#545FFF" />
<path d="
M 259 471 
L 259 427 
L 230 427 
L 230 409 
L 275 409 
L 275 482 
Q 264 489 , 253 491 
Q 244 494 , 232 494 
Q 206 494 , 190 472 
Q 175 451 , 175 413 
Q 175 375 , 190 353 
Q 206 331 , 232 331 
Q 243 331 , 252 334 
Q 262 337 , 272 344 
L 272 365 
Q 259 356 , 251 353 
Q 242 350 , 233 350 
Q 212 350 , 201 366 
Q 191 381 , 191 413 
Q 191 445 , 201 460 
Q 212 476 , 233 476 
Q 242 476 , 249 474 
Q 256 473 , 259 471 
" fill="#F5C000" />
<path d="
M 380 549 
L 380 550 
Q 365 549 , 357 549 
Q 349 549 , 339 549 
Q 318 549 , 308 549 
Q 296 550 , 296 551 
Q 296 553 , 308 553 
Q 318 554 , 339 554 
Q 349 554 , 357 554 
Q 365 554 , 380 553 
L 380 554 
Q 369 555 , 359 555 
Q 349 555 , 338 555 
Q 311 555 , 296 554 
Q 280 553 , 280 551 
Q 280 550 , 296 549 
Q 311 548 , 338 548 
Q 349 548 , 359 548 
Q 370 548 , 380 549 
" fill="#545FFF" />
<path d="
M 330 541 
L 312 545 
L 346 545 
L 330 541 
M 323 540 
L 337 540 
L 380 548 
L 364 548 
L 352 546 
L 308 546 
L 295 548 
L 280 548 
L 323 540 
" fill="#339541" />
<path d="
M 364 533 
L 364 521 
L 335 521 
L 335 516 
L 380 516 
L 380 536 
Q 369 538 , 358 539 
Q 349 540 , 337 540 
Q 311 540 , 295 534 
Q 280 528 , 280 517 
Q 280 507 , 295 501 
Q 311 495 , 337 495 
Q 348 495 , 357 496 
Q 367 497 , 377 499 
L 377 504 
Q 364 502 , 356 501 
Q 347 500 , 338 500 
Q 317 500 , 306 504 
Q 296 509 , 296 517 
Q 296 526 , 306 530 
Q 317 535 , 338 535 
Q 347 535 , 354 534 
Q 361 534 , 364 533 
" fill="#F5C000" />
<path d="
M 280 431 
L 298 431 
L 298 469 
Q 298 479 , 306 484 
Q 313 488 , 330 488 
Q 347 488 , 355 484 
Q 362 479 , 362 469 
L 362 431 
L 380 431 
L 380 470 
Q 380 482 , 367 488 
Q 355 495 , 330 495 
Q 306 495 , 293 488 
Q 280 482 , 280 470 
L 280 431 
" fill="#D21010" />
<path d="
M 435 548 
L 417 551 
L 451 551 
L 435 548 
M 428 547 
L 442 547 
L 485 554 
L 469 554 
L 457 552 
L 413 552 
L 400 554 
L 385 554 
L 428 547 
" fill="#339541" />
<path d="
M 385 537 
L 403 537 
L 403 543 
Q 403 544 , 411 545 
Q 418 545 , 435 545 
Q 452 545 , 460 545 
Q 467 544 , 467 543 
L 467 537 
L 485 537 
L 485 543 
Q 485 544 , 472 545 
Q 460 546 , 435 546 
Q 411 546 , 398 545 
Q 385 544 , 385 543 
L 385 537 
" fill="#D21010" />
<path d="
M 485 516 
L 485 520 
Q 470 518 , 462 517 
Q 454 516 , 444 516 
Q 423 516 , 413 519 
Q 401 521 , 401 525 
Q 401 529 , 413 532 
Q 423 534 , 444 534 
Q 454 534 , 462 533 
Q 470 533 , 485 531 
L 485 534 
Q 474 535 , 464 536 
Q 454 536 , 443 536 
Q 416 536 , 401 533 
Q 385 530 , 385 525 
Q 385 520 , 401 517 
Q 416 514 , 443 514 
Q 454 514 , 464 515 
Q 475 515 , 485 516 
" fill="#545FFF" />
<path d="
M 469 472 
L 469 395 
L 440 395 
L 440 363 
L 485 363 
L 485 492 
Q 474 504 , 463 509 
Q 454 514 , 442 514 
Q 416 514 , 400 475 
Q 385 437 , 385 370 
Q 385 302 , 400 264 
Q 416 225 , 442 225 
Q 453 225 , 462 230 
Q 472 235 , 482 248 
L 482 285 
Q 469 269 , 461 264 
Q 452 259 , 443 259 
Q 422 259 , 411 286 
Q 401 314 , 401 370 
Q 401 426 , 411 454 
Q 422 482 , 443 482 
Q 452 482 , 459 479 
Q 466 476 , 469 472 
" fill="#F5C000" />
<path d="
M 540 554 
L 522 554 
L 556 554 
L 540 554 
M 533 554 
L 547 554 
L 590 555 
L 574 555 
L 562 554 
L 518 554 
L 505 555 
L 490 555 
L 533 554 
" fill="#339541" />
<path d="
M 590 553 
L 590 553 
Q 575 553 , 567 553 
Q 559 553 , 549 553 
Q 528 553 , 518 553 
Q 506 553 , 506 553 
Q 506 553 , 518 554 
Q 528 554 , 549 554 
Q 559 554 , 567 554 
Q 575 554 , 590 554 
L 590 554 
Q 579 554 , 569 554 
Q 559 554 , 548 554 
Q 521 554 , 506 554 
Q 490 554 , 490 553 
Q 490 553 , 506 553 
Q 521 553 , 548 553 
Q 559 553 , 569 553 
Q 580 553 , 590 553 
" fill="#545FFF" />
<path d="
M 490 552 
L 508 552 
L 508 552 
Q 508 553 , 516 553 
Q 523 553 , 540 553 
Q 557 553 , 565 553 
Q 572 553 , 572 552 
L 572 552 
L 590 552 
L 590 552 
Q 590 553 , 577 553 
Q 565 553 , 540 553 
Q 516 553 , 503 553 
Q 490 553 , 490 552 
L 490 552 
" fill="#D21010" />
<path d="
M 574 552 
L 574 552 
L 545 552 
L 545 551 
L 590 551 
L 590 552 
Q 579 552 , 568 552 
Q 559 552 , 547 552 
Q 521 552 , 505 552 
Q 490 552 , 490 551 
Q 490 551 , 505 551 
Q 521 551 , 547 551 
Q 558 551 , 567 551 
Q 577 551 , 587 551 
L 587 551 
Q 574 551 , 566 551 
Q 557 551 , 548 551 
Q 527 551 , 516 551 
Q 506 551 , 506 551 
Q 506 552 , 516 552 
Q 527 552 , 548 552 
Q 557 552 , 564 552 
Q 571 552 , 574 552 
" fill="#F5C000" />
<path d="M 65 55 L 65 555 " stroke="black" stroke-width="1.5"/>
<path d="M 55 555 L 65 555 " stroke="black" stroke-width="4"/>
<text text-anchor="end" x="50" y="555" font-size="50" alignment-baseline="middle">0</text>
<path d="M 55 305 L 65 305 " stroke="black" stroke-width="4"/>
<text text-anchor="end" x="50" y="305" font-size="50" alignment-baseline="middle">1</text>
<path d="M 55 55 L 65 55 " stroke="black" stroke-width="4"/>
<text text-anchor="end" x="50" y="55" font-size="50" alignment-baseline="middle">2</text>
<text text-anchor="middle" x="330" y="50" font-size="50" alignment-baseline="baseline"></text>
G<path d="
M 160 582 
L 126 595 
L 160 608 
L 157 611 
L 123 598 
L 123 623 
L 117 623 
L 117 599 
L 83 611 
L 80 608 
L 114 595 
L 80 582 
L 83 579 
L 117 591 
L 117 567 
L 123 567 
L 123 591 
L 157 579 
L 160 582 
" fill="black" />
<path d="
" fill="black" />
<path d="
M 211 567 
L 238 567 
L 238 623 
L 211 623 
L 211 567 
" fill="black" />
<path d="
" fill="black" />
<path d="
" fill="black" />
<path d="
M 316 567 
L 343 567 
L 343 623 
L 316 623 
L 316 567 
" fill="black" />
<path d="
" fill="black" />
<path d="
" fill="black" />
<path d="
M 421 567 
L 448 567 
L 448 623 
L 421 623 
L 421 567 
" fill="black" />
<path d="
" fill="black" />
<path d="
M 580 582 
L 546 595 
L 580 608 
L 577 611 
L 543 598 
L 543 623 
L 537 623 
L 537 599 
L 503 611 
L 500 608 
L 534 595 
L 500 582 
L 503 579 
L 537 591 
L 537 567 
L 543 567 
L 543 591 
L 577 579 
L 580 582 
" fill="black" />
</svg>
