<svg xmlns="http://www.w3.org/2000/svg"
viewBox="0 0 1435 635">
<path d="
M 120 554 
L 102 554 
L 136 554 
L 120 554 
M 113 554 
L 127 554 
L 170 555 
L 154 555 
L 142 554 
L 98 554 
L 85 555 
L 70 555 
L 113 554 
" fill="#339541" />
<path d="
M 70 553 
L 88 553 
L 88 553 
Q 88 554 , 96 554 
Q 103 554 , 120 554 
Q 137 554 , 145 554 
Q 152 554 , 152 553 
L 152 553 
L 170 553 
L 170 553 
Q 170 554 , 157 554 
Q 145 554 , 120 554 
Q 96 554 , 83 554 
Q 70 554 , 70 553 
L 70 553 
" fill="#D21010" />
<path d="
M 170 552 
L 170 552 
Q 155 552 , 147 552 
Q 139 552 , 129 552 
Q 108 552 , 98 552 
Q 86 552 , 86 552 
Q 86 553 , 98 553 
Q 108 553 , 129 553 
Q 139 553 , 147 553 
Q 155 553 , 170 553 
L 170 553 
Q 159 553 , 149 553 
Q 139 553 , 128 553 
Q 101 553 , 86 553 
Q 70 553 , 70 552 
Q 70 552 , 86 552 
Q 101 552 , 128 552 
Q 139 552 , 149 552 
Q 160 552 , 170 552 
" fill="#545FFF" />
<path d="
M 154 551 
L 154 551 
L 125 551 
L 125 550 
L 170 550 
L 170 551 
Q 159 551 , 148 551 
Q 139 551 , 127 551 
Q 101 551 , 85 551 
Q 70 551 , 70 551 
Q 70 550 , 85 550 
Q 101 550 , 127 550 
Q 138 550 , 147 550 
Q 157 550 , 167 550 
L 167 550 
Q 154 550 , 146 550 
Q 137 550 , 128 550 
Q 107 550 , 96 550 
Q 86 550 , 86 551 
Q 86 551 , 96 551 
Q 107 551 , 128 551 
Q 137 551 , 144 551 
Q 151 551 , 154 551 
" fill="#F5C000" />
<path d="
M 225 552 
L 207 553 
L 241 553 
L 225 552 
M 218 552 
L 232 552 
L 275 554 
L 259 554 
L 247 554 
L 203 554 
L 190 554 
L 175 554 
L 218 552 
" fill="#339541" />
<path d="
M 259 551 
L 259 549 
L 230 549 
L 230 548 
L 275 548 
L 275 551 
Q 264 552 , 253 552 
Q 244 552 , 232 552 
Q 206 552 , 190 551 
Q 175 550 , 175 548 
Q 175 546 , 190 545 
Q 206 544 , 232 544 
Q 243 544 , 252 544 
Q 262 544 , 272 545 
L 272 546 
Q 259 545 , 251 545 
Q 242 545 , 233 545 
Q 212 545 , 201 546 
Q 191 546 , 191 548 
Q 191 550 , 201 550 
Q 212 551 , 233 551 
Q 242 551 , 249 551 
Q 256 551 , 259 551 
" fill="#F5C000" />
<path d="
M 275 536 
L 275 537 
Q 260 536 , 252 536 
Q 244 536 , 234 536 
Q 213 536 , 203 537 
Q 191 538 , 191 539 
Q 191 541 , 203 542 
Q 213 542 , 234 542 
Q 244 542 , 252 542 
Q 260 542 , 275 541 
L 275 543 
Q 264 543 , 254 543 
Q 244 543 , 233 543 
Q 206 543 , 191 542 
Q 175 541 , 175 539 
Q 175 537 , 191 536 
Q 206 535 , 233 535 
Q 244 535 , 254 535 
Q 265 535 , 275 536 
" fill="#545FFF" />
<path d="
M 175 524 
L 193 524 
L 193 530 
Q 193 532 , 201 533 
Q 208 533 , 225 533 
Q 242 533 , 250 533 
Q 257 532 , 257 530 
L 257 524 
L 275 524 
L 275 530 
Q 275 532 , 262 534 
Q 250 535 , 225 535 
Q 201 535 , 188 534 
Q 175 532 , 175 530 
L 175 524 
" fill="#D21010" />
<path d="
M 280 553 
L 289 553 
L 289 554 
Q 289 554 , 293 554 
Q 296 554 , 305 554 
Q 314 554 , 317 554 
Q 321 554 , 321 554 
L 321 553 
L 330 553 
L 330 554 
Q 330 554 , 324 554 
Q 317 555 , 305 555 
Q 293 555 , 286 554 
Q 280 554 , 280 554 
L 280 553 
" fill="#D21010" />
<path d="
M 372 554 
L 372 554 
L 358 554 
L 358 554 
L 380 554 
L 380 555 
Q 375 555 , 369 555 
Q 364 555 , 358 555 
Q 345 555 , 338 554 
Q 330 554 , 330 554 
Q 330 553 , 338 553 
Q 345 553 , 358 553 
Q 364 553 , 369 553 
Q 374 553 , 379 553 
L 379 553 
Q 372 553 , 368 553 
Q 364 553 , 359 553 
Q 349 553 , 343 553 
Q 338 554 , 338 554 
Q 338 554 , 343 554 
Q 349 554 , 359 554 
Q 364 554 , 367 554 
Q 371 554 , 372 554 
" fill="lightgray" />
<path d="
M 322 552 
L 322 551 
L 308 551 
L 308 551 
L 330 551 
L 330 553 
Q 325 553 , 319 553 
Q 314 553 , 308 553 
Q 295 553 , 288 552 
Q 280 552 , 280 551 
Q 280 550 , 288 550 
Q 295 549 , 308 549 
Q 314 549 , 319 549 
Q 324 549 , 329 549 
L 329 550 
Q 322 550 , 318 550 
Q 314 549 , 309 549 
Q 299 549 , 293 550 
Q 288 550 , 288 551 
Q 288 552 , 293 552 
Q 299 552 , 309 552 
Q 314 552 , 317 552 
Q 321 552 , 322 552 
" fill="#F5C000" />
<path d="
M 330 549 
L 339 549 
L 339 551 
Q 339 552 , 343 552 
Q 346 552 , 355 552 
Q 364 552 , 367 552 
Q 371 552 , 371 551 
L 371 549 
L 380 549 
L 380 551 
Q 380 552 , 374 552 
Q 367 553 , 355 553 
Q 343 553 , 336 552 
Q 330 552 , 330 551 
L 330 549 
" fill="lightgray" />
<path d="
M 280 540 
L 289 540 
L 289 545 
Q 289 546 , 293 547 
Q 296 547 , 305 547 
Q 314 547 , 317 547 
Q 321 546 , 321 545 
L 321 540 
L 330 540 
L 330 545 
Q 330 546 , 324 547 
Q 317 548 , 305 548 
Q 293 548 , 286 547 
Q 280 546 , 280 545 
L 280 540 
" fill="#D21010" />
<path d="
M 355 541 
L 346 545 
L 363 545 
L 355 541 
M 351 540 
L 359 540 
L 380 548 
L 372 548 
L 366 546 
L 344 546 
L 337 548 
L 330 548 
L 351 540 
" fill="lightgray" />
<path d="
M 305 525 
L 296 532 
L 313 532 
L 305 525 
M 301 522 
L 309 522 
L 330 539 
L 322 539 
L 316 534 
L 294 534 
L 287 539 
L 280 539 
L 301 522 
" fill="#339541" />
<path d="
M 330 522 
L 339 522 
L 339 532 
Q 339 535 , 343 536 
Q 346 537 , 355 537 
Q 364 537 , 367 536 
Q 371 535 , 371 532 
L 371 522 
L 380 522 
L 380 533 
Q 380 536 , 374 538 
Q 367 539 , 355 539 
Q 343 539 , 336 538 
Q 330 536 , 330 533 
L 330 522 
" fill="lightgray" />
<path d="
M 322 516 
L 322 505 
L 308 505 
L 308 501 
L 330 501 
L 330 519 
Q 325 520 , 319 521 
Q 314 522 , 308 522 
Q 295 522 , 288 516 
Q 280 511 , 280 502 
Q 280 493 , 288 487 
Q 295 482 , 308 482 
Q 314 482 , 319 483 
Q 324 483 , 329 485 
L 329 490 
Q 322 488 , 318 487 
Q 314 487 , 309 487 
Q 299 487 , 293 490 
Q 288 494 , 288 502 
Q 288 510 , 293 513 
Q 299 517 , 309 517 
Q 314 517 , 317 517 
Q 321 516 , 322 516 
" fill="#F5C000" />
<path d="
M 380 486 
L 380 492 
Q 373 488 , 369 487 
Q 364 486 , 359 486 
Q 349 486 , 344 490 
Q 338 494 , 338 502 
Q 338 510 , 344 513 
Q 349 517 , 359 517 
Q 364 517 , 369 516 
Q 373 515 , 380 511 
L 380 518 
Q 375 520 , 369 521 
Q 365 522 , 359 522 
Q 345 522 , 338 516 
Q 330 511 , 330 502 
Q 330 493 , 338 487 
Q 345 482 , 359 482 
Q 365 482 , 370 483 
Q 375 484 , 380 486 
" fill="lightgray" />
<path d="
M 330 441 
L 330 448 
Q 323 443 , 319 442 
Q 314 441 , 309 441 
Q 299 441 , 294 445 
Q 288 450 , 288 458 
Q 288 467 , 294 472 
Q 299 476 , 309 476 
Q 314 476 , 319 475 
Q 323 474 , 330 470 
L 330 477 
Q 325 479 , 319 480 
Q 315 481 , 309 481 
Q 295 481 , 288 475 
Q 280 469 , 280 459 
Q 280 448 , 288 442 
Q 295 436 , 309 436 
Q 315 436 , 320 437 
Q 325 438 , 330 441 
" fill="#545FFF" />
<path d="
M 372 475 
L 372 463 
L 358 463 
L 358 458 
L 380 458 
L 380 478 
Q 375 480 , 369 480 
Q 364 481 , 358 481 
Q 345 481 , 338 475 
Q 330 469 , 330 459 
Q 330 448 , 338 442 
Q 345 436 , 358 436 
Q 364 436 , 369 437 
Q 374 438 , 379 440 
L 379 445 
Q 372 443 , 368 442 
Q 364 441 , 359 441 
Q 349 441 , 343 446 
Q 338 450 , 338 459 
Q 338 468 , 343 472 
Q 349 476 , 359 476 
Q 364 476 , 367 476 
Q 371 475 , 372 475 
" fill="lightgray" />
<path d="
M 427 554 
L 427 553 
L 413 553 
L 413 553 
L 435 553 
L 435 554 
Q 430 554 , 424 554 
Q 419 554 , 413 554 
Q 400 554 , 393 554 
Q 385 554 , 385 553 
Q 385 553 , 393 552 
Q 400 552 , 413 552 
Q 419 552 , 424 552 
Q 429 552 , 434 552 
L 434 553 
Q 427 552 , 423 552 
Q 419 552 , 414 552 
Q 404 552 , 398 553 
Q 393 553 , 393 553 
Q 393 554 , 398 554 
Q 404 554 , 414 554 
Q 419 554 , 422 554 
Q 426 554 , 427 554 
" fill="#F5C000" />
<path d="
M 435 552 
L 444 552 
L 444 553 
Q 444 554 , 448 554 
Q 451 554 , 460 554 
Q 469 554 , 472 554 
Q 476 554 , 476 553 
L 476 552 
L 485 552 
L 485 553 
Q 485 554 , 479 554 
Q 472 554 , 460 554 
Q 448 554 , 441 554 
Q 435 554 , 435 553 
L 435 552 
" fill="lightgray" />
<path d="
M 385 544 
L 394 544 
L 394 548 
Q 394 549 , 398 550 
Q 401 550 , 410 550 
Q 419 550 , 422 550 
Q 426 549 , 426 548 
L 426 544 
L 435 544 
L 435 548 
Q 435 550 , 429 551 
Q 422 551 , 410 551 
Q 398 551 , 391 551 
Q 385 550 , 385 548 
L 385 544 
" fill="#D21010" />
<path d="
M 460 545 
L 451 548 
L 468 548 
L 460 545 
M 456 544 
L 464 544 
L 485 551 
L 477 551 
L 471 549 
L 449 549 
L 442 551 
L 435 551 
L 456 544 
" fill="lightgray" />
<path d="
M 435 536 
L 435 537 
Q 428 536 , 424 536 
Q 419 536 , 414 536 
Q 404 536 , 399 537 
Q 393 538 , 393 539 
Q 393 541 , 399 542 
Q 404 542 , 414 542 
Q 419 542 , 424 542 
Q 428 542 , 435 541 
L 435 542 
Q 430 543 , 424 543 
Q 420 543 , 414 543 
Q 400 543 , 393 542 
Q 385 541 , 385 539 
Q 385 537 , 393 536 
Q 400 535 , 414 535 
Q 420 535 , 425 535 
Q 430 535 , 435 536 
" fill="#545FFF" />
<path d="
M 477 542 
L 477 540 
L 463 540 
L 463 539 
L 485 539 
L 485 543 
Q 480 543 , 474 543 
Q 469 543 , 463 543 
Q 450 543 , 443 542 
Q 435 541 , 435 539 
Q 435 537 , 443 536 
Q 450 535 , 463 535 
Q 469 535 , 474 535 
Q 479 535 , 484 536 
L 484 537 
Q 477 536 , 473 536 
Q 469 536 , 464 536 
Q 454 536 , 448 537 
Q 443 538 , 443 539 
Q 443 541 , 448 542 
Q 454 542 , 464 542 
Q 469 542 , 472 542 
Q 476 542 , 477 542 
" fill="lightgray" />
<path d="
M 410 528 
L 401 531 
L 418 531 
L 410 528 
M 406 526 
L 414 526 
L 435 534 
L 427 534 
L 421 532 
L 399 532 
L 392 534 
L 385 534 
L 406 526 
" fill="#339541" />
<path d="
M 435 526 
L 444 526 
L 444 531 
Q 444 532 , 448 533 
Q 451 533 , 460 533 
Q 469 533 , 472 533 
Q 476 532 , 476 531 
L 476 526 
L 485 526 
L 485 531 
Q 485 533 , 479 533 
Q 472 534 , 460 534 
Q 448 534 , 441 533 
Q 435 533 , 435 531 
L 435 526 
" fill="lightgray" />
<path d="
M 385 501 
L 394 501 
L 394 515 
Q 394 519 , 398 521 
Q 401 523 , 410 523 
Q 419 523 , 422 521 
Q 426 519 , 426 515 
L 426 501 
L 435 501 
L 435 516 
Q 435 520 , 429 523 
Q 422 525 , 410 525 
Q 398 525 , 391 523 
Q 385 520 , 385 516 
L 385 501 
" fill="#D21010" />
<path d="
M 477 522 
L 477 515 
L 463 515 
L 463 513 
L 485 513 
L 485 524 
Q 480 525 , 474 525 
Q 469 525 , 463 525 
Q 450 525 , 443 522 
Q 435 519 , 435 513 
Q 435 508 , 443 504 
Q 450 501 , 463 501 
Q 469 501 , 474 501 
Q 479 502 , 484 503 
L 484 506 
Q 477 505 , 473 504 
Q 469 504 , 464 504 
Q 454 504 , 448 506 
Q 443 509 , 443 513 
Q 443 518 , 448 520 
Q 454 523 , 464 523 
Q 469 523 , 472 522 
Q 476 522 , 477 522 
" fill="lightgray" />
<path d="
M 427 496 
L 427 486 
L 413 486 
L 413 482 
L 435 482 
L 435 498 
Q 430 499 , 424 500 
Q 419 500 , 413 500 
Q 400 500 , 393 496 
Q 385 491 , 385 483 
Q 385 475 , 393 471 
Q 400 466 , 413 466 
Q 419 466 , 424 467 
Q 429 467 , 434 469 
L 434 473 
Q 427 471 , 423 471 
Q 419 470 , 414 470 
Q 404 470 , 398 473 
Q 393 477 , 393 483 
Q 393 490 , 398 493 
Q 404 497 , 414 497 
Q 419 497 , 422 496 
Q 426 496 , 427 496 
" fill="#F5C000" />
<path d="
M 485 470 
L 485 475 
Q 478 472 , 474 471 
Q 469 470 , 464 470 
Q 454 470 , 449 473 
Q 443 477 , 443 483 
Q 443 490 , 449 493 
Q 454 497 , 464 497 
Q 469 497 , 474 496 
Q 478 495 , 485 492 
L 485 497 
Q 480 499 , 474 500 
Q 470 500 , 464 500 
Q 450 500 , 443 496 
Q 435 491 , 435 483 
Q 435 475 , 443 471 
Q 450 466 , 464 466 
Q 470 466 , 475 467 
Q 480 468 , 485 470 
" fill="lightgray" />
<path d="
M 540 552 
L 522 553 
L 556 553 
L 540 552 
M 533 551 
L 547 551 
L 590 555 
L 574 555 
L 562 554 
L 518 554 
L 505 555 
L 490 555 
L 533 551 
" fill="#339541" />
<path d="
M 490 534 
L 508 534 
L 508 544 
Q 508 547 , 516 548 
Q 523 549 , 540 549 
Q 557 549 , 565 548 
Q 572 547 , 572 544 
L 572 534 
L 590 534 
L 590 544 
Q 590 547 , 577 549 
Q 565 551 , 540 551 
Q 516 551 , 503 549 
Q 490 547 , 490 544 
L 490 534 
" fill="#D21010" />
<path d="
M 590 515 
L 590 518 
Q 575 516 , 567 516 
Q 559 515 , 549 515 
Q 528 515 , 518 517 
Q 506 519 , 506 523 
Q 506 527 , 518 529 
Q 528 531 , 549 531 
Q 559 531 , 567 531 
Q 575 530 , 590 528 
L 590 532 
Q 579 533 , 569 533 
Q 559 534 , 548 534 
Q 521 534 , 506 531 
Q 490 528 , 490 523 
Q 490 519 , 506 516 
Q 521 513 , 548 513 
Q 559 513 , 569 514 
Q 580 514 , 590 515 
" fill="#545FFF" />
<path d="
M 574 499 
L 574 474 
L 545 474 
L 545 464 
L 590 464 
L 590 505 
Q 579 509 , 568 511 
Q 559 512 , 547 512 
Q 521 512 , 505 500 
Q 490 488 , 490 466 
Q 490 445 , 505 432 
Q 521 420 , 547 420 
Q 558 420 , 567 422 
Q 577 423 , 587 427 
L 587 439 
Q 574 434 , 566 433 
Q 557 431 , 548 431 
Q 527 431 , 516 440 
Q 506 448 , 506 466 
Q 506 484 , 516 493 
Q 527 502 , 548 502 
Q 557 502 , 564 501 
Q 571 500 , 574 499 
" fill="#F5C000" />
<path d="
M 645 553 
L 627 554 
L 661 554 
L 645 553 
M 638 553 
L 652 553 
L 695 554 
L 679 554 
L 667 554 
L 623 554 
L 610 554 
L 595 554 
L 638 553 
" fill="#339541" />
<path d="
M 695 550 
L 695 551 
Q 680 550 , 672 550 
Q 664 550 , 654 550 
Q 633 550 , 623 550 
Q 611 551 , 611 551 
Q 611 552 , 623 552 
Q 633 552 , 654 552 
Q 664 552 , 672 552 
Q 680 552 , 695 552 
L 695 552 
Q 684 552 , 674 552 
Q 664 552 , 653 552 
Q 626 552 , 611 552 
Q 595 552 , 595 551 
Q 595 551 , 611 550 
Q 626 550 , 653 550 
Q 664 550 , 674 550 
Q 685 550 , 695 550 
" fill="#545FFF" />
<path d="
M 595 547 
L 613 547 
L 613 549 
Q 613 549 , 621 549 
Q 628 549 , 645 549 
Q 662 549 , 670 549 
Q 677 549 , 677 549 
L 677 547 
L 695 547 
L 695 549 
Q 695 549 , 682 549 
Q 670 550 , 645 550 
Q 621 550 , 608 549 
Q 595 549 , 595 549 
L 595 547 
" fill="#D21010" />
<path d="
M 679 546 
L 679 545 
L 650 545 
L 650 544 
L 695 544 
L 695 546 
Q 684 546 , 673 546 
Q 664 546 , 652 546 
Q 626 546 , 610 546 
Q 595 545 , 595 545 
Q 595 544 , 610 543 
Q 626 543 , 652 543 
Q 663 543 , 672 543 
Q 682 543 , 692 543 
L 692 544 
Q 679 543 , 671 543 
Q 662 543 , 653 543 
Q 632 543 , 621 544 
Q 611 544 , 611 545 
Q 611 545 , 621 545 
Q 632 546 , 653 546 
Q 662 546 , 669 546 
Q 676 546 , 679 546 
" fill="#F5C000" />
<path d="
M 750 554 
L 732 554 
L 766 554 
L 750 554 
M 743 554 
L 757 554 
L 800 555 
L 784 555 
L 772 554 
L 728 554 
L 715 555 
L 700 555 
L 743 554 
" fill="#339541" />
<path d="
M 700 553 
L 718 553 
L 718 553 
Q 718 554 , 726 554 
Q 733 554 , 750 554 
Q 767 554 , 775 554 
Q 782 554 , 782 553 
L 782 553 
L 800 553 
L 800 553 
Q 800 554 , 787 554 
Q 775 554 , 750 554 
Q 726 554 , 713 554 
Q 700 554 , 700 553 
L 700 553 
" fill="#D21010" />
<path d="
M 800 552 
L 800 552 
Q 785 552 , 777 552 
Q 769 552 , 759 552 
Q 738 552 , 728 552 
Q 716 552 , 716 552 
Q 716 553 , 728 553 
Q 738 553 , 759 553 
Q 769 553 , 777 553 
Q 785 553 , 800 553 
L 800 553 
Q 789 553 , 779 553 
Q 769 553 , 758 553 
Q 731 553 , 716 553 
Q 700 553 , 700 552 
Q 700 552 , 716 552 
Q 731 552 , 758 552 
Q 769 552 , 779 552 
Q 790 552 , 800 552 
" fill="#545FFF" />
<path d="
M 784 551 
L 784 551 
L 755 551 
L 755 550 
L 800 550 
L 800 551 
Q 789 551 , 778 551 
Q 769 551 , 757 551 
Q 731 551 , 715 551 
Q 700 551 , 700 551 
Q 700 550 , 715 550 
Q 731 550 , 757 550 
Q 768 550 , 777 550 
Q 787 550 , 797 550 
L 797 550 
Q 784 550 , 776 550 
Q 767 550 , 758 550 
Q 737 550 , 726 550 
Q 716 550 , 716 551 
Q 716 551 , 726 551 
Q 737 551 , 758 551 
Q 767 551 , 774 551 
Q 781 551 , 784 551 
" fill="#F5C000" />
<path d="
M 855 552 
L 837 553 
L 871 553 
L 855 552 
M 848 551 
L 862 551 
L 905 555 
L 889 555 
L 877 554 
L 833 554 
L 820 555 
L 805 555 
L 848 551 
" fill="#339541" />
<path d="
M 905 546 
L 905 546 
Q 890 546 , 882 546 
Q 874 546 , 864 546 
Q 843 546 , 833 546 
Q 821 547 , 821 548 
Q 821 549 , 833 549 
Q 843 550 , 864 550 
Q 874 550 , 882 550 
Q 890 550 , 905 549 
L 905 550 
Q 894 550 , 884 550 
Q 874 551 , 863 551 
Q 836 551 , 821 550 
Q 805 549 , 805 548 
Q 805 547 , 821 546 
Q 836 545 , 863 545 
Q 874 545 , 884 545 
Q 895 545 , 905 546 
" fill="#545FFF" />
<path d="
M 805 535 
L 823 535 
L 823 541 
Q 823 542 , 831 543 
Q 838 544 , 855 544 
Q 872 544 , 880 543 
Q 887 542 , 887 541 
L 887 535 
L 905 535 
L 905 541 
Q 905 543 , 892 544 
Q 880 545 , 855 545 
Q 831 545 , 818 544 
Q 805 543 , 805 541 
L 805 535 
" fill="#D21010" />
<path d="
M 889 533 
L 889 529 
L 860 529 
L 860 528 
L 905 528 
L 905 534 
Q 894 534 , 883 535 
Q 874 535 , 862 535 
Q 836 535 , 820 533 
Q 805 531 , 805 528 
Q 805 525 , 820 523 
Q 836 521 , 862 521 
Q 873 521 , 882 521 
Q 892 521 , 902 522 
L 902 524 
Q 889 523 , 881 523 
Q 872 523 , 863 523 
Q 842 523 , 831 524 
Q 821 525 , 821 528 
Q 821 531 , 831 532 
Q 842 533 , 863 533 
Q 872 533 , 879 533 
Q 886 533 , 889 533 
" fill="#F5C000" />
<path d="
M 960 551 
L 942 552 
L 976 552 
L 960 551 
M 953 550 
L 967 550 
L 1010 554 
L 994 554 
L 982 553 
L 938 553 
L 925 554 
L 910 554 
L 953 550 
" fill="#339541" />
<path d="
M 1010 534 
L 1010 537 
Q 995 535 , 987 534 
Q 979 534 , 969 534 
Q 948 534 , 938 536 
Q 926 538 , 926 541 
Q 926 544 , 938 546 
Q 948 548 , 969 548 
Q 979 548 , 987 548 
Q 995 547 , 1010 545 
L 1010 548 
Q 999 549 , 989 550 
Q 979 550 , 968 550 
Q 941 550 , 926 547 
Q 910 545 , 910 541 
Q 910 537 , 926 534 
Q 941 532 , 968 532 
Q 979 532 , 989 532 
Q 1000 533 , 1010 534 
" fill="#545FFF" />
<path d="
M 910 513 
L 928 513 
L 928 524 
Q 928 527 , 936 529 
Q 943 530 , 960 530 
Q 977 530 , 985 529 
Q 992 527 , 992 524 
L 992 513 
L 1010 513 
L 1010 524 
Q 1010 528 , 997 530 
Q 985 532 , 960 532 
Q 936 532 , 923 530 
Q 910 528 , 910 524 
L 910 513 
" fill="#D21010" />
<path d="
M 994 499 
L 994 473 
L 965 473 
L 965 463 
L 1010 463 
L 1010 505 
Q 999 509 , 988 511 
Q 979 512 , 967 512 
Q 941 512 , 925 500 
Q 910 487 , 910 465 
Q 910 442 , 925 430 
Q 941 417 , 967 417 
Q 978 417 , 987 419 
Q 997 420 , 1007 425 
L 1007 437 
Q 994 432 , 986 430 
Q 977 428 , 968 428 
Q 947 428 , 936 437 
Q 926 446 , 926 465 
Q 926 484 , 936 493 
Q 947 502 , 968 502 
Q 977 502 , 984 501 
Q 991 500 , 994 499 
" fill="#F5C000" />
<path d="
M 1015 551 
L 1033 551 
L 1033 553 
Q 1033 554 , 1041 554 
Q 1048 554 , 1065 554 
Q 1082 554 , 1090 554 
Q 1097 554 , 1097 553 
L 1097 551 
L 1115 551 
L 1115 553 
Q 1115 554 , 1102 554 
Q 1090 555 , 1065 555 
Q 1041 555 , 1028 554 
Q 1015 554 , 1015 553 
L 1015 551 
" fill="#D21010" />
<path d="
M 1065 544 
L 1047 547 
L 1081 547 
L 1065 544 
M 1058 542 
L 1072 542 
L 1115 550 
L 1099 550 
L 1087 548 
L 1043 548 
L 1030 550 
L 1015 550 
L 1058 542 
" fill="#339541" />
<path d="
M 1115 518 
L 1115 522 
Q 1100 519 , 1092 519 
Q 1084 518 , 1074 518 
Q 1053 518 , 1043 521 
Q 1031 523 , 1031 528 
Q 1031 534 , 1043 536 
Q 1053 539 , 1074 539 
Q 1084 539 , 1092 538 
Q 1100 538 , 1115 535 
L 1115 539 
Q 1104 541 , 1094 541 
Q 1084 542 , 1073 542 
Q 1046 542 , 1031 538 
Q 1015 535 , 1015 528 
Q 1015 522 , 1031 519 
Q 1046 515 , 1073 515 
Q 1084 515 , 1094 516 
Q 1105 516 , 1115 518 
" fill="#545FFF" />
<path d="
M 1099 510 
L 1099 503 
L 1070 503 
L 1070 500 
L 1115 500 
L 1115 512 
Q 1104 513 , 1093 514 
Q 1084 514 , 1072 514 
Q 1046 514 , 1030 511 
Q 1015 507 , 1015 501 
Q 1015 494 , 1030 491 
Q 1046 487 , 1072 487 
Q 1083 487 , 1092 487 
Q 1102 488 , 1112 489 
L 1112 493 
Q 1099 491 , 1091 491 
Q 1082 490 , 1073 490 
Q 1052 490 , 1041 493 
Q 1031 495 , 1031 501 
Q 1031 506 , 1041 509 
Q 1052 511 , 1073 511 
Q 1082 511 , 1089 511 
Q 1096 511 , 1099 510 
" fill="#F5C000" />
<path d="
M 1162 554 
L 1162 553 
L 1148 553 
L 1148 553 
L 1170 553 
L 1170 554 
Q 1165 554 , 1159 554 
Q 1154 554 , 1148 554 
Q 1135 554 , 1128 554 
Q 1120 554 , 1120 553 
Q 1120 553 , 1128 552 
Q 1135 552 , 1148 552 
Q 1154 552 , 1159 552 
Q 1164 552 , 1169 552 
L 1169 553 
Q 1162 552 , 1158 552 
Q 1154 552 , 1149 552 
Q 1139 552 , 1133 553 
Q 1128 553 , 1128 553 
Q 1128 554 , 1133 554 
Q 1139 554 , 1149 554 
Q 1154 554 , 1157 554 
Q 1161 554 , 1162 554 
" fill="lightgray" />
<path d="
M 1170 552 
L 1179 552 
L 1179 553 
Q 1179 554 , 1183 554 
Q 1186 554 , 1195 554 
Q 1204 554 , 1207 554 
Q 1211 554 , 1211 553 
L 1211 552 
L 1220 552 
L 1220 553 
Q 1220 554 , 1214 554 
Q 1207 554 , 1195 554 
Q 1183 554 , 1176 554 
Q 1170 554 , 1170 553 
L 1170 552 
" fill="#D21010" />
<path d="
M 1120 544 
L 1129 544 
L 1129 548 
Q 1129 549 , 1133 550 
Q 1136 550 , 1145 550 
Q 1154 550 , 1157 550 
Q 1161 549 , 1161 548 
L 1161 544 
L 1170 544 
L 1170 548 
Q 1170 550 , 1164 551 
Q 1157 551 , 1145 551 
Q 1133 551 , 1126 551 
Q 1120 550 , 1120 548 
L 1120 544 
" fill="lightgray" />
<path d="
M 1195 545 
L 1186 548 
L 1203 548 
L 1195 545 
M 1191 544 
L 1199 544 
L 1220 551 
L 1212 551 
L 1206 549 
L 1184 549 
L 1177 551 
L 1170 551 
L 1191 544 
" fill="#339541" />
<path d="
M 1170 536 
L 1170 537 
Q 1163 536 , 1159 536 
Q 1154 536 , 1149 536 
Q 1139 536 , 1134 537 
Q 1128 538 , 1128 539 
Q 1128 541 , 1134 542 
Q 1139 542 , 1149 542 
Q 1154 542 , 1159 542 
Q 1163 542 , 1170 541 
L 1170 542 
Q 1165 543 , 1159 543 
Q 1155 543 , 1149 543 
Q 1135 543 , 1128 542 
Q 1120 541 , 1120 539 
Q 1120 537 , 1128 536 
Q 1135 535 , 1149 535 
Q 1155 535 , 1160 535 
Q 1165 535 , 1170 536 
" fill="lightgray" />
<path d="
M 1212 542 
L 1212 540 
L 1198 540 
L 1198 539 
L 1220 539 
L 1220 543 
Q 1215 543 , 1209 543 
Q 1204 543 , 1198 543 
Q 1185 543 , 1178 542 
Q 1170 541 , 1170 539 
Q 1170 537 , 1178 536 
Q 1185 535 , 1198 535 
Q 1204 535 , 1209 535 
Q 1214 535 , 1219 536 
L 1219 537 
Q 1212 536 , 1208 536 
Q 1204 536 , 1199 536 
Q 1189 536 , 1183 537 
Q 1178 538 , 1178 539 
Q 1178 541 , 1183 542 
Q 1189 542 , 1199 542 
Q 1204 542 , 1207 542 
Q 1211 542 , 1212 542 
" fill="#F5C000" />
<path d="
M 1145 528 
L 1136 531 
L 1153 531 
L 1145 528 
M 1141 526 
L 1149 526 
L 1170 534 
L 1162 534 
L 1156 532 
L 1134 532 
L 1127 534 
L 1120 534 
L 1141 526 
" fill="lightgray" />
<path d="
M 1170 526 
L 1179 526 
L 1179 531 
Q 1179 532 , 1183 533 
Q 1186 533 , 1195 533 
Q 1204 533 , 1207 533 
Q 1211 532 , 1211 531 
L 1211 526 
L 1220 526 
L 1220 531 
Q 1220 533 , 1214 533 
Q 1207 534 , 1195 534 
Q 1183 534 , 1176 533 
Q 1170 533 , 1170 531 
L 1170 526 
" fill="#D21010" />
<path d="
M 1120 501 
L 1129 501 
L 1129 515 
Q 1129 519 , 1133 521 
Q 1136 523 , 1145 523 
Q 1154 523 , 1157 521 
Q 1161 519 , 1161 515 
L 1161 501 
L 1170 501 
L 1170 516 
Q 1170 520 , 1164 523 
Q 1157 525 , 1145 525 
Q 1133 525 , 1126 523 
Q 1120 520 , 1120 516 
L 1120 501 
" fill="lightgray" />
<path d="
M 1212 522 
L 1212 515 
L 1198 515 
L 1198 513 
L 1220 513 
L 1220 524 
Q 1215 525 , 1209 525 
Q 1204 525 , 1198 525 
Q 1185 525 , 1178 522 
Q 1170 519 , 1170 513 
Q 1170 508 , 1178 504 
Q 1185 501 , 1198 501 
Q 1204 501 , 1209 501 
Q 1214 502 , 1219 503 
L 1219 506 
Q 1212 505 , 1208 504 
Q 1204 504 , 1199 504 
Q 1189 504 , 1183 506 
Q 1178 509 , 1178 513 
Q 1178 518 , 1183 520 
Q 1189 523 , 1199 523 
Q 1204 523 , 1207 522 
Q 1211 522 , 1212 522 
" fill="#F5C000" />
<path d="
M 1162 496 
L 1162 486 
L 1148 486 
L 1148 482 
L 1170 482 
L 1170 498 
Q 1165 499 , 1159 500 
Q 1154 500 , 1148 500 
Q 1135 500 , 1128 496 
Q 1120 491 , 1120 483 
Q 1120 475 , 1128 471 
Q 1135 466 , 1148 466 
Q 1154 466 , 1159 467 
Q 1164 467 , 1169 469 
L 1169 473 
Q 1162 471 , 1158 471 
Q 1154 470 , 1149 470 
Q 1139 470 , 1133 473 
Q 1128 477 , 1128 483 
Q 1128 490 , 1133 493 
Q 1139 497 , 1149 497 
Q 1154 497 , 1157 496 
Q 1161 496 , 1162 496 
" fill="lightgray" />
<path d="
M 1220 470 
L 1220 475 
Q 1213 472 , 1209 471 
Q 1204 470 , 1199 470 
Q 1189 470 , 1184 473 
Q 1178 477 , 1178 483 
Q 1178 490 , 1184 493 
Q 1189 497 , 1199 497 
Q 1204 497 , 1209 496 
Q 1213 495 , 1220 492 
L 1220 497 
Q 1215 499 , 1209 500 
Q 1205 500 , 1199 500 
Q 1185 500 , 1178 496 
Q 1170 491 , 1170 483 
Q 1170 475 , 1178 471 
Q 1185 466 , 1199 466 
Q 1205 466 , 1210 467 
Q 1215 468 , 1220 470 
" fill="#545FFF" />
<path d="
M 1225 553 
L 1234 553 
L 1234 554 
Q 1234 554 , 1238 554 
Q 1241 554 , 1250 554 
Q 1259 554 , 1262 554 
Q 1266 554 , 1266 554 
L 1266 553 
L 1275 553 
L 1275 554 
Q 1275 554 , 1269 554 
Q 1262 555 , 1250 555 
Q 1238 555 , 1231 554 
Q 1225 554 , 1225 554 
L 1225 553 
" fill="lightgray" />
<path d="
M 1317 554 
L 1317 554 
L 1303 554 
L 1303 554 
L 1325 554 
L 1325 555 
Q 1320 555 , 1314 555 
Q 1309 555 , 1303 555 
Q 1290 555 , 1283 554 
Q 1275 554 , 1275 554 
Q 1275 553 , 1283 553 
Q 1290 553 , 1303 553 
Q 1309 553 , 1314 553 
Q 1319 553 , 1324 553 
L 1324 553 
Q 1317 553 , 1313 553 
Q 1309 553 , 1304 553 
Q 1294 553 , 1288 553 
Q 1283 554 , 1283 554 
Q 1283 554 , 1288 554 
Q 1294 554 , 1304 554 
Q 1309 554 , 1312 554 
Q 1316 554 , 1317 554 
" fill="#F5C000" />
<path d="
M 1267 552 
L 1267 551 
L 1253 551 
L 1253 551 
L 1275 551 
L 1275 553 
Q 1270 553 , 1264 553 
Q 1259 553 , 1253 553 
Q 1240 553 , 1233 552 
Q 1225 552 , 1225 551 
Q 1225 550 , 1233 550 
Q 1240 549 , 1253 549 
Q 1259 549 , 1264 549 
Q 1269 549 , 1274 549 
L 1274 550 
Q 1267 550 , 1263 550 
Q 1259 549 , 1254 549 
Q 1244 549 , 1238 550 
Q 1233 550 , 1233 551 
Q 1233 552 , 1238 552 
Q 1244 552 , 1254 552 
Q 1259 552 , 1262 552 
Q 1266 552 , 1267 552 
" fill="lightgray" />
<path d="
M 1275 549 
L 1284 549 
L 1284 551 
Q 1284 552 , 1288 552 
Q 1291 552 , 1300 552 
Q 1309 552 , 1312 552 
Q 1316 552 , 1316 551 
L 1316 549 
L 1325 549 
L 1325 551 
Q 1325 552 , 1319 552 
Q 1312 553 , 1300 553 
Q 1288 553 , 1281 552 
Q 1275 552 , 1275 551 
L 1275 549 
" fill="#D21010" />
<path d="
M 1225 540 
L 1234 540 
L 1234 545 
Q 1234 546 , 1238 547 
Q 1241 547 , 1250 547 
Q 1259 547 , 1262 547 
Q 1266 546 , 1266 545 
L 1266 540 
L 1275 540 
L 1275 545 
Q 1275 546 , 1269 547 
Q 1262 548 , 1250 548 
Q 1238 548 , 1231 547 
Q 1225 546 , 1225 545 
L 1225 540 
" fill="lightgray" />
<path d="
M 1300 541 
L 1291 545 
L 1308 545 
L 1300 541 
M 1296 540 
L 1304 540 
L 1325 548 
L 1317 548 
L 1311 546 
L 1289 546 
L 1282 548 
L 1275 548 
L 1296 540 
" fill="#339541" />
<path d="
M 1250 525 
L 1241 532 
L 1258 532 
L 1250 525 
M 1246 522 
L 1254 522 
L 1275 539 
L 1267 539 
L 1261 534 
L 1239 534 
L 1232 539 
L 1225 539 
L 1246 522 
" fill="lightgray" />
<path d="
M 1275 522 
L 1284 522 
L 1284 532 
Q 1284 535 , 1288 536 
Q 1291 537 , 1300 537 
Q 1309 537 , 1312 536 
Q 1316 535 , 1316 532 
L 1316 522 
L 1325 522 
L 1325 533 
Q 1325 536 , 1319 538 
Q 1312 539 , 1300 539 
Q 1288 539 , 1281 538 
Q 1275 536 , 1275 533 
L 1275 522 
" fill="#D21010" />
<path d="
M 1267 516 
L 1267 505 
L 1253 505 
L 1253 501 
L 1275 501 
L 1275 519 
Q 1270 520 , 1264 521 
Q 1259 522 , 1253 522 
Q 1240 522 , 1233 516 
Q 1225 511 , 1225 502 
Q 1225 493 , 1233 487 
Q 1240 482 , 1253 482 
Q 1259 482 , 1264 483 
Q 1269 483 , 1274 485 
L 1274 490 
Q 1267 488 , 1263 487 
Q 1259 487 , 1254 487 
Q 1244 487 , 1238 490 
Q 1233 494 , 1233 502 
Q 1233 510 , 1238 513 
Q 1244 517 , 1254 517 
Q 1259 517 , 1262 517 
Q 1266 516 , 1267 516 
" fill="lightgray" />
<path d="
M 1325 486 
L 1325 492 
Q 1318 488 , 1314 487 
Q 1309 486 , 1304 486 
Q 1294 486 , 1289 490 
Q 1283 494 , 1283 502 
Q 1283 510 , 1289 513 
Q 1294 517 , 1304 517 
Q 1309 517 , 1314 516 
Q 1318 515 , 1325 511 
L 1325 518 
Q 1320 520 , 1314 521 
Q 1310 522 , 1304 522 
Q 1290 522 , 1283 516 
Q 1275 511 , 1275 502 
Q 1275 493 , 1283 487 
Q 1290 482 , 1304 482 
Q 1310 482 , 1315 483 
Q 1320 484 , 1325 486 
" fill="#545FFF" />
<path d="
M 1275 441 
L 1275 448 
Q 1268 443 , 1264 442 
Q 1259 441 , 1254 441 
Q 1244 441 , 1239 445 
Q 1233 450 , 1233 458 
Q 1233 467 , 1239 472 
Q 1244 476 , 1254 476 
Q 1259 476 , 1264 475 
Q 1268 474 , 1275 470 
L 1275 477 
Q 1270 479 , 1264 480 
Q 1260 481 , 1254 481 
Q 1240 481 , 1233 475 
Q 1225 469 , 1225 459 
Q 1225 448 , 1233 442 
Q 1240 436 , 1254 436 
Q 1260 436 , 1265 437 
Q 1270 438 , 1275 441 
" fill="lightgray" />
<path d="
M 1317 475 
L 1317 463 
L 1303 463 
L 1303 458 
L 1325 458 
L 1325 478 
Q 1320 480 , 1314 480 
Q 1309 481 , 1303 481 
Q 1290 481 , 1283 475 
Q 1275 469 , 1275 459 
Q 1275 448 , 1283 442 
Q 1290 436 , 1303 436 
Q 1309 436 , 1314 437 
Q 1319 438 , 1324 440 
L 1324 445 
Q 1317 443 , 1313 442 
Q 1309 441 , 1304 441 
Q 1294 441 , 1288 446 
Q 1283 450 , 1283 459 
Q 1283 468 , 1288 472 
Q 1294 476 , 1304 476 
Q 1309 476 , 1312 476 
Q 1316 475 , 1317 475 
" fill="#F5C000" />
<path d="
M 1380 554 
L 1362 554 
L 1396 554 
L 1380 554 
M 1373 554 
L 1387 554 
L 1430 555 
L 1414 555 
L 1402 554 
L 1358 554 
L 1345 555 
L 1330 555 
L 1373 554 
" fill="#339541" />
<path d="
M 1330 553 
L 1348 553 
L 1348 553 
Q 1348 554 , 1356 554 
Q 1363 554 , 1380 554 
Q 1397 554 , 1405 554 
Q 1412 554 , 1412 553 
L 1412 553 
L 1430 553 
L 1430 553 
Q 1430 554 , 1417 554 
Q 1405 554 , 1380 554 
Q 1356 554 , 1343 554 
Q 1330 554 , 1330 553 
L 1330 553 
" fill="#D21010" />
<path d="
M 1430 552 
L 1430 552 
Q 1415 552 , 1407 552 
Q 1399 552 , 1389 552 
Q 1368 552 , 1358 552 
Q 1346 552 , 1346 552 
Q 1346 553 , 1358 553 
Q 1368 553 , 1389 553 
Q 1399 553 , 1407 553 
Q 1415 553 , 1430 553 
L 1430 553 
Q 1419 553 , 1409 553 
Q 1399 553 , 1388 553 
Q 1361 553 , 1346 553 
Q 1330 553 , 1330 552 
Q 1330 552 , 1346 552 
Q 1361 552 , 1388 552 
Q 1399 552 , 1409 552 
Q 1420 552 , 1430 552 
" fill="#545FFF" />
<path d="
M 1414 551 
L 1414 551 
L 1385 551 
L 1385 550 
L 1430 550 
L 1430 551 
Q 1419 551 , 1408 551 
Q 1399 551 , 1387 551 
Q 1361 551 , 1345 551 
Q 1330 551 , 1330 551 
Q 1330 550 , 1345 550 
Q 1361 550 , 1387 550 
Q 1398 550 , 1407 550 
Q 1417 550 , 1427 550 
L 1427 550 
Q 1414 550 , 1406 550 
Q 1397 550 , 1388 550 
Q 1367 550 , 1356 550 
Q 1346 550 , 1346 551 
Q 1346 551 , 1356 551 
Q 1367 551 , 1388 551 
Q 1397 551 , 1404 551 
Q 1411 551 , 1414 551 
" fill="#F5C000" />
<path d="M 65 168 L 65 555 " stroke="black" stroke-width="1.5"/>
<path d="M 55 555 L 65 555 " stroke="black" stroke-width="4"/>
<text text-anchor="end" x="50" y="555" font-size="50" alignment-baseline="middle">0</text>
<path d="M 55 362 L 65 362 " stroke="black" stroke-width="4"/>
<text text-anchor="end" x="50" y="362" font-size="50" alignment-baseline="middle">1</text>
<path d="M 55 168 L 65 168 " stroke="black" stroke-width="4"/>
<text text-anchor="end" x="50" y="168" font-size="50" alignment-baseline="middle">2</text>
<text text-anchor="middle" x="750" y="50" font-size="50" alignment-baseline="baseline"></text>
G<path d="
M 160 582 
L 126 595 
L 160 608 
L 157 611 
L 123 598 
L 123 623 
L 117 623 
L 117 599 
L 83 611 
L 80 608 
L 114 595 
L 80 582 
L 83 579 
L 117 591 
L 117 567 
L 123 567 
L 123 591 
L 157 579 
L 160 582 
" fill="black" />
<path d="
" fill="black" />
<path d="
M 211 567 
L 238 567 
L 238 623 
L 211 623 
L 211 567 
" fill="black" />
<path d="
" fill="black" />
<path d="
M 370 567 
Q 341 574 , 328 581 
Q 315 588 , 315 595 
Q 315 602 , 328 609 
Q 341 616 , 370 623 
L 346 623 
Q 318 616 , 304 609 
Q 290 602 , 290 595 
Q 290 588 , 304 581 
Q 318 574 , 346 567 
L 370 567 
" fill="black" />
<path d="
M 475 567 
Q 446 574 , 433 581 
Q 420 588 , 420 595 
Q 420 602 , 433 609 
Q 446 616 , 475 623 
L 451 623 
Q 423 616 , 409 609 
Q 395 602 , 395 595 
Q 395 588 , 409 581 
Q 423 574 , 451 567 
L 475 567 
" fill="black" />
<path d="
" fill="black" />
<path d="
M 526 567 
L 553 567 
L 553 623 
L 526 623 
L 526 567 
" fill="black" />
<path d="
" fill="black" />
<path d="
" fill="black" />
<path d="
M 622 567 
L 642 567 
L 642 623 
L 622 623 
L 622 567 
" fill="black" />
<path d="
" fill="black" />
<path d="
M 672 567 
L 692 567 
L 692 571 
L 680 623 
L 677 623 
L 689 571 
L 672 571 
L 672 567 
" fill="black" />
<path d="
M 790 582 
L 756 595 
L 790 608 
L 787 611 
L 753 598 
L 753 623 
L 747 623 
L 747 599 
L 713 611 
L 710 608 
L 744 595 
L 710 582 
L 713 579 
L 747 591 
L 747 567 
L 753 567 
L 753 591 
L 787 579 
L 790 582 
" fill="black" />
<path d="
" fill="black" />
<path d="
M 841 567 
L 868 567 
L 868 623 
L 841 623 
L 841 567 
" fill="black" />
<path d="
" fill="black" />
<path d="
" fill="black" />
<path d="
M 946 567 
L 973 567 
L 973 623 
L 946 623 
L 946 567 
" fill="black" />
<path d="
" fill="black" />
<path d="
" fill="black" />
<path d="
M 1051 567 
L 1078 567 
L 1078 623 
L 1051 623 
L 1051 567 
" fill="black" />
<path d="
" fill="black" />
<path d="
M 1130 567 
L 1154 567 
Q 1182 574 , 1196 581 
Q 1210 588 , 1210 595 
Q 1210 602 , 1196 609 
Q 1182 616 , 1154 623 
L 1130 623 
Q 1159 616 , 1172 609 
Q 1185 602 , 1185 595 
Q 1185 588 , 1172 581 
Q 1159 574 , 1130 567 
" fill="black" />
<path d="
M 1235 567 
L 1259 567 
Q 1287 574 , 1301 581 
Q 1315 588 , 1315 595 
Q 1315 602 , 1301 609 
Q 1287 616 , 1259 623 
L 1235 623 
Q 1264 616 , 1277 609 
Q 1290 602 , 1290 595 
Q 1290 588 , 1277 581 
Q 1264 574 , 1235 567 
" fill="black" />
<path d="
M 1420 582 
L 1386 595 
L 1420 608 
L 1417 611 
L 1383 598 
L 1383 623 
L 1377 623 
L 1377 599 
L 1343 611 
L 1340 608 
L 1374 595 
L 1340 582 
L 1343 579 
L 1377 591 
L 1377 567 
L 1383 567 
L 1383 591 
L 1417 579 
L 1420 582 
" fill="black" />
</svg>
