<svg xmlns="http://www.w3.org/2000/svg"
viewBox="0 0 1435 635">
<path d="
M 120 554 
L 102 554 
L 136 554 
L 120 554 
M 113 554 
L 127 554 
L 170 555 
L 154 555 
L 142 554 
L 98 554 
L 85 555 
L 70 555 
L 113 554 
" fill="#339541" />
<path d="
M 70 553 
L 88 553 
L 88 553 
Q 88 554 , 96 554 
Q 103 554 , 120 554 
Q 137 554 , 145 554 
Q 152 554 , 152 553 
L 152 553 
L 170 553 
L 170 553 
Q 170 554 , 157 554 
Q 145 554 , 120 554 
Q 96 554 , 83 554 
Q 70 554 , 70 553 
L 70 553 
" fill="#D21010" />
<path d="
M 170 552 
L 170 552 
Q 155 552 , 147 552 
Q 139 552 , 129 552 
Q 108 552 , 98 552 
Q 86 552 , 86 552 
Q 86 553 , 98 553 
Q 108 553 , 129 553 
Q 139 553 , 147 553 
Q 155 553 , 170 553 
L 170 553 
Q 159 553 , 149 553 
Q 139 553 , 128 553 
Q 101 553 , 86 553 
Q 70 553 , 70 552 
Q 70 552 , 86 552 
Q 101 552 , 128 552 
Q 139 552 , 149 552 
Q 160 552 , 170 552 
" fill="#545FFF" />
<path d="
M 154 551 
L 154 551 
L 125 551 
L 125 550 
L 170 550 
L 170 551 
Q 159 551 , 148 551 
Q 139 551 , 127 551 
Q 101 551 , 85 551 
Q 70 551 , 70 551 
Q 70 550 , 85 550 
Q 101 550 , 127 550 
Q 138 550 , 147 550 
Q 157 550 , 167 550 
L 167 550 
Q 154 550 , 146 550 
Q 137 550 , 128 550 
Q 107 550 , 96 550 
Q 86 550 , 86 551 
Q 86 551 , 96 551 
Q 107 551 , 128 551 
Q 137 551 , 144 551 
Q 151 551 , 154 551 
" fill="#F5C000" />
<path d="
M 225 552 
L 207 554 
L 241 554 
L 225 552 
M 218 552 
L 232 552 
L 275 555 
L 259 555 
L 247 554 
L 203 554 
L 190 555 
L 175 555 
L 218 552 
" fill="#339541" />
<path d="
M 275 548 
L 275 549 
Q 260 549 , 252 549 
Q 244 548 , 234 548 
Q 213 548 , 203 549 
Q 191 549 , 191 550 
Q 191 551 , 203 551 
Q 213 552 , 234 552 
Q 244 552 , 252 551 
Q 260 551 , 275 551 
L 275 552 
Q 264 552 , 254 552 
Q 244 552 , 233 552 
Q 206 552 , 191 551 
Q 175 551 , 175 550 
Q 175 549 , 191 549 
Q 206 548 , 233 548 
Q 244 548 , 254 548 
Q 265 548 , 275 548 
" fill="#545FFF" />
<path d="
M 175 541 
L 193 541 
L 193 545 
Q 193 546 , 201 546 
Q 208 547 , 225 547 
Q 242 547 , 250 546 
Q 257 546 , 257 545 
L 257 541 
L 275 541 
L 275 545 
Q 275 546 , 262 547 
Q 250 547 , 225 547 
Q 201 547 , 188 547 
Q 175 546 , 175 545 
L 175 541 
" fill="#D21010" />
<path d="
M 259 540 
L 259 538 
L 230 538 
L 230 537 
L 275 537 
L 275 540 
Q 264 540 , 253 541 
Q 244 541 , 232 541 
Q 206 541 , 190 540 
Q 175 539 , 175 537 
Q 175 535 , 190 534 
Q 206 533 , 232 533 
Q 243 533 , 252 533 
Q 262 533 , 272 534 
L 272 535 
Q 259 534 , 251 534 
Q 242 534 , 233 534 
Q 212 534 , 201 535 
Q 191 535 , 191 537 
Q 191 538 , 201 539 
Q 212 540 , 233 540 
Q 242 540 , 249 540 
Q 256 540 , 259 540 
" fill="#F5C000" />
<path d="
M 330 553 
L 312 554 
L 346 554 
L 330 553 
M 323 552 
L 337 552 
L 380 555 
L 364 555 
L 352 554 
L 308 554 
L 295 555 
L 280 555 
L 323 552 
" fill="#339541" />
<path d="
M 380 539 
L 380 542 
Q 365 540 , 357 540 
Q 349 540 , 339 540 
Q 318 540 , 308 541 
Q 296 542 , 296 545 
Q 296 548 , 308 549 
Q 318 550 , 339 550 
Q 349 550 , 357 550 
Q 365 550 , 380 548 
L 380 551 
Q 369 551 , 359 552 
Q 349 552 , 338 552 
Q 311 552 , 296 550 
Q 280 548 , 280 545 
Q 280 542 , 296 540 
Q 311 538 , 338 538 
Q 349 538 , 359 538 
Q 370 539 , 380 539 
" fill="#545FFF" />
<path d="
M 280 518 
L 298 518 
L 298 529 
Q 298 533 , 306 534 
Q 313 535 , 330 535 
Q 347 535 , 355 534 
Q 362 533 , 362 529 
L 362 518 
L 380 518 
L 380 530 
Q 380 534 , 367 535 
Q 355 537 , 330 537 
Q 306 537 , 293 535 
Q 280 534 , 280 530 
L 280 518 
" fill="#D21010" />
<path d="
M 364 511 
L 364 499 
L 335 499 
L 335 494 
L 380 494 
L 380 514 
Q 369 516 , 358 516 
Q 349 517 , 337 517 
Q 311 517 , 295 511 
Q 280 505 , 280 495 
Q 280 485 , 295 479 
Q 311 473 , 337 473 
Q 348 473 , 357 474 
Q 367 475 , 377 477 
L 377 482 
Q 364 480 , 356 479 
Q 347 478 , 338 478 
Q 317 478 , 306 482 
Q 296 487 , 296 495 
Q 296 504 , 306 508 
Q 317 512 , 338 512 
Q 347 512 , 354 512 
Q 361 511 , 364 511 
" fill="#F5C000" />
<path d="
M 435 552 
L 417 553 
L 451 553 
L 435 552 
M 428 551 
L 442 551 
L 485 555 
L 469 555 
L 457 554 
L 413 554 
L 400 555 
L 385 555 
L 428 551 
" fill="#339541" />
<path d="
M 485 537 
L 485 539 
Q 470 538 , 462 537 
Q 454 537 , 444 537 
Q 423 537 , 413 538 
Q 401 540 , 401 543 
Q 401 546 , 413 547 
Q 423 549 , 444 549 
Q 454 549 , 462 549 
Q 470 548 , 485 547 
L 485 549 
Q 474 550 , 464 550 
Q 454 551 , 443 551 
Q 416 551 , 401 549 
Q 385 546 , 385 543 
Q 385 539 , 401 537 
Q 416 535 , 443 535 
Q 454 535 , 464 535 
Q 475 536 , 485 537 
" fill="#545FFF" />
<path d="
M 385 514 
L 403 514 
L 403 526 
Q 403 529 , 411 531 
Q 418 532 , 435 532 
Q 452 532 , 460 531 
Q 467 529 , 467 526 
L 467 514 
L 485 514 
L 485 526 
Q 485 530 , 472 532 
Q 460 534 , 435 534 
Q 411 534 , 398 532 
Q 385 530 , 385 526 
L 385 514 
" fill="#D21010" />
<path d="
M 469 504 
L 469 484 
L 440 484 
L 440 476 
L 485 476 
L 485 508 
Q 474 511 , 463 513 
Q 454 514 , 442 514 
Q 416 514 , 400 504 
Q 385 495 , 385 478 
Q 385 461 , 400 452 
Q 416 442 , 442 442 
Q 453 442 , 462 443 
Q 472 445 , 482 448 
L 482 457 
Q 469 453 , 461 452 
Q 452 451 , 443 451 
Q 422 451 , 411 457 
Q 401 464 , 401 478 
Q 401 492 , 411 499 
Q 422 506 , 443 506 
Q 452 506 , 459 505 
Q 466 504 , 469 504 
" fill="#F5C000" />
<path d="
M 590 553 
L 590 553 
Q 575 553 , 567 553 
Q 559 553 , 549 553 
Q 528 553 , 518 553 
Q 506 553 , 506 553 
Q 506 554 , 518 554 
Q 528 554 , 549 554 
Q 559 554 , 567 554 
Q 575 554 , 590 554 
L 590 554 
Q 579 554 , 569 555 
Q 559 555 , 548 555 
Q 521 555 , 506 554 
Q 490 554 , 490 554 
Q 490 553 , 506 553 
Q 521 553 , 548 553 
Q 559 553 , 569 553 
Q 580 553 , 590 553 
" fill="#545FFF" />
<path d="
M 540 551 
L 522 552 
L 556 552 
L 540 551 
M 533 551 
L 547 551 
L 590 553 
L 574 553 
L 562 552 
L 518 552 
L 505 553 
L 490 553 
L 533 551 
" fill="#339541" />
<path d="
M 490 548 
L 508 548 
L 508 550 
Q 508 550 , 516 550 
Q 523 550 , 540 550 
Q 557 550 , 565 550 
Q 572 550 , 572 550 
L 572 548 
L 590 548 
L 590 550 
Q 590 550 , 577 550 
Q 565 551 , 540 551 
Q 516 551 , 503 550 
Q 490 550 , 490 550 
L 490 548 
" fill="#D21010" />
<path d="
M 574 547 
L 574 547 
L 545 547 
L 545 546 
L 590 546 
L 590 548 
Q 579 548 , 568 548 
Q 559 548 , 547 548 
Q 521 548 , 505 547 
Q 490 547 , 490 546 
Q 490 546 , 505 545 
Q 521 545 , 547 545 
Q 558 545 , 567 545 
Q 577 545 , 587 545 
L 587 546 
Q 574 545 , 566 545 
Q 557 545 , 548 545 
Q 527 545 , 516 546 
Q 506 546 , 506 546 
Q 506 547 , 516 547 
Q 527 547 , 548 547 
Q 557 547 , 564 547 
Q 571 547 , 574 547 
" fill="#F5C000" />
<path d="
M 637 554 
L 637 554 
L 623 554 
L 623 554 
L 645 554 
L 645 554 
Q 640 554 , 634 555 
Q 629 555 , 623 555 
Q 610 555 , 603 554 
Q 595 554 , 595 554 
Q 595 553 , 603 553 
Q 610 553 , 623 553 
Q 629 553 , 634 553 
Q 639 553 , 644 553 
L 644 553 
Q 637 553 , 633 553 
Q 629 553 , 624 553 
Q 614 553 , 608 553 
Q 603 553 , 603 554 
Q 603 554 , 608 554 
Q 614 554 , 624 554 
Q 629 554 , 632 554 
Q 636 554 , 637 554 
" fill="#F5C000" />
<path d="
M 645 553 
L 654 553 
L 654 554 
Q 654 554 , 658 554 
Q 661 554 , 670 554 
Q 679 554 , 682 554 
Q 686 554 , 686 554 
L 686 553 
L 695 553 
L 695 554 
Q 695 554 , 689 554 
Q 682 555 , 670 555 
Q 658 555 , 651 554 
Q 645 554 , 645 554 
L 645 553 
" fill="lightgray" />
<path d="
M 595 548 
L 604 548 
L 604 551 
Q 604 552 , 608 552 
Q 611 552 , 620 552 
Q 629 552 , 632 552 
Q 636 552 , 636 551 
L 636 548 
L 645 548 
L 645 551 
Q 645 552 , 639 552 
Q 632 553 , 620 553 
Q 608 553 , 601 552 
Q 595 552 , 595 551 
L 595 548 
" fill="#D21010" />
<path d="
M 687 552 
L 687 551 
L 673 551 
L 673 550 
L 695 550 
L 695 552 
Q 690 553 , 684 553 
Q 679 553 , 673 553 
Q 660 553 , 653 552 
Q 645 552 , 645 550 
Q 645 549 , 653 549 
Q 660 548 , 673 548 
Q 679 548 , 684 548 
Q 689 548 , 694 548 
L 694 549 
Q 687 549 , 683 549 
Q 679 549 , 674 549 
Q 664 549 , 658 549 
Q 653 549 , 653 550 
Q 653 551 , 658 552 
Q 664 552 , 674 552 
Q 679 552 , 682 552 
Q 686 552 , 687 552 
" fill="lightgray" />
<path d="
M 620 543 
L 611 545 
L 628 545 
L 620 543 
M 616 542 
L 624 542 
L 645 547 
L 637 547 
L 631 546 
L 609 546 
L 602 547 
L 595 547 
L 616 542 
" fill="#339541" />
<path d="
M 645 542 
L 654 542 
L 654 545 
Q 654 546 , 658 547 
Q 661 547 , 670 547 
Q 679 547 , 682 547 
Q 686 546 , 686 545 
L 686 542 
L 695 542 
L 695 545 
Q 695 546 , 689 547 
Q 682 547 , 670 547 
Q 658 547 , 651 547 
Q 645 546 , 645 545 
L 645 542 
" fill="lightgray" />
<path d="
M 595 525 
L 604 525 
L 604 535 
Q 604 538 , 608 539 
Q 611 540 , 620 540 
Q 629 540 , 632 539 
Q 636 538 , 636 535 
L 636 525 
L 645 525 
L 645 535 
Q 645 538 , 639 540 
Q 632 542 , 620 542 
Q 608 542 , 601 540 
Q 595 538 , 595 535 
L 595 525 
" fill="#D21010" />
<path d="
M 670 528 
L 661 535 
L 678 535 
L 670 528 
M 666 525 
L 674 525 
L 695 542 
L 687 542 
L 681 537 
L 659 537 
L 652 542 
L 645 542 
L 666 525 
" fill="lightgray" />
<path d="
M 645 478 
L 645 486 
Q 638 480 , 634 479 
Q 629 478 , 624 478 
Q 614 478 , 609 483 
Q 603 488 , 603 498 
Q 603 508 , 609 514 
Q 614 519 , 624 519 
Q 629 519 , 634 517 
Q 638 516 , 645 511 
L 645 519 
Q 640 522 , 634 523 
Q 630 524 , 624 524 
Q 610 524 , 603 517 
Q 595 510 , 595 498 
Q 595 486 , 603 479 
Q 610 472 , 624 472 
Q 630 472 , 635 473 
Q 640 475 , 645 478 
" fill="#545FFF" />
<path d="
M 687 517 
L 687 503 
L 673 503 
L 673 497 
L 695 497 
L 695 520 
Q 690 523 , 684 524 
Q 679 524 , 673 524 
Q 660 524 , 653 517 
Q 645 511 , 645 498 
Q 645 486 , 653 479 
Q 660 472 , 673 472 
Q 679 472 , 684 473 
Q 689 474 , 694 476 
L 694 483 
Q 687 480 , 683 479 
Q 679 478 , 674 478 
Q 664 478 , 658 483 
Q 653 488 , 653 498 
Q 653 509 , 658 514 
Q 664 519 , 674 519 
Q 679 519 , 682 518 
Q 686 518 , 687 517 
" fill="lightgray" />
<path d="
M 637 459 
L 637 435 
L 623 435 
L 623 426 
L 645 426 
L 645 464 
Q 640 468 , 634 470 
Q 629 471 , 623 471 
Q 610 471 , 603 459 
Q 595 448 , 595 428 
Q 595 407 , 603 396 
Q 610 384 , 623 384 
Q 629 384 , 634 386 
Q 639 387 , 644 391 
L 644 402 
Q 637 397 , 633 396 
Q 629 394 , 624 394 
Q 614 394 , 608 403 
Q 603 411 , 603 428 
Q 603 445 , 608 453 
Q 614 461 , 624 461 
Q 629 461 , 632 461 
Q 636 460 , 637 459 
" fill="#F5C000" />
<path d="
M 695 393 
L 695 407 
Q 688 398 , 684 396 
Q 679 394 , 674 394 
Q 664 394 , 659 402 
Q 653 411 , 653 427 
Q 653 444 , 659 453 
Q 664 462 , 674 462 
Q 679 462 , 684 460 
Q 688 457 , 695 449 
L 695 462 
Q 690 467 , 684 469 
Q 680 471 , 674 471 
Q 660 471 , 653 459 
Q 645 448 , 645 428 
Q 645 408 , 653 396 
Q 660 384 , 674 384 
Q 680 384 , 685 386 
Q 690 388 , 695 393 
" fill="lightgray" />
<path d="
M 750 554 
L 732 554 
L 766 554 
L 750 554 
M 743 554 
L 757 554 
L 800 555 
L 784 555 
L 772 554 
L 728 554 
L 715 555 
L 700 555 
L 743 554 
" fill="#339541" />
<path d="
M 700 553 
L 718 553 
L 718 553 
Q 718 554 , 726 554 
Q 733 554 , 750 554 
Q 767 554 , 775 554 
Q 782 554 , 782 553 
L 782 553 
L 800 553 
L 800 553 
Q 800 554 , 787 554 
Q 775 554 , 750 554 
Q 726 554 , 713 554 
Q 700 554 , 700 553 
L 700 553 
" fill="#D21010" />
<path d="
M 800 552 
L 800 552 
Q 785 552 , 777 552 
Q 769 552 , 759 552 
Q 738 552 , 728 552 
Q 716 552 , 716 552 
Q 716 553 , 728 553 
Q 738 553 , 759 553 
Q 769 553 , 777 553 
Q 785 553 , 800 553 
L 800 553 
Q 789 553 , 779 553 
Q 769 553 , 758 553 
Q 731 553 , 716 553 
Q 700 553 , 700 552 
Q 700 552 , 716 552 
Q 731 552 , 758 552 
Q 769 552 , 779 552 
Q 790 552 , 800 552 
" fill="#545FFF" />
<path d="
M 784 551 
L 784 551 
L 755 551 
L 755 550 
L 800 550 
L 800 551 
Q 789 551 , 778 551 
Q 769 551 , 757 551 
Q 731 551 , 715 551 
Q 700 551 , 700 551 
Q 700 550 , 715 550 
Q 731 550 , 757 550 
Q 768 550 , 777 550 
Q 787 550 , 797 550 
L 797 550 
Q 784 550 , 776 550 
Q 767 550 , 758 550 
Q 737 550 , 726 550 
Q 716 550 , 716 551 
Q 716 551 , 726 551 
Q 737 551 , 758 551 
Q 767 551 , 774 551 
Q 781 551 , 784 551 
" fill="#F5C000" />
<path d="
M 855 548 
L 837 551 
L 871 551 
L 855 548 
M 848 547 
L 862 547 
L 905 554 
L 889 554 
L 877 552 
L 833 552 
L 820 554 
L 805 554 
L 848 547 
" fill="#339541" />
<path d="
M 889 545 
L 889 542 
L 860 542 
L 860 541 
L 905 541 
L 905 545 
Q 894 546 , 883 546 
Q 874 546 , 862 546 
Q 836 546 , 820 545 
Q 805 544 , 805 542 
Q 805 539 , 820 538 
Q 836 537 , 862 537 
Q 873 537 , 882 537 
Q 892 537 , 902 538 
L 902 539 
Q 889 538 , 881 538 
Q 872 538 , 863 538 
Q 842 538 , 831 539 
Q 821 540 , 821 542 
Q 821 543 , 831 544 
Q 842 545 , 863 545 
Q 872 545 , 879 545 
Q 886 545 , 889 545 
" fill="#F5C000" />
<path d="
M 905 526 
L 905 528 
Q 890 527 , 882 527 
Q 874 526 , 864 526 
Q 843 526 , 833 527 
Q 821 529 , 821 531 
Q 821 533 , 833 534 
Q 843 535 , 864 535 
Q 874 535 , 882 535 
Q 890 535 , 905 533 
L 905 535 
Q 894 536 , 884 536 
Q 874 536 , 863 536 
Q 836 536 , 821 535 
Q 805 533 , 805 531 
Q 805 528 , 821 527 
Q 836 525 , 863 525 
Q 874 525 , 884 525 
Q 895 526 , 905 526 
" fill="#545FFF" />
<path d="
M 805 489 
L 823 489 
L 823 510 
Q 823 516 , 831 518 
Q 838 520 , 855 520 
Q 872 520 , 880 518 
Q 887 516 , 887 510 
L 887 489 
L 905 489 
L 905 510 
Q 905 517 , 892 521 
Q 880 524 , 855 524 
Q 831 524 , 818 521 
Q 805 517 , 805 510 
L 805 489 
" fill="#D21010" />
<path d="
M 960 548 
L 942 551 
L 976 551 
L 960 548 
M 953 546 
L 967 546 
L 1010 555 
L 994 555 
L 982 552 
L 938 552 
L 925 555 
L 910 555 
L 953 546 
" fill="#339541" />
<path d="
M 910 533 
L 928 533 
L 928 540 
Q 928 542 , 936 543 
Q 943 544 , 960 544 
Q 977 544 , 985 543 
Q 992 542 , 992 540 
L 992 533 
L 1010 533 
L 1010 540 
Q 1010 543 , 997 544 
Q 985 545 , 960 545 
Q 936 545 , 923 544 
Q 910 543 , 910 540 
L 910 533 
" fill="#D21010" />
<path d="
M 1010 519 
L 1010 521 
Q 995 520 , 987 519 
Q 979 519 , 969 519 
Q 948 519 , 938 520 
Q 926 522 , 926 525 
Q 926 528 , 938 530 
Q 948 531 , 969 531 
Q 979 531 , 987 531 
Q 995 530 , 1010 529 
L 1010 531 
Q 999 532 , 989 532 
Q 979 533 , 968 533 
Q 941 533 , 926 531 
Q 910 529 , 910 525 
Q 910 521 , 926 519 
Q 941 517 , 968 517 
Q 979 517 , 989 517 
Q 1000 518 , 1010 519 
" fill="#545FFF" />
<path d="
M 994 494 
L 994 450 
L 965 450 
L 965 432 
L 1010 432 
L 1010 504 
Q 999 511 , 988 514 
Q 979 517 , 967 517 
Q 941 517 , 925 495 
Q 910 474 , 910 436 
Q 910 398 , 925 377 
Q 941 355 , 967 355 
Q 978 355 , 987 358 
Q 997 361 , 1007 368 
L 1007 389 
Q 994 380 , 986 377 
Q 977 374 , 968 374 
Q 947 374 , 936 389 
Q 926 405 , 926 436 
Q 926 468 , 936 483 
Q 947 499 , 968 499 
Q 977 499 , 984 497 
Q 991 496 , 994 494 
" fill="#F5C000" />
<path d="
M 1115 550 
L 1115 550 
Q 1100 550 , 1092 550 
Q 1084 550 , 1074 550 
Q 1053 550 , 1043 550 
Q 1031 551 , 1031 552 
Q 1031 553 , 1043 553 
Q 1053 554 , 1074 554 
Q 1084 554 , 1092 553 
Q 1100 553 , 1115 553 
L 1115 554 
Q 1104 554 , 1094 554 
Q 1084 554 , 1073 554 
Q 1046 554 , 1031 553 
Q 1015 553 , 1015 552 
Q 1015 550 , 1031 550 
Q 1046 549 , 1073 549 
Q 1084 549 , 1094 549 
Q 1105 549 , 1115 550 
" fill="#545FFF" />
<path d="
M 1015 534 
L 1033 534 
L 1033 543 
Q 1033 545 , 1041 546 
Q 1048 547 , 1065 547 
Q 1082 547 , 1090 546 
Q 1097 545 , 1097 543 
L 1097 534 
L 1115 534 
L 1115 543 
Q 1115 546 , 1102 547 
Q 1090 549 , 1065 549 
Q 1041 549 , 1028 547 
Q 1015 546 , 1015 543 
L 1015 534 
" fill="#D21010" />
<path d="
M 1065 521 
L 1047 527 
L 1081 527 
L 1065 521 
M 1058 518 
L 1072 518 
L 1115 533 
L 1099 533 
L 1087 529 
L 1043 529 
L 1030 533 
L 1015 533 
L 1058 518 
" fill="#339541" />
<path d="
M 1099 510 
L 1099 495 
L 1070 495 
L 1070 489 
L 1115 489 
L 1115 514 
Q 1104 516 , 1093 517 
Q 1084 518 , 1072 518 
Q 1046 518 , 1030 510 
Q 1015 503 , 1015 490 
Q 1015 478 , 1030 470 
Q 1046 463 , 1072 463 
Q 1083 463 , 1092 464 
Q 1102 465 , 1112 467 
L 1112 474 
Q 1099 471 , 1091 470 
Q 1082 470 , 1073 470 
Q 1052 470 , 1041 475 
Q 1031 480 , 1031 490 
Q 1031 501 , 1041 506 
Q 1052 512 , 1073 512 
Q 1082 512 , 1089 511 
Q 1096 511 , 1099 510 
" fill="#F5C000" />
<path d="
M 1162 554 
L 1162 554 
L 1148 554 
L 1148 554 
L 1170 554 
L 1170 554 
Q 1165 554 , 1159 555 
Q 1154 555 , 1148 555 
Q 1135 555 , 1128 554 
Q 1120 554 , 1120 554 
Q 1120 553 , 1128 553 
Q 1135 553 , 1148 553 
Q 1154 553 , 1159 553 
Q 1164 553 , 1169 553 
L 1169 553 
Q 1162 553 , 1158 553 
Q 1154 553 , 1149 553 
Q 1139 553 , 1133 553 
Q 1128 553 , 1128 554 
Q 1128 554 , 1133 554 
Q 1139 554 , 1149 554 
Q 1154 554 , 1157 554 
Q 1161 554 , 1162 554 
" fill="lightgray" />
<path d="
M 1170 553 
L 1179 553 
L 1179 554 
Q 1179 554 , 1183 554 
Q 1186 554 , 1195 554 
Q 1204 554 , 1207 554 
Q 1211 554 , 1211 554 
L 1211 553 
L 1220 553 
L 1220 554 
Q 1220 554 , 1214 554 
Q 1207 555 , 1195 555 
Q 1183 555 , 1176 554 
Q 1170 554 , 1170 554 
L 1170 553 
" fill="#D21010" />
<path d="
M 1120 548 
L 1129 548 
L 1129 551 
Q 1129 552 , 1133 552 
Q 1136 552 , 1145 552 
Q 1154 552 , 1157 552 
Q 1161 552 , 1161 551 
L 1161 548 
L 1170 548 
L 1170 551 
Q 1170 552 , 1164 552 
Q 1157 553 , 1145 553 
Q 1133 553 , 1126 552 
Q 1120 552 , 1120 551 
L 1120 548 
" fill="lightgray" />
<path d="
M 1212 552 
L 1212 551 
L 1198 551 
L 1198 550 
L 1220 550 
L 1220 552 
Q 1215 553 , 1209 553 
Q 1204 553 , 1198 553 
Q 1185 553 , 1178 552 
Q 1170 552 , 1170 550 
Q 1170 549 , 1178 549 
Q 1185 548 , 1198 548 
Q 1204 548 , 1209 548 
Q 1214 548 , 1219 548 
L 1219 549 
Q 1212 549 , 1208 549 
Q 1204 549 , 1199 549 
Q 1189 549 , 1183 549 
Q 1178 549 , 1178 550 
Q 1178 551 , 1183 552 
Q 1189 552 , 1199 552 
Q 1204 552 , 1207 552 
Q 1211 552 , 1212 552 
" fill="#F5C000" />
<path d="
M 1145 543 
L 1136 545 
L 1153 545 
L 1145 543 
M 1141 542 
L 1149 542 
L 1170 547 
L 1162 547 
L 1156 546 
L 1134 546 
L 1127 547 
L 1120 547 
L 1141 542 
" fill="lightgray" />
<path d="
M 1170 542 
L 1179 542 
L 1179 545 
Q 1179 546 , 1183 547 
Q 1186 547 , 1195 547 
Q 1204 547 , 1207 547 
Q 1211 546 , 1211 545 
L 1211 542 
L 1220 542 
L 1220 545 
Q 1220 546 , 1214 547 
Q 1207 547 , 1195 547 
Q 1183 547 , 1176 547 
Q 1170 546 , 1170 545 
L 1170 542 
" fill="#D21010" />
<path d="
M 1120 525 
L 1129 525 
L 1129 535 
Q 1129 538 , 1133 539 
Q 1136 540 , 1145 540 
Q 1154 540 , 1157 539 
Q 1161 538 , 1161 535 
L 1161 525 
L 1170 525 
L 1170 535 
Q 1170 538 , 1164 540 
Q 1157 542 , 1145 542 
Q 1133 542 , 1126 540 
Q 1120 538 , 1120 535 
L 1120 525 
" fill="lightgray" />
<path d="
M 1195 528 
L 1186 535 
L 1203 535 
L 1195 528 
M 1191 525 
L 1199 525 
L 1220 542 
L 1212 542 
L 1206 537 
L 1184 537 
L 1177 542 
L 1170 542 
L 1191 525 
" fill="#339541" />
<path d="
M 1170 478 
L 1170 486 
Q 1163 480 , 1159 479 
Q 1154 478 , 1149 478 
Q 1139 478 , 1134 483 
Q 1128 488 , 1128 498 
Q 1128 508 , 1134 514 
Q 1139 519 , 1149 519 
Q 1154 519 , 1159 517 
Q 1163 516 , 1170 511 
L 1170 519 
Q 1165 522 , 1159 523 
Q 1155 524 , 1149 524 
Q 1135 524 , 1128 517 
Q 1120 510 , 1120 498 
Q 1120 486 , 1128 479 
Q 1135 472 , 1149 472 
Q 1155 472 , 1160 473 
Q 1165 475 , 1170 478 
" fill="lightgray" />
<path d="
M 1212 517 
L 1212 503 
L 1198 503 
L 1198 497 
L 1220 497 
L 1220 520 
Q 1215 523 , 1209 524 
Q 1204 524 , 1198 524 
Q 1185 524 , 1178 517 
Q 1170 511 , 1170 498 
Q 1170 486 , 1178 479 
Q 1185 472 , 1198 472 
Q 1204 472 , 1209 473 
Q 1214 474 , 1219 476 
L 1219 483 
Q 1212 480 , 1208 479 
Q 1204 478 , 1199 478 
Q 1189 478 , 1183 483 
Q 1178 488 , 1178 498 
Q 1178 509 , 1183 514 
Q 1189 519 , 1199 519 
Q 1204 519 , 1207 518 
Q 1211 518 , 1212 517 
" fill="#F5C000" />
<path d="
M 1162 459 
L 1162 435 
L 1148 435 
L 1148 426 
L 1170 426 
L 1170 464 
Q 1165 468 , 1159 470 
Q 1154 471 , 1148 471 
Q 1135 471 , 1128 459 
Q 1120 448 , 1120 428 
Q 1120 407 , 1128 396 
Q 1135 384 , 1148 384 
Q 1154 384 , 1159 386 
Q 1164 387 , 1169 391 
L 1169 402 
Q 1162 397 , 1158 396 
Q 1154 394 , 1149 394 
Q 1139 394 , 1133 403 
Q 1128 411 , 1128 428 
Q 1128 445 , 1133 453 
Q 1139 461 , 1149 461 
Q 1154 461 , 1157 461 
Q 1161 460 , 1162 459 
" fill="lightgray" />
<path d="
M 1220 393 
L 1220 407 
Q 1213 398 , 1209 396 
Q 1204 394 , 1199 394 
Q 1189 394 , 1184 402 
Q 1178 411 , 1178 427 
Q 1178 444 , 1184 453 
Q 1189 462 , 1199 462 
Q 1204 462 , 1209 460 
Q 1213 457 , 1220 449 
L 1220 462 
Q 1215 467 , 1209 469 
Q 1205 471 , 1199 471 
Q 1185 471 , 1178 459 
Q 1170 448 , 1170 428 
Q 1170 408 , 1178 396 
Q 1185 384 , 1199 384 
Q 1205 384 , 1210 386 
Q 1215 388 , 1220 393 
" fill="#545FFF" />
<path d="
M 1309 554 
L 1309 553 
L 1280 553 
L 1280 553 
L 1325 553 
L 1325 554 
Q 1314 554 , 1303 554 
Q 1294 554 , 1282 554 
Q 1256 554 , 1240 554 
Q 1225 554 , 1225 553 
Q 1225 553 , 1240 552 
Q 1256 552 , 1282 552 
Q 1293 552 , 1302 552 
Q 1312 552 , 1322 552 
L 1322 553 
Q 1309 552 , 1301 552 
Q 1292 552 , 1283 552 
Q 1262 552 , 1251 553 
Q 1241 553 , 1241 553 
Q 1241 554 , 1251 554 
Q 1262 554 , 1283 554 
Q 1292 554 , 1299 554 
Q 1306 554 , 1309 554 
" fill="#F5C000" />
<path d="
M 1225 546 
L 1243 546 
L 1243 549 
Q 1243 550 , 1251 550 
Q 1258 551 , 1275 551 
Q 1292 551 , 1300 550 
Q 1307 550 , 1307 549 
L 1307 546 
L 1325 546 
L 1325 549 
Q 1325 550 , 1312 551 
Q 1300 551 , 1275 551 
Q 1251 551 , 1238 551 
Q 1225 550 , 1225 549 
L 1225 546 
" fill="#D21010" />
<path d="
M 1275 541 
L 1257 543 
L 1291 543 
L 1275 541 
M 1268 540 
L 1282 540 
L 1325 546 
L 1309 546 
L 1297 544 
L 1253 544 
L 1240 546 
L 1225 546 
L 1268 540 
" fill="#339541" />
<path d="
M 1325 532 
L 1325 533 
Q 1310 532 , 1302 532 
Q 1294 532 , 1284 532 
Q 1263 532 , 1253 533 
Q 1241 533 , 1241 535 
Q 1241 537 , 1253 537 
Q 1263 538 , 1284 538 
Q 1294 538 , 1302 538 
Q 1310 538 , 1325 537 
L 1325 538 
Q 1314 539 , 1304 539 
Q 1294 539 , 1283 539 
Q 1256 539 , 1241 538 
Q 1225 537 , 1225 535 
Q 1225 533 , 1241 532 
Q 1256 531 , 1283 531 
Q 1294 531 , 1304 531 
Q 1315 531 , 1325 532 
" fill="#545FFF" />
<path d="
M 1380 554 
L 1362 554 
L 1396 554 
L 1380 554 
M 1373 554 
L 1387 554 
L 1430 555 
L 1414 555 
L 1402 554 
L 1358 554 
L 1345 555 
L 1330 555 
L 1373 554 
" fill="#339541" />
<path d="
M 1330 553 
L 1348 553 
L 1348 553 
Q 1348 554 , 1356 554 
Q 1363 554 , 1380 554 
Q 1397 554 , 1405 554 
Q 1412 554 , 1412 553 
L 1412 553 
L 1430 553 
L 1430 553 
Q 1430 554 , 1417 554 
Q 1405 554 , 1380 554 
Q 1356 554 , 1343 554 
Q 1330 554 , 1330 553 
L 1330 553 
" fill="#D21010" />
<path d="
M 1430 552 
L 1430 552 
Q 1415 552 , 1407 552 
Q 1399 552 , 1389 552 
Q 1368 552 , 1358 552 
Q 1346 552 , 1346 552 
Q 1346 553 , 1358 553 
Q 1368 553 , 1389 553 
Q 1399 553 , 1407 553 
Q 1415 553 , 1430 553 
L 1430 553 
Q 1419 553 , 1409 553 
Q 1399 553 , 1388 553 
Q 1361 553 , 1346 553 
Q 1330 553 , 1330 552 
Q 1330 552 , 1346 552 
Q 1361 552 , 1388 552 
Q 1399 552 , 1409 552 
Q 1420 552 , 1430 552 
" fill="#545FFF" />
<path d="
M 1414 551 
L 1414 551 
L 1385 551 
L 1385 550 
L 1430 550 
L 1430 551 
Q 1419 551 , 1408 551 
Q 1399 551 , 1387 551 
Q 1361 551 , 1345 551 
Q 1330 551 , 1330 551 
Q 1330 550 , 1345 550 
Q 1361 550 , 1387 550 
Q 1398 550 , 1407 550 
Q 1417 550 , 1427 550 
L 1427 550 
Q 1414 550 , 1406 550 
Q 1397 550 , 1388 550 
Q 1367 550 , 1356 550 
Q 1346 550 , 1346 551 
Q 1346 551 , 1356 551 
Q 1367 551 , 1388 551 
Q 1397 551 , 1404 551 
Q 1411 551 , 1414 551 
" fill="#F5C000" />
<path d="M 65 168 L 65 555 " stroke="black" stroke-width="1.5"/>
<path d="M 55 555 L 65 555 " stroke="black" stroke-width="4"/>
<text text-anchor="end" x="50" y="555" font-size="50" alignment-baseline="middle">0</text>
<path d="M 55 362 L 65 362 " stroke="black" stroke-width="4"/>
<text text-anchor="end" x="50" y="362" font-size="50" alignment-baseline="middle">1</text>
<path d="M 55 168 L 65 168 " stroke="black" stroke-width="4"/>
<text text-anchor="end" x="50" y="168" font-size="50" alignment-baseline="middle">2</text>
<text text-anchor="middle" x="750" y="50" font-size="50" alignment-baseline="baseline"></text>
G<path d="
M 160 582 
L 126 595 
L 160 608 
L 157 611 
L 123 598 
L 123 623 
L 117 623 
L 117 599 
L 83 611 
L 80 608 
L 114 595 
L 80 582 
L 83 579 
L 117 591 
L 117 567 
L 123 567 
L 123 591 
L 157 579 
L 160 582 
" fill="black" />
<path d="
" fill="black" />
<path d="
M 211 567 
L 238 567 
L 238 623 
L 211 623 
L 211 567 
" fill="black" />
<path d="
" fill="black" />
<path d="
" fill="black" />
<path d="
M 316 567 
L 343 567 
L 343 623 
L 316 623 
L 316 567 
" fill="black" />
<path d="
" fill="black" />
<path d="
" fill="black" />
<path d="
M 421 567 
L 448 567 
L 448 623 
L 421 623 
L 421 567 
" fill="black" />
<path d="
" fill="black" />
<path d="
" fill="black" />
<path d="
M 526 567 
L 553 567 
L 553 623 
L 526 623 
L 526 567 
" fill="black" />
<path d="
" fill="black" />
<path d="
M 640 567 
Q 626 574 , 619 581 
Q 612 588 , 612 595 
Q 612 602 , 619 609 
Q 626 616 , 640 623 
L 628 623 
Q 614 616 , 607 609 
Q 600 602 , 600 595 
Q 600 588 , 607 581 
Q 614 574 , 628 567 
L 640 567 
" fill="black" />
<path d="
M 653 621 
L 653 616 
Q 657 618 , 660 619 
Q 663 619 , 665 619 
Q 678 619 , 683 609 
Q 685 604 , 685 595 
Q 683 597 , 680 600 
Q 676 603 , 669 603 
Q 661 603 , 655 598 
Q 650 593 , 650 586 
Q 650 577 , 655 572 
Q 661 567 , 669 567 
Q 679 567 , 685 574 
Q 690 581 , 690 595 
Q 690 609 , 684 616 
Q 677 623 , 666 623 
Q 663 623 , 660 622 
Q 657 622 , 653 621 
M 659 595 
Q 663 599 , 669 599 
Q 676 599 , 679 595 
Q 683 591 , 683 584 
Q 683 578 , 679 574 
Q 676 571 , 669 571 
Q 663 571 , 659 574 
Q 655 578 , 655 584 
Q 655 591 , 659 595 
" fill="black" />
<path d="
M 790 582 
L 756 595 
L 790 608 
L 787 611 
L 753 598 
L 753 623 
L 747 623 
L 747 599 
L 713 611 
L 710 608 
L 744 595 
L 710 582 
L 713 579 
L 747 591 
L 747 567 
L 753 567 
L 753 591 
L 787 579 
L 790 582 
" fill="black" />
<path d="
" fill="black" />
<path d="
M 841 567 
L 868 567 
L 868 623 
L 841 623 
L 841 567 
" fill="black" />
<path d="
" fill="black" />
<path d="
" fill="black" />
<path d="
M 946 567 
L 973 567 
L 973 623 
L 946 623 
L 946 567 
" fill="black" />
<path d="
" fill="black" />
<path d="
" fill="black" />
<path d="
M 1051 567 
L 1078 567 
L 1078 623 
L 1051 623 
L 1051 567 
" fill="black" />
<path d="
" fill="black" />
<path d="
M 1130 567 
L 1154 567 
Q 1182 574 , 1196 581 
Q 1210 588 , 1210 595 
Q 1210 602 , 1196 609 
Q 1182 616 , 1154 623 
L 1130 623 
Q 1159 616 , 1172 609 
Q 1185 602 , 1185 595 
Q 1185 588 , 1172 581 
Q 1159 574 , 1130 567 
" fill="black" />
<path d="
" fill="black" />
<path d="
M 1261 567 
L 1288 567 
L 1288 623 
L 1261 623 
L 1261 567 
" fill="black" />
<path d="
" fill="black" />
<path d="
M 1420 582 
L 1386 595 
L 1420 608 
L 1417 611 
L 1383 598 
L 1383 623 
L 1377 623 
L 1377 599 
L 1343 611 
L 1340 608 
L 1374 595 
L 1340 582 
L 1343 579 
L 1377 591 
L 1377 567 
L 1383 567 
L 1383 591 
L 1417 579 
L 1420 582 
" fill="black" />
</svg>
