<svg xmlns="http://www.w3.org/2000/svg"
viewBox="0 0 700 635">
<path d="
M 120 552 
L 102 553 
L 136 553 
L 120 552 
M 113 552 
L 127 552 
L 170 554 
L 154 554 
L 142 554 
L 98 554 
L 85 554 
L 70 554 
L 113 552 
" fill="#339541" />
<path d="
M 170 549 
L 170 550 
Q 155 549 , 147 549 
Q 139 549 , 129 549 
Q 108 549 , 98 550 
Q 86 550 , 86 550 
Q 86 551 , 98 551 
Q 108 551 , 129 551 
Q 139 551 , 147 551 
Q 155 551 , 170 551 
L 170 551 
Q 159 552 , 149 552 
Q 139 552 , 128 552 
Q 101 552 , 86 551 
Q 70 551 , 70 550 
Q 70 550 , 86 549 
Q 101 549 , 128 549 
Q 139 549 , 149 549 
Q 160 549 , 170 549 
" fill="#545FFF" />
<path d="
M 70 546 
L 88 546 
L 88 548 
Q 88 548 , 96 548 
Q 103 548 , 120 548 
Q 137 548 , 145 548 
Q 152 548 , 152 548 
L 152 546 
L 170 546 
L 170 548 
Q 170 548 , 157 548 
Q 145 549 , 120 549 
Q 96 549 , 83 548 
Q 70 548 , 70 548 
L 70 546 
" fill="#D21010" />
<path d="
M 154 545 
L 154 544 
L 125 544 
L 125 543 
L 170 543 
L 170 545 
Q 159 545 , 148 545 
Q 139 546 , 127 546 
Q 101 546 , 85 545 
Q 70 544 , 70 543 
Q 70 542 , 85 542 
Q 101 541 , 127 541 
Q 138 541 , 147 541 
Q 157 541 , 167 541 
L 167 542 
Q 154 542 , 146 542 
Q 137 542 , 128 542 
Q 107 542 , 96 542 
Q 86 542 , 86 543 
Q 86 544 , 96 545 
Q 107 545 , 128 545 
Q 137 545 , 144 545 
Q 151 545 , 154 545 
" fill="#F5C000" />
<path d="
M 225 549 
L 207 552 
L 241 552 
L 225 549 
M 218 548 
L 232 548 
L 275 555 
L 259 555 
L 247 553 
L 203 553 
L 190 555 
L 175 555 
L 218 548 
" fill="#339541" />
<path d="
M 275 538 
L 275 540 
Q 260 539 , 252 538 
Q 244 538 , 234 538 
Q 213 538 , 203 539 
Q 191 540 , 191 542 
Q 191 544 , 203 546 
Q 213 547 , 234 547 
Q 244 547 , 252 546 
Q 260 546 , 275 545 
L 275 547 
Q 264 547 , 254 548 
Q 244 548 , 233 548 
Q 206 548 , 191 546 
Q 175 545 , 175 542 
Q 175 540 , 191 538 
Q 206 537 , 233 537 
Q 244 537 , 254 537 
Q 265 538 , 275 538 
" fill="#545FFF" />
<path d="
M 175 500 
L 193 500 
L 193 522 
Q 193 528 , 201 530 
Q 208 533 , 225 533 
Q 242 533 , 250 530 
Q 257 528 , 257 522 
L 257 500 
L 275 500 
L 275 522 
Q 275 529 , 262 533 
Q 250 537 , 225 537 
Q 201 537 , 188 533 
Q 175 529 , 175 522 
L 175 500 
" fill="#D21010" />
<path d="
M 259 487 
L 259 466 
L 230 466 
L 230 457 
L 275 457 
L 275 493 
Q 264 496 , 253 498 
Q 244 499 , 232 499 
Q 206 499 , 190 488 
Q 175 477 , 175 459 
Q 175 440 , 190 429 
Q 206 418 , 232 418 
Q 243 418 , 252 419 
Q 262 421 , 272 425 
L 272 435 
Q 259 430 , 251 429 
Q 242 428 , 233 428 
Q 212 428 , 201 435 
Q 191 443 , 191 459 
Q 191 475 , 201 482 
Q 212 490 , 233 490 
Q 242 490 , 249 489 
Q 256 488 , 259 487 
" fill="#F5C000" />
<path d="
M 330 546 
L 312 550 
L 346 550 
L 330 546 
M 323 544 
L 337 544 
L 380 555 
L 364 555 
L 352 552 
L 308 552 
L 295 555 
L 280 555 
L 323 544 
" fill="#339541" />
<path d="
M 280 528 
L 298 528 
L 298 537 
Q 298 540 , 306 541 
Q 313 542 , 330 542 
Q 347 542 , 355 541 
Q 362 540 , 362 537 
L 362 528 
L 380 528 
L 380 537 
Q 380 540 , 367 542 
Q 355 543 , 330 543 
Q 306 543 , 293 542 
Q 280 540 , 280 537 
L 280 528 
" fill="#D21010" />
<path d="
M 380 506 
L 380 510 
Q 365 508 , 357 507 
Q 349 507 , 339 507 
Q 318 507 , 308 509 
Q 296 511 , 296 515 
Q 296 520 , 308 522 
Q 318 525 , 339 525 
Q 349 525 , 357 524 
Q 365 523 , 380 521 
L 380 525 
Q 369 526 , 359 527 
Q 349 527 , 338 527 
Q 311 527 , 296 524 
Q 280 521 , 280 516 
Q 280 510 , 296 507 
Q 311 504 , 338 504 
Q 349 504 , 359 505 
Q 370 505 , 380 506 
" fill="#545FFF" />
<path d="
M 364 477 
L 364 427 
L 335 427 
L 335 406 
L 380 406 
L 380 490 
Q 369 498 , 358 501 
Q 349 504 , 337 504 
Q 311 504 , 295 479 
Q 280 454 , 280 411 
Q 280 367 , 295 342 
Q 311 317 , 337 317 
Q 348 317 , 357 320 
Q 367 324 , 377 332 
L 377 356 
Q 364 345 , 356 342 
Q 347 339 , 338 339 
Q 317 339 , 306 357 
Q 296 374 , 296 411 
Q 296 447 , 306 465 
Q 317 483 , 338 483 
Q 347 483 , 354 481 
Q 361 479 , 364 477 
" fill="#F5C000" />
<path d="
M 385 547 
L 403 547 
L 403 551 
Q 403 552 , 411 553 
Q 418 553 , 435 553 
Q 452 553 , 460 553 
Q 467 552 , 467 551 
L 467 547 
L 485 547 
L 485 551 
Q 485 553 , 472 553 
Q 460 554 , 435 554 
Q 411 554 , 398 553 
Q 385 553 , 385 551 
L 385 547 
" fill="#D21010" />
<path d="
M 435 540 
L 417 543 
L 451 543 
L 435 540 
M 428 538 
L 442 538 
L 485 547 
L 469 547 
L 457 544 
L 413 544 
L 400 547 
L 385 547 
L 428 538 
" fill="#339541" />
<path d="
M 485 499 
L 485 505 
Q 470 501 , 462 500 
Q 454 499 , 444 499 
Q 423 499 , 413 503 
Q 401 507 , 401 515 
Q 401 524 , 413 529 
Q 423 533 , 444 533 
Q 454 533 , 462 532 
Q 470 531 , 485 526 
L 485 533 
Q 474 536 , 464 537 
Q 454 538 , 443 538 
Q 416 538 , 401 532 
Q 385 526 , 385 516 
Q 385 506 , 401 500 
Q 416 494 , 443 494 
Q 454 494 , 464 495 
Q 475 496 , 485 499 
" fill="#545FFF" />
<path d="
M 469 474 
L 469 438 
L 440 438 
L 440 423 
L 485 423 
L 485 484 
Q 474 489 , 463 492 
Q 454 494 , 442 494 
Q 416 494 , 400 476 
Q 385 458 , 385 426 
Q 385 394 , 400 376 
Q 416 358 , 442 358 
Q 453 358 , 462 360 
Q 472 363 , 482 369 
L 482 386 
Q 469 379 , 461 376 
Q 452 374 , 443 374 
Q 422 374 , 411 387 
Q 401 400 , 401 426 
Q 401 453 , 411 466 
Q 422 479 , 443 479 
Q 452 479 , 459 477 
Q 466 476 , 469 474 
" fill="#F5C000" />
<path d="
M 574 554 
L 574 553 
L 545 553 
L 545 552 
L 590 552 
L 590 554 
Q 579 555 , 568 555 
Q 559 555 , 547 555 
Q 521 555 , 505 554 
Q 490 554 , 490 552 
Q 490 551 , 505 551 
Q 521 550 , 547 550 
Q 558 550 , 567 550 
Q 577 550 , 587 550 
L 587 551 
Q 574 551 , 566 551 
Q 557 551 , 548 551 
Q 527 551 , 516 551 
Q 506 551 , 506 552 
Q 506 553 , 516 554 
Q 527 554 , 548 554 
Q 557 554 , 564 554 
Q 571 554 , 574 554 
" fill="#F5C000" />
<path d="
M 490 544 
L 508 544 
L 508 548 
Q 508 548 , 516 549 
Q 523 549 , 540 549 
Q 557 549 , 565 549 
Q 572 548 , 572 548 
L 572 544 
L 590 544 
L 590 548 
Q 590 549 , 577 549 
Q 565 550 , 540 550 
Q 516 550 , 503 549 
Q 490 549 , 490 548 
L 490 544 
" fill="#D21010" />
<path d="
M 540 538 
L 522 541 
L 556 541 
L 540 538 
M 533 537 
L 547 537 
L 590 544 
L 574 544 
L 562 542 
L 518 542 
L 505 544 
L 490 544 
L 533 537 
" fill="#339541" />
<path d="
M 590 524 
L 590 527 
Q 575 525 , 567 525 
Q 559 524 , 549 524 
Q 528 524 , 518 526 
Q 506 527 , 506 529 
Q 506 532 , 518 534 
Q 528 535 , 549 535 
Q 559 535 , 567 535 
Q 575 534 , 590 533 
L 590 535 
Q 579 536 , 569 536 
Q 559 537 , 548 537 
Q 521 537 , 506 535 
Q 490 533 , 490 530 
Q 490 527 , 506 525 
Q 521 523 , 548 523 
Q 559 523 , 569 523 
Q 580 524 , 590 524 
" fill="#545FFF" />
<path d="
M 645 552 
L 627 553 
L 661 553 
L 645 552 
M 638 552 
L 652 552 
L 695 554 
L 679 554 
L 667 554 
L 623 554 
L 610 554 
L 595 554 
L 638 552 
" fill="#339541" />
<path d="
M 695 549 
L 695 550 
Q 680 549 , 672 549 
Q 664 549 , 654 549 
Q 633 549 , 623 550 
Q 611 550 , 611 550 
Q 611 551 , 623 551 
Q 633 551 , 654 551 
Q 664 551 , 672 551 
Q 680 551 , 695 551 
L 695 551 
Q 684 552 , 674 552 
Q 664 552 , 653 552 
Q 626 552 , 611 551 
Q 595 551 , 595 550 
Q 595 550 , 611 549 
Q 626 549 , 653 549 
Q 664 549 , 674 549 
Q 685 549 , 695 549 
" fill="#545FFF" />
<path d="
M 595 546 
L 613 546 
L 613 548 
Q 613 548 , 621 548 
Q 628 548 , 645 548 
Q 662 548 , 670 548 
Q 677 548 , 677 548 
L 677 546 
L 695 546 
L 695 548 
Q 695 548 , 682 548 
Q 670 549 , 645 549 
Q 621 549 , 608 548 
Q 595 548 , 595 548 
L 595 546 
" fill="#D21010" />
<path d="
M 679 545 
L 679 544 
L 650 544 
L 650 543 
L 695 543 
L 695 545 
Q 684 545 , 673 545 
Q 664 546 , 652 546 
Q 626 546 , 610 545 
Q 595 544 , 595 543 
Q 595 542 , 610 542 
Q 626 541 , 652 541 
Q 663 541 , 672 541 
Q 682 541 , 692 541 
L 692 542 
Q 679 542 , 671 542 
Q 662 542 , 653 542 
Q 632 542 , 621 542 
Q 611 542 , 611 543 
Q 611 544 , 621 545 
Q 632 545 , 653 545 
Q 662 545 , 669 545 
Q 676 545 , 679 545 
" fill="#F5C000" />
<path d="M 65 55 L 65 555 " stroke="black" stroke-width="1.5"/>
<path d="M 55 555 L 65 555 " stroke="black" stroke-width="4"/>
<text text-anchor="end" x="50" y="555" font-size="50" alignment-baseline="middle">0</text>
<path d="M 55 305 L 65 305 " stroke="black" stroke-width="4"/>
<text text-anchor="end" x="50" y="305" font-size="50" alignment-baseline="middle">1</text>
<path d="M 55 55 L 65 55 " stroke="black" stroke-width="4"/>
<text text-anchor="end" x="50" y="55" font-size="50" alignment-baseline="middle">2</text>
<text text-anchor="middle" x="382" y="50" font-size="50" alignment-baseline="baseline"></text>
G<path d="
M 160 582 
L 126 595 
L 160 608 
L 157 611 
L 123 598 
L 123 623 
L 117 623 
L 117 599 
L 83 611 
L 80 608 
L 114 595 
L 80 582 
L 83 579 
L 117 591 
L 117 567 
L 123 567 
L 123 591 
L 157 579 
L 160 582 
" fill="black" />
<path d="
" fill="black" />
<path d="
M 211 567 
L 238 567 
L 238 623 
L 211 623 
L 211 567 
" fill="black" />
<path d="
" fill="black" />
<path d="
" fill="black" />
<path d="
M 316 567 
L 343 567 
L 343 623 
L 316 623 
L 316 567 
" fill="black" />
<path d="
" fill="black" />
<path d="
" fill="black" />
<path d="
M 421 567 
L 448 567 
L 448 623 
L 421 623 
L 421 567 
" fill="black" />
<path d="
" fill="black" />
<path d="
" fill="black" />
<path d="
M 526 567 
L 553 567 
L 553 623 
L 526 623 
L 526 567 
" fill="black" />
<path d="
" fill="black" />
<path d="
M 685 582 
L 651 595 
L 685 608 
L 682 611 
L 648 598 
L 648 623 
L 642 623 
L 642 599 
L 608 611 
L 605 608 
L 639 595 
L 605 582 
L 608 579 
L 642 591 
L 642 567 
L 648 567 
L 648 591 
L 682 579 
L 685 582 
" fill="black" />
</svg>
