<svg xmlns="http://www.w3.org/2000/svg"
viewBox="0 0 595 635">
<path d="
M 120 552 
L 102 553 
L 136 553 
L 120 552 
M 113 552 
L 127 552 
L 170 554 
L 154 554 
L 142 554 
L 98 554 
L 85 554 
L 70 554 
L 113 552 
" fill="#339541" />
<path d="
M 170 549 
L 170 550 
Q 155 549 , 147 549 
Q 139 549 , 129 549 
Q 108 549 , 98 550 
Q 86 550 , 86 550 
Q 86 551 , 98 551 
Q 108 551 , 129 551 
Q 139 551 , 147 551 
Q 155 551 , 170 551 
L 170 551 
Q 159 552 , 149 552 
Q 139 552 , 128 552 
Q 101 552 , 86 551 
Q 70 551 , 70 550 
Q 70 550 , 86 549 
Q 101 549 , 128 549 
Q 139 549 , 149 549 
Q 160 549 , 170 549 
" fill="#545FFF" />
<path d="
M 70 546 
L 88 546 
L 88 548 
Q 88 548 , 96 548 
Q 103 548 , 120 548 
Q 137 548 , 145 548 
Q 152 548 , 152 548 
L 152 546 
L 170 546 
L 170 548 
Q 170 548 , 157 549 
Q 145 549 , 120 549 
Q 96 549 , 83 549 
Q 70 548 , 70 548 
L 70 546 
" fill="#D21010" />
<path d="
M 154 545 
L 154 544 
L 125 544 
L 125 543 
L 170 543 
L 170 545 
Q 159 545 , 148 546 
Q 139 546 , 127 546 
Q 101 546 , 85 545 
Q 70 544 , 70 543 
Q 70 542 , 85 542 
Q 101 541 , 127 541 
Q 138 541 , 147 541 
Q 157 541 , 167 541 
L 167 542 
Q 154 542 , 146 542 
Q 137 542 , 128 542 
Q 107 542 , 96 542 
Q 86 542 , 86 543 
Q 86 544 , 96 545 
Q 107 545 , 128 545 
Q 137 545 , 144 545 
Q 151 545 , 154 545 
" fill="#F5C000" />
<path d="
M 225 549 
L 207 552 
L 241 552 
L 225 549 
M 218 548 
L 232 548 
L 275 554 
L 259 554 
L 247 552 
L 203 552 
L 190 554 
L 175 554 
L 218 548 
" fill="#339541" />
<path d="
M 275 529 
L 275 532 
Q 260 530 , 252 530 
Q 244 529 , 234 529 
Q 213 529 , 203 531 
Q 191 533 , 191 537 
Q 191 541 , 203 543 
Q 213 545 , 234 545 
Q 244 545 , 252 545 
Q 260 544 , 275 542 
L 275 545 
Q 264 546 , 254 547 
Q 244 547 , 233 547 
Q 206 547 , 191 545 
Q 175 542 , 175 537 
Q 175 533 , 191 530 
Q 206 527 , 233 527 
Q 244 527 , 254 528 
Q 265 528 , 275 529 
" fill="#545FFF" />
<path d="
M 175 502 
L 193 502 
L 193 516 
Q 193 521 , 201 522 
Q 208 524 , 225 524 
Q 242 524 , 250 522 
Q 257 521 , 257 516 
L 257 502 
L 275 502 
L 275 517 
Q 275 522 , 262 524 
Q 250 527 , 225 527 
Q 201 527 , 188 524 
Q 175 522 , 175 517 
L 175 502 
" fill="#D21010" />
<path d="
M 259 486 
L 259 458 
L 230 458 
L 230 446 
L 275 446 
L 275 493 
Q 264 497 , 253 499 
Q 244 501 , 232 501 
Q 206 501 , 190 487 
Q 175 473 , 175 449 
Q 175 424 , 190 410 
Q 206 396 , 232 396 
Q 243 396 , 252 398 
Q 262 400 , 272 405 
L 272 418 
Q 259 412 , 251 410 
Q 242 409 , 233 409 
Q 212 409 , 201 418 
Q 191 428 , 191 449 
Q 191 469 , 201 479 
Q 212 489 , 233 489 
Q 242 489 , 249 488 
Q 256 487 , 259 486 
" fill="#F5C000" />
<path d="
M 330 549 
L 312 552 
L 346 552 
L 330 549 
M 323 548 
L 337 548 
L 380 555 
L 364 555 
L 352 553 
L 308 553 
L 295 555 
L 280 555 
L 323 548 
" fill="#339541" />
<path d="
M 280 537 
L 298 537 
L 298 543 
Q 298 545 , 306 546 
Q 313 546 , 330 546 
Q 347 546 , 355 546 
Q 362 545 , 362 543 
L 362 537 
L 380 537 
L 380 543 
Q 380 545 , 367 547 
Q 355 548 , 330 548 
Q 306 548 , 293 547 
Q 280 545 , 280 543 
L 280 537 
" fill="#D21010" />
<path d="
M 380 500 
L 380 506 
Q 365 502 , 357 501 
Q 349 500 , 339 500 
Q 318 500 , 308 504 
Q 296 508 , 296 516 
Q 296 524 , 308 528 
Q 318 532 , 339 532 
Q 349 532 , 357 531 
Q 365 530 , 380 526 
L 380 532 
Q 369 534 , 359 535 
Q 349 536 , 338 536 
Q 311 536 , 296 531 
Q 280 525 , 280 516 
Q 280 507 , 296 501 
Q 311 496 , 338 496 
Q 349 496 , 359 497 
Q 370 498 , 380 500 
" fill="#545FFF" />
<path d="
M 364 479 
L 364 447 
L 335 447 
L 335 434 
L 380 434 
L 380 487 
Q 369 492 , 358 493 
Q 349 495 , 337 496 
Q 311 496 , 295 480 
Q 280 464 , 280 436 
Q 280 409 , 295 393 
Q 311 377 , 337 377 
Q 348 377 , 357 379 
Q 367 381 , 377 387 
L 377 402 
Q 364 395 , 356 393 
Q 347 391 , 338 391 
Q 317 391 , 306 402 
Q 296 413 , 296 436 
Q 296 460 , 306 471 
Q 317 482 , 338 482 
Q 347 482 , 354 481 
Q 361 480 , 364 479 
" fill="#F5C000" />
<path d="
M 435 550 
L 417 553 
L 451 553 
L 435 550 
M 428 549 
L 442 549 
L 485 555 
L 469 555 
L 457 553 
L 413 553 
L 400 555 
L 385 555 
L 428 549 
" fill="#339541" />
<path d="
M 385 542 
L 403 542 
L 403 546 
Q 403 547 , 411 547 
Q 418 548 , 435 548 
Q 452 548 , 460 547 
Q 467 547 , 467 546 
L 467 542 
L 485 542 
L 485 546 
Q 485 547 , 472 548 
Q 460 549 , 435 549 
Q 411 549 , 398 548 
Q 385 547 , 385 546 
L 385 542 
" fill="#D21010" />
<path d="
M 485 524 
L 485 527 
Q 470 525 , 462 525 
Q 454 524 , 444 524 
Q 423 524 , 413 526 
Q 401 528 , 401 532 
Q 401 536 , 413 538 
Q 423 539 , 444 539 
Q 454 539 , 462 539 
Q 470 538 , 485 537 
L 485 540 
Q 474 541 , 464 541 
Q 454 542 , 443 542 
Q 416 542 , 401 539 
Q 385 536 , 385 532 
Q 385 527 , 401 525 
Q 416 522 , 443 522 
Q 454 522 , 464 522 
Q 475 523 , 485 524 
" fill="#545FFF" />
<path d="
M 469 518 
L 469 512 
L 440 512 
L 440 510 
L 485 510 
L 485 520 
Q 474 521 , 463 521 
Q 454 521 , 442 521 
Q 416 521 , 400 518 
Q 385 516 , 385 511 
Q 385 506 , 400 503 
Q 416 500 , 442 500 
Q 453 500 , 462 500 
Q 472 501 , 482 502 
L 482 504 
Q 469 503 , 461 503 
Q 452 503 , 443 503 
Q 422 503 , 411 505 
Q 401 507 , 401 511 
Q 401 515 , 411 517 
Q 422 519 , 443 519 
Q 452 519 , 459 519 
Q 466 518 , 469 518 
" fill="#F5C000" />
<path d="
M 540 552 
L 522 553 
L 556 553 
L 540 552 
M 533 552 
L 547 552 
L 590 554 
L 574 554 
L 562 554 
L 518 554 
L 505 554 
L 490 554 
L 533 552 
" fill="#339541" />
<path d="
M 590 549 
L 590 550 
Q 575 549 , 567 549 
Q 559 549 , 549 549 
Q 528 549 , 518 550 
Q 506 550 , 506 550 
Q 506 551 , 518 551 
Q 528 551 , 549 551 
Q 559 551 , 567 551 
Q 575 551 , 590 551 
L 590 551 
Q 579 552 , 569 552 
Q 559 552 , 548 552 
Q 521 552 , 506 551 
Q 490 551 , 490 550 
Q 490 550 , 506 549 
Q 521 549 , 548 549 
Q 559 549 , 569 549 
Q 580 549 , 590 549 
" fill="#545FFF" />
<path d="
M 490 546 
L 508 546 
L 508 548 
Q 508 548 , 516 548 
Q 523 548 , 540 548 
Q 557 548 , 565 548 
Q 572 548 , 572 548 
L 572 546 
L 590 546 
L 590 548 
Q 590 548 , 577 549 
Q 565 549 , 540 549 
Q 516 549 , 503 549 
Q 490 548 , 490 548 
L 490 546 
" fill="#D21010" />
<path d="
M 574 545 
L 574 544 
L 545 544 
L 545 543 
L 590 543 
L 590 545 
Q 579 545 , 568 546 
Q 559 546 , 547 546 
Q 521 546 , 505 545 
Q 490 544 , 490 543 
Q 490 542 , 505 542 
Q 521 541 , 547 541 
Q 558 541 , 567 541 
Q 577 541 , 587 541 
L 587 542 
Q 574 542 , 566 542 
Q 557 542 , 548 542 
Q 527 542 , 516 542 
Q 506 542 , 506 543 
Q 506 544 , 516 545 
Q 527 545 , 548 545 
Q 557 545 , 564 545 
Q 571 545 , 574 545 
" fill="#F5C000" />
<path d="M 65 55 L 65 555 " stroke="black" stroke-width="1.5"/>
<path d="M 55 555 L 65 555 " stroke="black" stroke-width="4"/>
<text text-anchor="end" x="50" y="555" font-size="50" alignment-baseline="middle">0</text>
<path d="M 55 305 L 65 305 " stroke="black" stroke-width="4"/>
<text text-anchor="end" x="50" y="305" font-size="50" alignment-baseline="middle">1</text>
<path d="M 55 55 L 65 55 " stroke="black" stroke-width="4"/>
<text text-anchor="end" x="50" y="55" font-size="50" alignment-baseline="middle">2</text>
<text text-anchor="middle" x="330" y="50" font-size="50" alignment-baseline="baseline"></text>
G<path d="
M 160 582 
L 126 595 
L 160 608 
L 157 611 
L 123 598 
L 123 623 
L 117 623 
L 117 599 
L 83 611 
L 80 608 
L 114 595 
L 80 582 
L 83 579 
L 117 591 
L 117 567 
L 123 567 
L 123 591 
L 157 579 
L 160 582 
" fill="black" />
<path d="
" fill="black" />
<path d="
M 211 567 
L 238 567 
L 238 623 
L 211 623 
L 211 567 
" fill="black" />
<path d="
" fill="black" />
<path d="
" fill="black" />
<path d="
M 316 567 
L 343 567 
L 343 623 
L 316 623 
L 316 567 
" fill="black" />
<path d="
" fill="black" />
<path d="
" fill="black" />
<path d="
M 421 567 
L 448 567 
L 448 623 
L 421 623 
L 421 567 
" fill="black" />
<path d="
" fill="black" />
<path d="
M 580 582 
L 546 595 
L 580 608 
L 577 611 
L 543 598 
L 543 623 
L 537 623 
L 537 599 
L 503 611 
L 500 608 
L 534 595 
L 500 582 
L 503 579 
L 537 591 
L 537 567 
L 543 567 
L 543 591 
L 577 579 
L 580 582 
" fill="black" />
</svg>
