<svg xmlns="http://www.w3.org/2000/svg"
viewBox="0 0 1435 635">
<path d="
M 170 554 
L 170 554 
Q 155 554 , 147 554 
Q 139 554 , 129 554 
Q 108 554 , 98 554 
Q 86 554 , 86 554 
Q 86 554 , 98 554 
Q 108 554 , 129 554 
Q 139 554 , 147 554 
Q 155 554 , 170 554 
L 170 554 
Q 159 554 , 149 554 
Q 139 554 , 128 554 
Q 101 554 , 86 554 
Q 70 554 , 70 554 
Q 70 554 , 86 554 
Q 101 554 , 128 554 
Q 139 554 , 149 554 
Q 160 554 , 170 554 
" fill="#545FFF" />
<path d="
M 154 553 
L 154 553 
L 125 553 
L 125 553 
L 170 553 
L 170 553 
Q 159 553 , 148 553 
Q 139 553 , 127 553 
Q 101 553 , 85 553 
Q 70 553 , 70 553 
Q 70 553 , 85 553 
Q 101 553 , 127 553 
Q 138 553 , 147 553 
Q 157 553 , 167 553 
L 167 553 
Q 154 553 , 146 553 
Q 137 553 , 128 553 
Q 107 553 , 96 553 
Q 86 553 , 86 553 
Q 86 553 , 96 553 
Q 107 553 , 128 553 
Q 137 553 , 144 553 
Q 151 553 , 154 553 
" fill="#F5C000" />
<path d="
M 120 552 
L 102 552 
L 136 552 
L 120 552 
M 113 552 
L 127 552 
L 170 552 
L 154 552 
L 142 552 
L 98 552 
L 85 552 
L 70 552 
L 113 552 
" fill="#339541" />
<path d="
M 70 551 
L 88 551 
L 88 551 
Q 88 551 , 96 551 
Q 103 551 , 120 551 
Q 137 551 , 145 551 
Q 152 551 , 152 551 
L 152 551 
L 170 551 
L 170 551 
Q 170 551 , 157 551 
Q 145 551 , 120 551 
Q 96 551 , 83 551 
Q 70 551 , 70 551 
L 70 551 
" fill="#D21010" />
<path d="
M 200 553 
L 191 554 
L 208 554 
L 200 553 
M 196 553 
L 204 553 
L 225 554 
L 217 554 
L 211 554 
L 189 554 
L 182 554 
L 175 554 
L 196 553 
" fill="#339541" />
<path d="
M 225 553 
L 234 553 
L 234 554 
Q 234 554 , 238 554 
Q 241 554 , 250 554 
Q 259 554 , 262 554 
Q 266 554 , 266 554 
L 266 553 
L 275 553 
L 275 554 
Q 275 554 , 269 554 
Q 262 554 , 250 554 
Q 238 554 , 231 554 
Q 225 554 , 225 554 
L 225 553 
" fill="lightgray" />
<path d="
M 225 548 
L 225 549 
Q 218 548 , 214 548 
Q 209 548 , 204 548 
Q 194 548 , 189 548 
Q 183 549 , 183 550 
Q 183 551 , 189 552 
Q 194 552 , 204 552 
Q 209 552 , 214 552 
Q 218 552 , 225 551 
L 225 552 
Q 220 553 , 214 553 
Q 210 553 , 204 553 
Q 190 553 , 183 552 
Q 175 551 , 175 550 
Q 175 549 , 183 548 
Q 190 547 , 204 547 
Q 210 547 , 215 547 
Q 220 547 , 225 548 
" fill="#545FFF" />
<path d="
M 267 552 
L 267 550 
L 253 550 
L 253 550 
L 275 550 
L 275 552 
Q 270 553 , 264 553 
Q 259 553 , 253 553 
Q 240 553 , 233 552 
Q 225 551 , 225 550 
Q 225 549 , 233 548 
Q 240 547 , 253 547 
Q 259 547 , 264 547 
Q 269 547 , 274 547 
L 274 548 
Q 267 548 , 263 548 
Q 259 548 , 254 548 
Q 244 548 , 238 548 
Q 233 549 , 233 550 
Q 233 551 , 238 552 
Q 244 552 , 254 552 
Q 259 552 , 262 552 
Q 266 552 , 267 552 
" fill="lightgray" />
<path d="
M 175 541 
L 184 541 
L 184 544 
Q 184 545 , 188 546 
Q 191 546 , 200 546 
Q 209 546 , 212 546 
Q 216 545 , 216 544 
L 216 541 
L 225 541 
L 225 545 
Q 225 546 , 219 546 
Q 212 547 , 200 547 
Q 188 547 , 181 546 
Q 175 546 , 175 545 
L 175 541 
" fill="#D21010" />
<path d="
M 250 542 
L 241 544 
L 258 544 
L 250 542 
M 246 541 
L 254 541 
L 275 547 
L 267 547 
L 261 545 
L 239 545 
L 232 547 
L 225 547 
L 246 541 
" fill="lightgray" />
<path d="
M 217 539 
L 217 537 
L 203 537 
L 203 536 
L 225 536 
L 225 540 
Q 220 540 , 214 541 
Q 209 541 , 203 541 
Q 190 541 , 183 540 
Q 175 538 , 175 536 
Q 175 534 , 183 533 
Q 190 532 , 203 532 
Q 209 532 , 214 532 
Q 219 532 , 224 533 
L 224 534 
Q 217 533 , 213 533 
Q 209 533 , 204 533 
Q 194 533 , 188 534 
Q 183 535 , 183 536 
Q 183 538 , 188 539 
Q 194 540 , 204 540 
Q 209 540 , 212 540 
Q 216 540 , 217 539 
" fill="#F5C000" />
<path d="
M 275 533 
L 275 534 
Q 268 533 , 264 533 
Q 259 533 , 254 533 
Q 244 533 , 239 534 
Q 233 535 , 233 536 
Q 233 538 , 239 539 
Q 244 540 , 254 540 
Q 259 540 , 264 540 
Q 268 539 , 275 538 
L 275 540 
Q 270 540 , 264 541 
Q 260 541 , 254 541 
Q 240 541 , 233 540 
Q 225 538 , 225 536 
Q 225 534 , 233 533 
Q 240 532 , 254 532 
Q 260 532 , 265 532 
Q 270 532 , 275 533 
" fill="lightgray" />
<path d="
M 217 530 
L 217 527 
L 203 527 
L 203 526 
L 225 526 
L 225 531 
Q 220 531 , 214 531 
Q 209 531 , 203 531 
Q 190 531 , 183 530 
Q 175 529 , 175 527 
Q 175 524 , 183 523 
Q 190 522 , 203 522 
Q 209 522 , 214 522 
Q 219 522 , 224 523 
L 224 524 
Q 217 523 , 213 523 
Q 209 523 , 204 523 
Q 194 523 , 188 524 
Q 183 525 , 183 527 
Q 183 528 , 188 529 
Q 194 530 , 204 530 
Q 209 530 , 212 530 
Q 216 530 , 217 530 
" fill="#F5C000" />
<path d="
M 225 522 
L 234 522 
L 234 527 
Q 234 529 , 238 530 
Q 241 530 , 250 530 
Q 259 530 , 262 530 
Q 266 529 , 266 527 
L 266 522 
L 275 522 
L 275 528 
Q 275 529 , 269 530 
Q 262 531 , 250 531 
Q 238 531 , 231 530 
Q 225 529 , 225 528 
L 225 522 
" fill="lightgray" />
<path d="
M 175 506 
L 184 506 
L 184 515 
Q 184 518 , 188 519 
Q 191 520 , 200 520 
Q 209 520 , 212 519 
Q 216 518 , 216 515 
L 216 506 
L 225 506 
L 225 515 
Q 225 518 , 219 520 
Q 212 521 , 200 521 
Q 188 521 , 181 520 
Q 175 518 , 175 515 
L 175 506 
" fill="#D21010" />
<path d="
M 267 519 
L 267 515 
L 253 515 
L 253 513 
L 275 513 
L 275 520 
Q 270 521 , 264 521 
Q 259 521 , 253 521 
Q 240 521 , 233 519 
Q 225 517 , 225 514 
Q 225 510 , 233 508 
Q 240 506 , 253 506 
Q 259 506 , 264 506 
Q 269 507 , 274 507 
L 274 509 
Q 267 508 , 263 508 
Q 259 508 , 254 508 
Q 244 508 , 238 509 
Q 233 511 , 233 514 
Q 233 517 , 238 518 
Q 244 520 , 254 520 
Q 259 520 , 262 520 
Q 266 519 , 267 519 
" fill="lightgray" />
<path d="
M 330 554 
L 312 555 
L 346 555 
L 330 554 
M 323 554 
L 337 554 
L 380 555 
L 364 555 
L 352 555 
L 308 555 
L 295 555 
L 280 555 
L 323 554 
" fill="#339541" />
<path d="
M 280 552 
L 298 552 
L 298 553 
Q 298 553 , 306 553 
Q 313 553 , 330 553 
Q 347 553 , 355 553 
Q 362 553 , 362 553 
L 362 552 
L 380 552 
L 380 553 
Q 380 553 , 367 553 
Q 355 553 , 330 553 
Q 306 553 , 293 553 
Q 280 553 , 280 553 
L 280 552 
" fill="#D21010" />
<path d="
M 380 550 
L 380 550 
Q 365 550 , 357 550 
Q 349 550 , 339 550 
Q 318 550 , 308 550 
Q 296 550 , 296 550 
Q 296 551 , 308 551 
Q 318 551 , 339 551 
Q 349 551 , 357 551 
Q 365 551 , 380 551 
L 380 551 
Q 369 551 , 359 551 
Q 349 551 , 338 551 
Q 311 551 , 296 551 
Q 280 551 , 280 551 
Q 280 550 , 296 550 
Q 311 550 , 338 550 
Q 349 550 , 359 550 
Q 370 550 , 380 550 
" fill="#545FFF" />
<path d="
M 364 549 
L 364 549 
L 335 549 
L 335 549 
L 380 549 
L 380 549 
Q 369 549 , 358 549 
Q 349 549 , 337 549 
Q 311 549 , 295 549 
Q 280 549 , 280 549 
Q 280 548 , 295 548 
Q 311 548 , 337 548 
Q 348 548 , 357 548 
Q 367 548 , 377 548 
L 377 548 
Q 364 548 , 356 548 
Q 347 548 , 338 548 
Q 317 548 , 306 548 
Q 296 548 , 296 549 
Q 296 549 , 306 549 
Q 317 549 , 338 549 
Q 347 549 , 354 549 
Q 361 549 , 364 549 
" fill="#F5C000" />
<path d="
M 385 553 
L 394 553 
L 394 554 
Q 394 554 , 398 555 
Q 401 555 , 410 555 
Q 419 555 , 422 555 
Q 426 554 , 426 554 
L 426 553 
L 435 553 
L 435 554 
Q 435 555 , 429 555 
Q 422 555 , 410 555 
Q 398 555 , 391 555 
Q 385 555 , 385 554 
L 385 553 
" fill="#D21010" />
<path d="
M 460 553 
L 451 554 
L 468 554 
L 460 553 
M 456 553 
L 464 553 
L 485 555 
L 477 555 
L 471 554 
L 449 554 
L 442 555 
L 435 555 
L 456 553 
" fill="lightgray" />
<path d="
M 435 550 
L 435 551 
Q 428 550 , 424 550 
Q 419 550 , 414 550 
Q 404 550 , 399 551 
Q 393 551 , 393 551 
Q 393 552 , 399 552 
Q 404 552 , 414 552 
Q 419 552 , 424 552 
Q 428 552 , 435 552 
L 435 552 
Q 430 552 , 424 553 
Q 420 553 , 414 553 
Q 400 553 , 393 552 
Q 385 552 , 385 551 
Q 385 551 , 393 550 
Q 400 550 , 414 550 
Q 420 550 , 425 550 
Q 430 550 , 435 550 
" fill="#545FFF" />
<path d="
M 477 552 
L 477 552 
L 463 552 
L 463 551 
L 485 551 
L 485 552 
Q 480 552 , 474 553 
Q 469 553 , 463 553 
Q 450 553 , 443 552 
Q 435 552 , 435 551 
Q 435 551 , 443 550 
Q 450 550 , 463 550 
Q 469 550 , 474 550 
Q 479 550 , 484 550 
L 484 551 
Q 477 550 , 473 550 
Q 469 550 , 464 550 
Q 454 550 , 448 551 
Q 443 551 , 443 551 
Q 443 552 , 448 552 
Q 454 552 , 464 552 
Q 469 552 , 472 552 
Q 476 552 , 477 552 
" fill="lightgray" />
<path d="
M 410 547 
L 401 548 
L 418 548 
L 410 547 
M 406 546 
L 414 546 
L 435 549 
L 427 549 
L 421 548 
L 399 548 
L 392 549 
L 385 549 
L 406 546 
" fill="#339541" />
<path d="
M 435 546 
L 444 546 
L 444 548 
Q 444 548 , 448 549 
Q 451 549 , 460 549 
Q 469 549 , 472 549 
Q 476 548 , 476 548 
L 476 546 
L 485 546 
L 485 548 
Q 485 549 , 479 549 
Q 472 549 , 460 549 
Q 448 549 , 441 549 
Q 435 549 , 435 548 
L 435 546 
" fill="lightgray" />
<path d="
M 385 541 
L 394 541 
L 394 544 
Q 394 544 , 398 545 
Q 401 545 , 410 545 
Q 419 545 , 422 545 
Q 426 544 , 426 544 
L 426 541 
L 435 541 
L 435 544 
Q 435 545 , 429 545 
Q 422 546 , 410 546 
Q 398 546 , 391 545 
Q 385 545 , 385 544 
L 385 541 
" fill="#D21010" />
<path d="
M 477 545 
L 477 544 
L 463 544 
L 463 543 
L 485 543 
L 485 545 
Q 480 545 , 474 546 
Q 469 546 , 463 546 
Q 450 546 , 443 545 
Q 435 544 , 435 543 
Q 435 542 , 443 542 
Q 450 541 , 463 541 
Q 469 541 , 474 541 
Q 479 541 , 484 541 
L 484 542 
Q 477 542 , 473 542 
Q 469 542 , 464 542 
Q 454 542 , 448 542 
Q 443 542 , 443 543 
Q 443 544 , 448 545 
Q 454 545 , 464 545 
Q 469 545 , 472 545 
Q 476 545 , 477 545 
" fill="lightgray" />
<path d="
M 427 540 
L 427 538 
L 413 538 
L 413 538 
L 435 538 
L 435 540 
Q 430 540 , 424 540 
Q 419 540 , 413 541 
Q 400 541 , 393 540 
Q 385 539 , 385 538 
Q 385 536 , 393 536 
Q 400 535 , 413 535 
Q 419 535 , 424 535 
Q 429 535 , 434 535 
L 434 536 
Q 427 536 , 423 536 
Q 419 536 , 414 536 
Q 404 536 , 398 536 
Q 393 537 , 393 538 
Q 393 539 , 398 539 
Q 404 540 , 414 540 
Q 419 540 , 422 540 
Q 426 540 , 427 540 
" fill="#F5C000" />
<path d="
M 435 535 
L 444 535 
L 444 538 
Q 444 539 , 448 540 
Q 451 540 , 460 540 
Q 469 540 , 472 540 
Q 476 539 , 476 538 
L 476 535 
L 485 535 
L 485 538 
Q 485 539 , 479 540 
Q 472 541 , 460 541 
Q 448 541 , 441 540 
Q 435 539 , 435 538 
L 435 535 
" fill="lightgray" />
<path d="
M 427 534 
L 427 532 
L 413 532 
L 413 531 
L 435 531 
L 435 534 
Q 430 535 , 424 535 
Q 419 535 , 413 535 
Q 400 535 , 393 534 
Q 385 533 , 385 531 
Q 385 530 , 393 529 
Q 400 528 , 413 528 
Q 419 528 , 424 528 
Q 429 528 , 434 529 
L 434 529 
Q 427 529 , 423 529 
Q 419 529 , 414 529 
Q 404 529 , 398 529 
Q 393 530 , 393 531 
Q 393 533 , 398 534 
Q 404 534 , 414 534 
Q 419 534 , 422 534 
Q 426 534 , 427 534 
" fill="#F5C000" />
<path d="
M 485 529 
L 485 530 
Q 478 529 , 474 529 
Q 469 529 , 464 529 
Q 454 529 , 449 529 
Q 443 530 , 443 531 
Q 443 533 , 449 534 
Q 454 534 , 464 534 
Q 469 534 , 474 534 
Q 478 534 , 485 533 
L 485 534 
Q 480 535 , 474 535 
Q 470 535 , 464 535 
Q 450 535 , 443 534 
Q 435 533 , 435 531 
Q 435 530 , 443 529 
Q 450 528 , 464 528 
Q 470 528 , 475 528 
Q 480 528 , 485 529 
" fill="lightgray" />
<path d="
M 540 552 
L 522 553 
L 556 553 
L 540 552 
M 533 551 
L 547 551 
L 590 555 
L 574 555 
L 562 554 
L 518 554 
L 505 555 
L 490 555 
L 533 551 
" fill="#339541" />
<path d="
M 590 544 
L 590 545 
Q 575 544 , 567 544 
Q 559 544 , 549 544 
Q 528 544 , 518 544 
Q 506 545 , 506 546 
Q 506 548 , 518 549 
Q 528 549 , 549 549 
Q 559 549 , 567 549 
Q 575 549 , 590 548 
L 590 549 
Q 579 550 , 569 550 
Q 559 550 , 548 550 
Q 521 550 , 506 549 
Q 490 548 , 490 547 
Q 490 545 , 506 544 
Q 521 543 , 548 543 
Q 559 543 , 569 543 
Q 580 543 , 590 544 
" fill="#545FFF" />
<path d="
M 490 527 
L 508 527 
L 508 536 
Q 508 539 , 516 540 
Q 523 541 , 540 541 
Q 557 541 , 565 540 
Q 572 539 , 572 536 
L 572 527 
L 590 527 
L 590 537 
Q 590 540 , 577 541 
Q 565 543 , 540 543 
Q 516 543 , 503 541 
Q 490 540 , 490 537 
L 490 527 
" fill="#D21010" />
<path d="
M 574 523 
L 574 518 
L 545 518 
L 545 516 
L 590 516 
L 590 525 
Q 579 526 , 568 526 
Q 559 526 , 547 526 
Q 521 526 , 505 524 
Q 490 521 , 490 516 
Q 490 511 , 505 509 
Q 521 506 , 547 506 
Q 558 506 , 567 506 
Q 577 507 , 587 508 
L 587 510 
Q 574 509 , 566 509 
Q 557 508 , 548 508 
Q 527 508 , 516 510 
Q 506 512 , 506 516 
Q 506 520 , 516 522 
Q 527 524 , 548 524 
Q 557 524 , 564 524 
Q 571 524 , 574 523 
" fill="#F5C000" />
<path d="
M 679 555 
L 679 554 
L 650 554 
L 650 554 
L 695 554 
L 695 555 
Q 684 555 , 673 555 
Q 664 555 , 652 555 
Q 626 555 , 610 555 
Q 595 554 , 595 554 
Q 595 554 , 610 554 
Q 626 554 , 652 554 
Q 663 554 , 672 554 
Q 682 554 , 692 554 
L 692 554 
Q 679 554 , 671 554 
Q 662 554 , 653 554 
Q 632 554 , 621 554 
Q 611 554 , 611 554 
Q 611 554 , 621 555 
Q 632 555 , 653 555 
Q 662 555 , 669 555 
Q 676 555 , 679 555 
" fill="#F5C000" />
<path d="
M 695 553 
L 695 553 
Q 680 553 , 672 553 
Q 664 553 , 654 553 
Q 633 553 , 623 553 
Q 611 553 , 611 553 
Q 611 554 , 623 554 
Q 633 554 , 654 554 
Q 664 554 , 672 554 
Q 680 554 , 695 554 
L 695 554 
Q 684 554 , 674 554 
Q 664 554 , 653 554 
Q 626 554 , 611 554 
Q 595 554 , 595 553 
Q 595 553 , 611 553 
Q 626 553 , 653 553 
Q 664 553 , 674 553 
Q 685 553 , 695 553 
" fill="#545FFF" />
<path d="
M 595 552 
L 613 552 
L 613 552 
Q 613 553 , 621 553 
Q 628 553 , 645 553 
Q 662 553 , 670 553 
Q 677 553 , 677 552 
L 677 552 
L 695 552 
L 695 552 
Q 695 553 , 682 553 
Q 670 553 , 645 553 
Q 621 553 , 608 553 
Q 595 553 , 595 552 
L 595 552 
" fill="#D21010" />
<path d="
M 645 551 
L 627 552 
L 661 552 
L 645 551 
M 638 551 
L 652 551 
L 695 552 
L 679 552 
L 667 552 
L 623 552 
L 610 552 
L 595 552 
L 638 551 
" fill="#339541" />
<path d="
M 800 554 
L 800 554 
Q 785 554 , 777 554 
Q 769 554 , 759 554 
Q 738 554 , 728 554 
Q 716 554 , 716 554 
Q 716 554 , 728 554 
Q 738 554 , 759 554 
Q 769 554 , 777 554 
Q 785 554 , 800 554 
L 800 554 
Q 789 554 , 779 554 
Q 769 554 , 758 554 
Q 731 554 , 716 554 
Q 700 554 , 700 554 
Q 700 554 , 716 554 
Q 731 554 , 758 554 
Q 769 554 , 779 554 
Q 790 554 , 800 554 
" fill="#545FFF" />
<path d="
M 784 553 
L 784 553 
L 755 553 
L 755 553 
L 800 553 
L 800 553 
Q 789 553 , 778 553 
Q 769 553 , 757 553 
Q 731 553 , 715 553 
Q 700 553 , 700 553 
Q 700 553 , 715 553 
Q 731 553 , 757 553 
Q 768 553 , 777 553 
Q 787 553 , 797 553 
L 797 553 
Q 784 553 , 776 553 
Q 767 553 , 758 553 
Q 737 553 , 726 553 
Q 716 553 , 716 553 
Q 716 553 , 726 553 
Q 737 553 , 758 553 
Q 767 553 , 774 553 
Q 781 553 , 784 553 
" fill="#F5C000" />
<path d="
M 750 552 
L 732 552 
L 766 552 
L 750 552 
M 743 552 
L 757 552 
L 800 552 
L 784 552 
L 772 552 
L 728 552 
L 715 552 
L 700 552 
L 743 552 
" fill="#339541" />
<path d="
M 700 551 
L 718 551 
L 718 551 
Q 718 551 , 726 551 
Q 733 551 , 750 551 
Q 767 551 , 775 551 
Q 782 551 , 782 551 
L 782 551 
L 800 551 
L 800 551 
Q 800 551 , 787 551 
Q 775 551 , 750 551 
Q 726 551 , 713 551 
Q 700 551 , 700 551 
L 700 551 
" fill="#D21010" />
<path d="
M 855 552 
L 837 553 
L 871 553 
L 855 552 
M 848 551 
L 862 551 
L 905 555 
L 889 555 
L 877 554 
L 833 554 
L 820 555 
L 805 555 
L 848 551 
" fill="#339541" />
<path d="
M 905 547 
L 905 548 
Q 890 548 , 882 548 
Q 874 547 , 864 547 
Q 843 547 , 833 548 
Q 821 548 , 821 549 
Q 821 550 , 833 550 
Q 843 550 , 864 550 
Q 874 550 , 882 550 
Q 890 550 , 905 550 
L 905 550 
Q 894 551 , 884 551 
Q 874 551 , 863 551 
Q 836 551 , 821 550 
Q 805 550 , 805 549 
Q 805 548 , 821 548 
Q 836 547 , 863 547 
Q 874 547 , 884 547 
Q 895 547 , 905 547 
" fill="#545FFF" />
<path d="
M 805 538 
L 823 538 
L 823 543 
Q 823 544 , 831 545 
Q 838 546 , 855 546 
Q 872 546 , 880 545 
Q 887 544 , 887 543 
L 887 538 
L 905 538 
L 905 543 
Q 905 545 , 892 546 
Q 880 546 , 855 546 
Q 831 546 , 818 546 
Q 805 545 , 805 543 
L 805 538 
" fill="#D21010" />
<path d="
M 889 536 
L 889 533 
L 860 533 
L 860 532 
L 905 532 
L 905 537 
Q 894 537 , 883 537 
Q 874 537 , 862 537 
Q 836 537 , 820 536 
Q 805 535 , 805 532 
Q 805 530 , 820 528 
Q 836 527 , 862 527 
Q 873 527 , 882 527 
Q 892 527 , 902 528 
L 902 529 
Q 889 529 , 881 528 
Q 872 528 , 863 528 
Q 842 528 , 831 529 
Q 821 530 , 821 532 
Q 821 534 , 831 535 
Q 842 536 , 863 536 
Q 872 536 , 879 536 
Q 886 536 , 889 536 
" fill="#F5C000" />
<path d="
M 910 553 
L 919 553 
L 919 554 
Q 919 554 , 923 555 
Q 926 555 , 935 555 
Q 944 555 , 947 555 
Q 951 554 , 951 554 
L 951 553 
L 960 553 
L 960 554 
Q 960 555 , 954 555 
Q 947 555 , 935 555 
Q 923 555 , 916 555 
Q 910 555 , 910 554 
L 910 553 
" fill="lightgray" />
<path d="
M 985 553 
L 976 554 
L 993 554 
L 985 553 
M 981 553 
L 989 553 
L 1010 555 
L 1002 555 
L 996 554 
L 974 554 
L 967 555 
L 960 555 
L 981 553 
" fill="#339541" />
<path d="
M 960 550 
L 960 551 
Q 953 550 , 949 550 
Q 944 550 , 939 550 
Q 929 550 , 924 551 
Q 918 551 , 918 551 
Q 918 552 , 924 552 
Q 929 552 , 939 552 
Q 944 552 , 949 552 
Q 953 552 , 960 552 
L 960 552 
Q 955 552 , 949 553 
Q 945 553 , 939 553 
Q 925 553 , 918 552 
Q 910 552 , 910 551 
Q 910 551 , 918 550 
Q 925 550 , 939 550 
Q 945 550 , 950 550 
Q 955 550 , 960 550 
" fill="lightgray" />
<path d="
M 1002 552 
L 1002 552 
L 988 552 
L 988 551 
L 1010 551 
L 1010 552 
Q 1005 552 , 999 553 
Q 994 553 , 988 553 
Q 975 553 , 968 552 
Q 960 552 , 960 551 
Q 960 551 , 968 550 
Q 975 550 , 988 550 
Q 994 550 , 999 550 
Q 1004 550 , 1009 550 
L 1009 551 
Q 1002 550 , 998 550 
Q 994 550 , 989 550 
Q 979 550 , 973 551 
Q 968 551 , 968 551 
Q 968 552 , 973 552 
Q 979 552 , 989 552 
Q 994 552 , 997 552 
Q 1001 552 , 1002 552 
" fill="#F5C000" />
<path d="
M 935 547 
L 926 548 
L 943 548 
L 935 547 
M 931 546 
L 939 546 
L 960 549 
L 952 549 
L 946 548 
L 924 548 
L 917 549 
L 910 549 
L 931 546 
" fill="lightgray" />
<path d="
M 960 546 
L 969 546 
L 969 548 
Q 969 548 , 973 549 
Q 976 549 , 985 549 
Q 994 549 , 997 549 
Q 1001 548 , 1001 548 
L 1001 546 
L 1010 546 
L 1010 548 
Q 1010 549 , 1004 549 
Q 997 549 , 985 549 
Q 973 549 , 966 549 
Q 960 549 , 960 548 
L 960 546 
" fill="#D21010" />
<path d="
M 910 541 
L 919 541 
L 919 544 
Q 919 544 , 923 545 
Q 926 545 , 935 545 
Q 944 545 , 947 545 
Q 951 544 , 951 544 
L 951 541 
L 960 541 
L 960 544 
Q 960 545 , 954 545 
Q 947 546 , 935 546 
Q 923 546 , 916 545 
Q 910 545 , 910 544 
L 910 541 
" fill="lightgray" />
<path d="
M 1002 545 
L 1002 544 
L 988 544 
L 988 543 
L 1010 543 
L 1010 545 
Q 1005 545 , 999 546 
Q 994 546 , 988 546 
Q 975 546 , 968 545 
Q 960 544 , 960 543 
Q 960 542 , 968 542 
Q 975 541 , 988 541 
Q 994 541 , 999 541 
Q 1004 541 , 1009 541 
L 1009 542 
Q 1002 542 , 998 542 
Q 994 542 , 989 542 
Q 979 542 , 973 542 
Q 968 542 , 968 543 
Q 968 544 , 973 545 
Q 979 545 , 989 545 
Q 994 545 , 997 545 
Q 1001 545 , 1002 545 
" fill="#F5C000" />
<path d="
M 952 540 
L 952 538 
L 938 538 
L 938 538 
L 960 538 
L 960 540 
Q 955 540 , 949 540 
Q 944 540 , 938 541 
Q 925 541 , 918 540 
Q 910 539 , 910 538 
Q 910 536 , 918 536 
Q 925 535 , 938 535 
Q 944 535 , 949 535 
Q 954 535 , 959 535 
L 959 536 
Q 952 536 , 948 536 
Q 944 536 , 939 536 
Q 929 536 , 923 536 
Q 918 537 , 918 538 
Q 918 539 , 923 539 
Q 929 540 , 939 540 
Q 944 540 , 947 540 
Q 951 540 , 952 540 
" fill="lightgray" />
<path d="
M 960 535 
L 969 535 
L 969 538 
Q 969 539 , 973 540 
Q 976 540 , 985 540 
Q 994 540 , 997 540 
Q 1001 539 , 1001 538 
L 1001 535 
L 1010 535 
L 1010 538 
Q 1010 539 , 1004 540 
Q 997 541 , 985 541 
Q 973 541 , 966 540 
Q 960 539 , 960 538 
L 960 535 
" fill="#D21010" />
<path d="
M 952 534 
L 952 532 
L 938 532 
L 938 531 
L 960 531 
L 960 534 
Q 955 535 , 949 535 
Q 944 535 , 938 535 
Q 925 535 , 918 534 
Q 910 533 , 910 531 
Q 910 530 , 918 529 
Q 925 528 , 938 528 
Q 944 528 , 949 528 
Q 954 528 , 959 529 
L 959 529 
Q 952 529 , 948 529 
Q 944 529 , 939 529 
Q 929 529 , 923 529 
Q 918 530 , 918 531 
Q 918 533 , 923 534 
Q 929 534 , 939 534 
Q 944 534 , 947 534 
Q 951 534 , 952 534 
" fill="lightgray" />
<path d="
M 1010 529 
L 1010 530 
Q 1003 529 , 999 529 
Q 994 529 , 989 529 
Q 979 529 , 974 529 
Q 968 530 , 968 531 
Q 968 533 , 974 534 
Q 979 534 , 989 534 
Q 994 534 , 999 534 
Q 1003 534 , 1010 533 
L 1010 534 
Q 1005 535 , 999 535 
Q 995 535 , 989 535 
Q 975 535 , 968 534 
Q 960 533 , 960 531 
Q 960 530 , 968 529 
Q 975 528 , 989 528 
Q 995 528 , 1000 528 
Q 1005 528 , 1010 529 
" fill="#545FFF" />
<path d="
M 1015 553 
L 1033 553 
L 1033 554 
Q 1033 554 , 1041 555 
Q 1048 555 , 1065 555 
Q 1082 555 , 1090 555 
Q 1097 554 , 1097 554 
L 1097 553 
L 1115 553 
L 1115 554 
Q 1115 554 , 1102 555 
Q 1090 555 , 1065 555 
Q 1041 555 , 1028 555 
Q 1015 554 , 1015 554 
L 1015 553 
" fill="#D21010" />
<path d="
M 1115 550 
L 1115 551 
Q 1100 550 , 1092 550 
Q 1084 550 , 1074 550 
Q 1053 550 , 1043 550 
Q 1031 551 , 1031 551 
Q 1031 552 , 1043 552 
Q 1053 552 , 1074 552 
Q 1084 552 , 1092 552 
Q 1100 552 , 1115 552 
L 1115 552 
Q 1104 552 , 1094 552 
Q 1084 552 , 1073 552 
Q 1046 552 , 1031 552 
Q 1015 552 , 1015 551 
Q 1015 551 , 1031 550 
Q 1046 550 , 1073 550 
Q 1084 550 , 1094 550 
Q 1105 550 , 1115 550 
" fill="#545FFF" />
<path d="
M 1065 547 
L 1047 548 
L 1081 548 
L 1065 547 
M 1058 546 
L 1072 546 
L 1115 549 
L 1099 549 
L 1087 548 
L 1043 548 
L 1030 549 
L 1015 549 
L 1058 546 
" fill="#339541" />
<path d="
M 1099 545 
L 1099 544 
L 1070 544 
L 1070 544 
L 1115 544 
L 1115 546 
Q 1104 546 , 1093 546 
Q 1084 546 , 1072 546 
Q 1046 546 , 1030 545 
Q 1015 545 , 1015 544 
Q 1015 543 , 1030 543 
Q 1046 542 , 1072 542 
Q 1083 542 , 1092 542 
Q 1102 542 , 1112 542 
L 1112 543 
Q 1099 543 , 1091 543 
Q 1082 542 , 1073 542 
Q 1052 542 , 1041 543 
Q 1031 543 , 1031 544 
Q 1031 545 , 1041 545 
Q 1052 545 , 1073 545 
Q 1082 545 , 1089 545 
Q 1096 545 , 1099 545 
" fill="#F5C000" />
<path d="
M 1170 552 
L 1152 554 
L 1186 554 
L 1170 552 
M 1163 552 
L 1177 552 
L 1220 555 
L 1204 555 
L 1192 554 
L 1148 554 
L 1135 555 
L 1120 555 
L 1163 552 
" fill="#339541" />
<path d="
M 1220 545 
L 1220 546 
Q 1205 545 , 1197 545 
Q 1189 545 , 1179 545 
Q 1158 545 , 1148 546 
Q 1136 546 , 1136 547 
Q 1136 549 , 1148 550 
Q 1158 551 , 1179 551 
Q 1189 551 , 1197 551 
Q 1205 550 , 1220 550 
L 1220 551 
Q 1209 551 , 1199 551 
Q 1189 552 , 1178 552 
Q 1151 552 , 1136 550 
Q 1120 549 , 1120 548 
Q 1120 546 , 1136 545 
Q 1151 544 , 1178 544 
Q 1189 544 , 1199 544 
Q 1210 544 , 1220 545 
" fill="#545FFF" />
<path d="
M 1120 534 
L 1138 534 
L 1138 539 
Q 1138 541 , 1146 542 
Q 1153 542 , 1170 542 
Q 1187 542 , 1195 542 
Q 1202 541 , 1202 539 
L 1202 534 
L 1220 534 
L 1220 540 
Q 1220 541 , 1207 542 
Q 1195 543 , 1170 543 
Q 1146 543 , 1133 542 
Q 1120 541 , 1120 540 
L 1120 534 
" fill="#D21010" />
<path d="
M 1204 532 
L 1204 528 
L 1175 528 
L 1175 527 
L 1220 527 
L 1220 533 
Q 1209 533 , 1198 533 
Q 1189 534 , 1177 534 
Q 1151 534 , 1135 532 
Q 1120 530 , 1120 527 
Q 1120 524 , 1135 523 
Q 1151 521 , 1177 521 
Q 1188 521 , 1197 521 
Q 1207 521 , 1217 522 
L 1217 524 
Q 1204 523 , 1196 523 
Q 1187 523 , 1178 523 
Q 1157 523 , 1146 524 
Q 1136 525 , 1136 527 
Q 1136 530 , 1146 531 
Q 1157 532 , 1178 532 
Q 1187 532 , 1194 532 
Q 1201 532 , 1204 532 
" fill="#F5C000" />
<path d="
M 1250 553 
L 1241 554 
L 1258 554 
L 1250 553 
M 1246 553 
L 1254 553 
L 1275 554 
L 1267 554 
L 1261 554 
L 1239 554 
L 1232 554 
L 1225 554 
L 1246 553 
" fill="lightgray" />
<path d="
M 1275 553 
L 1284 553 
L 1284 554 
Q 1284 554 , 1288 554 
Q 1291 554 , 1300 554 
Q 1309 554 , 1312 554 
Q 1316 554 , 1316 554 
L 1316 553 
L 1325 553 
L 1325 554 
Q 1325 554 , 1319 554 
Q 1312 554 , 1300 554 
Q 1288 554 , 1281 554 
Q 1275 554 , 1275 554 
L 1275 553 
" fill="#D21010" />
<path d="
M 1275 548 
L 1275 549 
Q 1268 548 , 1264 548 
Q 1259 548 , 1254 548 
Q 1244 548 , 1239 548 
Q 1233 549 , 1233 550 
Q 1233 551 , 1239 552 
Q 1244 552 , 1254 552 
Q 1259 552 , 1264 552 
Q 1268 552 , 1275 551 
L 1275 552 
Q 1270 553 , 1264 553 
Q 1260 553 , 1254 553 
Q 1240 553 , 1233 552 
Q 1225 551 , 1225 550 
Q 1225 549 , 1233 548 
Q 1240 547 , 1254 547 
Q 1260 547 , 1265 547 
Q 1270 547 , 1275 548 
" fill="lightgray" />
<path d="
M 1317 552 
L 1317 550 
L 1303 550 
L 1303 550 
L 1325 550 
L 1325 552 
Q 1320 553 , 1314 553 
Q 1309 553 , 1303 553 
Q 1290 553 , 1283 552 
Q 1275 551 , 1275 550 
Q 1275 549 , 1283 548 
Q 1290 547 , 1303 547 
Q 1309 547 , 1314 547 
Q 1319 547 , 1324 547 
L 1324 548 
Q 1317 548 , 1313 548 
Q 1309 548 , 1304 548 
Q 1294 548 , 1288 548 
Q 1283 549 , 1283 550 
Q 1283 551 , 1288 552 
Q 1294 552 , 1304 552 
Q 1309 552 , 1312 552 
Q 1316 552 , 1317 552 
" fill="#F5C000" />
<path d="
M 1225 541 
L 1234 541 
L 1234 544 
Q 1234 545 , 1238 546 
Q 1241 546 , 1250 546 
Q 1259 546 , 1262 546 
Q 1266 545 , 1266 544 
L 1266 541 
L 1275 541 
L 1275 545 
Q 1275 546 , 1269 546 
Q 1262 547 , 1250 547 
Q 1238 547 , 1231 546 
Q 1225 546 , 1225 545 
L 1225 541 
" fill="lightgray" />
<path d="
M 1300 542 
L 1291 544 
L 1308 544 
L 1300 542 
M 1296 541 
L 1304 541 
L 1325 547 
L 1317 547 
L 1311 545 
L 1289 545 
L 1282 547 
L 1275 547 
L 1296 541 
" fill="#339541" />
<path d="
M 1267 539 
L 1267 537 
L 1253 537 
L 1253 536 
L 1275 536 
L 1275 540 
Q 1270 540 , 1264 541 
Q 1259 541 , 1253 541 
Q 1240 541 , 1233 540 
Q 1225 538 , 1225 536 
Q 1225 534 , 1233 533 
Q 1240 532 , 1253 532 
Q 1259 532 , 1264 532 
Q 1269 532 , 1274 533 
L 1274 534 
Q 1267 533 , 1263 533 
Q 1259 533 , 1254 533 
Q 1244 533 , 1238 534 
Q 1233 535 , 1233 536 
Q 1233 538 , 1238 539 
Q 1244 540 , 1254 540 
Q 1259 540 , 1262 540 
Q 1266 540 , 1267 539 
" fill="lightgray" />
<path d="
M 1325 533 
L 1325 534 
Q 1318 533 , 1314 533 
Q 1309 533 , 1304 533 
Q 1294 533 , 1289 534 
Q 1283 535 , 1283 536 
Q 1283 538 , 1289 539 
Q 1294 540 , 1304 540 
Q 1309 540 , 1314 540 
Q 1318 539 , 1325 538 
L 1325 540 
Q 1320 540 , 1314 541 
Q 1310 541 , 1304 541 
Q 1290 541 , 1283 540 
Q 1275 538 , 1275 536 
Q 1275 534 , 1283 533 
Q 1290 532 , 1304 532 
Q 1310 532 , 1315 532 
Q 1320 532 , 1325 533 
" fill="#545FFF" />
<path d="
M 1267 530 
L 1267 527 
L 1253 527 
L 1253 526 
L 1275 526 
L 1275 531 
Q 1270 531 , 1264 531 
Q 1259 531 , 1253 531 
Q 1240 531 , 1233 530 
Q 1225 529 , 1225 527 
Q 1225 524 , 1233 523 
Q 1240 522 , 1253 522 
Q 1259 522 , 1264 522 
Q 1269 522 , 1274 523 
L 1274 524 
Q 1267 523 , 1263 523 
Q 1259 523 , 1254 523 
Q 1244 523 , 1238 524 
Q 1233 525 , 1233 527 
Q 1233 528 , 1238 529 
Q 1244 530 , 1254 530 
Q 1259 530 , 1262 530 
Q 1266 530 , 1267 530 
" fill="lightgray" />
<path d="
M 1275 522 
L 1284 522 
L 1284 527 
Q 1284 529 , 1288 530 
Q 1291 530 , 1300 530 
Q 1309 530 , 1312 530 
Q 1316 529 , 1316 527 
L 1316 522 
L 1325 522 
L 1325 528 
Q 1325 529 , 1319 530 
Q 1312 531 , 1300 531 
Q 1288 531 , 1281 530 
Q 1275 529 , 1275 528 
L 1275 522 
" fill="#D21010" />
<path d="
M 1225 506 
L 1234 506 
L 1234 515 
Q 1234 518 , 1238 519 
Q 1241 520 , 1250 520 
Q 1259 520 , 1262 519 
Q 1266 518 , 1266 515 
L 1266 506 
L 1275 506 
L 1275 515 
Q 1275 518 , 1269 520 
Q 1262 521 , 1250 521 
Q 1238 521 , 1231 520 
Q 1225 518 , 1225 515 
L 1225 506 
" fill="lightgray" />
<path d="
M 1317 519 
L 1317 515 
L 1303 515 
L 1303 513 
L 1325 513 
L 1325 520 
Q 1320 521 , 1314 521 
Q 1309 521 , 1303 521 
Q 1290 521 , 1283 519 
Q 1275 517 , 1275 514 
Q 1275 510 , 1283 508 
Q 1290 506 , 1303 506 
Q 1309 506 , 1314 506 
Q 1319 507 , 1324 507 
L 1324 509 
Q 1317 508 , 1313 508 
Q 1309 508 , 1304 508 
Q 1294 508 , 1288 509 
Q 1283 511 , 1283 514 
Q 1283 517 , 1288 518 
Q 1294 520 , 1304 520 
Q 1309 520 , 1312 520 
Q 1316 519 , 1317 519 
" fill="#F5C000" />
<path d="
M 1430 554 
L 1430 554 
Q 1415 554 , 1407 554 
Q 1399 554 , 1389 554 
Q 1368 554 , 1358 554 
Q 1346 554 , 1346 554 
Q 1346 554 , 1358 554 
Q 1368 554 , 1389 554 
Q 1399 554 , 1407 554 
Q 1415 554 , 1430 554 
L 1430 554 
Q 1419 554 , 1409 554 
Q 1399 554 , 1388 554 
Q 1361 554 , 1346 554 
Q 1330 554 , 1330 554 
Q 1330 554 , 1346 554 
Q 1361 554 , 1388 554 
Q 1399 554 , 1409 554 
Q 1420 554 , 1430 554 
" fill="#545FFF" />
<path d="
M 1414 553 
L 1414 553 
L 1385 553 
L 1385 553 
L 1430 553 
L 1430 553 
Q 1419 553 , 1408 553 
Q 1399 553 , 1387 553 
Q 1361 553 , 1345 553 
Q 1330 553 , 1330 553 
Q 1330 553 , 1345 553 
Q 1361 553 , 1387 553 
Q 1398 553 , 1407 553 
Q 1417 553 , 1427 553 
L 1427 553 
Q 1414 553 , 1406 553 
Q 1397 553 , 1388 553 
Q 1367 553 , 1356 553 
Q 1346 553 , 1346 553 
Q 1346 553 , 1356 553 
Q 1367 553 , 1388 553 
Q 1397 553 , 1404 553 
Q 1411 553 , 1414 553 
" fill="#F5C000" />
<path d="
M 1380 552 
L 1362 552 
L 1396 552 
L 1380 552 
M 1373 552 
L 1387 552 
L 1430 552 
L 1414 552 
L 1402 552 
L 1358 552 
L 1345 552 
L 1330 552 
L 1373 552 
" fill="#339541" />
<path d="
M 1330 551 
L 1348 551 
L 1348 551 
Q 1348 551 , 1356 551 
Q 1363 551 , 1380 551 
Q 1397 551 , 1405 551 
Q 1412 551 , 1412 551 
L 1412 551 
L 1430 551 
L 1430 551 
Q 1430 551 , 1417 551 
Q 1405 551 , 1380 551 
Q 1356 551 , 1343 551 
Q 1330 551 , 1330 551 
L 1330 551 
" fill="#D21010" />
<path d="M 65 168 L 65 555 " stroke="black" stroke-width="1.5"/>
<path d="M 55 555 L 65 555 " stroke="black" stroke-width="4"/>
<text text-anchor="end" x="50" y="555" font-size="50" alignment-baseline="middle">0</text>
<path d="M 55 362 L 65 362 " stroke="black" stroke-width="4"/>
<text text-anchor="end" x="50" y="362" font-size="50" alignment-baseline="middle">1</text>
<path d="M 55 168 L 65 168 " stroke="black" stroke-width="4"/>
<text text-anchor="end" x="50" y="168" font-size="50" alignment-baseline="middle">2</text>
<text text-anchor="middle" x="750" y="50" font-size="50" alignment-baseline="baseline"></text>
G<path d="
M 160 582 
L 126 595 
L 160 608 
L 157 611 
L 123 598 
L 123 623 
L 117 623 
L 117 599 
L 83 611 
L 80 608 
L 114 595 
L 80 582 
L 83 579 
L 117 591 
L 117 567 
L 123 567 
L 123 591 
L 157 579 
L 160 582 
" fill="black" />
<path d="
M 265 567 
Q 236 574 , 223 581 
Q 210 588 , 210 595 
Q 210 602 , 223 609 
Q 236 616 , 265 623 
L 241 623 
Q 213 616 , 199 609 
Q 185 602 , 185 595 
Q 185 588 , 199 581 
Q 213 574 , 241 567 
L 265 567 
" fill="black" />
<path d="
" fill="black" />
<path d="
M 316 567 
L 343 567 
L 343 623 
L 316 623 
L 316 567 
" fill="black" />
<path d="
" fill="black" />
<path d="
M 475 567 
Q 446 574 , 433 581 
Q 420 588 , 420 595 
Q 420 602 , 433 609 
Q 446 616 , 475 623 
L 451 623 
Q 423 616 , 409 609 
Q 395 602 , 395 595 
Q 395 588 , 409 581 
Q 423 574 , 451 567 
L 475 567 
" fill="black" />
<path d="
" fill="black" />
<path d="
M 526 567 
L 553 567 
L 553 623 
L 526 623 
L 526 567 
" fill="black" />
<path d="
" fill="black" />
<path d="
" fill="black" />
<path d="
M 622 567 
L 642 567 
L 642 623 
L 622 623 
L 622 567 
" fill="black" />
<path d="
" fill="black" />
<path d="
M 687 595 
Q 686 591 , 682 591 
Q 679 591 , 677 595 
Q 675 599 , 675 605 
Q 675 612 , 677 615 
Q 679 619 , 682 619 
Q 686 619 , 687 615 
Q 689 612 , 689 605 
Q 689 599 , 687 595 
M 690 569 
L 690 574 
Q 689 572 , 687 571 
Q 686 571 , 684 571 
Q 678 571 , 676 581 
Q 675 586 , 675 595 
Q 675 593 , 677 590 
Q 679 587 , 682 587 
Q 687 587 , 689 592 
Q 692 597 , 692 604 
Q 692 613 , 689 618 
Q 687 623 , 682 623 
Q 677 623 , 675 616 
Q 672 609 , 672 595 
Q 672 581 , 675 574 
Q 679 567 , 684 567 
Q 686 567 , 687 568 
Q 689 568 , 690 569 
" fill="black" />
<path d="
M 790 582 
L 756 595 
L 790 608 
L 787 611 
L 753 598 
L 753 623 
L 747 623 
L 747 599 
L 713 611 
L 710 608 
L 744 595 
L 710 582 
L 713 579 
L 747 591 
L 747 567 
L 753 567 
L 753 591 
L 787 579 
L 790 582 
" fill="black" />
<path d="
" fill="black" />
<path d="
M 841 567 
L 868 567 
L 868 623 
L 841 623 
L 841 567 
" fill="black" />
<path d="
" fill="black" />
<path d="
M 920 567 
L 944 567 
Q 972 574 , 986 581 
Q 1000 588 , 1000 595 
Q 1000 602 , 986 609 
Q 972 616 , 944 623 
L 920 623 
Q 949 616 , 962 609 
Q 975 602 , 975 595 
Q 975 588 , 962 581 
Q 949 574 , 920 567 
" fill="black" />
<path d="
" fill="black" />
<path d="
M 1051 567 
L 1078 567 
L 1078 623 
L 1051 623 
L 1051 567 
" fill="black" />
<path d="
" fill="black" />
<path d="
" fill="black" />
<path d="
M 1156 567 
L 1183 567 
L 1183 623 
L 1156 623 
L 1156 567 
" fill="black" />
<path d="
" fill="black" />
<path d="
M 1235 567 
L 1259 567 
Q 1287 574 , 1301 581 
Q 1315 588 , 1315 595 
Q 1315 602 , 1301 609 
Q 1287 616 , 1259 623 
L 1235 623 
Q 1264 616 , 1277 609 
Q 1290 602 , 1290 595 
Q 1290 588 , 1277 581 
Q 1264 574 , 1235 567 
" fill="black" />
<path d="
M 1420 582 
L 1386 595 
L 1420 608 
L 1417 611 
L 1383 598 
L 1383 623 
L 1377 623 
L 1377 599 
L 1343 611 
L 1340 608 
L 1374 595 
L 1340 582 
L 1343 579 
L 1377 591 
L 1377 567 
L 1383 567 
L 1383 591 
L 1417 579 
L 1420 582 
" fill="black" />
</svg>
