<svg xmlns="http://www.w3.org/2000/svg"
viewBox="0 0 1330 635">
<path d="
M 120 553 
L 102 554 
L 136 554 
L 120 553 
M 113 553 
L 127 553 
L 170 554 
L 154 554 
L 142 554 
L 98 554 
L 85 554 
L 70 554 
L 113 553 
" fill="#339541" />
<path d="
M 70 551 
L 88 551 
L 88 552 
Q 88 552 , 96 552 
Q 103 552 , 120 552 
Q 137 552 , 145 552 
Q 152 552 , 152 552 
L 152 551 
L 170 551 
L 170 552 
Q 170 552 , 157 552 
Q 145 552 , 120 552 
Q 96 552 , 83 552 
Q 70 552 , 70 552 
L 70 551 
" fill="#D21010" />
<path d="
M 170 549 
L 170 549 
Q 155 549 , 147 549 
Q 139 549 , 129 549 
Q 108 549 , 98 549 
Q 86 549 , 86 549 
Q 86 550 , 98 550 
Q 108 550 , 129 550 
Q 139 550 , 147 550 
Q 155 550 , 170 550 
L 170 550 
Q 159 550 , 149 550 
Q 139 550 , 128 550 
Q 101 550 , 86 550 
Q 70 550 , 70 550 
Q 70 549 , 86 549 
Q 101 549 , 128 549 
Q 139 549 , 149 549 
Q 160 549 , 170 549 
" fill="#545FFF" />
<path d="
M 154 548 
L 154 548 
L 125 548 
L 125 548 
L 170 548 
L 170 549 
Q 159 549 , 148 549 
Q 139 549 , 127 549 
Q 101 549 , 85 548 
Q 70 548 , 70 548 
Q 70 547 , 85 547 
Q 101 547 , 127 547 
Q 138 547 , 147 547 
Q 157 547 , 167 547 
L 167 547 
Q 154 547 , 146 547 
Q 137 547 , 128 547 
Q 107 547 , 96 547 
Q 86 548 , 86 548 
Q 86 548 , 96 548 
Q 107 549 , 128 549 
Q 137 549 , 144 549 
Q 151 549 , 154 548 
" fill="#F5C000" />
<path d="
M 225 550 
L 207 552 
L 241 552 
L 225 550 
M 218 549 
L 232 549 
L 275 554 
L 259 554 
L 247 553 
L 203 553 
L 190 554 
L 175 554 
L 218 549 
" fill="#339541" />
<path d="
M 275 539 
L 275 541 
Q 260 540 , 252 539 
Q 244 539 , 234 539 
Q 213 539 , 203 540 
Q 191 541 , 191 543 
Q 191 545 , 203 546 
Q 213 547 , 234 547 
Q 244 547 , 252 547 
Q 260 547 , 275 546 
L 275 547 
Q 264 548 , 254 548 
Q 244 548 , 233 548 
Q 206 548 , 191 547 
Q 175 546 , 175 543 
Q 175 541 , 191 539 
Q 206 538 , 233 538 
Q 244 538 , 254 538 
Q 265 539 , 275 539 
" fill="#545FFF" />
<path d="
M 175 504 
L 193 504 
L 193 524 
Q 193 529 , 201 532 
Q 208 534 , 225 534 
Q 242 534 , 250 532 
Q 257 529 , 257 524 
L 257 504 
L 275 504 
L 275 524 
Q 275 531 , 262 534 
Q 250 537 , 225 537 
Q 201 537 , 188 534 
Q 175 531 , 175 524 
L 175 504 
" fill="#D21010" />
<path d="
M 259 497 
L 259 485 
L 230 485 
L 230 480 
L 275 480 
L 275 500 
Q 264 502 , 253 502 
Q 244 503 , 232 503 
Q 206 503 , 190 497 
Q 175 491 , 175 481 
Q 175 471 , 190 465 
Q 206 459 , 232 459 
Q 243 459 , 252 460 
Q 262 461 , 272 463 
L 272 468 
Q 259 466 , 251 465 
Q 242 464 , 233 464 
Q 212 464 , 201 468 
Q 191 473 , 191 481 
Q 191 490 , 201 494 
Q 212 498 , 233 498 
Q 242 498 , 249 498 
Q 256 497 , 259 497 
" fill="#F5C000" />
<path d="
M 330 551 
L 312 553 
L 346 553 
L 330 551 
M 323 550 
L 337 550 
L 380 555 
L 364 555 
L 352 553 
L 308 553 
L 295 555 
L 280 555 
L 323 550 
" fill="#339541" />
<path d="
M 280 544 
L 298 544 
L 298 547 
Q 298 548 , 306 549 
Q 313 549 , 330 549 
Q 347 549 , 355 549 
Q 362 548 , 362 547 
L 362 544 
L 380 544 
L 380 548 
Q 380 549 , 367 549 
Q 355 550 , 330 550 
Q 306 550 , 293 549 
Q 280 549 , 280 548 
L 280 544 
" fill="#D21010" />
<path d="
M 364 534 
L 364 516 
L 335 516 
L 335 509 
L 380 509 
L 380 539 
Q 369 542 , 358 543 
Q 349 544 , 337 544 
Q 311 544 , 295 535 
Q 280 526 , 280 510 
Q 280 495 , 295 486 
Q 311 477 , 337 477 
Q 348 477 , 357 478 
Q 367 479 , 377 482 
L 377 491 
Q 364 487 , 356 486 
Q 347 485 , 338 485 
Q 317 485 , 306 491 
Q 296 498 , 296 510 
Q 296 524 , 306 530 
Q 317 536 , 338 536 
Q 347 536 , 354 536 
Q 361 535 , 364 534 
" fill="#F5C000" />
<path d="
M 380 396 
L 380 410 
Q 365 401 , 357 398 
Q 349 396 , 339 396 
Q 318 396 , 308 405 
Q 296 414 , 296 431 
Q 296 449 , 308 458 
Q 318 467 , 339 467 
Q 349 467 , 357 465 
Q 365 462 , 380 453 
L 380 467 
Q 369 472 , 359 475 
Q 349 477 , 338 477 
Q 311 477 , 296 464 
Q 280 452 , 280 431 
Q 280 411 , 296 398 
Q 311 386 , 338 386 
Q 349 386 , 359 388 
Q 370 390 , 380 396 
" fill="#545FFF" />
<path d="
M 469 554 
L 469 553 
L 440 553 
L 440 553 
L 485 553 
L 485 554 
Q 474 554 , 463 554 
Q 454 555 , 442 555 
Q 416 555 , 400 554 
Q 385 554 , 385 553 
Q 385 552 , 400 551 
Q 416 551 , 442 551 
Q 453 551 , 462 551 
Q 472 551 , 482 551 
L 482 552 
Q 469 552 , 461 551 
Q 452 551 , 443 551 
Q 422 551 , 411 552 
Q 401 552 , 401 553 
Q 401 553 , 411 554 
Q 422 554 , 443 554 
Q 452 554 , 459 554 
Q 466 554 , 469 554 
" fill="#F5C000" />
<path d="
M 435 543 
L 417 547 
L 451 547 
L 435 543 
M 428 542 
L 442 542 
L 485 550 
L 469 550 
L 457 548 
L 413 548 
L 400 550 
L 385 550 
L 428 542 
" fill="#339541" />
<path d="
M 385 529 
L 403 529 
L 403 536 
Q 403 538 , 411 539 
Q 418 540 , 435 540 
Q 452 540 , 460 539 
Q 467 538 , 467 536 
L 467 529 
L 485 529 
L 485 536 
Q 485 539 , 472 540 
Q 460 541 , 435 541 
Q 411 541 , 398 540 
Q 385 539 , 385 536 
L 385 529 
" fill="#D21010" />
<path d="
M 485 516 
L 485 518 
Q 470 516 , 462 516 
Q 454 516 , 444 516 
Q 423 516 , 413 517 
Q 401 519 , 401 521 
Q 401 524 , 413 526 
Q 423 527 , 444 527 
Q 454 527 , 462 527 
Q 470 526 , 485 525 
L 485 527 
Q 474 528 , 464 528 
Q 454 529 , 443 529 
Q 416 529 , 401 527 
Q 385 525 , 385 521 
Q 385 518 , 401 516 
Q 416 514 , 443 514 
Q 454 514 , 464 514 
Q 475 515 , 485 516 
" fill="#545FFF" />
<path d="
M 540 550 
L 522 552 
L 556 552 
L 540 550 
M 533 549 
L 547 549 
L 590 554 
L 574 554 
L 562 553 
L 518 553 
L 505 554 
L 490 554 
L 533 549 
" fill="#339541" />
<path d="
M 490 527 
L 508 527 
L 508 540 
Q 508 543 , 516 545 
Q 523 546 , 540 546 
Q 557 546 , 565 545 
Q 572 543 , 572 540 
L 572 527 
L 590 527 
L 590 540 
Q 590 544 , 577 546 
Q 565 548 , 540 548 
Q 516 548 , 503 546 
Q 490 544 , 490 540 
L 490 527 
" fill="#D21010" />
<path d="
M 590 506 
L 590 509 
Q 575 507 , 567 506 
Q 559 506 , 549 506 
Q 528 506 , 518 508 
Q 506 510 , 506 515 
Q 506 520 , 518 522 
Q 528 524 , 549 524 
Q 559 524 , 567 524 
Q 575 523 , 590 521 
L 590 525 
Q 579 526 , 569 526 
Q 559 527 , 548 527 
Q 521 527 , 506 524 
Q 490 520 , 490 515 
Q 490 509 , 506 506 
Q 521 503 , 548 503 
Q 559 503 , 569 504 
Q 580 504 , 590 506 
" fill="#545FFF" />
<path d="
M 574 489 
L 574 464 
L 545 464 
L 545 454 
L 590 454 
L 590 495 
Q 579 499 , 568 501 
Q 559 503 , 547 503 
Q 521 503 , 505 490 
Q 490 478 , 490 456 
Q 490 434 , 505 422 
Q 521 409 , 547 409 
Q 558 409 , 567 411 
Q 577 412 , 587 417 
L 587 429 
Q 574 423 , 566 422 
Q 557 420 , 548 420 
Q 527 420 , 516 429 
Q 506 438 , 506 456 
Q 506 474 , 516 483 
Q 527 492 , 548 492 
Q 557 492 , 564 491 
Q 571 490 , 574 489 
" fill="#F5C000" />
<path d="
M 595 549 
L 613 549 
L 613 552 
Q 613 553 , 621 554 
Q 628 554 , 645 554 
Q 662 554 , 670 554 
Q 677 553 , 677 552 
L 677 549 
L 695 549 
L 695 553 
Q 695 554 , 682 554 
Q 670 555 , 645 555 
Q 621 555 , 608 554 
Q 595 554 , 595 553 
L 595 549 
" fill="#D21010" />
<path d="
M 695 544 
L 695 545 
Q 680 544 , 672 544 
Q 664 544 , 654 544 
Q 633 544 , 623 544 
Q 611 545 , 611 546 
Q 611 547 , 623 548 
Q 633 548 , 654 548 
Q 664 548 , 672 548 
Q 680 548 , 695 547 
L 695 548 
Q 684 549 , 674 549 
Q 664 549 , 653 549 
Q 626 549 , 611 548 
Q 595 547 , 595 546 
Q 595 545 , 611 544 
Q 626 543 , 653 543 
Q 664 543 , 674 543 
Q 685 543 , 695 544 
" fill="#545FFF" />
<path d="
M 645 537 
L 627 540 
L 661 540 
L 645 537 
M 638 536 
L 652 536 
L 695 542 
L 679 542 
L 667 540 
L 623 540 
L 610 542 
L 595 542 
L 638 536 
" fill="#339541" />
<path d="
M 679 533 
L 679 529 
L 650 529 
L 650 528 
L 695 528 
L 695 534 
Q 684 535 , 673 535 
Q 664 535 , 652 535 
Q 626 535 , 610 533 
Q 595 532 , 595 528 
Q 595 525 , 610 523 
Q 626 521 , 652 521 
Q 663 521 , 672 521 
Q 682 522 , 692 522 
L 692 524 
Q 679 523 , 671 523 
Q 662 523 , 653 523 
Q 632 523 , 621 524 
Q 611 525 , 611 528 
Q 611 531 , 621 532 
Q 632 534 , 653 534 
Q 662 534 , 669 534 
Q 676 533 , 679 533 
" fill="#F5C000" />
<path d="
M 700 544 
L 718 544 
L 718 550 
Q 718 552 , 726 552 
Q 733 553 , 750 553 
Q 767 553 , 775 552 
Q 782 552 , 782 550 
L 782 544 
L 800 544 
L 800 550 
Q 800 552 , 787 553 
Q 775 554 , 750 554 
Q 726 554 , 713 553 
Q 700 552 , 700 550 
L 700 544 
" fill="#D21010" />
<path d="
M 800 533 
L 800 535 
Q 785 534 , 777 534 
Q 769 533 , 759 533 
Q 738 533 , 728 534 
Q 716 536 , 716 538 
Q 716 540 , 728 541 
Q 738 543 , 759 543 
Q 769 543 , 777 542 
Q 785 542 , 800 541 
L 800 543 
Q 789 543 , 779 544 
Q 769 544 , 758 544 
Q 731 544 , 716 542 
Q 700 541 , 700 538 
Q 700 535 , 716 534 
Q 731 532 , 758 532 
Q 769 532 , 779 532 
Q 790 533 , 800 533 
" fill="#545FFF" />
<path d="
M 750 520 
L 732 526 
L 766 526 
L 750 520 
M 743 518 
L 757 518 
L 800 531 
L 784 531 
L 772 527 
L 728 527 
L 715 531 
L 700 531 
L 743 518 
" fill="#339541" />
<path d="
M 784 511 
L 784 499 
L 755 499 
L 755 494 
L 800 494 
L 800 514 
Q 789 516 , 778 517 
Q 769 518 , 757 518 
Q 731 518 , 715 511 
Q 700 505 , 700 495 
Q 700 484 , 715 478 
Q 731 472 , 757 472 
Q 768 472 , 777 473 
Q 787 474 , 797 476 
L 797 482 
Q 784 479 , 776 478 
Q 767 477 , 758 477 
Q 737 477 , 726 482 
Q 716 486 , 716 495 
Q 716 504 , 726 508 
Q 737 513 , 758 513 
Q 767 513 , 774 512 
Q 781 512 , 784 511 
" fill="#F5C000" />
<path d="
M 855 550 
L 837 552 
L 871 552 
L 855 550 
M 848 549 
L 862 549 
L 905 554 
L 889 554 
L 877 553 
L 833 553 
L 820 554 
L 805 554 
L 848 549 
" fill="#339541" />
<path d="
M 805 540 
L 823 540 
L 823 545 
Q 823 546 , 831 547 
Q 838 547 , 855 547 
Q 872 547 , 880 547 
Q 887 546 , 887 545 
L 887 540 
L 905 540 
L 905 545 
Q 905 546 , 892 547 
Q 880 548 , 855 548 
Q 831 548 , 818 547 
Q 805 546 , 805 545 
L 805 540 
" fill="#D21010" />
<path d="
M 905 487 
L 905 496 
Q 890 491 , 882 489 
Q 874 488 , 864 488 
Q 843 488 , 833 493 
Q 821 499 , 821 510 
Q 821 522 , 833 528 
Q 843 534 , 864 534 
Q 874 534 , 882 532 
Q 890 530 , 905 525 
L 905 534 
Q 894 537 , 884 539 
Q 874 540 , 863 540 
Q 836 540 , 821 532 
Q 805 524 , 805 511 
Q 805 497 , 821 489 
Q 836 481 , 863 481 
Q 874 481 , 884 482 
Q 895 484 , 905 487 
" fill="#545FFF" />
<path d="
M 889 471 
L 889 455 
L 860 455 
L 860 448 
L 905 448 
L 905 476 
Q 894 478 , 883 479 
Q 874 480 , 862 480 
Q 836 480 , 820 472 
Q 805 464 , 805 450 
Q 805 435 , 820 427 
Q 836 419 , 862 419 
Q 873 419 , 882 420 
Q 892 421 , 902 424 
L 902 432 
Q 889 428 , 881 427 
Q 872 426 , 863 426 
Q 842 426 , 831 432 
Q 821 438 , 821 450 
Q 821 462 , 831 468 
Q 842 473 , 863 473 
Q 872 473 , 879 473 
Q 886 472 , 889 471 
" fill="#F5C000" />
<path d="
M 910 549 
L 928 549 
L 928 552 
Q 928 553 , 936 553 
Q 943 554 , 960 554 
Q 977 554 , 985 553 
Q 992 553 , 992 552 
L 992 549 
L 1010 549 
L 1010 552 
Q 1010 553 , 997 554 
Q 985 554 , 960 554 
Q 936 554 , 923 554 
Q 910 553 , 910 552 
L 910 549 
" fill="#D21010" />
<path d="
M 960 538 
L 942 543 
L 976 543 
L 960 538 
M 953 536 
L 967 536 
L 1010 548 
L 994 548 
L 982 545 
L 938 545 
L 925 548 
L 910 548 
L 953 536 
" fill="#339541" />
<path d="
M 994 530 
L 994 520 
L 965 520 
L 965 515 
L 1010 515 
L 1010 533 
Q 999 534 , 988 535 
Q 979 535 , 967 536 
Q 941 536 , 925 530 
Q 910 525 , 910 516 
Q 910 507 , 925 502 
Q 941 497 , 967 497 
Q 978 497 , 987 498 
Q 997 498 , 1007 500 
L 1007 505 
Q 994 503 , 986 502 
Q 977 502 , 968 502 
Q 947 502 , 936 505 
Q 926 509 , 926 516 
Q 926 524 , 936 528 
Q 947 531 , 968 531 
Q 977 531 , 984 531 
Q 991 530 , 994 530 
" fill="#F5C000" />
<path d="
M 1010 421 
L 1010 434 
Q 995 426 , 987 424 
Q 979 421 , 969 421 
Q 948 421 , 938 430 
Q 926 438 , 926 454 
Q 926 471 , 938 479 
Q 948 487 , 969 487 
Q 979 487 , 987 485 
Q 995 483 , 1010 475 
L 1010 488 
Q 999 493 , 989 495 
Q 979 497 , 968 497 
Q 941 497 , 926 485 
Q 910 474 , 910 454 
Q 910 435 , 926 424 
Q 941 412 , 968 412 
Q 979 412 , 989 414 
Q 1000 416 , 1010 421 
" fill="#545FFF" />
<path d="
M 1099 554 
L 1099 552 
L 1070 552 
L 1070 552 
L 1115 552 
L 1115 554 
Q 1104 554 , 1093 554 
Q 1084 555 , 1072 555 
Q 1046 555 , 1030 554 
Q 1015 553 , 1015 552 
Q 1015 550 , 1030 550 
Q 1046 549 , 1072 549 
Q 1083 549 , 1092 549 
Q 1102 549 , 1112 549 
L 1112 550 
Q 1099 550 , 1091 550 
Q 1082 550 , 1073 550 
Q 1052 550 , 1041 550 
Q 1031 551 , 1031 552 
Q 1031 553 , 1041 553 
Q 1052 554 , 1073 554 
Q 1082 554 , 1089 554 
Q 1096 554 , 1099 554 
" fill="#F5C000" />
<path d="
M 1115 539 
L 1115 541 
Q 1100 540 , 1092 539 
Q 1084 539 , 1074 539 
Q 1053 539 , 1043 540 
Q 1031 541 , 1031 543 
Q 1031 545 , 1043 546 
Q 1053 547 , 1074 547 
Q 1084 547 , 1092 547 
Q 1100 547 , 1115 546 
L 1115 547 
Q 1104 548 , 1094 548 
Q 1084 548 , 1073 548 
Q 1046 548 , 1031 547 
Q 1015 545 , 1015 543 
Q 1015 541 , 1031 539 
Q 1046 538 , 1073 538 
Q 1084 538 , 1094 538 
Q 1105 538 , 1115 539 
" fill="#545FFF" />
<path d="
M 1065 518 
L 1047 528 
L 1081 528 
L 1065 518 
M 1058 514 
L 1072 514 
L 1115 537 
L 1099 537 
L 1087 531 
L 1043 531 
L 1030 537 
L 1015 537 
L 1058 514 
" fill="#339541" />
<path d="
M 1015 477 
L 1033 477 
L 1033 499 
Q 1033 505 , 1041 507 
Q 1048 510 , 1065 510 
Q 1082 510 , 1090 507 
Q 1097 505 , 1097 499 
L 1097 477 
L 1115 477 
L 1115 499 
Q 1115 506 , 1102 510 
Q 1090 514 , 1065 514 
Q 1041 514 , 1028 510 
Q 1015 506 , 1015 499 
L 1015 477 
" fill="#D21010" />
<path d="
M 1120 549 
L 1138 549 
L 1138 552 
Q 1138 553 , 1146 554 
Q 1153 554 , 1170 554 
Q 1187 554 , 1195 554 
Q 1202 553 , 1202 552 
L 1202 549 
L 1220 549 
L 1220 553 
Q 1220 554 , 1207 554 
Q 1195 555 , 1170 555 
Q 1146 555 , 1133 554 
Q 1120 554 , 1120 553 
L 1120 549 
" fill="#D21010" />
<path d="
M 1170 541 
L 1152 544 
L 1186 544 
L 1170 541 
M 1163 539 
L 1177 539 
L 1220 548 
L 1204 548 
L 1192 546 
L 1148 546 
L 1135 548 
L 1120 548 
L 1163 539 
" fill="#339541" />
<path d="
M 1220 515 
L 1220 519 
Q 1205 516 , 1197 516 
Q 1189 515 , 1179 515 
Q 1158 515 , 1148 518 
Q 1136 520 , 1136 525 
Q 1136 531 , 1148 533 
Q 1158 536 , 1179 536 
Q 1189 536 , 1197 535 
Q 1205 535 , 1220 532 
L 1220 536 
Q 1209 538 , 1199 538 
Q 1189 539 , 1178 539 
Q 1151 539 , 1136 535 
Q 1120 532 , 1120 525 
Q 1120 519 , 1136 516 
Q 1151 512 , 1178 512 
Q 1189 512 , 1199 513 
Q 1210 513 , 1220 515 
" fill="#545FFF" />
<path d="
M 1204 473 
L 1204 399 
L 1175 399 
L 1175 369 
L 1220 369 
L 1220 491 
Q 1209 503 , 1198 507 
Q 1189 512 , 1177 512 
Q 1151 512 , 1135 475 
Q 1120 439 , 1120 375 
Q 1120 311 , 1135 275 
Q 1151 238 , 1177 238 
Q 1188 238 , 1197 243 
Q 1207 248 , 1217 260 
L 1217 295 
Q 1204 280 , 1196 275 
Q 1187 271 , 1178 271 
Q 1157 271 , 1146 296 
Q 1136 322 , 1136 375 
Q 1136 429 , 1146 455 
Q 1157 481 , 1178 481 
Q 1187 481 , 1194 479 
Q 1201 476 , 1204 473 
" fill="#F5C000" />
<path d="
M 1275 553 
L 1257 554 
L 1291 554 
L 1275 553 
M 1268 553 
L 1282 553 
L 1325 554 
L 1309 554 
L 1297 554 
L 1253 554 
L 1240 554 
L 1225 554 
L 1268 553 
" fill="#339541" />
<path d="
M 1225 551 
L 1243 551 
L 1243 552 
Q 1243 552 , 1251 552 
Q 1258 552 , 1275 552 
Q 1292 552 , 1300 552 
Q 1307 552 , 1307 552 
L 1307 551 
L 1325 551 
L 1325 552 
Q 1325 552 , 1312 552 
Q 1300 552 , 1275 552 
Q 1251 552 , 1238 552 
Q 1225 552 , 1225 552 
L 1225 551 
" fill="#D21010" />
<path d="
M 1325 549 
L 1325 549 
Q 1310 549 , 1302 549 
Q 1294 549 , 1284 549 
Q 1263 549 , 1253 549 
Q 1241 549 , 1241 549 
Q 1241 550 , 1253 550 
Q 1263 550 , 1284 550 
Q 1294 550 , 1302 550 
Q 1310 550 , 1325 550 
L 1325 550 
Q 1314 550 , 1304 550 
Q 1294 550 , 1283 550 
Q 1256 550 , 1241 550 
Q 1225 550 , 1225 550 
Q 1225 549 , 1241 549 
Q 1256 549 , 1283 549 
Q 1294 549 , 1304 549 
Q 1315 549 , 1325 549 
" fill="#545FFF" />
<path d="
M 1309 548 
L 1309 548 
L 1280 548 
L 1280 548 
L 1325 548 
L 1325 549 
Q 1314 549 , 1303 549 
Q 1294 549 , 1282 549 
Q 1256 549 , 1240 548 
Q 1225 548 , 1225 548 
Q 1225 547 , 1240 547 
Q 1256 547 , 1282 547 
Q 1293 547 , 1302 547 
Q 1312 547 , 1322 547 
L 1322 547 
Q 1309 547 , 1301 547 
Q 1292 547 , 1283 547 
Q 1262 547 , 1251 547 
Q 1241 548 , 1241 548 
Q 1241 548 , 1251 548 
Q 1262 549 , 1283 549 
Q 1292 549 , 1299 549 
Q 1306 549 , 1309 548 
" fill="#F5C000" />
<path d="M 65 55 L 65 555 " stroke="black" stroke-width="1.5"/>
<path d="M 55 555 L 65 555 " stroke="black" stroke-width="4"/>
<text text-anchor="end" x="50" y="555" font-size="50" alignment-baseline="middle">0</text>
<path d="M 55 305 L 65 305 " stroke="black" stroke-width="4"/>
<text text-anchor="end" x="50" y="305" font-size="50" alignment-baseline="middle">1</text>
<path d="M 55 55 L 65 55 " stroke="black" stroke-width="4"/>
<text text-anchor="end" x="50" y="55" font-size="50" alignment-baseline="middle">2</text>
<text text-anchor="middle" x="697" y="50" font-size="50" alignment-baseline="baseline"></text>
G<path d="
M 160 582 
L 126 595 
L 160 608 
L 157 611 
L 123 598 
L 123 623 
L 117 623 
L 117 599 
L 83 611 
L 80 608 
L 114 595 
L 80 582 
L 83 579 
L 117 591 
L 117 567 
L 123 567 
L 123 591 
L 157 579 
L 160 582 
" fill="black" />
<path d="
" fill="black" />
<path d="
M 211 567 
L 238 567 
L 238 623 
L 211 623 
L 211 567 
" fill="black" />
<path d="
" fill="black" />
<path d="
" fill="black" />
<path d="
M 316 567 
L 343 567 
L 343 623 
L 316 623 
L 316 567 
" fill="black" />
<path d="
" fill="black" />
<path d="
" fill="black" />
<path d="
M 421 567 
L 448 567 
L 448 623 
L 421 623 
L 421 567 
" fill="black" />
<path d="
" fill="black" />
<path d="
" fill="black" />
<path d="
M 526 567 
L 553 567 
L 553 623 
L 526 623 
L 526 567 
" fill="black" />
<path d="
" fill="black" />
<path d="
" fill="black" />
<path d="
M 631 567 
L 658 567 
L 658 623 
L 631 623 
L 631 567 
" fill="black" />
<path d="
" fill="black" />
<path d="
" fill="black" />
<path d="
M 736 567 
L 763 567 
L 763 623 
L 736 623 
L 736 567 
" fill="black" />
<path d="
" fill="black" />
<path d="
" fill="black" />
<path d="
M 841 567 
L 868 567 
L 868 623 
L 841 623 
L 841 567 
" fill="black" />
<path d="
" fill="black" />
<path d="
" fill="black" />
<path d="
M 946 567 
L 973 567 
L 973 623 
L 946 623 
L 946 567 
" fill="black" />
<path d="
" fill="black" />
<path d="
" fill="black" />
<path d="
M 1051 567 
L 1078 567 
L 1078 623 
L 1051 623 
L 1051 567 
" fill="black" />
<path d="
" fill="black" />
<path d="
" fill="black" />
<path d="
M 1156 567 
L 1183 567 
L 1183 623 
L 1156 623 
L 1156 567 
" fill="black" />
<path d="
" fill="black" />
<path d="
M 1315 582 
L 1281 595 
L 1315 608 
L 1312 611 
L 1278 598 
L 1278 623 
L 1272 623 
L 1272 599 
L 1238 611 
L 1235 608 
L 1269 595 
L 1235 582 
L 1238 579 
L 1272 591 
L 1272 567 
L 1278 567 
L 1278 591 
L 1312 579 
L 1315 582 
" fill="black" />
</svg>
