<svg xmlns="http://www.w3.org/2000/svg"
viewBox="0 0 1435 635">
<path d="
M 120 554 
L 102 555 
L 136 555 
L 120 554 
M 113 554 
L 127 554 
L 170 555 
L 154 555 
L 142 555 
L 98 555 
L 85 555 
L 70 555 
L 113 554 
" fill="#339541" />
<path d="
M 70 553 
L 88 553 
L 88 554 
Q 88 554 , 96 554 
Q 103 554 , 120 554 
Q 137 554 , 145 554 
Q 152 554 , 152 554 
L 152 553 
L 170 553 
L 170 554 
Q 170 554 , 157 554 
Q 145 554 , 120 554 
Q 96 554 , 83 554 
Q 70 554 , 70 554 
L 70 553 
" fill="#D21010" />
<path d="
M 170 551 
L 170 551 
Q 155 551 , 147 551 
Q 139 551 , 129 551 
Q 108 551 , 98 551 
Q 86 551 , 86 551 
Q 86 552 , 98 552 
Q 108 552 , 129 552 
Q 139 552 , 147 552 
Q 155 552 , 170 552 
L 170 552 
Q 159 552 , 149 552 
Q 139 552 , 128 552 
Q 101 552 , 86 552 
Q 70 552 , 70 552 
Q 70 551 , 86 551 
Q 101 551 , 128 551 
Q 139 551 , 149 551 
Q 160 551 , 170 551 
" fill="#545FFF" />
<path d="
M 154 550 
L 154 550 
L 125 550 
L 125 550 
L 170 550 
L 170 550 
Q 159 550 , 148 550 
Q 139 550 , 127 550 
Q 101 550 , 85 550 
Q 70 550 , 70 550 
Q 70 549 , 85 549 
Q 101 549 , 127 549 
Q 138 549 , 147 549 
Q 157 549 , 167 549 
L 167 549 
Q 154 549 , 146 549 
Q 137 549 , 128 549 
Q 107 549 , 96 549 
Q 86 549 , 86 550 
Q 86 550 , 96 550 
Q 107 550 , 128 550 
Q 137 550 , 144 550 
Q 151 550 , 154 550 
" fill="#F5C000" />
<path d="
M 175 553 
L 184 553 
L 184 554 
Q 184 554 , 188 554 
Q 191 554 , 200 554 
Q 209 554 , 212 554 
Q 216 554 , 216 554 
L 216 553 
L 225 553 
L 225 554 
Q 225 554 , 219 554 
Q 212 554 , 200 554 
Q 188 554 , 181 554 
Q 175 554 , 175 554 
L 175 553 
" fill="#D21010" />
<path d="
M 267 554 
L 267 554 
L 253 554 
L 253 554 
L 275 554 
L 275 554 
Q 270 554 , 264 554 
Q 259 554 , 253 554 
Q 240 554 , 233 554 
Q 225 554 , 225 554 
Q 225 553 , 233 553 
Q 240 553 , 253 553 
Q 259 553 , 264 553 
Q 269 553 , 274 553 
L 274 553 
Q 267 553 , 263 553 
Q 259 553 , 254 553 
Q 244 553 , 238 553 
Q 233 553 , 233 554 
Q 233 554 , 238 554 
Q 244 554 , 254 554 
Q 259 554 , 262 554 
Q 266 554 , 267 554 
" fill="lightgray" />
<path d="
M 175 549 
L 184 549 
L 184 551 
Q 184 552 , 188 552 
Q 191 552 , 200 552 
Q 209 552 , 212 552 
Q 216 552 , 216 551 
L 216 549 
L 225 549 
L 225 551 
Q 225 552 , 219 552 
Q 212 553 , 200 553 
Q 188 553 , 181 552 
Q 175 552 , 175 551 
L 175 549 
" fill="#D21010" />
<path d="
M 250 550 
L 241 551 
L 258 551 
L 250 550 
M 246 549 
L 254 549 
L 275 553 
L 267 553 
L 261 552 
L 239 552 
L 232 553 
L 225 553 
L 246 549 
" fill="lightgray" />
<path d="
M 200 545 
L 191 547 
L 208 547 
L 200 545 
M 196 544 
L 204 544 
L 225 549 
L 217 549 
L 211 547 
L 189 547 
L 182 549 
L 175 549 
L 196 544 
" fill="#339541" />
<path d="
M 225 544 
L 234 544 
L 234 547 
Q 234 548 , 238 548 
Q 241 548 , 250 548 
Q 259 548 , 262 548 
Q 266 548 , 266 547 
L 266 544 
L 275 544 
L 275 547 
Q 275 548 , 269 548 
Q 262 549 , 250 549 
Q 238 549 , 231 548 
Q 225 548 , 225 547 
L 225 544 
" fill="lightgray" />
<path d="
M 217 543 
L 217 541 
L 203 541 
L 203 541 
L 225 541 
L 225 543 
Q 220 543 , 214 544 
Q 209 544 , 203 544 
Q 190 544 , 183 543 
Q 175 542 , 175 541 
Q 175 539 , 183 539 
Q 190 538 , 203 538 
Q 209 538 , 214 538 
Q 219 538 , 224 538 
L 224 539 
Q 217 539 , 213 539 
Q 209 539 , 204 539 
Q 194 539 , 188 539 
Q 183 540 , 183 541 
Q 183 542 , 188 542 
Q 194 543 , 204 543 
Q 209 543 , 212 543 
Q 216 543 , 217 543 
" fill="#F5C000" />
<path d="
M 225 538 
L 234 538 
L 234 541 
Q 234 542 , 238 543 
Q 241 543 , 250 543 
Q 259 543 , 262 543 
Q 266 542 , 266 541 
L 266 538 
L 275 538 
L 275 541 
Q 275 542 , 269 543 
Q 262 544 , 250 544 
Q 238 544 , 231 543 
Q 225 542 , 225 541 
L 225 538 
" fill="lightgray" />
<path d="
M 225 532 
L 225 533 
Q 218 532 , 214 532 
Q 209 532 , 204 532 
Q 194 532 , 189 532 
Q 183 533 , 183 534 
Q 183 536 , 189 536 
Q 194 537 , 204 537 
Q 209 537 , 214 537 
Q 218 536 , 225 536 
L 225 537 
Q 220 537 , 214 537 
Q 210 537 , 204 537 
Q 190 537 , 183 537 
Q 175 536 , 175 534 
Q 175 533 , 183 532 
Q 190 531 , 204 531 
Q 210 531 , 215 531 
Q 220 531 , 225 532 
" fill="#545FFF" />
<path d="
M 267 537 
L 267 535 
L 253 535 
L 253 534 
L 275 534 
L 275 537 
Q 270 537 , 264 537 
Q 259 537 , 253 537 
Q 240 537 , 233 537 
Q 225 536 , 225 534 
Q 225 533 , 233 532 
Q 240 531 , 253 531 
Q 259 531 , 264 531 
Q 269 531 , 274 532 
L 274 532 
Q 267 532 , 263 532 
Q 259 532 , 254 532 
Q 244 532 , 238 532 
Q 233 533 , 233 534 
Q 233 536 , 238 536 
Q 244 537 , 254 537 
Q 259 537 , 262 537 
Q 266 537 , 267 537 
" fill="lightgray" />
<path d="
M 217 530 
L 217 527 
L 203 527 
L 203 526 
L 225 526 
L 225 530 
Q 220 531 , 214 531 
Q 209 531 , 203 531 
Q 190 531 , 183 530 
Q 175 529 , 175 526 
Q 175 524 , 183 523 
Q 190 522 , 203 522 
Q 209 522 , 214 522 
Q 219 522 , 224 523 
L 224 524 
Q 217 523 , 213 523 
Q 209 523 , 204 523 
Q 194 523 , 188 524 
Q 183 525 , 183 526 
Q 183 528 , 188 529 
Q 194 530 , 204 530 
Q 209 530 , 212 530 
Q 216 530 , 217 530 
" fill="#F5C000" />
<path d="
M 275 523 
L 275 524 
Q 268 523 , 264 523 
Q 259 523 , 254 523 
Q 244 523 , 239 524 
Q 233 525 , 233 526 
Q 233 528 , 239 529 
Q 244 530 , 254 530 
Q 259 530 , 264 530 
Q 268 529 , 275 529 
L 275 530 
Q 270 530 , 264 531 
Q 260 531 , 254 531 
Q 240 531 , 233 530 
Q 225 528 , 225 526 
Q 225 524 , 233 523 
Q 240 522 , 254 522 
Q 260 522 , 265 522 
Q 270 522 , 275 523 
" fill="lightgray" />
<path d="
M 280 548 
L 298 548 
L 298 552 
Q 298 553 , 306 553 
Q 313 554 , 330 554 
Q 347 554 , 355 553 
Q 362 553 , 362 552 
L 362 548 
L 380 548 
L 380 552 
Q 380 553 , 367 554 
Q 355 554 , 330 554 
Q 306 554 , 293 554 
Q 280 553 , 280 552 
L 280 548 
" fill="#D21010" />
<path d="
M 330 538 
L 312 543 
L 346 543 
L 330 538 
M 323 536 
L 337 536 
L 380 548 
L 364 548 
L 352 544 
L 308 544 
L 295 548 
L 280 548 
L 323 536 
" fill="#339541" />
<path d="
M 380 519 
L 380 522 
Q 365 520 , 357 519 
Q 349 519 , 339 519 
Q 318 519 , 308 521 
Q 296 523 , 296 526 
Q 296 530 , 308 531 
Q 318 533 , 339 533 
Q 349 533 , 357 533 
Q 365 532 , 380 531 
L 380 533 
Q 369 534 , 359 535 
Q 349 535 , 338 535 
Q 311 535 , 296 533 
Q 280 530 , 280 526 
Q 280 522 , 296 519 
Q 311 517 , 338 517 
Q 349 517 , 359 517 
Q 370 518 , 380 519 
" fill="#545FFF" />
<path d="
M 364 508 
L 364 492 
L 335 492 
L 335 485 
L 380 485 
L 380 512 
Q 369 514 , 358 515 
Q 349 516 , 337 516 
Q 311 516 , 295 508 
Q 280 500 , 280 486 
Q 280 472 , 295 464 
Q 311 456 , 337 456 
Q 348 456 , 357 457 
Q 367 458 , 377 461 
L 377 469 
Q 364 465 , 356 464 
Q 347 463 , 338 463 
Q 317 463 , 306 469 
Q 296 475 , 296 486 
Q 296 498 , 306 504 
Q 317 510 , 338 510 
Q 347 510 , 354 509 
Q 361 509 , 364 508 
" fill="#F5C000" />
<path d="
M 427 554 
L 427 552 
L 413 552 
L 413 552 
L 435 552 
L 435 554 
Q 430 554 , 424 554 
Q 419 554 , 413 554 
Q 400 554 , 393 554 
Q 385 553 , 385 552 
Q 385 550 , 393 550 
Q 400 549 , 413 549 
Q 419 549 , 424 549 
Q 429 549 , 434 549 
L 434 550 
Q 427 550 , 423 550 
Q 419 550 , 414 550 
Q 404 550 , 398 550 
Q 393 551 , 393 552 
Q 393 553 , 398 553 
Q 404 554 , 414 554 
Q 419 554 , 422 554 
Q 426 554 , 427 554 
" fill="#F5C000" />
<path d="
M 435 549 
L 444 549 
L 444 552 
Q 444 553 , 448 553 
Q 451 554 , 460 554 
Q 469 554 , 472 553 
Q 476 553 , 476 552 
L 476 549 
L 485 549 
L 485 552 
Q 485 553 , 479 554 
Q 472 554 , 460 554 
Q 448 554 , 441 554 
Q 435 553 , 435 552 
L 435 549 
" fill="lightgray" />
<path d="
M 410 543 
L 401 546 
L 418 546 
L 410 543 
M 406 542 
L 414 542 
L 435 548 
L 427 548 
L 421 546 
L 399 546 
L 392 548 
L 385 548 
L 406 542 
" fill="#339541" />
<path d="
M 435 542 
L 444 542 
L 444 546 
Q 444 547 , 448 547 
Q 451 547 , 460 547 
Q 469 547 , 472 547 
Q 476 547 , 476 546 
L 476 542 
L 485 542 
L 485 546 
Q 485 547 , 479 547 
Q 472 548 , 460 548 
Q 448 548 , 441 547 
Q 435 547 , 435 546 
L 435 542 
" fill="lightgray" />
<path d="
M 385 535 
L 394 535 
L 394 539 
Q 394 540 , 398 540 
Q 401 541 , 410 541 
Q 419 541 , 422 540 
Q 426 540 , 426 539 
L 426 535 
L 435 535 
L 435 539 
Q 435 540 , 429 541 
Q 422 541 , 410 541 
Q 398 541 , 391 541 
Q 385 540 , 385 539 
L 385 535 
" fill="#D21010" />
<path d="
M 477 540 
L 477 539 
L 463 539 
L 463 538 
L 485 538 
L 485 541 
Q 480 541 , 474 541 
Q 469 541 , 463 541 
Q 450 541 , 443 540 
Q 435 540 , 435 538 
Q 435 537 , 443 536 
Q 450 535 , 463 535 
Q 469 535 , 474 535 
Q 479 535 , 484 536 
L 484 536 
Q 477 536 , 473 536 
Q 469 536 , 464 536 
Q 454 536 , 448 536 
Q 443 537 , 443 538 
Q 443 539 , 448 540 
Q 454 541 , 464 541 
Q 469 541 , 472 540 
Q 476 540 , 477 540 
" fill="lightgray" />
<path d="
M 385 527 
L 394 527 
L 394 531 
Q 394 533 , 398 533 
Q 401 534 , 410 534 
Q 419 534 , 422 533 
Q 426 533 , 426 531 
L 426 527 
L 435 527 
L 435 532 
Q 435 533 , 429 534 
Q 422 535 , 410 535 
Q 398 535 , 391 534 
Q 385 533 , 385 532 
L 385 527 
" fill="#D21010" />
<path d="
M 460 528 
L 451 531 
L 468 531 
L 460 528 
M 456 527 
L 464 527 
L 485 535 
L 477 535 
L 471 532 
L 449 532 
L 442 535 
L 435 535 
L 456 527 
" fill="lightgray" />
<path d="
M 435 504 
L 435 508 
Q 428 505 , 424 504 
Q 419 504 , 414 504 
Q 404 504 , 399 506 
Q 393 509 , 393 514 
Q 393 519 , 399 521 
Q 404 524 , 414 524 
Q 419 524 , 424 523 
Q 428 522 , 435 520 
L 435 524 
Q 430 525 , 424 526 
Q 420 526 , 414 526 
Q 400 526 , 393 523 
Q 385 519 , 385 514 
Q 385 508 , 393 504 
Q 400 501 , 414 501 
Q 420 501 , 425 502 
Q 430 502 , 435 504 
" fill="#545FFF" />
<path d="
M 477 523 
L 477 516 
L 463 516 
L 463 513 
L 485 513 
L 485 524 
Q 480 525 , 474 526 
Q 469 526 , 463 526 
Q 450 526 , 443 523 
Q 435 520 , 435 514 
Q 435 508 , 443 504 
Q 450 501 , 463 501 
Q 469 501 , 474 501 
Q 479 502 , 484 503 
L 484 506 
Q 477 505 , 473 504 
Q 469 504 , 464 504 
Q 454 504 , 448 506 
Q 443 509 , 443 514 
Q 443 519 , 448 521 
Q 454 523 , 464 523 
Q 469 523 , 472 523 
Q 476 523 , 477 523 
" fill="lightgray" />
<path d="
M 427 495 
L 427 485 
L 413 485 
L 413 481 
L 435 481 
L 435 497 
Q 430 499 , 424 499 
Q 419 500 , 413 500 
Q 400 500 , 393 495 
Q 385 490 , 385 482 
Q 385 473 , 393 468 
Q 400 463 , 413 463 
Q 419 463 , 424 464 
Q 429 464 , 434 466 
L 434 471 
Q 427 469 , 423 468 
Q 419 467 , 414 467 
Q 404 467 , 398 471 
Q 393 474 , 393 482 
Q 393 489 , 398 492 
Q 404 496 , 414 496 
Q 419 496 , 422 496 
Q 426 495 , 427 495 
" fill="#F5C000" />
<path d="
M 485 467 
L 485 473 
Q 478 469 , 474 468 
Q 469 467 , 464 467 
Q 454 467 , 449 471 
Q 443 474 , 443 481 
Q 443 489 , 449 492 
Q 454 496 , 464 496 
Q 469 496 , 474 495 
Q 478 494 , 485 490 
L 485 496 
Q 480 498 , 474 499 
Q 470 500 , 464 500 
Q 450 500 , 443 495 
Q 435 490 , 435 482 
Q 435 473 , 443 468 
Q 450 463 , 464 463 
Q 470 463 , 475 464 
Q 480 465 , 485 467 
" fill="lightgray" />
<path d="
M 540 550 
L 522 553 
L 556 553 
L 540 550 
M 533 549 
L 547 549 
L 590 555 
L 574 555 
L 562 553 
L 518 553 
L 505 555 
L 490 555 
L 533 549 
" fill="#339541" />
<path d="
M 574 547 
L 574 544 
L 545 544 
L 545 543 
L 590 543 
L 590 548 
Q 579 548 , 568 548 
Q 559 549 , 547 549 
Q 521 549 , 505 547 
Q 490 546 , 490 543 
Q 490 541 , 505 539 
Q 521 538 , 547 538 
Q 558 538 , 567 538 
Q 577 538 , 587 539 
L 587 540 
Q 574 540 , 566 539 
Q 557 539 , 548 539 
Q 527 539 , 516 540 
Q 506 541 , 506 543 
Q 506 545 , 516 546 
Q 527 548 , 548 548 
Q 557 548 , 564 547 
Q 571 547 , 574 547 
" fill="#F5C000" />
<path d="
M 490 525 
L 508 525 
L 508 532 
Q 508 534 , 516 535 
Q 523 536 , 540 536 
Q 557 536 , 565 535 
Q 572 534 , 572 532 
L 572 525 
L 590 525 
L 590 532 
Q 590 535 , 577 536 
Q 565 537 , 540 537 
Q 516 537 , 503 536 
Q 490 535 , 490 532 
L 490 525 
" fill="#D21010" />
<path d="
M 590 492 
L 590 497 
Q 575 494 , 567 493 
Q 559 492 , 549 492 
Q 528 492 , 518 496 
Q 506 499 , 506 506 
Q 506 513 , 518 517 
Q 528 520 , 549 520 
Q 559 520 , 567 520 
Q 575 519 , 590 515 
L 590 521 
Q 579 523 , 569 524 
Q 559 524 , 548 524 
Q 521 524 , 506 519 
Q 490 515 , 490 506 
Q 490 498 , 506 493 
Q 521 488 , 548 488 
Q 559 488 , 569 489 
Q 580 490 , 590 492 
" fill="#545FFF" />
<path d="
M 645 553 
L 627 554 
L 661 554 
L 645 553 
M 638 553 
L 652 553 
L 695 555 
L 679 555 
L 667 554 
L 623 554 
L 610 555 
L 595 555 
L 638 553 
" fill="#339541" />
<path d="
M 595 540 
L 613 540 
L 613 548 
Q 613 550 , 621 551 
Q 628 551 , 645 551 
Q 662 551 , 670 551 
Q 677 550 , 677 548 
L 677 540 
L 695 540 
L 695 548 
Q 695 550 , 682 552 
Q 670 553 , 645 553 
Q 621 553 , 608 552 
Q 595 550 , 595 548 
L 595 540 
" fill="#D21010" />
<path d="
M 679 536 
L 679 529 
L 650 529 
L 650 527 
L 695 527 
L 695 537 
Q 684 538 , 673 539 
Q 664 539 , 652 539 
Q 626 539 , 610 536 
Q 595 533 , 595 527 
Q 595 521 , 610 518 
Q 626 515 , 652 515 
Q 663 515 , 672 515 
Q 682 516 , 692 517 
L 692 520 
Q 679 519 , 671 518 
Q 662 518 , 653 518 
Q 632 518 , 621 520 
Q 611 522 , 611 527 
Q 611 532 , 621 534 
Q 632 536 , 653 536 
Q 662 536 , 669 536 
Q 676 536 , 679 536 
" fill="#F5C000" />
<path d="
M 695 492 
L 695 496 
Q 680 493 , 672 492 
Q 664 492 , 654 492 
Q 633 492 , 623 494 
Q 611 497 , 611 502 
Q 611 507 , 623 509 
Q 633 512 , 654 512 
Q 664 512 , 672 511 
Q 680 510 , 695 508 
L 695 512 
Q 684 513 , 674 514 
Q 664 514 , 653 514 
Q 626 514 , 611 511 
Q 595 507 , 595 502 
Q 595 496 , 611 492 
Q 626 489 , 653 489 
Q 664 489 , 674 490 
Q 685 490 , 695 492 
" fill="#545FFF" />
<path d="
M 750 554 
L 732 555 
L 766 555 
L 750 554 
M 743 554 
L 757 554 
L 800 555 
L 784 555 
L 772 555 
L 728 555 
L 715 555 
L 700 555 
L 743 554 
" fill="#339541" />
<path d="
M 700 553 
L 718 553 
L 718 554 
Q 718 554 , 726 554 
Q 733 554 , 750 554 
Q 767 554 , 775 554 
Q 782 554 , 782 554 
L 782 553 
L 800 553 
L 800 554 
Q 800 554 , 787 554 
Q 775 554 , 750 554 
Q 726 554 , 713 554 
Q 700 554 , 700 554 
L 700 553 
" fill="#D21010" />
<path d="
M 800 551 
L 800 551 
Q 785 551 , 777 551 
Q 769 551 , 759 551 
Q 738 551 , 728 551 
Q 716 551 , 716 551 
Q 716 552 , 728 552 
Q 738 552 , 759 552 
Q 769 552 , 777 552 
Q 785 552 , 800 552 
L 800 552 
Q 789 552 , 779 552 
Q 769 552 , 758 552 
Q 731 552 , 716 552 
Q 700 552 , 700 552 
Q 700 551 , 716 551 
Q 731 551 , 758 551 
Q 769 551 , 779 551 
Q 790 551 , 800 551 
" fill="#545FFF" />
<path d="
M 784 550 
L 784 550 
L 755 550 
L 755 550 
L 800 550 
L 800 550 
Q 789 550 , 778 550 
Q 769 550 , 757 550 
Q 731 550 , 715 550 
Q 700 550 , 700 550 
Q 700 549 , 715 549 
Q 731 549 , 757 549 
Q 768 549 , 777 549 
Q 787 549 , 797 549 
L 797 549 
Q 784 549 , 776 549 
Q 767 549 , 758 549 
Q 737 549 , 726 549 
Q 716 549 , 716 550 
Q 716 550 , 726 550 
Q 737 550 , 758 550 
Q 767 550 , 774 550 
Q 781 550 , 784 550 
" fill="#F5C000" />
<path d="
M 905 545 
L 905 547 
Q 890 546 , 882 545 
Q 874 545 , 864 545 
Q 843 545 , 833 546 
Q 821 547 , 821 549 
Q 821 551 , 833 552 
Q 843 553 , 864 553 
Q 874 553 , 882 553 
Q 890 553 , 905 552 
L 905 553 
Q 894 554 , 884 554 
Q 874 554 , 863 554 
Q 836 554 , 821 553 
Q 805 552 , 805 549 
Q 805 547 , 821 545 
Q 836 544 , 863 544 
Q 874 544 , 884 544 
Q 895 545 , 905 545 
" fill="#545FFF" />
<path d="
M 805 533 
L 823 533 
L 823 539 
Q 823 541 , 831 542 
Q 838 542 , 855 542 
Q 872 542 , 880 542 
Q 887 541 , 887 539 
L 887 533 
L 905 533 
L 905 539 
Q 905 541 , 892 542 
Q 880 543 , 855 543 
Q 831 543 , 818 542 
Q 805 541 , 805 539 
L 805 533 
" fill="#D21010" />
<path d="
M 855 518 
L 837 526 
L 871 526 
L 855 518 
M 848 515 
L 862 515 
L 905 533 
L 889 533 
L 877 528 
L 833 528 
L 820 533 
L 805 533 
L 848 515 
" fill="#339541" />
<path d="
M 889 497 
L 889 462 
L 860 462 
L 860 448 
L 905 448 
L 905 505 
Q 894 511 , 883 513 
Q 874 515 , 862 515 
Q 836 515 , 820 498 
Q 805 481 , 805 451 
Q 805 421 , 820 404 
Q 836 387 , 862 387 
Q 873 387 , 882 389 
Q 892 392 , 902 397 
L 902 414 
Q 889 406 , 881 404 
Q 872 402 , 863 402 
Q 842 402 , 831 414 
Q 821 426 , 821 451 
Q 821 476 , 831 489 
Q 842 501 , 863 501 
Q 872 501 , 879 499 
Q 886 498 , 889 497 
" fill="#F5C000" />
<path d="
M 952 554 
L 952 552 
L 938 552 
L 938 552 
L 960 552 
L 960 554 
Q 955 554 , 949 554 
Q 944 554 , 938 554 
Q 925 554 , 918 554 
Q 910 553 , 910 552 
Q 910 550 , 918 550 
Q 925 549 , 938 549 
Q 944 549 , 949 549 
Q 954 549 , 959 549 
L 959 550 
Q 952 550 , 948 550 
Q 944 550 , 939 550 
Q 929 550 , 923 550 
Q 918 551 , 918 552 
Q 918 553 , 923 553 
Q 929 554 , 939 554 
Q 944 554 , 947 554 
Q 951 554 , 952 554 
" fill="lightgray" />
<path d="
M 960 549 
L 969 549 
L 969 552 
Q 969 553 , 973 553 
Q 976 554 , 985 554 
Q 994 554 , 997 553 
Q 1001 553 , 1001 552 
L 1001 549 
L 1010 549 
L 1010 552 
Q 1010 553 , 1004 554 
Q 997 554 , 985 554 
Q 973 554 , 966 554 
Q 960 553 , 960 552 
L 960 549 
" fill="#D21010" />
<path d="
M 935 543 
L 926 546 
L 943 546 
L 935 543 
M 931 542 
L 939 542 
L 960 548 
L 952 548 
L 946 546 
L 924 546 
L 917 548 
L 910 548 
L 931 542 
" fill="lightgray" />
<path d="
M 960 542 
L 969 542 
L 969 546 
Q 969 547 , 973 547 
Q 976 547 , 985 547 
Q 994 547 , 997 547 
Q 1001 547 , 1001 546 
L 1001 542 
L 1010 542 
L 1010 546 
Q 1010 547 , 1004 547 
Q 997 548 , 985 548 
Q 973 548 , 966 547 
Q 960 547 , 960 546 
L 960 542 
" fill="#D21010" />
<path d="
M 910 535 
L 919 535 
L 919 539 
Q 919 540 , 923 540 
Q 926 541 , 935 541 
Q 944 541 , 947 540 
Q 951 540 , 951 539 
L 951 535 
L 960 535 
L 960 539 
Q 960 540 , 954 541 
Q 947 541 , 935 541 
Q 923 541 , 916 541 
Q 910 540 , 910 539 
L 910 535 
" fill="lightgray" />
<path d="
M 1002 540 
L 1002 539 
L 988 539 
L 988 538 
L 1010 538 
L 1010 541 
Q 1005 541 , 999 541 
Q 994 541 , 988 541 
Q 975 541 , 968 540 
Q 960 540 , 960 538 
Q 960 537 , 968 536 
Q 975 535 , 988 535 
Q 994 535 , 999 535 
Q 1004 535 , 1009 536 
L 1009 536 
Q 1002 536 , 998 536 
Q 994 536 , 989 536 
Q 979 536 , 973 536 
Q 968 537 , 968 538 
Q 968 539 , 973 540 
Q 979 541 , 989 541 
Q 994 541 , 997 540 
Q 1001 540 , 1002 540 
" fill="#F5C000" />
<path d="
M 910 527 
L 919 527 
L 919 531 
Q 919 533 , 923 533 
Q 926 534 , 935 534 
Q 944 534 , 947 533 
Q 951 533 , 951 531 
L 951 527 
L 960 527 
L 960 532 
Q 960 533 , 954 534 
Q 947 535 , 935 535 
Q 923 535 , 916 534 
Q 910 533 , 910 532 
L 910 527 
" fill="lightgray" />
<path d="
M 985 528 
L 976 531 
L 993 531 
L 985 528 
M 981 527 
L 989 527 
L 1010 535 
L 1002 535 
L 996 532 
L 974 532 
L 967 535 
L 960 535 
L 981 527 
" fill="#339541" />
<path d="
M 960 504 
L 960 508 
Q 953 505 , 949 504 
Q 944 504 , 939 504 
Q 929 504 , 924 506 
Q 918 509 , 918 514 
Q 918 519 , 924 521 
Q 929 524 , 939 524 
Q 944 524 , 949 523 
Q 953 522 , 960 520 
L 960 524 
Q 955 525 , 949 526 
Q 945 526 , 939 526 
Q 925 526 , 918 523 
Q 910 519 , 910 514 
Q 910 508 , 918 504 
Q 925 501 , 939 501 
Q 945 501 , 950 502 
Q 955 502 , 960 504 
" fill="lightgray" />
<path d="
M 1002 523 
L 1002 516 
L 988 516 
L 988 513 
L 1010 513 
L 1010 524 
Q 1005 525 , 999 526 
Q 994 526 , 988 526 
Q 975 526 , 968 523 
Q 960 520 , 960 514 
Q 960 508 , 968 504 
Q 975 501 , 988 501 
Q 994 501 , 999 501 
Q 1004 502 , 1009 503 
L 1009 506 
Q 1002 505 , 998 504 
Q 994 504 , 989 504 
Q 979 504 , 973 506 
Q 968 509 , 968 514 
Q 968 519 , 973 521 
Q 979 523 , 989 523 
Q 994 523 , 997 523 
Q 1001 523 , 1002 523 
" fill="#F5C000" />
<path d="
M 952 495 
L 952 485 
L 938 485 
L 938 481 
L 960 481 
L 960 497 
Q 955 499 , 949 499 
Q 944 500 , 938 500 
Q 925 500 , 918 495 
Q 910 490 , 910 482 
Q 910 473 , 918 468 
Q 925 463 , 938 463 
Q 944 463 , 949 464 
Q 954 464 , 959 466 
L 959 471 
Q 952 469 , 948 468 
Q 944 467 , 939 467 
Q 929 467 , 923 471 
Q 918 474 , 918 482 
Q 918 489 , 923 492 
Q 929 496 , 939 496 
Q 944 496 , 947 496 
Q 951 495 , 952 495 
" fill="lightgray" />
<path d="
M 1010 467 
L 1010 473 
Q 1003 469 , 999 468 
Q 994 467 , 989 467 
Q 979 467 , 974 471 
Q 968 474 , 968 481 
Q 968 489 , 974 492 
Q 979 496 , 989 496 
Q 994 496 , 999 495 
Q 1003 494 , 1010 490 
L 1010 496 
Q 1005 498 , 999 499 
Q 995 500 , 989 500 
Q 975 500 , 968 495 
Q 960 490 , 960 482 
Q 960 473 , 968 468 
Q 975 463 , 989 463 
Q 995 463 , 1000 464 
Q 1005 465 , 1010 467 
" fill="#545FFF" />
<path d="
M 1015 550 
L 1033 550 
L 1033 553 
Q 1033 553 , 1041 554 
Q 1048 554 , 1065 554 
Q 1082 554 , 1090 554 
Q 1097 553 , 1097 553 
L 1097 550 
L 1115 550 
L 1115 553 
Q 1115 554 , 1102 554 
Q 1090 554 , 1065 554 
Q 1041 554 , 1028 554 
Q 1015 554 , 1015 553 
L 1015 550 
" fill="#D21010" />
<path d="
M 1065 540 
L 1047 545 
L 1081 545 
L 1065 540 
M 1058 538 
L 1072 538 
L 1115 549 
L 1099 549 
L 1087 546 
L 1043 546 
L 1030 549 
L 1015 549 
L 1058 538 
" fill="#339541" />
<path d="
M 1099 533 
L 1099 526 
L 1070 526 
L 1070 523 
L 1115 523 
L 1115 535 
Q 1104 536 , 1093 537 
Q 1084 537 , 1072 537 
Q 1046 537 , 1030 534 
Q 1015 530 , 1015 524 
Q 1015 518 , 1030 514 
Q 1046 511 , 1072 511 
Q 1083 511 , 1092 511 
Q 1102 512 , 1112 513 
L 1112 516 
Q 1099 515 , 1091 515 
Q 1082 514 , 1073 514 
Q 1052 514 , 1041 517 
Q 1031 519 , 1031 524 
Q 1031 529 , 1041 532 
Q 1052 534 , 1073 534 
Q 1082 534 , 1089 534 
Q 1096 534 , 1099 533 
" fill="#F5C000" />
<path d="
M 1115 442 
L 1115 454 
Q 1100 446 , 1092 444 
Q 1084 442 , 1074 442 
Q 1053 442 , 1043 450 
Q 1031 457 , 1031 472 
Q 1031 487 , 1043 495 
Q 1053 502 , 1074 502 
Q 1084 502 , 1092 500 
Q 1100 498 , 1115 490 
L 1115 503 
Q 1104 507 , 1094 509 
Q 1084 510 , 1073 510 
Q 1046 510 , 1031 500 
Q 1015 490 , 1015 472 
Q 1015 455 , 1031 444 
Q 1046 434 , 1073 434 
Q 1084 434 , 1094 436 
Q 1105 438 , 1115 442 
" fill="#545FFF" />
<path d="
M 1120 553 
L 1129 553 
L 1129 554 
Q 1129 554 , 1133 554 
Q 1136 554 , 1145 554 
Q 1154 554 , 1157 554 
Q 1161 554 , 1161 554 
L 1161 553 
L 1170 553 
L 1170 554 
Q 1170 554 , 1164 554 
Q 1157 554 , 1145 554 
Q 1133 554 , 1126 554 
Q 1120 554 , 1120 554 
L 1120 553 
" fill="lightgray" />
<path d="
M 1212 554 
L 1212 554 
L 1198 554 
L 1198 554 
L 1220 554 
L 1220 554 
Q 1215 554 , 1209 554 
Q 1204 554 , 1198 554 
Q 1185 554 , 1178 554 
Q 1170 554 , 1170 554 
Q 1170 553 , 1178 553 
Q 1185 553 , 1198 553 
Q 1204 553 , 1209 553 
Q 1214 553 , 1219 553 
L 1219 553 
Q 1212 553 , 1208 553 
Q 1204 553 , 1199 553 
Q 1189 553 , 1183 553 
Q 1178 553 , 1178 554 
Q 1178 554 , 1183 554 
Q 1189 554 , 1199 554 
Q 1204 554 , 1207 554 
Q 1211 554 , 1212 554 
" fill="#F5C000" />
<path d="
M 1120 549 
L 1129 549 
L 1129 551 
Q 1129 552 , 1133 552 
Q 1136 552 , 1145 552 
Q 1154 552 , 1157 552 
Q 1161 552 , 1161 551 
L 1161 549 
L 1170 549 
L 1170 551 
Q 1170 552 , 1164 552 
Q 1157 553 , 1145 553 
Q 1133 553 , 1126 552 
Q 1120 552 , 1120 551 
L 1120 549 
" fill="lightgray" />
<path d="
M 1195 550 
L 1186 551 
L 1203 551 
L 1195 550 
M 1191 549 
L 1199 549 
L 1220 553 
L 1212 553 
L 1206 552 
L 1184 552 
L 1177 553 
L 1170 553 
L 1191 549 
" fill="#339541" />
<path d="
M 1145 545 
L 1136 547 
L 1153 547 
L 1145 545 
M 1141 544 
L 1149 544 
L 1170 549 
L 1162 549 
L 1156 547 
L 1134 547 
L 1127 549 
L 1120 549 
L 1141 544 
" fill="lightgray" />
<path d="
M 1170 544 
L 1179 544 
L 1179 547 
Q 1179 548 , 1183 548 
Q 1186 548 , 1195 548 
Q 1204 548 , 1207 548 
Q 1211 548 , 1211 547 
L 1211 544 
L 1220 544 
L 1220 547 
Q 1220 548 , 1214 548 
Q 1207 549 , 1195 549 
Q 1183 549 , 1176 548 
Q 1170 548 , 1170 547 
L 1170 544 
" fill="#D21010" />
<path d="
M 1162 543 
L 1162 541 
L 1148 541 
L 1148 541 
L 1170 541 
L 1170 543 
Q 1165 543 , 1159 544 
Q 1154 544 , 1148 544 
Q 1135 544 , 1128 543 
Q 1120 542 , 1120 541 
Q 1120 539 , 1128 539 
Q 1135 538 , 1148 538 
Q 1154 538 , 1159 538 
Q 1164 538 , 1169 538 
L 1169 539 
Q 1162 539 , 1158 539 
Q 1154 539 , 1149 539 
Q 1139 539 , 1133 539 
Q 1128 540 , 1128 541 
Q 1128 542 , 1133 542 
Q 1139 543 , 1149 543 
Q 1154 543 , 1157 543 
Q 1161 543 , 1162 543 
" fill="lightgray" />
<path d="
M 1170 538 
L 1179 538 
L 1179 541 
Q 1179 542 , 1183 543 
Q 1186 543 , 1195 543 
Q 1204 543 , 1207 543 
Q 1211 542 , 1211 541 
L 1211 538 
L 1220 538 
L 1220 541 
Q 1220 542 , 1214 543 
Q 1207 544 , 1195 544 
Q 1183 544 , 1176 543 
Q 1170 542 , 1170 541 
L 1170 538 
" fill="#D21010" />
<path d="
M 1170 532 
L 1170 533 
Q 1163 532 , 1159 532 
Q 1154 532 , 1149 532 
Q 1139 532 , 1134 532 
Q 1128 533 , 1128 534 
Q 1128 536 , 1134 536 
Q 1139 537 , 1149 537 
Q 1154 537 , 1159 537 
Q 1163 536 , 1170 536 
L 1170 537 
Q 1165 537 , 1159 537 
Q 1155 537 , 1149 537 
Q 1135 537 , 1128 537 
Q 1120 536 , 1120 534 
Q 1120 533 , 1128 532 
Q 1135 531 , 1149 531 
Q 1155 531 , 1160 531 
Q 1165 531 , 1170 532 
" fill="lightgray" />
<path d="
M 1212 537 
L 1212 535 
L 1198 535 
L 1198 534 
L 1220 534 
L 1220 537 
Q 1215 537 , 1209 537 
Q 1204 537 , 1198 537 
Q 1185 537 , 1178 537 
Q 1170 536 , 1170 534 
Q 1170 533 , 1178 532 
Q 1185 531 , 1198 531 
Q 1204 531 , 1209 531 
Q 1214 531 , 1219 532 
L 1219 532 
Q 1212 532 , 1208 532 
Q 1204 532 , 1199 532 
Q 1189 532 , 1183 532 
Q 1178 533 , 1178 534 
Q 1178 536 , 1183 536 
Q 1189 537 , 1199 537 
Q 1204 537 , 1207 537 
Q 1211 537 , 1212 537 
" fill="#F5C000" />
<path d="
M 1162 530 
L 1162 527 
L 1148 527 
L 1148 526 
L 1170 526 
L 1170 530 
Q 1165 531 , 1159 531 
Q 1154 531 , 1148 531 
Q 1135 531 , 1128 530 
Q 1120 529 , 1120 526 
Q 1120 524 , 1128 523 
Q 1135 522 , 1148 522 
Q 1154 522 , 1159 522 
Q 1164 522 , 1169 523 
L 1169 524 
Q 1162 523 , 1158 523 
Q 1154 523 , 1149 523 
Q 1139 523 , 1133 524 
Q 1128 525 , 1128 526 
Q 1128 528 , 1133 529 
Q 1139 530 , 1149 530 
Q 1154 530 , 1157 530 
Q 1161 530 , 1162 530 
" fill="lightgray" />
<path d="
M 1220 523 
L 1220 524 
Q 1213 523 , 1209 523 
Q 1204 523 , 1199 523 
Q 1189 523 , 1184 524 
Q 1178 525 , 1178 526 
Q 1178 528 , 1184 529 
Q 1189 530 , 1199 530 
Q 1204 530 , 1209 530 
Q 1213 529 , 1220 529 
L 1220 530 
Q 1215 530 , 1209 531 
Q 1205 531 , 1199 531 
Q 1185 531 , 1178 530 
Q 1170 528 , 1170 526 
Q 1170 524 , 1178 523 
Q 1185 522 , 1199 522 
Q 1205 522 , 1210 522 
Q 1215 522 , 1220 523 
" fill="#545FFF" />
<path d="
M 1225 551 
L 1243 551 
L 1243 553 
Q 1243 553 , 1251 554 
Q 1258 554 , 1275 554 
Q 1292 554 , 1300 554 
Q 1307 553 , 1307 553 
L 1307 551 
L 1325 551 
L 1325 553 
Q 1325 554 , 1312 554 
Q 1300 554 , 1275 554 
Q 1251 554 , 1238 554 
Q 1225 554 , 1225 553 
L 1225 551 
" fill="#D21010" />
<path d="
M 1325 544 
L 1325 545 
Q 1310 544 , 1302 544 
Q 1294 544 , 1284 544 
Q 1263 544 , 1253 544 
Q 1241 545 , 1241 546 
Q 1241 548 , 1253 549 
Q 1263 549 , 1284 549 
Q 1294 549 , 1302 549 
Q 1310 549 , 1325 548 
L 1325 549 
Q 1314 550 , 1304 550 
Q 1294 550 , 1283 550 
Q 1256 550 , 1241 549 
Q 1225 548 , 1225 547 
Q 1225 545 , 1241 544 
Q 1256 543 , 1283 543 
Q 1294 543 , 1304 543 
Q 1315 543 , 1325 544 
" fill="#545FFF" />
<path d="
M 1275 535 
L 1257 539 
L 1291 539 
L 1275 535 
M 1268 533 
L 1282 533 
L 1325 543 
L 1309 543 
L 1297 540 
L 1253 540 
L 1240 543 
L 1225 543 
L 1268 533 
" fill="#339541" />
<path d="
M 1309 530 
L 1309 526 
L 1280 526 
L 1280 524 
L 1325 524 
L 1325 531 
Q 1314 532 , 1303 532 
Q 1294 532 , 1282 532 
Q 1256 532 , 1240 530 
Q 1225 528 , 1225 525 
Q 1225 521 , 1240 519 
Q 1256 517 , 1282 517 
Q 1293 517 , 1302 517 
Q 1312 518 , 1322 518 
L 1322 520 
Q 1309 519 , 1301 519 
Q 1292 519 , 1283 519 
Q 1262 519 , 1251 520 
Q 1241 522 , 1241 525 
Q 1241 528 , 1251 529 
Q 1262 530 , 1283 530 
Q 1292 530 , 1299 530 
Q 1306 530 , 1309 530 
" fill="#F5C000" />
<path d="
M 1380 554 
L 1362 555 
L 1396 555 
L 1380 554 
M 1373 554 
L 1387 554 
L 1430 555 
L 1414 555 
L 1402 555 
L 1358 555 
L 1345 555 
L 1330 555 
L 1373 554 
" fill="#339541" />
<path d="
M 1330 553 
L 1348 553 
L 1348 554 
Q 1348 554 , 1356 554 
Q 1363 554 , 1380 554 
Q 1397 554 , 1405 554 
Q 1412 554 , 1412 554 
L 1412 553 
L 1430 553 
L 1430 554 
Q 1430 554 , 1417 554 
Q 1405 554 , 1380 554 
Q 1356 554 , 1343 554 
Q 1330 554 , 1330 554 
L 1330 553 
" fill="#D21010" />
<path d="
M 1430 551 
L 1430 551 
Q 1415 551 , 1407 551 
Q 1399 551 , 1389 551 
Q 1368 551 , 1358 551 
Q 1346 551 , 1346 551 
Q 1346 552 , 1358 552 
Q 1368 552 , 1389 552 
Q 1399 552 , 1407 552 
Q 1415 552 , 1430 552 
L 1430 552 
Q 1419 552 , 1409 552 
Q 1399 552 , 1388 552 
Q 1361 552 , 1346 552 
Q 1330 552 , 1330 552 
Q 1330 551 , 1346 551 
Q 1361 551 , 1388 551 
Q 1399 551 , 1409 551 
Q 1420 551 , 1430 551 
" fill="#545FFF" />
<path d="
M 1414 550 
L 1414 550 
L 1385 550 
L 1385 550 
L 1430 550 
L 1430 550 
Q 1419 550 , 1408 550 
Q 1399 550 , 1387 550 
Q 1361 550 , 1345 550 
Q 1330 550 , 1330 550 
Q 1330 549 , 1345 549 
Q 1361 549 , 1387 549 
Q 1398 549 , 1407 549 
Q 1417 549 , 1427 549 
L 1427 549 
Q 1414 549 , 1406 549 
Q 1397 549 , 1388 549 
Q 1367 549 , 1356 549 
Q 1346 549 , 1346 550 
Q 1346 550 , 1356 550 
Q 1367 550 , 1388 550 
Q 1397 550 , 1404 550 
Q 1411 550 , 1414 550 
" fill="#F5C000" />
<path d="M 65 168 L 65 555 " stroke="black" stroke-width="1.5"/>
<path d="M 55 555 L 65 555 " stroke="black" stroke-width="4"/>
<text text-anchor="end" x="50" y="555" font-size="50" alignment-baseline="middle">0</text>
<path d="M 55 362 L 65 362 " stroke="black" stroke-width="4"/>
<text text-anchor="end" x="50" y="362" font-size="50" alignment-baseline="middle">1</text>
<path d="M 55 168 L 65 168 " stroke="black" stroke-width="4"/>
<text text-anchor="end" x="50" y="168" font-size="50" alignment-baseline="middle">2</text>
<text text-anchor="middle" x="750" y="50" font-size="50" alignment-baseline="baseline"></text>
G<path d="
M 160 582 
L 126 595 
L 160 608 
L 157 611 
L 123 598 
L 123 623 
L 117 623 
L 117 599 
L 83 611 
L 80 608 
L 114 595 
L 80 582 
L 83 579 
L 117 591 
L 117 567 
L 123 567 
L 123 591 
L 157 579 
L 160 582 
" fill="black" />
<path d="
M 265 567 
Q 236 574 , 223 581 
Q 210 588 , 210 595 
Q 210 602 , 223 609 
Q 236 616 , 265 623 
L 241 623 
Q 213 616 , 199 609 
Q 185 602 , 185 595 
Q 185 588 , 199 581 
Q 213 574 , 241 567 
L 265 567 
" fill="black" />
<path d="
" fill="black" />
<path d="
M 316 567 
L 343 567 
L 343 623 
L 316 623 
L 316 567 
" fill="black" />
<path d="
" fill="black" />
<path d="
M 475 567 
Q 446 574 , 433 581 
Q 420 588 , 420 595 
Q 420 602 , 433 609 
Q 446 616 , 475 623 
L 451 623 
Q 423 616 , 409 609 
Q 395 602 , 395 595 
Q 395 588 , 409 581 
Q 423 574 , 451 567 
L 475 567 
" fill="black" />
<path d="
" fill="black" />
<path d="
M 526 567 
L 553 567 
L 553 623 
L 526 623 
L 526 567 
" fill="black" />
<path d="
" fill="black" />
<path d="
" fill="black" />
<path d="
M 622 567 
L 642 567 
L 642 623 
L 622 623 
L 622 567 
" fill="black" />
<path d="
" fill="black" />
<path d="
M 674 621 
L 674 616 
Q 675 618 , 677 619 
Q 678 619 , 680 619 
Q 686 619 , 688 609 
Q 689 604 , 689 595 
Q 689 597 , 687 600 
Q 685 603 , 681 603 
Q 677 603 , 675 598 
Q 672 593 , 672 586 
Q 672 577 , 675 572 
Q 677 567 , 682 567 
Q 687 567 , 689 574 
Q 692 581 , 692 595 
Q 692 609 , 689 616 
Q 685 623 , 680 623 
Q 678 623 , 677 622 
Q 675 622 , 674 621 
M 676 595 
Q 678 599 , 681 599 
Q 685 599 , 687 595 
Q 689 591 , 689 584 
Q 689 578 , 687 574 
Q 685 571 , 681 571 
Q 678 571 , 676 574 
Q 675 578 , 675 584 
Q 675 591 , 676 595 
" fill="black" />
<path d="
M 790 582 
L 756 595 
L 790 608 
L 787 611 
L 753 598 
L 753 623 
L 747 623 
L 747 599 
L 713 611 
L 710 608 
L 744 595 
L 710 582 
L 713 579 
L 747 591 
L 747 567 
L 753 567 
L 753 591 
L 787 579 
L 790 582 
" fill="black" />
<path d="
" fill="black" />
<path d="
M 841 567 
L 868 567 
L 868 623 
L 841 623 
L 841 567 
" fill="black" />
<path d="
" fill="black" />
<path d="
M 920 567 
L 944 567 
Q 972 574 , 986 581 
Q 1000 588 , 1000 595 
Q 1000 602 , 986 609 
Q 972 616 , 944 623 
L 920 623 
Q 949 616 , 962 609 
Q 975 602 , 975 595 
Q 975 588 , 962 581 
Q 949 574 , 920 567 
" fill="black" />
<path d="
" fill="black" />
<path d="
M 1051 567 
L 1078 567 
L 1078 623 
L 1051 623 
L 1051 567 
" fill="black" />
<path d="
" fill="black" />
<path d="
M 1130 567 
L 1154 567 
Q 1182 574 , 1196 581 
Q 1210 588 , 1210 595 
Q 1210 602 , 1196 609 
Q 1182 616 , 1154 623 
L 1130 623 
Q 1159 616 , 1172 609 
Q 1185 602 , 1185 595 
Q 1185 588 , 1172 581 
Q 1159 574 , 1130 567 
" fill="black" />
<path d="
" fill="black" />
<path d="
M 1261 567 
L 1288 567 
L 1288 623 
L 1261 623 
L 1261 567 
" fill="black" />
<path d="
" fill="black" />
<path d="
M 1420 582 
L 1386 595 
L 1420 608 
L 1417 611 
L 1383 598 
L 1383 623 
L 1377 623 
L 1377 599 
L 1343 611 
L 1340 608 
L 1374 595 
L 1340 582 
L 1343 579 
L 1377 591 
L 1377 567 
L 1383 567 
L 1383 591 
L 1417 579 
L 1420 582 
" fill="black" />
</svg>
