<svg xmlns="http://www.w3.org/2000/svg"
viewBox="0 0 700 635">
<path d="
M 170 554 
L 170 554 
Q 155 554 , 147 554 
Q 139 554 , 129 554 
Q 108 554 , 98 554 
Q 86 554 , 86 554 
Q 86 554 , 98 555 
Q 108 555 , 129 555 
Q 139 555 , 147 555 
Q 155 555 , 170 555 
L 170 555 
Q 159 555 , 149 555 
Q 139 555 , 128 555 
Q 101 555 , 86 555 
Q 70 555 , 70 554 
Q 70 554 , 86 554 
Q 101 554 , 128 554 
Q 139 554 , 149 554 
Q 160 554 , 170 554 
" fill="#545FFF" />
<path d="
M 70 553 
L 88 553 
L 88 554 
Q 88 554 , 96 554 
Q 103 554 , 120 554 
Q 137 554 , 145 554 
Q 152 554 , 152 554 
L 152 553 
L 170 553 
L 170 554 
Q 170 554 , 157 554 
Q 145 554 , 120 554 
Q 96 554 , 83 554 
Q 70 554 , 70 554 
L 70 553 
" fill="#D21010" />
<path d="
M 120 552 
L 102 553 
L 136 553 
L 120 552 
M 113 552 
L 127 552 
L 170 553 
L 154 553 
L 142 553 
L 98 553 
L 85 553 
L 70 553 
L 113 552 
" fill="#339541" />
<path d="
M 154 551 
L 154 551 
L 125 551 
L 125 551 
L 170 551 
L 170 551 
Q 159 551 , 148 551 
Q 139 551 , 127 551 
Q 101 551 , 85 551 
Q 70 551 , 70 551 
Q 70 550 , 85 550 
Q 101 550 , 127 550 
Q 138 550 , 147 550 
Q 157 550 , 167 550 
L 167 550 
Q 154 550 , 146 550 
Q 137 550 , 128 550 
Q 107 550 , 96 550 
Q 86 550 , 86 551 
Q 86 551 , 96 551 
Q 107 551 , 128 551 
Q 137 551 , 144 551 
Q 151 551 , 154 551 
" fill="#F5C000" />
<path d="
M 275 553 
L 275 553 
Q 260 553 , 252 553 
Q 244 553 , 234 553 
Q 213 553 , 203 553 
Q 191 554 , 191 554 
Q 191 554 , 203 554 
Q 213 555 , 234 555 
Q 244 555 , 252 555 
Q 260 554 , 275 554 
L 275 555 
Q 264 555 , 254 555 
Q 244 555 , 233 555 
Q 206 555 , 191 555 
Q 175 554 , 175 554 
Q 175 553 , 191 553 
Q 206 553 , 233 553 
Q 244 553 , 254 553 
Q 265 553 , 275 553 
" fill="#545FFF" />
<path d="
M 259 550 
L 259 545 
L 230 545 
L 230 543 
L 275 543 
L 275 551 
Q 264 552 , 253 552 
Q 244 553 , 232 553 
Q 206 553 , 190 550 
Q 175 548 , 175 543 
Q 175 539 , 190 537 
Q 206 534 , 232 534 
Q 243 534 , 252 534 
Q 262 535 , 272 536 
L 272 538 
Q 259 537 , 251 537 
Q 242 536 , 233 536 
Q 212 536 , 201 538 
Q 191 540 , 191 543 
Q 191 547 , 201 549 
Q 212 551 , 233 551 
Q 242 551 , 249 551 
Q 256 550 , 259 550 
" fill="#F5C000" />
<path d="
M 225 507 
L 207 520 
L 241 520 
L 225 507 
M 218 501 
L 232 501 
L 275 533 
L 259 533 
L 247 524 
L 203 524 
L 190 533 
L 175 533 
L 218 501 
" fill="#339541" />
<path d="
M 175 461 
L 193 461 
L 193 484 
Q 193 491 , 201 493 
Q 208 496 , 225 496 
Q 242 496 , 250 493 
Q 257 491 , 257 484 
L 257 461 
L 275 461 
L 275 485 
Q 275 492 , 262 496 
Q 250 500 , 225 500 
Q 201 500 , 188 496 
Q 175 492 , 175 485 
L 175 461 
" fill="#D21010" />
<path d="
M 380 551 
L 380 552 
Q 365 552 , 357 551 
Q 349 551 , 339 551 
Q 318 551 , 308 552 
Q 296 552 , 296 552 
Q 296 553 , 308 554 
Q 318 554 , 339 554 
Q 349 554 , 357 554 
Q 365 554 , 380 553 
L 380 554 
Q 369 554 , 359 554 
Q 349 554 , 338 554 
Q 311 554 , 296 554 
Q 280 553 , 280 553 
Q 280 552 , 296 551 
Q 311 551 , 338 551 
Q 349 551 , 359 551 
Q 370 551 , 380 551 
" fill="#545FFF" />
<path d="
M 330 541 
L 312 546 
L 346 546 
L 330 541 
M 323 539 
L 337 539 
L 380 550 
L 364 550 
L 352 547 
L 308 547 
L 295 550 
L 280 550 
L 323 539 
" fill="#339541" />
<path d="
M 280 523 
L 298 523 
L 298 532 
Q 298 535 , 306 536 
Q 313 537 , 330 537 
Q 347 537 , 355 536 
Q 362 535 , 362 532 
L 362 523 
L 380 523 
L 380 532 
Q 380 535 , 367 537 
Q 355 538 , 330 538 
Q 306 538 , 293 537 
Q 280 535 , 280 532 
L 280 523 
" fill="#D21010" />
<path d="
M 364 473 
L 364 381 
L 335 381 
L 335 343 
L 380 343 
L 380 496 
Q 369 511 , 358 516 
Q 349 522 , 337 522 
Q 311 522 , 295 476 
Q 280 431 , 280 351 
Q 280 271 , 295 225 
Q 311 179 , 337 179 
Q 348 179 , 357 185 
Q 367 191 , 377 207 
L 377 251 
Q 364 231 , 356 225 
Q 347 220 , 338 220 
Q 317 220 , 306 252 
Q 296 284 , 296 351 
Q 296 418 , 306 451 
Q 317 484 , 338 484 
Q 347 484 , 354 481 
Q 361 477 , 364 473 
" fill="#F5C000" />
<path d="
M 485 550 
L 485 550 
Q 470 550 , 462 550 
Q 454 550 , 444 550 
Q 423 550 , 413 550 
Q 401 551 , 401 552 
Q 401 553 , 413 553 
Q 423 554 , 444 554 
Q 454 554 , 462 554 
Q 470 553 , 485 553 
L 485 554 
Q 474 554 , 464 554 
Q 454 554 , 443 554 
Q 416 554 , 401 554 
Q 385 553 , 385 552 
Q 385 550 , 401 550 
Q 416 549 , 443 549 
Q 454 549 , 464 549 
Q 475 549 , 485 550 
" fill="#545FFF" />
<path d="
M 435 533 
L 417 541 
L 451 541 
L 435 533 
M 428 529 
L 442 529 
L 485 549 
L 469 549 
L 457 543 
L 413 543 
L 400 549 
L 385 549 
L 428 529 
" fill="#339541" />
<path d="
M 385 503 
L 403 503 
L 403 518 
Q 403 522 , 411 524 
Q 418 526 , 435 526 
Q 452 526 , 460 524 
Q 467 522 , 467 518 
L 467 503 
L 485 503 
L 485 519 
Q 485 523 , 472 526 
Q 460 529 , 435 529 
Q 411 529 , 398 526 
Q 385 523 , 385 519 
L 385 503 
" fill="#D21010" />
<path d="
M 469 475 
L 469 423 
L 440 423 
L 440 401 
L 485 401 
L 485 488 
Q 474 496 , 463 499 
Q 454 503 , 442 503 
Q 416 503 , 400 477 
Q 385 451 , 385 406 
Q 385 360 , 400 334 
Q 416 308 , 442 308 
Q 453 308 , 462 311 
Q 472 315 , 482 324 
L 482 349 
Q 469 338 , 461 334 
Q 452 331 , 443 331 
Q 422 331 , 411 349 
Q 401 368 , 401 406 
Q 401 444 , 411 463 
Q 422 481 , 443 481 
Q 452 481 , 459 479 
Q 466 477 , 469 475 
" fill="#F5C000" />
<path d="
M 590 550 
L 590 551 
Q 575 551 , 567 551 
Q 559 550 , 549 550 
Q 528 550 , 518 551 
Q 506 551 , 506 552 
Q 506 553 , 518 554 
Q 528 554 , 549 554 
Q 559 554 , 567 554 
Q 575 554 , 590 553 
L 590 554 
Q 579 554 , 569 554 
Q 559 554 , 548 554 
Q 521 554 , 506 554 
Q 490 553 , 490 552 
Q 490 551 , 506 551 
Q 521 550 , 548 550 
Q 559 550 , 569 550 
Q 580 550 , 590 550 
" fill="#545FFF" />
<path d="
M 490 539 
L 508 539 
L 508 545 
Q 508 547 , 516 547 
Q 523 548 , 540 548 
Q 557 548 , 565 547 
Q 572 547 , 572 545 
L 572 539 
L 590 539 
L 590 545 
Q 590 547 , 577 548 
Q 565 549 , 540 549 
Q 516 549 , 503 548 
Q 490 547 , 490 545 
L 490 539 
" fill="#D21010" />
<path d="
M 540 521 
L 522 530 
L 556 530 
L 540 521 
M 533 517 
L 547 517 
L 590 538 
L 574 538 
L 562 532 
L 518 532 
L 505 538 
L 490 538 
L 533 517 
" fill="#339541" />
<path d="
M 574 513 
L 574 505 
L 545 505 
L 545 502 
L 590 502 
L 590 514 
Q 579 516 , 568 516 
Q 559 517 , 547 517 
Q 521 517 , 505 513 
Q 490 509 , 490 503 
Q 490 496 , 505 493 
Q 521 489 , 547 489 
Q 558 489 , 567 489 
Q 577 490 , 587 491 
L 587 495 
Q 574 493 , 566 493 
Q 557 492 , 548 492 
Q 527 492 , 516 495 
Q 506 497 , 506 503 
Q 506 508 , 516 511 
Q 527 514 , 548 514 
Q 557 514 , 564 513 
Q 571 513 , 574 513 
" fill="#F5C000" />
<path d="
M 695 554 
L 695 554 
Q 680 554 , 672 554 
Q 664 554 , 654 554 
Q 633 554 , 623 554 
Q 611 554 , 611 554 
Q 611 554 , 623 555 
Q 633 555 , 654 555 
Q 664 555 , 672 555 
Q 680 555 , 695 555 
L 695 555 
Q 684 555 , 674 555 
Q 664 555 , 653 555 
Q 626 555 , 611 555 
Q 595 555 , 595 554 
Q 595 554 , 611 554 
Q 626 554 , 653 554 
Q 664 554 , 674 554 
Q 685 554 , 695 554 
" fill="#545FFF" />
<path d="
M 595 553 
L 613 553 
L 613 554 
Q 613 554 , 621 554 
Q 628 554 , 645 554 
Q 662 554 , 670 554 
Q 677 554 , 677 554 
L 677 553 
L 695 553 
L 695 554 
Q 695 554 , 682 554 
Q 670 554 , 645 554 
Q 621 554 , 608 554 
Q 595 554 , 595 554 
L 595 553 
" fill="#D21010" />
<path d="
M 645 552 
L 627 553 
L 661 553 
L 645 552 
M 638 552 
L 652 552 
L 695 553 
L 679 553 
L 667 553 
L 623 553 
L 610 553 
L 595 553 
L 638 552 
" fill="#339541" />
<path d="
M 679 551 
L 679 551 
L 650 551 
L 650 551 
L 695 551 
L 695 551 
Q 684 551 , 673 551 
Q 664 551 , 652 551 
Q 626 551 , 610 551 
Q 595 551 , 595 551 
Q 595 550 , 610 550 
Q 626 550 , 652 550 
Q 663 550 , 672 550 
Q 682 550 , 692 550 
L 692 550 
Q 679 550 , 671 550 
Q 662 550 , 653 550 
Q 632 550 , 621 550 
Q 611 550 , 611 551 
Q 611 551 , 621 551 
Q 632 551 , 653 551 
Q 662 551 , 669 551 
Q 676 551 , 679 551 
" fill="#F5C000" />
<path d="M 65 55 L 65 555 " stroke="black" stroke-width="1.5"/>
<path d="M 55 555 L 65 555 " stroke="black" stroke-width="4"/>
<text text-anchor="end" x="50" y="555" font-size="50" alignment-baseline="middle">0</text>
<path d="M 55 305 L 65 305 " stroke="black" stroke-width="4"/>
<text text-anchor="end" x="50" y="305" font-size="50" alignment-baseline="middle">1</text>
<path d="M 55 55 L 65 55 " stroke="black" stroke-width="4"/>
<text text-anchor="end" x="50" y="55" font-size="50" alignment-baseline="middle">2</text>
<text text-anchor="middle" x="382" y="50" font-size="50" alignment-baseline="baseline"></text>
G<path d="
M 160 582 
L 126 595 
L 160 608 
L 157 611 
L 123 598 
L 123 623 
L 117 623 
L 117 599 
L 83 611 
L 80 608 
L 114 595 
L 80 582 
L 83 579 
L 117 591 
L 117 567 
L 123 567 
L 123 591 
L 157 579 
L 160 582 
" fill="black" />
<path d="
" fill="black" />
<path d="
M 211 567 
L 238 567 
L 238 623 
L 211 623 
L 211 567 
" fill="black" />
<path d="
" fill="black" />
<path d="
" fill="black" />
<path d="
M 316 567 
L 343 567 
L 343 623 
L 316 623 
L 316 567 
" fill="black" />
<path d="
" fill="black" />
<path d="
" fill="black" />
<path d="
M 421 567 
L 448 567 
L 448 623 
L 421 623 
L 421 567 
" fill="black" />
<path d="
" fill="black" />
<path d="
" fill="black" />
<path d="
M 526 567 
L 553 567 
L 553 623 
L 526 623 
L 526 567 
" fill="black" />
<path d="
" fill="black" />
<path d="
M 685 582 
L 651 595 
L 685 608 
L 682 611 
L 648 598 
L 648 623 
L 642 623 
L 642 599 
L 608 611 
L 605 608 
L 639 595 
L 605 582 
L 608 579 
L 642 591 
L 642 567 
L 648 567 
L 648 591 
L 682 579 
L 685 582 
" fill="black" />
</svg>
