<svg xmlns="http://www.w3.org/2000/svg"
viewBox="0 0 1330 635">
<path d="
M 170 554 
L 170 554 
Q 155 554 , 147 554 
Q 139 554 , 129 554 
Q 108 554 , 98 554 
Q 86 554 , 86 554 
Q 86 555 , 98 555 
Q 108 555 , 129 555 
Q 139 555 , 147 555 
Q 155 555 , 170 555 
L 170 555 
Q 159 555 , 149 555 
Q 139 555 , 128 555 
Q 101 555 , 86 555 
Q 70 555 , 70 554 
Q 70 554 , 86 554 
Q 101 554 , 128 554 
Q 139 554 , 149 554 
Q 160 554 , 170 554 
" fill="#545FFF" />
<path d="
M 154 554 
L 154 554 
L 125 554 
L 125 553 
L 170 553 
L 170 554 
Q 159 554 , 148 554 
Q 139 554 , 127 554 
Q 101 554 , 85 554 
Q 70 554 , 70 553 
Q 70 553 , 85 553 
Q 101 553 , 127 553 
Q 138 553 , 147 553 
Q 157 553 , 167 553 
L 167 553 
Q 154 553 , 146 553 
Q 137 553 , 128 553 
Q 107 553 , 96 553 
Q 86 553 , 86 553 
Q 86 554 , 96 554 
Q 107 554 , 128 554 
Q 137 554 , 144 554 
Q 151 554 , 154 554 
" fill="#F5C000" />
<path d="
M 70 552 
L 88 552 
L 88 553 
Q 88 553 , 96 553 
Q 103 553 , 120 553 
Q 137 553 , 145 553 
Q 152 553 , 152 553 
L 152 552 
L 170 552 
L 170 553 
Q 170 553 , 157 553 
Q 145 553 , 120 553 
Q 96 553 , 83 553 
Q 70 553 , 70 553 
L 70 552 
" fill="#D21010" />
<path d="
M 120 550 
L 102 551 
L 136 551 
L 120 550 
M 113 550 
L 127 550 
L 170 551 
L 154 551 
L 142 551 
L 98 551 
L 85 551 
L 70 551 
L 113 550 
" fill="#339541" />
<path d="
M 275 554 
L 275 554 
Q 260 554 , 252 554 
Q 244 554 , 234 554 
Q 213 554 , 203 554 
Q 191 554 , 191 554 
Q 191 554 , 203 554 
Q 213 554 , 234 554 
Q 244 554 , 252 554 
Q 260 554 , 275 554 
L 275 554 
Q 264 554 , 254 554 
Q 244 554 , 233 554 
Q 206 554 , 191 554 
Q 175 554 , 175 554 
Q 175 554 , 191 554 
Q 206 554 , 233 554 
Q 244 554 , 254 554 
Q 265 554 , 275 554 
" fill="#545FFF" />
<path d="
M 175 537 
L 193 537 
L 193 547 
Q 193 550 , 201 551 
Q 208 552 , 225 552 
Q 242 552 , 250 551 
Q 257 550 , 257 547 
L 257 537 
L 275 537 
L 275 547 
Q 275 550 , 262 552 
Q 250 554 , 225 554 
Q 201 554 , 188 552 
Q 175 550 , 175 547 
L 175 537 
" fill="#D21010" />
<path d="
M 225 507 
L 207 522 
L 241 522 
L 225 507 
M 218 501 
L 232 501 
L 275 536 
L 259 536 
L 247 526 
L 203 526 
L 190 536 
L 175 536 
L 218 501 
" fill="#339541" />
<path d="
M 259 495 
L 259 485 
L 230 485 
L 230 481 
L 275 481 
L 275 498 
Q 264 499 , 253 500 
Q 244 500 , 232 500 
Q 206 500 , 190 496 
Q 175 491 , 175 482 
Q 175 474 , 190 469 
Q 206 464 , 232 464 
Q 243 464 , 252 465 
Q 262 465 , 272 467 
L 272 472 
Q 259 470 , 251 469 
Q 242 468 , 233 468 
Q 212 468 , 201 472 
Q 191 475 , 191 482 
Q 191 489 , 201 493 
Q 212 496 , 233 496 
Q 242 496 , 249 496 
Q 256 496 , 259 495 
" fill="#F5C000" />
<path d="
M 322 554 
L 322 554 
L 308 554 
L 308 554 
L 330 554 
L 330 554 
Q 325 554 , 319 554 
Q 314 554 , 308 554 
Q 295 554 , 288 554 
Q 280 554 , 280 554 
Q 280 554 , 288 554 
Q 295 554 , 308 554 
Q 314 554 , 319 554 
Q 324 554 , 329 554 
L 329 554 
Q 322 554 , 318 554 
Q 314 554 , 309 554 
Q 299 554 , 293 554 
Q 288 554 , 288 554 
Q 288 554 , 293 554 
Q 299 554 , 309 554 
Q 314 554 , 317 554 
Q 321 554 , 322 554 
" fill="#F5C000" />
<path d="
M 380 554 
L 380 554 
Q 373 554 , 369 554 
Q 364 554 , 359 554 
Q 349 554 , 344 554 
Q 338 554 , 338 554 
Q 338 554 , 344 554 
Q 349 554 , 359 554 
Q 364 554 , 369 554 
Q 373 554 , 380 554 
L 380 554 
Q 375 554 , 369 554 
Q 365 554 , 359 554 
Q 345 554 , 338 554 
Q 330 554 , 330 554 
Q 330 554 , 338 554 
Q 345 554 , 359 554 
Q 365 554 , 370 554 
Q 375 554 , 380 554 
" fill="lightgray" />
<path d="
M 305 552 
L 296 553 
L 313 553 
L 305 552 
M 301 552 
L 309 552 
L 330 554 
L 322 554 
L 316 553 
L 294 553 
L 287 554 
L 280 554 
L 301 552 
" fill="#339541" />
<path d="
M 330 552 
L 339 552 
L 339 553 
Q 339 553 , 343 554 
Q 346 554 , 355 554 
Q 364 554 , 367 554 
Q 371 553 , 371 553 
L 371 552 
L 380 552 
L 380 553 
Q 380 554 , 374 554 
Q 367 554 , 355 554 
Q 343 554 , 336 554 
Q 330 554 , 330 553 
L 330 552 
" fill="lightgray" />
<path d="
M 330 533 
L 330 536 
Q 323 534 , 319 534 
Q 314 533 , 309 533 
Q 299 533 , 294 535 
Q 288 537 , 288 541 
Q 288 545 , 294 547 
Q 299 549 , 309 549 
Q 314 549 , 319 549 
Q 323 548 , 330 546 
L 330 550 
Q 325 551 , 319 551 
Q 315 552 , 309 552 
Q 295 552 , 288 549 
Q 280 546 , 280 541 
Q 280 537 , 288 534 
Q 295 531 , 309 531 
Q 315 531 , 320 532 
Q 325 532 , 330 533 
" fill="#545FFF" />
<path d="
M 372 549 
L 372 543 
L 358 543 
L 358 541 
L 380 541 
L 380 550 
Q 375 551 , 369 551 
Q 364 552 , 358 552 
Q 345 552 , 338 549 
Q 330 546 , 330 541 
Q 330 537 , 338 534 
Q 345 531 , 358 531 
Q 364 531 , 369 531 
Q 374 532 , 379 533 
L 379 535 
Q 372 534 , 368 534 
Q 364 533 , 359 533 
Q 349 533 , 343 535 
Q 338 537 , 338 541 
Q 338 545 , 343 547 
Q 349 549 , 359 549 
Q 364 549 , 367 549 
Q 371 549 , 372 549 
" fill="lightgray" />
<path d="
M 280 508 
L 289 508 
L 289 521 
Q 289 525 , 293 526 
Q 296 528 , 305 528 
Q 314 528 , 317 526 
Q 321 525 , 321 521 
L 321 508 
L 330 508 
L 330 522 
Q 330 526 , 324 528 
Q 317 530 , 305 530 
Q 293 530 , 286 528 
Q 280 526 , 280 522 
L 280 508 
" fill="#D21010" />
<path d="
M 372 527 
L 372 521 
L 358 521 
L 358 519 
L 380 519 
L 380 529 
Q 375 530 , 369 530 
Q 364 530 , 358 530 
Q 345 530 , 338 527 
Q 330 524 , 330 519 
Q 330 514 , 338 511 
Q 345 508 , 358 508 
Q 364 508 , 369 508 
Q 374 509 , 379 510 
L 379 513 
Q 372 511 , 368 511 
Q 364 511 , 359 511 
Q 349 511 , 343 513 
Q 338 515 , 338 519 
Q 338 524 , 343 526 
Q 349 528 , 359 528 
Q 364 528 , 367 528 
Q 371 527 , 372 527 
" fill="lightgray" />
<path d="
M 280 484 
L 289 484 
L 289 498 
Q 289 501 , 293 503 
Q 296 504 , 305 504 
Q 314 504 , 317 503 
Q 321 501 , 321 498 
L 321 484 
L 330 484 
L 330 498 
Q 330 502 , 324 505 
Q 317 507 , 305 507 
Q 293 507 , 286 505 
Q 280 502 , 280 498 
L 280 484 
" fill="#D21010" />
<path d="
M 355 488 
L 346 498 
L 363 498 
L 355 488 
M 351 484 
L 359 484 
L 380 507 
L 372 507 
L 366 500 
L 344 500 
L 337 507 
L 330 507 
L 351 484 
" fill="lightgray" />
<path d="
M 322 461 
L 322 419 
L 308 419 
L 308 401 
L 330 401 
L 330 472 
Q 325 478 , 319 481 
Q 314 484 , 308 484 
Q 295 484 , 288 463 
Q 280 442 , 280 405 
Q 280 368 , 288 347 
Q 295 326 , 308 326 
Q 314 326 , 319 329 
Q 324 332 , 329 339 
L 329 359 
Q 322 350 , 318 347 
Q 314 345 , 309 345 
Q 299 345 , 293 360 
Q 288 374 , 288 405 
Q 288 436 , 293 451 
Q 299 466 , 309 466 
Q 314 466 , 317 465 
Q 321 463 , 322 461 
" fill="#F5C000" />
<path d="
M 330 326 
L 339 326 
L 339 419 
Q 339 445 , 343 456 
Q 346 466 , 355 466 
Q 364 466 , 367 456 
Q 371 445 , 371 419 
L 371 326 
L 380 326 
L 380 422 
Q 380 452 , 374 468 
Q 367 484 , 355 484 
Q 343 484 , 336 468 
Q 330 452 , 330 422 
L 330 326 
" fill="lightgray" />
<path d="
M 485 553 
L 485 553 
Q 470 553 , 462 553 
Q 454 553 , 444 553 
Q 423 553 , 413 553 
Q 401 553 , 401 553 
Q 401 554 , 413 554 
Q 423 554 , 444 554 
Q 454 554 , 462 554 
Q 470 554 , 485 554 
L 485 554 
Q 474 554 , 464 554 
Q 454 554 , 443 554 
Q 416 554 , 401 554 
Q 385 554 , 385 554 
Q 385 553 , 401 553 
Q 416 553 , 443 553 
Q 454 553 , 464 553 
Q 475 553 , 485 553 
" fill="#545FFF" />
<path d="
M 385 551 
L 403 551 
L 403 552 
Q 403 552 , 411 552 
Q 418 553 , 435 553 
Q 452 553 , 460 552 
Q 467 552 , 467 552 
L 467 551 
L 485 551 
L 485 552 
Q 485 552 , 472 553 
Q 460 553 , 435 553 
Q 411 553 , 398 553 
Q 385 552 , 385 552 
L 385 551 
" fill="#D21010" />
<path d="
M 435 498 
L 417 524 
L 451 524 
L 435 498 
M 428 486 
L 442 486 
L 485 550 
L 469 550 
L 457 531 
L 413 531 
L 400 550 
L 385 550 
L 428 486 
" fill="#339541" />
<path d="
M 469 469 
L 469 439 
L 440 439 
L 440 426 
L 485 426 
L 485 476 
Q 474 481 , 463 483 
Q 454 485 , 442 485 
Q 416 485 , 400 470 
Q 385 455 , 385 429 
Q 385 402 , 400 387 
Q 416 372 , 442 372 
Q 453 372 , 462 374 
Q 472 376 , 482 381 
L 482 396 
Q 469 389 , 461 387 
Q 452 385 , 443 385 
Q 422 385 , 411 396 
Q 401 407 , 401 429 
Q 401 451 , 411 462 
Q 422 473 , 443 473 
Q 452 473 , 459 471 
Q 466 470 , 469 469 
" fill="#F5C000" />
<path d="
M 490 550 
L 508 550 
L 508 553 
Q 508 553 , 516 554 
Q 523 554 , 540 554 
Q 557 554 , 565 554 
Q 572 553 , 572 553 
L 572 550 
L 590 550 
L 590 553 
Q 590 554 , 577 554 
Q 565 555 , 540 555 
Q 516 555 , 503 554 
Q 490 554 , 490 553 
L 490 550 
" fill="#D21010" />
<path d="
M 574 549 
L 574 547 
L 545 547 
L 545 547 
L 590 547 
L 590 549 
Q 579 550 , 568 550 
Q 559 550 , 547 550 
Q 521 550 , 505 549 
Q 490 548 , 490 547 
Q 490 546 , 505 545 
Q 521 544 , 547 544 
Q 558 544 , 567 544 
Q 577 544 , 587 544 
L 587 545 
Q 574 545 , 566 545 
Q 557 545 , 548 545 
Q 527 545 , 516 545 
Q 506 546 , 506 547 
Q 506 548 , 516 549 
Q 527 549 , 548 549 
Q 557 549 , 564 549 
Q 571 549 , 574 549 
" fill="#F5C000" />
<path d="
M 540 528 
L 522 536 
L 556 536 
L 540 528 
M 533 525 
L 547 525 
L 590 543 
L 574 543 
L 562 538 
L 518 538 
L 505 543 
L 490 543 
L 533 525 
" fill="#339541" />
<path d="
M 590 507 
L 590 510 
Q 575 508 , 567 508 
Q 559 507 , 549 507 
Q 528 507 , 518 509 
Q 506 511 , 506 514 
Q 506 518 , 518 520 
Q 528 522 , 549 522 
Q 559 522 , 567 522 
Q 575 521 , 590 519 
L 590 522 
Q 579 523 , 569 524 
Q 559 524 , 548 524 
Q 521 524 , 506 522 
Q 490 519 , 490 515 
Q 490 510 , 506 508 
Q 521 505 , 548 505 
Q 559 505 , 569 505 
Q 580 506 , 590 507 
" fill="#545FFF" />
<path d="
M 645 552 
L 627 553 
L 661 553 
L 645 552 
M 638 551 
L 652 551 
L 695 554 
L 679 554 
L 667 553 
L 623 553 
L 610 554 
L 595 554 
L 638 551 
" fill="#339541" />
<path d="
M 595 547 
L 613 547 
L 613 549 
Q 613 550 , 621 550 
Q 628 550 , 645 550 
Q 662 550 , 670 550 
Q 677 550 , 677 549 
L 677 547 
L 695 547 
L 695 549 
Q 695 550 , 682 550 
Q 670 550 , 645 550 
Q 621 550 , 608 550 
Q 595 550 , 595 549 
L 595 547 
" fill="#D21010" />
<path d="
M 679 546 
L 679 545 
L 650 545 
L 650 545 
L 695 545 
L 695 546 
Q 684 547 , 673 547 
Q 664 547 , 652 547 
Q 626 547 , 610 546 
Q 595 546 , 595 545 
Q 595 544 , 610 543 
Q 626 543 , 652 543 
Q 663 543 , 672 543 
Q 682 543 , 692 543 
L 692 544 
Q 679 544 , 671 544 
Q 662 543 , 653 543 
Q 632 543 , 621 544 
Q 611 544 , 611 545 
Q 611 546 , 621 546 
Q 632 546 , 653 546 
Q 662 546 , 669 546 
Q 676 546 , 679 546 
" fill="#F5C000" />
<path d="
M 695 536 
L 695 537 
Q 680 536 , 672 536 
Q 664 536 , 654 536 
Q 633 536 , 623 537 
Q 611 537 , 611 538 
Q 611 540 , 623 541 
Q 633 541 , 654 541 
Q 664 541 , 672 541 
Q 680 541 , 695 540 
L 695 542 
Q 684 542 , 674 542 
Q 664 542 , 653 542 
Q 626 542 , 611 541 
Q 595 540 , 595 539 
Q 595 537 , 611 536 
Q 626 535 , 653 535 
Q 664 535 , 674 535 
Q 685 535 , 695 536 
" fill="#545FFF" />
<path d="
M 800 554 
L 800 554 
Q 785 554 , 777 554 
Q 769 554 , 759 554 
Q 738 554 , 728 554 
Q 716 554 , 716 554 
Q 716 554 , 728 554 
Q 738 554 , 759 554 
Q 769 554 , 777 554 
Q 785 554 , 800 554 
L 800 554 
Q 789 554 , 779 554 
Q 769 554 , 758 554 
Q 731 554 , 716 554 
Q 700 554 , 700 554 
Q 700 554 , 716 554 
Q 731 554 , 758 554 
Q 769 554 , 779 554 
Q 790 554 , 800 554 
" fill="#545FFF" />
<path d="
M 784 553 
L 784 552 
L 755 552 
L 755 552 
L 800 552 
L 800 553 
Q 789 553 , 778 553 
Q 769 553 , 757 553 
Q 731 553 , 715 553 
Q 700 553 , 700 552 
Q 700 552 , 715 551 
Q 731 551 , 757 551 
Q 768 551 , 777 551 
Q 787 551 , 797 551 
L 797 551 
Q 784 551 , 776 551 
Q 767 551 , 758 551 
Q 737 551 , 726 552 
Q 716 552 , 716 552 
Q 716 553 , 726 553 
Q 737 553 , 758 553 
Q 767 553 , 774 553 
Q 781 553 , 784 553 
" fill="#F5C000" />
<path d="
M 700 512 
L 718 512 
L 718 535 
Q 718 541 , 726 544 
Q 733 546 , 750 546 
Q 767 546 , 775 544 
Q 782 541 , 782 535 
L 782 512 
L 800 512 
L 800 536 
Q 800 543 , 787 547 
Q 775 551 , 750 551 
Q 726 551 , 713 547 
Q 700 543 , 700 536 
L 700 512 
" fill="#D21010" />
<path d="
M 750 342 
L 732 426 
L 766 426 
L 750 342 
M 743 304 
L 757 304 
L 800 511 
L 784 511 
L 772 450 
L 728 450 
L 715 511 
L 700 511 
L 743 304 
" fill="#339541" />
<path d="
M 847 554 
L 847 554 
L 833 554 
L 833 554 
L 855 554 
L 855 554 
Q 850 554 , 844 554 
Q 839 554 , 833 554 
Q 820 554 , 813 554 
Q 805 554 , 805 554 
Q 805 554 , 813 554 
Q 820 554 , 833 554 
Q 839 554 , 844 554 
Q 849 554 , 854 554 
L 854 554 
Q 847 554 , 843 554 
Q 839 554 , 834 554 
Q 824 554 , 818 554 
Q 813 554 , 813 554 
Q 813 554 , 818 554 
Q 824 554 , 834 554 
Q 839 554 , 842 554 
Q 846 554 , 847 554 
" fill="lightgray" />
<path d="
M 905 554 
L 905 554 
Q 898 554 , 894 554 
Q 889 554 , 884 554 
Q 874 554 , 869 554 
Q 863 554 , 863 554 
Q 863 554 , 869 554 
Q 874 554 , 884 554 
Q 889 554 , 894 554 
Q 898 554 , 905 554 
L 905 554 
Q 900 554 , 894 554 
Q 890 554 , 884 554 
Q 870 554 , 863 554 
Q 855 554 , 855 554 
Q 855 554 , 863 554 
Q 870 554 , 884 554 
Q 890 554 , 895 554 
Q 900 554 , 905 554 
" fill="#545FFF" />
<path d="
M 830 552 
L 821 553 
L 838 553 
L 830 552 
M 826 552 
L 834 552 
L 855 554 
L 847 554 
L 841 553 
L 819 553 
L 812 554 
L 805 554 
L 826 552 
" fill="lightgray" />
<path d="
M 855 552 
L 864 552 
L 864 553 
Q 864 553 , 868 554 
Q 871 554 , 880 554 
Q 889 554 , 892 554 
Q 896 553 , 896 553 
L 896 552 
L 905 552 
L 905 553 
Q 905 554 , 899 554 
Q 892 554 , 880 554 
Q 868 554 , 861 554 
Q 855 554 , 855 553 
L 855 552 
" fill="#D21010" />
<path d="
M 855 533 
L 855 536 
Q 848 534 , 844 534 
Q 839 533 , 834 533 
Q 824 533 , 819 535 
Q 813 537 , 813 541 
Q 813 545 , 819 547 
Q 824 549 , 834 549 
Q 839 549 , 844 549 
Q 848 548 , 855 546 
L 855 550 
Q 850 551 , 844 551 
Q 840 552 , 834 552 
Q 820 552 , 813 549 
Q 805 546 , 805 541 
Q 805 537 , 813 534 
Q 820 531 , 834 531 
Q 840 531 , 845 532 
Q 850 532 , 855 533 
" fill="lightgray" />
<path d="
M 897 549 
L 897 543 
L 883 543 
L 883 541 
L 905 541 
L 905 550 
Q 900 551 , 894 551 
Q 889 552 , 883 552 
Q 870 552 , 863 549 
Q 855 546 , 855 541 
Q 855 537 , 863 534 
Q 870 531 , 883 531 
Q 889 531 , 894 531 
Q 899 532 , 904 533 
L 904 535 
Q 897 534 , 893 534 
Q 889 533 , 884 533 
Q 874 533 , 868 535 
Q 863 537 , 863 541 
Q 863 545 , 868 547 
Q 874 549 , 884 549 
Q 889 549 , 892 549 
Q 896 549 , 897 549 
" fill="#F5C000" />
<path d="
M 805 508 
L 814 508 
L 814 521 
Q 814 525 , 818 526 
Q 821 528 , 830 528 
Q 839 528 , 842 526 
Q 846 525 , 846 521 
L 846 508 
L 855 508 
L 855 522 
Q 855 526 , 849 528 
Q 842 530 , 830 530 
Q 818 530 , 811 528 
Q 805 526 , 805 522 
L 805 508 
" fill="lightgray" />
<path d="
M 897 527 
L 897 521 
L 883 521 
L 883 519 
L 905 519 
L 905 529 
Q 900 530 , 894 530 
Q 889 530 , 883 530 
Q 870 530 , 863 527 
Q 855 524 , 855 519 
Q 855 514 , 863 511 
Q 870 508 , 883 508 
Q 889 508 , 894 508 
Q 899 509 , 904 510 
L 904 513 
Q 897 511 , 893 511 
Q 889 511 , 884 511 
Q 874 511 , 868 513 
Q 863 515 , 863 519 
Q 863 524 , 868 526 
Q 874 528 , 884 528 
Q 889 528 , 892 528 
Q 896 527 , 897 527 
" fill="#F5C000" />
<path d="
M 805 484 
L 814 484 
L 814 498 
Q 814 501 , 818 503 
Q 821 504 , 830 504 
Q 839 504 , 842 503 
Q 846 501 , 846 498 
L 846 484 
L 855 484 
L 855 498 
Q 855 502 , 849 505 
Q 842 507 , 830 507 
Q 818 507 , 811 505 
Q 805 502 , 805 498 
L 805 484 
" fill="lightgray" />
<path d="
M 880 488 
L 871 498 
L 888 498 
L 880 488 
M 876 484 
L 884 484 
L 905 507 
L 897 507 
L 891 500 
L 869 500 
L 862 507 
L 855 507 
L 876 484 
" fill="#339541" />
<path d="
M 847 461 
L 847 419 
L 833 419 
L 833 401 
L 855 401 
L 855 472 
Q 850 478 , 844 481 
Q 839 484 , 833 484 
Q 820 484 , 813 463 
Q 805 442 , 805 405 
Q 805 368 , 813 347 
Q 820 326 , 833 326 
Q 839 326 , 844 329 
Q 849 332 , 854 339 
L 854 359 
Q 847 350 , 843 347 
Q 839 345 , 834 345 
Q 824 345 , 818 360 
Q 813 374 , 813 405 
Q 813 436 , 818 451 
Q 824 466 , 834 466 
Q 839 466 , 842 465 
Q 846 463 , 847 461 
" fill="lightgray" />
<path d="
M 855 326 
L 864 326 
L 864 419 
Q 864 445 , 868 456 
Q 871 466 , 880 466 
Q 889 466 , 892 456 
Q 896 445 , 896 419 
L 896 326 
L 905 326 
L 905 422 
Q 905 452 , 899 468 
Q 892 484 , 880 484 
Q 868 484 , 861 468 
Q 855 452 , 855 422 
L 855 326 
" fill="#D21010" />
<path d="
M 1010 554 
L 1010 554 
Q 995 554 , 987 554 
Q 979 554 , 969 554 
Q 948 554 , 938 554 
Q 926 554 , 926 554 
Q 926 555 , 938 555 
Q 948 555 , 969 555 
Q 979 555 , 987 555 
Q 995 555 , 1010 555 
L 1010 555 
Q 999 555 , 989 555 
Q 979 555 , 968 555 
Q 941 555 , 926 555 
Q 910 555 , 910 554 
Q 910 554 , 926 554 
Q 941 554 , 968 554 
Q 979 554 , 989 554 
Q 1000 554 , 1010 554 
" fill="#545FFF" />
<path d="
M 994 553 
L 994 553 
L 965 553 
L 965 552 
L 1010 552 
L 1010 554 
Q 999 554 , 988 554 
Q 979 554 , 967 554 
Q 941 554 , 925 553 
Q 910 553 , 910 552 
Q 910 552 , 925 551 
Q 941 551 , 967 551 
Q 978 551 , 987 551 
Q 997 551 , 1007 551 
L 1007 552 
Q 994 551 , 986 551 
Q 977 551 , 968 551 
Q 947 551 , 936 552 
Q 926 552 , 926 552 
Q 926 553 , 936 553 
Q 947 553 , 968 553 
Q 977 553 , 984 553 
Q 991 553 , 994 553 
" fill="#F5C000" />
<path d="
M 960 535 
L 942 543 
L 976 543 
L 960 535 
M 953 532 
L 967 532 
L 1010 550 
L 994 550 
L 982 545 
L 938 545 
L 925 550 
L 910 550 
L 953 532 
" fill="#339541" />
<path d="
M 910 250 
L 928 250 
L 928 416 
Q 928 463 , 936 482 
Q 943 500 , 960 500 
Q 977 500 , 985 482 
Q 992 463 , 992 416 
L 992 250 
L 1010 250 
L 1010 421 
Q 1010 475 , 997 503 
Q 985 532 , 960 532 
Q 936 532 , 923 503 
Q 910 475 , 910 421 
L 910 250 
" fill="#D21010" />
<path d="
M 1115 550 
L 1115 550 
Q 1100 550 , 1092 550 
Q 1084 550 , 1074 550 
Q 1053 550 , 1043 550 
Q 1031 551 , 1031 552 
Q 1031 553 , 1043 553 
Q 1053 554 , 1074 554 
Q 1084 554 , 1092 554 
Q 1100 554 , 1115 553 
L 1115 554 
Q 1104 554 , 1094 554 
Q 1084 555 , 1073 555 
Q 1046 555 , 1031 554 
Q 1015 553 , 1015 552 
Q 1015 551 , 1031 550 
Q 1046 549 , 1073 549 
Q 1084 549 , 1094 549 
Q 1105 549 , 1115 550 
" fill="#545FFF" />
<path d="
M 1065 543 
L 1047 546 
L 1081 546 
L 1065 543 
M 1058 542 
L 1072 542 
L 1115 548 
L 1099 548 
L 1087 547 
L 1043 547 
L 1030 548 
L 1015 548 
L 1058 542 
" fill="#339541" />
<path d="
M 1099 539 
L 1099 534 
L 1070 534 
L 1070 532 
L 1115 532 
L 1115 540 
Q 1104 540 , 1093 541 
Q 1084 541 , 1072 541 
Q 1046 541 , 1030 539 
Q 1015 536 , 1015 533 
Q 1015 529 , 1030 526 
Q 1046 524 , 1072 524 
Q 1083 524 , 1092 524 
Q 1102 525 , 1112 525 
L 1112 528 
Q 1099 527 , 1091 526 
Q 1082 526 , 1073 526 
Q 1052 526 , 1041 528 
Q 1031 529 , 1031 533 
Q 1031 536 , 1041 537 
Q 1052 539 , 1073 539 
Q 1082 539 , 1089 539 
Q 1096 539 , 1099 539 
" fill="#F5C000" />
<path d="
M 1015 495 
L 1033 495 
L 1033 512 
Q 1033 517 , 1041 519 
Q 1048 520 , 1065 520 
Q 1082 520 , 1090 519 
Q 1097 517 , 1097 512 
L 1097 495 
L 1115 495 
L 1115 512 
Q 1115 518 , 1102 521 
Q 1090 524 , 1065 524 
Q 1041 524 , 1028 521 
Q 1015 518 , 1015 512 
L 1015 495 
" fill="#D21010" />
<path d="
M 1220 551 
L 1220 552 
Q 1205 552 , 1197 551 
Q 1189 551 , 1179 551 
Q 1158 551 , 1148 552 
Q 1136 552 , 1136 552 
Q 1136 553 , 1148 553 
Q 1158 554 , 1179 554 
Q 1189 554 , 1197 554 
Q 1205 554 , 1220 553 
L 1220 554 
Q 1209 554 , 1199 554 
Q 1189 554 , 1178 554 
Q 1151 554 , 1136 554 
Q 1120 553 , 1120 553 
Q 1120 552 , 1136 551 
Q 1151 551 , 1178 551 
Q 1189 551 , 1199 551 
Q 1210 551 , 1220 551 
" fill="#545FFF" />
<path d="
M 1120 546 
L 1138 546 
L 1138 549 
Q 1138 550 , 1146 550 
Q 1153 550 , 1170 550 
Q 1187 550 , 1195 550 
Q 1202 550 , 1202 549 
L 1202 546 
L 1220 546 
L 1220 549 
Q 1220 550 , 1207 550 
Q 1195 551 , 1170 551 
Q 1146 551 , 1133 550 
Q 1120 550 , 1120 549 
L 1120 546 
" fill="#D21010" />
<path d="
M 1204 544 
L 1204 543 
L 1175 543 
L 1175 542 
L 1220 542 
L 1220 545 
Q 1209 545 , 1198 545 
Q 1189 545 , 1177 545 
Q 1151 545 , 1135 544 
Q 1120 544 , 1120 543 
Q 1120 541 , 1135 541 
Q 1151 540 , 1177 540 
Q 1188 540 , 1197 540 
Q 1207 540 , 1217 540 
L 1217 541 
Q 1204 541 , 1196 541 
Q 1187 541 , 1178 541 
Q 1157 541 , 1146 541 
Q 1136 542 , 1136 543 
Q 1136 544 , 1146 544 
Q 1157 545 , 1178 545 
Q 1187 545 , 1194 545 
Q 1201 544 , 1204 544 
" fill="#F5C000" />
<path d="
M 1170 532 
L 1152 536 
L 1186 536 
L 1170 532 
M 1163 530 
L 1177 530 
L 1220 539 
L 1204 539 
L 1192 537 
L 1148 537 
L 1135 539 
L 1120 539 
L 1163 530 
" fill="#339541" />
<path d="
M 1325 554 
L 1325 554 
Q 1310 554 , 1302 554 
Q 1294 554 , 1284 554 
Q 1263 554 , 1253 554 
Q 1241 554 , 1241 554 
Q 1241 555 , 1253 555 
Q 1263 555 , 1284 555 
Q 1294 555 , 1302 555 
Q 1310 555 , 1325 555 
L 1325 555 
Q 1314 555 , 1304 555 
Q 1294 555 , 1283 555 
Q 1256 555 , 1241 555 
Q 1225 555 , 1225 554 
Q 1225 554 , 1241 554 
Q 1256 554 , 1283 554 
Q 1294 554 , 1304 554 
Q 1315 554 , 1325 554 
" fill="#545FFF" />
<path d="
M 1309 554 
L 1309 554 
L 1280 554 
L 1280 553 
L 1325 553 
L 1325 554 
Q 1314 554 , 1303 554 
Q 1294 554 , 1282 554 
Q 1256 554 , 1240 554 
Q 1225 554 , 1225 553 
Q 1225 553 , 1240 553 
Q 1256 553 , 1282 553 
Q 1293 553 , 1302 553 
Q 1312 553 , 1322 553 
L 1322 553 
Q 1309 553 , 1301 553 
Q 1292 553 , 1283 553 
Q 1262 553 , 1251 553 
Q 1241 553 , 1241 553 
Q 1241 554 , 1251 554 
Q 1262 554 , 1283 554 
Q 1292 554 , 1299 554 
Q 1306 554 , 1309 554 
" fill="#F5C000" />
<path d="
M 1225 552 
L 1243 552 
L 1243 553 
Q 1243 553 , 1251 553 
Q 1258 553 , 1275 553 
Q 1292 553 , 1300 553 
Q 1307 553 , 1307 553 
L 1307 552 
L 1325 552 
L 1325 553 
Q 1325 553 , 1312 553 
Q 1300 553 , 1275 553 
Q 1251 553 , 1238 553 
Q 1225 553 , 1225 553 
L 1225 552 
" fill="#D21010" />
<path d="
M 1275 550 
L 1257 551 
L 1291 551 
L 1275 550 
M 1268 550 
L 1282 550 
L 1325 551 
L 1309 551 
L 1297 551 
L 1253 551 
L 1240 551 
L 1225 551 
L 1268 550 
" fill="#339541" />
<path d="M 65 168 L 65 555 " stroke="black" stroke-width="1.5"/>
<path d="M 55 555 L 65 555 " stroke="black" stroke-width="4"/>
<text text-anchor="end" x="50" y="555" font-size="50" alignment-baseline="middle">0</text>
<path d="M 55 362 L 65 362 " stroke="black" stroke-width="4"/>
<text text-anchor="end" x="50" y="362" font-size="50" alignment-baseline="middle">1</text>
<path d="M 55 168 L 65 168 " stroke="black" stroke-width="4"/>
<text text-anchor="end" x="50" y="168" font-size="50" alignment-baseline="middle">2</text>
<text text-anchor="middle" x="697" y="50" font-size="50" alignment-baseline="baseline"></text>
G<path d="
M 160 582 
L 126 595 
L 160 608 
L 157 611 
L 123 598 
L 123 623 
L 117 623 
L 117 599 
L 83 611 
L 80 608 
L 114 595 
L 80 582 
L 83 579 
L 117 591 
L 117 567 
L 123 567 
L 123 591 
L 157 579 
L 160 582 
" fill="black" />
<path d="
" fill="black" />
<path d="
M 211 567 
L 238 567 
L 238 623 
L 211 623 
L 211 567 
" fill="black" />
<path d="
" fill="black" />
<path d="
M 370 567 
Q 341 574 , 328 581 
Q 315 588 , 315 595 
Q 315 602 , 328 609 
Q 341 616 , 370 623 
L 346 623 
Q 318 616 , 304 609 
Q 290 602 , 290 595 
Q 290 588 , 304 581 
Q 318 574 , 346 567 
L 370 567 
" fill="black" />
<path d="
" fill="black" />
<path d="
M 421 567 
L 448 567 
L 448 623 
L 421 623 
L 421 567 
" fill="black" />
<path d="
" fill="black" />
<path d="
" fill="black" />
<path d="
M 526 567 
L 553 567 
L 553 623 
L 526 623 
L 526 567 
" fill="black" />
<path d="
" fill="black" />
<path d="
" fill="black" />
<path d="
M 631 567 
L 658 567 
L 658 623 
L 631 623 
L 631 567 
" fill="black" />
<path d="
" fill="black" />
<path d="
" fill="black" />
<path d="
M 736 567 
L 763 567 
L 763 623 
L 736 623 
L 736 567 
" fill="black" />
<path d="
" fill="black" />
<path d="
M 815 567 
L 839 567 
Q 867 574 , 881 581 
Q 895 588 , 895 595 
Q 895 602 , 881 609 
Q 867 616 , 839 623 
L 815 623 
Q 844 616 , 857 609 
Q 870 602 , 870 595 
Q 870 588 , 857 581 
Q 844 574 , 815 567 
" fill="black" />
<path d="
" fill="black" />
<path d="
M 946 567 
L 973 567 
L 973 623 
L 946 623 
L 946 567 
" fill="black" />
<path d="
" fill="black" />
<path d="
" fill="black" />
<path d="
M 1051 567 
L 1078 567 
L 1078 623 
L 1051 623 
L 1051 567 
" fill="black" />
<path d="
" fill="black" />
<path d="
" fill="black" />
<path d="
M 1156 567 
L 1183 567 
L 1183 623 
L 1156 623 
L 1156 567 
" fill="black" />
<path d="
" fill="black" />
<path d="
M 1315 582 
L 1281 595 
L 1315 608 
L 1312 611 
L 1278 598 
L 1278 623 
L 1272 623 
L 1272 599 
L 1238 611 
L 1235 608 
L 1269 595 
L 1235 582 
L 1238 579 
L 1272 591 
L 1272 567 
L 1278 567 
L 1278 591 
L 1312 579 
L 1315 582 
" fill="black" />
</svg>
