<svg xmlns="http://www.w3.org/2000/svg"
viewBox="0 0 1435 635">
<path d="
M 170 553 
L 170 553 
Q 155 553 , 147 553 
Q 139 553 , 129 553 
Q 108 553 , 98 553 
Q 86 553 , 86 553 
Q 86 554 , 98 554 
Q 108 554 , 129 554 
Q 139 554 , 147 554 
Q 155 554 , 170 554 
L 170 554 
Q 159 554 , 149 554 
Q 139 554 , 128 554 
Q 101 554 , 86 554 
Q 70 554 , 70 554 
Q 70 553 , 86 553 
Q 101 553 , 128 553 
Q 139 553 , 149 553 
Q 160 553 , 170 553 
" fill="#545FFF" />
<path d="
M 154 552 
L 154 552 
L 125 552 
L 125 552 
L 170 552 
L 170 552 
Q 159 552 , 148 553 
Q 139 553 , 127 553 
Q 101 553 , 85 552 
Q 70 552 , 70 552 
Q 70 551 , 85 551 
Q 101 551 , 127 551 
Q 138 551 , 147 551 
Q 157 551 , 167 551 
L 167 551 
Q 154 551 , 146 551 
Q 137 551 , 128 551 
Q 107 551 , 96 551 
Q 86 551 , 86 552 
Q 86 552 , 96 552 
Q 107 552 , 128 552 
Q 137 552 , 144 552 
Q 151 552 , 154 552 
" fill="#F5C000" />
<path d="
M 70 549 
L 88 549 
L 88 550 
Q 88 550 , 96 550 
Q 103 551 , 120 551 
Q 137 551 , 145 550 
Q 152 550 , 152 550 
L 152 549 
L 170 549 
L 170 550 
Q 170 550 , 157 551 
Q 145 551 , 120 551 
Q 96 551 , 83 551 
Q 70 550 , 70 550 
L 70 549 
" fill="#D21010" />
<path d="
M 120 546 
L 102 547 
L 136 547 
L 120 546 
M 113 546 
L 127 546 
L 170 548 
L 154 548 
L 142 547 
L 98 547 
L 85 548 
L 70 548 
L 113 546 
" fill="#339541" />
<path d="
M 200 554 
L 191 554 
L 208 554 
L 200 554 
M 196 554 
L 204 554 
L 225 554 
L 217 554 
L 211 554 
L 189 554 
L 182 554 
L 175 554 
L 196 554 
" fill="#339541" />
<path d="
M 225 554 
L 234 554 
L 234 554 
Q 234 554 , 238 554 
Q 241 554 , 250 554 
Q 259 554 , 262 554 
Q 266 554 , 266 554 
L 266 554 
L 275 554 
L 275 554 
Q 275 554 , 269 554 
Q 262 554 , 250 554 
Q 238 554 , 231 554 
Q 225 554 , 225 554 
L 225 554 
" fill="lightgray" />
<path d="
M 217 553 
L 217 553 
L 203 553 
L 203 552 
L 225 552 
L 225 554 
Q 220 554 , 214 554 
Q 209 554 , 203 554 
Q 190 554 , 183 553 
Q 175 553 , 175 552 
Q 175 552 , 183 551 
Q 190 551 , 203 551 
Q 209 551 , 214 551 
Q 219 551 , 224 551 
L 224 552 
Q 217 551 , 213 551 
Q 209 551 , 204 551 
Q 194 551 , 188 552 
Q 183 552 , 183 552 
Q 183 553 , 188 553 
Q 194 554 , 204 554 
Q 209 554 , 212 553 
Q 216 553 , 217 553 
" fill="#F5C000" />
<path d="
M 225 551 
L 234 551 
L 234 553 
Q 234 553 , 238 553 
Q 241 554 , 250 554 
Q 259 554 , 262 553 
Q 266 553 , 266 553 
L 266 551 
L 275 551 
L 275 553 
Q 275 553 , 269 554 
Q 262 554 , 250 554 
Q 238 554 , 231 554 
Q 225 553 , 225 553 
L 225 551 
" fill="lightgray" />
<path d="
M 175 546 
L 184 546 
L 184 549 
Q 184 549 , 188 550 
Q 191 550 , 200 550 
Q 209 550 , 212 550 
Q 216 549 , 216 549 
L 216 546 
L 225 546 
L 225 549 
Q 225 550 , 219 550 
Q 212 551 , 200 551 
Q 188 551 , 181 550 
Q 175 550 , 175 549 
L 175 546 
" fill="#D21010" />
<path d="
M 250 547 
L 241 549 
L 258 549 
L 250 547 
M 246 546 
L 254 546 
L 275 551 
L 267 551 
L 261 549 
L 239 549 
L 232 551 
L 225 551 
L 246 546 
" fill="lightgray" />
<path d="
M 217 545 
L 217 543 
L 203 543 
L 203 543 
L 225 543 
L 225 545 
Q 220 545 , 214 546 
Q 209 546 , 203 546 
Q 190 546 , 183 545 
Q 175 544 , 175 543 
Q 175 541 , 183 541 
Q 190 540 , 203 540 
Q 209 540 , 214 540 
Q 219 540 , 224 540 
L 224 541 
Q 217 541 , 213 541 
Q 209 541 , 204 541 
Q 194 541 , 188 541 
Q 183 542 , 183 543 
Q 183 544 , 188 544 
Q 194 545 , 204 545 
Q 209 545 , 212 545 
Q 216 545 , 217 545 
" fill="#F5C000" />
<path d="
M 275 541 
L 275 541 
Q 268 541 , 264 541 
Q 259 541 , 254 541 
Q 244 541 , 239 541 
Q 233 542 , 233 543 
Q 233 544 , 239 544 
Q 244 545 , 254 545 
Q 259 545 , 264 545 
Q 268 545 , 275 544 
L 275 545 
Q 270 545 , 264 545 
Q 260 546 , 254 546 
Q 240 546 , 233 545 
Q 225 544 , 225 543 
Q 225 542 , 233 541 
Q 240 540 , 254 540 
Q 260 540 , 265 540 
Q 270 540 , 275 541 
" fill="lightgray" />
<path d="
M 175 478 
L 184 478 
L 184 515 
Q 184 525 , 188 529 
Q 191 533 , 200 533 
Q 209 533 , 212 529 
Q 216 525 , 216 515 
L 216 478 
L 225 478 
L 225 515 
Q 225 527 , 219 534 
Q 212 540 , 200 540 
Q 188 540 , 181 534 
Q 175 527 , 175 515 
L 175 478 
" fill="#D21010" />
<path d="
M 267 531 
L 267 514 
L 253 514 
L 253 508 
L 275 508 
L 275 535 
Q 270 538 , 264 539 
Q 259 540 , 253 540 
Q 240 540 , 233 532 
Q 225 523 , 225 509 
Q 225 495 , 233 486 
Q 240 478 , 253 478 
Q 259 478 , 264 479 
Q 269 480 , 274 483 
L 274 491 
Q 267 487 , 263 486 
Q 259 485 , 254 485 
Q 244 485 , 238 491 
Q 233 497 , 233 509 
Q 233 521 , 238 527 
Q 244 533 , 254 533 
Q 259 533 , 262 532 
Q 266 532 , 267 531 
" fill="lightgray" />
<path d="
M 225 280 
L 225 314 
Q 218 292 , 214 286 
Q 209 280 , 204 280 
Q 194 280 , 189 302 
Q 183 324 , 183 367 
Q 183 410 , 189 432 
Q 194 453 , 204 453 
Q 209 453 , 214 448 
Q 218 442 , 225 420 
L 225 455 
Q 220 467 , 214 472 
Q 210 477 , 204 477 
Q 190 477 , 183 447 
Q 175 418 , 175 367 
Q 175 316 , 183 286 
Q 190 256 , 204 256 
Q 210 256 , 215 261 
Q 220 267 , 225 280 
" fill="#545FFF" />
<path d="
M 267 446 
L 267 386 
L 253 386 
L 253 362 
L 275 362 
L 275 460 
Q 270 470 , 264 473 
Q 259 477 , 253 477 
Q 240 477 , 233 448 
Q 225 418 , 225 367 
Q 225 315 , 233 286 
Q 240 256 , 253 256 
Q 259 256 , 264 260 
Q 269 264 , 274 274 
L 274 302 
Q 267 290 , 263 286 
Q 259 282 , 254 282 
Q 244 282 , 238 303 
Q 233 324 , 233 367 
Q 233 410 , 238 432 
Q 244 453 , 254 453 
Q 259 453 , 262 450 
Q 266 448 , 267 446 
" fill="lightgray" />
<path d="
M 280 554 
L 298 554 
L 298 554 
Q 298 554 , 306 554 
Q 313 554 , 330 554 
Q 347 554 , 355 554 
Q 362 554 , 362 554 
L 362 554 
L 380 554 
L 380 554 
Q 380 554 , 367 554 
Q 355 554 , 330 554 
Q 306 554 , 293 554 
Q 280 554 , 280 554 
L 280 554 
" fill="#D21010" />
<path d="
M 364 553 
L 364 553 
L 335 553 
L 335 553 
L 380 553 
L 380 553 
Q 369 553 , 358 553 
Q 349 553 , 337 553 
Q 311 553 , 295 553 
Q 280 553 , 280 553 
Q 280 552 , 295 552 
Q 311 552 , 337 552 
Q 348 552 , 357 552 
Q 367 552 , 377 552 
L 377 552 
Q 364 552 , 356 552 
Q 347 552 , 338 552 
Q 317 552 , 306 552 
Q 296 552 , 296 553 
Q 296 553 , 306 553 
Q 317 553 , 338 553 
Q 347 553 , 354 553 
Q 361 553 , 364 553 
" fill="#F5C000" />
<path d="
M 380 506 
L 380 514 
Q 365 509 , 357 508 
Q 349 507 , 339 507 
Q 318 507 , 308 511 
Q 296 517 , 296 526 
Q 296 536 , 308 541 
Q 318 546 , 339 546 
Q 349 546 , 357 545 
Q 365 543 , 380 538 
L 380 546 
Q 369 549 , 359 550 
Q 349 551 , 338 551 
Q 311 551 , 296 545 
Q 280 538 , 280 526 
Q 280 515 , 296 508 
Q 311 501 , 338 501 
Q 349 501 , 359 502 
Q 370 503 , 380 506 
" fill="#545FFF" />
<path d="
M 330 358 
L 312 429 
L 346 429 
L 330 358 
M 323 326 
L 337 326 
L 380 501 
L 364 501 
L 352 449 
L 308 449 
L 295 501 
L 280 501 
L 323 326 
" fill="#339541" />
<path d="
M 385 554 
L 394 554 
L 394 554 
Q 394 554 , 398 554 
Q 401 554 , 410 554 
Q 419 554 , 422 554 
Q 426 554 , 426 554 
L 426 554 
L 435 554 
L 435 554 
Q 435 554 , 429 554 
Q 422 555 , 410 555 
Q 398 555 , 391 554 
Q 385 554 , 385 554 
L 385 554 
" fill="#D21010" />
<path d="
M 477 554 
L 477 554 
L 463 554 
L 463 554 
L 485 554 
L 485 554 
Q 480 555 , 474 555 
Q 469 555 , 463 555 
Q 450 555 , 443 554 
Q 435 554 , 435 554 
Q 435 554 , 443 554 
Q 450 554 , 463 554 
Q 469 554 , 474 554 
Q 479 554 , 484 554 
L 484 554 
Q 477 554 , 473 554 
Q 469 554 , 464 554 
Q 454 554 , 448 554 
Q 443 554 , 443 554 
Q 443 554 , 448 554 
Q 454 554 , 464 554 
Q 469 554 , 472 554 
Q 476 554 , 477 554 
" fill="lightgray" />
<path d="
M 410 550 
L 401 552 
L 418 552 
L 410 550 
M 406 549 
L 414 549 
L 435 553 
L 427 553 
L 421 552 
L 399 552 
L 392 553 
L 385 553 
L 406 549 
" fill="#339541" />
<path d="
M 435 549 
L 444 549 
L 444 552 
Q 444 552 , 448 553 
Q 451 553 , 460 553 
Q 469 553 , 472 553 
Q 476 552 , 476 552 
L 476 549 
L 485 549 
L 485 552 
Q 485 553 , 479 553 
Q 472 553 , 460 553 
Q 448 553 , 441 553 
Q 435 553 , 435 552 
L 435 549 
" fill="lightgray" />
<path d="
M 427 547 
L 427 544 
L 413 544 
L 413 543 
L 435 543 
L 435 547 
Q 430 548 , 424 548 
Q 419 548 , 413 548 
Q 400 548 , 393 547 
Q 385 545 , 385 543 
Q 385 541 , 393 539 
Q 400 538 , 413 538 
Q 419 538 , 424 538 
Q 429 538 , 434 539 
L 434 540 
Q 427 540 , 423 539 
Q 419 539 , 414 539 
Q 404 539 , 398 540 
Q 393 541 , 393 543 
Q 393 545 , 398 546 
Q 404 547 , 414 547 
Q 419 547 , 422 547 
Q 426 547 , 427 547 
" fill="#F5C000" />
<path d="
M 435 538 
L 444 538 
L 444 544 
Q 444 546 , 448 546 
Q 451 547 , 460 547 
Q 469 547 , 472 546 
Q 476 546 , 476 544 
L 476 538 
L 485 538 
L 485 544 
Q 485 546 , 479 547 
Q 472 548 , 460 548 
Q 448 548 , 441 547 
Q 435 546 , 435 544 
L 435 538 
" fill="lightgray" />
<path d="
M 385 520 
L 394 520 
L 394 531 
Q 394 533 , 398 535 
Q 401 536 , 410 536 
Q 419 536 , 422 535 
Q 426 533 , 426 531 
L 426 520 
L 435 520 
L 435 531 
Q 435 534 , 429 536 
Q 422 538 , 410 538 
Q 398 538 , 391 536 
Q 385 534 , 385 531 
L 385 520 
" fill="#D21010" />
<path d="
M 460 523 
L 451 531 
L 468 531 
L 460 523 
M 456 520 
L 464 520 
L 485 538 
L 477 538 
L 471 533 
L 449 533 
L 442 538 
L 435 538 
L 456 520 
" fill="lightgray" />
<path d="
M 427 516 
L 427 510 
L 413 510 
L 413 508 
L 435 508 
L 435 517 
Q 430 518 , 424 519 
Q 419 519 , 413 519 
Q 400 519 , 393 516 
Q 385 513 , 385 508 
Q 385 503 , 393 500 
Q 400 497 , 413 497 
Q 419 497 , 424 497 
Q 429 498 , 434 499 
L 434 502 
Q 427 500 , 423 500 
Q 419 500 , 414 500 
Q 404 500 , 398 502 
Q 393 504 , 393 508 
Q 393 512 , 398 515 
Q 404 517 , 414 517 
Q 419 517 , 422 516 
Q 426 516 , 427 516 
" fill="#F5C000" />
<path d="
M 485 499 
L 485 503 
Q 478 501 , 474 500 
Q 469 499 , 464 499 
Q 454 499 , 449 502 
Q 443 504 , 443 508 
Q 443 512 , 449 515 
Q 454 517 , 464 517 
Q 469 517 , 474 516 
Q 478 516 , 485 513 
L 485 517 
Q 480 518 , 474 519 
Q 470 519 , 464 519 
Q 450 519 , 443 516 
Q 435 513 , 435 508 
Q 435 503 , 443 500 
Q 450 497 , 464 497 
Q 470 497 , 475 498 
Q 480 498 , 485 499 
" fill="lightgray" />
<path d="
M 435 470 
L 435 475 
Q 428 472 , 424 471 
Q 419 470 , 414 470 
Q 404 470 , 399 473 
Q 393 476 , 393 481 
Q 393 487 , 399 490 
Q 404 493 , 414 493 
Q 419 493 , 424 492 
Q 428 492 , 435 489 
L 435 493 
Q 430 495 , 424 496 
Q 420 496 , 414 496 
Q 400 496 , 393 492 
Q 385 488 , 385 482 
Q 385 475 , 393 471 
Q 400 467 , 414 467 
Q 420 467 , 425 468 
Q 430 468 , 435 470 
" fill="#545FFF" />
<path d="
M 477 492 
L 477 484 
L 463 484 
L 463 481 
L 485 481 
L 485 494 
Q 480 495 , 474 496 
Q 469 496 , 463 496 
Q 450 496 , 443 492 
Q 435 488 , 435 482 
Q 435 475 , 443 471 
Q 450 467 , 463 467 
Q 469 467 , 474 468 
Q 479 468 , 484 469 
L 484 473 
Q 477 471 , 473 471 
Q 469 470 , 464 470 
Q 454 470 , 448 473 
Q 443 476 , 443 482 
Q 443 487 , 448 490 
Q 454 493 , 464 493 
Q 469 493 , 472 493 
Q 476 492 , 477 492 
" fill="lightgray" />
<path d="
M 490 554 
L 508 554 
L 508 554 
Q 508 554 , 516 554 
Q 523 554 , 540 554 
Q 557 554 , 565 554 
Q 572 554 , 572 554 
L 572 554 
L 590 554 
L 590 554 
Q 590 554 , 577 554 
Q 565 554 , 540 554 
Q 516 554 , 503 554 
Q 490 554 , 490 554 
L 490 554 
" fill="#D21010" />
<path d="
M 574 551 
L 574 546 
L 545 546 
L 545 544 
L 590 544 
L 590 552 
Q 579 553 , 568 553 
Q 559 554 , 547 554 
Q 521 554 , 505 551 
Q 490 549 , 490 544 
Q 490 540 , 505 538 
Q 521 535 , 547 535 
Q 558 535 , 567 535 
Q 577 536 , 587 537 
L 587 539 
Q 574 538 , 566 538 
Q 557 537 , 548 537 
Q 527 537 , 516 539 
Q 506 541 , 506 544 
Q 506 548 , 516 550 
Q 527 552 , 548 552 
Q 557 552 , 564 551 
Q 571 551 , 574 551 
" fill="#F5C000" />
<path d="
M 590 508 
L 590 513 
Q 575 510 , 567 509 
Q 559 508 , 549 508 
Q 528 508 , 518 511 
Q 506 514 , 506 519 
Q 506 525 , 518 528 
Q 528 531 , 549 531 
Q 559 531 , 567 530 
Q 575 529 , 590 527 
L 590 531 
Q 579 533 , 569 533 
Q 559 534 , 548 534 
Q 521 534 , 506 530 
Q 490 526 , 490 520 
Q 490 513 , 506 509 
Q 521 505 , 548 505 
Q 559 505 , 569 506 
Q 580 506 , 590 508 
" fill="#545FFF" />
<path d="
M 540 467 
L 522 486 
L 556 486 
L 540 467 
M 533 459 
L 547 459 
L 590 504 
L 574 504 
L 562 491 
L 518 491 
L 505 504 
L 490 504 
L 533 459 
" fill="#339541" />
<path d="
M 595 554 
L 613 554 
L 613 554 
Q 613 554 , 621 554 
Q 628 555 , 645 555 
Q 662 555 , 670 554 
Q 677 554 , 677 554 
L 677 554 
L 695 554 
L 695 554 
Q 695 554 , 682 555 
Q 670 555 , 645 555 
Q 621 555 , 608 555 
Q 595 554 , 595 554 
L 595 554 
" fill="#D21010" />
<path d="
M 679 551 
L 679 546 
L 650 546 
L 650 544 
L 695 544 
L 695 552 
Q 684 553 , 673 553 
Q 664 554 , 652 554 
Q 626 554 , 610 551 
Q 595 549 , 595 544 
Q 595 540 , 610 538 
Q 626 535 , 652 535 
Q 663 535 , 672 535 
Q 682 536 , 692 537 
L 692 539 
Q 679 538 , 671 538 
Q 662 537 , 653 537 
Q 632 537 , 621 539 
Q 611 541 , 611 544 
Q 611 548 , 621 550 
Q 632 552 , 653 552 
Q 662 552 , 669 551 
Q 676 551 , 679 551 
" fill="#F5C000" />
<path d="
M 645 512 
L 627 523 
L 661 523 
L 645 512 
M 638 507 
L 652 507 
L 695 534 
L 679 534 
L 667 526 
L 623 526 
L 610 534 
L 595 534 
L 638 507 
" fill="#339541" />
<path d="
M 695 414 
L 695 430 
Q 680 420 , 672 417 
Q 664 414 , 654 414 
Q 633 414 , 623 425 
Q 611 435 , 611 455 
Q 611 475 , 623 485 
Q 633 495 , 654 495 
Q 664 495 , 672 493 
Q 680 490 , 695 480 
L 695 496 
Q 684 502 , 674 504 
Q 664 507 , 653 507 
Q 626 507 , 611 493 
Q 595 479 , 595 455 
Q 595 431 , 611 417 
Q 626 403 , 653 403 
Q 664 403 , 674 406 
Q 685 408 , 695 414 
" fill="#545FFF" />
<path d="
M 800 553 
L 800 553 
Q 785 553 , 777 553 
Q 769 553 , 759 553 
Q 738 553 , 728 553 
Q 716 553 , 716 553 
Q 716 554 , 728 554 
Q 738 554 , 759 554 
Q 769 554 , 777 554 
Q 785 554 , 800 554 
L 800 554 
Q 789 554 , 779 554 
Q 769 554 , 758 554 
Q 731 554 , 716 554 
Q 700 554 , 700 554 
Q 700 553 , 716 553 
Q 731 553 , 758 553 
Q 769 553 , 779 553 
Q 790 553 , 800 553 
" fill="#545FFF" />
<path d="
M 784 552 
L 784 552 
L 755 552 
L 755 552 
L 800 552 
L 800 552 
Q 789 552 , 778 553 
Q 769 553 , 757 553 
Q 731 553 , 715 552 
Q 700 552 , 700 552 
Q 700 551 , 715 551 
Q 731 551 , 757 551 
Q 768 551 , 777 551 
Q 787 551 , 797 551 
L 797 551 
Q 784 551 , 776 551 
Q 767 551 , 758 551 
Q 737 551 , 726 551 
Q 716 551 , 716 552 
Q 716 552 , 726 552 
Q 737 552 , 758 552 
Q 767 552 , 774 552 
Q 781 552 , 784 552 
" fill="#F5C000" />
<path d="
M 700 549 
L 718 549 
L 718 550 
Q 718 550 , 726 550 
Q 733 551 , 750 551 
Q 767 551 , 775 550 
Q 782 550 , 782 550 
L 782 549 
L 800 549 
L 800 550 
Q 800 550 , 787 551 
Q 775 551 , 750 551 
Q 726 551 , 713 551 
Q 700 550 , 700 550 
L 700 549 
" fill="#D21010" />
<path d="
M 750 546 
L 732 547 
L 766 547 
L 750 546 
M 743 546 
L 757 546 
L 800 548 
L 784 548 
L 772 547 
L 728 547 
L 715 548 
L 700 548 
L 743 546 
" fill="#339541" />
<path d="
M 905 551 
L 905 551 
Q 890 551 , 882 551 
Q 874 551 , 864 551 
Q 843 551 , 833 551 
Q 821 551 , 821 552 
Q 821 553 , 833 554 
Q 843 554 , 864 554 
Q 874 554 , 882 554 
Q 890 554 , 905 553 
L 905 554 
Q 894 554 , 884 555 
Q 874 555 , 863 555 
Q 836 555 , 821 554 
Q 805 553 , 805 552 
Q 805 551 , 821 551 
Q 836 550 , 863 550 
Q 874 550 , 884 550 
Q 895 550 , 905 551 
" fill="#545FFF" />
<path d="
M 855 544 
L 837 547 
L 871 547 
L 855 544 
M 848 543 
L 862 543 
L 905 549 
L 889 549 
L 877 547 
L 833 547 
L 820 549 
L 805 549 
L 848 543 
" fill="#339541" />
<path d="
M 805 529 
L 823 529 
L 823 537 
Q 823 539 , 831 540 
Q 838 541 , 855 541 
Q 872 541 , 880 540 
Q 887 539 , 887 537 
L 887 529 
L 905 529 
L 905 537 
Q 905 539 , 892 541 
Q 880 542 , 855 542 
Q 831 542 , 818 541 
Q 805 539 , 805 537 
L 805 529 
" fill="#D21010" />
<path d="
M 889 525 
L 889 520 
L 860 520 
L 860 518 
L 905 518 
L 905 527 
Q 894 528 , 883 528 
Q 874 528 , 862 528 
Q 836 528 , 820 526 
Q 805 523 , 805 518 
Q 805 513 , 820 511 
Q 836 508 , 862 508 
Q 873 508 , 882 508 
Q 892 509 , 902 510 
L 902 512 
Q 889 511 , 881 511 
Q 872 510 , 863 510 
Q 842 510 , 831 512 
Q 821 514 , 821 518 
Q 821 522 , 831 524 
Q 842 526 , 863 526 
Q 872 526 , 879 526 
Q 886 526 , 889 525 
" fill="#F5C000" />
<path d="
M 910 554 
L 919 554 
L 919 554 
Q 919 554 , 923 554 
Q 926 554 , 935 554 
Q 944 554 , 947 554 
Q 951 554 , 951 554 
L 951 554 
L 960 554 
L 960 554 
Q 960 554 , 954 554 
Q 947 555 , 935 555 
Q 923 555 , 916 554 
Q 910 554 , 910 554 
L 910 554 
" fill="lightgray" />
<path d="
M 1002 554 
L 1002 554 
L 988 554 
L 988 554 
L 1010 554 
L 1010 554 
Q 1005 555 , 999 555 
Q 994 555 , 988 555 
Q 975 555 , 968 554 
Q 960 554 , 960 554 
Q 960 554 , 968 554 
Q 975 554 , 988 554 
Q 994 554 , 999 554 
Q 1004 554 , 1009 554 
L 1009 554 
Q 1002 554 , 998 554 
Q 994 554 , 989 554 
Q 979 554 , 973 554 
Q 968 554 , 968 554 
Q 968 554 , 973 554 
Q 979 554 , 989 554 
Q 994 554 , 997 554 
Q 1001 554 , 1002 554 
" fill="#F5C000" />
<path d="
M 935 550 
L 926 552 
L 943 552 
L 935 550 
M 931 549 
L 939 549 
L 960 553 
L 952 553 
L 946 552 
L 924 552 
L 917 553 
L 910 553 
L 931 549 
" fill="lightgray" />
<path d="
M 960 549 
L 969 549 
L 969 552 
Q 969 552 , 973 553 
Q 976 553 , 985 553 
Q 994 553 , 997 553 
Q 1001 552 , 1001 552 
L 1001 549 
L 1010 549 
L 1010 552 
Q 1010 553 , 1004 553 
Q 997 553 , 985 553 
Q 973 553 , 966 553 
Q 960 553 , 960 552 
L 960 549 
" fill="#D21010" />
<path d="
M 952 547 
L 952 544 
L 938 544 
L 938 543 
L 960 543 
L 960 547 
Q 955 548 , 949 548 
Q 944 548 , 938 548 
Q 925 548 , 918 547 
Q 910 545 , 910 543 
Q 910 541 , 918 539 
Q 925 538 , 938 538 
Q 944 538 , 949 538 
Q 954 538 , 959 539 
L 959 540 
Q 952 540 , 948 539 
Q 944 539 , 939 539 
Q 929 539 , 923 540 
Q 918 541 , 918 543 
Q 918 545 , 923 546 
Q 929 547 , 939 547 
Q 944 547 , 947 547 
Q 951 547 , 952 547 
" fill="lightgray" />
<path d="
M 960 538 
L 969 538 
L 969 544 
Q 969 546 , 973 546 
Q 976 547 , 985 547 
Q 994 547 , 997 546 
Q 1001 546 , 1001 544 
L 1001 538 
L 1010 538 
L 1010 544 
Q 1010 546 , 1004 547 
Q 997 548 , 985 548 
Q 973 548 , 966 547 
Q 960 546 , 960 544 
L 960 538 
" fill="#D21010" />
<path d="
M 910 520 
L 919 520 
L 919 531 
Q 919 533 , 923 535 
Q 926 536 , 935 536 
Q 944 536 , 947 535 
Q 951 533 , 951 531 
L 951 520 
L 960 520 
L 960 531 
Q 960 534 , 954 536 
Q 947 538 , 935 538 
Q 923 538 , 916 536 
Q 910 534 , 910 531 
L 910 520 
" fill="lightgray" />
<path d="
M 985 523 
L 976 531 
L 993 531 
L 985 523 
M 981 520 
L 989 520 
L 1010 538 
L 1002 538 
L 996 533 
L 974 533 
L 967 538 
L 960 538 
L 981 520 
" fill="#339541" />
<path d="
M 952 516 
L 952 510 
L 938 510 
L 938 508 
L 960 508 
L 960 517 
Q 955 518 , 949 519 
Q 944 519 , 938 519 
Q 925 519 , 918 516 
Q 910 513 , 910 508 
Q 910 503 , 918 500 
Q 925 497 , 938 497 
Q 944 497 , 949 497 
Q 954 498 , 959 499 
L 959 502 
Q 952 500 , 948 500 
Q 944 500 , 939 500 
Q 929 500 , 923 502 
Q 918 504 , 918 508 
Q 918 512 , 923 515 
Q 929 517 , 939 517 
Q 944 517 , 947 516 
Q 951 516 , 952 516 
" fill="lightgray" />
<path d="
M 1010 499 
L 1010 503 
Q 1003 501 , 999 500 
Q 994 499 , 989 499 
Q 979 499 , 974 502 
Q 968 504 , 968 508 
Q 968 512 , 974 515 
Q 979 517 , 989 517 
Q 994 517 , 999 516 
Q 1003 516 , 1010 513 
L 1010 517 
Q 1005 518 , 999 519 
Q 995 519 , 989 519 
Q 975 519 , 968 516 
Q 960 513 , 960 508 
Q 960 503 , 968 500 
Q 975 497 , 989 497 
Q 995 497 , 1000 498 
Q 1005 498 , 1010 499 
" fill="#545FFF" />
<path d="
M 960 470 
L 960 475 
Q 953 472 , 949 471 
Q 944 470 , 939 470 
Q 929 470 , 924 473 
Q 918 476 , 918 481 
Q 918 487 , 924 490 
Q 929 493 , 939 493 
Q 944 493 , 949 492 
Q 953 492 , 960 489 
L 960 493 
Q 955 495 , 949 496 
Q 945 496 , 939 496 
Q 925 496 , 918 492 
Q 910 488 , 910 482 
Q 910 475 , 918 471 
Q 925 467 , 939 467 
Q 945 467 , 950 468 
Q 955 468 , 960 470 
" fill="lightgray" />
<path d="
M 1002 492 
L 1002 484 
L 988 484 
L 988 481 
L 1010 481 
L 1010 494 
Q 1005 495 , 999 496 
Q 994 496 , 988 496 
Q 975 496 , 968 492 
Q 960 488 , 960 482 
Q 960 475 , 968 471 
Q 975 467 , 988 467 
Q 994 467 , 999 468 
Q 1004 468 , 1009 469 
L 1009 473 
Q 1002 471 , 998 471 
Q 994 470 , 989 470 
Q 979 470 , 973 473 
Q 968 476 , 968 482 
Q 968 487 , 973 490 
Q 979 493 , 989 493 
Q 994 493 , 997 493 
Q 1001 492 , 1002 492 
" fill="#F5C000" />
<path d="
M 1115 550 
L 1115 551 
Q 1100 551 , 1092 551 
Q 1084 550 , 1074 550 
Q 1053 550 , 1043 551 
Q 1031 551 , 1031 552 
Q 1031 553 , 1043 553 
Q 1053 554 , 1074 554 
Q 1084 554 , 1092 554 
Q 1100 554 , 1115 553 
L 1115 554 
Q 1104 554 , 1094 554 
Q 1084 554 , 1073 554 
Q 1046 554 , 1031 554 
Q 1015 553 , 1015 552 
Q 1015 551 , 1031 551 
Q 1046 550 , 1073 550 
Q 1084 550 , 1094 550 
Q 1105 550 , 1115 550 
" fill="#545FFF" />
<path d="
M 1015 541 
L 1033 541 
L 1033 546 
Q 1033 548 , 1041 548 
Q 1048 549 , 1065 549 
Q 1082 549 , 1090 548 
Q 1097 548 , 1097 546 
L 1097 541 
L 1115 541 
L 1115 546 
Q 1115 548 , 1102 549 
Q 1090 550 , 1065 550 
Q 1041 550 , 1028 549 
Q 1015 548 , 1015 546 
L 1015 541 
" fill="#D21010" />
<path d="
M 1065 529 
L 1047 535 
L 1081 535 
L 1065 529 
M 1058 527 
L 1072 527 
L 1115 540 
L 1099 540 
L 1087 537 
L 1043 537 
L 1030 540 
L 1015 540 
L 1058 527 
" fill="#339541" />
<path d="
M 1099 523 
L 1099 516 
L 1070 516 
L 1070 513 
L 1115 513 
L 1115 525 
Q 1104 526 , 1093 526 
Q 1084 527 , 1072 527 
Q 1046 527 , 1030 523 
Q 1015 520 , 1015 513 
Q 1015 507 , 1030 504 
Q 1046 500 , 1072 500 
Q 1083 500 , 1092 500 
Q 1102 501 , 1112 502 
L 1112 506 
Q 1099 504 , 1091 504 
Q 1082 503 , 1073 503 
Q 1052 503 , 1041 506 
Q 1031 508 , 1031 513 
Q 1031 519 , 1041 521 
Q 1052 524 , 1073 524 
Q 1082 524 , 1089 523 
Q 1096 523 , 1099 523 
" fill="#F5C000" />
<path d="
M 1145 554 
L 1136 554 
L 1153 554 
L 1145 554 
M 1141 554 
L 1149 554 
L 1170 554 
L 1162 554 
L 1156 554 
L 1134 554 
L 1127 554 
L 1120 554 
L 1141 554 
" fill="lightgray" />
<path d="
M 1170 554 
L 1179 554 
L 1179 554 
Q 1179 554 , 1183 554 
Q 1186 554 , 1195 554 
Q 1204 554 , 1207 554 
Q 1211 554 , 1211 554 
L 1211 554 
L 1220 554 
L 1220 554 
Q 1220 554 , 1214 554 
Q 1207 554 , 1195 554 
Q 1183 554 , 1176 554 
Q 1170 554 , 1170 554 
L 1170 554 
" fill="#D21010" />
<path d="
M 1162 553 
L 1162 553 
L 1148 553 
L 1148 552 
L 1170 552 
L 1170 554 
Q 1165 554 , 1159 554 
Q 1154 554 , 1148 554 
Q 1135 554 , 1128 553 
Q 1120 553 , 1120 552 
Q 1120 552 , 1128 551 
Q 1135 551 , 1148 551 
Q 1154 551 , 1159 551 
Q 1164 551 , 1169 551 
L 1169 552 
Q 1162 551 , 1158 551 
Q 1154 551 , 1149 551 
Q 1139 551 , 1133 552 
Q 1128 552 , 1128 552 
Q 1128 553 , 1133 553 
Q 1139 554 , 1149 554 
Q 1154 554 , 1157 553 
Q 1161 553 , 1162 553 
" fill="lightgray" />
<path d="
M 1170 551 
L 1179 551 
L 1179 553 
Q 1179 553 , 1183 553 
Q 1186 554 , 1195 554 
Q 1204 554 , 1207 553 
Q 1211 553 , 1211 553 
L 1211 551 
L 1220 551 
L 1220 553 
Q 1220 553 , 1214 554 
Q 1207 554 , 1195 554 
Q 1183 554 , 1176 554 
Q 1170 553 , 1170 553 
L 1170 551 
" fill="#D21010" />
<path d="
M 1120 546 
L 1129 546 
L 1129 549 
Q 1129 549 , 1133 550 
Q 1136 550 , 1145 550 
Q 1154 550 , 1157 550 
Q 1161 549 , 1161 549 
L 1161 546 
L 1170 546 
L 1170 549 
Q 1170 550 , 1164 550 
Q 1157 551 , 1145 551 
Q 1133 551 , 1126 550 
Q 1120 550 , 1120 549 
L 1120 546 
" fill="lightgray" />
<path d="
M 1195 547 
L 1186 549 
L 1203 549 
L 1195 547 
M 1191 546 
L 1199 546 
L 1220 551 
L 1212 551 
L 1206 549 
L 1184 549 
L 1177 551 
L 1170 551 
L 1191 546 
" fill="#339541" />
<path d="
M 1162 545 
L 1162 543 
L 1148 543 
L 1148 543 
L 1170 543 
L 1170 545 
Q 1165 545 , 1159 546 
Q 1154 546 , 1148 546 
Q 1135 546 , 1128 545 
Q 1120 544 , 1120 543 
Q 1120 541 , 1128 541 
Q 1135 540 , 1148 540 
Q 1154 540 , 1159 540 
Q 1164 540 , 1169 540 
L 1169 541 
Q 1162 541 , 1158 541 
Q 1154 541 , 1149 541 
Q 1139 541 , 1133 541 
Q 1128 542 , 1128 543 
Q 1128 544 , 1133 544 
Q 1139 545 , 1149 545 
Q 1154 545 , 1157 545 
Q 1161 545 , 1162 545 
" fill="lightgray" />
<path d="
M 1220 541 
L 1220 541 
Q 1213 541 , 1209 541 
Q 1204 541 , 1199 541 
Q 1189 541 , 1184 541 
Q 1178 542 , 1178 543 
Q 1178 544 , 1184 544 
Q 1189 545 , 1199 545 
Q 1204 545 , 1209 545 
Q 1213 545 , 1220 544 
L 1220 545 
Q 1215 545 , 1209 545 
Q 1205 546 , 1199 546 
Q 1185 546 , 1178 545 
Q 1170 544 , 1170 543 
Q 1170 542 , 1178 541 
Q 1185 540 , 1199 540 
Q 1205 540 , 1210 540 
Q 1215 540 , 1220 541 
" fill="#545FFF" />
<path d="
M 1120 478 
L 1129 478 
L 1129 515 
Q 1129 525 , 1133 529 
Q 1136 533 , 1145 533 
Q 1154 533 , 1157 529 
Q 1161 525 , 1161 515 
L 1161 478 
L 1170 478 
L 1170 515 
Q 1170 527 , 1164 534 
Q 1157 540 , 1145 540 
Q 1133 540 , 1126 534 
Q 1120 527 , 1120 515 
L 1120 478 
" fill="lightgray" />
<path d="
M 1212 531 
L 1212 514 
L 1198 514 
L 1198 508 
L 1220 508 
L 1220 535 
Q 1215 538 , 1209 539 
Q 1204 540 , 1198 540 
Q 1185 540 , 1178 532 
Q 1170 523 , 1170 509 
Q 1170 495 , 1178 486 
Q 1185 478 , 1198 478 
Q 1204 478 , 1209 479 
Q 1214 480 , 1219 483 
L 1219 491 
Q 1212 487 , 1208 486 
Q 1204 485 , 1199 485 
Q 1189 485 , 1183 491 
Q 1178 497 , 1178 509 
Q 1178 521 , 1183 527 
Q 1189 533 , 1199 533 
Q 1204 533 , 1207 532 
Q 1211 532 , 1212 531 
" fill="#F5C000" />
<path d="
M 1170 280 
L 1170 314 
Q 1163 292 , 1159 286 
Q 1154 280 , 1149 280 
Q 1139 280 , 1134 302 
Q 1128 324 , 1128 367 
Q 1128 410 , 1134 432 
Q 1139 453 , 1149 453 
Q 1154 453 , 1159 448 
Q 1163 442 , 1170 420 
L 1170 455 
Q 1165 467 , 1159 472 
Q 1155 477 , 1149 477 
Q 1135 477 , 1128 447 
Q 1120 418 , 1120 367 
Q 1120 316 , 1128 286 
Q 1135 256 , 1149 256 
Q 1155 256 , 1160 261 
Q 1165 267 , 1170 280 
" fill="lightgray" />
<path d="
M 1212 446 
L 1212 386 
L 1198 386 
L 1198 362 
L 1220 362 
L 1220 460 
Q 1215 470 , 1209 473 
Q 1204 477 , 1198 477 
Q 1185 477 , 1178 448 
Q 1170 418 , 1170 367 
Q 1170 315 , 1178 286 
Q 1185 256 , 1198 256 
Q 1204 256 , 1209 260 
Q 1214 264 , 1219 274 
L 1219 302 
Q 1212 290 , 1208 286 
Q 1204 282 , 1199 282 
Q 1189 282 , 1183 303 
Q 1178 324 , 1178 367 
Q 1178 410 , 1183 432 
Q 1189 453 , 1199 453 
Q 1204 453 , 1207 450 
Q 1211 448 , 1212 446 
" fill="#F5C000" />
<path d="
M 1225 553 
L 1243 553 
L 1243 554 
Q 1243 554 , 1251 554 
Q 1258 554 , 1275 554 
Q 1292 554 , 1300 554 
Q 1307 554 , 1307 554 
L 1307 553 
L 1325 553 
L 1325 554 
Q 1325 554 , 1312 554 
Q 1300 554 , 1275 554 
Q 1251 554 , 1238 554 
Q 1225 554 , 1225 554 
L 1225 553 
" fill="#D21010" />
<path d="
M 1309 551 
L 1309 548 
L 1280 548 
L 1280 547 
L 1325 547 
L 1325 551 
Q 1314 552 , 1303 552 
Q 1294 552 , 1282 552 
Q 1256 552 , 1240 551 
Q 1225 549 , 1225 547 
Q 1225 545 , 1240 543 
Q 1256 542 , 1282 542 
Q 1293 542 , 1302 542 
Q 1312 542 , 1322 543 
L 1322 544 
Q 1309 544 , 1301 543 
Q 1292 543 , 1283 543 
Q 1262 543 , 1251 544 
Q 1241 545 , 1241 547 
Q 1241 549 , 1251 550 
Q 1262 551 , 1283 551 
Q 1292 551 , 1299 551 
Q 1306 551 , 1309 551 
" fill="#F5C000" />
<path d="
M 1275 511 
L 1257 526 
L 1291 526 
L 1275 511 
M 1268 504 
L 1282 504 
L 1325 542 
L 1309 542 
L 1297 530 
L 1253 530 
L 1240 542 
L 1225 542 
L 1268 504 
" fill="#339541" />
<path d="
M 1325 391 
L 1325 411 
Q 1310 398 , 1302 395 
Q 1294 392 , 1284 392 
Q 1263 392 , 1253 404 
Q 1241 417 , 1241 441 
Q 1241 465 , 1253 478 
Q 1263 490 , 1284 490 
Q 1294 490 , 1302 487 
Q 1310 484 , 1325 471 
L 1325 491 
Q 1314 498 , 1304 501 
Q 1294 504 , 1283 504 
Q 1256 504 , 1241 487 
Q 1225 470 , 1225 441 
Q 1225 412 , 1241 395 
Q 1256 378 , 1283 378 
Q 1294 378 , 1304 381 
Q 1315 384 , 1325 391 
" fill="#545FFF" />
<path d="
M 1430 553 
L 1430 553 
Q 1415 553 , 1407 553 
Q 1399 553 , 1389 553 
Q 1368 553 , 1358 553 
Q 1346 553 , 1346 553 
Q 1346 554 , 1358 554 
Q 1368 554 , 1389 554 
Q 1399 554 , 1407 554 
Q 1415 554 , 1430 554 
L 1430 554 
Q 1419 554 , 1409 554 
Q 1399 554 , 1388 554 
Q 1361 554 , 1346 554 
Q 1330 554 , 1330 554 
Q 1330 553 , 1346 553 
Q 1361 553 , 1388 553 
Q 1399 553 , 1409 553 
Q 1420 553 , 1430 553 
" fill="#545FFF" />
<path d="
M 1414 552 
L 1414 552 
L 1385 552 
L 1385 552 
L 1430 552 
L 1430 552 
Q 1419 552 , 1408 553 
Q 1399 553 , 1387 553 
Q 1361 553 , 1345 552 
Q 1330 552 , 1330 552 
Q 1330 551 , 1345 551 
Q 1361 551 , 1387 551 
Q 1398 551 , 1407 551 
Q 1417 551 , 1427 551 
L 1427 551 
Q 1414 551 , 1406 551 
Q 1397 551 , 1388 551 
Q 1367 551 , 1356 551 
Q 1346 551 , 1346 552 
Q 1346 552 , 1356 552 
Q 1367 552 , 1388 552 
Q 1397 552 , 1404 552 
Q 1411 552 , 1414 552 
" fill="#F5C000" />
<path d="
M 1330 549 
L 1348 549 
L 1348 550 
Q 1348 550 , 1356 550 
Q 1363 551 , 1380 551 
Q 1397 551 , 1405 550 
Q 1412 550 , 1412 550 
L 1412 549 
L 1430 549 
L 1430 550 
Q 1430 550 , 1417 551 
Q 1405 551 , 1380 551 
Q 1356 551 , 1343 551 
Q 1330 550 , 1330 550 
L 1330 549 
" fill="#D21010" />
<path d="
M 1380 546 
L 1362 547 
L 1396 547 
L 1380 546 
M 1373 546 
L 1387 546 
L 1430 548 
L 1414 548 
L 1402 547 
L 1358 547 
L 1345 548 
L 1330 548 
L 1373 546 
" fill="#339541" />
<path d="M 65 168 L 65 555 " stroke="black" stroke-width="1.5"/>
<path d="M 55 555 L 65 555 " stroke="black" stroke-width="4"/>
<text text-anchor="end" x="50" y="555" font-size="50" alignment-baseline="middle">0</text>
<path d="M 55 362 L 65 362 " stroke="black" stroke-width="4"/>
<text text-anchor="end" x="50" y="362" font-size="50" alignment-baseline="middle">1</text>
<path d="M 55 168 L 65 168 " stroke="black" stroke-width="4"/>
<text text-anchor="end" x="50" y="168" font-size="50" alignment-baseline="middle">2</text>
<text text-anchor="middle" x="750" y="50" font-size="50" alignment-baseline="baseline"></text>
G<path d="
M 160 582 
L 126 595 
L 160 608 
L 157 611 
L 123 598 
L 123 623 
L 117 623 
L 117 599 
L 83 611 
L 80 608 
L 114 595 
L 80 582 
L 83 579 
L 117 591 
L 117 567 
L 123 567 
L 123 591 
L 157 579 
L 160 582 
" fill="black" />
<path d="
M 265 567 
Q 236 574 , 223 581 
Q 210 588 , 210 595 
Q 210 602 , 223 609 
Q 236 616 , 265 623 
L 241 623 
Q 213 616 , 199 609 
Q 185 602 , 185 595 
Q 185 588 , 199 581 
Q 213 574 , 241 567 
L 265 567 
" fill="black" />
<path d="
" fill="black" />
<path d="
M 316 567 
L 343 567 
L 343 623 
L 316 623 
L 316 567 
" fill="black" />
<path d="
" fill="black" />
<path d="
M 475 567 
Q 446 574 , 433 581 
Q 420 588 , 420 595 
Q 420 602 , 433 609 
Q 446 616 , 475 623 
L 451 623 
Q 423 616 , 409 609 
Q 395 602 , 395 595 
Q 395 588 , 409 581 
Q 423 574 , 451 567 
L 475 567 
" fill="black" />
<path d="
" fill="black" />
<path d="
M 526 567 
L 553 567 
L 553 623 
L 526 623 
L 526 567 
" fill="black" />
<path d="
" fill="black" />
<path d="
" fill="black" />
<path d="
M 617 567 
L 633 567 
L 633 623 
L 617 623 
L 617 567 
" fill="black" />
<path d="
" fill="black" />
<path d="
M 659 619 
L 673 619 
L 673 623 
L 657 623 
L 657 619 
L 663 604 
Q 665 599 , 667 595 
Q 669 591 , 669 589 
Q 670 587 , 670 583 
Q 670 577 , 668 573 
Q 667 571 , 664 571 
Q 663 571 , 661 573 
Q 660 574 , 657 577 
L 657 573 
Q 658 571 , 660 569 
Q 662 567 , 664 567 
Q 668 567 , 670 571 
Q 672 574 , 672 583 
Q 672 586 , 671 589 
Q 671 593 , 669 597 
Q 669 598 , 667 603 
L 659 619 
" fill="black" />
<path d="
M 678 567 
L 691 567 
L 691 571 
L 680 571 
L 680 588 
Q 681 588 , 682 587 
Q 682 587 , 684 587 
Q 688 587 , 691 592 
Q 693 596 , 693 604 
Q 693 613 , 691 618 
Q 688 623 , 683 623 
Q 682 623 , 680 623 
Q 679 622 , 677 621 
L 677 616 
Q 679 618 , 680 618 
Q 682 619 , 683 619 
Q 687 619 , 689 615 
Q 691 611 , 691 604 
Q 691 598 , 689 594 
Q 687 591 , 683 591 
Q 683 591 , 681 591 
Q 680 592 , 678 594 
L 678 567 
" fill="black" />
<path d="
M 790 582 
L 756 595 
L 790 608 
L 787 611 
L 753 598 
L 753 623 
L 747 623 
L 747 599 
L 713 611 
L 710 608 
L 744 595 
L 710 582 
L 713 579 
L 747 591 
L 747 567 
L 753 567 
L 753 591 
L 787 579 
L 790 582 
" fill="black" />
<path d="
" fill="black" />
<path d="
M 841 567 
L 868 567 
L 868 623 
L 841 623 
L 841 567 
" fill="black" />
<path d="
" fill="black" />
<path d="
M 920 567 
L 944 567 
Q 972 574 , 986 581 
Q 1000 588 , 1000 595 
Q 1000 602 , 986 609 
Q 972 616 , 944 623 
L 920 623 
Q 949 616 , 962 609 
Q 975 602 , 975 595 
Q 975 588 , 962 581 
Q 949 574 , 920 567 
" fill="black" />
<path d="
" fill="black" />
<path d="
M 1051 567 
L 1078 567 
L 1078 623 
L 1051 623 
L 1051 567 
" fill="black" />
<path d="
" fill="black" />
<path d="
M 1130 567 
L 1154 567 
Q 1182 574 , 1196 581 
Q 1210 588 , 1210 595 
Q 1210 602 , 1196 609 
Q 1182 616 , 1154 623 
L 1130 623 
Q 1159 616 , 1172 609 
Q 1185 602 , 1185 595 
Q 1185 588 , 1172 581 
Q 1159 574 , 1130 567 
" fill="black" />
<path d="
" fill="black" />
<path d="
M 1261 567 
L 1288 567 
L 1288 623 
L 1261 623 
L 1261 567 
" fill="black" />
<path d="
" fill="black" />
<path d="
M 1420 582 
L 1386 595 
L 1420 608 
L 1417 611 
L 1383 598 
L 1383 623 
L 1377 623 
L 1377 599 
L 1343 611 
L 1340 608 
L 1374 595 
L 1340 582 
L 1343 579 
L 1377 591 
L 1377 567 
L 1383 567 
L 1383 591 
L 1417 579 
L 1420 582 
" fill="black" />
</svg>
