<svg xmlns="http://www.w3.org/2000/svg"
viewBox="0 0 1435 635">
<path d="
M 120 554 
L 102 554 
L 136 554 
L 120 554 
M 113 554 
L 127 554 
L 170 555 
L 154 555 
L 142 554 
L 98 554 
L 85 555 
L 70 555 
L 113 554 
" fill="#339541" />
<path d="
M 70 553 
L 88 553 
L 88 553 
Q 88 554 , 96 554 
Q 103 554 , 120 554 
Q 137 554 , 145 554 
Q 152 554 , 152 553 
L 152 553 
L 170 553 
L 170 553 
Q 170 554 , 157 554 
Q 145 554 , 120 554 
Q 96 554 , 83 554 
Q 70 554 , 70 553 
L 70 553 
" fill="#D21010" />
<path d="
M 170 552 
L 170 552 
Q 155 552 , 147 552 
Q 139 552 , 129 552 
Q 108 552 , 98 552 
Q 86 552 , 86 552 
Q 86 553 , 98 553 
Q 108 553 , 129 553 
Q 139 553 , 147 553 
Q 155 553 , 170 553 
L 170 553 
Q 159 553 , 149 553 
Q 139 553 , 128 553 
Q 101 553 , 86 553 
Q 70 553 , 70 552 
Q 70 552 , 86 552 
Q 101 552 , 128 552 
Q 139 552 , 149 552 
Q 160 552 , 170 552 
" fill="#545FFF" />
<path d="
M 154 552 
L 154 552 
L 125 552 
L 125 551 
L 170 551 
L 170 552 
Q 159 552 , 148 552 
Q 139 552 , 127 552 
Q 101 552 , 85 552 
Q 70 552 , 70 551 
Q 70 551 , 85 551 
Q 101 551 , 127 551 
Q 138 551 , 147 551 
Q 157 551 , 167 551 
L 167 551 
Q 154 551 , 146 551 
Q 137 551 , 128 551 
Q 107 551 , 96 551 
Q 86 551 , 86 551 
Q 86 552 , 96 552 
Q 107 552 , 128 552 
Q 137 552 , 144 552 
Q 151 552 , 154 552 
" fill="#F5C000" />
<path d="
M 225 550 
L 207 552 
L 241 552 
L 225 550 
M 218 549 
L 232 549 
L 275 555 
L 259 555 
L 247 553 
L 203 553 
L 190 555 
L 175 555 
L 218 549 
" fill="#339541" />
<path d="
M 275 542 
L 275 543 
Q 260 542 , 252 542 
Q 244 542 , 234 542 
Q 213 542 , 203 543 
Q 191 543 , 191 544 
Q 191 546 , 203 547 
Q 213 548 , 234 548 
Q 244 548 , 252 548 
Q 260 548 , 275 547 
L 275 548 
Q 264 548 , 254 549 
Q 244 549 , 233 549 
Q 206 549 , 191 548 
Q 175 547 , 175 545 
Q 175 543 , 191 542 
Q 206 541 , 233 541 
Q 244 541 , 254 541 
Q 265 541 , 275 542 
" fill="#545FFF" />
<path d="
M 259 537 
L 259 532 
L 230 532 
L 230 530 
L 275 530 
L 275 539 
Q 264 540 , 253 540 
Q 244 540 , 232 540 
Q 206 540 , 190 538 
Q 175 535 , 175 530 
Q 175 525 , 190 523 
Q 206 520 , 232 520 
Q 243 520 , 252 520 
Q 262 521 , 272 522 
L 272 524 
Q 259 523 , 251 523 
Q 242 522 , 233 522 
Q 212 522 , 201 524 
Q 191 526 , 191 530 
Q 191 534 , 201 536 
Q 212 538 , 233 538 
Q 242 538 , 249 538 
Q 256 538 , 259 537 
" fill="#F5C000" />
<path d="
M 175 495 
L 193 495 
L 193 510 
Q 193 514 , 201 515 
Q 208 517 , 225 517 
Q 242 517 , 250 515 
Q 257 514 , 257 510 
L 257 495 
L 275 495 
L 275 510 
Q 275 515 , 262 517 
Q 250 520 , 225 520 
Q 201 520 , 188 517 
Q 175 515 , 175 510 
L 175 495 
" fill="#D21010" />
<path d="
M 330 548 
L 312 551 
L 346 551 
L 330 548 
M 323 546 
L 337 546 
L 380 555 
L 364 555 
L 352 552 
L 308 552 
L 295 555 
L 280 555 
L 323 546 
" fill="#339541" />
<path d="
M 280 532 
L 298 532 
L 298 540 
Q 298 542 , 306 543 
Q 313 544 , 330 544 
Q 347 544 , 355 543 
Q 362 542 , 362 540 
L 362 532 
L 380 532 
L 380 540 
Q 380 543 , 367 544 
Q 355 546 , 330 546 
Q 306 546 , 293 544 
Q 280 543 , 280 540 
L 280 532 
" fill="#D21010" />
<path d="
M 380 519 
L 380 521 
Q 365 519 , 357 519 
Q 349 519 , 339 519 
Q 318 519 , 308 520 
Q 296 522 , 296 524 
Q 296 527 , 308 529 
Q 318 530 , 339 530 
Q 349 530 , 357 530 
Q 365 529 , 380 528 
L 380 530 
Q 369 531 , 359 532 
Q 349 532 , 338 532 
Q 311 532 , 296 530 
Q 280 528 , 280 524 
Q 280 521 , 296 519 
Q 311 517 , 338 517 
Q 349 517 , 359 517 
Q 370 518 , 380 519 
" fill="#545FFF" />
<path d="
M 364 509 
L 364 496 
L 335 496 
L 335 491 
L 380 491 
L 380 512 
Q 369 515 , 358 515 
Q 349 516 , 337 516 
Q 311 516 , 295 510 
Q 280 503 , 280 492 
Q 280 480 , 295 474 
Q 311 467 , 337 467 
Q 348 467 , 357 468 
Q 367 469 , 377 471 
L 377 477 
Q 364 474 , 356 474 
Q 347 473 , 338 473 
Q 317 473 , 306 477 
Q 296 482 , 296 492 
Q 296 501 , 306 506 
Q 317 511 , 338 511 
Q 347 511 , 354 510 
Q 361 510 , 364 509 
" fill="#F5C000" />
<path d="
M 435 549 
L 417 552 
L 451 552 
L 435 549 
M 428 548 
L 442 548 
L 485 555 
L 469 555 
L 457 553 
L 413 553 
L 400 555 
L 385 555 
L 428 548 
" fill="#339541" />
<path d="
M 485 541 
L 485 542 
Q 470 541 , 462 541 
Q 454 541 , 444 541 
Q 423 541 , 413 541 
Q 401 542 , 401 543 
Q 401 545 , 413 546 
Q 423 546 , 444 546 
Q 454 546 , 462 546 
Q 470 546 , 485 545 
L 485 546 
Q 474 547 , 464 547 
Q 454 547 , 443 547 
Q 416 547 , 401 546 
Q 385 545 , 385 544 
Q 385 542 , 401 541 
Q 416 540 , 443 540 
Q 454 540 , 464 540 
Q 475 540 , 485 541 
" fill="#545FFF" />
<path d="
M 385 522 
L 403 522 
L 403 532 
Q 403 535 , 411 536 
Q 418 537 , 435 537 
Q 452 537 , 460 536 
Q 467 535 , 467 532 
L 467 522 
L 485 522 
L 485 533 
Q 485 536 , 472 538 
Q 460 539 , 435 539 
Q 411 539 , 398 538 
Q 385 536 , 385 533 
L 385 522 
" fill="#D21010" />
<path d="
M 469 517 
L 469 510 
L 440 510 
L 440 507 
L 485 507 
L 485 519 
Q 474 520 , 463 521 
Q 454 521 , 442 521 
Q 416 521 , 400 518 
Q 385 514 , 385 508 
Q 385 502 , 400 498 
Q 416 495 , 442 495 
Q 453 495 , 462 495 
Q 472 496 , 482 497 
L 482 500 
Q 469 499 , 461 499 
Q 452 498 , 443 498 
Q 422 498 , 411 501 
Q 401 503 , 401 508 
Q 401 513 , 411 516 
Q 422 518 , 443 518 
Q 452 518 , 459 518 
Q 466 518 , 469 517 
" fill="#F5C000" />
<path d="
M 540 548 
L 522 551 
L 556 551 
L 540 548 
M 533 546 
L 547 546 
L 590 555 
L 574 555 
L 562 552 
L 518 552 
L 505 555 
L 490 555 
L 533 546 
" fill="#339541" />
<path d="
M 590 537 
L 590 538 
Q 575 538 , 567 537 
Q 559 537 , 549 537 
Q 528 537 , 518 538 
Q 506 539 , 506 541 
Q 506 543 , 518 544 
Q 528 544 , 549 544 
Q 559 544 , 567 544 
Q 575 544 , 590 543 
L 590 545 
Q 579 545 , 569 545 
Q 559 546 , 548 546 
Q 521 546 , 506 544 
Q 490 543 , 490 541 
Q 490 539 , 506 537 
Q 521 536 , 548 536 
Q 559 536 , 569 536 
Q 580 536 , 590 537 
" fill="#545FFF" />
<path d="
M 490 526 
L 508 526 
L 508 532 
Q 508 533 , 516 534 
Q 523 535 , 540 535 
Q 557 535 , 565 534 
Q 572 533 , 572 532 
L 572 526 
L 590 526 
L 590 532 
Q 590 534 , 577 535 
Q 565 536 , 540 536 
Q 516 536 , 503 535 
Q 490 534 , 490 532 
L 490 526 
" fill="#D21010" />
<path d="
M 574 521 
L 574 513 
L 545 513 
L 545 510 
L 590 510 
L 590 523 
Q 579 524 , 568 525 
Q 559 525 , 547 525 
Q 521 525 , 505 521 
Q 490 518 , 490 511 
Q 490 504 , 505 500 
Q 521 496 , 547 496 
Q 558 496 , 567 497 
Q 577 497 , 587 498 
L 587 502 
Q 574 500 , 566 500 
Q 557 500 , 548 500 
Q 527 500 , 516 502 
Q 506 505 , 506 511 
Q 506 517 , 516 519 
Q 527 522 , 548 522 
Q 557 522 , 564 522 
Q 571 522 , 574 521 
" fill="#F5C000" />
<path d="
M 645 553 
L 627 554 
L 661 554 
L 645 553 
M 638 553 
L 652 553 
L 695 555 
L 679 555 
L 667 554 
L 623 554 
L 610 555 
L 595 555 
L 638 553 
" fill="#339541" />
<path d="
M 595 550 
L 613 550 
L 613 551 
Q 613 552 , 621 552 
Q 628 552 , 645 552 
Q 662 552 , 670 552 
Q 677 552 , 677 551 
L 677 550 
L 695 550 
L 695 551 
Q 695 552 , 682 552 
Q 670 552 , 645 552 
Q 621 552 , 608 552 
Q 595 552 , 595 551 
L 595 550 
" fill="#D21010" />
<path d="
M 679 549 
L 679 548 
L 650 548 
L 650 548 
L 695 548 
L 695 549 
Q 684 549 , 673 549 
Q 664 550 , 652 550 
Q 626 550 , 610 549 
Q 595 549 , 595 548 
Q 595 548 , 610 547 
Q 626 547 , 652 547 
Q 663 547 , 672 547 
Q 682 547 , 692 547 
L 692 548 
Q 679 547 , 671 547 
Q 662 547 , 653 547 
Q 632 547 , 621 548 
Q 611 548 , 611 548 
Q 611 549 , 621 549 
Q 632 549 , 653 549 
Q 662 549 , 669 549 
Q 676 549 , 679 549 
" fill="#F5C000" />
<path d="
M 695 543 
L 695 544 
Q 680 543 , 672 543 
Q 664 543 , 654 543 
Q 633 543 , 623 544 
Q 611 544 , 611 544 
Q 611 545 , 623 545 
Q 633 546 , 654 546 
Q 664 546 , 672 546 
Q 680 546 , 695 545 
L 695 546 
Q 684 546 , 674 546 
Q 664 546 , 653 546 
Q 626 546 , 611 546 
Q 595 545 , 595 545 
Q 595 544 , 611 543 
Q 626 543 , 653 543 
Q 664 543 , 674 543 
Q 685 543 , 695 543 
" fill="#545FFF" />
<path d="
M 750 554 
L 732 554 
L 766 554 
L 750 554 
M 743 554 
L 757 554 
L 800 555 
L 784 555 
L 772 554 
L 728 554 
L 715 555 
L 700 555 
L 743 554 
" fill="#339541" />
<path d="
M 700 553 
L 718 553 
L 718 553 
Q 718 554 , 726 554 
Q 733 554 , 750 554 
Q 767 554 , 775 554 
Q 782 554 , 782 553 
L 782 553 
L 800 553 
L 800 553 
Q 800 554 , 787 554 
Q 775 554 , 750 554 
Q 726 554 , 713 554 
Q 700 554 , 700 553 
L 700 553 
" fill="#D21010" />
<path d="
M 800 552 
L 800 552 
Q 785 552 , 777 552 
Q 769 552 , 759 552 
Q 738 552 , 728 552 
Q 716 552 , 716 552 
Q 716 553 , 728 553 
Q 738 553 , 759 553 
Q 769 553 , 777 553 
Q 785 553 , 800 553 
L 800 553 
Q 789 553 , 779 553 
Q 769 553 , 758 553 
Q 731 553 , 716 553 
Q 700 553 , 700 552 
Q 700 552 , 716 552 
Q 731 552 , 758 552 
Q 769 552 , 779 552 
Q 790 552 , 800 552 
" fill="#545FFF" />
<path d="
M 784 552 
L 784 552 
L 755 552 
L 755 551 
L 800 551 
L 800 552 
Q 789 552 , 778 552 
Q 769 552 , 757 552 
Q 731 552 , 715 552 
Q 700 552 , 700 551 
Q 700 551 , 715 551 
Q 731 551 , 757 551 
Q 768 551 , 777 551 
Q 787 551 , 797 551 
L 797 551 
Q 784 551 , 776 551 
Q 767 551 , 758 551 
Q 737 551 , 726 551 
Q 716 551 , 716 551 
Q 716 552 , 726 552 
Q 737 552 , 758 552 
Q 767 552 , 774 552 
Q 781 552 , 784 552 
" fill="#F5C000" />
<path d="
M 805 549 
L 823 549 
L 823 552 
Q 823 553 , 831 554 
Q 838 554 , 855 554 
Q 872 554 , 880 554 
Q 887 553 , 887 552 
L 887 549 
L 905 549 
L 905 552 
Q 905 553 , 892 554 
Q 880 555 , 855 555 
Q 831 555 , 818 554 
Q 805 553 , 805 552 
L 805 549 
" fill="#D21010" />
<path d="
M 855 534 
L 837 541 
L 871 541 
L 855 534 
M 848 531 
L 862 531 
L 905 548 
L 889 548 
L 877 543 
L 833 543 
L 820 548 
L 805 548 
L 848 531 
" fill="#339541" />
<path d="
M 905 510 
L 905 514 
Q 890 512 , 882 511 
Q 874 510 , 864 510 
Q 843 510 , 833 513 
Q 821 515 , 821 519 
Q 821 523 , 833 526 
Q 843 528 , 864 528 
Q 874 528 , 882 527 
Q 890 527 , 905 525 
L 905 528 
Q 894 529 , 884 530 
Q 874 530 , 863 530 
Q 836 530 , 821 527 
Q 805 524 , 805 519 
Q 805 514 , 821 511 
Q 836 508 , 863 508 
Q 874 508 , 884 509 
Q 895 509 , 905 510 
" fill="#545FFF" />
<path d="
M 889 498 
L 889 481 
L 860 481 
L 860 474 
L 905 474 
L 905 502 
Q 894 505 , 883 506 
Q 874 507 , 862 507 
Q 836 507 , 820 499 
Q 805 490 , 805 476 
Q 805 461 , 820 452 
Q 836 444 , 862 444 
Q 873 444 , 882 445 
Q 892 446 , 902 449 
L 902 457 
Q 889 454 , 881 453 
Q 872 452 , 863 452 
Q 842 452 , 831 457 
Q 821 463 , 821 476 
Q 821 488 , 831 494 
Q 842 500 , 863 500 
Q 872 500 , 879 499 
Q 886 499 , 889 498 
" fill="#F5C000" />
<path d="
M 910 547 
L 928 547 
L 928 552 
Q 928 553 , 936 553 
Q 943 554 , 960 554 
Q 977 554 , 985 553 
Q 992 553 , 992 552 
L 992 547 
L 1010 547 
L 1010 552 
Q 1010 553 , 997 554 
Q 985 555 , 960 555 
Q 936 555 , 923 554 
Q 910 553 , 910 552 
L 910 547 
" fill="#D21010" />
<path d="
M 1010 536 
L 1010 538 
Q 995 537 , 987 537 
Q 979 536 , 969 536 
Q 948 536 , 938 537 
Q 926 538 , 926 540 
Q 926 543 , 938 544 
Q 948 545 , 969 545 
Q 979 545 , 987 545 
Q 995 545 , 1010 543 
L 1010 545 
Q 999 546 , 989 546 
Q 979 546 , 968 546 
Q 941 546 , 926 545 
Q 910 543 , 910 541 
Q 910 538 , 926 537 
Q 941 535 , 968 535 
Q 979 535 , 989 535 
Q 1000 536 , 1010 536 
" fill="#545FFF" />
<path d="
M 994 531 
L 994 525 
L 965 525 
L 965 522 
L 1010 522 
L 1010 533 
Q 999 534 , 988 534 
Q 979 535 , 967 535 
Q 941 535 , 925 531 
Q 910 528 , 910 523 
Q 910 517 , 925 514 
Q 941 511 , 967 511 
Q 978 511 , 987 511 
Q 997 512 , 1007 513 
L 1007 516 
Q 994 515 , 986 514 
Q 977 514 , 968 514 
Q 947 514 , 936 516 
Q 926 518 , 926 523 
Q 926 527 , 936 530 
Q 947 532 , 968 532 
Q 977 532 , 984 532 
Q 991 532 , 994 531 
" fill="#F5C000" />
<path d="
M 960 464 
L 942 487 
L 976 487 
L 960 464 
M 953 454 
L 967 454 
L 1010 510 
L 994 510 
L 982 494 
L 938 494 
L 925 510 
L 910 510 
L 953 454 
" fill="#339541" />
<path d="
M 1115 546 
L 1115 548 
Q 1100 547 , 1092 546 
Q 1084 546 , 1074 546 
Q 1053 546 , 1043 547 
Q 1031 548 , 1031 550 
Q 1031 552 , 1043 553 
Q 1053 554 , 1074 554 
Q 1084 554 , 1092 554 
Q 1100 553 , 1115 552 
L 1115 554 
Q 1104 554 , 1094 555 
Q 1084 555 , 1073 555 
Q 1046 555 , 1031 554 
Q 1015 552 , 1015 550 
Q 1015 548 , 1031 546 
Q 1046 545 , 1073 545 
Q 1084 545 , 1094 545 
Q 1105 545 , 1115 546 
" fill="#545FFF" />
<path d="
M 1015 532 
L 1033 532 
L 1033 539 
Q 1033 541 , 1041 542 
Q 1048 543 , 1065 543 
Q 1082 543 , 1090 542 
Q 1097 541 , 1097 539 
L 1097 532 
L 1115 532 
L 1115 539 
Q 1115 542 , 1102 543 
Q 1090 544 , 1065 544 
Q 1041 544 , 1028 543 
Q 1015 542 , 1015 539 
L 1015 532 
" fill="#D21010" />
<path d="
M 1065 509 
L 1047 520 
L 1081 520 
L 1065 509 
M 1058 504 
L 1072 504 
L 1115 532 
L 1099 532 
L 1087 523 
L 1043 523 
L 1030 532 
L 1015 532 
L 1058 504 
" fill="#339541" />
<path d="
M 1099 490 
L 1099 464 
L 1070 464 
L 1070 454 
L 1115 454 
L 1115 496 
Q 1104 500 , 1093 502 
Q 1084 503 , 1072 503 
Q 1046 503 , 1030 491 
Q 1015 478 , 1015 456 
Q 1015 434 , 1030 422 
Q 1046 409 , 1072 409 
Q 1083 409 , 1092 411 
Q 1102 412 , 1112 417 
L 1112 429 
Q 1099 423 , 1091 422 
Q 1082 420 , 1073 420 
Q 1052 420 , 1041 429 
Q 1031 438 , 1031 456 
Q 1031 475 , 1041 484 
Q 1052 493 , 1073 493 
Q 1082 493 , 1089 492 
Q 1096 491 , 1099 490 
" fill="#F5C000" />
<path d="
M 1120 551 
L 1138 551 
L 1138 553 
Q 1138 554 , 1146 554 
Q 1153 554 , 1170 554 
Q 1187 554 , 1195 554 
Q 1202 554 , 1202 553 
L 1202 551 
L 1220 551 
L 1220 553 
Q 1220 554 , 1207 554 
Q 1195 555 , 1170 555 
Q 1146 555 , 1133 554 
Q 1120 554 , 1120 553 
L 1120 551 
" fill="#D21010" />
<path d="
M 1170 537 
L 1152 544 
L 1186 544 
L 1170 537 
M 1163 534 
L 1177 534 
L 1220 551 
L 1204 551 
L 1192 546 
L 1148 546 
L 1135 551 
L 1120 551 
L 1163 534 
" fill="#339541" />
<path d="
M 1220 513 
L 1220 516 
Q 1205 514 , 1197 513 
Q 1189 513 , 1179 513 
Q 1158 513 , 1148 515 
Q 1136 517 , 1136 521 
Q 1136 526 , 1148 529 
Q 1158 531 , 1179 531 
Q 1189 531 , 1197 530 
Q 1205 530 , 1220 527 
L 1220 531 
Q 1209 532 , 1199 533 
Q 1189 534 , 1178 534 
Q 1151 534 , 1136 530 
Q 1120 527 , 1120 522 
Q 1120 516 , 1136 513 
Q 1151 510 , 1178 510 
Q 1189 510 , 1199 511 
Q 1210 511 , 1220 513 
" fill="#545FFF" />
<path d="
M 1204 503 
L 1204 491 
L 1175 491 
L 1175 486 
L 1220 486 
L 1220 506 
Q 1209 508 , 1198 509 
Q 1189 509 , 1177 509 
Q 1151 509 , 1135 503 
Q 1120 497 , 1120 487 
Q 1120 476 , 1135 470 
Q 1151 464 , 1177 464 
Q 1188 464 , 1197 465 
Q 1207 466 , 1217 468 
L 1217 473 
Q 1204 471 , 1196 470 
Q 1187 469 , 1178 469 
Q 1157 469 , 1146 474 
Q 1136 478 , 1136 487 
Q 1136 496 , 1146 500 
Q 1157 504 , 1178 504 
Q 1187 504 , 1194 504 
Q 1201 503 , 1204 503 
" fill="#F5C000" />
<path d="
M 1309 553 
L 1309 551 
L 1280 551 
L 1280 550 
L 1325 550 
L 1325 554 
Q 1314 554 , 1303 554 
Q 1294 554 , 1282 554 
Q 1256 554 , 1240 553 
Q 1225 552 , 1225 551 
Q 1225 549 , 1240 548 
Q 1256 547 , 1282 547 
Q 1293 547 , 1302 547 
Q 1312 547 , 1322 548 
L 1322 548 
Q 1309 548 , 1301 548 
Q 1292 548 , 1283 548 
Q 1262 548 , 1251 549 
Q 1241 549 , 1241 551 
Q 1241 552 , 1251 553 
Q 1262 553 , 1283 553 
Q 1292 553 , 1299 553 
Q 1306 553 , 1309 553 
" fill="#F5C000" />
<path d="
M 1225 536 
L 1243 536 
L 1243 542 
Q 1243 544 , 1251 544 
Q 1258 545 , 1275 545 
Q 1292 545 , 1300 544 
Q 1307 544 , 1307 542 
L 1307 536 
L 1325 536 
L 1325 542 
Q 1325 544 , 1312 545 
Q 1300 546 , 1275 546 
Q 1251 546 , 1238 545 
Q 1225 544 , 1225 542 
L 1225 536 
" fill="#D21010" />
<path d="
M 1325 512 
L 1325 516 
Q 1310 513 , 1302 513 
Q 1294 512 , 1284 512 
Q 1263 512 , 1253 515 
Q 1241 517 , 1241 522 
Q 1241 528 , 1253 530 
Q 1263 533 , 1284 533 
Q 1294 533 , 1302 532 
Q 1310 532 , 1325 529 
L 1325 533 
Q 1314 535 , 1304 535 
Q 1294 536 , 1283 536 
Q 1256 536 , 1241 532 
Q 1225 529 , 1225 522 
Q 1225 516 , 1241 513 
Q 1256 509 , 1283 509 
Q 1294 509 , 1304 510 
Q 1315 510 , 1325 512 
" fill="#545FFF" />
<path d="
M 1275 466 
L 1257 487 
L 1291 487 
L 1275 466 
M 1268 456 
L 1282 456 
L 1325 508 
L 1309 508 
L 1297 493 
L 1253 493 
L 1240 508 
L 1225 508 
L 1268 456 
" fill="#339541" />
<path d="
M 1380 554 
L 1362 554 
L 1396 554 
L 1380 554 
M 1373 554 
L 1387 554 
L 1430 555 
L 1414 555 
L 1402 554 
L 1358 554 
L 1345 555 
L 1330 555 
L 1373 554 
" fill="#339541" />
<path d="
M 1330 553 
L 1348 553 
L 1348 553 
Q 1348 554 , 1356 554 
Q 1363 554 , 1380 554 
Q 1397 554 , 1405 554 
Q 1412 554 , 1412 553 
L 1412 553 
L 1430 553 
L 1430 553 
Q 1430 554 , 1417 554 
Q 1405 554 , 1380 554 
Q 1356 554 , 1343 554 
Q 1330 554 , 1330 553 
L 1330 553 
" fill="#D21010" />
<path d="
M 1430 552 
L 1430 552 
Q 1415 552 , 1407 552 
Q 1399 552 , 1389 552 
Q 1368 552 , 1358 552 
Q 1346 552 , 1346 552 
Q 1346 553 , 1358 553 
Q 1368 553 , 1389 553 
Q 1399 553 , 1407 553 
Q 1415 553 , 1430 553 
L 1430 553 
Q 1419 553 , 1409 553 
Q 1399 553 , 1388 553 
Q 1361 553 , 1346 553 
Q 1330 553 , 1330 552 
Q 1330 552 , 1346 552 
Q 1361 552 , 1388 552 
Q 1399 552 , 1409 552 
Q 1420 552 , 1430 552 
" fill="#545FFF" />
<path d="
M 1414 552 
L 1414 552 
L 1385 552 
L 1385 551 
L 1430 551 
L 1430 552 
Q 1419 552 , 1408 552 
Q 1399 552 , 1387 552 
Q 1361 552 , 1345 552 
Q 1330 552 , 1330 551 
Q 1330 551 , 1345 551 
Q 1361 551 , 1387 551 
Q 1398 551 , 1407 551 
Q 1417 551 , 1427 551 
L 1427 551 
Q 1414 551 , 1406 551 
Q 1397 551 , 1388 551 
Q 1367 551 , 1356 551 
Q 1346 551 , 1346 551 
Q 1346 552 , 1356 552 
Q 1367 552 , 1388 552 
Q 1397 552 , 1404 552 
Q 1411 552 , 1414 552 
" fill="#F5C000" />
<path d="M 65 55 L 65 555 " stroke="black" stroke-width="1.5"/>
<path d="M 55 555 L 65 555 " stroke="black" stroke-width="4"/>
<text text-anchor="end" x="50" y="555" font-size="50" alignment-baseline="middle">0</text>
<path d="M 55 305 L 65 305 " stroke="black" stroke-width="4"/>
<text text-anchor="end" x="50" y="305" font-size="50" alignment-baseline="middle">1</text>
<path d="M 55 55 L 65 55 " stroke="black" stroke-width="4"/>
<text text-anchor="end" x="50" y="55" font-size="50" alignment-baseline="middle">2</text>
<text text-anchor="middle" x="750" y="50" font-size="50" alignment-baseline="baseline"></text>
G<path d="
M 160 582 
L 126 595 
L 160 608 
L 157 611 
L 123 598 
L 123 623 
L 117 623 
L 117 599 
L 83 611 
L 80 608 
L 114 595 
L 80 582 
L 83 579 
L 117 591 
L 117 567 
L 123 567 
L 123 591 
L 157 579 
L 160 582 
" fill="black" />
<path d="
" fill="black" />
<path d="
M 211 567 
L 238 567 
L 238 623 
L 211 623 
L 211 567 
" fill="black" />
<path d="
" fill="black" />
<path d="
" fill="black" />
<path d="
M 316 567 
L 343 567 
L 343 623 
L 316 623 
L 316 567 
" fill="black" />
<path d="
" fill="black" />
<path d="
" fill="black" />
<path d="
M 421 567 
L 448 567 
L 448 623 
L 421 623 
L 421 567 
" fill="black" />
<path d="
" fill="black" />
<path d="
" fill="black" />
<path d="
M 526 567 
L 553 567 
L 553 623 
L 526 623 
L 526 567 
" fill="black" />
<path d="
" fill="black" />
<path d="
" fill="black" />
<path d="
M 617 567 
L 633 567 
L 633 623 
L 617 623 
L 617 567 
" fill="black" />
<path d="
" fill="black" />
<path d="
M 669 593 
Q 671 594 , 672 597 
Q 673 601 , 673 606 
Q 673 614 , 671 618 
Q 669 623 , 664 623 
Q 662 623 , 661 622 
Q 659 621 , 657 619 
L 657 613 
Q 659 617 , 660 618 
Q 662 619 , 664 619 
Q 667 619 , 669 616 
Q 671 613 , 671 606 
Q 671 601 , 669 598 
Q 668 595 , 664 595 
L 661 595 
L 661 591 
L 665 591 
Q 667 591 , 669 589 
Q 670 586 , 670 582 
Q 670 577 , 669 574 
Q 667 571 , 664 571 
Q 663 571 , 661 572 
Q 660 573 , 658 575 
L 658 571 
Q 660 569 , 662 568 
Q 663 567 , 665 567 
Q 669 567 , 671 571 
Q 672 575 , 672 581 
Q 672 586 , 671 589 
Q 671 592 , 669 593 
" fill="black" />
<path d="
M 679 619 
L 685 619 
L 685 572 
L 677 578 
L 677 573 
L 685 567 
L 687 567 
L 687 619 
L 693 619 
L 693 623 
L 679 623 
L 679 619 
" fill="black" />
<path d="
M 790 582 
L 756 595 
L 790 608 
L 787 611 
L 753 598 
L 753 623 
L 747 623 
L 747 599 
L 713 611 
L 710 608 
L 744 595 
L 710 582 
L 713 579 
L 747 591 
L 747 567 
L 753 567 
L 753 591 
L 787 579 
L 790 582 
" fill="black" />
<path d="
" fill="black" />
<path d="
M 841 567 
L 868 567 
L 868 623 
L 841 623 
L 841 567 
" fill="black" />
<path d="
" fill="black" />
<path d="
" fill="black" />
<path d="
M 946 567 
L 973 567 
L 973 623 
L 946 623 
L 946 567 
" fill="black" />
<path d="
" fill="black" />
<path d="
" fill="black" />
<path d="
M 1051 567 
L 1078 567 
L 1078 623 
L 1051 623 
L 1051 567 
" fill="black" />
<path d="
" fill="black" />
<path d="
" fill="black" />
<path d="
M 1156 567 
L 1183 567 
L 1183 623 
L 1156 623 
L 1156 567 
" fill="black" />
<path d="
" fill="black" />
<path d="
" fill="black" />
<path d="
M 1261 567 
L 1288 567 
L 1288 623 
L 1261 623 
L 1261 567 
" fill="black" />
<path d="
" fill="black" />
<path d="
M 1420 582 
L 1386 595 
L 1420 608 
L 1417 611 
L 1383 598 
L 1383 623 
L 1377 623 
L 1377 599 
L 1343 611 
L 1340 608 
L 1374 595 
L 1340 582 
L 1343 579 
L 1377 591 
L 1377 567 
L 1383 567 
L 1383 591 
L 1417 579 
L 1420 582 
" fill="black" />
</svg>
