<svg xmlns="http://www.w3.org/2000/svg"
viewBox="0 0 1435 635">
<path d="
M 120 554 
L 102 554 
L 136 554 
L 120 554 
M 113 554 
L 127 554 
L 170 554 
L 154 554 
L 142 554 
L 98 554 
L 85 554 
L 70 554 
L 113 554 
" fill="#339541" />
<path d="
M 70 553 
L 88 553 
L 88 553 
Q 88 553 , 96 553 
Q 103 553 , 120 553 
Q 137 553 , 145 553 
Q 152 553 , 152 553 
L 152 553 
L 170 553 
L 170 553 
Q 170 553 , 157 553 
Q 145 553 , 120 553 
Q 96 553 , 83 553 
Q 70 553 , 70 553 
L 70 553 
" fill="#D21010" />
<path d="
M 170 552 
L 170 552 
Q 155 552 , 147 552 
Q 139 552 , 129 552 
Q 108 552 , 98 552 
Q 86 552 , 86 552 
Q 86 552 , 98 552 
Q 108 553 , 129 553 
Q 139 553 , 147 552 
Q 155 552 , 170 552 
L 170 553 
Q 159 553 , 149 553 
Q 139 553 , 128 553 
Q 101 553 , 86 552 
Q 70 552 , 70 552 
Q 70 552 , 86 552 
Q 101 552 , 128 552 
Q 139 552 , 149 552 
Q 160 552 , 170 552 
" fill="#545FFF" />
<path d="
M 154 552 
L 154 551 
L 125 551 
L 125 551 
L 170 551 
L 170 552 
Q 159 552 , 148 552 
Q 139 552 , 127 552 
Q 101 552 , 85 552 
Q 70 551 , 70 551 
Q 70 551 , 85 551 
Q 101 551 , 127 551 
Q 138 551 , 147 551 
Q 157 551 , 167 551 
L 167 551 
Q 154 551 , 146 551 
Q 137 551 , 128 551 
Q 107 551 , 96 551 
Q 86 551 , 86 551 
Q 86 551 , 96 552 
Q 107 552 , 128 552 
Q 137 552 , 144 552 
Q 151 552 , 154 552 
" fill="#F5C000" />
<path d="
M 217 554 
L 217 553 
L 203 553 
L 203 553 
L 225 553 
L 225 554 
Q 220 554 , 214 554 
Q 209 554 , 203 554 
Q 190 554 , 183 554 
Q 175 554 , 175 553 
Q 175 553 , 183 552 
Q 190 552 , 203 552 
Q 209 552 , 214 552 
Q 219 552 , 224 552 
L 224 552 
Q 217 552 , 213 552 
Q 209 552 , 204 552 
Q 194 552 , 188 552 
Q 183 553 , 183 553 
Q 183 553 , 188 554 
Q 194 554 , 204 554 
Q 209 554 , 212 554 
Q 216 554 , 217 554 
" fill="#F5C000" />
<path d="
M 225 552 
L 234 552 
L 234 553 
Q 234 554 , 238 554 
Q 241 554 , 250 554 
Q 259 554 , 262 554 
Q 266 554 , 266 553 
L 266 552 
L 275 552 
L 275 553 
Q 275 554 , 269 554 
Q 262 554 , 250 554 
Q 238 554 , 231 554 
Q 225 554 , 225 553 
L 225 552 
" fill="lightgray" />
<path d="
M 200 550 
L 191 551 
L 208 551 
L 200 550 
M 196 549 
L 204 549 
L 225 552 
L 217 552 
L 211 551 
L 189 551 
L 182 552 
L 175 552 
L 196 549 
" fill="#339541" />
<path d="
M 225 549 
L 234 549 
L 234 551 
Q 234 551 , 238 551 
Q 241 552 , 250 552 
Q 259 552 , 262 551 
Q 266 551 , 266 551 
L 266 549 
L 275 549 
L 275 551 
Q 275 551 , 269 552 
Q 262 552 , 250 552 
Q 238 552 , 231 552 
Q 225 551 , 225 551 
L 225 549 
" fill="lightgray" />
<path d="
M 175 543 
L 184 543 
L 184 546 
Q 184 547 , 188 547 
Q 191 548 , 200 548 
Q 209 548 , 212 547 
Q 216 547 , 216 546 
L 216 543 
L 225 543 
L 225 546 
Q 225 547 , 219 548 
Q 212 548 , 200 548 
Q 188 548 , 181 548 
Q 175 547 , 175 546 
L 175 543 
" fill="#D21010" />
<path d="
M 267 548 
L 267 546 
L 253 546 
L 253 546 
L 275 546 
L 275 548 
Q 270 548 , 264 548 
Q 259 548 , 253 548 
Q 240 548 , 233 548 
Q 225 547 , 225 546 
Q 225 544 , 233 544 
Q 240 543 , 253 543 
Q 259 543 , 264 543 
Q 269 543 , 274 543 
L 274 544 
Q 267 544 , 263 544 
Q 259 544 , 254 544 
Q 244 544 , 238 544 
Q 233 545 , 233 546 
Q 233 547 , 238 547 
Q 244 548 , 254 548 
Q 259 548 , 262 548 
Q 266 548 , 267 548 
" fill="lightgray" />
<path d="
M 175 533 
L 184 533 
L 184 539 
Q 184 541 , 188 541 
Q 191 542 , 200 542 
Q 209 542 , 212 541 
Q 216 541 , 216 539 
L 216 533 
L 225 533 
L 225 539 
Q 225 541 , 219 542 
Q 212 543 , 200 543 
Q 188 543 , 181 542 
Q 175 541 , 175 539 
L 175 533 
" fill="#D21010" />
<path d="
M 250 535 
L 241 539 
L 258 539 
L 250 535 
M 246 533 
L 254 533 
L 275 543 
L 267 543 
L 261 540 
L 239 540 
L 232 543 
L 225 543 
L 246 533 
" fill="lightgray" />
<path d="
M 217 522 
L 217 502 
L 203 502 
L 203 494 
L 225 494 
L 225 527 
Q 220 530 , 214 531 
Q 209 533 , 203 533 
Q 190 533 , 183 523 
Q 175 513 , 175 495 
Q 175 478 , 183 468 
Q 190 458 , 203 458 
Q 209 458 , 214 459 
Q 219 461 , 224 464 
L 224 474 
Q 217 469 , 213 468 
Q 209 467 , 204 467 
Q 194 467 , 188 474 
Q 183 481 , 183 495 
Q 183 510 , 188 517 
Q 194 524 , 204 524 
Q 209 524 , 212 524 
Q 216 523 , 217 522 
" fill="#F5C000" />
<path d="
M 275 466 
L 275 477 
Q 268 470 , 264 468 
Q 259 466 , 254 466 
Q 244 466 , 239 474 
Q 233 481 , 233 495 
Q 233 510 , 239 517 
Q 244 525 , 254 525 
Q 259 525 , 264 523 
Q 268 521 , 275 513 
L 275 525 
Q 270 529 , 264 531 
Q 260 533 , 254 533 
Q 240 533 , 233 523 
Q 225 513 , 225 495 
Q 225 478 , 233 468 
Q 240 458 , 254 458 
Q 260 458 , 265 460 
Q 270 462 , 275 466 
" fill="lightgray" />
<path d="
M 225 356 
L 225 374 
Q 218 362 , 214 360 
Q 209 357 , 204 357 
Q 194 357 , 189 368 
Q 183 379 , 183 401 
Q 183 423 , 189 434 
Q 194 446 , 204 446 
Q 209 446 , 214 443 
Q 218 440 , 225 428 
L 225 446 
Q 220 453 , 214 455 
Q 210 458 , 204 458 
Q 190 458 , 183 442 
Q 175 427 , 175 401 
Q 175 375 , 183 360 
Q 190 344 , 204 344 
Q 210 344 , 215 347 
Q 220 350 , 225 356 
" fill="#545FFF" />
<path d="
M 267 442 
L 267 411 
L 253 411 
L 253 398 
L 275 398 
L 275 449 
Q 270 454 , 264 456 
Q 259 458 , 253 458 
Q 240 458 , 233 443 
Q 225 428 , 225 401 
Q 225 374 , 233 359 
Q 240 344 , 253 344 
Q 259 344 , 264 346 
Q 269 348 , 274 353 
L 274 368 
Q 267 361 , 263 359 
Q 259 358 , 254 358 
Q 244 358 , 238 368 
Q 233 379 , 233 401 
Q 233 423 , 238 434 
Q 244 445 , 254 445 
Q 259 445 , 262 444 
Q 266 443 , 267 442 
" fill="lightgray" />
<path d="
M 305 552 
L 296 553 
L 313 553 
L 305 552 
M 301 552 
L 309 552 
L 330 554 
L 322 554 
L 316 554 
L 294 554 
L 287 554 
L 280 554 
L 301 552 
" fill="#339541" />
<path d="
M 330 552 
L 339 552 
L 339 553 
Q 339 554 , 343 554 
Q 346 554 , 355 554 
Q 364 554 , 367 554 
Q 371 554 , 371 553 
L 371 552 
L 380 552 
L 380 553 
Q 380 554 , 374 554 
Q 367 554 , 355 554 
Q 343 554 , 336 554 
Q 330 554 , 330 553 
L 330 552 
" fill="lightgray" />
<path d="
M 330 548 
L 330 549 
Q 323 549 , 319 549 
Q 314 548 , 309 548 
Q 299 548 , 294 549 
Q 288 549 , 288 550 
Q 288 551 , 294 551 
Q 299 551 , 309 551 
Q 314 551 , 319 551 
Q 323 551 , 330 551 
L 330 551 
Q 325 552 , 319 552 
Q 315 552 , 309 552 
Q 295 552 , 288 551 
Q 280 551 , 280 550 
Q 280 549 , 288 549 
Q 295 548 , 309 548 
Q 315 548 , 320 548 
Q 325 548 , 330 548 
" fill="#545FFF" />
<path d="
M 372 551 
L 372 550 
L 358 550 
L 358 550 
L 380 550 
L 380 552 
Q 375 552 , 369 552 
Q 364 552 , 358 552 
Q 345 552 , 338 551 
Q 330 551 , 330 550 
Q 330 549 , 338 549 
Q 345 548 , 358 548 
Q 364 548 , 369 548 
Q 374 548 , 379 548 
L 379 549 
Q 372 549 , 368 549 
Q 364 548 , 359 548 
Q 349 548 , 343 549 
Q 338 549 , 338 550 
Q 338 551 , 343 551 
Q 349 551 , 359 551 
Q 364 551 , 367 551 
Q 371 551 , 372 551 
" fill="lightgray" />
<path d="
M 322 547 
L 322 546 
L 308 546 
L 308 545 
L 330 545 
L 330 547 
Q 325 548 , 319 548 
Q 314 548 , 308 548 
Q 295 548 , 288 547 
Q 280 546 , 280 545 
Q 280 544 , 288 544 
Q 295 543 , 308 543 
Q 314 543 , 319 543 
Q 324 543 , 329 543 
L 329 544 
Q 322 544 , 318 544 
Q 314 544 , 309 544 
Q 299 544 , 293 544 
Q 288 544 , 288 545 
Q 288 546 , 293 547 
Q 299 547 , 309 547 
Q 314 547 , 317 547 
Q 321 547 , 322 547 
" fill="#F5C000" />
<path d="
M 330 543 
L 339 543 
L 339 546 
Q 339 547 , 343 547 
Q 346 547 , 355 547 
Q 364 547 , 367 547 
Q 371 547 , 371 546 
L 371 543 
L 380 543 
L 380 546 
Q 380 547 , 374 547 
Q 367 548 , 355 548 
Q 343 548 , 336 547 
Q 330 547 , 330 546 
L 330 543 
" fill="lightgray" />
<path d="
M 280 537 
L 289 537 
L 289 540 
Q 289 541 , 293 542 
Q 296 542 , 305 542 
Q 314 542 , 317 542 
Q 321 541 , 321 540 
L 321 537 
L 330 537 
L 330 541 
Q 330 542 , 324 542 
Q 317 543 , 305 543 
Q 293 543 , 286 542 
Q 280 542 , 280 541 
L 280 537 
" fill="#D21010" />
<path d="
M 372 542 
L 372 540 
L 358 540 
L 358 540 
L 380 540 
L 380 542 
Q 375 543 , 369 543 
Q 364 543 , 358 543 
Q 345 543 , 338 542 
Q 330 541 , 330 540 
Q 330 539 , 338 538 
Q 345 537 , 358 537 
Q 364 537 , 369 537 
Q 374 537 , 379 537 
L 379 538 
Q 372 538 , 368 538 
Q 364 538 , 359 538 
Q 349 538 , 343 538 
Q 338 539 , 338 540 
Q 338 541 , 343 542 
Q 349 542 , 359 542 
Q 364 542 , 367 542 
Q 371 542 , 372 542 
" fill="lightgray" />
<path d="
M 322 536 
L 322 534 
L 308 534 
L 308 533 
L 330 533 
L 330 536 
Q 325 537 , 319 537 
Q 314 537 , 308 537 
Q 295 537 , 288 536 
Q 280 535 , 280 533 
Q 280 531 , 288 530 
Q 295 529 , 308 529 
Q 314 529 , 319 529 
Q 324 529 , 329 530 
L 329 531 
Q 322 530 , 318 530 
Q 314 530 , 309 530 
Q 299 530 , 293 531 
Q 288 531 , 288 533 
Q 288 534 , 293 535 
Q 299 536 , 309 536 
Q 314 536 , 317 536 
Q 321 536 , 322 536 
" fill="#F5C000" />
<path d="
M 380 530 
L 380 531 
Q 373 530 , 369 530 
Q 364 530 , 359 530 
Q 349 530 , 344 531 
Q 338 531 , 338 532 
Q 338 534 , 344 535 
Q 349 536 , 359 536 
Q 364 536 , 369 536 
Q 373 536 , 380 535 
L 380 536 
Q 375 536 , 369 537 
Q 365 537 , 359 537 
Q 345 537 , 338 536 
Q 330 535 , 330 533 
Q 330 531 , 338 530 
Q 345 529 , 359 529 
Q 365 529 , 370 529 
Q 375 529 , 380 530 
" fill="lightgray" />
<path d="
M 280 516 
L 289 516 
L 289 523 
Q 289 525 , 293 526 
Q 296 527 , 305 527 
Q 314 527 , 317 526 
Q 321 525 , 321 523 
L 321 516 
L 330 516 
L 330 523 
Q 330 526 , 324 527 
Q 317 528 , 305 528 
Q 293 528 , 286 527 
Q 280 526 , 280 523 
L 280 516 
" fill="#D21010" />
<path d="
M 355 518 
L 346 523 
L 363 523 
L 355 518 
M 351 516 
L 359 516 
L 380 528 
L 372 528 
L 366 525 
L 344 525 
L 337 528 
L 330 528 
L 351 516 
" fill="lightgray" />
<path d="
M 485 548 
L 485 549 
Q 470 548 , 462 548 
Q 454 548 , 444 548 
Q 423 548 , 413 549 
Q 401 549 , 401 550 
Q 401 552 , 413 553 
Q 423 554 , 444 554 
Q 454 554 , 462 553 
Q 470 553 , 485 552 
L 485 554 
Q 474 554 , 464 554 
Q 454 554 , 443 554 
Q 416 554 , 401 553 
Q 385 552 , 385 551 
Q 385 549 , 401 548 
Q 416 547 , 443 547 
Q 454 547 , 464 547 
Q 475 547 , 485 548 
" fill="#545FFF" />
<path d="
M 435 539 
L 417 543 
L 451 543 
L 435 539 
M 428 537 
L 442 537 
L 485 547 
L 469 547 
L 457 544 
L 413 544 
L 400 547 
L 385 547 
L 428 537 
" fill="#339541" />
<path d="
M 385 519 
L 403 519 
L 403 529 
Q 403 532 , 411 533 
Q 418 534 , 435 534 
Q 452 534 , 460 533 
Q 467 532 , 467 529 
L 467 519 
L 485 519 
L 485 529 
Q 485 533 , 472 534 
Q 460 536 , 435 536 
Q 411 536 , 398 534 
Q 385 533 , 385 529 
L 385 519 
" fill="#D21010" />
<path d="
M 469 511 
L 469 496 
L 440 496 
L 440 490 
L 485 490 
L 485 515 
Q 474 517 , 463 518 
Q 454 519 , 442 519 
Q 416 519 , 400 511 
Q 385 504 , 385 491 
Q 385 479 , 400 471 
Q 416 464 , 442 464 
Q 453 464 , 462 465 
Q 472 466 , 482 468 
L 482 475 
Q 469 472 , 461 471 
Q 452 471 , 443 471 
Q 422 471 , 411 476 
Q 401 481 , 401 491 
Q 401 502 , 411 507 
Q 422 513 , 443 513 
Q 452 513 , 459 512 
Q 466 512 , 469 511 
" fill="#F5C000" />
<path d="
M 490 552 
L 508 552 
L 508 554 
Q 508 554 , 516 554 
Q 523 554 , 540 554 
Q 557 554 , 565 554 
Q 572 554 , 572 554 
L 572 552 
L 590 552 
L 590 554 
Q 590 554 , 577 554 
Q 565 555 , 540 555 
Q 516 555 , 503 554 
Q 490 554 , 490 554 
L 490 552 
" fill="#D21010" />
<path d="
M 540 549 
L 522 550 
L 556 550 
L 540 549 
M 533 548 
L 547 548 
L 590 551 
L 574 551 
L 562 550 
L 518 550 
L 505 551 
L 490 551 
L 533 548 
" fill="#339541" />
<path d="
M 574 547 
L 574 545 
L 545 545 
L 545 545 
L 590 545 
L 590 547 
Q 579 547 , 568 547 
Q 559 548 , 547 548 
Q 521 548 , 505 547 
Q 490 546 , 490 545 
Q 490 543 , 505 543 
Q 521 542 , 547 542 
Q 558 542 , 567 542 
Q 577 542 , 587 542 
L 587 543 
Q 574 543 , 566 543 
Q 557 543 , 548 543 
Q 527 543 , 516 543 
Q 506 544 , 506 545 
Q 506 546 , 516 546 
Q 527 547 , 548 547 
Q 557 547 , 564 547 
Q 571 547 , 574 547 
" fill="#F5C000" />
<path d="
M 590 536 
L 590 537 
Q 575 536 , 567 536 
Q 559 536 , 549 536 
Q 528 536 , 518 536 
Q 506 537 , 506 538 
Q 506 539 , 518 540 
Q 528 541 , 549 541 
Q 559 541 , 567 540 
Q 575 540 , 590 540 
L 590 541 
Q 579 541 , 569 541 
Q 559 541 , 548 541 
Q 521 541 , 506 540 
Q 490 540 , 490 538 
Q 490 537 , 506 536 
Q 521 535 , 548 535 
Q 559 535 , 569 535 
Q 580 535 , 590 536 
" fill="#545FFF" />
<path d="
M 595 553 
L 613 553 
L 613 554 
Q 613 554 , 621 555 
Q 628 555 , 645 555 
Q 662 555 , 670 555 
Q 677 554 , 677 554 
L 677 553 
L 695 553 
L 695 554 
Q 695 554 , 682 555 
Q 670 555 , 645 555 
Q 621 555 , 608 555 
Q 595 554 , 595 554 
L 595 553 
" fill="#D21010" />
<path d="
M 645 550 
L 627 551 
L 661 551 
L 645 550 
M 638 549 
L 652 549 
L 695 553 
L 679 553 
L 667 552 
L 623 552 
L 610 553 
L 595 553 
L 638 549 
" fill="#339541" />
<path d="
M 679 548 
L 679 547 
L 650 547 
L 650 546 
L 695 546 
L 695 548 
Q 684 548 , 673 548 
Q 664 548 , 652 548 
Q 626 548 , 610 548 
Q 595 547 , 595 546 
Q 595 545 , 610 545 
Q 626 544 , 652 544 
Q 663 544 , 672 544 
Q 682 544 , 692 544 
L 692 545 
Q 679 545 , 671 545 
Q 662 545 , 653 545 
Q 632 545 , 621 545 
Q 611 545 , 611 546 
Q 611 547 , 621 548 
Q 632 548 , 653 548 
Q 662 548 , 669 548 
Q 676 548 , 679 548 
" fill="#F5C000" />
<path d="
M 695 540 
L 695 540 
Q 680 540 , 672 540 
Q 664 540 , 654 540 
Q 633 540 , 623 540 
Q 611 540 , 611 541 
Q 611 542 , 623 543 
Q 633 543 , 654 543 
Q 664 543 , 672 543 
Q 680 543 , 695 543 
L 695 543 
Q 684 544 , 674 544 
Q 664 544 , 653 544 
Q 626 544 , 611 543 
Q 595 543 , 595 541 
Q 595 540 , 611 540 
Q 626 539 , 653 539 
Q 664 539 , 674 539 
Q 685 539 , 695 540 
" fill="#545FFF" />
<path d="
M 750 554 
L 732 554 
L 766 554 
L 750 554 
M 743 554 
L 757 554 
L 800 554 
L 784 554 
L 772 554 
L 728 554 
L 715 554 
L 700 554 
L 743 554 
" fill="#339541" />
<path d="
M 700 553 
L 718 553 
L 718 553 
Q 718 553 , 726 553 
Q 733 553 , 750 553 
Q 767 553 , 775 553 
Q 782 553 , 782 553 
L 782 553 
L 800 553 
L 800 553 
Q 800 553 , 787 553 
Q 775 553 , 750 553 
Q 726 553 , 713 553 
Q 700 553 , 700 553 
L 700 553 
" fill="#D21010" />
<path d="
M 800 552 
L 800 552 
Q 785 552 , 777 552 
Q 769 552 , 759 552 
Q 738 552 , 728 552 
Q 716 552 , 716 552 
Q 716 552 , 728 552 
Q 738 553 , 759 553 
Q 769 553 , 777 552 
Q 785 552 , 800 552 
L 800 553 
Q 789 553 , 779 553 
Q 769 553 , 758 553 
Q 731 553 , 716 552 
Q 700 552 , 700 552 
Q 700 552 , 716 552 
Q 731 552 , 758 552 
Q 769 552 , 779 552 
Q 790 552 , 800 552 
" fill="#545FFF" />
<path d="
M 784 552 
L 784 551 
L 755 551 
L 755 551 
L 800 551 
L 800 552 
Q 789 552 , 778 552 
Q 769 552 , 757 552 
Q 731 552 , 715 552 
Q 700 551 , 700 551 
Q 700 551 , 715 551 
Q 731 551 , 757 551 
Q 768 551 , 777 551 
Q 787 551 , 797 551 
L 797 551 
Q 784 551 , 776 551 
Q 767 551 , 758 551 
Q 737 551 , 726 551 
Q 716 551 , 716 551 
Q 716 551 , 726 552 
Q 737 552 , 758 552 
Q 767 552 , 774 552 
Q 781 552 , 784 552 
" fill="#F5C000" />
<path d="
M 855 548 
L 837 551 
L 871 551 
L 855 548 
M 848 547 
L 862 547 
L 905 555 
L 889 555 
L 877 552 
L 833 552 
L 820 555 
L 805 555 
L 848 547 
" fill="#339541" />
<path d="
M 805 534 
L 823 534 
L 823 541 
Q 823 543 , 831 544 
Q 838 545 , 855 545 
Q 872 545 , 880 544 
Q 887 543 , 887 541 
L 887 534 
L 905 534 
L 905 542 
Q 905 544 , 892 545 
Q 880 546 , 855 546 
Q 831 546 , 818 545 
Q 805 544 , 805 542 
L 805 534 
" fill="#D21010" />
<path d="
M 905 516 
L 905 519 
Q 890 517 , 882 517 
Q 874 516 , 864 516 
Q 843 516 , 833 518 
Q 821 520 , 821 524 
Q 821 528 , 833 530 
Q 843 531 , 864 531 
Q 874 531 , 882 531 
Q 890 530 , 905 529 
L 905 532 
Q 894 533 , 884 533 
Q 874 534 , 863 534 
Q 836 534 , 821 531 
Q 805 528 , 805 524 
Q 805 519 , 821 517 
Q 836 514 , 863 514 
Q 874 514 , 884 514 
Q 895 515 , 905 516 
" fill="#545FFF" />
<path d="
M 889 498 
L 889 471 
L 860 471 
L 860 460 
L 905 460 
L 905 505 
Q 894 510 , 883 511 
Q 874 513 , 862 513 
Q 836 513 , 820 499 
Q 805 486 , 805 462 
Q 805 438 , 820 425 
Q 836 411 , 862 411 
Q 873 411 , 882 413 
Q 892 415 , 902 419 
L 902 432 
Q 889 427 , 881 425 
Q 872 423 , 863 423 
Q 842 423 , 831 433 
Q 821 442 , 821 462 
Q 821 482 , 831 492 
Q 842 502 , 863 502 
Q 872 502 , 879 501 
Q 886 500 , 889 498 
" fill="#F5C000" />
<path d="
M 910 551 
L 928 551 
L 928 553 
Q 928 553 , 936 554 
Q 943 554 , 960 554 
Q 977 554 , 985 554 
Q 992 553 , 992 553 
L 992 551 
L 1010 551 
L 1010 553 
Q 1010 554 , 997 554 
Q 985 554 , 960 554 
Q 936 554 , 923 554 
Q 910 554 , 910 553 
L 910 551 
" fill="#D21010" />
<path d="
M 1010 547 
L 1010 548 
Q 995 548 , 987 548 
Q 979 547 , 969 547 
Q 948 547 , 938 548 
Q 926 548 , 926 549 
Q 926 550 , 938 550 
Q 948 550 , 969 550 
Q 979 550 , 987 550 
Q 995 550 , 1010 550 
L 1010 550 
Q 999 551 , 989 551 
Q 979 551 , 968 551 
Q 941 551 , 926 550 
Q 910 550 , 910 549 
Q 910 548 , 926 548 
Q 941 547 , 968 547 
Q 979 547 , 989 547 
Q 1000 547 , 1010 547 
" fill="#545FFF" />
<path d="
M 994 545 
L 994 544 
L 965 544 
L 965 543 
L 1010 543 
L 1010 546 
Q 999 546 , 988 546 
Q 979 546 , 967 546 
Q 941 546 , 925 545 
Q 910 545 , 910 544 
Q 910 542 , 925 542 
Q 941 541 , 967 541 
Q 978 541 , 987 541 
Q 997 541 , 1007 541 
L 1007 542 
Q 994 542 , 986 542 
Q 977 542 , 968 542 
Q 947 542 , 936 542 
Q 926 543 , 926 544 
Q 926 545 , 936 545 
Q 947 546 , 968 546 
Q 977 546 , 984 546 
Q 991 545 , 994 545 
" fill="#F5C000" />
<path d="
M 960 534 
L 942 537 
L 976 537 
L 960 534 
M 953 532 
L 967 532 
L 1010 540 
L 994 540 
L 982 538 
L 938 538 
L 925 540 
L 910 540 
L 953 532 
" fill="#339541" />
<path d="
M 1040 552 
L 1031 553 
L 1048 553 
L 1040 552 
M 1036 552 
L 1044 552 
L 1065 554 
L 1057 554 
L 1051 554 
L 1029 554 
L 1022 554 
L 1015 554 
L 1036 552 
" fill="lightgray" />
<path d="
M 1065 552 
L 1074 552 
L 1074 553 
Q 1074 554 , 1078 554 
Q 1081 554 , 1090 554 
Q 1099 554 , 1102 554 
Q 1106 554 , 1106 553 
L 1106 552 
L 1115 552 
L 1115 553 
Q 1115 554 , 1109 554 
Q 1102 554 , 1090 554 
Q 1078 554 , 1071 554 
Q 1065 554 , 1065 553 
L 1065 552 
" fill="#D21010" />
<path d="
M 1065 548 
L 1065 549 
Q 1058 549 , 1054 549 
Q 1049 548 , 1044 548 
Q 1034 548 , 1029 549 
Q 1023 549 , 1023 550 
Q 1023 551 , 1029 551 
Q 1034 551 , 1044 551 
Q 1049 551 , 1054 551 
Q 1058 551 , 1065 551 
L 1065 551 
Q 1060 552 , 1054 552 
Q 1050 552 , 1044 552 
Q 1030 552 , 1023 551 
Q 1015 551 , 1015 550 
Q 1015 549 , 1023 549 
Q 1030 548 , 1044 548 
Q 1050 548 , 1055 548 
Q 1060 548 , 1065 548 
" fill="lightgray" />
<path d="
M 1107 551 
L 1107 550 
L 1093 550 
L 1093 550 
L 1115 550 
L 1115 552 
Q 1110 552 , 1104 552 
Q 1099 552 , 1093 552 
Q 1080 552 , 1073 551 
Q 1065 551 , 1065 550 
Q 1065 549 , 1073 549 
Q 1080 548 , 1093 548 
Q 1099 548 , 1104 548 
Q 1109 548 , 1114 548 
L 1114 549 
Q 1107 549 , 1103 549 
Q 1099 548 , 1094 548 
Q 1084 548 , 1078 549 
Q 1073 549 , 1073 550 
Q 1073 551 , 1078 551 
Q 1084 551 , 1094 551 
Q 1099 551 , 1102 551 
Q 1106 551 , 1107 551 
" fill="#F5C000" />
<path d="
M 1057 547 
L 1057 546 
L 1043 546 
L 1043 545 
L 1065 545 
L 1065 547 
Q 1060 548 , 1054 548 
Q 1049 548 , 1043 548 
Q 1030 548 , 1023 547 
Q 1015 546 , 1015 545 
Q 1015 544 , 1023 544 
Q 1030 543 , 1043 543 
Q 1049 543 , 1054 543 
Q 1059 543 , 1064 543 
L 1064 544 
Q 1057 544 , 1053 544 
Q 1049 544 , 1044 544 
Q 1034 544 , 1028 544 
Q 1023 544 , 1023 545 
Q 1023 546 , 1028 547 
Q 1034 547 , 1044 547 
Q 1049 547 , 1052 547 
Q 1056 547 , 1057 547 
" fill="lightgray" />
<path d="
M 1065 543 
L 1074 543 
L 1074 546 
Q 1074 547 , 1078 547 
Q 1081 547 , 1090 547 
Q 1099 547 , 1102 547 
Q 1106 547 , 1106 546 
L 1106 543 
L 1115 543 
L 1115 546 
Q 1115 547 , 1109 547 
Q 1102 548 , 1090 548 
Q 1078 548 , 1071 547 
Q 1065 547 , 1065 546 
L 1065 543 
" fill="#D21010" />
<path d="
M 1015 537 
L 1024 537 
L 1024 540 
Q 1024 541 , 1028 542 
Q 1031 542 , 1040 542 
Q 1049 542 , 1052 542 
Q 1056 541 , 1056 540 
L 1056 537 
L 1065 537 
L 1065 541 
Q 1065 542 , 1059 542 
Q 1052 543 , 1040 543 
Q 1028 543 , 1021 542 
Q 1015 542 , 1015 541 
L 1015 537 
" fill="lightgray" />
<path d="
M 1107 542 
L 1107 540 
L 1093 540 
L 1093 540 
L 1115 540 
L 1115 542 
Q 1110 543 , 1104 543 
Q 1099 543 , 1093 543 
Q 1080 543 , 1073 542 
Q 1065 541 , 1065 540 
Q 1065 539 , 1073 538 
Q 1080 537 , 1093 537 
Q 1099 537 , 1104 537 
Q 1109 537 , 1114 537 
L 1114 538 
Q 1107 538 , 1103 538 
Q 1099 538 , 1094 538 
Q 1084 538 , 1078 538 
Q 1073 539 , 1073 540 
Q 1073 541 , 1078 542 
Q 1084 542 , 1094 542 
Q 1099 542 , 1102 542 
Q 1106 542 , 1107 542 
" fill="#F5C000" />
<path d="
M 1057 536 
L 1057 534 
L 1043 534 
L 1043 533 
L 1065 533 
L 1065 536 
Q 1060 537 , 1054 537 
Q 1049 537 , 1043 537 
Q 1030 537 , 1023 536 
Q 1015 535 , 1015 533 
Q 1015 531 , 1023 530 
Q 1030 529 , 1043 529 
Q 1049 529 , 1054 529 
Q 1059 529 , 1064 530 
L 1064 531 
Q 1057 530 , 1053 530 
Q 1049 530 , 1044 530 
Q 1034 530 , 1028 531 
Q 1023 531 , 1023 533 
Q 1023 534 , 1028 535 
Q 1034 536 , 1044 536 
Q 1049 536 , 1052 536 
Q 1056 536 , 1057 536 
" fill="lightgray" />
<path d="
M 1115 530 
L 1115 531 
Q 1108 530 , 1104 530 
Q 1099 530 , 1094 530 
Q 1084 530 , 1079 531 
Q 1073 531 , 1073 532 
Q 1073 534 , 1079 535 
Q 1084 536 , 1094 536 
Q 1099 536 , 1104 536 
Q 1108 536 , 1115 535 
L 1115 536 
Q 1110 536 , 1104 537 
Q 1100 537 , 1094 537 
Q 1080 537 , 1073 536 
Q 1065 535 , 1065 533 
Q 1065 531 , 1073 530 
Q 1080 529 , 1094 529 
Q 1100 529 , 1105 529 
Q 1110 529 , 1115 530 
" fill="#545FFF" />
<path d="
M 1015 516 
L 1024 516 
L 1024 523 
Q 1024 525 , 1028 526 
Q 1031 527 , 1040 527 
Q 1049 527 , 1052 526 
Q 1056 525 , 1056 523 
L 1056 516 
L 1065 516 
L 1065 523 
Q 1065 526 , 1059 527 
Q 1052 528 , 1040 528 
Q 1028 528 , 1021 527 
Q 1015 526 , 1015 523 
L 1015 516 
" fill="lightgray" />
<path d="
M 1090 518 
L 1081 523 
L 1098 523 
L 1090 518 
M 1086 516 
L 1094 516 
L 1115 528 
L 1107 528 
L 1101 525 
L 1079 525 
L 1072 528 
L 1065 528 
L 1086 516 
" fill="#339541" />
<path d="
M 1162 554 
L 1162 553 
L 1148 553 
L 1148 553 
L 1170 553 
L 1170 554 
Q 1165 554 , 1159 554 
Q 1154 554 , 1148 554 
Q 1135 554 , 1128 554 
Q 1120 554 , 1120 553 
Q 1120 553 , 1128 552 
Q 1135 552 , 1148 552 
Q 1154 552 , 1159 552 
Q 1164 552 , 1169 552 
L 1169 552 
Q 1162 552 , 1158 552 
Q 1154 552 , 1149 552 
Q 1139 552 , 1133 552 
Q 1128 553 , 1128 553 
Q 1128 553 , 1133 554 
Q 1139 554 , 1149 554 
Q 1154 554 , 1157 554 
Q 1161 554 , 1162 554 
" fill="lightgray" />
<path d="
M 1170 552 
L 1179 552 
L 1179 553 
Q 1179 554 , 1183 554 
Q 1186 554 , 1195 554 
Q 1204 554 , 1207 554 
Q 1211 554 , 1211 553 
L 1211 552 
L 1220 552 
L 1220 553 
Q 1220 554 , 1214 554 
Q 1207 554 , 1195 554 
Q 1183 554 , 1176 554 
Q 1170 554 , 1170 553 
L 1170 552 
" fill="#D21010" />
<path d="
M 1145 550 
L 1136 551 
L 1153 551 
L 1145 550 
M 1141 549 
L 1149 549 
L 1170 552 
L 1162 552 
L 1156 551 
L 1134 551 
L 1127 552 
L 1120 552 
L 1141 549 
" fill="lightgray" />
<path d="
M 1170 549 
L 1179 549 
L 1179 551 
Q 1179 551 , 1183 551 
Q 1186 552 , 1195 552 
Q 1204 552 , 1207 551 
Q 1211 551 , 1211 551 
L 1211 549 
L 1220 549 
L 1220 551 
Q 1220 551 , 1214 552 
Q 1207 552 , 1195 552 
Q 1183 552 , 1176 552 
Q 1170 551 , 1170 551 
L 1170 549 
" fill="#D21010" />
<path d="
M 1120 543 
L 1129 543 
L 1129 546 
Q 1129 547 , 1133 547 
Q 1136 548 , 1145 548 
Q 1154 548 , 1157 547 
Q 1161 547 , 1161 546 
L 1161 543 
L 1170 543 
L 1170 546 
Q 1170 547 , 1164 548 
Q 1157 548 , 1145 548 
Q 1133 548 , 1126 548 
Q 1120 547 , 1120 546 
L 1120 543 
" fill="lightgray" />
<path d="
M 1212 548 
L 1212 546 
L 1198 546 
L 1198 546 
L 1220 546 
L 1220 548 
Q 1215 548 , 1209 548 
Q 1204 548 , 1198 548 
Q 1185 548 , 1178 548 
Q 1170 547 , 1170 546 
Q 1170 544 , 1178 544 
Q 1185 543 , 1198 543 
Q 1204 543 , 1209 543 
Q 1214 543 , 1219 543 
L 1219 544 
Q 1212 544 , 1208 544 
Q 1204 544 , 1199 544 
Q 1189 544 , 1183 544 
Q 1178 545 , 1178 546 
Q 1178 547 , 1183 547 
Q 1189 548 , 1199 548 
Q 1204 548 , 1207 548 
Q 1211 548 , 1212 548 
" fill="#F5C000" />
<path d="
M 1120 533 
L 1129 533 
L 1129 539 
Q 1129 541 , 1133 541 
Q 1136 542 , 1145 542 
Q 1154 542 , 1157 541 
Q 1161 541 , 1161 539 
L 1161 533 
L 1170 533 
L 1170 539 
Q 1170 541 , 1164 542 
Q 1157 543 , 1145 543 
Q 1133 543 , 1126 542 
Q 1120 541 , 1120 539 
L 1120 533 
" fill="lightgray" />
<path d="
M 1195 535 
L 1186 539 
L 1203 539 
L 1195 535 
M 1191 533 
L 1199 533 
L 1220 543 
L 1212 543 
L 1206 540 
L 1184 540 
L 1177 543 
L 1170 543 
L 1191 533 
" fill="#339541" />
<path d="
M 1162 522 
L 1162 502 
L 1148 502 
L 1148 494 
L 1170 494 
L 1170 527 
Q 1165 530 , 1159 531 
Q 1154 533 , 1148 533 
Q 1135 533 , 1128 523 
Q 1120 513 , 1120 495 
Q 1120 478 , 1128 468 
Q 1135 458 , 1148 458 
Q 1154 458 , 1159 459 
Q 1164 461 , 1169 464 
L 1169 474 
Q 1162 469 , 1158 468 
Q 1154 467 , 1149 467 
Q 1139 467 , 1133 474 
Q 1128 481 , 1128 495 
Q 1128 510 , 1133 517 
Q 1139 524 , 1149 524 
Q 1154 524 , 1157 524 
Q 1161 523 , 1162 522 
" fill="lightgray" />
<path d="
M 1220 466 
L 1220 477 
Q 1213 470 , 1209 468 
Q 1204 466 , 1199 466 
Q 1189 466 , 1184 474 
Q 1178 481 , 1178 495 
Q 1178 510 , 1184 517 
Q 1189 525 , 1199 525 
Q 1204 525 , 1209 523 
Q 1213 521 , 1220 513 
L 1220 525 
Q 1215 529 , 1209 531 
Q 1205 533 , 1199 533 
Q 1185 533 , 1178 523 
Q 1170 513 , 1170 495 
Q 1170 478 , 1178 468 
Q 1185 458 , 1199 458 
Q 1205 458 , 1210 460 
Q 1215 462 , 1220 466 
" fill="#545FFF" />
<path d="
M 1170 356 
L 1170 374 
Q 1163 362 , 1159 360 
Q 1154 357 , 1149 357 
Q 1139 357 , 1134 368 
Q 1128 379 , 1128 401 
Q 1128 423 , 1134 434 
Q 1139 446 , 1149 446 
Q 1154 446 , 1159 443 
Q 1163 440 , 1170 428 
L 1170 446 
Q 1165 453 , 1159 455 
Q 1155 458 , 1149 458 
Q 1135 458 , 1128 442 
Q 1120 427 , 1120 401 
Q 1120 375 , 1128 360 
Q 1135 344 , 1149 344 
Q 1155 344 , 1160 347 
Q 1165 350 , 1170 356 
" fill="lightgray" />
<path d="
M 1212 442 
L 1212 411 
L 1198 411 
L 1198 398 
L 1220 398 
L 1220 449 
Q 1215 454 , 1209 456 
Q 1204 458 , 1198 458 
Q 1185 458 , 1178 443 
Q 1170 428 , 1170 401 
Q 1170 374 , 1178 359 
Q 1185 344 , 1198 344 
Q 1204 344 , 1209 346 
Q 1214 348 , 1219 353 
L 1219 368 
Q 1212 361 , 1208 359 
Q 1204 358 , 1199 358 
Q 1189 358 , 1183 368 
Q 1178 379 , 1178 401 
Q 1178 423 , 1183 434 
Q 1189 445 , 1199 445 
Q 1204 445 , 1207 444 
Q 1211 443 , 1212 442 
" fill="#F5C000" />
<path d="
M 1309 554 
L 1309 553 
L 1280 553 
L 1280 552 
L 1325 552 
L 1325 554 
Q 1314 554 , 1303 554 
Q 1294 554 , 1282 554 
Q 1256 554 , 1240 554 
Q 1225 553 , 1225 552 
Q 1225 551 , 1240 551 
Q 1256 550 , 1282 550 
Q 1293 550 , 1302 550 
Q 1312 550 , 1322 550 
L 1322 551 
Q 1309 551 , 1301 551 
Q 1292 551 , 1283 551 
Q 1262 551 , 1251 551 
Q 1241 551 , 1241 552 
Q 1241 553 , 1251 553 
Q 1262 554 , 1283 554 
Q 1292 554 , 1299 554 
Q 1306 554 , 1309 554 
" fill="#F5C000" />
<path d="
M 1225 543 
L 1243 543 
L 1243 547 
Q 1243 548 , 1251 548 
Q 1258 549 , 1275 549 
Q 1292 549 , 1300 548 
Q 1307 548 , 1307 547 
L 1307 543 
L 1325 543 
L 1325 547 
Q 1325 548 , 1312 549 
Q 1300 549 , 1275 549 
Q 1251 549 , 1238 549 
Q 1225 548 , 1225 547 
L 1225 543 
" fill="#D21010" />
<path d="
M 1325 528 
L 1325 530 
Q 1310 529 , 1302 528 
Q 1294 528 , 1284 528 
Q 1263 528 , 1253 529 
Q 1241 531 , 1241 534 
Q 1241 537 , 1253 539 
Q 1263 541 , 1284 541 
Q 1294 541 , 1302 540 
Q 1310 540 , 1325 538 
L 1325 541 
Q 1314 542 , 1304 542 
Q 1294 542 , 1283 542 
Q 1256 542 , 1241 540 
Q 1225 538 , 1225 534 
Q 1225 530 , 1241 528 
Q 1256 526 , 1283 526 
Q 1294 526 , 1304 526 
Q 1315 527 , 1325 528 
" fill="#545FFF" />
<path d="
M 1275 509 
L 1257 517 
L 1291 517 
L 1275 509 
M 1268 505 
L 1282 505 
L 1325 526 
L 1309 526 
L 1297 520 
L 1253 520 
L 1240 526 
L 1225 526 
L 1268 505 
" fill="#339541" />
<path d="
M 1380 554 
L 1362 554 
L 1396 554 
L 1380 554 
M 1373 554 
L 1387 554 
L 1430 554 
L 1414 554 
L 1402 554 
L 1358 554 
L 1345 554 
L 1330 554 
L 1373 554 
" fill="#339541" />
<path d="
M 1330 553 
L 1348 553 
L 1348 553 
Q 1348 553 , 1356 553 
Q 1363 553 , 1380 553 
Q 1397 553 , 1405 553 
Q 1412 553 , 1412 553 
L 1412 553 
L 1430 553 
L 1430 553 
Q 1430 553 , 1417 553 
Q 1405 553 , 1380 553 
Q 1356 553 , 1343 553 
Q 1330 553 , 1330 553 
L 1330 553 
" fill="#D21010" />
<path d="
M 1430 552 
L 1430 552 
Q 1415 552 , 1407 552 
Q 1399 552 , 1389 552 
Q 1368 552 , 1358 552 
Q 1346 552 , 1346 552 
Q 1346 552 , 1358 552 
Q 1368 553 , 1389 553 
Q 1399 553 , 1407 552 
Q 1415 552 , 1430 552 
L 1430 553 
Q 1419 553 , 1409 553 
Q 1399 553 , 1388 553 
Q 1361 553 , 1346 552 
Q 1330 552 , 1330 552 
Q 1330 552 , 1346 552 
Q 1361 552 , 1388 552 
Q 1399 552 , 1409 552 
Q 1420 552 , 1430 552 
" fill="#545FFF" />
<path d="
M 1414 552 
L 1414 551 
L 1385 551 
L 1385 551 
L 1430 551 
L 1430 552 
Q 1419 552 , 1408 552 
Q 1399 552 , 1387 552 
Q 1361 552 , 1345 552 
Q 1330 551 , 1330 551 
Q 1330 551 , 1345 551 
Q 1361 551 , 1387 551 
Q 1398 551 , 1407 551 
Q 1417 551 , 1427 551 
L 1427 551 
Q 1414 551 , 1406 551 
Q 1397 551 , 1388 551 
Q 1367 551 , 1356 551 
Q 1346 551 , 1346 551 
Q 1346 551 , 1356 552 
Q 1367 552 , 1388 552 
Q 1397 552 , 1404 552 
Q 1411 552 , 1414 552 
" fill="#F5C000" />
<path d="M 65 168 L 65 555 " stroke="black" stroke-width="1.5"/>
<path d="M 55 555 L 65 555 " stroke="black" stroke-width="4"/>
<text text-anchor="end" x="50" y="555" font-size="50" alignment-baseline="middle">0</text>
<path d="M 55 362 L 65 362 " stroke="black" stroke-width="4"/>
<text text-anchor="end" x="50" y="362" font-size="50" alignment-baseline="middle">1</text>
<path d="M 55 168 L 65 168 " stroke="black" stroke-width="4"/>
<text text-anchor="end" x="50" y="168" font-size="50" alignment-baseline="middle">2</text>
<text text-anchor="middle" x="750" y="50" font-size="50" alignment-baseline="baseline"></text>
G<path d="
M 160 582 
L 126 595 
L 160 608 
L 157 611 
L 123 598 
L 123 623 
L 117 623 
L 117 599 
L 83 611 
L 80 608 
L 114 595 
L 80 582 
L 83 579 
L 117 591 
L 117 567 
L 123 567 
L 123 591 
L 157 579 
L 160 582 
" fill="black" />
<path d="
M 265 567 
Q 236 574 , 223 581 
Q 210 588 , 210 595 
Q 210 602 , 223 609 
Q 236 616 , 265 623 
L 241 623 
Q 213 616 , 199 609 
Q 185 602 , 185 595 
Q 185 588 , 199 581 
Q 213 574 , 241 567 
L 265 567 
" fill="black" />
<path d="
M 370 567 
Q 341 574 , 328 581 
Q 315 588 , 315 595 
Q 315 602 , 328 609 
Q 341 616 , 370 623 
L 346 623 
Q 318 616 , 304 609 
Q 290 602 , 290 595 
Q 290 588 , 304 581 
Q 318 574 , 346 567 
L 370 567 
" fill="black" />
<path d="
" fill="black" />
<path d="
M 421 567 
L 448 567 
L 448 623 
L 421 623 
L 421 567 
" fill="black" />
<path d="
" fill="black" />
<path d="
" fill="black" />
<path d="
M 526 567 
L 553 567 
L 553 623 
L 526 623 
L 526 567 
" fill="black" />
<path d="
" fill="black" />
<path d="
" fill="black" />
<path d="
M 622 567 
L 642 567 
L 642 623 
L 622 623 
L 622 567 
" fill="black" />
<path d="
" fill="black" />
<path d="
M 673 567 
L 690 567 
L 690 571 
L 676 571 
L 676 588 
Q 677 588 , 678 587 
Q 679 587 , 681 587 
Q 686 587 , 689 592 
Q 692 596 , 692 604 
Q 692 613 , 689 618 
Q 686 623 , 680 623 
Q 678 623 , 676 623 
Q 674 622 , 672 621 
L 672 616 
Q 674 618 , 676 618 
Q 678 619 , 680 619 
Q 684 619 , 686 615 
Q 689 611 , 689 604 
Q 689 598 , 687 594 
Q 684 591 , 680 591 
Q 679 591 , 677 591 
Q 676 592 , 673 594 
L 673 567 
" fill="black" />
<path d="
M 790 582 
L 756 595 
L 790 608 
L 787 611 
L 753 598 
L 753 623 
L 747 623 
L 747 599 
L 713 611 
L 710 608 
L 744 595 
L 710 582 
L 713 579 
L 747 591 
L 747 567 
L 753 567 
L 753 591 
L 787 579 
L 790 582 
" fill="black" />
<path d="
" fill="black" />
<path d="
M 841 567 
L 868 567 
L 868 623 
L 841 623 
L 841 567 
" fill="black" />
<path d="
" fill="black" />
<path d="
" fill="black" />
<path d="
M 946 567 
L 973 567 
L 973 623 
L 946 623 
L 946 567 
" fill="black" />
<path d="
" fill="black" />
<path d="
M 1025 567 
L 1049 567 
Q 1077 574 , 1091 581 
Q 1105 588 , 1105 595 
Q 1105 602 , 1091 609 
Q 1077 616 , 1049 623 
L 1025 623 
Q 1054 616 , 1067 609 
Q 1080 602 , 1080 595 
Q 1080 588 , 1067 581 
Q 1054 574 , 1025 567 
" fill="black" />
<path d="
M 1130 567 
L 1154 567 
Q 1182 574 , 1196 581 
Q 1210 588 , 1210 595 
Q 1210 602 , 1196 609 
Q 1182 616 , 1154 623 
L 1130 623 
Q 1159 616 , 1172 609 
Q 1185 602 , 1185 595 
Q 1185 588 , 1172 581 
Q 1159 574 , 1130 567 
" fill="black" />
<path d="
" fill="black" />
<path d="
M 1261 567 
L 1288 567 
L 1288 623 
L 1261 623 
L 1261 567 
" fill="black" />
<path d="
" fill="black" />
<path d="
M 1420 582 
L 1386 595 
L 1420 608 
L 1417 611 
L 1383 598 
L 1383 623 
L 1377 623 
L 1377 599 
L 1343 611 
L 1340 608 
L 1374 595 
L 1340 582 
L 1343 579 
L 1377 591 
L 1377 567 
L 1383 567 
L 1383 591 
L 1417 579 
L 1420 582 
" fill="black" />
</svg>
