<svg xmlns="http://www.w3.org/2000/svg"
viewBox="0 0 1435 635">
<path d="
M 120 554 
L 102 554 
L 136 554 
L 120 554 
M 113 554 
L 127 554 
L 170 554 
L 154 554 
L 142 554 
L 98 554 
L 85 554 
L 70 554 
L 113 554 
" fill="#339541" />
<path d="
M 170 553 
L 170 553 
Q 155 553 , 147 553 
Q 139 553 , 129 553 
Q 108 553 , 98 553 
Q 86 553 , 86 553 
Q 86 553 , 98 553 
Q 108 553 , 129 553 
Q 139 553 , 147 553 
Q 155 553 , 170 553 
L 170 553 
Q 159 553 , 149 553 
Q 139 553 , 128 553 
Q 101 553 , 86 553 
Q 70 553 , 70 553 
Q 70 553 , 86 553 
Q 101 553 , 128 553 
Q 139 553 , 149 553 
Q 160 553 , 170 553 
" fill="#545FFF" />
<path d="
M 70 552 
L 88 552 
L 88 552 
Q 88 552 , 96 552 
Q 103 552 , 120 552 
Q 137 552 , 145 552 
Q 152 552 , 152 552 
L 152 552 
L 170 552 
L 170 552 
Q 170 552 , 157 552 
Q 145 552 , 120 552 
Q 96 552 , 83 552 
Q 70 552 , 70 552 
L 70 552 
" fill="#D21010" />
<path d="
M 154 551 
L 154 551 
L 125 551 
L 125 551 
L 170 551 
L 170 551 
Q 159 551 , 148 551 
Q 139 551 , 127 551 
Q 101 551 , 85 551 
Q 70 551 , 70 551 
Q 70 551 , 85 551 
Q 101 551 , 127 551 
Q 138 551 , 147 551 
Q 157 551 , 167 551 
L 167 551 
Q 154 551 , 146 551 
Q 137 551 , 128 551 
Q 107 551 , 96 551 
Q 86 551 , 86 551 
Q 86 551 , 96 551 
Q 107 551 , 128 551 
Q 137 551 , 144 551 
Q 151 551 , 154 551 
" fill="#F5C000" />
<path d="
M 259 553 
L 259 552 
L 230 552 
L 230 551 
L 275 551 
L 275 554 
Q 264 554 , 253 554 
Q 244 554 , 232 554 
Q 206 554 , 190 553 
Q 175 553 , 175 552 
Q 175 550 , 190 550 
Q 206 549 , 232 549 
Q 243 549 , 252 549 
Q 262 549 , 272 549 
L 272 550 
Q 259 550 , 251 550 
Q 242 550 , 233 550 
Q 212 550 , 201 550 
Q 191 551 , 191 552 
Q 191 553 , 201 553 
Q 212 554 , 233 554 
Q 242 554 , 249 553 
Q 256 553 , 259 553 
" fill="#F5C000" />
<path d="
M 225 542 
L 207 545 
L 241 545 
L 225 542 
M 218 541 
L 232 541 
L 275 548 
L 259 548 
L 247 546 
L 203 546 
L 190 548 
L 175 548 
L 218 541 
" fill="#339541" />
<path d="
M 175 529 
L 193 529 
L 193 536 
Q 193 538 , 201 539 
Q 208 540 , 225 540 
Q 242 540 , 250 539 
Q 257 538 , 257 536 
L 257 529 
L 275 529 
L 275 536 
Q 275 539 , 262 540 
Q 250 541 , 225 541 
Q 201 541 , 188 540 
Q 175 539 , 175 536 
L 175 529 
" fill="#D21010" />
<path d="
M 275 507 
L 275 510 
Q 260 508 , 252 507 
Q 244 507 , 234 507 
Q 213 507 , 203 509 
Q 191 512 , 191 516 
Q 191 521 , 203 523 
Q 213 526 , 234 526 
Q 244 526 , 252 525 
Q 260 525 , 275 522 
L 275 526 
Q 264 527 , 254 528 
Q 244 528 , 233 528 
Q 206 528 , 191 525 
Q 175 522 , 175 516 
Q 175 511 , 191 507 
Q 206 504 , 233 504 
Q 244 504 , 254 505 
Q 265 505 , 275 507 
" fill="#545FFF" />
<path d="
M 280 552 
L 289 552 
L 289 554 
Q 289 554 , 293 554 
Q 296 554 , 305 554 
Q 314 554 , 317 554 
Q 321 554 , 321 554 
L 321 552 
L 330 552 
L 330 554 
Q 330 554 , 324 554 
Q 317 555 , 305 555 
Q 293 555 , 286 554 
Q 280 554 , 280 554 
L 280 552 
" fill="#D21010" />
<path d="
M 355 552 
L 346 554 
L 363 554 
L 355 552 
M 351 552 
L 359 552 
L 380 555 
L 372 555 
L 366 554 
L 344 554 
L 337 555 
L 330 555 
L 351 552 
" fill="lightgray" />
<path d="
M 330 548 
L 330 549 
Q 323 549 , 319 548 
Q 314 548 , 309 548 
Q 299 548 , 294 549 
Q 288 549 , 288 549 
Q 288 550 , 294 551 
Q 299 551 , 309 551 
Q 314 551 , 319 551 
Q 323 551 , 330 551 
L 330 551 
Q 325 551 , 319 551 
Q 315 551 , 309 551 
Q 295 551 , 288 551 
Q 280 550 , 280 550 
Q 280 549 , 288 548 
Q 295 548 , 309 548 
Q 315 548 , 320 548 
Q 325 548 , 330 548 
" fill="#545FFF" />
<path d="
M 372 551 
L 372 550 
L 358 550 
L 358 550 
L 380 550 
L 380 551 
Q 375 551 , 369 551 
Q 364 551 , 358 551 
Q 345 551 , 338 551 
Q 330 550 , 330 550 
Q 330 549 , 338 548 
Q 345 548 , 358 548 
Q 364 548 , 369 548 
Q 374 548 , 379 548 
L 379 549 
Q 372 549 , 368 548 
Q 364 548 , 359 548 
Q 349 548 , 343 549 
Q 338 549 , 338 550 
Q 338 550 , 343 551 
Q 349 551 , 359 551 
Q 364 551 , 367 551 
Q 371 551 , 372 551 
" fill="lightgray" />
<path d="
M 280 541 
L 289 541 
L 289 545 
Q 289 546 , 293 546 
Q 296 547 , 305 547 
Q 314 547 , 317 546 
Q 321 546 , 321 545 
L 321 541 
L 330 541 
L 330 545 
Q 330 546 , 324 547 
Q 317 547 , 305 547 
Q 293 547 , 286 547 
Q 280 546 , 280 545 
L 280 541 
" fill="#D21010" />
<path d="
M 372 546 
L 372 545 
L 358 545 
L 358 544 
L 380 544 
L 380 547 
Q 375 547 , 369 547 
Q 364 547 , 358 547 
Q 345 547 , 338 546 
Q 330 546 , 330 544 
Q 330 543 , 338 542 
Q 345 541 , 358 541 
Q 364 541 , 369 541 
Q 374 541 , 379 542 
L 379 542 
Q 372 542 , 368 542 
Q 364 542 , 359 542 
Q 349 542 , 343 542 
Q 338 543 , 338 544 
Q 338 545 , 343 546 
Q 349 547 , 359 547 
Q 364 547 , 367 547 
Q 371 546 , 372 546 
" fill="lightgray" />
<path d="
M 322 540 
L 322 537 
L 308 537 
L 308 536 
L 330 536 
L 330 540 
Q 325 540 , 319 541 
Q 314 541 , 308 541 
Q 295 541 , 288 540 
Q 280 538 , 280 536 
Q 280 534 , 288 533 
Q 295 532 , 308 532 
Q 314 532 , 319 532 
Q 324 532 , 329 533 
L 329 534 
Q 322 533 , 318 533 
Q 314 533 , 309 533 
Q 299 533 , 293 534 
Q 288 535 , 288 536 
Q 288 538 , 293 539 
Q 299 540 , 309 540 
Q 314 540 , 317 540 
Q 321 540 , 322 540 
" fill="#F5C000" />
<path d="
M 330 532 
L 339 532 
L 339 537 
Q 339 539 , 343 539 
Q 346 540 , 355 540 
Q 364 540 , 367 539 
Q 371 539 , 371 537 
L 371 532 
L 380 532 
L 380 537 
Q 380 539 , 374 540 
Q 367 541 , 355 541 
Q 343 541 , 336 540 
Q 330 539 , 330 537 
L 330 532 
" fill="lightgray" />
<path d="
M 305 524 
L 296 528 
L 313 528 
L 305 524 
M 301 522 
L 309 522 
L 330 531 
L 322 531 
L 316 529 
L 294 529 
L 287 531 
L 280 531 
L 301 522 
" fill="#339541" />
<path d="
M 330 522 
L 339 522 
L 339 528 
Q 339 529 , 343 530 
Q 346 530 , 355 530 
Q 364 530 , 367 530 
Q 371 529 , 371 528 
L 371 522 
L 380 522 
L 380 528 
Q 380 530 , 374 531 
Q 367 531 , 355 531 
Q 343 531 , 336 531 
Q 330 530 , 330 528 
L 330 522 
" fill="lightgray" />
<path d="
M 322 519 
L 322 515 
L 308 515 
L 308 513 
L 330 513 
L 330 520 
Q 325 521 , 319 521 
Q 314 521 , 308 522 
Q 295 522 , 288 519 
Q 280 517 , 280 513 
Q 280 509 , 288 507 
Q 295 505 , 308 505 
Q 314 505 , 319 505 
Q 324 506 , 329 506 
L 329 508 
Q 322 508 , 318 507 
Q 314 507 , 309 507 
Q 299 507 , 293 509 
Q 288 510 , 288 513 
Q 288 517 , 293 518 
Q 299 520 , 309 520 
Q 314 520 , 317 520 
Q 321 519 , 322 519 
" fill="#F5C000" />
<path d="
M 380 507 
L 380 509 
Q 373 508 , 369 507 
Q 364 507 , 359 507 
Q 349 507 , 344 508 
Q 338 510 , 338 513 
Q 338 516 , 344 518 
Q 349 520 , 359 520 
Q 364 520 , 369 519 
Q 373 519 , 380 517 
L 380 520 
Q 375 521 , 369 521 
Q 365 522 , 359 522 
Q 345 522 , 338 519 
Q 330 517 , 330 513 
Q 330 509 , 338 507 
Q 345 505 , 359 505 
Q 365 505 , 370 505 
Q 375 506 , 380 507 
" fill="lightgray" />
<path d="
M 435 551 
L 417 553 
L 451 553 
L 435 551 
M 428 550 
L 442 550 
L 485 555 
L 469 555 
L 457 553 
L 413 553 
L 400 555 
L 385 555 
L 428 550 
" fill="#339541" />
<path d="
M 485 541 
L 485 542 
Q 470 541 , 462 541 
Q 454 541 , 444 541 
Q 423 541 , 413 542 
Q 401 543 , 401 544 
Q 401 546 , 413 547 
Q 423 548 , 444 548 
Q 454 548 , 462 548 
Q 470 548 , 485 547 
L 485 548 
Q 474 549 , 464 549 
Q 454 549 , 443 549 
Q 416 549 , 401 548 
Q 385 547 , 385 545 
Q 385 543 , 401 541 
Q 416 540 , 443 540 
Q 454 540 , 464 540 
Q 475 540 , 485 541 
" fill="#545FFF" />
<path d="
M 385 513 
L 403 513 
L 403 529 
Q 403 533 , 411 535 
Q 418 537 , 435 537 
Q 452 537 , 460 535 
Q 467 533 , 467 529 
L 467 513 
L 485 513 
L 485 529 
Q 485 535 , 472 537 
Q 460 540 , 435 540 
Q 411 540 , 398 537 
Q 385 535 , 385 529 
L 385 513 
" fill="#D21010" />
<path d="
M 469 503 
L 469 487 
L 440 487 
L 440 480 
L 485 480 
L 485 507 
Q 474 510 , 463 511 
Q 454 512 , 442 512 
Q 416 512 , 400 504 
Q 385 496 , 385 481 
Q 385 467 , 400 458 
Q 416 450 , 442 450 
Q 453 450 , 462 451 
Q 472 452 , 482 455 
L 482 463 
Q 469 459 , 461 458 
Q 452 457 , 443 457 
Q 422 457 , 411 463 
Q 401 469 , 401 481 
Q 401 493 , 411 499 
Q 422 505 , 443 505 
Q 452 505 , 459 505 
Q 466 504 , 469 503 
" fill="#F5C000" />
<path d="
M 590 552 
L 590 553 
Q 575 552 , 567 552 
Q 559 552 , 549 552 
Q 528 552 , 518 553 
Q 506 553 , 506 553 
Q 506 554 , 518 554 
Q 528 554 , 549 554 
Q 559 554 , 567 554 
Q 575 554 , 590 554 
L 590 554 
Q 579 555 , 569 555 
Q 559 555 , 548 555 
Q 521 555 , 506 554 
Q 490 554 , 490 553 
Q 490 553 , 506 552 
Q 521 552 , 548 552 
Q 559 552 , 569 552 
Q 580 552 , 590 552 
" fill="#545FFF" />
<path d="
M 490 549 
L 508 549 
L 508 551 
Q 508 551 , 516 551 
Q 523 552 , 540 552 
Q 557 552 , 565 551 
Q 572 551 , 572 551 
L 572 549 
L 590 549 
L 590 551 
Q 590 551 , 577 552 
Q 565 552 , 540 552 
Q 516 552 , 503 552 
Q 490 551 , 490 551 
L 490 549 
" fill="#D21010" />
<path d="
M 540 544 
L 522 546 
L 556 546 
L 540 544 
M 533 543 
L 547 543 
L 590 548 
L 574 548 
L 562 547 
L 518 547 
L 505 548 
L 490 548 
L 533 543 
" fill="#339541" />
<path d="
M 574 541 
L 574 540 
L 545 540 
L 545 539 
L 590 539 
L 590 542 
Q 579 542 , 568 542 
Q 559 542 , 547 542 
Q 521 542 , 505 541 
Q 490 541 , 490 539 
Q 490 538 , 505 537 
Q 521 536 , 547 536 
Q 558 536 , 567 536 
Q 577 536 , 587 537 
L 587 537 
Q 574 537 , 566 537 
Q 557 537 , 548 537 
Q 527 537 , 516 537 
Q 506 538 , 506 539 
Q 506 540 , 516 541 
Q 527 542 , 548 542 
Q 557 542 , 564 541 
Q 571 541 , 574 541 
" fill="#F5C000" />
<path d="
M 645 552 
L 627 553 
L 661 553 
L 645 552 
M 638 551 
L 652 551 
L 695 555 
L 679 555 
L 667 554 
L 623 554 
L 610 555 
L 595 555 
L 638 551 
" fill="#339541" />
<path d="
M 695 547 
L 695 547 
Q 680 547 , 672 547 
Q 664 547 , 654 547 
Q 633 547 , 623 547 
Q 611 547 , 611 548 
Q 611 549 , 623 550 
Q 633 550 , 654 550 
Q 664 550 , 672 550 
Q 680 550 , 695 550 
L 695 550 
Q 684 551 , 674 551 
Q 664 551 , 653 551 
Q 626 551 , 611 550 
Q 595 550 , 595 548 
Q 595 547 , 611 547 
Q 626 546 , 653 546 
Q 664 546 , 674 546 
Q 685 546 , 695 547 
" fill="#545FFF" />
<path d="
M 595 538 
L 613 538 
L 613 543 
Q 613 544 , 621 544 
Q 628 545 , 645 545 
Q 662 545 , 670 544 
Q 677 544 , 677 543 
L 677 538 
L 695 538 
L 695 543 
Q 695 544 , 682 545 
Q 670 546 , 645 546 
Q 621 546 , 608 545 
Q 595 544 , 595 543 
L 595 538 
" fill="#D21010" />
<path d="
M 679 536 
L 679 532 
L 650 532 
L 650 531 
L 695 531 
L 695 536 
Q 684 537 , 673 537 
Q 664 537 , 652 537 
Q 626 537 , 610 536 
Q 595 534 , 595 531 
Q 595 528 , 610 527 
Q 626 525 , 652 525 
Q 663 525 , 672 525 
Q 682 525 , 692 526 
L 692 528 
Q 679 527 , 671 527 
Q 662 526 , 653 526 
Q 632 526 , 621 528 
Q 611 529 , 611 531 
Q 611 534 , 621 535 
Q 632 536 , 653 536 
Q 662 536 , 669 536 
Q 676 536 , 679 536 
" fill="#F5C000" />
<path d="
M 750 554 
L 732 554 
L 766 554 
L 750 554 
M 743 554 
L 757 554 
L 800 554 
L 784 554 
L 772 554 
L 728 554 
L 715 554 
L 700 554 
L 743 554 
" fill="#339541" />
<path d="
M 800 553 
L 800 553 
Q 785 553 , 777 553 
Q 769 553 , 759 553 
Q 738 553 , 728 553 
Q 716 553 , 716 553 
Q 716 553 , 728 553 
Q 738 553 , 759 553 
Q 769 553 , 777 553 
Q 785 553 , 800 553 
L 800 553 
Q 789 553 , 779 553 
Q 769 553 , 758 553 
Q 731 553 , 716 553 
Q 700 553 , 700 553 
Q 700 553 , 716 553 
Q 731 553 , 758 553 
Q 769 553 , 779 553 
Q 790 553 , 800 553 
" fill="#545FFF" />
<path d="
M 700 552 
L 718 552 
L 718 552 
Q 718 552 , 726 552 
Q 733 552 , 750 552 
Q 767 552 , 775 552 
Q 782 552 , 782 552 
L 782 552 
L 800 552 
L 800 552 
Q 800 552 , 787 552 
Q 775 552 , 750 552 
Q 726 552 , 713 552 
Q 700 552 , 700 552 
L 700 552 
" fill="#D21010" />
<path d="
M 784 551 
L 784 551 
L 755 551 
L 755 551 
L 800 551 
L 800 551 
Q 789 551 , 778 551 
Q 769 551 , 757 551 
Q 731 551 , 715 551 
Q 700 551 , 700 551 
Q 700 551 , 715 551 
Q 731 551 , 757 551 
Q 768 551 , 777 551 
Q 787 551 , 797 551 
L 797 551 
Q 784 551 , 776 551 
Q 767 551 , 758 551 
Q 737 551 , 726 551 
Q 716 551 , 716 551 
Q 716 551 , 726 551 
Q 737 551 , 758 551 
Q 767 551 , 774 551 
Q 781 551 , 784 551 
" fill="#F5C000" />
<path d="
M 855 550 
L 837 552 
L 871 552 
L 855 550 
M 848 549 
L 862 549 
L 905 554 
L 889 554 
L 877 553 
L 833 553 
L 820 554 
L 805 554 
L 848 549 
" fill="#339541" />
<path d="
M 805 535 
L 823 535 
L 823 543 
Q 823 545 , 831 546 
Q 838 547 , 855 547 
Q 872 547 , 880 546 
Q 887 545 , 887 543 
L 887 535 
L 905 535 
L 905 543 
Q 905 546 , 892 547 
Q 880 549 , 855 549 
Q 831 549 , 818 547 
Q 805 546 , 805 543 
L 805 535 
" fill="#D21010" />
<path d="
M 889 532 
L 889 528 
L 860 528 
L 860 526 
L 905 526 
L 905 533 
Q 894 534 , 883 534 
Q 874 534 , 862 534 
Q 836 534 , 820 532 
Q 805 530 , 805 526 
Q 805 522 , 820 520 
Q 836 518 , 862 518 
Q 873 518 , 882 518 
Q 892 519 , 902 519 
L 902 521 
Q 889 520 , 881 520 
Q 872 520 , 863 520 
Q 842 520 , 831 521 
Q 821 523 , 821 526 
Q 821 529 , 831 531 
Q 842 533 , 863 533 
Q 872 533 , 879 532 
Q 886 532 , 889 532 
" fill="#F5C000" />
<path d="
M 905 468 
L 905 477 
Q 890 471 , 882 470 
Q 874 468 , 864 468 
Q 843 468 , 833 474 
Q 821 479 , 821 490 
Q 821 501 , 833 506 
Q 843 512 , 864 512 
Q 874 512 , 882 510 
Q 890 509 , 905 503 
L 905 512 
Q 894 515 , 884 517 
Q 874 518 , 863 518 
Q 836 518 , 821 510 
Q 805 503 , 805 490 
Q 805 477 , 821 470 
Q 836 462 , 863 462 
Q 874 462 , 884 463 
Q 895 465 , 905 468 
" fill="#545FFF" />
<path d="
M 910 552 
L 919 552 
L 919 554 
Q 919 554 , 923 554 
Q 926 554 , 935 554 
Q 944 554 , 947 554 
Q 951 554 , 951 554 
L 951 552 
L 960 552 
L 960 554 
Q 960 554 , 954 554 
Q 947 555 , 935 555 
Q 923 555 , 916 554 
Q 910 554 , 910 554 
L 910 552 
" fill="lightgray" />
<path d="
M 985 552 
L 976 554 
L 993 554 
L 985 552 
M 981 552 
L 989 552 
L 1010 555 
L 1002 555 
L 996 554 
L 974 554 
L 967 555 
L 960 555 
L 981 552 
" fill="#339541" />
<path d="
M 960 548 
L 960 549 
Q 953 549 , 949 548 
Q 944 548 , 939 548 
Q 929 548 , 924 549 
Q 918 549 , 918 549 
Q 918 550 , 924 551 
Q 929 551 , 939 551 
Q 944 551 , 949 551 
Q 953 551 , 960 551 
L 960 551 
Q 955 551 , 949 551 
Q 945 551 , 939 551 
Q 925 551 , 918 551 
Q 910 550 , 910 550 
Q 910 549 , 918 548 
Q 925 548 , 939 548 
Q 945 548 , 950 548 
Q 955 548 , 960 548 
" fill="lightgray" />
<path d="
M 1002 551 
L 1002 550 
L 988 550 
L 988 550 
L 1010 550 
L 1010 551 
Q 1005 551 , 999 551 
Q 994 551 , 988 551 
Q 975 551 , 968 551 
Q 960 550 , 960 550 
Q 960 549 , 968 548 
Q 975 548 , 988 548 
Q 994 548 , 999 548 
Q 1004 548 , 1009 548 
L 1009 549 
Q 1002 549 , 998 548 
Q 994 548 , 989 548 
Q 979 548 , 973 549 
Q 968 549 , 968 550 
Q 968 550 , 973 551 
Q 979 551 , 989 551 
Q 994 551 , 997 551 
Q 1001 551 , 1002 551 
" fill="#F5C000" />
<path d="
M 910 541 
L 919 541 
L 919 545 
Q 919 546 , 923 546 
Q 926 547 , 935 547 
Q 944 547 , 947 546 
Q 951 546 , 951 545 
L 951 541 
L 960 541 
L 960 545 
Q 960 546 , 954 547 
Q 947 547 , 935 547 
Q 923 547 , 916 547 
Q 910 546 , 910 545 
L 910 541 
" fill="lightgray" />
<path d="
M 1002 546 
L 1002 545 
L 988 545 
L 988 544 
L 1010 544 
L 1010 547 
Q 1005 547 , 999 547 
Q 994 547 , 988 547 
Q 975 547 , 968 546 
Q 960 546 , 960 544 
Q 960 543 , 968 542 
Q 975 541 , 988 541 
Q 994 541 , 999 541 
Q 1004 541 , 1009 542 
L 1009 542 
Q 1002 542 , 998 542 
Q 994 542 , 989 542 
Q 979 542 , 973 542 
Q 968 543 , 968 544 
Q 968 545 , 973 546 
Q 979 547 , 989 547 
Q 994 547 , 997 547 
Q 1001 546 , 1002 546 
" fill="#F5C000" />
<path d="
M 952 540 
L 952 537 
L 938 537 
L 938 536 
L 960 536 
L 960 540 
Q 955 540 , 949 541 
Q 944 541 , 938 541 
Q 925 541 , 918 540 
Q 910 538 , 910 536 
Q 910 534 , 918 533 
Q 925 532 , 938 532 
Q 944 532 , 949 532 
Q 954 532 , 959 533 
L 959 534 
Q 952 533 , 948 533 
Q 944 533 , 939 533 
Q 929 533 , 923 534 
Q 918 535 , 918 536 
Q 918 538 , 923 539 
Q 929 540 , 939 540 
Q 944 540 , 947 540 
Q 951 540 , 952 540 
" fill="lightgray" />
<path d="
M 960 532 
L 969 532 
L 969 537 
Q 969 539 , 973 539 
Q 976 540 , 985 540 
Q 994 540 , 997 539 
Q 1001 539 , 1001 537 
L 1001 532 
L 1010 532 
L 1010 537 
Q 1010 539 , 1004 540 
Q 997 541 , 985 541 
Q 973 541 , 966 540 
Q 960 539 , 960 537 
L 960 532 
" fill="#D21010" />
<path d="
M 935 524 
L 926 528 
L 943 528 
L 935 524 
M 931 522 
L 939 522 
L 960 531 
L 952 531 
L 946 529 
L 924 529 
L 917 531 
L 910 531 
L 931 522 
" fill="lightgray" />
<path d="
M 960 522 
L 969 522 
L 969 528 
Q 969 529 , 973 530 
Q 976 530 , 985 530 
Q 994 530 , 997 530 
Q 1001 529 , 1001 528 
L 1001 522 
L 1010 522 
L 1010 528 
Q 1010 530 , 1004 531 
Q 997 531 , 985 531 
Q 973 531 , 966 531 
Q 960 530 , 960 528 
L 960 522 
" fill="#D21010" />
<path d="
M 952 519 
L 952 515 
L 938 515 
L 938 513 
L 960 513 
L 960 520 
Q 955 521 , 949 521 
Q 944 521 , 938 522 
Q 925 522 , 918 519 
Q 910 517 , 910 513 
Q 910 509 , 918 507 
Q 925 505 , 938 505 
Q 944 505 , 949 505 
Q 954 506 , 959 506 
L 959 508 
Q 952 508 , 948 507 
Q 944 507 , 939 507 
Q 929 507 , 923 509 
Q 918 510 , 918 513 
Q 918 517 , 923 518 
Q 929 520 , 939 520 
Q 944 520 , 947 520 
Q 951 519 , 952 519 
" fill="lightgray" />
<path d="
M 1010 507 
L 1010 509 
Q 1003 508 , 999 507 
Q 994 507 , 989 507 
Q 979 507 , 974 508 
Q 968 510 , 968 513 
Q 968 516 , 974 518 
Q 979 520 , 989 520 
Q 994 520 , 999 519 
Q 1003 519 , 1010 517 
L 1010 520 
Q 1005 521 , 999 521 
Q 995 522 , 989 522 
Q 975 522 , 968 519 
Q 960 517 , 960 513 
Q 960 509 , 968 507 
Q 975 505 , 989 505 
Q 995 505 , 1000 505 
Q 1005 506 , 1010 507 
" fill="#545FFF" />
<path d="
M 1065 551 
L 1047 552 
L 1081 552 
L 1065 551 
M 1058 550 
L 1072 550 
L 1115 554 
L 1099 554 
L 1087 553 
L 1043 553 
L 1030 554 
L 1015 554 
L 1058 550 
" fill="#339541" />
<path d="
M 1115 543 
L 1115 544 
Q 1100 543 , 1092 543 
Q 1084 543 , 1074 543 
Q 1053 543 , 1043 544 
Q 1031 544 , 1031 545 
Q 1031 547 , 1043 548 
Q 1053 549 , 1074 549 
Q 1084 549 , 1092 549 
Q 1100 548 , 1115 548 
L 1115 549 
Q 1104 549 , 1094 549 
Q 1084 550 , 1073 550 
Q 1046 550 , 1031 549 
Q 1015 548 , 1015 546 
Q 1015 544 , 1031 543 
Q 1046 542 , 1073 542 
Q 1084 542 , 1094 542 
Q 1105 542 , 1115 543 
" fill="#545FFF" />
<path d="
M 1015 506 
L 1033 506 
L 1033 527 
Q 1033 532 , 1041 535 
Q 1048 537 , 1065 537 
Q 1082 537 , 1090 535 
Q 1097 532 , 1097 527 
L 1097 506 
L 1115 506 
L 1115 527 
Q 1115 534 , 1102 537 
Q 1090 541 , 1065 541 
Q 1041 541 , 1028 537 
Q 1015 534 , 1015 527 
L 1015 506 
" fill="#D21010" />
<path d="
M 1099 490 
L 1099 460 
L 1070 460 
L 1070 448 
L 1115 448 
L 1115 497 
Q 1104 501 , 1093 503 
Q 1084 505 , 1072 505 
Q 1046 505 , 1030 491 
Q 1015 476 , 1015 451 
Q 1015 425 , 1030 411 
Q 1046 396 , 1072 396 
Q 1083 396 , 1092 398 
Q 1102 400 , 1112 405 
L 1112 419 
Q 1099 413 , 1091 411 
Q 1082 409 , 1073 409 
Q 1052 409 , 1041 419 
Q 1031 430 , 1031 451 
Q 1031 472 , 1041 483 
Q 1052 493 , 1073 493 
Q 1082 493 , 1089 492 
Q 1096 491 , 1099 490 
" fill="#F5C000" />
<path d="
M 1170 553 
L 1152 554 
L 1186 554 
L 1170 553 
M 1163 552 
L 1177 552 
L 1220 555 
L 1204 555 
L 1192 554 
L 1148 554 
L 1135 555 
L 1120 555 
L 1163 552 
" fill="#339541" />
<path d="
M 1220 545 
L 1220 546 
Q 1205 545 , 1197 545 
Q 1189 545 , 1179 545 
Q 1158 545 , 1148 546 
Q 1136 546 , 1136 547 
Q 1136 549 , 1148 550 
Q 1158 551 , 1179 551 
Q 1189 551 , 1197 550 
Q 1205 550 , 1220 549 
L 1220 551 
Q 1209 551 , 1199 551 
Q 1189 551 , 1178 551 
Q 1151 551 , 1136 550 
Q 1120 549 , 1120 548 
Q 1120 546 , 1136 545 
Q 1151 544 , 1178 544 
Q 1189 544 , 1199 544 
Q 1210 544 , 1220 545 
" fill="#545FFF" />
<path d="
M 1120 530 
L 1138 530 
L 1138 538 
Q 1138 540 , 1146 541 
Q 1153 542 , 1170 542 
Q 1187 542 , 1195 541 
Q 1202 540 , 1202 538 
L 1202 530 
L 1220 530 
L 1220 538 
Q 1220 541 , 1207 542 
Q 1195 543 , 1170 543 
Q 1146 543 , 1133 542 
Q 1120 541 , 1120 538 
L 1120 530 
" fill="#D21010" />
<path d="
M 1204 528 
L 1204 524 
L 1175 524 
L 1175 523 
L 1220 523 
L 1220 529 
Q 1209 529 , 1198 529 
Q 1189 530 , 1177 530 
Q 1151 530 , 1135 528 
Q 1120 526 , 1120 523 
Q 1120 520 , 1135 518 
Q 1151 516 , 1177 516 
Q 1188 516 , 1197 516 
Q 1207 516 , 1217 517 
L 1217 519 
Q 1204 518 , 1196 518 
Q 1187 518 , 1178 518 
Q 1157 518 , 1146 519 
Q 1136 520 , 1136 523 
Q 1136 526 , 1146 527 
Q 1157 528 , 1178 528 
Q 1187 528 , 1194 528 
Q 1201 528 , 1204 528 
" fill="#F5C000" />
<path d="
M 1325 551 
L 1325 552 
Q 1310 552 , 1302 551 
Q 1294 551 , 1284 551 
Q 1263 551 , 1253 552 
Q 1241 552 , 1241 552 
Q 1241 553 , 1253 554 
Q 1263 554 , 1284 554 
Q 1294 554 , 1302 554 
Q 1310 554 , 1325 554 
L 1325 554 
Q 1314 554 , 1304 554 
Q 1294 554 , 1283 554 
Q 1256 554 , 1241 554 
Q 1225 553 , 1225 553 
Q 1225 552 , 1241 551 
Q 1256 551 , 1283 551 
Q 1294 551 , 1304 551 
Q 1315 551 , 1325 551 
" fill="#545FFF" />
<path d="
M 1225 543 
L 1243 543 
L 1243 547 
Q 1243 548 , 1251 549 
Q 1258 549 , 1275 549 
Q 1292 549 , 1300 549 
Q 1307 548 , 1307 547 
L 1307 543 
L 1325 543 
L 1325 547 
Q 1325 549 , 1312 549 
Q 1300 550 , 1275 550 
Q 1251 550 , 1238 549 
Q 1225 549 , 1225 547 
L 1225 543 
" fill="#D21010" />
<path d="
M 1275 535 
L 1257 538 
L 1291 538 
L 1275 535 
M 1268 533 
L 1282 533 
L 1325 542 
L 1309 542 
L 1297 540 
L 1253 540 
L 1240 542 
L 1225 542 
L 1268 533 
" fill="#339541" />
<path d="
M 1309 530 
L 1309 526 
L 1280 526 
L 1280 525 
L 1325 525 
L 1325 532 
Q 1314 532 , 1303 532 
Q 1294 533 , 1282 533 
Q 1256 533 , 1240 531 
Q 1225 529 , 1225 525 
Q 1225 521 , 1240 519 
Q 1256 517 , 1282 517 
Q 1293 517 , 1302 517 
Q 1312 518 , 1322 518 
L 1322 520 
Q 1309 519 , 1301 519 
Q 1292 519 , 1283 519 
Q 1262 519 , 1251 520 
Q 1241 522 , 1241 525 
Q 1241 528 , 1251 529 
Q 1262 531 , 1283 531 
Q 1292 531 , 1299 531 
Q 1306 531 , 1309 530 
" fill="#F5C000" />
<path d="
M 1380 554 
L 1362 554 
L 1396 554 
L 1380 554 
M 1373 554 
L 1387 554 
L 1430 554 
L 1414 554 
L 1402 554 
L 1358 554 
L 1345 554 
L 1330 554 
L 1373 554 
" fill="#339541" />
<path d="
M 1430 553 
L 1430 553 
Q 1415 553 , 1407 553 
Q 1399 553 , 1389 553 
Q 1368 553 , 1358 553 
Q 1346 553 , 1346 553 
Q 1346 553 , 1358 553 
Q 1368 553 , 1389 553 
Q 1399 553 , 1407 553 
Q 1415 553 , 1430 553 
L 1430 553 
Q 1419 553 , 1409 553 
Q 1399 553 , 1388 553 
Q 1361 553 , 1346 553 
Q 1330 553 , 1330 553 
Q 1330 553 , 1346 553 
Q 1361 553 , 1388 553 
Q 1399 553 , 1409 553 
Q 1420 553 , 1430 553 
" fill="#545FFF" />
<path d="
M 1330 552 
L 1348 552 
L 1348 552 
Q 1348 552 , 1356 552 
Q 1363 552 , 1380 552 
Q 1397 552 , 1405 552 
Q 1412 552 , 1412 552 
L 1412 552 
L 1430 552 
L 1430 552 
Q 1430 552 , 1417 552 
Q 1405 552 , 1380 552 
Q 1356 552 , 1343 552 
Q 1330 552 , 1330 552 
L 1330 552 
" fill="#D21010" />
<path d="
M 1414 551 
L 1414 551 
L 1385 551 
L 1385 551 
L 1430 551 
L 1430 551 
Q 1419 551 , 1408 551 
Q 1399 551 , 1387 551 
Q 1361 551 , 1345 551 
Q 1330 551 , 1330 551 
Q 1330 551 , 1345 551 
Q 1361 551 , 1387 551 
Q 1398 551 , 1407 551 
Q 1417 551 , 1427 551 
L 1427 551 
Q 1414 551 , 1406 551 
Q 1397 551 , 1388 551 
Q 1367 551 , 1356 551 
Q 1346 551 , 1346 551 
Q 1346 551 , 1356 551 
Q 1367 551 , 1388 551 
Q 1397 551 , 1404 551 
Q 1411 551 , 1414 551 
" fill="#F5C000" />
<path d="M 65 168 L 65 555 " stroke="black" stroke-width="1.5"/>
<path d="M 55 555 L 65 555 " stroke="black" stroke-width="4"/>
<text text-anchor="end" x="50" y="555" font-size="50" alignment-baseline="middle">0</text>
<path d="M 55 362 L 65 362 " stroke="black" stroke-width="4"/>
<text text-anchor="end" x="50" y="362" font-size="50" alignment-baseline="middle">1</text>
<path d="M 55 168 L 65 168 " stroke="black" stroke-width="4"/>
<text text-anchor="end" x="50" y="168" font-size="50" alignment-baseline="middle">2</text>
<text text-anchor="middle" x="750" y="50" font-size="50" alignment-baseline="baseline"></text>
G<path d="
M 160 582 
L 126 595 
L 160 608 
L 157 611 
L 123 598 
L 123 623 
L 117 623 
L 117 599 
L 83 611 
L 80 608 
L 114 595 
L 80 582 
L 83 579 
L 117 591 
L 117 567 
L 123 567 
L 123 591 
L 157 579 
L 160 582 
" fill="black" />
<path d="
" fill="black" />
<path d="
M 211 567 
L 238 567 
L 238 623 
L 211 623 
L 211 567 
" fill="black" />
<path d="
" fill="black" />
<path d="
M 370 567 
Q 341 574 , 328 581 
Q 315 588 , 315 595 
Q 315 602 , 328 609 
Q 341 616 , 370 623 
L 346 623 
Q 318 616 , 304 609 
Q 290 602 , 290 595 
Q 290 588 , 304 581 
Q 318 574 , 346 567 
L 370 567 
" fill="black" />
<path d="
" fill="black" />
<path d="
M 421 567 
L 448 567 
L 448 623 
L 421 623 
L 421 567 
" fill="black" />
<path d="
" fill="black" />
<path d="
" fill="black" />
<path d="
M 526 567 
L 553 567 
L 553 623 
L 526 623 
L 526 567 
" fill="black" />
<path d="
" fill="black" />
<path d="
" fill="black" />
<path d="
M 622 567 
L 642 567 
L 642 623 
L 622 623 
L 622 567 
" fill="black" />
<path d="
" fill="black" />
<path d="
M 674 621 
L 674 616 
Q 675 618 , 677 619 
Q 678 619 , 680 619 
Q 686 619 , 688 609 
Q 689 604 , 689 595 
Q 689 597 , 687 600 
Q 685 603 , 681 603 
Q 677 603 , 675 598 
Q 672 593 , 672 586 
Q 672 577 , 675 572 
Q 677 567 , 682 567 
Q 687 567 , 689 574 
Q 692 581 , 692 595 
Q 692 609 , 689 616 
Q 685 623 , 680 623 
Q 678 623 , 677 622 
Q 675 622 , 674 621 
M 676 595 
Q 678 599 , 681 599 
Q 685 599 , 687 595 
Q 689 591 , 689 584 
Q 689 578 , 687 574 
Q 685 571 , 681 571 
Q 678 571 , 676 574 
Q 675 578 , 675 584 
Q 675 591 , 676 595 
" fill="black" />
<path d="
M 790 582 
L 756 595 
L 790 608 
L 787 611 
L 753 598 
L 753 623 
L 747 623 
L 747 599 
L 713 611 
L 710 608 
L 744 595 
L 710 582 
L 713 579 
L 747 591 
L 747 567 
L 753 567 
L 753 591 
L 787 579 
L 790 582 
" fill="black" />
<path d="
" fill="black" />
<path d="
M 841 567 
L 868 567 
L 868 623 
L 841 623 
L 841 567 
" fill="black" />
<path d="
" fill="black" />
<path d="
M 920 567 
L 944 567 
Q 972 574 , 986 581 
Q 1000 588 , 1000 595 
Q 1000 602 , 986 609 
Q 972 616 , 944 623 
L 920 623 
Q 949 616 , 962 609 
Q 975 602 , 975 595 
Q 975 588 , 962 581 
Q 949 574 , 920 567 
" fill="black" />
<path d="
" fill="black" />
<path d="
M 1051 567 
L 1078 567 
L 1078 623 
L 1051 623 
L 1051 567 
" fill="black" />
<path d="
" fill="black" />
<path d="
" fill="black" />
<path d="
M 1156 567 
L 1183 567 
L 1183 623 
L 1156 623 
L 1156 567 
" fill="black" />
<path d="
" fill="black" />
<path d="
" fill="black" />
<path d="
M 1261 567 
L 1288 567 
L 1288 623 
L 1261 623 
L 1261 567 
" fill="black" />
<path d="
" fill="black" />
<path d="
M 1420 582 
L 1386 595 
L 1420 608 
L 1417 611 
L 1383 598 
L 1383 623 
L 1377 623 
L 1377 599 
L 1343 611 
L 1340 608 
L 1374 595 
L 1340 582 
L 1343 579 
L 1377 591 
L 1377 567 
L 1383 567 
L 1383 591 
L 1417 579 
L 1420 582 
" fill="black" />
</svg>
