<svg xmlns="http://www.w3.org/2000/svg"
viewBox="0 0 1330 635">
<path d="
M 120 553 
L 102 554 
L 136 554 
L 120 553 
M 113 553 
L 127 553 
L 170 555 
L 154 555 
L 142 554 
L 98 554 
L 85 555 
L 70 555 
L 113 553 
" fill="#339541" />
<path d="
M 170 550 
L 170 551 
Q 155 550 , 147 550 
Q 139 550 , 129 550 
Q 108 550 , 98 550 
Q 86 551 , 86 551 
Q 86 552 , 98 552 
Q 108 552 , 129 552 
Q 139 552 , 147 552 
Q 155 552 , 170 552 
L 170 552 
Q 159 552 , 149 552 
Q 139 552 , 128 552 
Q 101 552 , 86 552 
Q 70 552 , 70 551 
Q 70 551 , 86 550 
Q 101 550 , 128 550 
Q 139 550 , 149 550 
Q 160 550 , 170 550 
" fill="#545FFF" />
<path d="
M 70 547 
L 88 547 
L 88 549 
Q 88 549 , 96 549 
Q 103 549 , 120 549 
Q 137 549 , 145 549 
Q 152 549 , 152 549 
L 152 547 
L 170 547 
L 170 549 
Q 170 549 , 157 550 
Q 145 550 , 120 550 
Q 96 550 , 83 550 
Q 70 549 , 70 549 
L 70 547 
" fill="#D21010" />
<path d="
M 154 546 
L 154 545 
L 125 545 
L 125 545 
L 170 545 
L 170 546 
Q 159 547 , 148 547 
Q 139 547 , 127 547 
Q 101 547 , 85 546 
Q 70 546 , 70 545 
Q 70 544 , 85 543 
Q 101 543 , 127 543 
Q 138 543 , 147 543 
Q 157 543 , 167 543 
L 167 544 
Q 154 544 , 146 543 
Q 137 543 , 128 543 
Q 107 543 , 96 544 
Q 86 544 , 86 545 
Q 86 546 , 96 546 
Q 107 546 , 128 546 
Q 137 546 , 144 546 
Q 151 546 , 154 546 
" fill="#F5C000" />
<path d="
M 225 551 
L 207 553 
L 241 553 
L 225 551 
M 218 550 
L 232 550 
L 275 554 
L 259 554 
L 247 553 
L 203 553 
L 190 554 
L 175 554 
L 218 550 
" fill="#339541" />
<path d="
M 259 549 
L 259 547 
L 230 547 
L 230 546 
L 275 546 
L 275 549 
Q 264 550 , 253 550 
Q 244 550 , 232 550 
Q 206 550 , 190 549 
Q 175 548 , 175 546 
Q 175 545 , 190 544 
Q 206 543 , 232 543 
Q 243 543 , 252 543 
Q 262 543 , 272 544 
L 272 544 
Q 259 544 , 251 544 
Q 242 544 , 233 544 
Q 212 544 , 201 544 
Q 191 545 , 191 546 
Q 191 548 , 201 548 
Q 212 549 , 233 549 
Q 242 549 , 249 549 
Q 256 549 , 259 549 
" fill="#F5C000" />
<path d="
M 275 530 
L 275 533 
Q 260 531 , 252 531 
Q 244 531 , 234 531 
Q 213 531 , 203 532 
Q 191 533 , 191 536 
Q 191 539 , 203 540 
Q 213 541 , 234 541 
Q 244 541 , 252 541 
Q 260 541 , 275 539 
L 275 541 
Q 264 542 , 254 543 
Q 244 543 , 233 543 
Q 206 543 , 191 541 
Q 175 539 , 175 536 
Q 175 533 , 191 531 
Q 206 529 , 233 529 
Q 244 529 , 254 529 
Q 265 530 , 275 530 
" fill="#545FFF" />
<path d="
M 175 507 
L 193 507 
L 193 520 
Q 193 524 , 201 525 
Q 208 526 , 225 526 
Q 242 526 , 250 525 
Q 257 524 , 257 520 
L 257 507 
L 275 507 
L 275 520 
Q 275 524 , 262 527 
Q 250 529 , 225 529 
Q 201 529 , 188 527 
Q 175 524 , 175 520 
L 175 507 
" fill="#D21010" />
<path d="
M 280 552 
L 289 552 
L 289 554 
Q 289 554 , 293 554 
Q 296 555 , 305 555 
Q 314 555 , 317 554 
Q 321 554 , 321 554 
L 321 552 
L 330 552 
L 330 554 
Q 330 554 , 324 555 
Q 317 555 , 305 555 
Q 293 555 , 286 555 
Q 280 554 , 280 554 
L 280 552 
" fill="#D21010" />
<path d="
M 372 554 
L 372 554 
L 358 554 
L 358 553 
L 380 553 
L 380 555 
Q 375 555 , 369 555 
Q 364 555 , 358 555 
Q 345 555 , 338 554 
Q 330 554 , 330 553 
Q 330 553 , 338 552 
Q 345 552 , 358 552 
Q 364 552 , 369 552 
Q 374 552 , 379 552 
L 379 553 
Q 372 552 , 368 552 
Q 364 552 , 359 552 
Q 349 552 , 343 553 
Q 338 553 , 338 553 
Q 338 554 , 343 554 
Q 349 555 , 359 555 
Q 364 555 , 367 555 
Q 371 554 , 372 554 
" fill="lightgray" />
<path d="
M 330 545 
L 330 546 
Q 323 545 , 319 545 
Q 314 545 , 309 545 
Q 299 545 , 294 546 
Q 288 546 , 288 547 
Q 288 549 , 294 550 
Q 299 551 , 309 551 
Q 314 551 , 319 551 
Q 323 550 , 330 550 
L 330 551 
Q 325 551 , 319 551 
Q 315 552 , 309 552 
Q 295 552 , 288 551 
Q 280 550 , 280 548 
Q 280 546 , 288 545 
Q 295 544 , 309 544 
Q 315 544 , 320 544 
Q 325 544 , 330 545 
" fill="#545FFF" />
<path d="
M 372 550 
L 372 548 
L 358 548 
L 358 548 
L 380 548 
L 380 551 
Q 375 551 , 369 551 
Q 364 552 , 358 552 
Q 345 552 , 338 551 
Q 330 550 , 330 548 
Q 330 546 , 338 545 
Q 345 544 , 358 544 
Q 364 544 , 369 544 
Q 374 544 , 379 545 
L 379 546 
Q 372 545 , 368 545 
Q 364 545 , 359 545 
Q 349 545 , 343 546 
Q 338 546 , 338 548 
Q 338 549 , 343 550 
Q 349 551 , 359 551 
Q 364 551 , 367 551 
Q 371 551 , 372 550 
" fill="lightgray" />
<path d="
M 280 536 
L 289 536 
L 289 540 
Q 289 542 , 293 542 
Q 296 543 , 305 543 
Q 314 543 , 317 542 
Q 321 542 , 321 540 
L 321 536 
L 330 536 
L 330 541 
Q 330 542 , 324 543 
Q 317 544 , 305 544 
Q 293 544 , 286 543 
Q 280 542 , 280 541 
L 280 536 
" fill="#D21010" />
<path d="
M 355 537 
L 346 540 
L 363 540 
L 355 537 
M 351 536 
L 359 536 
L 380 544 
L 372 544 
L 366 541 
L 344 541 
L 337 544 
L 330 544 
L 351 536 
" fill="lightgray" />
<path d="
M 322 535 
L 322 533 
L 308 533 
L 308 532 
L 330 532 
L 330 535 
Q 325 536 , 319 536 
Q 314 536 , 308 536 
Q 295 536 , 288 535 
Q 280 534 , 280 532 
Q 280 530 , 288 529 
Q 295 528 , 308 528 
Q 314 528 , 319 528 
Q 324 528 , 329 529 
L 329 530 
Q 322 529 , 318 529 
Q 314 529 , 309 529 
Q 299 529 , 293 530 
Q 288 530 , 288 532 
Q 288 534 , 293 534 
Q 299 535 , 309 535 
Q 314 535 , 317 535 
Q 321 535 , 322 535 
" fill="#F5C000" />
<path d="
M 330 528 
L 339 528 
L 339 533 
Q 339 534 , 343 535 
Q 346 535 , 355 535 
Q 364 535 , 367 535 
Q 371 534 , 371 533 
L 371 528 
L 380 528 
L 380 533 
Q 380 534 , 374 535 
Q 367 536 , 355 536 
Q 343 536 , 336 535 
Q 330 534 , 330 533 
L 330 528 
" fill="lightgray" />
<path d="
M 305 517 
L 296 522 
L 313 522 
L 305 517 
M 301 515 
L 309 515 
L 330 528 
L 322 528 
L 316 524 
L 294 524 
L 287 528 
L 280 528 
L 301 515 
" fill="#339541" />
<path d="
M 330 515 
L 339 515 
L 339 522 
Q 339 524 , 343 525 
Q 346 526 , 355 526 
Q 364 526 , 367 525 
Q 371 524 , 371 522 
L 371 515 
L 380 515 
L 380 523 
Q 380 525 , 374 526 
Q 367 528 , 355 528 
Q 343 528 , 336 526 
Q 330 525 , 330 523 
L 330 515 
" fill="lightgray" />
<path d="
M 322 510 
L 322 502 
L 308 502 
L 308 499 
L 330 499 
L 330 512 
Q 325 513 , 319 514 
Q 314 514 , 308 514 
Q 295 514 , 288 510 
Q 280 507 , 280 500 
Q 280 493 , 288 489 
Q 295 485 , 308 485 
Q 314 485 , 319 486 
Q 324 486 , 329 487 
L 329 491 
Q 322 489 , 318 489 
Q 314 489 , 309 489 
Q 299 489 , 293 491 
Q 288 494 , 288 500 
Q 288 505 , 293 508 
Q 299 511 , 309 511 
Q 314 511 , 317 511 
Q 321 511 , 322 510 
" fill="#F5C000" />
<path d="
M 380 488 
L 380 493 
Q 373 490 , 369 489 
Q 364 488 , 359 488 
Q 349 488 , 344 491 
Q 338 494 , 338 499 
Q 338 505 , 344 508 
Q 349 511 , 359 511 
Q 364 511 , 369 510 
Q 373 510 , 380 507 
L 380 511 
Q 375 513 , 369 514 
Q 365 514 , 359 514 
Q 345 514 , 338 510 
Q 330 506 , 330 500 
Q 330 493 , 338 489 
Q 345 485 , 359 485 
Q 365 485 , 370 486 
Q 375 486 , 380 488 
" fill="lightgray" />
<path d="
M 485 550 
L 485 550 
Q 470 550 , 462 550 
Q 454 550 , 444 550 
Q 423 550 , 413 550 
Q 401 551 , 401 552 
Q 401 553 , 413 553 
Q 423 554 , 444 554 
Q 454 554 , 462 554 
Q 470 554 , 485 553 
L 485 554 
Q 474 554 , 464 555 
Q 454 555 , 443 555 
Q 416 555 , 401 554 
Q 385 553 , 385 552 
Q 385 551 , 401 550 
Q 416 549 , 443 549 
Q 454 549 , 464 549 
Q 475 549 , 485 550 
" fill="#545FFF" />
<path d="
M 435 542 
L 417 545 
L 451 545 
L 435 542 
M 428 541 
L 442 541 
L 485 548 
L 469 548 
L 457 546 
L 413 546 
L 400 548 
L 385 548 
L 428 541 
" fill="#339541" />
<path d="
M 385 520 
L 403 520 
L 403 532 
Q 403 536 , 411 537 
Q 418 538 , 435 538 
Q 452 538 , 460 537 
Q 467 536 , 467 532 
L 467 520 
L 485 520 
L 485 533 
Q 485 536 , 472 539 
Q 460 541 , 435 541 
Q 411 541 , 398 539 
Q 385 536 , 385 533 
L 385 520 
" fill="#D21010" />
<path d="
M 469 515 
L 469 505 
L 440 505 
L 440 501 
L 485 501 
L 485 517 
Q 474 519 , 463 519 
Q 454 520 , 442 520 
Q 416 520 , 400 515 
Q 385 510 , 385 502 
Q 385 494 , 400 489 
Q 416 484 , 442 484 
Q 453 484 , 462 485 
Q 472 485 , 482 487 
L 482 491 
Q 469 489 , 461 489 
Q 452 488 , 443 488 
Q 422 488 , 411 492 
Q 401 495 , 401 502 
Q 401 509 , 411 512 
Q 422 516 , 443 516 
Q 452 516 , 459 515 
Q 466 515 , 469 515 
" fill="#F5C000" />
<path d="
M 540 548 
L 522 551 
L 556 551 
L 540 548 
M 533 546 
L 547 546 
L 590 555 
L 574 555 
L 562 552 
L 518 552 
L 505 555 
L 490 555 
L 533 546 
" fill="#339541" />
<path d="
M 590 534 
L 590 536 
Q 575 535 , 567 535 
Q 559 534 , 549 534 
Q 528 534 , 518 535 
Q 506 537 , 506 539 
Q 506 541 , 518 543 
Q 528 544 , 549 544 
Q 559 544 , 567 543 
Q 575 543 , 590 542 
L 590 544 
Q 579 544 , 569 545 
Q 559 545 , 548 545 
Q 521 545 , 506 543 
Q 490 542 , 490 539 
Q 490 536 , 506 535 
Q 521 533 , 548 533 
Q 559 533 , 569 533 
Q 580 534 , 590 534 
" fill="#545FFF" />
<path d="
M 490 518 
L 508 518 
L 508 527 
Q 508 529 , 516 530 
Q 523 531 , 540 531 
Q 557 531 , 565 530 
Q 572 529 , 572 527 
L 572 518 
L 590 518 
L 590 527 
Q 590 530 , 577 531 
Q 565 533 , 540 533 
Q 516 533 , 503 531 
Q 490 530 , 490 527 
L 490 518 
" fill="#D21010" />
<path d="
M 574 508 
L 574 490 
L 545 490 
L 545 483 
L 590 483 
L 590 512 
Q 579 515 , 568 516 
Q 559 517 , 547 517 
Q 521 517 , 505 508 
Q 490 499 , 490 484 
Q 490 469 , 505 460 
Q 521 451 , 547 451 
Q 558 451 , 567 452 
Q 577 453 , 587 456 
L 587 465 
Q 574 461 , 566 460 
Q 557 459 , 548 459 
Q 527 459 , 516 465 
Q 506 471 , 506 484 
Q 506 497 , 516 503 
Q 527 510 , 548 510 
Q 557 510 , 564 509 
Q 571 508 , 574 508 
" fill="#F5C000" />
<path d="
M 645 552 
L 627 553 
L 661 553 
L 645 552 
M 638 552 
L 652 552 
L 695 555 
L 679 555 
L 667 554 
L 623 554 
L 610 555 
L 595 555 
L 638 552 
" fill="#339541" />
<path d="
M 679 551 
L 679 549 
L 650 549 
L 650 549 
L 695 549 
L 695 551 
Q 684 551 , 673 552 
Q 664 552 , 652 552 
Q 626 552 , 610 551 
Q 595 550 , 595 549 
Q 595 547 , 610 547 
Q 626 546 , 652 546 
Q 663 546 , 672 546 
Q 682 546 , 692 546 
L 692 547 
Q 679 547 , 671 547 
Q 662 547 , 653 547 
Q 632 547 , 621 547 
Q 611 548 , 611 549 
Q 611 550 , 621 550 
Q 632 551 , 653 551 
Q 662 551 , 669 551 
Q 676 551 , 679 551 
" fill="#F5C000" />
<path d="
M 695 540 
L 695 541 
Q 680 540 , 672 540 
Q 664 540 , 654 540 
Q 633 540 , 623 540 
Q 611 541 , 611 542 
Q 611 544 , 623 544 
Q 633 545 , 654 545 
Q 664 545 , 672 545 
Q 680 545 , 695 544 
L 695 545 
Q 684 545 , 674 545 
Q 664 546 , 653 546 
Q 626 546 , 611 545 
Q 595 544 , 595 542 
Q 595 541 , 611 540 
Q 626 539 , 653 539 
Q 664 539 , 674 539 
Q 685 539 , 695 540 
" fill="#545FFF" />
<path d="
M 595 529 
L 613 529 
L 613 534 
Q 613 536 , 621 536 
Q 628 537 , 645 537 
Q 662 537 , 670 536 
Q 677 536 , 677 534 
L 677 529 
L 695 529 
L 695 534 
Q 695 536 , 682 537 
Q 670 538 , 645 538 
Q 621 538 , 608 537 
Q 595 536 , 595 534 
L 595 529 
" fill="#D21010" />
<path d="
M 800 553 
L 800 553 
Q 785 553 , 777 553 
Q 769 553 , 759 553 
Q 738 553 , 728 553 
Q 716 553 , 716 553 
Q 716 554 , 728 554 
Q 738 554 , 759 554 
Q 769 554 , 777 554 
Q 785 554 , 800 554 
L 800 554 
Q 789 554 , 779 554 
Q 769 554 , 758 554 
Q 731 554 , 716 554 
Q 700 554 , 700 554 
Q 700 553 , 716 553 
Q 731 553 , 758 553 
Q 769 553 , 779 553 
Q 790 553 , 800 553 
" fill="#545FFF" />
<path d="
M 700 550 
L 718 550 
L 718 551 
Q 718 552 , 726 552 
Q 733 552 , 750 552 
Q 767 552 , 775 552 
Q 782 552 , 782 551 
L 782 550 
L 800 550 
L 800 552 
Q 800 552 , 787 552 
Q 775 553 , 750 553 
Q 726 553 , 713 552 
Q 700 552 , 700 552 
L 700 550 
" fill="#D21010" />
<path d="
M 750 548 
L 732 549 
L 766 549 
L 750 548 
M 743 547 
L 757 547 
L 800 550 
L 784 550 
L 772 549 
L 728 549 
L 715 550 
L 700 550 
L 743 547 
" fill="#339541" />
<path d="
M 784 547 
L 784 546 
L 755 546 
L 755 545 
L 800 545 
L 800 547 
Q 789 547 , 778 547 
Q 769 547 , 757 547 
Q 731 547 , 715 547 
Q 700 546 , 700 545 
Q 700 545 , 715 544 
Q 731 544 , 757 544 
Q 768 544 , 777 544 
Q 787 544 , 797 544 
L 797 545 
Q 784 544 , 776 544 
Q 767 544 , 758 544 
Q 737 544 , 726 545 
Q 716 545 , 716 545 
Q 716 546 , 726 546 
Q 737 547 , 758 547 
Q 767 547 , 774 547 
Q 781 547 , 784 547 
" fill="#F5C000" />
<path d="
M 805 552 
L 814 552 
L 814 554 
Q 814 554 , 818 554 
Q 821 555 , 830 555 
Q 839 555 , 842 554 
Q 846 554 , 846 554 
L 846 552 
L 855 552 
L 855 554 
Q 855 554 , 849 555 
Q 842 555 , 830 555 
Q 818 555 , 811 555 
Q 805 554 , 805 554 
L 805 552 
" fill="lightgray" />
<path d="
M 897 554 
L 897 554 
L 883 554 
L 883 553 
L 905 553 
L 905 555 
Q 900 555 , 894 555 
Q 889 555 , 883 555 
Q 870 555 , 863 554 
Q 855 554 , 855 553 
Q 855 553 , 863 552 
Q 870 552 , 883 552 
Q 889 552 , 894 552 
Q 899 552 , 904 552 
L 904 553 
Q 897 552 , 893 552 
Q 889 552 , 884 552 
Q 874 552 , 868 553 
Q 863 553 , 863 553 
Q 863 554 , 868 554 
Q 874 555 , 884 555 
Q 889 555 , 892 555 
Q 896 554 , 897 554 
" fill="#F5C000" />
<path d="
M 855 545 
L 855 546 
Q 848 545 , 844 545 
Q 839 545 , 834 545 
Q 824 545 , 819 546 
Q 813 546 , 813 547 
Q 813 549 , 819 550 
Q 824 551 , 834 551 
Q 839 551 , 844 551 
Q 848 550 , 855 550 
L 855 551 
Q 850 551 , 844 551 
Q 840 552 , 834 552 
Q 820 552 , 813 551 
Q 805 550 , 805 548 
Q 805 546 , 813 545 
Q 820 544 , 834 544 
Q 840 544 , 845 544 
Q 850 544 , 855 545 
" fill="lightgray" />
<path d="
M 897 550 
L 897 548 
L 883 548 
L 883 548 
L 905 548 
L 905 551 
Q 900 551 , 894 551 
Q 889 552 , 883 552 
Q 870 552 , 863 551 
Q 855 550 , 855 548 
Q 855 546 , 863 545 
Q 870 544 , 883 544 
Q 889 544 , 894 544 
Q 899 544 , 904 545 
L 904 546 
Q 897 545 , 893 545 
Q 889 545 , 884 545 
Q 874 545 , 868 546 
Q 863 546 , 863 548 
Q 863 549 , 868 550 
Q 874 551 , 884 551 
Q 889 551 , 892 551 
Q 896 551 , 897 550 
" fill="#F5C000" />
<path d="
M 805 536 
L 814 536 
L 814 540 
Q 814 542 , 818 542 
Q 821 543 , 830 543 
Q 839 543 , 842 542 
Q 846 542 , 846 540 
L 846 536 
L 855 536 
L 855 541 
Q 855 542 , 849 543 
Q 842 544 , 830 544 
Q 818 544 , 811 543 
Q 805 542 , 805 541 
L 805 536 
" fill="lightgray" />
<path d="
M 880 537 
L 871 540 
L 888 540 
L 880 537 
M 876 536 
L 884 536 
L 905 544 
L 897 544 
L 891 541 
L 869 541 
L 862 544 
L 855 544 
L 876 536 
" fill="#339541" />
<path d="
M 847 535 
L 847 533 
L 833 533 
L 833 532 
L 855 532 
L 855 535 
Q 850 536 , 844 536 
Q 839 536 , 833 536 
Q 820 536 , 813 535 
Q 805 534 , 805 532 
Q 805 530 , 813 529 
Q 820 528 , 833 528 
Q 839 528 , 844 528 
Q 849 528 , 854 529 
L 854 530 
Q 847 529 , 843 529 
Q 839 529 , 834 529 
Q 824 529 , 818 530 
Q 813 530 , 813 532 
Q 813 534 , 818 534 
Q 824 535 , 834 535 
Q 839 535 , 842 535 
Q 846 535 , 847 535 
" fill="lightgray" />
<path d="
M 855 528 
L 864 528 
L 864 533 
Q 864 534 , 868 535 
Q 871 535 , 880 535 
Q 889 535 , 892 535 
Q 896 534 , 896 533 
L 896 528 
L 905 528 
L 905 533 
Q 905 534 , 899 535 
Q 892 536 , 880 536 
Q 868 536 , 861 535 
Q 855 534 , 855 533 
L 855 528 
" fill="#D21010" />
<path d="
M 830 517 
L 821 522 
L 838 522 
L 830 517 
M 826 515 
L 834 515 
L 855 528 
L 847 528 
L 841 524 
L 819 524 
L 812 528 
L 805 528 
L 826 515 
" fill="lightgray" />
<path d="
M 855 515 
L 864 515 
L 864 522 
Q 864 524 , 868 525 
Q 871 526 , 880 526 
Q 889 526 , 892 525 
Q 896 524 , 896 522 
L 896 515 
L 905 515 
L 905 523 
Q 905 525 , 899 526 
Q 892 528 , 880 528 
Q 868 528 , 861 526 
Q 855 525 , 855 523 
L 855 515 
" fill="#D21010" />
<path d="
M 847 510 
L 847 502 
L 833 502 
L 833 499 
L 855 499 
L 855 512 
Q 850 513 , 844 514 
Q 839 514 , 833 514 
Q 820 514 , 813 510 
Q 805 507 , 805 500 
Q 805 493 , 813 489 
Q 820 485 , 833 485 
Q 839 485 , 844 486 
Q 849 486 , 854 487 
L 854 491 
Q 847 489 , 843 489 
Q 839 489 , 834 489 
Q 824 489 , 818 491 
Q 813 494 , 813 500 
Q 813 505 , 818 508 
Q 824 511 , 834 511 
Q 839 511 , 842 511 
Q 846 511 , 847 510 
" fill="lightgray" />
<path d="
M 905 488 
L 905 493 
Q 898 490 , 894 489 
Q 889 488 , 884 488 
Q 874 488 , 869 491 
Q 863 494 , 863 499 
Q 863 505 , 869 508 
Q 874 511 , 884 511 
Q 889 511 , 894 510 
Q 898 510 , 905 507 
L 905 511 
Q 900 513 , 894 514 
Q 890 514 , 884 514 
Q 870 514 , 863 510 
Q 855 506 , 855 500 
Q 855 493 , 863 489 
Q 870 485 , 884 485 
Q 890 485 , 895 486 
Q 900 486 , 905 488 
" fill="#545FFF" />
<path d="
M 960 548 
L 942 552 
L 976 552 
L 960 548 
M 953 547 
L 967 547 
L 1010 555 
L 994 555 
L 982 552 
L 938 552 
L 925 555 
L 910 555 
L 953 547 
" fill="#339541" />
<path d="
M 910 532 
L 928 532 
L 928 540 
Q 928 543 , 936 544 
Q 943 545 , 960 545 
Q 977 545 , 985 544 
Q 992 543 , 992 540 
L 992 532 
L 1010 532 
L 1010 541 
Q 1010 543 , 997 545 
Q 985 546 , 960 546 
Q 936 546 , 923 545 
Q 910 543 , 910 541 
L 910 532 
" fill="#D21010" />
<path d="
M 1010 516 
L 1010 519 
Q 995 517 , 987 516 
Q 979 516 , 969 516 
Q 948 516 , 938 518 
Q 926 519 , 926 522 
Q 926 526 , 938 528 
Q 948 529 , 969 529 
Q 979 529 , 987 529 
Q 995 529 , 1010 527 
L 1010 530 
Q 999 531 , 989 531 
Q 979 531 , 968 531 
Q 941 531 , 926 529 
Q 910 527 , 910 523 
Q 910 519 , 926 516 
Q 941 514 , 968 514 
Q 979 514 , 989 514 
Q 1000 515 , 1010 516 
" fill="#545FFF" />
<path d="
M 994 496 
L 994 464 
L 965 464 
L 965 451 
L 1010 451 
L 1010 504 
Q 999 509 , 988 511 
Q 979 513 , 967 513 
Q 941 513 , 925 497 
Q 910 481 , 910 454 
Q 910 426 , 925 410 
Q 941 394 , 967 394 
Q 978 394 , 987 396 
Q 997 398 , 1007 404 
L 1007 419 
Q 994 412 , 986 410 
Q 977 408 , 968 408 
Q 947 408 , 936 419 
Q 926 431 , 926 454 
Q 926 477 , 936 489 
Q 947 500 , 968 500 
Q 977 500 , 984 499 
Q 991 498 , 994 496 
" fill="#F5C000" />
<path d="
M 1065 552 
L 1047 553 
L 1081 553 
L 1065 552 
M 1058 551 
L 1072 551 
L 1115 554 
L 1099 554 
L 1087 553 
L 1043 553 
L 1030 554 
L 1015 554 
L 1058 551 
" fill="#339541" />
<path d="
M 1115 536 
L 1115 538 
Q 1100 537 , 1092 536 
Q 1084 536 , 1074 536 
Q 1053 536 , 1043 537 
Q 1031 539 , 1031 542 
Q 1031 545 , 1043 547 
Q 1053 548 , 1074 548 
Q 1084 548 , 1092 548 
Q 1100 548 , 1115 546 
L 1115 548 
Q 1104 549 , 1094 550 
Q 1084 550 , 1073 550 
Q 1046 550 , 1031 548 
Q 1015 546 , 1015 542 
Q 1015 538 , 1031 536 
Q 1046 534 , 1073 534 
Q 1084 534 , 1094 534 
Q 1105 535 , 1115 536 
" fill="#545FFF" />
<path d="
M 1099 531 
L 1099 526 
L 1070 526 
L 1070 524 
L 1115 524 
L 1115 532 
Q 1104 533 , 1093 533 
Q 1084 533 , 1072 533 
Q 1046 533 , 1030 531 
Q 1015 529 , 1015 525 
Q 1015 521 , 1030 518 
Q 1046 516 , 1072 516 
Q 1083 516 , 1092 516 
Q 1102 517 , 1112 517 
L 1112 520 
Q 1099 519 , 1091 518 
Q 1082 518 , 1073 518 
Q 1052 518 , 1041 520 
Q 1031 521 , 1031 525 
Q 1031 528 , 1041 530 
Q 1052 532 , 1073 532 
Q 1082 532 , 1089 531 
Q 1096 531 , 1099 531 
" fill="#F5C000" />
<path d="
M 1015 468 
L 1033 468 
L 1033 496 
Q 1033 504 , 1041 507 
Q 1048 510 , 1065 510 
Q 1082 510 , 1090 507 
Q 1097 504 , 1097 496 
L 1097 468 
L 1115 468 
L 1115 497 
Q 1115 506 , 1102 511 
Q 1090 516 , 1065 516 
Q 1041 516 , 1028 511 
Q 1015 506 , 1015 497 
L 1015 468 
" fill="#D21010" />
<path d="
M 1170 550 
L 1152 553 
L 1186 553 
L 1170 550 
M 1163 549 
L 1177 549 
L 1220 555 
L 1204 555 
L 1192 553 
L 1148 553 
L 1135 555 
L 1120 555 
L 1163 549 
" fill="#339541" />
<path d="
M 1220 537 
L 1220 539 
Q 1205 538 , 1197 538 
Q 1189 537 , 1179 537 
Q 1158 537 , 1148 539 
Q 1136 540 , 1136 542 
Q 1136 545 , 1148 546 
Q 1158 547 , 1179 547 
Q 1189 547 , 1197 547 
Q 1205 547 , 1220 546 
L 1220 548 
Q 1209 548 , 1199 549 
Q 1189 549 , 1178 549 
Q 1151 549 , 1136 547 
Q 1120 545 , 1120 542 
Q 1120 539 , 1136 538 
Q 1151 536 , 1178 536 
Q 1189 536 , 1199 536 
Q 1210 537 , 1220 537 
" fill="#545FFF" />
<path d="
M 1120 521 
L 1138 521 
L 1138 530 
Q 1138 532 , 1146 533 
Q 1153 534 , 1170 534 
Q 1187 534 , 1195 533 
Q 1202 532 , 1202 530 
L 1202 521 
L 1220 521 
L 1220 530 
Q 1220 533 , 1207 534 
Q 1195 536 , 1170 536 
Q 1146 536 , 1133 534 
Q 1120 533 , 1120 530 
L 1120 521 
" fill="#D21010" />
<path d="
M 1204 514 
L 1204 500 
L 1175 500 
L 1175 494 
L 1220 494 
L 1220 517 
Q 1209 519 , 1198 520 
Q 1189 521 , 1177 521 
Q 1151 521 , 1135 514 
Q 1120 507 , 1120 495 
Q 1120 484 , 1135 477 
Q 1151 470 , 1177 470 
Q 1188 470 , 1197 471 
Q 1207 472 , 1217 474 
L 1217 481 
Q 1204 478 , 1196 477 
Q 1187 476 , 1178 476 
Q 1157 476 , 1146 481 
Q 1136 486 , 1136 495 
Q 1136 505 , 1146 510 
Q 1157 515 , 1178 515 
Q 1187 515 , 1194 515 
Q 1201 514 , 1204 514 
" fill="#F5C000" />
<path d="
M 1275 553 
L 1257 554 
L 1291 554 
L 1275 553 
M 1268 553 
L 1282 553 
L 1325 555 
L 1309 555 
L 1297 554 
L 1253 554 
L 1240 555 
L 1225 555 
L 1268 553 
" fill="#339541" />
<path d="
M 1325 550 
L 1325 551 
Q 1310 550 , 1302 550 
Q 1294 550 , 1284 550 
Q 1263 550 , 1253 550 
Q 1241 551 , 1241 551 
Q 1241 552 , 1253 552 
Q 1263 552 , 1284 552 
Q 1294 552 , 1302 552 
Q 1310 552 , 1325 552 
L 1325 552 
Q 1314 552 , 1304 552 
Q 1294 552 , 1283 552 
Q 1256 552 , 1241 552 
Q 1225 552 , 1225 551 
Q 1225 551 , 1241 550 
Q 1256 550 , 1283 550 
Q 1294 550 , 1304 550 
Q 1315 550 , 1325 550 
" fill="#545FFF" />
<path d="
M 1225 547 
L 1243 547 
L 1243 549 
Q 1243 549 , 1251 549 
Q 1258 549 , 1275 549 
Q 1292 549 , 1300 549 
Q 1307 549 , 1307 549 
L 1307 547 
L 1325 547 
L 1325 549 
Q 1325 549 , 1312 550 
Q 1300 550 , 1275 550 
Q 1251 550 , 1238 550 
Q 1225 549 , 1225 549 
L 1225 547 
" fill="#D21010" />
<path d="
M 1309 546 
L 1309 545 
L 1280 545 
L 1280 545 
L 1325 545 
L 1325 546 
Q 1314 547 , 1303 547 
Q 1294 547 , 1282 547 
Q 1256 547 , 1240 546 
Q 1225 546 , 1225 545 
Q 1225 544 , 1240 543 
Q 1256 543 , 1282 543 
Q 1293 543 , 1302 543 
Q 1312 543 , 1322 543 
L 1322 544 
Q 1309 544 , 1301 543 
Q 1292 543 , 1283 543 
Q 1262 543 , 1251 544 
Q 1241 544 , 1241 545 
Q 1241 546 , 1251 546 
Q 1262 546 , 1283 546 
Q 1292 546 , 1299 546 
Q 1306 546 , 1309 546 
" fill="#F5C000" />
<path d="M 65 168 L 65 555 " stroke="black" stroke-width="1.5"/>
<path d="M 55 555 L 65 555 " stroke="black" stroke-width="4"/>
<text text-anchor="end" x="50" y="555" font-size="50" alignment-baseline="middle">0</text>
<path d="M 55 362 L 65 362 " stroke="black" stroke-width="4"/>
<text text-anchor="end" x="50" y="362" font-size="50" alignment-baseline="middle">1</text>
<path d="M 55 168 L 65 168 " stroke="black" stroke-width="4"/>
<text text-anchor="end" x="50" y="168" font-size="50" alignment-baseline="middle">2</text>
<text text-anchor="middle" x="697" y="50" font-size="50" alignment-baseline="baseline"></text>
G<path d="
M 160 582 
L 126 595 
L 160 608 
L 157 611 
L 123 598 
L 123 623 
L 117 623 
L 117 599 
L 83 611 
L 80 608 
L 114 595 
L 80 582 
L 83 579 
L 117 591 
L 117 567 
L 123 567 
L 123 591 
L 157 579 
L 160 582 
" fill="black" />
<path d="
" fill="black" />
<path d="
M 211 567 
L 238 567 
L 238 623 
L 211 623 
L 211 567 
" fill="black" />
<path d="
" fill="black" />
<path d="
M 370 567 
Q 341 574 , 328 581 
Q 315 588 , 315 595 
Q 315 602 , 328 609 
Q 341 616 , 370 623 
L 346 623 
Q 318 616 , 304 609 
Q 290 602 , 290 595 
Q 290 588 , 304 581 
Q 318 574 , 346 567 
L 370 567 
" fill="black" />
<path d="
" fill="black" />
<path d="
M 421 567 
L 448 567 
L 448 623 
L 421 623 
L 421 567 
" fill="black" />
<path d="
" fill="black" />
<path d="
" fill="black" />
<path d="
M 526 567 
L 553 567 
L 553 623 
L 526 623 
L 526 567 
" fill="black" />
<path d="
" fill="black" />
<path d="
" fill="black" />
<path d="
M 631 567 
L 658 567 
L 658 623 
L 631 623 
L 631 567 
" fill="black" />
<path d="
" fill="black" />
<path d="
" fill="black" />
<path d="
M 736 567 
L 763 567 
L 763 623 
L 736 623 
L 736 567 
" fill="black" />
<path d="
" fill="black" />
<path d="
M 815 567 
L 839 567 
Q 867 574 , 881 581 
Q 895 588 , 895 595 
Q 895 602 , 881 609 
Q 867 616 , 839 623 
L 815 623 
Q 844 616 , 857 609 
Q 870 602 , 870 595 
Q 870 588 , 857 581 
Q 844 574 , 815 567 
" fill="black" />
<path d="
" fill="black" />
<path d="
M 946 567 
L 973 567 
L 973 623 
L 946 623 
L 946 567 
" fill="black" />
<path d="
" fill="black" />
<path d="
" fill="black" />
<path d="
M 1051 567 
L 1078 567 
L 1078 623 
L 1051 623 
L 1051 567 
" fill="black" />
<path d="
" fill="black" />
<path d="
" fill="black" />
<path d="
M 1156 567 
L 1183 567 
L 1183 623 
L 1156 623 
L 1156 567 
" fill="black" />
<path d="
" fill="black" />
<path d="
M 1315 582 
L 1281 595 
L 1315 608 
L 1312 611 
L 1278 598 
L 1278 623 
L 1272 623 
L 1272 599 
L 1238 611 
L 1235 608 
L 1269 595 
L 1235 582 
L 1238 579 
L 1272 591 
L 1272 567 
L 1278 567 
L 1278 591 
L 1312 579 
L 1315 582 
" fill="black" />
</svg>
