<svg xmlns="http://www.w3.org/2000/svg"
viewBox="0 0 1330 635">
<path d="
M 170 552 
L 170 553 
Q 155 552 , 147 552 
Q 139 552 , 129 552 
Q 108 552 , 98 553 
Q 86 553 , 86 553 
Q 86 554 , 98 554 
Q 108 554 , 129 554 
Q 139 554 , 147 554 
Q 155 554 , 170 554 
L 170 554 
Q 159 554 , 149 554 
Q 139 554 , 128 554 
Q 101 554 , 86 554 
Q 70 554 , 70 553 
Q 70 553 , 86 552 
Q 101 552 , 128 552 
Q 139 552 , 149 552 
Q 160 552 , 170 552 
" fill="#545FFF" />
<path d="
M 120 550 
L 102 551 
L 136 551 
L 120 550 
M 113 549 
L 127 549 
L 170 552 
L 154 552 
L 142 551 
L 98 551 
L 85 552 
L 70 552 
L 113 549 
" fill="#339541" />
<path d="
M 154 548 
L 154 547 
L 125 547 
L 125 547 
L 170 547 
L 170 549 
Q 159 549 , 148 549 
Q 139 549 , 127 549 
Q 101 549 , 85 548 
Q 70 548 , 70 547 
Q 70 546 , 85 546 
Q 101 545 , 127 545 
Q 138 545 , 147 545 
Q 157 545 , 167 545 
L 167 546 
Q 154 546 , 146 546 
Q 137 545 , 128 545 
Q 107 545 , 96 546 
Q 86 546 , 86 547 
Q 86 548 , 96 548 
Q 107 549 , 128 549 
Q 137 549 , 144 548 
Q 151 548 , 154 548 
" fill="#F5C000" />
<path d="
M 70 540 
L 88 540 
L 88 543 
Q 88 544 , 96 544 
Q 103 544 , 120 544 
Q 137 544 , 145 544 
Q 152 544 , 152 543 
L 152 540 
L 170 540 
L 170 543 
Q 170 544 , 157 544 
Q 145 545 , 120 545 
Q 96 545 , 83 544 
Q 70 544 , 70 543 
L 70 540 
" fill="#D21010" />
<path d="
M 175 552 
L 193 552 
L 193 553 
Q 193 554 , 201 554 
Q 208 554 , 225 554 
Q 242 554 , 250 554 
Q 257 554 , 257 553 
L 257 552 
L 275 552 
L 275 554 
Q 275 554 , 262 554 
Q 250 554 , 225 554 
Q 201 554 , 188 554 
Q 175 554 , 175 554 
L 175 552 
" fill="#D21010" />
<path d="
M 259 551 
L 259 550 
L 230 550 
L 230 550 
L 275 550 
L 275 552 
Q 264 552 , 253 552 
Q 244 552 , 232 552 
Q 206 552 , 190 551 
Q 175 551 , 175 550 
Q 175 549 , 190 549 
Q 206 548 , 232 548 
Q 243 548 , 252 548 
Q 262 548 , 272 548 
L 272 549 
Q 259 549 , 251 549 
Q 242 548 , 233 548 
Q 212 548 , 201 549 
Q 191 549 , 191 550 
Q 191 551 , 201 551 
Q 212 551 , 233 551 
Q 242 551 , 249 551 
Q 256 551 , 259 551 
" fill="#F5C000" />
<path d="
M 225 544 
L 207 546 
L 241 546 
L 225 544 
M 218 543 
L 232 543 
L 275 547 
L 259 547 
L 247 546 
L 203 546 
L 190 547 
L 175 547 
L 218 543 
" fill="#339541" />
<path d="
M 275 538 
L 275 539 
Q 260 538 , 252 538 
Q 244 538 , 234 538 
Q 213 538 , 203 538 
Q 191 539 , 191 540 
Q 191 541 , 203 542 
Q 213 542 , 234 542 
Q 244 542 , 252 542 
Q 260 542 , 275 541 
L 275 542 
Q 264 543 , 254 543 
Q 244 543 , 233 543 
Q 206 543 , 191 542 
Q 175 541 , 175 540 
Q 175 539 , 191 538 
Q 206 537 , 233 537 
Q 244 537 , 254 537 
Q 265 537 , 275 538 
" fill="#545FFF" />
<path d="
M 330 553 
L 312 554 
L 346 554 
L 330 553 
M 323 552 
L 337 552 
L 380 555 
L 364 555 
L 352 554 
L 308 554 
L 295 555 
L 280 555 
L 323 552 
" fill="#339541" />
<path d="
M 380 547 
L 380 547 
Q 365 547 , 357 547 
Q 349 547 , 339 547 
Q 318 547 , 308 547 
Q 296 548 , 296 549 
Q 296 550 , 308 550 
Q 318 551 , 339 551 
Q 349 551 , 357 551 
Q 365 551 , 380 550 
L 380 551 
Q 369 551 , 359 551 
Q 349 551 , 338 551 
Q 311 551 , 296 551 
Q 280 550 , 280 549 
Q 280 547 , 296 547 
Q 311 546 , 338 546 
Q 349 546 , 359 546 
Q 370 546 , 380 547 
" fill="#545FFF" />
<path d="
M 364 535 
L 364 515 
L 335 515 
L 335 507 
L 380 507 
L 380 540 
Q 369 543 , 358 544 
Q 349 545 , 337 545 
Q 311 545 , 295 536 
Q 280 526 , 280 509 
Q 280 492 , 295 482 
Q 311 472 , 337 472 
Q 348 472 , 357 473 
Q 367 475 , 377 478 
L 377 487 
Q 364 483 , 356 482 
Q 347 481 , 338 481 
Q 317 481 , 306 488 
Q 296 495 , 296 509 
Q 296 523 , 306 530 
Q 317 537 , 338 537 
Q 347 537 , 354 536 
Q 361 536 , 364 535 
" fill="#F5C000" />
<path d="
M 280 357 
L 298 357 
L 298 425 
Q 298 443 , 306 451 
Q 313 459 , 330 459 
Q 347 459 , 355 451 
Q 362 443 , 362 425 
L 362 357 
L 380 357 
L 380 426 
Q 380 448 , 367 460 
Q 355 471 , 330 471 
Q 306 471 , 293 460 
Q 280 448 , 280 426 
L 280 357 
" fill="#D21010" />
<path d="
M 485 551 
L 485 552 
Q 470 552 , 462 551 
Q 454 551 , 444 551 
Q 423 551 , 413 552 
Q 401 552 , 401 552 
Q 401 553 , 413 554 
Q 423 554 , 444 554 
Q 454 554 , 462 554 
Q 470 554 , 485 554 
L 485 554 
Q 474 554 , 464 554 
Q 454 554 , 443 554 
Q 416 554 , 401 554 
Q 385 553 , 385 553 
Q 385 552 , 401 551 
Q 416 551 , 443 551 
Q 454 551 , 464 551 
Q 475 551 , 485 551 
" fill="#545FFF" />
<path d="
M 435 539 
L 417 545 
L 451 545 
L 435 539 
M 428 537 
L 442 537 
L 485 551 
L 469 551 
L 457 547 
L 413 547 
L 400 551 
L 385 551 
L 428 537 
" fill="#339541" />
<path d="
M 385 495 
L 403 495 
L 403 520 
Q 403 527 , 411 529 
Q 418 532 , 435 532 
Q 452 532 , 460 529 
Q 467 527 , 467 520 
L 467 495 
L 485 495 
L 485 520 
Q 485 528 , 472 533 
Q 460 537 , 435 537 
Q 411 537 , 398 533 
Q 385 528 , 385 520 
L 385 495 
" fill="#D21010" />
<path d="
M 469 472 
L 469 430 
L 440 430 
L 440 413 
L 485 413 
L 485 482 
Q 474 489 , 463 492 
Q 454 494 , 442 494 
Q 416 494 , 400 473 
Q 385 453 , 385 417 
Q 385 380 , 400 360 
Q 416 339 , 442 339 
Q 453 339 , 462 342 
Q 472 345 , 482 352 
L 482 371 
Q 469 363 , 461 360 
Q 452 358 , 443 358 
Q 422 358 , 411 372 
Q 401 387 , 401 417 
Q 401 447 , 411 462 
Q 422 477 , 443 477 
Q 452 477 , 459 475 
Q 466 474 , 469 472 
" fill="#F5C000" />
<path d="
M 540 550 
L 522 552 
L 556 552 
L 540 550 
M 533 549 
L 547 549 
L 590 555 
L 574 555 
L 562 553 
L 518 553 
L 505 555 
L 490 555 
L 533 549 
" fill="#339541" />
<path d="
M 590 540 
L 590 542 
Q 575 541 , 567 540 
Q 559 540 , 549 540 
Q 528 540 , 518 541 
Q 506 542 , 506 544 
Q 506 546 , 518 547 
Q 528 548 , 549 548 
Q 559 548 , 567 547 
Q 575 547 , 590 546 
L 590 548 
Q 579 548 , 569 548 
Q 559 549 , 548 549 
Q 521 549 , 506 547 
Q 490 546 , 490 544 
Q 490 542 , 506 540 
Q 521 539 , 548 539 
Q 559 539 , 569 539 
Q 580 539 , 590 540 
" fill="#545FFF" />
<path d="
M 574 532 
L 574 522 
L 545 522 
L 545 518 
L 590 518 
L 590 535 
Q 579 537 , 568 537 
Q 559 538 , 547 538 
Q 521 538 , 505 533 
Q 490 528 , 490 519 
Q 490 509 , 505 504 
Q 521 499 , 547 499 
Q 558 499 , 567 500 
Q 577 500 , 587 502 
L 587 507 
Q 574 505 , 566 504 
Q 557 504 , 548 504 
Q 527 504 , 516 507 
Q 506 511 , 506 519 
Q 506 526 , 516 530 
Q 527 534 , 548 534 
Q 557 534 , 564 533 
Q 571 533 , 574 532 
" fill="#F5C000" />
<path d="
M 490 302 
L 508 302 
L 508 418 
Q 508 450 , 516 464 
Q 523 477 , 540 477 
Q 557 477 , 565 464 
Q 572 450 , 572 418 
L 572 302 
L 590 302 
L 590 421 
Q 590 459 , 577 479 
Q 565 499 , 540 499 
Q 516 499 , 503 479 
Q 490 459 , 490 421 
L 490 302 
" fill="#D21010" />
<path d="
M 645 552 
L 627 553 
L 661 553 
L 645 552 
M 638 551 
L 652 551 
L 695 554 
L 679 554 
L 667 553 
L 623 553 
L 610 554 
L 595 554 
L 638 551 
" fill="#339541" />
<path d="
M 695 537 
L 695 539 
Q 680 537 , 672 537 
Q 664 537 , 654 537 
Q 633 537 , 623 538 
Q 611 540 , 611 542 
Q 611 545 , 623 547 
Q 633 548 , 654 548 
Q 664 548 , 672 548 
Q 680 548 , 695 546 
L 695 549 
Q 684 549 , 674 550 
Q 664 550 , 653 550 
Q 626 550 , 611 548 
Q 595 546 , 595 543 
Q 595 539 , 611 537 
Q 626 535 , 653 535 
Q 664 535 , 674 535 
Q 685 536 , 695 537 
" fill="#545FFF" />
<path d="
M 679 532 
L 679 526 
L 650 526 
L 650 524 
L 695 524 
L 695 533 
Q 684 534 , 673 534 
Q 664 535 , 652 535 
Q 626 535 , 610 532 
Q 595 529 , 595 524 
Q 595 520 , 610 517 
Q 626 514 , 652 514 
Q 663 514 , 672 514 
Q 682 515 , 692 516 
L 692 518 
Q 679 517 , 671 517 
Q 662 516 , 653 516 
Q 632 516 , 621 518 
Q 611 520 , 611 524 
Q 611 528 , 621 530 
Q 632 532 , 653 532 
Q 662 532 , 669 532 
Q 676 532 , 679 532 
" fill="#F5C000" />
<path d="
M 595 483 
L 613 483 
L 613 501 
Q 613 506 , 621 508 
Q 628 510 , 645 510 
Q 662 510 , 670 508 
Q 677 506 , 677 501 
L 677 483 
L 695 483 
L 695 501 
Q 695 507 , 682 510 
Q 670 513 , 645 513 
Q 621 513 , 608 510 
Q 595 507 , 595 501 
L 595 483 
" fill="#D21010" />
<path d="
M 750 553 
L 732 554 
L 766 554 
L 750 553 
M 743 553 
L 757 553 
L 800 554 
L 784 554 
L 772 554 
L 728 554 
L 715 554 
L 700 554 
L 743 553 
" fill="#339541" />
<path d="
M 800 537 
L 800 539 
Q 785 538 , 777 537 
Q 769 537 , 759 537 
Q 738 537 , 728 539 
Q 716 540 , 716 543 
Q 716 547 , 728 549 
Q 738 550 , 759 550 
Q 769 550 , 777 550 
Q 785 549 , 800 548 
L 800 550 
Q 789 551 , 779 552 
Q 769 552 , 758 552 
Q 731 552 , 716 550 
Q 700 547 , 700 544 
Q 700 540 , 716 537 
Q 731 535 , 758 535 
Q 769 535 , 779 535 
Q 790 536 , 800 537 
" fill="#545FFF" />
<path d="
M 784 528 
L 784 516 
L 755 516 
L 755 511 
L 800 511 
L 800 531 
Q 789 533 , 778 534 
Q 769 535 , 757 535 
Q 731 535 , 715 529 
Q 700 523 , 700 512 
Q 700 502 , 715 496 
Q 731 490 , 757 490 
Q 768 490 , 777 491 
Q 787 492 , 797 494 
L 797 499 
Q 784 497 , 776 496 
Q 767 495 , 758 495 
Q 737 495 , 726 500 
Q 716 504 , 716 512 
Q 716 521 , 726 526 
Q 737 530 , 758 530 
Q 767 530 , 774 529 
Q 781 529 , 784 528 
" fill="#F5C000" />
<path d="
M 700 430 
L 718 430 
L 718 465 
Q 718 475 , 726 479 
Q 733 483 , 750 483 
Q 767 483 , 775 479 
Q 782 475 , 782 465 
L 782 430 
L 800 430 
L 800 466 
Q 800 477 , 787 483 
Q 775 489 , 750 489 
Q 726 489 , 713 483 
Q 700 477 , 700 466 
L 700 430 
" fill="#D21010" />
<path d="
M 855 551 
L 837 552 
L 871 552 
L 855 551 
M 848 550 
L 862 550 
L 905 554 
L 889 554 
L 877 553 
L 833 553 
L 820 554 
L 805 554 
L 848 550 
" fill="#339541" />
<path d="
M 905 543 
L 905 544 
Q 890 543 , 882 543 
Q 874 543 , 864 543 
Q 843 543 , 833 543 
Q 821 544 , 821 545 
Q 821 547 , 833 548 
Q 843 548 , 864 548 
Q 874 548 , 882 548 
Q 890 548 , 905 547 
L 905 548 
Q 894 549 , 884 549 
Q 874 549 , 863 549 
Q 836 549 , 821 548 
Q 805 547 , 805 546 
Q 805 544 , 821 543 
Q 836 542 , 863 542 
Q 874 542 , 884 542 
Q 895 542 , 905 543 
" fill="#545FFF" />
<path d="
M 889 540 
L 889 537 
L 860 537 
L 860 536 
L 905 536 
L 905 540 
Q 894 541 , 883 541 
Q 874 541 , 862 541 
Q 836 541 , 820 540 
Q 805 538 , 805 536 
Q 805 534 , 820 532 
Q 836 531 , 862 531 
Q 873 531 , 882 531 
Q 892 531 , 902 532 
L 902 533 
Q 889 533 , 881 532 
Q 872 532 , 863 532 
Q 842 532 , 831 533 
Q 821 534 , 821 536 
Q 821 538 , 831 539 
Q 842 540 , 863 540 
Q 872 540 , 879 540 
Q 886 540 , 889 540 
" fill="#F5C000" />
<path d="
M 805 515 
L 823 515 
L 823 524 
Q 823 526 , 831 528 
Q 838 529 , 855 529 
Q 872 529 , 880 528 
Q 887 526 , 887 524 
L 887 515 
L 905 515 
L 905 524 
Q 905 527 , 892 529 
Q 880 530 , 855 530 
Q 831 530 , 818 529 
Q 805 527 , 805 524 
L 805 515 
" fill="#D21010" />
<path d="
M 1010 552 
L 1010 553 
Q 995 552 , 987 552 
Q 979 552 , 969 552 
Q 948 552 , 938 553 
Q 926 553 , 926 553 
Q 926 554 , 938 554 
Q 948 554 , 969 554 
Q 979 554 , 987 554 
Q 995 554 , 1010 554 
L 1010 554 
Q 999 554 , 989 555 
Q 979 555 , 968 555 
Q 941 555 , 926 554 
Q 910 554 , 910 553 
Q 910 553 , 926 552 
Q 941 552 , 968 552 
Q 979 552 , 989 552 
Q 1000 552 , 1010 552 
" fill="#545FFF" />
<path d="
M 960 550 
L 942 551 
L 976 551 
L 960 550 
M 953 549 
L 967 549 
L 1010 552 
L 994 552 
L 982 551 
L 938 551 
L 925 552 
L 910 552 
L 953 549 
" fill="#339541" />
<path d="
M 910 462 
L 928 462 
L 928 513 
Q 928 527 , 936 533 
Q 943 539 , 960 539 
Q 977 539 , 985 533 
Q 992 527 , 992 513 
L 992 462 
L 1010 462 
L 1010 515 
Q 1010 531 , 997 540 
Q 985 549 , 960 549 
Q 936 549 , 923 540 
Q 910 531 , 910 515 
L 910 462 
" fill="#D21010" />
<path d="
M 994 444 
L 994 412 
L 965 412 
L 965 399 
L 1010 399 
L 1010 452 
Q 999 457 , 988 459 
Q 979 461 , 967 462 
Q 941 462 , 925 446 
Q 910 430 , 910 402 
Q 910 374 , 925 358 
Q 941 342 , 967 342 
Q 978 342 , 987 344 
Q 997 346 , 1007 352 
L 1007 367 
Q 994 360 , 986 358 
Q 977 356 , 968 356 
Q 947 356 , 936 367 
Q 926 379 , 926 402 
Q 926 425 , 936 437 
Q 947 448 , 968 448 
Q 977 448 , 984 447 
Q 991 446 , 994 444 
" fill="#F5C000" />
<path d="
M 1115 551 
L 1115 551 
Q 1100 551 , 1092 551 
Q 1084 551 , 1074 551 
Q 1053 551 , 1043 551 
Q 1031 552 , 1031 552 
Q 1031 553 , 1043 554 
Q 1053 554 , 1074 554 
Q 1084 554 , 1092 554 
Q 1100 554 , 1115 554 
L 1115 554 
Q 1104 555 , 1094 555 
Q 1084 555 , 1073 555 
Q 1046 555 , 1031 554 
Q 1015 554 , 1015 552 
Q 1015 551 , 1031 551 
Q 1046 550 , 1073 550 
Q 1084 550 , 1094 550 
Q 1105 550 , 1115 551 
" fill="#545FFF" />
<path d="
M 1065 543 
L 1047 546 
L 1081 546 
L 1065 543 
M 1058 541 
L 1072 541 
L 1115 550 
L 1099 550 
L 1087 547 
L 1043 547 
L 1030 550 
L 1015 550 
L 1058 541 
" fill="#339541" />
<path d="
M 1099 533 
L 1099 518 
L 1070 518 
L 1070 512 
L 1115 512 
L 1115 536 
Q 1104 539 , 1093 540 
Q 1084 541 , 1072 541 
Q 1046 541 , 1030 533 
Q 1015 526 , 1015 513 
Q 1015 501 , 1030 493 
Q 1046 486 , 1072 486 
Q 1083 486 , 1092 487 
Q 1102 488 , 1112 490 
L 1112 497 
Q 1099 494 , 1091 493 
Q 1082 493 , 1073 493 
Q 1052 493 , 1041 498 
Q 1031 503 , 1031 513 
Q 1031 524 , 1041 529 
Q 1052 535 , 1073 535 
Q 1082 535 , 1089 534 
Q 1096 533 , 1099 533 
" fill="#F5C000" />
<path d="
M 1015 425 
L 1033 425 
L 1033 461 
Q 1033 471 , 1041 475 
Q 1048 479 , 1065 479 
Q 1082 479 , 1090 475 
Q 1097 471 , 1097 461 
L 1097 425 
L 1115 425 
L 1115 462 
Q 1115 473 , 1102 479 
Q 1090 485 , 1065 485 
Q 1041 485 , 1028 479 
Q 1015 473 , 1015 462 
L 1015 425 
" fill="#D21010" />
<path d="
M 1204 553 
L 1204 551 
L 1175 551 
L 1175 550 
L 1220 550 
L 1220 554 
Q 1209 554 , 1198 554 
Q 1189 554 , 1177 554 
Q 1151 554 , 1135 553 
Q 1120 552 , 1120 550 
Q 1120 548 , 1135 547 
Q 1151 546 , 1177 546 
Q 1188 546 , 1197 546 
Q 1207 546 , 1217 547 
L 1217 548 
Q 1204 547 , 1196 547 
Q 1187 547 , 1178 547 
Q 1157 547 , 1146 548 
Q 1136 549 , 1136 550 
Q 1136 552 , 1146 553 
Q 1157 553 , 1178 553 
Q 1187 553 , 1194 553 
Q 1201 553 , 1204 553 
" fill="#F5C000" />
<path d="
M 1170 536 
L 1152 541 
L 1186 541 
L 1170 536 
M 1163 534 
L 1177 534 
L 1220 545 
L 1204 545 
L 1192 542 
L 1148 542 
L 1135 545 
L 1120 545 
L 1163 534 
" fill="#339541" />
<path d="
M 1220 522 
L 1220 524 
Q 1205 523 , 1197 523 
Q 1189 522 , 1179 522 
Q 1158 522 , 1148 524 
Q 1136 525 , 1136 527 
Q 1136 530 , 1148 531 
Q 1158 532 , 1179 532 
Q 1189 532 , 1197 532 
Q 1205 531 , 1220 530 
L 1220 532 
Q 1209 533 , 1199 533 
Q 1189 533 , 1178 533 
Q 1151 533 , 1136 532 
Q 1120 530 , 1120 527 
Q 1120 524 , 1136 523 
Q 1151 521 , 1178 521 
Q 1189 521 , 1199 521 
Q 1210 522 , 1220 522 
" fill="#545FFF" />
<path d="
M 1120 485 
L 1138 485 
L 1138 506 
Q 1138 512 , 1146 515 
Q 1153 517 , 1170 517 
Q 1187 517 , 1195 515 
Q 1202 512 , 1202 506 
L 1202 485 
L 1220 485 
L 1220 507 
Q 1220 514 , 1207 517 
Q 1195 521 , 1170 521 
Q 1146 521 , 1133 517 
Q 1120 514 , 1120 507 
L 1120 485 
" fill="#D21010" />
<path d="
M 1325 552 
L 1325 553 
Q 1310 552 , 1302 552 
Q 1294 552 , 1284 552 
Q 1263 552 , 1253 553 
Q 1241 553 , 1241 553 
Q 1241 554 , 1253 554 
Q 1263 554 , 1284 554 
Q 1294 554 , 1302 554 
Q 1310 554 , 1325 554 
L 1325 554 
Q 1314 554 , 1304 554 
Q 1294 554 , 1283 554 
Q 1256 554 , 1241 554 
Q 1225 554 , 1225 553 
Q 1225 553 , 1241 552 
Q 1256 552 , 1283 552 
Q 1294 552 , 1304 552 
Q 1315 552 , 1325 552 
" fill="#545FFF" />
<path d="
M 1275 550 
L 1257 551 
L 1291 551 
L 1275 550 
M 1268 549 
L 1282 549 
L 1325 552 
L 1309 552 
L 1297 551 
L 1253 551 
L 1240 552 
L 1225 552 
L 1268 549 
" fill="#339541" />
<path d="
M 1309 548 
L 1309 547 
L 1280 547 
L 1280 547 
L 1325 547 
L 1325 549 
Q 1314 549 , 1303 549 
Q 1294 549 , 1282 549 
Q 1256 549 , 1240 548 
Q 1225 548 , 1225 547 
Q 1225 546 , 1240 546 
Q 1256 545 , 1282 545 
Q 1293 545 , 1302 545 
Q 1312 545 , 1322 545 
L 1322 546 
Q 1309 546 , 1301 546 
Q 1292 545 , 1283 545 
Q 1262 545 , 1251 546 
Q 1241 546 , 1241 547 
Q 1241 548 , 1251 548 
Q 1262 549 , 1283 549 
Q 1292 549 , 1299 548 
Q 1306 548 , 1309 548 
" fill="#F5C000" />
<path d="
M 1225 540 
L 1243 540 
L 1243 543 
Q 1243 544 , 1251 544 
Q 1258 544 , 1275 544 
Q 1292 544 , 1300 544 
Q 1307 544 , 1307 543 
L 1307 540 
L 1325 540 
L 1325 543 
Q 1325 544 , 1312 544 
Q 1300 545 , 1275 545 
Q 1251 545 , 1238 544 
Q 1225 544 , 1225 543 
L 1225 540 
" fill="#D21010" />
<path d="M 65 55 L 65 555 " stroke="black" stroke-width="1.5"/>
<path d="M 55 555 L 65 555 " stroke="black" stroke-width="4"/>
<text text-anchor="end" x="50" y="555" font-size="50" alignment-baseline="middle">0</text>
<path d="M 55 305 L 65 305 " stroke="black" stroke-width="4"/>
<text text-anchor="end" x="50" y="305" font-size="50" alignment-baseline="middle">1</text>
<path d="M 55 55 L 65 55 " stroke="black" stroke-width="4"/>
<text text-anchor="end" x="50" y="55" font-size="50" alignment-baseline="middle">2</text>
<text text-anchor="middle" x="697" y="50" font-size="50" alignment-baseline="baseline"></text>
G<path d="
M 160 582 
L 126 595 
L 160 608 
L 157 611 
L 123 598 
L 123 623 
L 117 623 
L 117 599 
L 83 611 
L 80 608 
L 114 595 
L 80 582 
L 83 579 
L 117 591 
L 117 567 
L 123 567 
L 123 591 
L 157 579 
L 160 582 
" fill="black" />
<path d="
" fill="black" />
<path d="
M 211 567 
L 238 567 
L 238 623 
L 211 623 
L 211 567 
" fill="black" />
<path d="
" fill="black" />
<path d="
" fill="black" />
<path d="
M 316 567 
L 343 567 
L 343 623 
L 316 623 
L 316 567 
" fill="black" />
<path d="
" fill="black" />
<path d="
" fill="black" />
<path d="
M 421 567 
L 448 567 
L 448 623 
L 421 623 
L 421 567 
" fill="black" />
<path d="
" fill="black" />
<path d="
" fill="black" />
<path d="
M 526 567 
L 553 567 
L 553 623 
L 526 623 
L 526 567 
" fill="black" />
<path d="
" fill="black" />
<path d="
" fill="black" />
<path d="
M 631 567 
L 658 567 
L 658 623 
L 631 623 
L 631 567 
" fill="black" />
<path d="
" fill="black" />
<path d="
" fill="black" />
<path d="
M 736 567 
L 763 567 
L 763 623 
L 736 623 
L 736 567 
" fill="black" />
<path d="
" fill="black" />
<path d="
" fill="black" />
<path d="
M 841 567 
L 868 567 
L 868 623 
L 841 623 
L 841 567 
" fill="black" />
<path d="
" fill="black" />
<path d="
" fill="black" />
<path d="
M 946 567 
L 973 567 
L 973 623 
L 946 623 
L 946 567 
" fill="black" />
<path d="
" fill="black" />
<path d="
" fill="black" />
<path d="
M 1051 567 
L 1078 567 
L 1078 623 
L 1051 623 
L 1051 567 
" fill="black" />
<path d="
" fill="black" />
<path d="
" fill="black" />
<path d="
M 1156 567 
L 1183 567 
L 1183 623 
L 1156 623 
L 1156 567 
" fill="black" />
<path d="
" fill="black" />
<path d="
M 1315 582 
L 1281 595 
L 1315 608 
L 1312 611 
L 1278 598 
L 1278 623 
L 1272 623 
L 1272 599 
L 1238 611 
L 1235 608 
L 1269 595 
L 1235 582 
L 1238 579 
L 1272 591 
L 1272 567 
L 1278 567 
L 1278 591 
L 1312 579 
L 1315 582 
" fill="black" />
</svg>
