<svg xmlns="http://www.w3.org/2000/svg"
viewBox="0 0 805 635">
<path d="
M 170 551 
L 170 552 
Q 155 552 , 147 552 
Q 139 551 , 129 551 
Q 108 551 , 98 552 
Q 86 552 , 86 553 
Q 86 554 , 98 554 
Q 108 554 , 129 554 
Q 139 554 , 147 554 
Q 155 554 , 170 554 
L 170 554 
Q 159 555 , 149 555 
Q 139 555 , 128 555 
Q 101 555 , 86 554 
Q 70 554 , 70 553 
Q 70 552 , 86 552 
Q 101 551 , 128 551 
Q 139 551 , 149 551 
Q 160 551 , 170 551 
" fill="#545FFF" />
<path d="
M 154 549 
L 154 548 
L 125 548 
L 125 547 
L 170 547 
L 170 550 
Q 159 550 , 148 550 
Q 139 550 , 127 550 
Q 101 550 , 85 549 
Q 70 549 , 70 548 
Q 70 546 , 85 546 
Q 101 545 , 127 545 
Q 138 545 , 147 545 
Q 157 545 , 167 545 
L 167 546 
Q 154 546 , 146 546 
Q 137 546 , 128 546 
Q 107 546 , 96 546 
Q 86 547 , 86 548 
Q 86 549 , 96 549 
Q 107 550 , 128 550 
Q 137 550 , 144 550 
Q 151 549 , 154 549 
" fill="#F5C000" />
<path d="
M 120 538 
L 102 541 
L 136 541 
L 120 538 
M 113 537 
L 127 537 
L 170 544 
L 154 544 
L 142 542 
L 98 542 
L 85 544 
L 70 544 
L 113 537 
" fill="#339541" />
<path d="
M 70 526 
L 88 526 
L 88 532 
Q 88 534 , 96 535 
Q 103 536 , 120 536 
Q 137 536 , 145 535 
Q 152 534 , 152 532 
L 152 526 
L 170 526 
L 170 533 
Q 170 535 , 157 536 
Q 145 537 , 120 537 
Q 96 537 , 83 536 
Q 70 535 , 70 533 
L 70 526 
" fill="#D21010" />
<path d="
M 275 553 
L 275 553 
Q 260 553 , 252 553 
Q 244 553 , 234 553 
Q 213 553 , 203 553 
Q 191 554 , 191 554 
Q 191 554 , 203 555 
Q 213 555 , 234 555 
Q 244 555 , 252 555 
Q 260 555 , 275 554 
L 275 555 
Q 264 555 , 254 555 
Q 244 555 , 233 555 
Q 206 555 , 191 555 
Q 175 554 , 175 554 
Q 175 554 , 191 553 
Q 206 553 , 233 553 
Q 244 553 , 254 553 
Q 265 553 , 275 553 
" fill="#545FFF" />
<path d="
M 259 552 
L 259 550 
L 230 550 
L 230 549 
L 275 549 
L 275 552 
Q 264 552 , 253 552 
Q 244 552 , 232 552 
Q 206 552 , 190 552 
Q 175 551 , 175 549 
Q 175 548 , 190 547 
Q 206 546 , 232 546 
Q 243 546 , 252 546 
Q 262 546 , 272 547 
L 272 547 
Q 259 547 , 251 547 
Q 242 547 , 233 547 
Q 212 547 , 201 547 
Q 191 548 , 191 549 
Q 191 550 , 201 551 
Q 212 552 , 233 552 
Q 242 552 , 249 552 
Q 256 552 , 259 552 
" fill="#F5C000" />
<path d="
M 225 539 
L 207 543 
L 241 543 
L 225 539 
M 218 538 
L 232 538 
L 275 546 
L 259 546 
L 247 544 
L 203 544 
L 190 546 
L 175 546 
L 218 538 
" fill="#339541" />
<path d="
M 175 126 
L 193 126 
L 193 369 
Q 193 437 , 201 465 
Q 208 492 , 225 492 
Q 242 492 , 250 465 
Q 257 437 , 257 369 
L 257 126 
L 275 126 
L 275 376 
Q 275 455 , 262 496 
Q 250 538 , 225 538 
Q 201 538 , 188 496 
Q 175 455 , 175 376 
L 175 126 
" fill="#D21010" />
<path d="
M 380 553 
L 380 553 
Q 365 553 , 357 553 
Q 349 553 , 339 553 
Q 318 553 , 308 553 
Q 296 553 , 296 553 
Q 296 554 , 308 554 
Q 318 554 , 339 554 
Q 349 554 , 357 554 
Q 365 554 , 380 554 
L 380 554 
Q 369 554 , 359 554 
Q 349 554 , 338 554 
Q 311 554 , 296 554 
Q 280 554 , 280 554 
Q 280 553 , 296 553 
Q 311 553 , 338 553 
Q 349 553 , 359 553 
Q 370 553 , 380 553 
" fill="#545FFF" />
<path d="
M 330 531 
L 312 542 
L 346 542 
L 330 531 
M 323 526 
L 337 526 
L 380 553 
L 364 553 
L 352 545 
L 308 545 
L 295 553 
L 280 553 
L 323 526 
" fill="#339541" />
<path d="
M 280 497 
L 298 497 
L 298 514 
Q 298 518 , 306 520 
Q 313 522 , 330 522 
Q 347 522 , 355 520 
Q 362 518 , 362 514 
L 362 497 
L 380 497 
L 380 514 
Q 380 519 , 367 522 
Q 355 525 , 330 525 
Q 306 525 , 293 522 
Q 280 519 , 280 514 
L 280 497 
" fill="#D21010" />
<path d="
M 364 473 
L 364 428 
L 335 428 
L 335 410 
L 380 410 
L 380 484 
Q 369 491 , 358 494 
Q 349 496 , 337 497 
Q 311 497 , 295 474 
Q 280 452 , 280 414 
Q 280 375 , 295 353 
Q 311 331 , 337 331 
Q 348 331 , 357 334 
Q 367 337 , 377 344 
L 377 366 
Q 364 356 , 356 353 
Q 347 351 , 338 351 
Q 317 351 , 306 366 
Q 296 382 , 296 414 
Q 296 446 , 306 462 
Q 317 478 , 338 478 
Q 347 478 , 354 477 
Q 361 475 , 364 473 
" fill="#F5C000" />
<path d="
M 485 553 
L 485 553 
Q 470 553 , 462 553 
Q 454 553 , 444 553 
Q 423 553 , 413 553 
Q 401 553 , 401 553 
Q 401 554 , 413 554 
Q 423 554 , 444 554 
Q 454 554 , 462 554 
Q 470 554 , 485 554 
L 485 554 
Q 474 555 , 464 555 
Q 454 555 , 443 555 
Q 416 555 , 401 554 
Q 385 554 , 385 554 
Q 385 553 , 401 553 
Q 416 553 , 443 553 
Q 454 553 , 464 553 
Q 475 553 , 485 553 
" fill="#545FFF" />
<path d="
M 469 552 
L 469 551 
L 440 551 
L 440 551 
L 485 551 
L 485 552 
Q 474 553 , 463 553 
Q 454 553 , 442 553 
Q 416 553 , 400 552 
Q 385 552 , 385 551 
Q 385 550 , 400 549 
Q 416 549 , 442 549 
Q 453 549 , 462 549 
Q 472 549 , 482 549 
L 482 550 
Q 469 550 , 461 550 
Q 452 549 , 443 549 
Q 422 549 , 411 550 
Q 401 550 , 401 551 
Q 401 552 , 411 552 
Q 422 552 , 443 552 
Q 452 552 , 459 552 
Q 466 552 , 469 552 
" fill="#F5C000" />
<path d="
M 435 541 
L 417 545 
L 451 545 
L 435 541 
M 428 539 
L 442 539 
L 485 549 
L 469 549 
L 457 546 
L 413 546 
L 400 549 
L 385 549 
L 428 539 
" fill="#339541" />
<path d="
M 385 119 
L 403 119 
L 403 366 
Q 403 435 , 411 464 
Q 418 491 , 435 491 
Q 452 491 , 460 464 
Q 467 435 , 467 366 
L 467 119 
L 485 119 
L 485 373 
Q 485 453 , 472 496 
Q 460 538 , 435 538 
Q 411 538 , 398 496 
Q 385 453 , 385 373 
L 385 119 
" fill="#D21010" />
<path d="
M 590 553 
L 590 553 
Q 575 553 , 567 553 
Q 559 553 , 549 553 
Q 528 553 , 518 553 
Q 506 553 , 506 553 
Q 506 554 , 518 554 
Q 528 554 , 549 554 
Q 559 554 , 567 554 
Q 575 554 , 590 554 
L 590 554 
Q 579 554 , 569 554 
Q 559 554 , 548 554 
Q 521 554 , 506 554 
Q 490 554 , 490 554 
Q 490 553 , 506 553 
Q 521 553 , 548 553 
Q 559 553 , 569 553 
Q 580 553 , 590 553 
" fill="#545FFF" />
<path d="
M 574 551 
L 574 547 
L 545 547 
L 545 546 
L 590 546 
L 590 551 
Q 579 552 , 568 552 
Q 559 552 , 547 552 
Q 521 552 , 505 551 
Q 490 549 , 490 546 
Q 490 543 , 505 542 
Q 521 540 , 547 540 
Q 558 540 , 567 540 
Q 577 540 , 587 541 
L 587 543 
Q 574 542 , 566 542 
Q 557 541 , 548 541 
Q 527 541 , 516 543 
Q 506 544 , 506 546 
Q 506 549 , 516 550 
Q 527 551 , 548 551 
Q 557 551 , 564 551 
Q 571 551 , 574 551 
" fill="#F5C000" />
<path d="
M 490 479 
L 508 479 
L 508 515 
Q 508 525 , 516 529 
Q 523 533 , 540 533 
Q 557 533 , 565 529 
Q 572 525 , 572 515 
L 572 479 
L 590 479 
L 590 516 
Q 590 527 , 577 533 
Q 565 540 , 540 540 
Q 516 540 , 503 533 
Q 490 527 , 490 516 
L 490 479 
" fill="#D21010" />
<path d="
M 540 402 
L 522 440 
L 556 440 
L 540 402 
M 533 385 
L 547 385 
L 590 479 
L 574 479 
L 562 451 
L 518 451 
L 505 479 
L 490 479 
L 533 385 
" fill="#339541" />
<path d="
M 695 553 
L 695 553 
Q 680 553 , 672 553 
Q 664 553 , 654 553 
Q 633 553 , 623 553 
Q 611 554 , 611 554 
Q 611 554 , 623 554 
Q 633 555 , 654 555 
Q 664 555 , 672 555 
Q 680 555 , 695 554 
L 695 555 
Q 684 555 , 674 555 
Q 664 555 , 653 555 
Q 626 555 , 611 555 
Q 595 554 , 595 554 
Q 595 553 , 611 553 
Q 626 553 , 653 553 
Q 664 553 , 674 553 
Q 685 553 , 695 553 
" fill="#545FFF" />
<path d="
M 679 551 
L 679 547 
L 650 547 
L 650 545 
L 695 545 
L 695 552 
Q 684 552 , 673 552 
Q 664 553 , 652 553 
Q 626 553 , 610 551 
Q 595 549 , 595 545 
Q 595 542 , 610 540 
Q 626 538 , 652 538 
Q 663 538 , 672 538 
Q 682 539 , 692 539 
L 692 541 
Q 679 540 , 671 540 
Q 662 540 , 653 540 
Q 632 540 , 621 541 
Q 611 543 , 611 545 
Q 611 548 , 621 550 
Q 632 551 , 653 551 
Q 662 551 , 669 551 
Q 676 551 , 679 551 
" fill="#F5C000" />
<path d="
M 645 499 
L 627 518 
L 661 518 
L 645 499 
M 638 490 
L 652 490 
L 695 538 
L 679 538 
L 667 524 
L 623 524 
L 610 538 
L 595 538 
L 638 490 
" fill="#339541" />
<path d="
M 595 376 
L 613 376 
L 613 443 
Q 613 461 , 621 469 
Q 628 477 , 645 477 
Q 662 477 , 670 469 
Q 677 461 , 677 443 
L 677 376 
L 695 376 
L 695 445 
Q 695 466 , 682 478 
Q 670 489 , 645 489 
Q 621 489 , 608 478 
Q 595 466 , 595 445 
L 595 376 
" fill="#D21010" />
<path d="
M 800 551 
L 800 552 
Q 785 552 , 777 552 
Q 769 551 , 759 551 
Q 738 551 , 728 552 
Q 716 552 , 716 553 
Q 716 554 , 728 554 
Q 738 554 , 759 554 
Q 769 554 , 777 554 
Q 785 554 , 800 554 
L 800 554 
Q 789 555 , 779 555 
Q 769 555 , 758 555 
Q 731 555 , 716 554 
Q 700 554 , 700 553 
Q 700 552 , 716 552 
Q 731 551 , 758 551 
Q 769 551 , 779 551 
Q 790 551 , 800 551 
" fill="#545FFF" />
<path d="
M 784 549 
L 784 548 
L 755 548 
L 755 547 
L 800 547 
L 800 550 
Q 789 550 , 778 550 
Q 769 550 , 757 550 
Q 731 550 , 715 549 
Q 700 549 , 700 548 
Q 700 546 , 715 546 
Q 731 545 , 757 545 
Q 768 545 , 777 545 
Q 787 545 , 797 545 
L 797 546 
Q 784 546 , 776 546 
Q 767 546 , 758 546 
Q 737 546 , 726 546 
Q 716 547 , 716 548 
Q 716 549 , 726 549 
Q 737 550 , 758 550 
Q 767 550 , 774 550 
Q 781 549 , 784 549 
" fill="#F5C000" />
<path d="
M 750 538 
L 732 541 
L 766 541 
L 750 538 
M 743 537 
L 757 537 
L 800 544 
L 784 544 
L 772 542 
L 728 542 
L 715 544 
L 700 544 
L 743 537 
" fill="#339541" />
<path d="
M 700 526 
L 718 526 
L 718 532 
Q 718 534 , 726 535 
Q 733 536 , 750 536 
Q 767 536 , 775 535 
Q 782 534 , 782 532 
L 782 526 
L 800 526 
L 800 533 
Q 800 535 , 787 536 
Q 775 537 , 750 537 
Q 726 537 , 713 536 
Q 700 535 , 700 533 
L 700 526 
" fill="#D21010" />
<path d="M 65 55 L 65 555 " stroke="black" stroke-width="1.5"/>
<path d="M 55 555 L 65 555 " stroke="black" stroke-width="4"/>
<text text-anchor="end" x="50" y="555" font-size="50" alignment-baseline="middle">0</text>
<path d="M 55 305 L 65 305 " stroke="black" stroke-width="4"/>
<text text-anchor="end" x="50" y="305" font-size="50" alignment-baseline="middle">1</text>
<path d="M 55 55 L 65 55 " stroke="black" stroke-width="4"/>
<text text-anchor="end" x="50" y="55" font-size="50" alignment-baseline="middle">2</text>
<text text-anchor="middle" x="435" y="50" font-size="50" alignment-baseline="baseline"></text>
G<path d="
M 160 582 
L 126 595 
L 160 608 
L 157 611 
L 123 598 
L 123 623 
L 117 623 
L 117 599 
L 83 611 
L 80 608 
L 114 595 
L 80 582 
L 83 579 
L 117 591 
L 117 567 
L 123 567 
L 123 591 
L 157 579 
L 160 582 
" fill="black" />
<path d="
" fill="black" />
<path d="
M 211 567 
L 238 567 
L 238 623 
L 211 623 
L 211 567 
" fill="black" />
<path d="
" fill="black" />
<path d="
" fill="black" />
<path d="
M 316 567 
L 343 567 
L 343 623 
L 316 623 
L 316 567 
" fill="black" />
<path d="
" fill="black" />
<path d="
" fill="black" />
<path d="
M 421 567 
L 448 567 
L 448 623 
L 421 623 
L 421 567 
" fill="black" />
<path d="
" fill="black" />
<path d="
" fill="black" />
<path d="
M 526 567 
L 553 567 
L 553 623 
L 526 623 
L 526 567 
" fill="black" />
<path d="
" fill="black" />
<path d="
" fill="black" />
<path d="
M 631 567 
L 658 567 
L 658 623 
L 631 623 
L 631 567 
" fill="black" />
<path d="
" fill="black" />
<path d="
M 790 582 
L 756 595 
L 790 608 
L 787 611 
L 753 598 
L 753 623 
L 747 623 
L 747 599 
L 713 611 
L 710 608 
L 744 595 
L 710 582 
L 713 579 
L 747 591 
L 747 567 
L 753 567 
L 753 591 
L 787 579 
L 790 582 
" fill="black" />
</svg>
