<svg xmlns="http://www.w3.org/2000/svg"
viewBox="0 0 1435 635">
<path d="
M 170 552 
L 170 553 
Q 155 552 , 147 552 
Q 139 552 , 129 552 
Q 108 552 , 98 553 
Q 86 553 , 86 553 
Q 86 554 , 98 554 
Q 108 554 , 129 554 
Q 139 554 , 147 554 
Q 155 554 , 170 554 
L 170 554 
Q 159 554 , 149 555 
Q 139 555 , 128 555 
Q 101 555 , 86 554 
Q 70 554 , 70 553 
Q 70 553 , 86 552 
Q 101 552 , 128 552 
Q 139 552 , 149 552 
Q 160 552 , 170 552 
" fill="#545FFF" />
<path d="
M 120 549 
L 102 551 
L 136 551 
L 120 549 
M 113 549 
L 127 549 
L 170 552 
L 154 552 
L 142 551 
L 98 551 
L 85 552 
L 70 552 
L 113 549 
" fill="#339541" />
<path d="
M 70 545 
L 88 545 
L 88 547 
Q 88 548 , 96 548 
Q 103 548 , 120 548 
Q 137 548 , 145 548 
Q 152 548 , 152 547 
L 152 545 
L 170 545 
L 170 547 
Q 170 548 , 157 548 
Q 145 549 , 120 549 
Q 96 549 , 83 548 
Q 70 548 , 70 547 
L 70 545 
" fill="#D21010" />
<path d="
M 154 544 
L 154 542 
L 125 542 
L 125 542 
L 170 542 
L 170 544 
Q 159 544 , 148 544 
Q 139 544 , 127 545 
Q 101 545 , 85 544 
Q 70 543 , 70 542 
Q 70 540 , 85 540 
Q 101 539 , 127 539 
Q 138 539 , 147 539 
Q 157 539 , 167 539 
L 167 540 
Q 154 540 , 146 540 
Q 137 540 , 128 540 
Q 107 540 , 96 540 
Q 86 541 , 86 542 
Q 86 543 , 96 543 
Q 107 544 , 128 544 
Q 137 544 , 144 544 
Q 151 544 , 154 544 
" fill="#F5C000" />
<path d="
M 175 554 
L 184 554 
L 184 554 
Q 184 554 , 188 554 
Q 191 555 , 200 555 
Q 209 555 , 212 554 
Q 216 554 , 216 554 
L 216 554 
L 225 554 
L 225 554 
Q 225 554 , 219 555 
Q 212 555 , 200 555 
Q 188 555 , 181 555 
Q 175 554 , 175 554 
L 175 554 
" fill="#D21010" />
<path d="
M 267 555 
L 267 554 
L 253 554 
L 253 554 
L 275 554 
L 275 555 
Q 270 555 , 264 555 
Q 259 555 , 253 555 
Q 240 555 , 233 555 
Q 225 554 , 225 554 
Q 225 554 , 233 554 
Q 240 554 , 253 554 
Q 259 554 , 264 554 
Q 269 554 , 274 554 
L 274 554 
Q 267 554 , 263 554 
Q 259 554 , 254 554 
Q 244 554 , 238 554 
Q 233 554 , 233 554 
Q 233 554 , 238 554 
Q 244 555 , 254 555 
Q 259 555 , 262 555 
Q 266 555 , 267 555 
" fill="lightgray" />
<path d="
M 175 553 
L 184 553 
L 184 553 
Q 184 554 , 188 554 
Q 191 554 , 200 554 
Q 209 554 , 212 554 
Q 216 554 , 216 553 
L 216 553 
L 225 553 
L 225 553 
Q 225 554 , 219 554 
Q 212 554 , 200 554 
Q 188 554 , 181 554 
Q 175 554 , 175 553 
L 175 553 
" fill="#D21010" />
<path d="
M 250 553 
L 241 553 
L 258 553 
L 250 553 
M 246 553 
L 254 553 
L 275 554 
L 267 554 
L 261 553 
L 239 553 
L 232 554 
L 225 554 
L 246 553 
" fill="lightgray" />
<path d="
M 217 552 
L 217 552 
L 203 552 
L 203 552 
L 225 552 
L 225 552 
Q 220 552 , 214 552 
Q 209 552 , 203 552 
Q 190 552 , 183 552 
Q 175 552 , 175 552 
Q 175 551 , 183 551 
Q 190 551 , 203 551 
Q 209 551 , 214 551 
Q 219 551 , 224 551 
L 224 551 
Q 217 551 , 213 551 
Q 209 551 , 204 551 
Q 194 551 , 188 551 
Q 183 551 , 183 552 
Q 183 552 , 188 552 
Q 194 552 , 204 552 
Q 209 552 , 212 552 
Q 216 552 , 217 552 
" fill="#F5C000" />
<path d="
M 225 551 
L 234 551 
L 234 552 
Q 234 552 , 238 552 
Q 241 552 , 250 552 
Q 259 552 , 262 552 
Q 266 552 , 266 552 
L 266 551 
L 275 551 
L 275 552 
Q 275 552 , 269 552 
Q 262 552 , 250 552 
Q 238 552 , 231 552 
Q 225 552 , 225 552 
L 225 551 
" fill="lightgray" />
<path d="
M 225 515 
L 225 521 
Q 218 517 , 214 516 
Q 209 515 , 204 515 
Q 194 515 , 189 519 
Q 183 523 , 183 530 
Q 183 538 , 189 542 
Q 194 546 , 204 546 
Q 209 546 , 214 545 
Q 218 544 , 225 540 
L 225 546 
Q 220 549 , 214 549 
Q 210 550 , 204 550 
Q 190 550 , 183 545 
Q 175 540 , 175 531 
Q 175 522 , 183 516 
Q 190 511 , 204 511 
Q 210 511 , 215 512 
Q 220 513 , 225 515 
" fill="#545FFF" />
<path d="
M 267 545 
L 267 534 
L 253 534 
L 253 530 
L 275 530 
L 275 547 
Q 270 549 , 264 550 
Q 259 550 , 253 550 
Q 240 550 , 233 545 
Q 225 540 , 225 531 
Q 225 522 , 233 516 
Q 240 511 , 253 511 
Q 259 511 , 264 512 
Q 269 512 , 274 514 
L 274 519 
Q 267 517 , 263 516 
Q 259 516 , 254 516 
Q 244 516 , 238 519 
Q 233 523 , 233 531 
Q 233 538 , 238 542 
Q 244 546 , 254 546 
Q 259 546 , 262 546 
Q 266 545 , 267 545 
" fill="lightgray" />
<path d="
M 217 502 
L 217 488 
L 203 488 
L 203 481 
L 225 481 
L 225 506 
Q 220 508 , 214 509 
Q 209 510 , 203 510 
Q 190 510 , 183 503 
Q 175 496 , 175 483 
Q 175 470 , 183 462 
Q 190 455 , 203 455 
Q 209 455 , 214 456 
Q 219 457 , 224 459 
L 224 467 
Q 217 463 , 213 462 
Q 209 462 , 204 462 
Q 194 462 , 188 467 
Q 183 472 , 183 483 
Q 183 494 , 188 499 
Q 194 504 , 204 504 
Q 209 504 , 212 504 
Q 216 503 , 217 502 
" fill="#F5C000" />
<path d="
M 275 461 
L 275 469 
Q 268 464 , 264 463 
Q 259 461 , 254 461 
Q 244 461 , 239 466 
Q 233 472 , 233 482 
Q 233 493 , 239 499 
Q 244 504 , 254 504 
Q 259 504 , 264 503 
Q 268 501 , 275 496 
L 275 505 
Q 270 508 , 264 509 
Q 260 510 , 254 510 
Q 240 510 , 233 503 
Q 225 495 , 225 483 
Q 225 470 , 233 463 
Q 240 455 , 254 455 
Q 260 455 , 265 456 
Q 270 458 , 275 461 
" fill="lightgray" />
<path d="
M 200 377 
L 191 415 
L 208 415 
L 200 377 
M 196 359 
L 204 359 
L 225 455 
L 217 455 
L 211 426 
L 189 426 
L 182 455 
L 175 455 
L 196 359 
" fill="#339541" />
<path d="
M 225 359 
L 234 359 
L 234 415 
Q 234 431 , 238 438 
Q 241 444 , 250 444 
Q 259 444 , 262 438 
Q 266 431 , 266 415 
L 266 359 
L 275 359 
L 275 417 
Q 275 435 , 269 445 
Q 262 455 , 250 455 
Q 238 455 , 231 445 
Q 225 435 , 225 417 
L 225 359 
" fill="lightgray" />
<path d="
M 280 548 
L 298 548 
L 298 552 
Q 298 553 , 306 554 
Q 313 554 , 330 554 
Q 347 554 , 355 554 
Q 362 553 , 362 552 
L 362 548 
L 380 548 
L 380 552 
Q 380 554 , 367 554 
Q 355 555 , 330 555 
Q 306 555 , 293 554 
Q 280 554 , 280 552 
L 280 548 
" fill="#D21010" />
<path d="
M 380 539 
L 380 541 
Q 365 540 , 357 539 
Q 349 539 , 339 539 
Q 318 539 , 308 540 
Q 296 541 , 296 543 
Q 296 545 , 308 546 
Q 318 547 , 339 547 
Q 349 547 , 357 546 
Q 365 546 , 380 545 
L 380 547 
Q 369 547 , 359 548 
Q 349 548 , 338 548 
Q 311 548 , 296 546 
Q 280 545 , 280 543 
Q 280 541 , 296 539 
Q 311 538 , 338 538 
Q 349 538 , 359 538 
Q 370 538 , 380 539 
" fill="#545FFF" />
<path d="
M 364 535 
L 364 530 
L 335 530 
L 335 528 
L 380 528 
L 380 536 
Q 369 537 , 358 537 
Q 349 538 , 337 538 
Q 311 538 , 295 535 
Q 280 533 , 280 528 
Q 280 524 , 295 521 
Q 311 519 , 337 519 
Q 348 519 , 357 519 
Q 367 520 , 377 521 
L 377 523 
Q 364 522 , 356 522 
Q 347 521 , 338 521 
Q 317 521 , 306 523 
Q 296 525 , 296 528 
Q 296 532 , 306 534 
Q 317 535 , 338 535 
Q 347 535 , 354 535 
Q 361 535 , 364 535 
" fill="#F5C000" />
<path d="
M 330 473 
L 312 496 
L 346 496 
L 330 473 
M 323 463 
L 337 463 
L 380 519 
L 364 519 
L 352 502 
L 308 502 
L 295 519 
L 280 519 
L 323 463 
" fill="#339541" />
<path d="
M 469 555 
L 469 555 
L 440 555 
L 440 554 
L 485 554 
L 485 555 
Q 474 555 , 463 555 
Q 454 555 , 442 555 
Q 416 555 , 400 555 
Q 385 555 , 385 554 
Q 385 554 , 400 554 
Q 416 554 , 442 554 
Q 453 554 , 462 554 
Q 472 554 , 482 554 
L 482 554 
Q 469 554 , 461 554 
Q 452 554 , 443 554 
Q 422 554 , 411 554 
Q 401 554 , 401 554 
Q 401 555 , 411 555 
Q 422 555 , 443 555 
Q 452 555 , 459 555 
Q 466 555 , 469 555 
" fill="#F5C000" />
<path d="
M 485 552 
L 485 552 
Q 470 552 , 462 552 
Q 454 552 , 444 552 
Q 423 552 , 413 552 
Q 401 552 , 401 552 
Q 401 553 , 413 553 
Q 423 553 , 444 553 
Q 454 553 , 462 553 
Q 470 553 , 485 553 
L 485 553 
Q 474 553 , 464 553 
Q 454 553 , 443 553 
Q 416 553 , 401 553 
Q 385 553 , 385 553 
Q 385 552 , 401 552 
Q 416 552 , 443 552 
Q 454 552 , 464 552 
Q 475 552 , 485 552 
" fill="#545FFF" />
<path d="
M 435 500 
L 417 526 
L 451 526 
L 435 500 
M 428 488 
L 442 488 
L 485 552 
L 469 552 
L 457 533 
L 413 533 
L 400 552 
L 385 552 
L 428 488 
" fill="#339541" />
<path d="
M 385 362 
L 403 362 
L 403 436 
Q 403 457 , 411 465 
Q 418 473 , 435 473 
Q 452 473 , 460 465 
Q 467 457 , 467 436 
L 467 362 
L 485 362 
L 485 438 
Q 485 462 , 472 475 
Q 460 487 , 435 487 
Q 411 487 , 398 475 
Q 385 462 , 385 438 
L 385 362 
" fill="#D21010" />
<path d="
M 532 555 
L 532 554 
L 518 554 
L 518 554 
L 540 554 
L 540 555 
Q 535 555 , 529 555 
Q 524 555 , 518 555 
Q 505 555 , 498 555 
Q 490 554 , 490 554 
Q 490 554 , 498 554 
Q 505 554 , 518 554 
Q 524 554 , 529 554 
Q 534 554 , 539 554 
L 539 554 
Q 532 554 , 528 554 
Q 524 554 , 519 554 
Q 509 554 , 503 554 
Q 498 554 , 498 554 
Q 498 554 , 503 554 
Q 509 555 , 519 555 
Q 524 555 , 527 555 
Q 531 555 , 532 555 
" fill="#F5C000" />
<path d="
M 590 554 
L 590 554 
Q 583 554 , 579 554 
Q 574 554 , 569 554 
Q 559 554 , 554 554 
Q 548 554 , 548 554 
Q 548 554 , 554 554 
Q 559 555 , 569 555 
Q 574 555 , 579 555 
Q 583 555 , 590 554 
L 590 555 
Q 585 555 , 579 555 
Q 575 555 , 569 555 
Q 555 555 , 548 555 
Q 540 554 , 540 554 
Q 540 554 , 548 554 
Q 555 554 , 569 554 
Q 575 554 , 580 554 
Q 585 554 , 590 554 
" fill="lightgray" />
<path d="
M 532 553 
L 532 553 
L 518 553 
L 518 553 
L 540 553 
L 540 553 
Q 535 553 , 529 553 
Q 524 553 , 518 553 
Q 505 553 , 498 553 
Q 490 553 , 490 553 
Q 490 552 , 498 552 
Q 505 552 , 518 552 
Q 524 552 , 529 552 
Q 534 552 , 539 552 
L 539 552 
Q 532 552 , 528 552 
Q 524 552 , 519 552 
Q 509 552 , 503 552 
Q 498 552 , 498 553 
Q 498 553 , 503 553 
Q 509 553 , 519 553 
Q 524 553 , 527 553 
Q 531 553 , 532 553 
" fill="#F5C000" />
<path d="
M 540 552 
L 549 552 
L 549 553 
Q 549 553 , 553 553 
Q 556 553 , 565 553 
Q 574 553 , 577 553 
Q 581 553 , 581 553 
L 581 552 
L 590 552 
L 590 553 
Q 590 553 , 584 553 
Q 577 553 , 565 553 
Q 553 553 , 546 553 
Q 540 553 , 540 553 
L 540 552 
" fill="lightgray" />
<path d="
M 490 549 
L 499 549 
L 499 550 
Q 499 551 , 503 551 
Q 506 551 , 515 551 
Q 524 551 , 527 551 
Q 531 551 , 531 550 
L 531 549 
L 540 549 
L 540 550 
Q 540 551 , 534 551 
Q 527 551 , 515 551 
Q 503 551 , 496 551 
Q 490 551 , 490 550 
L 490 549 
" fill="#D21010" />
<path d="
M 582 551 
L 582 550 
L 568 550 
L 568 550 
L 590 550 
L 590 551 
Q 585 551 , 579 551 
Q 574 551 , 568 551 
Q 555 551 , 548 551 
Q 540 551 , 540 550 
Q 540 550 , 548 549 
Q 555 549 , 568 549 
Q 574 549 , 579 549 
Q 584 549 , 589 549 
L 589 549 
Q 582 549 , 578 549 
Q 574 549 , 569 549 
Q 559 549 , 553 549 
Q 548 550 , 548 550 
Q 548 551 , 553 551 
Q 559 551 , 569 551 
Q 574 551 , 577 551 
Q 581 551 , 582 551 
" fill="lightgray" />
<path d="
M 515 532 
L 506 540 
L 523 540 
L 515 532 
M 511 528 
L 519 528 
L 540 549 
L 532 549 
L 526 543 
L 504 543 
L 497 549 
L 490 549 
L 511 528 
" fill="#339541" />
<path d="
M 540 528 
L 549 528 
L 549 540 
Q 549 544 , 553 545 
Q 556 547 , 565 547 
Q 574 547 , 577 545 
Q 581 544 , 581 540 
L 581 528 
L 590 528 
L 590 541 
Q 590 545 , 584 547 
Q 577 549 , 565 549 
Q 553 549 , 546 547 
Q 540 545 , 540 541 
L 540 528 
" fill="lightgray" />
<path d="
M 490 498 
L 499 498 
L 499 515 
Q 499 520 , 503 522 
Q 506 524 , 515 524 
Q 524 524 , 527 522 
Q 531 520 , 531 515 
L 531 498 
L 540 498 
L 540 516 
Q 540 522 , 534 525 
Q 527 528 , 515 528 
Q 503 528 , 496 525 
Q 490 522 , 490 516 
L 490 498 
" fill="#D21010" />
<path d="
M 565 503 
L 556 515 
L 573 515 
L 565 503 
M 561 498 
L 569 498 
L 590 528 
L 582 528 
L 576 519 
L 554 519 
L 547 528 
L 540 528 
L 561 498 
" fill="lightgray" />
<path d="
M 540 251 
L 540 294 
Q 533 266 , 529 260 
Q 524 252 , 519 252 
Q 509 252 , 504 279 
Q 498 307 , 498 360 
Q 498 413 , 504 441 
Q 509 467 , 519 467 
Q 524 467 , 529 460 
Q 533 453 , 540 426 
L 540 469 
Q 535 485 , 529 491 
Q 525 497 , 519 497 
Q 505 497 , 498 460 
Q 490 423 , 490 360 
Q 490 296 , 498 260 
Q 505 222 , 519 222 
Q 525 222 , 530 229 
Q 535 235 , 540 251 
" fill="#545FFF" />
<path d="
M 582 458 
L 582 384 
L 568 384 
L 568 354 
L 590 354 
L 590 476 
Q 585 488 , 579 492 
Q 574 497 , 568 497 
Q 555 497 , 548 460 
Q 540 424 , 540 360 
Q 540 295 , 548 259 
Q 555 222 , 568 222 
Q 574 222 , 579 227 
Q 584 232 , 589 244 
L 589 279 
Q 582 264 , 578 259 
Q 574 255 , 569 255 
Q 559 255 , 553 281 
Q 548 307 , 548 360 
Q 548 414 , 553 440 
Q 559 467 , 569 467 
Q 574 467 , 577 464 
Q 581 461 , 582 458 
" fill="lightgray" />
<path d="
M 645 554 
L 627 554 
L 661 554 
L 645 554 
M 638 554 
L 652 554 
L 695 555 
L 679 555 
L 667 554 
L 623 554 
L 610 555 
L 595 555 
L 638 554 
" fill="#339541" />
<path d="
M 695 552 
L 695 552 
Q 680 552 , 672 552 
Q 664 552 , 654 552 
Q 633 552 , 623 552 
Q 611 552 , 611 552 
Q 611 553 , 623 553 
Q 633 553 , 654 553 
Q 664 553 , 672 553 
Q 680 553 , 695 553 
L 695 553 
Q 684 553 , 674 553 
Q 664 553 , 653 553 
Q 626 553 , 611 553 
Q 595 553 , 595 553 
Q 595 552 , 611 552 
Q 626 552 , 653 552 
Q 664 552 , 674 552 
Q 685 552 , 695 552 
" fill="#545FFF" />
<path d="
M 595 470 
L 613 470 
L 613 518 
Q 613 532 , 621 537 
Q 628 543 , 645 543 
Q 662 543 , 670 537 
Q 677 532 , 677 518 
L 677 470 
L 695 470 
L 695 520 
Q 695 535 , 682 544 
Q 670 552 , 645 552 
Q 621 552 , 608 544 
Q 595 535 , 595 520 
L 595 470 
" fill="#D21010" />
<path d="
M 679 456 
L 679 430 
L 650 430 
L 650 420 
L 695 420 
L 695 462 
Q 684 466 , 673 468 
Q 664 469 , 652 469 
Q 626 469 , 610 456 
Q 595 444 , 595 422 
Q 595 399 , 610 387 
Q 626 374 , 652 374 
Q 663 374 , 672 376 
Q 682 377 , 692 382 
L 692 394 
Q 679 388 , 671 387 
Q 662 385 , 653 385 
Q 632 385 , 621 394 
Q 611 403 , 611 422 
Q 611 440 , 621 450 
Q 632 459 , 653 459 
Q 662 459 , 669 458 
Q 676 457 , 679 456 
" fill="#F5C000" />
<path d="
M 800 552 
L 800 553 
Q 785 552 , 777 552 
Q 769 552 , 759 552 
Q 738 552 , 728 553 
Q 716 553 , 716 553 
Q 716 554 , 728 554 
Q 738 554 , 759 554 
Q 769 554 , 777 554 
Q 785 554 , 800 554 
L 800 554 
Q 789 554 , 779 555 
Q 769 555 , 758 555 
Q 731 555 , 716 554 
Q 700 554 , 700 553 
Q 700 553 , 716 552 
Q 731 552 , 758 552 
Q 769 552 , 779 552 
Q 790 552 , 800 552 
" fill="#545FFF" />
<path d="
M 750 549 
L 732 551 
L 766 551 
L 750 549 
M 743 549 
L 757 549 
L 800 552 
L 784 552 
L 772 551 
L 728 551 
L 715 552 
L 700 552 
L 743 549 
" fill="#339541" />
<path d="
M 700 545 
L 718 545 
L 718 547 
Q 718 548 , 726 548 
Q 733 548 , 750 548 
Q 767 548 , 775 548 
Q 782 548 , 782 547 
L 782 545 
L 800 545 
L 800 547 
Q 800 548 , 787 548 
Q 775 549 , 750 549 
Q 726 549 , 713 548 
Q 700 548 , 700 547 
L 700 545 
" fill="#D21010" />
<path d="
M 784 544 
L 784 542 
L 755 542 
L 755 542 
L 800 542 
L 800 544 
Q 789 544 , 778 544 
Q 769 544 , 757 545 
Q 731 545 , 715 544 
Q 700 543 , 700 542 
Q 700 540 , 715 540 
Q 731 539 , 757 539 
Q 768 539 , 777 539 
Q 787 539 , 797 539 
L 797 540 
Q 784 540 , 776 540 
Q 767 540 , 758 540 
Q 737 540 , 726 540 
Q 716 541 , 716 542 
Q 716 543 , 726 543 
Q 737 544 , 758 544 
Q 767 544 , 774 544 
Q 781 544 , 784 544 
" fill="#F5C000" />
<path d="
M 805 554 
L 823 554 
L 823 555 
Q 823 555 , 831 555 
Q 838 555 , 855 555 
Q 872 555 , 880 555 
Q 887 555 , 887 555 
L 887 554 
L 905 554 
L 905 555 
Q 905 555 , 892 555 
Q 880 555 , 855 555 
Q 831 555 , 818 555 
Q 805 555 , 805 555 
L 805 554 
" fill="#D21010" />
<path d="
M 905 543 
L 905 545 
Q 890 544 , 882 544 
Q 874 543 , 864 543 
Q 843 543 , 833 544 
Q 821 546 , 821 548 
Q 821 550 , 833 551 
Q 843 553 , 864 553 
Q 874 553 , 882 552 
Q 890 552 , 905 551 
L 905 553 
Q 894 553 , 884 554 
Q 874 554 , 863 554 
Q 836 554 , 821 552 
Q 805 551 , 805 548 
Q 805 545 , 821 544 
Q 836 542 , 863 542 
Q 874 542 , 884 542 
Q 895 543 , 905 543 
" fill="#545FFF" />
<path d="
M 889 535 
L 889 525 
L 860 525 
L 860 520 
L 905 520 
L 905 538 
Q 894 540 , 883 541 
Q 874 541 , 862 541 
Q 836 541 , 820 536 
Q 805 531 , 805 521 
Q 805 512 , 820 506 
Q 836 501 , 862 501 
Q 873 501 , 882 502 
Q 892 502 , 902 504 
L 902 509 
Q 889 507 , 881 506 
Q 872 506 , 863 506 
Q 842 506 , 831 510 
Q 821 513 , 821 521 
Q 821 529 , 831 533 
Q 842 537 , 863 537 
Q 872 537 , 879 536 
Q 886 536 , 889 535 
" fill="#F5C000" />
<path d="
M 855 445 
L 837 473 
L 871 473 
L 855 445 
M 848 433 
L 862 433 
L 905 501 
L 889 501 
L 877 481 
L 833 481 
L 820 501 
L 805 501 
L 848 433 
" fill="#339541" />
<path d="
M 910 554 
L 928 554 
L 928 555 
Q 928 555 , 936 555 
Q 943 555 , 960 555 
Q 977 555 , 985 555 
Q 992 555 , 992 555 
L 992 554 
L 1010 554 
L 1010 555 
Q 1010 555 , 997 555 
Q 985 555 , 960 555 
Q 936 555 , 923 555 
Q 910 555 , 910 555 
L 910 554 
" fill="#D21010" />
<path d="
M 1010 551 
L 1010 552 
Q 995 551 , 987 551 
Q 979 551 , 969 551 
Q 948 551 , 938 552 
Q 926 552 , 926 552 
Q 926 553 , 938 553 
Q 948 553 , 969 553 
Q 979 553 , 987 553 
Q 995 553 , 1010 553 
L 1010 553 
Q 999 553 , 989 553 
Q 979 554 , 968 554 
Q 941 554 , 926 553 
Q 910 553 , 910 552 
Q 910 552 , 926 551 
Q 941 551 , 968 551 
Q 979 551 , 989 551 
Q 1000 551 , 1010 551 
" fill="#545FFF" />
<path d="
M 960 548 
L 942 549 
L 976 549 
L 960 548 
M 953 547 
L 967 547 
L 1010 551 
L 994 551 
L 982 550 
L 938 550 
L 925 551 
L 910 551 
L 953 547 
" fill="#339541" />
<path d="
M 994 496 
L 994 403 
L 965 403 
L 965 365 
L 1010 365 
L 1010 519 
Q 999 534 , 988 540 
Q 979 546 , 967 546 
Q 941 546 , 925 500 
Q 910 454 , 910 373 
Q 910 292 , 925 246 
Q 941 199 , 967 199 
Q 978 199 , 987 205 
Q 997 211 , 1007 227 
L 1007 271 
Q 994 252 , 986 246 
Q 977 240 , 968 240 
Q 947 240 , 936 273 
Q 926 306 , 926 373 
Q 926 441 , 936 474 
Q 947 507 , 968 507 
Q 977 507 , 984 504 
Q 991 501 , 994 496 
" fill="#F5C000" />
<path d="
M 1057 555 
L 1057 554 
L 1043 554 
L 1043 554 
L 1065 554 
L 1065 555 
Q 1060 555 , 1054 555 
Q 1049 555 , 1043 555 
Q 1030 555 , 1023 555 
Q 1015 554 , 1015 554 
Q 1015 554 , 1023 554 
Q 1030 554 , 1043 554 
Q 1049 554 , 1054 554 
Q 1059 554 , 1064 554 
L 1064 554 
Q 1057 554 , 1053 554 
Q 1049 554 , 1044 554 
Q 1034 554 , 1028 554 
Q 1023 554 , 1023 554 
Q 1023 554 , 1028 554 
Q 1034 555 , 1044 555 
Q 1049 555 , 1052 555 
Q 1056 555 , 1057 555 
" fill="lightgray" />
<path d="
M 1115 554 
L 1115 554 
Q 1108 554 , 1104 554 
Q 1099 554 , 1094 554 
Q 1084 554 , 1079 554 
Q 1073 554 , 1073 554 
Q 1073 554 , 1079 554 
Q 1084 555 , 1094 555 
Q 1099 555 , 1104 555 
Q 1108 555 , 1115 554 
L 1115 555 
Q 1110 555 , 1104 555 
Q 1100 555 , 1094 555 
Q 1080 555 , 1073 555 
Q 1065 554 , 1065 554 
Q 1065 554 , 1073 554 
Q 1080 554 , 1094 554 
Q 1100 554 , 1105 554 
Q 1110 554 , 1115 554 
" fill="#545FFF" />
<path d="
M 1057 553 
L 1057 553 
L 1043 553 
L 1043 553 
L 1065 553 
L 1065 553 
Q 1060 553 , 1054 553 
Q 1049 553 , 1043 553 
Q 1030 553 , 1023 553 
Q 1015 553 , 1015 553 
Q 1015 552 , 1023 552 
Q 1030 552 , 1043 552 
Q 1049 552 , 1054 552 
Q 1059 552 , 1064 552 
L 1064 552 
Q 1057 552 , 1053 552 
Q 1049 552 , 1044 552 
Q 1034 552 , 1028 552 
Q 1023 552 , 1023 553 
Q 1023 553 , 1028 553 
Q 1034 553 , 1044 553 
Q 1049 553 , 1052 553 
Q 1056 553 , 1057 553 
" fill="lightgray" />
<path d="
M 1065 552 
L 1074 552 
L 1074 553 
Q 1074 553 , 1078 553 
Q 1081 553 , 1090 553 
Q 1099 553 , 1102 553 
Q 1106 553 , 1106 553 
L 1106 552 
L 1115 552 
L 1115 553 
Q 1115 553 , 1109 553 
Q 1102 553 , 1090 553 
Q 1078 553 , 1071 553 
Q 1065 553 , 1065 553 
L 1065 552 
" fill="#D21010" />
<path d="
M 1015 549 
L 1024 549 
L 1024 550 
Q 1024 551 , 1028 551 
Q 1031 551 , 1040 551 
Q 1049 551 , 1052 551 
Q 1056 551 , 1056 550 
L 1056 549 
L 1065 549 
L 1065 550 
Q 1065 551 , 1059 551 
Q 1052 551 , 1040 551 
Q 1028 551 , 1021 551 
Q 1015 551 , 1015 550 
L 1015 549 
" fill="lightgray" />
<path d="
M 1107 551 
L 1107 550 
L 1093 550 
L 1093 550 
L 1115 550 
L 1115 551 
Q 1110 551 , 1104 551 
Q 1099 551 , 1093 551 
Q 1080 551 , 1073 551 
Q 1065 551 , 1065 550 
Q 1065 550 , 1073 549 
Q 1080 549 , 1093 549 
Q 1099 549 , 1104 549 
Q 1109 549 , 1114 549 
L 1114 549 
Q 1107 549 , 1103 549 
Q 1099 549 , 1094 549 
Q 1084 549 , 1078 549 
Q 1073 550 , 1073 550 
Q 1073 551 , 1078 551 
Q 1084 551 , 1094 551 
Q 1099 551 , 1102 551 
Q 1106 551 , 1107 551 
" fill="#F5C000" />
<path d="
M 1040 532 
L 1031 540 
L 1048 540 
L 1040 532 
M 1036 528 
L 1044 528 
L 1065 549 
L 1057 549 
L 1051 543 
L 1029 543 
L 1022 549 
L 1015 549 
L 1036 528 
" fill="lightgray" />
<path d="
M 1065 528 
L 1074 528 
L 1074 540 
Q 1074 544 , 1078 545 
Q 1081 547 , 1090 547 
Q 1099 547 , 1102 545 
Q 1106 544 , 1106 540 
L 1106 528 
L 1115 528 
L 1115 541 
Q 1115 545 , 1109 547 
Q 1102 549 , 1090 549 
Q 1078 549 , 1071 547 
Q 1065 545 , 1065 541 
L 1065 528 
" fill="#D21010" />
<path d="
M 1015 498 
L 1024 498 
L 1024 515 
Q 1024 520 , 1028 522 
Q 1031 524 , 1040 524 
Q 1049 524 , 1052 522 
Q 1056 520 , 1056 515 
L 1056 498 
L 1065 498 
L 1065 516 
Q 1065 522 , 1059 525 
Q 1052 528 , 1040 528 
Q 1028 528 , 1021 525 
Q 1015 522 , 1015 516 
L 1015 498 
" fill="lightgray" />
<path d="
M 1090 503 
L 1081 515 
L 1098 515 
L 1090 503 
M 1086 498 
L 1094 498 
L 1115 528 
L 1107 528 
L 1101 519 
L 1079 519 
L 1072 528 
L 1065 528 
L 1086 498 
" fill="#339541" />
<path d="
M 1065 251 
L 1065 294 
Q 1058 266 , 1054 260 
Q 1049 252 , 1044 252 
Q 1034 252 , 1029 279 
Q 1023 307 , 1023 360 
Q 1023 413 , 1029 441 
Q 1034 467 , 1044 467 
Q 1049 467 , 1054 460 
Q 1058 453 , 1065 426 
L 1065 469 
Q 1060 485 , 1054 491 
Q 1050 497 , 1044 497 
Q 1030 497 , 1023 460 
Q 1015 423 , 1015 360 
Q 1015 296 , 1023 260 
Q 1030 222 , 1044 222 
Q 1050 222 , 1055 229 
Q 1060 235 , 1065 251 
" fill="lightgray" />
<path d="
M 1107 458 
L 1107 384 
L 1093 384 
L 1093 354 
L 1115 354 
L 1115 476 
Q 1110 488 , 1104 492 
Q 1099 497 , 1093 497 
Q 1080 497 , 1073 460 
Q 1065 424 , 1065 360 
Q 1065 295 , 1073 259 
Q 1080 222 , 1093 222 
Q 1099 222 , 1104 227 
Q 1109 232 , 1114 244 
L 1114 279 
Q 1107 264 , 1103 259 
Q 1099 255 , 1094 255 
Q 1084 255 , 1078 281 
Q 1073 307 , 1073 360 
Q 1073 414 , 1078 440 
Q 1084 467 , 1094 467 
Q 1099 467 , 1102 464 
Q 1106 461 , 1107 458 
" fill="#F5C000" />
<path d="
M 1204 554 
L 1204 553 
L 1175 553 
L 1175 553 
L 1220 553 
L 1220 554 
Q 1209 554 , 1198 554 
Q 1189 555 , 1177 555 
Q 1151 555 , 1135 554 
Q 1120 554 , 1120 553 
Q 1120 553 , 1135 552 
Q 1151 552 , 1177 552 
Q 1188 552 , 1197 552 
Q 1207 552 , 1217 552 
L 1217 553 
Q 1204 552 , 1196 552 
Q 1187 552 , 1178 552 
Q 1157 552 , 1146 553 
Q 1136 553 , 1136 553 
Q 1136 554 , 1146 554 
Q 1157 554 , 1178 554 
Q 1187 554 , 1194 554 
Q 1201 554 , 1204 554 
" fill="#F5C000" />
<path d="
M 1220 540 
L 1220 542 
Q 1205 541 , 1197 541 
Q 1189 540 , 1179 540 
Q 1158 540 , 1148 542 
Q 1136 543 , 1136 545 
Q 1136 548 , 1148 549 
Q 1158 550 , 1179 550 
Q 1189 550 , 1197 550 
Q 1205 549 , 1220 548 
L 1220 550 
Q 1209 551 , 1199 551 
Q 1189 551 , 1178 551 
Q 1151 551 , 1136 550 
Q 1120 548 , 1120 545 
Q 1120 542 , 1136 541 
Q 1151 539 , 1178 539 
Q 1189 539 , 1199 539 
Q 1210 540 , 1220 540 
" fill="#545FFF" />
<path d="
M 1120 510 
L 1138 510 
L 1138 527 
Q 1138 532 , 1146 534 
Q 1153 536 , 1170 536 
Q 1187 536 , 1195 534 
Q 1202 532 , 1202 527 
L 1202 510 
L 1220 510 
L 1220 527 
Q 1220 533 , 1207 536 
Q 1195 539 , 1170 539 
Q 1146 539 , 1133 536 
Q 1120 533 , 1120 527 
L 1120 510 
" fill="#D21010" />
<path d="
M 1170 458 
L 1152 484 
L 1186 484 
L 1170 458 
M 1163 447 
L 1177 447 
L 1220 509 
L 1204 509 
L 1192 491 
L 1148 491 
L 1135 509 
L 1120 509 
L 1163 447 
" fill="#339541" />
<path d="
M 1225 554 
L 1234 554 
L 1234 554 
Q 1234 554 , 1238 554 
Q 1241 555 , 1250 555 
Q 1259 555 , 1262 554 
Q 1266 554 , 1266 554 
L 1266 554 
L 1275 554 
L 1275 554 
Q 1275 554 , 1269 555 
Q 1262 555 , 1250 555 
Q 1238 555 , 1231 555 
Q 1225 554 , 1225 554 
L 1225 554 
" fill="lightgray" />
<path d="
M 1317 555 
L 1317 554 
L 1303 554 
L 1303 554 
L 1325 554 
L 1325 555 
Q 1320 555 , 1314 555 
Q 1309 555 , 1303 555 
Q 1290 555 , 1283 555 
Q 1275 554 , 1275 554 
Q 1275 554 , 1283 554 
Q 1290 554 , 1303 554 
Q 1309 554 , 1314 554 
Q 1319 554 , 1324 554 
L 1324 554 
Q 1317 554 , 1313 554 
Q 1309 554 , 1304 554 
Q 1294 554 , 1288 554 
Q 1283 554 , 1283 554 
Q 1283 554 , 1288 554 
Q 1294 555 , 1304 555 
Q 1309 555 , 1312 555 
Q 1316 555 , 1317 555 
" fill="#F5C000" />
<path d="
M 1225 553 
L 1234 553 
L 1234 553 
Q 1234 554 , 1238 554 
Q 1241 554 , 1250 554 
Q 1259 554 , 1262 554 
Q 1266 554 , 1266 553 
L 1266 553 
L 1275 553 
L 1275 553 
Q 1275 554 , 1269 554 
Q 1262 554 , 1250 554 
Q 1238 554 , 1231 554 
Q 1225 554 , 1225 553 
L 1225 553 
" fill="lightgray" />
<path d="
M 1300 553 
L 1291 553 
L 1308 553 
L 1300 553 
M 1296 553 
L 1304 553 
L 1325 554 
L 1317 554 
L 1311 553 
L 1289 553 
L 1282 554 
L 1275 554 
L 1296 553 
" fill="#339541" />
<path d="
M 1267 552 
L 1267 552 
L 1253 552 
L 1253 552 
L 1275 552 
L 1275 552 
Q 1270 552 , 1264 552 
Q 1259 552 , 1253 552 
Q 1240 552 , 1233 552 
Q 1225 552 , 1225 552 
Q 1225 551 , 1233 551 
Q 1240 551 , 1253 551 
Q 1259 551 , 1264 551 
Q 1269 551 , 1274 551 
L 1274 551 
Q 1267 551 , 1263 551 
Q 1259 551 , 1254 551 
Q 1244 551 , 1238 551 
Q 1233 551 , 1233 552 
Q 1233 552 , 1238 552 
Q 1244 552 , 1254 552 
Q 1259 552 , 1262 552 
Q 1266 552 , 1267 552 
" fill="lightgray" />
<path d="
M 1275 551 
L 1284 551 
L 1284 552 
Q 1284 552 , 1288 552 
Q 1291 552 , 1300 552 
Q 1309 552 , 1312 552 
Q 1316 552 , 1316 552 
L 1316 551 
L 1325 551 
L 1325 552 
Q 1325 552 , 1319 552 
Q 1312 552 , 1300 552 
Q 1288 552 , 1281 552 
Q 1275 552 , 1275 552 
L 1275 551 
" fill="#D21010" />
<path d="
M 1275 515 
L 1275 521 
Q 1268 517 , 1264 516 
Q 1259 515 , 1254 515 
Q 1244 515 , 1239 519 
Q 1233 523 , 1233 530 
Q 1233 538 , 1239 542 
Q 1244 546 , 1254 546 
Q 1259 546 , 1264 545 
Q 1268 544 , 1275 540 
L 1275 546 
Q 1270 549 , 1264 549 
Q 1260 550 , 1254 550 
Q 1240 550 , 1233 545 
Q 1225 540 , 1225 531 
Q 1225 522 , 1233 516 
Q 1240 511 , 1254 511 
Q 1260 511 , 1265 512 
Q 1270 513 , 1275 515 
" fill="lightgray" />
<path d="
M 1317 545 
L 1317 534 
L 1303 534 
L 1303 530 
L 1325 530 
L 1325 547 
Q 1320 549 , 1314 550 
Q 1309 550 , 1303 550 
Q 1290 550 , 1283 545 
Q 1275 540 , 1275 531 
Q 1275 522 , 1283 516 
Q 1290 511 , 1303 511 
Q 1309 511 , 1314 512 
Q 1319 512 , 1324 514 
L 1324 519 
Q 1317 517 , 1313 516 
Q 1309 516 , 1304 516 
Q 1294 516 , 1288 519 
Q 1283 523 , 1283 531 
Q 1283 538 , 1288 542 
Q 1294 546 , 1304 546 
Q 1309 546 , 1312 546 
Q 1316 545 , 1317 545 
" fill="#F5C000" />
<path d="
M 1267 502 
L 1267 488 
L 1253 488 
L 1253 481 
L 1275 481 
L 1275 506 
Q 1270 508 , 1264 509 
Q 1259 510 , 1253 510 
Q 1240 510 , 1233 503 
Q 1225 496 , 1225 483 
Q 1225 470 , 1233 462 
Q 1240 455 , 1253 455 
Q 1259 455 , 1264 456 
Q 1269 457 , 1274 459 
L 1274 467 
Q 1267 463 , 1263 462 
Q 1259 462 , 1254 462 
Q 1244 462 , 1238 467 
Q 1233 472 , 1233 483 
Q 1233 494 , 1238 499 
Q 1244 504 , 1254 504 
Q 1259 504 , 1262 504 
Q 1266 503 , 1267 502 
" fill="lightgray" />
<path d="
M 1325 461 
L 1325 469 
Q 1318 464 , 1314 463 
Q 1309 461 , 1304 461 
Q 1294 461 , 1289 466 
Q 1283 472 , 1283 482 
Q 1283 493 , 1289 499 
Q 1294 504 , 1304 504 
Q 1309 504 , 1314 503 
Q 1318 501 , 1325 496 
L 1325 505 
Q 1320 508 , 1314 509 
Q 1310 510 , 1304 510 
Q 1290 510 , 1283 503 
Q 1275 495 , 1275 483 
Q 1275 470 , 1283 463 
Q 1290 455 , 1304 455 
Q 1310 455 , 1315 456 
Q 1320 458 , 1325 461 
" fill="#545FFF" />
<path d="
M 1250 377 
L 1241 415 
L 1258 415 
L 1250 377 
M 1246 359 
L 1254 359 
L 1275 455 
L 1267 455 
L 1261 426 
L 1239 426 
L 1232 455 
L 1225 455 
L 1246 359 
" fill="lightgray" />
<path d="
M 1275 359 
L 1284 359 
L 1284 415 
Q 1284 431 , 1288 438 
Q 1291 444 , 1300 444 
Q 1309 444 , 1312 438 
Q 1316 431 , 1316 415 
L 1316 359 
L 1325 359 
L 1325 417 
Q 1325 435 , 1319 445 
Q 1312 455 , 1300 455 
Q 1288 455 , 1281 445 
Q 1275 435 , 1275 417 
L 1275 359 
" fill="#D21010" />
<path d="
M 1430 552 
L 1430 553 
Q 1415 552 , 1407 552 
Q 1399 552 , 1389 552 
Q 1368 552 , 1358 553 
Q 1346 553 , 1346 553 
Q 1346 554 , 1358 554 
Q 1368 554 , 1389 554 
Q 1399 554 , 1407 554 
Q 1415 554 , 1430 554 
L 1430 554 
Q 1419 554 , 1409 555 
Q 1399 555 , 1388 555 
Q 1361 555 , 1346 554 
Q 1330 554 , 1330 553 
Q 1330 553 , 1346 552 
Q 1361 552 , 1388 552 
Q 1399 552 , 1409 552 
Q 1420 552 , 1430 552 
" fill="#545FFF" />
<path d="
M 1380 549 
L 1362 551 
L 1396 551 
L 1380 549 
M 1373 549 
L 1387 549 
L 1430 552 
L 1414 552 
L 1402 551 
L 1358 551 
L 1345 552 
L 1330 552 
L 1373 549 
" fill="#339541" />
<path d="
M 1330 545 
L 1348 545 
L 1348 547 
Q 1348 548 , 1356 548 
Q 1363 548 , 1380 548 
Q 1397 548 , 1405 548 
Q 1412 548 , 1412 547 
L 1412 545 
L 1430 545 
L 1430 547 
Q 1430 548 , 1417 548 
Q 1405 549 , 1380 549 
Q 1356 549 , 1343 548 
Q 1330 548 , 1330 547 
L 1330 545 
" fill="#D21010" />
<path d="
M 1414 544 
L 1414 542 
L 1385 542 
L 1385 542 
L 1430 542 
L 1430 544 
Q 1419 544 , 1408 544 
Q 1399 544 , 1387 545 
Q 1361 545 , 1345 544 
Q 1330 543 , 1330 542 
Q 1330 540 , 1345 540 
Q 1361 539 , 1387 539 
Q 1398 539 , 1407 539 
Q 1417 539 , 1427 539 
L 1427 540 
Q 1414 540 , 1406 540 
Q 1397 540 , 1388 540 
Q 1367 540 , 1356 540 
Q 1346 541 , 1346 542 
Q 1346 543 , 1356 543 
Q 1367 544 , 1388 544 
Q 1397 544 , 1404 544 
Q 1411 544 , 1414 544 
" fill="#F5C000" />
<path d="M 65 168 L 65 555 " stroke="black" stroke-width="1.5"/>
<path d="M 55 555 L 65 555 " stroke="black" stroke-width="4"/>
<text text-anchor="end" x="50" y="555" font-size="50" alignment-baseline="middle">0</text>
<path d="M 55 362 L 65 362 " stroke="black" stroke-width="4"/>
<text text-anchor="end" x="50" y="362" font-size="50" alignment-baseline="middle">1</text>
<path d="M 55 168 L 65 168 " stroke="black" stroke-width="4"/>
<text text-anchor="end" x="50" y="168" font-size="50" alignment-baseline="middle">2</text>
<text text-anchor="middle" x="750" y="50" font-size="50" alignment-baseline="baseline"></text>
G<path d="
M 160 582 
L 126 595 
L 160 608 
L 157 611 
L 123 598 
L 123 623 
L 117 623 
L 117 599 
L 83 611 
L 80 608 
L 114 595 
L 80 582 
L 83 579 
L 117 591 
L 117 567 
L 123 567 
L 123 591 
L 157 579 
L 160 582 
" fill="black" />
<path d="
M 265 567 
Q 236 574 , 223 581 
Q 210 588 , 210 595 
Q 210 602 , 223 609 
Q 236 616 , 265 623 
L 241 623 
Q 213 616 , 199 609 
Q 185 602 , 185 595 
Q 185 588 , 199 581 
Q 213 574 , 241 567 
L 265 567 
" fill="black" />
<path d="
" fill="black" />
<path d="
M 316 567 
L 343 567 
L 343 623 
L 316 623 
L 316 567 
" fill="black" />
<path d="
" fill="black" />
<path d="
" fill="black" />
<path d="
M 421 567 
L 448 567 
L 448 623 
L 421 623 
L 421 567 
" fill="black" />
<path d="
" fill="black" />
<path d="
M 580 567 
Q 551 574 , 538 581 
Q 525 588 , 525 595 
Q 525 602 , 538 609 
Q 551 616 , 580 623 
L 556 623 
Q 528 616 , 514 609 
Q 500 602 , 500 595 
Q 500 588 , 514 581 
Q 528 574 , 556 567 
L 580 567 
" fill="black" />
<path d="
" fill="black" />
<path d="
M 622 567 
L 642 567 
L 642 623 
L 622 623 
L 622 567 
" fill="black" />
<path d="
" fill="black" />
<path d="
M 674 621 
L 674 616 
Q 675 618 , 677 619 
Q 678 619 , 680 619 
Q 686 619 , 688 609 
Q 689 604 , 689 595 
Q 689 597 , 687 600 
Q 685 603 , 681 603 
Q 677 603 , 675 598 
Q 672 593 , 672 586 
Q 672 577 , 675 572 
Q 677 567 , 682 567 
Q 687 567 , 689 574 
Q 692 581 , 692 595 
Q 692 609 , 689 616 
Q 685 623 , 680 623 
Q 678 623 , 677 622 
Q 675 622 , 674 621 
M 676 595 
Q 678 599 , 681 599 
Q 685 599 , 687 595 
Q 689 591 , 689 584 
Q 689 578 , 687 574 
Q 685 571 , 681 571 
Q 678 571 , 676 574 
Q 675 578 , 675 584 
Q 675 591 , 676 595 
" fill="black" />
<path d="
M 790 582 
L 756 595 
L 790 608 
L 787 611 
L 753 598 
L 753 623 
L 747 623 
L 747 599 
L 713 611 
L 710 608 
L 744 595 
L 710 582 
L 713 579 
L 747 591 
L 747 567 
L 753 567 
L 753 591 
L 787 579 
L 790 582 
" fill="black" />
<path d="
" fill="black" />
<path d="
M 841 567 
L 868 567 
L 868 623 
L 841 623 
L 841 567 
" fill="black" />
<path d="
" fill="black" />
<path d="
" fill="black" />
<path d="
M 946 567 
L 973 567 
L 973 623 
L 946 623 
L 946 567 
" fill="black" />
<path d="
" fill="black" />
<path d="
M 1025 567 
L 1049 567 
Q 1077 574 , 1091 581 
Q 1105 588 , 1105 595 
Q 1105 602 , 1091 609 
Q 1077 616 , 1049 623 
L 1025 623 
Q 1054 616 , 1067 609 
Q 1080 602 , 1080 595 
Q 1080 588 , 1067 581 
Q 1054 574 , 1025 567 
" fill="black" />
<path d="
" fill="black" />
<path d="
M 1156 567 
L 1183 567 
L 1183 623 
L 1156 623 
L 1156 567 
" fill="black" />
<path d="
" fill="black" />
<path d="
M 1235 567 
L 1259 567 
Q 1287 574 , 1301 581 
Q 1315 588 , 1315 595 
Q 1315 602 , 1301 609 
Q 1287 616 , 1259 623 
L 1235 623 
Q 1264 616 , 1277 609 
Q 1290 602 , 1290 595 
Q 1290 588 , 1277 581 
Q 1264 574 , 1235 567 
" fill="black" />
<path d="
M 1420 582 
L 1386 595 
L 1420 608 
L 1417 611 
L 1383 598 
L 1383 623 
L 1377 623 
L 1377 599 
L 1343 611 
L 1340 608 
L 1374 595 
L 1340 582 
L 1343 579 
L 1377 591 
L 1377 567 
L 1383 567 
L 1383 591 
L 1417 579 
L 1420 582 
" fill="black" />
</svg>
