<svg xmlns="http://www.w3.org/2000/svg"
viewBox="0 0 1435 635">
<path d="
M 170 552 
L 170 553 
Q 155 552 , 147 552 
Q 139 552 , 129 552 
Q 108 552 , 98 552 
Q 86 553 , 86 553 
Q 86 554 , 98 554 
Q 108 554 , 129 554 
Q 139 554 , 147 554 
Q 155 554 , 170 554 
L 170 554 
Q 159 554 , 149 554 
Q 139 554 , 128 554 
Q 101 554 , 86 554 
Q 70 554 , 70 553 
Q 70 553 , 86 552 
Q 101 552 , 128 552 
Q 139 552 , 149 552 
Q 160 552 , 170 552 
" fill="#545FFF" />
<path d="
M 120 549 
L 102 550 
L 136 550 
L 120 549 
M 113 549 
L 127 549 
L 170 552 
L 154 552 
L 142 551 
L 98 551 
L 85 552 
L 70 552 
L 113 549 
" fill="#339541" />
<path d="
M 70 545 
L 88 545 
L 88 547 
Q 88 547 , 96 548 
Q 103 548 , 120 548 
Q 137 548 , 145 548 
Q 152 547 , 152 547 
L 152 545 
L 170 545 
L 170 547 
Q 170 548 , 157 548 
Q 145 548 , 120 548 
Q 96 548 , 83 548 
Q 70 548 , 70 547 
L 70 545 
" fill="#D21010" />
<path d="
M 154 544 
L 154 543 
L 125 543 
L 125 542 
L 170 542 
L 170 545 
Q 159 545 , 148 545 
Q 139 545 , 127 545 
Q 101 545 , 85 544 
Q 70 544 , 70 542 
Q 70 541 , 85 541 
Q 101 540 , 127 540 
Q 138 540 , 147 540 
Q 157 540 , 167 540 
L 167 541 
Q 154 541 , 146 541 
Q 137 541 , 128 541 
Q 107 541 , 96 541 
Q 86 542 , 86 542 
Q 86 543 , 96 544 
Q 107 544 , 128 544 
Q 137 544 , 144 544 
Q 151 544 , 154 544 
" fill="#F5C000" />
<path d="
M 175 554 
L 184 554 
L 184 554 
Q 184 554 , 188 554 
Q 191 554 , 200 554 
Q 209 554 , 212 554 
Q 216 554 , 216 554 
L 216 554 
L 225 554 
L 225 554 
Q 225 554 , 219 554 
Q 212 554 , 200 554 
Q 188 554 , 181 554 
Q 175 554 , 175 554 
L 175 554 
" fill="#D21010" />
<path d="
M 267 554 
L 267 554 
L 253 554 
L 253 554 
L 275 554 
L 275 554 
Q 270 554 , 264 554 
Q 259 554 , 253 554 
Q 240 554 , 233 554 
Q 225 554 , 225 554 
Q 225 554 , 233 554 
Q 240 554 , 253 554 
Q 259 554 , 264 554 
Q 269 554 , 274 554 
L 274 554 
Q 267 554 , 263 554 
Q 259 554 , 254 554 
Q 244 554 , 238 554 
Q 233 554 , 233 554 
Q 233 554 , 238 554 
Q 244 554 , 254 554 
Q 259 554 , 262 554 
Q 266 554 , 267 554 
" fill="lightgray" />
<path d="
M 175 553 
L 184 553 
L 184 554 
Q 184 554 , 188 554 
Q 191 554 , 200 554 
Q 209 554 , 212 554 
Q 216 554 , 216 554 
L 216 553 
L 225 553 
L 225 554 
Q 225 554 , 219 554 
Q 212 554 , 200 554 
Q 188 554 , 181 554 
Q 175 554 , 175 554 
L 175 553 
" fill="#D21010" />
<path d="
M 250 553 
L 241 554 
L 258 554 
L 250 553 
M 246 553 
L 254 553 
L 275 554 
L 267 554 
L 261 554 
L 239 554 
L 232 554 
L 225 554 
L 246 553 
" fill="lightgray" />
<path d="
M 225 550 
L 225 551 
Q 218 550 , 214 550 
Q 209 550 , 204 550 
Q 194 550 , 189 550 
Q 183 551 , 183 551 
Q 183 552 , 189 552 
Q 194 552 , 204 552 
Q 209 552 , 214 552 
Q 218 552 , 225 552 
L 225 552 
Q 220 552 , 214 552 
Q 210 552 , 204 552 
Q 190 552 , 183 552 
Q 175 552 , 175 551 
Q 175 551 , 183 550 
Q 190 550 , 204 550 
Q 210 550 , 215 550 
Q 220 550 , 225 550 
" fill="#545FFF" />
<path d="
M 267 552 
L 267 551 
L 253 551 
L 253 551 
L 275 551 
L 275 552 
Q 270 552 , 264 552 
Q 259 552 , 253 552 
Q 240 552 , 233 552 
Q 225 552 , 225 551 
Q 225 551 , 233 550 
Q 240 550 , 253 550 
Q 259 550 , 264 550 
Q 269 550 , 274 550 
L 274 550 
Q 267 550 , 263 550 
Q 259 550 , 254 550 
Q 244 550 , 238 550 
Q 233 551 , 233 551 
Q 233 552 , 238 552 
Q 244 552 , 254 552 
Q 259 552 , 262 552 
Q 266 552 , 267 552 
" fill="lightgray" />
<path d="
M 217 547 
L 217 541 
L 203 541 
L 203 539 
L 225 539 
L 225 548 
Q 220 549 , 214 549 
Q 209 549 , 203 549 
Q 190 549 , 183 547 
Q 175 544 , 175 540 
Q 175 535 , 183 533 
Q 190 530 , 203 530 
Q 209 530 , 214 530 
Q 219 531 , 224 532 
L 224 534 
Q 217 533 , 213 533 
Q 209 532 , 204 532 
Q 194 532 , 188 534 
Q 183 536 , 183 540 
Q 183 544 , 188 545 
Q 194 547 , 204 547 
Q 209 547 , 212 547 
Q 216 547 , 217 547 
" fill="#F5C000" />
<path d="
M 225 530 
L 234 530 
L 234 541 
Q 234 545 , 238 546 
Q 241 547 , 250 547 
Q 259 547 , 262 546 
Q 266 545 , 266 541 
L 266 530 
L 275 530 
L 275 542 
Q 275 545 , 269 547 
Q 262 549 , 250 549 
Q 238 549 , 231 547 
Q 225 545 , 225 542 
L 225 530 
" fill="lightgray" />
<path d="
M 200 487 
L 191 508 
L 208 508 
L 200 487 
M 196 478 
L 204 478 
L 225 530 
L 217 530 
L 211 514 
L 189 514 
L 182 530 
L 175 530 
L 196 478 
" fill="#339541" />
<path d="
M 225 478 
L 234 478 
L 234 508 
Q 234 517 , 238 520 
Q 241 524 , 250 524 
Q 259 524 , 262 520 
Q 266 517 , 266 508 
L 266 478 
L 275 478 
L 275 509 
Q 275 519 , 269 524 
Q 262 530 , 250 530 
Q 238 530 , 231 524 
Q 225 519 , 225 509 
L 225 478 
" fill="lightgray" />
<path d="
M 217 448 
L 217 393 
L 203 393 
L 203 370 
L 225 370 
L 225 462 
Q 220 471 , 214 474 
Q 209 478 , 203 478 
Q 190 478 , 183 450 
Q 175 423 , 175 375 
Q 175 327 , 183 300 
Q 190 272 , 203 272 
Q 209 272 , 214 276 
Q 219 279 , 224 289 
L 224 315 
Q 217 303 , 213 300 
Q 209 297 , 204 297 
Q 194 297 , 188 316 
Q 183 335 , 183 375 
Q 183 416 , 188 435 
Q 194 455 , 204 455 
Q 209 455 , 212 453 
Q 216 451 , 217 448 
" fill="#F5C000" />
<path d="
M 275 294 
L 275 326 
Q 268 305 , 264 300 
Q 259 295 , 254 295 
Q 244 295 , 239 315 
Q 233 335 , 233 375 
Q 233 415 , 239 436 
Q 244 456 , 254 456 
Q 259 456 , 264 450 
Q 268 445 , 275 424 
L 275 457 
Q 270 468 , 264 473 
Q 260 478 , 254 478 
Q 240 478 , 233 450 
Q 225 422 , 225 375 
Q 225 328 , 233 300 
Q 240 272 , 254 272 
Q 260 272 , 265 277 
Q 270 282 , 275 294 
" fill="lightgray" />
<path d="
M 280 554 
L 289 554 
L 289 554 
Q 289 554 , 293 554 
Q 296 554 , 305 554 
Q 314 554 , 317 554 
Q 321 554 , 321 554 
L 321 554 
L 330 554 
L 330 554 
Q 330 554 , 324 554 
Q 317 555 , 305 555 
Q 293 555 , 286 554 
Q 280 554 , 280 554 
L 280 554 
" fill="#D21010" />
<path d="
M 372 554 
L 372 554 
L 358 554 
L 358 554 
L 380 554 
L 380 554 
Q 375 554 , 369 554 
Q 364 554 , 358 554 
Q 345 554 , 338 554 
Q 330 554 , 330 554 
Q 330 554 , 338 554 
Q 345 554 , 358 554 
Q 364 554 , 369 554 
Q 374 554 , 379 554 
L 379 554 
Q 372 554 , 368 554 
Q 364 554 , 359 554 
Q 349 554 , 343 554 
Q 338 554 , 338 554 
Q 338 554 , 343 554 
Q 349 554 , 359 554 
Q 364 554 , 367 554 
Q 371 554 , 372 554 
" fill="lightgray" />
<path d="
M 322 553 
L 322 553 
L 308 553 
L 308 553 
L 330 553 
L 330 553 
Q 325 553 , 319 553 
Q 314 553 , 308 553 
Q 295 553 , 288 553 
Q 280 553 , 280 553 
Q 280 552 , 288 552 
Q 295 552 , 308 552 
Q 314 552 , 319 552 
Q 324 552 , 329 552 
L 329 552 
Q 322 552 , 318 552 
Q 314 552 , 309 552 
Q 299 552 , 293 552 
Q 288 552 , 288 553 
Q 288 553 , 293 553 
Q 299 553 , 309 553 
Q 314 553 , 317 553 
Q 321 553 , 322 553 
" fill="#F5C000" />
<path d="
M 380 552 
L 380 552 
Q 373 552 , 369 552 
Q 364 552 , 359 552 
Q 349 552 , 344 552 
Q 338 552 , 338 552 
Q 338 553 , 344 553 
Q 349 553 , 359 553 
Q 364 553 , 369 553 
Q 373 553 , 380 553 
L 380 553 
Q 375 553 , 369 553 
Q 365 553 , 359 553 
Q 345 553 , 338 553 
Q 330 553 , 330 553 
Q 330 552 , 338 552 
Q 345 552 , 359 552 
Q 365 552 , 370 552 
Q 375 552 , 380 552 
" fill="lightgray" />
<path d="
M 322 551 
L 322 551 
L 308 551 
L 308 551 
L 330 551 
L 330 551 
Q 325 551 , 319 551 
Q 314 551 , 308 551 
Q 295 551 , 288 551 
Q 280 551 , 280 551 
Q 280 550 , 288 550 
Q 295 550 , 308 550 
Q 314 550 , 319 550 
Q 324 550 , 329 550 
L 329 550 
Q 322 550 , 318 550 
Q 314 550 , 309 550 
Q 299 550 , 293 550 
Q 288 550 , 288 551 
Q 288 551 , 293 551 
Q 299 551 , 309 551 
Q 314 551 , 317 551 
Q 321 551 , 322 551 
" fill="#F5C000" />
<path d="
M 330 550 
L 339 550 
L 339 551 
Q 339 551 , 343 551 
Q 346 551 , 355 551 
Q 364 551 , 367 551 
Q 371 551 , 371 551 
L 371 550 
L 380 550 
L 380 551 
Q 380 551 , 374 551 
Q 367 551 , 355 551 
Q 343 551 , 336 551 
Q 330 551 , 330 551 
L 330 550 
" fill="lightgray" />
<path d="
M 305 547 
L 296 548 
L 313 548 
L 305 547 
M 301 547 
L 309 547 
L 330 549 
L 322 549 
L 316 548 
L 294 548 
L 287 549 
L 280 549 
L 301 547 
" fill="#339541" />
<path d="
M 330 547 
L 339 547 
L 339 548 
Q 339 549 , 343 549 
Q 346 549 , 355 549 
Q 364 549 , 367 549 
Q 371 549 , 371 548 
L 371 547 
L 380 547 
L 380 548 
Q 380 549 , 374 549 
Q 367 549 , 355 549 
Q 343 549 , 336 549 
Q 330 549 , 330 548 
L 330 547 
" fill="lightgray" />
<path d="
M 330 458 
L 330 473 
Q 323 463 , 319 461 
Q 314 458 , 309 458 
Q 299 458 , 294 468 
Q 288 478 , 288 497 
Q 288 516 , 294 526 
Q 299 536 , 309 536 
Q 314 536 , 319 533 
Q 323 531 , 330 521 
L 330 536 
Q 325 542 , 319 544 
Q 315 547 , 309 547 
Q 295 547 , 288 533 
Q 280 520 , 280 497 
Q 280 474 , 288 461 
Q 295 447 , 309 447 
Q 315 447 , 320 449 
Q 325 452 , 330 458 
" fill="#545FFF" />
<path d="
M 372 532 
L 372 506 
L 358 506 
L 358 495 
L 380 495 
L 380 539 
Q 375 543 , 369 545 
Q 364 546 , 358 547 
Q 345 547 , 338 533 
Q 330 520 , 330 497 
Q 330 474 , 338 460 
Q 345 447 , 358 447 
Q 364 447 , 369 449 
Q 374 451 , 379 455 
L 379 468 
Q 372 462 , 368 460 
Q 364 459 , 359 459 
Q 349 459 , 343 468 
Q 338 478 , 338 497 
Q 338 516 , 343 526 
Q 349 535 , 359 535 
Q 364 535 , 367 534 
Q 371 534 , 372 532 
" fill="lightgray" />
<path d="
M 280 258 
L 289 258 
L 289 369 
Q 289 400 , 293 413 
Q 296 425 , 305 425 
Q 314 425 , 317 413 
Q 321 400 , 321 369 
L 321 258 
L 330 258 
L 330 372 
Q 330 408 , 324 427 
Q 317 446 , 305 446 
Q 293 446 , 286 427 
Q 280 408 , 280 372 
L 280 258 
" fill="#D21010" />
<path d="
M 355 293 
L 346 369 
L 363 369 
L 355 293 
M 351 258 
L 359 258 
L 380 446 
L 372 446 
L 366 391 
L 344 391 
L 337 446 
L 330 446 
L 351 258 
" fill="lightgray" />
<path d="
M 385 554 
L 403 554 
L 403 554 
Q 403 555 , 411 555 
Q 418 555 , 435 555 
Q 452 555 , 460 555 
Q 467 555 , 467 554 
L 467 554 
L 485 554 
L 485 555 
Q 485 555 , 472 555 
Q 460 555 , 435 555 
Q 411 555 , 398 555 
Q 385 555 , 385 555 
L 385 554 
" fill="#D21010" />
<path d="
M 485 552 
L 485 552 
Q 470 552 , 462 552 
Q 454 552 , 444 552 
Q 423 552 , 413 552 
Q 401 553 , 401 553 
Q 401 553 , 413 553 
Q 423 554 , 444 554 
Q 454 554 , 462 554 
Q 470 553 , 485 553 
L 485 554 
Q 474 554 , 464 554 
Q 454 554 , 443 554 
Q 416 554 , 401 554 
Q 385 553 , 385 553 
Q 385 552 , 401 552 
Q 416 552 , 443 552 
Q 454 552 , 464 552 
Q 475 552 , 485 552 
" fill="#545FFF" />
<path d="
M 469 543 
L 469 529 
L 440 529 
L 440 523 
L 485 523 
L 485 547 
Q 474 550 , 463 550 
Q 454 551 , 442 551 
Q 416 551 , 400 544 
Q 385 537 , 385 524 
Q 385 511 , 400 503 
Q 416 496 , 442 496 
Q 453 496 , 462 497 
Q 472 498 , 482 500 
L 482 508 
Q 469 504 , 461 503 
Q 452 503 , 443 503 
Q 422 503 , 411 508 
Q 401 513 , 401 524 
Q 401 535 , 411 540 
Q 422 545 , 443 545 
Q 452 545 , 459 545 
Q 466 544 , 469 543 
" fill="#F5C000" />
<path d="
M 435 377 
L 417 436 
L 451 436 
L 435 377 
M 428 350 
L 442 350 
L 485 495 
L 469 495 
L 457 452 
L 413 452 
L 400 495 
L 385 495 
L 428 350 
" fill="#339541" />
<path d="
M 540 554 
L 522 554 
L 556 554 
L 540 554 
M 533 554 
L 547 554 
L 590 555 
L 574 555 
L 562 555 
L 518 555 
L 505 555 
L 490 555 
L 533 554 
" fill="#339541" />
<path d="
M 590 552 
L 590 552 
Q 575 552 , 567 552 
Q 559 552 , 549 552 
Q 528 552 , 518 552 
Q 506 552 , 506 552 
Q 506 553 , 518 553 
Q 528 553 , 549 553 
Q 559 553 , 567 553 
Q 575 553 , 590 553 
L 590 553 
Q 579 553 , 569 553 
Q 559 553 , 548 553 
Q 521 553 , 506 553 
Q 490 553 , 490 553 
Q 490 552 , 506 552 
Q 521 552 , 548 552 
Q 559 552 , 569 552 
Q 580 552 , 590 552 
" fill="#545FFF" />
<path d="
M 490 495 
L 508 495 
L 508 529 
Q 508 538 , 516 542 
Q 523 546 , 540 546 
Q 557 546 , 565 542 
Q 572 538 , 572 529 
L 572 495 
L 590 495 
L 590 529 
Q 590 540 , 577 546 
Q 565 552 , 540 552 
Q 516 552 , 503 546 
Q 490 540 , 490 529 
L 490 495 
" fill="#D21010" />
<path d="
M 574 474 
L 574 434 
L 545 434 
L 545 418 
L 590 418 
L 590 483 
Q 579 490 , 568 492 
Q 559 494 , 547 495 
Q 521 495 , 505 475 
Q 490 456 , 490 421 
Q 490 387 , 505 368 
Q 521 348 , 547 348 
Q 558 348 , 567 351 
Q 577 353 , 587 360 
L 587 379 
Q 574 370 , 566 368 
Q 557 365 , 548 365 
Q 527 365 , 516 379 
Q 506 393 , 506 421 
Q 506 450 , 516 464 
Q 527 478 , 548 478 
Q 557 478 , 564 477 
Q 571 475 , 574 474 
" fill="#F5C000" />
<path d="
M 595 553 
L 613 553 
L 613 554 
Q 613 554 , 621 554 
Q 628 554 , 645 554 
Q 662 554 , 670 554 
Q 677 554 , 677 554 
L 677 553 
L 695 553 
L 695 554 
Q 695 554 , 682 554 
Q 670 554 , 645 554 
Q 621 554 , 608 554 
Q 595 554 , 595 554 
L 595 553 
" fill="#D21010" />
<path d="
M 695 541 
L 695 543 
Q 680 542 , 672 542 
Q 664 541 , 654 541 
Q 633 541 , 623 543 
Q 611 544 , 611 546 
Q 611 549 , 623 550 
Q 633 551 , 654 551 
Q 664 551 , 672 551 
Q 680 550 , 695 549 
L 695 551 
Q 684 552 , 674 552 
Q 664 552 , 653 552 
Q 626 552 , 611 551 
Q 595 549 , 595 546 
Q 595 543 , 611 542 
Q 626 540 , 653 540 
Q 664 540 , 674 540 
Q 685 541 , 695 541 
" fill="#545FFF" />
<path d="
M 645 510 
L 627 525 
L 661 525 
L 645 510 
M 638 504 
L 652 504 
L 695 539 
L 679 539 
L 667 529 
L 623 529 
L 610 539 
L 595 539 
L 638 504 
" fill="#339541" />
<path d="
M 679 492 
L 679 471 
L 650 471 
L 650 462 
L 695 462 
L 695 497 
Q 684 501 , 673 502 
Q 664 503 , 652 504 
Q 626 504 , 610 493 
Q 595 482 , 595 464 
Q 595 445 , 610 435 
Q 626 424 , 652 424 
Q 663 424 , 672 425 
Q 682 427 , 692 430 
L 692 441 
Q 679 436 , 671 435 
Q 662 433 , 653 433 
Q 632 433 , 621 441 
Q 611 448 , 611 464 
Q 611 479 , 621 487 
Q 632 495 , 653 495 
Q 662 495 , 669 494 
Q 676 493 , 679 492 
" fill="#F5C000" />
<path d="
M 800 552 
L 800 553 
Q 785 552 , 777 552 
Q 769 552 , 759 552 
Q 738 552 , 728 552 
Q 716 553 , 716 553 
Q 716 554 , 728 554 
Q 738 554 , 759 554 
Q 769 554 , 777 554 
Q 785 554 , 800 554 
L 800 554 
Q 789 554 , 779 554 
Q 769 554 , 758 554 
Q 731 554 , 716 554 
Q 700 554 , 700 553 
Q 700 553 , 716 552 
Q 731 552 , 758 552 
Q 769 552 , 779 552 
Q 790 552 , 800 552 
" fill="#545FFF" />
<path d="
M 750 549 
L 732 550 
L 766 550 
L 750 549 
M 743 549 
L 757 549 
L 800 552 
L 784 552 
L 772 551 
L 728 551 
L 715 552 
L 700 552 
L 743 549 
" fill="#339541" />
<path d="
M 700 545 
L 718 545 
L 718 547 
Q 718 547 , 726 548 
Q 733 548 , 750 548 
Q 767 548 , 775 548 
Q 782 547 , 782 547 
L 782 545 
L 800 545 
L 800 547 
Q 800 548 , 787 548 
Q 775 548 , 750 548 
Q 726 548 , 713 548 
Q 700 548 , 700 547 
L 700 545 
" fill="#D21010" />
<path d="
M 784 544 
L 784 543 
L 755 543 
L 755 542 
L 800 542 
L 800 545 
Q 789 545 , 778 545 
Q 769 545 , 757 545 
Q 731 545 , 715 544 
Q 700 544 , 700 542 
Q 700 541 , 715 541 
Q 731 540 , 757 540 
Q 768 540 , 777 540 
Q 787 540 , 797 540 
L 797 541 
Q 784 541 , 776 541 
Q 767 541 , 758 541 
Q 737 541 , 726 541 
Q 716 542 , 716 542 
Q 716 543 , 726 544 
Q 737 544 , 758 544 
Q 767 544 , 774 544 
Q 781 544 , 784 544 
" fill="#F5C000" />
<path d="
M 805 554 
L 814 554 
L 814 554 
Q 814 554 , 818 554 
Q 821 554 , 830 554 
Q 839 554 , 842 554 
Q 846 554 , 846 554 
L 846 554 
L 855 554 
L 855 554 
Q 855 554 , 849 554 
Q 842 555 , 830 555 
Q 818 555 , 811 554 
Q 805 554 , 805 554 
L 805 554 
" fill="lightgray" />
<path d="
M 897 554 
L 897 554 
L 883 554 
L 883 554 
L 905 554 
L 905 554 
Q 900 554 , 894 554 
Q 889 554 , 883 554 
Q 870 554 , 863 554 
Q 855 554 , 855 554 
Q 855 554 , 863 554 
Q 870 554 , 883 554 
Q 889 554 , 894 554 
Q 899 554 , 904 554 
L 904 554 
Q 897 554 , 893 554 
Q 889 554 , 884 554 
Q 874 554 , 868 554 
Q 863 554 , 863 554 
Q 863 554 , 868 554 
Q 874 554 , 884 554 
Q 889 554 , 892 554 
Q 896 554 , 897 554 
" fill="#F5C000" />
<path d="
M 847 553 
L 847 553 
L 833 553 
L 833 553 
L 855 553 
L 855 553 
Q 850 553 , 844 553 
Q 839 553 , 833 553 
Q 820 553 , 813 553 
Q 805 553 , 805 553 
Q 805 552 , 813 552 
Q 820 552 , 833 552 
Q 839 552 , 844 552 
Q 849 552 , 854 552 
L 854 552 
Q 847 552 , 843 552 
Q 839 552 , 834 552 
Q 824 552 , 818 552 
Q 813 552 , 813 553 
Q 813 553 , 818 553 
Q 824 553 , 834 553 
Q 839 553 , 842 553 
Q 846 553 , 847 553 
" fill="lightgray" />
<path d="
M 905 552 
L 905 552 
Q 898 552 , 894 552 
Q 889 552 , 884 552 
Q 874 552 , 869 552 
Q 863 552 , 863 552 
Q 863 553 , 869 553 
Q 874 553 , 884 553 
Q 889 553 , 894 553 
Q 898 553 , 905 553 
L 905 553 
Q 900 553 , 894 553 
Q 890 553 , 884 553 
Q 870 553 , 863 553 
Q 855 553 , 855 553 
Q 855 552 , 863 552 
Q 870 552 , 884 552 
Q 890 552 , 895 552 
Q 900 552 , 905 552 
" fill="#545FFF" />
<path d="
M 847 551 
L 847 551 
L 833 551 
L 833 551 
L 855 551 
L 855 551 
Q 850 551 , 844 551 
Q 839 551 , 833 551 
Q 820 551 , 813 551 
Q 805 551 , 805 551 
Q 805 550 , 813 550 
Q 820 550 , 833 550 
Q 839 550 , 844 550 
Q 849 550 , 854 550 
L 854 550 
Q 847 550 , 843 550 
Q 839 550 , 834 550 
Q 824 550 , 818 550 
Q 813 550 , 813 551 
Q 813 551 , 818 551 
Q 824 551 , 834 551 
Q 839 551 , 842 551 
Q 846 551 , 847 551 
" fill="lightgray" />
<path d="
M 855 550 
L 864 550 
L 864 551 
Q 864 551 , 868 551 
Q 871 551 , 880 551 
Q 889 551 , 892 551 
Q 896 551 , 896 551 
L 896 550 
L 905 550 
L 905 551 
Q 905 551 , 899 551 
Q 892 551 , 880 551 
Q 868 551 , 861 551 
Q 855 551 , 855 551 
L 855 550 
" fill="#D21010" />
<path d="
M 830 547 
L 821 548 
L 838 548 
L 830 547 
M 826 547 
L 834 547 
L 855 549 
L 847 549 
L 841 548 
L 819 548 
L 812 549 
L 805 549 
L 826 547 
" fill="lightgray" />
<path d="
M 855 547 
L 864 547 
L 864 548 
Q 864 549 , 868 549 
Q 871 549 , 880 549 
Q 889 549 , 892 549 
Q 896 549 , 896 548 
L 896 547 
L 905 547 
L 905 548 
Q 905 549 , 899 549 
Q 892 549 , 880 549 
Q 868 549 , 861 549 
Q 855 549 , 855 548 
L 855 547 
" fill="#D21010" />
<path d="
M 855 458 
L 855 473 
Q 848 463 , 844 461 
Q 839 458 , 834 458 
Q 824 458 , 819 468 
Q 813 478 , 813 497 
Q 813 516 , 819 526 
Q 824 536 , 834 536 
Q 839 536 , 844 533 
Q 848 531 , 855 521 
L 855 536 
Q 850 542 , 844 544 
Q 840 547 , 834 547 
Q 820 547 , 813 533 
Q 805 520 , 805 497 
Q 805 474 , 813 461 
Q 820 447 , 834 447 
Q 840 447 , 845 449 
Q 850 452 , 855 458 
" fill="lightgray" />
<path d="
M 897 532 
L 897 506 
L 883 506 
L 883 495 
L 905 495 
L 905 539 
Q 900 543 , 894 545 
Q 889 546 , 883 547 
Q 870 547 , 863 533 
Q 855 520 , 855 497 
Q 855 474 , 863 460 
Q 870 447 , 883 447 
Q 889 447 , 894 449 
Q 899 451 , 904 455 
L 904 468 
Q 897 462 , 893 460 
Q 889 459 , 884 459 
Q 874 459 , 868 468 
Q 863 478 , 863 497 
Q 863 516 , 868 526 
Q 874 535 , 884 535 
Q 889 535 , 892 534 
Q 896 534 , 897 532 
" fill="#F5C000" />
<path d="
M 805 258 
L 814 258 
L 814 369 
Q 814 400 , 818 413 
Q 821 425 , 830 425 
Q 839 425 , 842 413 
Q 846 400 , 846 369 
L 846 258 
L 855 258 
L 855 372 
Q 855 408 , 849 427 
Q 842 446 , 830 446 
Q 818 446 , 811 427 
Q 805 408 , 805 372 
L 805 258 
" fill="lightgray" />
<path d="
M 880 293 
L 871 369 
L 888 369 
L 880 293 
M 876 258 
L 884 258 
L 905 446 
L 897 446 
L 891 391 
L 869 391 
L 862 446 
L 855 446 
L 876 258 
" fill="#339541" />
<path d="
M 960 554 
L 942 554 
L 976 554 
L 960 554 
M 953 554 
L 967 554 
L 1010 555 
L 994 555 
L 982 554 
L 938 554 
L 925 555 
L 910 555 
L 953 554 
" fill="#339541" />
<path d="
M 910 552 
L 928 552 
L 928 553 
Q 928 553 , 936 553 
Q 943 553 , 960 553 
Q 977 553 , 985 553 
Q 992 553 , 992 553 
L 992 552 
L 1010 552 
L 1010 553 
Q 1010 553 , 997 553 
Q 985 554 , 960 554 
Q 936 554 , 923 553 
Q 910 553 , 910 553 
L 910 552 
" fill="#D21010" />
<path d="
M 1010 489 
L 1010 500 
Q 995 493 , 987 491 
Q 979 490 , 969 490 
Q 948 490 , 938 496 
Q 926 503 , 926 516 
Q 926 530 , 938 537 
Q 948 544 , 969 544 
Q 979 544 , 987 542 
Q 995 540 , 1010 533 
L 1010 544 
Q 999 548 , 989 550 
Q 979 551 , 968 551 
Q 941 551 , 926 542 
Q 910 532 , 910 517 
Q 910 501 , 926 491 
Q 941 482 , 968 482 
Q 979 482 , 989 484 
Q 1000 485 , 1010 489 
" fill="#545FFF" />
<path d="
M 994 466 
L 994 436 
L 965 436 
L 965 424 
L 1010 424 
L 1010 473 
Q 999 478 , 988 480 
Q 979 482 , 967 482 
Q 941 482 , 925 467 
Q 910 452 , 910 427 
Q 910 401 , 925 386 
Q 941 371 , 967 371 
Q 978 371 , 987 373 
Q 997 375 , 1007 380 
L 1007 394 
Q 994 388 , 986 386 
Q 977 384 , 968 384 
Q 947 384 , 936 395 
Q 926 405 , 926 427 
Q 926 448 , 936 459 
Q 947 470 , 968 470 
Q 977 470 , 984 468 
Q 991 467 , 994 466 
" fill="#F5C000" />
<path d="
M 1015 554 
L 1033 554 
L 1033 554 
Q 1033 555 , 1041 555 
Q 1048 555 , 1065 555 
Q 1082 555 , 1090 555 
Q 1097 555 , 1097 554 
L 1097 554 
L 1115 554 
L 1115 554 
Q 1115 555 , 1102 555 
Q 1090 555 , 1065 555 
Q 1041 555 , 1028 555 
Q 1015 555 , 1015 554 
L 1015 554 
" fill="#D21010" />
<path d="
M 1065 542 
L 1047 547 
L 1081 547 
L 1065 542 
M 1058 539 
L 1072 539 
L 1115 553 
L 1099 553 
L 1087 549 
L 1043 549 
L 1030 553 
L 1015 553 
L 1058 539 
" fill="#339541" />
<path d="
M 1115 507 
L 1115 512 
Q 1100 509 , 1092 508 
Q 1084 507 , 1074 507 
Q 1053 507 , 1043 510 
Q 1031 514 , 1031 520 
Q 1031 527 , 1043 531 
Q 1053 534 , 1074 534 
Q 1084 534 , 1092 533 
Q 1100 533 , 1115 529 
L 1115 535 
Q 1104 537 , 1094 537 
Q 1084 538 , 1073 538 
Q 1046 538 , 1031 533 
Q 1015 529 , 1015 521 
Q 1015 513 , 1031 508 
Q 1046 503 , 1073 503 
Q 1084 503 , 1094 504 
Q 1105 505 , 1115 507 
" fill="#545FFF" />
<path d="
M 1099 491 
L 1099 469 
L 1070 469 
L 1070 460 
L 1115 460 
L 1115 496 
Q 1104 500 , 1093 501 
Q 1084 502 , 1072 502 
Q 1046 502 , 1030 492 
Q 1015 481 , 1015 462 
Q 1015 443 , 1030 432 
Q 1046 421 , 1072 421 
Q 1083 421 , 1092 422 
Q 1102 424 , 1112 428 
L 1112 438 
Q 1099 433 , 1091 432 
Q 1082 431 , 1073 431 
Q 1052 431 , 1041 438 
Q 1031 446 , 1031 462 
Q 1031 478 , 1041 486 
Q 1052 493 , 1073 493 
Q 1082 493 , 1089 493 
Q 1096 492 , 1099 491 
" fill="#F5C000" />
<path d="
M 1170 553 
L 1152 554 
L 1186 554 
L 1170 553 
M 1163 553 
L 1177 553 
L 1220 554 
L 1204 554 
L 1192 554 
L 1148 554 
L 1135 554 
L 1120 554 
L 1163 553 
" fill="#339541" />
<path d="
M 1204 549 
L 1204 544 
L 1175 544 
L 1175 542 
L 1220 542 
L 1220 551 
Q 1209 551 , 1198 552 
Q 1189 552 , 1177 552 
Q 1151 552 , 1135 549 
Q 1120 547 , 1120 542 
Q 1120 537 , 1135 535 
Q 1151 532 , 1177 532 
Q 1188 532 , 1197 532 
Q 1207 533 , 1217 534 
L 1217 536 
Q 1204 535 , 1196 535 
Q 1187 534 , 1178 534 
Q 1157 534 , 1146 536 
Q 1136 538 , 1136 542 
Q 1136 546 , 1146 548 
Q 1157 550 , 1178 550 
Q 1187 550 , 1194 550 
Q 1201 549 , 1204 549 
" fill="#F5C000" />
<path d="
M 1220 513 
L 1220 516 
Q 1205 514 , 1197 514 
Q 1189 513 , 1179 513 
Q 1158 513 , 1148 515 
Q 1136 517 , 1136 521 
Q 1136 525 , 1148 527 
Q 1158 529 , 1179 529 
Q 1189 529 , 1197 529 
Q 1205 528 , 1220 526 
L 1220 529 
Q 1209 531 , 1199 531 
Q 1189 532 , 1178 532 
Q 1151 532 , 1136 529 
Q 1120 526 , 1120 521 
Q 1120 517 , 1136 514 
Q 1151 511 , 1178 511 
Q 1189 511 , 1199 512 
Q 1210 512 , 1220 513 
" fill="#545FFF" />
<path d="
M 1120 357 
L 1138 357 
L 1138 448 
Q 1138 473 , 1146 483 
Q 1153 493 , 1170 493 
Q 1187 493 , 1195 483 
Q 1202 473 , 1202 448 
L 1202 357 
L 1220 357 
L 1220 450 
Q 1220 479 , 1207 495 
Q 1195 511 , 1170 511 
Q 1146 511 , 1133 495 
Q 1120 479 , 1120 450 
L 1120 357 
" fill="#D21010" />
<path d="
M 1225 554 
L 1234 554 
L 1234 554 
Q 1234 554 , 1238 554 
Q 1241 554 , 1250 554 
Q 1259 554 , 1262 554 
Q 1266 554 , 1266 554 
L 1266 554 
L 1275 554 
L 1275 554 
Q 1275 554 , 1269 554 
Q 1262 554 , 1250 554 
Q 1238 554 , 1231 554 
Q 1225 554 , 1225 554 
L 1225 554 
" fill="lightgray" />
<path d="
M 1317 554 
L 1317 554 
L 1303 554 
L 1303 554 
L 1325 554 
L 1325 554 
Q 1320 554 , 1314 554 
Q 1309 554 , 1303 554 
Q 1290 554 , 1283 554 
Q 1275 554 , 1275 554 
Q 1275 554 , 1283 554 
Q 1290 554 , 1303 554 
Q 1309 554 , 1314 554 
Q 1319 554 , 1324 554 
L 1324 554 
Q 1317 554 , 1313 554 
Q 1309 554 , 1304 554 
Q 1294 554 , 1288 554 
Q 1283 554 , 1283 554 
Q 1283 554 , 1288 554 
Q 1294 554 , 1304 554 
Q 1309 554 , 1312 554 
Q 1316 554 , 1317 554 
" fill="#F5C000" />
<path d="
M 1225 553 
L 1234 553 
L 1234 554 
Q 1234 554 , 1238 554 
Q 1241 554 , 1250 554 
Q 1259 554 , 1262 554 
Q 1266 554 , 1266 554 
L 1266 553 
L 1275 553 
L 1275 554 
Q 1275 554 , 1269 554 
Q 1262 554 , 1250 554 
Q 1238 554 , 1231 554 
Q 1225 554 , 1225 554 
L 1225 553 
" fill="lightgray" />
<path d="
M 1300 553 
L 1291 554 
L 1308 554 
L 1300 553 
M 1296 553 
L 1304 553 
L 1325 554 
L 1317 554 
L 1311 554 
L 1289 554 
L 1282 554 
L 1275 554 
L 1296 553 
" fill="#339541" />
<path d="
M 1275 550 
L 1275 551 
Q 1268 550 , 1264 550 
Q 1259 550 , 1254 550 
Q 1244 550 , 1239 550 
Q 1233 551 , 1233 551 
Q 1233 552 , 1239 552 
Q 1244 552 , 1254 552 
Q 1259 552 , 1264 552 
Q 1268 552 , 1275 552 
L 1275 552 
Q 1270 552 , 1264 552 
Q 1260 552 , 1254 552 
Q 1240 552 , 1233 552 
Q 1225 552 , 1225 551 
Q 1225 551 , 1233 550 
Q 1240 550 , 1254 550 
Q 1260 550 , 1265 550 
Q 1270 550 , 1275 550 
" fill="lightgray" />
<path d="
M 1317 552 
L 1317 551 
L 1303 551 
L 1303 551 
L 1325 551 
L 1325 552 
Q 1320 552 , 1314 552 
Q 1309 552 , 1303 552 
Q 1290 552 , 1283 552 
Q 1275 552 , 1275 551 
Q 1275 551 , 1283 550 
Q 1290 550 , 1303 550 
Q 1309 550 , 1314 550 
Q 1319 550 , 1324 550 
L 1324 550 
Q 1317 550 , 1313 550 
Q 1309 550 , 1304 550 
Q 1294 550 , 1288 550 
Q 1283 551 , 1283 551 
Q 1283 552 , 1288 552 
Q 1294 552 , 1304 552 
Q 1309 552 , 1312 552 
Q 1316 552 , 1317 552 
" fill="#F5C000" />
<path d="
M 1267 547 
L 1267 541 
L 1253 541 
L 1253 539 
L 1275 539 
L 1275 548 
Q 1270 549 , 1264 549 
Q 1259 549 , 1253 549 
Q 1240 549 , 1233 547 
Q 1225 544 , 1225 540 
Q 1225 535 , 1233 533 
Q 1240 530 , 1253 530 
Q 1259 530 , 1264 530 
Q 1269 531 , 1274 532 
L 1274 534 
Q 1267 533 , 1263 533 
Q 1259 532 , 1254 532 
Q 1244 532 , 1238 534 
Q 1233 536 , 1233 540 
Q 1233 544 , 1238 545 
Q 1244 547 , 1254 547 
Q 1259 547 , 1262 547 
Q 1266 547 , 1267 547 
" fill="lightgray" />
<path d="
M 1275 530 
L 1284 530 
L 1284 541 
Q 1284 545 , 1288 546 
Q 1291 547 , 1300 547 
Q 1309 547 , 1312 546 
Q 1316 545 , 1316 541 
L 1316 530 
L 1325 530 
L 1325 542 
Q 1325 545 , 1319 547 
Q 1312 549 , 1300 549 
Q 1288 549 , 1281 547 
Q 1275 545 , 1275 542 
L 1275 530 
" fill="#D21010" />
<path d="
M 1250 487 
L 1241 508 
L 1258 508 
L 1250 487 
M 1246 478 
L 1254 478 
L 1275 530 
L 1267 530 
L 1261 514 
L 1239 514 
L 1232 530 
L 1225 530 
L 1246 478 
" fill="lightgray" />
<path d="
M 1275 478 
L 1284 478 
L 1284 508 
Q 1284 517 , 1288 520 
Q 1291 524 , 1300 524 
Q 1309 524 , 1312 520 
Q 1316 517 , 1316 508 
L 1316 478 
L 1325 478 
L 1325 509 
Q 1325 519 , 1319 524 
Q 1312 530 , 1300 530 
Q 1288 530 , 1281 524 
Q 1275 519 , 1275 509 
L 1275 478 
" fill="#D21010" />
<path d="
M 1267 448 
L 1267 393 
L 1253 393 
L 1253 370 
L 1275 370 
L 1275 462 
Q 1270 471 , 1264 474 
Q 1259 478 , 1253 478 
Q 1240 478 , 1233 450 
Q 1225 423 , 1225 375 
Q 1225 327 , 1233 300 
Q 1240 272 , 1253 272 
Q 1259 272 , 1264 276 
Q 1269 279 , 1274 289 
L 1274 315 
Q 1267 303 , 1263 300 
Q 1259 297 , 1254 297 
Q 1244 297 , 1238 316 
Q 1233 335 , 1233 375 
Q 1233 416 , 1238 435 
Q 1244 455 , 1254 455 
Q 1259 455 , 1262 453 
Q 1266 451 , 1267 448 
" fill="lightgray" />
<path d="
M 1325 294 
L 1325 326 
Q 1318 305 , 1314 300 
Q 1309 295 , 1304 295 
Q 1294 295 , 1289 315 
Q 1283 335 , 1283 375 
Q 1283 415 , 1289 436 
Q 1294 456 , 1304 456 
Q 1309 456 , 1314 450 
Q 1318 445 , 1325 424 
L 1325 457 
Q 1320 468 , 1314 473 
Q 1310 478 , 1304 478 
Q 1290 478 , 1283 450 
Q 1275 422 , 1275 375 
Q 1275 328 , 1283 300 
Q 1290 272 , 1304 272 
Q 1310 272 , 1315 277 
Q 1320 282 , 1325 294 
" fill="#545FFF" />
<path d="
M 1430 552 
L 1430 553 
Q 1415 552 , 1407 552 
Q 1399 552 , 1389 552 
Q 1368 552 , 1358 552 
Q 1346 553 , 1346 553 
Q 1346 554 , 1358 554 
Q 1368 554 , 1389 554 
Q 1399 554 , 1407 554 
Q 1415 554 , 1430 554 
L 1430 554 
Q 1419 554 , 1409 554 
Q 1399 554 , 1388 554 
Q 1361 554 , 1346 554 
Q 1330 554 , 1330 553 
Q 1330 553 , 1346 552 
Q 1361 552 , 1388 552 
Q 1399 552 , 1409 552 
Q 1420 552 , 1430 552 
" fill="#545FFF" />
<path d="
M 1380 549 
L 1362 550 
L 1396 550 
L 1380 549 
M 1373 549 
L 1387 549 
L 1430 552 
L 1414 552 
L 1402 551 
L 1358 551 
L 1345 552 
L 1330 552 
L 1373 549 
" fill="#339541" />
<path d="
M 1330 545 
L 1348 545 
L 1348 547 
Q 1348 547 , 1356 548 
Q 1363 548 , 1380 548 
Q 1397 548 , 1405 548 
Q 1412 547 , 1412 547 
L 1412 545 
L 1430 545 
L 1430 547 
Q 1430 548 , 1417 548 
Q 1405 548 , 1380 548 
Q 1356 548 , 1343 548 
Q 1330 548 , 1330 547 
L 1330 545 
" fill="#D21010" />
<path d="
M 1414 544 
L 1414 543 
L 1385 543 
L 1385 542 
L 1430 542 
L 1430 545 
Q 1419 545 , 1408 545 
Q 1399 545 , 1387 545 
Q 1361 545 , 1345 544 
Q 1330 544 , 1330 542 
Q 1330 541 , 1345 541 
Q 1361 540 , 1387 540 
Q 1398 540 , 1407 540 
Q 1417 540 , 1427 540 
L 1427 541 
Q 1414 541 , 1406 541 
Q 1397 541 , 1388 541 
Q 1367 541 , 1356 541 
Q 1346 542 , 1346 542 
Q 1346 543 , 1356 544 
Q 1367 544 , 1388 544 
Q 1397 544 , 1404 544 
Q 1411 544 , 1414 544 
" fill="#F5C000" />
<path d="M 65 168 L 65 555 " stroke="black" stroke-width="1.5"/>
<path d="M 55 555 L 65 555 " stroke="black" stroke-width="4"/>
<text text-anchor="end" x="50" y="555" font-size="50" alignment-baseline="middle">0</text>
<path d="M 55 362 L 65 362 " stroke="black" stroke-width="4"/>
<text text-anchor="end" x="50" y="362" font-size="50" alignment-baseline="middle">1</text>
<path d="M 55 168 L 65 168 " stroke="black" stroke-width="4"/>
<text text-anchor="end" x="50" y="168" font-size="50" alignment-baseline="middle">2</text>
<text text-anchor="middle" x="750" y="50" font-size="50" alignment-baseline="baseline"></text>
G<path d="
M 160 582 
L 126 595 
L 160 608 
L 157 611 
L 123 598 
L 123 623 
L 117 623 
L 117 599 
L 83 611 
L 80 608 
L 114 595 
L 80 582 
L 83 579 
L 117 591 
L 117 567 
L 123 567 
L 123 591 
L 157 579 
L 160 582 
" fill="black" />
<path d="
M 265 567 
Q 236 574 , 223 581 
Q 210 588 , 210 595 
Q 210 602 , 223 609 
Q 236 616 , 265 623 
L 241 623 
Q 213 616 , 199 609 
Q 185 602 , 185 595 
Q 185 588 , 199 581 
Q 213 574 , 241 567 
L 265 567 
" fill="black" />
<path d="
M 370 567 
Q 341 574 , 328 581 
Q 315 588 , 315 595 
Q 315 602 , 328 609 
Q 341 616 , 370 623 
L 346 623 
Q 318 616 , 304 609 
Q 290 602 , 290 595 
Q 290 588 , 304 581 
Q 318 574 , 346 567 
L 370 567 
" fill="black" />
<path d="
" fill="black" />
<path d="
M 421 567 
L 448 567 
L 448 623 
L 421 623 
L 421 567 
" fill="black" />
<path d="
" fill="black" />
<path d="
" fill="black" />
<path d="
M 526 567 
L 553 567 
L 553 623 
L 526 623 
L 526 567 
" fill="black" />
<path d="
" fill="black" />
<path d="
" fill="black" />
<path d="
M 622 567 
L 642 567 
L 642 623 
L 622 623 
L 622 567 
" fill="black" />
<path d="
" fill="black" />
<path d="
M 682 595 
Q 679 595 , 677 599 
Q 675 602 , 675 607 
Q 675 613 , 677 616 
Q 679 619 , 682 619 
Q 685 619 , 687 616 
Q 689 613 , 689 607 
Q 689 602 , 687 599 
Q 685 595 , 682 595 
M 677 593 
Q 675 592 , 674 589 
Q 673 586 , 673 581 
Q 673 575 , 675 571 
Q 678 567 , 682 567 
Q 686 567 , 689 571 
Q 691 575 , 691 581 
Q 691 586 , 690 589 
Q 688 592 , 687 593 
Q 689 594 , 690 598 
Q 692 601 , 692 607 
Q 692 614 , 689 619 
Q 687 623 , 682 623 
Q 677 623 , 675 619 
Q 672 614 , 672 607 
Q 672 601 , 674 598 
Q 675 594 , 677 593 
M 677 573 
Q 675 576 , 675 581 
Q 675 586 , 677 589 
Q 679 592 , 682 592 
Q 685 592 , 687 589 
Q 689 586 , 689 581 
Q 689 576 , 687 574 
Q 685 571 , 682 571 
Q 679 571 , 677 573 
" fill="black" />
<path d="
M 790 582 
L 756 595 
L 790 608 
L 787 611 
L 753 598 
L 753 623 
L 747 623 
L 747 599 
L 713 611 
L 710 608 
L 744 595 
L 710 582 
L 713 579 
L 747 591 
L 747 567 
L 753 567 
L 753 591 
L 787 579 
L 790 582 
" fill="black" />
<path d="
M 815 567 
L 839 567 
Q 867 574 , 881 581 
Q 895 588 , 895 595 
Q 895 602 , 881 609 
Q 867 616 , 839 623 
L 815 623 
Q 844 616 , 857 609 
Q 870 602 , 870 595 
Q 870 588 , 857 581 
Q 844 574 , 815 567 
" fill="black" />
<path d="
" fill="black" />
<path d="
M 946 567 
L 973 567 
L 973 623 
L 946 623 
L 946 567 
" fill="black" />
<path d="
" fill="black" />
<path d="
" fill="black" />
<path d="
M 1051 567 
L 1078 567 
L 1078 623 
L 1051 623 
L 1051 567 
" fill="black" />
<path d="
" fill="black" />
<path d="
" fill="black" />
<path d="
M 1156 567 
L 1183 567 
L 1183 623 
L 1156 623 
L 1156 567 
" fill="black" />
<path d="
" fill="black" />
<path d="
M 1235 567 
L 1259 567 
Q 1287 574 , 1301 581 
Q 1315 588 , 1315 595 
Q 1315 602 , 1301 609 
Q 1287 616 , 1259 623 
L 1235 623 
Q 1264 616 , 1277 609 
Q 1290 602 , 1290 595 
Q 1290 588 , 1277 581 
Q 1264 574 , 1235 567 
" fill="black" />
<path d="
M 1420 582 
L 1386 595 
L 1420 608 
L 1417 611 
L 1383 598 
L 1383 623 
L 1377 623 
L 1377 599 
L 1343 611 
L 1340 608 
L 1374 595 
L 1340 582 
L 1343 579 
L 1377 591 
L 1377 567 
L 1383 567 
L 1383 591 
L 1417 579 
L 1420 582 
" fill="black" />
</svg>
