<svg xmlns="http://www.w3.org/2000/svg"
viewBox="0 0 1435 635">
<path d="
M 120 554 
L 102 554 
L 136 554 
L 120 554 
M 113 554 
L 127 554 
L 170 554 
L 154 554 
L 142 554 
L 98 554 
L 85 554 
L 70 554 
L 113 554 
" fill="#339541" />
<path d="
M 70 553 
L 88 553 
L 88 553 
Q 88 553 , 96 553 
Q 103 553 , 120 553 
Q 137 553 , 145 553 
Q 152 553 , 152 553 
L 152 553 
L 170 553 
L 170 553 
Q 170 553 , 157 553 
Q 145 553 , 120 553 
Q 96 553 , 83 553 
Q 70 553 , 70 553 
L 70 553 
" fill="#D21010" />
<path d="
M 154 552 
L 154 552 
L 125 552 
L 125 552 
L 170 552 
L 170 552 
Q 159 552 , 148 552 
Q 139 552 , 127 552 
Q 101 552 , 85 552 
Q 70 552 , 70 552 
Q 70 552 , 85 552 
Q 101 552 , 127 552 
Q 138 552 , 147 552 
Q 157 552 , 167 552 
L 167 552 
Q 154 552 , 146 552 
Q 137 552 , 128 552 
Q 107 552 , 96 552 
Q 86 552 , 86 552 
Q 86 552 , 96 552 
Q 107 552 , 128 552 
Q 137 552 , 144 552 
Q 151 552 , 154 552 
" fill="#F5C000" />
<path d="
M 170 551 
L 170 551 
Q 155 551 , 147 551 
Q 139 551 , 129 551 
Q 108 551 , 98 551 
Q 86 551 , 86 551 
Q 86 551 , 98 551 
Q 108 551 , 129 551 
Q 139 551 , 147 551 
Q 155 551 , 170 551 
L 170 551 
Q 159 551 , 149 551 
Q 139 551 , 128 551 
Q 101 551 , 86 551 
Q 70 551 , 70 551 
Q 70 551 , 86 551 
Q 101 551 , 128 551 
Q 139 551 , 149 551 
Q 160 551 , 170 551 
" fill="#545FFF" />
<path d="
M 225 547 
L 207 551 
L 241 551 
L 225 547 
M 218 545 
L 232 545 
L 275 555 
L 259 555 
L 247 552 
L 203 552 
L 190 555 
L 175 555 
L 218 545 
" fill="#339541" />
<path d="
M 259 542 
L 259 538 
L 230 538 
L 230 536 
L 275 536 
L 275 543 
Q 264 544 , 253 544 
Q 244 544 , 232 545 
Q 206 545 , 190 542 
Q 175 540 , 175 536 
Q 175 532 , 190 530 
Q 206 528 , 232 528 
Q 243 528 , 252 528 
Q 262 529 , 272 529 
L 272 531 
Q 259 531 , 251 530 
Q 242 530 , 233 530 
Q 212 530 , 201 532 
Q 191 533 , 191 536 
Q 191 540 , 201 541 
Q 212 543 , 233 543 
Q 242 543 , 249 543 
Q 256 542 , 259 542 
" fill="#F5C000" />
<path d="
M 275 509 
L 275 512 
Q 260 510 , 252 510 
Q 244 509 , 234 509 
Q 213 509 , 203 511 
Q 191 513 , 191 517 
Q 191 521 , 203 523 
Q 213 525 , 234 525 
Q 244 525 , 252 525 
Q 260 524 , 275 522 
L 275 525 
Q 264 526 , 254 527 
Q 244 527 , 233 527 
Q 206 527 , 191 525 
Q 175 522 , 175 517 
Q 175 512 , 191 510 
Q 206 507 , 233 507 
Q 244 507 , 254 508 
Q 265 508 , 275 509 
" fill="#545FFF" />
<path d="
M 175 419 
L 193 419 
L 193 470 
Q 193 485 , 201 491 
Q 208 496 , 225 496 
Q 242 496 , 250 491 
Q 257 485 , 257 470 
L 257 419 
L 275 419 
L 275 472 
Q 275 488 , 262 497 
Q 250 506 , 225 506 
Q 201 506 , 188 497 
Q 175 488 , 175 472 
L 175 419 
" fill="#D21010" />
<path d="
M 330 553 
L 312 554 
L 346 554 
L 330 553 
M 323 553 
L 337 553 
L 380 555 
L 364 555 
L 352 554 
L 308 554 
L 295 555 
L 280 555 
L 323 553 
" fill="#339541" />
<path d="
M 364 552 
L 364 552 
L 335 552 
L 335 552 
L 380 552 
L 380 553 
Q 369 553 , 358 553 
Q 349 553 , 337 553 
Q 311 553 , 295 552 
Q 280 552 , 280 552 
Q 280 551 , 295 551 
Q 311 551 , 337 551 
Q 348 551 , 357 551 
Q 367 551 , 377 551 
L 377 551 
Q 364 551 , 356 551 
Q 347 551 , 338 551 
Q 317 551 , 306 551 
Q 296 552 , 296 552 
Q 296 552 , 306 552 
Q 317 552 , 338 552 
Q 347 552 , 354 552 
Q 361 552 , 364 552 
" fill="#F5C000" />
<path d="
M 280 548 
L 298 548 
L 298 549 
Q 298 550 , 306 550 
Q 313 550 , 330 550 
Q 347 550 , 355 550 
Q 362 550 , 362 549 
L 362 548 
L 380 548 
L 380 549 
Q 380 550 , 367 550 
Q 355 550 , 330 550 
Q 306 550 , 293 550 
Q 280 550 , 280 549 
L 280 548 
" fill="#D21010" />
<path d="
M 380 545 
L 380 546 
Q 365 545 , 357 545 
Q 349 545 , 339 545 
Q 318 545 , 308 546 
Q 296 546 , 296 546 
Q 296 547 , 308 547 
Q 318 547 , 339 547 
Q 349 547 , 357 547 
Q 365 547 , 380 547 
L 380 547 
Q 369 547 , 359 547 
Q 349 547 , 338 547 
Q 311 547 , 296 547 
Q 280 547 , 280 546 
Q 280 546 , 296 545 
Q 311 545 , 338 545 
Q 349 545 , 359 545 
Q 370 545 , 380 545 
" fill="#545FFF" />
<path d="
M 435 549 
L 417 552 
L 451 552 
L 435 549 
M 428 548 
L 442 548 
L 485 555 
L 469 555 
L 457 553 
L 413 553 
L 400 555 
L 385 555 
L 428 548 
" fill="#339541" />
<path d="
M 469 547 
L 469 545 
L 440 545 
L 440 544 
L 485 544 
L 485 547 
Q 474 548 , 463 548 
Q 454 548 , 442 548 
Q 416 548 , 400 547 
Q 385 546 , 385 544 
Q 385 542 , 400 541 
Q 416 540 , 442 540 
Q 453 540 , 462 540 
Q 472 540 , 482 541 
L 482 542 
Q 469 541 , 461 541 
Q 452 541 , 443 541 
Q 422 541 , 411 542 
Q 401 542 , 401 544 
Q 401 545 , 411 546 
Q 422 547 , 443 547 
Q 452 547 , 459 547 
Q 466 547 , 469 547 
" fill="#F5C000" />
<path d="
M 485 499 
L 485 506 
Q 470 501 , 462 500 
Q 454 499 , 444 499 
Q 423 499 , 413 503 
Q 401 508 , 401 517 
Q 401 526 , 413 530 
Q 423 535 , 444 535 
Q 454 535 , 462 533 
Q 470 532 , 485 528 
L 485 535 
Q 474 537 , 464 538 
Q 454 539 , 443 539 
Q 416 539 , 401 533 
Q 385 527 , 385 517 
Q 385 506 , 401 500 
Q 416 494 , 443 494 
Q 454 494 , 464 495 
Q 475 496 , 485 499 
" fill="#545FFF" />
<path d="
M 385 443 
L 403 443 
L 403 473 
Q 403 481 , 411 484 
Q 418 488 , 435 488 
Q 452 488 , 460 484 
Q 467 481 , 467 473 
L 467 443 
L 485 443 
L 485 474 
Q 485 483 , 472 488 
Q 460 493 , 435 493 
Q 411 493 , 398 488 
Q 385 483 , 385 474 
L 385 443 
" fill="#D21010" />
<path d="
M 540 552 
L 522 553 
L 556 553 
L 540 552 
M 533 551 
L 547 551 
L 590 554 
L 574 554 
L 562 553 
L 518 553 
L 505 554 
L 490 554 
L 533 551 
" fill="#339541" />
<path d="
M 574 550 
L 574 548 
L 545 548 
L 545 547 
L 590 547 
L 590 550 
Q 579 550 , 568 551 
Q 559 551 , 547 551 
Q 521 551 , 505 550 
Q 490 549 , 490 547 
Q 490 545 , 505 544 
Q 521 543 , 547 543 
Q 558 543 , 567 543 
Q 577 543 , 587 544 
L 587 545 
Q 574 544 , 566 544 
Q 557 544 , 548 544 
Q 527 544 , 516 545 
Q 506 545 , 506 547 
Q 506 548 , 516 549 
Q 527 550 , 548 550 
Q 557 550 , 564 550 
Q 571 550 , 574 550 
" fill="#F5C000" />
<path d="
M 590 536 
L 590 537 
Q 575 536 , 567 536 
Q 559 536 , 549 536 
Q 528 536 , 518 537 
Q 506 537 , 506 538 
Q 506 540 , 518 541 
Q 528 542 , 549 542 
Q 559 542 , 567 542 
Q 575 542 , 590 541 
L 590 542 
Q 579 542 , 569 543 
Q 559 543 , 548 543 
Q 521 543 , 506 542 
Q 490 541 , 490 539 
Q 490 537 , 506 536 
Q 521 535 , 548 535 
Q 559 535 , 569 535 
Q 580 535 , 590 536 
" fill="#545FFF" />
<path d="
M 490 523 
L 508 523 
L 508 530 
Q 508 532 , 516 532 
Q 523 533 , 540 533 
Q 557 533 , 565 532 
Q 572 532 , 572 530 
L 572 523 
L 590 523 
L 590 530 
Q 590 532 , 577 533 
Q 565 534 , 540 534 
Q 516 534 , 503 533 
Q 490 532 , 490 530 
L 490 523 
" fill="#D21010" />
<path d="
M 645 551 
L 627 552 
L 661 552 
L 645 551 
M 638 550 
L 652 550 
L 695 554 
L 679 554 
L 667 553 
L 623 553 
L 610 554 
L 595 554 
L 638 550 
" fill="#339541" />
<path d="
M 679 548 
L 679 545 
L 650 545 
L 650 544 
L 695 544 
L 695 549 
Q 684 549 , 673 550 
Q 664 550 , 652 550 
Q 626 550 , 610 548 
Q 595 547 , 595 544 
Q 595 542 , 610 540 
Q 626 539 , 652 539 
Q 663 539 , 672 539 
Q 682 539 , 692 540 
L 692 541 
Q 679 541 , 671 540 
Q 662 540 , 653 540 
Q 632 540 , 621 541 
Q 611 542 , 611 544 
Q 611 546 , 621 548 
Q 632 549 , 653 549 
Q 662 549 , 669 548 
Q 676 548 , 679 548 
" fill="#F5C000" />
<path d="
M 695 526 
L 695 528 
Q 680 527 , 672 527 
Q 664 526 , 654 526 
Q 633 526 , 623 528 
Q 611 529 , 611 531 
Q 611 534 , 623 535 
Q 633 537 , 654 537 
Q 664 537 , 672 536 
Q 680 536 , 695 535 
L 695 537 
Q 684 538 , 674 538 
Q 664 538 , 653 538 
Q 626 538 , 611 536 
Q 595 535 , 595 532 
Q 595 529 , 611 527 
Q 626 525 , 653 525 
Q 664 525 , 674 525 
Q 685 526 , 695 526 
" fill="#545FFF" />
<path d="
M 595 502 
L 613 502 
L 613 515 
Q 613 519 , 621 521 
Q 628 522 , 645 522 
Q 662 522 , 670 521 
Q 677 519 , 677 515 
L 677 502 
L 695 502 
L 695 516 
Q 695 520 , 682 522 
Q 670 525 , 645 525 
Q 621 525 , 608 522 
Q 595 520 , 595 516 
L 595 502 
" fill="#D21010" />
<path d="
M 750 554 
L 732 554 
L 766 554 
L 750 554 
M 743 554 
L 757 554 
L 800 554 
L 784 554 
L 772 554 
L 728 554 
L 715 554 
L 700 554 
L 743 554 
" fill="#339541" />
<path d="
M 700 553 
L 718 553 
L 718 553 
Q 718 553 , 726 553 
Q 733 553 , 750 553 
Q 767 553 , 775 553 
Q 782 553 , 782 553 
L 782 553 
L 800 553 
L 800 553 
Q 800 553 , 787 553 
Q 775 553 , 750 553 
Q 726 553 , 713 553 
Q 700 553 , 700 553 
L 700 553 
" fill="#D21010" />
<path d="
M 784 552 
L 784 552 
L 755 552 
L 755 552 
L 800 552 
L 800 552 
Q 789 552 , 778 552 
Q 769 552 , 757 552 
Q 731 552 , 715 552 
Q 700 552 , 700 552 
Q 700 552 , 715 552 
Q 731 552 , 757 552 
Q 768 552 , 777 552 
Q 787 552 , 797 552 
L 797 552 
Q 784 552 , 776 552 
Q 767 552 , 758 552 
Q 737 552 , 726 552 
Q 716 552 , 716 552 
Q 716 552 , 726 552 
Q 737 552 , 758 552 
Q 767 552 , 774 552 
Q 781 552 , 784 552 
" fill="#F5C000" />
<path d="
M 800 551 
L 800 551 
Q 785 551 , 777 551 
Q 769 551 , 759 551 
Q 738 551 , 728 551 
Q 716 551 , 716 551 
Q 716 551 , 728 551 
Q 738 551 , 759 551 
Q 769 551 , 777 551 
Q 785 551 , 800 551 
L 800 551 
Q 789 551 , 779 551 
Q 769 551 , 758 551 
Q 731 551 , 716 551 
Q 700 551 , 700 551 
Q 700 551 , 716 551 
Q 731 551 , 758 551 
Q 769 551 , 779 551 
Q 790 551 , 800 551 
" fill="#545FFF" />
<path d="
M 805 549 
L 823 549 
L 823 552 
Q 823 553 , 831 554 
Q 838 554 , 855 554 
Q 872 554 , 880 554 
Q 887 553 , 887 552 
L 887 549 
L 905 549 
L 905 552 
Q 905 554 , 892 554 
Q 880 555 , 855 555 
Q 831 555 , 818 554 
Q 805 554 , 805 552 
L 805 549 
" fill="#D21010" />
<path d="
M 855 534 
L 837 541 
L 871 541 
L 855 534 
M 848 531 
L 862 531 
L 905 548 
L 889 548 
L 877 543 
L 833 543 
L 820 548 
L 805 548 
L 848 531 
" fill="#339541" />
<path d="
M 905 509 
L 905 512 
Q 890 510 , 882 509 
Q 874 509 , 864 509 
Q 843 509 , 833 511 
Q 821 513 , 821 518 
Q 821 523 , 833 525 
Q 843 528 , 864 528 
Q 874 528 , 882 527 
Q 890 526 , 905 524 
L 905 528 
Q 894 529 , 884 530 
Q 874 530 , 863 530 
Q 836 530 , 821 527 
Q 805 524 , 805 518 
Q 805 513 , 821 509 
Q 836 506 , 863 506 
Q 874 506 , 884 507 
Q 895 507 , 905 509 
" fill="#545FFF" />
<path d="
M 889 495 
L 889 476 
L 860 476 
L 860 469 
L 905 469 
L 905 500 
Q 894 503 , 883 504 
Q 874 505 , 862 505 
Q 836 505 , 820 496 
Q 805 486 , 805 470 
Q 805 454 , 820 444 
Q 836 435 , 862 435 
Q 873 435 , 882 436 
Q 892 438 , 902 441 
L 902 450 
Q 889 446 , 881 444 
Q 872 443 , 863 443 
Q 842 443 , 831 450 
Q 821 457 , 821 470 
Q 821 484 , 831 491 
Q 842 497 , 863 497 
Q 872 497 , 879 497 
Q 886 496 , 889 495 
" fill="#F5C000" />
<path d="
M 960 553 
L 942 554 
L 976 554 
L 960 553 
M 953 553 
L 967 553 
L 1010 555 
L 994 555 
L 982 554 
L 938 554 
L 925 555 
L 910 555 
L 953 553 
" fill="#339541" />
<path d="
M 910 550 
L 928 550 
L 928 552 
Q 928 552 , 936 552 
Q 943 552 , 960 552 
Q 977 552 , 985 552 
Q 992 552 , 992 552 
L 992 550 
L 1010 550 
L 1010 552 
Q 1010 552 , 997 552 
Q 985 553 , 960 553 
Q 936 553 , 923 552 
Q 910 552 , 910 552 
L 910 550 
" fill="#D21010" />
<path d="
M 1010 546 
L 1010 547 
Q 995 546 , 987 546 
Q 979 546 , 969 546 
Q 948 546 , 938 547 
Q 926 547 , 926 547 
Q 926 548 , 938 548 
Q 948 549 , 969 549 
Q 979 549 , 987 549 
Q 995 549 , 1010 548 
L 1010 549 
Q 999 549 , 989 549 
Q 979 549 , 968 549 
Q 941 549 , 926 549 
Q 910 548 , 910 548 
Q 910 547 , 926 546 
Q 941 546 , 968 546 
Q 979 546 , 989 546 
Q 1000 546 , 1010 546 
" fill="#545FFF" />
<path d="
M 994 545 
L 994 544 
L 965 544 
L 965 544 
L 1010 544 
L 1010 545 
Q 999 545 , 988 545 
Q 979 545 , 967 545 
Q 941 545 , 925 545 
Q 910 544 , 910 544 
Q 910 543 , 925 542 
Q 941 542 , 967 542 
Q 978 542 , 987 542 
Q 997 542 , 1007 542 
L 1007 543 
Q 994 542 , 986 542 
Q 977 542 , 968 542 
Q 947 542 , 936 543 
Q 926 543 , 926 544 
Q 926 544 , 936 545 
Q 947 545 , 968 545 
Q 977 545 , 984 545 
Q 991 545 , 994 545 
" fill="#F5C000" />
<path d="
M 1015 552 
L 1033 552 
L 1033 554 
Q 1033 554 , 1041 554 
Q 1048 555 , 1065 555 
Q 1082 555 , 1090 554 
Q 1097 554 , 1097 554 
L 1097 552 
L 1115 552 
L 1115 554 
Q 1115 554 , 1102 555 
Q 1090 555 , 1065 555 
Q 1041 555 , 1028 555 
Q 1015 554 , 1015 554 
L 1015 552 
" fill="#D21010" />
<path d="
M 1115 538 
L 1115 540 
Q 1100 538 , 1092 538 
Q 1084 538 , 1074 538 
Q 1053 538 , 1043 539 
Q 1031 541 , 1031 544 
Q 1031 547 , 1043 548 
Q 1053 550 , 1074 550 
Q 1084 550 , 1092 549 
Q 1100 549 , 1115 547 
L 1115 550 
Q 1104 551 , 1094 551 
Q 1084 551 , 1073 551 
Q 1046 551 , 1031 549 
Q 1015 547 , 1015 544 
Q 1015 540 , 1031 538 
Q 1046 536 , 1073 536 
Q 1084 536 , 1094 536 
Q 1105 537 , 1115 538 
" fill="#545FFF" />
<path d="
M 1099 532 
L 1099 525 
L 1070 525 
L 1070 522 
L 1115 522 
L 1115 534 
Q 1104 535 , 1093 535 
Q 1084 536 , 1072 536 
Q 1046 536 , 1030 532 
Q 1015 529 , 1015 523 
Q 1015 517 , 1030 513 
Q 1046 510 , 1072 510 
Q 1083 510 , 1092 510 
Q 1102 511 , 1112 512 
L 1112 515 
Q 1099 514 , 1091 514 
Q 1082 513 , 1073 513 
Q 1052 513 , 1041 516 
Q 1031 518 , 1031 523 
Q 1031 528 , 1041 531 
Q 1052 533 , 1073 533 
Q 1082 533 , 1089 533 
Q 1096 533 , 1099 532 
" fill="#F5C000" />
<path d="
M 1065 482 
L 1047 496 
L 1081 496 
L 1065 482 
M 1058 476 
L 1072 476 
L 1115 510 
L 1099 510 
L 1087 500 
L 1043 500 
L 1030 510 
L 1015 510 
L 1058 476 
" fill="#339541" />
<path d="
M 1204 554 
L 1204 553 
L 1175 553 
L 1175 552 
L 1220 552 
L 1220 554 
Q 1209 554 , 1198 554 
Q 1189 554 , 1177 554 
Q 1151 554 , 1135 554 
Q 1120 553 , 1120 553 
Q 1120 552 , 1135 551 
Q 1151 551 , 1177 551 
Q 1188 551 , 1197 551 
Q 1207 551 , 1217 551 
L 1217 552 
Q 1204 551 , 1196 551 
Q 1187 551 , 1178 551 
Q 1157 551 , 1146 552 
Q 1136 552 , 1136 553 
Q 1136 553 , 1146 553 
Q 1157 554 , 1178 554 
Q 1187 554 , 1194 554 
Q 1201 554 , 1204 554 
" fill="#F5C000" />
<path d="
M 1220 547 
L 1220 548 
Q 1205 548 , 1197 547 
Q 1189 547 , 1179 547 
Q 1158 547 , 1148 548 
Q 1136 548 , 1136 549 
Q 1136 550 , 1148 550 
Q 1158 550 , 1179 550 
Q 1189 550 , 1197 550 
Q 1205 550 , 1220 550 
L 1220 550 
Q 1209 550 , 1199 551 
Q 1189 551 , 1178 551 
Q 1151 551 , 1136 550 
Q 1120 550 , 1120 549 
Q 1120 548 , 1136 547 
Q 1151 547 , 1178 547 
Q 1189 547 , 1199 547 
Q 1210 547 , 1220 547 
" fill="#545FFF" />
<path d="
M 1120 541 
L 1138 541 
L 1138 544 
Q 1138 545 , 1146 545 
Q 1153 546 , 1170 546 
Q 1187 546 , 1195 545 
Q 1202 545 , 1202 544 
L 1202 541 
L 1220 541 
L 1220 544 
Q 1220 545 , 1207 546 
Q 1195 546 , 1170 546 
Q 1146 546 , 1133 546 
Q 1120 545 , 1120 544 
L 1120 541 
" fill="#D21010" />
<path d="
M 1170 534 
L 1152 537 
L 1186 537 
L 1170 534 
M 1163 533 
L 1177 533 
L 1220 540 
L 1204 540 
L 1192 538 
L 1148 538 
L 1135 540 
L 1120 540 
L 1163 533 
" fill="#339541" />
<path d="
M 1225 549 
L 1243 549 
L 1243 552 
Q 1243 553 , 1251 553 
Q 1258 554 , 1275 554 
Q 1292 554 , 1300 553 
Q 1307 553 , 1307 552 
L 1307 549 
L 1325 549 
L 1325 552 
Q 1325 553 , 1312 554 
Q 1300 554 , 1275 554 
Q 1251 554 , 1238 554 
Q 1225 553 , 1225 552 
L 1225 549 
" fill="#D21010" />
<path d="
M 1325 533 
L 1325 536 
Q 1310 534 , 1302 533 
Q 1294 533 , 1284 533 
Q 1263 533 , 1253 535 
Q 1241 536 , 1241 539 
Q 1241 543 , 1253 545 
Q 1263 547 , 1284 547 
Q 1294 547 , 1302 546 
Q 1310 546 , 1325 544 
L 1325 547 
Q 1314 548 , 1304 548 
Q 1294 548 , 1283 548 
Q 1256 548 , 1241 546 
Q 1225 544 , 1225 540 
Q 1225 536 , 1241 533 
Q 1256 531 , 1283 531 
Q 1294 531 , 1304 531 
Q 1315 532 , 1325 533 
" fill="#545FFF" />
<path d="
M 1275 510 
L 1257 520 
L 1291 520 
L 1275 510 
M 1268 505 
L 1282 505 
L 1325 531 
L 1309 531 
L 1297 523 
L 1253 523 
L 1240 531 
L 1225 531 
L 1268 505 
" fill="#339541" />
<path d="
M 1309 494 
L 1309 474 
L 1280 474 
L 1280 466 
L 1325 466 
L 1325 499 
Q 1314 502 , 1303 504 
Q 1294 505 , 1282 505 
Q 1256 505 , 1240 495 
Q 1225 485 , 1225 468 
Q 1225 450 , 1240 440 
Q 1256 430 , 1282 430 
Q 1293 430 , 1302 431 
Q 1312 433 , 1322 436 
L 1322 446 
Q 1309 441 , 1301 440 
Q 1292 439 , 1283 439 
Q 1262 439 , 1251 446 
Q 1241 453 , 1241 468 
Q 1241 482 , 1251 489 
Q 1262 497 , 1283 497 
Q 1292 497 , 1299 496 
Q 1306 495 , 1309 494 
" fill="#F5C000" />
<path d="
M 1380 554 
L 1362 554 
L 1396 554 
L 1380 554 
M 1373 554 
L 1387 554 
L 1430 554 
L 1414 554 
L 1402 554 
L 1358 554 
L 1345 554 
L 1330 554 
L 1373 554 
" fill="#339541" />
<path d="
M 1330 553 
L 1348 553 
L 1348 553 
Q 1348 553 , 1356 553 
Q 1363 553 , 1380 553 
Q 1397 553 , 1405 553 
Q 1412 553 , 1412 553 
L 1412 553 
L 1430 553 
L 1430 553 
Q 1430 553 , 1417 553 
Q 1405 553 , 1380 553 
Q 1356 553 , 1343 553 
Q 1330 553 , 1330 553 
L 1330 553 
" fill="#D21010" />
<path d="
M 1414 552 
L 1414 552 
L 1385 552 
L 1385 552 
L 1430 552 
L 1430 552 
Q 1419 552 , 1408 552 
Q 1399 552 , 1387 552 
Q 1361 552 , 1345 552 
Q 1330 552 , 1330 552 
Q 1330 552 , 1345 552 
Q 1361 552 , 1387 552 
Q 1398 552 , 1407 552 
Q 1417 552 , 1427 552 
L 1427 552 
Q 1414 552 , 1406 552 
Q 1397 552 , 1388 552 
Q 1367 552 , 1356 552 
Q 1346 552 , 1346 552 
Q 1346 552 , 1356 552 
Q 1367 552 , 1388 552 
Q 1397 552 , 1404 552 
Q 1411 552 , 1414 552 
" fill="#F5C000" />
<path d="
M 1430 551 
L 1430 551 
Q 1415 551 , 1407 551 
Q 1399 551 , 1389 551 
Q 1368 551 , 1358 551 
Q 1346 551 , 1346 551 
Q 1346 551 , 1358 551 
Q 1368 551 , 1389 551 
Q 1399 551 , 1407 551 
Q 1415 551 , 1430 551 
L 1430 551 
Q 1419 551 , 1409 551 
Q 1399 551 , 1388 551 
Q 1361 551 , 1346 551 
Q 1330 551 , 1330 551 
Q 1330 551 , 1346 551 
Q 1361 551 , 1388 551 
Q 1399 551 , 1409 551 
Q 1420 551 , 1430 551 
" fill="#545FFF" />
<path d="M 65 55 L 65 555 " stroke="black" stroke-width="1.5"/>
<path d="M 55 555 L 65 555 " stroke="black" stroke-width="4"/>
<text text-anchor="end" x="50" y="555" font-size="50" alignment-baseline="middle">0</text>
<path d="M 55 305 L 65 305 " stroke="black" stroke-width="4"/>
<text text-anchor="end" x="50" y="305" font-size="50" alignment-baseline="middle">1</text>
<path d="M 55 55 L 65 55 " stroke="black" stroke-width="4"/>
<text text-anchor="end" x="50" y="55" font-size="50" alignment-baseline="middle">2</text>
<text text-anchor="middle" x="750" y="50" font-size="50" alignment-baseline="baseline"></text>
G<path d="
M 160 582 
L 126 595 
L 160 608 
L 157 611 
L 123 598 
L 123 623 
L 117 623 
L 117 599 
L 83 611 
L 80 608 
L 114 595 
L 80 582 
L 83 579 
L 117 591 
L 117 567 
L 123 567 
L 123 591 
L 157 579 
L 160 582 
" fill="black" />
<path d="
" fill="black" />
<path d="
M 211 567 
L 238 567 
L 238 623 
L 211 623 
L 211 567 
" fill="black" />
<path d="
" fill="black" />
<path d="
" fill="black" />
<path d="
M 316 567 
L 343 567 
L 343 623 
L 316 623 
L 316 567 
" fill="black" />
<path d="
" fill="black" />
<path d="
" fill="black" />
<path d="
M 421 567 
L 448 567 
L 448 623 
L 421 623 
L 421 567 
" fill="black" />
<path d="
" fill="black" />
<path d="
" fill="black" />
<path d="
M 526 567 
L 553 567 
L 553 623 
L 526 623 
L 526 567 
" fill="black" />
<path d="
" fill="black" />
<path d="
" fill="black" />
<path d="
M 617 567 
L 633 567 
L 633 623 
L 617 623 
L 617 567 
" fill="black" />
<path d="
" fill="black" />
<path d="
M 668 571 
L 659 605 
L 668 605 
L 668 571 
M 667 567 
L 670 567 
L 670 605 
L 673 605 
L 673 608 
L 670 608 
L 670 623 
L 668 623 
L 668 608 
L 657 608 
L 657 604 
L 667 567 
" fill="black" />
<path d="
M 688 571 
L 679 605 
L 688 605 
L 688 571 
M 687 567 
L 690 567 
L 690 605 
L 693 605 
L 693 608 
L 690 608 
L 690 623 
L 688 623 
L 688 608 
L 677 608 
L 677 604 
L 687 567 
" fill="black" />
<path d="
M 790 582 
L 756 595 
L 790 608 
L 787 611 
L 753 598 
L 753 623 
L 747 623 
L 747 599 
L 713 611 
L 710 608 
L 744 595 
L 710 582 
L 713 579 
L 747 591 
L 747 567 
L 753 567 
L 753 591 
L 787 579 
L 790 582 
" fill="black" />
<path d="
" fill="black" />
<path d="
M 841 567 
L 868 567 
L 868 623 
L 841 623 
L 841 567 
" fill="black" />
<path d="
" fill="black" />
<path d="
" fill="black" />
<path d="
M 946 567 
L 973 567 
L 973 623 
L 946 623 
L 946 567 
" fill="black" />
<path d="
" fill="black" />
<path d="
" fill="black" />
<path d="
M 1051 567 
L 1078 567 
L 1078 623 
L 1051 623 
L 1051 567 
" fill="black" />
<path d="
" fill="black" />
<path d="
" fill="black" />
<path d="
M 1156 567 
L 1183 567 
L 1183 623 
L 1156 623 
L 1156 567 
" fill="black" />
<path d="
" fill="black" />
<path d="
" fill="black" />
<path d="
M 1261 567 
L 1288 567 
L 1288 623 
L 1261 623 
L 1261 567 
" fill="black" />
<path d="
" fill="black" />
<path d="
M 1420 582 
L 1386 595 
L 1420 608 
L 1417 611 
L 1383 598 
L 1383 623 
L 1377 623 
L 1377 599 
L 1343 611 
L 1340 608 
L 1374 595 
L 1340 582 
L 1343 579 
L 1377 591 
L 1377 567 
L 1383 567 
L 1383 591 
L 1417 579 
L 1420 582 
" fill="black" />
</svg>
