<svg xmlns="http://www.w3.org/2000/svg"
viewBox="0 0 1435 635">
<path d="
M 120 554 
L 102 554 
L 136 554 
L 120 554 
M 113 554 
L 127 554 
L 170 554 
L 154 554 
L 142 554 
L 98 554 
L 85 554 
L 70 554 
L 113 554 
" fill="#339541" />
<path d="
M 70 553 
L 88 553 
L 88 553 
Q 88 553 , 96 553 
Q 103 553 , 120 553 
Q 137 553 , 145 553 
Q 152 553 , 152 553 
L 152 553 
L 170 553 
L 170 553 
Q 170 553 , 157 553 
Q 145 553 , 120 553 
Q 96 553 , 83 553 
Q 70 553 , 70 553 
L 70 553 
" fill="#D21010" />
<path d="
M 154 552 
L 154 552 
L 125 552 
L 125 552 
L 170 552 
L 170 552 
Q 159 552 , 148 552 
Q 139 552 , 127 552 
Q 101 552 , 85 552 
Q 70 552 , 70 552 
Q 70 552 , 85 552 
Q 101 552 , 127 552 
Q 138 552 , 147 552 
Q 157 552 , 167 552 
L 167 552 
Q 154 552 , 146 552 
Q 137 552 , 128 552 
Q 107 552 , 96 552 
Q 86 552 , 86 552 
Q 86 552 , 96 552 
Q 107 552 , 128 552 
Q 137 552 , 144 552 
Q 151 552 , 154 552 
" fill="#F5C000" />
<path d="
M 170 551 
L 170 551 
Q 155 551 , 147 551 
Q 139 551 , 129 551 
Q 108 551 , 98 551 
Q 86 551 , 86 551 
Q 86 551 , 98 551 
Q 108 551 , 129 551 
Q 139 551 , 147 551 
Q 155 551 , 170 551 
L 170 551 
Q 159 551 , 149 551 
Q 139 551 , 128 551 
Q 101 551 , 86 551 
Q 70 551 , 70 551 
Q 70 551 , 86 551 
Q 101 551 , 128 551 
Q 139 551 , 149 551 
Q 160 551 , 170 551 
" fill="#545FFF" />
<path d="
M 225 551 
L 207 553 
L 241 553 
L 225 551 
M 218 550 
L 232 550 
L 275 554 
L 259 554 
L 247 553 
L 203 553 
L 190 554 
L 175 554 
L 218 550 
" fill="#339541" />
<path d="
M 259 548 
L 259 546 
L 230 546 
L 230 545 
L 275 545 
L 275 548 
Q 264 549 , 253 549 
Q 244 549 , 232 549 
Q 206 549 , 190 548 
Q 175 547 , 175 545 
Q 175 543 , 190 542 
Q 206 541 , 232 541 
Q 243 541 , 252 541 
Q 262 541 , 272 542 
L 272 543 
Q 259 542 , 251 542 
Q 242 542 , 233 542 
Q 212 542 , 201 543 
Q 191 543 , 191 545 
Q 191 547 , 201 547 
Q 212 548 , 233 548 
Q 242 548 , 249 548 
Q 256 548 , 259 548 
" fill="#F5C000" />
<path d="
M 275 518 
L 275 522 
Q 260 519 , 252 518 
Q 244 518 , 234 518 
Q 213 518 , 203 520 
Q 191 523 , 191 528 
Q 191 533 , 203 535 
Q 213 538 , 234 538 
Q 244 538 , 252 537 
Q 260 536 , 275 534 
L 275 538 
Q 264 539 , 254 540 
Q 244 540 , 233 540 
Q 206 540 , 191 537 
Q 175 534 , 175 528 
Q 175 522 , 191 518 
Q 206 515 , 233 515 
Q 244 515 , 254 516 
Q 265 516 , 275 518 
" fill="#545FFF" />
<path d="
M 175 475 
L 193 475 
L 193 498 
Q 193 505 , 201 508 
Q 208 510 , 225 510 
Q 242 510 , 250 508 
Q 257 505 , 257 498 
L 257 475 
L 275 475 
L 275 499 
Q 275 507 , 262 510 
Q 250 514 , 225 514 
Q 201 514 , 188 510 
Q 175 507 , 175 499 
L 175 475 
" fill="#D21010" />
<path d="
M 330 551 
L 312 553 
L 346 553 
L 330 551 
M 323 550 
L 337 550 
L 380 554 
L 364 554 
L 352 553 
L 308 553 
L 295 554 
L 280 554 
L 323 550 
" fill="#339541" />
<path d="
M 364 549 
L 364 548 
L 335 548 
L 335 547 
L 380 547 
L 380 549 
Q 369 550 , 358 550 
Q 349 550 , 337 550 
Q 311 550 , 295 549 
Q 280 548 , 280 547 
Q 280 546 , 295 546 
Q 311 545 , 337 545 
Q 348 545 , 357 545 
Q 367 545 , 377 545 
L 377 546 
Q 364 546 , 356 546 
Q 347 546 , 338 546 
Q 317 546 , 306 546 
Q 296 546 , 296 547 
Q 296 548 , 306 549 
Q 317 549 , 338 549 
Q 347 549 , 354 549 
Q 361 549 , 364 549 
" fill="#F5C000" />
<path d="
M 280 531 
L 298 531 
L 298 539 
Q 298 541 , 306 542 
Q 313 543 , 330 543 
Q 347 543 , 355 542 
Q 362 541 , 362 539 
L 362 531 
L 380 531 
L 380 539 
Q 380 542 , 367 543 
Q 355 544 , 330 544 
Q 306 544 , 293 543 
Q 280 542 , 280 539 
L 280 531 
" fill="#D21010" />
<path d="
M 380 518 
L 380 520 
Q 365 518 , 357 518 
Q 349 518 , 339 518 
Q 318 518 , 308 519 
Q 296 520 , 296 523 
Q 296 526 , 308 527 
Q 318 529 , 339 529 
Q 349 529 , 357 528 
Q 365 528 , 380 526 
L 380 529 
Q 369 529 , 359 530 
Q 349 530 , 338 530 
Q 311 530 , 296 528 
Q 280 526 , 280 523 
Q 280 520 , 296 518 
Q 311 516 , 338 516 
Q 349 516 , 359 516 
Q 370 517 , 380 518 
" fill="#545FFF" />
<path d="
M 435 550 
L 417 552 
L 451 552 
L 435 550 
M 428 549 
L 442 549 
L 485 554 
L 469 554 
L 457 553 
L 413 553 
L 400 554 
L 385 554 
L 428 549 
" fill="#339541" />
<path d="
M 469 548 
L 469 546 
L 440 546 
L 440 546 
L 485 546 
L 485 548 
Q 474 548 , 463 548 
Q 454 549 , 442 549 
Q 416 549 , 400 548 
Q 385 547 , 385 546 
Q 385 544 , 400 544 
Q 416 543 , 442 543 
Q 453 543 , 462 543 
Q 472 543 , 482 543 
L 482 544 
Q 469 544 , 461 544 
Q 452 544 , 443 544 
Q 422 544 , 411 544 
Q 401 545 , 401 546 
Q 401 547 , 411 547 
Q 422 548 , 443 548 
Q 452 548 , 459 548 
Q 466 548 , 469 548 
" fill="#F5C000" />
<path d="
M 385 504 
L 403 504 
L 403 527 
Q 403 533 , 411 536 
Q 418 538 , 435 538 
Q 452 538 , 460 536 
Q 467 533 , 467 527 
L 467 504 
L 485 504 
L 485 527 
Q 485 535 , 472 539 
Q 460 542 , 435 542 
Q 411 542 , 398 539 
Q 385 535 , 385 527 
L 385 504 
" fill="#D21010" />
<path d="
M 485 450 
L 485 459 
Q 470 454 , 462 452 
Q 454 451 , 444 451 
Q 423 451 , 413 456 
Q 401 462 , 401 473 
Q 401 485 , 413 491 
Q 423 497 , 444 497 
Q 454 497 , 462 495 
Q 470 494 , 485 488 
L 485 497 
Q 474 500 , 464 502 
Q 454 503 , 443 503 
Q 416 503 , 401 495 
Q 385 487 , 385 474 
Q 385 460 , 401 452 
Q 416 444 , 443 444 
Q 454 444 , 464 445 
Q 475 447 , 485 450 
" fill="#545FFF" />
<path d="
M 532 554 
L 532 553 
L 518 553 
L 518 553 
L 540 553 
L 540 554 
Q 535 554 , 529 554 
Q 524 554 , 518 554 
Q 505 554 , 498 554 
Q 490 554 , 490 553 
Q 490 553 , 498 552 
Q 505 552 , 518 552 
Q 524 552 , 529 552 
Q 534 552 , 539 552 
L 539 552 
Q 532 552 , 528 552 
Q 524 552 , 519 552 
Q 509 552 , 503 552 
Q 498 553 , 498 553 
Q 498 554 , 503 554 
Q 509 554 , 519 554 
Q 524 554 , 527 554 
Q 531 554 , 532 554 
" fill="#F5C000" />
<path d="
M 540 552 
L 549 552 
L 549 553 
Q 549 554 , 553 554 
Q 556 554 , 565 554 
Q 574 554 , 577 554 
Q 581 554 , 581 553 
L 581 552 
L 590 552 
L 590 553 
Q 590 554 , 584 554 
Q 577 554 , 565 554 
Q 553 554 , 546 554 
Q 540 554 , 540 553 
L 540 552 
" fill="lightgray" />
<path d="
M 532 551 
L 532 549 
L 518 549 
L 518 549 
L 540 549 
L 540 551 
Q 535 551 , 529 551 
Q 524 551 , 518 551 
Q 505 551 , 498 551 
Q 490 550 , 490 549 
Q 490 547 , 498 547 
Q 505 546 , 518 546 
Q 524 546 , 529 546 
Q 534 546 , 539 546 
L 539 547 
Q 532 547 , 528 547 
Q 524 547 , 519 547 
Q 509 547 , 503 547 
Q 498 548 , 498 549 
Q 498 550 , 503 550 
Q 509 551 , 519 551 
Q 524 551 , 527 551 
Q 531 551 , 532 551 
" fill="#F5C000" />
<path d="
M 590 547 
L 590 547 
Q 583 547 , 579 547 
Q 574 547 , 569 547 
Q 559 547 , 554 547 
Q 548 548 , 548 549 
Q 548 550 , 554 550 
Q 559 551 , 569 551 
Q 574 551 , 579 551 
Q 583 550 , 590 550 
L 590 551 
Q 585 551 , 579 551 
Q 575 551 , 569 551 
Q 555 551 , 548 551 
Q 540 550 , 540 549 
Q 540 547 , 548 547 
Q 555 546 , 569 546 
Q 575 546 , 580 546 
Q 585 546 , 590 547 
" fill="lightgray" />
<path d="
M 515 539 
L 506 542 
L 523 542 
L 515 539 
M 511 537 
L 519 537 
L 540 545 
L 532 545 
L 526 543 
L 504 543 
L 497 545 
L 490 545 
L 511 537 
" fill="#339541" />
<path d="
M 540 537 
L 549 537 
L 549 542 
Q 549 543 , 553 544 
Q 556 544 , 565 544 
Q 574 544 , 577 544 
Q 581 543 , 581 542 
L 581 537 
L 590 537 
L 590 542 
Q 590 544 , 584 544 
Q 577 545 , 565 545 
Q 553 545 , 546 544 
Q 540 544 , 540 542 
L 540 537 
" fill="lightgray" />
<path d="
M 490 524 
L 499 524 
L 499 531 
Q 499 533 , 503 534 
Q 506 535 , 515 535 
Q 524 535 , 527 534 
Q 531 533 , 531 531 
L 531 524 
L 540 524 
L 540 531 
Q 540 534 , 534 535 
Q 527 536 , 515 536 
Q 503 536 , 496 535 
Q 490 534 , 490 531 
L 490 524 
" fill="#D21010" />
<path d="
M 565 526 
L 556 531 
L 573 531 
L 565 526 
M 561 524 
L 569 524 
L 590 536 
L 582 536 
L 576 532 
L 554 532 
L 547 536 
L 540 536 
L 561 524 
" fill="lightgray" />
<path d="
M 540 508 
L 540 511 
Q 533 509 , 529 508 
Q 524 508 , 519 508 
Q 509 508 , 504 510 
Q 498 511 , 498 514 
Q 498 518 , 504 520 
Q 509 521 , 519 521 
Q 524 521 , 529 521 
Q 533 521 , 540 519 
L 540 522 
Q 535 523 , 529 523 
Q 525 523 , 519 523 
Q 505 523 , 498 521 
Q 490 519 , 490 515 
Q 490 511 , 498 508 
Q 505 506 , 519 506 
Q 525 506 , 530 506 
Q 535 507 , 540 508 
" fill="#545FFF" />
<path d="
M 582 521 
L 582 516 
L 568 516 
L 568 514 
L 590 514 
L 590 522 
Q 585 523 , 579 523 
Q 574 523 , 568 523 
Q 555 523 , 548 521 
Q 540 519 , 540 515 
Q 540 511 , 548 508 
Q 555 506 , 568 506 
Q 574 506 , 579 506 
Q 584 507 , 589 507 
L 589 510 
Q 582 509 , 578 508 
Q 574 508 , 569 508 
Q 559 508 , 553 510 
Q 548 511 , 548 515 
Q 548 518 , 553 520 
Q 559 521 , 569 521 
Q 574 521 , 577 521 
Q 581 521 , 582 521 
" fill="lightgray" />
<path d="
M 490 473 
L 499 473 
L 499 492 
Q 499 497 , 503 499 
Q 506 502 , 515 502 
Q 524 502 , 527 499 
Q 531 497 , 531 492 
L 531 473 
L 540 473 
L 540 492 
Q 540 499 , 534 502 
Q 527 505 , 515 505 
Q 503 505 , 496 502 
Q 490 499 , 490 492 
L 490 473 
" fill="#D21010" />
<path d="
M 582 501 
L 582 492 
L 568 492 
L 568 488 
L 590 488 
L 590 503 
Q 585 504 , 579 505 
Q 574 505 , 568 505 
Q 555 505 , 548 501 
Q 540 497 , 540 489 
Q 540 482 , 548 477 
Q 555 473 , 568 473 
Q 574 473 , 579 474 
Q 584 474 , 589 476 
L 589 480 
Q 582 478 , 578 477 
Q 574 477 , 569 477 
Q 559 477 , 553 480 
Q 548 483 , 548 489 
Q 548 495 , 553 499 
Q 559 502 , 569 502 
Q 574 502 , 577 501 
Q 581 501 , 582 501 
" fill="lightgray" />
<path d="
M 645 553 
L 627 554 
L 661 554 
L 645 553 
M 638 553 
L 652 553 
L 695 555 
L 679 555 
L 667 554 
L 623 554 
L 610 555 
L 595 555 
L 638 553 
" fill="#339541" />
<path d="
M 595 538 
L 613 538 
L 613 546 
Q 613 549 , 621 550 
Q 628 550 , 645 550 
Q 662 550 , 670 550 
Q 677 549 , 677 546 
L 677 538 
L 695 538 
L 695 547 
Q 695 549 , 682 551 
Q 670 552 , 645 552 
Q 621 552 , 608 551 
Q 595 549 , 595 547 
L 595 538 
" fill="#D21010" />
<path d="
M 695 525 
L 695 527 
Q 680 525 , 672 525 
Q 664 525 , 654 525 
Q 633 525 , 623 526 
Q 611 528 , 611 530 
Q 611 533 , 623 535 
Q 633 536 , 654 536 
Q 664 536 , 672 536 
Q 680 535 , 695 534 
L 695 536 
Q 684 537 , 674 537 
Q 664 538 , 653 538 
Q 626 538 , 611 536 
Q 595 534 , 595 530 
Q 595 527 , 611 525 
Q 626 523 , 653 523 
Q 664 523 , 674 523 
Q 685 524 , 695 525 
" fill="#545FFF" />
<path d="
M 679 520 
L 679 516 
L 650 516 
L 650 514 
L 695 514 
L 695 521 
Q 684 522 , 673 522 
Q 664 522 , 652 522 
Q 626 522 , 610 520 
Q 595 518 , 595 514 
Q 595 510 , 610 508 
Q 626 506 , 652 506 
Q 663 506 , 672 506 
Q 682 507 , 692 507 
L 692 509 
Q 679 509 , 671 508 
Q 662 508 , 653 508 
Q 632 508 , 621 510 
Q 611 511 , 611 514 
Q 611 517 , 621 519 
Q 632 521 , 653 521 
Q 662 521 , 669 520 
Q 676 520 , 679 520 
" fill="#F5C000" />
<path d="
M 750 554 
L 732 554 
L 766 554 
L 750 554 
M 743 554 
L 757 554 
L 800 554 
L 784 554 
L 772 554 
L 728 554 
L 715 554 
L 700 554 
L 743 554 
" fill="#339541" />
<path d="
M 700 553 
L 718 553 
L 718 553 
Q 718 553 , 726 553 
Q 733 553 , 750 553 
Q 767 553 , 775 553 
Q 782 553 , 782 553 
L 782 553 
L 800 553 
L 800 553 
Q 800 553 , 787 553 
Q 775 553 , 750 553 
Q 726 553 , 713 553 
Q 700 553 , 700 553 
L 700 553 
" fill="#D21010" />
<path d="
M 784 552 
L 784 552 
L 755 552 
L 755 552 
L 800 552 
L 800 552 
Q 789 552 , 778 552 
Q 769 552 , 757 552 
Q 731 552 , 715 552 
Q 700 552 , 700 552 
Q 700 552 , 715 552 
Q 731 552 , 757 552 
Q 768 552 , 777 552 
Q 787 552 , 797 552 
L 797 552 
Q 784 552 , 776 552 
Q 767 552 , 758 552 
Q 737 552 , 726 552 
Q 716 552 , 716 552 
Q 716 552 , 726 552 
Q 737 552 , 758 552 
Q 767 552 , 774 552 
Q 781 552 , 784 552 
" fill="#F5C000" />
<path d="
M 800 551 
L 800 551 
Q 785 551 , 777 551 
Q 769 551 , 759 551 
Q 738 551 , 728 551 
Q 716 551 , 716 551 
Q 716 551 , 728 551 
Q 738 551 , 759 551 
Q 769 551 , 777 551 
Q 785 551 , 800 551 
L 800 551 
Q 789 551 , 779 551 
Q 769 551 , 758 551 
Q 731 551 , 716 551 
Q 700 551 , 700 551 
Q 700 551 , 716 551 
Q 731 551 , 758 551 
Q 769 551 , 779 551 
Q 790 551 , 800 551 
" fill="#545FFF" />
<path d="
M 805 548 
L 823 548 
L 823 552 
Q 823 553 , 831 553 
Q 838 554 , 855 554 
Q 872 554 , 880 553 
Q 887 553 , 887 552 
L 887 548 
L 905 548 
L 905 552 
Q 905 553 , 892 554 
Q 880 554 , 855 554 
Q 831 554 , 818 554 
Q 805 553 , 805 552 
L 805 548 
" fill="#D21010" />
<path d="
M 855 541 
L 837 544 
L 871 544 
L 855 541 
M 848 540 
L 862 540 
L 905 548 
L 889 548 
L 877 545 
L 833 545 
L 820 548 
L 805 548 
L 848 540 
" fill="#339541" />
<path d="
M 905 520 
L 905 524 
Q 890 522 , 882 521 
Q 874 520 , 864 520 
Q 843 520 , 833 523 
Q 821 525 , 821 529 
Q 821 533 , 833 535 
Q 843 538 , 864 538 
Q 874 538 , 882 537 
Q 890 536 , 905 534 
L 905 538 
Q 894 539 , 884 539 
Q 874 540 , 863 540 
Q 836 540 , 821 537 
Q 805 534 , 805 529 
Q 805 524 , 821 521 
Q 836 518 , 863 518 
Q 874 518 , 884 519 
Q 895 519 , 905 520 
" fill="#545FFF" />
<path d="
M 889 511 
L 889 499 
L 860 499 
L 860 494 
L 905 494 
L 905 514 
Q 894 516 , 883 517 
Q 874 518 , 862 518 
Q 836 518 , 820 512 
Q 805 506 , 805 495 
Q 805 484 , 820 478 
Q 836 472 , 862 472 
Q 873 472 , 882 473 
Q 892 474 , 902 476 
L 902 482 
Q 889 479 , 881 478 
Q 872 477 , 863 477 
Q 842 477 , 831 482 
Q 821 486 , 821 495 
Q 821 504 , 831 508 
Q 842 513 , 863 513 
Q 872 513 , 879 512 
Q 886 512 , 889 511 
" fill="#F5C000" />
<path d="
M 994 554 
L 994 553 
L 965 553 
L 965 553 
L 1010 553 
L 1010 554 
Q 999 554 , 988 554 
Q 979 555 , 967 555 
Q 941 555 , 925 554 
Q 910 554 , 910 553 
Q 910 553 , 925 552 
Q 941 552 , 967 552 
Q 978 552 , 987 552 
Q 997 552 , 1007 552 
L 1007 553 
Q 994 552 , 986 552 
Q 977 552 , 968 552 
Q 947 552 , 936 553 
Q 926 553 , 926 553 
Q 926 554 , 936 554 
Q 947 554 , 968 554 
Q 977 554 , 984 554 
Q 991 554 , 994 554 
" fill="#F5C000" />
<path d="
M 910 548 
L 928 548 
L 928 550 
Q 928 551 , 936 551 
Q 943 552 , 960 552 
Q 977 552 , 985 551 
Q 992 551 , 992 550 
L 992 548 
L 1010 548 
L 1010 550 
Q 1010 551 , 997 552 
Q 985 552 , 960 552 
Q 936 552 , 923 552 
Q 910 551 , 910 550 
L 910 548 
" fill="#D21010" />
<path d="
M 1010 543 
L 1010 544 
Q 995 543 , 987 543 
Q 979 543 , 969 543 
Q 948 543 , 938 543 
Q 926 544 , 926 545 
Q 926 546 , 938 547 
Q 948 547 , 969 547 
Q 979 547 , 987 547 
Q 995 547 , 1010 546 
L 1010 547 
Q 999 548 , 989 548 
Q 979 548 , 968 548 
Q 941 548 , 926 547 
Q 910 546 , 910 545 
Q 910 544 , 926 543 
Q 941 542 , 968 542 
Q 979 542 , 989 542 
Q 1000 542 , 1010 543 
" fill="#545FFF" />
<path d="
M 960 535 
L 942 538 
L 976 538 
L 960 535 
M 953 534 
L 967 534 
L 1010 541 
L 994 541 
L 982 539 
L 938 539 
L 925 541 
L 910 541 
L 953 534 
" fill="#339541" />
<path d="
M 1057 554 
L 1057 553 
L 1043 553 
L 1043 553 
L 1065 553 
L 1065 554 
Q 1060 554 , 1054 554 
Q 1049 554 , 1043 554 
Q 1030 554 , 1023 554 
Q 1015 554 , 1015 553 
Q 1015 553 , 1023 552 
Q 1030 552 , 1043 552 
Q 1049 552 , 1054 552 
Q 1059 552 , 1064 552 
L 1064 552 
Q 1057 552 , 1053 552 
Q 1049 552 , 1044 552 
Q 1034 552 , 1028 552 
Q 1023 553 , 1023 553 
Q 1023 554 , 1028 554 
Q 1034 554 , 1044 554 
Q 1049 554 , 1052 554 
Q 1056 554 , 1057 554 
" fill="lightgray" />
<path d="
M 1065 552 
L 1074 552 
L 1074 553 
Q 1074 554 , 1078 554 
Q 1081 554 , 1090 554 
Q 1099 554 , 1102 554 
Q 1106 554 , 1106 553 
L 1106 552 
L 1115 552 
L 1115 553 
Q 1115 554 , 1109 554 
Q 1102 554 , 1090 554 
Q 1078 554 , 1071 554 
Q 1065 554 , 1065 553 
L 1065 552 
" fill="#D21010" />
<path d="
M 1057 551 
L 1057 549 
L 1043 549 
L 1043 549 
L 1065 549 
L 1065 551 
Q 1060 551 , 1054 551 
Q 1049 551 , 1043 551 
Q 1030 551 , 1023 551 
Q 1015 550 , 1015 549 
Q 1015 547 , 1023 547 
Q 1030 546 , 1043 546 
Q 1049 546 , 1054 546 
Q 1059 546 , 1064 546 
L 1064 547 
Q 1057 547 , 1053 547 
Q 1049 547 , 1044 547 
Q 1034 547 , 1028 547 
Q 1023 548 , 1023 549 
Q 1023 550 , 1028 550 
Q 1034 551 , 1044 551 
Q 1049 551 , 1052 551 
Q 1056 551 , 1057 551 
" fill="lightgray" />
<path d="
M 1115 547 
L 1115 547 
Q 1108 547 , 1104 547 
Q 1099 547 , 1094 547 
Q 1084 547 , 1079 547 
Q 1073 548 , 1073 549 
Q 1073 550 , 1079 550 
Q 1084 551 , 1094 551 
Q 1099 551 , 1104 551 
Q 1108 550 , 1115 550 
L 1115 551 
Q 1110 551 , 1104 551 
Q 1100 551 , 1094 551 
Q 1080 551 , 1073 551 
Q 1065 550 , 1065 549 
Q 1065 547 , 1073 547 
Q 1080 546 , 1094 546 
Q 1100 546 , 1105 546 
Q 1110 546 , 1115 547 
" fill="#545FFF" />
<path d="
M 1040 539 
L 1031 542 
L 1048 542 
L 1040 539 
M 1036 537 
L 1044 537 
L 1065 545 
L 1057 545 
L 1051 543 
L 1029 543 
L 1022 545 
L 1015 545 
L 1036 537 
" fill="lightgray" />
<path d="
M 1065 537 
L 1074 537 
L 1074 542 
Q 1074 543 , 1078 544 
Q 1081 544 , 1090 544 
Q 1099 544 , 1102 544 
Q 1106 543 , 1106 542 
L 1106 537 
L 1115 537 
L 1115 542 
Q 1115 544 , 1109 544 
Q 1102 545 , 1090 545 
Q 1078 545 , 1071 544 
Q 1065 544 , 1065 542 
L 1065 537 
" fill="#D21010" />
<path d="
M 1015 524 
L 1024 524 
L 1024 531 
Q 1024 533 , 1028 534 
Q 1031 535 , 1040 535 
Q 1049 535 , 1052 534 
Q 1056 533 , 1056 531 
L 1056 524 
L 1065 524 
L 1065 531 
Q 1065 534 , 1059 535 
Q 1052 536 , 1040 536 
Q 1028 536 , 1021 535 
Q 1015 534 , 1015 531 
L 1015 524 
" fill="lightgray" />
<path d="
M 1090 526 
L 1081 531 
L 1098 531 
L 1090 526 
M 1086 524 
L 1094 524 
L 1115 536 
L 1107 536 
L 1101 532 
L 1079 532 
L 1072 536 
L 1065 536 
L 1086 524 
" fill="#339541" />
<path d="
M 1065 508 
L 1065 511 
Q 1058 509 , 1054 508 
Q 1049 508 , 1044 508 
Q 1034 508 , 1029 510 
Q 1023 511 , 1023 514 
Q 1023 518 , 1029 520 
Q 1034 521 , 1044 521 
Q 1049 521 , 1054 521 
Q 1058 521 , 1065 519 
L 1065 522 
Q 1060 523 , 1054 523 
Q 1050 523 , 1044 523 
Q 1030 523 , 1023 521 
Q 1015 519 , 1015 515 
Q 1015 511 , 1023 508 
Q 1030 506 , 1044 506 
Q 1050 506 , 1055 506 
Q 1060 507 , 1065 508 
" fill="lightgray" />
<path d="
M 1107 521 
L 1107 516 
L 1093 516 
L 1093 514 
L 1115 514 
L 1115 522 
Q 1110 523 , 1104 523 
Q 1099 523 , 1093 523 
Q 1080 523 , 1073 521 
Q 1065 519 , 1065 515 
Q 1065 511 , 1073 508 
Q 1080 506 , 1093 506 
Q 1099 506 , 1104 506 
Q 1109 507 , 1114 507 
L 1114 510 
Q 1107 509 , 1103 508 
Q 1099 508 , 1094 508 
Q 1084 508 , 1078 510 
Q 1073 511 , 1073 515 
Q 1073 518 , 1078 520 
Q 1084 521 , 1094 521 
Q 1099 521 , 1102 521 
Q 1106 521 , 1107 521 
" fill="#F5C000" />
<path d="
M 1015 473 
L 1024 473 
L 1024 492 
Q 1024 497 , 1028 499 
Q 1031 502 , 1040 502 
Q 1049 502 , 1052 499 
Q 1056 497 , 1056 492 
L 1056 473 
L 1065 473 
L 1065 492 
Q 1065 499 , 1059 502 
Q 1052 505 , 1040 505 
Q 1028 505 , 1021 502 
Q 1015 499 , 1015 492 
L 1015 473 
" fill="lightgray" />
<path d="
M 1107 501 
L 1107 492 
L 1093 492 
L 1093 488 
L 1115 488 
L 1115 503 
Q 1110 504 , 1104 505 
Q 1099 505 , 1093 505 
Q 1080 505 , 1073 501 
Q 1065 497 , 1065 489 
Q 1065 482 , 1073 477 
Q 1080 473 , 1093 473 
Q 1099 473 , 1104 474 
Q 1109 474 , 1114 476 
L 1114 480 
Q 1107 478 , 1103 477 
Q 1099 477 , 1094 477 
Q 1084 477 , 1078 480 
Q 1073 483 , 1073 489 
Q 1073 495 , 1078 499 
Q 1084 502 , 1094 502 
Q 1099 502 , 1102 501 
Q 1106 501 , 1107 501 
" fill="#F5C000" />
<path d="
M 1170 548 
L 1152 551 
L 1186 551 
L 1170 548 
M 1163 547 
L 1177 547 
L 1220 555 
L 1204 555 
L 1192 552 
L 1148 552 
L 1135 555 
L 1120 555 
L 1163 547 
" fill="#339541" />
<path d="
M 1220 534 
L 1220 537 
Q 1205 535 , 1197 535 
Q 1189 535 , 1179 535 
Q 1158 535 , 1148 536 
Q 1136 537 , 1136 539 
Q 1136 542 , 1148 544 
Q 1158 545 , 1179 545 
Q 1189 545 , 1197 545 
Q 1205 544 , 1220 543 
L 1220 545 
Q 1209 546 , 1199 546 
Q 1189 547 , 1178 547 
Q 1151 547 , 1136 545 
Q 1120 543 , 1120 540 
Q 1120 537 , 1136 535 
Q 1151 533 , 1178 533 
Q 1189 533 , 1199 533 
Q 1210 534 , 1220 534 
" fill="#545FFF" />
<path d="
M 1120 515 
L 1138 515 
L 1138 525 
Q 1138 528 , 1146 529 
Q 1153 530 , 1170 530 
Q 1187 530 , 1195 529 
Q 1202 528 , 1202 525 
L 1202 515 
L 1220 515 
L 1220 526 
Q 1220 529 , 1207 531 
Q 1195 532 , 1170 532 
Q 1146 532 , 1133 531 
Q 1120 529 , 1120 526 
L 1120 515 
" fill="#D21010" />
<path d="
M 1204 501 
L 1204 477 
L 1175 477 
L 1175 467 
L 1220 467 
L 1220 507 
Q 1209 511 , 1198 513 
Q 1189 514 , 1177 514 
Q 1151 514 , 1135 502 
Q 1120 490 , 1120 469 
Q 1120 447 , 1135 435 
Q 1151 423 , 1177 423 
Q 1188 423 , 1197 425 
Q 1207 426 , 1217 430 
L 1217 442 
Q 1204 437 , 1196 435 
Q 1187 434 , 1178 434 
Q 1157 434 , 1146 442 
Q 1136 451 , 1136 469 
Q 1136 487 , 1146 495 
Q 1157 504 , 1178 504 
Q 1187 504 , 1194 503 
Q 1201 502 , 1204 501 
" fill="#F5C000" />
<path d="
M 1225 551 
L 1243 551 
L 1243 553 
Q 1243 554 , 1251 554 
Q 1258 554 , 1275 554 
Q 1292 554 , 1300 554 
Q 1307 554 , 1307 553 
L 1307 551 
L 1325 551 
L 1325 553 
Q 1325 554 , 1312 554 
Q 1300 554 , 1275 554 
Q 1251 554 , 1238 554 
Q 1225 554 , 1225 553 
L 1225 551 
" fill="#D21010" />
<path d="
M 1325 546 
L 1325 547 
Q 1310 546 , 1302 546 
Q 1294 546 , 1284 546 
Q 1263 546 , 1253 546 
Q 1241 547 , 1241 548 
Q 1241 549 , 1253 550 
Q 1263 550 , 1284 550 
Q 1294 550 , 1302 550 
Q 1310 550 , 1325 549 
L 1325 550 
Q 1314 551 , 1304 551 
Q 1294 551 , 1283 551 
Q 1256 551 , 1241 550 
Q 1225 549 , 1225 548 
Q 1225 547 , 1241 546 
Q 1256 545 , 1283 545 
Q 1294 545 , 1304 545 
Q 1315 545 , 1325 546 
" fill="#545FFF" />
<path d="
M 1309 543 
L 1309 541 
L 1280 541 
L 1280 540 
L 1325 540 
L 1325 544 
Q 1314 544 , 1303 544 
Q 1294 545 , 1282 545 
Q 1256 545 , 1240 543 
Q 1225 542 , 1225 540 
Q 1225 538 , 1240 537 
Q 1256 536 , 1282 536 
Q 1293 536 , 1302 536 
Q 1312 536 , 1322 537 
L 1322 538 
Q 1309 537 , 1301 537 
Q 1292 537 , 1283 537 
Q 1262 537 , 1251 538 
Q 1241 539 , 1241 540 
Q 1241 542 , 1251 543 
Q 1262 544 , 1283 544 
Q 1292 544 , 1299 544 
Q 1306 543 , 1309 543 
" fill="#F5C000" />
<path d="
M 1275 524 
L 1257 530 
L 1291 530 
L 1275 524 
M 1268 522 
L 1282 522 
L 1325 535 
L 1309 535 
L 1297 531 
L 1253 531 
L 1240 535 
L 1225 535 
L 1268 522 
" fill="#339541" />
<path d="
M 1380 554 
L 1362 554 
L 1396 554 
L 1380 554 
M 1373 554 
L 1387 554 
L 1430 554 
L 1414 554 
L 1402 554 
L 1358 554 
L 1345 554 
L 1330 554 
L 1373 554 
" fill="#339541" />
<path d="
M 1330 553 
L 1348 553 
L 1348 553 
Q 1348 553 , 1356 553 
Q 1363 553 , 1380 553 
Q 1397 553 , 1405 553 
Q 1412 553 , 1412 553 
L 1412 553 
L 1430 553 
L 1430 553 
Q 1430 553 , 1417 553 
Q 1405 553 , 1380 553 
Q 1356 553 , 1343 553 
Q 1330 553 , 1330 553 
L 1330 553 
" fill="#D21010" />
<path d="
M 1414 552 
L 1414 552 
L 1385 552 
L 1385 552 
L 1430 552 
L 1430 552 
Q 1419 552 , 1408 552 
Q 1399 552 , 1387 552 
Q 1361 552 , 1345 552 
Q 1330 552 , 1330 552 
Q 1330 552 , 1345 552 
Q 1361 552 , 1387 552 
Q 1398 552 , 1407 552 
Q 1417 552 , 1427 552 
L 1427 552 
Q 1414 552 , 1406 552 
Q 1397 552 , 1388 552 
Q 1367 552 , 1356 552 
Q 1346 552 , 1346 552 
Q 1346 552 , 1356 552 
Q 1367 552 , 1388 552 
Q 1397 552 , 1404 552 
Q 1411 552 , 1414 552 
" fill="#F5C000" />
<path d="
M 1430 551 
L 1430 551 
Q 1415 551 , 1407 551 
Q 1399 551 , 1389 551 
Q 1368 551 , 1358 551 
Q 1346 551 , 1346 551 
Q 1346 551 , 1358 551 
Q 1368 551 , 1389 551 
Q 1399 551 , 1407 551 
Q 1415 551 , 1430 551 
L 1430 551 
Q 1419 551 , 1409 551 
Q 1399 551 , 1388 551 
Q 1361 551 , 1346 551 
Q 1330 551 , 1330 551 
Q 1330 551 , 1346 551 
Q 1361 551 , 1388 551 
Q 1399 551 , 1409 551 
Q 1420 551 , 1430 551 
" fill="#545FFF" />
<path d="M 65 168 L 65 555 " stroke="black" stroke-width="1.5"/>
<path d="M 55 555 L 65 555 " stroke="black" stroke-width="4"/>
<text text-anchor="end" x="50" y="555" font-size="50" alignment-baseline="middle">0</text>
<path d="M 55 362 L 65 362 " stroke="black" stroke-width="4"/>
<text text-anchor="end" x="50" y="362" font-size="50" alignment-baseline="middle">1</text>
<path d="M 55 168 L 65 168 " stroke="black" stroke-width="4"/>
<text text-anchor="end" x="50" y="168" font-size="50" alignment-baseline="middle">2</text>
<text text-anchor="middle" x="750" y="50" font-size="50" alignment-baseline="baseline"></text>
G<path d="
M 160 582 
L 126 595 
L 160 608 
L 157 611 
L 123 598 
L 123 623 
L 117 623 
L 117 599 
L 83 611 
L 80 608 
L 114 595 
L 80 582 
L 83 579 
L 117 591 
L 117 567 
L 123 567 
L 123 591 
L 157 579 
L 160 582 
" fill="black" />
<path d="
" fill="black" />
<path d="
M 211 567 
L 238 567 
L 238 623 
L 211 623 
L 211 567 
" fill="black" />
<path d="
" fill="black" />
<path d="
" fill="black" />
<path d="
M 316 567 
L 343 567 
L 343 623 
L 316 623 
L 316 567 
" fill="black" />
<path d="
" fill="black" />
<path d="
" fill="black" />
<path d="
M 421 567 
L 448 567 
L 448 623 
L 421 623 
L 421 567 
" fill="black" />
<path d="
" fill="black" />
<path d="
M 580 567 
Q 551 574 , 538 581 
Q 525 588 , 525 595 
Q 525 602 , 538 609 
Q 551 616 , 580 623 
L 556 623 
Q 528 616 , 514 609 
Q 500 602 , 500 595 
Q 500 588 , 514 581 
Q 528 574 , 556 567 
L 580 567 
" fill="black" />
<path d="
" fill="black" />
<path d="
M 617 567 
L 633 567 
L 633 623 
L 617 623 
L 617 567 
" fill="black" />
<path d="
" fill="black" />
<path d="
M 659 619 
L 665 619 
L 665 572 
L 657 578 
L 657 573 
L 665 567 
L 667 567 
L 667 619 
L 673 619 
L 673 623 
L 659 623 
L 659 619 
" fill="black" />
<path d="
M 685 571 
Q 682 571 , 681 577 
Q 679 583 , 679 595 
Q 679 607 , 681 613 
Q 682 619 , 685 619 
Q 688 619 , 689 613 
Q 691 607 , 691 595 
Q 691 583 , 689 577 
Q 688 571 , 685 571 
M 685 567 
Q 689 567 , 691 573 
Q 693 580 , 693 595 
Q 693 610 , 691 617 
Q 689 623 , 685 623 
Q 681 623 , 679 617 
Q 677 610 , 677 595 
Q 677 580 , 679 573 
Q 681 567 , 685 567 
" fill="black" />
<path d="
M 790 582 
L 756 595 
L 790 608 
L 787 611 
L 753 598 
L 753 623 
L 747 623 
L 747 599 
L 713 611 
L 710 608 
L 744 595 
L 710 582 
L 713 579 
L 747 591 
L 747 567 
L 753 567 
L 753 591 
L 787 579 
L 790 582 
" fill="black" />
<path d="
" fill="black" />
<path d="
M 841 567 
L 868 567 
L 868 623 
L 841 623 
L 841 567 
" fill="black" />
<path d="
" fill="black" />
<path d="
" fill="black" />
<path d="
M 946 567 
L 973 567 
L 973 623 
L 946 623 
L 946 567 
" fill="black" />
<path d="
" fill="black" />
<path d="
M 1025 567 
L 1049 567 
Q 1077 574 , 1091 581 
Q 1105 588 , 1105 595 
Q 1105 602 , 1091 609 
Q 1077 616 , 1049 623 
L 1025 623 
Q 1054 616 , 1067 609 
Q 1080 602 , 1080 595 
Q 1080 588 , 1067 581 
Q 1054 574 , 1025 567 
" fill="black" />
<path d="
" fill="black" />
<path d="
M 1156 567 
L 1183 567 
L 1183 623 
L 1156 623 
L 1156 567 
" fill="black" />
<path d="
" fill="black" />
<path d="
" fill="black" />
<path d="
M 1261 567 
L 1288 567 
L 1288 623 
L 1261 623 
L 1261 567 
" fill="black" />
<path d="
" fill="black" />
<path d="
M 1420 582 
L 1386 595 
L 1420 608 
L 1417 611 
L 1383 598 
L 1383 623 
L 1377 623 
L 1377 599 
L 1343 611 
L 1340 608 
L 1374 595 
L 1340 582 
L 1343 579 
L 1377 591 
L 1377 567 
L 1383 567 
L 1383 591 
L 1417 579 
L 1420 582 
" fill="black" />
</svg>
