<svg xmlns="http://www.w3.org/2000/svg"
viewBox="0 0 1120 635">
<path d="
M 154 554 
L 154 552 
L 125 552 
L 125 552 
L 170 552 
L 170 554 
Q 159 555 , 148 555 
Q 139 555 , 127 555 
Q 101 555 , 85 554 
Q 70 553 , 70 552 
Q 70 551 , 85 550 
Q 101 549 , 127 549 
Q 138 549 , 147 549 
Q 157 549 , 167 549 
L 167 550 
Q 154 550 , 146 550 
Q 137 550 , 128 550 
Q 107 550 , 96 550 
Q 86 551 , 86 552 
Q 86 553 , 96 554 
Q 107 554 , 128 554 
Q 137 554 , 144 554 
Q 151 554 , 154 554 
" fill="#F5C000" />
<path d="
M 120 543 
L 102 546 
L 136 546 
L 120 543 
M 113 542 
L 127 542 
L 170 549 
L 154 549 
L 142 547 
L 98 547 
L 85 549 
L 70 549 
L 113 542 
" fill="#339541" />
<path d="
M 170 527 
L 170 529 
Q 155 528 , 147 527 
Q 139 527 , 129 527 
Q 108 527 , 98 528 
Q 86 530 , 86 533 
Q 86 537 , 98 538 
Q 108 540 , 129 540 
Q 139 540 , 147 540 
Q 155 539 , 170 537 
L 170 540 
Q 159 541 , 149 541 
Q 139 542 , 128 542 
Q 101 542 , 86 540 
Q 70 537 , 70 533 
Q 70 530 , 86 527 
Q 101 525 , 128 525 
Q 139 525 , 149 525 
Q 160 526 , 170 527 
" fill="#545FFF" />
<path d="
M 70 503 
L 88 503 
L 88 515 
Q 88 519 , 96 520 
Q 103 522 , 120 522 
Q 137 522 , 145 520 
Q 152 519 , 152 515 
L 152 503 
L 170 503 
L 170 516 
Q 170 520 , 157 522 
Q 145 524 , 120 524 
Q 96 524 , 83 522 
Q 70 520 , 70 516 
L 70 503 
" fill="#D21010" />
<path d="
M 225 549 
L 207 552 
L 241 552 
L 225 549 
M 218 548 
L 232 548 
L 275 554 
L 259 554 
L 247 553 
L 203 553 
L 190 554 
L 175 554 
L 218 548 
" fill="#339541" />
<path d="
M 259 545 
L 259 541 
L 230 541 
L 230 539 
L 275 539 
L 275 546 
Q 264 547 , 253 547 
Q 244 547 , 232 547 
Q 206 547 , 190 545 
Q 175 543 , 175 539 
Q 175 535 , 190 533 
Q 206 531 , 232 531 
Q 243 531 , 252 531 
Q 262 532 , 272 532 
L 272 534 
Q 259 533 , 251 533 
Q 242 533 , 233 533 
Q 212 533 , 201 534 
Q 191 536 , 191 539 
Q 191 542 , 201 544 
Q 212 545 , 233 545 
Q 242 545 , 249 545 
Q 256 545 , 259 545 
" fill="#F5C000" />
<path d="
M 175 503 
L 193 503 
L 193 520 
Q 193 524 , 201 526 
Q 208 528 , 225 528 
Q 242 528 , 250 526 
Q 257 524 , 257 520 
L 257 503 
L 275 503 
L 275 520 
Q 275 525 , 262 528 
Q 250 531 , 225 531 
Q 201 531 , 188 528 
Q 175 525 , 175 520 
L 175 503 
" fill="#D21010" />
<path d="
M 275 329 
L 275 359 
Q 260 339 , 252 335 
Q 244 330 , 234 330 
Q 213 330 , 203 348 
Q 191 368 , 191 405 
Q 191 443 , 203 463 
Q 213 482 , 234 482 
Q 244 482 , 252 477 
Q 260 472 , 275 452 
L 275 483 
Q 264 494 , 254 498 
Q 244 503 , 233 503 
Q 206 503 , 191 477 
Q 175 450 , 175 406 
Q 175 361 , 191 335 
Q 206 308 , 233 308 
Q 244 308 , 254 313 
Q 265 318 , 275 329 
" fill="#545FFF" />
<path d="
M 330 552 
L 312 553 
L 346 553 
L 330 552 
M 323 551 
L 337 551 
L 380 554 
L 364 554 
L 352 553 
L 308 553 
L 295 554 
L 280 554 
L 323 551 
" fill="#339541" />
<path d="
M 364 550 
L 364 549 
L 335 549 
L 335 549 
L 380 549 
L 380 550 
Q 369 550 , 358 550 
Q 349 550 , 337 550 
Q 311 550 , 295 550 
Q 280 549 , 280 549 
Q 280 548 , 295 547 
Q 311 547 , 337 547 
Q 348 547 , 357 547 
Q 367 547 , 377 547 
L 377 548 
Q 364 548 , 356 547 
Q 347 547 , 338 547 
Q 317 547 , 306 548 
Q 296 548 , 296 549 
Q 296 549 , 306 550 
Q 317 550 , 338 550 
Q 347 550 , 354 550 
Q 361 550 , 364 550 
" fill="#F5C000" />
<path d="
M 380 503 
L 380 511 
Q 365 506 , 357 505 
Q 349 503 , 339 503 
Q 318 503 , 308 508 
Q 296 513 , 296 522 
Q 296 532 , 308 536 
Q 318 541 , 339 541 
Q 349 541 , 357 540 
Q 365 539 , 380 534 
L 380 541 
Q 369 544 , 359 545 
Q 349 546 , 338 546 
Q 311 546 , 296 540 
Q 280 533 , 280 522 
Q 280 511 , 296 505 
Q 311 498 , 338 498 
Q 349 498 , 359 499 
Q 370 500 , 380 503 
" fill="#545FFF" />
<path d="
M 280 253 
L 298 253 
L 298 398 
Q 298 438 , 306 455 
Q 313 471 , 330 471 
Q 347 471 , 355 455 
Q 362 438 , 362 398 
L 362 253 
L 380 253 
L 380 401 
Q 380 448 , 367 473 
Q 355 498 , 330 498 
Q 306 498 , 293 473 
Q 280 448 , 280 401 
L 280 253 
" fill="#D21010" />
<path d="
M 485 544 
L 485 546 
Q 470 545 , 462 545 
Q 454 544 , 444 544 
Q 423 544 , 413 545 
Q 401 547 , 401 549 
Q 401 551 , 413 552 
Q 423 553 , 444 553 
Q 454 553 , 462 553 
Q 470 553 , 485 552 
L 485 553 
Q 474 554 , 464 554 
Q 454 555 , 443 555 
Q 416 555 , 401 553 
Q 385 551 , 385 549 
Q 385 546 , 401 545 
Q 416 543 , 443 543 
Q 454 543 , 464 543 
Q 475 544 , 485 544 
" fill="#545FFF" />
<path d="
M 469 540 
L 469 536 
L 440 536 
L 440 534 
L 485 534 
L 485 541 
Q 474 542 , 463 542 
Q 454 542 , 442 542 
Q 416 542 , 400 540 
Q 385 538 , 385 534 
Q 385 530 , 400 528 
Q 416 526 , 442 526 
Q 453 526 , 462 526 
Q 472 527 , 482 527 
L 482 529 
Q 469 529 , 461 528 
Q 452 528 , 443 528 
Q 422 528 , 411 530 
Q 401 531 , 401 534 
Q 401 537 , 411 539 
Q 422 541 , 443 541 
Q 452 541 , 459 540 
Q 466 540 , 469 540 
" fill="#F5C000" />
<path d="
M 435 509 
L 417 517 
L 451 517 
L 435 509 
M 428 505 
L 442 505 
L 485 525 
L 469 525 
L 457 519 
L 413 519 
L 400 525 
L 385 525 
L 428 505 
" fill="#339541" />
<path d="
M 385 313 
L 403 313 
L 403 426 
Q 403 457 , 411 471 
Q 418 483 , 435 483 
Q 452 483 , 460 471 
Q 467 457 , 467 426 
L 467 313 
L 485 313 
L 485 429 
Q 485 466 , 472 485 
Q 460 504 , 435 504 
Q 411 504 , 398 485 
Q 385 466 , 385 429 
L 385 313 
" fill="#D21010" />
<path d="
M 540 553 
L 522 554 
L 556 554 
L 540 553 
M 533 553 
L 547 553 
L 590 554 
L 574 554 
L 562 554 
L 518 554 
L 505 554 
L 490 554 
L 533 553 
" fill="#339541" />
<path d="
M 574 552 
L 574 551 
L 545 551 
L 545 551 
L 590 551 
L 590 552 
Q 579 552 , 568 552 
Q 559 552 , 547 552 
Q 521 552 , 505 552 
Q 490 551 , 490 551 
Q 490 551 , 505 550 
Q 521 550 , 547 550 
Q 558 550 , 567 550 
Q 577 550 , 587 550 
L 587 550 
Q 574 550 , 566 550 
Q 557 550 , 548 550 
Q 527 550 , 516 550 
Q 506 551 , 506 551 
Q 506 551 , 516 552 
Q 527 552 , 548 552 
Q 557 552 , 564 552 
Q 571 552 , 574 552 
" fill="#F5C000" />
<path d="
M 590 489 
L 590 500 
Q 575 493 , 567 491 
Q 559 489 , 549 489 
Q 528 489 , 518 496 
Q 506 503 , 506 516 
Q 506 529 , 518 536 
Q 528 542 , 549 542 
Q 559 542 , 567 541 
Q 575 539 , 590 532 
L 590 543 
Q 579 547 , 569 548 
Q 559 550 , 548 550 
Q 521 550 , 506 540 
Q 490 531 , 490 516 
Q 490 500 , 506 491 
Q 521 482 , 548 482 
Q 559 482 , 569 484 
Q 580 485 , 590 489 
" fill="#545FFF" />
<path d="
M 490 277 
L 508 277 
L 508 398 
Q 508 431 , 516 445 
Q 523 458 , 540 458 
Q 557 458 , 565 445 
Q 572 431 , 572 398 
L 572 277 
L 590 277 
L 590 401 
Q 590 440 , 577 460 
Q 565 481 , 540 481 
Q 516 481 , 503 460 
Q 490 440 , 490 401 
L 490 277 
" fill="#D21010" />
<path d="
M 645 553 
L 627 554 
L 661 554 
L 645 553 
M 638 553 
L 652 553 
L 695 554 
L 679 554 
L 667 554 
L 623 554 
L 610 554 
L 595 554 
L 638 553 
" fill="#339541" />
<path d="
M 679 552 
L 679 550 
L 650 550 
L 650 549 
L 695 549 
L 695 552 
Q 684 553 , 673 553 
Q 664 553 , 652 553 
Q 626 553 , 610 552 
Q 595 551 , 595 549 
Q 595 548 , 610 547 
Q 626 546 , 652 546 
Q 663 546 , 672 546 
Q 682 546 , 692 547 
L 692 547 
Q 679 547 , 671 547 
Q 662 547 , 653 547 
Q 632 547 , 621 547 
Q 611 548 , 611 549 
Q 611 551 , 621 552 
Q 632 552 , 653 552 
Q 662 552 , 669 552 
Q 676 552 , 679 552 
" fill="#F5C000" />
<path d="
M 595 533 
L 613 533 
L 613 541 
Q 613 543 , 621 544 
Q 628 544 , 645 544 
Q 662 544 , 670 544 
Q 677 543 , 677 541 
L 677 533 
L 695 533 
L 695 541 
Q 695 543 , 682 545 
Q 670 546 , 645 546 
Q 621 546 , 608 545 
Q 595 543 , 595 541 
L 595 533 
" fill="#D21010" />
<path d="
M 695 183 
L 695 243 
Q 680 204 , 672 194 
Q 664 184 , 654 184 
Q 633 184 , 623 222 
Q 611 261 , 611 336 
Q 611 412 , 623 452 
Q 633 490 , 654 490 
Q 664 490 , 672 480 
Q 680 469 , 695 431 
L 695 492 
Q 684 514 , 674 523 
Q 664 532 , 653 532 
Q 626 532 , 611 479 
Q 595 426 , 595 337 
Q 595 247 , 611 194 
Q 626 141 , 653 141 
Q 664 141 , 674 151 
Q 685 160 , 695 183 
" fill="#545FFF" />
<path d="
M 750 553 
L 732 554 
L 766 554 
L 750 553 
M 743 553 
L 757 553 
L 800 554 
L 784 554 
L 772 554 
L 728 554 
L 715 554 
L 700 554 
L 743 553 
" fill="#339541" />
<path d="
M 784 552 
L 784 551 
L 755 551 
L 755 551 
L 800 551 
L 800 552 
Q 789 553 , 778 553 
Q 769 553 , 757 553 
Q 731 553 , 715 552 
Q 700 552 , 700 551 
Q 700 550 , 715 550 
Q 731 549 , 757 549 
Q 768 549 , 777 549 
Q 787 549 , 797 549 
L 797 550 
Q 784 550 , 776 550 
Q 767 549 , 758 549 
Q 737 549 , 726 550 
Q 716 550 , 716 551 
Q 716 552 , 726 552 
Q 737 552 , 758 552 
Q 767 552 , 774 552 
Q 781 552 , 784 552 
" fill="#F5C000" />
<path d="
M 800 486 
L 800 497 
Q 785 490 , 777 489 
Q 769 487 , 759 487 
Q 738 487 , 728 493 
Q 716 500 , 716 513 
Q 716 527 , 728 534 
Q 738 541 , 759 541 
Q 769 541 , 777 539 
Q 785 538 , 800 531 
L 800 542 
Q 789 546 , 779 547 
Q 769 549 , 758 549 
Q 731 549 , 716 539 
Q 700 530 , 700 514 
Q 700 498 , 716 489 
Q 731 479 , 758 479 
Q 769 479 , 779 481 
Q 790 482 , 800 486 
" fill="#545FFF" />
<path d="
M 700 305 
L 718 305 
L 718 407 
Q 718 436 , 726 448 
Q 733 459 , 750 459 
Q 767 459 , 775 448 
Q 782 436 , 782 407 
L 782 305 
L 800 305 
L 800 410 
Q 800 443 , 787 461 
Q 775 479 , 750 479 
Q 726 479 , 713 461 
Q 700 443 , 700 410 
L 700 305 
" fill="#D21010" />
<path d="
M 855 550 
L 837 552 
L 871 552 
L 855 550 
M 848 549 
L 862 549 
L 905 554 
L 889 554 
L 877 553 
L 833 553 
L 820 554 
L 805 554 
L 848 549 
" fill="#339541" />
<path d="
M 889 546 
L 889 541 
L 860 541 
L 860 539 
L 905 539 
L 905 547 
Q 894 548 , 883 548 
Q 874 548 , 862 548 
Q 836 548 , 820 546 
Q 805 544 , 805 540 
Q 805 536 , 820 533 
Q 836 531 , 862 531 
Q 873 531 , 882 531 
Q 892 532 , 902 532 
L 902 535 
Q 889 534 , 881 533 
Q 872 533 , 863 533 
Q 842 533 , 831 535 
Q 821 536 , 821 540 
Q 821 543 , 831 545 
Q 842 546 , 863 546 
Q 872 546 , 879 546 
Q 886 546 , 889 546 
" fill="#F5C000" />
<path d="
M 905 508 
L 905 512 
Q 890 509 , 882 508 
Q 874 508 , 864 508 
Q 843 508 , 833 510 
Q 821 513 , 821 517 
Q 821 522 , 833 525 
Q 843 527 , 864 527 
Q 874 527 , 882 527 
Q 890 526 , 905 524 
L 905 528 
Q 894 529 , 884 530 
Q 874 530 , 863 530 
Q 836 530 , 821 527 
Q 805 523 , 805 518 
Q 805 512 , 821 508 
Q 836 505 , 863 505 
Q 874 505 , 884 506 
Q 895 506 , 905 508 
" fill="#545FFF" />
<path d="
M 805 435 
L 823 435 
L 823 476 
Q 823 487 , 831 492 
Q 838 496 , 855 496 
Q 872 496 , 880 492 
Q 887 487 , 887 476 
L 887 435 
L 905 435 
L 905 477 
Q 905 490 , 892 497 
Q 880 504 , 855 504 
Q 831 504 , 818 497 
Q 805 490 , 805 477 
L 805 435 
" fill="#D21010" />
<path d="
M 960 554 
L 942 555 
L 976 555 
L 960 554 
M 953 554 
L 967 554 
L 1010 555 
L 994 555 
L 982 555 
L 938 555 
L 925 555 
L 910 555 
L 953 554 
" fill="#339541" />
<path d="
M 994 553 
L 994 550 
L 965 550 
L 965 549 
L 1010 549 
L 1010 553 
Q 999 553 , 988 554 
Q 979 554 , 967 554 
Q 941 554 , 925 553 
Q 910 551 , 910 549 
Q 910 547 , 925 546 
Q 941 545 , 967 545 
Q 978 545 , 987 545 
Q 997 545 , 1007 546 
L 1007 547 
Q 994 546 , 986 546 
Q 977 546 , 968 546 
Q 947 546 , 936 547 
Q 926 548 , 926 549 
Q 926 551 , 936 552 
Q 947 553 , 968 553 
Q 977 553 , 984 553 
Q 991 553 , 994 553 
" fill="#F5C000" />
<path d="
M 1010 504 
L 1010 511 
Q 995 506 , 987 505 
Q 979 504 , 969 504 
Q 948 504 , 938 508 
Q 926 513 , 926 521 
Q 926 530 , 938 535 
Q 948 539 , 969 539 
Q 979 539 , 987 538 
Q 995 537 , 1010 532 
L 1010 540 
Q 999 542 , 989 543 
Q 979 544 , 968 544 
Q 941 544 , 926 538 
Q 910 532 , 910 522 
Q 910 511 , 926 505 
Q 941 499 , 968 499 
Q 979 499 , 989 500 
Q 1000 501 , 1010 504 
" fill="#545FFF" />
<path d="
M 910 265 
L 928 265 
L 928 403 
Q 928 441 , 936 457 
Q 943 472 , 960 472 
Q 977 472 , 985 457 
Q 992 441 , 992 403 
L 992 265 
L 1010 265 
L 1010 406 
Q 1010 451 , 997 475 
Q 985 498 , 960 498 
Q 936 498 , 923 475 
Q 910 451 , 910 406 
L 910 265 
" fill="#D21010" />
<path d="
M 1099 554 
L 1099 552 
L 1070 552 
L 1070 552 
L 1115 552 
L 1115 554 
Q 1104 555 , 1093 555 
Q 1084 555 , 1072 555 
Q 1046 555 , 1030 554 
Q 1015 553 , 1015 552 
Q 1015 551 , 1030 550 
Q 1046 549 , 1072 549 
Q 1083 549 , 1092 549 
Q 1102 549 , 1112 549 
L 1112 550 
Q 1099 550 , 1091 550 
Q 1082 550 , 1073 550 
Q 1052 550 , 1041 550 
Q 1031 551 , 1031 552 
Q 1031 553 , 1041 554 
Q 1052 554 , 1073 554 
Q 1082 554 , 1089 554 
Q 1096 554 , 1099 554 
" fill="#F5C000" />
<path d="
M 1065 543 
L 1047 546 
L 1081 546 
L 1065 543 
M 1058 542 
L 1072 542 
L 1115 549 
L 1099 549 
L 1087 547 
L 1043 547 
L 1030 549 
L 1015 549 
L 1058 542 
" fill="#339541" />
<path d="
M 1115 527 
L 1115 529 
Q 1100 528 , 1092 527 
Q 1084 527 , 1074 527 
Q 1053 527 , 1043 528 
Q 1031 530 , 1031 533 
Q 1031 537 , 1043 538 
Q 1053 540 , 1074 540 
Q 1084 540 , 1092 540 
Q 1100 539 , 1115 537 
L 1115 540 
Q 1104 541 , 1094 541 
Q 1084 542 , 1073 542 
Q 1046 542 , 1031 540 
Q 1015 537 , 1015 533 
Q 1015 530 , 1031 527 
Q 1046 525 , 1073 525 
Q 1084 525 , 1094 525 
Q 1105 526 , 1115 527 
" fill="#545FFF" />
<path d="
M 1015 503 
L 1033 503 
L 1033 515 
Q 1033 519 , 1041 520 
Q 1048 522 , 1065 522 
Q 1082 522 , 1090 520 
Q 1097 519 , 1097 515 
L 1097 503 
L 1115 503 
L 1115 516 
Q 1115 520 , 1102 522 
Q 1090 524 , 1065 524 
Q 1041 524 , 1028 522 
Q 1015 520 , 1015 516 
L 1015 503 
" fill="#D21010" />
<path d="M 65 55 L 65 555 " stroke="black" stroke-width="1.5"/>
<path d="M 55 555 L 65 555 " stroke="black" stroke-width="4"/>
<text text-anchor="end" x="50" y="555" font-size="50" alignment-baseline="middle">0</text>
<path d="M 55 305 L 65 305 " stroke="black" stroke-width="4"/>
<text text-anchor="end" x="50" y="305" font-size="50" alignment-baseline="middle">1</text>
<path d="M 55 55 L 65 55 " stroke="black" stroke-width="4"/>
<text text-anchor="end" x="50" y="55" font-size="50" alignment-baseline="middle">2</text>
<text text-anchor="middle" x="592" y="50" font-size="50" alignment-baseline="baseline"></text>
G<path d="
M 160 582 
L 126 595 
L 160 608 
L 157 611 
L 123 598 
L 123 623 
L 117 623 
L 117 599 
L 83 611 
L 80 608 
L 114 595 
L 80 582 
L 83 579 
L 117 591 
L 117 567 
L 123 567 
L 123 591 
L 157 579 
L 160 582 
" fill="black" />
<path d="
" fill="black" />
<path d="
M 211 567 
L 238 567 
L 238 623 
L 211 623 
L 211 567 
" fill="black" />
<path d="
" fill="black" />
<path d="
" fill="black" />
<path d="
M 316 567 
L 343 567 
L 343 623 
L 316 623 
L 316 567 
" fill="black" />
<path d="
" fill="black" />
<path d="
" fill="black" />
<path d="
M 421 567 
L 448 567 
L 448 623 
L 421 623 
L 421 567 
" fill="black" />
<path d="
" fill="black" />
<path d="
" fill="black" />
<path d="
M 526 567 
L 553 567 
L 553 623 
L 526 623 
L 526 567 
" fill="black" />
<path d="
" fill="black" />
<path d="
" fill="black" />
<path d="
M 631 567 
L 658 567 
L 658 623 
L 631 623 
L 631 567 
" fill="black" />
<path d="
" fill="black" />
<path d="
" fill="black" />
<path d="
M 736 567 
L 763 567 
L 763 623 
L 736 623 
L 736 567 
" fill="black" />
<path d="
" fill="black" />
<path d="
" fill="black" />
<path d="
M 841 567 
L 868 567 
L 868 623 
L 841 623 
L 841 567 
" fill="black" />
<path d="
" fill="black" />
<path d="
" fill="black" />
<path d="
M 946 567 
L 973 567 
L 973 623 
L 946 623 
L 946 567 
" fill="black" />
<path d="
" fill="black" />
<path d="
M 1105 582 
L 1071 595 
L 1105 608 
L 1102 611 
L 1068 598 
L 1068 623 
L 1062 623 
L 1062 599 
L 1028 611 
L 1025 608 
L 1059 595 
L 1025 582 
L 1028 579 
L 1062 591 
L 1062 567 
L 1068 567 
L 1068 591 
L 1102 579 
L 1105 582 
" fill="black" />
</svg>
