<svg xmlns="http://www.w3.org/2000/svg"
viewBox="0 0 1330 635">
<path d="
M 170 554 
L 170 554 
Q 155 554 , 147 554 
Q 139 554 , 129 554 
Q 108 554 , 98 554 
Q 86 554 , 86 554 
Q 86 554 , 98 555 
Q 108 555 , 129 555 
Q 139 555 , 147 555 
Q 155 555 , 170 555 
L 170 555 
Q 159 555 , 149 555 
Q 139 555 , 128 555 
Q 101 555 , 86 555 
Q 70 555 , 70 554 
Q 70 554 , 86 554 
Q 101 554 , 128 554 
Q 139 554 , 149 554 
Q 160 554 , 170 554 
" fill="#545FFF" />
<path d="
M 154 554 
L 154 554 
L 125 554 
L 125 553 
L 170 553 
L 170 554 
Q 159 554 , 148 554 
Q 139 554 , 127 554 
Q 101 554 , 85 554 
Q 70 554 , 70 553 
Q 70 553 , 85 553 
Q 101 553 , 127 553 
Q 138 553 , 147 553 
Q 157 553 , 167 553 
L 167 553 
Q 154 553 , 146 553 
Q 137 553 , 128 553 
Q 107 553 , 96 553 
Q 86 553 , 86 553 
Q 86 554 , 96 554 
Q 107 554 , 128 554 
Q 137 554 , 144 554 
Q 151 554 , 154 554 
" fill="#F5C000" />
<path d="
M 120 551 
L 102 552 
L 136 552 
L 120 551 
M 113 551 
L 127 551 
L 170 552 
L 154 552 
L 142 552 
L 98 552 
L 85 552 
L 70 552 
L 113 551 
" fill="#339541" />
<path d="
M 70 549 
L 88 549 
L 88 550 
Q 88 550 , 96 550 
Q 103 550 , 120 550 
Q 137 550 , 145 550 
Q 152 550 , 152 550 
L 152 549 
L 170 549 
L 170 550 
Q 170 550 , 157 550 
Q 145 550 , 120 550 
Q 96 550 , 83 550 
Q 70 550 , 70 550 
L 70 549 
" fill="#D21010" />
<path d="
M 275 551 
L 275 552 
Q 260 552 , 252 551 
Q 244 551 , 234 551 
Q 213 551 , 203 552 
Q 191 552 , 191 552 
Q 191 553 , 203 554 
Q 213 554 , 234 554 
Q 244 554 , 252 554 
Q 260 554 , 275 553 
L 275 554 
Q 264 554 , 254 554 
Q 244 554 , 233 554 
Q 206 554 , 191 554 
Q 175 553 , 175 553 
Q 175 552 , 191 551 
Q 206 551 , 233 551 
Q 244 551 , 254 551 
Q 265 551 , 275 551 
" fill="#545FFF" />
<path d="
M 259 549 
L 259 548 
L 230 548 
L 230 547 
L 275 547 
L 275 550 
Q 264 550 , 253 550 
Q 244 550 , 232 550 
Q 206 550 , 190 549 
Q 175 548 , 175 547 
Q 175 546 , 190 545 
Q 206 544 , 232 544 
Q 243 544 , 252 544 
Q 262 544 , 272 544 
L 272 545 
Q 259 545 , 251 545 
Q 242 545 , 233 545 
Q 212 545 , 201 545 
Q 191 546 , 191 547 
Q 191 548 , 201 549 
Q 212 549 , 233 549 
Q 242 549 , 249 549 
Q 256 549 , 259 549 
" fill="#F5C000" />
<path d="
M 225 536 
L 207 540 
L 241 540 
L 225 536 
M 218 534 
L 232 534 
L 275 543 
L 259 543 
L 247 541 
L 203 541 
L 190 543 
L 175 543 
L 218 534 
" fill="#339541" />
<path d="
M 175 520 
L 193 520 
L 193 528 
Q 193 530 , 201 531 
Q 208 532 , 225 532 
Q 242 532 , 250 531 
Q 257 530 , 257 528 
L 257 520 
L 275 520 
L 275 528 
Q 275 531 , 262 532 
Q 250 533 , 225 533 
Q 201 533 , 188 532 
Q 175 531 , 175 528 
L 175 520 
" fill="#D21010" />
<path d="
M 280 552 
L 289 552 
L 289 553 
Q 289 554 , 293 554 
Q 296 554 , 305 554 
Q 314 554 , 317 554 
Q 321 554 , 321 553 
L 321 552 
L 330 552 
L 330 553 
Q 330 554 , 324 554 
Q 317 554 , 305 554 
Q 293 554 , 286 554 
Q 280 554 , 280 553 
L 280 552 
" fill="#D21010" />
<path d="
M 355 552 
L 346 553 
L 363 553 
L 355 552 
M 351 552 
L 359 552 
L 380 554 
L 372 554 
L 366 553 
L 344 553 
L 337 554 
L 330 554 
L 351 552 
" fill="lightgray" />
<path d="
M 322 551 
L 322 550 
L 308 550 
L 308 550 
L 330 550 
L 330 551 
Q 325 551 , 319 551 
Q 314 551 , 308 551 
Q 295 551 , 288 551 
Q 280 551 , 280 550 
Q 280 550 , 288 549 
Q 295 549 , 308 549 
Q 314 549 , 319 549 
Q 324 549 , 329 549 
L 329 549 
Q 322 549 , 318 549 
Q 314 549 , 309 549 
Q 299 549 , 293 549 
Q 288 550 , 288 550 
Q 288 551 , 293 551 
Q 299 551 , 309 551 
Q 314 551 , 317 551 
Q 321 551 , 322 551 
" fill="#F5C000" />
<path d="
M 330 549 
L 339 549 
L 339 550 
Q 339 551 , 343 551 
Q 346 551 , 355 551 
Q 364 551 , 367 551 
Q 371 551 , 371 550 
L 371 549 
L 380 549 
L 380 550 
Q 380 551 , 374 551 
Q 367 551 , 355 551 
Q 343 551 , 336 551 
Q 330 551 , 330 550 
L 330 549 
" fill="lightgray" />
<path d="
M 305 547 
L 296 548 
L 313 548 
L 305 547 
M 301 546 
L 309 546 
L 330 549 
L 322 549 
L 316 548 
L 294 548 
L 287 549 
L 280 549 
L 301 546 
" fill="#339541" />
<path d="
M 330 546 
L 339 546 
L 339 548 
Q 339 548 , 343 548 
Q 346 549 , 355 549 
Q 364 549 , 367 548 
Q 371 548 , 371 548 
L 371 546 
L 380 546 
L 380 548 
Q 380 548 , 374 549 
Q 367 549 , 355 549 
Q 343 549 , 336 549 
Q 330 548 , 330 548 
L 330 546 
" fill="lightgray" />
<path d="
M 330 542 
L 330 543 
Q 323 543 , 319 542 
Q 314 542 , 309 542 
Q 299 542 , 294 543 
Q 288 543 , 288 543 
Q 288 544 , 294 545 
Q 299 545 , 309 545 
Q 314 545 , 319 545 
Q 323 545 , 330 544 
L 330 545 
Q 325 545 , 319 545 
Q 315 545 , 309 545 
Q 295 545 , 288 545 
Q 280 544 , 280 544 
Q 280 543 , 288 542 
Q 295 542 , 309 542 
Q 315 542 , 320 542 
Q 325 542 , 330 542 
" fill="#545FFF" />
<path d="
M 372 545 
L 372 544 
L 358 544 
L 358 544 
L 380 544 
L 380 545 
Q 375 545 , 369 545 
Q 364 545 , 358 545 
Q 345 545 , 338 545 
Q 330 544 , 330 544 
Q 330 543 , 338 542 
Q 345 542 , 358 542 
Q 364 542 , 369 542 
Q 374 542 , 379 542 
L 379 543 
Q 372 543 , 368 542 
Q 364 542 , 359 542 
Q 349 542 , 343 543 
Q 338 543 , 338 544 
Q 338 544 , 343 545 
Q 349 545 , 359 545 
Q 364 545 , 367 545 
Q 371 545 , 372 545 
" fill="lightgray" />
<path d="
M 322 541 
L 322 540 
L 308 540 
L 308 540 
L 330 540 
L 330 541 
Q 325 541 , 319 541 
Q 314 541 , 308 541 
Q 295 541 , 288 541 
Q 280 540 , 280 540 
Q 280 539 , 288 538 
Q 295 538 , 308 538 
Q 314 538 , 319 538 
Q 324 538 , 329 538 
L 329 539 
Q 322 539 , 318 538 
Q 314 538 , 309 538 
Q 299 538 , 293 539 
Q 288 539 , 288 540 
Q 288 540 , 293 541 
Q 299 541 , 309 541 
Q 314 541 , 317 541 
Q 321 541 , 322 541 
" fill="#F5C000" />
<path d="
M 380 538 
L 380 539 
Q 373 539 , 369 538 
Q 364 538 , 359 538 
Q 349 538 , 344 539 
Q 338 539 , 338 539 
Q 338 540 , 344 541 
Q 349 541 , 359 541 
Q 364 541 , 369 541 
Q 373 541 , 380 541 
L 380 541 
Q 375 541 , 369 541 
Q 365 541 , 359 541 
Q 345 541 , 338 541 
Q 330 540 , 330 540 
Q 330 539 , 338 538 
Q 345 538 , 359 538 
Q 365 538 , 370 538 
Q 375 538 , 380 538 
" fill="lightgray" />
<path d="
M 280 532 
L 289 532 
L 289 535 
Q 289 536 , 293 537 
Q 296 537 , 305 537 
Q 314 537 , 317 537 
Q 321 536 , 321 535 
L 321 532 
L 330 532 
L 330 536 
Q 330 537 , 324 537 
Q 317 538 , 305 538 
Q 293 538 , 286 537 
Q 280 537 , 280 536 
L 280 532 
" fill="#D21010" />
<path d="
M 372 537 
L 372 535 
L 358 535 
L 358 535 
L 380 535 
L 380 537 
Q 375 538 , 369 538 
Q 364 538 , 358 538 
Q 345 538 , 338 537 
Q 330 536 , 330 535 
Q 330 534 , 338 533 
Q 345 532 , 358 532 
Q 364 532 , 369 532 
Q 374 532 , 379 532 
L 379 533 
Q 372 533 , 368 533 
Q 364 533 , 359 533 
Q 349 533 , 343 533 
Q 338 534 , 338 535 
Q 338 536 , 343 537 
Q 349 537 , 359 537 
Q 364 537 , 367 537 
Q 371 537 , 372 537 
" fill="lightgray" />
<path d="
M 485 550 
L 485 551 
Q 470 551 , 462 551 
Q 454 550 , 444 550 
Q 423 550 , 413 551 
Q 401 551 , 401 552 
Q 401 553 , 413 554 
Q 423 554 , 444 554 
Q 454 554 , 462 554 
Q 470 554 , 485 553 
L 485 554 
Q 474 554 , 464 554 
Q 454 555 , 443 555 
Q 416 555 , 401 554 
Q 385 553 , 385 552 
Q 385 551 , 401 551 
Q 416 550 , 443 550 
Q 454 550 , 464 550 
Q 475 550 , 485 550 
" fill="#545FFF" />
<path d="
M 435 545 
L 417 547 
L 451 547 
L 435 545 
M 428 544 
L 442 544 
L 485 550 
L 469 550 
L 457 548 
L 413 548 
L 400 550 
L 385 550 
L 428 544 
" fill="#339541" />
<path d="
M 469 542 
L 469 540 
L 440 540 
L 440 539 
L 485 539 
L 485 543 
Q 474 543 , 463 543 
Q 454 543 , 442 543 
Q 416 543 , 400 542 
Q 385 541 , 385 539 
Q 385 537 , 400 536 
Q 416 535 , 442 535 
Q 453 535 , 462 535 
Q 472 535 , 482 536 
L 482 537 
Q 469 536 , 461 536 
Q 452 536 , 443 536 
Q 422 536 , 411 537 
Q 401 538 , 401 539 
Q 401 541 , 411 542 
Q 422 542 , 443 542 
Q 452 542 , 459 542 
Q 466 542 , 469 542 
" fill="#F5C000" />
<path d="
M 385 519 
L 403 519 
L 403 528 
Q 403 531 , 411 532 
Q 418 533 , 435 533 
Q 452 533 , 460 532 
Q 467 531 , 467 528 
L 467 519 
L 485 519 
L 485 529 
Q 485 532 , 472 533 
Q 460 535 , 435 535 
Q 411 535 , 398 533 
Q 385 532 , 385 529 
L 385 519 
" fill="#D21010" />
<path d="
M 490 553 
L 499 553 
L 499 554 
Q 499 554 , 503 554 
Q 506 554 , 515 554 
Q 524 554 , 527 554 
Q 531 554 , 531 554 
L 531 553 
L 540 553 
L 540 554 
Q 540 554 , 534 554 
Q 527 554 , 515 554 
Q 503 554 , 496 554 
Q 490 554 , 490 554 
L 490 553 
" fill="#D21010" />
<path d="
M 565 553 
L 556 554 
L 573 554 
L 565 553 
M 561 553 
L 569 553 
L 590 554 
L 582 554 
L 576 554 
L 554 554 
L 547 554 
L 540 554 
L 561 553 
" fill="lightgray" />
<path d="
M 532 551 
L 532 550 
L 518 550 
L 518 550 
L 540 550 
L 540 552 
Q 535 552 , 529 552 
Q 524 552 , 518 552 
Q 505 552 , 498 552 
Q 490 551 , 490 550 
Q 490 548 , 498 548 
Q 505 547 , 518 547 
Q 524 547 , 529 547 
Q 534 547 , 539 547 
L 539 548 
Q 532 548 , 528 548 
Q 524 548 , 519 548 
Q 509 548 , 503 548 
Q 498 549 , 498 550 
Q 498 551 , 503 551 
Q 509 552 , 519 552 
Q 524 552 , 527 552 
Q 531 552 , 532 551 
" fill="#F5C000" />
<path d="
M 540 547 
L 549 547 
L 549 550 
Q 549 551 , 553 551 
Q 556 552 , 565 552 
Q 574 552 , 577 551 
Q 581 551 , 581 550 
L 581 547 
L 590 547 
L 590 550 
Q 590 551 , 584 552 
Q 577 552 , 565 552 
Q 553 552 , 546 552 
Q 540 551 , 540 550 
L 540 547 
" fill="lightgray" />
<path d="
M 515 540 
L 506 543 
L 523 543 
L 515 540 
M 511 539 
L 519 539 
L 540 546 
L 532 546 
L 526 544 
L 504 544 
L 497 546 
L 490 546 
L 511 539 
" fill="#339541" />
<path d="
M 540 539 
L 549 539 
L 549 543 
Q 549 544 , 553 545 
Q 556 545 , 565 545 
Q 574 545 , 577 545 
Q 581 544 , 581 543 
L 581 539 
L 590 539 
L 590 543 
Q 590 545 , 584 546 
Q 577 546 , 565 546 
Q 553 546 , 546 546 
Q 540 545 , 540 543 
L 540 539 
" fill="lightgray" />
<path d="
M 532 538 
L 532 536 
L 518 536 
L 518 535 
L 540 535 
L 540 538 
Q 535 538 , 529 539 
Q 524 539 , 518 539 
Q 505 539 , 498 538 
Q 490 537 , 490 535 
Q 490 533 , 498 532 
Q 505 531 , 518 531 
Q 524 531 , 529 531 
Q 534 531 , 539 532 
L 539 533 
Q 532 532 , 528 532 
Q 524 532 , 519 532 
Q 509 532 , 503 533 
Q 498 533 , 498 535 
Q 498 536 , 503 537 
Q 509 538 , 519 538 
Q 524 538 , 527 538 
Q 531 538 , 532 538 
" fill="#F5C000" />
<path d="
M 590 532 
L 590 533 
Q 583 532 , 579 532 
Q 574 532 , 569 532 
Q 559 532 , 554 533 
Q 548 533 , 548 534 
Q 548 536 , 554 537 
Q 559 538 , 569 538 
Q 574 538 , 579 538 
Q 583 538 , 590 537 
L 590 538 
Q 585 538 , 579 539 
Q 575 539 , 569 539 
Q 555 539 , 548 538 
Q 540 537 , 540 535 
Q 540 533 , 548 532 
Q 555 531 , 569 531 
Q 575 531 , 580 531 
Q 585 531 , 590 532 
" fill="lightgray" />
<path d="
M 540 520 
L 540 522 
Q 533 521 , 529 521 
Q 524 520 , 519 520 
Q 509 520 , 504 521 
Q 498 522 , 498 524 
Q 498 527 , 504 528 
Q 509 529 , 519 529 
Q 524 529 , 529 529 
Q 533 528 , 540 527 
L 540 529 
Q 535 530 , 529 530 
Q 525 530 , 519 530 
Q 505 530 , 498 529 
Q 490 527 , 490 525 
Q 490 522 , 498 521 
Q 505 519 , 519 519 
Q 525 519 , 530 519 
Q 535 520 , 540 520 
" fill="#545FFF" />
<path d="
M 582 528 
L 582 526 
L 568 526 
L 568 524 
L 590 524 
L 590 529 
Q 585 530 , 579 530 
Q 574 530 , 568 530 
Q 555 530 , 548 529 
Q 540 527 , 540 525 
Q 540 522 , 548 520 
Q 555 519 , 568 519 
Q 574 519 , 579 519 
Q 584 519 , 589 520 
L 589 521 
Q 582 521 , 578 520 
Q 574 520 , 569 520 
Q 559 520 , 553 521 
Q 548 522 , 548 525 
Q 548 527 , 553 528 
Q 559 529 , 569 529 
Q 574 529 , 577 529 
Q 581 529 , 582 528 
" fill="lightgray" />
<path d="
M 490 503 
L 499 503 
L 499 512 
Q 499 515 , 503 516 
Q 506 517 , 515 517 
Q 524 517 , 527 516 
Q 531 515 , 531 512 
L 531 503 
L 540 503 
L 540 512 
Q 540 515 , 534 517 
Q 527 519 , 515 519 
Q 503 519 , 496 517 
Q 490 515 , 490 512 
L 490 503 
" fill="#D21010" />
<path d="
M 582 516 
L 582 512 
L 568 512 
L 568 510 
L 590 510 
L 590 517 
Q 585 518 , 579 518 
Q 574 518 , 568 519 
Q 555 519 , 548 516 
Q 540 514 , 540 511 
Q 540 507 , 548 505 
Q 555 503 , 568 503 
Q 574 503 , 579 503 
Q 584 504 , 589 504 
L 589 506 
Q 582 505 , 578 505 
Q 574 505 , 569 505 
Q 559 505 , 553 506 
Q 548 508 , 548 511 
Q 548 514 , 553 515 
Q 559 517 , 569 517 
Q 574 517 , 577 517 
Q 581 516 , 582 516 
" fill="lightgray" />
<path d="
M 695 551 
L 695 552 
Q 680 551 , 672 551 
Q 664 551 , 654 551 
Q 633 551 , 623 552 
Q 611 552 , 611 552 
Q 611 553 , 623 553 
Q 633 554 , 654 554 
Q 664 554 , 672 554 
Q 680 554 , 695 553 
L 695 554 
Q 684 554 , 674 554 
Q 664 554 , 653 554 
Q 626 554 , 611 554 
Q 595 553 , 595 553 
Q 595 552 , 611 551 
Q 626 551 , 653 551 
Q 664 551 , 674 551 
Q 685 551 , 695 551 
" fill="#545FFF" />
<path d="
M 679 549 
L 679 547 
L 650 547 
L 650 547 
L 695 547 
L 695 550 
Q 684 550 , 673 550 
Q 664 550 , 652 550 
Q 626 550 , 610 549 
Q 595 548 , 595 547 
Q 595 545 , 610 544 
Q 626 543 , 652 543 
Q 663 543 , 672 543 
Q 682 543 , 692 544 
L 692 545 
Q 679 544 , 671 544 
Q 662 544 , 653 544 
Q 632 544 , 621 545 
Q 611 545 , 611 547 
Q 611 548 , 621 549 
Q 632 550 , 653 550 
Q 662 550 , 669 550 
Q 676 549 , 679 549 
" fill="#F5C000" />
<path d="
M 645 531 
L 627 536 
L 661 536 
L 645 531 
M 638 528 
L 652 528 
L 695 542 
L 679 542 
L 667 538 
L 623 538 
L 610 542 
L 595 542 
L 638 528 
" fill="#339541" />
<path d="
M 595 512 
L 613 512 
L 613 521 
Q 613 524 , 621 525 
Q 628 526 , 645 526 
Q 662 526 , 670 525 
Q 677 524 , 677 521 
L 677 512 
L 695 512 
L 695 522 
Q 695 525 , 682 526 
Q 670 528 , 645 528 
Q 621 528 , 608 526 
Q 595 525 , 595 522 
L 595 512 
" fill="#D21010" />
<path d="
M 800 553 
L 800 553 
Q 785 553 , 777 553 
Q 769 553 , 759 553 
Q 738 553 , 728 553 
Q 716 553 , 716 553 
Q 716 554 , 728 554 
Q 738 554 , 759 554 
Q 769 554 , 777 554 
Q 785 554 , 800 554 
L 800 554 
Q 789 554 , 779 554 
Q 769 554 , 758 554 
Q 731 554 , 716 554 
Q 700 554 , 700 554 
Q 700 553 , 716 553 
Q 731 553 , 758 553 
Q 769 553 , 779 553 
Q 790 553 , 800 553 
" fill="#545FFF" />
<path d="
M 750 550 
L 732 552 
L 766 552 
L 750 550 
M 743 550 
L 757 550 
L 800 553 
L 784 553 
L 772 552 
L 728 552 
L 715 553 
L 700 553 
L 743 550 
" fill="#339541" />
<path d="
M 700 547 
L 718 547 
L 718 549 
Q 718 549 , 726 549 
Q 733 550 , 750 550 
Q 767 550 , 775 549 
Q 782 549 , 782 549 
L 782 547 
L 800 547 
L 800 549 
Q 800 549 , 787 550 
Q 775 550 , 750 550 
Q 726 550 , 713 550 
Q 700 549 , 700 549 
L 700 547 
" fill="#D21010" />
<path d="
M 784 546 
L 784 545 
L 755 545 
L 755 544 
L 800 544 
L 800 546 
Q 789 546 , 778 546 
Q 769 546 , 757 546 
Q 731 546 , 715 546 
Q 700 545 , 700 545 
Q 700 544 , 715 543 
Q 731 543 , 757 543 
Q 768 543 , 777 543 
Q 787 543 , 797 543 
L 797 544 
Q 784 543 , 776 543 
Q 767 543 , 758 543 
Q 737 543 , 726 544 
Q 716 544 , 716 545 
Q 716 545 , 726 545 
Q 737 546 , 758 546 
Q 767 546 , 774 546 
Q 781 546 , 784 546 
" fill="#F5C000" />
<path d="
M 905 552 
L 905 553 
Q 890 552 , 882 552 
Q 874 552 , 864 552 
Q 843 552 , 833 553 
Q 821 553 , 821 553 
Q 821 554 , 833 554 
Q 843 554 , 864 554 
Q 874 554 , 882 554 
Q 890 554 , 905 554 
L 905 554 
Q 894 554 , 884 554 
Q 874 554 , 863 554 
Q 836 554 , 821 554 
Q 805 554 , 805 553 
Q 805 553 , 821 552 
Q 836 552 , 863 552 
Q 874 552 , 884 552 
Q 895 552 , 905 552 
" fill="#545FFF" />
<path d="
M 889 551 
L 889 550 
L 860 550 
L 860 550 
L 905 550 
L 905 551 
Q 894 551 , 883 551 
Q 874 551 , 862 551 
Q 836 551 , 820 551 
Q 805 551 , 805 550 
Q 805 549 , 820 548 
Q 836 548 , 862 548 
Q 873 548 , 882 548 
Q 892 548 , 902 548 
L 902 549 
Q 889 549 , 881 548 
Q 872 548 , 863 548 
Q 842 548 , 831 549 
Q 821 549 , 821 550 
Q 821 550 , 831 551 
Q 842 551 , 863 551 
Q 872 551 , 879 551 
Q 886 551 , 889 551 
" fill="#F5C000" />
<path d="
M 805 542 
L 823 542 
L 823 545 
Q 823 546 , 831 546 
Q 838 547 , 855 547 
Q 872 547 , 880 546 
Q 887 546 , 887 545 
L 887 542 
L 905 542 
L 905 545 
Q 905 546 , 892 547 
Q 880 547 , 855 547 
Q 831 547 , 818 547 
Q 805 546 , 805 545 
L 805 542 
" fill="#D21010" />
<path d="
M 855 536 
L 837 539 
L 871 539 
L 855 536 
M 848 535 
L 862 535 
L 905 541 
L 889 541 
L 877 540 
L 833 540 
L 820 541 
L 805 541 
L 848 535 
" fill="#339541" />
<path d="
M 910 553 
L 919 553 
L 919 554 
Q 919 554 , 923 554 
Q 926 554 , 935 554 
Q 944 554 , 947 554 
Q 951 554 , 951 554 
L 951 553 
L 960 553 
L 960 554 
Q 960 554 , 954 554 
Q 947 554 , 935 554 
Q 923 554 , 916 554 
Q 910 554 , 910 554 
L 910 553 
" fill="lightgray" />
<path d="
M 985 553 
L 976 554 
L 993 554 
L 985 553 
M 981 553 
L 989 553 
L 1010 554 
L 1002 554 
L 996 554 
L 974 554 
L 967 554 
L 960 554 
L 981 553 
" fill="#339541" />
<path d="
M 952 551 
L 952 550 
L 938 550 
L 938 550 
L 960 550 
L 960 552 
Q 955 552 , 949 552 
Q 944 552 , 938 552 
Q 925 552 , 918 552 
Q 910 551 , 910 550 
Q 910 548 , 918 548 
Q 925 547 , 938 547 
Q 944 547 , 949 547 
Q 954 547 , 959 547 
L 959 548 
Q 952 548 , 948 548 
Q 944 548 , 939 548 
Q 929 548 , 923 548 
Q 918 549 , 918 550 
Q 918 551 , 923 551 
Q 929 552 , 939 552 
Q 944 552 , 947 552 
Q 951 552 , 952 551 
" fill="lightgray" />
<path d="
M 960 547 
L 969 547 
L 969 550 
Q 969 551 , 973 551 
Q 976 552 , 985 552 
Q 994 552 , 997 551 
Q 1001 551 , 1001 550 
L 1001 547 
L 1010 547 
L 1010 550 
Q 1010 551 , 1004 552 
Q 997 552 , 985 552 
Q 973 552 , 966 552 
Q 960 551 , 960 550 
L 960 547 
" fill="#D21010" />
<path d="
M 935 540 
L 926 543 
L 943 543 
L 935 540 
M 931 539 
L 939 539 
L 960 546 
L 952 546 
L 946 544 
L 924 544 
L 917 546 
L 910 546 
L 931 539 
" fill="lightgray" />
<path d="
M 960 539 
L 969 539 
L 969 543 
Q 969 544 , 973 545 
Q 976 545 , 985 545 
Q 994 545 , 997 545 
Q 1001 544 , 1001 543 
L 1001 539 
L 1010 539 
L 1010 543 
Q 1010 545 , 1004 546 
Q 997 546 , 985 546 
Q 973 546 , 966 546 
Q 960 545 , 960 543 
L 960 539 
" fill="#D21010" />
<path d="
M 952 538 
L 952 536 
L 938 536 
L 938 535 
L 960 535 
L 960 538 
Q 955 538 , 949 539 
Q 944 539 , 938 539 
Q 925 539 , 918 538 
Q 910 537 , 910 535 
Q 910 533 , 918 532 
Q 925 531 , 938 531 
Q 944 531 , 949 531 
Q 954 531 , 959 532 
L 959 533 
Q 952 532 , 948 532 
Q 944 532 , 939 532 
Q 929 532 , 923 533 
Q 918 533 , 918 535 
Q 918 536 , 923 537 
Q 929 538 , 939 538 
Q 944 538 , 947 538 
Q 951 538 , 952 538 
" fill="lightgray" />
<path d="
M 1010 532 
L 1010 533 
Q 1003 532 , 999 532 
Q 994 532 , 989 532 
Q 979 532 , 974 533 
Q 968 533 , 968 534 
Q 968 536 , 974 537 
Q 979 538 , 989 538 
Q 994 538 , 999 538 
Q 1003 538 , 1010 537 
L 1010 538 
Q 1005 538 , 999 539 
Q 995 539 , 989 539 
Q 975 539 , 968 538 
Q 960 537 , 960 535 
Q 960 533 , 968 532 
Q 975 531 , 989 531 
Q 995 531 , 1000 531 
Q 1005 531 , 1010 532 
" fill="#545FFF" />
<path d="
M 960 520 
L 960 522 
Q 953 521 , 949 521 
Q 944 520 , 939 520 
Q 929 520 , 924 521 
Q 918 522 , 918 524 
Q 918 527 , 924 528 
Q 929 529 , 939 529 
Q 944 529 , 949 529 
Q 953 528 , 960 527 
L 960 529 
Q 955 530 , 949 530 
Q 945 530 , 939 530 
Q 925 530 , 918 529 
Q 910 527 , 910 525 
Q 910 522 , 918 521 
Q 925 519 , 939 519 
Q 945 519 , 950 519 
Q 955 520 , 960 520 
" fill="lightgray" />
<path d="
M 1002 528 
L 1002 526 
L 988 526 
L 988 524 
L 1010 524 
L 1010 529 
Q 1005 530 , 999 530 
Q 994 530 , 988 530 
Q 975 530 , 968 529 
Q 960 527 , 960 525 
Q 960 522 , 968 520 
Q 975 519 , 988 519 
Q 994 519 , 999 519 
Q 1004 519 , 1009 520 
L 1009 521 
Q 1002 521 , 998 520 
Q 994 520 , 989 520 
Q 979 520 , 973 521 
Q 968 522 , 968 525 
Q 968 527 , 973 528 
Q 979 529 , 989 529 
Q 994 529 , 997 529 
Q 1001 529 , 1002 528 
" fill="#F5C000" />
<path d="
M 910 503 
L 919 503 
L 919 512 
Q 919 515 , 923 516 
Q 926 517 , 935 517 
Q 944 517 , 947 516 
Q 951 515 , 951 512 
L 951 503 
L 960 503 
L 960 512 
Q 960 515 , 954 517 
Q 947 519 , 935 519 
Q 923 519 , 916 517 
Q 910 515 , 910 512 
L 910 503 
" fill="lightgray" />
<path d="
M 1002 516 
L 1002 512 
L 988 512 
L 988 510 
L 1010 510 
L 1010 517 
Q 1005 518 , 999 518 
Q 994 518 , 988 519 
Q 975 519 , 968 516 
Q 960 514 , 960 511 
Q 960 507 , 968 505 
Q 975 503 , 988 503 
Q 994 503 , 999 503 
Q 1004 504 , 1009 504 
L 1009 506 
Q 1002 505 , 998 505 
Q 994 505 , 989 505 
Q 979 505 , 973 506 
Q 968 508 , 968 511 
Q 968 514 , 973 515 
Q 979 517 , 989 517 
Q 994 517 , 997 517 
Q 1001 516 , 1002 516 
" fill="#F5C000" />
<path d="
M 1115 551 
L 1115 552 
Q 1100 551 , 1092 551 
Q 1084 551 , 1074 551 
Q 1053 551 , 1043 552 
Q 1031 552 , 1031 552 
Q 1031 553 , 1043 553 
Q 1053 554 , 1074 554 
Q 1084 554 , 1092 554 
Q 1100 554 , 1115 553 
L 1115 554 
Q 1104 554 , 1094 554 
Q 1084 554 , 1073 554 
Q 1046 554 , 1031 554 
Q 1015 553 , 1015 553 
Q 1015 552 , 1031 551 
Q 1046 551 , 1073 551 
Q 1084 551 , 1094 551 
Q 1105 551 , 1115 551 
" fill="#545FFF" />
<path d="
M 1065 545 
L 1047 548 
L 1081 548 
L 1065 545 
M 1058 544 
L 1072 544 
L 1115 551 
L 1099 551 
L 1087 549 
L 1043 549 
L 1030 551 
L 1015 551 
L 1058 544 
" fill="#339541" />
<path d="
M 1015 533 
L 1033 533 
L 1033 539 
Q 1033 541 , 1041 541 
Q 1048 542 , 1065 542 
Q 1082 542 , 1090 541 
Q 1097 541 , 1097 539 
L 1097 533 
L 1115 533 
L 1115 539 
Q 1115 541 , 1102 542 
Q 1090 543 , 1065 543 
Q 1041 543 , 1028 542 
Q 1015 541 , 1015 539 
L 1015 533 
" fill="#D21010" />
<path d="
M 1099 530 
L 1099 527 
L 1070 527 
L 1070 525 
L 1115 525 
L 1115 531 
Q 1104 532 , 1093 532 
Q 1084 532 , 1072 532 
Q 1046 532 , 1030 531 
Q 1015 529 , 1015 526 
Q 1015 523 , 1030 521 
Q 1046 519 , 1072 519 
Q 1083 519 , 1092 519 
Q 1102 519 , 1112 520 
L 1112 522 
Q 1099 521 , 1091 521 
Q 1082 521 , 1073 521 
Q 1052 521 , 1041 522 
Q 1031 523 , 1031 526 
Q 1031 528 , 1041 530 
Q 1052 531 , 1073 531 
Q 1082 531 , 1089 531 
Q 1096 531 , 1099 530 
" fill="#F5C000" />
<path d="
M 1120 552 
L 1129 552 
L 1129 553 
Q 1129 554 , 1133 554 
Q 1136 554 , 1145 554 
Q 1154 554 , 1157 554 
Q 1161 554 , 1161 553 
L 1161 552 
L 1170 552 
L 1170 553 
Q 1170 554 , 1164 554 
Q 1157 554 , 1145 554 
Q 1133 554 , 1126 554 
Q 1120 554 , 1120 553 
L 1120 552 
" fill="lightgray" />
<path d="
M 1195 552 
L 1186 553 
L 1203 553 
L 1195 552 
M 1191 552 
L 1199 552 
L 1220 554 
L 1212 554 
L 1206 553 
L 1184 553 
L 1177 554 
L 1170 554 
L 1191 552 
" fill="#339541" />
<path d="
M 1162 551 
L 1162 550 
L 1148 550 
L 1148 550 
L 1170 550 
L 1170 551 
Q 1165 551 , 1159 551 
Q 1154 551 , 1148 551 
Q 1135 551 , 1128 551 
Q 1120 551 , 1120 550 
Q 1120 550 , 1128 549 
Q 1135 549 , 1148 549 
Q 1154 549 , 1159 549 
Q 1164 549 , 1169 549 
L 1169 549 
Q 1162 549 , 1158 549 
Q 1154 549 , 1149 549 
Q 1139 549 , 1133 549 
Q 1128 550 , 1128 550 
Q 1128 551 , 1133 551 
Q 1139 551 , 1149 551 
Q 1154 551 , 1157 551 
Q 1161 551 , 1162 551 
" fill="lightgray" />
<path d="
M 1170 549 
L 1179 549 
L 1179 550 
Q 1179 551 , 1183 551 
Q 1186 551 , 1195 551 
Q 1204 551 , 1207 551 
Q 1211 551 , 1211 550 
L 1211 549 
L 1220 549 
L 1220 550 
Q 1220 551 , 1214 551 
Q 1207 551 , 1195 551 
Q 1183 551 , 1176 551 
Q 1170 551 , 1170 550 
L 1170 549 
" fill="#D21010" />
<path d="
M 1145 547 
L 1136 548 
L 1153 548 
L 1145 547 
M 1141 546 
L 1149 546 
L 1170 549 
L 1162 549 
L 1156 548 
L 1134 548 
L 1127 549 
L 1120 549 
L 1141 546 
" fill="lightgray" />
<path d="
M 1170 546 
L 1179 546 
L 1179 548 
Q 1179 548 , 1183 548 
Q 1186 549 , 1195 549 
Q 1204 549 , 1207 548 
Q 1211 548 , 1211 548 
L 1211 546 
L 1220 546 
L 1220 548 
Q 1220 548 , 1214 549 
Q 1207 549 , 1195 549 
Q 1183 549 , 1176 549 
Q 1170 548 , 1170 548 
L 1170 546 
" fill="#D21010" />
<path d="
M 1170 542 
L 1170 543 
Q 1163 543 , 1159 542 
Q 1154 542 , 1149 542 
Q 1139 542 , 1134 543 
Q 1128 543 , 1128 543 
Q 1128 544 , 1134 545 
Q 1139 545 , 1149 545 
Q 1154 545 , 1159 545 
Q 1163 545 , 1170 544 
L 1170 545 
Q 1165 545 , 1159 545 
Q 1155 545 , 1149 545 
Q 1135 545 , 1128 545 
Q 1120 544 , 1120 544 
Q 1120 543 , 1128 542 
Q 1135 542 , 1149 542 
Q 1155 542 , 1160 542 
Q 1165 542 , 1170 542 
" fill="lightgray" />
<path d="
M 1212 545 
L 1212 544 
L 1198 544 
L 1198 544 
L 1220 544 
L 1220 545 
Q 1215 545 , 1209 545 
Q 1204 545 , 1198 545 
Q 1185 545 , 1178 545 
Q 1170 544 , 1170 544 
Q 1170 543 , 1178 542 
Q 1185 542 , 1198 542 
Q 1204 542 , 1209 542 
Q 1214 542 , 1219 542 
L 1219 543 
Q 1212 543 , 1208 542 
Q 1204 542 , 1199 542 
Q 1189 542 , 1183 543 
Q 1178 543 , 1178 544 
Q 1178 544 , 1183 545 
Q 1189 545 , 1199 545 
Q 1204 545 , 1207 545 
Q 1211 545 , 1212 545 
" fill="#F5C000" />
<path d="
M 1162 541 
L 1162 540 
L 1148 540 
L 1148 540 
L 1170 540 
L 1170 541 
Q 1165 541 , 1159 541 
Q 1154 541 , 1148 541 
Q 1135 541 , 1128 541 
Q 1120 540 , 1120 540 
Q 1120 539 , 1128 538 
Q 1135 538 , 1148 538 
Q 1154 538 , 1159 538 
Q 1164 538 , 1169 538 
L 1169 539 
Q 1162 539 , 1158 538 
Q 1154 538 , 1149 538 
Q 1139 538 , 1133 539 
Q 1128 539 , 1128 540 
Q 1128 540 , 1133 541 
Q 1139 541 , 1149 541 
Q 1154 541 , 1157 541 
Q 1161 541 , 1162 541 
" fill="lightgray" />
<path d="
M 1220 538 
L 1220 539 
Q 1213 539 , 1209 538 
Q 1204 538 , 1199 538 
Q 1189 538 , 1184 539 
Q 1178 539 , 1178 539 
Q 1178 540 , 1184 541 
Q 1189 541 , 1199 541 
Q 1204 541 , 1209 541 
Q 1213 541 , 1220 541 
L 1220 541 
Q 1215 541 , 1209 541 
Q 1205 541 , 1199 541 
Q 1185 541 , 1178 541 
Q 1170 540 , 1170 540 
Q 1170 539 , 1178 538 
Q 1185 538 , 1199 538 
Q 1205 538 , 1210 538 
Q 1215 538 , 1220 538 
" fill="#545FFF" />
<path d="
M 1120 532 
L 1129 532 
L 1129 535 
Q 1129 536 , 1133 537 
Q 1136 537 , 1145 537 
Q 1154 537 , 1157 537 
Q 1161 536 , 1161 535 
L 1161 532 
L 1170 532 
L 1170 536 
Q 1170 537 , 1164 537 
Q 1157 538 , 1145 538 
Q 1133 538 , 1126 537 
Q 1120 537 , 1120 536 
L 1120 532 
" fill="lightgray" />
<path d="
M 1212 537 
L 1212 535 
L 1198 535 
L 1198 535 
L 1220 535 
L 1220 537 
Q 1215 538 , 1209 538 
Q 1204 538 , 1198 538 
Q 1185 538 , 1178 537 
Q 1170 536 , 1170 535 
Q 1170 534 , 1178 533 
Q 1185 532 , 1198 532 
Q 1204 532 , 1209 532 
Q 1214 532 , 1219 532 
L 1219 533 
Q 1212 533 , 1208 533 
Q 1204 533 , 1199 533 
Q 1189 533 , 1183 533 
Q 1178 534 , 1178 535 
Q 1178 536 , 1183 537 
Q 1189 537 , 1199 537 
Q 1204 537 , 1207 537 
Q 1211 537 , 1212 537 
" fill="#F5C000" />
<path d="
M 1325 554 
L 1325 554 
Q 1310 554 , 1302 554 
Q 1294 554 , 1284 554 
Q 1263 554 , 1253 554 
Q 1241 554 , 1241 554 
Q 1241 554 , 1253 555 
Q 1263 555 , 1284 555 
Q 1294 555 , 1302 555 
Q 1310 555 , 1325 555 
L 1325 555 
Q 1314 555 , 1304 555 
Q 1294 555 , 1283 555 
Q 1256 555 , 1241 555 
Q 1225 555 , 1225 554 
Q 1225 554 , 1241 554 
Q 1256 554 , 1283 554 
Q 1294 554 , 1304 554 
Q 1315 554 , 1325 554 
" fill="#545FFF" />
<path d="
M 1309 554 
L 1309 554 
L 1280 554 
L 1280 553 
L 1325 553 
L 1325 554 
Q 1314 554 , 1303 554 
Q 1294 554 , 1282 554 
Q 1256 554 , 1240 554 
Q 1225 554 , 1225 553 
Q 1225 553 , 1240 553 
Q 1256 553 , 1282 553 
Q 1293 553 , 1302 553 
Q 1312 553 , 1322 553 
L 1322 553 
Q 1309 553 , 1301 553 
Q 1292 553 , 1283 553 
Q 1262 553 , 1251 553 
Q 1241 553 , 1241 553 
Q 1241 554 , 1251 554 
Q 1262 554 , 1283 554 
Q 1292 554 , 1299 554 
Q 1306 554 , 1309 554 
" fill="#F5C000" />
<path d="
M 1275 551 
L 1257 552 
L 1291 552 
L 1275 551 
M 1268 551 
L 1282 551 
L 1325 552 
L 1309 552 
L 1297 552 
L 1253 552 
L 1240 552 
L 1225 552 
L 1268 551 
" fill="#339541" />
<path d="
M 1225 549 
L 1243 549 
L 1243 550 
Q 1243 550 , 1251 550 
Q 1258 550 , 1275 550 
Q 1292 550 , 1300 550 
Q 1307 550 , 1307 550 
L 1307 549 
L 1325 549 
L 1325 550 
Q 1325 550 , 1312 550 
Q 1300 550 , 1275 550 
Q 1251 550 , 1238 550 
Q 1225 550 , 1225 550 
L 1225 549 
" fill="#D21010" />
<path d="M 65 168 L 65 555 " stroke="black" stroke-width="1.5"/>
<path d="M 55 555 L 65 555 " stroke="black" stroke-width="4"/>
<text text-anchor="end" x="50" y="555" font-size="50" alignment-baseline="middle">0</text>
<path d="M 55 362 L 65 362 " stroke="black" stroke-width="4"/>
<text text-anchor="end" x="50" y="362" font-size="50" alignment-baseline="middle">1</text>
<path d="M 55 168 L 65 168 " stroke="black" stroke-width="4"/>
<text text-anchor="end" x="50" y="168" font-size="50" alignment-baseline="middle">2</text>
<text text-anchor="middle" x="697" y="50" font-size="50" alignment-baseline="baseline"></text>
G<path d="
M 160 582 
L 126 595 
L 160 608 
L 157 611 
L 123 598 
L 123 623 
L 117 623 
L 117 599 
L 83 611 
L 80 608 
L 114 595 
L 80 582 
L 83 579 
L 117 591 
L 117 567 
L 123 567 
L 123 591 
L 157 579 
L 160 582 
" fill="black" />
<path d="
" fill="black" />
<path d="
M 211 567 
L 238 567 
L 238 623 
L 211 623 
L 211 567 
" fill="black" />
<path d="
" fill="black" />
<path d="
M 370 567 
Q 341 574 , 328 581 
Q 315 588 , 315 595 
Q 315 602 , 328 609 
Q 341 616 , 370 623 
L 346 623 
Q 318 616 , 304 609 
Q 290 602 , 290 595 
Q 290 588 , 304 581 
Q 318 574 , 346 567 
L 370 567 
" fill="black" />
<path d="
" fill="black" />
<path d="
M 412 567 
L 432 567 
L 432 623 
L 412 623 
L 412 567 
" fill="black" />
<path d="
" fill="black" />
<path d="
M 465 619 
L 482 619 
L 482 623 
L 462 623 
L 462 619 
L 470 604 
Q 472 599 , 475 595 
Q 477 591 , 477 589 
Q 478 587 , 478 583 
Q 478 577 , 476 573 
Q 475 571 , 471 571 
Q 469 571 , 467 573 
Q 466 574 , 462 577 
L 462 573 
Q 464 571 , 466 569 
Q 469 567 , 471 567 
Q 475 567 , 478 571 
Q 481 574 , 481 583 
Q 481 586 , 480 589 
Q 479 593 , 477 597 
Q 477 598 , 474 603 
L 465 619 
" fill="black" />
<path d="
M 580 567 
Q 551 574 , 538 581 
Q 525 588 , 525 595 
Q 525 602 , 538 609 
Q 551 616 , 580 623 
L 556 623 
Q 528 616 , 514 609 
Q 500 602 , 500 595 
Q 500 588 , 514 581 
Q 528 574 , 556 567 
L 580 567 
" fill="black" />
<path d="
" fill="black" />
<path d="
M 631 567 
L 658 567 
L 658 623 
L 631 623 
L 631 567 
" fill="black" />
<path d="
" fill="black" />
<path d="
" fill="black" />
<path d="
M 736 567 
L 763 567 
L 763 623 
L 736 623 
L 736 567 
" fill="black" />
<path d="
" fill="black" />
<path d="
" fill="black" />
<path d="
M 832 567 
L 852 567 
L 852 623 
L 832 623 
L 832 567 
" fill="black" />
<path d="
" fill="black" />
<path d="
M 885 619 
L 902 619 
L 902 623 
L 882 623 
L 882 619 
L 890 604 
Q 892 599 , 895 595 
Q 897 591 , 897 589 
Q 898 587 , 898 583 
Q 898 577 , 896 573 
Q 895 571 , 891 571 
Q 889 571 , 887 573 
Q 886 574 , 882 577 
L 882 573 
Q 884 571 , 886 569 
Q 889 567 , 891 567 
Q 895 567 , 898 571 
Q 901 574 , 901 583 
Q 901 586 , 900 589 
Q 899 593 , 897 597 
Q 897 598 , 894 603 
L 885 619 
" fill="black" />
<path d="
M 920 567 
L 944 567 
Q 972 574 , 986 581 
Q 1000 588 , 1000 595 
Q 1000 602 , 986 609 
Q 972 616 , 944 623 
L 920 623 
Q 949 616 , 962 609 
Q 975 602 , 975 595 
Q 975 588 , 962 581 
Q 949 574 , 920 567 
" fill="black" />
<path d="
" fill="black" />
<path d="
M 1051 567 
L 1078 567 
L 1078 623 
L 1051 623 
L 1051 567 
" fill="black" />
<path d="
" fill="black" />
<path d="
M 1130 567 
L 1154 567 
Q 1182 574 , 1196 581 
Q 1210 588 , 1210 595 
Q 1210 602 , 1196 609 
Q 1182 616 , 1154 623 
L 1130 623 
Q 1159 616 , 1172 609 
Q 1185 602 , 1185 595 
Q 1185 588 , 1172 581 
Q 1159 574 , 1130 567 
" fill="black" />
<path d="
M 1315 582 
L 1281 595 
L 1315 608 
L 1312 611 
L 1278 598 
L 1278 623 
L 1272 623 
L 1272 599 
L 1238 611 
L 1235 608 
L 1269 595 
L 1235 582 
L 1238 579 
L 1272 591 
L 1272 567 
L 1278 567 
L 1278 591 
L 1312 579 
L 1315 582 
" fill="black" />
</svg>
