<svg xmlns="http://www.w3.org/2000/svg"
viewBox="0 0 1435 635">
<path d="
M 120 553 
L 102 554 
L 136 554 
L 120 553 
M 113 553 
L 127 553 
L 170 555 
L 154 555 
L 142 554 
L 98 554 
L 85 555 
L 70 555 
L 113 553 
" fill="#339541" />
<path d="
M 70 551 
L 88 551 
L 88 552 
Q 88 552 , 96 553 
Q 103 553 , 120 553 
Q 137 553 , 145 553 
Q 152 552 , 152 552 
L 152 551 
L 170 551 
L 170 552 
Q 170 552 , 157 553 
Q 145 553 , 120 553 
Q 96 553 , 83 553 
Q 70 552 , 70 552 
L 70 551 
" fill="#D21010" />
<path d="
M 170 548 
L 170 549 
Q 155 548 , 147 548 
Q 139 548 , 129 548 
Q 108 548 , 98 548 
Q 86 549 , 86 549 
Q 86 549 , 98 550 
Q 108 550 , 129 550 
Q 139 550 , 147 550 
Q 155 550 , 170 550 
L 170 550 
Q 159 550 , 149 550 
Q 139 550 , 128 550 
Q 101 550 , 86 550 
Q 70 550 , 70 549 
Q 70 549 , 86 548 
Q 101 548 , 128 548 
Q 139 548 , 149 548 
Q 160 548 , 170 548 
" fill="#545FFF" />
<path d="
M 154 547 
L 154 546 
L 125 546 
L 125 545 
L 170 545 
L 170 547 
Q 159 547 , 148 547 
Q 139 547 , 127 547 
Q 101 547 , 85 547 
Q 70 546 , 70 546 
Q 70 545 , 85 544 
Q 101 544 , 127 544 
Q 138 544 , 147 544 
Q 157 544 , 167 544 
L 167 545 
Q 154 544 , 146 544 
Q 137 544 , 128 544 
Q 107 544 , 96 545 
Q 86 545 , 86 546 
Q 86 546 , 96 546 
Q 107 547 , 128 547 
Q 137 547 , 144 547 
Q 151 547 , 154 547 
" fill="#F5C000" />
<path d="
M 225 552 
L 207 553 
L 241 553 
L 225 552 
M 218 551 
L 232 551 
L 275 554 
L 259 554 
L 247 553 
L 203 553 
L 190 554 
L 175 554 
L 218 551 
" fill="#339541" />
<path d="
M 275 543 
L 275 544 
Q 260 543 , 252 543 
Q 244 543 , 234 543 
Q 213 543 , 203 544 
Q 191 545 , 191 546 
Q 191 548 , 203 549 
Q 213 550 , 234 550 
Q 244 550 , 252 549 
Q 260 549 , 275 548 
L 275 550 
Q 264 550 , 254 550 
Q 244 551 , 233 551 
Q 206 551 , 191 549 
Q 175 548 , 175 546 
Q 175 544 , 191 543 
Q 206 542 , 233 542 
Q 244 542 , 254 542 
Q 265 542 , 275 543 
" fill="#545FFF" />
<path d="
M 175 523 
L 193 523 
L 193 534 
Q 193 537 , 201 538 
Q 208 539 , 225 539 
Q 242 539 , 250 538 
Q 257 537 , 257 534 
L 257 523 
L 275 523 
L 275 534 
Q 275 537 , 262 539 
Q 250 541 , 225 541 
Q 201 541 , 188 539 
Q 175 537 , 175 534 
L 175 523 
" fill="#D21010" />
<path d="
M 259 519 
L 259 513 
L 230 513 
L 230 510 
L 275 510 
L 275 521 
Q 264 522 , 253 522 
Q 244 523 , 232 523 
Q 206 523 , 190 519 
Q 175 516 , 175 510 
Q 175 505 , 190 501 
Q 206 498 , 232 498 
Q 243 498 , 252 498 
Q 262 499 , 272 500 
L 272 503 
Q 259 502 , 251 501 
Q 242 501 , 233 501 
Q 212 501 , 201 503 
Q 191 506 , 191 510 
Q 191 515 , 201 518 
Q 212 520 , 233 520 
Q 242 520 , 249 520 
Q 256 520 , 259 519 
" fill="#F5C000" />
<path d="
M 330 551 
L 312 553 
L 346 553 
L 330 551 
M 323 550 
L 337 550 
L 380 555 
L 364 555 
L 352 553 
L 308 553 
L 295 555 
L 280 555 
L 323 550 
" fill="#339541" />
<path d="
M 280 541 
L 298 541 
L 298 546 
Q 298 548 , 306 548 
Q 313 549 , 330 549 
Q 347 549 , 355 548 
Q 362 548 , 362 546 
L 362 541 
L 380 541 
L 380 546 
Q 380 548 , 367 549 
Q 355 550 , 330 550 
Q 306 550 , 293 549 
Q 280 548 , 280 546 
L 280 541 
" fill="#D21010" />
<path d="
M 380 526 
L 380 528 
Q 365 527 , 357 526 
Q 349 526 , 339 526 
Q 318 526 , 308 527 
Q 296 529 , 296 532 
Q 296 535 , 308 537 
Q 318 538 , 339 538 
Q 349 538 , 357 538 
Q 365 538 , 380 536 
L 380 539 
Q 369 539 , 359 540 
Q 349 540 , 338 540 
Q 311 540 , 296 538 
Q 280 536 , 280 532 
Q 280 528 , 296 526 
Q 311 524 , 338 524 
Q 349 524 , 359 524 
Q 370 525 , 380 526 
" fill="#545FFF" />
<path d="
M 364 519 
L 364 510 
L 335 510 
L 335 507 
L 380 507 
L 380 521 
Q 369 522 , 358 523 
Q 349 523 , 337 523 
Q 311 523 , 295 519 
Q 280 515 , 280 508 
Q 280 500 , 295 496 
Q 311 492 , 337 492 
Q 348 492 , 357 493 
Q 367 493 , 377 495 
L 377 499 
Q 364 497 , 356 496 
Q 347 496 , 338 496 
Q 317 496 , 306 499 
Q 296 502 , 296 508 
Q 296 514 , 306 517 
Q 317 520 , 338 520 
Q 347 520 , 354 519 
Q 361 519 , 364 519 
" fill="#F5C000" />
<path d="
M 435 552 
L 417 553 
L 451 553 
L 435 552 
M 428 552 
L 442 552 
L 485 554 
L 469 554 
L 457 554 
L 413 554 
L 400 554 
L 385 554 
L 428 552 
" fill="#339541" />
<path d="
M 385 540 
L 403 540 
L 403 547 
Q 403 549 , 411 550 
Q 418 551 , 435 551 
Q 452 551 , 460 550 
Q 467 549 , 467 547 
L 467 540 
L 485 540 
L 485 547 
Q 485 550 , 472 551 
Q 460 552 , 435 552 
Q 411 552 , 398 551 
Q 385 550 , 385 547 
L 385 540 
" fill="#D21010" />
<path d="
M 485 519 
L 485 522 
Q 470 520 , 462 519 
Q 454 519 , 444 519 
Q 423 519 , 413 521 
Q 401 523 , 401 527 
Q 401 532 , 413 535 
Q 423 537 , 444 537 
Q 454 537 , 462 537 
Q 470 536 , 485 534 
L 485 537 
Q 474 539 , 464 539 
Q 454 540 , 443 540 
Q 416 540 , 401 536 
Q 385 533 , 385 528 
Q 385 522 , 401 519 
Q 416 516 , 443 516 
Q 454 516 , 464 517 
Q 475 517 , 485 519 
" fill="#545FFF" />
<path d="
M 469 510 
L 469 501 
L 440 501 
L 440 497 
L 485 497 
L 485 513 
Q 474 514 , 463 515 
Q 454 516 , 442 516 
Q 416 516 , 400 511 
Q 385 506 , 385 497 
Q 385 489 , 400 484 
Q 416 479 , 442 479 
Q 453 479 , 462 480 
Q 472 480 , 482 482 
L 482 487 
Q 469 485 , 461 484 
Q 452 483 , 443 483 
Q 422 483 , 411 487 
Q 401 490 , 401 497 
Q 401 505 , 411 508 
Q 422 512 , 443 512 
Q 452 512 , 459 511 
Q 466 511 , 469 510 
" fill="#F5C000" />
<path d="
M 532 554 
L 532 553 
L 518 553 
L 518 553 
L 540 553 
L 540 554 
Q 535 554 , 529 554 
Q 524 554 , 518 554 
Q 505 554 , 498 554 
Q 490 554 , 490 553 
Q 490 553 , 498 552 
Q 505 552 , 518 552 
Q 524 552 , 529 552 
Q 534 552 , 539 552 
L 539 552 
Q 532 552 , 528 552 
Q 524 552 , 519 552 
Q 509 552 , 503 552 
Q 498 553 , 498 553 
Q 498 554 , 503 554 
Q 509 554 , 519 554 
Q 524 554 , 527 554 
Q 531 554 , 532 554 
" fill="#F5C000" />
<path d="
M 540 552 
L 549 552 
L 549 553 
Q 549 554 , 553 554 
Q 556 554 , 565 554 
Q 574 554 , 577 554 
Q 581 554 , 581 553 
L 581 552 
L 590 552 
L 590 553 
Q 590 554 , 584 554 
Q 577 554 , 565 554 
Q 553 554 , 546 554 
Q 540 554 , 540 553 
L 540 552 
" fill="lightgray" />
<path d="
M 490 544 
L 499 544 
L 499 549 
Q 499 550 , 503 550 
Q 506 551 , 515 551 
Q 524 551 , 527 550 
Q 531 550 , 531 549 
L 531 544 
L 540 544 
L 540 549 
Q 540 550 , 534 551 
Q 527 552 , 515 552 
Q 503 552 , 496 551 
Q 490 550 , 490 549 
L 490 544 
" fill="#D21010" />
<path d="
M 565 545 
L 556 549 
L 573 549 
L 565 545 
M 561 544 
L 569 544 
L 590 552 
L 582 552 
L 576 550 
L 554 550 
L 547 552 
L 540 552 
L 561 544 
" fill="lightgray" />
<path d="
M 490 535 
L 499 535 
L 499 540 
Q 499 541 , 503 542 
Q 506 542 , 515 542 
Q 524 542 , 527 542 
Q 531 541 , 531 540 
L 531 535 
L 540 535 
L 540 540 
Q 540 542 , 534 543 
Q 527 543 , 515 543 
Q 503 543 , 496 543 
Q 490 542 , 490 540 
L 490 535 
" fill="#D21010" />
<path d="
M 582 542 
L 582 540 
L 568 540 
L 568 539 
L 590 539 
L 590 543 
Q 585 543 , 579 543 
Q 574 543 , 568 543 
Q 555 543 , 548 542 
Q 540 541 , 540 539 
Q 540 537 , 548 536 
Q 555 535 , 568 535 
Q 574 535 , 579 535 
Q 584 535 , 589 536 
L 589 537 
Q 582 536 , 578 536 
Q 574 536 , 569 536 
Q 559 536 , 553 537 
Q 548 538 , 548 539 
Q 548 541 , 553 542 
Q 559 542 , 569 542 
Q 574 542 , 577 542 
Q 581 542 , 582 542 
" fill="lightgray" />
<path d="
M 540 520 
L 540 522 
Q 533 521 , 529 520 
Q 524 520 , 519 520 
Q 509 520 , 504 522 
Q 498 523 , 498 526 
Q 498 530 , 504 531 
Q 509 533 , 519 533 
Q 524 533 , 529 533 
Q 533 532 , 540 531 
L 540 533 
Q 535 534 , 529 535 
Q 525 535 , 519 535 
Q 505 535 , 498 533 
Q 490 530 , 490 526 
Q 490 523 , 498 520 
Q 505 518 , 519 518 
Q 525 518 , 530 518 
Q 535 519 , 540 520 
" fill="#545FFF" />
<path d="
M 582 533 
L 582 528 
L 568 528 
L 568 526 
L 590 526 
L 590 534 
Q 585 534 , 579 535 
Q 574 535 , 568 535 
Q 555 535 , 548 533 
Q 540 530 , 540 526 
Q 540 523 , 548 520 
Q 555 518 , 568 518 
Q 574 518 , 579 518 
Q 584 519 , 589 519 
L 589 522 
Q 582 521 , 578 520 
Q 574 520 , 569 520 
Q 559 520 , 553 522 
Q 548 523 , 548 526 
Q 548 530 , 553 531 
Q 559 533 , 569 533 
Q 574 533 , 577 533 
Q 581 533 , 582 533 
" fill="lightgray" />
<path d="
M 515 502 
L 506 510 
L 523 510 
L 515 502 
M 511 499 
L 519 499 
L 540 517 
L 532 517 
L 526 512 
L 504 512 
L 497 517 
L 490 517 
L 511 499 
" fill="#339541" />
<path d="
M 540 499 
L 549 499 
L 549 510 
Q 549 513 , 553 514 
Q 556 515 , 565 515 
Q 574 515 , 577 514 
Q 581 513 , 581 510 
L 581 499 
L 590 499 
L 590 510 
Q 590 514 , 584 515 
Q 577 517 , 565 517 
Q 553 517 , 546 515 
Q 540 514 , 540 510 
L 540 499 
" fill="lightgray" />
<path d="
M 532 491 
L 532 477 
L 518 477 
L 518 471 
L 540 471 
L 540 495 
Q 535 497 , 529 498 
Q 524 499 , 518 499 
Q 505 499 , 498 492 
Q 490 485 , 490 472 
Q 490 459 , 498 452 
Q 505 445 , 518 445 
Q 524 445 , 529 446 
Q 534 447 , 539 449 
L 539 456 
Q 532 453 , 528 452 
Q 524 451 , 519 451 
Q 509 451 , 503 456 
Q 498 462 , 498 472 
Q 498 483 , 503 488 
Q 509 493 , 519 493 
Q 524 493 , 527 492 
Q 531 492 , 532 491 
" fill="#F5C000" />
<path d="
M 590 451 
L 590 459 
Q 583 454 , 579 452 
Q 574 451 , 569 451 
Q 559 451 , 554 456 
Q 548 462 , 548 472 
Q 548 482 , 554 488 
Q 559 493 , 569 493 
Q 574 493 , 579 492 
Q 583 490 , 590 485 
L 590 493 
Q 585 496 , 579 498 
Q 575 499 , 569 499 
Q 555 499 , 548 492 
Q 540 484 , 540 472 
Q 540 460 , 548 452 
Q 555 445 , 569 445 
Q 575 445 , 580 446 
Q 585 448 , 590 451 
" fill="lightgray" />
<path d="
M 645 550 
L 627 552 
L 661 552 
L 645 550 
M 638 549 
L 652 549 
L 695 554 
L 679 554 
L 667 553 
L 623 553 
L 610 554 
L 595 554 
L 638 549 
" fill="#339541" />
<path d="
M 695 538 
L 695 540 
Q 680 539 , 672 539 
Q 664 538 , 654 538 
Q 633 538 , 623 539 
Q 611 540 , 611 542 
Q 611 545 , 623 546 
Q 633 547 , 654 547 
Q 664 547 , 672 547 
Q 680 546 , 695 545 
L 695 547 
Q 684 548 , 674 548 
Q 664 548 , 653 548 
Q 626 548 , 611 547 
Q 595 545 , 595 543 
Q 595 540 , 611 539 
Q 626 537 , 653 537 
Q 664 537 , 674 537 
Q 685 538 , 695 538 
" fill="#545FFF" />
<path d="
M 595 518 
L 613 518 
L 613 529 
Q 613 532 , 621 533 
Q 628 534 , 645 534 
Q 662 534 , 670 533 
Q 677 532 , 677 529 
L 677 518 
L 695 518 
L 695 529 
Q 695 533 , 682 534 
Q 670 536 , 645 536 
Q 621 536 , 608 534 
Q 595 533 , 595 529 
L 595 518 
" fill="#D21010" />
<path d="
M 679 511 
L 679 498 
L 650 498 
L 650 492 
L 695 492 
L 695 514 
Q 684 516 , 673 517 
Q 664 518 , 652 518 
Q 626 518 , 610 511 
Q 595 505 , 595 493 
Q 595 482 , 610 476 
Q 626 469 , 652 469 
Q 663 469 , 672 470 
Q 682 471 , 692 473 
L 692 479 
Q 679 476 , 671 476 
Q 662 475 , 653 475 
Q 632 475 , 621 479 
Q 611 484 , 611 493 
Q 611 503 , 621 508 
Q 632 512 , 653 512 
Q 662 512 , 669 512 
Q 676 511 , 679 511 
" fill="#F5C000" />
<path d="
M 750 553 
L 732 554 
L 766 554 
L 750 553 
M 743 553 
L 757 553 
L 800 555 
L 784 555 
L 772 554 
L 728 554 
L 715 555 
L 700 555 
L 743 553 
" fill="#339541" />
<path d="
M 700 551 
L 718 551 
L 718 552 
Q 718 552 , 726 553 
Q 733 553 , 750 553 
Q 767 553 , 775 553 
Q 782 552 , 782 552 
L 782 551 
L 800 551 
L 800 552 
Q 800 552 , 787 553 
Q 775 553 , 750 553 
Q 726 553 , 713 553 
Q 700 552 , 700 552 
L 700 551 
" fill="#D21010" />
<path d="
M 800 548 
L 800 549 
Q 785 548 , 777 548 
Q 769 548 , 759 548 
Q 738 548 , 728 548 
Q 716 549 , 716 549 
Q 716 549 , 728 550 
Q 738 550 , 759 550 
Q 769 550 , 777 550 
Q 785 550 , 800 550 
L 800 550 
Q 789 550 , 779 550 
Q 769 550 , 758 550 
Q 731 550 , 716 550 
Q 700 550 , 700 549 
Q 700 549 , 716 548 
Q 731 548 , 758 548 
Q 769 548 , 779 548 
Q 790 548 , 800 548 
" fill="#545FFF" />
<path d="
M 784 547 
L 784 546 
L 755 546 
L 755 545 
L 800 545 
L 800 547 
Q 789 547 , 778 547 
Q 769 547 , 757 547 
Q 731 547 , 715 547 
Q 700 546 , 700 546 
Q 700 545 , 715 544 
Q 731 544 , 757 544 
Q 768 544 , 777 544 
Q 787 544 , 797 544 
L 797 545 
Q 784 544 , 776 544 
Q 767 544 , 758 544 
Q 737 544 , 726 545 
Q 716 545 , 716 546 
Q 716 546 , 726 546 
Q 737 547 , 758 547 
Q 767 547 , 774 547 
Q 781 547 , 784 547 
" fill="#F5C000" />
<path d="
M 855 553 
L 837 554 
L 871 554 
L 855 553 
M 848 553 
L 862 553 
L 905 555 
L 889 555 
L 877 554 
L 833 554 
L 820 555 
L 805 555 
L 848 553 
" fill="#339541" />
<path d="
M 905 539 
L 905 541 
Q 890 539 , 882 539 
Q 874 539 , 864 539 
Q 843 539 , 833 540 
Q 821 542 , 821 545 
Q 821 548 , 833 549 
Q 843 551 , 864 551 
Q 874 551 , 882 550 
Q 890 550 , 905 548 
L 905 551 
Q 894 551 , 884 552 
Q 874 552 , 863 552 
Q 836 552 , 821 550 
Q 805 548 , 805 545 
Q 805 541 , 821 539 
Q 836 537 , 863 537 
Q 874 537 , 884 537 
Q 895 538 , 905 539 
" fill="#545FFF" />
<path d="
M 805 515 
L 823 515 
L 823 527 
Q 823 531 , 831 532 
Q 838 534 , 855 534 
Q 872 534 , 880 532 
Q 887 531 , 887 527 
L 887 515 
L 905 515 
L 905 528 
Q 905 532 , 892 534 
Q 880 536 , 855 536 
Q 831 536 , 818 534 
Q 805 532 , 805 528 
L 805 515 
" fill="#D21010" />
<path d="
M 889 509 
L 889 499 
L 860 499 
L 860 495 
L 905 495 
L 905 511 
Q 894 513 , 883 513 
Q 874 514 , 862 514 
Q 836 514 , 820 509 
Q 805 504 , 805 496 
Q 805 487 , 820 482 
Q 836 477 , 862 477 
Q 873 477 , 882 478 
Q 892 478 , 902 480 
L 902 485 
Q 889 483 , 881 482 
Q 872 481 , 863 481 
Q 842 481 , 831 485 
Q 821 488 , 821 496 
Q 821 503 , 831 506 
Q 842 510 , 863 510 
Q 872 510 , 879 510 
Q 886 509 , 889 509 
" fill="#F5C000" />
<path d="
M 960 553 
L 942 554 
L 976 554 
L 960 553 
M 953 553 
L 967 553 
L 1010 555 
L 994 555 
L 982 554 
L 938 554 
L 925 555 
L 910 555 
L 953 553 
" fill="#339541" />
<path d="
M 1010 539 
L 1010 541 
Q 995 539 , 987 539 
Q 979 539 , 969 539 
Q 948 539 , 938 540 
Q 926 542 , 926 544 
Q 926 547 , 938 549 
Q 948 550 , 969 550 
Q 979 550 , 987 550 
Q 995 550 , 1010 548 
L 1010 551 
Q 999 551 , 989 552 
Q 979 552 , 968 552 
Q 941 552 , 926 550 
Q 910 548 , 910 545 
Q 910 541 , 926 539 
Q 941 537 , 968 537 
Q 979 537 , 989 537 
Q 1000 538 , 1010 539 
" fill="#545FFF" />
<path d="
M 910 520 
L 928 520 
L 928 530 
Q 928 532 , 936 534 
Q 943 535 , 960 535 
Q 977 535 , 985 534 
Q 992 532 , 992 530 
L 992 520 
L 1010 520 
L 1010 530 
Q 1010 533 , 997 535 
Q 985 536 , 960 536 
Q 936 536 , 923 535 
Q 910 533 , 910 530 
L 910 520 
" fill="#D21010" />
<path d="
M 994 515 
L 994 508 
L 965 508 
L 965 505 
L 1010 505 
L 1010 517 
Q 999 518 , 988 519 
Q 979 519 , 967 519 
Q 941 519 , 925 516 
Q 910 512 , 910 505 
Q 910 499 , 925 495 
Q 941 491 , 967 491 
Q 978 491 , 987 491 
Q 997 492 , 1007 493 
L 1007 497 
Q 994 495 , 986 495 
Q 977 494 , 968 494 
Q 947 494 , 936 497 
Q 926 500 , 926 505 
Q 926 511 , 936 513 
Q 947 516 , 968 516 
Q 977 516 , 984 516 
Q 991 516 , 994 515 
" fill="#F5C000" />
<path d="
M 1057 554 
L 1057 553 
L 1043 553 
L 1043 553 
L 1065 553 
L 1065 554 
Q 1060 554 , 1054 554 
Q 1049 554 , 1043 554 
Q 1030 554 , 1023 554 
Q 1015 554 , 1015 553 
Q 1015 553 , 1023 552 
Q 1030 552 , 1043 552 
Q 1049 552 , 1054 552 
Q 1059 552 , 1064 552 
L 1064 552 
Q 1057 552 , 1053 552 
Q 1049 552 , 1044 552 
Q 1034 552 , 1028 552 
Q 1023 553 , 1023 553 
Q 1023 554 , 1028 554 
Q 1034 554 , 1044 554 
Q 1049 554 , 1052 554 
Q 1056 554 , 1057 554 
" fill="lightgray" />
<path d="
M 1065 552 
L 1074 552 
L 1074 553 
Q 1074 554 , 1078 554 
Q 1081 554 , 1090 554 
Q 1099 554 , 1102 554 
Q 1106 554 , 1106 553 
L 1106 552 
L 1115 552 
L 1115 553 
Q 1115 554 , 1109 554 
Q 1102 554 , 1090 554 
Q 1078 554 , 1071 554 
Q 1065 554 , 1065 553 
L 1065 552 
" fill="#D21010" />
<path d="
M 1015 544 
L 1024 544 
L 1024 549 
Q 1024 550 , 1028 550 
Q 1031 551 , 1040 551 
Q 1049 551 , 1052 550 
Q 1056 550 , 1056 549 
L 1056 544 
L 1065 544 
L 1065 549 
Q 1065 550 , 1059 551 
Q 1052 552 , 1040 552 
Q 1028 552 , 1021 551 
Q 1015 550 , 1015 549 
L 1015 544 
" fill="lightgray" />
<path d="
M 1090 545 
L 1081 549 
L 1098 549 
L 1090 545 
M 1086 544 
L 1094 544 
L 1115 552 
L 1107 552 
L 1101 550 
L 1079 550 
L 1072 552 
L 1065 552 
L 1086 544 
" fill="#339541" />
<path d="
M 1015 535 
L 1024 535 
L 1024 540 
Q 1024 541 , 1028 542 
Q 1031 542 , 1040 542 
Q 1049 542 , 1052 542 
Q 1056 541 , 1056 540 
L 1056 535 
L 1065 535 
L 1065 540 
Q 1065 542 , 1059 543 
Q 1052 543 , 1040 543 
Q 1028 543 , 1021 543 
Q 1015 542 , 1015 540 
L 1015 535 
" fill="lightgray" />
<path d="
M 1107 542 
L 1107 540 
L 1093 540 
L 1093 539 
L 1115 539 
L 1115 543 
Q 1110 543 , 1104 543 
Q 1099 543 , 1093 543 
Q 1080 543 , 1073 542 
Q 1065 541 , 1065 539 
Q 1065 537 , 1073 536 
Q 1080 535 , 1093 535 
Q 1099 535 , 1104 535 
Q 1109 535 , 1114 536 
L 1114 537 
Q 1107 536 , 1103 536 
Q 1099 536 , 1094 536 
Q 1084 536 , 1078 537 
Q 1073 538 , 1073 539 
Q 1073 541 , 1078 542 
Q 1084 542 , 1094 542 
Q 1099 542 , 1102 542 
Q 1106 542 , 1107 542 
" fill="#F5C000" />
<path d="
M 1065 520 
L 1065 522 
Q 1058 521 , 1054 520 
Q 1049 520 , 1044 520 
Q 1034 520 , 1029 522 
Q 1023 523 , 1023 526 
Q 1023 530 , 1029 531 
Q 1034 533 , 1044 533 
Q 1049 533 , 1054 533 
Q 1058 532 , 1065 531 
L 1065 533 
Q 1060 534 , 1054 535 
Q 1050 535 , 1044 535 
Q 1030 535 , 1023 533 
Q 1015 530 , 1015 526 
Q 1015 523 , 1023 520 
Q 1030 518 , 1044 518 
Q 1050 518 , 1055 518 
Q 1060 519 , 1065 520 
" fill="lightgray" />
<path d="
M 1107 533 
L 1107 528 
L 1093 528 
L 1093 526 
L 1115 526 
L 1115 534 
Q 1110 534 , 1104 535 
Q 1099 535 , 1093 535 
Q 1080 535 , 1073 533 
Q 1065 530 , 1065 526 
Q 1065 523 , 1073 520 
Q 1080 518 , 1093 518 
Q 1099 518 , 1104 518 
Q 1109 519 , 1114 519 
L 1114 522 
Q 1107 521 , 1103 520 
Q 1099 520 , 1094 520 
Q 1084 520 , 1078 522 
Q 1073 523 , 1073 526 
Q 1073 530 , 1078 531 
Q 1084 533 , 1094 533 
Q 1099 533 , 1102 533 
Q 1106 533 , 1107 533 
" fill="#F5C000" />
<path d="
M 1040 502 
L 1031 510 
L 1048 510 
L 1040 502 
M 1036 499 
L 1044 499 
L 1065 517 
L 1057 517 
L 1051 512 
L 1029 512 
L 1022 517 
L 1015 517 
L 1036 499 
" fill="lightgray" />
<path d="
M 1065 499 
L 1074 499 
L 1074 510 
Q 1074 513 , 1078 514 
Q 1081 515 , 1090 515 
Q 1099 515 , 1102 514 
Q 1106 513 , 1106 510 
L 1106 499 
L 1115 499 
L 1115 510 
Q 1115 514 , 1109 515 
Q 1102 517 , 1090 517 
Q 1078 517 , 1071 515 
Q 1065 514 , 1065 510 
L 1065 499 
" fill="#D21010" />
<path d="
M 1057 491 
L 1057 477 
L 1043 477 
L 1043 471 
L 1065 471 
L 1065 495 
Q 1060 497 , 1054 498 
Q 1049 499 , 1043 499 
Q 1030 499 , 1023 492 
Q 1015 485 , 1015 472 
Q 1015 459 , 1023 452 
Q 1030 445 , 1043 445 
Q 1049 445 , 1054 446 
Q 1059 447 , 1064 449 
L 1064 456 
Q 1057 453 , 1053 452 
Q 1049 451 , 1044 451 
Q 1034 451 , 1028 456 
Q 1023 462 , 1023 472 
Q 1023 483 , 1028 488 
Q 1034 493 , 1044 493 
Q 1049 493 , 1052 492 
Q 1056 492 , 1057 491 
" fill="lightgray" />
<path d="
M 1115 451 
L 1115 459 
Q 1108 454 , 1104 452 
Q 1099 451 , 1094 451 
Q 1084 451 , 1079 456 
Q 1073 462 , 1073 472 
Q 1073 482 , 1079 488 
Q 1084 493 , 1094 493 
Q 1099 493 , 1104 492 
Q 1108 490 , 1115 485 
L 1115 493 
Q 1110 496 , 1104 498 
Q 1100 499 , 1094 499 
Q 1080 499 , 1073 492 
Q 1065 484 , 1065 472 
Q 1065 460 , 1073 452 
Q 1080 445 , 1094 445 
Q 1100 445 , 1105 446 
Q 1110 448 , 1115 451 
" fill="#545FFF" />
<path d="
M 1170 552 
L 1152 553 
L 1186 553 
L 1170 552 
M 1163 552 
L 1177 552 
L 1220 554 
L 1204 554 
L 1192 554 
L 1148 554 
L 1135 554 
L 1120 554 
L 1163 552 
" fill="#339541" />
<path d="
M 1220 539 
L 1220 541 
Q 1205 539 , 1197 539 
Q 1189 539 , 1179 539 
Q 1158 539 , 1148 540 
Q 1136 541 , 1136 544 
Q 1136 547 , 1148 548 
Q 1158 550 , 1179 550 
Q 1189 550 , 1197 549 
Q 1205 549 , 1220 547 
L 1220 550 
Q 1209 551 , 1199 551 
Q 1189 551 , 1178 551 
Q 1151 551 , 1136 549 
Q 1120 547 , 1120 544 
Q 1120 541 , 1136 539 
Q 1151 537 , 1178 537 
Q 1189 537 , 1199 537 
Q 1210 538 , 1220 539 
" fill="#545FFF" />
<path d="
M 1120 515 
L 1138 515 
L 1138 528 
Q 1138 531 , 1146 533 
Q 1153 534 , 1170 534 
Q 1187 534 , 1195 533 
Q 1202 531 , 1202 528 
L 1202 515 
L 1220 515 
L 1220 528 
Q 1220 532 , 1207 534 
Q 1195 536 , 1170 536 
Q 1146 536 , 1133 534 
Q 1120 532 , 1120 528 
L 1120 515 
" fill="#D21010" />
<path d="
M 1204 490 
L 1204 442 
L 1175 442 
L 1175 423 
L 1220 423 
L 1220 501 
Q 1209 509 , 1198 512 
Q 1189 515 , 1177 515 
Q 1151 515 , 1135 491 
Q 1120 468 , 1120 427 
Q 1120 385 , 1135 362 
Q 1151 338 , 1177 338 
Q 1188 338 , 1197 341 
Q 1207 344 , 1217 352 
L 1217 375 
Q 1204 365 , 1196 362 
Q 1187 359 , 1178 359 
Q 1157 359 , 1146 376 
Q 1136 392 , 1136 427 
Q 1136 461 , 1146 478 
Q 1157 495 , 1178 495 
Q 1187 495 , 1194 493 
Q 1201 492 , 1204 490 
" fill="#F5C000" />
<path d="
M 1275 552 
L 1257 553 
L 1291 553 
L 1275 552 
M 1268 552 
L 1282 552 
L 1325 554 
L 1309 554 
L 1297 554 
L 1253 554 
L 1240 554 
L 1225 554 
L 1268 552 
" fill="#339541" />
<path d="
M 1325 541 
L 1325 543 
Q 1310 542 , 1302 542 
Q 1294 541 , 1284 541 
Q 1263 541 , 1253 542 
Q 1241 544 , 1241 546 
Q 1241 548 , 1253 549 
Q 1263 550 , 1284 550 
Q 1294 550 , 1302 550 
Q 1310 550 , 1325 549 
L 1325 551 
Q 1314 551 , 1304 551 
Q 1294 552 , 1283 552 
Q 1256 552 , 1241 550 
Q 1225 549 , 1225 546 
Q 1225 543 , 1241 542 
Q 1256 540 , 1283 540 
Q 1294 540 , 1304 540 
Q 1315 541 , 1325 541 
" fill="#545FFF" />
<path d="
M 1225 527 
L 1243 527 
L 1243 534 
Q 1243 536 , 1251 537 
Q 1258 538 , 1275 538 
Q 1292 538 , 1300 537 
Q 1307 536 , 1307 534 
L 1307 527 
L 1325 527 
L 1325 535 
Q 1325 537 , 1312 538 
Q 1300 539 , 1275 539 
Q 1251 539 , 1238 538 
Q 1225 537 , 1225 535 
L 1225 527 
" fill="#D21010" />
<path d="
M 1309 524 
L 1309 519 
L 1280 519 
L 1280 517 
L 1325 517 
L 1325 525 
Q 1314 526 , 1303 526 
Q 1294 527 , 1282 527 
Q 1256 527 , 1240 524 
Q 1225 522 , 1225 518 
Q 1225 514 , 1240 511 
Q 1256 509 , 1282 509 
Q 1293 509 , 1302 509 
Q 1312 510 , 1322 510 
L 1322 513 
Q 1309 512 , 1301 511 
Q 1292 511 , 1283 511 
Q 1262 511 , 1251 513 
Q 1241 514 , 1241 518 
Q 1241 521 , 1251 523 
Q 1262 525 , 1283 525 
Q 1292 525 , 1299 524 
Q 1306 524 , 1309 524 
" fill="#F5C000" />
<path d="
M 1380 553 
L 1362 554 
L 1396 554 
L 1380 553 
M 1373 553 
L 1387 553 
L 1430 555 
L 1414 555 
L 1402 554 
L 1358 554 
L 1345 555 
L 1330 555 
L 1373 553 
" fill="#339541" />
<path d="
M 1330 551 
L 1348 551 
L 1348 552 
Q 1348 552 , 1356 553 
Q 1363 553 , 1380 553 
Q 1397 553 , 1405 553 
Q 1412 552 , 1412 552 
L 1412 551 
L 1430 551 
L 1430 552 
Q 1430 552 , 1417 553 
Q 1405 553 , 1380 553 
Q 1356 553 , 1343 553 
Q 1330 552 , 1330 552 
L 1330 551 
" fill="#D21010" />
<path d="
M 1430 548 
L 1430 549 
Q 1415 548 , 1407 548 
Q 1399 548 , 1389 548 
Q 1368 548 , 1358 548 
Q 1346 549 , 1346 549 
Q 1346 549 , 1358 550 
Q 1368 550 , 1389 550 
Q 1399 550 , 1407 550 
Q 1415 550 , 1430 550 
L 1430 550 
Q 1419 550 , 1409 550 
Q 1399 550 , 1388 550 
Q 1361 550 , 1346 550 
Q 1330 550 , 1330 549 
Q 1330 549 , 1346 548 
Q 1361 548 , 1388 548 
Q 1399 548 , 1409 548 
Q 1420 548 , 1430 548 
" fill="#545FFF" />
<path d="
M 1414 547 
L 1414 546 
L 1385 546 
L 1385 545 
L 1430 545 
L 1430 547 
Q 1419 547 , 1408 547 
Q 1399 547 , 1387 547 
Q 1361 547 , 1345 547 
Q 1330 546 , 1330 546 
Q 1330 545 , 1345 544 
Q 1361 544 , 1387 544 
Q 1398 544 , 1407 544 
Q 1417 544 , 1427 544 
L 1427 545 
Q 1414 544 , 1406 544 
Q 1397 544 , 1388 544 
Q 1367 544 , 1356 545 
Q 1346 545 , 1346 546 
Q 1346 546 , 1356 546 
Q 1367 547 , 1388 547 
Q 1397 547 , 1404 547 
Q 1411 547 , 1414 547 
" fill="#F5C000" />
<path d="M 65 168 L 65 555 " stroke="black" stroke-width="1.5"/>
<path d="M 55 555 L 65 555 " stroke="black" stroke-width="4"/>
<text text-anchor="end" x="50" y="555" font-size="50" alignment-baseline="middle">0</text>
<path d="M 55 362 L 65 362 " stroke="black" stroke-width="4"/>
<text text-anchor="end" x="50" y="362" font-size="50" alignment-baseline="middle">1</text>
<path d="M 55 168 L 65 168 " stroke="black" stroke-width="4"/>
<text text-anchor="end" x="50" y="168" font-size="50" alignment-baseline="middle">2</text>
<text text-anchor="middle" x="750" y="50" font-size="50" alignment-baseline="baseline"></text>
G<path d="
M 160 582 
L 126 595 
L 160 608 
L 157 611 
L 123 598 
L 123 623 
L 117 623 
L 117 599 
L 83 611 
L 80 608 
L 114 595 
L 80 582 
L 83 579 
L 117 591 
L 117 567 
L 123 567 
L 123 591 
L 157 579 
L 160 582 
" fill="black" />
<path d="
" fill="black" />
<path d="
M 211 567 
L 238 567 
L 238 623 
L 211 623 
L 211 567 
" fill="black" />
<path d="
" fill="black" />
<path d="
" fill="black" />
<path d="
M 316 567 
L 343 567 
L 343 623 
L 316 623 
L 316 567 
" fill="black" />
<path d="
" fill="black" />
<path d="
" fill="black" />
<path d="
M 421 567 
L 448 567 
L 448 623 
L 421 623 
L 421 567 
" fill="black" />
<path d="
" fill="black" />
<path d="
M 580 567 
Q 551 574 , 538 581 
Q 525 588 , 525 595 
Q 525 602 , 538 609 
Q 551 616 , 580 623 
L 556 623 
Q 528 616 , 514 609 
Q 500 602 , 500 595 
Q 500 588 , 514 581 
Q 528 574 , 556 567 
L 580 567 
" fill="black" />
<path d="
" fill="black" />
<path d="
M 622 567 
L 642 567 
L 642 623 
L 622 623 
L 622 567 
" fill="black" />
<path d="
" fill="black" />
<path d="
M 674 621 
L 674 616 
Q 675 618 , 677 619 
Q 678 619 , 680 619 
Q 686 619 , 688 609 
Q 689 604 , 689 595 
Q 689 597 , 687 600 
Q 685 603 , 681 603 
Q 677 603 , 675 598 
Q 672 593 , 672 586 
Q 672 577 , 675 572 
Q 677 567 , 682 567 
Q 687 567 , 689 574 
Q 692 581 , 692 595 
Q 692 609 , 689 616 
Q 685 623 , 680 623 
Q 678 623 , 677 622 
Q 675 622 , 674 621 
M 676 595 
Q 678 599 , 681 599 
Q 685 599 , 687 595 
Q 689 591 , 689 584 
Q 689 578 , 687 574 
Q 685 571 , 681 571 
Q 678 571 , 676 574 
Q 675 578 , 675 584 
Q 675 591 , 676 595 
" fill="black" />
<path d="
M 790 582 
L 756 595 
L 790 608 
L 787 611 
L 753 598 
L 753 623 
L 747 623 
L 747 599 
L 713 611 
L 710 608 
L 744 595 
L 710 582 
L 713 579 
L 747 591 
L 747 567 
L 753 567 
L 753 591 
L 787 579 
L 790 582 
" fill="black" />
<path d="
" fill="black" />
<path d="
M 841 567 
L 868 567 
L 868 623 
L 841 623 
L 841 567 
" fill="black" />
<path d="
" fill="black" />
<path d="
" fill="black" />
<path d="
M 946 567 
L 973 567 
L 973 623 
L 946 623 
L 946 567 
" fill="black" />
<path d="
" fill="black" />
<path d="
M 1025 567 
L 1049 567 
Q 1077 574 , 1091 581 
Q 1105 588 , 1105 595 
Q 1105 602 , 1091 609 
Q 1077 616 , 1049 623 
L 1025 623 
Q 1054 616 , 1067 609 
Q 1080 602 , 1080 595 
Q 1080 588 , 1067 581 
Q 1054 574 , 1025 567 
" fill="black" />
<path d="
" fill="black" />
<path d="
M 1156 567 
L 1183 567 
L 1183 623 
L 1156 623 
L 1156 567 
" fill="black" />
<path d="
" fill="black" />
<path d="
" fill="black" />
<path d="
M 1261 567 
L 1288 567 
L 1288 623 
L 1261 623 
L 1261 567 
" fill="black" />
<path d="
" fill="black" />
<path d="
M 1420 582 
L 1386 595 
L 1420 608 
L 1417 611 
L 1383 598 
L 1383 623 
L 1377 623 
L 1377 599 
L 1343 611 
L 1340 608 
L 1374 595 
L 1340 582 
L 1343 579 
L 1377 591 
L 1377 567 
L 1383 567 
L 1383 591 
L 1417 579 
L 1420 582 
" fill="black" />
</svg>
