<svg xmlns="http://www.w3.org/2000/svg"
viewBox="0 0 1435 635">
<path d="
M 120 553 
L 102 554 
L 136 554 
L 120 553 
M 113 553 
L 127 553 
L 170 555 
L 154 555 
L 142 554 
L 98 554 
L 85 555 
L 70 555 
L 113 553 
" fill="#339541" />
<path d="
M 70 551 
L 88 551 
L 88 552 
Q 88 552 , 96 553 
Q 103 553 , 120 553 
Q 137 553 , 145 553 
Q 152 552 , 152 552 
L 152 551 
L 170 551 
L 170 552 
Q 170 552 , 157 553 
Q 145 553 , 120 553 
Q 96 553 , 83 553 
Q 70 552 , 70 552 
L 70 551 
" fill="#D21010" />
<path d="
M 170 548 
L 170 549 
Q 155 548 , 147 548 
Q 139 548 , 129 548 
Q 108 548 , 98 548 
Q 86 549 , 86 549 
Q 86 549 , 98 550 
Q 108 550 , 129 550 
Q 139 550 , 147 550 
Q 155 550 , 170 550 
L 170 550 
Q 159 550 , 149 550 
Q 139 550 , 128 550 
Q 101 550 , 86 550 
Q 70 550 , 70 549 
Q 70 549 , 86 548 
Q 101 548 , 128 548 
Q 139 548 , 149 548 
Q 160 548 , 170 548 
" fill="#545FFF" />
<path d="
M 154 547 
L 154 546 
L 125 546 
L 125 545 
L 170 545 
L 170 547 
Q 159 547 , 148 547 
Q 139 547 , 127 547 
Q 101 547 , 85 547 
Q 70 546 , 70 546 
Q 70 545 , 85 544 
Q 101 544 , 127 544 
Q 138 544 , 147 544 
Q 157 544 , 167 544 
L 167 545 
Q 154 544 , 146 544 
Q 137 544 , 128 544 
Q 107 544 , 96 545 
Q 86 545 , 86 546 
Q 86 546 , 96 546 
Q 107 547 , 128 547 
Q 137 547 , 144 547 
Q 151 547 , 154 547 
" fill="#F5C000" />
<path d="
M 225 552 
L 207 554 
L 241 554 
L 225 552 
M 218 552 
L 232 552 
L 275 555 
L 259 555 
L 247 554 
L 203 554 
L 190 555 
L 175 555 
L 218 552 
" fill="#339541" />
<path d="
M 175 544 
L 193 544 
L 193 548 
Q 193 550 , 201 550 
Q 208 551 , 225 551 
Q 242 551 , 250 550 
Q 257 550 , 257 548 
L 257 544 
L 275 544 
L 275 548 
Q 275 550 , 262 551 
Q 250 551 , 225 551 
Q 201 551 , 188 551 
Q 175 550 , 175 548 
L 175 544 
" fill="#D21010" />
<path d="
M 275 537 
L 275 538 
Q 260 537 , 252 537 
Q 244 537 , 234 537 
Q 213 537 , 203 538 
Q 191 538 , 191 539 
Q 191 541 , 203 542 
Q 213 543 , 234 543 
Q 244 543 , 252 542 
Q 260 542 , 275 541 
L 275 543 
Q 264 543 , 254 543 
Q 244 543 , 233 543 
Q 206 543 , 191 542 
Q 175 541 , 175 540 
Q 175 538 , 191 537 
Q 206 536 , 233 536 
Q 244 536 , 254 536 
Q 265 536 , 275 537 
" fill="#545FFF" />
<path d="
M 259 534 
L 259 531 
L 230 531 
L 230 530 
L 275 530 
L 275 535 
Q 264 535 , 253 536 
Q 244 536 , 232 536 
Q 206 536 , 190 534 
Q 175 533 , 175 530 
Q 175 527 , 190 526 
Q 206 524 , 232 524 
Q 243 524 , 252 524 
Q 262 524 , 272 525 
L 272 526 
Q 259 526 , 251 526 
Q 242 525 , 233 525 
Q 212 525 , 201 527 
Q 191 528 , 191 530 
Q 191 532 , 201 533 
Q 212 535 , 233 535 
Q 242 535 , 249 534 
Q 256 534 , 259 534 
" fill="#F5C000" />
<path d="
M 322 554 
L 322 554 
L 308 554 
L 308 554 
L 330 554 
L 330 554 
Q 325 554 , 319 554 
Q 314 554 , 308 554 
Q 295 554 , 288 554 
Q 280 554 , 280 554 
Q 280 553 , 288 553 
Q 295 553 , 308 553 
Q 314 553 , 319 553 
Q 324 553 , 329 553 
L 329 553 
Q 322 553 , 318 553 
Q 314 553 , 309 553 
Q 299 553 , 293 553 
Q 288 553 , 288 554 
Q 288 554 , 293 554 
Q 299 554 , 309 554 
Q 314 554 , 317 554 
Q 321 554 , 322 554 
" fill="#F5C000" />
<path d="
M 330 553 
L 339 553 
L 339 554 
Q 339 554 , 343 554 
Q 346 554 , 355 554 
Q 364 554 , 367 554 
Q 371 554 , 371 554 
L 371 553 
L 380 553 
L 380 554 
Q 380 554 , 374 554 
Q 367 554 , 355 554 
Q 343 554 , 336 554 
Q 330 554 , 330 554 
L 330 553 
" fill="lightgray" />
<path d="
M 280 549 
L 289 549 
L 289 551 
Q 289 552 , 293 552 
Q 296 552 , 305 552 
Q 314 552 , 317 552 
Q 321 552 , 321 551 
L 321 549 
L 330 549 
L 330 551 
Q 330 552 , 324 552 
Q 317 553 , 305 553 
Q 293 553 , 286 552 
Q 280 552 , 280 551 
L 280 549 
" fill="#D21010" />
<path d="
M 355 550 
L 346 551 
L 363 551 
L 355 550 
M 351 549 
L 359 549 
L 380 553 
L 372 553 
L 366 552 
L 344 552 
L 337 553 
L 330 553 
L 351 549 
" fill="lightgray" />
<path d="
M 330 538 
L 330 540 
Q 323 539 , 319 539 
Q 314 538 , 309 538 
Q 299 538 , 294 539 
Q 288 541 , 288 543 
Q 288 545 , 294 546 
Q 299 547 , 309 547 
Q 314 547 , 319 547 
Q 323 547 , 330 546 
L 330 548 
Q 325 548 , 319 548 
Q 315 549 , 309 549 
Q 295 549 , 288 547 
Q 280 546 , 280 543 
Q 280 540 , 288 539 
Q 295 537 , 309 537 
Q 315 537 , 320 537 
Q 325 538 , 330 538 
" fill="#545FFF" />
<path d="
M 372 547 
L 372 544 
L 358 544 
L 358 543 
L 380 543 
L 380 548 
Q 375 548 , 369 549 
Q 364 549 , 358 549 
Q 345 549 , 338 547 
Q 330 546 , 330 543 
Q 330 540 , 338 539 
Q 345 537 , 358 537 
Q 364 537 , 369 537 
Q 374 537 , 379 538 
L 379 539 
Q 372 539 , 368 539 
Q 364 538 , 359 538 
Q 349 538 , 343 539 
Q 338 541 , 338 543 
Q 338 545 , 343 546 
Q 349 547 , 359 547 
Q 364 547 , 367 547 
Q 371 547 , 372 547 
" fill="lightgray" />
<path d="
M 280 522 
L 289 522 
L 289 531 
Q 289 533 , 293 534 
Q 296 535 , 305 535 
Q 314 535 , 317 534 
Q 321 533 , 321 531 
L 321 522 
L 330 522 
L 330 531 
Q 330 534 , 324 535 
Q 317 537 , 305 537 
Q 293 537 , 286 535 
Q 280 534 , 280 531 
L 280 522 
" fill="#D21010" />
<path d="
M 372 534 
L 372 531 
L 358 531 
L 358 529 
L 380 529 
L 380 535 
Q 375 536 , 369 536 
Q 364 537 , 358 537 
Q 345 537 , 338 535 
Q 330 533 , 330 529 
Q 330 526 , 338 524 
Q 345 522 , 358 522 
Q 364 522 , 369 522 
Q 374 523 , 379 523 
L 379 525 
Q 372 524 , 368 524 
Q 364 524 , 359 524 
Q 349 524 , 343 525 
Q 338 526 , 338 529 
Q 338 532 , 343 534 
Q 349 535 , 359 535 
Q 364 535 , 367 535 
Q 371 535 , 372 534 
" fill="lightgray" />
<path d="
M 305 505 
L 296 513 
L 313 513 
L 305 505 
M 301 501 
L 309 501 
L 330 521 
L 322 521 
L 316 515 
L 294 515 
L 287 521 
L 280 521 
L 301 501 
" fill="#339541" />
<path d="
M 330 501 
L 339 501 
L 339 513 
Q 339 516 , 343 518 
Q 346 519 , 355 519 
Q 364 519 , 367 518 
Q 371 516 , 371 513 
L 371 501 
L 380 501 
L 380 513 
Q 380 517 , 374 519 
Q 367 521 , 355 521 
Q 343 521 , 336 519 
Q 330 517 , 330 513 
L 330 501 
" fill="lightgray" />
<path d="
M 322 496 
L 322 487 
L 308 487 
L 308 484 
L 330 484 
L 330 498 
Q 325 499 , 319 500 
Q 314 501 , 308 501 
Q 295 501 , 288 496 
Q 280 492 , 280 484 
Q 280 477 , 288 472 
Q 295 468 , 308 468 
Q 314 468 , 319 469 
Q 324 469 , 329 471 
L 329 475 
Q 322 473 , 318 472 
Q 314 472 , 309 472 
Q 299 472 , 293 475 
Q 288 478 , 288 484 
Q 288 491 , 293 494 
Q 299 497 , 309 497 
Q 314 497 , 317 497 
Q 321 496 , 322 496 
" fill="#F5C000" />
<path d="
M 380 471 
L 380 476 
Q 373 473 , 369 472 
Q 364 472 , 359 472 
Q 349 472 , 344 475 
Q 338 478 , 338 484 
Q 338 491 , 344 494 
Q 349 497 , 359 497 
Q 364 497 , 369 496 
Q 373 495 , 380 492 
L 380 497 
Q 375 499 , 369 500 
Q 365 501 , 359 501 
Q 345 501 , 338 496 
Q 330 492 , 330 484 
Q 330 477 , 338 472 
Q 345 468 , 359 468 
Q 365 468 , 370 469 
Q 375 470 , 380 471 
" fill="lightgray" />
<path d="
M 435 553 
L 417 554 
L 451 554 
L 435 553 
M 428 552 
L 442 552 
L 485 555 
L 469 555 
L 457 554 
L 413 554 
L 400 555 
L 385 555 
L 428 552 
" fill="#339541" />
<path d="
M 385 540 
L 403 540 
L 403 547 
Q 403 549 , 411 550 
Q 418 551 , 435 551 
Q 452 551 , 460 550 
Q 467 549 , 467 547 
L 467 540 
L 485 540 
L 485 547 
Q 485 550 , 472 551 
Q 460 552 , 435 552 
Q 411 552 , 398 551 
Q 385 550 , 385 547 
L 385 540 
" fill="#D21010" />
<path d="
M 485 528 
L 485 530 
Q 470 529 , 462 529 
Q 454 528 , 444 528 
Q 423 528 , 413 530 
Q 401 531 , 401 533 
Q 401 536 , 413 537 
Q 423 538 , 444 538 
Q 454 538 , 462 538 
Q 470 538 , 485 536 
L 485 538 
Q 474 539 , 464 539 
Q 454 540 , 443 540 
Q 416 540 , 401 538 
Q 385 536 , 385 533 
Q 385 530 , 401 529 
Q 416 527 , 443 527 
Q 454 527 , 464 527 
Q 475 528 , 485 528 
" fill="#545FFF" />
<path d="
M 469 523 
L 469 516 
L 440 516 
L 440 514 
L 485 514 
L 485 524 
Q 474 526 , 463 526 
Q 454 526 , 442 526 
Q 416 526 , 400 523 
Q 385 520 , 385 514 
Q 385 508 , 400 505 
Q 416 502 , 442 502 
Q 453 502 , 462 502 
Q 472 503 , 482 504 
L 482 507 
Q 469 506 , 461 505 
Q 452 505 , 443 505 
Q 422 505 , 411 507 
Q 401 509 , 401 514 
Q 401 519 , 411 521 
Q 422 524 , 443 524 
Q 452 524 , 459 523 
Q 466 523 , 469 523 
" fill="#F5C000" />
<path d="
M 540 551 
L 522 553 
L 556 553 
L 540 551 
M 533 550 
L 547 550 
L 590 554 
L 574 554 
L 562 553 
L 518 553 
L 505 554 
L 490 554 
L 533 550 
" fill="#339541" />
<path d="
M 490 539 
L 508 539 
L 508 545 
Q 508 547 , 516 548 
Q 523 548 , 540 548 
Q 557 548 , 565 548 
Q 572 547 , 572 545 
L 572 539 
L 590 539 
L 590 545 
Q 590 547 , 577 548 
Q 565 549 , 540 549 
Q 516 549 , 503 548 
Q 490 547 , 490 545 
L 490 539 
" fill="#D21010" />
<path d="
M 590 517 
L 590 521 
Q 575 519 , 567 518 
Q 559 518 , 549 518 
Q 528 518 , 518 520 
Q 506 522 , 506 526 
Q 506 531 , 518 533 
Q 528 536 , 549 536 
Q 559 536 , 567 535 
Q 575 535 , 590 532 
L 590 536 
Q 579 537 , 569 538 
Q 559 538 , 548 538 
Q 521 538 , 506 535 
Q 490 532 , 490 527 
Q 490 521 , 506 518 
Q 521 515 , 548 515 
Q 559 515 , 569 516 
Q 580 516 , 590 517 
" fill="#545FFF" />
<path d="
M 574 507 
L 574 492 
L 545 492 
L 545 487 
L 590 487 
L 590 510 
Q 579 513 , 568 513 
Q 559 514 , 547 514 
Q 521 514 , 505 507 
Q 490 500 , 490 488 
Q 490 475 , 505 468 
Q 521 461 , 547 461 
Q 558 461 , 567 462 
Q 577 463 , 587 465 
L 587 472 
Q 574 469 , 566 468 
Q 557 467 , 548 467 
Q 527 467 , 516 472 
Q 506 477 , 506 488 
Q 506 498 , 516 503 
Q 527 508 , 548 508 
Q 557 508 , 564 508 
Q 571 507 , 574 507 
" fill="#F5C000" />
<path d="
M 645 550 
L 627 552 
L 661 552 
L 645 550 
M 638 549 
L 652 549 
L 695 554 
L 679 554 
L 667 553 
L 623 553 
L 610 554 
L 595 554 
L 638 549 
" fill="#339541" />
<path d="
M 695 538 
L 695 540 
Q 680 539 , 672 539 
Q 664 538 , 654 538 
Q 633 538 , 623 539 
Q 611 540 , 611 542 
Q 611 545 , 623 546 
Q 633 547 , 654 547 
Q 664 547 , 672 547 
Q 680 546 , 695 545 
L 695 547 
Q 684 548 , 674 548 
Q 664 548 , 653 548 
Q 626 548 , 611 547 
Q 595 545 , 595 543 
Q 595 540 , 611 539 
Q 626 537 , 653 537 
Q 664 537 , 674 537 
Q 685 538 , 695 538 
" fill="#545FFF" />
<path d="
M 595 520 
L 613 520 
L 613 530 
Q 613 533 , 621 534 
Q 628 535 , 645 535 
Q 662 535 , 670 534 
Q 677 533 , 677 530 
L 677 520 
L 695 520 
L 695 530 
Q 695 534 , 682 535 
Q 670 537 , 645 537 
Q 621 537 , 608 535 
Q 595 534 , 595 530 
L 595 520 
" fill="#D21010" />
<path d="
M 679 513 
L 679 500 
L 650 500 
L 650 495 
L 695 495 
L 695 516 
Q 684 518 , 673 519 
Q 664 519 , 652 519 
Q 626 519 , 610 513 
Q 595 507 , 595 496 
Q 595 485 , 610 479 
Q 626 473 , 652 473 
Q 663 473 , 672 474 
Q 682 475 , 692 477 
L 692 483 
Q 679 480 , 671 479 
Q 662 479 , 653 479 
Q 632 479 , 621 483 
Q 611 487 , 611 496 
Q 611 505 , 621 510 
Q 632 514 , 653 514 
Q 662 514 , 669 514 
Q 676 513 , 679 513 
" fill="#F5C000" />
<path d="
M 750 553 
L 732 554 
L 766 554 
L 750 553 
M 743 553 
L 757 553 
L 800 555 
L 784 555 
L 772 554 
L 728 554 
L 715 555 
L 700 555 
L 743 553 
" fill="#339541" />
<path d="
M 700 551 
L 718 551 
L 718 552 
Q 718 552 , 726 553 
Q 733 553 , 750 553 
Q 767 553 , 775 553 
Q 782 552 , 782 552 
L 782 551 
L 800 551 
L 800 552 
Q 800 552 , 787 553 
Q 775 553 , 750 553 
Q 726 553 , 713 553 
Q 700 552 , 700 552 
L 700 551 
" fill="#D21010" />
<path d="
M 800 548 
L 800 549 
Q 785 548 , 777 548 
Q 769 548 , 759 548 
Q 738 548 , 728 548 
Q 716 549 , 716 549 
Q 716 549 , 728 550 
Q 738 550 , 759 550 
Q 769 550 , 777 550 
Q 785 550 , 800 550 
L 800 550 
Q 789 550 , 779 550 
Q 769 550 , 758 550 
Q 731 550 , 716 550 
Q 700 550 , 700 549 
Q 700 549 , 716 548 
Q 731 548 , 758 548 
Q 769 548 , 779 548 
Q 790 548 , 800 548 
" fill="#545FFF" />
<path d="
M 784 547 
L 784 546 
L 755 546 
L 755 545 
L 800 545 
L 800 547 
Q 789 547 , 778 547 
Q 769 547 , 757 547 
Q 731 547 , 715 547 
Q 700 546 , 700 546 
Q 700 545 , 715 544 
Q 731 544 , 757 544 
Q 768 544 , 777 544 
Q 787 544 , 797 544 
L 797 545 
Q 784 544 , 776 544 
Q 767 544 , 758 544 
Q 737 544 , 726 545 
Q 716 545 , 716 546 
Q 716 546 , 726 546 
Q 737 547 , 758 547 
Q 767 547 , 774 547 
Q 781 547 , 784 547 
" fill="#F5C000" />
<path d="
M 855 552 
L 837 553 
L 871 553 
L 855 552 
M 848 552 
L 862 552 
L 905 555 
L 889 555 
L 877 554 
L 833 554 
L 820 555 
L 805 555 
L 848 552 
" fill="#339541" />
<path d="
M 905 545 
L 905 546 
Q 890 545 , 882 545 
Q 874 545 , 864 545 
Q 843 545 , 833 546 
Q 821 546 , 821 547 
Q 821 549 , 833 550 
Q 843 551 , 864 551 
Q 874 551 , 882 550 
Q 890 550 , 905 549 
L 905 551 
Q 894 551 , 884 551 
Q 874 551 , 863 551 
Q 836 551 , 821 550 
Q 805 549 , 805 548 
Q 805 546 , 821 545 
Q 836 544 , 863 544 
Q 874 544 , 884 544 
Q 895 544 , 905 545 
" fill="#545FFF" />
<path d="
M 805 533 
L 823 533 
L 823 539 
Q 823 541 , 831 541 
Q 838 542 , 855 542 
Q 872 542 , 880 541 
Q 887 541 , 887 539 
L 887 533 
L 905 533 
L 905 539 
Q 905 541 , 892 542 
Q 880 543 , 855 543 
Q 831 543 , 818 542 
Q 805 541 , 805 539 
L 805 533 
" fill="#D21010" />
<path d="
M 889 531 
L 889 528 
L 860 528 
L 860 526 
L 905 526 
L 905 532 
Q 894 532 , 883 532 
Q 874 532 , 862 532 
Q 836 532 , 820 531 
Q 805 529 , 805 527 
Q 805 524 , 820 523 
Q 836 521 , 862 521 
Q 873 521 , 882 521 
Q 892 521 , 902 522 
L 902 523 
Q 889 523 , 881 523 
Q 872 522 , 863 522 
Q 842 522 , 831 523 
Q 821 525 , 821 527 
Q 821 529 , 831 530 
Q 842 531 , 863 531 
Q 872 531 , 879 531 
Q 886 531 , 889 531 
" fill="#F5C000" />
<path d="
M 960 552 
L 942 553 
L 976 553 
L 960 552 
M 953 552 
L 967 552 
L 1010 554 
L 994 554 
L 982 554 
L 938 554 
L 925 554 
L 910 554 
L 953 552 
" fill="#339541" />
<path d="
M 910 540 
L 928 540 
L 928 547 
Q 928 549 , 936 549 
Q 943 550 , 960 550 
Q 977 550 , 985 549 
Q 992 549 , 992 547 
L 992 540 
L 1010 540 
L 1010 547 
Q 1010 549 , 997 550 
Q 985 552 , 960 552 
Q 936 552 , 923 550 
Q 910 549 , 910 547 
L 910 540 
" fill="#D21010" />
<path d="
M 994 536 
L 994 530 
L 965 530 
L 965 528 
L 1010 528 
L 1010 538 
Q 999 539 , 988 539 
Q 979 539 , 967 539 
Q 941 539 , 925 536 
Q 910 533 , 910 528 
Q 910 523 , 925 520 
Q 941 517 , 967 517 
Q 978 517 , 987 517 
Q 997 518 , 1007 519 
L 1007 522 
Q 994 520 , 986 520 
Q 977 520 , 968 520 
Q 947 520 , 936 522 
Q 926 524 , 926 528 
Q 926 533 , 936 535 
Q 947 537 , 968 537 
Q 977 537 , 984 537 
Q 991 536 , 994 536 
" fill="#F5C000" />
<path d="
M 1010 494 
L 1010 498 
Q 995 495 , 987 495 
Q 979 494 , 969 494 
Q 948 494 , 938 496 
Q 926 499 , 926 504 
Q 926 509 , 938 511 
Q 948 514 , 969 514 
Q 979 514 , 987 513 
Q 995 513 , 1010 510 
L 1010 514 
Q 999 516 , 989 516 
Q 979 517 , 968 517 
Q 941 517 , 926 513 
Q 910 510 , 910 504 
Q 910 498 , 926 495 
Q 941 491 , 968 491 
Q 979 491 , 989 492 
Q 1000 492 , 1010 494 
" fill="#545FFF" />
<path d="
M 1065 553 
L 1047 554 
L 1081 554 
L 1065 553 
M 1058 553 
L 1072 553 
L 1115 555 
L 1099 555 
L 1087 554 
L 1043 554 
L 1030 555 
L 1015 555 
L 1058 553 
" fill="#339541" />
<path d="
M 1015 535 
L 1033 535 
L 1033 545 
Q 1033 548 , 1041 549 
Q 1048 551 , 1065 551 
Q 1082 551 , 1090 549 
Q 1097 548 , 1097 545 
L 1097 535 
L 1115 535 
L 1115 546 
Q 1115 549 , 1102 551 
Q 1090 552 , 1065 552 
Q 1041 552 , 1028 551 
Q 1015 549 , 1015 546 
L 1015 535 
" fill="#D21010" />
<path d="
M 1115 514 
L 1115 518 
Q 1100 516 , 1092 515 
Q 1084 515 , 1074 515 
Q 1053 515 , 1043 517 
Q 1031 519 , 1031 523 
Q 1031 528 , 1043 530 
Q 1053 532 , 1074 532 
Q 1084 532 , 1092 532 
Q 1100 531 , 1115 529 
L 1115 532 
Q 1104 534 , 1094 534 
Q 1084 535 , 1073 535 
Q 1046 535 , 1031 532 
Q 1015 529 , 1015 523 
Q 1015 518 , 1031 515 
Q 1046 512 , 1073 512 
Q 1084 512 , 1094 513 
Q 1105 513 , 1115 514 
" fill="#545FFF" />
<path d="
M 1099 504 
L 1099 490 
L 1070 490 
L 1070 485 
L 1115 485 
L 1115 508 
Q 1104 510 , 1093 511 
Q 1084 512 , 1072 512 
Q 1046 512 , 1030 505 
Q 1015 498 , 1015 486 
Q 1015 474 , 1030 467 
Q 1046 460 , 1072 460 
Q 1083 460 , 1092 461 
Q 1102 462 , 1112 464 
L 1112 471 
Q 1099 468 , 1091 467 
Q 1082 466 , 1073 466 
Q 1052 466 , 1041 471 
Q 1031 476 , 1031 486 
Q 1031 496 , 1041 501 
Q 1052 506 , 1073 506 
Q 1082 506 , 1089 505 
Q 1096 505 , 1099 504 
" fill="#F5C000" />
<path d="
M 1170 553 
L 1152 554 
L 1186 554 
L 1170 553 
M 1163 552 
L 1177 552 
L 1220 555 
L 1204 555 
L 1192 554 
L 1148 554 
L 1135 555 
L 1120 555 
L 1163 552 
" fill="#339541" />
<path d="
M 1220 545 
L 1220 546 
Q 1205 545 , 1197 545 
Q 1189 545 , 1179 545 
Q 1158 545 , 1148 546 
Q 1136 546 , 1136 547 
Q 1136 549 , 1148 550 
Q 1158 551 , 1179 551 
Q 1189 551 , 1197 551 
Q 1205 550 , 1220 550 
L 1220 551 
Q 1209 551 , 1199 551 
Q 1189 552 , 1178 552 
Q 1151 552 , 1136 551 
Q 1120 550 , 1120 548 
Q 1120 546 , 1136 545 
Q 1151 544 , 1178 544 
Q 1189 544 , 1199 544 
Q 1210 544 , 1220 545 
" fill="#545FFF" />
<path d="
M 1120 515 
L 1138 515 
L 1138 532 
Q 1138 537 , 1146 539 
Q 1153 541 , 1170 541 
Q 1187 541 , 1195 539 
Q 1202 537 , 1202 532 
L 1202 515 
L 1220 515 
L 1220 532 
Q 1220 538 , 1207 541 
Q 1195 544 , 1170 544 
Q 1146 544 , 1133 541 
Q 1120 538 , 1120 532 
L 1120 515 
" fill="#D21010" />
<path d="
M 1204 489 
L 1204 440 
L 1175 440 
L 1175 420 
L 1220 420 
L 1220 501 
Q 1209 508 , 1198 511 
Q 1189 514 , 1177 514 
Q 1151 514 , 1135 490 
Q 1120 466 , 1120 424 
Q 1120 382 , 1135 358 
Q 1151 334 , 1177 334 
Q 1188 334 , 1197 337 
Q 1207 340 , 1217 349 
L 1217 372 
Q 1204 361 , 1196 358 
Q 1187 356 , 1178 356 
Q 1157 356 , 1146 372 
Q 1136 389 , 1136 424 
Q 1136 460 , 1146 477 
Q 1157 494 , 1178 494 
Q 1187 494 , 1194 493 
Q 1201 491 , 1204 489 
" fill="#F5C000" />
<path d="
M 1267 554 
L 1267 554 
L 1253 554 
L 1253 554 
L 1275 554 
L 1275 554 
Q 1270 554 , 1264 554 
Q 1259 554 , 1253 554 
Q 1240 554 , 1233 554 
Q 1225 554 , 1225 554 
Q 1225 553 , 1233 553 
Q 1240 553 , 1253 553 
Q 1259 553 , 1264 553 
Q 1269 553 , 1274 553 
L 1274 553 
Q 1267 553 , 1263 553 
Q 1259 553 , 1254 553 
Q 1244 553 , 1238 553 
Q 1233 553 , 1233 554 
Q 1233 554 , 1238 554 
Q 1244 554 , 1254 554 
Q 1259 554 , 1262 554 
Q 1266 554 , 1267 554 
" fill="lightgray" />
<path d="
M 1275 553 
L 1284 553 
L 1284 554 
Q 1284 554 , 1288 554 
Q 1291 554 , 1300 554 
Q 1309 554 , 1312 554 
Q 1316 554 , 1316 554 
L 1316 553 
L 1325 553 
L 1325 554 
Q 1325 554 , 1319 554 
Q 1312 554 , 1300 554 
Q 1288 554 , 1281 554 
Q 1275 554 , 1275 554 
L 1275 553 
" fill="#D21010" />
<path d="
M 1225 549 
L 1234 549 
L 1234 551 
Q 1234 552 , 1238 552 
Q 1241 552 , 1250 552 
Q 1259 552 , 1262 552 
Q 1266 552 , 1266 551 
L 1266 549 
L 1275 549 
L 1275 551 
Q 1275 552 , 1269 552 
Q 1262 553 , 1250 553 
Q 1238 553 , 1231 552 
Q 1225 552 , 1225 551 
L 1225 549 
" fill="lightgray" />
<path d="
M 1300 550 
L 1291 551 
L 1308 551 
L 1300 550 
M 1296 549 
L 1304 549 
L 1325 553 
L 1317 553 
L 1311 552 
L 1289 552 
L 1282 553 
L 1275 553 
L 1296 549 
" fill="#339541" />
<path d="
M 1275 538 
L 1275 540 
Q 1268 539 , 1264 539 
Q 1259 538 , 1254 538 
Q 1244 538 , 1239 539 
Q 1233 541 , 1233 543 
Q 1233 545 , 1239 546 
Q 1244 547 , 1254 547 
Q 1259 547 , 1264 547 
Q 1268 547 , 1275 546 
L 1275 548 
Q 1270 548 , 1264 548 
Q 1260 549 , 1254 549 
Q 1240 549 , 1233 547 
Q 1225 546 , 1225 543 
Q 1225 540 , 1233 539 
Q 1240 537 , 1254 537 
Q 1260 537 , 1265 537 
Q 1270 538 , 1275 538 
" fill="lightgray" />
<path d="
M 1317 547 
L 1317 544 
L 1303 544 
L 1303 543 
L 1325 543 
L 1325 548 
Q 1320 548 , 1314 549 
Q 1309 549 , 1303 549 
Q 1290 549 , 1283 547 
Q 1275 546 , 1275 543 
Q 1275 540 , 1283 539 
Q 1290 537 , 1303 537 
Q 1309 537 , 1314 537 
Q 1319 537 , 1324 538 
L 1324 539 
Q 1317 539 , 1313 539 
Q 1309 538 , 1304 538 
Q 1294 538 , 1288 539 
Q 1283 541 , 1283 543 
Q 1283 545 , 1288 546 
Q 1294 547 , 1304 547 
Q 1309 547 , 1312 547 
Q 1316 547 , 1317 547 
" fill="#F5C000" />
<path d="
M 1225 522 
L 1234 522 
L 1234 531 
Q 1234 533 , 1238 534 
Q 1241 535 , 1250 535 
Q 1259 535 , 1262 534 
Q 1266 533 , 1266 531 
L 1266 522 
L 1275 522 
L 1275 531 
Q 1275 534 , 1269 535 
Q 1262 537 , 1250 537 
Q 1238 537 , 1231 535 
Q 1225 534 , 1225 531 
L 1225 522 
" fill="lightgray" />
<path d="
M 1317 534 
L 1317 531 
L 1303 531 
L 1303 529 
L 1325 529 
L 1325 535 
Q 1320 536 , 1314 536 
Q 1309 537 , 1303 537 
Q 1290 537 , 1283 535 
Q 1275 533 , 1275 529 
Q 1275 526 , 1283 524 
Q 1290 522 , 1303 522 
Q 1309 522 , 1314 522 
Q 1319 523 , 1324 523 
L 1324 525 
Q 1317 524 , 1313 524 
Q 1309 524 , 1304 524 
Q 1294 524 , 1288 525 
Q 1283 526 , 1283 529 
Q 1283 532 , 1288 534 
Q 1294 535 , 1304 535 
Q 1309 535 , 1312 535 
Q 1316 535 , 1317 534 
" fill="#F5C000" />
<path d="
M 1250 505 
L 1241 513 
L 1258 513 
L 1250 505 
M 1246 501 
L 1254 501 
L 1275 521 
L 1267 521 
L 1261 515 
L 1239 515 
L 1232 521 
L 1225 521 
L 1246 501 
" fill="lightgray" />
<path d="
M 1275 501 
L 1284 501 
L 1284 513 
Q 1284 516 , 1288 518 
Q 1291 519 , 1300 519 
Q 1309 519 , 1312 518 
Q 1316 516 , 1316 513 
L 1316 501 
L 1325 501 
L 1325 513 
Q 1325 517 , 1319 519 
Q 1312 521 , 1300 521 
Q 1288 521 , 1281 519 
Q 1275 517 , 1275 513 
L 1275 501 
" fill="#D21010" />
<path d="
M 1267 496 
L 1267 487 
L 1253 487 
L 1253 484 
L 1275 484 
L 1275 498 
Q 1270 499 , 1264 500 
Q 1259 501 , 1253 501 
Q 1240 501 , 1233 496 
Q 1225 492 , 1225 484 
Q 1225 477 , 1233 472 
Q 1240 468 , 1253 468 
Q 1259 468 , 1264 469 
Q 1269 469 , 1274 471 
L 1274 475 
Q 1267 473 , 1263 472 
Q 1259 472 , 1254 472 
Q 1244 472 , 1238 475 
Q 1233 478 , 1233 484 
Q 1233 491 , 1238 494 
Q 1244 497 , 1254 497 
Q 1259 497 , 1262 497 
Q 1266 496 , 1267 496 
" fill="lightgray" />
<path d="
M 1325 471 
L 1325 476 
Q 1318 473 , 1314 472 
Q 1309 472 , 1304 472 
Q 1294 472 , 1289 475 
Q 1283 478 , 1283 484 
Q 1283 491 , 1289 494 
Q 1294 497 , 1304 497 
Q 1309 497 , 1314 496 
Q 1318 495 , 1325 492 
L 1325 497 
Q 1320 499 , 1314 500 
Q 1310 501 , 1304 501 
Q 1290 501 , 1283 496 
Q 1275 492 , 1275 484 
Q 1275 477 , 1283 472 
Q 1290 468 , 1304 468 
Q 1310 468 , 1315 469 
Q 1320 470 , 1325 471 
" fill="#545FFF" />
<path d="
M 1380 553 
L 1362 554 
L 1396 554 
L 1380 553 
M 1373 553 
L 1387 553 
L 1430 555 
L 1414 555 
L 1402 554 
L 1358 554 
L 1345 555 
L 1330 555 
L 1373 553 
" fill="#339541" />
<path d="
M 1330 551 
L 1348 551 
L 1348 552 
Q 1348 552 , 1356 553 
Q 1363 553 , 1380 553 
Q 1397 553 , 1405 553 
Q 1412 552 , 1412 552 
L 1412 551 
L 1430 551 
L 1430 552 
Q 1430 552 , 1417 553 
Q 1405 553 , 1380 553 
Q 1356 553 , 1343 553 
Q 1330 552 , 1330 552 
L 1330 551 
" fill="#D21010" />
<path d="
M 1430 548 
L 1430 549 
Q 1415 548 , 1407 548 
Q 1399 548 , 1389 548 
Q 1368 548 , 1358 548 
Q 1346 549 , 1346 549 
Q 1346 549 , 1358 550 
Q 1368 550 , 1389 550 
Q 1399 550 , 1407 550 
Q 1415 550 , 1430 550 
L 1430 550 
Q 1419 550 , 1409 550 
Q 1399 550 , 1388 550 
Q 1361 550 , 1346 550 
Q 1330 550 , 1330 549 
Q 1330 549 , 1346 548 
Q 1361 548 , 1388 548 
Q 1399 548 , 1409 548 
Q 1420 548 , 1430 548 
" fill="#545FFF" />
<path d="
M 1414 547 
L 1414 546 
L 1385 546 
L 1385 545 
L 1430 545 
L 1430 547 
Q 1419 547 , 1408 547 
Q 1399 547 , 1387 547 
Q 1361 547 , 1345 547 
Q 1330 546 , 1330 546 
Q 1330 545 , 1345 544 
Q 1361 544 , 1387 544 
Q 1398 544 , 1407 544 
Q 1417 544 , 1427 544 
L 1427 545 
Q 1414 544 , 1406 544 
Q 1397 544 , 1388 544 
Q 1367 544 , 1356 545 
Q 1346 545 , 1346 546 
Q 1346 546 , 1356 546 
Q 1367 547 , 1388 547 
Q 1397 547 , 1404 547 
Q 1411 547 , 1414 547 
" fill="#F5C000" />
<path d="M 65 168 L 65 555 " stroke="black" stroke-width="1.5"/>
<path d="M 55 555 L 65 555 " stroke="black" stroke-width="4"/>
<text text-anchor="end" x="50" y="555" font-size="50" alignment-baseline="middle">0</text>
<path d="M 55 362 L 65 362 " stroke="black" stroke-width="4"/>
<text text-anchor="end" x="50" y="362" font-size="50" alignment-baseline="middle">1</text>
<path d="M 55 168 L 65 168 " stroke="black" stroke-width="4"/>
<text text-anchor="end" x="50" y="168" font-size="50" alignment-baseline="middle">2</text>
<text text-anchor="middle" x="750" y="50" font-size="50" alignment-baseline="baseline"></text>
G<path d="
M 160 582 
L 126 595 
L 160 608 
L 157 611 
L 123 598 
L 123 623 
L 117 623 
L 117 599 
L 83 611 
L 80 608 
L 114 595 
L 80 582 
L 83 579 
L 117 591 
L 117 567 
L 123 567 
L 123 591 
L 157 579 
L 160 582 
" fill="black" />
<path d="
" fill="black" />
<path d="
M 211 567 
L 238 567 
L 238 623 
L 211 623 
L 211 567 
" fill="black" />
<path d="
" fill="black" />
<path d="
M 370 567 
Q 341 574 , 328 581 
Q 315 588 , 315 595 
Q 315 602 , 328 609 
Q 341 616 , 370 623 
L 346 623 
Q 318 616 , 304 609 
Q 290 602 , 290 595 
Q 290 588 , 304 581 
Q 318 574 , 346 567 
L 370 567 
" fill="black" />
<path d="
" fill="black" />
<path d="
M 421 567 
L 448 567 
L 448 623 
L 421 623 
L 421 567 
" fill="black" />
<path d="
" fill="black" />
<path d="
" fill="black" />
<path d="
M 526 567 
L 553 567 
L 553 623 
L 526 623 
L 526 567 
" fill="black" />
<path d="
" fill="black" />
<path d="
" fill="black" />
<path d="
M 622 567 
L 642 567 
L 642 623 
L 622 623 
L 622 567 
" fill="black" />
<path d="
" fill="black" />
<path d="
M 682 595 
Q 679 595 , 677 599 
Q 675 602 , 675 607 
Q 675 613 , 677 616 
Q 679 619 , 682 619 
Q 685 619 , 687 616 
Q 689 613 , 689 607 
Q 689 602 , 687 599 
Q 685 595 , 682 595 
M 677 593 
Q 675 592 , 674 589 
Q 673 586 , 673 581 
Q 673 575 , 675 571 
Q 678 567 , 682 567 
Q 686 567 , 689 571 
Q 691 575 , 691 581 
Q 691 586 , 690 589 
Q 688 592 , 687 593 
Q 689 594 , 690 598 
Q 692 601 , 692 607 
Q 692 614 , 689 619 
Q 687 623 , 682 623 
Q 677 623 , 675 619 
Q 672 614 , 672 607 
Q 672 601 , 674 598 
Q 675 594 , 677 593 
M 677 573 
Q 675 576 , 675 581 
Q 675 586 , 677 589 
Q 679 592 , 682 592 
Q 685 592 , 687 589 
Q 689 586 , 689 581 
Q 689 576 , 687 574 
Q 685 571 , 682 571 
Q 679 571 , 677 573 
" fill="black" />
<path d="
M 790 582 
L 756 595 
L 790 608 
L 787 611 
L 753 598 
L 753 623 
L 747 623 
L 747 599 
L 713 611 
L 710 608 
L 744 595 
L 710 582 
L 713 579 
L 747 591 
L 747 567 
L 753 567 
L 753 591 
L 787 579 
L 790 582 
" fill="black" />
<path d="
" fill="black" />
<path d="
M 841 567 
L 868 567 
L 868 623 
L 841 623 
L 841 567 
" fill="black" />
<path d="
" fill="black" />
<path d="
" fill="black" />
<path d="
M 946 567 
L 973 567 
L 973 623 
L 946 623 
L 946 567 
" fill="black" />
<path d="
" fill="black" />
<path d="
" fill="black" />
<path d="
M 1051 567 
L 1078 567 
L 1078 623 
L 1051 623 
L 1051 567 
" fill="black" />
<path d="
" fill="black" />
<path d="
" fill="black" />
<path d="
M 1156 567 
L 1183 567 
L 1183 623 
L 1156 623 
L 1156 567 
" fill="black" />
<path d="
" fill="black" />
<path d="
M 1235 567 
L 1259 567 
Q 1287 574 , 1301 581 
Q 1315 588 , 1315 595 
Q 1315 602 , 1301 609 
Q 1287 616 , 1259 623 
L 1235 623 
Q 1264 616 , 1277 609 
Q 1290 602 , 1290 595 
Q 1290 588 , 1277 581 
Q 1264 574 , 1235 567 
" fill="black" />
<path d="
M 1420 582 
L 1386 595 
L 1420 608 
L 1417 611 
L 1383 598 
L 1383 623 
L 1377 623 
L 1377 599 
L 1343 611 
L 1340 608 
L 1374 595 
L 1340 582 
L 1343 579 
L 1377 591 
L 1377 567 
L 1383 567 
L 1383 591 
L 1417 579 
L 1420 582 
" fill="black" />
</svg>
