<svg xmlns="http://www.w3.org/2000/svg"
viewBox="0 0 910 635">
<path d="
M 120 554 
L 102 555 
L 136 555 
L 120 554 
M 113 554 
L 127 554 
L 170 555 
L 154 555 
L 142 555 
L 98 555 
L 85 555 
L 70 555 
L 113 554 
" fill="#339541" />
<path d="
M 70 552 
L 88 552 
L 88 553 
Q 88 553 , 96 553 
Q 103 553 , 120 553 
Q 137 553 , 145 553 
Q 152 553 , 152 553 
L 152 552 
L 170 552 
L 170 553 
Q 170 553 , 157 553 
Q 145 553 , 120 553 
Q 96 553 , 83 553 
Q 70 553 , 70 553 
L 70 552 
" fill="#D21010" />
<path d="
M 170 550 
L 170 550 
Q 155 550 , 147 550 
Q 139 550 , 129 550 
Q 108 550 , 98 550 
Q 86 550 , 86 550 
Q 86 551 , 98 551 
Q 108 551 , 129 551 
Q 139 551 , 147 551 
Q 155 551 , 170 551 
L 170 551 
Q 159 551 , 149 551 
Q 139 551 , 128 551 
Q 101 551 , 86 551 
Q 70 551 , 70 551 
Q 70 550 , 86 550 
Q 101 550 , 128 550 
Q 139 550 , 149 550 
Q 160 550 , 170 550 
" fill="#545FFF" />
<path d="
M 154 549 
L 154 549 
L 125 549 
L 125 549 
L 170 549 
L 170 549 
Q 159 549 , 148 549 
Q 139 549 , 127 549 
Q 101 549 , 85 549 
Q 70 549 , 70 549 
Q 70 548 , 85 548 
Q 101 548 , 127 548 
Q 138 548 , 147 548 
Q 157 548 , 167 548 
L 167 548 
Q 154 548 , 146 548 
Q 137 548 , 128 548 
Q 107 548 , 96 548 
Q 86 548 , 86 549 
Q 86 549 , 96 549 
Q 107 549 , 128 549 
Q 137 549 , 144 549 
Q 151 549 , 154 549 
" fill="#F5C000" />
<path d="
M 225 548 
L 207 552 
L 241 552 
L 225 548 
M 218 547 
L 232 547 
L 275 555 
L 259 555 
L 247 552 
L 203 552 
L 190 555 
L 175 555 
L 218 547 
" fill="#339541" />
<path d="
M 275 537 
L 275 539 
Q 260 538 , 252 537 
Q 244 537 , 234 537 
Q 213 537 , 203 538 
Q 191 539 , 191 541 
Q 191 543 , 203 544 
Q 213 545 , 234 545 
Q 244 545 , 252 545 
Q 260 545 , 275 544 
L 275 545 
Q 264 546 , 254 546 
Q 244 546 , 233 546 
Q 206 546 , 191 545 
Q 175 544 , 175 541 
Q 175 539 , 191 537 
Q 206 536 , 233 536 
Q 244 536 , 254 536 
Q 265 537 , 275 537 
" fill="#545FFF" />
<path d="
M 175 522 
L 193 522 
L 193 530 
Q 193 532 , 201 533 
Q 208 534 , 225 534 
Q 242 534 , 250 533 
Q 257 532 , 257 530 
L 257 522 
L 275 522 
L 275 530 
Q 275 533 , 262 534 
Q 250 536 , 225 536 
Q 201 536 , 188 534 
Q 175 533 , 175 530 
L 175 522 
" fill="#D21010" />
<path d="
M 259 474 
L 259 387 
L 230 387 
L 230 351 
L 275 351 
L 275 496 
Q 264 510 , 253 515 
Q 244 521 , 232 521 
Q 206 521 , 190 477 
Q 175 434 , 175 358 
Q 175 282 , 190 239 
Q 206 195 , 232 195 
Q 243 195 , 252 201 
Q 262 207 , 272 221 
L 272 263 
Q 259 245 , 251 239 
Q 242 234 , 233 234 
Q 212 234 , 201 264 
Q 191 295 , 191 358 
Q 191 422 , 201 454 
Q 212 485 , 233 485 
Q 242 485 , 249 482 
Q 256 478 , 259 474 
" fill="#F5C000" />
<path d="
M 330 552 
L 312 553 
L 346 553 
L 330 552 
M 323 551 
L 337 551 
L 380 554 
L 364 554 
L 352 553 
L 308 553 
L 295 554 
L 280 554 
L 323 551 
" fill="#339541" />
<path d="
M 364 548 
L 364 544 
L 335 544 
L 335 542 
L 380 542 
L 380 549 
Q 369 550 , 358 550 
Q 349 550 , 337 550 
Q 311 550 , 295 548 
Q 280 546 , 280 543 
Q 280 539 , 295 537 
Q 311 535 , 337 535 
Q 348 535 , 357 535 
Q 367 536 , 377 536 
L 377 538 
Q 364 537 , 356 537 
Q 347 537 , 338 537 
Q 317 537 , 306 538 
Q 296 540 , 296 543 
Q 296 546 , 306 547 
Q 317 549 , 338 549 
Q 347 549 , 354 549 
Q 361 548 , 364 548 
" fill="#F5C000" />
<path d="
M 380 500 
L 380 506 
Q 365 502 , 357 501 
Q 349 500 , 339 500 
Q 318 500 , 308 504 
Q 296 508 , 296 515 
Q 296 523 , 308 527 
Q 318 530 , 339 530 
Q 349 530 , 357 529 
Q 365 528 , 380 524 
L 380 531 
Q 369 533 , 359 534 
Q 349 534 , 338 534 
Q 311 534 , 296 529 
Q 280 524 , 280 515 
Q 280 506 , 296 501 
Q 311 496 , 338 496 
Q 349 496 , 359 497 
Q 370 498 , 380 500 
" fill="#545FFF" />
<path d="
M 280 328 
L 298 328 
L 298 427 
Q 298 454 , 306 466 
Q 313 477 , 330 477 
Q 347 477 , 355 466 
Q 362 454 , 362 427 
L 362 328 
L 380 328 
L 380 429 
Q 380 461 , 367 478 
Q 355 495 , 330 495 
Q 306 495 , 293 478 
Q 280 461 , 280 429 
L 280 328 
" fill="#D21010" />
<path d="
M 385 553 
L 403 553 
L 403 554 
Q 403 555 , 411 555 
Q 418 555 , 435 555 
Q 452 555 , 460 555 
Q 467 555 , 467 554 
L 467 553 
L 485 553 
L 485 554 
Q 485 555 , 472 555 
Q 460 555 , 435 555 
Q 411 555 , 398 555 
Q 385 555 , 385 554 
L 385 553 
" fill="#D21010" />
<path d="
M 485 549 
L 485 549 
Q 470 549 , 462 549 
Q 454 549 , 444 549 
Q 423 549 , 413 549 
Q 401 550 , 401 550 
Q 401 551 , 413 552 
Q 423 552 , 444 552 
Q 454 552 , 462 552 
Q 470 552 , 485 552 
L 485 552 
Q 474 553 , 464 553 
Q 454 553 , 443 553 
Q 416 553 , 401 552 
Q 385 552 , 385 550 
Q 385 549 , 401 549 
Q 416 548 , 443 548 
Q 454 548 , 464 548 
Q 475 548 , 485 549 
" fill="#545FFF" />
<path d="
M 435 470 
L 417 509 
L 451 509 
L 435 470 
M 428 453 
L 442 453 
L 485 547 
L 469 547 
L 457 519 
L 413 519 
L 400 547 
L 385 547 
L 428 453 
" fill="#339541" />
<path d="
M 469 439 
L 469 414 
L 440 414 
L 440 403 
L 485 403 
L 485 446 
Q 474 450 , 463 451 
Q 454 453 , 442 453 
Q 416 453 , 400 440 
Q 385 428 , 385 406 
Q 385 383 , 400 371 
Q 416 358 , 442 358 
Q 453 358 , 462 360 
Q 472 361 , 482 366 
L 482 378 
Q 469 372 , 461 371 
Q 452 369 , 443 369 
Q 422 369 , 411 378 
Q 401 387 , 401 406 
Q 401 424 , 411 433 
Q 422 442 , 443 442 
Q 452 442 , 459 441 
Q 466 440 , 469 439 
" fill="#F5C000" />
<path d="
M 490 549 
L 508 549 
L 508 552 
Q 508 553 , 516 553 
Q 523 554 , 540 554 
Q 557 554 , 565 553 
Q 572 553 , 572 552 
L 572 549 
L 590 549 
L 590 552 
Q 590 553 , 577 554 
Q 565 554 , 540 554 
Q 516 554 , 503 554 
Q 490 553 , 490 552 
L 490 549 
" fill="#D21010" />
<path d="
M 590 540 
L 590 541 
Q 575 541 , 567 540 
Q 559 540 , 549 540 
Q 528 540 , 518 541 
Q 506 542 , 506 544 
Q 506 546 , 518 546 
Q 528 547 , 549 547 
Q 559 547 , 567 547 
Q 575 547 , 590 546 
L 590 547 
Q 579 548 , 569 548 
Q 559 548 , 548 548 
Q 521 548 , 506 547 
Q 490 546 , 490 544 
Q 490 542 , 506 540 
Q 521 539 , 548 539 
Q 559 539 , 569 539 
Q 580 539 , 590 540 
" fill="#545FFF" />
<path d="
M 574 531 
L 574 518 
L 545 518 
L 545 513 
L 590 513 
L 590 534 
Q 579 536 , 568 537 
Q 559 538 , 547 538 
Q 521 538 , 505 532 
Q 490 525 , 490 514 
Q 490 503 , 505 496 
Q 521 490 , 547 490 
Q 558 490 , 567 491 
Q 577 492 , 587 494 
L 587 500 
Q 574 497 , 566 497 
Q 557 496 , 548 496 
Q 527 496 , 516 500 
Q 506 505 , 506 514 
Q 506 524 , 516 528 
Q 527 533 , 548 533 
Q 557 533 , 564 532 
Q 571 532 , 574 531 
" fill="#F5C000" />
<path d="
M 540 417 
L 522 454 
L 556 454 
L 540 417 
M 533 401 
L 547 401 
L 590 490 
L 574 490 
L 562 464 
L 518 464 
L 505 490 
L 490 490 
L 533 401 
" fill="#339541" />
<path d="
M 595 548 
L 613 548 
L 613 552 
Q 613 553 , 621 553 
Q 628 554 , 645 554 
Q 662 554 , 670 553 
Q 677 553 , 677 552 
L 677 548 
L 695 548 
L 695 552 
Q 695 553 , 682 554 
Q 670 554 , 645 554 
Q 621 554 , 608 554 
Q 595 553 , 595 552 
L 595 548 
" fill="#D21010" />
<path d="
M 695 535 
L 695 538 
Q 680 536 , 672 536 
Q 664 536 , 654 536 
Q 633 536 , 623 537 
Q 611 538 , 611 541 
Q 611 544 , 623 545 
Q 633 546 , 654 546 
Q 664 546 , 672 546 
Q 680 546 , 695 544 
L 695 546 
Q 684 547 , 674 547 
Q 664 548 , 653 548 
Q 626 548 , 611 546 
Q 595 544 , 595 541 
Q 595 538 , 611 536 
Q 626 534 , 653 534 
Q 664 534 , 674 534 
Q 685 535 , 695 535 
" fill="#545FFF" />
<path d="
M 645 518 
L 627 526 
L 661 526 
L 645 518 
M 638 515 
L 652 515 
L 695 534 
L 679 534 
L 667 528 
L 623 528 
L 610 534 
L 595 534 
L 638 515 
" fill="#339541" />
<path d="
M 679 473 
L 679 397 
L 650 397 
L 650 365 
L 695 365 
L 695 492 
Q 684 505 , 673 509 
Q 664 514 , 652 514 
Q 626 514 , 610 476 
Q 595 438 , 595 372 
Q 595 305 , 610 267 
Q 626 229 , 652 229 
Q 663 229 , 672 234 
Q 682 239 , 692 252 
L 692 289 
Q 679 272 , 671 268 
Q 662 263 , 653 263 
Q 632 263 , 621 290 
Q 611 317 , 611 372 
Q 611 428 , 621 455 
Q 632 483 , 653 483 
Q 662 483 , 669 480 
Q 676 477 , 679 473 
" fill="#F5C000" />
<path d="
M 750 547 
L 732 551 
L 766 551 
L 750 547 
M 743 546 
L 757 546 
L 800 554 
L 784 554 
L 772 552 
L 728 552 
L 715 554 
L 700 554 
L 743 546 
" fill="#339541" />
<path d="
M 784 543 
L 784 537 
L 755 537 
L 755 535 
L 800 535 
L 800 544 
Q 789 545 , 778 545 
Q 769 545 , 757 545 
Q 731 545 , 715 543 
Q 700 540 , 700 536 
Q 700 531 , 715 529 
Q 731 526 , 757 526 
Q 768 526 , 777 526 
Q 787 527 , 797 528 
L 797 530 
Q 784 529 , 776 529 
Q 767 528 , 758 528 
Q 737 528 , 726 530 
Q 716 532 , 716 536 
Q 716 539 , 726 541 
Q 737 543 , 758 543 
Q 767 543 , 774 543 
Q 781 543 , 784 543 
" fill="#F5C000" />
<path d="
M 800 508 
L 800 511 
Q 785 509 , 777 509 
Q 769 508 , 759 508 
Q 738 508 , 728 510 
Q 716 512 , 716 516 
Q 716 520 , 728 522 
Q 738 523 , 759 523 
Q 769 523 , 777 523 
Q 785 522 , 800 521 
L 800 524 
Q 789 525 , 779 525 
Q 769 526 , 758 526 
Q 731 526 , 716 523 
Q 700 520 , 700 516 
Q 700 511 , 716 509 
Q 731 506 , 758 506 
Q 769 506 , 779 506 
Q 790 507 , 800 508 
" fill="#545FFF" />
<path d="
M 700 421 
L 718 421 
L 718 471 
Q 718 484 , 726 490 
Q 733 496 , 750 496 
Q 767 496 , 775 490 
Q 782 484 , 782 471 
L 782 421 
L 800 421 
L 800 472 
Q 800 488 , 787 497 
Q 775 505 , 750 505 
Q 726 505 , 713 497 
Q 700 488 , 700 472 
L 700 421 
" fill="#D21010" />
<path d="
M 855 554 
L 837 555 
L 871 555 
L 855 554 
M 848 554 
L 862 554 
L 905 555 
L 889 555 
L 877 555 
L 833 555 
L 820 555 
L 805 555 
L 848 554 
" fill="#339541" />
<path d="
M 805 552 
L 823 552 
L 823 553 
Q 823 553 , 831 553 
Q 838 553 , 855 553 
Q 872 553 , 880 553 
Q 887 553 , 887 553 
L 887 552 
L 905 552 
L 905 553 
Q 905 553 , 892 553 
Q 880 553 , 855 553 
Q 831 553 , 818 553 
Q 805 553 , 805 553 
L 805 552 
" fill="#D21010" />
<path d="
M 905 550 
L 905 550 
Q 890 550 , 882 550 
Q 874 550 , 864 550 
Q 843 550 , 833 550 
Q 821 550 , 821 550 
Q 821 551 , 833 551 
Q 843 551 , 864 551 
Q 874 551 , 882 551 
Q 890 551 , 905 551 
L 905 551 
Q 894 551 , 884 551 
Q 874 551 , 863 551 
Q 836 551 , 821 551 
Q 805 551 , 805 551 
Q 805 550 , 821 550 
Q 836 550 , 863 550 
Q 874 550 , 884 550 
Q 895 550 , 905 550 
" fill="#545FFF" />
<path d="
M 889 549 
L 889 549 
L 860 549 
L 860 549 
L 905 549 
L 905 549 
Q 894 549 , 883 549 
Q 874 549 , 862 549 
Q 836 549 , 820 549 
Q 805 549 , 805 549 
Q 805 548 , 820 548 
Q 836 548 , 862 548 
Q 873 548 , 882 548 
Q 892 548 , 902 548 
L 902 548 
Q 889 548 , 881 548 
Q 872 548 , 863 548 
Q 842 548 , 831 548 
Q 821 548 , 821 549 
Q 821 549 , 831 549 
Q 842 549 , 863 549 
Q 872 549 , 879 549 
Q 886 549 , 889 549 
" fill="#F5C000" />
<path d="M 65 55 L 65 555 " stroke="black" stroke-width="1.5"/>
<path d="M 55 555 L 65 555 " stroke="black" stroke-width="4"/>
<text text-anchor="end" x="50" y="555" font-size="50" alignment-baseline="middle">0</text>
<path d="M 55 305 L 65 305 " stroke="black" stroke-width="4"/>
<text text-anchor="end" x="50" y="305" font-size="50" alignment-baseline="middle">1</text>
<path d="M 55 55 L 65 55 " stroke="black" stroke-width="4"/>
<text text-anchor="end" x="50" y="55" font-size="50" alignment-baseline="middle">2</text>
<text text-anchor="middle" x="487" y="50" font-size="50" alignment-baseline="baseline"></text>
G<path d="
M 160 582 
L 126 595 
L 160 608 
L 157 611 
L 123 598 
L 123 623 
L 117 623 
L 117 599 
L 83 611 
L 80 608 
L 114 595 
L 80 582 
L 83 579 
L 117 591 
L 117 567 
L 123 567 
L 123 591 
L 157 579 
L 160 582 
" fill="black" />
<path d="
" fill="black" />
<path d="
M 211 567 
L 238 567 
L 238 623 
L 211 623 
L 211 567 
" fill="black" />
<path d="
" fill="black" />
<path d="
" fill="black" />
<path d="
M 316 567 
L 343 567 
L 343 623 
L 316 623 
L 316 567 
" fill="black" />
<path d="
" fill="black" />
<path d="
" fill="black" />
<path d="
M 421 567 
L 448 567 
L 448 623 
L 421 623 
L 421 567 
" fill="black" />
<path d="
" fill="black" />
<path d="
" fill="black" />
<path d="
M 526 567 
L 553 567 
L 553 623 
L 526 623 
L 526 567 
" fill="black" />
<path d="
" fill="black" />
<path d="
" fill="black" />
<path d="
M 631 567 
L 658 567 
L 658 623 
L 631 623 
L 631 567 
" fill="black" />
<path d="
" fill="black" />
<path d="
" fill="black" />
<path d="
M 736 567 
L 763 567 
L 763 623 
L 736 623 
L 736 567 
" fill="black" />
<path d="
" fill="black" />
<path d="
M 895 582 
L 861 595 
L 895 608 
L 892 611 
L 858 598 
L 858 623 
L 852 623 
L 852 599 
L 818 611 
L 815 608 
L 849 595 
L 815 582 
L 818 579 
L 852 591 
L 852 567 
L 858 567 
L 858 591 
L 892 579 
L 895 582 
" fill="black" />
</svg>
