<svg xmlns="http://www.w3.org/2000/svg"
viewBox="0 0 1435 635">
<path d="
M 120 551 
L 102 552 
L 136 552 
L 120 551 
M 113 550 
L 127 550 
L 170 554 
L 154 554 
L 142 553 
L 98 553 
L 85 554 
L 70 554 
L 113 550 
" fill="#339541" />
<path d="
M 70 544 
L 88 544 
L 88 547 
Q 88 548 , 96 548 
Q 103 549 , 120 549 
Q 137 549 , 145 548 
Q 152 548 , 152 547 
L 152 544 
L 170 544 
L 170 547 
Q 170 548 , 157 549 
Q 145 549 , 120 549 
Q 96 549 , 83 549 
Q 70 548 , 70 547 
L 70 544 
" fill="#D21010" />
<path d="
M 170 532 
L 170 534 
Q 155 533 , 147 533 
Q 139 532 , 129 532 
Q 108 532 , 98 534 
Q 86 535 , 86 537 
Q 86 540 , 98 541 
Q 108 542 , 129 542 
Q 139 542 , 147 542 
Q 155 541 , 170 540 
L 170 542 
Q 159 543 , 149 543 
Q 139 543 , 128 543 
Q 101 543 , 86 542 
Q 70 540 , 70 537 
Q 70 534 , 86 533 
Q 101 531 , 128 531 
Q 139 531 , 149 531 
Q 160 532 , 170 532 
" fill="#545FFF" />
<path d="
M 154 528 
L 154 524 
L 125 524 
L 125 522 
L 170 522 
L 170 529 
Q 159 530 , 148 530 
Q 139 531 , 127 531 
Q 101 531 , 85 528 
Q 70 526 , 70 523 
Q 70 519 , 85 517 
Q 101 515 , 127 515 
Q 138 515 , 147 515 
Q 157 516 , 167 516 
L 167 518 
Q 154 517 , 146 517 
Q 137 517 , 128 517 
Q 107 517 , 96 518 
Q 86 520 , 86 523 
Q 86 526 , 96 527 
Q 107 529 , 128 529 
Q 137 529 , 144 529 
Q 151 529 , 154 528 
" fill="#F5C000" />
<path d="
M 225 553 
L 207 554 
L 241 554 
L 225 553 
M 218 553 
L 232 553 
L 275 554 
L 259 554 
L 247 554 
L 203 554 
L 190 554 
L 175 554 
L 218 553 
" fill="#339541" />
<path d="
M 175 541 
L 193 541 
L 193 548 
Q 193 550 , 201 550 
Q 208 551 , 225 551 
Q 242 551 , 250 550 
Q 257 550 , 257 548 
L 257 541 
L 275 541 
L 275 548 
Q 275 550 , 262 551 
Q 250 552 , 225 552 
Q 201 552 , 188 551 
Q 175 550 , 175 548 
L 175 541 
" fill="#D21010" />
<path d="
M 275 502 
L 275 508 
Q 260 504 , 252 503 
Q 244 502 , 234 502 
Q 213 502 , 203 506 
Q 191 510 , 191 518 
Q 191 527 , 203 532 
Q 213 536 , 234 536 
Q 244 536 , 252 535 
Q 260 534 , 275 529 
L 275 536 
Q 264 539 , 254 540 
Q 244 541 , 233 541 
Q 206 541 , 191 535 
Q 175 529 , 175 519 
Q 175 509 , 191 503 
Q 206 497 , 233 497 
Q 244 497 , 254 498 
Q 265 499 , 275 502 
" fill="#545FFF" />
<path d="
M 259 490 
L 259 476 
L 230 476 
L 230 471 
L 275 471 
L 275 493 
Q 264 495 , 253 496 
Q 244 497 , 232 497 
Q 206 497 , 190 490 
Q 175 484 , 175 472 
Q 175 460 , 190 454 
Q 206 447 , 232 447 
Q 243 447 , 252 448 
Q 262 449 , 272 451 
L 272 457 
Q 259 455 , 251 454 
Q 242 453 , 233 453 
Q 212 453 , 201 458 
Q 191 462 , 191 472 
Q 191 482 , 201 487 
Q 212 491 , 233 491 
Q 242 491 , 249 491 
Q 256 490 , 259 490 
" fill="#F5C000" />
<path d="
M 280 553 
L 289 553 
L 289 554 
Q 289 554 , 293 554 
Q 296 554 , 305 554 
Q 314 554 , 317 554 
Q 321 554 , 321 554 
L 321 553 
L 330 553 
L 330 554 
Q 330 554 , 324 554 
Q 317 554 , 305 554 
Q 293 554 , 286 554 
Q 280 554 , 280 554 
L 280 553 
" fill="#D21010" />
<path d="
M 372 554 
L 372 554 
L 358 554 
L 358 554 
L 380 554 
L 380 554 
Q 375 554 , 369 554 
Q 364 554 , 358 554 
Q 345 554 , 338 554 
Q 330 554 , 330 554 
Q 330 553 , 338 553 
Q 345 553 , 358 553 
Q 364 553 , 369 553 
Q 374 553 , 379 553 
L 379 553 
Q 372 553 , 368 553 
Q 364 553 , 359 553 
Q 349 553 , 343 553 
Q 338 553 , 338 554 
Q 338 554 , 343 554 
Q 349 554 , 359 554 
Q 364 554 , 367 554 
Q 371 554 , 372 554 
" fill="lightgray" />
<path d="
M 280 550 
L 289 550 
L 289 551 
Q 289 552 , 293 552 
Q 296 552 , 305 552 
Q 314 552 , 317 552 
Q 321 552 , 321 551 
L 321 550 
L 330 550 
L 330 551 
Q 330 552 , 324 552 
Q 317 552 , 305 552 
Q 293 552 , 286 552 
Q 280 552 , 280 551 
L 280 550 
" fill="#D21010" />
<path d="
M 355 550 
L 346 551 
L 363 551 
L 355 550 
M 351 550 
L 359 550 
L 380 552 
L 372 552 
L 366 551 
L 344 551 
L 337 552 
L 330 552 
L 351 550 
" fill="lightgray" />
<path d="
M 305 546 
L 296 548 
L 313 548 
L 305 546 
M 301 545 
L 309 545 
L 330 550 
L 322 550 
L 316 548 
L 294 548 
L 287 550 
L 280 550 
L 301 545 
" fill="#339541" />
<path d="
M 330 545 
L 339 545 
L 339 548 
Q 339 549 , 343 549 
Q 346 549 , 355 549 
Q 364 549 , 367 549 
Q 371 549 , 371 548 
L 371 545 
L 380 545 
L 380 548 
Q 380 549 , 374 549 
Q 367 550 , 355 550 
Q 343 550 , 336 549 
Q 330 549 , 330 548 
L 330 545 
" fill="lightgray" />
<path d="
M 322 544 
L 322 543 
L 308 543 
L 308 542 
L 330 542 
L 330 545 
Q 325 545 , 319 545 
Q 314 545 , 308 545 
Q 295 545 , 288 544 
Q 280 544 , 280 542 
Q 280 541 , 288 541 
Q 295 540 , 308 540 
Q 314 540 , 319 540 
Q 324 540 , 329 540 
L 329 541 
Q 322 541 , 318 541 
Q 314 541 , 309 541 
Q 299 541 , 293 541 
Q 288 542 , 288 542 
Q 288 543 , 293 544 
Q 299 544 , 309 544 
Q 314 544 , 317 544 
Q 321 544 , 322 544 
" fill="#F5C000" />
<path d="
M 330 540 
L 339 540 
L 339 543 
Q 339 544 , 343 544 
Q 346 544 , 355 544 
Q 364 544 , 367 544 
Q 371 544 , 371 543 
L 371 540 
L 380 540 
L 380 543 
Q 380 544 , 374 544 
Q 367 545 , 355 545 
Q 343 545 , 336 544 
Q 330 544 , 330 543 
L 330 540 
" fill="lightgray" />
<path d="
M 322 533 
L 322 519 
L 308 519 
L 308 514 
L 330 514 
L 330 536 
Q 325 538 , 319 539 
Q 314 540 , 308 540 
Q 295 540 , 288 533 
Q 280 527 , 280 515 
Q 280 503 , 288 497 
Q 295 490 , 308 490 
Q 314 490 , 319 491 
Q 324 492 , 329 494 
L 329 500 
Q 322 498 , 318 497 
Q 314 496 , 309 496 
Q 299 496 , 293 501 
Q 288 505 , 288 515 
Q 288 525 , 293 530 
Q 299 534 , 309 534 
Q 314 534 , 317 534 
Q 321 533 , 322 533 
" fill="#F5C000" />
<path d="
M 380 495 
L 380 503 
Q 373 498 , 369 497 
Q 364 496 , 359 496 
Q 349 496 , 344 500 
Q 338 505 , 338 515 
Q 338 525 , 344 530 
Q 349 535 , 359 535 
Q 364 535 , 369 533 
Q 373 532 , 380 527 
L 380 535 
Q 375 538 , 369 539 
Q 365 540 , 359 540 
Q 345 540 , 338 533 
Q 330 526 , 330 515 
Q 330 504 , 338 497 
Q 345 490 , 359 490 
Q 365 490 , 370 491 
Q 375 492 , 380 495 
" fill="lightgray" />
<path d="
M 330 260 
L 330 299 
Q 323 274 , 319 267 
Q 314 261 , 309 261 
Q 299 261 , 294 286 
Q 288 311 , 288 361 
Q 288 411 , 294 437 
Q 299 462 , 309 462 
Q 314 462 , 319 455 
Q 323 448 , 330 423 
L 330 464 
Q 325 478 , 319 484 
Q 315 490 , 309 490 
Q 295 490 , 288 455 
Q 280 420 , 280 361 
Q 280 302 , 288 267 
Q 295 232 , 309 232 
Q 315 232 , 320 238 
Q 325 245 , 330 260 
" fill="#545FFF" />
<path d="
M 372 453 
L 372 384 
L 358 384 
L 358 355 
L 380 355 
L 380 470 
Q 375 481 , 369 485 
Q 364 489 , 358 490 
Q 345 490 , 338 455 
Q 330 421 , 330 361 
Q 330 301 , 338 267 
Q 345 232 , 358 232 
Q 364 232 , 369 236 
Q 374 241 , 379 253 
L 379 286 
Q 372 271 , 368 267 
Q 364 263 , 359 263 
Q 349 263 , 343 287 
Q 338 311 , 338 361 
Q 338 412 , 343 436 
Q 349 461 , 359 461 
Q 364 461 , 367 458 
Q 371 456 , 372 453 
" fill="lightgray" />
<path d="
M 385 550 
L 403 550 
L 403 553 
Q 403 553 , 411 554 
Q 418 554 , 435 554 
Q 452 554 , 460 554 
Q 467 553 , 467 553 
L 467 550 
L 485 550 
L 485 553 
Q 485 554 , 472 554 
Q 460 555 , 435 555 
Q 411 555 , 398 554 
Q 385 554 , 385 553 
L 385 550 
" fill="#D21010" />
<path d="
M 435 544 
L 417 547 
L 451 547 
L 435 544 
M 428 543 
L 442 543 
L 485 549 
L 469 549 
L 457 547 
L 413 547 
L 400 549 
L 385 549 
L 428 543 
" fill="#339541" />
<path d="
M 485 529 
L 485 531 
Q 470 529 , 462 529 
Q 454 529 , 444 529 
Q 423 529 , 413 530 
Q 401 532 , 401 535 
Q 401 538 , 413 539 
Q 423 541 , 444 541 
Q 454 541 , 462 540 
Q 470 540 , 485 538 
L 485 541 
Q 474 542 , 464 542 
Q 454 542 , 443 542 
Q 416 542 , 401 540 
Q 385 538 , 385 535 
Q 385 531 , 401 529 
Q 416 527 , 443 527 
Q 454 527 , 464 527 
Q 475 528 , 485 529 
" fill="#545FFF" />
<path d="
M 469 490 
L 469 424 
L 440 424 
L 440 396 
L 485 396 
L 485 507 
Q 474 518 , 463 522 
Q 454 526 , 442 526 
Q 416 526 , 400 493 
Q 385 460 , 385 402 
Q 385 343 , 400 310 
Q 416 277 , 442 277 
Q 453 277 , 462 281 
Q 472 286 , 482 297 
L 482 329 
Q 469 315 , 461 311 
Q 452 307 , 443 307 
Q 422 307 , 411 330 
Q 401 353 , 401 402 
Q 401 451 , 411 475 
Q 422 498 , 443 498 
Q 452 498 , 459 496 
Q 466 493 , 469 490 
" fill="#F5C000" />
<path d="
M 490 551 
L 508 551 
L 508 553 
Q 508 554 , 516 554 
Q 523 554 , 540 554 
Q 557 554 , 565 554 
Q 572 554 , 572 553 
L 572 551 
L 590 551 
L 590 553 
Q 590 554 , 577 554 
Q 565 555 , 540 555 
Q 516 555 , 503 554 
Q 490 554 , 490 553 
L 490 551 
" fill="#D21010" />
<path d="
M 540 546 
L 522 549 
L 556 549 
L 540 546 
M 533 545 
L 547 545 
L 590 551 
L 574 551 
L 562 549 
L 518 549 
L 505 551 
L 490 551 
L 533 545 
" fill="#339541" />
<path d="
M 590 511 
L 590 517 
Q 575 513 , 567 512 
Q 559 511 , 549 511 
Q 528 511 , 518 515 
Q 506 519 , 506 526 
Q 506 533 , 518 537 
Q 528 541 , 549 541 
Q 559 541 , 567 540 
Q 575 539 , 590 535 
L 590 541 
Q 579 543 , 569 544 
Q 559 545 , 548 545 
Q 521 545 , 506 540 
Q 490 535 , 490 526 
Q 490 517 , 506 512 
Q 521 507 , 548 507 
Q 559 507 , 569 508 
Q 580 509 , 590 511 
" fill="#545FFF" />
<path d="
M 574 488 
L 574 454 
L 545 454 
L 545 440 
L 590 440 
L 590 497 
Q 579 502 , 568 504 
Q 559 507 , 547 507 
Q 521 507 , 505 490 
Q 490 473 , 490 443 
Q 490 413 , 505 396 
Q 521 379 , 547 379 
Q 558 379 , 567 381 
Q 577 384 , 587 389 
L 587 406 
Q 574 398 , 566 396 
Q 557 394 , 548 394 
Q 527 394 , 516 406 
Q 506 418 , 506 443 
Q 506 468 , 516 480 
Q 527 492 , 548 492 
Q 557 492 , 564 491 
Q 571 490 , 574 488 
" fill="#F5C000" />
<path d="
M 679 554 
L 679 552 
L 650 552 
L 650 551 
L 695 551 
L 695 554 
Q 684 554 , 673 555 
Q 664 555 , 652 555 
Q 626 555 , 610 554 
Q 595 553 , 595 551 
Q 595 549 , 610 548 
Q 626 547 , 652 547 
Q 663 547 , 672 547 
Q 682 547 , 692 548 
L 692 549 
Q 679 548 , 671 548 
Q 662 548 , 653 548 
Q 632 548 , 621 549 
Q 611 549 , 611 551 
Q 611 552 , 621 553 
Q 632 554 , 653 554 
Q 662 554 , 669 554 
Q 676 554 , 679 554 
" fill="#F5C000" />
<path d="
M 595 536 
L 613 536 
L 613 542 
Q 613 544 , 621 545 
Q 628 546 , 645 546 
Q 662 546 , 670 545 
Q 677 544 , 677 542 
L 677 536 
L 695 536 
L 695 543 
Q 695 545 , 682 546 
Q 670 547 , 645 547 
Q 621 547 , 608 546 
Q 595 545 , 595 543 
L 595 536 
" fill="#D21010" />
<path d="
M 645 524 
L 627 530 
L 661 530 
L 645 524 
M 638 521 
L 652 521 
L 695 535 
L 679 535 
L 667 531 
L 623 531 
L 610 535 
L 595 535 
L 638 521 
" fill="#339541" />
<path d="
M 695 474 
L 695 482 
Q 680 476 , 672 475 
Q 664 474 , 654 474 
Q 633 474 , 623 479 
Q 611 484 , 611 494 
Q 611 504 , 623 509 
Q 633 515 , 654 515 
Q 664 515 , 672 513 
Q 680 512 , 695 507 
L 695 515 
Q 684 518 , 674 519 
Q 664 520 , 653 520 
Q 626 520 , 611 513 
Q 595 506 , 595 494 
Q 595 482 , 611 475 
Q 626 468 , 653 468 
Q 664 468 , 674 469 
Q 685 471 , 695 474 
" fill="#545FFF" />
<path d="
M 750 551 
L 732 552 
L 766 552 
L 750 551 
M 743 550 
L 757 550 
L 800 554 
L 784 554 
L 772 553 
L 728 553 
L 715 554 
L 700 554 
L 743 550 
" fill="#339541" />
<path d="
M 700 544 
L 718 544 
L 718 547 
Q 718 548 , 726 548 
Q 733 549 , 750 549 
Q 767 549 , 775 548 
Q 782 548 , 782 547 
L 782 544 
L 800 544 
L 800 547 
Q 800 548 , 787 549 
Q 775 549 , 750 549 
Q 726 549 , 713 549 
Q 700 548 , 700 547 
L 700 544 
" fill="#D21010" />
<path d="
M 800 532 
L 800 534 
Q 785 533 , 777 533 
Q 769 532 , 759 532 
Q 738 532 , 728 534 
Q 716 535 , 716 537 
Q 716 540 , 728 541 
Q 738 542 , 759 542 
Q 769 542 , 777 542 
Q 785 541 , 800 540 
L 800 542 
Q 789 543 , 779 543 
Q 769 543 , 758 543 
Q 731 543 , 716 542 
Q 700 540 , 700 537 
Q 700 534 , 716 533 
Q 731 531 , 758 531 
Q 769 531 , 779 531 
Q 790 532 , 800 532 
" fill="#545FFF" />
<path d="
M 784 528 
L 784 524 
L 755 524 
L 755 522 
L 800 522 
L 800 529 
Q 789 530 , 778 530 
Q 769 531 , 757 531 
Q 731 531 , 715 528 
Q 700 526 , 700 523 
Q 700 519 , 715 517 
Q 731 515 , 757 515 
Q 768 515 , 777 515 
Q 787 516 , 797 516 
L 797 518 
Q 784 517 , 776 517 
Q 767 517 , 758 517 
Q 737 517 , 726 518 
Q 716 520 , 716 523 
Q 716 526 , 726 527 
Q 737 529 , 758 529 
Q 767 529 , 774 529 
Q 781 529 , 784 528 
" fill="#F5C000" />
<path d="
M 805 553 
L 814 553 
L 814 554 
Q 814 554 , 818 554 
Q 821 554 , 830 554 
Q 839 554 , 842 554 
Q 846 554 , 846 554 
L 846 553 
L 855 553 
L 855 554 
Q 855 554 , 849 554 
Q 842 554 , 830 554 
Q 818 554 , 811 554 
Q 805 554 , 805 554 
L 805 553 
" fill="lightgray" />
<path d="
M 897 554 
L 897 554 
L 883 554 
L 883 554 
L 905 554 
L 905 554 
Q 900 554 , 894 554 
Q 889 554 , 883 554 
Q 870 554 , 863 554 
Q 855 554 , 855 554 
Q 855 553 , 863 553 
Q 870 553 , 883 553 
Q 889 553 , 894 553 
Q 899 553 , 904 553 
L 904 553 
Q 897 553 , 893 553 
Q 889 553 , 884 553 
Q 874 553 , 868 553 
Q 863 553 , 863 554 
Q 863 554 , 868 554 
Q 874 554 , 884 554 
Q 889 554 , 892 554 
Q 896 554 , 897 554 
" fill="#F5C000" />
<path d="
M 805 550 
L 814 550 
L 814 551 
Q 814 552 , 818 552 
Q 821 552 , 830 552 
Q 839 552 , 842 552 
Q 846 552 , 846 551 
L 846 550 
L 855 550 
L 855 551 
Q 855 552 , 849 552 
Q 842 552 , 830 552 
Q 818 552 , 811 552 
Q 805 552 , 805 551 
L 805 550 
" fill="lightgray" />
<path d="
M 880 550 
L 871 551 
L 888 551 
L 880 550 
M 876 550 
L 884 550 
L 905 552 
L 897 552 
L 891 551 
L 869 551 
L 862 552 
L 855 552 
L 876 550 
" fill="#339541" />
<path d="
M 830 546 
L 821 548 
L 838 548 
L 830 546 
M 826 545 
L 834 545 
L 855 550 
L 847 550 
L 841 548 
L 819 548 
L 812 550 
L 805 550 
L 826 545 
" fill="lightgray" />
<path d="
M 855 545 
L 864 545 
L 864 548 
Q 864 549 , 868 549 
Q 871 549 , 880 549 
Q 889 549 , 892 549 
Q 896 549 , 896 548 
L 896 545 
L 905 545 
L 905 548 
Q 905 549 , 899 549 
Q 892 550 , 880 550 
Q 868 550 , 861 549 
Q 855 549 , 855 548 
L 855 545 
" fill="#D21010" />
<path d="
M 847 544 
L 847 543 
L 833 543 
L 833 542 
L 855 542 
L 855 545 
Q 850 545 , 844 545 
Q 839 545 , 833 545 
Q 820 545 , 813 544 
Q 805 544 , 805 542 
Q 805 541 , 813 541 
Q 820 540 , 833 540 
Q 839 540 , 844 540 
Q 849 540 , 854 540 
L 854 541 
Q 847 541 , 843 541 
Q 839 541 , 834 541 
Q 824 541 , 818 541 
Q 813 542 , 813 542 
Q 813 543 , 818 544 
Q 824 544 , 834 544 
Q 839 544 , 842 544 
Q 846 544 , 847 544 
" fill="lightgray" />
<path d="
M 855 540 
L 864 540 
L 864 543 
Q 864 544 , 868 544 
Q 871 544 , 880 544 
Q 889 544 , 892 544 
Q 896 544 , 896 543 
L 896 540 
L 905 540 
L 905 543 
Q 905 544 , 899 544 
Q 892 545 , 880 545 
Q 868 545 , 861 544 
Q 855 544 , 855 543 
L 855 540 
" fill="#D21010" />
<path d="
M 847 533 
L 847 519 
L 833 519 
L 833 514 
L 855 514 
L 855 536 
Q 850 538 , 844 539 
Q 839 540 , 833 540 
Q 820 540 , 813 533 
Q 805 527 , 805 515 
Q 805 503 , 813 497 
Q 820 490 , 833 490 
Q 839 490 , 844 491 
Q 849 492 , 854 494 
L 854 500 
Q 847 498 , 843 497 
Q 839 496 , 834 496 
Q 824 496 , 818 501 
Q 813 505 , 813 515 
Q 813 525 , 818 530 
Q 824 534 , 834 534 
Q 839 534 , 842 534 
Q 846 533 , 847 533 
" fill="lightgray" />
<path d="
M 905 495 
L 905 503 
Q 898 498 , 894 497 
Q 889 496 , 884 496 
Q 874 496 , 869 500 
Q 863 505 , 863 515 
Q 863 525 , 869 530 
Q 874 535 , 884 535 
Q 889 535 , 894 533 
Q 898 532 , 905 527 
L 905 535 
Q 900 538 , 894 539 
Q 890 540 , 884 540 
Q 870 540 , 863 533 
Q 855 526 , 855 515 
Q 855 504 , 863 497 
Q 870 490 , 884 490 
Q 890 490 , 895 491 
Q 900 492 , 905 495 
" fill="#545FFF" />
<path d="
M 855 260 
L 855 299 
Q 848 274 , 844 267 
Q 839 261 , 834 261 
Q 824 261 , 819 286 
Q 813 311 , 813 361 
Q 813 411 , 819 437 
Q 824 462 , 834 462 
Q 839 462 , 844 455 
Q 848 448 , 855 423 
L 855 464 
Q 850 478 , 844 484 
Q 840 490 , 834 490 
Q 820 490 , 813 455 
Q 805 420 , 805 361 
Q 805 302 , 813 267 
Q 820 232 , 834 232 
Q 840 232 , 845 238 
Q 850 245 , 855 260 
" fill="lightgray" />
<path d="
M 897 453 
L 897 384 
L 883 384 
L 883 355 
L 905 355 
L 905 470 
Q 900 481 , 894 485 
Q 889 489 , 883 490 
Q 870 490 , 863 455 
Q 855 421 , 855 361 
Q 855 301 , 863 267 
Q 870 232 , 883 232 
Q 889 232 , 894 236 
Q 899 241 , 904 253 
L 904 286 
Q 897 271 , 893 267 
Q 889 263 , 884 263 
Q 874 263 , 868 287 
Q 863 311 , 863 361 
Q 863 412 , 868 436 
Q 874 461 , 884 461 
Q 889 461 , 892 458 
Q 896 456 , 897 453 
" fill="#F5C000" />
<path d="
M 960 553 
L 942 554 
L 976 554 
L 960 553 
M 953 553 
L 967 553 
L 1010 554 
L 994 554 
L 982 554 
L 938 554 
L 925 554 
L 910 554 
L 953 553 
" fill="#339541" />
<path d="
M 910 545 
L 928 545 
L 928 549 
Q 928 551 , 936 551 
Q 943 552 , 960 552 
Q 977 552 , 985 551 
Q 992 551 , 992 549 
L 992 545 
L 1010 545 
L 1010 550 
Q 1010 551 , 997 552 
Q 985 552 , 960 552 
Q 936 552 , 923 552 
Q 910 551 , 910 550 
L 910 545 
" fill="#D21010" />
<path d="
M 994 540 
L 994 531 
L 965 531 
L 965 528 
L 1010 528 
L 1010 542 
Q 999 543 , 988 544 
Q 979 544 , 967 544 
Q 941 544 , 925 540 
Q 910 536 , 910 529 
Q 910 521 , 925 517 
Q 941 513 , 967 513 
Q 978 513 , 987 514 
Q 997 514 , 1007 516 
L 1007 519 
Q 994 518 , 986 517 
Q 977 517 , 968 517 
Q 947 517 , 936 520 
Q 926 523 , 926 529 
Q 926 535 , 936 538 
Q 947 541 , 968 541 
Q 977 541 , 984 540 
Q 991 540 , 994 540 
" fill="#F5C000" />
<path d="
M 1010 345 
L 1010 374 
Q 995 355 , 987 351 
Q 979 346 , 969 346 
Q 948 346 , 938 364 
Q 926 383 , 926 419 
Q 926 455 , 938 474 
Q 948 493 , 969 493 
Q 979 493 , 987 488 
Q 995 483 , 1010 464 
L 1010 494 
Q 999 504 , 989 509 
Q 979 513 , 968 513 
Q 941 513 , 926 487 
Q 910 462 , 910 419 
Q 910 376 , 926 351 
Q 941 325 , 968 325 
Q 979 325 , 989 330 
Q 1000 334 , 1010 345 
" fill="#545FFF" />
<path d="
M 1065 553 
L 1047 554 
L 1081 554 
L 1065 553 
M 1058 553 
L 1072 553 
L 1115 555 
L 1099 555 
L 1087 554 
L 1043 554 
L 1030 555 
L 1015 555 
L 1058 553 
" fill="#339541" />
<path d="
M 1015 540 
L 1033 540 
L 1033 548 
Q 1033 550 , 1041 550 
Q 1048 551 , 1065 551 
Q 1082 551 , 1090 550 
Q 1097 550 , 1097 548 
L 1097 540 
L 1115 540 
L 1115 548 
Q 1115 550 , 1102 551 
Q 1090 553 , 1065 553 
Q 1041 553 , 1028 551 
Q 1015 550 , 1015 548 
L 1015 540 
" fill="#D21010" />
<path d="
M 1115 510 
L 1115 515 
Q 1100 512 , 1092 511 
Q 1084 511 , 1074 511 
Q 1053 511 , 1043 514 
Q 1031 517 , 1031 523 
Q 1031 529 , 1043 533 
Q 1053 536 , 1074 536 
Q 1084 536 , 1092 535 
Q 1100 534 , 1115 531 
L 1115 536 
Q 1104 538 , 1094 538 
Q 1084 539 , 1073 539 
Q 1046 539 , 1031 535 
Q 1015 531 , 1015 523 
Q 1015 516 , 1031 511 
Q 1046 507 , 1073 507 
Q 1084 507 , 1094 508 
Q 1105 509 , 1115 510 
" fill="#545FFF" />
<path d="
M 1099 499 
L 1099 485 
L 1070 485 
L 1070 479 
L 1115 479 
L 1115 503 
Q 1104 505 , 1093 506 
Q 1084 507 , 1072 507 
Q 1046 507 , 1030 500 
Q 1015 493 , 1015 480 
Q 1015 468 , 1030 461 
Q 1046 454 , 1072 454 
Q 1083 454 , 1092 455 
Q 1102 456 , 1112 458 
L 1112 465 
Q 1099 462 , 1091 461 
Q 1082 460 , 1073 460 
Q 1052 460 , 1041 465 
Q 1031 470 , 1031 480 
Q 1031 491 , 1041 496 
Q 1052 501 , 1073 501 
Q 1082 501 , 1089 500 
Q 1096 500 , 1099 499 
" fill="#F5C000" />
<path d="
M 1170 548 
L 1152 552 
L 1186 552 
L 1170 548 
M 1163 547 
L 1177 547 
L 1220 555 
L 1204 555 
L 1192 553 
L 1148 553 
L 1135 555 
L 1120 555 
L 1163 547 
" fill="#339541" />
<path d="
M 1120 539 
L 1138 539 
L 1138 544 
Q 1138 545 , 1146 545 
Q 1153 546 , 1170 546 
Q 1187 546 , 1195 545 
Q 1202 545 , 1202 544 
L 1202 539 
L 1220 539 
L 1220 544 
Q 1220 545 , 1207 546 
Q 1195 547 , 1170 547 
Q 1146 547 , 1133 546 
Q 1120 545 , 1120 544 
L 1120 539 
" fill="#D21010" />
<path d="
M 1220 530 
L 1220 531 
Q 1205 531 , 1197 530 
Q 1189 530 , 1179 530 
Q 1158 530 , 1148 531 
Q 1136 532 , 1136 534 
Q 1136 536 , 1148 536 
Q 1158 537 , 1179 537 
Q 1189 537 , 1197 537 
Q 1205 537 , 1220 536 
L 1220 537 
Q 1209 538 , 1199 538 
Q 1189 538 , 1178 538 
Q 1151 538 , 1136 537 
Q 1120 536 , 1120 534 
Q 1120 532 , 1136 530 
Q 1151 529 , 1178 529 
Q 1189 529 , 1199 529 
Q 1210 529 , 1220 530 
" fill="#545FFF" />
<path d="
M 1204 493 
L 1204 427 
L 1175 427 
L 1175 400 
L 1220 400 
L 1220 510 
Q 1209 521 , 1198 525 
Q 1189 529 , 1177 529 
Q 1151 529 , 1135 496 
Q 1120 463 , 1120 405 
Q 1120 347 , 1135 314 
Q 1151 281 , 1177 281 
Q 1188 281 , 1197 285 
Q 1207 290 , 1217 301 
L 1217 333 
Q 1204 319 , 1196 315 
Q 1187 311 , 1178 311 
Q 1157 311 , 1146 334 
Q 1136 357 , 1136 405 
Q 1136 454 , 1146 478 
Q 1157 501 , 1178 501 
Q 1187 501 , 1194 499 
Q 1201 496 , 1204 493 
" fill="#F5C000" />
<path d="
M 1225 551 
L 1243 551 
L 1243 553 
Q 1243 554 , 1251 554 
Q 1258 554 , 1275 554 
Q 1292 554 , 1300 554 
Q 1307 554 , 1307 553 
L 1307 551 
L 1325 551 
L 1325 553 
Q 1325 554 , 1312 554 
Q 1300 555 , 1275 555 
Q 1251 555 , 1238 554 
Q 1225 554 , 1225 553 
L 1225 551 
" fill="#D21010" />
<path d="
M 1275 539 
L 1257 544 
L 1291 544 
L 1275 539 
M 1268 536 
L 1282 536 
L 1325 550 
L 1309 550 
L 1297 546 
L 1253 546 
L 1240 550 
L 1225 550 
L 1268 536 
" fill="#339541" />
<path d="
M 1309 533 
L 1309 527 
L 1280 527 
L 1280 525 
L 1325 525 
L 1325 534 
Q 1314 535 , 1303 536 
Q 1294 536 , 1282 536 
Q 1256 536 , 1240 533 
Q 1225 530 , 1225 525 
Q 1225 520 , 1240 517 
Q 1256 514 , 1282 514 
Q 1293 514 , 1302 514 
Q 1312 515 , 1322 516 
L 1322 519 
Q 1309 517 , 1301 517 
Q 1292 517 , 1283 517 
Q 1262 517 , 1251 519 
Q 1241 521 , 1241 525 
Q 1241 529 , 1251 531 
Q 1262 534 , 1283 534 
Q 1292 534 , 1299 533 
Q 1306 533 , 1309 533 
" fill="#F5C000" />
<path d="
M 1325 452 
L 1325 463 
Q 1310 456 , 1302 454 
Q 1294 453 , 1284 453 
Q 1263 453 , 1253 459 
Q 1241 466 , 1241 479 
Q 1241 492 , 1253 499 
Q 1263 506 , 1284 506 
Q 1294 506 , 1302 504 
Q 1310 502 , 1325 496 
L 1325 506 
Q 1314 510 , 1304 512 
Q 1294 513 , 1283 513 
Q 1256 513 , 1241 504 
Q 1225 495 , 1225 479 
Q 1225 464 , 1241 454 
Q 1256 445 , 1283 445 
Q 1294 445 , 1304 447 
Q 1315 448 , 1325 452 
" fill="#545FFF" />
<path d="
M 1380 551 
L 1362 552 
L 1396 552 
L 1380 551 
M 1373 550 
L 1387 550 
L 1430 554 
L 1414 554 
L 1402 553 
L 1358 553 
L 1345 554 
L 1330 554 
L 1373 550 
" fill="#339541" />
<path d="
M 1330 544 
L 1348 544 
L 1348 547 
Q 1348 548 , 1356 548 
Q 1363 549 , 1380 549 
Q 1397 549 , 1405 548 
Q 1412 548 , 1412 547 
L 1412 544 
L 1430 544 
L 1430 547 
Q 1430 548 , 1417 549 
Q 1405 549 , 1380 549 
Q 1356 549 , 1343 549 
Q 1330 548 , 1330 547 
L 1330 544 
" fill="#D21010" />
<path d="
M 1430 532 
L 1430 534 
Q 1415 533 , 1407 533 
Q 1399 532 , 1389 532 
Q 1368 532 , 1358 534 
Q 1346 535 , 1346 537 
Q 1346 540 , 1358 541 
Q 1368 542 , 1389 542 
Q 1399 542 , 1407 542 
Q 1415 541 , 1430 540 
L 1430 542 
Q 1419 543 , 1409 543 
Q 1399 543 , 1388 543 
Q 1361 543 , 1346 542 
Q 1330 540 , 1330 537 
Q 1330 534 , 1346 533 
Q 1361 531 , 1388 531 
Q 1399 531 , 1409 531 
Q 1420 532 , 1430 532 
" fill="#545FFF" />
<path d="
M 1414 528 
L 1414 524 
L 1385 524 
L 1385 522 
L 1430 522 
L 1430 529 
Q 1419 530 , 1408 530 
Q 1399 531 , 1387 531 
Q 1361 531 , 1345 528 
Q 1330 526 , 1330 523 
Q 1330 519 , 1345 517 
Q 1361 515 , 1387 515 
Q 1398 515 , 1407 515 
Q 1417 516 , 1427 516 
L 1427 518 
Q 1414 517 , 1406 517 
Q 1397 517 , 1388 517 
Q 1367 517 , 1356 518 
Q 1346 520 , 1346 523 
Q 1346 526 , 1356 527 
Q 1367 529 , 1388 529 
Q 1397 529 , 1404 529 
Q 1411 529 , 1414 528 
" fill="#F5C000" />
<path d="M 65 168 L 65 555 " stroke="black" stroke-width="1.5"/>
<path d="M 55 555 L 65 555 " stroke="black" stroke-width="4"/>
<text text-anchor="end" x="50" y="555" font-size="50" alignment-baseline="middle">0</text>
<path d="M 55 362 L 65 362 " stroke="black" stroke-width="4"/>
<text text-anchor="end" x="50" y="362" font-size="50" alignment-baseline="middle">1</text>
<path d="M 55 168 L 65 168 " stroke="black" stroke-width="4"/>
<text text-anchor="end" x="50" y="168" font-size="50" alignment-baseline="middle">2</text>
<text text-anchor="middle" x="750" y="50" font-size="50" alignment-baseline="baseline"></text>
G<path d="
M 160 582 
L 126 595 
L 160 608 
L 157 611 
L 123 598 
L 123 623 
L 117 623 
L 117 599 
L 83 611 
L 80 608 
L 114 595 
L 80 582 
L 83 579 
L 117 591 
L 117 567 
L 123 567 
L 123 591 
L 157 579 
L 160 582 
" fill="black" />
<path d="
" fill="black" />
<path d="
M 211 567 
L 238 567 
L 238 623 
L 211 623 
L 211 567 
" fill="black" />
<path d="
" fill="black" />
<path d="
M 370 567 
Q 341 574 , 328 581 
Q 315 588 , 315 595 
Q 315 602 , 328 609 
Q 341 616 , 370 623 
L 346 623 
Q 318 616 , 304 609 
Q 290 602 , 290 595 
Q 290 588 , 304 581 
Q 318 574 , 346 567 
L 370 567 
" fill="black" />
<path d="
" fill="black" />
<path d="
M 421 567 
L 448 567 
L 448 623 
L 421 623 
L 421 567 
" fill="black" />
<path d="
" fill="black" />
<path d="
" fill="black" />
<path d="
M 526 567 
L 553 567 
L 553 623 
L 526 623 
L 526 567 
" fill="black" />
<path d="
" fill="black" />
<path d="
" fill="black" />
<path d="
M 622 567 
L 642 567 
L 642 623 
L 622 623 
L 622 567 
" fill="black" />
<path d="
" fill="black" />
<path d="
M 673 567 
L 690 567 
L 690 571 
L 676 571 
L 676 588 
Q 677 588 , 678 587 
Q 679 587 , 681 587 
Q 686 587 , 689 592 
Q 692 596 , 692 604 
Q 692 613 , 689 618 
Q 686 623 , 680 623 
Q 678 623 , 676 623 
Q 674 622 , 672 621 
L 672 616 
Q 674 618 , 676 618 
Q 678 619 , 680 619 
Q 684 619 , 686 615 
Q 689 611 , 689 604 
Q 689 598 , 687 594 
Q 684 591 , 680 591 
Q 679 591 , 677 591 
Q 676 592 , 673 594 
L 673 567 
" fill="black" />
<path d="
M 790 582 
L 756 595 
L 790 608 
L 787 611 
L 753 598 
L 753 623 
L 747 623 
L 747 599 
L 713 611 
L 710 608 
L 744 595 
L 710 582 
L 713 579 
L 747 591 
L 747 567 
L 753 567 
L 753 591 
L 787 579 
L 790 582 
" fill="black" />
<path d="
M 815 567 
L 839 567 
Q 867 574 , 881 581 
Q 895 588 , 895 595 
Q 895 602 , 881 609 
Q 867 616 , 839 623 
L 815 623 
Q 844 616 , 857 609 
Q 870 602 , 870 595 
Q 870 588 , 857 581 
Q 844 574 , 815 567 
" fill="black" />
<path d="
" fill="black" />
<path d="
M 946 567 
L 973 567 
L 973 623 
L 946 623 
L 946 567 
" fill="black" />
<path d="
" fill="black" />
<path d="
" fill="black" />
<path d="
M 1051 567 
L 1078 567 
L 1078 623 
L 1051 623 
L 1051 567 
" fill="black" />
<path d="
" fill="black" />
<path d="
" fill="black" />
<path d="
M 1156 567 
L 1183 567 
L 1183 623 
L 1156 623 
L 1156 567 
" fill="black" />
<path d="
" fill="black" />
<path d="
" fill="black" />
<path d="
M 1261 567 
L 1288 567 
L 1288 623 
L 1261 623 
L 1261 567 
" fill="black" />
<path d="
" fill="black" />
<path d="
M 1420 582 
L 1386 595 
L 1420 608 
L 1417 611 
L 1383 598 
L 1383 623 
L 1377 623 
L 1377 599 
L 1343 611 
L 1340 608 
L 1374 595 
L 1340 582 
L 1343 579 
L 1377 591 
L 1377 567 
L 1383 567 
L 1383 591 
L 1417 579 
L 1420 582 
" fill="black" />
</svg>
