<svg xmlns="http://www.w3.org/2000/svg"
viewBox="0 0 1435 635">
<path d="
M 120 551 
L 102 552 
L 136 552 
L 120 551 
M 113 550 
L 127 550 
L 170 554 
L 154 554 
L 142 553 
L 98 553 
L 85 554 
L 70 554 
L 113 550 
" fill="#339541" />
<path d="
M 70 544 
L 88 544 
L 88 547 
Q 88 548 , 96 548 
Q 103 549 , 120 549 
Q 137 549 , 145 548 
Q 152 548 , 152 547 
L 152 544 
L 170 544 
L 170 547 
Q 170 548 , 157 549 
Q 145 549 , 120 549 
Q 96 549 , 83 549 
Q 70 548 , 70 547 
L 70 544 
" fill="#D21010" />
<path d="
M 170 532 
L 170 534 
Q 155 533 , 147 533 
Q 139 532 , 129 532 
Q 108 532 , 98 534 
Q 86 535 , 86 537 
Q 86 540 , 98 541 
Q 108 542 , 129 542 
Q 139 542 , 147 542 
Q 155 542 , 170 540 
L 170 542 
Q 159 543 , 149 543 
Q 139 544 , 128 544 
Q 101 544 , 86 542 
Q 70 540 , 70 537 
Q 70 534 , 86 533 
Q 101 531 , 128 531 
Q 139 531 , 149 531 
Q 160 532 , 170 532 
" fill="#545FFF" />
<path d="
M 154 528 
L 154 524 
L 125 524 
L 125 522 
L 170 522 
L 170 529 
Q 159 530 , 148 530 
Q 139 531 , 127 531 
Q 101 531 , 85 529 
Q 70 527 , 70 523 
Q 70 519 , 85 517 
Q 101 515 , 127 515 
Q 138 515 , 147 515 
Q 157 516 , 167 516 
L 167 518 
Q 154 517 , 146 517 
Q 137 517 , 128 517 
Q 107 517 , 96 518 
Q 86 520 , 86 523 
Q 86 526 , 96 527 
Q 107 529 , 128 529 
Q 137 529 , 144 529 
Q 151 529 , 154 528 
" fill="#F5C000" />
<path d="
M 225 550 
L 207 552 
L 241 552 
L 225 550 
M 218 549 
L 232 549 
L 275 554 
L 259 554 
L 247 553 
L 203 553 
L 190 554 
L 175 554 
L 218 549 
" fill="#339541" />
<path d="
M 175 541 
L 193 541 
L 193 545 
Q 193 547 , 201 547 
Q 208 548 , 225 548 
Q 242 548 , 250 547 
Q 257 547 , 257 545 
L 257 541 
L 275 541 
L 275 545 
Q 275 547 , 262 548 
Q 250 548 , 225 548 
Q 201 548 , 188 548 
Q 175 547 , 175 545 
L 175 541 
" fill="#D21010" />
<path d="
M 259 538 
L 259 534 
L 230 534 
L 230 532 
L 275 532 
L 275 539 
Q 264 540 , 253 540 
Q 244 540 , 232 540 
Q 206 540 , 190 538 
Q 175 536 , 175 533 
Q 175 529 , 190 527 
Q 206 525 , 232 525 
Q 243 525 , 252 525 
Q 262 526 , 272 526 
L 272 528 
Q 259 527 , 251 527 
Q 242 527 , 233 527 
Q 212 527 , 201 528 
Q 191 530 , 191 533 
Q 191 536 , 201 537 
Q 212 539 , 233 539 
Q 242 539 , 249 538 
Q 256 538 , 259 538 
" fill="#F5C000" />
<path d="
M 275 499 
L 275 503 
Q 260 501 , 252 500 
Q 244 499 , 234 499 
Q 213 499 , 203 502 
Q 191 505 , 191 510 
Q 191 516 , 203 519 
Q 213 522 , 234 522 
Q 244 522 , 252 521 
Q 260 520 , 275 517 
L 275 522 
Q 264 523 , 254 524 
Q 244 525 , 233 525 
Q 206 525 , 191 521 
Q 175 517 , 175 510 
Q 175 504 , 191 500 
Q 206 496 , 233 496 
Q 244 496 , 254 497 
Q 265 497 , 275 499 
" fill="#545FFF" />
<path d="
M 330 550 
L 312 552 
L 346 552 
L 330 550 
M 323 549 
L 337 549 
L 380 554 
L 364 554 
L 352 553 
L 308 553 
L 295 554 
L 280 554 
L 323 549 
" fill="#339541" />
<path d="
M 280 538 
L 298 538 
L 298 544 
Q 298 546 , 306 547 
Q 313 547 , 330 547 
Q 347 547 , 355 547 
Q 362 546 , 362 544 
L 362 538 
L 380 538 
L 380 544 
Q 380 546 , 367 548 
Q 355 549 , 330 549 
Q 306 549 , 293 548 
Q 280 546 , 280 544 
L 280 538 
" fill="#D21010" />
<path d="
M 380 514 
L 380 518 
Q 365 515 , 357 515 
Q 349 514 , 339 514 
Q 318 514 , 308 517 
Q 296 519 , 296 524 
Q 296 530 , 308 532 
Q 318 535 , 339 535 
Q 349 535 , 357 534 
Q 365 534 , 380 531 
L 380 535 
Q 369 537 , 359 537 
Q 349 538 , 338 538 
Q 311 538 , 296 534 
Q 280 531 , 280 524 
Q 280 518 , 296 515 
Q 311 511 , 338 511 
Q 349 511 , 359 512 
Q 370 512 , 380 514 
" fill="#545FFF" />
<path d="
M 364 497 
L 364 471 
L 335 471 
L 335 461 
L 380 461 
L 380 503 
Q 369 507 , 358 509 
Q 349 510 , 337 510 
Q 311 510 , 295 498 
Q 280 485 , 280 463 
Q 280 440 , 295 428 
Q 311 415 , 337 415 
Q 348 415 , 357 417 
Q 367 418 , 377 423 
L 377 435 
Q 364 430 , 356 428 
Q 347 426 , 338 426 
Q 317 426 , 306 435 
Q 296 444 , 296 463 
Q 296 482 , 306 491 
Q 317 500 , 338 500 
Q 347 500 , 354 499 
Q 361 498 , 364 497 
" fill="#F5C000" />
<path d="
M 385 553 
L 403 553 
L 403 554 
Q 403 554 , 411 554 
Q 418 554 , 435 554 
Q 452 554 , 460 554 
Q 467 554 , 467 554 
L 467 553 
L 485 553 
L 485 554 
Q 485 554 , 472 554 
Q 460 555 , 435 555 
Q 411 555 , 398 554 
Q 385 554 , 385 554 
L 385 553 
" fill="#D21010" />
<path d="
M 435 551 
L 417 552 
L 451 552 
L 435 551 
M 428 551 
L 442 551 
L 485 553 
L 469 553 
L 457 552 
L 413 552 
L 400 553 
L 385 553 
L 428 551 
" fill="#339541" />
<path d="
M 485 494 
L 485 504 
Q 470 497 , 462 496 
Q 454 494 , 444 494 
Q 423 494 , 413 500 
Q 401 507 , 401 519 
Q 401 531 , 413 538 
Q 423 544 , 444 544 
Q 454 544 , 462 542 
Q 470 541 , 485 534 
L 485 544 
Q 474 548 , 464 549 
Q 454 551 , 443 551 
Q 416 551 , 401 542 
Q 385 534 , 385 519 
Q 385 504 , 401 496 
Q 416 487 , 443 487 
Q 454 487 , 464 489 
Q 475 490 , 485 494 
" fill="#545FFF" />
<path d="
M 469 471 
L 469 440 
L 440 440 
L 440 428 
L 485 428 
L 485 478 
Q 474 483 , 463 485 
Q 454 487 , 442 487 
Q 416 487 , 400 472 
Q 385 457 , 385 430 
Q 385 404 , 400 389 
Q 416 374 , 442 374 
Q 453 374 , 462 376 
Q 472 378 , 482 383 
L 482 398 
Q 469 391 , 461 389 
Q 452 387 , 443 387 
Q 422 387 , 411 398 
Q 401 409 , 401 430 
Q 401 453 , 411 464 
Q 422 474 , 443 474 
Q 452 474 , 459 473 
Q 466 472 , 469 471 
" fill="#F5C000" />
<path d="
M 490 554 
L 499 554 
L 499 554 
Q 499 554 , 503 554 
Q 506 554 , 515 554 
Q 524 554 , 527 554 
Q 531 554 , 531 554 
L 531 554 
L 540 554 
L 540 554 
Q 540 554 , 534 555 
Q 527 555 , 515 555 
Q 503 555 , 496 555 
Q 490 554 , 490 554 
L 490 554 
" fill="#D21010" />
<path d="
M 582 554 
L 582 554 
L 568 554 
L 568 554 
L 590 554 
L 590 555 
Q 585 555 , 579 555 
Q 574 555 , 568 555 
Q 555 555 , 548 554 
Q 540 554 , 540 554 
Q 540 554 , 548 554 
Q 555 554 , 568 554 
Q 574 554 , 579 554 
Q 584 554 , 589 554 
L 589 554 
Q 582 554 , 578 554 
Q 574 554 , 569 554 
Q 559 554 , 553 554 
Q 548 554 , 548 554 
Q 548 554 , 553 554 
Q 559 554 , 569 554 
Q 574 554 , 577 554 
Q 581 554 , 582 554 
" fill="lightgray" />
<path d="
M 532 553 
L 532 553 
L 518 553 
L 518 553 
L 540 553 
L 540 554 
Q 535 554 , 529 554 
Q 524 554 , 518 554 
Q 505 554 , 498 553 
Q 490 553 , 490 553 
Q 490 553 , 498 553 
Q 505 553 , 518 553 
Q 524 553 , 529 553 
Q 534 553 , 539 553 
L 539 553 
Q 532 553 , 528 553 
Q 524 553 , 519 553 
Q 509 553 , 503 553 
Q 498 553 , 498 553 
Q 498 553 , 503 553 
Q 509 554 , 519 554 
Q 524 554 , 527 553 
Q 531 553 , 532 553 
" fill="#F5C000" />
<path d="
M 540 553 
L 549 553 
L 549 553 
Q 549 553 , 553 553 
Q 556 553 , 565 553 
Q 574 553 , 577 553 
Q 581 553 , 581 553 
L 581 553 
L 590 553 
L 590 553 
Q 590 553 , 584 554 
Q 577 554 , 565 554 
Q 553 554 , 546 554 
Q 540 553 , 540 553 
L 540 553 
" fill="lightgray" />
<path d="
M 515 551 
L 506 552 
L 523 552 
L 515 551 
M 511 551 
L 519 551 
L 540 553 
L 532 553 
L 526 552 
L 504 552 
L 497 553 
L 490 553 
L 511 551 
" fill="#339541" />
<path d="
M 540 551 
L 549 551 
L 549 552 
Q 549 552 , 553 552 
Q 556 552 , 565 552 
Q 574 552 , 577 552 
Q 581 552 , 581 552 
L 581 551 
L 590 551 
L 590 552 
Q 590 552 , 584 552 
Q 577 553 , 565 553 
Q 553 553 , 546 552 
Q 540 552 , 540 552 
L 540 551 
" fill="lightgray" />
<path d="
M 532 547 
L 532 542 
L 518 542 
L 518 539 
L 540 539 
L 540 549 
Q 535 550 , 529 550 
Q 524 550 , 518 550 
Q 505 550 , 498 548 
Q 490 545 , 490 540 
Q 490 535 , 498 532 
Q 505 529 , 518 529 
Q 524 529 , 529 529 
Q 534 530 , 539 531 
L 539 533 
Q 532 532 , 528 532 
Q 524 532 , 519 532 
Q 509 532 , 503 534 
Q 498 536 , 498 540 
Q 498 544 , 503 546 
Q 509 548 , 519 548 
Q 524 548 , 527 548 
Q 531 548 , 532 547 
" fill="#F5C000" />
<path d="
M 590 531 
L 590 535 
Q 583 532 , 579 532 
Q 574 531 , 569 531 
Q 559 531 , 554 533 
Q 548 536 , 548 540 
Q 548 544 , 554 546 
Q 559 548 , 569 548 
Q 574 548 , 579 548 
Q 583 547 , 590 545 
L 590 548 
Q 585 549 , 579 550 
Q 575 550 , 569 550 
Q 555 550 , 548 548 
Q 540 545 , 540 540 
Q 540 535 , 548 532 
Q 555 529 , 569 529 
Q 575 529 , 580 530 
Q 585 530 , 590 531 
" fill="lightgray" />
<path d="
M 490 505 
L 499 505 
L 499 519 
Q 499 523 , 503 524 
Q 506 526 , 515 526 
Q 524 526 , 527 524 
Q 531 523 , 531 519 
L 531 505 
L 540 505 
L 540 519 
Q 540 524 , 534 526 
Q 527 529 , 515 529 
Q 503 529 , 496 526 
Q 490 524 , 490 519 
L 490 505 
" fill="#D21010" />
<path d="
M 565 509 
L 556 519 
L 573 519 
L 565 509 
M 561 505 
L 569 505 
L 590 529 
L 582 529 
L 576 522 
L 554 522 
L 547 529 
L 540 529 
L 561 505 
" fill="lightgray" />
<path d="
M 540 231 
L 540 278 
Q 533 247 , 529 240 
Q 524 232 , 519 232 
Q 509 232 , 504 262 
Q 498 292 , 498 351 
Q 498 411 , 504 442 
Q 509 472 , 519 472 
Q 524 472 , 529 464 
Q 533 456 , 540 425 
L 540 474 
Q 535 491 , 529 498 
Q 525 505 , 519 505 
Q 505 505 , 498 463 
Q 490 422 , 490 352 
Q 490 281 , 498 240 
Q 505 198 , 519 198 
Q 525 198 , 530 206 
Q 535 213 , 540 231 
" fill="#545FFF" />
<path d="
M 582 461 
L 582 379 
L 568 379 
L 568 345 
L 590 345 
L 590 481 
Q 585 494 , 579 499 
Q 574 504 , 568 505 
Q 555 505 , 548 464 
Q 540 423 , 540 352 
Q 540 280 , 548 239 
Q 555 198 , 568 198 
Q 574 198 , 579 203 
Q 584 209 , 589 223 
L 589 262 
Q 582 245 , 578 240 
Q 574 235 , 569 235 
Q 559 235 , 553 263 
Q 548 292 , 548 352 
Q 548 412 , 553 441 
Q 559 471 , 569 471 
Q 574 471 , 577 468 
Q 581 465 , 582 461 
" fill="lightgray" />
<path d="
M 645 549 
L 627 552 
L 661 552 
L 645 549 
M 638 548 
L 652 548 
L 695 554 
L 679 554 
L 667 552 
L 623 552 
L 610 554 
L 595 554 
L 638 548 
" fill="#339541" />
<path d="
M 595 539 
L 613 539 
L 613 544 
Q 613 545 , 621 546 
Q 628 546 , 645 546 
Q 662 546 , 670 546 
Q 677 545 , 677 544 
L 677 539 
L 695 539 
L 695 544 
Q 695 546 , 682 546 
Q 670 547 , 645 547 
Q 621 547 , 608 546 
Q 595 546 , 595 544 
L 595 539 
" fill="#D21010" />
<path d="
M 695 527 
L 695 529 
Q 680 528 , 672 528 
Q 664 527 , 654 527 
Q 633 527 , 623 529 
Q 611 530 , 611 532 
Q 611 534 , 623 536 
Q 633 537 , 654 537 
Q 664 537 , 672 537 
Q 680 536 , 695 535 
L 695 537 
Q 684 538 , 674 538 
Q 664 538 , 653 538 
Q 626 538 , 611 537 
Q 595 535 , 595 532 
Q 595 529 , 611 528 
Q 626 526 , 653 526 
Q 664 526 , 674 526 
Q 685 527 , 695 527 
" fill="#545FFF" />
<path d="
M 679 491 
L 679 426 
L 650 426 
L 650 399 
L 695 399 
L 695 507 
Q 684 517 , 673 521 
Q 664 525 , 652 525 
Q 626 525 , 610 493 
Q 595 461 , 595 405 
Q 595 348 , 610 316 
Q 626 284 , 652 284 
Q 663 284 , 672 288 
Q 682 293 , 692 304 
L 692 334 
Q 679 321 , 671 317 
Q 662 313 , 653 313 
Q 632 313 , 621 335 
Q 611 358 , 611 405 
Q 611 452 , 621 475 
Q 632 498 , 653 498 
Q 662 498 , 669 496 
Q 676 494 , 679 491 
" fill="#F5C000" />
<path d="
M 750 551 
L 732 552 
L 766 552 
L 750 551 
M 743 550 
L 757 550 
L 800 554 
L 784 554 
L 772 553 
L 728 553 
L 715 554 
L 700 554 
L 743 550 
" fill="#339541" />
<path d="
M 700 544 
L 718 544 
L 718 547 
Q 718 548 , 726 548 
Q 733 549 , 750 549 
Q 767 549 , 775 548 
Q 782 548 , 782 547 
L 782 544 
L 800 544 
L 800 547 
Q 800 548 , 787 549 
Q 775 549 , 750 549 
Q 726 549 , 713 549 
Q 700 548 , 700 547 
L 700 544 
" fill="#D21010" />
<path d="
M 800 532 
L 800 534 
Q 785 533 , 777 533 
Q 769 532 , 759 532 
Q 738 532 , 728 534 
Q 716 535 , 716 537 
Q 716 540 , 728 541 
Q 738 542 , 759 542 
Q 769 542 , 777 542 
Q 785 542 , 800 540 
L 800 542 
Q 789 543 , 779 543 
Q 769 544 , 758 544 
Q 731 544 , 716 542 
Q 700 540 , 700 537 
Q 700 534 , 716 533 
Q 731 531 , 758 531 
Q 769 531 , 779 531 
Q 790 532 , 800 532 
" fill="#545FFF" />
<path d="
M 784 528 
L 784 524 
L 755 524 
L 755 522 
L 800 522 
L 800 529 
Q 789 530 , 778 530 
Q 769 531 , 757 531 
Q 731 531 , 715 529 
Q 700 527 , 700 523 
Q 700 519 , 715 517 
Q 731 515 , 757 515 
Q 768 515 , 777 515 
Q 787 516 , 797 516 
L 797 518 
Q 784 517 , 776 517 
Q 767 517 , 758 517 
Q 737 517 , 726 518 
Q 716 520 , 716 523 
Q 716 526 , 726 527 
Q 737 529 , 758 529 
Q 767 529 , 774 529 
Q 781 529 , 784 528 
" fill="#F5C000" />
<path d="
M 855 552 
L 837 553 
L 871 553 
L 855 552 
M 848 552 
L 862 552 
L 905 554 
L 889 554 
L 877 554 
L 833 554 
L 820 554 
L 805 554 
L 848 552 
" fill="#339541" />
<path d="
M 805 544 
L 823 544 
L 823 549 
Q 823 550 , 831 550 
Q 838 551 , 855 551 
Q 872 551 , 880 550 
Q 887 550 , 887 549 
L 887 544 
L 905 544 
L 905 549 
Q 905 550 , 892 551 
Q 880 552 , 855 552 
Q 831 552 , 818 551 
Q 805 550 , 805 549 
L 805 544 
" fill="#D21010" />
<path d="
M 905 516 
L 905 521 
Q 890 518 , 882 517 
Q 874 516 , 864 516 
Q 843 516 , 833 519 
Q 821 522 , 821 528 
Q 821 534 , 833 537 
Q 843 540 , 864 540 
Q 874 540 , 882 539 
Q 890 538 , 905 535 
L 905 540 
Q 894 542 , 884 543 
Q 874 543 , 863 543 
Q 836 543 , 821 539 
Q 805 535 , 805 528 
Q 805 521 , 821 517 
Q 836 513 , 863 513 
Q 874 513 , 884 514 
Q 895 514 , 905 516 
" fill="#545FFF" />
<path d="
M 889 487 
L 889 439 
L 860 439 
L 860 420 
L 905 420 
L 905 499 
Q 894 506 , 883 509 
Q 874 512 , 862 512 
Q 836 512 , 820 488 
Q 805 465 , 805 424 
Q 805 382 , 820 359 
Q 836 335 , 862 335 
Q 873 335 , 882 338 
Q 892 341 , 902 349 
L 902 372 
Q 889 362 , 881 359 
Q 872 356 , 863 356 
Q 842 356 , 831 373 
Q 821 389 , 821 424 
Q 821 459 , 831 476 
Q 842 493 , 863 493 
Q 872 493 , 879 491 
Q 886 489 , 889 487 
" fill="#F5C000" />
<path d="
M 910 547 
L 928 547 
L 928 551 
Q 928 552 , 936 553 
Q 943 553 , 960 553 
Q 977 553 , 985 553 
Q 992 552 , 992 551 
L 992 547 
L 1010 547 
L 1010 551 
Q 1010 553 , 997 554 
Q 985 554 , 960 554 
Q 936 554 , 923 554 
Q 910 553 , 910 551 
L 910 547 
" fill="#D21010" />
<path d="
M 960 538 
L 942 542 
L 976 542 
L 960 538 
M 953 536 
L 967 536 
L 1010 546 
L 994 546 
L 982 543 
L 938 543 
L 925 546 
L 910 546 
L 953 536 
" fill="#339541" />
<path d="
M 994 533 
L 994 528 
L 965 528 
L 965 526 
L 1010 526 
L 1010 534 
Q 999 534 , 988 535 
Q 979 535 , 967 535 
Q 941 535 , 925 533 
Q 910 530 , 910 527 
Q 910 523 , 925 520 
Q 941 518 , 967 518 
Q 978 518 , 987 518 
Q 997 519 , 1007 519 
L 1007 522 
Q 994 521 , 986 520 
Q 977 520 , 968 520 
Q 947 520 , 936 522 
Q 926 523 , 926 527 
Q 926 530 , 936 532 
Q 947 533 , 968 533 
Q 977 533 , 984 533 
Q 991 533 , 994 533 
" fill="#F5C000" />
<path d="
M 1010 352 
L 1010 380 
Q 995 362 , 987 357 
Q 979 353 , 969 353 
Q 948 353 , 938 371 
Q 926 389 , 926 425 
Q 926 461 , 938 480 
Q 948 498 , 969 498 
Q 979 498 , 987 493 
Q 995 488 , 1010 470 
L 1010 499 
Q 999 509 , 989 514 
Q 979 518 , 968 518 
Q 941 518 , 926 493 
Q 910 468 , 910 425 
Q 910 382 , 926 357 
Q 941 332 , 968 332 
Q 979 332 , 989 337 
Q 1000 341 , 1010 352 
" fill="#545FFF" />
<path d="
M 1065 552 
L 1047 553 
L 1081 553 
L 1065 552 
M 1058 552 
L 1072 552 
L 1115 554 
L 1099 554 
L 1087 554 
L 1043 554 
L 1030 554 
L 1015 554 
L 1058 552 
" fill="#339541" />
<path d="
M 1015 539 
L 1033 539 
L 1033 546 
Q 1033 548 , 1041 549 
Q 1048 550 , 1065 550 
Q 1082 550 , 1090 549 
Q 1097 548 , 1097 546 
L 1097 539 
L 1115 539 
L 1115 546 
Q 1115 549 , 1102 550 
Q 1090 551 , 1065 551 
Q 1041 551 , 1028 550 
Q 1015 549 , 1015 546 
L 1015 539 
" fill="#D21010" />
<path d="
M 1115 527 
L 1115 529 
Q 1100 528 , 1092 528 
Q 1084 527 , 1074 527 
Q 1053 527 , 1043 529 
Q 1031 530 , 1031 532 
Q 1031 535 , 1043 536 
Q 1053 537 , 1074 537 
Q 1084 537 , 1092 537 
Q 1100 536 , 1115 535 
L 1115 537 
Q 1104 538 , 1094 538 
Q 1084 538 , 1073 538 
Q 1046 538 , 1031 537 
Q 1015 535 , 1015 532 
Q 1015 529 , 1031 528 
Q 1046 526 , 1073 526 
Q 1084 526 , 1094 526 
Q 1105 527 , 1115 527 
" fill="#545FFF" />
<path d="
M 1099 522 
L 1099 517 
L 1070 517 
L 1070 515 
L 1115 515 
L 1115 524 
Q 1104 524 , 1093 525 
Q 1084 525 , 1072 525 
Q 1046 525 , 1030 522 
Q 1015 520 , 1015 515 
Q 1015 510 , 1030 508 
Q 1046 505 , 1072 505 
Q 1083 505 , 1092 505 
Q 1102 506 , 1112 507 
L 1112 509 
Q 1099 508 , 1091 508 
Q 1082 507 , 1073 507 
Q 1052 507 , 1041 509 
Q 1031 511 , 1031 515 
Q 1031 519 , 1041 521 
Q 1052 523 , 1073 523 
Q 1082 523 , 1089 523 
Q 1096 522 , 1099 522 
" fill="#F5C000" />
<path d="
M 1120 554 
L 1129 554 
L 1129 554 
Q 1129 554 , 1133 554 
Q 1136 554 , 1145 554 
Q 1154 554 , 1157 554 
Q 1161 554 , 1161 554 
L 1161 554 
L 1170 554 
L 1170 554 
Q 1170 554 , 1164 555 
Q 1157 555 , 1145 555 
Q 1133 555 , 1126 555 
Q 1120 554 , 1120 554 
L 1120 554 
" fill="lightgray" />
<path d="
M 1212 554 
L 1212 554 
L 1198 554 
L 1198 554 
L 1220 554 
L 1220 555 
Q 1215 555 , 1209 555 
Q 1204 555 , 1198 555 
Q 1185 555 , 1178 554 
Q 1170 554 , 1170 554 
Q 1170 554 , 1178 554 
Q 1185 554 , 1198 554 
Q 1204 554 , 1209 554 
Q 1214 554 , 1219 554 
L 1219 554 
Q 1212 554 , 1208 554 
Q 1204 554 , 1199 554 
Q 1189 554 , 1183 554 
Q 1178 554 , 1178 554 
Q 1178 554 , 1183 554 
Q 1189 554 , 1199 554 
Q 1204 554 , 1207 554 
Q 1211 554 , 1212 554 
" fill="#F5C000" />
<path d="
M 1162 553 
L 1162 553 
L 1148 553 
L 1148 553 
L 1170 553 
L 1170 554 
Q 1165 554 , 1159 554 
Q 1154 554 , 1148 554 
Q 1135 554 , 1128 553 
Q 1120 553 , 1120 553 
Q 1120 553 , 1128 553 
Q 1135 553 , 1148 553 
Q 1154 553 , 1159 553 
Q 1164 553 , 1169 553 
L 1169 553 
Q 1162 553 , 1158 553 
Q 1154 553 , 1149 553 
Q 1139 553 , 1133 553 
Q 1128 553 , 1128 553 
Q 1128 553 , 1133 553 
Q 1139 554 , 1149 554 
Q 1154 554 , 1157 553 
Q 1161 553 , 1162 553 
" fill="lightgray" />
<path d="
M 1170 553 
L 1179 553 
L 1179 553 
Q 1179 553 , 1183 553 
Q 1186 553 , 1195 553 
Q 1204 553 , 1207 553 
Q 1211 553 , 1211 553 
L 1211 553 
L 1220 553 
L 1220 553 
Q 1220 553 , 1214 554 
Q 1207 554 , 1195 554 
Q 1183 554 , 1176 554 
Q 1170 553 , 1170 553 
L 1170 553 
" fill="#D21010" />
<path d="
M 1145 551 
L 1136 552 
L 1153 552 
L 1145 551 
M 1141 551 
L 1149 551 
L 1170 553 
L 1162 553 
L 1156 552 
L 1134 552 
L 1127 553 
L 1120 553 
L 1141 551 
" fill="lightgray" />
<path d="
M 1170 551 
L 1179 551 
L 1179 552 
Q 1179 552 , 1183 552 
Q 1186 552 , 1195 552 
Q 1204 552 , 1207 552 
Q 1211 552 , 1211 552 
L 1211 551 
L 1220 551 
L 1220 552 
Q 1220 552 , 1214 552 
Q 1207 553 , 1195 553 
Q 1183 553 , 1176 552 
Q 1170 552 , 1170 552 
L 1170 551 
" fill="#D21010" />
<path d="
M 1162 547 
L 1162 542 
L 1148 542 
L 1148 539 
L 1170 539 
L 1170 549 
Q 1165 550 , 1159 550 
Q 1154 550 , 1148 550 
Q 1135 550 , 1128 548 
Q 1120 545 , 1120 540 
Q 1120 535 , 1128 532 
Q 1135 529 , 1148 529 
Q 1154 529 , 1159 529 
Q 1164 530 , 1169 531 
L 1169 533 
Q 1162 532 , 1158 532 
Q 1154 532 , 1149 532 
Q 1139 532 , 1133 534 
Q 1128 536 , 1128 540 
Q 1128 544 , 1133 546 
Q 1139 548 , 1149 548 
Q 1154 548 , 1157 548 
Q 1161 548 , 1162 547 
" fill="lightgray" />
<path d="
M 1220 531 
L 1220 535 
Q 1213 532 , 1209 532 
Q 1204 531 , 1199 531 
Q 1189 531 , 1184 533 
Q 1178 536 , 1178 540 
Q 1178 544 , 1184 546 
Q 1189 548 , 1199 548 
Q 1204 548 , 1209 548 
Q 1213 547 , 1220 545 
L 1220 548 
Q 1215 549 , 1209 550 
Q 1205 550 , 1199 550 
Q 1185 550 , 1178 548 
Q 1170 545 , 1170 540 
Q 1170 535 , 1178 532 
Q 1185 529 , 1199 529 
Q 1205 529 , 1210 530 
Q 1215 530 , 1220 531 
" fill="#545FFF" />
<path d="
M 1120 505 
L 1129 505 
L 1129 519 
Q 1129 523 , 1133 524 
Q 1136 526 , 1145 526 
Q 1154 526 , 1157 524 
Q 1161 523 , 1161 519 
L 1161 505 
L 1170 505 
L 1170 519 
Q 1170 524 , 1164 526 
Q 1157 529 , 1145 529 
Q 1133 529 , 1126 526 
Q 1120 524 , 1120 519 
L 1120 505 
" fill="lightgray" />
<path d="
M 1195 509 
L 1186 519 
L 1203 519 
L 1195 509 
M 1191 505 
L 1199 505 
L 1220 529 
L 1212 529 
L 1206 522 
L 1184 522 
L 1177 529 
L 1170 529 
L 1191 505 
" fill="#339541" />
<path d="
M 1170 231 
L 1170 278 
Q 1163 247 , 1159 240 
Q 1154 232 , 1149 232 
Q 1139 232 , 1134 262 
Q 1128 292 , 1128 351 
Q 1128 411 , 1134 442 
Q 1139 472 , 1149 472 
Q 1154 472 , 1159 464 
Q 1163 456 , 1170 425 
L 1170 474 
Q 1165 491 , 1159 498 
Q 1155 505 , 1149 505 
Q 1135 505 , 1128 463 
Q 1120 422 , 1120 352 
Q 1120 281 , 1128 240 
Q 1135 198 , 1149 198 
Q 1155 198 , 1160 206 
Q 1165 213 , 1170 231 
" fill="lightgray" />
<path d="
M 1212 461 
L 1212 379 
L 1198 379 
L 1198 345 
L 1220 345 
L 1220 481 
Q 1215 494 , 1209 499 
Q 1204 504 , 1198 505 
Q 1185 505 , 1178 464 
Q 1170 423 , 1170 352 
Q 1170 280 , 1178 239 
Q 1185 198 , 1198 198 
Q 1204 198 , 1209 203 
Q 1214 209 , 1219 223 
L 1219 262 
Q 1212 245 , 1208 240 
Q 1204 235 , 1199 235 
Q 1189 235 , 1183 263 
Q 1178 292 , 1178 352 
Q 1178 412 , 1183 441 
Q 1189 471 , 1199 471 
Q 1204 471 , 1207 468 
Q 1211 465 , 1212 461 
" fill="#F5C000" />
<path d="
M 1275 552 
L 1257 553 
L 1291 553 
L 1275 552 
M 1268 552 
L 1282 552 
L 1325 554 
L 1309 554 
L 1297 554 
L 1253 554 
L 1240 554 
L 1225 554 
L 1268 552 
" fill="#339541" />
<path d="
M 1225 547 
L 1243 547 
L 1243 550 
Q 1243 550 , 1251 551 
Q 1258 551 , 1275 551 
Q 1292 551 , 1300 551 
Q 1307 550 , 1307 550 
L 1307 547 
L 1325 547 
L 1325 550 
Q 1325 550 , 1312 551 
Q 1300 551 , 1275 551 
Q 1251 551 , 1238 551 
Q 1225 550 , 1225 550 
L 1225 547 
" fill="#D21010" />
<path d="
M 1309 541 
L 1309 530 
L 1280 530 
L 1280 526 
L 1325 526 
L 1325 544 
Q 1314 545 , 1303 546 
Q 1294 547 , 1282 547 
Q 1256 547 , 1240 541 
Q 1225 536 , 1225 526 
Q 1225 517 , 1240 511 
Q 1256 506 , 1282 506 
Q 1293 506 , 1302 507 
Q 1312 507 , 1322 509 
L 1322 515 
Q 1309 512 , 1301 512 
Q 1292 511 , 1283 511 
Q 1262 511 , 1251 515 
Q 1241 519 , 1241 526 
Q 1241 535 , 1251 538 
Q 1262 542 , 1283 542 
Q 1292 542 , 1299 542 
Q 1306 542 , 1309 541 
" fill="#F5C000" />
<path d="
M 1325 369 
L 1325 393 
Q 1310 378 , 1302 374 
Q 1294 370 , 1284 370 
Q 1263 370 , 1253 385 
Q 1241 400 , 1241 429 
Q 1241 459 , 1253 474 
Q 1263 489 , 1284 489 
Q 1294 489 , 1302 486 
Q 1310 481 , 1325 466 
L 1325 490 
Q 1314 499 , 1304 502 
Q 1294 506 , 1283 506 
Q 1256 506 , 1241 485 
Q 1225 465 , 1225 430 
Q 1225 394 , 1241 374 
Q 1256 353 , 1283 353 
Q 1294 353 , 1304 357 
Q 1315 360 , 1325 369 
" fill="#545FFF" />
<path d="
M 1380 551 
L 1362 552 
L 1396 552 
L 1380 551 
M 1373 550 
L 1387 550 
L 1430 554 
L 1414 554 
L 1402 553 
L 1358 553 
L 1345 554 
L 1330 554 
L 1373 550 
" fill="#339541" />
<path d="
M 1330 544 
L 1348 544 
L 1348 547 
Q 1348 548 , 1356 548 
Q 1363 549 , 1380 549 
Q 1397 549 , 1405 548 
Q 1412 548 , 1412 547 
L 1412 544 
L 1430 544 
L 1430 547 
Q 1430 548 , 1417 549 
Q 1405 549 , 1380 549 
Q 1356 549 , 1343 549 
Q 1330 548 , 1330 547 
L 1330 544 
" fill="#D21010" />
<path d="
M 1430 532 
L 1430 534 
Q 1415 533 , 1407 533 
Q 1399 532 , 1389 532 
Q 1368 532 , 1358 534 
Q 1346 535 , 1346 537 
Q 1346 540 , 1358 541 
Q 1368 542 , 1389 542 
Q 1399 542 , 1407 542 
Q 1415 542 , 1430 540 
L 1430 542 
Q 1419 543 , 1409 543 
Q 1399 544 , 1388 544 
Q 1361 544 , 1346 542 
Q 1330 540 , 1330 537 
Q 1330 534 , 1346 533 
Q 1361 531 , 1388 531 
Q 1399 531 , 1409 531 
Q 1420 532 , 1430 532 
" fill="#545FFF" />
<path d="
M 1414 528 
L 1414 524 
L 1385 524 
L 1385 522 
L 1430 522 
L 1430 529 
Q 1419 530 , 1408 530 
Q 1399 531 , 1387 531 
Q 1361 531 , 1345 529 
Q 1330 527 , 1330 523 
Q 1330 519 , 1345 517 
Q 1361 515 , 1387 515 
Q 1398 515 , 1407 515 
Q 1417 516 , 1427 516 
L 1427 518 
Q 1414 517 , 1406 517 
Q 1397 517 , 1388 517 
Q 1367 517 , 1356 518 
Q 1346 520 , 1346 523 
Q 1346 526 , 1356 527 
Q 1367 529 , 1388 529 
Q 1397 529 , 1404 529 
Q 1411 529 , 1414 528 
" fill="#F5C000" />
<path d="M 65 168 L 65 555 " stroke="black" stroke-width="1.5"/>
<path d="M 55 555 L 65 555 " stroke="black" stroke-width="4"/>
<text text-anchor="end" x="50" y="555" font-size="50" alignment-baseline="middle">0</text>
<path d="M 55 362 L 65 362 " stroke="black" stroke-width="4"/>
<text text-anchor="end" x="50" y="362" font-size="50" alignment-baseline="middle">1</text>
<path d="M 55 168 L 65 168 " stroke="black" stroke-width="4"/>
<text text-anchor="end" x="50" y="168" font-size="50" alignment-baseline="middle">2</text>
<text text-anchor="middle" x="750" y="50" font-size="50" alignment-baseline="baseline"></text>
G<path d="
M 160 582 
L 126 595 
L 160 608 
L 157 611 
L 123 598 
L 123 623 
L 117 623 
L 117 599 
L 83 611 
L 80 608 
L 114 595 
L 80 582 
L 83 579 
L 117 591 
L 117 567 
L 123 567 
L 123 591 
L 157 579 
L 160 582 
" fill="black" />
<path d="
" fill="black" />
<path d="
M 211 567 
L 238 567 
L 238 623 
L 211 623 
L 211 567 
" fill="black" />
<path d="
" fill="black" />
<path d="
" fill="black" />
<path d="
M 316 567 
L 343 567 
L 343 623 
L 316 623 
L 316 567 
" fill="black" />
<path d="
" fill="black" />
<path d="
" fill="black" />
<path d="
M 421 567 
L 448 567 
L 448 623 
L 421 623 
L 421 567 
" fill="black" />
<path d="
" fill="black" />
<path d="
M 580 567 
Q 551 574 , 538 581 
Q 525 588 , 525 595 
Q 525 602 , 538 609 
Q 551 616 , 580 623 
L 556 623 
Q 528 616 , 514 609 
Q 500 602 , 500 595 
Q 500 588 , 514 581 
Q 528 574 , 556 567 
L 580 567 
" fill="black" />
<path d="
" fill="black" />
<path d="
M 622 567 
L 642 567 
L 642 623 
L 622 623 
L 622 567 
" fill="black" />
<path d="
" fill="black" />
<path d="
M 672 567 
L 692 567 
L 692 571 
L 680 623 
L 677 623 
L 689 571 
L 672 571 
L 672 567 
" fill="black" />
<path d="
M 790 582 
L 756 595 
L 790 608 
L 787 611 
L 753 598 
L 753 623 
L 747 623 
L 747 599 
L 713 611 
L 710 608 
L 744 595 
L 710 582 
L 713 579 
L 747 591 
L 747 567 
L 753 567 
L 753 591 
L 787 579 
L 790 582 
" fill="black" />
<path d="
" fill="black" />
<path d="
M 841 567 
L 868 567 
L 868 623 
L 841 623 
L 841 567 
" fill="black" />
<path d="
" fill="black" />
<path d="
" fill="black" />
<path d="
M 946 567 
L 973 567 
L 973 623 
L 946 623 
L 946 567 
" fill="black" />
<path d="
" fill="black" />
<path d="
" fill="black" />
<path d="
M 1051 567 
L 1078 567 
L 1078 623 
L 1051 623 
L 1051 567 
" fill="black" />
<path d="
" fill="black" />
<path d="
M 1130 567 
L 1154 567 
Q 1182 574 , 1196 581 
Q 1210 588 , 1210 595 
Q 1210 602 , 1196 609 
Q 1182 616 , 1154 623 
L 1130 623 
Q 1159 616 , 1172 609 
Q 1185 602 , 1185 595 
Q 1185 588 , 1172 581 
Q 1159 574 , 1130 567 
" fill="black" />
<path d="
" fill="black" />
<path d="
M 1261 567 
L 1288 567 
L 1288 623 
L 1261 623 
L 1261 567 
" fill="black" />
<path d="
" fill="black" />
<path d="
M 1420 582 
L 1386 595 
L 1420 608 
L 1417 611 
L 1383 598 
L 1383 623 
L 1377 623 
L 1377 599 
L 1343 611 
L 1340 608 
L 1374 595 
L 1340 582 
L 1343 579 
L 1377 591 
L 1377 567 
L 1383 567 
L 1383 591 
L 1417 579 
L 1420 582 
" fill="black" />
</svg>
