<svg xmlns="http://www.w3.org/2000/svg"
viewBox="0 0 1330 635">
<path d="
M 170 554 
L 170 554 
Q 155 554 , 147 554 
Q 139 554 , 129 554 
Q 108 554 , 98 554 
Q 86 554 , 86 554 
Q 86 554 , 98 554 
Q 108 554 , 129 554 
Q 139 554 , 147 554 
Q 155 554 , 170 554 
L 170 554 
Q 159 554 , 149 554 
Q 139 554 , 128 554 
Q 101 554 , 86 554 
Q 70 554 , 70 554 
Q 70 554 , 86 554 
Q 101 554 , 128 554 
Q 139 554 , 149 554 
Q 160 554 , 170 554 
" fill="#545FFF" />
<path d="
M 120 553 
L 102 553 
L 136 553 
L 120 553 
M 113 553 
L 127 553 
L 170 553 
L 154 553 
L 142 553 
L 98 553 
L 85 553 
L 70 553 
L 113 553 
" fill="#339541" />
<path d="
M 154 552 
L 154 552 
L 125 552 
L 125 552 
L 170 552 
L 170 552 
Q 159 552 , 148 552 
Q 139 552 , 127 552 
Q 101 552 , 85 552 
Q 70 552 , 70 552 
Q 70 552 , 85 552 
Q 101 552 , 127 552 
Q 138 552 , 147 552 
Q 157 552 , 167 552 
L 167 552 
Q 154 552 , 146 552 
Q 137 552 , 128 552 
Q 107 552 , 96 552 
Q 86 552 , 86 552 
Q 86 552 , 96 552 
Q 107 552 , 128 552 
Q 137 552 , 144 552 
Q 151 552 , 154 552 
" fill="#F5C000" />
<path d="
M 70 551 
L 88 551 
L 88 551 
Q 88 551 , 96 551 
Q 103 551 , 120 551 
Q 137 551 , 145 551 
Q 152 551 , 152 551 
L 152 551 
L 170 551 
L 170 551 
Q 170 551 , 157 551 
Q 145 551 , 120 551 
Q 96 551 , 83 551 
Q 70 551 , 70 551 
L 70 551 
" fill="#D21010" />
<path d="
M 175 545 
L 193 545 
L 193 551 
Q 193 552 , 201 553 
Q 208 554 , 225 554 
Q 242 554 , 250 553 
Q 257 552 , 257 551 
L 257 545 
L 275 545 
L 275 551 
Q 275 553 , 262 554 
Q 250 555 , 225 555 
Q 201 555 , 188 554 
Q 175 553 , 175 551 
L 175 545 
" fill="#D21010" />
<path d="
M 275 530 
L 275 532 
Q 260 531 , 252 530 
Q 244 530 , 234 530 
Q 213 530 , 203 531 
Q 191 533 , 191 536 
Q 191 539 , 203 541 
Q 213 543 , 234 543 
Q 244 543 , 252 542 
Q 260 542 , 275 540 
L 275 543 
Q 264 544 , 254 544 
Q 244 544 , 233 544 
Q 206 544 , 191 542 
Q 175 540 , 175 536 
Q 175 532 , 191 530 
Q 206 528 , 233 528 
Q 244 528 , 254 528 
Q 265 529 , 275 530 
" fill="#545FFF" />
<path d="
M 225 510 
L 207 519 
L 241 519 
L 225 510 
M 218 506 
L 232 506 
L 275 528 
L 259 528 
L 247 521 
L 203 521 
L 190 528 
L 175 528 
L 218 506 
" fill="#339541" />
<path d="
M 259 476 
L 259 420 
L 230 420 
L 230 397 
L 275 397 
L 275 490 
Q 264 498 , 253 502 
Q 244 505 , 232 506 
Q 206 506 , 190 478 
Q 175 450 , 175 401 
Q 175 353 , 190 325 
Q 206 297 , 232 297 
Q 243 297 , 252 301 
Q 262 304 , 272 314 
L 272 341 
Q 259 329 , 251 325 
Q 242 322 , 233 322 
Q 212 322 , 201 341 
Q 191 361 , 191 401 
Q 191 442 , 201 462 
Q 212 482 , 233 482 
Q 242 482 , 249 480 
Q 256 478 , 259 476 
" fill="#F5C000" />
<path d="
M 280 546 
L 298 546 
L 298 551 
Q 298 552 , 306 553 
Q 313 553 , 330 553 
Q 347 553 , 355 553 
Q 362 552 , 362 551 
L 362 546 
L 380 546 
L 380 551 
Q 380 553 , 367 553 
Q 355 554 , 330 554 
Q 306 554 , 293 553 
Q 280 553 , 280 551 
L 280 546 
" fill="#D21010" />
<path d="
M 380 533 
L 380 535 
Q 365 533 , 357 533 
Q 349 533 , 339 533 
Q 318 533 , 308 534 
Q 296 536 , 296 538 
Q 296 541 , 308 543 
Q 318 544 , 339 544 
Q 349 544 , 357 544 
Q 365 543 , 380 542 
L 380 544 
Q 369 545 , 359 545 
Q 349 546 , 338 546 
Q 311 546 , 296 544 
Q 280 542 , 280 538 
Q 280 535 , 296 533 
Q 311 531 , 338 531 
Q 349 531 , 359 531 
Q 370 532 , 380 533 
" fill="#545FFF" />
<path d="
M 364 527 
L 364 520 
L 335 520 
L 335 517 
L 380 517 
L 380 528 
Q 369 530 , 358 530 
Q 349 530 , 337 531 
Q 311 531 , 295 527 
Q 280 523 , 280 517 
Q 280 511 , 295 508 
Q 311 504 , 337 504 
Q 348 504 , 357 504 
Q 367 505 , 377 506 
L 377 510 
Q 364 508 , 356 508 
Q 347 507 , 338 507 
Q 317 507 , 306 510 
Q 296 512 , 296 517 
Q 296 522 , 306 525 
Q 317 528 , 338 528 
Q 347 528 , 354 527 
Q 361 527 , 364 527 
" fill="#F5C000" />
<path d="
M 330 427 
L 312 465 
L 346 465 
L 330 427 
M 323 410 
L 337 410 
L 380 504 
L 364 504 
L 352 476 
L 308 476 
L 295 504 
L 280 504 
L 323 410 
" fill="#339541" />
<path d="
M 485 549 
L 485 550 
Q 470 549 , 462 549 
Q 454 549 , 444 549 
Q 423 549 , 413 549 
Q 401 550 , 401 551 
Q 401 553 , 413 553 
Q 423 554 , 444 554 
Q 454 554 , 462 554 
Q 470 554 , 485 553 
L 485 554 
Q 474 555 , 464 555 
Q 454 555 , 443 555 
Q 416 555 , 401 554 
Q 385 553 , 385 551 
Q 385 550 , 401 549 
Q 416 548 , 443 548 
Q 454 548 , 464 548 
Q 475 548 , 485 549 
" fill="#545FFF" />
<path d="
M 435 539 
L 417 543 
L 451 543 
L 435 539 
M 428 537 
L 442 537 
L 485 548 
L 469 548 
L 457 544 
L 413 544 
L 400 548 
L 385 548 
L 428 537 
" fill="#339541" />
<path d="
M 469 532 
L 469 524 
L 440 524 
L 440 521 
L 485 521 
L 485 535 
Q 474 536 , 463 536 
Q 454 537 , 442 537 
Q 416 537 , 400 533 
Q 385 529 , 385 521 
Q 385 514 , 400 510 
Q 416 506 , 442 506 
Q 453 506 , 462 507 
Q 472 507 , 482 509 
L 482 512 
Q 469 511 , 461 510 
Q 452 510 , 443 510 
Q 422 510 , 411 513 
Q 401 515 , 401 521 
Q 401 528 , 411 531 
Q 422 533 , 443 533 
Q 452 533 , 459 533 
Q 466 533 , 469 532 
" fill="#F5C000" />
<path d="
M 385 446 
L 403 446 
L 403 481 
Q 403 491 , 411 495 
Q 418 499 , 435 499 
Q 452 499 , 460 495 
Q 467 491 , 467 481 
L 467 446 
L 485 446 
L 485 482 
Q 485 493 , 472 499 
Q 460 505 , 435 505 
Q 411 505 , 398 499 
Q 385 493 , 385 482 
L 385 446 
" fill="#D21010" />
<path d="
M 590 549 
L 590 550 
Q 575 549 , 567 549 
Q 559 549 , 549 549 
Q 528 549 , 518 549 
Q 506 550 , 506 551 
Q 506 552 , 518 553 
Q 528 554 , 549 554 
Q 559 554 , 567 554 
Q 575 553 , 590 553 
L 590 554 
Q 579 554 , 569 554 
Q 559 554 , 548 554 
Q 521 554 , 506 554 
Q 490 553 , 490 551 
Q 490 550 , 506 549 
Q 521 548 , 548 548 
Q 559 548 , 569 548 
Q 580 548 , 590 549 
" fill="#545FFF" />
<path d="
M 490 537 
L 508 537 
L 508 543 
Q 508 545 , 516 545 
Q 523 546 , 540 546 
Q 557 546 , 565 545 
Q 572 545 , 572 543 
L 572 537 
L 590 537 
L 590 543 
Q 590 545 , 577 546 
Q 565 547 , 540 547 
Q 516 547 , 503 546 
Q 490 545 , 490 543 
L 490 537 
" fill="#D21010" />
<path d="
M 540 516 
L 522 526 
L 556 526 
L 540 516 
M 533 512 
L 547 512 
L 590 536 
L 574 536 
L 562 529 
L 518 529 
L 505 536 
L 490 536 
L 533 512 
" fill="#339541" />
<path d="
M 574 505 
L 574 493 
L 545 493 
L 545 489 
L 590 489 
L 590 508 
Q 579 510 , 568 510 
Q 559 511 , 547 511 
Q 521 511 , 505 505 
Q 490 500 , 490 490 
Q 490 480 , 505 474 
Q 521 468 , 547 468 
Q 558 468 , 567 469 
Q 577 470 , 587 471 
L 587 477 
Q 574 475 , 566 474 
Q 557 473 , 548 473 
Q 527 473 , 516 477 
Q 506 481 , 506 490 
Q 506 498 , 516 502 
Q 527 506 , 548 506 
Q 557 506 , 564 506 
Q 571 506 , 574 505 
" fill="#F5C000" />
<path d="
M 679 554 
L 679 552 
L 650 552 
L 650 552 
L 695 552 
L 695 554 
Q 684 554 , 673 554 
Q 664 554 , 652 554 
Q 626 554 , 610 554 
Q 595 553 , 595 552 
Q 595 550 , 610 550 
Q 626 549 , 652 549 
Q 663 549 , 672 549 
Q 682 549 , 692 549 
L 692 550 
Q 679 550 , 671 550 
Q 662 550 , 653 550 
Q 632 550 , 621 550 
Q 611 551 , 611 552 
Q 611 553 , 621 553 
Q 632 554 , 653 554 
Q 662 554 , 669 554 
Q 676 554 , 679 554 
" fill="#F5C000" />
<path d="
M 695 541 
L 695 542 
Q 680 541 , 672 541 
Q 664 541 , 654 541 
Q 633 541 , 623 542 
Q 611 543 , 611 544 
Q 611 546 , 623 547 
Q 633 547 , 654 547 
Q 664 547 , 672 547 
Q 680 547 , 695 546 
L 695 548 
Q 684 548 , 674 548 
Q 664 548 , 653 548 
Q 626 548 , 611 547 
Q 595 546 , 595 544 
Q 595 542 , 611 541 
Q 626 540 , 653 540 
Q 664 540 , 674 540 
Q 685 540 , 695 541 
" fill="#545FFF" />
<path d="
M 645 532 
L 627 536 
L 661 536 
L 645 532 
M 638 530 
L 652 530 
L 695 540 
L 679 540 
L 667 537 
L 623 537 
L 610 540 
L 595 540 
L 638 530 
" fill="#339541" />
<path d="
M 595 510 
L 613 510 
L 613 522 
Q 613 525 , 621 526 
Q 628 528 , 645 528 
Q 662 528 , 670 526 
Q 677 525 , 677 522 
L 677 510 
L 695 510 
L 695 522 
Q 695 526 , 682 528 
Q 670 530 , 645 530 
Q 621 530 , 608 528 
Q 595 526 , 595 522 
L 595 510 
" fill="#D21010" />
<path d="
M 700 547 
L 718 547 
L 718 551 
Q 718 553 , 726 553 
Q 733 553 , 750 553 
Q 767 553 , 775 553 
Q 782 553 , 782 551 
L 782 547 
L 800 547 
L 800 551 
Q 800 553 , 787 554 
Q 775 554 , 750 554 
Q 726 554 , 713 554 
Q 700 553 , 700 551 
L 700 547 
" fill="#D21010" />
<path d="
M 784 544 
L 784 538 
L 755 538 
L 755 535 
L 800 535 
L 800 545 
Q 789 546 , 778 546 
Q 769 547 , 757 547 
Q 731 547 , 715 544 
Q 700 541 , 700 536 
Q 700 531 , 715 528 
Q 731 525 , 757 525 
Q 768 525 , 777 525 
Q 787 526 , 797 527 
L 797 530 
Q 784 528 , 776 528 
Q 767 528 , 758 528 
Q 737 528 , 726 530 
Q 716 532 , 716 536 
Q 716 540 , 726 542 
Q 737 544 , 758 544 
Q 767 544 , 774 544 
Q 781 544 , 784 544 
" fill="#F5C000" />
<path d="
M 750 506 
L 732 515 
L 766 515 
L 750 506 
M 743 502 
L 757 502 
L 800 524 
L 784 524 
L 772 518 
L 728 518 
L 715 524 
L 700 524 
L 743 502 
" fill="#339541" />
<path d="
M 800 396 
L 800 414 
Q 785 402 , 777 399 
Q 769 396 , 759 396 
Q 738 396 , 728 408 
Q 716 419 , 716 442 
Q 716 465 , 728 477 
Q 738 488 , 759 488 
Q 769 488 , 777 485 
Q 785 482 , 800 470 
L 800 489 
Q 789 496 , 779 498 
Q 769 501 , 758 501 
Q 731 501 , 716 485 
Q 700 469 , 700 442 
Q 700 415 , 716 399 
Q 731 383 , 758 383 
Q 769 383 , 779 386 
Q 790 389 , 800 396 
" fill="#545FFF" />
<path d="
M 905 544 
L 905 546 
Q 890 545 , 882 545 
Q 874 544 , 864 544 
Q 843 544 , 833 545 
Q 821 547 , 821 549 
Q 821 551 , 833 552 
Q 843 553 , 864 553 
Q 874 553 , 882 553 
Q 890 553 , 905 551 
L 905 553 
Q 894 554 , 884 554 
Q 874 554 , 863 554 
Q 836 554 , 821 553 
Q 805 551 , 805 549 
Q 805 546 , 821 545 
Q 836 543 , 863 543 
Q 874 543 , 884 543 
Q 895 544 , 905 544 
" fill="#545FFF" />
<path d="
M 855 531 
L 837 537 
L 871 537 
L 855 531 
M 848 528 
L 862 528 
L 905 543 
L 889 543 
L 877 538 
L 833 538 
L 820 543 
L 805 543 
L 848 528 
" fill="#339541" />
<path d="
M 805 503 
L 823 503 
L 823 517 
Q 823 521 , 831 523 
Q 838 525 , 855 525 
Q 872 525 , 880 523 
Q 887 521 , 887 517 
L 887 503 
L 905 503 
L 905 518 
Q 905 522 , 892 525 
Q 880 527 , 855 527 
Q 831 527 , 818 525 
Q 805 522 , 805 518 
L 805 503 
" fill="#D21010" />
<path d="
M 889 484 
L 889 450 
L 860 450 
L 860 436 
L 905 436 
L 905 492 
Q 894 498 , 883 500 
Q 874 502 , 862 502 
Q 836 502 , 820 485 
Q 805 468 , 805 439 
Q 805 410 , 820 393 
Q 836 376 , 862 376 
Q 873 376 , 882 378 
Q 892 381 , 902 386 
L 902 402 
Q 889 395 , 881 393 
Q 872 391 , 863 391 
Q 842 391 , 831 403 
Q 821 415 , 821 439 
Q 821 464 , 831 476 
Q 842 488 , 863 488 
Q 872 488 , 879 487 
Q 886 486 , 889 484 
" fill="#F5C000" />
<path d="
M 1010 550 
L 1010 550 
Q 995 550 , 987 550 
Q 979 550 , 969 550 
Q 948 550 , 938 550 
Q 926 551 , 926 552 
Q 926 553 , 938 553 
Q 948 554 , 969 554 
Q 979 554 , 987 554 
Q 995 554 , 1010 553 
L 1010 554 
Q 999 554 , 989 554 
Q 979 554 , 968 554 
Q 941 554 , 926 554 
Q 910 553 , 910 552 
Q 910 550 , 926 550 
Q 941 549 , 968 549 
Q 979 549 , 989 549 
Q 1000 549 , 1010 550 
" fill="#545FFF" />
<path d="
M 910 538 
L 928 538 
L 928 544 
Q 928 546 , 936 547 
Q 943 547 , 960 547 
Q 977 547 , 985 547 
Q 992 546 , 992 544 
L 992 538 
L 1010 538 
L 1010 544 
Q 1010 546 , 997 547 
Q 985 549 , 960 549 
Q 936 549 , 923 547 
Q 910 546 , 910 544 
L 910 538 
" fill="#D21010" />
<path d="
M 994 532 
L 994 522 
L 965 522 
L 965 518 
L 1010 518 
L 1010 535 
Q 999 537 , 988 537 
Q 979 538 , 967 538 
Q 941 538 , 925 533 
Q 910 528 , 910 519 
Q 910 510 , 925 505 
Q 941 500 , 967 500 
Q 978 500 , 987 501 
Q 997 501 , 1007 503 
L 1007 508 
Q 994 506 , 986 505 
Q 977 505 , 968 505 
Q 947 505 , 936 508 
Q 926 512 , 926 519 
Q 926 526 , 936 530 
Q 947 534 , 968 534 
Q 977 534 , 984 533 
Q 991 533 , 994 532 
" fill="#F5C000" />
<path d="
M 960 452 
L 942 475 
L 976 475 
L 960 452 
M 953 441 
L 967 441 
L 1010 499 
L 994 499 
L 982 482 
L 938 482 
L 925 499 
L 910 499 
L 953 441 
" fill="#339541" />
<path d="
M 1065 550 
L 1047 552 
L 1081 552 
L 1065 550 
M 1058 549 
L 1072 549 
L 1115 555 
L 1099 555 
L 1087 553 
L 1043 553 
L 1030 555 
L 1015 555 
L 1058 549 
" fill="#339541" />
<path d="
M 1015 540 
L 1033 540 
L 1033 545 
Q 1033 546 , 1041 547 
Q 1048 547 , 1065 547 
Q 1082 547 , 1090 547 
Q 1097 546 , 1097 545 
L 1097 540 
L 1115 540 
L 1115 545 
Q 1115 546 , 1102 547 
Q 1090 548 , 1065 548 
Q 1041 548 , 1028 547 
Q 1015 546 , 1015 545 
L 1015 540 
" fill="#D21010" />
<path d="
M 1115 527 
L 1115 529 
Q 1100 527 , 1092 527 
Q 1084 527 , 1074 527 
Q 1053 527 , 1043 528 
Q 1031 529 , 1031 532 
Q 1031 535 , 1043 536 
Q 1053 538 , 1074 538 
Q 1084 538 , 1092 537 
Q 1100 537 , 1115 536 
L 1115 538 
Q 1104 539 , 1094 539 
Q 1084 539 , 1073 539 
Q 1046 539 , 1031 537 
Q 1015 535 , 1015 532 
Q 1015 529 , 1031 527 
Q 1046 525 , 1073 525 
Q 1084 525 , 1094 525 
Q 1105 526 , 1115 527 
" fill="#545FFF" />
<path d="
M 1099 521 
L 1099 514 
L 1070 514 
L 1070 512 
L 1115 512 
L 1115 522 
Q 1104 523 , 1093 524 
Q 1084 524 , 1072 524 
Q 1046 524 , 1030 521 
Q 1015 518 , 1015 512 
Q 1015 506 , 1030 503 
Q 1046 500 , 1072 500 
Q 1083 500 , 1092 500 
Q 1102 501 , 1112 502 
L 1112 505 
Q 1099 504 , 1091 503 
Q 1082 503 , 1073 503 
Q 1052 503 , 1041 505 
Q 1031 507 , 1031 512 
Q 1031 517 , 1041 519 
Q 1052 522 , 1073 522 
Q 1082 522 , 1089 521 
Q 1096 521 , 1099 521 
" fill="#F5C000" />
<path d="
M 1220 550 
L 1220 550 
Q 1205 550 , 1197 550 
Q 1189 550 , 1179 550 
Q 1158 550 , 1148 550 
Q 1136 551 , 1136 552 
Q 1136 553 , 1148 553 
Q 1158 554 , 1179 554 
Q 1189 554 , 1197 554 
Q 1205 553 , 1220 553 
L 1220 554 
Q 1209 554 , 1199 554 
Q 1189 554 , 1178 554 
Q 1151 554 , 1136 554 
Q 1120 553 , 1120 552 
Q 1120 550 , 1136 550 
Q 1151 549 , 1178 549 
Q 1189 549 , 1199 549 
Q 1210 549 , 1220 550 
" fill="#545FFF" />
<path d="
M 1170 542 
L 1152 545 
L 1186 545 
L 1170 542 
M 1163 541 
L 1177 541 
L 1220 548 
L 1204 548 
L 1192 546 
L 1148 546 
L 1135 548 
L 1120 548 
L 1163 541 
" fill="#339541" />
<path d="
M 1120 523 
L 1138 523 
L 1138 534 
Q 1138 536 , 1146 538 
Q 1153 539 , 1170 539 
Q 1187 539 , 1195 538 
Q 1202 536 , 1202 534 
L 1202 523 
L 1220 523 
L 1220 534 
Q 1220 537 , 1207 539 
Q 1195 541 , 1170 541 
Q 1146 541 , 1133 539 
Q 1120 537 , 1120 534 
L 1120 523 
" fill="#D21010" />
<path d="
M 1204 519 
L 1204 514 
L 1175 514 
L 1175 511 
L 1220 511 
L 1220 521 
Q 1209 522 , 1198 522 
Q 1189 522 , 1177 522 
Q 1151 522 , 1135 519 
Q 1120 517 , 1120 512 
Q 1120 507 , 1135 504 
Q 1151 501 , 1177 501 
Q 1188 501 , 1197 501 
Q 1207 502 , 1217 503 
L 1217 505 
Q 1204 504 , 1196 504 
Q 1187 504 , 1178 504 
Q 1157 504 , 1146 506 
Q 1136 508 , 1136 512 
Q 1136 516 , 1146 518 
Q 1157 520 , 1178 520 
Q 1187 520 , 1194 520 
Q 1201 520 , 1204 519 
" fill="#F5C000" />
<path d="
M 1325 554 
L 1325 554 
Q 1310 554 , 1302 554 
Q 1294 554 , 1284 554 
Q 1263 554 , 1253 554 
Q 1241 554 , 1241 554 
Q 1241 554 , 1253 554 
Q 1263 554 , 1284 554 
Q 1294 554 , 1302 554 
Q 1310 554 , 1325 554 
L 1325 554 
Q 1314 554 , 1304 554 
Q 1294 554 , 1283 554 
Q 1256 554 , 1241 554 
Q 1225 554 , 1225 554 
Q 1225 554 , 1241 554 
Q 1256 554 , 1283 554 
Q 1294 554 , 1304 554 
Q 1315 554 , 1325 554 
" fill="#545FFF" />
<path d="
M 1275 553 
L 1257 553 
L 1291 553 
L 1275 553 
M 1268 553 
L 1282 553 
L 1325 553 
L 1309 553 
L 1297 553 
L 1253 553 
L 1240 553 
L 1225 553 
L 1268 553 
" fill="#339541" />
<path d="
M 1309 552 
L 1309 552 
L 1280 552 
L 1280 552 
L 1325 552 
L 1325 552 
Q 1314 552 , 1303 552 
Q 1294 552 , 1282 552 
Q 1256 552 , 1240 552 
Q 1225 552 , 1225 552 
Q 1225 552 , 1240 552 
Q 1256 552 , 1282 552 
Q 1293 552 , 1302 552 
Q 1312 552 , 1322 552 
L 1322 552 
Q 1309 552 , 1301 552 
Q 1292 552 , 1283 552 
Q 1262 552 , 1251 552 
Q 1241 552 , 1241 552 
Q 1241 552 , 1251 552 
Q 1262 552 , 1283 552 
Q 1292 552 , 1299 552 
Q 1306 552 , 1309 552 
" fill="#F5C000" />
<path d="
M 1225 551 
L 1243 551 
L 1243 551 
Q 1243 551 , 1251 551 
Q 1258 551 , 1275 551 
Q 1292 551 , 1300 551 
Q 1307 551 , 1307 551 
L 1307 551 
L 1325 551 
L 1325 551 
Q 1325 551 , 1312 551 
Q 1300 551 , 1275 551 
Q 1251 551 , 1238 551 
Q 1225 551 , 1225 551 
L 1225 551 
" fill="#D21010" />
<path d="M 65 55 L 65 555 " stroke="black" stroke-width="1.5"/>
<path d="M 55 555 L 65 555 " stroke="black" stroke-width="4"/>
<text text-anchor="end" x="50" y="555" font-size="50" alignment-baseline="middle">0</text>
<path d="M 55 305 L 65 305 " stroke="black" stroke-width="4"/>
<text text-anchor="end" x="50" y="305" font-size="50" alignment-baseline="middle">1</text>
<path d="M 55 55 L 65 55 " stroke="black" stroke-width="4"/>
<text text-anchor="end" x="50" y="55" font-size="50" alignment-baseline="middle">2</text>
<text text-anchor="middle" x="697" y="50" font-size="50" alignment-baseline="baseline"></text>
G<path d="
M 160 582 
L 126 595 
L 160 608 
L 157 611 
L 123 598 
L 123 623 
L 117 623 
L 117 599 
L 83 611 
L 80 608 
L 114 595 
L 80 582 
L 83 579 
L 117 591 
L 117 567 
L 123 567 
L 123 591 
L 157 579 
L 160 582 
" fill="black" />
<path d="
" fill="black" />
<path d="
M 211 567 
L 238 567 
L 238 623 
L 211 623 
L 211 567 
" fill="black" />
<path d="
" fill="black" />
<path d="
" fill="black" />
<path d="
M 316 567 
L 343 567 
L 343 623 
L 316 623 
L 316 567 
" fill="black" />
<path d="
" fill="black" />
<path d="
" fill="black" />
<path d="
M 421 567 
L 448 567 
L 448 623 
L 421 623 
L 421 567 
" fill="black" />
<path d="
" fill="black" />
<path d="
" fill="black" />
<path d="
M 526 567 
L 553 567 
L 553 623 
L 526 623 
L 526 567 
" fill="black" />
<path d="
" fill="black" />
<path d="
" fill="black" />
<path d="
M 631 567 
L 658 567 
L 658 623 
L 631 623 
L 631 567 
" fill="black" />
<path d="
" fill="black" />
<path d="
" fill="black" />
<path d="
M 736 567 
L 763 567 
L 763 623 
L 736 623 
L 736 567 
" fill="black" />
<path d="
" fill="black" />
<path d="
" fill="black" />
<path d="
M 841 567 
L 868 567 
L 868 623 
L 841 623 
L 841 567 
" fill="black" />
<path d="
" fill="black" />
<path d="
" fill="black" />
<path d="
M 946 567 
L 973 567 
L 973 623 
L 946 623 
L 946 567 
" fill="black" />
<path d="
" fill="black" />
<path d="
" fill="black" />
<path d="
M 1051 567 
L 1078 567 
L 1078 623 
L 1051 623 
L 1051 567 
" fill="black" />
<path d="
" fill="black" />
<path d="
" fill="black" />
<path d="
M 1156 567 
L 1183 567 
L 1183 623 
L 1156 623 
L 1156 567 
" fill="black" />
<path d="
" fill="black" />
<path d="
M 1315 582 
L 1281 595 
L 1315 608 
L 1312 611 
L 1278 598 
L 1278 623 
L 1272 623 
L 1272 599 
L 1238 611 
L 1235 608 
L 1269 595 
L 1235 582 
L 1238 579 
L 1272 591 
L 1272 567 
L 1278 567 
L 1278 591 
L 1312 579 
L 1315 582 
" fill="black" />
</svg>
