<svg xmlns="http://www.w3.org/2000/svg"
viewBox="0 0 1435 635">
<path d="
M 120 554 
L 102 554 
L 136 554 
L 120 554 
M 113 554 
L 127 554 
L 170 554 
L 154 554 
L 142 554 
L 98 554 
L 85 554 
L 70 554 
L 113 554 
" fill="#339541" />
<path d="
M 70 553 
L 88 553 
L 88 553 
Q 88 553 , 96 553 
Q 103 553 , 120 553 
Q 137 553 , 145 553 
Q 152 553 , 152 553 
L 152 553 
L 170 553 
L 170 553 
Q 170 553 , 157 553 
Q 145 553 , 120 553 
Q 96 553 , 83 553 
Q 70 553 , 70 553 
L 70 553 
" fill="#D21010" />
<path d="
M 170 552 
L 170 552 
Q 155 552 , 147 552 
Q 139 552 , 129 552 
Q 108 552 , 98 552 
Q 86 552 , 86 552 
Q 86 552 , 98 552 
Q 108 552 , 129 552 
Q 139 552 , 147 552 
Q 155 552 , 170 552 
L 170 552 
Q 159 552 , 149 552 
Q 139 552 , 128 552 
Q 101 552 , 86 552 
Q 70 552 , 70 552 
Q 70 552 , 86 552 
Q 101 552 , 128 552 
Q 139 552 , 149 552 
Q 160 552 , 170 552 
" fill="#545FFF" />
<path d="
M 154 551 
L 154 551 
L 125 551 
L 125 551 
L 170 551 
L 170 551 
Q 159 551 , 148 551 
Q 139 551 , 127 551 
Q 101 551 , 85 551 
Q 70 551 , 70 551 
Q 70 551 , 85 551 
Q 101 551 , 127 551 
Q 138 551 , 147 551 
Q 157 551 , 167 551 
L 167 551 
Q 154 551 , 146 551 
Q 137 551 , 128 551 
Q 107 551 , 96 551 
Q 86 551 , 86 551 
Q 86 551 , 96 551 
Q 107 551 , 128 551 
Q 137 551 , 144 551 
Q 151 551 , 154 551 
" fill="#F5C000" />
<path d="
M 225 548 
L 207 551 
L 241 551 
L 225 548 
M 218 546 
L 232 546 
L 275 555 
L 259 555 
L 247 552 
L 203 552 
L 190 555 
L 175 555 
L 218 546 
" fill="#339541" />
<path d="
M 259 544 
L 259 541 
L 230 541 
L 230 540 
L 275 540 
L 275 545 
Q 264 545 , 253 546 
Q 244 546 , 232 546 
Q 206 546 , 190 544 
Q 175 543 , 175 540 
Q 175 538 , 190 536 
Q 206 535 , 232 535 
Q 243 535 , 252 535 
Q 262 535 , 272 536 
L 272 537 
Q 259 537 , 251 536 
Q 242 536 , 233 536 
Q 212 536 , 201 537 
Q 191 538 , 191 540 
Q 191 543 , 201 544 
Q 212 545 , 233 545 
Q 242 545 , 249 545 
Q 256 544 , 259 544 
" fill="#F5C000" />
<path d="
M 275 521 
L 275 523 
Q 260 522 , 252 521 
Q 244 521 , 234 521 
Q 213 521 , 203 522 
Q 191 524 , 191 527 
Q 191 530 , 203 532 
Q 213 533 , 234 533 
Q 244 533 , 252 533 
Q 260 532 , 275 531 
L 275 533 
Q 264 534 , 254 535 
Q 244 535 , 233 535 
Q 206 535 , 191 533 
Q 175 531 , 175 527 
Q 175 523 , 191 521 
Q 206 519 , 233 519 
Q 244 519 , 254 519 
Q 265 520 , 275 521 
" fill="#545FFF" />
<path d="
M 175 455 
L 193 455 
L 193 492 
Q 193 503 , 201 507 
Q 208 511 , 225 511 
Q 242 511 , 250 507 
Q 257 503 , 257 492 
L 257 455 
L 275 455 
L 275 493 
Q 275 506 , 262 512 
Q 250 518 , 225 518 
Q 201 518 , 188 512 
Q 175 506 , 175 493 
L 175 455 
" fill="#D21010" />
<path d="
M 330 550 
L 312 552 
L 346 552 
L 330 550 
M 323 549 
L 337 549 
L 380 555 
L 364 555 
L 352 553 
L 308 553 
L 295 555 
L 280 555 
L 323 549 
" fill="#339541" />
<path d="
M 280 542 
L 298 542 
L 298 546 
Q 298 547 , 306 548 
Q 313 548 , 330 548 
Q 347 548 , 355 548 
Q 362 547 , 362 546 
L 362 542 
L 380 542 
L 380 546 
Q 380 547 , 367 548 
Q 355 549 , 330 549 
Q 306 549 , 293 548 
Q 280 547 , 280 546 
L 280 542 
" fill="#D21010" />
<path d="
M 380 512 
L 380 517 
Q 365 513 , 357 513 
Q 349 512 , 339 512 
Q 318 512 , 308 515 
Q 296 518 , 296 524 
Q 296 531 , 308 534 
Q 318 537 , 339 537 
Q 349 537 , 357 537 
Q 365 536 , 380 532 
L 380 538 
Q 369 540 , 359 540 
Q 349 541 , 338 541 
Q 311 541 , 296 537 
Q 280 532 , 280 525 
Q 280 517 , 296 513 
Q 311 508 , 338 508 
Q 349 508 , 359 509 
Q 370 510 , 380 512 
" fill="#545FFF" />
<path d="
M 364 496 
L 364 476 
L 335 476 
L 335 467 
L 380 467 
L 380 502 
Q 369 505 , 358 506 
Q 349 507 , 337 508 
Q 311 508 , 295 497 
Q 280 487 , 280 469 
Q 280 451 , 295 440 
Q 311 430 , 337 430 
Q 348 430 , 357 431 
Q 367 433 , 377 436 
L 377 446 
Q 364 442 , 356 440 
Q 347 439 , 338 439 
Q 317 439 , 306 446 
Q 296 454 , 296 469 
Q 296 484 , 306 492 
Q 317 499 , 338 499 
Q 347 499 , 354 498 
Q 361 497 , 364 496 
" fill="#F5C000" />
<path d="
M 435 552 
L 417 553 
L 451 553 
L 435 552 
M 428 552 
L 442 552 
L 485 554 
L 469 554 
L 457 554 
L 413 554 
L 400 554 
L 385 554 
L 428 552 
" fill="#339541" />
<path d="
M 469 551 
L 469 548 
L 440 548 
L 440 547 
L 485 547 
L 485 551 
Q 474 552 , 463 552 
Q 454 552 , 442 552 
Q 416 552 , 400 551 
Q 385 550 , 385 547 
Q 385 545 , 400 544 
Q 416 543 , 442 543 
Q 453 543 , 462 543 
Q 472 543 , 482 544 
L 482 545 
Q 469 544 , 461 544 
Q 452 544 , 443 544 
Q 422 544 , 411 545 
Q 401 546 , 401 547 
Q 401 549 , 411 550 
Q 422 551 , 443 551 
Q 452 551 , 459 551 
Q 466 551 , 469 551 
" fill="#F5C000" />
<path d="
M 485 533 
L 485 535 
Q 470 534 , 462 533 
Q 454 533 , 444 533 
Q 423 533 , 413 534 
Q 401 535 , 401 537 
Q 401 539 , 413 540 
Q 423 542 , 444 542 
Q 454 542 , 462 541 
Q 470 541 , 485 540 
L 485 542 
Q 474 542 , 464 542 
Q 454 543 , 443 543 
Q 416 543 , 401 541 
Q 385 540 , 385 537 
Q 385 535 , 401 533 
Q 416 532 , 443 532 
Q 454 532 , 464 532 
Q 475 533 , 485 533 
" fill="#545FFF" />
<path d="
M 385 520 
L 403 520 
L 403 527 
Q 403 529 , 411 530 
Q 418 530 , 435 530 
Q 452 530 , 460 530 
Q 467 529 , 467 527 
L 467 520 
L 485 520 
L 485 527 
Q 485 529 , 472 530 
Q 460 532 , 435 532 
Q 411 532 , 398 530 
Q 385 529 , 385 527 
L 385 520 
" fill="#D21010" />
<path d="
M 532 554 
L 532 553 
L 518 553 
L 518 553 
L 540 553 
L 540 554 
Q 535 554 , 529 554 
Q 524 554 , 518 554 
Q 505 554 , 498 554 
Q 490 553 , 490 553 
Q 490 552 , 498 551 
Q 505 551 , 518 551 
Q 524 551 , 529 551 
Q 534 551 , 539 551 
L 539 552 
Q 532 551 , 528 551 
Q 524 551 , 519 551 
Q 509 551 , 503 552 
Q 498 552 , 498 553 
Q 498 553 , 503 554 
Q 509 554 , 519 554 
Q 524 554 , 527 554 
Q 531 554 , 532 554 
" fill="#F5C000" />
<path d="
M 540 551 
L 549 551 
L 549 553 
Q 549 553 , 553 554 
Q 556 554 , 565 554 
Q 574 554 , 577 554 
Q 581 553 , 581 553 
L 581 551 
L 590 551 
L 590 553 
Q 590 554 , 584 554 
Q 577 554 , 565 554 
Q 553 554 , 546 554 
Q 540 554 , 540 553 
L 540 551 
" fill="lightgray" />
<path d="
M 540 547 
L 540 548 
Q 533 548 , 529 548 
Q 524 547 , 519 547 
Q 509 547 , 504 548 
Q 498 548 , 498 549 
Q 498 550 , 504 550 
Q 509 550 , 519 550 
Q 524 550 , 529 550 
Q 533 550 , 540 550 
L 540 550 
Q 535 551 , 529 551 
Q 525 551 , 519 551 
Q 505 551 , 498 550 
Q 490 550 , 490 549 
Q 490 548 , 498 548 
Q 505 547 , 519 547 
Q 525 547 , 530 547 
Q 535 547 , 540 547 
" fill="#545FFF" />
<path d="
M 582 550 
L 582 549 
L 568 549 
L 568 549 
L 590 549 
L 590 550 
Q 585 551 , 579 551 
Q 574 551 , 568 551 
Q 555 551 , 548 550 
Q 540 550 , 540 549 
Q 540 548 , 548 548 
Q 555 547 , 568 547 
Q 574 547 , 579 547 
Q 584 547 , 589 547 
L 589 548 
Q 582 548 , 578 548 
Q 574 547 , 569 547 
Q 559 547 , 553 548 
Q 548 548 , 548 549 
Q 548 550 , 553 550 
Q 559 550 , 569 550 
Q 574 550 , 577 550 
Q 581 550 , 582 550 
" fill="lightgray" />
<path d="
M 490 542 
L 499 542 
L 499 544 
Q 499 545 , 503 545 
Q 506 546 , 515 546 
Q 524 546 , 527 545 
Q 531 545 , 531 544 
L 531 542 
L 540 542 
L 540 545 
Q 540 545 , 534 546 
Q 527 546 , 515 546 
Q 503 546 , 496 546 
Q 490 545 , 490 545 
L 490 542 
" fill="#D21010" />
<path d="
M 565 543 
L 556 544 
L 573 544 
L 565 543 
M 561 542 
L 569 542 
L 590 546 
L 582 546 
L 576 545 
L 554 545 
L 547 546 
L 540 546 
L 561 542 
" fill="lightgray" />
<path d="
M 490 535 
L 499 535 
L 499 539 
Q 499 540 , 503 540 
Q 506 540 , 515 540 
Q 524 540 , 527 540 
Q 531 540 , 531 539 
L 531 535 
L 540 535 
L 540 539 
Q 540 540 , 534 541 
Q 527 541 , 515 541 
Q 503 541 , 496 541 
Q 490 540 , 490 539 
L 490 535 
" fill="#D21010" />
<path d="
M 582 540 
L 582 539 
L 568 539 
L 568 538 
L 590 538 
L 590 541 
Q 585 541 , 579 541 
Q 574 541 , 568 541 
Q 555 541 , 548 540 
Q 540 540 , 540 538 
Q 540 537 , 548 536 
Q 555 535 , 568 535 
Q 574 535 , 579 535 
Q 584 535 , 589 536 
L 589 536 
Q 582 536 , 578 536 
Q 574 536 , 569 536 
Q 559 536 , 553 536 
Q 548 537 , 548 538 
Q 548 539 , 553 540 
Q 559 541 , 569 541 
Q 574 541 , 577 540 
Q 581 540 , 582 540 
" fill="lightgray" />
<path d="
M 515 528 
L 506 531 
L 523 531 
L 515 528 
M 511 527 
L 519 527 
L 540 534 
L 532 534 
L 526 532 
L 504 532 
L 497 534 
L 490 534 
L 511 527 
" fill="#339541" />
<path d="
M 540 527 
L 549 527 
L 549 531 
Q 549 533 , 553 533 
Q 556 534 , 565 534 
Q 574 534 , 577 533 
Q 581 533 , 581 531 
L 581 527 
L 590 527 
L 590 532 
Q 590 533 , 584 534 
Q 577 534 , 565 534 
Q 553 534 , 546 534 
Q 540 533 , 540 532 
L 540 527 
" fill="lightgray" />
<path d="
M 532 525 
L 532 521 
L 518 521 
L 518 520 
L 540 520 
L 540 526 
Q 535 526 , 529 526 
Q 524 527 , 518 527 
Q 505 527 , 498 525 
Q 490 523 , 490 520 
Q 490 517 , 498 515 
Q 505 513 , 518 513 
Q 524 513 , 529 513 
Q 534 513 , 539 514 
L 539 516 
Q 532 515 , 528 515 
Q 524 515 , 519 515 
Q 509 515 , 503 516 
Q 498 517 , 498 520 
Q 498 523 , 503 524 
Q 509 525 , 519 525 
Q 524 525 , 527 525 
Q 531 525 , 532 525 
" fill="#F5C000" />
<path d="
M 590 514 
L 590 517 
Q 583 515 , 579 515 
Q 574 515 , 569 515 
Q 559 515 , 554 516 
Q 548 517 , 548 519 
Q 548 522 , 554 524 
Q 559 525 , 569 525 
Q 574 525 , 579 525 
Q 583 524 , 590 523 
L 590 525 
Q 585 526 , 579 526 
Q 575 527 , 569 527 
Q 555 527 , 548 525 
Q 540 523 , 540 520 
Q 540 517 , 548 515 
Q 555 513 , 569 513 
Q 575 513 , 580 513 
Q 585 514 , 590 514 
" fill="lightgray" />
<path d="
M 645 552 
L 627 553 
L 661 553 
L 645 552 
M 638 552 
L 652 552 
L 695 554 
L 679 554 
L 667 553 
L 623 553 
L 610 554 
L 595 554 
L 638 552 
" fill="#339541" />
<path d="
M 595 540 
L 613 540 
L 613 547 
Q 613 549 , 621 550 
Q 628 550 , 645 550 
Q 662 550 , 670 550 
Q 677 549 , 677 547 
L 677 540 
L 695 540 
L 695 547 
Q 695 549 , 682 550 
Q 670 552 , 645 552 
Q 621 552 , 608 550 
Q 595 549 , 595 547 
L 595 540 
" fill="#D21010" />
<path d="
M 679 538 
L 679 534 
L 650 534 
L 650 533 
L 695 533 
L 695 538 
Q 684 539 , 673 539 
Q 664 539 , 652 539 
Q 626 539 , 610 538 
Q 595 536 , 595 533 
Q 595 530 , 610 529 
Q 626 527 , 652 527 
Q 663 527 , 672 527 
Q 682 527 , 692 528 
L 692 530 
Q 679 529 , 671 529 
Q 662 528 , 653 528 
Q 632 528 , 621 530 
Q 611 531 , 611 533 
Q 611 536 , 621 537 
Q 632 538 , 653 538 
Q 662 538 , 669 538 
Q 676 538 , 679 538 
" fill="#F5C000" />
<path d="
M 695 515 
L 695 517 
Q 680 516 , 672 516 
Q 664 515 , 654 515 
Q 633 515 , 623 517 
Q 611 518 , 611 520 
Q 611 523 , 623 524 
Q 633 525 , 654 525 
Q 664 525 , 672 525 
Q 680 525 , 695 523 
L 695 525 
Q 684 526 , 674 526 
Q 664 527 , 653 527 
Q 626 527 , 611 525 
Q 595 523 , 595 520 
Q 595 517 , 611 516 
Q 626 514 , 653 514 
Q 664 514 , 674 514 
Q 685 515 , 695 515 
" fill="#545FFF" />
<path d="
M 750 554 
L 732 554 
L 766 554 
L 750 554 
M 743 554 
L 757 554 
L 800 554 
L 784 554 
L 772 554 
L 728 554 
L 715 554 
L 700 554 
L 743 554 
" fill="#339541" />
<path d="
M 700 553 
L 718 553 
L 718 553 
Q 718 553 , 726 553 
Q 733 553 , 750 553 
Q 767 553 , 775 553 
Q 782 553 , 782 553 
L 782 553 
L 800 553 
L 800 553 
Q 800 553 , 787 553 
Q 775 553 , 750 553 
Q 726 553 , 713 553 
Q 700 553 , 700 553 
L 700 553 
" fill="#D21010" />
<path d="
M 800 552 
L 800 552 
Q 785 552 , 777 552 
Q 769 552 , 759 552 
Q 738 552 , 728 552 
Q 716 552 , 716 552 
Q 716 552 , 728 552 
Q 738 552 , 759 552 
Q 769 552 , 777 552 
Q 785 552 , 800 552 
L 800 552 
Q 789 552 , 779 552 
Q 769 552 , 758 552 
Q 731 552 , 716 552 
Q 700 552 , 700 552 
Q 700 552 , 716 552 
Q 731 552 , 758 552 
Q 769 552 , 779 552 
Q 790 552 , 800 552 
" fill="#545FFF" />
<path d="
M 784 551 
L 784 551 
L 755 551 
L 755 551 
L 800 551 
L 800 551 
Q 789 551 , 778 551 
Q 769 551 , 757 551 
Q 731 551 , 715 551 
Q 700 551 , 700 551 
Q 700 551 , 715 551 
Q 731 551 , 757 551 
Q 768 551 , 777 551 
Q 787 551 , 797 551 
L 797 551 
Q 784 551 , 776 551 
Q 767 551 , 758 551 
Q 737 551 , 726 551 
Q 716 551 , 716 551 
Q 716 551 , 726 551 
Q 737 551 , 758 551 
Q 767 551 , 774 551 
Q 781 551 , 784 551 
" fill="#F5C000" />
<path d="
M 805 550 
L 823 550 
L 823 553 
Q 823 554 , 831 554 
Q 838 554 , 855 554 
Q 872 554 , 880 554 
Q 887 554 , 887 553 
L 887 550 
L 905 550 
L 905 553 
Q 905 554 , 892 554 
Q 880 555 , 855 555 
Q 831 555 , 818 554 
Q 805 554 , 805 553 
L 805 550 
" fill="#D21010" />
<path d="
M 905 544 
L 905 545 
Q 890 544 , 882 544 
Q 874 544 , 864 544 
Q 843 544 , 833 544 
Q 821 545 , 821 546 
Q 821 548 , 833 549 
Q 843 549 , 864 549 
Q 874 549 , 882 549 
Q 890 549 , 905 548 
L 905 549 
Q 894 550 , 884 550 
Q 874 550 , 863 550 
Q 836 550 , 821 549 
Q 805 548 , 805 546 
Q 805 545 , 821 544 
Q 836 543 , 863 543 
Q 874 543 , 884 543 
Q 895 543 , 905 544 
" fill="#545FFF" />
<path d="
M 855 523 
L 837 533 
L 871 533 
L 855 523 
M 848 519 
L 862 519 
L 905 543 
L 889 543 
L 877 536 
L 833 536 
L 820 543 
L 805 543 
L 848 519 
" fill="#339541" />
<path d="
M 889 513 
L 889 504 
L 860 504 
L 860 501 
L 905 501 
L 905 516 
Q 894 517 , 883 518 
Q 874 518 , 862 518 
Q 836 518 , 820 514 
Q 805 509 , 805 502 
Q 805 494 , 820 489 
Q 836 485 , 862 485 
Q 873 485 , 882 486 
Q 892 486 , 902 488 
L 902 492 
Q 889 490 , 881 489 
Q 872 489 , 863 489 
Q 842 489 , 831 492 
Q 821 495 , 821 502 
Q 821 508 , 831 511 
Q 842 514 , 863 514 
Q 872 514 , 879 514 
Q 886 514 , 889 513 
" fill="#F5C000" />
<path d="
M 960 553 
L 942 554 
L 976 554 
L 960 553 
M 953 552 
L 967 552 
L 1010 555 
L 994 555 
L 982 554 
L 938 554 
L 925 555 
L 910 555 
L 953 552 
" fill="#339541" />
<path d="
M 910 547 
L 928 547 
L 928 550 
Q 928 551 , 936 551 
Q 943 551 , 960 551 
Q 977 551 , 985 551 
Q 992 551 , 992 550 
L 992 547 
L 1010 547 
L 1010 550 
Q 1010 551 , 997 551 
Q 985 552 , 960 552 
Q 936 552 , 923 551 
Q 910 551 , 910 550 
L 910 547 
" fill="#D21010" />
<path d="
M 1010 542 
L 1010 542 
Q 995 542 , 987 542 
Q 979 542 , 969 542 
Q 948 542 , 938 542 
Q 926 543 , 926 544 
Q 926 545 , 938 545 
Q 948 546 , 969 546 
Q 979 546 , 987 545 
Q 995 545 , 1010 545 
L 1010 546 
Q 999 546 , 989 546 
Q 979 546 , 968 546 
Q 941 546 , 926 545 
Q 910 545 , 910 544 
Q 910 542 , 926 542 
Q 941 541 , 968 541 
Q 979 541 , 989 541 
Q 1000 541 , 1010 542 
" fill="#545FFF" />
<path d="
M 994 539 
L 994 536 
L 965 536 
L 965 535 
L 1010 535 
L 1010 539 
Q 999 540 , 988 540 
Q 979 540 , 967 540 
Q 941 540 , 925 539 
Q 910 538 , 910 536 
Q 910 533 , 925 532 
Q 941 531 , 967 531 
Q 978 531 , 987 531 
Q 997 531 , 1007 532 
L 1007 533 
Q 994 532 , 986 532 
Q 977 532 , 968 532 
Q 947 532 , 936 533 
Q 926 534 , 926 536 
Q 926 537 , 936 538 
Q 947 539 , 968 539 
Q 977 539 , 984 539 
Q 991 539 , 994 539 
" fill="#F5C000" />
<path d="
M 1015 551 
L 1033 551 
L 1033 553 
Q 1033 553 , 1041 554 
Q 1048 554 , 1065 554 
Q 1082 554 , 1090 554 
Q 1097 553 , 1097 553 
L 1097 551 
L 1115 551 
L 1115 553 
Q 1115 554 , 1102 554 
Q 1090 554 , 1065 554 
Q 1041 554 , 1028 554 
Q 1015 554 , 1015 553 
L 1015 551 
" fill="#D21010" />
<path d="
M 1115 542 
L 1115 543 
Q 1100 542 , 1092 542 
Q 1084 542 , 1074 542 
Q 1053 542 , 1043 543 
Q 1031 544 , 1031 545 
Q 1031 547 , 1043 548 
Q 1053 549 , 1074 549 
Q 1084 549 , 1092 549 
Q 1100 549 , 1115 548 
L 1115 549 
Q 1104 550 , 1094 550 
Q 1084 550 , 1073 550 
Q 1046 550 , 1031 549 
Q 1015 548 , 1015 546 
Q 1015 543 , 1031 542 
Q 1046 541 , 1073 541 
Q 1084 541 , 1094 541 
Q 1105 541 , 1115 542 
" fill="#545FFF" />
<path d="
M 1065 521 
L 1047 531 
L 1081 531 
L 1065 521 
M 1058 517 
L 1072 517 
L 1115 540 
L 1099 540 
L 1087 533 
L 1043 533 
L 1030 540 
L 1015 540 
L 1058 517 
" fill="#339541" />
<path d="
M 1099 512 
L 1099 505 
L 1070 505 
L 1070 501 
L 1115 501 
L 1115 514 
Q 1104 515 , 1093 516 
Q 1084 516 , 1072 516 
Q 1046 516 , 1030 512 
Q 1015 509 , 1015 502 
Q 1015 496 , 1030 492 
Q 1046 488 , 1072 488 
Q 1083 488 , 1092 488 
Q 1102 489 , 1112 490 
L 1112 494 
Q 1099 492 , 1091 492 
Q 1082 491 , 1073 491 
Q 1052 491 , 1041 494 
Q 1031 497 , 1031 502 
Q 1031 508 , 1041 510 
Q 1052 513 , 1073 513 
Q 1082 513 , 1089 513 
Q 1096 513 , 1099 512 
" fill="#F5C000" />
<path d="
M 1162 554 
L 1162 553 
L 1148 553 
L 1148 553 
L 1170 553 
L 1170 554 
Q 1165 554 , 1159 554 
Q 1154 554 , 1148 554 
Q 1135 554 , 1128 554 
Q 1120 553 , 1120 553 
Q 1120 552 , 1128 551 
Q 1135 551 , 1148 551 
Q 1154 551 , 1159 551 
Q 1164 551 , 1169 551 
L 1169 552 
Q 1162 551 , 1158 551 
Q 1154 551 , 1149 551 
Q 1139 551 , 1133 552 
Q 1128 552 , 1128 553 
Q 1128 553 , 1133 554 
Q 1139 554 , 1149 554 
Q 1154 554 , 1157 554 
Q 1161 554 , 1162 554 
" fill="lightgray" />
<path d="
M 1170 551 
L 1179 551 
L 1179 553 
Q 1179 553 , 1183 554 
Q 1186 554 , 1195 554 
Q 1204 554 , 1207 554 
Q 1211 553 , 1211 553 
L 1211 551 
L 1220 551 
L 1220 553 
Q 1220 554 , 1214 554 
Q 1207 554 , 1195 554 
Q 1183 554 , 1176 554 
Q 1170 554 , 1170 553 
L 1170 551 
" fill="#D21010" />
<path d="
M 1170 547 
L 1170 548 
Q 1163 548 , 1159 548 
Q 1154 547 , 1149 547 
Q 1139 547 , 1134 548 
Q 1128 548 , 1128 549 
Q 1128 550 , 1134 550 
Q 1139 550 , 1149 550 
Q 1154 550 , 1159 550 
Q 1163 550 , 1170 550 
L 1170 550 
Q 1165 551 , 1159 551 
Q 1155 551 , 1149 551 
Q 1135 551 , 1128 550 
Q 1120 550 , 1120 549 
Q 1120 548 , 1128 548 
Q 1135 547 , 1149 547 
Q 1155 547 , 1160 547 
Q 1165 547 , 1170 547 
" fill="lightgray" />
<path d="
M 1212 550 
L 1212 549 
L 1198 549 
L 1198 549 
L 1220 549 
L 1220 550 
Q 1215 551 , 1209 551 
Q 1204 551 , 1198 551 
Q 1185 551 , 1178 550 
Q 1170 550 , 1170 549 
Q 1170 548 , 1178 548 
Q 1185 547 , 1198 547 
Q 1204 547 , 1209 547 
Q 1214 547 , 1219 547 
L 1219 548 
Q 1212 548 , 1208 548 
Q 1204 547 , 1199 547 
Q 1189 547 , 1183 548 
Q 1178 548 , 1178 549 
Q 1178 550 , 1183 550 
Q 1189 550 , 1199 550 
Q 1204 550 , 1207 550 
Q 1211 550 , 1212 550 
" fill="#F5C000" />
<path d="
M 1120 542 
L 1129 542 
L 1129 544 
Q 1129 545 , 1133 545 
Q 1136 546 , 1145 546 
Q 1154 546 , 1157 545 
Q 1161 545 , 1161 544 
L 1161 542 
L 1170 542 
L 1170 545 
Q 1170 545 , 1164 546 
Q 1157 546 , 1145 546 
Q 1133 546 , 1126 546 
Q 1120 545 , 1120 545 
L 1120 542 
" fill="lightgray" />
<path d="
M 1195 543 
L 1186 544 
L 1203 544 
L 1195 543 
M 1191 542 
L 1199 542 
L 1220 546 
L 1212 546 
L 1206 545 
L 1184 545 
L 1177 546 
L 1170 546 
L 1191 542 
" fill="#339541" />
<path d="
M 1120 535 
L 1129 535 
L 1129 539 
Q 1129 540 , 1133 540 
Q 1136 540 , 1145 540 
Q 1154 540 , 1157 540 
Q 1161 540 , 1161 539 
L 1161 535 
L 1170 535 
L 1170 539 
Q 1170 540 , 1164 541 
Q 1157 541 , 1145 541 
Q 1133 541 , 1126 541 
Q 1120 540 , 1120 539 
L 1120 535 
" fill="lightgray" />
<path d="
M 1212 540 
L 1212 539 
L 1198 539 
L 1198 538 
L 1220 538 
L 1220 541 
Q 1215 541 , 1209 541 
Q 1204 541 , 1198 541 
Q 1185 541 , 1178 540 
Q 1170 540 , 1170 538 
Q 1170 537 , 1178 536 
Q 1185 535 , 1198 535 
Q 1204 535 , 1209 535 
Q 1214 535 , 1219 536 
L 1219 536 
Q 1212 536 , 1208 536 
Q 1204 536 , 1199 536 
Q 1189 536 , 1183 536 
Q 1178 537 , 1178 538 
Q 1178 539 , 1183 540 
Q 1189 541 , 1199 541 
Q 1204 541 , 1207 540 
Q 1211 540 , 1212 540 
" fill="#F5C000" />
<path d="
M 1145 528 
L 1136 531 
L 1153 531 
L 1145 528 
M 1141 527 
L 1149 527 
L 1170 534 
L 1162 534 
L 1156 532 
L 1134 532 
L 1127 534 
L 1120 534 
L 1141 527 
" fill="lightgray" />
<path d="
M 1170 527 
L 1179 527 
L 1179 531 
Q 1179 533 , 1183 533 
Q 1186 534 , 1195 534 
Q 1204 534 , 1207 533 
Q 1211 533 , 1211 531 
L 1211 527 
L 1220 527 
L 1220 532 
Q 1220 533 , 1214 534 
Q 1207 534 , 1195 534 
Q 1183 534 , 1176 534 
Q 1170 533 , 1170 532 
L 1170 527 
" fill="#D21010" />
<path d="
M 1162 525 
L 1162 521 
L 1148 521 
L 1148 520 
L 1170 520 
L 1170 526 
Q 1165 526 , 1159 526 
Q 1154 527 , 1148 527 
Q 1135 527 , 1128 525 
Q 1120 523 , 1120 520 
Q 1120 517 , 1128 515 
Q 1135 513 , 1148 513 
Q 1154 513 , 1159 513 
Q 1164 513 , 1169 514 
L 1169 516 
Q 1162 515 , 1158 515 
Q 1154 515 , 1149 515 
Q 1139 515 , 1133 516 
Q 1128 517 , 1128 520 
Q 1128 523 , 1133 524 
Q 1139 525 , 1149 525 
Q 1154 525 , 1157 525 
Q 1161 525 , 1162 525 
" fill="lightgray" />
<path d="
M 1220 514 
L 1220 517 
Q 1213 515 , 1209 515 
Q 1204 515 , 1199 515 
Q 1189 515 , 1184 516 
Q 1178 517 , 1178 519 
Q 1178 522 , 1184 524 
Q 1189 525 , 1199 525 
Q 1204 525 , 1209 525 
Q 1213 524 , 1220 523 
L 1220 525 
Q 1215 526 , 1209 526 
Q 1205 527 , 1199 527 
Q 1185 527 , 1178 525 
Q 1170 523 , 1170 520 
Q 1170 517 , 1178 515 
Q 1185 513 , 1199 513 
Q 1205 513 , 1210 513 
Q 1215 514 , 1220 514 
" fill="#545FFF" />
<path d="
M 1225 550 
L 1243 550 
L 1243 553 
Q 1243 553 , 1251 554 
Q 1258 554 , 1275 554 
Q 1292 554 , 1300 554 
Q 1307 553 , 1307 553 
L 1307 550 
L 1325 550 
L 1325 553 
Q 1325 553 , 1312 554 
Q 1300 554 , 1275 554 
Q 1251 554 , 1238 554 
Q 1225 553 , 1225 553 
L 1225 550 
" fill="#D21010" />
<path d="
M 1275 543 
L 1257 547 
L 1291 547 
L 1275 543 
M 1268 542 
L 1282 542 
L 1325 550 
L 1309 550 
L 1297 547 
L 1253 547 
L 1240 550 
L 1225 550 
L 1268 542 
" fill="#339541" />
<path d="
M 1325 519 
L 1325 523 
Q 1310 520 , 1302 520 
Q 1294 519 , 1284 519 
Q 1263 519 , 1253 521 
Q 1241 524 , 1241 529 
Q 1241 534 , 1253 536 
Q 1263 539 , 1284 539 
Q 1294 539 , 1302 538 
Q 1310 538 , 1325 535 
L 1325 539 
Q 1314 541 , 1304 541 
Q 1294 542 , 1283 542 
Q 1256 542 , 1241 538 
Q 1225 535 , 1225 529 
Q 1225 523 , 1241 520 
Q 1256 516 , 1283 516 
Q 1294 516 , 1304 517 
Q 1315 517 , 1325 519 
" fill="#545FFF" />
<path d="
M 1309 510 
L 1309 501 
L 1280 501 
L 1280 497 
L 1325 497 
L 1325 513 
Q 1314 514 , 1303 515 
Q 1294 515 , 1282 515 
Q 1256 515 , 1240 511 
Q 1225 506 , 1225 498 
Q 1225 490 , 1240 486 
Q 1256 481 , 1282 481 
Q 1293 481 , 1302 482 
Q 1312 482 , 1322 484 
L 1322 488 
Q 1309 486 , 1301 486 
Q 1292 485 , 1283 485 
Q 1262 485 , 1251 488 
Q 1241 492 , 1241 498 
Q 1241 505 , 1251 508 
Q 1262 511 , 1283 511 
Q 1292 511 , 1299 511 
Q 1306 511 , 1309 510 
" fill="#F5C000" />
<path d="
M 1380 554 
L 1362 554 
L 1396 554 
L 1380 554 
M 1373 554 
L 1387 554 
L 1430 554 
L 1414 554 
L 1402 554 
L 1358 554 
L 1345 554 
L 1330 554 
L 1373 554 
" fill="#339541" />
<path d="
M 1330 553 
L 1348 553 
L 1348 553 
Q 1348 553 , 1356 553 
Q 1363 553 , 1380 553 
Q 1397 553 , 1405 553 
Q 1412 553 , 1412 553 
L 1412 553 
L 1430 553 
L 1430 553 
Q 1430 553 , 1417 553 
Q 1405 553 , 1380 553 
Q 1356 553 , 1343 553 
Q 1330 553 , 1330 553 
L 1330 553 
" fill="#D21010" />
<path d="
M 1430 552 
L 1430 552 
Q 1415 552 , 1407 552 
Q 1399 552 , 1389 552 
Q 1368 552 , 1358 552 
Q 1346 552 , 1346 552 
Q 1346 552 , 1358 552 
Q 1368 552 , 1389 552 
Q 1399 552 , 1407 552 
Q 1415 552 , 1430 552 
L 1430 552 
Q 1419 552 , 1409 552 
Q 1399 552 , 1388 552 
Q 1361 552 , 1346 552 
Q 1330 552 , 1330 552 
Q 1330 552 , 1346 552 
Q 1361 552 , 1388 552 
Q 1399 552 , 1409 552 
Q 1420 552 , 1430 552 
" fill="#545FFF" />
<path d="
M 1414 551 
L 1414 551 
L 1385 551 
L 1385 551 
L 1430 551 
L 1430 551 
Q 1419 551 , 1408 551 
Q 1399 551 , 1387 551 
Q 1361 551 , 1345 551 
Q 1330 551 , 1330 551 
Q 1330 551 , 1345 551 
Q 1361 551 , 1387 551 
Q 1398 551 , 1407 551 
Q 1417 551 , 1427 551 
L 1427 551 
Q 1414 551 , 1406 551 
Q 1397 551 , 1388 551 
Q 1367 551 , 1356 551 
Q 1346 551 , 1346 551 
Q 1346 551 , 1356 551 
Q 1367 551 , 1388 551 
Q 1397 551 , 1404 551 
Q 1411 551 , 1414 551 
" fill="#F5C000" />
<path d="M 65 168 L 65 555 " stroke="black" stroke-width="1.5"/>
<path d="M 55 555 L 65 555 " stroke="black" stroke-width="4"/>
<text text-anchor="end" x="50" y="555" font-size="50" alignment-baseline="middle">0</text>
<path d="M 55 362 L 65 362 " stroke="black" stroke-width="4"/>
<text text-anchor="end" x="50" y="362" font-size="50" alignment-baseline="middle">1</text>
<path d="M 55 168 L 65 168 " stroke="black" stroke-width="4"/>
<text text-anchor="end" x="50" y="168" font-size="50" alignment-baseline="middle">2</text>
<text text-anchor="middle" x="750" y="50" font-size="50" alignment-baseline="baseline"></text>
G<path d="
M 160 582 
L 126 595 
L 160 608 
L 157 611 
L 123 598 
L 123 623 
L 117 623 
L 117 599 
L 83 611 
L 80 608 
L 114 595 
L 80 582 
L 83 579 
L 117 591 
L 117 567 
L 123 567 
L 123 591 
L 157 579 
L 160 582 
" fill="black" />
<path d="
" fill="black" />
<path d="
M 211 567 
L 238 567 
L 238 623 
L 211 623 
L 211 567 
" fill="black" />
<path d="
" fill="black" />
<path d="
" fill="black" />
<path d="
M 316 567 
L 343 567 
L 343 623 
L 316 623 
L 316 567 
" fill="black" />
<path d="
" fill="black" />
<path d="
" fill="black" />
<path d="
M 421 567 
L 448 567 
L 448 623 
L 421 623 
L 421 567 
" fill="black" />
<path d="
" fill="black" />
<path d="
M 580 567 
Q 551 574 , 538 581 
Q 525 588 , 525 595 
Q 525 602 , 538 609 
Q 551 616 , 580 623 
L 556 623 
Q 528 616 , 514 609 
Q 500 602 , 500 595 
Q 500 588 , 514 581 
Q 528 574 , 556 567 
L 580 567 
" fill="black" />
<path d="
" fill="black" />
<path d="
M 622 567 
L 642 567 
L 642 623 
L 622 623 
L 622 567 
" fill="black" />
<path d="
" fill="black" />
<path d="
M 672 567 
L 692 567 
L 692 571 
L 680 623 
L 677 623 
L 689 571 
L 672 571 
L 672 567 
" fill="black" />
<path d="
M 790 582 
L 756 595 
L 790 608 
L 787 611 
L 753 598 
L 753 623 
L 747 623 
L 747 599 
L 713 611 
L 710 608 
L 744 595 
L 710 582 
L 713 579 
L 747 591 
L 747 567 
L 753 567 
L 753 591 
L 787 579 
L 790 582 
" fill="black" />
<path d="
" fill="black" />
<path d="
M 841 567 
L 868 567 
L 868 623 
L 841 623 
L 841 567 
" fill="black" />
<path d="
" fill="black" />
<path d="
" fill="black" />
<path d="
M 946 567 
L 973 567 
L 973 623 
L 946 623 
L 946 567 
" fill="black" />
<path d="
" fill="black" />
<path d="
" fill="black" />
<path d="
M 1051 567 
L 1078 567 
L 1078 623 
L 1051 623 
L 1051 567 
" fill="black" />
<path d="
" fill="black" />
<path d="
M 1130 567 
L 1154 567 
Q 1182 574 , 1196 581 
Q 1210 588 , 1210 595 
Q 1210 602 , 1196 609 
Q 1182 616 , 1154 623 
L 1130 623 
Q 1159 616 , 1172 609 
Q 1185 602 , 1185 595 
Q 1185 588 , 1172 581 
Q 1159 574 , 1130 567 
" fill="black" />
<path d="
" fill="black" />
<path d="
M 1261 567 
L 1288 567 
L 1288 623 
L 1261 623 
L 1261 567 
" fill="black" />
<path d="
" fill="black" />
<path d="
M 1420 582 
L 1386 595 
L 1420 608 
L 1417 611 
L 1383 598 
L 1383 623 
L 1377 623 
L 1377 599 
L 1343 611 
L 1340 608 
L 1374 595 
L 1340 582 
L 1343 579 
L 1377 591 
L 1377 567 
L 1383 567 
L 1383 591 
L 1417 579 
L 1420 582 
" fill="black" />
</svg>
