<svg xmlns="http://www.w3.org/2000/svg"
viewBox="0 0 1435 635">
<path d="
M 120 554 
L 102 554 
L 136 554 
L 120 554 
M 113 554 
L 127 554 
L 170 554 
L 154 554 
L 142 554 
L 98 554 
L 85 554 
L 70 554 
L 113 554 
" fill="#339541" />
<path d="
M 70 553 
L 88 553 
L 88 553 
Q 88 553 , 96 553 
Q 103 553 , 120 553 
Q 137 553 , 145 553 
Q 152 553 , 152 553 
L 152 553 
L 170 553 
L 170 553 
Q 170 553 , 157 553 
Q 145 553 , 120 553 
Q 96 553 , 83 553 
Q 70 553 , 70 553 
L 70 553 
" fill="#D21010" />
<path d="
M 170 552 
L 170 552 
Q 155 552 , 147 552 
Q 139 552 , 129 552 
Q 108 552 , 98 552 
Q 86 552 , 86 552 
Q 86 552 , 98 552 
Q 108 552 , 129 552 
Q 139 552 , 147 552 
Q 155 552 , 170 552 
L 170 552 
Q 159 552 , 149 552 
Q 139 552 , 128 552 
Q 101 552 , 86 552 
Q 70 552 , 70 552 
Q 70 552 , 86 552 
Q 101 552 , 128 552 
Q 139 552 , 149 552 
Q 160 552 , 170 552 
" fill="#545FFF" />
<path d="
M 154 551 
L 154 551 
L 125 551 
L 125 551 
L 170 551 
L 170 551 
Q 159 552 , 148 552 
Q 139 552 , 127 552 
Q 101 552 , 85 551 
Q 70 551 , 70 551 
Q 70 551 , 85 551 
Q 101 551 , 127 551 
Q 138 551 , 147 551 
Q 157 551 , 167 551 
L 167 551 
Q 154 551 , 146 551 
Q 137 551 , 128 551 
Q 107 551 , 96 551 
Q 86 551 , 86 551 
Q 86 551 , 96 551 
Q 107 551 , 128 551 
Q 137 551 , 144 551 
Q 151 551 , 154 551 
" fill="#F5C000" />
<path d="
M 259 554 
L 259 553 
L 230 553 
L 230 552 
L 275 552 
L 275 554 
Q 264 555 , 253 555 
Q 244 555 , 232 555 
Q 206 555 , 190 554 
Q 175 553 , 175 552 
Q 175 551 , 190 551 
Q 206 550 , 232 550 
Q 243 550 , 252 550 
Q 262 550 , 272 550 
L 272 551 
Q 259 551 , 251 551 
Q 242 551 , 233 551 
Q 212 551 , 201 551 
Q 191 551 , 191 552 
Q 191 553 , 201 554 
Q 212 554 , 233 554 
Q 242 554 , 249 554 
Q 256 554 , 259 554 
" fill="#F5C000" />
<path d="
M 225 544 
L 207 547 
L 241 547 
L 225 544 
M 218 543 
L 232 543 
L 275 550 
L 259 550 
L 247 548 
L 203 548 
L 190 550 
L 175 550 
L 218 543 
" fill="#339541" />
<path d="
M 275 534 
L 275 536 
Q 260 535 , 252 534 
Q 244 534 , 234 534 
Q 213 534 , 203 535 
Q 191 536 , 191 538 
Q 191 540 , 203 541 
Q 213 542 , 234 542 
Q 244 542 , 252 542 
Q 260 541 , 275 540 
L 275 542 
Q 264 542 , 254 543 
Q 244 543 , 233 543 
Q 206 543 , 191 542 
Q 175 540 , 175 538 
Q 175 536 , 191 534 
Q 206 533 , 233 533 
Q 244 533 , 254 533 
Q 265 533 , 275 534 
" fill="#545FFF" />
<path d="
M 175 512 
L 193 512 
L 193 524 
Q 193 527 , 201 529 
Q 208 530 , 225 530 
Q 242 530 , 250 529 
Q 257 527 , 257 524 
L 257 512 
L 275 512 
L 275 524 
Q 275 528 , 262 530 
Q 250 532 , 225 532 
Q 201 532 , 188 530 
Q 175 528 , 175 524 
L 175 512 
" fill="#D21010" />
<path d="
M 330 551 
L 312 553 
L 346 553 
L 330 551 
M 323 550 
L 337 550 
L 380 554 
L 364 554 
L 352 553 
L 308 553 
L 295 554 
L 280 554 
L 323 550 
" fill="#339541" />
<path d="
M 280 535 
L 298 535 
L 298 543 
Q 298 546 , 306 547 
Q 313 547 , 330 547 
Q 347 547 , 355 547 
Q 362 546 , 362 543 
L 362 535 
L 380 535 
L 380 544 
Q 380 546 , 367 548 
Q 355 549 , 330 549 
Q 306 549 , 293 548 
Q 280 546 , 280 544 
L 280 535 
" fill="#D21010" />
<path d="
M 380 517 
L 380 520 
Q 365 518 , 357 518 
Q 349 517 , 339 517 
Q 318 517 , 308 519 
Q 296 521 , 296 525 
Q 296 529 , 308 531 
Q 318 532 , 339 532 
Q 349 532 , 357 532 
Q 365 531 , 380 529 
L 380 533 
Q 369 534 , 359 534 
Q 349 535 , 338 535 
Q 311 535 , 296 532 
Q 280 529 , 280 525 
Q 280 520 , 296 518 
Q 311 515 , 338 515 
Q 349 515 , 359 515 
Q 370 516 , 380 517 
" fill="#545FFF" />
<path d="
M 364 505 
L 364 488 
L 335 488 
L 335 481 
L 380 481 
L 380 510 
Q 369 512 , 358 513 
Q 349 514 , 337 515 
Q 311 515 , 295 506 
Q 280 498 , 280 483 
Q 280 468 , 295 460 
Q 311 451 , 337 451 
Q 348 451 , 357 452 
Q 367 453 , 377 456 
L 377 464 
Q 364 461 , 356 460 
Q 347 459 , 338 459 
Q 317 459 , 306 465 
Q 296 471 , 296 483 
Q 296 495 , 306 501 
Q 317 507 , 338 507 
Q 347 507 , 354 507 
Q 361 506 , 364 505 
" fill="#F5C000" />
<path d="
M 435 552 
L 417 553 
L 451 553 
L 435 552 
M 428 551 
L 442 551 
L 485 554 
L 469 554 
L 457 553 
L 413 553 
L 400 554 
L 385 554 
L 428 551 
" fill="#339541" />
<path d="
M 385 543 
L 403 543 
L 403 548 
Q 403 549 , 411 549 
Q 418 550 , 435 550 
Q 452 550 , 460 549 
Q 467 549 , 467 548 
L 467 543 
L 485 543 
L 485 548 
Q 485 549 , 472 550 
Q 460 551 , 435 551 
Q 411 551 , 398 550 
Q 385 549 , 385 548 
L 385 543 
" fill="#D21010" />
<path d="
M 469 541 
L 469 539 
L 440 539 
L 440 538 
L 485 538 
L 485 542 
Q 474 542 , 463 542 
Q 454 542 , 442 542 
Q 416 542 , 400 541 
Q 385 540 , 385 538 
Q 385 536 , 400 535 
Q 416 534 , 442 534 
Q 453 534 , 462 534 
Q 472 534 , 482 535 
L 482 536 
Q 469 535 , 461 535 
Q 452 535 , 443 535 
Q 422 535 , 411 536 
Q 401 537 , 401 538 
Q 401 540 , 411 541 
Q 422 541 , 443 541 
Q 452 541 , 459 541 
Q 466 541 , 469 541 
" fill="#F5C000" />
<path d="
M 485 521 
L 485 523 
Q 470 521 , 462 521 
Q 454 521 , 444 521 
Q 423 521 , 413 522 
Q 401 524 , 401 526 
Q 401 529 , 413 531 
Q 423 532 , 444 532 
Q 454 532 , 462 532 
Q 470 531 , 485 530 
L 485 532 
Q 474 533 , 464 533 
Q 454 534 , 443 534 
Q 416 534 , 401 532 
Q 385 530 , 385 526 
Q 385 523 , 401 521 
Q 416 519 , 443 519 
Q 454 519 , 464 519 
Q 475 520 , 485 521 
" fill="#545FFF" />
<path d="
M 590 551 
L 590 552 
Q 575 552 , 567 552 
Q 559 551 , 549 551 
Q 528 551 , 518 552 
Q 506 552 , 506 553 
Q 506 554 , 518 554 
Q 528 554 , 549 554 
Q 559 554 , 567 554 
Q 575 554 , 590 554 
L 590 554 
Q 579 555 , 569 555 
Q 559 555 , 548 555 
Q 521 555 , 506 554 
Q 490 554 , 490 553 
Q 490 552 , 506 552 
Q 521 551 , 548 551 
Q 559 551 , 569 551 
Q 580 551 , 590 551 
" fill="#545FFF" />
<path d="
M 540 543 
L 522 547 
L 556 547 
L 540 543 
M 533 542 
L 547 542 
L 590 550 
L 574 550 
L 562 548 
L 518 548 
L 505 550 
L 490 550 
L 533 542 
" fill="#339541" />
<path d="
M 574 538 
L 574 532 
L 545 532 
L 545 529 
L 590 529 
L 590 540 
Q 579 541 , 568 541 
Q 559 541 , 547 541 
Q 521 541 , 505 538 
Q 490 535 , 490 530 
Q 490 524 , 505 521 
Q 521 518 , 547 518 
Q 558 518 , 567 518 
Q 577 519 , 587 520 
L 587 523 
Q 574 522 , 566 521 
Q 557 521 , 548 521 
Q 527 521 , 516 523 
Q 506 525 , 506 530 
Q 506 534 , 516 537 
Q 527 539 , 548 539 
Q 557 539 , 564 539 
Q 571 538 , 574 538 
" fill="#F5C000" />
<path d="
M 490 489 
L 508 489 
L 508 506 
Q 508 511 , 516 513 
Q 523 515 , 540 515 
Q 557 515 , 565 513 
Q 572 511 , 572 506 
L 572 489 
L 590 489 
L 590 507 
Q 590 512 , 577 515 
Q 565 518 , 540 518 
Q 516 518 , 503 515 
Q 490 512 , 490 507 
L 490 489 
" fill="#D21010" />
<path d="
M 637 555 
L 637 554 
L 623 554 
L 623 554 
L 645 554 
L 645 555 
Q 640 555 , 634 555 
Q 629 555 , 623 555 
Q 610 555 , 603 555 
Q 595 554 , 595 554 
Q 595 553 , 603 553 
Q 610 553 , 623 553 
Q 629 553 , 634 553 
Q 639 553 , 644 553 
L 644 553 
Q 637 553 , 633 553 
Q 629 553 , 624 553 
Q 614 553 , 608 553 
Q 603 554 , 603 554 
Q 603 554 , 608 554 
Q 614 555 , 624 555 
Q 629 555 , 632 555 
Q 636 555 , 637 555 
" fill="#F5C000" />
<path d="
M 645 553 
L 654 553 
L 654 554 
Q 654 554 , 658 554 
Q 661 555 , 670 555 
Q 679 555 , 682 554 
Q 686 554 , 686 554 
L 686 553 
L 695 553 
L 695 554 
Q 695 554 , 689 555 
Q 682 555 , 670 555 
Q 658 555 , 651 555 
Q 645 554 , 645 554 
L 645 553 
" fill="lightgray" />
<path d="
M 620 549 
L 611 551 
L 628 551 
L 620 549 
M 616 548 
L 624 548 
L 645 553 
L 637 553 
L 631 551 
L 609 551 
L 602 553 
L 595 553 
L 616 548 
" fill="#339541" />
<path d="
M 645 548 
L 654 548 
L 654 551 
Q 654 551 , 658 552 
Q 661 552 , 670 552 
Q 679 552 , 682 552 
Q 686 551 , 686 551 
L 686 548 
L 695 548 
L 695 551 
Q 695 552 , 689 552 
Q 682 553 , 670 553 
Q 658 553 , 651 552 
Q 645 552 , 645 551 
L 645 548 
" fill="lightgray" />
<path d="
M 595 541 
L 604 541 
L 604 545 
Q 604 546 , 608 547 
Q 611 547 , 620 547 
Q 629 547 , 632 547 
Q 636 546 , 636 545 
L 636 541 
L 645 541 
L 645 545 
Q 645 547 , 639 547 
Q 632 548 , 620 548 
Q 608 548 , 601 547 
Q 595 547 , 595 545 
L 595 541 
" fill="#D21010" />
<path d="
M 670 542 
L 661 545 
L 678 545 
L 670 542 
M 666 541 
L 674 541 
L 695 548 
L 687 548 
L 681 546 
L 659 546 
L 652 548 
L 645 548 
L 666 541 
" fill="lightgray" />
<path d="
M 595 524 
L 604 524 
L 604 534 
Q 604 537 , 608 538 
Q 611 539 , 620 539 
Q 629 539 , 632 538 
Q 636 537 , 636 534 
L 636 524 
L 645 524 
L 645 534 
Q 645 537 , 639 539 
Q 632 541 , 620 541 
Q 608 541 , 601 539 
Q 595 537 , 595 534 
L 595 524 
" fill="#D21010" />
<path d="
M 687 538 
L 687 534 
L 673 534 
L 673 532 
L 695 532 
L 695 539 
Q 690 540 , 684 540 
Q 679 541 , 673 541 
Q 660 541 , 653 538 
Q 645 536 , 645 532 
Q 645 528 , 653 526 
Q 660 524 , 673 524 
Q 679 524 , 684 524 
Q 689 525 , 694 525 
L 694 527 
Q 687 527 , 683 526 
Q 679 526 , 674 526 
Q 664 526 , 658 528 
Q 653 529 , 653 532 
Q 653 536 , 658 537 
Q 664 539 , 674 539 
Q 679 539 , 682 539 
Q 686 539 , 687 538 
" fill="lightgray" />
<path d="
M 645 486 
L 645 493 
Q 638 489 , 634 488 
Q 629 487 , 624 487 
Q 614 487 , 609 491 
Q 603 495 , 603 503 
Q 603 511 , 609 515 
Q 614 519 , 624 519 
Q 629 519 , 634 518 
Q 638 517 , 645 513 
L 645 520 
Q 640 522 , 634 523 
Q 630 524 , 624 524 
Q 610 524 , 603 518 
Q 595 512 , 595 503 
Q 595 493 , 603 488 
Q 610 482 , 624 482 
Q 630 482 , 635 483 
Q 640 484 , 645 486 
" fill="#545FFF" />
<path d="
M 687 518 
L 687 507 
L 673 507 
L 673 502 
L 695 502 
L 695 521 
Q 690 522 , 684 523 
Q 679 524 , 673 524 
Q 660 524 , 653 518 
Q 645 513 , 645 503 
Q 645 493 , 653 488 
Q 660 482 , 673 482 
Q 679 482 , 684 483 
Q 689 483 , 694 485 
L 694 491 
Q 687 488 , 683 488 
Q 679 487 , 674 487 
Q 664 487 , 658 491 
Q 653 495 , 653 503 
Q 653 511 , 658 515 
Q 664 519 , 674 519 
Q 679 519 , 682 519 
Q 686 518 , 687 518 
" fill="lightgray" />
<path d="
M 637 474 
L 637 459 
L 623 459 
L 623 453 
L 645 453 
L 645 477 
Q 640 479 , 634 480 
Q 629 481 , 623 481 
Q 610 481 , 603 474 
Q 595 467 , 595 455 
Q 595 442 , 603 435 
Q 610 428 , 623 428 
Q 629 428 , 634 429 
Q 639 430 , 644 432 
L 644 439 
Q 637 436 , 633 435 
Q 629 434 , 624 434 
Q 614 434 , 608 439 
Q 603 444 , 603 455 
Q 603 465 , 608 470 
Q 614 475 , 624 475 
Q 629 475 , 632 475 
Q 636 474 , 637 474 
" fill="#F5C000" />
<path d="
M 695 434 
L 695 442 
Q 688 437 , 684 435 
Q 679 434 , 674 434 
Q 664 434 , 659 439 
Q 653 444 , 653 454 
Q 653 465 , 659 470 
Q 664 475 , 674 475 
Q 679 475 , 684 474 
Q 688 473 , 695 467 
L 695 476 
Q 690 479 , 684 480 
Q 680 481 , 674 481 
Q 660 481 , 653 474 
Q 645 467 , 645 455 
Q 645 442 , 653 435 
Q 660 428 , 674 428 
Q 680 428 , 685 429 
Q 690 431 , 695 434 
" fill="lightgray" />
<path d="
M 750 554 
L 732 554 
L 766 554 
L 750 554 
M 743 554 
L 757 554 
L 800 554 
L 784 554 
L 772 554 
L 728 554 
L 715 554 
L 700 554 
L 743 554 
" fill="#339541" />
<path d="
M 700 553 
L 718 553 
L 718 553 
Q 718 553 , 726 553 
Q 733 553 , 750 553 
Q 767 553 , 775 553 
Q 782 553 , 782 553 
L 782 553 
L 800 553 
L 800 553 
Q 800 553 , 787 553 
Q 775 553 , 750 553 
Q 726 553 , 713 553 
Q 700 553 , 700 553 
L 700 553 
" fill="#D21010" />
<path d="
M 800 552 
L 800 552 
Q 785 552 , 777 552 
Q 769 552 , 759 552 
Q 738 552 , 728 552 
Q 716 552 , 716 552 
Q 716 552 , 728 552 
Q 738 552 , 759 552 
Q 769 552 , 777 552 
Q 785 552 , 800 552 
L 800 552 
Q 789 552 , 779 552 
Q 769 552 , 758 552 
Q 731 552 , 716 552 
Q 700 552 , 700 552 
Q 700 552 , 716 552 
Q 731 552 , 758 552 
Q 769 552 , 779 552 
Q 790 552 , 800 552 
" fill="#545FFF" />
<path d="
M 784 551 
L 784 551 
L 755 551 
L 755 551 
L 800 551 
L 800 551 
Q 789 552 , 778 552 
Q 769 552 , 757 552 
Q 731 552 , 715 551 
Q 700 551 , 700 551 
Q 700 551 , 715 551 
Q 731 551 , 757 551 
Q 768 551 , 777 551 
Q 787 551 , 797 551 
L 797 551 
Q 784 551 , 776 551 
Q 767 551 , 758 551 
Q 737 551 , 726 551 
Q 716 551 , 716 551 
Q 716 551 , 726 551 
Q 737 551 , 758 551 
Q 767 551 , 774 551 
Q 781 551 , 784 551 
" fill="#F5C000" />
<path d="
M 805 552 
L 823 552 
L 823 553 
Q 823 554 , 831 554 
Q 838 554 , 855 554 
Q 872 554 , 880 554 
Q 887 554 , 887 553 
L 887 552 
L 905 552 
L 905 553 
Q 905 554 , 892 554 
Q 880 554 , 855 554 
Q 831 554 , 818 554 
Q 805 554 , 805 553 
L 805 552 
" fill="#D21010" />
<path d="
M 855 542 
L 837 547 
L 871 547 
L 855 542 
M 848 540 
L 862 540 
L 905 552 
L 889 552 
L 877 548 
L 833 548 
L 820 552 
L 805 552 
L 848 540 
" fill="#339541" />
<path d="
M 905 524 
L 905 526 
Q 890 525 , 882 524 
Q 874 524 , 864 524 
Q 843 524 , 833 526 
Q 821 527 , 821 530 
Q 821 534 , 833 536 
Q 843 537 , 864 537 
Q 874 537 , 882 537 
Q 890 536 , 905 535 
L 905 538 
Q 894 538 , 884 539 
Q 874 539 , 863 539 
Q 836 539 , 821 537 
Q 805 535 , 805 531 
Q 805 527 , 821 524 
Q 836 522 , 863 522 
Q 874 522 , 884 522 
Q 895 523 , 905 524 
" fill="#545FFF" />
<path d="
M 889 519 
L 889 514 
L 860 514 
L 860 512 
L 905 512 
L 905 520 
Q 894 521 , 883 522 
Q 874 522 , 862 522 
Q 836 522 , 820 519 
Q 805 517 , 805 512 
Q 805 507 , 820 505 
Q 836 502 , 862 502 
Q 873 502 , 882 502 
Q 892 503 , 902 504 
L 902 506 
Q 889 505 , 881 505 
Q 872 504 , 863 504 
Q 842 504 , 831 506 
Q 821 508 , 821 512 
Q 821 516 , 831 518 
Q 842 520 , 863 520 
Q 872 520 , 879 519 
Q 886 519 , 889 519 
" fill="#F5C000" />
<path d="
M 1010 550 
L 1010 551 
Q 995 551 , 987 551 
Q 979 551 , 969 551 
Q 948 551 , 938 551 
Q 926 551 , 926 552 
Q 926 553 , 938 554 
Q 948 554 , 969 554 
Q 979 554 , 987 554 
Q 995 554 , 1010 553 
L 1010 554 
Q 999 554 , 989 555 
Q 979 555 , 968 555 
Q 941 555 , 926 554 
Q 910 553 , 910 552 
Q 910 551 , 926 551 
Q 941 550 , 968 550 
Q 979 550 , 989 550 
Q 1000 550 , 1010 550 
" fill="#545FFF" />
<path d="
M 994 549 
L 994 547 
L 965 547 
L 965 546 
L 1010 546 
L 1010 549 
Q 999 549 , 988 549 
Q 979 550 , 967 550 
Q 941 550 , 925 549 
Q 910 548 , 910 546 
Q 910 545 , 925 544 
Q 941 543 , 967 543 
Q 978 543 , 987 543 
Q 997 543 , 1007 544 
L 1007 544 
Q 994 544 , 986 544 
Q 977 544 , 968 544 
Q 947 544 , 936 544 
Q 926 545 , 926 546 
Q 926 548 , 936 548 
Q 947 549 , 968 549 
Q 977 549 , 984 549 
Q 991 549 , 994 549 
" fill="#F5C000" />
<path d="
M 960 532 
L 942 537 
L 976 537 
L 960 532 
M 953 530 
L 967 530 
L 1010 543 
L 994 543 
L 982 539 
L 938 539 
L 925 543 
L 910 543 
L 953 530 
" fill="#339541" />
<path d="
M 910 508 
L 928 508 
L 928 521 
Q 928 524 , 936 526 
Q 943 527 , 960 527 
Q 977 527 , 985 526 
Q 992 524 , 992 521 
L 992 508 
L 1010 508 
L 1010 521 
Q 1010 525 , 997 527 
Q 985 529 , 960 529 
Q 936 529 , 923 527 
Q 910 525 , 910 521 
L 910 508 
" fill="#D21010" />
<path d="
M 1065 549 
L 1047 552 
L 1081 552 
L 1065 549 
M 1058 548 
L 1072 548 
L 1115 555 
L 1099 555 
L 1087 553 
L 1043 553 
L 1030 555 
L 1015 555 
L 1058 548 
" fill="#339541" />
<path d="
M 1015 540 
L 1033 540 
L 1033 544 
Q 1033 545 , 1041 546 
Q 1048 546 , 1065 546 
Q 1082 546 , 1090 546 
Q 1097 545 , 1097 544 
L 1097 540 
L 1115 540 
L 1115 544 
Q 1115 546 , 1102 547 
Q 1090 547 , 1065 547 
Q 1041 547 , 1028 547 
Q 1015 546 , 1015 544 
L 1015 540 
" fill="#D21010" />
<path d="
M 1115 520 
L 1115 524 
Q 1100 521 , 1092 521 
Q 1084 520 , 1074 520 
Q 1053 520 , 1043 522 
Q 1031 525 , 1031 529 
Q 1031 533 , 1043 535 
Q 1053 537 , 1074 537 
Q 1084 537 , 1092 537 
Q 1100 536 , 1115 534 
L 1115 537 
Q 1104 539 , 1094 539 
Q 1084 540 , 1073 540 
Q 1046 540 , 1031 537 
Q 1015 534 , 1015 529 
Q 1015 524 , 1031 521 
Q 1046 518 , 1073 518 
Q 1084 518 , 1094 519 
Q 1105 519 , 1115 520 
" fill="#545FFF" />
<path d="
M 1099 491 
L 1099 441 
L 1070 441 
L 1070 420 
L 1115 420 
L 1115 503 
Q 1104 511 , 1093 514 
Q 1084 518 , 1072 518 
Q 1046 518 , 1030 493 
Q 1015 468 , 1015 424 
Q 1015 380 , 1030 355 
Q 1046 330 , 1072 330 
Q 1083 330 , 1092 333 
Q 1102 337 , 1112 345 
L 1112 369 
Q 1099 359 , 1091 355 
Q 1082 352 , 1073 352 
Q 1052 352 , 1041 370 
Q 1031 388 , 1031 424 
Q 1031 461 , 1041 479 
Q 1052 497 , 1073 497 
Q 1082 497 , 1089 495 
Q 1096 493 , 1099 491 
" fill="#F5C000" />
<path d="
M 1162 555 
L 1162 554 
L 1148 554 
L 1148 554 
L 1170 554 
L 1170 555 
Q 1165 555 , 1159 555 
Q 1154 555 , 1148 555 
Q 1135 555 , 1128 555 
Q 1120 554 , 1120 554 
Q 1120 553 , 1128 553 
Q 1135 553 , 1148 553 
Q 1154 553 , 1159 553 
Q 1164 553 , 1169 553 
L 1169 553 
Q 1162 553 , 1158 553 
Q 1154 553 , 1149 553 
Q 1139 553 , 1133 553 
Q 1128 554 , 1128 554 
Q 1128 554 , 1133 554 
Q 1139 555 , 1149 555 
Q 1154 555 , 1157 555 
Q 1161 555 , 1162 555 
" fill="lightgray" />
<path d="
M 1170 553 
L 1179 553 
L 1179 554 
Q 1179 554 , 1183 554 
Q 1186 555 , 1195 555 
Q 1204 555 , 1207 554 
Q 1211 554 , 1211 554 
L 1211 553 
L 1220 553 
L 1220 554 
Q 1220 554 , 1214 555 
Q 1207 555 , 1195 555 
Q 1183 555 , 1176 555 
Q 1170 554 , 1170 554 
L 1170 553 
" fill="#D21010" />
<path d="
M 1145 549 
L 1136 551 
L 1153 551 
L 1145 549 
M 1141 548 
L 1149 548 
L 1170 553 
L 1162 553 
L 1156 551 
L 1134 551 
L 1127 553 
L 1120 553 
L 1141 548 
" fill="lightgray" />
<path d="
M 1170 548 
L 1179 548 
L 1179 551 
Q 1179 551 , 1183 552 
Q 1186 552 , 1195 552 
Q 1204 552 , 1207 552 
Q 1211 551 , 1211 551 
L 1211 548 
L 1220 548 
L 1220 551 
Q 1220 552 , 1214 552 
Q 1207 553 , 1195 553 
Q 1183 553 , 1176 552 
Q 1170 552 , 1170 551 
L 1170 548 
" fill="#D21010" />
<path d="
M 1120 541 
L 1129 541 
L 1129 545 
Q 1129 546 , 1133 547 
Q 1136 547 , 1145 547 
Q 1154 547 , 1157 547 
Q 1161 546 , 1161 545 
L 1161 541 
L 1170 541 
L 1170 545 
Q 1170 547 , 1164 547 
Q 1157 548 , 1145 548 
Q 1133 548 , 1126 547 
Q 1120 547 , 1120 545 
L 1120 541 
" fill="lightgray" />
<path d="
M 1195 542 
L 1186 545 
L 1203 545 
L 1195 542 
M 1191 541 
L 1199 541 
L 1220 548 
L 1212 548 
L 1206 546 
L 1184 546 
L 1177 548 
L 1170 548 
L 1191 541 
" fill="#339541" />
<path d="
M 1120 524 
L 1129 524 
L 1129 534 
Q 1129 537 , 1133 538 
Q 1136 539 , 1145 539 
Q 1154 539 , 1157 538 
Q 1161 537 , 1161 534 
L 1161 524 
L 1170 524 
L 1170 534 
Q 1170 537 , 1164 539 
Q 1157 541 , 1145 541 
Q 1133 541 , 1126 539 
Q 1120 537 , 1120 534 
L 1120 524 
" fill="lightgray" />
<path d="
M 1212 538 
L 1212 534 
L 1198 534 
L 1198 532 
L 1220 532 
L 1220 539 
Q 1215 540 , 1209 540 
Q 1204 541 , 1198 541 
Q 1185 541 , 1178 538 
Q 1170 536 , 1170 532 
Q 1170 528 , 1178 526 
Q 1185 524 , 1198 524 
Q 1204 524 , 1209 524 
Q 1214 525 , 1219 525 
L 1219 527 
Q 1212 527 , 1208 526 
Q 1204 526 , 1199 526 
Q 1189 526 , 1183 528 
Q 1178 529 , 1178 532 
Q 1178 536 , 1183 537 
Q 1189 539 , 1199 539 
Q 1204 539 , 1207 539 
Q 1211 539 , 1212 538 
" fill="#F5C000" />
<path d="
M 1170 486 
L 1170 493 
Q 1163 489 , 1159 488 
Q 1154 487 , 1149 487 
Q 1139 487 , 1134 491 
Q 1128 495 , 1128 503 
Q 1128 511 , 1134 515 
Q 1139 519 , 1149 519 
Q 1154 519 , 1159 518 
Q 1163 517 , 1170 513 
L 1170 520 
Q 1165 522 , 1159 523 
Q 1155 524 , 1149 524 
Q 1135 524 , 1128 518 
Q 1120 512 , 1120 503 
Q 1120 493 , 1128 488 
Q 1135 482 , 1149 482 
Q 1155 482 , 1160 483 
Q 1165 484 , 1170 486 
" fill="lightgray" />
<path d="
M 1212 518 
L 1212 507 
L 1198 507 
L 1198 502 
L 1220 502 
L 1220 521 
Q 1215 522 , 1209 523 
Q 1204 524 , 1198 524 
Q 1185 524 , 1178 518 
Q 1170 513 , 1170 503 
Q 1170 493 , 1178 488 
Q 1185 482 , 1198 482 
Q 1204 482 , 1209 483 
Q 1214 483 , 1219 485 
L 1219 491 
Q 1212 488 , 1208 488 
Q 1204 487 , 1199 487 
Q 1189 487 , 1183 491 
Q 1178 495 , 1178 503 
Q 1178 511 , 1183 515 
Q 1189 519 , 1199 519 
Q 1204 519 , 1207 519 
Q 1211 518 , 1212 518 
" fill="#F5C000" />
<path d="
M 1162 474 
L 1162 459 
L 1148 459 
L 1148 453 
L 1170 453 
L 1170 477 
Q 1165 479 , 1159 480 
Q 1154 481 , 1148 481 
Q 1135 481 , 1128 474 
Q 1120 467 , 1120 455 
Q 1120 442 , 1128 435 
Q 1135 428 , 1148 428 
Q 1154 428 , 1159 429 
Q 1164 430 , 1169 432 
L 1169 439 
Q 1162 436 , 1158 435 
Q 1154 434 , 1149 434 
Q 1139 434 , 1133 439 
Q 1128 444 , 1128 455 
Q 1128 465 , 1133 470 
Q 1139 475 , 1149 475 
Q 1154 475 , 1157 475 
Q 1161 474 , 1162 474 
" fill="lightgray" />
<path d="
M 1220 434 
L 1220 442 
Q 1213 437 , 1209 435 
Q 1204 434 , 1199 434 
Q 1189 434 , 1184 439 
Q 1178 444 , 1178 454 
Q 1178 465 , 1184 470 
Q 1189 475 , 1199 475 
Q 1204 475 , 1209 474 
Q 1213 473 , 1220 467 
L 1220 476 
Q 1215 479 , 1209 480 
Q 1205 481 , 1199 481 
Q 1185 481 , 1178 474 
Q 1170 467 , 1170 455 
Q 1170 442 , 1178 435 
Q 1185 428 , 1199 428 
Q 1205 428 , 1210 429 
Q 1215 431 , 1220 434 
" fill="#545FFF" />
<path d="
M 1325 551 
L 1325 552 
Q 1310 552 , 1302 552 
Q 1294 551 , 1284 551 
Q 1263 551 , 1253 552 
Q 1241 552 , 1241 553 
Q 1241 554 , 1253 554 
Q 1263 554 , 1284 554 
Q 1294 554 , 1302 554 
Q 1310 554 , 1325 554 
L 1325 554 
Q 1314 555 , 1304 555 
Q 1294 555 , 1283 555 
Q 1256 555 , 1241 554 
Q 1225 554 , 1225 553 
Q 1225 552 , 1241 552 
Q 1256 551 , 1283 551 
Q 1294 551 , 1304 551 
Q 1315 551 , 1325 551 
" fill="#545FFF" />
<path d="
M 1309 550 
L 1309 549 
L 1280 549 
L 1280 549 
L 1325 549 
L 1325 551 
Q 1314 551 , 1303 551 
Q 1294 551 , 1282 551 
Q 1256 551 , 1240 550 
Q 1225 550 , 1225 549 
Q 1225 548 , 1240 548 
Q 1256 547 , 1282 547 
Q 1293 547 , 1302 547 
Q 1312 547 , 1322 547 
L 1322 548 
Q 1309 548 , 1301 548 
Q 1292 547 , 1283 547 
Q 1262 547 , 1251 548 
Q 1241 548 , 1241 549 
Q 1241 550 , 1251 550 
Q 1262 550 , 1283 550 
Q 1292 550 , 1299 550 
Q 1306 550 , 1309 550 
" fill="#F5C000" />
<path d="
M 1225 542 
L 1243 542 
L 1243 544 
Q 1243 545 , 1251 545 
Q 1258 546 , 1275 546 
Q 1292 546 , 1300 545 
Q 1307 545 , 1307 544 
L 1307 542 
L 1325 542 
L 1325 544 
Q 1325 545 , 1312 546 
Q 1300 546 , 1275 546 
Q 1251 546 , 1238 546 
Q 1225 545 , 1225 544 
L 1225 542 
" fill="#D21010" />
<path d="
M 1275 535 
L 1257 538 
L 1291 538 
L 1275 535 
M 1268 533 
L 1282 533 
L 1325 542 
L 1309 542 
L 1297 539 
L 1253 539 
L 1240 542 
L 1225 542 
L 1268 533 
" fill="#339541" />
<path d="
M 1380 554 
L 1362 554 
L 1396 554 
L 1380 554 
M 1373 554 
L 1387 554 
L 1430 554 
L 1414 554 
L 1402 554 
L 1358 554 
L 1345 554 
L 1330 554 
L 1373 554 
" fill="#339541" />
<path d="
M 1330 553 
L 1348 553 
L 1348 553 
Q 1348 553 , 1356 553 
Q 1363 553 , 1380 553 
Q 1397 553 , 1405 553 
Q 1412 553 , 1412 553 
L 1412 553 
L 1430 553 
L 1430 553 
Q 1430 553 , 1417 553 
Q 1405 553 , 1380 553 
Q 1356 553 , 1343 553 
Q 1330 553 , 1330 553 
L 1330 553 
" fill="#D21010" />
<path d="
M 1430 552 
L 1430 552 
Q 1415 552 , 1407 552 
Q 1399 552 , 1389 552 
Q 1368 552 , 1358 552 
Q 1346 552 , 1346 552 
Q 1346 552 , 1358 552 
Q 1368 552 , 1389 552 
Q 1399 552 , 1407 552 
Q 1415 552 , 1430 552 
L 1430 552 
Q 1419 552 , 1409 552 
Q 1399 552 , 1388 552 
Q 1361 552 , 1346 552 
Q 1330 552 , 1330 552 
Q 1330 552 , 1346 552 
Q 1361 552 , 1388 552 
Q 1399 552 , 1409 552 
Q 1420 552 , 1430 552 
" fill="#545FFF" />
<path d="
M 1414 551 
L 1414 551 
L 1385 551 
L 1385 551 
L 1430 551 
L 1430 551 
Q 1419 552 , 1408 552 
Q 1399 552 , 1387 552 
Q 1361 552 , 1345 551 
Q 1330 551 , 1330 551 
Q 1330 551 , 1345 551 
Q 1361 551 , 1387 551 
Q 1398 551 , 1407 551 
Q 1417 551 , 1427 551 
L 1427 551 
Q 1414 551 , 1406 551 
Q 1397 551 , 1388 551 
Q 1367 551 , 1356 551 
Q 1346 551 , 1346 551 
Q 1346 551 , 1356 551 
Q 1367 551 , 1388 551 
Q 1397 551 , 1404 551 
Q 1411 551 , 1414 551 
" fill="#F5C000" />
<path d="M 65 168 L 65 555 " stroke="black" stroke-width="1.5"/>
<path d="M 55 555 L 65 555 " stroke="black" stroke-width="4"/>
<text text-anchor="end" x="50" y="555" font-size="50" alignment-baseline="middle">0</text>
<path d="M 55 362 L 65 362 " stroke="black" stroke-width="4"/>
<text text-anchor="end" x="50" y="362" font-size="50" alignment-baseline="middle">1</text>
<path d="M 55 168 L 65 168 " stroke="black" stroke-width="4"/>
<text text-anchor="end" x="50" y="168" font-size="50" alignment-baseline="middle">2</text>
<text text-anchor="middle" x="750" y="50" font-size="50" alignment-baseline="baseline"></text>
G<path d="
M 160 582 
L 126 595 
L 160 608 
L 157 611 
L 123 598 
L 123 623 
L 117 623 
L 117 599 
L 83 611 
L 80 608 
L 114 595 
L 80 582 
L 83 579 
L 117 591 
L 117 567 
L 123 567 
L 123 591 
L 157 579 
L 160 582 
" fill="black" />
<path d="
" fill="black" />
<path d="
M 211 567 
L 238 567 
L 238 623 
L 211 623 
L 211 567 
" fill="black" />
<path d="
" fill="black" />
<path d="
" fill="black" />
<path d="
M 316 567 
L 343 567 
L 343 623 
L 316 623 
L 316 567 
" fill="black" />
<path d="
" fill="black" />
<path d="
" fill="black" />
<path d="
M 421 567 
L 448 567 
L 448 623 
L 421 623 
L 421 567 
" fill="black" />
<path d="
" fill="black" />
<path d="
" fill="black" />
<path d="
M 526 567 
L 553 567 
L 553 623 
L 526 623 
L 526 567 
" fill="black" />
<path d="
" fill="black" />
<path d="
M 640 567 
Q 626 574 , 619 581 
Q 612 588 , 612 595 
Q 612 602 , 619 609 
Q 626 616 , 640 623 
L 628 623 
Q 614 616 , 607 609 
Q 600 602 , 600 595 
Q 600 588 , 607 581 
Q 614 574 , 628 567 
L 640 567 
" fill="black" />
<path d="
M 650 567 
L 690 567 
L 690 571 
L 667 623 
L 661 623 
L 684 571 
L 650 571 
L 650 567 
" fill="black" />
<path d="
M 790 582 
L 756 595 
L 790 608 
L 787 611 
L 753 598 
L 753 623 
L 747 623 
L 747 599 
L 713 611 
L 710 608 
L 744 595 
L 710 582 
L 713 579 
L 747 591 
L 747 567 
L 753 567 
L 753 591 
L 787 579 
L 790 582 
" fill="black" />
<path d="
" fill="black" />
<path d="
M 841 567 
L 868 567 
L 868 623 
L 841 623 
L 841 567 
" fill="black" />
<path d="
" fill="black" />
<path d="
" fill="black" />
<path d="
M 946 567 
L 973 567 
L 973 623 
L 946 623 
L 946 567 
" fill="black" />
<path d="
" fill="black" />
<path d="
" fill="black" />
<path d="
M 1051 567 
L 1078 567 
L 1078 623 
L 1051 623 
L 1051 567 
" fill="black" />
<path d="
" fill="black" />
<path d="
M 1130 567 
L 1154 567 
Q 1182 574 , 1196 581 
Q 1210 588 , 1210 595 
Q 1210 602 , 1196 609 
Q 1182 616 , 1154 623 
L 1130 623 
Q 1159 616 , 1172 609 
Q 1185 602 , 1185 595 
Q 1185 588 , 1172 581 
Q 1159 574 , 1130 567 
" fill="black" />
<path d="
" fill="black" />
<path d="
M 1261 567 
L 1288 567 
L 1288 623 
L 1261 623 
L 1261 567 
" fill="black" />
<path d="
" fill="black" />
<path d="
M 1420 582 
L 1386 595 
L 1420 608 
L 1417 611 
L 1383 598 
L 1383 623 
L 1377 623 
L 1377 599 
L 1343 611 
L 1340 608 
L 1374 595 
L 1340 582 
L 1343 579 
L 1377 591 
L 1377 567 
L 1383 567 
L 1383 591 
L 1417 579 
L 1420 582 
" fill="black" />
</svg>
