<svg xmlns="http://www.w3.org/2000/svg"
viewBox="0 0 1330 635">
<path d="
M 120 554 
L 102 554 
L 136 554 
L 120 554 
M 113 554 
L 127 554 
L 170 555 
L 154 555 
L 142 554 
L 98 554 
L 85 555 
L 70 555 
L 113 554 
" fill="#339541" />
<path d="
M 70 553 
L 88 553 
L 88 553 
Q 88 553 , 96 554 
Q 103 554 , 120 554 
Q 137 554 , 145 554 
Q 152 553 , 152 553 
L 152 553 
L 170 553 
L 170 553 
Q 170 554 , 157 554 
Q 145 554 , 120 554 
Q 96 554 , 83 554 
Q 70 554 , 70 553 
L 70 553 
" fill="#D21010" />
<path d="
M 170 552 
L 170 552 
Q 155 552 , 147 552 
Q 139 552 , 129 552 
Q 108 552 , 98 552 
Q 86 552 , 86 552 
Q 86 552 , 98 553 
Q 108 553 , 129 553 
Q 139 553 , 147 553 
Q 155 553 , 170 553 
L 170 553 
Q 159 553 , 149 553 
Q 139 553 , 128 553 
Q 101 553 , 86 553 
Q 70 553 , 70 552 
Q 70 552 , 86 552 
Q 101 552 , 128 552 
Q 139 552 , 149 552 
Q 160 552 , 170 552 
" fill="#545FFF" />
<path d="
M 154 552 
L 154 551 
L 125 551 
L 125 551 
L 170 551 
L 170 552 
Q 159 552 , 148 552 
Q 139 552 , 127 552 
Q 101 552 , 85 552 
Q 70 552 , 70 551 
Q 70 551 , 85 551 
Q 101 551 , 127 551 
Q 138 551 , 147 551 
Q 157 551 , 167 551 
L 167 551 
Q 154 551 , 146 551 
Q 137 551 , 128 551 
Q 107 551 , 96 551 
Q 86 551 , 86 551 
Q 86 552 , 96 552 
Q 107 552 , 128 552 
Q 137 552 , 144 552 
Q 151 552 , 154 552 
" fill="#F5C000" />
<path d="
M 225 547 
L 207 551 
L 241 551 
L 225 547 
M 218 546 
L 232 546 
L 275 554 
L 259 554 
L 247 552 
L 203 552 
L 190 554 
L 175 554 
L 218 546 
" fill="#339541" />
<path d="
M 275 534 
L 275 536 
Q 260 535 , 252 535 
Q 244 534 , 234 534 
Q 213 534 , 203 536 
Q 191 537 , 191 539 
Q 191 542 , 203 543 
Q 213 544 , 234 544 
Q 244 544 , 252 544 
Q 260 544 , 275 542 
L 275 544 
Q 264 545 , 254 545 
Q 244 546 , 233 546 
Q 206 546 , 191 544 
Q 175 542 , 175 539 
Q 175 536 , 191 535 
Q 206 533 , 233 533 
Q 244 533 , 254 533 
Q 265 534 , 275 534 
" fill="#545FFF" />
<path d="
M 259 530 
L 259 526 
L 230 526 
L 230 524 
L 275 524 
L 275 531 
Q 264 532 , 253 532 
Q 244 532 , 232 532 
Q 206 532 , 190 530 
Q 175 528 , 175 524 
Q 175 520 , 190 518 
Q 206 516 , 232 516 
Q 243 516 , 252 516 
Q 262 517 , 272 517 
L 272 519 
Q 259 519 , 251 518 
Q 242 518 , 233 518 
Q 212 518 , 201 520 
Q 191 521 , 191 524 
Q 191 527 , 201 529 
Q 212 531 , 233 531 
Q 242 531 , 249 530 
Q 256 530 , 259 530 
" fill="#F5C000" />
<path d="
M 175 468 
L 193 468 
L 193 496 
Q 193 504 , 201 507 
Q 208 510 , 225 510 
Q 242 510 , 250 507 
Q 257 504 , 257 496 
L 257 468 
L 275 468 
L 275 497 
Q 275 506 , 262 510 
Q 250 515 , 225 515 
Q 201 515 , 188 510 
Q 175 506 , 175 497 
L 175 468 
" fill="#D21010" />
<path d="
M 330 551 
L 312 553 
L 346 553 
L 330 551 
M 323 550 
L 337 550 
L 380 555 
L 364 555 
L 352 553 
L 308 553 
L 295 555 
L 280 555 
L 323 550 
" fill="#339541" />
<path d="
M 280 534 
L 298 534 
L 298 543 
Q 298 546 , 306 547 
Q 313 548 , 330 548 
Q 347 548 , 355 547 
Q 362 546 , 362 543 
L 362 534 
L 380 534 
L 380 543 
Q 380 546 , 367 548 
Q 355 549 , 330 549 
Q 306 549 , 293 548 
Q 280 546 , 280 543 
L 280 534 
" fill="#D21010" />
<path d="
M 380 505 
L 380 510 
Q 365 506 , 357 506 
Q 349 505 , 339 505 
Q 318 505 , 308 508 
Q 296 511 , 296 517 
Q 296 524 , 308 527 
Q 318 530 , 339 530 
Q 349 530 , 357 530 
Q 365 529 , 380 525 
L 380 531 
Q 369 532 , 359 533 
Q 349 534 , 338 534 
Q 311 534 , 296 530 
Q 280 525 , 280 518 
Q 280 510 , 296 506 
Q 311 501 , 338 501 
Q 349 501 , 359 502 
Q 370 503 , 380 505 
" fill="#545FFF" />
<path d="
M 364 488 
L 364 466 
L 335 466 
L 335 456 
L 380 456 
L 380 494 
Q 369 497 , 358 499 
Q 349 500 , 337 500 
Q 311 500 , 295 489 
Q 280 478 , 280 458 
Q 280 438 , 295 427 
Q 311 416 , 337 416 
Q 348 416 , 357 417 
Q 367 419 , 377 423 
L 377 434 
Q 364 429 , 356 427 
Q 347 426 , 338 426 
Q 317 426 , 306 434 
Q 296 442 , 296 458 
Q 296 475 , 306 483 
Q 317 491 , 338 491 
Q 347 491 , 354 490 
Q 361 489 , 364 488 
" fill="#F5C000" />
<path d="
M 435 552 
L 417 553 
L 451 553 
L 435 552 
M 428 551 
L 442 551 
L 485 555 
L 469 555 
L 457 554 
L 413 554 
L 400 555 
L 385 555 
L 428 551 
" fill="#339541" />
<path d="
M 485 539 
L 485 541 
Q 470 540 , 462 540 
Q 454 539 , 444 539 
Q 423 539 , 413 541 
Q 401 542 , 401 544 
Q 401 547 , 413 548 
Q 423 549 , 444 549 
Q 454 549 , 462 549 
Q 470 548 , 485 547 
L 485 549 
Q 474 550 , 464 550 
Q 454 550 , 443 550 
Q 416 550 , 401 549 
Q 385 547 , 385 544 
Q 385 541 , 401 540 
Q 416 538 , 443 538 
Q 454 538 , 464 538 
Q 475 539 , 485 539 
" fill="#545FFF" />
<path d="
M 469 532 
L 469 522 
L 440 522 
L 440 518 
L 485 518 
L 485 535 
Q 474 536 , 463 537 
Q 454 537 , 442 537 
Q 416 537 , 400 533 
Q 385 528 , 385 519 
Q 385 511 , 400 506 
Q 416 501 , 442 501 
Q 453 501 , 462 502 
Q 472 502 , 482 504 
L 482 509 
Q 469 507 , 461 506 
Q 452 505 , 443 505 
Q 422 505 , 411 509 
Q 401 512 , 401 519 
Q 401 526 , 411 530 
Q 422 533 , 443 533 
Q 452 533 , 459 533 
Q 466 533 , 469 532 
" fill="#F5C000" />
<path d="
M 385 453 
L 403 453 
L 403 481 
Q 403 489 , 411 492 
Q 418 495 , 435 495 
Q 452 495 , 460 492 
Q 467 489 , 467 481 
L 467 453 
L 485 453 
L 485 482 
Q 485 491 , 472 496 
Q 460 500 , 435 500 
Q 411 500 , 398 496 
Q 385 491 , 385 482 
L 385 453 
" fill="#D21010" />
<path d="
M 540 545 
L 522 550 
L 556 550 
L 540 545 
M 533 543 
L 547 543 
L 590 554 
L 574 554 
L 562 551 
L 518 551 
L 505 554 
L 490 554 
L 533 543 
" fill="#339541" />
<path d="
M 590 532 
L 590 534 
Q 575 533 , 567 533 
Q 559 532 , 549 532 
Q 528 532 , 518 533 
Q 506 535 , 506 537 
Q 506 539 , 518 540 
Q 528 542 , 549 542 
Q 559 542 , 567 541 
Q 575 541 , 590 540 
L 590 542 
Q 579 542 , 569 543 
Q 559 543 , 548 543 
Q 521 543 , 506 541 
Q 490 540 , 490 537 
Q 490 534 , 506 533 
Q 521 531 , 548 531 
Q 559 531 , 569 531 
Q 580 532 , 590 532 
" fill="#545FFF" />
<path d="
M 490 514 
L 508 514 
L 508 524 
Q 508 526 , 516 528 
Q 523 529 , 540 529 
Q 557 529 , 565 528 
Q 572 526 , 572 524 
L 572 514 
L 590 514 
L 590 524 
Q 590 527 , 577 529 
Q 565 531 , 540 531 
Q 516 531 , 503 529 
Q 490 527 , 490 524 
L 490 514 
" fill="#D21010" />
<path d="
M 574 505 
L 574 489 
L 545 489 
L 545 483 
L 590 483 
L 590 509 
Q 579 511 , 568 512 
Q 559 513 , 547 513 
Q 521 513 , 505 505 
Q 490 498 , 490 484 
Q 490 471 , 505 463 
Q 521 455 , 547 455 
Q 558 455 , 567 456 
Q 577 457 , 587 460 
L 587 467 
Q 574 464 , 566 463 
Q 557 462 , 548 462 
Q 527 462 , 516 467 
Q 506 473 , 506 484 
Q 506 496 , 516 501 
Q 527 507 , 548 507 
Q 557 507 , 564 506 
Q 571 506 , 574 505 
" fill="#F5C000" />
<path d="
M 645 551 
L 627 553 
L 661 553 
L 645 551 
M 638 550 
L 652 550 
L 695 555 
L 679 555 
L 667 553 
L 623 553 
L 610 555 
L 595 555 
L 638 550 
" fill="#339541" />
<path d="
M 595 539 
L 613 539 
L 613 545 
Q 613 547 , 621 547 
Q 628 548 , 645 548 
Q 662 548 , 670 547 
Q 677 547 , 677 545 
L 677 539 
L 695 539 
L 695 545 
Q 695 547 , 682 548 
Q 670 549 , 645 549 
Q 621 549 , 608 548 
Q 595 547 , 595 545 
L 595 539 
" fill="#D21010" />
<path d="
M 695 517 
L 695 520 
Q 680 518 , 672 517 
Q 664 517 , 654 517 
Q 633 517 , 623 519 
Q 611 521 , 611 526 
Q 611 531 , 623 533 
Q 633 536 , 654 536 
Q 664 536 , 672 535 
Q 680 534 , 695 532 
L 695 536 
Q 684 537 , 674 538 
Q 664 538 , 653 538 
Q 626 538 , 611 535 
Q 595 532 , 595 526 
Q 595 521 , 611 517 
Q 626 514 , 653 514 
Q 664 514 , 674 515 
Q 685 515 , 695 517 
" fill="#545FFF" />
<path d="
M 679 509 
L 679 501 
L 650 501 
L 650 498 
L 695 498 
L 695 511 
Q 684 513 , 673 513 
Q 664 514 , 652 514 
Q 626 514 , 610 510 
Q 595 506 , 595 499 
Q 595 492 , 610 488 
Q 626 484 , 652 484 
Q 663 484 , 672 485 
Q 682 485 , 692 486 
L 692 490 
Q 679 489 , 671 488 
Q 662 488 , 653 488 
Q 632 488 , 621 490 
Q 611 493 , 611 499 
Q 611 505 , 621 508 
Q 632 510 , 653 510 
Q 662 510 , 669 510 
Q 676 510 , 679 509 
" fill="#F5C000" />
<path d="
M 750 549 
L 732 552 
L 766 552 
L 750 549 
M 743 548 
L 757 548 
L 800 555 
L 784 555 
L 772 553 
L 728 553 
L 715 555 
L 700 555 
L 743 548 
" fill="#339541" />
<path d="
M 784 547 
L 784 544 
L 755 544 
L 755 543 
L 800 543 
L 800 547 
Q 789 548 , 778 548 
Q 769 548 , 757 548 
Q 731 548 , 715 547 
Q 700 545 , 700 543 
Q 700 541 , 715 539 
Q 731 538 , 757 538 
Q 768 538 , 777 538 
Q 787 538 , 797 539 
L 797 540 
Q 784 540 , 776 539 
Q 767 539 , 758 539 
Q 737 539 , 726 540 
Q 716 541 , 716 543 
Q 716 545 , 726 546 
Q 737 547 , 758 547 
Q 767 547 , 774 547 
Q 781 547 , 784 547 
" fill="#F5C000" />
<path d="
M 700 527 
L 718 527 
L 718 533 
Q 718 535 , 726 536 
Q 733 537 , 750 537 
Q 767 537 , 775 536 
Q 782 535 , 782 533 
L 782 527 
L 800 527 
L 800 534 
Q 800 536 , 787 537 
Q 775 538 , 750 538 
Q 726 538 , 713 537 
Q 700 536 , 700 534 
L 700 527 
" fill="#D21010" />
<path d="
M 800 503 
L 800 507 
Q 785 504 , 777 504 
Q 769 503 , 759 503 
Q 738 503 , 728 506 
Q 716 508 , 716 513 
Q 716 519 , 728 521 
Q 738 524 , 759 524 
Q 769 524 , 777 523 
Q 785 522 , 800 520 
L 800 524 
Q 789 526 , 779 526 
Q 769 527 , 758 527 
Q 731 527 , 716 523 
Q 700 520 , 700 513 
Q 700 507 , 716 504 
Q 731 500 , 758 500 
Q 769 500 , 779 501 
Q 790 501 , 800 503 
" fill="#545FFF" />
<path d="
M 855 548 
L 837 551 
L 871 551 
L 855 548 
M 848 547 
L 862 547 
L 905 554 
L 889 554 
L 877 552 
L 833 552 
L 820 554 
L 805 554 
L 848 547 
" fill="#339541" />
<path d="
M 905 539 
L 905 540 
Q 890 539 , 882 539 
Q 874 539 , 864 539 
Q 843 539 , 833 540 
Q 821 541 , 821 542 
Q 821 544 , 833 545 
Q 843 546 , 864 546 
Q 874 546 , 882 545 
Q 890 545 , 905 544 
L 905 546 
Q 894 546 , 884 546 
Q 874 547 , 863 547 
Q 836 547 , 821 545 
Q 805 544 , 805 542 
Q 805 540 , 821 539 
Q 836 538 , 863 538 
Q 874 538 , 884 538 
Q 895 538 , 905 539 
" fill="#545FFF" />
<path d="
M 889 534 
L 889 528 
L 860 528 
L 860 525 
L 905 525 
L 905 535 
Q 894 536 , 883 537 
Q 874 537 , 862 537 
Q 836 537 , 820 534 
Q 805 531 , 805 526 
Q 805 520 , 820 517 
Q 836 514 , 862 514 
Q 873 514 , 882 514 
Q 892 515 , 902 516 
L 902 519 
Q 889 518 , 881 517 
Q 872 517 , 863 517 
Q 842 517 , 831 519 
Q 821 521 , 821 526 
Q 821 530 , 831 532 
Q 842 535 , 863 535 
Q 872 535 , 879 534 
Q 886 534 , 889 534 
" fill="#F5C000" />
<path d="
M 805 474 
L 823 474 
L 823 497 
Q 823 504 , 831 506 
Q 838 509 , 855 509 
Q 872 509 , 880 506 
Q 887 504 , 887 497 
L 887 474 
L 905 474 
L 905 498 
Q 905 505 , 892 509 
Q 880 513 , 855 513 
Q 831 513 , 818 509 
Q 805 505 , 805 498 
L 805 474 
" fill="#D21010" />
<path d="
M 960 552 
L 942 553 
L 976 553 
L 960 552 
M 953 551 
L 967 551 
L 1010 555 
L 994 555 
L 982 554 
L 938 554 
L 925 555 
L 910 555 
L 953 551 
" fill="#339541" />
<path d="
M 910 535 
L 928 535 
L 928 544 
Q 928 547 , 936 548 
Q 943 549 , 960 549 
Q 977 549 , 985 548 
Q 992 547 , 992 544 
L 992 535 
L 1010 535 
L 1010 544 
Q 1010 547 , 997 549 
Q 985 550 , 960 550 
Q 936 550 , 923 549 
Q 910 547 , 910 544 
L 910 535 
" fill="#D21010" />
<path d="
M 1010 501 
L 1010 507 
Q 995 503 , 987 502 
Q 979 501 , 969 501 
Q 948 501 , 938 505 
Q 926 508 , 926 515 
Q 926 523 , 938 527 
Q 948 530 , 969 530 
Q 979 530 , 987 529 
Q 995 528 , 1010 525 
L 1010 531 
Q 999 533 , 989 533 
Q 979 534 , 968 534 
Q 941 534 , 926 529 
Q 910 524 , 910 516 
Q 910 507 , 926 502 
Q 941 497 , 968 497 
Q 979 497 , 989 498 
Q 1000 499 , 1010 501 
" fill="#545FFF" />
<path d="
M 994 472 
L 994 427 
L 965 427 
L 965 408 
L 1010 408 
L 1010 483 
Q 999 491 , 988 493 
Q 979 496 , 967 496 
Q 941 496 , 925 474 
Q 910 451 , 910 412 
Q 910 372 , 925 350 
Q 941 327 , 967 327 
Q 978 327 , 987 330 
Q 997 333 , 1007 341 
L 1007 362 
Q 994 353 , 986 350 
Q 977 347 , 968 347 
Q 947 347 , 936 363 
Q 926 379 , 926 412 
Q 926 445 , 936 462 
Q 947 478 , 968 478 
Q 977 478 , 984 476 
Q 991 474 , 994 472 
" fill="#F5C000" />
<path d="
M 1065 552 
L 1047 553 
L 1081 553 
L 1065 552 
M 1058 551 
L 1072 551 
L 1115 555 
L 1099 555 
L 1087 553 
L 1043 553 
L 1030 555 
L 1015 555 
L 1058 551 
" fill="#339541" />
<path d="
M 1115 537 
L 1115 540 
Q 1100 538 , 1092 538 
Q 1084 538 , 1074 538 
Q 1053 538 , 1043 539 
Q 1031 540 , 1031 543 
Q 1031 546 , 1043 547 
Q 1053 548 , 1074 548 
Q 1084 548 , 1092 548 
Q 1100 548 , 1115 546 
L 1115 549 
Q 1104 549 , 1094 550 
Q 1084 550 , 1073 550 
Q 1046 550 , 1031 548 
Q 1015 546 , 1015 543 
Q 1015 540 , 1031 538 
Q 1046 536 , 1073 536 
Q 1084 536 , 1094 536 
Q 1105 537 , 1115 537 
" fill="#545FFF" />
<path d="
M 1015 517 
L 1033 517 
L 1033 528 
Q 1033 531 , 1041 532 
Q 1048 533 , 1065 533 
Q 1082 533 , 1090 532 
Q 1097 531 , 1097 528 
L 1097 517 
L 1115 517 
L 1115 528 
Q 1115 532 , 1102 534 
Q 1090 536 , 1065 536 
Q 1041 536 , 1028 534 
Q 1015 532 , 1015 528 
L 1015 517 
" fill="#D21010" />
<path d="
M 1099 513 
L 1099 505 
L 1070 505 
L 1070 502 
L 1115 502 
L 1115 515 
Q 1104 516 , 1093 516 
Q 1084 517 , 1072 517 
Q 1046 517 , 1030 513 
Q 1015 509 , 1015 502 
Q 1015 496 , 1030 492 
Q 1046 488 , 1072 488 
Q 1083 488 , 1092 489 
Q 1102 489 , 1112 490 
L 1112 494 
Q 1099 492 , 1091 492 
Q 1082 491 , 1073 491 
Q 1052 491 , 1041 494 
Q 1031 497 , 1031 502 
Q 1031 508 , 1041 511 
Q 1052 514 , 1073 514 
Q 1082 514 , 1089 513 
Q 1096 513 , 1099 513 
" fill="#F5C000" />
<path d="
M 1220 551 
L 1220 551 
Q 1205 551 , 1197 551 
Q 1189 551 , 1179 551 
Q 1158 551 , 1148 551 
Q 1136 551 , 1136 552 
Q 1136 553 , 1148 554 
Q 1158 554 , 1179 554 
Q 1189 554 , 1197 554 
Q 1205 554 , 1220 554 
L 1220 554 
Q 1209 555 , 1199 555 
Q 1189 555 , 1178 555 
Q 1151 555 , 1136 554 
Q 1120 554 , 1120 552 
Q 1120 551 , 1136 551 
Q 1151 550 , 1178 550 
Q 1189 550 , 1199 550 
Q 1210 550 , 1220 551 
" fill="#545FFF" />
<path d="
M 1120 543 
L 1138 543 
L 1138 547 
Q 1138 548 , 1146 548 
Q 1153 548 , 1170 548 
Q 1187 548 , 1195 548 
Q 1202 548 , 1202 547 
L 1202 543 
L 1220 543 
L 1220 547 
Q 1220 548 , 1207 549 
Q 1195 549 , 1170 549 
Q 1146 549 , 1133 549 
Q 1120 548 , 1120 547 
L 1120 543 
" fill="#D21010" />
<path d="
M 1170 531 
L 1152 537 
L 1186 537 
L 1170 531 
M 1163 529 
L 1177 529 
L 1220 542 
L 1204 542 
L 1192 538 
L 1148 538 
L 1135 542 
L 1120 542 
L 1163 529 
" fill="#339541" />
<path d="
M 1204 527 
L 1204 522 
L 1175 522 
L 1175 521 
L 1220 521 
L 1220 528 
Q 1209 528 , 1198 529 
Q 1189 529 , 1177 529 
Q 1151 529 , 1135 527 
Q 1120 525 , 1120 521 
Q 1120 517 , 1135 515 
Q 1151 513 , 1177 513 
Q 1188 513 , 1197 513 
Q 1207 514 , 1217 514 
L 1217 516 
Q 1204 515 , 1196 515 
Q 1187 515 , 1178 515 
Q 1157 515 , 1146 516 
Q 1136 518 , 1136 521 
Q 1136 524 , 1146 526 
Q 1157 527 , 1178 527 
Q 1187 527 , 1194 527 
Q 1201 527 , 1204 527 
" fill="#F5C000" />
<path d="
M 1275 554 
L 1257 554 
L 1291 554 
L 1275 554 
M 1268 554 
L 1282 554 
L 1325 555 
L 1309 555 
L 1297 554 
L 1253 554 
L 1240 555 
L 1225 555 
L 1268 554 
" fill="#339541" />
<path d="
M 1225 553 
L 1243 553 
L 1243 553 
Q 1243 553 , 1251 554 
Q 1258 554 , 1275 554 
Q 1292 554 , 1300 554 
Q 1307 553 , 1307 553 
L 1307 553 
L 1325 553 
L 1325 553 
Q 1325 554 , 1312 554 
Q 1300 554 , 1275 554 
Q 1251 554 , 1238 554 
Q 1225 554 , 1225 553 
L 1225 553 
" fill="#D21010" />
<path d="
M 1325 552 
L 1325 552 
Q 1310 552 , 1302 552 
Q 1294 552 , 1284 552 
Q 1263 552 , 1253 552 
Q 1241 552 , 1241 552 
Q 1241 552 , 1253 553 
Q 1263 553 , 1284 553 
Q 1294 553 , 1302 553 
Q 1310 553 , 1325 553 
L 1325 553 
Q 1314 553 , 1304 553 
Q 1294 553 , 1283 553 
Q 1256 553 , 1241 553 
Q 1225 553 , 1225 552 
Q 1225 552 , 1241 552 
Q 1256 552 , 1283 552 
Q 1294 552 , 1304 552 
Q 1315 552 , 1325 552 
" fill="#545FFF" />
<path d="
M 1309 552 
L 1309 551 
L 1280 551 
L 1280 551 
L 1325 551 
L 1325 552 
Q 1314 552 , 1303 552 
Q 1294 552 , 1282 552 
Q 1256 552 , 1240 552 
Q 1225 552 , 1225 551 
Q 1225 551 , 1240 551 
Q 1256 551 , 1282 551 
Q 1293 551 , 1302 551 
Q 1312 551 , 1322 551 
L 1322 551 
Q 1309 551 , 1301 551 
Q 1292 551 , 1283 551 
Q 1262 551 , 1251 551 
Q 1241 551 , 1241 551 
Q 1241 552 , 1251 552 
Q 1262 552 , 1283 552 
Q 1292 552 , 1299 552 
Q 1306 552 , 1309 552 
" fill="#F5C000" />
<path d="M 65 55 L 65 555 " stroke="black" stroke-width="1.5"/>
<path d="M 55 555 L 65 555 " stroke="black" stroke-width="4"/>
<text text-anchor="end" x="50" y="555" font-size="50" alignment-baseline="middle">0</text>
<path d="M 55 305 L 65 305 " stroke="black" stroke-width="4"/>
<text text-anchor="end" x="50" y="305" font-size="50" alignment-baseline="middle">1</text>
<path d="M 55 55 L 65 55 " stroke="black" stroke-width="4"/>
<text text-anchor="end" x="50" y="55" font-size="50" alignment-baseline="middle">2</text>
<text text-anchor="middle" x="697" y="50" font-size="50" alignment-baseline="baseline"></text>
G<path d="
M 160 582 
L 126 595 
L 160 608 
L 157 611 
L 123 598 
L 123 623 
L 117 623 
L 117 599 
L 83 611 
L 80 608 
L 114 595 
L 80 582 
L 83 579 
L 117 591 
L 117 567 
L 123 567 
L 123 591 
L 157 579 
L 160 582 
" fill="black" />
<path d="
" fill="black" />
<path d="
M 211 567 
L 238 567 
L 238 623 
L 211 623 
L 211 567 
" fill="black" />
<path d="
" fill="black" />
<path d="
" fill="black" />
<path d="
M 316 567 
L 343 567 
L 343 623 
L 316 623 
L 316 567 
" fill="black" />
<path d="
" fill="black" />
<path d="
" fill="black" />
<path d="
M 421 567 
L 448 567 
L 448 623 
L 421 623 
L 421 567 
" fill="black" />
<path d="
" fill="black" />
<path d="
" fill="black" />
<path d="
M 526 567 
L 553 567 
L 553 623 
L 526 623 
L 526 567 
" fill="black" />
<path d="
" fill="black" />
<path d="
" fill="black" />
<path d="
M 631 567 
L 658 567 
L 658 623 
L 631 623 
L 631 567 
" fill="black" />
<path d="
" fill="black" />
<path d="
" fill="black" />
<path d="
M 736 567 
L 763 567 
L 763 623 
L 736 623 
L 736 567 
" fill="black" />
<path d="
" fill="black" />
<path d="
" fill="black" />
<path d="
M 841 567 
L 868 567 
L 868 623 
L 841 623 
L 841 567 
" fill="black" />
<path d="
" fill="black" />
<path d="
" fill="black" />
<path d="
M 946 567 
L 973 567 
L 973 623 
L 946 623 
L 946 567 
" fill="black" />
<path d="
" fill="black" />
<path d="
" fill="black" />
<path d="
M 1051 567 
L 1078 567 
L 1078 623 
L 1051 623 
L 1051 567 
" fill="black" />
<path d="
" fill="black" />
<path d="
" fill="black" />
<path d="
M 1156 567 
L 1183 567 
L 1183 623 
L 1156 623 
L 1156 567 
" fill="black" />
<path d="
" fill="black" />
<path d="
M 1315 582 
L 1281 595 
L 1315 608 
L 1312 611 
L 1278 598 
L 1278 623 
L 1272 623 
L 1272 599 
L 1238 611 
L 1235 608 
L 1269 595 
L 1235 582 
L 1238 579 
L 1272 591 
L 1272 567 
L 1278 567 
L 1278 591 
L 1312 579 
L 1315 582 
" fill="black" />
</svg>
