<svg xmlns="http://www.w3.org/2000/svg"
viewBox="0 0 1435 635">
<path d="
M 120 552 
L 102 553 
L 136 553 
L 120 552 
M 113 552 
L 127 552 
L 170 554 
L 154 554 
L 142 553 
L 98 553 
L 85 554 
L 70 554 
L 113 552 
" fill="#339541" />
<path d="
M 70 549 
L 88 549 
L 88 551 
Q 88 551 , 96 551 
Q 103 551 , 120 551 
Q 137 551 , 145 551 
Q 152 551 , 152 551 
L 152 549 
L 170 549 
L 170 551 
Q 170 551 , 157 551 
Q 145 552 , 120 552 
Q 96 552 , 83 551 
Q 70 551 , 70 551 
L 70 549 
" fill="#D21010" />
<path d="
M 170 545 
L 170 546 
Q 155 546 , 147 545 
Q 139 545 , 129 545 
Q 108 545 , 98 546 
Q 86 546 , 86 546 
Q 86 547 , 98 548 
Q 108 548 , 129 548 
Q 139 548 , 147 548 
Q 155 548 , 170 548 
L 170 548 
Q 159 548 , 149 548 
Q 139 549 , 128 549 
Q 101 549 , 86 548 
Q 70 548 , 70 547 
Q 70 546 , 86 545 
Q 101 545 , 128 545 
Q 139 545 , 149 545 
Q 160 545 , 170 545 
" fill="#545FFF" />
<path d="
M 154 544 
L 154 543 
L 125 543 
L 125 542 
L 170 542 
L 170 544 
Q 159 544 , 148 544 
Q 139 544 , 127 544 
Q 101 544 , 85 544 
Q 70 543 , 70 542 
Q 70 541 , 85 541 
Q 101 540 , 127 540 
Q 138 540 , 147 540 
Q 157 540 , 167 540 
L 167 541 
Q 154 541 , 146 541 
Q 137 541 , 128 541 
Q 107 541 , 96 541 
Q 86 541 , 86 542 
Q 86 543 , 96 543 
Q 107 544 , 128 544 
Q 137 544 , 144 544 
Q 151 544 , 154 544 
" fill="#F5C000" />
<path d="
M 225 548 
L 207 552 
L 241 552 
L 225 548 
M 218 547 
L 232 547 
L 275 555 
L 259 555 
L 247 553 
L 203 553 
L 190 555 
L 175 555 
L 218 547 
" fill="#339541" />
<path d="
M 259 544 
L 259 542 
L 230 542 
L 230 540 
L 275 540 
L 275 545 
Q 264 546 , 253 546 
Q 244 546 , 232 546 
Q 206 546 , 190 545 
Q 175 543 , 175 541 
Q 175 538 , 190 536 
Q 206 535 , 232 535 
Q 243 535 , 252 535 
Q 262 535 , 272 536 
L 272 537 
Q 259 537 , 251 537 
Q 242 536 , 233 536 
Q 212 536 , 201 537 
Q 191 538 , 191 541 
Q 191 543 , 201 544 
Q 212 545 , 233 545 
Q 242 545 , 249 545 
Q 256 545 , 259 544 
" fill="#F5C000" />
<path d="
M 275 515 
L 275 519 
Q 260 517 , 252 516 
Q 244 515 , 234 515 
Q 213 515 , 203 518 
Q 191 520 , 191 524 
Q 191 528 , 203 530 
Q 213 532 , 234 532 
Q 244 532 , 252 532 
Q 260 531 , 275 529 
L 275 533 
Q 264 534 , 254 534 
Q 244 535 , 233 535 
Q 206 535 , 191 532 
Q 175 529 , 175 524 
Q 175 519 , 191 516 
Q 206 513 , 233 513 
Q 244 513 , 254 514 
Q 265 514 , 275 515 
" fill="#545FFF" />
<path d="
M 175 460 
L 193 460 
L 193 491 
Q 193 499 , 201 503 
Q 208 506 , 225 506 
Q 242 506 , 250 503 
Q 257 499 , 257 491 
L 257 460 
L 275 460 
L 275 492 
Q 275 502 , 262 507 
Q 250 512 , 225 512 
Q 201 512 , 188 507 
Q 175 502 , 175 492 
L 175 460 
" fill="#D21010" />
<path d="
M 330 552 
L 312 553 
L 346 553 
L 330 552 
M 323 552 
L 337 552 
L 380 554 
L 364 554 
L 352 554 
L 308 554 
L 295 554 
L 280 554 
L 323 552 
" fill="#339541" />
<path d="
M 280 542 
L 298 542 
L 298 548 
Q 298 549 , 306 550 
Q 313 551 , 330 551 
Q 347 551 , 355 550 
Q 362 549 , 362 548 
L 362 542 
L 380 542 
L 380 548 
Q 380 550 , 367 551 
Q 355 552 , 330 552 
Q 306 552 , 293 551 
Q 280 550 , 280 548 
L 280 542 
" fill="#D21010" />
<path d="
M 380 515 
L 380 520 
Q 365 517 , 357 516 
Q 349 515 , 339 515 
Q 318 515 , 308 518 
Q 296 521 , 296 526 
Q 296 532 , 308 535 
Q 318 538 , 339 538 
Q 349 538 , 357 538 
Q 365 537 , 380 534 
L 380 538 
Q 369 540 , 359 541 
Q 349 541 , 338 541 
Q 311 541 , 296 537 
Q 280 533 , 280 527 
Q 280 520 , 296 516 
Q 311 512 , 338 512 
Q 349 512 , 359 513 
Q 370 513 , 380 515 
" fill="#545FFF" />
<path d="
M 364 470 
L 364 392 
L 335 392 
L 335 360 
L 380 360 
L 380 489 
Q 369 502 , 358 507 
Q 349 511 , 337 512 
Q 311 512 , 295 473 
Q 280 434 , 280 367 
Q 280 299 , 295 260 
Q 311 221 , 337 221 
Q 348 221 , 357 226 
Q 367 231 , 377 245 
L 377 282 
Q 364 265 , 356 260 
Q 347 256 , 338 256 
Q 317 256 , 306 283 
Q 296 310 , 296 367 
Q 296 424 , 306 452 
Q 317 479 , 338 479 
Q 347 479 , 354 477 
Q 361 474 , 364 470 
" fill="#F5C000" />
<path d="
M 435 553 
L 417 554 
L 451 554 
L 435 553 
M 428 553 
L 442 553 
L 485 555 
L 469 555 
L 457 554 
L 413 554 
L 400 555 
L 385 555 
L 428 553 
" fill="#339541" />
<path d="
M 485 532 
L 485 536 
Q 470 534 , 462 533 
Q 454 532 , 444 532 
Q 423 532 , 413 535 
Q 401 537 , 401 541 
Q 401 545 , 413 548 
Q 423 550 , 444 550 
Q 454 550 , 462 549 
Q 470 549 , 485 546 
L 485 550 
Q 474 551 , 464 552 
Q 454 552 , 443 552 
Q 416 552 , 401 549 
Q 385 546 , 385 541 
Q 385 536 , 401 533 
Q 416 530 , 443 530 
Q 454 530 , 464 531 
Q 475 531 , 485 532 
" fill="#545FFF" />
<path d="
M 385 497 
L 403 497 
L 403 516 
Q 403 522 , 411 524 
Q 418 526 , 435 526 
Q 452 526 , 460 524 
Q 467 522 , 467 516 
L 467 497 
L 485 497 
L 485 517 
Q 485 523 , 472 526 
Q 460 530 , 435 530 
Q 411 530 , 398 526 
Q 385 523 , 385 517 
L 385 497 
" fill="#D21010" />
<path d="
M 469 474 
L 469 431 
L 440 431 
L 440 413 
L 485 413 
L 485 484 
Q 474 491 , 463 494 
Q 454 496 , 442 497 
Q 416 497 , 400 475 
Q 385 454 , 385 417 
Q 385 380 , 400 358 
Q 416 337 , 442 337 
Q 453 337 , 462 340 
Q 472 343 , 482 350 
L 482 370 
Q 469 361 , 461 359 
Q 452 356 , 443 356 
Q 422 356 , 411 371 
Q 401 386 , 401 417 
Q 401 448 , 411 464 
Q 422 479 , 443 479 
Q 452 479 , 459 477 
Q 466 476 , 469 474 
" fill="#F5C000" />
<path d="
M 540 553 
L 522 554 
L 556 554 
L 540 553 
M 533 553 
L 547 553 
L 590 555 
L 574 555 
L 562 554 
L 518 554 
L 505 555 
L 490 555 
L 533 553 
" fill="#339541" />
<path d="
M 490 542 
L 508 542 
L 508 548 
Q 508 550 , 516 551 
Q 523 552 , 540 552 
Q 557 552 , 565 551 
Q 572 550 , 572 548 
L 572 542 
L 590 542 
L 590 549 
Q 590 551 , 577 552 
Q 565 553 , 540 553 
Q 516 553 , 503 552 
Q 490 551 , 490 549 
L 490 542 
" fill="#D21010" />
<path d="
M 590 518 
L 590 522 
Q 575 519 , 567 519 
Q 559 518 , 549 518 
Q 528 518 , 518 520 
Q 506 523 , 506 528 
Q 506 533 , 518 536 
Q 528 539 , 549 539 
Q 559 539 , 567 538 
Q 575 537 , 590 535 
L 590 539 
Q 579 540 , 569 541 
Q 559 541 , 548 541 
Q 521 541 , 506 538 
Q 490 534 , 490 528 
Q 490 522 , 506 519 
Q 521 515 , 548 515 
Q 559 515 , 569 516 
Q 580 516 , 590 518 
" fill="#545FFF" />
<path d="
M 574 471 
L 574 390 
L 545 390 
L 545 357 
L 590 357 
L 590 491 
Q 579 504 , 568 509 
Q 559 514 , 547 514 
Q 521 514 , 505 474 
Q 490 434 , 490 363 
Q 490 293 , 505 253 
Q 521 212 , 547 212 
Q 558 212 , 567 217 
Q 577 223 , 587 236 
L 587 275 
Q 574 258 , 566 253 
Q 557 248 , 548 248 
Q 527 248 , 516 276 
Q 506 305 , 506 363 
Q 506 423 , 516 452 
Q 527 481 , 548 481 
Q 557 481 , 564 478 
Q 571 475 , 574 471 
" fill="#F5C000" />
<path d="
M 645 551 
L 627 553 
L 661 553 
L 645 551 
M 638 550 
L 652 550 
L 695 555 
L 679 555 
L 667 553 
L 623 553 
L 610 555 
L 595 555 
L 638 550 
" fill="#339541" />
<path d="
M 695 540 
L 695 542 
Q 680 541 , 672 540 
Q 664 540 , 654 540 
Q 633 540 , 623 541 
Q 611 542 , 611 544 
Q 611 546 , 623 547 
Q 633 548 , 654 548 
Q 664 548 , 672 548 
Q 680 548 , 695 547 
L 695 548 
Q 684 549 , 674 549 
Q 664 549 , 653 549 
Q 626 549 , 611 548 
Q 595 546 , 595 544 
Q 595 542 , 611 540 
Q 626 539 , 653 539 
Q 664 539 , 674 539 
Q 685 540 , 695 540 
" fill="#545FFF" />
<path d="
M 679 536 
L 679 532 
L 650 532 
L 650 531 
L 695 531 
L 695 537 
Q 684 538 , 673 538 
Q 664 538 , 652 538 
Q 626 538 , 610 536 
Q 595 534 , 595 531 
Q 595 528 , 610 526 
Q 626 524 , 652 524 
Q 663 524 , 672 524 
Q 682 525 , 692 525 
L 692 527 
Q 679 526 , 671 526 
Q 662 526 , 653 526 
Q 632 526 , 621 527 
Q 611 528 , 611 531 
Q 611 534 , 621 535 
Q 632 537 , 653 537 
Q 662 537 , 669 537 
Q 676 536 , 679 536 
" fill="#F5C000" />
<path d="
M 595 499 
L 613 499 
L 613 514 
Q 613 518 , 621 519 
Q 628 521 , 645 521 
Q 662 521 , 670 519 
Q 677 518 , 677 514 
L 677 499 
L 695 499 
L 695 514 
Q 695 519 , 682 521 
Q 670 524 , 645 524 
Q 621 524 , 608 521 
Q 595 519 , 595 514 
L 595 499 
" fill="#D21010" />
<path d="
M 750 552 
L 732 553 
L 766 553 
L 750 552 
M 743 552 
L 757 552 
L 800 554 
L 784 554 
L 772 553 
L 728 553 
L 715 554 
L 700 554 
L 743 552 
" fill="#339541" />
<path d="
M 700 549 
L 718 549 
L 718 551 
Q 718 551 , 726 551 
Q 733 551 , 750 551 
Q 767 551 , 775 551 
Q 782 551 , 782 551 
L 782 549 
L 800 549 
L 800 551 
Q 800 551 , 787 551 
Q 775 552 , 750 552 
Q 726 552 , 713 551 
Q 700 551 , 700 551 
L 700 549 
" fill="#D21010" />
<path d="
M 800 545 
L 800 546 
Q 785 546 , 777 545 
Q 769 545 , 759 545 
Q 738 545 , 728 546 
Q 716 546 , 716 546 
Q 716 547 , 728 548 
Q 738 548 , 759 548 
Q 769 548 , 777 548 
Q 785 548 , 800 548 
L 800 548 
Q 789 548 , 779 548 
Q 769 549 , 758 549 
Q 731 549 , 716 548 
Q 700 548 , 700 547 
Q 700 546 , 716 545 
Q 731 545 , 758 545 
Q 769 545 , 779 545 
Q 790 545 , 800 545 
" fill="#545FFF" />
<path d="
M 784 544 
L 784 543 
L 755 543 
L 755 542 
L 800 542 
L 800 544 
Q 789 544 , 778 544 
Q 769 544 , 757 544 
Q 731 544 , 715 544 
Q 700 543 , 700 542 
Q 700 541 , 715 541 
Q 731 540 , 757 540 
Q 768 540 , 777 540 
Q 787 540 , 797 540 
L 797 541 
Q 784 541 , 776 541 
Q 767 541 , 758 541 
Q 737 541 , 726 541 
Q 716 541 , 716 542 
Q 716 543 , 726 543 
Q 737 544 , 758 544 
Q 767 544 , 774 544 
Q 781 544 , 784 544 
" fill="#F5C000" />
<path d="
M 855 553 
L 837 554 
L 871 554 
L 855 553 
M 848 552 
L 862 552 
L 905 555 
L 889 555 
L 877 554 
L 833 554 
L 820 555 
L 805 555 
L 848 552 
" fill="#339541" />
<path d="
M 889 549 
L 889 545 
L 860 545 
L 860 544 
L 905 544 
L 905 550 
Q 894 551 , 883 551 
Q 874 551 , 862 551 
Q 836 551 , 820 549 
Q 805 547 , 805 544 
Q 805 541 , 820 539 
Q 836 537 , 862 537 
Q 873 537 , 882 537 
Q 892 538 , 902 538 
L 902 540 
Q 889 539 , 881 539 
Q 872 539 , 863 539 
Q 842 539 , 831 540 
Q 821 541 , 821 544 
Q 821 547 , 831 548 
Q 842 550 , 863 550 
Q 872 550 , 879 549 
Q 886 549 , 889 549 
" fill="#F5C000" />
<path d="
M 805 492 
L 823 492 
L 823 518 
Q 823 525 , 831 528 
Q 838 531 , 855 531 
Q 872 531 , 880 528 
Q 887 525 , 887 518 
L 887 492 
L 905 492 
L 905 519 
Q 905 527 , 892 532 
Q 880 536 , 855 536 
Q 831 536 , 818 532 
Q 805 527 , 805 519 
L 805 492 
" fill="#D21010" />
<path d="
M 905 404 
L 905 419 
Q 890 410 , 882 407 
Q 874 405 , 864 405 
Q 843 405 , 833 414 
Q 821 424 , 821 443 
Q 821 462 , 833 472 
Q 843 481 , 864 481 
Q 874 481 , 882 479 
Q 890 476 , 905 466 
L 905 482 
Q 894 487 , 884 489 
Q 874 492 , 863 492 
Q 836 492 , 821 478 
Q 805 465 , 805 443 
Q 805 420 , 821 407 
Q 836 394 , 863 394 
Q 874 394 , 884 396 
Q 895 399 , 905 404 
" fill="#545FFF" />
<path d="
M 960 552 
L 942 553 
L 976 553 
L 960 552 
M 953 552 
L 967 552 
L 1010 554 
L 994 554 
L 982 553 
L 938 553 
L 925 554 
L 910 554 
L 953 552 
" fill="#339541" />
<path d="
M 910 533 
L 928 533 
L 928 544 
Q 928 547 , 936 548 
Q 943 550 , 960 550 
Q 977 550 , 985 548 
Q 992 547 , 992 544 
L 992 533 
L 1010 533 
L 1010 544 
Q 1010 548 , 997 550 
Q 985 552 , 960 552 
Q 936 552 , 923 550 
Q 910 548 , 910 544 
L 910 533 
" fill="#D21010" />
<path d="
M 1010 498 
L 1010 504 
Q 995 500 , 987 499 
Q 979 498 , 969 498 
Q 948 498 , 938 502 
Q 926 506 , 926 513 
Q 926 521 , 938 524 
Q 948 528 , 969 528 
Q 979 528 , 987 527 
Q 995 526 , 1010 522 
L 1010 528 
Q 999 531 , 989 531 
Q 979 532 , 968 532 
Q 941 532 , 926 527 
Q 910 522 , 910 513 
Q 910 504 , 926 499 
Q 941 494 , 968 494 
Q 979 494 , 989 495 
Q 1000 496 , 1010 498 
" fill="#545FFF" />
<path d="
M 994 473 
L 994 436 
L 965 436 
L 965 421 
L 1010 421 
L 1010 483 
Q 999 489 , 988 491 
Q 979 493 , 967 493 
Q 941 493 , 925 475 
Q 910 456 , 910 424 
Q 910 391 , 925 373 
Q 941 354 , 967 354 
Q 978 354 , 987 356 
Q 997 359 , 1007 365 
L 1007 383 
Q 994 375 , 986 373 
Q 977 371 , 968 371 
Q 947 371 , 936 384 
Q 926 397 , 926 424 
Q 926 451 , 936 465 
Q 947 478 , 968 478 
Q 977 478 , 984 476 
Q 991 475 , 994 473 
" fill="#F5C000" />
<path d="
M 1065 553 
L 1047 554 
L 1081 554 
L 1065 553 
M 1058 553 
L 1072 553 
L 1115 554 
L 1099 554 
L 1087 554 
L 1043 554 
L 1030 554 
L 1015 554 
L 1058 553 
" fill="#339541" />
<path d="
M 1015 530 
L 1033 530 
L 1033 543 
Q 1033 547 , 1041 548 
Q 1048 550 , 1065 550 
Q 1082 550 , 1090 548 
Q 1097 547 , 1097 543 
L 1097 530 
L 1115 530 
L 1115 543 
Q 1115 548 , 1102 550 
Q 1090 552 , 1065 552 
Q 1041 552 , 1028 550 
Q 1015 548 , 1015 543 
L 1015 530 
" fill="#D21010" />
<path d="
M 1115 498 
L 1115 503 
Q 1100 500 , 1092 499 
Q 1084 498 , 1074 498 
Q 1053 498 , 1043 501 
Q 1031 505 , 1031 512 
Q 1031 519 , 1043 523 
Q 1053 526 , 1074 526 
Q 1084 526 , 1092 525 
Q 1100 524 , 1115 521 
L 1115 526 
Q 1104 528 , 1094 529 
Q 1084 530 , 1073 530 
Q 1046 530 , 1031 525 
Q 1015 520 , 1015 512 
Q 1015 504 , 1031 499 
Q 1046 494 , 1073 494 
Q 1084 494 , 1094 495 
Q 1105 496 , 1115 498 
" fill="#545FFF" />
<path d="
M 1099 483 
L 1099 463 
L 1070 463 
L 1070 455 
L 1115 455 
L 1115 487 
Q 1104 491 , 1093 492 
Q 1084 493 , 1072 493 
Q 1046 493 , 1030 483 
Q 1015 474 , 1015 457 
Q 1015 439 , 1030 430 
Q 1046 420 , 1072 420 
Q 1083 420 , 1092 421 
Q 1102 423 , 1112 426 
L 1112 435 
Q 1099 431 , 1091 430 
Q 1082 429 , 1073 429 
Q 1052 429 , 1041 436 
Q 1031 442 , 1031 457 
Q 1031 471 , 1041 478 
Q 1052 485 , 1073 485 
Q 1082 485 , 1089 484 
Q 1096 483 , 1099 483 
" fill="#F5C000" />
<path d="
M 1170 553 
L 1152 554 
L 1186 554 
L 1170 553 
M 1163 553 
L 1177 553 
L 1220 554 
L 1204 554 
L 1192 554 
L 1148 554 
L 1135 554 
L 1120 554 
L 1163 553 
" fill="#339541" />
<path d="
M 1120 544 
L 1138 544 
L 1138 549 
Q 1138 551 , 1146 551 
Q 1153 552 , 1170 552 
Q 1187 552 , 1195 551 
Q 1202 551 , 1202 549 
L 1202 544 
L 1220 544 
L 1220 549 
Q 1220 551 , 1207 552 
Q 1195 553 , 1170 553 
Q 1146 553 , 1133 552 
Q 1120 551 , 1120 549 
L 1120 544 
" fill="#D21010" />
<path d="
M 1204 534 
L 1204 515 
L 1175 515 
L 1175 507 
L 1220 507 
L 1220 538 
Q 1209 541 , 1198 542 
Q 1189 544 , 1177 544 
Q 1151 544 , 1135 534 
Q 1120 525 , 1120 509 
Q 1120 493 , 1135 483 
Q 1151 474 , 1177 474 
Q 1188 474 , 1197 475 
Q 1207 476 , 1217 480 
L 1217 489 
Q 1204 485 , 1196 483 
Q 1187 482 , 1178 482 
Q 1157 482 , 1146 489 
Q 1136 495 , 1136 509 
Q 1136 523 , 1146 529 
Q 1157 536 , 1178 536 
Q 1187 536 , 1194 535 
Q 1201 535 , 1204 534 
" fill="#F5C000" />
<path d="
M 1220 376 
L 1220 392 
Q 1205 382 , 1197 379 
Q 1189 376 , 1179 376 
Q 1158 376 , 1148 387 
Q 1136 398 , 1136 419 
Q 1136 440 , 1148 451 
Q 1158 461 , 1179 461 
Q 1189 461 , 1197 459 
Q 1205 456 , 1220 445 
L 1220 462 
Q 1209 468 , 1199 471 
Q 1189 473 , 1178 473 
Q 1151 473 , 1136 458 
Q 1120 444 , 1120 419 
Q 1120 394 , 1136 379 
Q 1151 364 , 1178 364 
Q 1189 364 , 1199 367 
Q 1210 369 , 1220 376 
" fill="#545FFF" />
<path d="
M 1275 553 
L 1257 554 
L 1291 554 
L 1275 553 
M 1268 553 
L 1282 553 
L 1325 554 
L 1309 554 
L 1297 554 
L 1253 554 
L 1240 554 
L 1225 554 
L 1268 553 
" fill="#339541" />
<path d="
M 1309 549 
L 1309 542 
L 1280 542 
L 1280 539 
L 1325 539 
L 1325 550 
Q 1314 551 , 1303 552 
Q 1294 552 , 1282 552 
Q 1256 552 , 1240 549 
Q 1225 546 , 1225 540 
Q 1225 534 , 1240 531 
Q 1256 528 , 1282 528 
Q 1293 528 , 1302 528 
Q 1312 529 , 1322 530 
L 1322 533 
Q 1309 532 , 1301 531 
Q 1292 531 , 1283 531 
Q 1262 531 , 1251 533 
Q 1241 535 , 1241 540 
Q 1241 545 , 1251 547 
Q 1262 549 , 1283 549 
Q 1292 549 , 1299 549 
Q 1306 549 , 1309 549 
" fill="#F5C000" />
<path d="
M 1325 502 
L 1325 506 
Q 1310 504 , 1302 503 
Q 1294 502 , 1284 502 
Q 1263 502 , 1253 505 
Q 1241 508 , 1241 513 
Q 1241 519 , 1253 521 
Q 1263 524 , 1284 524 
Q 1294 524 , 1302 523 
Q 1310 523 , 1325 520 
L 1325 524 
Q 1314 526 , 1304 527 
Q 1294 527 , 1283 527 
Q 1256 527 , 1241 523 
Q 1225 520 , 1225 513 
Q 1225 507 , 1241 503 
Q 1256 499 , 1283 499 
Q 1294 499 , 1304 500 
Q 1315 500 , 1325 502 
" fill="#545FFF" />
<path d="
M 1225 455 
L 1243 455 
L 1243 481 
Q 1243 488 , 1251 491 
Q 1258 494 , 1275 494 
Q 1292 494 , 1300 491 
Q 1307 488 , 1307 481 
L 1307 455 
L 1325 455 
L 1325 481 
Q 1325 490 , 1312 494 
Q 1300 499 , 1275 499 
Q 1251 499 , 1238 494 
Q 1225 490 , 1225 481 
L 1225 455 
" fill="#D21010" />
<path d="
M 1380 552 
L 1362 553 
L 1396 553 
L 1380 552 
M 1373 552 
L 1387 552 
L 1430 554 
L 1414 554 
L 1402 553 
L 1358 553 
L 1345 554 
L 1330 554 
L 1373 552 
" fill="#339541" />
<path d="
M 1330 549 
L 1348 549 
L 1348 551 
Q 1348 551 , 1356 551 
Q 1363 551 , 1380 551 
Q 1397 551 , 1405 551 
Q 1412 551 , 1412 551 
L 1412 549 
L 1430 549 
L 1430 551 
Q 1430 551 , 1417 551 
Q 1405 552 , 1380 552 
Q 1356 552 , 1343 551 
Q 1330 551 , 1330 551 
L 1330 549 
" fill="#D21010" />
<path d="
M 1430 545 
L 1430 546 
Q 1415 546 , 1407 545 
Q 1399 545 , 1389 545 
Q 1368 545 , 1358 546 
Q 1346 546 , 1346 546 
Q 1346 547 , 1358 548 
Q 1368 548 , 1389 548 
Q 1399 548 , 1407 548 
Q 1415 548 , 1430 548 
L 1430 548 
Q 1419 548 , 1409 548 
Q 1399 549 , 1388 549 
Q 1361 549 , 1346 548 
Q 1330 548 , 1330 547 
Q 1330 546 , 1346 545 
Q 1361 545 , 1388 545 
Q 1399 545 , 1409 545 
Q 1420 545 , 1430 545 
" fill="#545FFF" />
<path d="
M 1414 544 
L 1414 543 
L 1385 543 
L 1385 542 
L 1430 542 
L 1430 544 
Q 1419 544 , 1408 544 
Q 1399 544 , 1387 544 
Q 1361 544 , 1345 544 
Q 1330 543 , 1330 542 
Q 1330 541 , 1345 541 
Q 1361 540 , 1387 540 
Q 1398 540 , 1407 540 
Q 1417 540 , 1427 540 
L 1427 541 
Q 1414 541 , 1406 541 
Q 1397 541 , 1388 541 
Q 1367 541 , 1356 541 
Q 1346 541 , 1346 542 
Q 1346 543 , 1356 543 
Q 1367 544 , 1388 544 
Q 1397 544 , 1404 544 
Q 1411 544 , 1414 544 
" fill="#F5C000" />
<path d="M 65 55 L 65 555 " stroke="black" stroke-width="1.5"/>
<path d="M 55 555 L 65 555 " stroke="black" stroke-width="4"/>
<text text-anchor="end" x="50" y="555" font-size="50" alignment-baseline="middle">0</text>
<path d="M 55 305 L 65 305 " stroke="black" stroke-width="4"/>
<text text-anchor="end" x="50" y="305" font-size="50" alignment-baseline="middle">1</text>
<path d="M 55 55 L 65 55 " stroke="black" stroke-width="4"/>
<text text-anchor="end" x="50" y="55" font-size="50" alignment-baseline="middle">2</text>
<text text-anchor="middle" x="750" y="50" font-size="50" alignment-baseline="baseline"></text>
G<path d="
M 160 582 
L 126 595 
L 160 608 
L 157 611 
L 123 598 
L 123 623 
L 117 623 
L 117 599 
L 83 611 
L 80 608 
L 114 595 
L 80 582 
L 83 579 
L 117 591 
L 117 567 
L 123 567 
L 123 591 
L 157 579 
L 160 582 
" fill="black" />
<path d="
" fill="black" />
<path d="
M 211 567 
L 238 567 
L 238 623 
L 211 623 
L 211 567 
" fill="black" />
<path d="
" fill="black" />
<path d="
" fill="black" />
<path d="
M 316 567 
L 343 567 
L 343 623 
L 316 623 
L 316 567 
" fill="black" />
<path d="
" fill="black" />
<path d="
" fill="black" />
<path d="
M 421 567 
L 448 567 
L 448 623 
L 421 623 
L 421 567 
" fill="black" />
<path d="
" fill="black" />
<path d="
" fill="black" />
<path d="
M 526 567 
L 553 567 
L 553 623 
L 526 623 
L 526 567 
" fill="black" />
<path d="
" fill="black" />
<path d="
" fill="black" />
<path d="
M 617 567 
L 633 567 
L 633 623 
L 617 623 
L 617 567 
" fill="black" />
<path d="
" fill="black" />
<path d="
M 669 593 
Q 671 594 , 672 597 
Q 673 601 , 673 606 
Q 673 614 , 671 618 
Q 669 623 , 664 623 
Q 662 623 , 661 622 
Q 659 621 , 657 619 
L 657 613 
Q 659 617 , 660 618 
Q 662 619 , 664 619 
Q 667 619 , 669 616 
Q 671 613 , 671 606 
Q 671 601 , 669 598 
Q 668 595 , 664 595 
L 661 595 
L 661 591 
L 665 591 
Q 667 591 , 669 589 
Q 670 586 , 670 582 
Q 670 577 , 669 574 
Q 667 571 , 664 571 
Q 663 571 , 661 572 
Q 660 573 , 658 575 
L 658 571 
Q 660 569 , 662 568 
Q 663 567 , 665 567 
Q 669 567 , 671 571 
Q 672 575 , 672 581 
Q 672 586 , 671 589 
Q 671 592 , 669 593 
" fill="black" />
<path d="
M 689 593 
Q 691 594 , 692 597 
Q 693 601 , 693 606 
Q 693 614 , 691 618 
Q 689 623 , 684 623 
Q 682 623 , 681 622 
Q 679 621 , 677 619 
L 677 613 
Q 679 617 , 680 618 
Q 682 619 , 684 619 
Q 687 619 , 689 616 
Q 691 613 , 691 606 
Q 691 601 , 689 598 
Q 688 595 , 684 595 
L 681 595 
L 681 591 
L 685 591 
Q 687 591 , 689 589 
Q 690 586 , 690 582 
Q 690 577 , 689 574 
Q 687 571 , 684 571 
Q 683 571 , 681 572 
Q 680 573 , 678 575 
L 678 571 
Q 680 569 , 682 568 
Q 683 567 , 685 567 
Q 689 567 , 691 571 
Q 692 575 , 692 581 
Q 692 586 , 691 589 
Q 691 592 , 689 593 
" fill="black" />
<path d="
M 790 582 
L 756 595 
L 790 608 
L 787 611 
L 753 598 
L 753 623 
L 747 623 
L 747 599 
L 713 611 
L 710 608 
L 744 595 
L 710 582 
L 713 579 
L 747 591 
L 747 567 
L 753 567 
L 753 591 
L 787 579 
L 790 582 
" fill="black" />
<path d="
" fill="black" />
<path d="
M 841 567 
L 868 567 
L 868 623 
L 841 623 
L 841 567 
" fill="black" />
<path d="
" fill="black" />
<path d="
" fill="black" />
<path d="
M 946 567 
L 973 567 
L 973 623 
L 946 623 
L 946 567 
" fill="black" />
<path d="
" fill="black" />
<path d="
" fill="black" />
<path d="
M 1051 567 
L 1078 567 
L 1078 623 
L 1051 623 
L 1051 567 
" fill="black" />
<path d="
" fill="black" />
<path d="
" fill="black" />
<path d="
M 1156 567 
L 1183 567 
L 1183 623 
L 1156 623 
L 1156 567 
" fill="black" />
<path d="
" fill="black" />
<path d="
" fill="black" />
<path d="
M 1261 567 
L 1288 567 
L 1288 623 
L 1261 623 
L 1261 567 
" fill="black" />
<path d="
" fill="black" />
<path d="
M 1420 582 
L 1386 595 
L 1420 608 
L 1417 611 
L 1383 598 
L 1383 623 
L 1377 623 
L 1377 599 
L 1343 611 
L 1340 608 
L 1374 595 
L 1340 582 
L 1343 579 
L 1377 591 
L 1377 567 
L 1383 567 
L 1383 591 
L 1417 579 
L 1420 582 
" fill="black" />
</svg>
