<svg xmlns="http://www.w3.org/2000/svg"
viewBox="0 0 1435 635">
<path d="
M 120 553 
L 102 554 
L 136 554 
L 120 553 
M 113 553 
L 127 553 
L 170 555 
L 154 555 
L 142 554 
L 98 554 
L 85 555 
L 70 555 
L 113 553 
" fill="#339541" />
<path d="
M 70 550 
L 88 550 
L 88 551 
Q 88 552 , 96 552 
Q 103 552 , 120 552 
Q 137 552 , 145 552 
Q 152 552 , 152 551 
L 152 550 
L 170 550 
L 170 551 
Q 170 552 , 157 552 
Q 145 552 , 120 552 
Q 96 552 , 83 552 
Q 70 552 , 70 551 
L 70 550 
" fill="#D21010" />
<path d="
M 170 547 
L 170 548 
Q 155 547 , 147 547 
Q 139 547 , 129 547 
Q 108 547 , 98 548 
Q 86 548 , 86 548 
Q 86 549 , 98 549 
Q 108 549 , 129 549 
Q 139 549 , 147 549 
Q 155 549 , 170 549 
L 170 549 
Q 159 550 , 149 550 
Q 139 550 , 128 550 
Q 101 550 , 86 549 
Q 70 549 , 70 548 
Q 70 548 , 86 547 
Q 101 547 , 128 547 
Q 139 547 , 149 547 
Q 160 547 , 170 547 
" fill="#545FFF" />
<path d="
M 154 546 
L 154 545 
L 125 545 
L 125 545 
L 170 545 
L 170 546 
Q 159 546 , 148 546 
Q 139 546 , 127 546 
Q 101 546 , 85 546 
Q 70 545 , 70 545 
Q 70 544 , 85 543 
Q 101 543 , 127 543 
Q 138 543 , 147 543 
Q 157 543 , 167 543 
L 167 544 
Q 154 544 , 146 543 
Q 137 543 , 128 543 
Q 107 543 , 96 544 
Q 86 544 , 86 545 
Q 86 545 , 96 546 
Q 107 546 , 128 546 
Q 137 546 , 144 546 
Q 151 546 , 154 546 
" fill="#F5C000" />
<path d="
M 175 554 
L 184 554 
L 184 554 
Q 184 555 , 188 555 
Q 191 555 , 200 555 
Q 209 555 , 212 555 
Q 216 555 , 216 554 
L 216 554 
L 225 554 
L 225 554 
Q 225 555 , 219 555 
Q 212 555 , 200 555 
Q 188 555 , 181 555 
Q 175 555 , 175 554 
L 175 554 
" fill="#D21010" />
<path d="
M 267 555 
L 267 554 
L 253 554 
L 253 554 
L 275 554 
L 275 555 
Q 270 555 , 264 555 
Q 259 555 , 253 555 
Q 240 555 , 233 555 
Q 225 555 , 225 554 
Q 225 554 , 233 554 
Q 240 554 , 253 554 
Q 259 554 , 264 554 
Q 269 554 , 274 554 
L 274 554 
Q 267 554 , 263 554 
Q 259 554 , 254 554 
Q 244 554 , 238 554 
Q 233 554 , 233 554 
Q 233 555 , 238 555 
Q 244 555 , 254 555 
Q 259 555 , 262 555 
Q 266 555 , 267 555 
" fill="lightgray" />
<path d="
M 217 554 
L 217 553 
L 203 553 
L 203 553 
L 225 553 
L 225 554 
Q 220 554 , 214 554 
Q 209 554 , 203 554 
Q 190 554 , 183 554 
Q 175 554 , 175 553 
Q 175 553 , 183 553 
Q 190 553 , 203 553 
Q 209 553 , 214 553 
Q 219 553 , 224 553 
L 224 553 
Q 217 553 , 213 553 
Q 209 553 , 204 553 
Q 194 553 , 188 553 
Q 183 553 , 183 553 
Q 183 554 , 188 554 
Q 194 554 , 204 554 
Q 209 554 , 212 554 
Q 216 554 , 217 554 
" fill="#F5C000" />
<path d="
M 225 553 
L 234 553 
L 234 553 
Q 234 554 , 238 554 
Q 241 554 , 250 554 
Q 259 554 , 262 554 
Q 266 554 , 266 553 
L 266 553 
L 275 553 
L 275 554 
Q 275 554 , 269 554 
Q 262 554 , 250 554 
Q 238 554 , 231 554 
Q 225 554 , 225 554 
L 225 553 
" fill="lightgray" />
<path d="
M 200 538 
L 191 545 
L 208 545 
L 200 538 
M 196 535 
L 204 535 
L 225 552 
L 217 552 
L 211 547 
L 189 547 
L 182 552 
L 175 552 
L 196 535 
" fill="#339541" />
<path d="
M 225 535 
L 234 535 
L 234 545 
Q 234 548 , 238 549 
Q 241 550 , 250 550 
Q 259 550 , 262 549 
Q 266 548 , 266 545 
L 266 535 
L 275 535 
L 275 545 
Q 275 549 , 269 551 
Q 262 552 , 250 552 
Q 238 552 , 231 551 
Q 225 549 , 225 545 
L 225 535 
" fill="lightgray" />
<path d="
M 175 515 
L 184 515 
L 184 527 
Q 184 530 , 188 531 
Q 191 532 , 200 532 
Q 209 532 , 212 531 
Q 216 530 , 216 527 
L 216 515 
L 225 515 
L 225 527 
Q 225 531 , 219 533 
Q 212 535 , 200 535 
Q 188 535 , 181 533 
Q 175 531 , 175 527 
L 175 515 
" fill="#D21010" />
<path d="
M 250 519 
L 241 527 
L 258 527 
L 250 519 
M 246 515 
L 254 515 
L 275 535 
L 267 535 
L 261 529 
L 239 529 
L 232 535 
L 225 535 
L 246 515 
" fill="lightgray" />
<path d="
M 225 485 
L 225 490 
Q 218 486 , 214 486 
Q 209 485 , 204 485 
Q 194 485 , 189 488 
Q 183 491 , 183 497 
Q 183 504 , 189 507 
Q 194 511 , 204 511 
Q 209 511 , 214 510 
Q 218 509 , 225 506 
L 225 511 
Q 220 513 , 214 513 
Q 210 514 , 204 514 
Q 190 514 , 183 510 
Q 175 505 , 175 498 
Q 175 490 , 183 486 
Q 190 481 , 204 481 
Q 210 481 , 215 482 
Q 220 483 , 225 485 
" fill="#545FFF" />
<path d="
M 267 509 
L 267 501 
L 253 501 
L 253 497 
L 275 497 
L 275 512 
Q 270 513 , 264 514 
Q 259 514 , 253 514 
Q 240 514 , 233 510 
Q 225 505 , 225 498 
Q 225 490 , 233 485 
Q 240 481 , 253 481 
Q 259 481 , 264 482 
Q 269 482 , 274 484 
L 274 488 
Q 267 486 , 263 485 
Q 259 485 , 254 485 
Q 244 485 , 238 488 
Q 233 491 , 233 498 
Q 233 504 , 238 507 
Q 244 510 , 254 510 
Q 259 510 , 262 510 
Q 266 510 , 267 509 
" fill="lightgray" />
<path d="
M 217 475 
L 217 465 
L 203 465 
L 203 461 
L 225 461 
L 225 477 
Q 220 479 , 214 479 
Q 209 480 , 203 480 
Q 190 480 , 183 475 
Q 175 470 , 175 462 
Q 175 453 , 183 448 
Q 190 443 , 203 443 
Q 209 443 , 214 444 
Q 219 444 , 224 446 
L 224 451 
Q 217 449 , 213 448 
Q 209 447 , 204 447 
Q 194 447 , 188 451 
Q 183 454 , 183 462 
Q 183 469 , 188 472 
Q 194 476 , 204 476 
Q 209 476 , 212 476 
Q 216 475 , 217 475 
" fill="#F5C000" />
<path d="
M 275 447 
L 275 453 
Q 268 449 , 264 448 
Q 259 447 , 254 447 
Q 244 447 , 239 451 
Q 233 454 , 233 461 
Q 233 469 , 239 472 
Q 244 476 , 254 476 
Q 259 476 , 264 475 
Q 268 474 , 275 470 
L 275 476 
Q 270 478 , 264 479 
Q 260 480 , 254 480 
Q 240 480 , 233 475 
Q 225 470 , 225 462 
Q 225 453 , 233 448 
Q 240 443 , 254 443 
Q 260 443 , 265 444 
Q 270 445 , 275 447 
" fill="lightgray" />
<path d="
M 280 554 
L 289 554 
L 289 554 
Q 289 555 , 293 555 
Q 296 555 , 305 555 
Q 314 555 , 317 555 
Q 321 555 , 321 554 
L 321 554 
L 330 554 
L 330 554 
Q 330 555 , 324 555 
Q 317 555 , 305 555 
Q 293 555 , 286 555 
Q 280 555 , 280 554 
L 280 554 
" fill="#D21010" />
<path d="
M 372 555 
L 372 554 
L 358 554 
L 358 554 
L 380 554 
L 380 555 
Q 375 555 , 369 555 
Q 364 555 , 358 555 
Q 345 555 , 338 555 
Q 330 555 , 330 554 
Q 330 554 , 338 554 
Q 345 554 , 358 554 
Q 364 554 , 369 554 
Q 374 554 , 379 554 
L 379 554 
Q 372 554 , 368 554 
Q 364 554 , 359 554 
Q 349 554 , 343 554 
Q 338 554 , 338 554 
Q 338 555 , 343 555 
Q 349 555 , 359 555 
Q 364 555 , 367 555 
Q 371 555 , 372 555 
" fill="lightgray" />
<path d="
M 322 553 
L 322 553 
L 308 553 
L 308 553 
L 330 553 
L 330 553 
Q 325 553 , 319 553 
Q 314 553 , 308 553 
Q 295 553 , 288 553 
Q 280 553 , 280 553 
Q 280 552 , 288 552 
Q 295 552 , 308 552 
Q 314 552 , 319 552 
Q 324 552 , 329 552 
L 329 552 
Q 322 552 , 318 552 
Q 314 552 , 309 552 
Q 299 552 , 293 552 
Q 288 552 , 288 553 
Q 288 553 , 293 553 
Q 299 553 , 309 553 
Q 314 553 , 317 553 
Q 321 553 , 322 553 
" fill="#F5C000" />
<path d="
M 330 552 
L 339 552 
L 339 553 
Q 339 553 , 343 553 
Q 346 553 , 355 553 
Q 364 553 , 367 553 
Q 371 553 , 371 553 
L 371 552 
L 380 552 
L 380 553 
Q 380 553 , 374 553 
Q 367 553 , 355 553 
Q 343 553 , 336 553 
Q 330 553 , 330 553 
L 330 552 
" fill="lightgray" />
<path d="
M 280 537 
L 289 537 
L 289 546 
Q 289 548 , 293 549 
Q 296 550 , 305 550 
Q 314 550 , 317 549 
Q 321 548 , 321 546 
L 321 537 
L 330 537 
L 330 546 
Q 330 549 , 324 550 
Q 317 552 , 305 552 
Q 293 552 , 286 550 
Q 280 549 , 280 546 
L 280 537 
" fill="#D21010" />
<path d="
M 355 540 
L 346 546 
L 363 546 
L 355 540 
M 351 537 
L 359 537 
L 380 552 
L 372 552 
L 366 547 
L 344 547 
L 337 552 
L 330 552 
L 351 537 
" fill="lightgray" />
<path d="
M 330 515 
L 330 519 
Q 323 517 , 319 516 
Q 314 516 , 309 516 
Q 299 516 , 294 518 
Q 288 520 , 288 524 
Q 288 529 , 294 532 
Q 299 534 , 309 534 
Q 314 534 , 319 533 
Q 323 533 , 330 530 
L 330 534 
Q 325 535 , 319 536 
Q 315 536 , 309 536 
Q 295 536 , 288 533 
Q 280 530 , 280 525 
Q 280 519 , 288 516 
Q 295 513 , 309 513 
Q 315 513 , 320 514 
Q 325 514 , 330 515 
" fill="#545FFF" />
<path d="
M 372 533 
L 372 527 
L 358 527 
L 358 524 
L 380 524 
L 380 535 
Q 375 536 , 369 536 
Q 364 536 , 358 536 
Q 345 536 , 338 533 
Q 330 530 , 330 525 
Q 330 519 , 338 516 
Q 345 513 , 358 513 
Q 364 513 , 369 513 
Q 374 514 , 379 515 
L 379 518 
Q 372 517 , 368 516 
Q 364 516 , 359 516 
Q 349 516 , 343 518 
Q 338 520 , 338 525 
Q 338 529 , 343 531 
Q 349 534 , 359 534 
Q 364 534 , 367 533 
Q 371 533 , 372 533 
" fill="lightgray" />
<path d="
M 305 490 
L 296 501 
L 313 501 
L 305 490 
M 301 485 
L 309 485 
L 330 512 
L 322 512 
L 316 504 
L 294 504 
L 287 512 
L 280 512 
L 301 485 
" fill="#339541" />
<path d="
M 330 485 
L 339 485 
L 339 501 
Q 339 506 , 343 508 
Q 346 509 , 355 509 
Q 364 509 , 367 508 
Q 371 506 , 371 501 
L 371 485 
L 380 485 
L 380 502 
Q 380 507 , 374 510 
Q 367 512 , 355 512 
Q 343 512 , 336 510 
Q 330 507 , 330 502 
L 330 485 
" fill="lightgray" />
<path d="
M 322 480 
L 322 471 
L 308 471 
L 308 468 
L 330 468 
L 330 482 
Q 325 484 , 319 484 
Q 314 485 , 308 485 
Q 295 485 , 288 481 
Q 280 476 , 280 469 
Q 280 461 , 288 456 
Q 295 452 , 308 452 
Q 314 452 , 319 453 
Q 324 453 , 329 455 
L 329 459 
Q 322 457 , 318 456 
Q 314 456 , 309 456 
Q 299 456 , 293 459 
Q 288 462 , 288 469 
Q 288 475 , 293 478 
Q 299 481 , 309 481 
Q 314 481 , 317 481 
Q 321 481 , 322 480 
" fill="#F5C000" />
<path d="
M 380 456 
L 380 461 
Q 373 457 , 369 457 
Q 364 456 , 359 456 
Q 349 456 , 344 459 
Q 338 462 , 338 468 
Q 338 475 , 344 478 
Q 349 481 , 359 481 
Q 364 481 , 369 481 
Q 373 480 , 380 476 
L 380 482 
Q 375 483 , 369 484 
Q 365 485 , 359 485 
Q 345 485 , 338 480 
Q 330 476 , 330 469 
Q 330 461 , 338 457 
Q 345 452 , 359 452 
Q 365 452 , 370 453 
Q 375 454 , 380 456 
" fill="lightgray" />
<path d="
M 435 553 
L 417 554 
L 451 554 
L 435 553 
M 428 553 
L 442 553 
L 485 554 
L 469 554 
L 457 554 
L 413 554 
L 400 554 
L 385 554 
L 428 553 
" fill="#339541" />
<path d="
M 485 537 
L 485 539 
Q 470 538 , 462 537 
Q 454 537 , 444 537 
Q 423 537 , 413 539 
Q 401 540 , 401 543 
Q 401 547 , 413 549 
Q 423 550 , 444 550 
Q 454 550 , 462 550 
Q 470 549 , 485 548 
L 485 550 
Q 474 551 , 464 552 
Q 454 552 , 443 552 
Q 416 552 , 401 550 
Q 385 548 , 385 544 
Q 385 540 , 401 537 
Q 416 535 , 443 535 
Q 454 535 , 464 535 
Q 475 536 , 485 537 
" fill="#545FFF" />
<path d="
M 385 513 
L 403 513 
L 403 525 
Q 403 529 , 411 530 
Q 418 532 , 435 532 
Q 452 532 , 460 530 
Q 467 529 , 467 525 
L 467 513 
L 485 513 
L 485 526 
Q 485 530 , 472 532 
Q 460 534 , 435 534 
Q 411 534 , 398 532 
Q 385 530 , 385 526 
L 385 513 
" fill="#D21010" />
<path d="
M 469 507 
L 469 499 
L 440 499 
L 440 495 
L 485 495 
L 485 510 
Q 474 511 , 463 512 
Q 454 512 , 442 512 
Q 416 512 , 400 508 
Q 385 503 , 385 496 
Q 385 488 , 400 483 
Q 416 479 , 442 479 
Q 453 479 , 462 480 
Q 472 480 , 482 482 
L 482 486 
Q 469 484 , 461 483 
Q 452 483 , 443 483 
Q 422 483 , 411 486 
Q 401 489 , 401 496 
Q 401 502 , 411 505 
Q 422 509 , 443 509 
Q 452 509 , 459 508 
Q 466 508 , 469 507 
" fill="#F5C000" />
<path d="
M 540 553 
L 522 554 
L 556 554 
L 540 553 
M 533 553 
L 547 553 
L 590 555 
L 574 555 
L 562 554 
L 518 554 
L 505 555 
L 490 555 
L 533 553 
" fill="#339541" />
<path d="
M 490 535 
L 508 535 
L 508 545 
Q 508 548 , 516 549 
Q 523 550 , 540 550 
Q 557 550 , 565 549 
Q 572 548 , 572 545 
L 572 535 
L 590 535 
L 590 545 
Q 590 549 , 577 551 
Q 565 552 , 540 552 
Q 516 552 , 503 551 
Q 490 549 , 490 545 
L 490 535 
" fill="#D21010" />
<path d="
M 590 514 
L 590 518 
Q 575 516 , 567 515 
Q 559 514 , 549 514 
Q 528 514 , 518 517 
Q 506 519 , 506 523 
Q 506 527 , 518 530 
Q 528 532 , 549 532 
Q 559 532 , 567 531 
Q 575 531 , 590 528 
L 590 532 
Q 579 533 , 569 534 
Q 559 534 , 548 534 
Q 521 534 , 506 531 
Q 490 528 , 490 523 
Q 490 518 , 506 515 
Q 521 512 , 548 512 
Q 559 512 , 569 513 
Q 580 513 , 590 514 
" fill="#545FFF" />
<path d="
M 574 503 
L 574 488 
L 545 488 
L 545 481 
L 590 481 
L 590 507 
Q 579 509 , 568 510 
Q 559 511 , 547 511 
Q 521 511 , 505 504 
Q 490 496 , 490 483 
Q 490 469 , 505 462 
Q 521 454 , 547 454 
Q 558 454 , 567 455 
Q 577 456 , 587 459 
L 587 466 
Q 574 463 , 566 462 
Q 557 461 , 548 461 
Q 527 461 , 516 466 
Q 506 472 , 506 483 
Q 506 494 , 516 499 
Q 527 505 , 548 505 
Q 557 505 , 564 504 
Q 571 504 , 574 503 
" fill="#F5C000" />
<path d="
M 645 551 
L 627 553 
L 661 553 
L 645 551 
M 638 550 
L 652 550 
L 695 554 
L 679 554 
L 667 553 
L 623 553 
L 610 554 
L 595 554 
L 638 550 
" fill="#339541" />
<path d="
M 595 540 
L 613 540 
L 613 545 
Q 613 547 , 621 548 
Q 628 548 , 645 548 
Q 662 548 , 670 548 
Q 677 547 , 677 545 
L 677 540 
L 695 540 
L 695 546 
Q 695 547 , 682 548 
Q 670 549 , 645 549 
Q 621 549 , 608 548 
Q 595 547 , 595 546 
L 595 540 
" fill="#D21010" />
<path d="
M 695 515 
L 695 519 
Q 680 516 , 672 516 
Q 664 515 , 654 515 
Q 633 515 , 623 518 
Q 611 520 , 611 525 
Q 611 531 , 623 534 
Q 633 536 , 654 536 
Q 664 536 , 672 536 
Q 680 535 , 695 532 
L 695 537 
Q 684 538 , 674 539 
Q 664 539 , 653 539 
Q 626 539 , 611 536 
Q 595 532 , 595 526 
Q 595 519 , 611 516 
Q 626 512 , 653 512 
Q 664 512 , 674 513 
Q 685 513 , 695 515 
" fill="#545FFF" />
<path d="
M 679 504 
L 679 490 
L 650 490 
L 650 484 
L 695 484 
L 695 507 
Q 684 510 , 673 511 
Q 664 512 , 652 512 
Q 626 512 , 610 504 
Q 595 497 , 595 485 
Q 595 472 , 610 465 
Q 626 458 , 652 458 
Q 663 458 , 672 459 
Q 682 460 , 692 462 
L 692 469 
Q 679 466 , 671 465 
Q 662 464 , 653 464 
Q 632 464 , 621 469 
Q 611 474 , 611 485 
Q 611 495 , 621 501 
Q 632 506 , 653 506 
Q 662 506 , 669 505 
Q 676 505 , 679 504 
" fill="#F5C000" />
<path d="
M 750 553 
L 732 554 
L 766 554 
L 750 553 
M 743 553 
L 757 553 
L 800 555 
L 784 555 
L 772 554 
L 728 554 
L 715 555 
L 700 555 
L 743 553 
" fill="#339541" />
<path d="
M 700 550 
L 718 550 
L 718 551 
Q 718 552 , 726 552 
Q 733 552 , 750 552 
Q 767 552 , 775 552 
Q 782 552 , 782 551 
L 782 550 
L 800 550 
L 800 551 
Q 800 552 , 787 552 
Q 775 552 , 750 552 
Q 726 552 , 713 552 
Q 700 552 , 700 551 
L 700 550 
" fill="#D21010" />
<path d="
M 800 547 
L 800 548 
Q 785 547 , 777 547 
Q 769 547 , 759 547 
Q 738 547 , 728 548 
Q 716 548 , 716 548 
Q 716 549 , 728 549 
Q 738 549 , 759 549 
Q 769 549 , 777 549 
Q 785 549 , 800 549 
L 800 549 
Q 789 550 , 779 550 
Q 769 550 , 758 550 
Q 731 550 , 716 549 
Q 700 549 , 700 548 
Q 700 548 , 716 547 
Q 731 547 , 758 547 
Q 769 547 , 779 547 
Q 790 547 , 800 547 
" fill="#545FFF" />
<path d="
M 784 546 
L 784 545 
L 755 545 
L 755 545 
L 800 545 
L 800 546 
Q 789 546 , 778 546 
Q 769 546 , 757 546 
Q 731 546 , 715 546 
Q 700 545 , 700 545 
Q 700 544 , 715 543 
Q 731 543 , 757 543 
Q 768 543 , 777 543 
Q 787 543 , 797 543 
L 797 544 
Q 784 544 , 776 543 
Q 767 543 , 758 543 
Q 737 543 , 726 544 
Q 716 544 , 716 545 
Q 716 545 , 726 546 
Q 737 546 , 758 546 
Q 767 546 , 774 546 
Q 781 546 , 784 546 
" fill="#F5C000" />
<path d="
M 855 554 
L 837 555 
L 871 555 
L 855 554 
M 848 554 
L 862 554 
L 905 555 
L 889 555 
L 877 555 
L 833 555 
L 820 555 
L 805 555 
L 848 554 
" fill="#339541" />
<path d="
M 805 543 
L 823 543 
L 823 549 
Q 823 551 , 831 552 
Q 838 552 , 855 552 
Q 872 552 , 880 552 
Q 887 551 , 887 549 
L 887 543 
L 905 543 
L 905 549 
Q 905 551 , 892 552 
Q 880 553 , 855 553 
Q 831 553 , 818 552 
Q 805 551 , 805 549 
L 805 543 
" fill="#D21010" />
<path d="
M 905 497 
L 905 505 
Q 890 500 , 882 499 
Q 874 498 , 864 498 
Q 843 498 , 833 503 
Q 821 508 , 821 517 
Q 821 527 , 833 532 
Q 843 537 , 864 537 
Q 874 537 , 882 536 
Q 890 535 , 905 530 
L 905 538 
Q 894 540 , 884 542 
Q 874 543 , 863 543 
Q 836 543 , 821 536 
Q 805 529 , 805 517 
Q 805 506 , 821 499 
Q 836 492 , 863 492 
Q 874 492 , 884 493 
Q 895 494 , 905 497 
" fill="#545FFF" />
<path d="
M 889 484 
L 889 470 
L 860 470 
L 860 464 
L 905 464 
L 905 488 
Q 894 490 , 883 491 
Q 874 492 , 862 492 
Q 836 492 , 820 485 
Q 805 478 , 805 465 
Q 805 453 , 820 446 
Q 836 439 , 862 439 
Q 873 439 , 882 440 
Q 892 441 , 902 443 
L 902 450 
Q 889 447 , 881 446 
Q 872 445 , 863 445 
Q 842 445 , 831 450 
Q 821 455 , 821 465 
Q 821 476 , 831 481 
Q 842 486 , 863 486 
Q 872 486 , 879 485 
Q 886 485 , 889 484 
" fill="#F5C000" />
<path d="
M 960 554 
L 942 554 
L 976 554 
L 960 554 
M 953 554 
L 967 554 
L 1010 555 
L 994 555 
L 982 554 
L 938 554 
L 925 555 
L 910 555 
L 953 554 
" fill="#339541" />
<path d="
M 910 541 
L 928 541 
L 928 549 
Q 928 551 , 936 552 
Q 943 553 , 960 553 
Q 977 553 , 985 552 
Q 992 551 , 992 549 
L 992 541 
L 1010 541 
L 1010 549 
Q 1010 551 , 997 553 
Q 985 554 , 960 554 
Q 936 554 , 923 553 
Q 910 551 , 910 549 
L 910 541 
" fill="#D21010" />
<path d="
M 1010 506 
L 1010 512 
Q 995 508 , 987 507 
Q 979 506 , 969 506 
Q 948 506 , 938 510 
Q 926 514 , 926 521 
Q 926 529 , 938 533 
Q 948 537 , 969 537 
Q 979 537 , 987 536 
Q 995 535 , 1010 531 
L 1010 537 
Q 999 539 , 989 540 
Q 979 541 , 968 541 
Q 941 541 , 926 536 
Q 910 530 , 910 522 
Q 910 513 , 926 507 
Q 941 502 , 968 502 
Q 979 502 , 989 503 
Q 1000 504 , 1010 506 
" fill="#545FFF" />
<path d="
M 994 494 
L 994 479 
L 965 479 
L 965 472 
L 1010 472 
L 1010 498 
Q 999 500 , 988 501 
Q 979 502 , 967 502 
Q 941 502 , 925 494 
Q 910 487 , 910 474 
Q 910 460 , 925 453 
Q 941 445 , 967 445 
Q 978 445 , 987 446 
Q 997 447 , 1007 450 
L 1007 457 
Q 994 454 , 986 453 
Q 977 452 , 968 452 
Q 947 452 , 936 457 
Q 926 463 , 926 474 
Q 926 485 , 936 490 
Q 947 496 , 968 496 
Q 977 496 , 984 495 
Q 991 495 , 994 494 
" fill="#F5C000" />
<path d="
M 1015 554 
L 1024 554 
L 1024 554 
Q 1024 555 , 1028 555 
Q 1031 555 , 1040 555 
Q 1049 555 , 1052 555 
Q 1056 555 , 1056 554 
L 1056 554 
L 1065 554 
L 1065 554 
Q 1065 555 , 1059 555 
Q 1052 555 , 1040 555 
Q 1028 555 , 1021 555 
Q 1015 555 , 1015 554 
L 1015 554 
" fill="lightgray" />
<path d="
M 1107 555 
L 1107 554 
L 1093 554 
L 1093 554 
L 1115 554 
L 1115 555 
Q 1110 555 , 1104 555 
Q 1099 555 , 1093 555 
Q 1080 555 , 1073 555 
Q 1065 555 , 1065 554 
Q 1065 554 , 1073 554 
Q 1080 554 , 1093 554 
Q 1099 554 , 1104 554 
Q 1109 554 , 1114 554 
L 1114 554 
Q 1107 554 , 1103 554 
Q 1099 554 , 1094 554 
Q 1084 554 , 1078 554 
Q 1073 554 , 1073 554 
Q 1073 555 , 1078 555 
Q 1084 555 , 1094 555 
Q 1099 555 , 1102 555 
Q 1106 555 , 1107 555 
" fill="#F5C000" />
<path d="
M 1057 553 
L 1057 553 
L 1043 553 
L 1043 553 
L 1065 553 
L 1065 553 
Q 1060 553 , 1054 553 
Q 1049 553 , 1043 553 
Q 1030 553 , 1023 553 
Q 1015 553 , 1015 553 
Q 1015 552 , 1023 552 
Q 1030 552 , 1043 552 
Q 1049 552 , 1054 552 
Q 1059 552 , 1064 552 
L 1064 552 
Q 1057 552 , 1053 552 
Q 1049 552 , 1044 552 
Q 1034 552 , 1028 552 
Q 1023 552 , 1023 553 
Q 1023 553 , 1028 553 
Q 1034 553 , 1044 553 
Q 1049 553 , 1052 553 
Q 1056 553 , 1057 553 
" fill="lightgray" />
<path d="
M 1065 552 
L 1074 552 
L 1074 553 
Q 1074 553 , 1078 553 
Q 1081 553 , 1090 553 
Q 1099 553 , 1102 553 
Q 1106 553 , 1106 553 
L 1106 552 
L 1115 552 
L 1115 553 
Q 1115 553 , 1109 553 
Q 1102 553 , 1090 553 
Q 1078 553 , 1071 553 
Q 1065 553 , 1065 553 
L 1065 552 
" fill="#D21010" />
<path d="
M 1015 537 
L 1024 537 
L 1024 546 
Q 1024 548 , 1028 549 
Q 1031 550 , 1040 550 
Q 1049 550 , 1052 549 
Q 1056 548 , 1056 546 
L 1056 537 
L 1065 537 
L 1065 546 
Q 1065 549 , 1059 550 
Q 1052 552 , 1040 552 
Q 1028 552 , 1021 550 
Q 1015 549 , 1015 546 
L 1015 537 
" fill="lightgray" />
<path d="
M 1090 540 
L 1081 546 
L 1098 546 
L 1090 540 
M 1086 537 
L 1094 537 
L 1115 552 
L 1107 552 
L 1101 547 
L 1079 547 
L 1072 552 
L 1065 552 
L 1086 537 
" fill="#339541" />
<path d="
M 1065 515 
L 1065 519 
Q 1058 517 , 1054 516 
Q 1049 516 , 1044 516 
Q 1034 516 , 1029 518 
Q 1023 520 , 1023 524 
Q 1023 529 , 1029 532 
Q 1034 534 , 1044 534 
Q 1049 534 , 1054 533 
Q 1058 533 , 1065 530 
L 1065 534 
Q 1060 535 , 1054 536 
Q 1050 536 , 1044 536 
Q 1030 536 , 1023 533 
Q 1015 530 , 1015 525 
Q 1015 519 , 1023 516 
Q 1030 513 , 1044 513 
Q 1050 513 , 1055 514 
Q 1060 514 , 1065 515 
" fill="lightgray" />
<path d="
M 1107 533 
L 1107 527 
L 1093 527 
L 1093 524 
L 1115 524 
L 1115 535 
Q 1110 536 , 1104 536 
Q 1099 536 , 1093 536 
Q 1080 536 , 1073 533 
Q 1065 530 , 1065 525 
Q 1065 519 , 1073 516 
Q 1080 513 , 1093 513 
Q 1099 513 , 1104 513 
Q 1109 514 , 1114 515 
L 1114 518 
Q 1107 517 , 1103 516 
Q 1099 516 , 1094 516 
Q 1084 516 , 1078 518 
Q 1073 520 , 1073 525 
Q 1073 529 , 1078 531 
Q 1084 534 , 1094 534 
Q 1099 534 , 1102 533 
Q 1106 533 , 1107 533 
" fill="#F5C000" />
<path d="
M 1040 490 
L 1031 501 
L 1048 501 
L 1040 490 
M 1036 485 
L 1044 485 
L 1065 512 
L 1057 512 
L 1051 504 
L 1029 504 
L 1022 512 
L 1015 512 
L 1036 485 
" fill="lightgray" />
<path d="
M 1065 485 
L 1074 485 
L 1074 501 
Q 1074 506 , 1078 508 
Q 1081 509 , 1090 509 
Q 1099 509 , 1102 508 
Q 1106 506 , 1106 501 
L 1106 485 
L 1115 485 
L 1115 502 
Q 1115 507 , 1109 510 
Q 1102 512 , 1090 512 
Q 1078 512 , 1071 510 
Q 1065 507 , 1065 502 
L 1065 485 
" fill="#D21010" />
<path d="
M 1057 480 
L 1057 471 
L 1043 471 
L 1043 468 
L 1065 468 
L 1065 482 
Q 1060 484 , 1054 484 
Q 1049 485 , 1043 485 
Q 1030 485 , 1023 481 
Q 1015 476 , 1015 469 
Q 1015 461 , 1023 456 
Q 1030 452 , 1043 452 
Q 1049 452 , 1054 453 
Q 1059 453 , 1064 455 
L 1064 459 
Q 1057 457 , 1053 456 
Q 1049 456 , 1044 456 
Q 1034 456 , 1028 459 
Q 1023 462 , 1023 469 
Q 1023 475 , 1028 478 
Q 1034 481 , 1044 481 
Q 1049 481 , 1052 481 
Q 1056 481 , 1057 480 
" fill="lightgray" />
<path d="
M 1115 456 
L 1115 461 
Q 1108 457 , 1104 457 
Q 1099 456 , 1094 456 
Q 1084 456 , 1079 459 
Q 1073 462 , 1073 468 
Q 1073 475 , 1079 478 
Q 1084 481 , 1094 481 
Q 1099 481 , 1104 481 
Q 1108 480 , 1115 476 
L 1115 482 
Q 1110 483 , 1104 484 
Q 1100 485 , 1094 485 
Q 1080 485 , 1073 480 
Q 1065 476 , 1065 469 
Q 1065 461 , 1073 457 
Q 1080 452 , 1094 452 
Q 1100 452 , 1105 453 
Q 1110 454 , 1115 456 
" fill="#545FFF" />
<path d="
M 1120 554 
L 1129 554 
L 1129 554 
Q 1129 555 , 1133 555 
Q 1136 555 , 1145 555 
Q 1154 555 , 1157 555 
Q 1161 555 , 1161 554 
L 1161 554 
L 1170 554 
L 1170 554 
Q 1170 555 , 1164 555 
Q 1157 555 , 1145 555 
Q 1133 555 , 1126 555 
Q 1120 555 , 1120 554 
L 1120 554 
" fill="lightgray" />
<path d="
M 1212 555 
L 1212 554 
L 1198 554 
L 1198 554 
L 1220 554 
L 1220 555 
Q 1215 555 , 1209 555 
Q 1204 555 , 1198 555 
Q 1185 555 , 1178 555 
Q 1170 555 , 1170 554 
Q 1170 554 , 1178 554 
Q 1185 554 , 1198 554 
Q 1204 554 , 1209 554 
Q 1214 554 , 1219 554 
L 1219 554 
Q 1212 554 , 1208 554 
Q 1204 554 , 1199 554 
Q 1189 554 , 1183 554 
Q 1178 554 , 1178 554 
Q 1178 555 , 1183 555 
Q 1189 555 , 1199 555 
Q 1204 555 , 1207 555 
Q 1211 555 , 1212 555 
" fill="#F5C000" />
<path d="
M 1162 554 
L 1162 553 
L 1148 553 
L 1148 553 
L 1170 553 
L 1170 554 
Q 1165 554 , 1159 554 
Q 1154 554 , 1148 554 
Q 1135 554 , 1128 554 
Q 1120 554 , 1120 553 
Q 1120 553 , 1128 553 
Q 1135 553 , 1148 553 
Q 1154 553 , 1159 553 
Q 1164 553 , 1169 553 
L 1169 553 
Q 1162 553 , 1158 553 
Q 1154 553 , 1149 553 
Q 1139 553 , 1133 553 
Q 1128 553 , 1128 553 
Q 1128 554 , 1133 554 
Q 1139 554 , 1149 554 
Q 1154 554 , 1157 554 
Q 1161 554 , 1162 554 
" fill="lightgray" />
<path d="
M 1170 553 
L 1179 553 
L 1179 553 
Q 1179 554 , 1183 554 
Q 1186 554 , 1195 554 
Q 1204 554 , 1207 554 
Q 1211 554 , 1211 553 
L 1211 553 
L 1220 553 
L 1220 554 
Q 1220 554 , 1214 554 
Q 1207 554 , 1195 554 
Q 1183 554 , 1176 554 
Q 1170 554 , 1170 554 
L 1170 553 
" fill="#D21010" />
<path d="
M 1145 538 
L 1136 545 
L 1153 545 
L 1145 538 
M 1141 535 
L 1149 535 
L 1170 552 
L 1162 552 
L 1156 547 
L 1134 547 
L 1127 552 
L 1120 552 
L 1141 535 
" fill="lightgray" />
<path d="
M 1170 535 
L 1179 535 
L 1179 545 
Q 1179 548 , 1183 549 
Q 1186 550 , 1195 550 
Q 1204 550 , 1207 549 
Q 1211 548 , 1211 545 
L 1211 535 
L 1220 535 
L 1220 545 
Q 1220 549 , 1214 551 
Q 1207 552 , 1195 552 
Q 1183 552 , 1176 551 
Q 1170 549 , 1170 545 
L 1170 535 
" fill="#D21010" />
<path d="
M 1120 515 
L 1129 515 
L 1129 527 
Q 1129 530 , 1133 531 
Q 1136 532 , 1145 532 
Q 1154 532 , 1157 531 
Q 1161 530 , 1161 527 
L 1161 515 
L 1170 515 
L 1170 527 
Q 1170 531 , 1164 533 
Q 1157 535 , 1145 535 
Q 1133 535 , 1126 533 
Q 1120 531 , 1120 527 
L 1120 515 
" fill="lightgray" />
<path d="
M 1195 519 
L 1186 527 
L 1203 527 
L 1195 519 
M 1191 515 
L 1199 515 
L 1220 535 
L 1212 535 
L 1206 529 
L 1184 529 
L 1177 535 
L 1170 535 
L 1191 515 
" fill="#339541" />
<path d="
M 1170 485 
L 1170 490 
Q 1163 486 , 1159 486 
Q 1154 485 , 1149 485 
Q 1139 485 , 1134 488 
Q 1128 491 , 1128 497 
Q 1128 504 , 1134 507 
Q 1139 511 , 1149 511 
Q 1154 511 , 1159 510 
Q 1163 509 , 1170 506 
L 1170 511 
Q 1165 513 , 1159 513 
Q 1155 514 , 1149 514 
Q 1135 514 , 1128 510 
Q 1120 505 , 1120 498 
Q 1120 490 , 1128 486 
Q 1135 481 , 1149 481 
Q 1155 481 , 1160 482 
Q 1165 483 , 1170 485 
" fill="lightgray" />
<path d="
M 1212 509 
L 1212 501 
L 1198 501 
L 1198 497 
L 1220 497 
L 1220 512 
Q 1215 513 , 1209 514 
Q 1204 514 , 1198 514 
Q 1185 514 , 1178 510 
Q 1170 505 , 1170 498 
Q 1170 490 , 1178 485 
Q 1185 481 , 1198 481 
Q 1204 481 , 1209 482 
Q 1214 482 , 1219 484 
L 1219 488 
Q 1212 486 , 1208 485 
Q 1204 485 , 1199 485 
Q 1189 485 , 1183 488 
Q 1178 491 , 1178 498 
Q 1178 504 , 1183 507 
Q 1189 510 , 1199 510 
Q 1204 510 , 1207 510 
Q 1211 510 , 1212 509 
" fill="#F5C000" />
<path d="
M 1162 475 
L 1162 465 
L 1148 465 
L 1148 461 
L 1170 461 
L 1170 477 
Q 1165 479 , 1159 479 
Q 1154 480 , 1148 480 
Q 1135 480 , 1128 475 
Q 1120 470 , 1120 462 
Q 1120 453 , 1128 448 
Q 1135 443 , 1148 443 
Q 1154 443 , 1159 444 
Q 1164 444 , 1169 446 
L 1169 451 
Q 1162 449 , 1158 448 
Q 1154 447 , 1149 447 
Q 1139 447 , 1133 451 
Q 1128 454 , 1128 462 
Q 1128 469 , 1133 472 
Q 1139 476 , 1149 476 
Q 1154 476 , 1157 476 
Q 1161 475 , 1162 475 
" fill="lightgray" />
<path d="
M 1220 447 
L 1220 453 
Q 1213 449 , 1209 448 
Q 1204 447 , 1199 447 
Q 1189 447 , 1184 451 
Q 1178 454 , 1178 461 
Q 1178 469 , 1184 472 
Q 1189 476 , 1199 476 
Q 1204 476 , 1209 475 
Q 1213 474 , 1220 470 
L 1220 476 
Q 1215 478 , 1209 479 
Q 1205 480 , 1199 480 
Q 1185 480 , 1178 475 
Q 1170 470 , 1170 462 
Q 1170 453 , 1178 448 
Q 1185 443 , 1199 443 
Q 1205 443 , 1210 444 
Q 1215 445 , 1220 447 
" fill="#545FFF" />
<path d="
M 1275 553 
L 1257 554 
L 1291 554 
L 1275 553 
M 1268 553 
L 1282 553 
L 1325 554 
L 1309 554 
L 1297 554 
L 1253 554 
L 1240 554 
L 1225 554 
L 1268 553 
" fill="#339541" />
<path d="
M 1325 539 
L 1325 541 
Q 1310 539 , 1302 539 
Q 1294 539 , 1284 539 
Q 1263 539 , 1253 540 
Q 1241 542 , 1241 544 
Q 1241 547 , 1253 549 
Q 1263 550 , 1284 550 
Q 1294 550 , 1302 550 
Q 1310 550 , 1325 548 
L 1325 550 
Q 1314 551 , 1304 552 
Q 1294 552 , 1283 552 
Q 1256 552 , 1241 550 
Q 1225 548 , 1225 545 
Q 1225 541 , 1241 539 
Q 1256 537 , 1283 537 
Q 1294 537 , 1304 537 
Q 1315 538 , 1325 539 
" fill="#545FFF" />
<path d="
M 1225 509 
L 1243 509 
L 1243 525 
Q 1243 529 , 1251 531 
Q 1258 533 , 1275 533 
Q 1292 533 , 1300 531 
Q 1307 529 , 1307 525 
L 1307 509 
L 1325 509 
L 1325 525 
Q 1325 531 , 1312 533 
Q 1300 536 , 1275 536 
Q 1251 536 , 1238 533 
Q 1225 531 , 1225 525 
L 1225 509 
" fill="#D21010" />
<path d="
M 1309 504 
L 1309 495 
L 1280 495 
L 1280 491 
L 1325 491 
L 1325 506 
Q 1314 507 , 1303 508 
Q 1294 509 , 1282 509 
Q 1256 509 , 1240 504 
Q 1225 500 , 1225 492 
Q 1225 484 , 1240 480 
Q 1256 475 , 1282 475 
Q 1293 475 , 1302 476 
Q 1312 476 , 1322 478 
L 1322 482 
Q 1309 480 , 1301 480 
Q 1292 479 , 1283 479 
Q 1262 479 , 1251 482 
Q 1241 485 , 1241 492 
Q 1241 498 , 1251 502 
Q 1262 505 , 1283 505 
Q 1292 505 , 1299 505 
Q 1306 504 , 1309 504 
" fill="#F5C000" />
<path d="
M 1380 553 
L 1362 554 
L 1396 554 
L 1380 553 
M 1373 553 
L 1387 553 
L 1430 555 
L 1414 555 
L 1402 554 
L 1358 554 
L 1345 555 
L 1330 555 
L 1373 553 
" fill="#339541" />
<path d="
M 1330 550 
L 1348 550 
L 1348 551 
Q 1348 552 , 1356 552 
Q 1363 552 , 1380 552 
Q 1397 552 , 1405 552 
Q 1412 552 , 1412 551 
L 1412 550 
L 1430 550 
L 1430 551 
Q 1430 552 , 1417 552 
Q 1405 552 , 1380 552 
Q 1356 552 , 1343 552 
Q 1330 552 , 1330 551 
L 1330 550 
" fill="#D21010" />
<path d="
M 1430 547 
L 1430 548 
Q 1415 547 , 1407 547 
Q 1399 547 , 1389 547 
Q 1368 547 , 1358 548 
Q 1346 548 , 1346 548 
Q 1346 549 , 1358 549 
Q 1368 549 , 1389 549 
Q 1399 549 , 1407 549 
Q 1415 549 , 1430 549 
L 1430 549 
Q 1419 550 , 1409 550 
Q 1399 550 , 1388 550 
Q 1361 550 , 1346 549 
Q 1330 549 , 1330 548 
Q 1330 548 , 1346 547 
Q 1361 547 , 1388 547 
Q 1399 547 , 1409 547 
Q 1420 547 , 1430 547 
" fill="#545FFF" />
<path d="
M 1414 546 
L 1414 545 
L 1385 545 
L 1385 545 
L 1430 545 
L 1430 546 
Q 1419 546 , 1408 546 
Q 1399 546 , 1387 546 
Q 1361 546 , 1345 546 
Q 1330 545 , 1330 545 
Q 1330 544 , 1345 543 
Q 1361 543 , 1387 543 
Q 1398 543 , 1407 543 
Q 1417 543 , 1427 543 
L 1427 544 
Q 1414 544 , 1406 543 
Q 1397 543 , 1388 543 
Q 1367 543 , 1356 544 
Q 1346 544 , 1346 545 
Q 1346 545 , 1356 546 
Q 1367 546 , 1388 546 
Q 1397 546 , 1404 546 
Q 1411 546 , 1414 546 
" fill="#F5C000" />
<path d="M 65 168 L 65 555 " stroke="black" stroke-width="1.5"/>
<path d="M 55 555 L 65 555 " stroke="black" stroke-width="4"/>
<text text-anchor="end" x="50" y="555" font-size="50" alignment-baseline="middle">0</text>
<path d="M 55 362 L 65 362 " stroke="black" stroke-width="4"/>
<text text-anchor="end" x="50" y="362" font-size="50" alignment-baseline="middle">1</text>
<path d="M 55 168 L 65 168 " stroke="black" stroke-width="4"/>
<text text-anchor="end" x="50" y="168" font-size="50" alignment-baseline="middle">2</text>
<text text-anchor="middle" x="750" y="50" font-size="50" alignment-baseline="baseline"></text>
G<path d="
M 160 582 
L 126 595 
L 160 608 
L 157 611 
L 123 598 
L 123 623 
L 117 623 
L 117 599 
L 83 611 
L 80 608 
L 114 595 
L 80 582 
L 83 579 
L 117 591 
L 117 567 
L 123 567 
L 123 591 
L 157 579 
L 160 582 
" fill="black" />
<path d="
M 265 567 
Q 236 574 , 223 581 
Q 210 588 , 210 595 
Q 210 602 , 223 609 
Q 236 616 , 265 623 
L 241 623 
Q 213 616 , 199 609 
Q 185 602 , 185 595 
Q 185 588 , 199 581 
Q 213 574 , 241 567 
L 265 567 
" fill="black" />
<path d="
M 370 567 
Q 341 574 , 328 581 
Q 315 588 , 315 595 
Q 315 602 , 328 609 
Q 341 616 , 370 623 
L 346 623 
Q 318 616 , 304 609 
Q 290 602 , 290 595 
Q 290 588 , 304 581 
Q 318 574 , 346 567 
L 370 567 
" fill="black" />
<path d="
" fill="black" />
<path d="
M 421 567 
L 448 567 
L 448 623 
L 421 623 
L 421 567 
" fill="black" />
<path d="
" fill="black" />
<path d="
" fill="black" />
<path d="
M 526 567 
L 553 567 
L 553 623 
L 526 623 
L 526 567 
" fill="black" />
<path d="
" fill="black" />
<path d="
" fill="black" />
<path d="
M 617 567 
L 633 567 
L 633 623 
L 617 623 
L 617 567 
" fill="black" />
<path d="
" fill="black" />
<path d="
M 659 619 
L 665 619 
L 665 572 
L 657 578 
L 657 573 
L 665 567 
L 667 567 
L 667 619 
L 673 619 
L 673 623 
L 659 623 
L 659 619 
" fill="black" />
<path d="
M 679 619 
L 685 619 
L 685 572 
L 677 578 
L 677 573 
L 685 567 
L 687 567 
L 687 619 
L 693 619 
L 693 623 
L 679 623 
L 679 619 
" fill="black" />
<path d="
M 790 582 
L 756 595 
L 790 608 
L 787 611 
L 753 598 
L 753 623 
L 747 623 
L 747 599 
L 713 611 
L 710 608 
L 744 595 
L 710 582 
L 713 579 
L 747 591 
L 747 567 
L 753 567 
L 753 591 
L 787 579 
L 790 582 
" fill="black" />
<path d="
" fill="black" />
<path d="
M 841 567 
L 868 567 
L 868 623 
L 841 623 
L 841 567 
" fill="black" />
<path d="
" fill="black" />
<path d="
" fill="black" />
<path d="
M 946 567 
L 973 567 
L 973 623 
L 946 623 
L 946 567 
" fill="black" />
<path d="
" fill="black" />
<path d="
M 1025 567 
L 1049 567 
Q 1077 574 , 1091 581 
Q 1105 588 , 1105 595 
Q 1105 602 , 1091 609 
Q 1077 616 , 1049 623 
L 1025 623 
Q 1054 616 , 1067 609 
Q 1080 602 , 1080 595 
Q 1080 588 , 1067 581 
Q 1054 574 , 1025 567 
" fill="black" />
<path d="
M 1130 567 
L 1154 567 
Q 1182 574 , 1196 581 
Q 1210 588 , 1210 595 
Q 1210 602 , 1196 609 
Q 1182 616 , 1154 623 
L 1130 623 
Q 1159 616 , 1172 609 
Q 1185 602 , 1185 595 
Q 1185 588 , 1172 581 
Q 1159 574 , 1130 567 
" fill="black" />
<path d="
" fill="black" />
<path d="
M 1261 567 
L 1288 567 
L 1288 623 
L 1261 623 
L 1261 567 
" fill="black" />
<path d="
" fill="black" />
<path d="
M 1420 582 
L 1386 595 
L 1420 608 
L 1417 611 
L 1383 598 
L 1383 623 
L 1377 623 
L 1377 599 
L 1343 611 
L 1340 608 
L 1374 595 
L 1340 582 
L 1343 579 
L 1377 591 
L 1377 567 
L 1383 567 
L 1383 591 
L 1417 579 
L 1420 582 
" fill="black" />
</svg>
