<svg xmlns="http://www.w3.org/2000/svg"
viewBox="0 0 1435 635">
<path d="
M 170 553 
L 170 553 
Q 155 553 , 147 553 
Q 139 553 , 129 553 
Q 108 553 , 98 553 
Q 86 553 , 86 553 
Q 86 554 , 98 554 
Q 108 554 , 129 554 
Q 139 554 , 147 554 
Q 155 554 , 170 554 
L 170 554 
Q 159 554 , 149 554 
Q 139 554 , 128 554 
Q 101 554 , 86 554 
Q 70 554 , 70 554 
Q 70 553 , 86 553 
Q 101 553 , 128 553 
Q 139 553 , 149 553 
Q 160 553 , 170 553 
" fill="#545FFF" />
<path d="
M 70 551 
L 88 551 
L 88 552 
Q 88 552 , 96 552 
Q 103 552 , 120 552 
Q 137 552 , 145 552 
Q 152 552 , 152 552 
L 152 551 
L 170 551 
L 170 552 
Q 170 552 , 157 552 
Q 145 553 , 120 553 
Q 96 553 , 83 552 
Q 70 552 , 70 552 
L 70 551 
" fill="#D21010" />
<path d="
M 120 549 
L 102 550 
L 136 550 
L 120 549 
M 113 549 
L 127 549 
L 170 551 
L 154 551 
L 142 550 
L 98 550 
L 85 551 
L 70 551 
L 113 549 
" fill="#339541" />
<path d="
M 154 548 
L 154 547 
L 125 547 
L 125 547 
L 170 547 
L 170 548 
Q 159 548 , 148 548 
Q 139 548 , 127 548 
Q 101 548 , 85 548 
Q 70 548 , 70 547 
Q 70 547 , 85 546 
Q 101 546 , 127 546 
Q 138 546 , 147 546 
Q 157 546 , 167 546 
L 167 547 
Q 154 546 , 146 546 
Q 137 546 , 128 546 
Q 107 546 , 96 547 
Q 86 547 , 86 547 
Q 86 548 , 96 548 
Q 107 548 , 128 548 
Q 137 548 , 144 548 
Q 151 548 , 154 548 
" fill="#F5C000" />
<path d="
M 275 552 
L 275 553 
Q 260 552 , 252 552 
Q 244 552 , 234 552 
Q 213 552 , 203 553 
Q 191 553 , 191 553 
Q 191 554 , 203 554 
Q 213 554 , 234 554 
Q 244 554 , 252 554 
Q 260 554 , 275 554 
L 275 554 
Q 264 554 , 254 554 
Q 244 555 , 233 555 
Q 206 555 , 191 554 
Q 175 554 , 175 553 
Q 175 553 , 191 552 
Q 206 552 , 233 552 
Q 244 552 , 254 552 
Q 265 552 , 275 552 
" fill="#545FFF" />
<path d="
M 175 539 
L 193 539 
L 193 546 
Q 193 548 , 201 549 
Q 208 550 , 225 550 
Q 242 550 , 250 549 
Q 257 548 , 257 546 
L 257 539 
L 275 539 
L 275 546 
Q 275 549 , 262 550 
Q 250 551 , 225 551 
Q 201 551 , 188 550 
Q 175 549 , 175 546 
L 175 539 
" fill="#D21010" />
<path d="
M 225 515 
L 207 527 
L 241 527 
L 225 515 
M 218 510 
L 232 510 
L 275 539 
L 259 539 
L 247 530 
L 203 530 
L 190 539 
L 175 539 
L 218 510 
" fill="#339541" />
<path d="
M 259 502 
L 259 486 
L 230 486 
L 230 479 
L 275 479 
L 275 505 
Q 264 508 , 253 509 
Q 244 510 , 232 510 
Q 206 510 , 190 502 
Q 175 494 , 175 481 
Q 175 467 , 190 459 
Q 206 451 , 232 451 
Q 243 451 , 252 452 
Q 262 453 , 272 456 
L 272 463 
Q 259 460 , 251 459 
Q 242 458 , 233 458 
Q 212 458 , 201 464 
Q 191 469 , 191 481 
Q 191 492 , 201 498 
Q 212 503 , 233 503 
Q 242 503 , 249 503 
Q 256 502 , 259 502 
" fill="#F5C000" />
<path d="
M 280 551 
L 289 551 
L 289 553 
Q 289 554 , 293 554 
Q 296 554 , 305 554 
Q 314 554 , 317 554 
Q 321 554 , 321 553 
L 321 551 
L 330 551 
L 330 553 
Q 330 554 , 324 554 
Q 317 554 , 305 554 
Q 293 554 , 286 554 
Q 280 554 , 280 553 
L 280 551 
" fill="#D21010" />
<path d="
M 372 554 
L 372 553 
L 358 553 
L 358 553 
L 380 553 
L 380 554 
Q 375 554 , 369 554 
Q 364 554 , 358 554 
Q 345 554 , 338 554 
Q 330 554 , 330 553 
Q 330 552 , 338 551 
Q 345 551 , 358 551 
Q 364 551 , 369 551 
Q 374 551 , 379 551 
L 379 552 
Q 372 552 , 368 551 
Q 364 551 , 359 551 
Q 349 551 , 343 552 
Q 338 552 , 338 553 
Q 338 553 , 343 554 
Q 349 554 , 359 554 
Q 364 554 , 367 554 
Q 371 554 , 372 554 
" fill="lightgray" />
<path d="
M 322 549 
L 322 548 
L 308 548 
L 308 547 
L 330 547 
L 330 550 
Q 325 550 , 319 550 
Q 314 550 , 308 550 
Q 295 550 , 288 549 
Q 280 549 , 280 547 
Q 280 546 , 288 545 
Q 295 544 , 308 544 
Q 314 544 , 319 544 
Q 324 544 , 329 545 
L 329 545 
Q 322 545 , 318 545 
Q 314 545 , 309 545 
Q 299 545 , 293 545 
Q 288 546 , 288 547 
Q 288 548 , 293 549 
Q 299 550 , 309 550 
Q 314 550 , 317 550 
Q 321 550 , 322 549 
" fill="#F5C000" />
<path d="
M 330 544 
L 339 544 
L 339 548 
Q 339 549 , 343 549 
Q 346 550 , 355 550 
Q 364 550 , 367 549 
Q 371 549 , 371 548 
L 371 544 
L 380 544 
L 380 548 
Q 380 549 , 374 550 
Q 367 550 , 355 550 
Q 343 550 , 336 550 
Q 330 549 , 330 548 
L 330 544 
" fill="lightgray" />
<path d="
M 330 538 
L 330 539 
Q 323 538 , 319 538 
Q 314 538 , 309 538 
Q 299 538 , 294 538 
Q 288 539 , 288 540 
Q 288 542 , 294 542 
Q 299 543 , 309 543 
Q 314 543 , 319 543 
Q 323 543 , 330 542 
L 330 543 
Q 325 543 , 319 543 
Q 315 544 , 309 544 
Q 295 544 , 288 543 
Q 280 542 , 280 540 
Q 280 539 , 288 538 
Q 295 537 , 309 537 
Q 315 537 , 320 537 
Q 325 537 , 330 538 
" fill="#545FFF" />
<path d="
M 372 543 
L 372 541 
L 358 541 
L 358 540 
L 380 540 
L 380 543 
Q 375 543 , 369 543 
Q 364 544 , 358 544 
Q 345 544 , 338 543 
Q 330 542 , 330 540 
Q 330 539 , 338 538 
Q 345 537 , 358 537 
Q 364 537 , 369 537 
Q 374 537 , 379 538 
L 379 538 
Q 372 538 , 368 538 
Q 364 538 , 359 538 
Q 349 538 , 343 538 
Q 338 539 , 338 540 
Q 338 542 , 343 542 
Q 349 543 , 359 543 
Q 364 543 , 367 543 
Q 371 543 , 372 543 
" fill="lightgray" />
<path d="
M 280 527 
L 289 527 
L 289 533 
Q 289 534 , 293 535 
Q 296 536 , 305 536 
Q 314 536 , 317 535 
Q 321 534 , 321 533 
L 321 527 
L 330 527 
L 330 533 
Q 330 535 , 324 536 
Q 317 537 , 305 537 
Q 293 537 , 286 536 
Q 280 535 , 280 533 
L 280 527 
" fill="#D21010" />
<path d="
M 355 529 
L 346 533 
L 363 533 
L 355 529 
M 351 527 
L 359 527 
L 380 537 
L 372 537 
L 366 534 
L 344 534 
L 337 537 
L 330 537 
L 351 527 
" fill="lightgray" />
<path d="
M 322 522 
L 322 513 
L 308 513 
L 308 509 
L 330 509 
L 330 524 
Q 325 525 , 319 526 
Q 314 526 , 308 526 
Q 295 526 , 288 522 
Q 280 518 , 280 510 
Q 280 503 , 288 498 
Q 295 494 , 308 494 
Q 314 494 , 319 495 
Q 324 495 , 329 497 
L 329 501 
Q 322 499 , 318 498 
Q 314 498 , 309 498 
Q 299 498 , 293 501 
Q 288 504 , 288 510 
Q 288 516 , 293 520 
Q 299 523 , 309 523 
Q 314 523 , 317 522 
Q 321 522 , 322 522 
" fill="#F5C000" />
<path d="
M 380 497 
L 380 502 
Q 373 499 , 369 498 
Q 364 498 , 359 498 
Q 349 498 , 344 501 
Q 338 504 , 338 510 
Q 338 516 , 344 520 
Q 349 523 , 359 523 
Q 364 523 , 369 522 
Q 373 521 , 380 518 
L 380 523 
Q 375 525 , 369 526 
Q 365 526 , 359 526 
Q 345 526 , 338 522 
Q 330 518 , 330 510 
Q 330 503 , 338 498 
Q 345 494 , 359 494 
Q 365 494 , 370 495 
Q 375 496 , 380 497 
" fill="lightgray" />
<path d="
M 305 463 
L 296 478 
L 313 478 
L 305 463 
M 301 456 
L 309 456 
L 330 493 
L 322 493 
L 316 482 
L 294 482 
L 287 493 
L 280 493 
L 301 456 
" fill="#339541" />
<path d="
M 330 456 
L 339 456 
L 339 478 
Q 339 484 , 343 487 
Q 346 489 , 355 489 
Q 364 489 , 367 487 
Q 371 484 , 371 478 
L 371 456 
L 380 456 
L 380 479 
Q 380 486 , 374 490 
Q 367 493 , 355 493 
Q 343 493 , 336 490 
Q 330 486 , 330 479 
L 330 456 
" fill="lightgray" />
<path d="
M 427 554 
L 427 554 
L 413 554 
L 413 553 
L 435 553 
L 435 554 
Q 430 555 , 424 555 
Q 419 555 , 413 555 
Q 400 555 , 393 554 
Q 385 554 , 385 553 
Q 385 553 , 393 552 
Q 400 552 , 413 552 
Q 419 552 , 424 552 
Q 429 552 , 434 552 
L 434 553 
Q 427 552 , 423 552 
Q 419 552 , 414 552 
Q 404 552 , 398 553 
Q 393 553 , 393 553 
Q 393 554 , 398 554 
Q 404 554 , 414 554 
Q 419 554 , 422 554 
Q 426 554 , 427 554 
" fill="#F5C000" />
<path d="
M 435 552 
L 444 552 
L 444 554 
Q 444 554 , 448 554 
Q 451 554 , 460 554 
Q 469 554 , 472 554 
Q 476 554 , 476 554 
L 476 552 
L 485 552 
L 485 554 
Q 485 554 , 479 554 
Q 472 555 , 460 555 
Q 448 555 , 441 554 
Q 435 554 , 435 554 
L 435 552 
" fill="lightgray" />
<path d="
M 435 549 
L 435 550 
Q 428 549 , 424 549 
Q 419 549 , 414 549 
Q 404 549 , 399 550 
Q 393 550 , 393 550 
Q 393 551 , 399 551 
Q 404 551 , 414 551 
Q 419 551 , 424 551 
Q 428 551 , 435 551 
L 435 552 
Q 430 552 , 424 552 
Q 420 552 , 414 552 
Q 400 552 , 393 551 
Q 385 551 , 385 550 
Q 385 550 , 393 549 
Q 400 549 , 414 549 
Q 420 549 , 425 549 
Q 430 549 , 435 549 
" fill="#545FFF" />
<path d="
M 477 551 
L 477 551 
L 463 551 
L 463 550 
L 485 550 
L 485 552 
Q 480 552 , 474 552 
Q 469 552 , 463 552 
Q 450 552 , 443 551 
Q 435 551 , 435 550 
Q 435 550 , 443 549 
Q 450 549 , 463 549 
Q 469 549 , 474 549 
Q 479 549 , 484 549 
L 484 550 
Q 477 549 , 473 549 
Q 469 549 , 464 549 
Q 454 549 , 448 550 
Q 443 550 , 443 550 
Q 443 551 , 448 551 
Q 454 551 , 464 551 
Q 469 551 , 472 551 
Q 476 551 , 477 551 
" fill="lightgray" />
<path d="
M 410 546 
L 401 547 
L 418 547 
L 410 546 
M 406 545 
L 414 545 
L 435 548 
L 427 548 
L 421 547 
L 399 547 
L 392 548 
L 385 548 
L 406 545 
" fill="#339541" />
<path d="
M 435 545 
L 444 545 
L 444 547 
Q 444 547 , 448 548 
Q 451 548 , 460 548 
Q 469 548 , 472 548 
Q 476 547 , 476 547 
L 476 545 
L 485 545 
L 485 547 
Q 485 548 , 479 548 
Q 472 548 , 460 548 
Q 448 548 , 441 548 
Q 435 548 , 435 547 
L 435 545 
" fill="lightgray" />
<path d="
M 427 544 
L 427 543 
L 413 543 
L 413 542 
L 435 542 
L 435 544 
Q 430 545 , 424 545 
Q 419 545 , 413 545 
Q 400 545 , 393 544 
Q 385 543 , 385 542 
Q 385 541 , 393 541 
Q 400 540 , 413 540 
Q 419 540 , 424 540 
Q 429 540 , 434 540 
L 434 541 
Q 427 541 , 423 541 
Q 419 541 , 414 541 
Q 404 541 , 398 541 
Q 393 541 , 393 542 
Q 393 543 , 398 544 
Q 404 544 , 414 544 
Q 419 544 , 422 544 
Q 426 544 , 427 544 
" fill="#F5C000" />
<path d="
M 485 541 
L 485 541 
Q 478 541 , 474 541 
Q 469 541 , 464 541 
Q 454 541 , 449 541 
Q 443 541 , 443 542 
Q 443 543 , 449 544 
Q 454 544 , 464 544 
Q 469 544 , 474 544 
Q 478 544 , 485 544 
L 485 544 
Q 480 545 , 474 545 
Q 470 545 , 464 545 
Q 450 545 , 443 544 
Q 435 543 , 435 542 
Q 435 541 , 443 541 
Q 450 540 , 464 540 
Q 470 540 , 475 540 
Q 480 540 , 485 541 
" fill="lightgray" />
<path d="
M 385 532 
L 394 532 
L 394 537 
Q 394 538 , 398 538 
Q 401 539 , 410 539 
Q 419 539 , 422 538 
Q 426 538 , 426 537 
L 426 532 
L 435 532 
L 435 537 
Q 435 538 , 429 539 
Q 422 540 , 410 540 
Q 398 540 , 391 539 
Q 385 538 , 385 537 
L 385 532 
" fill="#D21010" />
<path d="
M 477 539 
L 477 537 
L 463 537 
L 463 536 
L 485 536 
L 485 539 
Q 480 539 , 474 540 
Q 469 540 , 463 540 
Q 450 540 , 443 539 
Q 435 538 , 435 536 
Q 435 534 , 443 533 
Q 450 532 , 463 532 
Q 469 532 , 474 532 
Q 479 532 , 484 533 
L 484 534 
Q 477 533 , 473 533 
Q 469 533 , 464 533 
Q 454 533 , 448 534 
Q 443 534 , 443 536 
Q 443 537 , 448 538 
Q 454 539 , 464 539 
Q 469 539 , 472 539 
Q 476 539 , 477 539 
" fill="lightgray" />
<path d="
M 385 523 
L 394 523 
L 394 528 
Q 394 529 , 398 530 
Q 401 530 , 410 530 
Q 419 530 , 422 530 
Q 426 529 , 426 528 
L 426 523 
L 435 523 
L 435 528 
Q 435 529 , 429 530 
Q 422 531 , 410 531 
Q 398 531 , 391 530 
Q 385 529 , 385 528 
L 385 523 
" fill="#D21010" />
<path d="
M 460 524 
L 451 528 
L 468 528 
L 460 524 
M 456 523 
L 464 523 
L 485 531 
L 477 531 
L 471 529 
L 449 529 
L 442 531 
L 435 531 
L 456 523 
" fill="lightgray" />
<path d="
M 590 552 
L 590 553 
Q 575 552 , 567 552 
Q 559 552 , 549 552 
Q 528 552 , 518 553 
Q 506 553 , 506 553 
Q 506 554 , 518 554 
Q 528 554 , 549 554 
Q 559 554 , 567 554 
Q 575 554 , 590 554 
L 590 554 
Q 579 555 , 569 555 
Q 559 555 , 548 555 
Q 521 555 , 506 554 
Q 490 554 , 490 553 
Q 490 553 , 506 552 
Q 521 552 , 548 552 
Q 559 552 , 569 552 
Q 580 552 , 590 552 
" fill="#545FFF" />
<path d="
M 490 538 
L 508 538 
L 508 546 
Q 508 548 , 516 549 
Q 523 550 , 540 550 
Q 557 550 , 565 549 
Q 572 548 , 572 546 
L 572 538 
L 590 538 
L 590 546 
Q 590 549 , 577 550 
Q 565 552 , 540 552 
Q 516 552 , 503 550 
Q 490 549 , 490 546 
L 490 538 
" fill="#D21010" />
<path d="
M 540 518 
L 522 528 
L 556 528 
L 540 518 
M 533 514 
L 547 514 
L 590 537 
L 574 537 
L 562 530 
L 518 530 
L 505 537 
L 490 537 
L 533 514 
" fill="#339541" />
<path d="
M 574 507 
L 574 493 
L 545 493 
L 545 487 
L 590 487 
L 590 510 
Q 579 512 , 568 513 
Q 559 514 , 547 514 
Q 521 514 , 505 507 
Q 490 500 , 490 488 
Q 490 477 , 505 470 
Q 521 463 , 547 463 
Q 558 463 , 567 464 
Q 577 465 , 587 467 
L 587 474 
Q 574 471 , 566 470 
Q 557 469 , 548 469 
Q 527 469 , 516 474 
Q 506 479 , 506 488 
Q 506 498 , 516 503 
Q 527 508 , 548 508 
Q 557 508 , 564 508 
Q 571 507 , 574 507 
" fill="#F5C000" />
<path d="
M 695 547 
L 695 548 
Q 680 547 , 672 547 
Q 664 547 , 654 547 
Q 633 547 , 623 548 
Q 611 549 , 611 550 
Q 611 552 , 623 552 
Q 633 553 , 654 553 
Q 664 553 , 672 553 
Q 680 553 , 695 552 
L 695 553 
Q 684 554 , 674 554 
Q 664 554 , 653 554 
Q 626 554 , 611 553 
Q 595 552 , 595 550 
Q 595 548 , 611 547 
Q 626 546 , 653 546 
Q 664 546 , 674 546 
Q 685 546 , 695 547 
" fill="#545FFF" />
<path d="
M 595 534 
L 613 534 
L 613 541 
Q 613 542 , 621 543 
Q 628 544 , 645 544 
Q 662 544 , 670 543 
Q 677 542 , 677 541 
L 677 534 
L 695 534 
L 695 541 
Q 695 543 , 682 544 
Q 670 545 , 645 545 
Q 621 545 , 608 544 
Q 595 543 , 595 541 
L 595 534 
" fill="#D21010" />
<path d="
M 645 523 
L 627 528 
L 661 528 
L 645 523 
M 638 520 
L 652 520 
L 695 534 
L 679 534 
L 667 530 
L 623 530 
L 610 534 
L 595 534 
L 638 520 
" fill="#339541" />
<path d="
M 679 512 
L 679 498 
L 650 498 
L 650 492 
L 695 492 
L 695 516 
Q 684 518 , 673 519 
Q 664 520 , 652 520 
Q 626 520 , 610 513 
Q 595 506 , 595 493 
Q 595 480 , 610 473 
Q 626 466 , 652 466 
Q 663 466 , 672 467 
Q 682 468 , 692 470 
L 692 477 
Q 679 474 , 671 473 
Q 662 472 , 653 472 
Q 632 472 , 621 477 
Q 611 483 , 611 493 
Q 611 504 , 621 509 
Q 632 514 , 653 514 
Q 662 514 , 669 513 
Q 676 513 , 679 512 
" fill="#F5C000" />
<path d="
M 800 553 
L 800 553 
Q 785 553 , 777 553 
Q 769 553 , 759 553 
Q 738 553 , 728 553 
Q 716 553 , 716 553 
Q 716 554 , 728 554 
Q 738 554 , 759 554 
Q 769 554 , 777 554 
Q 785 554 , 800 554 
L 800 554 
Q 789 554 , 779 554 
Q 769 554 , 758 554 
Q 731 554 , 716 554 
Q 700 554 , 700 554 
Q 700 553 , 716 553 
Q 731 553 , 758 553 
Q 769 553 , 779 553 
Q 790 553 , 800 553 
" fill="#545FFF" />
<path d="
M 700 551 
L 718 551 
L 718 552 
Q 718 552 , 726 552 
Q 733 552 , 750 552 
Q 767 552 , 775 552 
Q 782 552 , 782 552 
L 782 551 
L 800 551 
L 800 552 
Q 800 552 , 787 552 
Q 775 553 , 750 553 
Q 726 553 , 713 552 
Q 700 552 , 700 552 
L 700 551 
" fill="#D21010" />
<path d="
M 750 549 
L 732 550 
L 766 550 
L 750 549 
M 743 549 
L 757 549 
L 800 551 
L 784 551 
L 772 550 
L 728 550 
L 715 551 
L 700 551 
L 743 549 
" fill="#339541" />
<path d="
M 784 548 
L 784 547 
L 755 547 
L 755 547 
L 800 547 
L 800 548 
Q 789 548 , 778 548 
Q 769 548 , 757 548 
Q 731 548 , 715 548 
Q 700 548 , 700 547 
Q 700 547 , 715 546 
Q 731 546 , 757 546 
Q 768 546 , 777 546 
Q 787 546 , 797 546 
L 797 547 
Q 784 546 , 776 546 
Q 767 546 , 758 546 
Q 737 546 , 726 547 
Q 716 547 , 716 547 
Q 716 548 , 726 548 
Q 737 548 , 758 548 
Q 767 548 , 774 548 
Q 781 548 , 784 548 
" fill="#F5C000" />
<path d="
M 905 552 
L 905 553 
Q 890 552 , 882 552 
Q 874 552 , 864 552 
Q 843 552 , 833 553 
Q 821 553 , 821 553 
Q 821 554 , 833 554 
Q 843 555 , 864 555 
Q 874 555 , 882 554 
Q 890 554 , 905 554 
L 905 555 
Q 894 555 , 884 555 
Q 874 555 , 863 555 
Q 836 555 , 821 554 
Q 805 554 , 805 553 
Q 805 553 , 821 552 
Q 836 552 , 863 552 
Q 874 552 , 884 552 
Q 895 552 , 905 552 
" fill="#545FFF" />
<path d="
M 805 539 
L 823 539 
L 823 546 
Q 823 548 , 831 549 
Q 838 550 , 855 550 
Q 872 550 , 880 549 
Q 887 548 , 887 546 
L 887 539 
L 905 539 
L 905 546 
Q 905 549 , 892 550 
Q 880 551 , 855 551 
Q 831 551 , 818 550 
Q 805 549 , 805 546 
L 805 539 
" fill="#D21010" />
<path d="
M 855 515 
L 837 527 
L 871 527 
L 855 515 
M 848 510 
L 862 510 
L 905 539 
L 889 539 
L 877 530 
L 833 530 
L 820 539 
L 805 539 
L 848 510 
" fill="#339541" />
<path d="
M 889 492 
L 889 458 
L 860 458 
L 860 444 
L 905 444 
L 905 500 
Q 894 505 , 883 507 
Q 874 509 , 862 510 
Q 836 510 , 820 493 
Q 805 476 , 805 447 
Q 805 418 , 820 401 
Q 836 384 , 862 384 
Q 873 384 , 882 386 
Q 892 389 , 902 394 
L 902 410 
Q 889 403 , 881 401 
Q 872 399 , 863 399 
Q 842 399 , 831 411 
Q 821 423 , 821 447 
Q 821 472 , 831 484 
Q 842 496 , 863 496 
Q 872 496 , 879 494 
Q 886 493 , 889 492 
" fill="#F5C000" />
<path d="
M 1010 553 
L 1010 553 
Q 995 553 , 987 553 
Q 979 553 , 969 553 
Q 948 553 , 938 553 
Q 926 553 , 926 553 
Q 926 554 , 938 554 
Q 948 554 , 969 554 
Q 979 554 , 987 554 
Q 995 554 , 1010 554 
L 1010 554 
Q 999 554 , 989 555 
Q 979 555 , 968 555 
Q 941 555 , 926 554 
Q 910 554 , 910 554 
Q 910 553 , 926 553 
Q 941 553 , 968 553 
Q 979 553 , 989 553 
Q 1000 553 , 1010 553 
" fill="#545FFF" />
<path d="
M 910 537 
L 928 537 
L 928 546 
Q 928 549 , 936 550 
Q 943 551 , 960 551 
Q 977 551 , 985 550 
Q 992 549 , 992 546 
L 992 537 
L 1010 537 
L 1010 546 
Q 1010 549 , 997 551 
Q 985 552 , 960 552 
Q 936 552 , 923 551 
Q 910 549 , 910 546 
L 910 537 
" fill="#D21010" />
<path d="
M 960 519 
L 942 528 
L 976 528 
L 960 519 
M 953 515 
L 967 515 
L 1010 537 
L 994 537 
L 982 530 
L 938 530 
L 925 537 
L 910 537 
L 953 515 
" fill="#339541" />
<path d="
M 994 509 
L 994 500 
L 965 500 
L 965 496 
L 1010 496 
L 1010 511 
Q 999 513 , 988 513 
Q 979 514 , 967 514 
Q 941 514 , 925 509 
Q 910 505 , 910 497 
Q 910 488 , 925 484 
Q 941 479 , 967 479 
Q 978 479 , 987 480 
Q 997 480 , 1007 482 
L 1007 486 
Q 994 484 , 986 484 
Q 977 483 , 968 483 
Q 947 483 , 936 486 
Q 926 490 , 926 497 
Q 926 503 , 936 507 
Q 947 510 , 968 510 
Q 977 510 , 984 510 
Q 991 510 , 994 509 
" fill="#F5C000" />
<path d="
M 1115 550 
L 1115 550 
Q 1100 550 , 1092 550 
Q 1084 550 , 1074 550 
Q 1053 550 , 1043 550 
Q 1031 551 , 1031 552 
Q 1031 553 , 1043 553 
Q 1053 554 , 1074 554 
Q 1084 554 , 1092 554 
Q 1100 554 , 1115 553 
L 1115 554 
Q 1104 554 , 1094 554 
Q 1084 555 , 1073 555 
Q 1046 555 , 1031 554 
Q 1015 553 , 1015 552 
Q 1015 551 , 1031 550 
Q 1046 549 , 1073 549 
Q 1084 549 , 1094 549 
Q 1105 549 , 1115 550 
" fill="#545FFF" />
<path d="
M 1015 541 
L 1033 541 
L 1033 545 
Q 1033 547 , 1041 547 
Q 1048 548 , 1065 548 
Q 1082 548 , 1090 547 
Q 1097 547 , 1097 545 
L 1097 541 
L 1115 541 
L 1115 546 
Q 1115 547 , 1102 548 
Q 1090 548 , 1065 548 
Q 1041 548 , 1028 548 
Q 1015 547 , 1015 546 
L 1015 541 
" fill="#D21010" />
<path d="
M 1065 521 
L 1047 531 
L 1081 531 
L 1065 521 
M 1058 517 
L 1072 517 
L 1115 541 
L 1099 541 
L 1087 534 
L 1043 534 
L 1030 541 
L 1015 541 
L 1058 517 
" fill="#339541" />
<path d="
M 1099 510 
L 1099 498 
L 1070 498 
L 1070 493 
L 1115 493 
L 1115 513 
Q 1104 515 , 1093 515 
Q 1084 516 , 1072 516 
Q 1046 516 , 1030 510 
Q 1015 504 , 1015 494 
Q 1015 484 , 1030 478 
Q 1046 472 , 1072 472 
Q 1083 472 , 1092 473 
Q 1102 474 , 1112 476 
L 1112 481 
Q 1099 479 , 1091 478 
Q 1082 477 , 1073 477 
Q 1052 477 , 1041 481 
Q 1031 486 , 1031 494 
Q 1031 503 , 1041 507 
Q 1052 511 , 1073 511 
Q 1082 511 , 1089 511 
Q 1096 510 , 1099 510 
" fill="#F5C000" />
<path d="
M 1162 554 
L 1162 554 
L 1148 554 
L 1148 553 
L 1170 553 
L 1170 554 
Q 1165 555 , 1159 555 
Q 1154 555 , 1148 555 
Q 1135 555 , 1128 554 
Q 1120 554 , 1120 553 
Q 1120 553 , 1128 552 
Q 1135 552 , 1148 552 
Q 1154 552 , 1159 552 
Q 1164 552 , 1169 552 
L 1169 553 
Q 1162 552 , 1158 552 
Q 1154 552 , 1149 552 
Q 1139 552 , 1133 553 
Q 1128 553 , 1128 553 
Q 1128 554 , 1133 554 
Q 1139 554 , 1149 554 
Q 1154 554 , 1157 554 
Q 1161 554 , 1162 554 
" fill="lightgray" />
<path d="
M 1170 552 
L 1179 552 
L 1179 554 
Q 1179 554 , 1183 554 
Q 1186 554 , 1195 554 
Q 1204 554 , 1207 554 
Q 1211 554 , 1211 554 
L 1211 552 
L 1220 552 
L 1220 554 
Q 1220 554 , 1214 554 
Q 1207 555 , 1195 555 
Q 1183 555 , 1176 554 
Q 1170 554 , 1170 554 
L 1170 552 
" fill="#D21010" />
<path d="
M 1170 549 
L 1170 550 
Q 1163 549 , 1159 549 
Q 1154 549 , 1149 549 
Q 1139 549 , 1134 550 
Q 1128 550 , 1128 550 
Q 1128 551 , 1134 551 
Q 1139 551 , 1149 551 
Q 1154 551 , 1159 551 
Q 1163 551 , 1170 551 
L 1170 552 
Q 1165 552 , 1159 552 
Q 1155 552 , 1149 552 
Q 1135 552 , 1128 551 
Q 1120 551 , 1120 550 
Q 1120 550 , 1128 549 
Q 1135 549 , 1149 549 
Q 1155 549 , 1160 549 
Q 1165 549 , 1170 549 
" fill="lightgray" />
<path d="
M 1212 551 
L 1212 551 
L 1198 551 
L 1198 550 
L 1220 550 
L 1220 552 
Q 1215 552 , 1209 552 
Q 1204 552 , 1198 552 
Q 1185 552 , 1178 551 
Q 1170 551 , 1170 550 
Q 1170 550 , 1178 549 
Q 1185 549 , 1198 549 
Q 1204 549 , 1209 549 
Q 1214 549 , 1219 549 
L 1219 550 
Q 1212 549 , 1208 549 
Q 1204 549 , 1199 549 
Q 1189 549 , 1183 550 
Q 1178 550 , 1178 550 
Q 1178 551 , 1183 551 
Q 1189 551 , 1199 551 
Q 1204 551 , 1207 551 
Q 1211 551 , 1212 551 
" fill="#F5C000" />
<path d="
M 1145 546 
L 1136 547 
L 1153 547 
L 1145 546 
M 1141 545 
L 1149 545 
L 1170 548 
L 1162 548 
L 1156 547 
L 1134 547 
L 1127 548 
L 1120 548 
L 1141 545 
" fill="lightgray" />
<path d="
M 1170 545 
L 1179 545 
L 1179 547 
Q 1179 547 , 1183 548 
Q 1186 548 , 1195 548 
Q 1204 548 , 1207 548 
Q 1211 547 , 1211 547 
L 1211 545 
L 1220 545 
L 1220 547 
Q 1220 548 , 1214 548 
Q 1207 548 , 1195 548 
Q 1183 548 , 1176 548 
Q 1170 548 , 1170 547 
L 1170 545 
" fill="#D21010" />
<path d="
M 1162 544 
L 1162 543 
L 1148 543 
L 1148 542 
L 1170 542 
L 1170 544 
Q 1165 545 , 1159 545 
Q 1154 545 , 1148 545 
Q 1135 545 , 1128 544 
Q 1120 543 , 1120 542 
Q 1120 541 , 1128 541 
Q 1135 540 , 1148 540 
Q 1154 540 , 1159 540 
Q 1164 540 , 1169 540 
L 1169 541 
Q 1162 541 , 1158 541 
Q 1154 541 , 1149 541 
Q 1139 541 , 1133 541 
Q 1128 541 , 1128 542 
Q 1128 543 , 1133 544 
Q 1139 544 , 1149 544 
Q 1154 544 , 1157 544 
Q 1161 544 , 1162 544 
" fill="lightgray" />
<path d="
M 1220 541 
L 1220 541 
Q 1213 541 , 1209 541 
Q 1204 541 , 1199 541 
Q 1189 541 , 1184 541 
Q 1178 541 , 1178 542 
Q 1178 543 , 1184 544 
Q 1189 544 , 1199 544 
Q 1204 544 , 1209 544 
Q 1213 544 , 1220 544 
L 1220 544 
Q 1215 545 , 1209 545 
Q 1205 545 , 1199 545 
Q 1185 545 , 1178 544 
Q 1170 543 , 1170 542 
Q 1170 541 , 1178 541 
Q 1185 540 , 1199 540 
Q 1205 540 , 1210 540 
Q 1215 540 , 1220 541 
" fill="#545FFF" />
<path d="
M 1120 532 
L 1129 532 
L 1129 537 
Q 1129 538 , 1133 538 
Q 1136 539 , 1145 539 
Q 1154 539 , 1157 538 
Q 1161 538 , 1161 537 
L 1161 532 
L 1170 532 
L 1170 537 
Q 1170 538 , 1164 539 
Q 1157 540 , 1145 540 
Q 1133 540 , 1126 539 
Q 1120 538 , 1120 537 
L 1120 532 
" fill="lightgray" />
<path d="
M 1212 539 
L 1212 537 
L 1198 537 
L 1198 536 
L 1220 536 
L 1220 539 
Q 1215 539 , 1209 540 
Q 1204 540 , 1198 540 
Q 1185 540 , 1178 539 
Q 1170 538 , 1170 536 
Q 1170 534 , 1178 533 
Q 1185 532 , 1198 532 
Q 1204 532 , 1209 532 
Q 1214 532 , 1219 533 
L 1219 534 
Q 1212 533 , 1208 533 
Q 1204 533 , 1199 533 
Q 1189 533 , 1183 534 
Q 1178 534 , 1178 536 
Q 1178 537 , 1183 538 
Q 1189 539 , 1199 539 
Q 1204 539 , 1207 539 
Q 1211 539 , 1212 539 
" fill="#F5C000" />
<path d="
M 1120 523 
L 1129 523 
L 1129 528 
Q 1129 529 , 1133 530 
Q 1136 530 , 1145 530 
Q 1154 530 , 1157 530 
Q 1161 529 , 1161 528 
L 1161 523 
L 1170 523 
L 1170 528 
Q 1170 529 , 1164 530 
Q 1157 531 , 1145 531 
Q 1133 531 , 1126 530 
Q 1120 529 , 1120 528 
L 1120 523 
" fill="lightgray" />
<path d="
M 1195 524 
L 1186 528 
L 1203 528 
L 1195 524 
M 1191 523 
L 1199 523 
L 1220 531 
L 1212 531 
L 1206 529 
L 1184 529 
L 1177 531 
L 1170 531 
L 1191 523 
" fill="#339541" />
<path d="
M 1225 551 
L 1234 551 
L 1234 553 
Q 1234 554 , 1238 554 
Q 1241 554 , 1250 554 
Q 1259 554 , 1262 554 
Q 1266 554 , 1266 553 
L 1266 551 
L 1275 551 
L 1275 553 
Q 1275 554 , 1269 554 
Q 1262 554 , 1250 554 
Q 1238 554 , 1231 554 
Q 1225 554 , 1225 553 
L 1225 551 
" fill="lightgray" />
<path d="
M 1317 554 
L 1317 553 
L 1303 553 
L 1303 553 
L 1325 553 
L 1325 554 
Q 1320 554 , 1314 554 
Q 1309 554 , 1303 554 
Q 1290 554 , 1283 554 
Q 1275 554 , 1275 553 
Q 1275 552 , 1283 551 
Q 1290 551 , 1303 551 
Q 1309 551 , 1314 551 
Q 1319 551 , 1324 551 
L 1324 552 
Q 1317 552 , 1313 551 
Q 1309 551 , 1304 551 
Q 1294 551 , 1288 552 
Q 1283 552 , 1283 553 
Q 1283 553 , 1288 554 
Q 1294 554 , 1304 554 
Q 1309 554 , 1312 554 
Q 1316 554 , 1317 554 
" fill="#F5C000" />
<path d="
M 1267 549 
L 1267 548 
L 1253 548 
L 1253 547 
L 1275 547 
L 1275 550 
Q 1270 550 , 1264 550 
Q 1259 550 , 1253 550 
Q 1240 550 , 1233 549 
Q 1225 549 , 1225 547 
Q 1225 546 , 1233 545 
Q 1240 544 , 1253 544 
Q 1259 544 , 1264 544 
Q 1269 544 , 1274 545 
L 1274 545 
Q 1267 545 , 1263 545 
Q 1259 545 , 1254 545 
Q 1244 545 , 1238 545 
Q 1233 546 , 1233 547 
Q 1233 548 , 1238 549 
Q 1244 550 , 1254 550 
Q 1259 550 , 1262 550 
Q 1266 550 , 1267 549 
" fill="lightgray" />
<path d="
M 1275 544 
L 1284 544 
L 1284 548 
Q 1284 549 , 1288 549 
Q 1291 550 , 1300 550 
Q 1309 550 , 1312 549 
Q 1316 549 , 1316 548 
L 1316 544 
L 1325 544 
L 1325 548 
Q 1325 549 , 1319 550 
Q 1312 550 , 1300 550 
Q 1288 550 , 1281 550 
Q 1275 549 , 1275 548 
L 1275 544 
" fill="#D21010" />
<path d="
M 1275 538 
L 1275 539 
Q 1268 538 , 1264 538 
Q 1259 538 , 1254 538 
Q 1244 538 , 1239 538 
Q 1233 539 , 1233 540 
Q 1233 542 , 1239 542 
Q 1244 543 , 1254 543 
Q 1259 543 , 1264 543 
Q 1268 543 , 1275 542 
L 1275 543 
Q 1270 543 , 1264 543 
Q 1260 544 , 1254 544 
Q 1240 544 , 1233 543 
Q 1225 542 , 1225 540 
Q 1225 539 , 1233 538 
Q 1240 537 , 1254 537 
Q 1260 537 , 1265 537 
Q 1270 537 , 1275 538 
" fill="lightgray" />
<path d="
M 1317 543 
L 1317 541 
L 1303 541 
L 1303 540 
L 1325 540 
L 1325 543 
Q 1320 543 , 1314 543 
Q 1309 544 , 1303 544 
Q 1290 544 , 1283 543 
Q 1275 542 , 1275 540 
Q 1275 539 , 1283 538 
Q 1290 537 , 1303 537 
Q 1309 537 , 1314 537 
Q 1319 537 , 1324 538 
L 1324 538 
Q 1317 538 , 1313 538 
Q 1309 538 , 1304 538 
Q 1294 538 , 1288 538 
Q 1283 539 , 1283 540 
Q 1283 542 , 1288 542 
Q 1294 543 , 1304 543 
Q 1309 543 , 1312 543 
Q 1316 543 , 1317 543 
" fill="#F5C000" />
<path d="
M 1225 527 
L 1234 527 
L 1234 533 
Q 1234 534 , 1238 535 
Q 1241 536 , 1250 536 
Q 1259 536 , 1262 535 
Q 1266 534 , 1266 533 
L 1266 527 
L 1275 527 
L 1275 533 
Q 1275 535 , 1269 536 
Q 1262 537 , 1250 537 
Q 1238 537 , 1231 536 
Q 1225 535 , 1225 533 
L 1225 527 
" fill="lightgray" />
<path d="
M 1300 529 
L 1291 533 
L 1308 533 
L 1300 529 
M 1296 527 
L 1304 527 
L 1325 537 
L 1317 537 
L 1311 534 
L 1289 534 
L 1282 537 
L 1275 537 
L 1296 527 
" fill="#339541" />
<path d="
M 1267 522 
L 1267 513 
L 1253 513 
L 1253 509 
L 1275 509 
L 1275 524 
Q 1270 525 , 1264 526 
Q 1259 526 , 1253 526 
Q 1240 526 , 1233 522 
Q 1225 518 , 1225 510 
Q 1225 503 , 1233 498 
Q 1240 494 , 1253 494 
Q 1259 494 , 1264 495 
Q 1269 495 , 1274 497 
L 1274 501 
Q 1267 499 , 1263 498 
Q 1259 498 , 1254 498 
Q 1244 498 , 1238 501 
Q 1233 504 , 1233 510 
Q 1233 516 , 1238 520 
Q 1244 523 , 1254 523 
Q 1259 523 , 1262 522 
Q 1266 522 , 1267 522 
" fill="lightgray" />
<path d="
M 1325 497 
L 1325 502 
Q 1318 499 , 1314 498 
Q 1309 498 , 1304 498 
Q 1294 498 , 1289 501 
Q 1283 504 , 1283 510 
Q 1283 516 , 1289 520 
Q 1294 523 , 1304 523 
Q 1309 523 , 1314 522 
Q 1318 521 , 1325 518 
L 1325 523 
Q 1320 525 , 1314 526 
Q 1310 526 , 1304 526 
Q 1290 526 , 1283 522 
Q 1275 518 , 1275 510 
Q 1275 503 , 1283 498 
Q 1290 494 , 1304 494 
Q 1310 494 , 1315 495 
Q 1320 496 , 1325 497 
" fill="#545FFF" />
<path d="
M 1250 463 
L 1241 478 
L 1258 478 
L 1250 463 
M 1246 456 
L 1254 456 
L 1275 493 
L 1267 493 
L 1261 482 
L 1239 482 
L 1232 493 
L 1225 493 
L 1246 456 
" fill="lightgray" />
<path d="
M 1275 456 
L 1284 456 
L 1284 478 
Q 1284 484 , 1288 487 
Q 1291 489 , 1300 489 
Q 1309 489 , 1312 487 
Q 1316 484 , 1316 478 
L 1316 456 
L 1325 456 
L 1325 479 
Q 1325 486 , 1319 490 
Q 1312 493 , 1300 493 
Q 1288 493 , 1281 490 
Q 1275 486 , 1275 479 
L 1275 456 
" fill="#D21010" />
<path d="
M 1430 553 
L 1430 553 
Q 1415 553 , 1407 553 
Q 1399 553 , 1389 553 
Q 1368 553 , 1358 553 
Q 1346 553 , 1346 553 
Q 1346 554 , 1358 554 
Q 1368 554 , 1389 554 
Q 1399 554 , 1407 554 
Q 1415 554 , 1430 554 
L 1430 554 
Q 1419 554 , 1409 554 
Q 1399 554 , 1388 554 
Q 1361 554 , 1346 554 
Q 1330 554 , 1330 554 
Q 1330 553 , 1346 553 
Q 1361 553 , 1388 553 
Q 1399 553 , 1409 553 
Q 1420 553 , 1430 553 
" fill="#545FFF" />
<path d="
M 1330 551 
L 1348 551 
L 1348 552 
Q 1348 552 , 1356 552 
Q 1363 552 , 1380 552 
Q 1397 552 , 1405 552 
Q 1412 552 , 1412 552 
L 1412 551 
L 1430 551 
L 1430 552 
Q 1430 552 , 1417 552 
Q 1405 553 , 1380 553 
Q 1356 553 , 1343 552 
Q 1330 552 , 1330 552 
L 1330 551 
" fill="#D21010" />
<path d="
M 1380 549 
L 1362 550 
L 1396 550 
L 1380 549 
M 1373 549 
L 1387 549 
L 1430 551 
L 1414 551 
L 1402 550 
L 1358 550 
L 1345 551 
L 1330 551 
L 1373 549 
" fill="#339541" />
<path d="
M 1414 548 
L 1414 547 
L 1385 547 
L 1385 547 
L 1430 547 
L 1430 548 
Q 1419 548 , 1408 548 
Q 1399 548 , 1387 548 
Q 1361 548 , 1345 548 
Q 1330 548 , 1330 547 
Q 1330 547 , 1345 546 
Q 1361 546 , 1387 546 
Q 1398 546 , 1407 546 
Q 1417 546 , 1427 546 
L 1427 547 
Q 1414 546 , 1406 546 
Q 1397 546 , 1388 546 
Q 1367 546 , 1356 547 
Q 1346 547 , 1346 547 
Q 1346 548 , 1356 548 
Q 1367 548 , 1388 548 
Q 1397 548 , 1404 548 
Q 1411 548 , 1414 548 
" fill="#F5C000" />
<path d="M 65 168 L 65 555 " stroke="black" stroke-width="1.5"/>
<path d="M 55 555 L 65 555 " stroke="black" stroke-width="4"/>
<text text-anchor="end" x="50" y="555" font-size="50" alignment-baseline="middle">0</text>
<path d="M 55 362 L 65 362 " stroke="black" stroke-width="4"/>
<text text-anchor="end" x="50" y="362" font-size="50" alignment-baseline="middle">1</text>
<path d="M 55 168 L 65 168 " stroke="black" stroke-width="4"/>
<text text-anchor="end" x="50" y="168" font-size="50" alignment-baseline="middle">2</text>
<text text-anchor="middle" x="750" y="50" font-size="50" alignment-baseline="baseline"></text>
G<path d="
M 160 582 
L 126 595 
L 160 608 
L 157 611 
L 123 598 
L 123 623 
L 117 623 
L 117 599 
L 83 611 
L 80 608 
L 114 595 
L 80 582 
L 83 579 
L 117 591 
L 117 567 
L 123 567 
L 123 591 
L 157 579 
L 160 582 
" fill="black" />
<path d="
" fill="black" />
<path d="
M 211 567 
L 238 567 
L 238 623 
L 211 623 
L 211 567 
" fill="black" />
<path d="
" fill="black" />
<path d="
M 370 567 
Q 341 574 , 328 581 
Q 315 588 , 315 595 
Q 315 602 , 328 609 
Q 341 616 , 370 623 
L 346 623 
Q 318 616 , 304 609 
Q 290 602 , 290 595 
Q 290 588 , 304 581 
Q 318 574 , 346 567 
L 370 567 
" fill="black" />
<path d="
M 475 567 
Q 446 574 , 433 581 
Q 420 588 , 420 595 
Q 420 602 , 433 609 
Q 446 616 , 475 623 
L 451 623 
Q 423 616 , 409 609 
Q 395 602 , 395 595 
Q 395 588 , 409 581 
Q 423 574 , 451 567 
L 475 567 
" fill="black" />
<path d="
" fill="black" />
<path d="
M 526 567 
L 553 567 
L 553 623 
L 526 623 
L 526 567 
" fill="black" />
<path d="
" fill="black" />
<path d="
" fill="black" />
<path d="
M 622 567 
L 642 567 
L 642 623 
L 622 623 
L 622 567 
" fill="black" />
<path d="
" fill="black" />
<path d="
M 687 595 
Q 686 591 , 682 591 
Q 679 591 , 677 595 
Q 675 599 , 675 605 
Q 675 612 , 677 615 
Q 679 619 , 682 619 
Q 686 619 , 687 615 
Q 689 612 , 689 605 
Q 689 599 , 687 595 
M 690 569 
L 690 574 
Q 689 572 , 687 571 
Q 686 571 , 684 571 
Q 678 571 , 676 581 
Q 675 586 , 675 595 
Q 675 593 , 677 590 
Q 679 587 , 682 587 
Q 687 587 , 689 592 
Q 692 597 , 692 604 
Q 692 613 , 689 618 
Q 687 623 , 682 623 
Q 677 623 , 675 616 
Q 672 609 , 672 595 
Q 672 581 , 675 574 
Q 679 567 , 684 567 
Q 686 567 , 687 568 
Q 689 568 , 690 569 
" fill="black" />
<path d="
M 790 582 
L 756 595 
L 790 608 
L 787 611 
L 753 598 
L 753 623 
L 747 623 
L 747 599 
L 713 611 
L 710 608 
L 744 595 
L 710 582 
L 713 579 
L 747 591 
L 747 567 
L 753 567 
L 753 591 
L 787 579 
L 790 582 
" fill="black" />
<path d="
" fill="black" />
<path d="
M 841 567 
L 868 567 
L 868 623 
L 841 623 
L 841 567 
" fill="black" />
<path d="
" fill="black" />
<path d="
" fill="black" />
<path d="
M 946 567 
L 973 567 
L 973 623 
L 946 623 
L 946 567 
" fill="black" />
<path d="
" fill="black" />
<path d="
" fill="black" />
<path d="
M 1051 567 
L 1078 567 
L 1078 623 
L 1051 623 
L 1051 567 
" fill="black" />
<path d="
" fill="black" />
<path d="
M 1130 567 
L 1154 567 
Q 1182 574 , 1196 581 
Q 1210 588 , 1210 595 
Q 1210 602 , 1196 609 
Q 1182 616 , 1154 623 
L 1130 623 
Q 1159 616 , 1172 609 
Q 1185 602 , 1185 595 
Q 1185 588 , 1172 581 
Q 1159 574 , 1130 567 
" fill="black" />
<path d="
M 1235 567 
L 1259 567 
Q 1287 574 , 1301 581 
Q 1315 588 , 1315 595 
Q 1315 602 , 1301 609 
Q 1287 616 , 1259 623 
L 1235 623 
Q 1264 616 , 1277 609 
Q 1290 602 , 1290 595 
Q 1290 588 , 1277 581 
Q 1264 574 , 1235 567 
" fill="black" />
<path d="
M 1420 582 
L 1386 595 
L 1420 608 
L 1417 611 
L 1383 598 
L 1383 623 
L 1377 623 
L 1377 599 
L 1343 611 
L 1340 608 
L 1374 595 
L 1340 582 
L 1343 579 
L 1377 591 
L 1377 567 
L 1383 567 
L 1383 591 
L 1417 579 
L 1420 582 
" fill="black" />
</svg>
