<svg xmlns="http://www.w3.org/2000/svg"
viewBox="0 0 1435 635">
<path d="
M 170 553 
L 170 553 
Q 155 553 , 147 553 
Q 139 553 , 129 553 
Q 108 553 , 98 553 
Q 86 553 , 86 553 
Q 86 554 , 98 554 
Q 108 554 , 129 554 
Q 139 554 , 147 554 
Q 155 554 , 170 554 
L 170 554 
Q 159 554 , 149 554 
Q 139 554 , 128 554 
Q 101 554 , 86 554 
Q 70 554 , 70 554 
Q 70 553 , 86 553 
Q 101 553 , 128 553 
Q 139 553 , 149 553 
Q 160 553 , 170 553 
" fill="#545FFF" />
<path d="
M 70 551 
L 88 551 
L 88 552 
Q 88 552 , 96 552 
Q 103 553 , 120 553 
Q 137 553 , 145 552 
Q 152 552 , 152 552 
L 152 551 
L 170 551 
L 170 552 
Q 170 552 , 157 553 
Q 145 553 , 120 553 
Q 96 553 , 83 553 
Q 70 552 , 70 552 
L 70 551 
" fill="#D21010" />
<path d="
M 120 548 
L 102 549 
L 136 549 
L 120 548 
M 113 548 
L 127 548 
L 170 550 
L 154 550 
L 142 549 
L 98 549 
L 85 550 
L 70 550 
L 113 548 
" fill="#339541" />
<path d="
M 154 547 
L 154 547 
L 125 547 
L 125 546 
L 170 546 
L 170 547 
Q 159 547 , 148 548 
Q 139 548 , 127 548 
Q 101 548 , 85 547 
Q 70 547 , 70 546 
Q 70 546 , 85 545 
Q 101 545 , 127 545 
Q 138 545 , 147 545 
Q 157 545 , 167 545 
L 167 546 
Q 154 545 , 146 545 
Q 137 545 , 128 545 
Q 107 545 , 96 546 
Q 86 546 , 86 546 
Q 86 547 , 96 547 
Q 107 547 , 128 547 
Q 137 547 , 144 547 
Q 151 547 , 154 547 
" fill="#F5C000" />
<path d="
M 275 552 
L 275 553 
Q 260 552 , 252 552 
Q 244 552 , 234 552 
Q 213 552 , 203 552 
Q 191 553 , 191 553 
Q 191 554 , 203 554 
Q 213 554 , 234 554 
Q 244 554 , 252 554 
Q 260 554 , 275 554 
L 275 554 
Q 264 554 , 254 554 
Q 244 554 , 233 554 
Q 206 554 , 191 554 
Q 175 554 , 175 553 
Q 175 553 , 191 552 
Q 206 552 , 233 552 
Q 244 552 , 254 552 
Q 265 552 , 275 552 
" fill="#545FFF" />
<path d="
M 259 549 
L 259 543 
L 230 543 
L 230 541 
L 275 541 
L 275 550 
Q 264 551 , 253 551 
Q 244 551 , 232 551 
Q 206 551 , 190 549 
Q 175 546 , 175 542 
Q 175 537 , 190 535 
Q 206 532 , 232 532 
Q 243 532 , 252 532 
Q 262 533 , 272 534 
L 272 536 
Q 259 535 , 251 535 
Q 242 534 , 233 534 
Q 212 534 , 201 536 
Q 191 538 , 191 542 
Q 191 546 , 201 547 
Q 212 549 , 233 549 
Q 242 549 , 249 549 
Q 256 549 , 259 549 
" fill="#F5C000" />
<path d="
M 225 510 
L 207 520 
L 241 520 
L 225 510 
M 218 505 
L 232 505 
L 275 531 
L 259 531 
L 247 523 
L 203 523 
L 190 531 
L 175 531 
L 218 505 
" fill="#339541" />
<path d="
M 175 461 
L 193 461 
L 193 487 
Q 193 494 , 201 497 
Q 208 500 , 225 500 
Q 242 500 , 250 497 
Q 257 494 , 257 487 
L 257 461 
L 275 461 
L 275 488 
Q 275 496 , 262 500 
Q 250 505 , 225 505 
Q 201 505 , 188 500 
Q 175 496 , 175 488 
L 175 461 
" fill="#D21010" />
<path d="
M 380 553 
L 380 553 
Q 365 553 , 357 553 
Q 349 553 , 339 553 
Q 318 553 , 308 553 
Q 296 553 , 296 553 
Q 296 554 , 308 554 
Q 318 554 , 339 554 
Q 349 554 , 357 554 
Q 365 554 , 380 554 
L 380 554 
Q 369 554 , 359 555 
Q 349 555 , 338 555 
Q 311 555 , 296 554 
Q 280 554 , 280 554 
Q 280 553 , 296 553 
Q 311 553 , 338 553 
Q 349 553 , 359 553 
Q 370 553 , 380 553 
" fill="#545FFF" />
<path d="
M 280 541 
L 298 541 
L 298 548 
Q 298 550 , 306 551 
Q 313 551 , 330 551 
Q 347 551 , 355 551 
Q 362 550 , 362 548 
L 362 541 
L 380 541 
L 380 548 
Q 380 550 , 367 552 
Q 355 553 , 330 553 
Q 306 553 , 293 552 
Q 280 550 , 280 548 
L 280 541 
" fill="#D21010" />
<path d="
M 330 516 
L 312 528 
L 346 528 
L 330 516 
M 323 511 
L 337 511 
L 380 540 
L 364 540 
L 352 532 
L 308 532 
L 295 540 
L 280 540 
L 323 511 
" fill="#339541" />
<path d="
M 364 470 
L 364 394 
L 335 394 
L 335 363 
L 380 363 
L 380 489 
Q 369 501 , 358 505 
Q 349 510 , 337 510 
Q 311 510 , 295 473 
Q 280 435 , 280 369 
Q 280 303 , 295 266 
Q 311 228 , 337 228 
Q 348 228 , 357 233 
Q 367 238 , 377 251 
L 377 287 
Q 364 271 , 356 266 
Q 347 262 , 338 262 
Q 317 262 , 306 288 
Q 296 315 , 296 369 
Q 296 425 , 306 452 
Q 317 479 , 338 479 
Q 347 479 , 354 476 
Q 361 473 , 364 470 
" fill="#F5C000" />
<path d="
M 485 553 
L 485 553 
Q 470 553 , 462 553 
Q 454 553 , 444 553 
Q 423 553 , 413 553 
Q 401 554 , 401 554 
Q 401 554 , 413 554 
Q 423 555 , 444 555 
Q 454 555 , 462 554 
Q 470 554 , 485 554 
L 485 555 
Q 474 555 , 464 555 
Q 454 555 , 443 555 
Q 416 555 , 401 554 
Q 385 554 , 385 554 
Q 385 553 , 401 553 
Q 416 553 , 443 553 
Q 454 553 , 464 553 
Q 475 553 , 485 553 
" fill="#545FFF" />
<path d="
M 385 537 
L 403 537 
L 403 546 
Q 403 548 , 411 549 
Q 418 550 , 435 550 
Q 452 550 , 460 549 
Q 467 548 , 467 546 
L 467 537 
L 485 537 
L 485 546 
Q 485 549 , 472 551 
Q 460 552 , 435 552 
Q 411 552 , 398 551 
Q 385 549 , 385 546 
L 385 537 
" fill="#D21010" />
<path d="
M 435 521 
L 417 528 
L 451 528 
L 435 521 
M 428 517 
L 442 517 
L 485 536 
L 469 536 
L 457 531 
L 413 531 
L 400 536 
L 385 536 
L 428 517 
" fill="#339541" />
<path d="
M 469 472 
L 469 388 
L 440 388 
L 440 354 
L 485 354 
L 485 493 
Q 474 506 , 463 511 
Q 454 516 , 442 517 
Q 416 517 , 400 475 
Q 385 434 , 385 361 
Q 385 288 , 400 247 
Q 416 205 , 442 205 
Q 453 205 , 462 210 
Q 472 216 , 482 230 
L 482 270 
Q 469 252 , 461 247 
Q 452 242 , 443 242 
Q 422 242 , 411 271 
Q 401 301 , 401 361 
Q 401 422 , 411 452 
Q 422 482 , 443 482 
Q 452 482 , 459 479 
Q 466 476 , 469 472 
" fill="#F5C000" />
<path d="
M 590 552 
L 590 553 
Q 575 552 , 567 552 
Q 559 552 , 549 552 
Q 528 552 , 518 553 
Q 506 553 , 506 553 
Q 506 554 , 518 554 
Q 528 554 , 549 554 
Q 559 554 , 567 554 
Q 575 554 , 590 554 
L 590 554 
Q 579 554 , 569 555 
Q 559 555 , 548 555 
Q 521 555 , 506 554 
Q 490 554 , 490 553 
Q 490 553 , 506 552 
Q 521 552 , 548 552 
Q 559 552 , 569 552 
Q 580 552 , 590 552 
" fill="#545FFF" />
<path d="
M 490 529 
L 508 529 
L 508 542 
Q 508 546 , 516 547 
Q 523 549 , 540 549 
Q 557 549 , 565 547 
Q 572 546 , 572 542 
L 572 529 
L 590 529 
L 590 542 
Q 590 547 , 577 549 
Q 565 551 , 540 551 
Q 516 551 , 503 549 
Q 490 547 , 490 542 
L 490 529 
" fill="#D21010" />
<path d="
M 540 502 
L 522 515 
L 556 515 
L 540 502 
M 533 496 
L 547 496 
L 590 528 
L 574 528 
L 562 519 
L 518 519 
L 505 528 
L 490 528 
L 533 496 
" fill="#339541" />
<path d="
M 574 479 
L 574 448 
L 545 448 
L 545 436 
L 590 436 
L 590 487 
Q 579 491 , 568 493 
Q 559 495 , 547 495 
Q 521 495 , 505 480 
Q 490 465 , 490 438 
Q 490 412 , 505 396 
Q 521 381 , 547 381 
Q 558 381 , 567 383 
Q 577 385 , 587 390 
L 587 405 
Q 574 398 , 566 396 
Q 557 395 , 548 395 
Q 527 395 , 516 405 
Q 506 416 , 506 438 
Q 506 461 , 516 472 
Q 527 483 , 548 483 
Q 557 483 , 564 482 
Q 571 480 , 574 479 
" fill="#F5C000" />
<path d="
M 695 552 
L 695 553 
Q 680 552 , 672 552 
Q 664 552 , 654 552 
Q 633 552 , 623 553 
Q 611 553 , 611 553 
Q 611 554 , 623 554 
Q 633 554 , 654 554 
Q 664 554 , 672 554 
Q 680 554 , 695 554 
L 695 555 
Q 684 555 , 674 555 
Q 664 555 , 653 555 
Q 626 555 , 611 554 
Q 595 554 , 595 553 
Q 595 553 , 611 552 
Q 626 552 , 653 552 
Q 664 552 , 674 552 
Q 685 552 , 695 552 
" fill="#545FFF" />
<path d="
M 595 533 
L 613 533 
L 613 544 
Q 613 547 , 621 548 
Q 628 549 , 645 549 
Q 662 549 , 670 548 
Q 677 547 , 677 544 
L 677 533 
L 695 533 
L 695 544 
Q 695 548 , 682 549 
Q 670 551 , 645 551 
Q 621 551 , 608 549 
Q 595 548 , 595 544 
L 595 533 
" fill="#D21010" />
<path d="
M 679 529 
L 679 524 
L 650 524 
L 650 521 
L 695 521 
L 695 531 
Q 684 532 , 673 532 
Q 664 532 , 652 532 
Q 626 532 , 610 529 
Q 595 527 , 595 522 
Q 595 517 , 610 514 
Q 626 511 , 652 511 
Q 663 511 , 672 511 
Q 682 512 , 692 513 
L 692 515 
Q 679 514 , 671 514 
Q 662 514 , 653 514 
Q 632 514 , 621 516 
Q 611 518 , 611 522 
Q 611 526 , 621 528 
Q 632 530 , 653 530 
Q 662 530 , 669 530 
Q 676 529 , 679 529 
" fill="#F5C000" />
<path d="
M 645 481 
L 627 496 
L 661 496 
L 645 481 
M 638 474 
L 652 474 
L 695 511 
L 679 511 
L 667 500 
L 623 500 
L 610 511 
L 595 511 
L 638 474 
" fill="#339541" />
<path d="
M 800 553 
L 800 553 
Q 785 553 , 777 553 
Q 769 553 , 759 553 
Q 738 553 , 728 553 
Q 716 553 , 716 553 
Q 716 554 , 728 554 
Q 738 554 , 759 554 
Q 769 554 , 777 554 
Q 785 554 , 800 554 
L 800 554 
Q 789 554 , 779 554 
Q 769 554 , 758 554 
Q 731 554 , 716 554 
Q 700 554 , 700 554 
Q 700 553 , 716 553 
Q 731 553 , 758 553 
Q 769 553 , 779 553 
Q 790 553 , 800 553 
" fill="#545FFF" />
<path d="
M 700 551 
L 718 551 
L 718 552 
Q 718 552 , 726 552 
Q 733 553 , 750 553 
Q 767 553 , 775 552 
Q 782 552 , 782 552 
L 782 551 
L 800 551 
L 800 552 
Q 800 552 , 787 553 
Q 775 553 , 750 553 
Q 726 553 , 713 553 
Q 700 552 , 700 552 
L 700 551 
" fill="#D21010" />
<path d="
M 750 548 
L 732 549 
L 766 549 
L 750 548 
M 743 548 
L 757 548 
L 800 550 
L 784 550 
L 772 549 
L 728 549 
L 715 550 
L 700 550 
L 743 548 
" fill="#339541" />
<path d="
M 784 547 
L 784 547 
L 755 547 
L 755 546 
L 800 546 
L 800 547 
Q 789 547 , 778 548 
Q 769 548 , 757 548 
Q 731 548 , 715 547 
Q 700 547 , 700 546 
Q 700 546 , 715 545 
Q 731 545 , 757 545 
Q 768 545 , 777 545 
Q 787 545 , 797 545 
L 797 546 
Q 784 545 , 776 545 
Q 767 545 , 758 545 
Q 737 545 , 726 546 
Q 716 546 , 716 546 
Q 716 547 , 726 547 
Q 737 547 , 758 547 
Q 767 547 , 774 547 
Q 781 547 , 784 547 
" fill="#F5C000" />
<path d="
M 905 548 
L 905 549 
Q 890 548 , 882 548 
Q 874 548 , 864 548 
Q 843 548 , 833 549 
Q 821 549 , 821 550 
Q 821 552 , 833 553 
Q 843 554 , 864 554 
Q 874 554 , 882 553 
Q 890 553 , 905 553 
L 905 554 
Q 894 554 , 884 554 
Q 874 554 , 863 554 
Q 836 554 , 821 553 
Q 805 552 , 805 551 
Q 805 549 , 821 548 
Q 836 547 , 863 547 
Q 874 547 , 884 547 
Q 895 547 , 905 548 
" fill="#545FFF" />
<path d="
M 805 529 
L 823 529 
L 823 539 
Q 823 542 , 831 543 
Q 838 545 , 855 545 
Q 872 545 , 880 543 
Q 887 542 , 887 539 
L 887 529 
L 905 529 
L 905 540 
Q 905 543 , 892 545 
Q 880 547 , 855 547 
Q 831 547 , 818 545 
Q 805 543 , 805 540 
L 805 529 
" fill="#D21010" />
<path d="
M 889 524 
L 889 518 
L 860 518 
L 860 515 
L 905 515 
L 905 526 
Q 894 527 , 883 528 
Q 874 528 , 862 528 
Q 836 528 , 820 525 
Q 805 521 , 805 516 
Q 805 510 , 820 506 
Q 836 503 , 862 503 
Q 873 503 , 882 503 
Q 892 504 , 902 505 
L 902 508 
Q 889 507 , 881 506 
Q 872 506 , 863 506 
Q 842 506 , 831 508 
Q 821 511 , 821 516 
Q 821 520 , 831 523 
Q 842 525 , 863 525 
Q 872 525 , 879 525 
Q 886 525 , 889 524 
" fill="#F5C000" />
<path d="
M 855 421 
L 837 462 
L 871 462 
L 855 421 
M 848 403 
L 862 403 
L 905 503 
L 889 503 
L 877 473 
L 833 473 
L 820 503 
L 805 503 
L 848 403 
" fill="#339541" />
<path d="
M 1010 552 
L 1010 553 
Q 995 552 , 987 552 
Q 979 552 , 969 552 
Q 948 552 , 938 553 
Q 926 553 , 926 553 
Q 926 554 , 938 554 
Q 948 554 , 969 554 
Q 979 554 , 987 554 
Q 995 554 , 1010 554 
L 1010 554 
Q 999 555 , 989 555 
Q 979 555 , 968 555 
Q 941 555 , 926 554 
Q 910 554 , 910 553 
Q 910 553 , 926 552 
Q 941 552 , 968 552 
Q 979 552 , 989 552 
Q 1000 552 , 1010 552 
" fill="#545FFF" />
<path d="
M 910 539 
L 928 539 
L 928 546 
Q 928 548 , 936 549 
Q 943 550 , 960 550 
Q 977 550 , 985 549 
Q 992 548 , 992 546 
L 992 539 
L 1010 539 
L 1010 546 
Q 1010 549 , 997 550 
Q 985 551 , 960 551 
Q 936 551 , 923 550 
Q 910 549 , 910 546 
L 910 539 
" fill="#D21010" />
<path d="
M 960 518 
L 942 528 
L 976 528 
L 960 518 
M 953 513 
L 967 513 
L 1010 539 
L 994 539 
L 982 531 
L 938 531 
L 925 539 
L 910 539 
L 953 513 
" fill="#339541" />
<path d="
M 994 471 
L 994 394 
L 965 394 
L 965 363 
L 1010 363 
L 1010 490 
Q 999 502 , 988 507 
Q 979 512 , 967 512 
Q 941 512 , 925 474 
Q 910 436 , 910 369 
Q 910 302 , 925 264 
Q 941 226 , 967 226 
Q 978 226 , 987 231 
Q 997 236 , 1007 249 
L 1007 286 
Q 994 269 , 986 265 
Q 977 260 , 968 260 
Q 947 260 , 936 287 
Q 926 314 , 926 369 
Q 926 425 , 936 453 
Q 947 480 , 968 480 
Q 977 480 , 984 477 
Q 991 475 , 994 471 
" fill="#F5C000" />
<path d="
M 1115 549 
L 1115 550 
Q 1100 549 , 1092 549 
Q 1084 549 , 1074 549 
Q 1053 549 , 1043 549 
Q 1031 550 , 1031 551 
Q 1031 552 , 1043 553 
Q 1053 553 , 1074 553 
Q 1084 553 , 1092 553 
Q 1100 553 , 1115 552 
L 1115 553 
Q 1104 554 , 1094 554 
Q 1084 554 , 1073 554 
Q 1046 554 , 1031 553 
Q 1015 552 , 1015 551 
Q 1015 550 , 1031 549 
Q 1046 548 , 1073 548 
Q 1084 548 , 1094 548 
Q 1105 548 , 1115 549 
" fill="#545FFF" />
<path d="
M 1015 535 
L 1033 535 
L 1033 542 
Q 1033 544 , 1041 545 
Q 1048 546 , 1065 546 
Q 1082 546 , 1090 545 
Q 1097 544 , 1097 542 
L 1097 535 
L 1115 535 
L 1115 542 
Q 1115 545 , 1102 546 
Q 1090 547 , 1065 547 
Q 1041 547 , 1028 546 
Q 1015 545 , 1015 542 
L 1015 535 
" fill="#D21010" />
<path d="
M 1065 515 
L 1047 525 
L 1081 525 
L 1065 515 
M 1058 511 
L 1072 511 
L 1115 535 
L 1099 535 
L 1087 528 
L 1043 528 
L 1030 535 
L 1015 535 
L 1058 511 
" fill="#339541" />
<path d="
M 1099 472 
L 1099 400 
L 1070 400 
L 1070 371 
L 1115 371 
L 1115 490 
Q 1104 501 , 1093 505 
Q 1084 510 , 1072 510 
Q 1046 510 , 1030 474 
Q 1015 439 , 1015 377 
Q 1015 314 , 1030 279 
Q 1046 243 , 1072 243 
Q 1083 243 , 1092 248 
Q 1102 253 , 1112 265 
L 1112 299 
Q 1099 284 , 1091 279 
Q 1082 275 , 1073 275 
Q 1052 275 , 1041 300 
Q 1031 325 , 1031 377 
Q 1031 429 , 1041 455 
Q 1052 480 , 1073 480 
Q 1082 480 , 1089 478 
Q 1096 475 , 1099 472 
" fill="#F5C000" />
<path d="
M 1220 552 
L 1220 553 
Q 1205 552 , 1197 552 
Q 1189 552 , 1179 552 
Q 1158 552 , 1148 553 
Q 1136 553 , 1136 553 
Q 1136 554 , 1148 554 
Q 1158 555 , 1179 555 
Q 1189 555 , 1197 554 
Q 1205 554 , 1220 554 
L 1220 555 
Q 1209 555 , 1199 555 
Q 1189 555 , 1178 555 
Q 1151 555 , 1136 554 
Q 1120 554 , 1120 553 
Q 1120 553 , 1136 552 
Q 1151 552 , 1178 552 
Q 1189 552 , 1199 552 
Q 1210 552 , 1220 552 
" fill="#545FFF" />
<path d="
M 1204 549 
L 1204 544 
L 1175 544 
L 1175 542 
L 1220 542 
L 1220 550 
Q 1209 551 , 1198 551 
Q 1189 552 , 1177 552 
Q 1151 552 , 1135 549 
Q 1120 547 , 1120 542 
Q 1120 538 , 1135 535 
Q 1151 533 , 1177 533 
Q 1188 533 , 1197 533 
Q 1207 534 , 1217 535 
L 1217 537 
Q 1204 536 , 1196 536 
Q 1187 535 , 1178 535 
Q 1157 535 , 1146 537 
Q 1136 539 , 1136 542 
Q 1136 546 , 1146 548 
Q 1157 550 , 1178 550 
Q 1187 550 , 1194 549 
Q 1201 549 , 1204 549 
" fill="#F5C000" />
<path d="
M 1120 512 
L 1138 512 
L 1138 524 
Q 1138 527 , 1146 529 
Q 1153 530 , 1170 530 
Q 1187 530 , 1195 529 
Q 1202 527 , 1202 524 
L 1202 512 
L 1220 512 
L 1220 524 
Q 1220 528 , 1207 530 
Q 1195 532 , 1170 532 
Q 1146 532 , 1133 530 
Q 1120 528 , 1120 524 
L 1120 512 
" fill="#D21010" />
<path d="
M 1170 483 
L 1152 497 
L 1186 497 
L 1170 483 
M 1163 476 
L 1177 476 
L 1220 512 
L 1204 512 
L 1192 501 
L 1148 501 
L 1135 512 
L 1120 512 
L 1163 476 
" fill="#339541" />
<path d="
M 1225 547 
L 1243 547 
L 1243 551 
Q 1243 553 , 1251 553 
Q 1258 554 , 1275 554 
Q 1292 554 , 1300 553 
Q 1307 553 , 1307 551 
L 1307 547 
L 1325 547 
L 1325 551 
Q 1325 553 , 1312 554 
Q 1300 554 , 1275 554 
Q 1251 554 , 1238 554 
Q 1225 553 , 1225 551 
L 1225 547 
" fill="#D21010" />
<path d="
M 1325 538 
L 1325 539 
Q 1310 539 , 1302 538 
Q 1294 538 , 1284 538 
Q 1263 538 , 1253 539 
Q 1241 540 , 1241 542 
Q 1241 544 , 1253 545 
Q 1263 546 , 1284 546 
Q 1294 546 , 1302 545 
Q 1310 545 , 1325 544 
L 1325 546 
Q 1314 546 , 1304 546 
Q 1294 547 , 1283 547 
Q 1256 547 , 1241 545 
Q 1225 544 , 1225 542 
Q 1225 540 , 1241 538 
Q 1256 537 , 1283 537 
Q 1294 537 , 1304 537 
Q 1315 537 , 1325 538 
" fill="#545FFF" />
<path d="
M 1275 517 
L 1257 527 
L 1291 527 
L 1275 517 
M 1268 512 
L 1282 512 
L 1325 537 
L 1309 537 
L 1297 529 
L 1253 529 
L 1240 537 
L 1225 537 
L 1268 512 
" fill="#339541" />
<path d="
M 1309 505 
L 1309 492 
L 1280 492 
L 1280 487 
L 1325 487 
L 1325 508 
Q 1314 510 , 1303 511 
Q 1294 511 , 1282 511 
Q 1256 511 , 1240 505 
Q 1225 499 , 1225 488 
Q 1225 477 , 1240 471 
Q 1256 465 , 1282 465 
Q 1293 465 , 1302 466 
Q 1312 467 , 1322 469 
L 1322 475 
Q 1309 472 , 1301 471 
Q 1292 471 , 1283 471 
Q 1262 471 , 1251 475 
Q 1241 479 , 1241 488 
Q 1241 497 , 1251 502 
Q 1262 506 , 1283 506 
Q 1292 506 , 1299 506 
Q 1306 505 , 1309 505 
" fill="#F5C000" />
<path d="
M 1430 553 
L 1430 553 
Q 1415 553 , 1407 553 
Q 1399 553 , 1389 553 
Q 1368 553 , 1358 553 
Q 1346 553 , 1346 553 
Q 1346 554 , 1358 554 
Q 1368 554 , 1389 554 
Q 1399 554 , 1407 554 
Q 1415 554 , 1430 554 
L 1430 554 
Q 1419 554 , 1409 554 
Q 1399 554 , 1388 554 
Q 1361 554 , 1346 554 
Q 1330 554 , 1330 554 
Q 1330 553 , 1346 553 
Q 1361 553 , 1388 553 
Q 1399 553 , 1409 553 
Q 1420 553 , 1430 553 
" fill="#545FFF" />
<path d="
M 1330 551 
L 1348 551 
L 1348 552 
Q 1348 552 , 1356 552 
Q 1363 553 , 1380 553 
Q 1397 553 , 1405 552 
Q 1412 552 , 1412 552 
L 1412 551 
L 1430 551 
L 1430 552 
Q 1430 552 , 1417 553 
Q 1405 553 , 1380 553 
Q 1356 553 , 1343 553 
Q 1330 552 , 1330 552 
L 1330 551 
" fill="#D21010" />
<path d="
M 1380 548 
L 1362 549 
L 1396 549 
L 1380 548 
M 1373 548 
L 1387 548 
L 1430 550 
L 1414 550 
L 1402 549 
L 1358 549 
L 1345 550 
L 1330 550 
L 1373 548 
" fill="#339541" />
<path d="
M 1414 547 
L 1414 547 
L 1385 547 
L 1385 546 
L 1430 546 
L 1430 547 
Q 1419 547 , 1408 548 
Q 1399 548 , 1387 548 
Q 1361 548 , 1345 547 
Q 1330 547 , 1330 546 
Q 1330 546 , 1345 545 
Q 1361 545 , 1387 545 
Q 1398 545 , 1407 545 
Q 1417 545 , 1427 545 
L 1427 546 
Q 1414 545 , 1406 545 
Q 1397 545 , 1388 545 
Q 1367 545 , 1356 546 
Q 1346 546 , 1346 546 
Q 1346 547 , 1356 547 
Q 1367 547 , 1388 547 
Q 1397 547 , 1404 547 
Q 1411 547 , 1414 547 
" fill="#F5C000" />
<path d="M 65 55 L 65 555 " stroke="black" stroke-width="1.5"/>
<path d="M 55 555 L 65 555 " stroke="black" stroke-width="4"/>
<text text-anchor="end" x="50" y="555" font-size="50" alignment-baseline="middle">0</text>
<path d="M 55 305 L 65 305 " stroke="black" stroke-width="4"/>
<text text-anchor="end" x="50" y="305" font-size="50" alignment-baseline="middle">1</text>
<path d="M 55 55 L 65 55 " stroke="black" stroke-width="4"/>
<text text-anchor="end" x="50" y="55" font-size="50" alignment-baseline="middle">2</text>
<text text-anchor="middle" x="750" y="50" font-size="50" alignment-baseline="baseline"></text>
G<path d="
M 160 582 
L 126 595 
L 160 608 
L 157 611 
L 123 598 
L 123 623 
L 117 623 
L 117 599 
L 83 611 
L 80 608 
L 114 595 
L 80 582 
L 83 579 
L 117 591 
L 117 567 
L 123 567 
L 123 591 
L 157 579 
L 160 582 
" fill="black" />
<path d="
" fill="black" />
<path d="
M 211 567 
L 238 567 
L 238 623 
L 211 623 
L 211 567 
" fill="black" />
<path d="
" fill="black" />
<path d="
" fill="black" />
<path d="
M 316 567 
L 343 567 
L 343 623 
L 316 623 
L 316 567 
" fill="black" />
<path d="
" fill="black" />
<path d="
" fill="black" />
<path d="
M 421 567 
L 448 567 
L 448 623 
L 421 623 
L 421 567 
" fill="black" />
<path d="
" fill="black" />
<path d="
" fill="black" />
<path d="
M 526 567 
L 553 567 
L 553 623 
L 526 623 
L 526 567 
" fill="black" />
<path d="
" fill="black" />
<path d="
" fill="black" />
<path d="
M 617 567 
L 633 567 
L 633 623 
L 617 623 
L 617 567 
" fill="black" />
<path d="
" fill="black" />
<path d="
M 669 593 
Q 671 594 , 672 597 
Q 673 601 , 673 606 
Q 673 614 , 671 618 
Q 669 623 , 664 623 
Q 662 623 , 661 622 
Q 659 621 , 657 619 
L 657 613 
Q 659 617 , 660 618 
Q 662 619 , 664 619 
Q 667 619 , 669 616 
Q 671 613 , 671 606 
Q 671 601 , 669 598 
Q 668 595 , 664 595 
L 661 595 
L 661 591 
L 665 591 
Q 667 591 , 669 589 
Q 670 586 , 670 582 
Q 670 577 , 669 574 
Q 667 571 , 664 571 
Q 663 571 , 661 572 
Q 660 573 , 658 575 
L 658 571 
Q 660 569 , 662 568 
Q 663 567 , 665 567 
Q 669 567 , 671 571 
Q 672 575 , 672 581 
Q 672 586 , 671 589 
Q 671 592 , 669 593 
" fill="black" />
<path d="
M 679 619 
L 685 619 
L 685 572 
L 677 578 
L 677 573 
L 685 567 
L 687 567 
L 687 619 
L 693 619 
L 693 623 
L 679 623 
L 679 619 
" fill="black" />
<path d="
M 790 582 
L 756 595 
L 790 608 
L 787 611 
L 753 598 
L 753 623 
L 747 623 
L 747 599 
L 713 611 
L 710 608 
L 744 595 
L 710 582 
L 713 579 
L 747 591 
L 747 567 
L 753 567 
L 753 591 
L 787 579 
L 790 582 
" fill="black" />
<path d="
" fill="black" />
<path d="
M 841 567 
L 868 567 
L 868 623 
L 841 623 
L 841 567 
" fill="black" />
<path d="
" fill="black" />
<path d="
" fill="black" />
<path d="
M 946 567 
L 973 567 
L 973 623 
L 946 623 
L 946 567 
" fill="black" />
<path d="
" fill="black" />
<path d="
" fill="black" />
<path d="
M 1051 567 
L 1078 567 
L 1078 623 
L 1051 623 
L 1051 567 
" fill="black" />
<path d="
" fill="black" />
<path d="
" fill="black" />
<path d="
M 1156 567 
L 1183 567 
L 1183 623 
L 1156 623 
L 1156 567 
" fill="black" />
<path d="
" fill="black" />
<path d="
" fill="black" />
<path d="
M 1261 567 
L 1288 567 
L 1288 623 
L 1261 623 
L 1261 567 
" fill="black" />
<path d="
" fill="black" />
<path d="
M 1420 582 
L 1386 595 
L 1420 608 
L 1417 611 
L 1383 598 
L 1383 623 
L 1377 623 
L 1377 599 
L 1343 611 
L 1340 608 
L 1374 595 
L 1340 582 
L 1343 579 
L 1377 591 
L 1377 567 
L 1383 567 
L 1383 591 
L 1417 579 
L 1420 582 
" fill="black" />
</svg>
