<svg xmlns="http://www.w3.org/2000/svg"
viewBox="0 0 1435 635">
<path d="
M 170 553 
L 170 553 
Q 155 553 , 147 553 
Q 139 553 , 129 553 
Q 108 553 , 98 553 
Q 86 553 , 86 553 
Q 86 554 , 98 554 
Q 108 554 , 129 554 
Q 139 554 , 147 554 
Q 155 554 , 170 554 
L 170 554 
Q 159 554 , 149 554 
Q 139 554 , 128 554 
Q 101 554 , 86 554 
Q 70 554 , 70 554 
Q 70 553 , 86 553 
Q 101 553 , 128 553 
Q 139 553 , 149 553 
Q 160 553 , 170 553 
" fill="#545FFF" />
<path d="
M 70 551 
L 88 551 
L 88 552 
Q 88 552 , 96 552 
Q 103 552 , 120 552 
Q 137 552 , 145 552 
Q 152 552 , 152 552 
L 152 551 
L 170 551 
L 170 552 
Q 170 552 , 157 552 
Q 145 553 , 120 553 
Q 96 553 , 83 552 
Q 70 552 , 70 552 
L 70 551 
" fill="#D21010" />
<path d="
M 120 549 
L 102 550 
L 136 550 
L 120 549 
M 113 549 
L 127 549 
L 170 551 
L 154 551 
L 142 550 
L 98 550 
L 85 551 
L 70 551 
L 113 549 
" fill="#339541" />
<path d="
M 154 548 
L 154 547 
L 125 547 
L 125 547 
L 170 547 
L 170 548 
Q 159 548 , 148 548 
Q 139 548 , 127 548 
Q 101 548 , 85 548 
Q 70 548 , 70 547 
Q 70 547 , 85 546 
Q 101 546 , 127 546 
Q 138 546 , 147 546 
Q 157 546 , 167 546 
L 167 547 
Q 154 546 , 146 546 
Q 137 546 , 128 546 
Q 107 546 , 96 547 
Q 86 547 , 86 547 
Q 86 548 , 96 548 
Q 107 548 , 128 548 
Q 137 548 , 144 548 
Q 151 548 , 154 548 
" fill="#F5C000" />
<path d="
M 275 548 
L 275 549 
Q 260 548 , 252 548 
Q 244 548 , 234 548 
Q 213 548 , 203 549 
Q 191 549 , 191 551 
Q 191 553 , 203 553 
Q 213 554 , 234 554 
Q 244 554 , 252 554 
Q 260 554 , 275 553 
L 275 554 
Q 264 555 , 254 555 
Q 244 555 , 233 555 
Q 206 555 , 191 554 
Q 175 553 , 175 551 
Q 175 549 , 191 548 
Q 206 547 , 233 547 
Q 244 547 , 254 547 
Q 265 547 , 275 548 
" fill="#545FFF" />
<path d="
M 225 539 
L 207 543 
L 241 543 
L 225 539 
M 218 537 
L 232 537 
L 275 547 
L 259 547 
L 247 544 
L 203 544 
L 190 547 
L 175 547 
L 218 537 
" fill="#339541" />
<path d="
M 175 513 
L 193 513 
L 193 527 
Q 193 530 , 201 532 
Q 208 534 , 225 534 
Q 242 534 , 250 532 
Q 257 530 , 257 527 
L 257 513 
L 275 513 
L 275 527 
Q 275 531 , 262 534 
Q 250 536 , 225 536 
Q 201 536 , 188 534 
Q 175 531 , 175 527 
L 175 513 
" fill="#D21010" />
<path d="
M 259 496 
L 259 466 
L 230 466 
L 230 453 
L 275 453 
L 275 504 
Q 264 508 , 253 510 
Q 244 512 , 232 512 
Q 206 512 , 190 497 
Q 175 482 , 175 456 
Q 175 429 , 190 414 
Q 206 399 , 232 399 
Q 243 399 , 252 401 
Q 262 403 , 272 408 
L 272 423 
Q 259 416 , 251 414 
Q 242 413 , 233 413 
Q 212 413 , 201 423 
Q 191 434 , 191 456 
Q 191 478 , 201 489 
Q 212 500 , 233 500 
Q 242 500 , 249 499 
Q 256 497 , 259 496 
" fill="#F5C000" />
<path d="
M 380 550 
L 380 551 
Q 365 551 , 357 551 
Q 349 551 , 339 551 
Q 318 551 , 308 551 
Q 296 551 , 296 552 
Q 296 553 , 308 554 
Q 318 554 , 339 554 
Q 349 554 , 357 554 
Q 365 554 , 380 553 
L 380 554 
Q 369 554 , 359 555 
Q 349 555 , 338 555 
Q 311 555 , 296 554 
Q 280 553 , 280 552 
Q 280 551 , 296 551 
Q 311 550 , 338 550 
Q 349 550 , 359 550 
Q 370 550 , 380 550 
" fill="#545FFF" />
<path d="
M 280 543 
L 298 543 
L 298 547 
Q 298 548 , 306 549 
Q 313 549 , 330 549 
Q 347 549 , 355 549 
Q 362 548 , 362 547 
L 362 543 
L 380 543 
L 380 547 
Q 380 549 , 367 549 
Q 355 550 , 330 550 
Q 306 550 , 293 549 
Q 280 549 , 280 547 
L 280 543 
" fill="#D21010" />
<path d="
M 330 518 
L 312 531 
L 346 531 
L 330 518 
M 323 513 
L 337 513 
L 380 543 
L 364 543 
L 352 534 
L 308 534 
L 295 543 
L 280 543 
L 323 513 
" fill="#339541" />
<path d="
M 364 507 
L 364 497 
L 335 497 
L 335 493 
L 380 493 
L 380 510 
Q 369 511 , 358 512 
Q 349 512 , 337 512 
Q 311 512 , 295 507 
Q 280 503 , 280 494 
Q 280 486 , 295 481 
Q 311 476 , 337 476 
Q 348 476 , 357 477 
Q 367 477 , 377 479 
L 377 484 
Q 364 482 , 356 481 
Q 347 480 , 338 480 
Q 317 480 , 306 484 
Q 296 487 , 296 494 
Q 296 501 , 306 505 
Q 317 508 , 338 508 
Q 347 508 , 354 508 
Q 361 508 , 364 507 
" fill="#F5C000" />
<path d="
M 485 553 
L 485 553 
Q 470 553 , 462 553 
Q 454 553 , 444 553 
Q 423 553 , 413 553 
Q 401 554 , 401 554 
Q 401 554 , 413 554 
Q 423 554 , 444 554 
Q 454 554 , 462 554 
Q 470 554 , 485 554 
L 485 554 
Q 474 555 , 464 555 
Q 454 555 , 443 555 
Q 416 555 , 401 554 
Q 385 554 , 385 554 
Q 385 553 , 401 553 
Q 416 553 , 443 553 
Q 454 553 , 464 553 
Q 475 553 , 485 553 
" fill="#545FFF" />
<path d="
M 385 539 
L 403 539 
L 403 547 
Q 403 549 , 411 550 
Q 418 551 , 435 551 
Q 452 551 , 460 550 
Q 467 549 , 467 547 
L 467 539 
L 485 539 
L 485 547 
Q 485 550 , 472 551 
Q 460 553 , 435 553 
Q 411 553 , 398 551 
Q 385 550 , 385 547 
L 385 539 
" fill="#D21010" />
<path d="
M 435 515 
L 417 527 
L 451 527 
L 435 515 
M 428 510 
L 442 510 
L 485 539 
L 469 539 
L 457 530 
L 413 530 
L 400 539 
L 385 539 
L 428 510 
" fill="#339541" />
<path d="
M 469 502 
L 469 488 
L 440 488 
L 440 482 
L 485 482 
L 485 506 
Q 474 508 , 463 509 
Q 454 510 , 442 510 
Q 416 510 , 400 503 
Q 385 496 , 385 483 
Q 385 471 , 400 464 
Q 416 457 , 442 457 
Q 453 457 , 462 458 
Q 472 459 , 482 461 
L 482 468 
Q 469 465 , 461 464 
Q 452 463 , 443 463 
Q 422 463 , 411 468 
Q 401 473 , 401 483 
Q 401 494 , 411 499 
Q 422 504 , 443 504 
Q 452 504 , 459 503 
Q 466 503 , 469 502 
" fill="#F5C000" />
<path d="
M 540 550 
L 540 550 
Q 533 550 , 529 550 
Q 524 550 , 519 550 
Q 509 550 , 504 550 
Q 498 551 , 498 552 
Q 498 553 , 504 553 
Q 509 554 , 519 554 
Q 524 554 , 529 554 
Q 533 553 , 540 553 
L 540 554 
Q 535 554 , 529 554 
Q 525 554 , 519 554 
Q 505 554 , 498 554 
Q 490 553 , 490 552 
Q 490 550 , 498 550 
Q 505 549 , 519 549 
Q 525 549 , 530 549 
Q 535 549 , 540 550 
" fill="#545FFF" />
<path d="
M 582 554 
L 582 552 
L 568 552 
L 568 552 
L 590 552 
L 590 554 
Q 585 554 , 579 554 
Q 574 554 , 568 554 
Q 555 554 , 548 554 
Q 540 553 , 540 552 
Q 540 550 , 548 550 
Q 555 549 , 568 549 
Q 574 549 , 579 549 
Q 584 549 , 589 549 
L 589 550 
Q 582 550 , 578 550 
Q 574 550 , 569 550 
Q 559 550 , 553 550 
Q 548 551 , 548 552 
Q 548 553 , 553 553 
Q 559 554 , 569 554 
Q 574 554 , 577 554 
Q 581 554 , 582 554 
" fill="lightgray" />
<path d="
M 490 543 
L 499 543 
L 499 546 
Q 499 547 , 503 548 
Q 506 548 , 515 548 
Q 524 548 , 527 548 
Q 531 547 , 531 546 
L 531 543 
L 540 543 
L 540 547 
Q 540 548 , 534 548 
Q 527 549 , 515 549 
Q 503 549 , 496 548 
Q 490 548 , 490 547 
L 490 543 
" fill="#D21010" />
<path d="
M 582 548 
L 582 546 
L 568 546 
L 568 546 
L 590 546 
L 590 548 
Q 585 549 , 579 549 
Q 574 549 , 568 549 
Q 555 549 , 548 548 
Q 540 547 , 540 546 
Q 540 545 , 548 544 
Q 555 543 , 568 543 
Q 574 543 , 579 543 
Q 584 543 , 589 543 
L 589 544 
Q 582 544 , 578 544 
Q 574 544 , 569 544 
Q 559 544 , 553 544 
Q 548 545 , 548 546 
Q 548 547 , 553 548 
Q 559 548 , 569 548 
Q 574 548 , 577 548 
Q 581 548 , 582 548 
" fill="lightgray" />
<path d="
M 490 537 
L 499 537 
L 499 541 
Q 499 542 , 503 542 
Q 506 542 , 515 542 
Q 524 542 , 527 542 
Q 531 542 , 531 541 
L 531 537 
L 540 537 
L 540 541 
Q 540 542 , 534 542 
Q 527 543 , 515 543 
Q 503 543 , 496 542 
Q 490 542 , 490 541 
L 490 537 
" fill="#D21010" />
<path d="
M 565 538 
L 556 541 
L 573 541 
L 565 538 
M 561 537 
L 569 537 
L 590 543 
L 582 543 
L 576 541 
L 554 541 
L 547 543 
L 540 543 
L 561 537 
" fill="lightgray" />
<path d="
M 532 536 
L 532 533 
L 518 533 
L 518 532 
L 540 532 
L 540 536 
Q 535 537 , 529 537 
Q 524 537 , 518 537 
Q 505 537 , 498 536 
Q 490 535 , 490 532 
Q 490 530 , 498 529 
Q 505 528 , 518 528 
Q 524 528 , 529 528 
Q 534 528 , 539 529 
L 539 530 
Q 532 529 , 528 529 
Q 524 529 , 519 529 
Q 509 529 , 503 530 
Q 498 531 , 498 532 
Q 498 534 , 503 535 
Q 509 536 , 519 536 
Q 524 536 , 527 536 
Q 531 536 , 532 536 
" fill="#F5C000" />
<path d="
M 540 528 
L 549 528 
L 549 533 
Q 549 535 , 553 535 
Q 556 536 , 565 536 
Q 574 536 , 577 535 
Q 581 535 , 581 533 
L 581 528 
L 590 528 
L 590 533 
Q 590 535 , 584 536 
Q 577 537 , 565 537 
Q 553 537 , 546 536 
Q 540 535 , 540 533 
L 540 528 
" fill="lightgray" />
<path d="
M 532 521 
L 532 508 
L 518 508 
L 518 502 
L 540 502 
L 540 524 
Q 535 526 , 529 527 
Q 524 527 , 518 527 
Q 505 527 , 498 521 
Q 490 515 , 490 503 
Q 490 492 , 498 485 
Q 505 479 , 518 479 
Q 524 479 , 529 480 
Q 534 481 , 539 483 
L 539 489 
Q 532 486 , 528 486 
Q 524 485 , 519 485 
Q 509 485 , 503 489 
Q 498 494 , 498 503 
Q 498 513 , 503 517 
Q 509 522 , 519 522 
Q 524 522 , 527 522 
Q 531 521 , 532 521 
" fill="#F5C000" />
<path d="
M 590 484 
L 590 492 
Q 583 487 , 579 486 
Q 574 484 , 569 484 
Q 559 484 , 554 489 
Q 548 494 , 548 503 
Q 548 513 , 554 517 
Q 559 522 , 569 522 
Q 574 522 , 579 521 
Q 583 520 , 590 515 
L 590 523 
Q 585 525 , 579 526 
Q 575 527 , 569 527 
Q 555 527 , 548 521 
Q 540 514 , 540 503 
Q 540 492 , 548 486 
Q 555 479 , 569 479 
Q 575 479 , 580 480 
Q 585 481 , 590 484 
" fill="lightgray" />
<path d="
M 515 437 
L 506 458 
L 523 458 
L 515 437 
M 511 428 
L 519 428 
L 540 479 
L 532 479 
L 526 464 
L 504 464 
L 497 479 
L 490 479 
L 511 428 
" fill="#339541" />
<path d="
M 540 428 
L 549 428 
L 549 458 
Q 549 466 , 553 470 
Q 556 473 , 565 473 
Q 574 473 , 577 470 
Q 581 466 , 581 458 
L 581 428 
L 590 428 
L 590 459 
Q 590 469 , 584 474 
Q 577 479 , 565 479 
Q 553 479 , 546 474 
Q 540 469 , 540 459 
L 540 428 
" fill="lightgray" />
<path d="
M 620 553 
L 611 554 
L 628 554 
L 620 553 
M 616 553 
L 624 553 
L 645 555 
L 637 555 
L 631 554 
L 609 554 
L 602 555 
L 595 555 
L 616 553 
" fill="#339541" />
<path d="
M 645 553 
L 654 553 
L 654 554 
Q 654 555 , 658 555 
Q 661 555 , 670 555 
Q 679 555 , 682 555 
Q 686 555 , 686 554 
L 686 553 
L 695 553 
L 695 554 
Q 695 555 , 689 555 
Q 682 555 , 670 555 
Q 658 555 , 651 555 
Q 645 555 , 645 554 
L 645 553 
" fill="lightgray" />
<path d="
M 637 551 
L 637 550 
L 623 550 
L 623 549 
L 645 549 
L 645 552 
Q 640 552 , 634 552 
Q 629 552 , 623 552 
Q 610 552 , 603 551 
Q 595 551 , 595 550 
Q 595 548 , 603 548 
Q 610 547 , 623 547 
Q 629 547 , 634 547 
Q 639 547 , 644 547 
L 644 548 
Q 637 548 , 633 548 
Q 629 548 , 624 548 
Q 614 548 , 608 548 
Q 603 549 , 603 550 
Q 603 551 , 608 551 
Q 614 552 , 624 552 
Q 629 552 , 632 551 
Q 636 551 , 637 551 
" fill="#F5C000" />
<path d="
M 645 547 
L 654 547 
L 654 550 
Q 654 551 , 658 551 
Q 661 552 , 670 552 
Q 679 552 , 682 551 
Q 686 551 , 686 550 
L 686 547 
L 695 547 
L 695 550 
Q 695 551 , 689 552 
Q 682 552 , 670 552 
Q 658 552 , 651 552 
Q 645 551 , 645 550 
L 645 547 
" fill="lightgray" />
<path d="
M 645 542 
L 645 542 
Q 638 542 , 634 542 
Q 629 542 , 624 542 
Q 614 542 , 609 542 
Q 603 543 , 603 544 
Q 603 545 , 609 545 
Q 614 546 , 624 546 
Q 629 546 , 634 546 
Q 638 545 , 645 545 
L 645 546 
Q 640 546 , 634 546 
Q 630 546 , 624 546 
Q 610 546 , 603 546 
Q 595 545 , 595 544 
Q 595 542 , 603 542 
Q 610 541 , 624 541 
Q 630 541 , 635 541 
Q 640 541 , 645 542 
" fill="#545FFF" />
<path d="
M 687 546 
L 687 544 
L 673 544 
L 673 544 
L 695 544 
L 695 546 
Q 690 546 , 684 546 
Q 679 546 , 673 546 
Q 660 546 , 653 546 
Q 645 545 , 645 544 
Q 645 542 , 653 542 
Q 660 541 , 673 541 
Q 679 541 , 684 541 
Q 689 541 , 694 541 
L 694 542 
Q 687 542 , 683 542 
Q 679 542 , 674 542 
Q 664 542 , 658 542 
Q 653 543 , 653 544 
Q 653 545 , 658 545 
Q 664 546 , 674 546 
Q 679 546 , 682 546 
Q 686 546 , 687 546 
" fill="lightgray" />
<path d="
M 637 540 
L 637 538 
L 623 538 
L 623 538 
L 645 538 
L 645 540 
Q 640 540 , 634 541 
Q 629 541 , 623 541 
Q 610 541 , 603 540 
Q 595 539 , 595 538 
Q 595 537 , 603 536 
Q 610 535 , 623 535 
Q 629 535 , 634 535 
Q 639 535 , 644 535 
L 644 536 
Q 637 536 , 633 536 
Q 629 536 , 624 536 
Q 614 536 , 608 536 
Q 603 537 , 603 538 
Q 603 539 , 608 539 
Q 614 540 , 624 540 
Q 629 540 , 632 540 
Q 636 540 , 637 540 
" fill="#F5C000" />
<path d="
M 695 536 
L 695 536 
Q 688 536 , 684 536 
Q 679 536 , 674 536 
Q 664 536 , 659 536 
Q 653 537 , 653 538 
Q 653 539 , 659 539 
Q 664 540 , 674 540 
Q 679 540 , 684 540 
Q 688 540 , 695 539 
L 695 540 
Q 690 540 , 684 541 
Q 680 541 , 674 541 
Q 660 541 , 653 540 
Q 645 539 , 645 538 
Q 645 537 , 653 536 
Q 660 535 , 674 535 
Q 680 535 , 685 535 
Q 690 535 , 695 536 
" fill="lightgray" />
<path d="
M 595 523 
L 604 523 
L 604 530 
Q 604 532 , 608 533 
Q 611 533 , 620 533 
Q 629 533 , 632 533 
Q 636 532 , 636 530 
L 636 523 
L 645 523 
L 645 530 
Q 645 532 , 639 534 
Q 632 535 , 620 535 
Q 608 535 , 601 534 
Q 595 532 , 595 530 
L 595 523 
" fill="#D21010" />
<path d="
M 687 533 
L 687 530 
L 673 530 
L 673 529 
L 695 529 
L 695 534 
Q 690 534 , 684 534 
Q 679 535 , 673 535 
Q 660 535 , 653 533 
Q 645 532 , 645 529 
Q 645 526 , 653 525 
Q 660 523 , 673 523 
Q 679 523 , 684 523 
Q 689 523 , 694 524 
L 694 525 
Q 687 525 , 683 525 
Q 679 524 , 674 524 
Q 664 524 , 658 525 
Q 653 527 , 653 529 
Q 653 531 , 658 532 
Q 664 533 , 674 533 
Q 679 533 , 682 533 
Q 686 533 , 687 533 
" fill="lightgray" />
<path d="
M 595 509 
L 604 509 
L 604 517 
Q 604 519 , 608 520 
Q 611 521 , 620 521 
Q 629 521 , 632 520 
Q 636 519 , 636 517 
L 636 509 
L 645 509 
L 645 517 
Q 645 519 , 639 521 
Q 632 522 , 620 522 
Q 608 522 , 601 521 
Q 595 519 , 595 517 
L 595 509 
" fill="#D21010" />
<path d="
M 670 511 
L 661 517 
L 678 517 
L 670 511 
M 666 509 
L 674 509 
L 695 522 
L 687 522 
L 681 518 
L 659 518 
L 652 522 
L 645 522 
L 666 509 
" fill="lightgray" />
<path d="
M 800 553 
L 800 553 
Q 785 553 , 777 553 
Q 769 553 , 759 553 
Q 738 553 , 728 553 
Q 716 553 , 716 553 
Q 716 554 , 728 554 
Q 738 554 , 759 554 
Q 769 554 , 777 554 
Q 785 554 , 800 554 
L 800 554 
Q 789 554 , 779 554 
Q 769 554 , 758 554 
Q 731 554 , 716 554 
Q 700 554 , 700 554 
Q 700 553 , 716 553 
Q 731 553 , 758 553 
Q 769 553 , 779 553 
Q 790 553 , 800 553 
" fill="#545FFF" />
<path d="
M 700 551 
L 718 551 
L 718 552 
Q 718 552 , 726 552 
Q 733 552 , 750 552 
Q 767 552 , 775 552 
Q 782 552 , 782 552 
L 782 551 
L 800 551 
L 800 552 
Q 800 552 , 787 552 
Q 775 553 , 750 553 
Q 726 553 , 713 552 
Q 700 552 , 700 552 
L 700 551 
" fill="#D21010" />
<path d="
M 750 549 
L 732 550 
L 766 550 
L 750 549 
M 743 549 
L 757 549 
L 800 551 
L 784 551 
L 772 550 
L 728 550 
L 715 551 
L 700 551 
L 743 549 
" fill="#339541" />
<path d="
M 784 548 
L 784 547 
L 755 547 
L 755 547 
L 800 547 
L 800 548 
Q 789 548 , 778 548 
Q 769 548 , 757 548 
Q 731 548 , 715 548 
Q 700 548 , 700 547 
Q 700 547 , 715 546 
Q 731 546 , 757 546 
Q 768 546 , 777 546 
Q 787 546 , 797 546 
L 797 547 
Q 784 546 , 776 546 
Q 767 546 , 758 546 
Q 737 546 , 726 547 
Q 716 547 , 716 547 
Q 716 548 , 726 548 
Q 737 548 , 758 548 
Q 767 548 , 774 548 
Q 781 548 , 784 548 
" fill="#F5C000" />
<path d="
M 905 553 
L 905 553 
Q 890 553 , 882 553 
Q 874 553 , 864 553 
Q 843 553 , 833 553 
Q 821 553 , 821 553 
Q 821 554 , 833 554 
Q 843 554 , 864 554 
Q 874 554 , 882 554 
Q 890 554 , 905 554 
L 905 554 
Q 894 555 , 884 555 
Q 874 555 , 863 555 
Q 836 555 , 821 554 
Q 805 554 , 805 554 
Q 805 553 , 821 553 
Q 836 553 , 863 553 
Q 874 553 , 884 553 
Q 895 553 , 905 553 
" fill="#545FFF" />
<path d="
M 805 533 
L 823 533 
L 823 545 
Q 823 548 , 831 549 
Q 838 551 , 855 551 
Q 872 551 , 880 549 
Q 887 548 , 887 545 
L 887 533 
L 905 533 
L 905 545 
Q 905 549 , 892 551 
Q 880 553 , 855 553 
Q 831 553 , 818 551 
Q 805 549 , 805 545 
L 805 533 
" fill="#D21010" />
<path d="
M 855 516 
L 837 524 
L 871 524 
L 855 516 
M 848 512 
L 862 512 
L 905 533 
L 889 533 
L 877 527 
L 833 527 
L 820 533 
L 805 533 
L 848 512 
" fill="#339541" />
<path d="
M 889 502 
L 889 486 
L 860 486 
L 860 479 
L 905 479 
L 905 507 
Q 894 509 , 883 510 
Q 874 511 , 862 511 
Q 836 511 , 820 503 
Q 805 495 , 805 481 
Q 805 466 , 820 458 
Q 836 450 , 862 450 
Q 873 450 , 882 451 
Q 892 452 , 902 455 
L 902 463 
Q 889 459 , 881 458 
Q 872 457 , 863 457 
Q 842 457 , 831 463 
Q 821 469 , 821 481 
Q 821 493 , 831 499 
Q 842 504 , 863 504 
Q 872 504 , 879 504 
Q 886 503 , 889 502 
" fill="#F5C000" />
<path d="
M 1010 553 
L 1010 553 
Q 995 553 , 987 553 
Q 979 553 , 969 553 
Q 948 553 , 938 553 
Q 926 554 , 926 554 
Q 926 554 , 938 555 
Q 948 555 , 969 555 
Q 979 555 , 987 555 
Q 995 555 , 1010 554 
L 1010 555 
Q 999 555 , 989 555 
Q 979 555 , 968 555 
Q 941 555 , 926 555 
Q 910 554 , 910 554 
Q 910 554 , 926 553 
Q 941 553 , 968 553 
Q 979 553 , 989 553 
Q 1000 553 , 1010 553 
" fill="#545FFF" />
<path d="
M 910 539 
L 928 539 
L 928 547 
Q 928 549 , 936 550 
Q 943 551 , 960 551 
Q 977 551 , 985 550 
Q 992 549 , 992 547 
L 992 539 
L 1010 539 
L 1010 547 
Q 1010 549 , 997 551 
Q 985 552 , 960 552 
Q 936 552 , 923 551 
Q 910 549 , 910 547 
L 910 539 
" fill="#D21010" />
<path d="
M 960 513 
L 942 526 
L 976 526 
L 960 513 
M 953 507 
L 967 507 
L 1010 538 
L 994 538 
L 982 529 
L 938 529 
L 925 538 
L 910 538 
L 953 507 
" fill="#339541" />
<path d="
M 994 494 
L 994 472 
L 965 472 
L 965 463 
L 1010 463 
L 1010 500 
Q 999 503 , 988 505 
Q 979 506 , 967 506 
Q 941 506 , 925 495 
Q 910 484 , 910 465 
Q 910 445 , 925 434 
Q 941 423 , 967 423 
Q 978 423 , 987 424 
Q 997 426 , 1007 430 
L 1007 440 
Q 994 436 , 986 434 
Q 977 433 , 968 433 
Q 947 433 , 936 441 
Q 926 449 , 926 465 
Q 926 481 , 936 489 
Q 947 497 , 968 497 
Q 977 497 , 984 496 
Q 991 495 , 994 494 
" fill="#F5C000" />
<path d="
M 1115 550 
L 1115 551 
Q 1100 551 , 1092 551 
Q 1084 550 , 1074 550 
Q 1053 550 , 1043 551 
Q 1031 551 , 1031 552 
Q 1031 553 , 1043 553 
Q 1053 554 , 1074 554 
Q 1084 554 , 1092 554 
Q 1100 553 , 1115 553 
L 1115 554 
Q 1104 554 , 1094 554 
Q 1084 554 , 1073 554 
Q 1046 554 , 1031 554 
Q 1015 553 , 1015 552 
Q 1015 551 , 1031 551 
Q 1046 550 , 1073 550 
Q 1084 550 , 1094 550 
Q 1105 550 , 1115 550 
" fill="#545FFF" />
<path d="
M 1015 539 
L 1033 539 
L 1033 545 
Q 1033 547 , 1041 547 
Q 1048 548 , 1065 548 
Q 1082 548 , 1090 547 
Q 1097 547 , 1097 545 
L 1097 539 
L 1115 539 
L 1115 545 
Q 1115 547 , 1102 548 
Q 1090 549 , 1065 549 
Q 1041 549 , 1028 548 
Q 1015 547 , 1015 545 
L 1015 539 
" fill="#D21010" />
<path d="
M 1065 519 
L 1047 529 
L 1081 529 
L 1065 519 
M 1058 514 
L 1072 514 
L 1115 539 
L 1099 539 
L 1087 532 
L 1043 532 
L 1030 539 
L 1015 539 
L 1058 514 
" fill="#339541" />
<path d="
M 1099 506 
L 1099 491 
L 1070 491 
L 1070 486 
L 1115 486 
L 1115 509 
Q 1104 512 , 1093 513 
Q 1084 513 , 1072 514 
Q 1046 514 , 1030 506 
Q 1015 499 , 1015 487 
Q 1015 474 , 1030 467 
Q 1046 460 , 1072 460 
Q 1083 460 , 1092 461 
Q 1102 462 , 1112 464 
L 1112 471 
Q 1099 468 , 1091 467 
Q 1082 466 , 1073 466 
Q 1052 466 , 1041 471 
Q 1031 476 , 1031 487 
Q 1031 497 , 1041 502 
Q 1052 508 , 1073 508 
Q 1082 508 , 1089 507 
Q 1096 506 , 1099 506 
" fill="#F5C000" />
<path d="
M 1145 553 
L 1136 554 
L 1153 554 
L 1145 553 
M 1141 553 
L 1149 553 
L 1170 555 
L 1162 555 
L 1156 554 
L 1134 554 
L 1127 555 
L 1120 555 
L 1141 553 
" fill="lightgray" />
<path d="
M 1170 553 
L 1179 553 
L 1179 554 
Q 1179 555 , 1183 555 
Q 1186 555 , 1195 555 
Q 1204 555 , 1207 555 
Q 1211 555 , 1211 554 
L 1211 553 
L 1220 553 
L 1220 554 
Q 1220 555 , 1214 555 
Q 1207 555 , 1195 555 
Q 1183 555 , 1176 555 
Q 1170 555 , 1170 554 
L 1170 553 
" fill="#D21010" />
<path d="
M 1162 551 
L 1162 550 
L 1148 550 
L 1148 549 
L 1170 549 
L 1170 552 
Q 1165 552 , 1159 552 
Q 1154 552 , 1148 552 
Q 1135 552 , 1128 551 
Q 1120 551 , 1120 550 
Q 1120 548 , 1128 548 
Q 1135 547 , 1148 547 
Q 1154 547 , 1159 547 
Q 1164 547 , 1169 547 
L 1169 548 
Q 1162 548 , 1158 548 
Q 1154 548 , 1149 548 
Q 1139 548 , 1133 548 
Q 1128 549 , 1128 550 
Q 1128 551 , 1133 551 
Q 1139 552 , 1149 552 
Q 1154 552 , 1157 551 
Q 1161 551 , 1162 551 
" fill="lightgray" />
<path d="
M 1170 547 
L 1179 547 
L 1179 550 
Q 1179 551 , 1183 551 
Q 1186 552 , 1195 552 
Q 1204 552 , 1207 551 
Q 1211 551 , 1211 550 
L 1211 547 
L 1220 547 
L 1220 550 
Q 1220 551 , 1214 552 
Q 1207 552 , 1195 552 
Q 1183 552 , 1176 552 
Q 1170 551 , 1170 550 
L 1170 547 
" fill="#D21010" />
<path d="
M 1170 542 
L 1170 542 
Q 1163 542 , 1159 542 
Q 1154 542 , 1149 542 
Q 1139 542 , 1134 542 
Q 1128 543 , 1128 544 
Q 1128 545 , 1134 545 
Q 1139 546 , 1149 546 
Q 1154 546 , 1159 546 
Q 1163 545 , 1170 545 
L 1170 546 
Q 1165 546 , 1159 546 
Q 1155 546 , 1149 546 
Q 1135 546 , 1128 546 
Q 1120 545 , 1120 544 
Q 1120 542 , 1128 542 
Q 1135 541 , 1149 541 
Q 1155 541 , 1160 541 
Q 1165 541 , 1170 542 
" fill="lightgray" />
<path d="
M 1212 546 
L 1212 544 
L 1198 544 
L 1198 544 
L 1220 544 
L 1220 546 
Q 1215 546 , 1209 546 
Q 1204 546 , 1198 546 
Q 1185 546 , 1178 546 
Q 1170 545 , 1170 544 
Q 1170 542 , 1178 542 
Q 1185 541 , 1198 541 
Q 1204 541 , 1209 541 
Q 1214 541 , 1219 541 
L 1219 542 
Q 1212 542 , 1208 542 
Q 1204 542 , 1199 542 
Q 1189 542 , 1183 542 
Q 1178 543 , 1178 544 
Q 1178 545 , 1183 545 
Q 1189 546 , 1199 546 
Q 1204 546 , 1207 546 
Q 1211 546 , 1212 546 
" fill="#F5C000" />
<path d="
M 1162 540 
L 1162 538 
L 1148 538 
L 1148 538 
L 1170 538 
L 1170 540 
Q 1165 540 , 1159 541 
Q 1154 541 , 1148 541 
Q 1135 541 , 1128 540 
Q 1120 539 , 1120 538 
Q 1120 537 , 1128 536 
Q 1135 535 , 1148 535 
Q 1154 535 , 1159 535 
Q 1164 535 , 1169 535 
L 1169 536 
Q 1162 536 , 1158 536 
Q 1154 536 , 1149 536 
Q 1139 536 , 1133 536 
Q 1128 537 , 1128 538 
Q 1128 539 , 1133 539 
Q 1139 540 , 1149 540 
Q 1154 540 , 1157 540 
Q 1161 540 , 1162 540 
" fill="lightgray" />
<path d="
M 1220 536 
L 1220 536 
Q 1213 536 , 1209 536 
Q 1204 536 , 1199 536 
Q 1189 536 , 1184 536 
Q 1178 537 , 1178 538 
Q 1178 539 , 1184 539 
Q 1189 540 , 1199 540 
Q 1204 540 , 1209 540 
Q 1213 540 , 1220 539 
L 1220 540 
Q 1215 540 , 1209 541 
Q 1205 541 , 1199 541 
Q 1185 541 , 1178 540 
Q 1170 539 , 1170 538 
Q 1170 537 , 1178 536 
Q 1185 535 , 1199 535 
Q 1205 535 , 1210 535 
Q 1215 535 , 1220 536 
" fill="#545FFF" />
<path d="
M 1120 523 
L 1129 523 
L 1129 530 
Q 1129 532 , 1133 533 
Q 1136 533 , 1145 533 
Q 1154 533 , 1157 533 
Q 1161 532 , 1161 530 
L 1161 523 
L 1170 523 
L 1170 530 
Q 1170 532 , 1164 534 
Q 1157 535 , 1145 535 
Q 1133 535 , 1126 534 
Q 1120 532 , 1120 530 
L 1120 523 
" fill="lightgray" />
<path d="
M 1212 533 
L 1212 530 
L 1198 530 
L 1198 529 
L 1220 529 
L 1220 534 
Q 1215 534 , 1209 534 
Q 1204 535 , 1198 535 
Q 1185 535 , 1178 533 
Q 1170 532 , 1170 529 
Q 1170 526 , 1178 525 
Q 1185 523 , 1198 523 
Q 1204 523 , 1209 523 
Q 1214 523 , 1219 524 
L 1219 525 
Q 1212 525 , 1208 525 
Q 1204 524 , 1199 524 
Q 1189 524 , 1183 525 
Q 1178 527 , 1178 529 
Q 1178 531 , 1183 532 
Q 1189 533 , 1199 533 
Q 1204 533 , 1207 533 
Q 1211 533 , 1212 533 
" fill="#F5C000" />
<path d="
M 1120 509 
L 1129 509 
L 1129 517 
Q 1129 519 , 1133 520 
Q 1136 521 , 1145 521 
Q 1154 521 , 1157 520 
Q 1161 519 , 1161 517 
L 1161 509 
L 1170 509 
L 1170 517 
Q 1170 519 , 1164 521 
Q 1157 522 , 1145 522 
Q 1133 522 , 1126 521 
Q 1120 519 , 1120 517 
L 1120 509 
" fill="lightgray" />
<path d="
M 1195 511 
L 1186 517 
L 1203 517 
L 1195 511 
M 1191 509 
L 1199 509 
L 1220 522 
L 1212 522 
L 1206 518 
L 1184 518 
L 1177 522 
L 1170 522 
L 1191 509 
" fill="#339541" />
<path d="
M 1275 550 
L 1275 550 
Q 1268 550 , 1264 550 
Q 1259 550 , 1254 550 
Q 1244 550 , 1239 550 
Q 1233 551 , 1233 552 
Q 1233 553 , 1239 553 
Q 1244 554 , 1254 554 
Q 1259 554 , 1264 554 
Q 1268 553 , 1275 553 
L 1275 554 
Q 1270 554 , 1264 554 
Q 1260 554 , 1254 554 
Q 1240 554 , 1233 554 
Q 1225 553 , 1225 552 
Q 1225 550 , 1233 550 
Q 1240 549 , 1254 549 
Q 1260 549 , 1265 549 
Q 1270 549 , 1275 550 
" fill="lightgray" />
<path d="
M 1317 554 
L 1317 552 
L 1303 552 
L 1303 552 
L 1325 552 
L 1325 554 
Q 1320 554 , 1314 554 
Q 1309 554 , 1303 554 
Q 1290 554 , 1283 554 
Q 1275 553 , 1275 552 
Q 1275 550 , 1283 550 
Q 1290 549 , 1303 549 
Q 1309 549 , 1314 549 
Q 1319 549 , 1324 549 
L 1324 550 
Q 1317 550 , 1313 550 
Q 1309 550 , 1304 550 
Q 1294 550 , 1288 550 
Q 1283 551 , 1283 552 
Q 1283 553 , 1288 553 
Q 1294 554 , 1304 554 
Q 1309 554 , 1312 554 
Q 1316 554 , 1317 554 
" fill="#F5C000" />
<path d="
M 1225 543 
L 1234 543 
L 1234 546 
Q 1234 547 , 1238 548 
Q 1241 548 , 1250 548 
Q 1259 548 , 1262 548 
Q 1266 547 , 1266 546 
L 1266 543 
L 1275 543 
L 1275 547 
Q 1275 548 , 1269 548 
Q 1262 549 , 1250 549 
Q 1238 549 , 1231 548 
Q 1225 548 , 1225 547 
L 1225 543 
" fill="lightgray" />
<path d="
M 1317 548 
L 1317 546 
L 1303 546 
L 1303 546 
L 1325 546 
L 1325 548 
Q 1320 549 , 1314 549 
Q 1309 549 , 1303 549 
Q 1290 549 , 1283 548 
Q 1275 547 , 1275 546 
Q 1275 545 , 1283 544 
Q 1290 543 , 1303 543 
Q 1309 543 , 1314 543 
Q 1319 543 , 1324 543 
L 1324 544 
Q 1317 544 , 1313 544 
Q 1309 544 , 1304 544 
Q 1294 544 , 1288 544 
Q 1283 545 , 1283 546 
Q 1283 547 , 1288 548 
Q 1294 548 , 1304 548 
Q 1309 548 , 1312 548 
Q 1316 548 , 1317 548 
" fill="#F5C000" />
<path d="
M 1225 537 
L 1234 537 
L 1234 541 
Q 1234 542 , 1238 542 
Q 1241 542 , 1250 542 
Q 1259 542 , 1262 542 
Q 1266 542 , 1266 541 
L 1266 537 
L 1275 537 
L 1275 541 
Q 1275 542 , 1269 542 
Q 1262 543 , 1250 543 
Q 1238 543 , 1231 542 
Q 1225 542 , 1225 541 
L 1225 537 
" fill="lightgray" />
<path d="
M 1300 538 
L 1291 541 
L 1308 541 
L 1300 538 
M 1296 537 
L 1304 537 
L 1325 543 
L 1317 543 
L 1311 541 
L 1289 541 
L 1282 543 
L 1275 543 
L 1296 537 
" fill="#339541" />
<path d="
M 1267 536 
L 1267 533 
L 1253 533 
L 1253 532 
L 1275 532 
L 1275 536 
Q 1270 537 , 1264 537 
Q 1259 537 , 1253 537 
Q 1240 537 , 1233 536 
Q 1225 535 , 1225 532 
Q 1225 530 , 1233 529 
Q 1240 528 , 1253 528 
Q 1259 528 , 1264 528 
Q 1269 528 , 1274 529 
L 1274 530 
Q 1267 529 , 1263 529 
Q 1259 529 , 1254 529 
Q 1244 529 , 1238 530 
Q 1233 531 , 1233 532 
Q 1233 534 , 1238 535 
Q 1244 536 , 1254 536 
Q 1259 536 , 1262 536 
Q 1266 536 , 1267 536 
" fill="lightgray" />
<path d="
M 1275 528 
L 1284 528 
L 1284 533 
Q 1284 535 , 1288 535 
Q 1291 536 , 1300 536 
Q 1309 536 , 1312 535 
Q 1316 535 , 1316 533 
L 1316 528 
L 1325 528 
L 1325 533 
Q 1325 535 , 1319 536 
Q 1312 537 , 1300 537 
Q 1288 537 , 1281 536 
Q 1275 535 , 1275 533 
L 1275 528 
" fill="#D21010" />
<path d="
M 1267 521 
L 1267 508 
L 1253 508 
L 1253 502 
L 1275 502 
L 1275 524 
Q 1270 526 , 1264 527 
Q 1259 527 , 1253 527 
Q 1240 527 , 1233 521 
Q 1225 515 , 1225 503 
Q 1225 492 , 1233 485 
Q 1240 479 , 1253 479 
Q 1259 479 , 1264 480 
Q 1269 481 , 1274 483 
L 1274 489 
Q 1267 486 , 1263 486 
Q 1259 485 , 1254 485 
Q 1244 485 , 1238 489 
Q 1233 494 , 1233 503 
Q 1233 513 , 1238 517 
Q 1244 522 , 1254 522 
Q 1259 522 , 1262 522 
Q 1266 521 , 1267 521 
" fill="lightgray" />
<path d="
M 1325 484 
L 1325 492 
Q 1318 487 , 1314 486 
Q 1309 484 , 1304 484 
Q 1294 484 , 1289 489 
Q 1283 494 , 1283 503 
Q 1283 513 , 1289 517 
Q 1294 522 , 1304 522 
Q 1309 522 , 1314 521 
Q 1318 520 , 1325 515 
L 1325 523 
Q 1320 525 , 1314 526 
Q 1310 527 , 1304 527 
Q 1290 527 , 1283 521 
Q 1275 514 , 1275 503 
Q 1275 492 , 1283 486 
Q 1290 479 , 1304 479 
Q 1310 479 , 1315 480 
Q 1320 481 , 1325 484 
" fill="#545FFF" />
<path d="
M 1250 437 
L 1241 458 
L 1258 458 
L 1250 437 
M 1246 428 
L 1254 428 
L 1275 479 
L 1267 479 
L 1261 464 
L 1239 464 
L 1232 479 
L 1225 479 
L 1246 428 
" fill="lightgray" />
<path d="
M 1275 428 
L 1284 428 
L 1284 458 
Q 1284 466 , 1288 470 
Q 1291 473 , 1300 473 
Q 1309 473 , 1312 470 
Q 1316 466 , 1316 458 
L 1316 428 
L 1325 428 
L 1325 459 
Q 1325 469 , 1319 474 
Q 1312 479 , 1300 479 
Q 1288 479 , 1281 474 
Q 1275 469 , 1275 459 
L 1275 428 
" fill="#D21010" />
<path d="
M 1430 553 
L 1430 553 
Q 1415 553 , 1407 553 
Q 1399 553 , 1389 553 
Q 1368 553 , 1358 553 
Q 1346 553 , 1346 553 
Q 1346 554 , 1358 554 
Q 1368 554 , 1389 554 
Q 1399 554 , 1407 554 
Q 1415 554 , 1430 554 
L 1430 554 
Q 1419 554 , 1409 554 
Q 1399 554 , 1388 554 
Q 1361 554 , 1346 554 
Q 1330 554 , 1330 554 
Q 1330 553 , 1346 553 
Q 1361 553 , 1388 553 
Q 1399 553 , 1409 553 
Q 1420 553 , 1430 553 
" fill="#545FFF" />
<path d="
M 1330 551 
L 1348 551 
L 1348 552 
Q 1348 552 , 1356 552 
Q 1363 552 , 1380 552 
Q 1397 552 , 1405 552 
Q 1412 552 , 1412 552 
L 1412 551 
L 1430 551 
L 1430 552 
Q 1430 552 , 1417 552 
Q 1405 553 , 1380 553 
Q 1356 553 , 1343 552 
Q 1330 552 , 1330 552 
L 1330 551 
" fill="#D21010" />
<path d="
M 1380 549 
L 1362 550 
L 1396 550 
L 1380 549 
M 1373 549 
L 1387 549 
L 1430 551 
L 1414 551 
L 1402 550 
L 1358 550 
L 1345 551 
L 1330 551 
L 1373 549 
" fill="#339541" />
<path d="
M 1414 548 
L 1414 547 
L 1385 547 
L 1385 547 
L 1430 547 
L 1430 548 
Q 1419 548 , 1408 548 
Q 1399 548 , 1387 548 
Q 1361 548 , 1345 548 
Q 1330 548 , 1330 547 
Q 1330 547 , 1345 546 
Q 1361 546 , 1387 546 
Q 1398 546 , 1407 546 
Q 1417 546 , 1427 546 
L 1427 547 
Q 1414 546 , 1406 546 
Q 1397 546 , 1388 546 
Q 1367 546 , 1356 547 
Q 1346 547 , 1346 547 
Q 1346 548 , 1356 548 
Q 1367 548 , 1388 548 
Q 1397 548 , 1404 548 
Q 1411 548 , 1414 548 
" fill="#F5C000" />
<path d="M 65 168 L 65 555 " stroke="black" stroke-width="1.5"/>
<path d="M 55 555 L 65 555 " stroke="black" stroke-width="4"/>
<text text-anchor="end" x="50" y="555" font-size="50" alignment-baseline="middle">0</text>
<path d="M 55 362 L 65 362 " stroke="black" stroke-width="4"/>
<text text-anchor="end" x="50" y="362" font-size="50" alignment-baseline="middle">1</text>
<path d="M 55 168 L 65 168 " stroke="black" stroke-width="4"/>
<text text-anchor="end" x="50" y="168" font-size="50" alignment-baseline="middle">2</text>
<text text-anchor="middle" x="750" y="50" font-size="50" alignment-baseline="baseline"></text>
G<path d="
M 160 582 
L 126 595 
L 160 608 
L 157 611 
L 123 598 
L 123 623 
L 117 623 
L 117 599 
L 83 611 
L 80 608 
L 114 595 
L 80 582 
L 83 579 
L 117 591 
L 117 567 
L 123 567 
L 123 591 
L 157 579 
L 160 582 
" fill="black" />
<path d="
" fill="black" />
<path d="
M 211 567 
L 238 567 
L 238 623 
L 211 623 
L 211 567 
" fill="black" />
<path d="
" fill="black" />
<path d="
" fill="black" />
<path d="
M 316 567 
L 343 567 
L 343 623 
L 316 623 
L 316 567 
" fill="black" />
<path d="
" fill="black" />
<path d="
" fill="black" />
<path d="
M 421 567 
L 448 567 
L 448 623 
L 421 623 
L 421 567 
" fill="black" />
<path d="
" fill="black" />
<path d="
M 580 567 
Q 551 574 , 538 581 
Q 525 588 , 525 595 
Q 525 602 , 538 609 
Q 551 616 , 580 623 
L 556 623 
Q 528 616 , 514 609 
Q 500 602 , 500 595 
Q 500 588 , 514 581 
Q 528 574 , 556 567 
L 580 567 
" fill="black" />
<path d="
M 640 567 
Q 626 574 , 619 581 
Q 612 588 , 612 595 
Q 612 602 , 619 609 
Q 626 616 , 640 623 
L 628 623 
Q 614 616 , 607 609 
Q 600 602 , 600 595 
Q 600 588 , 607 581 
Q 614 574 , 628 567 
L 640 567 
" fill="black" />
<path d="
M 670 595 
Q 663 595 , 659 599 
Q 655 602 , 655 607 
Q 655 613 , 659 616 
Q 663 619 , 670 619 
Q 677 619 , 681 616 
Q 685 613 , 685 607 
Q 685 602 , 681 599 
Q 677 595 , 670 595 
M 660 593 
Q 657 592 , 654 589 
Q 651 586 , 651 581 
Q 651 575 , 656 571 
Q 661 567 , 670 567 
Q 679 567 , 684 571 
Q 689 575 , 689 581 
Q 689 586 , 686 589 
Q 683 592 , 680 593 
Q 684 594 , 687 598 
Q 690 601 , 690 607 
Q 690 614 , 685 619 
Q 680 623 , 670 623 
Q 660 623 , 655 619 
Q 650 614 , 650 607 
Q 650 601 , 653 598 
Q 657 594 , 660 593 
M 660 573 
Q 657 576 , 657 581 
Q 657 586 , 660 589 
Q 664 592 , 670 592 
Q 676 592 , 680 589 
Q 683 586 , 683 581 
Q 683 576 , 680 574 
Q 676 571 , 670 571 
Q 664 571 , 660 573 
" fill="black" />
<path d="
M 790 582 
L 756 595 
L 790 608 
L 787 611 
L 753 598 
L 753 623 
L 747 623 
L 747 599 
L 713 611 
L 710 608 
L 744 595 
L 710 582 
L 713 579 
L 747 591 
L 747 567 
L 753 567 
L 753 591 
L 787 579 
L 790 582 
" fill="black" />
<path d="
" fill="black" />
<path d="
M 841 567 
L 868 567 
L 868 623 
L 841 623 
L 841 567 
" fill="black" />
<path d="
" fill="black" />
<path d="
" fill="black" />
<path d="
M 946 567 
L 973 567 
L 973 623 
L 946 623 
L 946 567 
" fill="black" />
<path d="
" fill="black" />
<path d="
" fill="black" />
<path d="
M 1051 567 
L 1078 567 
L 1078 623 
L 1051 623 
L 1051 567 
" fill="black" />
<path d="
" fill="black" />
<path d="
M 1130 567 
L 1154 567 
Q 1182 574 , 1196 581 
Q 1210 588 , 1210 595 
Q 1210 602 , 1196 609 
Q 1182 616 , 1154 623 
L 1130 623 
Q 1159 616 , 1172 609 
Q 1185 602 , 1185 595 
Q 1185 588 , 1172 581 
Q 1159 574 , 1130 567 
" fill="black" />
<path d="
M 1235 567 
L 1259 567 
Q 1287 574 , 1301 581 
Q 1315 588 , 1315 595 
Q 1315 602 , 1301 609 
Q 1287 616 , 1259 623 
L 1235 623 
Q 1264 616 , 1277 609 
Q 1290 602 , 1290 595 
Q 1290 588 , 1277 581 
Q 1264 574 , 1235 567 
" fill="black" />
<path d="
M 1420 582 
L 1386 595 
L 1420 608 
L 1417 611 
L 1383 598 
L 1383 623 
L 1377 623 
L 1377 599 
L 1343 611 
L 1340 608 
L 1374 595 
L 1340 582 
L 1343 579 
L 1377 591 
L 1377 567 
L 1383 567 
L 1383 591 
L 1417 579 
L 1420 582 
" fill="black" />
</svg>
