<svg xmlns="http://www.w3.org/2000/svg"
viewBox="0 0 1435 635">
<path d="
M 170 554 
L 170 554 
Q 155 554 , 147 554 
Q 139 554 , 129 554 
Q 108 554 , 98 554 
Q 86 554 , 86 554 
Q 86 554 , 98 554 
Q 108 554 , 129 554 
Q 139 554 , 147 554 
Q 155 554 , 170 554 
L 170 554 
Q 159 554 , 149 554 
Q 139 554 , 128 554 
Q 101 554 , 86 554 
Q 70 554 , 70 554 
Q 70 554 , 86 554 
Q 101 554 , 128 554 
Q 139 554 , 149 554 
Q 160 554 , 170 554 
" fill="#545FFF" />
<path d="
M 120 553 
L 102 553 
L 136 553 
L 120 553 
M 113 553 
L 127 553 
L 170 554 
L 154 554 
L 142 553 
L 98 553 
L 85 554 
L 70 554 
L 113 553 
" fill="#339541" />
<path d="
M 154 553 
L 154 552 
L 125 552 
L 125 552 
L 170 552 
L 170 553 
Q 159 553 , 148 553 
Q 139 553 , 127 553 
Q 101 553 , 85 553 
Q 70 552 , 70 552 
Q 70 552 , 85 552 
Q 101 552 , 127 552 
Q 138 552 , 147 552 
Q 157 552 , 167 552 
L 167 552 
Q 154 552 , 146 552 
Q 137 552 , 128 552 
Q 107 552 , 96 552 
Q 86 552 , 86 552 
Q 86 552 , 96 553 
Q 107 553 , 128 553 
Q 137 553 , 144 553 
Q 151 553 , 154 553 
" fill="#F5C000" />
<path d="
M 70 551 
L 88 551 
L 88 551 
Q 88 552 , 96 552 
Q 103 552 , 120 552 
Q 137 552 , 145 552 
Q 152 552 , 152 551 
L 152 551 
L 170 551 
L 170 551 
Q 170 552 , 157 552 
Q 145 552 , 120 552 
Q 96 552 , 83 552 
Q 70 552 , 70 551 
L 70 551 
" fill="#D21010" />
<path d="
M 217 554 
L 217 553 
L 203 553 
L 203 552 
L 225 552 
L 225 554 
Q 220 554 , 214 554 
Q 209 554 , 203 554 
Q 190 554 , 183 554 
Q 175 553 , 175 553 
Q 175 552 , 183 551 
Q 190 551 , 203 551 
Q 209 551 , 214 551 
Q 219 551 , 224 551 
L 224 552 
Q 217 551 , 213 551 
Q 209 551 , 204 551 
Q 194 551 , 188 552 
Q 183 552 , 183 553 
Q 183 553 , 188 553 
Q 194 554 , 204 554 
Q 209 554 , 212 554 
Q 216 554 , 217 554 
" fill="#F5C000" />
<path d="
M 225 551 
L 234 551 
L 234 553 
Q 234 553 , 238 554 
Q 241 554 , 250 554 
Q 259 554 , 262 554 
Q 266 553 , 266 553 
L 266 551 
L 275 551 
L 275 553 
Q 275 553 , 269 554 
Q 262 554 , 250 554 
Q 238 554 , 231 554 
Q 225 553 , 225 553 
L 225 551 
" fill="lightgray" />
<path d="
M 175 545 
L 184 545 
L 184 548 
Q 184 549 , 188 550 
Q 191 550 , 200 550 
Q 209 550 , 212 550 
Q 216 549 , 216 548 
L 216 545 
L 225 545 
L 225 549 
Q 225 550 , 219 550 
Q 212 551 , 200 551 
Q 188 551 , 181 550 
Q 175 550 , 175 549 
L 175 545 
" fill="#D21010" />
<path d="
M 267 550 
L 267 548 
L 253 548 
L 253 548 
L 275 548 
L 275 550 
Q 270 551 , 264 551 
Q 259 551 , 253 551 
Q 240 551 , 233 550 
Q 225 549 , 225 548 
Q 225 547 , 233 546 
Q 240 545 , 253 545 
Q 259 545 , 264 545 
Q 269 545 , 274 545 
L 274 546 
Q 267 546 , 263 546 
Q 259 546 , 254 546 
Q 244 546 , 238 546 
Q 233 547 , 233 548 
Q 233 549 , 238 550 
Q 244 550 , 254 550 
Q 259 550 , 262 550 
Q 266 550 , 267 550 
" fill="lightgray" />
<path d="
M 217 543 
L 217 541 
L 203 541 
L 203 540 
L 225 540 
L 225 544 
Q 220 544 , 214 545 
Q 209 545 , 203 545 
Q 190 545 , 183 544 
Q 175 542 , 175 540 
Q 175 538 , 183 537 
Q 190 536 , 203 536 
Q 209 536 , 214 536 
Q 219 536 , 224 537 
L 224 538 
Q 217 537 , 213 537 
Q 209 537 , 204 537 
Q 194 537 , 188 538 
Q 183 539 , 183 540 
Q 183 542 , 188 543 
Q 194 544 , 204 544 
Q 209 544 , 212 544 
Q 216 544 , 217 543 
" fill="#F5C000" />
<path d="
M 275 537 
L 275 538 
Q 268 537 , 264 537 
Q 259 537 , 254 537 
Q 244 537 , 239 538 
Q 233 539 , 233 540 
Q 233 542 , 239 543 
Q 244 544 , 254 544 
Q 259 544 , 264 544 
Q 268 543 , 275 542 
L 275 544 
Q 270 544 , 264 544 
Q 260 545 , 254 545 
Q 240 545 , 233 544 
Q 225 542 , 225 540 
Q 225 538 , 233 537 
Q 240 536 , 254 536 
Q 260 536 , 265 536 
Q 270 536 , 275 537 
" fill="lightgray" />
<path d="
M 200 526 
L 191 531 
L 208 531 
L 200 526 
M 196 524 
L 204 524 
L 225 536 
L 217 536 
L 211 532 
L 189 532 
L 182 536 
L 175 536 
L 196 524 
" fill="#339541" />
<path d="
M 225 524 
L 234 524 
L 234 531 
Q 234 533 , 238 534 
Q 241 535 , 250 535 
Q 259 535 , 262 534 
Q 266 533 , 266 531 
L 266 524 
L 275 524 
L 275 531 
Q 275 533 , 269 535 
Q 262 536 , 250 536 
Q 238 536 , 231 535 
Q 225 533 , 225 531 
L 225 524 
" fill="lightgray" />
<path d="
M 175 482 
L 184 482 
L 184 506 
Q 184 513 , 188 516 
Q 191 518 , 200 518 
Q 209 518 , 212 516 
Q 216 513 , 216 506 
L 216 482 
L 225 482 
L 225 507 
Q 225 515 , 219 519 
Q 212 523 , 200 523 
Q 188 523 , 181 519 
Q 175 515 , 175 507 
L 175 482 
" fill="#D21010" />
<path d="
M 250 490 
L 241 506 
L 258 506 
L 250 490 
M 246 482 
L 254 482 
L 275 523 
L 267 523 
L 261 511 
L 239 511 
L 232 523 
L 225 523 
L 246 482 
" fill="lightgray" />
<path d="
M 225 397 
L 225 412 
Q 218 402 , 214 400 
Q 209 397 , 204 397 
Q 194 397 , 189 407 
Q 183 416 , 183 434 
Q 183 452 , 189 462 
Q 194 471 , 204 471 
Q 209 471 , 214 469 
Q 218 466 , 225 457 
L 225 472 
Q 220 477 , 214 479 
Q 210 481 , 204 481 
Q 190 481 , 183 469 
Q 175 456 , 175 434 
Q 175 413 , 183 400 
Q 190 387 , 204 387 
Q 210 387 , 215 389 
Q 220 392 , 225 397 
" fill="#545FFF" />
<path d="
M 267 468 
L 267 442 
L 253 442 
L 253 432 
L 275 432 
L 275 474 
Q 270 478 , 264 480 
Q 259 481 , 253 481 
Q 240 481 , 233 469 
Q 225 456 , 225 434 
Q 225 412 , 233 400 
Q 240 387 , 253 387 
Q 259 387 , 264 389 
Q 269 390 , 274 395 
L 274 407 
Q 267 401 , 263 400 
Q 259 398 , 254 398 
Q 244 398 , 238 407 
Q 233 416 , 233 434 
Q 233 453 , 238 462 
Q 244 471 , 254 471 
Q 259 471 , 262 470 
Q 266 469 , 267 468 
" fill="lightgray" />
<path d="
M 380 553 
L 380 553 
Q 365 553 , 357 553 
Q 349 553 , 339 553 
Q 318 553 , 308 553 
Q 296 553 , 296 553 
Q 296 554 , 308 554 
Q 318 554 , 339 554 
Q 349 554 , 357 554 
Q 365 554 , 380 554 
L 380 554 
Q 369 555 , 359 555 
Q 349 555 , 338 555 
Q 311 555 , 296 554 
Q 280 554 , 280 554 
Q 280 553 , 296 553 
Q 311 553 , 338 553 
Q 349 553 , 359 553 
Q 370 553 , 380 553 
" fill="#545FFF" />
<path d="
M 330 550 
L 312 551 
L 346 551 
L 330 550 
M 323 550 
L 337 550 
L 380 553 
L 364 553 
L 352 552 
L 308 552 
L 295 553 
L 280 553 
L 323 550 
" fill="#339541" />
<path d="
M 280 547 
L 298 547 
L 298 549 
Q 298 549 , 306 549 
Q 313 549 , 330 549 
Q 347 549 , 355 549 
Q 362 549 , 362 549 
L 362 547 
L 380 547 
L 380 549 
Q 380 549 , 367 549 
Q 355 550 , 330 550 
Q 306 550 , 293 549 
Q 280 549 , 280 549 
L 280 547 
" fill="#D21010" />
<path d="
M 364 546 
L 364 545 
L 335 545 
L 335 545 
L 380 545 
L 380 546 
Q 369 546 , 358 546 
Q 349 546 , 337 546 
Q 311 546 , 295 546 
Q 280 546 , 280 545 
Q 280 544 , 295 543 
Q 311 543 , 337 543 
Q 348 543 , 357 543 
Q 367 543 , 377 543 
L 377 544 
Q 364 544 , 356 543 
Q 347 543 , 338 543 
Q 317 543 , 306 544 
Q 296 544 , 296 545 
Q 296 545 , 306 546 
Q 317 546 , 338 546 
Q 347 546 , 354 546 
Q 361 546 , 364 546 
" fill="#F5C000" />
<path d="
M 427 554 
L 427 554 
L 413 554 
L 413 554 
L 435 554 
L 435 554 
Q 430 554 , 424 554 
Q 419 554 , 413 554 
Q 400 554 , 393 554 
Q 385 554 , 385 554 
Q 385 553 , 393 553 
Q 400 553 , 413 553 
Q 419 553 , 424 553 
Q 429 553 , 434 553 
L 434 553 
Q 427 553 , 423 553 
Q 419 553 , 414 553 
Q 404 553 , 398 553 
Q 393 553 , 393 554 
Q 393 554 , 398 554 
Q 404 554 , 414 554 
Q 419 554 , 422 554 
Q 426 554 , 427 554 
" fill="#F5C000" />
<path d="
M 435 553 
L 444 553 
L 444 554 
Q 444 554 , 448 554 
Q 451 554 , 460 554 
Q 469 554 , 472 554 
Q 476 554 , 476 554 
L 476 553 
L 485 553 
L 485 554 
Q 485 554 , 479 554 
Q 472 554 , 460 554 
Q 448 554 , 441 554 
Q 435 554 , 435 554 
L 435 553 
" fill="lightgray" />
<path d="
M 410 545 
L 401 549 
L 418 549 
L 410 545 
M 406 543 
L 414 543 
L 435 553 
L 427 553 
L 421 550 
L 399 550 
L 392 553 
L 385 553 
L 406 543 
" fill="#339541" />
<path d="
M 435 543 
L 444 543 
L 444 549 
Q 444 550 , 448 551 
Q 451 551 , 460 551 
Q 469 551 , 472 551 
Q 476 550 , 476 549 
L 476 543 
L 485 543 
L 485 549 
Q 485 551 , 479 552 
Q 472 553 , 460 553 
Q 448 553 , 441 552 
Q 435 551 , 435 549 
L 435 543 
" fill="lightgray" />
<path d="
M 385 532 
L 394 532 
L 394 538 
Q 394 540 , 398 541 
Q 401 541 , 410 541 
Q 419 541 , 422 541 
Q 426 540 , 426 538 
L 426 532 
L 435 532 
L 435 538 
Q 435 540 , 429 542 
Q 422 543 , 410 543 
Q 398 543 , 391 542 
Q 385 540 , 385 538 
L 385 532 
" fill="#D21010" />
<path d="
M 460 534 
L 451 538 
L 468 538 
L 460 534 
M 456 532 
L 464 532 
L 485 543 
L 477 543 
L 471 539 
L 449 539 
L 442 543 
L 435 543 
L 456 532 
" fill="lightgray" />
<path d="
M 435 519 
L 435 521 
Q 428 520 , 424 520 
Q 419 519 , 414 519 
Q 404 519 , 399 521 
Q 393 522 , 393 524 
Q 393 527 , 399 528 
Q 404 530 , 414 530 
Q 419 530 , 424 529 
Q 428 529 , 435 528 
L 435 530 
Q 430 530 , 424 531 
Q 420 531 , 414 531 
Q 400 531 , 393 529 
Q 385 527 , 385 525 
Q 385 522 , 393 520 
Q 400 518 , 414 518 
Q 420 518 , 425 518 
Q 430 519 , 435 519 
" fill="#545FFF" />
<path d="
M 477 529 
L 477 526 
L 463 526 
L 463 524 
L 485 524 
L 485 530 
Q 480 531 , 474 531 
Q 469 531 , 463 531 
Q 450 531 , 443 529 
Q 435 528 , 435 525 
Q 435 521 , 443 520 
Q 450 518 , 463 518 
Q 469 518 , 474 518 
Q 479 518 , 484 519 
L 484 521 
Q 477 520 , 473 520 
Q 469 520 , 464 520 
Q 454 520 , 448 521 
Q 443 522 , 443 525 
Q 443 527 , 448 528 
Q 454 530 , 464 530 
Q 469 530 , 472 529 
Q 476 529 , 477 529 
" fill="lightgray" />
<path d="
M 385 494 
L 394 494 
L 394 508 
Q 394 512 , 398 513 
Q 401 515 , 410 515 
Q 419 515 , 422 513 
Q 426 512 , 426 508 
L 426 494 
L 435 494 
L 435 508 
Q 435 513 , 429 515 
Q 422 518 , 410 518 
Q 398 518 , 391 515 
Q 385 513 , 385 508 
L 385 494 
" fill="#D21010" />
<path d="
M 477 514 
L 477 508 
L 463 508 
L 463 505 
L 485 505 
L 485 516 
Q 480 517 , 474 517 
Q 469 518 , 463 518 
Q 450 518 , 443 515 
Q 435 511 , 435 506 
Q 435 500 , 443 497 
Q 450 494 , 463 494 
Q 469 494 , 474 494 
Q 479 495 , 484 496 
L 484 499 
Q 477 498 , 473 497 
Q 469 497 , 464 497 
Q 454 497 , 448 499 
Q 443 501 , 443 506 
Q 443 511 , 448 513 
Q 454 515 , 464 515 
Q 469 515 , 472 515 
Q 476 515 , 477 514 
" fill="lightgray" />
<path d="
M 427 485 
L 427 468 
L 413 468 
L 413 462 
L 435 462 
L 435 489 
Q 430 492 , 424 493 
Q 419 494 , 413 494 
Q 400 494 , 393 486 
Q 385 477 , 385 463 
Q 385 449 , 393 440 
Q 400 432 , 413 432 
Q 419 432 , 424 433 
Q 429 434 , 434 437 
L 434 445 
Q 427 441 , 423 440 
Q 419 439 , 414 439 
Q 404 439 , 398 445 
Q 393 451 , 393 463 
Q 393 475 , 398 481 
Q 404 487 , 414 487 
Q 419 487 , 422 486 
Q 426 486 , 427 485 
" fill="#F5C000" />
<path d="
M 485 439 
L 485 448 
Q 478 442 , 474 440 
Q 469 439 , 464 439 
Q 454 439 , 449 445 
Q 443 451 , 443 463 
Q 443 475 , 449 481 
Q 454 487 , 464 487 
Q 469 487 , 474 486 
Q 478 484 , 485 478 
L 485 488 
Q 480 491 , 474 492 
Q 470 494 , 464 494 
Q 450 494 , 443 485 
Q 435 477 , 435 463 
Q 435 449 , 443 440 
Q 450 432 , 464 432 
Q 470 432 , 475 434 
Q 480 435 , 485 439 
" fill="lightgray" />
<path d="
M 540 552 
L 522 553 
L 556 553 
L 540 552 
M 533 551 
L 547 551 
L 590 554 
L 574 554 
L 562 553 
L 518 553 
L 505 554 
L 490 554 
L 533 551 
" fill="#339541" />
<path d="
M 590 544 
L 590 545 
Q 575 544 , 567 544 
Q 559 544 , 549 544 
Q 528 544 , 518 544 
Q 506 545 , 506 546 
Q 506 548 , 518 549 
Q 528 549 , 549 549 
Q 559 549 , 567 549 
Q 575 549 , 590 548 
L 590 549 
Q 579 550 , 569 550 
Q 559 550 , 548 550 
Q 521 550 , 506 549 
Q 490 548 , 490 547 
Q 490 545 , 506 544 
Q 521 543 , 548 543 
Q 559 543 , 569 543 
Q 580 543 , 590 544 
" fill="#545FFF" />
<path d="
M 490 532 
L 508 532 
L 508 538 
Q 508 540 , 516 541 
Q 523 541 , 540 541 
Q 557 541 , 565 541 
Q 572 540 , 572 538 
L 572 532 
L 590 532 
L 590 538 
Q 590 540 , 577 541 
Q 565 542 , 540 542 
Q 516 542 , 503 541 
Q 490 540 , 490 538 
L 490 532 
" fill="#D21010" />
<path d="
M 574 529 
L 574 525 
L 545 525 
L 545 523 
L 590 523 
L 590 530 
Q 579 531 , 568 531 
Q 559 531 , 547 531 
Q 521 531 , 505 529 
Q 490 527 , 490 524 
Q 490 520 , 505 518 
Q 521 516 , 547 516 
Q 558 516 , 567 516 
Q 577 517 , 587 517 
L 587 519 
Q 574 518 , 566 518 
Q 557 518 , 548 518 
Q 527 518 , 516 519 
Q 506 521 , 506 524 
Q 506 527 , 516 528 
Q 527 530 , 548 530 
Q 557 530 , 564 530 
Q 571 529 , 574 529 
" fill="#F5C000" />
<path d="
M 695 551 
L 695 552 
Q 680 552 , 672 551 
Q 664 551 , 654 551 
Q 633 551 , 623 552 
Q 611 552 , 611 552 
Q 611 553 , 623 554 
Q 633 554 , 654 554 
Q 664 554 , 672 554 
Q 680 554 , 695 554 
L 695 554 
Q 684 554 , 674 554 
Q 664 555 , 653 555 
Q 626 555 , 611 554 
Q 595 554 , 595 553 
Q 595 552 , 611 551 
Q 626 551 , 653 551 
Q 664 551 , 674 551 
Q 685 551 , 695 551 
" fill="#545FFF" />
<path d="
M 645 544 
L 627 548 
L 661 548 
L 645 544 
M 638 543 
L 652 543 
L 695 551 
L 679 551 
L 667 548 
L 623 548 
L 610 551 
L 595 551 
L 638 543 
" fill="#339541" />
<path d="
M 679 540 
L 679 535 
L 650 535 
L 650 532 
L 695 532 
L 695 541 
Q 684 542 , 673 542 
Q 664 543 , 652 543 
Q 626 543 , 610 540 
Q 595 537 , 595 533 
Q 595 528 , 610 526 
Q 626 523 , 652 523 
Q 663 523 , 672 523 
Q 682 524 , 692 525 
L 692 527 
Q 679 526 , 671 526 
Q 662 525 , 653 525 
Q 632 525 , 621 527 
Q 611 529 , 611 533 
Q 611 537 , 621 539 
Q 632 540 , 653 540 
Q 662 540 , 669 540 
Q 676 540 , 679 540 
" fill="#F5C000" />
<path d="
M 595 501 
L 613 501 
L 613 514 
Q 613 517 , 621 518 
Q 628 520 , 645 520 
Q 662 520 , 670 518 
Q 677 517 , 677 514 
L 677 501 
L 695 501 
L 695 514 
Q 695 518 , 682 520 
Q 670 522 , 645 522 
Q 621 522 , 608 520 
Q 595 518 , 595 514 
L 595 501 
" fill="#D21010" />
<path d="
M 800 554 
L 800 554 
Q 785 554 , 777 554 
Q 769 554 , 759 554 
Q 738 554 , 728 554 
Q 716 554 , 716 554 
Q 716 554 , 728 554 
Q 738 554 , 759 554 
Q 769 554 , 777 554 
Q 785 554 , 800 554 
L 800 554 
Q 789 554 , 779 554 
Q 769 554 , 758 554 
Q 731 554 , 716 554 
Q 700 554 , 700 554 
Q 700 554 , 716 554 
Q 731 554 , 758 554 
Q 769 554 , 779 554 
Q 790 554 , 800 554 
" fill="#545FFF" />
<path d="
M 750 553 
L 732 553 
L 766 553 
L 750 553 
M 743 553 
L 757 553 
L 800 554 
L 784 554 
L 772 553 
L 728 553 
L 715 554 
L 700 554 
L 743 553 
" fill="#339541" />
<path d="
M 784 553 
L 784 552 
L 755 552 
L 755 552 
L 800 552 
L 800 553 
Q 789 553 , 778 553 
Q 769 553 , 757 553 
Q 731 553 , 715 553 
Q 700 552 , 700 552 
Q 700 552 , 715 552 
Q 731 552 , 757 552 
Q 768 552 , 777 552 
Q 787 552 , 797 552 
L 797 552 
Q 784 552 , 776 552 
Q 767 552 , 758 552 
Q 737 552 , 726 552 
Q 716 552 , 716 552 
Q 716 552 , 726 553 
Q 737 553 , 758 553 
Q 767 553 , 774 553 
Q 781 553 , 784 553 
" fill="#F5C000" />
<path d="
M 700 551 
L 718 551 
L 718 551 
Q 718 552 , 726 552 
Q 733 552 , 750 552 
Q 767 552 , 775 552 
Q 782 552 , 782 551 
L 782 551 
L 800 551 
L 800 551 
Q 800 552 , 787 552 
Q 775 552 , 750 552 
Q 726 552 , 713 552 
Q 700 552 , 700 551 
L 700 551 
" fill="#D21010" />
<path d="
M 905 548 
L 905 549 
Q 890 548 , 882 548 
Q 874 548 , 864 548 
Q 843 548 , 833 548 
Q 821 549 , 821 550 
Q 821 552 , 833 553 
Q 843 553 , 864 553 
Q 874 553 , 882 553 
Q 890 553 , 905 552 
L 905 553 
Q 894 554 , 884 554 
Q 874 554 , 863 554 
Q 836 554 , 821 553 
Q 805 552 , 805 551 
Q 805 549 , 821 548 
Q 836 547 , 863 547 
Q 874 547 , 884 547 
Q 895 547 , 905 548 
" fill="#545FFF" />
<path d="
M 855 540 
L 837 543 
L 871 543 
L 855 540 
M 848 539 
L 862 539 
L 905 547 
L 889 547 
L 877 544 
L 833 544 
L 820 547 
L 805 547 
L 848 539 
" fill="#339541" />
<path d="
M 805 514 
L 823 514 
L 823 528 
Q 823 532 , 831 534 
Q 838 536 , 855 536 
Q 872 536 , 880 534 
Q 887 532 , 887 528 
L 887 514 
L 905 514 
L 905 529 
Q 905 534 , 892 536 
Q 880 538 , 855 538 
Q 831 538 , 818 536 
Q 805 534 , 805 529 
L 805 514 
" fill="#D21010" />
<path d="
M 889 505 
L 889 488 
L 860 488 
L 860 482 
L 905 482 
L 905 509 
Q 894 512 , 883 513 
Q 874 514 , 862 514 
Q 836 514 , 820 506 
Q 805 497 , 805 483 
Q 805 469 , 820 460 
Q 836 452 , 862 452 
Q 873 452 , 882 453 
Q 892 454 , 902 457 
L 902 465 
Q 889 461 , 881 460 
Q 872 459 , 863 459 
Q 842 459 , 831 465 
Q 821 471 , 821 483 
Q 821 495 , 831 501 
Q 842 507 , 863 507 
Q 872 507 , 879 506 
Q 886 506 , 889 505 
" fill="#F5C000" />
<path d="
M 952 554 
L 952 554 
L 938 554 
L 938 554 
L 960 554 
L 960 554 
Q 955 554 , 949 554 
Q 944 554 , 938 554 
Q 925 554 , 918 554 
Q 910 554 , 910 554 
Q 910 553 , 918 553 
Q 925 553 , 938 553 
Q 944 553 , 949 553 
Q 954 553 , 959 553 
L 959 553 
Q 952 553 , 948 553 
Q 944 553 , 939 553 
Q 929 553 , 923 553 
Q 918 553 , 918 554 
Q 918 554 , 923 554 
Q 929 554 , 939 554 
Q 944 554 , 947 554 
Q 951 554 , 952 554 
" fill="lightgray" />
<path d="
M 960 553 
L 969 553 
L 969 554 
Q 969 554 , 973 554 
Q 976 554 , 985 554 
Q 994 554 , 997 554 
Q 1001 554 , 1001 554 
L 1001 553 
L 1010 553 
L 1010 554 
Q 1010 554 , 1004 554 
Q 997 554 , 985 554 
Q 973 554 , 966 554 
Q 960 554 , 960 554 
L 960 553 
" fill="#D21010" />
<path d="
M 935 545 
L 926 549 
L 943 549 
L 935 545 
M 931 543 
L 939 543 
L 960 553 
L 952 553 
L 946 550 
L 924 550 
L 917 553 
L 910 553 
L 931 543 
" fill="lightgray" />
<path d="
M 960 543 
L 969 543 
L 969 549 
Q 969 550 , 973 551 
Q 976 551 , 985 551 
Q 994 551 , 997 551 
Q 1001 550 , 1001 549 
L 1001 543 
L 1010 543 
L 1010 549 
Q 1010 551 , 1004 552 
Q 997 553 , 985 553 
Q 973 553 , 966 552 
Q 960 551 , 960 549 
L 960 543 
" fill="#D21010" />
<path d="
M 910 532 
L 919 532 
L 919 538 
Q 919 540 , 923 541 
Q 926 541 , 935 541 
Q 944 541 , 947 541 
Q 951 540 , 951 538 
L 951 532 
L 960 532 
L 960 538 
Q 960 540 , 954 542 
Q 947 543 , 935 543 
Q 923 543 , 916 542 
Q 910 540 , 910 538 
L 910 532 
" fill="lightgray" />
<path d="
M 985 534 
L 976 538 
L 993 538 
L 985 534 
M 981 532 
L 989 532 
L 1010 543 
L 1002 543 
L 996 539 
L 974 539 
L 967 543 
L 960 543 
L 981 532 
" fill="#339541" />
<path d="
M 960 519 
L 960 521 
Q 953 520 , 949 520 
Q 944 519 , 939 519 
Q 929 519 , 924 521 
Q 918 522 , 918 524 
Q 918 527 , 924 528 
Q 929 530 , 939 530 
Q 944 530 , 949 529 
Q 953 529 , 960 528 
L 960 530 
Q 955 530 , 949 531 
Q 945 531 , 939 531 
Q 925 531 , 918 529 
Q 910 527 , 910 525 
Q 910 522 , 918 520 
Q 925 518 , 939 518 
Q 945 518 , 950 518 
Q 955 519 , 960 519 
" fill="lightgray" />
<path d="
M 1002 529 
L 1002 526 
L 988 526 
L 988 524 
L 1010 524 
L 1010 530 
Q 1005 531 , 999 531 
Q 994 531 , 988 531 
Q 975 531 , 968 529 
Q 960 528 , 960 525 
Q 960 521 , 968 520 
Q 975 518 , 988 518 
Q 994 518 , 999 518 
Q 1004 518 , 1009 519 
L 1009 521 
Q 1002 520 , 998 520 
Q 994 520 , 989 520 
Q 979 520 , 973 521 
Q 968 522 , 968 525 
Q 968 527 , 973 528 
Q 979 530 , 989 530 
Q 994 530 , 997 529 
Q 1001 529 , 1002 529 
" fill="#F5C000" />
<path d="
M 910 494 
L 919 494 
L 919 508 
Q 919 512 , 923 513 
Q 926 515 , 935 515 
Q 944 515 , 947 513 
Q 951 512 , 951 508 
L 951 494 
L 960 494 
L 960 508 
Q 960 513 , 954 515 
Q 947 518 , 935 518 
Q 923 518 , 916 515 
Q 910 513 , 910 508 
L 910 494 
" fill="lightgray" />
<path d="
M 1002 514 
L 1002 508 
L 988 508 
L 988 505 
L 1010 505 
L 1010 516 
Q 1005 517 , 999 517 
Q 994 518 , 988 518 
Q 975 518 , 968 515 
Q 960 511 , 960 506 
Q 960 500 , 968 497 
Q 975 494 , 988 494 
Q 994 494 , 999 494 
Q 1004 495 , 1009 496 
L 1009 499 
Q 1002 498 , 998 497 
Q 994 497 , 989 497 
Q 979 497 , 973 499 
Q 968 501 , 968 506 
Q 968 511 , 973 513 
Q 979 515 , 989 515 
Q 994 515 , 997 515 
Q 1001 515 , 1002 514 
" fill="#F5C000" />
<path d="
M 952 485 
L 952 468 
L 938 468 
L 938 462 
L 960 462 
L 960 489 
Q 955 492 , 949 493 
Q 944 494 , 938 494 
Q 925 494 , 918 486 
Q 910 477 , 910 463 
Q 910 449 , 918 440 
Q 925 432 , 938 432 
Q 944 432 , 949 433 
Q 954 434 , 959 437 
L 959 445 
Q 952 441 , 948 440 
Q 944 439 , 939 439 
Q 929 439 , 923 445 
Q 918 451 , 918 463 
Q 918 475 , 923 481 
Q 929 487 , 939 487 
Q 944 487 , 947 486 
Q 951 486 , 952 485 
" fill="lightgray" />
<path d="
M 1010 439 
L 1010 448 
Q 1003 442 , 999 440 
Q 994 439 , 989 439 
Q 979 439 , 974 445 
Q 968 451 , 968 463 
Q 968 475 , 974 481 
Q 979 487 , 989 487 
Q 994 487 , 999 486 
Q 1003 484 , 1010 478 
L 1010 488 
Q 1005 491 , 999 492 
Q 995 494 , 989 494 
Q 975 494 , 968 485 
Q 960 477 , 960 463 
Q 960 449 , 968 440 
Q 975 432 , 989 432 
Q 995 432 , 1000 434 
Q 1005 435 , 1010 439 
" fill="#545FFF" />
<path d="
M 1065 548 
L 1047 551 
L 1081 551 
L 1065 548 
M 1058 546 
L 1072 546 
L 1115 554 
L 1099 554 
L 1087 552 
L 1043 552 
L 1030 554 
L 1015 554 
L 1058 546 
" fill="#339541" />
<path d="
M 1115 538 
L 1115 539 
Q 1100 538 , 1092 538 
Q 1084 538 , 1074 538 
Q 1053 538 , 1043 539 
Q 1031 540 , 1031 541 
Q 1031 543 , 1043 544 
Q 1053 545 , 1074 545 
Q 1084 545 , 1092 544 
Q 1100 544 , 1115 543 
L 1115 545 
Q 1104 545 , 1094 545 
Q 1084 546 , 1073 546 
Q 1046 546 , 1031 544 
Q 1015 543 , 1015 541 
Q 1015 539 , 1031 538 
Q 1046 537 , 1073 537 
Q 1084 537 , 1094 537 
Q 1105 537 , 1115 538 
" fill="#545FFF" />
<path d="
M 1099 533 
L 1099 528 
L 1070 528 
L 1070 526 
L 1115 526 
L 1115 535 
Q 1104 535 , 1093 536 
Q 1084 536 , 1072 536 
Q 1046 536 , 1030 533 
Q 1015 531 , 1015 526 
Q 1015 521 , 1030 519 
Q 1046 516 , 1072 516 
Q 1083 516 , 1092 516 
Q 1102 517 , 1112 518 
L 1112 520 
Q 1099 519 , 1091 519 
Q 1082 518 , 1073 518 
Q 1052 518 , 1041 520 
Q 1031 522 , 1031 526 
Q 1031 530 , 1041 532 
Q 1052 534 , 1073 534 
Q 1082 534 , 1089 534 
Q 1096 533 , 1099 533 
" fill="#F5C000" />
<path d="
M 1015 452 
L 1033 452 
L 1033 490 
Q 1033 500 , 1041 504 
Q 1048 509 , 1065 509 
Q 1082 509 , 1090 504 
Q 1097 500 , 1097 490 
L 1097 452 
L 1115 452 
L 1115 491 
Q 1115 503 , 1102 509 
Q 1090 516 , 1065 516 
Q 1041 516 , 1028 509 
Q 1015 503 , 1015 491 
L 1015 452 
" fill="#D21010" />
<path d="
M 1162 554 
L 1162 553 
L 1148 553 
L 1148 552 
L 1170 552 
L 1170 554 
Q 1165 554 , 1159 554 
Q 1154 554 , 1148 554 
Q 1135 554 , 1128 554 
Q 1120 553 , 1120 553 
Q 1120 552 , 1128 551 
Q 1135 551 , 1148 551 
Q 1154 551 , 1159 551 
Q 1164 551 , 1169 551 
L 1169 552 
Q 1162 551 , 1158 551 
Q 1154 551 , 1149 551 
Q 1139 551 , 1133 552 
Q 1128 552 , 1128 553 
Q 1128 553 , 1133 553 
Q 1139 554 , 1149 554 
Q 1154 554 , 1157 554 
Q 1161 554 , 1162 554 
" fill="lightgray" />
<path d="
M 1170 551 
L 1179 551 
L 1179 553 
Q 1179 553 , 1183 554 
Q 1186 554 , 1195 554 
Q 1204 554 , 1207 554 
Q 1211 553 , 1211 553 
L 1211 551 
L 1220 551 
L 1220 553 
Q 1220 553 , 1214 554 
Q 1207 554 , 1195 554 
Q 1183 554 , 1176 554 
Q 1170 553 , 1170 553 
L 1170 551 
" fill="#D21010" />
<path d="
M 1120 545 
L 1129 545 
L 1129 548 
Q 1129 549 , 1133 550 
Q 1136 550 , 1145 550 
Q 1154 550 , 1157 550 
Q 1161 549 , 1161 548 
L 1161 545 
L 1170 545 
L 1170 549 
Q 1170 550 , 1164 550 
Q 1157 551 , 1145 551 
Q 1133 551 , 1126 550 
Q 1120 550 , 1120 549 
L 1120 545 
" fill="lightgray" />
<path d="
M 1212 550 
L 1212 548 
L 1198 548 
L 1198 548 
L 1220 548 
L 1220 550 
Q 1215 551 , 1209 551 
Q 1204 551 , 1198 551 
Q 1185 551 , 1178 550 
Q 1170 549 , 1170 548 
Q 1170 547 , 1178 546 
Q 1185 545 , 1198 545 
Q 1204 545 , 1209 545 
Q 1214 545 , 1219 545 
L 1219 546 
Q 1212 546 , 1208 546 
Q 1204 546 , 1199 546 
Q 1189 546 , 1183 546 
Q 1178 547 , 1178 548 
Q 1178 549 , 1183 550 
Q 1189 550 , 1199 550 
Q 1204 550 , 1207 550 
Q 1211 550 , 1212 550 
" fill="#F5C000" />
<path d="
M 1162 543 
L 1162 541 
L 1148 541 
L 1148 540 
L 1170 540 
L 1170 544 
Q 1165 544 , 1159 545 
Q 1154 545 , 1148 545 
Q 1135 545 , 1128 544 
Q 1120 542 , 1120 540 
Q 1120 538 , 1128 537 
Q 1135 536 , 1148 536 
Q 1154 536 , 1159 536 
Q 1164 536 , 1169 537 
L 1169 538 
Q 1162 537 , 1158 537 
Q 1154 537 , 1149 537 
Q 1139 537 , 1133 538 
Q 1128 539 , 1128 540 
Q 1128 542 , 1133 543 
Q 1139 544 , 1149 544 
Q 1154 544 , 1157 544 
Q 1161 544 , 1162 543 
" fill="lightgray" />
<path d="
M 1220 537 
L 1220 538 
Q 1213 537 , 1209 537 
Q 1204 537 , 1199 537 
Q 1189 537 , 1184 538 
Q 1178 539 , 1178 540 
Q 1178 542 , 1184 543 
Q 1189 544 , 1199 544 
Q 1204 544 , 1209 544 
Q 1213 543 , 1220 542 
L 1220 544 
Q 1215 544 , 1209 544 
Q 1205 545 , 1199 545 
Q 1185 545 , 1178 544 
Q 1170 542 , 1170 540 
Q 1170 538 , 1178 537 
Q 1185 536 , 1199 536 
Q 1205 536 , 1210 536 
Q 1215 536 , 1220 537 
" fill="#545FFF" />
<path d="
M 1145 526 
L 1136 531 
L 1153 531 
L 1145 526 
M 1141 524 
L 1149 524 
L 1170 536 
L 1162 536 
L 1156 532 
L 1134 532 
L 1127 536 
L 1120 536 
L 1141 524 
" fill="lightgray" />
<path d="
M 1170 524 
L 1179 524 
L 1179 531 
Q 1179 533 , 1183 534 
Q 1186 535 , 1195 535 
Q 1204 535 , 1207 534 
Q 1211 533 , 1211 531 
L 1211 524 
L 1220 524 
L 1220 531 
Q 1220 533 , 1214 535 
Q 1207 536 , 1195 536 
Q 1183 536 , 1176 535 
Q 1170 533 , 1170 531 
L 1170 524 
" fill="#D21010" />
<path d="
M 1120 482 
L 1129 482 
L 1129 506 
Q 1129 513 , 1133 516 
Q 1136 518 , 1145 518 
Q 1154 518 , 1157 516 
Q 1161 513 , 1161 506 
L 1161 482 
L 1170 482 
L 1170 507 
Q 1170 515 , 1164 519 
Q 1157 523 , 1145 523 
Q 1133 523 , 1126 519 
Q 1120 515 , 1120 507 
L 1120 482 
" fill="lightgray" />
<path d="
M 1195 490 
L 1186 506 
L 1203 506 
L 1195 490 
M 1191 482 
L 1199 482 
L 1220 523 
L 1212 523 
L 1206 511 
L 1184 511 
L 1177 523 
L 1170 523 
L 1191 482 
" fill="#339541" />
<path d="
M 1170 397 
L 1170 412 
Q 1163 402 , 1159 400 
Q 1154 397 , 1149 397 
Q 1139 397 , 1134 407 
Q 1128 416 , 1128 434 
Q 1128 452 , 1134 462 
Q 1139 471 , 1149 471 
Q 1154 471 , 1159 469 
Q 1163 466 , 1170 457 
L 1170 472 
Q 1165 477 , 1159 479 
Q 1155 481 , 1149 481 
Q 1135 481 , 1128 469 
Q 1120 456 , 1120 434 
Q 1120 413 , 1128 400 
Q 1135 387 , 1149 387 
Q 1155 387 , 1160 389 
Q 1165 392 , 1170 397 
" fill="lightgray" />
<path d="
M 1212 468 
L 1212 442 
L 1198 442 
L 1198 432 
L 1220 432 
L 1220 474 
Q 1215 478 , 1209 480 
Q 1204 481 , 1198 481 
Q 1185 481 , 1178 469 
Q 1170 456 , 1170 434 
Q 1170 412 , 1178 400 
Q 1185 387 , 1198 387 
Q 1204 387 , 1209 389 
Q 1214 390 , 1219 395 
L 1219 407 
Q 1212 401 , 1208 400 
Q 1204 398 , 1199 398 
Q 1189 398 , 1183 407 
Q 1178 416 , 1178 434 
Q 1178 453 , 1183 462 
Q 1189 471 , 1199 471 
Q 1204 471 , 1207 470 
Q 1211 469 , 1212 468 
" fill="#F5C000" />
<path d="
M 1325 553 
L 1325 553 
Q 1310 553 , 1302 553 
Q 1294 553 , 1284 553 
Q 1263 553 , 1253 553 
Q 1241 553 , 1241 553 
Q 1241 554 , 1253 554 
Q 1263 554 , 1284 554 
Q 1294 554 , 1302 554 
Q 1310 554 , 1325 554 
L 1325 554 
Q 1314 554 , 1304 554 
Q 1294 554 , 1283 554 
Q 1256 554 , 1241 554 
Q 1225 554 , 1225 554 
Q 1225 553 , 1241 553 
Q 1256 553 , 1283 553 
Q 1294 553 , 1304 553 
Q 1315 553 , 1325 553 
" fill="#545FFF" />
<path d="
M 1309 552 
L 1309 552 
L 1280 552 
L 1280 552 
L 1325 552 
L 1325 552 
Q 1314 552 , 1303 552 
Q 1294 552 , 1282 552 
Q 1256 552 , 1240 552 
Q 1225 552 , 1225 552 
Q 1225 551 , 1240 551 
Q 1256 551 , 1282 551 
Q 1293 551 , 1302 551 
Q 1312 551 , 1322 551 
L 1322 551 
Q 1309 551 , 1301 551 
Q 1292 551 , 1283 551 
Q 1262 551 , 1251 551 
Q 1241 551 , 1241 552 
Q 1241 552 , 1251 552 
Q 1262 552 , 1283 552 
Q 1292 552 , 1299 552 
Q 1306 552 , 1309 552 
" fill="#F5C000" />
<path d="
M 1275 549 
L 1257 550 
L 1291 550 
L 1275 549 
M 1268 549 
L 1282 549 
L 1325 551 
L 1309 551 
L 1297 550 
L 1253 550 
L 1240 551 
L 1225 551 
L 1268 549 
" fill="#339541" />
<path d="
M 1225 546 
L 1243 546 
L 1243 547 
Q 1243 548 , 1251 548 
Q 1258 548 , 1275 548 
Q 1292 548 , 1300 548 
Q 1307 548 , 1307 547 
L 1307 546 
L 1325 546 
L 1325 547 
Q 1325 548 , 1312 548 
Q 1300 548 , 1275 548 
Q 1251 548 , 1238 548 
Q 1225 548 , 1225 547 
L 1225 546 
" fill="#D21010" />
<path d="
M 1430 554 
L 1430 554 
Q 1415 554 , 1407 554 
Q 1399 554 , 1389 554 
Q 1368 554 , 1358 554 
Q 1346 554 , 1346 554 
Q 1346 554 , 1358 554 
Q 1368 554 , 1389 554 
Q 1399 554 , 1407 554 
Q 1415 554 , 1430 554 
L 1430 554 
Q 1419 554 , 1409 554 
Q 1399 554 , 1388 554 
Q 1361 554 , 1346 554 
Q 1330 554 , 1330 554 
Q 1330 554 , 1346 554 
Q 1361 554 , 1388 554 
Q 1399 554 , 1409 554 
Q 1420 554 , 1430 554 
" fill="#545FFF" />
<path d="
M 1380 553 
L 1362 553 
L 1396 553 
L 1380 553 
M 1373 553 
L 1387 553 
L 1430 554 
L 1414 554 
L 1402 553 
L 1358 553 
L 1345 554 
L 1330 554 
L 1373 553 
" fill="#339541" />
<path d="
M 1414 553 
L 1414 552 
L 1385 552 
L 1385 552 
L 1430 552 
L 1430 553 
Q 1419 553 , 1408 553 
Q 1399 553 , 1387 553 
Q 1361 553 , 1345 553 
Q 1330 552 , 1330 552 
Q 1330 552 , 1345 552 
Q 1361 552 , 1387 552 
Q 1398 552 , 1407 552 
Q 1417 552 , 1427 552 
L 1427 552 
Q 1414 552 , 1406 552 
Q 1397 552 , 1388 552 
Q 1367 552 , 1356 552 
Q 1346 552 , 1346 552 
Q 1346 552 , 1356 553 
Q 1367 553 , 1388 553 
Q 1397 553 , 1404 553 
Q 1411 553 , 1414 553 
" fill="#F5C000" />
<path d="
M 1330 551 
L 1348 551 
L 1348 551 
Q 1348 552 , 1356 552 
Q 1363 552 , 1380 552 
Q 1397 552 , 1405 552 
Q 1412 552 , 1412 551 
L 1412 551 
L 1430 551 
L 1430 551 
Q 1430 552 , 1417 552 
Q 1405 552 , 1380 552 
Q 1356 552 , 1343 552 
Q 1330 552 , 1330 551 
L 1330 551 
" fill="#D21010" />
<path d="M 65 168 L 65 555 " stroke="black" stroke-width="1.5"/>
<path d="M 55 555 L 65 555 " stroke="black" stroke-width="4"/>
<text text-anchor="end" x="50" y="555" font-size="50" alignment-baseline="middle">0</text>
<path d="M 55 362 L 65 362 " stroke="black" stroke-width="4"/>
<text text-anchor="end" x="50" y="362" font-size="50" alignment-baseline="middle">1</text>
<path d="M 55 168 L 65 168 " stroke="black" stroke-width="4"/>
<text text-anchor="end" x="50" y="168" font-size="50" alignment-baseline="middle">2</text>
<text text-anchor="middle" x="750" y="50" font-size="50" alignment-baseline="baseline"></text>
G<path d="
M 160 582 
L 126 595 
L 160 608 
L 157 611 
L 123 598 
L 123 623 
L 117 623 
L 117 599 
L 83 611 
L 80 608 
L 114 595 
L 80 582 
L 83 579 
L 117 591 
L 117 567 
L 123 567 
L 123 591 
L 157 579 
L 160 582 
" fill="black" />
<path d="
M 265 567 
Q 236 574 , 223 581 
Q 210 588 , 210 595 
Q 210 602 , 223 609 
Q 236 616 , 265 623 
L 241 623 
Q 213 616 , 199 609 
Q 185 602 , 185 595 
Q 185 588 , 199 581 
Q 213 574 , 241 567 
L 265 567 
" fill="black" />
<path d="
" fill="black" />
<path d="
M 316 567 
L 343 567 
L 343 623 
L 316 623 
L 316 567 
" fill="black" />
<path d="
" fill="black" />
<path d="
M 475 567 
Q 446 574 , 433 581 
Q 420 588 , 420 595 
Q 420 602 , 433 609 
Q 446 616 , 475 623 
L 451 623 
Q 423 616 , 409 609 
Q 395 602 , 395 595 
Q 395 588 , 409 581 
Q 423 574 , 451 567 
L 475 567 
" fill="black" />
<path d="
" fill="black" />
<path d="
M 526 567 
L 553 567 
L 553 623 
L 526 623 
L 526 567 
" fill="black" />
<path d="
" fill="black" />
<path d="
" fill="black" />
<path d="
M 622 567 
L 642 567 
L 642 623 
L 622 623 
L 622 567 
" fill="black" />
<path d="
" fill="black" />
<path d="
M 674 621 
L 674 616 
Q 675 618 , 677 619 
Q 678 619 , 680 619 
Q 686 619 , 688 609 
Q 689 604 , 689 595 
Q 689 597 , 687 600 
Q 685 603 , 681 603 
Q 677 603 , 675 598 
Q 672 593 , 672 586 
Q 672 577 , 675 572 
Q 677 567 , 682 567 
Q 687 567 , 689 574 
Q 692 581 , 692 595 
Q 692 609 , 689 616 
Q 685 623 , 680 623 
Q 678 623 , 677 622 
Q 675 622 , 674 621 
M 676 595 
Q 678 599 , 681 599 
Q 685 599 , 687 595 
Q 689 591 , 689 584 
Q 689 578 , 687 574 
Q 685 571 , 681 571 
Q 678 571 , 676 574 
Q 675 578 , 675 584 
Q 675 591 , 676 595 
" fill="black" />
<path d="
M 790 582 
L 756 595 
L 790 608 
L 787 611 
L 753 598 
L 753 623 
L 747 623 
L 747 599 
L 713 611 
L 710 608 
L 744 595 
L 710 582 
L 713 579 
L 747 591 
L 747 567 
L 753 567 
L 753 591 
L 787 579 
L 790 582 
" fill="black" />
<path d="
" fill="black" />
<path d="
M 841 567 
L 868 567 
L 868 623 
L 841 623 
L 841 567 
" fill="black" />
<path d="
" fill="black" />
<path d="
M 920 567 
L 944 567 
Q 972 574 , 986 581 
Q 1000 588 , 1000 595 
Q 1000 602 , 986 609 
Q 972 616 , 944 623 
L 920 623 
Q 949 616 , 962 609 
Q 975 602 , 975 595 
Q 975 588 , 962 581 
Q 949 574 , 920 567 
" fill="black" />
<path d="
" fill="black" />
<path d="
M 1051 567 
L 1078 567 
L 1078 623 
L 1051 623 
L 1051 567 
" fill="black" />
<path d="
" fill="black" />
<path d="
M 1130 567 
L 1154 567 
Q 1182 574 , 1196 581 
Q 1210 588 , 1210 595 
Q 1210 602 , 1196 609 
Q 1182 616 , 1154 623 
L 1130 623 
Q 1159 616 , 1172 609 
Q 1185 602 , 1185 595 
Q 1185 588 , 1172 581 
Q 1159 574 , 1130 567 
" fill="black" />
<path d="
" fill="black" />
<path d="
M 1261 567 
L 1288 567 
L 1288 623 
L 1261 623 
L 1261 567 
" fill="black" />
<path d="
" fill="black" />
<path d="
M 1420 582 
L 1386 595 
L 1420 608 
L 1417 611 
L 1383 598 
L 1383 623 
L 1377 623 
L 1377 599 
L 1343 611 
L 1340 608 
L 1374 595 
L 1340 582 
L 1343 579 
L 1377 591 
L 1377 567 
L 1383 567 
L 1383 591 
L 1417 579 
L 1420 582 
" fill="black" />
</svg>
