<svg xmlns="http://www.w3.org/2000/svg"
viewBox="0 0 700 635">
<path d="
M 70 554 
L 88 554 
L 88 554 
Q 88 555 , 96 555 
Q 103 555 , 120 555 
Q 137 555 , 145 555 
Q 152 555 , 152 554 
L 152 554 
L 170 554 
L 170 554 
Q 170 555 , 157 555 
Q 145 555 , 120 555 
Q 96 555 , 83 555 
Q 70 555 , 70 554 
L 70 554 
" fill="#D21010" />
<path d="
M 120 553 
L 102 553 
L 136 553 
L 120 553 
M 113 553 
L 127 553 
L 170 554 
L 154 554 
L 142 554 
L 98 554 
L 85 554 
L 70 554 
L 113 553 
" fill="#339541" />
<path d="
M 170 552 
L 170 552 
Q 155 552 , 147 552 
Q 139 552 , 129 552 
Q 108 552 , 98 552 
Q 86 552 , 86 552 
Q 86 553 , 98 553 
Q 108 553 , 129 553 
Q 139 553 , 147 553 
Q 155 553 , 170 553 
L 170 553 
Q 159 553 , 149 553 
Q 139 553 , 128 553 
Q 101 553 , 86 553 
Q 70 553 , 70 552 
Q 70 552 , 86 552 
Q 101 552 , 128 552 
Q 139 552 , 149 552 
Q 160 552 , 170 552 
" fill="#545FFF" />
<path d="
M 154 551 
L 154 551 
L 125 551 
L 125 551 
L 170 551 
L 170 551 
Q 159 551 , 148 551 
Q 139 551 , 127 551 
Q 101 551 , 85 551 
Q 70 551 , 70 551 
Q 70 550 , 85 550 
Q 101 550 , 127 550 
Q 138 550 , 147 550 
Q 157 550 , 167 550 
L 167 550 
Q 154 550 , 146 550 
Q 137 550 , 128 550 
Q 107 550 , 96 550 
Q 86 550 , 86 551 
Q 86 551 , 96 551 
Q 107 551 , 128 551 
Q 137 551 , 144 551 
Q 151 551 , 154 551 
" fill="#F5C000" />
<path d="
M 175 549 
L 193 549 
L 193 552 
Q 193 553 , 201 554 
Q 208 554 , 225 554 
Q 242 554 , 250 554 
Q 257 553 , 257 552 
L 257 549 
L 275 549 
L 275 552 
Q 275 554 , 262 554 
Q 250 555 , 225 555 
Q 201 555 , 188 554 
Q 175 554 , 175 552 
L 175 549 
" fill="#D21010" />
<path d="
M 225 542 
L 207 545 
L 241 545 
L 225 542 
M 218 540 
L 232 540 
L 275 549 
L 259 549 
L 247 546 
L 203 546 
L 190 549 
L 175 549 
L 218 540 
" fill="#339541" />
<path d="
M 275 509 
L 275 514 
Q 260 511 , 252 510 
Q 244 509 , 234 509 
Q 213 509 , 203 512 
Q 191 516 , 191 522 
Q 191 529 , 203 533 
Q 213 536 , 234 536 
Q 244 536 , 252 535 
Q 260 534 , 275 531 
L 275 536 
Q 264 538 , 254 539 
Q 244 540 , 233 540 
Q 206 540 , 191 535 
Q 175 530 , 175 522 
Q 175 514 , 191 510 
Q 206 505 , 233 505 
Q 244 505 , 254 506 
Q 265 507 , 275 509 
" fill="#545FFF" />
<path d="
M 259 471 
L 259 409 
L 230 409 
L 230 383 
L 275 383 
L 275 487 
Q 264 496 , 253 500 
Q 244 504 , 232 504 
Q 206 504 , 190 473 
Q 175 442 , 175 388 
Q 175 334 , 190 303 
Q 206 272 , 232 272 
Q 243 272 , 252 276 
Q 262 280 , 272 291 
L 272 321 
Q 259 307 , 251 303 
Q 242 300 , 233 300 
Q 212 300 , 201 321 
Q 191 343 , 191 388 
Q 191 434 , 201 456 
Q 212 479 , 233 479 
Q 242 479 , 249 476 
Q 256 474 , 259 471 
" fill="#F5C000" />
<path d="
M 280 552 
L 298 552 
L 298 554 
Q 298 554 , 306 554 
Q 313 555 , 330 555 
Q 347 555 , 355 554 
Q 362 554 , 362 554 
L 362 552 
L 380 552 
L 380 554 
Q 380 554 , 367 555 
Q 355 555 , 330 555 
Q 306 555 , 293 555 
Q 280 554 , 280 554 
L 280 552 
" fill="#D21010" />
<path d="
M 364 549 
L 364 545 
L 335 545 
L 335 544 
L 380 544 
L 380 551 
Q 369 551 , 358 551 
Q 349 552 , 337 552 
Q 311 552 , 295 550 
Q 280 548 , 280 544 
Q 280 540 , 295 538 
Q 311 536 , 337 536 
Q 348 536 , 357 536 
Q 367 537 , 377 537 
L 377 539 
Q 364 538 , 356 538 
Q 347 538 , 338 538 
Q 317 538 , 306 539 
Q 296 541 , 296 544 
Q 296 547 , 306 548 
Q 317 550 , 338 550 
Q 347 550 , 354 550 
Q 361 550 , 364 549 
" fill="#F5C000" />
<path d="
M 330 509 
L 312 522 
L 346 522 
L 330 509 
M 323 503 
L 337 503 
L 380 535 
L 364 535 
L 352 526 
L 308 526 
L 295 535 
L 280 535 
L 323 503 
" fill="#339541" />
<path d="
M 380 457 
L 380 465 
Q 365 460 , 357 459 
Q 349 458 , 339 458 
Q 318 458 , 308 462 
Q 296 467 , 296 477 
Q 296 487 , 308 492 
Q 318 497 , 339 497 
Q 349 497 , 357 496 
Q 365 494 , 380 489 
L 380 497 
Q 369 500 , 359 501 
Q 349 502 , 338 502 
Q 311 502 , 296 495 
Q 280 489 , 280 477 
Q 280 466 , 296 459 
Q 311 452 , 338 452 
Q 349 452 , 359 453 
Q 370 454 , 380 457 
" fill="#545FFF" />
<path d="
M 385 552 
L 403 552 
L 403 554 
Q 403 554 , 411 554 
Q 418 554 , 435 554 
Q 452 554 , 460 554 
Q 467 554 , 467 554 
L 467 552 
L 485 552 
L 485 554 
Q 485 554 , 472 554 
Q 460 555 , 435 555 
Q 411 555 , 398 554 
Q 385 554 , 385 554 
L 385 552 
" fill="#D21010" />
<path d="
M 469 551 
L 469 550 
L 440 550 
L 440 550 
L 485 550 
L 485 551 
Q 474 551 , 463 551 
Q 454 551 , 442 551 
Q 416 551 , 400 551 
Q 385 550 , 385 550 
Q 385 549 , 400 548 
Q 416 548 , 442 548 
Q 453 548 , 462 548 
Q 472 548 , 482 548 
L 482 549 
Q 469 549 , 461 548 
Q 452 548 , 443 548 
Q 422 548 , 411 549 
Q 401 549 , 401 550 
Q 401 550 , 411 551 
Q 422 551 , 443 551 
Q 452 551 , 459 551 
Q 466 551 , 469 551 
" fill="#F5C000" />
<path d="
M 485 543 
L 485 544 
Q 470 544 , 462 544 
Q 454 543 , 444 543 
Q 423 543 , 413 544 
Q 401 544 , 401 545 
Q 401 546 , 413 546 
Q 423 547 , 444 547 
Q 454 547 , 462 547 
Q 470 546 , 485 546 
L 485 547 
Q 474 547 , 464 547 
Q 454 547 , 443 547 
Q 416 547 , 401 547 
Q 385 546 , 385 545 
Q 385 544 , 401 544 
Q 416 543 , 443 543 
Q 454 543 , 464 543 
Q 475 543 , 485 543 
" fill="#545FFF" />
<path d="
M 435 538 
L 417 541 
L 451 541 
L 435 538 
M 428 537 
L 442 537 
L 485 543 
L 469 543 
L 457 541 
L 413 541 
L 400 543 
L 385 543 
L 428 537 
" fill="#339541" />
<path d="
M 490 551 
L 508 551 
L 508 553 
Q 508 554 , 516 554 
Q 523 554 , 540 554 
Q 557 554 , 565 554 
Q 572 554 , 572 553 
L 572 551 
L 590 551 
L 590 553 
Q 590 554 , 577 554 
Q 565 554 , 540 554 
Q 516 554 , 503 554 
Q 490 554 , 490 553 
L 490 551 
" fill="#D21010" />
<path d="
M 540 546 
L 522 548 
L 556 548 
L 540 546 
M 533 545 
L 547 545 
L 590 550 
L 574 550 
L 562 549 
L 518 549 
L 505 550 
L 490 550 
L 533 545 
" fill="#339541" />
<path d="
M 590 499 
L 590 507 
Q 575 502 , 567 501 
Q 559 500 , 549 500 
Q 528 500 , 518 505 
Q 506 510 , 506 519 
Q 506 529 , 518 534 
Q 528 539 , 549 539 
Q 559 539 , 567 538 
Q 575 536 , 590 531 
L 590 539 
Q 579 542 , 569 543 
Q 559 545 , 548 545 
Q 521 545 , 506 538 
Q 490 531 , 490 519 
Q 490 508 , 506 501 
Q 521 494 , 548 494 
Q 559 494 , 569 495 
Q 580 496 , 590 499 
" fill="#545FFF" />
<path d="
M 574 463 
L 574 407 
L 545 407 
L 545 383 
L 590 383 
L 590 477 
Q 579 486 , 568 490 
Q 559 493 , 547 494 
Q 521 494 , 505 465 
Q 490 437 , 490 388 
Q 490 338 , 505 310 
Q 521 282 , 547 282 
Q 558 282 , 567 286 
Q 577 290 , 587 299 
L 587 326 
Q 574 314 , 566 311 
Q 557 307 , 548 307 
Q 527 307 , 516 327 
Q 506 347 , 506 388 
Q 506 430 , 516 450 
Q 527 470 , 548 470 
Q 557 470 , 564 468 
Q 571 466 , 574 463 
" fill="#F5C000" />
<path d="
M 595 554 
L 613 554 
L 613 554 
Q 613 555 , 621 555 
Q 628 555 , 645 555 
Q 662 555 , 670 555 
Q 677 555 , 677 554 
L 677 554 
L 695 554 
L 695 554 
Q 695 555 , 682 555 
Q 670 555 , 645 555 
Q 621 555 , 608 555 
Q 595 555 , 595 554 
L 595 554 
" fill="#D21010" />
<path d="
M 645 553 
L 627 553 
L 661 553 
L 645 553 
M 638 553 
L 652 553 
L 695 554 
L 679 554 
L 667 554 
L 623 554 
L 610 554 
L 595 554 
L 638 553 
" fill="#339541" />
<path d="
M 695 552 
L 695 552 
Q 680 552 , 672 552 
Q 664 552 , 654 552 
Q 633 552 , 623 552 
Q 611 552 , 611 552 
Q 611 553 , 623 553 
Q 633 553 , 654 553 
Q 664 553 , 672 553 
Q 680 553 , 695 553 
L 695 553 
Q 684 553 , 674 553 
Q 664 553 , 653 553 
Q 626 553 , 611 553 
Q 595 553 , 595 552 
Q 595 552 , 611 552 
Q 626 552 , 653 552 
Q 664 552 , 674 552 
Q 685 552 , 695 552 
" fill="#545FFF" />
<path d="
M 679 551 
L 679 551 
L 650 551 
L 650 551 
L 695 551 
L 695 551 
Q 684 551 , 673 551 
Q 664 551 , 652 551 
Q 626 551 , 610 551 
Q 595 551 , 595 551 
Q 595 550 , 610 550 
Q 626 550 , 652 550 
Q 663 550 , 672 550 
Q 682 550 , 692 550 
L 692 550 
Q 679 550 , 671 550 
Q 662 550 , 653 550 
Q 632 550 , 621 550 
Q 611 550 , 611 551 
Q 611 551 , 621 551 
Q 632 551 , 653 551 
Q 662 551 , 669 551 
Q 676 551 , 679 551 
" fill="#F5C000" />
<path d="M 65 55 L 65 555 " stroke="black" stroke-width="1.5"/>
<path d="M 55 555 L 65 555 " stroke="black" stroke-width="4"/>
<text text-anchor="end" x="50" y="555" font-size="50" alignment-baseline="middle">0</text>
<path d="M 55 305 L 65 305 " stroke="black" stroke-width="4"/>
<text text-anchor="end" x="50" y="305" font-size="50" alignment-baseline="middle">1</text>
<path d="M 55 55 L 65 55 " stroke="black" stroke-width="4"/>
<text text-anchor="end" x="50" y="55" font-size="50" alignment-baseline="middle">2</text>
<text text-anchor="middle" x="382" y="50" font-size="50" alignment-baseline="baseline"></text>
G<path d="
M 160 582 
L 126 595 
L 160 608 
L 157 611 
L 123 598 
L 123 623 
L 117 623 
L 117 599 
L 83 611 
L 80 608 
L 114 595 
L 80 582 
L 83 579 
L 117 591 
L 117 567 
L 123 567 
L 123 591 
L 157 579 
L 160 582 
" fill="black" />
<path d="
" fill="black" />
<path d="
M 211 567 
L 238 567 
L 238 623 
L 211 623 
L 211 567 
" fill="black" />
<path d="
" fill="black" />
<path d="
" fill="black" />
<path d="
M 316 567 
L 343 567 
L 343 623 
L 316 623 
L 316 567 
" fill="black" />
<path d="
" fill="black" />
<path d="
" fill="black" />
<path d="
M 421 567 
L 448 567 
L 448 623 
L 421 623 
L 421 567 
" fill="black" />
<path d="
" fill="black" />
<path d="
" fill="black" />
<path d="
M 526 567 
L 553 567 
L 553 623 
L 526 623 
L 526 567 
" fill="black" />
<path d="
" fill="black" />
<path d="
M 685 582 
L 651 595 
L 685 608 
L 682 611 
L 648 598 
L 648 623 
L 642 623 
L 642 599 
L 608 611 
L 605 608 
L 639 595 
L 605 582 
L 608 579 
L 642 591 
L 642 567 
L 648 567 
L 648 591 
L 682 579 
L 685 582 
" fill="black" />
</svg>
