<svg xmlns="http://www.w3.org/2000/svg"
viewBox="0 0 1435 635">
<path d="
M 70 554 
L 88 554 
L 88 554 
Q 88 555 , 96 555 
Q 103 555 , 120 555 
Q 137 555 , 145 555 
Q 152 555 , 152 554 
L 152 554 
L 170 554 
L 170 554 
Q 170 555 , 157 555 
Q 145 555 , 120 555 
Q 96 555 , 83 555 
Q 70 555 , 70 554 
L 70 554 
" fill="#D21010" />
<path d="
M 120 553 
L 102 553 
L 136 553 
L 120 553 
M 113 553 
L 127 553 
L 170 554 
L 154 554 
L 142 554 
L 98 554 
L 85 554 
L 70 554 
L 113 553 
" fill="#339541" />
<path d="
M 170 552 
L 170 552 
Q 155 552 , 147 552 
Q 139 552 , 129 552 
Q 108 552 , 98 552 
Q 86 552 , 86 552 
Q 86 553 , 98 553 
Q 108 553 , 129 553 
Q 139 553 , 147 553 
Q 155 553 , 170 553 
L 170 553 
Q 159 553 , 149 553 
Q 139 553 , 128 553 
Q 101 553 , 86 553 
Q 70 553 , 70 552 
Q 70 552 , 86 552 
Q 101 552 , 128 552 
Q 139 552 , 149 552 
Q 160 552 , 170 552 
" fill="#545FFF" />
<path d="
M 154 552 
L 154 552 
L 125 552 
L 125 551 
L 170 551 
L 170 552 
Q 159 552 , 148 552 
Q 139 552 , 127 552 
Q 101 552 , 85 552 
Q 70 552 , 70 551 
Q 70 551 , 85 551 
Q 101 551 , 127 551 
Q 138 551 , 147 551 
Q 157 551 , 167 551 
L 167 551 
Q 154 551 , 146 551 
Q 137 551 , 128 551 
Q 107 551 , 96 551 
Q 86 551 , 86 551 
Q 86 552 , 96 552 
Q 107 552 , 128 552 
Q 137 552 , 144 552 
Q 151 552 , 154 552 
" fill="#F5C000" />
<path d="
M 225 547 
L 207 551 
L 241 551 
L 225 547 
M 218 545 
L 232 545 
L 275 555 
L 259 555 
L 247 552 
L 203 552 
L 190 555 
L 175 555 
L 218 545 
" fill="#339541" />
<path d="
M 175 528 
L 193 528 
L 193 538 
Q 193 541 , 201 542 
Q 208 543 , 225 543 
Q 242 543 , 250 542 
Q 257 541 , 257 538 
L 257 528 
L 275 528 
L 275 538 
Q 275 541 , 262 543 
Q 250 545 , 225 545 
Q 201 545 , 188 543 
Q 175 541 , 175 538 
L 175 528 
" fill="#D21010" />
<path d="
M 275 507 
L 275 510 
Q 260 508 , 252 507 
Q 244 507 , 234 507 
Q 213 507 , 203 509 
Q 191 511 , 191 516 
Q 191 521 , 203 523 
Q 213 525 , 234 525 
Q 244 525 , 252 525 
Q 260 524 , 275 522 
L 275 525 
Q 264 527 , 254 527 
Q 244 528 , 233 528 
Q 206 528 , 191 525 
Q 175 521 , 175 516 
Q 175 510 , 191 507 
Q 206 504 , 233 504 
Q 244 504 , 254 505 
Q 265 505 , 275 507 
" fill="#545FFF" />
<path d="
M 259 486 
L 259 453 
L 230 453 
L 230 440 
L 275 440 
L 275 495 
Q 264 500 , 253 502 
Q 244 504 , 232 504 
Q 206 504 , 190 487 
Q 175 471 , 175 443 
Q 175 414 , 190 397 
Q 206 381 , 232 381 
Q 243 381 , 252 383 
Q 262 385 , 272 391 
L 272 407 
Q 259 400 , 251 398 
Q 242 396 , 233 396 
Q 212 396 , 201 407 
Q 191 419 , 191 443 
Q 191 467 , 201 479 
Q 212 490 , 233 490 
Q 242 490 , 249 489 
Q 256 488 , 259 486 
" fill="#F5C000" />
<path d="
M 280 553 
L 298 553 
L 298 554 
Q 298 554 , 306 555 
Q 313 555 , 330 555 
Q 347 555 , 355 555 
Q 362 554 , 362 554 
L 362 553 
L 380 553 
L 380 554 
Q 380 555 , 367 555 
Q 355 555 , 330 555 
Q 306 555 , 293 555 
Q 280 555 , 280 554 
L 280 553 
" fill="#D21010" />
<path d="
M 380 536 
L 380 539 
Q 365 537 , 357 537 
Q 349 536 , 339 536 
Q 318 536 , 308 538 
Q 296 540 , 296 543 
Q 296 547 , 308 549 
Q 318 551 , 339 551 
Q 349 551 , 357 550 
Q 365 550 , 380 548 
L 380 551 
Q 369 552 , 359 553 
Q 349 553 , 338 553 
Q 311 553 , 296 550 
Q 280 548 , 280 543 
Q 280 539 , 296 537 
Q 311 534 , 338 534 
Q 349 534 , 359 534 
Q 370 535 , 380 536 
" fill="#545FFF" />
<path d="
M 330 509 
L 312 521 
L 346 521 
L 330 509 
M 323 504 
L 337 504 
L 380 533 
L 364 533 
L 352 525 
L 308 525 
L 295 533 
L 280 533 
L 323 504 
" fill="#339541" />
<path d="
M 364 498 
L 364 487 
L 335 487 
L 335 483 
L 380 483 
L 380 500 
Q 369 502 , 358 503 
Q 349 503 , 337 504 
Q 311 504 , 295 498 
Q 280 493 , 280 484 
Q 280 475 , 295 469 
Q 311 464 , 337 464 
Q 348 464 , 357 465 
Q 367 465 , 377 467 
L 377 472 
Q 364 470 , 356 469 
Q 347 469 , 338 469 
Q 317 469 , 306 472 
Q 296 476 , 296 484 
Q 296 492 , 306 495 
Q 317 499 , 338 499 
Q 347 499 , 354 499 
Q 361 498 , 364 498 
" fill="#F5C000" />
<path d="
M 485 550 
L 485 551 
Q 470 550 , 462 550 
Q 454 550 , 444 550 
Q 423 550 , 413 550 
Q 401 551 , 401 552 
Q 401 553 , 413 554 
Q 423 554 , 444 554 
Q 454 554 , 462 554 
Q 470 554 , 485 553 
L 485 554 
Q 474 555 , 464 555 
Q 454 555 , 443 555 
Q 416 555 , 401 554 
Q 385 553 , 385 552 
Q 385 551 , 401 550 
Q 416 549 , 443 549 
Q 454 549 , 464 549 
Q 475 549 , 485 550 
" fill="#545FFF" />
<path d="
M 469 547 
L 469 545 
L 440 545 
L 440 544 
L 485 544 
L 485 547 
Q 474 548 , 463 548 
Q 454 548 , 442 548 
Q 416 548 , 400 547 
Q 385 546 , 385 544 
Q 385 542 , 400 541 
Q 416 540 , 442 540 
Q 453 540 , 462 540 
Q 472 540 , 482 541 
L 482 542 
Q 469 541 , 461 541 
Q 452 541 , 443 541 
Q 422 541 , 411 542 
Q 401 542 , 401 544 
Q 401 546 , 411 546 
Q 422 547 , 443 547 
Q 452 547 , 459 547 
Q 466 547 , 469 547 
" fill="#F5C000" />
<path d="
M 435 519 
L 417 529 
L 451 529 
L 435 519 
M 428 514 
L 442 514 
L 485 540 
L 469 540 
L 457 532 
L 413 532 
L 400 540 
L 385 540 
L 428 514 
" fill="#339541" />
<path d="
M 385 484 
L 403 484 
L 403 501 
Q 403 506 , 411 508 
Q 418 510 , 435 510 
Q 452 510 , 460 508 
Q 467 506 , 467 501 
L 467 484 
L 485 484 
L 485 502 
Q 485 507 , 472 510 
Q 460 513 , 435 513 
Q 411 513 , 398 510 
Q 385 507 , 385 502 
L 385 484 
" fill="#D21010" />
<path d="
M 490 548 
L 508 548 
L 508 552 
Q 508 553 , 516 553 
Q 523 554 , 540 554 
Q 557 554 , 565 553 
Q 572 553 , 572 552 
L 572 548 
L 590 548 
L 590 552 
Q 590 553 , 577 554 
Q 565 554 , 540 554 
Q 516 554 , 503 554 
Q 490 553 , 490 552 
L 490 548 
" fill="#D21010" />
<path d="
M 540 540 
L 522 544 
L 556 544 
L 540 540 
M 533 538 
L 547 538 
L 590 547 
L 574 547 
L 562 545 
L 518 545 
L 505 547 
L 490 547 
L 533 538 
" fill="#339541" />
<path d="
M 590 524 
L 590 526 
Q 575 525 , 567 524 
Q 559 524 , 549 524 
Q 528 524 , 518 525 
Q 506 527 , 506 530 
Q 506 533 , 518 535 
Q 528 536 , 549 536 
Q 559 536 , 567 536 
Q 575 535 , 590 534 
L 590 536 
Q 579 537 , 569 537 
Q 559 538 , 548 538 
Q 521 538 , 506 536 
Q 490 534 , 490 530 
Q 490 526 , 506 524 
Q 521 522 , 548 522 
Q 559 522 , 569 522 
Q 580 523 , 590 524 
" fill="#545FFF" />
<path d="
M 574 474 
L 574 386 
L 545 386 
L 545 350 
L 590 350 
L 590 496 
Q 579 510 , 568 516 
Q 559 521 , 547 522 
Q 521 522 , 505 478 
Q 490 434 , 490 357 
Q 490 281 , 505 237 
Q 521 193 , 547 193 
Q 558 193 , 567 199 
Q 577 205 , 587 220 
L 587 262 
Q 574 243 , 566 237 
Q 557 232 , 548 232 
Q 527 232 , 516 263 
Q 506 294 , 506 357 
Q 506 422 , 516 454 
Q 527 485 , 548 485 
Q 557 485 , 564 482 
Q 571 479 , 574 474 
" fill="#F5C000" />
<path d="
M 595 551 
L 613 551 
L 613 553 
Q 613 553 , 621 554 
Q 628 554 , 645 554 
Q 662 554 , 670 554 
Q 677 553 , 677 553 
L 677 551 
L 695 551 
L 695 553 
Q 695 554 , 682 554 
Q 670 554 , 645 554 
Q 621 554 , 608 554 
Q 595 554 , 595 553 
L 595 551 
" fill="#D21010" />
<path d="
M 645 546 
L 627 548 
L 661 548 
L 645 546 
M 638 545 
L 652 545 
L 695 551 
L 679 551 
L 667 549 
L 623 549 
L 610 551 
L 595 551 
L 638 545 
" fill="#339541" />
<path d="
M 695 539 
L 695 540 
Q 680 539 , 672 539 
Q 664 539 , 654 539 
Q 633 539 , 623 539 
Q 611 540 , 611 541 
Q 611 543 , 623 543 
Q 633 544 , 654 544 
Q 664 544 , 672 544 
Q 680 544 , 695 543 
L 695 544 
Q 684 545 , 674 545 
Q 664 545 , 653 545 
Q 626 545 , 611 544 
Q 595 543 , 595 541 
Q 595 540 , 611 539 
Q 626 538 , 653 538 
Q 664 538 , 674 538 
Q 685 538 , 695 539 
" fill="#545FFF" />
<path d="
M 679 536 
L 679 534 
L 650 534 
L 650 533 
L 695 533 
L 695 537 
Q 684 537 , 673 538 
Q 664 538 , 652 538 
Q 626 538 , 610 536 
Q 595 535 , 595 533 
Q 595 531 , 610 529 
Q 626 528 , 652 528 
Q 663 528 , 672 528 
Q 682 528 , 692 529 
L 692 530 
Q 679 529 , 671 529 
Q 662 529 , 653 529 
Q 632 529 , 621 530 
Q 611 531 , 611 533 
Q 611 535 , 621 536 
Q 632 537 , 653 537 
Q 662 537 , 669 537 
Q 676 536 , 679 536 
" fill="#F5C000" />
<path d="
M 700 554 
L 718 554 
L 718 554 
Q 718 555 , 726 555 
Q 733 555 , 750 555 
Q 767 555 , 775 555 
Q 782 555 , 782 554 
L 782 554 
L 800 554 
L 800 554 
Q 800 555 , 787 555 
Q 775 555 , 750 555 
Q 726 555 , 713 555 
Q 700 555 , 700 554 
L 700 554 
" fill="#D21010" />
<path d="
M 750 553 
L 732 553 
L 766 553 
L 750 553 
M 743 553 
L 757 553 
L 800 554 
L 784 554 
L 772 554 
L 728 554 
L 715 554 
L 700 554 
L 743 553 
" fill="#339541" />
<path d="
M 800 552 
L 800 552 
Q 785 552 , 777 552 
Q 769 552 , 759 552 
Q 738 552 , 728 552 
Q 716 552 , 716 552 
Q 716 553 , 728 553 
Q 738 553 , 759 553 
Q 769 553 , 777 553 
Q 785 553 , 800 553 
L 800 553 
Q 789 553 , 779 553 
Q 769 553 , 758 553 
Q 731 553 , 716 553 
Q 700 553 , 700 552 
Q 700 552 , 716 552 
Q 731 552 , 758 552 
Q 769 552 , 779 552 
Q 790 552 , 800 552 
" fill="#545FFF" />
<path d="
M 784 552 
L 784 552 
L 755 552 
L 755 551 
L 800 551 
L 800 552 
Q 789 552 , 778 552 
Q 769 552 , 757 552 
Q 731 552 , 715 552 
Q 700 552 , 700 551 
Q 700 551 , 715 551 
Q 731 551 , 757 551 
Q 768 551 , 777 551 
Q 787 551 , 797 551 
L 797 551 
Q 784 551 , 776 551 
Q 767 551 , 758 551 
Q 737 551 , 726 551 
Q 716 551 , 716 551 
Q 716 552 , 726 552 
Q 737 552 , 758 552 
Q 767 552 , 774 552 
Q 781 552 , 784 552 
" fill="#F5C000" />
<path d="
M 805 552 
L 823 552 
L 823 553 
Q 823 554 , 831 554 
Q 838 554 , 855 554 
Q 872 554 , 880 554 
Q 887 554 , 887 553 
L 887 552 
L 905 552 
L 905 554 
Q 905 554 , 892 554 
Q 880 555 , 855 555 
Q 831 555 , 818 554 
Q 805 554 , 805 554 
L 805 552 
" fill="#D21010" />
<path d="
M 855 539 
L 837 545 
L 871 545 
L 855 539 
M 848 536 
L 862 536 
L 905 551 
L 889 551 
L 877 547 
L 833 547 
L 820 551 
L 805 551 
L 848 536 
" fill="#339541" />
<path d="
M 889 530 
L 889 519 
L 860 519 
L 860 514 
L 905 514 
L 905 532 
Q 894 534 , 883 535 
Q 874 535 , 862 535 
Q 836 535 , 820 530 
Q 805 525 , 805 515 
Q 805 506 , 820 500 
Q 836 495 , 862 495 
Q 873 495 , 882 496 
Q 892 496 , 902 498 
L 902 503 
Q 889 501 , 881 500 
Q 872 500 , 863 500 
Q 842 500 , 831 504 
Q 821 507 , 821 515 
Q 821 523 , 831 527 
Q 842 531 , 863 531 
Q 872 531 , 879 530 
Q 886 530 , 889 530 
" fill="#F5C000" />
<path d="
M 905 446 
L 905 454 
Q 890 449 , 882 447 
Q 874 446 , 864 446 
Q 843 446 , 833 451 
Q 821 457 , 821 467 
Q 821 478 , 833 483 
Q 843 489 , 864 489 
Q 874 489 , 882 487 
Q 890 486 , 905 480 
L 905 489 
Q 894 492 , 884 493 
Q 874 495 , 863 495 
Q 836 495 , 821 487 
Q 805 480 , 805 467 
Q 805 455 , 821 447 
Q 836 440 , 863 440 
Q 874 440 , 884 441 
Q 895 443 , 905 446 
" fill="#545FFF" />
<path d="
M 994 553 
L 994 550 
L 965 550 
L 965 549 
L 1010 549 
L 1010 553 
Q 999 554 , 988 554 
Q 979 554 , 967 554 
Q 941 554 , 925 553 
Q 910 552 , 910 550 
Q 910 547 , 925 546 
Q 941 545 , 967 545 
Q 978 545 , 987 545 
Q 997 545 , 1007 546 
L 1007 547 
Q 994 546 , 986 546 
Q 977 546 , 968 546 
Q 947 546 , 936 547 
Q 926 548 , 926 550 
Q 926 551 , 936 552 
Q 947 553 , 968 553 
Q 977 553 , 984 553 
Q 991 553 , 994 553 
" fill="#F5C000" />
<path d="
M 910 528 
L 928 528 
L 928 538 
Q 928 540 , 936 541 
Q 943 542 , 960 542 
Q 977 542 , 985 541 
Q 992 540 , 992 538 
L 992 528 
L 1010 528 
L 1010 538 
Q 1010 541 , 997 543 
Q 985 544 , 960 544 
Q 936 544 , 923 543 
Q 910 541 , 910 538 
L 910 528 
" fill="#D21010" />
<path d="
M 1010 505 
L 1010 509 
Q 995 506 , 987 505 
Q 979 505 , 969 505 
Q 948 505 , 938 507 
Q 926 510 , 926 515 
Q 926 520 , 938 522 
Q 948 525 , 969 525 
Q 979 525 , 987 524 
Q 995 523 , 1010 521 
L 1010 525 
Q 999 526 , 989 527 
Q 979 527 , 968 527 
Q 941 527 , 926 524 
Q 910 520 , 910 515 
Q 910 509 , 926 505 
Q 941 502 , 968 502 
Q 979 502 , 989 503 
Q 1000 503 , 1010 505 
" fill="#545FFF" />
<path d="
M 960 407 
L 942 454 
L 976 454 
L 960 407 
M 953 386 
L 967 386 
L 1010 501 
L 994 501 
L 982 467 
L 938 467 
L 925 501 
L 910 501 
L 953 386 
" fill="#339541" />
<path d="
M 1015 543 
L 1033 543 
L 1033 550 
Q 1033 551 , 1041 552 
Q 1048 553 , 1065 553 
Q 1082 553 , 1090 552 
Q 1097 551 , 1097 550 
L 1097 543 
L 1115 543 
L 1115 550 
Q 1115 552 , 1102 553 
Q 1090 554 , 1065 554 
Q 1041 554 , 1028 553 
Q 1015 552 , 1015 550 
L 1015 543 
" fill="#D21010" />
<path d="
M 1065 532 
L 1047 538 
L 1081 538 
L 1065 532 
M 1058 530 
L 1072 530 
L 1115 543 
L 1099 543 
L 1087 539 
L 1043 539 
L 1030 543 
L 1015 543 
L 1058 530 
" fill="#339541" />
<path d="
M 1115 505 
L 1115 509 
Q 1100 506 , 1092 506 
Q 1084 505 , 1074 505 
Q 1053 505 , 1043 508 
Q 1031 510 , 1031 515 
Q 1031 521 , 1043 524 
Q 1053 526 , 1074 526 
Q 1084 526 , 1092 526 
Q 1100 525 , 1115 522 
L 1115 526 
Q 1104 528 , 1094 529 
Q 1084 529 , 1073 529 
Q 1046 529 , 1031 525 
Q 1015 522 , 1015 516 
Q 1015 509 , 1031 506 
Q 1046 502 , 1073 502 
Q 1084 502 , 1094 503 
Q 1105 503 , 1115 505 
" fill="#545FFF" />
<path d="
M 1099 478 
L 1099 433 
L 1070 433 
L 1070 415 
L 1115 415 
L 1115 489 
Q 1104 496 , 1093 499 
Q 1084 501 , 1072 502 
Q 1046 502 , 1030 479 
Q 1015 457 , 1015 418 
Q 1015 380 , 1030 357 
Q 1046 335 , 1072 335 
Q 1083 335 , 1092 338 
Q 1102 341 , 1112 348 
L 1112 370 
Q 1099 360 , 1091 358 
Q 1082 355 , 1073 355 
Q 1052 355 , 1041 370 
Q 1031 386 , 1031 418 
Q 1031 451 , 1041 467 
Q 1052 483 , 1073 483 
Q 1082 483 , 1089 482 
Q 1096 480 , 1099 478 
" fill="#F5C000" />
<path d="
M 1120 550 
L 1138 550 
L 1138 553 
Q 1138 554 , 1146 554 
Q 1153 554 , 1170 554 
Q 1187 554 , 1195 554 
Q 1202 554 , 1202 553 
L 1202 550 
L 1220 550 
L 1220 553 
Q 1220 554 , 1207 554 
Q 1195 555 , 1170 555 
Q 1146 555 , 1133 554 
Q 1120 554 , 1120 553 
L 1120 550 
" fill="#D21010" />
<path d="
M 1170 543 
L 1152 546 
L 1186 546 
L 1170 543 
M 1163 541 
L 1177 541 
L 1220 550 
L 1204 550 
L 1192 547 
L 1148 547 
L 1135 550 
L 1120 550 
L 1163 541 
" fill="#339541" />
<path d="
M 1220 510 
L 1220 515 
Q 1205 512 , 1197 511 
Q 1189 510 , 1179 510 
Q 1158 510 , 1148 513 
Q 1136 517 , 1136 523 
Q 1136 530 , 1148 533 
Q 1158 537 , 1179 537 
Q 1189 537 , 1197 536 
Q 1205 535 , 1220 532 
L 1220 537 
Q 1209 539 , 1199 540 
Q 1189 540 , 1178 540 
Q 1151 540 , 1136 536 
Q 1120 531 , 1120 523 
Q 1120 515 , 1136 511 
Q 1151 506 , 1178 506 
Q 1189 506 , 1199 507 
Q 1210 508 , 1220 510 
" fill="#545FFF" />
<path d="
M 1204 471 
L 1204 406 
L 1175 406 
L 1175 379 
L 1220 379 
L 1220 487 
Q 1209 497 , 1198 501 
Q 1189 505 , 1177 506 
Q 1151 506 , 1135 473 
Q 1120 441 , 1120 384 
Q 1120 328 , 1135 296 
Q 1151 263 , 1177 263 
Q 1188 263 , 1197 267 
Q 1207 272 , 1217 283 
L 1217 314 
Q 1204 300 , 1196 296 
Q 1187 292 , 1178 292 
Q 1157 292 , 1146 315 
Q 1136 338 , 1136 384 
Q 1136 432 , 1146 456 
Q 1157 479 , 1178 479 
Q 1187 479 , 1194 476 
Q 1201 474 , 1204 471 
" fill="#F5C000" />
<path d="
M 1309 554 
L 1309 553 
L 1280 553 
L 1280 552 
L 1325 552 
L 1325 555 
Q 1314 555 , 1303 555 
Q 1294 555 , 1282 555 
Q 1256 555 , 1240 554 
Q 1225 554 , 1225 552 
Q 1225 551 , 1240 551 
Q 1256 550 , 1282 550 
Q 1293 550 , 1302 550 
Q 1312 550 , 1322 550 
L 1322 551 
Q 1309 551 , 1301 551 
Q 1292 551 , 1283 551 
Q 1262 551 , 1251 551 
Q 1241 552 , 1241 552 
Q 1241 553 , 1251 554 
Q 1262 554 , 1283 554 
Q 1292 554 , 1299 554 
Q 1306 554 , 1309 554 
" fill="#F5C000" />
<path d="
M 1325 540 
L 1325 542 
Q 1310 541 , 1302 540 
Q 1294 540 , 1284 540 
Q 1263 540 , 1253 541 
Q 1241 542 , 1241 544 
Q 1241 546 , 1253 547 
Q 1263 548 , 1284 548 
Q 1294 548 , 1302 548 
Q 1310 547 , 1325 546 
L 1325 548 
Q 1314 549 , 1304 549 
Q 1294 549 , 1283 549 
Q 1256 549 , 1241 548 
Q 1225 546 , 1225 544 
Q 1225 542 , 1241 540 
Q 1256 539 , 1283 539 
Q 1294 539 , 1304 539 
Q 1315 539 , 1325 540 
" fill="#545FFF" />
<path d="
M 1225 508 
L 1243 508 
L 1243 526 
Q 1243 531 , 1251 533 
Q 1258 535 , 1275 535 
Q 1292 535 , 1300 533 
Q 1307 531 , 1307 526 
L 1307 508 
L 1325 508 
L 1325 526 
Q 1325 532 , 1312 535 
Q 1300 538 , 1275 538 
Q 1251 538 , 1238 535 
Q 1225 532 , 1225 526 
L 1225 508 
" fill="#D21010" />
<path d="
M 1275 480 
L 1257 494 
L 1291 494 
L 1275 480 
M 1268 474 
L 1282 474 
L 1325 507 
L 1309 507 
L 1297 498 
L 1253 498 
L 1240 507 
L 1225 507 
L 1268 474 
" fill="#339541" />
<path d="
M 1330 554 
L 1348 554 
L 1348 554 
Q 1348 555 , 1356 555 
Q 1363 555 , 1380 555 
Q 1397 555 , 1405 555 
Q 1412 555 , 1412 554 
L 1412 554 
L 1430 554 
L 1430 554 
Q 1430 555 , 1417 555 
Q 1405 555 , 1380 555 
Q 1356 555 , 1343 555 
Q 1330 555 , 1330 554 
L 1330 554 
" fill="#D21010" />
<path d="
M 1380 553 
L 1362 553 
L 1396 553 
L 1380 553 
M 1373 553 
L 1387 553 
L 1430 554 
L 1414 554 
L 1402 554 
L 1358 554 
L 1345 554 
L 1330 554 
L 1373 553 
" fill="#339541" />
<path d="
M 1430 552 
L 1430 552 
Q 1415 552 , 1407 552 
Q 1399 552 , 1389 552 
Q 1368 552 , 1358 552 
Q 1346 552 , 1346 552 
Q 1346 553 , 1358 553 
Q 1368 553 , 1389 553 
Q 1399 553 , 1407 553 
Q 1415 553 , 1430 553 
L 1430 553 
Q 1419 553 , 1409 553 
Q 1399 553 , 1388 553 
Q 1361 553 , 1346 553 
Q 1330 553 , 1330 552 
Q 1330 552 , 1346 552 
Q 1361 552 , 1388 552 
Q 1399 552 , 1409 552 
Q 1420 552 , 1430 552 
" fill="#545FFF" />
<path d="
M 1414 552 
L 1414 552 
L 1385 552 
L 1385 551 
L 1430 551 
L 1430 552 
Q 1419 552 , 1408 552 
Q 1399 552 , 1387 552 
Q 1361 552 , 1345 552 
Q 1330 552 , 1330 551 
Q 1330 551 , 1345 551 
Q 1361 551 , 1387 551 
Q 1398 551 , 1407 551 
Q 1417 551 , 1427 551 
L 1427 551 
Q 1414 551 , 1406 551 
Q 1397 551 , 1388 551 
Q 1367 551 , 1356 551 
Q 1346 551 , 1346 551 
Q 1346 552 , 1356 552 
Q 1367 552 , 1388 552 
Q 1397 552 , 1404 552 
Q 1411 552 , 1414 552 
" fill="#F5C000" />
<path d="M 65 55 L 65 555 " stroke="black" stroke-width="1.5"/>
<path d="M 55 555 L 65 555 " stroke="black" stroke-width="4"/>
<text text-anchor="end" x="50" y="555" font-size="50" alignment-baseline="middle">0</text>
<path d="M 55 305 L 65 305 " stroke="black" stroke-width="4"/>
<text text-anchor="end" x="50" y="305" font-size="50" alignment-baseline="middle">1</text>
<path d="M 55 55 L 65 55 " stroke="black" stroke-width="4"/>
<text text-anchor="end" x="50" y="55" font-size="50" alignment-baseline="middle">2</text>
<text text-anchor="middle" x="750" y="50" font-size="50" alignment-baseline="baseline"></text>
G<path d="
M 160 582 
L 126 595 
L 160 608 
L 157 611 
L 123 598 
L 123 623 
L 117 623 
L 117 599 
L 83 611 
L 80 608 
L 114 595 
L 80 582 
L 83 579 
L 117 591 
L 117 567 
L 123 567 
L 123 591 
L 157 579 
L 160 582 
" fill="black" />
<path d="
" fill="black" />
<path d="
M 211 567 
L 238 567 
L 238 623 
L 211 623 
L 211 567 
" fill="black" />
<path d="
" fill="black" />
<path d="
" fill="black" />
<path d="
M 316 567 
L 343 567 
L 343 623 
L 316 623 
L 316 567 
" fill="black" />
<path d="
" fill="black" />
<path d="
" fill="black" />
<path d="
M 421 567 
L 448 567 
L 448 623 
L 421 623 
L 421 567 
" fill="black" />
<path d="
" fill="black" />
<path d="
" fill="black" />
<path d="
M 526 567 
L 553 567 
L 553 623 
L 526 623 
L 526 567 
" fill="black" />
<path d="
" fill="black" />
<path d="
" fill="black" />
<path d="
M 617 567 
L 633 567 
L 633 623 
L 617 623 
L 617 567 
" fill="black" />
<path d="
" fill="black" />
<path d="
M 669 593 
Q 671 594 , 672 597 
Q 673 601 , 673 606 
Q 673 614 , 671 618 
Q 669 623 , 664 623 
Q 662 623 , 661 622 
Q 659 621 , 657 619 
L 657 613 
Q 659 617 , 660 618 
Q 662 619 , 664 619 
Q 667 619 , 669 616 
Q 671 613 , 671 606 
Q 671 601 , 669 598 
Q 668 595 , 664 595 
L 661 595 
L 661 591 
L 665 591 
Q 667 591 , 669 589 
Q 670 586 , 670 582 
Q 670 577 , 669 574 
Q 667 571 , 664 571 
Q 663 571 , 661 572 
Q 660 573 , 658 575 
L 658 571 
Q 660 569 , 662 568 
Q 663 567 , 665 567 
Q 669 567 , 671 571 
Q 672 575 , 672 581 
Q 672 586 , 671 589 
Q 671 592 , 669 593 
" fill="black" />
<path d="
M 677 567 
L 693 567 
L 693 571 
L 684 623 
L 681 623 
L 691 571 
L 677 571 
L 677 567 
" fill="black" />
<path d="
M 790 582 
L 756 595 
L 790 608 
L 787 611 
L 753 598 
L 753 623 
L 747 623 
L 747 599 
L 713 611 
L 710 608 
L 744 595 
L 710 582 
L 713 579 
L 747 591 
L 747 567 
L 753 567 
L 753 591 
L 787 579 
L 790 582 
" fill="black" />
<path d="
" fill="black" />
<path d="
M 841 567 
L 868 567 
L 868 623 
L 841 623 
L 841 567 
" fill="black" />
<path d="
" fill="black" />
<path d="
" fill="black" />
<path d="
M 946 567 
L 973 567 
L 973 623 
L 946 623 
L 946 567 
" fill="black" />
<path d="
" fill="black" />
<path d="
" fill="black" />
<path d="
M 1051 567 
L 1078 567 
L 1078 623 
L 1051 623 
L 1051 567 
" fill="black" />
<path d="
" fill="black" />
<path d="
" fill="black" />
<path d="
M 1156 567 
L 1183 567 
L 1183 623 
L 1156 623 
L 1156 567 
" fill="black" />
<path d="
" fill="black" />
<path d="
" fill="black" />
<path d="
M 1261 567 
L 1288 567 
L 1288 623 
L 1261 623 
L 1261 567 
" fill="black" />
<path d="
" fill="black" />
<path d="
M 1420 582 
L 1386 595 
L 1420 608 
L 1417 611 
L 1383 598 
L 1383 623 
L 1377 623 
L 1377 599 
L 1343 611 
L 1340 608 
L 1374 595 
L 1340 582 
L 1343 579 
L 1377 591 
L 1377 567 
L 1383 567 
L 1383 591 
L 1417 579 
L 1420 582 
" fill="black" />
</svg>
