<svg xmlns="http://www.w3.org/2000/svg"
viewBox="0 0 1435 635">
<path d="
M 70 554 
L 88 554 
L 88 554 
Q 88 554 , 96 554 
Q 103 555 , 120 555 
Q 137 555 , 145 554 
Q 152 554 , 152 554 
L 152 554 
L 170 554 
L 170 554 
Q 170 554 , 157 555 
Q 145 555 , 120 555 
Q 96 555 , 83 555 
Q 70 554 , 70 554 
L 70 554 
" fill="#D21010" />
<path d="
M 120 553 
L 102 553 
L 136 553 
L 120 553 
M 113 553 
L 127 553 
L 170 554 
L 154 554 
L 142 553 
L 98 553 
L 85 554 
L 70 554 
L 113 553 
" fill="#339541" />
<path d="
M 170 552 
L 170 552 
Q 155 552 , 147 552 
Q 139 552 , 129 552 
Q 108 552 , 98 552 
Q 86 552 , 86 552 
Q 86 552 , 98 553 
Q 108 553 , 129 553 
Q 139 553 , 147 553 
Q 155 553 , 170 552 
L 170 553 
Q 159 553 , 149 553 
Q 139 553 , 128 553 
Q 101 553 , 86 553 
Q 70 552 , 70 552 
Q 70 552 , 86 552 
Q 101 552 , 128 552 
Q 139 552 , 149 552 
Q 160 552 , 170 552 
" fill="#545FFF" />
<path d="
M 154 552 
L 154 551 
L 125 551 
L 125 551 
L 170 551 
L 170 552 
Q 159 552 , 148 552 
Q 139 552 , 127 552 
Q 101 552 , 85 552 
Q 70 552 , 70 551 
Q 70 551 , 85 551 
Q 101 551 , 127 551 
Q 138 551 , 147 551 
Q 157 551 , 167 551 
L 167 551 
Q 154 551 , 146 551 
Q 137 551 , 128 551 
Q 107 551 , 96 551 
Q 86 551 , 86 551 
Q 86 552 , 96 552 
Q 107 552 , 128 552 
Q 137 552 , 144 552 
Q 151 552 , 154 552 
" fill="#F5C000" />
<path d="
M 275 551 
L 275 552 
Q 260 551 , 252 551 
Q 244 551 , 234 551 
Q 213 551 , 203 552 
Q 191 552 , 191 552 
Q 191 553 , 203 553 
Q 213 554 , 234 554 
Q 244 554 , 252 554 
Q 260 554 , 275 553 
L 275 554 
Q 264 554 , 254 554 
Q 244 554 , 233 554 
Q 206 554 , 191 554 
Q 175 553 , 175 553 
Q 175 552 , 191 551 
Q 206 551 , 233 551 
Q 244 551 , 254 551 
Q 265 551 , 275 551 
" fill="#545FFF" />
<path d="
M 175 547 
L 193 547 
L 193 549 
Q 193 549 , 201 550 
Q 208 550 , 225 550 
Q 242 550 , 250 550 
Q 257 549 , 257 549 
L 257 547 
L 275 547 
L 275 549 
Q 275 549 , 262 550 
Q 250 550 , 225 550 
Q 201 550 , 188 550 
Q 175 549 , 175 549 
L 175 547 
" fill="#D21010" />
<path d="
M 225 541 
L 207 544 
L 241 544 
L 225 541 
M 218 540 
L 232 540 
L 275 546 
L 259 546 
L 247 544 
L 203 544 
L 190 546 
L 175 546 
L 218 540 
" fill="#339541" />
<path d="
M 259 538 
L 259 536 
L 230 536 
L 230 535 
L 275 535 
L 275 539 
Q 264 539 , 253 539 
Q 244 539 , 232 539 
Q 206 539 , 190 538 
Q 175 537 , 175 536 
Q 175 534 , 190 533 
Q 206 532 , 232 532 
Q 243 532 , 252 532 
Q 262 532 , 272 533 
L 272 533 
Q 259 533 , 251 533 
Q 242 533 , 233 533 
Q 212 533 , 201 534 
Q 191 534 , 191 536 
Q 191 537 , 201 538 
Q 212 538 , 233 538 
Q 242 538 , 249 538 
Q 256 538 , 259 538 
" fill="#F5C000" />
<path d="
M 322 554 
L 322 553 
L 308 553 
L 308 552 
L 330 552 
L 330 554 
Q 325 555 , 319 555 
Q 314 555 , 308 555 
Q 295 555 , 288 554 
Q 280 553 , 280 552 
Q 280 551 , 288 551 
Q 295 550 , 308 550 
Q 314 550 , 319 550 
Q 324 550 , 329 550 
L 329 551 
Q 322 551 , 318 551 
Q 314 551 , 309 551 
Q 299 551 , 293 551 
Q 288 551 , 288 552 
Q 288 553 , 293 554 
Q 299 554 , 309 554 
Q 314 554 , 317 554 
Q 321 554 , 322 554 
" fill="#F5C000" />
<path d="
M 330 550 
L 339 550 
L 339 553 
Q 339 554 , 343 554 
Q 346 554 , 355 554 
Q 364 554 , 367 554 
Q 371 554 , 371 553 
L 371 550 
L 380 550 
L 380 553 
Q 380 554 , 374 554 
Q 367 555 , 355 555 
Q 343 555 , 336 554 
Q 330 554 , 330 553 
L 330 550 
" fill="lightgray" />
<path d="
M 280 544 
L 289 544 
L 289 547 
Q 289 548 , 293 549 
Q 296 549 , 305 549 
Q 314 549 , 317 549 
Q 321 548 , 321 547 
L 321 544 
L 330 544 
L 330 547 
Q 330 549 , 324 549 
Q 317 550 , 305 550 
Q 293 550 , 286 549 
Q 280 549 , 280 547 
L 280 544 
" fill="#D21010" />
<path d="
M 372 549 
L 372 547 
L 358 547 
L 358 547 
L 380 547 
L 380 549 
Q 375 549 , 369 550 
Q 364 550 , 358 550 
Q 345 550 , 338 549 
Q 330 548 , 330 547 
Q 330 546 , 338 545 
Q 345 544 , 358 544 
Q 364 544 , 369 544 
Q 374 544 , 379 544 
L 379 545 
Q 372 545 , 368 545 
Q 364 545 , 359 545 
Q 349 545 , 343 545 
Q 338 546 , 338 547 
Q 338 548 , 343 548 
Q 349 549 , 359 549 
Q 364 549 , 367 549 
Q 371 549 , 372 549 
" fill="lightgray" />
<path d="
M 305 537 
L 296 540 
L 313 540 
L 305 537 
M 301 536 
L 309 536 
L 330 543 
L 322 543 
L 316 541 
L 294 541 
L 287 543 
L 280 543 
L 301 536 
" fill="#339541" />
<path d="
M 330 536 
L 339 536 
L 339 540 
Q 339 542 , 343 542 
Q 346 543 , 355 543 
Q 364 543 , 367 542 
Q 371 542 , 371 540 
L 371 536 
L 380 536 
L 380 541 
Q 380 542 , 374 543 
Q 367 543 , 355 543 
Q 343 543 , 336 543 
Q 330 542 , 330 541 
L 330 536 
" fill="lightgray" />
<path d="
M 280 525 
L 289 525 
L 289 531 
Q 289 533 , 293 533 
Q 296 534 , 305 534 
Q 314 534 , 317 533 
Q 321 533 , 321 531 
L 321 525 
L 330 525 
L 330 531 
Q 330 533 , 324 534 
Q 317 535 , 305 535 
Q 293 535 , 286 534 
Q 280 533 , 280 531 
L 280 525 
" fill="#D21010" />
<path d="
M 355 527 
L 346 531 
L 363 531 
L 355 527 
M 351 525 
L 359 525 
L 380 535 
L 372 535 
L 366 532 
L 344 532 
L 337 535 
L 330 535 
L 351 525 
" fill="lightgray" />
<path d="
M 330 488 
L 330 495 
Q 323 491 , 319 490 
Q 314 488 , 309 488 
Q 299 488 , 294 492 
Q 288 496 , 288 504 
Q 288 512 , 294 516 
Q 299 520 , 309 520 
Q 314 520 , 319 519 
Q 323 518 , 330 514 
L 330 520 
Q 325 523 , 319 524 
Q 315 525 , 309 525 
Q 295 525 , 288 519 
Q 280 514 , 280 504 
Q 280 495 , 288 490 
Q 295 484 , 309 484 
Q 315 484 , 320 485 
Q 325 486 , 330 488 
" fill="#545FFF" />
<path d="
M 372 519 
L 372 508 
L 358 508 
L 358 503 
L 380 503 
L 380 521 
Q 375 523 , 369 524 
Q 364 525 , 358 525 
Q 345 525 , 338 519 
Q 330 514 , 330 504 
Q 330 495 , 338 489 
Q 345 484 , 358 484 
Q 364 484 , 369 485 
Q 374 485 , 379 487 
L 379 492 
Q 372 490 , 368 489 
Q 364 489 , 359 489 
Q 349 489 , 343 493 
Q 338 496 , 338 504 
Q 338 512 , 343 516 
Q 349 520 , 359 520 
Q 364 520 , 367 520 
Q 371 519 , 372 519 
" fill="lightgray" />
<path d="
M 322 461 
L 322 420 
L 308 420 
L 308 403 
L 330 403 
L 330 472 
Q 325 478 , 319 481 
Q 314 483 , 308 483 
Q 295 483 , 288 463 
Q 280 442 , 280 407 
Q 280 371 , 288 351 
Q 295 330 , 308 330 
Q 314 330 , 319 333 
Q 324 335 , 329 342 
L 329 362 
Q 322 353 , 318 351 
Q 314 348 , 309 348 
Q 299 348 , 293 363 
Q 288 377 , 288 407 
Q 288 437 , 293 452 
Q 299 466 , 309 466 
Q 314 466 , 317 465 
Q 321 463 , 322 461 
" fill="#F5C000" />
<path d="
M 380 346 
L 380 370 
Q 373 355 , 369 351 
Q 364 347 , 359 347 
Q 349 347 , 344 362 
Q 338 377 , 338 406 
Q 338 436 , 344 452 
Q 349 467 , 359 467 
Q 364 467 , 369 463 
Q 373 459 , 380 444 
L 380 468 
Q 375 476 , 369 480 
Q 365 483 , 359 483 
Q 345 483 , 338 463 
Q 330 442 , 330 407 
Q 330 372 , 338 351 
Q 345 330 , 359 330 
Q 365 330 , 370 334 
Q 375 337 , 380 346 
" fill="lightgray" />
<path d="
M 410 551 
L 401 553 
L 418 553 
L 410 551 
M 406 550 
L 414 550 
L 435 555 
L 427 555 
L 421 553 
L 399 553 
L 392 555 
L 385 555 
L 406 550 
" fill="#339541" />
<path d="
M 435 550 
L 444 550 
L 444 553 
Q 444 553 , 448 554 
Q 451 554 , 460 554 
Q 469 554 , 472 554 
Q 476 553 , 476 553 
L 476 550 
L 485 550 
L 485 553 
Q 485 554 , 479 554 
Q 472 555 , 460 555 
Q 448 555 , 441 554 
Q 435 554 , 435 553 
L 435 550 
" fill="lightgray" />
<path d="
M 385 544 
L 394 544 
L 394 547 
Q 394 548 , 398 549 
Q 401 549 , 410 549 
Q 419 549 , 422 549 
Q 426 548 , 426 547 
L 426 544 
L 435 544 
L 435 547 
Q 435 548 , 429 549 
Q 422 550 , 410 550 
Q 398 550 , 391 549 
Q 385 548 , 385 547 
L 385 544 
" fill="#D21010" />
<path d="
M 477 549 
L 477 547 
L 463 547 
L 463 547 
L 485 547 
L 485 549 
Q 480 549 , 474 549 
Q 469 550 , 463 550 
Q 450 550 , 443 549 
Q 435 548 , 435 547 
Q 435 545 , 443 545 
Q 450 544 , 463 544 
Q 469 544 , 474 544 
Q 479 544 , 484 544 
L 484 545 
Q 477 545 , 473 545 
Q 469 545 , 464 545 
Q 454 545 , 448 545 
Q 443 546 , 443 547 
Q 443 548 , 448 548 
Q 454 549 , 464 549 
Q 469 549 , 472 549 
Q 476 549 , 477 549 
" fill="lightgray" />
<path d="
M 427 542 
L 427 540 
L 413 540 
L 413 539 
L 435 539 
L 435 543 
Q 430 543 , 424 543 
Q 419 543 , 413 543 
Q 400 543 , 393 542 
Q 385 541 , 385 539 
Q 385 537 , 393 536 
Q 400 535 , 413 535 
Q 419 535 , 424 535 
Q 429 535 , 434 536 
L 434 537 
Q 427 536 , 423 536 
Q 419 536 , 414 536 
Q 404 536 , 398 537 
Q 393 538 , 393 539 
Q 393 541 , 398 541 
Q 404 542 , 414 542 
Q 419 542 , 422 542 
Q 426 542 , 427 542 
" fill="#F5C000" />
<path d="
M 435 535 
L 444 535 
L 444 540 
Q 444 541 , 448 542 
Q 451 542 , 460 542 
Q 469 542 , 472 542 
Q 476 541 , 476 540 
L 476 535 
L 485 535 
L 485 540 
Q 485 542 , 479 542 
Q 472 543 , 460 543 
Q 448 543 , 441 542 
Q 435 542 , 435 540 
L 435 535 
" fill="lightgray" />
<path d="
M 385 522 
L 394 522 
L 394 530 
Q 394 532 , 398 533 
Q 401 533 , 410 533 
Q 419 533 , 422 533 
Q 426 532 , 426 530 
L 426 522 
L 435 522 
L 435 530 
Q 435 532 , 429 533 
Q 422 535 , 410 535 
Q 398 535 , 391 533 
Q 385 532 , 385 530 
L 385 522 
" fill="#D21010" />
<path d="
M 460 524 
L 451 530 
L 468 530 
L 460 524 
M 456 522 
L 464 522 
L 485 535 
L 477 535 
L 471 531 
L 449 531 
L 442 535 
L 435 535 
L 456 522 
" fill="lightgray" />
<path d="
M 427 519 
L 427 516 
L 413 516 
L 413 514 
L 435 514 
L 435 520 
Q 430 521 , 424 521 
Q 419 522 , 413 522 
Q 400 522 , 393 520 
Q 385 518 , 385 514 
Q 385 511 , 393 509 
Q 400 507 , 413 507 
Q 419 507 , 424 507 
Q 429 508 , 434 508 
L 434 510 
Q 427 509 , 423 509 
Q 419 509 , 414 509 
Q 404 509 , 398 510 
Q 393 511 , 393 514 
Q 393 517 , 398 519 
Q 404 520 , 414 520 
Q 419 520 , 422 520 
Q 426 520 , 427 519 
" fill="#F5C000" />
<path d="
M 485 509 
L 485 511 
Q 478 509 , 474 509 
Q 469 509 , 464 509 
Q 454 509 , 449 510 
Q 443 511 , 443 514 
Q 443 517 , 449 519 
Q 454 520 , 464 520 
Q 469 520 , 474 520 
Q 478 519 , 485 518 
L 485 520 
Q 480 521 , 474 521 
Q 470 522 , 464 522 
Q 450 522 , 443 520 
Q 435 518 , 435 514 
Q 435 511 , 443 509 
Q 450 507 , 464 507 
Q 470 507 , 475 507 
Q 480 508 , 485 509 
" fill="lightgray" />
<path d="
M 435 468 
L 435 474 
Q 428 470 , 424 469 
Q 419 468 , 414 468 
Q 404 468 , 399 472 
Q 393 476 , 393 484 
Q 393 493 , 399 497 
Q 404 501 , 414 501 
Q 419 501 , 424 500 
Q 428 499 , 435 495 
L 435 502 
Q 430 504 , 424 505 
Q 420 506 , 414 506 
Q 400 506 , 393 500 
Q 385 494 , 385 485 
Q 385 475 , 393 469 
Q 400 463 , 414 463 
Q 420 463 , 425 464 
Q 430 465 , 435 468 
" fill="#545FFF" />
<path d="
M 477 500 
L 477 488 
L 463 488 
L 463 484 
L 485 484 
L 485 503 
Q 480 505 , 474 505 
Q 469 506 , 463 506 
Q 450 506 , 443 500 
Q 435 495 , 435 485 
Q 435 475 , 443 469 
Q 450 463 , 463 463 
Q 469 463 , 474 464 
Q 479 465 , 484 466 
L 484 472 
Q 477 470 , 473 469 
Q 469 468 , 464 468 
Q 454 468 , 448 472 
Q 443 476 , 443 485 
Q 443 493 , 448 497 
Q 454 501 , 464 501 
Q 469 501 , 472 501 
Q 476 500 , 477 500 
" fill="lightgray" />
<path d="
M 540 551 
L 522 553 
L 556 553 
L 540 551 
M 533 550 
L 547 550 
L 590 554 
L 574 554 
L 562 553 
L 518 553 
L 505 554 
L 490 554 
L 533 550 
" fill="#339541" />
<path d="
M 490 544 
L 508 544 
L 508 547 
Q 508 548 , 516 549 
Q 523 549 , 540 549 
Q 557 549 , 565 549 
Q 572 548 , 572 547 
L 572 544 
L 590 544 
L 590 548 
Q 590 549 , 577 549 
Q 565 550 , 540 550 
Q 516 550 , 503 549 
Q 490 549 , 490 548 
L 490 544 
" fill="#D21010" />
<path d="
M 590 534 
L 590 536 
Q 575 535 , 567 534 
Q 559 534 , 549 534 
Q 528 534 , 518 535 
Q 506 536 , 506 538 
Q 506 540 , 518 541 
Q 528 542 , 549 542 
Q 559 542 , 567 542 
Q 575 542 , 590 541 
L 590 542 
Q 579 543 , 569 543 
Q 559 544 , 548 544 
Q 521 544 , 506 542 
Q 490 541 , 490 538 
Q 490 536 , 506 534 
Q 521 533 , 548 533 
Q 559 533 , 569 533 
Q 580 534 , 590 534 
" fill="#545FFF" />
<path d="
M 574 530 
L 574 525 
L 545 525 
L 545 523 
L 590 523 
L 590 531 
Q 579 532 , 568 532 
Q 559 533 , 547 533 
Q 521 533 , 505 530 
Q 490 528 , 490 524 
Q 490 520 , 505 517 
Q 521 515 , 547 515 
Q 558 515 , 567 515 
Q 577 516 , 587 516 
L 587 519 
Q 574 518 , 566 517 
Q 557 517 , 548 517 
Q 527 517 , 516 519 
Q 506 520 , 506 524 
Q 506 527 , 516 529 
Q 527 531 , 548 531 
Q 557 531 , 564 531 
Q 571 530 , 574 530 
" fill="#F5C000" />
<path d="
M 645 551 
L 627 552 
L 661 552 
L 645 551 
M 638 550 
L 652 550 
L 695 554 
L 679 554 
L 667 553 
L 623 553 
L 610 554 
L 595 554 
L 638 550 
" fill="#339541" />
<path d="
M 695 545 
L 695 546 
Q 680 546 , 672 546 
Q 664 545 , 654 545 
Q 633 545 , 623 546 
Q 611 546 , 611 547 
Q 611 548 , 623 549 
Q 633 549 , 654 549 
Q 664 549 , 672 549 
Q 680 549 , 695 548 
L 695 549 
Q 684 549 , 674 549 
Q 664 550 , 653 550 
Q 626 550 , 611 549 
Q 595 548 , 595 547 
Q 595 546 , 611 546 
Q 626 545 , 653 545 
Q 664 545 , 674 545 
Q 685 545 , 695 545 
" fill="#545FFF" />
<path d="
M 595 540 
L 613 540 
L 613 543 
Q 613 543 , 621 544 
Q 628 544 , 645 544 
Q 662 544 , 670 544 
Q 677 543 , 677 543 
L 677 540 
L 695 540 
L 695 543 
Q 695 544 , 682 544 
Q 670 545 , 645 545 
Q 621 545 , 608 544 
Q 595 544 , 595 543 
L 595 540 
" fill="#D21010" />
<path d="
M 679 538 
L 679 535 
L 650 535 
L 650 534 
L 695 534 
L 695 539 
Q 684 539 , 673 539 
Q 664 539 , 652 539 
Q 626 539 , 610 538 
Q 595 537 , 595 534 
Q 595 532 , 610 530 
Q 626 529 , 652 529 
Q 663 529 , 672 529 
Q 682 529 , 692 530 
L 692 531 
Q 679 531 , 671 530 
Q 662 530 , 653 530 
Q 632 530 , 621 531 
Q 611 532 , 611 534 
Q 611 536 , 621 537 
Q 632 538 , 653 538 
Q 662 538 , 669 538 
Q 676 538 , 679 538 
" fill="#F5C000" />
<path d="
M 700 554 
L 718 554 
L 718 554 
Q 718 554 , 726 554 
Q 733 555 , 750 555 
Q 767 555 , 775 554 
Q 782 554 , 782 554 
L 782 554 
L 800 554 
L 800 554 
Q 800 554 , 787 555 
Q 775 555 , 750 555 
Q 726 555 , 713 555 
Q 700 554 , 700 554 
L 700 554 
" fill="#D21010" />
<path d="
M 750 553 
L 732 553 
L 766 553 
L 750 553 
M 743 553 
L 757 553 
L 800 554 
L 784 554 
L 772 553 
L 728 553 
L 715 554 
L 700 554 
L 743 553 
" fill="#339541" />
<path d="
M 800 552 
L 800 552 
Q 785 552 , 777 552 
Q 769 552 , 759 552 
Q 738 552 , 728 552 
Q 716 552 , 716 552 
Q 716 552 , 728 553 
Q 738 553 , 759 553 
Q 769 553 , 777 553 
Q 785 553 , 800 552 
L 800 553 
Q 789 553 , 779 553 
Q 769 553 , 758 553 
Q 731 553 , 716 553 
Q 700 552 , 700 552 
Q 700 552 , 716 552 
Q 731 552 , 758 552 
Q 769 552 , 779 552 
Q 790 552 , 800 552 
" fill="#545FFF" />
<path d="
M 784 552 
L 784 551 
L 755 551 
L 755 551 
L 800 551 
L 800 552 
Q 789 552 , 778 552 
Q 769 552 , 757 552 
Q 731 552 , 715 552 
Q 700 552 , 700 551 
Q 700 551 , 715 551 
Q 731 551 , 757 551 
Q 768 551 , 777 551 
Q 787 551 , 797 551 
L 797 551 
Q 784 551 , 776 551 
Q 767 551 , 758 551 
Q 737 551 , 726 551 
Q 716 551 , 716 551 
Q 716 552 , 726 552 
Q 737 552 , 758 552 
Q 767 552 , 774 552 
Q 781 552 , 784 552 
" fill="#F5C000" />
<path d="
M 905 549 
L 905 550 
Q 890 549 , 882 549 
Q 874 549 , 864 549 
Q 843 549 , 833 549 
Q 821 550 , 821 551 
Q 821 553 , 833 553 
Q 843 554 , 864 554 
Q 874 554 , 882 554 
Q 890 554 , 905 553 
L 905 554 
Q 894 554 , 884 554 
Q 874 555 , 863 555 
Q 836 555 , 821 554 
Q 805 553 , 805 551 
Q 805 550 , 821 549 
Q 836 548 , 863 548 
Q 874 548 , 884 548 
Q 895 548 , 905 549 
" fill="#545FFF" />
<path d="
M 805 541 
L 823 541 
L 823 545 
Q 823 546 , 831 547 
Q 838 547 , 855 547 
Q 872 547 , 880 547 
Q 887 546 , 887 545 
L 887 541 
L 905 541 
L 905 545 
Q 905 547 , 892 547 
Q 880 548 , 855 548 
Q 831 548 , 818 547 
Q 805 547 , 805 545 
L 805 541 
" fill="#D21010" />
<path d="
M 855 529 
L 837 534 
L 871 534 
L 855 529 
M 848 526 
L 862 526 
L 905 540 
L 889 540 
L 877 536 
L 833 536 
L 820 540 
L 805 540 
L 848 526 
" fill="#339541" />
<path d="
M 889 521 
L 889 513 
L 860 513 
L 860 509 
L 905 509 
L 905 523 
Q 894 524 , 883 525 
Q 874 525 , 862 525 
Q 836 525 , 820 521 
Q 805 517 , 805 510 
Q 805 502 , 820 498 
Q 836 494 , 862 494 
Q 873 494 , 882 495 
Q 892 495 , 902 497 
L 902 501 
Q 889 499 , 881 498 
Q 872 498 , 863 498 
Q 842 498 , 831 501 
Q 821 504 , 821 510 
Q 821 516 , 831 519 
Q 842 522 , 863 522 
Q 872 522 , 879 522 
Q 886 521 , 889 521 
" fill="#F5C000" />
<path d="
M 960 553 
L 942 554 
L 976 554 
L 960 553 
M 953 553 
L 967 553 
L 1010 554 
L 994 554 
L 982 554 
L 938 554 
L 925 554 
L 910 554 
L 953 553 
" fill="#339541" />
<path d="
M 910 551 
L 928 551 
L 928 552 
Q 928 552 , 936 552 
Q 943 552 , 960 552 
Q 977 552 , 985 552 
Q 992 552 , 992 552 
L 992 551 
L 1010 551 
L 1010 552 
Q 1010 552 , 997 552 
Q 985 552 , 960 552 
Q 936 552 , 923 552 
Q 910 552 , 910 552 
L 910 551 
" fill="#D21010" />
<path d="
M 994 551 
L 994 550 
L 965 550 
L 965 550 
L 1010 550 
L 1010 551 
Q 999 551 , 988 551 
Q 979 551 , 967 551 
Q 941 551 , 925 551 
Q 910 550 , 910 550 
Q 910 549 , 925 549 
Q 941 549 , 967 549 
Q 978 549 , 987 549 
Q 997 549 , 1007 549 
L 1007 549 
Q 994 549 , 986 549 
Q 977 549 , 968 549 
Q 947 549 , 936 549 
Q 926 550 , 926 550 
Q 926 550 , 936 550 
Q 947 551 , 968 551 
Q 977 551 , 984 551 
Q 991 551 , 994 551 
" fill="#F5C000" />
<path d="
M 1010 547 
L 1010 547 
Q 995 547 , 987 547 
Q 979 547 , 969 547 
Q 948 547 , 938 547 
Q 926 548 , 926 548 
Q 926 548 , 938 548 
Q 948 549 , 969 549 
Q 979 549 , 987 549 
Q 995 548 , 1010 548 
L 1010 549 
Q 999 549 , 989 549 
Q 979 549 , 968 549 
Q 941 549 , 926 549 
Q 910 548 , 910 548 
Q 910 547 , 926 547 
Q 941 547 , 968 547 
Q 979 547 , 989 547 
Q 1000 547 , 1010 547 
" fill="#545FFF" />
<path d="
M 1040 551 
L 1031 553 
L 1048 553 
L 1040 551 
M 1036 550 
L 1044 550 
L 1065 555 
L 1057 555 
L 1051 553 
L 1029 553 
L 1022 555 
L 1015 555 
L 1036 550 
" fill="lightgray" />
<path d="
M 1065 550 
L 1074 550 
L 1074 553 
Q 1074 553 , 1078 554 
Q 1081 554 , 1090 554 
Q 1099 554 , 1102 554 
Q 1106 553 , 1106 553 
L 1106 550 
L 1115 550 
L 1115 553 
Q 1115 554 , 1109 554 
Q 1102 555 , 1090 555 
Q 1078 555 , 1071 554 
Q 1065 554 , 1065 553 
L 1065 550 
" fill="#D21010" />
<path d="
M 1015 544 
L 1024 544 
L 1024 547 
Q 1024 548 , 1028 549 
Q 1031 549 , 1040 549 
Q 1049 549 , 1052 549 
Q 1056 548 , 1056 547 
L 1056 544 
L 1065 544 
L 1065 547 
Q 1065 548 , 1059 549 
Q 1052 550 , 1040 550 
Q 1028 550 , 1021 549 
Q 1015 548 , 1015 547 
L 1015 544 
" fill="lightgray" />
<path d="
M 1107 549 
L 1107 547 
L 1093 547 
L 1093 547 
L 1115 547 
L 1115 549 
Q 1110 549 , 1104 549 
Q 1099 550 , 1093 550 
Q 1080 550 , 1073 549 
Q 1065 548 , 1065 547 
Q 1065 545 , 1073 545 
Q 1080 544 , 1093 544 
Q 1099 544 , 1104 544 
Q 1109 544 , 1114 544 
L 1114 545 
Q 1107 545 , 1103 545 
Q 1099 545 , 1094 545 
Q 1084 545 , 1078 545 
Q 1073 546 , 1073 547 
Q 1073 548 , 1078 548 
Q 1084 549 , 1094 549 
Q 1099 549 , 1102 549 
Q 1106 549 , 1107 549 
" fill="#F5C000" />
<path d="
M 1057 542 
L 1057 540 
L 1043 540 
L 1043 539 
L 1065 539 
L 1065 543 
Q 1060 543 , 1054 543 
Q 1049 543 , 1043 543 
Q 1030 543 , 1023 542 
Q 1015 541 , 1015 539 
Q 1015 537 , 1023 536 
Q 1030 535 , 1043 535 
Q 1049 535 , 1054 535 
Q 1059 535 , 1064 536 
L 1064 537 
Q 1057 536 , 1053 536 
Q 1049 536 , 1044 536 
Q 1034 536 , 1028 537 
Q 1023 538 , 1023 539 
Q 1023 541 , 1028 541 
Q 1034 542 , 1044 542 
Q 1049 542 , 1052 542 
Q 1056 542 , 1057 542 
" fill="lightgray" />
<path d="
M 1065 535 
L 1074 535 
L 1074 540 
Q 1074 541 , 1078 542 
Q 1081 542 , 1090 542 
Q 1099 542 , 1102 542 
Q 1106 541 , 1106 540 
L 1106 535 
L 1115 535 
L 1115 540 
Q 1115 542 , 1109 542 
Q 1102 543 , 1090 543 
Q 1078 543 , 1071 542 
Q 1065 542 , 1065 540 
L 1065 535 
" fill="#D21010" />
<path d="
M 1015 522 
L 1024 522 
L 1024 530 
Q 1024 532 , 1028 533 
Q 1031 533 , 1040 533 
Q 1049 533 , 1052 533 
Q 1056 532 , 1056 530 
L 1056 522 
L 1065 522 
L 1065 530 
Q 1065 532 , 1059 533 
Q 1052 535 , 1040 535 
Q 1028 535 , 1021 533 
Q 1015 532 , 1015 530 
L 1015 522 
" fill="lightgray" />
<path d="
M 1090 524 
L 1081 530 
L 1098 530 
L 1090 524 
M 1086 522 
L 1094 522 
L 1115 535 
L 1107 535 
L 1101 531 
L 1079 531 
L 1072 535 
L 1065 535 
L 1086 522 
" fill="#339541" />
<path d="
M 1057 519 
L 1057 516 
L 1043 516 
L 1043 514 
L 1065 514 
L 1065 520 
Q 1060 521 , 1054 521 
Q 1049 522 , 1043 522 
Q 1030 522 , 1023 520 
Q 1015 518 , 1015 514 
Q 1015 511 , 1023 509 
Q 1030 507 , 1043 507 
Q 1049 507 , 1054 507 
Q 1059 508 , 1064 508 
L 1064 510 
Q 1057 509 , 1053 509 
Q 1049 509 , 1044 509 
Q 1034 509 , 1028 510 
Q 1023 511 , 1023 514 
Q 1023 517 , 1028 519 
Q 1034 520 , 1044 520 
Q 1049 520 , 1052 520 
Q 1056 520 , 1057 519 
" fill="lightgray" />
<path d="
M 1115 509 
L 1115 511 
Q 1108 509 , 1104 509 
Q 1099 509 , 1094 509 
Q 1084 509 , 1079 510 
Q 1073 511 , 1073 514 
Q 1073 517 , 1079 519 
Q 1084 520 , 1094 520 
Q 1099 520 , 1104 520 
Q 1108 519 , 1115 518 
L 1115 520 
Q 1110 521 , 1104 521 
Q 1100 522 , 1094 522 
Q 1080 522 , 1073 520 
Q 1065 518 , 1065 514 
Q 1065 511 , 1073 509 
Q 1080 507 , 1094 507 
Q 1100 507 , 1105 507 
Q 1110 508 , 1115 509 
" fill="#545FFF" />
<path d="
M 1065 468 
L 1065 474 
Q 1058 470 , 1054 469 
Q 1049 468 , 1044 468 
Q 1034 468 , 1029 472 
Q 1023 476 , 1023 484 
Q 1023 493 , 1029 497 
Q 1034 501 , 1044 501 
Q 1049 501 , 1054 500 
Q 1058 499 , 1065 495 
L 1065 502 
Q 1060 504 , 1054 505 
Q 1050 506 , 1044 506 
Q 1030 506 , 1023 500 
Q 1015 494 , 1015 485 
Q 1015 475 , 1023 469 
Q 1030 463 , 1044 463 
Q 1050 463 , 1055 464 
Q 1060 465 , 1065 468 
" fill="lightgray" />
<path d="
M 1107 500 
L 1107 488 
L 1093 488 
L 1093 484 
L 1115 484 
L 1115 503 
Q 1110 505 , 1104 505 
Q 1099 506 , 1093 506 
Q 1080 506 , 1073 500 
Q 1065 495 , 1065 485 
Q 1065 475 , 1073 469 
Q 1080 463 , 1093 463 
Q 1099 463 , 1104 464 
Q 1109 465 , 1114 466 
L 1114 472 
Q 1107 470 , 1103 469 
Q 1099 468 , 1094 468 
Q 1084 468 , 1078 472 
Q 1073 476 , 1073 485 
Q 1073 493 , 1078 497 
Q 1084 501 , 1094 501 
Q 1099 501 , 1102 501 
Q 1106 500 , 1107 500 
" fill="#F5C000" />
<path d="
M 1220 552 
L 1220 553 
Q 1205 552 , 1197 552 
Q 1189 552 , 1179 552 
Q 1158 552 , 1148 552 
Q 1136 553 , 1136 553 
Q 1136 554 , 1148 554 
Q 1158 554 , 1179 554 
Q 1189 554 , 1197 554 
Q 1205 554 , 1220 554 
L 1220 554 
Q 1209 554 , 1199 554 
Q 1189 554 , 1178 554 
Q 1151 554 , 1136 554 
Q 1120 554 , 1120 553 
Q 1120 553 , 1136 552 
Q 1151 552 , 1178 552 
Q 1189 552 , 1199 552 
Q 1210 552 , 1220 552 
" fill="#545FFF" />
<path d="
M 1170 549 
L 1152 550 
L 1186 550 
L 1170 549 
M 1163 549 
L 1177 549 
L 1220 551 
L 1204 551 
L 1192 551 
L 1148 551 
L 1135 551 
L 1120 551 
L 1163 549 
" fill="#339541" />
<path d="
M 1120 546 
L 1138 546 
L 1138 547 
Q 1138 548 , 1146 548 
Q 1153 548 , 1170 548 
Q 1187 548 , 1195 548 
Q 1202 548 , 1202 547 
L 1202 546 
L 1220 546 
L 1220 548 
Q 1220 548 , 1207 548 
Q 1195 549 , 1170 549 
Q 1146 549 , 1133 548 
Q 1120 548 , 1120 548 
L 1120 546 
" fill="#D21010" />
<path d="
M 1204 545 
L 1204 544 
L 1175 544 
L 1175 543 
L 1220 543 
L 1220 545 
Q 1209 545 , 1198 545 
Q 1189 545 , 1177 545 
Q 1151 545 , 1135 545 
Q 1120 544 , 1120 543 
Q 1120 542 , 1135 542 
Q 1151 541 , 1177 541 
Q 1188 541 , 1197 541 
Q 1207 541 , 1217 541 
L 1217 542 
Q 1204 542 , 1196 542 
Q 1187 542 , 1178 542 
Q 1157 542 , 1146 542 
Q 1136 542 , 1136 543 
Q 1136 544 , 1146 544 
Q 1157 545 , 1178 545 
Q 1187 545 , 1194 545 
Q 1201 545 , 1204 545 
" fill="#F5C000" />
<path d="
M 1267 554 
L 1267 553 
L 1253 553 
L 1253 552 
L 1275 552 
L 1275 554 
Q 1270 555 , 1264 555 
Q 1259 555 , 1253 555 
Q 1240 555 , 1233 554 
Q 1225 553 , 1225 552 
Q 1225 551 , 1233 551 
Q 1240 550 , 1253 550 
Q 1259 550 , 1264 550 
Q 1269 550 , 1274 550 
L 1274 551 
Q 1267 551 , 1263 551 
Q 1259 551 , 1254 551 
Q 1244 551 , 1238 551 
Q 1233 551 , 1233 552 
Q 1233 553 , 1238 554 
Q 1244 554 , 1254 554 
Q 1259 554 , 1262 554 
Q 1266 554 , 1267 554 
" fill="lightgray" />
<path d="
M 1275 550 
L 1284 550 
L 1284 553 
Q 1284 554 , 1288 554 
Q 1291 554 , 1300 554 
Q 1309 554 , 1312 554 
Q 1316 554 , 1316 553 
L 1316 550 
L 1325 550 
L 1325 553 
Q 1325 554 , 1319 554 
Q 1312 555 , 1300 555 
Q 1288 555 , 1281 554 
Q 1275 554 , 1275 553 
L 1275 550 
" fill="#D21010" />
<path d="
M 1225 544 
L 1234 544 
L 1234 547 
Q 1234 548 , 1238 549 
Q 1241 549 , 1250 549 
Q 1259 549 , 1262 549 
Q 1266 548 , 1266 547 
L 1266 544 
L 1275 544 
L 1275 547 
Q 1275 549 , 1269 549 
Q 1262 550 , 1250 550 
Q 1238 550 , 1231 549 
Q 1225 549 , 1225 547 
L 1225 544 
" fill="lightgray" />
<path d="
M 1317 549 
L 1317 547 
L 1303 547 
L 1303 547 
L 1325 547 
L 1325 549 
Q 1320 549 , 1314 550 
Q 1309 550 , 1303 550 
Q 1290 550 , 1283 549 
Q 1275 548 , 1275 547 
Q 1275 546 , 1283 545 
Q 1290 544 , 1303 544 
Q 1309 544 , 1314 544 
Q 1319 544 , 1324 544 
L 1324 545 
Q 1317 545 , 1313 545 
Q 1309 545 , 1304 545 
Q 1294 545 , 1288 545 
Q 1283 546 , 1283 547 
Q 1283 548 , 1288 548 
Q 1294 549 , 1304 549 
Q 1309 549 , 1312 549 
Q 1316 549 , 1317 549 
" fill="#F5C000" />
<path d="
M 1250 537 
L 1241 540 
L 1258 540 
L 1250 537 
M 1246 536 
L 1254 536 
L 1275 543 
L 1267 543 
L 1261 541 
L 1239 541 
L 1232 543 
L 1225 543 
L 1246 536 
" fill="lightgray" />
<path d="
M 1275 536 
L 1284 536 
L 1284 540 
Q 1284 542 , 1288 542 
Q 1291 543 , 1300 543 
Q 1309 543 , 1312 542 
Q 1316 542 , 1316 540 
L 1316 536 
L 1325 536 
L 1325 541 
Q 1325 542 , 1319 543 
Q 1312 543 , 1300 543 
Q 1288 543 , 1281 543 
Q 1275 542 , 1275 541 
L 1275 536 
" fill="#D21010" />
<path d="
M 1225 525 
L 1234 525 
L 1234 531 
Q 1234 533 , 1238 533 
Q 1241 534 , 1250 534 
Q 1259 534 , 1262 533 
Q 1266 533 , 1266 531 
L 1266 525 
L 1275 525 
L 1275 531 
Q 1275 533 , 1269 534 
Q 1262 535 , 1250 535 
Q 1238 535 , 1231 534 
Q 1225 533 , 1225 531 
L 1225 525 
" fill="lightgray" />
<path d="
M 1300 527 
L 1291 531 
L 1308 531 
L 1300 527 
M 1296 525 
L 1304 525 
L 1325 535 
L 1317 535 
L 1311 532 
L 1289 532 
L 1282 535 
L 1275 535 
L 1296 525 
" fill="#339541" />
<path d="
M 1275 488 
L 1275 495 
Q 1268 491 , 1264 490 
Q 1259 488 , 1254 488 
Q 1244 488 , 1239 492 
Q 1233 496 , 1233 504 
Q 1233 512 , 1239 516 
Q 1244 520 , 1254 520 
Q 1259 520 , 1264 519 
Q 1268 518 , 1275 514 
L 1275 520 
Q 1270 523 , 1264 524 
Q 1260 525 , 1254 525 
Q 1240 525 , 1233 519 
Q 1225 514 , 1225 504 
Q 1225 495 , 1233 490 
Q 1240 484 , 1254 484 
Q 1260 484 , 1265 485 
Q 1270 486 , 1275 488 
" fill="lightgray" />
<path d="
M 1317 519 
L 1317 508 
L 1303 508 
L 1303 503 
L 1325 503 
L 1325 521 
Q 1320 523 , 1314 524 
Q 1309 525 , 1303 525 
Q 1290 525 , 1283 519 
Q 1275 514 , 1275 504 
Q 1275 495 , 1283 489 
Q 1290 484 , 1303 484 
Q 1309 484 , 1314 485 
Q 1319 485 , 1324 487 
L 1324 492 
Q 1317 490 , 1313 489 
Q 1309 489 , 1304 489 
Q 1294 489 , 1288 493 
Q 1283 496 , 1283 504 
Q 1283 512 , 1288 516 
Q 1294 520 , 1304 520 
Q 1309 520 , 1312 520 
Q 1316 519 , 1317 519 
" fill="#F5C000" />
<path d="
M 1267 461 
L 1267 420 
L 1253 420 
L 1253 403 
L 1275 403 
L 1275 472 
Q 1270 478 , 1264 481 
Q 1259 483 , 1253 483 
Q 1240 483 , 1233 463 
Q 1225 442 , 1225 407 
Q 1225 371 , 1233 351 
Q 1240 330 , 1253 330 
Q 1259 330 , 1264 333 
Q 1269 335 , 1274 342 
L 1274 362 
Q 1267 353 , 1263 351 
Q 1259 348 , 1254 348 
Q 1244 348 , 1238 363 
Q 1233 377 , 1233 407 
Q 1233 437 , 1238 452 
Q 1244 466 , 1254 466 
Q 1259 466 , 1262 465 
Q 1266 463 , 1267 461 
" fill="lightgray" />
<path d="
M 1325 346 
L 1325 370 
Q 1318 355 , 1314 351 
Q 1309 347 , 1304 347 
Q 1294 347 , 1289 362 
Q 1283 377 , 1283 406 
Q 1283 436 , 1289 452 
Q 1294 467 , 1304 467 
Q 1309 467 , 1314 463 
Q 1318 459 , 1325 444 
L 1325 468 
Q 1320 476 , 1314 480 
Q 1310 483 , 1304 483 
Q 1290 483 , 1283 463 
Q 1275 442 , 1275 407 
Q 1275 372 , 1283 351 
Q 1290 330 , 1304 330 
Q 1310 330 , 1315 334 
Q 1320 337 , 1325 346 
" fill="#545FFF" />
<path d="
M 1330 554 
L 1348 554 
L 1348 554 
Q 1348 554 , 1356 554 
Q 1363 555 , 1380 555 
Q 1397 555 , 1405 554 
Q 1412 554 , 1412 554 
L 1412 554 
L 1430 554 
L 1430 554 
Q 1430 554 , 1417 555 
Q 1405 555 , 1380 555 
Q 1356 555 , 1343 555 
Q 1330 554 , 1330 554 
L 1330 554 
" fill="#D21010" />
<path d="
M 1380 553 
L 1362 553 
L 1396 553 
L 1380 553 
M 1373 553 
L 1387 553 
L 1430 554 
L 1414 554 
L 1402 553 
L 1358 553 
L 1345 554 
L 1330 554 
L 1373 553 
" fill="#339541" />
<path d="
M 1430 552 
L 1430 552 
Q 1415 552 , 1407 552 
Q 1399 552 , 1389 552 
Q 1368 552 , 1358 552 
Q 1346 552 , 1346 552 
Q 1346 552 , 1358 553 
Q 1368 553 , 1389 553 
Q 1399 553 , 1407 553 
Q 1415 553 , 1430 552 
L 1430 553 
Q 1419 553 , 1409 553 
Q 1399 553 , 1388 553 
Q 1361 553 , 1346 553 
Q 1330 552 , 1330 552 
Q 1330 552 , 1346 552 
Q 1361 552 , 1388 552 
Q 1399 552 , 1409 552 
Q 1420 552 , 1430 552 
" fill="#545FFF" />
<path d="
M 1414 552 
L 1414 551 
L 1385 551 
L 1385 551 
L 1430 551 
L 1430 552 
Q 1419 552 , 1408 552 
Q 1399 552 , 1387 552 
Q 1361 552 , 1345 552 
Q 1330 552 , 1330 551 
Q 1330 551 , 1345 551 
Q 1361 551 , 1387 551 
Q 1398 551 , 1407 551 
Q 1417 551 , 1427 551 
L 1427 551 
Q 1414 551 , 1406 551 
Q 1397 551 , 1388 551 
Q 1367 551 , 1356 551 
Q 1346 551 , 1346 551 
Q 1346 552 , 1356 552 
Q 1367 552 , 1388 552 
Q 1397 552 , 1404 552 
Q 1411 552 , 1414 552 
" fill="#F5C000" />
<path d="M 65 168 L 65 555 " stroke="black" stroke-width="1.5"/>
<path d="M 55 555 L 65 555 " stroke="black" stroke-width="4"/>
<text text-anchor="end" x="50" y="555" font-size="50" alignment-baseline="middle">0</text>
<path d="M 55 362 L 65 362 " stroke="black" stroke-width="4"/>
<text text-anchor="end" x="50" y="362" font-size="50" alignment-baseline="middle">1</text>
<path d="M 55 168 L 65 168 " stroke="black" stroke-width="4"/>
<text text-anchor="end" x="50" y="168" font-size="50" alignment-baseline="middle">2</text>
<text text-anchor="middle" x="750" y="50" font-size="50" alignment-baseline="baseline"></text>
G<path d="
M 160 582 
L 126 595 
L 160 608 
L 157 611 
L 123 598 
L 123 623 
L 117 623 
L 117 599 
L 83 611 
L 80 608 
L 114 595 
L 80 582 
L 83 579 
L 117 591 
L 117 567 
L 123 567 
L 123 591 
L 157 579 
L 160 582 
" fill="black" />
<path d="
" fill="black" />
<path d="
M 202 567 
L 222 567 
L 222 623 
L 202 623 
L 202 567 
" fill="black" />
<path d="
" fill="black" />
<path d="
M 255 619 
L 272 619 
L 272 623 
L 252 623 
L 252 619 
L 260 604 
Q 262 599 , 265 595 
Q 267 591 , 267 589 
Q 268 587 , 268 583 
Q 268 577 , 266 573 
Q 265 571 , 261 571 
Q 259 571 , 257 573 
Q 256 574 , 252 577 
L 252 573 
Q 254 571 , 256 569 
Q 259 567 , 261 567 
Q 265 567 , 268 571 
Q 271 574 , 271 583 
Q 271 586 , 270 589 
Q 269 593 , 267 597 
Q 267 598 , 264 603 
L 255 619 
" fill="black" />
<path d="
M 370 567 
Q 341 574 , 328 581 
Q 315 588 , 315 595 
Q 315 602 , 328 609 
Q 341 616 , 370 623 
L 346 623 
Q 318 616 , 304 609 
Q 290 602 , 290 595 
Q 290 588 , 304 581 
Q 318 574 , 346 567 
L 370 567 
" fill="black" />
<path d="
M 475 567 
Q 446 574 , 433 581 
Q 420 588 , 420 595 
Q 420 602 , 433 609 
Q 446 616 , 475 623 
L 451 623 
Q 423 616 , 409 609 
Q 395 602 , 395 595 
Q 395 588 , 409 581 
Q 423 574 , 451 567 
L 475 567 
" fill="black" />
<path d="
" fill="black" />
<path d="
M 526 567 
L 553 567 
L 553 623 
L 526 623 
L 526 567 
" fill="black" />
<path d="
" fill="black" />
<path d="
" fill="black" />
<path d="
M 622 567 
L 642 567 
L 642 623 
L 622 623 
L 622 567 
" fill="black" />
<path d="
" fill="black" />
<path d="
M 672 567 
L 692 567 
L 692 571 
L 680 623 
L 677 623 
L 689 571 
L 672 571 
L 672 567 
" fill="black" />
<path d="
M 790 582 
L 756 595 
L 790 608 
L 787 611 
L 753 598 
L 753 623 
L 747 623 
L 747 599 
L 713 611 
L 710 608 
L 744 595 
L 710 582 
L 713 579 
L 747 591 
L 747 567 
L 753 567 
L 753 591 
L 787 579 
L 790 582 
" fill="black" />
<path d="
" fill="black" />
<path d="
M 841 567 
L 868 567 
L 868 623 
L 841 623 
L 841 567 
" fill="black" />
<path d="
" fill="black" />
<path d="
" fill="black" />
<path d="
M 946 567 
L 973 567 
L 973 623 
L 946 623 
L 946 567 
" fill="black" />
<path d="
" fill="black" />
<path d="
M 1025 567 
L 1049 567 
Q 1077 574 , 1091 581 
Q 1105 588 , 1105 595 
Q 1105 602 , 1091 609 
Q 1077 616 , 1049 623 
L 1025 623 
Q 1054 616 , 1067 609 
Q 1080 602 , 1080 595 
Q 1080 588 , 1067 581 
Q 1054 574 , 1025 567 
" fill="black" />
<path d="
" fill="black" />
<path d="
M 1147 567 
L 1167 567 
L 1167 623 
L 1147 623 
L 1147 567 
" fill="black" />
<path d="
" fill="black" />
<path d="
M 1200 619 
L 1217 619 
L 1217 623 
L 1197 623 
L 1197 619 
L 1205 604 
Q 1207 599 , 1210 595 
Q 1212 591 , 1212 589 
Q 1213 587 , 1213 583 
Q 1213 577 , 1211 573 
Q 1210 571 , 1206 571 
Q 1204 571 , 1202 573 
Q 1201 574 , 1197 577 
L 1197 573 
Q 1199 571 , 1201 569 
Q 1204 567 , 1206 567 
Q 1210 567 , 1213 571 
Q 1216 574 , 1216 583 
Q 1216 586 , 1215 589 
Q 1214 593 , 1212 597 
Q 1212 598 , 1209 603 
L 1200 619 
" fill="black" />
<path d="
M 1235 567 
L 1259 567 
Q 1287 574 , 1301 581 
Q 1315 588 , 1315 595 
Q 1315 602 , 1301 609 
Q 1287 616 , 1259 623 
L 1235 623 
Q 1264 616 , 1277 609 
Q 1290 602 , 1290 595 
Q 1290 588 , 1277 581 
Q 1264 574 , 1235 567 
" fill="black" />
<path d="
M 1420 582 
L 1386 595 
L 1420 608 
L 1417 611 
L 1383 598 
L 1383 623 
L 1377 623 
L 1377 599 
L 1343 611 
L 1340 608 
L 1374 595 
L 1340 582 
L 1343 579 
L 1377 591 
L 1377 567 
L 1383 567 
L 1383 591 
L 1417 579 
L 1420 582 
" fill="black" />
</svg>
