<svg xmlns="http://www.w3.org/2000/svg"
viewBox="0 0 1435 635">
<path d="
M 120 553 
L 102 554 
L 136 554 
L 120 553 
M 113 553 
L 127 553 
L 170 554 
L 154 554 
L 142 554 
L 98 554 
L 85 554 
L 70 554 
L 113 553 
" fill="#339541" />
<path d="
M 70 551 
L 88 551 
L 88 552 
Q 88 552 , 96 552 
Q 103 552 , 120 552 
Q 137 552 , 145 552 
Q 152 552 , 152 552 
L 152 551 
L 170 551 
L 170 552 
Q 170 552 , 157 552 
Q 145 552 , 120 552 
Q 96 552 , 83 552 
Q 70 552 , 70 552 
L 70 551 
" fill="#D21010" />
<path d="
M 170 549 
L 170 550 
Q 155 549 , 147 549 
Q 139 549 , 129 549 
Q 108 549 , 98 549 
Q 86 550 , 86 550 
Q 86 550 , 98 551 
Q 108 551 , 129 551 
Q 139 551 , 147 551 
Q 155 551 , 170 550 
L 170 551 
Q 159 551 , 149 551 
Q 139 551 , 128 551 
Q 101 551 , 86 551 
Q 70 550 , 70 550 
Q 70 550 , 86 549 
Q 101 549 , 128 549 
Q 139 549 , 149 549 
Q 160 549 , 170 549 
" fill="#545FFF" />
<path d="
M 154 548 
L 154 547 
L 125 547 
L 125 547 
L 170 547 
L 170 548 
Q 159 548 , 148 548 
Q 139 548 , 127 548 
Q 101 548 , 85 548 
Q 70 548 , 70 547 
Q 70 547 , 85 546 
Q 101 546 , 127 546 
Q 138 546 , 147 546 
Q 157 546 , 167 546 
L 167 546 
Q 154 546 , 146 546 
Q 137 546 , 128 546 
Q 107 546 , 96 546 
Q 86 547 , 86 547 
Q 86 547 , 96 548 
Q 107 548 , 128 548 
Q 137 548 , 144 548 
Q 151 548 , 154 548 
" fill="#F5C000" />
<path d="
M 175 551 
L 193 551 
L 193 553 
Q 193 554 , 201 554 
Q 208 554 , 225 554 
Q 242 554 , 250 554 
Q 257 554 , 257 553 
L 257 551 
L 275 551 
L 275 553 
Q 275 554 , 262 554 
Q 250 554 , 225 554 
Q 201 554 , 188 554 
Q 175 554 , 175 553 
L 175 551 
" fill="#D21010" />
<path d="
M 225 548 
L 207 549 
L 241 549 
L 225 548 
M 218 547 
L 232 547 
L 275 550 
L 259 550 
L 247 549 
L 203 549 
L 190 550 
L 175 550 
L 218 547 
" fill="#339541" />
<path d="
M 275 542 
L 275 543 
Q 260 543 , 252 543 
Q 244 543 , 234 543 
Q 213 543 , 203 543 
Q 191 543 , 191 544 
Q 191 545 , 203 546 
Q 213 546 , 234 546 
Q 244 546 , 252 546 
Q 260 546 , 275 545 
L 275 546 
Q 264 546 , 254 546 
Q 244 547 , 233 547 
Q 206 547 , 191 546 
Q 175 545 , 175 544 
Q 175 543 , 191 543 
Q 206 542 , 233 542 
Q 244 542 , 254 542 
Q 265 542 , 275 542 
" fill="#545FFF" />
<path d="
M 259 540 
L 259 538 
L 230 538 
L 230 537 
L 275 537 
L 275 541 
Q 264 541 , 253 541 
Q 244 541 , 232 541 
Q 206 541 , 190 540 
Q 175 539 , 175 537 
Q 175 535 , 190 534 
Q 206 533 , 232 533 
Q 243 533 , 252 533 
Q 262 533 , 272 534 
L 272 535 
Q 259 534 , 251 534 
Q 242 534 , 233 534 
Q 212 534 , 201 535 
Q 191 535 , 191 537 
Q 191 539 , 201 539 
Q 212 540 , 233 540 
Q 242 540 , 249 540 
Q 256 540 , 259 540 
" fill="#F5C000" />
<path d="
M 280 552 
L 298 552 
L 298 553 
Q 298 554 , 306 554 
Q 313 554 , 330 554 
Q 347 554 , 355 554 
Q 362 554 , 362 553 
L 362 552 
L 380 552 
L 380 554 
Q 380 554 , 367 554 
Q 355 555 , 330 555 
Q 306 555 , 293 554 
Q 280 554 , 280 554 
L 280 552 
" fill="#D21010" />
<path d="
M 330 549 
L 312 550 
L 346 550 
L 330 549 
M 323 548 
L 337 548 
L 380 551 
L 364 551 
L 352 550 
L 308 550 
L 295 551 
L 280 551 
L 323 548 
" fill="#339541" />
<path d="
M 364 540 
L 364 524 
L 335 524 
L 335 518 
L 380 518 
L 380 544 
Q 369 546 , 358 547 
Q 349 548 , 337 548 
Q 311 548 , 295 540 
Q 280 533 , 280 520 
Q 280 506 , 295 499 
Q 311 491 , 337 491 
Q 348 491 , 357 492 
Q 367 493 , 377 496 
L 377 503 
Q 364 500 , 356 499 
Q 347 498 , 338 498 
Q 317 498 , 306 503 
Q 296 508 , 296 520 
Q 296 531 , 306 536 
Q 317 542 , 338 542 
Q 347 542 , 354 541 
Q 361 540 , 364 540 
" fill="#F5C000" />
<path d="
M 380 406 
L 380 421 
Q 365 411 , 357 409 
Q 349 406 , 339 406 
Q 318 406 , 308 416 
Q 296 425 , 296 443 
Q 296 462 , 308 471 
Q 318 480 , 339 480 
Q 349 480 , 357 478 
Q 365 475 , 380 466 
L 380 481 
Q 369 486 , 359 488 
Q 349 491 , 338 491 
Q 311 491 , 296 478 
Q 280 465 , 280 443 
Q 280 422 , 296 409 
Q 311 396 , 338 396 
Q 349 396 , 359 398 
Q 370 401 , 380 406 
" fill="#545FFF" />
<path d="
M 410 552 
L 401 553 
L 418 553 
L 410 552 
M 406 552 
L 414 552 
L 435 554 
L 427 554 
L 421 554 
L 399 554 
L 392 554 
L 385 554 
L 406 552 
" fill="#339541" />
<path d="
M 435 552 
L 444 552 
L 444 553 
Q 444 554 , 448 554 
Q 451 554 , 460 554 
Q 469 554 , 472 554 
Q 476 554 , 476 553 
L 476 552 
L 485 552 
L 485 553 
Q 485 554 , 479 554 
Q 472 554 , 460 554 
Q 448 554 , 441 554 
Q 435 554 , 435 553 
L 435 552 
" fill="lightgray" />
<path d="
M 385 549 
L 394 549 
L 394 550 
Q 394 551 , 398 551 
Q 401 551 , 410 551 
Q 419 551 , 422 551 
Q 426 551 , 426 550 
L 426 549 
L 435 549 
L 435 550 
Q 435 551 , 429 551 
Q 422 551 , 410 551 
Q 398 551 , 391 551 
Q 385 551 , 385 550 
L 385 549 
" fill="#D21010" />
<path d="
M 477 551 
L 477 550 
L 463 550 
L 463 550 
L 485 550 
L 485 551 
Q 480 551 , 474 551 
Q 469 551 , 463 551 
Q 450 551 , 443 551 
Q 435 551 , 435 550 
Q 435 550 , 443 549 
Q 450 549 , 463 549 
Q 469 549 , 474 549 
Q 479 549 , 484 549 
L 484 550 
Q 477 549 , 473 549 
Q 469 549 , 464 549 
Q 454 549 , 448 550 
Q 443 550 , 443 550 
Q 443 551 , 448 551 
Q 454 551 , 464 551 
Q 469 551 , 472 551 
Q 476 551 , 477 551 
" fill="lightgray" />
<path d="
M 385 542 
L 394 542 
L 394 546 
Q 394 547 , 398 548 
Q 401 548 , 410 548 
Q 419 548 , 422 548 
Q 426 547 , 426 546 
L 426 542 
L 435 542 
L 435 546 
Q 435 548 , 429 548 
Q 422 549 , 410 549 
Q 398 549 , 391 548 
Q 385 548 , 385 546 
L 385 542 
" fill="#D21010" />
<path d="
M 460 543 
L 451 546 
L 468 546 
L 460 543 
M 456 542 
L 464 542 
L 485 549 
L 477 549 
L 471 547 
L 449 547 
L 442 549 
L 435 549 
L 456 542 
" fill="lightgray" />
<path d="
M 427 540 
L 427 538 
L 413 538 
L 413 537 
L 435 537 
L 435 541 
Q 430 541 , 424 541 
Q 419 541 , 413 541 
Q 400 541 , 393 540 
Q 385 539 , 385 538 
Q 385 536 , 393 535 
Q 400 534 , 413 534 
Q 419 534 , 424 534 
Q 429 534 , 434 535 
L 434 536 
Q 427 535 , 423 535 
Q 419 535 , 414 535 
Q 404 535 , 398 536 
Q 393 536 , 393 538 
Q 393 539 , 398 540 
Q 404 540 , 414 540 
Q 419 540 , 422 540 
Q 426 540 , 427 540 
" fill="#F5C000" />
<path d="
M 435 534 
L 444 534 
L 444 538 
Q 444 539 , 448 540 
Q 451 540 , 460 540 
Q 469 540 , 472 540 
Q 476 539 , 476 538 
L 476 534 
L 485 534 
L 485 538 
Q 485 540 , 479 541 
Q 472 541 , 460 541 
Q 448 541 , 441 541 
Q 435 540 , 435 538 
L 435 534 
" fill="lightgray" />
<path d="
M 427 531 
L 427 524 
L 413 524 
L 413 521 
L 435 521 
L 435 532 
Q 430 533 , 424 534 
Q 419 534 , 413 534 
Q 400 534 , 393 531 
Q 385 528 , 385 522 
Q 385 516 , 393 513 
Q 400 510 , 413 510 
Q 419 510 , 424 510 
Q 429 511 , 434 512 
L 434 515 
Q 427 514 , 423 513 
Q 419 513 , 414 513 
Q 404 513 , 398 515 
Q 393 517 , 393 522 
Q 393 527 , 398 529 
Q 404 531 , 414 531 
Q 419 531 , 422 531 
Q 426 531 , 427 531 
" fill="#F5C000" />
<path d="
M 485 513 
L 485 516 
Q 478 514 , 474 513 
Q 469 513 , 464 513 
Q 454 513 , 449 515 
Q 443 517 , 443 522 
Q 443 527 , 449 529 
Q 454 531 , 464 531 
Q 469 531 , 474 531 
Q 478 530 , 485 528 
L 485 532 
Q 480 533 , 474 533 
Q 470 534 , 464 534 
Q 450 534 , 443 531 
Q 435 527 , 435 522 
Q 435 516 , 443 513 
Q 450 510 , 464 510 
Q 470 510 , 475 511 
Q 480 511 , 485 513 
" fill="lightgray" />
<path d="
M 435 229 
L 435 277 
Q 428 247 , 424 239 
Q 419 231 , 414 231 
Q 404 231 , 399 261 
Q 393 292 , 393 352 
Q 393 413 , 399 445 
Q 404 475 , 414 475 
Q 419 475 , 424 467 
Q 428 459 , 435 428 
L 435 477 
Q 430 495 , 424 502 
Q 420 509 , 414 509 
Q 400 509 , 393 467 
Q 385 425 , 385 353 
Q 385 281 , 393 239 
Q 400 196 , 414 196 
Q 420 196 , 425 204 
Q 430 211 , 435 229 
" fill="#545FFF" />
<path d="
M 477 464 
L 477 380 
L 463 380 
L 463 346 
L 485 346 
L 485 485 
Q 480 499 , 474 504 
Q 469 509 , 463 509 
Q 450 509 , 443 467 
Q 435 426 , 435 353 
Q 435 280 , 443 238 
Q 450 196 , 463 196 
Q 469 196 , 474 201 
Q 479 207 , 484 221 
L 484 261 
Q 477 244 , 473 238 
Q 469 233 , 464 233 
Q 454 233 , 448 263 
Q 443 292 , 443 353 
Q 443 414 , 448 445 
Q 454 474 , 464 474 
Q 469 474 , 472 471 
Q 476 468 , 477 464 
" fill="lightgray" />
<path d="
M 490 553 
L 499 553 
L 499 554 
Q 499 554 , 503 554 
Q 506 555 , 515 555 
Q 524 555 , 527 554 
Q 531 554 , 531 554 
L 531 553 
L 540 553 
L 540 554 
Q 540 554 , 534 555 
Q 527 555 , 515 555 
Q 503 555 , 496 555 
Q 490 554 , 490 554 
L 490 553 
" fill="#D21010" />
<path d="
M 565 553 
L 556 554 
L 573 554 
L 565 553 
M 561 553 
L 569 553 
L 590 555 
L 582 555 
L 576 554 
L 554 554 
L 547 555 
L 540 555 
L 561 553 
" fill="lightgray" />
<path d="
M 532 552 
L 532 551 
L 518 551 
L 518 551 
L 540 551 
L 540 552 
Q 535 552 , 529 552 
Q 524 552 , 518 552 
Q 505 552 , 498 552 
Q 490 551 , 490 551 
Q 490 550 , 498 549 
Q 505 549 , 518 549 
Q 524 549 , 529 549 
Q 534 549 , 539 549 
L 539 550 
Q 532 550 , 528 549 
Q 524 549 , 519 549 
Q 509 549 , 503 550 
Q 498 550 , 498 551 
Q 498 551 , 503 552 
Q 509 552 , 519 552 
Q 524 552 , 527 552 
Q 531 552 , 532 552 
" fill="#F5C000" />
<path d="
M 590 549 
L 590 550 
Q 583 550 , 579 549 
Q 574 549 , 569 549 
Q 559 549 , 554 550 
Q 548 550 , 548 550 
Q 548 551 , 554 552 
Q 559 552 , 569 552 
Q 574 552 , 579 552 
Q 583 552 , 590 551 
L 590 552 
Q 585 552 , 579 552 
Q 575 552 , 569 552 
Q 555 552 , 548 552 
Q 540 551 , 540 551 
Q 540 550 , 548 549 
Q 555 549 , 569 549 
Q 575 549 , 580 549 
Q 585 549 , 590 549 
" fill="lightgray" />
<path d="
M 540 545 
L 540 546 
Q 533 546 , 529 546 
Q 524 545 , 519 545 
Q 509 545 , 504 546 
Q 498 546 , 498 547 
Q 498 548 , 504 548 
Q 509 549 , 519 549 
Q 524 549 , 529 548 
Q 533 548 , 540 548 
L 540 549 
Q 535 549 , 529 549 
Q 525 549 , 519 549 
Q 505 549 , 498 548 
Q 490 548 , 490 547 
Q 490 546 , 498 546 
Q 505 545 , 519 545 
Q 525 545 , 530 545 
Q 535 545 , 540 545 
" fill="#545FFF" />
<path d="
M 582 548 
L 582 547 
L 568 547 
L 568 547 
L 590 547 
L 590 549 
Q 585 549 , 579 549 
Q 574 549 , 568 549 
Q 555 549 , 548 548 
Q 540 548 , 540 547 
Q 540 546 , 548 546 
Q 555 545 , 568 545 
Q 574 545 , 579 545 
Q 584 545 , 589 545 
L 589 546 
Q 582 546 , 578 546 
Q 574 545 , 569 545 
Q 559 545 , 553 546 
Q 548 546 , 548 547 
Q 548 548 , 553 548 
Q 559 549 , 569 549 
Q 574 549 , 577 548 
Q 581 548 , 582 548 
" fill="lightgray" />
<path d="
M 490 537 
L 499 537 
L 499 542 
Q 499 543 , 503 543 
Q 506 544 , 515 544 
Q 524 544 , 527 543 
Q 531 543 , 531 542 
L 531 537 
L 540 537 
L 540 542 
Q 540 543 , 534 544 
Q 527 545 , 515 545 
Q 503 545 , 496 544 
Q 490 543 , 490 542 
L 490 537 
" fill="#D21010" />
<path d="
M 582 544 
L 582 542 
L 568 542 
L 568 541 
L 590 541 
L 590 544 
Q 585 544 , 579 545 
Q 574 545 , 568 545 
Q 555 545 , 548 544 
Q 540 543 , 540 541 
Q 540 539 , 548 538 
Q 555 537 , 568 537 
Q 574 537 , 579 537 
Q 584 537 , 589 538 
L 589 539 
Q 582 538 , 578 538 
Q 574 538 , 569 538 
Q 559 538 , 553 539 
Q 548 539 , 548 541 
Q 548 542 , 553 543 
Q 559 544 , 569 544 
Q 574 544 , 577 544 
Q 581 544 , 582 544 
" fill="lightgray" />
<path d="
M 532 536 
L 532 534 
L 518 534 
L 518 533 
L 540 533 
L 540 536 
Q 535 537 , 529 537 
Q 524 537 , 518 537 
Q 505 537 , 498 536 
Q 490 535 , 490 533 
Q 490 531 , 498 530 
Q 505 529 , 518 529 
Q 524 529 , 529 529 
Q 534 529 , 539 530 
L 539 531 
Q 532 530 , 528 530 
Q 524 530 , 519 530 
Q 509 530 , 503 531 
Q 498 531 , 498 533 
Q 498 534 , 503 535 
Q 509 536 , 519 536 
Q 524 536 , 527 536 
Q 531 536 , 532 536 
" fill="#F5C000" />
<path d="
M 540 529 
L 549 529 
L 549 534 
Q 549 535 , 553 535 
Q 556 536 , 565 536 
Q 574 536 , 577 535 
Q 581 535 , 581 534 
L 581 529 
L 590 529 
L 590 534 
Q 590 535 , 584 536 
Q 577 537 , 565 537 
Q 553 537 , 546 536 
Q 540 535 , 540 534 
L 540 529 
" fill="lightgray" />
<path d="
M 515 521 
L 506 525 
L 523 525 
L 515 521 
M 511 520 
L 519 520 
L 540 528 
L 532 528 
L 526 526 
L 504 526 
L 497 528 
L 490 528 
L 511 520 
" fill="#339541" />
<path d="
M 540 520 
L 549 520 
L 549 525 
Q 549 526 , 553 527 
Q 556 527 , 565 527 
Q 574 527 , 577 527 
Q 581 526 , 581 525 
L 581 520 
L 590 520 
L 590 525 
Q 590 526 , 584 527 
Q 577 528 , 565 528 
Q 553 528 , 546 527 
Q 540 526 , 540 525 
L 540 520 
" fill="lightgray" />
<path d="
M 645 550 
L 627 552 
L 661 552 
L 645 550 
M 638 549 
L 652 549 
L 695 555 
L 679 555 
L 667 553 
L 623 553 
L 610 555 
L 595 555 
L 638 549 
" fill="#339541" />
<path d="
M 595 540 
L 613 540 
L 613 545 
Q 613 546 , 621 547 
Q 628 548 , 645 548 
Q 662 548 , 670 547 
Q 677 546 , 677 545 
L 677 540 
L 695 540 
L 695 545 
Q 695 547 , 682 548 
Q 670 548 , 645 548 
Q 621 548 , 608 548 
Q 595 547 , 595 545 
L 595 540 
" fill="#D21010" />
<path d="
M 695 514 
L 695 519 
Q 680 516 , 672 515 
Q 664 514 , 654 514 
Q 633 514 , 623 517 
Q 611 520 , 611 525 
Q 611 531 , 623 534 
Q 633 537 , 654 537 
Q 664 537 , 672 536 
Q 680 535 , 695 532 
L 695 537 
Q 684 539 , 674 539 
Q 664 540 , 653 540 
Q 626 540 , 611 536 
Q 595 532 , 595 525 
Q 595 519 , 611 515 
Q 626 511 , 653 511 
Q 664 511 , 674 512 
Q 685 512 , 695 514 
" fill="#545FFF" />
<path d="
M 679 497 
L 679 473 
L 650 473 
L 650 463 
L 695 463 
L 695 503 
Q 684 507 , 673 509 
Q 664 510 , 652 510 
Q 626 510 , 610 498 
Q 595 486 , 595 465 
Q 595 443 , 610 431 
Q 626 419 , 652 419 
Q 663 419 , 672 421 
Q 682 422 , 692 426 
L 692 438 
Q 679 433 , 671 431 
Q 662 430 , 653 430 
Q 632 430 , 621 438 
Q 611 447 , 611 465 
Q 611 483 , 621 491 
Q 632 500 , 653 500 
Q 662 500 , 669 499 
Q 676 498 , 679 497 
" fill="#F5C000" />
<path d="
M 750 553 
L 732 554 
L 766 554 
L 750 553 
M 743 553 
L 757 553 
L 800 554 
L 784 554 
L 772 554 
L 728 554 
L 715 554 
L 700 554 
L 743 553 
" fill="#339541" />
<path d="
M 700 551 
L 718 551 
L 718 552 
Q 718 552 , 726 552 
Q 733 552 , 750 552 
Q 767 552 , 775 552 
Q 782 552 , 782 552 
L 782 551 
L 800 551 
L 800 552 
Q 800 552 , 787 552 
Q 775 552 , 750 552 
Q 726 552 , 713 552 
Q 700 552 , 700 552 
L 700 551 
" fill="#D21010" />
<path d="
M 800 549 
L 800 550 
Q 785 549 , 777 549 
Q 769 549 , 759 549 
Q 738 549 , 728 549 
Q 716 550 , 716 550 
Q 716 550 , 728 551 
Q 738 551 , 759 551 
Q 769 551 , 777 551 
Q 785 551 , 800 550 
L 800 551 
Q 789 551 , 779 551 
Q 769 551 , 758 551 
Q 731 551 , 716 551 
Q 700 550 , 700 550 
Q 700 550 , 716 549 
Q 731 549 , 758 549 
Q 769 549 , 779 549 
Q 790 549 , 800 549 
" fill="#545FFF" />
<path d="
M 784 548 
L 784 547 
L 755 547 
L 755 547 
L 800 547 
L 800 548 
Q 789 548 , 778 548 
Q 769 548 , 757 548 
Q 731 548 , 715 548 
Q 700 548 , 700 547 
Q 700 547 , 715 546 
Q 731 546 , 757 546 
Q 768 546 , 777 546 
Q 787 546 , 797 546 
L 797 546 
Q 784 546 , 776 546 
Q 767 546 , 758 546 
Q 737 546 , 726 546 
Q 716 547 , 716 547 
Q 716 547 , 726 548 
Q 737 548 , 758 548 
Q 767 548 , 774 548 
Q 781 548 , 784 548 
" fill="#F5C000" />
<path d="
M 855 552 
L 837 553 
L 871 553 
L 855 552 
M 848 552 
L 862 552 
L 905 554 
L 889 554 
L 877 553 
L 833 553 
L 820 554 
L 805 554 
L 848 552 
" fill="#339541" />
<path d="
M 805 546 
L 823 546 
L 823 549 
Q 823 550 , 831 551 
Q 838 551 , 855 551 
Q 872 551 , 880 551 
Q 887 550 , 887 549 
L 887 546 
L 905 546 
L 905 549 
Q 905 550 , 892 551 
Q 880 552 , 855 552 
Q 831 552 , 818 551 
Q 805 550 , 805 549 
L 805 546 
" fill="#D21010" />
<path d="
M 889 537 
L 889 521 
L 860 521 
L 860 515 
L 905 515 
L 905 541 
Q 894 543 , 883 544 
Q 874 545 , 862 545 
Q 836 545 , 820 537 
Q 805 530 , 805 516 
Q 805 503 , 820 495 
Q 836 487 , 862 487 
Q 873 487 , 882 488 
Q 892 489 , 902 492 
L 902 499 
Q 889 496 , 881 495 
Q 872 494 , 863 494 
Q 842 494 , 831 499 
Q 821 505 , 821 516 
Q 821 528 , 831 533 
Q 842 539 , 863 539 
Q 872 539 , 879 538 
Q 886 538 , 889 537 
" fill="#F5C000" />
<path d="
M 905 425 
L 905 436 
Q 890 429 , 882 427 
Q 874 426 , 864 426 
Q 843 426 , 833 432 
Q 821 439 , 821 452 
Q 821 466 , 833 473 
Q 843 479 , 864 479 
Q 874 479 , 882 477 
Q 890 476 , 905 469 
L 905 480 
Q 894 483 , 884 485 
Q 874 487 , 863 487 
Q 836 487 , 821 477 
Q 805 468 , 805 452 
Q 805 437 , 821 427 
Q 836 418 , 863 418 
Q 874 418 , 884 420 
Q 895 421 , 905 425 
" fill="#545FFF" />
<path d="
M 910 552 
L 928 552 
L 928 554 
Q 928 554 , 936 554 
Q 943 555 , 960 555 
Q 977 555 , 985 554 
Q 992 554 , 992 554 
L 992 552 
L 1010 552 
L 1010 554 
Q 1010 554 , 997 555 
Q 985 555 , 960 555 
Q 936 555 , 923 555 
Q 910 554 , 910 554 
L 910 552 
" fill="#D21010" />
<path d="
M 960 537 
L 942 544 
L 976 544 
L 960 537 
M 953 534 
L 967 534 
L 1010 551 
L 994 551 
L 982 546 
L 938 546 
L 925 551 
L 910 551 
L 953 534 
" fill="#339541" />
<path d="
M 994 531 
L 994 525 
L 965 525 
L 965 522 
L 1010 522 
L 1010 532 
Q 999 533 , 988 533 
Q 979 534 , 967 534 
Q 941 534 , 925 531 
Q 910 528 , 910 523 
Q 910 518 , 925 515 
Q 941 512 , 967 512 
Q 978 512 , 987 512 
Q 997 513 , 1007 514 
L 1007 517 
Q 994 515 , 986 515 
Q 977 515 , 968 515 
Q 947 515 , 936 517 
Q 926 519 , 926 523 
Q 926 527 , 936 529 
Q 947 531 , 968 531 
Q 977 531 , 984 531 
Q 991 531 , 994 531 
" fill="#F5C000" />
<path d="
M 1010 398 
L 1010 417 
Q 995 405 , 987 401 
Q 979 398 , 969 398 
Q 948 398 , 938 410 
Q 926 423 , 926 447 
Q 926 472 , 938 485 
Q 948 498 , 969 498 
Q 979 498 , 987 494 
Q 995 491 , 1010 478 
L 1010 498 
Q 999 505 , 989 508 
Q 979 511 , 968 511 
Q 941 511 , 926 494 
Q 910 477 , 910 448 
Q 910 418 , 926 401 
Q 941 384 , 968 384 
Q 979 384 , 989 387 
Q 1000 390 , 1010 398 
" fill="#545FFF" />
<path d="
M 1015 553 
L 1024 553 
L 1024 554 
Q 1024 554 , 1028 554 
Q 1031 555 , 1040 555 
Q 1049 555 , 1052 554 
Q 1056 554 , 1056 554 
L 1056 553 
L 1065 553 
L 1065 554 
Q 1065 554 , 1059 555 
Q 1052 555 , 1040 555 
Q 1028 555 , 1021 555 
Q 1015 554 , 1015 554 
L 1015 553 
" fill="lightgray" />
<path d="
M 1090 553 
L 1081 554 
L 1098 554 
L 1090 553 
M 1086 553 
L 1094 553 
L 1115 555 
L 1107 555 
L 1101 554 
L 1079 554 
L 1072 555 
L 1065 555 
L 1086 553 
" fill="#339541" />
<path d="
M 1057 552 
L 1057 551 
L 1043 551 
L 1043 551 
L 1065 551 
L 1065 552 
Q 1060 552 , 1054 552 
Q 1049 552 , 1043 552 
Q 1030 552 , 1023 552 
Q 1015 551 , 1015 551 
Q 1015 550 , 1023 549 
Q 1030 549 , 1043 549 
Q 1049 549 , 1054 549 
Q 1059 549 , 1064 549 
L 1064 550 
Q 1057 550 , 1053 549 
Q 1049 549 , 1044 549 
Q 1034 549 , 1028 550 
Q 1023 550 , 1023 551 
Q 1023 551 , 1028 552 
Q 1034 552 , 1044 552 
Q 1049 552 , 1052 552 
Q 1056 552 , 1057 552 
" fill="lightgray" />
<path d="
M 1115 549 
L 1115 550 
Q 1108 550 , 1104 549 
Q 1099 549 , 1094 549 
Q 1084 549 , 1079 550 
Q 1073 550 , 1073 550 
Q 1073 551 , 1079 552 
Q 1084 552 , 1094 552 
Q 1099 552 , 1104 552 
Q 1108 552 , 1115 551 
L 1115 552 
Q 1110 552 , 1104 552 
Q 1100 552 , 1094 552 
Q 1080 552 , 1073 552 
Q 1065 551 , 1065 551 
Q 1065 550 , 1073 549 
Q 1080 549 , 1094 549 
Q 1100 549 , 1105 549 
Q 1110 549 , 1115 549 
" fill="#545FFF" />
<path d="
M 1065 545 
L 1065 546 
Q 1058 546 , 1054 546 
Q 1049 545 , 1044 545 
Q 1034 545 , 1029 546 
Q 1023 546 , 1023 547 
Q 1023 548 , 1029 548 
Q 1034 549 , 1044 549 
Q 1049 549 , 1054 548 
Q 1058 548 , 1065 548 
L 1065 549 
Q 1060 549 , 1054 549 
Q 1050 549 , 1044 549 
Q 1030 549 , 1023 548 
Q 1015 548 , 1015 547 
Q 1015 546 , 1023 546 
Q 1030 545 , 1044 545 
Q 1050 545 , 1055 545 
Q 1060 545 , 1065 545 
" fill="lightgray" />
<path d="
M 1107 548 
L 1107 547 
L 1093 547 
L 1093 547 
L 1115 547 
L 1115 549 
Q 1110 549 , 1104 549 
Q 1099 549 , 1093 549 
Q 1080 549 , 1073 548 
Q 1065 548 , 1065 547 
Q 1065 546 , 1073 546 
Q 1080 545 , 1093 545 
Q 1099 545 , 1104 545 
Q 1109 545 , 1114 545 
L 1114 546 
Q 1107 546 , 1103 546 
Q 1099 545 , 1094 545 
Q 1084 545 , 1078 546 
Q 1073 546 , 1073 547 
Q 1073 548 , 1078 548 
Q 1084 549 , 1094 549 
Q 1099 549 , 1102 548 
Q 1106 548 , 1107 548 
" fill="#F5C000" />
<path d="
M 1015 537 
L 1024 537 
L 1024 542 
Q 1024 543 , 1028 543 
Q 1031 544 , 1040 544 
Q 1049 544 , 1052 543 
Q 1056 543 , 1056 542 
L 1056 537 
L 1065 537 
L 1065 542 
Q 1065 543 , 1059 544 
Q 1052 545 , 1040 545 
Q 1028 545 , 1021 544 
Q 1015 543 , 1015 542 
L 1015 537 
" fill="lightgray" />
<path d="
M 1107 544 
L 1107 542 
L 1093 542 
L 1093 541 
L 1115 541 
L 1115 544 
Q 1110 544 , 1104 545 
Q 1099 545 , 1093 545 
Q 1080 545 , 1073 544 
Q 1065 543 , 1065 541 
Q 1065 539 , 1073 538 
Q 1080 537 , 1093 537 
Q 1099 537 , 1104 537 
Q 1109 537 , 1114 538 
L 1114 539 
Q 1107 538 , 1103 538 
Q 1099 538 , 1094 538 
Q 1084 538 , 1078 539 
Q 1073 539 , 1073 541 
Q 1073 542 , 1078 543 
Q 1084 544 , 1094 544 
Q 1099 544 , 1102 544 
Q 1106 544 , 1107 544 
" fill="#F5C000" />
<path d="
M 1057 536 
L 1057 534 
L 1043 534 
L 1043 533 
L 1065 533 
L 1065 536 
Q 1060 537 , 1054 537 
Q 1049 537 , 1043 537 
Q 1030 537 , 1023 536 
Q 1015 535 , 1015 533 
Q 1015 531 , 1023 530 
Q 1030 529 , 1043 529 
Q 1049 529 , 1054 529 
Q 1059 529 , 1064 530 
L 1064 531 
Q 1057 530 , 1053 530 
Q 1049 530 , 1044 530 
Q 1034 530 , 1028 531 
Q 1023 531 , 1023 533 
Q 1023 534 , 1028 535 
Q 1034 536 , 1044 536 
Q 1049 536 , 1052 536 
Q 1056 536 , 1057 536 
" fill="lightgray" />
<path d="
M 1065 529 
L 1074 529 
L 1074 534 
Q 1074 535 , 1078 535 
Q 1081 536 , 1090 536 
Q 1099 536 , 1102 535 
Q 1106 535 , 1106 534 
L 1106 529 
L 1115 529 
L 1115 534 
Q 1115 535 , 1109 536 
Q 1102 537 , 1090 537 
Q 1078 537 , 1071 536 
Q 1065 535 , 1065 534 
L 1065 529 
" fill="#D21010" />
<path d="
M 1040 521 
L 1031 525 
L 1048 525 
L 1040 521 
M 1036 520 
L 1044 520 
L 1065 528 
L 1057 528 
L 1051 526 
L 1029 526 
L 1022 528 
L 1015 528 
L 1036 520 
" fill="lightgray" />
<path d="
M 1065 520 
L 1074 520 
L 1074 525 
Q 1074 526 , 1078 527 
Q 1081 527 , 1090 527 
Q 1099 527 , 1102 527 
Q 1106 526 , 1106 525 
L 1106 520 
L 1115 520 
L 1115 525 
Q 1115 526 , 1109 527 
Q 1102 528 , 1090 528 
Q 1078 528 , 1071 527 
Q 1065 526 , 1065 525 
L 1065 520 
" fill="#D21010" />
<path d="
M 1145 552 
L 1136 553 
L 1153 553 
L 1145 552 
M 1141 552 
L 1149 552 
L 1170 554 
L 1162 554 
L 1156 554 
L 1134 554 
L 1127 554 
L 1120 554 
L 1141 552 
" fill="lightgray" />
<path d="
M 1170 552 
L 1179 552 
L 1179 553 
Q 1179 554 , 1183 554 
Q 1186 554 , 1195 554 
Q 1204 554 , 1207 554 
Q 1211 554 , 1211 553 
L 1211 552 
L 1220 552 
L 1220 553 
Q 1220 554 , 1214 554 
Q 1207 554 , 1195 554 
Q 1183 554 , 1176 554 
Q 1170 554 , 1170 553 
L 1170 552 
" fill="#D21010" />
<path d="
M 1120 549 
L 1129 549 
L 1129 550 
Q 1129 551 , 1133 551 
Q 1136 551 , 1145 551 
Q 1154 551 , 1157 551 
Q 1161 551 , 1161 550 
L 1161 549 
L 1170 549 
L 1170 550 
Q 1170 551 , 1164 551 
Q 1157 551 , 1145 551 
Q 1133 551 , 1126 551 
Q 1120 551 , 1120 550 
L 1120 549 
" fill="lightgray" />
<path d="
M 1212 551 
L 1212 550 
L 1198 550 
L 1198 550 
L 1220 550 
L 1220 551 
Q 1215 551 , 1209 551 
Q 1204 551 , 1198 551 
Q 1185 551 , 1178 551 
Q 1170 551 , 1170 550 
Q 1170 550 , 1178 549 
Q 1185 549 , 1198 549 
Q 1204 549 , 1209 549 
Q 1214 549 , 1219 549 
L 1219 550 
Q 1212 549 , 1208 549 
Q 1204 549 , 1199 549 
Q 1189 549 , 1183 550 
Q 1178 550 , 1178 550 
Q 1178 551 , 1183 551 
Q 1189 551 , 1199 551 
Q 1204 551 , 1207 551 
Q 1211 551 , 1212 551 
" fill="#F5C000" />
<path d="
M 1120 542 
L 1129 542 
L 1129 546 
Q 1129 547 , 1133 548 
Q 1136 548 , 1145 548 
Q 1154 548 , 1157 548 
Q 1161 547 , 1161 546 
L 1161 542 
L 1170 542 
L 1170 546 
Q 1170 548 , 1164 548 
Q 1157 549 , 1145 549 
Q 1133 549 , 1126 548 
Q 1120 548 , 1120 546 
L 1120 542 
" fill="lightgray" />
<path d="
M 1195 543 
L 1186 546 
L 1203 546 
L 1195 543 
M 1191 542 
L 1199 542 
L 1220 549 
L 1212 549 
L 1206 547 
L 1184 547 
L 1177 549 
L 1170 549 
L 1191 542 
" fill="#339541" />
<path d="
M 1162 540 
L 1162 538 
L 1148 538 
L 1148 537 
L 1170 537 
L 1170 541 
Q 1165 541 , 1159 541 
Q 1154 541 , 1148 541 
Q 1135 541 , 1128 540 
Q 1120 539 , 1120 538 
Q 1120 536 , 1128 535 
Q 1135 534 , 1148 534 
Q 1154 534 , 1159 534 
Q 1164 534 , 1169 535 
L 1169 536 
Q 1162 535 , 1158 535 
Q 1154 535 , 1149 535 
Q 1139 535 , 1133 536 
Q 1128 536 , 1128 538 
Q 1128 539 , 1133 540 
Q 1139 540 , 1149 540 
Q 1154 540 , 1157 540 
Q 1161 540 , 1162 540 
" fill="lightgray" />
<path d="
M 1170 534 
L 1179 534 
L 1179 538 
Q 1179 539 , 1183 540 
Q 1186 540 , 1195 540 
Q 1204 540 , 1207 540 
Q 1211 539 , 1211 538 
L 1211 534 
L 1220 534 
L 1220 538 
Q 1220 540 , 1214 541 
Q 1207 541 , 1195 541 
Q 1183 541 , 1176 541 
Q 1170 540 , 1170 538 
L 1170 534 
" fill="#D21010" />
<path d="
M 1162 531 
L 1162 524 
L 1148 524 
L 1148 521 
L 1170 521 
L 1170 532 
Q 1165 533 , 1159 534 
Q 1154 534 , 1148 534 
Q 1135 534 , 1128 531 
Q 1120 528 , 1120 522 
Q 1120 516 , 1128 513 
Q 1135 510 , 1148 510 
Q 1154 510 , 1159 510 
Q 1164 511 , 1169 512 
L 1169 515 
Q 1162 514 , 1158 513 
Q 1154 513 , 1149 513 
Q 1139 513 , 1133 515 
Q 1128 517 , 1128 522 
Q 1128 527 , 1133 529 
Q 1139 531 , 1149 531 
Q 1154 531 , 1157 531 
Q 1161 531 , 1162 531 
" fill="lightgray" />
<path d="
M 1220 513 
L 1220 516 
Q 1213 514 , 1209 513 
Q 1204 513 , 1199 513 
Q 1189 513 , 1184 515 
Q 1178 517 , 1178 522 
Q 1178 527 , 1184 529 
Q 1189 531 , 1199 531 
Q 1204 531 , 1209 531 
Q 1213 530 , 1220 528 
L 1220 532 
Q 1215 533 , 1209 533 
Q 1205 534 , 1199 534 
Q 1185 534 , 1178 531 
Q 1170 527 , 1170 522 
Q 1170 516 , 1178 513 
Q 1185 510 , 1199 510 
Q 1205 510 , 1210 511 
Q 1215 511 , 1220 513 
" fill="#545FFF" />
<path d="
M 1170 229 
L 1170 277 
Q 1163 247 , 1159 239 
Q 1154 231 , 1149 231 
Q 1139 231 , 1134 261 
Q 1128 292 , 1128 352 
Q 1128 413 , 1134 445 
Q 1139 475 , 1149 475 
Q 1154 475 , 1159 467 
Q 1163 459 , 1170 428 
L 1170 477 
Q 1165 495 , 1159 502 
Q 1155 509 , 1149 509 
Q 1135 509 , 1128 467 
Q 1120 425 , 1120 353 
Q 1120 281 , 1128 239 
Q 1135 196 , 1149 196 
Q 1155 196 , 1160 204 
Q 1165 211 , 1170 229 
" fill="lightgray" />
<path d="
M 1212 464 
L 1212 380 
L 1198 380 
L 1198 346 
L 1220 346 
L 1220 485 
Q 1215 499 , 1209 504 
Q 1204 509 , 1198 509 
Q 1185 509 , 1178 467 
Q 1170 426 , 1170 353 
Q 1170 280 , 1178 238 
Q 1185 196 , 1198 196 
Q 1204 196 , 1209 201 
Q 1214 207 , 1219 221 
L 1219 261 
Q 1212 244 , 1208 238 
Q 1204 233 , 1199 233 
Q 1189 233 , 1183 263 
Q 1178 292 , 1178 353 
Q 1178 414 , 1183 445 
Q 1189 474 , 1199 474 
Q 1204 474 , 1207 471 
Q 1211 468 , 1212 464 
" fill="#F5C000" />
<path d="
M 1225 552 
L 1243 552 
L 1243 553 
Q 1243 554 , 1251 554 
Q 1258 554 , 1275 554 
Q 1292 554 , 1300 554 
Q 1307 554 , 1307 553 
L 1307 552 
L 1325 552 
L 1325 553 
Q 1325 554 , 1312 554 
Q 1300 554 , 1275 554 
Q 1251 554 , 1238 554 
Q 1225 554 , 1225 553 
L 1225 552 
" fill="#D21010" />
<path d="
M 1275 546 
L 1257 549 
L 1291 549 
L 1275 546 
M 1268 545 
L 1282 545 
L 1325 551 
L 1309 551 
L 1297 549 
L 1253 549 
L 1240 551 
L 1225 551 
L 1268 545 
" fill="#339541" />
<path d="
M 1325 502 
L 1325 509 
Q 1310 505 , 1302 503 
Q 1294 502 , 1284 502 
Q 1263 502 , 1253 507 
Q 1241 512 , 1241 521 
Q 1241 530 , 1253 535 
Q 1263 539 , 1284 539 
Q 1294 539 , 1302 538 
Q 1310 537 , 1325 532 
L 1325 539 
Q 1314 542 , 1304 543 
Q 1294 544 , 1283 544 
Q 1256 544 , 1241 538 
Q 1225 531 , 1225 521 
Q 1225 510 , 1241 503 
Q 1256 497 , 1283 497 
Q 1294 497 , 1304 498 
Q 1315 499 , 1325 502 
" fill="#545FFF" />
<path d="
M 1309 482 
L 1309 455 
L 1280 455 
L 1280 444 
L 1325 444 
L 1325 489 
Q 1314 493 , 1303 494 
Q 1294 496 , 1282 496 
Q 1256 496 , 1240 483 
Q 1225 469 , 1225 446 
Q 1225 423 , 1240 409 
Q 1256 396 , 1282 396 
Q 1293 396 , 1302 398 
Q 1312 400 , 1322 404 
L 1322 417 
Q 1309 411 , 1301 410 
Q 1292 408 , 1283 408 
Q 1262 408 , 1251 417 
Q 1241 427 , 1241 446 
Q 1241 466 , 1251 476 
Q 1262 485 , 1283 485 
Q 1292 485 , 1299 484 
Q 1306 483 , 1309 482 
" fill="#F5C000" />
<path d="
M 1380 553 
L 1362 554 
L 1396 554 
L 1380 553 
M 1373 553 
L 1387 553 
L 1430 554 
L 1414 554 
L 1402 554 
L 1358 554 
L 1345 554 
L 1330 554 
L 1373 553 
" fill="#339541" />
<path d="
M 1330 551 
L 1348 551 
L 1348 552 
Q 1348 552 , 1356 552 
Q 1363 552 , 1380 552 
Q 1397 552 , 1405 552 
Q 1412 552 , 1412 552 
L 1412 551 
L 1430 551 
L 1430 552 
Q 1430 552 , 1417 552 
Q 1405 552 , 1380 552 
Q 1356 552 , 1343 552 
Q 1330 552 , 1330 552 
L 1330 551 
" fill="#D21010" />
<path d="
M 1430 549 
L 1430 550 
Q 1415 549 , 1407 549 
Q 1399 549 , 1389 549 
Q 1368 549 , 1358 549 
Q 1346 550 , 1346 550 
Q 1346 550 , 1358 551 
Q 1368 551 , 1389 551 
Q 1399 551 , 1407 551 
Q 1415 551 , 1430 550 
L 1430 551 
Q 1419 551 , 1409 551 
Q 1399 551 , 1388 551 
Q 1361 551 , 1346 551 
Q 1330 550 , 1330 550 
Q 1330 550 , 1346 549 
Q 1361 549 , 1388 549 
Q 1399 549 , 1409 549 
Q 1420 549 , 1430 549 
" fill="#545FFF" />
<path d="
M 1414 548 
L 1414 547 
L 1385 547 
L 1385 547 
L 1430 547 
L 1430 548 
Q 1419 548 , 1408 548 
Q 1399 548 , 1387 548 
Q 1361 548 , 1345 548 
Q 1330 548 , 1330 547 
Q 1330 547 , 1345 546 
Q 1361 546 , 1387 546 
Q 1398 546 , 1407 546 
Q 1417 546 , 1427 546 
L 1427 546 
Q 1414 546 , 1406 546 
Q 1397 546 , 1388 546 
Q 1367 546 , 1356 546 
Q 1346 547 , 1346 547 
Q 1346 547 , 1356 548 
Q 1367 548 , 1388 548 
Q 1397 548 , 1404 548 
Q 1411 548 , 1414 548 
" fill="#F5C000" />
<path d="M 65 168 L 65 555 " stroke="black" stroke-width="1.5"/>
<path d="M 55 555 L 65 555 " stroke="black" stroke-width="4"/>
<text text-anchor="end" x="50" y="555" font-size="50" alignment-baseline="middle">0</text>
<path d="M 55 362 L 65 362 " stroke="black" stroke-width="4"/>
<text text-anchor="end" x="50" y="362" font-size="50" alignment-baseline="middle">1</text>
<path d="M 55 168 L 65 168 " stroke="black" stroke-width="4"/>
<text text-anchor="end" x="50" y="168" font-size="50" alignment-baseline="middle">2</text>
<text text-anchor="middle" x="750" y="50" font-size="50" alignment-baseline="baseline"></text>
G<path d="
M 160 582 
L 126 595 
L 160 608 
L 157 611 
L 123 598 
L 123 623 
L 117 623 
L 117 599 
L 83 611 
L 80 608 
L 114 595 
L 80 582 
L 83 579 
L 117 591 
L 117 567 
L 123 567 
L 123 591 
L 157 579 
L 160 582 
" fill="black" />
<path d="
" fill="black" />
<path d="
M 211 567 
L 238 567 
L 238 623 
L 211 623 
L 211 567 
" fill="black" />
<path d="
" fill="black" />
<path d="
" fill="black" />
<path d="
M 316 567 
L 343 567 
L 343 623 
L 316 623 
L 316 567 
" fill="black" />
<path d="
" fill="black" />
<path d="
M 475 567 
Q 446 574 , 433 581 
Q 420 588 , 420 595 
Q 420 602 , 433 609 
Q 446 616 , 475 623 
L 451 623 
Q 423 616 , 409 609 
Q 395 602 , 395 595 
Q 395 588 , 409 581 
Q 423 574 , 451 567 
L 475 567 
" fill="black" />
<path d="
M 580 567 
Q 551 574 , 538 581 
Q 525 588 , 525 595 
Q 525 602 , 538 609 
Q 551 616 , 580 623 
L 556 623 
Q 528 616 , 514 609 
Q 500 602 , 500 595 
Q 500 588 , 514 581 
Q 528 574 , 556 567 
L 580 567 
" fill="black" />
<path d="
" fill="black" />
<path d="
M 622 567 
L 642 567 
L 642 623 
L 622 623 
L 622 567 
" fill="black" />
<path d="
" fill="black" />
<path d="
M 682 595 
Q 679 595 , 677 599 
Q 675 602 , 675 607 
Q 675 613 , 677 616 
Q 679 619 , 682 619 
Q 685 619 , 687 616 
Q 689 613 , 689 607 
Q 689 602 , 687 599 
Q 685 595 , 682 595 
M 677 593 
Q 675 592 , 674 589 
Q 673 586 , 673 581 
Q 673 575 , 675 571 
Q 678 567 , 682 567 
Q 686 567 , 689 571 
Q 691 575 , 691 581 
Q 691 586 , 690 589 
Q 688 592 , 687 593 
Q 689 594 , 690 598 
Q 692 601 , 692 607 
Q 692 614 , 689 619 
Q 687 623 , 682 623 
Q 677 623 , 675 619 
Q 672 614 , 672 607 
Q 672 601 , 674 598 
Q 675 594 , 677 593 
M 677 573 
Q 675 576 , 675 581 
Q 675 586 , 677 589 
Q 679 592 , 682 592 
Q 685 592 , 687 589 
Q 689 586 , 689 581 
Q 689 576 , 687 574 
Q 685 571 , 682 571 
Q 679 571 , 677 573 
" fill="black" />
<path d="
M 790 582 
L 756 595 
L 790 608 
L 787 611 
L 753 598 
L 753 623 
L 747 623 
L 747 599 
L 713 611 
L 710 608 
L 744 595 
L 710 582 
L 713 579 
L 747 591 
L 747 567 
L 753 567 
L 753 591 
L 787 579 
L 790 582 
" fill="black" />
<path d="
" fill="black" />
<path d="
M 841 567 
L 868 567 
L 868 623 
L 841 623 
L 841 567 
" fill="black" />
<path d="
" fill="black" />
<path d="
" fill="black" />
<path d="
M 946 567 
L 973 567 
L 973 623 
L 946 623 
L 946 567 
" fill="black" />
<path d="
" fill="black" />
<path d="
M 1025 567 
L 1049 567 
Q 1077 574 , 1091 581 
Q 1105 588 , 1105 595 
Q 1105 602 , 1091 609 
Q 1077 616 , 1049 623 
L 1025 623 
Q 1054 616 , 1067 609 
Q 1080 602 , 1080 595 
Q 1080 588 , 1067 581 
Q 1054 574 , 1025 567 
" fill="black" />
<path d="
M 1130 567 
L 1154 567 
Q 1182 574 , 1196 581 
Q 1210 588 , 1210 595 
Q 1210 602 , 1196 609 
Q 1182 616 , 1154 623 
L 1130 623 
Q 1159 616 , 1172 609 
Q 1185 602 , 1185 595 
Q 1185 588 , 1172 581 
Q 1159 574 , 1130 567 
" fill="black" />
<path d="
" fill="black" />
<path d="
M 1261 567 
L 1288 567 
L 1288 623 
L 1261 623 
L 1261 567 
" fill="black" />
<path d="
" fill="black" />
<path d="
M 1420 582 
L 1386 595 
L 1420 608 
L 1417 611 
L 1383 598 
L 1383 623 
L 1377 623 
L 1377 599 
L 1343 611 
L 1340 608 
L 1374 595 
L 1340 582 
L 1343 579 
L 1377 591 
L 1377 567 
L 1383 567 
L 1383 591 
L 1417 579 
L 1420 582 
" fill="black" />
</svg>
