<svg xmlns="http://www.w3.org/2000/svg"
viewBox="0 0 1435 635">
<path d="
M 120 553 
L 102 554 
L 136 554 
L 120 553 
M 113 553 
L 127 553 
L 170 554 
L 154 554 
L 142 554 
L 98 554 
L 85 554 
L 70 554 
L 113 553 
" fill="#339541" />
<path d="
M 70 551 
L 88 551 
L 88 552 
Q 88 552 , 96 552 
Q 103 552 , 120 552 
Q 137 552 , 145 552 
Q 152 552 , 152 552 
L 152 551 
L 170 551 
L 170 552 
Q 170 552 , 157 552 
Q 145 552 , 120 552 
Q 96 552 , 83 552 
Q 70 552 , 70 552 
L 70 551 
" fill="#D21010" />
<path d="
M 170 548 
L 170 549 
Q 155 548 , 147 548 
Q 139 548 , 129 548 
Q 108 548 , 98 548 
Q 86 549 , 86 549 
Q 86 549 , 98 550 
Q 108 550 , 129 550 
Q 139 550 , 147 550 
Q 155 550 , 170 550 
L 170 550 
Q 159 550 , 149 550 
Q 139 550 , 128 550 
Q 101 550 , 86 550 
Q 70 549 , 70 549 
Q 70 549 , 86 548 
Q 101 548 , 128 548 
Q 139 548 , 149 548 
Q 160 548 , 170 548 
" fill="#545FFF" />
<path d="
M 154 547 
L 154 546 
L 125 546 
L 125 546 
L 170 546 
L 170 547 
Q 159 547 , 148 547 
Q 139 547 , 127 547 
Q 101 547 , 85 547 
Q 70 547 , 70 546 
Q 70 546 , 85 545 
Q 101 545 , 127 545 
Q 138 545 , 147 545 
Q 157 545 , 167 545 
L 167 545 
Q 154 545 , 146 545 
Q 137 545 , 128 545 
Q 107 545 , 96 545 
Q 86 546 , 86 546 
Q 86 546 , 96 547 
Q 107 547 , 128 547 
Q 137 547 , 144 547 
Q 151 547 , 154 547 
" fill="#F5C000" />
<path d="
M 175 552 
L 184 552 
L 184 553 
Q 184 554 , 188 554 
Q 191 554 , 200 554 
Q 209 554 , 212 554 
Q 216 554 , 216 553 
L 216 552 
L 225 552 
L 225 553 
Q 225 554 , 219 554 
Q 212 554 , 200 554 
Q 188 554 , 181 554 
Q 175 554 , 175 553 
L 175 552 
" fill="#D21010" />
<path d="
M 267 554 
L 267 553 
L 253 553 
L 253 553 
L 275 553 
L 275 554 
Q 270 554 , 264 554 
Q 259 554 , 253 554 
Q 240 554 , 233 554 
Q 225 554 , 225 553 
Q 225 553 , 233 552 
Q 240 552 , 253 552 
Q 259 552 , 264 552 
Q 269 552 , 274 552 
L 274 553 
Q 267 552 , 263 552 
Q 259 552 , 254 552 
Q 244 552 , 238 553 
Q 233 553 , 233 553 
Q 233 554 , 238 554 
Q 244 554 , 254 554 
Q 259 554 , 262 554 
Q 266 554 , 267 554 
" fill="lightgray" />
<path d="
M 217 551 
L 217 550 
L 203 550 
L 203 550 
L 225 550 
L 225 551 
Q 220 551 , 214 551 
Q 209 552 , 203 552 
Q 190 552 , 183 551 
Q 175 551 , 175 550 
Q 175 550 , 183 549 
Q 190 549 , 203 549 
Q 209 549 , 214 549 
Q 219 549 , 224 549 
L 224 550 
Q 217 549 , 213 549 
Q 209 549 , 204 549 
Q 194 549 , 188 550 
Q 183 550 , 183 550 
Q 183 551 , 188 551 
Q 194 551 , 204 551 
Q 209 551 , 212 551 
Q 216 551 , 217 551 
" fill="#F5C000" />
<path d="
M 225 549 
L 234 549 
L 234 550 
Q 234 551 , 238 551 
Q 241 551 , 250 551 
Q 259 551 , 262 551 
Q 266 551 , 266 550 
L 266 549 
L 275 549 
L 275 551 
Q 275 551 , 269 551 
Q 262 552 , 250 552 
Q 238 552 , 231 551 
Q 225 551 , 225 551 
L 225 549 
" fill="lightgray" />
<path d="
M 200 542 
L 191 545 
L 208 545 
L 200 542 
M 196 540 
L 204 540 
L 225 549 
L 217 549 
L 211 546 
L 189 546 
L 182 549 
L 175 549 
L 196 540 
" fill="#339541" />
<path d="
M 225 540 
L 234 540 
L 234 545 
Q 234 547 , 238 547 
Q 241 548 , 250 548 
Q 259 548 , 262 547 
Q 266 547 , 266 545 
L 266 540 
L 275 540 
L 275 545 
Q 275 547 , 269 548 
Q 262 549 , 250 549 
Q 238 549 , 231 548 
Q 225 547 , 225 545 
L 225 540 
" fill="lightgray" />
<path d="
M 175 530 
L 184 530 
L 184 536 
Q 184 537 , 188 538 
Q 191 539 , 200 539 
Q 209 539 , 212 538 
Q 216 537 , 216 536 
L 216 530 
L 225 530 
L 225 536 
Q 225 538 , 219 539 
Q 212 540 , 200 540 
Q 188 540 , 181 539 
Q 175 538 , 175 536 
L 175 530 
" fill="#D21010" />
<path d="
M 250 532 
L 241 536 
L 258 536 
L 250 532 
M 246 530 
L 254 530 
L 275 540 
L 267 540 
L 261 537 
L 239 537 
L 232 540 
L 225 540 
L 246 530 
" fill="lightgray" />
<path d="
M 217 524 
L 217 512 
L 203 512 
L 203 507 
L 225 507 
L 225 526 
Q 220 528 , 214 529 
Q 209 530 , 203 530 
Q 190 530 , 183 524 
Q 175 518 , 175 508 
Q 175 498 , 183 493 
Q 190 487 , 203 487 
Q 209 487 , 214 488 
Q 219 489 , 224 490 
L 224 496 
Q 217 494 , 213 493 
Q 209 492 , 204 492 
Q 194 492 , 188 496 
Q 183 500 , 183 508 
Q 183 517 , 188 521 
Q 194 525 , 204 525 
Q 209 525 , 212 525 
Q 216 524 , 217 524 
" fill="#F5C000" />
<path d="
M 275 492 
L 275 498 
Q 268 494 , 264 493 
Q 259 492 , 254 492 
Q 244 492 , 239 496 
Q 233 500 , 233 508 
Q 233 517 , 239 521 
Q 244 525 , 254 525 
Q 259 525 , 264 524 
Q 268 523 , 275 519 
L 275 525 
Q 270 528 , 264 529 
Q 260 530 , 254 530 
Q 240 530 , 233 524 
Q 225 518 , 225 508 
Q 225 499 , 233 493 
Q 240 487 , 254 487 
Q 260 487 , 265 488 
Q 270 489 , 275 492 
" fill="lightgray" />
<path d="
M 225 306 
L 225 337 
Q 218 317 , 214 312 
Q 209 306 , 204 306 
Q 194 306 , 189 326 
Q 183 346 , 183 385 
Q 183 425 , 189 445 
Q 194 465 , 204 465 
Q 209 465 , 214 460 
Q 218 454 , 225 434 
L 225 466 
Q 220 478 , 214 482 
Q 210 487 , 204 487 
Q 190 487 , 183 459 
Q 175 432 , 175 386 
Q 175 339 , 183 312 
Q 190 284 , 204 284 
Q 210 284 , 215 289 
Q 220 294 , 225 306 
" fill="#545FFF" />
<path d="
M 267 458 
L 267 403 
L 253 403 
L 253 381 
L 275 381 
L 275 471 
Q 270 480 , 264 483 
Q 259 487 , 253 487 
Q 240 487 , 233 460 
Q 225 433 , 225 386 
Q 225 338 , 233 311 
Q 240 284 , 253 284 
Q 259 284 , 264 288 
Q 269 291 , 274 300 
L 274 326 
Q 267 315 , 263 311 
Q 259 308 , 254 308 
Q 244 308 , 238 327 
Q 233 346 , 233 386 
Q 233 425 , 238 445 
Q 244 464 , 254 464 
Q 259 464 , 262 462 
Q 266 460 , 267 458 
" fill="lightgray" />
<path d="
M 280 552 
L 289 552 
L 289 553 
Q 289 554 , 293 554 
Q 296 554 , 305 554 
Q 314 554 , 317 554 
Q 321 554 , 321 553 
L 321 552 
L 330 552 
L 330 553 
Q 330 554 , 324 554 
Q 317 554 , 305 554 
Q 293 554 , 286 554 
Q 280 554 , 280 553 
L 280 552 
" fill="#D21010" />
<path d="
M 355 552 
L 346 553 
L 363 553 
L 355 552 
M 351 552 
L 359 552 
L 380 554 
L 372 554 
L 366 554 
L 344 554 
L 337 554 
L 330 554 
L 351 552 
" fill="lightgray" />
<path d="
M 330 548 
L 330 549 
Q 323 549 , 319 549 
Q 314 548 , 309 548 
Q 299 548 , 294 549 
Q 288 549 , 288 550 
Q 288 551 , 294 551 
Q 299 551 , 309 551 
Q 314 551 , 319 551 
Q 323 551 , 330 551 
L 330 551 
Q 325 552 , 319 552 
Q 315 552 , 309 552 
Q 295 552 , 288 551 
Q 280 551 , 280 550 
Q 280 549 , 288 549 
Q 295 548 , 309 548 
Q 315 548 , 320 548 
Q 325 548 , 330 548 
" fill="#545FFF" />
<path d="
M 372 551 
L 372 550 
L 358 550 
L 358 550 
L 380 550 
L 380 551 
Q 375 552 , 369 552 
Q 364 552 , 358 552 
Q 345 552 , 338 551 
Q 330 551 , 330 550 
Q 330 549 , 338 549 
Q 345 548 , 358 548 
Q 364 548 , 369 548 
Q 374 548 , 379 548 
L 379 549 
Q 372 549 , 368 549 
Q 364 548 , 359 548 
Q 349 548 , 343 549 
Q 338 549 , 338 550 
Q 338 551 , 343 551 
Q 349 551 , 359 551 
Q 364 551 , 367 551 
Q 371 551 , 372 551 
" fill="lightgray" />
<path d="
M 305 543 
L 296 545 
L 313 545 
L 305 543 
M 301 542 
L 309 542 
L 330 548 
L 322 548 
L 316 546 
L 294 546 
L 287 548 
L 280 548 
L 301 542 
" fill="#339541" />
<path d="
M 330 542 
L 339 542 
L 339 545 
Q 339 546 , 343 547 
Q 346 547 , 355 547 
Q 364 547 , 367 547 
Q 371 546 , 371 545 
L 371 542 
L 380 542 
L 380 545 
Q 380 546 , 374 547 
Q 367 548 , 355 548 
Q 343 548 , 336 547 
Q 330 546 , 330 545 
L 330 542 
" fill="lightgray" />
<path d="
M 322 541 
L 322 539 
L 308 539 
L 308 538 
L 330 538 
L 330 541 
Q 325 542 , 319 542 
Q 314 542 , 308 542 
Q 295 542 , 288 541 
Q 280 540 , 280 538 
Q 280 537 , 288 536 
Q 295 535 , 308 535 
Q 314 535 , 319 535 
Q 324 535 , 329 536 
L 329 536 
Q 322 536 , 318 536 
Q 314 536 , 309 536 
Q 299 536 , 293 536 
Q 288 537 , 288 538 
Q 288 540 , 293 540 
Q 299 541 , 309 541 
Q 314 541 , 317 541 
Q 321 541 , 322 541 
" fill="#F5C000" />
<path d="
M 380 536 
L 380 537 
Q 373 536 , 369 536 
Q 364 536 , 359 536 
Q 349 536 , 344 536 
Q 338 537 , 338 538 
Q 338 540 , 344 540 
Q 349 541 , 359 541 
Q 364 541 , 369 541 
Q 373 541 , 380 540 
L 380 541 
Q 375 542 , 369 542 
Q 365 542 , 359 542 
Q 345 542 , 338 541 
Q 330 540 , 330 538 
Q 330 537 , 338 536 
Q 345 535 , 359 535 
Q 365 535 , 370 535 
Q 375 535 , 380 536 
" fill="lightgray" />
<path d="
M 322 533 
L 322 531 
L 308 531 
L 308 530 
L 330 530 
L 330 534 
Q 325 534 , 319 534 
Q 314 535 , 308 535 
Q 295 535 , 288 533 
Q 280 532 , 280 530 
Q 280 528 , 288 527 
Q 295 526 , 308 526 
Q 314 526 , 319 526 
Q 324 526 , 329 527 
L 329 528 
Q 322 527 , 318 527 
Q 314 527 , 309 527 
Q 299 527 , 293 528 
Q 288 529 , 288 530 
Q 288 532 , 293 533 
Q 299 534 , 309 534 
Q 314 534 , 317 534 
Q 321 533 , 322 533 
" fill="#F5C000" />
<path d="
M 330 526 
L 339 526 
L 339 531 
Q 339 532 , 343 533 
Q 346 534 , 355 534 
Q 364 534 , 367 533 
Q 371 532 , 371 531 
L 371 526 
L 380 526 
L 380 531 
Q 380 533 , 374 534 
Q 367 535 , 355 535 
Q 343 535 , 336 534 
Q 330 533 , 330 531 
L 330 526 
" fill="lightgray" />
<path d="
M 280 512 
L 289 512 
L 289 520 
Q 289 522 , 293 523 
Q 296 524 , 305 524 
Q 314 524 , 317 523 
Q 321 522 , 321 520 
L 321 512 
L 330 512 
L 330 520 
Q 330 523 , 324 524 
Q 317 526 , 305 526 
Q 293 526 , 286 524 
Q 280 523 , 280 520 
L 280 512 
" fill="#D21010" />
<path d="
M 372 524 
L 372 520 
L 358 520 
L 358 518 
L 380 518 
L 380 525 
Q 375 525 , 369 525 
Q 364 526 , 358 526 
Q 345 526 , 338 524 
Q 330 522 , 330 519 
Q 330 516 , 338 514 
Q 345 512 , 358 512 
Q 364 512 , 369 512 
Q 374 512 , 379 513 
L 379 515 
Q 372 514 , 368 514 
Q 364 514 , 359 514 
Q 349 514 , 343 515 
Q 338 516 , 338 519 
Q 338 521 , 343 523 
Q 349 524 , 359 524 
Q 364 524 , 367 524 
Q 371 524 , 372 524 
" fill="lightgray" />
<path d="
M 385 552 
L 394 552 
L 394 554 
Q 394 554 , 398 554 
Q 401 554 , 410 554 
Q 419 554 , 422 554 
Q 426 554 , 426 554 
L 426 552 
L 435 552 
L 435 554 
Q 435 554 , 429 554 
Q 422 555 , 410 555 
Q 398 555 , 391 554 
Q 385 554 , 385 554 
L 385 552 
" fill="#D21010" />
<path d="
M 477 554 
L 477 554 
L 463 554 
L 463 553 
L 485 553 
L 485 554 
Q 480 554 , 474 555 
Q 469 555 , 463 555 
Q 450 555 , 443 554 
Q 435 554 , 435 553 
Q 435 553 , 443 552 
Q 450 552 , 463 552 
Q 469 552 , 474 552 
Q 479 552 , 484 552 
L 484 553 
Q 477 552 , 473 552 
Q 469 552 , 464 552 
Q 454 552 , 448 553 
Q 443 553 , 443 553 
Q 443 554 , 448 554 
Q 454 554 , 464 554 
Q 469 554 , 472 554 
Q 476 554 , 477 554 
" fill="lightgray" />
<path d="
M 427 551 
L 427 550 
L 413 550 
L 413 550 
L 435 550 
L 435 551 
Q 430 551 , 424 551 
Q 419 551 , 413 551 
Q 400 551 , 393 551 
Q 385 550 , 385 550 
Q 385 549 , 393 548 
Q 400 548 , 413 548 
Q 419 548 , 424 548 
Q 429 548 , 434 548 
L 434 549 
Q 427 548 , 423 548 
Q 419 548 , 414 548 
Q 404 548 , 398 549 
Q 393 549 , 393 550 
Q 393 550 , 398 551 
Q 404 551 , 414 551 
Q 419 551 , 422 551 
Q 426 551 , 427 551 
" fill="#F5C000" />
<path d="
M 435 548 
L 444 548 
L 444 550 
Q 444 550 , 448 551 
Q 451 551 , 460 551 
Q 469 551 , 472 551 
Q 476 550 , 476 550 
L 476 548 
L 485 548 
L 485 550 
Q 485 551 , 479 551 
Q 472 551 , 460 551 
Q 448 551 , 441 551 
Q 435 551 , 435 550 
L 435 548 
" fill="lightgray" />
<path d="
M 410 543 
L 401 545 
L 418 545 
L 410 543 
M 406 542 
L 414 542 
L 435 547 
L 427 547 
L 421 546 
L 399 546 
L 392 547 
L 385 547 
L 406 542 
" fill="#339541" />
<path d="
M 435 542 
L 444 542 
L 444 545 
Q 444 546 , 448 546 
Q 451 547 , 460 547 
Q 469 547 , 472 546 
Q 476 546 , 476 545 
L 476 542 
L 485 542 
L 485 545 
Q 485 546 , 479 547 
Q 472 547 , 460 547 
Q 448 547 , 441 547 
Q 435 546 , 435 545 
L 435 542 
" fill="lightgray" />
<path d="
M 385 526 
L 394 526 
L 394 535 
Q 394 537 , 398 539 
Q 401 540 , 410 540 
Q 419 540 , 422 539 
Q 426 537 , 426 535 
L 426 526 
L 435 526 
L 435 535 
Q 435 538 , 429 540 
Q 422 541 , 410 541 
Q 398 541 , 391 540 
Q 385 538 , 385 535 
L 385 526 
" fill="#D21010" />
<path d="
M 460 529 
L 451 535 
L 468 535 
L 460 529 
M 456 526 
L 464 526 
L 485 541 
L 477 541 
L 471 537 
L 449 537 
L 442 541 
L 435 541 
L 456 526 
" fill="lightgray" />
<path d="
M 435 502 
L 435 506 
Q 428 503 , 424 503 
Q 419 502 , 414 502 
Q 404 502 , 399 505 
Q 393 507 , 393 512 
Q 393 518 , 399 520 
Q 404 523 , 414 523 
Q 419 523 , 424 522 
Q 428 521 , 435 519 
L 435 523 
Q 430 525 , 424 525 
Q 420 526 , 414 526 
Q 400 526 , 393 522 
Q 385 519 , 385 512 
Q 385 506 , 393 503 
Q 400 499 , 414 499 
Q 420 499 , 425 500 
Q 430 500 , 435 502 
" fill="#545FFF" />
<path d="
M 477 522 
L 477 515 
L 463 515 
L 463 512 
L 485 512 
L 485 524 
Q 480 525 , 474 525 
Q 469 526 , 463 526 
Q 450 526 , 443 522 
Q 435 519 , 435 512 
Q 435 506 , 443 503 
Q 450 499 , 463 499 
Q 469 499 , 474 499 
Q 479 500 , 484 501 
L 484 505 
Q 477 503 , 473 503 
Q 469 502 , 464 502 
Q 454 502 , 448 505 
Q 443 507 , 443 512 
Q 443 518 , 448 520 
Q 454 523 , 464 523 
Q 469 523 , 472 522 
Q 476 522 , 477 522 
" fill="lightgray" />
<path d="
M 427 461 
L 427 391 
L 413 391 
L 413 362 
L 435 362 
L 435 478 
Q 430 489 , 424 494 
Q 419 498 , 413 498 
Q 400 498 , 393 463 
Q 385 429 , 385 368 
Q 385 307 , 393 272 
Q 400 237 , 413 237 
Q 419 237 , 424 242 
Q 429 246 , 434 258 
L 434 292 
Q 427 277 , 423 272 
Q 419 268 , 414 268 
Q 404 268 , 398 293 
Q 393 317 , 393 368 
Q 393 419 , 398 444 
Q 404 469 , 414 469 
Q 419 469 , 422 467 
Q 426 464 , 427 461 
" fill="#F5C000" />
<path d="
M 485 265 
L 485 305 
Q 478 279 , 474 273 
Q 469 266 , 464 266 
Q 454 266 , 449 291 
Q 443 317 , 443 367 
Q 443 418 , 449 445 
Q 454 470 , 464 470 
Q 469 470 , 474 463 
Q 478 456 , 485 430 
L 485 472 
Q 480 486 , 474 492 
Q 470 498 , 464 498 
Q 450 498 , 443 463 
Q 435 428 , 435 368 
Q 435 308 , 443 273 
Q 450 237 , 464 237 
Q 470 237 , 475 243 
Q 480 250 , 485 265 
" fill="lightgray" />
<path d="
M 540 552 
L 522 553 
L 556 553 
L 540 552 
M 533 551 
L 547 551 
L 590 554 
L 574 554 
L 562 553 
L 518 553 
L 505 554 
L 490 554 
L 533 551 
" fill="#339541" />
<path d="
M 490 541 
L 508 541 
L 508 547 
Q 508 548 , 516 549 
Q 523 549 , 540 549 
Q 557 549 , 565 549 
Q 572 548 , 572 547 
L 572 541 
L 590 541 
L 590 547 
Q 590 549 , 577 550 
Q 565 550 , 540 550 
Q 516 550 , 503 550 
Q 490 549 , 490 547 
L 490 541 
" fill="#D21010" />
<path d="
M 590 516 
L 590 520 
Q 575 517 , 567 517 
Q 559 516 , 549 516 
Q 528 516 , 518 519 
Q 506 521 , 506 526 
Q 506 532 , 518 535 
Q 528 538 , 549 538 
Q 559 538 , 567 537 
Q 575 536 , 590 533 
L 590 538 
Q 579 539 , 569 540 
Q 559 541 , 548 541 
Q 521 541 , 506 537 
Q 490 533 , 490 527 
Q 490 520 , 506 517 
Q 521 513 , 548 513 
Q 559 513 , 569 514 
Q 580 514 , 590 516 
" fill="#545FFF" />
<path d="
M 574 507 
L 574 498 
L 545 498 
L 545 494 
L 590 494 
L 590 509 
Q 579 511 , 568 511 
Q 559 512 , 547 512 
Q 521 512 , 505 507 
Q 490 503 , 490 495 
Q 490 486 , 505 482 
Q 521 477 , 547 477 
Q 558 477 , 567 478 
Q 577 478 , 587 480 
L 587 484 
Q 574 482 , 566 482 
Q 557 481 , 548 481 
Q 527 481 , 516 484 
Q 506 488 , 506 495 
Q 506 501 , 516 505 
Q 527 508 , 548 508 
Q 557 508 , 564 508 
Q 571 507 , 574 507 
" fill="#F5C000" />
<path d="
M 595 553 
L 613 553 
L 613 554 
Q 613 554 , 621 554 
Q 628 555 , 645 555 
Q 662 555 , 670 554 
Q 677 554 , 677 554 
L 677 553 
L 695 553 
L 695 554 
Q 695 554 , 682 555 
Q 670 555 , 645 555 
Q 621 555 , 608 555 
Q 595 554 , 595 554 
L 595 553 
" fill="#D21010" />
<path d="
M 645 550 
L 627 551 
L 661 551 
L 645 550 
M 638 550 
L 652 550 
L 695 552 
L 679 552 
L 667 551 
L 623 551 
L 610 552 
L 595 552 
L 638 550 
" fill="#339541" />
<path d="
M 695 547 
L 695 548 
Q 680 547 , 672 547 
Q 664 547 , 654 547 
Q 633 547 , 623 548 
Q 611 548 , 611 548 
Q 611 549 , 623 549 
Q 633 549 , 654 549 
Q 664 549 , 672 549 
Q 680 549 , 695 549 
L 695 549 
Q 684 549 , 674 549 
Q 664 550 , 653 550 
Q 626 550 , 611 549 
Q 595 549 , 595 548 
Q 595 548 , 611 547 
Q 626 547 , 653 547 
Q 664 547 , 674 547 
Q 685 547 , 695 547 
" fill="#545FFF" />
<path d="
M 679 546 
L 679 545 
L 650 545 
L 650 545 
L 695 545 
L 695 546 
Q 684 546 , 673 547 
Q 664 547 , 652 547 
Q 626 547 , 610 546 
Q 595 546 , 595 545 
Q 595 544 , 610 543 
Q 626 543 , 652 543 
Q 663 543 , 672 543 
Q 682 543 , 692 543 
L 692 544 
Q 679 544 , 671 543 
Q 662 543 , 653 543 
Q 632 543 , 621 544 
Q 611 544 , 611 545 
Q 611 545 , 621 546 
Q 632 546 , 653 546 
Q 662 546 , 669 546 
Q 676 546 , 679 546 
" fill="#F5C000" />
<path d="
M 750 553 
L 732 554 
L 766 554 
L 750 553 
M 743 553 
L 757 553 
L 800 554 
L 784 554 
L 772 554 
L 728 554 
L 715 554 
L 700 554 
L 743 553 
" fill="#339541" />
<path d="
M 700 551 
L 718 551 
L 718 552 
Q 718 552 , 726 552 
Q 733 552 , 750 552 
Q 767 552 , 775 552 
Q 782 552 , 782 552 
L 782 551 
L 800 551 
L 800 552 
Q 800 552 , 787 552 
Q 775 552 , 750 552 
Q 726 552 , 713 552 
Q 700 552 , 700 552 
L 700 551 
" fill="#D21010" />
<path d="
M 800 548 
L 800 549 
Q 785 548 , 777 548 
Q 769 548 , 759 548 
Q 738 548 , 728 548 
Q 716 549 , 716 549 
Q 716 549 , 728 550 
Q 738 550 , 759 550 
Q 769 550 , 777 550 
Q 785 550 , 800 550 
L 800 550 
Q 789 550 , 779 550 
Q 769 550 , 758 550 
Q 731 550 , 716 550 
Q 700 549 , 700 549 
Q 700 549 , 716 548 
Q 731 548 , 758 548 
Q 769 548 , 779 548 
Q 790 548 , 800 548 
" fill="#545FFF" />
<path d="
M 784 547 
L 784 546 
L 755 546 
L 755 546 
L 800 546 
L 800 547 
Q 789 547 , 778 547 
Q 769 547 , 757 547 
Q 731 547 , 715 547 
Q 700 547 , 700 546 
Q 700 546 , 715 545 
Q 731 545 , 757 545 
Q 768 545 , 777 545 
Q 787 545 , 797 545 
L 797 545 
Q 784 545 , 776 545 
Q 767 545 , 758 545 
Q 737 545 , 726 545 
Q 716 546 , 716 546 
Q 716 546 , 726 547 
Q 737 547 , 758 547 
Q 767 547 , 774 547 
Q 781 547 , 784 547 
" fill="#F5C000" />
<path d="
M 855 552 
L 837 553 
L 871 553 
L 855 552 
M 848 552 
L 862 552 
L 905 554 
L 889 554 
L 877 553 
L 833 553 
L 820 554 
L 805 554 
L 848 552 
" fill="#339541" />
<path d="
M 805 547 
L 823 547 
L 823 550 
Q 823 551 , 831 551 
Q 838 551 , 855 551 
Q 872 551 , 880 551 
Q 887 551 , 887 550 
L 887 547 
L 905 547 
L 905 550 
Q 905 551 , 892 551 
Q 880 552 , 855 552 
Q 831 552 , 818 551 
Q 805 551 , 805 550 
L 805 547 
" fill="#D21010" />
<path d="
M 889 539 
L 889 525 
L 860 525 
L 860 519 
L 905 519 
L 905 543 
Q 894 545 , 883 546 
Q 874 547 , 862 547 
Q 836 547 , 820 540 
Q 805 533 , 805 520 
Q 805 508 , 820 501 
Q 836 494 , 862 494 
Q 873 494 , 882 495 
Q 892 496 , 902 498 
L 902 505 
Q 889 502 , 881 501 
Q 872 500 , 863 500 
Q 842 500 , 831 505 
Q 821 510 , 821 520 
Q 821 531 , 831 536 
Q 842 541 , 863 541 
Q 872 541 , 879 540 
Q 886 540 , 889 539 
" fill="#F5C000" />
<path d="
M 905 410 
L 905 424 
Q 890 415 , 882 413 
Q 874 410 , 864 410 
Q 843 410 , 833 419 
Q 821 429 , 821 447 
Q 821 465 , 833 474 
Q 843 483 , 864 483 
Q 874 483 , 882 481 
Q 890 479 , 905 469 
L 905 484 
Q 894 489 , 884 491 
Q 874 494 , 863 494 
Q 836 494 , 821 481 
Q 805 468 , 805 447 
Q 805 425 , 821 413 
Q 836 400 , 863 400 
Q 874 400 , 884 402 
Q 895 405 , 905 410 
" fill="#545FFF" />
<path d="
M 910 552 
L 919 552 
L 919 554 
Q 919 554 , 923 554 
Q 926 554 , 935 554 
Q 944 554 , 947 554 
Q 951 554 , 951 554 
L 951 552 
L 960 552 
L 960 554 
Q 960 554 , 954 554 
Q 947 555 , 935 555 
Q 923 555 , 916 554 
Q 910 554 , 910 554 
L 910 552 
" fill="lightgray" />
<path d="
M 1002 554 
L 1002 554 
L 988 554 
L 988 553 
L 1010 553 
L 1010 554 
Q 1005 554 , 999 555 
Q 994 555 , 988 555 
Q 975 555 , 968 554 
Q 960 554 , 960 553 
Q 960 553 , 968 552 
Q 975 552 , 988 552 
Q 994 552 , 999 552 
Q 1004 552 , 1009 552 
L 1009 553 
Q 1002 552 , 998 552 
Q 994 552 , 989 552 
Q 979 552 , 973 553 
Q 968 553 , 968 553 
Q 968 554 , 973 554 
Q 979 554 , 989 554 
Q 994 554 , 997 554 
Q 1001 554 , 1002 554 
" fill="#F5C000" />
<path d="
M 952 551 
L 952 550 
L 938 550 
L 938 550 
L 960 550 
L 960 551 
Q 955 551 , 949 551 
Q 944 551 , 938 551 
Q 925 551 , 918 551 
Q 910 550 , 910 550 
Q 910 549 , 918 548 
Q 925 548 , 938 548 
Q 944 548 , 949 548 
Q 954 548 , 959 548 
L 959 549 
Q 952 548 , 948 548 
Q 944 548 , 939 548 
Q 929 548 , 923 549 
Q 918 549 , 918 550 
Q 918 550 , 923 551 
Q 929 551 , 939 551 
Q 944 551 , 947 551 
Q 951 551 , 952 551 
" fill="lightgray" />
<path d="
M 960 548 
L 969 548 
L 969 550 
Q 969 550 , 973 551 
Q 976 551 , 985 551 
Q 994 551 , 997 551 
Q 1001 550 , 1001 550 
L 1001 548 
L 1010 548 
L 1010 550 
Q 1010 551 , 1004 551 
Q 997 551 , 985 551 
Q 973 551 , 966 551 
Q 960 551 , 960 550 
L 960 548 
" fill="#D21010" />
<path d="
M 935 543 
L 926 545 
L 943 545 
L 935 543 
M 931 542 
L 939 542 
L 960 547 
L 952 547 
L 946 546 
L 924 546 
L 917 547 
L 910 547 
L 931 542 
" fill="lightgray" />
<path d="
M 960 542 
L 969 542 
L 969 545 
Q 969 546 , 973 546 
Q 976 547 , 985 547 
Q 994 547 , 997 546 
Q 1001 546 , 1001 545 
L 1001 542 
L 1010 542 
L 1010 545 
Q 1010 546 , 1004 547 
Q 997 547 , 985 547 
Q 973 547 , 966 547 
Q 960 546 , 960 545 
L 960 542 
" fill="#D21010" />
<path d="
M 910 526 
L 919 526 
L 919 535 
Q 919 537 , 923 539 
Q 926 540 , 935 540 
Q 944 540 , 947 539 
Q 951 537 , 951 535 
L 951 526 
L 960 526 
L 960 535 
Q 960 538 , 954 540 
Q 947 541 , 935 541 
Q 923 541 , 916 540 
Q 910 538 , 910 535 
L 910 526 
" fill="lightgray" />
<path d="
M 985 529 
L 976 535 
L 993 535 
L 985 529 
M 981 526 
L 989 526 
L 1010 541 
L 1002 541 
L 996 537 
L 974 537 
L 967 541 
L 960 541 
L 981 526 
" fill="#339541" />
<path d="
M 960 502 
L 960 506 
Q 953 503 , 949 503 
Q 944 502 , 939 502 
Q 929 502 , 924 505 
Q 918 507 , 918 512 
Q 918 518 , 924 520 
Q 929 523 , 939 523 
Q 944 523 , 949 522 
Q 953 521 , 960 519 
L 960 523 
Q 955 525 , 949 525 
Q 945 526 , 939 526 
Q 925 526 , 918 522 
Q 910 519 , 910 512 
Q 910 506 , 918 503 
Q 925 499 , 939 499 
Q 945 499 , 950 500 
Q 955 500 , 960 502 
" fill="lightgray" />
<path d="
M 1002 522 
L 1002 515 
L 988 515 
L 988 512 
L 1010 512 
L 1010 524 
Q 1005 525 , 999 525 
Q 994 526 , 988 526 
Q 975 526 , 968 522 
Q 960 519 , 960 512 
Q 960 506 , 968 503 
Q 975 499 , 988 499 
Q 994 499 , 999 499 
Q 1004 500 , 1009 501 
L 1009 505 
Q 1002 503 , 998 503 
Q 994 502 , 989 502 
Q 979 502 , 973 505 
Q 968 507 , 968 512 
Q 968 518 , 973 520 
Q 979 523 , 989 523 
Q 994 523 , 997 522 
Q 1001 522 , 1002 522 
" fill="#F5C000" />
<path d="
M 952 461 
L 952 391 
L 938 391 
L 938 362 
L 960 362 
L 960 478 
Q 955 489 , 949 494 
Q 944 498 , 938 498 
Q 925 498 , 918 463 
Q 910 429 , 910 368 
Q 910 307 , 918 272 
Q 925 237 , 938 237 
Q 944 237 , 949 242 
Q 954 246 , 959 258 
L 959 292 
Q 952 277 , 948 272 
Q 944 268 , 939 268 
Q 929 268 , 923 293 
Q 918 317 , 918 368 
Q 918 419 , 923 444 
Q 929 469 , 939 469 
Q 944 469 , 947 467 
Q 951 464 , 952 461 
" fill="lightgray" />
<path d="
M 1010 265 
L 1010 305 
Q 1003 279 , 999 273 
Q 994 266 , 989 266 
Q 979 266 , 974 291 
Q 968 317 , 968 367 
Q 968 418 , 974 445 
Q 979 470 , 989 470 
Q 994 470 , 999 463 
Q 1003 456 , 1010 430 
L 1010 472 
Q 1005 486 , 999 492 
Q 995 498 , 989 498 
Q 975 498 , 968 463 
Q 960 428 , 960 368 
Q 960 308 , 968 273 
Q 975 237 , 989 237 
Q 995 237 , 1000 243 
Q 1005 250 , 1010 265 
" fill="#545FFF" />
<path d="
M 1015 552 
L 1024 552 
L 1024 553 
Q 1024 554 , 1028 554 
Q 1031 554 , 1040 554 
Q 1049 554 , 1052 554 
Q 1056 554 , 1056 553 
L 1056 552 
L 1065 552 
L 1065 553 
Q 1065 554 , 1059 554 
Q 1052 554 , 1040 554 
Q 1028 554 , 1021 554 
Q 1015 554 , 1015 553 
L 1015 552 
" fill="lightgray" />
<path d="
M 1090 552 
L 1081 553 
L 1098 553 
L 1090 552 
M 1086 552 
L 1094 552 
L 1115 554 
L 1107 554 
L 1101 554 
L 1079 554 
L 1072 554 
L 1065 554 
L 1086 552 
" fill="#339541" />
<path d="
M 1065 548 
L 1065 549 
Q 1058 549 , 1054 549 
Q 1049 548 , 1044 548 
Q 1034 548 , 1029 549 
Q 1023 549 , 1023 550 
Q 1023 551 , 1029 551 
Q 1034 551 , 1044 551 
Q 1049 551 , 1054 551 
Q 1058 551 , 1065 551 
L 1065 551 
Q 1060 552 , 1054 552 
Q 1050 552 , 1044 552 
Q 1030 552 , 1023 551 
Q 1015 551 , 1015 550 
Q 1015 549 , 1023 549 
Q 1030 548 , 1044 548 
Q 1050 548 , 1055 548 
Q 1060 548 , 1065 548 
" fill="lightgray" />
<path d="
M 1107 551 
L 1107 550 
L 1093 550 
L 1093 550 
L 1115 550 
L 1115 551 
Q 1110 552 , 1104 552 
Q 1099 552 , 1093 552 
Q 1080 552 , 1073 551 
Q 1065 551 , 1065 550 
Q 1065 549 , 1073 549 
Q 1080 548 , 1093 548 
Q 1099 548 , 1104 548 
Q 1109 548 , 1114 548 
L 1114 549 
Q 1107 549 , 1103 549 
Q 1099 548 , 1094 548 
Q 1084 548 , 1078 549 
Q 1073 549 , 1073 550 
Q 1073 551 , 1078 551 
Q 1084 551 , 1094 551 
Q 1099 551 , 1102 551 
Q 1106 551 , 1107 551 
" fill="#F5C000" />
<path d="
M 1040 543 
L 1031 545 
L 1048 545 
L 1040 543 
M 1036 542 
L 1044 542 
L 1065 548 
L 1057 548 
L 1051 546 
L 1029 546 
L 1022 548 
L 1015 548 
L 1036 542 
" fill="lightgray" />
<path d="
M 1065 542 
L 1074 542 
L 1074 545 
Q 1074 546 , 1078 547 
Q 1081 547 , 1090 547 
Q 1099 547 , 1102 547 
Q 1106 546 , 1106 545 
L 1106 542 
L 1115 542 
L 1115 545 
Q 1115 546 , 1109 547 
Q 1102 548 , 1090 548 
Q 1078 548 , 1071 547 
Q 1065 546 , 1065 545 
L 1065 542 
" fill="#D21010" />
<path d="
M 1057 541 
L 1057 539 
L 1043 539 
L 1043 538 
L 1065 538 
L 1065 541 
Q 1060 542 , 1054 542 
Q 1049 542 , 1043 542 
Q 1030 542 , 1023 541 
Q 1015 540 , 1015 538 
Q 1015 537 , 1023 536 
Q 1030 535 , 1043 535 
Q 1049 535 , 1054 535 
Q 1059 535 , 1064 536 
L 1064 536 
Q 1057 536 , 1053 536 
Q 1049 536 , 1044 536 
Q 1034 536 , 1028 536 
Q 1023 537 , 1023 538 
Q 1023 540 , 1028 540 
Q 1034 541 , 1044 541 
Q 1049 541 , 1052 541 
Q 1056 541 , 1057 541 
" fill="lightgray" />
<path d="
M 1115 536 
L 1115 537 
Q 1108 536 , 1104 536 
Q 1099 536 , 1094 536 
Q 1084 536 , 1079 536 
Q 1073 537 , 1073 538 
Q 1073 540 , 1079 540 
Q 1084 541 , 1094 541 
Q 1099 541 , 1104 541 
Q 1108 541 , 1115 540 
L 1115 541 
Q 1110 542 , 1104 542 
Q 1100 542 , 1094 542 
Q 1080 542 , 1073 541 
Q 1065 540 , 1065 538 
Q 1065 537 , 1073 536 
Q 1080 535 , 1094 535 
Q 1100 535 , 1105 535 
Q 1110 535 , 1115 536 
" fill="#545FFF" />
<path d="
M 1057 533 
L 1057 531 
L 1043 531 
L 1043 530 
L 1065 530 
L 1065 534 
Q 1060 534 , 1054 534 
Q 1049 535 , 1043 535 
Q 1030 535 , 1023 533 
Q 1015 532 , 1015 530 
Q 1015 528 , 1023 527 
Q 1030 526 , 1043 526 
Q 1049 526 , 1054 526 
Q 1059 526 , 1064 527 
L 1064 528 
Q 1057 527 , 1053 527 
Q 1049 527 , 1044 527 
Q 1034 527 , 1028 528 
Q 1023 529 , 1023 530 
Q 1023 532 , 1028 533 
Q 1034 534 , 1044 534 
Q 1049 534 , 1052 534 
Q 1056 533 , 1057 533 
" fill="lightgray" />
<path d="
M 1065 526 
L 1074 526 
L 1074 531 
Q 1074 532 , 1078 533 
Q 1081 534 , 1090 534 
Q 1099 534 , 1102 533 
Q 1106 532 , 1106 531 
L 1106 526 
L 1115 526 
L 1115 531 
Q 1115 533 , 1109 534 
Q 1102 535 , 1090 535 
Q 1078 535 , 1071 534 
Q 1065 533 , 1065 531 
L 1065 526 
" fill="#D21010" />
<path d="
M 1015 512 
L 1024 512 
L 1024 520 
Q 1024 522 , 1028 523 
Q 1031 524 , 1040 524 
Q 1049 524 , 1052 523 
Q 1056 522 , 1056 520 
L 1056 512 
L 1065 512 
L 1065 520 
Q 1065 523 , 1059 524 
Q 1052 526 , 1040 526 
Q 1028 526 , 1021 524 
Q 1015 523 , 1015 520 
L 1015 512 
" fill="lightgray" />
<path d="
M 1107 524 
L 1107 520 
L 1093 520 
L 1093 518 
L 1115 518 
L 1115 525 
Q 1110 525 , 1104 525 
Q 1099 526 , 1093 526 
Q 1080 526 , 1073 524 
Q 1065 522 , 1065 519 
Q 1065 516 , 1073 514 
Q 1080 512 , 1093 512 
Q 1099 512 , 1104 512 
Q 1109 512 , 1114 513 
L 1114 515 
Q 1107 514 , 1103 514 
Q 1099 514 , 1094 514 
Q 1084 514 , 1078 515 
Q 1073 516 , 1073 519 
Q 1073 521 , 1078 523 
Q 1084 524 , 1094 524 
Q 1099 524 , 1102 524 
Q 1106 524 , 1107 524 
" fill="#F5C000" />
<path d="
M 1120 552 
L 1129 552 
L 1129 553 
Q 1129 554 , 1133 554 
Q 1136 554 , 1145 554 
Q 1154 554 , 1157 554 
Q 1161 554 , 1161 553 
L 1161 552 
L 1170 552 
L 1170 553 
Q 1170 554 , 1164 554 
Q 1157 554 , 1145 554 
Q 1133 554 , 1126 554 
Q 1120 554 , 1120 553 
L 1120 552 
" fill="lightgray" />
<path d="
M 1212 554 
L 1212 553 
L 1198 553 
L 1198 553 
L 1220 553 
L 1220 554 
Q 1215 554 , 1209 554 
Q 1204 554 , 1198 554 
Q 1185 554 , 1178 554 
Q 1170 554 , 1170 553 
Q 1170 553 , 1178 552 
Q 1185 552 , 1198 552 
Q 1204 552 , 1209 552 
Q 1214 552 , 1219 552 
L 1219 553 
Q 1212 552 , 1208 552 
Q 1204 552 , 1199 552 
Q 1189 552 , 1183 553 
Q 1178 553 , 1178 553 
Q 1178 554 , 1183 554 
Q 1189 554 , 1199 554 
Q 1204 554 , 1207 554 
Q 1211 554 , 1212 554 
" fill="#F5C000" />
<path d="
M 1162 551 
L 1162 550 
L 1148 550 
L 1148 550 
L 1170 550 
L 1170 551 
Q 1165 551 , 1159 551 
Q 1154 552 , 1148 552 
Q 1135 552 , 1128 551 
Q 1120 551 , 1120 550 
Q 1120 550 , 1128 549 
Q 1135 549 , 1148 549 
Q 1154 549 , 1159 549 
Q 1164 549 , 1169 549 
L 1169 550 
Q 1162 549 , 1158 549 
Q 1154 549 , 1149 549 
Q 1139 549 , 1133 550 
Q 1128 550 , 1128 550 
Q 1128 551 , 1133 551 
Q 1139 551 , 1149 551 
Q 1154 551 , 1157 551 
Q 1161 551 , 1162 551 
" fill="lightgray" />
<path d="
M 1170 549 
L 1179 549 
L 1179 550 
Q 1179 551 , 1183 551 
Q 1186 551 , 1195 551 
Q 1204 551 , 1207 551 
Q 1211 551 , 1211 550 
L 1211 549 
L 1220 549 
L 1220 551 
Q 1220 551 , 1214 551 
Q 1207 552 , 1195 552 
Q 1183 552 , 1176 551 
Q 1170 551 , 1170 551 
L 1170 549 
" fill="#D21010" />
<path d="
M 1145 542 
L 1136 545 
L 1153 545 
L 1145 542 
M 1141 540 
L 1149 540 
L 1170 549 
L 1162 549 
L 1156 546 
L 1134 546 
L 1127 549 
L 1120 549 
L 1141 540 
" fill="lightgray" />
<path d="
M 1170 540 
L 1179 540 
L 1179 545 
Q 1179 547 , 1183 547 
Q 1186 548 , 1195 548 
Q 1204 548 , 1207 547 
Q 1211 547 , 1211 545 
L 1211 540 
L 1220 540 
L 1220 545 
Q 1220 547 , 1214 548 
Q 1207 549 , 1195 549 
Q 1183 549 , 1176 548 
Q 1170 547 , 1170 545 
L 1170 540 
" fill="#D21010" />
<path d="
M 1120 530 
L 1129 530 
L 1129 536 
Q 1129 537 , 1133 538 
Q 1136 539 , 1145 539 
Q 1154 539 , 1157 538 
Q 1161 537 , 1161 536 
L 1161 530 
L 1170 530 
L 1170 536 
Q 1170 538 , 1164 539 
Q 1157 540 , 1145 540 
Q 1133 540 , 1126 539 
Q 1120 538 , 1120 536 
L 1120 530 
" fill="lightgray" />
<path d="
M 1195 532 
L 1186 536 
L 1203 536 
L 1195 532 
M 1191 530 
L 1199 530 
L 1220 540 
L 1212 540 
L 1206 537 
L 1184 537 
L 1177 540 
L 1170 540 
L 1191 530 
" fill="#339541" />
<path d="
M 1162 524 
L 1162 512 
L 1148 512 
L 1148 507 
L 1170 507 
L 1170 526 
Q 1165 528 , 1159 529 
Q 1154 530 , 1148 530 
Q 1135 530 , 1128 524 
Q 1120 518 , 1120 508 
Q 1120 498 , 1128 493 
Q 1135 487 , 1148 487 
Q 1154 487 , 1159 488 
Q 1164 489 , 1169 490 
L 1169 496 
Q 1162 494 , 1158 493 
Q 1154 492 , 1149 492 
Q 1139 492 , 1133 496 
Q 1128 500 , 1128 508 
Q 1128 517 , 1133 521 
Q 1139 525 , 1149 525 
Q 1154 525 , 1157 525 
Q 1161 524 , 1162 524 
" fill="lightgray" />
<path d="
M 1220 492 
L 1220 498 
Q 1213 494 , 1209 493 
Q 1204 492 , 1199 492 
Q 1189 492 , 1184 496 
Q 1178 500 , 1178 508 
Q 1178 517 , 1184 521 
Q 1189 525 , 1199 525 
Q 1204 525 , 1209 524 
Q 1213 523 , 1220 519 
L 1220 525 
Q 1215 528 , 1209 529 
Q 1205 530 , 1199 530 
Q 1185 530 , 1178 524 
Q 1170 518 , 1170 508 
Q 1170 499 , 1178 493 
Q 1185 487 , 1199 487 
Q 1205 487 , 1210 488 
Q 1215 489 , 1220 492 
" fill="#545FFF" />
<path d="
M 1170 306 
L 1170 337 
Q 1163 317 , 1159 312 
Q 1154 306 , 1149 306 
Q 1139 306 , 1134 326 
Q 1128 346 , 1128 385 
Q 1128 425 , 1134 445 
Q 1139 465 , 1149 465 
Q 1154 465 , 1159 460 
Q 1163 454 , 1170 434 
L 1170 466 
Q 1165 478 , 1159 482 
Q 1155 487 , 1149 487 
Q 1135 487 , 1128 459 
Q 1120 432 , 1120 386 
Q 1120 339 , 1128 312 
Q 1135 284 , 1149 284 
Q 1155 284 , 1160 289 
Q 1165 294 , 1170 306 
" fill="lightgray" />
<path d="
M 1212 458 
L 1212 403 
L 1198 403 
L 1198 381 
L 1220 381 
L 1220 471 
Q 1215 480 , 1209 483 
Q 1204 487 , 1198 487 
Q 1185 487 , 1178 460 
Q 1170 433 , 1170 386 
Q 1170 338 , 1178 311 
Q 1185 284 , 1198 284 
Q 1204 284 , 1209 288 
Q 1214 291 , 1219 300 
L 1219 326 
Q 1212 315 , 1208 311 
Q 1204 308 , 1199 308 
Q 1189 308 , 1183 327 
Q 1178 346 , 1178 386 
Q 1178 425 , 1183 445 
Q 1189 464 , 1199 464 
Q 1204 464 , 1207 462 
Q 1211 460 , 1212 458 
" fill="#F5C000" />
<path d="
M 1225 551 
L 1243 551 
L 1243 553 
Q 1243 553 , 1251 554 
Q 1258 554 , 1275 554 
Q 1292 554 , 1300 554 
Q 1307 553 , 1307 553 
L 1307 551 
L 1325 551 
L 1325 553 
Q 1325 554 , 1312 554 
Q 1300 554 , 1275 554 
Q 1251 554 , 1238 554 
Q 1225 554 , 1225 553 
L 1225 551 
" fill="#D21010" />
<path d="
M 1275 542 
L 1257 546 
L 1291 546 
L 1275 542 
M 1268 540 
L 1282 540 
L 1325 551 
L 1309 551 
L 1297 548 
L 1253 548 
L 1240 551 
L 1225 551 
L 1268 540 
" fill="#339541" />
<path d="
M 1325 522 
L 1325 525 
Q 1310 523 , 1302 523 
Q 1294 522 , 1284 522 
Q 1263 522 , 1253 524 
Q 1241 526 , 1241 530 
Q 1241 534 , 1253 536 
Q 1263 538 , 1284 538 
Q 1294 538 , 1302 537 
Q 1310 537 , 1325 535 
L 1325 538 
Q 1314 539 , 1304 539 
Q 1294 540 , 1283 540 
Q 1256 540 , 1241 537 
Q 1225 534 , 1225 530 
Q 1225 525 , 1241 523 
Q 1256 520 , 1283 520 
Q 1294 520 , 1304 520 
Q 1315 521 , 1325 522 
" fill="#545FFF" />
<path d="
M 1309 514 
L 1309 505 
L 1280 505 
L 1280 501 
L 1325 501 
L 1325 517 
Q 1314 518 , 1303 519 
Q 1294 519 , 1282 519 
Q 1256 519 , 1240 515 
Q 1225 510 , 1225 502 
Q 1225 494 , 1240 490 
Q 1256 485 , 1282 485 
Q 1293 485 , 1302 486 
Q 1312 486 , 1322 488 
L 1322 492 
Q 1309 490 , 1301 490 
Q 1292 489 , 1283 489 
Q 1262 489 , 1251 492 
Q 1241 496 , 1241 502 
Q 1241 509 , 1251 512 
Q 1262 515 , 1283 515 
Q 1292 515 , 1299 515 
Q 1306 515 , 1309 514 
" fill="#F5C000" />
<path d="
M 1380 553 
L 1362 554 
L 1396 554 
L 1380 553 
M 1373 553 
L 1387 553 
L 1430 554 
L 1414 554 
L 1402 554 
L 1358 554 
L 1345 554 
L 1330 554 
L 1373 553 
" fill="#339541" />
<path d="
M 1330 551 
L 1348 551 
L 1348 552 
Q 1348 552 , 1356 552 
Q 1363 552 , 1380 552 
Q 1397 552 , 1405 552 
Q 1412 552 , 1412 552 
L 1412 551 
L 1430 551 
L 1430 552 
Q 1430 552 , 1417 552 
Q 1405 552 , 1380 552 
Q 1356 552 , 1343 552 
Q 1330 552 , 1330 552 
L 1330 551 
" fill="#D21010" />
<path d="
M 1430 548 
L 1430 549 
Q 1415 548 , 1407 548 
Q 1399 548 , 1389 548 
Q 1368 548 , 1358 548 
Q 1346 549 , 1346 549 
Q 1346 549 , 1358 550 
Q 1368 550 , 1389 550 
Q 1399 550 , 1407 550 
Q 1415 550 , 1430 550 
L 1430 550 
Q 1419 550 , 1409 550 
Q 1399 550 , 1388 550 
Q 1361 550 , 1346 550 
Q 1330 549 , 1330 549 
Q 1330 549 , 1346 548 
Q 1361 548 , 1388 548 
Q 1399 548 , 1409 548 
Q 1420 548 , 1430 548 
" fill="#545FFF" />
<path d="
M 1414 547 
L 1414 546 
L 1385 546 
L 1385 546 
L 1430 546 
L 1430 547 
Q 1419 547 , 1408 547 
Q 1399 547 , 1387 547 
Q 1361 547 , 1345 547 
Q 1330 547 , 1330 546 
Q 1330 546 , 1345 545 
Q 1361 545 , 1387 545 
Q 1398 545 , 1407 545 
Q 1417 545 , 1427 545 
L 1427 545 
Q 1414 545 , 1406 545 
Q 1397 545 , 1388 545 
Q 1367 545 , 1356 545 
Q 1346 546 , 1346 546 
Q 1346 546 , 1356 547 
Q 1367 547 , 1388 547 
Q 1397 547 , 1404 547 
Q 1411 547 , 1414 547 
" fill="#F5C000" />
<path d="M 65 168 L 65 555 " stroke="black" stroke-width="1.5"/>
<path d="M 55 555 L 65 555 " stroke="black" stroke-width="4"/>
<text text-anchor="end" x="50" y="555" font-size="50" alignment-baseline="middle">0</text>
<path d="M 55 362 L 65 362 " stroke="black" stroke-width="4"/>
<text text-anchor="end" x="50" y="362" font-size="50" alignment-baseline="middle">1</text>
<path d="M 55 168 L 65 168 " stroke="black" stroke-width="4"/>
<text text-anchor="end" x="50" y="168" font-size="50" alignment-baseline="middle">2</text>
<text text-anchor="middle" x="750" y="50" font-size="50" alignment-baseline="baseline"></text>
G<path d="
M 160 582 
L 126 595 
L 160 608 
L 157 611 
L 123 598 
L 123 623 
L 117 623 
L 117 599 
L 83 611 
L 80 608 
L 114 595 
L 80 582 
L 83 579 
L 117 591 
L 117 567 
L 123 567 
L 123 591 
L 157 579 
L 160 582 
" fill="black" />
<path d="
M 265 567 
Q 236 574 , 223 581 
Q 210 588 , 210 595 
Q 210 602 , 223 609 
Q 236 616 , 265 623 
L 241 623 
Q 213 616 , 199 609 
Q 185 602 , 185 595 
Q 185 588 , 199 581 
Q 213 574 , 241 567 
L 265 567 
" fill="black" />
<path d="
M 370 567 
Q 341 574 , 328 581 
Q 315 588 , 315 595 
Q 315 602 , 328 609 
Q 341 616 , 370 623 
L 346 623 
Q 318 616 , 304 609 
Q 290 602 , 290 595 
Q 290 588 , 304 581 
Q 318 574 , 346 567 
L 370 567 
" fill="black" />
<path d="
M 475 567 
Q 446 574 , 433 581 
Q 420 588 , 420 595 
Q 420 602 , 433 609 
Q 446 616 , 475 623 
L 451 623 
Q 423 616 , 409 609 
Q 395 602 , 395 595 
Q 395 588 , 409 581 
Q 423 574 , 451 567 
L 475 567 
" fill="black" />
<path d="
" fill="black" />
<path d="
M 526 567 
L 553 567 
L 553 623 
L 526 623 
L 526 567 
" fill="black" />
<path d="
" fill="black" />
<path d="
" fill="black" />
<path d="
M 622 567 
L 642 567 
L 642 623 
L 622 623 
L 622 567 
" fill="black" />
<path d="
" fill="black" />
<path d="
M 672 567 
L 692 567 
L 692 571 
L 680 623 
L 677 623 
L 689 571 
L 672 571 
L 672 567 
" fill="black" />
<path d="
M 790 582 
L 756 595 
L 790 608 
L 787 611 
L 753 598 
L 753 623 
L 747 623 
L 747 599 
L 713 611 
L 710 608 
L 744 595 
L 710 582 
L 713 579 
L 747 591 
L 747 567 
L 753 567 
L 753 591 
L 787 579 
L 790 582 
" fill="black" />
<path d="
" fill="black" />
<path d="
M 841 567 
L 868 567 
L 868 623 
L 841 623 
L 841 567 
" fill="black" />
<path d="
" fill="black" />
<path d="
M 920 567 
L 944 567 
Q 972 574 , 986 581 
Q 1000 588 , 1000 595 
Q 1000 602 , 986 609 
Q 972 616 , 944 623 
L 920 623 
Q 949 616 , 962 609 
Q 975 602 , 975 595 
Q 975 588 , 962 581 
Q 949 574 , 920 567 
" fill="black" />
<path d="
M 1025 567 
L 1049 567 
Q 1077 574 , 1091 581 
Q 1105 588 , 1105 595 
Q 1105 602 , 1091 609 
Q 1077 616 , 1049 623 
L 1025 623 
Q 1054 616 , 1067 609 
Q 1080 602 , 1080 595 
Q 1080 588 , 1067 581 
Q 1054 574 , 1025 567 
" fill="black" />
<path d="
M 1130 567 
L 1154 567 
Q 1182 574 , 1196 581 
Q 1210 588 , 1210 595 
Q 1210 602 , 1196 609 
Q 1182 616 , 1154 623 
L 1130 623 
Q 1159 616 , 1172 609 
Q 1185 602 , 1185 595 
Q 1185 588 , 1172 581 
Q 1159 574 , 1130 567 
" fill="black" />
<path d="
" fill="black" />
<path d="
M 1261 567 
L 1288 567 
L 1288 623 
L 1261 623 
L 1261 567 
" fill="black" />
<path d="
" fill="black" />
<path d="
M 1420 582 
L 1386 595 
L 1420 608 
L 1417 611 
L 1383 598 
L 1383 623 
L 1377 623 
L 1377 599 
L 1343 611 
L 1340 608 
L 1374 595 
L 1340 582 
L 1343 579 
L 1377 591 
L 1377 567 
L 1383 567 
L 1383 591 
L 1417 579 
L 1420 582 
" fill="black" />
</svg>
