<svg xmlns="http://www.w3.org/2000/svg"
viewBox="0 0 1435 635">
<path d="
M 170 554 
L 170 554 
Q 155 554 , 147 554 
Q 139 554 , 129 554 
Q 108 554 , 98 554 
Q 86 554 , 86 554 
Q 86 554 , 98 554 
Q 108 554 , 129 554 
Q 139 554 , 147 554 
Q 155 554 , 170 554 
L 170 554 
Q 159 554 , 149 554 
Q 139 554 , 128 554 
Q 101 554 , 86 554 
Q 70 554 , 70 554 
Q 70 554 , 86 554 
Q 101 554 , 128 554 
Q 139 554 , 149 554 
Q 160 554 , 170 554 
" fill="#545FFF" />
<path d="
M 70 553 
L 88 553 
L 88 553 
Q 88 553 , 96 553 
Q 103 553 , 120 553 
Q 137 553 , 145 553 
Q 152 553 , 152 553 
L 152 553 
L 170 553 
L 170 553 
Q 170 553 , 157 553 
Q 145 553 , 120 553 
Q 96 553 , 83 553 
Q 70 553 , 70 553 
L 70 553 
" fill="#D21010" />
<path d="
M 120 552 
L 102 552 
L 136 552 
L 120 552 
M 113 552 
L 127 552 
L 170 552 
L 154 552 
L 142 552 
L 98 552 
L 85 552 
L 70 552 
L 113 552 
" fill="#339541" />
<path d="
M 154 551 
L 154 551 
L 125 551 
L 125 551 
L 170 551 
L 170 551 
Q 159 552 , 148 552 
Q 139 552 , 127 552 
Q 101 552 , 85 551 
Q 70 551 , 70 551 
Q 70 551 , 85 551 
Q 101 551 , 127 551 
Q 138 551 , 147 551 
Q 157 551 , 167 551 
L 167 551 
Q 154 551 , 146 551 
Q 137 551 , 128 551 
Q 107 551 , 96 551 
Q 86 551 , 86 551 
Q 86 551 , 96 551 
Q 107 551 , 128 551 
Q 137 551 , 144 551 
Q 151 551 , 154 551 
" fill="#F5C000" />
<path d="
M 225 552 
L 207 553 
L 241 553 
L 225 552 
M 218 552 
L 232 552 
L 275 554 
L 259 554 
L 247 554 
L 203 554 
L 190 554 
L 175 554 
L 218 552 
" fill="#339541" />
<path d="
M 259 551 
L 259 549 
L 230 549 
L 230 549 
L 275 549 
L 275 551 
Q 264 551 , 253 551 
Q 244 551 , 232 551 
Q 206 551 , 190 551 
Q 175 550 , 175 549 
Q 175 547 , 190 547 
Q 206 546 , 232 546 
Q 243 546 , 252 546 
Q 262 546 , 272 546 
L 272 547 
Q 259 547 , 251 547 
Q 242 547 , 233 547 
Q 212 547 , 201 547 
Q 191 548 , 191 549 
Q 191 550 , 201 550 
Q 212 551 , 233 551 
Q 242 551 , 249 551 
Q 256 551 , 259 551 
" fill="#F5C000" />
<path d="
M 275 540 
L 275 541 
Q 260 540 , 252 540 
Q 244 540 , 234 540 
Q 213 540 , 203 540 
Q 191 541 , 191 542 
Q 191 544 , 203 544 
Q 213 545 , 234 545 
Q 244 545 , 252 545 
Q 260 544 , 275 544 
L 275 545 
Q 264 545 , 254 545 
Q 244 546 , 233 546 
Q 206 546 , 191 545 
Q 175 544 , 175 542 
Q 175 541 , 191 540 
Q 206 539 , 233 539 
Q 244 539 , 254 539 
Q 265 539 , 275 540 
" fill="#545FFF" />
<path d="
M 175 531 
L 193 531 
L 193 536 
Q 193 537 , 201 537 
Q 208 538 , 225 538 
Q 242 538 , 250 537 
Q 257 537 , 257 536 
L 257 531 
L 275 531 
L 275 536 
Q 275 537 , 262 538 
Q 250 539 , 225 539 
Q 201 539 , 188 538 
Q 175 537 , 175 536 
L 175 531 
" fill="#D21010" />
<path d="
M 322 554 
L 322 553 
L 308 553 
L 308 553 
L 330 553 
L 330 554 
Q 325 554 , 319 554 
Q 314 554 , 308 554 
Q 295 554 , 288 554 
Q 280 553 , 280 553 
Q 280 552 , 288 551 
Q 295 551 , 308 551 
Q 314 551 , 319 551 
Q 324 551 , 329 551 
L 329 552 
Q 322 552 , 318 551 
Q 314 551 , 309 551 
Q 299 551 , 293 552 
Q 288 552 , 288 553 
Q 288 553 , 293 554 
Q 299 554 , 309 554 
Q 314 554 , 317 554 
Q 321 554 , 322 554 
" fill="#F5C000" />
<path d="
M 330 551 
L 339 551 
L 339 553 
Q 339 554 , 343 554 
Q 346 554 , 355 554 
Q 364 554 , 367 554 
Q 371 554 , 371 553 
L 371 551 
L 380 551 
L 380 553 
Q 380 554 , 374 554 
Q 367 554 , 355 554 
Q 343 554 , 336 554 
Q 330 554 , 330 553 
L 330 551 
" fill="lightgray" />
<path d="
M 280 547 
L 289 547 
L 289 549 
Q 289 550 , 293 550 
Q 296 550 , 305 550 
Q 314 550 , 317 550 
Q 321 550 , 321 549 
L 321 547 
L 330 547 
L 330 549 
Q 330 550 , 324 550 
Q 317 551 , 305 551 
Q 293 551 , 286 550 
Q 280 550 , 280 549 
L 280 547 
" fill="#D21010" />
<path d="
M 372 550 
L 372 549 
L 358 549 
L 358 549 
L 380 549 
L 380 550 
Q 375 551 , 369 551 
Q 364 551 , 358 551 
Q 345 551 , 338 550 
Q 330 550 , 330 549 
Q 330 548 , 338 548 
Q 345 547 , 358 547 
Q 364 547 , 369 547 
Q 374 547 , 379 547 
L 379 548 
Q 372 548 , 368 548 
Q 364 547 , 359 547 
Q 349 547 , 343 548 
Q 338 548 , 338 549 
Q 338 550 , 343 550 
Q 349 550 , 359 550 
Q 364 550 , 367 550 
Q 371 550 , 372 550 
" fill="lightgray" />
<path d="
M 322 544 
L 322 541 
L 308 541 
L 308 539 
L 330 539 
L 330 545 
Q 325 546 , 319 546 
Q 314 546 , 308 546 
Q 295 546 , 288 544 
Q 280 543 , 280 540 
Q 280 536 , 288 535 
Q 295 533 , 308 533 
Q 314 533 , 319 533 
Q 324 533 , 329 534 
L 329 536 
Q 322 535 , 318 535 
Q 314 535 , 309 535 
Q 299 535 , 293 536 
Q 288 537 , 288 540 
Q 288 542 , 293 543 
Q 299 545 , 309 545 
Q 314 545 , 317 544 
Q 321 544 , 322 544 
" fill="#F5C000" />
<path d="
M 380 534 
L 380 536 
Q 373 535 , 369 535 
Q 364 534 , 359 534 
Q 349 534 , 344 536 
Q 338 537 , 338 539 
Q 338 542 , 344 543 
Q 349 545 , 359 545 
Q 364 545 , 369 544 
Q 373 544 , 380 543 
L 380 545 
Q 375 545 , 369 546 
Q 365 546 , 359 546 
Q 345 546 , 338 544 
Q 330 543 , 330 540 
Q 330 537 , 338 535 
Q 345 533 , 359 533 
Q 365 533 , 370 533 
Q 375 534 , 380 534 
" fill="lightgray" />
<path d="
M 305 521 
L 296 527 
L 313 527 
L 305 521 
M 301 519 
L 309 519 
L 330 532 
L 322 532 
L 316 528 
L 294 528 
L 287 532 
L 280 532 
L 301 519 
" fill="#339541" />
<path d="
M 330 519 
L 339 519 
L 339 527 
Q 339 529 , 343 530 
Q 346 531 , 355 531 
Q 364 531 , 367 530 
Q 371 529 , 371 527 
L 371 519 
L 380 519 
L 380 527 
Q 380 530 , 374 531 
Q 367 532 , 355 532 
Q 343 532 , 336 531 
Q 330 530 , 330 527 
L 330 519 
" fill="lightgray" />
<path d="
M 280 502 
L 289 502 
L 289 512 
Q 289 514 , 293 515 
Q 296 516 , 305 516 
Q 314 516 , 317 515 
Q 321 514 , 321 512 
L 321 502 
L 330 502 
L 330 512 
Q 330 515 , 324 517 
Q 317 518 , 305 518 
Q 293 518 , 286 517 
Q 280 515 , 280 512 
L 280 502 
" fill="#D21010" />
<path d="
M 355 505 
L 346 512 
L 363 512 
L 355 505 
M 351 502 
L 359 502 
L 380 518 
L 372 518 
L 366 513 
L 344 513 
L 337 518 
L 330 518 
L 351 502 
" fill="lightgray" />
<path d="
M 330 462 
L 330 469 
Q 323 464 , 319 463 
Q 314 462 , 309 462 
Q 299 462 , 294 466 
Q 288 471 , 288 479 
Q 288 488 , 294 493 
Q 299 497 , 309 497 
Q 314 497 , 319 496 
Q 323 495 , 330 490 
L 330 497 
Q 325 500 , 319 501 
Q 315 502 , 309 502 
Q 295 502 , 288 496 
Q 280 490 , 280 479 
Q 280 469 , 288 463 
Q 295 457 , 309 457 
Q 315 457 , 320 458 
Q 325 459 , 330 462 
" fill="#545FFF" />
<path d="
M 372 495 
L 372 483 
L 358 483 
L 358 478 
L 380 478 
L 380 498 
Q 375 500 , 369 501 
Q 364 502 , 358 502 
Q 345 502 , 338 496 
Q 330 490 , 330 479 
Q 330 469 , 338 463 
Q 345 457 , 358 457 
Q 364 457 , 369 458 
Q 374 459 , 379 461 
L 379 466 
Q 372 464 , 368 463 
Q 364 462 , 359 462 
Q 349 462 , 343 467 
Q 338 471 , 338 479 
Q 338 488 , 343 493 
Q 349 497 , 359 497 
Q 364 497 , 367 496 
Q 371 496 , 372 495 
" fill="lightgray" />
<path d="
M 385 550 
L 403 550 
L 403 553 
Q 403 554 , 411 554 
Q 418 554 , 435 554 
Q 452 554 , 460 554 
Q 467 554 , 467 553 
L 467 550 
L 485 550 
L 485 553 
Q 485 554 , 472 554 
Q 460 555 , 435 555 
Q 411 555 , 398 554 
Q 385 554 , 385 553 
L 385 550 
" fill="#D21010" />
<path d="
M 485 545 
L 485 545 
Q 470 545 , 462 545 
Q 454 545 , 444 545 
Q 423 545 , 413 545 
Q 401 546 , 401 547 
Q 401 548 , 413 548 
Q 423 549 , 444 549 
Q 454 549 , 462 548 
Q 470 548 , 485 548 
L 485 549 
Q 474 549 , 464 549 
Q 454 549 , 443 549 
Q 416 549 , 401 548 
Q 385 548 , 385 547 
Q 385 545 , 401 545 
Q 416 544 , 443 544 
Q 454 544 , 464 544 
Q 475 544 , 485 545 
" fill="#545FFF" />
<path d="
M 435 508 
L 417 525 
L 451 525 
L 435 508 
M 428 500 
L 442 500 
L 485 543 
L 469 543 
L 457 530 
L 413 530 
L 400 543 
L 385 543 
L 428 500 
" fill="#339541" />
<path d="
M 469 490 
L 469 473 
L 440 473 
L 440 466 
L 485 466 
L 485 494 
Q 474 497 , 463 498 
Q 454 499 , 442 499 
Q 416 499 , 400 491 
Q 385 482 , 385 468 
Q 385 453 , 400 444 
Q 416 436 , 442 436 
Q 453 436 , 462 437 
Q 472 438 , 482 441 
L 482 449 
Q 469 446 , 461 445 
Q 452 444 , 443 444 
Q 422 444 , 411 449 
Q 401 455 , 401 468 
Q 401 480 , 411 486 
Q 422 492 , 443 492 
Q 452 492 , 459 492 
Q 466 491 , 469 490 
" fill="#F5C000" />
<path d="
M 540 553 
L 522 554 
L 556 554 
L 540 553 
M 533 552 
L 547 552 
L 590 555 
L 574 555 
L 562 554 
L 518 554 
L 505 555 
L 490 555 
L 533 552 
" fill="#339541" />
<path d="
M 490 542 
L 508 542 
L 508 548 
Q 508 549 , 516 550 
Q 523 550 , 540 550 
Q 557 550 , 565 550 
Q 572 549 , 572 548 
L 572 542 
L 590 542 
L 590 548 
Q 590 549 , 577 550 
Q 565 551 , 540 551 
Q 516 551 , 503 550 
Q 490 549 , 490 548 
L 490 542 
" fill="#D21010" />
<path d="
M 590 527 
L 590 529 
Q 575 528 , 567 527 
Q 559 527 , 549 527 
Q 528 527 , 518 528 
Q 506 530 , 506 533 
Q 506 537 , 518 538 
Q 528 540 , 549 540 
Q 559 540 , 567 539 
Q 575 539 , 590 537 
L 590 540 
Q 579 541 , 569 541 
Q 559 542 , 548 542 
Q 521 542 , 506 539 
Q 490 537 , 490 533 
Q 490 530 , 506 527 
Q 521 525 , 548 525 
Q 559 525 , 569 525 
Q 580 526 , 590 527 
" fill="#545FFF" />
<path d="
M 574 522 
L 574 516 
L 545 516 
L 545 514 
L 590 514 
L 590 523 
Q 579 524 , 568 524 
Q 559 524 , 547 524 
Q 521 524 , 505 522 
Q 490 519 , 490 514 
Q 490 509 , 505 507 
Q 521 504 , 547 504 
Q 558 504 , 567 504 
Q 577 505 , 587 506 
L 587 508 
Q 574 507 , 566 507 
Q 557 506 , 548 506 
Q 527 506 , 516 508 
Q 506 510 , 506 514 
Q 506 518 , 516 520 
Q 527 522 , 548 522 
Q 557 522 , 564 522 
Q 571 522 , 574 522 
" fill="#F5C000" />
<path d="
M 695 552 
L 695 553 
Q 680 552 , 672 552 
Q 664 552 , 654 552 
Q 633 552 , 623 553 
Q 611 553 , 611 553 
Q 611 554 , 623 554 
Q 633 555 , 654 555 
Q 664 555 , 672 555 
Q 680 554 , 695 554 
L 695 555 
Q 684 555 , 674 555 
Q 664 555 , 653 555 
Q 626 555 , 611 555 
Q 595 554 , 595 553 
Q 595 553 , 611 552 
Q 626 552 , 653 552 
Q 664 552 , 674 552 
Q 685 552 , 695 552 
" fill="#545FFF" />
<path d="
M 645 545 
L 627 548 
L 661 548 
L 645 545 
M 638 543 
L 652 543 
L 695 552 
L 679 552 
L 667 549 
L 623 549 
L 610 552 
L 595 552 
L 638 543 
" fill="#339541" />
<path d="
M 595 505 
L 613 505 
L 613 527 
Q 613 533 , 621 536 
Q 628 538 , 645 538 
Q 662 538 , 670 536 
Q 677 533 , 677 527 
L 677 505 
L 695 505 
L 695 527 
Q 695 535 , 682 538 
Q 670 542 , 645 542 
Q 621 542 , 608 538 
Q 595 535 , 595 527 
L 595 505 
" fill="#D21010" />
<path d="
M 679 497 
L 679 485 
L 650 485 
L 650 480 
L 695 480 
L 695 501 
Q 684 503 , 673 503 
Q 664 504 , 652 504 
Q 626 504 , 610 498 
Q 595 492 , 595 481 
Q 595 470 , 610 463 
Q 626 457 , 652 457 
Q 663 457 , 672 458 
Q 682 459 , 692 461 
L 692 467 
Q 679 464 , 671 463 
Q 662 463 , 653 463 
Q 632 463 , 621 467 
Q 611 471 , 611 481 
Q 611 490 , 621 494 
Q 632 499 , 653 499 
Q 662 499 , 669 498 
Q 676 498 , 679 497 
" fill="#F5C000" />
<path d="
M 800 554 
L 800 554 
Q 785 554 , 777 554 
Q 769 554 , 759 554 
Q 738 554 , 728 554 
Q 716 554 , 716 554 
Q 716 554 , 728 554 
Q 738 554 , 759 554 
Q 769 554 , 777 554 
Q 785 554 , 800 554 
L 800 554 
Q 789 554 , 779 554 
Q 769 554 , 758 554 
Q 731 554 , 716 554 
Q 700 554 , 700 554 
Q 700 554 , 716 554 
Q 731 554 , 758 554 
Q 769 554 , 779 554 
Q 790 554 , 800 554 
" fill="#545FFF" />
<path d="
M 700 553 
L 718 553 
L 718 553 
Q 718 553 , 726 553 
Q 733 553 , 750 553 
Q 767 553 , 775 553 
Q 782 553 , 782 553 
L 782 553 
L 800 553 
L 800 553 
Q 800 553 , 787 553 
Q 775 553 , 750 553 
Q 726 553 , 713 553 
Q 700 553 , 700 553 
L 700 553 
" fill="#D21010" />
<path d="
M 750 552 
L 732 552 
L 766 552 
L 750 552 
M 743 552 
L 757 552 
L 800 552 
L 784 552 
L 772 552 
L 728 552 
L 715 552 
L 700 552 
L 743 552 
" fill="#339541" />
<path d="
M 784 551 
L 784 551 
L 755 551 
L 755 551 
L 800 551 
L 800 551 
Q 789 552 , 778 552 
Q 769 552 , 757 552 
Q 731 552 , 715 551 
Q 700 551 , 700 551 
Q 700 551 , 715 551 
Q 731 551 , 757 551 
Q 768 551 , 777 551 
Q 787 551 , 797 551 
L 797 551 
Q 784 551 , 776 551 
Q 767 551 , 758 551 
Q 737 551 , 726 551 
Q 716 551 , 716 551 
Q 716 551 , 726 551 
Q 737 551 , 758 551 
Q 767 551 , 774 551 
Q 781 551 , 784 551 
" fill="#F5C000" />
<path d="
M 855 550 
L 837 552 
L 871 552 
L 855 550 
M 848 549 
L 862 549 
L 905 554 
L 889 554 
L 877 553 
L 833 553 
L 820 554 
L 805 554 
L 848 549 
" fill="#339541" />
<path d="
M 889 548 
L 889 545 
L 860 545 
L 860 544 
L 905 544 
L 905 548 
Q 894 549 , 883 549 
Q 874 549 , 862 549 
Q 836 549 , 820 548 
Q 805 547 , 805 544 
Q 805 542 , 820 541 
Q 836 540 , 862 540 
Q 873 540 , 882 540 
Q 892 540 , 902 541 
L 902 542 
Q 889 541 , 881 541 
Q 872 541 , 863 541 
Q 842 541 , 831 542 
Q 821 543 , 821 544 
Q 821 546 , 831 547 
Q 842 548 , 863 548 
Q 872 548 , 879 548 
Q 886 548 , 889 548 
" fill="#F5C000" />
<path d="
M 905 531 
L 905 532 
Q 890 531 , 882 531 
Q 874 531 , 864 531 
Q 843 531 , 833 532 
Q 821 533 , 821 534 
Q 821 536 , 833 537 
Q 843 538 , 864 538 
Q 874 538 , 882 538 
Q 890 538 , 905 537 
L 905 538 
Q 894 539 , 884 539 
Q 874 539 , 863 539 
Q 836 539 , 821 538 
Q 805 537 , 805 535 
Q 805 532 , 821 531 
Q 836 530 , 863 530 
Q 874 530 , 884 530 
Q 895 530 , 905 531 
" fill="#545FFF" />
<path d="
M 805 505 
L 823 505 
L 823 520 
Q 823 524 , 831 526 
Q 838 527 , 855 527 
Q 872 527 , 880 526 
Q 887 524 , 887 520 
L 887 505 
L 905 505 
L 905 520 
Q 905 525 , 892 527 
Q 880 530 , 855 530 
Q 831 530 , 818 527 
Q 805 525 , 805 520 
L 805 505 
" fill="#D21010" />
<path d="
M 952 554 
L 952 553 
L 938 553 
L 938 553 
L 960 553 
L 960 554 
Q 955 554 , 949 554 
Q 944 554 , 938 554 
Q 925 554 , 918 554 
Q 910 553 , 910 553 
Q 910 552 , 918 551 
Q 925 551 , 938 551 
Q 944 551 , 949 551 
Q 954 551 , 959 551 
L 959 552 
Q 952 552 , 948 551 
Q 944 551 , 939 551 
Q 929 551 , 923 552 
Q 918 552 , 918 553 
Q 918 553 , 923 554 
Q 929 554 , 939 554 
Q 944 554 , 947 554 
Q 951 554 , 952 554 
" fill="lightgray" />
<path d="
M 960 551 
L 969 551 
L 969 553 
Q 969 554 , 973 554 
Q 976 554 , 985 554 
Q 994 554 , 997 554 
Q 1001 554 , 1001 553 
L 1001 551 
L 1010 551 
L 1010 553 
Q 1010 554 , 1004 554 
Q 997 554 , 985 554 
Q 973 554 , 966 554 
Q 960 554 , 960 553 
L 960 551 
" fill="#D21010" />
<path d="
M 910 547 
L 919 547 
L 919 549 
Q 919 550 , 923 550 
Q 926 550 , 935 550 
Q 944 550 , 947 550 
Q 951 550 , 951 549 
L 951 547 
L 960 547 
L 960 549 
Q 960 550 , 954 550 
Q 947 551 , 935 551 
Q 923 551 , 916 550 
Q 910 550 , 910 549 
L 910 547 
" fill="lightgray" />
<path d="
M 1002 550 
L 1002 549 
L 988 549 
L 988 549 
L 1010 549 
L 1010 550 
Q 1005 551 , 999 551 
Q 994 551 , 988 551 
Q 975 551 , 968 550 
Q 960 550 , 960 549 
Q 960 548 , 968 548 
Q 975 547 , 988 547 
Q 994 547 , 999 547 
Q 1004 547 , 1009 547 
L 1009 548 
Q 1002 548 , 998 548 
Q 994 547 , 989 547 
Q 979 547 , 973 548 
Q 968 548 , 968 549 
Q 968 550 , 973 550 
Q 979 550 , 989 550 
Q 994 550 , 997 550 
Q 1001 550 , 1002 550 
" fill="#F5C000" />
<path d="
M 952 544 
L 952 541 
L 938 541 
L 938 539 
L 960 539 
L 960 545 
Q 955 546 , 949 546 
Q 944 546 , 938 546 
Q 925 546 , 918 544 
Q 910 543 , 910 540 
Q 910 536 , 918 535 
Q 925 533 , 938 533 
Q 944 533 , 949 533 
Q 954 533 , 959 534 
L 959 536 
Q 952 535 , 948 535 
Q 944 535 , 939 535 
Q 929 535 , 923 536 
Q 918 537 , 918 540 
Q 918 542 , 923 543 
Q 929 545 , 939 545 
Q 944 545 , 947 544 
Q 951 544 , 952 544 
" fill="lightgray" />
<path d="
M 1010 534 
L 1010 536 
Q 1003 535 , 999 535 
Q 994 534 , 989 534 
Q 979 534 , 974 536 
Q 968 537 , 968 539 
Q 968 542 , 974 543 
Q 979 545 , 989 545 
Q 994 545 , 999 544 
Q 1003 544 , 1010 543 
L 1010 545 
Q 1005 545 , 999 546 
Q 995 546 , 989 546 
Q 975 546 , 968 544 
Q 960 543 , 960 540 
Q 960 537 , 968 535 
Q 975 533 , 989 533 
Q 995 533 , 1000 533 
Q 1005 534 , 1010 534 
" fill="#545FFF" />
<path d="
M 935 521 
L 926 527 
L 943 527 
L 935 521 
M 931 519 
L 939 519 
L 960 532 
L 952 532 
L 946 528 
L 924 528 
L 917 532 
L 910 532 
L 931 519 
" fill="lightgray" />
<path d="
M 960 519 
L 969 519 
L 969 527 
Q 969 529 , 973 530 
Q 976 531 , 985 531 
Q 994 531 , 997 530 
Q 1001 529 , 1001 527 
L 1001 519 
L 1010 519 
L 1010 527 
Q 1010 530 , 1004 531 
Q 997 532 , 985 532 
Q 973 532 , 966 531 
Q 960 530 , 960 527 
L 960 519 
" fill="#D21010" />
<path d="
M 910 502 
L 919 502 
L 919 512 
Q 919 514 , 923 515 
Q 926 516 , 935 516 
Q 944 516 , 947 515 
Q 951 514 , 951 512 
L 951 502 
L 960 502 
L 960 512 
Q 960 515 , 954 517 
Q 947 518 , 935 518 
Q 923 518 , 916 517 
Q 910 515 , 910 512 
L 910 502 
" fill="lightgray" />
<path d="
M 985 505 
L 976 512 
L 993 512 
L 985 505 
M 981 502 
L 989 502 
L 1010 518 
L 1002 518 
L 996 513 
L 974 513 
L 967 518 
L 960 518 
L 981 502 
" fill="#339541" />
<path d="
M 960 462 
L 960 469 
Q 953 464 , 949 463 
Q 944 462 , 939 462 
Q 929 462 , 924 466 
Q 918 471 , 918 479 
Q 918 488 , 924 493 
Q 929 497 , 939 497 
Q 944 497 , 949 496 
Q 953 495 , 960 490 
L 960 497 
Q 955 500 , 949 501 
Q 945 502 , 939 502 
Q 925 502 , 918 496 
Q 910 490 , 910 479 
Q 910 469 , 918 463 
Q 925 457 , 939 457 
Q 945 457 , 950 458 
Q 955 459 , 960 462 
" fill="lightgray" />
<path d="
M 1002 495 
L 1002 483 
L 988 483 
L 988 478 
L 1010 478 
L 1010 498 
Q 1005 500 , 999 501 
Q 994 502 , 988 502 
Q 975 502 , 968 496 
Q 960 490 , 960 479 
Q 960 469 , 968 463 
Q 975 457 , 988 457 
Q 994 457 , 999 458 
Q 1004 459 , 1009 461 
L 1009 466 
Q 1002 464 , 998 463 
Q 994 462 , 989 462 
Q 979 462 , 973 467 
Q 968 471 , 968 479 
Q 968 488 , 973 493 
Q 979 497 , 989 497 
Q 994 497 , 997 496 
Q 1001 496 , 1002 495 
" fill="#F5C000" />
<path d="
M 1115 552 
L 1115 553 
Q 1100 552 , 1092 552 
Q 1084 552 , 1074 552 
Q 1053 552 , 1043 552 
Q 1031 553 , 1031 553 
Q 1031 553 , 1043 554 
Q 1053 554 , 1074 554 
Q 1084 554 , 1092 554 
Q 1100 554 , 1115 554 
L 1115 554 
Q 1104 554 , 1094 554 
Q 1084 554 , 1073 554 
Q 1046 554 , 1031 554 
Q 1015 554 , 1015 553 
Q 1015 553 , 1031 552 
Q 1046 552 , 1073 552 
Q 1084 552 , 1094 552 
Q 1105 552 , 1115 552 
" fill="#545FFF" />
<path d="
M 1015 549 
L 1033 549 
L 1033 550 
Q 1033 551 , 1041 551 
Q 1048 551 , 1065 551 
Q 1082 551 , 1090 551 
Q 1097 551 , 1097 550 
L 1097 549 
L 1115 549 
L 1115 550 
Q 1115 551 , 1102 551 
Q 1090 551 , 1065 551 
Q 1041 551 , 1028 551 
Q 1015 551 , 1015 550 
L 1015 549 
" fill="#D21010" />
<path d="
M 1099 548 
L 1099 548 
L 1070 548 
L 1070 547 
L 1115 547 
L 1115 549 
Q 1104 549 , 1093 549 
Q 1084 549 , 1072 549 
Q 1046 549 , 1030 549 
Q 1015 548 , 1015 547 
Q 1015 547 , 1030 546 
Q 1046 546 , 1072 546 
Q 1083 546 , 1092 546 
Q 1102 546 , 1112 546 
L 1112 547 
Q 1099 546 , 1091 546 
Q 1082 546 , 1073 546 
Q 1052 546 , 1041 547 
Q 1031 547 , 1031 547 
Q 1031 548 , 1041 548 
Q 1052 549 , 1073 549 
Q 1082 549 , 1089 549 
Q 1096 549 , 1099 548 
" fill="#F5C000" />
<path d="
M 1065 542 
L 1047 544 
L 1081 544 
L 1065 542 
M 1058 541 
L 1072 541 
L 1115 545 
L 1099 545 
L 1087 544 
L 1043 544 
L 1030 545 
L 1015 545 
L 1058 541 
" fill="#339541" />
<path d="
M 1170 552 
L 1152 553 
L 1186 553 
L 1170 552 
M 1163 552 
L 1177 552 
L 1220 554 
L 1204 554 
L 1192 554 
L 1148 554 
L 1135 554 
L 1120 554 
L 1163 552 
" fill="#339541" />
<path d="
M 1120 548 
L 1138 548 
L 1138 550 
Q 1138 550 , 1146 551 
Q 1153 551 , 1170 551 
Q 1187 551 , 1195 551 
Q 1202 550 , 1202 550 
L 1202 548 
L 1220 548 
L 1220 550 
Q 1220 551 , 1207 551 
Q 1195 551 , 1170 551 
Q 1146 551 , 1133 551 
Q 1120 551 , 1120 550 
L 1120 548 
" fill="#D21010" />
<path d="
M 1204 547 
L 1204 546 
L 1175 546 
L 1175 545 
L 1220 545 
L 1220 547 
Q 1209 547 , 1198 547 
Q 1189 547 , 1177 547 
Q 1151 547 , 1135 547 
Q 1120 546 , 1120 545 
Q 1120 544 , 1135 544 
Q 1151 543 , 1177 543 
Q 1188 543 , 1197 543 
Q 1207 543 , 1217 543 
L 1217 544 
Q 1204 544 , 1196 544 
Q 1187 544 , 1178 544 
Q 1157 544 , 1146 544 
Q 1136 544 , 1136 545 
Q 1136 546 , 1146 546 
Q 1157 547 , 1178 547 
Q 1187 547 , 1194 547 
Q 1201 547 , 1204 547 
" fill="#F5C000" />
<path d="
M 1220 538 
L 1220 539 
Q 1205 538 , 1197 538 
Q 1189 538 , 1179 538 
Q 1158 538 , 1148 538 
Q 1136 539 , 1136 540 
Q 1136 541 , 1148 542 
Q 1158 542 , 1179 542 
Q 1189 542 , 1197 542 
Q 1205 542 , 1220 541 
L 1220 542 
Q 1209 543 , 1199 543 
Q 1189 543 , 1178 543 
Q 1151 543 , 1136 542 
Q 1120 541 , 1120 540 
Q 1120 539 , 1136 538 
Q 1151 537 , 1178 537 
Q 1189 537 , 1199 537 
Q 1210 537 , 1220 538 
" fill="#545FFF" />
<path d="
M 1325 551 
L 1325 552 
Q 1310 552 , 1302 552 
Q 1294 551 , 1284 551 
Q 1263 551 , 1253 552 
Q 1241 552 , 1241 553 
Q 1241 554 , 1253 554 
Q 1263 554 , 1284 554 
Q 1294 554 , 1302 554 
Q 1310 554 , 1325 554 
L 1325 554 
Q 1314 555 , 1304 555 
Q 1294 555 , 1283 555 
Q 1256 555 , 1241 554 
Q 1225 554 , 1225 553 
Q 1225 552 , 1241 552 
Q 1256 551 , 1283 551 
Q 1294 551 , 1304 551 
Q 1315 551 , 1325 551 
" fill="#545FFF" />
<path d="
M 1275 548 
L 1257 549 
L 1291 549 
L 1275 548 
M 1268 547 
L 1282 547 
L 1325 551 
L 1309 551 
L 1297 550 
L 1253 550 
L 1240 551 
L 1225 551 
L 1268 547 
" fill="#339541" />
<path d="
M 1309 546 
L 1309 544 
L 1280 544 
L 1280 544 
L 1325 544 
L 1325 546 
Q 1314 546 , 1303 547 
Q 1294 547 , 1282 547 
Q 1256 547 , 1240 546 
Q 1225 545 , 1225 544 
Q 1225 543 , 1240 542 
Q 1256 541 , 1282 541 
Q 1293 541 , 1302 541 
Q 1312 541 , 1322 541 
L 1322 542 
Q 1309 542 , 1301 542 
Q 1292 542 , 1283 542 
Q 1262 542 , 1251 542 
Q 1241 543 , 1241 544 
Q 1241 545 , 1251 545 
Q 1262 546 , 1283 546 
Q 1292 546 , 1299 546 
Q 1306 546 , 1309 546 
" fill="#F5C000" />
<path d="
M 1225 531 
L 1243 531 
L 1243 537 
Q 1243 538 , 1251 539 
Q 1258 540 , 1275 540 
Q 1292 540 , 1300 539 
Q 1307 538 , 1307 537 
L 1307 531 
L 1325 531 
L 1325 537 
Q 1325 539 , 1312 540 
Q 1300 541 , 1275 541 
Q 1251 541 , 1238 540 
Q 1225 539 , 1225 537 
L 1225 531 
" fill="#D21010" />
<path d="
M 1430 554 
L 1430 554 
Q 1415 554 , 1407 554 
Q 1399 554 , 1389 554 
Q 1368 554 , 1358 554 
Q 1346 554 , 1346 554 
Q 1346 554 , 1358 554 
Q 1368 554 , 1389 554 
Q 1399 554 , 1407 554 
Q 1415 554 , 1430 554 
L 1430 554 
Q 1419 554 , 1409 554 
Q 1399 554 , 1388 554 
Q 1361 554 , 1346 554 
Q 1330 554 , 1330 554 
Q 1330 554 , 1346 554 
Q 1361 554 , 1388 554 
Q 1399 554 , 1409 554 
Q 1420 554 , 1430 554 
" fill="#545FFF" />
<path d="
M 1330 553 
L 1348 553 
L 1348 553 
Q 1348 553 , 1356 553 
Q 1363 553 , 1380 553 
Q 1397 553 , 1405 553 
Q 1412 553 , 1412 553 
L 1412 553 
L 1430 553 
L 1430 553 
Q 1430 553 , 1417 553 
Q 1405 553 , 1380 553 
Q 1356 553 , 1343 553 
Q 1330 553 , 1330 553 
L 1330 553 
" fill="#D21010" />
<path d="
M 1380 552 
L 1362 552 
L 1396 552 
L 1380 552 
M 1373 552 
L 1387 552 
L 1430 552 
L 1414 552 
L 1402 552 
L 1358 552 
L 1345 552 
L 1330 552 
L 1373 552 
" fill="#339541" />
<path d="
M 1414 551 
L 1414 551 
L 1385 551 
L 1385 551 
L 1430 551 
L 1430 551 
Q 1419 552 , 1408 552 
Q 1399 552 , 1387 552 
Q 1361 552 , 1345 551 
Q 1330 551 , 1330 551 
Q 1330 551 , 1345 551 
Q 1361 551 , 1387 551 
Q 1398 551 , 1407 551 
Q 1417 551 , 1427 551 
L 1427 551 
Q 1414 551 , 1406 551 
Q 1397 551 , 1388 551 
Q 1367 551 , 1356 551 
Q 1346 551 , 1346 551 
Q 1346 551 , 1356 551 
Q 1367 551 , 1388 551 
Q 1397 551 , 1404 551 
Q 1411 551 , 1414 551 
" fill="#F5C000" />
<path d="M 65 168 L 65 555 " stroke="black" stroke-width="1.5"/>
<path d="M 55 555 L 65 555 " stroke="black" stroke-width="4"/>
<text text-anchor="end" x="50" y="555" font-size="50" alignment-baseline="middle">0</text>
<path d="M 55 362 L 65 362 " stroke="black" stroke-width="4"/>
<text text-anchor="end" x="50" y="362" font-size="50" alignment-baseline="middle">1</text>
<path d="M 55 168 L 65 168 " stroke="black" stroke-width="4"/>
<text text-anchor="end" x="50" y="168" font-size="50" alignment-baseline="middle">2</text>
<text text-anchor="middle" x="750" y="50" font-size="50" alignment-baseline="baseline"></text>
G<path d="
M 160 582 
L 126 595 
L 160 608 
L 157 611 
L 123 598 
L 123 623 
L 117 623 
L 117 599 
L 83 611 
L 80 608 
L 114 595 
L 80 582 
L 83 579 
L 117 591 
L 117 567 
L 123 567 
L 123 591 
L 157 579 
L 160 582 
" fill="black" />
<path d="
" fill="black" />
<path d="
M 211 567 
L 238 567 
L 238 623 
L 211 623 
L 211 567 
" fill="black" />
<path d="
" fill="black" />
<path d="
M 370 567 
Q 341 574 , 328 581 
Q 315 588 , 315 595 
Q 315 602 , 328 609 
Q 341 616 , 370 623 
L 346 623 
Q 318 616 , 304 609 
Q 290 602 , 290 595 
Q 290 588 , 304 581 
Q 318 574 , 346 567 
L 370 567 
" fill="black" />
<path d="
" fill="black" />
<path d="
M 421 567 
L 448 567 
L 448 623 
L 421 623 
L 421 567 
" fill="black" />
<path d="
" fill="black" />
<path d="
" fill="black" />
<path d="
M 526 567 
L 553 567 
L 553 623 
L 526 623 
L 526 567 
" fill="black" />
<path d="
" fill="black" />
<path d="
" fill="black" />
<path d="
M 622 567 
L 642 567 
L 642 623 
L 622 623 
L 622 567 
" fill="black" />
<path d="
" fill="black" />
<path d="
M 673 567 
L 690 567 
L 690 571 
L 676 571 
L 676 588 
Q 677 588 , 678 587 
Q 679 587 , 681 587 
Q 686 587 , 689 592 
Q 692 596 , 692 604 
Q 692 613 , 689 618 
Q 686 623 , 680 623 
Q 678 623 , 676 623 
Q 674 622 , 672 621 
L 672 616 
Q 674 618 , 676 618 
Q 678 619 , 680 619 
Q 684 619 , 686 615 
Q 689 611 , 689 604 
Q 689 598 , 687 594 
Q 684 591 , 680 591 
Q 679 591 , 677 591 
Q 676 592 , 673 594 
L 673 567 
" fill="black" />
<path d="
M 790 582 
L 756 595 
L 790 608 
L 787 611 
L 753 598 
L 753 623 
L 747 623 
L 747 599 
L 713 611 
L 710 608 
L 744 595 
L 710 582 
L 713 579 
L 747 591 
L 747 567 
L 753 567 
L 753 591 
L 787 579 
L 790 582 
" fill="black" />
<path d="
" fill="black" />
<path d="
M 841 567 
L 868 567 
L 868 623 
L 841 623 
L 841 567 
" fill="black" />
<path d="
" fill="black" />
<path d="
M 920 567 
L 944 567 
Q 972 574 , 986 581 
Q 1000 588 , 1000 595 
Q 1000 602 , 986 609 
Q 972 616 , 944 623 
L 920 623 
Q 949 616 , 962 609 
Q 975 602 , 975 595 
Q 975 588 , 962 581 
Q 949 574 , 920 567 
" fill="black" />
<path d="
" fill="black" />
<path d="
M 1051 567 
L 1078 567 
L 1078 623 
L 1051 623 
L 1051 567 
" fill="black" />
<path d="
" fill="black" />
<path d="
" fill="black" />
<path d="
M 1156 567 
L 1183 567 
L 1183 623 
L 1156 623 
L 1156 567 
" fill="black" />
<path d="
" fill="black" />
<path d="
" fill="black" />
<path d="
M 1261 567 
L 1288 567 
L 1288 623 
L 1261 623 
L 1261 567 
" fill="black" />
<path d="
" fill="black" />
<path d="
M 1420 582 
L 1386 595 
L 1420 608 
L 1417 611 
L 1383 598 
L 1383 623 
L 1377 623 
L 1377 599 
L 1343 611 
L 1340 608 
L 1374 595 
L 1340 582 
L 1343 579 
L 1377 591 
L 1377 567 
L 1383 567 
L 1383 591 
L 1417 579 
L 1420 582 
" fill="black" />
</svg>
