<svg xmlns="http://www.w3.org/2000/svg"
viewBox="0 0 1225 615">
<path d="
M 141 554 
L 141 552 
L 108 552 
L 108 551 
L 170 551 
L 170 554 
Q 148 555 , 128 555 
Q 99 555 , 84 554 
Q 70 553 , 70 552 
Q 70 550 , 84 549 
Q 99 549 , 130 549 
Q 143 549 , 163 549 
L 163 550 
Q 143 550 , 130 550 
Q 114 550 , 105 550 
Q 97 551 , 97 552 
Q 97 554 , 128 554 
Q 137 554 , 141 554 
" fill="#F5C000" stroke="black" stroke-width="1"/>
<path d="
M 70 545 
Q 70 544 , 86 543 
Q 102 542 , 133 542 
Q 149 542 , 168 542 
L 168 543 
Q 146 543 , 133 543 
Q 102 543 , 102 545 
Q 102 547 , 110 547 
Q 118 548 , 133 548 
Q 146 548 , 170 547 
L 170 548 
Q 151 549 , 133 549 
Q 102 549 , 86 548 
Q 70 547 , 70 545 
" fill="#545FFF" stroke="black" stroke-width="1"/>
<path d="
M 115 534 
L 125 534 
L 111 538 
L 129 538 
L 115 534 
M 134 539 
L 102 539 
L 93 541 
L 70 541 
L 106 533 
L 134 533 
L 170 541 
L 143 541 
L 134 539 
" fill="#339541" stroke="black" stroke-width="1"/>
<path d="
M 157 531 
Q 145 533 , 121 533 
Q 97 533 , 83 531 
Q 70 530 , 70 527 
L 70 512 
L 102 512 
L 102 526 
Q 102 528 , 106 528 
Q 111 529 , 121 529 
Q 132 529 , 136 528 
Q 141 528 , 141 526 
L 141 512 
L 170 512 
L 170 527 
Q 170 530 , 157 531 
" fill="#D21010" stroke="black" stroke-width="1"/>
<path d="
M 218 554 
Q 212 554 , 200 554 
Q 188 554 , 181 554 
Q 175 554 , 175 553 
L 175 551 
L 191 551 
L 191 553 
Q 191 553 , 193 553 
Q 196 554 , 201 554 
Q 206 554 , 208 553 
Q 210 553 , 210 553 
L 210 551 
L 225 551 
L 225 553 
Q 225 554 , 218 554 
" fill="#D21010" stroke="black" stroke-width="1"/>
<path d="
M 261 554 
L 261 553 
L 244 553 
L 244 552 
L 275 552 
L 275 554 
Q 264 554 , 254 554 
Q 239 554 , 232 553 
Q 225 553 , 225 553 
Q 225 552 , 232 551 
Q 239 551 , 255 551 
Q 262 551 , 272 551 
L 272 552 
Q 262 551 , 255 551 
Q 247 551 , 242 551 
Q 238 552 , 238 553 
Q 238 554 , 254 554 
Q 258 554 , 261 554 
" fill="white" stroke="black" stroke-width="1"/>
<path d="
M 211 549 
L 211 548 
L 194 548 
L 194 548 
L 225 548 
L 225 550 
Q 214 550 , 204 550 
Q 189 550 , 182 549 
Q 175 549 , 175 548 
Q 175 547 , 182 546 
Q 189 546 , 205 546 
Q 212 546 , 222 546 
L 222 547 
Q 212 547 , 205 547 
Q 197 547 , 192 547 
Q 188 547 , 188 548 
Q 188 549 , 204 549 
Q 208 549 , 211 549 
" fill="#F5C000" stroke="black" stroke-width="1"/>
<path d="
M 225 548 
Q 225 547 , 233 546 
Q 241 546 , 257 546 
Q 265 546 , 274 546 
L 274 547 
Q 263 547 , 257 547 
Q 241 547 , 241 548 
Q 241 549 , 245 549 
Q 249 549 , 257 549 
Q 263 549 , 275 549 
L 275 550 
Q 265 550 , 257 550 
Q 241 550 , 233 549 
Q 225 549 , 225 548 
" fill="white" stroke="black" stroke-width="1"/>
<path d="
M 218 545 
Q 212 545 , 200 545 
Q 188 545 , 181 545 
Q 175 545 , 175 544 
L 175 540 
L 191 540 
L 191 544 
Q 191 544 , 193 544 
Q 196 544 , 201 544 
Q 206 544 , 208 544 
Q 210 544 , 210 544 
L 210 540 
L 225 540 
L 225 544 
Q 225 545 , 218 545 
" fill="#D21010" stroke="black" stroke-width="1"/>
<path d="
M 248 541 
L 252 541 
L 245 543 
L 255 543 
L 248 541 
M 257 544 
L 241 544 
L 236 545 
L 225 545 
L 243 540 
L 257 540 
L 275 545 
L 261 545 
L 257 544 
" fill="white" stroke="black" stroke-width="1"/>
<path d="
M 198 534 
L 202 534 
L 195 537 
L 205 537 
L 198 534 
M 207 538 
L 191 538 
L 186 540 
L 175 540 
L 193 533 
L 207 533 
L 225 540 
L 211 540 
L 207 538 
" fill="#339541" stroke="black" stroke-width="1"/>
<path d="
M 268 539 
Q 262 540 , 250 540 
Q 238 540 , 231 539 
Q 225 539 , 225 538 
L 225 533 
L 241 533 
L 241 538 
Q 241 538 , 243 538 
Q 246 539 , 251 539 
Q 256 539 , 258 538 
Q 260 538 , 260 538 
L 260 533 
L 275 533 
L 275 538 
Q 275 539 , 268 539 
" fill="white" stroke="black" stroke-width="1"/>
<path d="
M 175 527 
Q 175 524 , 183 522 
Q 191 521 , 207 521 
Q 215 521 , 224 522 
L 224 524 
Q 213 523 , 207 523 
Q 191 523 , 191 527 
Q 191 529 , 195 530 
Q 199 531 , 207 531 
Q 213 531 , 225 530 
L 225 532 
Q 215 533 , 207 533 
Q 191 533 , 183 531 
Q 175 530 , 175 527 
" fill="#545FFF" stroke="black" stroke-width="1"/>
<path d="
M 261 531 
L 261 527 
L 244 527 
L 244 526 
L 275 526 
L 275 532 
Q 264 533 , 254 533 
Q 239 533 , 232 531 
Q 225 530 , 225 527 
Q 225 524 , 232 522 
Q 239 521 , 255 521 
Q 262 521 , 272 521 
L 272 523 
Q 262 523 , 255 523 
Q 247 523 , 242 524 
Q 238 525 , 238 527 
Q 238 531 , 254 531 
Q 258 531 , 261 531 
" fill="white" stroke="black" stroke-width="1"/>
<path d="
M 211 518 
L 211 513 
L 194 513 
L 194 511 
L 225 511 
L 225 520 
Q 214 521 , 204 521 
Q 189 521 , 182 519 
Q 175 517 , 175 512 
Q 175 508 , 182 506 
Q 189 504 , 205 504 
Q 212 504 , 222 505 
L 222 507 
Q 212 507 , 205 507 
Q 197 507 , 192 508 
Q 188 509 , 188 512 
Q 188 518 , 204 518 
Q 208 518 , 211 518 
" fill="#F5C000" stroke="black" stroke-width="1"/>
<path d="
M 268 519 
Q 262 521 , 250 521 
Q 238 521 , 231 519 
Q 225 518 , 225 516 
L 225 504 
L 241 504 
L 241 516 
Q 241 517 , 243 517 
Q 246 518 , 251 518 
Q 256 518 , 258 517 
Q 260 517 , 260 516 
L 260 504 
L 275 504 
L 275 516 
Q 275 518 , 268 519 
" fill="white" stroke="black" stroke-width="1"/>
<path d="
M 351 554 
L 351 553 
L 318 553 
L 318 552 
L 380 552 
L 380 554 
Q 358 555 , 338 555 
Q 309 555 , 294 554 
Q 280 554 , 280 552 
Q 280 551 , 294 550 
Q 309 550 , 340 550 
Q 353 550 , 373 550 
L 373 551 
Q 353 551 , 340 551 
Q 324 551 , 315 551 
Q 307 551 , 307 552 
Q 307 554 , 338 554 
Q 347 554 , 351 554 
" fill="#F5C000" stroke="black" stroke-width="1"/>
<path d="
M 325 541 
L 335 541 
L 321 545 
L 339 545 
L 325 541 
M 344 547 
L 312 547 
L 303 550 
L 280 550 
L 316 539 
L 344 539 
L 380 550 
L 353 550 
L 344 547 
" fill="#339541" stroke="black" stroke-width="1"/>
<path d="
M 367 537 
Q 355 539 , 331 539 
Q 307 539 , 293 537 
Q 280 535 , 280 531 
L 280 511 
L 312 511 
L 312 530 
Q 312 533 , 316 534 
Q 321 535 , 331 535 
Q 342 535 , 346 534 
Q 351 533 , 351 530 
L 351 511 
L 380 511 
L 380 531 
Q 380 535 , 367 537 
" fill="#D21010" stroke="black" stroke-width="1"/>
<path d="
M 280 463 
Q 280 438 , 296 426 
Q 312 415 , 343 415 
Q 359 415 , 378 420 
L 378 435 
Q 356 430 , 343 430 
Q 312 430 , 312 463 
Q 312 482 , 320 489 
Q 328 496 , 343 496 
Q 356 496 , 380 489 
L 380 506 
Q 361 511 , 343 511 
Q 312 511 , 296 499 
Q 280 488 , 280 463 
" fill="#545FFF" stroke="black" stroke-width="1"/>
<path d="
M 385 553 
Q 385 553 , 401 552 
Q 417 552 , 448 552 
Q 464 552 , 483 552 
L 483 552 
Q 461 552 , 448 552 
Q 417 552 , 417 553 
Q 417 554 , 425 554 
Q 433 554 , 448 554 
Q 461 554 , 485 554 
L 485 554 
Q 466 554 , 448 554 
Q 417 554 , 401 554 
Q 385 554 , 385 553 
" fill="#545FFF" stroke="black" stroke-width="1"/>
<path d="
M 456 551 
L 456 550 
L 423 550 
L 423 549 
L 485 549 
L 485 552 
Q 463 552 , 443 552 
Q 414 552 , 399 551 
Q 385 551 , 385 550 
Q 385 549 , 399 548 
Q 414 548 , 445 548 
Q 458 548 , 478 548 
L 478 549 
Q 458 549 , 445 549 
Q 429 549 , 420 549 
Q 412 549 , 412 550 
Q 412 551 , 443 551 
Q 452 551 , 456 551 
" fill="#F5C000" stroke="black" stroke-width="1"/>
<path d="
M 472 547 
Q 460 547 , 436 547 
Q 412 547 , 398 547 
Q 385 547 , 385 546 
L 385 542 
L 417 542 
L 417 546 
Q 417 546 , 421 546 
Q 426 547 , 436 547 
Q 447 547 , 451 546 
Q 456 546 , 456 546 
L 456 542 
L 485 542 
L 485 546 
Q 485 547 , 472 547 
" fill="#D21010" stroke="black" stroke-width="1"/>
<path d="
M 430 536 
L 440 536 
L 426 539 
L 444 539 
L 430 536 
M 449 539 
L 417 539 
L 408 541 
L 385 541 
L 421 535 
L 449 535 
L 485 541 
L 458 541 
L 449 539 
" fill="#339541" stroke="black" stroke-width="1"/>
<path d="
M 513 552 
L 517 552 
L 510 553 
L 520 553 
L 513 552 
M 522 554 
L 506 554 
L 501 555 
L 490 555 
L 508 551 
L 522 551 
L 540 555 
L 526 555 
L 522 554 
" fill="#339541" stroke="black" stroke-width="1"/>
<path d="
M 583 554 
Q 577 555 , 565 555 
Q 553 555 , 546 554 
Q 540 554 , 540 554 
L 540 551 
L 556 551 
L 556 554 
Q 556 554 , 558 554 
Q 561 554 , 566 554 
Q 571 554 , 573 554 
Q 575 554 , 575 554 
L 575 551 
L 590 551 
L 590 554 
Q 590 554 , 583 554 
" fill="white" stroke="black" stroke-width="1"/>
<path d="
M 526 549 
L 526 548 
L 509 548 
L 509 547 
L 540 547 
L 540 550 
Q 529 550 , 519 550 
Q 504 550 , 497 549 
Q 490 549 , 490 548 
Q 490 546 , 497 545 
Q 504 545 , 520 545 
Q 527 545 , 537 545 
L 537 546 
Q 527 546 , 520 546 
Q 512 546 , 507 546 
Q 503 547 , 503 548 
Q 503 549 , 519 549 
Q 523 549 , 526 549 
" fill="#F5C000" stroke="black" stroke-width="1"/>
<path d="
M 583 550 
Q 577 550 , 565 550 
Q 553 550 , 546 550 
Q 540 550 , 540 549 
L 540 545 
L 556 545 
L 556 549 
Q 556 549 , 558 549 
Q 561 549 , 566 549 
Q 571 549 , 573 549 
Q 575 549 , 575 549 
L 575 545 
L 590 545 
L 590 549 
Q 590 550 , 583 550 
" fill="white" stroke="black" stroke-width="1"/>
<path d="
M 490 541 
Q 490 539 , 498 538 
Q 506 538 , 522 538 
Q 530 538 , 539 538 
L 539 539 
Q 528 539 , 522 539 
Q 506 539 , 506 541 
Q 506 542 , 510 542 
Q 514 543 , 522 543 
Q 528 543 , 540 543 
L 540 544 
Q 530 544 , 522 544 
Q 506 544 , 498 543 
Q 490 543 , 490 541 
" fill="#545FFF" stroke="black" stroke-width="1"/>
<path d="
M 576 543 
L 576 541 
L 559 541 
L 559 540 
L 590 540 
L 590 544 
Q 579 544 , 569 544 
Q 554 544 , 547 543 
Q 540 543 , 540 541 
Q 540 539 , 547 538 
Q 554 538 , 570 538 
Q 577 538 , 587 538 
L 587 539 
Q 577 539 , 570 539 
Q 562 539 , 557 539 
Q 553 540 , 553 541 
Q 553 543 , 569 543 
Q 573 543 , 576 543 
" fill="white" stroke="black" stroke-width="1"/>
<path d="
M 533 537 
Q 527 538 , 515 538 
Q 503 538 , 496 537 
Q 490 537 , 490 535 
L 490 530 
L 506 530 
L 506 535 
Q 506 536 , 508 536 
Q 511 537 , 516 537 
Q 521 537 , 523 536 
Q 525 536 , 525 535 
L 525 530 
L 540 530 
L 540 535 
Q 540 537 , 533 537 
" fill="#D21010" stroke="black" stroke-width="1"/>
<path d="
M 563 531 
L 567 531 
L 560 534 
L 570 534 
L 563 531 
M 572 536 
L 556 536 
L 551 538 
L 540 538 
L 558 530 
L 572 530 
L 590 538 
L 576 538 
L 572 536 
" fill="white" stroke="black" stroke-width="1"/>
<path d="
M 526 527 
L 526 524 
L 509 524 
L 509 522 
L 540 522 
L 540 529 
Q 529 529 , 519 529 
Q 504 529 , 497 527 
Q 490 526 , 490 524 
Q 490 521 , 497 519 
Q 504 518 , 520 518 
Q 527 518 , 537 518 
L 537 520 
Q 527 520 , 520 520 
Q 512 520 , 507 520 
Q 503 521 , 503 524 
Q 503 528 , 519 528 
Q 523 528 , 526 527 
" fill="#F5C000" stroke="black" stroke-width="1"/>
<path d="
M 540 524 
Q 540 521 , 548 519 
Q 556 518 , 572 518 
Q 580 518 , 589 519 
L 589 520 
Q 578 520 , 572 520 
Q 556 520 , 556 524 
Q 556 526 , 560 527 
Q 564 528 , 572 528 
Q 578 528 , 590 527 
L 590 529 
Q 580 529 , 572 529 
Q 556 529 , 548 528 
Q 540 527 , 540 524 
" fill="white" stroke="black" stroke-width="1"/>
<path d="
M 533 515 
Q 527 517 , 515 517 
Q 503 517 , 496 515 
Q 490 514 , 490 510 
L 490 493 
L 506 493 
L 506 510 
Q 506 512 , 508 512 
Q 511 513 , 516 513 
Q 521 513 , 523 512 
Q 525 512 , 525 510 
L 525 493 
L 540 493 
L 540 510 
Q 540 514 , 533 515 
" fill="#D21010" stroke="black" stroke-width="1"/>
<path d="
M 576 513 
L 576 506 
L 559 506 
L 559 502 
L 590 502 
L 590 516 
Q 579 517 , 569 517 
Q 554 517 , 547 514 
Q 540 511 , 540 505 
Q 540 499 , 547 496 
Q 554 493 , 570 493 
Q 577 493 , 587 494 
L 587 498 
Q 577 497 , 570 497 
Q 562 497 , 557 498 
Q 553 500 , 553 505 
Q 553 514 , 569 514 
Q 573 514 , 576 513 
" fill="white" stroke="black" stroke-width="1"/>
<path d="
M 771 554 
L 771 552 
L 738 552 
L 738 552 
L 800 552 
L 800 554 
Q 778 554 , 758 554 
Q 729 554 , 714 553 
Q 700 553 , 700 552 
Q 700 551 , 714 550 
Q 729 550 , 760 550 
Q 773 550 , 793 550 
L 793 551 
Q 773 551 , 760 551 
Q 744 551 , 735 551 
Q 727 551 , 727 552 
Q 727 554 , 758 554 
Q 767 554 , 771 554 
" fill="#F5C000" stroke="black" stroke-width="1"/>
<path d="
M 700 546 
Q 700 545 , 716 544 
Q 732 543 , 763 543 
Q 779 543 , 798 543 
L 798 544 
Q 776 544 , 763 544 
Q 732 544 , 732 546 
Q 732 547 , 740 547 
Q 748 548 , 763 548 
Q 776 548 , 800 548 
L 800 549 
Q 781 549 , 763 549 
Q 732 549 , 716 548 
Q 700 548 , 700 546 
" fill="#545FFF" stroke="black" stroke-width="1"/>
<path d="
M 745 529 
L 755 529 
L 741 536 
L 759 536 
L 745 529 
M 764 538 
L 732 538 
L 723 542 
L 700 542 
L 736 527 
L 764 527 
L 800 542 
L 773 542 
L 764 538 
" fill="#339541" stroke="black" stroke-width="1"/>
<path d="
M 787 524 
Q 775 526 , 751 526 
Q 727 526 , 713 524 
Q 700 523 , 700 521 
L 700 506 
L 732 506 
L 732 520 
Q 732 522 , 736 522 
Q 741 523 , 751 523 
Q 762 523 , 766 522 
Q 771 522 , 771 520 
L 771 506 
L 800 506 
L 800 521 
Q 800 523 , 787 524 
" fill="#D21010" stroke="black" stroke-width="1"/>
<path d="
M 892 554 
Q 880 555 , 856 555 
Q 832 555 , 818 554 
Q 805 554 , 805 554 
L 805 553 
L 837 553 
L 837 554 
Q 837 554 , 841 554 
Q 846 554 , 856 554 
Q 867 554 , 871 554 
Q 876 554 , 876 554 
L 876 553 
L 905 553 
L 905 554 
Q 905 554 , 892 554 
" fill="#D21010" stroke="black" stroke-width="1"/>
<path d="
M 850 550 
L 860 550 
L 846 551 
L 864 551 
L 850 550 
M 869 552 
L 837 552 
L 828 552 
L 805 552 
L 841 550 
L 869 550 
L 905 552 
L 878 552 
L 869 552 
" fill="#339541" stroke="black" stroke-width="1"/>
<path d="
M 805 548 
Q 805 548 , 821 547 
Q 837 547 , 868 547 
Q 884 547 , 903 547 
L 903 547 
Q 881 547 , 868 547 
Q 837 547 , 837 548 
Q 837 548 , 845 548 
Q 853 549 , 868 549 
Q 881 549 , 905 549 
L 905 549 
Q 886 549 , 868 549 
Q 837 549 , 821 549 
Q 805 549 , 805 548 
" fill="#545FFF" stroke="black" stroke-width="1"/>
<path d="
M 876 546 
L 876 545 
L 843 545 
L 843 544 
L 905 544 
L 905 546 
Q 883 546 , 863 546 
Q 834 546 , 819 545 
Q 805 545 , 805 545 
Q 805 544 , 819 543 
Q 834 543 , 865 543 
Q 878 543 , 898 543 
L 898 544 
Q 878 543 , 865 543 
Q 849 543 , 840 543 
Q 832 544 , 832 545 
Q 832 546 , 863 546 
Q 872 546 , 876 546 
" fill="#F5C000" stroke="black" stroke-width="1"/>
<path d="
M 981 554 
L 981 553 
L 948 553 
L 948 552 
L 1010 552 
L 1010 554 
Q 988 554 , 968 554 
Q 939 554 , 924 553 
Q 910 553 , 910 553 
Q 910 552 , 924 551 
Q 939 551 , 970 551 
Q 983 551 , 1003 551 
L 1003 552 
Q 983 551 , 970 551 
Q 954 551 , 945 551 
Q 937 552 , 937 553 
Q 937 554 , 968 554 
Q 977 554 , 981 554 
" fill="#F5C000" stroke="black" stroke-width="1"/>
<path d="
M 997 549 
Q 985 550 , 961 550 
Q 937 550 , 923 549 
Q 910 549 , 910 549 
L 910 544 
L 942 544 
L 942 548 
Q 942 549 , 946 549 
Q 951 549 , 961 549 
Q 972 549 , 976 549 
Q 981 549 , 981 548 
L 981 544 
L 1010 544 
L 1010 549 
Q 1010 549 , 997 549 
" fill="#D21010" stroke="black" stroke-width="1"/>
<path d="
M 955 534 
L 965 534 
L 951 539 
L 969 539 
L 955 534 
M 974 540 
L 942 540 
L 933 543 
L 910 543 
L 946 532 
L 974 532 
L 1010 543 
L 983 543 
L 974 540 
" fill="#339541" stroke="black" stroke-width="1"/>
<path d="
M 910 524 
Q 910 520 , 926 518 
Q 942 517 , 973 517 
Q 989 517 , 1008 518 
L 1008 520 
Q 986 519 , 973 519 
Q 942 519 , 942 524 
Q 942 527 , 950 528 
Q 958 529 , 973 529 
Q 986 529 , 1010 528 
L 1010 530 
Q 991 531 , 973 531 
Q 942 531 , 926 529 
Q 910 528 , 910 524 
" fill="#545FFF" stroke="black" stroke-width="1"/>
<path d="
M 1038 552 
L 1042 552 
L 1035 553 
L 1045 553 
L 1038 552 
M 1047 554 
L 1031 554 
L 1026 555 
L 1015 555 
L 1033 551 
L 1047 551 
L 1065 555 
L 1051 555 
L 1047 554 
" fill="white" stroke="black" stroke-width="1"/>
<path d="
M 1108 554 
Q 1102 555 , 1090 555 
Q 1078 555 , 1071 554 
Q 1065 554 , 1065 554 
L 1065 551 
L 1081 551 
L 1081 554 
Q 1081 554 , 1083 554 
Q 1086 554 , 1091 554 
Q 1096 554 , 1098 554 
Q 1100 554 , 1100 554 
L 1100 551 
L 1115 551 
L 1115 554 
Q 1115 554 , 1108 554 
" fill="#D21010" stroke="black" stroke-width="1"/>
<path d="
M 1051 549 
L 1051 548 
L 1034 548 
L 1034 547 
L 1065 547 
L 1065 550 
Q 1054 550 , 1044 550 
Q 1029 550 , 1022 549 
Q 1015 549 , 1015 548 
Q 1015 546 , 1022 545 
Q 1029 545 , 1045 545 
Q 1052 545 , 1062 545 
L 1062 546 
Q 1052 546 , 1045 546 
Q 1037 546 , 1032 546 
Q 1028 547 , 1028 548 
Q 1028 549 , 1044 549 
Q 1048 549 , 1051 549 
" fill="white" stroke="black" stroke-width="1"/>
<path d="
M 1108 550 
Q 1102 550 , 1090 550 
Q 1078 550 , 1071 550 
Q 1065 550 , 1065 549 
L 1065 545 
L 1081 545 
L 1081 549 
Q 1081 549 , 1083 549 
Q 1086 549 , 1091 549 
Q 1096 549 , 1098 549 
Q 1100 549 , 1100 549 
L 1100 545 
L 1115 545 
L 1115 549 
Q 1115 550 , 1108 550 
" fill="#D21010" stroke="black" stroke-width="1"/>
<path d="
M 1015 541 
Q 1015 539 , 1023 538 
Q 1031 538 , 1047 538 
Q 1055 538 , 1064 538 
L 1064 539 
Q 1053 539 , 1047 539 
Q 1031 539 , 1031 541 
Q 1031 542 , 1035 542 
Q 1039 543 , 1047 543 
Q 1053 543 , 1065 543 
L 1065 544 
Q 1055 544 , 1047 544 
Q 1031 544 , 1023 543 
Q 1015 543 , 1015 541 
" fill="white" stroke="black" stroke-width="1"/>
<path d="
M 1101 543 
L 1101 541 
L 1084 541 
L 1084 540 
L 1115 540 
L 1115 544 
Q 1104 544 , 1094 544 
Q 1079 544 , 1072 543 
Q 1065 543 , 1065 541 
Q 1065 539 , 1072 538 
Q 1079 538 , 1095 538 
Q 1102 538 , 1112 538 
L 1112 539 
Q 1102 539 , 1095 539 
Q 1087 539 , 1082 539 
Q 1078 540 , 1078 541 
Q 1078 543 , 1094 543 
Q 1098 543 , 1101 543 
" fill="#F5C000" stroke="black" stroke-width="1"/>
<path d="
M 1058 537 
Q 1052 538 , 1040 538 
Q 1028 538 , 1021 537 
Q 1015 537 , 1015 535 
L 1015 530 
L 1031 530 
L 1031 535 
Q 1031 536 , 1033 536 
Q 1036 537 , 1041 537 
Q 1046 537 , 1048 536 
Q 1050 536 , 1050 535 
L 1050 530 
L 1065 530 
L 1065 535 
Q 1065 537 , 1058 537 
" fill="white" stroke="black" stroke-width="1"/>
<path d="
M 1088 531 
L 1092 531 
L 1085 534 
L 1095 534 
L 1088 531 
M 1097 536 
L 1081 536 
L 1076 538 
L 1065 538 
L 1083 530 
L 1097 530 
L 1115 538 
L 1101 538 
L 1097 536 
" fill="#339541" stroke="black" stroke-width="1"/>
<path d="
M 1051 527 
L 1051 524 
L 1034 524 
L 1034 522 
L 1065 522 
L 1065 529 
Q 1054 529 , 1044 529 
Q 1029 529 , 1022 527 
Q 1015 526 , 1015 524 
Q 1015 521 , 1022 519 
Q 1029 518 , 1045 518 
Q 1052 518 , 1062 518 
L 1062 520 
Q 1052 520 , 1045 520 
Q 1037 520 , 1032 520 
Q 1028 521 , 1028 524 
Q 1028 528 , 1044 528 
Q 1048 528 , 1051 527 
" fill="white" stroke="black" stroke-width="1"/>
<path d="
M 1065 524 
Q 1065 521 , 1073 519 
Q 1081 518 , 1097 518 
Q 1105 518 , 1114 519 
L 1114 520 
Q 1103 520 , 1097 520 
Q 1081 520 , 1081 524 
Q 1081 526 , 1085 527 
Q 1089 528 , 1097 528 
Q 1103 528 , 1115 527 
L 1115 529 
Q 1105 529 , 1097 529 
Q 1081 529 , 1073 528 
Q 1065 527 , 1065 524 
" fill="#545FFF" stroke="black" stroke-width="1"/>
<path d="
M 1058 515 
Q 1052 517 , 1040 517 
Q 1028 517 , 1021 515 
Q 1015 514 , 1015 510 
L 1015 493 
L 1031 493 
L 1031 510 
Q 1031 512 , 1033 512 
Q 1036 513 , 1041 513 
Q 1046 513 , 1048 512 
Q 1050 512 , 1050 510 
L 1050 493 
L 1065 493 
L 1065 510 
Q 1065 514 , 1058 515 
" fill="white" stroke="black" stroke-width="1"/>
<path d="
M 1101 513 
L 1101 506 
L 1084 506 
L 1084 502 
L 1115 502 
L 1115 516 
Q 1104 517 , 1094 517 
Q 1079 517 , 1072 514 
Q 1065 511 , 1065 505 
Q 1065 499 , 1072 496 
Q 1079 493 , 1095 493 
Q 1102 493 , 1112 494 
L 1112 498 
Q 1102 497 , 1095 497 
Q 1087 497 , 1082 498 
Q 1078 500 , 1078 505 
Q 1078 514 , 1094 514 
Q 1098 514 , 1101 513 
" fill="#F5C000" stroke="black" stroke-width="1"/>
<path d="
M 1163 554 
Q 1157 554 , 1145 554 
Q 1133 554 , 1126 554 
Q 1120 554 , 1120 553 
L 1120 551 
L 1136 551 
L 1136 553 
Q 1136 553 , 1138 553 
Q 1141 554 , 1146 554 
Q 1151 554 , 1153 553 
Q 1155 553 , 1155 553 
L 1155 551 
L 1170 551 
L 1170 553 
Q 1170 554 , 1163 554 
" fill="white" stroke="black" stroke-width="1"/>
<path d="
M 1206 554 
L 1206 553 
L 1189 553 
L 1189 552 
L 1220 552 
L 1220 554 
Q 1209 554 , 1199 554 
Q 1184 554 , 1177 553 
Q 1170 553 , 1170 553 
Q 1170 552 , 1177 551 
Q 1184 551 , 1200 551 
Q 1207 551 , 1217 551 
L 1217 552 
Q 1207 551 , 1200 551 
Q 1192 551 , 1187 551 
Q 1183 552 , 1183 553 
Q 1183 554 , 1199 554 
Q 1203 554 , 1206 554 
" fill="#F5C000" stroke="black" stroke-width="1"/>
<path d="
M 1156 549 
L 1156 548 
L 1139 548 
L 1139 548 
L 1170 548 
L 1170 550 
Q 1159 550 , 1149 550 
Q 1134 550 , 1127 549 
Q 1120 549 , 1120 548 
Q 1120 547 , 1127 546 
Q 1134 546 , 1150 546 
Q 1157 546 , 1167 546 
L 1167 547 
Q 1157 547 , 1150 547 
Q 1142 547 , 1137 547 
Q 1133 547 , 1133 548 
Q 1133 549 , 1149 549 
Q 1153 549 , 1156 549 
" fill="white" stroke="black" stroke-width="1"/>
<path d="
M 1170 548 
Q 1170 547 , 1178 546 
Q 1186 546 , 1202 546 
Q 1210 546 , 1219 546 
L 1219 547 
Q 1208 547 , 1202 547 
Q 1186 547 , 1186 548 
Q 1186 549 , 1190 549 
Q 1194 549 , 1202 549 
Q 1208 549 , 1220 549 
L 1220 550 
Q 1210 550 , 1202 550 
Q 1186 550 , 1178 549 
Q 1170 549 , 1170 548 
" fill="#545FFF" stroke="black" stroke-width="1"/>
<path d="
M 1163 545 
Q 1157 545 , 1145 545 
Q 1133 545 , 1126 545 
Q 1120 545 , 1120 544 
L 1120 540 
L 1136 540 
L 1136 544 
Q 1136 544 , 1138 544 
Q 1141 544 , 1146 544 
Q 1151 544 , 1153 544 
Q 1155 544 , 1155 544 
L 1155 540 
L 1170 540 
L 1170 544 
Q 1170 545 , 1163 545 
" fill="white" stroke="black" stroke-width="1"/>
<path d="
M 1193 541 
L 1197 541 
L 1190 543 
L 1200 543 
L 1193 541 
M 1202 544 
L 1186 544 
L 1181 545 
L 1170 545 
L 1188 540 
L 1202 540 
L 1220 545 
L 1206 545 
L 1202 544 
" fill="#339541" stroke="black" stroke-width="1"/>
<path d="
M 1143 534 
L 1147 534 
L 1140 537 
L 1150 537 
L 1143 534 
M 1152 538 
L 1136 538 
L 1131 540 
L 1120 540 
L 1138 533 
L 1152 533 
L 1170 540 
L 1156 540 
L 1152 538 
" fill="white" stroke="black" stroke-width="1"/>
<path d="
M 1213 539 
Q 1207 540 , 1195 540 
Q 1183 540 , 1176 539 
Q 1170 539 , 1170 538 
L 1170 533 
L 1186 533 
L 1186 538 
Q 1186 538 , 1188 538 
Q 1191 539 , 1196 539 
Q 1201 539 , 1203 538 
Q 1205 538 , 1205 538 
L 1205 533 
L 1220 533 
L 1220 538 
Q 1220 539 , 1213 539 
" fill="#D21010" stroke="black" stroke-width="1"/>
<path d="
M 1120 527 
Q 1120 524 , 1128 522 
Q 1136 521 , 1152 521 
Q 1160 521 , 1169 522 
L 1169 524 
Q 1158 523 , 1152 523 
Q 1136 523 , 1136 527 
Q 1136 529 , 1140 530 
Q 1144 531 , 1152 531 
Q 1158 531 , 1170 530 
L 1170 532 
Q 1160 533 , 1152 533 
Q 1136 533 , 1128 531 
Q 1120 530 , 1120 527 
" fill="white" stroke="black" stroke-width="1"/>
<path d="
M 1206 531 
L 1206 527 
L 1189 527 
L 1189 526 
L 1220 526 
L 1220 532 
Q 1209 533 , 1199 533 
Q 1184 533 , 1177 531 
Q 1170 530 , 1170 527 
Q 1170 524 , 1177 522 
Q 1184 521 , 1200 521 
Q 1207 521 , 1217 521 
L 1217 523 
Q 1207 523 , 1200 523 
Q 1192 523 , 1187 524 
Q 1183 525 , 1183 527 
Q 1183 531 , 1199 531 
Q 1203 531 , 1206 531 
" fill="#F5C000" stroke="black" stroke-width="1"/>
<path d="
M 1156 518 
L 1156 513 
L 1139 513 
L 1139 511 
L 1170 511 
L 1170 520 
Q 1159 521 , 1149 521 
Q 1134 521 , 1127 519 
Q 1120 517 , 1120 512 
Q 1120 508 , 1127 506 
Q 1134 504 , 1150 504 
Q 1157 504 , 1167 505 
L 1167 507 
Q 1157 507 , 1150 507 
Q 1142 507 , 1137 508 
Q 1133 509 , 1133 512 
Q 1133 518 , 1149 518 
Q 1153 518 , 1156 518 
" fill="white" stroke="black" stroke-width="1"/>
<path d="
M 1213 519 
Q 1207 521 , 1195 521 
Q 1183 521 , 1176 519 
Q 1170 518 , 1170 516 
L 1170 504 
L 1186 504 
L 1186 516 
Q 1186 517 , 1188 517 
Q 1191 518 , 1196 518 
Q 1201 518 , 1203 517 
Q 1205 517 , 1205 516 
L 1205 504 
L 1220 504 
L 1220 516 
Q 1220 518 , 1213 519 
" fill="#D21010" stroke="black" stroke-width="1"/>
<path d="M 65 168 L 65 555 " stroke="black" stroke-width="1.5"/>
<path d="M 55 555 L 65 555 " stroke="black" stroke-width="4"/>
<text text-anchor="end" x="50" y="555" font-size="50" alignment-baseline="middle">0</text>
<path d="M 55 362 L 65 362 " stroke="black" stroke-width="4"/>
<text text-anchor="end" x="50" y="362" font-size="50" alignment-baseline="middle">1</text>
<path d="M 55 168 L 65 168 " stroke="black" stroke-width="4"/>
<text text-anchor="end" x="50" y="168" font-size="50" alignment-baseline="middle">2</text>
<text text-anchor="middle" x="645" y="50" font-size="50" alignment-baseline="baseline"></text>
G<path d="
M 232 605 
Q 185 597 , 185 585 
Q 185 573 , 232 565 
L 265 565 
Q 212 574 , 212 585 
Q 212 596 , 265 605 
L 232 605 
" fill="black" stroke="black" stroke-width="1"/>
<path d="
M 547 605 
Q 500 597 , 500 585 
Q 500 573 , 547 565 
L 580 565 
Q 527 574 , 527 585 
Q 527 596 , 580 605 
L 547 605 
" fill="black" stroke="black" stroke-width="1"/>
<path d="
M 635 565 
L 655 565 
L 655 578 
L 679 574 
L 685 584 
L 661 588 
L 677 599 
L 661 605 
L 645 594 
L 631 605 
L 615 599 
L 631 588 
L 605 584 
L 611 574 
L 637 578 
L 635 565 
" fill="black" stroke="black" stroke-width="1"/>
<path d="
M 1058 565 
Q 1105 573 , 1105 585 
Q 1105 597 , 1058 605 
L 1025 605 
Q 1077 596 , 1077 585 
Q 1077 574 , 1025 565 
L 1058 565 
" fill="black" stroke="black" stroke-width="1"/>
<path d="
M 1163 565 
Q 1210 573 , 1210 585 
Q 1210 597 , 1163 605 
L 1130 605 
Q 1182 596 , 1182 585 
Q 1182 574 , 1130 565 
L 1163 565 
" fill="black" stroke="black" stroke-width="1"/>
</svg>
