<svg xmlns="http://www.w3.org/2000/svg"
viewBox="0 0 1435 635">
<path d="
M 170 554 
L 170 554 
Q 155 554 , 147 554 
Q 139 554 , 129 554 
Q 108 554 , 98 554 
Q 86 554 , 86 554 
Q 86 554 , 98 554 
Q 108 554 , 129 554 
Q 139 554 , 147 554 
Q 155 554 , 170 554 
L 170 554 
Q 159 554 , 149 554 
Q 139 554 , 128 554 
Q 101 554 , 86 554 
Q 70 554 , 70 554 
Q 70 554 , 86 554 
Q 101 554 , 128 554 
Q 139 554 , 149 554 
Q 160 554 , 170 554 
" fill="#545FFF" />
<path d="
M 154 553 
L 154 553 
L 125 553 
L 125 553 
L 170 553 
L 170 553 
Q 159 553 , 148 553 
Q 139 553 , 127 553 
Q 101 553 , 85 553 
Q 70 553 , 70 553 
Q 70 553 , 85 553 
Q 101 553 , 127 553 
Q 138 553 , 147 553 
Q 157 553 , 167 553 
L 167 553 
Q 154 553 , 146 553 
Q 137 553 , 128 553 
Q 107 553 , 96 553 
Q 86 553 , 86 553 
Q 86 553 , 96 553 
Q 107 553 , 128 553 
Q 137 553 , 144 553 
Q 151 553 , 154 553 
" fill="#F5C000" />
<path d="
M 120 552 
L 102 552 
L 136 552 
L 120 552 
M 113 552 
L 127 552 
L 170 552 
L 154 552 
L 142 552 
L 98 552 
L 85 552 
L 70 552 
L 113 552 
" fill="#339541" />
<path d="
M 70 551 
L 88 551 
L 88 551 
Q 88 551 , 96 551 
Q 103 551 , 120 551 
Q 137 551 , 145 551 
Q 152 551 , 152 551 
L 152 551 
L 170 551 
L 170 551 
Q 170 551 , 157 551 
Q 145 551 , 120 551 
Q 96 551 , 83 551 
Q 70 551 , 70 551 
L 70 551 
" fill="#D21010" />
<path d="
M 259 554 
L 259 552 
L 230 552 
L 230 552 
L 275 552 
L 275 554 
Q 264 554 , 253 555 
Q 244 555 , 232 555 
Q 206 555 , 190 554 
Q 175 553 , 175 552 
Q 175 551 , 190 550 
Q 206 549 , 232 549 
Q 243 549 , 252 549 
Q 262 549 , 272 549 
L 272 550 
Q 259 550 , 251 550 
Q 242 550 , 233 550 
Q 212 550 , 201 550 
Q 191 551 , 191 552 
Q 191 553 , 201 554 
Q 212 554 , 233 554 
Q 242 554 , 249 554 
Q 256 554 , 259 554 
" fill="#F5C000" />
<path d="
M 275 541 
L 275 542 
Q 260 541 , 252 541 
Q 244 541 , 234 541 
Q 213 541 , 203 542 
Q 191 543 , 191 544 
Q 191 546 , 203 547 
Q 213 548 , 234 548 
Q 244 548 , 252 548 
Q 260 547 , 275 547 
L 275 548 
Q 264 548 , 254 549 
Q 244 549 , 233 549 
Q 206 549 , 191 548 
Q 175 546 , 175 544 
Q 175 542 , 191 541 
Q 206 540 , 233 540 
Q 244 540 , 254 540 
Q 265 540 , 275 541 
" fill="#545FFF" />
<path d="
M 175 491 
L 193 491 
L 193 519 
Q 193 527 , 201 531 
Q 208 534 , 225 534 
Q 242 534 , 250 531 
Q 257 527 , 257 519 
L 257 491 
L 275 491 
L 275 520 
Q 275 529 , 262 534 
Q 250 539 , 225 539 
Q 201 539 , 188 534 
Q 175 529 , 175 520 
L 175 491 
" fill="#D21010" />
<path d="
M 225 449 
L 207 470 
L 241 470 
L 225 449 
M 218 440 
L 232 440 
L 275 490 
L 259 490 
L 247 476 
L 203 476 
L 190 490 
L 175 490 
L 218 440 
" fill="#339541" />
<path d="
M 330 548 
L 312 552 
L 346 552 
L 330 548 
M 323 547 
L 337 547 
L 380 555 
L 364 555 
L 352 553 
L 308 553 
L 295 555 
L 280 555 
L 323 547 
" fill="#339541" />
<path d="
M 380 537 
L 380 539 
Q 365 538 , 357 537 
Q 349 537 , 339 537 
Q 318 537 , 308 538 
Q 296 539 , 296 541 
Q 296 543 , 308 544 
Q 318 545 , 339 545 
Q 349 545 , 357 545 
Q 365 545 , 380 544 
L 380 545 
Q 369 546 , 359 546 
Q 349 546 , 338 546 
Q 311 546 , 296 545 
Q 280 544 , 280 541 
Q 280 539 , 296 537 
Q 311 536 , 338 536 
Q 349 536 , 359 536 
Q 370 537 , 380 537 
" fill="#545FFF" />
<path d="
M 280 502 
L 298 502 
L 298 522 
Q 298 527 , 306 530 
Q 313 532 , 330 532 
Q 347 532 , 355 530 
Q 362 527 , 362 522 
L 362 502 
L 380 502 
L 380 522 
Q 380 529 , 367 532 
Q 355 536 , 330 536 
Q 306 536 , 293 532 
Q 280 529 , 280 522 
L 280 502 
" fill="#D21010" />
<path d="
M 364 473 
L 364 421 
L 335 421 
L 335 399 
L 380 399 
L 380 486 
Q 369 494 , 358 498 
Q 349 501 , 337 501 
Q 311 501 , 295 475 
Q 280 449 , 280 404 
Q 280 358 , 295 332 
Q 311 306 , 337 306 
Q 348 306 , 357 309 
Q 367 313 , 377 322 
L 377 347 
Q 364 336 , 356 332 
Q 347 329 , 338 329 
Q 317 329 , 306 347 
Q 296 366 , 296 404 
Q 296 442 , 306 461 
Q 317 479 , 338 479 
Q 347 479 , 354 477 
Q 361 475 , 364 473 
" fill="#F5C000" />
<path d="
M 385 548 
L 403 548 
L 403 552 
Q 403 553 , 411 553 
Q 418 553 , 435 553 
Q 452 553 , 460 553 
Q 467 553 , 467 552 
L 467 548 
L 485 548 
L 485 552 
Q 485 553 , 472 553 
Q 460 554 , 435 554 
Q 411 554 , 398 553 
Q 385 553 , 385 552 
L 385 548 
" fill="#D21010" />
<path d="
M 485 541 
L 485 542 
Q 470 541 , 462 541 
Q 454 541 , 444 541 
Q 423 541 , 413 542 
Q 401 542 , 401 543 
Q 401 545 , 413 546 
Q 423 547 , 444 547 
Q 454 547 , 462 547 
Q 470 546 , 485 546 
L 485 547 
Q 474 547 , 464 547 
Q 454 548 , 443 548 
Q 416 548 , 401 547 
Q 385 546 , 385 544 
Q 385 542 , 401 541 
Q 416 540 , 443 540 
Q 454 540 , 464 540 
Q 475 540 , 485 541 
" fill="#545FFF" />
<path d="
M 435 497 
L 417 518 
L 451 518 
L 435 497 
M 428 488 
L 442 488 
L 485 540 
L 469 540 
L 457 524 
L 413 524 
L 400 540 
L 385 540 
L 428 488 
" fill="#339541" />
<path d="
M 469 475 
L 469 452 
L 440 452 
L 440 442 
L 485 442 
L 485 481 
Q 474 485 , 463 486 
Q 454 488 , 442 488 
Q 416 488 , 400 476 
Q 385 464 , 385 444 
Q 385 423 , 400 412 
Q 416 400 , 442 400 
Q 453 400 , 462 402 
Q 472 403 , 482 407 
L 482 418 
Q 469 413 , 461 412 
Q 452 410 , 443 410 
Q 422 410 , 411 419 
Q 401 427 , 401 444 
Q 401 461 , 411 470 
Q 422 478 , 443 478 
Q 452 478 , 459 477 
Q 466 476 , 469 475 
" fill="#F5C000" />
<path d="
M 590 550 
L 590 550 
Q 575 550 , 567 550 
Q 559 550 , 549 550 
Q 528 550 , 518 550 
Q 506 551 , 506 552 
Q 506 553 , 518 553 
Q 528 554 , 549 554 
Q 559 554 , 567 554 
Q 575 554 , 590 553 
L 590 554 
Q 579 554 , 569 554 
Q 559 555 , 548 555 
Q 521 555 , 506 554 
Q 490 553 , 490 552 
Q 490 550 , 506 550 
Q 521 549 , 548 549 
Q 559 549 , 569 549 
Q 580 549 , 590 550 
" fill="#545FFF" />
<path d="
M 574 548 
L 574 546 
L 545 546 
L 545 545 
L 590 545 
L 590 548 
Q 579 548 , 568 549 
Q 559 549 , 547 549 
Q 521 549 , 505 548 
Q 490 547 , 490 545 
Q 490 544 , 505 543 
Q 521 542 , 547 542 
Q 558 542 , 567 542 
Q 577 542 , 587 543 
L 587 543 
Q 574 543 , 566 543 
Q 557 543 , 548 543 
Q 527 543 , 516 543 
Q 506 544 , 506 545 
Q 506 547 , 516 547 
Q 527 548 , 548 548 
Q 557 548 , 564 548 
Q 571 548 , 574 548 
" fill="#F5C000" />
<path d="
M 540 496 
L 522 519 
L 556 519 
L 540 496 
M 533 486 
L 547 486 
L 590 542 
L 574 542 
L 562 525 
L 518 525 
L 505 542 
L 490 542 
L 533 486 
" fill="#339541" />
<path d="
M 490 377 
L 508 377 
L 508 441 
Q 508 459 , 516 466 
Q 523 473 , 540 473 
Q 557 473 , 565 466 
Q 572 459 , 572 441 
L 572 377 
L 590 377 
L 590 443 
Q 590 464 , 577 475 
Q 565 486 , 540 486 
Q 516 486 , 503 475 
Q 490 464 , 490 443 
L 490 377 
" fill="#D21010" />
<path d="
M 695 550 
L 695 550 
Q 680 550 , 672 550 
Q 664 550 , 654 550 
Q 633 550 , 623 550 
Q 611 551 , 611 552 
Q 611 553 , 623 553 
Q 633 554 , 654 554 
Q 664 554 , 672 554 
Q 680 553 , 695 553 
L 695 554 
Q 684 554 , 674 554 
Q 664 554 , 653 554 
Q 626 554 , 611 554 
Q 595 553 , 595 552 
Q 595 550 , 611 550 
Q 626 549 , 653 549 
Q 664 549 , 674 549 
Q 685 549 , 695 550 
" fill="#545FFF" />
<path d="
M 645 532 
L 627 540 
L 661 540 
L 645 532 
M 638 528 
L 652 528 
L 695 548 
L 679 548 
L 667 542 
L 623 542 
L 610 548 
L 595 548 
L 638 528 
" fill="#339541" />
<path d="
M 595 500 
L 613 500 
L 613 516 
Q 613 521 , 621 523 
Q 628 525 , 645 525 
Q 662 525 , 670 523 
Q 677 521 , 677 516 
L 677 500 
L 695 500 
L 695 517 
Q 695 522 , 682 525 
Q 670 528 , 645 528 
Q 621 528 , 608 525 
Q 595 522 , 595 517 
L 595 500 
" fill="#D21010" />
<path d="
M 679 481 
L 679 446 
L 650 446 
L 650 432 
L 695 432 
L 695 490 
Q 684 495 , 673 498 
Q 664 500 , 652 500 
Q 626 500 , 610 482 
Q 595 465 , 595 435 
Q 595 405 , 610 387 
Q 626 370 , 652 370 
Q 663 370 , 672 372 
Q 682 375 , 692 381 
L 692 397 
Q 679 390 , 671 388 
Q 662 385 , 653 385 
Q 632 385 , 621 398 
Q 611 410 , 611 435 
Q 611 461 , 621 473 
Q 632 485 , 653 485 
Q 662 485 , 669 484 
Q 676 483 , 679 481 
" fill="#F5C000" />
<path d="
M 800 554 
L 800 554 
Q 785 554 , 777 554 
Q 769 554 , 759 554 
Q 738 554 , 728 554 
Q 716 554 , 716 554 
Q 716 554 , 728 554 
Q 738 554 , 759 554 
Q 769 554 , 777 554 
Q 785 554 , 800 554 
L 800 554 
Q 789 554 , 779 554 
Q 769 554 , 758 554 
Q 731 554 , 716 554 
Q 700 554 , 700 554 
Q 700 554 , 716 554 
Q 731 554 , 758 554 
Q 769 554 , 779 554 
Q 790 554 , 800 554 
" fill="#545FFF" />
<path d="
M 784 553 
L 784 553 
L 755 553 
L 755 553 
L 800 553 
L 800 553 
Q 789 553 , 778 553 
Q 769 553 , 757 553 
Q 731 553 , 715 553 
Q 700 553 , 700 553 
Q 700 553 , 715 553 
Q 731 553 , 757 553 
Q 768 553 , 777 553 
Q 787 553 , 797 553 
L 797 553 
Q 784 553 , 776 553 
Q 767 553 , 758 553 
Q 737 553 , 726 553 
Q 716 553 , 716 553 
Q 716 553 , 726 553 
Q 737 553 , 758 553 
Q 767 553 , 774 553 
Q 781 553 , 784 553 
" fill="#F5C000" />
<path d="
M 750 552 
L 732 552 
L 766 552 
L 750 552 
M 743 552 
L 757 552 
L 800 552 
L 784 552 
L 772 552 
L 728 552 
L 715 552 
L 700 552 
L 743 552 
" fill="#339541" />
<path d="
M 700 551 
L 718 551 
L 718 551 
Q 718 551 , 726 551 
Q 733 551 , 750 551 
Q 767 551 , 775 551 
Q 782 551 , 782 551 
L 782 551 
L 800 551 
L 800 551 
Q 800 551 , 787 551 
Q 775 551 , 750 551 
Q 726 551 , 713 551 
Q 700 551 , 700 551 
L 700 551 
" fill="#D21010" />
<path d="
M 805 552 
L 823 552 
L 823 554 
Q 823 554 , 831 554 
Q 838 555 , 855 555 
Q 872 555 , 880 554 
Q 887 554 , 887 554 
L 887 552 
L 905 552 
L 905 554 
Q 905 554 , 892 555 
Q 880 555 , 855 555 
Q 831 555 , 818 555 
Q 805 554 , 805 554 
L 805 552 
" fill="#D21010" />
<path d="
M 889 550 
L 889 546 
L 860 546 
L 860 544 
L 905 544 
L 905 551 
Q 894 551 , 883 552 
Q 874 552 , 862 552 
Q 836 552 , 820 550 
Q 805 548 , 805 544 
Q 805 541 , 820 539 
Q 836 537 , 862 537 
Q 873 537 , 882 537 
Q 892 538 , 902 538 
L 902 540 
Q 889 539 , 881 539 
Q 872 539 , 863 539 
Q 842 539 , 831 540 
Q 821 542 , 821 544 
Q 821 547 , 831 549 
Q 842 550 , 863 550 
Q 872 550 , 879 550 
Q 886 550 , 889 550 
" fill="#F5C000" />
<path d="
M 905 516 
L 905 519 
Q 890 517 , 882 516 
Q 874 516 , 864 516 
Q 843 516 , 833 518 
Q 821 520 , 821 524 
Q 821 529 , 833 532 
Q 843 534 , 864 534 
Q 874 534 , 882 534 
Q 890 533 , 905 531 
L 905 534 
Q 894 536 , 884 536 
Q 874 537 , 863 537 
Q 836 537 , 821 534 
Q 805 530 , 805 525 
Q 805 519 , 821 516 
Q 836 513 , 863 513 
Q 874 513 , 884 514 
Q 895 514 , 905 516 
" fill="#545FFF" />
<path d="
M 855 488 
L 837 500 
L 871 500 
L 855 488 
M 848 482 
L 862 482 
L 905 513 
L 889 513 
L 877 504 
L 833 504 
L 820 513 
L 805 513 
L 848 482 
" fill="#339541" />
<path d="
M 1010 550 
L 1010 550 
Q 995 550 , 987 550 
Q 979 550 , 969 550 
Q 948 550 , 938 550 
Q 926 551 , 926 552 
Q 926 553 , 938 553 
Q 948 554 , 969 554 
Q 979 554 , 987 554 
Q 995 553 , 1010 553 
L 1010 554 
Q 999 554 , 989 554 
Q 979 554 , 968 554 
Q 941 554 , 926 554 
Q 910 553 , 910 552 
Q 910 550 , 926 550 
Q 941 549 , 968 549 
Q 979 549 , 989 549 
Q 1000 549 , 1010 550 
" fill="#545FFF" />
<path d="
M 994 547 
L 994 543 
L 965 543 
L 965 542 
L 1010 542 
L 1010 547 
Q 999 548 , 988 548 
Q 979 548 , 967 548 
Q 941 548 , 925 547 
Q 910 545 , 910 542 
Q 910 539 , 925 538 
Q 941 536 , 967 536 
Q 978 536 , 987 536 
Q 997 536 , 1007 537 
L 1007 539 
Q 994 538 , 986 538 
Q 977 537 , 968 537 
Q 947 537 , 936 539 
Q 926 540 , 926 542 
Q 926 545 , 936 546 
Q 947 547 , 968 547 
Q 977 547 , 984 547 
Q 991 547 , 994 547 
" fill="#F5C000" />
<path d="
M 960 518 
L 942 527 
L 976 527 
L 960 518 
M 953 514 
L 967 514 
L 1010 535 
L 994 535 
L 982 529 
L 938 529 
L 925 535 
L 910 535 
L 953 514 
" fill="#339541" />
<path d="
M 910 473 
L 928 473 
L 928 497 
Q 928 503 , 936 506 
Q 943 509 , 960 509 
Q 977 509 , 985 506 
Q 992 503 , 992 497 
L 992 473 
L 1010 473 
L 1010 497 
Q 1010 505 , 997 509 
Q 985 513 , 960 513 
Q 936 513 , 923 509 
Q 910 505 , 910 497 
L 910 473 
" fill="#D21010" />
<path d="
M 1115 544 
L 1115 546 
Q 1100 545 , 1092 545 
Q 1084 544 , 1074 544 
Q 1053 544 , 1043 545 
Q 1031 547 , 1031 549 
Q 1031 551 , 1043 553 
Q 1053 554 , 1074 554 
Q 1084 554 , 1092 553 
Q 1100 553 , 1115 552 
L 1115 554 
Q 1104 554 , 1094 555 
Q 1084 555 , 1073 555 
Q 1046 555 , 1031 553 
Q 1015 552 , 1015 549 
Q 1015 546 , 1031 545 
Q 1046 543 , 1073 543 
Q 1084 543 , 1094 543 
Q 1105 544 , 1115 544 
" fill="#545FFF" />
<path d="
M 1065 532 
L 1047 537 
L 1081 537 
L 1065 532 
M 1058 530 
L 1072 530 
L 1115 542 
L 1099 542 
L 1087 539 
L 1043 539 
L 1030 542 
L 1015 542 
L 1058 530 
" fill="#339541" />
<path d="
M 1015 515 
L 1033 515 
L 1033 523 
Q 1033 526 , 1041 527 
Q 1048 528 , 1065 528 
Q 1082 528 , 1090 527 
Q 1097 526 , 1097 523 
L 1097 515 
L 1115 515 
L 1115 524 
Q 1115 526 , 1102 528 
Q 1090 529 , 1065 529 
Q 1041 529 , 1028 528 
Q 1015 526 , 1015 524 
L 1015 515 
" fill="#D21010" />
<path d="
M 1099 474 
L 1099 399 
L 1070 399 
L 1070 368 
L 1115 368 
L 1115 493 
Q 1104 505 , 1093 510 
Q 1084 514 , 1072 515 
Q 1046 515 , 1030 477 
Q 1015 440 , 1015 374 
Q 1015 309 , 1030 272 
Q 1046 234 , 1072 234 
Q 1083 234 , 1092 239 
Q 1102 244 , 1112 257 
L 1112 293 
Q 1099 277 , 1091 272 
Q 1082 267 , 1073 267 
Q 1052 267 , 1041 294 
Q 1031 320 , 1031 374 
Q 1031 430 , 1041 457 
Q 1052 483 , 1073 483 
Q 1082 483 , 1089 481 
Q 1096 478 , 1099 474 
" fill="#F5C000" />
<path d="
M 1220 552 
L 1220 553 
Q 1205 552 , 1197 552 
Q 1189 552 , 1179 552 
Q 1158 552 , 1148 552 
Q 1136 553 , 1136 553 
Q 1136 554 , 1148 554 
Q 1158 554 , 1179 554 
Q 1189 554 , 1197 554 
Q 1205 554 , 1220 554 
L 1220 554 
Q 1209 554 , 1199 554 
Q 1189 554 , 1178 554 
Q 1151 554 , 1136 554 
Q 1120 554 , 1120 553 
Q 1120 553 , 1136 552 
Q 1151 552 , 1178 552 
Q 1189 552 , 1199 552 
Q 1210 552 , 1220 552 
" fill="#545FFF" />
<path d="
M 1204 552 
L 1204 551 
L 1175 551 
L 1175 550 
L 1220 550 
L 1220 552 
Q 1209 552 , 1198 552 
Q 1189 552 , 1177 552 
Q 1151 552 , 1135 552 
Q 1120 551 , 1120 550 
Q 1120 550 , 1135 549 
Q 1151 549 , 1177 549 
Q 1188 549 , 1197 549 
Q 1207 549 , 1217 549 
L 1217 550 
Q 1204 549 , 1196 549 
Q 1187 549 , 1178 549 
Q 1157 549 , 1146 550 
Q 1136 550 , 1136 550 
Q 1136 551 , 1146 551 
Q 1157 552 , 1178 552 
Q 1187 552 , 1194 552 
Q 1201 552 , 1204 552 
" fill="#F5C000" />
<path d="
M 1120 544 
L 1138 544 
L 1138 547 
Q 1138 547 , 1146 548 
Q 1153 548 , 1170 548 
Q 1187 548 , 1195 548 
Q 1202 547 , 1202 547 
L 1202 544 
L 1220 544 
L 1220 547 
Q 1220 547 , 1207 548 
Q 1195 548 , 1170 548 
Q 1146 548 , 1133 548 
Q 1120 547 , 1120 547 
L 1120 544 
" fill="#D21010" />
<path d="
M 1170 540 
L 1152 542 
L 1186 542 
L 1170 540 
M 1163 539 
L 1177 539 
L 1220 544 
L 1204 544 
L 1192 542 
L 1148 542 
L 1135 544 
L 1120 544 
L 1163 539 
" fill="#339541" />
<path d="
M 1225 549 
L 1243 549 
L 1243 552 
Q 1243 553 , 1251 553 
Q 1258 554 , 1275 554 
Q 1292 554 , 1300 553 
Q 1307 553 , 1307 552 
L 1307 549 
L 1325 549 
L 1325 552 
Q 1325 553 , 1312 554 
Q 1300 554 , 1275 554 
Q 1251 554 , 1238 554 
Q 1225 553 , 1225 552 
L 1225 549 
" fill="#D21010" />
<path d="
M 1309 548 
L 1309 546 
L 1280 546 
L 1280 545 
L 1325 545 
L 1325 548 
Q 1314 549 , 1303 549 
Q 1294 549 , 1282 549 
Q 1256 549 , 1240 548 
Q 1225 547 , 1225 545 
Q 1225 543 , 1240 542 
Q 1256 541 , 1282 541 
Q 1293 541 , 1302 541 
Q 1312 541 , 1322 542 
L 1322 543 
Q 1309 542 , 1301 542 
Q 1292 542 , 1283 542 
Q 1262 542 , 1251 543 
Q 1241 543 , 1241 545 
Q 1241 546 , 1251 547 
Q 1262 548 , 1283 548 
Q 1292 548 , 1299 548 
Q 1306 548 , 1309 548 
" fill="#F5C000" />
<path d="
M 1325 530 
L 1325 532 
Q 1310 531 , 1302 531 
Q 1294 530 , 1284 530 
Q 1263 530 , 1253 531 
Q 1241 532 , 1241 534 
Q 1241 537 , 1253 538 
Q 1263 539 , 1284 539 
Q 1294 539 , 1302 539 
Q 1310 539 , 1325 537 
L 1325 539 
Q 1314 540 , 1304 540 
Q 1294 540 , 1283 540 
Q 1256 540 , 1241 539 
Q 1225 537 , 1225 535 
Q 1225 532 , 1241 531 
Q 1256 529 , 1283 529 
Q 1294 529 , 1304 529 
Q 1315 530 , 1325 530 
" fill="#545FFF" />
<path d="
M 1275 513 
L 1257 521 
L 1291 521 
L 1275 513 
M 1268 509 
L 1282 509 
L 1325 529 
L 1309 529 
L 1297 523 
L 1253 523 
L 1240 529 
L 1225 529 
L 1268 509 
" fill="#339541" />
<path d="
M 1430 554 
L 1430 554 
Q 1415 554 , 1407 554 
Q 1399 554 , 1389 554 
Q 1368 554 , 1358 554 
Q 1346 554 , 1346 554 
Q 1346 554 , 1358 554 
Q 1368 554 , 1389 554 
Q 1399 554 , 1407 554 
Q 1415 554 , 1430 554 
L 1430 554 
Q 1419 554 , 1409 554 
Q 1399 554 , 1388 554 
Q 1361 554 , 1346 554 
Q 1330 554 , 1330 554 
Q 1330 554 , 1346 554 
Q 1361 554 , 1388 554 
Q 1399 554 , 1409 554 
Q 1420 554 , 1430 554 
" fill="#545FFF" />
<path d="
M 1414 553 
L 1414 553 
L 1385 553 
L 1385 553 
L 1430 553 
L 1430 553 
Q 1419 553 , 1408 553 
Q 1399 553 , 1387 553 
Q 1361 553 , 1345 553 
Q 1330 553 , 1330 553 
Q 1330 553 , 1345 553 
Q 1361 553 , 1387 553 
Q 1398 553 , 1407 553 
Q 1417 553 , 1427 553 
L 1427 553 
Q 1414 553 , 1406 553 
Q 1397 553 , 1388 553 
Q 1367 553 , 1356 553 
Q 1346 553 , 1346 553 
Q 1346 553 , 1356 553 
Q 1367 553 , 1388 553 
Q 1397 553 , 1404 553 
Q 1411 553 , 1414 553 
" fill="#F5C000" />
<path d="
M 1380 552 
L 1362 552 
L 1396 552 
L 1380 552 
M 1373 552 
L 1387 552 
L 1430 552 
L 1414 552 
L 1402 552 
L 1358 552 
L 1345 552 
L 1330 552 
L 1373 552 
" fill="#339541" />
<path d="
M 1330 551 
L 1348 551 
L 1348 551 
Q 1348 551 , 1356 551 
Q 1363 551 , 1380 551 
Q 1397 551 , 1405 551 
Q 1412 551 , 1412 551 
L 1412 551 
L 1430 551 
L 1430 551 
Q 1430 551 , 1417 551 
Q 1405 551 , 1380 551 
Q 1356 551 , 1343 551 
Q 1330 551 , 1330 551 
L 1330 551 
" fill="#D21010" />
<path d="M 65 55 L 65 555 " stroke="black" stroke-width="1.5"/>
<path d="M 55 555 L 65 555 " stroke="black" stroke-width="4"/>
<text text-anchor="end" x="50" y="555" font-size="50" alignment-baseline="middle">0</text>
<path d="M 55 305 L 65 305 " stroke="black" stroke-width="4"/>
<text text-anchor="end" x="50" y="305" font-size="50" alignment-baseline="middle">1</text>
<path d="M 55 55 L 65 55 " stroke="black" stroke-width="4"/>
<text text-anchor="end" x="50" y="55" font-size="50" alignment-baseline="middle">2</text>
<text text-anchor="middle" x="750" y="50" font-size="50" alignment-baseline="baseline"></text>
G<path d="
M 160 582 
L 126 595 
L 160 608 
L 157 611 
L 123 598 
L 123 623 
L 117 623 
L 117 599 
L 83 611 
L 80 608 
L 114 595 
L 80 582 
L 83 579 
L 117 591 
L 117 567 
L 123 567 
L 123 591 
L 157 579 
L 160 582 
" fill="black" />
<path d="
" fill="black" />
<path d="
M 211 567 
L 238 567 
L 238 623 
L 211 623 
L 211 567 
" fill="black" />
<path d="
" fill="black" />
<path d="
" fill="black" />
<path d="
M 316 567 
L 343 567 
L 343 623 
L 316 623 
L 316 567 
" fill="black" />
<path d="
" fill="black" />
<path d="
" fill="black" />
<path d="
M 421 567 
L 448 567 
L 448 623 
L 421 623 
L 421 567 
" fill="black" />
<path d="
" fill="black" />
<path d="
" fill="black" />
<path d="
M 526 567 
L 553 567 
L 553 623 
L 526 623 
L 526 567 
" fill="black" />
<path d="
" fill="black" />
<path d="
" fill="black" />
<path d="
M 617 567 
L 633 567 
L 633 623 
L 617 623 
L 617 567 
" fill="black" />
<path d="
" fill="black" />
<path d="
M 669 593 
Q 671 594 , 672 597 
Q 673 601 , 673 606 
Q 673 614 , 671 618 
Q 669 623 , 664 623 
Q 662 623 , 661 622 
Q 659 621 , 657 619 
L 657 613 
Q 659 617 , 660 618 
Q 662 619 , 664 619 
Q 667 619 , 669 616 
Q 671 613 , 671 606 
Q 671 601 , 669 598 
Q 668 595 , 664 595 
L 661 595 
L 661 591 
L 665 591 
Q 667 591 , 669 589 
Q 670 586 , 670 582 
Q 670 577 , 669 574 
Q 667 571 , 664 571 
Q 663 571 , 661 572 
Q 660 573 , 658 575 
L 658 571 
Q 660 569 , 662 568 
Q 663 567 , 665 567 
Q 669 567 , 671 571 
Q 672 575 , 672 581 
Q 672 586 , 671 589 
Q 671 592 , 669 593 
" fill="black" />
<path d="
M 678 567 
L 691 567 
L 691 571 
L 680 571 
L 680 588 
Q 681 588 , 682 587 
Q 682 587 , 684 587 
Q 688 587 , 691 592 
Q 693 596 , 693 604 
Q 693 613 , 691 618 
Q 688 623 , 683 623 
Q 682 623 , 680 623 
Q 679 622 , 677 621 
L 677 616 
Q 679 618 , 680 618 
Q 682 619 , 683 619 
Q 687 619 , 689 615 
Q 691 611 , 691 604 
Q 691 598 , 689 594 
Q 687 591 , 683 591 
Q 683 591 , 681 591 
Q 680 592 , 678 594 
L 678 567 
" fill="black" />
<path d="
M 790 582 
L 756 595 
L 790 608 
L 787 611 
L 753 598 
L 753 623 
L 747 623 
L 747 599 
L 713 611 
L 710 608 
L 744 595 
L 710 582 
L 713 579 
L 747 591 
L 747 567 
L 753 567 
L 753 591 
L 787 579 
L 790 582 
" fill="black" />
<path d="
" fill="black" />
<path d="
M 841 567 
L 868 567 
L 868 623 
L 841 623 
L 841 567 
" fill="black" />
<path d="
" fill="black" />
<path d="
" fill="black" />
<path d="
M 946 567 
L 973 567 
L 973 623 
L 946 623 
L 946 567 
" fill="black" />
<path d="
" fill="black" />
<path d="
" fill="black" />
<path d="
M 1051 567 
L 1078 567 
L 1078 623 
L 1051 623 
L 1051 567 
" fill="black" />
<path d="
" fill="black" />
<path d="
" fill="black" />
<path d="
M 1156 567 
L 1183 567 
L 1183 623 
L 1156 623 
L 1156 567 
" fill="black" />
<path d="
" fill="black" />
<path d="
" fill="black" />
<path d="
M 1261 567 
L 1288 567 
L 1288 623 
L 1261 623 
L 1261 567 
" fill="black" />
<path d="
" fill="black" />
<path d="
M 1420 582 
L 1386 595 
L 1420 608 
L 1417 611 
L 1383 598 
L 1383 623 
L 1377 623 
L 1377 599 
L 1343 611 
L 1340 608 
L 1374 595 
L 1340 582 
L 1343 579 
L 1377 591 
L 1377 567 
L 1383 567 
L 1383 591 
L 1417 579 
L 1420 582 
" fill="black" />
</svg>
