<svg xmlns="http://www.w3.org/2000/svg"
viewBox="0 0 1435 635">
<path d="
M 120 553 
L 102 554 
L 136 554 
L 120 553 
M 113 552 
L 127 552 
L 170 555 
L 154 555 
L 142 554 
L 98 554 
L 85 555 
L 70 555 
L 113 552 
" fill="#339541" />
<path d="
M 70 548 
L 88 548 
L 88 550 
Q 88 550 , 96 551 
Q 103 551 , 120 551 
Q 137 551 , 145 551 
Q 152 550 , 152 550 
L 152 548 
L 170 548 
L 170 550 
Q 170 550 , 157 551 
Q 145 551 , 120 551 
Q 96 551 , 83 551 
Q 70 550 , 70 550 
L 70 548 
" fill="#D21010" />
<path d="
M 170 543 
L 170 544 
Q 155 543 , 147 543 
Q 139 543 , 129 543 
Q 108 543 , 98 543 
Q 86 544 , 86 545 
Q 86 546 , 98 547 
Q 108 547 , 129 547 
Q 139 547 , 147 547 
Q 155 547 , 170 546 
L 170 547 
Q 159 548 , 149 548 
Q 139 548 , 128 548 
Q 101 548 , 86 547 
Q 70 546 , 70 545 
Q 70 544 , 86 543 
Q 101 542 , 128 542 
Q 139 542 , 149 542 
Q 160 542 , 170 543 
" fill="#545FFF" />
<path d="
M 154 540 
L 154 539 
L 125 539 
L 125 538 
L 170 538 
L 170 541 
Q 159 541 , 148 541 
Q 139 541 , 127 541 
Q 101 541 , 85 541 
Q 70 540 , 70 538 
Q 70 537 , 85 536 
Q 101 535 , 127 535 
Q 138 535 , 147 535 
Q 157 535 , 167 536 
L 167 536 
Q 154 536 , 146 536 
Q 137 536 , 128 536 
Q 107 536 , 96 536 
Q 86 537 , 86 538 
Q 86 539 , 96 540 
Q 107 541 , 128 541 
Q 137 541 , 144 541 
Q 151 541 , 154 540 
" fill="#F5C000" />
<path d="
M 175 549 
L 193 549 
L 193 552 
Q 193 553 , 201 553 
Q 208 554 , 225 554 
Q 242 554 , 250 553 
Q 257 553 , 257 552 
L 257 549 
L 275 549 
L 275 552 
Q 275 553 , 262 554 
Q 250 554 , 225 554 
Q 201 554 , 188 554 
Q 175 553 , 175 552 
L 175 549 
" fill="#D21010" />
<path d="
M 225 543 
L 207 546 
L 241 546 
L 225 543 
M 218 542 
L 232 542 
L 275 549 
L 259 549 
L 247 547 
L 203 547 
L 190 549 
L 175 549 
L 218 542 
" fill="#339541" />
<path d="
M 275 512 
L 275 517 
Q 260 513 , 252 513 
Q 244 512 , 234 512 
Q 213 512 , 203 515 
Q 191 518 , 191 524 
Q 191 531 , 203 534 
Q 213 538 , 234 538 
Q 244 538 , 252 537 
Q 260 536 , 275 533 
L 275 538 
Q 264 540 , 254 541 
Q 244 541 , 233 541 
Q 206 541 , 191 537 
Q 175 532 , 175 525 
Q 175 517 , 191 513 
Q 206 508 , 233 508 
Q 244 508 , 254 509 
Q 265 510 , 275 512 
" fill="#545FFF" />
<path d="
M 259 497 
L 259 476 
L 230 476 
L 230 468 
L 275 468 
L 275 502 
Q 264 505 , 253 506 
Q 244 507 , 232 507 
Q 206 507 , 190 497 
Q 175 487 , 175 470 
Q 175 452 , 190 442 
Q 206 432 , 232 432 
Q 243 432 , 252 433 
Q 262 435 , 272 438 
L 272 448 
Q 259 443 , 251 442 
Q 242 441 , 233 441 
Q 212 441 , 201 448 
Q 191 455 , 191 470 
Q 191 484 , 201 492 
Q 212 499 , 233 499 
Q 242 499 , 249 498 
Q 256 497 , 259 497 
" fill="#F5C000" />
<path d="
M 322 555 
L 322 554 
L 308 554 
L 308 554 
L 330 554 
L 330 555 
Q 325 555 , 319 555 
Q 314 555 , 308 555 
Q 295 555 , 288 555 
Q 280 555 , 280 554 
Q 280 554 , 288 554 
Q 295 554 , 308 554 
Q 314 554 , 319 554 
Q 324 554 , 329 554 
L 329 554 
Q 322 554 , 318 554 
Q 314 554 , 309 554 
Q 299 554 , 293 554 
Q 288 554 , 288 554 
Q 288 555 , 293 555 
Q 299 555 , 309 555 
Q 314 555 , 317 555 
Q 321 555 , 322 555 
" fill="#F5C000" />
<path d="
M 330 554 
L 339 554 
L 339 554 
Q 339 555 , 343 555 
Q 346 555 , 355 555 
Q 364 555 , 367 555 
Q 371 555 , 371 554 
L 371 554 
L 380 554 
L 380 555 
Q 380 555 , 374 555 
Q 367 555 , 355 555 
Q 343 555 , 336 555 
Q 330 555 , 330 555 
L 330 554 
" fill="lightgray" />
<path d="
M 280 552 
L 289 552 
L 289 553 
Q 289 553 , 293 554 
Q 296 554 , 305 554 
Q 314 554 , 317 554 
Q 321 553 , 321 553 
L 321 552 
L 330 552 
L 330 553 
Q 330 554 , 324 554 
Q 317 554 , 305 554 
Q 293 554 , 286 554 
Q 280 554 , 280 553 
L 280 552 
" fill="#D21010" />
<path d="
M 372 554 
L 372 553 
L 358 553 
L 358 553 
L 380 553 
L 380 554 
Q 375 554 , 369 554 
Q 364 554 , 358 554 
Q 345 554 , 338 554 
Q 330 553 , 330 553 
Q 330 553 , 338 552 
Q 345 552 , 358 552 
Q 364 552 , 369 552 
Q 374 552 , 379 552 
L 379 552 
Q 372 552 , 368 552 
Q 364 552 , 359 552 
Q 349 552 , 343 552 
Q 338 553 , 338 553 
Q 338 553 , 343 554 
Q 349 554 , 359 554 
Q 364 554 , 367 554 
Q 371 554 , 372 554 
" fill="lightgray" />
<path d="
M 305 546 
L 296 549 
L 313 549 
L 305 546 
M 301 545 
L 309 545 
L 330 551 
L 322 551 
L 316 550 
L 294 550 
L 287 551 
L 280 551 
L 301 545 
" fill="#339541" />
<path d="
M 330 545 
L 339 545 
L 339 549 
Q 339 550 , 343 550 
Q 346 551 , 355 551 
Q 364 551 , 367 550 
Q 371 550 , 371 549 
L 371 545 
L 380 545 
L 380 549 
Q 380 550 , 374 551 
Q 367 551 , 355 551 
Q 343 551 , 336 551 
Q 330 550 , 330 549 
L 330 545 
" fill="lightgray" />
<path d="
M 280 538 
L 289 538 
L 289 542 
Q 289 543 , 293 544 
Q 296 544 , 305 544 
Q 314 544 , 317 544 
Q 321 543 , 321 542 
L 321 538 
L 330 538 
L 330 542 
Q 330 543 , 324 544 
Q 317 545 , 305 545 
Q 293 545 , 286 544 
Q 280 543 , 280 542 
L 280 538 
" fill="#D21010" />
<path d="
M 355 539 
L 346 542 
L 363 542 
L 355 539 
M 351 538 
L 359 538 
L 380 545 
L 372 545 
L 366 543 
L 344 543 
L 337 545 
L 330 545 
L 351 538 
" fill="lightgray" />
<path d="
M 322 523 
L 322 497 
L 308 497 
L 308 486 
L 330 486 
L 330 530 
Q 325 534 , 319 535 
Q 314 537 , 308 537 
Q 295 537 , 288 524 
Q 280 511 , 280 489 
Q 280 466 , 288 453 
Q 295 440 , 308 440 
Q 314 440 , 319 442 
Q 324 443 , 329 448 
L 329 460 
Q 322 455 , 318 453 
Q 314 452 , 309 452 
Q 299 452 , 293 461 
Q 288 470 , 288 489 
Q 288 508 , 293 517 
Q 299 526 , 309 526 
Q 314 526 , 317 525 
Q 321 524 , 322 523 
" fill="#F5C000" />
<path d="
M 380 450 
L 380 465 
Q 373 456 , 369 453 
Q 364 451 , 359 451 
Q 349 451 , 344 460 
Q 338 470 , 338 488 
Q 338 507 , 344 517 
Q 349 527 , 359 527 
Q 364 527 , 369 524 
Q 373 522 , 380 512 
L 380 527 
Q 375 533 , 369 535 
Q 365 537 , 359 537 
Q 345 537 , 338 524 
Q 330 511 , 330 489 
Q 330 466 , 338 453 
Q 345 440 , 359 440 
Q 365 440 , 370 442 
Q 375 445 , 380 450 
" fill="lightgray" />
<path d="
M 330 337 
L 330 355 
Q 323 343 , 319 341 
Q 314 338 , 309 338 
Q 299 338 , 294 349 
Q 288 360 , 288 382 
Q 288 404 , 294 416 
Q 299 427 , 309 427 
Q 314 427 , 319 424 
Q 323 421 , 330 410 
L 330 428 
Q 325 434 , 319 437 
Q 315 439 , 309 439 
Q 295 439 , 288 424 
Q 280 409 , 280 382 
Q 280 356 , 288 341 
Q 295 325 , 309 325 
Q 315 325 , 320 328 
Q 325 331 , 330 337 
" fill="#545FFF" />
<path d="
M 372 423 
L 372 392 
L 358 392 
L 358 380 
L 380 380 
L 380 431 
Q 375 436 , 369 437 
Q 364 439 , 358 439 
Q 345 439 , 338 424 
Q 330 409 , 330 382 
Q 330 356 , 338 340 
Q 345 325 , 358 325 
Q 364 325 , 369 327 
Q 374 329 , 379 334 
L 379 349 
Q 372 342 , 368 340 
Q 364 339 , 359 339 
Q 349 339 , 343 349 
Q 338 360 , 338 382 
Q 338 405 , 343 416 
Q 349 427 , 359 427 
Q 364 427 , 367 426 
Q 371 424 , 372 423 
" fill="lightgray" />
<path d="
M 435 550 
L 417 552 
L 451 552 
L 435 550 
M 428 549 
L 442 549 
L 485 554 
L 469 554 
L 457 553 
L 413 553 
L 400 554 
L 385 554 
L 428 549 
" fill="#339541" />
<path d="
M 469 547 
L 469 545 
L 440 545 
L 440 544 
L 485 544 
L 485 548 
Q 474 548 , 463 548 
Q 454 549 , 442 549 
Q 416 549 , 400 547 
Q 385 546 , 385 544 
Q 385 542 , 400 541 
Q 416 540 , 442 540 
Q 453 540 , 462 540 
Q 472 540 , 482 541 
L 482 542 
Q 469 541 , 461 541 
Q 452 541 , 443 541 
Q 422 541 , 411 542 
Q 401 543 , 401 544 
Q 401 546 , 411 547 
Q 422 548 , 443 548 
Q 452 548 , 459 548 
Q 466 547 , 469 547 
" fill="#F5C000" />
<path d="
M 385 525 
L 403 525 
L 403 533 
Q 403 536 , 411 537 
Q 418 538 , 435 538 
Q 452 538 , 460 537 
Q 467 536 , 467 533 
L 467 525 
L 485 525 
L 485 534 
Q 485 536 , 472 538 
Q 460 539 , 435 539 
Q 411 539 , 398 538 
Q 385 536 , 385 534 
L 385 525 
" fill="#D21010" />
<path d="
M 485 495 
L 485 500 
Q 470 497 , 462 496 
Q 454 496 , 444 496 
Q 423 496 , 413 499 
Q 401 502 , 401 508 
Q 401 515 , 413 518 
Q 423 521 , 444 521 
Q 454 521 , 462 520 
Q 470 519 , 485 516 
L 485 521 
Q 474 523 , 464 524 
Q 454 525 , 443 525 
Q 416 525 , 401 520 
Q 385 516 , 385 508 
Q 385 501 , 401 496 
Q 416 492 , 443 492 
Q 454 492 , 464 493 
Q 475 494 , 485 495 
" fill="#545FFF" />
<path d="
M 540 552 
L 522 553 
L 556 553 
L 540 552 
M 533 551 
L 547 551 
L 590 554 
L 574 554 
L 562 553 
L 518 553 
L 505 554 
L 490 554 
L 533 551 
" fill="#339541" />
<path d="
M 490 539 
L 508 539 
L 508 546 
Q 508 548 , 516 549 
Q 523 550 , 540 550 
Q 557 550 , 565 549 
Q 572 548 , 572 546 
L 572 539 
L 590 539 
L 590 546 
Q 590 548 , 577 550 
Q 565 551 , 540 551 
Q 516 551 , 503 550 
Q 490 548 , 490 546 
L 490 539 
" fill="#D21010" />
<path d="
M 590 515 
L 590 519 
Q 575 516 , 567 516 
Q 559 515 , 549 515 
Q 528 515 , 518 517 
Q 506 520 , 506 525 
Q 506 530 , 518 533 
Q 528 535 , 549 535 
Q 559 535 , 567 535 
Q 575 534 , 590 531 
L 590 536 
Q 579 537 , 569 538 
Q 559 538 , 548 538 
Q 521 538 , 506 535 
Q 490 531 , 490 525 
Q 490 519 , 506 516 
Q 521 512 , 548 512 
Q 559 512 , 569 513 
Q 580 513 , 590 515 
" fill="#545FFF" />
<path d="
M 574 491 
L 574 452 
L 545 452 
L 545 436 
L 590 436 
L 590 500 
Q 579 507 , 568 509 
Q 559 511 , 547 512 
Q 521 512 , 505 492 
Q 490 473 , 490 439 
Q 490 406 , 505 386 
Q 521 367 , 547 367 
Q 558 367 , 567 370 
Q 577 372 , 587 379 
L 587 397 
Q 574 389 , 566 387 
Q 557 384 , 548 384 
Q 527 384 , 516 398 
Q 506 411 , 506 439 
Q 506 468 , 516 482 
Q 527 495 , 548 495 
Q 557 495 , 564 494 
Q 571 493 , 574 491 
" fill="#F5C000" />
<path d="
M 595 550 
L 613 550 
L 613 552 
Q 613 553 , 621 553 
Q 628 554 , 645 554 
Q 662 554 , 670 553 
Q 677 553 , 677 552 
L 677 550 
L 695 550 
L 695 553 
Q 695 553 , 682 554 
Q 670 554 , 645 554 
Q 621 554 , 608 554 
Q 595 553 , 595 553 
L 595 550 
" fill="#D21010" />
<path d="
M 645 544 
L 627 547 
L 661 547 
L 645 544 
M 638 543 
L 652 543 
L 695 549 
L 679 549 
L 667 548 
L 623 548 
L 610 549 
L 595 549 
L 638 543 
" fill="#339541" />
<path d="
M 679 536 
L 679 525 
L 650 525 
L 650 520 
L 695 520 
L 695 539 
Q 684 541 , 673 542 
Q 664 542 , 652 542 
Q 626 542 , 610 537 
Q 595 531 , 595 521 
Q 595 511 , 610 506 
Q 626 500 , 652 500 
Q 663 500 , 672 501 
Q 682 502 , 692 503 
L 692 509 
Q 679 506 , 671 506 
Q 662 505 , 653 505 
Q 632 505 , 621 509 
Q 611 513 , 611 521 
Q 611 529 , 621 534 
Q 632 538 , 653 538 
Q 662 538 , 669 537 
Q 676 537 , 679 536 
" fill="#F5C000" />
<path d="
M 695 457 
L 695 464 
Q 680 460 , 672 458 
Q 664 457 , 654 457 
Q 633 457 , 623 462 
Q 611 467 , 611 476 
Q 611 485 , 623 490 
Q 633 494 , 654 494 
Q 664 494 , 672 493 
Q 680 492 , 695 487 
L 695 494 
Q 684 497 , 674 498 
Q 664 499 , 653 499 
Q 626 499 , 611 493 
Q 595 486 , 595 476 
Q 595 465 , 611 458 
Q 626 452 , 653 452 
Q 664 452 , 674 453 
Q 685 454 , 695 457 
" fill="#545FFF" />
<path d="
M 750 553 
L 732 554 
L 766 554 
L 750 553 
M 743 552 
L 757 552 
L 800 555 
L 784 555 
L 772 554 
L 728 554 
L 715 555 
L 700 555 
L 743 552 
" fill="#339541" />
<path d="
M 700 548 
L 718 548 
L 718 550 
Q 718 550 , 726 551 
Q 733 551 , 750 551 
Q 767 551 , 775 551 
Q 782 550 , 782 550 
L 782 548 
L 800 548 
L 800 550 
Q 800 550 , 787 551 
Q 775 551 , 750 551 
Q 726 551 , 713 551 
Q 700 550 , 700 550 
L 700 548 
" fill="#D21010" />
<path d="
M 800 543 
L 800 544 
Q 785 543 , 777 543 
Q 769 543 , 759 543 
Q 738 543 , 728 543 
Q 716 544 , 716 545 
Q 716 546 , 728 547 
Q 738 547 , 759 547 
Q 769 547 , 777 547 
Q 785 547 , 800 546 
L 800 547 
Q 789 548 , 779 548 
Q 769 548 , 758 548 
Q 731 548 , 716 547 
Q 700 546 , 700 545 
Q 700 544 , 716 543 
Q 731 542 , 758 542 
Q 769 542 , 779 542 
Q 790 542 , 800 543 
" fill="#545FFF" />
<path d="
M 784 540 
L 784 539 
L 755 539 
L 755 538 
L 800 538 
L 800 541 
Q 789 541 , 778 541 
Q 769 541 , 757 541 
Q 731 541 , 715 541 
Q 700 540 , 700 538 
Q 700 537 , 715 536 
Q 731 535 , 757 535 
Q 768 535 , 777 535 
Q 787 535 , 797 536 
L 797 536 
Q 784 536 , 776 536 
Q 767 536 , 758 536 
Q 737 536 , 726 536 
Q 716 537 , 716 538 
Q 716 539 , 726 540 
Q 737 541 , 758 541 
Q 767 541 , 774 541 
Q 781 541 , 784 540 
" fill="#F5C000" />
<path d="
M 847 555 
L 847 554 
L 833 554 
L 833 554 
L 855 554 
L 855 555 
Q 850 555 , 844 555 
Q 839 555 , 833 555 
Q 820 555 , 813 555 
Q 805 555 , 805 554 
Q 805 554 , 813 554 
Q 820 554 , 833 554 
Q 839 554 , 844 554 
Q 849 554 , 854 554 
L 854 554 
Q 847 554 , 843 554 
Q 839 554 , 834 554 
Q 824 554 , 818 554 
Q 813 554 , 813 554 
Q 813 555 , 818 555 
Q 824 555 , 834 555 
Q 839 555 , 842 555 
Q 846 555 , 847 555 
" fill="lightgray" />
<path d="
M 855 554 
L 864 554 
L 864 554 
Q 864 555 , 868 555 
Q 871 555 , 880 555 
Q 889 555 , 892 555 
Q 896 555 , 896 554 
L 896 554 
L 905 554 
L 905 555 
Q 905 555 , 899 555 
Q 892 555 , 880 555 
Q 868 555 , 861 555 
Q 855 555 , 855 555 
L 855 554 
" fill="#D21010" />
<path d="
M 805 552 
L 814 552 
L 814 553 
Q 814 553 , 818 554 
Q 821 554 , 830 554 
Q 839 554 , 842 554 
Q 846 553 , 846 553 
L 846 552 
L 855 552 
L 855 553 
Q 855 554 , 849 554 
Q 842 554 , 830 554 
Q 818 554 , 811 554 
Q 805 554 , 805 553 
L 805 552 
" fill="lightgray" />
<path d="
M 897 554 
L 897 553 
L 883 553 
L 883 553 
L 905 553 
L 905 554 
Q 900 554 , 894 554 
Q 889 554 , 883 554 
Q 870 554 , 863 554 
Q 855 553 , 855 553 
Q 855 553 , 863 552 
Q 870 552 , 883 552 
Q 889 552 , 894 552 
Q 899 552 , 904 552 
L 904 552 
Q 897 552 , 893 552 
Q 889 552 , 884 552 
Q 874 552 , 868 552 
Q 863 553 , 863 553 
Q 863 553 , 868 554 
Q 874 554 , 884 554 
Q 889 554 , 892 554 
Q 896 554 , 897 554 
" fill="#F5C000" />
<path d="
M 830 546 
L 821 549 
L 838 549 
L 830 546 
M 826 545 
L 834 545 
L 855 551 
L 847 551 
L 841 550 
L 819 550 
L 812 551 
L 805 551 
L 826 545 
" fill="lightgray" />
<path d="
M 855 545 
L 864 545 
L 864 549 
Q 864 550 , 868 550 
Q 871 551 , 880 551 
Q 889 551 , 892 550 
Q 896 550 , 896 549 
L 896 545 
L 905 545 
L 905 549 
Q 905 550 , 899 551 
Q 892 551 , 880 551 
Q 868 551 , 861 551 
Q 855 550 , 855 549 
L 855 545 
" fill="#D21010" />
<path d="
M 805 538 
L 814 538 
L 814 542 
Q 814 543 , 818 544 
Q 821 544 , 830 544 
Q 839 544 , 842 544 
Q 846 543 , 846 542 
L 846 538 
L 855 538 
L 855 542 
Q 855 543 , 849 544 
Q 842 545 , 830 545 
Q 818 545 , 811 544 
Q 805 543 , 805 542 
L 805 538 
" fill="lightgray" />
<path d="
M 880 539 
L 871 542 
L 888 542 
L 880 539 
M 876 538 
L 884 538 
L 905 545 
L 897 545 
L 891 543 
L 869 543 
L 862 545 
L 855 545 
L 876 538 
" fill="#339541" />
<path d="
M 847 523 
L 847 497 
L 833 497 
L 833 486 
L 855 486 
L 855 530 
Q 850 534 , 844 535 
Q 839 537 , 833 537 
Q 820 537 , 813 524 
Q 805 511 , 805 489 
Q 805 466 , 813 453 
Q 820 440 , 833 440 
Q 839 440 , 844 442 
Q 849 443 , 854 448 
L 854 460 
Q 847 455 , 843 453 
Q 839 452 , 834 452 
Q 824 452 , 818 461 
Q 813 470 , 813 489 
Q 813 508 , 818 517 
Q 824 526 , 834 526 
Q 839 526 , 842 525 
Q 846 524 , 847 523 
" fill="lightgray" />
<path d="
M 905 450 
L 905 465 
Q 898 456 , 894 453 
Q 889 451 , 884 451 
Q 874 451 , 869 460 
Q 863 470 , 863 488 
Q 863 507 , 869 517 
Q 874 527 , 884 527 
Q 889 527 , 894 524 
Q 898 522 , 905 512 
L 905 527 
Q 900 533 , 894 535 
Q 890 537 , 884 537 
Q 870 537 , 863 524 
Q 855 511 , 855 489 
Q 855 466 , 863 453 
Q 870 440 , 884 440 
Q 890 440 , 895 442 
Q 900 445 , 905 450 
" fill="#545FFF" />
<path d="
M 855 337 
L 855 355 
Q 848 343 , 844 341 
Q 839 338 , 834 338 
Q 824 338 , 819 349 
Q 813 360 , 813 382 
Q 813 404 , 819 416 
Q 824 427 , 834 427 
Q 839 427 , 844 424 
Q 848 421 , 855 410 
L 855 428 
Q 850 434 , 844 437 
Q 840 439 , 834 439 
Q 820 439 , 813 424 
Q 805 409 , 805 382 
Q 805 356 , 813 341 
Q 820 325 , 834 325 
Q 840 325 , 845 328 
Q 850 331 , 855 337 
" fill="lightgray" />
<path d="
M 897 423 
L 897 392 
L 883 392 
L 883 380 
L 905 380 
L 905 431 
Q 900 436 , 894 437 
Q 889 439 , 883 439 
Q 870 439 , 863 424 
Q 855 409 , 855 382 
Q 855 356 , 863 340 
Q 870 325 , 883 325 
Q 889 325 , 894 327 
Q 899 329 , 904 334 
L 904 349 
Q 897 342 , 893 340 
Q 889 339 , 884 339 
Q 874 339 , 868 349 
Q 863 360 , 863 382 
Q 863 405 , 868 416 
Q 874 427 , 884 427 
Q 889 427 , 892 426 
Q 896 424 , 897 423 
" fill="#F5C000" />
<path d="
M 960 553 
L 942 554 
L 976 554 
L 960 553 
M 953 553 
L 967 553 
L 1010 555 
L 994 555 
L 982 554 
L 938 554 
L 925 555 
L 910 555 
L 953 553 
" fill="#339541" />
<path d="
M 910 548 
L 928 548 
L 928 550 
Q 928 551 , 936 551 
Q 943 552 , 960 552 
Q 977 552 , 985 551 
Q 992 551 , 992 550 
L 992 548 
L 1010 548 
L 1010 551 
Q 1010 551 , 997 552 
Q 985 552 , 960 552 
Q 936 552 , 923 552 
Q 910 551 , 910 551 
L 910 548 
" fill="#D21010" />
<path d="
M 994 538 
L 994 520 
L 965 520 
L 965 513 
L 1010 513 
L 1010 542 
Q 999 545 , 988 546 
Q 979 547 , 967 547 
Q 941 547 , 925 539 
Q 910 530 , 910 515 
Q 910 499 , 925 491 
Q 941 482 , 967 482 
Q 978 482 , 987 483 
Q 997 484 , 1007 487 
L 1007 496 
Q 994 492 , 986 491 
Q 977 490 , 968 490 
Q 947 490 , 936 496 
Q 926 502 , 926 515 
Q 926 528 , 936 534 
Q 947 540 , 968 540 
Q 977 540 , 984 539 
Q 991 539 , 994 538 
" fill="#F5C000" />
<path d="
M 1010 412 
L 1010 424 
Q 995 417 , 987 415 
Q 979 413 , 969 413 
Q 948 413 , 938 420 
Q 926 428 , 926 443 
Q 926 458 , 938 466 
Q 948 473 , 969 473 
Q 979 473 , 987 471 
Q 995 469 , 1010 461 
L 1010 474 
Q 999 478 , 989 480 
Q 979 482 , 968 482 
Q 941 482 , 926 471 
Q 910 461 , 910 443 
Q 910 425 , 926 415 
Q 941 404 , 968 404 
Q 979 404 , 989 406 
Q 1000 408 , 1010 412 
" fill="#545FFF" />
<path d="
M 1115 554 
L 1115 554 
Q 1100 554 , 1092 554 
Q 1084 554 , 1074 554 
Q 1053 554 , 1043 554 
Q 1031 554 , 1031 554 
Q 1031 554 , 1043 554 
Q 1053 554 , 1074 554 
Q 1084 554 , 1092 554 
Q 1100 554 , 1115 554 
L 1115 554 
Q 1104 554 , 1094 554 
Q 1084 554 , 1073 554 
Q 1046 554 , 1031 554 
Q 1015 554 , 1015 554 
Q 1015 554 , 1031 554 
Q 1046 554 , 1073 554 
Q 1084 554 , 1094 554 
Q 1105 554 , 1115 554 
" fill="#545FFF" />
<path d="
M 1065 553 
L 1047 553 
L 1081 553 
L 1065 553 
M 1058 553 
L 1072 553 
L 1115 553 
L 1099 553 
L 1087 553 
L 1043 553 
L 1030 553 
L 1015 553 
L 1058 553 
" fill="#339541" />
<path d="
M 1099 552 
L 1099 552 
L 1070 552 
L 1070 552 
L 1115 552 
L 1115 553 
Q 1104 553 , 1093 553 
Q 1084 553 , 1072 553 
Q 1046 553 , 1030 552 
Q 1015 552 , 1015 552 
Q 1015 552 , 1030 552 
Q 1046 552 , 1072 552 
Q 1083 552 , 1092 552 
Q 1102 552 , 1112 552 
L 1112 552 
Q 1099 552 , 1091 552 
Q 1082 552 , 1073 552 
Q 1052 552 , 1041 552 
Q 1031 552 , 1031 552 
Q 1031 552 , 1041 552 
Q 1052 552 , 1073 552 
Q 1082 552 , 1089 552 
Q 1096 552 , 1099 552 
" fill="#F5C000" />
<path d="
M 1015 551 
L 1033 551 
L 1033 551 
Q 1033 551 , 1041 551 
Q 1048 551 , 1065 551 
Q 1082 551 , 1090 551 
Q 1097 551 , 1097 551 
L 1097 551 
L 1115 551 
L 1115 551 
Q 1115 551 , 1102 552 
Q 1090 552 , 1065 552 
Q 1041 552 , 1028 552 
Q 1015 551 , 1015 551 
L 1015 551 
" fill="#D21010" />
<path d="
M 1170 552 
L 1152 553 
L 1186 553 
L 1170 552 
M 1163 552 
L 1177 552 
L 1220 554 
L 1204 554 
L 1192 554 
L 1148 554 
L 1135 554 
L 1120 554 
L 1163 552 
" fill="#339541" />
<path d="
M 1120 548 
L 1138 548 
L 1138 550 
Q 1138 551 , 1146 551 
Q 1153 551 , 1170 551 
Q 1187 551 , 1195 551 
Q 1202 551 , 1202 550 
L 1202 548 
L 1220 548 
L 1220 550 
Q 1220 551 , 1207 551 
Q 1195 552 , 1170 552 
Q 1146 552 , 1133 551 
Q 1120 551 , 1120 550 
L 1120 548 
" fill="#D21010" />
<path d="
M 1220 501 
L 1220 509 
Q 1205 503 , 1197 502 
Q 1189 501 , 1179 501 
Q 1158 501 , 1148 506 
Q 1136 511 , 1136 521 
Q 1136 531 , 1148 536 
Q 1158 541 , 1179 541 
Q 1189 541 , 1197 540 
Q 1205 539 , 1220 534 
L 1220 542 
Q 1209 545 , 1199 546 
Q 1189 547 , 1178 547 
Q 1151 547 , 1136 540 
Q 1120 533 , 1120 521 
Q 1120 509 , 1136 502 
Q 1151 495 , 1178 495 
Q 1189 495 , 1199 496 
Q 1210 498 , 1220 501 
" fill="#545FFF" />
<path d="
M 1204 479 
L 1204 450 
L 1175 450 
L 1175 438 
L 1220 438 
L 1220 486 
Q 1209 490 , 1198 492 
Q 1189 494 , 1177 494 
Q 1151 494 , 1135 480 
Q 1120 466 , 1120 441 
Q 1120 416 , 1135 401 
Q 1151 387 , 1177 387 
Q 1188 387 , 1197 389 
Q 1207 391 , 1217 396 
L 1217 409 
Q 1204 403 , 1196 401 
Q 1187 400 , 1178 400 
Q 1157 400 , 1146 410 
Q 1136 420 , 1136 441 
Q 1136 462 , 1146 472 
Q 1157 482 , 1178 482 
Q 1187 482 , 1194 481 
Q 1201 480 , 1204 479 
" fill="#F5C000" />
<path d="
M 1275 553 
L 1257 554 
L 1291 554 
L 1275 553 
M 1268 552 
L 1282 552 
L 1325 555 
L 1309 555 
L 1297 554 
L 1253 554 
L 1240 555 
L 1225 555 
L 1268 552 
" fill="#339541" />
<path d="
M 1225 544 
L 1243 544 
L 1243 548 
Q 1243 550 , 1251 550 
Q 1258 551 , 1275 551 
Q 1292 551 , 1300 550 
Q 1307 550 , 1307 548 
L 1307 544 
L 1325 544 
L 1325 548 
Q 1325 550 , 1312 551 
Q 1300 551 , 1275 551 
Q 1251 551 , 1238 551 
Q 1225 550 , 1225 548 
L 1225 544 
" fill="#D21010" />
<path d="
M 1309 536 
L 1309 524 
L 1280 524 
L 1280 518 
L 1325 518 
L 1325 539 
Q 1314 541 , 1303 542 
Q 1294 543 , 1282 543 
Q 1256 543 , 1240 537 
Q 1225 531 , 1225 520 
Q 1225 509 , 1240 502 
Q 1256 496 , 1282 496 
Q 1293 496 , 1302 497 
Q 1312 498 , 1322 500 
L 1322 506 
Q 1309 503 , 1301 502 
Q 1292 502 , 1283 502 
Q 1262 502 , 1251 506 
Q 1241 510 , 1241 520 
Q 1241 529 , 1251 533 
Q 1262 538 , 1283 538 
Q 1292 538 , 1299 537 
Q 1306 537 , 1309 536 
" fill="#F5C000" />
<path d="
M 1325 448 
L 1325 456 
Q 1310 451 , 1302 449 
Q 1294 448 , 1284 448 
Q 1263 448 , 1253 453 
Q 1241 458 , 1241 468 
Q 1241 479 , 1253 484 
Q 1263 490 , 1284 490 
Q 1294 490 , 1302 488 
Q 1310 487 , 1325 482 
L 1325 490 
Q 1314 493 , 1304 494 
Q 1294 495 , 1283 495 
Q 1256 495 , 1241 488 
Q 1225 481 , 1225 469 
Q 1225 456 , 1241 449 
Q 1256 442 , 1283 442 
Q 1294 442 , 1304 443 
Q 1315 445 , 1325 448 
" fill="#545FFF" />
<path d="
M 1380 553 
L 1362 554 
L 1396 554 
L 1380 553 
M 1373 552 
L 1387 552 
L 1430 555 
L 1414 555 
L 1402 554 
L 1358 554 
L 1345 555 
L 1330 555 
L 1373 552 
" fill="#339541" />
<path d="
M 1330 548 
L 1348 548 
L 1348 550 
Q 1348 550 , 1356 551 
Q 1363 551 , 1380 551 
Q 1397 551 , 1405 551 
Q 1412 550 , 1412 550 
L 1412 548 
L 1430 548 
L 1430 550 
Q 1430 550 , 1417 551 
Q 1405 551 , 1380 551 
Q 1356 551 , 1343 551 
Q 1330 550 , 1330 550 
L 1330 548 
" fill="#D21010" />
<path d="
M 1430 543 
L 1430 544 
Q 1415 543 , 1407 543 
Q 1399 543 , 1389 543 
Q 1368 543 , 1358 543 
Q 1346 544 , 1346 545 
Q 1346 546 , 1358 547 
Q 1368 547 , 1389 547 
Q 1399 547 , 1407 547 
Q 1415 547 , 1430 546 
L 1430 547 
Q 1419 548 , 1409 548 
Q 1399 548 , 1388 548 
Q 1361 548 , 1346 547 
Q 1330 546 , 1330 545 
Q 1330 544 , 1346 543 
Q 1361 542 , 1388 542 
Q 1399 542 , 1409 542 
Q 1420 542 , 1430 543 
" fill="#545FFF" />
<path d="
M 1414 540 
L 1414 539 
L 1385 539 
L 1385 538 
L 1430 538 
L 1430 541 
Q 1419 541 , 1408 541 
Q 1399 541 , 1387 541 
Q 1361 541 , 1345 541 
Q 1330 540 , 1330 538 
Q 1330 537 , 1345 536 
Q 1361 535 , 1387 535 
Q 1398 535 , 1407 535 
Q 1417 535 , 1427 536 
L 1427 536 
Q 1414 536 , 1406 536 
Q 1397 536 , 1388 536 
Q 1367 536 , 1356 536 
Q 1346 537 , 1346 538 
Q 1346 539 , 1356 540 
Q 1367 541 , 1388 541 
Q 1397 541 , 1404 541 
Q 1411 541 , 1414 540 
" fill="#F5C000" />
<path d="M 65 168 L 65 555 " stroke="black" stroke-width="1.5"/>
<path d="M 55 555 L 65 555 " stroke="black" stroke-width="4"/>
<text text-anchor="end" x="50" y="555" font-size="50" alignment-baseline="middle">0</text>
<path d="M 55 362 L 65 362 " stroke="black" stroke-width="4"/>
<text text-anchor="end" x="50" y="362" font-size="50" alignment-baseline="middle">1</text>
<path d="M 55 168 L 65 168 " stroke="black" stroke-width="4"/>
<text text-anchor="end" x="50" y="168" font-size="50" alignment-baseline="middle">2</text>
<text text-anchor="middle" x="750" y="50" font-size="50" alignment-baseline="baseline"></text>
G<path d="
M 160 582 
L 126 595 
L 160 608 
L 157 611 
L 123 598 
L 123 623 
L 117 623 
L 117 599 
L 83 611 
L 80 608 
L 114 595 
L 80 582 
L 83 579 
L 117 591 
L 117 567 
L 123 567 
L 123 591 
L 157 579 
L 160 582 
" fill="black" />
<path d="
" fill="black" />
<path d="
M 211 567 
L 238 567 
L 238 623 
L 211 623 
L 211 567 
" fill="black" />
<path d="
" fill="black" />
<path d="
M 370 567 
Q 341 574 , 328 581 
Q 315 588 , 315 595 
Q 315 602 , 328 609 
Q 341 616 , 370 623 
L 346 623 
Q 318 616 , 304 609 
Q 290 602 , 290 595 
Q 290 588 , 304 581 
Q 318 574 , 346 567 
L 370 567 
" fill="black" />
<path d="
" fill="black" />
<path d="
M 421 567 
L 448 567 
L 448 623 
L 421 623 
L 421 567 
" fill="black" />
<path d="
" fill="black" />
<path d="
" fill="black" />
<path d="
M 526 567 
L 553 567 
L 553 623 
L 526 623 
L 526 567 
" fill="black" />
<path d="
" fill="black" />
<path d="
" fill="black" />
<path d="
M 622 567 
L 642 567 
L 642 623 
L 622 623 
L 622 567 
" fill="black" />
<path d="
" fill="black" />
<path d="
M 672 567 
L 692 567 
L 692 571 
L 680 623 
L 677 623 
L 689 571 
L 672 571 
L 672 567 
" fill="black" />
<path d="
M 790 582 
L 756 595 
L 790 608 
L 787 611 
L 753 598 
L 753 623 
L 747 623 
L 747 599 
L 713 611 
L 710 608 
L 744 595 
L 710 582 
L 713 579 
L 747 591 
L 747 567 
L 753 567 
L 753 591 
L 787 579 
L 790 582 
" fill="black" />
<path d="
M 815 567 
L 839 567 
Q 867 574 , 881 581 
Q 895 588 , 895 595 
Q 895 602 , 881 609 
Q 867 616 , 839 623 
L 815 623 
Q 844 616 , 857 609 
Q 870 602 , 870 595 
Q 870 588 , 857 581 
Q 844 574 , 815 567 
" fill="black" />
<path d="
" fill="black" />
<path d="
M 946 567 
L 973 567 
L 973 623 
L 946 623 
L 946 567 
" fill="black" />
<path d="
" fill="black" />
<path d="
" fill="black" />
<path d="
M 1051 567 
L 1078 567 
L 1078 623 
L 1051 623 
L 1051 567 
" fill="black" />
<path d="
" fill="black" />
<path d="
" fill="black" />
<path d="
M 1156 567 
L 1183 567 
L 1183 623 
L 1156 623 
L 1156 567 
" fill="black" />
<path d="
" fill="black" />
<path d="
" fill="black" />
<path d="
M 1261 567 
L 1288 567 
L 1288 623 
L 1261 623 
L 1261 567 
" fill="black" />
<path d="
" fill="black" />
<path d="
M 1420 582 
L 1386 595 
L 1420 608 
L 1417 611 
L 1383 598 
L 1383 623 
L 1377 623 
L 1377 599 
L 1343 611 
L 1340 608 
L 1374 595 
L 1340 582 
L 1343 579 
L 1377 591 
L 1377 567 
L 1383 567 
L 1383 591 
L 1417 579 
L 1420 582 
" fill="black" />
</svg>
