<svg xmlns="http://www.w3.org/2000/svg"
viewBox="0 0 1435 635">
<path d="
M 170 554 
L 170 554 
Q 155 554 , 147 554 
Q 139 554 , 129 554 
Q 108 554 , 98 554 
Q 86 554 , 86 554 
Q 86 554 , 98 555 
Q 108 555 , 129 555 
Q 139 555 , 147 555 
Q 155 555 , 170 555 
L 170 555 
Q 159 555 , 149 555 
Q 139 555 , 128 555 
Q 101 555 , 86 555 
Q 70 555 , 70 554 
Q 70 554 , 86 554 
Q 101 554 , 128 554 
Q 139 554 , 149 554 
Q 160 554 , 170 554 
" fill="#545FFF" />
<path d="
M 70 553 
L 88 553 
L 88 554 
Q 88 554 , 96 554 
Q 103 554 , 120 554 
Q 137 554 , 145 554 
Q 152 554 , 152 554 
L 152 553 
L 170 553 
L 170 554 
Q 170 554 , 157 554 
Q 145 554 , 120 554 
Q 96 554 , 83 554 
Q 70 554 , 70 554 
L 70 553 
" fill="#D21010" />
<path d="
M 154 552 
L 154 552 
L 125 552 
L 125 551 
L 170 551 
L 170 552 
Q 159 552 , 148 552 
Q 139 552 , 127 552 
Q 101 552 , 85 552 
Q 70 552 , 70 552 
Q 70 551 , 85 551 
Q 101 551 , 127 551 
Q 138 551 , 147 551 
Q 157 551 , 167 551 
L 167 551 
Q 154 551 , 146 551 
Q 137 551 , 128 551 
Q 107 551 , 96 551 
Q 86 551 , 86 552 
Q 86 552 , 96 552 
Q 107 552 , 128 552 
Q 137 552 , 144 552 
Q 151 552 , 154 552 
" fill="#F5C000" />
<path d="
M 120 549 
L 102 550 
L 136 550 
L 120 549 
M 113 549 
L 127 549 
L 170 550 
L 154 550 
L 142 550 
L 98 550 
L 85 550 
L 70 550 
L 113 549 
" fill="#339541" />
<path d="
M 217 554 
L 217 554 
L 203 554 
L 203 554 
L 225 554 
L 225 554 
Q 220 554 , 214 554 
Q 209 554 , 203 554 
Q 190 554 , 183 554 
Q 175 554 , 175 554 
Q 175 553 , 183 553 
Q 190 553 , 203 553 
Q 209 553 , 214 553 
Q 219 553 , 224 553 
L 224 553 
Q 217 553 , 213 553 
Q 209 553 , 204 553 
Q 194 553 , 188 553 
Q 183 553 , 183 554 
Q 183 554 , 188 554 
Q 194 554 , 204 554 
Q 209 554 , 212 554 
Q 216 554 , 217 554 
" fill="#F5C000" />
<path d="
M 225 553 
L 234 553 
L 234 554 
Q 234 554 , 238 554 
Q 241 554 , 250 554 
Q 259 554 , 262 554 
Q 266 554 , 266 554 
L 266 553 
L 275 553 
L 275 554 
Q 275 554 , 269 554 
Q 262 554 , 250 554 
Q 238 554 , 231 554 
Q 225 554 , 225 554 
L 225 553 
" fill="lightgray" />
<path d="
M 175 548 
L 184 548 
L 184 550 
Q 184 551 , 188 551 
Q 191 552 , 200 552 
Q 209 552 , 212 551 
Q 216 551 , 216 550 
L 216 548 
L 225 548 
L 225 551 
Q 225 551 , 219 552 
Q 212 552 , 200 552 
Q 188 552 , 181 552 
Q 175 551 , 175 551 
L 175 548 
" fill="#D21010" />
<path d="
M 250 549 
L 241 550 
L 258 550 
L 250 549 
M 246 548 
L 254 548 
L 275 552 
L 267 552 
L 261 551 
L 239 551 
L 232 552 
L 225 552 
L 246 548 
" fill="lightgray" />
<path d="
M 217 546 
L 217 544 
L 203 544 
L 203 544 
L 225 544 
L 225 547 
Q 220 547 , 214 547 
Q 209 548 , 203 548 
Q 190 548 , 183 547 
Q 175 546 , 175 544 
Q 175 542 , 183 541 
Q 190 540 , 203 540 
Q 209 540 , 214 540 
Q 219 540 , 224 541 
L 224 542 
Q 217 541 , 213 541 
Q 209 541 , 204 541 
Q 194 541 , 188 542 
Q 183 542 , 183 544 
Q 183 545 , 188 546 
Q 194 547 , 204 547 
Q 209 547 , 212 547 
Q 216 547 , 217 546 
" fill="#F5C000" />
<path d="
M 275 541 
L 275 542 
Q 268 541 , 264 541 
Q 259 541 , 254 541 
Q 244 541 , 239 542 
Q 233 542 , 233 543 
Q 233 545 , 239 546 
Q 244 547 , 254 547 
Q 259 547 , 264 547 
Q 268 546 , 275 546 
L 275 547 
Q 270 547 , 264 547 
Q 260 548 , 254 548 
Q 240 548 , 233 547 
Q 225 546 , 225 544 
Q 225 542 , 233 541 
Q 240 540 , 254 540 
Q 260 540 , 265 540 
Q 270 540 , 275 541 
" fill="lightgray" />
<path d="
M 175 528 
L 184 528 
L 184 535 
Q 184 537 , 188 538 
Q 191 539 , 200 539 
Q 209 539 , 212 538 
Q 216 537 , 216 535 
L 216 528 
L 225 528 
L 225 535 
Q 225 538 , 219 539 
Q 212 540 , 200 540 
Q 188 540 , 181 539 
Q 175 538 , 175 535 
L 175 528 
" fill="#D21010" />
<path d="
M 267 538 
L 267 535 
L 253 535 
L 253 534 
L 275 534 
L 275 539 
Q 270 540 , 264 540 
Q 259 540 , 253 540 
Q 240 540 , 233 538 
Q 225 537 , 225 534 
Q 225 531 , 233 530 
Q 240 528 , 253 528 
Q 259 528 , 264 528 
Q 269 528 , 274 529 
L 274 531 
Q 267 530 , 263 530 
Q 259 529 , 254 529 
Q 244 529 , 238 531 
Q 233 532 , 233 534 
Q 233 536 , 238 538 
Q 244 539 , 254 539 
Q 259 539 , 262 539 
Q 266 538 , 267 538 
" fill="lightgray" />
<path d="
M 200 516 
L 191 522 
L 208 522 
L 200 516 
M 196 514 
L 204 514 
L 225 527 
L 217 527 
L 211 523 
L 189 523 
L 182 527 
L 175 527 
L 196 514 
" fill="#339541" />
<path d="
M 225 514 
L 234 514 
L 234 522 
Q 234 524 , 238 525 
Q 241 526 , 250 526 
Q 259 526 , 262 525 
Q 266 524 , 266 522 
L 266 514 
L 275 514 
L 275 522 
Q 275 524 , 269 526 
Q 262 527 , 250 527 
Q 238 527 , 231 526 
Q 225 524 , 225 522 
L 225 514 
" fill="lightgray" />
<path d="
M 225 501 
L 225 503 
Q 218 502 , 214 502 
Q 209 501 , 204 501 
Q 194 501 , 189 503 
Q 183 504 , 183 506 
Q 183 509 , 189 510 
Q 194 512 , 204 512 
Q 209 512 , 214 511 
Q 218 511 , 225 510 
L 225 512 
Q 220 513 , 214 513 
Q 210 513 , 204 513 
Q 190 513 , 183 511 
Q 175 510 , 175 507 
Q 175 504 , 183 502 
Q 190 500 , 204 500 
Q 210 500 , 215 500 
Q 220 501 , 225 501 
" fill="#545FFF" />
<path d="
M 267 511 
L 267 508 
L 253 508 
L 253 506 
L 275 506 
L 275 512 
Q 270 513 , 264 513 
Q 259 513 , 253 513 
Q 240 513 , 233 511 
Q 225 510 , 225 507 
Q 225 504 , 233 502 
Q 240 500 , 253 500 
Q 259 500 , 264 500 
Q 269 500 , 274 501 
L 274 503 
Q 267 502 , 263 502 
Q 259 502 , 254 502 
Q 244 502 , 238 503 
Q 233 504 , 233 507 
Q 233 509 , 238 510 
Q 244 512 , 254 512 
Q 259 512 , 262 512 
Q 266 511 , 267 511 
" fill="lightgray" />
<path d="
M 380 551 
L 380 552 
Q 365 551 , 357 551 
Q 349 551 , 339 551 
Q 318 551 , 308 552 
Q 296 552 , 296 552 
Q 296 553 , 308 553 
Q 318 554 , 339 554 
Q 349 554 , 357 554 
Q 365 554 , 380 553 
L 380 554 
Q 369 554 , 359 554 
Q 349 554 , 338 554 
Q 311 554 , 296 554 
Q 280 553 , 280 553 
Q 280 552 , 296 551 
Q 311 551 , 338 551 
Q 349 551 , 359 551 
Q 370 551 , 380 551 
" fill="#545FFF" />
<path d="
M 364 549 
L 364 547 
L 335 547 
L 335 546 
L 380 546 
L 380 550 
Q 369 551 , 358 551 
Q 349 551 , 337 551 
Q 311 551 , 295 550 
Q 280 548 , 280 546 
Q 280 544 , 295 542 
Q 311 541 , 337 541 
Q 348 541 , 357 541 
Q 367 541 , 377 542 
L 377 543 
Q 364 543 , 356 542 
Q 347 542 , 338 542 
Q 317 542 , 306 543 
Q 296 544 , 296 546 
Q 296 548 , 306 549 
Q 317 550 , 338 550 
Q 347 550 , 354 550 
Q 361 550 , 364 549 
" fill="#F5C000" />
<path d="
M 330 518 
L 312 529 
L 346 529 
L 330 518 
M 323 513 
L 337 513 
L 380 540 
L 364 540 
L 352 532 
L 308 532 
L 295 540 
L 280 540 
L 323 513 
" fill="#339541" />
<path d="
M 280 474 
L 298 474 
L 298 497 
Q 298 503 , 306 506 
Q 313 508 , 330 508 
Q 347 508 , 355 506 
Q 362 503 , 362 497 
L 362 474 
L 380 474 
L 380 497 
Q 380 505 , 367 508 
Q 355 512 , 330 512 
Q 306 512 , 293 508 
Q 280 505 , 280 497 
L 280 474 
" fill="#D21010" />
<path d="
M 385 547 
L 403 547 
L 403 551 
Q 403 553 , 411 553 
Q 418 554 , 435 554 
Q 452 554 , 460 553 
Q 467 553 , 467 551 
L 467 547 
L 485 547 
L 485 552 
Q 485 553 , 472 554 
Q 460 555 , 435 555 
Q 411 555 , 398 554 
Q 385 553 , 385 552 
L 385 547 
" fill="#D21010" />
<path d="
M 485 538 
L 485 540 
Q 470 539 , 462 538 
Q 454 538 , 444 538 
Q 423 538 , 413 539 
Q 401 540 , 401 542 
Q 401 544 , 413 545 
Q 423 546 , 444 546 
Q 454 546 , 462 545 
Q 470 545 , 485 544 
L 485 546 
Q 474 546 , 464 546 
Q 454 547 , 443 547 
Q 416 547 , 401 545 
Q 385 544 , 385 542 
Q 385 540 , 401 538 
Q 416 537 , 443 537 
Q 454 537 , 464 537 
Q 475 537 , 485 538 
" fill="#545FFF" />
<path d="
M 435 518 
L 417 527 
L 451 527 
L 435 518 
M 428 514 
L 442 514 
L 485 537 
L 469 537 
L 457 530 
L 413 530 
L 400 537 
L 385 537 
L 428 514 
" fill="#339541" />
<path d="
M 469 501 
L 469 479 
L 440 479 
L 440 469 
L 485 469 
L 485 507 
Q 474 511 , 463 512 
Q 454 513 , 442 514 
Q 416 514 , 400 502 
Q 385 491 , 385 471 
Q 385 452 , 400 440 
Q 416 429 , 442 429 
Q 453 429 , 462 430 
Q 472 432 , 482 436 
L 482 447 
Q 469 442 , 461 440 
Q 452 439 , 443 439 
Q 422 439 , 411 447 
Q 401 455 , 401 471 
Q 401 488 , 411 496 
Q 422 504 , 443 504 
Q 452 504 , 459 503 
Q 466 502 , 469 501 
" fill="#F5C000" />
<path d="
M 490 549 
L 508 549 
L 508 552 
Q 508 553 , 516 553 
Q 523 554 , 540 554 
Q 557 554 , 565 553 
Q 572 553 , 572 552 
L 572 549 
L 590 549 
L 590 552 
Q 590 553 , 577 554 
Q 565 554 , 540 554 
Q 516 554 , 503 554 
Q 490 553 , 490 552 
L 490 549 
" fill="#D21010" />
<path d="
M 540 541 
L 522 545 
L 556 545 
L 540 541 
M 533 539 
L 547 539 
L 590 548 
L 574 548 
L 562 546 
L 518 546 
L 505 548 
L 490 548 
L 533 539 
" fill="#339541" />
<path d="
M 590 528 
L 590 530 
Q 575 529 , 567 529 
Q 559 528 , 549 528 
Q 528 528 , 518 529 
Q 506 531 , 506 533 
Q 506 535 , 518 537 
Q 528 538 , 549 538 
Q 559 538 , 567 537 
Q 575 537 , 590 536 
L 590 538 
Q 579 538 , 569 539 
Q 559 539 , 548 539 
Q 521 539 , 506 537 
Q 490 536 , 490 533 
Q 490 530 , 506 529 
Q 521 527 , 548 527 
Q 559 527 , 569 527 
Q 580 528 , 590 528 
" fill="#545FFF" />
<path d="
M 574 492 
L 574 427 
L 545 427 
L 545 401 
L 590 401 
L 590 508 
Q 579 518 , 568 522 
Q 559 526 , 547 526 
Q 521 526 , 505 494 
Q 490 462 , 490 406 
Q 490 350 , 505 318 
Q 521 286 , 547 286 
Q 558 286 , 567 290 
Q 577 295 , 587 305 
L 587 336 
Q 574 323 , 566 319 
Q 557 315 , 548 315 
Q 527 315 , 516 337 
Q 506 360 , 506 406 
Q 506 454 , 516 477 
Q 527 500 , 548 500 
Q 557 500 , 564 497 
Q 571 495 , 574 492 
" fill="#F5C000" />
<path d="
M 679 555 
L 679 554 
L 650 554 
L 650 554 
L 695 554 
L 695 555 
Q 684 555 , 673 555 
Q 664 555 , 652 555 
Q 626 555 , 610 555 
Q 595 554 , 595 554 
Q 595 554 , 610 553 
Q 626 553 , 652 553 
Q 663 553 , 672 553 
Q 682 553 , 692 553 
L 692 553 
Q 679 553 , 671 553 
Q 662 553 , 653 553 
Q 632 553 , 621 553 
Q 611 554 , 611 554 
Q 611 554 , 621 555 
Q 632 555 , 653 555 
Q 662 555 , 669 555 
Q 676 555 , 679 555 
" fill="#F5C000" />
<path d="
M 695 550 
L 695 551 
Q 680 550 , 672 550 
Q 664 550 , 654 550 
Q 633 550 , 623 550 
Q 611 551 , 611 551 
Q 611 552 , 623 552 
Q 633 552 , 654 552 
Q 664 552 , 672 552 
Q 680 552 , 695 552 
L 695 552 
Q 684 552 , 674 552 
Q 664 552 , 653 552 
Q 626 552 , 611 552 
Q 595 552 , 595 551 
Q 595 551 , 611 550 
Q 626 550 , 653 550 
Q 664 550 , 674 550 
Q 685 550 , 695 550 
" fill="#545FFF" />
<path d="
M 595 546 
L 613 546 
L 613 548 
Q 613 549 , 621 549 
Q 628 549 , 645 549 
Q 662 549 , 670 549 
Q 677 549 , 677 548 
L 677 546 
L 695 546 
L 695 548 
Q 695 549 , 682 549 
Q 670 549 , 645 549 
Q 621 549 , 608 549 
Q 595 549 , 595 548 
L 595 546 
" fill="#D21010" />
<path d="
M 645 542 
L 627 543 
L 661 543 
L 645 542 
M 638 541 
L 652 541 
L 695 545 
L 679 545 
L 667 544 
L 623 544 
L 610 545 
L 595 545 
L 638 541 
" fill="#339541" />
<path d="
M 800 554 
L 800 554 
Q 785 554 , 777 554 
Q 769 554 , 759 554 
Q 738 554 , 728 554 
Q 716 554 , 716 554 
Q 716 554 , 728 555 
Q 738 555 , 759 555 
Q 769 555 , 777 555 
Q 785 555 , 800 555 
L 800 555 
Q 789 555 , 779 555 
Q 769 555 , 758 555 
Q 731 555 , 716 555 
Q 700 555 , 700 554 
Q 700 554 , 716 554 
Q 731 554 , 758 554 
Q 769 554 , 779 554 
Q 790 554 , 800 554 
" fill="#545FFF" />
<path d="
M 700 553 
L 718 553 
L 718 554 
Q 718 554 , 726 554 
Q 733 554 , 750 554 
Q 767 554 , 775 554 
Q 782 554 , 782 554 
L 782 553 
L 800 553 
L 800 554 
Q 800 554 , 787 554 
Q 775 554 , 750 554 
Q 726 554 , 713 554 
Q 700 554 , 700 554 
L 700 553 
" fill="#D21010" />
<path d="
M 784 552 
L 784 552 
L 755 552 
L 755 551 
L 800 551 
L 800 552 
Q 789 552 , 778 552 
Q 769 552 , 757 552 
Q 731 552 , 715 552 
Q 700 552 , 700 552 
Q 700 551 , 715 551 
Q 731 551 , 757 551 
Q 768 551 , 777 551 
Q 787 551 , 797 551 
L 797 551 
Q 784 551 , 776 551 
Q 767 551 , 758 551 
Q 737 551 , 726 551 
Q 716 551 , 716 552 
Q 716 552 , 726 552 
Q 737 552 , 758 552 
Q 767 552 , 774 552 
Q 781 552 , 784 552 
" fill="#F5C000" />
<path d="
M 750 549 
L 732 550 
L 766 550 
L 750 549 
M 743 549 
L 757 549 
L 800 550 
L 784 550 
L 772 550 
L 728 550 
L 715 550 
L 700 550 
L 743 549 
" fill="#339541" />
<path d="
M 905 551 
L 905 552 
Q 890 552 , 882 552 
Q 874 551 , 864 551 
Q 843 551 , 833 552 
Q 821 552 , 821 553 
Q 821 554 , 833 554 
Q 843 554 , 864 554 
Q 874 554 , 882 554 
Q 890 554 , 905 554 
L 905 554 
Q 894 555 , 884 555 
Q 874 555 , 863 555 
Q 836 555 , 821 554 
Q 805 554 , 805 553 
Q 805 552 , 821 552 
Q 836 551 , 863 551 
Q 874 551 , 884 551 
Q 895 551 , 905 551 
" fill="#545FFF" />
<path d="
M 805 545 
L 823 545 
L 823 548 
Q 823 549 , 831 550 
Q 838 550 , 855 550 
Q 872 550 , 880 550 
Q 887 549 , 887 548 
L 887 545 
L 905 545 
L 905 548 
Q 905 550 , 892 550 
Q 880 551 , 855 551 
Q 831 551 , 818 550 
Q 805 550 , 805 548 
L 805 545 
" fill="#D21010" />
<path d="
M 889 543 
L 889 542 
L 860 542 
L 860 541 
L 905 541 
L 905 544 
Q 894 544 , 883 544 
Q 874 544 , 862 544 
Q 836 544 , 820 543 
Q 805 543 , 805 541 
Q 805 540 , 820 539 
Q 836 538 , 862 538 
Q 873 538 , 882 538 
Q 892 538 , 902 539 
L 902 539 
Q 889 539 , 881 539 
Q 872 539 , 863 539 
Q 842 539 , 831 539 
Q 821 540 , 821 541 
Q 821 542 , 831 543 
Q 842 544 , 863 544 
Q 872 544 , 879 543 
Q 886 543 , 889 543 
" fill="#F5C000" />
<path d="
M 855 527 
L 837 532 
L 871 532 
L 855 527 
M 848 525 
L 862 525 
L 905 537 
L 889 537 
L 877 534 
L 833 534 
L 820 537 
L 805 537 
L 848 525 
" fill="#339541" />
<path d="
M 910 550 
L 928 550 
L 928 552 
Q 928 553 , 936 553 
Q 943 554 , 960 554 
Q 977 554 , 985 553 
Q 992 553 , 992 552 
L 992 550 
L 1010 550 
L 1010 553 
Q 1010 553 , 997 554 
Q 985 554 , 960 554 
Q 936 554 , 923 554 
Q 910 553 , 910 553 
L 910 550 
" fill="#D21010" />
<path d="
M 1010 541 
L 1010 542 
Q 995 542 , 987 541 
Q 979 541 , 969 541 
Q 948 541 , 938 542 
Q 926 543 , 926 545 
Q 926 547 , 938 548 
Q 948 549 , 969 549 
Q 979 549 , 987 548 
Q 995 548 , 1010 547 
L 1010 549 
Q 999 549 , 989 549 
Q 979 550 , 968 550 
Q 941 550 , 926 548 
Q 910 547 , 910 545 
Q 910 543 , 926 541 
Q 941 540 , 968 540 
Q 979 540 , 989 540 
Q 1000 540 , 1010 541 
" fill="#545FFF" />
<path d="
M 960 516 
L 942 528 
L 976 528 
L 960 516 
M 953 511 
L 967 511 
L 1010 540 
L 994 540 
L 982 531 
L 938 531 
L 925 540 
L 910 540 
L 953 511 
" fill="#339541" />
<path d="
M 994 501 
L 994 484 
L 965 484 
L 965 477 
L 1010 477 
L 1010 505 
Q 999 508 , 988 509 
Q 979 510 , 967 510 
Q 941 510 , 925 502 
Q 910 493 , 910 479 
Q 910 464 , 925 455 
Q 941 447 , 967 447 
Q 978 447 , 987 448 
Q 997 449 , 1007 452 
L 1007 460 
Q 994 457 , 986 456 
Q 977 455 , 968 455 
Q 947 455 , 936 460 
Q 926 466 , 926 479 
Q 926 491 , 936 497 
Q 947 503 , 968 503 
Q 977 503 , 984 503 
Q 991 502 , 994 501 
" fill="#F5C000" />
<path d="
M 1065 547 
L 1047 551 
L 1081 551 
L 1065 547 
M 1058 545 
L 1072 545 
L 1115 555 
L 1099 555 
L 1087 552 
L 1043 552 
L 1030 555 
L 1015 555 
L 1058 545 
" fill="#339541" />
<path d="
M 1015 534 
L 1033 534 
L 1033 540 
Q 1033 542 , 1041 543 
Q 1048 543 , 1065 543 
Q 1082 543 , 1090 543 
Q 1097 542 , 1097 540 
L 1097 534 
L 1115 534 
L 1115 540 
Q 1115 542 , 1102 543 
Q 1090 545 , 1065 545 
Q 1041 545 , 1028 543 
Q 1015 542 , 1015 540 
L 1015 534 
" fill="#D21010" />
<path d="
M 1115 521 
L 1115 523 
Q 1100 521 , 1092 521 
Q 1084 521 , 1074 521 
Q 1053 521 , 1043 522 
Q 1031 523 , 1031 526 
Q 1031 529 , 1043 530 
Q 1053 532 , 1074 532 
Q 1084 532 , 1092 532 
Q 1100 531 , 1115 530 
L 1115 532 
Q 1104 533 , 1094 533 
Q 1084 533 , 1073 533 
Q 1046 533 , 1031 532 
Q 1015 530 , 1015 526 
Q 1015 523 , 1031 521 
Q 1046 519 , 1073 519 
Q 1084 519 , 1094 519 
Q 1105 520 , 1115 521 
" fill="#545FFF" />
<path d="
M 1099 510 
L 1099 493 
L 1070 493 
L 1070 487 
L 1115 487 
L 1115 514 
Q 1104 517 , 1093 518 
Q 1084 519 , 1072 519 
Q 1046 519 , 1030 511 
Q 1015 502 , 1015 488 
Q 1015 474 , 1030 465 
Q 1046 457 , 1072 457 
Q 1083 457 , 1092 458 
Q 1102 459 , 1112 462 
L 1112 470 
Q 1099 466 , 1091 465 
Q 1082 464 , 1073 464 
Q 1052 464 , 1041 470 
Q 1031 476 , 1031 488 
Q 1031 500 , 1041 506 
Q 1052 512 , 1073 512 
Q 1082 512 , 1089 511 
Q 1096 511 , 1099 510 
" fill="#F5C000" />
<path d="
M 1120 552 
L 1138 552 
L 1138 554 
Q 1138 554 , 1146 554 
Q 1153 554 , 1170 554 
Q 1187 554 , 1195 554 
Q 1202 554 , 1202 554 
L 1202 552 
L 1220 552 
L 1220 554 
Q 1220 554 , 1207 554 
Q 1195 555 , 1170 555 
Q 1146 555 , 1133 554 
Q 1120 554 , 1120 554 
L 1120 552 
" fill="#D21010" />
<path d="
M 1204 551 
L 1204 551 
L 1175 551 
L 1175 550 
L 1220 550 
L 1220 552 
Q 1209 552 , 1198 552 
Q 1189 552 , 1177 552 
Q 1151 552 , 1135 551 
Q 1120 551 , 1120 550 
Q 1120 550 , 1135 549 
Q 1151 549 , 1177 549 
Q 1188 549 , 1197 549 
Q 1207 549 , 1217 549 
L 1217 550 
Q 1204 549 , 1196 549 
Q 1187 549 , 1178 549 
Q 1157 549 , 1146 550 
Q 1136 550 , 1136 550 
Q 1136 551 , 1146 551 
Q 1157 551 , 1178 551 
Q 1187 551 , 1194 551 
Q 1201 551 , 1204 551 
" fill="#F5C000" />
<path d="
M 1220 545 
L 1220 546 
Q 1205 546 , 1197 545 
Q 1189 545 , 1179 545 
Q 1158 545 , 1148 546 
Q 1136 546 , 1136 546 
Q 1136 547 , 1148 547 
Q 1158 548 , 1179 548 
Q 1189 548 , 1197 548 
Q 1205 548 , 1220 547 
L 1220 548 
Q 1209 548 , 1199 548 
Q 1189 548 , 1178 548 
Q 1151 548 , 1136 548 
Q 1120 547 , 1120 547 
Q 1120 546 , 1136 545 
Q 1151 545 , 1178 545 
Q 1189 545 , 1199 545 
Q 1210 545 , 1220 545 
" fill="#545FFF" />
<path d="
M 1170 540 
L 1152 542 
L 1186 542 
L 1170 540 
M 1163 539 
L 1177 539 
L 1220 545 
L 1204 545 
L 1192 543 
L 1148 543 
L 1135 545 
L 1120 545 
L 1163 539 
" fill="#339541" />
<path d="
M 1267 554 
L 1267 554 
L 1253 554 
L 1253 554 
L 1275 554 
L 1275 554 
Q 1270 554 , 1264 554 
Q 1259 554 , 1253 554 
Q 1240 554 , 1233 554 
Q 1225 554 , 1225 554 
Q 1225 553 , 1233 553 
Q 1240 553 , 1253 553 
Q 1259 553 , 1264 553 
Q 1269 553 , 1274 553 
L 1274 553 
Q 1267 553 , 1263 553 
Q 1259 553 , 1254 553 
Q 1244 553 , 1238 553 
Q 1233 553 , 1233 554 
Q 1233 554 , 1238 554 
Q 1244 554 , 1254 554 
Q 1259 554 , 1262 554 
Q 1266 554 , 1267 554 
" fill="lightgray" />
<path d="
M 1275 553 
L 1284 553 
L 1284 554 
Q 1284 554 , 1288 554 
Q 1291 554 , 1300 554 
Q 1309 554 , 1312 554 
Q 1316 554 , 1316 554 
L 1316 553 
L 1325 553 
L 1325 554 
Q 1325 554 , 1319 554 
Q 1312 554 , 1300 554 
Q 1288 554 , 1281 554 
Q 1275 554 , 1275 554 
L 1275 553 
" fill="#D21010" />
<path d="
M 1225 548 
L 1234 548 
L 1234 550 
Q 1234 551 , 1238 551 
Q 1241 552 , 1250 552 
Q 1259 552 , 1262 551 
Q 1266 551 , 1266 550 
L 1266 548 
L 1275 548 
L 1275 551 
Q 1275 551 , 1269 552 
Q 1262 552 , 1250 552 
Q 1238 552 , 1231 552 
Q 1225 551 , 1225 551 
L 1225 548 
" fill="lightgray" />
<path d="
M 1300 549 
L 1291 550 
L 1308 550 
L 1300 549 
M 1296 548 
L 1304 548 
L 1325 552 
L 1317 552 
L 1311 551 
L 1289 551 
L 1282 552 
L 1275 552 
L 1296 548 
" fill="#339541" />
<path d="
M 1267 546 
L 1267 544 
L 1253 544 
L 1253 544 
L 1275 544 
L 1275 547 
Q 1270 547 , 1264 547 
Q 1259 548 , 1253 548 
Q 1240 548 , 1233 547 
Q 1225 546 , 1225 544 
Q 1225 542 , 1233 541 
Q 1240 540 , 1253 540 
Q 1259 540 , 1264 540 
Q 1269 540 , 1274 541 
L 1274 542 
Q 1267 541 , 1263 541 
Q 1259 541 , 1254 541 
Q 1244 541 , 1238 542 
Q 1233 542 , 1233 544 
Q 1233 545 , 1238 546 
Q 1244 547 , 1254 547 
Q 1259 547 , 1262 547 
Q 1266 547 , 1267 546 
" fill="lightgray" />
<path d="
M 1325 541 
L 1325 542 
Q 1318 541 , 1314 541 
Q 1309 541 , 1304 541 
Q 1294 541 , 1289 542 
Q 1283 542 , 1283 543 
Q 1283 545 , 1289 546 
Q 1294 547 , 1304 547 
Q 1309 547 , 1314 547 
Q 1318 546 , 1325 546 
L 1325 547 
Q 1320 547 , 1314 547 
Q 1310 548 , 1304 548 
Q 1290 548 , 1283 547 
Q 1275 546 , 1275 544 
Q 1275 542 , 1283 541 
Q 1290 540 , 1304 540 
Q 1310 540 , 1315 540 
Q 1320 540 , 1325 541 
" fill="#545FFF" />
<path d="
M 1225 528 
L 1234 528 
L 1234 535 
Q 1234 537 , 1238 538 
Q 1241 539 , 1250 539 
Q 1259 539 , 1262 538 
Q 1266 537 , 1266 535 
L 1266 528 
L 1275 528 
L 1275 535 
Q 1275 538 , 1269 539 
Q 1262 540 , 1250 540 
Q 1238 540 , 1231 539 
Q 1225 538 , 1225 535 
L 1225 528 
" fill="lightgray" />
<path d="
M 1317 538 
L 1317 535 
L 1303 535 
L 1303 534 
L 1325 534 
L 1325 539 
Q 1320 540 , 1314 540 
Q 1309 540 , 1303 540 
Q 1290 540 , 1283 538 
Q 1275 537 , 1275 534 
Q 1275 531 , 1283 530 
Q 1290 528 , 1303 528 
Q 1309 528 , 1314 528 
Q 1319 528 , 1324 529 
L 1324 531 
Q 1317 530 , 1313 530 
Q 1309 529 , 1304 529 
Q 1294 529 , 1288 531 
Q 1283 532 , 1283 534 
Q 1283 536 , 1288 538 
Q 1294 539 , 1304 539 
Q 1309 539 , 1312 539 
Q 1316 538 , 1317 538 
" fill="#F5C000" />
<path d="
M 1250 516 
L 1241 522 
L 1258 522 
L 1250 516 
M 1246 514 
L 1254 514 
L 1275 527 
L 1267 527 
L 1261 523 
L 1239 523 
L 1232 527 
L 1225 527 
L 1246 514 
" fill="lightgray" />
<path d="
M 1275 514 
L 1284 514 
L 1284 522 
Q 1284 524 , 1288 525 
Q 1291 526 , 1300 526 
Q 1309 526 , 1312 525 
Q 1316 524 , 1316 522 
L 1316 514 
L 1325 514 
L 1325 522 
Q 1325 524 , 1319 526 
Q 1312 527 , 1300 527 
Q 1288 527 , 1281 526 
Q 1275 524 , 1275 522 
L 1275 514 
" fill="#D21010" />
<path d="
M 1275 501 
L 1275 503 
Q 1268 502 , 1264 502 
Q 1259 501 , 1254 501 
Q 1244 501 , 1239 503 
Q 1233 504 , 1233 506 
Q 1233 509 , 1239 510 
Q 1244 512 , 1254 512 
Q 1259 512 , 1264 511 
Q 1268 511 , 1275 510 
L 1275 512 
Q 1270 513 , 1264 513 
Q 1260 513 , 1254 513 
Q 1240 513 , 1233 511 
Q 1225 510 , 1225 507 
Q 1225 504 , 1233 502 
Q 1240 500 , 1254 500 
Q 1260 500 , 1265 500 
Q 1270 501 , 1275 501 
" fill="lightgray" />
<path d="
M 1317 511 
L 1317 508 
L 1303 508 
L 1303 506 
L 1325 506 
L 1325 512 
Q 1320 513 , 1314 513 
Q 1309 513 , 1303 513 
Q 1290 513 , 1283 511 
Q 1275 510 , 1275 507 
Q 1275 504 , 1283 502 
Q 1290 500 , 1303 500 
Q 1309 500 , 1314 500 
Q 1319 500 , 1324 501 
L 1324 503 
Q 1317 502 , 1313 502 
Q 1309 502 , 1304 502 
Q 1294 502 , 1288 503 
Q 1283 504 , 1283 507 
Q 1283 509 , 1288 510 
Q 1294 512 , 1304 512 
Q 1309 512 , 1312 512 
Q 1316 511 , 1317 511 
" fill="#F5C000" />
<path d="
M 1430 554 
L 1430 554 
Q 1415 554 , 1407 554 
Q 1399 554 , 1389 554 
Q 1368 554 , 1358 554 
Q 1346 554 , 1346 554 
Q 1346 554 , 1358 555 
Q 1368 555 , 1389 555 
Q 1399 555 , 1407 555 
Q 1415 555 , 1430 555 
L 1430 555 
Q 1419 555 , 1409 555 
Q 1399 555 , 1388 555 
Q 1361 555 , 1346 555 
Q 1330 555 , 1330 554 
Q 1330 554 , 1346 554 
Q 1361 554 , 1388 554 
Q 1399 554 , 1409 554 
Q 1420 554 , 1430 554 
" fill="#545FFF" />
<path d="
M 1330 553 
L 1348 553 
L 1348 554 
Q 1348 554 , 1356 554 
Q 1363 554 , 1380 554 
Q 1397 554 , 1405 554 
Q 1412 554 , 1412 554 
L 1412 553 
L 1430 553 
L 1430 554 
Q 1430 554 , 1417 554 
Q 1405 554 , 1380 554 
Q 1356 554 , 1343 554 
Q 1330 554 , 1330 554 
L 1330 553 
" fill="#D21010" />
<path d="
M 1414 552 
L 1414 552 
L 1385 552 
L 1385 551 
L 1430 551 
L 1430 552 
Q 1419 552 , 1408 552 
Q 1399 552 , 1387 552 
Q 1361 552 , 1345 552 
Q 1330 552 , 1330 552 
Q 1330 551 , 1345 551 
Q 1361 551 , 1387 551 
Q 1398 551 , 1407 551 
Q 1417 551 , 1427 551 
L 1427 551 
Q 1414 551 , 1406 551 
Q 1397 551 , 1388 551 
Q 1367 551 , 1356 551 
Q 1346 551 , 1346 552 
Q 1346 552 , 1356 552 
Q 1367 552 , 1388 552 
Q 1397 552 , 1404 552 
Q 1411 552 , 1414 552 
" fill="#F5C000" />
<path d="
M 1380 549 
L 1362 550 
L 1396 550 
L 1380 549 
M 1373 549 
L 1387 549 
L 1430 550 
L 1414 550 
L 1402 550 
L 1358 550 
L 1345 550 
L 1330 550 
L 1373 549 
" fill="#339541" />
<path d="M 65 168 L 65 555 " stroke="black" stroke-width="1.5"/>
<path d="M 55 555 L 65 555 " stroke="black" stroke-width="4"/>
<text text-anchor="end" x="50" y="555" font-size="50" alignment-baseline="middle">0</text>
<path d="M 55 362 L 65 362 " stroke="black" stroke-width="4"/>
<text text-anchor="end" x="50" y="362" font-size="50" alignment-baseline="middle">1</text>
<path d="M 55 168 L 65 168 " stroke="black" stroke-width="4"/>
<text text-anchor="end" x="50" y="168" font-size="50" alignment-baseline="middle">2</text>
<text text-anchor="middle" x="750" y="50" font-size="50" alignment-baseline="baseline"></text>
G<path d="
M 160 582 
L 126 595 
L 160 608 
L 157 611 
L 123 598 
L 123 623 
L 117 623 
L 117 599 
L 83 611 
L 80 608 
L 114 595 
L 80 582 
L 83 579 
L 117 591 
L 117 567 
L 123 567 
L 123 591 
L 157 579 
L 160 582 
" fill="black" />
<path d="
M 265 567 
Q 236 574 , 223 581 
Q 210 588 , 210 595 
Q 210 602 , 223 609 
Q 236 616 , 265 623 
L 241 623 
Q 213 616 , 199 609 
Q 185 602 , 185 595 
Q 185 588 , 199 581 
Q 213 574 , 241 567 
L 265 567 
" fill="black" />
<path d="
" fill="black" />
<path d="
M 316 567 
L 343 567 
L 343 623 
L 316 623 
L 316 567 
" fill="black" />
<path d="
" fill="black" />
<path d="
" fill="black" />
<path d="
M 421 567 
L 448 567 
L 448 623 
L 421 623 
L 421 567 
" fill="black" />
<path d="
" fill="black" />
<path d="
" fill="black" />
<path d="
M 526 567 
L 553 567 
L 553 623 
L 526 623 
L 526 567 
" fill="black" />
<path d="
" fill="black" />
<path d="
" fill="black" />
<path d="
M 622 567 
L 642 567 
L 642 623 
L 622 623 
L 622 567 
" fill="black" />
<path d="
" fill="black" />
<path d="
M 682 595 
Q 679 595 , 677 599 
Q 675 602 , 675 607 
Q 675 613 , 677 616 
Q 679 619 , 682 619 
Q 685 619 , 687 616 
Q 689 613 , 689 607 
Q 689 602 , 687 599 
Q 685 595 , 682 595 
M 677 593 
Q 675 592 , 674 589 
Q 673 586 , 673 581 
Q 673 575 , 675 571 
Q 678 567 , 682 567 
Q 686 567 , 689 571 
Q 691 575 , 691 581 
Q 691 586 , 690 589 
Q 688 592 , 687 593 
Q 689 594 , 690 598 
Q 692 601 , 692 607 
Q 692 614 , 689 619 
Q 687 623 , 682 623 
Q 677 623 , 675 619 
Q 672 614 , 672 607 
Q 672 601 , 674 598 
Q 675 594 , 677 593 
M 677 573 
Q 675 576 , 675 581 
Q 675 586 , 677 589 
Q 679 592 , 682 592 
Q 685 592 , 687 589 
Q 689 586 , 689 581 
Q 689 576 , 687 574 
Q 685 571 , 682 571 
Q 679 571 , 677 573 
" fill="black" />
<path d="
M 790 582 
L 756 595 
L 790 608 
L 787 611 
L 753 598 
L 753 623 
L 747 623 
L 747 599 
L 713 611 
L 710 608 
L 744 595 
L 710 582 
L 713 579 
L 747 591 
L 747 567 
L 753 567 
L 753 591 
L 787 579 
L 790 582 
" fill="black" />
<path d="
" fill="black" />
<path d="
M 841 567 
L 868 567 
L 868 623 
L 841 623 
L 841 567 
" fill="black" />
<path d="
" fill="black" />
<path d="
" fill="black" />
<path d="
M 946 567 
L 973 567 
L 973 623 
L 946 623 
L 946 567 
" fill="black" />
<path d="
" fill="black" />
<path d="
" fill="black" />
<path d="
M 1051 567 
L 1078 567 
L 1078 623 
L 1051 623 
L 1051 567 
" fill="black" />
<path d="
" fill="black" />
<path d="
" fill="black" />
<path d="
M 1156 567 
L 1183 567 
L 1183 623 
L 1156 623 
L 1156 567 
" fill="black" />
<path d="
" fill="black" />
<path d="
M 1235 567 
L 1259 567 
Q 1287 574 , 1301 581 
Q 1315 588 , 1315 595 
Q 1315 602 , 1301 609 
Q 1287 616 , 1259 623 
L 1235 623 
Q 1264 616 , 1277 609 
Q 1290 602 , 1290 595 
Q 1290 588 , 1277 581 
Q 1264 574 , 1235 567 
" fill="black" />
<path d="
M 1420 582 
L 1386 595 
L 1420 608 
L 1417 611 
L 1383 598 
L 1383 623 
L 1377 623 
L 1377 599 
L 1343 611 
L 1340 608 
L 1374 595 
L 1340 582 
L 1343 579 
L 1377 591 
L 1377 567 
L 1383 567 
L 1383 591 
L 1417 579 
L 1420 582 
" fill="black" />
</svg>
