<svg xmlns="http://www.w3.org/2000/svg"
viewBox="0 0 1435 635">
<path d="
M 170 554 
L 170 554 
Q 155 554 , 147 554 
Q 139 554 , 129 554 
Q 108 554 , 98 554 
Q 86 554 , 86 554 
Q 86 554 , 98 555 
Q 108 555 , 129 555 
Q 139 555 , 147 555 
Q 155 555 , 170 555 
L 170 555 
Q 159 555 , 149 555 
Q 139 555 , 128 555 
Q 101 555 , 86 555 
Q 70 555 , 70 554 
Q 70 554 , 86 554 
Q 101 554 , 128 554 
Q 139 554 , 149 554 
Q 160 554 , 170 554 
" fill="#545FFF" />
<path d="
M 70 553 
L 88 553 
L 88 554 
Q 88 554 , 96 554 
Q 103 554 , 120 554 
Q 137 554 , 145 554 
Q 152 554 , 152 554 
L 152 553 
L 170 553 
L 170 554 
Q 170 554 , 157 554 
Q 145 554 , 120 554 
Q 96 554 , 83 554 
Q 70 554 , 70 554 
L 70 553 
" fill="#D21010" />
<path d="
M 154 552 
L 154 552 
L 125 552 
L 125 552 
L 170 552 
L 170 552 
Q 159 552 , 148 552 
Q 139 552 , 127 552 
Q 101 552 , 85 552 
Q 70 552 , 70 552 
Q 70 551 , 85 551 
Q 101 551 , 127 551 
Q 138 551 , 147 551 
Q 157 551 , 167 551 
L 167 551 
Q 154 551 , 146 551 
Q 137 551 , 128 551 
Q 107 551 , 96 551 
Q 86 551 , 86 552 
Q 86 552 , 96 552 
Q 107 552 , 128 552 
Q 137 552 , 144 552 
Q 151 552 , 154 552 
" fill="#F5C000" />
<path d="
M 120 549 
L 102 550 
L 136 550 
L 120 549 
M 113 549 
L 127 549 
L 170 550 
L 154 550 
L 142 550 
L 98 550 
L 85 550 
L 70 550 
L 113 549 
" fill="#339541" />
<path d="
M 275 551 
L 275 552 
Q 260 552 , 252 551 
Q 244 551 , 234 551 
Q 213 551 , 203 552 
Q 191 552 , 191 553 
Q 191 554 , 203 554 
Q 213 554 , 234 554 
Q 244 554 , 252 554 
Q 260 554 , 275 554 
L 275 554 
Q 264 554 , 254 555 
Q 244 555 , 233 555 
Q 206 555 , 191 554 
Q 175 554 , 175 553 
Q 175 552 , 191 551 
Q 206 551 , 233 551 
Q 244 551 , 254 551 
Q 265 551 , 275 551 
" fill="#545FFF" />
<path d="
M 225 544 
L 207 547 
L 241 547 
L 225 544 
M 218 543 
L 232 543 
L 275 551 
L 259 551 
L 247 548 
L 203 548 
L 190 551 
L 175 551 
L 218 543 
" fill="#339541" />
<path d="
M 175 534 
L 193 534 
L 193 539 
Q 193 540 , 201 541 
Q 208 541 , 225 541 
Q 242 541 , 250 541 
Q 257 540 , 257 539 
L 257 534 
L 275 534 
L 275 539 
Q 275 541 , 262 542 
Q 250 542 , 225 542 
Q 201 542 , 188 542 
Q 175 541 , 175 539 
L 175 534 
" fill="#D21010" />
<path d="
M 259 531 
L 259 527 
L 230 527 
L 230 525 
L 275 525 
L 275 532 
Q 264 533 , 253 533 
Q 244 534 , 232 534 
Q 206 534 , 190 531 
Q 175 529 , 175 525 
Q 175 521 , 190 519 
Q 206 517 , 232 517 
Q 243 517 , 252 517 
Q 262 518 , 272 518 
L 272 520 
Q 259 520 , 251 519 
Q 242 519 , 233 519 
Q 212 519 , 201 521 
Q 191 522 , 191 525 
Q 191 529 , 201 530 
Q 212 532 , 233 532 
Q 242 532 , 249 532 
Q 256 531 , 259 531 
" fill="#F5C000" />
<path d="
M 380 552 
L 380 553 
Q 365 552 , 357 552 
Q 349 552 , 339 552 
Q 318 552 , 308 553 
Q 296 553 , 296 553 
Q 296 554 , 308 554 
Q 318 554 , 339 554 
Q 349 554 , 357 554 
Q 365 554 , 380 554 
L 380 554 
Q 369 554 , 359 554 
Q 349 555 , 338 555 
Q 311 555 , 296 554 
Q 280 554 , 280 553 
Q 280 553 , 296 552 
Q 311 552 , 338 552 
Q 349 552 , 359 552 
Q 370 552 , 380 552 
" fill="#545FFF" />
<path d="
M 330 541 
L 312 546 
L 346 546 
L 330 541 
M 323 538 
L 337 538 
L 380 552 
L 364 552 
L 352 548 
L 308 548 
L 295 552 
L 280 552 
L 323 538 
" fill="#339541" />
<path d="
M 280 524 
L 298 524 
L 298 532 
Q 298 534 , 306 535 
Q 313 536 , 330 536 
Q 347 536 , 355 535 
Q 362 534 , 362 532 
L 362 524 
L 380 524 
L 380 532 
Q 380 535 , 367 536 
Q 355 538 , 330 538 
Q 306 538 , 293 536 
Q 280 535 , 280 532 
L 280 524 
" fill="#D21010" />
<path d="
M 364 520 
L 364 513 
L 335 513 
L 335 510 
L 380 510 
L 380 522 
Q 369 523 , 358 524 
Q 349 524 , 337 524 
Q 311 524 , 295 520 
Q 280 517 , 280 511 
Q 280 505 , 295 501 
Q 311 498 , 337 498 
Q 348 498 , 357 498 
Q 367 499 , 377 500 
L 377 503 
Q 364 502 , 356 502 
Q 347 501 , 338 501 
Q 317 501 , 306 504 
Q 296 506 , 296 511 
Q 296 516 , 306 519 
Q 317 521 , 338 521 
Q 347 521 , 354 521 
Q 361 521 , 364 520 
" fill="#F5C000" />
<path d="
M 385 553 
L 394 553 
L 394 554 
Q 394 554 , 398 554 
Q 401 554 , 410 554 
Q 419 554 , 422 554 
Q 426 554 , 426 554 
L 426 553 
L 435 553 
L 435 554 
Q 435 554 , 429 554 
Q 422 554 , 410 554 
Q 398 554 , 391 554 
Q 385 554 , 385 554 
L 385 553 
" fill="#D21010" />
<path d="
M 460 553 
L 451 554 
L 468 554 
L 460 553 
M 456 553 
L 464 553 
L 485 554 
L 477 554 
L 471 554 
L 449 554 
L 442 554 
L 435 554 
L 456 553 
" fill="lightgray" />
<path d="
M 435 549 
L 435 550 
Q 428 550 , 424 549 
Q 419 549 , 414 549 
Q 404 549 , 399 550 
Q 393 550 , 393 550 
Q 393 551 , 399 552 
Q 404 552 , 414 552 
Q 419 552 , 424 552 
Q 428 552 , 435 552 
L 435 552 
Q 430 552 , 424 552 
Q 420 553 , 414 553 
Q 400 553 , 393 552 
Q 385 552 , 385 551 
Q 385 550 , 393 549 
Q 400 549 , 414 549 
Q 420 549 , 425 549 
Q 430 549 , 435 549 
" fill="#545FFF" />
<path d="
M 477 552 
L 477 551 
L 463 551 
L 463 551 
L 485 551 
L 485 552 
Q 480 552 , 474 552 
Q 469 553 , 463 553 
Q 450 553 , 443 552 
Q 435 552 , 435 551 
Q 435 550 , 443 549 
Q 450 549 , 463 549 
Q 469 549 , 474 549 
Q 479 549 , 484 549 
L 484 550 
Q 477 550 , 473 549 
Q 469 549 , 464 549 
Q 454 549 , 448 550 
Q 443 550 , 443 551 
Q 443 551 , 448 552 
Q 454 552 , 464 552 
Q 469 552 , 472 552 
Q 476 552 , 477 552 
" fill="lightgray" />
<path d="
M 385 542 
L 394 542 
L 394 546 
Q 394 547 , 398 548 
Q 401 548 , 410 548 
Q 419 548 , 422 548 
Q 426 547 , 426 546 
L 426 542 
L 435 542 
L 435 546 
Q 435 548 , 429 548 
Q 422 549 , 410 549 
Q 398 549 , 391 548 
Q 385 548 , 385 546 
L 385 542 
" fill="#D21010" />
<path d="
M 477 548 
L 477 546 
L 463 546 
L 463 545 
L 485 545 
L 485 548 
Q 480 549 , 474 549 
Q 469 549 , 463 549 
Q 450 549 , 443 548 
Q 435 547 , 435 545 
Q 435 544 , 443 543 
Q 450 542 , 463 542 
Q 469 542 , 474 542 
Q 479 542 , 484 543 
L 484 543 
Q 477 543 , 473 543 
Q 469 543 , 464 543 
Q 454 543 , 448 543 
Q 443 544 , 443 545 
Q 443 547 , 448 548 
Q 454 548 , 464 548 
Q 469 548 , 472 548 
Q 476 548 , 477 548 
" fill="lightgray" />
<path d="
M 427 538 
L 427 532 
L 413 532 
L 413 529 
L 435 529 
L 435 540 
Q 430 541 , 424 541 
Q 419 541 , 413 541 
Q 400 541 , 393 538 
Q 385 535 , 385 530 
Q 385 524 , 393 521 
Q 400 518 , 413 518 
Q 419 518 , 424 518 
Q 429 519 , 434 520 
L 434 523 
Q 427 522 , 423 521 
Q 419 521 , 414 521 
Q 404 521 , 398 523 
Q 393 525 , 393 530 
Q 393 534 , 398 537 
Q 404 539 , 414 539 
Q 419 539 , 422 539 
Q 426 538 , 427 538 
" fill="#F5C000" />
<path d="
M 435 518 
L 444 518 
L 444 532 
Q 444 536 , 448 537 
Q 451 539 , 460 539 
Q 469 539 , 472 537 
Q 476 536 , 476 532 
L 476 518 
L 485 518 
L 485 532 
Q 485 537 , 479 539 
Q 472 541 , 460 541 
Q 448 541 , 441 539 
Q 435 537 , 435 532 
L 435 518 
" fill="lightgray" />
<path d="
M 410 487 
L 401 502 
L 418 502 
L 410 487 
M 406 480 
L 414 480 
L 435 517 
L 427 517 
L 421 506 
L 399 506 
L 392 517 
L 385 517 
L 406 480 
" fill="#339541" />
<path d="
M 435 480 
L 444 480 
L 444 502 
Q 444 508 , 448 511 
Q 451 513 , 460 513 
Q 469 513 , 472 511 
Q 476 508 , 476 502 
L 476 480 
L 485 480 
L 485 502 
Q 485 510 , 479 513 
Q 472 517 , 460 517 
Q 448 517 , 441 513 
Q 435 510 , 435 502 
L 435 480 
" fill="lightgray" />
<path d="
M 427 471 
L 427 454 
L 413 454 
L 413 447 
L 435 447 
L 435 475 
Q 430 478 , 424 479 
Q 419 480 , 413 480 
Q 400 480 , 393 471 
Q 385 463 , 385 448 
Q 385 434 , 393 425 
Q 400 417 , 413 417 
Q 419 417 , 424 418 
Q 429 419 , 434 422 
L 434 430 
Q 427 427 , 423 425 
Q 419 424 , 414 424 
Q 404 424 , 398 430 
Q 393 436 , 393 448 
Q 393 461 , 398 467 
Q 404 473 , 414 473 
Q 419 473 , 422 472 
Q 426 471 , 427 471 
" fill="#F5C000" />
<path d="
M 485 424 
L 485 433 
Q 478 427 , 474 426 
Q 469 424 , 464 424 
Q 454 424 , 449 430 
Q 443 436 , 443 448 
Q 443 461 , 449 467 
Q 454 473 , 464 473 
Q 469 473 , 474 471 
Q 478 470 , 485 463 
L 485 473 
Q 480 477 , 474 478 
Q 470 480 , 464 480 
Q 450 480 , 443 471 
Q 435 463 , 435 448 
Q 435 434 , 443 426 
Q 450 417 , 464 417 
Q 470 417 , 475 419 
Q 480 420 , 485 424 
" fill="lightgray" />
<path d="
M 515 552 
L 506 553 
L 523 553 
L 515 552 
M 511 551 
L 519 551 
L 540 555 
L 532 555 
L 526 554 
L 504 554 
L 497 555 
L 490 555 
L 511 551 
" fill="#339541" />
<path d="
M 540 551 
L 549 551 
L 549 553 
Q 549 554 , 553 554 
Q 556 554 , 565 554 
Q 574 554 , 577 554 
Q 581 554 , 581 553 
L 581 551 
L 590 551 
L 590 553 
Q 590 554 , 584 554 
Q 577 555 , 565 555 
Q 553 555 , 546 554 
Q 540 554 , 540 553 
L 540 551 
" fill="lightgray" />
<path d="
M 490 547 
L 499 547 
L 499 549 
Q 499 550 , 503 550 
Q 506 550 , 515 550 
Q 524 550 , 527 550 
Q 531 550 , 531 549 
L 531 547 
L 540 547 
L 540 549 
Q 540 550 , 534 550 
Q 527 551 , 515 551 
Q 503 551 , 496 550 
Q 490 550 , 490 549 
L 490 547 
" fill="#D21010" />
<path d="
M 565 548 
L 556 549 
L 573 549 
L 565 548 
M 561 547 
L 569 547 
L 590 551 
L 582 551 
L 576 550 
L 554 550 
L 547 551 
L 540 551 
L 561 547 
" fill="lightgray" />
<path d="
M 532 546 
L 532 545 
L 518 545 
L 518 544 
L 540 544 
L 540 546 
Q 535 547 , 529 547 
Q 524 547 , 518 547 
Q 505 547 , 498 546 
Q 490 546 , 490 544 
Q 490 543 , 498 543 
Q 505 542 , 518 542 
Q 524 542 , 529 542 
Q 534 542 , 539 542 
L 539 543 
Q 532 543 , 528 543 
Q 524 543 , 519 543 
Q 509 543 , 503 543 
Q 498 543 , 498 544 
Q 498 545 , 503 546 
Q 509 546 , 519 546 
Q 524 546 , 527 546 
Q 531 546 , 532 546 
" fill="#F5C000" />
<path d="
M 540 542 
L 549 542 
L 549 545 
Q 549 546 , 553 546 
Q 556 546 , 565 546 
Q 574 546 , 577 546 
Q 581 546 , 581 545 
L 581 542 
L 590 542 
L 590 545 
Q 590 546 , 584 546 
Q 577 547 , 565 547 
Q 553 547 , 546 546 
Q 540 546 , 540 545 
L 540 542 
" fill="lightgray" />
<path d="
M 540 531 
L 540 533 
Q 533 532 , 529 532 
Q 524 531 , 519 531 
Q 509 531 , 504 532 
Q 498 534 , 498 536 
Q 498 538 , 504 539 
Q 509 540 , 519 540 
Q 524 540 , 529 540 
Q 533 540 , 540 538 
L 540 540 
Q 535 541 , 529 541 
Q 525 541 , 519 541 
Q 505 541 , 498 540 
Q 490 538 , 490 536 
Q 490 533 , 498 532 
Q 505 530 , 519 530 
Q 525 530 , 530 530 
Q 535 531 , 540 531 
" fill="#545FFF" />
<path d="
M 582 540 
L 582 537 
L 568 537 
L 568 535 
L 590 535 
L 590 541 
Q 585 541 , 579 541 
Q 574 541 , 568 541 
Q 555 541 , 548 540 
Q 540 538 , 540 536 
Q 540 533 , 548 532 
Q 555 530 , 568 530 
Q 574 530 , 579 530 
Q 584 530 , 589 531 
L 589 532 
Q 582 532 , 578 532 
Q 574 531 , 569 531 
Q 559 531 , 553 532 
Q 548 534 , 548 536 
Q 548 538 , 553 539 
Q 559 540 , 569 540 
Q 574 540 , 577 540 
Q 581 540 , 582 540 
" fill="lightgray" />
<path d="
M 490 512 
L 499 512 
L 499 522 
Q 499 525 , 503 526 
Q 506 528 , 515 528 
Q 524 528 , 527 526 
Q 531 525 , 531 522 
L 531 512 
L 540 512 
L 540 523 
Q 540 526 , 534 528 
Q 527 529 , 515 529 
Q 503 529 , 496 528 
Q 490 526 , 490 523 
L 490 512 
" fill="#D21010" />
<path d="
M 582 527 
L 582 522 
L 568 522 
L 568 520 
L 590 520 
L 590 528 
Q 585 529 , 579 529 
Q 574 529 , 568 529 
Q 555 529 , 548 527 
Q 540 525 , 540 521 
Q 540 517 , 548 514 
Q 555 512 , 568 512 
Q 574 512 , 579 512 
Q 584 513 , 589 513 
L 589 516 
Q 582 515 , 578 514 
Q 574 514 , 569 514 
Q 559 514 , 553 516 
Q 548 517 , 548 521 
Q 548 524 , 553 526 
Q 559 528 , 569 528 
Q 574 528 , 577 527 
Q 581 527 , 582 527 
" fill="lightgray" />
<path d="
M 532 509 
L 532 503 
L 518 503 
L 518 501 
L 540 501 
L 540 510 
Q 535 511 , 529 511 
Q 524 511 , 518 511 
Q 505 511 , 498 509 
Q 490 506 , 490 502 
Q 490 497 , 498 495 
Q 505 492 , 518 492 
Q 524 492 , 529 492 
Q 534 493 , 539 494 
L 539 496 
Q 532 495 , 528 495 
Q 524 494 , 519 494 
Q 509 494 , 503 496 
Q 498 498 , 498 502 
Q 498 506 , 503 507 
Q 509 509 , 519 509 
Q 524 509 , 527 509 
Q 531 509 , 532 509 
" fill="#F5C000" />
<path d="
M 590 494 
L 590 497 
Q 583 495 , 579 495 
Q 574 494 , 569 494 
Q 559 494 , 554 496 
Q 548 498 , 548 501 
Q 548 505 , 554 507 
Q 559 509 , 569 509 
Q 574 509 , 579 509 
Q 583 508 , 590 506 
L 590 509 
Q 585 510 , 579 511 
Q 575 511 , 569 511 
Q 555 511 , 548 509 
Q 540 506 , 540 502 
Q 540 497 , 548 495 
Q 555 492 , 569 492 
Q 575 492 , 580 492 
Q 585 493 , 590 494 
" fill="lightgray" />
<path d="
M 595 552 
L 613 552 
L 613 554 
Q 613 554 , 621 554 
Q 628 554 , 645 554 
Q 662 554 , 670 554 
Q 677 554 , 677 554 
L 677 552 
L 695 552 
L 695 554 
Q 695 554 , 682 554 
Q 670 555 , 645 555 
Q 621 555 , 608 554 
Q 595 554 , 595 554 
L 595 552 
" fill="#D21010" />
<path d="
M 695 546 
L 695 547 
Q 680 546 , 672 546 
Q 664 546 , 654 546 
Q 633 546 , 623 546 
Q 611 547 , 611 548 
Q 611 549 , 623 550 
Q 633 550 , 654 550 
Q 664 550 , 672 550 
Q 680 550 , 695 550 
L 695 551 
Q 684 551 , 674 551 
Q 664 551 , 653 551 
Q 626 551 , 611 550 
Q 595 549 , 595 548 
Q 595 547 , 611 546 
Q 626 545 , 653 545 
Q 664 545 , 674 545 
Q 685 545 , 695 546 
" fill="#545FFF" />
<path d="
M 645 538 
L 627 541 
L 661 541 
L 645 538 
M 638 537 
L 652 537 
L 695 544 
L 679 544 
L 667 542 
L 623 542 
L 610 544 
L 595 544 
L 638 537 
" fill="#339541" />
<path d="
M 679 535 
L 679 532 
L 650 532 
L 650 531 
L 695 531 
L 695 536 
Q 684 536 , 673 537 
Q 664 537 , 652 537 
Q 626 537 , 610 535 
Q 595 534 , 595 531 
Q 595 529 , 610 527 
Q 626 526 , 652 526 
Q 663 526 , 672 526 
Q 682 526 , 692 527 
L 692 528 
Q 679 528 , 671 527 
Q 662 527 , 653 527 
Q 632 527 , 621 528 
Q 611 529 , 611 531 
Q 611 534 , 621 535 
Q 632 536 , 653 536 
Q 662 536 , 669 536 
Q 676 535 , 679 535 
" fill="#F5C000" />
<path d="
M 800 554 
L 800 554 
Q 785 554 , 777 554 
Q 769 554 , 759 554 
Q 738 554 , 728 554 
Q 716 554 , 716 554 
Q 716 554 , 728 555 
Q 738 555 , 759 555 
Q 769 555 , 777 555 
Q 785 555 , 800 555 
L 800 555 
Q 789 555 , 779 555 
Q 769 555 , 758 555 
Q 731 555 , 716 555 
Q 700 555 , 700 554 
Q 700 554 , 716 554 
Q 731 554 , 758 554 
Q 769 554 , 779 554 
Q 790 554 , 800 554 
" fill="#545FFF" />
<path d="
M 700 553 
L 718 553 
L 718 554 
Q 718 554 , 726 554 
Q 733 554 , 750 554 
Q 767 554 , 775 554 
Q 782 554 , 782 554 
L 782 553 
L 800 553 
L 800 554 
Q 800 554 , 787 554 
Q 775 554 , 750 554 
Q 726 554 , 713 554 
Q 700 554 , 700 554 
L 700 553 
" fill="#D21010" />
<path d="
M 784 552 
L 784 552 
L 755 552 
L 755 552 
L 800 552 
L 800 552 
Q 789 552 , 778 552 
Q 769 552 , 757 552 
Q 731 552 , 715 552 
Q 700 552 , 700 552 
Q 700 551 , 715 551 
Q 731 551 , 757 551 
Q 768 551 , 777 551 
Q 787 551 , 797 551 
L 797 551 
Q 784 551 , 776 551 
Q 767 551 , 758 551 
Q 737 551 , 726 551 
Q 716 551 , 716 552 
Q 716 552 , 726 552 
Q 737 552 , 758 552 
Q 767 552 , 774 552 
Q 781 552 , 784 552 
" fill="#F5C000" />
<path d="
M 750 549 
L 732 550 
L 766 550 
L 750 549 
M 743 549 
L 757 549 
L 800 550 
L 784 550 
L 772 550 
L 728 550 
L 715 550 
L 700 550 
L 743 549 
" fill="#339541" />
<path d="
M 889 555 
L 889 554 
L 860 554 
L 860 553 
L 905 553 
L 905 555 
Q 894 555 , 883 555 
Q 874 555 , 862 555 
Q 836 555 , 820 555 
Q 805 554 , 805 553 
Q 805 553 , 820 552 
Q 836 552 , 862 552 
Q 873 552 , 882 552 
Q 892 552 , 902 552 
L 902 553 
Q 889 552 , 881 552 
Q 872 552 , 863 552 
Q 842 552 , 831 553 
Q 821 553 , 821 553 
Q 821 554 , 831 554 
Q 842 555 , 863 555 
Q 872 555 , 879 555 
Q 886 555 , 889 555 
" fill="#F5C000" />
<path d="
M 905 547 
L 905 548 
Q 890 548 , 882 548 
Q 874 547 , 864 547 
Q 843 547 , 833 548 
Q 821 548 , 821 549 
Q 821 550 , 833 550 
Q 843 551 , 864 551 
Q 874 551 , 882 551 
Q 890 550 , 905 550 
L 905 551 
Q 894 551 , 884 551 
Q 874 551 , 863 551 
Q 836 551 , 821 551 
Q 805 550 , 805 549 
Q 805 548 , 821 548 
Q 836 547 , 863 547 
Q 874 547 , 884 547 
Q 895 547 , 905 547 
" fill="#545FFF" />
<path d="
M 805 542 
L 823 542 
L 823 545 
Q 823 545 , 831 546 
Q 838 546 , 855 546 
Q 872 546 , 880 546 
Q 887 545 , 887 545 
L 887 542 
L 905 542 
L 905 545 
Q 905 546 , 892 546 
Q 880 547 , 855 547 
Q 831 547 , 818 546 
Q 805 546 , 805 545 
L 805 542 
" fill="#D21010" />
<path d="
M 855 534 
L 837 538 
L 871 538 
L 855 534 
M 848 533 
L 862 533 
L 905 541 
L 889 541 
L 877 539 
L 833 539 
L 820 541 
L 805 541 
L 848 533 
" fill="#339541" />
<path d="
M 1010 550 
L 1010 551 
Q 995 551 , 987 551 
Q 979 550 , 969 550 
Q 948 550 , 938 551 
Q 926 551 , 926 552 
Q 926 553 , 938 553 
Q 948 554 , 969 554 
Q 979 554 , 987 553 
Q 995 553 , 1010 553 
L 1010 554 
Q 999 554 , 989 554 
Q 979 554 , 968 554 
Q 941 554 , 926 553 
Q 910 553 , 910 552 
Q 910 551 , 926 551 
Q 941 550 , 968 550 
Q 979 550 , 989 550 
Q 1000 550 , 1010 550 
" fill="#545FFF" />
<path d="
M 910 543 
L 928 543 
L 928 547 
Q 928 548 , 936 548 
Q 943 549 , 960 549 
Q 977 549 , 985 548 
Q 992 548 , 992 547 
L 992 543 
L 1010 543 
L 1010 547 
Q 1010 548 , 997 549 
Q 985 550 , 960 550 
Q 936 550 , 923 549 
Q 910 548 , 910 547 
L 910 543 
" fill="#D21010" />
<path d="
M 994 536 
L 994 526 
L 965 526 
L 965 521 
L 1010 521 
L 1010 539 
Q 999 541 , 988 542 
Q 979 542 , 967 542 
Q 941 542 , 925 537 
Q 910 532 , 910 522 
Q 910 513 , 925 507 
Q 941 502 , 967 502 
Q 978 502 , 987 503 
Q 997 503 , 1007 505 
L 1007 510 
Q 994 508 , 986 507 
Q 977 507 , 968 507 
Q 947 507 , 936 511 
Q 926 514 , 926 522 
Q 926 530 , 936 534 
Q 947 538 , 968 538 
Q 977 538 , 984 537 
Q 991 537 , 994 536 
" fill="#F5C000" />
<path d="
M 960 447 
L 942 474 
L 976 474 
L 960 447 
M 953 435 
L 967 435 
L 1010 502 
L 994 502 
L 982 482 
L 938 482 
L 925 502 
L 910 502 
L 953 435 
" fill="#339541" />
<path d="
M 1115 550 
L 1115 551 
Q 1100 551 , 1092 551 
Q 1084 551 , 1074 551 
Q 1053 551 , 1043 551 
Q 1031 551 , 1031 552 
Q 1031 553 , 1043 554 
Q 1053 554 , 1074 554 
Q 1084 554 , 1092 554 
Q 1100 554 , 1115 553 
L 1115 554 
Q 1104 554 , 1094 554 
Q 1084 555 , 1073 555 
Q 1046 555 , 1031 554 
Q 1015 553 , 1015 552 
Q 1015 551 , 1031 551 
Q 1046 550 , 1073 550 
Q 1084 550 , 1094 550 
Q 1105 550 , 1115 550 
" fill="#545FFF" />
<path d="
M 1015 541 
L 1033 541 
L 1033 546 
Q 1033 547 , 1041 548 
Q 1048 548 , 1065 548 
Q 1082 548 , 1090 548 
Q 1097 547 , 1097 546 
L 1097 541 
L 1115 541 
L 1115 546 
Q 1115 548 , 1102 549 
Q 1090 549 , 1065 549 
Q 1041 549 , 1028 549 
Q 1015 548 , 1015 546 
L 1015 541 
" fill="#D21010" />
<path d="
M 1065 530 
L 1047 535 
L 1081 535 
L 1065 530 
M 1058 528 
L 1072 528 
L 1115 540 
L 1099 540 
L 1087 537 
L 1043 537 
L 1030 540 
L 1015 540 
L 1058 528 
" fill="#339541" />
<path d="
M 1099 492 
L 1099 424 
L 1070 424 
L 1070 397 
L 1115 397 
L 1115 508 
Q 1104 519 , 1093 523 
Q 1084 527 , 1072 528 
Q 1046 528 , 1030 494 
Q 1015 461 , 1015 402 
Q 1015 344 , 1030 311 
Q 1046 277 , 1072 277 
Q 1083 277 , 1092 281 
Q 1102 286 , 1112 297 
L 1112 329 
Q 1099 315 , 1091 311 
Q 1082 307 , 1073 307 
Q 1052 307 , 1041 330 
Q 1031 354 , 1031 402 
Q 1031 452 , 1041 476 
Q 1052 500 , 1073 500 
Q 1082 500 , 1089 497 
Q 1096 495 , 1099 492 
" fill="#F5C000" />
<path d="
M 1145 552 
L 1136 553 
L 1153 553 
L 1145 552 
M 1141 551 
L 1149 551 
L 1170 555 
L 1162 555 
L 1156 554 
L 1134 554 
L 1127 555 
L 1120 555 
L 1141 551 
" fill="lightgray" />
<path d="
M 1170 551 
L 1179 551 
L 1179 553 
Q 1179 554 , 1183 554 
Q 1186 554 , 1195 554 
Q 1204 554 , 1207 554 
Q 1211 554 , 1211 553 
L 1211 551 
L 1220 551 
L 1220 553 
Q 1220 554 , 1214 554 
Q 1207 555 , 1195 555 
Q 1183 555 , 1176 554 
Q 1170 554 , 1170 553 
L 1170 551 
" fill="#D21010" />
<path d="
M 1120 547 
L 1129 547 
L 1129 549 
Q 1129 550 , 1133 550 
Q 1136 550 , 1145 550 
Q 1154 550 , 1157 550 
Q 1161 550 , 1161 549 
L 1161 547 
L 1170 547 
L 1170 549 
Q 1170 550 , 1164 550 
Q 1157 551 , 1145 551 
Q 1133 551 , 1126 550 
Q 1120 550 , 1120 549 
L 1120 547 
" fill="lightgray" />
<path d="
M 1195 548 
L 1186 549 
L 1203 549 
L 1195 548 
M 1191 547 
L 1199 547 
L 1220 551 
L 1212 551 
L 1206 550 
L 1184 550 
L 1177 551 
L 1170 551 
L 1191 547 
" fill="#339541" />
<path d="
M 1162 546 
L 1162 545 
L 1148 545 
L 1148 544 
L 1170 544 
L 1170 546 
Q 1165 547 , 1159 547 
Q 1154 547 , 1148 547 
Q 1135 547 , 1128 546 
Q 1120 546 , 1120 544 
Q 1120 543 , 1128 543 
Q 1135 542 , 1148 542 
Q 1154 542 , 1159 542 
Q 1164 542 , 1169 542 
L 1169 543 
Q 1162 543 , 1158 543 
Q 1154 543 , 1149 543 
Q 1139 543 , 1133 543 
Q 1128 543 , 1128 544 
Q 1128 545 , 1133 546 
Q 1139 546 , 1149 546 
Q 1154 546 , 1157 546 
Q 1161 546 , 1162 546 
" fill="lightgray" />
<path d="
M 1170 542 
L 1179 542 
L 1179 545 
Q 1179 546 , 1183 546 
Q 1186 546 , 1195 546 
Q 1204 546 , 1207 546 
Q 1211 546 , 1211 545 
L 1211 542 
L 1220 542 
L 1220 545 
Q 1220 546 , 1214 546 
Q 1207 547 , 1195 547 
Q 1183 547 , 1176 546 
Q 1170 546 , 1170 545 
L 1170 542 
" fill="#D21010" />
<path d="
M 1170 531 
L 1170 533 
Q 1163 532 , 1159 532 
Q 1154 531 , 1149 531 
Q 1139 531 , 1134 532 
Q 1128 534 , 1128 536 
Q 1128 538 , 1134 539 
Q 1139 540 , 1149 540 
Q 1154 540 , 1159 540 
Q 1163 540 , 1170 538 
L 1170 540 
Q 1165 541 , 1159 541 
Q 1155 541 , 1149 541 
Q 1135 541 , 1128 540 
Q 1120 538 , 1120 536 
Q 1120 533 , 1128 532 
Q 1135 530 , 1149 530 
Q 1155 530 , 1160 530 
Q 1165 531 , 1170 531 
" fill="lightgray" />
<path d="
M 1212 540 
L 1212 537 
L 1198 537 
L 1198 535 
L 1220 535 
L 1220 541 
Q 1215 541 , 1209 541 
Q 1204 541 , 1198 541 
Q 1185 541 , 1178 540 
Q 1170 538 , 1170 536 
Q 1170 533 , 1178 532 
Q 1185 530 , 1198 530 
Q 1204 530 , 1209 530 
Q 1214 530 , 1219 531 
L 1219 532 
Q 1212 532 , 1208 532 
Q 1204 531 , 1199 531 
Q 1189 531 , 1183 532 
Q 1178 534 , 1178 536 
Q 1178 538 , 1183 539 
Q 1189 540 , 1199 540 
Q 1204 540 , 1207 540 
Q 1211 540 , 1212 540 
" fill="#F5C000" />
<path d="
M 1120 512 
L 1129 512 
L 1129 522 
Q 1129 525 , 1133 526 
Q 1136 528 , 1145 528 
Q 1154 528 , 1157 526 
Q 1161 525 , 1161 522 
L 1161 512 
L 1170 512 
L 1170 523 
Q 1170 526 , 1164 528 
Q 1157 529 , 1145 529 
Q 1133 529 , 1126 528 
Q 1120 526 , 1120 523 
L 1120 512 
" fill="lightgray" />
<path d="
M 1212 527 
L 1212 522 
L 1198 522 
L 1198 520 
L 1220 520 
L 1220 528 
Q 1215 529 , 1209 529 
Q 1204 529 , 1198 529 
Q 1185 529 , 1178 527 
Q 1170 525 , 1170 521 
Q 1170 517 , 1178 514 
Q 1185 512 , 1198 512 
Q 1204 512 , 1209 512 
Q 1214 513 , 1219 513 
L 1219 516 
Q 1212 515 , 1208 514 
Q 1204 514 , 1199 514 
Q 1189 514 , 1183 516 
Q 1178 517 , 1178 521 
Q 1178 524 , 1183 526 
Q 1189 528 , 1199 528 
Q 1204 528 , 1207 527 
Q 1211 527 , 1212 527 
" fill="#F5C000" />
<path d="
M 1162 509 
L 1162 503 
L 1148 503 
L 1148 501 
L 1170 501 
L 1170 510 
Q 1165 511 , 1159 511 
Q 1154 511 , 1148 511 
Q 1135 511 , 1128 509 
Q 1120 506 , 1120 502 
Q 1120 497 , 1128 495 
Q 1135 492 , 1148 492 
Q 1154 492 , 1159 492 
Q 1164 493 , 1169 494 
L 1169 496 
Q 1162 495 , 1158 495 
Q 1154 494 , 1149 494 
Q 1139 494 , 1133 496 
Q 1128 498 , 1128 502 
Q 1128 506 , 1133 507 
Q 1139 509 , 1149 509 
Q 1154 509 , 1157 509 
Q 1161 509 , 1162 509 
" fill="lightgray" />
<path d="
M 1220 494 
L 1220 497 
Q 1213 495 , 1209 495 
Q 1204 494 , 1199 494 
Q 1189 494 , 1184 496 
Q 1178 498 , 1178 501 
Q 1178 505 , 1184 507 
Q 1189 509 , 1199 509 
Q 1204 509 , 1209 509 
Q 1213 508 , 1220 506 
L 1220 509 
Q 1215 510 , 1209 511 
Q 1205 511 , 1199 511 
Q 1185 511 , 1178 509 
Q 1170 506 , 1170 502 
Q 1170 497 , 1178 495 
Q 1185 492 , 1199 492 
Q 1205 492 , 1210 492 
Q 1215 493 , 1220 494 
" fill="#545FFF" />
<path d="
M 1225 553 
L 1234 553 
L 1234 554 
Q 1234 554 , 1238 554 
Q 1241 554 , 1250 554 
Q 1259 554 , 1262 554 
Q 1266 554 , 1266 554 
L 1266 553 
L 1275 553 
L 1275 554 
Q 1275 554 , 1269 554 
Q 1262 554 , 1250 554 
Q 1238 554 , 1231 554 
Q 1225 554 , 1225 554 
L 1225 553 
" fill="lightgray" />
<path d="
M 1300 553 
L 1291 554 
L 1308 554 
L 1300 553 
M 1296 553 
L 1304 553 
L 1325 554 
L 1317 554 
L 1311 554 
L 1289 554 
L 1282 554 
L 1275 554 
L 1296 553 
" fill="#339541" />
<path d="
M 1275 549 
L 1275 550 
Q 1268 550 , 1264 549 
Q 1259 549 , 1254 549 
Q 1244 549 , 1239 550 
Q 1233 550 , 1233 550 
Q 1233 551 , 1239 552 
Q 1244 552 , 1254 552 
Q 1259 552 , 1264 552 
Q 1268 552 , 1275 552 
L 1275 552 
Q 1270 552 , 1264 552 
Q 1260 553 , 1254 553 
Q 1240 553 , 1233 552 
Q 1225 552 , 1225 551 
Q 1225 550 , 1233 549 
Q 1240 549 , 1254 549 
Q 1260 549 , 1265 549 
Q 1270 549 , 1275 549 
" fill="lightgray" />
<path d="
M 1317 552 
L 1317 551 
L 1303 551 
L 1303 551 
L 1325 551 
L 1325 552 
Q 1320 552 , 1314 552 
Q 1309 553 , 1303 553 
Q 1290 553 , 1283 552 
Q 1275 552 , 1275 551 
Q 1275 550 , 1283 549 
Q 1290 549 , 1303 549 
Q 1309 549 , 1314 549 
Q 1319 549 , 1324 549 
L 1324 550 
Q 1317 550 , 1313 549 
Q 1309 549 , 1304 549 
Q 1294 549 , 1288 550 
Q 1283 550 , 1283 551 
Q 1283 551 , 1288 552 
Q 1294 552 , 1304 552 
Q 1309 552 , 1312 552 
Q 1316 552 , 1317 552 
" fill="#F5C000" />
<path d="
M 1225 542 
L 1234 542 
L 1234 546 
Q 1234 547 , 1238 548 
Q 1241 548 , 1250 548 
Q 1259 548 , 1262 548 
Q 1266 547 , 1266 546 
L 1266 542 
L 1275 542 
L 1275 546 
Q 1275 548 , 1269 548 
Q 1262 549 , 1250 549 
Q 1238 549 , 1231 548 
Q 1225 548 , 1225 546 
L 1225 542 
" fill="lightgray" />
<path d="
M 1317 548 
L 1317 546 
L 1303 546 
L 1303 545 
L 1325 545 
L 1325 548 
Q 1320 549 , 1314 549 
Q 1309 549 , 1303 549 
Q 1290 549 , 1283 548 
Q 1275 547 , 1275 545 
Q 1275 544 , 1283 543 
Q 1290 542 , 1303 542 
Q 1309 542 , 1314 542 
Q 1319 542 , 1324 543 
L 1324 543 
Q 1317 543 , 1313 543 
Q 1309 543 , 1304 543 
Q 1294 543 , 1288 543 
Q 1283 544 , 1283 545 
Q 1283 547 , 1288 548 
Q 1294 548 , 1304 548 
Q 1309 548 , 1312 548 
Q 1316 548 , 1317 548 
" fill="#F5C000" />
<path d="
M 1267 538 
L 1267 532 
L 1253 532 
L 1253 529 
L 1275 529 
L 1275 540 
Q 1270 541 , 1264 541 
Q 1259 541 , 1253 541 
Q 1240 541 , 1233 538 
Q 1225 535 , 1225 530 
Q 1225 524 , 1233 521 
Q 1240 518 , 1253 518 
Q 1259 518 , 1264 518 
Q 1269 519 , 1274 520 
L 1274 523 
Q 1267 522 , 1263 521 
Q 1259 521 , 1254 521 
Q 1244 521 , 1238 523 
Q 1233 525 , 1233 530 
Q 1233 534 , 1238 537 
Q 1244 539 , 1254 539 
Q 1259 539 , 1262 539 
Q 1266 538 , 1267 538 
" fill="lightgray" />
<path d="
M 1275 518 
L 1284 518 
L 1284 532 
Q 1284 536 , 1288 537 
Q 1291 539 , 1300 539 
Q 1309 539 , 1312 537 
Q 1316 536 , 1316 532 
L 1316 518 
L 1325 518 
L 1325 532 
Q 1325 537 , 1319 539 
Q 1312 541 , 1300 541 
Q 1288 541 , 1281 539 
Q 1275 537 , 1275 532 
L 1275 518 
" fill="#D21010" />
<path d="
M 1250 487 
L 1241 502 
L 1258 502 
L 1250 487 
M 1246 480 
L 1254 480 
L 1275 517 
L 1267 517 
L 1261 506 
L 1239 506 
L 1232 517 
L 1225 517 
L 1246 480 
" fill="lightgray" />
<path d="
M 1275 480 
L 1284 480 
L 1284 502 
Q 1284 508 , 1288 511 
Q 1291 513 , 1300 513 
Q 1309 513 , 1312 511 
Q 1316 508 , 1316 502 
L 1316 480 
L 1325 480 
L 1325 502 
Q 1325 510 , 1319 513 
Q 1312 517 , 1300 517 
Q 1288 517 , 1281 513 
Q 1275 510 , 1275 502 
L 1275 480 
" fill="#D21010" />
<path d="
M 1267 471 
L 1267 454 
L 1253 454 
L 1253 447 
L 1275 447 
L 1275 475 
Q 1270 478 , 1264 479 
Q 1259 480 , 1253 480 
Q 1240 480 , 1233 471 
Q 1225 463 , 1225 448 
Q 1225 434 , 1233 425 
Q 1240 417 , 1253 417 
Q 1259 417 , 1264 418 
Q 1269 419 , 1274 422 
L 1274 430 
Q 1267 427 , 1263 425 
Q 1259 424 , 1254 424 
Q 1244 424 , 1238 430 
Q 1233 436 , 1233 448 
Q 1233 461 , 1238 467 
Q 1244 473 , 1254 473 
Q 1259 473 , 1262 472 
Q 1266 471 , 1267 471 
" fill="lightgray" />
<path d="
M 1325 424 
L 1325 433 
Q 1318 427 , 1314 426 
Q 1309 424 , 1304 424 
Q 1294 424 , 1289 430 
Q 1283 436 , 1283 448 
Q 1283 461 , 1289 467 
Q 1294 473 , 1304 473 
Q 1309 473 , 1314 471 
Q 1318 470 , 1325 463 
L 1325 473 
Q 1320 477 , 1314 478 
Q 1310 480 , 1304 480 
Q 1290 480 , 1283 471 
Q 1275 463 , 1275 448 
Q 1275 434 , 1283 426 
Q 1290 417 , 1304 417 
Q 1310 417 , 1315 419 
Q 1320 420 , 1325 424 
" fill="#545FFF" />
<path d="
M 1430 554 
L 1430 554 
Q 1415 554 , 1407 554 
Q 1399 554 , 1389 554 
Q 1368 554 , 1358 554 
Q 1346 554 , 1346 554 
Q 1346 554 , 1358 555 
Q 1368 555 , 1389 555 
Q 1399 555 , 1407 555 
Q 1415 555 , 1430 555 
L 1430 555 
Q 1419 555 , 1409 555 
Q 1399 555 , 1388 555 
Q 1361 555 , 1346 555 
Q 1330 555 , 1330 554 
Q 1330 554 , 1346 554 
Q 1361 554 , 1388 554 
Q 1399 554 , 1409 554 
Q 1420 554 , 1430 554 
" fill="#545FFF" />
<path d="
M 1330 553 
L 1348 553 
L 1348 554 
Q 1348 554 , 1356 554 
Q 1363 554 , 1380 554 
Q 1397 554 , 1405 554 
Q 1412 554 , 1412 554 
L 1412 553 
L 1430 553 
L 1430 554 
Q 1430 554 , 1417 554 
Q 1405 554 , 1380 554 
Q 1356 554 , 1343 554 
Q 1330 554 , 1330 554 
L 1330 553 
" fill="#D21010" />
<path d="
M 1414 552 
L 1414 552 
L 1385 552 
L 1385 552 
L 1430 552 
L 1430 552 
Q 1419 552 , 1408 552 
Q 1399 552 , 1387 552 
Q 1361 552 , 1345 552 
Q 1330 552 , 1330 552 
Q 1330 551 , 1345 551 
Q 1361 551 , 1387 551 
Q 1398 551 , 1407 551 
Q 1417 551 , 1427 551 
L 1427 551 
Q 1414 551 , 1406 551 
Q 1397 551 , 1388 551 
Q 1367 551 , 1356 551 
Q 1346 551 , 1346 552 
Q 1346 552 , 1356 552 
Q 1367 552 , 1388 552 
Q 1397 552 , 1404 552 
Q 1411 552 , 1414 552 
" fill="#F5C000" />
<path d="
M 1380 549 
L 1362 550 
L 1396 550 
L 1380 549 
M 1373 549 
L 1387 549 
L 1430 550 
L 1414 550 
L 1402 550 
L 1358 550 
L 1345 550 
L 1330 550 
L 1373 549 
" fill="#339541" />
<path d="M 65 168 L 65 555 " stroke="black" stroke-width="1.5"/>
<path d="M 55 555 L 65 555 " stroke="black" stroke-width="4"/>
<text text-anchor="end" x="50" y="555" font-size="50" alignment-baseline="middle">0</text>
<path d="M 55 362 L 65 362 " stroke="black" stroke-width="4"/>
<text text-anchor="end" x="50" y="362" font-size="50" alignment-baseline="middle">1</text>
<path d="M 55 168 L 65 168 " stroke="black" stroke-width="4"/>
<text text-anchor="end" x="50" y="168" font-size="50" alignment-baseline="middle">2</text>
<text text-anchor="middle" x="750" y="50" font-size="50" alignment-baseline="baseline"></text>
G<path d="
M 160 582 
L 126 595 
L 160 608 
L 157 611 
L 123 598 
L 123 623 
L 117 623 
L 117 599 
L 83 611 
L 80 608 
L 114 595 
L 80 582 
L 83 579 
L 117 591 
L 117 567 
L 123 567 
L 123 591 
L 157 579 
L 160 582 
" fill="black" />
<path d="
" fill="black" />
<path d="
M 211 567 
L 238 567 
L 238 623 
L 211 623 
L 211 567 
" fill="black" />
<path d="
" fill="black" />
<path d="
" fill="black" />
<path d="
M 316 567 
L 343 567 
L 343 623 
L 316 623 
L 316 567 
" fill="black" />
<path d="
" fill="black" />
<path d="
M 475 567 
Q 446 574 , 433 581 
Q 420 588 , 420 595 
Q 420 602 , 433 609 
Q 446 616 , 475 623 
L 451 623 
Q 423 616 , 409 609 
Q 395 602 , 395 595 
Q 395 588 , 409 581 
Q 423 574 , 451 567 
L 475 567 
" fill="black" />
<path d="
M 580 567 
Q 551 574 , 538 581 
Q 525 588 , 525 595 
Q 525 602 , 538 609 
Q 551 616 , 580 623 
L 556 623 
Q 528 616 , 514 609 
Q 500 602 , 500 595 
Q 500 588 , 514 581 
Q 528 574 , 556 567 
L 580 567 
" fill="black" />
<path d="
" fill="black" />
<path d="
M 622 567 
L 642 567 
L 642 623 
L 622 623 
L 622 567 
" fill="black" />
<path d="
" fill="black" />
<path d="
M 674 621 
L 674 616 
Q 675 618 , 677 619 
Q 678 619 , 680 619 
Q 686 619 , 688 609 
Q 689 604 , 689 595 
Q 689 597 , 687 600 
Q 685 603 , 681 603 
Q 677 603 , 675 598 
Q 672 593 , 672 586 
Q 672 577 , 675 572 
Q 677 567 , 682 567 
Q 687 567 , 689 574 
Q 692 581 , 692 595 
Q 692 609 , 689 616 
Q 685 623 , 680 623 
Q 678 623 , 677 622 
Q 675 622 , 674 621 
M 676 595 
Q 678 599 , 681 599 
Q 685 599 , 687 595 
Q 689 591 , 689 584 
Q 689 578 , 687 574 
Q 685 571 , 681 571 
Q 678 571 , 676 574 
Q 675 578 , 675 584 
Q 675 591 , 676 595 
" fill="black" />
<path d="
M 790 582 
L 756 595 
L 790 608 
L 787 611 
L 753 598 
L 753 623 
L 747 623 
L 747 599 
L 713 611 
L 710 608 
L 744 595 
L 710 582 
L 713 579 
L 747 591 
L 747 567 
L 753 567 
L 753 591 
L 787 579 
L 790 582 
" fill="black" />
<path d="
" fill="black" />
<path d="
M 841 567 
L 868 567 
L 868 623 
L 841 623 
L 841 567 
" fill="black" />
<path d="
" fill="black" />
<path d="
" fill="black" />
<path d="
M 946 567 
L 973 567 
L 973 623 
L 946 623 
L 946 567 
" fill="black" />
<path d="
" fill="black" />
<path d="
" fill="black" />
<path d="
M 1051 567 
L 1078 567 
L 1078 623 
L 1051 623 
L 1051 567 
" fill="black" />
<path d="
" fill="black" />
<path d="
M 1130 567 
L 1154 567 
Q 1182 574 , 1196 581 
Q 1210 588 , 1210 595 
Q 1210 602 , 1196 609 
Q 1182 616 , 1154 623 
L 1130 623 
Q 1159 616 , 1172 609 
Q 1185 602 , 1185 595 
Q 1185 588 , 1172 581 
Q 1159 574 , 1130 567 
" fill="black" />
<path d="
M 1235 567 
L 1259 567 
Q 1287 574 , 1301 581 
Q 1315 588 , 1315 595 
Q 1315 602 , 1301 609 
Q 1287 616 , 1259 623 
L 1235 623 
Q 1264 616 , 1277 609 
Q 1290 602 , 1290 595 
Q 1290 588 , 1277 581 
Q 1264 574 , 1235 567 
" fill="black" />
<path d="
M 1420 582 
L 1386 595 
L 1420 608 
L 1417 611 
L 1383 598 
L 1383 623 
L 1377 623 
L 1377 599 
L 1343 611 
L 1340 608 
L 1374 595 
L 1340 582 
L 1343 579 
L 1377 591 
L 1377 567 
L 1383 567 
L 1383 591 
L 1417 579 
L 1420 582 
" fill="black" />
</svg>
