<svg xmlns="http://www.w3.org/2000/svg"
viewBox="0 0 1435 635">
<path d="
M 120 554 
L 102 554 
L 136 554 
L 120 554 
M 113 554 
L 127 554 
L 170 554 
L 154 554 
L 142 554 
L 98 554 
L 85 554 
L 70 554 
L 113 554 
" fill="#339541" />
<path d="
M 70 553 
L 88 553 
L 88 553 
Q 88 553 , 96 553 
Q 103 554 , 120 554 
Q 137 554 , 145 553 
Q 152 553 , 152 553 
L 152 553 
L 170 553 
L 170 553 
Q 170 553 , 157 554 
Q 145 554 , 120 554 
Q 96 554 , 83 554 
Q 70 553 , 70 553 
L 70 553 
" fill="#D21010" />
<path d="
M 170 552 
L 170 552 
Q 155 552 , 147 552 
Q 139 552 , 129 552 
Q 108 552 , 98 552 
Q 86 552 , 86 552 
Q 86 552 , 98 553 
Q 108 553 , 129 553 
Q 139 553 , 147 553 
Q 155 553 , 170 552 
L 170 553 
Q 159 553 , 149 553 
Q 139 553 , 128 553 
Q 101 553 , 86 553 
Q 70 552 , 70 552 
Q 70 552 , 86 552 
Q 101 552 , 128 552 
Q 139 552 , 149 552 
Q 160 552 , 170 552 
" fill="#545FFF" />
<path d="
M 154 552 
L 154 551 
L 125 551 
L 125 551 
L 170 551 
L 170 552 
Q 159 552 , 148 552 
Q 139 552 , 127 552 
Q 101 552 , 85 552 
Q 70 552 , 70 551 
Q 70 551 , 85 551 
Q 101 551 , 127 551 
Q 138 551 , 147 551 
Q 157 551 , 167 551 
L 167 551 
Q 154 551 , 146 551 
Q 137 551 , 128 551 
Q 107 551 , 96 551 
Q 86 551 , 86 551 
Q 86 551 , 96 552 
Q 107 552 , 128 552 
Q 137 552 , 144 552 
Q 151 552 , 154 552 
" fill="#F5C000" />
<path d="
M 175 547 
L 184 547 
L 184 552 
Q 184 553 , 188 553 
Q 191 554 , 200 554 
Q 209 554 , 212 553 
Q 216 553 , 216 552 
L 216 547 
L 225 547 
L 225 552 
Q 225 553 , 219 554 
Q 212 555 , 200 555 
Q 188 555 , 181 554 
Q 175 553 , 175 552 
L 175 547 
" fill="#D21010" />
<path d="
M 250 548 
L 241 552 
L 258 552 
L 250 548 
M 246 547 
L 254 547 
L 275 555 
L 267 555 
L 261 552 
L 239 552 
L 232 555 
L 225 555 
L 246 547 
" fill="lightgray" />
<path d="
M 217 546 
L 217 543 
L 203 543 
L 203 542 
L 225 542 
L 225 546 
Q 220 547 , 214 547 
Q 209 547 , 203 547 
Q 190 547 , 183 546 
Q 175 544 , 175 542 
Q 175 540 , 183 538 
Q 190 537 , 203 537 
Q 209 537 , 214 537 
Q 219 537 , 224 538 
L 224 539 
Q 217 539 , 213 538 
Q 209 538 , 204 538 
Q 194 538 , 188 539 
Q 183 540 , 183 542 
Q 183 544 , 188 545 
Q 194 546 , 204 546 
Q 209 546 , 212 546 
Q 216 546 , 217 546 
" fill="#F5C000" />
<path d="
M 225 537 
L 234 537 
L 234 543 
Q 234 545 , 238 545 
Q 241 546 , 250 546 
Q 259 546 , 262 545 
Q 266 545 , 266 543 
L 266 537 
L 275 537 
L 275 543 
Q 275 545 , 269 546 
Q 262 547 , 250 547 
Q 238 547 , 231 546 
Q 225 545 , 225 543 
L 225 537 
" fill="lightgray" />
<path d="
M 175 525 
L 184 525 
L 184 532 
Q 184 533 , 188 534 
Q 191 535 , 200 535 
Q 209 535 , 212 534 
Q 216 533 , 216 532 
L 216 525 
L 225 525 
L 225 532 
Q 225 534 , 219 535 
Q 212 536 , 200 536 
Q 188 536 , 181 535 
Q 175 534 , 175 532 
L 175 525 
" fill="#D21010" />
<path d="
M 267 534 
L 267 531 
L 253 531 
L 253 530 
L 275 530 
L 275 535 
Q 270 536 , 264 536 
Q 259 536 , 253 536 
Q 240 536 , 233 535 
Q 225 533 , 225 531 
Q 225 528 , 233 526 
Q 240 525 , 253 525 
Q 259 525 , 264 525 
Q 269 525 , 274 526 
L 274 527 
Q 267 527 , 263 526 
Q 259 526 , 254 526 
Q 244 526 , 238 527 
Q 233 528 , 233 531 
Q 233 533 , 238 534 
Q 244 535 , 254 535 
Q 259 535 , 262 535 
Q 266 535 , 267 534 
" fill="lightgray" />
<path d="
M 200 515 
L 191 520 
L 208 520 
L 200 515 
M 196 513 
L 204 513 
L 225 524 
L 217 524 
L 211 521 
L 189 521 
L 182 524 
L 175 524 
L 196 513 
" fill="#339541" />
<path d="
M 225 513 
L 234 513 
L 234 520 
Q 234 521 , 238 522 
Q 241 523 , 250 523 
Q 259 523 , 262 522 
Q 266 521 , 266 520 
L 266 513 
L 275 513 
L 275 520 
Q 275 522 , 269 523 
Q 262 524 , 250 524 
Q 238 524 , 231 523 
Q 225 522 , 225 520 
L 225 513 
" fill="lightgray" />
<path d="
M 217 510 
L 217 505 
L 203 505 
L 203 502 
L 225 502 
L 225 511 
Q 220 512 , 214 512 
Q 209 513 , 203 513 
Q 190 513 , 183 510 
Q 175 507 , 175 503 
Q 175 498 , 183 496 
Q 190 493 , 203 493 
Q 209 493 , 214 493 
Q 219 494 , 224 495 
L 224 497 
Q 217 496 , 213 496 
Q 209 495 , 204 495 
Q 194 495 , 188 497 
Q 183 499 , 183 503 
Q 183 507 , 188 509 
Q 194 511 , 204 511 
Q 209 511 , 212 510 
Q 216 510 , 217 510 
" fill="#F5C000" />
<path d="
M 275 495 
L 275 498 
Q 268 496 , 264 496 
Q 259 495 , 254 495 
Q 244 495 , 239 497 
Q 233 499 , 233 503 
Q 233 507 , 239 509 
Q 244 511 , 254 511 
Q 259 511 , 264 510 
Q 268 510 , 275 508 
L 275 511 
Q 270 512 , 264 512 
Q 260 513 , 254 513 
Q 240 513 , 233 510 
Q 225 507 , 225 503 
Q 225 498 , 233 496 
Q 240 493 , 254 493 
Q 260 493 , 265 493 
Q 270 494 , 275 495 
" fill="lightgray" />
<path d="
M 225 379 
L 225 399 
Q 218 386 , 214 383 
Q 209 380 , 204 380 
Q 194 380 , 189 392 
Q 183 405 , 183 429 
Q 183 454 , 189 466 
Q 194 479 , 204 479 
Q 209 479 , 214 475 
Q 218 472 , 225 459 
L 225 479 
Q 220 486 , 214 489 
Q 210 492 , 204 492 
Q 190 492 , 183 475 
Q 175 458 , 175 429 
Q 175 400 , 183 383 
Q 190 366 , 204 366 
Q 210 366 , 215 369 
Q 220 372 , 225 379 
" fill="#545FFF" />
<path d="
M 267 474 
L 267 440 
L 253 440 
L 253 426 
L 275 426 
L 275 483 
Q 270 488 , 264 490 
Q 259 492 , 253 492 
Q 240 492 , 233 475 
Q 225 459 , 225 429 
Q 225 400 , 233 383 
Q 240 366 , 253 366 
Q 259 366 , 264 368 
Q 269 371 , 274 376 
L 274 392 
Q 267 385 , 263 383 
Q 259 381 , 254 381 
Q 244 381 , 238 393 
Q 233 405 , 233 429 
Q 233 454 , 238 466 
Q 244 478 , 254 478 
Q 259 478 , 262 477 
Q 266 476 , 267 474 
" fill="lightgray" />
<path d="
M 380 552 
L 380 553 
Q 365 552 , 357 552 
Q 349 552 , 339 552 
Q 318 552 , 308 552 
Q 296 553 , 296 553 
Q 296 554 , 308 554 
Q 318 554 , 339 554 
Q 349 554 , 357 554 
Q 365 554 , 380 554 
L 380 554 
Q 369 554 , 359 554 
Q 349 554 , 338 554 
Q 311 554 , 296 554 
Q 280 554 , 280 553 
Q 280 553 , 296 552 
Q 311 552 , 338 552 
Q 349 552 , 359 552 
Q 370 552 , 380 552 
" fill="#545FFF" />
<path d="
M 280 544 
L 298 544 
L 298 548 
Q 298 550 , 306 550 
Q 313 551 , 330 551 
Q 347 551 , 355 550 
Q 362 550 , 362 548 
L 362 544 
L 380 544 
L 380 548 
Q 380 550 , 367 551 
Q 355 551 , 330 551 
Q 306 551 , 293 551 
Q 280 550 , 280 548 
L 280 544 
" fill="#D21010" />
<path d="
M 364 542 
L 364 540 
L 335 540 
L 335 539 
L 380 539 
L 380 543 
Q 369 543 , 358 543 
Q 349 544 , 337 544 
Q 311 544 , 295 542 
Q 280 541 , 280 539 
Q 280 537 , 295 535 
Q 311 534 , 337 534 
Q 348 534 , 357 534 
Q 367 534 , 377 535 
L 377 536 
Q 364 535 , 356 535 
Q 347 535 , 338 535 
Q 317 535 , 306 536 
Q 296 537 , 296 539 
Q 296 541 , 306 542 
Q 317 542 , 338 542 
Q 347 542 , 354 542 
Q 361 542 , 364 542 
" fill="#F5C000" />
<path d="
M 330 525 
L 312 529 
L 346 529 
L 330 525 
M 323 523 
L 337 523 
L 380 534 
L 364 534 
L 352 530 
L 308 530 
L 295 534 
L 280 534 
L 323 523 
" fill="#339541" />
<path d="
M 427 555 
L 427 554 
L 413 554 
L 413 554 
L 435 554 
L 435 555 
Q 430 555 , 424 555 
Q 419 555 , 413 555 
Q 400 555 , 393 555 
Q 385 554 , 385 554 
Q 385 553 , 393 553 
Q 400 553 , 413 553 
Q 419 553 , 424 553 
Q 429 553 , 434 553 
L 434 553 
Q 427 553 , 423 553 
Q 419 553 , 414 553 
Q 404 553 , 398 553 
Q 393 554 , 393 554 
Q 393 554 , 398 554 
Q 404 555 , 414 555 
Q 419 555 , 422 555 
Q 426 555 , 427 555 
" fill="#F5C000" />
<path d="
M 435 553 
L 444 553 
L 444 554 
Q 444 554 , 448 554 
Q 451 555 , 460 555 
Q 469 555 , 472 554 
Q 476 554 , 476 554 
L 476 553 
L 485 553 
L 485 554 
Q 485 554 , 479 555 
Q 472 555 , 460 555 
Q 448 555 , 441 555 
Q 435 554 , 435 554 
L 435 553 
" fill="lightgray" />
<path d="
M 385 550 
L 394 550 
L 394 551 
Q 394 552 , 398 552 
Q 401 552 , 410 552 
Q 419 552 , 422 552 
Q 426 552 , 426 551 
L 426 550 
L 435 550 
L 435 551 
Q 435 552 , 429 552 
Q 422 552 , 410 552 
Q 398 552 , 391 552 
Q 385 552 , 385 551 
L 385 550 
" fill="#D21010" />
<path d="
M 477 552 
L 477 551 
L 463 551 
L 463 551 
L 485 551 
L 485 552 
Q 480 552 , 474 552 
Q 469 552 , 463 552 
Q 450 552 , 443 552 
Q 435 552 , 435 551 
Q 435 551 , 443 550 
Q 450 550 , 463 550 
Q 469 550 , 474 550 
Q 479 550 , 484 550 
L 484 550 
Q 477 550 , 473 550 
Q 469 550 , 464 550 
Q 454 550 , 448 550 
Q 443 551 , 443 551 
Q 443 551 , 448 552 
Q 454 552 , 464 552 
Q 469 552 , 472 552 
Q 476 552 , 477 552 
" fill="lightgray" />
<path d="
M 410 539 
L 401 544 
L 418 544 
L 410 539 
M 406 536 
L 414 536 
L 435 550 
L 427 550 
L 421 546 
L 399 546 
L 392 550 
L 385 550 
L 406 536 
" fill="#339541" />
<path d="
M 435 536 
L 444 536 
L 444 544 
Q 444 546 , 448 547 
Q 451 548 , 460 548 
Q 469 548 , 472 547 
Q 476 546 , 476 544 
L 476 536 
L 485 536 
L 485 544 
Q 485 547 , 479 548 
Q 472 550 , 460 550 
Q 448 550 , 441 548 
Q 435 547 , 435 544 
L 435 536 
" fill="lightgray" />
<path d="
M 435 521 
L 435 523 
Q 428 522 , 424 521 
Q 419 521 , 414 521 
Q 404 521 , 399 522 
Q 393 524 , 393 527 
Q 393 531 , 399 532 
Q 404 534 , 414 534 
Q 419 534 , 424 534 
Q 428 533 , 435 531 
L 435 534 
Q 430 535 , 424 535 
Q 420 536 , 414 536 
Q 400 536 , 393 533 
Q 385 531 , 385 527 
Q 385 524 , 393 521 
Q 400 519 , 414 519 
Q 420 519 , 425 519 
Q 430 520 , 435 521 
" fill="#545FFF" />
<path d="
M 477 533 
L 477 529 
L 463 529 
L 463 527 
L 485 527 
L 485 534 
Q 480 535 , 474 535 
Q 469 536 , 463 536 
Q 450 536 , 443 533 
Q 435 531 , 435 527 
Q 435 523 , 443 521 
Q 450 519 , 463 519 
Q 469 519 , 474 519 
Q 479 520 , 484 520 
L 484 522 
Q 477 522 , 473 521 
Q 469 521 , 464 521 
Q 454 521 , 448 523 
Q 443 524 , 443 527 
Q 443 531 , 448 532 
Q 454 534 , 464 534 
Q 469 534 , 472 534 
Q 476 534 , 477 533 
" fill="lightgray" />
<path d="
M 385 486 
L 394 486 
L 394 505 
Q 394 511 , 398 513 
Q 401 515 , 410 515 
Q 419 515 , 422 513 
Q 426 511 , 426 505 
L 426 486 
L 435 486 
L 435 506 
Q 435 512 , 429 515 
Q 422 519 , 410 519 
Q 398 519 , 391 515 
Q 385 512 , 385 506 
L 385 486 
" fill="#D21010" />
<path d="
M 460 492 
L 451 505 
L 468 505 
L 460 492 
M 456 486 
L 464 486 
L 485 519 
L 477 519 
L 471 509 
L 449 509 
L 442 519 
L 435 519 
L 456 486 
" fill="lightgray" />
<path d="
M 427 461 
L 427 416 
L 413 416 
L 413 398 
L 435 398 
L 435 473 
Q 430 480 , 424 483 
Q 419 485 , 413 486 
Q 400 486 , 393 463 
Q 385 441 , 385 401 
Q 385 362 , 393 340 
Q 400 317 , 413 317 
Q 419 317 , 424 320 
Q 429 323 , 434 331 
L 434 352 
Q 427 343 , 423 340 
Q 419 337 , 414 337 
Q 404 337 , 398 353 
Q 393 369 , 393 401 
Q 393 434 , 398 451 
Q 404 467 , 414 467 
Q 419 467 , 422 465 
Q 426 463 , 427 461 
" fill="#F5C000" />
<path d="
M 485 335 
L 485 361 
Q 478 344 , 474 340 
Q 469 336 , 464 336 
Q 454 336 , 449 352 
Q 443 369 , 443 401 
Q 443 434 , 449 451 
Q 454 467 , 464 467 
Q 469 467 , 474 463 
Q 478 458 , 485 442 
L 485 468 
Q 480 478 , 474 482 
Q 470 486 , 464 486 
Q 450 486 , 443 463 
Q 435 440 , 435 401 
Q 435 363 , 443 340 
Q 450 317 , 464 317 
Q 470 317 , 475 321 
Q 480 325 , 485 335 
" fill="lightgray" />
<path d="
M 540 552 
L 522 554 
L 556 554 
L 540 552 
M 533 552 
L 547 552 
L 590 555 
L 574 555 
L 562 554 
L 518 554 
L 505 555 
L 490 555 
L 533 552 
" fill="#339541" />
<path d="
M 490 548 
L 508 548 
L 508 550 
Q 508 550 , 516 551 
Q 523 551 , 540 551 
Q 557 551 , 565 551 
Q 572 550 , 572 550 
L 572 548 
L 590 548 
L 590 550 
Q 590 550 , 577 551 
Q 565 551 , 540 551 
Q 516 551 , 503 551 
Q 490 550 , 490 550 
L 490 548 
" fill="#D21010" />
<path d="
M 574 539 
L 574 522 
L 545 522 
L 545 516 
L 590 516 
L 590 543 
Q 579 546 , 568 547 
Q 559 548 , 547 548 
Q 521 548 , 505 540 
Q 490 531 , 490 517 
Q 490 503 , 505 494 
Q 521 486 , 547 486 
Q 558 486 , 567 487 
Q 577 488 , 587 491 
L 587 499 
Q 574 495 , 566 494 
Q 557 493 , 548 493 
Q 527 493 , 516 499 
Q 506 505 , 506 517 
Q 506 529 , 516 535 
Q 527 541 , 548 541 
Q 557 541 , 564 540 
Q 571 540 , 574 539 
" fill="#F5C000" />
<path d="
M 590 412 
L 590 424 
Q 575 416 , 567 414 
Q 559 412 , 549 412 
Q 528 412 , 518 420 
Q 506 428 , 506 444 
Q 506 460 , 518 468 
Q 528 476 , 549 476 
Q 559 476 , 567 474 
Q 575 472 , 590 464 
L 590 477 
Q 579 482 , 569 483 
Q 559 485 , 548 485 
Q 521 485 , 506 474 
Q 490 463 , 490 444 
Q 490 425 , 506 414 
Q 521 403 , 548 403 
Q 559 403 , 569 405 
Q 580 407 , 590 412 
" fill="#545FFF" />
<path d="
M 679 554 
L 679 553 
L 650 553 
L 650 553 
L 695 553 
L 695 554 
Q 684 554 , 673 554 
Q 664 554 , 652 554 
Q 626 554 , 610 554 
Q 595 554 , 595 553 
Q 595 552 , 610 551 
Q 626 551 , 652 551 
Q 663 551 , 672 551 
Q 682 551 , 692 551 
L 692 552 
Q 679 552 , 671 551 
Q 662 551 , 653 551 
Q 632 551 , 621 552 
Q 611 552 , 611 553 
Q 611 553 , 621 554 
Q 632 554 , 653 554 
Q 662 554 , 669 554 
Q 676 554 , 679 554 
" fill="#F5C000" />
<path d="
M 645 546 
L 627 548 
L 661 548 
L 645 546 
M 638 545 
L 652 545 
L 695 550 
L 679 550 
L 667 549 
L 623 549 
L 610 550 
L 595 550 
L 638 545 
" fill="#339541" />
<path d="
M 595 534 
L 613 534 
L 613 540 
Q 613 542 , 621 543 
Q 628 543 , 645 543 
Q 662 543 , 670 543 
Q 677 542 , 677 540 
L 677 534 
L 695 534 
L 695 540 
Q 695 542 , 682 543 
Q 670 545 , 645 545 
Q 621 545 , 608 543 
Q 595 542 , 595 540 
L 595 534 
" fill="#D21010" />
<path d="
M 695 523 
L 695 525 
Q 680 524 , 672 524 
Q 664 523 , 654 523 
Q 633 523 , 623 524 
Q 611 526 , 611 528 
Q 611 530 , 623 531 
Q 633 533 , 654 533 
Q 664 533 , 672 532 
Q 680 532 , 695 531 
L 695 533 
Q 684 533 , 674 534 
Q 664 534 , 653 534 
Q 626 534 , 611 532 
Q 595 531 , 595 528 
Q 595 525 , 611 524 
Q 626 522 , 653 522 
Q 664 522 , 674 522 
Q 685 523 , 695 523 
" fill="#545FFF" />
<path d="
M 750 554 
L 732 554 
L 766 554 
L 750 554 
M 743 554 
L 757 554 
L 800 554 
L 784 554 
L 772 554 
L 728 554 
L 715 554 
L 700 554 
L 743 554 
" fill="#339541" />
<path d="
M 700 553 
L 718 553 
L 718 553 
Q 718 553 , 726 553 
Q 733 554 , 750 554 
Q 767 554 , 775 553 
Q 782 553 , 782 553 
L 782 553 
L 800 553 
L 800 553 
Q 800 553 , 787 554 
Q 775 554 , 750 554 
Q 726 554 , 713 554 
Q 700 553 , 700 553 
L 700 553 
" fill="#D21010" />
<path d="
M 800 552 
L 800 552 
Q 785 552 , 777 552 
Q 769 552 , 759 552 
Q 738 552 , 728 552 
Q 716 552 , 716 552 
Q 716 552 , 728 553 
Q 738 553 , 759 553 
Q 769 553 , 777 553 
Q 785 553 , 800 552 
L 800 553 
Q 789 553 , 779 553 
Q 769 553 , 758 553 
Q 731 553 , 716 553 
Q 700 552 , 700 552 
Q 700 552 , 716 552 
Q 731 552 , 758 552 
Q 769 552 , 779 552 
Q 790 552 , 800 552 
" fill="#545FFF" />
<path d="
M 784 552 
L 784 551 
L 755 551 
L 755 551 
L 800 551 
L 800 552 
Q 789 552 , 778 552 
Q 769 552 , 757 552 
Q 731 552 , 715 552 
Q 700 552 , 700 551 
Q 700 551 , 715 551 
Q 731 551 , 757 551 
Q 768 551 , 777 551 
Q 787 551 , 797 551 
L 797 551 
Q 784 551 , 776 551 
Q 767 551 , 758 551 
Q 737 551 , 726 551 
Q 716 551 , 716 551 
Q 716 551 , 726 552 
Q 737 552 , 758 552 
Q 767 552 , 774 552 
Q 781 552 , 784 552 
" fill="#F5C000" />
<path d="
M 855 551 
L 837 553 
L 871 553 
L 855 551 
M 848 550 
L 862 550 
L 905 554 
L 889 554 
L 877 553 
L 833 553 
L 820 554 
L 805 554 
L 848 550 
" fill="#339541" />
<path d="
M 805 541 
L 823 541 
L 823 546 
Q 823 547 , 831 548 
Q 838 548 , 855 548 
Q 872 548 , 880 548 
Q 887 547 , 887 546 
L 887 541 
L 905 541 
L 905 546 
Q 905 548 , 892 548 
Q 880 549 , 855 549 
Q 831 549 , 818 548 
Q 805 548 , 805 546 
L 805 541 
" fill="#D21010" />
<path d="
M 905 528 
L 905 531 
Q 890 529 , 882 529 
Q 874 529 , 864 529 
Q 843 529 , 833 530 
Q 821 531 , 821 534 
Q 821 537 , 833 538 
Q 843 539 , 864 539 
Q 874 539 , 882 539 
Q 890 539 , 905 537 
L 905 539 
Q 894 540 , 884 541 
Q 874 541 , 863 541 
Q 836 541 , 821 539 
Q 805 537 , 805 534 
Q 805 531 , 821 529 
Q 836 527 , 863 527 
Q 874 527 , 884 527 
Q 895 528 , 905 528 
" fill="#545FFF" />
<path d="
M 889 522 
L 889 515 
L 860 515 
L 860 513 
L 905 513 
L 905 524 
Q 894 525 , 883 526 
Q 874 526 , 862 526 
Q 836 526 , 820 523 
Q 805 519 , 805 513 
Q 805 507 , 820 504 
Q 836 500 , 862 500 
Q 873 500 , 882 500 
Q 892 501 , 902 502 
L 902 505 
Q 889 504 , 881 504 
Q 872 503 , 863 503 
Q 842 503 , 831 506 
Q 821 508 , 821 513 
Q 821 518 , 831 521 
Q 842 523 , 863 523 
Q 872 523 , 879 523 
Q 886 523 , 889 522 
" fill="#F5C000" />
<path d="
M 952 555 
L 952 554 
L 938 554 
L 938 554 
L 960 554 
L 960 555 
Q 955 555 , 949 555 
Q 944 555 , 938 555 
Q 925 555 , 918 555 
Q 910 554 , 910 554 
Q 910 553 , 918 553 
Q 925 553 , 938 553 
Q 944 553 , 949 553 
Q 954 553 , 959 553 
L 959 553 
Q 952 553 , 948 553 
Q 944 553 , 939 553 
Q 929 553 , 923 553 
Q 918 554 , 918 554 
Q 918 554 , 923 554 
Q 929 555 , 939 555 
Q 944 555 , 947 555 
Q 951 555 , 952 555 
" fill="lightgray" />
<path d="
M 960 553 
L 969 553 
L 969 554 
Q 969 554 , 973 554 
Q 976 555 , 985 555 
Q 994 555 , 997 554 
Q 1001 554 , 1001 554 
L 1001 553 
L 1010 553 
L 1010 554 
Q 1010 554 , 1004 555 
Q 997 555 , 985 555 
Q 973 555 , 966 555 
Q 960 554 , 960 554 
L 960 553 
" fill="#D21010" />
<path d="
M 910 550 
L 919 550 
L 919 551 
Q 919 552 , 923 552 
Q 926 552 , 935 552 
Q 944 552 , 947 552 
Q 951 552 , 951 551 
L 951 550 
L 960 550 
L 960 551 
Q 960 552 , 954 552 
Q 947 552 , 935 552 
Q 923 552 , 916 552 
Q 910 552 , 910 551 
L 910 550 
" fill="lightgray" />
<path d="
M 1002 552 
L 1002 551 
L 988 551 
L 988 551 
L 1010 551 
L 1010 552 
Q 1005 552 , 999 552 
Q 994 552 , 988 552 
Q 975 552 , 968 552 
Q 960 552 , 960 551 
Q 960 551 , 968 550 
Q 975 550 , 988 550 
Q 994 550 , 999 550 
Q 1004 550 , 1009 550 
L 1009 550 
Q 1002 550 , 998 550 
Q 994 550 , 989 550 
Q 979 550 , 973 550 
Q 968 551 , 968 551 
Q 968 551 , 973 552 
Q 979 552 , 989 552 
Q 994 552 , 997 552 
Q 1001 552 , 1002 552 
" fill="#F5C000" />
<path d="
M 935 539 
L 926 544 
L 943 544 
L 935 539 
M 931 536 
L 939 536 
L 960 550 
L 952 550 
L 946 546 
L 924 546 
L 917 550 
L 910 550 
L 931 536 
" fill="lightgray" />
<path d="
M 960 536 
L 969 536 
L 969 544 
Q 969 546 , 973 547 
Q 976 548 , 985 548 
Q 994 548 , 997 547 
Q 1001 546 , 1001 544 
L 1001 536 
L 1010 536 
L 1010 544 
Q 1010 547 , 1004 548 
Q 997 550 , 985 550 
Q 973 550 , 966 548 
Q 960 547 , 960 544 
L 960 536 
" fill="#D21010" />
<path d="
M 960 521 
L 960 523 
Q 953 522 , 949 521 
Q 944 521 , 939 521 
Q 929 521 , 924 522 
Q 918 524 , 918 527 
Q 918 531 , 924 532 
Q 929 534 , 939 534 
Q 944 534 , 949 534 
Q 953 533 , 960 531 
L 960 534 
Q 955 535 , 949 535 
Q 945 536 , 939 536 
Q 925 536 , 918 533 
Q 910 531 , 910 527 
Q 910 524 , 918 521 
Q 925 519 , 939 519 
Q 945 519 , 950 519 
Q 955 520 , 960 521 
" fill="lightgray" />
<path d="
M 1002 533 
L 1002 529 
L 988 529 
L 988 527 
L 1010 527 
L 1010 534 
Q 1005 535 , 999 535 
Q 994 536 , 988 536 
Q 975 536 , 968 533 
Q 960 531 , 960 527 
Q 960 523 , 968 521 
Q 975 519 , 988 519 
Q 994 519 , 999 519 
Q 1004 520 , 1009 520 
L 1009 522 
Q 1002 522 , 998 521 
Q 994 521 , 989 521 
Q 979 521 , 973 523 
Q 968 524 , 968 527 
Q 968 531 , 973 532 
Q 979 534 , 989 534 
Q 994 534 , 997 534 
Q 1001 534 , 1002 533 
" fill="#F5C000" />
<path d="
M 910 486 
L 919 486 
L 919 505 
Q 919 511 , 923 513 
Q 926 515 , 935 515 
Q 944 515 , 947 513 
Q 951 511 , 951 505 
L 951 486 
L 960 486 
L 960 506 
Q 960 512 , 954 515 
Q 947 519 , 935 519 
Q 923 519 , 916 515 
Q 910 512 , 910 506 
L 910 486 
" fill="lightgray" />
<path d="
M 985 492 
L 976 505 
L 993 505 
L 985 492 
M 981 486 
L 989 486 
L 1010 519 
L 1002 519 
L 996 509 
L 974 509 
L 967 519 
L 960 519 
L 981 486 
" fill="#339541" />
<path d="
M 952 461 
L 952 416 
L 938 416 
L 938 398 
L 960 398 
L 960 473 
Q 955 480 , 949 483 
Q 944 485 , 938 486 
Q 925 486 , 918 463 
Q 910 441 , 910 401 
Q 910 362 , 918 340 
Q 925 317 , 938 317 
Q 944 317 , 949 320 
Q 954 323 , 959 331 
L 959 352 
Q 952 343 , 948 340 
Q 944 337 , 939 337 
Q 929 337 , 923 353 
Q 918 369 , 918 401 
Q 918 434 , 923 451 
Q 929 467 , 939 467 
Q 944 467 , 947 465 
Q 951 463 , 952 461 
" fill="lightgray" />
<path d="
M 1010 335 
L 1010 361 
Q 1003 344 , 999 340 
Q 994 336 , 989 336 
Q 979 336 , 974 352 
Q 968 369 , 968 401 
Q 968 434 , 974 451 
Q 979 467 , 989 467 
Q 994 467 , 999 463 
Q 1003 458 , 1010 442 
L 1010 468 
Q 1005 478 , 999 482 
Q 995 486 , 989 486 
Q 975 486 , 968 463 
Q 960 440 , 960 401 
Q 960 363 , 968 340 
Q 975 317 , 989 317 
Q 995 317 , 1000 321 
Q 1005 325 , 1010 335 
" fill="#545FFF" />
<path d="
M 1099 554 
L 1099 553 
L 1070 553 
L 1070 553 
L 1115 553 
L 1115 554 
Q 1104 554 , 1093 554 
Q 1084 554 , 1072 554 
Q 1046 554 , 1030 554 
Q 1015 554 , 1015 553 
Q 1015 553 , 1030 552 
Q 1046 552 , 1072 552 
Q 1083 552 , 1092 552 
Q 1102 552 , 1112 552 
L 1112 553 
Q 1099 552 , 1091 552 
Q 1082 552 , 1073 552 
Q 1052 552 , 1041 553 
Q 1031 553 , 1031 553 
Q 1031 554 , 1041 554 
Q 1052 554 , 1073 554 
Q 1082 554 , 1089 554 
Q 1096 554 , 1099 554 
" fill="#F5C000" />
<path d="
M 1065 548 
L 1047 549 
L 1081 549 
L 1065 548 
M 1058 547 
L 1072 547 
L 1115 551 
L 1099 551 
L 1087 550 
L 1043 550 
L 1030 551 
L 1015 551 
L 1058 547 
" fill="#339541" />
<path d="
M 1115 543 
L 1115 543 
Q 1100 543 , 1092 543 
Q 1084 543 , 1074 543 
Q 1053 543 , 1043 543 
Q 1031 544 , 1031 544 
Q 1031 545 , 1043 546 
Q 1053 546 , 1074 546 
Q 1084 546 , 1092 546 
Q 1100 546 , 1115 546 
L 1115 546 
Q 1104 547 , 1094 547 
Q 1084 547 , 1073 547 
Q 1046 547 , 1031 546 
Q 1015 546 , 1015 544 
Q 1015 543 , 1031 543 
Q 1046 542 , 1073 542 
Q 1084 542 , 1094 542 
Q 1105 542 , 1115 543 
" fill="#545FFF" />
<path d="
M 1015 534 
L 1033 534 
L 1033 538 
Q 1033 539 , 1041 540 
Q 1048 540 , 1065 540 
Q 1082 540 , 1090 540 
Q 1097 539 , 1097 538 
L 1097 534 
L 1115 534 
L 1115 538 
Q 1115 540 , 1102 540 
Q 1090 541 , 1065 541 
Q 1041 541 , 1028 540 
Q 1015 540 , 1015 538 
L 1015 534 
" fill="#D21010" />
<path d="
M 1120 547 
L 1129 547 
L 1129 552 
Q 1129 553 , 1133 553 
Q 1136 554 , 1145 554 
Q 1154 554 , 1157 553 
Q 1161 553 , 1161 552 
L 1161 547 
L 1170 547 
L 1170 552 
Q 1170 553 , 1164 554 
Q 1157 555 , 1145 555 
Q 1133 555 , 1126 554 
Q 1120 553 , 1120 552 
L 1120 547 
" fill="lightgray" />
<path d="
M 1195 548 
L 1186 552 
L 1203 552 
L 1195 548 
M 1191 547 
L 1199 547 
L 1220 555 
L 1212 555 
L 1206 552 
L 1184 552 
L 1177 555 
L 1170 555 
L 1191 547 
" fill="#339541" />
<path d="
M 1162 546 
L 1162 543 
L 1148 543 
L 1148 542 
L 1170 542 
L 1170 546 
Q 1165 547 , 1159 547 
Q 1154 547 , 1148 547 
Q 1135 547 , 1128 546 
Q 1120 544 , 1120 542 
Q 1120 540 , 1128 538 
Q 1135 537 , 1148 537 
Q 1154 537 , 1159 537 
Q 1164 537 , 1169 538 
L 1169 539 
Q 1162 539 , 1158 538 
Q 1154 538 , 1149 538 
Q 1139 538 , 1133 539 
Q 1128 540 , 1128 542 
Q 1128 544 , 1133 545 
Q 1139 546 , 1149 546 
Q 1154 546 , 1157 546 
Q 1161 546 , 1162 546 
" fill="lightgray" />
<path d="
M 1170 537 
L 1179 537 
L 1179 543 
Q 1179 545 , 1183 545 
Q 1186 546 , 1195 546 
Q 1204 546 , 1207 545 
Q 1211 545 , 1211 543 
L 1211 537 
L 1220 537 
L 1220 543 
Q 1220 545 , 1214 546 
Q 1207 547 , 1195 547 
Q 1183 547 , 1176 546 
Q 1170 545 , 1170 543 
L 1170 537 
" fill="#D21010" />
<path d="
M 1120 525 
L 1129 525 
L 1129 532 
Q 1129 533 , 1133 534 
Q 1136 535 , 1145 535 
Q 1154 535 , 1157 534 
Q 1161 533 , 1161 532 
L 1161 525 
L 1170 525 
L 1170 532 
Q 1170 534 , 1164 535 
Q 1157 536 , 1145 536 
Q 1133 536 , 1126 535 
Q 1120 534 , 1120 532 
L 1120 525 
" fill="lightgray" />
<path d="
M 1212 534 
L 1212 531 
L 1198 531 
L 1198 530 
L 1220 530 
L 1220 535 
Q 1215 536 , 1209 536 
Q 1204 536 , 1198 536 
Q 1185 536 , 1178 535 
Q 1170 533 , 1170 531 
Q 1170 528 , 1178 526 
Q 1185 525 , 1198 525 
Q 1204 525 , 1209 525 
Q 1214 525 , 1219 526 
L 1219 527 
Q 1212 527 , 1208 526 
Q 1204 526 , 1199 526 
Q 1189 526 , 1183 527 
Q 1178 528 , 1178 531 
Q 1178 533 , 1183 534 
Q 1189 535 , 1199 535 
Q 1204 535 , 1207 535 
Q 1211 535 , 1212 534 
" fill="#F5C000" />
<path d="
M 1145 515 
L 1136 520 
L 1153 520 
L 1145 515 
M 1141 513 
L 1149 513 
L 1170 524 
L 1162 524 
L 1156 521 
L 1134 521 
L 1127 524 
L 1120 524 
L 1141 513 
" fill="lightgray" />
<path d="
M 1170 513 
L 1179 513 
L 1179 520 
Q 1179 521 , 1183 522 
Q 1186 523 , 1195 523 
Q 1204 523 , 1207 522 
Q 1211 521 , 1211 520 
L 1211 513 
L 1220 513 
L 1220 520 
Q 1220 522 , 1214 523 
Q 1207 524 , 1195 524 
Q 1183 524 , 1176 523 
Q 1170 522 , 1170 520 
L 1170 513 
" fill="#D21010" />
<path d="
M 1162 510 
L 1162 505 
L 1148 505 
L 1148 502 
L 1170 502 
L 1170 511 
Q 1165 512 , 1159 512 
Q 1154 513 , 1148 513 
Q 1135 513 , 1128 510 
Q 1120 507 , 1120 503 
Q 1120 498 , 1128 496 
Q 1135 493 , 1148 493 
Q 1154 493 , 1159 493 
Q 1164 494 , 1169 495 
L 1169 497 
Q 1162 496 , 1158 496 
Q 1154 495 , 1149 495 
Q 1139 495 , 1133 497 
Q 1128 499 , 1128 503 
Q 1128 507 , 1133 509 
Q 1139 511 , 1149 511 
Q 1154 511 , 1157 510 
Q 1161 510 , 1162 510 
" fill="lightgray" />
<path d="
M 1220 495 
L 1220 498 
Q 1213 496 , 1209 496 
Q 1204 495 , 1199 495 
Q 1189 495 , 1184 497 
Q 1178 499 , 1178 503 
Q 1178 507 , 1184 509 
Q 1189 511 , 1199 511 
Q 1204 511 , 1209 510 
Q 1213 510 , 1220 508 
L 1220 511 
Q 1215 512 , 1209 512 
Q 1205 513 , 1199 513 
Q 1185 513 , 1178 510 
Q 1170 507 , 1170 503 
Q 1170 498 , 1178 496 
Q 1185 493 , 1199 493 
Q 1205 493 , 1210 493 
Q 1215 494 , 1220 495 
" fill="#545FFF" />
<path d="
M 1170 379 
L 1170 399 
Q 1163 386 , 1159 383 
Q 1154 380 , 1149 380 
Q 1139 380 , 1134 392 
Q 1128 405 , 1128 429 
Q 1128 454 , 1134 466 
Q 1139 479 , 1149 479 
Q 1154 479 , 1159 475 
Q 1163 472 , 1170 459 
L 1170 479 
Q 1165 486 , 1159 489 
Q 1155 492 , 1149 492 
Q 1135 492 , 1128 475 
Q 1120 458 , 1120 429 
Q 1120 400 , 1128 383 
Q 1135 366 , 1149 366 
Q 1155 366 , 1160 369 
Q 1165 372 , 1170 379 
" fill="lightgray" />
<path d="
M 1212 474 
L 1212 440 
L 1198 440 
L 1198 426 
L 1220 426 
L 1220 483 
Q 1215 488 , 1209 490 
Q 1204 492 , 1198 492 
Q 1185 492 , 1178 475 
Q 1170 459 , 1170 429 
Q 1170 400 , 1178 383 
Q 1185 366 , 1198 366 
Q 1204 366 , 1209 368 
Q 1214 371 , 1219 376 
L 1219 392 
Q 1212 385 , 1208 383 
Q 1204 381 , 1199 381 
Q 1189 381 , 1183 393 
Q 1178 405 , 1178 429 
Q 1178 454 , 1183 466 
Q 1189 478 , 1199 478 
Q 1204 478 , 1207 477 
Q 1211 476 , 1212 474 
" fill="#F5C000" />
<path d="
M 1225 550 
L 1243 550 
L 1243 553 
Q 1243 553 , 1251 554 
Q 1258 554 , 1275 554 
Q 1292 554 , 1300 554 
Q 1307 553 , 1307 553 
L 1307 550 
L 1325 550 
L 1325 553 
Q 1325 554 , 1312 554 
Q 1300 555 , 1275 555 
Q 1251 555 , 1238 554 
Q 1225 554 , 1225 553 
L 1225 550 
" fill="#D21010" />
<path d="
M 1275 543 
L 1257 546 
L 1291 546 
L 1275 543 
M 1268 542 
L 1282 542 
L 1325 549 
L 1309 549 
L 1297 547 
L 1253 547 
L 1240 549 
L 1225 549 
L 1268 542 
" fill="#339541" />
<path d="
M 1309 537 
L 1309 527 
L 1280 527 
L 1280 524 
L 1325 524 
L 1325 539 
Q 1314 541 , 1303 541 
Q 1294 542 , 1282 542 
Q 1256 542 , 1240 537 
Q 1225 533 , 1225 524 
Q 1225 516 , 1240 512 
Q 1256 507 , 1282 507 
Q 1293 507 , 1302 508 
Q 1312 508 , 1322 510 
L 1322 514 
Q 1309 512 , 1301 512 
Q 1292 511 , 1283 511 
Q 1262 511 , 1251 514 
Q 1241 518 , 1241 524 
Q 1241 531 , 1251 535 
Q 1262 538 , 1283 538 
Q 1292 538 , 1299 538 
Q 1306 537 , 1309 537 
" fill="#F5C000" />
<path d="
M 1325 458 
L 1325 466 
Q 1310 461 , 1302 459 
Q 1294 458 , 1284 458 
Q 1263 458 , 1253 463 
Q 1241 469 , 1241 479 
Q 1241 490 , 1253 495 
Q 1263 501 , 1284 501 
Q 1294 501 , 1302 499 
Q 1310 498 , 1325 492 
L 1325 501 
Q 1314 504 , 1304 505 
Q 1294 507 , 1283 507 
Q 1256 507 , 1241 499 
Q 1225 492 , 1225 479 
Q 1225 467 , 1241 459 
Q 1256 452 , 1283 452 
Q 1294 452 , 1304 453 
Q 1315 455 , 1325 458 
" fill="#545FFF" />
<path d="
M 1380 554 
L 1362 554 
L 1396 554 
L 1380 554 
M 1373 554 
L 1387 554 
L 1430 554 
L 1414 554 
L 1402 554 
L 1358 554 
L 1345 554 
L 1330 554 
L 1373 554 
" fill="#339541" />
<path d="
M 1330 553 
L 1348 553 
L 1348 553 
Q 1348 553 , 1356 553 
Q 1363 554 , 1380 554 
Q 1397 554 , 1405 553 
Q 1412 553 , 1412 553 
L 1412 553 
L 1430 553 
L 1430 553 
Q 1430 553 , 1417 554 
Q 1405 554 , 1380 554 
Q 1356 554 , 1343 554 
Q 1330 553 , 1330 553 
L 1330 553 
" fill="#D21010" />
<path d="
M 1430 552 
L 1430 552 
Q 1415 552 , 1407 552 
Q 1399 552 , 1389 552 
Q 1368 552 , 1358 552 
Q 1346 552 , 1346 552 
Q 1346 552 , 1358 553 
Q 1368 553 , 1389 553 
Q 1399 553 , 1407 553 
Q 1415 553 , 1430 552 
L 1430 553 
Q 1419 553 , 1409 553 
Q 1399 553 , 1388 553 
Q 1361 553 , 1346 553 
Q 1330 552 , 1330 552 
Q 1330 552 , 1346 552 
Q 1361 552 , 1388 552 
Q 1399 552 , 1409 552 
Q 1420 552 , 1430 552 
" fill="#545FFF" />
<path d="
M 1414 552 
L 1414 551 
L 1385 551 
L 1385 551 
L 1430 551 
L 1430 552 
Q 1419 552 , 1408 552 
Q 1399 552 , 1387 552 
Q 1361 552 , 1345 552 
Q 1330 552 , 1330 551 
Q 1330 551 , 1345 551 
Q 1361 551 , 1387 551 
Q 1398 551 , 1407 551 
Q 1417 551 , 1427 551 
L 1427 551 
Q 1414 551 , 1406 551 
Q 1397 551 , 1388 551 
Q 1367 551 , 1356 551 
Q 1346 551 , 1346 551 
Q 1346 551 , 1356 552 
Q 1367 552 , 1388 552 
Q 1397 552 , 1404 552 
Q 1411 552 , 1414 552 
" fill="#F5C000" />
<path d="M 65 168 L 65 555 " stroke="black" stroke-width="1.5"/>
<path d="M 55 555 L 65 555 " stroke="black" stroke-width="4"/>
<text text-anchor="end" x="50" y="555" font-size="50" alignment-baseline="middle">0</text>
<path d="M 55 362 L 65 362 " stroke="black" stroke-width="4"/>
<text text-anchor="end" x="50" y="362" font-size="50" alignment-baseline="middle">1</text>
<path d="M 55 168 L 65 168 " stroke="black" stroke-width="4"/>
<text text-anchor="end" x="50" y="168" font-size="50" alignment-baseline="middle">2</text>
<text text-anchor="middle" x="750" y="50" font-size="50" alignment-baseline="baseline"></text>
G<path d="
M 160 582 
L 126 595 
L 160 608 
L 157 611 
L 123 598 
L 123 623 
L 117 623 
L 117 599 
L 83 611 
L 80 608 
L 114 595 
L 80 582 
L 83 579 
L 117 591 
L 117 567 
L 123 567 
L 123 591 
L 157 579 
L 160 582 
" fill="black" />
<path d="
M 265 567 
Q 236 574 , 223 581 
Q 210 588 , 210 595 
Q 210 602 , 223 609 
Q 236 616 , 265 623 
L 241 623 
Q 213 616 , 199 609 
Q 185 602 , 185 595 
Q 185 588 , 199 581 
Q 213 574 , 241 567 
L 265 567 
" fill="black" />
<path d="
" fill="black" />
<path d="
M 316 567 
L 343 567 
L 343 623 
L 316 623 
L 316 567 
" fill="black" />
<path d="
" fill="black" />
<path d="
M 475 567 
Q 446 574 , 433 581 
Q 420 588 , 420 595 
Q 420 602 , 433 609 
Q 446 616 , 475 623 
L 451 623 
Q 423 616 , 409 609 
Q 395 602 , 395 595 
Q 395 588 , 409 581 
Q 423 574 , 451 567 
L 475 567 
" fill="black" />
<path d="
" fill="black" />
<path d="
M 526 567 
L 553 567 
L 553 623 
L 526 623 
L 526 567 
" fill="black" />
<path d="
" fill="black" />
<path d="
" fill="black" />
<path d="
M 617 567 
L 633 567 
L 633 623 
L 617 623 
L 617 567 
" fill="black" />
<path d="
" fill="black" />
<path d="
M 659 619 
L 665 619 
L 665 572 
L 657 578 
L 657 573 
L 665 567 
L 667 567 
L 667 619 
L 673 619 
L 673 623 
L 659 623 
L 659 619 
" fill="black" />
<path d="
M 685 571 
Q 682 571 , 681 577 
Q 679 583 , 679 595 
Q 679 607 , 681 613 
Q 682 619 , 685 619 
Q 688 619 , 689 613 
Q 691 607 , 691 595 
Q 691 583 , 689 577 
Q 688 571 , 685 571 
M 685 567 
Q 689 567 , 691 573 
Q 693 580 , 693 595 
Q 693 610 , 691 617 
Q 689 623 , 685 623 
Q 681 623 , 679 617 
Q 677 610 , 677 595 
Q 677 580 , 679 573 
Q 681 567 , 685 567 
" fill="black" />
<path d="
M 790 582 
L 756 595 
L 790 608 
L 787 611 
L 753 598 
L 753 623 
L 747 623 
L 747 599 
L 713 611 
L 710 608 
L 744 595 
L 710 582 
L 713 579 
L 747 591 
L 747 567 
L 753 567 
L 753 591 
L 787 579 
L 790 582 
" fill="black" />
<path d="
" fill="black" />
<path d="
M 841 567 
L 868 567 
L 868 623 
L 841 623 
L 841 567 
" fill="black" />
<path d="
" fill="black" />
<path d="
M 920 567 
L 944 567 
Q 972 574 , 986 581 
Q 1000 588 , 1000 595 
Q 1000 602 , 986 609 
Q 972 616 , 944 623 
L 920 623 
Q 949 616 , 962 609 
Q 975 602 , 975 595 
Q 975 588 , 962 581 
Q 949 574 , 920 567 
" fill="black" />
<path d="
" fill="black" />
<path d="
M 1051 567 
L 1078 567 
L 1078 623 
L 1051 623 
L 1051 567 
" fill="black" />
<path d="
" fill="black" />
<path d="
M 1130 567 
L 1154 567 
Q 1182 574 , 1196 581 
Q 1210 588 , 1210 595 
Q 1210 602 , 1196 609 
Q 1182 616 , 1154 623 
L 1130 623 
Q 1159 616 , 1172 609 
Q 1185 602 , 1185 595 
Q 1185 588 , 1172 581 
Q 1159 574 , 1130 567 
" fill="black" />
<path d="
" fill="black" />
<path d="
M 1261 567 
L 1288 567 
L 1288 623 
L 1261 623 
L 1261 567 
" fill="black" />
<path d="
" fill="black" />
<path d="
M 1420 582 
L 1386 595 
L 1420 608 
L 1417 611 
L 1383 598 
L 1383 623 
L 1377 623 
L 1377 599 
L 1343 611 
L 1340 608 
L 1374 595 
L 1340 582 
L 1343 579 
L 1377 591 
L 1377 567 
L 1383 567 
L 1383 591 
L 1417 579 
L 1420 582 
" fill="black" />
</svg>
