<svg xmlns="http://www.w3.org/2000/svg"
viewBox="0 0 1435 635">
<path d="
M 120 554 
L 102 554 
L 136 554 
L 120 554 
M 113 554 
L 127 554 
L 170 555 
L 154 555 
L 142 554 
L 98 554 
L 85 555 
L 70 555 
L 113 554 
" fill="#339541" />
<path d="
M 70 553 
L 88 553 
L 88 553 
Q 88 553 , 96 553 
Q 103 554 , 120 554 
Q 137 554 , 145 553 
Q 152 553 , 152 553 
L 152 553 
L 170 553 
L 170 553 
Q 170 553 , 157 554 
Q 145 554 , 120 554 
Q 96 554 , 83 554 
Q 70 553 , 70 553 
L 70 553 
" fill="#D21010" />
<path d="
M 170 552 
L 170 552 
Q 155 552 , 147 552 
Q 139 552 , 129 552 
Q 108 552 , 98 552 
Q 86 552 , 86 552 
Q 86 553 , 98 553 
Q 108 553 , 129 553 
Q 139 553 , 147 553 
Q 155 553 , 170 553 
L 170 553 
Q 159 553 , 149 553 
Q 139 553 , 128 553 
Q 101 553 , 86 553 
Q 70 553 , 70 552 
Q 70 552 , 86 552 
Q 101 552 , 128 552 
Q 139 552 , 149 552 
Q 160 552 , 170 552 
" fill="#545FFF" />
<path d="
M 154 552 
L 154 551 
L 125 551 
L 125 551 
L 170 551 
L 170 552 
Q 159 552 , 148 552 
Q 139 552 , 127 552 
Q 101 552 , 85 552 
Q 70 552 , 70 551 
Q 70 551 , 85 551 
Q 101 551 , 127 551 
Q 138 551 , 147 551 
Q 157 551 , 167 551 
L 167 551 
Q 154 551 , 146 551 
Q 137 551 , 128 551 
Q 107 551 , 96 551 
Q 86 551 , 86 551 
Q 86 552 , 96 552 
Q 107 552 , 128 552 
Q 137 552 , 144 552 
Q 151 552 , 154 552 
" fill="#F5C000" />
<path d="
M 217 554 
L 217 553 
L 203 553 
L 203 553 
L 225 553 
L 225 554 
Q 220 554 , 214 554 
Q 209 554 , 203 554 
Q 190 554 , 183 554 
Q 175 553 , 175 553 
Q 175 552 , 183 551 
Q 190 551 , 203 551 
Q 209 551 , 214 551 
Q 219 551 , 224 551 
L 224 552 
Q 217 552 , 213 551 
Q 209 551 , 204 551 
Q 194 551 , 188 552 
Q 183 552 , 183 553 
Q 183 553 , 188 554 
Q 194 554 , 204 554 
Q 209 554 , 212 554 
Q 216 554 , 217 554 
" fill="#F5C000" />
<path d="
M 275 551 
L 275 552 
Q 268 552 , 264 551 
Q 259 551 , 254 551 
Q 244 551 , 239 552 
Q 233 552 , 233 552 
Q 233 553 , 239 554 
Q 244 554 , 254 554 
Q 259 554 , 264 554 
Q 268 554 , 275 554 
L 275 554 
Q 270 554 , 264 554 
Q 260 554 , 254 554 
Q 240 554 , 233 554 
Q 225 553 , 225 553 
Q 225 552 , 233 551 
Q 240 551 , 254 551 
Q 260 551 , 265 551 
Q 270 551 , 275 551 
" fill="lightgray" />
<path d="
M 175 546 
L 184 546 
L 184 549 
Q 184 549 , 188 550 
Q 191 550 , 200 550 
Q 209 550 , 212 550 
Q 216 549 , 216 549 
L 216 546 
L 225 546 
L 225 549 
Q 225 549 , 219 550 
Q 212 550 , 200 550 
Q 188 550 , 181 550 
Q 175 549 , 175 549 
L 175 546 
" fill="#D21010" />
<path d="
M 250 547 
L 241 549 
L 258 549 
L 250 547 
M 246 546 
L 254 546 
L 275 550 
L 267 550 
L 261 549 
L 239 549 
L 232 550 
L 225 550 
L 246 546 
" fill="lightgray" />
<path d="
M 175 538 
L 184 538 
L 184 543 
Q 184 544 , 188 545 
Q 191 545 , 200 545 
Q 209 545 , 212 545 
Q 216 544 , 216 543 
L 216 538 
L 225 538 
L 225 543 
Q 225 544 , 219 545 
Q 212 546 , 200 546 
Q 188 546 , 181 545 
Q 175 544 , 175 543 
L 175 538 
" fill="#D21010" />
<path d="
M 267 545 
L 267 543 
L 253 543 
L 253 542 
L 275 542 
L 275 545 
Q 270 546 , 264 546 
Q 259 546 , 253 546 
Q 240 546 , 233 545 
Q 225 544 , 225 542 
Q 225 540 , 233 539 
Q 240 538 , 253 538 
Q 259 538 , 264 538 
Q 269 538 , 274 539 
L 274 540 
Q 267 539 , 263 539 
Q 259 539 , 254 539 
Q 244 539 , 238 540 
Q 233 540 , 233 542 
Q 233 544 , 238 544 
Q 244 545 , 254 545 
Q 259 545 , 262 545 
Q 266 545 , 267 545 
" fill="lightgray" />
<path d="
M 200 530 
L 191 534 
L 208 534 
L 200 530 
M 196 529 
L 204 529 
L 225 537 
L 217 537 
L 211 535 
L 189 535 
L 182 537 
L 175 537 
L 196 529 
" fill="#339541" />
<path d="
M 225 529 
L 234 529 
L 234 534 
Q 234 535 , 238 536 
Q 241 536 , 250 536 
Q 259 536 , 262 536 
Q 266 535 , 266 534 
L 266 529 
L 275 529 
L 275 534 
Q 275 535 , 269 536 
Q 262 537 , 250 537 
Q 238 537 , 231 536 
Q 225 535 , 225 534 
L 225 529 
" fill="lightgray" />
<path d="
M 217 526 
L 217 522 
L 203 522 
L 203 520 
L 225 520 
L 225 527 
Q 220 528 , 214 528 
Q 209 528 , 203 528 
Q 190 528 , 183 526 
Q 175 524 , 175 521 
Q 175 517 , 183 515 
Q 190 513 , 203 513 
Q 209 513 , 214 513 
Q 219 514 , 224 514 
L 224 516 
Q 217 515 , 213 515 
Q 209 515 , 204 515 
Q 194 515 , 188 516 
Q 183 518 , 183 521 
Q 183 524 , 188 525 
Q 194 526 , 204 526 
Q 209 526 , 212 526 
Q 216 526 , 217 526 
" fill="#F5C000" />
<path d="
M 225 513 
L 234 513 
L 234 522 
Q 234 524 , 238 525 
Q 241 526 , 250 526 
Q 259 526 , 262 525 
Q 266 524 , 266 522 
L 266 513 
L 275 513 
L 275 522 
Q 275 525 , 269 527 
Q 262 528 , 250 528 
Q 238 528 , 231 527 
Q 225 525 , 225 522 
L 225 513 
" fill="lightgray" />
<path d="
M 225 490 
L 225 494 
Q 218 491 , 214 491 
Q 209 490 , 204 490 
Q 194 490 , 189 492 
Q 183 495 , 183 500 
Q 183 505 , 189 507 
Q 194 510 , 204 510 
Q 209 510 , 214 509 
Q 218 509 , 225 506 
L 225 510 
Q 220 512 , 214 512 
Q 210 513 , 204 513 
Q 190 513 , 183 509 
Q 175 506 , 175 500 
Q 175 494 , 183 491 
Q 190 487 , 204 487 
Q 210 487 , 215 488 
Q 220 488 , 225 490 
" fill="#545FFF" />
<path d="
M 267 509 
L 267 502 
L 253 502 
L 253 499 
L 275 499 
L 275 511 
Q 270 512 , 264 512 
Q 259 513 , 253 513 
Q 240 513 , 233 509 
Q 225 506 , 225 500 
Q 225 494 , 233 490 
Q 240 487 , 253 487 
Q 259 487 , 264 487 
Q 269 488 , 274 489 
L 274 492 
Q 267 491 , 263 490 
Q 259 490 , 254 490 
Q 244 490 , 238 492 
Q 233 495 , 233 500 
Q 233 505 , 238 507 
Q 244 510 , 254 510 
Q 259 510 , 262 510 
Q 266 509 , 267 509 
" fill="lightgray" />
<path d="
M 322 554 
L 322 552 
L 308 552 
L 308 552 
L 330 552 
L 330 554 
Q 325 554 , 319 554 
Q 314 554 , 308 554 
Q 295 554 , 288 554 
Q 280 553 , 280 552 
Q 280 551 , 288 551 
Q 295 550 , 308 550 
Q 314 550 , 319 550 
Q 324 550 , 329 550 
L 329 551 
Q 322 551 , 318 551 
Q 314 550 , 309 550 
Q 299 550 , 293 551 
Q 288 551 , 288 552 
Q 288 553 , 293 553 
Q 299 554 , 309 554 
Q 314 554 , 317 554 
Q 321 554 , 322 554 
" fill="#F5C000" />
<path d="
M 330 550 
L 339 550 
L 339 552 
Q 339 553 , 343 553 
Q 346 554 , 355 554 
Q 364 554 , 367 553 
Q 371 553 , 371 552 
L 371 550 
L 380 550 
L 380 553 
Q 380 553 , 374 554 
Q 367 554 , 355 554 
Q 343 554 , 336 554 
Q 330 553 , 330 553 
L 330 550 
" fill="lightgray" />
<path d="
M 280 545 
L 289 545 
L 289 548 
Q 289 549 , 293 549 
Q 296 549 , 305 549 
Q 314 549 , 317 549 
Q 321 549 , 321 548 
L 321 545 
L 330 545 
L 330 548 
Q 330 549 , 324 549 
Q 317 550 , 305 550 
Q 293 550 , 286 549 
Q 280 549 , 280 548 
L 280 545 
" fill="#D21010" />
<path d="
M 355 546 
L 346 548 
L 363 548 
L 355 546 
M 351 545 
L 359 545 
L 380 550 
L 372 550 
L 366 548 
L 344 548 
L 337 550 
L 330 550 
L 351 545 
" fill="lightgray" />
<path d="
M 280 538 
L 289 538 
L 289 542 
Q 289 543 , 293 543 
Q 296 544 , 305 544 
Q 314 544 , 317 543 
Q 321 543 , 321 542 
L 321 538 
L 330 538 
L 330 542 
Q 330 543 , 324 544 
Q 317 544 , 305 544 
Q 293 544 , 286 544 
Q 280 543 , 280 542 
L 280 538 
" fill="#D21010" />
<path d="
M 372 544 
L 372 542 
L 358 542 
L 358 541 
L 380 541 
L 380 544 
Q 375 544 , 369 544 
Q 364 544 , 358 544 
Q 345 544 , 338 544 
Q 330 543 , 330 541 
Q 330 540 , 338 539 
Q 345 538 , 358 538 
Q 364 538 , 369 538 
Q 374 538 , 379 539 
L 379 539 
Q 372 539 , 368 539 
Q 364 539 , 359 539 
Q 349 539 , 343 539 
Q 338 540 , 338 541 
Q 338 543 , 343 543 
Q 349 544 , 359 544 
Q 364 544 , 367 544 
Q 371 544 , 372 544 
" fill="lightgray" />
<path d="
M 305 532 
L 296 535 
L 313 535 
L 305 532 
M 301 531 
L 309 531 
L 330 538 
L 322 538 
L 316 536 
L 294 536 
L 287 538 
L 280 538 
L 301 531 
" fill="#339541" />
<path d="
M 330 531 
L 339 531 
L 339 535 
Q 339 536 , 343 537 
Q 346 537 , 355 537 
Q 364 537 , 367 537 
Q 371 536 , 371 535 
L 371 531 
L 380 531 
L 380 535 
Q 380 537 , 374 537 
Q 367 538 , 355 538 
Q 343 538 , 336 537 
Q 330 537 , 330 535 
L 330 531 
" fill="lightgray" />
<path d="
M 330 516 
L 330 518 
Q 323 517 , 319 516 
Q 314 516 , 309 516 
Q 299 516 , 294 517 
Q 288 519 , 288 522 
Q 288 525 , 294 527 
Q 299 529 , 309 529 
Q 314 529 , 319 528 
Q 323 528 , 330 526 
L 330 529 
Q 325 530 , 319 530 
Q 315 531 , 309 531 
Q 295 531 , 288 528 
Q 280 526 , 280 522 
Q 280 518 , 288 516 
Q 295 514 , 309 514 
Q 315 514 , 320 514 
Q 325 515 , 330 516 
" fill="#545FFF" />
<path d="
M 372 528 
L 372 524 
L 358 524 
L 358 522 
L 380 522 
L 380 529 
Q 375 530 , 369 530 
Q 364 531 , 358 531 
Q 345 531 , 338 528 
Q 330 526 , 330 522 
Q 330 518 , 338 516 
Q 345 514 , 358 514 
Q 364 514 , 369 514 
Q 374 515 , 379 515 
L 379 517 
Q 372 517 , 368 516 
Q 364 516 , 359 516 
Q 349 516 , 343 518 
Q 338 519 , 338 522 
Q 338 526 , 343 527 
Q 349 529 , 359 529 
Q 364 529 , 367 529 
Q 371 528 , 372 528 
" fill="lightgray" />
<path d="
M 322 510 
L 322 504 
L 308 504 
L 308 501 
L 330 501 
L 330 512 
Q 325 513 , 319 513 
Q 314 514 , 308 514 
Q 295 514 , 288 511 
Q 280 507 , 280 501 
Q 280 496 , 288 492 
Q 295 489 , 308 489 
Q 314 489 , 319 489 
Q 324 490 , 329 491 
L 329 494 
Q 322 493 , 318 492 
Q 314 492 , 309 492 
Q 299 492 , 293 494 
Q 288 497 , 288 501 
Q 288 506 , 293 509 
Q 299 511 , 309 511 
Q 314 511 , 317 511 
Q 321 511 , 322 510 
" fill="#F5C000" />
<path d="
M 380 492 
L 380 495 
Q 373 493 , 369 492 
Q 364 492 , 359 492 
Q 349 492 , 344 494 
Q 338 497 , 338 501 
Q 338 506 , 344 509 
Q 349 511 , 359 511 
Q 364 511 , 369 511 
Q 373 510 , 380 507 
L 380 511 
Q 375 513 , 369 513 
Q 365 514 , 359 514 
Q 345 514 , 338 511 
Q 330 507 , 330 501 
Q 330 496 , 338 492 
Q 345 489 , 359 489 
Q 365 489 , 370 490 
Q 375 490 , 380 492 
" fill="lightgray" />
<path d="
M 385 548 
L 403 548 
L 403 552 
Q 403 553 , 411 554 
Q 418 554 , 435 554 
Q 452 554 , 460 554 
Q 467 553 , 467 552 
L 467 548 
L 485 548 
L 485 552 
Q 485 553 , 472 554 
Q 460 555 , 435 555 
Q 411 555 , 398 554 
Q 385 553 , 385 552 
L 385 548 
" fill="#D21010" />
<path d="
M 435 540 
L 417 544 
L 451 544 
L 435 540 
M 428 538 
L 442 538 
L 485 548 
L 469 548 
L 457 545 
L 413 545 
L 400 548 
L 385 548 
L 428 538 
" fill="#339541" />
<path d="
M 469 533 
L 469 527 
L 440 527 
L 440 524 
L 485 524 
L 485 535 
Q 474 536 , 463 537 
Q 454 537 , 442 537 
Q 416 537 , 400 534 
Q 385 530 , 385 525 
Q 385 519 , 400 515 
Q 416 512 , 442 512 
Q 453 512 , 462 512 
Q 472 513 , 482 514 
L 482 517 
Q 469 516 , 461 515 
Q 452 515 , 443 515 
Q 422 515 , 411 517 
Q 401 520 , 401 525 
Q 401 529 , 411 532 
Q 422 534 , 443 534 
Q 452 534 , 459 534 
Q 466 534 , 469 533 
" fill="#F5C000" />
<path d="
M 485 424 
L 485 439 
Q 470 430 , 462 427 
Q 454 425 , 444 425 
Q 423 425 , 413 434 
Q 401 444 , 401 463 
Q 401 482 , 413 491 
Q 423 501 , 444 501 
Q 454 501 , 462 498 
Q 470 496 , 485 486 
L 485 501 
Q 474 507 , 464 509 
Q 454 511 , 443 511 
Q 416 511 , 401 498 
Q 385 485 , 385 463 
Q 385 440 , 401 427 
Q 416 414 , 443 414 
Q 454 414 , 464 416 
Q 475 419 , 485 424 
" fill="#545FFF" />
<path d="
M 574 554 
L 574 552 
L 545 552 
L 545 552 
L 590 552 
L 590 554 
Q 579 555 , 568 555 
Q 559 555 , 547 555 
Q 521 555 , 505 554 
Q 490 553 , 490 552 
Q 490 551 , 505 550 
Q 521 549 , 547 549 
Q 558 549 , 567 549 
Q 577 549 , 587 549 
L 587 550 
Q 574 550 , 566 550 
Q 557 550 , 548 550 
Q 527 550 , 516 550 
Q 506 551 , 506 552 
Q 506 553 , 516 554 
Q 527 554 , 548 554 
Q 557 554 , 564 554 
Q 571 554 , 574 554 
" fill="#F5C000" />
<path d="
M 590 541 
L 590 542 
Q 575 541 , 567 541 
Q 559 541 , 549 541 
Q 528 541 , 518 542 
Q 506 542 , 506 544 
Q 506 546 , 518 546 
Q 528 547 , 549 547 
Q 559 547 , 567 547 
Q 575 547 , 590 546 
L 590 547 
Q 579 548 , 569 548 
Q 559 548 , 548 548 
Q 521 548 , 506 547 
Q 490 546 , 490 544 
Q 490 542 , 506 541 
Q 521 540 , 548 540 
Q 559 540 , 569 540 
Q 580 540 , 590 541 
" fill="#545FFF" />
<path d="
M 540 524 
L 522 532 
L 556 532 
L 540 524 
M 533 521 
L 547 521 
L 590 540 
L 574 540 
L 562 534 
L 518 534 
L 505 540 
L 490 540 
L 533 521 
" fill="#339541" />
<path d="
M 490 481 
L 508 481 
L 508 504 
Q 508 511 , 516 514 
Q 523 516 , 540 516 
Q 557 516 , 565 514 
Q 572 511 , 572 504 
L 572 481 
L 590 481 
L 590 505 
Q 590 513 , 577 517 
Q 565 521 , 540 521 
Q 516 521 , 503 517 
Q 490 513 , 490 505 
L 490 481 
" fill="#D21010" />
<path d="
M 645 550 
L 627 552 
L 661 552 
L 645 550 
M 638 549 
L 652 549 
L 695 554 
L 679 554 
L 667 553 
L 623 553 
L 610 554 
L 595 554 
L 638 549 
" fill="#339541" />
<path d="
M 695 542 
L 695 543 
Q 680 542 , 672 542 
Q 664 542 , 654 542 
Q 633 542 , 623 543 
Q 611 543 , 611 544 
Q 611 546 , 623 547 
Q 633 548 , 654 548 
Q 664 548 , 672 548 
Q 680 547 , 695 547 
L 695 548 
Q 684 548 , 674 548 
Q 664 549 , 653 549 
Q 626 549 , 611 547 
Q 595 546 , 595 545 
Q 595 543 , 611 542 
Q 626 541 , 653 541 
Q 664 541 , 674 541 
Q 685 541 , 695 542 
" fill="#545FFF" />
<path d="
M 595 514 
L 613 514 
L 613 530 
Q 613 534 , 621 536 
Q 628 537 , 645 537 
Q 662 537 , 670 536 
Q 677 534 , 677 530 
L 677 514 
L 695 514 
L 695 530 
Q 695 535 , 682 538 
Q 670 540 , 645 540 
Q 621 540 , 608 538 
Q 595 535 , 595 530 
L 595 514 
" fill="#D21010" />
<path d="
M 679 490 
L 679 445 
L 650 445 
L 650 427 
L 695 427 
L 695 501 
Q 684 508 , 673 511 
Q 664 514 , 652 514 
Q 626 514 , 610 492 
Q 595 470 , 595 431 
Q 595 392 , 610 369 
Q 626 347 , 652 347 
Q 663 347 , 672 350 
Q 682 353 , 692 361 
L 692 382 
Q 679 372 , 671 370 
Q 662 367 , 653 367 
Q 632 367 , 621 383 
Q 611 398 , 611 431 
Q 611 463 , 621 480 
Q 632 495 , 653 495 
Q 662 495 , 669 494 
Q 676 492 , 679 490 
" fill="#F5C000" />
<path d="
M 750 554 
L 732 554 
L 766 554 
L 750 554 
M 743 554 
L 757 554 
L 800 555 
L 784 555 
L 772 554 
L 728 554 
L 715 555 
L 700 555 
L 743 554 
" fill="#339541" />
<path d="
M 700 553 
L 718 553 
L 718 553 
Q 718 553 , 726 553 
Q 733 554 , 750 554 
Q 767 554 , 775 553 
Q 782 553 , 782 553 
L 782 553 
L 800 553 
L 800 553 
Q 800 553 , 787 554 
Q 775 554 , 750 554 
Q 726 554 , 713 554 
Q 700 553 , 700 553 
L 700 553 
" fill="#D21010" />
<path d="
M 800 552 
L 800 552 
Q 785 552 , 777 552 
Q 769 552 , 759 552 
Q 738 552 , 728 552 
Q 716 552 , 716 552 
Q 716 553 , 728 553 
Q 738 553 , 759 553 
Q 769 553 , 777 553 
Q 785 553 , 800 553 
L 800 553 
Q 789 553 , 779 553 
Q 769 553 , 758 553 
Q 731 553 , 716 553 
Q 700 553 , 700 552 
Q 700 552 , 716 552 
Q 731 552 , 758 552 
Q 769 552 , 779 552 
Q 790 552 , 800 552 
" fill="#545FFF" />
<path d="
M 784 552 
L 784 551 
L 755 551 
L 755 551 
L 800 551 
L 800 552 
Q 789 552 , 778 552 
Q 769 552 , 757 552 
Q 731 552 , 715 552 
Q 700 552 , 700 551 
Q 700 551 , 715 551 
Q 731 551 , 757 551 
Q 768 551 , 777 551 
Q 787 551 , 797 551 
L 797 551 
Q 784 551 , 776 551 
Q 767 551 , 758 551 
Q 737 551 , 726 551 
Q 716 551 , 716 551 
Q 716 552 , 726 552 
Q 737 552 , 758 552 
Q 767 552 , 774 552 
Q 781 552 , 784 552 
" fill="#F5C000" />
<path d="
M 805 550 
L 823 550 
L 823 553 
Q 823 554 , 831 554 
Q 838 554 , 855 554 
Q 872 554 , 880 554 
Q 887 554 , 887 553 
L 887 550 
L 905 550 
L 905 553 
Q 905 554 , 892 554 
Q 880 555 , 855 555 
Q 831 555 , 818 554 
Q 805 554 , 805 553 
L 805 550 
" fill="#D21010" />
<path d="
M 905 545 
L 905 545 
Q 890 545 , 882 545 
Q 874 545 , 864 545 
Q 843 545 , 833 545 
Q 821 546 , 821 547 
Q 821 548 , 833 548 
Q 843 549 , 864 549 
Q 874 549 , 882 549 
Q 890 548 , 905 548 
L 905 549 
Q 894 549 , 884 549 
Q 874 549 , 863 549 
Q 836 549 , 821 549 
Q 805 548 , 805 547 
Q 805 545 , 821 545 
Q 836 544 , 863 544 
Q 874 544 , 884 544 
Q 895 544 , 905 545 
" fill="#545FFF" />
<path d="
M 855 539 
L 837 541 
L 871 541 
L 855 539 
M 848 538 
L 862 538 
L 905 543 
L 889 543 
L 877 542 
L 833 542 
L 820 543 
L 805 543 
L 848 538 
" fill="#339541" />
<path d="
M 889 535 
L 889 532 
L 860 532 
L 860 530 
L 905 530 
L 905 536 
Q 894 537 , 883 537 
Q 874 537 , 862 537 
Q 836 537 , 820 535 
Q 805 534 , 805 531 
Q 805 528 , 820 526 
Q 836 524 , 862 524 
Q 873 524 , 882 524 
Q 892 524 , 902 525 
L 902 527 
Q 889 526 , 881 526 
Q 872 526 , 863 526 
Q 842 526 , 831 527 
Q 821 528 , 821 531 
Q 821 533 , 831 534 
Q 842 536 , 863 536 
Q 872 536 , 879 536 
Q 886 535 , 889 535 
" fill="#F5C000" />
<path d="
M 952 554 
L 952 552 
L 938 552 
L 938 552 
L 960 552 
L 960 554 
Q 955 554 , 949 554 
Q 944 554 , 938 554 
Q 925 554 , 918 554 
Q 910 553 , 910 552 
Q 910 551 , 918 551 
Q 925 550 , 938 550 
Q 944 550 , 949 550 
Q 954 550 , 959 550 
L 959 551 
Q 952 551 , 948 551 
Q 944 550 , 939 550 
Q 929 550 , 923 551 
Q 918 551 , 918 552 
Q 918 553 , 923 553 
Q 929 554 , 939 554 
Q 944 554 , 947 554 
Q 951 554 , 952 554 
" fill="lightgray" />
<path d="
M 960 550 
L 969 550 
L 969 552 
Q 969 553 , 973 553 
Q 976 554 , 985 554 
Q 994 554 , 997 553 
Q 1001 553 , 1001 552 
L 1001 550 
L 1010 550 
L 1010 553 
Q 1010 553 , 1004 554 
Q 997 554 , 985 554 
Q 973 554 , 966 554 
Q 960 553 , 960 553 
L 960 550 
" fill="#D21010" />
<path d="
M 910 545 
L 919 545 
L 919 548 
Q 919 549 , 923 549 
Q 926 549 , 935 549 
Q 944 549 , 947 549 
Q 951 549 , 951 548 
L 951 545 
L 960 545 
L 960 548 
Q 960 549 , 954 549 
Q 947 550 , 935 550 
Q 923 550 , 916 549 
Q 910 549 , 910 548 
L 910 545 
" fill="lightgray" />
<path d="
M 985 546 
L 976 548 
L 993 548 
L 985 546 
M 981 545 
L 989 545 
L 1010 550 
L 1002 550 
L 996 548 
L 974 548 
L 967 550 
L 960 550 
L 981 545 
" fill="#339541" />
<path d="
M 910 538 
L 919 538 
L 919 542 
Q 919 543 , 923 543 
Q 926 544 , 935 544 
Q 944 544 , 947 543 
Q 951 543 , 951 542 
L 951 538 
L 960 538 
L 960 542 
Q 960 543 , 954 544 
Q 947 544 , 935 544 
Q 923 544 , 916 544 
Q 910 543 , 910 542 
L 910 538 
" fill="lightgray" />
<path d="
M 1002 544 
L 1002 542 
L 988 542 
L 988 541 
L 1010 541 
L 1010 544 
Q 1005 544 , 999 544 
Q 994 544 , 988 544 
Q 975 544 , 968 544 
Q 960 543 , 960 541 
Q 960 540 , 968 539 
Q 975 538 , 988 538 
Q 994 538 , 999 538 
Q 1004 538 , 1009 539 
L 1009 539 
Q 1002 539 , 998 539 
Q 994 539 , 989 539 
Q 979 539 , 973 539 
Q 968 540 , 968 541 
Q 968 543 , 973 543 
Q 979 544 , 989 544 
Q 994 544 , 997 544 
Q 1001 544 , 1002 544 
" fill="#F5C000" />
<path d="
M 935 532 
L 926 535 
L 943 535 
L 935 532 
M 931 531 
L 939 531 
L 960 538 
L 952 538 
L 946 536 
L 924 536 
L 917 538 
L 910 538 
L 931 531 
" fill="lightgray" />
<path d="
M 960 531 
L 969 531 
L 969 535 
Q 969 536 , 973 537 
Q 976 537 , 985 537 
Q 994 537 , 997 537 
Q 1001 536 , 1001 535 
L 1001 531 
L 1010 531 
L 1010 535 
Q 1010 537 , 1004 537 
Q 997 538 , 985 538 
Q 973 538 , 966 537 
Q 960 537 , 960 535 
L 960 531 
" fill="#D21010" />
<path d="
M 960 516 
L 960 518 
Q 953 517 , 949 516 
Q 944 516 , 939 516 
Q 929 516 , 924 517 
Q 918 519 , 918 522 
Q 918 525 , 924 527 
Q 929 529 , 939 529 
Q 944 529 , 949 528 
Q 953 528 , 960 526 
L 960 529 
Q 955 530 , 949 530 
Q 945 531 , 939 531 
Q 925 531 , 918 528 
Q 910 526 , 910 522 
Q 910 518 , 918 516 
Q 925 514 , 939 514 
Q 945 514 , 950 514 
Q 955 515 , 960 516 
" fill="lightgray" />
<path d="
M 1002 528 
L 1002 524 
L 988 524 
L 988 522 
L 1010 522 
L 1010 529 
Q 1005 530 , 999 530 
Q 994 531 , 988 531 
Q 975 531 , 968 528 
Q 960 526 , 960 522 
Q 960 518 , 968 516 
Q 975 514 , 988 514 
Q 994 514 , 999 514 
Q 1004 515 , 1009 515 
L 1009 517 
Q 1002 517 , 998 516 
Q 994 516 , 989 516 
Q 979 516 , 973 518 
Q 968 519 , 968 522 
Q 968 526 , 973 527 
Q 979 529 , 989 529 
Q 994 529 , 997 529 
Q 1001 528 , 1002 528 
" fill="#F5C000" />
<path d="
M 952 510 
L 952 504 
L 938 504 
L 938 501 
L 960 501 
L 960 512 
Q 955 513 , 949 513 
Q 944 514 , 938 514 
Q 925 514 , 918 511 
Q 910 507 , 910 501 
Q 910 496 , 918 492 
Q 925 489 , 938 489 
Q 944 489 , 949 489 
Q 954 490 , 959 491 
L 959 494 
Q 952 493 , 948 492 
Q 944 492 , 939 492 
Q 929 492 , 923 494 
Q 918 497 , 918 501 
Q 918 506 , 923 509 
Q 929 511 , 939 511 
Q 944 511 , 947 511 
Q 951 511 , 952 510 
" fill="lightgray" />
<path d="
M 1010 492 
L 1010 495 
Q 1003 493 , 999 492 
Q 994 492 , 989 492 
Q 979 492 , 974 494 
Q 968 497 , 968 501 
Q 968 506 , 974 509 
Q 979 511 , 989 511 
Q 994 511 , 999 511 
Q 1003 510 , 1010 507 
L 1010 511 
Q 1005 513 , 999 513 
Q 995 514 , 989 514 
Q 975 514 , 968 511 
Q 960 507 , 960 501 
Q 960 496 , 968 492 
Q 975 489 , 989 489 
Q 995 489 , 1000 490 
Q 1005 490 , 1010 492 
" fill="#545FFF" />
<path d="
M 1057 554 
L 1057 553 
L 1043 553 
L 1043 553 
L 1065 553 
L 1065 554 
Q 1060 554 , 1054 554 
Q 1049 554 , 1043 554 
Q 1030 554 , 1023 554 
Q 1015 553 , 1015 553 
Q 1015 552 , 1023 551 
Q 1030 551 , 1043 551 
Q 1049 551 , 1054 551 
Q 1059 551 , 1064 551 
L 1064 552 
Q 1057 552 , 1053 551 
Q 1049 551 , 1044 551 
Q 1034 551 , 1028 552 
Q 1023 552 , 1023 553 
Q 1023 553 , 1028 554 
Q 1034 554 , 1044 554 
Q 1049 554 , 1052 554 
Q 1056 554 , 1057 554 
" fill="lightgray" />
<path d="
M 1115 551 
L 1115 552 
Q 1108 552 , 1104 551 
Q 1099 551 , 1094 551 
Q 1084 551 , 1079 552 
Q 1073 552 , 1073 552 
Q 1073 553 , 1079 554 
Q 1084 554 , 1094 554 
Q 1099 554 , 1104 554 
Q 1108 554 , 1115 554 
L 1115 554 
Q 1110 554 , 1104 554 
Q 1100 554 , 1094 554 
Q 1080 554 , 1073 554 
Q 1065 553 , 1065 553 
Q 1065 552 , 1073 551 
Q 1080 551 , 1094 551 
Q 1100 551 , 1105 551 
Q 1110 551 , 1115 551 
" fill="#545FFF" />
<path d="
M 1015 546 
L 1024 546 
L 1024 549 
Q 1024 549 , 1028 550 
Q 1031 550 , 1040 550 
Q 1049 550 , 1052 550 
Q 1056 549 , 1056 549 
L 1056 546 
L 1065 546 
L 1065 549 
Q 1065 549 , 1059 550 
Q 1052 550 , 1040 550 
Q 1028 550 , 1021 550 
Q 1015 549 , 1015 549 
L 1015 546 
" fill="lightgray" />
<path d="
M 1090 547 
L 1081 549 
L 1098 549 
L 1090 547 
M 1086 546 
L 1094 546 
L 1115 550 
L 1107 550 
L 1101 549 
L 1079 549 
L 1072 550 
L 1065 550 
L 1086 546 
" fill="#339541" />
<path d="
M 1015 538 
L 1024 538 
L 1024 543 
Q 1024 544 , 1028 545 
Q 1031 545 , 1040 545 
Q 1049 545 , 1052 545 
Q 1056 544 , 1056 543 
L 1056 538 
L 1065 538 
L 1065 543 
Q 1065 544 , 1059 545 
Q 1052 546 , 1040 546 
Q 1028 546 , 1021 545 
Q 1015 544 , 1015 543 
L 1015 538 
" fill="lightgray" />
<path d="
M 1107 545 
L 1107 543 
L 1093 543 
L 1093 542 
L 1115 542 
L 1115 545 
Q 1110 546 , 1104 546 
Q 1099 546 , 1093 546 
Q 1080 546 , 1073 545 
Q 1065 544 , 1065 542 
Q 1065 540 , 1073 539 
Q 1080 538 , 1093 538 
Q 1099 538 , 1104 538 
Q 1109 538 , 1114 539 
L 1114 540 
Q 1107 539 , 1103 539 
Q 1099 539 , 1094 539 
Q 1084 539 , 1078 540 
Q 1073 540 , 1073 542 
Q 1073 544 , 1078 544 
Q 1084 545 , 1094 545 
Q 1099 545 , 1102 545 
Q 1106 545 , 1107 545 
" fill="#F5C000" />
<path d="
M 1040 530 
L 1031 534 
L 1048 534 
L 1040 530 
M 1036 529 
L 1044 529 
L 1065 537 
L 1057 537 
L 1051 535 
L 1029 535 
L 1022 537 
L 1015 537 
L 1036 529 
" fill="lightgray" />
<path d="
M 1065 529 
L 1074 529 
L 1074 534 
Q 1074 535 , 1078 536 
Q 1081 536 , 1090 536 
Q 1099 536 , 1102 536 
Q 1106 535 , 1106 534 
L 1106 529 
L 1115 529 
L 1115 534 
Q 1115 535 , 1109 536 
Q 1102 537 , 1090 537 
Q 1078 537 , 1071 536 
Q 1065 535 , 1065 534 
L 1065 529 
" fill="#D21010" />
<path d="
M 1057 526 
L 1057 522 
L 1043 522 
L 1043 520 
L 1065 520 
L 1065 527 
Q 1060 528 , 1054 528 
Q 1049 528 , 1043 528 
Q 1030 528 , 1023 526 
Q 1015 524 , 1015 521 
Q 1015 517 , 1023 515 
Q 1030 513 , 1043 513 
Q 1049 513 , 1054 513 
Q 1059 514 , 1064 514 
L 1064 516 
Q 1057 515 , 1053 515 
Q 1049 515 , 1044 515 
Q 1034 515 , 1028 516 
Q 1023 518 , 1023 521 
Q 1023 524 , 1028 525 
Q 1034 526 , 1044 526 
Q 1049 526 , 1052 526 
Q 1056 526 , 1057 526 
" fill="lightgray" />
<path d="
M 1065 513 
L 1074 513 
L 1074 522 
Q 1074 524 , 1078 525 
Q 1081 526 , 1090 526 
Q 1099 526 , 1102 525 
Q 1106 524 , 1106 522 
L 1106 513 
L 1115 513 
L 1115 522 
Q 1115 525 , 1109 527 
Q 1102 528 , 1090 528 
Q 1078 528 , 1071 527 
Q 1065 525 , 1065 522 
L 1065 513 
" fill="#D21010" />
<path d="
M 1065 490 
L 1065 494 
Q 1058 491 , 1054 491 
Q 1049 490 , 1044 490 
Q 1034 490 , 1029 492 
Q 1023 495 , 1023 500 
Q 1023 505 , 1029 507 
Q 1034 510 , 1044 510 
Q 1049 510 , 1054 509 
Q 1058 509 , 1065 506 
L 1065 510 
Q 1060 512 , 1054 512 
Q 1050 513 , 1044 513 
Q 1030 513 , 1023 509 
Q 1015 506 , 1015 500 
Q 1015 494 , 1023 491 
Q 1030 487 , 1044 487 
Q 1050 487 , 1055 488 
Q 1060 488 , 1065 490 
" fill="lightgray" />
<path d="
M 1107 509 
L 1107 502 
L 1093 502 
L 1093 499 
L 1115 499 
L 1115 511 
Q 1110 512 , 1104 512 
Q 1099 513 , 1093 513 
Q 1080 513 , 1073 509 
Q 1065 506 , 1065 500 
Q 1065 494 , 1073 490 
Q 1080 487 , 1093 487 
Q 1099 487 , 1104 487 
Q 1109 488 , 1114 489 
L 1114 492 
Q 1107 491 , 1103 490 
Q 1099 490 , 1094 490 
Q 1084 490 , 1078 492 
Q 1073 495 , 1073 500 
Q 1073 505 , 1078 507 
Q 1084 510 , 1094 510 
Q 1099 510 , 1102 510 
Q 1106 509 , 1107 509 
" fill="#F5C000" />
<path d="
M 1170 550 
L 1152 552 
L 1186 552 
L 1170 550 
M 1163 549 
L 1177 549 
L 1220 555 
L 1204 555 
L 1192 553 
L 1148 553 
L 1135 555 
L 1120 555 
L 1163 549 
" fill="#339541" />
<path d="
M 1220 544 
L 1220 545 
Q 1205 544 , 1197 544 
Q 1189 544 , 1179 544 
Q 1158 544 , 1148 544 
Q 1136 545 , 1136 546 
Q 1136 547 , 1148 548 
Q 1158 548 , 1179 548 
Q 1189 548 , 1197 548 
Q 1205 548 , 1220 547 
L 1220 548 
Q 1209 549 , 1199 549 
Q 1189 549 , 1178 549 
Q 1151 549 , 1136 548 
Q 1120 547 , 1120 546 
Q 1120 545 , 1136 544 
Q 1151 543 , 1178 543 
Q 1189 543 , 1199 543 
Q 1210 543 , 1220 544 
" fill="#545FFF" />
<path d="
M 1120 536 
L 1138 536 
L 1138 540 
Q 1138 541 , 1146 542 
Q 1153 542 , 1170 542 
Q 1187 542 , 1195 542 
Q 1202 541 , 1202 540 
L 1202 536 
L 1220 536 
L 1220 540 
Q 1220 541 , 1207 542 
Q 1195 543 , 1170 543 
Q 1146 543 , 1133 542 
Q 1120 541 , 1120 540 
L 1120 536 
" fill="#D21010" />
<path d="
M 1204 533 
L 1204 528 
L 1175 528 
L 1175 526 
L 1220 526 
L 1220 534 
Q 1209 535 , 1198 535 
Q 1189 535 , 1177 536 
Q 1151 536 , 1135 533 
Q 1120 531 , 1120 527 
Q 1120 523 , 1135 520 
Q 1151 518 , 1177 518 
Q 1188 518 , 1197 518 
Q 1207 519 , 1217 519 
L 1217 522 
Q 1204 521 , 1196 520 
Q 1187 520 , 1178 520 
Q 1157 520 , 1146 522 
Q 1136 523 , 1136 527 
Q 1136 530 , 1146 532 
Q 1157 534 , 1178 534 
Q 1187 534 , 1194 533 
Q 1201 533 , 1204 533 
" fill="#F5C000" />
<path d="
M 1309 554 
L 1309 553 
L 1280 553 
L 1280 553 
L 1325 553 
L 1325 554 
Q 1314 554 , 1303 554 
Q 1294 554 , 1282 554 
Q 1256 554 , 1240 554 
Q 1225 553 , 1225 553 
Q 1225 552 , 1240 551 
Q 1256 551 , 1282 551 
Q 1293 551 , 1302 551 
Q 1312 551 , 1322 551 
L 1322 552 
Q 1309 551 , 1301 551 
Q 1292 551 , 1283 551 
Q 1262 551 , 1251 552 
Q 1241 552 , 1241 553 
Q 1241 553 , 1251 554 
Q 1262 554 , 1283 554 
Q 1292 554 , 1299 554 
Q 1306 554 , 1309 554 
" fill="#F5C000" />
<path d="
M 1225 543 
L 1243 543 
L 1243 548 
Q 1243 549 , 1251 549 
Q 1258 550 , 1275 550 
Q 1292 550 , 1300 549 
Q 1307 549 , 1307 548 
L 1307 543 
L 1325 543 
L 1325 548 
Q 1325 549 , 1312 550 
Q 1300 551 , 1275 551 
Q 1251 551 , 1238 550 
Q 1225 549 , 1225 548 
L 1225 543 
" fill="#D21010" />
<path d="
M 1275 533 
L 1257 538 
L 1291 538 
L 1275 533 
M 1268 531 
L 1282 531 
L 1325 543 
L 1309 543 
L 1297 539 
L 1253 539 
L 1240 543 
L 1225 543 
L 1268 531 
" fill="#339541" />
<path d="
M 1325 515 
L 1325 518 
Q 1310 516 , 1302 515 
Q 1294 515 , 1284 515 
Q 1263 515 , 1253 517 
Q 1241 518 , 1241 521 
Q 1241 525 , 1253 527 
Q 1263 529 , 1284 529 
Q 1294 529 , 1302 528 
Q 1310 528 , 1325 526 
L 1325 529 
Q 1314 530 , 1304 530 
Q 1294 530 , 1283 530 
Q 1256 530 , 1241 528 
Q 1225 526 , 1225 522 
Q 1225 518 , 1241 515 
Q 1256 513 , 1283 513 
Q 1294 513 , 1304 513 
Q 1315 514 , 1325 515 
" fill="#545FFF" />
<path d="
M 1380 554 
L 1362 554 
L 1396 554 
L 1380 554 
M 1373 554 
L 1387 554 
L 1430 555 
L 1414 555 
L 1402 554 
L 1358 554 
L 1345 555 
L 1330 555 
L 1373 554 
" fill="#339541" />
<path d="
M 1330 553 
L 1348 553 
L 1348 553 
Q 1348 553 , 1356 553 
Q 1363 554 , 1380 554 
Q 1397 554 , 1405 553 
Q 1412 553 , 1412 553 
L 1412 553 
L 1430 553 
L 1430 553 
Q 1430 553 , 1417 554 
Q 1405 554 , 1380 554 
Q 1356 554 , 1343 554 
Q 1330 553 , 1330 553 
L 1330 553 
" fill="#D21010" />
<path d="
M 1430 552 
L 1430 552 
Q 1415 552 , 1407 552 
Q 1399 552 , 1389 552 
Q 1368 552 , 1358 552 
Q 1346 552 , 1346 552 
Q 1346 553 , 1358 553 
Q 1368 553 , 1389 553 
Q 1399 553 , 1407 553 
Q 1415 553 , 1430 553 
L 1430 553 
Q 1419 553 , 1409 553 
Q 1399 553 , 1388 553 
Q 1361 553 , 1346 553 
Q 1330 553 , 1330 552 
Q 1330 552 , 1346 552 
Q 1361 552 , 1388 552 
Q 1399 552 , 1409 552 
Q 1420 552 , 1430 552 
" fill="#545FFF" />
<path d="
M 1414 552 
L 1414 551 
L 1385 551 
L 1385 551 
L 1430 551 
L 1430 552 
Q 1419 552 , 1408 552 
Q 1399 552 , 1387 552 
Q 1361 552 , 1345 552 
Q 1330 552 , 1330 551 
Q 1330 551 , 1345 551 
Q 1361 551 , 1387 551 
Q 1398 551 , 1407 551 
Q 1417 551 , 1427 551 
L 1427 551 
Q 1414 551 , 1406 551 
Q 1397 551 , 1388 551 
Q 1367 551 , 1356 551 
Q 1346 551 , 1346 551 
Q 1346 552 , 1356 552 
Q 1367 552 , 1388 552 
Q 1397 552 , 1404 552 
Q 1411 552 , 1414 552 
" fill="#F5C000" />
<path d="M 65 168 L 65 555 " stroke="black" stroke-width="1.5"/>
<path d="M 55 555 L 65 555 " stroke="black" stroke-width="4"/>
<text text-anchor="end" x="50" y="555" font-size="50" alignment-baseline="middle">0</text>
<path d="M 55 362 L 65 362 " stroke="black" stroke-width="4"/>
<text text-anchor="end" x="50" y="362" font-size="50" alignment-baseline="middle">1</text>
<path d="M 55 168 L 65 168 " stroke="black" stroke-width="4"/>
<text text-anchor="end" x="50" y="168" font-size="50" alignment-baseline="middle">2</text>
<text text-anchor="middle" x="750" y="50" font-size="50" alignment-baseline="baseline"></text>
G<path d="
M 160 582 
L 126 595 
L 160 608 
L 157 611 
L 123 598 
L 123 623 
L 117 623 
L 117 599 
L 83 611 
L 80 608 
L 114 595 
L 80 582 
L 83 579 
L 117 591 
L 117 567 
L 123 567 
L 123 591 
L 157 579 
L 160 582 
" fill="black" />
<path d="
M 265 567 
Q 236 574 , 223 581 
Q 210 588 , 210 595 
Q 210 602 , 223 609 
Q 236 616 , 265 623 
L 241 623 
Q 213 616 , 199 609 
Q 185 602 , 185 595 
Q 185 588 , 199 581 
Q 213 574 , 241 567 
L 265 567 
" fill="black" />
<path d="
M 370 567 
Q 341 574 , 328 581 
Q 315 588 , 315 595 
Q 315 602 , 328 609 
Q 341 616 , 370 623 
L 346 623 
Q 318 616 , 304 609 
Q 290 602 , 290 595 
Q 290 588 , 304 581 
Q 318 574 , 346 567 
L 370 567 
" fill="black" />
<path d="
" fill="black" />
<path d="
M 421 567 
L 448 567 
L 448 623 
L 421 623 
L 421 567 
" fill="black" />
<path d="
" fill="black" />
<path d="
" fill="black" />
<path d="
M 526 567 
L 553 567 
L 553 623 
L 526 623 
L 526 567 
" fill="black" />
<path d="
" fill="black" />
<path d="
" fill="black" />
<path d="
M 622 567 
L 642 567 
L 642 623 
L 622 623 
L 622 567 
" fill="black" />
<path d="
" fill="black" />
<path d="
M 682 595 
Q 679 595 , 677 599 
Q 675 602 , 675 607 
Q 675 613 , 677 616 
Q 679 619 , 682 619 
Q 685 619 , 687 616 
Q 689 613 , 689 607 
Q 689 602 , 687 599 
Q 685 595 , 682 595 
M 677 593 
Q 675 592 , 674 589 
Q 673 586 , 673 581 
Q 673 575 , 675 571 
Q 678 567 , 682 567 
Q 686 567 , 689 571 
Q 691 575 , 691 581 
Q 691 586 , 690 589 
Q 688 592 , 687 593 
Q 689 594 , 690 598 
Q 692 601 , 692 607 
Q 692 614 , 689 619 
Q 687 623 , 682 623 
Q 677 623 , 675 619 
Q 672 614 , 672 607 
Q 672 601 , 674 598 
Q 675 594 , 677 593 
M 677 573 
Q 675 576 , 675 581 
Q 675 586 , 677 589 
Q 679 592 , 682 592 
Q 685 592 , 687 589 
Q 689 586 , 689 581 
Q 689 576 , 687 574 
Q 685 571 , 682 571 
Q 679 571 , 677 573 
" fill="black" />
<path d="
M 790 582 
L 756 595 
L 790 608 
L 787 611 
L 753 598 
L 753 623 
L 747 623 
L 747 599 
L 713 611 
L 710 608 
L 744 595 
L 710 582 
L 713 579 
L 747 591 
L 747 567 
L 753 567 
L 753 591 
L 787 579 
L 790 582 
" fill="black" />
<path d="
" fill="black" />
<path d="
M 841 567 
L 868 567 
L 868 623 
L 841 623 
L 841 567 
" fill="black" />
<path d="
" fill="black" />
<path d="
M 920 567 
L 944 567 
Q 972 574 , 986 581 
Q 1000 588 , 1000 595 
Q 1000 602 , 986 609 
Q 972 616 , 944 623 
L 920 623 
Q 949 616 , 962 609 
Q 975 602 , 975 595 
Q 975 588 , 962 581 
Q 949 574 , 920 567 
" fill="black" />
<path d="
M 1025 567 
L 1049 567 
Q 1077 574 , 1091 581 
Q 1105 588 , 1105 595 
Q 1105 602 , 1091 609 
Q 1077 616 , 1049 623 
L 1025 623 
Q 1054 616 , 1067 609 
Q 1080 602 , 1080 595 
Q 1080 588 , 1067 581 
Q 1054 574 , 1025 567 
" fill="black" />
<path d="
" fill="black" />
<path d="
M 1156 567 
L 1183 567 
L 1183 623 
L 1156 623 
L 1156 567 
" fill="black" />
<path d="
" fill="black" />
<path d="
" fill="black" />
<path d="
M 1261 567 
L 1288 567 
L 1288 623 
L 1261 623 
L 1261 567 
" fill="black" />
<path d="
" fill="black" />
<path d="
M 1420 582 
L 1386 595 
L 1420 608 
L 1417 611 
L 1383 598 
L 1383 623 
L 1377 623 
L 1377 599 
L 1343 611 
L 1340 608 
L 1374 595 
L 1340 582 
L 1343 579 
L 1377 591 
L 1377 567 
L 1383 567 
L 1383 591 
L 1417 579 
L 1420 582 
" fill="black" />
</svg>
