<svg xmlns="http://www.w3.org/2000/svg"
viewBox="0 0 1435 635">
<path d="
M 120 554 
L 102 554 
L 136 554 
L 120 554 
M 113 554 
L 127 554 
L 170 555 
L 154 555 
L 142 555 
L 98 555 
L 85 555 
L 70 555 
L 113 554 
" fill="#339541" />
<path d="
M 70 553 
L 88 553 
L 88 553 
Q 88 554 , 96 554 
Q 103 554 , 120 554 
Q 137 554 , 145 554 
Q 152 554 , 152 553 
L 152 553 
L 170 553 
L 170 554 
Q 170 554 , 157 554 
Q 145 554 , 120 554 
Q 96 554 , 83 554 
Q 70 554 , 70 554 
L 70 553 
" fill="#D21010" />
<path d="
M 170 551 
L 170 551 
Q 155 551 , 147 551 
Q 139 551 , 129 551 
Q 108 551 , 98 551 
Q 86 551 , 86 551 
Q 86 552 , 98 552 
Q 108 552 , 129 552 
Q 139 552 , 147 552 
Q 155 552 , 170 552 
L 170 552 
Q 159 552 , 149 552 
Q 139 552 , 128 552 
Q 101 552 , 86 552 
Q 70 552 , 70 552 
Q 70 551 , 86 551 
Q 101 551 , 128 551 
Q 139 551 , 149 551 
Q 160 551 , 170 551 
" fill="#545FFF" />
<path d="
M 154 550 
L 154 550 
L 125 550 
L 125 550 
L 170 550 
L 170 550 
Q 159 550 , 148 550 
Q 139 550 , 127 550 
Q 101 550 , 85 550 
Q 70 550 , 70 550 
Q 70 549 , 85 549 
Q 101 549 , 127 549 
Q 138 549 , 147 549 
Q 157 549 , 167 549 
L 167 549 
Q 154 549 , 146 549 
Q 137 549 , 128 549 
Q 107 549 , 96 549 
Q 86 549 , 86 550 
Q 86 550 , 96 550 
Q 107 550 , 128 550 
Q 137 550 , 144 550 
Q 151 550 , 154 550 
" fill="#F5C000" />
<path d="
M 275 549 
L 275 550 
Q 260 549 , 252 549 
Q 244 549 , 234 549 
Q 213 549 , 203 549 
Q 191 550 , 191 551 
Q 191 553 , 203 553 
Q 213 554 , 234 554 
Q 244 554 , 252 554 
Q 260 554 , 275 553 
L 275 554 
Q 264 554 , 254 555 
Q 244 555 , 233 555 
Q 206 555 , 191 554 
Q 175 553 , 175 551 
Q 175 550 , 191 549 
Q 206 548 , 233 548 
Q 244 548 , 254 548 
Q 265 548 , 275 549 
" fill="#545FFF" />
<path d="
M 225 539 
L 207 543 
L 241 543 
L 225 539 
M 218 537 
L 232 537 
L 275 548 
L 259 548 
L 247 545 
L 203 545 
L 190 548 
L 175 548 
L 218 537 
" fill="#339541" />
<path d="
M 259 533 
L 259 527 
L 230 527 
L 230 525 
L 275 525 
L 275 534 
Q 264 535 , 253 536 
Q 244 536 , 232 536 
Q 206 536 , 190 533 
Q 175 530 , 175 525 
Q 175 520 , 190 517 
Q 206 514 , 232 514 
Q 243 514 , 252 514 
Q 262 515 , 272 516 
L 272 519 
Q 259 517 , 251 517 
Q 242 517 , 233 517 
Q 212 517 , 201 519 
Q 191 521 , 191 525 
Q 191 529 , 201 531 
Q 212 534 , 233 534 
Q 242 534 , 249 533 
Q 256 533 , 259 533 
" fill="#F5C000" />
<path d="
M 175 469 
L 193 469 
L 193 496 
Q 193 503 , 201 506 
Q 208 509 , 225 509 
Q 242 509 , 250 506 
Q 257 503 , 257 496 
L 257 469 
L 275 469 
L 275 496 
Q 275 505 , 262 509 
Q 250 514 , 225 514 
Q 201 514 , 188 509 
Q 175 505 , 175 496 
L 175 469 
" fill="#D21010" />
<path d="
M 330 552 
L 312 553 
L 346 553 
L 330 552 
M 323 551 
L 337 551 
L 380 554 
L 364 554 
L 352 553 
L 308 553 
L 295 554 
L 280 554 
L 323 551 
" fill="#339541" />
<path d="
M 280 543 
L 298 543 
L 298 547 
Q 298 549 , 306 549 
Q 313 550 , 330 550 
Q 347 550 , 355 549 
Q 362 549 , 362 547 
L 362 543 
L 380 543 
L 380 547 
Q 380 549 , 367 550 
Q 355 550 , 330 550 
Q 306 550 , 293 550 
Q 280 549 , 280 547 
L 280 543 
" fill="#D21010" />
<path d="
M 364 541 
L 364 538 
L 335 538 
L 335 536 
L 380 536 
L 380 541 
Q 369 542 , 358 542 
Q 349 542 , 337 542 
Q 311 542 , 295 541 
Q 280 539 , 280 537 
Q 280 534 , 295 533 
Q 311 531 , 337 531 
Q 348 531 , 357 531 
Q 367 531 , 377 532 
L 377 533 
Q 364 533 , 356 533 
Q 347 532 , 338 532 
Q 317 532 , 306 533 
Q 296 534 , 296 537 
Q 296 539 , 306 540 
Q 317 541 , 338 541 
Q 347 541 , 354 541 
Q 361 541 , 364 541 
" fill="#F5C000" />
<path d="
M 380 520 
L 380 522 
Q 365 521 , 357 521 
Q 349 520 , 339 520 
Q 318 520 , 308 521 
Q 296 523 , 296 525 
Q 296 527 , 308 528 
Q 318 529 , 339 529 
Q 349 529 , 357 529 
Q 365 529 , 380 528 
L 380 529 
Q 369 530 , 359 530 
Q 349 531 , 338 531 
Q 311 531 , 296 529 
Q 280 527 , 280 525 
Q 280 522 , 296 521 
Q 311 519 , 338 519 
Q 349 519 , 359 519 
Q 370 520 , 380 520 
" fill="#545FFF" />
<path d="
M 435 547 
L 417 551 
L 451 551 
L 435 547 
M 428 545 
L 442 545 
L 485 555 
L 469 555 
L 457 552 
L 413 552 
L 400 555 
L 385 555 
L 428 545 
" fill="#339541" />
<path d="
M 485 528 
L 485 531 
Q 470 529 , 462 528 
Q 454 528 , 444 528 
Q 423 528 , 413 530 
Q 401 532 , 401 535 
Q 401 539 , 413 540 
Q 423 542 , 444 542 
Q 454 542 , 462 542 
Q 470 541 , 485 539 
L 485 542 
Q 474 543 , 464 544 
Q 454 544 , 443 544 
Q 416 544 , 401 542 
Q 385 539 , 385 535 
Q 385 531 , 401 528 
Q 416 526 , 443 526 
Q 454 526 , 464 526 
Q 475 527 , 485 528 
" fill="#545FFF" />
<path d="
M 469 523 
L 469 516 
L 440 516 
L 440 514 
L 485 514 
L 485 524 
Q 474 525 , 463 525 
Q 454 526 , 442 526 
Q 416 526 , 400 523 
Q 385 520 , 385 514 
Q 385 509 , 400 506 
Q 416 503 , 442 503 
Q 453 503 , 462 503 
Q 472 504 , 482 505 
L 482 508 
Q 469 506 , 461 506 
Q 452 506 , 443 506 
Q 422 506 , 411 508 
Q 401 510 , 401 514 
Q 401 519 , 411 521 
Q 422 523 , 443 523 
Q 452 523 , 459 523 
Q 466 523 , 469 523 
" fill="#F5C000" />
<path d="
M 385 356 
L 403 356 
L 403 443 
Q 403 467 , 411 477 
Q 418 486 , 435 486 
Q 452 486 , 460 477 
Q 467 467 , 467 443 
L 467 356 
L 485 356 
L 485 445 
Q 485 473 , 472 488 
Q 460 503 , 435 503 
Q 411 503 , 398 488 
Q 385 473 , 385 445 
L 385 356 
" fill="#D21010" />
<path d="
M 540 548 
L 522 552 
L 556 552 
L 540 548 
M 533 547 
L 547 547 
L 590 555 
L 574 555 
L 562 552 
L 518 552 
L 505 555 
L 490 555 
L 533 547 
" fill="#339541" />
<path d="
M 590 531 
L 590 534 
Q 575 532 , 567 531 
Q 559 531 , 549 531 
Q 528 531 , 518 533 
Q 506 534 , 506 537 
Q 506 541 , 518 543 
Q 528 545 , 549 545 
Q 559 545 , 567 544 
Q 575 544 , 590 542 
L 590 545 
Q 579 546 , 569 546 
Q 559 547 , 548 547 
Q 521 547 , 506 544 
Q 490 542 , 490 538 
Q 490 534 , 506 531 
Q 521 529 , 548 529 
Q 559 529 , 569 529 
Q 580 530 , 590 531 
" fill="#545FFF" />
<path d="
M 490 505 
L 508 505 
L 508 519 
Q 508 523 , 516 524 
Q 523 526 , 540 526 
Q 557 526 , 565 524 
Q 572 523 , 572 519 
L 572 505 
L 590 505 
L 590 519 
Q 590 524 , 577 526 
Q 565 528 , 540 528 
Q 516 528 , 503 526 
Q 490 524 , 490 519 
L 490 505 
" fill="#D21010" />
<path d="
M 574 492 
L 574 467 
L 545 467 
L 545 457 
L 590 457 
L 590 498 
Q 579 502 , 568 503 
Q 559 505 , 547 505 
Q 521 505 , 505 492 
Q 490 480 , 490 459 
Q 490 437 , 505 425 
Q 521 413 , 547 413 
Q 558 413 , 567 415 
Q 577 416 , 587 420 
L 587 432 
Q 574 427 , 566 425 
Q 557 424 , 548 424 
Q 527 424 , 516 433 
Q 506 441 , 506 459 
Q 506 477 , 516 486 
Q 527 495 , 548 495 
Q 557 495 , 564 494 
Q 571 493 , 574 492 
" fill="#F5C000" />
<path d="
M 645 552 
L 627 553 
L 661 553 
L 645 552 
M 638 551 
L 652 551 
L 695 555 
L 679 555 
L 667 554 
L 623 554 
L 610 555 
L 595 555 
L 638 551 
" fill="#339541" />
<path d="
M 679 550 
L 679 547 
L 650 547 
L 650 546 
L 695 546 
L 695 550 
Q 684 551 , 673 551 
Q 664 551 , 652 551 
Q 626 551 , 610 550 
Q 595 549 , 595 546 
Q 595 544 , 610 543 
Q 626 542 , 652 542 
Q 663 542 , 672 542 
Q 682 542 , 692 543 
L 692 544 
Q 679 543 , 671 543 
Q 662 543 , 653 543 
Q 632 543 , 621 544 
Q 611 545 , 611 546 
Q 611 548 , 621 549 
Q 632 550 , 653 550 
Q 662 550 , 669 550 
Q 676 550 , 679 550 
" fill="#F5C000" />
<path d="
M 695 529 
L 695 531 
Q 680 529 , 672 529 
Q 664 529 , 654 529 
Q 633 529 , 623 530 
Q 611 531 , 611 534 
Q 611 537 , 623 538 
Q 633 540 , 654 540 
Q 664 540 , 672 539 
Q 680 539 , 695 538 
L 695 540 
Q 684 541 , 674 541 
Q 664 541 , 653 541 
Q 626 541 , 611 539 
Q 595 537 , 595 534 
Q 595 531 , 611 529 
Q 626 527 , 653 527 
Q 664 527 , 674 527 
Q 685 528 , 695 529 
" fill="#545FFF" />
<path d="
M 595 509 
L 613 509 
L 613 519 
Q 613 522 , 621 524 
Q 628 525 , 645 525 
Q 662 525 , 670 524 
Q 677 522 , 677 519 
L 677 509 
L 695 509 
L 695 520 
Q 695 523 , 682 525 
Q 670 527 , 645 527 
Q 621 527 , 608 525 
Q 595 523 , 595 520 
L 595 509 
" fill="#D21010" />
<path d="
M 750 554 
L 732 554 
L 766 554 
L 750 554 
M 743 554 
L 757 554 
L 800 555 
L 784 555 
L 772 555 
L 728 555 
L 715 555 
L 700 555 
L 743 554 
" fill="#339541" />
<path d="
M 700 553 
L 718 553 
L 718 553 
Q 718 554 , 726 554 
Q 733 554 , 750 554 
Q 767 554 , 775 554 
Q 782 554 , 782 553 
L 782 553 
L 800 553 
L 800 554 
Q 800 554 , 787 554 
Q 775 554 , 750 554 
Q 726 554 , 713 554 
Q 700 554 , 700 554 
L 700 553 
" fill="#D21010" />
<path d="
M 800 551 
L 800 551 
Q 785 551 , 777 551 
Q 769 551 , 759 551 
Q 738 551 , 728 551 
Q 716 551 , 716 551 
Q 716 552 , 728 552 
Q 738 552 , 759 552 
Q 769 552 , 777 552 
Q 785 552 , 800 552 
L 800 552 
Q 789 552 , 779 552 
Q 769 552 , 758 552 
Q 731 552 , 716 552 
Q 700 552 , 700 552 
Q 700 551 , 716 551 
Q 731 551 , 758 551 
Q 769 551 , 779 551 
Q 790 551 , 800 551 
" fill="#545FFF" />
<path d="
M 784 550 
L 784 550 
L 755 550 
L 755 550 
L 800 550 
L 800 550 
Q 789 550 , 778 550 
Q 769 550 , 757 550 
Q 731 550 , 715 550 
Q 700 550 , 700 550 
Q 700 549 , 715 549 
Q 731 549 , 757 549 
Q 768 549 , 777 549 
Q 787 549 , 797 549 
L 797 549 
Q 784 549 , 776 549 
Q 767 549 , 758 549 
Q 737 549 , 726 549 
Q 716 549 , 716 550 
Q 716 550 , 726 550 
Q 737 550 , 758 550 
Q 767 550 , 774 550 
Q 781 550 , 784 550 
" fill="#F5C000" />
<path d="
M 905 544 
L 905 546 
Q 890 545 , 882 545 
Q 874 544 , 864 544 
Q 843 544 , 833 545 
Q 821 547 , 821 549 
Q 821 551 , 833 553 
Q 843 554 , 864 554 
Q 874 554 , 882 553 
Q 890 553 , 905 552 
L 905 554 
Q 894 554 , 884 555 
Q 874 555 , 863 555 
Q 836 555 , 821 553 
Q 805 552 , 805 549 
Q 805 546 , 821 545 
Q 836 543 , 863 543 
Q 874 543 , 884 543 
Q 895 544 , 905 544 
" fill="#545FFF" />
<path d="
M 805 530 
L 823 530 
L 823 538 
Q 823 540 , 831 540 
Q 838 541 , 855 541 
Q 872 541 , 880 540 
Q 887 540 , 887 538 
L 887 530 
L 905 530 
L 905 538 
Q 905 540 , 892 541 
Q 880 543 , 855 543 
Q 831 543 , 818 541 
Q 805 540 , 805 538 
L 805 530 
" fill="#D21010" />
<path d="
M 889 526 
L 889 520 
L 860 520 
L 860 517 
L 905 517 
L 905 528 
Q 894 529 , 883 529 
Q 874 529 , 862 529 
Q 836 529 , 820 526 
Q 805 523 , 805 518 
Q 805 512 , 820 509 
Q 836 506 , 862 506 
Q 873 506 , 882 506 
Q 892 507 , 902 508 
L 902 511 
Q 889 510 , 881 509 
Q 872 509 , 863 509 
Q 842 509 , 831 511 
Q 821 513 , 821 518 
Q 821 522 , 831 525 
Q 842 527 , 863 527 
Q 872 527 , 879 527 
Q 886 526 , 889 526 
" fill="#F5C000" />
<path d="
M 855 427 
L 837 466 
L 871 466 
L 855 427 
M 848 409 
L 862 409 
L 905 505 
L 889 505 
L 877 477 
L 833 477 
L 820 505 
L 805 505 
L 848 409 
" fill="#339541" />
<path d="
M 960 546 
L 942 550 
L 976 550 
L 960 546 
M 953 544 
L 967 544 
L 1010 554 
L 994 554 
L 982 551 
L 938 551 
L 925 554 
L 910 554 
L 953 544 
" fill="#339541" />
<path d="
M 910 531 
L 928 531 
L 928 539 
Q 928 541 , 936 542 
Q 943 542 , 960 542 
Q 977 542 , 985 542 
Q 992 541 , 992 539 
L 992 531 
L 1010 531 
L 1010 539 
Q 1010 541 , 997 542 
Q 985 544 , 960 544 
Q 936 544 , 923 542 
Q 910 541 , 910 539 
L 910 531 
" fill="#D21010" />
<path d="
M 1010 505 
L 1010 509 
Q 995 507 , 987 506 
Q 979 505 , 969 505 
Q 948 505 , 938 508 
Q 926 511 , 926 516 
Q 926 522 , 938 525 
Q 948 527 , 969 527 
Q 979 527 , 987 527 
Q 995 526 , 1010 523 
L 1010 528 
Q 999 529 , 989 530 
Q 979 530 , 968 530 
Q 941 530 , 926 527 
Q 910 523 , 910 516 
Q 910 510 , 926 506 
Q 941 502 , 968 502 
Q 979 502 , 989 503 
Q 1000 503 , 1010 505 
" fill="#545FFF" />
<path d="
M 994 486 
L 994 456 
L 965 456 
L 965 443 
L 1010 443 
L 1010 493 
Q 999 498 , 988 500 
Q 979 501 , 967 502 
Q 941 502 , 925 487 
Q 910 472 , 910 446 
Q 910 420 , 925 405 
Q 941 390 , 967 390 
Q 978 390 , 987 392 
Q 997 394 , 1007 399 
L 1007 413 
Q 994 407 , 986 405 
Q 977 403 , 968 403 
Q 947 403 , 936 414 
Q 926 424 , 926 446 
Q 926 468 , 936 479 
Q 947 489 , 968 489 
Q 977 489 , 984 488 
Q 991 487 , 994 486 
" fill="#F5C000" />
<path d="
M 1065 548 
L 1047 551 
L 1081 551 
L 1065 548 
M 1058 547 
L 1072 547 
L 1115 554 
L 1099 554 
L 1087 552 
L 1043 552 
L 1030 554 
L 1015 554 
L 1058 547 
" fill="#339541" />
<path d="
M 1015 539 
L 1033 539 
L 1033 544 
Q 1033 545 , 1041 545 
Q 1048 546 , 1065 546 
Q 1082 546 , 1090 545 
Q 1097 545 , 1097 544 
L 1097 539 
L 1115 539 
L 1115 544 
Q 1115 545 , 1102 546 
Q 1090 547 , 1065 547 
Q 1041 547 , 1028 546 
Q 1015 545 , 1015 544 
L 1015 539 
" fill="#D21010" />
<path d="
M 1099 537 
L 1099 534 
L 1070 534 
L 1070 533 
L 1115 533 
L 1115 538 
Q 1104 538 , 1093 539 
Q 1084 539 , 1072 539 
Q 1046 539 , 1030 537 
Q 1015 536 , 1015 533 
Q 1015 531 , 1030 529 
Q 1046 528 , 1072 528 
Q 1083 528 , 1092 528 
Q 1102 528 , 1112 529 
L 1112 530 
Q 1099 530 , 1091 529 
Q 1082 529 , 1073 529 
Q 1052 529 , 1041 530 
Q 1031 531 , 1031 533 
Q 1031 535 , 1041 537 
Q 1052 538 , 1073 538 
Q 1082 538 , 1089 537 
Q 1096 537 , 1099 537 
" fill="#F5C000" />
<path d="
M 1115 505 
L 1115 509 
Q 1100 506 , 1092 505 
Q 1084 505 , 1074 505 
Q 1053 505 , 1043 507 
Q 1031 510 , 1031 514 
Q 1031 519 , 1043 522 
Q 1053 524 , 1074 524 
Q 1084 524 , 1092 524 
Q 1100 523 , 1115 521 
L 1115 525 
Q 1104 526 , 1094 526 
Q 1084 527 , 1073 527 
Q 1046 527 , 1031 524 
Q 1015 520 , 1015 515 
Q 1015 509 , 1031 505 
Q 1046 502 , 1073 502 
Q 1084 502 , 1094 503 
Q 1105 503 , 1115 505 
" fill="#545FFF" />
<path d="
M 1170 553 
L 1152 554 
L 1186 554 
L 1170 553 
M 1163 552 
L 1177 552 
L 1220 555 
L 1204 555 
L 1192 554 
L 1148 554 
L 1135 555 
L 1120 555 
L 1163 552 
" fill="#339541" />
<path d="
M 1120 542 
L 1138 542 
L 1138 548 
Q 1138 549 , 1146 550 
Q 1153 550 , 1170 550 
Q 1187 550 , 1195 550 
Q 1202 549 , 1202 548 
L 1202 542 
L 1220 542 
L 1220 548 
Q 1220 550 , 1207 551 
Q 1195 551 , 1170 551 
Q 1146 551 , 1133 551 
Q 1120 550 , 1120 548 
L 1120 542 
" fill="#D21010" />
<path d="
M 1220 532 
L 1220 534 
Q 1205 533 , 1197 532 
Q 1189 532 , 1179 532 
Q 1158 532 , 1148 533 
Q 1136 534 , 1136 536 
Q 1136 538 , 1148 539 
Q 1158 540 , 1179 540 
Q 1189 540 , 1197 540 
Q 1205 540 , 1220 539 
L 1220 540 
Q 1209 541 , 1199 541 
Q 1189 541 , 1178 541 
Q 1151 541 , 1136 540 
Q 1120 539 , 1120 536 
Q 1120 534 , 1136 532 
Q 1151 531 , 1178 531 
Q 1189 531 , 1199 531 
Q 1210 532 , 1220 532 
" fill="#545FFF" />
<path d="
M 1204 528 
L 1204 525 
L 1175 525 
L 1175 524 
L 1220 524 
L 1220 529 
Q 1209 530 , 1198 530 
Q 1189 530 , 1177 530 
Q 1151 530 , 1135 528 
Q 1120 527 , 1120 524 
Q 1120 521 , 1135 520 
Q 1151 518 , 1177 518 
Q 1188 518 , 1197 518 
Q 1207 518 , 1217 519 
L 1217 521 
Q 1204 520 , 1196 520 
Q 1187 519 , 1178 519 
Q 1157 519 , 1146 521 
Q 1136 522 , 1136 524 
Q 1136 526 , 1146 528 
Q 1157 529 , 1178 529 
Q 1187 529 , 1194 529 
Q 1201 529 , 1204 528 
" fill="#F5C000" />
<path d="
M 1275 549 
L 1257 552 
L 1291 552 
L 1275 549 
M 1268 548 
L 1282 548 
L 1325 554 
L 1309 554 
L 1297 552 
L 1253 552 
L 1240 554 
L 1225 554 
L 1268 548 
" fill="#339541" />
<path d="
M 1225 539 
L 1243 539 
L 1243 544 
Q 1243 546 , 1251 546 
Q 1258 547 , 1275 547 
Q 1292 547 , 1300 546 
Q 1307 546 , 1307 544 
L 1307 539 
L 1325 539 
L 1325 544 
Q 1325 546 , 1312 547 
Q 1300 548 , 1275 548 
Q 1251 548 , 1238 547 
Q 1225 546 , 1225 544 
L 1225 539 
" fill="#D21010" />
<path d="
M 1309 533 
L 1309 524 
L 1280 524 
L 1280 520 
L 1325 520 
L 1325 536 
Q 1314 537 , 1303 538 
Q 1294 538 , 1282 538 
Q 1256 538 , 1240 534 
Q 1225 529 , 1225 521 
Q 1225 512 , 1240 508 
Q 1256 503 , 1282 503 
Q 1293 503 , 1302 504 
Q 1312 504 , 1322 506 
L 1322 510 
Q 1309 508 , 1301 508 
Q 1292 507 , 1283 507 
Q 1262 507 , 1251 511 
Q 1241 514 , 1241 521 
Q 1241 528 , 1251 531 
Q 1262 535 , 1283 535 
Q 1292 535 , 1299 534 
Q 1306 534 , 1309 533 
" fill="#F5C000" />
<path d="
M 1325 464 
L 1325 470 
Q 1310 466 , 1302 465 
Q 1294 464 , 1284 464 
Q 1263 464 , 1253 468 
Q 1241 472 , 1241 480 
Q 1241 489 , 1253 493 
Q 1263 498 , 1284 498 
Q 1294 498 , 1302 497 
Q 1310 495 , 1325 491 
L 1325 498 
Q 1314 500 , 1304 501 
Q 1294 502 , 1283 502 
Q 1256 502 , 1241 496 
Q 1225 491 , 1225 481 
Q 1225 471 , 1241 465 
Q 1256 459 , 1283 459 
Q 1294 459 , 1304 460 
Q 1315 461 , 1325 464 
" fill="#545FFF" />
<path d="
M 1380 554 
L 1362 554 
L 1396 554 
L 1380 554 
M 1373 554 
L 1387 554 
L 1430 555 
L 1414 555 
L 1402 555 
L 1358 555 
L 1345 555 
L 1330 555 
L 1373 554 
" fill="#339541" />
<path d="
M 1330 553 
L 1348 553 
L 1348 553 
Q 1348 554 , 1356 554 
Q 1363 554 , 1380 554 
Q 1397 554 , 1405 554 
Q 1412 554 , 1412 553 
L 1412 553 
L 1430 553 
L 1430 554 
Q 1430 554 , 1417 554 
Q 1405 554 , 1380 554 
Q 1356 554 , 1343 554 
Q 1330 554 , 1330 554 
L 1330 553 
" fill="#D21010" />
<path d="
M 1430 551 
L 1430 551 
Q 1415 551 , 1407 551 
Q 1399 551 , 1389 551 
Q 1368 551 , 1358 551 
Q 1346 551 , 1346 551 
Q 1346 552 , 1358 552 
Q 1368 552 , 1389 552 
Q 1399 552 , 1407 552 
Q 1415 552 , 1430 552 
L 1430 552 
Q 1419 552 , 1409 552 
Q 1399 552 , 1388 552 
Q 1361 552 , 1346 552 
Q 1330 552 , 1330 552 
Q 1330 551 , 1346 551 
Q 1361 551 , 1388 551 
Q 1399 551 , 1409 551 
Q 1420 551 , 1430 551 
" fill="#545FFF" />
<path d="
M 1414 550 
L 1414 550 
L 1385 550 
L 1385 550 
L 1430 550 
L 1430 550 
Q 1419 550 , 1408 550 
Q 1399 550 , 1387 550 
Q 1361 550 , 1345 550 
Q 1330 550 , 1330 550 
Q 1330 549 , 1345 549 
Q 1361 549 , 1387 549 
Q 1398 549 , 1407 549 
Q 1417 549 , 1427 549 
L 1427 549 
Q 1414 549 , 1406 549 
Q 1397 549 , 1388 549 
Q 1367 549 , 1356 549 
Q 1346 549 , 1346 550 
Q 1346 550 , 1356 550 
Q 1367 550 , 1388 550 
Q 1397 550 , 1404 550 
Q 1411 550 , 1414 550 
" fill="#F5C000" />
<path d="M 65 55 L 65 555 " stroke="black" stroke-width="1.5"/>
<path d="M 55 555 L 65 555 " stroke="black" stroke-width="4"/>
<text text-anchor="end" x="50" y="555" font-size="50" alignment-baseline="middle">0</text>
<path d="M 55 305 L 65 305 " stroke="black" stroke-width="4"/>
<text text-anchor="end" x="50" y="305" font-size="50" alignment-baseline="middle">1</text>
<path d="M 55 55 L 65 55 " stroke="black" stroke-width="4"/>
<text text-anchor="end" x="50" y="55" font-size="50" alignment-baseline="middle">2</text>
<text text-anchor="middle" x="750" y="50" font-size="50" alignment-baseline="baseline"></text>
G<path d="
M 160 582 
L 126 595 
L 160 608 
L 157 611 
L 123 598 
L 123 623 
L 117 623 
L 117 599 
L 83 611 
L 80 608 
L 114 595 
L 80 582 
L 83 579 
L 117 591 
L 117 567 
L 123 567 
L 123 591 
L 157 579 
L 160 582 
" fill="black" />
<path d="
" fill="black" />
<path d="
M 211 567 
L 238 567 
L 238 623 
L 211 623 
L 211 567 
" fill="black" />
<path d="
" fill="black" />
<path d="
" fill="black" />
<path d="
M 316 567 
L 343 567 
L 343 623 
L 316 623 
L 316 567 
" fill="black" />
<path d="
" fill="black" />
<path d="
" fill="black" />
<path d="
M 421 567 
L 448 567 
L 448 623 
L 421 623 
L 421 567 
" fill="black" />
<path d="
" fill="black" />
<path d="
" fill="black" />
<path d="
M 526 567 
L 553 567 
L 553 623 
L 526 623 
L 526 567 
" fill="black" />
<path d="
" fill="black" />
<path d="
" fill="black" />
<path d="
M 617 567 
L 633 567 
L 633 623 
L 617 623 
L 617 567 
" fill="black" />
<path d="
" fill="black" />
<path d="
M 669 593 
Q 671 594 , 672 597 
Q 673 601 , 673 606 
Q 673 614 , 671 618 
Q 669 623 , 664 623 
Q 662 623 , 661 622 
Q 659 621 , 657 619 
L 657 613 
Q 659 617 , 660 618 
Q 662 619 , 664 619 
Q 667 619 , 669 616 
Q 671 613 , 671 606 
Q 671 601 , 669 598 
Q 668 595 , 664 595 
L 661 595 
L 661 591 
L 665 591 
Q 667 591 , 669 589 
Q 670 586 , 670 582 
Q 670 577 , 669 574 
Q 667 571 , 664 571 
Q 663 571 , 661 572 
Q 660 573 , 658 575 
L 658 571 
Q 660 569 , 662 568 
Q 663 567 , 665 567 
Q 669 567 , 671 571 
Q 672 575 , 672 581 
Q 672 586 , 671 589 
Q 671 592 , 669 593 
" fill="black" />
<path d="
M 677 567 
L 693 567 
L 693 571 
L 684 623 
L 681 623 
L 691 571 
L 677 571 
L 677 567 
" fill="black" />
<path d="
M 790 582 
L 756 595 
L 790 608 
L 787 611 
L 753 598 
L 753 623 
L 747 623 
L 747 599 
L 713 611 
L 710 608 
L 744 595 
L 710 582 
L 713 579 
L 747 591 
L 747 567 
L 753 567 
L 753 591 
L 787 579 
L 790 582 
" fill="black" />
<path d="
" fill="black" />
<path d="
M 841 567 
L 868 567 
L 868 623 
L 841 623 
L 841 567 
" fill="black" />
<path d="
" fill="black" />
<path d="
" fill="black" />
<path d="
M 946 567 
L 973 567 
L 973 623 
L 946 623 
L 946 567 
" fill="black" />
<path d="
" fill="black" />
<path d="
" fill="black" />
<path d="
M 1051 567 
L 1078 567 
L 1078 623 
L 1051 623 
L 1051 567 
" fill="black" />
<path d="
" fill="black" />
<path d="
" fill="black" />
<path d="
M 1156 567 
L 1183 567 
L 1183 623 
L 1156 623 
L 1156 567 
" fill="black" />
<path d="
" fill="black" />
<path d="
" fill="black" />
<path d="
M 1261 567 
L 1288 567 
L 1288 623 
L 1261 623 
L 1261 567 
" fill="black" />
<path d="
" fill="black" />
<path d="
M 1420 582 
L 1386 595 
L 1420 608 
L 1417 611 
L 1383 598 
L 1383 623 
L 1377 623 
L 1377 599 
L 1343 611 
L 1340 608 
L 1374 595 
L 1340 582 
L 1343 579 
L 1377 591 
L 1377 567 
L 1383 567 
L 1383 591 
L 1417 579 
L 1420 582 
" fill="black" />
</svg>
