<svg xmlns="http://www.w3.org/2000/svg"
viewBox="0 0 1435 635">
<path d="
M 120 552 
L 102 553 
L 136 553 
L 120 552 
M 113 552 
L 127 552 
L 170 554 
L 154 554 
L 142 554 
L 98 554 
L 85 554 
L 70 554 
L 113 552 
" fill="#339541" />
<path d="
M 70 549 
L 88 549 
L 88 551 
Q 88 551 , 96 551 
Q 103 551 , 120 551 
Q 137 551 , 145 551 
Q 152 551 , 152 551 
L 152 549 
L 170 549 
L 170 551 
Q 170 551 , 157 551 
Q 145 552 , 120 552 
Q 96 552 , 83 551 
Q 70 551 , 70 551 
L 70 549 
" fill="#D21010" />
<path d="
M 170 545 
L 170 546 
Q 155 546 , 147 546 
Q 139 545 , 129 545 
Q 108 545 , 98 546 
Q 86 546 , 86 547 
Q 86 548 , 98 548 
Q 108 548 , 129 548 
Q 139 548 , 147 548 
Q 155 548 , 170 548 
L 170 548 
Q 159 549 , 149 549 
Q 139 549 , 128 549 
Q 101 549 , 86 548 
Q 70 548 , 70 547 
Q 70 546 , 86 546 
Q 101 545 , 128 545 
Q 139 545 , 149 545 
Q 160 545 , 170 545 
" fill="#545FFF" />
<path d="
M 154 544 
L 154 543 
L 125 543 
L 125 542 
L 170 542 
L 170 544 
Q 159 545 , 148 545 
Q 139 545 , 127 545 
Q 101 545 , 85 544 
Q 70 544 , 70 542 
Q 70 541 , 85 541 
Q 101 540 , 127 540 
Q 138 540 , 147 540 
Q 157 540 , 167 540 
L 167 541 
Q 154 541 , 146 541 
Q 137 541 , 128 541 
Q 107 541 , 96 541 
Q 86 541 , 86 542 
Q 86 543 , 96 544 
Q 107 544 , 128 544 
Q 137 544 , 144 544 
Q 151 544 , 154 544 
" fill="#F5C000" />
<path d="
M 175 543 
L 193 543 
L 193 550 
Q 193 551 , 201 552 
Q 208 553 , 225 553 
Q 242 553 , 250 552 
Q 257 551 , 257 550 
L 257 543 
L 275 543 
L 275 550 
Q 275 552 , 262 553 
Q 250 554 , 225 554 
Q 201 554 , 188 553 
Q 175 552 , 175 550 
L 175 543 
" fill="#D21010" />
<path d="
M 225 531 
L 207 537 
L 241 537 
L 225 531 
M 218 529 
L 232 529 
L 275 542 
L 259 542 
L 247 538 
L 203 538 
L 190 542 
L 175 542 
L 218 529 
" fill="#339541" />
<path d="
M 275 505 
L 275 509 
Q 260 506 , 252 506 
Q 244 505 , 234 505 
Q 213 505 , 203 508 
Q 191 510 , 191 515 
Q 191 521 , 203 523 
Q 213 526 , 234 526 
Q 244 526 , 252 525 
Q 260 525 , 275 522 
L 275 526 
Q 264 528 , 254 528 
Q 244 529 , 233 529 
Q 206 529 , 191 525 
Q 175 522 , 175 515 
Q 175 509 , 191 506 
Q 206 502 , 233 502 
Q 244 502 , 254 503 
Q 265 503 , 275 505 
" fill="#545FFF" />
<path d="
M 259 480 
L 259 440 
L 230 440 
L 230 424 
L 275 424 
L 275 490 
Q 264 496 , 253 499 
Q 244 501 , 232 501 
Q 206 501 , 190 481 
Q 175 462 , 175 427 
Q 175 393 , 190 373 
Q 206 353 , 232 353 
Q 243 353 , 252 356 
Q 262 358 , 272 365 
L 272 384 
Q 259 376 , 251 373 
Q 242 371 , 233 371 
Q 212 371 , 201 385 
Q 191 399 , 191 427 
Q 191 456 , 201 471 
Q 212 485 , 233 485 
Q 242 485 , 249 483 
Q 256 482 , 259 480 
" fill="#F5C000" />
<path d="
M 330 550 
L 312 552 
L 346 552 
L 330 550 
M 323 549 
L 337 549 
L 380 555 
L 364 555 
L 352 553 
L 308 553 
L 295 555 
L 280 555 
L 323 549 
" fill="#339541" />
<path d="
M 380 540 
L 380 542 
Q 365 541 , 357 540 
Q 349 540 , 339 540 
Q 318 540 , 308 541 
Q 296 542 , 296 544 
Q 296 546 , 308 547 
Q 318 548 , 339 548 
Q 349 548 , 357 548 
Q 365 547 , 380 546 
L 380 548 
Q 369 548 , 359 549 
Q 349 549 , 338 549 
Q 311 549 , 296 548 
Q 280 546 , 280 544 
Q 280 542 , 296 540 
Q 311 539 , 338 539 
Q 349 539 , 359 539 
Q 370 539 , 380 540 
" fill="#545FFF" />
<path d="
M 280 500 
L 298 500 
L 298 523 
Q 298 529 , 306 531 
Q 313 534 , 330 534 
Q 347 534 , 355 531 
Q 362 529 , 362 523 
L 362 500 
L 380 500 
L 380 523 
Q 380 530 , 367 534 
Q 355 538 , 330 538 
Q 306 538 , 293 534 
Q 280 530 , 280 523 
L 280 500 
" fill="#D21010" />
<path d="
M 364 492 
L 364 478 
L 335 478 
L 335 472 
L 380 472 
L 380 495 
Q 369 497 , 358 498 
Q 349 499 , 337 499 
Q 311 499 , 295 492 
Q 280 485 , 280 473 
Q 280 461 , 295 454 
Q 311 447 , 337 447 
Q 348 447 , 357 448 
Q 367 449 , 377 451 
L 377 458 
Q 364 455 , 356 454 
Q 347 453 , 338 453 
Q 317 453 , 306 458 
Q 296 463 , 296 473 
Q 296 483 , 306 488 
Q 317 493 , 338 493 
Q 347 493 , 354 493 
Q 361 492 , 364 492 
" fill="#F5C000" />
<path d="
M 385 545 
L 403 545 
L 403 551 
Q 403 552 , 411 553 
Q 418 554 , 435 554 
Q 452 554 , 460 553 
Q 467 552 , 467 551 
L 467 545 
L 485 545 
L 485 551 
Q 485 553 , 472 554 
Q 460 555 , 435 555 
Q 411 555 , 398 554 
Q 385 553 , 385 551 
L 385 545 
" fill="#D21010" />
<path d="
M 435 534 
L 417 539 
L 451 539 
L 435 534 
M 428 532 
L 442 532 
L 485 544 
L 469 544 
L 457 540 
L 413 540 
L 400 544 
L 385 544 
L 428 532 
" fill="#339541" />
<path d="
M 485 516 
L 485 519 
Q 470 517 , 462 516 
Q 454 516 , 444 516 
Q 423 516 , 413 518 
Q 401 519 , 401 522 
Q 401 526 , 413 528 
Q 423 530 , 444 530 
Q 454 530 , 462 529 
Q 470 529 , 485 527 
L 485 530 
Q 474 531 , 464 531 
Q 454 531 , 443 531 
Q 416 531 , 401 529 
Q 385 527 , 385 523 
Q 385 519 , 401 516 
Q 416 514 , 443 514 
Q 454 514 , 464 514 
Q 475 515 , 485 516 
" fill="#545FFF" />
<path d="
M 469 473 
L 469 399 
L 440 399 
L 440 368 
L 485 368 
L 485 492 
Q 474 504 , 463 508 
Q 454 513 , 442 513 
Q 416 513 , 400 476 
Q 385 439 , 385 374 
Q 385 309 , 400 272 
Q 416 235 , 442 235 
Q 453 235 , 462 240 
Q 472 245 , 482 258 
L 482 293 
Q 469 277 , 461 273 
Q 452 268 , 443 268 
Q 422 268 , 411 294 
Q 401 321 , 401 374 
Q 401 429 , 411 456 
Q 422 482 , 443 482 
Q 452 482 , 459 480 
Q 466 477 , 469 473 
" fill="#F5C000" />
<path d="
M 590 548 
L 590 549 
Q 575 548 , 567 548 
Q 559 548 , 549 548 
Q 528 548 , 518 549 
Q 506 549 , 506 550 
Q 506 552 , 518 553 
Q 528 553 , 549 553 
Q 559 553 , 567 553 
Q 575 553 , 590 552 
L 590 554 
Q 579 554 , 569 554 
Q 559 554 , 548 554 
Q 521 554 , 506 553 
Q 490 552 , 490 551 
Q 490 549 , 506 548 
Q 521 547 , 548 547 
Q 559 547 , 569 547 
Q 580 547 , 590 548 
" fill="#545FFF" />
<path d="
M 540 538 
L 522 542 
L 556 542 
L 540 538 
M 533 536 
L 547 536 
L 590 546 
L 574 546 
L 562 543 
L 518 543 
L 505 546 
L 490 546 
L 533 536 
" fill="#339541" />
<path d="
M 490 518 
L 508 518 
L 508 528 
Q 508 531 , 516 532 
Q 523 534 , 540 534 
Q 557 534 , 565 532 
Q 572 531 , 572 528 
L 572 518 
L 590 518 
L 590 529 
Q 590 532 , 577 534 
Q 565 536 , 540 536 
Q 516 536 , 503 534 
Q 490 532 , 490 529 
L 490 518 
" fill="#D21010" />
<path d="
M 574 512 
L 574 501 
L 545 501 
L 545 497 
L 590 497 
L 590 514 
Q 579 516 , 568 517 
Q 559 517 , 547 517 
Q 521 517 , 505 512 
Q 490 507 , 490 498 
Q 490 488 , 505 483 
Q 521 478 , 547 478 
Q 558 478 , 567 479 
Q 577 479 , 587 481 
L 587 486 
Q 574 484 , 566 483 
Q 557 483 , 548 483 
Q 527 483 , 516 486 
Q 506 490 , 506 498 
Q 506 505 , 516 509 
Q 527 513 , 548 513 
Q 557 513 , 564 512 
Q 571 512 , 574 512 
" fill="#F5C000" />
<path d="
M 645 544 
L 627 549 
L 661 549 
L 645 544 
M 638 542 
L 652 542 
L 695 554 
L 679 554 
L 667 551 
L 623 551 
L 610 554 
L 595 554 
L 638 542 
" fill="#339541" />
<path d="
M 595 528 
L 613 528 
L 613 536 
Q 613 538 , 621 539 
Q 628 540 , 645 540 
Q 662 540 , 670 539 
Q 677 538 , 677 536 
L 677 528 
L 695 528 
L 695 536 
Q 695 539 , 682 540 
Q 670 541 , 645 541 
Q 621 541 , 608 540 
Q 595 539 , 595 536 
L 595 528 
" fill="#D21010" />
<path d="
M 695 506 
L 695 509 
Q 680 507 , 672 506 
Q 664 506 , 654 506 
Q 633 506 , 623 508 
Q 611 511 , 611 515 
Q 611 520 , 623 523 
Q 633 525 , 654 525 
Q 664 525 , 672 524 
Q 680 524 , 695 521 
L 695 525 
Q 684 526 , 674 527 
Q 664 528 , 653 528 
Q 626 528 , 611 524 
Q 595 521 , 595 515 
Q 595 510 , 611 506 
Q 626 503 , 653 503 
Q 664 503 , 674 504 
Q 685 504 , 695 506 
" fill="#545FFF" />
<path d="
M 679 480 
L 679 436 
L 650 436 
L 650 418 
L 695 418 
L 695 490 
Q 684 497 , 673 500 
Q 664 503 , 652 503 
Q 626 503 , 610 481 
Q 595 459 , 595 422 
Q 595 383 , 610 362 
Q 626 340 , 652 340 
Q 663 340 , 672 343 
Q 682 346 , 692 353 
L 692 374 
Q 679 365 , 671 362 
Q 662 359 , 653 359 
Q 632 359 , 621 375 
Q 611 390 , 611 422 
Q 611 454 , 621 469 
Q 632 485 , 653 485 
Q 662 485 , 669 483 
Q 676 482 , 679 480 
" fill="#F5C000" />
<path d="
M 750 552 
L 732 553 
L 766 553 
L 750 552 
M 743 552 
L 757 552 
L 800 554 
L 784 554 
L 772 554 
L 728 554 
L 715 554 
L 700 554 
L 743 552 
" fill="#339541" />
<path d="
M 700 549 
L 718 549 
L 718 551 
Q 718 551 , 726 551 
Q 733 551 , 750 551 
Q 767 551 , 775 551 
Q 782 551 , 782 551 
L 782 549 
L 800 549 
L 800 551 
Q 800 551 , 787 551 
Q 775 552 , 750 552 
Q 726 552 , 713 551 
Q 700 551 , 700 551 
L 700 549 
" fill="#D21010" />
<path d="
M 800 545 
L 800 546 
Q 785 546 , 777 546 
Q 769 545 , 759 545 
Q 738 545 , 728 546 
Q 716 546 , 716 547 
Q 716 548 , 728 548 
Q 738 548 , 759 548 
Q 769 548 , 777 548 
Q 785 548 , 800 548 
L 800 548 
Q 789 549 , 779 549 
Q 769 549 , 758 549 
Q 731 549 , 716 548 
Q 700 548 , 700 547 
Q 700 546 , 716 546 
Q 731 545 , 758 545 
Q 769 545 , 779 545 
Q 790 545 , 800 545 
" fill="#545FFF" />
<path d="
M 784 544 
L 784 543 
L 755 543 
L 755 542 
L 800 542 
L 800 544 
Q 789 545 , 778 545 
Q 769 545 , 757 545 
Q 731 545 , 715 544 
Q 700 544 , 700 542 
Q 700 541 , 715 541 
Q 731 540 , 757 540 
Q 768 540 , 777 540 
Q 787 540 , 797 540 
L 797 541 
Q 784 541 , 776 541 
Q 767 541 , 758 541 
Q 737 541 , 726 541 
Q 716 541 , 716 542 
Q 716 543 , 726 544 
Q 737 544 , 758 544 
Q 767 544 , 774 544 
Q 781 544 , 784 544 
" fill="#F5C000" />
<path d="
M 855 551 
L 837 553 
L 871 553 
L 855 551 
M 848 550 
L 862 550 
L 905 554 
L 889 554 
L 877 553 
L 833 553 
L 820 554 
L 805 554 
L 848 550 
" fill="#339541" />
<path d="
M 805 540 
L 823 540 
L 823 546 
Q 823 547 , 831 548 
Q 838 549 , 855 549 
Q 872 549 , 880 548 
Q 887 547 , 887 546 
L 887 540 
L 905 540 
L 905 546 
Q 905 548 , 892 549 
Q 880 550 , 855 550 
Q 831 550 , 818 549 
Q 805 548 , 805 546 
L 805 540 
" fill="#D21010" />
<path d="
M 889 533 
L 889 519 
L 860 519 
L 860 513 
L 905 513 
L 905 536 
Q 894 538 , 883 539 
Q 874 540 , 862 540 
Q 836 540 , 820 533 
Q 805 526 , 805 515 
Q 805 503 , 820 496 
Q 836 489 , 862 489 
Q 873 489 , 882 490 
Q 892 491 , 902 493 
L 902 500 
Q 889 497 , 881 496 
Q 872 495 , 863 495 
Q 842 495 , 831 500 
Q 821 505 , 821 515 
Q 821 525 , 831 529 
Q 842 534 , 863 534 
Q 872 534 , 879 534 
Q 886 533 , 889 533 
" fill="#F5C000" />
<path d="
M 905 411 
L 905 425 
Q 890 416 , 882 414 
Q 874 412 , 864 412 
Q 843 412 , 833 420 
Q 821 429 , 821 445 
Q 821 462 , 833 471 
Q 843 479 , 864 479 
Q 874 479 , 882 477 
Q 890 475 , 905 466 
L 905 480 
Q 894 485 , 884 487 
Q 874 489 , 863 489 
Q 836 489 , 821 477 
Q 805 465 , 805 445 
Q 805 425 , 821 414 
Q 836 402 , 863 402 
Q 874 402 , 884 404 
Q 895 406 , 905 411 
" fill="#545FFF" />
<path d="
M 960 548 
L 942 551 
L 976 551 
L 960 548 
M 953 546 
L 967 546 
L 1010 554 
L 994 554 
L 982 552 
L 938 552 
L 925 554 
L 910 554 
L 953 546 
" fill="#339541" />
<path d="
M 910 533 
L 928 533 
L 928 541 
Q 928 543 , 936 544 
Q 943 544 , 960 544 
Q 977 544 , 985 544 
Q 992 543 , 992 541 
L 992 533 
L 1010 533 
L 1010 541 
Q 1010 543 , 997 545 
Q 985 546 , 960 546 
Q 936 546 , 923 545 
Q 910 543 , 910 541 
L 910 533 
" fill="#D21010" />
<path d="
M 994 528 
L 994 519 
L 965 519 
L 965 515 
L 1010 515 
L 1010 530 
Q 999 531 , 988 532 
Q 979 532 , 967 532 
Q 941 532 , 925 528 
Q 910 524 , 910 516 
Q 910 509 , 925 504 
Q 941 500 , 967 500 
Q 978 500 , 987 501 
Q 997 501 , 1007 503 
L 1007 507 
Q 994 505 , 986 504 
Q 977 504 , 968 504 
Q 947 504 , 936 507 
Q 926 510 , 926 516 
Q 926 522 , 936 526 
Q 947 529 , 968 529 
Q 977 529 , 984 528 
Q 991 528 , 994 528 
" fill="#F5C000" />
<path d="
M 1010 374 
L 1010 396 
Q 995 382 , 987 378 
Q 979 375 , 969 375 
Q 948 375 , 938 388 
Q 926 402 , 926 429 
Q 926 457 , 938 471 
Q 948 485 , 969 485 
Q 979 485 , 987 481 
Q 995 477 , 1010 463 
L 1010 485 
Q 999 493 , 989 497 
Q 979 500 , 968 500 
Q 941 500 , 926 481 
Q 910 462 , 910 429 
Q 910 397 , 926 378 
Q 941 359 , 968 359 
Q 979 359 , 989 362 
Q 1000 366 , 1010 374 
" fill="#545FFF" />
<path d="
M 1065 553 
L 1047 554 
L 1081 554 
L 1065 553 
M 1058 552 
L 1072 552 
L 1115 555 
L 1099 555 
L 1087 554 
L 1043 554 
L 1030 555 
L 1015 555 
L 1058 552 
" fill="#339541" />
<path d="
M 1115 536 
L 1115 538 
Q 1100 537 , 1092 536 
Q 1084 536 , 1074 536 
Q 1053 536 , 1043 538 
Q 1031 539 , 1031 542 
Q 1031 546 , 1043 548 
Q 1053 549 , 1074 549 
Q 1084 549 , 1092 549 
Q 1100 548 , 1115 547 
L 1115 549 
Q 1104 550 , 1094 551 
Q 1084 551 , 1073 551 
Q 1046 551 , 1031 549 
Q 1015 546 , 1015 543 
Q 1015 539 , 1031 536 
Q 1046 534 , 1073 534 
Q 1084 534 , 1094 534 
Q 1105 535 , 1115 536 
" fill="#545FFF" />
<path d="
M 1099 529 
L 1099 521 
L 1070 521 
L 1070 517 
L 1115 517 
L 1115 531 
Q 1104 533 , 1093 533 
Q 1084 534 , 1072 534 
Q 1046 534 , 1030 530 
Q 1015 525 , 1015 518 
Q 1015 510 , 1030 506 
Q 1046 502 , 1072 502 
Q 1083 502 , 1092 503 
Q 1102 503 , 1112 505 
L 1112 509 
Q 1099 507 , 1091 506 
Q 1082 506 , 1073 506 
Q 1052 506 , 1041 509 
Q 1031 512 , 1031 518 
Q 1031 524 , 1041 527 
Q 1052 530 , 1073 530 
Q 1082 530 , 1089 530 
Q 1096 530 , 1099 529 
" fill="#F5C000" />
<path d="
M 1015 445 
L 1033 445 
L 1033 478 
Q 1033 488 , 1041 492 
Q 1048 495 , 1065 495 
Q 1082 495 , 1090 492 
Q 1097 488 , 1097 478 
L 1097 445 
L 1115 445 
L 1115 479 
Q 1115 490 , 1102 496 
Q 1090 502 , 1065 502 
Q 1041 502 , 1028 496 
Q 1015 490 , 1015 479 
L 1015 445 
" fill="#D21010" />
<path d="
M 1170 552 
L 1152 553 
L 1186 553 
L 1170 552 
M 1163 551 
L 1177 551 
L 1220 555 
L 1204 555 
L 1192 554 
L 1148 554 
L 1135 555 
L 1120 555 
L 1163 551 
" fill="#339541" />
<path d="
M 1120 536 
L 1138 536 
L 1138 544 
Q 1138 547 , 1146 548 
Q 1153 548 , 1170 548 
Q 1187 548 , 1195 548 
Q 1202 547 , 1202 544 
L 1202 536 
L 1220 536 
L 1220 545 
Q 1220 547 , 1207 549 
Q 1195 550 , 1170 550 
Q 1146 550 , 1133 549 
Q 1120 547 , 1120 545 
L 1120 536 
" fill="#D21010" />
<path d="
M 1220 516 
L 1220 520 
Q 1205 517 , 1197 517 
Q 1189 516 , 1179 516 
Q 1158 516 , 1148 518 
Q 1136 520 , 1136 524 
Q 1136 529 , 1148 531 
Q 1158 533 , 1179 533 
Q 1189 533 , 1197 532 
Q 1205 532 , 1220 530 
L 1220 533 
Q 1209 534 , 1199 535 
Q 1189 535 , 1178 535 
Q 1151 535 , 1136 532 
Q 1120 529 , 1120 525 
Q 1120 520 , 1136 517 
Q 1151 514 , 1178 514 
Q 1189 514 , 1199 515 
Q 1210 515 , 1220 516 
" fill="#545FFF" />
<path d="
M 1204 472 
L 1204 393 
L 1175 393 
L 1175 361 
L 1220 361 
L 1220 491 
Q 1209 503 , 1198 508 
Q 1189 513 , 1177 513 
Q 1151 513 , 1135 474 
Q 1120 436 , 1120 368 
Q 1120 300 , 1135 261 
Q 1151 222 , 1177 222 
Q 1188 222 , 1197 227 
Q 1207 232 , 1217 246 
L 1217 283 
Q 1204 266 , 1196 261 
Q 1187 257 , 1178 257 
Q 1157 257 , 1146 284 
Q 1136 311 , 1136 368 
Q 1136 425 , 1146 453 
Q 1157 481 , 1178 481 
Q 1187 481 , 1194 478 
Q 1201 475 , 1204 472 
" fill="#F5C000" />
<path d="
M 1225 548 
L 1243 548 
L 1243 552 
Q 1243 553 , 1251 553 
Q 1258 553 , 1275 553 
Q 1292 553 , 1300 553 
Q 1307 553 , 1307 552 
L 1307 548 
L 1325 548 
L 1325 552 
Q 1325 553 , 1312 553 
Q 1300 554 , 1275 554 
Q 1251 554 , 1238 553 
Q 1225 553 , 1225 552 
L 1225 548 
" fill="#D21010" />
<path d="
M 1275 541 
L 1257 545 
L 1291 545 
L 1275 541 
M 1268 540 
L 1282 540 
L 1325 548 
L 1309 548 
L 1297 546 
L 1253 546 
L 1240 548 
L 1225 548 
L 1268 540 
" fill="#339541" />
<path d="
M 1325 521 
L 1325 524 
Q 1310 522 , 1302 522 
Q 1294 521 , 1284 521 
Q 1263 521 , 1253 523 
Q 1241 525 , 1241 529 
Q 1241 533 , 1253 535 
Q 1263 537 , 1284 537 
Q 1294 537 , 1302 537 
Q 1310 536 , 1325 534 
L 1325 538 
Q 1314 539 , 1304 539 
Q 1294 540 , 1283 540 
Q 1256 540 , 1241 537 
Q 1225 534 , 1225 529 
Q 1225 525 , 1241 522 
Q 1256 519 , 1283 519 
Q 1294 519 , 1304 520 
Q 1315 520 , 1325 521 
" fill="#545FFF" />
<path d="
M 1309 515 
L 1309 507 
L 1280 507 
L 1280 504 
L 1325 504 
L 1325 517 
Q 1314 518 , 1303 518 
Q 1294 519 , 1282 519 
Q 1256 519 , 1240 515 
Q 1225 512 , 1225 505 
Q 1225 498 , 1240 495 
Q 1256 491 , 1282 491 
Q 1293 491 , 1302 491 
Q 1312 492 , 1322 493 
L 1322 497 
Q 1309 495 , 1301 495 
Q 1292 494 , 1283 494 
Q 1262 494 , 1251 497 
Q 1241 500 , 1241 505 
Q 1241 511 , 1251 513 
Q 1262 516 , 1283 516 
Q 1292 516 , 1299 516 
Q 1306 515 , 1309 515 
" fill="#F5C000" />
<path d="
M 1380 552 
L 1362 553 
L 1396 553 
L 1380 552 
M 1373 552 
L 1387 552 
L 1430 554 
L 1414 554 
L 1402 554 
L 1358 554 
L 1345 554 
L 1330 554 
L 1373 552 
" fill="#339541" />
<path d="
M 1330 549 
L 1348 549 
L 1348 551 
Q 1348 551 , 1356 551 
Q 1363 551 , 1380 551 
Q 1397 551 , 1405 551 
Q 1412 551 , 1412 551 
L 1412 549 
L 1430 549 
L 1430 551 
Q 1430 551 , 1417 551 
Q 1405 552 , 1380 552 
Q 1356 552 , 1343 551 
Q 1330 551 , 1330 551 
L 1330 549 
" fill="#D21010" />
<path d="
M 1430 545 
L 1430 546 
Q 1415 546 , 1407 546 
Q 1399 545 , 1389 545 
Q 1368 545 , 1358 546 
Q 1346 546 , 1346 547 
Q 1346 548 , 1358 548 
Q 1368 548 , 1389 548 
Q 1399 548 , 1407 548 
Q 1415 548 , 1430 548 
L 1430 548 
Q 1419 549 , 1409 549 
Q 1399 549 , 1388 549 
Q 1361 549 , 1346 548 
Q 1330 548 , 1330 547 
Q 1330 546 , 1346 546 
Q 1361 545 , 1388 545 
Q 1399 545 , 1409 545 
Q 1420 545 , 1430 545 
" fill="#545FFF" />
<path d="
M 1414 544 
L 1414 543 
L 1385 543 
L 1385 542 
L 1430 542 
L 1430 544 
Q 1419 545 , 1408 545 
Q 1399 545 , 1387 545 
Q 1361 545 , 1345 544 
Q 1330 544 , 1330 542 
Q 1330 541 , 1345 541 
Q 1361 540 , 1387 540 
Q 1398 540 , 1407 540 
Q 1417 540 , 1427 540 
L 1427 541 
Q 1414 541 , 1406 541 
Q 1397 541 , 1388 541 
Q 1367 541 , 1356 541 
Q 1346 541 , 1346 542 
Q 1346 543 , 1356 544 
Q 1367 544 , 1388 544 
Q 1397 544 , 1404 544 
Q 1411 544 , 1414 544 
" fill="#F5C000" />
<path d="M 65 55 L 65 555 " stroke="black" stroke-width="1.5"/>
<path d="M 55 555 L 65 555 " stroke="black" stroke-width="4"/>
<text text-anchor="end" x="50" y="555" font-size="50" alignment-baseline="middle">0</text>
<path d="M 55 305 L 65 305 " stroke="black" stroke-width="4"/>
<text text-anchor="end" x="50" y="305" font-size="50" alignment-baseline="middle">1</text>
<path d="M 55 55 L 65 55 " stroke="black" stroke-width="4"/>
<text text-anchor="end" x="50" y="55" font-size="50" alignment-baseline="middle">2</text>
<text text-anchor="middle" x="750" y="50" font-size="50" alignment-baseline="baseline"></text>
G<path d="
M 160 582 
L 126 595 
L 160 608 
L 157 611 
L 123 598 
L 123 623 
L 117 623 
L 117 599 
L 83 611 
L 80 608 
L 114 595 
L 80 582 
L 83 579 
L 117 591 
L 117 567 
L 123 567 
L 123 591 
L 157 579 
L 160 582 
" fill="black" />
<path d="
" fill="black" />
<path d="
M 211 567 
L 238 567 
L 238 623 
L 211 623 
L 211 567 
" fill="black" />
<path d="
" fill="black" />
<path d="
" fill="black" />
<path d="
M 316 567 
L 343 567 
L 343 623 
L 316 623 
L 316 567 
" fill="black" />
<path d="
" fill="black" />
<path d="
" fill="black" />
<path d="
M 421 567 
L 448 567 
L 448 623 
L 421 623 
L 421 567 
" fill="black" />
<path d="
" fill="black" />
<path d="
" fill="black" />
<path d="
M 526 567 
L 553 567 
L 553 623 
L 526 623 
L 526 567 
" fill="black" />
<path d="
" fill="black" />
<path d="
" fill="black" />
<path d="
M 617 567 
L 633 567 
L 633 623 
L 617 623 
L 617 567 
" fill="black" />
<path d="
" fill="black" />
<path d="
M 668 571 
L 659 605 
L 668 605 
L 668 571 
M 667 567 
L 670 567 
L 670 605 
L 673 605 
L 673 608 
L 670 608 
L 670 623 
L 668 623 
L 668 608 
L 657 608 
L 657 604 
L 667 567 
" fill="black" />
<path d="
M 685 571 
Q 682 571 , 681 577 
Q 679 583 , 679 595 
Q 679 607 , 681 613 
Q 682 619 , 685 619 
Q 688 619 , 689 613 
Q 691 607 , 691 595 
Q 691 583 , 689 577 
Q 688 571 , 685 571 
M 685 567 
Q 689 567 , 691 573 
Q 693 580 , 693 595 
Q 693 610 , 691 617 
Q 689 623 , 685 623 
Q 681 623 , 679 617 
Q 677 610 , 677 595 
Q 677 580 , 679 573 
Q 681 567 , 685 567 
" fill="black" />
<path d="
M 790 582 
L 756 595 
L 790 608 
L 787 611 
L 753 598 
L 753 623 
L 747 623 
L 747 599 
L 713 611 
L 710 608 
L 744 595 
L 710 582 
L 713 579 
L 747 591 
L 747 567 
L 753 567 
L 753 591 
L 787 579 
L 790 582 
" fill="black" />
<path d="
" fill="black" />
<path d="
M 841 567 
L 868 567 
L 868 623 
L 841 623 
L 841 567 
" fill="black" />
<path d="
" fill="black" />
<path d="
" fill="black" />
<path d="
M 946 567 
L 973 567 
L 973 623 
L 946 623 
L 946 567 
" fill="black" />
<path d="
" fill="black" />
<path d="
" fill="black" />
<path d="
M 1051 567 
L 1078 567 
L 1078 623 
L 1051 623 
L 1051 567 
" fill="black" />
<path d="
" fill="black" />
<path d="
" fill="black" />
<path d="
M 1156 567 
L 1183 567 
L 1183 623 
L 1156 623 
L 1156 567 
" fill="black" />
<path d="
" fill="black" />
<path d="
" fill="black" />
<path d="
M 1261 567 
L 1288 567 
L 1288 623 
L 1261 623 
L 1261 567 
" fill="black" />
<path d="
" fill="black" />
<path d="
M 1420 582 
L 1386 595 
L 1420 608 
L 1417 611 
L 1383 598 
L 1383 623 
L 1377 623 
L 1377 599 
L 1343 611 
L 1340 608 
L 1374 595 
L 1340 582 
L 1343 579 
L 1377 591 
L 1377 567 
L 1383 567 
L 1383 591 
L 1417 579 
L 1420 582 
" fill="black" />
</svg>
