<svg xmlns="http://www.w3.org/2000/svg"
viewBox="0 0 700 635">
<path d="
M 170 554 
L 170 554 
Q 155 554 , 147 554 
Q 139 554 , 129 554 
Q 108 554 , 98 554 
Q 86 554 , 86 554 
Q 86 554 , 98 554 
Q 108 554 , 129 554 
Q 139 554 , 147 554 
Q 155 554 , 170 554 
L 170 554 
Q 159 554 , 149 554 
Q 139 554 , 128 554 
Q 101 554 , 86 554 
Q 70 554 , 70 554 
Q 70 554 , 86 554 
Q 101 554 , 128 554 
Q 139 554 , 149 554 
Q 160 554 , 170 554 
" fill="#545FFF" />
<path d="
M 154 553 
L 154 553 
L 125 553 
L 125 553 
L 170 553 
L 170 554 
Q 159 554 , 148 554 
Q 139 554 , 127 554 
Q 101 554 , 85 553 
Q 70 553 , 70 553 
Q 70 553 , 85 553 
Q 101 553 , 127 553 
Q 138 553 , 147 553 
Q 157 553 , 167 553 
L 167 553 
Q 154 553 , 146 553 
Q 137 553 , 128 553 
Q 107 553 , 96 553 
Q 86 553 , 86 553 
Q 86 553 , 96 553 
Q 107 553 , 128 553 
Q 137 553 , 144 553 
Q 151 553 , 154 553 
" fill="#F5C000" />
<path d="
M 120 552 
L 102 552 
L 136 552 
L 120 552 
M 113 552 
L 127 552 
L 170 553 
L 154 553 
L 142 552 
L 98 552 
L 85 553 
L 70 553 
L 113 552 
" fill="#339541" />
<path d="
M 70 551 
L 88 551 
L 88 551 
Q 88 551 , 96 551 
Q 103 552 , 120 552 
Q 137 552 , 145 551 
Q 152 551 , 152 551 
L 152 551 
L 170 551 
L 170 551 
Q 170 551 , 157 552 
Q 145 552 , 120 552 
Q 96 552 , 83 552 
Q 70 551 , 70 551 
L 70 551 
" fill="#D21010" />
<path d="
M 275 551 
L 275 551 
Q 260 551 , 252 551 
Q 244 551 , 234 551 
Q 213 551 , 203 551 
Q 191 552 , 191 552 
Q 191 553 , 203 554 
Q 213 554 , 234 554 
Q 244 554 , 252 554 
Q 260 554 , 275 554 
L 275 554 
Q 264 555 , 254 555 
Q 244 555 , 233 555 
Q 206 555 , 191 554 
Q 175 554 , 175 552 
Q 175 551 , 191 551 
Q 206 550 , 233 550 
Q 244 550 , 254 550 
Q 265 550 , 275 551 
" fill="#545FFF" />
<path d="
M 225 543 
L 207 546 
L 241 546 
L 225 543 
M 218 541 
L 232 541 
L 275 550 
L 259 550 
L 247 547 
L 203 547 
L 190 550 
L 175 550 
L 218 541 
" fill="#339541" />
<path d="
M 175 485 
L 193 485 
L 193 518 
Q 193 527 , 201 531 
Q 208 535 , 225 535 
Q 242 535 , 250 531 
Q 257 527 , 257 518 
L 257 485 
L 275 485 
L 275 519 
Q 275 529 , 262 535 
Q 250 541 , 225 541 
Q 201 541 , 188 535 
Q 175 529 , 175 519 
L 175 485 
" fill="#D21010" />
<path d="
M 259 475 
L 259 459 
L 230 459 
L 230 452 
L 275 452 
L 275 479 
Q 264 482 , 253 483 
Q 244 484 , 232 484 
Q 206 484 , 190 476 
Q 175 468 , 175 454 
Q 175 439 , 190 431 
Q 206 423 , 232 423 
Q 243 423 , 252 424 
Q 262 425 , 272 428 
L 272 436 
Q 259 432 , 251 431 
Q 242 430 , 233 430 
Q 212 430 , 201 436 
Q 191 442 , 191 454 
Q 191 466 , 201 472 
Q 212 477 , 233 477 
Q 242 477 , 249 477 
Q 256 476 , 259 475 
" fill="#F5C000" />
<path d="
M 380 548 
L 380 549 
Q 365 548 , 357 548 
Q 349 548 , 339 548 
Q 318 548 , 308 549 
Q 296 549 , 296 550 
Q 296 552 , 308 553 
Q 318 553 , 339 553 
Q 349 553 , 357 553 
Q 365 553 , 380 552 
L 380 554 
Q 369 554 , 359 554 
Q 349 554 , 338 554 
Q 311 554 , 296 553 
Q 280 552 , 280 551 
Q 280 549 , 296 548 
Q 311 547 , 338 547 
Q 349 547 , 359 547 
Q 370 547 , 380 548 
" fill="#545FFF" />
<path d="
M 330 536 
L 312 541 
L 346 541 
L 330 536 
M 323 533 
L 337 533 
L 380 547 
L 364 547 
L 352 543 
L 308 543 
L 295 547 
L 280 547 
L 323 533 
" fill="#339541" />
<path d="
M 280 516 
L 298 516 
L 298 525 
Q 298 528 , 306 529 
Q 313 530 , 330 530 
Q 347 530 , 355 529 
Q 362 528 , 362 525 
L 362 516 
L 380 516 
L 380 526 
Q 380 529 , 367 530 
Q 355 532 , 330 532 
Q 306 532 , 293 530 
Q 280 529 , 280 526 
L 280 516 
" fill="#D21010" />
<path d="
M 364 509 
L 364 496 
L 335 496 
L 335 491 
L 380 491 
L 380 512 
Q 369 514 , 358 515 
Q 349 516 , 337 516 
Q 311 516 , 295 509 
Q 280 503 , 280 492 
Q 280 481 , 295 475 
Q 311 469 , 337 469 
Q 348 469 , 357 470 
Q 367 471 , 377 473 
L 377 479 
Q 364 476 , 356 475 
Q 347 475 , 338 475 
Q 317 475 , 306 479 
Q 296 483 , 296 492 
Q 296 502 , 306 506 
Q 317 510 , 338 510 
Q 347 510 , 354 510 
Q 361 510 , 364 509 
" fill="#F5C000" />
<path d="
M 485 552 
L 485 553 
Q 470 552 , 462 552 
Q 454 552 , 444 552 
Q 423 552 , 413 553 
Q 401 553 , 401 553 
Q 401 554 , 413 554 
Q 423 554 , 444 554 
Q 454 554 , 462 554 
Q 470 554 , 485 554 
L 485 554 
Q 474 555 , 464 555 
Q 454 555 , 443 555 
Q 416 555 , 401 554 
Q 385 554 , 385 553 
Q 385 553 , 401 552 
Q 416 552 , 443 552 
Q 454 552 , 464 552 
Q 475 552 , 485 552 
" fill="#545FFF" />
<path d="
M 469 549 
L 469 544 
L 440 544 
L 440 542 
L 485 542 
L 485 550 
Q 474 551 , 463 551 
Q 454 552 , 442 552 
Q 416 552 , 400 549 
Q 385 547 , 385 542 
Q 385 538 , 400 535 
Q 416 533 , 442 533 
Q 453 533 , 462 533 
Q 472 534 , 482 535 
L 482 537 
Q 469 536 , 461 536 
Q 452 535 , 443 535 
Q 422 535 , 411 537 
Q 401 539 , 401 542 
Q 401 546 , 411 548 
Q 422 550 , 443 550 
Q 452 550 , 459 549 
Q 466 549 , 469 549 
" fill="#F5C000" />
<path d="
M 435 516 
L 417 524 
L 451 524 
L 435 516 
M 428 512 
L 442 512 
L 485 532 
L 469 532 
L 457 526 
L 413 526 
L 400 532 
L 385 532 
L 428 512 
" fill="#339541" />
<path d="
M 385 478 
L 403 478 
L 403 498 
Q 403 503 , 411 506 
Q 418 508 , 435 508 
Q 452 508 , 460 506 
Q 467 503 , 467 498 
L 467 478 
L 485 478 
L 485 498 
Q 485 505 , 472 508 
Q 460 512 , 435 512 
Q 411 512 , 398 508 
Q 385 505 , 385 498 
L 385 478 
" fill="#D21010" />
<path d="
M 590 548 
L 590 549 
Q 575 548 , 567 548 
Q 559 548 , 549 548 
Q 528 548 , 518 549 
Q 506 549 , 506 550 
Q 506 552 , 518 553 
Q 528 554 , 549 554 
Q 559 554 , 567 554 
Q 575 554 , 590 553 
L 590 554 
Q 579 555 , 569 555 
Q 559 555 , 548 555 
Q 521 555 , 506 554 
Q 490 553 , 490 551 
Q 490 549 , 506 548 
Q 521 547 , 548 547 
Q 559 547 , 569 547 
Q 580 547 , 590 548 
" fill="#545FFF" />
<path d="
M 540 535 
L 522 541 
L 556 541 
L 540 535 
M 533 532 
L 547 532 
L 590 546 
L 574 546 
L 562 542 
L 518 542 
L 505 546 
L 490 546 
L 533 532 
" fill="#339541" />
<path d="
M 490 503 
L 508 503 
L 508 520 
Q 508 525 , 516 527 
Q 523 529 , 540 529 
Q 557 529 , 565 527 
Q 572 525 , 572 520 
L 572 503 
L 590 503 
L 590 521 
Q 590 526 , 577 529 
Q 565 532 , 540 532 
Q 516 532 , 503 529 
Q 490 526 , 490 521 
L 490 503 
" fill="#D21010" />
<path d="
M 574 488 
L 574 461 
L 545 461 
L 545 449 
L 590 449 
L 590 494 
Q 579 499 , 568 500 
Q 559 502 , 547 502 
Q 521 502 , 505 489 
Q 490 475 , 490 452 
Q 490 428 , 505 415 
Q 521 401 , 547 401 
Q 558 401 , 567 403 
Q 577 405 , 587 409 
L 587 422 
Q 574 416 , 566 415 
Q 557 413 , 548 413 
Q 527 413 , 516 423 
Q 506 432 , 506 452 
Q 506 472 , 516 481 
Q 527 491 , 548 491 
Q 557 491 , 564 490 
Q 571 489 , 574 488 
" fill="#F5C000" />
<path d="
M 695 554 
L 695 554 
Q 680 554 , 672 554 
Q 664 554 , 654 554 
Q 633 554 , 623 554 
Q 611 554 , 611 554 
Q 611 554 , 623 554 
Q 633 554 , 654 554 
Q 664 554 , 672 554 
Q 680 554 , 695 554 
L 695 554 
Q 684 554 , 674 554 
Q 664 554 , 653 554 
Q 626 554 , 611 554 
Q 595 554 , 595 554 
Q 595 554 , 611 554 
Q 626 554 , 653 554 
Q 664 554 , 674 554 
Q 685 554 , 695 554 
" fill="#545FFF" />
<path d="
M 679 553 
L 679 553 
L 650 553 
L 650 553 
L 695 553 
L 695 554 
Q 684 554 , 673 554 
Q 664 554 , 652 554 
Q 626 554 , 610 553 
Q 595 553 , 595 553 
Q 595 553 , 610 553 
Q 626 553 , 652 553 
Q 663 553 , 672 553 
Q 682 553 , 692 553 
L 692 553 
Q 679 553 , 671 553 
Q 662 553 , 653 553 
Q 632 553 , 621 553 
Q 611 553 , 611 553 
Q 611 553 , 621 553 
Q 632 553 , 653 553 
Q 662 553 , 669 553 
Q 676 553 , 679 553 
" fill="#F5C000" />
<path d="
M 645 552 
L 627 552 
L 661 552 
L 645 552 
M 638 552 
L 652 552 
L 695 553 
L 679 553 
L 667 552 
L 623 552 
L 610 553 
L 595 553 
L 638 552 
" fill="#339541" />
<path d="
M 595 551 
L 613 551 
L 613 551 
Q 613 551 , 621 551 
Q 628 552 , 645 552 
Q 662 552 , 670 551 
Q 677 551 , 677 551 
L 677 551 
L 695 551 
L 695 551 
Q 695 551 , 682 552 
Q 670 552 , 645 552 
Q 621 552 , 608 552 
Q 595 551 , 595 551 
L 595 551 
" fill="#D21010" />
<path d="M 65 55 L 65 555 " stroke="black" stroke-width="1.5"/>
<path d="M 55 555 L 65 555 " stroke="black" stroke-width="4"/>
<text text-anchor="end" x="50" y="555" font-size="50" alignment-baseline="middle">0</text>
<path d="M 55 305 L 65 305 " stroke="black" stroke-width="4"/>
<text text-anchor="end" x="50" y="305" font-size="50" alignment-baseline="middle">1</text>
<path d="M 55 55 L 65 55 " stroke="black" stroke-width="4"/>
<text text-anchor="end" x="50" y="55" font-size="50" alignment-baseline="middle">2</text>
<text text-anchor="middle" x="382" y="50" font-size="50" alignment-baseline="baseline"></text>
G<path d="
M 160 582 
L 126 595 
L 160 608 
L 157 611 
L 123 598 
L 123 623 
L 117 623 
L 117 599 
L 83 611 
L 80 608 
L 114 595 
L 80 582 
L 83 579 
L 117 591 
L 117 567 
L 123 567 
L 123 591 
L 157 579 
L 160 582 
" fill="black" />
<path d="
" fill="black" />
<path d="
M 211 567 
L 238 567 
L 238 623 
L 211 623 
L 211 567 
" fill="black" />
<path d="
" fill="black" />
<path d="
" fill="black" />
<path d="
M 316 567 
L 343 567 
L 343 623 
L 316 623 
L 316 567 
" fill="black" />
<path d="
" fill="black" />
<path d="
" fill="black" />
<path d="
M 421 567 
L 448 567 
L 448 623 
L 421 623 
L 421 567 
" fill="black" />
<path d="
" fill="black" />
<path d="
" fill="black" />
<path d="
M 526 567 
L 553 567 
L 553 623 
L 526 623 
L 526 567 
" fill="black" />
<path d="
" fill="black" />
<path d="
M 685 582 
L 651 595 
L 685 608 
L 682 611 
L 648 598 
L 648 623 
L 642 623 
L 642 599 
L 608 611 
L 605 608 
L 639 595 
L 605 582 
L 608 579 
L 642 591 
L 642 567 
L 648 567 
L 648 591 
L 682 579 
L 685 582 
" fill="black" />
</svg>
