<svg xmlns="http://www.w3.org/2000/svg"
viewBox="0 0 805 635">
<path d="
M 170 554 
L 170 554 
Q 155 554 , 147 554 
Q 139 554 , 129 554 
Q 108 554 , 98 554 
Q 86 554 , 86 554 
Q 86 554 , 98 554 
Q 108 554 , 129 554 
Q 139 554 , 147 554 
Q 155 554 , 170 554 
L 170 554 
Q 159 554 , 149 554 
Q 139 554 , 128 554 
Q 101 554 , 86 554 
Q 70 554 , 70 554 
Q 70 554 , 86 554 
Q 101 554 , 128 554 
Q 139 554 , 149 554 
Q 160 554 , 170 554 
" fill="#545FFF" />
<path d="
M 154 553 
L 154 553 
L 125 553 
L 125 553 
L 170 553 
L 170 554 
Q 159 554 , 148 554 
Q 139 554 , 127 554 
Q 101 554 , 85 553 
Q 70 553 , 70 553 
Q 70 553 , 85 553 
Q 101 553 , 127 553 
Q 138 553 , 147 553 
Q 157 553 , 167 553 
L 167 553 
Q 154 553 , 146 553 
Q 137 553 , 128 553 
Q 107 553 , 96 553 
Q 86 553 , 86 553 
Q 86 553 , 96 553 
Q 107 553 , 128 553 
Q 137 553 , 144 553 
Q 151 553 , 154 553 
" fill="#F5C000" />
<path d="
M 120 552 
L 102 552 
L 136 552 
L 120 552 
M 113 552 
L 127 552 
L 170 553 
L 154 553 
L 142 552 
L 98 552 
L 85 553 
L 70 553 
L 113 552 
" fill="#339541" />
<path d="
M 70 551 
L 88 551 
L 88 551 
Q 88 551 , 96 551 
Q 103 551 , 120 551 
Q 137 551 , 145 551 
Q 152 551 , 152 551 
L 152 551 
L 170 551 
L 170 551 
Q 170 551 , 157 552 
Q 145 552 , 120 552 
Q 96 552 , 83 552 
Q 70 551 , 70 551 
L 70 551 
" fill="#D21010" />
<path d="
M 275 550 
L 275 551 
Q 260 551 , 252 551 
Q 244 550 , 234 550 
Q 213 550 , 203 551 
Q 191 551 , 191 552 
Q 191 553 , 203 553 
Q 213 554 , 234 554 
Q 244 554 , 252 554 
Q 260 553 , 275 553 
L 275 554 
Q 264 554 , 254 554 
Q 244 554 , 233 554 
Q 206 554 , 191 554 
Q 175 553 , 175 552 
Q 175 551 , 191 551 
Q 206 550 , 233 550 
Q 244 550 , 254 550 
Q 265 550 , 275 550 
" fill="#545FFF" />
<path d="
M 225 540 
L 207 545 
L 241 545 
L 225 540 
M 218 538 
L 232 538 
L 275 549 
L 259 549 
L 247 546 
L 203 546 
L 190 549 
L 175 549 
L 218 538 
" fill="#339541" />
<path d="
M 259 532 
L 259 520 
L 230 520 
L 230 515 
L 275 515 
L 275 535 
Q 264 536 , 253 537 
Q 244 538 , 232 538 
Q 206 538 , 190 532 
Q 175 526 , 175 516 
Q 175 506 , 190 500 
Q 206 494 , 232 494 
Q 243 494 , 252 495 
Q 262 496 , 272 498 
L 272 503 
Q 259 501 , 251 500 
Q 242 499 , 233 499 
Q 212 499 , 201 503 
Q 191 507 , 191 516 
Q 191 525 , 201 529 
Q 212 533 , 233 533 
Q 242 533 , 249 533 
Q 256 532 , 259 532 
" fill="#F5C000" />
<path d="
M 175 436 
L 193 436 
L 193 470 
Q 193 479 , 201 483 
Q 208 487 , 225 487 
Q 242 487 , 250 483 
Q 257 479 , 257 470 
L 257 436 
L 275 436 
L 275 471 
Q 275 482 , 262 487 
Q 250 493 , 225 493 
Q 201 493 , 188 487 
Q 175 482 , 175 471 
L 175 436 
" fill="#D21010" />
<path d="
M 280 544 
L 298 544 
L 298 550 
Q 298 552 , 306 552 
Q 313 553 , 330 553 
Q 347 553 , 355 552 
Q 362 552 , 362 550 
L 362 544 
L 380 544 
L 380 550 
Q 380 552 , 367 553 
Q 355 554 , 330 554 
Q 306 554 , 293 553 
Q 280 552 , 280 550 
L 280 544 
" fill="#D21010" />
<path d="
M 380 533 
L 380 535 
Q 365 534 , 357 534 
Q 349 533 , 339 533 
Q 318 533 , 308 534 
Q 296 535 , 296 537 
Q 296 540 , 308 541 
Q 318 542 , 339 542 
Q 349 542 , 357 542 
Q 365 541 , 380 540 
L 380 542 
Q 369 543 , 359 543 
Q 349 543 , 338 543 
Q 311 543 , 296 542 
Q 280 540 , 280 538 
Q 280 535 , 296 534 
Q 311 532 , 338 532 
Q 349 532 , 359 532 
Q 370 533 , 380 533 
" fill="#545FFF" />
<path d="
M 330 522 
L 312 527 
L 346 527 
L 330 522 
M 323 520 
L 337 520 
L 380 531 
L 364 531 
L 352 528 
L 308 528 
L 295 531 
L 280 531 
L 323 520 
" fill="#339541" />
<path d="
M 364 514 
L 364 503 
L 335 503 
L 335 499 
L 380 499 
L 380 516 
Q 369 518 , 358 519 
Q 349 519 , 337 519 
Q 311 519 , 295 514 
Q 280 509 , 280 500 
Q 280 490 , 295 485 
Q 311 480 , 337 480 
Q 348 480 , 357 481 
Q 367 481 , 377 483 
L 377 488 
Q 364 486 , 356 485 
Q 347 485 , 338 485 
Q 317 485 , 306 488 
Q 296 492 , 296 500 
Q 296 507 , 306 511 
Q 317 515 , 338 515 
Q 347 515 , 354 515 
Q 361 514 , 364 514 
" fill="#F5C000" />
<path d="
M 485 552 
L 485 553 
Q 470 552 , 462 552 
Q 454 552 , 444 552 
Q 423 552 , 413 552 
Q 401 553 , 401 553 
Q 401 554 , 413 554 
Q 423 554 , 444 554 
Q 454 554 , 462 554 
Q 470 554 , 485 554 
L 485 554 
Q 474 554 , 464 554 
Q 454 554 , 443 554 
Q 416 554 , 401 554 
Q 385 554 , 385 553 
Q 385 553 , 401 552 
Q 416 552 , 443 552 
Q 454 552 , 464 552 
Q 475 552 , 485 552 
" fill="#545FFF" />
<path d="
M 469 548 
L 469 543 
L 440 543 
L 440 540 
L 485 540 
L 485 550 
Q 474 551 , 463 551 
Q 454 551 , 442 551 
Q 416 551 , 400 549 
Q 385 546 , 385 541 
Q 385 536 , 400 533 
Q 416 530 , 442 530 
Q 453 530 , 462 530 
Q 472 531 , 482 532 
L 482 534 
Q 469 533 , 461 533 
Q 452 533 , 443 533 
Q 422 533 , 411 535 
Q 401 537 , 401 541 
Q 401 545 , 411 547 
Q 422 549 , 443 549 
Q 452 549 , 459 549 
Q 466 549 , 469 548 
" fill="#F5C000" />
<path d="
M 435 506 
L 417 518 
L 451 518 
L 435 506 
M 428 501 
L 442 501 
L 485 530 
L 469 530 
L 457 521 
L 413 521 
L 400 530 
L 385 530 
L 428 501 
" fill="#339541" />
<path d="
M 385 435 
L 403 435 
L 403 474 
Q 403 485 , 411 489 
Q 418 493 , 435 493 
Q 452 493 , 460 489 
Q 467 485 , 467 474 
L 467 435 
L 485 435 
L 485 475 
Q 485 487 , 472 494 
Q 460 501 , 435 501 
Q 411 501 , 398 494 
Q 385 487 , 385 475 
L 385 435 
" fill="#D21010" />
<path d="
M 590 549 
L 590 550 
Q 575 549 , 567 549 
Q 559 549 , 549 549 
Q 528 549 , 518 549 
Q 506 550 , 506 551 
Q 506 553 , 518 553 
Q 528 554 , 549 554 
Q 559 554 , 567 554 
Q 575 554 , 590 553 
L 590 554 
Q 579 555 , 569 555 
Q 559 555 , 548 555 
Q 521 555 , 506 554 
Q 490 553 , 490 551 
Q 490 550 , 506 549 
Q 521 548 , 548 548 
Q 559 548 , 569 548 
Q 580 548 , 590 549 
" fill="#545FFF" />
<path d="
M 540 535 
L 522 541 
L 556 541 
L 540 535 
M 533 532 
L 547 532 
L 590 547 
L 574 547 
L 562 543 
L 518 543 
L 505 547 
L 490 547 
L 533 532 
" fill="#339541" />
<path d="
M 490 504 
L 508 504 
L 508 520 
Q 508 524 , 516 526 
Q 523 528 , 540 528 
Q 557 528 , 565 526 
Q 572 524 , 572 520 
L 572 504 
L 590 504 
L 590 520 
Q 590 526 , 577 528 
Q 565 531 , 540 531 
Q 516 531 , 503 528 
Q 490 526 , 490 520 
L 490 504 
" fill="#D21010" />
<path d="
M 574 473 
L 574 417 
L 545 417 
L 545 395 
L 590 395 
L 590 487 
Q 579 496 , 568 499 
Q 559 503 , 547 503 
Q 521 503 , 505 475 
Q 490 448 , 490 399 
Q 490 351 , 505 323 
Q 521 295 , 547 295 
Q 558 295 , 567 299 
Q 577 302 , 587 312 
L 587 338 
Q 574 327 , 566 323 
Q 557 320 , 548 320 
Q 527 320 , 516 339 
Q 506 359 , 506 399 
Q 506 440 , 516 460 
Q 527 480 , 548 480 
Q 557 480 , 564 478 
Q 571 476 , 574 473 
" fill="#F5C000" />
<path d="
M 695 551 
L 695 552 
Q 680 552 , 672 551 
Q 664 551 , 654 551 
Q 633 551 , 623 552 
Q 611 552 , 611 552 
Q 611 553 , 623 554 
Q 633 554 , 654 554 
Q 664 554 , 672 554 
Q 680 554 , 695 553 
L 695 554 
Q 684 554 , 674 554 
Q 664 554 , 653 554 
Q 626 554 , 611 554 
Q 595 553 , 595 553 
Q 595 552 , 611 551 
Q 626 551 , 653 551 
Q 664 551 , 674 551 
Q 685 551 , 695 551 
" fill="#545FFF" />
<path d="
M 595 540 
L 613 540 
L 613 546 
Q 613 548 , 621 549 
Q 628 549 , 645 549 
Q 662 549 , 670 549 
Q 677 548 , 677 546 
L 677 540 
L 695 540 
L 695 546 
Q 695 548 , 682 549 
Q 670 551 , 645 551 
Q 621 551 , 608 549 
Q 595 548 , 595 546 
L 595 540 
" fill="#D21010" />
<path d="
M 645 530 
L 627 535 
L 661 535 
L 645 530 
M 638 528 
L 652 528 
L 695 539 
L 679 539 
L 667 536 
L 623 536 
L 610 539 
L 595 539 
L 638 528 
" fill="#339541" />
<path d="
M 679 525 
L 679 521 
L 650 521 
L 650 519 
L 695 519 
L 695 526 
Q 684 527 , 673 527 
Q 664 527 , 652 527 
Q 626 527 , 610 525 
Q 595 523 , 595 519 
Q 595 515 , 610 513 
Q 626 511 , 652 511 
Q 663 511 , 672 511 
Q 682 512 , 692 512 
L 692 514 
Q 679 513 , 671 513 
Q 662 513 , 653 513 
Q 632 513 , 621 514 
Q 611 516 , 611 519 
Q 611 522 , 621 524 
Q 632 526 , 653 526 
Q 662 526 , 669 525 
Q 676 525 , 679 525 
" fill="#F5C000" />
<path d="
M 800 554 
L 800 554 
Q 785 554 , 777 554 
Q 769 554 , 759 554 
Q 738 554 , 728 554 
Q 716 554 , 716 554 
Q 716 554 , 728 554 
Q 738 554 , 759 554 
Q 769 554 , 777 554 
Q 785 554 , 800 554 
L 800 554 
Q 789 554 , 779 554 
Q 769 554 , 758 554 
Q 731 554 , 716 554 
Q 700 554 , 700 554 
Q 700 554 , 716 554 
Q 731 554 , 758 554 
Q 769 554 , 779 554 
Q 790 554 , 800 554 
" fill="#545FFF" />
<path d="
M 784 553 
L 784 553 
L 755 553 
L 755 553 
L 800 553 
L 800 554 
Q 789 554 , 778 554 
Q 769 554 , 757 554 
Q 731 554 , 715 553 
Q 700 553 , 700 553 
Q 700 553 , 715 553 
Q 731 553 , 757 553 
Q 768 553 , 777 553 
Q 787 553 , 797 553 
L 797 553 
Q 784 553 , 776 553 
Q 767 553 , 758 553 
Q 737 553 , 726 553 
Q 716 553 , 716 553 
Q 716 553 , 726 553 
Q 737 553 , 758 553 
Q 767 553 , 774 553 
Q 781 553 , 784 553 
" fill="#F5C000" />
<path d="
M 750 552 
L 732 552 
L 766 552 
L 750 552 
M 743 552 
L 757 552 
L 800 553 
L 784 553 
L 772 552 
L 728 552 
L 715 553 
L 700 553 
L 743 552 
" fill="#339541" />
<path d="
M 700 551 
L 718 551 
L 718 551 
Q 718 551 , 726 551 
Q 733 551 , 750 551 
Q 767 551 , 775 551 
Q 782 551 , 782 551 
L 782 551 
L 800 551 
L 800 551 
Q 800 551 , 787 552 
Q 775 552 , 750 552 
Q 726 552 , 713 552 
Q 700 551 , 700 551 
L 700 551 
" fill="#D21010" />
<path d="M 65 55 L 65 555 " stroke="black" stroke-width="1.5"/>
<path d="M 55 555 L 65 555 " stroke="black" stroke-width="4"/>
<text text-anchor="end" x="50" y="555" font-size="50" alignment-baseline="middle">0</text>
<path d="M 55 305 L 65 305 " stroke="black" stroke-width="4"/>
<text text-anchor="end" x="50" y="305" font-size="50" alignment-baseline="middle">1</text>
<path d="M 55 55 L 65 55 " stroke="black" stroke-width="4"/>
<text text-anchor="end" x="50" y="55" font-size="50" alignment-baseline="middle">2</text>
<text text-anchor="middle" x="435" y="50" font-size="50" alignment-baseline="baseline"></text>
G<path d="
M 160 582 
L 126 595 
L 160 608 
L 157 611 
L 123 598 
L 123 623 
L 117 623 
L 117 599 
L 83 611 
L 80 608 
L 114 595 
L 80 582 
L 83 579 
L 117 591 
L 117 567 
L 123 567 
L 123 591 
L 157 579 
L 160 582 
" fill="black" />
<path d="
" fill="black" />
<path d="
M 211 567 
L 238 567 
L 238 623 
L 211 623 
L 211 567 
" fill="black" />
<path d="
" fill="black" />
<path d="
" fill="black" />
<path d="
M 316 567 
L 343 567 
L 343 623 
L 316 623 
L 316 567 
" fill="black" />
<path d="
" fill="black" />
<path d="
" fill="black" />
<path d="
M 421 567 
L 448 567 
L 448 623 
L 421 623 
L 421 567 
" fill="black" />
<path d="
" fill="black" />
<path d="
" fill="black" />
<path d="
M 526 567 
L 553 567 
L 553 623 
L 526 623 
L 526 567 
" fill="black" />
<path d="
" fill="black" />
<path d="
" fill="black" />
<path d="
M 631 567 
L 658 567 
L 658 623 
L 631 623 
L 631 567 
" fill="black" />
<path d="
" fill="black" />
<path d="
M 790 582 
L 756 595 
L 790 608 
L 787 611 
L 753 598 
L 753 623 
L 747 623 
L 747 599 
L 713 611 
L 710 608 
L 744 595 
L 710 582 
L 713 579 
L 747 591 
L 747 567 
L 753 567 
L 753 591 
L 787 579 
L 790 582 
" fill="black" />
</svg>
