<svg xmlns="http://www.w3.org/2000/svg"
viewBox="0 0 700 615">
<path d="
M 115 552 
L 125 552 
L 111 553 
L 129 553 
L 115 552 
M 134 554 
L 102 554 
L 93 555 
L 70 555 
L 106 551 
L 134 551 
L 170 555 
L 143 555 
L 134 554 
" fill="#339541" stroke="black" stroke-width="1"/>
<path d="
M 70 545 
Q 70 542 , 86 540 
Q 102 539 , 133 539 
Q 149 539 , 168 540 
L 168 541 
Q 146 541 , 133 541 
Q 102 541 , 102 545 
Q 102 547 , 110 548 
Q 118 549 , 133 549 
Q 146 549 , 170 548 
L 170 550 
Q 151 551 , 133 551 
Q 102 551 , 86 549 
Q 70 548 , 70 545 
" fill="#545FFF" stroke="black" stroke-width="1"/>
<path d="
M 157 538 
Q 145 539 , 121 539 
Q 97 539 , 83 538 
Q 70 537 , 70 535 
L 70 524 
L 102 524 
L 102 534 
Q 102 536 , 106 536 
Q 111 536 , 121 536 
Q 132 536 , 136 536 
Q 141 536 , 141 534 
L 141 524 
L 170 524 
L 170 535 
Q 170 537 , 157 538 
" fill="#D21010" stroke="black" stroke-width="1"/>
<path d="
M 141 520 
L 141 514 
L 108 514 
L 108 510 
L 170 510 
L 170 522 
Q 148 524 , 128 524 
Q 99 524 , 84 521 
Q 70 518 , 70 513 
Q 70 507 , 84 504 
Q 99 502 , 130 502 
Q 143 502 , 163 503 
L 163 506 
Q 143 505 , 130 505 
Q 114 505 , 105 507 
Q 97 509 , 97 513 
Q 97 520 , 128 520 
Q 137 520 , 141 520 
" fill="#F5C000" stroke="black" stroke-width="1"/>
<path d="
M 220 551 
L 230 551 
L 216 553 
L 234 553 
L 220 551 
M 239 554 
L 207 554 
L 198 555 
L 175 555 
L 211 550 
L 239 550 
L 275 555 
L 248 555 
L 239 554 
" fill="#339541" stroke="black" stroke-width="1"/>
<path d="
M 262 548 
Q 250 549 , 226 549 
Q 202 549 , 188 548 
Q 175 548 , 175 546 
L 175 539 
L 207 539 
L 207 546 
Q 207 547 , 211 547 
Q 216 548 , 226 548 
Q 237 548 , 241 547 
Q 246 547 , 246 546 
L 246 539 
L 275 539 
L 275 546 
Q 275 548 , 262 548 
" fill="#D21010" stroke="black" stroke-width="1"/>
<path d="
M 246 531 
L 246 519 
L 213 519 
L 213 513 
L 275 513 
L 275 536 
Q 253 538 , 233 538 
Q 204 538 , 189 533 
Q 175 528 , 175 518 
Q 175 507 , 189 502 
Q 204 497 , 235 497 
Q 248 497 , 268 499 
L 268 506 
Q 248 503 , 235 503 
Q 219 503 , 210 506 
Q 202 510 , 202 518 
Q 202 532 , 233 532 
Q 242 532 , 246 531 
" fill="#F5C000" stroke="black" stroke-width="1"/>
<path d="
M 175 474 
Q 175 462 , 191 456 
Q 207 451 , 238 451 
Q 254 451 , 273 453 
L 273 461 
Q 251 458 , 238 458 
Q 207 458 , 207 474 
Q 207 483 , 215 486 
Q 223 490 , 238 490 
Q 251 490 , 275 486 
L 275 494 
Q 256 496 , 238 496 
Q 207 496 , 191 491 
Q 175 486 , 175 474 
" fill="#545FFF" stroke="black" stroke-width="1"/>
<path d="
M 280 550 
Q 280 547 , 296 546 
Q 312 545 , 343 545 
Q 359 545 , 378 545 
L 378 547 
Q 356 546 , 343 546 
Q 312 546 , 312 550 
Q 312 552 , 320 552 
Q 328 553 , 343 553 
Q 356 553 , 380 552 
L 380 554 
Q 361 554 , 343 554 
Q 312 554 , 296 553 
Q 280 552 , 280 550 
" fill="#545FFF" stroke="black" stroke-width="1"/>
<path d="
M 351 541 
L 351 537 
L 318 537 
L 318 534 
L 380 534 
L 380 543 
Q 358 544 , 338 544 
Q 309 544 , 294 542 
Q 280 540 , 280 536 
Q 280 532 , 294 530 
Q 309 528 , 340 528 
Q 353 528 , 373 529 
L 373 531 
Q 353 530 , 340 530 
Q 324 530 , 315 531 
Q 307 533 , 307 536 
Q 307 542 , 338 542 
Q 347 542 , 351 541 
" fill="#F5C000" stroke="black" stroke-width="1"/>
<path d="
M 325 506 
L 335 506 
L 321 517 
L 339 517 
L 325 506 
M 344 521 
L 312 521 
L 303 528 
L 280 528 
L 316 502 
L 344 502 
L 380 528 
L 353 528 
L 344 521 
" fill="#339541" stroke="black" stroke-width="1"/>
<path d="
M 367 493 
Q 355 502 , 331 502 
Q 307 502 , 293 493 
Q 280 484 , 280 466 
L 280 375 
L 312 375 
L 312 462 
Q 312 474 , 316 478 
Q 321 482 , 331 482 
Q 342 482 , 346 478 
Q 351 474 , 351 462 
L 351 375 
L 380 375 
L 380 466 
Q 380 484 , 367 493 
" fill="#D21010" stroke="black" stroke-width="1"/>
<path d="
M 430 550 
L 440 550 
L 426 552 
L 444 552 
L 430 550 
M 449 553 
L 417 553 
L 408 554 
L 385 554 
L 421 549 
L 449 549 
L 485 554 
L 458 554 
L 449 553 
" fill="#339541" stroke="black" stroke-width="1"/>
<path d="
M 385 543 
Q 385 540 , 401 539 
Q 417 538 , 448 538 
Q 464 538 , 483 539 
L 483 540 
Q 461 540 , 448 540 
Q 417 540 , 417 543 
Q 417 545 , 425 546 
Q 433 547 , 448 547 
Q 461 547 , 485 546 
L 485 548 
Q 466 548 , 448 548 
Q 417 548 , 401 547 
Q 385 546 , 385 543 
" fill="#545FFF" stroke="black" stroke-width="1"/>
<path d="
M 472 536 
Q 460 538 , 436 538 
Q 412 538 , 398 536 
Q 385 535 , 385 532 
L 385 519 
L 417 519 
L 417 532 
Q 417 534 , 421 534 
Q 426 535 , 436 535 
Q 447 535 , 451 534 
Q 456 534 , 456 532 
L 456 519 
L 485 519 
L 485 532 
Q 485 535 , 472 536 
" fill="#D21010" stroke="black" stroke-width="1"/>
<path d="
M 456 465 
L 456 373 
L 423 373 
L 423 325 
L 485 325 
L 485 499 
Q 463 519 , 443 519 
Q 414 519 , 399 480 
Q 385 441 , 385 361 
Q 385 280 , 399 241 
Q 414 203 , 445 203 
Q 458 203 , 478 215 
L 478 268 
Q 458 251 , 445 251 
Q 429 251 , 420 276 
Q 412 301 , 412 361 
Q 412 470 , 443 470 
Q 452 470 , 456 465 
" fill="#F5C000" stroke="black" stroke-width="1"/>
<path d="
M 535 552 
L 545 552 
L 531 553 
L 549 553 
L 535 552 
M 554 554 
L 522 554 
L 513 555 
L 490 555 
L 526 551 
L 554 551 
L 590 555 
L 563 555 
L 554 554 
" fill="#339541" stroke="black" stroke-width="1"/>
<path d="
M 490 547 
Q 490 546 , 506 545 
Q 522 544 , 553 544 
Q 569 544 , 588 544 
L 588 545 
Q 566 545 , 553 545 
Q 522 545 , 522 547 
Q 522 549 , 530 549 
Q 538 550 , 553 550 
Q 566 550 , 590 549 
L 590 551 
Q 571 551 , 553 551 
Q 522 551 , 506 550 
Q 490 549 , 490 547 
" fill="#545FFF" stroke="black" stroke-width="1"/>
<path d="
M 577 542 
Q 565 543 , 541 543 
Q 517 543 , 503 542 
Q 490 542 , 490 541 
L 490 535 
L 522 535 
L 522 541 
Q 522 541 , 526 541 
Q 531 542 , 541 542 
Q 552 542 , 556 541 
Q 561 541 , 561 541 
L 561 535 
L 590 535 
L 590 541 
Q 590 542 , 577 542 
" fill="#D21010" stroke="black" stroke-width="1"/>
<path d="
M 561 532 
L 561 529 
L 528 529 
L 528 527 
L 590 527 
L 590 534 
Q 568 534 , 548 534 
Q 519 534 , 504 532 
Q 490 531 , 490 528 
Q 490 525 , 504 523 
Q 519 522 , 550 522 
Q 563 522 , 583 522 
L 583 525 
Q 563 524 , 550 524 
Q 534 524 , 525 525 
Q 517 526 , 517 528 
Q 517 532 , 548 532 
Q 557 532 , 561 532 
" fill="#F5C000" stroke="black" stroke-width="1"/>
<path d="
M 595 554 
Q 595 553 , 611 553 
Q 627 553 , 658 553 
Q 674 553 , 693 553 
L 693 553 
Q 671 553 , 658 553 
Q 627 553 , 627 554 
Q 627 554 , 635 554 
Q 643 554 , 658 554 
Q 671 554 , 695 554 
L 695 554 
Q 676 554 , 658 554 
Q 627 554 , 611 554 
Q 595 554 , 595 554 
" fill="#545FFF" stroke="black" stroke-width="1"/>
<path d="
M 640 551 
L 650 551 
L 636 552 
L 654 552 
L 640 551 
M 659 552 
L 627 552 
L 618 552 
L 595 552 
L 631 551 
L 659 551 
L 695 552 
L 668 552 
L 659 552 
" fill="#339541" stroke="black" stroke-width="1"/>
<path d="
M 682 550 
Q 670 551 , 646 551 
Q 622 551 , 608 550 
Q 595 550 , 595 550 
L 595 549 
L 627 549 
L 627 550 
Q 627 550 , 631 550 
Q 636 550 , 646 550 
Q 657 550 , 661 550 
Q 666 550 , 666 550 
L 666 549 
L 695 549 
L 695 550 
Q 695 550 , 682 550 
" fill="#D21010" stroke="black" stroke-width="1"/>
<path d="
M 666 549 
L 666 548 
L 633 548 
L 633 548 
L 695 548 
L 695 549 
Q 673 549 , 653 549 
Q 624 549 , 609 548 
Q 595 548 , 595 548 
Q 595 547 , 609 547 
Q 624 547 , 655 547 
Q 668 547 , 688 547 
L 688 547 
Q 668 547 , 655 547 
Q 639 547 , 630 547 
Q 622 548 , 622 548 
Q 622 549 , 653 549 
Q 662 549 , 666 549 
" fill="#F5C000" stroke="black" stroke-width="1"/>
<path d="M 65 55 L 65 555 " stroke="black" stroke-width="1.5"/>
<path d="M 55 555 L 65 555 " stroke="black" stroke-width="4"/>
<text text-anchor="end" x="50" y="555" font-size="50" alignment-baseline="middle">0</text>
<path d="M 55 305 L 65 305 " stroke="black" stroke-width="4"/>
<text text-anchor="end" x="50" y="305" font-size="50" alignment-baseline="middle">1</text>
<path d="M 55 55 L 65 55 " stroke="black" stroke-width="4"/>
<text text-anchor="end" x="50" y="55" font-size="50" alignment-baseline="middle">2</text>
<text text-anchor="middle" x="382" y="50" font-size="50" alignment-baseline="baseline"></text>
G</svg>
