<svg xmlns="http://www.w3.org/2000/svg"
viewBox="0 0 1435 635">
<path d="
M 120 554 
L 102 554 
L 136 554 
L 120 554 
M 113 554 
L 127 554 
L 170 555 
L 154 555 
L 142 554 
L 98 554 
L 85 555 
L 70 555 
L 113 554 
" fill="#339541" />
<path d="
M 70 553 
L 88 553 
L 88 554 
Q 88 554 , 96 554 
Q 103 554 , 120 554 
Q 137 554 , 145 554 
Q 152 554 , 152 554 
L 152 553 
L 170 553 
L 170 554 
Q 170 554 , 157 554 
Q 145 554 , 120 554 
Q 96 554 , 83 554 
Q 70 554 , 70 554 
L 70 553 
" fill="#D21010" />
<path d="
M 170 552 
L 170 552 
Q 155 552 , 147 552 
Q 139 552 , 129 552 
Q 108 552 , 98 552 
Q 86 552 , 86 552 
Q 86 553 , 98 553 
Q 108 553 , 129 553 
Q 139 553 , 147 553 
Q 155 553 , 170 553 
L 170 553 
Q 159 553 , 149 553 
Q 139 553 , 128 553 
Q 101 553 , 86 553 
Q 70 553 , 70 552 
Q 70 552 , 86 552 
Q 101 552 , 128 552 
Q 139 552 , 149 552 
Q 160 552 , 170 552 
" fill="#545FFF" />
<path d="
M 154 551 
L 154 551 
L 125 551 
L 125 551 
L 170 551 
L 170 551 
Q 159 551 , 148 551 
Q 139 551 , 127 551 
Q 101 551 , 85 551 
Q 70 551 , 70 551 
Q 70 550 , 85 550 
Q 101 550 , 127 550 
Q 138 550 , 147 550 
Q 157 550 , 167 550 
L 167 550 
Q 154 550 , 146 550 
Q 137 550 , 128 550 
Q 107 550 , 96 550 
Q 86 550 , 86 551 
Q 86 551 , 96 551 
Q 107 551 , 128 551 
Q 137 551 , 144 551 
Q 151 551 , 154 551 
" fill="#F5C000" />
<path d="
M 225 552 
L 207 553 
L 241 553 
L 225 552 
M 218 552 
L 232 552 
L 275 554 
L 259 554 
L 247 554 
L 203 554 
L 190 554 
L 175 554 
L 218 552 
" fill="#339541" />
<path d="
M 275 544 
L 275 545 
Q 260 544 , 252 544 
Q 244 544 , 234 544 
Q 213 544 , 203 545 
Q 191 546 , 191 547 
Q 191 549 , 203 550 
Q 213 551 , 234 551 
Q 244 551 , 252 551 
Q 260 550 , 275 550 
L 275 551 
Q 264 551 , 254 552 
Q 244 552 , 233 552 
Q 206 552 , 191 551 
Q 175 549 , 175 547 
Q 175 545 , 191 544 
Q 206 543 , 233 543 
Q 244 543 , 254 543 
Q 265 543 , 275 544 
" fill="#545FFF" />
<path d="
M 175 533 
L 193 533 
L 193 539 
Q 193 540 , 201 541 
Q 208 541 , 225 541 
Q 242 541 , 250 541 
Q 257 540 , 257 539 
L 257 533 
L 275 533 
L 275 539 
Q 275 540 , 262 541 
Q 250 542 , 225 542 
Q 201 542 , 188 541 
Q 175 540 , 175 539 
L 175 533 
" fill="#D21010" />
<path d="
M 259 531 
L 259 529 
L 230 529 
L 230 528 
L 275 528 
L 275 532 
Q 264 532 , 253 533 
Q 244 533 , 232 533 
Q 206 533 , 190 531 
Q 175 530 , 175 528 
Q 175 526 , 190 524 
Q 206 523 , 232 523 
Q 243 523 , 252 523 
Q 262 523 , 272 524 
L 272 525 
Q 259 524 , 251 524 
Q 242 524 , 233 524 
Q 212 524 , 201 525 
Q 191 526 , 191 528 
Q 191 530 , 201 531 
Q 212 532 , 233 532 
Q 242 532 , 249 532 
Q 256 532 , 259 531 
" fill="#F5C000" />
<path d="
M 322 554 
L 322 553 
L 308 553 
L 308 553 
L 330 553 
L 330 554 
Q 325 554 , 319 554 
Q 314 554 , 308 554 
Q 295 554 , 288 554 
Q 280 554 , 280 553 
Q 280 553 , 288 552 
Q 295 552 , 308 552 
Q 314 552 , 319 552 
Q 324 552 , 329 552 
L 329 553 
Q 322 552 , 318 552 
Q 314 552 , 309 552 
Q 299 552 , 293 553 
Q 288 553 , 288 553 
Q 288 554 , 293 554 
Q 299 554 , 309 554 
Q 314 554 , 317 554 
Q 321 554 , 322 554 
" fill="#F5C000" />
<path d="
M 330 552 
L 339 552 
L 339 553 
Q 339 554 , 343 554 
Q 346 554 , 355 554 
Q 364 554 , 367 554 
Q 371 554 , 371 553 
L 371 552 
L 380 552 
L 380 554 
Q 380 554 , 374 554 
Q 367 554 , 355 554 
Q 343 554 , 336 554 
Q 330 554 , 330 554 
L 330 552 
" fill="lightgray" />
<path d="
M 280 547 
L 289 547 
L 289 550 
Q 289 550 , 293 551 
Q 296 551 , 305 551 
Q 314 551 , 317 551 
Q 321 550 , 321 550 
L 321 547 
L 330 547 
L 330 550 
Q 330 551 , 324 551 
Q 317 551 , 305 551 
Q 293 551 , 286 551 
Q 280 551 , 280 550 
L 280 547 
" fill="#D21010" />
<path d="
M 355 548 
L 346 550 
L 363 550 
L 355 548 
M 351 547 
L 359 547 
L 380 551 
L 372 551 
L 366 550 
L 344 550 
L 337 551 
L 330 551 
L 351 547 
" fill="lightgray" />
<path d="
M 280 538 
L 289 538 
L 289 543 
Q 289 545 , 293 545 
Q 296 546 , 305 546 
Q 314 546 , 317 545 
Q 321 545 , 321 543 
L 321 538 
L 330 538 
L 330 543 
Q 330 545 , 324 546 
Q 317 547 , 305 547 
Q 293 547 , 286 546 
Q 280 545 , 280 543 
L 280 538 
" fill="#D21010" />
<path d="
M 372 546 
L 372 543 
L 358 543 
L 358 542 
L 380 542 
L 380 546 
Q 375 547 , 369 547 
Q 364 547 , 358 547 
Q 345 547 , 338 546 
Q 330 545 , 330 542 
Q 330 540 , 338 539 
Q 345 538 , 358 538 
Q 364 538 , 369 538 
Q 374 538 , 379 539 
L 379 540 
Q 372 539 , 368 539 
Q 364 539 , 359 539 
Q 349 539 , 343 540 
Q 338 541 , 338 542 
Q 338 544 , 343 545 
Q 349 546 , 359 546 
Q 364 546 , 367 546 
Q 371 546 , 372 546 
" fill="lightgray" />
<path d="
M 330 520 
L 330 523 
Q 323 521 , 319 521 
Q 314 520 , 309 520 
Q 299 520 , 294 522 
Q 288 524 , 288 527 
Q 288 531 , 294 533 
Q 299 535 , 309 535 
Q 314 535 , 319 535 
Q 323 534 , 330 532 
L 330 535 
Q 325 536 , 319 537 
Q 315 537 , 309 537 
Q 295 537 , 288 535 
Q 280 532 , 280 528 
Q 280 523 , 288 521 
Q 295 518 , 309 518 
Q 315 518 , 320 518 
Q 325 519 , 330 520 
" fill="#545FFF" />
<path d="
M 372 535 
L 372 529 
L 358 529 
L 358 527 
L 380 527 
L 380 536 
Q 375 537 , 369 537 
Q 364 537 , 358 537 
Q 345 537 , 338 535 
Q 330 532 , 330 528 
Q 330 523 , 338 521 
Q 345 518 , 358 518 
Q 364 518 , 369 518 
Q 374 519 , 379 520 
L 379 522 
Q 372 521 , 368 521 
Q 364 520 , 359 520 
Q 349 520 , 343 522 
Q 338 524 , 338 528 
Q 338 531 , 343 533 
Q 349 535 , 359 535 
Q 364 535 , 367 535 
Q 371 535 , 372 535 
" fill="lightgray" />
<path d="
M 305 492 
L 296 505 
L 313 505 
L 305 492 
M 301 486 
L 309 486 
L 330 518 
L 322 518 
L 316 509 
L 294 509 
L 287 518 
L 280 518 
L 301 486 
" fill="#339541" />
<path d="
M 330 486 
L 339 486 
L 339 505 
Q 339 510 , 343 512 
Q 346 514 , 355 514 
Q 364 514 , 367 512 
Q 371 510 , 371 505 
L 371 486 
L 380 486 
L 380 505 
Q 380 511 , 374 515 
Q 367 518 , 355 518 
Q 343 518 , 336 515 
Q 330 511 , 330 505 
L 330 486 
" fill="lightgray" />
<path d="
M 322 473 
L 322 449 
L 308 449 
L 308 439 
L 330 439 
L 330 479 
Q 325 483 , 319 484 
Q 314 486 , 308 486 
Q 295 486 , 288 474 
Q 280 462 , 280 441 
Q 280 420 , 288 408 
Q 295 396 , 308 396 
Q 314 396 , 319 398 
Q 324 399 , 329 403 
L 329 415 
Q 322 410 , 318 408 
Q 314 407 , 309 407 
Q 299 407 , 293 415 
Q 288 424 , 288 441 
Q 288 459 , 293 467 
Q 299 476 , 309 476 
Q 314 476 , 317 475 
Q 321 474 , 322 473 
" fill="#F5C000" />
<path d="
M 380 406 
L 380 419 
Q 373 411 , 369 408 
Q 364 406 , 359 406 
Q 349 406 , 344 415 
Q 338 424 , 338 441 
Q 338 458 , 344 467 
Q 349 476 , 359 476 
Q 364 476 , 369 474 
Q 373 472 , 380 463 
L 380 477 
Q 375 482 , 369 484 
Q 365 486 , 359 486 
Q 345 486 , 338 474 
Q 330 462 , 330 441 
Q 330 420 , 338 408 
Q 345 396 , 359 396 
Q 365 396 , 370 398 
Q 375 400 , 380 406 
" fill="lightgray" />
<path d="
M 435 553 
L 417 554 
L 451 554 
L 435 553 
M 428 553 
L 442 553 
L 485 555 
L 469 555 
L 457 554 
L 413 554 
L 400 555 
L 385 555 
L 428 553 
" fill="#339541" />
<path d="
M 385 550 
L 403 550 
L 403 551 
Q 403 552 , 411 552 
Q 418 552 , 435 552 
Q 452 552 , 460 552 
Q 467 552 , 467 551 
L 467 550 
L 485 550 
L 485 551 
Q 485 552 , 472 552 
Q 460 552 , 435 552 
Q 411 552 , 398 552 
Q 385 552 , 385 551 
L 385 550 
" fill="#D21010" />
<path d="
M 469 549 
L 469 549 
L 440 549 
L 440 548 
L 485 548 
L 485 550 
Q 474 550 , 463 550 
Q 454 550 , 442 550 
Q 416 550 , 400 549 
Q 385 549 , 385 548 
Q 385 548 , 400 547 
Q 416 547 , 442 547 
Q 453 547 , 462 547 
Q 472 547 , 482 547 
L 482 548 
Q 469 547 , 461 547 
Q 452 547 , 443 547 
Q 422 547 , 411 548 
Q 401 548 , 401 548 
Q 401 549 , 411 549 
Q 422 549 , 443 549 
Q 452 549 , 459 549 
Q 466 549 , 469 549 
" fill="#F5C000" />
<path d="
M 485 543 
L 485 544 
Q 470 544 , 462 544 
Q 454 543 , 444 543 
Q 423 543 , 413 544 
Q 401 544 , 401 545 
Q 401 546 , 413 546 
Q 423 546 , 444 546 
Q 454 546 , 462 546 
Q 470 546 , 485 546 
L 485 546 
Q 474 547 , 464 547 
Q 454 547 , 443 547 
Q 416 547 , 401 546 
Q 385 546 , 385 545 
Q 385 544 , 401 544 
Q 416 543 , 443 543 
Q 454 543 , 464 543 
Q 475 543 , 485 543 
" fill="#545FFF" />
<path d="
M 532 554 
L 532 554 
L 518 554 
L 518 554 
L 540 554 
L 540 554 
Q 535 554 , 529 554 
Q 524 554 , 518 554 
Q 505 554 , 498 554 
Q 490 554 , 490 554 
Q 490 553 , 498 553 
Q 505 553 , 518 553 
Q 524 553 , 529 553 
Q 534 553 , 539 553 
L 539 553 
Q 532 553 , 528 553 
Q 524 553 , 519 553 
Q 509 553 , 503 553 
Q 498 553 , 498 554 
Q 498 554 , 503 554 
Q 509 554 , 519 554 
Q 524 554 , 527 554 
Q 531 554 , 532 554 
" fill="#F5C000" />
<path d="
M 540 553 
L 549 553 
L 549 554 
Q 549 554 , 553 554 
Q 556 554 , 565 554 
Q 574 554 , 577 554 
Q 581 554 , 581 554 
L 581 553 
L 590 553 
L 590 554 
Q 590 554 , 584 554 
Q 577 554 , 565 554 
Q 553 554 , 546 554 
Q 540 554 , 540 554 
L 540 553 
" fill="lightgray" />
<path d="
M 490 547 
L 499 547 
L 499 550 
Q 499 551 , 503 552 
Q 506 552 , 515 552 
Q 524 552 , 527 552 
Q 531 551 , 531 550 
L 531 547 
L 540 547 
L 540 550 
Q 540 552 , 534 552 
Q 527 553 , 515 553 
Q 503 553 , 496 552 
Q 490 552 , 490 550 
L 490 547 
" fill="#D21010" />
<path d="
M 565 548 
L 556 550 
L 573 550 
L 565 548 
M 561 547 
L 569 547 
L 590 553 
L 582 553 
L 576 551 
L 554 551 
L 547 553 
L 540 553 
L 561 547 
" fill="lightgray" />
<path d="
M 490 540 
L 499 540 
L 499 544 
Q 499 545 , 503 545 
Q 506 546 , 515 546 
Q 524 546 , 527 545 
Q 531 545 , 531 544 
L 531 540 
L 540 540 
L 540 544 
Q 540 545 , 534 546 
Q 527 546 , 515 546 
Q 503 546 , 496 546 
Q 490 545 , 490 544 
L 490 540 
" fill="#D21010" />
<path d="
M 582 545 
L 582 544 
L 568 544 
L 568 543 
L 590 543 
L 590 546 
Q 585 546 , 579 546 
Q 574 546 , 568 546 
Q 555 546 , 548 545 
Q 540 545 , 540 543 
Q 540 542 , 548 541 
Q 555 540 , 568 540 
Q 574 540 , 579 540 
Q 584 540 , 589 541 
L 589 541 
Q 582 541 , 578 541 
Q 574 541 , 569 541 
Q 559 541 , 553 541 
Q 548 542 , 548 543 
Q 548 544 , 553 545 
Q 559 546 , 569 546 
Q 574 546 , 577 545 
Q 581 545 , 582 545 
" fill="lightgray" />
<path d="
M 515 525 
L 506 532 
L 523 532 
L 515 525 
M 511 522 
L 519 522 
L 540 539 
L 532 539 
L 526 534 
L 504 534 
L 497 539 
L 490 539 
L 511 522 
" fill="#339541" />
<path d="
M 540 522 
L 549 522 
L 549 532 
Q 549 535 , 553 536 
Q 556 537 , 565 537 
Q 574 537 , 577 536 
Q 581 535 , 581 532 
L 581 522 
L 590 522 
L 590 532 
Q 590 536 , 584 537 
Q 577 539 , 565 539 
Q 553 539 , 546 537 
Q 540 536 , 540 532 
L 540 522 
" fill="lightgray" />
<path d="
M 532 515 
L 532 503 
L 518 503 
L 518 498 
L 540 498 
L 540 518 
Q 535 520 , 529 521 
Q 524 521 , 518 521 
Q 505 521 , 498 515 
Q 490 510 , 490 499 
Q 490 489 , 498 483 
Q 505 477 , 518 477 
Q 524 477 , 529 478 
Q 534 479 , 539 481 
L 539 486 
Q 532 484 , 528 483 
Q 524 482 , 519 482 
Q 509 482 , 503 486 
Q 498 491 , 498 499 
Q 498 508 , 503 512 
Q 509 516 , 519 516 
Q 524 516 , 527 516 
Q 531 516 , 532 515 
" fill="#F5C000" />
<path d="
M 590 482 
L 590 489 
Q 583 484 , 579 483 
Q 574 482 , 569 482 
Q 559 482 , 554 486 
Q 548 491 , 548 499 
Q 548 508 , 554 512 
Q 559 517 , 569 517 
Q 574 517 , 579 515 
Q 583 514 , 590 510 
L 590 517 
Q 585 519 , 579 520 
Q 575 521 , 569 521 
Q 555 521 , 548 515 
Q 540 509 , 540 499 
Q 540 489 , 548 483 
Q 555 477 , 569 477 
Q 575 477 , 580 478 
Q 585 479 , 590 482 
" fill="lightgray" />
<path d="
M 540 380 
L 540 396 
Q 533 386 , 529 383 
Q 524 380 , 519 380 
Q 509 380 , 504 391 
Q 498 401 , 498 422 
Q 498 443 , 504 454 
Q 509 465 , 519 465 
Q 524 465 , 529 462 
Q 533 459 , 540 449 
L 540 466 
Q 535 472 , 529 474 
Q 525 477 , 519 477 
Q 505 477 , 498 462 
Q 490 447 , 490 422 
Q 490 397 , 498 383 
Q 505 368 , 519 368 
Q 525 368 , 530 371 
Q 535 373 , 540 380 
" fill="#545FFF" />
<path d="
M 582 461 
L 582 432 
L 568 432 
L 568 420 
L 590 420 
L 590 468 
Q 585 473 , 579 475 
Q 574 477 , 568 477 
Q 555 477 , 548 462 
Q 540 448 , 540 422 
Q 540 397 , 548 383 
Q 555 368 , 568 368 
Q 574 368 , 579 370 
Q 584 372 , 589 377 
L 589 391 
Q 582 385 , 578 383 
Q 574 381 , 569 381 
Q 559 381 , 553 391 
Q 548 401 , 548 422 
Q 548 444 , 553 454 
Q 559 465 , 569 465 
Q 574 465 , 577 464 
Q 581 463 , 582 461 
" fill="lightgray" />
<path d="
M 645 552 
L 627 554 
L 661 554 
L 645 552 
M 638 552 
L 652 552 
L 695 555 
L 679 555 
L 667 554 
L 623 554 
L 610 555 
L 595 555 
L 638 552 
" fill="#339541" />
<path d="
M 679 550 
L 679 547 
L 650 547 
L 650 546 
L 695 546 
L 695 551 
Q 684 551 , 673 551 
Q 664 552 , 652 552 
Q 626 552 , 610 550 
Q 595 548 , 595 546 
Q 595 543 , 610 542 
Q 626 540 , 652 540 
Q 663 540 , 672 540 
Q 682 540 , 692 541 
L 692 542 
Q 679 542 , 671 542 
Q 662 541 , 653 541 
Q 632 541 , 621 542 
Q 611 544 , 611 546 
Q 611 548 , 621 549 
Q 632 550 , 653 550 
Q 662 550 , 669 550 
Q 676 550 , 679 550 
" fill="#F5C000" />
<path d="
M 695 526 
L 695 528 
Q 680 526 , 672 526 
Q 664 526 , 654 526 
Q 633 526 , 623 527 
Q 611 529 , 611 532 
Q 611 535 , 623 536 
Q 633 538 , 654 538 
Q 664 538 , 672 537 
Q 680 537 , 695 535 
L 695 538 
Q 684 539 , 674 539 
Q 664 539 , 653 539 
Q 626 539 , 611 537 
Q 595 535 , 595 532 
Q 595 528 , 611 526 
Q 626 524 , 653 524 
Q 664 524 , 674 524 
Q 685 525 , 695 526 
" fill="#545FFF" />
<path d="
M 595 499 
L 613 499 
L 613 514 
Q 613 518 , 621 519 
Q 628 521 , 645 521 
Q 662 521 , 670 519 
Q 677 518 , 677 514 
L 677 499 
L 695 499 
L 695 514 
Q 695 519 , 682 521 
Q 670 524 , 645 524 
Q 621 524 , 608 521 
Q 595 519 , 595 514 
L 595 499 
" fill="#D21010" />
<path d="
M 750 554 
L 732 554 
L 766 554 
L 750 554 
M 743 554 
L 757 554 
L 800 555 
L 784 555 
L 772 554 
L 728 554 
L 715 555 
L 700 555 
L 743 554 
" fill="#339541" />
<path d="
M 700 553 
L 718 553 
L 718 554 
Q 718 554 , 726 554 
Q 733 554 , 750 554 
Q 767 554 , 775 554 
Q 782 554 , 782 554 
L 782 553 
L 800 553 
L 800 554 
Q 800 554 , 787 554 
Q 775 554 , 750 554 
Q 726 554 , 713 554 
Q 700 554 , 700 554 
L 700 553 
" fill="#D21010" />
<path d="
M 800 552 
L 800 552 
Q 785 552 , 777 552 
Q 769 552 , 759 552 
Q 738 552 , 728 552 
Q 716 552 , 716 552 
Q 716 553 , 728 553 
Q 738 553 , 759 553 
Q 769 553 , 777 553 
Q 785 553 , 800 553 
L 800 553 
Q 789 553 , 779 553 
Q 769 553 , 758 553 
Q 731 553 , 716 553 
Q 700 553 , 700 552 
Q 700 552 , 716 552 
Q 731 552 , 758 552 
Q 769 552 , 779 552 
Q 790 552 , 800 552 
" fill="#545FFF" />
<path d="
M 784 551 
L 784 551 
L 755 551 
L 755 551 
L 800 551 
L 800 551 
Q 789 551 , 778 551 
Q 769 551 , 757 551 
Q 731 551 , 715 551 
Q 700 551 , 700 551 
Q 700 550 , 715 550 
Q 731 550 , 757 550 
Q 768 550 , 777 550 
Q 787 550 , 797 550 
L 797 550 
Q 784 550 , 776 550 
Q 767 550 , 758 550 
Q 737 550 , 726 550 
Q 716 550 , 716 551 
Q 716 551 , 726 551 
Q 737 551 , 758 551 
Q 767 551 , 774 551 
Q 781 551 , 784 551 
" fill="#F5C000" />
<path d="
M 855 553 
L 837 554 
L 871 554 
L 855 553 
M 848 553 
L 862 553 
L 905 554 
L 889 554 
L 877 554 
L 833 554 
L 820 554 
L 805 554 
L 848 553 
" fill="#339541" />
<path d="
M 805 539 
L 823 539 
L 823 547 
Q 823 549 , 831 550 
Q 838 551 , 855 551 
Q 872 551 , 880 550 
Q 887 549 , 887 547 
L 887 539 
L 905 539 
L 905 547 
Q 905 549 , 892 551 
Q 880 552 , 855 552 
Q 831 552 , 818 551 
Q 805 549 , 805 547 
L 805 539 
" fill="#D21010" />
<path d="
M 889 534 
L 889 526 
L 860 526 
L 860 523 
L 905 523 
L 905 536 
Q 894 538 , 883 538 
Q 874 539 , 862 539 
Q 836 539 , 820 535 
Q 805 531 , 805 523 
Q 805 516 , 820 512 
Q 836 508 , 862 508 
Q 873 508 , 882 509 
Q 892 509 , 902 510 
L 902 514 
Q 889 513 , 881 512 
Q 872 512 , 863 512 
Q 842 512 , 831 515 
Q 821 517 , 821 523 
Q 821 529 , 831 532 
Q 842 535 , 863 535 
Q 872 535 , 879 535 
Q 886 535 , 889 534 
" fill="#F5C000" />
<path d="
M 905 475 
L 905 481 
Q 890 477 , 882 476 
Q 874 475 , 864 475 
Q 843 475 , 833 479 
Q 821 482 , 821 489 
Q 821 496 , 833 500 
Q 843 504 , 864 504 
Q 874 504 , 882 503 
Q 890 502 , 905 498 
L 905 504 
Q 894 506 , 884 507 
Q 874 508 , 863 508 
Q 836 508 , 821 503 
Q 805 498 , 805 489 
Q 805 481 , 821 476 
Q 836 471 , 863 471 
Q 874 471 , 884 472 
Q 895 473 , 905 475 
" fill="#545FFF" />
<path d="
M 994 554 
L 994 554 
L 965 554 
L 965 554 
L 1010 554 
L 1010 555 
Q 999 555 , 988 555 
Q 979 555 , 967 555 
Q 941 555 , 925 554 
Q 910 554 , 910 554 
Q 910 553 , 925 553 
Q 941 553 , 967 553 
Q 978 553 , 987 553 
Q 997 553 , 1007 553 
L 1007 553 
Q 994 553 , 986 553 
Q 977 553 , 968 553 
Q 947 553 , 936 553 
Q 926 554 , 926 554 
Q 926 554 , 936 554 
Q 947 554 , 968 554 
Q 977 554 , 984 554 
Q 991 554 , 994 554 
" fill="#F5C000" />
<path d="
M 1010 549 
L 1010 550 
Q 995 550 , 987 549 
Q 979 549 , 969 549 
Q 948 549 , 938 550 
Q 926 550 , 926 550 
Q 926 551 , 938 552 
Q 948 552 , 969 552 
Q 979 552 , 987 552 
Q 995 552 , 1010 552 
L 1010 552 
Q 999 552 , 989 552 
Q 979 553 , 968 553 
Q 941 553 , 926 552 
Q 910 552 , 910 551 
Q 910 550 , 926 549 
Q 941 549 , 968 549 
Q 979 549 , 989 549 
Q 1000 549 , 1010 549 
" fill="#545FFF" />
<path d="
M 910 545 
L 928 545 
L 928 547 
Q 928 548 , 936 548 
Q 943 548 , 960 548 
Q 977 548 , 985 548 
Q 992 548 , 992 547 
L 992 545 
L 1010 545 
L 1010 547 
Q 1010 548 , 997 548 
Q 985 549 , 960 549 
Q 936 549 , 923 548 
Q 910 548 , 910 547 
L 910 545 
" fill="#D21010" />
<path d="
M 960 542 
L 942 543 
L 976 543 
L 960 542 
M 953 541 
L 967 541 
L 1010 545 
L 994 545 
L 982 544 
L 938 544 
L 925 545 
L 910 545 
L 953 541 
" fill="#339541" />
<path d="
M 1065 552 
L 1047 553 
L 1081 553 
L 1065 552 
M 1058 551 
L 1072 551 
L 1115 555 
L 1099 555 
L 1087 554 
L 1043 554 
L 1030 555 
L 1015 555 
L 1058 551 
" fill="#339541" />
<path d="
M 1015 533 
L 1033 533 
L 1033 544 
Q 1033 546 , 1041 548 
Q 1048 549 , 1065 549 
Q 1082 549 , 1090 548 
Q 1097 546 , 1097 544 
L 1097 533 
L 1115 533 
L 1115 544 
Q 1115 547 , 1102 549 
Q 1090 551 , 1065 551 
Q 1041 551 , 1028 549 
Q 1015 547 , 1015 544 
L 1015 533 
" fill="#D21010" />
<path d="
M 1115 516 
L 1115 519 
Q 1100 517 , 1092 517 
Q 1084 516 , 1074 516 
Q 1053 516 , 1043 518 
Q 1031 520 , 1031 523 
Q 1031 527 , 1043 529 
Q 1053 530 , 1074 530 
Q 1084 530 , 1092 530 
Q 1100 529 , 1115 528 
L 1115 531 
Q 1104 532 , 1094 532 
Q 1084 532 , 1073 532 
Q 1046 532 , 1031 530 
Q 1015 527 , 1015 523 
Q 1015 519 , 1031 517 
Q 1046 514 , 1073 514 
Q 1084 514 , 1094 514 
Q 1105 515 , 1115 516 
" fill="#545FFF" />
<path d="
M 1099 492 
L 1099 453 
L 1070 453 
L 1070 438 
L 1115 438 
L 1115 502 
Q 1104 508 , 1093 511 
Q 1084 513 , 1072 513 
Q 1046 513 , 1030 494 
Q 1015 475 , 1015 441 
Q 1015 407 , 1030 387 
Q 1046 368 , 1072 368 
Q 1083 368 , 1092 371 
Q 1102 373 , 1112 380 
L 1112 398 
Q 1099 390 , 1091 388 
Q 1082 385 , 1073 385 
Q 1052 385 , 1041 399 
Q 1031 413 , 1031 441 
Q 1031 469 , 1041 483 
Q 1052 497 , 1073 497 
Q 1082 497 , 1089 496 
Q 1096 494 , 1099 492 
" fill="#F5C000" />
<path d="
M 1162 554 
L 1162 554 
L 1148 554 
L 1148 554 
L 1170 554 
L 1170 554 
Q 1165 554 , 1159 554 
Q 1154 554 , 1148 554 
Q 1135 554 , 1128 554 
Q 1120 554 , 1120 554 
Q 1120 553 , 1128 553 
Q 1135 553 , 1148 553 
Q 1154 553 , 1159 553 
Q 1164 553 , 1169 553 
L 1169 553 
Q 1162 553 , 1158 553 
Q 1154 553 , 1149 553 
Q 1139 553 , 1133 553 
Q 1128 553 , 1128 554 
Q 1128 554 , 1133 554 
Q 1139 554 , 1149 554 
Q 1154 554 , 1157 554 
Q 1161 554 , 1162 554 
" fill="lightgray" />
<path d="
M 1170 553 
L 1179 553 
L 1179 554 
Q 1179 554 , 1183 554 
Q 1186 554 , 1195 554 
Q 1204 554 , 1207 554 
Q 1211 554 , 1211 554 
L 1211 553 
L 1220 553 
L 1220 554 
Q 1220 554 , 1214 554 
Q 1207 554 , 1195 554 
Q 1183 554 , 1176 554 
Q 1170 554 , 1170 554 
L 1170 553 
" fill="#D21010" />
<path d="
M 1120 547 
L 1129 547 
L 1129 550 
Q 1129 551 , 1133 552 
Q 1136 552 , 1145 552 
Q 1154 552 , 1157 552 
Q 1161 551 , 1161 550 
L 1161 547 
L 1170 547 
L 1170 550 
Q 1170 552 , 1164 552 
Q 1157 553 , 1145 553 
Q 1133 553 , 1126 552 
Q 1120 552 , 1120 550 
L 1120 547 
" fill="lightgray" />
<path d="
M 1195 548 
L 1186 550 
L 1203 550 
L 1195 548 
M 1191 547 
L 1199 547 
L 1220 553 
L 1212 553 
L 1206 551 
L 1184 551 
L 1177 553 
L 1170 553 
L 1191 547 
" fill="#339541" />
<path d="
M 1120 540 
L 1129 540 
L 1129 544 
Q 1129 545 , 1133 545 
Q 1136 546 , 1145 546 
Q 1154 546 , 1157 545 
Q 1161 545 , 1161 544 
L 1161 540 
L 1170 540 
L 1170 544 
Q 1170 545 , 1164 546 
Q 1157 546 , 1145 546 
Q 1133 546 , 1126 546 
Q 1120 545 , 1120 544 
L 1120 540 
" fill="lightgray" />
<path d="
M 1212 545 
L 1212 544 
L 1198 544 
L 1198 543 
L 1220 543 
L 1220 546 
Q 1215 546 , 1209 546 
Q 1204 546 , 1198 546 
Q 1185 546 , 1178 545 
Q 1170 545 , 1170 543 
Q 1170 542 , 1178 541 
Q 1185 540 , 1198 540 
Q 1204 540 , 1209 540 
Q 1214 540 , 1219 541 
L 1219 541 
Q 1212 541 , 1208 541 
Q 1204 541 , 1199 541 
Q 1189 541 , 1183 541 
Q 1178 542 , 1178 543 
Q 1178 544 , 1183 545 
Q 1189 546 , 1199 546 
Q 1204 546 , 1207 545 
Q 1211 545 , 1212 545 
" fill="#F5C000" />
<path d="
M 1145 525 
L 1136 532 
L 1153 532 
L 1145 525 
M 1141 522 
L 1149 522 
L 1170 539 
L 1162 539 
L 1156 534 
L 1134 534 
L 1127 539 
L 1120 539 
L 1141 522 
" fill="lightgray" />
<path d="
M 1170 522 
L 1179 522 
L 1179 532 
Q 1179 535 , 1183 536 
Q 1186 537 , 1195 537 
Q 1204 537 , 1207 536 
Q 1211 535 , 1211 532 
L 1211 522 
L 1220 522 
L 1220 532 
Q 1220 536 , 1214 537 
Q 1207 539 , 1195 539 
Q 1183 539 , 1176 537 
Q 1170 536 , 1170 532 
L 1170 522 
" fill="#D21010" />
<path d="
M 1162 515 
L 1162 503 
L 1148 503 
L 1148 498 
L 1170 498 
L 1170 518 
Q 1165 520 , 1159 521 
Q 1154 521 , 1148 521 
Q 1135 521 , 1128 515 
Q 1120 510 , 1120 499 
Q 1120 489 , 1128 483 
Q 1135 477 , 1148 477 
Q 1154 477 , 1159 478 
Q 1164 479 , 1169 481 
L 1169 486 
Q 1162 484 , 1158 483 
Q 1154 482 , 1149 482 
Q 1139 482 , 1133 486 
Q 1128 491 , 1128 499 
Q 1128 508 , 1133 512 
Q 1139 516 , 1149 516 
Q 1154 516 , 1157 516 
Q 1161 516 , 1162 515 
" fill="lightgray" />
<path d="
M 1220 482 
L 1220 489 
Q 1213 484 , 1209 483 
Q 1204 482 , 1199 482 
Q 1189 482 , 1184 486 
Q 1178 491 , 1178 499 
Q 1178 508 , 1184 512 
Q 1189 517 , 1199 517 
Q 1204 517 , 1209 515 
Q 1213 514 , 1220 510 
L 1220 517 
Q 1215 519 , 1209 520 
Q 1205 521 , 1199 521 
Q 1185 521 , 1178 515 
Q 1170 509 , 1170 499 
Q 1170 489 , 1178 483 
Q 1185 477 , 1199 477 
Q 1205 477 , 1210 478 
Q 1215 479 , 1220 482 
" fill="#545FFF" />
<path d="
M 1170 380 
L 1170 396 
Q 1163 386 , 1159 383 
Q 1154 380 , 1149 380 
Q 1139 380 , 1134 391 
Q 1128 401 , 1128 422 
Q 1128 443 , 1134 454 
Q 1139 465 , 1149 465 
Q 1154 465 , 1159 462 
Q 1163 459 , 1170 449 
L 1170 466 
Q 1165 472 , 1159 474 
Q 1155 477 , 1149 477 
Q 1135 477 , 1128 462 
Q 1120 447 , 1120 422 
Q 1120 397 , 1128 383 
Q 1135 368 , 1149 368 
Q 1155 368 , 1160 371 
Q 1165 373 , 1170 380 
" fill="lightgray" />
<path d="
M 1212 461 
L 1212 432 
L 1198 432 
L 1198 420 
L 1220 420 
L 1220 468 
Q 1215 473 , 1209 475 
Q 1204 477 , 1198 477 
Q 1185 477 , 1178 462 
Q 1170 448 , 1170 422 
Q 1170 397 , 1178 383 
Q 1185 368 , 1198 368 
Q 1204 368 , 1209 370 
Q 1214 372 , 1219 377 
L 1219 391 
Q 1212 385 , 1208 383 
Q 1204 381 , 1199 381 
Q 1189 381 , 1183 391 
Q 1178 401 , 1178 422 
Q 1178 444 , 1183 454 
Q 1189 465 , 1199 465 
Q 1204 465 , 1207 464 
Q 1211 463 , 1212 461 
" fill="#F5C000" />
<path d="
M 1267 554 
L 1267 553 
L 1253 553 
L 1253 553 
L 1275 553 
L 1275 554 
Q 1270 554 , 1264 554 
Q 1259 554 , 1253 554 
Q 1240 554 , 1233 554 
Q 1225 554 , 1225 553 
Q 1225 553 , 1233 552 
Q 1240 552 , 1253 552 
Q 1259 552 , 1264 552 
Q 1269 552 , 1274 552 
L 1274 553 
Q 1267 552 , 1263 552 
Q 1259 552 , 1254 552 
Q 1244 552 , 1238 553 
Q 1233 553 , 1233 553 
Q 1233 554 , 1238 554 
Q 1244 554 , 1254 554 
Q 1259 554 , 1262 554 
Q 1266 554 , 1267 554 
" fill="lightgray" />
<path d="
M 1275 552 
L 1284 552 
L 1284 553 
Q 1284 554 , 1288 554 
Q 1291 554 , 1300 554 
Q 1309 554 , 1312 554 
Q 1316 554 , 1316 553 
L 1316 552 
L 1325 552 
L 1325 554 
Q 1325 554 , 1319 554 
Q 1312 554 , 1300 554 
Q 1288 554 , 1281 554 
Q 1275 554 , 1275 554 
L 1275 552 
" fill="#D21010" />
<path d="
M 1225 547 
L 1234 547 
L 1234 550 
Q 1234 550 , 1238 551 
Q 1241 551 , 1250 551 
Q 1259 551 , 1262 551 
Q 1266 550 , 1266 550 
L 1266 547 
L 1275 547 
L 1275 550 
Q 1275 551 , 1269 551 
Q 1262 551 , 1250 551 
Q 1238 551 , 1231 551 
Q 1225 551 , 1225 550 
L 1225 547 
" fill="lightgray" />
<path d="
M 1300 548 
L 1291 550 
L 1308 550 
L 1300 548 
M 1296 547 
L 1304 547 
L 1325 551 
L 1317 551 
L 1311 550 
L 1289 550 
L 1282 551 
L 1275 551 
L 1296 547 
" fill="#339541" />
<path d="
M 1225 538 
L 1234 538 
L 1234 543 
Q 1234 545 , 1238 545 
Q 1241 546 , 1250 546 
Q 1259 546 , 1262 545 
Q 1266 545 , 1266 543 
L 1266 538 
L 1275 538 
L 1275 543 
Q 1275 545 , 1269 546 
Q 1262 547 , 1250 547 
Q 1238 547 , 1231 546 
Q 1225 545 , 1225 543 
L 1225 538 
" fill="lightgray" />
<path d="
M 1317 546 
L 1317 543 
L 1303 543 
L 1303 542 
L 1325 542 
L 1325 546 
Q 1320 547 , 1314 547 
Q 1309 547 , 1303 547 
Q 1290 547 , 1283 546 
Q 1275 545 , 1275 542 
Q 1275 540 , 1283 539 
Q 1290 538 , 1303 538 
Q 1309 538 , 1314 538 
Q 1319 538 , 1324 539 
L 1324 540 
Q 1317 539 , 1313 539 
Q 1309 539 , 1304 539 
Q 1294 539 , 1288 540 
Q 1283 541 , 1283 542 
Q 1283 544 , 1288 545 
Q 1294 546 , 1304 546 
Q 1309 546 , 1312 546 
Q 1316 546 , 1317 546 
" fill="#F5C000" />
<path d="
M 1275 520 
L 1275 523 
Q 1268 521 , 1264 521 
Q 1259 520 , 1254 520 
Q 1244 520 , 1239 522 
Q 1233 524 , 1233 527 
Q 1233 531 , 1239 533 
Q 1244 535 , 1254 535 
Q 1259 535 , 1264 535 
Q 1268 534 , 1275 532 
L 1275 535 
Q 1270 536 , 1264 537 
Q 1260 537 , 1254 537 
Q 1240 537 , 1233 535 
Q 1225 532 , 1225 528 
Q 1225 523 , 1233 521 
Q 1240 518 , 1254 518 
Q 1260 518 , 1265 518 
Q 1270 519 , 1275 520 
" fill="lightgray" />
<path d="
M 1317 535 
L 1317 529 
L 1303 529 
L 1303 527 
L 1325 527 
L 1325 536 
Q 1320 537 , 1314 537 
Q 1309 537 , 1303 537 
Q 1290 537 , 1283 535 
Q 1275 532 , 1275 528 
Q 1275 523 , 1283 521 
Q 1290 518 , 1303 518 
Q 1309 518 , 1314 518 
Q 1319 519 , 1324 520 
L 1324 522 
Q 1317 521 , 1313 521 
Q 1309 520 , 1304 520 
Q 1294 520 , 1288 522 
Q 1283 524 , 1283 528 
Q 1283 531 , 1288 533 
Q 1294 535 , 1304 535 
Q 1309 535 , 1312 535 
Q 1316 535 , 1317 535 
" fill="#F5C000" />
<path d="
M 1250 492 
L 1241 505 
L 1258 505 
L 1250 492 
M 1246 486 
L 1254 486 
L 1275 518 
L 1267 518 
L 1261 509 
L 1239 509 
L 1232 518 
L 1225 518 
L 1246 486 
" fill="lightgray" />
<path d="
M 1275 486 
L 1284 486 
L 1284 505 
Q 1284 510 , 1288 512 
Q 1291 514 , 1300 514 
Q 1309 514 , 1312 512 
Q 1316 510 , 1316 505 
L 1316 486 
L 1325 486 
L 1325 505 
Q 1325 511 , 1319 515 
Q 1312 518 , 1300 518 
Q 1288 518 , 1281 515 
Q 1275 511 , 1275 505 
L 1275 486 
" fill="#D21010" />
<path d="
M 1267 473 
L 1267 449 
L 1253 449 
L 1253 439 
L 1275 439 
L 1275 479 
Q 1270 483 , 1264 484 
Q 1259 486 , 1253 486 
Q 1240 486 , 1233 474 
Q 1225 462 , 1225 441 
Q 1225 420 , 1233 408 
Q 1240 396 , 1253 396 
Q 1259 396 , 1264 398 
Q 1269 399 , 1274 403 
L 1274 415 
Q 1267 410 , 1263 408 
Q 1259 407 , 1254 407 
Q 1244 407 , 1238 415 
Q 1233 424 , 1233 441 
Q 1233 459 , 1238 467 
Q 1244 476 , 1254 476 
Q 1259 476 , 1262 475 
Q 1266 474 , 1267 473 
" fill="lightgray" />
<path d="
M 1325 406 
L 1325 419 
Q 1318 411 , 1314 408 
Q 1309 406 , 1304 406 
Q 1294 406 , 1289 415 
Q 1283 424 , 1283 441 
Q 1283 458 , 1289 467 
Q 1294 476 , 1304 476 
Q 1309 476 , 1314 474 
Q 1318 472 , 1325 463 
L 1325 477 
Q 1320 482 , 1314 484 
Q 1310 486 , 1304 486 
Q 1290 486 , 1283 474 
Q 1275 462 , 1275 441 
Q 1275 420 , 1283 408 
Q 1290 396 , 1304 396 
Q 1310 396 , 1315 398 
Q 1320 400 , 1325 406 
" fill="#545FFF" />
<path d="
M 1380 554 
L 1362 554 
L 1396 554 
L 1380 554 
M 1373 554 
L 1387 554 
L 1430 555 
L 1414 555 
L 1402 554 
L 1358 554 
L 1345 555 
L 1330 555 
L 1373 554 
" fill="#339541" />
<path d="
M 1330 553 
L 1348 553 
L 1348 554 
Q 1348 554 , 1356 554 
Q 1363 554 , 1380 554 
Q 1397 554 , 1405 554 
Q 1412 554 , 1412 554 
L 1412 553 
L 1430 553 
L 1430 554 
Q 1430 554 , 1417 554 
Q 1405 554 , 1380 554 
Q 1356 554 , 1343 554 
Q 1330 554 , 1330 554 
L 1330 553 
" fill="#D21010" />
<path d="
M 1430 552 
L 1430 552 
Q 1415 552 , 1407 552 
Q 1399 552 , 1389 552 
Q 1368 552 , 1358 552 
Q 1346 552 , 1346 552 
Q 1346 553 , 1358 553 
Q 1368 553 , 1389 553 
Q 1399 553 , 1407 553 
Q 1415 553 , 1430 553 
L 1430 553 
Q 1419 553 , 1409 553 
Q 1399 553 , 1388 553 
Q 1361 553 , 1346 553 
Q 1330 553 , 1330 552 
Q 1330 552 , 1346 552 
Q 1361 552 , 1388 552 
Q 1399 552 , 1409 552 
Q 1420 552 , 1430 552 
" fill="#545FFF" />
<path d="
M 1414 551 
L 1414 551 
L 1385 551 
L 1385 551 
L 1430 551 
L 1430 551 
Q 1419 551 , 1408 551 
Q 1399 551 , 1387 551 
Q 1361 551 , 1345 551 
Q 1330 551 , 1330 551 
Q 1330 550 , 1345 550 
Q 1361 550 , 1387 550 
Q 1398 550 , 1407 550 
Q 1417 550 , 1427 550 
L 1427 550 
Q 1414 550 , 1406 550 
Q 1397 550 , 1388 550 
Q 1367 550 , 1356 550 
Q 1346 550 , 1346 551 
Q 1346 551 , 1356 551 
Q 1367 551 , 1388 551 
Q 1397 551 , 1404 551 
Q 1411 551 , 1414 551 
" fill="#F5C000" />
<path d="M 65 168 L 65 555 " stroke="black" stroke-width="1.5"/>
<path d="M 55 555 L 65 555 " stroke="black" stroke-width="4"/>
<text text-anchor="end" x="50" y="555" font-size="50" alignment-baseline="middle">0</text>
<path d="M 55 362 L 65 362 " stroke="black" stroke-width="4"/>
<text text-anchor="end" x="50" y="362" font-size="50" alignment-baseline="middle">1</text>
<path d="M 55 168 L 65 168 " stroke="black" stroke-width="4"/>
<text text-anchor="end" x="50" y="168" font-size="50" alignment-baseline="middle">2</text>
<text text-anchor="middle" x="750" y="50" font-size="50" alignment-baseline="baseline"></text>
G<path d="
M 160 582 
L 126 595 
L 160 608 
L 157 611 
L 123 598 
L 123 623 
L 117 623 
L 117 599 
L 83 611 
L 80 608 
L 114 595 
L 80 582 
L 83 579 
L 117 591 
L 117 567 
L 123 567 
L 123 591 
L 157 579 
L 160 582 
" fill="black" />
<path d="
" fill="black" />
<path d="
M 211 567 
L 238 567 
L 238 623 
L 211 623 
L 211 567 
" fill="black" />
<path d="
" fill="black" />
<path d="
M 370 567 
Q 341 574 , 328 581 
Q 315 588 , 315 595 
Q 315 602 , 328 609 
Q 341 616 , 370 623 
L 346 623 
Q 318 616 , 304 609 
Q 290 602 , 290 595 
Q 290 588 , 304 581 
Q 318 574 , 346 567 
L 370 567 
" fill="black" />
<path d="
" fill="black" />
<path d="
M 421 567 
L 448 567 
L 448 623 
L 421 623 
L 421 567 
" fill="black" />
<path d="
" fill="black" />
<path d="
M 580 567 
Q 551 574 , 538 581 
Q 525 588 , 525 595 
Q 525 602 , 538 609 
Q 551 616 , 580 623 
L 556 623 
Q 528 616 , 514 609 
Q 500 602 , 500 595 
Q 500 588 , 514 581 
Q 528 574 , 556 567 
L 580 567 
" fill="black" />
<path d="
" fill="black" />
<path d="
M 622 567 
L 642 567 
L 642 623 
L 622 623 
L 622 567 
" fill="black" />
<path d="
" fill="black" />
<path d="
M 674 621 
L 674 616 
Q 675 618 , 677 619 
Q 678 619 , 680 619 
Q 686 619 , 688 609 
Q 689 604 , 689 595 
Q 689 597 , 687 600 
Q 685 603 , 681 603 
Q 677 603 , 675 598 
Q 672 593 , 672 586 
Q 672 577 , 675 572 
Q 677 567 , 682 567 
Q 687 567 , 689 574 
Q 692 581 , 692 595 
Q 692 609 , 689 616 
Q 685 623 , 680 623 
Q 678 623 , 677 622 
Q 675 622 , 674 621 
M 676 595 
Q 678 599 , 681 599 
Q 685 599 , 687 595 
Q 689 591 , 689 584 
Q 689 578 , 687 574 
Q 685 571 , 681 571 
Q 678 571 , 676 574 
Q 675 578 , 675 584 
Q 675 591 , 676 595 
" fill="black" />
<path d="
M 790 582 
L 756 595 
L 790 608 
L 787 611 
L 753 598 
L 753 623 
L 747 623 
L 747 599 
L 713 611 
L 710 608 
L 744 595 
L 710 582 
L 713 579 
L 747 591 
L 747 567 
L 753 567 
L 753 591 
L 787 579 
L 790 582 
" fill="black" />
<path d="
" fill="black" />
<path d="
M 841 567 
L 868 567 
L 868 623 
L 841 623 
L 841 567 
" fill="black" />
<path d="
" fill="black" />
<path d="
" fill="black" />
<path d="
M 946 567 
L 973 567 
L 973 623 
L 946 623 
L 946 567 
" fill="black" />
<path d="
" fill="black" />
<path d="
" fill="black" />
<path d="
M 1051 567 
L 1078 567 
L 1078 623 
L 1051 623 
L 1051 567 
" fill="black" />
<path d="
" fill="black" />
<path d="
M 1130 567 
L 1154 567 
Q 1182 574 , 1196 581 
Q 1210 588 , 1210 595 
Q 1210 602 , 1196 609 
Q 1182 616 , 1154 623 
L 1130 623 
Q 1159 616 , 1172 609 
Q 1185 602 , 1185 595 
Q 1185 588 , 1172 581 
Q 1159 574 , 1130 567 
" fill="black" />
<path d="
M 1235 567 
L 1259 567 
Q 1287 574 , 1301 581 
Q 1315 588 , 1315 595 
Q 1315 602 , 1301 609 
Q 1287 616 , 1259 623 
L 1235 623 
Q 1264 616 , 1277 609 
Q 1290 602 , 1290 595 
Q 1290 588 , 1277 581 
Q 1264 574 , 1235 567 
" fill="black" />
<path d="
M 1420 582 
L 1386 595 
L 1420 608 
L 1417 611 
L 1383 598 
L 1383 623 
L 1377 623 
L 1377 599 
L 1343 611 
L 1340 608 
L 1374 595 
L 1340 582 
L 1343 579 
L 1377 591 
L 1377 567 
L 1383 567 
L 1383 591 
L 1417 579 
L 1420 582 
" fill="black" />
</svg>
