<svg xmlns="http://www.w3.org/2000/svg"
viewBox="0 0 1435 635">
<path d="
M 120 554 
L 102 555 
L 136 555 
L 120 554 
M 113 554 
L 127 554 
L 170 555 
L 154 555 
L 142 555 
L 98 555 
L 85 555 
L 70 555 
L 113 554 
" fill="#339541" />
<path d="
M 70 552 
L 88 552 
L 88 553 
Q 88 553 , 96 553 
Q 103 553 , 120 553 
Q 137 553 , 145 553 
Q 152 553 , 152 553 
L 152 552 
L 170 552 
L 170 553 
Q 170 553 , 157 553 
Q 145 553 , 120 553 
Q 96 553 , 83 553 
Q 70 553 , 70 553 
L 70 552 
" fill="#D21010" />
<path d="
M 170 550 
L 170 550 
Q 155 550 , 147 550 
Q 139 550 , 129 550 
Q 108 550 , 98 550 
Q 86 550 , 86 550 
Q 86 551 , 98 551 
Q 108 551 , 129 551 
Q 139 551 , 147 551 
Q 155 551 , 170 551 
L 170 551 
Q 159 551 , 149 551 
Q 139 551 , 128 551 
Q 101 551 , 86 551 
Q 70 551 , 70 551 
Q 70 550 , 86 550 
Q 101 550 , 128 550 
Q 139 550 , 149 550 
Q 160 550 , 170 550 
" fill="#545FFF" />
<path d="
M 154 549 
L 154 549 
L 125 549 
L 125 549 
L 170 549 
L 170 549 
Q 159 549 , 148 549 
Q 139 549 , 127 549 
Q 101 549 , 85 549 
Q 70 549 , 70 549 
Q 70 548 , 85 548 
Q 101 548 , 127 548 
Q 138 548 , 147 548 
Q 157 548 , 167 548 
L 167 548 
Q 154 548 , 146 548 
Q 137 548 , 128 548 
Q 107 548 , 96 548 
Q 86 548 , 86 549 
Q 86 549 , 96 549 
Q 107 549 , 128 549 
Q 137 549 , 144 549 
Q 151 549 , 154 549 
" fill="#F5C000" />
<path d="
M 225 549 
L 207 552 
L 241 552 
L 225 549 
M 218 548 
L 232 548 
L 275 554 
L 259 554 
L 247 552 
L 203 552 
L 190 554 
L 175 554 
L 218 548 
" fill="#339541" />
<path d="
M 259 547 
L 259 545 
L 230 545 
L 230 544 
L 275 544 
L 275 547 
Q 264 548 , 253 548 
Q 244 548 , 232 548 
Q 206 548 , 190 547 
Q 175 546 , 175 544 
Q 175 543 , 190 542 
Q 206 541 , 232 541 
Q 243 541 , 252 541 
Q 262 541 , 272 542 
L 272 542 
Q 259 542 , 251 542 
Q 242 542 , 233 542 
Q 212 542 , 201 542 
Q 191 543 , 191 544 
Q 191 546 , 201 547 
Q 212 547 , 233 547 
Q 242 547 , 249 547 
Q 256 547 , 259 547 
" fill="#F5C000" />
<path d="
M 275 525 
L 275 527 
Q 260 526 , 252 525 
Q 244 525 , 234 525 
Q 213 525 , 203 527 
Q 191 528 , 191 531 
Q 191 535 , 203 537 
Q 213 538 , 234 538 
Q 244 538 , 252 538 
Q 260 537 , 275 536 
L 275 539 
Q 264 539 , 254 540 
Q 244 540 , 233 540 
Q 206 540 , 191 538 
Q 175 536 , 175 532 
Q 175 528 , 191 525 
Q 206 523 , 233 523 
Q 244 523 , 254 523 
Q 265 524 , 275 525 
" fill="#545FFF" />
<path d="
M 175 499 
L 193 499 
L 193 513 
Q 193 517 , 201 518 
Q 208 520 , 225 520 
Q 242 520 , 250 518 
Q 257 517 , 257 513 
L 257 499 
L 275 499 
L 275 513 
Q 275 518 , 262 520 
Q 250 522 , 225 522 
Q 201 522 , 188 520 
Q 175 518 , 175 513 
L 175 499 
" fill="#D21010" />
<path d="
M 330 548 
L 312 551 
L 346 551 
L 330 548 
M 323 547 
L 337 547 
L 380 554 
L 364 554 
L 352 552 
L 308 552 
L 295 554 
L 280 554 
L 323 547 
" fill="#339541" />
<path d="
M 380 532 
L 380 534 
Q 365 533 , 357 532 
Q 349 532 , 339 532 
Q 318 532 , 308 533 
Q 296 535 , 296 538 
Q 296 541 , 308 543 
Q 318 544 , 339 544 
Q 349 544 , 357 544 
Q 365 544 , 380 542 
L 380 544 
Q 369 545 , 359 546 
Q 349 546 , 338 546 
Q 311 546 , 296 544 
Q 280 542 , 280 538 
Q 280 534 , 296 532 
Q 311 530 , 338 530 
Q 349 530 , 359 530 
Q 370 531 , 380 532 
" fill="#545FFF" />
<path d="
M 280 499 
L 298 499 
L 298 517 
Q 298 522 , 306 524 
Q 313 526 , 330 526 
Q 347 526 , 355 524 
Q 362 522 , 362 517 
L 362 499 
L 380 499 
L 380 517 
Q 380 523 , 367 526 
Q 355 529 , 330 529 
Q 306 529 , 293 526 
Q 280 523 , 280 517 
L 280 499 
" fill="#D21010" />
<path d="
M 364 478 
L 364 439 
L 335 439 
L 335 423 
L 380 423 
L 380 488 
Q 369 494 , 358 496 
Q 349 499 , 337 499 
Q 311 499 , 295 479 
Q 280 460 , 280 426 
Q 280 393 , 295 373 
Q 311 354 , 337 354 
Q 348 354 , 357 357 
Q 367 359 , 377 366 
L 377 384 
Q 364 376 , 356 374 
Q 347 371 , 338 371 
Q 317 371 , 306 385 
Q 296 398 , 296 426 
Q 296 455 , 306 469 
Q 317 483 , 338 483 
Q 347 483 , 354 481 
Q 361 480 , 364 478 
" fill="#F5C000" />
<path d="
M 435 548 
L 417 551 
L 451 551 
L 435 548 
M 428 547 
L 442 547 
L 485 554 
L 469 554 
L 457 552 
L 413 552 
L 400 554 
L 385 554 
L 428 547 
" fill="#339541" />
<path d="
M 485 528 
L 485 531 
Q 470 529 , 462 529 
Q 454 528 , 444 528 
Q 423 528 , 413 530 
Q 401 532 , 401 536 
Q 401 540 , 413 542 
Q 423 544 , 444 544 
Q 454 544 , 462 544 
Q 470 543 , 485 541 
L 485 545 
Q 474 546 , 464 546 
Q 454 547 , 443 547 
Q 416 547 , 401 544 
Q 385 541 , 385 536 
Q 385 532 , 401 529 
Q 416 526 , 443 526 
Q 454 526 , 464 527 
Q 475 527 , 485 528 
" fill="#545FFF" />
<path d="
M 385 503 
L 403 503 
L 403 516 
Q 403 520 , 411 521 
Q 418 523 , 435 523 
Q 452 523 , 460 521 
Q 467 520 , 467 516 
L 467 503 
L 485 503 
L 485 516 
Q 485 521 , 472 523 
Q 460 525 , 435 525 
Q 411 525 , 398 523 
Q 385 521 , 385 516 
L 385 503 
" fill="#D21010" />
<path d="
M 469 488 
L 469 461 
L 440 461 
L 440 450 
L 485 450 
L 485 495 
Q 474 499 , 463 501 
Q 454 503 , 442 503 
Q 416 503 , 400 489 
Q 385 476 , 385 452 
Q 385 428 , 400 415 
Q 416 401 , 442 401 
Q 453 401 , 462 403 
Q 472 405 , 482 409 
L 482 422 
Q 469 416 , 461 415 
Q 452 413 , 443 413 
Q 422 413 , 411 423 
Q 401 432 , 401 452 
Q 401 472 , 411 482 
Q 422 492 , 443 492 
Q 452 492 , 459 491 
Q 466 489 , 469 488 
" fill="#F5C000" />
<path d="
M 540 552 
L 522 553 
L 556 553 
L 540 552 
M 533 551 
L 547 551 
L 590 555 
L 574 555 
L 562 554 
L 518 554 
L 505 555 
L 490 555 
L 533 551 
" fill="#339541" />
<path d="
M 490 540 
L 508 540 
L 508 546 
Q 508 548 , 516 549 
Q 523 550 , 540 550 
Q 557 550 , 565 549 
Q 572 548 , 572 546 
L 572 540 
L 590 540 
L 590 547 
Q 590 549 , 577 550 
Q 565 551 , 540 551 
Q 516 551 , 503 550 
Q 490 549 , 490 547 
L 490 540 
" fill="#D21010" />
<path d="
M 590 493 
L 590 501 
Q 575 495 , 567 494 
Q 559 493 , 549 493 
Q 528 493 , 518 498 
Q 506 503 , 506 513 
Q 506 523 , 518 529 
Q 528 534 , 549 534 
Q 559 534 , 567 532 
Q 575 531 , 590 526 
L 590 534 
Q 579 537 , 569 538 
Q 559 539 , 548 539 
Q 521 539 , 506 532 
Q 490 525 , 490 513 
Q 490 501 , 506 494 
Q 521 487 , 548 487 
Q 559 487 , 569 488 
Q 580 490 , 590 493 
" fill="#545FFF" />
<path d="
M 574 478 
L 574 464 
L 545 464 
L 545 458 
L 590 458 
L 590 482 
Q 579 484 , 568 485 
Q 559 486 , 547 486 
Q 521 486 , 505 479 
Q 490 472 , 490 459 
Q 490 446 , 505 439 
Q 521 432 , 547 432 
Q 558 432 , 567 433 
Q 577 434 , 587 436 
L 587 443 
Q 574 440 , 566 439 
Q 557 438 , 548 438 
Q 527 438 , 516 444 
Q 506 449 , 506 459 
Q 506 470 , 516 475 
Q 527 480 , 548 480 
Q 557 480 , 564 480 
Q 571 479 , 574 478 
" fill="#F5C000" />
<path d="
M 645 551 
L 627 553 
L 661 553 
L 645 551 
M 638 550 
L 652 550 
L 695 555 
L 679 555 
L 667 553 
L 623 553 
L 610 555 
L 595 555 
L 638 550 
" fill="#339541" />
<path d="
M 679 548 
L 679 545 
L 650 545 
L 650 544 
L 695 544 
L 695 549 
Q 684 550 , 673 550 
Q 664 550 , 652 550 
Q 626 550 , 610 548 
Q 595 547 , 595 544 
Q 595 542 , 610 540 
Q 626 539 , 652 539 
Q 663 539 , 672 539 
Q 682 539 , 692 540 
L 692 541 
Q 679 541 , 671 540 
Q 662 540 , 653 540 
Q 632 540 , 621 541 
Q 611 542 , 611 544 
Q 611 547 , 621 548 
Q 632 549 , 653 549 
Q 662 549 , 669 549 
Q 676 549 , 679 548 
" fill="#F5C000" />
<path d="
M 695 519 
L 695 523 
Q 680 520 , 672 520 
Q 664 519 , 654 519 
Q 633 519 , 623 521 
Q 611 523 , 611 527 
Q 611 532 , 623 534 
Q 633 536 , 654 536 
Q 664 536 , 672 535 
Q 680 535 , 695 533 
L 695 536 
Q 684 537 , 674 538 
Q 664 538 , 653 538 
Q 626 538 , 611 535 
Q 595 532 , 595 528 
Q 595 523 , 611 520 
Q 626 517 , 653 517 
Q 664 517 , 674 518 
Q 685 518 , 695 519 
" fill="#545FFF" />
<path d="
M 595 485 
L 613 485 
L 613 504 
Q 613 509 , 621 511 
Q 628 513 , 645 513 
Q 662 513 , 670 511 
Q 677 509 , 677 504 
L 677 485 
L 695 485 
L 695 504 
Q 695 510 , 682 514 
Q 670 517 , 645 517 
Q 621 517 , 608 514 
Q 595 510 , 595 504 
L 595 485 
" fill="#D21010" />
<path d="
M 750 554 
L 732 555 
L 766 555 
L 750 554 
M 743 554 
L 757 554 
L 800 555 
L 784 555 
L 772 555 
L 728 555 
L 715 555 
L 700 555 
L 743 554 
" fill="#339541" />
<path d="
M 700 552 
L 718 552 
L 718 553 
Q 718 553 , 726 553 
Q 733 553 , 750 553 
Q 767 553 , 775 553 
Q 782 553 , 782 553 
L 782 552 
L 800 552 
L 800 553 
Q 800 553 , 787 553 
Q 775 553 , 750 553 
Q 726 553 , 713 553 
Q 700 553 , 700 553 
L 700 552 
" fill="#D21010" />
<path d="
M 800 550 
L 800 550 
Q 785 550 , 777 550 
Q 769 550 , 759 550 
Q 738 550 , 728 550 
Q 716 550 , 716 550 
Q 716 551 , 728 551 
Q 738 551 , 759 551 
Q 769 551 , 777 551 
Q 785 551 , 800 551 
L 800 551 
Q 789 551 , 779 551 
Q 769 551 , 758 551 
Q 731 551 , 716 551 
Q 700 551 , 700 551 
Q 700 550 , 716 550 
Q 731 550 , 758 550 
Q 769 550 , 779 550 
Q 790 550 , 800 550 
" fill="#545FFF" />
<path d="
M 784 549 
L 784 549 
L 755 549 
L 755 549 
L 800 549 
L 800 549 
Q 789 549 , 778 549 
Q 769 549 , 757 549 
Q 731 549 , 715 549 
Q 700 549 , 700 549 
Q 700 548 , 715 548 
Q 731 548 , 757 548 
Q 768 548 , 777 548 
Q 787 548 , 797 548 
L 797 548 
Q 784 548 , 776 548 
Q 767 548 , 758 548 
Q 737 548 , 726 548 
Q 716 548 , 716 549 
Q 716 549 , 726 549 
Q 737 549 , 758 549 
Q 767 549 , 774 549 
Q 781 549 , 784 549 
" fill="#F5C000" />
<path d="
M 855 551 
L 837 553 
L 871 553 
L 855 551 
M 848 550 
L 862 550 
L 905 555 
L 889 555 
L 877 553 
L 833 553 
L 820 555 
L 805 555 
L 848 550 
" fill="#339541" />
<path d="
M 805 538 
L 823 538 
L 823 545 
Q 823 547 , 831 548 
Q 838 549 , 855 549 
Q 872 549 , 880 548 
Q 887 547 , 887 545 
L 887 538 
L 905 538 
L 905 545 
Q 905 548 , 892 549 
Q 880 550 , 855 550 
Q 831 550 , 818 549 
Q 805 548 , 805 545 
L 805 538 
" fill="#D21010" />
<path d="
M 905 501 
L 905 508 
Q 890 504 , 882 503 
Q 874 501 , 864 501 
Q 843 501 , 833 505 
Q 821 509 , 821 517 
Q 821 525 , 833 529 
Q 843 533 , 864 533 
Q 874 533 , 882 532 
Q 890 531 , 905 527 
L 905 533 
Q 894 536 , 884 537 
Q 874 538 , 863 538 
Q 836 538 , 821 532 
Q 805 527 , 805 517 
Q 805 508 , 821 503 
Q 836 497 , 863 497 
Q 874 497 , 884 498 
Q 895 499 , 905 501 
" fill="#545FFF" />
<path d="
M 889 485 
L 889 464 
L 860 464 
L 860 455 
L 905 455 
L 905 490 
Q 894 494 , 883 495 
Q 874 496 , 862 497 
Q 836 497 , 820 486 
Q 805 475 , 805 457 
Q 805 438 , 820 428 
Q 836 417 , 862 417 
Q 873 417 , 882 418 
Q 892 420 , 902 423 
L 902 434 
Q 889 429 , 881 428 
Q 872 426 , 863 426 
Q 842 426 , 831 434 
Q 821 441 , 821 457 
Q 821 472 , 831 480 
Q 842 488 , 863 488 
Q 872 488 , 879 487 
Q 886 486 , 889 485 
" fill="#F5C000" />
<path d="
M 960 552 
L 942 553 
L 976 553 
L 960 552 
M 953 551 
L 967 551 
L 1010 555 
L 994 555 
L 982 554 
L 938 554 
L 925 555 
L 910 555 
L 953 551 
" fill="#339541" />
<path d="
M 910 540 
L 928 540 
L 928 546 
Q 928 548 , 936 549 
Q 943 550 , 960 550 
Q 977 550 , 985 549 
Q 992 548 , 992 546 
L 992 540 
L 1010 540 
L 1010 547 
Q 1010 549 , 997 550 
Q 985 551 , 960 551 
Q 936 551 , 923 550 
Q 910 549 , 910 547 
L 910 540 
" fill="#D21010" />
<path d="
M 994 537 
L 994 531 
L 965 531 
L 965 529 
L 1010 529 
L 1010 538 
Q 999 539 , 988 539 
Q 979 539 , 967 540 
Q 941 540 , 925 537 
Q 910 534 , 910 529 
Q 910 524 , 925 522 
Q 941 519 , 967 519 
Q 978 519 , 987 519 
Q 997 520 , 1007 521 
L 1007 523 
Q 994 522 , 986 522 
Q 977 521 , 968 521 
Q 947 521 , 936 523 
Q 926 525 , 926 529 
Q 926 533 , 936 535 
Q 947 537 , 968 537 
Q 977 537 , 984 537 
Q 991 537 , 994 537 
" fill="#F5C000" />
<path d="
M 1010 497 
L 1010 500 
Q 995 498 , 987 497 
Q 979 497 , 969 497 
Q 948 497 , 938 499 
Q 926 502 , 926 506 
Q 926 511 , 938 514 
Q 948 516 , 969 516 
Q 979 516 , 987 515 
Q 995 515 , 1010 512 
L 1010 516 
Q 999 518 , 989 518 
Q 979 519 , 968 519 
Q 941 519 , 926 515 
Q 910 512 , 910 506 
Q 910 501 , 926 497 
Q 941 494 , 968 494 
Q 979 494 , 989 495 
Q 1000 495 , 1010 497 
" fill="#545FFF" />
<path d="
M 1065 551 
L 1047 553 
L 1081 553 
L 1065 551 
M 1058 550 
L 1072 550 
L 1115 555 
L 1099 555 
L 1087 553 
L 1043 553 
L 1030 555 
L 1015 555 
L 1058 550 
" fill="#339541" />
<path d="
M 1015 541 
L 1033 541 
L 1033 546 
Q 1033 547 , 1041 548 
Q 1048 548 , 1065 548 
Q 1082 548 , 1090 548 
Q 1097 547 , 1097 546 
L 1097 541 
L 1115 541 
L 1115 546 
Q 1115 547 , 1102 548 
Q 1090 549 , 1065 549 
Q 1041 549 , 1028 548 
Q 1015 547 , 1015 546 
L 1015 541 
" fill="#D21010" />
<path d="
M 1099 534 
L 1099 523 
L 1070 523 
L 1070 518 
L 1115 518 
L 1115 537 
Q 1104 539 , 1093 540 
Q 1084 541 , 1072 541 
Q 1046 541 , 1030 535 
Q 1015 529 , 1015 519 
Q 1015 509 , 1030 503 
Q 1046 497 , 1072 497 
Q 1083 497 , 1092 498 
Q 1102 499 , 1112 501 
L 1112 506 
Q 1099 504 , 1091 503 
Q 1082 502 , 1073 502 
Q 1052 502 , 1041 506 
Q 1031 510 , 1031 519 
Q 1031 527 , 1041 532 
Q 1052 536 , 1073 536 
Q 1082 536 , 1089 535 
Q 1096 535 , 1099 534 
" fill="#F5C000" />
<path d="
M 1115 320 
L 1115 350 
Q 1100 331 , 1092 326 
Q 1084 321 , 1074 321 
Q 1053 321 , 1043 340 
Q 1031 360 , 1031 398 
Q 1031 436 , 1043 456 
Q 1053 475 , 1074 475 
Q 1084 475 , 1092 470 
Q 1100 465 , 1115 445 
L 1115 477 
Q 1104 488 , 1094 492 
Q 1084 497 , 1073 497 
Q 1046 497 , 1031 470 
Q 1015 443 , 1015 398 
Q 1015 353 , 1031 326 
Q 1046 299 , 1073 299 
Q 1084 299 , 1094 304 
Q 1105 309 , 1115 320 
" fill="#545FFF" />
<path d="
M 1170 550 
L 1152 552 
L 1186 552 
L 1170 550 
M 1163 549 
L 1177 549 
L 1220 554 
L 1204 554 
L 1192 553 
L 1148 553 
L 1135 554 
L 1120 554 
L 1163 549 
" fill="#339541" />
<path d="
M 1220 536 
L 1220 538 
Q 1205 536 , 1197 536 
Q 1189 536 , 1179 536 
Q 1158 536 , 1148 537 
Q 1136 538 , 1136 541 
Q 1136 544 , 1148 545 
Q 1158 547 , 1179 547 
Q 1189 547 , 1197 546 
Q 1205 546 , 1220 545 
L 1220 547 
Q 1209 548 , 1199 548 
Q 1189 548 , 1178 548 
Q 1151 548 , 1136 546 
Q 1120 544 , 1120 541 
Q 1120 538 , 1136 536 
Q 1151 534 , 1178 534 
Q 1189 534 , 1199 534 
Q 1210 535 , 1220 536 
" fill="#545FFF" />
<path d="
M 1204 529 
L 1204 522 
L 1175 522 
L 1175 519 
L 1220 519 
L 1220 531 
Q 1209 532 , 1198 533 
Q 1189 533 , 1177 533 
Q 1151 533 , 1135 530 
Q 1120 526 , 1120 520 
Q 1120 513 , 1135 510 
Q 1151 506 , 1177 506 
Q 1188 506 , 1197 506 
Q 1207 507 , 1217 508 
L 1217 512 
Q 1204 510 , 1196 510 
Q 1187 509 , 1178 509 
Q 1157 509 , 1146 512 
Q 1136 514 , 1136 520 
Q 1136 525 , 1146 528 
Q 1157 530 , 1178 530 
Q 1187 530 , 1194 530 
Q 1201 530 , 1204 529 
" fill="#F5C000" />
<path d="
M 1120 448 
L 1138 448 
L 1138 482 
Q 1138 491 , 1146 495 
Q 1153 499 , 1170 499 
Q 1187 499 , 1195 495 
Q 1202 491 , 1202 482 
L 1202 448 
L 1220 448 
L 1220 483 
Q 1220 494 , 1207 500 
Q 1195 506 , 1170 506 
Q 1146 506 , 1133 500 
Q 1120 494 , 1120 483 
L 1120 448 
" fill="#D21010" />
<path d="
M 1275 550 
L 1257 552 
L 1291 552 
L 1275 550 
M 1268 549 
L 1282 549 
L 1325 555 
L 1309 555 
L 1297 553 
L 1253 553 
L 1240 555 
L 1225 555 
L 1268 549 
" fill="#339541" />
<path d="
M 1225 535 
L 1243 535 
L 1243 543 
Q 1243 545 , 1251 546 
Q 1258 547 , 1275 547 
Q 1292 547 , 1300 546 
Q 1307 545 , 1307 543 
L 1307 535 
L 1325 535 
L 1325 543 
Q 1325 546 , 1312 547 
Q 1300 549 , 1275 549 
Q 1251 549 , 1238 547 
Q 1225 546 , 1225 543 
L 1225 535 
" fill="#D21010" />
<path d="
M 1325 509 
L 1325 513 
Q 1310 511 , 1302 510 
Q 1294 509 , 1284 509 
Q 1263 509 , 1253 512 
Q 1241 515 , 1241 520 
Q 1241 525 , 1253 528 
Q 1263 531 , 1284 531 
Q 1294 531 , 1302 530 
Q 1310 529 , 1325 527 
L 1325 531 
Q 1314 533 , 1304 533 
Q 1294 534 , 1283 534 
Q 1256 534 , 1241 530 
Q 1225 526 , 1225 520 
Q 1225 514 , 1241 510 
Q 1256 506 , 1283 506 
Q 1294 506 , 1304 507 
Q 1315 507 , 1325 509 
" fill="#545FFF" />
<path d="
M 1309 473 
L 1309 411 
L 1280 411 
L 1280 385 
L 1325 385 
L 1325 488 
Q 1314 498 , 1303 501 
Q 1294 505 , 1282 506 
Q 1256 506 , 1240 475 
Q 1225 444 , 1225 390 
Q 1225 337 , 1240 306 
Q 1256 275 , 1282 275 
Q 1293 275 , 1302 279 
Q 1312 283 , 1322 294 
L 1322 323 
Q 1309 310 , 1301 306 
Q 1292 303 , 1283 303 
Q 1262 303 , 1251 324 
Q 1241 346 , 1241 390 
Q 1241 436 , 1251 458 
Q 1262 480 , 1283 480 
Q 1292 480 , 1299 478 
Q 1306 475 , 1309 473 
" fill="#F5C000" />
<path d="
M 1380 554 
L 1362 555 
L 1396 555 
L 1380 554 
M 1373 554 
L 1387 554 
L 1430 555 
L 1414 555 
L 1402 555 
L 1358 555 
L 1345 555 
L 1330 555 
L 1373 554 
" fill="#339541" />
<path d="
M 1330 552 
L 1348 552 
L 1348 553 
Q 1348 553 , 1356 553 
Q 1363 553 , 1380 553 
Q 1397 553 , 1405 553 
Q 1412 553 , 1412 553 
L 1412 552 
L 1430 552 
L 1430 553 
Q 1430 553 , 1417 553 
Q 1405 553 , 1380 553 
Q 1356 553 , 1343 553 
Q 1330 553 , 1330 553 
L 1330 552 
" fill="#D21010" />
<path d="
M 1430 550 
L 1430 550 
Q 1415 550 , 1407 550 
Q 1399 550 , 1389 550 
Q 1368 550 , 1358 550 
Q 1346 550 , 1346 550 
Q 1346 551 , 1358 551 
Q 1368 551 , 1389 551 
Q 1399 551 , 1407 551 
Q 1415 551 , 1430 551 
L 1430 551 
Q 1419 551 , 1409 551 
Q 1399 551 , 1388 551 
Q 1361 551 , 1346 551 
Q 1330 551 , 1330 551 
Q 1330 550 , 1346 550 
Q 1361 550 , 1388 550 
Q 1399 550 , 1409 550 
Q 1420 550 , 1430 550 
" fill="#545FFF" />
<path d="
M 1414 549 
L 1414 549 
L 1385 549 
L 1385 549 
L 1430 549 
L 1430 549 
Q 1419 549 , 1408 549 
Q 1399 549 , 1387 549 
Q 1361 549 , 1345 549 
Q 1330 549 , 1330 549 
Q 1330 548 , 1345 548 
Q 1361 548 , 1387 548 
Q 1398 548 , 1407 548 
Q 1417 548 , 1427 548 
L 1427 548 
Q 1414 548 , 1406 548 
Q 1397 548 , 1388 548 
Q 1367 548 , 1356 548 
Q 1346 548 , 1346 549 
Q 1346 549 , 1356 549 
Q 1367 549 , 1388 549 
Q 1397 549 , 1404 549 
Q 1411 549 , 1414 549 
" fill="#F5C000" />
<path d="M 65 55 L 65 555 " stroke="black" stroke-width="1.5"/>
<path d="M 55 555 L 65 555 " stroke="black" stroke-width="4"/>
<text text-anchor="end" x="50" y="555" font-size="50" alignment-baseline="middle">0</text>
<path d="M 55 305 L 65 305 " stroke="black" stroke-width="4"/>
<text text-anchor="end" x="50" y="305" font-size="50" alignment-baseline="middle">1</text>
<path d="M 55 55 L 65 55 " stroke="black" stroke-width="4"/>
<text text-anchor="end" x="50" y="55" font-size="50" alignment-baseline="middle">2</text>
<text text-anchor="middle" x="750" y="50" font-size="50" alignment-baseline="baseline"></text>
G<path d="
M 160 582 
L 126 595 
L 160 608 
L 157 611 
L 123 598 
L 123 623 
L 117 623 
L 117 599 
L 83 611 
L 80 608 
L 114 595 
L 80 582 
L 83 579 
L 117 591 
L 117 567 
L 123 567 
L 123 591 
L 157 579 
L 160 582 
" fill="black" />
<path d="
" fill="black" />
<path d="
M 211 567 
L 238 567 
L 238 623 
L 211 623 
L 211 567 
" fill="black" />
<path d="
" fill="black" />
<path d="
" fill="black" />
<path d="
M 316 567 
L 343 567 
L 343 623 
L 316 623 
L 316 567 
" fill="black" />
<path d="
" fill="black" />
<path d="
" fill="black" />
<path d="
M 421 567 
L 448 567 
L 448 623 
L 421 623 
L 421 567 
" fill="black" />
<path d="
" fill="black" />
<path d="
" fill="black" />
<path d="
M 526 567 
L 553 567 
L 553 623 
L 526 623 
L 526 567 
" fill="black" />
<path d="
" fill="black" />
<path d="
" fill="black" />
<path d="
M 617 567 
L 633 567 
L 633 623 
L 617 623 
L 617 567 
" fill="black" />
<path d="
" fill="black" />
<path d="
M 669 593 
Q 671 594 , 672 597 
Q 673 601 , 673 606 
Q 673 614 , 671 618 
Q 669 623 , 664 623 
Q 662 623 , 661 622 
Q 659 621 , 657 619 
L 657 613 
Q 659 617 , 660 618 
Q 662 619 , 664 619 
Q 667 619 , 669 616 
Q 671 613 , 671 606 
Q 671 601 , 669 598 
Q 668 595 , 664 595 
L 661 595 
L 661 591 
L 665 591 
Q 667 591 , 669 589 
Q 670 586 , 670 582 
Q 670 577 , 669 574 
Q 667 571 , 664 571 
Q 663 571 , 661 572 
Q 660 573 , 658 575 
L 658 571 
Q 660 569 , 662 568 
Q 663 567 , 665 567 
Q 669 567 , 671 571 
Q 672 575 , 672 581 
Q 672 586 , 671 589 
Q 671 592 , 669 593 
" fill="black" />
<path d="
M 678 567 
L 691 567 
L 691 571 
L 680 571 
L 680 588 
Q 681 588 , 682 587 
Q 682 587 , 684 587 
Q 688 587 , 691 592 
Q 693 596 , 693 604 
Q 693 613 , 691 618 
Q 688 623 , 683 623 
Q 682 623 , 680 623 
Q 679 622 , 677 621 
L 677 616 
Q 679 618 , 680 618 
Q 682 619 , 683 619 
Q 687 619 , 689 615 
Q 691 611 , 691 604 
Q 691 598 , 689 594 
Q 687 591 , 683 591 
Q 683 591 , 681 591 
Q 680 592 , 678 594 
L 678 567 
" fill="black" />
<path d="
M 790 582 
L 756 595 
L 790 608 
L 787 611 
L 753 598 
L 753 623 
L 747 623 
L 747 599 
L 713 611 
L 710 608 
L 744 595 
L 710 582 
L 713 579 
L 747 591 
L 747 567 
L 753 567 
L 753 591 
L 787 579 
L 790 582 
" fill="black" />
<path d="
" fill="black" />
<path d="
M 841 567 
L 868 567 
L 868 623 
L 841 623 
L 841 567 
" fill="black" />
<path d="
" fill="black" />
<path d="
" fill="black" />
<path d="
M 946 567 
L 973 567 
L 973 623 
L 946 623 
L 946 567 
" fill="black" />
<path d="
" fill="black" />
<path d="
" fill="black" />
<path d="
M 1051 567 
L 1078 567 
L 1078 623 
L 1051 623 
L 1051 567 
" fill="black" />
<path d="
" fill="black" />
<path d="
" fill="black" />
<path d="
M 1156 567 
L 1183 567 
L 1183 623 
L 1156 623 
L 1156 567 
" fill="black" />
<path d="
" fill="black" />
<path d="
" fill="black" />
<path d="
M 1261 567 
L 1288 567 
L 1288 623 
L 1261 623 
L 1261 567 
" fill="black" />
<path d="
" fill="black" />
<path d="
M 1420 582 
L 1386 595 
L 1420 608 
L 1417 611 
L 1383 598 
L 1383 623 
L 1377 623 
L 1377 599 
L 1343 611 
L 1340 608 
L 1374 595 
L 1340 582 
L 1343 579 
L 1377 591 
L 1377 567 
L 1383 567 
L 1383 591 
L 1417 579 
L 1420 582 
" fill="black" />
</svg>
