<svg xmlns="http://www.w3.org/2000/svg"
viewBox="0 0 1435 635">
<path d="
M 70 554 
L 88 554 
L 88 554 
Q 88 555 , 96 555 
Q 103 555 , 120 555 
Q 137 555 , 145 555 
Q 152 555 , 152 554 
L 152 554 
L 170 554 
L 170 554 
Q 170 555 , 157 555 
Q 145 555 , 120 555 
Q 96 555 , 83 555 
Q 70 555 , 70 554 
L 70 554 
" fill="#D21010" />
<path d="
M 120 553 
L 102 553 
L 136 553 
L 120 553 
M 113 553 
L 127 553 
L 170 554 
L 154 554 
L 142 554 
L 98 554 
L 85 554 
L 70 554 
L 113 553 
" fill="#339541" />
<path d="
M 154 552 
L 154 552 
L 125 552 
L 125 552 
L 170 552 
L 170 552 
Q 159 552 , 148 552 
Q 139 552 , 127 552 
Q 101 552 , 85 552 
Q 70 552 , 70 552 
Q 70 551 , 85 551 
Q 101 551 , 127 551 
Q 138 551 , 147 551 
Q 157 551 , 167 551 
L 167 551 
Q 154 551 , 146 551 
Q 137 551 , 128 551 
Q 107 551 , 96 551 
Q 86 551 , 86 552 
Q 86 552 , 96 552 
Q 107 552 , 128 552 
Q 137 552 , 144 552 
Q 151 552 , 154 552 
" fill="#F5C000" />
<path d="
M 170 549 
L 170 549 
Q 155 549 , 147 549 
Q 139 549 , 129 549 
Q 108 549 , 98 549 
Q 86 549 , 86 549 
Q 86 550 , 98 550 
Q 108 550 , 129 550 
Q 139 550 , 147 550 
Q 155 550 , 170 550 
L 170 550 
Q 159 550 , 149 550 
Q 139 550 , 128 550 
Q 101 550 , 86 550 
Q 70 550 , 70 550 
Q 70 549 , 86 549 
Q 101 549 , 128 549 
Q 139 549 , 149 549 
Q 160 549 , 170 549 
" fill="#545FFF" />
<path d="
M 175 552 
L 193 552 
L 193 553 
Q 193 554 , 201 554 
Q 208 554 , 225 554 
Q 242 554 , 250 554 
Q 257 554 , 257 553 
L 257 552 
L 275 552 
L 275 553 
Q 275 554 , 262 554 
Q 250 554 , 225 554 
Q 201 554 , 188 554 
Q 175 554 , 175 553 
L 175 552 
" fill="#D21010" />
<path d="
M 225 543 
L 207 547 
L 241 547 
L 225 543 
M 218 541 
L 232 541 
L 275 552 
L 259 552 
L 247 548 
L 203 548 
L 190 552 
L 175 552 
L 218 541 
" fill="#339541" />
<path d="
M 259 535 
L 259 527 
L 230 527 
L 230 523 
L 275 523 
L 275 538 
Q 264 539 , 253 540 
Q 244 540 , 232 540 
Q 206 540 , 190 536 
Q 175 532 , 175 524 
Q 175 517 , 190 512 
Q 206 508 , 232 508 
Q 243 508 , 252 509 
Q 262 509 , 272 511 
L 272 515 
Q 259 513 , 251 512 
Q 242 512 , 233 512 
Q 212 512 , 201 515 
Q 191 518 , 191 524 
Q 191 530 , 201 533 
Q 212 537 , 233 537 
Q 242 537 , 249 536 
Q 256 536 , 259 535 
" fill="#F5C000" />
<path d="
M 275 474 
L 275 480 
Q 260 476 , 252 475 
Q 244 474 , 234 474 
Q 213 474 , 203 478 
Q 191 481 , 191 488 
Q 191 496 , 203 499 
Q 213 503 , 234 503 
Q 244 503 , 252 502 
Q 260 501 , 275 497 
L 275 503 
Q 264 505 , 254 506 
Q 244 507 , 233 507 
Q 206 507 , 191 502 
Q 175 497 , 175 489 
Q 175 480 , 191 475 
Q 206 470 , 233 470 
Q 244 470 , 254 471 
Q 265 472 , 275 474 
" fill="#545FFF" />
<path d="
M 364 554 
L 364 553 
L 335 553 
L 335 553 
L 380 553 
L 380 554 
Q 369 554 , 358 554 
Q 349 554 , 337 554 
Q 311 554 , 295 554 
Q 280 553 , 280 553 
Q 280 552 , 295 551 
Q 311 551 , 337 551 
Q 348 551 , 357 551 
Q 367 551 , 377 551 
L 377 552 
Q 364 552 , 356 551 
Q 347 551 , 338 551 
Q 317 551 , 306 552 
Q 296 552 , 296 553 
Q 296 553 , 306 554 
Q 317 554 , 338 554 
Q 347 554 , 354 554 
Q 361 554 , 364 554 
" fill="#F5C000" />
<path d="
M 280 542 
L 298 542 
L 298 547 
Q 298 548 , 306 549 
Q 313 549 , 330 549 
Q 347 549 , 355 549 
Q 362 548 , 362 547 
L 362 542 
L 380 542 
L 380 547 
Q 380 549 , 367 550 
Q 355 550 , 330 550 
Q 306 550 , 293 550 
Q 280 549 , 280 547 
L 280 542 
" fill="#D21010" />
<path d="
M 330 530 
L 312 536 
L 346 536 
L 330 530 
M 323 527 
L 337 527 
L 380 542 
L 364 542 
L 352 537 
L 308 537 
L 295 542 
L 280 542 
L 323 527 
" fill="#339541" />
<path d="
M 380 508 
L 380 511 
Q 365 509 , 357 509 
Q 349 508 , 339 508 
Q 318 508 , 308 510 
Q 296 512 , 296 516 
Q 296 520 , 308 522 
Q 318 524 , 339 524 
Q 349 524 , 357 524 
Q 365 523 , 380 521 
L 380 525 
Q 369 526 , 359 526 
Q 349 527 , 338 527 
Q 311 527 , 296 524 
Q 280 521 , 280 516 
Q 280 512 , 296 509 
Q 311 506 , 338 506 
Q 349 506 , 359 507 
Q 370 507 , 380 508 
" fill="#545FFF" />
<path d="
M 385 553 
L 394 553 
L 394 554 
Q 394 554 , 398 555 
Q 401 555 , 410 555 
Q 419 555 , 422 555 
Q 426 554 , 426 554 
L 426 553 
L 435 553 
L 435 554 
Q 435 554 , 429 555 
Q 422 555 , 410 555 
Q 398 555 , 391 555 
Q 385 554 , 385 554 
L 385 553 
" fill="#D21010" />
<path d="
M 477 555 
L 477 554 
L 463 554 
L 463 554 
L 485 554 
L 485 555 
Q 480 555 , 474 555 
Q 469 555 , 463 555 
Q 450 555 , 443 555 
Q 435 554 , 435 554 
Q 435 553 , 443 553 
Q 450 553 , 463 553 
Q 469 553 , 474 553 
Q 479 553 , 484 553 
L 484 553 
Q 477 553 , 473 553 
Q 469 553 , 464 553 
Q 454 553 , 448 553 
Q 443 554 , 443 554 
Q 443 554 , 448 554 
Q 454 555 , 464 555 
Q 469 555 , 472 555 
Q 476 555 , 477 555 
" fill="lightgray" />
<path d="
M 427 552 
L 427 551 
L 413 551 
L 413 550 
L 435 550 
L 435 552 
Q 430 552 , 424 552 
Q 419 552 , 413 552 
Q 400 552 , 393 552 
Q 385 551 , 385 551 
Q 385 550 , 393 549 
Q 400 549 , 413 549 
Q 419 549 , 424 549 
Q 429 549 , 434 549 
L 434 550 
Q 427 549 , 423 549 
Q 419 549 , 414 549 
Q 404 549 , 398 550 
Q 393 550 , 393 551 
Q 393 551 , 398 551 
Q 404 552 , 414 552 
Q 419 552 , 422 552 
Q 426 552 , 427 552 
" fill="#F5C000" />
<path d="
M 435 549 
L 444 549 
L 444 551 
Q 444 551 , 448 551 
Q 451 552 , 460 552 
Q 469 552 , 472 551 
Q 476 551 , 476 551 
L 476 549 
L 485 549 
L 485 551 
Q 485 551 , 479 552 
Q 472 552 , 460 552 
Q 448 552 , 441 552 
Q 435 551 , 435 551 
L 435 549 
" fill="lightgray" />
<path d="
M 410 546 
L 401 547 
L 418 547 
L 410 546 
M 406 545 
L 414 545 
L 435 549 
L 427 549 
L 421 548 
L 399 548 
L 392 549 
L 385 549 
L 406 545 
" fill="#339541" />
<path d="
M 435 545 
L 444 545 
L 444 547 
Q 444 548 , 448 548 
Q 451 548 , 460 548 
Q 469 548 , 472 548 
Q 476 548 , 476 547 
L 476 545 
L 485 545 
L 485 547 
Q 485 548 , 479 548 
Q 472 549 , 460 549 
Q 448 549 , 441 548 
Q 435 548 , 435 547 
L 435 545 
" fill="lightgray" />
<path d="
M 385 540 
L 394 540 
L 394 542 
Q 394 543 , 398 543 
Q 401 544 , 410 544 
Q 419 544 , 422 543 
Q 426 543 , 426 542 
L 426 540 
L 435 540 
L 435 542 
Q 435 543 , 429 544 
Q 422 544 , 410 544 
Q 398 544 , 391 544 
Q 385 543 , 385 542 
L 385 540 
" fill="#D21010" />
<path d="
M 460 541 
L 451 542 
L 468 542 
L 460 541 
M 456 540 
L 464 540 
L 485 544 
L 477 544 
L 471 543 
L 449 543 
L 442 544 
L 435 544 
L 456 540 
" fill="lightgray" />
<path d="
M 427 524 
L 427 496 
L 413 496 
L 413 484 
L 435 484 
L 435 531 
Q 430 536 , 424 538 
Q 419 539 , 413 540 
Q 400 540 , 393 525 
Q 385 511 , 385 487 
Q 385 462 , 393 448 
Q 400 434 , 413 434 
Q 419 434 , 424 436 
Q 429 438 , 434 443 
L 434 456 
Q 427 450 , 423 448 
Q 419 447 , 414 447 
Q 404 447 , 398 456 
Q 393 466 , 393 487 
Q 393 508 , 398 518 
Q 404 528 , 414 528 
Q 419 528 , 422 527 
Q 426 526 , 427 524 
" fill="#F5C000" />
<path d="
M 485 445 
L 485 461 
Q 478 451 , 474 448 
Q 469 446 , 464 446 
Q 454 446 , 449 456 
Q 443 466 , 443 486 
Q 443 507 , 449 518 
Q 454 528 , 464 528 
Q 469 528 , 474 525 
Q 478 523 , 485 512 
L 485 529 
Q 480 535 , 474 537 
Q 470 540 , 464 540 
Q 450 540 , 443 525 
Q 435 511 , 435 487 
Q 435 463 , 443 448 
Q 450 434 , 464 434 
Q 470 434 , 475 437 
Q 480 439 , 485 445 
" fill="lightgray" />
<path d="
M 435 324 
L 435 343 
Q 428 331 , 424 328 
Q 419 325 , 414 325 
Q 404 325 , 399 337 
Q 393 349 , 393 372 
Q 393 396 , 399 409 
Q 404 421 , 414 421 
Q 419 421 , 424 418 
Q 428 414 , 435 402 
L 435 421 
Q 430 428 , 424 431 
Q 420 434 , 414 434 
Q 400 434 , 393 417 
Q 385 401 , 385 373 
Q 385 344 , 393 328 
Q 400 311 , 414 311 
Q 420 311 , 425 314 
Q 430 317 , 435 324 
" fill="#545FFF" />
<path d="
M 477 416 
L 477 383 
L 463 383 
L 463 370 
L 485 370 
L 485 425 
Q 480 430 , 474 432 
Q 469 434 , 463 434 
Q 450 434 , 443 417 
Q 435 401 , 435 373 
Q 435 344 , 443 327 
Q 450 311 , 463 311 
Q 469 311 , 474 313 
Q 479 315 , 484 321 
L 484 337 
Q 477 330 , 473 328 
Q 469 326 , 464 326 
Q 454 326 , 448 337 
Q 443 349 , 443 373 
Q 443 397 , 448 409 
Q 454 420 , 464 420 
Q 469 420 , 472 419 
Q 476 418 , 477 416 
" fill="lightgray" />
<path d="
M 490 553 
L 499 553 
L 499 554 
Q 499 554 , 503 554 
Q 506 554 , 515 554 
Q 524 554 , 527 554 
Q 531 554 , 531 554 
L 531 553 
L 540 553 
L 540 554 
Q 540 554 , 534 554 
Q 527 554 , 515 554 
Q 503 554 , 496 554 
Q 490 554 , 490 554 
L 490 553 
" fill="#D21010" />
<path d="
M 582 554 
L 582 554 
L 568 554 
L 568 554 
L 590 554 
L 590 554 
Q 585 554 , 579 554 
Q 574 554 , 568 554 
Q 555 554 , 548 554 
Q 540 554 , 540 554 
Q 540 553 , 548 553 
Q 555 553 , 568 553 
Q 574 553 , 579 553 
Q 584 553 , 589 553 
L 589 553 
Q 582 553 , 578 553 
Q 574 553 , 569 553 
Q 559 553 , 553 553 
Q 548 553 , 548 554 
Q 548 554 , 553 554 
Q 559 554 , 569 554 
Q 574 554 , 577 554 
Q 581 554 , 582 554 
" fill="lightgray" />
<path d="
M 490 550 
L 499 550 
L 499 551 
Q 499 552 , 503 552 
Q 506 552 , 515 552 
Q 524 552 , 527 552 
Q 531 552 , 531 551 
L 531 550 
L 540 550 
L 540 551 
Q 540 552 , 534 552 
Q 527 552 , 515 552 
Q 503 552 , 496 552 
Q 490 552 , 490 551 
L 490 550 
" fill="#D21010" />
<path d="
M 565 550 
L 556 551 
L 573 551 
L 565 550 
M 561 550 
L 569 550 
L 590 552 
L 582 552 
L 576 551 
L 554 551 
L 547 552 
L 540 552 
L 561 550 
" fill="lightgray" />
<path d="
M 515 539 
L 506 544 
L 523 544 
L 515 539 
M 511 536 
L 519 536 
L 540 550 
L 532 550 
L 526 546 
L 504 546 
L 497 550 
L 490 550 
L 511 536 
" fill="#339541" />
<path d="
M 540 536 
L 549 536 
L 549 544 
Q 549 547 , 553 547 
Q 556 548 , 565 548 
Q 574 548 , 577 547 
Q 581 547 , 581 544 
L 581 536 
L 590 536 
L 590 544 
Q 590 547 , 584 549 
Q 577 550 , 565 550 
Q 553 550 , 546 549 
Q 540 547 , 540 544 
L 540 536 
" fill="lightgray" />
<path d="
M 532 534 
L 532 530 
L 518 530 
L 518 528 
L 540 528 
L 540 535 
Q 535 535 , 529 536 
Q 524 536 , 518 536 
Q 505 536 , 498 534 
Q 490 532 , 490 528 
Q 490 525 , 498 523 
Q 505 521 , 518 521 
Q 524 521 , 529 521 
Q 534 522 , 539 522 
L 539 524 
Q 532 523 , 528 523 
Q 524 523 , 519 523 
Q 509 523 , 503 524 
Q 498 526 , 498 528 
Q 498 531 , 503 533 
Q 509 534 , 519 534 
Q 524 534 , 527 534 
Q 531 534 , 532 534 
" fill="#F5C000" />
<path d="
M 540 521 
L 549 521 
L 549 530 
Q 549 532 , 553 533 
Q 556 534 , 565 534 
Q 574 534 , 577 533 
Q 581 532 , 581 530 
L 581 521 
L 590 521 
L 590 530 
Q 590 533 , 584 534 
Q 577 536 , 565 536 
Q 553 536 , 546 534 
Q 540 533 , 540 530 
L 540 521 
" fill="lightgray" />
<path d="
M 532 515 
L 532 505 
L 518 505 
L 518 501 
L 540 501 
L 540 518 
Q 535 519 , 529 520 
Q 524 521 , 518 521 
Q 505 521 , 498 515 
Q 490 510 , 490 501 
Q 490 492 , 498 487 
Q 505 482 , 518 482 
Q 524 482 , 529 483 
Q 534 483 , 539 485 
L 539 490 
Q 532 488 , 528 487 
Q 524 487 , 519 487 
Q 509 487 , 503 490 
Q 498 494 , 498 501 
Q 498 509 , 503 513 
Q 509 516 , 519 516 
Q 524 516 , 527 516 
Q 531 516 , 532 515 
" fill="#F5C000" />
<path d="
M 590 486 
L 590 492 
Q 583 488 , 579 487 
Q 574 486 , 569 486 
Q 559 486 , 554 490 
Q 548 494 , 548 501 
Q 548 509 , 554 513 
Q 559 517 , 569 517 
Q 574 517 , 579 516 
Q 583 514 , 590 511 
L 590 517 
Q 585 519 , 579 520 
Q 575 521 , 569 521 
Q 555 521 , 548 515 
Q 540 510 , 540 501 
Q 540 492 , 548 487 
Q 555 482 , 569 482 
Q 575 482 , 580 483 
Q 585 484 , 590 486 
" fill="lightgray" />
<path d="
M 540 442 
L 540 449 
Q 533 444 , 529 443 
Q 524 442 , 519 442 
Q 509 442 , 504 446 
Q 498 451 , 498 459 
Q 498 468 , 504 473 
Q 509 477 , 519 477 
Q 524 477 , 529 476 
Q 533 475 , 540 470 
L 540 477 
Q 535 480 , 529 481 
Q 525 482 , 519 482 
Q 505 482 , 498 476 
Q 490 470 , 490 460 
Q 490 449 , 498 443 
Q 505 437 , 519 437 
Q 525 437 , 530 438 
Q 535 439 , 540 442 
" fill="#545FFF" />
<path d="
M 582 476 
L 582 463 
L 568 463 
L 568 459 
L 590 459 
L 590 479 
Q 585 480 , 579 481 
Q 574 482 , 568 482 
Q 555 482 , 548 476 
Q 540 470 , 540 460 
Q 540 449 , 548 443 
Q 555 437 , 568 437 
Q 574 437 , 579 438 
Q 584 439 , 589 441 
L 589 446 
Q 582 444 , 578 443 
Q 574 442 , 569 442 
Q 559 442 , 553 447 
Q 548 451 , 548 460 
Q 548 468 , 553 473 
Q 559 477 , 569 477 
Q 574 477 , 577 477 
Q 581 476 , 582 476 
" fill="lightgray" />
<path d="
M 645 553 
L 627 554 
L 661 554 
L 645 553 
M 638 553 
L 652 553 
L 695 555 
L 679 555 
L 667 554 
L 623 554 
L 610 555 
L 595 555 
L 638 553 
" fill="#339541" />
<path d="
M 679 552 
L 679 551 
L 650 551 
L 650 550 
L 695 550 
L 695 552 
Q 684 552 , 673 552 
Q 664 552 , 652 552 
Q 626 552 , 610 552 
Q 595 551 , 595 551 
Q 595 550 , 610 549 
Q 626 549 , 652 549 
Q 663 549 , 672 549 
Q 682 549 , 692 549 
L 692 550 
Q 679 549 , 671 549 
Q 662 549 , 653 549 
Q 632 549 , 621 550 
Q 611 550 , 611 551 
Q 611 551 , 621 551 
Q 632 552 , 653 552 
Q 662 552 , 669 552 
Q 676 552 , 679 552 
" fill="#F5C000" />
<path d="
M 695 544 
L 695 545 
Q 680 545 , 672 545 
Q 664 544 , 654 544 
Q 633 544 , 623 545 
Q 611 545 , 611 546 
Q 611 547 , 623 547 
Q 633 548 , 654 548 
Q 664 548 , 672 548 
Q 680 547 , 695 547 
L 695 548 
Q 684 548 , 674 548 
Q 664 548 , 653 548 
Q 626 548 , 611 548 
Q 595 547 , 595 546 
Q 595 545 , 611 545 
Q 626 544 , 653 544 
Q 664 544 , 674 544 
Q 685 544 , 695 544 
" fill="#545FFF" />
<path d="
M 595 539 
L 613 539 
L 613 541 
Q 613 542 , 621 542 
Q 628 543 , 645 543 
Q 662 543 , 670 542 
Q 677 542 , 677 541 
L 677 539 
L 695 539 
L 695 541 
Q 695 542 , 682 543 
Q 670 543 , 645 543 
Q 621 543 , 608 543 
Q 595 542 , 595 541 
L 595 539 
" fill="#D21010" />
<path d="
M 700 554 
L 718 554 
L 718 554 
Q 718 555 , 726 555 
Q 733 555 , 750 555 
Q 767 555 , 775 555 
Q 782 555 , 782 554 
L 782 554 
L 800 554 
L 800 554 
Q 800 555 , 787 555 
Q 775 555 , 750 555 
Q 726 555 , 713 555 
Q 700 555 , 700 554 
L 700 554 
" fill="#D21010" />
<path d="
M 750 553 
L 732 553 
L 766 553 
L 750 553 
M 743 553 
L 757 553 
L 800 554 
L 784 554 
L 772 554 
L 728 554 
L 715 554 
L 700 554 
L 743 553 
" fill="#339541" />
<path d="
M 784 552 
L 784 552 
L 755 552 
L 755 552 
L 800 552 
L 800 552 
Q 789 552 , 778 552 
Q 769 552 , 757 552 
Q 731 552 , 715 552 
Q 700 552 , 700 552 
Q 700 551 , 715 551 
Q 731 551 , 757 551 
Q 768 551 , 777 551 
Q 787 551 , 797 551 
L 797 551 
Q 784 551 , 776 551 
Q 767 551 , 758 551 
Q 737 551 , 726 551 
Q 716 551 , 716 552 
Q 716 552 , 726 552 
Q 737 552 , 758 552 
Q 767 552 , 774 552 
Q 781 552 , 784 552 
" fill="#F5C000" />
<path d="
M 800 549 
L 800 549 
Q 785 549 , 777 549 
Q 769 549 , 759 549 
Q 738 549 , 728 549 
Q 716 549 , 716 549 
Q 716 550 , 728 550 
Q 738 550 , 759 550 
Q 769 550 , 777 550 
Q 785 550 , 800 550 
L 800 550 
Q 789 550 , 779 550 
Q 769 550 , 758 550 
Q 731 550 , 716 550 
Q 700 550 , 700 550 
Q 700 549 , 716 549 
Q 731 549 , 758 549 
Q 769 549 , 779 549 
Q 790 549 , 800 549 
" fill="#545FFF" />
<path d="
M 855 550 
L 837 552 
L 871 552 
L 855 550 
M 848 549 
L 862 549 
L 905 554 
L 889 554 
L 877 553 
L 833 553 
L 820 554 
L 805 554 
L 848 549 
" fill="#339541" />
<path d="
M 805 541 
L 823 541 
L 823 546 
Q 823 547 , 831 547 
Q 838 548 , 855 548 
Q 872 548 , 880 547 
Q 887 547 , 887 546 
L 887 541 
L 905 541 
L 905 546 
Q 905 547 , 892 548 
Q 880 549 , 855 549 
Q 831 549 , 818 548 
Q 805 547 , 805 546 
L 805 541 
" fill="#D21010" />
<path d="
M 889 537 
L 889 532 
L 860 532 
L 860 530 
L 905 530 
L 905 539 
Q 894 540 , 883 540 
Q 874 540 , 862 540 
Q 836 540 , 820 538 
Q 805 535 , 805 530 
Q 805 525 , 820 523 
Q 836 520 , 862 520 
Q 873 520 , 882 520 
Q 892 521 , 902 522 
L 902 524 
Q 889 523 , 881 523 
Q 872 522 , 863 522 
Q 842 522 , 831 524 
Q 821 526 , 821 530 
Q 821 534 , 831 536 
Q 842 538 , 863 538 
Q 872 538 , 879 538 
Q 886 538 , 889 537 
" fill="#F5C000" />
<path d="
M 905 489 
L 905 494 
Q 890 491 , 882 490 
Q 874 489 , 864 489 
Q 843 489 , 833 492 
Q 821 496 , 821 502 
Q 821 509 , 833 513 
Q 843 516 , 864 516 
Q 874 516 , 882 515 
Q 890 514 , 905 511 
L 905 516 
Q 894 518 , 884 519 
Q 874 520 , 863 520 
Q 836 520 , 821 515 
Q 805 510 , 805 502 
Q 805 494 , 821 490 
Q 836 485 , 863 485 
Q 874 485 , 884 486 
Q 895 487 , 905 489 
" fill="#545FFF" />
<path d="
M 910 551 
L 928 551 
L 928 553 
Q 928 554 , 936 554 
Q 943 555 , 960 555 
Q 977 555 , 985 554 
Q 992 554 , 992 553 
L 992 551 
L 1010 551 
L 1010 553 
Q 1010 554 , 997 555 
Q 985 555 , 960 555 
Q 936 555 , 923 555 
Q 910 554 , 910 553 
L 910 551 
" fill="#D21010" />
<path d="
M 960 546 
L 942 548 
L 976 548 
L 960 546 
M 953 545 
L 967 545 
L 1010 550 
L 994 550 
L 982 549 
L 938 549 
L 925 550 
L 910 550 
L 953 545 
" fill="#339541" />
<path d="
M 1010 501 
L 1010 509 
Q 995 504 , 987 503 
Q 979 501 , 969 501 
Q 948 501 , 938 506 
Q 926 511 , 926 520 
Q 926 530 , 938 535 
Q 948 540 , 969 540 
Q 979 540 , 987 538 
Q 995 537 , 1010 532 
L 1010 540 
Q 999 543 , 989 544 
Q 979 545 , 968 545 
Q 941 545 , 926 538 
Q 910 532 , 910 520 
Q 910 509 , 926 503 
Q 941 496 , 968 496 
Q 979 496 , 989 497 
Q 1000 498 , 1010 501 
" fill="#545FFF" />
<path d="
M 994 487 
L 994 472 
L 965 472 
L 965 465 
L 1010 465 
L 1010 491 
Q 999 494 , 988 495 
Q 979 496 , 967 496 
Q 941 496 , 925 488 
Q 910 480 , 910 466 
Q 910 453 , 925 445 
Q 941 437 , 967 437 
Q 978 437 , 987 438 
Q 997 439 , 1007 442 
L 1007 449 
Q 994 446 , 986 445 
Q 977 444 , 968 444 
Q 947 444 , 936 450 
Q 926 455 , 926 466 
Q 926 478 , 936 484 
Q 947 489 , 968 489 
Q 977 489 , 984 489 
Q 991 488 , 994 487 
" fill="#F5C000" />
<path d="
M 1015 552 
L 1033 552 
L 1033 554 
Q 1033 554 , 1041 554 
Q 1048 554 , 1065 554 
Q 1082 554 , 1090 554 
Q 1097 554 , 1097 554 
L 1097 552 
L 1115 552 
L 1115 554 
Q 1115 554 , 1102 554 
Q 1090 555 , 1065 555 
Q 1041 555 , 1028 554 
Q 1015 554 , 1015 554 
L 1015 552 
" fill="#D21010" />
<path d="
M 1115 546 
L 1115 547 
Q 1100 546 , 1092 546 
Q 1084 546 , 1074 546 
Q 1053 546 , 1043 546 
Q 1031 547 , 1031 548 
Q 1031 550 , 1043 550 
Q 1053 551 , 1074 551 
Q 1084 551 , 1092 551 
Q 1100 551 , 1115 550 
L 1115 551 
Q 1104 552 , 1094 552 
Q 1084 552 , 1073 552 
Q 1046 552 , 1031 551 
Q 1015 550 , 1015 548 
Q 1015 547 , 1031 546 
Q 1046 545 , 1073 545 
Q 1084 545 , 1094 545 
Q 1105 545 , 1115 546 
" fill="#545FFF" />
<path d="
M 1099 543 
L 1099 540 
L 1070 540 
L 1070 539 
L 1115 539 
L 1115 544 
Q 1104 544 , 1093 545 
Q 1084 545 , 1072 545 
Q 1046 545 , 1030 543 
Q 1015 542 , 1015 539 
Q 1015 537 , 1030 535 
Q 1046 534 , 1072 534 
Q 1083 534 , 1092 534 
Q 1102 534 , 1112 535 
L 1112 536 
Q 1099 536 , 1091 535 
Q 1082 535 , 1073 535 
Q 1052 535 , 1041 536 
Q 1031 537 , 1031 539 
Q 1031 541 , 1041 543 
Q 1052 544 , 1073 544 
Q 1082 544 , 1089 543 
Q 1096 543 , 1099 543 
" fill="#F5C000" />
<path d="
M 1065 523 
L 1047 528 
L 1081 528 
L 1065 523 
M 1058 521 
L 1072 521 
L 1115 533 
L 1099 533 
L 1087 530 
L 1043 530 
L 1030 533 
L 1015 533 
L 1058 521 
" fill="#339541" />
<path d="
M 1120 553 
L 1129 553 
L 1129 554 
Q 1129 554 , 1133 554 
Q 1136 554 , 1145 554 
Q 1154 554 , 1157 554 
Q 1161 554 , 1161 554 
L 1161 553 
L 1170 553 
L 1170 554 
Q 1170 554 , 1164 554 
Q 1157 554 , 1145 554 
Q 1133 554 , 1126 554 
Q 1120 554 , 1120 554 
L 1120 553 
" fill="lightgray" />
<path d="
M 1212 554 
L 1212 554 
L 1198 554 
L 1198 554 
L 1220 554 
L 1220 554 
Q 1215 554 , 1209 554 
Q 1204 554 , 1198 554 
Q 1185 554 , 1178 554 
Q 1170 554 , 1170 554 
Q 1170 553 , 1178 553 
Q 1185 553 , 1198 553 
Q 1204 553 , 1209 553 
Q 1214 553 , 1219 553 
L 1219 553 
Q 1212 553 , 1208 553 
Q 1204 553 , 1199 553 
Q 1189 553 , 1183 553 
Q 1178 553 , 1178 554 
Q 1178 554 , 1183 554 
Q 1189 554 , 1199 554 
Q 1204 554 , 1207 554 
Q 1211 554 , 1212 554 
" fill="#F5C000" />
<path d="
M 1120 550 
L 1129 550 
L 1129 551 
Q 1129 552 , 1133 552 
Q 1136 552 , 1145 552 
Q 1154 552 , 1157 552 
Q 1161 552 , 1161 551 
L 1161 550 
L 1170 550 
L 1170 551 
Q 1170 552 , 1164 552 
Q 1157 552 , 1145 552 
Q 1133 552 , 1126 552 
Q 1120 552 , 1120 551 
L 1120 550 
" fill="lightgray" />
<path d="
M 1195 550 
L 1186 551 
L 1203 551 
L 1195 550 
M 1191 550 
L 1199 550 
L 1220 552 
L 1212 552 
L 1206 551 
L 1184 551 
L 1177 552 
L 1170 552 
L 1191 550 
" fill="#339541" />
<path d="
M 1145 539 
L 1136 544 
L 1153 544 
L 1145 539 
M 1141 536 
L 1149 536 
L 1170 550 
L 1162 550 
L 1156 546 
L 1134 546 
L 1127 550 
L 1120 550 
L 1141 536 
" fill="lightgray" />
<path d="
M 1170 536 
L 1179 536 
L 1179 544 
Q 1179 547 , 1183 547 
Q 1186 548 , 1195 548 
Q 1204 548 , 1207 547 
Q 1211 547 , 1211 544 
L 1211 536 
L 1220 536 
L 1220 544 
Q 1220 547 , 1214 549 
Q 1207 550 , 1195 550 
Q 1183 550 , 1176 549 
Q 1170 547 , 1170 544 
L 1170 536 
" fill="#D21010" />
<path d="
M 1162 534 
L 1162 530 
L 1148 530 
L 1148 528 
L 1170 528 
L 1170 535 
Q 1165 535 , 1159 536 
Q 1154 536 , 1148 536 
Q 1135 536 , 1128 534 
Q 1120 532 , 1120 528 
Q 1120 525 , 1128 523 
Q 1135 521 , 1148 521 
Q 1154 521 , 1159 521 
Q 1164 522 , 1169 522 
L 1169 524 
Q 1162 523 , 1158 523 
Q 1154 523 , 1149 523 
Q 1139 523 , 1133 524 
Q 1128 526 , 1128 528 
Q 1128 531 , 1133 533 
Q 1139 534 , 1149 534 
Q 1154 534 , 1157 534 
Q 1161 534 , 1162 534 
" fill="lightgray" />
<path d="
M 1170 521 
L 1179 521 
L 1179 530 
Q 1179 532 , 1183 533 
Q 1186 534 , 1195 534 
Q 1204 534 , 1207 533 
Q 1211 532 , 1211 530 
L 1211 521 
L 1220 521 
L 1220 530 
Q 1220 533 , 1214 534 
Q 1207 536 , 1195 536 
Q 1183 536 , 1176 534 
Q 1170 533 , 1170 530 
L 1170 521 
" fill="#D21010" />
<path d="
M 1162 515 
L 1162 505 
L 1148 505 
L 1148 501 
L 1170 501 
L 1170 518 
Q 1165 519 , 1159 520 
Q 1154 521 , 1148 521 
Q 1135 521 , 1128 515 
Q 1120 510 , 1120 501 
Q 1120 492 , 1128 487 
Q 1135 482 , 1148 482 
Q 1154 482 , 1159 483 
Q 1164 483 , 1169 485 
L 1169 490 
Q 1162 488 , 1158 487 
Q 1154 487 , 1149 487 
Q 1139 487 , 1133 490 
Q 1128 494 , 1128 501 
Q 1128 509 , 1133 513 
Q 1139 516 , 1149 516 
Q 1154 516 , 1157 516 
Q 1161 516 , 1162 515 
" fill="lightgray" />
<path d="
M 1220 486 
L 1220 492 
Q 1213 488 , 1209 487 
Q 1204 486 , 1199 486 
Q 1189 486 , 1184 490 
Q 1178 494 , 1178 501 
Q 1178 509 , 1184 513 
Q 1189 517 , 1199 517 
Q 1204 517 , 1209 516 
Q 1213 514 , 1220 511 
L 1220 517 
Q 1215 519 , 1209 520 
Q 1205 521 , 1199 521 
Q 1185 521 , 1178 515 
Q 1170 510 , 1170 501 
Q 1170 492 , 1178 487 
Q 1185 482 , 1199 482 
Q 1205 482 , 1210 483 
Q 1215 484 , 1220 486 
" fill="#545FFF" />
<path d="
M 1170 442 
L 1170 449 
Q 1163 444 , 1159 443 
Q 1154 442 , 1149 442 
Q 1139 442 , 1134 446 
Q 1128 451 , 1128 459 
Q 1128 468 , 1134 473 
Q 1139 477 , 1149 477 
Q 1154 477 , 1159 476 
Q 1163 475 , 1170 470 
L 1170 477 
Q 1165 480 , 1159 481 
Q 1155 482 , 1149 482 
Q 1135 482 , 1128 476 
Q 1120 470 , 1120 460 
Q 1120 449 , 1128 443 
Q 1135 437 , 1149 437 
Q 1155 437 , 1160 438 
Q 1165 439 , 1170 442 
" fill="lightgray" />
<path d="
M 1212 476 
L 1212 463 
L 1198 463 
L 1198 459 
L 1220 459 
L 1220 479 
Q 1215 480 , 1209 481 
Q 1204 482 , 1198 482 
Q 1185 482 , 1178 476 
Q 1170 470 , 1170 460 
Q 1170 449 , 1178 443 
Q 1185 437 , 1198 437 
Q 1204 437 , 1209 438 
Q 1214 439 , 1219 441 
L 1219 446 
Q 1212 444 , 1208 443 
Q 1204 442 , 1199 442 
Q 1189 442 , 1183 447 
Q 1178 451 , 1178 460 
Q 1178 468 , 1183 473 
Q 1189 477 , 1199 477 
Q 1204 477 , 1207 477 
Q 1211 476 , 1212 476 
" fill="#F5C000" />
<path d="
M 1225 553 
L 1234 553 
L 1234 554 
Q 1234 554 , 1238 555 
Q 1241 555 , 1250 555 
Q 1259 555 , 1262 555 
Q 1266 554 , 1266 554 
L 1266 553 
L 1275 553 
L 1275 554 
Q 1275 554 , 1269 555 
Q 1262 555 , 1250 555 
Q 1238 555 , 1231 555 
Q 1225 554 , 1225 554 
L 1225 553 
" fill="lightgray" />
<path d="
M 1317 555 
L 1317 554 
L 1303 554 
L 1303 554 
L 1325 554 
L 1325 555 
Q 1320 555 , 1314 555 
Q 1309 555 , 1303 555 
Q 1290 555 , 1283 555 
Q 1275 554 , 1275 554 
Q 1275 553 , 1283 553 
Q 1290 553 , 1303 553 
Q 1309 553 , 1314 553 
Q 1319 553 , 1324 553 
L 1324 553 
Q 1317 553 , 1313 553 
Q 1309 553 , 1304 553 
Q 1294 553 , 1288 553 
Q 1283 554 , 1283 554 
Q 1283 554 , 1288 554 
Q 1294 555 , 1304 555 
Q 1309 555 , 1312 555 
Q 1316 555 , 1317 555 
" fill="#F5C000" />
<path d="
M 1267 552 
L 1267 551 
L 1253 551 
L 1253 550 
L 1275 550 
L 1275 552 
Q 1270 552 , 1264 552 
Q 1259 552 , 1253 552 
Q 1240 552 , 1233 552 
Q 1225 551 , 1225 551 
Q 1225 550 , 1233 549 
Q 1240 549 , 1253 549 
Q 1259 549 , 1264 549 
Q 1269 549 , 1274 549 
L 1274 550 
Q 1267 549 , 1263 549 
Q 1259 549 , 1254 549 
Q 1244 549 , 1238 550 
Q 1233 550 , 1233 551 
Q 1233 551 , 1238 551 
Q 1244 552 , 1254 552 
Q 1259 552 , 1262 552 
Q 1266 552 , 1267 552 
" fill="lightgray" />
<path d="
M 1275 549 
L 1284 549 
L 1284 551 
Q 1284 551 , 1288 551 
Q 1291 552 , 1300 552 
Q 1309 552 , 1312 551 
Q 1316 551 , 1316 551 
L 1316 549 
L 1325 549 
L 1325 551 
Q 1325 551 , 1319 552 
Q 1312 552 , 1300 552 
Q 1288 552 , 1281 552 
Q 1275 551 , 1275 551 
L 1275 549 
" fill="#D21010" />
<path d="
M 1250 546 
L 1241 547 
L 1258 547 
L 1250 546 
M 1246 545 
L 1254 545 
L 1275 549 
L 1267 549 
L 1261 548 
L 1239 548 
L 1232 549 
L 1225 549 
L 1246 545 
" fill="lightgray" />
<path d="
M 1275 545 
L 1284 545 
L 1284 547 
Q 1284 548 , 1288 548 
Q 1291 548 , 1300 548 
Q 1309 548 , 1312 548 
Q 1316 548 , 1316 547 
L 1316 545 
L 1325 545 
L 1325 547 
Q 1325 548 , 1319 548 
Q 1312 549 , 1300 549 
Q 1288 549 , 1281 548 
Q 1275 548 , 1275 547 
L 1275 545 
" fill="#D21010" />
<path d="
M 1225 540 
L 1234 540 
L 1234 542 
Q 1234 543 , 1238 543 
Q 1241 544 , 1250 544 
Q 1259 544 , 1262 543 
Q 1266 543 , 1266 542 
L 1266 540 
L 1275 540 
L 1275 542 
Q 1275 543 , 1269 544 
Q 1262 544 , 1250 544 
Q 1238 544 , 1231 544 
Q 1225 543 , 1225 542 
L 1225 540 
" fill="lightgray" />
<path d="
M 1300 541 
L 1291 542 
L 1308 542 
L 1300 541 
M 1296 540 
L 1304 540 
L 1325 544 
L 1317 544 
L 1311 543 
L 1289 543 
L 1282 544 
L 1275 544 
L 1296 540 
" fill="#339541" />
<path d="
M 1267 524 
L 1267 496 
L 1253 496 
L 1253 484 
L 1275 484 
L 1275 531 
Q 1270 536 , 1264 538 
Q 1259 539 , 1253 540 
Q 1240 540 , 1233 525 
Q 1225 511 , 1225 487 
Q 1225 462 , 1233 448 
Q 1240 434 , 1253 434 
Q 1259 434 , 1264 436 
Q 1269 438 , 1274 443 
L 1274 456 
Q 1267 450 , 1263 448 
Q 1259 447 , 1254 447 
Q 1244 447 , 1238 456 
Q 1233 466 , 1233 487 
Q 1233 508 , 1238 518 
Q 1244 528 , 1254 528 
Q 1259 528 , 1262 527 
Q 1266 526 , 1267 524 
" fill="lightgray" />
<path d="
M 1325 445 
L 1325 461 
Q 1318 451 , 1314 448 
Q 1309 446 , 1304 446 
Q 1294 446 , 1289 456 
Q 1283 466 , 1283 486 
Q 1283 507 , 1289 518 
Q 1294 528 , 1304 528 
Q 1309 528 , 1314 525 
Q 1318 523 , 1325 512 
L 1325 529 
Q 1320 535 , 1314 537 
Q 1310 540 , 1304 540 
Q 1290 540 , 1283 525 
Q 1275 511 , 1275 487 
Q 1275 463 , 1283 448 
Q 1290 434 , 1304 434 
Q 1310 434 , 1315 437 
Q 1320 439 , 1325 445 
" fill="#545FFF" />
<path d="
M 1275 324 
L 1275 343 
Q 1268 331 , 1264 328 
Q 1259 325 , 1254 325 
Q 1244 325 , 1239 337 
Q 1233 349 , 1233 372 
Q 1233 396 , 1239 409 
Q 1244 421 , 1254 421 
Q 1259 421 , 1264 418 
Q 1268 414 , 1275 402 
L 1275 421 
Q 1270 428 , 1264 431 
Q 1260 434 , 1254 434 
Q 1240 434 , 1233 417 
Q 1225 401 , 1225 373 
Q 1225 344 , 1233 328 
Q 1240 311 , 1254 311 
Q 1260 311 , 1265 314 
Q 1270 317 , 1275 324 
" fill="lightgray" />
<path d="
M 1317 416 
L 1317 383 
L 1303 383 
L 1303 370 
L 1325 370 
L 1325 425 
Q 1320 430 , 1314 432 
Q 1309 434 , 1303 434 
Q 1290 434 , 1283 417 
Q 1275 401 , 1275 373 
Q 1275 344 , 1283 327 
Q 1290 311 , 1303 311 
Q 1309 311 , 1314 313 
Q 1319 315 , 1324 321 
L 1324 337 
Q 1317 330 , 1313 328 
Q 1309 326 , 1304 326 
Q 1294 326 , 1288 337 
Q 1283 349 , 1283 373 
Q 1283 397 , 1288 409 
Q 1294 420 , 1304 420 
Q 1309 420 , 1312 419 
Q 1316 418 , 1317 416 
" fill="#F5C000" />
<path d="
M 1330 554 
L 1348 554 
L 1348 554 
Q 1348 555 , 1356 555 
Q 1363 555 , 1380 555 
Q 1397 555 , 1405 555 
Q 1412 555 , 1412 554 
L 1412 554 
L 1430 554 
L 1430 554 
Q 1430 555 , 1417 555 
Q 1405 555 , 1380 555 
Q 1356 555 , 1343 555 
Q 1330 555 , 1330 554 
L 1330 554 
" fill="#D21010" />
<path d="
M 1380 553 
L 1362 553 
L 1396 553 
L 1380 553 
M 1373 553 
L 1387 553 
L 1430 554 
L 1414 554 
L 1402 554 
L 1358 554 
L 1345 554 
L 1330 554 
L 1373 553 
" fill="#339541" />
<path d="
M 1414 552 
L 1414 552 
L 1385 552 
L 1385 552 
L 1430 552 
L 1430 552 
Q 1419 552 , 1408 552 
Q 1399 552 , 1387 552 
Q 1361 552 , 1345 552 
Q 1330 552 , 1330 552 
Q 1330 551 , 1345 551 
Q 1361 551 , 1387 551 
Q 1398 551 , 1407 551 
Q 1417 551 , 1427 551 
L 1427 551 
Q 1414 551 , 1406 551 
Q 1397 551 , 1388 551 
Q 1367 551 , 1356 551 
Q 1346 551 , 1346 552 
Q 1346 552 , 1356 552 
Q 1367 552 , 1388 552 
Q 1397 552 , 1404 552 
Q 1411 552 , 1414 552 
" fill="#F5C000" />
<path d="
M 1430 549 
L 1430 549 
Q 1415 549 , 1407 549 
Q 1399 549 , 1389 549 
Q 1368 549 , 1358 549 
Q 1346 549 , 1346 549 
Q 1346 550 , 1358 550 
Q 1368 550 , 1389 550 
Q 1399 550 , 1407 550 
Q 1415 550 , 1430 550 
L 1430 550 
Q 1419 550 , 1409 550 
Q 1399 550 , 1388 550 
Q 1361 550 , 1346 550 
Q 1330 550 , 1330 550 
Q 1330 549 , 1346 549 
Q 1361 549 , 1388 549 
Q 1399 549 , 1409 549 
Q 1420 549 , 1430 549 
" fill="#545FFF" />
<path d="M 65 168 L 65 555 " stroke="black" stroke-width="1.5"/>
<path d="M 55 555 L 65 555 " stroke="black" stroke-width="4"/>
<text text-anchor="end" x="50" y="555" font-size="50" alignment-baseline="middle">0</text>
<path d="M 55 362 L 65 362 " stroke="black" stroke-width="4"/>
<text text-anchor="end" x="50" y="362" font-size="50" alignment-baseline="middle">1</text>
<path d="M 55 168 L 65 168 " stroke="black" stroke-width="4"/>
<text text-anchor="end" x="50" y="168" font-size="50" alignment-baseline="middle">2</text>
<text text-anchor="middle" x="750" y="50" font-size="50" alignment-baseline="baseline"></text>
G<path d="
M 160 582 
L 126 595 
L 160 608 
L 157 611 
L 123 598 
L 123 623 
L 117 623 
L 117 599 
L 83 611 
L 80 608 
L 114 595 
L 80 582 
L 83 579 
L 117 591 
L 117 567 
L 123 567 
L 123 591 
L 157 579 
L 160 582 
" fill="black" />
<path d="
" fill="black" />
<path d="
M 211 567 
L 238 567 
L 238 623 
L 211 623 
L 211 567 
" fill="black" />
<path d="
" fill="black" />
<path d="
" fill="black" />
<path d="
M 316 567 
L 343 567 
L 343 623 
L 316 623 
L 316 567 
" fill="black" />
<path d="
" fill="black" />
<path d="
M 475 567 
Q 446 574 , 433 581 
Q 420 588 , 420 595 
Q 420 602 , 433 609 
Q 446 616 , 475 623 
L 451 623 
Q 423 616 , 409 609 
Q 395 602 , 395 595 
Q 395 588 , 409 581 
Q 423 574 , 451 567 
L 475 567 
" fill="black" />
<path d="
M 580 567 
Q 551 574 , 538 581 
Q 525 588 , 525 595 
Q 525 602 , 538 609 
Q 551 616 , 580 623 
L 556 623 
Q 528 616 , 514 609 
Q 500 602 , 500 595 
Q 500 588 , 514 581 
Q 528 574 , 556 567 
L 580 567 
" fill="black" />
<path d="
" fill="black" />
<path d="
M 622 567 
L 642 567 
L 642 623 
L 622 623 
L 622 567 
" fill="black" />
<path d="
" fill="black" />
<path d="
M 687 595 
Q 686 591 , 682 591 
Q 679 591 , 677 595 
Q 675 599 , 675 605 
Q 675 612 , 677 615 
Q 679 619 , 682 619 
Q 686 619 , 687 615 
Q 689 612 , 689 605 
Q 689 599 , 687 595 
M 690 569 
L 690 574 
Q 689 572 , 687 571 
Q 686 571 , 684 571 
Q 678 571 , 676 581 
Q 675 586 , 675 595 
Q 675 593 , 677 590 
Q 679 587 , 682 587 
Q 687 587 , 689 592 
Q 692 597 , 692 604 
Q 692 613 , 689 618 
Q 687 623 , 682 623 
Q 677 623 , 675 616 
Q 672 609 , 672 595 
Q 672 581 , 675 574 
Q 679 567 , 684 567 
Q 686 567 , 687 568 
Q 689 568 , 690 569 
" fill="black" />
<path d="
M 790 582 
L 756 595 
L 790 608 
L 787 611 
L 753 598 
L 753 623 
L 747 623 
L 747 599 
L 713 611 
L 710 608 
L 744 595 
L 710 582 
L 713 579 
L 747 591 
L 747 567 
L 753 567 
L 753 591 
L 787 579 
L 790 582 
" fill="black" />
<path d="
" fill="black" />
<path d="
M 841 567 
L 868 567 
L 868 623 
L 841 623 
L 841 567 
" fill="black" />
<path d="
" fill="black" />
<path d="
" fill="black" />
<path d="
M 946 567 
L 973 567 
L 973 623 
L 946 623 
L 946 567 
" fill="black" />
<path d="
" fill="black" />
<path d="
" fill="black" />
<path d="
M 1051 567 
L 1078 567 
L 1078 623 
L 1051 623 
L 1051 567 
" fill="black" />
<path d="
" fill="black" />
<path d="
M 1130 567 
L 1154 567 
Q 1182 574 , 1196 581 
Q 1210 588 , 1210 595 
Q 1210 602 , 1196 609 
Q 1182 616 , 1154 623 
L 1130 623 
Q 1159 616 , 1172 609 
Q 1185 602 , 1185 595 
Q 1185 588 , 1172 581 
Q 1159 574 , 1130 567 
" fill="black" />
<path d="
M 1235 567 
L 1259 567 
Q 1287 574 , 1301 581 
Q 1315 588 , 1315 595 
Q 1315 602 , 1301 609 
Q 1287 616 , 1259 623 
L 1235 623 
Q 1264 616 , 1277 609 
Q 1290 602 , 1290 595 
Q 1290 588 , 1277 581 
Q 1264 574 , 1235 567 
" fill="black" />
<path d="
M 1420 582 
L 1386 595 
L 1420 608 
L 1417 611 
L 1383 598 
L 1383 623 
L 1377 623 
L 1377 599 
L 1343 611 
L 1340 608 
L 1374 595 
L 1340 582 
L 1343 579 
L 1377 591 
L 1377 567 
L 1383 567 
L 1383 591 
L 1417 579 
L 1420 582 
" fill="black" />
</svg>
