<svg xmlns="http://www.w3.org/2000/svg"
viewBox="0 0 1435 635">
<path d="
M 170 554 
L 170 554 
Q 155 554 , 147 554 
Q 139 554 , 129 554 
Q 108 554 , 98 554 
Q 86 554 , 86 554 
Q 86 554 , 98 554 
Q 108 554 , 129 554 
Q 139 554 , 147 554 
Q 155 554 , 170 554 
L 170 554 
Q 159 554 , 149 554 
Q 139 554 , 128 554 
Q 101 554 , 86 554 
Q 70 554 , 70 554 
Q 70 554 , 86 554 
Q 101 554 , 128 554 
Q 139 554 , 149 554 
Q 160 554 , 170 554 
" fill="#545FFF" />
<path d="
M 70 553 
L 88 553 
L 88 553 
Q 88 553 , 96 553 
Q 103 553 , 120 553 
Q 137 553 , 145 553 
Q 152 553 , 152 553 
L 152 553 
L 170 553 
L 170 553 
Q 170 553 , 157 553 
Q 145 553 , 120 553 
Q 96 553 , 83 553 
Q 70 553 , 70 553 
L 70 553 
" fill="#D21010" />
<path d="
M 120 552 
L 102 552 
L 136 552 
L 120 552 
M 113 552 
L 127 552 
L 170 553 
L 154 553 
L 142 552 
L 98 552 
L 85 553 
L 70 553 
L 113 552 
" fill="#339541" />
<path d="
M 154 552 
L 154 551 
L 125 551 
L 125 551 
L 170 551 
L 170 552 
Q 159 552 , 148 552 
Q 139 552 , 127 552 
Q 101 552 , 85 552 
Q 70 551 , 70 551 
Q 70 551 , 85 551 
Q 101 551 , 127 551 
Q 138 551 , 147 551 
Q 157 551 , 167 551 
L 167 551 
Q 154 551 , 146 551 
Q 137 551 , 128 551 
Q 107 551 , 96 551 
Q 86 551 , 86 551 
Q 86 551 , 96 551 
Q 107 552 , 128 552 
Q 137 552 , 144 552 
Q 151 552 , 154 552 
" fill="#F5C000" />
<path d="
M 217 554 
L 217 553 
L 203 553 
L 203 553 
L 225 553 
L 225 554 
Q 220 554 , 214 554 
Q 209 554 , 203 554 
Q 190 554 , 183 554 
Q 175 553 , 175 553 
Q 175 553 , 183 552 
Q 190 552 , 203 552 
Q 209 552 , 214 552 
Q 219 552 , 224 552 
L 224 552 
Q 217 552 , 213 552 
Q 209 552 , 204 552 
Q 194 552 , 188 552 
Q 183 553 , 183 553 
Q 183 553 , 188 554 
Q 194 554 , 204 554 
Q 209 554 , 212 554 
Q 216 554 , 217 554 
" fill="#F5C000" />
<path d="
M 225 552 
L 234 552 
L 234 553 
Q 234 554 , 238 554 
Q 241 554 , 250 554 
Q 259 554 , 262 554 
Q 266 554 , 266 553 
L 266 552 
L 275 552 
L 275 553 
Q 275 554 , 269 554 
Q 262 554 , 250 554 
Q 238 554 , 231 554 
Q 225 554 , 225 553 
L 225 552 
" fill="lightgray" />
<path d="
M 175 546 
L 184 546 
L 184 549 
Q 184 550 , 188 551 
Q 191 551 , 200 551 
Q 209 551 , 212 551 
Q 216 550 , 216 549 
L 216 546 
L 225 546 
L 225 549 
Q 225 551 , 219 551 
Q 212 552 , 200 552 
Q 188 552 , 181 551 
Q 175 551 , 175 549 
L 175 546 
" fill="#D21010" />
<path d="
M 250 547 
L 241 549 
L 258 549 
L 250 547 
M 246 546 
L 254 546 
L 275 552 
L 267 552 
L 261 550 
L 239 550 
L 232 552 
L 225 552 
L 246 546 
" fill="lightgray" />
<path d="
M 200 539 
L 191 542 
L 208 542 
L 200 539 
M 196 538 
L 204 538 
L 225 545 
L 217 545 
L 211 543 
L 189 543 
L 182 545 
L 175 545 
L 196 538 
" fill="#339541" />
<path d="
M 225 538 
L 234 538 
L 234 542 
Q 234 543 , 238 544 
Q 241 544 , 250 544 
Q 259 544 , 262 544 
Q 266 543 , 266 542 
L 266 538 
L 275 538 
L 275 542 
Q 275 544 , 269 544 
Q 262 545 , 250 545 
Q 238 545 , 231 544 
Q 225 544 , 225 542 
L 225 538 
" fill="lightgray" />
<path d="
M 175 526 
L 184 526 
L 184 533 
Q 184 535 , 188 535 
Q 191 536 , 200 536 
Q 209 536 , 212 535 
Q 216 535 , 216 533 
L 216 526 
L 225 526 
L 225 533 
Q 225 535 , 219 536 
Q 212 537 , 200 537 
Q 188 537 , 181 536 
Q 175 535 , 175 533 
L 175 526 
" fill="#D21010" />
<path d="
M 267 536 
L 267 533 
L 253 533 
L 253 531 
L 275 531 
L 275 536 
Q 270 537 , 264 537 
Q 259 537 , 253 537 
Q 240 537 , 233 536 
Q 225 534 , 225 532 
Q 225 529 , 233 528 
Q 240 526 , 253 526 
Q 259 526 , 264 526 
Q 269 526 , 274 527 
L 274 528 
Q 267 528 , 263 528 
Q 259 527 , 254 527 
Q 244 527 , 238 528 
Q 233 529 , 233 532 
Q 233 534 , 238 535 
Q 244 536 , 254 536 
Q 259 536 , 262 536 
Q 266 536 , 267 536 
" fill="lightgray" />
<path d="
M 225 509 
L 225 512 
Q 218 510 , 214 510 
Q 209 509 , 204 509 
Q 194 509 , 189 511 
Q 183 513 , 183 516 
Q 183 520 , 189 522 
Q 194 524 , 204 524 
Q 209 524 , 214 523 
Q 218 523 , 225 521 
L 225 524 
Q 220 525 , 214 525 
Q 210 526 , 204 526 
Q 190 526 , 183 523 
Q 175 521 , 175 516 
Q 175 512 , 183 510 
Q 190 507 , 204 507 
Q 210 507 , 215 507 
Q 220 508 , 225 509 
" fill="#545FFF" />
<path d="
M 267 523 
L 267 518 
L 253 518 
L 253 516 
L 275 516 
L 275 524 
Q 270 525 , 264 525 
Q 259 526 , 253 526 
Q 240 526 , 233 523 
Q 225 521 , 225 516 
Q 225 512 , 233 510 
Q 240 507 , 253 507 
Q 259 507 , 264 507 
Q 269 508 , 274 509 
L 274 511 
Q 267 510 , 263 510 
Q 259 509 , 254 509 
Q 244 509 , 238 511 
Q 233 513 , 233 516 
Q 233 520 , 238 522 
Q 244 524 , 254 524 
Q 259 524 , 262 523 
Q 266 523 , 267 523 
" fill="lightgray" />
<path d="
M 217 502 
L 217 495 
L 203 495 
L 203 492 
L 225 492 
L 225 504 
Q 220 505 , 214 506 
Q 209 506 , 203 506 
Q 190 506 , 183 503 
Q 175 499 , 175 492 
Q 175 486 , 183 482 
Q 190 478 , 203 478 
Q 209 478 , 214 478 
Q 219 479 , 224 480 
L 224 484 
Q 217 482 , 213 482 
Q 209 481 , 204 481 
Q 194 481 , 188 484 
Q 183 487 , 183 492 
Q 183 498 , 188 500 
Q 194 503 , 204 503 
Q 209 503 , 212 503 
Q 216 503 , 217 502 
" fill="#F5C000" />
<path d="
M 275 481 
L 275 485 
Q 268 483 , 264 482 
Q 259 481 , 254 481 
Q 244 481 , 239 484 
Q 233 487 , 233 492 
Q 233 498 , 239 501 
Q 244 503 , 254 503 
Q 259 503 , 264 503 
Q 268 502 , 275 499 
L 275 503 
Q 270 505 , 264 506 
Q 260 506 , 254 506 
Q 240 506 , 233 503 
Q 225 499 , 225 492 
Q 225 486 , 233 482 
Q 240 478 , 254 478 
Q 260 478 , 265 479 
Q 270 479 , 275 481 
" fill="lightgray" />
<path d="
M 280 552 
L 289 552 
L 289 554 
Q 289 554 , 293 554 
Q 296 554 , 305 554 
Q 314 554 , 317 554 
Q 321 554 , 321 554 
L 321 552 
L 330 552 
L 330 554 
Q 330 554 , 324 554 
Q 317 555 , 305 555 
Q 293 555 , 286 554 
Q 280 554 , 280 554 
L 280 552 
" fill="#D21010" />
<path d="
M 355 552 
L 346 554 
L 363 554 
L 355 552 
M 351 552 
L 359 552 
L 380 555 
L 372 555 
L 366 554 
L 344 554 
L 337 555 
L 330 555 
L 351 552 
" fill="lightgray" />
<path d="
M 280 548 
L 289 548 
L 289 550 
Q 289 550 , 293 551 
Q 296 551 , 305 551 
Q 314 551 , 317 551 
Q 321 550 , 321 550 
L 321 548 
L 330 548 
L 330 550 
Q 330 551 , 324 551 
Q 317 551 , 305 551 
Q 293 551 , 286 551 
Q 280 551 , 280 550 
L 280 548 
" fill="#D21010" />
<path d="
M 372 551 
L 372 550 
L 358 550 
L 358 550 
L 380 550 
L 380 551 
Q 375 551 , 369 551 
Q 364 551 , 358 551 
Q 345 551 , 338 551 
Q 330 550 , 330 550 
Q 330 549 , 338 548 
Q 345 548 , 358 548 
Q 364 548 , 369 548 
Q 374 548 , 379 548 
L 379 549 
Q 372 548 , 368 548 
Q 364 548 , 359 548 
Q 349 548 , 343 549 
Q 338 549 , 338 550 
Q 338 550 , 343 551 
Q 349 551 , 359 551 
Q 364 551 , 367 551 
Q 371 551 , 372 551 
" fill="lightgray" />
<path d="
M 322 547 
L 322 545 
L 308 545 
L 308 544 
L 330 544 
L 330 547 
Q 325 547 , 319 547 
Q 314 548 , 308 548 
Q 295 548 , 288 547 
Q 280 546 , 280 544 
Q 280 543 , 288 542 
Q 295 541 , 308 541 
Q 314 541 , 319 541 
Q 324 541 , 329 542 
L 329 542 
Q 322 542 , 318 542 
Q 314 542 , 309 542 
Q 299 542 , 293 542 
Q 288 543 , 288 544 
Q 288 546 , 293 546 
Q 299 547 , 309 547 
Q 314 547 , 317 547 
Q 321 547 , 322 547 
" fill="#F5C000" />
<path d="
M 380 542 
L 380 543 
Q 373 542 , 369 542 
Q 364 542 , 359 542 
Q 349 542 , 344 542 
Q 338 543 , 338 544 
Q 338 546 , 344 546 
Q 349 547 , 359 547 
Q 364 547 , 369 547 
Q 373 546 , 380 546 
L 380 547 
Q 375 547 , 369 547 
Q 365 548 , 359 548 
Q 345 548 , 338 547 
Q 330 546 , 330 544 
Q 330 543 , 338 542 
Q 345 541 , 359 541 
Q 365 541 , 370 541 
Q 375 541 , 380 542 
" fill="lightgray" />
<path d="
M 305 534 
L 296 538 
L 313 538 
L 305 534 
M 301 533 
L 309 533 
L 330 541 
L 322 541 
L 316 539 
L 294 539 
L 287 541 
L 280 541 
L 301 533 
" fill="#339541" />
<path d="
M 330 533 
L 339 533 
L 339 538 
Q 339 539 , 343 540 
Q 346 540 , 355 540 
Q 364 540 , 367 540 
Q 371 539 , 371 538 
L 371 533 
L 380 533 
L 380 538 
Q 380 539 , 374 540 
Q 367 541 , 355 541 
Q 343 541 , 336 540 
Q 330 539 , 330 538 
L 330 533 
" fill="lightgray" />
<path d="
M 322 531 
L 322 528 
L 308 528 
L 308 527 
L 330 527 
L 330 532 
Q 325 532 , 319 532 
Q 314 532 , 308 532 
Q 295 532 , 288 531 
Q 280 530 , 280 528 
Q 280 525 , 288 524 
Q 295 523 , 308 523 
Q 314 523 , 319 523 
Q 324 523 , 329 524 
L 329 525 
Q 322 524 , 318 524 
Q 314 524 , 309 524 
Q 299 524 , 293 525 
Q 288 526 , 288 528 
Q 288 529 , 293 530 
Q 299 531 , 309 531 
Q 314 531 , 317 531 
Q 321 531 , 322 531 
" fill="#F5C000" />
<path d="
M 330 523 
L 339 523 
L 339 528 
Q 339 530 , 343 531 
Q 346 531 , 355 531 
Q 364 531 , 367 531 
Q 371 530 , 371 528 
L 371 523 
L 380 523 
L 380 529 
Q 380 530 , 374 531 
Q 367 532 , 355 532 
Q 343 532 , 336 531 
Q 330 530 , 330 529 
L 330 523 
" fill="lightgray" />
<path d="
M 330 509 
L 330 511 
Q 323 510 , 319 509 
Q 314 509 , 309 509 
Q 299 509 , 294 510 
Q 288 512 , 288 515 
Q 288 518 , 294 520 
Q 299 521 , 309 521 
Q 314 521 , 319 521 
Q 323 520 , 330 519 
L 330 521 
Q 325 522 , 319 522 
Q 315 523 , 309 523 
Q 295 523 , 288 521 
Q 280 519 , 280 515 
Q 280 511 , 288 509 
Q 295 507 , 309 507 
Q 315 507 , 320 507 
Q 325 508 , 330 509 
" fill="#545FFF" />
<path d="
M 372 521 
L 372 516 
L 358 516 
L 358 515 
L 380 515 
L 380 522 
Q 375 522 , 369 523 
Q 364 523 , 358 523 
Q 345 523 , 338 521 
Q 330 519 , 330 515 
Q 330 511 , 338 509 
Q 345 507 , 358 507 
Q 364 507 , 369 507 
Q 374 508 , 379 508 
L 379 510 
Q 372 509 , 368 509 
Q 364 509 , 359 509 
Q 349 509 , 343 510 
Q 338 512 , 338 515 
Q 338 518 , 343 520 
Q 349 521 , 359 521 
Q 364 521 , 367 521 
Q 371 521 , 372 521 
" fill="lightgray" />
<path d="
M 485 550 
L 485 550 
Q 470 550 , 462 550 
Q 454 550 , 444 550 
Q 423 550 , 413 550 
Q 401 551 , 401 552 
Q 401 553 , 413 553 
Q 423 554 , 444 554 
Q 454 554 , 462 554 
Q 470 553 , 485 553 
L 485 554 
Q 474 554 , 464 554 
Q 454 554 , 443 554 
Q 416 554 , 401 554 
Q 385 553 , 385 552 
Q 385 550 , 401 550 
Q 416 549 , 443 549 
Q 454 549 , 464 549 
Q 475 549 , 485 550 
" fill="#545FFF" />
<path d="
M 385 541 
L 403 541 
L 403 546 
Q 403 547 , 411 547 
Q 418 548 , 435 548 
Q 452 548 , 460 547 
Q 467 547 , 467 546 
L 467 541 
L 485 541 
L 485 546 
Q 485 547 , 472 548 
Q 460 549 , 435 549 
Q 411 549 , 398 548 
Q 385 547 , 385 546 
L 385 541 
" fill="#D21010" />
<path d="
M 435 527 
L 417 534 
L 451 534 
L 435 527 
M 428 524 
L 442 524 
L 485 541 
L 469 541 
L 457 536 
L 413 536 
L 400 541 
L 385 541 
L 428 524 
" fill="#339541" />
<path d="
M 469 519 
L 469 510 
L 440 510 
L 440 507 
L 485 507 
L 485 521 
Q 474 522 , 463 523 
Q 454 523 , 442 523 
Q 416 523 , 400 519 
Q 385 515 , 385 507 
Q 385 500 , 400 495 
Q 416 491 , 442 491 
Q 453 491 , 462 492 
Q 472 492 , 482 494 
L 482 498 
Q 469 496 , 461 495 
Q 452 495 , 443 495 
Q 422 495 , 411 498 
Q 401 501 , 401 507 
Q 401 514 , 411 517 
Q 422 520 , 443 520 
Q 452 520 , 459 520 
Q 466 519 , 469 519 
" fill="#F5C000" />
<path d="
M 490 550 
L 508 550 
L 508 553 
Q 508 553 , 516 554 
Q 523 554 , 540 554 
Q 557 554 , 565 554 
Q 572 553 , 572 553 
L 572 550 
L 590 550 
L 590 553 
Q 590 553 , 577 554 
Q 565 554 , 540 554 
Q 516 554 , 503 554 
Q 490 553 , 490 553 
L 490 550 
" fill="#D21010" />
<path d="
M 540 539 
L 522 545 
L 556 545 
L 540 539 
M 533 537 
L 547 537 
L 590 550 
L 574 550 
L 562 546 
L 518 546 
L 505 550 
L 490 550 
L 533 537 
" fill="#339541" />
<path d="
M 590 515 
L 590 518 
Q 575 516 , 567 515 
Q 559 515 , 549 515 
Q 528 515 , 518 517 
Q 506 520 , 506 524 
Q 506 529 , 518 532 
Q 528 534 , 549 534 
Q 559 534 , 567 534 
Q 575 533 , 590 530 
L 590 534 
Q 579 536 , 569 536 
Q 559 537 , 548 537 
Q 521 537 , 506 533 
Q 490 530 , 490 524 
Q 490 519 , 506 515 
Q 521 512 , 548 512 
Q 559 512 , 569 513 
Q 580 513 , 590 515 
" fill="#545FFF" />
<path d="
M 574 497 
L 574 470 
L 545 470 
L 545 458 
L 590 458 
L 590 503 
Q 579 508 , 568 509 
Q 559 511 , 547 511 
Q 521 511 , 505 498 
Q 490 484 , 490 461 
Q 490 437 , 505 424 
Q 521 410 , 547 410 
Q 558 410 , 567 412 
Q 577 414 , 587 418 
L 587 431 
Q 574 425 , 566 424 
Q 557 422 , 548 422 
Q 527 422 , 516 432 
Q 506 441 , 506 461 
Q 506 481 , 516 490 
Q 527 500 , 548 500 
Q 557 500 , 564 499 
Q 571 498 , 574 497 
" fill="#F5C000" />
<path d="
M 595 550 
L 613 550 
L 613 553 
Q 613 553 , 621 554 
Q 628 554 , 645 554 
Q 662 554 , 670 554 
Q 677 553 , 677 553 
L 677 550 
L 695 550 
L 695 553 
Q 695 553 , 682 554 
Q 670 554 , 645 554 
Q 621 554 , 608 554 
Q 595 553 , 595 553 
L 595 550 
" fill="#D21010" />
<path d="
M 679 548 
L 679 546 
L 650 546 
L 650 546 
L 695 546 
L 695 549 
Q 684 549 , 673 549 
Q 664 549 , 652 550 
Q 626 550 , 610 548 
Q 595 548 , 595 546 
Q 595 544 , 610 543 
Q 626 542 , 652 542 
Q 663 542 , 672 542 
Q 682 542 , 692 543 
L 692 544 
Q 679 543 , 671 543 
Q 662 543 , 653 543 
Q 632 543 , 621 544 
Q 611 544 , 611 546 
Q 611 547 , 621 548 
Q 632 549 , 653 549 
Q 662 549 , 669 549 
Q 676 549 , 679 548 
" fill="#F5C000" />
<path d="
M 695 531 
L 695 533 
Q 680 532 , 672 532 
Q 664 531 , 654 531 
Q 633 531 , 623 532 
Q 611 534 , 611 536 
Q 611 538 , 623 539 
Q 633 541 , 654 541 
Q 664 541 , 672 540 
Q 680 540 , 695 539 
L 695 541 
Q 684 541 , 674 542 
Q 664 542 , 653 542 
Q 626 542 , 611 540 
Q 595 539 , 595 536 
Q 595 533 , 611 532 
Q 626 530 , 653 530 
Q 664 530 , 674 530 
Q 685 531 , 695 531 
" fill="#545FFF" />
<path d="
M 645 512 
L 627 521 
L 661 521 
L 645 512 
M 638 508 
L 652 508 
L 695 530 
L 679 530 
L 667 523 
L 623 523 
L 610 530 
L 595 530 
L 638 508 
" fill="#339541" />
<path d="
M 800 554 
L 800 554 
Q 785 554 , 777 554 
Q 769 554 , 759 554 
Q 738 554 , 728 554 
Q 716 554 , 716 554 
Q 716 554 , 728 554 
Q 738 554 , 759 554 
Q 769 554 , 777 554 
Q 785 554 , 800 554 
L 800 554 
Q 789 554 , 779 554 
Q 769 554 , 758 554 
Q 731 554 , 716 554 
Q 700 554 , 700 554 
Q 700 554 , 716 554 
Q 731 554 , 758 554 
Q 769 554 , 779 554 
Q 790 554 , 800 554 
" fill="#545FFF" />
<path d="
M 700 553 
L 718 553 
L 718 553 
Q 718 553 , 726 553 
Q 733 553 , 750 553 
Q 767 553 , 775 553 
Q 782 553 , 782 553 
L 782 553 
L 800 553 
L 800 553 
Q 800 553 , 787 553 
Q 775 553 , 750 553 
Q 726 553 , 713 553 
Q 700 553 , 700 553 
L 700 553 
" fill="#D21010" />
<path d="
M 750 552 
L 732 552 
L 766 552 
L 750 552 
M 743 552 
L 757 552 
L 800 553 
L 784 553 
L 772 552 
L 728 552 
L 715 553 
L 700 553 
L 743 552 
" fill="#339541" />
<path d="
M 784 552 
L 784 551 
L 755 551 
L 755 551 
L 800 551 
L 800 552 
Q 789 552 , 778 552 
Q 769 552 , 757 552 
Q 731 552 , 715 552 
Q 700 551 , 700 551 
Q 700 551 , 715 551 
Q 731 551 , 757 551 
Q 768 551 , 777 551 
Q 787 551 , 797 551 
L 797 551 
Q 784 551 , 776 551 
Q 767 551 , 758 551 
Q 737 551 , 726 551 
Q 716 551 , 716 551 
Q 716 551 , 726 551 
Q 737 552 , 758 552 
Q 767 552 , 774 552 
Q 781 552 , 784 552 
" fill="#F5C000" />
<path d="
M 805 552 
L 814 552 
L 814 554 
Q 814 554 , 818 554 
Q 821 554 , 830 554 
Q 839 554 , 842 554 
Q 846 554 , 846 554 
L 846 552 
L 855 552 
L 855 554 
Q 855 554 , 849 554 
Q 842 555 , 830 555 
Q 818 555 , 811 554 
Q 805 554 , 805 554 
L 805 552 
" fill="lightgray" />
<path d="
M 880 552 
L 871 554 
L 888 554 
L 880 552 
M 876 552 
L 884 552 
L 905 555 
L 897 555 
L 891 554 
L 869 554 
L 862 555 
L 855 555 
L 876 552 
" fill="#339541" />
<path d="
M 805 548 
L 814 548 
L 814 550 
Q 814 550 , 818 551 
Q 821 551 , 830 551 
Q 839 551 , 842 551 
Q 846 550 , 846 550 
L 846 548 
L 855 548 
L 855 550 
Q 855 551 , 849 551 
Q 842 551 , 830 551 
Q 818 551 , 811 551 
Q 805 551 , 805 550 
L 805 548 
" fill="lightgray" />
<path d="
M 897 551 
L 897 550 
L 883 550 
L 883 550 
L 905 550 
L 905 551 
Q 900 551 , 894 551 
Q 889 551 , 883 551 
Q 870 551 , 863 551 
Q 855 550 , 855 550 
Q 855 549 , 863 548 
Q 870 548 , 883 548 
Q 889 548 , 894 548 
Q 899 548 , 904 548 
L 904 549 
Q 897 548 , 893 548 
Q 889 548 , 884 548 
Q 874 548 , 868 549 
Q 863 549 , 863 550 
Q 863 550 , 868 551 
Q 874 551 , 884 551 
Q 889 551 , 892 551 
Q 896 551 , 897 551 
" fill="#F5C000" />
<path d="
M 847 547 
L 847 545 
L 833 545 
L 833 544 
L 855 544 
L 855 547 
Q 850 547 , 844 547 
Q 839 548 , 833 548 
Q 820 548 , 813 547 
Q 805 546 , 805 544 
Q 805 543 , 813 542 
Q 820 541 , 833 541 
Q 839 541 , 844 541 
Q 849 541 , 854 542 
L 854 542 
Q 847 542 , 843 542 
Q 839 542 , 834 542 
Q 824 542 , 818 542 
Q 813 543 , 813 544 
Q 813 546 , 818 546 
Q 824 547 , 834 547 
Q 839 547 , 842 547 
Q 846 547 , 847 547 
" fill="lightgray" />
<path d="
M 905 542 
L 905 543 
Q 898 542 , 894 542 
Q 889 542 , 884 542 
Q 874 542 , 869 542 
Q 863 543 , 863 544 
Q 863 546 , 869 546 
Q 874 547 , 884 547 
Q 889 547 , 894 547 
Q 898 546 , 905 546 
L 905 547 
Q 900 547 , 894 547 
Q 890 548 , 884 548 
Q 870 548 , 863 547 
Q 855 546 , 855 544 
Q 855 543 , 863 542 
Q 870 541 , 884 541 
Q 890 541 , 895 541 
Q 900 541 , 905 542 
" fill="#545FFF" />
<path d="
M 830 534 
L 821 538 
L 838 538 
L 830 534 
M 826 533 
L 834 533 
L 855 541 
L 847 541 
L 841 539 
L 819 539 
L 812 541 
L 805 541 
L 826 533 
" fill="lightgray" />
<path d="
M 855 533 
L 864 533 
L 864 538 
Q 864 539 , 868 540 
Q 871 540 , 880 540 
Q 889 540 , 892 540 
Q 896 539 , 896 538 
L 896 533 
L 905 533 
L 905 538 
Q 905 539 , 899 540 
Q 892 541 , 880 541 
Q 868 541 , 861 540 
Q 855 539 , 855 538 
L 855 533 
" fill="#D21010" />
<path d="
M 847 531 
L 847 528 
L 833 528 
L 833 527 
L 855 527 
L 855 532 
Q 850 532 , 844 532 
Q 839 532 , 833 532 
Q 820 532 , 813 531 
Q 805 530 , 805 528 
Q 805 525 , 813 524 
Q 820 523 , 833 523 
Q 839 523 , 844 523 
Q 849 523 , 854 524 
L 854 525 
Q 847 524 , 843 524 
Q 839 524 , 834 524 
Q 824 524 , 818 525 
Q 813 526 , 813 528 
Q 813 529 , 818 530 
Q 824 531 , 834 531 
Q 839 531 , 842 531 
Q 846 531 , 847 531 
" fill="lightgray" />
<path d="
M 855 523 
L 864 523 
L 864 528 
Q 864 530 , 868 531 
Q 871 531 , 880 531 
Q 889 531 , 892 531 
Q 896 530 , 896 528 
L 896 523 
L 905 523 
L 905 529 
Q 905 530 , 899 531 
Q 892 532 , 880 532 
Q 868 532 , 861 531 
Q 855 530 , 855 529 
L 855 523 
" fill="#D21010" />
<path d="
M 855 509 
L 855 511 
Q 848 510 , 844 509 
Q 839 509 , 834 509 
Q 824 509 , 819 510 
Q 813 512 , 813 515 
Q 813 518 , 819 520 
Q 824 521 , 834 521 
Q 839 521 , 844 521 
Q 848 520 , 855 519 
L 855 521 
Q 850 522 , 844 522 
Q 840 523 , 834 523 
Q 820 523 , 813 521 
Q 805 519 , 805 515 
Q 805 511 , 813 509 
Q 820 507 , 834 507 
Q 840 507 , 845 507 
Q 850 508 , 855 509 
" fill="lightgray" />
<path d="
M 897 521 
L 897 516 
L 883 516 
L 883 515 
L 905 515 
L 905 522 
Q 900 522 , 894 523 
Q 889 523 , 883 523 
Q 870 523 , 863 521 
Q 855 519 , 855 515 
Q 855 511 , 863 509 
Q 870 507 , 883 507 
Q 889 507 , 894 507 
Q 899 508 , 904 508 
L 904 510 
Q 897 509 , 893 509 
Q 889 509 , 884 509 
Q 874 509 , 868 510 
Q 863 512 , 863 515 
Q 863 518 , 868 520 
Q 874 521 , 884 521 
Q 889 521 , 892 521 
Q 896 521 , 897 521 
" fill="#F5C000" />
<path d="
M 910 549 
L 928 549 
L 928 552 
Q 928 553 , 936 553 
Q 943 554 , 960 554 
Q 977 554 , 985 553 
Q 992 553 , 992 552 
L 992 549 
L 1010 549 
L 1010 552 
Q 1010 553 , 997 554 
Q 985 554 , 960 554 
Q 936 554 , 923 554 
Q 910 553 , 910 552 
L 910 549 
" fill="#D21010" />
<path d="
M 960 543 
L 942 546 
L 976 546 
L 960 543 
M 953 542 
L 967 542 
L 1010 548 
L 994 548 
L 982 546 
L 938 546 
L 925 548 
L 910 548 
L 953 542 
" fill="#339541" />
<path d="
M 1010 511 
L 1010 516 
Q 995 513 , 987 512 
Q 979 511 , 969 511 
Q 948 511 , 938 514 
Q 926 518 , 926 524 
Q 926 531 , 938 534 
Q 948 538 , 969 538 
Q 979 538 , 987 537 
Q 995 536 , 1010 533 
L 1010 538 
Q 999 540 , 989 541 
Q 979 542 , 968 542 
Q 941 542 , 926 537 
Q 910 532 , 910 524 
Q 910 516 , 926 512 
Q 941 507 , 968 507 
Q 979 507 , 989 508 
Q 1000 509 , 1010 511 
" fill="#545FFF" />
<path d="
M 994 498 
L 994 481 
L 965 481 
L 965 474 
L 1010 474 
L 1010 502 
Q 999 504 , 988 505 
Q 979 506 , 967 507 
Q 941 507 , 925 498 
Q 910 490 , 910 476 
Q 910 461 , 925 453 
Q 941 445 , 967 445 
Q 978 445 , 987 446 
Q 997 447 , 1007 450 
L 1007 458 
Q 994 454 , 986 453 
Q 977 452 , 968 452 
Q 947 452 , 936 458 
Q 926 464 , 926 476 
Q 926 488 , 936 494 
Q 947 500 , 968 500 
Q 977 500 , 984 499 
Q 991 499 , 994 498 
" fill="#F5C000" />
<path d="
M 1099 554 
L 1099 553 
L 1070 553 
L 1070 553 
L 1115 553 
L 1115 554 
Q 1104 554 , 1093 554 
Q 1084 554 , 1072 554 
Q 1046 554 , 1030 554 
Q 1015 554 , 1015 553 
Q 1015 553 , 1030 552 
Q 1046 552 , 1072 552 
Q 1083 552 , 1092 552 
Q 1102 552 , 1112 552 
L 1112 552 
Q 1099 552 , 1091 552 
Q 1082 552 , 1073 552 
Q 1052 552 , 1041 552 
Q 1031 553 , 1031 553 
Q 1031 553 , 1041 554 
Q 1052 554 , 1073 554 
Q 1082 554 , 1089 554 
Q 1096 554 , 1099 554 
" fill="#F5C000" />
<path d="
M 1115 549 
L 1115 550 
Q 1100 549 , 1092 549 
Q 1084 549 , 1074 549 
Q 1053 549 , 1043 550 
Q 1031 550 , 1031 550 
Q 1031 551 , 1043 551 
Q 1053 551 , 1074 551 
Q 1084 551 , 1092 551 
Q 1100 551 , 1115 551 
L 1115 552 
Q 1104 552 , 1094 552 
Q 1084 552 , 1073 552 
Q 1046 552 , 1031 551 
Q 1015 551 , 1015 550 
Q 1015 550 , 1031 549 
Q 1046 549 , 1073 549 
Q 1084 549 , 1094 549 
Q 1105 549 , 1115 549 
" fill="#545FFF" />
<path d="
M 1015 545 
L 1033 545 
L 1033 547 
Q 1033 548 , 1041 548 
Q 1048 548 , 1065 548 
Q 1082 548 , 1090 548 
Q 1097 548 , 1097 547 
L 1097 545 
L 1115 545 
L 1115 547 
Q 1115 548 , 1102 548 
Q 1090 549 , 1065 549 
Q 1041 549 , 1028 548 
Q 1015 548 , 1015 547 
L 1015 545 
" fill="#D21010" />
<path d="
M 1065 541 
L 1047 543 
L 1081 543 
L 1065 541 
M 1058 540 
L 1072 540 
L 1115 545 
L 1099 545 
L 1087 543 
L 1043 543 
L 1030 545 
L 1015 545 
L 1058 540 
" fill="#339541" />
<path d="
M 1120 544 
L 1138 544 
L 1138 550 
Q 1138 552 , 1146 552 
Q 1153 553 , 1170 553 
Q 1187 553 , 1195 552 
Q 1202 552 , 1202 550 
L 1202 544 
L 1220 544 
L 1220 550 
Q 1220 552 , 1207 553 
Q 1195 554 , 1170 554 
Q 1146 554 , 1133 553 
Q 1120 552 , 1120 550 
L 1120 544 
" fill="#D21010" />
<path d="
M 1170 534 
L 1152 539 
L 1186 539 
L 1170 534 
M 1163 532 
L 1177 532 
L 1220 544 
L 1204 544 
L 1192 540 
L 1148 540 
L 1135 544 
L 1120 544 
L 1163 532 
" fill="#339541" />
<path d="
M 1220 521 
L 1220 523 
Q 1205 522 , 1197 522 
Q 1189 521 , 1179 521 
Q 1158 521 , 1148 522 
Q 1136 524 , 1136 526 
Q 1136 528 , 1148 529 
Q 1158 531 , 1179 531 
Q 1189 531 , 1197 530 
Q 1205 530 , 1220 529 
L 1220 531 
Q 1209 531 , 1199 532 
Q 1189 532 , 1178 532 
Q 1151 532 , 1136 530 
Q 1120 529 , 1120 526 
Q 1120 523 , 1136 522 
Q 1151 520 , 1178 520 
Q 1189 520 , 1199 520 
Q 1210 521 , 1220 521 
" fill="#545FFF" />
<path d="
M 1204 511 
L 1204 496 
L 1175 496 
L 1175 489 
L 1220 489 
L 1220 515 
Q 1209 518 , 1198 519 
Q 1189 520 , 1177 520 
Q 1151 520 , 1135 512 
Q 1120 504 , 1120 490 
Q 1120 477 , 1135 469 
Q 1151 461 , 1177 461 
Q 1188 461 , 1197 462 
Q 1207 463 , 1217 466 
L 1217 473 
Q 1204 470 , 1196 469 
Q 1187 468 , 1178 468 
Q 1157 468 , 1146 474 
Q 1136 479 , 1136 490 
Q 1136 502 , 1146 508 
Q 1157 513 , 1178 513 
Q 1187 513 , 1194 513 
Q 1201 512 , 1204 511 
" fill="#F5C000" />
<path d="
M 1267 554 
L 1267 553 
L 1253 553 
L 1253 553 
L 1275 553 
L 1275 554 
Q 1270 554 , 1264 554 
Q 1259 554 , 1253 554 
Q 1240 554 , 1233 554 
Q 1225 553 , 1225 553 
Q 1225 553 , 1233 552 
Q 1240 552 , 1253 552 
Q 1259 552 , 1264 552 
Q 1269 552 , 1274 552 
L 1274 552 
Q 1267 552 , 1263 552 
Q 1259 552 , 1254 552 
Q 1244 552 , 1238 552 
Q 1233 553 , 1233 553 
Q 1233 553 , 1238 554 
Q 1244 554 , 1254 554 
Q 1259 554 , 1262 554 
Q 1266 554 , 1267 554 
" fill="lightgray" />
<path d="
M 1275 552 
L 1284 552 
L 1284 553 
Q 1284 554 , 1288 554 
Q 1291 554 , 1300 554 
Q 1309 554 , 1312 554 
Q 1316 554 , 1316 553 
L 1316 552 
L 1325 552 
L 1325 553 
Q 1325 554 , 1319 554 
Q 1312 554 , 1300 554 
Q 1288 554 , 1281 554 
Q 1275 554 , 1275 553 
L 1275 552 
" fill="#D21010" />
<path d="
M 1225 546 
L 1234 546 
L 1234 549 
Q 1234 550 , 1238 551 
Q 1241 551 , 1250 551 
Q 1259 551 , 1262 551 
Q 1266 550 , 1266 549 
L 1266 546 
L 1275 546 
L 1275 549 
Q 1275 551 , 1269 551 
Q 1262 552 , 1250 552 
Q 1238 552 , 1231 551 
Q 1225 551 , 1225 549 
L 1225 546 
" fill="lightgray" />
<path d="
M 1300 547 
L 1291 549 
L 1308 549 
L 1300 547 
M 1296 546 
L 1304 546 
L 1325 552 
L 1317 552 
L 1311 550 
L 1289 550 
L 1282 552 
L 1275 552 
L 1296 546 
" fill="#339541" />
<path d="
M 1250 539 
L 1241 542 
L 1258 542 
L 1250 539 
M 1246 538 
L 1254 538 
L 1275 545 
L 1267 545 
L 1261 543 
L 1239 543 
L 1232 545 
L 1225 545 
L 1246 538 
" fill="lightgray" />
<path d="
M 1275 538 
L 1284 538 
L 1284 542 
Q 1284 543 , 1288 544 
Q 1291 544 , 1300 544 
Q 1309 544 , 1312 544 
Q 1316 543 , 1316 542 
L 1316 538 
L 1325 538 
L 1325 542 
Q 1325 544 , 1319 544 
Q 1312 545 , 1300 545 
Q 1288 545 , 1281 544 
Q 1275 544 , 1275 542 
L 1275 538 
" fill="#D21010" />
<path d="
M 1225 526 
L 1234 526 
L 1234 533 
Q 1234 535 , 1238 535 
Q 1241 536 , 1250 536 
Q 1259 536 , 1262 535 
Q 1266 535 , 1266 533 
L 1266 526 
L 1275 526 
L 1275 533 
Q 1275 535 , 1269 536 
Q 1262 537 , 1250 537 
Q 1238 537 , 1231 536 
Q 1225 535 , 1225 533 
L 1225 526 
" fill="lightgray" />
<path d="
M 1317 536 
L 1317 533 
L 1303 533 
L 1303 531 
L 1325 531 
L 1325 536 
Q 1320 537 , 1314 537 
Q 1309 537 , 1303 537 
Q 1290 537 , 1283 536 
Q 1275 534 , 1275 532 
Q 1275 529 , 1283 528 
Q 1290 526 , 1303 526 
Q 1309 526 , 1314 526 
Q 1319 526 , 1324 527 
L 1324 528 
Q 1317 528 , 1313 528 
Q 1309 527 , 1304 527 
Q 1294 527 , 1288 528 
Q 1283 529 , 1283 532 
Q 1283 534 , 1288 535 
Q 1294 536 , 1304 536 
Q 1309 536 , 1312 536 
Q 1316 536 , 1317 536 
" fill="#F5C000" />
<path d="
M 1275 509 
L 1275 512 
Q 1268 510 , 1264 510 
Q 1259 509 , 1254 509 
Q 1244 509 , 1239 511 
Q 1233 513 , 1233 516 
Q 1233 520 , 1239 522 
Q 1244 524 , 1254 524 
Q 1259 524 , 1264 523 
Q 1268 523 , 1275 521 
L 1275 524 
Q 1270 525 , 1264 525 
Q 1260 526 , 1254 526 
Q 1240 526 , 1233 523 
Q 1225 521 , 1225 516 
Q 1225 512 , 1233 510 
Q 1240 507 , 1254 507 
Q 1260 507 , 1265 507 
Q 1270 508 , 1275 509 
" fill="lightgray" />
<path d="
M 1317 523 
L 1317 518 
L 1303 518 
L 1303 516 
L 1325 516 
L 1325 524 
Q 1320 525 , 1314 525 
Q 1309 526 , 1303 526 
Q 1290 526 , 1283 523 
Q 1275 521 , 1275 516 
Q 1275 512 , 1283 510 
Q 1290 507 , 1303 507 
Q 1309 507 , 1314 507 
Q 1319 508 , 1324 509 
L 1324 511 
Q 1317 510 , 1313 510 
Q 1309 509 , 1304 509 
Q 1294 509 , 1288 511 
Q 1283 513 , 1283 516 
Q 1283 520 , 1288 522 
Q 1294 524 , 1304 524 
Q 1309 524 , 1312 523 
Q 1316 523 , 1317 523 
" fill="#F5C000" />
<path d="
M 1267 502 
L 1267 495 
L 1253 495 
L 1253 492 
L 1275 492 
L 1275 504 
Q 1270 505 , 1264 506 
Q 1259 506 , 1253 506 
Q 1240 506 , 1233 503 
Q 1225 499 , 1225 492 
Q 1225 486 , 1233 482 
Q 1240 478 , 1253 478 
Q 1259 478 , 1264 478 
Q 1269 479 , 1274 480 
L 1274 484 
Q 1267 482 , 1263 482 
Q 1259 481 , 1254 481 
Q 1244 481 , 1238 484 
Q 1233 487 , 1233 492 
Q 1233 498 , 1238 500 
Q 1244 503 , 1254 503 
Q 1259 503 , 1262 503 
Q 1266 503 , 1267 502 
" fill="lightgray" />
<path d="
M 1325 481 
L 1325 485 
Q 1318 483 , 1314 482 
Q 1309 481 , 1304 481 
Q 1294 481 , 1289 484 
Q 1283 487 , 1283 492 
Q 1283 498 , 1289 501 
Q 1294 503 , 1304 503 
Q 1309 503 , 1314 503 
Q 1318 502 , 1325 499 
L 1325 503 
Q 1320 505 , 1314 506 
Q 1310 506 , 1304 506 
Q 1290 506 , 1283 503 
Q 1275 499 , 1275 492 
Q 1275 486 , 1283 482 
Q 1290 478 , 1304 478 
Q 1310 478 , 1315 479 
Q 1320 479 , 1325 481 
" fill="#545FFF" />
<path d="
M 1430 554 
L 1430 554 
Q 1415 554 , 1407 554 
Q 1399 554 , 1389 554 
Q 1368 554 , 1358 554 
Q 1346 554 , 1346 554 
Q 1346 554 , 1358 554 
Q 1368 554 , 1389 554 
Q 1399 554 , 1407 554 
Q 1415 554 , 1430 554 
L 1430 554 
Q 1419 554 , 1409 554 
Q 1399 554 , 1388 554 
Q 1361 554 , 1346 554 
Q 1330 554 , 1330 554 
Q 1330 554 , 1346 554 
Q 1361 554 , 1388 554 
Q 1399 554 , 1409 554 
Q 1420 554 , 1430 554 
" fill="#545FFF" />
<path d="
M 1330 553 
L 1348 553 
L 1348 553 
Q 1348 553 , 1356 553 
Q 1363 553 , 1380 553 
Q 1397 553 , 1405 553 
Q 1412 553 , 1412 553 
L 1412 553 
L 1430 553 
L 1430 553 
Q 1430 553 , 1417 553 
Q 1405 553 , 1380 553 
Q 1356 553 , 1343 553 
Q 1330 553 , 1330 553 
L 1330 553 
" fill="#D21010" />
<path d="
M 1380 552 
L 1362 552 
L 1396 552 
L 1380 552 
M 1373 552 
L 1387 552 
L 1430 553 
L 1414 553 
L 1402 552 
L 1358 552 
L 1345 553 
L 1330 553 
L 1373 552 
" fill="#339541" />
<path d="
M 1414 552 
L 1414 551 
L 1385 551 
L 1385 551 
L 1430 551 
L 1430 552 
Q 1419 552 , 1408 552 
Q 1399 552 , 1387 552 
Q 1361 552 , 1345 552 
Q 1330 551 , 1330 551 
Q 1330 551 , 1345 551 
Q 1361 551 , 1387 551 
Q 1398 551 , 1407 551 
Q 1417 551 , 1427 551 
L 1427 551 
Q 1414 551 , 1406 551 
Q 1397 551 , 1388 551 
Q 1367 551 , 1356 551 
Q 1346 551 , 1346 551 
Q 1346 551 , 1356 551 
Q 1367 552 , 1388 552 
Q 1397 552 , 1404 552 
Q 1411 552 , 1414 552 
" fill="#F5C000" />
<path d="M 65 168 L 65 555 " stroke="black" stroke-width="1.5"/>
<path d="M 55 555 L 65 555 " stroke="black" stroke-width="4"/>
<text text-anchor="end" x="50" y="555" font-size="50" alignment-baseline="middle">0</text>
<path d="M 55 362 L 65 362 " stroke="black" stroke-width="4"/>
<text text-anchor="end" x="50" y="362" font-size="50" alignment-baseline="middle">1</text>
<path d="M 55 168 L 65 168 " stroke="black" stroke-width="4"/>
<text text-anchor="end" x="50" y="168" font-size="50" alignment-baseline="middle">2</text>
<text text-anchor="middle" x="750" y="50" font-size="50" alignment-baseline="baseline"></text>
G<path d="
M 160 582 
L 126 595 
L 160 608 
L 157 611 
L 123 598 
L 123 623 
L 117 623 
L 117 599 
L 83 611 
L 80 608 
L 114 595 
L 80 582 
L 83 579 
L 117 591 
L 117 567 
L 123 567 
L 123 591 
L 157 579 
L 160 582 
" fill="black" />
<path d="
M 265 567 
Q 236 574 , 223 581 
Q 210 588 , 210 595 
Q 210 602 , 223 609 
Q 236 616 , 265 623 
L 241 623 
Q 213 616 , 199 609 
Q 185 602 , 185 595 
Q 185 588 , 199 581 
Q 213 574 , 241 567 
L 265 567 
" fill="black" />
<path d="
M 370 567 
Q 341 574 , 328 581 
Q 315 588 , 315 595 
Q 315 602 , 328 609 
Q 341 616 , 370 623 
L 346 623 
Q 318 616 , 304 609 
Q 290 602 , 290 595 
Q 290 588 , 304 581 
Q 318 574 , 346 567 
L 370 567 
" fill="black" />
<path d="
" fill="black" />
<path d="
M 421 567 
L 448 567 
L 448 623 
L 421 623 
L 421 567 
" fill="black" />
<path d="
" fill="black" />
<path d="
" fill="black" />
<path d="
M 526 567 
L 553 567 
L 553 623 
L 526 623 
L 526 567 
" fill="black" />
<path d="
" fill="black" />
<path d="
" fill="black" />
<path d="
M 617 567 
L 633 567 
L 633 623 
L 617 623 
L 617 567 
" fill="black" />
<path d="
" fill="black" />
<path d="
M 659 619 
L 665 619 
L 665 572 
L 657 578 
L 657 573 
L 665 567 
L 667 567 
L 667 619 
L 673 619 
L 673 623 
L 659 623 
L 659 619 
" fill="black" />
<path d="
M 685 571 
Q 682 571 , 681 577 
Q 679 583 , 679 595 
Q 679 607 , 681 613 
Q 682 619 , 685 619 
Q 688 619 , 689 613 
Q 691 607 , 691 595 
Q 691 583 , 689 577 
Q 688 571 , 685 571 
M 685 567 
Q 689 567 , 691 573 
Q 693 580 , 693 595 
Q 693 610 , 691 617 
Q 689 623 , 685 623 
Q 681 623 , 679 617 
Q 677 610 , 677 595 
Q 677 580 , 679 573 
Q 681 567 , 685 567 
" fill="black" />
<path d="
M 790 582 
L 756 595 
L 790 608 
L 787 611 
L 753 598 
L 753 623 
L 747 623 
L 747 599 
L 713 611 
L 710 608 
L 744 595 
L 710 582 
L 713 579 
L 747 591 
L 747 567 
L 753 567 
L 753 591 
L 787 579 
L 790 582 
" fill="black" />
<path d="
M 815 567 
L 839 567 
Q 867 574 , 881 581 
Q 895 588 , 895 595 
Q 895 602 , 881 609 
Q 867 616 , 839 623 
L 815 623 
Q 844 616 , 857 609 
Q 870 602 , 870 595 
Q 870 588 , 857 581 
Q 844 574 , 815 567 
" fill="black" />
<path d="
" fill="black" />
<path d="
M 946 567 
L 973 567 
L 973 623 
L 946 623 
L 946 567 
" fill="black" />
<path d="
" fill="black" />
<path d="
" fill="black" />
<path d="
M 1051 567 
L 1078 567 
L 1078 623 
L 1051 623 
L 1051 567 
" fill="black" />
<path d="
" fill="black" />
<path d="
" fill="black" />
<path d="
M 1156 567 
L 1183 567 
L 1183 623 
L 1156 623 
L 1156 567 
" fill="black" />
<path d="
" fill="black" />
<path d="
M 1235 567 
L 1259 567 
Q 1287 574 , 1301 581 
Q 1315 588 , 1315 595 
Q 1315 602 , 1301 609 
Q 1287 616 , 1259 623 
L 1235 623 
Q 1264 616 , 1277 609 
Q 1290 602 , 1290 595 
Q 1290 588 , 1277 581 
Q 1264 574 , 1235 567 
" fill="black" />
<path d="
M 1420 582 
L 1386 595 
L 1420 608 
L 1417 611 
L 1383 598 
L 1383 623 
L 1377 623 
L 1377 599 
L 1343 611 
L 1340 608 
L 1374 595 
L 1340 582 
L 1343 579 
L 1377 591 
L 1377 567 
L 1383 567 
L 1383 591 
L 1417 579 
L 1420 582 
" fill="black" />
</svg>
