<svg xmlns="http://www.w3.org/2000/svg"
viewBox="0 0 1435 635">
<path d="
M 70 554 
L 88 554 
L 88 554 
Q 88 554 , 96 554 
Q 103 554 , 120 554 
Q 137 554 , 145 554 
Q 152 554 , 152 554 
L 152 554 
L 170 554 
L 170 554 
Q 170 554 , 157 554 
Q 145 554 , 120 554 
Q 96 554 , 83 554 
Q 70 554 , 70 554 
L 70 554 
" fill="#D21010" />
<path d="
M 120 553 
L 102 553 
L 136 553 
L 120 553 
M 113 553 
L 127 553 
L 170 553 
L 154 553 
L 142 553 
L 98 553 
L 85 553 
L 70 553 
L 113 553 
" fill="#339541" />
<path d="
M 154 552 
L 154 552 
L 125 552 
L 125 552 
L 170 552 
L 170 552 
Q 159 552 , 148 552 
Q 139 552 , 127 552 
Q 101 552 , 85 552 
Q 70 552 , 70 552 
Q 70 552 , 85 552 
Q 101 552 , 127 552 
Q 138 552 , 147 552 
Q 157 552 , 167 552 
L 167 552 
Q 154 552 , 146 552 
Q 137 552 , 128 552 
Q 107 552 , 96 552 
Q 86 552 , 86 552 
Q 86 552 , 96 552 
Q 107 552 , 128 552 
Q 137 552 , 144 552 
Q 151 552 , 154 552 
" fill="#F5C000" />
<path d="
M 170 551 
L 170 551 
Q 155 551 , 147 551 
Q 139 551 , 129 551 
Q 108 551 , 98 551 
Q 86 551 , 86 551 
Q 86 551 , 98 551 
Q 108 551 , 129 551 
Q 139 551 , 147 551 
Q 155 551 , 170 551 
L 170 551 
Q 159 551 , 149 551 
Q 139 551 , 128 551 
Q 101 551 , 86 551 
Q 70 551 , 70 551 
Q 70 551 , 86 551 
Q 101 551 , 128 551 
Q 139 551 , 149 551 
Q 160 551 , 170 551 
" fill="#545FFF" />
<path d="
M 175 549 
L 193 549 
L 193 552 
Q 193 553 , 201 554 
Q 208 554 , 225 554 
Q 242 554 , 250 554 
Q 257 553 , 257 552 
L 257 549 
L 275 549 
L 275 552 
Q 275 554 , 262 554 
Q 250 555 , 225 555 
Q 201 555 , 188 554 
Q 175 554 , 175 552 
L 175 549 
" fill="#D21010" />
<path d="
M 225 542 
L 207 545 
L 241 545 
L 225 542 
M 218 541 
L 232 541 
L 275 548 
L 259 548 
L 247 546 
L 203 546 
L 190 548 
L 175 548 
L 218 541 
" fill="#339541" />
<path d="
M 259 536 
L 259 527 
L 230 527 
L 230 524 
L 275 524 
L 275 538 
Q 264 539 , 253 540 
Q 244 540 , 232 540 
Q 206 540 , 190 536 
Q 175 532 , 175 525 
Q 175 517 , 190 513 
Q 206 509 , 232 509 
Q 243 509 , 252 510 
Q 262 510 , 272 512 
L 272 516 
Q 259 514 , 251 513 
Q 242 513 , 233 513 
Q 212 513 , 201 516 
Q 191 519 , 191 525 
Q 191 531 , 201 534 
Q 212 537 , 233 537 
Q 242 537 , 249 537 
Q 256 536 , 259 536 
" fill="#F5C000" />
<path d="
M 275 404 
L 275 421 
Q 260 410 , 252 407 
Q 244 404 , 234 404 
Q 213 404 , 203 415 
Q 191 427 , 191 449 
Q 191 472 , 203 484 
Q 213 495 , 234 495 
Q 244 495 , 252 492 
Q 260 489 , 275 478 
L 275 496 
Q 264 503 , 254 505 
Q 244 508 , 233 508 
Q 206 508 , 191 492 
Q 175 476 , 175 450 
Q 175 423 , 191 407 
Q 206 391 , 233 391 
Q 244 391 , 254 394 
Q 265 397 , 275 404 
" fill="#545FFF" />
<path d="
M 380 551 
L 380 552 
Q 365 552 , 357 552 
Q 349 551 , 339 551 
Q 318 551 , 308 552 
Q 296 552 , 296 553 
Q 296 554 , 308 554 
Q 318 554 , 339 554 
Q 349 554 , 357 554 
Q 365 554 , 380 554 
L 380 554 
Q 369 555 , 359 555 
Q 349 555 , 338 555 
Q 311 555 , 296 554 
Q 280 554 , 280 553 
Q 280 552 , 296 552 
Q 311 551 , 338 551 
Q 349 551 , 359 551 
Q 370 551 , 380 551 
" fill="#545FFF" />
<path d="
M 364 550 
L 364 548 
L 335 548 
L 335 547 
L 380 547 
L 380 550 
Q 369 551 , 358 551 
Q 349 551 , 337 551 
Q 311 551 , 295 550 
Q 280 549 , 280 547 
Q 280 546 , 295 545 
Q 311 544 , 337 544 
Q 348 544 , 357 544 
Q 367 544 , 377 545 
L 377 545 
Q 364 545 , 356 545 
Q 347 545 , 338 545 
Q 317 545 , 306 545 
Q 296 546 , 296 547 
Q 296 549 , 306 549 
Q 317 550 , 338 550 
Q 347 550 , 354 550 
Q 361 550 , 364 550 
" fill="#F5C000" />
<path d="
M 280 534 
L 298 534 
L 298 540 
Q 298 541 , 306 542 
Q 313 542 , 330 542 
Q 347 542 , 355 542 
Q 362 541 , 362 540 
L 362 534 
L 380 534 
L 380 540 
Q 380 542 , 367 542 
Q 355 543 , 330 543 
Q 306 543 , 293 542 
Q 280 542 , 280 540 
L 280 534 
" fill="#D21010" />
<path d="
M 330 520 
L 312 527 
L 346 527 
L 330 520 
M 323 517 
L 337 517 
L 380 534 
L 364 534 
L 352 529 
L 308 529 
L 295 534 
L 280 534 
L 323 517 
" fill="#339541" />
<path d="
M 485 549 
L 485 550 
Q 470 549 , 462 549 
Q 454 549 , 444 549 
Q 423 549 , 413 549 
Q 401 550 , 401 551 
Q 401 552 , 413 553 
Q 423 553 , 444 553 
Q 454 553 , 462 553 
Q 470 553 , 485 552 
L 485 553 
Q 474 554 , 464 554 
Q 454 554 , 443 554 
Q 416 554 , 401 553 
Q 385 552 , 385 551 
Q 385 550 , 401 549 
Q 416 548 , 443 548 
Q 454 548 , 464 548 
Q 475 548 , 485 549 
" fill="#545FFF" />
<path d="
M 435 540 
L 417 544 
L 451 544 
L 435 540 
M 428 538 
L 442 538 
L 485 548 
L 469 548 
L 457 545 
L 413 545 
L 400 548 
L 385 548 
L 428 538 
" fill="#339541" />
<path d="
M 469 535 
L 469 531 
L 440 531 
L 440 529 
L 485 529 
L 485 536 
Q 474 537 , 463 537 
Q 454 537 , 442 537 
Q 416 537 , 400 535 
Q 385 533 , 385 530 
Q 385 526 , 400 524 
Q 416 522 , 442 522 
Q 453 522 , 462 522 
Q 472 523 , 482 523 
L 482 525 
Q 469 524 , 461 524 
Q 452 524 , 443 524 
Q 422 524 , 411 525 
Q 401 527 , 401 530 
Q 401 532 , 411 534 
Q 422 535 , 443 535 
Q 452 535 , 459 535 
Q 466 535 , 469 535 
" fill="#F5C000" />
<path d="
M 385 481 
L 403 481 
L 403 505 
Q 403 512 , 411 514 
Q 418 517 , 435 517 
Q 452 517 , 460 514 
Q 467 512 , 467 505 
L 467 481 
L 485 481 
L 485 506 
Q 485 513 , 472 517 
Q 460 522 , 435 522 
Q 411 522 , 398 517 
Q 385 513 , 385 506 
L 385 481 
" fill="#D21010" />
<path d="
M 532 554 
L 532 553 
L 518 553 
L 518 553 
L 540 553 
L 540 554 
Q 535 554 , 529 554 
Q 524 554 , 518 554 
Q 505 554 , 498 554 
Q 490 554 , 490 553 
Q 490 553 , 498 552 
Q 505 552 , 518 552 
Q 524 552 , 529 552 
Q 534 552 , 539 552 
L 539 552 
Q 532 552 , 528 552 
Q 524 552 , 519 552 
Q 509 552 , 503 552 
Q 498 553 , 498 553 
Q 498 554 , 503 554 
Q 509 554 , 519 554 
Q 524 554 , 527 554 
Q 531 554 , 532 554 
" fill="#F5C000" />
<path d="
M 540 552 
L 549 552 
L 549 553 
Q 549 554 , 553 554 
Q 556 554 , 565 554 
Q 574 554 , 577 554 
Q 581 554 , 581 553 
L 581 552 
L 590 552 
L 590 553 
Q 590 554 , 584 554 
Q 577 554 , 565 554 
Q 553 554 , 546 554 
Q 540 554 , 540 553 
L 540 552 
" fill="lightgray" />
<path d="
M 515 549 
L 506 550 
L 523 550 
L 515 549 
M 511 548 
L 519 548 
L 540 552 
L 532 552 
L 526 550 
L 504 550 
L 497 552 
L 490 552 
L 511 548 
" fill="#339541" />
<path d="
M 540 548 
L 549 548 
L 549 550 
Q 549 551 , 553 551 
Q 556 551 , 565 551 
Q 574 551 , 577 551 
Q 581 551 , 581 550 
L 581 548 
L 590 548 
L 590 550 
Q 590 551 , 584 551 
Q 577 551 , 565 551 
Q 553 551 , 546 551 
Q 540 551 , 540 550 
L 540 548 
" fill="lightgray" />
<path d="
M 490 543 
L 499 543 
L 499 546 
Q 499 546 , 503 547 
Q 506 547 , 515 547 
Q 524 547 , 527 547 
Q 531 546 , 531 546 
L 531 543 
L 540 543 
L 540 546 
Q 540 547 , 534 547 
Q 527 547 , 515 547 
Q 503 547 , 496 547 
Q 490 547 , 490 546 
L 490 543 
" fill="#D21010" />
<path d="
M 582 547 
L 582 546 
L 568 546 
L 568 545 
L 590 545 
L 590 547 
Q 585 547 , 579 547 
Q 574 547 , 568 547 
Q 555 547 , 548 547 
Q 540 546 , 540 545 
Q 540 544 , 548 544 
Q 555 543 , 568 543 
Q 574 543 , 579 543 
Q 584 543 , 589 543 
L 589 544 
Q 582 544 , 578 544 
Q 574 544 , 569 544 
Q 559 544 , 553 544 
Q 548 544 , 548 545 
Q 548 546 , 553 547 
Q 559 547 , 569 547 
Q 574 547 , 577 547 
Q 581 547 , 582 547 
" fill="lightgray" />
<path d="
M 490 536 
L 499 536 
L 499 540 
Q 499 541 , 503 541 
Q 506 542 , 515 542 
Q 524 542 , 527 541 
Q 531 541 , 531 540 
L 531 536 
L 540 536 
L 540 540 
Q 540 541 , 534 542 
Q 527 542 , 515 542 
Q 503 542 , 496 542 
Q 490 541 , 490 540 
L 490 536 
" fill="#D21010" />
<path d="
M 565 537 
L 556 540 
L 573 540 
L 565 537 
M 561 536 
L 569 536 
L 590 542 
L 582 542 
L 576 540 
L 554 540 
L 547 542 
L 540 542 
L 561 536 
" fill="lightgray" />
<path d="
M 532 528 
L 532 513 
L 518 513 
L 518 507 
L 540 507 
L 540 531 
Q 535 534 , 529 535 
Q 524 536 , 518 536 
Q 505 536 , 498 528 
Q 490 521 , 490 508 
Q 490 495 , 498 487 
Q 505 480 , 518 480 
Q 524 480 , 529 481 
Q 534 482 , 539 484 
L 539 492 
Q 532 488 , 528 488 
Q 524 487 , 519 487 
Q 509 487 , 503 492 
Q 498 497 , 498 508 
Q 498 519 , 503 524 
Q 509 529 , 519 529 
Q 524 529 , 527 529 
Q 531 528 , 532 528 
" fill="#F5C000" />
<path d="
M 590 486 
L 590 494 
Q 583 489 , 579 488 
Q 574 486 , 569 486 
Q 559 486 , 554 492 
Q 548 497 , 548 508 
Q 548 519 , 554 524 
Q 559 530 , 569 530 
Q 574 530 , 579 528 
Q 583 527 , 590 521 
L 590 530 
Q 585 533 , 579 534 
Q 575 536 , 569 536 
Q 555 536 , 548 528 
Q 540 521 , 540 508 
Q 540 495 , 548 488 
Q 555 480 , 569 480 
Q 575 480 , 580 481 
Q 585 483 , 590 486 
" fill="lightgray" />
<path d="
M 540 292 
L 540 324 
Q 533 304 , 529 299 
Q 524 293 , 519 293 
Q 509 293 , 504 313 
Q 498 334 , 498 374 
Q 498 415 , 504 436 
Q 509 457 , 519 457 
Q 524 457 , 529 451 
Q 533 446 , 540 425 
L 540 458 
Q 535 470 , 529 474 
Q 525 479 , 519 479 
Q 505 479 , 498 451 
Q 490 423 , 490 375 
Q 490 327 , 498 299 
Q 505 270 , 519 270 
Q 525 270 , 530 275 
Q 535 280 , 540 292 
" fill="#545FFF" />
<path d="
M 582 449 
L 582 393 
L 568 393 
L 568 370 
L 590 370 
L 590 463 
Q 585 472 , 579 475 
Q 574 479 , 568 479 
Q 555 479 , 548 451 
Q 540 423 , 540 375 
Q 540 326 , 548 298 
Q 555 270 , 568 270 
Q 574 270 , 579 274 
Q 584 277 , 589 287 
L 589 314 
Q 582 302 , 578 298 
Q 574 295 , 569 295 
Q 559 295 , 553 314 
Q 548 334 , 548 375 
Q 548 416 , 553 436 
Q 559 456 , 569 456 
Q 574 456 , 577 454 
Q 581 452 , 582 449 
" fill="lightgray" />
<path d="
M 595 549 
L 613 549 
L 613 552 
Q 613 553 , 621 553 
Q 628 554 , 645 554 
Q 662 554 , 670 553 
Q 677 553 , 677 552 
L 677 549 
L 695 549 
L 695 552 
Q 695 553 , 682 554 
Q 670 554 , 645 554 
Q 621 554 , 608 554 
Q 595 553 , 595 552 
L 595 549 
" fill="#D21010" />
<path d="
M 695 544 
L 695 545 
Q 680 544 , 672 544 
Q 664 544 , 654 544 
Q 633 544 , 623 544 
Q 611 545 , 611 546 
Q 611 547 , 623 548 
Q 633 548 , 654 548 
Q 664 548 , 672 548 
Q 680 548 , 695 547 
L 695 548 
Q 684 549 , 674 549 
Q 664 549 , 653 549 
Q 626 549 , 611 548 
Q 595 547 , 595 546 
Q 595 545 , 611 544 
Q 626 543 , 653 543 
Q 664 543 , 674 543 
Q 685 543 , 695 544 
" fill="#545FFF" />
<path d="
M 679 539 
L 679 532 
L 650 532 
L 650 530 
L 695 530 
L 695 541 
Q 684 542 , 673 542 
Q 664 543 , 652 543 
Q 626 543 , 610 539 
Q 595 536 , 595 530 
Q 595 525 , 610 521 
Q 626 518 , 652 518 
Q 663 518 , 672 518 
Q 682 519 , 692 520 
L 692 523 
Q 679 522 , 671 521 
Q 662 521 , 653 521 
Q 632 521 , 621 523 
Q 611 526 , 611 530 
Q 611 535 , 621 538 
Q 632 540 , 653 540 
Q 662 540 , 669 540 
Q 676 539 , 679 539 
" fill="#F5C000" />
<path d="
M 645 494 
L 627 506 
L 661 506 
L 645 494 
M 638 489 
L 652 489 
L 695 517 
L 679 517 
L 667 509 
L 623 509 
L 610 517 
L 595 517 
L 638 489 
" fill="#339541" />
<path d="
M 700 554 
L 718 554 
L 718 554 
Q 718 554 , 726 554 
Q 733 554 , 750 554 
Q 767 554 , 775 554 
Q 782 554 , 782 554 
L 782 554 
L 800 554 
L 800 554 
Q 800 554 , 787 554 
Q 775 554 , 750 554 
Q 726 554 , 713 554 
Q 700 554 , 700 554 
L 700 554 
" fill="#D21010" />
<path d="
M 750 553 
L 732 553 
L 766 553 
L 750 553 
M 743 553 
L 757 553 
L 800 553 
L 784 553 
L 772 553 
L 728 553 
L 715 553 
L 700 553 
L 743 553 
" fill="#339541" />
<path d="
M 784 552 
L 784 552 
L 755 552 
L 755 552 
L 800 552 
L 800 552 
Q 789 552 , 778 552 
Q 769 552 , 757 552 
Q 731 552 , 715 552 
Q 700 552 , 700 552 
Q 700 552 , 715 552 
Q 731 552 , 757 552 
Q 768 552 , 777 552 
Q 787 552 , 797 552 
L 797 552 
Q 784 552 , 776 552 
Q 767 552 , 758 552 
Q 737 552 , 726 552 
Q 716 552 , 716 552 
Q 716 552 , 726 552 
Q 737 552 , 758 552 
Q 767 552 , 774 552 
Q 781 552 , 784 552 
" fill="#F5C000" />
<path d="
M 800 551 
L 800 551 
Q 785 551 , 777 551 
Q 769 551 , 759 551 
Q 738 551 , 728 551 
Q 716 551 , 716 551 
Q 716 551 , 728 551 
Q 738 551 , 759 551 
Q 769 551 , 777 551 
Q 785 551 , 800 551 
L 800 551 
Q 789 551 , 779 551 
Q 769 551 , 758 551 
Q 731 551 , 716 551 
Q 700 551 , 700 551 
Q 700 551 , 716 551 
Q 731 551 , 758 551 
Q 769 551 , 779 551 
Q 790 551 , 800 551 
" fill="#545FFF" />
<path d="
M 855 551 
L 837 553 
L 871 553 
L 855 551 
M 848 550 
L 862 550 
L 905 555 
L 889 555 
L 877 554 
L 833 554 
L 820 555 
L 805 555 
L 848 550 
" fill="#339541" />
<path d="
M 805 540 
L 823 540 
L 823 546 
Q 823 547 , 831 548 
Q 838 549 , 855 549 
Q 872 549 , 880 548 
Q 887 547 , 887 546 
L 887 540 
L 905 540 
L 905 546 
Q 905 548 , 892 549 
Q 880 550 , 855 550 
Q 831 550 , 818 549 
Q 805 548 , 805 546 
L 805 540 
" fill="#D21010" />
<path d="
M 889 536 
L 889 530 
L 860 530 
L 860 527 
L 905 527 
L 905 537 
Q 894 538 , 883 539 
Q 874 539 , 862 539 
Q 836 539 , 820 536 
Q 805 533 , 805 528 
Q 805 522 , 820 519 
Q 836 516 , 862 516 
Q 873 516 , 882 516 
Q 892 517 , 902 518 
L 902 521 
Q 889 520 , 881 519 
Q 872 519 , 863 519 
Q 842 519 , 831 521 
Q 821 523 , 821 528 
Q 821 532 , 831 534 
Q 842 537 , 863 537 
Q 872 537 , 879 536 
Q 886 536 , 889 536 
" fill="#F5C000" />
<path d="
M 905 468 
L 905 476 
Q 890 471 , 882 469 
Q 874 468 , 864 468 
Q 843 468 , 833 473 
Q 821 478 , 821 488 
Q 821 499 , 833 504 
Q 843 509 , 864 509 
Q 874 509 , 882 508 
Q 890 507 , 905 501 
L 905 510 
Q 894 513 , 884 514 
Q 874 515 , 863 515 
Q 836 515 , 821 508 
Q 805 501 , 805 489 
Q 805 476 , 821 469 
Q 836 462 , 863 462 
Q 874 462 , 884 463 
Q 895 465 , 905 468 
" fill="#545FFF" />
<path d="
M 910 552 
L 928 552 
L 928 554 
Q 928 554 , 936 554 
Q 943 554 , 960 554 
Q 977 554 , 985 554 
Q 992 554 , 992 554 
L 992 552 
L 1010 552 
L 1010 554 
Q 1010 554 , 997 554 
Q 985 555 , 960 555 
Q 936 555 , 923 554 
Q 910 554 , 910 554 
L 910 552 
" fill="#D21010" />
<path d="
M 1010 543 
L 1010 545 
Q 995 544 , 987 543 
Q 979 543 , 969 543 
Q 948 543 , 938 544 
Q 926 545 , 926 547 
Q 926 549 , 938 550 
Q 948 551 , 969 551 
Q 979 551 , 987 551 
Q 995 550 , 1010 549 
L 1010 551 
Q 999 552 , 989 552 
Q 979 552 , 968 552 
Q 941 552 , 926 551 
Q 910 549 , 910 547 
Q 910 545 , 926 543 
Q 941 542 , 968 542 
Q 979 542 , 989 542 
Q 1000 542 , 1010 543 
" fill="#545FFF" />
<path d="
M 994 539 
L 994 533 
L 965 533 
L 965 531 
L 1010 531 
L 1010 540 
Q 999 541 , 988 542 
Q 979 542 , 967 542 
Q 941 542 , 925 539 
Q 910 536 , 910 532 
Q 910 527 , 925 524 
Q 941 521 , 967 521 
Q 978 521 , 987 521 
Q 997 522 , 1007 523 
L 1007 525 
Q 994 524 , 986 524 
Q 977 524 , 968 524 
Q 947 524 , 936 525 
Q 926 527 , 926 532 
Q 926 536 , 936 538 
Q 947 540 , 968 540 
Q 977 540 , 984 539 
Q 991 539 , 994 539 
" fill="#F5C000" />
<path d="
M 960 500 
L 942 510 
L 976 510 
L 960 500 
M 953 495 
L 967 495 
L 1010 520 
L 994 520 
L 982 513 
L 938 513 
L 925 520 
L 910 520 
L 953 495 
" fill="#339541" />
<path d="
M 1115 550 
L 1115 550 
Q 1100 550 , 1092 550 
Q 1084 550 , 1074 550 
Q 1053 550 , 1043 550 
Q 1031 551 , 1031 552 
Q 1031 553 , 1043 553 
Q 1053 554 , 1074 554 
Q 1084 554 , 1092 553 
Q 1100 553 , 1115 553 
L 1115 554 
Q 1104 554 , 1094 554 
Q 1084 554 , 1073 554 
Q 1046 554 , 1031 553 
Q 1015 553 , 1015 552 
Q 1015 550 , 1031 550 
Q 1046 549 , 1073 549 
Q 1084 549 , 1094 549 
Q 1105 549 , 1115 550 
" fill="#545FFF" />
<path d="
M 1099 548 
L 1099 546 
L 1070 546 
L 1070 546 
L 1115 546 
L 1115 548 
Q 1104 548 , 1093 549 
Q 1084 549 , 1072 549 
Q 1046 549 , 1030 548 
Q 1015 547 , 1015 546 
Q 1015 544 , 1030 544 
Q 1046 543 , 1072 543 
Q 1083 543 , 1092 543 
Q 1102 543 , 1112 543 
L 1112 544 
Q 1099 544 , 1091 544 
Q 1082 544 , 1073 544 
Q 1052 544 , 1041 544 
Q 1031 545 , 1031 546 
Q 1031 547 , 1041 547 
Q 1052 548 , 1073 548 
Q 1082 548 , 1089 548 
Q 1096 548 , 1099 548 
" fill="#F5C000" />
<path d="
M 1015 529 
L 1033 529 
L 1033 537 
Q 1033 539 , 1041 540 
Q 1048 541 , 1065 541 
Q 1082 541 , 1090 540 
Q 1097 539 , 1097 537 
L 1097 529 
L 1115 529 
L 1115 537 
Q 1115 540 , 1102 541 
Q 1090 542 , 1065 542 
Q 1041 542 , 1028 541 
Q 1015 540 , 1015 537 
L 1015 529 
" fill="#D21010" />
<path d="
M 1065 512 
L 1047 520 
L 1081 520 
L 1065 512 
M 1058 508 
L 1072 508 
L 1115 529 
L 1099 529 
L 1087 523 
L 1043 523 
L 1030 529 
L 1015 529 
L 1058 508 
" fill="#339541" />
<path d="
M 1162 554 
L 1162 553 
L 1148 553 
L 1148 553 
L 1170 553 
L 1170 554 
Q 1165 554 , 1159 554 
Q 1154 554 , 1148 554 
Q 1135 554 , 1128 554 
Q 1120 554 , 1120 553 
Q 1120 553 , 1128 552 
Q 1135 552 , 1148 552 
Q 1154 552 , 1159 552 
Q 1164 552 , 1169 552 
L 1169 552 
Q 1162 552 , 1158 552 
Q 1154 552 , 1149 552 
Q 1139 552 , 1133 552 
Q 1128 553 , 1128 553 
Q 1128 554 , 1133 554 
Q 1139 554 , 1149 554 
Q 1154 554 , 1157 554 
Q 1161 554 , 1162 554 
" fill="lightgray" />
<path d="
M 1170 552 
L 1179 552 
L 1179 553 
Q 1179 554 , 1183 554 
Q 1186 554 , 1195 554 
Q 1204 554 , 1207 554 
Q 1211 554 , 1211 553 
L 1211 552 
L 1220 552 
L 1220 553 
Q 1220 554 , 1214 554 
Q 1207 554 , 1195 554 
Q 1183 554 , 1176 554 
Q 1170 554 , 1170 553 
L 1170 552 
" fill="#D21010" />
<path d="
M 1145 549 
L 1136 550 
L 1153 550 
L 1145 549 
M 1141 548 
L 1149 548 
L 1170 552 
L 1162 552 
L 1156 550 
L 1134 550 
L 1127 552 
L 1120 552 
L 1141 548 
" fill="lightgray" />
<path d="
M 1170 548 
L 1179 548 
L 1179 550 
Q 1179 551 , 1183 551 
Q 1186 551 , 1195 551 
Q 1204 551 , 1207 551 
Q 1211 551 , 1211 550 
L 1211 548 
L 1220 548 
L 1220 550 
Q 1220 551 , 1214 551 
Q 1207 551 , 1195 551 
Q 1183 551 , 1176 551 
Q 1170 551 , 1170 550 
L 1170 548 
" fill="#D21010" />
<path d="
M 1120 543 
L 1129 543 
L 1129 546 
Q 1129 546 , 1133 547 
Q 1136 547 , 1145 547 
Q 1154 547 , 1157 547 
Q 1161 546 , 1161 546 
L 1161 543 
L 1170 543 
L 1170 546 
Q 1170 547 , 1164 547 
Q 1157 547 , 1145 547 
Q 1133 547 , 1126 547 
Q 1120 547 , 1120 546 
L 1120 543 
" fill="lightgray" />
<path d="
M 1212 547 
L 1212 546 
L 1198 546 
L 1198 545 
L 1220 545 
L 1220 547 
Q 1215 547 , 1209 547 
Q 1204 547 , 1198 547 
Q 1185 547 , 1178 547 
Q 1170 546 , 1170 545 
Q 1170 544 , 1178 544 
Q 1185 543 , 1198 543 
Q 1204 543 , 1209 543 
Q 1214 543 , 1219 543 
L 1219 544 
Q 1212 544 , 1208 544 
Q 1204 544 , 1199 544 
Q 1189 544 , 1183 544 
Q 1178 544 , 1178 545 
Q 1178 546 , 1183 547 
Q 1189 547 , 1199 547 
Q 1204 547 , 1207 547 
Q 1211 547 , 1212 547 
" fill="#F5C000" />
<path d="
M 1120 536 
L 1129 536 
L 1129 540 
Q 1129 541 , 1133 541 
Q 1136 542 , 1145 542 
Q 1154 542 , 1157 541 
Q 1161 541 , 1161 540 
L 1161 536 
L 1170 536 
L 1170 540 
Q 1170 541 , 1164 542 
Q 1157 542 , 1145 542 
Q 1133 542 , 1126 542 
Q 1120 541 , 1120 540 
L 1120 536 
" fill="lightgray" />
<path d="
M 1195 537 
L 1186 540 
L 1203 540 
L 1195 537 
M 1191 536 
L 1199 536 
L 1220 542 
L 1212 542 
L 1206 540 
L 1184 540 
L 1177 542 
L 1170 542 
L 1191 536 
" fill="#339541" />
<path d="
M 1162 528 
L 1162 513 
L 1148 513 
L 1148 507 
L 1170 507 
L 1170 531 
Q 1165 534 , 1159 535 
Q 1154 536 , 1148 536 
Q 1135 536 , 1128 528 
Q 1120 521 , 1120 508 
Q 1120 495 , 1128 487 
Q 1135 480 , 1148 480 
Q 1154 480 , 1159 481 
Q 1164 482 , 1169 484 
L 1169 492 
Q 1162 488 , 1158 488 
Q 1154 487 , 1149 487 
Q 1139 487 , 1133 492 
Q 1128 497 , 1128 508 
Q 1128 519 , 1133 524 
Q 1139 529 , 1149 529 
Q 1154 529 , 1157 529 
Q 1161 528 , 1162 528 
" fill="lightgray" />
<path d="
M 1220 486 
L 1220 494 
Q 1213 489 , 1209 488 
Q 1204 486 , 1199 486 
Q 1189 486 , 1184 492 
Q 1178 497 , 1178 508 
Q 1178 519 , 1184 524 
Q 1189 530 , 1199 530 
Q 1204 530 , 1209 528 
Q 1213 527 , 1220 521 
L 1220 530 
Q 1215 533 , 1209 534 
Q 1205 536 , 1199 536 
Q 1185 536 , 1178 528 
Q 1170 521 , 1170 508 
Q 1170 495 , 1178 488 
Q 1185 480 , 1199 480 
Q 1205 480 , 1210 481 
Q 1215 483 , 1220 486 
" fill="#545FFF" />
<path d="
M 1170 292 
L 1170 324 
Q 1163 304 , 1159 299 
Q 1154 293 , 1149 293 
Q 1139 293 , 1134 313 
Q 1128 334 , 1128 374 
Q 1128 415 , 1134 436 
Q 1139 457 , 1149 457 
Q 1154 457 , 1159 451 
Q 1163 446 , 1170 425 
L 1170 458 
Q 1165 470 , 1159 474 
Q 1155 479 , 1149 479 
Q 1135 479 , 1128 451 
Q 1120 423 , 1120 375 
Q 1120 327 , 1128 299 
Q 1135 270 , 1149 270 
Q 1155 270 , 1160 275 
Q 1165 280 , 1170 292 
" fill="lightgray" />
<path d="
M 1212 449 
L 1212 393 
L 1198 393 
L 1198 370 
L 1220 370 
L 1220 463 
Q 1215 472 , 1209 475 
Q 1204 479 , 1198 479 
Q 1185 479 , 1178 451 
Q 1170 423 , 1170 375 
Q 1170 326 , 1178 298 
Q 1185 270 , 1198 270 
Q 1204 270 , 1209 274 
Q 1214 277 , 1219 287 
L 1219 314 
Q 1212 302 , 1208 298 
Q 1204 295 , 1199 295 
Q 1189 295 , 1183 314 
Q 1178 334 , 1178 375 
Q 1178 416 , 1183 436 
Q 1189 456 , 1199 456 
Q 1204 456 , 1207 454 
Q 1211 452 , 1212 449 
" fill="#F5C000" />
<path d="
M 1325 550 
L 1325 550 
Q 1310 550 , 1302 550 
Q 1294 550 , 1284 550 
Q 1263 550 , 1253 550 
Q 1241 551 , 1241 552 
Q 1241 553 , 1253 553 
Q 1263 554 , 1284 554 
Q 1294 554 , 1302 554 
Q 1310 553 , 1325 553 
L 1325 554 
Q 1314 554 , 1304 554 
Q 1294 554 , 1283 554 
Q 1256 554 , 1241 554 
Q 1225 553 , 1225 552 
Q 1225 550 , 1241 550 
Q 1256 549 , 1283 549 
Q 1294 549 , 1304 549 
Q 1315 549 , 1325 550 
" fill="#545FFF" />
<path d="
M 1225 543 
L 1243 543 
L 1243 546 
Q 1243 547 , 1251 548 
Q 1258 548 , 1275 548 
Q 1292 548 , 1300 548 
Q 1307 547 , 1307 546 
L 1307 543 
L 1325 543 
L 1325 547 
Q 1325 548 , 1312 548 
Q 1300 549 , 1275 549 
Q 1251 549 , 1238 548 
Q 1225 548 , 1225 547 
L 1225 543 
" fill="#D21010" />
<path d="
M 1275 522 
L 1257 532 
L 1291 532 
L 1275 522 
M 1268 518 
L 1282 518 
L 1325 542 
L 1309 542 
L 1297 535 
L 1253 535 
L 1240 542 
L 1225 542 
L 1268 518 
" fill="#339541" />
<path d="
M 1309 514 
L 1309 508 
L 1280 508 
L 1280 505 
L 1325 505 
L 1325 516 
Q 1314 517 , 1303 517 
Q 1294 518 , 1282 518 
Q 1256 518 , 1240 514 
Q 1225 511 , 1225 505 
Q 1225 500 , 1240 496 
Q 1256 493 , 1282 493 
Q 1293 493 , 1302 493 
Q 1312 494 , 1322 495 
L 1322 498 
Q 1309 497 , 1301 496 
Q 1292 496 , 1283 496 
Q 1262 496 , 1251 498 
Q 1241 501 , 1241 505 
Q 1241 510 , 1251 513 
Q 1262 515 , 1283 515 
Q 1292 515 , 1299 515 
Q 1306 515 , 1309 514 
" fill="#F5C000" />
<path d="
M 1330 554 
L 1348 554 
L 1348 554 
Q 1348 554 , 1356 554 
Q 1363 554 , 1380 554 
Q 1397 554 , 1405 554 
Q 1412 554 , 1412 554 
L 1412 554 
L 1430 554 
L 1430 554 
Q 1430 554 , 1417 554 
Q 1405 554 , 1380 554 
Q 1356 554 , 1343 554 
Q 1330 554 , 1330 554 
L 1330 554 
" fill="#D21010" />
<path d="
M 1380 553 
L 1362 553 
L 1396 553 
L 1380 553 
M 1373 553 
L 1387 553 
L 1430 553 
L 1414 553 
L 1402 553 
L 1358 553 
L 1345 553 
L 1330 553 
L 1373 553 
" fill="#339541" />
<path d="
M 1414 552 
L 1414 552 
L 1385 552 
L 1385 552 
L 1430 552 
L 1430 552 
Q 1419 552 , 1408 552 
Q 1399 552 , 1387 552 
Q 1361 552 , 1345 552 
Q 1330 552 , 1330 552 
Q 1330 552 , 1345 552 
Q 1361 552 , 1387 552 
Q 1398 552 , 1407 552 
Q 1417 552 , 1427 552 
L 1427 552 
Q 1414 552 , 1406 552 
Q 1397 552 , 1388 552 
Q 1367 552 , 1356 552 
Q 1346 552 , 1346 552 
Q 1346 552 , 1356 552 
Q 1367 552 , 1388 552 
Q 1397 552 , 1404 552 
Q 1411 552 , 1414 552 
" fill="#F5C000" />
<path d="
M 1430 551 
L 1430 551 
Q 1415 551 , 1407 551 
Q 1399 551 , 1389 551 
Q 1368 551 , 1358 551 
Q 1346 551 , 1346 551 
Q 1346 551 , 1358 551 
Q 1368 551 , 1389 551 
Q 1399 551 , 1407 551 
Q 1415 551 , 1430 551 
L 1430 551 
Q 1419 551 , 1409 551 
Q 1399 551 , 1388 551 
Q 1361 551 , 1346 551 
Q 1330 551 , 1330 551 
Q 1330 551 , 1346 551 
Q 1361 551 , 1388 551 
Q 1399 551 , 1409 551 
Q 1420 551 , 1430 551 
" fill="#545FFF" />
<path d="M 65 168 L 65 555 " stroke="black" stroke-width="1.5"/>
<path d="M 55 555 L 65 555 " stroke="black" stroke-width="4"/>
<text text-anchor="end" x="50" y="555" font-size="50" alignment-baseline="middle">0</text>
<path d="M 55 362 L 65 362 " stroke="black" stroke-width="4"/>
<text text-anchor="end" x="50" y="362" font-size="50" alignment-baseline="middle">1</text>
<path d="M 55 168 L 65 168 " stroke="black" stroke-width="4"/>
<text text-anchor="end" x="50" y="168" font-size="50" alignment-baseline="middle">2</text>
<text text-anchor="middle" x="750" y="50" font-size="50" alignment-baseline="baseline"></text>
G<path d="
M 160 582 
L 126 595 
L 160 608 
L 157 611 
L 123 598 
L 123 623 
L 117 623 
L 117 599 
L 83 611 
L 80 608 
L 114 595 
L 80 582 
L 83 579 
L 117 591 
L 117 567 
L 123 567 
L 123 591 
L 157 579 
L 160 582 
" fill="black" />
<path d="
" fill="black" />
<path d="
M 211 567 
L 238 567 
L 238 623 
L 211 623 
L 211 567 
" fill="black" />
<path d="
" fill="black" />
<path d="
" fill="black" />
<path d="
M 316 567 
L 343 567 
L 343 623 
L 316 623 
L 316 567 
" fill="black" />
<path d="
" fill="black" />
<path d="
" fill="black" />
<path d="
M 421 567 
L 448 567 
L 448 623 
L 421 623 
L 421 567 
" fill="black" />
<path d="
" fill="black" />
<path d="
M 580 567 
Q 551 574 , 538 581 
Q 525 588 , 525 595 
Q 525 602 , 538 609 
Q 551 616 , 580 623 
L 556 623 
Q 528 616 , 514 609 
Q 500 602 , 500 595 
Q 500 588 , 514 581 
Q 528 574 , 556 567 
L 580 567 
" fill="black" />
<path d="
" fill="black" />
<path d="
M 622 567 
L 642 567 
L 642 623 
L 622 623 
L 622 567 
" fill="black" />
<path d="
" fill="black" />
<path d="
M 672 567 
L 692 567 
L 692 571 
L 680 623 
L 677 623 
L 689 571 
L 672 571 
L 672 567 
" fill="black" />
<path d="
M 790 582 
L 756 595 
L 790 608 
L 787 611 
L 753 598 
L 753 623 
L 747 623 
L 747 599 
L 713 611 
L 710 608 
L 744 595 
L 710 582 
L 713 579 
L 747 591 
L 747 567 
L 753 567 
L 753 591 
L 787 579 
L 790 582 
" fill="black" />
<path d="
" fill="black" />
<path d="
M 841 567 
L 868 567 
L 868 623 
L 841 623 
L 841 567 
" fill="black" />
<path d="
" fill="black" />
<path d="
" fill="black" />
<path d="
M 946 567 
L 973 567 
L 973 623 
L 946 623 
L 946 567 
" fill="black" />
<path d="
" fill="black" />
<path d="
" fill="black" />
<path d="
M 1051 567 
L 1078 567 
L 1078 623 
L 1051 623 
L 1051 567 
" fill="black" />
<path d="
" fill="black" />
<path d="
M 1130 567 
L 1154 567 
Q 1182 574 , 1196 581 
Q 1210 588 , 1210 595 
Q 1210 602 , 1196 609 
Q 1182 616 , 1154 623 
L 1130 623 
Q 1159 616 , 1172 609 
Q 1185 602 , 1185 595 
Q 1185 588 , 1172 581 
Q 1159 574 , 1130 567 
" fill="black" />
<path d="
" fill="black" />
<path d="
M 1261 567 
L 1288 567 
L 1288 623 
L 1261 623 
L 1261 567 
" fill="black" />
<path d="
" fill="black" />
<path d="
M 1420 582 
L 1386 595 
L 1420 608 
L 1417 611 
L 1383 598 
L 1383 623 
L 1377 623 
L 1377 599 
L 1343 611 
L 1340 608 
L 1374 595 
L 1340 582 
L 1343 579 
L 1377 591 
L 1377 567 
L 1383 567 
L 1383 591 
L 1417 579 
L 1420 582 
" fill="black" />
</svg>
