<svg xmlns="http://www.w3.org/2000/svg"
viewBox="0 0 1015 635">
<path d="
M 70 554 
L 88 554 
L 88 554 
Q 88 554 , 96 554 
Q 103 554 , 120 554 
Q 137 554 , 145 554 
Q 152 554 , 152 554 
L 152 554 
L 170 554 
L 170 554 
Q 170 554 , 157 554 
Q 145 554 , 120 554 
Q 96 554 , 83 554 
Q 70 554 , 70 554 
L 70 554 
" fill="#D21010" />
<path d="
M 120 553 
L 102 553 
L 136 553 
L 120 553 
M 113 553 
L 127 553 
L 170 553 
L 154 553 
L 142 553 
L 98 553 
L 85 553 
L 70 553 
L 113 553 
" fill="#339541" />
<path d="
M 154 552 
L 154 552 
L 125 552 
L 125 552 
L 170 552 
L 170 552 
Q 159 552 , 148 552 
Q 139 552 , 127 552 
Q 101 552 , 85 552 
Q 70 552 , 70 552 
Q 70 552 , 85 552 
Q 101 552 , 127 552 
Q 138 552 , 147 552 
Q 157 552 , 167 552 
L 167 552 
Q 154 552 , 146 552 
Q 137 552 , 128 552 
Q 107 552 , 96 552 
Q 86 552 , 86 552 
Q 86 552 , 96 552 
Q 107 552 , 128 552 
Q 137 552 , 144 552 
Q 151 552 , 154 552 
" fill="#F5C000" />
<path d="
M 170 551 
L 170 551 
Q 155 551 , 147 551 
Q 139 551 , 129 551 
Q 108 551 , 98 551 
Q 86 551 , 86 551 
Q 86 551 , 98 551 
Q 108 551 , 129 551 
Q 139 551 , 147 551 
Q 155 551 , 170 551 
L 170 551 
Q 159 551 , 149 551 
Q 139 551 , 128 551 
Q 101 551 , 86 551 
Q 70 551 , 70 551 
Q 70 551 , 86 551 
Q 101 551 , 128 551 
Q 139 551 , 149 551 
Q 160 551 , 170 551 
" fill="#545FFF" />
<path d="
M 225 550 
L 207 552 
L 241 552 
L 225 550 
M 218 549 
L 232 549 
L 275 555 
L 259 555 
L 247 553 
L 203 553 
L 190 555 
L 175 555 
L 218 549 
" fill="#339541" />
<path d="
M 175 538 
L 193 538 
L 193 544 
Q 193 546 , 201 547 
Q 208 547 , 225 547 
Q 242 547 , 250 547 
Q 257 546 , 257 544 
L 257 538 
L 275 538 
L 275 544 
Q 275 546 , 262 547 
Q 250 548 , 225 548 
Q 201 548 , 188 547 
Q 175 546 , 175 544 
L 175 538 
" fill="#D21010" />
<path d="
M 259 534 
L 259 529 
L 230 529 
L 230 526 
L 275 526 
L 275 536 
Q 264 537 , 253 537 
Q 244 538 , 232 538 
Q 206 538 , 190 535 
Q 175 532 , 175 527 
Q 175 522 , 190 519 
Q 206 516 , 232 516 
Q 243 516 , 252 516 
Q 262 517 , 272 518 
L 272 521 
Q 259 519 , 251 519 
Q 242 519 , 233 519 
Q 212 519 , 201 521 
Q 191 523 , 191 527 
Q 191 531 , 201 533 
Q 212 535 , 233 535 
Q 242 535 , 249 535 
Q 256 535 , 259 534 
" fill="#F5C000" />
<path d="
M 275 483 
L 275 488 
Q 260 485 , 252 484 
Q 244 483 , 234 483 
Q 213 483 , 203 486 
Q 191 490 , 191 497 
Q 191 504 , 203 508 
Q 213 511 , 234 511 
Q 244 511 , 252 510 
Q 260 509 , 275 506 
L 275 511 
Q 264 513 , 254 514 
Q 244 515 , 233 515 
Q 206 515 , 191 510 
Q 175 505 , 175 497 
Q 175 489 , 191 484 
Q 206 479 , 233 479 
Q 244 479 , 254 480 
Q 265 481 , 275 483 
" fill="#545FFF" />
<path d="
M 380 552 
L 380 553 
Q 365 552 , 357 552 
Q 349 552 , 339 552 
Q 318 552 , 308 552 
Q 296 553 , 296 553 
Q 296 554 , 308 554 
Q 318 554 , 339 554 
Q 349 554 , 357 554 
Q 365 554 , 380 554 
L 380 554 
Q 369 554 , 359 554 
Q 349 554 , 338 554 
Q 311 554 , 296 554 
Q 280 554 , 280 553 
Q 280 553 , 296 552 
Q 311 552 , 338 552 
Q 349 552 , 359 552 
Q 370 552 , 380 552 
" fill="#545FFF" />
<path d="
M 330 537 
L 312 545 
L 346 545 
L 330 537 
M 323 534 
L 337 534 
L 380 552 
L 364 552 
L 352 547 
L 308 547 
L 295 552 
L 280 552 
L 323 534 
" fill="#339541" />
<path d="
M 280 513 
L 298 513 
L 298 525 
Q 298 528 , 306 530 
Q 313 531 , 330 531 
Q 347 531 , 355 530 
Q 362 528 , 362 525 
L 362 513 
L 380 513 
L 380 525 
Q 380 529 , 367 531 
Q 355 533 , 330 533 
Q 306 533 , 293 531 
Q 280 529 , 280 525 
L 280 513 
" fill="#D21010" />
<path d="
M 364 509 
L 364 503 
L 335 503 
L 335 501 
L 380 501 
L 380 510 
Q 369 511 , 358 512 
Q 349 512 , 337 512 
Q 311 512 , 295 509 
Q 280 506 , 280 501 
Q 280 496 , 295 493 
Q 311 490 , 337 490 
Q 348 490 , 357 490 
Q 367 491 , 377 492 
L 377 495 
Q 364 493 , 356 493 
Q 347 493 , 338 493 
Q 317 493 , 306 495 
Q 296 497 , 296 501 
Q 296 505 , 306 508 
Q 317 510 , 338 510 
Q 347 510 , 354 509 
Q 361 509 , 364 509 
" fill="#F5C000" />
<path d="
M 469 554 
L 469 553 
L 440 553 
L 440 553 
L 485 553 
L 485 554 
Q 474 554 , 463 554 
Q 454 554 , 442 554 
Q 416 554 , 400 554 
Q 385 553 , 385 553 
Q 385 552 , 400 551 
Q 416 551 , 442 551 
Q 453 551 , 462 551 
Q 472 551 , 482 551 
L 482 552 
Q 469 551 , 461 551 
Q 452 551 , 443 551 
Q 422 551 , 411 552 
Q 401 552 , 401 553 
Q 401 553 , 411 554 
Q 422 554 , 443 554 
Q 452 554 , 459 554 
Q 466 554 , 469 554 
" fill="#F5C000" />
<path d="
M 385 539 
L 403 539 
L 403 546 
Q 403 548 , 411 548 
Q 418 549 , 435 549 
Q 452 549 , 460 548 
Q 467 548 , 467 546 
L 467 539 
L 485 539 
L 485 546 
Q 485 548 , 472 549 
Q 460 550 , 435 550 
Q 411 550 , 398 549 
Q 385 548 , 385 546 
L 385 539 
" fill="#D21010" />
<path d="
M 435 528 
L 417 533 
L 451 533 
L 435 528 
M 428 525 
L 442 525 
L 485 539 
L 469 539 
L 457 535 
L 413 535 
L 400 539 
L 385 539 
L 428 525 
" fill="#339541" />
<path d="
M 485 509 
L 485 512 
Q 470 510 , 462 509 
Q 454 509 , 444 509 
Q 423 509 , 413 511 
Q 401 512 , 401 515 
Q 401 519 , 413 521 
Q 423 523 , 444 523 
Q 454 523 , 462 522 
Q 470 522 , 485 520 
L 485 523 
Q 474 524 , 464 524 
Q 454 525 , 443 525 
Q 416 525 , 401 522 
Q 385 520 , 385 516 
Q 385 512 , 401 509 
Q 416 507 , 443 507 
Q 454 507 , 464 507 
Q 475 508 , 485 509 
" fill="#545FFF" />
<path d="
M 490 545 
L 508 545 
L 508 551 
Q 508 553 , 516 553 
Q 523 554 , 540 554 
Q 557 554 , 565 553 
Q 572 553 , 572 551 
L 572 545 
L 590 545 
L 590 551 
Q 590 553 , 577 554 
Q 565 555 , 540 555 
Q 516 555 , 503 554 
Q 490 553 , 490 551 
L 490 545 
" fill="#D21010" />
<path d="
M 574 542 
L 574 538 
L 545 538 
L 545 536 
L 590 536 
L 590 543 
Q 579 544 , 568 544 
Q 559 545 , 547 545 
Q 521 545 , 505 542 
Q 490 540 , 490 537 
Q 490 533 , 505 531 
Q 521 529 , 547 529 
Q 558 529 , 567 529 
Q 577 530 , 587 530 
L 587 532 
Q 574 531 , 566 531 
Q 557 531 , 548 531 
Q 527 531 , 516 532 
Q 506 534 , 506 537 
Q 506 540 , 516 541 
Q 527 543 , 548 543 
Q 557 543 , 564 543 
Q 571 542 , 574 542 
" fill="#F5C000" />
<path d="
M 540 515 
L 522 522 
L 556 522 
L 540 515 
M 533 512 
L 547 512 
L 590 529 
L 574 529 
L 562 524 
L 518 524 
L 505 529 
L 490 529 
L 533 512 
" fill="#339541" />
<path d="
M 590 283 
L 590 322 
Q 575 297 , 567 291 
Q 559 284 , 549 284 
Q 528 284 , 518 309 
Q 506 334 , 506 383 
Q 506 433 , 518 459 
Q 528 484 , 549 484 
Q 559 484 , 567 477 
Q 575 470 , 590 445 
L 590 486 
Q 579 500 , 569 506 
Q 559 511 , 548 511 
Q 521 511 , 506 477 
Q 490 442 , 490 384 
Q 490 325 , 506 291 
Q 521 256 , 548 256 
Q 559 256 , 569 262 
Q 580 268 , 590 283 
" fill="#545FFF" />
<path d="
M 595 553 
L 613 553 
L 613 554 
Q 613 554 , 621 554 
Q 628 554 , 645 554 
Q 662 554 , 670 554 
Q 677 554 , 677 554 
L 677 553 
L 695 553 
L 695 554 
Q 695 554 , 682 554 
Q 670 554 , 645 554 
Q 621 554 , 608 554 
Q 595 554 , 595 554 
L 595 553 
" fill="#D21010" />
<path d="
M 695 532 
L 695 536 
Q 680 534 , 672 533 
Q 664 533 , 654 533 
Q 633 533 , 623 535 
Q 611 537 , 611 541 
Q 611 546 , 623 548 
Q 633 550 , 654 550 
Q 664 550 , 672 550 
Q 680 549 , 695 547 
L 695 551 
Q 684 552 , 674 552 
Q 664 553 , 653 553 
Q 626 553 , 611 550 
Q 595 547 , 595 541 
Q 595 536 , 611 533 
Q 626 530 , 653 530 
Q 664 530 , 674 531 
Q 685 531 , 695 532 
" fill="#545FFF" />
<path d="
M 645 508 
L 627 519 
L 661 519 
L 645 508 
M 638 503 
L 652 503 
L 695 530 
L 679 530 
L 667 522 
L 623 522 
L 610 530 
L 595 530 
L 638 503 
" fill="#339541" />
<path d="
M 679 497 
L 679 488 
L 650 488 
L 650 484 
L 695 484 
L 695 500 
Q 684 501 , 673 502 
Q 664 502 , 652 502 
Q 626 502 , 610 498 
Q 595 493 , 595 485 
Q 595 477 , 610 473 
Q 626 468 , 652 468 
Q 663 468 , 672 469 
Q 682 469 , 692 471 
L 692 475 
Q 679 473 , 671 473 
Q 662 472 , 653 472 
Q 632 472 , 621 475 
Q 611 478 , 611 485 
Q 611 492 , 621 495 
Q 632 498 , 653 498 
Q 662 498 , 669 498 
Q 676 498 , 679 497 
" fill="#F5C000" />
<path d="
M 800 550 
L 800 550 
Q 785 550 , 777 550 
Q 769 550 , 759 550 
Q 738 550 , 728 550 
Q 716 551 , 716 552 
Q 716 553 , 728 553 
Q 738 554 , 759 554 
Q 769 554 , 777 553 
Q 785 553 , 800 553 
L 800 554 
Q 789 554 , 779 554 
Q 769 554 , 758 554 
Q 731 554 , 716 553 
Q 700 553 , 700 552 
Q 700 550 , 716 550 
Q 731 549 , 758 549 
Q 769 549 , 779 549 
Q 790 549 , 800 550 
" fill="#545FFF" />
<path d="
M 784 548 
L 784 546 
L 755 546 
L 755 546 
L 800 546 
L 800 548 
Q 789 548 , 778 548 
Q 769 548 , 757 548 
Q 731 548 , 715 548 
Q 700 547 , 700 546 
Q 700 544 , 715 544 
Q 731 543 , 757 543 
Q 768 543 , 777 543 
Q 787 543 , 797 543 
L 797 544 
Q 784 544 , 776 544 
Q 767 544 , 758 544 
Q 737 544 , 726 544 
Q 716 545 , 716 546 
Q 716 547 , 726 547 
Q 737 548 , 758 548 
Q 767 548 , 774 548 
Q 781 548 , 784 548 
" fill="#F5C000" />
<path d="
M 750 487 
L 732 515 
L 766 515 
L 750 487 
M 743 475 
L 757 475 
L 800 542 
L 784 542 
L 772 523 
L 728 523 
L 715 542 
L 700 542 
L 743 475 
" fill="#339541" />
<path d="
M 700 380 
L 718 380 
L 718 436 
Q 718 451 , 726 458 
Q 733 464 , 750 464 
Q 767 464 , 775 458 
Q 782 451 , 782 436 
L 782 380 
L 800 380 
L 800 437 
Q 800 455 , 787 465 
Q 775 474 , 750 474 
Q 726 474 , 713 465 
Q 700 455 , 700 437 
L 700 380 
" fill="#D21010" />
<path d="
M 805 549 
L 823 549 
L 823 552 
Q 823 553 , 831 553 
Q 838 554 , 855 554 
Q 872 554 , 880 553 
Q 887 553 , 887 552 
L 887 549 
L 905 549 
L 905 552 
Q 905 553 , 892 554 
Q 880 554 , 855 554 
Q 831 554 , 818 554 
Q 805 553 , 805 552 
L 805 549 
" fill="#D21010" />
<path d="
M 855 544 
L 837 546 
L 871 546 
L 855 544 
M 848 543 
L 862 543 
L 905 548 
L 889 548 
L 877 547 
L 833 547 
L 820 548 
L 805 548 
L 848 543 
" fill="#339541" />
<path d="
M 905 502 
L 905 509 
Q 890 504 , 882 503 
Q 874 502 , 864 502 
Q 843 502 , 833 506 
Q 821 511 , 821 519 
Q 821 528 , 833 533 
Q 843 537 , 864 537 
Q 874 537 , 882 536 
Q 890 535 , 905 530 
L 905 538 
Q 894 540 , 884 541 
Q 874 542 , 863 542 
Q 836 542 , 821 536 
Q 805 530 , 805 520 
Q 805 509 , 821 503 
Q 836 497 , 863 497 
Q 874 497 , 884 498 
Q 895 499 , 905 502 
" fill="#545FFF" />
<path d="
M 889 465 
L 889 407 
L 860 407 
L 860 383 
L 905 383 
L 905 480 
Q 894 489 , 883 492 
Q 874 496 , 862 496 
Q 836 496 , 820 467 
Q 805 439 , 805 388 
Q 805 338 , 820 309 
Q 836 280 , 862 280 
Q 873 280 , 882 284 
Q 892 288 , 902 298 
L 902 325 
Q 889 313 , 881 309 
Q 872 306 , 863 306 
Q 842 306 , 831 326 
Q 821 346 , 821 388 
Q 821 431 , 831 452 
Q 842 472 , 863 472 
Q 872 472 , 879 470 
Q 886 468 , 889 465 
" fill="#F5C000" />
<path d="
M 910 554 
L 928 554 
L 928 554 
Q 928 554 , 936 554 
Q 943 554 , 960 554 
Q 977 554 , 985 554 
Q 992 554 , 992 554 
L 992 554 
L 1010 554 
L 1010 554 
Q 1010 554 , 997 554 
Q 985 554 , 960 554 
Q 936 554 , 923 554 
Q 910 554 , 910 554 
L 910 554 
" fill="#D21010" />
<path d="
M 960 553 
L 942 553 
L 976 553 
L 960 553 
M 953 553 
L 967 553 
L 1010 553 
L 994 553 
L 982 553 
L 938 553 
L 925 553 
L 910 553 
L 953 553 
" fill="#339541" />
<path d="
M 994 552 
L 994 552 
L 965 552 
L 965 552 
L 1010 552 
L 1010 552 
Q 999 552 , 988 552 
Q 979 552 , 967 552 
Q 941 552 , 925 552 
Q 910 552 , 910 552 
Q 910 552 , 925 552 
Q 941 552 , 967 552 
Q 978 552 , 987 552 
Q 997 552 , 1007 552 
L 1007 552 
Q 994 552 , 986 552 
Q 977 552 , 968 552 
Q 947 552 , 936 552 
Q 926 552 , 926 552 
Q 926 552 , 936 552 
Q 947 552 , 968 552 
Q 977 552 , 984 552 
Q 991 552 , 994 552 
" fill="#F5C000" />
<path d="
M 1010 551 
L 1010 551 
Q 995 551 , 987 551 
Q 979 551 , 969 551 
Q 948 551 , 938 551 
Q 926 551 , 926 551 
Q 926 551 , 938 551 
Q 948 551 , 969 551 
Q 979 551 , 987 551 
Q 995 551 , 1010 551 
L 1010 551 
Q 999 551 , 989 551 
Q 979 551 , 968 551 
Q 941 551 , 926 551 
Q 910 551 , 910 551 
Q 910 551 , 926 551 
Q 941 551 , 968 551 
Q 979 551 , 989 551 
Q 1000 551 , 1010 551 
" fill="#545FFF" />
<path d="M 65 55 L 65 555 " stroke="black" stroke-width="1.5"/>
<path d="M 55 555 L 65 555 " stroke="black" stroke-width="4"/>
<text text-anchor="end" x="50" y="555" font-size="50" alignment-baseline="middle">0</text>
<path d="M 55 305 L 65 305 " stroke="black" stroke-width="4"/>
<text text-anchor="end" x="50" y="305" font-size="50" alignment-baseline="middle">1</text>
<path d="M 55 55 L 65 55 " stroke="black" stroke-width="4"/>
<text text-anchor="end" x="50" y="55" font-size="50" alignment-baseline="middle">2</text>
<text text-anchor="middle" x="540" y="50" font-size="50" alignment-baseline="baseline"></text>
G<path d="
M 160 582 
L 126 595 
L 160 608 
L 157 611 
L 123 598 
L 123 623 
L 117 623 
L 117 599 
L 83 611 
L 80 608 
L 114 595 
L 80 582 
L 83 579 
L 117 591 
L 117 567 
L 123 567 
L 123 591 
L 157 579 
L 160 582 
" fill="black" />
<path d="
" fill="black" />
<path d="
M 211 567 
L 238 567 
L 238 623 
L 211 623 
L 211 567 
" fill="black" />
<path d="
" fill="black" />
<path d="
" fill="black" />
<path d="
M 316 567 
L 343 567 
L 343 623 
L 316 623 
L 316 567 
" fill="black" />
<path d="
" fill="black" />
<path d="
" fill="black" />
<path d="
M 421 567 
L 448 567 
L 448 623 
L 421 623 
L 421 567 
" fill="black" />
<path d="
" fill="black" />
<path d="
" fill="black" />
<path d="
M 526 567 
L 553 567 
L 553 623 
L 526 623 
L 526 567 
" fill="black" />
<path d="
" fill="black" />
<path d="
" fill="black" />
<path d="
M 631 567 
L 658 567 
L 658 623 
L 631 623 
L 631 567 
" fill="black" />
<path d="
" fill="black" />
<path d="
" fill="black" />
<path d="
M 736 567 
L 763 567 
L 763 623 
L 736 623 
L 736 567 
" fill="black" />
<path d="
" fill="black" />
<path d="
" fill="black" />
<path d="
M 841 567 
L 868 567 
L 868 623 
L 841 623 
L 841 567 
" fill="black" />
<path d="
" fill="black" />
<path d="
M 1000 582 
L 966 595 
L 1000 608 
L 997 611 
L 963 598 
L 963 623 
L 957 623 
L 957 599 
L 923 611 
L 920 608 
L 954 595 
L 920 582 
L 923 579 
L 957 591 
L 957 567 
L 963 567 
L 963 591 
L 997 579 
L 1000 582 
" fill="black" />
</svg>
