<svg xmlns="http://www.w3.org/2000/svg"
viewBox="0 0 1330 635">
<path d="
M 120 554 
L 102 554 
L 136 554 
L 120 554 
M 113 554 
L 127 554 
L 170 555 
L 154 555 
L 142 555 
L 98 555 
L 85 555 
L 70 555 
L 113 554 
" fill="#339541" />
<path d="
M 70 553 
L 88 553 
L 88 553 
Q 88 554 , 96 554 
Q 103 554 , 120 554 
Q 137 554 , 145 554 
Q 152 554 , 152 553 
L 152 553 
L 170 553 
L 170 553 
Q 170 554 , 157 554 
Q 145 554 , 120 554 
Q 96 554 , 83 554 
Q 70 554 , 70 553 
L 70 553 
" fill="#D21010" />
<path d="
M 170 552 
L 170 552 
Q 155 552 , 147 552 
Q 139 552 , 129 552 
Q 108 552 , 98 552 
Q 86 552 , 86 552 
Q 86 553 , 98 553 
Q 108 553 , 129 553 
Q 139 553 , 147 553 
Q 155 553 , 170 553 
L 170 553 
Q 159 553 , 149 553 
Q 139 553 , 128 553 
Q 101 553 , 86 553 
Q 70 553 , 70 552 
Q 70 552 , 86 552 
Q 101 552 , 128 552 
Q 139 552 , 149 552 
Q 160 552 , 170 552 
" fill="#545FFF" />
<path d="
M 154 551 
L 154 551 
L 125 551 
L 125 550 
L 170 550 
L 170 551 
Q 159 551 , 148 551 
Q 139 551 , 127 551 
Q 101 551 , 85 551 
Q 70 551 , 70 551 
Q 70 550 , 85 550 
Q 101 550 , 127 550 
Q 138 550 , 147 550 
Q 157 550 , 167 550 
L 167 550 
Q 154 550 , 146 550 
Q 137 550 , 128 550 
Q 107 550 , 96 550 
Q 86 550 , 86 551 
Q 86 551 , 96 551 
Q 107 551 , 128 551 
Q 137 551 , 144 551 
Q 151 551 , 154 551 
" fill="#F5C000" />
<path d="
M 275 551 
L 275 552 
Q 260 552 , 252 551 
Q 244 551 , 234 551 
Q 213 551 , 203 552 
Q 191 552 , 191 552 
Q 191 553 , 203 554 
Q 213 554 , 234 554 
Q 244 554 , 252 554 
Q 260 554 , 275 553 
L 275 554 
Q 264 554 , 254 554 
Q 244 554 , 233 554 
Q 206 554 , 191 554 
Q 175 553 , 175 553 
Q 175 552 , 191 551 
Q 206 551 , 233 551 
Q 244 551 , 254 551 
Q 265 551 , 275 551 
" fill="#545FFF" />
<path d="
M 225 547 
L 207 549 
L 241 549 
L 225 547 
M 218 546 
L 232 546 
L 275 551 
L 259 551 
L 247 549 
L 203 549 
L 190 551 
L 175 551 
L 218 546 
" fill="#339541" />
<path d="
M 175 540 
L 193 540 
L 193 543 
Q 193 544 , 201 544 
Q 208 545 , 225 545 
Q 242 545 , 250 544 
Q 257 544 , 257 543 
L 257 540 
L 275 540 
L 275 543 
Q 275 544 , 262 545 
Q 250 545 , 225 545 
Q 201 545 , 188 545 
Q 175 544 , 175 543 
L 175 540 
" fill="#D21010" />
<path d="
M 259 539 
L 259 536 
L 230 536 
L 230 535 
L 275 535 
L 275 539 
Q 264 540 , 253 540 
Q 244 540 , 232 540 
Q 206 540 , 190 539 
Q 175 537 , 175 535 
Q 175 533 , 190 532 
Q 206 531 , 232 531 
Q 243 531 , 252 531 
Q 262 531 , 272 532 
L 272 533 
Q 259 532 , 251 532 
Q 242 532 , 233 532 
Q 212 532 , 201 533 
Q 191 534 , 191 535 
Q 191 537 , 201 538 
Q 212 539 , 233 539 
Q 242 539 , 249 539 
Q 256 539 , 259 539 
" fill="#F5C000" />
<path d="
M 380 542 
L 380 544 
Q 365 542 , 357 542 
Q 349 542 , 339 542 
Q 318 542 , 308 543 
Q 296 544 , 296 547 
Q 296 550 , 308 551 
Q 318 553 , 339 553 
Q 349 553 , 357 552 
Q 365 552 , 380 550 
L 380 553 
Q 369 553 , 359 554 
Q 349 554 , 338 554 
Q 311 554 , 296 552 
Q 280 550 , 280 547 
Q 280 544 , 296 542 
Q 311 540 , 338 540 
Q 349 540 , 359 540 
Q 370 541 , 380 542 
" fill="#545FFF" />
<path d="
M 330 526 
L 312 533 
L 346 533 
L 330 526 
M 323 523 
L 337 523 
L 380 539 
L 364 539 
L 352 534 
L 308 534 
L 295 539 
L 280 539 
L 323 523 
" fill="#339541" />
<path d="
M 280 504 
L 298 504 
L 298 515 
Q 298 518 , 306 519 
Q 313 520 , 330 520 
Q 347 520 , 355 519 
Q 362 518 , 362 515 
L 362 504 
L 380 504 
L 380 515 
Q 380 518 , 367 520 
Q 355 522 , 330 522 
Q 306 522 , 293 520 
Q 280 518 , 280 515 
L 280 504 
" fill="#D21010" />
<path d="
M 364 487 
L 364 456 
L 335 456 
L 335 444 
L 380 444 
L 380 495 
Q 369 500 , 358 502 
Q 349 503 , 337 504 
Q 311 504 , 295 488 
Q 280 473 , 280 446 
Q 280 420 , 295 404 
Q 311 389 , 337 389 
Q 348 389 , 357 391 
Q 367 393 , 377 398 
L 377 413 
Q 364 406 , 356 405 
Q 347 403 , 338 403 
Q 317 403 , 306 413 
Q 296 424 , 296 446 
Q 296 469 , 306 480 
Q 317 491 , 338 491 
Q 347 491 , 354 490 
Q 361 489 , 364 487 
" fill="#F5C000" />
<path d="
M 485 552 
L 485 553 
Q 470 552 , 462 552 
Q 454 552 , 444 552 
Q 423 552 , 413 553 
Q 401 553 , 401 553 
Q 401 554 , 413 554 
Q 423 554 , 444 554 
Q 454 554 , 462 554 
Q 470 554 , 485 554 
L 485 554 
Q 474 554 , 464 555 
Q 454 555 , 443 555 
Q 416 555 , 401 554 
Q 385 554 , 385 553 
Q 385 553 , 401 552 
Q 416 552 , 443 552 
Q 454 552 , 464 552 
Q 475 552 , 485 552 
" fill="#545FFF" />
<path d="
M 469 551 
L 469 549 
L 440 549 
L 440 549 
L 485 549 
L 485 551 
Q 474 552 , 463 552 
Q 454 552 , 442 552 
Q 416 552 , 400 551 
Q 385 550 , 385 549 
Q 385 548 , 400 547 
Q 416 546 , 442 546 
Q 453 546 , 462 546 
Q 472 546 , 482 546 
L 482 547 
Q 469 547 , 461 547 
Q 452 547 , 443 547 
Q 422 547 , 411 547 
Q 401 548 , 401 549 
Q 401 550 , 411 551 
Q 422 551 , 443 551 
Q 452 551 , 459 551 
Q 466 551 , 469 551 
" fill="#F5C000" />
<path d="
M 385 538 
L 403 538 
L 403 542 
Q 403 543 , 411 544 
Q 418 544 , 435 544 
Q 452 544 , 460 544 
Q 467 543 , 467 542 
L 467 538 
L 485 538 
L 485 542 
Q 485 544 , 472 544 
Q 460 545 , 435 545 
Q 411 545 , 398 544 
Q 385 544 , 385 542 
L 385 538 
" fill="#D21010" />
<path d="
M 435 531 
L 417 534 
L 451 534 
L 435 531 
M 428 530 
L 442 530 
L 485 537 
L 469 537 
L 457 535 
L 413 535 
L 400 537 
L 385 537 
L 428 530 
" fill="#339541" />
<path d="
M 490 548 
L 508 548 
L 508 552 
Q 508 553 , 516 553 
Q 523 554 , 540 554 
Q 557 554 , 565 553 
Q 572 553 , 572 552 
L 572 548 
L 590 548 
L 590 552 
Q 590 553 , 577 554 
Q 565 554 , 540 554 
Q 516 554 , 503 554 
Q 490 553 , 490 552 
L 490 548 
" fill="#D21010" />
<path d="
M 540 542 
L 522 545 
L 556 545 
L 540 542 
M 533 541 
L 547 541 
L 590 547 
L 574 547 
L 562 546 
L 518 546 
L 505 547 
L 490 547 
L 533 541 
" fill="#339541" />
<path d="
M 590 527 
L 590 529 
Q 575 527 , 567 527 
Q 559 527 , 549 527 
Q 528 527 , 518 528 
Q 506 530 , 506 533 
Q 506 536 , 518 537 
Q 528 539 , 549 539 
Q 559 539 , 567 538 
Q 575 538 , 590 536 
L 590 539 
Q 579 540 , 569 540 
Q 559 540 , 548 540 
Q 521 540 , 506 538 
Q 490 536 , 490 533 
Q 490 529 , 506 527 
Q 521 525 , 548 525 
Q 559 525 , 569 525 
Q 580 526 , 590 527 
" fill="#545FFF" />
<path d="
M 574 475 
L 574 381 
L 545 381 
L 545 342 
L 590 342 
L 590 498 
Q 579 513 , 568 518 
Q 559 524 , 547 525 
Q 521 525 , 505 478 
Q 490 432 , 490 350 
Q 490 268 , 505 222 
Q 521 175 , 547 175 
Q 558 175 , 567 181 
Q 577 188 , 587 203 
L 587 248 
Q 574 228 , 566 222 
Q 557 217 , 548 217 
Q 527 217 , 516 249 
Q 506 282 , 506 350 
Q 506 419 , 516 453 
Q 527 486 , 548 486 
Q 557 486 , 564 482 
Q 571 479 , 574 475 
" fill="#F5C000" />
<path d="
M 595 551 
L 613 551 
L 613 553 
Q 613 554 , 621 554 
Q 628 554 , 645 554 
Q 662 554 , 670 554 
Q 677 554 , 677 553 
L 677 551 
L 695 551 
L 695 553 
Q 695 554 , 682 554 
Q 670 554 , 645 554 
Q 621 554 , 608 554 
Q 595 554 , 595 553 
L 595 551 
" fill="#D21010" />
<path d="
M 679 549 
L 679 548 
L 650 548 
L 650 548 
L 695 548 
L 695 550 
Q 684 550 , 673 550 
Q 664 550 , 652 550 
Q 626 550 , 610 549 
Q 595 549 , 595 548 
Q 595 547 , 610 547 
Q 626 546 , 652 546 
Q 663 546 , 672 546 
Q 682 546 , 692 546 
L 692 547 
Q 679 547 , 671 547 
Q 662 546 , 653 546 
Q 632 546 , 621 547 
Q 611 547 , 611 548 
Q 611 549 , 621 549 
Q 632 550 , 653 550 
Q 662 550 , 669 550 
Q 676 549 , 679 549 
" fill="#F5C000" />
<path d="
M 645 541 
L 627 543 
L 661 543 
L 645 541 
M 638 540 
L 652 540 
L 695 545 
L 679 545 
L 667 544 
L 623 544 
L 610 545 
L 595 545 
L 638 540 
" fill="#339541" />
<path d="
M 695 532 
L 695 533 
Q 680 532 , 672 532 
Q 664 532 , 654 532 
Q 633 532 , 623 533 
Q 611 533 , 611 535 
Q 611 537 , 623 537 
Q 633 538 , 654 538 
Q 664 538 , 672 538 
Q 680 538 , 695 537 
L 695 538 
Q 684 539 , 674 539 
Q 664 539 , 653 539 
Q 626 539 , 611 538 
Q 595 537 , 595 535 
Q 595 533 , 611 532 
Q 626 531 , 653 531 
Q 664 531 , 674 531 
Q 685 531 , 695 532 
" fill="#545FFF" />
<path d="
M 784 554 
L 784 553 
L 755 553 
L 755 552 
L 800 552 
L 800 554 
Q 789 555 , 778 555 
Q 769 555 , 757 555 
Q 731 555 , 715 554 
Q 700 553 , 700 552 
Q 700 551 , 715 551 
Q 731 550 , 757 550 
Q 768 550 , 777 550 
Q 787 550 , 797 550 
L 797 551 
Q 784 551 , 776 551 
Q 767 551 , 758 551 
Q 737 551 , 726 551 
Q 716 551 , 716 552 
Q 716 553 , 726 554 
Q 737 554 , 758 554 
Q 767 554 , 774 554 
Q 781 554 , 784 554 
" fill="#F5C000" />
<path d="
M 750 543 
L 732 546 
L 766 546 
L 750 543 
M 743 541 
L 757 541 
L 800 549 
L 784 549 
L 772 547 
L 728 547 
L 715 549 
L 700 549 
L 743 541 
" fill="#339541" />
<path d="
M 800 532 
L 800 534 
Q 785 533 , 777 532 
Q 769 532 , 759 532 
Q 738 532 , 728 533 
Q 716 534 , 716 536 
Q 716 538 , 728 539 
Q 738 540 , 759 540 
Q 769 540 , 777 540 
Q 785 539 , 800 538 
L 800 540 
Q 789 540 , 779 541 
Q 769 541 , 758 541 
Q 731 541 , 716 540 
Q 700 538 , 700 536 
Q 700 534 , 716 532 
Q 731 531 , 758 531 
Q 769 531 , 779 531 
Q 790 531 , 800 532 
" fill="#545FFF" />
<path d="
M 700 512 
L 718 512 
L 718 523 
Q 718 526 , 726 527 
Q 733 528 , 750 528 
Q 767 528 , 775 527 
Q 782 526 , 782 523 
L 782 512 
L 800 512 
L 800 523 
Q 800 527 , 787 529 
Q 775 530 , 750 530 
Q 726 530 , 713 529 
Q 700 527 , 700 523 
L 700 512 
" fill="#D21010" />
<path d="
M 855 548 
L 837 551 
L 871 551 
L 855 548 
M 848 547 
L 862 547 
L 905 555 
L 889 555 
L 877 552 
L 833 552 
L 820 555 
L 805 555 
L 848 547 
" fill="#339541" />
<path d="
M 905 537 
L 905 539 
Q 890 538 , 882 537 
Q 874 537 , 864 537 
Q 843 537 , 833 538 
Q 821 539 , 821 541 
Q 821 543 , 833 544 
Q 843 545 , 864 545 
Q 874 545 , 882 545 
Q 890 545 , 905 544 
L 905 545 
Q 894 546 , 884 546 
Q 874 546 , 863 546 
Q 836 546 , 821 545 
Q 805 544 , 805 541 
Q 805 539 , 821 537 
Q 836 536 , 863 536 
Q 874 536 , 884 536 
Q 895 537 , 905 537 
" fill="#545FFF" />
<path d="
M 805 524 
L 823 524 
L 823 531 
Q 823 533 , 831 533 
Q 838 534 , 855 534 
Q 872 534 , 880 533 
Q 887 533 , 887 531 
L 887 524 
L 905 524 
L 905 531 
Q 905 533 , 892 534 
Q 880 535 , 855 535 
Q 831 535 , 818 534 
Q 805 533 , 805 531 
L 805 524 
" fill="#D21010" />
<path d="
M 889 475 
L 889 384 
L 860 384 
L 860 347 
L 905 347 
L 905 498 
Q 894 512 , 883 518 
Q 874 523 , 862 524 
Q 836 524 , 820 478 
Q 805 434 , 805 355 
Q 805 275 , 820 230 
Q 836 185 , 862 185 
Q 873 185 , 882 191 
Q 892 197 , 902 212 
L 902 256 
Q 889 237 , 881 231 
Q 872 225 , 863 225 
Q 842 225 , 831 257 
Q 821 289 , 821 355 
Q 821 421 , 831 454 
Q 842 486 , 863 486 
Q 872 486 , 879 483 
Q 886 479 , 889 475 
" fill="#F5C000" />
<path d="
M 910 546 
L 928 546 
L 928 551 
Q 928 552 , 936 553 
Q 943 554 , 960 554 
Q 977 554 , 985 553 
Q 992 552 , 992 551 
L 992 546 
L 1010 546 
L 1010 551 
Q 1010 553 , 997 554 
Q 985 554 , 960 554 
Q 936 554 , 923 554 
Q 910 553 , 910 551 
L 910 546 
" fill="#D21010" />
<path d="
M 960 537 
L 942 541 
L 976 541 
L 960 537 
M 953 535 
L 967 535 
L 1010 545 
L 994 545 
L 982 542 
L 938 542 
L 925 545 
L 910 545 
L 953 535 
" fill="#339541" />
<path d="
M 1010 524 
L 1010 526 
Q 995 525 , 987 525 
Q 979 524 , 969 524 
Q 948 524 , 938 525 
Q 926 527 , 926 529 
Q 926 531 , 938 532 
Q 948 533 , 969 533 
Q 979 533 , 987 533 
Q 995 533 , 1010 532 
L 1010 533 
Q 999 534 , 989 534 
Q 979 535 , 968 535 
Q 941 535 , 926 533 
Q 910 532 , 910 529 
Q 910 526 , 926 525 
Q 941 523 , 968 523 
Q 979 523 , 989 523 
Q 1000 524 , 1010 524 
" fill="#545FFF" />
<path d="
M 994 518 
L 994 509 
L 965 509 
L 965 505 
L 1010 505 
L 1010 520 
Q 999 521 , 988 522 
Q 979 522 , 967 522 
Q 941 522 , 925 518 
Q 910 514 , 910 506 
Q 910 498 , 925 493 
Q 941 489 , 967 489 
Q 978 489 , 987 490 
Q 997 490 , 1007 492 
L 1007 496 
Q 994 494 , 986 494 
Q 977 493 , 968 493 
Q 947 493 , 936 496 
Q 926 499 , 926 506 
Q 926 512 , 936 516 
Q 947 519 , 968 519 
Q 977 519 , 984 518 
Q 991 518 , 994 518 
" fill="#F5C000" />
<path d="
M 1115 549 
L 1115 550 
Q 1100 549 , 1092 549 
Q 1084 549 , 1074 549 
Q 1053 549 , 1043 549 
Q 1031 550 , 1031 551 
Q 1031 553 , 1043 553 
Q 1053 554 , 1074 554 
Q 1084 554 , 1092 554 
Q 1100 554 , 1115 553 
L 1115 554 
Q 1104 554 , 1094 555 
Q 1084 555 , 1073 555 
Q 1046 555 , 1031 554 
Q 1015 553 , 1015 551 
Q 1015 550 , 1031 549 
Q 1046 548 , 1073 548 
Q 1084 548 , 1094 548 
Q 1105 548 , 1115 549 
" fill="#545FFF" />
<path d="
M 1015 540 
L 1033 540 
L 1033 545 
Q 1033 546 , 1041 546 
Q 1048 547 , 1065 547 
Q 1082 547 , 1090 546 
Q 1097 546 , 1097 545 
L 1097 540 
L 1115 540 
L 1115 545 
Q 1115 546 , 1102 547 
Q 1090 548 , 1065 548 
Q 1041 548 , 1028 547 
Q 1015 546 , 1015 545 
L 1015 540 
" fill="#D21010" />
<path d="
M 1065 518 
L 1047 529 
L 1081 529 
L 1065 518 
M 1058 513 
L 1072 513 
L 1115 540 
L 1099 540 
L 1087 532 
L 1043 532 
L 1030 540 
L 1015 540 
L 1058 513 
" fill="#339541" />
<path d="
M 1099 507 
L 1099 498 
L 1070 498 
L 1070 494 
L 1115 494 
L 1115 509 
Q 1104 511 , 1093 511 
Q 1084 512 , 1072 512 
Q 1046 512 , 1030 507 
Q 1015 503 , 1015 495 
Q 1015 487 , 1030 483 
Q 1046 478 , 1072 478 
Q 1083 478 , 1092 479 
Q 1102 479 , 1112 481 
L 1112 485 
Q 1099 483 , 1091 483 
Q 1082 482 , 1073 482 
Q 1052 482 , 1041 485 
Q 1031 488 , 1031 495 
Q 1031 502 , 1041 505 
Q 1052 508 , 1073 508 
Q 1082 508 , 1089 508 
Q 1096 508 , 1099 507 
" fill="#F5C000" />
<path d="
M 1220 547 
L 1220 548 
Q 1205 547 , 1197 547 
Q 1189 547 , 1179 547 
Q 1158 547 , 1148 548 
Q 1136 548 , 1136 550 
Q 1136 552 , 1148 552 
Q 1158 553 , 1179 553 
Q 1189 553 , 1197 553 
Q 1205 553 , 1220 552 
L 1220 553 
Q 1209 554 , 1199 554 
Q 1189 554 , 1178 554 
Q 1151 554 , 1136 553 
Q 1120 552 , 1120 550 
Q 1120 548 , 1136 547 
Q 1151 546 , 1178 546 
Q 1189 546 , 1199 546 
Q 1210 546 , 1220 547 
" fill="#545FFF" />
<path d="
M 1170 535 
L 1152 540 
L 1186 540 
L 1170 535 
M 1163 532 
L 1177 532 
L 1220 546 
L 1204 546 
L 1192 542 
L 1148 542 
L 1135 546 
L 1120 546 
L 1163 532 
" fill="#339541" />
<path d="
M 1120 516 
L 1138 516 
L 1138 525 
Q 1138 527 , 1146 529 
Q 1153 529 , 1170 529 
Q 1187 529 , 1195 529 
Q 1202 527 , 1202 525 
L 1202 516 
L 1220 516 
L 1220 525 
Q 1220 528 , 1207 530 
Q 1195 531 , 1170 531 
Q 1146 531 , 1133 530 
Q 1120 528 , 1120 525 
L 1120 516 
" fill="#D21010" />
<path d="
M 1204 508 
L 1204 495 
L 1175 495 
L 1175 490 
L 1220 490 
L 1220 512 
Q 1209 514 , 1198 514 
Q 1189 515 , 1177 515 
Q 1151 515 , 1135 509 
Q 1120 502 , 1120 491 
Q 1120 480 , 1135 473 
Q 1151 467 , 1177 467 
Q 1188 467 , 1197 468 
Q 1207 469 , 1217 471 
L 1217 477 
Q 1204 474 , 1196 474 
Q 1187 473 , 1178 473 
Q 1157 473 , 1146 477 
Q 1136 482 , 1136 491 
Q 1136 501 , 1146 505 
Q 1157 510 , 1178 510 
Q 1187 510 , 1194 509 
Q 1201 509 , 1204 508 
" fill="#F5C000" />
<path d="
M 1275 554 
L 1257 554 
L 1291 554 
L 1275 554 
M 1268 554 
L 1282 554 
L 1325 555 
L 1309 555 
L 1297 555 
L 1253 555 
L 1240 555 
L 1225 555 
L 1268 554 
" fill="#339541" />
<path d="
M 1225 553 
L 1243 553 
L 1243 553 
Q 1243 554 , 1251 554 
Q 1258 554 , 1275 554 
Q 1292 554 , 1300 554 
Q 1307 554 , 1307 553 
L 1307 553 
L 1325 553 
L 1325 553 
Q 1325 554 , 1312 554 
Q 1300 554 , 1275 554 
Q 1251 554 , 1238 554 
Q 1225 554 , 1225 553 
L 1225 553 
" fill="#D21010" />
<path d="
M 1325 552 
L 1325 552 
Q 1310 552 , 1302 552 
Q 1294 552 , 1284 552 
Q 1263 552 , 1253 552 
Q 1241 552 , 1241 552 
Q 1241 553 , 1253 553 
Q 1263 553 , 1284 553 
Q 1294 553 , 1302 553 
Q 1310 553 , 1325 553 
L 1325 553 
Q 1314 553 , 1304 553 
Q 1294 553 , 1283 553 
Q 1256 553 , 1241 553 
Q 1225 553 , 1225 552 
Q 1225 552 , 1241 552 
Q 1256 552 , 1283 552 
Q 1294 552 , 1304 552 
Q 1315 552 , 1325 552 
" fill="#545FFF" />
<path d="
M 1309 551 
L 1309 551 
L 1280 551 
L 1280 550 
L 1325 550 
L 1325 551 
Q 1314 551 , 1303 551 
Q 1294 551 , 1282 551 
Q 1256 551 , 1240 551 
Q 1225 551 , 1225 551 
Q 1225 550 , 1240 550 
Q 1256 550 , 1282 550 
Q 1293 550 , 1302 550 
Q 1312 550 , 1322 550 
L 1322 550 
Q 1309 550 , 1301 550 
Q 1292 550 , 1283 550 
Q 1262 550 , 1251 550 
Q 1241 550 , 1241 551 
Q 1241 551 , 1251 551 
Q 1262 551 , 1283 551 
Q 1292 551 , 1299 551 
Q 1306 551 , 1309 551 
" fill="#F5C000" />
<path d="M 65 55 L 65 555 " stroke="black" stroke-width="1.5"/>
<path d="M 55 555 L 65 555 " stroke="black" stroke-width="4"/>
<text text-anchor="end" x="50" y="555" font-size="50" alignment-baseline="middle">0</text>
<path d="M 55 305 L 65 305 " stroke="black" stroke-width="4"/>
<text text-anchor="end" x="50" y="305" font-size="50" alignment-baseline="middle">1</text>
<path d="M 55 55 L 65 55 " stroke="black" stroke-width="4"/>
<text text-anchor="end" x="50" y="55" font-size="50" alignment-baseline="middle">2</text>
<text text-anchor="middle" x="697" y="50" font-size="50" alignment-baseline="baseline"></text>
G<path d="
M 160 582 
L 126 595 
L 160 608 
L 157 611 
L 123 598 
L 123 623 
L 117 623 
L 117 599 
L 83 611 
L 80 608 
L 114 595 
L 80 582 
L 83 579 
L 117 591 
L 117 567 
L 123 567 
L 123 591 
L 157 579 
L 160 582 
" fill="black" />
<path d="
" fill="black" />
<path d="
M 211 567 
L 238 567 
L 238 623 
L 211 623 
L 211 567 
" fill="black" />
<path d="
" fill="black" />
<path d="
" fill="black" />
<path d="
M 316 567 
L 343 567 
L 343 623 
L 316 623 
L 316 567 
" fill="black" />
<path d="
" fill="black" />
<path d="
" fill="black" />
<path d="
M 421 567 
L 448 567 
L 448 623 
L 421 623 
L 421 567 
" fill="black" />
<path d="
" fill="black" />
<path d="
" fill="black" />
<path d="
M 526 567 
L 553 567 
L 553 623 
L 526 623 
L 526 567 
" fill="black" />
<path d="
" fill="black" />
<path d="
" fill="black" />
<path d="
M 631 567 
L 658 567 
L 658 623 
L 631 623 
L 631 567 
" fill="black" />
<path d="
" fill="black" />
<path d="
" fill="black" />
<path d="
M 736 567 
L 763 567 
L 763 623 
L 736 623 
L 736 567 
" fill="black" />
<path d="
" fill="black" />
<path d="
" fill="black" />
<path d="
M 841 567 
L 868 567 
L 868 623 
L 841 623 
L 841 567 
" fill="black" />
<path d="
" fill="black" />
<path d="
" fill="black" />
<path d="
M 946 567 
L 973 567 
L 973 623 
L 946 623 
L 946 567 
" fill="black" />
<path d="
" fill="black" />
<path d="
" fill="black" />
<path d="
M 1051 567 
L 1078 567 
L 1078 623 
L 1051 623 
L 1051 567 
" fill="black" />
<path d="
" fill="black" />
<path d="
" fill="black" />
<path d="
M 1156 567 
L 1183 567 
L 1183 623 
L 1156 623 
L 1156 567 
" fill="black" />
<path d="
" fill="black" />
<path d="
M 1315 582 
L 1281 595 
L 1315 608 
L 1312 611 
L 1278 598 
L 1278 623 
L 1272 623 
L 1272 599 
L 1238 611 
L 1235 608 
L 1269 595 
L 1235 582 
L 1238 579 
L 1272 591 
L 1272 567 
L 1278 567 
L 1278 591 
L 1312 579 
L 1315 582 
" fill="black" />
</svg>
