<svg xmlns="http://www.w3.org/2000/svg"
viewBox="0 0 1015 635">
<path d="
M 120 551 
L 102 552 
L 136 552 
L 120 551 
M 113 550 
L 127 550 
L 170 554 
L 154 554 
L 142 553 
L 98 553 
L 85 554 
L 70 554 
L 113 550 
" fill="#339541" />
<path d="
M 154 549 
L 154 547 
L 125 547 
L 125 546 
L 170 546 
L 170 549 
Q 159 550 , 148 550 
Q 139 550 , 127 550 
Q 101 550 , 85 549 
Q 70 548 , 70 546 
Q 70 545 , 85 544 
Q 101 543 , 127 543 
Q 138 543 , 147 543 
Q 157 543 , 167 544 
L 167 544 
Q 154 544 , 146 544 
Q 137 544 , 128 544 
Q 107 544 , 96 544 
Q 86 545 , 86 546 
Q 86 548 , 96 549 
Q 107 549 , 128 549 
Q 137 549 , 144 549 
Q 151 549 , 154 549 
" fill="#F5C000" />
<path d="
M 70 535 
L 88 535 
L 88 540 
Q 88 541 , 96 542 
Q 103 542 , 120 542 
Q 137 542 , 145 542 
Q 152 541 , 152 540 
L 152 535 
L 170 535 
L 170 540 
Q 170 541 , 157 542 
Q 145 543 , 120 543 
Q 96 543 , 83 542 
Q 70 541 , 70 540 
L 70 535 
" fill="#D21010" />
<path d="
M 170 522 
L 170 524 
Q 155 522 , 147 522 
Q 139 522 , 129 522 
Q 108 522 , 98 523 
Q 86 524 , 86 527 
Q 86 530 , 98 531 
Q 108 533 , 129 533 
Q 139 533 , 147 532 
Q 155 532 , 170 530 
L 170 533 
Q 159 533 , 149 534 
Q 139 534 , 128 534 
Q 101 534 , 86 532 
Q 70 530 , 70 527 
Q 70 524 , 86 522 
Q 101 520 , 128 520 
Q 139 520 , 149 520 
Q 160 521 , 170 522 
" fill="#545FFF" />
<path d="
M 225 552 
L 207 553 
L 241 553 
L 225 552 
M 218 552 
L 232 552 
L 275 554 
L 259 554 
L 247 553 
L 203 553 
L 190 554 
L 175 554 
L 218 552 
" fill="#339541" />
<path d="
M 175 546 
L 193 546 
L 193 550 
Q 193 551 , 201 551 
Q 208 551 , 225 551 
Q 242 551 , 250 551 
Q 257 551 , 257 550 
L 257 546 
L 275 546 
L 275 550 
Q 275 551 , 262 551 
Q 250 552 , 225 552 
Q 201 552 , 188 551 
Q 175 551 , 175 550 
L 175 546 
" fill="#D21010" />
<path d="
M 259 542 
L 259 536 
L 230 536 
L 230 534 
L 275 534 
L 275 544 
Q 264 545 , 253 545 
Q 244 546 , 232 546 
Q 206 546 , 190 543 
Q 175 540 , 175 534 
Q 175 529 , 190 526 
Q 206 523 , 232 523 
Q 243 523 , 252 523 
Q 262 524 , 272 525 
L 272 528 
Q 259 526 , 251 526 
Q 242 526 , 233 526 
Q 212 526 , 201 528 
Q 191 530 , 191 534 
Q 191 539 , 201 541 
Q 212 543 , 233 543 
Q 242 543 , 249 543 
Q 256 543 , 259 542 
" fill="#F5C000" />
<path d="
M 275 213 
L 275 266 
Q 260 232 , 252 223 
Q 244 214 , 234 214 
Q 213 214 , 203 248 
Q 191 282 , 191 349 
Q 191 416 , 203 451 
Q 213 485 , 234 485 
Q 244 485 , 252 476 
Q 260 467 , 275 432 
L 275 487 
Q 264 507 , 254 514 
Q 244 522 , 233 522 
Q 206 522 , 191 475 
Q 175 429 , 175 349 
Q 175 270 , 191 223 
Q 206 176 , 233 176 
Q 244 176 , 254 185 
Q 265 193 , 275 213 
" fill="#545FFF" />
<path d="
M 330 553 
L 312 554 
L 346 554 
L 330 553 
M 323 553 
L 337 553 
L 380 555 
L 364 555 
L 352 554 
L 308 554 
L 295 555 
L 280 555 
L 323 553 
" fill="#339541" />
<path d="
M 280 547 
L 298 547 
L 298 550 
Q 298 551 , 306 552 
Q 313 552 , 330 552 
Q 347 552 , 355 552 
Q 362 551 , 362 550 
L 362 547 
L 380 547 
L 380 550 
Q 380 551 , 367 552 
Q 355 553 , 330 553 
Q 306 553 , 293 552 
Q 280 551 , 280 550 
L 280 547 
" fill="#D21010" />
<path d="
M 364 545 
L 364 541 
L 335 541 
L 335 540 
L 380 540 
L 380 545 
Q 369 546 , 358 546 
Q 349 546 , 337 546 
Q 311 546 , 295 545 
Q 280 543 , 280 540 
Q 280 537 , 295 536 
Q 311 534 , 337 534 
Q 348 534 , 357 534 
Q 367 534 , 377 535 
L 377 537 
Q 364 536 , 356 536 
Q 347 535 , 338 535 
Q 317 535 , 306 537 
Q 296 538 , 296 540 
Q 296 543 , 306 544 
Q 317 545 , 338 545 
Q 347 545 , 354 545 
Q 361 545 , 364 545 
" fill="#F5C000" />
<path d="
M 380 179 
L 380 240 
Q 365 200 , 357 190 
Q 349 180 , 339 180 
Q 318 180 , 308 219 
Q 296 258 , 296 335 
Q 296 412 , 308 452 
Q 318 491 , 339 491 
Q 349 491 , 357 481 
Q 365 470 , 380 431 
L 380 494 
Q 369 516 , 359 525 
Q 349 534 , 338 534 
Q 311 534 , 296 480 
Q 280 426 , 280 335 
Q 280 244 , 296 190 
Q 311 136 , 338 136 
Q 349 136 , 359 146 
Q 370 155 , 380 179 
" fill="#545FFF" />
<path d="
M 485 549 
L 485 550 
Q 470 549 , 462 549 
Q 454 549 , 444 549 
Q 423 549 , 413 549 
Q 401 550 , 401 551 
Q 401 552 , 413 553 
Q 423 553 , 444 553 
Q 454 553 , 462 553 
Q 470 553 , 485 553 
L 485 554 
Q 474 554 , 464 554 
Q 454 554 , 443 554 
Q 416 554 , 401 553 
Q 385 552 , 385 551 
Q 385 550 , 401 549 
Q 416 548 , 443 548 
Q 454 548 , 464 548 
Q 475 548 , 485 549 
" fill="#545FFF" />
<path d="
M 469 544 
L 469 540 
L 440 540 
L 440 538 
L 485 538 
L 485 546 
Q 474 546 , 463 547 
Q 454 547 , 442 547 
Q 416 547 , 400 545 
Q 385 542 , 385 538 
Q 385 534 , 400 531 
Q 416 529 , 442 529 
Q 453 529 , 462 529 
Q 472 530 , 482 530 
L 482 533 
Q 469 532 , 461 531 
Q 452 531 , 443 531 
Q 422 531 , 411 533 
Q 401 535 , 401 538 
Q 401 542 , 411 543 
Q 422 545 , 443 545 
Q 452 545 , 459 545 
Q 466 545 , 469 544 
" fill="#F5C000" />
<path d="
M 435 512 
L 417 520 
L 451 520 
L 435 512 
M 428 508 
L 442 508 
L 485 529 
L 469 529 
L 457 523 
L 413 523 
L 400 529 
L 385 529 
L 428 508 
" fill="#339541" />
<path d="
M 385 441 
L 403 441 
L 403 480 
Q 403 491 , 411 495 
Q 418 500 , 435 500 
Q 452 500 , 460 495 
Q 467 491 , 467 480 
L 467 441 
L 485 441 
L 485 481 
Q 485 494 , 472 500 
Q 460 507 , 435 507 
Q 411 507 , 398 500 
Q 385 494 , 385 481 
L 385 441 
" fill="#D21010" />
<path d="
M 540 552 
L 522 553 
L 556 553 
L 540 552 
M 533 552 
L 547 552 
L 590 554 
L 574 554 
L 562 553 
L 518 553 
L 505 554 
L 490 554 
L 533 552 
" fill="#339541" />
<path d="
M 590 536 
L 590 538 
Q 575 537 , 567 536 
Q 559 536 , 549 536 
Q 528 536 , 518 538 
Q 506 539 , 506 542 
Q 506 546 , 518 548 
Q 528 549 , 549 549 
Q 559 549 , 567 549 
Q 575 548 , 590 547 
L 590 549 
Q 579 550 , 569 551 
Q 559 551 , 548 551 
Q 521 551 , 506 549 
Q 490 547 , 490 543 
Q 490 539 , 506 536 
Q 521 534 , 548 534 
Q 559 534 , 569 534 
Q 580 535 , 590 536 
" fill="#545FFF" />
<path d="
M 490 494 
L 508 494 
L 508 517 
Q 508 523 , 516 526 
Q 523 529 , 540 529 
Q 557 529 , 565 526 
Q 572 523 , 572 517 
L 572 494 
L 590 494 
L 590 518 
Q 590 525 , 577 529 
Q 565 533 , 540 533 
Q 516 533 , 503 529 
Q 490 525 , 490 518 
L 490 494 
" fill="#D21010" />
<path d="
M 574 484 
L 574 468 
L 545 468 
L 545 461 
L 590 461 
L 590 488 
Q 579 491 , 568 492 
Q 559 493 , 547 493 
Q 521 493 , 505 485 
Q 490 477 , 490 462 
Q 490 448 , 505 439 
Q 521 431 , 547 431 
Q 558 431 , 567 432 
Q 577 433 , 587 436 
L 587 444 
Q 574 440 , 566 439 
Q 557 438 , 548 438 
Q 527 438 , 516 444 
Q 506 450 , 506 462 
Q 506 474 , 516 480 
Q 527 486 , 548 486 
Q 557 486 , 564 486 
Q 571 485 , 574 484 
" fill="#F5C000" />
<path d="
M 645 553 
L 627 554 
L 661 554 
L 645 553 
M 638 553 
L 652 553 
L 695 554 
L 679 554 
L 667 554 
L 623 554 
L 610 554 
L 595 554 
L 638 553 
" fill="#339541" />
<path d="
M 595 546 
L 613 546 
L 613 550 
Q 613 551 , 621 551 
Q 628 552 , 645 552 
Q 662 552 , 670 551 
Q 677 551 , 677 550 
L 677 546 
L 695 546 
L 695 550 
Q 695 551 , 682 552 
Q 670 552 , 645 552 
Q 621 552 , 608 552 
Q 595 551 , 595 550 
L 595 546 
" fill="#D21010" />
<path d="
M 679 544 
L 679 540 
L 650 540 
L 650 538 
L 695 538 
L 695 545 
Q 684 545 , 673 545 
Q 664 546 , 652 546 
Q 626 546 , 610 544 
Q 595 542 , 595 538 
Q 595 535 , 610 533 
Q 626 531 , 652 531 
Q 663 531 , 672 531 
Q 682 532 , 692 532 
L 692 534 
Q 679 533 , 671 533 
Q 662 533 , 653 533 
Q 632 533 , 621 534 
Q 611 536 , 611 538 
Q 611 541 , 621 543 
Q 632 544 , 653 544 
Q 662 544 , 669 544 
Q 676 544 , 679 544 
" fill="#F5C000" />
<path d="
M 695 185 
L 695 244 
Q 680 206 , 672 197 
Q 664 187 , 654 187 
Q 633 187 , 623 224 
Q 611 263 , 611 337 
Q 611 412 , 623 451 
Q 633 488 , 654 488 
Q 664 488 , 672 479 
Q 680 468 , 695 430 
L 695 491 
Q 684 513 , 674 521 
Q 664 530 , 653 530 
Q 626 530 , 611 478 
Q 595 426 , 595 337 
Q 595 249 , 611 197 
Q 626 144 , 653 144 
Q 664 144 , 674 154 
Q 685 163 , 695 185 
" fill="#545FFF" />
<path d="
M 750 553 
L 732 554 
L 766 554 
L 750 553 
M 743 553 
L 757 553 
L 800 555 
L 784 555 
L 772 554 
L 728 554 
L 715 555 
L 700 555 
L 743 553 
" fill="#339541" />
<path d="
M 784 551 
L 784 549 
L 755 549 
L 755 549 
L 800 549 
L 800 552 
Q 789 552 , 778 552 
Q 769 552 , 757 552 
Q 731 552 , 715 551 
Q 700 550 , 700 549 
Q 700 547 , 715 546 
Q 731 545 , 757 545 
Q 768 545 , 777 545 
Q 787 545 , 797 546 
L 797 547 
Q 784 546 , 776 546 
Q 767 546 , 758 546 
Q 737 546 , 726 547 
Q 716 547 , 716 549 
Q 716 550 , 726 551 
Q 737 552 , 758 552 
Q 767 552 , 774 552 
Q 781 551 , 784 551 
" fill="#F5C000" />
<path d="
M 700 515 
L 718 515 
L 718 532 
Q 718 537 , 726 539 
Q 733 541 , 750 541 
Q 767 541 , 775 539 
Q 782 537 , 782 532 
L 782 515 
L 800 515 
L 800 533 
Q 800 538 , 787 541 
Q 775 544 , 750 544 
Q 726 544 , 713 541 
Q 700 538 , 700 533 
L 700 515 
" fill="#D21010" />
<path d="
M 800 238 
L 800 285 
Q 785 255 , 777 247 
Q 769 239 , 759 239 
Q 738 239 , 728 269 
Q 716 300 , 716 360 
Q 716 420 , 728 451 
Q 738 481 , 759 481 
Q 769 481 , 777 473 
Q 785 464 , 800 434 
L 800 483 
Q 789 500 , 779 507 
Q 769 514 , 758 514 
Q 731 514 , 716 472 
Q 700 431 , 700 360 
Q 700 289 , 716 247 
Q 731 205 , 758 205 
Q 769 205 , 779 213 
Q 790 220 , 800 238 
" fill="#545FFF" />
<path d="
M 889 553 
L 889 551 
L 860 551 
L 860 550 
L 905 550 
L 905 554 
Q 894 554 , 883 554 
Q 874 555 , 862 555 
Q 836 555 , 820 553 
Q 805 552 , 805 550 
Q 805 548 , 820 546 
Q 836 545 , 862 545 
Q 873 545 , 882 545 
Q 892 545 , 902 546 
L 902 547 
Q 889 546 , 881 546 
Q 872 546 , 863 546 
Q 842 546 , 831 547 
Q 821 548 , 821 550 
Q 821 552 , 831 553 
Q 842 554 , 863 554 
Q 872 554 , 879 553 
Q 886 553 , 889 553 
" fill="#F5C000" />
<path d="
M 855 536 
L 837 540 
L 871 540 
L 855 536 
M 848 534 
L 862 534 
L 905 544 
L 889 544 
L 877 541 
L 833 541 
L 820 544 
L 805 544 
L 848 534 
" fill="#339541" />
<path d="
M 805 499 
L 823 499 
L 823 519 
Q 823 525 , 831 527 
Q 838 530 , 855 530 
Q 872 530 , 880 527 
Q 887 525 , 887 519 
L 887 499 
L 905 499 
L 905 520 
Q 905 526 , 892 530 
Q 880 533 , 855 533 
Q 831 533 , 818 530 
Q 805 526 , 805 520 
L 805 499 
" fill="#D21010" />
<path d="
M 905 388 
L 905 407 
Q 890 395 , 882 392 
Q 874 389 , 864 389 
Q 843 389 , 833 401 
Q 821 413 , 821 437 
Q 821 461 , 833 473 
Q 843 485 , 864 485 
Q 874 485 , 882 482 
Q 890 479 , 905 466 
L 905 486 
Q 894 493 , 884 496 
Q 874 498 , 863 498 
Q 836 498 , 821 482 
Q 805 465 , 805 437 
Q 805 408 , 821 392 
Q 836 375 , 863 375 
Q 874 375 , 884 378 
Q 895 381 , 905 388 
" fill="#545FFF" />
<path d="
M 960 551 
L 942 552 
L 976 552 
L 960 551 
M 953 550 
L 967 550 
L 1010 554 
L 994 554 
L 982 553 
L 938 553 
L 925 554 
L 910 554 
L 953 550 
" fill="#339541" />
<path d="
M 994 549 
L 994 547 
L 965 547 
L 965 546 
L 1010 546 
L 1010 549 
Q 999 550 , 988 550 
Q 979 550 , 967 550 
Q 941 550 , 925 549 
Q 910 548 , 910 546 
Q 910 545 , 925 544 
Q 941 543 , 967 543 
Q 978 543 , 987 543 
Q 997 543 , 1007 544 
L 1007 544 
Q 994 544 , 986 544 
Q 977 544 , 968 544 
Q 947 544 , 936 544 
Q 926 545 , 926 546 
Q 926 548 , 936 549 
Q 947 549 , 968 549 
Q 977 549 , 984 549 
Q 991 549 , 994 549 
" fill="#F5C000" />
<path d="
M 910 535 
L 928 535 
L 928 540 
Q 928 541 , 936 542 
Q 943 542 , 960 542 
Q 977 542 , 985 542 
Q 992 541 , 992 540 
L 992 535 
L 1010 535 
L 1010 540 
Q 1010 541 , 997 542 
Q 985 543 , 960 543 
Q 936 543 , 923 542 
Q 910 541 , 910 540 
L 910 535 
" fill="#D21010" />
<path d="
M 1010 522 
L 1010 524 
Q 995 522 , 987 522 
Q 979 522 , 969 522 
Q 948 522 , 938 523 
Q 926 524 , 926 527 
Q 926 530 , 938 531 
Q 948 533 , 969 533 
Q 979 533 , 987 532 
Q 995 532 , 1010 530 
L 1010 533 
Q 999 533 , 989 534 
Q 979 534 , 968 534 
Q 941 534 , 926 532 
Q 910 530 , 910 527 
Q 910 524 , 926 522 
Q 941 520 , 968 520 
Q 979 520 , 989 520 
Q 1000 521 , 1010 522 
" fill="#545FFF" />
<path d="M 65 55 L 65 555 " stroke="black" stroke-width="1.5"/>
<path d="M 55 555 L 65 555 " stroke="black" stroke-width="4"/>
<text text-anchor="end" x="50" y="555" font-size="50" alignment-baseline="middle">0</text>
<path d="M 55 305 L 65 305 " stroke="black" stroke-width="4"/>
<text text-anchor="end" x="50" y="305" font-size="50" alignment-baseline="middle">1</text>
<path d="M 55 55 L 65 55 " stroke="black" stroke-width="4"/>
<text text-anchor="end" x="50" y="55" font-size="50" alignment-baseline="middle">2</text>
<text text-anchor="middle" x="540" y="50" font-size="50" alignment-baseline="baseline"></text>
G<path d="
M 160 582 
L 126 595 
L 160 608 
L 157 611 
L 123 598 
L 123 623 
L 117 623 
L 117 599 
L 83 611 
L 80 608 
L 114 595 
L 80 582 
L 83 579 
L 117 591 
L 117 567 
L 123 567 
L 123 591 
L 157 579 
L 160 582 
" fill="black" />
<path d="
" fill="black" />
<path d="
M 211 567 
L 238 567 
L 238 623 
L 211 623 
L 211 567 
" fill="black" />
<path d="
" fill="black" />
<path d="
" fill="black" />
<path d="
M 316 567 
L 343 567 
L 343 623 
L 316 623 
L 316 567 
" fill="black" />
<path d="
" fill="black" />
<path d="
" fill="black" />
<path d="
M 421 567 
L 448 567 
L 448 623 
L 421 623 
L 421 567 
" fill="black" />
<path d="
" fill="black" />
<path d="
" fill="black" />
<path d="
M 526 567 
L 553 567 
L 553 623 
L 526 623 
L 526 567 
" fill="black" />
<path d="
" fill="black" />
<path d="
" fill="black" />
<path d="
M 631 567 
L 658 567 
L 658 623 
L 631 623 
L 631 567 
" fill="black" />
<path d="
" fill="black" />
<path d="
" fill="black" />
<path d="
M 736 567 
L 763 567 
L 763 623 
L 736 623 
L 736 567 
" fill="black" />
<path d="
" fill="black" />
<path d="
" fill="black" />
<path d="
M 841 567 
L 868 567 
L 868 623 
L 841 623 
L 841 567 
" fill="black" />
<path d="
" fill="black" />
<path d="
M 1000 582 
L 966 595 
L 1000 608 
L 997 611 
L 963 598 
L 963 623 
L 957 623 
L 957 599 
L 923 611 
L 920 608 
L 954 595 
L 920 582 
L 923 579 
L 957 591 
L 957 567 
L 963 567 
L 963 591 
L 997 579 
L 1000 582 
" fill="black" />
</svg>
