<svg xmlns="http://www.w3.org/2000/svg"
viewBox="0 0 1225 615">
<path d="
M 115 551 
L 125 551 
L 111 553 
L 129 553 
L 115 551 
M 134 553 
L 102 553 
L 93 554 
L 70 554 
L 106 550 
L 134 550 
L 170 554 
L 143 554 
L 134 553 
" fill="#339541" stroke="black" stroke-width="1"/>
<path d="
M 141 547 
L 141 542 
L 108 542 
L 108 540 
L 170 540 
L 170 549 
Q 148 550 , 128 550 
Q 99 550 , 84 548 
Q 70 546 , 70 541 
Q 70 537 , 84 535 
Q 99 533 , 130 533 
Q 143 533 , 163 534 
L 163 536 
Q 143 536 , 130 536 
Q 114 536 , 105 537 
Q 97 538 , 97 541 
Q 97 547 , 128 547 
Q 137 547 , 141 547 
" fill="#F5C000" stroke="black" stroke-width="1"/>
<path d="
M 70 516 
Q 70 507 , 86 503 
Q 102 499 , 133 499 
Q 149 499 , 168 501 
L 168 506 
Q 146 504 , 133 504 
Q 102 504 , 102 516 
Q 102 523 , 110 525 
Q 118 528 , 133 528 
Q 146 528 , 170 525 
L 170 531 
Q 151 533 , 133 533 
Q 102 533 , 86 529 
Q 70 525 , 70 516 
" fill="#545FFF" stroke="black" stroke-width="1"/>
<path d="
M 157 491 
Q 145 499 , 121 499 
Q 97 499 , 83 491 
Q 70 484 , 70 469 
L 70 394 
L 102 394 
L 102 466 
Q 102 476 , 106 479 
Q 111 482 , 121 482 
Q 132 482 , 136 479 
Q 141 476 , 141 466 
L 141 394 
L 170 394 
L 170 469 
Q 170 484 , 157 491 
" fill="#D21010" stroke="black" stroke-width="1"/>
<path d="
M 220 552 
L 230 552 
L 216 553 
L 234 553 
L 220 552 
M 239 554 
L 207 554 
L 198 555 
L 175 555 
L 211 551 
L 239 551 
L 275 555 
L 248 555 
L 239 554 
" fill="#339541" stroke="black" stroke-width="1"/>
<path d="
M 246 548 
L 246 544 
L 213 544 
L 213 542 
L 275 542 
L 275 550 
Q 253 550 , 233 550 
Q 204 550 , 189 548 
Q 175 547 , 175 544 
Q 175 540 , 189 538 
Q 204 537 , 235 537 
Q 248 537 , 268 538 
L 268 540 
Q 248 539 , 235 539 
Q 219 539 , 210 540 
Q 202 541 , 202 544 
Q 202 548 , 233 548 
Q 242 548 , 246 548 
" fill="#F5C000" stroke="black" stroke-width="1"/>
<path d="
M 262 533 
Q 250 536 , 226 536 
Q 202 536 , 188 533 
Q 175 531 , 175 525 
L 175 498 
L 207 498 
L 207 524 
Q 207 528 , 211 529 
Q 216 530 , 226 530 
Q 237 530 , 241 529 
Q 246 528 , 246 524 
L 246 498 
L 275 498 
L 275 525 
Q 275 531 , 262 533 
" fill="#D21010" stroke="black" stroke-width="1"/>
<path d="
M 175 404 
Q 175 356 , 191 333 
Q 207 311 , 238 311 
Q 254 311 , 273 320 
L 273 351 
Q 251 339 , 238 339 
Q 207 339 , 207 404 
Q 207 441 , 215 455 
Q 223 469 , 238 469 
Q 251 469 , 275 456 
L 275 488 
Q 256 497 , 238 497 
Q 207 497 , 191 475 
Q 175 453 , 175 404 
" fill="#545FFF" stroke="black" stroke-width="1"/>
<path d="
M 325 551 
L 335 551 
L 321 553 
L 339 553 
L 325 551 
M 344 553 
L 312 553 
L 303 554 
L 280 554 
L 316 551 
L 344 551 
L 380 554 
L 353 554 
L 344 553 
" fill="#339541" stroke="black" stroke-width="1"/>
<path d="
M 367 550 
Q 355 551 , 331 551 
Q 307 551 , 293 550 
Q 280 549 , 280 547 
L 280 536 
L 312 536 
L 312 546 
Q 312 548 , 316 548 
Q 321 549 , 331 549 
Q 342 549 , 346 548 
Q 351 548 , 351 546 
L 351 536 
L 380 536 
L 380 547 
Q 380 549 , 367 550 
" fill="#D21010" stroke="black" stroke-width="1"/>
<path d="
M 351 533 
L 351 528 
L 318 528 
L 318 526 
L 380 526 
L 380 534 
Q 358 535 , 338 535 
Q 309 535 , 294 533 
Q 280 531 , 280 528 
Q 280 524 , 294 522 
Q 309 520 , 340 520 
Q 353 520 , 373 521 
L 373 523 
Q 353 522 , 340 522 
Q 324 522 , 315 523 
Q 307 525 , 307 528 
Q 307 533 , 338 533 
Q 347 533 , 351 533 
" fill="#F5C000" stroke="black" stroke-width="1"/>
<path d="
M 280 358 
Q 280 276 , 296 236 
Q 312 197 , 343 197 
Q 359 197 , 378 213 
L 378 266 
Q 356 246 , 343 246 
Q 312 246 , 312 358 
Q 312 422 , 320 446 
Q 328 470 , 343 470 
Q 356 470 , 380 447 
L 380 503 
Q 361 520 , 343 520 
Q 312 520 , 296 481 
Q 280 443 , 280 358 
" fill="#545FFF" stroke="black" stroke-width="1"/>
<path d="
M 430 551 
L 440 551 
L 426 553 
L 444 553 
L 430 551 
M 449 553 
L 417 553 
L 408 554 
L 385 554 
L 421 550 
L 449 550 
L 485 554 
L 458 554 
L 449 553 
" fill="#339541" stroke="black" stroke-width="1"/>
<path d="
M 456 548 
L 456 544 
L 423 544 
L 423 543 
L 485 543 
L 485 549 
Q 463 550 , 443 550 
Q 414 550 , 399 548 
Q 385 547 , 385 544 
Q 385 541 , 399 539 
Q 414 538 , 445 538 
Q 458 538 , 478 538 
L 478 540 
Q 458 540 , 445 540 
Q 429 540 , 420 541 
Q 412 542 , 412 544 
Q 412 548 , 443 548 
Q 452 548 , 456 548 
" fill="#F5C000" stroke="black" stroke-width="1"/>
<path d="
M 472 534 
Q 460 537 , 436 537 
Q 412 537 , 398 534 
Q 385 532 , 385 526 
L 385 496 
L 417 496 
L 417 525 
Q 417 528 , 421 529 
Q 426 531 , 436 531 
Q 447 531 , 451 529 
Q 456 528 , 456 525 
L 456 496 
L 485 496 
L 485 526 
Q 485 532 , 472 534 
" fill="#D21010" stroke="black" stroke-width="1"/>
<path d="
M 385 411 
Q 385 368 , 401 347 
Q 417 327 , 448 327 
Q 464 327 , 483 335 
L 483 363 
Q 461 353 , 448 353 
Q 417 353 , 417 411 
Q 417 444 , 425 457 
Q 433 470 , 448 470 
Q 461 470 , 485 458 
L 485 487 
Q 466 495 , 448 495 
Q 417 495 , 401 475 
Q 385 455 , 385 411 
" fill="#545FFF" stroke="black" stroke-width="1"/>
<path d="
M 535 550 
L 545 550 
L 531 552 
L 549 552 
L 535 550 
M 554 553 
L 522 553 
L 513 555 
L 490 555 
L 526 549 
L 554 549 
L 590 555 
L 563 555 
L 554 553 
" fill="#339541" stroke="black" stroke-width="1"/>
<path d="
M 561 546 
L 561 543 
L 528 543 
L 528 541 
L 590 541 
L 590 548 
Q 568 548 , 548 548 
Q 519 548 , 504 546 
Q 490 545 , 490 542 
Q 490 539 , 504 537 
Q 519 536 , 550 536 
Q 563 536 , 583 536 
L 583 539 
Q 563 538 , 550 538 
Q 534 538 , 525 539 
Q 517 540 , 517 542 
Q 517 547 , 548 547 
Q 557 547 , 561 546 
" fill="#F5C000" stroke="black" stroke-width="1"/>
<path d="
M 490 516 
Q 490 506 , 506 501 
Q 522 497 , 553 497 
Q 569 497 , 588 499 
L 588 505 
Q 566 503 , 553 503 
Q 522 503 , 522 516 
Q 522 524 , 530 526 
Q 538 529 , 553 529 
Q 566 529 , 590 527 
L 590 533 
Q 571 535 , 553 535 
Q 522 535 , 506 530 
Q 490 526 , 490 516 
" fill="#545FFF" stroke="black" stroke-width="1"/>
<path d="
M 577 485 
Q 565 496 , 541 496 
Q 517 496 , 503 485 
Q 490 475 , 490 454 
L 490 349 
L 522 349 
L 522 451 
Q 522 464 , 526 469 
Q 531 474 , 541 474 
Q 552 474 , 556 469 
Q 561 464 , 561 451 
L 561 349 
L 590 349 
L 590 454 
Q 590 475 , 577 485 
" fill="#D21010" stroke="black" stroke-width="1"/>
<path d="
M 771 553 
L 771 551 
L 738 551 
L 738 550 
L 800 550 
L 800 554 
Q 778 555 , 758 555 
Q 729 555 , 714 554 
Q 700 553 , 700 551 
Q 700 549 , 714 548 
Q 729 547 , 760 547 
Q 773 547 , 793 547 
L 793 549 
Q 773 548 , 760 548 
Q 744 548 , 735 548 
Q 727 549 , 727 551 
Q 727 553 , 758 553 
Q 767 553 , 771 553 
" fill="#F5C000" stroke="black" stroke-width="1"/>
<path d="
M 745 540 
L 755 540 
L 741 544 
L 759 544 
L 745 540 
M 764 545 
L 732 545 
L 723 547 
L 700 547 
L 736 539 
L 764 539 
L 800 547 
L 773 547 
L 764 545 
" fill="#339541" stroke="black" stroke-width="1"/>
<path d="
M 787 536 
Q 775 538 , 751 538 
Q 727 538 , 713 536 
Q 700 535 , 700 532 
L 700 516 
L 732 516 
L 732 531 
Q 732 533 , 736 534 
Q 741 535 , 751 535 
Q 762 535 , 766 534 
Q 771 533 , 771 531 
L 771 516 
L 800 516 
L 800 532 
Q 800 535 , 787 536 
" fill="#D21010" stroke="black" stroke-width="1"/>
<path d="
M 700 368 
Q 700 292 , 716 256 
Q 732 220 , 763 220 
Q 779 220 , 798 235 
L 798 283 
Q 776 265 , 763 265 
Q 732 265 , 732 368 
Q 732 426 , 740 448 
Q 748 470 , 763 470 
Q 776 470 , 800 449 
L 800 501 
Q 781 516 , 763 516 
Q 732 516 , 716 481 
Q 700 446 , 700 368 
" fill="#545FFF" stroke="black" stroke-width="1"/>
<path d="
M 850 550 
L 860 550 
L 846 552 
L 864 552 
L 850 550 
M 869 553 
L 837 553 
L 828 554 
L 805 554 
L 841 549 
L 869 549 
L 905 554 
L 878 554 
L 869 553 
" fill="#339541" stroke="black" stroke-width="1"/>
<path d="
M 876 548 
L 876 546 
L 843 546 
L 843 545 
L 905 545 
L 905 548 
Q 883 549 , 863 549 
Q 834 549 , 819 548 
Q 805 547 , 805 546 
Q 805 544 , 819 543 
Q 834 543 , 865 543 
Q 878 543 , 898 543 
L 898 544 
Q 878 544 , 865 544 
Q 849 544 , 840 544 
Q 832 545 , 832 546 
Q 832 548 , 863 548 
Q 872 548 , 876 548 
" fill="#F5C000" stroke="black" stroke-width="1"/>
<path d="
M 892 539 
Q 880 543 , 856 543 
Q 832 543 , 818 539 
Q 805 536 , 805 530 
L 805 499 
L 837 499 
L 837 529 
Q 837 533 , 841 534 
Q 846 536 , 856 536 
Q 867 536 , 871 534 
Q 876 533 , 876 529 
L 876 499 
L 905 499 
L 905 530 
Q 905 536 , 892 539 
" fill="#D21010" stroke="black" stroke-width="1"/>
<path d="
M 805 388 
Q 805 332 , 821 305 
Q 837 278 , 868 278 
Q 884 278 , 903 289 
L 903 325 
Q 881 312 , 868 312 
Q 837 312 , 837 388 
Q 837 432 , 845 448 
Q 853 465 , 868 465 
Q 881 465 , 905 449 
L 905 487 
Q 886 499 , 868 499 
Q 837 499 , 821 472 
Q 805 446 , 805 388 
" fill="#545FFF" stroke="black" stroke-width="1"/>
<path d="
M 981 553 
L 981 550 
L 948 550 
L 948 549 
L 1010 549 
L 1010 554 
Q 988 554 , 968 554 
Q 939 554 , 924 553 
Q 910 552 , 910 550 
Q 910 548 , 924 547 
Q 939 546 , 970 546 
Q 983 546 , 1003 546 
L 1003 548 
Q 983 547 , 970 547 
Q 954 547 , 945 547 
Q 937 548 , 937 550 
Q 937 553 , 968 553 
Q 977 553 , 981 553 
" fill="#F5C000" stroke="black" stroke-width="1"/>
<path d="
M 955 534 
L 965 534 
L 951 540 
L 969 540 
L 955 534 
M 974 542 
L 942 542 
L 933 545 
L 910 545 
L 946 532 
L 974 532 
L 1010 545 
L 983 545 
L 974 542 
" fill="#339541" stroke="black" stroke-width="1"/>
<path d="
M 910 515 
Q 910 507 , 926 503 
Q 942 499 , 973 499 
Q 989 499 , 1008 501 
L 1008 506 
Q 986 504 , 973 504 
Q 942 504 , 942 515 
Q 942 521 , 950 523 
Q 958 526 , 973 526 
Q 986 526 , 1010 524 
L 1010 529 
Q 991 531 , 973 531 
Q 942 531 , 926 527 
Q 910 524 , 910 515 
" fill="#545FFF" stroke="black" stroke-width="1"/>
<path d="
M 997 488 
Q 985 498 , 961 498 
Q 937 498 , 923 488 
Q 910 478 , 910 458 
L 910 358 
L 942 358 
L 942 455 
Q 942 467 , 946 472 
Q 951 477 , 961 477 
Q 972 477 , 976 472 
Q 981 467 , 981 455 
L 981 358 
L 1010 358 
L 1010 458 
Q 1010 478 , 997 488 
" fill="#D21010" stroke="black" stroke-width="1"/>
<path d="
M 1060 550 
L 1070 550 
L 1056 552 
L 1074 552 
L 1060 550 
M 1079 553 
L 1047 553 
L 1038 555 
L 1015 555 
L 1051 549 
L 1079 549 
L 1115 555 
L 1088 555 
L 1079 553 
" fill="#339541" stroke="black" stroke-width="1"/>
<path d="
M 1086 547 
L 1086 544 
L 1053 544 
L 1053 543 
L 1115 543 
L 1115 548 
Q 1093 548 , 1073 548 
Q 1044 548 , 1029 547 
Q 1015 546 , 1015 544 
Q 1015 541 , 1029 540 
Q 1044 539 , 1075 539 
Q 1088 539 , 1108 539 
L 1108 541 
Q 1088 540 , 1075 540 
Q 1059 540 , 1050 541 
Q 1042 542 , 1042 544 
Q 1042 547 , 1073 547 
Q 1082 547 , 1086 547 
" fill="#F5C000" stroke="black" stroke-width="1"/>
<path d="
M 1015 515 
Q 1015 503 , 1031 497 
Q 1047 491 , 1078 491 
Q 1094 491 , 1113 493 
L 1113 501 
Q 1091 498 , 1078 498 
Q 1047 498 , 1047 515 
Q 1047 524 , 1055 527 
Q 1063 531 , 1078 531 
Q 1091 531 , 1115 528 
L 1115 536 
Q 1096 539 , 1078 539 
Q 1047 539 , 1031 533 
Q 1015 527 , 1015 515 
" fill="#545FFF" stroke="black" stroke-width="1"/>
<path d="
M 1102 484 
Q 1090 491 , 1066 491 
Q 1042 491 , 1028 484 
Q 1015 477 , 1015 463 
L 1015 393 
L 1047 393 
L 1047 460 
Q 1047 469 , 1051 472 
Q 1056 476 , 1066 476 
Q 1077 476 , 1081 472 
Q 1086 469 , 1086 460 
L 1086 393 
L 1115 393 
L 1115 463 
Q 1115 477 , 1102 484 
" fill="#D21010" stroke="black" stroke-width="1"/>
<path d="
M 1165 548 
L 1175 548 
L 1161 551 
L 1179 551 
L 1165 548 
M 1184 552 
L 1152 552 
L 1143 554 
L 1120 554 
L 1156 547 
L 1184 547 
L 1220 554 
L 1193 554 
L 1184 552 
" fill="#339541" stroke="black" stroke-width="1"/>
<path d="
M 1191 544 
L 1191 539 
L 1158 539 
L 1158 537 
L 1220 537 
L 1220 545 
Q 1198 546 , 1178 546 
Q 1149 546 , 1134 544 
Q 1120 543 , 1120 539 
Q 1120 535 , 1134 533 
Q 1149 531 , 1180 531 
Q 1193 531 , 1213 532 
L 1213 534 
Q 1193 533 , 1180 533 
Q 1164 533 , 1155 534 
Q 1147 536 , 1147 539 
Q 1147 544 , 1178 544 
Q 1187 544 , 1191 544 
" fill="#F5C000" stroke="black" stroke-width="1"/>
<path d="
M 1207 528 
Q 1195 530 , 1171 530 
Q 1147 530 , 1133 528 
Q 1120 526 , 1120 522 
L 1120 503 
L 1152 503 
L 1152 522 
Q 1152 524 , 1156 525 
Q 1161 526 , 1171 526 
Q 1182 526 , 1186 525 
Q 1191 524 , 1191 522 
L 1191 503 
L 1220 503 
L 1220 522 
Q 1220 526 , 1207 528 
" fill="#D21010" stroke="black" stroke-width="1"/>
<path d="
M 1120 403 
Q 1120 353 , 1136 329 
Q 1152 305 , 1183 305 
Q 1199 305 , 1218 315 
L 1218 347 
Q 1196 335 , 1183 335 
Q 1152 335 , 1152 403 
Q 1152 442 , 1160 457 
Q 1168 472 , 1183 472 
Q 1196 472 , 1220 458 
L 1220 492 
Q 1201 502 , 1183 502 
Q 1152 502 , 1136 478 
Q 1120 455 , 1120 403 
" fill="#545FFF" stroke="black" stroke-width="1"/>
<path d="M 65 55 L 65 555 " stroke="black" stroke-width="1.5"/>
<path d="M 55 555 L 65 555 " stroke="black" stroke-width="4"/>
<text text-anchor="end" x="50" y="555" font-size="50" alignment-baseline="middle">0</text>
<path d="M 55 305 L 65 305 " stroke="black" stroke-width="4"/>
<text text-anchor="end" x="50" y="305" font-size="50" alignment-baseline="middle">1</text>
<path d="M 55 55 L 65 55 " stroke="black" stroke-width="4"/>
<text text-anchor="end" x="50" y="55" font-size="50" alignment-baseline="middle">2</text>
<text text-anchor="middle" x="645" y="50" font-size="50" alignment-baseline="baseline"></text>
G<path d="
M 635 565 
L 655 565 
L 655 578 
L 679 574 
L 685 584 
L 661 588 
L 677 599 
L 661 605 
L 645 594 
L 631 605 
L 615 599 
L 631 588 
L 605 584 
L 611 574 
L 637 578 
L 635 565 
" fill="black" stroke="black" stroke-width="1"/>
</svg>
