<svg xmlns="http://www.w3.org/2000/svg"
viewBox="0 0 1435 635">
<path d="
M 120 554 
L 102 554 
L 136 554 
L 120 554 
M 113 554 
L 127 554 
L 170 555 
L 154 555 
L 142 554 
L 98 554 
L 85 555 
L 70 555 
L 113 554 
" fill="#339541" />
<path d="
M 70 553 
L 88 553 
L 88 553 
Q 88 553 , 96 553 
Q 103 554 , 120 554 
Q 137 554 , 145 553 
Q 152 553 , 152 553 
L 152 553 
L 170 553 
L 170 553 
Q 170 553 , 157 554 
Q 145 554 , 120 554 
Q 96 554 , 83 554 
Q 70 553 , 70 553 
L 70 553 
" fill="#D21010" />
<path d="
M 170 552 
L 170 552 
Q 155 552 , 147 552 
Q 139 552 , 129 552 
Q 108 552 , 98 552 
Q 86 552 , 86 552 
Q 86 552 , 98 553 
Q 108 553 , 129 553 
Q 139 553 , 147 553 
Q 155 553 , 170 552 
L 170 553 
Q 159 553 , 149 553 
Q 139 553 , 128 553 
Q 101 553 , 86 553 
Q 70 552 , 70 552 
Q 70 552 , 86 552 
Q 101 552 , 128 552 
Q 139 552 , 149 552 
Q 160 552 , 170 552 
" fill="#545FFF" />
<path d="
M 154 552 
L 154 551 
L 125 551 
L 125 551 
L 170 551 
L 170 552 
Q 159 552 , 148 552 
Q 139 552 , 127 552 
Q 101 552 , 85 552 
Q 70 552 , 70 551 
Q 70 551 , 85 551 
Q 101 551 , 127 551 
Q 138 551 , 147 551 
Q 157 551 , 167 551 
L 167 551 
Q 154 551 , 146 551 
Q 137 551 , 128 551 
Q 107 551 , 96 551 
Q 86 551 , 86 551 
Q 86 552 , 96 552 
Q 107 552 , 128 552 
Q 137 552 , 144 552 
Q 151 552 , 154 552 
" fill="#F5C000" />
<path d="
M 175 552 
L 184 552 
L 184 553 
Q 184 554 , 188 554 
Q 191 554 , 200 554 
Q 209 554 , 212 554 
Q 216 554 , 216 553 
L 216 552 
L 225 552 
L 225 553 
Q 225 554 , 219 554 
Q 212 554 , 200 554 
Q 188 554 , 181 554 
Q 175 554 , 175 553 
L 175 552 
" fill="#D21010" />
<path d="
M 267 554 
L 267 553 
L 253 553 
L 253 553 
L 275 553 
L 275 554 
Q 270 554 , 264 554 
Q 259 554 , 253 554 
Q 240 554 , 233 554 
Q 225 554 , 225 553 
Q 225 553 , 233 552 
Q 240 552 , 253 552 
Q 259 552 , 264 552 
Q 269 552 , 274 552 
L 274 552 
Q 267 552 , 263 552 
Q 259 552 , 254 552 
Q 244 552 , 238 552 
Q 233 553 , 233 553 
Q 233 554 , 238 554 
Q 244 554 , 254 554 
Q 259 554 , 262 554 
Q 266 554 , 267 554 
" fill="lightgray" />
<path d="
M 217 551 
L 217 550 
L 203 550 
L 203 549 
L 225 549 
L 225 551 
Q 220 551 , 214 551 
Q 209 551 , 203 551 
Q 190 551 , 183 551 
Q 175 550 , 175 550 
Q 175 549 , 183 548 
Q 190 548 , 203 548 
Q 209 548 , 214 548 
Q 219 548 , 224 548 
L 224 549 
Q 217 548 , 213 548 
Q 209 548 , 204 548 
Q 194 548 , 188 549 
Q 183 549 , 183 550 
Q 183 550 , 188 550 
Q 194 551 , 204 551 
Q 209 551 , 212 551 
Q 216 551 , 217 551 
" fill="#F5C000" />
<path d="
M 225 548 
L 234 548 
L 234 550 
Q 234 550 , 238 551 
Q 241 551 , 250 551 
Q 259 551 , 262 551 
Q 266 550 , 266 550 
L 266 548 
L 275 548 
L 275 550 
Q 275 550 , 269 551 
Q 262 551 , 250 551 
Q 238 551 , 231 551 
Q 225 550 , 225 550 
L 225 548 
" fill="lightgray" />
<path d="
M 175 535 
L 184 535 
L 184 543 
Q 184 545 , 188 546 
Q 191 546 , 200 546 
Q 209 546 , 212 546 
Q 216 545 , 216 543 
L 216 535 
L 225 535 
L 225 543 
Q 225 545 , 219 547 
Q 212 548 , 200 548 
Q 188 548 , 181 547 
Q 175 545 , 175 543 
L 175 535 
" fill="#D21010" />
<path d="
M 250 537 
L 241 543 
L 258 543 
L 250 537 
M 246 535 
L 254 535 
L 275 548 
L 267 548 
L 261 544 
L 239 544 
L 232 548 
L 225 548 
L 246 535 
" fill="lightgray" />
<path d="
M 200 520 
L 191 527 
L 208 527 
L 200 520 
M 196 517 
L 204 517 
L 225 535 
L 217 535 
L 211 529 
L 189 529 
L 182 535 
L 175 535 
L 196 517 
" fill="#339541" />
<path d="
M 225 517 
L 234 517 
L 234 527 
Q 234 530 , 238 532 
Q 241 533 , 250 533 
Q 259 533 , 262 532 
Q 266 530 , 266 527 
L 266 517 
L 275 517 
L 275 528 
Q 275 531 , 269 533 
Q 262 535 , 250 535 
Q 238 535 , 231 533 
Q 225 531 , 225 528 
L 225 517 
" fill="lightgray" />
<path d="
M 217 513 
L 217 505 
L 203 505 
L 203 501 
L 225 501 
L 225 515 
Q 220 516 , 214 516 
Q 209 517 , 203 517 
Q 190 517 , 183 513 
Q 175 509 , 175 502 
Q 175 495 , 183 491 
Q 190 487 , 203 487 
Q 209 487 , 214 488 
Q 219 488 , 224 489 
L 224 493 
Q 217 492 , 213 491 
Q 209 491 , 204 491 
Q 194 491 , 188 493 
Q 183 496 , 183 502 
Q 183 508 , 188 511 
Q 194 514 , 204 514 
Q 209 514 , 212 513 
Q 216 513 , 217 513 
" fill="#F5C000" />
<path d="
M 275 490 
L 275 495 
Q 268 492 , 264 491 
Q 259 490 , 254 490 
Q 244 490 , 239 493 
Q 233 496 , 233 502 
Q 233 508 , 239 511 
Q 244 514 , 254 514 
Q 259 514 , 264 513 
Q 268 512 , 275 509 
L 275 514 
Q 270 516 , 264 516 
Q 260 517 , 254 517 
Q 240 517 , 233 513 
Q 225 509 , 225 502 
Q 225 495 , 233 491 
Q 240 487 , 254 487 
Q 260 487 , 265 488 
Q 270 488 , 275 490 
" fill="lightgray" />
<path d="
M 225 416 
L 225 428 
Q 218 421 , 214 419 
Q 209 417 , 204 417 
Q 194 417 , 189 424 
Q 183 432 , 183 447 
Q 183 463 , 189 470 
Q 194 478 , 204 478 
Q 209 478 , 214 476 
Q 218 474 , 225 466 
L 225 479 
Q 220 483 , 214 485 
Q 210 487 , 204 487 
Q 190 487 , 183 476 
Q 175 465 , 175 447 
Q 175 429 , 183 419 
Q 190 408 , 204 408 
Q 210 408 , 215 410 
Q 220 412 , 225 416 
" fill="#545FFF" />
<path d="
M 267 475 
L 267 454 
L 253 454 
L 253 446 
L 275 446 
L 275 481 
Q 270 484 , 264 485 
Q 259 487 , 253 487 
Q 240 487 , 233 476 
Q 225 466 , 225 447 
Q 225 429 , 233 419 
Q 240 408 , 253 408 
Q 259 408 , 264 409 
Q 269 411 , 274 414 
L 274 424 
Q 267 420 , 263 419 
Q 259 417 , 254 417 
Q 244 417 , 238 425 
Q 233 432 , 233 447 
Q 233 463 , 238 470 
Q 244 478 , 254 478 
Q 259 478 , 262 477 
Q 266 476 , 267 475 
" fill="lightgray" />
<path d="
M 280 553 
L 298 553 
L 298 554 
Q 298 554 , 306 554 
Q 313 555 , 330 555 
Q 347 555 , 355 554 
Q 362 554 , 362 554 
L 362 553 
L 380 553 
L 380 554 
Q 380 554 , 367 555 
Q 355 555 , 330 555 
Q 306 555 , 293 555 
Q 280 554 , 280 554 
L 280 553 
" fill="#D21010" />
<path d="
M 330 551 
L 312 552 
L 346 552 
L 330 551 
M 323 551 
L 337 551 
L 380 553 
L 364 553 
L 352 552 
L 308 552 
L 295 553 
L 280 553 
L 323 551 
" fill="#339541" />
<path d="
M 364 551 
L 364 550 
L 335 550 
L 335 549 
L 380 549 
L 380 551 
Q 369 551 , 358 551 
Q 349 551 , 337 551 
Q 311 551 , 295 551 
Q 280 550 , 280 549 
Q 280 549 , 295 548 
Q 311 548 , 337 548 
Q 348 548 , 357 548 
Q 367 548 , 377 548 
L 377 549 
Q 364 548 , 356 548 
Q 347 548 , 338 548 
Q 317 548 , 306 549 
Q 296 549 , 296 549 
Q 296 550 , 306 550 
Q 317 551 , 338 551 
Q 347 551 , 354 551 
Q 361 551 , 364 551 
" fill="#F5C000" />
<path d="
M 380 545 
L 380 546 
Q 365 545 , 357 545 
Q 349 545 , 339 545 
Q 318 545 , 308 546 
Q 296 546 , 296 546 
Q 296 547 , 308 547 
Q 318 548 , 339 548 
Q 349 548 , 357 548 
Q 365 548 , 380 547 
L 380 548 
Q 369 548 , 359 548 
Q 349 548 , 338 548 
Q 311 548 , 296 548 
Q 280 547 , 280 546 
Q 280 546 , 296 545 
Q 311 545 , 338 545 
Q 349 545 , 359 545 
Q 370 545 , 380 545 
" fill="#545FFF" />
<path d="
M 385 553 
L 394 553 
L 394 554 
Q 394 554 , 398 554 
Q 401 555 , 410 555 
Q 419 555 , 422 554 
Q 426 554 , 426 554 
L 426 553 
L 435 553 
L 435 554 
Q 435 554 , 429 555 
Q 422 555 , 410 555 
Q 398 555 , 391 555 
Q 385 554 , 385 554 
L 385 553 
" fill="#D21010" />
<path d="
M 477 554 
L 477 554 
L 463 554 
L 463 554 
L 485 554 
L 485 555 
Q 480 555 , 474 555 
Q 469 555 , 463 555 
Q 450 555 , 443 554 
Q 435 554 , 435 554 
Q 435 553 , 443 553 
Q 450 553 , 463 553 
Q 469 553 , 474 553 
Q 479 553 , 484 553 
L 484 553 
Q 477 553 , 473 553 
Q 469 553 , 464 553 
Q 454 553 , 448 553 
Q 443 554 , 443 554 
Q 443 554 , 448 554 
Q 454 555 , 464 555 
Q 469 555 , 472 555 
Q 476 555 , 477 554 
" fill="lightgray" />
<path d="
M 427 552 
L 427 551 
L 413 551 
L 413 550 
L 435 550 
L 435 552 
Q 430 552 , 424 552 
Q 419 552 , 413 552 
Q 400 552 , 393 552 
Q 385 551 , 385 551 
Q 385 550 , 393 549 
Q 400 549 , 413 549 
Q 419 549 , 424 549 
Q 429 549 , 434 549 
L 434 550 
Q 427 549 , 423 549 
Q 419 549 , 414 549 
Q 404 549 , 398 550 
Q 393 550 , 393 551 
Q 393 551 , 398 551 
Q 404 552 , 414 552 
Q 419 552 , 422 552 
Q 426 552 , 427 552 
" fill="#F5C000" />
<path d="
M 435 549 
L 444 549 
L 444 551 
Q 444 551 , 448 552 
Q 451 552 , 460 552 
Q 469 552 , 472 552 
Q 476 551 , 476 551 
L 476 549 
L 485 549 
L 485 551 
Q 485 551 , 479 552 
Q 472 552 , 460 552 
Q 448 552 , 441 552 
Q 435 551 , 435 551 
L 435 549 
" fill="lightgray" />
<path d="
M 427 548 
L 427 546 
L 413 546 
L 413 546 
L 435 546 
L 435 548 
Q 430 548 , 424 548 
Q 419 548 , 413 548 
Q 400 548 , 393 548 
Q 385 547 , 385 546 
Q 385 544 , 393 544 
Q 400 543 , 413 543 
Q 419 543 , 424 543 
Q 429 543 , 434 543 
L 434 544 
Q 427 544 , 423 544 
Q 419 544 , 414 544 
Q 404 544 , 398 544 
Q 393 545 , 393 546 
Q 393 547 , 398 547 
Q 404 548 , 414 548 
Q 419 548 , 422 548 
Q 426 548 , 427 548 
" fill="#F5C000" />
<path d="
M 485 544 
L 485 544 
Q 478 544 , 474 544 
Q 469 544 , 464 544 
Q 454 544 , 449 544 
Q 443 545 , 443 546 
Q 443 547 , 449 547 
Q 454 548 , 464 548 
Q 469 548 , 474 548 
Q 478 547 , 485 547 
L 485 548 
Q 480 548 , 474 548 
Q 470 548 , 464 548 
Q 450 548 , 443 548 
Q 435 547 , 435 546 
Q 435 544 , 443 544 
Q 450 543 , 464 543 
Q 470 543 , 475 543 
Q 480 543 , 485 544 
" fill="lightgray" />
<path d="
M 410 538 
L 401 540 
L 418 540 
L 410 538 
M 406 537 
L 414 537 
L 435 542 
L 427 542 
L 421 541 
L 399 541 
L 392 542 
L 385 542 
L 406 537 
" fill="#339541" />
<path d="
M 435 537 
L 444 537 
L 444 540 
Q 444 541 , 448 542 
Q 451 542 , 460 542 
Q 469 542 , 472 542 
Q 476 541 , 476 540 
L 476 537 
L 485 537 
L 485 540 
Q 485 541 , 479 542 
Q 472 542 , 460 542 
Q 448 542 , 441 542 
Q 435 541 , 435 540 
L 435 537 
" fill="lightgray" />
<path d="
M 385 528 
L 394 528 
L 394 533 
Q 394 534 , 398 535 
Q 401 535 , 410 535 
Q 419 535 , 422 535 
Q 426 534 , 426 533 
L 426 528 
L 435 528 
L 435 533 
Q 435 534 , 429 535 
Q 422 536 , 410 536 
Q 398 536 , 391 535 
Q 385 534 , 385 533 
L 385 528 
" fill="#D21010" />
<path d="
M 460 529 
L 451 533 
L 468 533 
L 460 529 
M 456 528 
L 464 528 
L 485 536 
L 477 536 
L 471 534 
L 449 534 
L 442 536 
L 435 536 
L 456 528 
" fill="lightgray" />
<path d="
M 435 520 
L 435 521 
Q 428 520 , 424 520 
Q 419 520 , 414 520 
Q 404 520 , 399 521 
Q 393 522 , 393 523 
Q 393 525 , 399 526 
Q 404 527 , 414 527 
Q 419 527 , 424 527 
Q 428 526 , 435 526 
L 435 527 
Q 430 527 , 424 528 
Q 420 528 , 414 528 
Q 400 528 , 393 527 
Q 385 525 , 385 523 
Q 385 521 , 393 520 
Q 400 519 , 414 519 
Q 420 519 , 425 519 
Q 430 519 , 435 520 
" fill="#545FFF" />
<path d="
M 477 527 
L 477 524 
L 463 524 
L 463 523 
L 485 523 
L 485 527 
Q 480 528 , 474 528 
Q 469 528 , 463 528 
Q 450 528 , 443 527 
Q 435 526 , 435 523 
Q 435 521 , 443 520 
Q 450 519 , 463 519 
Q 469 519 , 474 519 
Q 479 519 , 484 520 
L 484 521 
Q 477 520 , 473 520 
Q 469 520 , 464 520 
Q 454 520 , 448 521 
Q 443 522 , 443 523 
Q 443 525 , 448 526 
Q 454 527 , 464 527 
Q 469 527 , 472 527 
Q 476 527 , 477 527 
" fill="lightgray" />
<path d="
M 540 549 
L 522 552 
L 556 552 
L 540 549 
M 533 548 
L 547 548 
L 590 555 
L 574 555 
L 562 553 
L 518 553 
L 505 555 
L 490 555 
L 533 548 
" fill="#339541" />
<path d="
M 490 539 
L 508 539 
L 508 544 
Q 508 545 , 516 546 
Q 523 547 , 540 547 
Q 557 547 , 565 546 
Q 572 545 , 572 544 
L 572 539 
L 590 539 
L 590 544 
Q 590 546 , 577 547 
Q 565 548 , 540 548 
Q 516 548 , 503 547 
Q 490 546 , 490 544 
L 490 539 
" fill="#D21010" />
<path d="
M 590 516 
L 590 520 
Q 575 517 , 567 516 
Q 559 516 , 549 516 
Q 528 516 , 518 518 
Q 506 521 , 506 525 
Q 506 530 , 518 533 
Q 528 535 , 549 535 
Q 559 535 , 567 535 
Q 575 534 , 590 532 
L 590 536 
Q 579 537 , 569 538 
Q 559 538 , 548 538 
Q 521 538 , 506 535 
Q 490 531 , 490 526 
Q 490 520 , 506 516 
Q 521 513 , 548 513 
Q 559 513 , 569 514 
Q 580 514 , 590 516 
" fill="#545FFF" />
<path d="
M 574 501 
L 574 481 
L 545 481 
L 545 472 
L 590 472 
L 590 507 
Q 579 510 , 568 511 
Q 559 512 , 547 513 
Q 521 513 , 505 502 
Q 490 492 , 490 474 
Q 490 456 , 505 445 
Q 521 435 , 547 435 
Q 558 435 , 567 436 
Q 577 438 , 587 441 
L 587 451 
Q 574 447 , 566 445 
Q 557 444 , 548 444 
Q 527 444 , 516 451 
Q 506 459 , 506 474 
Q 506 489 , 516 497 
Q 527 504 , 548 504 
Q 557 504 , 564 503 
Q 571 502 , 574 501 
" fill="#F5C000" />
<path d="
M 645 553 
L 627 554 
L 661 554 
L 645 553 
M 638 552 
L 652 552 
L 695 555 
L 679 555 
L 667 554 
L 623 554 
L 610 555 
L 595 555 
L 638 552 
" fill="#339541" />
<path d="
M 695 544 
L 695 545 
Q 680 544 , 672 544 
Q 664 544 , 654 544 
Q 633 544 , 623 545 
Q 611 546 , 611 547 
Q 611 549 , 623 549 
Q 633 550 , 654 550 
Q 664 550 , 672 550 
Q 680 550 , 695 549 
L 695 550 
Q 684 551 , 674 551 
Q 664 551 , 653 551 
Q 626 551 , 611 550 
Q 595 549 , 595 547 
Q 595 545 , 611 544 
Q 626 543 , 653 543 
Q 664 543 , 674 543 
Q 685 543 , 695 544 
" fill="#545FFF" />
<path d="
M 595 534 
L 613 534 
L 613 539 
Q 613 541 , 621 541 
Q 628 542 , 645 542 
Q 662 542 , 670 541 
Q 677 541 , 677 539 
L 677 534 
L 695 534 
L 695 539 
Q 695 541 , 682 542 
Q 670 543 , 645 543 
Q 621 543 , 608 542 
Q 595 541 , 595 539 
L 595 534 
" fill="#D21010" />
<path d="
M 679 531 
L 679 528 
L 650 528 
L 650 526 
L 695 526 
L 695 532 
Q 684 533 , 673 533 
Q 664 534 , 652 534 
Q 626 534 , 610 532 
Q 595 530 , 595 526 
Q 595 523 , 610 521 
Q 626 519 , 652 519 
Q 663 519 , 672 519 
Q 682 520 , 692 520 
L 692 522 
Q 679 521 , 671 521 
Q 662 521 , 653 521 
Q 632 521 , 621 522 
Q 611 523 , 611 526 
Q 611 529 , 621 531 
Q 632 532 , 653 532 
Q 662 532 , 669 532 
Q 676 532 , 679 531 
" fill="#F5C000" />
<path d="
M 750 554 
L 732 554 
L 766 554 
L 750 554 
M 743 554 
L 757 554 
L 800 555 
L 784 555 
L 772 554 
L 728 554 
L 715 555 
L 700 555 
L 743 554 
" fill="#339541" />
<path d="
M 700 553 
L 718 553 
L 718 553 
Q 718 553 , 726 553 
Q 733 554 , 750 554 
Q 767 554 , 775 553 
Q 782 553 , 782 553 
L 782 553 
L 800 553 
L 800 553 
Q 800 553 , 787 554 
Q 775 554 , 750 554 
Q 726 554 , 713 554 
Q 700 553 , 700 553 
L 700 553 
" fill="#D21010" />
<path d="
M 800 552 
L 800 552 
Q 785 552 , 777 552 
Q 769 552 , 759 552 
Q 738 552 , 728 552 
Q 716 552 , 716 552 
Q 716 552 , 728 553 
Q 738 553 , 759 553 
Q 769 553 , 777 553 
Q 785 553 , 800 552 
L 800 553 
Q 789 553 , 779 553 
Q 769 553 , 758 553 
Q 731 553 , 716 553 
Q 700 552 , 700 552 
Q 700 552 , 716 552 
Q 731 552 , 758 552 
Q 769 552 , 779 552 
Q 790 552 , 800 552 
" fill="#545FFF" />
<path d="
M 784 552 
L 784 551 
L 755 551 
L 755 551 
L 800 551 
L 800 552 
Q 789 552 , 778 552 
Q 769 552 , 757 552 
Q 731 552 , 715 552 
Q 700 552 , 700 551 
Q 700 551 , 715 551 
Q 731 551 , 757 551 
Q 768 551 , 777 551 
Q 787 551 , 797 551 
L 797 551 
Q 784 551 , 776 551 
Q 767 551 , 758 551 
Q 737 551 , 726 551 
Q 716 551 , 716 551 
Q 716 552 , 726 552 
Q 737 552 , 758 552 
Q 767 552 , 774 552 
Q 781 552 , 784 552 
" fill="#F5C000" />
<path d="
M 805 550 
L 823 550 
L 823 553 
Q 823 554 , 831 554 
Q 838 554 , 855 554 
Q 872 554 , 880 554 
Q 887 554 , 887 553 
L 887 550 
L 905 550 
L 905 553 
Q 905 554 , 892 554 
Q 880 555 , 855 555 
Q 831 555 , 818 554 
Q 805 554 , 805 553 
L 805 550 
" fill="#D21010" />
<path d="
M 855 545 
L 837 547 
L 871 547 
L 855 545 
M 848 544 
L 862 544 
L 905 550 
L 889 550 
L 877 548 
L 833 548 
L 820 550 
L 805 550 
L 848 544 
" fill="#339541" />
<path d="
M 905 533 
L 905 535 
Q 890 534 , 882 534 
Q 874 533 , 864 533 
Q 843 533 , 833 534 
Q 821 536 , 821 538 
Q 821 540 , 833 541 
Q 843 543 , 864 543 
Q 874 543 , 882 542 
Q 890 542 , 905 541 
L 905 543 
Q 894 543 , 884 544 
Q 874 544 , 863 544 
Q 836 544 , 821 542 
Q 805 541 , 805 538 
Q 805 535 , 821 534 
Q 836 532 , 863 532 
Q 874 532 , 884 532 
Q 895 533 , 905 533 
" fill="#545FFF" />
<path d="
M 889 529 
L 889 524 
L 860 524 
L 860 522 
L 905 522 
L 905 530 
Q 894 531 , 883 532 
Q 874 532 , 862 532 
Q 836 532 , 820 529 
Q 805 527 , 805 522 
Q 805 518 , 820 516 
Q 836 513 , 862 513 
Q 873 513 , 882 513 
Q 892 514 , 902 515 
L 902 517 
Q 889 516 , 881 516 
Q 872 515 , 863 515 
Q 842 515 , 831 517 
Q 821 519 , 821 522 
Q 821 526 , 831 528 
Q 842 530 , 863 530 
Q 872 530 , 879 530 
Q 886 529 , 889 529 
" fill="#F5C000" />
<path d="
M 910 553 
L 919 553 
L 919 554 
Q 919 554 , 923 554 
Q 926 555 , 935 555 
Q 944 555 , 947 554 
Q 951 554 , 951 554 
L 951 553 
L 960 553 
L 960 554 
Q 960 554 , 954 555 
Q 947 555 , 935 555 
Q 923 555 , 916 555 
Q 910 554 , 910 554 
L 910 553 
" fill="lightgray" />
<path d="
M 1002 554 
L 1002 554 
L 988 554 
L 988 554 
L 1010 554 
L 1010 555 
Q 1005 555 , 999 555 
Q 994 555 , 988 555 
Q 975 555 , 968 554 
Q 960 554 , 960 554 
Q 960 553 , 968 553 
Q 975 553 , 988 553 
Q 994 553 , 999 553 
Q 1004 553 , 1009 553 
L 1009 553 
Q 1002 553 , 998 553 
Q 994 553 , 989 553 
Q 979 553 , 973 553 
Q 968 554 , 968 554 
Q 968 554 , 973 554 
Q 979 555 , 989 555 
Q 994 555 , 997 555 
Q 1001 555 , 1002 554 
" fill="#F5C000" />
<path d="
M 952 552 
L 952 551 
L 938 551 
L 938 550 
L 960 550 
L 960 552 
Q 955 552 , 949 552 
Q 944 552 , 938 552 
Q 925 552 , 918 552 
Q 910 551 , 910 551 
Q 910 550 , 918 549 
Q 925 549 , 938 549 
Q 944 549 , 949 549 
Q 954 549 , 959 549 
L 959 550 
Q 952 549 , 948 549 
Q 944 549 , 939 549 
Q 929 549 , 923 550 
Q 918 550 , 918 551 
Q 918 551 , 923 551 
Q 929 552 , 939 552 
Q 944 552 , 947 552 
Q 951 552 , 952 552 
" fill="lightgray" />
<path d="
M 960 549 
L 969 549 
L 969 551 
Q 969 551 , 973 552 
Q 976 552 , 985 552 
Q 994 552 , 997 552 
Q 1001 551 , 1001 551 
L 1001 549 
L 1010 549 
L 1010 551 
Q 1010 551 , 1004 552 
Q 997 552 , 985 552 
Q 973 552 , 966 552 
Q 960 551 , 960 551 
L 960 549 
" fill="#D21010" />
<path d="
M 952 548 
L 952 546 
L 938 546 
L 938 546 
L 960 546 
L 960 548 
Q 955 548 , 949 548 
Q 944 548 , 938 548 
Q 925 548 , 918 548 
Q 910 547 , 910 546 
Q 910 544 , 918 544 
Q 925 543 , 938 543 
Q 944 543 , 949 543 
Q 954 543 , 959 543 
L 959 544 
Q 952 544 , 948 544 
Q 944 544 , 939 544 
Q 929 544 , 923 544 
Q 918 545 , 918 546 
Q 918 547 , 923 547 
Q 929 548 , 939 548 
Q 944 548 , 947 548 
Q 951 548 , 952 548 
" fill="lightgray" />
<path d="
M 1010 544 
L 1010 544 
Q 1003 544 , 999 544 
Q 994 544 , 989 544 
Q 979 544 , 974 544 
Q 968 545 , 968 546 
Q 968 547 , 974 547 
Q 979 548 , 989 548 
Q 994 548 , 999 548 
Q 1003 547 , 1010 547 
L 1010 548 
Q 1005 548 , 999 548 
Q 995 548 , 989 548 
Q 975 548 , 968 548 
Q 960 547 , 960 546 
Q 960 544 , 968 544 
Q 975 543 , 989 543 
Q 995 543 , 1000 543 
Q 1005 543 , 1010 544 
" fill="#545FFF" />
<path d="
M 935 538 
L 926 540 
L 943 540 
L 935 538 
M 931 537 
L 939 537 
L 960 542 
L 952 542 
L 946 541 
L 924 541 
L 917 542 
L 910 542 
L 931 537 
" fill="lightgray" />
<path d="
M 960 537 
L 969 537 
L 969 540 
Q 969 541 , 973 542 
Q 976 542 , 985 542 
Q 994 542 , 997 542 
Q 1001 541 , 1001 540 
L 1001 537 
L 1010 537 
L 1010 540 
Q 1010 541 , 1004 542 
Q 997 542 , 985 542 
Q 973 542 , 966 542 
Q 960 541 , 960 540 
L 960 537 
" fill="#D21010" />
<path d="
M 910 528 
L 919 528 
L 919 533 
Q 919 534 , 923 535 
Q 926 535 , 935 535 
Q 944 535 , 947 535 
Q 951 534 , 951 533 
L 951 528 
L 960 528 
L 960 533 
Q 960 534 , 954 535 
Q 947 536 , 935 536 
Q 923 536 , 916 535 
Q 910 534 , 910 533 
L 910 528 
" fill="lightgray" />
<path d="
M 985 529 
L 976 533 
L 993 533 
L 985 529 
M 981 528 
L 989 528 
L 1010 536 
L 1002 536 
L 996 534 
L 974 534 
L 967 536 
L 960 536 
L 981 528 
" fill="#339541" />
<path d="
M 960 520 
L 960 521 
Q 953 520 , 949 520 
Q 944 520 , 939 520 
Q 929 520 , 924 521 
Q 918 522 , 918 523 
Q 918 525 , 924 526 
Q 929 527 , 939 527 
Q 944 527 , 949 527 
Q 953 526 , 960 526 
L 960 527 
Q 955 527 , 949 528 
Q 945 528 , 939 528 
Q 925 528 , 918 527 
Q 910 525 , 910 523 
Q 910 521 , 918 520 
Q 925 519 , 939 519 
Q 945 519 , 950 519 
Q 955 519 , 960 520 
" fill="lightgray" />
<path d="
M 1002 527 
L 1002 524 
L 988 524 
L 988 523 
L 1010 523 
L 1010 527 
Q 1005 528 , 999 528 
Q 994 528 , 988 528 
Q 975 528 , 968 527 
Q 960 526 , 960 523 
Q 960 521 , 968 520 
Q 975 519 , 988 519 
Q 994 519 , 999 519 
Q 1004 519 , 1009 520 
L 1009 521 
Q 1002 520 , 998 520 
Q 994 520 , 989 520 
Q 979 520 , 973 521 
Q 968 522 , 968 523 
Q 968 525 , 973 526 
Q 979 527 , 989 527 
Q 994 527 , 997 527 
Q 1001 527 , 1002 527 
" fill="#F5C000" />
<path d="
M 1065 552 
L 1047 553 
L 1081 553 
L 1065 552 
M 1058 551 
L 1072 551 
L 1115 555 
L 1099 555 
L 1087 553 
L 1043 553 
L 1030 555 
L 1015 555 
L 1058 551 
" fill="#339541" />
<path d="
M 1015 544 
L 1033 544 
L 1033 548 
Q 1033 549 , 1041 550 
Q 1048 550 , 1065 550 
Q 1082 550 , 1090 550 
Q 1097 549 , 1097 548 
L 1097 544 
L 1115 544 
L 1115 548 
Q 1115 549 , 1102 550 
Q 1090 551 , 1065 551 
Q 1041 551 , 1028 550 
Q 1015 549 , 1015 548 
L 1015 544 
" fill="#D21010" />
<path d="
M 1099 537 
L 1099 525 
L 1070 525 
L 1070 520 
L 1115 520 
L 1115 540 
Q 1104 542 , 1093 543 
Q 1084 543 , 1072 543 
Q 1046 543 , 1030 537 
Q 1015 531 , 1015 521 
Q 1015 510 , 1030 504 
Q 1046 498 , 1072 498 
Q 1083 498 , 1092 499 
Q 1102 500 , 1112 502 
L 1112 507 
Q 1099 505 , 1091 504 
Q 1082 503 , 1073 503 
Q 1052 503 , 1041 508 
Q 1031 512 , 1031 521 
Q 1031 530 , 1041 534 
Q 1052 538 , 1073 538 
Q 1082 538 , 1089 538 
Q 1096 537 , 1099 537 
" fill="#F5C000" />
<path d="
M 1115 452 
L 1115 459 
Q 1100 454 , 1092 453 
Q 1084 452 , 1074 452 
Q 1053 452 , 1043 457 
Q 1031 462 , 1031 472 
Q 1031 482 , 1043 487 
Q 1053 492 , 1074 492 
Q 1084 492 , 1092 491 
Q 1100 489 , 1115 484 
L 1115 492 
Q 1104 495 , 1094 496 
Q 1084 498 , 1073 498 
Q 1046 498 , 1031 491 
Q 1015 484 , 1015 472 
Q 1015 460 , 1031 453 
Q 1046 446 , 1073 446 
Q 1084 446 , 1094 447 
Q 1105 449 , 1115 452 
" fill="#545FFF" />
<path d="
M 1204 554 
L 1204 553 
L 1175 553 
L 1175 553 
L 1220 553 
L 1220 554 
Q 1209 554 , 1198 554 
Q 1189 555 , 1177 555 
Q 1151 555 , 1135 554 
Q 1120 554 , 1120 553 
Q 1120 553 , 1135 552 
Q 1151 552 , 1177 552 
Q 1188 552 , 1197 552 
Q 1207 552 , 1217 552 
L 1217 553 
Q 1204 552 , 1196 552 
Q 1187 552 , 1178 552 
Q 1157 552 , 1146 553 
Q 1136 553 , 1136 553 
Q 1136 554 , 1146 554 
Q 1157 554 , 1178 554 
Q 1187 554 , 1194 554 
Q 1201 554 , 1204 554 
" fill="#F5C000" />
<path d="
M 1120 547 
L 1138 547 
L 1138 549 
Q 1138 550 , 1146 550 
Q 1153 551 , 1170 551 
Q 1187 551 , 1195 550 
Q 1202 550 , 1202 549 
L 1202 547 
L 1220 547 
L 1220 549 
Q 1220 550 , 1207 551 
Q 1195 551 , 1170 551 
Q 1146 551 , 1133 551 
Q 1120 550 , 1120 549 
L 1120 547 
" fill="#D21010" />
<path d="
M 1220 542 
L 1220 542 
Q 1205 542 , 1197 542 
Q 1189 542 , 1179 542 
Q 1158 542 , 1148 542 
Q 1136 543 , 1136 544 
Q 1136 545 , 1148 546 
Q 1158 546 , 1179 546 
Q 1189 546 , 1197 546 
Q 1205 546 , 1220 545 
L 1220 546 
Q 1209 546 , 1199 547 
Q 1189 547 , 1178 547 
Q 1151 547 , 1136 546 
Q 1120 545 , 1120 544 
Q 1120 543 , 1136 542 
Q 1151 541 , 1178 541 
Q 1189 541 , 1199 541 
Q 1210 541 , 1220 542 
" fill="#545FFF" />
<path d="
M 1170 534 
L 1152 537 
L 1186 537 
L 1170 534 
M 1163 533 
L 1177 533 
L 1220 540 
L 1204 540 
L 1192 538 
L 1148 538 
L 1135 540 
L 1120 540 
L 1163 533 
" fill="#339541" />
<path d="
M 1225 552 
L 1234 552 
L 1234 553 
Q 1234 554 , 1238 554 
Q 1241 554 , 1250 554 
Q 1259 554 , 1262 554 
Q 1266 554 , 1266 553 
L 1266 552 
L 1275 552 
L 1275 553 
Q 1275 554 , 1269 554 
Q 1262 554 , 1250 554 
Q 1238 554 , 1231 554 
Q 1225 554 , 1225 553 
L 1225 552 
" fill="lightgray" />
<path d="
M 1317 554 
L 1317 553 
L 1303 553 
L 1303 553 
L 1325 553 
L 1325 554 
Q 1320 554 , 1314 554 
Q 1309 554 , 1303 554 
Q 1290 554 , 1283 554 
Q 1275 554 , 1275 553 
Q 1275 553 , 1283 552 
Q 1290 552 , 1303 552 
Q 1309 552 , 1314 552 
Q 1319 552 , 1324 552 
L 1324 552 
Q 1317 552 , 1313 552 
Q 1309 552 , 1304 552 
Q 1294 552 , 1288 552 
Q 1283 553 , 1283 553 
Q 1283 554 , 1288 554 
Q 1294 554 , 1304 554 
Q 1309 554 , 1312 554 
Q 1316 554 , 1317 554 
" fill="#F5C000" />
<path d="
M 1267 551 
L 1267 550 
L 1253 550 
L 1253 549 
L 1275 549 
L 1275 551 
Q 1270 551 , 1264 551 
Q 1259 551 , 1253 551 
Q 1240 551 , 1233 551 
Q 1225 550 , 1225 550 
Q 1225 549 , 1233 548 
Q 1240 548 , 1253 548 
Q 1259 548 , 1264 548 
Q 1269 548 , 1274 548 
L 1274 549 
Q 1267 548 , 1263 548 
Q 1259 548 , 1254 548 
Q 1244 548 , 1238 549 
Q 1233 549 , 1233 550 
Q 1233 550 , 1238 550 
Q 1244 551 , 1254 551 
Q 1259 551 , 1262 551 
Q 1266 551 , 1267 551 
" fill="lightgray" />
<path d="
M 1275 548 
L 1284 548 
L 1284 550 
Q 1284 550 , 1288 551 
Q 1291 551 , 1300 551 
Q 1309 551 , 1312 551 
Q 1316 550 , 1316 550 
L 1316 548 
L 1325 548 
L 1325 550 
Q 1325 550 , 1319 551 
Q 1312 551 , 1300 551 
Q 1288 551 , 1281 551 
Q 1275 550 , 1275 550 
L 1275 548 
" fill="#D21010" />
<path d="
M 1225 535 
L 1234 535 
L 1234 543 
Q 1234 545 , 1238 546 
Q 1241 546 , 1250 546 
Q 1259 546 , 1262 546 
Q 1266 545 , 1266 543 
L 1266 535 
L 1275 535 
L 1275 543 
Q 1275 545 , 1269 547 
Q 1262 548 , 1250 548 
Q 1238 548 , 1231 547 
Q 1225 545 , 1225 543 
L 1225 535 
" fill="lightgray" />
<path d="
M 1300 537 
L 1291 543 
L 1308 543 
L 1300 537 
M 1296 535 
L 1304 535 
L 1325 548 
L 1317 548 
L 1311 544 
L 1289 544 
L 1282 548 
L 1275 548 
L 1296 535 
" fill="#339541" />
<path d="
M 1250 520 
L 1241 527 
L 1258 527 
L 1250 520 
M 1246 517 
L 1254 517 
L 1275 535 
L 1267 535 
L 1261 529 
L 1239 529 
L 1232 535 
L 1225 535 
L 1246 517 
" fill="lightgray" />
<path d="
M 1275 517 
L 1284 517 
L 1284 527 
Q 1284 530 , 1288 532 
Q 1291 533 , 1300 533 
Q 1309 533 , 1312 532 
Q 1316 530 , 1316 527 
L 1316 517 
L 1325 517 
L 1325 528 
Q 1325 531 , 1319 533 
Q 1312 535 , 1300 535 
Q 1288 535 , 1281 533 
Q 1275 531 , 1275 528 
L 1275 517 
" fill="#D21010" />
<path d="
M 1267 513 
L 1267 505 
L 1253 505 
L 1253 501 
L 1275 501 
L 1275 515 
Q 1270 516 , 1264 516 
Q 1259 517 , 1253 517 
Q 1240 517 , 1233 513 
Q 1225 509 , 1225 502 
Q 1225 495 , 1233 491 
Q 1240 487 , 1253 487 
Q 1259 487 , 1264 488 
Q 1269 488 , 1274 489 
L 1274 493 
Q 1267 492 , 1263 491 
Q 1259 491 , 1254 491 
Q 1244 491 , 1238 493 
Q 1233 496 , 1233 502 
Q 1233 508 , 1238 511 
Q 1244 514 , 1254 514 
Q 1259 514 , 1262 513 
Q 1266 513 , 1267 513 
" fill="lightgray" />
<path d="
M 1325 490 
L 1325 495 
Q 1318 492 , 1314 491 
Q 1309 490 , 1304 490 
Q 1294 490 , 1289 493 
Q 1283 496 , 1283 502 
Q 1283 508 , 1289 511 
Q 1294 514 , 1304 514 
Q 1309 514 , 1314 513 
Q 1318 512 , 1325 509 
L 1325 514 
Q 1320 516 , 1314 516 
Q 1310 517 , 1304 517 
Q 1290 517 , 1283 513 
Q 1275 509 , 1275 502 
Q 1275 495 , 1283 491 
Q 1290 487 , 1304 487 
Q 1310 487 , 1315 488 
Q 1320 488 , 1325 490 
" fill="#545FFF" />
<path d="
M 1275 416 
L 1275 428 
Q 1268 421 , 1264 419 
Q 1259 417 , 1254 417 
Q 1244 417 , 1239 424 
Q 1233 432 , 1233 447 
Q 1233 463 , 1239 470 
Q 1244 478 , 1254 478 
Q 1259 478 , 1264 476 
Q 1268 474 , 1275 466 
L 1275 479 
Q 1270 483 , 1264 485 
Q 1260 487 , 1254 487 
Q 1240 487 , 1233 476 
Q 1225 465 , 1225 447 
Q 1225 429 , 1233 419 
Q 1240 408 , 1254 408 
Q 1260 408 , 1265 410 
Q 1270 412 , 1275 416 
" fill="lightgray" />
<path d="
M 1317 475 
L 1317 454 
L 1303 454 
L 1303 446 
L 1325 446 
L 1325 481 
Q 1320 484 , 1314 485 
Q 1309 487 , 1303 487 
Q 1290 487 , 1283 476 
Q 1275 466 , 1275 447 
Q 1275 429 , 1283 419 
Q 1290 408 , 1303 408 
Q 1309 408 , 1314 409 
Q 1319 411 , 1324 414 
L 1324 424 
Q 1317 420 , 1313 419 
Q 1309 417 , 1304 417 
Q 1294 417 , 1288 425 
Q 1283 432 , 1283 447 
Q 1283 463 , 1288 470 
Q 1294 478 , 1304 478 
Q 1309 478 , 1312 477 
Q 1316 476 , 1317 475 
" fill="#F5C000" />
<path d="
M 1380 554 
L 1362 554 
L 1396 554 
L 1380 554 
M 1373 554 
L 1387 554 
L 1430 555 
L 1414 555 
L 1402 554 
L 1358 554 
L 1345 555 
L 1330 555 
L 1373 554 
" fill="#339541" />
<path d="
M 1330 553 
L 1348 553 
L 1348 553 
Q 1348 553 , 1356 553 
Q 1363 554 , 1380 554 
Q 1397 554 , 1405 553 
Q 1412 553 , 1412 553 
L 1412 553 
L 1430 553 
L 1430 553 
Q 1430 553 , 1417 554 
Q 1405 554 , 1380 554 
Q 1356 554 , 1343 554 
Q 1330 553 , 1330 553 
L 1330 553 
" fill="#D21010" />
<path d="
M 1430 552 
L 1430 552 
Q 1415 552 , 1407 552 
Q 1399 552 , 1389 552 
Q 1368 552 , 1358 552 
Q 1346 552 , 1346 552 
Q 1346 552 , 1358 553 
Q 1368 553 , 1389 553 
Q 1399 553 , 1407 553 
Q 1415 553 , 1430 552 
L 1430 553 
Q 1419 553 , 1409 553 
Q 1399 553 , 1388 553 
Q 1361 553 , 1346 553 
Q 1330 552 , 1330 552 
Q 1330 552 , 1346 552 
Q 1361 552 , 1388 552 
Q 1399 552 , 1409 552 
Q 1420 552 , 1430 552 
" fill="#545FFF" />
<path d="
M 1414 552 
L 1414 551 
L 1385 551 
L 1385 551 
L 1430 551 
L 1430 552 
Q 1419 552 , 1408 552 
Q 1399 552 , 1387 552 
Q 1361 552 , 1345 552 
Q 1330 552 , 1330 551 
Q 1330 551 , 1345 551 
Q 1361 551 , 1387 551 
Q 1398 551 , 1407 551 
Q 1417 551 , 1427 551 
L 1427 551 
Q 1414 551 , 1406 551 
Q 1397 551 , 1388 551 
Q 1367 551 , 1356 551 
Q 1346 551 , 1346 551 
Q 1346 552 , 1356 552 
Q 1367 552 , 1388 552 
Q 1397 552 , 1404 552 
Q 1411 552 , 1414 552 
" fill="#F5C000" />
<path d="M 65 168 L 65 555 " stroke="black" stroke-width="1.5"/>
<path d="M 55 555 L 65 555 " stroke="black" stroke-width="4"/>
<text text-anchor="end" x="50" y="555" font-size="50" alignment-baseline="middle">0</text>
<path d="M 55 362 L 65 362 " stroke="black" stroke-width="4"/>
<text text-anchor="end" x="50" y="362" font-size="50" alignment-baseline="middle">1</text>
<path d="M 55 168 L 65 168 " stroke="black" stroke-width="4"/>
<text text-anchor="end" x="50" y="168" font-size="50" alignment-baseline="middle">2</text>
<text text-anchor="middle" x="750" y="50" font-size="50" alignment-baseline="baseline"></text>
G<path d="
M 160 582 
L 126 595 
L 160 608 
L 157 611 
L 123 598 
L 123 623 
L 117 623 
L 117 599 
L 83 611 
L 80 608 
L 114 595 
L 80 582 
L 83 579 
L 117 591 
L 117 567 
L 123 567 
L 123 591 
L 157 579 
L 160 582 
" fill="black" />
<path d="
M 265 567 
Q 236 574 , 223 581 
Q 210 588 , 210 595 
Q 210 602 , 223 609 
Q 236 616 , 265 623 
L 241 623 
Q 213 616 , 199 609 
Q 185 602 , 185 595 
Q 185 588 , 199 581 
Q 213 574 , 241 567 
L 265 567 
" fill="black" />
<path d="
" fill="black" />
<path d="
M 316 567 
L 343 567 
L 343 623 
L 316 623 
L 316 567 
" fill="black" />
<path d="
" fill="black" />
<path d="
M 475 567 
Q 446 574 , 433 581 
Q 420 588 , 420 595 
Q 420 602 , 433 609 
Q 446 616 , 475 623 
L 451 623 
Q 423 616 , 409 609 
Q 395 602 , 395 595 
Q 395 588 , 409 581 
Q 423 574 , 451 567 
L 475 567 
" fill="black" />
<path d="
" fill="black" />
<path d="
M 526 567 
L 553 567 
L 553 623 
L 526 623 
L 526 567 
" fill="black" />
<path d="
" fill="black" />
<path d="
" fill="black" />
<path d="
M 622 567 
L 642 567 
L 642 623 
L 622 623 
L 622 567 
" fill="black" />
<path d="
" fill="black" />
<path d="
M 674 621 
L 674 616 
Q 675 618 , 677 619 
Q 678 619 , 680 619 
Q 686 619 , 688 609 
Q 689 604 , 689 595 
Q 689 597 , 687 600 
Q 685 603 , 681 603 
Q 677 603 , 675 598 
Q 672 593 , 672 586 
Q 672 577 , 675 572 
Q 677 567 , 682 567 
Q 687 567 , 689 574 
Q 692 581 , 692 595 
Q 692 609 , 689 616 
Q 685 623 , 680 623 
Q 678 623 , 677 622 
Q 675 622 , 674 621 
M 676 595 
Q 678 599 , 681 599 
Q 685 599 , 687 595 
Q 689 591 , 689 584 
Q 689 578 , 687 574 
Q 685 571 , 681 571 
Q 678 571 , 676 574 
Q 675 578 , 675 584 
Q 675 591 , 676 595 
" fill="black" />
<path d="
M 790 582 
L 756 595 
L 790 608 
L 787 611 
L 753 598 
L 753 623 
L 747 623 
L 747 599 
L 713 611 
L 710 608 
L 744 595 
L 710 582 
L 713 579 
L 747 591 
L 747 567 
L 753 567 
L 753 591 
L 787 579 
L 790 582 
" fill="black" />
<path d="
" fill="black" />
<path d="
M 841 567 
L 868 567 
L 868 623 
L 841 623 
L 841 567 
" fill="black" />
<path d="
" fill="black" />
<path d="
M 920 567 
L 944 567 
Q 972 574 , 986 581 
Q 1000 588 , 1000 595 
Q 1000 602 , 986 609 
Q 972 616 , 944 623 
L 920 623 
Q 949 616 , 962 609 
Q 975 602 , 975 595 
Q 975 588 , 962 581 
Q 949 574 , 920 567 
" fill="black" />
<path d="
" fill="black" />
<path d="
M 1051 567 
L 1078 567 
L 1078 623 
L 1051 623 
L 1051 567 
" fill="black" />
<path d="
" fill="black" />
<path d="
" fill="black" />
<path d="
M 1156 567 
L 1183 567 
L 1183 623 
L 1156 623 
L 1156 567 
" fill="black" />
<path d="
" fill="black" />
<path d="
M 1235 567 
L 1259 567 
Q 1287 574 , 1301 581 
Q 1315 588 , 1315 595 
Q 1315 602 , 1301 609 
Q 1287 616 , 1259 623 
L 1235 623 
Q 1264 616 , 1277 609 
Q 1290 602 , 1290 595 
Q 1290 588 , 1277 581 
Q 1264 574 , 1235 567 
" fill="black" />
<path d="
M 1420 582 
L 1386 595 
L 1420 608 
L 1417 611 
L 1383 598 
L 1383 623 
L 1377 623 
L 1377 599 
L 1343 611 
L 1340 608 
L 1374 595 
L 1340 582 
L 1343 579 
L 1377 591 
L 1377 567 
L 1383 567 
L 1383 591 
L 1417 579 
L 1420 582 
" fill="black" />
</svg>
