<svg xmlns="http://www.w3.org/2000/svg"
viewBox="0 0 1015 635">
<path d="
M 134 553 
L 134 553 
L 104 553 
L 104 552 
L 170 552 
L 170 554 
Q 146 554 , 126 554 
Q 98 554 , 84 553 
Q 70 553 , 70 553 
Q 70 552 , 85 551 
Q 100 551 , 130 551 
Q 142 551 , 164 551 
L 164 552 
Q 140 552 , 130 552 
Q 118 552 , 111 552 
Q 104 552 , 104 553 
Q 104 553 , 128 553 
Q 134 553 , 134 553 
" fill="#F5C000" />
<path d="
M 120 544 
L 120 544 
L 116 547 
L 124 547 
L 120 544 
M 132 549 
L 108 549 
L 101 551 
L 70 551 
L 105 543 
L 135 543 
L 170 551 
L 139 551 
L 132 549 
" fill="#339541" />
<path d="
M 70 539 
Q 70 537 , 85 536 
Q 101 535 , 131 535 
Q 149 535 , 169 535 
L 169 537 
Q 143 537 , 133 537 
Q 109 537 , 109 539 
Q 109 540 , 115 540 
Q 121 541 , 133 541 
Q 143 541 , 170 541 
L 170 542 
Q 150 543 , 131 543 
Q 100 543 , 85 542 
Q 70 541 , 70 539 
" fill="#545FFF" />
<path d="
M 157 533 
Q 145 534 , 120 534 
Q 96 534 , 83 533 
Q 70 533 , 70 531 
L 70 523 
L 110 523 
L 110 531 
Q 110 532 , 112 532 
Q 115 532 , 121 532 
Q 128 532 , 130 532 
Q 133 532 , 133 531 
L 133 523 
L 170 523 
L 170 531 
Q 170 533 , 157 533 
" fill="#D21010" />
<path d="
M 225 547 
L 225 547 
L 221 551 
L 229 551 
L 225 547 
M 237 552 
L 213 552 
L 206 555 
L 175 555 
L 210 546 
L 240 546 
L 275 555 
L 244 555 
L 237 552 
" fill="#339541" />
<path d="
M 239 543 
L 239 540 
L 209 540 
L 209 538 
L 275 538 
L 275 545 
Q 251 545 , 231 545 
Q 203 545 , 189 544 
Q 175 543 , 175 540 
Q 175 537 , 190 535 
Q 205 534 , 235 534 
Q 247 534 , 269 535 
L 269 537 
Q 245 536 , 235 536 
Q 223 536 , 216 537 
Q 209 538 , 209 540 
Q 209 543 , 233 543 
Q 239 543 , 239 543 
" fill="#F5C000" />
<path d="
M 175 522 
Q 175 517 , 190 514 
Q 206 511 , 236 511 
Q 254 511 , 274 512 
L 274 517 
Q 248 516 , 238 516 
Q 214 516 , 214 522 
Q 214 526 , 220 527 
Q 226 529 , 238 529 
Q 248 529 , 275 527 
L 275 532 
Q 255 533 , 236 533 
Q 205 533 , 190 530 
Q 175 528 , 175 522 
" fill="#545FFF" />
<path d="
M 262 505 
Q 250 510 , 225 510 
Q 201 510 , 188 505 
Q 175 501 , 175 493 
L 175 452 
L 215 452 
L 215 491 
Q 215 496 , 217 497 
Q 220 498 , 226 498 
Q 233 498 , 235 497 
Q 238 496 , 238 491 
L 238 452 
L 275 452 
L 275 493 
Q 275 501 , 262 505 
" fill="#D21010" />
<path d="
M 280 550 
Q 280 548 , 295 547 
Q 311 546 , 341 546 
Q 359 546 , 379 546 
L 379 548 
Q 353 548 , 343 548 
Q 319 548 , 319 550 
Q 319 552 , 325 552 
Q 331 553 , 343 553 
Q 353 553 , 380 552 
L 380 554 
Q 360 554 , 341 554 
Q 310 554 , 295 553 
Q 280 552 , 280 550 
" fill="#545FFF" />
<path d="
M 344 543 
L 344 540 
L 314 540 
L 314 537 
L 380 537 
L 380 544 
Q 356 545 , 336 545 
Q 308 545 , 294 543 
Q 280 542 , 280 539 
Q 280 535 , 295 533 
Q 310 532 , 340 532 
Q 352 532 , 374 533 
L 374 536 
Q 350 535 , 340 535 
Q 328 535 , 321 535 
Q 314 536 , 314 539 
Q 314 543 , 338 543 
Q 344 543 , 344 543 
" fill="#F5C000" />
<path d="
M 367 530 
Q 355 532 , 330 532 
Q 306 532 , 293 530 
Q 280 528 , 280 524 
L 280 504 
L 320 504 
L 320 523 
Q 320 525 , 322 525 
Q 325 526 , 331 526 
Q 338 526 , 340 525 
Q 343 525 , 343 523 
L 343 504 
L 380 504 
L 380 524 
Q 380 528 , 367 530 
" fill="#D21010" />
<path d="
M 330 333 
L 330 333 
L 326 413 
L 334 413 
L 330 333 
M 342 453 
L 318 453 
L 311 504 
L 280 504 
L 315 304 
L 345 304 
L 380 504 
L 349 504 
L 342 453 
" fill="#339541" />
<path d="
M 449 554 
L 449 553 
L 419 553 
L 419 553 
L 485 553 
L 485 554 
Q 461 554 , 441 554 
Q 413 554 , 399 554 
Q 385 554 , 385 553 
Q 385 553 , 400 552 
Q 415 552 , 445 552 
Q 457 552 , 479 552 
L 479 553 
Q 455 552 , 445 552 
Q 433 552 , 426 552 
Q 419 553 , 419 553 
Q 419 554 , 443 554 
Q 449 554 , 449 554 
" fill="#F5C000" />
<path d="
M 435 545 
L 435 545 
L 431 548 
L 439 548 
L 435 545 
M 447 550 
L 423 550 
L 416 551 
L 385 551 
L 420 544 
L 450 544 
L 485 551 
L 454 551 
L 447 550 
" fill="#339541" />
<path d="
M 472 540 
Q 460 543 , 435 543 
Q 411 543 , 398 540 
Q 385 537 , 385 531 
L 385 503 
L 425 503 
L 425 530 
Q 425 533 , 427 534 
Q 430 535 , 436 535 
Q 443 535 , 445 534 
Q 448 533 , 448 530 
L 448 503 
L 485 503 
L 485 531 
Q 485 537 , 472 540 
" fill="#D21010" />
<path d="
M 385 376 
Q 385 312 , 400 280 
Q 416 248 , 446 248 
Q 464 248 , 484 263 
L 484 320 
Q 458 300 , 448 300 
Q 424 300 , 424 376 
Q 424 421 , 430 436 
Q 436 451 , 448 451 
Q 458 451 , 485 428 
L 485 488 
Q 465 503 , 446 503 
Q 415 503 , 400 472 
Q 385 441 , 385 376 
" fill="#545FFF" />
<path d="
M 554 555 
L 554 554 
L 524 554 
L 524 554 
L 590 554 
L 590 555 
Q 566 555 , 546 555 
Q 518 555 , 504 555 
Q 490 555 , 490 554 
Q 490 554 , 505 554 
Q 520 554 , 550 554 
Q 562 554 , 584 554 
L 584 554 
Q 560 554 , 550 554 
Q 538 554 , 531 554 
Q 524 554 , 524 554 
Q 524 555 , 548 555 
Q 554 555 , 554 555 
" fill="#F5C000" />
<path d="
M 540 552 
L 540 552 
L 536 553 
L 544 553 
L 540 552 
M 552 553 
L 528 553 
L 521 554 
L 490 554 
L 525 552 
L 555 552 
L 590 554 
L 559 554 
L 552 553 
" fill="#339541" />
<path d="
M 490 550 
Q 490 549 , 505 548 
Q 521 548 , 551 548 
Q 569 548 , 589 548 
L 589 549 
Q 563 549 , 553 549 
Q 529 549 , 529 550 
Q 529 550 , 535 550 
Q 541 551 , 553 551 
Q 563 551 , 590 551 
L 590 551 
Q 570 552 , 551 552 
Q 520 552 , 505 551 
Q 490 551 , 490 550 
" fill="#545FFF" />
<path d="
M 577 512 
Q 565 547 , 540 547 
Q 516 547 , 503 512 
Q 490 477 , 490 408 
L 490 82 
L 530 82 
L 530 398 
Q 530 433 , 532 442 
Q 535 452 , 541 452 
Q 548 452 , 550 442 
Q 553 433 , 553 398 
L 553 82 
L 590 82 
L 590 408 
Q 590 477 , 577 512 
" fill="#D21010" />
<path d="
M 595 552 
Q 595 551 , 610 550 
Q 626 550 , 656 550 
Q 674 550 , 694 550 
L 694 551 
Q 668 551 , 658 551 
Q 634 551 , 634 552 
Q 634 553 , 640 553 
Q 646 554 , 658 554 
Q 668 554 , 695 553 
L 695 555 
Q 675 555 , 656 555 
Q 625 555 , 610 554 
Q 595 554 , 595 552 
" fill="#545FFF" />
<path d="
M 659 548 
L 659 546 
L 629 546 
L 629 544 
L 695 544 
L 695 549 
Q 671 549 , 651 549 
Q 623 549 , 609 548 
Q 595 547 , 595 545 
Q 595 543 , 610 542 
Q 625 541 , 655 541 
Q 667 541 , 689 541 
L 689 543 
Q 665 543 , 655 543 
Q 643 543 , 636 543 
Q 629 544 , 629 545 
Q 629 548 , 653 548 
Q 659 548 , 659 548 
" fill="#F5C000" />
<path d="
M 682 540 
Q 670 541 , 645 541 
Q 621 541 , 608 540 
Q 595 539 , 595 538 
L 595 532 
L 635 532 
L 635 538 
Q 635 539 , 637 539 
Q 640 539 , 646 539 
Q 653 539 , 655 539 
Q 658 539 , 658 538 
L 658 532 
L 695 532 
L 695 538 
Q 695 539 , 682 540 
" fill="#D21010" />
<path d="
M 645 206 
L 645 206 
L 641 357 
L 649 357 
L 645 206 
M 657 434 
L 633 434 
L 626 531 
L 595 531 
L 630 150 
L 660 150 
L 695 531 
L 664 531 
L 657 434 
" fill="#339541" />
<path d="
M 764 554 
L 764 553 
L 734 553 
L 734 552 
L 800 552 
L 800 554 
Q 776 554 , 756 554 
Q 728 554 , 714 554 
Q 700 554 , 700 553 
Q 700 552 , 715 551 
Q 730 551 , 760 551 
Q 772 551 , 794 551 
L 794 552 
Q 770 552 , 760 552 
Q 748 552 , 741 552 
Q 734 552 , 734 553 
Q 734 554 , 758 554 
Q 764 554 , 764 554 
" fill="#F5C000" />
<path d="
M 700 547 
Q 700 546 , 715 545 
Q 731 544 , 761 544 
Q 779 544 , 799 544 
L 799 546 
Q 773 545 , 763 545 
Q 739 545 , 739 547 
Q 739 549 , 745 549 
Q 751 549 , 763 549 
Q 773 549 , 800 549 
L 800 550 
Q 780 551 , 761 551 
Q 730 551 , 715 550 
Q 700 549 , 700 547 
" fill="#545FFF" />
<path d="
M 787 542 
Q 775 543 , 750 543 
Q 726 543 , 713 542 
Q 700 541 , 700 539 
L 700 530 
L 740 530 
L 740 539 
Q 740 540 , 742 540 
Q 745 541 , 751 541 
Q 758 541 , 760 540 
Q 763 540 , 763 539 
L 763 530 
L 800 530 
L 800 539 
Q 800 541 , 787 542 
" fill="#D21010" />
<path d="
M 750 210 
L 750 210 
L 746 358 
L 754 358 
L 750 210 
M 762 435 
L 738 435 
L 731 530 
L 700 530 
L 735 155 
L 765 155 
L 800 530 
L 769 530 
L 762 435 
" fill="#339541" />
<path d="
M 855 553 
L 855 553 
L 851 554 
L 859 554 
L 855 553 
M 867 554 
L 843 554 
L 836 555 
L 805 555 
L 840 553 
L 870 553 
L 905 555 
L 874 555 
L 867 554 
" fill="#339541" />
<path d="
M 869 552 
L 869 551 
L 839 551 
L 839 550 
L 905 550 
L 905 552 
Q 881 552 , 861 552 
Q 833 552 , 819 551 
Q 805 551 , 805 551 
Q 805 550 , 820 549 
Q 835 549 , 865 549 
Q 877 549 , 899 549 
L 899 550 
Q 875 550 , 865 550 
Q 853 550 , 846 550 
Q 839 550 , 839 551 
Q 839 552 , 863 552 
Q 869 552 , 869 552 
" fill="#F5C000" />
<path d="
M 892 543 
Q 880 548 , 855 548 
Q 831 548 , 818 543 
Q 805 539 , 805 530 
L 805 487 
L 845 487 
L 845 528 
Q 845 533 , 847 534 
Q 850 536 , 856 536 
Q 863 536 , 865 534 
Q 868 533 , 868 528 
L 868 487 
L 905 487 
L 905 530 
Q 905 539 , 892 543 
" fill="#D21010" />
<path d="
M 805 384 
Q 805 332 , 820 306 
Q 836 281 , 866 281 
Q 884 281 , 904 293 
L 904 339 
Q 878 323 , 868 323 
Q 844 323 , 844 384 
Q 844 420 , 850 432 
Q 856 444 , 868 444 
Q 878 444 , 905 426 
L 905 474 
Q 885 486 , 866 486 
Q 835 486 , 820 461 
Q 805 436 , 805 384 
" fill="#545FFF" />
<path d="
M 974 554 
L 974 553 
L 944 553 
L 944 552 
L 1010 552 
L 1010 554 
Q 986 554 , 966 554 
Q 938 554 , 924 553 
Q 910 553 , 910 553 
Q 910 552 , 925 551 
Q 940 551 , 970 551 
Q 982 551 , 1004 551 
L 1004 552 
Q 980 552 , 970 552 
Q 958 552 , 951 552 
Q 944 552 , 944 553 
Q 944 554 , 968 554 
Q 974 554 , 974 554 
" fill="#F5C000" />
<path d="
M 997 550 
Q 985 551 , 960 551 
Q 936 551 , 923 550 
Q 910 549 , 910 546 
L 910 536 
L 950 536 
L 950 546 
Q 950 547 , 952 547 
Q 955 548 , 961 548 
Q 968 548 , 970 547 
Q 973 547 , 973 546 
L 973 536 
L 1010 536 
L 1010 546 
Q 1010 549 , 997 550 
" fill="#D21010" />
<path d="
M 910 522 
Q 910 515 , 925 511 
Q 941 508 , 971 508 
Q 989 508 , 1009 510 
L 1009 516 
Q 983 514 , 973 514 
Q 949 514 , 949 522 
Q 949 527 , 955 528 
Q 961 530 , 973 530 
Q 983 530 , 1010 527 
L 1010 534 
Q 990 535 , 971 535 
Q 940 535 , 925 532 
Q 910 529 , 910 522 
" fill="#545FFF" />
<path d="
M 960 473 
L 960 473 
L 956 489 
L 964 489 
L 960 473 
M 972 497 
L 948 497 
L 941 507 
L 910 507 
L 945 467 
L 975 467 
L 1010 507 
L 979 507 
L 972 497 
" fill="#339541" />
<path d="M 65 55 L 65 555 " stroke="black" stroke-width="1.5"/>
<path d="M 55 555 L 65 555 " stroke="black" stroke-width="4"/>
<text text-anchor="end" x="50" y="555" font-size="50" alignment-baseline="middle">0</text>
<path d="M 55 305 L 65 305 " stroke="black" stroke-width="4"/>
<text text-anchor="end" x="50" y="305" font-size="50" alignment-baseline="middle">1</text>
<path d="M 55 55 L 65 55 " stroke="black" stroke-width="4"/>
<text text-anchor="end" x="50" y="55" font-size="50" alignment-baseline="middle">2</text>
<text text-anchor="middle" x="540" y="50" font-size="50" alignment-baseline="baseline"></text>
G</svg>
