<svg xmlns="http://www.w3.org/2000/svg"
viewBox="0 0 1225 635">
<path d="
M 134 554 
L 134 553 
L 104 553 
L 104 552 
L 170 552 
L 170 555 
Q 146 555 , 126 555 
Q 98 555 , 84 554 
Q 70 554 , 70 553 
Q 70 552 , 85 551 
Q 100 551 , 130 551 
Q 142 551 , 164 551 
L 164 552 
Q 140 552 , 130 552 
Q 118 552 , 111 552 
Q 104 552 , 104 553 
Q 104 554 , 128 554 
Q 134 554 , 134 554 
" fill="#F5C000" />
<path d="
M 120 535 
L 120 535 
L 116 542 
L 124 542 
L 120 535 
M 132 545 
L 108 545 
L 101 550 
L 70 550 
L 105 532 
L 135 532 
L 170 550 
L 139 550 
L 132 545 
" fill="#339541" />
<path d="
M 157 530 
Q 145 532 , 120 532 
Q 96 532 , 83 530 
Q 70 529 , 70 526 
L 70 512 
L 110 512 
L 110 525 
Q 110 527 , 112 527 
Q 115 528 , 121 528 
Q 128 528 , 130 527 
Q 133 527 , 133 525 
L 133 512 
L 170 512 
L 170 526 
Q 170 529 , 157 530 
" fill="#D21010" />
<path d="
M 70 456 
Q 70 428 , 85 414 
Q 101 400 , 131 400 
Q 149 400 , 169 407 
L 169 432 
Q 143 423 , 133 423 
Q 109 423 , 109 456 
Q 109 476 , 115 482 
Q 121 489 , 133 489 
Q 143 489 , 170 479 
L 170 505 
Q 150 512 , 131 512 
Q 100 512 , 85 498 
Q 70 485 , 70 456 
" fill="#545FFF" />
<path d="
M 225 552 
L 225 552 
L 221 553 
L 229 553 
L 225 552 
M 237 554 
L 213 554 
L 206 554 
L 175 554 
L 210 552 
L 240 552 
L 275 554 
L 244 554 
L 237 554 
" fill="#339541" />
<path d="
M 239 551 
L 239 551 
L 209 551 
L 209 550 
L 275 550 
L 275 552 
Q 251 552 , 231 552 
Q 203 552 , 189 551 
Q 175 551 , 175 550 
Q 175 550 , 190 549 
Q 205 549 , 235 549 
Q 247 549 , 269 549 
L 269 550 
Q 245 550 , 235 550 
Q 223 550 , 216 550 
Q 209 550 , 209 550 
Q 209 551 , 233 551 
Q 239 551 , 239 551 
" fill="#F5C000" />
<path d="
M 175 547 
Q 175 546 , 190 545 
Q 206 545 , 236 545 
Q 254 545 , 274 545 
L 274 546 
Q 248 546 , 238 546 
Q 214 546 , 214 547 
Q 214 547 , 220 547 
Q 226 548 , 238 548 
Q 248 548 , 275 548 
L 275 548 
Q 255 549 , 236 549 
Q 205 549 , 190 548 
Q 175 548 , 175 547 
" fill="#545FFF" />
<path d="
M 262 519 
Q 250 545 , 225 545 
Q 201 545 , 188 519 
Q 175 494 , 175 445 
L 175 208 
L 215 208 
L 215 437 
Q 215 463 , 217 469 
Q 220 476 , 226 476 
Q 233 476 , 235 469 
Q 238 463 , 238 437 
L 238 208 
L 275 208 
L 275 445 
Q 275 494 , 262 519 
" fill="#D21010" />
<path d="
M 324 555 
Q 318 555 , 305 555 
Q 293 555 , 286 555 
Q 280 555 , 280 554 
L 280 553 
L 300 553 
L 300 554 
Q 300 554 , 301 554 
Q 302 554 , 305 554 
Q 309 554 , 310 554 
Q 312 554 , 312 554 
L 312 553 
L 330 553 
L 330 554 
Q 330 555 , 324 555 
" fill="#D21010" />
<path d="
M 362 554 
L 362 554 
L 347 554 
L 347 554 
L 380 554 
L 380 555 
Q 368 555 , 358 555 
Q 344 555 , 337 554 
Q 330 554 , 330 554 
Q 330 553 , 337 553 
Q 345 553 , 360 553 
Q 366 553 , 377 553 
L 377 554 
Q 365 553 , 360 553 
Q 354 553 , 350 553 
Q 347 554 , 347 554 
Q 347 554 , 359 554 
Q 362 554 , 362 554 
" fill="lightgray" />
<path d="
M 280 551 
Q 280 551 , 288 550 
Q 296 550 , 311 550 
Q 319 550 , 329 550 
L 329 551 
Q 316 550 , 311 550 
Q 299 550 , 299 551 
Q 299 552 , 302 552 
Q 306 552 , 311 552 
Q 316 552 , 330 552 
L 330 552 
Q 320 552 , 311 552 
Q 295 552 , 287 552 
Q 280 552 , 280 551 
" fill="#545FFF" />
<path d="
M 362 552 
L 362 551 
L 347 551 
L 347 551 
L 380 551 
L 380 552 
Q 368 552 , 358 552 
Q 344 552 , 337 552 
Q 330 552 , 330 551 
Q 330 551 , 337 550 
Q 345 550 , 360 550 
Q 366 550 , 377 550 
L 377 551 
Q 365 550 , 360 550 
Q 354 550 , 350 550 
Q 347 551 , 347 551 
Q 347 552 , 359 552 
Q 362 552 , 362 552 
" fill="lightgray" />
<path d="
M 312 549 
L 312 548 
L 297 548 
L 297 547 
L 330 547 
L 330 549 
Q 318 549 , 308 549 
Q 294 549 , 287 548 
Q 280 548 , 280 547 
Q 280 546 , 287 545 
Q 295 545 , 310 545 
Q 316 545 , 327 545 
L 327 546 
Q 315 546 , 310 546 
Q 304 546 , 300 546 
Q 297 546 , 297 547 
Q 297 549 , 309 549 
Q 312 549 , 312 549 
" fill="#F5C000" />
<path d="
M 374 549 
Q 368 549 , 355 549 
Q 343 549 , 336 549 
Q 330 549 , 330 548 
L 330 545 
L 350 545 
L 350 548 
Q 350 548 , 351 548 
Q 352 549 , 355 549 
Q 359 549 , 360 548 
Q 362 548 , 362 548 
L 362 545 
L 380 545 
L 380 548 
Q 380 549 , 374 549 
" fill="lightgray" />
<path d="
M 312 541 
L 312 538 
L 297 538 
L 297 536 
L 330 536 
L 330 543 
Q 318 544 , 308 544 
Q 294 544 , 287 542 
Q 280 541 , 280 538 
Q 280 534 , 287 532 
Q 295 531 , 310 531 
Q 316 531 , 327 532 
L 327 535 
Q 315 534 , 310 534 
Q 304 534 , 300 534 
Q 297 535 , 297 538 
Q 297 541 , 309 541 
Q 312 541 , 312 541 
" fill="#F5C000" />
<path d="
M 330 538 
Q 330 534 , 338 532 
Q 346 531 , 361 531 
Q 369 531 , 379 532 
L 379 535 
Q 366 534 , 361 534 
Q 349 534 , 349 538 
Q 349 540 , 352 540 
Q 356 541 , 361 541 
Q 366 541 , 380 540 
L 380 543 
Q 370 544 , 361 544 
Q 345 544 , 337 542 
Q 330 541 , 330 538 
" fill="lightgray" />
<path d="
M 324 529 
Q 318 530 , 305 530 
Q 293 530 , 286 529 
Q 280 528 , 280 526 
L 280 517 
L 300 517 
L 300 526 
Q 300 527 , 301 527 
Q 302 528 , 305 528 
Q 309 528 , 310 527 
Q 312 527 , 312 526 
L 312 517 
L 330 517 
L 330 526 
Q 330 528 , 324 529 
" fill="#D21010" />
<path d="
M 355 519 
L 355 519 
L 353 524 
L 357 524 
L 355 519 
M 361 527 
L 349 527 
L 345 530 
L 330 530 
L 347 517 
L 363 517 
L 380 530 
L 365 530 
L 361 527 
" fill="lightgray" />
<path d="
M 305 223 
L 305 223 
L 303 360 
L 307 360 
L 305 223 
M 311 430 
L 299 430 
L 295 517 
L 280 517 
L 297 173 
L 313 173 
L 330 517 
L 315 517 
L 311 430 
" fill="#339541" />
<path d="
M 374 491 
Q 368 517 , 355 517 
Q 343 517 , 336 491 
Q 330 465 , 330 414 
L 330 173 
L 350 173 
L 350 407 
Q 350 433 , 351 440 
Q 352 447 , 355 447 
Q 359 447 , 360 440 
Q 362 433 , 362 407 
L 362 173 
L 380 173 
L 380 414 
Q 380 465 , 374 491 
" fill="lightgray" />
<path d="
M 449 553 
L 449 552 
L 419 552 
L 419 551 
L 485 551 
L 485 554 
Q 461 554 , 441 554 
Q 413 554 , 399 553 
Q 385 553 , 385 552 
Q 385 550 , 400 549 
Q 415 549 , 445 549 
Q 457 549 , 479 549 
L 479 550 
Q 455 550 , 445 550 
Q 433 550 , 426 550 
Q 419 551 , 419 552 
Q 419 553 , 443 553 
Q 449 553 , 449 553 
" fill="#F5C000" />
<path d="
M 385 544 
Q 385 542 , 400 541 
Q 416 540 , 446 540 
Q 464 540 , 484 541 
L 484 543 
Q 458 542 , 448 542 
Q 424 542 , 424 544 
Q 424 546 , 430 546 
Q 436 547 , 448 547 
Q 458 547 , 485 546 
L 485 548 
Q 465 549 , 446 549 
Q 415 549 , 400 548 
Q 385 547 , 385 544 
" fill="#545FFF" />
<path d="
M 472 538 
Q 460 540 , 435 540 
Q 411 540 , 398 538 
Q 385 537 , 385 535 
L 385 523 
L 425 523 
L 425 534 
Q 425 536 , 427 536 
Q 430 536 , 436 536 
Q 443 536 , 445 536 
Q 448 536 , 448 534 
L 448 523 
L 485 523 
L 485 535 
Q 485 537 , 472 538 
" fill="#D21010" />
<path d="
M 435 338 
L 435 338 
L 431 424 
L 439 424 
L 435 338 
M 447 468 
L 423 468 
L 416 523 
L 385 523 
L 420 306 
L 450 306 
L 485 523 
L 454 523 
L 447 468 
" fill="#339541" />
<path d="
M 540 553 
L 540 553 
L 536 554 
L 544 554 
L 540 553 
M 552 554 
L 528 554 
L 521 555 
L 490 555 
L 525 553 
L 555 553 
L 590 555 
L 559 555 
L 552 554 
" fill="#339541" />
<path d="
M 554 552 
L 554 552 
L 524 552 
L 524 551 
L 590 551 
L 590 553 
Q 566 553 , 546 553 
Q 518 553 , 504 552 
Q 490 552 , 490 551 
Q 490 551 , 505 550 
Q 520 550 , 550 550 
Q 562 550 , 584 550 
L 584 551 
Q 560 551 , 550 551 
Q 538 551 , 531 551 
Q 524 551 , 524 551 
Q 524 552 , 548 552 
Q 554 552 , 554 552 
" fill="#F5C000" />
<path d="
M 577 546 
Q 565 550 , 540 550 
Q 516 550 , 503 546 
Q 490 542 , 490 535 
L 490 500 
L 530 500 
L 530 534 
Q 530 537 , 532 538 
Q 535 539 , 541 539 
Q 548 539 , 550 538 
Q 553 537 , 553 534 
L 553 500 
L 590 500 
L 590 535 
Q 590 542 , 577 546 
" fill="#D21010" />
<path d="
M 490 428 
Q 490 393 , 505 375 
Q 521 357 , 551 357 
Q 569 357 , 589 365 
L 589 397 
Q 563 386 , 553 386 
Q 529 386 , 529 428 
Q 529 453 , 535 461 
Q 541 470 , 553 470 
Q 563 470 , 590 457 
L 590 491 
Q 570 499 , 551 499 
Q 520 499 , 505 482 
Q 490 465 , 490 428 
" fill="#545FFF" />
<path d="
M 764 554 
L 764 553 
L 734 553 
L 734 552 
L 800 552 
L 800 554 
Q 776 554 , 756 554 
Q 728 554 , 714 553 
Q 700 553 , 700 553 
Q 700 552 , 715 551 
Q 730 551 , 760 551 
Q 772 551 , 794 551 
L 794 552 
Q 770 552 , 760 552 
Q 748 552 , 741 552 
Q 734 552 , 734 553 
Q 734 554 , 758 554 
Q 764 554 , 764 554 
" fill="#F5C000" />
<path d="
M 750 545 
L 750 545 
L 746 548 
L 754 548 
L 750 545 
M 762 549 
L 738 549 
L 731 551 
L 700 551 
L 735 544 
L 765 544 
L 800 551 
L 769 551 
L 762 549 
" fill="#339541" />
<path d="
M 787 542 
Q 775 543 , 750 543 
Q 726 543 , 713 542 
Q 700 542 , 700 540 
L 700 532 
L 740 532 
L 740 540 
Q 740 541 , 742 541 
Q 745 541 , 751 541 
Q 758 541 , 760 541 
Q 763 541 , 763 540 
L 763 532 
L 800 532 
L 800 540 
Q 800 542 , 787 542 
" fill="#D21010" />
<path d="
M 700 524 
Q 700 520 , 715 518 
Q 731 516 , 761 516 
Q 779 516 , 799 517 
L 799 520 
Q 773 519 , 763 519 
Q 739 519 , 739 524 
Q 739 526 , 745 527 
Q 751 528 , 763 528 
Q 773 528 , 800 527 
L 800 530 
Q 780 531 , 761 531 
Q 730 531 , 715 529 
Q 700 527 , 700 524 
" fill="#545FFF" />
<path d="
M 849 555 
Q 843 555 , 830 555 
Q 818 555 , 811 555 
Q 805 555 , 805 554 
L 805 553 
L 825 553 
L 825 554 
Q 825 554 , 826 554 
Q 827 554 , 830 554 
Q 834 554 , 835 554 
Q 837 554 , 837 554 
L 837 553 
L 855 553 
L 855 554 
Q 855 555 , 849 555 
" fill="lightgray" />
<path d="
M 887 554 
L 887 554 
L 872 554 
L 872 554 
L 905 554 
L 905 555 
Q 893 555 , 883 555 
Q 869 555 , 862 554 
Q 855 554 , 855 554 
Q 855 553 , 862 553 
Q 870 553 , 885 553 
Q 891 553 , 902 553 
L 902 554 
Q 890 553 , 885 553 
Q 879 553 , 875 553 
Q 872 554 , 872 554 
Q 872 554 , 884 554 
Q 887 554 , 887 554 
" fill="#F5C000" />
<path d="
M 805 551 
Q 805 551 , 813 550 
Q 821 550 , 836 550 
Q 844 550 , 854 550 
L 854 551 
Q 841 550 , 836 550 
Q 824 550 , 824 551 
Q 824 552 , 827 552 
Q 831 552 , 836 552 
Q 841 552 , 855 552 
L 855 552 
Q 845 552 , 836 552 
Q 820 552 , 812 552 
Q 805 552 , 805 551 
" fill="lightgray" />
<path d="
M 887 552 
L 887 551 
L 872 551 
L 872 551 
L 905 551 
L 905 552 
Q 893 552 , 883 552 
Q 869 552 , 862 552 
Q 855 552 , 855 551 
Q 855 551 , 862 550 
Q 870 550 , 885 550 
Q 891 550 , 902 550 
L 902 551 
Q 890 550 , 885 550 
Q 879 550 , 875 550 
Q 872 551 , 872 551 
Q 872 552 , 884 552 
Q 887 552 , 887 552 
" fill="#F5C000" />
<path d="
M 837 549 
L 837 548 
L 822 548 
L 822 547 
L 855 547 
L 855 549 
Q 843 549 , 833 549 
Q 819 549 , 812 548 
Q 805 548 , 805 547 
Q 805 546 , 812 545 
Q 820 545 , 835 545 
Q 841 545 , 852 545 
L 852 546 
Q 840 546 , 835 546 
Q 829 546 , 825 546 
Q 822 546 , 822 547 
Q 822 549 , 834 549 
Q 837 549 , 837 549 
" fill="lightgray" />
<path d="
M 899 549 
Q 893 549 , 880 549 
Q 868 549 , 861 549 
Q 855 549 , 855 548 
L 855 545 
L 875 545 
L 875 548 
Q 875 548 , 876 548 
Q 877 549 , 880 549 
Q 884 549 , 885 548 
Q 887 548 , 887 548 
L 887 545 
L 905 545 
L 905 548 
Q 905 549 , 899 549 
" fill="#D21010" />
<path d="
M 837 541 
L 837 538 
L 822 538 
L 822 536 
L 855 536 
L 855 543 
Q 843 544 , 833 544 
Q 819 544 , 812 542 
Q 805 541 , 805 538 
Q 805 534 , 812 532 
Q 820 531 , 835 531 
Q 841 531 , 852 532 
L 852 535 
Q 840 534 , 835 534 
Q 829 534 , 825 534 
Q 822 535 , 822 538 
Q 822 541 , 834 541 
Q 837 541 , 837 541 
" fill="lightgray" />
<path d="
M 855 538 
Q 855 534 , 863 532 
Q 871 531 , 886 531 
Q 894 531 , 904 532 
L 904 535 
Q 891 534 , 886 534 
Q 874 534 , 874 538 
Q 874 540 , 877 540 
Q 881 541 , 886 541 
Q 891 541 , 905 540 
L 905 543 
Q 895 544 , 886 544 
Q 870 544 , 862 542 
Q 855 541 , 855 538 
" fill="#545FFF" />
<path d="
M 849 529 
Q 843 530 , 830 530 
Q 818 530 , 811 529 
Q 805 528 , 805 526 
L 805 517 
L 825 517 
L 825 526 
Q 825 527 , 826 527 
Q 827 528 , 830 528 
Q 834 528 , 835 527 
Q 837 527 , 837 526 
L 837 517 
L 855 517 
L 855 526 
Q 855 528 , 849 529 
" fill="lightgray" />
<path d="
M 880 519 
L 880 519 
L 878 524 
L 882 524 
L 880 519 
M 886 527 
L 874 527 
L 870 530 
L 855 530 
L 872 517 
L 888 517 
L 905 530 
L 890 530 
L 886 527 
" fill="#339541" />
<path d="
M 830 223 
L 830 223 
L 828 360 
L 832 360 
L 830 223 
M 836 430 
L 824 430 
L 820 517 
L 805 517 
L 822 173 
L 838 173 
L 855 517 
L 840 517 
L 836 430 
" fill="lightgray" />
<path d="
M 899 491 
Q 893 517 , 880 517 
Q 868 517 , 861 491 
Q 855 465 , 855 414 
L 855 173 
L 875 173 
L 875 407 
Q 875 433 , 876 440 
Q 877 447 , 880 447 
Q 884 447 , 885 440 
Q 887 433 , 887 407 
L 887 173 
L 905 173 
L 905 414 
Q 905 465 , 899 491 
" fill="#D21010" />
<path d="
M 910 551 
Q 910 550 , 925 549 
Q 941 548 , 971 548 
Q 989 548 , 1009 548 
L 1009 550 
Q 983 549 , 973 549 
Q 949 549 , 949 551 
Q 949 553 , 955 553 
Q 961 553 , 973 553 
Q 983 553 , 1010 553 
L 1010 554 
Q 990 555 , 971 555 
Q 940 555 , 925 554 
Q 910 553 , 910 551 
" fill="#545FFF" />
<path d="
M 997 547 
Q 985 548 , 960 548 
Q 936 548 , 923 547 
Q 910 547 , 910 545 
L 910 539 
L 950 539 
L 950 545 
Q 950 546 , 952 546 
Q 955 546 , 961 546 
Q 968 546 , 970 546 
Q 973 546 , 973 545 
L 973 539 
L 1010 539 
L 1010 545 
Q 1010 547 , 997 547 
" fill="#D21010" />
<path d="
M 974 536 
L 974 534 
L 944 534 
L 944 532 
L 1010 532 
L 1010 538 
Q 986 538 , 966 538 
Q 938 538 , 924 537 
Q 910 536 , 910 533 
Q 910 531 , 925 529 
Q 940 528 , 970 528 
Q 982 528 , 1004 528 
L 1004 531 
Q 980 530 , 970 530 
Q 958 530 , 951 530 
Q 944 531 , 944 533 
Q 944 536 , 968 536 
Q 974 536 , 974 536 
" fill="#F5C000" />
<path d="
M 960 501 
L 960 501 
L 956 513 
L 964 513 
L 960 501 
M 972 520 
L 948 520 
L 941 528 
L 910 528 
L 945 496 
L 975 496 
L 1010 528 
L 979 528 
L 972 520 
" fill="#339541" />
<path d="
M 1079 554 
L 1079 553 
L 1049 553 
L 1049 553 
L 1115 553 
L 1115 554 
Q 1091 554 , 1071 554 
Q 1043 554 , 1029 554 
Q 1015 554 , 1015 553 
Q 1015 553 , 1030 552 
Q 1045 552 , 1075 552 
Q 1087 552 , 1109 552 
L 1109 553 
Q 1085 552 , 1075 552 
Q 1063 552 , 1056 552 
Q 1049 553 , 1049 553 
Q 1049 554 , 1073 554 
Q 1079 554 , 1079 554 
" fill="#F5C000" />
<path d="
M 1015 550 
Q 1015 550 , 1030 549 
Q 1046 549 , 1076 549 
Q 1094 549 , 1114 549 
L 1114 550 
Q 1088 550 , 1078 550 
Q 1054 550 , 1054 550 
Q 1054 551 , 1060 551 
Q 1066 551 , 1078 551 
Q 1088 551 , 1115 551 
L 1115 552 
Q 1095 552 , 1076 552 
Q 1045 552 , 1030 551 
Q 1015 551 , 1015 550 
" fill="#545FFF" />
<path d="
M 1102 548 
Q 1090 549 , 1065 549 
Q 1041 549 , 1028 548 
Q 1015 548 , 1015 548 
L 1015 546 
L 1055 546 
L 1055 548 
Q 1055 548 , 1057 548 
Q 1060 548 , 1066 548 
Q 1073 548 , 1075 548 
Q 1078 548 , 1078 548 
L 1078 546 
L 1115 546 
L 1115 548 
Q 1115 548 , 1102 548 
" fill="#D21010" />
<path d="
M 1065 541 
L 1065 541 
L 1061 543 
L 1069 543 
L 1065 541 
M 1077 544 
L 1053 544 
L 1046 545 
L 1015 545 
L 1050 540 
L 1080 540 
L 1115 545 
L 1084 545 
L 1077 544 
" fill="#339541" />
<path d="
M 1170 551 
L 1170 551 
L 1166 553 
L 1174 553 
L 1170 551 
M 1182 553 
L 1158 553 
L 1151 554 
L 1120 554 
L 1155 551 
L 1185 551 
L 1220 554 
L 1189 554 
L 1182 553 
" fill="#339541" />
<path d="
M 1184 549 
L 1184 547 
L 1154 547 
L 1154 545 
L 1220 545 
L 1220 550 
Q 1196 551 , 1176 551 
Q 1148 551 , 1134 550 
Q 1120 549 , 1120 546 
Q 1120 544 , 1135 543 
Q 1150 542 , 1180 542 
Q 1192 542 , 1214 542 
L 1214 544 
Q 1190 544 , 1180 544 
Q 1168 544 , 1161 544 
Q 1154 545 , 1154 546 
Q 1154 549 , 1178 549 
Q 1184 549 , 1184 549 
" fill="#F5C000" />
<path d="
M 1207 539 
Q 1195 542 , 1170 542 
Q 1146 542 , 1133 539 
Q 1120 537 , 1120 533 
L 1120 512 
L 1160 512 
L 1160 532 
Q 1160 535 , 1162 535 
Q 1165 536 , 1171 536 
Q 1178 536 , 1180 535 
Q 1183 535 , 1183 532 
L 1183 512 
L 1220 512 
L 1220 533 
Q 1220 537 , 1207 539 
" fill="#D21010" />
<path d="
M 1120 496 
Q 1120 488 , 1135 484 
Q 1151 480 , 1181 480 
Q 1199 480 , 1219 482 
L 1219 489 
Q 1193 486 , 1183 486 
Q 1159 486 , 1159 496 
Q 1159 501 , 1165 503 
Q 1171 505 , 1183 505 
Q 1193 505 , 1220 502 
L 1220 510 
Q 1200 511 , 1181 511 
Q 1150 511 , 1135 507 
Q 1120 504 , 1120 496 
" fill="#545FFF" />
<path d="M 65 168 L 65 555 " stroke="black" stroke-width="1.5"/>
<path d="M 55 555 L 65 555 " stroke="black" stroke-width="4"/>
<text text-anchor="end" x="50" y="555" font-size="50" alignment-baseline="middle">0</text>
<path d="M 55 362 L 65 362 " stroke="black" stroke-width="4"/>
<text text-anchor="end" x="50" y="362" font-size="50" alignment-baseline="middle">1</text>
<path d="M 55 168 L 65 168 " stroke="black" stroke-width="4"/>
<text text-anchor="end" x="50" y="168" font-size="50" alignment-baseline="middle">2</text>
<text text-anchor="middle" x="645" y="50" font-size="50" alignment-baseline="baseline"></text>
G<path d="
M 342 623 
Q 290 612 , 290 595 
Q 290 578 , 342 567 
L 370 567 
Q 315 579 , 315 595 
Q 315 611 , 370 623 
L 342 623 
" fill="black" />
<path d="
M 608 567 
L 614 567 
L 614 588 
L 623 581 
L 625 593 
L 615 599 
L 621 616 
L 617 623 
L 611 606 
L 606 623 
L 601 616 
L 607 599 
L 598 593 
L 599 581 
L 609 588 
L 608 567 
" fill="black" />
<path d="
M 647 623 
L 648 574 
L 649 574 
L 631 583 
L 631 575 
L 648 567 
L 658 567 
L 658 623 
L 647 623 
" fill="black" />
<path d="
M 672 568 
Q 675 567 , 678 567 
Q 682 567 , 684 568 
Q 687 570 , 688 573 
Q 690 576 , 691 581 
Q 692 587 , 692 595 
Q 692 603 , 691 608 
Q 690 614 , 688 617 
Q 687 620 , 684 621 
Q 682 623 , 678 623 
Q 675 623 , 672 621 
Q 670 620 , 668 617 
Q 667 614 , 666 608 
Q 665 603 , 665 595 
Q 665 587 , 666 581 
Q 667 576 , 668 573 
Q 670 570 , 672 568 
M 672 600 
L 683 579 
Q 682 574 , 678 574 
Q 676 574 , 675 575 
Q 674 577 , 673 582 
Q 672 587 , 672 595 
Q 672 599 , 672 600 
M 673 610 
Q 675 616 , 678 616 
Q 680 616 , 681 614 
Q 683 613 , 684 608 
Q 685 603 , 685 595 
Q 685 590 , 685 588 
L 673 610 
" fill="black" />
<path d="
M 843 567 
Q 895 578 , 895 595 
Q 895 612 , 843 623 
L 815 623 
Q 870 611 , 870 595 
Q 870 579 , 815 567 
L 843 567 
" fill="black" />
</svg>
