<svg xmlns="http://www.w3.org/2000/svg"
viewBox="0 0 1435 635">
<path d="
M 70 554 
L 88 554 
L 88 554 
Q 88 554 , 96 554 
Q 103 554 , 120 554 
Q 137 554 , 145 554 
Q 152 554 , 152 554 
L 152 554 
L 170 554 
L 170 554 
Q 170 554 , 157 554 
Q 145 554 , 120 554 
Q 96 554 , 83 554 
Q 70 554 , 70 554 
L 70 554 
" fill="#D21010" />
<path d="
M 120 553 
L 102 553 
L 136 553 
L 120 553 
M 113 553 
L 127 553 
L 170 553 
L 154 553 
L 142 553 
L 98 553 
L 85 553 
L 70 553 
L 113 553 
" fill="#339541" />
<path d="
M 170 552 
L 170 552 
Q 155 552 , 147 552 
Q 139 552 , 129 552 
Q 108 552 , 98 552 
Q 86 552 , 86 552 
Q 86 552 , 98 552 
Q 108 552 , 129 552 
Q 139 552 , 147 552 
Q 155 552 , 170 552 
L 170 552 
Q 159 552 , 149 552 
Q 139 552 , 128 552 
Q 101 552 , 86 552 
Q 70 552 , 70 552 
Q 70 552 , 86 552 
Q 101 552 , 128 552 
Q 139 552 , 149 552 
Q 160 552 , 170 552 
" fill="#545FFF" />
<path d="
M 154 551 
L 154 551 
L 125 551 
L 125 551 
L 170 551 
L 170 551 
Q 159 551 , 148 551 
Q 139 551 , 127 551 
Q 101 551 , 85 551 
Q 70 551 , 70 551 
Q 70 551 , 85 551 
Q 101 551 , 127 551 
Q 138 551 , 147 551 
Q 157 551 , 167 551 
L 167 551 
Q 154 551 , 146 551 
Q 137 551 , 128 551 
Q 107 551 , 96 551 
Q 86 551 , 86 551 
Q 86 551 , 96 551 
Q 107 551 , 128 551 
Q 137 551 , 144 551 
Q 151 551 , 154 551 
" fill="#F5C000" />
<path d="
M 175 552 
L 193 552 
L 193 554 
Q 193 554 , 201 554 
Q 208 554 , 225 554 
Q 242 554 , 250 554 
Q 257 554 , 257 554 
L 257 552 
L 275 552 
L 275 554 
Q 275 554 , 262 555 
Q 250 555 , 225 555 
Q 201 555 , 188 555 
Q 175 554 , 175 554 
L 175 552 
" fill="#D21010" />
<path d="
M 225 546 
L 207 549 
L 241 549 
L 225 546 
M 218 545 
L 232 545 
L 275 552 
L 259 552 
L 247 550 
L 203 550 
L 190 552 
L 175 552 
L 218 545 
" fill="#339541" />
<path d="
M 259 543 
L 259 540 
L 230 540 
L 230 539 
L 275 539 
L 275 544 
Q 264 544 , 253 544 
Q 244 545 , 232 545 
Q 206 545 , 190 543 
Q 175 542 , 175 539 
Q 175 537 , 190 535 
Q 206 534 , 232 534 
Q 243 534 , 252 534 
Q 262 534 , 272 535 
L 272 536 
Q 259 536 , 251 535 
Q 242 535 , 233 535 
Q 212 535 , 201 536 
Q 191 537 , 191 539 
Q 191 541 , 201 542 
Q 212 543 , 233 543 
Q 242 543 , 249 543 
Q 256 543 , 259 543 
" fill="#F5C000" />
<path d="
M 275 522 
L 275 524 
Q 260 523 , 252 523 
Q 244 522 , 234 522 
Q 213 522 , 203 524 
Q 191 525 , 191 527 
Q 191 529 , 203 531 
Q 213 532 , 234 532 
Q 244 532 , 252 531 
Q 260 531 , 275 530 
L 275 532 
Q 264 532 , 254 533 
Q 244 533 , 233 533 
Q 206 533 , 191 531 
Q 175 530 , 175 527 
Q 175 524 , 191 523 
Q 206 521 , 233 521 
Q 244 521 , 254 521 
Q 265 522 , 275 522 
" fill="#545FFF" />
<path d="
M 322 554 
L 322 553 
L 308 553 
L 308 553 
L 330 553 
L 330 554 
Q 325 554 , 319 554 
Q 314 554 , 308 554 
Q 295 554 , 288 554 
Q 280 554 , 280 553 
Q 280 553 , 288 552 
Q 295 552 , 308 552 
Q 314 552 , 319 552 
Q 324 552 , 329 552 
L 329 552 
Q 322 552 , 318 552 
Q 314 552 , 309 552 
Q 299 552 , 293 552 
Q 288 553 , 288 553 
Q 288 553 , 293 554 
Q 299 554 , 309 554 
Q 314 554 , 317 554 
Q 321 554 , 322 554 
" fill="#F5C000" />
<path d="
M 330 552 
L 339 552 
L 339 553 
Q 339 554 , 343 554 
Q 346 554 , 355 554 
Q 364 554 , 367 554 
Q 371 554 , 371 553 
L 371 552 
L 380 552 
L 380 553 
Q 380 554 , 374 554 
Q 367 554 , 355 554 
Q 343 554 , 336 554 
Q 330 554 , 330 553 
L 330 552 
" fill="lightgray" />
<path d="
M 305 549 
L 296 551 
L 313 551 
L 305 549 
M 301 549 
L 309 549 
L 330 552 
L 322 552 
L 316 551 
L 294 551 
L 287 552 
L 280 552 
L 301 549 
" fill="#339541" />
<path d="
M 330 549 
L 339 549 
L 339 551 
Q 339 551 , 343 551 
Q 346 551 , 355 551 
Q 364 551 , 367 551 
Q 371 551 , 371 551 
L 371 549 
L 380 549 
L 380 551 
Q 380 551 , 374 551 
Q 367 552 , 355 552 
Q 343 552 , 336 551 
Q 330 551 , 330 551 
L 330 549 
" fill="lightgray" />
<path d="
M 280 546 
L 289 546 
L 289 548 
Q 289 548 , 293 548 
Q 296 549 , 305 549 
Q 314 549 , 317 548 
Q 321 548 , 321 548 
L 321 546 
L 330 546 
L 330 548 
Q 330 548 , 324 549 
Q 317 549 , 305 549 
Q 293 549 , 286 549 
Q 280 548 , 280 548 
L 280 546 
" fill="#D21010" />
<path d="
M 355 547 
L 346 548 
L 363 548 
L 355 547 
M 351 546 
L 359 546 
L 380 549 
L 372 549 
L 366 548 
L 344 548 
L 337 549 
L 330 549 
L 351 546 
" fill="lightgray" />
<path d="
M 280 543 
L 289 543 
L 289 545 
Q 289 545 , 293 545 
Q 296 546 , 305 546 
Q 314 546 , 317 545 
Q 321 545 , 321 545 
L 321 543 
L 330 543 
L 330 545 
Q 330 545 , 324 546 
Q 317 546 , 305 546 
Q 293 546 , 286 546 
Q 280 545 , 280 545 
L 280 543 
" fill="#D21010" />
<path d="
M 372 546 
L 372 545 
L 358 545 
L 358 544 
L 380 544 
L 380 546 
Q 375 546 , 369 546 
Q 364 546 , 358 546 
Q 345 546 , 338 546 
Q 330 545 , 330 544 
Q 330 544 , 338 543 
Q 345 543 , 358 543 
Q 364 543 , 369 543 
Q 374 543 , 379 543 
L 379 544 
Q 372 543 , 368 543 
Q 364 543 , 359 543 
Q 349 543 , 343 544 
Q 338 544 , 338 544 
Q 338 545 , 343 545 
Q 349 546 , 359 546 
Q 364 546 , 367 546 
Q 371 546 , 372 546 
" fill="lightgray" />
<path d="
M 322 532 
L 322 513 
L 308 513 
L 308 505 
L 330 505 
L 330 537 
Q 325 540 , 319 542 
Q 314 543 , 308 543 
Q 295 543 , 288 533 
Q 280 523 , 280 506 
Q 280 489 , 288 480 
Q 295 470 , 308 470 
Q 314 470 , 319 471 
Q 324 473 , 329 476 
L 329 485 
Q 322 481 , 318 480 
Q 314 479 , 309 479 
Q 299 479 , 293 485 
Q 288 492 , 288 506 
Q 288 521 , 293 528 
Q 299 535 , 309 535 
Q 314 535 , 317 534 
Q 321 533 , 322 532 
" fill="#F5C000" />
<path d="
M 380 478 
L 380 489 
Q 373 482 , 369 480 
Q 364 478 , 359 478 
Q 349 478 , 344 485 
Q 338 492 , 338 506 
Q 338 521 , 344 528 
Q 349 535 , 359 535 
Q 364 535 , 369 533 
Q 373 531 , 380 524 
L 380 535 
Q 375 540 , 369 541 
Q 365 543 , 359 543 
Q 345 543 , 338 533 
Q 330 523 , 330 506 
Q 330 490 , 338 480 
Q 345 470 , 359 470 
Q 365 470 , 370 472 
Q 375 474 , 380 478 
" fill="lightgray" />
<path d="
M 330 288 
L 330 319 
Q 323 299 , 319 294 
Q 314 288 , 309 288 
Q 299 288 , 294 308 
Q 288 328 , 288 367 
Q 288 407 , 294 427 
Q 299 447 , 309 447 
Q 314 447 , 319 442 
Q 323 436 , 330 416 
L 330 449 
Q 325 460 , 319 464 
Q 315 469 , 309 469 
Q 295 469 , 288 442 
Q 280 414 , 280 368 
Q 280 321 , 288 294 
Q 295 266 , 309 266 
Q 315 266 , 320 271 
Q 325 276 , 330 288 
" fill="#545FFF" />
<path d="
M 372 440 
L 372 386 
L 358 386 
L 358 363 
L 380 363 
L 380 454 
Q 375 462 , 369 465 
Q 364 469 , 358 469 
Q 345 469 , 338 442 
Q 330 415 , 330 368 
Q 330 320 , 338 293 
Q 345 266 , 358 266 
Q 364 266 , 369 270 
Q 374 273 , 379 282 
L 379 308 
Q 372 297 , 368 293 
Q 364 290 , 359 290 
Q 349 290 , 343 309 
Q 338 328 , 338 368 
Q 338 408 , 343 427 
Q 349 447 , 359 447 
Q 364 447 , 367 445 
Q 371 443 , 372 440 
" fill="lightgray" />
<path d="
M 469 554 
L 469 554 
L 440 554 
L 440 553 
L 485 553 
L 485 555 
Q 474 555 , 463 555 
Q 454 555 , 442 555 
Q 416 555 , 400 554 
Q 385 554 , 385 553 
Q 385 553 , 400 552 
Q 416 552 , 442 552 
Q 453 552 , 462 552 
Q 472 552 , 482 552 
L 482 553 
Q 469 552 , 461 552 
Q 452 552 , 443 552 
Q 422 552 , 411 553 
Q 401 553 , 401 553 
Q 401 554 , 411 554 
Q 422 555 , 443 555 
Q 452 555 , 459 554 
Q 466 554 , 469 554 
" fill="#F5C000" />
<path d="
M 485 543 
L 485 544 
Q 470 544 , 462 543 
Q 454 543 , 444 543 
Q 423 543 , 413 544 
Q 401 545 , 401 547 
Q 401 549 , 413 550 
Q 423 550 , 444 550 
Q 454 550 , 462 550 
Q 470 550 , 485 549 
L 485 551 
Q 474 551 , 464 551 
Q 454 552 , 443 552 
Q 416 552 , 401 550 
Q 385 549 , 385 547 
Q 385 545 , 401 543 
Q 416 542 , 443 542 
Q 454 542 , 464 542 
Q 475 542 , 485 543 
" fill="#545FFF" />
<path d="
M 435 525 
L 417 533 
L 451 533 
L 435 525 
M 428 521 
L 442 521 
L 485 541 
L 469 541 
L 457 535 
L 413 535 
L 400 541 
L 385 541 
L 428 521 
" fill="#339541" />
<path d="
M 385 498 
L 403 498 
L 403 511 
Q 403 515 , 411 517 
Q 418 518 , 435 518 
Q 452 518 , 460 517 
Q 467 515 , 467 511 
L 467 498 
L 485 498 
L 485 512 
Q 485 516 , 472 518 
Q 460 521 , 435 521 
Q 411 521 , 398 518 
Q 385 516 , 385 512 
L 385 498 
" fill="#D21010" />
<path d="
M 490 548 
L 508 548 
L 508 552 
Q 508 553 , 516 553 
Q 523 553 , 540 553 
Q 557 553 , 565 553 
Q 572 553 , 572 552 
L 572 548 
L 590 548 
L 590 552 
Q 590 553 , 577 553 
Q 565 554 , 540 554 
Q 516 554 , 503 553 
Q 490 553 , 490 552 
L 490 548 
" fill="#D21010" />
<path d="
M 590 538 
L 590 540 
Q 575 539 , 567 538 
Q 559 538 , 549 538 
Q 528 538 , 518 539 
Q 506 540 , 506 542 
Q 506 544 , 518 546 
Q 528 547 , 549 547 
Q 559 547 , 567 546 
Q 575 546 , 590 545 
L 590 547 
Q 579 547 , 569 547 
Q 559 548 , 548 548 
Q 521 548 , 506 546 
Q 490 545 , 490 542 
Q 490 540 , 506 538 
Q 521 537 , 548 537 
Q 559 537 , 569 537 
Q 580 538 , 590 538 
" fill="#545FFF" />
<path d="
M 540 517 
L 522 527 
L 556 527 
L 540 517 
M 533 513 
L 547 513 
L 590 537 
L 574 537 
L 562 530 
L 518 530 
L 505 537 
L 490 537 
L 533 513 
" fill="#339541" />
<path d="
M 574 494 
L 574 459 
L 545 459 
L 545 445 
L 590 445 
L 590 502 
Q 579 508 , 568 510 
Q 559 512 , 547 512 
Q 521 512 , 505 495 
Q 490 478 , 490 448 
Q 490 417 , 505 400 
Q 521 383 , 547 383 
Q 558 383 , 567 385 
Q 577 388 , 587 393 
L 587 410 
Q 574 403 , 566 400 
Q 557 398 , 548 398 
Q 527 398 , 516 410 
Q 506 423 , 506 448 
Q 506 473 , 516 485 
Q 527 498 , 548 498 
Q 557 498 , 564 496 
Q 571 495 , 574 494 
" fill="#F5C000" />
<path d="
M 595 552 
L 613 552 
L 613 553 
Q 613 554 , 621 554 
Q 628 554 , 645 554 
Q 662 554 , 670 554 
Q 677 554 , 677 553 
L 677 552 
L 695 552 
L 695 554 
Q 695 554 , 682 554 
Q 670 555 , 645 555 
Q 621 555 , 608 554 
Q 595 554 , 595 554 
L 595 552 
" fill="#D21010" />
<path d="
M 645 543 
L 627 547 
L 661 547 
L 645 543 
M 638 541 
L 652 541 
L 695 551 
L 679 551 
L 667 548 
L 623 548 
L 610 551 
L 595 551 
L 638 541 
" fill="#339541" />
<path d="
M 679 536 
L 679 528 
L 650 528 
L 650 525 
L 695 525 
L 695 538 
Q 684 539 , 673 540 
Q 664 540 , 652 540 
Q 626 540 , 610 536 
Q 595 532 , 595 526 
Q 595 519 , 610 515 
Q 626 511 , 652 511 
Q 663 511 , 672 512 
Q 682 512 , 692 513 
L 692 517 
Q 679 515 , 671 515 
Q 662 514 , 653 514 
Q 632 514 , 621 517 
Q 611 520 , 611 526 
Q 611 531 , 621 534 
Q 632 537 , 653 537 
Q 662 537 , 669 537 
Q 676 536 , 679 536 
" fill="#F5C000" />
<path d="
M 695 484 
L 695 489 
Q 680 486 , 672 485 
Q 664 484 , 654 484 
Q 633 484 , 623 487 
Q 611 490 , 611 495 
Q 611 501 , 623 504 
Q 633 507 , 654 507 
Q 664 507 , 672 506 
Q 680 505 , 695 503 
L 695 507 
Q 684 509 , 674 510 
Q 664 510 , 653 510 
Q 626 510 , 611 506 
Q 595 502 , 595 496 
Q 595 489 , 611 485 
Q 626 481 , 653 481 
Q 664 481 , 674 482 
Q 685 482 , 695 484 
" fill="#545FFF" />
<path d="
M 700 554 
L 718 554 
L 718 554 
Q 718 554 , 726 554 
Q 733 554 , 750 554 
Q 767 554 , 775 554 
Q 782 554 , 782 554 
L 782 554 
L 800 554 
L 800 554 
Q 800 554 , 787 554 
Q 775 554 , 750 554 
Q 726 554 , 713 554 
Q 700 554 , 700 554 
L 700 554 
" fill="#D21010" />
<path d="
M 750 553 
L 732 553 
L 766 553 
L 750 553 
M 743 553 
L 757 553 
L 800 553 
L 784 553 
L 772 553 
L 728 553 
L 715 553 
L 700 553 
L 743 553 
" fill="#339541" />
<path d="
M 800 552 
L 800 552 
Q 785 552 , 777 552 
Q 769 552 , 759 552 
Q 738 552 , 728 552 
Q 716 552 , 716 552 
Q 716 552 , 728 552 
Q 738 552 , 759 552 
Q 769 552 , 777 552 
Q 785 552 , 800 552 
L 800 552 
Q 789 552 , 779 552 
Q 769 552 , 758 552 
Q 731 552 , 716 552 
Q 700 552 , 700 552 
Q 700 552 , 716 552 
Q 731 552 , 758 552 
Q 769 552 , 779 552 
Q 790 552 , 800 552 
" fill="#545FFF" />
<path d="
M 784 551 
L 784 551 
L 755 551 
L 755 551 
L 800 551 
L 800 551 
Q 789 551 , 778 551 
Q 769 551 , 757 551 
Q 731 551 , 715 551 
Q 700 551 , 700 551 
Q 700 551 , 715 551 
Q 731 551 , 757 551 
Q 768 551 , 777 551 
Q 787 551 , 797 551 
L 797 551 
Q 784 551 , 776 551 
Q 767 551 , 758 551 
Q 737 551 , 726 551 
Q 716 551 , 716 551 
Q 716 551 , 726 551 
Q 737 551 , 758 551 
Q 767 551 , 774 551 
Q 781 551 , 784 551 
" fill="#F5C000" />
<path d="
M 905 551 
L 905 552 
Q 890 552 , 882 552 
Q 874 551 , 864 551 
Q 843 551 , 833 552 
Q 821 552 , 821 553 
Q 821 554 , 833 554 
Q 843 555 , 864 555 
Q 874 555 , 882 554 
Q 890 554 , 905 554 
L 905 555 
Q 894 555 , 884 555 
Q 874 555 , 863 555 
Q 836 555 , 821 554 
Q 805 554 , 805 553 
Q 805 552 , 821 552 
Q 836 551 , 863 551 
Q 874 551 , 884 551 
Q 895 551 , 905 551 
" fill="#545FFF" />
<path d="
M 889 549 
L 889 547 
L 860 547 
L 860 546 
L 905 546 
L 905 550 
Q 894 550 , 883 550 
Q 874 550 , 862 550 
Q 836 550 , 820 549 
Q 805 548 , 805 546 
Q 805 544 , 820 543 
Q 836 542 , 862 542 
Q 873 542 , 882 542 
Q 892 542 , 902 543 
L 902 544 
Q 889 543 , 881 543 
Q 872 543 , 863 543 
Q 842 543 , 831 544 
Q 821 545 , 821 546 
Q 821 548 , 831 548 
Q 842 549 , 863 549 
Q 872 549 , 879 549 
Q 886 549 , 889 549 
" fill="#F5C000" />
<path d="
M 805 519 
L 823 519 
L 823 532 
Q 823 536 , 831 537 
Q 838 539 , 855 539 
Q 872 539 , 880 537 
Q 887 536 , 887 532 
L 887 519 
L 905 519 
L 905 533 
Q 905 537 , 892 539 
Q 880 541 , 855 541 
Q 831 541 , 818 539 
Q 805 537 , 805 533 
L 805 519 
" fill="#D21010" />
<path d="
M 855 494 
L 837 506 
L 871 506 
L 855 494 
M 848 488 
L 862 488 
L 905 518 
L 889 518 
L 877 509 
L 833 509 
L 820 518 
L 805 518 
L 848 488 
" fill="#339541" />
<path d="
M 952 554 
L 952 553 
L 938 553 
L 938 553 
L 960 553 
L 960 554 
Q 955 554 , 949 554 
Q 944 554 , 938 554 
Q 925 554 , 918 554 
Q 910 554 , 910 553 
Q 910 553 , 918 552 
Q 925 552 , 938 552 
Q 944 552 , 949 552 
Q 954 552 , 959 552 
L 959 552 
Q 952 552 , 948 552 
Q 944 552 , 939 552 
Q 929 552 , 923 552 
Q 918 553 , 918 553 
Q 918 553 , 923 554 
Q 929 554 , 939 554 
Q 944 554 , 947 554 
Q 951 554 , 952 554 
" fill="lightgray" />
<path d="
M 960 552 
L 969 552 
L 969 553 
Q 969 554 , 973 554 
Q 976 554 , 985 554 
Q 994 554 , 997 554 
Q 1001 554 , 1001 553 
L 1001 552 
L 1010 552 
L 1010 553 
Q 1010 554 , 1004 554 
Q 997 554 , 985 554 
Q 973 554 , 966 554 
Q 960 554 , 960 553 
L 960 552 
" fill="#D21010" />
<path d="
M 935 549 
L 926 551 
L 943 551 
L 935 549 
M 931 549 
L 939 549 
L 960 552 
L 952 552 
L 946 551 
L 924 551 
L 917 552 
L 910 552 
L 931 549 
" fill="lightgray" />
<path d="
M 960 549 
L 969 549 
L 969 551 
Q 969 551 , 973 551 
Q 976 551 , 985 551 
Q 994 551 , 997 551 
Q 1001 551 , 1001 551 
L 1001 549 
L 1010 549 
L 1010 551 
Q 1010 551 , 1004 551 
Q 997 552 , 985 552 
Q 973 552 , 966 551 
Q 960 551 , 960 551 
L 960 549 
" fill="#D21010" />
<path d="
M 910 546 
L 919 546 
L 919 548 
Q 919 548 , 923 548 
Q 926 549 , 935 549 
Q 944 549 , 947 548 
Q 951 548 , 951 548 
L 951 546 
L 960 546 
L 960 548 
Q 960 548 , 954 549 
Q 947 549 , 935 549 
Q 923 549 , 916 549 
Q 910 548 , 910 548 
L 910 546 
" fill="lightgray" />
<path d="
M 985 547 
L 976 548 
L 993 548 
L 985 547 
M 981 546 
L 989 546 
L 1010 549 
L 1002 549 
L 996 548 
L 974 548 
L 967 549 
L 960 549 
L 981 546 
" fill="#339541" />
<path d="
M 910 543 
L 919 543 
L 919 545 
Q 919 545 , 923 545 
Q 926 546 , 935 546 
Q 944 546 , 947 545 
Q 951 545 , 951 545 
L 951 543 
L 960 543 
L 960 545 
Q 960 545 , 954 546 
Q 947 546 , 935 546 
Q 923 546 , 916 546 
Q 910 545 , 910 545 
L 910 543 
" fill="lightgray" />
<path d="
M 1002 546 
L 1002 545 
L 988 545 
L 988 544 
L 1010 544 
L 1010 546 
Q 1005 546 , 999 546 
Q 994 546 , 988 546 
Q 975 546 , 968 546 
Q 960 545 , 960 544 
Q 960 544 , 968 543 
Q 975 543 , 988 543 
Q 994 543 , 999 543 
Q 1004 543 , 1009 543 
L 1009 544 
Q 1002 543 , 998 543 
Q 994 543 , 989 543 
Q 979 543 , 973 544 
Q 968 544 , 968 544 
Q 968 545 , 973 545 
Q 979 546 , 989 546 
Q 994 546 , 997 546 
Q 1001 546 , 1002 546 
" fill="#F5C000" />
<path d="
M 952 532 
L 952 513 
L 938 513 
L 938 505 
L 960 505 
L 960 537 
Q 955 540 , 949 542 
Q 944 543 , 938 543 
Q 925 543 , 918 533 
Q 910 523 , 910 506 
Q 910 489 , 918 480 
Q 925 470 , 938 470 
Q 944 470 , 949 471 
Q 954 473 , 959 476 
L 959 485 
Q 952 481 , 948 480 
Q 944 479 , 939 479 
Q 929 479 , 923 485 
Q 918 492 , 918 506 
Q 918 521 , 923 528 
Q 929 535 , 939 535 
Q 944 535 , 947 534 
Q 951 533 , 952 532 
" fill="lightgray" />
<path d="
M 1010 478 
L 1010 489 
Q 1003 482 , 999 480 
Q 994 478 , 989 478 
Q 979 478 , 974 485 
Q 968 492 , 968 506 
Q 968 521 , 974 528 
Q 979 535 , 989 535 
Q 994 535 , 999 533 
Q 1003 531 , 1010 524 
L 1010 535 
Q 1005 540 , 999 541 
Q 995 543 , 989 543 
Q 975 543 , 968 533 
Q 960 523 , 960 506 
Q 960 490 , 968 480 
Q 975 470 , 989 470 
Q 995 470 , 1000 472 
Q 1005 474 , 1010 478 
" fill="#545FFF" />
<path d="
M 960 288 
L 960 319 
Q 953 299 , 949 294 
Q 944 288 , 939 288 
Q 929 288 , 924 308 
Q 918 328 , 918 367 
Q 918 407 , 924 427 
Q 929 447 , 939 447 
Q 944 447 , 949 442 
Q 953 436 , 960 416 
L 960 449 
Q 955 460 , 949 464 
Q 945 469 , 939 469 
Q 925 469 , 918 442 
Q 910 414 , 910 368 
Q 910 321 , 918 294 
Q 925 266 , 939 266 
Q 945 266 , 950 271 
Q 955 276 , 960 288 
" fill="lightgray" />
<path d="
M 1002 440 
L 1002 386 
L 988 386 
L 988 363 
L 1010 363 
L 1010 454 
Q 1005 462 , 999 465 
Q 994 469 , 988 469 
Q 975 469 , 968 442 
Q 960 415 , 960 368 
Q 960 320 , 968 293 
Q 975 266 , 988 266 
Q 994 266 , 999 270 
Q 1004 273 , 1009 282 
L 1009 308 
Q 1002 297 , 998 293 
Q 994 290 , 989 290 
Q 979 290 , 973 309 
Q 968 328 , 968 368 
Q 968 408 , 973 427 
Q 979 447 , 989 447 
Q 994 447 , 997 445 
Q 1001 443 , 1002 440 
" fill="#F5C000" />
<path d="
M 1015 552 
L 1033 552 
L 1033 553 
Q 1033 554 , 1041 554 
Q 1048 554 , 1065 554 
Q 1082 554 , 1090 554 
Q 1097 554 , 1097 553 
L 1097 552 
L 1115 552 
L 1115 553 
Q 1115 554 , 1102 554 
Q 1090 554 , 1065 554 
Q 1041 554 , 1028 554 
Q 1015 554 , 1015 553 
L 1015 552 
" fill="#D21010" />
<path d="
M 1065 540 
L 1047 546 
L 1081 546 
L 1065 540 
M 1058 537 
L 1072 537 
L 1115 552 
L 1099 552 
L 1087 547 
L 1043 547 
L 1030 552 
L 1015 552 
L 1058 537 
" fill="#339541" />
<path d="
M 1099 533 
L 1099 527 
L 1070 527 
L 1070 524 
L 1115 524 
L 1115 535 
Q 1104 536 , 1093 536 
Q 1084 537 , 1072 537 
Q 1046 537 , 1030 534 
Q 1015 530 , 1015 524 
Q 1015 519 , 1030 515 
Q 1046 512 , 1072 512 
Q 1083 512 , 1092 512 
Q 1102 513 , 1112 514 
L 1112 517 
Q 1099 516 , 1091 515 
Q 1082 515 , 1073 515 
Q 1052 515 , 1041 517 
Q 1031 520 , 1031 524 
Q 1031 529 , 1041 532 
Q 1052 534 , 1073 534 
Q 1082 534 , 1089 534 
Q 1096 534 , 1099 533 
" fill="#F5C000" />
<path d="
M 1115 456 
L 1115 465 
Q 1100 459 , 1092 458 
Q 1084 456 , 1074 456 
Q 1053 456 , 1043 462 
Q 1031 468 , 1031 480 
Q 1031 492 , 1043 499 
Q 1053 505 , 1074 505 
Q 1084 505 , 1092 503 
Q 1100 502 , 1115 495 
L 1115 505 
Q 1104 509 , 1094 510 
Q 1084 512 , 1073 512 
Q 1046 512 , 1031 503 
Q 1015 495 , 1015 480 
Q 1015 466 , 1031 458 
Q 1046 449 , 1073 449 
Q 1084 449 , 1094 451 
Q 1105 452 , 1115 456 
" fill="#545FFF" />
<path d="
M 1220 550 
L 1220 551 
Q 1205 551 , 1197 551 
Q 1189 550 , 1179 550 
Q 1158 550 , 1148 551 
Q 1136 551 , 1136 552 
Q 1136 553 , 1148 553 
Q 1158 554 , 1179 554 
Q 1189 554 , 1197 554 
Q 1205 554 , 1220 553 
L 1220 554 
Q 1209 554 , 1199 554 
Q 1189 554 , 1178 554 
Q 1151 554 , 1136 554 
Q 1120 553 , 1120 552 
Q 1120 551 , 1136 551 
Q 1151 550 , 1178 550 
Q 1189 550 , 1199 550 
Q 1210 550 , 1220 550 
" fill="#545FFF" />
<path d="
M 1204 549 
L 1204 547 
L 1175 547 
L 1175 547 
L 1220 547 
L 1220 549 
Q 1209 550 , 1198 550 
Q 1189 550 , 1177 550 
Q 1151 550 , 1135 549 
Q 1120 548 , 1120 547 
Q 1120 546 , 1135 545 
Q 1151 544 , 1177 544 
Q 1188 544 , 1197 544 
Q 1207 544 , 1217 544 
L 1217 545 
Q 1204 545 , 1196 545 
Q 1187 545 , 1178 545 
Q 1157 545 , 1146 545 
Q 1136 546 , 1136 547 
Q 1136 548 , 1146 549 
Q 1157 549 , 1178 549 
Q 1187 549 , 1194 549 
Q 1201 549 , 1204 549 
" fill="#F5C000" />
<path d="
M 1170 530 
L 1152 537 
L 1186 537 
L 1170 530 
M 1163 527 
L 1177 527 
L 1220 544 
L 1204 544 
L 1192 539 
L 1148 539 
L 1135 544 
L 1120 544 
L 1163 527 
" fill="#339541" />
<path d="
M 1120 509 
L 1138 509 
L 1138 519 
Q 1138 522 , 1146 524 
Q 1153 525 , 1170 525 
Q 1187 525 , 1195 524 
Q 1202 522 , 1202 519 
L 1202 509 
L 1220 509 
L 1220 520 
Q 1220 523 , 1207 525 
Q 1195 527 , 1170 527 
Q 1146 527 , 1133 525 
Q 1120 523 , 1120 520 
L 1120 509 
" fill="#D21010" />
<path d="
M 1225 552 
L 1243 552 
L 1243 554 
Q 1243 554 , 1251 554 
Q 1258 554 , 1275 554 
Q 1292 554 , 1300 554 
Q 1307 554 , 1307 554 
L 1307 552 
L 1325 552 
L 1325 554 
Q 1325 554 , 1312 554 
Q 1300 555 , 1275 555 
Q 1251 555 , 1238 554 
Q 1225 554 , 1225 554 
L 1225 552 
" fill="#D21010" />
<path d="
M 1275 536 
L 1257 544 
L 1291 544 
L 1275 536 
M 1268 533 
L 1282 533 
L 1325 551 
L 1309 551 
L 1297 546 
L 1253 546 
L 1240 551 
L 1225 551 
L 1268 533 
" fill="#339541" />
<path d="
M 1325 512 
L 1325 516 
Q 1310 514 , 1302 513 
Q 1294 512 , 1284 512 
Q 1263 512 , 1253 515 
Q 1241 517 , 1241 521 
Q 1241 525 , 1253 527 
Q 1263 530 , 1284 530 
Q 1294 530 , 1302 529 
Q 1310 528 , 1325 526 
L 1325 530 
Q 1314 531 , 1304 532 
Q 1294 532 , 1283 532 
Q 1256 532 , 1241 529 
Q 1225 526 , 1225 521 
Q 1225 516 , 1241 513 
Q 1256 510 , 1283 510 
Q 1294 510 , 1304 511 
Q 1315 511 , 1325 512 
" fill="#545FFF" />
<path d="
M 1309 497 
L 1309 473 
L 1280 473 
L 1280 463 
L 1325 463 
L 1325 503 
Q 1314 507 , 1303 508 
Q 1294 509 , 1282 510 
Q 1256 510 , 1240 498 
Q 1225 486 , 1225 465 
Q 1225 445 , 1240 433 
Q 1256 421 , 1282 421 
Q 1293 421 , 1302 423 
Q 1312 424 , 1322 428 
L 1322 439 
Q 1309 434 , 1301 433 
Q 1292 432 , 1283 432 
Q 1262 432 , 1251 440 
Q 1241 448 , 1241 465 
Q 1241 483 , 1251 491 
Q 1262 500 , 1283 500 
Q 1292 500 , 1299 499 
Q 1306 498 , 1309 497 
" fill="#F5C000" />
<path d="
M 1330 554 
L 1348 554 
L 1348 554 
Q 1348 554 , 1356 554 
Q 1363 554 , 1380 554 
Q 1397 554 , 1405 554 
Q 1412 554 , 1412 554 
L 1412 554 
L 1430 554 
L 1430 554 
Q 1430 554 , 1417 554 
Q 1405 554 , 1380 554 
Q 1356 554 , 1343 554 
Q 1330 554 , 1330 554 
L 1330 554 
" fill="#D21010" />
<path d="
M 1380 553 
L 1362 553 
L 1396 553 
L 1380 553 
M 1373 553 
L 1387 553 
L 1430 553 
L 1414 553 
L 1402 553 
L 1358 553 
L 1345 553 
L 1330 553 
L 1373 553 
" fill="#339541" />
<path d="
M 1430 552 
L 1430 552 
Q 1415 552 , 1407 552 
Q 1399 552 , 1389 552 
Q 1368 552 , 1358 552 
Q 1346 552 , 1346 552 
Q 1346 552 , 1358 552 
Q 1368 552 , 1389 552 
Q 1399 552 , 1407 552 
Q 1415 552 , 1430 552 
L 1430 552 
Q 1419 552 , 1409 552 
Q 1399 552 , 1388 552 
Q 1361 552 , 1346 552 
Q 1330 552 , 1330 552 
Q 1330 552 , 1346 552 
Q 1361 552 , 1388 552 
Q 1399 552 , 1409 552 
Q 1420 552 , 1430 552 
" fill="#545FFF" />
<path d="
M 1414 551 
L 1414 551 
L 1385 551 
L 1385 551 
L 1430 551 
L 1430 551 
Q 1419 551 , 1408 551 
Q 1399 551 , 1387 551 
Q 1361 551 , 1345 551 
Q 1330 551 , 1330 551 
Q 1330 551 , 1345 551 
Q 1361 551 , 1387 551 
Q 1398 551 , 1407 551 
Q 1417 551 , 1427 551 
L 1427 551 
Q 1414 551 , 1406 551 
Q 1397 551 , 1388 551 
Q 1367 551 , 1356 551 
Q 1346 551 , 1346 551 
Q 1346 551 , 1356 551 
Q 1367 551 , 1388 551 
Q 1397 551 , 1404 551 
Q 1411 551 , 1414 551 
" fill="#F5C000" />
<path d="M 65 168 L 65 555 " stroke="black" stroke-width="1.5"/>
<path d="M 55 555 L 65 555 " stroke="black" stroke-width="4"/>
<text text-anchor="end" x="50" y="555" font-size="50" alignment-baseline="middle">0</text>
<path d="M 55 362 L 65 362 " stroke="black" stroke-width="4"/>
<text text-anchor="end" x="50" y="362" font-size="50" alignment-baseline="middle">1</text>
<path d="M 55 168 L 65 168 " stroke="black" stroke-width="4"/>
<text text-anchor="end" x="50" y="168" font-size="50" alignment-baseline="middle">2</text>
<text text-anchor="middle" x="750" y="50" font-size="50" alignment-baseline="baseline"></text>
G<path d="
M 160 582 
L 126 595 
L 160 608 
L 157 611 
L 123 598 
L 123 623 
L 117 623 
L 117 599 
L 83 611 
L 80 608 
L 114 595 
L 80 582 
L 83 579 
L 117 591 
L 117 567 
L 123 567 
L 123 591 
L 157 579 
L 160 582 
" fill="black" />
<path d="
" fill="black" />
<path d="
M 211 567 
L 238 567 
L 238 623 
L 211 623 
L 211 567 
" fill="black" />
<path d="
" fill="black" />
<path d="
M 370 567 
Q 341 574 , 328 581 
Q 315 588 , 315 595 
Q 315 602 , 328 609 
Q 341 616 , 370 623 
L 346 623 
Q 318 616 , 304 609 
Q 290 602 , 290 595 
Q 290 588 , 304 581 
Q 318 574 , 346 567 
L 370 567 
" fill="black" />
<path d="
" fill="black" />
<path d="
M 421 567 
L 448 567 
L 448 623 
L 421 623 
L 421 567 
" fill="black" />
<path d="
" fill="black" />
<path d="
" fill="black" />
<path d="
M 526 567 
L 553 567 
L 553 623 
L 526 623 
L 526 567 
" fill="black" />
<path d="
" fill="black" />
<path d="
" fill="black" />
<path d="
M 622 567 
L 642 567 
L 642 623 
L 622 623 
L 622 567 
" fill="black" />
<path d="
" fill="black" />
<path d="
M 687 595 
Q 686 591 , 682 591 
Q 679 591 , 677 595 
Q 675 599 , 675 605 
Q 675 612 , 677 615 
Q 679 619 , 682 619 
Q 686 619 , 687 615 
Q 689 612 , 689 605 
Q 689 599 , 687 595 
M 690 569 
L 690 574 
Q 689 572 , 687 571 
Q 686 571 , 684 571 
Q 678 571 , 676 581 
Q 675 586 , 675 595 
Q 675 593 , 677 590 
Q 679 587 , 682 587 
Q 687 587 , 689 592 
Q 692 597 , 692 604 
Q 692 613 , 689 618 
Q 687 623 , 682 623 
Q 677 623 , 675 616 
Q 672 609 , 672 595 
Q 672 581 , 675 574 
Q 679 567 , 684 567 
Q 686 567 , 687 568 
Q 689 568 , 690 569 
" fill="black" />
<path d="
M 790 582 
L 756 595 
L 790 608 
L 787 611 
L 753 598 
L 753 623 
L 747 623 
L 747 599 
L 713 611 
L 710 608 
L 744 595 
L 710 582 
L 713 579 
L 747 591 
L 747 567 
L 753 567 
L 753 591 
L 787 579 
L 790 582 
" fill="black" />
<path d="
" fill="black" />
<path d="
M 841 567 
L 868 567 
L 868 623 
L 841 623 
L 841 567 
" fill="black" />
<path d="
" fill="black" />
<path d="
M 920 567 
L 944 567 
Q 972 574 , 986 581 
Q 1000 588 , 1000 595 
Q 1000 602 , 986 609 
Q 972 616 , 944 623 
L 920 623 
Q 949 616 , 962 609 
Q 975 602 , 975 595 
Q 975 588 , 962 581 
Q 949 574 , 920 567 
" fill="black" />
<path d="
" fill="black" />
<path d="
M 1051 567 
L 1078 567 
L 1078 623 
L 1051 623 
L 1051 567 
" fill="black" />
<path d="
" fill="black" />
<path d="
" fill="black" />
<path d="
M 1156 567 
L 1183 567 
L 1183 623 
L 1156 623 
L 1156 567 
" fill="black" />
<path d="
" fill="black" />
<path d="
" fill="black" />
<path d="
M 1261 567 
L 1288 567 
L 1288 623 
L 1261 623 
L 1261 567 
" fill="black" />
<path d="
" fill="black" />
<path d="
M 1420 582 
L 1386 595 
L 1420 608 
L 1417 611 
L 1383 598 
L 1383 623 
L 1377 623 
L 1377 599 
L 1343 611 
L 1340 608 
L 1374 595 
L 1340 582 
L 1343 579 
L 1377 591 
L 1377 567 
L 1383 567 
L 1383 591 
L 1417 579 
L 1420 582 
" fill="black" />
</svg>
