<svg xmlns="http://www.w3.org/2000/svg"
viewBox="0 0 700 635">
<path d="
M 70 554 
L 88 554 
L 88 554 
Q 88 554 , 96 554 
Q 103 554 , 120 554 
Q 137 554 , 145 554 
Q 152 554 , 152 554 
L 152 554 
L 170 554 
L 170 554 
Q 170 554 , 157 554 
Q 145 554 , 120 554 
Q 96 554 , 83 554 
Q 70 554 , 70 554 
L 70 554 
" fill="#D21010" />
<path d="
M 120 553 
L 102 553 
L 136 553 
L 120 553 
M 113 553 
L 127 553 
L 170 553 
L 154 553 
L 142 553 
L 98 553 
L 85 553 
L 70 553 
L 113 553 
" fill="#339541" />
<path d="
M 170 552 
L 170 552 
Q 155 552 , 147 552 
Q 139 552 , 129 552 
Q 108 552 , 98 552 
Q 86 552 , 86 552 
Q 86 552 , 98 552 
Q 108 552 , 129 552 
Q 139 552 , 147 552 
Q 155 552 , 170 552 
L 170 552 
Q 159 552 , 149 552 
Q 139 552 , 128 552 
Q 101 552 , 86 552 
Q 70 552 , 70 552 
Q 70 552 , 86 552 
Q 101 552 , 128 552 
Q 139 552 , 149 552 
Q 160 552 , 170 552 
" fill="#545FFF" />
<path d="
M 154 551 
L 154 551 
L 125 551 
L 125 551 
L 170 551 
L 170 551 
Q 159 551 , 148 551 
Q 139 551 , 127 551 
Q 101 551 , 85 551 
Q 70 551 , 70 551 
Q 70 551 , 85 551 
Q 101 551 , 127 551 
Q 138 551 , 147 551 
Q 157 551 , 167 551 
L 167 551 
Q 154 551 , 146 551 
Q 137 551 , 128 551 
Q 107 551 , 96 551 
Q 86 551 , 86 551 
Q 86 551 , 96 551 
Q 107 551 , 128 551 
Q 137 551 , 144 551 
Q 151 551 , 154 551 
" fill="#F5C000" />
<path d="
M 175 551 
L 193 551 
L 193 553 
Q 193 554 , 201 554 
Q 208 554 , 225 554 
Q 242 554 , 250 554 
Q 257 554 , 257 553 
L 257 551 
L 275 551 
L 275 553 
Q 275 554 , 262 554 
Q 250 554 , 225 554 
Q 201 554 , 188 554 
Q 175 554 , 175 553 
L 175 551 
" fill="#D21010" />
<path d="
M 225 544 
L 207 547 
L 241 547 
L 225 544 
M 218 543 
L 232 543 
L 275 550 
L 259 550 
L 247 548 
L 203 548 
L 190 550 
L 175 550 
L 218 543 
" fill="#339541" />
<path d="
M 275 487 
L 275 496 
Q 260 490 , 252 489 
Q 244 487 , 234 487 
Q 213 487 , 203 493 
Q 191 499 , 191 511 
Q 191 524 , 203 530 
Q 213 536 , 234 536 
Q 244 536 , 252 534 
Q 260 533 , 275 526 
L 275 536 
Q 264 540 , 254 541 
Q 244 543 , 233 543 
Q 206 543 , 191 534 
Q 175 526 , 175 511 
Q 175 497 , 191 489 
Q 206 480 , 233 480 
Q 244 480 , 254 482 
Q 265 483 , 275 487 
" fill="#545FFF" />
<path d="
M 259 464 
L 259 435 
L 230 435 
L 230 422 
L 275 422 
L 275 471 
Q 264 476 , 253 478 
Q 244 480 , 232 480 
Q 206 480 , 190 465 
Q 175 450 , 175 425 
Q 175 399 , 190 385 
Q 206 370 , 232 370 
Q 243 370 , 252 372 
Q 262 374 , 272 379 
L 272 393 
Q 259 387 , 251 385 
Q 242 383 , 233 383 
Q 212 383 , 201 393 
Q 191 404 , 191 425 
Q 191 446 , 201 457 
Q 212 468 , 233 468 
Q 242 468 , 249 466 
Q 256 465 , 259 464 
" fill="#F5C000" />
<path d="
M 280 553 
L 298 553 
L 298 554 
Q 298 554 , 306 555 
Q 313 555 , 330 555 
Q 347 555 , 355 555 
Q 362 554 , 362 554 
L 362 553 
L 380 553 
L 380 554 
Q 380 554 , 367 555 
Q 355 555 , 330 555 
Q 306 555 , 293 555 
Q 280 554 , 280 554 
L 280 553 
" fill="#D21010" />
<path d="
M 330 537 
L 312 545 
L 346 545 
L 330 537 
M 323 534 
L 337 534 
L 380 552 
L 364 552 
L 352 547 
L 308 547 
L 295 552 
L 280 552 
L 323 534 
" fill="#339541" />
<path d="
M 364 527 
L 364 517 
L 335 517 
L 335 513 
L 380 513 
L 380 530 
Q 369 532 , 358 532 
Q 349 533 , 337 533 
Q 311 533 , 295 528 
Q 280 523 , 280 514 
Q 280 504 , 295 499 
Q 311 494 , 337 494 
Q 348 494 , 357 495 
Q 367 495 , 377 497 
L 377 502 
Q 364 500 , 356 499 
Q 347 499 , 338 499 
Q 317 499 , 306 502 
Q 296 506 , 296 514 
Q 296 521 , 306 525 
Q 317 529 , 338 529 
Q 347 529 , 354 528 
Q 361 528 , 364 527 
" fill="#F5C000" />
<path d="
M 380 360 
L 380 383 
Q 365 368 , 357 364 
Q 349 361 , 339 361 
Q 318 361 , 308 375 
Q 296 390 , 296 419 
Q 296 448 , 308 463 
Q 318 477 , 339 477 
Q 349 477 , 357 474 
Q 365 470 , 380 455 
L 380 478 
Q 369 487 , 359 490 
Q 349 494 , 338 494 
Q 311 494 , 296 473 
Q 280 453 , 280 419 
Q 280 384 , 296 364 
Q 311 344 , 338 344 
Q 349 344 , 359 348 
Q 370 351 , 380 360 
" fill="#545FFF" />
<path d="
M 469 554 
L 469 553 
L 440 553 
L 440 552 
L 485 552 
L 485 554 
Q 474 554 , 463 555 
Q 454 555 , 442 555 
Q 416 555 , 400 554 
Q 385 553 , 385 552 
Q 385 551 , 400 551 
Q 416 550 , 442 550 
Q 453 550 , 462 550 
Q 472 550 , 482 550 
L 482 551 
Q 469 551 , 461 551 
Q 452 551 , 443 551 
Q 422 551 , 411 551 
Q 401 551 , 401 552 
Q 401 553 , 411 554 
Q 422 554 , 443 554 
Q 452 554 , 459 554 
Q 466 554 , 469 554 
" fill="#F5C000" />
<path d="
M 485 540 
L 485 542 
Q 470 541 , 462 540 
Q 454 540 , 444 540 
Q 423 540 , 413 541 
Q 401 542 , 401 544 
Q 401 546 , 413 547 
Q 423 548 , 444 548 
Q 454 548 , 462 548 
Q 470 548 , 485 547 
L 485 548 
Q 474 549 , 464 549 
Q 454 549 , 443 549 
Q 416 549 , 401 548 
Q 385 547 , 385 544 
Q 385 542 , 401 540 
Q 416 539 , 443 539 
Q 454 539 , 464 539 
Q 475 540 , 485 540 
" fill="#545FFF" />
<path d="
M 385 493 
L 403 493 
L 403 520 
Q 403 527 , 411 531 
Q 418 534 , 435 534 
Q 452 534 , 460 531 
Q 467 527 , 467 520 
L 467 493 
L 485 493 
L 485 521 
Q 485 529 , 472 534 
Q 460 539 , 435 539 
Q 411 539 , 398 534 
Q 385 529 , 385 521 
L 385 493 
" fill="#D21010" />
<path d="
M 435 441 
L 417 467 
L 451 467 
L 435 441 
M 428 430 
L 442 430 
L 485 492 
L 469 492 
L 457 474 
L 413 474 
L 400 492 
L 385 492 
L 428 430 
" fill="#339541" />
<path d="
M 490 550 
L 508 550 
L 508 553 
Q 508 553 , 516 554 
Q 523 554 , 540 554 
Q 557 554 , 565 554 
Q 572 553 , 572 553 
L 572 550 
L 590 550 
L 590 553 
Q 590 553 , 577 554 
Q 565 554 , 540 554 
Q 516 554 , 503 554 
Q 490 553 , 490 553 
L 490 550 
" fill="#D21010" />
<path d="
M 540 542 
L 522 546 
L 556 546 
L 540 542 
M 533 541 
L 547 541 
L 590 549 
L 574 549 
L 562 547 
L 518 547 
L 505 549 
L 490 549 
L 533 541 
" fill="#339541" />
<path d="
M 590 528 
L 590 530 
Q 575 529 , 567 529 
Q 559 528 , 549 528 
Q 528 528 , 518 530 
Q 506 531 , 506 533 
Q 506 536 , 518 537 
Q 528 539 , 549 539 
Q 559 539 , 567 538 
Q 575 538 , 590 537 
L 590 539 
Q 579 540 , 569 540 
Q 559 540 , 548 540 
Q 521 540 , 506 538 
Q 490 537 , 490 534 
Q 490 531 , 506 529 
Q 521 527 , 548 527 
Q 559 527 , 569 527 
Q 580 528 , 590 528 
" fill="#545FFF" />
<path d="
M 574 474 
L 574 377 
L 545 377 
L 545 337 
L 590 337 
L 590 498 
Q 579 514 , 568 520 
Q 559 526 , 547 526 
Q 521 526 , 505 478 
Q 490 430 , 490 345 
Q 490 261 , 505 213 
Q 521 164 , 547 164 
Q 558 164 , 567 170 
Q 577 177 , 587 193 
L 587 240 
Q 574 219 , 566 213 
Q 557 207 , 548 207 
Q 527 207 , 516 241 
Q 506 275 , 506 345 
Q 506 417 , 516 451 
Q 527 486 , 548 486 
Q 557 486 , 564 482 
Q 571 479 , 574 474 
" fill="#F5C000" />
<path d="
M 595 554 
L 613 554 
L 613 554 
Q 613 554 , 621 554 
Q 628 554 , 645 554 
Q 662 554 , 670 554 
Q 677 554 , 677 554 
L 677 554 
L 695 554 
L 695 554 
Q 695 554 , 682 554 
Q 670 554 , 645 554 
Q 621 554 , 608 554 
Q 595 554 , 595 554 
L 595 554 
" fill="#D21010" />
<path d="
M 645 553 
L 627 553 
L 661 553 
L 645 553 
M 638 553 
L 652 553 
L 695 553 
L 679 553 
L 667 553 
L 623 553 
L 610 553 
L 595 553 
L 638 553 
" fill="#339541" />
<path d="
M 695 552 
L 695 552 
Q 680 552 , 672 552 
Q 664 552 , 654 552 
Q 633 552 , 623 552 
Q 611 552 , 611 552 
Q 611 552 , 623 552 
Q 633 552 , 654 552 
Q 664 552 , 672 552 
Q 680 552 , 695 552 
L 695 552 
Q 684 552 , 674 552 
Q 664 552 , 653 552 
Q 626 552 , 611 552 
Q 595 552 , 595 552 
Q 595 552 , 611 552 
Q 626 552 , 653 552 
Q 664 552 , 674 552 
Q 685 552 , 695 552 
" fill="#545FFF" />
<path d="
M 679 551 
L 679 551 
L 650 551 
L 650 551 
L 695 551 
L 695 551 
Q 684 551 , 673 551 
Q 664 551 , 652 551 
Q 626 551 , 610 551 
Q 595 551 , 595 551 
Q 595 551 , 610 551 
Q 626 551 , 652 551 
Q 663 551 , 672 551 
Q 682 551 , 692 551 
L 692 551 
Q 679 551 , 671 551 
Q 662 551 , 653 551 
Q 632 551 , 621 551 
Q 611 551 , 611 551 
Q 611 551 , 621 551 
Q 632 551 , 653 551 
Q 662 551 , 669 551 
Q 676 551 , 679 551 
" fill="#F5C000" />
<path d="M 65 55 L 65 555 " stroke="black" stroke-width="1.5"/>
<path d="M 55 555 L 65 555 " stroke="black" stroke-width="4"/>
<text text-anchor="end" x="50" y="555" font-size="50" alignment-baseline="middle">0</text>
<path d="M 55 305 L 65 305 " stroke="black" stroke-width="4"/>
<text text-anchor="end" x="50" y="305" font-size="50" alignment-baseline="middle">1</text>
<path d="M 55 55 L 65 55 " stroke="black" stroke-width="4"/>
<text text-anchor="end" x="50" y="55" font-size="50" alignment-baseline="middle">2</text>
<text text-anchor="middle" x="382" y="50" font-size="50" alignment-baseline="baseline"></text>
G<path d="
M 160 582 
L 126 595 
L 160 608 
L 157 611 
L 123 598 
L 123 623 
L 117 623 
L 117 599 
L 83 611 
L 80 608 
L 114 595 
L 80 582 
L 83 579 
L 117 591 
L 117 567 
L 123 567 
L 123 591 
L 157 579 
L 160 582 
" fill="black" />
<path d="
" fill="black" />
<path d="
M 211 567 
L 238 567 
L 238 623 
L 211 623 
L 211 567 
" fill="black" />
<path d="
" fill="black" />
<path d="
" fill="black" />
<path d="
M 316 567 
L 343 567 
L 343 623 
L 316 623 
L 316 567 
" fill="black" />
<path d="
" fill="black" />
<path d="
" fill="black" />
<path d="
M 421 567 
L 448 567 
L 448 623 
L 421 623 
L 421 567 
" fill="black" />
<path d="
" fill="black" />
<path d="
" fill="black" />
<path d="
M 526 567 
L 553 567 
L 553 623 
L 526 623 
L 526 567 
" fill="black" />
<path d="
" fill="black" />
<path d="
M 685 582 
L 651 595 
L 685 608 
L 682 611 
L 648 598 
L 648 623 
L 642 623 
L 642 599 
L 608 611 
L 605 608 
L 639 595 
L 605 582 
L 608 579 
L 642 591 
L 642 567 
L 648 567 
L 648 591 
L 682 579 
L 685 582 
" fill="black" />
</svg>
