<svg xmlns="http://www.w3.org/2000/svg"
viewBox="0 0 1435 635">
<path d="
M 170 553 
L 170 553 
Q 155 553 , 147 553 
Q 139 553 , 129 553 
Q 108 553 , 98 553 
Q 86 553 , 86 553 
Q 86 554 , 98 554 
Q 108 554 , 129 554 
Q 139 554 , 147 554 
Q 155 554 , 170 554 
L 170 554 
Q 159 554 , 149 554 
Q 139 554 , 128 554 
Q 101 554 , 86 554 
Q 70 554 , 70 554 
Q 70 553 , 86 553 
Q 101 553 , 128 553 
Q 139 553 , 149 553 
Q 160 553 , 170 553 
" fill="#545FFF" />
<path d="
M 154 552 
L 154 552 
L 125 552 
L 125 552 
L 170 552 
L 170 552 
Q 159 552 , 148 553 
Q 139 553 , 127 553 
Q 101 553 , 85 552 
Q 70 552 , 70 552 
Q 70 551 , 85 551 
Q 101 551 , 127 551 
Q 138 551 , 147 551 
Q 157 551 , 167 551 
L 167 551 
Q 154 551 , 146 551 
Q 137 551 , 128 551 
Q 107 551 , 96 551 
Q 86 551 , 86 552 
Q 86 552 , 96 552 
Q 107 552 , 128 552 
Q 137 552 , 144 552 
Q 151 552 , 154 552 
" fill="#F5C000" />
<path d="
M 70 549 
L 88 549 
L 88 550 
Q 88 550 , 96 550 
Q 103 551 , 120 551 
Q 137 551 , 145 550 
Q 152 550 , 152 550 
L 152 549 
L 170 549 
L 170 550 
Q 170 550 , 157 551 
Q 145 551 , 120 551 
Q 96 551 , 83 551 
Q 70 550 , 70 550 
L 70 549 
" fill="#D21010" />
<path d="
M 120 547 
L 102 548 
L 136 548 
L 120 547 
M 113 547 
L 127 547 
L 170 549 
L 154 549 
L 142 548 
L 98 548 
L 85 549 
L 70 549 
L 113 547 
" fill="#339541" />
<path d="
M 225 546 
L 207 550 
L 241 550 
L 225 546 
M 218 544 
L 232 544 
L 275 554 
L 259 554 
L 247 551 
L 203 551 
L 190 554 
L 175 554 
L 218 544 
" fill="#339541" />
<path d="
M 259 541 
L 259 538 
L 230 538 
L 230 536 
L 275 536 
L 275 542 
Q 264 543 , 253 543 
Q 244 544 , 232 544 
Q 206 544 , 190 542 
Q 175 540 , 175 536 
Q 175 533 , 190 531 
Q 206 529 , 232 529 
Q 243 529 , 252 529 
Q 262 530 , 272 530 
L 272 532 
Q 259 531 , 251 531 
Q 242 531 , 233 531 
Q 212 531 , 201 532 
Q 191 533 , 191 536 
Q 191 539 , 201 541 
Q 212 542 , 233 542 
Q 242 542 , 249 542 
Q 256 542 , 259 541 
" fill="#F5C000" />
<path d="
M 275 509 
L 275 513 
Q 260 511 , 252 510 
Q 244 509 , 234 509 
Q 213 509 , 203 512 
Q 191 514 , 191 518 
Q 191 522 , 203 524 
Q 213 527 , 234 527 
Q 244 527 , 252 526 
Q 260 525 , 275 523 
L 275 527 
Q 264 528 , 254 528 
Q 244 529 , 233 529 
Q 206 529 , 191 526 
Q 175 523 , 175 518 
Q 175 513 , 191 510 
Q 206 507 , 233 507 
Q 244 507 , 254 508 
Q 265 508 , 275 509 
" fill="#545FFF" />
<path d="
M 175 419 
L 193 419 
L 193 471 
Q 193 485 , 201 491 
Q 208 497 , 225 497 
Q 242 497 , 250 491 
Q 257 485 , 257 471 
L 257 419 
L 275 419 
L 275 472 
Q 275 489 , 262 498 
Q 250 507 , 225 507 
Q 201 507 , 188 498 
Q 175 489 , 175 472 
L 175 419 
" fill="#D21010" />
<path d="
M 380 547 
L 380 548 
Q 365 547 , 357 547 
Q 349 547 , 339 547 
Q 318 547 , 308 548 
Q 296 549 , 296 550 
Q 296 552 , 308 553 
Q 318 553 , 339 553 
Q 349 553 , 357 553 
Q 365 553 , 380 552 
L 380 553 
Q 369 554 , 359 554 
Q 349 554 , 338 554 
Q 311 554 , 296 553 
Q 280 552 , 280 550 
Q 280 548 , 296 547 
Q 311 546 , 338 546 
Q 349 546 , 359 546 
Q 370 546 , 380 547 
" fill="#545FFF" />
<path d="
M 330 537 
L 312 541 
L 346 541 
L 330 537 
M 323 535 
L 337 535 
L 380 546 
L 364 546 
L 352 542 
L 308 542 
L 295 546 
L 280 546 
L 323 535 
" fill="#339541" />
<path d="
M 364 531 
L 364 523 
L 335 523 
L 335 521 
L 380 521 
L 380 532 
Q 369 533 , 358 534 
Q 349 534 , 337 534 
Q 311 534 , 295 531 
Q 280 527 , 280 521 
Q 280 515 , 295 512 
Q 311 508 , 337 508 
Q 348 508 , 357 508 
Q 367 509 , 377 510 
L 377 513 
Q 364 512 , 356 512 
Q 347 511 , 338 511 
Q 317 511 , 306 514 
Q 296 516 , 296 521 
Q 296 526 , 306 529 
Q 317 531 , 338 531 
Q 347 531 , 354 531 
Q 361 531 , 364 531 
" fill="#F5C000" />
<path d="
M 280 446 
L 298 446 
L 298 482 
Q 298 493 , 306 497 
Q 313 501 , 330 501 
Q 347 501 , 355 497 
Q 362 493 , 362 482 
L 362 446 
L 380 446 
L 380 483 
Q 380 495 , 367 501 
Q 355 508 , 330 508 
Q 306 508 , 293 501 
Q 280 495 , 280 483 
L 280 446 
" fill="#D21010" />
<path d="
M 485 548 
L 485 549 
Q 470 548 , 462 548 
Q 454 548 , 444 548 
Q 423 548 , 413 549 
Q 401 549 , 401 550 
Q 401 552 , 413 553 
Q 423 554 , 444 554 
Q 454 554 , 462 554 
Q 470 554 , 485 553 
L 485 554 
Q 474 554 , 464 555 
Q 454 555 , 443 555 
Q 416 555 , 401 554 
Q 385 553 , 385 551 
Q 385 549 , 401 548 
Q 416 547 , 443 547 
Q 454 547 , 464 547 
Q 475 547 , 485 548 
" fill="#545FFF" />
<path d="
M 435 532 
L 417 540 
L 451 540 
L 435 532 
M 428 529 
L 442 529 
L 485 547 
L 469 547 
L 457 542 
L 413 542 
L 400 547 
L 385 547 
L 428 529 
" fill="#339541" />
<path d="
M 469 525 
L 469 518 
L 440 518 
L 440 516 
L 485 516 
L 485 527 
Q 474 528 , 463 528 
Q 454 529 , 442 529 
Q 416 529 , 400 525 
Q 385 522 , 385 516 
Q 385 511 , 400 507 
Q 416 504 , 442 504 
Q 453 504 , 462 504 
Q 472 505 , 482 506 
L 482 509 
Q 469 508 , 461 507 
Q 452 507 , 443 507 
Q 422 507 , 411 509 
Q 401 512 , 401 516 
Q 401 521 , 411 523 
Q 422 526 , 443 526 
Q 452 526 , 459 526 
Q 466 525 , 469 525 
" fill="#F5C000" />
<path d="
M 385 319 
L 403 319 
L 403 428 
Q 403 458 , 411 471 
Q 418 483 , 435 483 
Q 452 483 , 460 471 
Q 467 458 , 467 428 
L 467 319 
L 485 319 
L 485 431 
Q 485 466 , 472 485 
Q 460 504 , 435 504 
Q 411 504 , 398 485 
Q 385 466 , 385 431 
L 385 319 
" fill="#D21010" />
<path d="
M 574 554 
L 574 552 
L 545 552 
L 545 552 
L 590 552 
L 590 554 
Q 579 554 , 568 554 
Q 559 555 , 547 555 
Q 521 555 , 505 554 
Q 490 553 , 490 552 
Q 490 550 , 505 550 
Q 521 549 , 547 549 
Q 558 549 , 567 549 
Q 577 549 , 587 549 
L 587 550 
Q 574 550 , 566 550 
Q 557 550 , 548 550 
Q 527 550 , 516 550 
Q 506 551 , 506 552 
Q 506 553 , 516 553 
Q 527 554 , 548 554 
Q 557 554 , 564 554 
Q 571 554 , 574 554 
" fill="#F5C000" />
<path d="
M 540 542 
L 522 545 
L 556 545 
L 540 542 
M 533 541 
L 547 541 
L 590 548 
L 574 548 
L 562 546 
L 518 546 
L 505 548 
L 490 548 
L 533 541 
" fill="#339541" />
<path d="
M 590 531 
L 590 533 
Q 575 532 , 567 531 
Q 559 531 , 549 531 
Q 528 531 , 518 532 
Q 506 533 , 506 535 
Q 506 537 , 518 538 
Q 528 539 , 549 539 
Q 559 539 , 567 539 
Q 575 539 , 590 538 
L 590 539 
Q 579 540 , 569 540 
Q 559 540 , 548 540 
Q 521 540 , 506 539 
Q 490 538 , 490 535 
Q 490 533 , 506 531 
Q 521 530 , 548 530 
Q 559 530 , 569 530 
Q 580 531 , 590 531 
" fill="#545FFF" />
<path d="
M 490 510 
L 508 510 
L 508 521 
Q 508 525 , 516 526 
Q 523 527 , 540 527 
Q 557 527 , 565 526 
Q 572 525 , 572 521 
L 572 510 
L 590 510 
L 590 522 
Q 590 526 , 577 527 
Q 565 529 , 540 529 
Q 516 529 , 503 527 
Q 490 526 , 490 522 
L 490 510 
" fill="#D21010" />
<path d="
M 645 544 
L 627 549 
L 661 549 
L 645 544 
M 638 542 
L 652 542 
L 695 554 
L 679 554 
L 667 551 
L 623 551 
L 610 554 
L 595 554 
L 638 542 
" fill="#339541" />
<path d="
M 679 540 
L 679 536 
L 650 536 
L 650 534 
L 695 534 
L 695 541 
Q 684 541 , 673 542 
Q 664 542 , 652 542 
Q 626 542 , 610 540 
Q 595 538 , 595 534 
Q 595 531 , 610 529 
Q 626 527 , 652 527 
Q 663 527 , 672 527 
Q 682 528 , 692 528 
L 692 530 
Q 679 529 , 671 529 
Q 662 529 , 653 529 
Q 632 529 , 621 530 
Q 611 532 , 611 534 
Q 611 537 , 621 539 
Q 632 540 , 653 540 
Q 662 540 , 669 540 
Q 676 540 , 679 540 
" fill="#F5C000" />
<path d="
M 695 511 
L 695 513 
Q 680 512 , 672 511 
Q 664 511 , 654 511 
Q 633 511 , 623 513 
Q 611 514 , 611 517 
Q 611 521 , 623 523 
Q 633 524 , 654 524 
Q 664 524 , 672 524 
Q 680 523 , 695 522 
L 695 524 
Q 684 525 , 674 526 
Q 664 526 , 653 526 
Q 626 526 , 611 524 
Q 595 521 , 595 518 
Q 595 514 , 611 511 
Q 626 509 , 653 509 
Q 664 509 , 674 509 
Q 685 510 , 695 511 
" fill="#545FFF" />
<path d="
M 595 428 
L 613 428 
L 613 475 
Q 613 489 , 621 494 
Q 628 499 , 645 499 
Q 662 499 , 670 494 
Q 677 489 , 677 475 
L 677 428 
L 695 428 
L 695 477 
Q 695 492 , 682 500 
Q 670 508 , 645 508 
Q 621 508 , 608 500 
Q 595 492 , 595 477 
L 595 428 
" fill="#D21010" />
<path d="
M 800 553 
L 800 553 
Q 785 553 , 777 553 
Q 769 553 , 759 553 
Q 738 553 , 728 553 
Q 716 553 , 716 553 
Q 716 554 , 728 554 
Q 738 554 , 759 554 
Q 769 554 , 777 554 
Q 785 554 , 800 554 
L 800 554 
Q 789 554 , 779 554 
Q 769 554 , 758 554 
Q 731 554 , 716 554 
Q 700 554 , 700 554 
Q 700 553 , 716 553 
Q 731 553 , 758 553 
Q 769 553 , 779 553 
Q 790 553 , 800 553 
" fill="#545FFF" />
<path d="
M 784 552 
L 784 552 
L 755 552 
L 755 552 
L 800 552 
L 800 552 
Q 789 552 , 778 553 
Q 769 553 , 757 553 
Q 731 553 , 715 552 
Q 700 552 , 700 552 
Q 700 551 , 715 551 
Q 731 551 , 757 551 
Q 768 551 , 777 551 
Q 787 551 , 797 551 
L 797 551 
Q 784 551 , 776 551 
Q 767 551 , 758 551 
Q 737 551 , 726 551 
Q 716 551 , 716 552 
Q 716 552 , 726 552 
Q 737 552 , 758 552 
Q 767 552 , 774 552 
Q 781 552 , 784 552 
" fill="#F5C000" />
<path d="
M 700 549 
L 718 549 
L 718 550 
Q 718 550 , 726 550 
Q 733 551 , 750 551 
Q 767 551 , 775 550 
Q 782 550 , 782 550 
L 782 549 
L 800 549 
L 800 550 
Q 800 550 , 787 551 
Q 775 551 , 750 551 
Q 726 551 , 713 551 
Q 700 550 , 700 550 
L 700 549 
" fill="#D21010" />
<path d="
M 750 547 
L 732 548 
L 766 548 
L 750 547 
M 743 547 
L 757 547 
L 800 549 
L 784 549 
L 772 548 
L 728 548 
L 715 549 
L 700 549 
L 743 547 
" fill="#339541" />
<path d="
M 905 551 
L 905 551 
Q 890 551 , 882 551 
Q 874 551 , 864 551 
Q 843 551 , 833 551 
Q 821 552 , 821 552 
Q 821 553 , 833 554 
Q 843 554 , 864 554 
Q 874 554 , 882 554 
Q 890 554 , 905 554 
L 905 554 
Q 894 555 , 884 555 
Q 874 555 , 863 555 
Q 836 555 , 821 554 
Q 805 554 , 805 552 
Q 805 551 , 821 551 
Q 836 550 , 863 550 
Q 874 550 , 884 550 
Q 895 550 , 905 551 
" fill="#545FFF" />
<path d="
M 805 534 
L 823 534 
L 823 543 
Q 823 546 , 831 547 
Q 838 548 , 855 548 
Q 872 548 , 880 547 
Q 887 546 , 887 543 
L 887 534 
L 905 534 
L 905 543 
Q 905 546 , 892 548 
Q 880 549 , 855 549 
Q 831 549 , 818 548 
Q 805 546 , 805 543 
L 805 534 
" fill="#D21010" />
<path d="
M 855 510 
L 837 522 
L 871 522 
L 855 510 
M 848 505 
L 862 505 
L 905 534 
L 889 534 
L 877 525 
L 833 525 
L 820 534 
L 805 534 
L 848 505 
" fill="#339541" />
<path d="
M 889 495 
L 889 477 
L 860 477 
L 860 470 
L 905 470 
L 905 499 
Q 894 502 , 883 503 
Q 874 504 , 862 504 
Q 836 504 , 820 495 
Q 805 487 , 805 471 
Q 805 456 , 820 447 
Q 836 438 , 862 438 
Q 873 438 , 882 439 
Q 892 440 , 902 443 
L 902 452 
Q 889 448 , 881 447 
Q 872 446 , 863 446 
Q 842 446 , 831 452 
Q 821 458 , 821 471 
Q 821 484 , 831 491 
Q 842 497 , 863 497 
Q 872 497 , 879 496 
Q 886 496 , 889 495 
" fill="#F5C000" />
<path d="
M 1010 549 
L 1010 550 
Q 995 549 , 987 549 
Q 979 549 , 969 549 
Q 948 549 , 938 549 
Q 926 550 , 926 551 
Q 926 552 , 938 553 
Q 948 554 , 969 554 
Q 979 554 , 987 554 
Q 995 553 , 1010 553 
L 1010 554 
Q 999 554 , 989 554 
Q 979 554 , 968 554 
Q 941 554 , 926 554 
Q 910 553 , 910 551 
Q 910 550 , 926 549 
Q 941 548 , 968 548 
Q 979 548 , 989 548 
Q 1000 548 , 1010 549 
" fill="#545FFF" />
<path d="
M 960 540 
L 942 544 
L 976 544 
L 960 540 
M 953 538 
L 967 538 
L 1010 548 
L 994 548 
L 982 545 
L 938 545 
L 925 548 
L 910 548 
L 953 538 
" fill="#339541" />
<path d="
M 910 504 
L 928 504 
L 928 524 
Q 928 529 , 936 532 
Q 943 534 , 960 534 
Q 977 534 , 985 532 
Q 992 529 , 992 524 
L 992 504 
L 1010 504 
L 1010 524 
Q 1010 531 , 997 534 
Q 985 537 , 960 537 
Q 936 537 , 923 534 
Q 910 531 , 910 524 
L 910 504 
" fill="#D21010" />
<path d="
M 994 471 
L 994 410 
L 965 410 
L 965 385 
L 1010 385 
L 1010 486 
Q 999 496 , 988 500 
Q 979 503 , 967 504 
Q 941 504 , 925 473 
Q 910 443 , 910 390 
Q 910 338 , 925 307 
Q 941 277 , 967 277 
Q 978 277 , 987 281 
Q 997 285 , 1007 295 
L 1007 324 
Q 994 311 , 986 308 
Q 977 304 , 968 304 
Q 947 304 , 936 325 
Q 926 347 , 926 390 
Q 926 435 , 936 457 
Q 947 478 , 968 478 
Q 977 478 , 984 476 
Q 991 474 , 994 471 
" fill="#F5C000" />
<path d="
M 1115 549 
L 1115 550 
Q 1100 549 , 1092 549 
Q 1084 549 , 1074 549 
Q 1053 549 , 1043 549 
Q 1031 550 , 1031 551 
Q 1031 552 , 1043 553 
Q 1053 554 , 1074 554 
Q 1084 554 , 1092 554 
Q 1100 553 , 1115 553 
L 1115 554 
Q 1104 554 , 1094 554 
Q 1084 554 , 1073 554 
Q 1046 554 , 1031 554 
Q 1015 553 , 1015 551 
Q 1015 550 , 1031 549 
Q 1046 548 , 1073 548 
Q 1084 548 , 1094 548 
Q 1105 548 , 1115 549 
" fill="#545FFF" />
<path d="
M 1099 546 
L 1099 543 
L 1070 543 
L 1070 542 
L 1115 542 
L 1115 547 
Q 1104 547 , 1093 547 
Q 1084 548 , 1072 548 
Q 1046 548 , 1030 546 
Q 1015 545 , 1015 542 
Q 1015 539 , 1030 538 
Q 1046 536 , 1072 536 
Q 1083 536 , 1092 536 
Q 1102 536 , 1112 537 
L 1112 538 
Q 1099 538 , 1091 538 
Q 1082 537 , 1073 537 
Q 1052 537 , 1041 538 
Q 1031 540 , 1031 542 
Q 1031 544 , 1041 545 
Q 1052 546 , 1073 546 
Q 1082 546 , 1089 546 
Q 1096 546 , 1099 546 
" fill="#F5C000" />
<path d="
M 1015 501 
L 1033 501 
L 1033 521 
Q 1033 527 , 1041 529 
Q 1048 532 , 1065 532 
Q 1082 532 , 1090 529 
Q 1097 527 , 1097 521 
L 1097 501 
L 1115 501 
L 1115 522 
Q 1115 529 , 1102 532 
Q 1090 536 , 1065 536 
Q 1041 536 , 1028 532 
Q 1015 529 , 1015 522 
L 1015 501 
" fill="#D21010" />
<path d="
M 1065 342 
L 1047 421 
L 1081 421 
L 1065 342 
M 1058 307 
L 1072 307 
L 1115 500 
L 1099 500 
L 1087 443 
L 1043 443 
L 1030 500 
L 1015 500 
L 1058 307 
" fill="#339541" />
<path d="
M 1220 552 
L 1220 553 
Q 1205 552 , 1197 552 
Q 1189 552 , 1179 552 
Q 1158 552 , 1148 553 
Q 1136 553 , 1136 553 
Q 1136 554 , 1148 554 
Q 1158 554 , 1179 554 
Q 1189 554 , 1197 554 
Q 1205 554 , 1220 554 
L 1220 554 
Q 1209 554 , 1199 554 
Q 1189 554 , 1178 554 
Q 1151 554 , 1136 554 
Q 1120 554 , 1120 553 
Q 1120 553 , 1136 552 
Q 1151 552 , 1178 552 
Q 1189 552 , 1199 552 
Q 1210 552 , 1220 552 
" fill="#545FFF" />
<path d="
M 1120 533 
L 1138 533 
L 1138 544 
Q 1138 547 , 1146 548 
Q 1153 549 , 1170 549 
Q 1187 549 , 1195 548 
Q 1202 547 , 1202 544 
L 1202 533 
L 1220 533 
L 1220 544 
Q 1220 548 , 1207 550 
Q 1195 551 , 1170 551 
Q 1146 551 , 1133 550 
Q 1120 548 , 1120 544 
L 1120 533 
" fill="#D21010" />
<path d="
M 1204 527 
L 1204 518 
L 1175 518 
L 1175 514 
L 1220 514 
L 1220 530 
Q 1209 531 , 1198 532 
Q 1189 532 , 1177 532 
Q 1151 532 , 1135 528 
Q 1120 523 , 1120 515 
Q 1120 507 , 1135 503 
Q 1151 498 , 1177 498 
Q 1188 498 , 1197 499 
Q 1207 499 , 1217 501 
L 1217 505 
Q 1204 503 , 1196 503 
Q 1187 502 , 1178 502 
Q 1157 502 , 1146 505 
Q 1136 509 , 1136 515 
Q 1136 522 , 1146 525 
Q 1157 528 , 1178 528 
Q 1187 528 , 1194 528 
Q 1201 528 , 1204 527 
" fill="#F5C000" />
<path d="
M 1170 441 
L 1152 469 
L 1186 469 
L 1170 441 
M 1163 428 
L 1177 428 
L 1220 498 
L 1204 498 
L 1192 477 
L 1148 477 
L 1135 498 
L 1120 498 
L 1163 428 
" fill="#339541" />
<path d="
M 1225 548 
L 1243 548 
L 1243 552 
Q 1243 553 , 1251 553 
Q 1258 553 , 1275 553 
Q 1292 553 , 1300 553 
Q 1307 553 , 1307 552 
L 1307 548 
L 1325 548 
L 1325 552 
Q 1325 553 , 1312 554 
Q 1300 554 , 1275 554 
Q 1251 554 , 1238 554 
Q 1225 553 , 1225 552 
L 1225 548 
" fill="#D21010" />
<path d="
M 1275 536 
L 1257 542 
L 1291 542 
L 1275 536 
M 1268 533 
L 1282 533 
L 1325 548 
L 1309 548 
L 1297 543 
L 1253 543 
L 1240 548 
L 1225 548 
L 1268 533 
" fill="#339541" />
<path d="
M 1325 505 
L 1325 510 
Q 1310 507 , 1302 506 
Q 1294 505 , 1284 505 
Q 1263 505 , 1253 508 
Q 1241 511 , 1241 517 
Q 1241 523 , 1253 526 
Q 1263 529 , 1284 529 
Q 1294 529 , 1302 528 
Q 1310 527 , 1325 524 
L 1325 529 
Q 1314 531 , 1304 531 
Q 1294 532 , 1283 532 
Q 1256 532 , 1241 528 
Q 1225 524 , 1225 517 
Q 1225 510 , 1241 506 
Q 1256 502 , 1283 502 
Q 1294 502 , 1304 503 
Q 1315 503 , 1325 505 
" fill="#545FFF" />
<path d="
M 1309 490 
L 1309 467 
L 1280 467 
L 1280 458 
L 1325 458 
L 1325 495 
Q 1314 499 , 1303 500 
Q 1294 502 , 1282 502 
Q 1256 502 , 1240 490 
Q 1225 479 , 1225 460 
Q 1225 440 , 1240 429 
Q 1256 418 , 1282 418 
Q 1293 418 , 1302 419 
Q 1312 421 , 1322 425 
L 1322 435 
Q 1309 431 , 1301 429 
Q 1292 428 , 1283 428 
Q 1262 428 , 1251 436 
Q 1241 444 , 1241 460 
Q 1241 476 , 1251 484 
Q 1262 492 , 1283 492 
Q 1292 492 , 1299 492 
Q 1306 491 , 1309 490 
" fill="#F5C000" />
<path d="
M 1430 553 
L 1430 553 
Q 1415 553 , 1407 553 
Q 1399 553 , 1389 553 
Q 1368 553 , 1358 553 
Q 1346 553 , 1346 553 
Q 1346 554 , 1358 554 
Q 1368 554 , 1389 554 
Q 1399 554 , 1407 554 
Q 1415 554 , 1430 554 
L 1430 554 
Q 1419 554 , 1409 554 
Q 1399 554 , 1388 554 
Q 1361 554 , 1346 554 
Q 1330 554 , 1330 554 
Q 1330 553 , 1346 553 
Q 1361 553 , 1388 553 
Q 1399 553 , 1409 553 
Q 1420 553 , 1430 553 
" fill="#545FFF" />
<path d="
M 1414 552 
L 1414 552 
L 1385 552 
L 1385 552 
L 1430 552 
L 1430 552 
Q 1419 552 , 1408 553 
Q 1399 553 , 1387 553 
Q 1361 553 , 1345 552 
Q 1330 552 , 1330 552 
Q 1330 551 , 1345 551 
Q 1361 551 , 1387 551 
Q 1398 551 , 1407 551 
Q 1417 551 , 1427 551 
L 1427 551 
Q 1414 551 , 1406 551 
Q 1397 551 , 1388 551 
Q 1367 551 , 1356 551 
Q 1346 551 , 1346 552 
Q 1346 552 , 1356 552 
Q 1367 552 , 1388 552 
Q 1397 552 , 1404 552 
Q 1411 552 , 1414 552 
" fill="#F5C000" />
<path d="
M 1330 549 
L 1348 549 
L 1348 550 
Q 1348 550 , 1356 550 
Q 1363 551 , 1380 551 
Q 1397 551 , 1405 550 
Q 1412 550 , 1412 550 
L 1412 549 
L 1430 549 
L 1430 550 
Q 1430 550 , 1417 551 
Q 1405 551 , 1380 551 
Q 1356 551 , 1343 551 
Q 1330 550 , 1330 550 
L 1330 549 
" fill="#D21010" />
<path d="
M 1380 547 
L 1362 548 
L 1396 548 
L 1380 547 
M 1373 547 
L 1387 547 
L 1430 549 
L 1414 549 
L 1402 548 
L 1358 548 
L 1345 549 
L 1330 549 
L 1373 547 
" fill="#339541" />
<path d="M 65 55 L 65 555 " stroke="black" stroke-width="1.5"/>
<path d="M 55 555 L 65 555 " stroke="black" stroke-width="4"/>
<text text-anchor="end" x="50" y="555" font-size="50" alignment-baseline="middle">0</text>
<path d="M 55 305 L 65 305 " stroke="black" stroke-width="4"/>
<text text-anchor="end" x="50" y="305" font-size="50" alignment-baseline="middle">1</text>
<path d="M 55 55 L 65 55 " stroke="black" stroke-width="4"/>
<text text-anchor="end" x="50" y="55" font-size="50" alignment-baseline="middle">2</text>
<text text-anchor="middle" x="750" y="50" font-size="50" alignment-baseline="baseline"></text>
G<path d="
M 160 582 
L 126 595 
L 160 608 
L 157 611 
L 123 598 
L 123 623 
L 117 623 
L 117 599 
L 83 611 
L 80 608 
L 114 595 
L 80 582 
L 83 579 
L 117 591 
L 117 567 
L 123 567 
L 123 591 
L 157 579 
L 160 582 
" fill="black" />
<path d="
" fill="black" />
<path d="
M 211 567 
L 238 567 
L 238 623 
L 211 623 
L 211 567 
" fill="black" />
<path d="
" fill="black" />
<path d="
" fill="black" />
<path d="
M 316 567 
L 343 567 
L 343 623 
L 316 623 
L 316 567 
" fill="black" />
<path d="
" fill="black" />
<path d="
" fill="black" />
<path d="
M 421 567 
L 448 567 
L 448 623 
L 421 623 
L 421 567 
" fill="black" />
<path d="
" fill="black" />
<path d="
" fill="black" />
<path d="
M 526 567 
L 553 567 
L 553 623 
L 526 623 
L 526 567 
" fill="black" />
<path d="
" fill="black" />
<path d="
" fill="black" />
<path d="
M 617 567 
L 633 567 
L 633 623 
L 617 623 
L 617 567 
" fill="black" />
<path d="
" fill="black" />
<path d="
M 669 593 
Q 671 594 , 672 597 
Q 673 601 , 673 606 
Q 673 614 , 671 618 
Q 669 623 , 664 623 
Q 662 623 , 661 622 
Q 659 621 , 657 619 
L 657 613 
Q 659 617 , 660 618 
Q 662 619 , 664 619 
Q 667 619 , 669 616 
Q 671 613 , 671 606 
Q 671 601 , 669 598 
Q 668 595 , 664 595 
L 661 595 
L 661 591 
L 665 591 
Q 667 591 , 669 589 
Q 670 586 , 670 582 
Q 670 577 , 669 574 
Q 667 571 , 664 571 
Q 663 571 , 661 572 
Q 660 573 , 658 575 
L 658 571 
Q 660 569 , 662 568 
Q 663 567 , 665 567 
Q 669 567 , 671 571 
Q 672 575 , 672 581 
Q 672 586 , 671 589 
Q 671 592 , 669 593 
" fill="black" />
<path d="
M 678 567 
L 691 567 
L 691 571 
L 680 571 
L 680 588 
Q 681 588 , 682 587 
Q 682 587 , 684 587 
Q 688 587 , 691 592 
Q 693 596 , 693 604 
Q 693 613 , 691 618 
Q 688 623 , 683 623 
Q 682 623 , 680 623 
Q 679 622 , 677 621 
L 677 616 
Q 679 618 , 680 618 
Q 682 619 , 683 619 
Q 687 619 , 689 615 
Q 691 611 , 691 604 
Q 691 598 , 689 594 
Q 687 591 , 683 591 
Q 683 591 , 681 591 
Q 680 592 , 678 594 
L 678 567 
" fill="black" />
<path d="
M 790 582 
L 756 595 
L 790 608 
L 787 611 
L 753 598 
L 753 623 
L 747 623 
L 747 599 
L 713 611 
L 710 608 
L 744 595 
L 710 582 
L 713 579 
L 747 591 
L 747 567 
L 753 567 
L 753 591 
L 787 579 
L 790 582 
" fill="black" />
<path d="
" fill="black" />
<path d="
M 841 567 
L 868 567 
L 868 623 
L 841 623 
L 841 567 
" fill="black" />
<path d="
" fill="black" />
<path d="
" fill="black" />
<path d="
M 946 567 
L 973 567 
L 973 623 
L 946 623 
L 946 567 
" fill="black" />
<path d="
" fill="black" />
<path d="
" fill="black" />
<path d="
M 1051 567 
L 1078 567 
L 1078 623 
L 1051 623 
L 1051 567 
" fill="black" />
<path d="
" fill="black" />
<path d="
" fill="black" />
<path d="
M 1156 567 
L 1183 567 
L 1183 623 
L 1156 623 
L 1156 567 
" fill="black" />
<path d="
" fill="black" />
<path d="
" fill="black" />
<path d="
M 1261 567 
L 1288 567 
L 1288 623 
L 1261 623 
L 1261 567 
" fill="black" />
<path d="
" fill="black" />
<path d="
M 1420 582 
L 1386 595 
L 1420 608 
L 1417 611 
L 1383 598 
L 1383 623 
L 1377 623 
L 1377 599 
L 1343 611 
L 1340 608 
L 1374 595 
L 1340 582 
L 1343 579 
L 1377 591 
L 1377 567 
L 1383 567 
L 1383 591 
L 1417 579 
L 1420 582 
" fill="black" />
</svg>
