<svg xmlns="http://www.w3.org/2000/svg"
viewBox="0 0 1435 635">
<path d="
M 120 553 
L 102 554 
L 136 554 
L 120 553 
M 113 553 
L 127 553 
L 170 554 
L 154 554 
L 142 554 
L 98 554 
L 85 554 
L 70 554 
L 113 553 
" fill="#339541" />
<path d="
M 70 551 
L 88 551 
L 88 552 
Q 88 552 , 96 552 
Q 103 552 , 120 552 
Q 137 552 , 145 552 
Q 152 552 , 152 552 
L 152 551 
L 170 551 
L 170 552 
Q 170 552 , 157 552 
Q 145 552 , 120 552 
Q 96 552 , 83 552 
Q 70 552 , 70 552 
L 70 551 
" fill="#D21010" />
<path d="
M 170 549 
L 170 549 
Q 155 549 , 147 549 
Q 139 549 , 129 549 
Q 108 549 , 98 549 
Q 86 550 , 86 550 
Q 86 550 , 98 550 
Q 108 551 , 129 551 
Q 139 551 , 147 551 
Q 155 551 , 170 550 
L 170 551 
Q 159 551 , 149 551 
Q 139 551 , 128 551 
Q 101 551 , 86 551 
Q 70 550 , 70 550 
Q 70 550 , 86 549 
Q 101 549 , 128 549 
Q 139 549 , 149 549 
Q 160 549 , 170 549 
" fill="#545FFF" />
<path d="
M 154 548 
L 154 547 
L 125 547 
L 125 547 
L 170 547 
L 170 548 
Q 159 548 , 148 548 
Q 139 548 , 127 548 
Q 101 548 , 85 548 
Q 70 548 , 70 547 
Q 70 547 , 85 546 
Q 101 546 , 127 546 
Q 138 546 , 147 546 
Q 157 546 , 167 546 
L 167 546 
Q 154 546 , 146 546 
Q 137 546 , 128 546 
Q 107 546 , 96 546 
Q 86 547 , 86 547 
Q 86 547 , 96 548 
Q 107 548 , 128 548 
Q 137 548 , 144 548 
Q 151 548 , 154 548 
" fill="#F5C000" />
<path d="
M 175 552 
L 184 552 
L 184 553 
Q 184 554 , 188 554 
Q 191 554 , 200 554 
Q 209 554 , 212 554 
Q 216 554 , 216 553 
L 216 552 
L 225 552 
L 225 554 
Q 225 554 , 219 554 
Q 212 555 , 200 555 
Q 188 555 , 181 554 
Q 175 554 , 175 554 
L 175 552 
" fill="#D21010" />
<path d="
M 267 554 
L 267 553 
L 253 553 
L 253 553 
L 275 553 
L 275 554 
Q 270 554 , 264 554 
Q 259 554 , 253 554 
Q 240 554 , 233 554 
Q 225 554 , 225 553 
Q 225 553 , 233 552 
Q 240 552 , 253 552 
Q 259 552 , 264 552 
Q 269 552 , 274 552 
L 274 553 
Q 267 552 , 263 552 
Q 259 552 , 254 552 
Q 244 552 , 238 553 
Q 233 553 , 233 553 
Q 233 554 , 238 554 
Q 244 554 , 254 554 
Q 259 554 , 262 554 
Q 266 554 , 267 554 
" fill="lightgray" />
<path d="
M 175 548 
L 184 548 
L 184 550 
Q 184 550 , 188 550 
Q 191 551 , 200 551 
Q 209 551 , 212 550 
Q 216 550 , 216 550 
L 216 548 
L 225 548 
L 225 550 
Q 225 550 , 219 551 
Q 212 551 , 200 551 
Q 188 551 , 181 551 
Q 175 550 , 175 550 
L 175 548 
" fill="#D21010" />
<path d="
M 250 549 
L 241 550 
L 258 550 
L 250 549 
M 246 548 
L 254 548 
L 275 551 
L 267 551 
L 261 550 
L 239 550 
L 232 551 
L 225 551 
L 246 548 
" fill="lightgray" />
<path d="
M 217 546 
L 217 544 
L 203 544 
L 203 543 
L 225 543 
L 225 547 
Q 220 547 , 214 547 
Q 209 547 , 203 547 
Q 190 547 , 183 546 
Q 175 545 , 175 543 
Q 175 541 , 183 540 
Q 190 539 , 203 539 
Q 209 539 , 214 539 
Q 219 539 , 224 540 
L 224 541 
Q 217 540 , 213 540 
Q 209 540 , 204 540 
Q 194 540 , 188 541 
Q 183 542 , 183 543 
Q 183 545 , 188 546 
Q 194 547 , 204 547 
Q 209 547 , 212 546 
Q 216 546 , 217 546 
" fill="#F5C000" />
<path d="
M 225 539 
L 234 539 
L 234 544 
Q 234 545 , 238 546 
Q 241 547 , 250 547 
Q 259 547 , 262 546 
Q 266 545 , 266 544 
L 266 539 
L 275 539 
L 275 544 
Q 275 546 , 269 547 
Q 262 547 , 250 547 
Q 238 547 , 231 547 
Q 225 546 , 225 544 
L 225 539 
" fill="lightgray" />
<path d="
M 200 528 
L 191 533 
L 208 533 
L 200 528 
M 196 526 
L 204 526 
L 225 538 
L 217 538 
L 211 535 
L 189 535 
L 182 538 
L 175 538 
L 196 526 
" fill="#339541" />
<path d="
M 225 526 
L 234 526 
L 234 533 
Q 234 535 , 238 536 
Q 241 537 , 250 537 
Q 259 537 , 262 536 
Q 266 535 , 266 533 
L 266 526 
L 275 526 
L 275 533 
Q 275 536 , 269 537 
Q 262 538 , 250 538 
Q 238 538 , 231 537 
Q 225 536 , 225 533 
L 225 526 
" fill="lightgray" />
<path d="
M 225 513 
L 225 516 
Q 218 514 , 214 514 
Q 209 513 , 204 513 
Q 194 513 , 189 515 
Q 183 516 , 183 518 
Q 183 521 , 189 523 
Q 194 524 , 204 524 
Q 209 524 , 214 524 
Q 218 523 , 225 522 
L 225 524 
Q 220 525 , 214 525 
Q 210 526 , 204 526 
Q 190 526 , 183 524 
Q 175 522 , 175 519 
Q 175 516 , 183 514 
Q 190 512 , 204 512 
Q 210 512 , 215 512 
Q 220 513 , 225 513 
" fill="#545FFF" />
<path d="
M 267 524 
L 267 520 
L 253 520 
L 253 518 
L 275 518 
L 275 524 
Q 270 525 , 264 525 
Q 259 526 , 253 526 
Q 240 526 , 233 524 
Q 225 522 , 225 519 
Q 225 516 , 233 514 
Q 240 512 , 253 512 
Q 259 512 , 264 512 
Q 269 512 , 274 513 
L 274 515 
Q 267 514 , 263 514 
Q 259 514 , 254 514 
Q 244 514 , 238 515 
Q 233 516 , 233 519 
Q 233 521 , 238 523 
Q 244 524 , 254 524 
Q 259 524 , 262 524 
Q 266 524 , 267 524 
" fill="lightgray" />
<path d="
M 217 508 
L 217 502 
L 203 502 
L 203 500 
L 225 500 
L 225 509 
Q 220 510 , 214 511 
Q 209 511 , 203 511 
Q 190 511 , 183 508 
Q 175 505 , 175 500 
Q 175 495 , 183 492 
Q 190 489 , 203 489 
Q 209 489 , 214 489 
Q 219 490 , 224 491 
L 224 494 
Q 217 492 , 213 492 
Q 209 492 , 204 492 
Q 194 492 , 188 494 
Q 183 496 , 183 500 
Q 183 504 , 188 507 
Q 194 509 , 204 509 
Q 209 509 , 212 508 
Q 216 508 , 217 508 
" fill="#F5C000" />
<path d="
M 275 491 
L 275 495 
Q 268 493 , 264 492 
Q 259 491 , 254 491 
Q 244 491 , 239 494 
Q 233 496 , 233 500 
Q 233 504 , 239 507 
Q 244 509 , 254 509 
Q 259 509 , 264 508 
Q 268 508 , 275 505 
L 275 509 
Q 270 510 , 264 511 
Q 260 511 , 254 511 
Q 240 511 , 233 508 
Q 225 505 , 225 500 
Q 225 495 , 233 492 
Q 240 489 , 254 489 
Q 260 489 , 265 490 
Q 270 490 , 275 491 
" fill="lightgray" />
<path d="
M 330 553 
L 312 554 
L 346 554 
L 330 553 
M 323 553 
L 337 553 
L 380 555 
L 364 555 
L 352 554 
L 308 554 
L 295 555 
L 280 555 
L 323 553 
" fill="#339541" />
<path d="
M 280 539 
L 298 539 
L 298 547 
Q 298 549 , 306 550 
Q 313 551 , 330 551 
Q 347 551 , 355 550 
Q 362 549 , 362 547 
L 362 539 
L 380 539 
L 380 547 
Q 380 550 , 367 551 
Q 355 553 , 330 553 
Q 306 553 , 293 551 
Q 280 550 , 280 547 
L 280 539 
" fill="#D21010" />
<path d="
M 364 535 
L 364 528 
L 335 528 
L 335 525 
L 380 525 
L 380 536 
Q 369 538 , 358 538 
Q 349 538 , 337 538 
Q 311 538 , 295 535 
Q 280 531 , 280 525 
Q 280 519 , 295 516 
Q 311 512 , 337 512 
Q 348 512 , 357 512 
Q 367 513 , 377 514 
L 377 518 
Q 364 516 , 356 516 
Q 347 515 , 338 515 
Q 317 515 , 306 518 
Q 296 520 , 296 525 
Q 296 530 , 306 533 
Q 317 536 , 338 536 
Q 347 536 , 354 535 
Q 361 535 , 364 535 
" fill="#F5C000" />
<path d="
M 380 477 
L 380 483 
Q 365 479 , 357 478 
Q 349 477 , 339 477 
Q 318 477 , 308 481 
Q 296 485 , 296 492 
Q 296 500 , 308 503 
Q 318 507 , 339 507 
Q 349 507 , 357 506 
Q 365 505 , 380 501 
L 380 507 
Q 369 510 , 359 510 
Q 349 511 , 338 511 
Q 311 511 , 296 506 
Q 280 501 , 280 492 
Q 280 483 , 296 478 
Q 311 473 , 338 473 
Q 349 473 , 359 474 
Q 370 475 , 380 477 
" fill="#545FFF" />
<path d="
M 385 549 
L 403 549 
L 403 552 
Q 403 553 , 411 554 
Q 418 554 , 435 554 
Q 452 554 , 460 554 
Q 467 553 , 467 552 
L 467 549 
L 485 549 
L 485 552 
Q 485 553 , 472 554 
Q 460 555 , 435 555 
Q 411 555 , 398 554 
Q 385 553 , 385 552 
L 385 549 
" fill="#D21010" />
<path d="
M 435 544 
L 417 546 
L 451 546 
L 435 544 
M 428 543 
L 442 543 
L 485 549 
L 469 549 
L 457 547 
L 413 547 
L 400 549 
L 385 549 
L 428 543 
" fill="#339541" />
<path d="
M 485 521 
L 485 525 
Q 470 523 , 462 522 
Q 454 522 , 444 522 
Q 423 522 , 413 524 
Q 401 526 , 401 530 
Q 401 535 , 413 537 
Q 423 540 , 444 540 
Q 454 540 , 462 539 
Q 470 538 , 485 536 
L 485 540 
Q 474 541 , 464 542 
Q 454 542 , 443 542 
Q 416 542 , 401 539 
Q 385 536 , 385 531 
Q 385 525 , 401 522 
Q 416 519 , 443 519 
Q 454 519 , 464 520 
Q 475 520 , 485 521 
" fill="#545FFF" />
<path d="
M 469 515 
L 469 508 
L 440 508 
L 440 505 
L 485 505 
L 485 517 
Q 474 518 , 463 518 
Q 454 519 , 442 519 
Q 416 519 , 400 515 
Q 385 512 , 385 506 
Q 385 500 , 400 496 
Q 416 493 , 442 493 
Q 453 493 , 462 493 
Q 472 494 , 482 495 
L 482 498 
Q 469 497 , 461 496 
Q 452 496 , 443 496 
Q 422 496 , 411 498 
Q 401 501 , 401 506 
Q 401 511 , 411 513 
Q 422 516 , 443 516 
Q 452 516 , 459 515 
Q 466 515 , 469 515 
" fill="#F5C000" />
<path d="
M 540 552 
L 522 553 
L 556 553 
L 540 552 
M 533 552 
L 547 552 
L 590 554 
L 574 554 
L 562 553 
L 518 553 
L 505 554 
L 490 554 
L 533 552 
" fill="#339541" />
<path d="
M 590 540 
L 590 542 
Q 575 541 , 567 541 
Q 559 540 , 549 540 
Q 528 540 , 518 542 
Q 506 543 , 506 545 
Q 506 547 , 518 549 
Q 528 550 , 549 550 
Q 559 550 , 567 549 
Q 575 549 , 590 548 
L 590 550 
Q 579 551 , 569 551 
Q 559 551 , 548 551 
Q 521 551 , 506 549 
Q 490 548 , 490 545 
Q 490 542 , 506 541 
Q 521 539 , 548 539 
Q 559 539 , 569 539 
Q 580 540 , 590 540 
" fill="#545FFF" />
<path d="
M 574 535 
L 574 530 
L 545 530 
L 545 527 
L 590 527 
L 590 537 
Q 579 538 , 568 538 
Q 559 538 , 547 538 
Q 521 538 , 505 536 
Q 490 533 , 490 528 
Q 490 523 , 505 520 
Q 521 517 , 547 517 
Q 558 517 , 567 517 
Q 577 518 , 587 519 
L 587 521 
Q 574 520 , 566 520 
Q 557 520 , 548 520 
Q 527 520 , 516 522 
Q 506 524 , 506 528 
Q 506 532 , 516 534 
Q 527 536 , 548 536 
Q 557 536 , 564 536 
Q 571 536 , 574 535 
" fill="#F5C000" />
<path d="
M 490 493 
L 508 493 
L 508 507 
Q 508 511 , 516 513 
Q 523 514 , 540 514 
Q 557 514 , 565 513 
Q 572 511 , 572 507 
L 572 493 
L 590 493 
L 590 508 
Q 590 512 , 577 515 
Q 565 517 , 540 517 
Q 516 517 , 503 515 
Q 490 512 , 490 508 
L 490 493 
" fill="#D21010" />
<path d="
M 645 552 
L 627 553 
L 661 553 
L 645 552 
M 638 551 
L 652 551 
L 695 555 
L 679 555 
L 667 553 
L 623 553 
L 610 555 
L 595 555 
L 638 551 
" fill="#339541" />
<path d="
M 595 537 
L 613 537 
L 613 545 
Q 613 547 , 621 548 
Q 628 549 , 645 549 
Q 662 549 , 670 548 
Q 677 547 , 677 545 
L 677 537 
L 695 537 
L 695 545 
Q 695 548 , 682 549 
Q 670 550 , 645 550 
Q 621 550 , 608 549 
Q 595 548 , 595 545 
L 595 537 
" fill="#D21010" />
<path d="
M 695 515 
L 695 518 
Q 680 516 , 672 515 
Q 664 515 , 654 515 
Q 633 515 , 623 517 
Q 611 519 , 611 524 
Q 611 529 , 623 531 
Q 633 533 , 654 533 
Q 664 533 , 672 533 
Q 680 532 , 695 530 
L 695 534 
Q 684 535 , 674 535 
Q 664 536 , 653 536 
Q 626 536 , 611 533 
Q 595 530 , 595 524 
Q 595 519 , 611 515 
Q 626 512 , 653 512 
Q 664 512 , 674 513 
Q 685 513 , 695 515 
" fill="#545FFF" />
<path d="
M 679 502 
L 679 483 
L 650 483 
L 650 476 
L 695 476 
L 695 506 
Q 684 509 , 673 510 
Q 664 511 , 652 512 
Q 626 512 , 610 502 
Q 595 493 , 595 477 
Q 595 461 , 610 452 
Q 626 443 , 652 443 
Q 663 443 , 672 444 
Q 682 445 , 692 449 
L 692 457 
Q 679 453 , 671 452 
Q 662 451 , 653 451 
Q 632 451 , 621 458 
Q 611 464 , 611 477 
Q 611 491 , 621 497 
Q 632 504 , 653 504 
Q 662 504 , 669 503 
Q 676 503 , 679 502 
" fill="#F5C000" />
<path d="
M 750 553 
L 732 554 
L 766 554 
L 750 553 
M 743 553 
L 757 553 
L 800 554 
L 784 554 
L 772 554 
L 728 554 
L 715 554 
L 700 554 
L 743 553 
" fill="#339541" />
<path d="
M 700 551 
L 718 551 
L 718 552 
Q 718 552 , 726 552 
Q 733 552 , 750 552 
Q 767 552 , 775 552 
Q 782 552 , 782 552 
L 782 551 
L 800 551 
L 800 552 
Q 800 552 , 787 552 
Q 775 552 , 750 552 
Q 726 552 , 713 552 
Q 700 552 , 700 552 
L 700 551 
" fill="#D21010" />
<path d="
M 800 549 
L 800 549 
Q 785 549 , 777 549 
Q 769 549 , 759 549 
Q 738 549 , 728 549 
Q 716 550 , 716 550 
Q 716 550 , 728 550 
Q 738 551 , 759 551 
Q 769 551 , 777 551 
Q 785 551 , 800 550 
L 800 551 
Q 789 551 , 779 551 
Q 769 551 , 758 551 
Q 731 551 , 716 551 
Q 700 550 , 700 550 
Q 700 550 , 716 549 
Q 731 549 , 758 549 
Q 769 549 , 779 549 
Q 790 549 , 800 549 
" fill="#545FFF" />
<path d="
M 784 548 
L 784 547 
L 755 547 
L 755 547 
L 800 547 
L 800 548 
Q 789 548 , 778 548 
Q 769 548 , 757 548 
Q 731 548 , 715 548 
Q 700 548 , 700 547 
Q 700 547 , 715 546 
Q 731 546 , 757 546 
Q 768 546 , 777 546 
Q 787 546 , 797 546 
L 797 546 
Q 784 546 , 776 546 
Q 767 546 , 758 546 
Q 737 546 , 726 546 
Q 716 547 , 716 547 
Q 716 547 , 726 548 
Q 737 548 , 758 548 
Q 767 548 , 774 548 
Q 781 548 , 784 548 
" fill="#F5C000" />
<path d="
M 855 552 
L 837 553 
L 871 553 
L 855 552 
M 848 551 
L 862 551 
L 905 555 
L 889 555 
L 877 554 
L 833 554 
L 820 555 
L 805 555 
L 848 551 
" fill="#339541" />
<path d="
M 889 550 
L 889 549 
L 860 549 
L 860 548 
L 905 548 
L 905 550 
Q 894 551 , 883 551 
Q 874 551 , 862 551 
Q 836 551 , 820 550 
Q 805 549 , 805 548 
Q 805 547 , 820 546 
Q 836 545 , 862 545 
Q 873 545 , 882 545 
Q 892 545 , 902 545 
L 902 546 
Q 889 546 , 881 546 
Q 872 546 , 863 546 
Q 842 546 , 831 546 
Q 821 547 , 821 548 
Q 821 549 , 831 550 
Q 842 550 , 863 550 
Q 872 550 , 879 550 
Q 886 550 , 889 550 
" fill="#F5C000" />
<path d="
M 805 534 
L 823 534 
L 823 540 
Q 823 542 , 831 543 
Q 838 543 , 855 543 
Q 872 543 , 880 543 
Q 887 542 , 887 540 
L 887 534 
L 905 534 
L 905 540 
Q 905 542 , 892 543 
Q 880 544 , 855 544 
Q 831 544 , 818 543 
Q 805 542 , 805 540 
L 805 534 
" fill="#D21010" />
<path d="
M 905 520 
L 905 522 
Q 890 520 , 882 520 
Q 874 520 , 864 520 
Q 843 520 , 833 521 
Q 821 523 , 821 526 
Q 821 529 , 833 530 
Q 843 532 , 864 532 
Q 874 532 , 882 531 
Q 890 531 , 905 529 
L 905 532 
Q 894 533 , 884 533 
Q 874 533 , 863 533 
Q 836 533 , 821 531 
Q 805 529 , 805 526 
Q 805 522 , 821 520 
Q 836 518 , 863 518 
Q 874 518 , 884 518 
Q 895 519 , 905 520 
" fill="#545FFF" />
<path d="
M 910 551 
L 928 551 
L 928 553 
Q 928 554 , 936 554 
Q 943 554 , 960 554 
Q 977 554 , 985 554 
Q 992 554 , 992 553 
L 992 551 
L 1010 551 
L 1010 553 
Q 1010 554 , 997 554 
Q 985 554 , 960 554 
Q 936 554 , 923 554 
Q 910 554 , 910 553 
L 910 551 
" fill="#D21010" />
<path d="
M 960 544 
L 942 547 
L 976 547 
L 960 544 
M 953 543 
L 967 543 
L 1010 550 
L 994 550 
L 982 548 
L 938 548 
L 925 550 
L 910 550 
L 953 543 
" fill="#339541" />
<path d="
M 1010 533 
L 1010 535 
Q 995 534 , 987 533 
Q 979 533 , 969 533 
Q 948 533 , 938 534 
Q 926 535 , 926 537 
Q 926 540 , 938 541 
Q 948 542 , 969 542 
Q 979 542 , 987 541 
Q 995 541 , 1010 540 
L 1010 542 
Q 999 542 , 989 543 
Q 979 543 , 968 543 
Q 941 543 , 926 541 
Q 910 540 , 910 537 
Q 910 535 , 926 533 
Q 941 532 , 968 532 
Q 979 532 , 989 532 
Q 1000 533 , 1010 533 
" fill="#545FFF" />
<path d="
M 994 529 
L 994 525 
L 965 525 
L 965 523 
L 1010 523 
L 1010 530 
Q 999 531 , 988 531 
Q 979 531 , 967 531 
Q 941 531 , 925 529 
Q 910 527 , 910 523 
Q 910 519 , 925 517 
Q 941 515 , 967 515 
Q 978 515 , 987 515 
Q 997 516 , 1007 516 
L 1007 518 
Q 994 517 , 986 517 
Q 977 517 , 968 517 
Q 947 517 , 936 518 
Q 926 520 , 926 523 
Q 926 526 , 936 528 
Q 947 530 , 968 530 
Q 977 530 , 984 529 
Q 991 529 , 994 529 
" fill="#F5C000" />
<path d="
M 1065 552 
L 1047 553 
L 1081 553 
L 1065 552 
M 1058 552 
L 1072 552 
L 1115 554 
L 1099 554 
L 1087 554 
L 1043 554 
L 1030 554 
L 1015 554 
L 1058 552 
" fill="#339541" />
<path d="
M 1015 541 
L 1033 541 
L 1033 547 
Q 1033 549 , 1041 550 
Q 1048 550 , 1065 550 
Q 1082 550 , 1090 550 
Q 1097 549 , 1097 547 
L 1097 541 
L 1115 541 
L 1115 547 
Q 1115 549 , 1102 551 
Q 1090 552 , 1065 552 
Q 1041 552 , 1028 551 
Q 1015 549 , 1015 547 
L 1015 541 
" fill="#D21010" />
<path d="
M 1115 512 
L 1115 517 
Q 1100 514 , 1092 513 
Q 1084 512 , 1074 512 
Q 1053 512 , 1043 516 
Q 1031 519 , 1031 525 
Q 1031 531 , 1043 534 
Q 1053 537 , 1074 537 
Q 1084 537 , 1092 536 
Q 1100 535 , 1115 532 
L 1115 537 
Q 1104 539 , 1094 540 
Q 1084 540 , 1073 540 
Q 1046 540 , 1031 536 
Q 1015 532 , 1015 525 
Q 1015 517 , 1031 513 
Q 1046 509 , 1073 509 
Q 1084 509 , 1094 510 
Q 1105 511 , 1115 512 
" fill="#545FFF" />
<path d="
M 1099 504 
L 1099 496 
L 1070 496 
L 1070 492 
L 1115 492 
L 1115 506 
Q 1104 507 , 1093 508 
Q 1084 508 , 1072 509 
Q 1046 509 , 1030 504 
Q 1015 500 , 1015 493 
Q 1015 485 , 1030 481 
Q 1046 477 , 1072 477 
Q 1083 477 , 1092 478 
Q 1102 478 , 1112 480 
L 1112 484 
Q 1099 482 , 1091 481 
Q 1082 481 , 1073 481 
Q 1052 481 , 1041 484 
Q 1031 487 , 1031 493 
Q 1031 499 , 1041 502 
Q 1052 505 , 1073 505 
Q 1082 505 , 1089 505 
Q 1096 504 , 1099 504 
" fill="#F5C000" />
<path d="
M 1170 550 
L 1152 552 
L 1186 552 
L 1170 550 
M 1163 549 
L 1177 549 
L 1220 554 
L 1204 554 
L 1192 553 
L 1148 553 
L 1135 554 
L 1120 554 
L 1163 549 
" fill="#339541" />
<path d="
M 1120 542 
L 1138 542 
L 1138 546 
Q 1138 547 , 1146 548 
Q 1153 548 , 1170 548 
Q 1187 548 , 1195 548 
Q 1202 547 , 1202 546 
L 1202 542 
L 1220 542 
L 1220 546 
Q 1220 548 , 1207 548 
Q 1195 549 , 1170 549 
Q 1146 549 , 1133 548 
Q 1120 548 , 1120 546 
L 1120 542 
" fill="#D21010" />
<path d="
M 1220 512 
L 1220 517 
Q 1205 514 , 1197 513 
Q 1189 513 , 1179 513 
Q 1158 513 , 1148 516 
Q 1136 519 , 1136 525 
Q 1136 532 , 1148 535 
Q 1158 538 , 1179 538 
Q 1189 538 , 1197 537 
Q 1205 536 , 1220 533 
L 1220 538 
Q 1209 540 , 1199 541 
Q 1189 541 , 1178 541 
Q 1151 541 , 1136 537 
Q 1120 533 , 1120 525 
Q 1120 518 , 1136 513 
Q 1151 509 , 1178 509 
Q 1189 509 , 1199 510 
Q 1210 511 , 1220 512 
" fill="#545FFF" />
<path d="
M 1204 501 
L 1204 485 
L 1175 485 
L 1175 479 
L 1220 479 
L 1220 504 
Q 1209 507 , 1198 508 
Q 1189 509 , 1177 509 
Q 1151 509 , 1135 501 
Q 1120 494 , 1120 480 
Q 1120 467 , 1135 460 
Q 1151 452 , 1177 452 
Q 1188 452 , 1197 453 
Q 1207 454 , 1217 457 
L 1217 464 
Q 1204 461 , 1196 460 
Q 1187 459 , 1178 459 
Q 1157 459 , 1146 464 
Q 1136 469 , 1136 480 
Q 1136 492 , 1146 497 
Q 1157 502 , 1178 502 
Q 1187 502 , 1194 502 
Q 1201 501 , 1204 501 
" fill="#F5C000" />
<path d="
M 1225 552 
L 1234 552 
L 1234 553 
Q 1234 554 , 1238 554 
Q 1241 554 , 1250 554 
Q 1259 554 , 1262 554 
Q 1266 554 , 1266 553 
L 1266 552 
L 1275 552 
L 1275 554 
Q 1275 554 , 1269 554 
Q 1262 555 , 1250 555 
Q 1238 555 , 1231 554 
Q 1225 554 , 1225 554 
L 1225 552 
" fill="lightgray" />
<path d="
M 1317 554 
L 1317 553 
L 1303 553 
L 1303 553 
L 1325 553 
L 1325 554 
Q 1320 554 , 1314 554 
Q 1309 554 , 1303 554 
Q 1290 554 , 1283 554 
Q 1275 554 , 1275 553 
Q 1275 553 , 1283 552 
Q 1290 552 , 1303 552 
Q 1309 552 , 1314 552 
Q 1319 552 , 1324 552 
L 1324 553 
Q 1317 552 , 1313 552 
Q 1309 552 , 1304 552 
Q 1294 552 , 1288 553 
Q 1283 553 , 1283 553 
Q 1283 554 , 1288 554 
Q 1294 554 , 1304 554 
Q 1309 554 , 1312 554 
Q 1316 554 , 1317 554 
" fill="#F5C000" />
<path d="
M 1225 548 
L 1234 548 
L 1234 550 
Q 1234 550 , 1238 550 
Q 1241 551 , 1250 551 
Q 1259 551 , 1262 550 
Q 1266 550 , 1266 550 
L 1266 548 
L 1275 548 
L 1275 550 
Q 1275 550 , 1269 551 
Q 1262 551 , 1250 551 
Q 1238 551 , 1231 551 
Q 1225 550 , 1225 550 
L 1225 548 
" fill="lightgray" />
<path d="
M 1300 549 
L 1291 550 
L 1308 550 
L 1300 549 
M 1296 548 
L 1304 548 
L 1325 551 
L 1317 551 
L 1311 550 
L 1289 550 
L 1282 551 
L 1275 551 
L 1296 548 
" fill="#339541" />
<path d="
M 1267 546 
L 1267 544 
L 1253 544 
L 1253 543 
L 1275 543 
L 1275 547 
Q 1270 547 , 1264 547 
Q 1259 547 , 1253 547 
Q 1240 547 , 1233 546 
Q 1225 545 , 1225 543 
Q 1225 541 , 1233 540 
Q 1240 539 , 1253 539 
Q 1259 539 , 1264 539 
Q 1269 539 , 1274 540 
L 1274 541 
Q 1267 540 , 1263 540 
Q 1259 540 , 1254 540 
Q 1244 540 , 1238 541 
Q 1233 542 , 1233 543 
Q 1233 545 , 1238 546 
Q 1244 547 , 1254 547 
Q 1259 547 , 1262 546 
Q 1266 546 , 1267 546 
" fill="lightgray" />
<path d="
M 1275 539 
L 1284 539 
L 1284 544 
Q 1284 545 , 1288 546 
Q 1291 547 , 1300 547 
Q 1309 547 , 1312 546 
Q 1316 545 , 1316 544 
L 1316 539 
L 1325 539 
L 1325 544 
Q 1325 546 , 1319 547 
Q 1312 547 , 1300 547 
Q 1288 547 , 1281 547 
Q 1275 546 , 1275 544 
L 1275 539 
" fill="#D21010" />
<path d="
M 1250 528 
L 1241 533 
L 1258 533 
L 1250 528 
M 1246 526 
L 1254 526 
L 1275 538 
L 1267 538 
L 1261 535 
L 1239 535 
L 1232 538 
L 1225 538 
L 1246 526 
" fill="lightgray" />
<path d="
M 1275 526 
L 1284 526 
L 1284 533 
Q 1284 535 , 1288 536 
Q 1291 537 , 1300 537 
Q 1309 537 , 1312 536 
Q 1316 535 , 1316 533 
L 1316 526 
L 1325 526 
L 1325 533 
Q 1325 536 , 1319 537 
Q 1312 538 , 1300 538 
Q 1288 538 , 1281 537 
Q 1275 536 , 1275 533 
L 1275 526 
" fill="#D21010" />
<path d="
M 1275 513 
L 1275 516 
Q 1268 514 , 1264 514 
Q 1259 513 , 1254 513 
Q 1244 513 , 1239 515 
Q 1233 516 , 1233 518 
Q 1233 521 , 1239 523 
Q 1244 524 , 1254 524 
Q 1259 524 , 1264 524 
Q 1268 523 , 1275 522 
L 1275 524 
Q 1270 525 , 1264 525 
Q 1260 526 , 1254 526 
Q 1240 526 , 1233 524 
Q 1225 522 , 1225 519 
Q 1225 516 , 1233 514 
Q 1240 512 , 1254 512 
Q 1260 512 , 1265 512 
Q 1270 513 , 1275 513 
" fill="lightgray" />
<path d="
M 1317 524 
L 1317 520 
L 1303 520 
L 1303 518 
L 1325 518 
L 1325 524 
Q 1320 525 , 1314 525 
Q 1309 526 , 1303 526 
Q 1290 526 , 1283 524 
Q 1275 522 , 1275 519 
Q 1275 516 , 1283 514 
Q 1290 512 , 1303 512 
Q 1309 512 , 1314 512 
Q 1319 512 , 1324 513 
L 1324 515 
Q 1317 514 , 1313 514 
Q 1309 514 , 1304 514 
Q 1294 514 , 1288 515 
Q 1283 516 , 1283 519 
Q 1283 521 , 1288 523 
Q 1294 524 , 1304 524 
Q 1309 524 , 1312 524 
Q 1316 524 , 1317 524 
" fill="#F5C000" />
<path d="
M 1267 508 
L 1267 502 
L 1253 502 
L 1253 500 
L 1275 500 
L 1275 509 
Q 1270 510 , 1264 511 
Q 1259 511 , 1253 511 
Q 1240 511 , 1233 508 
Q 1225 505 , 1225 500 
Q 1225 495 , 1233 492 
Q 1240 489 , 1253 489 
Q 1259 489 , 1264 489 
Q 1269 490 , 1274 491 
L 1274 494 
Q 1267 492 , 1263 492 
Q 1259 492 , 1254 492 
Q 1244 492 , 1238 494 
Q 1233 496 , 1233 500 
Q 1233 504 , 1238 507 
Q 1244 509 , 1254 509 
Q 1259 509 , 1262 508 
Q 1266 508 , 1267 508 
" fill="lightgray" />
<path d="
M 1325 491 
L 1325 495 
Q 1318 493 , 1314 492 
Q 1309 491 , 1304 491 
Q 1294 491 , 1289 494 
Q 1283 496 , 1283 500 
Q 1283 504 , 1289 507 
Q 1294 509 , 1304 509 
Q 1309 509 , 1314 508 
Q 1318 508 , 1325 505 
L 1325 509 
Q 1320 510 , 1314 511 
Q 1310 511 , 1304 511 
Q 1290 511 , 1283 508 
Q 1275 505 , 1275 500 
Q 1275 495 , 1283 492 
Q 1290 489 , 1304 489 
Q 1310 489 , 1315 490 
Q 1320 490 , 1325 491 
" fill="#545FFF" />
<path d="
M 1380 553 
L 1362 554 
L 1396 554 
L 1380 553 
M 1373 553 
L 1387 553 
L 1430 554 
L 1414 554 
L 1402 554 
L 1358 554 
L 1345 554 
L 1330 554 
L 1373 553 
" fill="#339541" />
<path d="
M 1330 551 
L 1348 551 
L 1348 552 
Q 1348 552 , 1356 552 
Q 1363 552 , 1380 552 
Q 1397 552 , 1405 552 
Q 1412 552 , 1412 552 
L 1412 551 
L 1430 551 
L 1430 552 
Q 1430 552 , 1417 552 
Q 1405 552 , 1380 552 
Q 1356 552 , 1343 552 
Q 1330 552 , 1330 552 
L 1330 551 
" fill="#D21010" />
<path d="
M 1430 549 
L 1430 549 
Q 1415 549 , 1407 549 
Q 1399 549 , 1389 549 
Q 1368 549 , 1358 549 
Q 1346 550 , 1346 550 
Q 1346 550 , 1358 550 
Q 1368 551 , 1389 551 
Q 1399 551 , 1407 551 
Q 1415 551 , 1430 550 
L 1430 551 
Q 1419 551 , 1409 551 
Q 1399 551 , 1388 551 
Q 1361 551 , 1346 551 
Q 1330 550 , 1330 550 
Q 1330 550 , 1346 549 
Q 1361 549 , 1388 549 
Q 1399 549 , 1409 549 
Q 1420 549 , 1430 549 
" fill="#545FFF" />
<path d="
M 1414 548 
L 1414 547 
L 1385 547 
L 1385 547 
L 1430 547 
L 1430 548 
Q 1419 548 , 1408 548 
Q 1399 548 , 1387 548 
Q 1361 548 , 1345 548 
Q 1330 548 , 1330 547 
Q 1330 547 , 1345 546 
Q 1361 546 , 1387 546 
Q 1398 546 , 1407 546 
Q 1417 546 , 1427 546 
L 1427 546 
Q 1414 546 , 1406 546 
Q 1397 546 , 1388 546 
Q 1367 546 , 1356 546 
Q 1346 547 , 1346 547 
Q 1346 547 , 1356 548 
Q 1367 548 , 1388 548 
Q 1397 548 , 1404 548 
Q 1411 548 , 1414 548 
" fill="#F5C000" />
<path d="M 65 168 L 65 555 " stroke="black" stroke-width="1.5"/>
<path d="M 55 555 L 65 555 " stroke="black" stroke-width="4"/>
<text text-anchor="end" x="50" y="555" font-size="50" alignment-baseline="middle">0</text>
<path d="M 55 362 L 65 362 " stroke="black" stroke-width="4"/>
<text text-anchor="end" x="50" y="362" font-size="50" alignment-baseline="middle">1</text>
<path d="M 55 168 L 65 168 " stroke="black" stroke-width="4"/>
<text text-anchor="end" x="50" y="168" font-size="50" alignment-baseline="middle">2</text>
<text text-anchor="middle" x="750" y="50" font-size="50" alignment-baseline="baseline"></text>
G<path d="
M 160 582 
L 126 595 
L 160 608 
L 157 611 
L 123 598 
L 123 623 
L 117 623 
L 117 599 
L 83 611 
L 80 608 
L 114 595 
L 80 582 
L 83 579 
L 117 591 
L 117 567 
L 123 567 
L 123 591 
L 157 579 
L 160 582 
" fill="black" />
<path d="
M 265 567 
Q 236 574 , 223 581 
Q 210 588 , 210 595 
Q 210 602 , 223 609 
Q 236 616 , 265 623 
L 241 623 
Q 213 616 , 199 609 
Q 185 602 , 185 595 
Q 185 588 , 199 581 
Q 213 574 , 241 567 
L 265 567 
" fill="black" />
<path d="
" fill="black" />
<path d="
M 316 567 
L 343 567 
L 343 623 
L 316 623 
L 316 567 
" fill="black" />
<path d="
" fill="black" />
<path d="
" fill="black" />
<path d="
M 421 567 
L 448 567 
L 448 623 
L 421 623 
L 421 567 
" fill="black" />
<path d="
" fill="black" />
<path d="
" fill="black" />
<path d="
M 526 567 
L 553 567 
L 553 623 
L 526 623 
L 526 567 
" fill="black" />
<path d="
" fill="black" />
<path d="
" fill="black" />
<path d="
M 622 567 
L 642 567 
L 642 623 
L 622 623 
L 622 567 
" fill="black" />
<path d="
" fill="black" />
<path d="
M 672 567 
L 692 567 
L 692 571 
L 680 623 
L 677 623 
L 689 571 
L 672 571 
L 672 567 
" fill="black" />
<path d="
M 790 582 
L 756 595 
L 790 608 
L 787 611 
L 753 598 
L 753 623 
L 747 623 
L 747 599 
L 713 611 
L 710 608 
L 744 595 
L 710 582 
L 713 579 
L 747 591 
L 747 567 
L 753 567 
L 753 591 
L 787 579 
L 790 582 
" fill="black" />
<path d="
" fill="black" />
<path d="
M 841 567 
L 868 567 
L 868 623 
L 841 623 
L 841 567 
" fill="black" />
<path d="
" fill="black" />
<path d="
" fill="black" />
<path d="
M 946 567 
L 973 567 
L 973 623 
L 946 623 
L 946 567 
" fill="black" />
<path d="
" fill="black" />
<path d="
" fill="black" />
<path d="
M 1051 567 
L 1078 567 
L 1078 623 
L 1051 623 
L 1051 567 
" fill="black" />
<path d="
" fill="black" />
<path d="
" fill="black" />
<path d="
M 1156 567 
L 1183 567 
L 1183 623 
L 1156 623 
L 1156 567 
" fill="black" />
<path d="
" fill="black" />
<path d="
M 1235 567 
L 1259 567 
Q 1287 574 , 1301 581 
Q 1315 588 , 1315 595 
Q 1315 602 , 1301 609 
Q 1287 616 , 1259 623 
L 1235 623 
Q 1264 616 , 1277 609 
Q 1290 602 , 1290 595 
Q 1290 588 , 1277 581 
Q 1264 574 , 1235 567 
" fill="black" />
<path d="
M 1420 582 
L 1386 595 
L 1420 608 
L 1417 611 
L 1383 598 
L 1383 623 
L 1377 623 
L 1377 599 
L 1343 611 
L 1340 608 
L 1374 595 
L 1340 582 
L 1343 579 
L 1377 591 
L 1377 567 
L 1383 567 
L 1383 591 
L 1417 579 
L 1420 582 
" fill="black" />
</svg>
