<svg xmlns="http://www.w3.org/2000/svg"
viewBox="0 0 1435 635">
<path d="
M 120 553 
L 102 554 
L 136 554 
L 120 553 
M 113 553 
L 127 553 
L 170 554 
L 154 554 
L 142 554 
L 98 554 
L 85 554 
L 70 554 
L 113 553 
" fill="#339541" />
<path d="
M 70 551 
L 88 551 
L 88 552 
Q 88 552 , 96 552 
Q 103 552 , 120 552 
Q 137 552 , 145 552 
Q 152 552 , 152 552 
L 152 551 
L 170 551 
L 170 552 
Q 170 552 , 157 552 
Q 145 552 , 120 552 
Q 96 552 , 83 552 
Q 70 552 , 70 552 
L 70 551 
" fill="#D21010" />
<path d="
M 170 549 
L 170 549 
Q 155 549 , 147 549 
Q 139 549 , 129 549 
Q 108 549 , 98 549 
Q 86 550 , 86 550 
Q 86 550 , 98 550 
Q 108 551 , 129 551 
Q 139 551 , 147 551 
Q 155 550 , 170 550 
L 170 551 
Q 159 551 , 149 551 
Q 139 551 , 128 551 
Q 101 551 , 86 551 
Q 70 550 , 70 550 
Q 70 549 , 86 549 
Q 101 549 , 128 549 
Q 139 549 , 149 549 
Q 160 549 , 170 549 
" fill="#545FFF" />
<path d="
M 154 549 
L 154 548 
L 125 548 
L 125 548 
L 170 548 
L 170 549 
Q 159 549 , 148 549 
Q 139 549 , 127 549 
Q 101 549 , 85 549 
Q 70 548 , 70 548 
Q 70 548 , 85 547 
Q 101 547 , 127 547 
Q 138 547 , 147 547 
Q 157 547 , 167 547 
L 167 547 
Q 154 547 , 146 547 
Q 137 547 , 128 547 
Q 107 547 , 96 547 
Q 86 548 , 86 548 
Q 86 548 , 96 549 
Q 107 549 , 128 549 
Q 137 549 , 144 549 
Q 151 549 , 154 549 
" fill="#F5C000" />
<path d="
M 200 552 
L 191 553 
L 208 553 
L 200 552 
M 196 551 
L 204 551 
L 225 554 
L 217 554 
L 211 553 
L 189 553 
L 182 554 
L 175 554 
L 196 551 
" fill="#339541" />
<path d="
M 225 551 
L 234 551 
L 234 553 
Q 234 553 , 238 554 
Q 241 554 , 250 554 
Q 259 554 , 262 554 
Q 266 553 , 266 553 
L 266 551 
L 275 551 
L 275 553 
Q 275 554 , 269 554 
Q 262 554 , 250 554 
Q 238 554 , 231 554 
Q 225 554 , 225 553 
L 225 551 
" fill="lightgray" />
<path d="
M 175 545 
L 184 545 
L 184 548 
Q 184 549 , 188 550 
Q 191 550 , 200 550 
Q 209 550 , 212 550 
Q 216 549 , 216 548 
L 216 545 
L 225 545 
L 225 548 
Q 225 549 , 219 550 
Q 212 551 , 200 551 
Q 188 551 , 181 550 
Q 175 549 , 175 548 
L 175 545 
" fill="#D21010" />
<path d="
M 267 550 
L 267 548 
L 253 548 
L 253 548 
L 275 548 
L 275 550 
Q 270 550 , 264 551 
Q 259 551 , 253 551 
Q 240 551 , 233 550 
Q 225 549 , 225 548 
Q 225 546 , 233 546 
Q 240 545 , 253 545 
Q 259 545 , 264 545 
Q 269 545 , 274 545 
L 274 546 
Q 267 546 , 263 546 
Q 259 546 , 254 546 
Q 244 546 , 238 546 
Q 233 547 , 233 548 
Q 233 549 , 238 549 
Q 244 550 , 254 550 
Q 259 550 , 262 550 
Q 266 550 , 267 550 
" fill="lightgray" />
<path d="
M 175 538 
L 184 538 
L 184 542 
Q 184 543 , 188 543 
Q 191 544 , 200 544 
Q 209 544 , 212 543 
Q 216 543 , 216 542 
L 216 538 
L 225 538 
L 225 542 
Q 225 543 , 219 544 
Q 212 545 , 200 545 
Q 188 545 , 181 544 
Q 175 543 , 175 542 
L 175 538 
" fill="#D21010" />
<path d="
M 250 539 
L 241 542 
L 258 542 
L 250 539 
M 246 538 
L 254 538 
L 275 545 
L 267 545 
L 261 543 
L 239 543 
L 232 545 
L 225 545 
L 246 538 
" fill="lightgray" />
<path d="
M 217 536 
L 217 533 
L 203 533 
L 203 532 
L 225 532 
L 225 536 
Q 220 537 , 214 537 
Q 209 537 , 203 537 
Q 190 537 , 183 536 
Q 175 535 , 175 533 
Q 175 530 , 183 529 
Q 190 528 , 203 528 
Q 209 528 , 214 528 
Q 219 528 , 224 529 
L 224 530 
Q 217 529 , 213 529 
Q 209 529 , 204 529 
Q 194 529 , 188 530 
Q 183 531 , 183 533 
Q 183 534 , 188 535 
Q 194 536 , 204 536 
Q 209 536 , 212 536 
Q 216 536 , 217 536 
" fill="#F5C000" />
<path d="
M 225 528 
L 234 528 
L 234 533 
Q 234 535 , 238 536 
Q 241 536 , 250 536 
Q 259 536 , 262 536 
Q 266 535 , 266 533 
L 266 528 
L 275 528 
L 275 534 
Q 275 535 , 269 536 
Q 262 537 , 250 537 
Q 238 537 , 231 536 
Q 225 535 , 225 534 
L 225 528 
" fill="lightgray" />
<path d="
M 225 515 
L 225 518 
Q 218 516 , 214 516 
Q 209 516 , 204 516 
Q 194 516 , 189 517 
Q 183 518 , 183 520 
Q 183 523 , 189 525 
Q 194 526 , 204 526 
Q 209 526 , 214 526 
Q 218 525 , 225 524 
L 225 526 
Q 220 527 , 214 527 
Q 210 528 , 204 528 
Q 190 528 , 183 526 
Q 175 524 , 175 521 
Q 175 518 , 183 516 
Q 190 514 , 204 514 
Q 210 514 , 215 514 
Q 220 515 , 225 515 
" fill="#545FFF" />
<path d="
M 267 526 
L 267 522 
L 253 522 
L 253 521 
L 275 521 
L 275 527 
Q 270 527 , 264 527 
Q 259 528 , 253 528 
Q 240 528 , 233 526 
Q 225 524 , 225 521 
Q 225 518 , 233 516 
Q 240 514 , 253 514 
Q 259 514 , 264 514 
Q 269 514 , 274 515 
L 274 517 
Q 267 516 , 263 516 
Q 259 516 , 254 516 
Q 244 516 , 238 517 
Q 233 518 , 233 521 
Q 233 523 , 238 525 
Q 244 526 , 254 526 
Q 259 526 , 262 526 
Q 266 526 , 267 526 
" fill="lightgray" />
<path d="
M 217 509 
L 217 502 
L 203 502 
L 203 499 
L 225 499 
L 225 511 
Q 220 512 , 214 513 
Q 209 513 , 203 513 
Q 190 513 , 183 510 
Q 175 506 , 175 500 
Q 175 493 , 183 490 
Q 190 486 , 203 486 
Q 209 486 , 214 486 
Q 219 487 , 224 488 
L 224 492 
Q 217 490 , 213 490 
Q 209 489 , 204 489 
Q 194 489 , 188 492 
Q 183 494 , 183 500 
Q 183 505 , 188 508 
Q 194 510 , 204 510 
Q 209 510 , 212 510 
Q 216 510 , 217 509 
" fill="#F5C000" />
<path d="
M 275 489 
L 275 493 
Q 268 490 , 264 490 
Q 259 489 , 254 489 
Q 244 489 , 239 492 
Q 233 494 , 233 499 
Q 233 505 , 239 508 
Q 244 510 , 254 510 
Q 259 510 , 264 510 
Q 268 509 , 275 506 
L 275 511 
Q 270 512 , 264 513 
Q 260 513 , 254 513 
Q 240 513 , 233 510 
Q 225 506 , 225 500 
Q 225 493 , 233 490 
Q 240 486 , 254 486 
Q 260 486 , 265 487 
Q 270 487 , 275 489 
" fill="lightgray" />
<path d="
M 330 553 
L 312 554 
L 346 554 
L 330 553 
M 323 553 
L 337 553 
L 380 555 
L 364 555 
L 352 554 
L 308 554 
L 295 555 
L 280 555 
L 323 553 
" fill="#339541" />
<path d="
M 280 539 
L 298 539 
L 298 547 
Q 298 549 , 306 550 
Q 313 551 , 330 551 
Q 347 551 , 355 550 
Q 362 549 , 362 547 
L 362 539 
L 380 539 
L 380 547 
Q 380 550 , 367 551 
Q 355 553 , 330 553 
Q 306 553 , 293 551 
Q 280 550 , 280 547 
L 280 539 
" fill="#D21010" />
<path d="
M 380 512 
L 380 517 
Q 365 514 , 357 513 
Q 349 512 , 339 512 
Q 318 512 , 308 515 
Q 296 518 , 296 524 
Q 296 530 , 308 533 
Q 318 536 , 339 536 
Q 349 536 , 357 535 
Q 365 534 , 380 531 
L 380 536 
Q 369 537 , 359 538 
Q 349 539 , 338 539 
Q 311 539 , 296 535 
Q 280 531 , 280 524 
Q 280 517 , 296 513 
Q 311 509 , 338 509 
Q 349 509 , 359 510 
Q 370 510 , 380 512 
" fill="#545FFF" />
<path d="
M 364 502 
L 364 489 
L 335 489 
L 335 484 
L 380 484 
L 380 505 
Q 369 507 , 358 508 
Q 349 508 , 337 508 
Q 311 508 , 295 502 
Q 280 496 , 280 485 
Q 280 474 , 295 467 
Q 311 461 , 337 461 
Q 348 461 , 357 462 
Q 367 463 , 377 465 
L 377 471 
Q 364 468 , 356 467 
Q 347 467 , 338 467 
Q 317 467 , 306 471 
Q 296 476 , 296 485 
Q 296 494 , 306 499 
Q 317 503 , 338 503 
Q 347 503 , 354 503 
Q 361 502 , 364 502 
" fill="#F5C000" />
<path d="
M 427 554 
L 427 554 
L 413 554 
L 413 554 
L 435 554 
L 435 554 
Q 430 554 , 424 554 
Q 419 555 , 413 555 
Q 400 555 , 393 554 
Q 385 554 , 385 554 
Q 385 553 , 393 553 
Q 400 553 , 413 553 
Q 419 553 , 424 553 
Q 429 553 , 434 553 
L 434 553 
Q 427 553 , 423 553 
Q 419 553 , 414 553 
Q 404 553 , 398 553 
Q 393 553 , 393 554 
Q 393 554 , 398 554 
Q 404 554 , 414 554 
Q 419 554 , 422 554 
Q 426 554 , 427 554 
" fill="#F5C000" />
<path d="
M 435 553 
L 444 553 
L 444 554 
Q 444 554 , 448 554 
Q 451 554 , 460 554 
Q 469 554 , 472 554 
Q 476 554 , 476 554 
L 476 553 
L 485 553 
L 485 554 
Q 485 554 , 479 554 
Q 472 555 , 460 555 
Q 448 555 , 441 554 
Q 435 554 , 435 554 
L 435 553 
" fill="lightgray" />
<path d="
M 410 550 
L 401 551 
L 418 551 
L 410 550 
M 406 549 
L 414 549 
L 435 553 
L 427 553 
L 421 552 
L 399 552 
L 392 553 
L 385 553 
L 406 549 
" fill="#339541" />
<path d="
M 435 549 
L 444 549 
L 444 551 
Q 444 552 , 448 552 
Q 451 552 , 460 552 
Q 469 552 , 472 552 
Q 476 552 , 476 551 
L 476 549 
L 485 549 
L 485 551 
Q 485 552 , 479 552 
Q 472 553 , 460 553 
Q 448 553 , 441 552 
Q 435 552 , 435 551 
L 435 549 
" fill="lightgray" />
<path d="
M 385 537 
L 394 537 
L 394 544 
Q 394 546 , 398 547 
Q 401 548 , 410 548 
Q 419 548 , 422 547 
Q 426 546 , 426 544 
L 426 537 
L 435 537 
L 435 544 
Q 435 546 , 429 548 
Q 422 549 , 410 549 
Q 398 549 , 391 548 
Q 385 546 , 385 544 
L 385 537 
" fill="#D21010" />
<path d="
M 460 539 
L 451 544 
L 468 544 
L 460 539 
M 456 537 
L 464 537 
L 485 549 
L 477 549 
L 471 545 
L 449 545 
L 442 549 
L 435 549 
L 456 537 
" fill="lightgray" />
<path d="
M 385 524 
L 394 524 
L 394 531 
Q 394 533 , 398 534 
Q 401 535 , 410 535 
Q 419 535 , 422 534 
Q 426 533 , 426 531 
L 426 524 
L 435 524 
L 435 531 
Q 435 534 , 429 535 
Q 422 536 , 410 536 
Q 398 536 , 391 535 
Q 385 534 , 385 531 
L 385 524 
" fill="#D21010" />
<path d="
M 477 535 
L 477 531 
L 463 531 
L 463 530 
L 485 530 
L 485 535 
Q 480 536 , 474 536 
Q 469 536 , 463 536 
Q 450 536 , 443 535 
Q 435 533 , 435 530 
Q 435 527 , 443 526 
Q 450 524 , 463 524 
Q 469 524 , 474 524 
Q 479 524 , 484 525 
L 484 527 
Q 477 526 , 473 526 
Q 469 525 , 464 525 
Q 454 525 , 448 527 
Q 443 528 , 443 530 
Q 443 533 , 448 534 
Q 454 535 , 464 535 
Q 469 535 , 472 535 
Q 476 535 , 477 535 
" fill="lightgray" />
<path d="
M 435 481 
L 435 488 
Q 428 484 , 424 482 
Q 419 481 , 414 481 
Q 404 481 , 399 486 
Q 393 491 , 393 500 
Q 393 509 , 399 514 
Q 404 518 , 414 518 
Q 419 518 , 424 517 
Q 428 516 , 435 511 
L 435 518 
Q 430 521 , 424 522 
Q 420 523 , 414 523 
Q 400 523 , 393 517 
Q 385 511 , 385 500 
Q 385 489 , 393 482 
Q 400 476 , 414 476 
Q 420 476 , 425 477 
Q 430 478 , 435 481 
" fill="#545FFF" />
<path d="
M 477 516 
L 477 504 
L 463 504 
L 463 499 
L 485 499 
L 485 520 
Q 480 522 , 474 522 
Q 469 523 , 463 523 
Q 450 523 , 443 517 
Q 435 511 , 435 500 
Q 435 489 , 443 482 
Q 450 476 , 463 476 
Q 469 476 , 474 477 
Q 479 478 , 484 480 
L 484 486 
Q 477 483 , 473 482 
Q 469 482 , 464 482 
Q 454 482 , 448 486 
Q 443 491 , 443 500 
Q 443 509 , 448 514 
Q 454 518 , 464 518 
Q 469 518 , 472 518 
Q 476 517 , 477 516 
" fill="lightgray" />
<path d="
M 427 467 
L 427 452 
L 413 452 
L 413 446 
L 435 446 
L 435 471 
Q 430 473 , 424 474 
Q 419 475 , 413 475 
Q 400 475 , 393 468 
Q 385 460 , 385 447 
Q 385 434 , 393 427 
Q 400 419 , 413 419 
Q 419 419 , 424 420 
Q 429 421 , 434 424 
L 434 431 
Q 427 428 , 423 427 
Q 419 426 , 414 426 
Q 404 426 , 398 431 
Q 393 436 , 393 447 
Q 393 458 , 398 464 
Q 404 469 , 414 469 
Q 419 469 , 422 468 
Q 426 468 , 427 467 
" fill="#F5C000" />
<path d="
M 485 425 
L 485 434 
Q 478 428 , 474 427 
Q 469 425 , 464 425 
Q 454 425 , 449 431 
Q 443 436 , 443 447 
Q 443 458 , 449 464 
Q 454 469 , 464 469 
Q 469 469 , 474 468 
Q 478 466 , 485 461 
L 485 469 
Q 480 473 , 474 474 
Q 470 475 , 464 475 
Q 450 475 , 443 468 
Q 435 460 , 435 447 
Q 435 434 , 443 427 
Q 450 419 , 464 419 
Q 470 419 , 475 420 
Q 480 422 , 485 425 
" fill="lightgray" />
<path d="
M 540 552 
L 522 553 
L 556 553 
L 540 552 
M 533 551 
L 547 551 
L 590 555 
L 574 555 
L 562 554 
L 518 554 
L 505 555 
L 490 555 
L 533 551 
" fill="#339541" />
<path d="
M 490 546 
L 508 546 
L 508 549 
Q 508 550 , 516 550 
Q 523 550 , 540 550 
Q 557 550 , 565 550 
Q 572 550 , 572 549 
L 572 546 
L 590 546 
L 590 549 
Q 590 550 , 577 550 
Q 565 551 , 540 551 
Q 516 551 , 503 550 
Q 490 550 , 490 549 
L 490 546 
" fill="#D21010" />
<path d="
M 574 544 
L 574 542 
L 545 542 
L 545 541 
L 590 541 
L 590 545 
Q 579 545 , 568 545 
Q 559 546 , 547 546 
Q 521 546 , 505 544 
Q 490 543 , 490 541 
Q 490 539 , 505 537 
Q 521 536 , 547 536 
Q 558 536 , 567 536 
Q 577 536 , 587 537 
L 587 538 
Q 574 537 , 566 537 
Q 557 537 , 548 537 
Q 527 537 , 516 538 
Q 506 539 , 506 541 
Q 506 543 , 516 544 
Q 527 545 , 548 545 
Q 557 545 , 564 544 
Q 571 544 , 574 544 
" fill="#F5C000" />
<path d="
M 590 524 
L 590 526 
Q 575 525 , 567 525 
Q 559 524 , 549 524 
Q 528 524 , 518 526 
Q 506 527 , 506 529 
Q 506 532 , 518 533 
Q 528 535 , 549 535 
Q 559 535 , 567 534 
Q 575 534 , 590 533 
L 590 535 
Q 579 535 , 569 536 
Q 559 536 , 548 536 
Q 521 536 , 506 534 
Q 490 532 , 490 530 
Q 490 527 , 506 525 
Q 521 523 , 548 523 
Q 559 523 , 569 523 
Q 580 524 , 590 524 
" fill="#545FFF" />
<path d="
M 645 550 
L 627 552 
L 661 552 
L 645 550 
M 638 549 
L 652 549 
L 695 554 
L 679 554 
L 667 553 
L 623 553 
L 610 554 
L 595 554 
L 638 549 
" fill="#339541" />
<path d="
M 595 542 
L 613 542 
L 613 546 
Q 613 547 , 621 547 
Q 628 548 , 645 548 
Q 662 548 , 670 547 
Q 677 547 , 677 546 
L 677 542 
L 695 542 
L 695 546 
Q 695 547 , 682 548 
Q 670 548 , 645 548 
Q 621 548 , 608 548 
Q 595 547 , 595 546 
L 595 542 
" fill="#D21010" />
<path d="
M 679 538 
L 679 531 
L 650 531 
L 650 529 
L 695 529 
L 695 539 
Q 684 541 , 673 541 
Q 664 541 , 652 541 
Q 626 541 , 610 538 
Q 595 535 , 595 529 
Q 595 523 , 610 520 
Q 626 517 , 652 517 
Q 663 517 , 672 517 
Q 682 518 , 692 519 
L 692 522 
Q 679 521 , 671 520 
Q 662 520 , 653 520 
Q 632 520 , 621 522 
Q 611 524 , 611 529 
Q 611 534 , 621 536 
Q 632 539 , 653 539 
Q 662 539 , 669 538 
Q 676 538 , 679 538 
" fill="#F5C000" />
<path d="
M 695 487 
L 695 492 
Q 680 489 , 672 488 
Q 664 488 , 654 488 
Q 633 488 , 623 491 
Q 611 494 , 611 500 
Q 611 506 , 623 510 
Q 633 513 , 654 513 
Q 664 513 , 672 512 
Q 680 511 , 695 508 
L 695 513 
Q 684 515 , 674 515 
Q 664 516 , 653 516 
Q 626 516 , 611 512 
Q 595 507 , 595 500 
Q 595 493 , 611 488 
Q 626 484 , 653 484 
Q 664 484 , 674 485 
Q 685 486 , 695 487 
" fill="#545FFF" />
<path d="
M 750 553 
L 732 554 
L 766 554 
L 750 553 
M 743 553 
L 757 553 
L 800 554 
L 784 554 
L 772 554 
L 728 554 
L 715 554 
L 700 554 
L 743 553 
" fill="#339541" />
<path d="
M 700 551 
L 718 551 
L 718 552 
Q 718 552 , 726 552 
Q 733 552 , 750 552 
Q 767 552 , 775 552 
Q 782 552 , 782 552 
L 782 551 
L 800 551 
L 800 552 
Q 800 552 , 787 552 
Q 775 552 , 750 552 
Q 726 552 , 713 552 
Q 700 552 , 700 552 
L 700 551 
" fill="#D21010" />
<path d="
M 800 549 
L 800 549 
Q 785 549 , 777 549 
Q 769 549 , 759 549 
Q 738 549 , 728 549 
Q 716 550 , 716 550 
Q 716 550 , 728 550 
Q 738 551 , 759 551 
Q 769 551 , 777 551 
Q 785 550 , 800 550 
L 800 551 
Q 789 551 , 779 551 
Q 769 551 , 758 551 
Q 731 551 , 716 551 
Q 700 550 , 700 550 
Q 700 549 , 716 549 
Q 731 549 , 758 549 
Q 769 549 , 779 549 
Q 790 549 , 800 549 
" fill="#545FFF" />
<path d="
M 784 549 
L 784 548 
L 755 548 
L 755 548 
L 800 548 
L 800 549 
Q 789 549 , 778 549 
Q 769 549 , 757 549 
Q 731 549 , 715 549 
Q 700 548 , 700 548 
Q 700 548 , 715 547 
Q 731 547 , 757 547 
Q 768 547 , 777 547 
Q 787 547 , 797 547 
L 797 547 
Q 784 547 , 776 547 
Q 767 547 , 758 547 
Q 737 547 , 726 547 
Q 716 548 , 716 548 
Q 716 548 , 726 549 
Q 737 549 , 758 549 
Q 767 549 , 774 549 
Q 781 549 , 784 549 
" fill="#F5C000" />
<path d="
M 855 552 
L 837 553 
L 871 553 
L 855 552 
M 848 552 
L 862 552 
L 905 554 
L 889 554 
L 877 554 
L 833 554 
L 820 554 
L 805 554 
L 848 552 
" fill="#339541" />
<path d="
M 805 539 
L 823 539 
L 823 546 
Q 823 548 , 831 549 
Q 838 550 , 855 550 
Q 872 550 , 880 549 
Q 887 548 , 887 546 
L 887 539 
L 905 539 
L 905 546 
Q 905 549 , 892 550 
Q 880 551 , 855 551 
Q 831 551 , 818 550 
Q 805 549 , 805 546 
L 805 539 
" fill="#D21010" />
<path d="
M 889 535 
L 889 528 
L 860 528 
L 860 526 
L 905 526 
L 905 536 
Q 894 537 , 883 538 
Q 874 538 , 862 538 
Q 836 538 , 820 535 
Q 805 532 , 805 526 
Q 805 520 , 820 517 
Q 836 514 , 862 514 
Q 873 514 , 882 514 
Q 892 515 , 902 516 
L 902 519 
Q 889 518 , 881 517 
Q 872 517 , 863 517 
Q 842 517 , 831 519 
Q 821 521 , 821 526 
Q 821 531 , 831 533 
Q 842 535 , 863 535 
Q 872 535 , 879 535 
Q 886 535 , 889 535 
" fill="#F5C000" />
<path d="
M 905 478 
L 905 484 
Q 890 480 , 882 479 
Q 874 478 , 864 478 
Q 843 478 , 833 482 
Q 821 486 , 821 494 
Q 821 502 , 833 506 
Q 843 510 , 864 510 
Q 874 510 , 882 509 
Q 890 508 , 905 504 
L 905 510 
Q 894 512 , 884 513 
Q 874 514 , 863 514 
Q 836 514 , 821 509 
Q 805 503 , 805 494 
Q 805 485 , 821 479 
Q 836 474 , 863 474 
Q 874 474 , 884 475 
Q 895 476 , 905 478 
" fill="#545FFF" />
<path d="
M 910 550 
L 928 550 
L 928 553 
Q 928 553 , 936 554 
Q 943 554 , 960 554 
Q 977 554 , 985 554 
Q 992 553 , 992 553 
L 992 550 
L 1010 550 
L 1010 553 
Q 1010 554 , 997 554 
Q 985 555 , 960 555 
Q 936 555 , 923 554 
Q 910 554 , 910 553 
L 910 550 
" fill="#D21010" />
<path d="
M 960 543 
L 942 546 
L 976 546 
L 960 543 
M 953 542 
L 967 542 
L 1010 549 
L 994 549 
L 982 547 
L 938 547 
L 925 549 
L 910 549 
L 953 542 
" fill="#339541" />
<path d="
M 994 538 
L 994 530 
L 965 530 
L 965 526 
L 1010 526 
L 1010 540 
Q 999 541 , 988 541 
Q 979 542 , 967 542 
Q 941 542 , 925 538 
Q 910 534 , 910 527 
Q 910 520 , 925 516 
Q 941 512 , 967 512 
Q 978 512 , 987 513 
Q 997 513 , 1007 514 
L 1007 518 
Q 994 517 , 986 516 
Q 977 516 , 968 516 
Q 947 516 , 936 518 
Q 926 521 , 926 527 
Q 926 533 , 936 536 
Q 947 539 , 968 539 
Q 977 539 , 984 538 
Q 991 538 , 994 538 
" fill="#F5C000" />
<path d="
M 1010 480 
L 1010 485 
Q 995 482 , 987 481 
Q 979 480 , 969 480 
Q 948 480 , 938 483 
Q 926 487 , 926 494 
Q 926 501 , 938 504 
Q 948 508 , 969 508 
Q 979 508 , 987 507 
Q 995 506 , 1010 502 
L 1010 508 
Q 999 510 , 989 511 
Q 979 512 , 968 512 
Q 941 512 , 926 507 
Q 910 502 , 910 494 
Q 910 486 , 926 481 
Q 941 476 , 968 476 
Q 979 476 , 989 477 
Q 1000 478 , 1010 480 
" fill="#545FFF" />
<path d="
M 1065 552 
L 1047 553 
L 1081 553 
L 1065 552 
M 1058 552 
L 1072 552 
L 1115 555 
L 1099 555 
L 1087 554 
L 1043 554 
L 1030 555 
L 1015 555 
L 1058 552 
" fill="#339541" />
<path d="
M 1099 550 
L 1099 547 
L 1070 547 
L 1070 546 
L 1115 546 
L 1115 550 
Q 1104 551 , 1093 551 
Q 1084 551 , 1072 551 
Q 1046 551 , 1030 550 
Q 1015 548 , 1015 546 
Q 1015 544 , 1030 542 
Q 1046 541 , 1072 541 
Q 1083 541 , 1092 541 
Q 1102 541 , 1112 542 
L 1112 543 
Q 1099 543 , 1091 542 
Q 1082 542 , 1073 542 
Q 1052 542 , 1041 543 
Q 1031 544 , 1031 546 
Q 1031 548 , 1041 549 
Q 1052 550 , 1073 550 
Q 1082 550 , 1089 550 
Q 1096 550 , 1099 550 
" fill="#F5C000" />
<path d="
M 1115 523 
L 1115 526 
Q 1100 524 , 1092 524 
Q 1084 523 , 1074 523 
Q 1053 523 , 1043 525 
Q 1031 527 , 1031 531 
Q 1031 535 , 1043 537 
Q 1053 539 , 1074 539 
Q 1084 539 , 1092 538 
Q 1100 538 , 1115 536 
L 1115 539 
Q 1104 540 , 1094 540 
Q 1084 541 , 1073 541 
Q 1046 541 , 1031 538 
Q 1015 535 , 1015 531 
Q 1015 526 , 1031 524 
Q 1046 521 , 1073 521 
Q 1084 521 , 1094 521 
Q 1105 522 , 1115 523 
" fill="#545FFF" />
<path d="
M 1015 500 
L 1033 500 
L 1033 512 
Q 1033 516 , 1041 517 
Q 1048 518 , 1065 518 
Q 1082 518 , 1090 517 
Q 1097 516 , 1097 512 
L 1097 500 
L 1115 500 
L 1115 513 
Q 1115 517 , 1102 519 
Q 1090 521 , 1065 521 
Q 1041 521 , 1028 519 
Q 1015 517 , 1015 513 
L 1015 500 
" fill="#D21010" />
<path d="
M 1162 554 
L 1162 554 
L 1148 554 
L 1148 554 
L 1170 554 
L 1170 554 
Q 1165 554 , 1159 554 
Q 1154 555 , 1148 555 
Q 1135 555 , 1128 554 
Q 1120 554 , 1120 554 
Q 1120 553 , 1128 553 
Q 1135 553 , 1148 553 
Q 1154 553 , 1159 553 
Q 1164 553 , 1169 553 
L 1169 553 
Q 1162 553 , 1158 553 
Q 1154 553 , 1149 553 
Q 1139 553 , 1133 553 
Q 1128 553 , 1128 554 
Q 1128 554 , 1133 554 
Q 1139 554 , 1149 554 
Q 1154 554 , 1157 554 
Q 1161 554 , 1162 554 
" fill="lightgray" />
<path d="
M 1170 553 
L 1179 553 
L 1179 554 
Q 1179 554 , 1183 554 
Q 1186 554 , 1195 554 
Q 1204 554 , 1207 554 
Q 1211 554 , 1211 554 
L 1211 553 
L 1220 553 
L 1220 554 
Q 1220 554 , 1214 554 
Q 1207 555 , 1195 555 
Q 1183 555 , 1176 554 
Q 1170 554 , 1170 554 
L 1170 553 
" fill="#D21010" />
<path d="
M 1145 550 
L 1136 551 
L 1153 551 
L 1145 550 
M 1141 549 
L 1149 549 
L 1170 553 
L 1162 553 
L 1156 552 
L 1134 552 
L 1127 553 
L 1120 553 
L 1141 549 
" fill="lightgray" />
<path d="
M 1170 549 
L 1179 549 
L 1179 551 
Q 1179 552 , 1183 552 
Q 1186 552 , 1195 552 
Q 1204 552 , 1207 552 
Q 1211 552 , 1211 551 
L 1211 549 
L 1220 549 
L 1220 551 
Q 1220 552 , 1214 552 
Q 1207 553 , 1195 553 
Q 1183 553 , 1176 552 
Q 1170 552 , 1170 551 
L 1170 549 
" fill="#D21010" />
<path d="
M 1120 537 
L 1129 537 
L 1129 544 
Q 1129 546 , 1133 547 
Q 1136 548 , 1145 548 
Q 1154 548 , 1157 547 
Q 1161 546 , 1161 544 
L 1161 537 
L 1170 537 
L 1170 544 
Q 1170 546 , 1164 548 
Q 1157 549 , 1145 549 
Q 1133 549 , 1126 548 
Q 1120 546 , 1120 544 
L 1120 537 
" fill="lightgray" />
<path d="
M 1195 539 
L 1186 544 
L 1203 544 
L 1195 539 
M 1191 537 
L 1199 537 
L 1220 549 
L 1212 549 
L 1206 545 
L 1184 545 
L 1177 549 
L 1170 549 
L 1191 537 
" fill="#339541" />
<path d="
M 1120 524 
L 1129 524 
L 1129 531 
Q 1129 533 , 1133 534 
Q 1136 535 , 1145 535 
Q 1154 535 , 1157 534 
Q 1161 533 , 1161 531 
L 1161 524 
L 1170 524 
L 1170 531 
Q 1170 534 , 1164 535 
Q 1157 536 , 1145 536 
Q 1133 536 , 1126 535 
Q 1120 534 , 1120 531 
L 1120 524 
" fill="lightgray" />
<path d="
M 1212 535 
L 1212 531 
L 1198 531 
L 1198 530 
L 1220 530 
L 1220 535 
Q 1215 536 , 1209 536 
Q 1204 536 , 1198 536 
Q 1185 536 , 1178 535 
Q 1170 533 , 1170 530 
Q 1170 527 , 1178 526 
Q 1185 524 , 1198 524 
Q 1204 524 , 1209 524 
Q 1214 524 , 1219 525 
L 1219 527 
Q 1212 526 , 1208 526 
Q 1204 525 , 1199 525 
Q 1189 525 , 1183 527 
Q 1178 528 , 1178 530 
Q 1178 533 , 1183 534 
Q 1189 535 , 1199 535 
Q 1204 535 , 1207 535 
Q 1211 535 , 1212 535 
" fill="#F5C000" />
<path d="
M 1170 481 
L 1170 488 
Q 1163 484 , 1159 482 
Q 1154 481 , 1149 481 
Q 1139 481 , 1134 486 
Q 1128 491 , 1128 500 
Q 1128 509 , 1134 514 
Q 1139 518 , 1149 518 
Q 1154 518 , 1159 517 
Q 1163 516 , 1170 511 
L 1170 518 
Q 1165 521 , 1159 522 
Q 1155 523 , 1149 523 
Q 1135 523 , 1128 517 
Q 1120 511 , 1120 500 
Q 1120 489 , 1128 482 
Q 1135 476 , 1149 476 
Q 1155 476 , 1160 477 
Q 1165 478 , 1170 481 
" fill="lightgray" />
<path d="
M 1212 516 
L 1212 504 
L 1198 504 
L 1198 499 
L 1220 499 
L 1220 520 
Q 1215 522 , 1209 522 
Q 1204 523 , 1198 523 
Q 1185 523 , 1178 517 
Q 1170 511 , 1170 500 
Q 1170 489 , 1178 482 
Q 1185 476 , 1198 476 
Q 1204 476 , 1209 477 
Q 1214 478 , 1219 480 
L 1219 486 
Q 1212 483 , 1208 482 
Q 1204 482 , 1199 482 
Q 1189 482 , 1183 486 
Q 1178 491 , 1178 500 
Q 1178 509 , 1183 514 
Q 1189 518 , 1199 518 
Q 1204 518 , 1207 518 
Q 1211 517 , 1212 516 
" fill="#F5C000" />
<path d="
M 1162 467 
L 1162 452 
L 1148 452 
L 1148 446 
L 1170 446 
L 1170 471 
Q 1165 473 , 1159 474 
Q 1154 475 , 1148 475 
Q 1135 475 , 1128 468 
Q 1120 460 , 1120 447 
Q 1120 434 , 1128 427 
Q 1135 419 , 1148 419 
Q 1154 419 , 1159 420 
Q 1164 421 , 1169 424 
L 1169 431 
Q 1162 428 , 1158 427 
Q 1154 426 , 1149 426 
Q 1139 426 , 1133 431 
Q 1128 436 , 1128 447 
Q 1128 458 , 1133 464 
Q 1139 469 , 1149 469 
Q 1154 469 , 1157 468 
Q 1161 468 , 1162 467 
" fill="lightgray" />
<path d="
M 1220 425 
L 1220 434 
Q 1213 428 , 1209 427 
Q 1204 425 , 1199 425 
Q 1189 425 , 1184 431 
Q 1178 436 , 1178 447 
Q 1178 458 , 1184 464 
Q 1189 469 , 1199 469 
Q 1204 469 , 1209 468 
Q 1213 466 , 1220 461 
L 1220 469 
Q 1215 473 , 1209 474 
Q 1205 475 , 1199 475 
Q 1185 475 , 1178 468 
Q 1170 460 , 1170 447 
Q 1170 434 , 1178 427 
Q 1185 419 , 1199 419 
Q 1205 419 , 1210 420 
Q 1215 422 , 1220 425 
" fill="#545FFF" />
<path d="
M 1250 552 
L 1241 553 
L 1258 553 
L 1250 552 
M 1246 551 
L 1254 551 
L 1275 554 
L 1267 554 
L 1261 553 
L 1239 553 
L 1232 554 
L 1225 554 
L 1246 551 
" fill="lightgray" />
<path d="
M 1275 551 
L 1284 551 
L 1284 553 
Q 1284 553 , 1288 554 
Q 1291 554 , 1300 554 
Q 1309 554 , 1312 554 
Q 1316 553 , 1316 553 
L 1316 551 
L 1325 551 
L 1325 553 
Q 1325 554 , 1319 554 
Q 1312 554 , 1300 554 
Q 1288 554 , 1281 554 
Q 1275 554 , 1275 553 
L 1275 551 
" fill="#D21010" />
<path d="
M 1225 545 
L 1234 545 
L 1234 548 
Q 1234 549 , 1238 550 
Q 1241 550 , 1250 550 
Q 1259 550 , 1262 550 
Q 1266 549 , 1266 548 
L 1266 545 
L 1275 545 
L 1275 548 
Q 1275 549 , 1269 550 
Q 1262 551 , 1250 551 
Q 1238 551 , 1231 550 
Q 1225 549 , 1225 548 
L 1225 545 
" fill="lightgray" />
<path d="
M 1317 550 
L 1317 548 
L 1303 548 
L 1303 548 
L 1325 548 
L 1325 550 
Q 1320 550 , 1314 551 
Q 1309 551 , 1303 551 
Q 1290 551 , 1283 550 
Q 1275 549 , 1275 548 
Q 1275 546 , 1283 546 
Q 1290 545 , 1303 545 
Q 1309 545 , 1314 545 
Q 1319 545 , 1324 545 
L 1324 546 
Q 1317 546 , 1313 546 
Q 1309 546 , 1304 546 
Q 1294 546 , 1288 546 
Q 1283 547 , 1283 548 
Q 1283 549 , 1288 549 
Q 1294 550 , 1304 550 
Q 1309 550 , 1312 550 
Q 1316 550 , 1317 550 
" fill="#F5C000" />
<path d="
M 1225 538 
L 1234 538 
L 1234 542 
Q 1234 543 , 1238 543 
Q 1241 544 , 1250 544 
Q 1259 544 , 1262 543 
Q 1266 543 , 1266 542 
L 1266 538 
L 1275 538 
L 1275 542 
Q 1275 543 , 1269 544 
Q 1262 545 , 1250 545 
Q 1238 545 , 1231 544 
Q 1225 543 , 1225 542 
L 1225 538 
" fill="lightgray" />
<path d="
M 1300 539 
L 1291 542 
L 1308 542 
L 1300 539 
M 1296 538 
L 1304 538 
L 1325 545 
L 1317 545 
L 1311 543 
L 1289 543 
L 1282 545 
L 1275 545 
L 1296 538 
" fill="#339541" />
<path d="
M 1267 536 
L 1267 533 
L 1253 533 
L 1253 532 
L 1275 532 
L 1275 536 
Q 1270 537 , 1264 537 
Q 1259 537 , 1253 537 
Q 1240 537 , 1233 536 
Q 1225 535 , 1225 533 
Q 1225 530 , 1233 529 
Q 1240 528 , 1253 528 
Q 1259 528 , 1264 528 
Q 1269 528 , 1274 529 
L 1274 530 
Q 1267 529 , 1263 529 
Q 1259 529 , 1254 529 
Q 1244 529 , 1238 530 
Q 1233 531 , 1233 533 
Q 1233 534 , 1238 535 
Q 1244 536 , 1254 536 
Q 1259 536 , 1262 536 
Q 1266 536 , 1267 536 
" fill="lightgray" />
<path d="
M 1275 528 
L 1284 528 
L 1284 533 
Q 1284 535 , 1288 536 
Q 1291 536 , 1300 536 
Q 1309 536 , 1312 536 
Q 1316 535 , 1316 533 
L 1316 528 
L 1325 528 
L 1325 534 
Q 1325 535 , 1319 536 
Q 1312 537 , 1300 537 
Q 1288 537 , 1281 536 
Q 1275 535 , 1275 534 
L 1275 528 
" fill="#D21010" />
<path d="
M 1275 515 
L 1275 518 
Q 1268 516 , 1264 516 
Q 1259 516 , 1254 516 
Q 1244 516 , 1239 517 
Q 1233 518 , 1233 520 
Q 1233 523 , 1239 525 
Q 1244 526 , 1254 526 
Q 1259 526 , 1264 526 
Q 1268 525 , 1275 524 
L 1275 526 
Q 1270 527 , 1264 527 
Q 1260 528 , 1254 528 
Q 1240 528 , 1233 526 
Q 1225 524 , 1225 521 
Q 1225 518 , 1233 516 
Q 1240 514 , 1254 514 
Q 1260 514 , 1265 514 
Q 1270 515 , 1275 515 
" fill="lightgray" />
<path d="
M 1317 526 
L 1317 522 
L 1303 522 
L 1303 521 
L 1325 521 
L 1325 527 
Q 1320 527 , 1314 527 
Q 1309 528 , 1303 528 
Q 1290 528 , 1283 526 
Q 1275 524 , 1275 521 
Q 1275 518 , 1283 516 
Q 1290 514 , 1303 514 
Q 1309 514 , 1314 514 
Q 1319 514 , 1324 515 
L 1324 517 
Q 1317 516 , 1313 516 
Q 1309 516 , 1304 516 
Q 1294 516 , 1288 517 
Q 1283 518 , 1283 521 
Q 1283 523 , 1288 525 
Q 1294 526 , 1304 526 
Q 1309 526 , 1312 526 
Q 1316 526 , 1317 526 
" fill="#F5C000" />
<path d="
M 1267 509 
L 1267 502 
L 1253 502 
L 1253 499 
L 1275 499 
L 1275 511 
Q 1270 512 , 1264 513 
Q 1259 513 , 1253 513 
Q 1240 513 , 1233 510 
Q 1225 506 , 1225 500 
Q 1225 493 , 1233 490 
Q 1240 486 , 1253 486 
Q 1259 486 , 1264 486 
Q 1269 487 , 1274 488 
L 1274 492 
Q 1267 490 , 1263 490 
Q 1259 489 , 1254 489 
Q 1244 489 , 1238 492 
Q 1233 494 , 1233 500 
Q 1233 505 , 1238 508 
Q 1244 510 , 1254 510 
Q 1259 510 , 1262 510 
Q 1266 510 , 1267 509 
" fill="lightgray" />
<path d="
M 1325 489 
L 1325 493 
Q 1318 490 , 1314 490 
Q 1309 489 , 1304 489 
Q 1294 489 , 1289 492 
Q 1283 494 , 1283 499 
Q 1283 505 , 1289 508 
Q 1294 510 , 1304 510 
Q 1309 510 , 1314 510 
Q 1318 509 , 1325 506 
L 1325 511 
Q 1320 512 , 1314 513 
Q 1310 513 , 1304 513 
Q 1290 513 , 1283 510 
Q 1275 506 , 1275 500 
Q 1275 493 , 1283 490 
Q 1290 486 , 1304 486 
Q 1310 486 , 1315 487 
Q 1320 487 , 1325 489 
" fill="#545FFF" />
<path d="
M 1380 553 
L 1362 554 
L 1396 554 
L 1380 553 
M 1373 553 
L 1387 553 
L 1430 554 
L 1414 554 
L 1402 554 
L 1358 554 
L 1345 554 
L 1330 554 
L 1373 553 
" fill="#339541" />
<path d="
M 1330 551 
L 1348 551 
L 1348 552 
Q 1348 552 , 1356 552 
Q 1363 552 , 1380 552 
Q 1397 552 , 1405 552 
Q 1412 552 , 1412 552 
L 1412 551 
L 1430 551 
L 1430 552 
Q 1430 552 , 1417 552 
Q 1405 552 , 1380 552 
Q 1356 552 , 1343 552 
Q 1330 552 , 1330 552 
L 1330 551 
" fill="#D21010" />
<path d="
M 1430 549 
L 1430 549 
Q 1415 549 , 1407 549 
Q 1399 549 , 1389 549 
Q 1368 549 , 1358 549 
Q 1346 550 , 1346 550 
Q 1346 550 , 1358 550 
Q 1368 551 , 1389 551 
Q 1399 551 , 1407 551 
Q 1415 550 , 1430 550 
L 1430 551 
Q 1419 551 , 1409 551 
Q 1399 551 , 1388 551 
Q 1361 551 , 1346 551 
Q 1330 550 , 1330 550 
Q 1330 549 , 1346 549 
Q 1361 549 , 1388 549 
Q 1399 549 , 1409 549 
Q 1420 549 , 1430 549 
" fill="#545FFF" />
<path d="
M 1414 549 
L 1414 548 
L 1385 548 
L 1385 548 
L 1430 548 
L 1430 549 
Q 1419 549 , 1408 549 
Q 1399 549 , 1387 549 
Q 1361 549 , 1345 549 
Q 1330 548 , 1330 548 
Q 1330 548 , 1345 547 
Q 1361 547 , 1387 547 
Q 1398 547 , 1407 547 
Q 1417 547 , 1427 547 
L 1427 547 
Q 1414 547 , 1406 547 
Q 1397 547 , 1388 547 
Q 1367 547 , 1356 547 
Q 1346 548 , 1346 548 
Q 1346 548 , 1356 549 
Q 1367 549 , 1388 549 
Q 1397 549 , 1404 549 
Q 1411 549 , 1414 549 
" fill="#F5C000" />
<path d="M 65 168 L 65 555 " stroke="black" stroke-width="1.5"/>
<path d="M 55 555 L 65 555 " stroke="black" stroke-width="4"/>
<text text-anchor="end" x="50" y="555" font-size="50" alignment-baseline="middle">0</text>
<path d="M 55 362 L 65 362 " stroke="black" stroke-width="4"/>
<text text-anchor="end" x="50" y="362" font-size="50" alignment-baseline="middle">1</text>
<path d="M 55 168 L 65 168 " stroke="black" stroke-width="4"/>
<text text-anchor="end" x="50" y="168" font-size="50" alignment-baseline="middle">2</text>
<text text-anchor="middle" x="750" y="50" font-size="50" alignment-baseline="baseline"></text>
G<path d="
M 160 582 
L 126 595 
L 160 608 
L 157 611 
L 123 598 
L 123 623 
L 117 623 
L 117 599 
L 83 611 
L 80 608 
L 114 595 
L 80 582 
L 83 579 
L 117 591 
L 117 567 
L 123 567 
L 123 591 
L 157 579 
L 160 582 
" fill="black" />
<path d="
M 265 567 
Q 236 574 , 223 581 
Q 210 588 , 210 595 
Q 210 602 , 223 609 
Q 236 616 , 265 623 
L 241 623 
Q 213 616 , 199 609 
Q 185 602 , 185 595 
Q 185 588 , 199 581 
Q 213 574 , 241 567 
L 265 567 
" fill="black" />
<path d="
" fill="black" />
<path d="
M 316 567 
L 343 567 
L 343 623 
L 316 623 
L 316 567 
" fill="black" />
<path d="
" fill="black" />
<path d="
M 475 567 
Q 446 574 , 433 581 
Q 420 588 , 420 595 
Q 420 602 , 433 609 
Q 446 616 , 475 623 
L 451 623 
Q 423 616 , 409 609 
Q 395 602 , 395 595 
Q 395 588 , 409 581 
Q 423 574 , 451 567 
L 475 567 
" fill="black" />
<path d="
" fill="black" />
<path d="
M 526 567 
L 553 567 
L 553 623 
L 526 623 
L 526 567 
" fill="black" />
<path d="
" fill="black" />
<path d="
" fill="black" />
<path d="
M 622 567 
L 642 567 
L 642 623 
L 622 623 
L 622 567 
" fill="black" />
<path d="
" fill="black" />
<path d="
M 682 595 
Q 679 595 , 677 599 
Q 675 602 , 675 607 
Q 675 613 , 677 616 
Q 679 619 , 682 619 
Q 685 619 , 687 616 
Q 689 613 , 689 607 
Q 689 602 , 687 599 
Q 685 595 , 682 595 
M 677 593 
Q 675 592 , 674 589 
Q 673 586 , 673 581 
Q 673 575 , 675 571 
Q 678 567 , 682 567 
Q 686 567 , 689 571 
Q 691 575 , 691 581 
Q 691 586 , 690 589 
Q 688 592 , 687 593 
Q 689 594 , 690 598 
Q 692 601 , 692 607 
Q 692 614 , 689 619 
Q 687 623 , 682 623 
Q 677 623 , 675 619 
Q 672 614 , 672 607 
Q 672 601 , 674 598 
Q 675 594 , 677 593 
M 677 573 
Q 675 576 , 675 581 
Q 675 586 , 677 589 
Q 679 592 , 682 592 
Q 685 592 , 687 589 
Q 689 586 , 689 581 
Q 689 576 , 687 574 
Q 685 571 , 682 571 
Q 679 571 , 677 573 
" fill="black" />
<path d="
M 790 582 
L 756 595 
L 790 608 
L 787 611 
L 753 598 
L 753 623 
L 747 623 
L 747 599 
L 713 611 
L 710 608 
L 744 595 
L 710 582 
L 713 579 
L 747 591 
L 747 567 
L 753 567 
L 753 591 
L 787 579 
L 790 582 
" fill="black" />
<path d="
" fill="black" />
<path d="
M 841 567 
L 868 567 
L 868 623 
L 841 623 
L 841 567 
" fill="black" />
<path d="
" fill="black" />
<path d="
" fill="black" />
<path d="
M 946 567 
L 973 567 
L 973 623 
L 946 623 
L 946 567 
" fill="black" />
<path d="
" fill="black" />
<path d="
" fill="black" />
<path d="
M 1051 567 
L 1078 567 
L 1078 623 
L 1051 623 
L 1051 567 
" fill="black" />
<path d="
" fill="black" />
<path d="
M 1130 567 
L 1154 567 
Q 1182 574 , 1196 581 
Q 1210 588 , 1210 595 
Q 1210 602 , 1196 609 
Q 1182 616 , 1154 623 
L 1130 623 
Q 1159 616 , 1172 609 
Q 1185 602 , 1185 595 
Q 1185 588 , 1172 581 
Q 1159 574 , 1130 567 
" fill="black" />
<path d="
M 1235 567 
L 1259 567 
Q 1287 574 , 1301 581 
Q 1315 588 , 1315 595 
Q 1315 602 , 1301 609 
Q 1287 616 , 1259 623 
L 1235 623 
Q 1264 616 , 1277 609 
Q 1290 602 , 1290 595 
Q 1290 588 , 1277 581 
Q 1264 574 , 1235 567 
" fill="black" />
<path d="
M 1420 582 
L 1386 595 
L 1420 608 
L 1417 611 
L 1383 598 
L 1383 623 
L 1377 623 
L 1377 599 
L 1343 611 
L 1340 608 
L 1374 595 
L 1340 582 
L 1343 579 
L 1377 591 
L 1377 567 
L 1383 567 
L 1383 591 
L 1417 579 
L 1420 582 
" fill="black" />
</svg>
