<svg xmlns="http://www.w3.org/2000/svg"
viewBox="0 0 1435 635">
<path d="
M 70 552 
L 88 552 
L 88 553 
Q 88 554 , 96 554 
Q 103 554 , 120 554 
Q 137 554 , 145 554 
Q 152 554 , 152 553 
L 152 552 
L 170 552 
L 170 553 
Q 170 554 , 157 554 
Q 145 554 , 120 554 
Q 96 554 , 83 554 
Q 70 554 , 70 553 
L 70 552 
" fill="#D21010" />
<path d="
M 120 549 
L 102 550 
L 136 550 
L 120 549 
M 113 549 
L 127 549 
L 170 551 
L 154 551 
L 142 551 
L 98 551 
L 85 551 
L 70 551 
L 113 549 
" fill="#339541" />
<path d="
M 170 545 
L 170 546 
Q 155 546 , 147 545 
Q 139 545 , 129 545 
Q 108 545 , 98 546 
Q 86 546 , 86 546 
Q 86 547 , 98 548 
Q 108 548 , 129 548 
Q 139 548 , 147 548 
Q 155 548 , 170 547 
L 170 548 
Q 159 548 , 149 548 
Q 139 548 , 128 548 
Q 101 548 , 86 548 
Q 70 547 , 70 547 
Q 70 546 , 86 545 
Q 101 545 , 128 545 
Q 139 545 , 149 545 
Q 160 545 , 170 545 
" fill="#545FFF" />
<path d="
M 154 544 
L 154 543 
L 125 543 
L 125 542 
L 170 542 
L 170 545 
Q 159 545 , 148 545 
Q 139 545 , 127 545 
Q 101 545 , 85 544 
Q 70 544 , 70 542 
Q 70 541 , 85 541 
Q 101 540 , 127 540 
Q 138 540 , 147 540 
Q 157 540 , 167 540 
L 167 541 
Q 154 541 , 146 541 
Q 137 541 , 128 541 
Q 107 541 , 96 541 
Q 86 542 , 86 542 
Q 86 543 , 96 544 
Q 107 544 , 128 544 
Q 137 544 , 144 544 
Q 151 544 , 154 544 
" fill="#F5C000" />
<path d="
M 225 551 
L 207 552 
L 241 552 
L 225 551 
M 218 550 
L 232 550 
L 275 554 
L 259 554 
L 247 553 
L 203 553 
L 190 554 
L 175 554 
L 218 550 
" fill="#339541" />
<path d="
M 175 541 
L 193 541 
L 193 546 
Q 193 548 , 201 548 
Q 208 549 , 225 549 
Q 242 549 , 250 548 
Q 257 548 , 257 546 
L 257 541 
L 275 541 
L 275 546 
Q 275 548 , 262 549 
Q 250 550 , 225 550 
Q 201 550 , 188 549 
Q 175 548 , 175 546 
L 175 541 
" fill="#D21010" />
<path d="
M 275 513 
L 275 518 
Q 260 515 , 252 514 
Q 244 513 , 234 513 
Q 213 513 , 203 516 
Q 191 519 , 191 525 
Q 191 531 , 203 534 
Q 213 537 , 234 537 
Q 244 537 , 252 536 
Q 260 536 , 275 533 
L 275 537 
Q 264 539 , 254 540 
Q 244 540 , 233 540 
Q 206 540 , 191 536 
Q 175 532 , 175 525 
Q 175 518 , 191 514 
Q 206 510 , 233 510 
Q 244 510 , 254 511 
Q 265 511 , 275 513 
" fill="#545FFF" />
<path d="
M 259 490 
L 259 455 
L 230 455 
L 230 440 
L 275 440 
L 275 499 
Q 264 505 , 253 507 
Q 244 509 , 232 509 
Q 206 509 , 190 491 
Q 175 474 , 175 443 
Q 175 412 , 190 395 
Q 206 377 , 232 377 
Q 243 377 , 252 379 
Q 262 382 , 272 388 
L 272 405 
Q 259 397 , 251 395 
Q 242 393 , 233 393 
Q 212 393 , 201 405 
Q 191 418 , 191 443 
Q 191 469 , 201 482 
Q 212 494 , 233 494 
Q 242 494 , 249 493 
Q 256 492 , 259 490 
" fill="#F5C000" />
<path d="
M 330 551 
L 312 553 
L 346 553 
L 330 551 
M 323 550 
L 337 550 
L 380 554 
L 364 554 
L 352 553 
L 308 553 
L 295 554 
L 280 554 
L 323 550 
" fill="#339541" />
<path d="
M 280 538 
L 298 538 
L 298 545 
Q 298 547 , 306 548 
Q 313 549 , 330 549 
Q 347 549 , 355 548 
Q 362 547 , 362 545 
L 362 538 
L 380 538 
L 380 545 
Q 380 547 , 367 549 
Q 355 550 , 330 550 
Q 306 550 , 293 549 
Q 280 547 , 280 545 
L 280 538 
" fill="#D21010" />
<path d="
M 380 520 
L 380 523 
Q 365 521 , 357 521 
Q 349 520 , 339 520 
Q 318 520 , 308 522 
Q 296 524 , 296 528 
Q 296 532 , 308 534 
Q 318 536 , 339 536 
Q 349 536 , 357 535 
Q 365 535 , 380 533 
L 380 536 
Q 369 537 , 359 537 
Q 349 538 , 338 538 
Q 311 538 , 296 535 
Q 280 533 , 280 528 
Q 280 523 , 296 521 
Q 311 518 , 338 518 
Q 349 518 , 359 518 
Q 370 519 , 380 520 
" fill="#545FFF" />
<path d="
M 364 492 
L 364 443 
L 335 443 
L 335 423 
L 380 423 
L 380 504 
Q 369 511 , 358 514 
Q 349 517 , 337 518 
Q 311 518 , 295 493 
Q 280 469 , 280 427 
Q 280 385 , 295 361 
Q 311 337 , 337 337 
Q 348 337 , 357 340 
Q 367 343 , 377 352 
L 377 375 
Q 364 364 , 356 361 
Q 347 359 , 338 359 
Q 317 359 , 306 375 
Q 296 392 , 296 427 
Q 296 463 , 306 480 
Q 317 497 , 338 497 
Q 347 497 , 354 496 
Q 361 494 , 364 492 
" fill="#F5C000" />
<path d="
M 469 555 
L 469 554 
L 440 554 
L 440 554 
L 485 554 
L 485 555 
Q 474 555 , 463 555 
Q 454 555 , 442 555 
Q 416 555 , 400 555 
Q 385 554 , 385 554 
Q 385 554 , 400 553 
Q 416 553 , 442 553 
Q 453 553 , 462 553 
Q 472 553 , 482 553 
L 482 553 
Q 469 553 , 461 553 
Q 452 553 , 443 553 
Q 422 553 , 411 553 
Q 401 554 , 401 554 
Q 401 554 , 411 554 
Q 422 555 , 443 555 
Q 452 555 , 459 555 
Q 466 555 , 469 555 
" fill="#F5C000" />
<path d="
M 435 542 
L 417 547 
L 451 547 
L 435 542 
M 428 539 
L 442 539 
L 485 553 
L 469 553 
L 457 549 
L 413 549 
L 400 553 
L 385 553 
L 428 539 
" fill="#339541" />
<path d="
M 485 526 
L 485 528 
Q 470 526 , 462 526 
Q 454 526 , 444 526 
Q 423 526 , 413 527 
Q 401 528 , 401 531 
Q 401 534 , 413 535 
Q 423 537 , 444 537 
Q 454 537 , 462 536 
Q 470 536 , 485 534 
L 485 537 
Q 474 537 , 464 538 
Q 454 538 , 443 538 
Q 416 538 , 401 536 
Q 385 534 , 385 531 
Q 385 528 , 401 526 
Q 416 524 , 443 524 
Q 454 524 , 464 524 
Q 475 525 , 485 526 
" fill="#545FFF" />
<path d="
M 385 506 
L 403 506 
L 403 516 
Q 403 519 , 411 520 
Q 418 521 , 435 521 
Q 452 521 , 460 520 
Q 467 519 , 467 516 
L 467 506 
L 485 506 
L 485 516 
Q 485 520 , 472 521 
Q 460 523 , 435 523 
Q 411 523 , 398 521 
Q 385 520 , 385 516 
L 385 506 
" fill="#D21010" />
<path d="
M 490 551 
L 499 551 
L 499 553 
Q 499 554 , 503 554 
Q 506 554 , 515 554 
Q 524 554 , 527 554 
Q 531 554 , 531 553 
L 531 551 
L 540 551 
L 540 553 
Q 540 554 , 534 555 
Q 527 555 , 515 555 
Q 503 555 , 496 555 
Q 490 554 , 490 553 
L 490 551 
" fill="#D21010" />
<path d="
M 565 552 
L 556 553 
L 573 553 
L 565 552 
M 561 551 
L 569 551 
L 590 555 
L 582 555 
L 576 554 
L 554 554 
L 547 555 
L 540 555 
L 561 551 
" fill="lightgray" />
<path d="
M 532 550 
L 532 548 
L 518 548 
L 518 547 
L 540 547 
L 540 550 
Q 535 550 , 529 550 
Q 524 551 , 518 551 
Q 505 551 , 498 550 
Q 490 549 , 490 547 
Q 490 546 , 498 545 
Q 505 544 , 518 544 
Q 524 544 , 529 544 
Q 534 544 , 539 545 
L 539 545 
Q 532 545 , 528 545 
Q 524 545 , 519 545 
Q 509 545 , 503 545 
Q 498 546 , 498 547 
Q 498 549 , 503 549 
Q 509 550 , 519 550 
Q 524 550 , 527 550 
Q 531 550 , 532 550 
" fill="#F5C000" />
<path d="
M 540 544 
L 549 544 
L 549 548 
Q 549 549 , 553 549 
Q 556 550 , 565 550 
Q 574 550 , 577 549 
Q 581 549 , 581 548 
L 581 544 
L 590 544 
L 590 548 
Q 590 549 , 584 550 
Q 577 551 , 565 551 
Q 553 551 , 546 550 
Q 540 549 , 540 548 
L 540 544 
" fill="lightgray" />
<path d="
M 540 531 
L 540 533 
Q 533 532 , 529 532 
Q 524 531 , 519 531 
Q 509 531 , 504 533 
Q 498 534 , 498 536 
Q 498 539 , 504 541 
Q 509 542 , 519 542 
Q 524 542 , 529 542 
Q 533 541 , 540 540 
L 540 542 
Q 535 543 , 529 543 
Q 525 543 , 519 543 
Q 505 543 , 498 542 
Q 490 540 , 490 537 
Q 490 534 , 498 532 
Q 505 530 , 519 530 
Q 525 530 , 530 530 
Q 535 531 , 540 531 
" fill="#545FFF" />
<path d="
M 582 541 
L 582 538 
L 568 538 
L 568 536 
L 590 536 
L 590 542 
Q 585 543 , 579 543 
Q 574 543 , 568 543 
Q 555 543 , 548 542 
Q 540 540 , 540 537 
Q 540 534 , 548 532 
Q 555 530 , 568 530 
Q 574 530 , 579 530 
Q 584 530 , 589 531 
L 589 533 
Q 582 532 , 578 532 
Q 574 532 , 569 532 
Q 559 532 , 553 533 
Q 548 534 , 548 537 
Q 548 539 , 553 541 
Q 559 542 , 569 542 
Q 574 542 , 577 542 
Q 581 542 , 582 541 
" fill="lightgray" />
<path d="
M 490 514 
L 499 514 
L 499 523 
Q 499 526 , 503 527 
Q 506 528 , 515 528 
Q 524 528 , 527 527 
Q 531 526 , 531 523 
L 531 514 
L 540 514 
L 540 523 
Q 540 526 , 534 528 
Q 527 530 , 515 530 
Q 503 530 , 496 528 
Q 490 526 , 490 523 
L 490 514 
" fill="#D21010" />
<path d="
M 582 527 
L 582 523 
L 568 523 
L 568 521 
L 590 521 
L 590 528 
Q 585 529 , 579 529 
Q 574 530 , 568 530 
Q 555 530 , 548 528 
Q 540 525 , 540 522 
Q 540 518 , 548 516 
Q 555 514 , 568 514 
Q 574 514 , 579 514 
Q 584 515 , 589 515 
L 589 517 
Q 582 516 , 578 516 
Q 574 516 , 569 516 
Q 559 516 , 553 517 
Q 548 519 , 548 522 
Q 548 525 , 553 526 
Q 559 528 , 569 528 
Q 574 528 , 577 528 
Q 581 528 , 582 527 
" fill="lightgray" />
<path d="
M 515 497 
L 506 505 
L 523 505 
L 515 497 
M 511 493 
L 519 493 
L 540 514 
L 532 514 
L 526 508 
L 504 508 
L 497 514 
L 490 514 
L 511 493 
" fill="#339541" />
<path d="
M 540 493 
L 549 493 
L 549 505 
Q 549 509 , 553 510 
Q 556 511 , 565 511 
Q 574 511 , 577 510 
Q 581 509 , 581 505 
L 581 493 
L 590 493 
L 590 506 
Q 590 510 , 584 512 
Q 577 514 , 565 514 
Q 553 514 , 546 512 
Q 540 510 , 540 506 
L 540 493 
" fill="lightgray" />
<path d="
M 532 479 
L 532 453 
L 518 453 
L 518 442 
L 540 442 
L 540 485 
Q 535 489 , 529 491 
Q 524 492 , 518 493 
Q 505 493 , 498 480 
Q 490 467 , 490 444 
Q 490 422 , 498 409 
Q 505 396 , 518 396 
Q 524 396 , 529 398 
Q 534 399 , 539 404 
L 539 416 
Q 532 411 , 528 409 
Q 524 408 , 519 408 
Q 509 408 , 503 417 
Q 498 426 , 498 444 
Q 498 463 , 503 473 
Q 509 482 , 519 482 
Q 524 482 , 527 481 
Q 531 480 , 532 479 
" fill="#F5C000" />
<path d="
M 590 406 
L 590 421 
Q 583 412 , 579 409 
Q 574 407 , 569 407 
Q 559 407 , 554 416 
Q 548 426 , 548 444 
Q 548 463 , 554 473 
Q 559 482 , 569 482 
Q 574 482 , 579 480 
Q 583 477 , 590 467 
L 590 483 
Q 585 488 , 579 490 
Q 575 493 , 569 493 
Q 555 493 , 548 479 
Q 540 466 , 540 444 
Q 540 422 , 548 409 
Q 555 396 , 569 396 
Q 575 396 , 580 398 
Q 585 401 , 590 406 
" fill="lightgray" />
<path d="
M 595 550 
L 613 550 
L 613 552 
Q 613 553 , 621 553 
Q 628 554 , 645 554 
Q 662 554 , 670 553 
Q 677 553 , 677 552 
L 677 550 
L 695 550 
L 695 552 
Q 695 553 , 682 554 
Q 670 554 , 645 554 
Q 621 554 , 608 554 
Q 595 553 , 595 552 
L 595 550 
" fill="#D21010" />
<path d="
M 645 542 
L 627 545 
L 661 545 
L 645 542 
M 638 540 
L 652 540 
L 695 549 
L 679 549 
L 667 546 
L 623 546 
L 610 549 
L 595 549 
L 638 540 
" fill="#339541" />
<path d="
M 695 512 
L 695 517 
Q 680 514 , 672 513 
Q 664 512 , 654 512 
Q 633 512 , 623 515 
Q 611 518 , 611 524 
Q 611 530 , 623 533 
Q 633 536 , 654 536 
Q 664 536 , 672 535 
Q 680 534 , 695 531 
L 695 536 
Q 684 538 , 674 539 
Q 664 539 , 653 539 
Q 626 539 , 611 535 
Q 595 531 , 595 524 
Q 595 517 , 611 513 
Q 626 509 , 653 509 
Q 664 509 , 674 510 
Q 685 510 , 695 512 
" fill="#545FFF" />
<path d="
M 679 490 
L 679 455 
L 650 455 
L 650 441 
L 695 441 
L 695 499 
Q 684 504 , 673 506 
Q 664 509 , 652 509 
Q 626 509 , 610 491 
Q 595 474 , 595 444 
Q 595 414 , 610 396 
Q 626 379 , 652 379 
Q 663 379 , 672 381 
Q 682 384 , 692 390 
L 692 406 
Q 679 399 , 671 397 
Q 662 394 , 653 394 
Q 632 394 , 621 407 
Q 611 419 , 611 444 
Q 611 469 , 621 482 
Q 632 494 , 653 494 
Q 662 494 , 669 493 
Q 676 492 , 679 490 
" fill="#F5C000" />
<path d="
M 700 552 
L 718 552 
L 718 553 
Q 718 554 , 726 554 
Q 733 554 , 750 554 
Q 767 554 , 775 554 
Q 782 554 , 782 553 
L 782 552 
L 800 552 
L 800 553 
Q 800 554 , 787 554 
Q 775 554 , 750 554 
Q 726 554 , 713 554 
Q 700 554 , 700 553 
L 700 552 
" fill="#D21010" />
<path d="
M 750 549 
L 732 550 
L 766 550 
L 750 549 
M 743 549 
L 757 549 
L 800 551 
L 784 551 
L 772 551 
L 728 551 
L 715 551 
L 700 551 
L 743 549 
" fill="#339541" />
<path d="
M 800 545 
L 800 546 
Q 785 546 , 777 545 
Q 769 545 , 759 545 
Q 738 545 , 728 546 
Q 716 546 , 716 546 
Q 716 547 , 728 548 
Q 738 548 , 759 548 
Q 769 548 , 777 548 
Q 785 548 , 800 547 
L 800 548 
Q 789 548 , 779 548 
Q 769 548 , 758 548 
Q 731 548 , 716 548 
Q 700 547 , 700 547 
Q 700 546 , 716 545 
Q 731 545 , 758 545 
Q 769 545 , 779 545 
Q 790 545 , 800 545 
" fill="#545FFF" />
<path d="
M 784 544 
L 784 543 
L 755 543 
L 755 542 
L 800 542 
L 800 545 
Q 789 545 , 778 545 
Q 769 545 , 757 545 
Q 731 545 , 715 544 
Q 700 544 , 700 542 
Q 700 541 , 715 541 
Q 731 540 , 757 540 
Q 768 540 , 777 540 
Q 787 540 , 797 540 
L 797 541 
Q 784 541 , 776 541 
Q 767 541 , 758 541 
Q 737 541 , 726 541 
Q 716 542 , 716 542 
Q 716 543 , 726 544 
Q 737 544 , 758 544 
Q 767 544 , 774 544 
Q 781 544 , 784 544 
" fill="#F5C000" />
<path d="
M 805 551 
L 823 551 
L 823 553 
Q 823 554 , 831 554 
Q 838 554 , 855 554 
Q 872 554 , 880 554 
Q 887 554 , 887 553 
L 887 551 
L 905 551 
L 905 553 
Q 905 554 , 892 554 
Q 880 554 , 855 554 
Q 831 554 , 818 554 
Q 805 554 , 805 553 
L 805 551 
" fill="#D21010" />
<path d="
M 855 546 
L 837 548 
L 871 548 
L 855 546 
M 848 545 
L 862 545 
L 905 550 
L 889 550 
L 877 549 
L 833 549 
L 820 550 
L 805 550 
L 848 545 
" fill="#339541" />
<path d="
M 889 544 
L 889 541 
L 860 541 
L 860 540 
L 905 540 
L 905 544 
Q 894 545 , 883 545 
Q 874 545 , 862 545 
Q 836 545 , 820 544 
Q 805 542 , 805 540 
Q 805 538 , 820 536 
Q 836 535 , 862 535 
Q 873 535 , 882 535 
Q 892 535 , 902 536 
L 902 537 
Q 889 537 , 881 536 
Q 872 536 , 863 536 
Q 842 536 , 831 537 
Q 821 538 , 821 540 
Q 821 542 , 831 543 
Q 842 544 , 863 544 
Q 872 544 , 879 544 
Q 886 544 , 889 544 
" fill="#F5C000" />
<path d="
M 905 523 
L 905 525 
Q 890 524 , 882 524 
Q 874 523 , 864 523 
Q 843 523 , 833 525 
Q 821 526 , 821 528 
Q 821 531 , 833 532 
Q 843 533 , 864 533 
Q 874 533 , 882 533 
Q 890 533 , 905 532 
L 905 534 
Q 894 534 , 884 535 
Q 874 535 , 863 535 
Q 836 535 , 821 533 
Q 805 531 , 805 528 
Q 805 525 , 821 524 
Q 836 522 , 863 522 
Q 874 522 , 884 522 
Q 895 523 , 905 523 
" fill="#545FFF" />
<path d="
M 960 546 
L 942 550 
L 976 550 
L 960 546 
M 953 544 
L 967 544 
L 1010 555 
L 994 555 
L 982 552 
L 938 552 
L 925 555 
L 910 555 
L 953 544 
" fill="#339541" />
<path d="
M 910 532 
L 928 532 
L 928 539 
Q 928 541 , 936 542 
Q 943 542 , 960 542 
Q 977 542 , 985 542 
Q 992 541 , 992 539 
L 992 532 
L 1010 532 
L 1010 539 
Q 1010 541 , 997 542 
Q 985 544 , 960 544 
Q 936 544 , 923 542 
Q 910 541 , 910 539 
L 910 532 
" fill="#D21010" />
<path d="
M 1010 520 
L 1010 522 
Q 995 521 , 987 521 
Q 979 520 , 969 520 
Q 948 520 , 938 522 
Q 926 523 , 926 525 
Q 926 528 , 938 529 
Q 948 530 , 969 530 
Q 979 530 , 987 530 
Q 995 530 , 1010 528 
L 1010 530 
Q 999 531 , 989 531 
Q 979 532 , 968 532 
Q 941 532 , 926 530 
Q 910 528 , 910 525 
Q 910 522 , 926 521 
Q 941 519 , 968 519 
Q 979 519 , 989 519 
Q 1000 520 , 1010 520 
" fill="#545FFF" />
<path d="
M 994 494 
L 994 447 
L 965 447 
L 965 428 
L 1010 428 
L 1010 505 
Q 999 513 , 988 516 
Q 979 518 , 967 519 
Q 941 519 , 925 495 
Q 910 472 , 910 432 
Q 910 391 , 925 368 
Q 941 345 , 967 345 
Q 978 345 , 987 348 
Q 997 351 , 1007 359 
L 1007 381 
Q 994 371 , 986 369 
Q 977 366 , 968 366 
Q 947 366 , 936 382 
Q 926 398 , 926 432 
Q 926 466 , 936 483 
Q 947 499 , 968 499 
Q 977 499 , 984 498 
Q 991 496 , 994 494 
" fill="#F5C000" />
<path d="
M 1015 549 
L 1033 549 
L 1033 552 
Q 1033 553 , 1041 554 
Q 1048 554 , 1065 554 
Q 1082 554 , 1090 554 
Q 1097 553 , 1097 552 
L 1097 549 
L 1115 549 
L 1115 553 
Q 1115 554 , 1102 554 
Q 1090 555 , 1065 555 
Q 1041 555 , 1028 554 
Q 1015 554 , 1015 553 
L 1015 549 
" fill="#D21010" />
<path d="
M 1065 542 
L 1047 545 
L 1081 545 
L 1065 542 
M 1058 540 
L 1072 540 
L 1115 549 
L 1099 549 
L 1087 546 
L 1043 546 
L 1030 549 
L 1015 549 
L 1058 540 
" fill="#339541" />
<path d="
M 1115 518 
L 1115 522 
Q 1100 520 , 1092 519 
Q 1084 519 , 1074 519 
Q 1053 519 , 1043 521 
Q 1031 523 , 1031 527 
Q 1031 532 , 1043 534 
Q 1053 537 , 1074 537 
Q 1084 537 , 1092 536 
Q 1100 535 , 1115 533 
L 1115 537 
Q 1104 538 , 1094 538 
Q 1084 539 , 1073 539 
Q 1046 539 , 1031 536 
Q 1015 533 , 1015 528 
Q 1015 522 , 1031 519 
Q 1046 516 , 1073 516 
Q 1084 516 , 1094 517 
Q 1105 517 , 1115 518 
" fill="#545FFF" />
<path d="
M 1099 508 
L 1099 493 
L 1070 493 
L 1070 487 
L 1115 487 
L 1115 512 
Q 1104 514 , 1093 515 
Q 1084 516 , 1072 516 
Q 1046 516 , 1030 509 
Q 1015 501 , 1015 488 
Q 1015 476 , 1030 468 
Q 1046 461 , 1072 461 
Q 1083 461 , 1092 462 
Q 1102 463 , 1112 465 
L 1112 472 
Q 1099 469 , 1091 468 
Q 1082 468 , 1073 468 
Q 1052 468 , 1041 473 
Q 1031 478 , 1031 488 
Q 1031 499 , 1041 505 
Q 1052 510 , 1073 510 
Q 1082 510 , 1089 509 
Q 1096 509 , 1099 508 
" fill="#F5C000" />
<path d="
M 1120 551 
L 1129 551 
L 1129 553 
Q 1129 554 , 1133 554 
Q 1136 554 , 1145 554 
Q 1154 554 , 1157 554 
Q 1161 554 , 1161 553 
L 1161 551 
L 1170 551 
L 1170 553 
Q 1170 554 , 1164 555 
Q 1157 555 , 1145 555 
Q 1133 555 , 1126 555 
Q 1120 554 , 1120 553 
L 1120 551 
" fill="lightgray" />
<path d="
M 1195 552 
L 1186 553 
L 1203 553 
L 1195 552 
M 1191 551 
L 1199 551 
L 1220 555 
L 1212 555 
L 1206 554 
L 1184 554 
L 1177 555 
L 1170 555 
L 1191 551 
" fill="#339541" />
<path d="
M 1162 550 
L 1162 548 
L 1148 548 
L 1148 547 
L 1170 547 
L 1170 550 
Q 1165 550 , 1159 550 
Q 1154 551 , 1148 551 
Q 1135 551 , 1128 550 
Q 1120 549 , 1120 547 
Q 1120 546 , 1128 545 
Q 1135 544 , 1148 544 
Q 1154 544 , 1159 544 
Q 1164 544 , 1169 545 
L 1169 545 
Q 1162 545 , 1158 545 
Q 1154 545 , 1149 545 
Q 1139 545 , 1133 545 
Q 1128 546 , 1128 547 
Q 1128 549 , 1133 549 
Q 1139 550 , 1149 550 
Q 1154 550 , 1157 550 
Q 1161 550 , 1162 550 
" fill="lightgray" />
<path d="
M 1170 544 
L 1179 544 
L 1179 548 
Q 1179 549 , 1183 549 
Q 1186 550 , 1195 550 
Q 1204 550 , 1207 549 
Q 1211 549 , 1211 548 
L 1211 544 
L 1220 544 
L 1220 548 
Q 1220 549 , 1214 550 
Q 1207 551 , 1195 551 
Q 1183 551 , 1176 550 
Q 1170 549 , 1170 548 
L 1170 544 
" fill="#D21010" />
<path d="
M 1170 531 
L 1170 533 
Q 1163 532 , 1159 532 
Q 1154 531 , 1149 531 
Q 1139 531 , 1134 533 
Q 1128 534 , 1128 536 
Q 1128 539 , 1134 541 
Q 1139 542 , 1149 542 
Q 1154 542 , 1159 542 
Q 1163 541 , 1170 540 
L 1170 542 
Q 1165 543 , 1159 543 
Q 1155 543 , 1149 543 
Q 1135 543 , 1128 542 
Q 1120 540 , 1120 537 
Q 1120 534 , 1128 532 
Q 1135 530 , 1149 530 
Q 1155 530 , 1160 530 
Q 1165 531 , 1170 531 
" fill="lightgray" />
<path d="
M 1212 541 
L 1212 538 
L 1198 538 
L 1198 536 
L 1220 536 
L 1220 542 
Q 1215 543 , 1209 543 
Q 1204 543 , 1198 543 
Q 1185 543 , 1178 542 
Q 1170 540 , 1170 537 
Q 1170 534 , 1178 532 
Q 1185 530 , 1198 530 
Q 1204 530 , 1209 530 
Q 1214 530 , 1219 531 
L 1219 533 
Q 1212 532 , 1208 532 
Q 1204 532 , 1199 532 
Q 1189 532 , 1183 533 
Q 1178 534 , 1178 537 
Q 1178 539 , 1183 541 
Q 1189 542 , 1199 542 
Q 1204 542 , 1207 542 
Q 1211 542 , 1212 541 
" fill="#F5C000" />
<path d="
M 1120 514 
L 1129 514 
L 1129 523 
Q 1129 526 , 1133 527 
Q 1136 528 , 1145 528 
Q 1154 528 , 1157 527 
Q 1161 526 , 1161 523 
L 1161 514 
L 1170 514 
L 1170 523 
Q 1170 526 , 1164 528 
Q 1157 530 , 1145 530 
Q 1133 530 , 1126 528 
Q 1120 526 , 1120 523 
L 1120 514 
" fill="lightgray" />
<path d="
M 1212 527 
L 1212 523 
L 1198 523 
L 1198 521 
L 1220 521 
L 1220 528 
Q 1215 529 , 1209 529 
Q 1204 530 , 1198 530 
Q 1185 530 , 1178 528 
Q 1170 525 , 1170 522 
Q 1170 518 , 1178 516 
Q 1185 514 , 1198 514 
Q 1204 514 , 1209 514 
Q 1214 515 , 1219 515 
L 1219 517 
Q 1212 516 , 1208 516 
Q 1204 516 , 1199 516 
Q 1189 516 , 1183 517 
Q 1178 519 , 1178 522 
Q 1178 525 , 1183 526 
Q 1189 528 , 1199 528 
Q 1204 528 , 1207 528 
Q 1211 528 , 1212 527 
" fill="#F5C000" />
<path d="
M 1145 497 
L 1136 505 
L 1153 505 
L 1145 497 
M 1141 493 
L 1149 493 
L 1170 514 
L 1162 514 
L 1156 508 
L 1134 508 
L 1127 514 
L 1120 514 
L 1141 493 
" fill="lightgray" />
<path d="
M 1170 493 
L 1179 493 
L 1179 505 
Q 1179 509 , 1183 510 
Q 1186 511 , 1195 511 
Q 1204 511 , 1207 510 
Q 1211 509 , 1211 505 
L 1211 493 
L 1220 493 
L 1220 506 
Q 1220 510 , 1214 512 
Q 1207 514 , 1195 514 
Q 1183 514 , 1176 512 
Q 1170 510 , 1170 506 
L 1170 493 
" fill="#D21010" />
<path d="
M 1162 479 
L 1162 453 
L 1148 453 
L 1148 442 
L 1170 442 
L 1170 485 
Q 1165 489 , 1159 491 
Q 1154 492 , 1148 493 
Q 1135 493 , 1128 480 
Q 1120 467 , 1120 444 
Q 1120 422 , 1128 409 
Q 1135 396 , 1148 396 
Q 1154 396 , 1159 398 
Q 1164 399 , 1169 404 
L 1169 416 
Q 1162 411 , 1158 409 
Q 1154 408 , 1149 408 
Q 1139 408 , 1133 417 
Q 1128 426 , 1128 444 
Q 1128 463 , 1133 473 
Q 1139 482 , 1149 482 
Q 1154 482 , 1157 481 
Q 1161 480 , 1162 479 
" fill="lightgray" />
<path d="
M 1220 406 
L 1220 421 
Q 1213 412 , 1209 409 
Q 1204 407 , 1199 407 
Q 1189 407 , 1184 416 
Q 1178 426 , 1178 444 
Q 1178 463 , 1184 473 
Q 1189 482 , 1199 482 
Q 1204 482 , 1209 480 
Q 1213 477 , 1220 467 
L 1220 483 
Q 1215 488 , 1209 490 
Q 1205 493 , 1199 493 
Q 1185 493 , 1178 479 
Q 1170 466 , 1170 444 
Q 1170 422 , 1178 409 
Q 1185 396 , 1199 396 
Q 1205 396 , 1210 398 
Q 1215 401 , 1220 406 
" fill="#545FFF" />
<path d="
M 1325 547 
L 1325 548 
Q 1310 547 , 1302 547 
Q 1294 547 , 1284 547 
Q 1263 547 , 1253 548 
Q 1241 549 , 1241 550 
Q 1241 552 , 1253 553 
Q 1263 553 , 1284 553 
Q 1294 553 , 1302 553 
Q 1310 553 , 1325 552 
L 1325 553 
Q 1314 554 , 1304 554 
Q 1294 554 , 1283 554 
Q 1256 554 , 1241 553 
Q 1225 552 , 1225 550 
Q 1225 548 , 1241 547 
Q 1256 546 , 1283 546 
Q 1294 546 , 1304 546 
Q 1315 546 , 1325 547 
" fill="#545FFF" />
<path d="
M 1225 536 
L 1243 536 
L 1243 542 
Q 1243 543 , 1251 544 
Q 1258 545 , 1275 545 
Q 1292 545 , 1300 544 
Q 1307 543 , 1307 542 
L 1307 536 
L 1325 536 
L 1325 542 
Q 1325 544 , 1312 545 
Q 1300 546 , 1275 546 
Q 1251 546 , 1238 545 
Q 1225 544 , 1225 542 
L 1225 536 
" fill="#D21010" />
<path d="
M 1275 523 
L 1257 529 
L 1291 529 
L 1275 523 
M 1268 520 
L 1282 520 
L 1325 535 
L 1309 535 
L 1297 531 
L 1253 531 
L 1240 535 
L 1225 535 
L 1268 520 
" fill="#339541" />
<path d="
M 1309 512 
L 1309 497 
L 1280 497 
L 1280 492 
L 1325 492 
L 1325 515 
Q 1314 518 , 1303 518 
Q 1294 519 , 1282 519 
Q 1256 519 , 1240 512 
Q 1225 505 , 1225 493 
Q 1225 480 , 1240 473 
Q 1256 466 , 1282 466 
Q 1293 466 , 1302 467 
Q 1312 468 , 1322 470 
L 1322 477 
Q 1309 474 , 1301 473 
Q 1292 472 , 1283 472 
Q 1262 472 , 1251 477 
Q 1241 482 , 1241 493 
Q 1241 503 , 1251 508 
Q 1262 514 , 1283 514 
Q 1292 514 , 1299 513 
Q 1306 512 , 1309 512 
" fill="#F5C000" />
<path d="
M 1330 552 
L 1348 552 
L 1348 553 
Q 1348 554 , 1356 554 
Q 1363 554 , 1380 554 
Q 1397 554 , 1405 554 
Q 1412 554 , 1412 553 
L 1412 552 
L 1430 552 
L 1430 553 
Q 1430 554 , 1417 554 
Q 1405 554 , 1380 554 
Q 1356 554 , 1343 554 
Q 1330 554 , 1330 553 
L 1330 552 
" fill="#D21010" />
<path d="
M 1380 549 
L 1362 550 
L 1396 550 
L 1380 549 
M 1373 549 
L 1387 549 
L 1430 551 
L 1414 551 
L 1402 551 
L 1358 551 
L 1345 551 
L 1330 551 
L 1373 549 
" fill="#339541" />
<path d="
M 1430 545 
L 1430 546 
Q 1415 546 , 1407 545 
Q 1399 545 , 1389 545 
Q 1368 545 , 1358 546 
Q 1346 546 , 1346 546 
Q 1346 547 , 1358 548 
Q 1368 548 , 1389 548 
Q 1399 548 , 1407 548 
Q 1415 548 , 1430 547 
L 1430 548 
Q 1419 548 , 1409 548 
Q 1399 548 , 1388 548 
Q 1361 548 , 1346 548 
Q 1330 547 , 1330 547 
Q 1330 546 , 1346 545 
Q 1361 545 , 1388 545 
Q 1399 545 , 1409 545 
Q 1420 545 , 1430 545 
" fill="#545FFF" />
<path d="
M 1414 544 
L 1414 543 
L 1385 543 
L 1385 542 
L 1430 542 
L 1430 545 
Q 1419 545 , 1408 545 
Q 1399 545 , 1387 545 
Q 1361 545 , 1345 544 
Q 1330 544 , 1330 542 
Q 1330 541 , 1345 541 
Q 1361 540 , 1387 540 
Q 1398 540 , 1407 540 
Q 1417 540 , 1427 540 
L 1427 541 
Q 1414 541 , 1406 541 
Q 1397 541 , 1388 541 
Q 1367 541 , 1356 541 
Q 1346 542 , 1346 542 
Q 1346 543 , 1356 544 
Q 1367 544 , 1388 544 
Q 1397 544 , 1404 544 
Q 1411 544 , 1414 544 
" fill="#F5C000" />
<path d="M 65 168 L 65 555 " stroke="black" stroke-width="1.5"/>
<path d="M 55 555 L 65 555 " stroke="black" stroke-width="4"/>
<text text-anchor="end" x="50" y="555" font-size="50" alignment-baseline="middle">0</text>
<path d="M 55 362 L 65 362 " stroke="black" stroke-width="4"/>
<text text-anchor="end" x="50" y="362" font-size="50" alignment-baseline="middle">1</text>
<path d="M 55 168 L 65 168 " stroke="black" stroke-width="4"/>
<text text-anchor="end" x="50" y="168" font-size="50" alignment-baseline="middle">2</text>
<text text-anchor="middle" x="750" y="50" font-size="50" alignment-baseline="baseline"></text>
G<path d="
M 160 582 
L 126 595 
L 160 608 
L 157 611 
L 123 598 
L 123 623 
L 117 623 
L 117 599 
L 83 611 
L 80 608 
L 114 595 
L 80 582 
L 83 579 
L 117 591 
L 117 567 
L 123 567 
L 123 591 
L 157 579 
L 160 582 
" fill="black" />
<path d="
" fill="black" />
<path d="
M 211 567 
L 238 567 
L 238 623 
L 211 623 
L 211 567 
" fill="black" />
<path d="
" fill="black" />
<path d="
" fill="black" />
<path d="
M 316 567 
L 343 567 
L 343 623 
L 316 623 
L 316 567 
" fill="black" />
<path d="
" fill="black" />
<path d="
" fill="black" />
<path d="
M 421 567 
L 448 567 
L 448 623 
L 421 623 
L 421 567 
" fill="black" />
<path d="
" fill="black" />
<path d="
M 580 567 
Q 551 574 , 538 581 
Q 525 588 , 525 595 
Q 525 602 , 538 609 
Q 551 616 , 580 623 
L 556 623 
Q 528 616 , 514 609 
Q 500 602 , 500 595 
Q 500 588 , 514 581 
Q 528 574 , 556 567 
L 580 567 
" fill="black" />
<path d="
" fill="black" />
<path d="
M 622 567 
L 642 567 
L 642 623 
L 622 623 
L 622 567 
" fill="black" />
<path d="
" fill="black" />
<path d="
M 687 595 
Q 686 591 , 682 591 
Q 679 591 , 677 595 
Q 675 599 , 675 605 
Q 675 612 , 677 615 
Q 679 619 , 682 619 
Q 686 619 , 687 615 
Q 689 612 , 689 605 
Q 689 599 , 687 595 
M 690 569 
L 690 574 
Q 689 572 , 687 571 
Q 686 571 , 684 571 
Q 678 571 , 676 581 
Q 675 586 , 675 595 
Q 675 593 , 677 590 
Q 679 587 , 682 587 
Q 687 587 , 689 592 
Q 692 597 , 692 604 
Q 692 613 , 689 618 
Q 687 623 , 682 623 
Q 677 623 , 675 616 
Q 672 609 , 672 595 
Q 672 581 , 675 574 
Q 679 567 , 684 567 
Q 686 567 , 687 568 
Q 689 568 , 690 569 
" fill="black" />
<path d="
M 790 582 
L 756 595 
L 790 608 
L 787 611 
L 753 598 
L 753 623 
L 747 623 
L 747 599 
L 713 611 
L 710 608 
L 744 595 
L 710 582 
L 713 579 
L 747 591 
L 747 567 
L 753 567 
L 753 591 
L 787 579 
L 790 582 
" fill="black" />
<path d="
" fill="black" />
<path d="
M 841 567 
L 868 567 
L 868 623 
L 841 623 
L 841 567 
" fill="black" />
<path d="
" fill="black" />
<path d="
" fill="black" />
<path d="
M 946 567 
L 973 567 
L 973 623 
L 946 623 
L 946 567 
" fill="black" />
<path d="
" fill="black" />
<path d="
" fill="black" />
<path d="
M 1051 567 
L 1078 567 
L 1078 623 
L 1051 623 
L 1051 567 
" fill="black" />
<path d="
" fill="black" />
<path d="
M 1130 567 
L 1154 567 
Q 1182 574 , 1196 581 
Q 1210 588 , 1210 595 
Q 1210 602 , 1196 609 
Q 1182 616 , 1154 623 
L 1130 623 
Q 1159 616 , 1172 609 
Q 1185 602 , 1185 595 
Q 1185 588 , 1172 581 
Q 1159 574 , 1130 567 
" fill="black" />
<path d="
" fill="black" />
<path d="
M 1261 567 
L 1288 567 
L 1288 623 
L 1261 623 
L 1261 567 
" fill="black" />
<path d="
" fill="black" />
<path d="
M 1420 582 
L 1386 595 
L 1420 608 
L 1417 611 
L 1383 598 
L 1383 623 
L 1377 623 
L 1377 599 
L 1343 611 
L 1340 608 
L 1374 595 
L 1340 582 
L 1343 579 
L 1377 591 
L 1377 567 
L 1383 567 
L 1383 591 
L 1417 579 
L 1420 582 
" fill="black" />
</svg>
