<svg xmlns="http://www.w3.org/2000/svg"
viewBox="0 0 1330 635">
<path d="
M 120 553 
L 102 554 
L 136 554 
L 120 553 
M 113 553 
L 127 553 
L 170 555 
L 154 555 
L 142 554 
L 98 554 
L 85 555 
L 70 555 
L 113 553 
" fill="#339541" />
<path d="
M 70 550 
L 88 550 
L 88 551 
Q 88 552 , 96 552 
Q 103 552 , 120 552 
Q 137 552 , 145 552 
Q 152 552 , 152 551 
L 152 550 
L 170 550 
L 170 551 
Q 170 552 , 157 552 
Q 145 552 , 120 552 
Q 96 552 , 83 552 
Q 70 552 , 70 551 
L 70 550 
" fill="#D21010" />
<path d="
M 170 547 
L 170 548 
Q 155 547 , 147 547 
Q 139 547 , 129 547 
Q 108 547 , 98 548 
Q 86 548 , 86 548 
Q 86 549 , 98 549 
Q 108 549 , 129 549 
Q 139 549 , 147 549 
Q 155 549 , 170 549 
L 170 549 
Q 159 550 , 149 550 
Q 139 550 , 128 550 
Q 101 550 , 86 549 
Q 70 549 , 70 548 
Q 70 548 , 86 547 
Q 101 547 , 128 547 
Q 139 547 , 149 547 
Q 160 547 , 170 547 
" fill="#545FFF" />
<path d="
M 154 546 
L 154 545 
L 125 545 
L 125 545 
L 170 545 
L 170 546 
Q 159 546 , 148 547 
Q 139 547 , 127 547 
Q 101 547 , 85 546 
Q 70 546 , 70 545 
Q 70 544 , 85 543 
Q 101 543 , 127 543 
Q 138 543 , 147 543 
Q 157 543 , 167 543 
L 167 544 
Q 154 544 , 146 543 
Q 137 543 , 128 543 
Q 107 543 , 96 544 
Q 86 544 , 86 545 
Q 86 545 , 96 546 
Q 107 546 , 128 546 
Q 137 546 , 144 546 
Q 151 546 , 154 546 
" fill="#F5C000" />
<path d="
M 275 548 
L 275 549 
Q 260 548 , 252 548 
Q 244 548 , 234 548 
Q 213 548 , 203 549 
Q 191 549 , 191 550 
Q 191 552 , 203 553 
Q 213 554 , 234 554 
Q 244 554 , 252 554 
Q 260 554 , 275 553 
L 275 554 
Q 264 554 , 254 555 
Q 244 555 , 233 555 
Q 206 555 , 191 554 
Q 175 553 , 175 551 
Q 175 549 , 191 548 
Q 206 547 , 233 547 
Q 244 547 , 254 547 
Q 265 547 , 275 548 
" fill="#545FFF" />
<path d="
M 225 540 
L 207 543 
L 241 543 
L 225 540 
M 218 538 
L 232 538 
L 275 547 
L 259 547 
L 247 544 
L 203 544 
L 190 547 
L 175 547 
L 218 538 
" fill="#339541" />
<path d="
M 259 536 
L 259 533 
L 230 533 
L 230 532 
L 275 532 
L 275 537 
Q 264 537 , 253 537 
Q 244 537 , 232 538 
Q 206 538 , 190 536 
Q 175 534 , 175 532 
Q 175 529 , 190 528 
Q 206 526 , 232 526 
Q 243 526 , 252 526 
Q 262 526 , 272 527 
L 272 528 
Q 259 528 , 251 528 
Q 242 527 , 233 527 
Q 212 527 , 201 528 
Q 191 530 , 191 532 
Q 191 534 , 201 535 
Q 212 536 , 233 536 
Q 242 536 , 249 536 
Q 256 536 , 259 536 
" fill="#F5C000" />
<path d="
M 175 497 
L 193 497 
L 193 514 
Q 193 519 , 201 521 
Q 208 522 , 225 522 
Q 242 522 , 250 521 
Q 257 519 , 257 514 
L 257 497 
L 275 497 
L 275 514 
Q 275 520 , 262 523 
Q 250 526 , 225 526 
Q 201 526 , 188 523 
Q 175 520 , 175 514 
L 175 497 
" fill="#D21010" />
<path d="
M 330 543 
L 312 549 
L 346 549 
L 330 543 
M 323 540 
L 337 540 
L 380 555 
L 364 555 
L 352 550 
L 308 550 
L 295 555 
L 280 555 
L 323 540 
" fill="#339541" />
<path d="
M 380 525 
L 380 527 
Q 365 526 , 357 525 
Q 349 525 , 339 525 
Q 318 525 , 308 526 
Q 296 528 , 296 531 
Q 296 534 , 308 536 
Q 318 537 , 339 537 
Q 349 537 , 357 537 
Q 365 536 , 380 535 
L 380 537 
Q 369 538 , 359 539 
Q 349 539 , 338 539 
Q 311 539 , 296 537 
Q 280 535 , 280 531 
Q 280 527 , 296 525 
Q 311 523 , 338 523 
Q 349 523 , 359 523 
Q 370 524 , 380 525 
" fill="#545FFF" />
<path d="
M 280 506 
L 298 506 
L 298 516 
Q 298 519 , 306 520 
Q 313 521 , 330 521 
Q 347 521 , 355 520 
Q 362 519 , 362 516 
L 362 506 
L 380 506 
L 380 516 
Q 380 519 , 367 521 
Q 355 523 , 330 523 
Q 306 523 , 293 521 
Q 280 519 , 280 516 
L 280 506 
" fill="#D21010" />
<path d="
M 364 477 
L 364 423 
L 335 423 
L 335 401 
L 380 401 
L 380 490 
Q 369 499 , 358 502 
Q 349 505 , 337 506 
Q 311 506 , 295 479 
Q 280 452 , 280 405 
Q 280 359 , 295 332 
Q 311 305 , 337 305 
Q 348 305 , 357 308 
Q 367 312 , 377 321 
L 377 347 
Q 364 336 , 356 332 
Q 347 329 , 338 329 
Q 317 329 , 306 348 
Q 296 367 , 296 405 
Q 296 445 , 306 464 
Q 317 483 , 338 483 
Q 347 483 , 354 481 
Q 361 479 , 364 477 
" fill="#F5C000" />
<path d="
M 435 552 
L 417 553 
L 451 553 
L 435 552 
M 428 551 
L 442 551 
L 485 554 
L 469 554 
L 457 553 
L 413 553 
L 400 554 
L 385 554 
L 428 551 
" fill="#339541" />
<path d="
M 385 539 
L 403 539 
L 403 546 
Q 403 548 , 411 549 
Q 418 549 , 435 549 
Q 452 549 , 460 549 
Q 467 548 , 467 546 
L 467 539 
L 485 539 
L 485 546 
Q 485 548 , 472 549 
Q 460 551 , 435 551 
Q 411 551 , 398 549 
Q 385 548 , 385 546 
L 385 539 
" fill="#D21010" />
<path d="
M 485 495 
L 485 503 
Q 470 498 , 462 497 
Q 454 495 , 444 495 
Q 423 495 , 413 500 
Q 401 505 , 401 514 
Q 401 524 , 413 529 
Q 423 533 , 444 533 
Q 454 533 , 462 532 
Q 470 531 , 485 526 
L 485 534 
Q 474 536 , 464 538 
Q 454 539 , 443 539 
Q 416 539 , 401 532 
Q 385 526 , 385 514 
Q 385 503 , 401 497 
Q 416 490 , 443 490 
Q 454 490 , 464 491 
Q 475 492 , 485 495 
" fill="#545FFF" />
<path d="
M 469 471 
L 469 438 
L 440 438 
L 440 424 
L 485 424 
L 485 480 
Q 474 485 , 463 487 
Q 454 489 , 442 489 
Q 416 489 , 400 472 
Q 385 456 , 385 427 
Q 385 398 , 400 382 
Q 416 365 , 442 365 
Q 453 365 , 462 367 
Q 472 369 , 482 375 
L 482 391 
Q 469 384 , 461 382 
Q 452 380 , 443 380 
Q 422 380 , 411 391 
Q 401 403 , 401 427 
Q 401 452 , 411 463 
Q 422 475 , 443 475 
Q 452 475 , 459 474 
Q 466 473 , 469 471 
" fill="#F5C000" />
<path d="
M 490 551 
L 508 551 
L 508 553 
Q 508 554 , 516 554 
Q 523 554 , 540 554 
Q 557 554 , 565 554 
Q 572 554 , 572 553 
L 572 551 
L 590 551 
L 590 553 
Q 590 554 , 577 554 
Q 565 554 , 540 554 
Q 516 554 , 503 554 
Q 490 554 , 490 553 
L 490 551 
" fill="#D21010" />
<path d="
M 590 533 
L 590 536 
Q 575 534 , 567 534 
Q 559 533 , 549 533 
Q 528 533 , 518 535 
Q 506 537 , 506 540 
Q 506 544 , 518 546 
Q 528 548 , 549 548 
Q 559 548 , 567 547 
Q 575 547 , 590 545 
L 590 548 
Q 579 549 , 569 550 
Q 559 550 , 548 550 
Q 521 550 , 506 547 
Q 490 545 , 490 541 
Q 490 536 , 506 534 
Q 521 531 , 548 531 
Q 559 531 , 569 531 
Q 580 532 , 590 533 
" fill="#545FFF" />
<path d="
M 540 513 
L 522 522 
L 556 522 
L 540 513 
M 533 509 
L 547 509 
L 590 530 
L 574 530 
L 562 524 
L 518 524 
L 505 530 
L 490 530 
L 533 509 
" fill="#339541" />
<path d="
M 574 502 
L 574 490 
L 545 490 
L 545 484 
L 590 484 
L 590 505 
Q 579 507 , 568 508 
Q 559 509 , 547 509 
Q 521 509 , 505 502 
Q 490 496 , 490 485 
Q 490 474 , 505 468 
Q 521 462 , 547 462 
Q 558 462 , 567 463 
Q 577 464 , 587 466 
L 587 472 
Q 574 469 , 566 468 
Q 557 468 , 548 468 
Q 527 468 , 516 472 
Q 506 476 , 506 485 
Q 506 495 , 516 499 
Q 527 504 , 548 504 
Q 557 504 , 564 503 
Q 571 503 , 574 502 
" fill="#F5C000" />
<path d="
M 645 549 
L 627 552 
L 661 552 
L 645 549 
M 638 548 
L 652 548 
L 695 554 
L 679 554 
L 667 553 
L 623 553 
L 610 554 
L 595 554 
L 638 548 
" fill="#339541" />
<path d="
M 695 537 
L 695 539 
Q 680 538 , 672 538 
Q 664 537 , 654 537 
Q 633 537 , 623 538 
Q 611 539 , 611 541 
Q 611 544 , 623 545 
Q 633 546 , 654 546 
Q 664 546 , 672 546 
Q 680 545 , 695 544 
L 695 546 
Q 684 547 , 674 547 
Q 664 547 , 653 547 
Q 626 547 , 611 546 
Q 595 544 , 595 542 
Q 595 539 , 611 538 
Q 626 536 , 653 536 
Q 664 536 , 674 536 
Q 685 537 , 695 537 
" fill="#545FFF" />
<path d="
M 679 531 
L 679 524 
L 650 524 
L 650 520 
L 695 520 
L 695 533 
Q 684 534 , 673 535 
Q 664 535 , 652 535 
Q 626 535 , 610 531 
Q 595 528 , 595 521 
Q 595 515 , 610 511 
Q 626 507 , 652 507 
Q 663 507 , 672 507 
Q 682 508 , 692 509 
L 692 513 
Q 679 511 , 671 511 
Q 662 510 , 653 510 
Q 632 510 , 621 513 
Q 611 516 , 611 521 
Q 611 527 , 621 529 
Q 632 532 , 653 532 
Q 662 532 , 669 532 
Q 676 531 , 679 531 
" fill="#F5C000" />
<path d="
M 595 451 
L 613 451 
L 613 484 
Q 613 493 , 621 497 
Q 628 500 , 645 500 
Q 662 500 , 670 497 
Q 677 493 , 677 484 
L 677 451 
L 695 451 
L 695 485 
Q 695 495 , 682 501 
Q 670 507 , 645 507 
Q 621 507 , 608 501 
Q 595 495 , 595 485 
L 595 451 
" fill="#D21010" />
<path d="
M 700 542 
L 718 542 
L 718 549 
Q 718 552 , 726 552 
Q 733 553 , 750 553 
Q 767 553 , 775 552 
Q 782 552 , 782 549 
L 782 542 
L 800 542 
L 800 550 
Q 800 552 , 787 553 
Q 775 555 , 750 555 
Q 726 555 , 713 553 
Q 700 552 , 700 550 
L 700 542 
" fill="#D21010" />
<path d="
M 800 528 
L 800 530 
Q 785 528 , 777 528 
Q 769 528 , 759 528 
Q 738 528 , 728 529 
Q 716 531 , 716 534 
Q 716 537 , 728 538 
Q 738 540 , 759 540 
Q 769 540 , 777 539 
Q 785 539 , 800 537 
L 800 540 
Q 789 541 , 779 541 
Q 769 541 , 758 541 
Q 731 541 , 716 539 
Q 700 537 , 700 534 
Q 700 530 , 716 528 
Q 731 526 , 758 526 
Q 769 526 , 779 526 
Q 790 527 , 800 528 
" fill="#545FFF" />
<path d="
M 750 511 
L 732 518 
L 766 518 
L 750 511 
M 743 508 
L 757 508 
L 800 525 
L 784 525 
L 772 520 
L 728 520 
L 715 525 
L 700 525 
L 743 508 
" fill="#339541" />
<path d="
M 784 475 
L 784 414 
L 755 414 
L 755 389 
L 800 389 
L 800 490 
Q 789 499 , 778 503 
Q 769 507 , 757 507 
Q 731 507 , 715 477 
Q 700 447 , 700 394 
Q 700 341 , 715 311 
Q 731 281 , 757 281 
Q 768 281 , 777 285 
Q 787 289 , 797 299 
L 797 328 
Q 784 315 , 776 312 
Q 767 308 , 758 308 
Q 737 308 , 726 329 
Q 716 350 , 716 394 
Q 716 439 , 726 460 
Q 737 482 , 758 482 
Q 767 482 , 774 480 
Q 781 477 , 784 475 
" fill="#F5C000" />
<path d="
M 855 551 
L 837 553 
L 871 553 
L 855 551 
M 848 550 
L 862 550 
L 905 554 
L 889 554 
L 877 553 
L 833 553 
L 820 554 
L 805 554 
L 848 550 
" fill="#339541" />
<path d="
M 905 538 
L 905 540 
Q 890 539 , 882 539 
Q 874 538 , 864 538 
Q 843 538 , 833 540 
Q 821 541 , 821 543 
Q 821 546 , 833 547 
Q 843 548 , 864 548 
Q 874 548 , 882 548 
Q 890 548 , 905 546 
L 905 548 
Q 894 549 , 884 549 
Q 874 550 , 863 550 
Q 836 550 , 821 548 
Q 805 546 , 805 543 
Q 805 540 , 821 539 
Q 836 537 , 863 537 
Q 874 537 , 884 537 
Q 895 538 , 905 538 
" fill="#545FFF" />
<path d="
M 805 500 
L 823 500 
L 823 521 
Q 823 527 , 831 530 
Q 838 532 , 855 532 
Q 872 532 , 880 530 
Q 887 527 , 887 521 
L 887 500 
L 905 500 
L 905 522 
Q 905 529 , 892 533 
Q 880 536 , 855 536 
Q 831 536 , 818 533 
Q 805 529 , 805 522 
L 805 500 
" fill="#D21010" />
<path d="
M 889 491 
L 889 476 
L 860 476 
L 860 469 
L 905 469 
L 905 495 
Q 894 498 , 883 499 
Q 874 500 , 862 500 
Q 836 500 , 820 492 
Q 805 484 , 805 470 
Q 805 457 , 820 449 
Q 836 441 , 862 441 
Q 873 441 , 882 442 
Q 892 443 , 902 446 
L 902 453 
Q 889 450 , 881 449 
Q 872 448 , 863 448 
Q 842 448 , 831 453 
Q 821 459 , 821 470 
Q 821 482 , 831 488 
Q 842 493 , 863 493 
Q 872 493 , 879 493 
Q 886 492 , 889 491 
" fill="#F5C000" />
<path d="
M 960 545 
L 942 550 
L 976 550 
L 960 545 
M 953 543 
L 967 543 
L 1010 555 
L 994 555 
L 982 551 
L 938 551 
L 925 555 
L 910 555 
L 953 543 
" fill="#339541" />
<path d="
M 910 529 
L 928 529 
L 928 537 
Q 928 539 , 936 540 
Q 943 541 , 960 541 
Q 977 541 , 985 540 
Q 992 539 , 992 537 
L 992 529 
L 1010 529 
L 1010 537 
Q 1010 540 , 997 541 
Q 985 542 , 960 542 
Q 936 542 , 923 541 
Q 910 540 , 910 537 
L 910 529 
" fill="#D21010" />
<path d="
M 1010 508 
L 1010 512 
Q 995 510 , 987 509 
Q 979 508 , 969 508 
Q 948 508 , 938 511 
Q 926 513 , 926 517 
Q 926 522 , 938 524 
Q 948 526 , 969 526 
Q 979 526 , 987 525 
Q 995 525 , 1010 523 
L 1010 526 
Q 999 527 , 989 528 
Q 979 528 , 968 528 
Q 941 528 , 926 525 
Q 910 522 , 910 517 
Q 910 512 , 926 509 
Q 941 506 , 968 506 
Q 979 506 , 989 507 
Q 1000 507 , 1010 508 
" fill="#545FFF" />
<path d="
M 994 476 
L 994 421 
L 965 421 
L 965 398 
L 1010 398 
L 1010 490 
Q 999 499 , 988 502 
Q 979 505 , 967 506 
Q 941 506 , 925 478 
Q 910 451 , 910 403 
Q 910 355 , 925 328 
Q 941 300 , 967 300 
Q 978 300 , 987 304 
Q 997 307 , 1007 317 
L 1007 343 
Q 994 331 , 986 328 
Q 977 325 , 968 325 
Q 947 325 , 936 344 
Q 926 363 , 926 403 
Q 926 443 , 936 463 
Q 947 483 , 968 483 
Q 977 483 , 984 481 
Q 991 479 , 994 476 
" fill="#F5C000" />
<path d="
M 1065 548 
L 1047 551 
L 1081 551 
L 1065 548 
M 1058 547 
L 1072 547 
L 1115 554 
L 1099 554 
L 1087 552 
L 1043 552 
L 1030 554 
L 1015 554 
L 1058 547 
" fill="#339541" />
<path d="
M 1015 538 
L 1033 538 
L 1033 543 
Q 1033 544 , 1041 545 
Q 1048 545 , 1065 545 
Q 1082 545 , 1090 545 
Q 1097 544 , 1097 543 
L 1097 538 
L 1115 538 
L 1115 543 
Q 1115 544 , 1102 545 
Q 1090 546 , 1065 546 
Q 1041 546 , 1028 545 
Q 1015 544 , 1015 543 
L 1015 538 
" fill="#D21010" />
<path d="
M 1115 505 
L 1115 511 
Q 1100 507 , 1092 506 
Q 1084 505 , 1074 505 
Q 1053 505 , 1043 509 
Q 1031 512 , 1031 519 
Q 1031 527 , 1043 530 
Q 1053 534 , 1074 534 
Q 1084 534 , 1092 533 
Q 1100 532 , 1115 528 
L 1115 534 
Q 1104 536 , 1094 537 
Q 1084 538 , 1073 538 
Q 1046 538 , 1031 533 
Q 1015 528 , 1015 519 
Q 1015 511 , 1031 506 
Q 1046 501 , 1073 501 
Q 1084 501 , 1094 502 
Q 1105 503 , 1115 505 
" fill="#545FFF" />
<path d="
M 1099 493 
L 1099 479 
L 1070 479 
L 1070 473 
L 1115 473 
L 1115 496 
Q 1104 499 , 1093 499 
Q 1084 500 , 1072 500 
Q 1046 500 , 1030 493 
Q 1015 486 , 1015 474 
Q 1015 462 , 1030 455 
Q 1046 448 , 1072 448 
Q 1083 448 , 1092 449 
Q 1102 450 , 1112 452 
L 1112 459 
Q 1099 456 , 1091 455 
Q 1082 454 , 1073 454 
Q 1052 454 , 1041 459 
Q 1031 464 , 1031 474 
Q 1031 485 , 1041 490 
Q 1052 495 , 1073 495 
Q 1082 495 , 1089 494 
Q 1096 494 , 1099 493 
" fill="#F5C000" />
<path d="
M 1220 554 
L 1220 554 
Q 1205 554 , 1197 554 
Q 1189 554 , 1179 554 
Q 1158 554 , 1148 554 
Q 1136 554 , 1136 554 
Q 1136 554 , 1148 555 
Q 1158 555 , 1179 555 
Q 1189 555 , 1197 555 
Q 1205 555 , 1220 554 
L 1220 555 
Q 1209 555 , 1199 555 
Q 1189 555 , 1178 555 
Q 1151 555 , 1136 555 
Q 1120 554 , 1120 554 
Q 1120 554 , 1136 554 
Q 1151 554 , 1178 554 
Q 1189 554 , 1199 554 
Q 1210 554 , 1220 554 
" fill="#545FFF" />
<path d="
M 1120 553 
L 1138 553 
L 1138 553 
Q 1138 554 , 1146 554 
Q 1153 554 , 1170 554 
Q 1187 554 , 1195 554 
Q 1202 554 , 1202 553 
L 1202 553 
L 1220 553 
L 1220 553 
Q 1220 554 , 1207 554 
Q 1195 554 , 1170 554 
Q 1146 554 , 1133 554 
Q 1120 554 , 1120 553 
L 1120 553 
" fill="#D21010" />
<path d="
M 1204 553 
L 1204 552 
L 1175 552 
L 1175 552 
L 1220 552 
L 1220 553 
Q 1209 553 , 1198 553 
Q 1189 553 , 1177 553 
Q 1151 553 , 1135 553 
Q 1120 553 , 1120 552 
Q 1120 552 , 1135 552 
Q 1151 552 , 1177 552 
Q 1188 552 , 1197 552 
Q 1207 552 , 1217 552 
L 1217 552 
Q 1204 552 , 1196 552 
Q 1187 552 , 1178 552 
Q 1157 552 , 1146 552 
Q 1136 552 , 1136 552 
Q 1136 553 , 1146 553 
Q 1157 553 , 1178 553 
Q 1187 553 , 1194 553 
Q 1201 553 , 1204 553 
" fill="#F5C000" />
<path d="
M 1170 551 
L 1152 552 
L 1186 552 
L 1170 551 
M 1163 551 
L 1177 551 
L 1220 552 
L 1204 552 
L 1192 552 
L 1148 552 
L 1135 552 
L 1120 552 
L 1163 551 
" fill="#339541" />
<path d="
M 1275 553 
L 1257 554 
L 1291 554 
L 1275 553 
M 1268 553 
L 1282 553 
L 1325 555 
L 1309 555 
L 1297 554 
L 1253 554 
L 1240 555 
L 1225 555 
L 1268 553 
" fill="#339541" />
<path d="
M 1225 550 
L 1243 550 
L 1243 551 
Q 1243 552 , 1251 552 
Q 1258 552 , 1275 552 
Q 1292 552 , 1300 552 
Q 1307 552 , 1307 551 
L 1307 550 
L 1325 550 
L 1325 551 
Q 1325 552 , 1312 552 
Q 1300 552 , 1275 552 
Q 1251 552 , 1238 552 
Q 1225 552 , 1225 551 
L 1225 550 
" fill="#D21010" />
<path d="
M 1325 547 
L 1325 548 
Q 1310 547 , 1302 547 
Q 1294 547 , 1284 547 
Q 1263 547 , 1253 548 
Q 1241 548 , 1241 548 
Q 1241 549 , 1253 549 
Q 1263 549 , 1284 549 
Q 1294 549 , 1302 549 
Q 1310 549 , 1325 549 
L 1325 549 
Q 1314 550 , 1304 550 
Q 1294 550 , 1283 550 
Q 1256 550 , 1241 549 
Q 1225 549 , 1225 548 
Q 1225 548 , 1241 547 
Q 1256 547 , 1283 547 
Q 1294 547 , 1304 547 
Q 1315 547 , 1325 547 
" fill="#545FFF" />
<path d="
M 1309 546 
L 1309 545 
L 1280 545 
L 1280 545 
L 1325 545 
L 1325 546 
Q 1314 546 , 1303 547 
Q 1294 547 , 1282 547 
Q 1256 547 , 1240 546 
Q 1225 546 , 1225 545 
Q 1225 544 , 1240 543 
Q 1256 543 , 1282 543 
Q 1293 543 , 1302 543 
Q 1312 543 , 1322 543 
L 1322 544 
Q 1309 544 , 1301 543 
Q 1292 543 , 1283 543 
Q 1262 543 , 1251 544 
Q 1241 544 , 1241 545 
Q 1241 545 , 1251 546 
Q 1262 546 , 1283 546 
Q 1292 546 , 1299 546 
Q 1306 546 , 1309 546 
" fill="#F5C000" />
<path d="M 65 55 L 65 555 " stroke="black" stroke-width="1.5"/>
<path d="M 55 555 L 65 555 " stroke="black" stroke-width="4"/>
<text text-anchor="end" x="50" y="555" font-size="50" alignment-baseline="middle">0</text>
<path d="M 55 305 L 65 305 " stroke="black" stroke-width="4"/>
<text text-anchor="end" x="50" y="305" font-size="50" alignment-baseline="middle">1</text>
<path d="M 55 55 L 65 55 " stroke="black" stroke-width="4"/>
<text text-anchor="end" x="50" y="55" font-size="50" alignment-baseline="middle">2</text>
<text text-anchor="middle" x="697" y="50" font-size="50" alignment-baseline="baseline"></text>
G<path d="
M 160 582 
L 126 595 
L 160 608 
L 157 611 
L 123 598 
L 123 623 
L 117 623 
L 117 599 
L 83 611 
L 80 608 
L 114 595 
L 80 582 
L 83 579 
L 117 591 
L 117 567 
L 123 567 
L 123 591 
L 157 579 
L 160 582 
" fill="black" />
<path d="
" fill="black" />
<path d="
M 211 567 
L 238 567 
L 238 623 
L 211 623 
L 211 567 
" fill="black" />
<path d="
" fill="black" />
<path d="
" fill="black" />
<path d="
M 316 567 
L 343 567 
L 343 623 
L 316 623 
L 316 567 
" fill="black" />
<path d="
" fill="black" />
<path d="
" fill="black" />
<path d="
M 421 567 
L 448 567 
L 448 623 
L 421 623 
L 421 567 
" fill="black" />
<path d="
" fill="black" />
<path d="
" fill="black" />
<path d="
M 526 567 
L 553 567 
L 553 623 
L 526 623 
L 526 567 
" fill="black" />
<path d="
" fill="black" />
<path d="
" fill="black" />
<path d="
M 631 567 
L 658 567 
L 658 623 
L 631 623 
L 631 567 
" fill="black" />
<path d="
" fill="black" />
<path d="
" fill="black" />
<path d="
M 736 567 
L 763 567 
L 763 623 
L 736 623 
L 736 567 
" fill="black" />
<path d="
" fill="black" />
<path d="
" fill="black" />
<path d="
M 841 567 
L 868 567 
L 868 623 
L 841 623 
L 841 567 
" fill="black" />
<path d="
" fill="black" />
<path d="
" fill="black" />
<path d="
M 946 567 
L 973 567 
L 973 623 
L 946 623 
L 946 567 
" fill="black" />
<path d="
" fill="black" />
<path d="
" fill="black" />
<path d="
M 1051 567 
L 1078 567 
L 1078 623 
L 1051 623 
L 1051 567 
" fill="black" />
<path d="
" fill="black" />
<path d="
" fill="black" />
<path d="
M 1156 567 
L 1183 567 
L 1183 623 
L 1156 623 
L 1156 567 
" fill="black" />
<path d="
" fill="black" />
<path d="
M 1315 582 
L 1281 595 
L 1315 608 
L 1312 611 
L 1278 598 
L 1278 623 
L 1272 623 
L 1272 599 
L 1238 611 
L 1235 608 
L 1269 595 
L 1235 582 
L 1238 579 
L 1272 591 
L 1272 567 
L 1278 567 
L 1278 591 
L 1312 579 
L 1315 582 
" fill="black" />
</svg>
