<svg xmlns="http://www.w3.org/2000/svg"
viewBox="0 0 1330 635">
<path d="
M 120 552 
L 102 553 
L 136 553 
L 120 552 
M 113 552 
L 127 552 
L 170 554 
L 154 554 
L 142 554 
L 98 554 
L 85 554 
L 70 554 
L 113 552 
" fill="#339541" />
<path d="
M 170 549 
L 170 550 
Q 155 549 , 147 549 
Q 139 549 , 129 549 
Q 108 549 , 98 550 
Q 86 550 , 86 550 
Q 86 551 , 98 551 
Q 108 551 , 129 551 
Q 139 551 , 147 551 
Q 155 551 , 170 551 
L 170 551 
Q 159 551 , 149 551 
Q 139 552 , 128 552 
Q 101 552 , 86 551 
Q 70 551 , 70 550 
Q 70 550 , 86 549 
Q 101 549 , 128 549 
Q 139 549 , 149 549 
Q 160 549 , 170 549 
" fill="#545FFF" />
<path d="
M 70 546 
L 88 546 
L 88 548 
Q 88 548 , 96 548 
Q 103 548 , 120 548 
Q 137 548 , 145 548 
Q 152 548 , 152 548 
L 152 546 
L 170 546 
L 170 548 
Q 170 548 , 157 548 
Q 145 549 , 120 549 
Q 96 549 , 83 548 
Q 70 548 , 70 548 
L 70 546 
" fill="#D21010" />
<path d="
M 154 545 
L 154 543 
L 125 543 
L 125 543 
L 170 543 
L 170 545 
Q 159 545 , 148 545 
Q 139 545 , 127 545 
Q 101 545 , 85 545 
Q 70 544 , 70 543 
Q 70 542 , 85 542 
Q 101 541 , 127 541 
Q 138 541 , 147 541 
Q 157 541 , 167 541 
L 167 542 
Q 154 542 , 146 542 
Q 137 541 , 128 541 
Q 107 541 , 96 542 
Q 86 542 , 86 543 
Q 86 544 , 96 544 
Q 107 545 , 128 545 
Q 137 545 , 144 545 
Q 151 545 , 154 545 
" fill="#F5C000" />
<path d="
M 225 552 
L 207 554 
L 241 554 
L 225 552 
M 218 552 
L 232 552 
L 275 555 
L 259 555 
L 247 554 
L 203 554 
L 190 555 
L 175 555 
L 218 552 
" fill="#339541" />
<path d="
M 175 536 
L 193 536 
L 193 545 
Q 193 548 , 201 549 
Q 208 550 , 225 550 
Q 242 550 , 250 549 
Q 257 548 , 257 545 
L 257 536 
L 275 536 
L 275 545 
Q 275 548 , 262 550 
Q 250 552 , 225 552 
Q 201 552 , 188 550 
Q 175 548 , 175 545 
L 175 536 
" fill="#D21010" />
<path d="
M 275 501 
L 275 507 
Q 260 503 , 252 502 
Q 244 501 , 234 501 
Q 213 501 , 203 505 
Q 191 509 , 191 516 
Q 191 524 , 203 528 
Q 213 532 , 234 532 
Q 244 532 , 252 531 
Q 260 529 , 275 526 
L 275 532 
Q 264 534 , 254 535 
Q 244 536 , 233 536 
Q 206 536 , 191 530 
Q 175 525 , 175 516 
Q 175 507 , 191 502 
Q 206 497 , 233 497 
Q 244 497 , 254 498 
Q 265 499 , 275 501 
" fill="#545FFF" />
<path d="
M 259 489 
L 259 474 
L 230 474 
L 230 468 
L 275 468 
L 275 492 
Q 264 495 , 253 496 
Q 244 497 , 232 497 
Q 206 497 , 190 489 
Q 175 482 , 175 469 
Q 175 456 , 190 448 
Q 206 441 , 232 441 
Q 243 441 , 252 442 
Q 262 443 , 272 446 
L 272 453 
Q 259 449 , 251 449 
Q 242 448 , 233 448 
Q 212 448 , 201 453 
Q 191 458 , 191 469 
Q 191 480 , 201 485 
Q 212 491 , 233 491 
Q 242 491 , 249 490 
Q 256 489 , 259 489 
" fill="#F5C000" />
<path d="
M 380 550 
L 380 551 
Q 365 551 , 357 551 
Q 349 550 , 339 550 
Q 318 550 , 308 551 
Q 296 551 , 296 552 
Q 296 553 , 308 553 
Q 318 554 , 339 554 
Q 349 554 , 357 554 
Q 365 554 , 380 553 
L 380 554 
Q 369 554 , 359 554 
Q 349 554 , 338 554 
Q 311 554 , 296 554 
Q 280 553 , 280 552 
Q 280 551 , 296 551 
Q 311 550 , 338 550 
Q 349 550 , 359 550 
Q 370 550 , 380 550 
" fill="#545FFF" />
<path d="
M 364 548 
L 364 544 
L 335 544 
L 335 543 
L 380 543 
L 380 549 
Q 369 549 , 358 549 
Q 349 550 , 337 550 
Q 311 550 , 295 548 
Q 280 546 , 280 543 
Q 280 540 , 295 539 
Q 311 537 , 337 537 
Q 348 537 , 357 537 
Q 367 537 , 377 538 
L 377 540 
Q 364 539 , 356 539 
Q 347 538 , 338 538 
Q 317 538 , 306 540 
Q 296 541 , 296 543 
Q 296 546 , 306 547 
Q 317 548 , 338 548 
Q 347 548 , 354 548 
Q 361 548 , 364 548 
" fill="#F5C000" />
<path d="
M 330 525 
L 312 530 
L 346 530 
L 330 525 
M 323 522 
L 337 522 
L 380 536 
L 364 536 
L 352 532 
L 308 532 
L 295 536 
L 280 536 
L 323 522 
" fill="#339541" />
<path d="
M 280 495 
L 298 495 
L 298 511 
Q 298 515 , 306 517 
Q 313 519 , 330 519 
Q 347 519 , 355 517 
Q 362 515 , 362 511 
L 362 495 
L 380 495 
L 380 511 
Q 380 516 , 367 519 
Q 355 522 , 330 522 
Q 306 522 , 293 519 
Q 280 516 , 280 511 
L 280 495 
" fill="#D21010" />
<path d="
M 385 547 
L 403 547 
L 403 551 
Q 403 552 , 411 553 
Q 418 553 , 435 553 
Q 452 553 , 460 553 
Q 467 552 , 467 551 
L 467 547 
L 485 547 
L 485 551 
Q 485 553 , 472 553 
Q 460 554 , 435 554 
Q 411 554 , 398 553 
Q 385 553 , 385 551 
L 385 547 
" fill="#D21010" />
<path d="
M 485 539 
L 485 540 
Q 470 539 , 462 539 
Q 454 539 , 444 539 
Q 423 539 , 413 540 
Q 401 541 , 401 542 
Q 401 544 , 413 545 
Q 423 545 , 444 545 
Q 454 545 , 462 545 
Q 470 545 , 485 544 
L 485 545 
Q 474 546 , 464 546 
Q 454 546 , 443 546 
Q 416 546 , 401 545 
Q 385 544 , 385 542 
Q 385 540 , 401 539 
Q 416 538 , 443 538 
Q 454 538 , 464 538 
Q 475 538 , 485 539 
" fill="#545FFF" />
<path d="
M 435 530 
L 417 534 
L 451 534 
L 435 530 
M 428 528 
L 442 528 
L 485 537 
L 469 537 
L 457 535 
L 413 535 
L 400 537 
L 385 537 
L 428 528 
" fill="#339541" />
<path d="
M 469 475 
L 469 377 
L 440 377 
L 440 337 
L 485 337 
L 485 500 
Q 474 515 , 463 521 
Q 454 527 , 442 527 
Q 416 527 , 400 479 
Q 385 430 , 385 345 
Q 385 260 , 400 212 
Q 416 163 , 442 163 
Q 453 163 , 462 169 
Q 472 176 , 482 193 
L 482 239 
Q 469 218 , 461 212 
Q 452 206 , 443 206 
Q 422 206 , 411 240 
Q 401 275 , 401 345 
Q 401 417 , 411 452 
Q 422 487 , 443 487 
Q 452 487 , 459 483 
Q 466 480 , 469 475 
" fill="#F5C000" />
<path d="
M 590 551 
L 590 551 
Q 575 551 , 567 551 
Q 559 551 , 549 551 
Q 528 551 , 518 551 
Q 506 551 , 506 552 
Q 506 553 , 518 554 
Q 528 554 , 549 554 
Q 559 554 , 567 554 
Q 575 554 , 590 553 
L 590 554 
Q 579 554 , 569 555 
Q 559 555 , 548 555 
Q 521 555 , 506 554 
Q 490 553 , 490 552 
Q 490 551 , 506 551 
Q 521 550 , 548 550 
Q 559 550 , 569 550 
Q 580 550 , 590 551 
" fill="#545FFF" />
<path d="
M 540 533 
L 522 541 
L 556 541 
L 540 533 
M 533 529 
L 547 529 
L 590 549 
L 574 549 
L 562 543 
L 518 543 
L 505 549 
L 490 549 
L 533 529 
" fill="#339541" />
<path d="
M 490 501 
L 508 501 
L 508 517 
Q 508 522 , 516 524 
Q 523 526 , 540 526 
Q 557 526 , 565 524 
Q 572 522 , 572 517 
L 572 501 
L 590 501 
L 590 518 
Q 590 523 , 577 526 
Q 565 529 , 540 529 
Q 516 529 , 503 526 
Q 490 523 , 490 518 
L 490 501 
" fill="#D21010" />
<path d="
M 574 487 
L 574 460 
L 545 460 
L 545 450 
L 590 450 
L 590 493 
Q 579 497 , 568 499 
Q 559 500 , 547 501 
Q 521 501 , 505 487 
Q 490 475 , 490 452 
Q 490 429 , 505 416 
Q 521 403 , 547 403 
Q 558 403 , 567 405 
Q 577 406 , 587 411 
L 587 423 
Q 574 418 , 566 416 
Q 557 415 , 548 415 
Q 527 415 , 516 424 
Q 506 433 , 506 452 
Q 506 471 , 516 480 
Q 527 490 , 548 490 
Q 557 490 , 564 489 
Q 571 488 , 574 487 
" fill="#F5C000" />
<path d="
M 595 547 
L 613 547 
L 613 552 
Q 613 553 , 621 553 
Q 628 554 , 645 554 
Q 662 554 , 670 553 
Q 677 553 , 677 552 
L 677 547 
L 695 547 
L 695 552 
Q 695 553 , 682 554 
Q 670 555 , 645 555 
Q 621 555 , 608 554 
Q 595 553 , 595 552 
L 595 547 
" fill="#D21010" />
<path d="
M 645 540 
L 627 543 
L 661 543 
L 645 540 
M 638 538 
L 652 538 
L 695 546 
L 679 546 
L 667 544 
L 623 544 
L 610 546 
L 595 546 
L 638 538 
" fill="#339541" />
<path d="
M 695 502 
L 695 508 
Q 680 504 , 672 503 
Q 664 502 , 654 502 
Q 633 502 , 623 506 
Q 611 510 , 611 518 
Q 611 526 , 623 530 
Q 633 533 , 654 533 
Q 664 533 , 672 532 
Q 680 531 , 695 527 
L 695 534 
Q 684 536 , 674 537 
Q 664 538 , 653 538 
Q 626 538 , 611 532 
Q 595 527 , 595 518 
Q 595 509 , 611 503 
Q 626 498 , 653 498 
Q 664 498 , 674 499 
Q 685 500 , 695 502 
" fill="#545FFF" />
<path d="
M 679 487 
L 679 467 
L 650 467 
L 650 459 
L 695 459 
L 695 492 
Q 684 495 , 673 497 
Q 664 498 , 652 498 
Q 626 498 , 610 488 
Q 595 478 , 595 461 
Q 595 444 , 610 434 
Q 626 424 , 652 424 
Q 663 424 , 672 425 
Q 682 427 , 692 430 
L 692 439 
Q 679 435 , 671 434 
Q 662 433 , 653 433 
Q 632 433 , 621 440 
Q 611 447 , 611 461 
Q 611 475 , 621 483 
Q 632 490 , 653 490 
Q 662 490 , 669 489 
Q 676 488 , 679 487 
" fill="#F5C000" />
<path d="
M 784 553 
L 784 552 
L 755 552 
L 755 551 
L 800 551 
L 800 554 
Q 789 554 , 778 554 
Q 769 554 , 757 554 
Q 731 554 , 715 553 
Q 700 553 , 700 552 
Q 700 550 , 715 550 
Q 731 549 , 757 549 
Q 768 549 , 777 549 
Q 787 549 , 797 549 
L 797 550 
Q 784 550 , 776 550 
Q 767 550 , 758 550 
Q 737 550 , 726 550 
Q 716 551 , 716 552 
Q 716 553 , 726 553 
Q 737 554 , 758 554 
Q 767 554 , 774 553 
Q 781 553 , 784 553 
" fill="#F5C000" />
<path d="
M 750 540 
L 732 544 
L 766 544 
L 750 540 
M 743 538 
L 757 538 
L 800 548 
L 784 548 
L 772 545 
L 728 545 
L 715 548 
L 700 548 
L 743 538 
" fill="#339541" />
<path d="
M 700 496 
L 718 496 
L 718 521 
Q 718 527 , 726 530 
Q 733 533 , 750 533 
Q 767 533 , 775 530 
Q 782 527 , 782 521 
L 782 496 
L 800 496 
L 800 521 
Q 800 529 , 787 533 
Q 775 538 , 750 538 
Q 726 538 , 713 533 
Q 700 529 , 700 521 
L 700 496 
" fill="#D21010" />
<path d="
M 800 446 
L 800 454 
Q 785 449 , 777 448 
Q 769 446 , 759 446 
Q 738 446 , 728 452 
Q 716 457 , 716 468 
Q 716 479 , 728 484 
Q 738 489 , 759 489 
Q 769 489 , 777 488 
Q 785 487 , 800 481 
L 800 490 
Q 789 493 , 779 494 
Q 769 496 , 758 496 
Q 731 496 , 716 488 
Q 700 481 , 700 468 
Q 700 455 , 716 448 
Q 731 440 , 758 440 
Q 769 440 , 779 441 
Q 790 443 , 800 446 
" fill="#545FFF" />
<path d="
M 855 548 
L 837 552 
L 871 552 
L 855 548 
M 848 547 
L 862 547 
L 905 555 
L 889 555 
L 877 553 
L 833 553 
L 820 555 
L 805 555 
L 848 547 
" fill="#339541" />
<path d="
M 805 537 
L 823 537 
L 823 543 
Q 823 544 , 831 545 
Q 838 546 , 855 546 
Q 872 546 , 880 545 
Q 887 544 , 887 543 
L 887 537 
L 905 537 
L 905 543 
Q 905 545 , 892 546 
Q 880 547 , 855 547 
Q 831 547 , 818 546 
Q 805 545 , 805 543 
L 805 537 
" fill="#D21010" />
<path d="
M 905 523 
L 905 525 
Q 890 523 , 882 523 
Q 874 523 , 864 523 
Q 843 523 , 833 524 
Q 821 526 , 821 529 
Q 821 532 , 833 533 
Q 843 535 , 864 535 
Q 874 535 , 882 534 
Q 890 534 , 905 532 
L 905 535 
Q 894 535 , 884 536 
Q 874 536 , 863 536 
Q 836 536 , 821 534 
Q 805 532 , 805 529 
Q 805 525 , 821 523 
Q 836 521 , 863 521 
Q 874 521 , 884 521 
Q 895 522 , 905 523 
" fill="#545FFF" />
<path d="
M 889 515 
L 889 506 
L 860 506 
L 860 502 
L 905 502 
L 905 518 
Q 894 519 , 883 520 
Q 874 521 , 862 521 
Q 836 521 , 820 516 
Q 805 511 , 805 502 
Q 805 494 , 820 489 
Q 836 484 , 862 484 
Q 873 484 , 882 485 
Q 892 485 , 902 487 
L 902 492 
Q 889 490 , 881 489 
Q 872 488 , 863 488 
Q 842 488 , 831 492 
Q 821 495 , 821 502 
Q 821 510 , 831 513 
Q 842 517 , 863 517 
Q 872 517 , 879 516 
Q 886 516 , 889 515 
" fill="#F5C000" />
<path d="
M 1010 545 
L 1010 547 
Q 995 546 , 987 545 
Q 979 545 , 969 545 
Q 948 545 , 938 546 
Q 926 547 , 926 549 
Q 926 551 , 938 552 
Q 948 553 , 969 553 
Q 979 553 , 987 553 
Q 995 553 , 1010 552 
L 1010 553 
Q 999 554 , 989 554 
Q 979 554 , 968 554 
Q 941 554 , 926 553 
Q 910 552 , 910 549 
Q 910 547 , 926 545 
Q 941 544 , 968 544 
Q 979 544 , 989 544 
Q 1000 545 , 1010 545 
" fill="#545FFF" />
<path d="
M 960 535 
L 942 539 
L 976 539 
L 960 535 
M 953 533 
L 967 533 
L 1010 543 
L 994 543 
L 982 540 
L 938 540 
L 925 543 
L 910 543 
L 953 533 
" fill="#339541" />
<path d="
M 910 500 
L 928 500 
L 928 519 
Q 928 525 , 936 527 
Q 943 529 , 960 529 
Q 977 529 , 985 527 
Q 992 525 , 992 519 
L 992 500 
L 1010 500 
L 1010 520 
Q 1010 526 , 997 529 
Q 985 533 , 960 533 
Q 936 533 , 923 529 
Q 910 526 , 910 520 
L 910 500 
" fill="#D21010" />
<path d="
M 994 478 
L 994 439 
L 965 439 
L 965 423 
L 1010 423 
L 1010 488 
Q 999 494 , 988 496 
Q 979 499 , 967 499 
Q 941 499 , 925 480 
Q 910 460 , 910 427 
Q 910 393 , 925 373 
Q 941 354 , 967 354 
Q 978 354 , 987 357 
Q 997 359 , 1007 366 
L 1007 384 
Q 994 376 , 986 374 
Q 977 371 , 968 371 
Q 947 371 , 936 385 
Q 926 399 , 926 427 
Q 926 455 , 936 469 
Q 947 483 , 968 483 
Q 977 483 , 984 482 
Q 991 480 , 994 478 
" fill="#F5C000" />
<path d="
M 1115 548 
L 1115 549 
Q 1100 548 , 1092 548 
Q 1084 548 , 1074 548 
Q 1053 548 , 1043 549 
Q 1031 549 , 1031 551 
Q 1031 553 , 1043 553 
Q 1053 554 , 1074 554 
Q 1084 554 , 1092 554 
Q 1100 554 , 1115 553 
L 1115 554 
Q 1104 555 , 1094 555 
Q 1084 555 , 1073 555 
Q 1046 555 , 1031 554 
Q 1015 553 , 1015 551 
Q 1015 549 , 1031 548 
Q 1046 547 , 1073 547 
Q 1084 547 , 1094 547 
Q 1105 547 , 1115 548 
" fill="#545FFF" />
<path d="
M 1015 533 
L 1033 533 
L 1033 541 
Q 1033 543 , 1041 544 
Q 1048 545 , 1065 545 
Q 1082 545 , 1090 544 
Q 1097 543 , 1097 541 
L 1097 533 
L 1115 533 
L 1115 541 
Q 1115 544 , 1102 545 
Q 1090 547 , 1065 547 
Q 1041 547 , 1028 545 
Q 1015 544 , 1015 541 
L 1015 533 
" fill="#D21010" />
<path d="
M 1065 521 
L 1047 527 
L 1081 527 
L 1065 521 
M 1058 518 
L 1072 518 
L 1115 533 
L 1099 533 
L 1087 529 
L 1043 529 
L 1030 533 
L 1015 533 
L 1058 518 
" fill="#339541" />
<path d="
M 1099 475 
L 1099 396 
L 1070 396 
L 1070 363 
L 1115 363 
L 1115 495 
Q 1104 507 , 1093 512 
Q 1084 517 , 1072 517 
Q 1046 517 , 1030 478 
Q 1015 439 , 1015 370 
Q 1015 301 , 1030 262 
Q 1046 222 , 1072 222 
Q 1083 222 , 1092 227 
Q 1102 233 , 1112 246 
L 1112 284 
Q 1099 267 , 1091 262 
Q 1082 257 , 1073 257 
Q 1052 257 , 1041 285 
Q 1031 313 , 1031 370 
Q 1031 428 , 1041 456 
Q 1052 484 , 1073 484 
Q 1082 484 , 1089 481 
Q 1096 478 , 1099 475 
" fill="#F5C000" />
<path d="
M 1170 549 
L 1152 552 
L 1186 552 
L 1170 549 
M 1163 548 
L 1177 548 
L 1220 554 
L 1204 554 
L 1192 552 
L 1148 552 
L 1135 554 
L 1120 554 
L 1163 548 
" fill="#339541" />
<path d="
M 1120 539 
L 1138 539 
L 1138 544 
Q 1138 546 , 1146 546 
Q 1153 547 , 1170 547 
Q 1187 547 , 1195 546 
Q 1202 546 , 1202 544 
L 1202 539 
L 1220 539 
L 1220 544 
Q 1220 546 , 1207 547 
Q 1195 548 , 1170 548 
Q 1146 548 , 1133 547 
Q 1120 546 , 1120 544 
L 1120 539 
" fill="#D21010" />
<path d="
M 1220 530 
L 1220 531 
Q 1205 531 , 1197 530 
Q 1189 530 , 1179 530 
Q 1158 530 , 1148 531 
Q 1136 532 , 1136 533 
Q 1136 535 , 1148 536 
Q 1158 537 , 1179 537 
Q 1189 537 , 1197 537 
Q 1205 537 , 1220 536 
L 1220 537 
Q 1209 538 , 1199 538 
Q 1189 538 , 1178 538 
Q 1151 538 , 1136 537 
Q 1120 536 , 1120 534 
Q 1120 532 , 1136 530 
Q 1151 529 , 1178 529 
Q 1189 529 , 1199 529 
Q 1210 529 , 1220 530 
" fill="#545FFF" />
<path d="
M 1204 525 
L 1204 519 
L 1175 519 
L 1175 517 
L 1220 517 
L 1220 526 
Q 1209 527 , 1198 528 
Q 1189 528 , 1177 528 
Q 1151 528 , 1135 525 
Q 1120 522 , 1120 517 
Q 1120 512 , 1135 509 
Q 1151 506 , 1177 506 
Q 1188 506 , 1197 506 
Q 1207 507 , 1217 508 
L 1217 511 
Q 1204 509 , 1196 509 
Q 1187 509 , 1178 509 
Q 1157 509 , 1146 511 
Q 1136 513 , 1136 517 
Q 1136 521 , 1146 524 
Q 1157 526 , 1178 526 
Q 1187 526 , 1194 525 
Q 1201 525 , 1204 525 
" fill="#F5C000" />
<path d="
M 1275 552 
L 1257 553 
L 1291 553 
L 1275 552 
M 1268 552 
L 1282 552 
L 1325 554 
L 1309 554 
L 1297 554 
L 1253 554 
L 1240 554 
L 1225 554 
L 1268 552 
" fill="#339541" />
<path d="
M 1325 549 
L 1325 550 
Q 1310 549 , 1302 549 
Q 1294 549 , 1284 549 
Q 1263 549 , 1253 550 
Q 1241 550 , 1241 550 
Q 1241 551 , 1253 551 
Q 1263 551 , 1284 551 
Q 1294 551 , 1302 551 
Q 1310 551 , 1325 551 
L 1325 551 
Q 1314 551 , 1304 551 
Q 1294 552 , 1283 552 
Q 1256 552 , 1241 551 
Q 1225 551 , 1225 550 
Q 1225 550 , 1241 549 
Q 1256 549 , 1283 549 
Q 1294 549 , 1304 549 
Q 1315 549 , 1325 549 
" fill="#545FFF" />
<path d="
M 1225 546 
L 1243 546 
L 1243 548 
Q 1243 548 , 1251 548 
Q 1258 548 , 1275 548 
Q 1292 548 , 1300 548 
Q 1307 548 , 1307 548 
L 1307 546 
L 1325 546 
L 1325 548 
Q 1325 548 , 1312 548 
Q 1300 549 , 1275 549 
Q 1251 549 , 1238 548 
Q 1225 548 , 1225 548 
L 1225 546 
" fill="#D21010" />
<path d="
M 1309 545 
L 1309 543 
L 1280 543 
L 1280 543 
L 1325 543 
L 1325 545 
Q 1314 545 , 1303 545 
Q 1294 545 , 1282 545 
Q 1256 545 , 1240 545 
Q 1225 544 , 1225 543 
Q 1225 542 , 1240 542 
Q 1256 541 , 1282 541 
Q 1293 541 , 1302 541 
Q 1312 541 , 1322 541 
L 1322 542 
Q 1309 542 , 1301 542 
Q 1292 541 , 1283 541 
Q 1262 541 , 1251 542 
Q 1241 542 , 1241 543 
Q 1241 544 , 1251 544 
Q 1262 545 , 1283 545 
Q 1292 545 , 1299 545 
Q 1306 545 , 1309 545 
" fill="#F5C000" />
<path d="M 65 55 L 65 555 " stroke="black" stroke-width="1.5"/>
<path d="M 55 555 L 65 555 " stroke="black" stroke-width="4"/>
<text text-anchor="end" x="50" y="555" font-size="50" alignment-baseline="middle">0</text>
<path d="M 55 305 L 65 305 " stroke="black" stroke-width="4"/>
<text text-anchor="end" x="50" y="305" font-size="50" alignment-baseline="middle">1</text>
<path d="M 55 55 L 65 55 " stroke="black" stroke-width="4"/>
<text text-anchor="end" x="50" y="55" font-size="50" alignment-baseline="middle">2</text>
<text text-anchor="middle" x="697" y="50" font-size="50" alignment-baseline="baseline"></text>
G<path d="
M 160 582 
L 126 595 
L 160 608 
L 157 611 
L 123 598 
L 123 623 
L 117 623 
L 117 599 
L 83 611 
L 80 608 
L 114 595 
L 80 582 
L 83 579 
L 117 591 
L 117 567 
L 123 567 
L 123 591 
L 157 579 
L 160 582 
" fill="black" />
<path d="
" fill="black" />
<path d="
M 211 567 
L 238 567 
L 238 623 
L 211 623 
L 211 567 
" fill="black" />
<path d="
" fill="black" />
<path d="
" fill="black" />
<path d="
M 316 567 
L 343 567 
L 343 623 
L 316 623 
L 316 567 
" fill="black" />
<path d="
" fill="black" />
<path d="
" fill="black" />
<path d="
M 421 567 
L 448 567 
L 448 623 
L 421 623 
L 421 567 
" fill="black" />
<path d="
" fill="black" />
<path d="
" fill="black" />
<path d="
M 526 567 
L 553 567 
L 553 623 
L 526 623 
L 526 567 
" fill="black" />
<path d="
" fill="black" />
<path d="
" fill="black" />
<path d="
M 631 567 
L 658 567 
L 658 623 
L 631 623 
L 631 567 
" fill="black" />
<path d="
" fill="black" />
<path d="
" fill="black" />
<path d="
M 736 567 
L 763 567 
L 763 623 
L 736 623 
L 736 567 
" fill="black" />
<path d="
" fill="black" />
<path d="
" fill="black" />
<path d="
M 841 567 
L 868 567 
L 868 623 
L 841 623 
L 841 567 
" fill="black" />
<path d="
" fill="black" />
<path d="
" fill="black" />
<path d="
M 946 567 
L 973 567 
L 973 623 
L 946 623 
L 946 567 
" fill="black" />
<path d="
" fill="black" />
<path d="
" fill="black" />
<path d="
M 1051 567 
L 1078 567 
L 1078 623 
L 1051 623 
L 1051 567 
" fill="black" />
<path d="
" fill="black" />
<path d="
" fill="black" />
<path d="
M 1156 567 
L 1183 567 
L 1183 623 
L 1156 623 
L 1156 567 
" fill="black" />
<path d="
" fill="black" />
<path d="
M 1315 582 
L 1281 595 
L 1315 608 
L 1312 611 
L 1278 598 
L 1278 623 
L 1272 623 
L 1272 599 
L 1238 611 
L 1235 608 
L 1269 595 
L 1235 582 
L 1238 579 
L 1272 591 
L 1272 567 
L 1278 567 
L 1278 591 
L 1312 579 
L 1315 582 
" fill="black" />
</svg>
