<svg xmlns="http://www.w3.org/2000/svg"
viewBox="0 0 1330 635">
<path d="
M 120 552 
L 102 553 
L 136 553 
L 120 552 
M 113 552 
L 127 552 
L 170 554 
L 154 554 
L 142 553 
L 98 553 
L 85 554 
L 70 554 
L 113 552 
" fill="#339541" />
<path d="
M 70 549 
L 88 549 
L 88 550 
Q 88 551 , 96 551 
Q 103 551 , 120 551 
Q 137 551 , 145 551 
Q 152 551 , 152 550 
L 152 549 
L 170 549 
L 170 550 
Q 170 551 , 157 551 
Q 145 551 , 120 551 
Q 96 551 , 83 551 
Q 70 551 , 70 550 
L 70 549 
" fill="#D21010" />
<path d="
M 170 546 
L 170 547 
Q 155 546 , 147 546 
Q 139 546 , 129 546 
Q 108 546 , 98 547 
Q 86 547 , 86 547 
Q 86 548 , 98 548 
Q 108 548 , 129 548 
Q 139 548 , 147 548 
Q 155 548 , 170 548 
L 170 548 
Q 159 549 , 149 549 
Q 139 549 , 128 549 
Q 101 549 , 86 548 
Q 70 548 , 70 547 
Q 70 547 , 86 546 
Q 101 546 , 128 546 
Q 139 546 , 149 546 
Q 160 546 , 170 546 
" fill="#545FFF" />
<path d="
M 154 545 
L 154 544 
L 125 544 
L 125 544 
L 170 544 
L 170 545 
Q 159 546 , 148 546 
Q 139 546 , 127 546 
Q 101 546 , 85 545 
Q 70 545 , 70 544 
Q 70 543 , 85 542 
Q 101 542 , 127 542 
Q 138 542 , 147 542 
Q 157 542 , 167 542 
L 167 543 
Q 154 543 , 146 543 
Q 137 542 , 128 542 
Q 107 542 , 96 543 
Q 86 543 , 86 544 
Q 86 545 , 96 545 
Q 107 545 , 128 545 
Q 137 545 , 144 545 
Q 151 545 , 154 545 
" fill="#F5C000" />
<path d="
M 225 552 
L 207 553 
L 241 553 
L 225 552 
M 218 551 
L 232 551 
L 275 554 
L 259 554 
L 247 553 
L 203 553 
L 190 554 
L 175 554 
L 218 551 
" fill="#339541" />
<path d="
M 175 536 
L 193 536 
L 193 545 
Q 193 547 , 201 548 
Q 208 549 , 225 549 
Q 242 549 , 250 548 
Q 257 547 , 257 545 
L 257 536 
L 275 536 
L 275 545 
Q 275 548 , 262 549 
Q 250 551 , 225 551 
Q 201 551 , 188 549 
Q 175 548 , 175 545 
L 175 536 
" fill="#D21010" />
<path d="
M 275 504 
L 275 509 
Q 260 506 , 252 505 
Q 244 504 , 234 504 
Q 213 504 , 203 507 
Q 191 511 , 191 518 
Q 191 525 , 203 528 
Q 213 532 , 234 532 
Q 244 532 , 252 531 
Q 260 530 , 275 526 
L 275 532 
Q 264 534 , 254 535 
Q 244 536 , 233 536 
Q 206 536 , 191 531 
Q 175 526 , 175 518 
Q 175 510 , 191 505 
Q 206 500 , 233 500 
Q 244 500 , 254 501 
Q 265 502 , 275 504 
" fill="#545FFF" />
<path d="
M 259 491 
L 259 475 
L 230 475 
L 230 469 
L 275 469 
L 275 495 
Q 264 497 , 253 498 
Q 244 499 , 232 499 
Q 206 499 , 190 491 
Q 175 484 , 175 470 
Q 175 457 , 190 449 
Q 206 441 , 232 441 
Q 243 441 , 252 442 
Q 262 443 , 272 446 
L 272 453 
Q 259 450 , 251 449 
Q 242 448 , 233 448 
Q 212 448 , 201 453 
Q 191 459 , 191 470 
Q 191 482 , 201 487 
Q 212 493 , 233 493 
Q 242 493 , 249 492 
Q 256 492 , 259 491 
" fill="#F5C000" />
<path d="
M 380 548 
L 380 549 
Q 365 548 , 357 548 
Q 349 548 , 339 548 
Q 318 548 , 308 549 
Q 296 549 , 296 550 
Q 296 552 , 308 553 
Q 318 553 , 339 553 
Q 349 553 , 357 553 
Q 365 553 , 380 552 
L 380 554 
Q 369 554 , 359 554 
Q 349 554 , 338 554 
Q 311 554 , 296 553 
Q 280 552 , 280 551 
Q 280 549 , 296 548 
Q 311 547 , 338 547 
Q 349 547 , 359 547 
Q 370 547 , 380 548 
" fill="#545FFF" />
<path d="
M 280 536 
L 298 536 
L 298 542 
Q 298 544 , 306 544 
Q 313 545 , 330 545 
Q 347 545 , 355 544 
Q 362 544 , 362 542 
L 362 536 
L 380 536 
L 380 542 
Q 380 544 , 367 545 
Q 355 546 , 330 546 
Q 306 546 , 293 545 
Q 280 544 , 280 542 
L 280 536 
" fill="#D21010" />
<path d="
M 330 503 
L 312 519 
L 346 519 
L 330 503 
M 323 496 
L 337 496 
L 380 535 
L 364 535 
L 352 524 
L 308 524 
L 295 535 
L 280 535 
L 323 496 
" fill="#339541" />
<path d="
M 364 474 
L 364 435 
L 335 435 
L 335 419 
L 380 419 
L 380 484 
Q 369 490 , 358 493 
Q 349 495 , 337 495 
Q 311 495 , 295 476 
Q 280 456 , 280 422 
Q 280 388 , 295 369 
Q 311 349 , 337 349 
Q 348 349 , 357 352 
Q 367 354 , 377 361 
L 377 380 
Q 364 371 , 356 369 
Q 347 366 , 338 366 
Q 317 366 , 306 380 
Q 296 394 , 296 422 
Q 296 451 , 306 465 
Q 317 479 , 338 479 
Q 347 479 , 354 477 
Q 361 476 , 364 474 
" fill="#F5C000" />
<path d="
M 435 553 
L 417 554 
L 451 554 
L 435 553 
M 428 553 
L 442 553 
L 485 555 
L 469 555 
L 457 554 
L 413 554 
L 400 555 
L 385 555 
L 428 553 
" fill="#339541" />
<path d="
M 385 529 
L 403 529 
L 403 543 
Q 403 547 , 411 549 
Q 418 550 , 435 550 
Q 452 550 , 460 549 
Q 467 547 , 467 543 
L 467 529 
L 485 529 
L 485 543 
Q 485 548 , 472 550 
Q 460 553 , 435 553 
Q 411 553 , 398 550 
Q 385 548 , 385 543 
L 385 529 
" fill="#D21010" />
<path d="
M 485 504 
L 485 508 
Q 470 505 , 462 505 
Q 454 504 , 444 504 
Q 423 504 , 413 507 
Q 401 509 , 401 514 
Q 401 520 , 413 523 
Q 423 526 , 444 526 
Q 454 526 , 462 525 
Q 470 524 , 485 521 
L 485 526 
Q 474 527 , 464 528 
Q 454 529 , 443 529 
Q 416 529 , 401 525 
Q 385 521 , 385 515 
Q 385 508 , 401 505 
Q 416 501 , 443 501 
Q 454 501 , 464 502 
Q 475 502 , 485 504 
" fill="#545FFF" />
<path d="
M 469 491 
L 469 474 
L 440 474 
L 440 467 
L 485 467 
L 485 496 
Q 474 499 , 463 500 
Q 454 501 , 442 501 
Q 416 501 , 400 492 
Q 385 483 , 385 468 
Q 385 453 , 400 445 
Q 416 436 , 442 436 
Q 453 436 , 462 437 
Q 472 438 , 482 441 
L 482 450 
Q 469 446 , 461 445 
Q 452 444 , 443 444 
Q 422 444 , 411 450 
Q 401 456 , 401 468 
Q 401 481 , 411 487 
Q 422 494 , 443 494 
Q 452 494 , 459 493 
Q 466 492 , 469 491 
" fill="#F5C000" />
<path d="
M 490 545 
L 508 545 
L 508 550 
Q 508 552 , 516 553 
Q 523 553 , 540 553 
Q 557 553 , 565 553 
Q 572 552 , 572 550 
L 572 545 
L 590 545 
L 590 551 
Q 590 552 , 577 553 
Q 565 554 , 540 554 
Q 516 554 , 503 553 
Q 490 552 , 490 551 
L 490 545 
" fill="#D21010" />
<path d="
M 590 534 
L 590 536 
Q 575 535 , 567 535 
Q 559 534 , 549 534 
Q 528 534 , 518 535 
Q 506 537 , 506 539 
Q 506 541 , 518 542 
Q 528 543 , 549 543 
Q 559 543 , 567 543 
Q 575 543 , 590 542 
L 590 543 
Q 579 544 , 569 544 
Q 559 544 , 548 544 
Q 521 544 , 506 543 
Q 490 541 , 490 539 
Q 490 536 , 506 535 
Q 521 533 , 548 533 
Q 559 533 , 569 533 
Q 580 534 , 590 534 
" fill="#545FFF" />
<path d="
M 540 513 
L 522 523 
L 556 523 
L 540 513 
M 533 508 
L 547 508 
L 590 533 
L 574 533 
L 562 526 
L 518 526 
L 505 533 
L 490 533 
L 533 508 
" fill="#339541" />
<path d="
M 574 497 
L 574 479 
L 545 479 
L 545 471 
L 590 471 
L 590 502 
Q 579 505 , 568 506 
Q 559 507 , 547 507 
Q 521 507 , 505 498 
Q 490 489 , 490 473 
Q 490 457 , 505 447 
Q 521 438 , 547 438 
Q 558 438 , 567 439 
Q 577 440 , 587 444 
L 587 452 
Q 574 449 , 566 447 
Q 557 446 , 548 446 
Q 527 446 , 516 453 
Q 506 459 , 506 473 
Q 506 486 , 516 493 
Q 527 500 , 548 500 
Q 557 500 , 564 499 
Q 571 498 , 574 497 
" fill="#F5C000" />
<path d="
M 645 553 
L 627 554 
L 661 554 
L 645 553 
M 638 553 
L 652 553 
L 695 555 
L 679 555 
L 667 554 
L 623 554 
L 610 555 
L 595 555 
L 638 553 
" fill="#339541" />
<path d="
M 595 529 
L 613 529 
L 613 543 
Q 613 547 , 621 548 
Q 628 550 , 645 550 
Q 662 550 , 670 548 
Q 677 547 , 677 543 
L 677 529 
L 695 529 
L 695 543 
Q 695 548 , 682 550 
Q 670 553 , 645 553 
Q 621 553 , 608 550 
Q 595 548 , 595 543 
L 595 529 
" fill="#D21010" />
<path d="
M 695 504 
L 695 508 
Q 680 505 , 672 505 
Q 664 504 , 654 504 
Q 633 504 , 623 507 
Q 611 509 , 611 514 
Q 611 520 , 623 523 
Q 633 525 , 654 525 
Q 664 525 , 672 525 
Q 680 524 , 695 521 
L 695 525 
Q 684 527 , 674 528 
Q 664 528 , 653 528 
Q 626 528 , 611 525 
Q 595 521 , 595 515 
Q 595 508 , 611 505 
Q 626 501 , 653 501 
Q 664 501 , 674 502 
Q 685 502 , 695 504 
" fill="#545FFF" />
<path d="
M 679 492 
L 679 476 
L 650 476 
L 650 470 
L 695 470 
L 695 496 
Q 684 498 , 673 499 
Q 664 500 , 652 500 
Q 626 500 , 610 492 
Q 595 485 , 595 471 
Q 595 458 , 610 450 
Q 626 442 , 652 442 
Q 663 442 , 672 443 
Q 682 444 , 692 447 
L 692 454 
Q 679 451 , 671 450 
Q 662 449 , 653 449 
Q 632 449 , 621 454 
Q 611 460 , 611 471 
Q 611 483 , 621 488 
Q 632 494 , 653 494 
Q 662 494 , 669 493 
Q 676 493 , 679 492 
" fill="#F5C000" />
<path d="
M 700 552 
L 718 552 
L 718 553 
Q 718 554 , 726 554 
Q 733 554 , 750 554 
Q 767 554 , 775 554 
Q 782 554 , 782 553 
L 782 552 
L 800 552 
L 800 553 
Q 800 554 , 787 554 
Q 775 554 , 750 554 
Q 726 554 , 713 554 
Q 700 554 , 700 553 
L 700 552 
" fill="#D21010" />
<path d="
M 800 549 
L 800 550 
Q 785 549 , 777 549 
Q 769 549 , 759 549 
Q 738 549 , 728 550 
Q 716 550 , 716 550 
Q 716 551 , 728 551 
Q 738 552 , 759 552 
Q 769 552 , 777 551 
Q 785 551 , 800 551 
L 800 552 
Q 789 552 , 779 552 
Q 769 552 , 758 552 
Q 731 552 , 716 551 
Q 700 551 , 700 550 
Q 700 550 , 716 549 
Q 731 549 , 758 549 
Q 769 549 , 779 549 
Q 790 549 , 800 549 
" fill="#545FFF" />
<path d="
M 750 546 
L 732 547 
L 766 547 
L 750 546 
M 743 545 
L 757 545 
L 800 549 
L 784 549 
L 772 548 
L 728 548 
L 715 549 
L 700 549 
L 743 545 
" fill="#339541" />
<path d="
M 784 544 
L 784 543 
L 755 543 
L 755 542 
L 800 542 
L 800 544 
Q 789 544 , 778 544 
Q 769 544 , 757 544 
Q 731 544 , 715 544 
Q 700 543 , 700 542 
Q 700 541 , 715 541 
Q 731 540 , 757 540 
Q 768 540 , 777 540 
Q 787 540 , 797 540 
L 797 541 
Q 784 541 , 776 541 
Q 767 541 , 758 541 
Q 737 541 , 726 541 
Q 716 541 , 716 542 
Q 716 543 , 726 543 
Q 737 544 , 758 544 
Q 767 544 , 774 544 
Q 781 544 , 784 544 
" fill="#F5C000" />
<path d="
M 855 551 
L 837 553 
L 871 553 
L 855 551 
M 848 550 
L 862 550 
L 905 555 
L 889 555 
L 877 553 
L 833 553 
L 820 555 
L 805 555 
L 848 550 
" fill="#339541" />
<path d="
M 905 533 
L 905 536 
Q 890 534 , 882 534 
Q 874 533 , 864 533 
Q 843 533 , 833 535 
Q 821 537 , 821 540 
Q 821 544 , 833 546 
Q 843 548 , 864 548 
Q 874 548 , 882 547 
Q 890 547 , 905 545 
L 905 548 
Q 894 549 , 884 549 
Q 874 550 , 863 550 
Q 836 550 , 821 547 
Q 805 545 , 805 540 
Q 805 536 , 821 534 
Q 836 531 , 863 531 
Q 874 531 , 884 531 
Q 895 532 , 905 533 
" fill="#545FFF" />
<path d="
M 805 503 
L 823 503 
L 823 519 
Q 823 524 , 831 526 
Q 838 527 , 855 527 
Q 872 527 , 880 526 
Q 887 524 , 887 519 
L 887 503 
L 905 503 
L 905 520 
Q 905 525 , 892 528 
Q 880 531 , 855 531 
Q 831 531 , 818 528 
Q 805 525 , 805 520 
L 805 503 
" fill="#D21010" />
<path d="
M 889 490 
L 889 468 
L 860 468 
L 860 459 
L 905 459 
L 905 496 
Q 894 500 , 883 501 
Q 874 502 , 862 502 
Q 836 502 , 820 491 
Q 805 480 , 805 461 
Q 805 441 , 820 430 
Q 836 419 , 862 419 
Q 873 419 , 882 420 
Q 892 422 , 902 426 
L 902 436 
Q 889 432 , 881 430 
Q 872 429 , 863 429 
Q 842 429 , 831 437 
Q 821 445 , 821 461 
Q 821 477 , 831 485 
Q 842 493 , 863 493 
Q 872 493 , 879 492 
Q 886 491 , 889 490 
" fill="#F5C000" />
<path d="
M 910 547 
L 928 547 
L 928 551 
Q 928 553 , 936 553 
Q 943 554 , 960 554 
Q 977 554 , 985 553 
Q 992 553 , 992 551 
L 992 547 
L 1010 547 
L 1010 551 
Q 1010 553 , 997 554 
Q 985 554 , 960 554 
Q 936 554 , 923 554 
Q 910 553 , 910 551 
L 910 547 
" fill="#D21010" />
<path d="
M 960 539 
L 942 543 
L 976 543 
L 960 539 
M 953 538 
L 967 538 
L 1010 546 
L 994 546 
L 982 544 
L 938 544 
L 925 546 
L 910 546 
L 953 538 
" fill="#339541" />
<path d="
M 1010 514 
L 1010 518 
Q 995 515 , 987 515 
Q 979 514 , 969 514 
Q 948 514 , 938 516 
Q 926 519 , 926 524 
Q 926 529 , 938 532 
Q 948 535 , 969 535 
Q 979 535 , 987 534 
Q 995 533 , 1010 531 
L 1010 535 
Q 999 536 , 989 537 
Q 979 537 , 968 537 
Q 941 537 , 926 534 
Q 910 530 , 910 524 
Q 910 518 , 926 515 
Q 941 511 , 968 511 
Q 979 511 , 989 512 
Q 1000 512 , 1010 514 
" fill="#545FFF" />
<path d="
M 994 471 
L 994 398 
L 965 398 
L 965 368 
L 1010 368 
L 1010 489 
Q 999 501 , 988 505 
Q 979 510 , 967 510 
Q 941 510 , 925 473 
Q 910 437 , 910 374 
Q 910 310 , 925 274 
Q 941 237 , 967 237 
Q 978 237 , 987 242 
Q 997 247 , 1007 259 
L 1007 294 
Q 994 279 , 986 274 
Q 977 270 , 968 270 
Q 947 270 , 936 295 
Q 926 321 , 926 374 
Q 926 427 , 936 454 
Q 947 480 , 968 480 
Q 977 480 , 984 477 
Q 991 474 , 994 471 
" fill="#F5C000" />
<path d="
M 1065 552 
L 1047 553 
L 1081 553 
L 1065 552 
M 1058 551 
L 1072 551 
L 1115 554 
L 1099 554 
L 1087 553 
L 1043 553 
L 1030 554 
L 1015 554 
L 1058 551 
" fill="#339541" />
<path d="
M 1015 542 
L 1033 542 
L 1033 547 
Q 1033 548 , 1041 549 
Q 1048 549 , 1065 549 
Q 1082 549 , 1090 549 
Q 1097 548 , 1097 547 
L 1097 542 
L 1115 542 
L 1115 547 
Q 1115 549 , 1102 550 
Q 1090 550 , 1065 550 
Q 1041 550 , 1028 550 
Q 1015 549 , 1015 547 
L 1015 542 
" fill="#D21010" />
<path d="
M 1115 493 
L 1115 501 
Q 1100 496 , 1092 494 
Q 1084 493 , 1074 493 
Q 1053 493 , 1043 498 
Q 1031 504 , 1031 514 
Q 1031 525 , 1043 530 
Q 1053 535 , 1074 535 
Q 1084 535 , 1092 534 
Q 1100 533 , 1115 527 
L 1115 536 
Q 1104 539 , 1094 540 
Q 1084 541 , 1073 541 
Q 1046 541 , 1031 534 
Q 1015 527 , 1015 514 
Q 1015 502 , 1031 494 
Q 1046 487 , 1073 487 
Q 1084 487 , 1094 488 
Q 1105 490 , 1115 493 
" fill="#545FFF" />
<path d="
M 1099 465 
L 1099 426 
L 1070 426 
L 1070 410 
L 1115 410 
L 1115 475 
Q 1104 481 , 1093 484 
Q 1084 486 , 1072 486 
Q 1046 486 , 1030 467 
Q 1015 447 , 1015 413 
Q 1015 379 , 1030 360 
Q 1046 340 , 1072 340 
Q 1083 340 , 1092 343 
Q 1102 345 , 1112 352 
L 1112 371 
Q 1099 362 , 1091 360 
Q 1082 357 , 1073 357 
Q 1052 357 , 1041 371 
Q 1031 385 , 1031 413 
Q 1031 442 , 1041 456 
Q 1052 470 , 1073 470 
Q 1082 470 , 1089 468 
Q 1096 467 , 1099 465 
" fill="#F5C000" />
<path d="
M 1220 550 
L 1220 551 
Q 1205 551 , 1197 551 
Q 1189 550 , 1179 550 
Q 1158 550 , 1148 551 
Q 1136 551 , 1136 552 
Q 1136 553 , 1148 554 
Q 1158 554 , 1179 554 
Q 1189 554 , 1197 554 
Q 1205 554 , 1220 553 
L 1220 554 
Q 1209 554 , 1199 554 
Q 1189 554 , 1178 554 
Q 1151 554 , 1136 554 
Q 1120 553 , 1120 552 
Q 1120 551 , 1136 551 
Q 1151 550 , 1178 550 
Q 1189 550 , 1199 550 
Q 1210 550 , 1220 550 
" fill="#545FFF" />
<path d="
M 1120 538 
L 1138 538 
L 1138 545 
Q 1138 547 , 1146 548 
Q 1153 548 , 1170 548 
Q 1187 548 , 1195 548 
Q 1202 547 , 1202 545 
L 1202 538 
L 1220 538 
L 1220 545 
Q 1220 547 , 1207 549 
Q 1195 550 , 1170 550 
Q 1146 550 , 1133 549 
Q 1120 547 , 1120 545 
L 1120 538 
" fill="#D21010" />
<path d="
M 1204 534 
L 1204 527 
L 1175 527 
L 1175 524 
L 1220 524 
L 1220 535 
Q 1209 536 , 1198 537 
Q 1189 537 , 1177 537 
Q 1151 537 , 1135 534 
Q 1120 530 , 1120 525 
Q 1120 519 , 1135 515 
Q 1151 512 , 1177 512 
Q 1188 512 , 1197 512 
Q 1207 513 , 1217 514 
L 1217 517 
Q 1204 516 , 1196 515 
Q 1187 515 , 1178 515 
Q 1157 515 , 1146 517 
Q 1136 520 , 1136 525 
Q 1136 530 , 1146 532 
Q 1157 534 , 1178 534 
Q 1187 534 , 1194 534 
Q 1201 534 , 1204 534 
" fill="#F5C000" />
<path d="
M 1170 482 
L 1152 496 
L 1186 496 
L 1170 482 
M 1163 475 
L 1177 475 
L 1220 511 
L 1204 511 
L 1192 501 
L 1148 501 
L 1135 511 
L 1120 511 
L 1163 475 
" fill="#339541" />
<path d="
M 1275 552 
L 1257 553 
L 1291 553 
L 1275 552 
M 1268 552 
L 1282 552 
L 1325 554 
L 1309 554 
L 1297 553 
L 1253 553 
L 1240 554 
L 1225 554 
L 1268 552 
" fill="#339541" />
<path d="
M 1225 549 
L 1243 549 
L 1243 550 
Q 1243 551 , 1251 551 
Q 1258 551 , 1275 551 
Q 1292 551 , 1300 551 
Q 1307 551 , 1307 550 
L 1307 549 
L 1325 549 
L 1325 550 
Q 1325 551 , 1312 551 
Q 1300 551 , 1275 551 
Q 1251 551 , 1238 551 
Q 1225 551 , 1225 550 
L 1225 549 
" fill="#D21010" />
<path d="
M 1325 546 
L 1325 547 
Q 1310 546 , 1302 546 
Q 1294 546 , 1284 546 
Q 1263 546 , 1253 547 
Q 1241 547 , 1241 547 
Q 1241 548 , 1253 548 
Q 1263 548 , 1284 548 
Q 1294 548 , 1302 548 
Q 1310 548 , 1325 548 
L 1325 548 
Q 1314 549 , 1304 549 
Q 1294 549 , 1283 549 
Q 1256 549 , 1241 548 
Q 1225 548 , 1225 547 
Q 1225 547 , 1241 546 
Q 1256 546 , 1283 546 
Q 1294 546 , 1304 546 
Q 1315 546 , 1325 546 
" fill="#545FFF" />
<path d="
M 1309 545 
L 1309 544 
L 1280 544 
L 1280 544 
L 1325 544 
L 1325 545 
Q 1314 546 , 1303 546 
Q 1294 546 , 1282 546 
Q 1256 546 , 1240 545 
Q 1225 545 , 1225 544 
Q 1225 543 , 1240 542 
Q 1256 542 , 1282 542 
Q 1293 542 , 1302 542 
Q 1312 542 , 1322 542 
L 1322 543 
Q 1309 543 , 1301 543 
Q 1292 542 , 1283 542 
Q 1262 542 , 1251 543 
Q 1241 543 , 1241 544 
Q 1241 545 , 1251 545 
Q 1262 545 , 1283 545 
Q 1292 545 , 1299 545 
Q 1306 545 , 1309 545 
" fill="#F5C000" />
<path d="M 65 55 L 65 555 " stroke="black" stroke-width="1.5"/>
<path d="M 55 555 L 65 555 " stroke="black" stroke-width="4"/>
<text text-anchor="end" x="50" y="555" font-size="50" alignment-baseline="middle">0</text>
<path d="M 55 305 L 65 305 " stroke="black" stroke-width="4"/>
<text text-anchor="end" x="50" y="305" font-size="50" alignment-baseline="middle">1</text>
<path d="M 55 55 L 65 55 " stroke="black" stroke-width="4"/>
<text text-anchor="end" x="50" y="55" font-size="50" alignment-baseline="middle">2</text>
<text text-anchor="middle" x="697" y="50" font-size="50" alignment-baseline="baseline"></text>
G<path d="
M 160 582 
L 126 595 
L 160 608 
L 157 611 
L 123 598 
L 123 623 
L 117 623 
L 117 599 
L 83 611 
L 80 608 
L 114 595 
L 80 582 
L 83 579 
L 117 591 
L 117 567 
L 123 567 
L 123 591 
L 157 579 
L 160 582 
" fill="black" />
<path d="
" fill="black" />
<path d="
M 211 567 
L 238 567 
L 238 623 
L 211 623 
L 211 567 
" fill="black" />
<path d="
" fill="black" />
<path d="
" fill="black" />
<path d="
M 316 567 
L 343 567 
L 343 623 
L 316 623 
L 316 567 
" fill="black" />
<path d="
" fill="black" />
<path d="
" fill="black" />
<path d="
M 421 567 
L 448 567 
L 448 623 
L 421 623 
L 421 567 
" fill="black" />
<path d="
" fill="black" />
<path d="
" fill="black" />
<path d="
M 526 567 
L 553 567 
L 553 623 
L 526 623 
L 526 567 
" fill="black" />
<path d="
" fill="black" />
<path d="
" fill="black" />
<path d="
M 631 567 
L 658 567 
L 658 623 
L 631 623 
L 631 567 
" fill="black" />
<path d="
" fill="black" />
<path d="
" fill="black" />
<path d="
M 736 567 
L 763 567 
L 763 623 
L 736 623 
L 736 567 
" fill="black" />
<path d="
" fill="black" />
<path d="
" fill="black" />
<path d="
M 841 567 
L 868 567 
L 868 623 
L 841 623 
L 841 567 
" fill="black" />
<path d="
" fill="black" />
<path d="
" fill="black" />
<path d="
M 946 567 
L 973 567 
L 973 623 
L 946 623 
L 946 567 
" fill="black" />
<path d="
" fill="black" />
<path d="
" fill="black" />
<path d="
M 1051 567 
L 1078 567 
L 1078 623 
L 1051 623 
L 1051 567 
" fill="black" />
<path d="
" fill="black" />
<path d="
" fill="black" />
<path d="
M 1156 567 
L 1183 567 
L 1183 623 
L 1156 623 
L 1156 567 
" fill="black" />
<path d="
" fill="black" />
<path d="
M 1315 582 
L 1281 595 
L 1315 608 
L 1312 611 
L 1278 598 
L 1278 623 
L 1272 623 
L 1272 599 
L 1238 611 
L 1235 608 
L 1269 595 
L 1235 582 
L 1238 579 
L 1272 591 
L 1272 567 
L 1278 567 
L 1278 591 
L 1312 579 
L 1315 582 
" fill="black" />
</svg>
