<svg xmlns="http://www.w3.org/2000/svg"
viewBox="0 0 1120 635">
<path d="
M 70 554 
L 88 554 
L 88 554 
Q 88 555 , 96 555 
Q 103 555 , 120 555 
Q 137 555 , 145 555 
Q 152 555 , 152 554 
L 152 554 
L 170 554 
L 170 554 
Q 170 555 , 157 555 
Q 145 555 , 120 555 
Q 96 555 , 83 555 
Q 70 555 , 70 554 
L 70 554 
" fill="#D21010" />
<path d="
M 120 553 
L 102 553 
L 136 553 
L 120 553 
M 113 553 
L 127 553 
L 170 554 
L 154 554 
L 142 554 
L 98 554 
L 85 554 
L 70 554 
L 113 553 
" fill="#339541" />
<path d="
M 170 552 
L 170 552 
Q 155 552 , 147 552 
Q 139 552 , 129 552 
Q 108 552 , 98 552 
Q 86 552 , 86 552 
Q 86 553 , 98 553 
Q 108 553 , 129 553 
Q 139 553 , 147 553 
Q 155 553 , 170 553 
L 170 553 
Q 159 553 , 149 553 
Q 139 553 , 128 553 
Q 101 553 , 86 553 
Q 70 553 , 70 552 
Q 70 552 , 86 552 
Q 101 552 , 128 552 
Q 139 552 , 149 552 
Q 160 552 , 170 552 
" fill="#545FFF" />
<path d="
M 154 551 
L 154 551 
L 125 551 
L 125 550 
L 170 550 
L 170 551 
Q 159 551 , 148 551 
Q 139 551 , 127 551 
Q 101 551 , 85 551 
Q 70 551 , 70 551 
Q 70 550 , 85 550 
Q 101 550 , 127 550 
Q 138 550 , 147 550 
Q 157 550 , 167 550 
L 167 550 
Q 154 550 , 146 550 
Q 137 550 , 128 550 
Q 107 550 , 96 550 
Q 86 550 , 86 551 
Q 86 551 , 96 551 
Q 107 551 , 128 551 
Q 137 551 , 144 551 
Q 151 551 , 154 551 
" fill="#F5C000" />
<path d="
M 175 548 
L 193 548 
L 193 552 
Q 193 553 , 201 553 
Q 208 554 , 225 554 
Q 242 554 , 250 553 
Q 257 553 , 257 552 
L 257 548 
L 275 548 
L 275 552 
Q 275 553 , 262 554 
Q 250 554 , 225 554 
Q 201 554 , 188 554 
Q 175 553 , 175 552 
L 175 548 
" fill="#D21010" />
<path d="
M 275 536 
L 275 538 
Q 260 537 , 252 537 
Q 244 536 , 234 536 
Q 213 536 , 203 538 
Q 191 539 , 191 541 
Q 191 543 , 203 545 
Q 213 546 , 234 546 
Q 244 546 , 252 546 
Q 260 545 , 275 544 
L 275 546 
Q 264 547 , 254 547 
Q 244 547 , 233 547 
Q 206 547 , 191 546 
Q 175 544 , 175 541 
Q 175 538 , 191 537 
Q 206 535 , 233 535 
Q 244 535 , 254 535 
Q 265 536 , 275 536 
" fill="#545FFF" />
<path d="
M 225 510 
L 207 523 
L 241 523 
L 225 510 
M 218 505 
L 232 505 
L 275 535 
L 259 535 
L 247 526 
L 203 526 
L 190 535 
L 175 535 
L 218 505 
" fill="#339541" />
<path d="
M 259 495 
L 259 478 
L 230 478 
L 230 471 
L 275 471 
L 275 500 
Q 264 503 , 253 504 
Q 244 505 , 232 505 
Q 206 505 , 190 496 
Q 175 487 , 175 472 
Q 175 457 , 190 449 
Q 206 440 , 232 440 
Q 243 440 , 252 441 
Q 262 442 , 272 445 
L 272 454 
Q 259 450 , 251 449 
Q 242 448 , 233 448 
Q 212 448 , 201 454 
Q 191 460 , 191 472 
Q 191 485 , 201 491 
Q 212 498 , 233 498 
Q 242 498 , 249 497 
Q 256 496 , 259 495 
" fill="#F5C000" />
<path d="
M 330 551 
L 312 553 
L 346 553 
L 330 551 
M 323 550 
L 337 550 
L 380 555 
L 364 555 
L 352 553 
L 308 553 
L 295 555 
L 280 555 
L 323 550 
" fill="#339541" />
<path d="
M 380 539 
L 380 541 
Q 365 540 , 357 540 
Q 349 539 , 339 539 
Q 318 539 , 308 540 
Q 296 542 , 296 544 
Q 296 546 , 308 548 
Q 318 549 , 339 549 
Q 349 549 , 357 548 
Q 365 548 , 380 547 
L 380 549 
Q 369 549 , 359 550 
Q 349 550 , 338 550 
Q 311 550 , 296 548 
Q 280 547 , 280 544 
Q 280 541 , 296 540 
Q 311 538 , 338 538 
Q 349 538 , 359 538 
Q 370 539 , 380 539 
" fill="#545FFF" />
<path d="
M 364 535 
L 364 532 
L 335 532 
L 335 530 
L 380 530 
L 380 536 
Q 369 537 , 358 537 
Q 349 537 , 337 537 
Q 311 537 , 295 535 
Q 280 534 , 280 531 
Q 280 528 , 295 526 
Q 311 524 , 337 524 
Q 348 524 , 357 524 
Q 367 524 , 377 525 
L 377 527 
Q 364 526 , 356 526 
Q 347 526 , 338 526 
Q 317 526 , 306 527 
Q 296 528 , 296 531 
Q 296 533 , 306 534 
Q 317 536 , 338 536 
Q 347 536 , 354 536 
Q 361 535 , 364 535 
" fill="#F5C000" />
<path d="
M 280 497 
L 298 497 
L 298 512 
Q 298 517 , 306 519 
Q 313 520 , 330 520 
Q 347 520 , 355 519 
Q 362 517 , 362 512 
L 362 497 
L 380 497 
L 380 513 
Q 380 518 , 367 520 
Q 355 523 , 330 523 
Q 306 523 , 293 520 
Q 280 518 , 280 513 
L 280 497 
" fill="#D21010" />
<path d="
M 385 549 
L 403 549 
L 403 552 
Q 403 553 , 411 554 
Q 418 554 , 435 554 
Q 452 554 , 460 554 
Q 467 553 , 467 552 
L 467 549 
L 485 549 
L 485 552 
Q 485 553 , 472 554 
Q 460 555 , 435 555 
Q 411 555 , 398 554 
Q 385 553 , 385 552 
L 385 549 
" fill="#D21010" />
<path d="
M 485 531 
L 485 534 
Q 470 532 , 462 532 
Q 454 531 , 444 531 
Q 423 531 , 413 533 
Q 401 535 , 401 539 
Q 401 543 , 413 544 
Q 423 546 , 444 546 
Q 454 546 , 462 546 
Q 470 545 , 485 543 
L 485 547 
Q 474 548 , 464 548 
Q 454 548 , 443 548 
Q 416 548 , 401 546 
Q 385 543 , 385 539 
Q 385 534 , 401 532 
Q 416 529 , 443 529 
Q 454 529 , 464 529 
Q 475 530 , 485 531 
" fill="#545FFF" />
<path d="
M 435 513 
L 417 521 
L 451 521 
L 435 513 
M 428 509 
L 442 509 
L 485 529 
L 469 529 
L 457 523 
L 413 523 
L 400 529 
L 385 529 
L 428 509 
" fill="#339541" />
<path d="
M 469 474 
L 469 408 
L 440 408 
L 440 381 
L 485 381 
L 485 490 
Q 474 500 , 463 504 
Q 454 508 , 442 509 
Q 416 509 , 400 476 
Q 385 443 , 385 386 
Q 385 329 , 400 297 
Q 416 264 , 442 264 
Q 453 264 , 462 268 
Q 472 273 , 482 284 
L 482 315 
Q 469 301 , 461 297 
Q 452 293 , 443 293 
Q 422 293 , 411 316 
Q 401 339 , 401 386 
Q 401 435 , 411 458 
Q 422 481 , 443 481 
Q 452 481 , 459 479 
Q 466 477 , 469 474 
" fill="#F5C000" />
<path d="
M 540 547 
L 522 551 
L 556 551 
L 540 547 
M 533 546 
L 547 546 
L 590 554 
L 574 554 
L 562 552 
L 518 552 
L 505 554 
L 490 554 
L 533 546 
" fill="#339541" />
<path d="
M 490 530 
L 508 530 
L 508 539 
Q 508 542 , 516 543 
Q 523 544 , 540 544 
Q 557 544 , 565 543 
Q 572 542 , 572 539 
L 572 530 
L 590 530 
L 590 540 
Q 590 543 , 577 544 
Q 565 546 , 540 546 
Q 516 546 , 503 544 
Q 490 543 , 490 540 
L 490 530 
" fill="#D21010" />
<path d="
M 590 508 
L 590 511 
Q 575 509 , 567 508 
Q 559 508 , 549 508 
Q 528 508 , 518 510 
Q 506 513 , 506 517 
Q 506 522 , 518 525 
Q 528 527 , 549 527 
Q 559 527 , 567 527 
Q 575 526 , 590 523 
L 590 527 
Q 579 529 , 569 529 
Q 559 530 , 548 530 
Q 521 530 , 506 526 
Q 490 523 , 490 517 
Q 490 512 , 506 508 
Q 521 505 , 548 505 
Q 559 505 , 569 506 
Q 580 506 , 590 508 
" fill="#545FFF" />
<path d="
M 574 491 
L 574 467 
L 545 467 
L 545 457 
L 590 457 
L 590 497 
Q 579 501 , 568 502 
Q 559 504 , 547 504 
Q 521 504 , 505 492 
Q 490 480 , 490 459 
Q 490 437 , 505 425 
Q 521 413 , 547 413 
Q 558 413 , 567 415 
Q 577 416 , 587 420 
L 587 432 
Q 574 427 , 566 425 
Q 557 424 , 548 424 
Q 527 424 , 516 432 
Q 506 441 , 506 459 
Q 506 477 , 516 485 
Q 527 494 , 548 494 
Q 557 494 , 564 493 
Q 571 492 , 574 491 
" fill="#F5C000" />
<path d="
M 595 549 
L 613 549 
L 613 552 
Q 613 553 , 621 554 
Q 628 554 , 645 554 
Q 662 554 , 670 554 
Q 677 553 , 677 552 
L 677 549 
L 695 549 
L 695 553 
Q 695 554 , 682 554 
Q 670 555 , 645 555 
Q 621 555 , 608 554 
Q 595 554 , 595 553 
L 595 549 
" fill="#D21010" />
<path d="
M 695 540 
L 695 541 
Q 680 541 , 672 540 
Q 664 540 , 654 540 
Q 633 540 , 623 541 
Q 611 542 , 611 543 
Q 611 545 , 623 546 
Q 633 547 , 654 547 
Q 664 547 , 672 547 
Q 680 547 , 695 546 
L 695 547 
Q 684 548 , 674 548 
Q 664 548 , 653 548 
Q 626 548 , 611 547 
Q 595 546 , 595 544 
Q 595 542 , 611 540 
Q 626 539 , 653 539 
Q 664 539 , 674 539 
Q 685 539 , 695 540 
" fill="#545FFF" />
<path d="
M 645 522 
L 627 530 
L 661 530 
L 645 522 
M 638 518 
L 652 518 
L 695 539 
L 679 539 
L 667 533 
L 623 533 
L 610 539 
L 595 539 
L 638 518 
" fill="#339541" />
<path d="
M 679 513 
L 679 504 
L 650 504 
L 650 501 
L 695 501 
L 695 515 
Q 684 517 , 673 517 
Q 664 518 , 652 518 
Q 626 518 , 610 513 
Q 595 509 , 595 501 
Q 595 494 , 610 489 
Q 626 485 , 652 485 
Q 663 485 , 672 486 
Q 682 486 , 692 488 
L 692 492 
Q 679 490 , 671 489 
Q 662 489 , 653 489 
Q 632 489 , 621 492 
Q 611 495 , 611 501 
Q 611 508 , 621 511 
Q 632 514 , 653 514 
Q 662 514 , 669 514 
Q 676 513 , 679 513 
" fill="#F5C000" />
<path d="
M 750 550 
L 732 552 
L 766 552 
L 750 550 
M 743 549 
L 757 549 
L 800 554 
L 784 554 
L 772 553 
L 728 553 
L 715 554 
L 700 554 
L 743 549 
" fill="#339541" />
<path d="
M 700 540 
L 718 540 
L 718 545 
Q 718 546 , 726 547 
Q 733 548 , 750 548 
Q 767 548 , 775 547 
Q 782 546 , 782 545 
L 782 540 
L 800 540 
L 800 545 
Q 800 547 , 787 548 
Q 775 549 , 750 549 
Q 726 549 , 713 548 
Q 700 547 , 700 545 
L 700 540 
" fill="#D21010" />
<path d="
M 800 522 
L 800 525 
Q 785 523 , 777 523 
Q 769 522 , 759 522 
Q 738 522 , 728 524 
Q 716 526 , 716 529 
Q 716 533 , 728 535 
Q 738 537 , 759 537 
Q 769 537 , 777 537 
Q 785 536 , 800 534 
L 800 537 
Q 789 538 , 779 539 
Q 769 539 , 758 539 
Q 731 539 , 716 537 
Q 700 534 , 700 530 
Q 700 525 , 716 523 
Q 731 520 , 758 520 
Q 769 520 , 779 520 
Q 790 521 , 800 522 
" fill="#545FFF" />
<path d="
M 784 516 
L 784 509 
L 755 509 
L 755 507 
L 800 507 
L 800 518 
Q 789 519 , 778 519 
Q 769 520 , 757 520 
Q 731 520 , 715 516 
Q 700 513 , 700 507 
Q 700 502 , 715 498 
Q 731 495 , 757 495 
Q 768 495 , 777 495 
Q 787 496 , 797 497 
L 797 500 
Q 784 499 , 776 498 
Q 767 498 , 758 498 
Q 737 498 , 726 500 
Q 716 503 , 716 507 
Q 716 512 , 726 514 
Q 737 517 , 758 517 
Q 767 517 , 774 517 
Q 781 516 , 784 516 
" fill="#F5C000" />
<path d="
M 805 547 
L 823 547 
L 823 551 
Q 823 552 , 831 553 
Q 838 553 , 855 553 
Q 872 553 , 880 553 
Q 887 552 , 887 551 
L 887 547 
L 905 547 
L 905 551 
Q 905 553 , 892 553 
Q 880 554 , 855 554 
Q 831 554 , 818 553 
Q 805 553 , 805 551 
L 805 547 
" fill="#D21010" />
<path d="
M 855 540 
L 837 544 
L 871 544 
L 855 540 
M 848 539 
L 862 539 
L 905 547 
L 889 547 
L 877 545 
L 833 545 
L 820 547 
L 805 547 
L 848 539 
" fill="#339541" />
<path d="
M 905 529 
L 905 531 
Q 890 530 , 882 529 
Q 874 529 , 864 529 
Q 843 529 , 833 530 
Q 821 531 , 821 533 
Q 821 535 , 833 536 
Q 843 537 , 864 537 
Q 874 537 , 882 537 
Q 890 536 , 905 535 
L 905 537 
Q 894 538 , 884 538 
Q 874 538 , 863 538 
Q 836 538 , 821 537 
Q 805 535 , 805 533 
Q 805 531 , 821 529 
Q 836 528 , 863 528 
Q 874 528 , 884 528 
Q 895 528 , 905 529 
" fill="#545FFF" />
<path d="
M 889 524 
L 889 518 
L 860 518 
L 860 515 
L 905 515 
L 905 526 
Q 894 527 , 883 527 
Q 874 528 , 862 528 
Q 836 528 , 820 525 
Q 805 521 , 805 516 
Q 805 510 , 820 507 
Q 836 504 , 862 504 
Q 873 504 , 882 504 
Q 892 505 , 902 506 
L 902 509 
Q 889 508 , 881 507 
Q 872 507 , 863 507 
Q 842 507 , 831 509 
Q 821 511 , 821 516 
Q 821 521 , 831 523 
Q 842 525 , 863 525 
Q 872 525 , 879 525 
Q 886 525 , 889 524 
" fill="#F5C000" />
<path d="
M 960 552 
L 942 553 
L 976 553 
L 960 552 
M 953 551 
L 967 551 
L 1010 554 
L 994 554 
L 982 553 
L 938 553 
L 925 554 
L 910 554 
L 953 551 
" fill="#339541" />
<path d="
M 994 548 
L 994 545 
L 965 545 
L 965 543 
L 1010 543 
L 1010 549 
Q 999 550 , 988 550 
Q 979 550 , 967 550 
Q 941 550 , 925 548 
Q 910 547 , 910 544 
Q 910 540 , 925 539 
Q 941 537 , 967 537 
Q 978 537 , 987 537 
Q 997 537 , 1007 538 
L 1007 540 
Q 994 539 , 986 539 
Q 977 539 , 968 539 
Q 947 539 , 936 540 
Q 926 541 , 926 544 
Q 926 546 , 936 547 
Q 947 549 , 968 549 
Q 977 549 , 984 548 
Q 991 548 , 994 548 
" fill="#F5C000" />
<path d="
M 910 518 
L 928 518 
L 928 529 
Q 928 532 , 936 533 
Q 943 534 , 960 534 
Q 977 534 , 985 533 
Q 992 532 , 992 529 
L 992 518 
L 1010 518 
L 1010 529 
Q 1010 532 , 997 534 
Q 985 536 , 960 536 
Q 936 536 , 923 534 
Q 910 532 , 910 529 
L 910 518 
" fill="#D21010" />
<path d="
M 1010 498 
L 1010 501 
Q 995 499 , 987 499 
Q 979 498 , 969 498 
Q 948 498 , 938 500 
Q 926 502 , 926 506 
Q 926 511 , 938 513 
Q 948 515 , 969 515 
Q 979 515 , 987 514 
Q 995 514 , 1010 512 
L 1010 515 
Q 999 516 , 989 517 
Q 979 517 , 968 517 
Q 941 517 , 926 514 
Q 910 511 , 910 507 
Q 910 502 , 926 499 
Q 941 496 , 968 496 
Q 979 496 , 989 497 
Q 1000 497 , 1010 498 
" fill="#545FFF" />
<path d="
M 1015 554 
L 1033 554 
L 1033 554 
Q 1033 555 , 1041 555 
Q 1048 555 , 1065 555 
Q 1082 555 , 1090 555 
Q 1097 555 , 1097 554 
L 1097 554 
L 1115 554 
L 1115 554 
Q 1115 555 , 1102 555 
Q 1090 555 , 1065 555 
Q 1041 555 , 1028 555 
Q 1015 555 , 1015 554 
L 1015 554 
" fill="#D21010" />
<path d="
M 1065 553 
L 1047 553 
L 1081 553 
L 1065 553 
M 1058 553 
L 1072 553 
L 1115 554 
L 1099 554 
L 1087 554 
L 1043 554 
L 1030 554 
L 1015 554 
L 1058 553 
" fill="#339541" />
<path d="
M 1115 552 
L 1115 552 
Q 1100 552 , 1092 552 
Q 1084 552 , 1074 552 
Q 1053 552 , 1043 552 
Q 1031 552 , 1031 552 
Q 1031 553 , 1043 553 
Q 1053 553 , 1074 553 
Q 1084 553 , 1092 553 
Q 1100 553 , 1115 553 
L 1115 553 
Q 1104 553 , 1094 553 
Q 1084 553 , 1073 553 
Q 1046 553 , 1031 553 
Q 1015 553 , 1015 552 
Q 1015 552 , 1031 552 
Q 1046 552 , 1073 552 
Q 1084 552 , 1094 552 
Q 1105 552 , 1115 552 
" fill="#545FFF" />
<path d="
M 1099 551 
L 1099 551 
L 1070 551 
L 1070 550 
L 1115 550 
L 1115 551 
Q 1104 551 , 1093 551 
Q 1084 551 , 1072 551 
Q 1046 551 , 1030 551 
Q 1015 551 , 1015 551 
Q 1015 550 , 1030 550 
Q 1046 550 , 1072 550 
Q 1083 550 , 1092 550 
Q 1102 550 , 1112 550 
L 1112 550 
Q 1099 550 , 1091 550 
Q 1082 550 , 1073 550 
Q 1052 550 , 1041 550 
Q 1031 550 , 1031 551 
Q 1031 551 , 1041 551 
Q 1052 551 , 1073 551 
Q 1082 551 , 1089 551 
Q 1096 551 , 1099 551 
" fill="#F5C000" />
<path d="M 65 55 L 65 555 " stroke="black" stroke-width="1.5"/>
<path d="M 55 555 L 65 555 " stroke="black" stroke-width="4"/>
<text text-anchor="end" x="50" y="555" font-size="50" alignment-baseline="middle">0</text>
<path d="M 55 305 L 65 305 " stroke="black" stroke-width="4"/>
<text text-anchor="end" x="50" y="305" font-size="50" alignment-baseline="middle">1</text>
<path d="M 55 55 L 65 55 " stroke="black" stroke-width="4"/>
<text text-anchor="end" x="50" y="55" font-size="50" alignment-baseline="middle">2</text>
<text text-anchor="middle" x="592" y="50" font-size="50" alignment-baseline="baseline"></text>
G<path d="
M 160 582 
L 126 595 
L 160 608 
L 157 611 
L 123 598 
L 123 623 
L 117 623 
L 117 599 
L 83 611 
L 80 608 
L 114 595 
L 80 582 
L 83 579 
L 117 591 
L 117 567 
L 123 567 
L 123 591 
L 157 579 
L 160 582 
" fill="black" />
<path d="
" fill="black" />
<path d="
M 211 567 
L 238 567 
L 238 623 
L 211 623 
L 211 567 
" fill="black" />
<path d="
" fill="black" />
<path d="
" fill="black" />
<path d="
M 316 567 
L 343 567 
L 343 623 
L 316 623 
L 316 567 
" fill="black" />
<path d="
" fill="black" />
<path d="
" fill="black" />
<path d="
M 421 567 
L 448 567 
L 448 623 
L 421 623 
L 421 567 
" fill="black" />
<path d="
" fill="black" />
<path d="
" fill="black" />
<path d="
M 526 567 
L 553 567 
L 553 623 
L 526 623 
L 526 567 
" fill="black" />
<path d="
" fill="black" />
<path d="
" fill="black" />
<path d="
M 631 567 
L 658 567 
L 658 623 
L 631 623 
L 631 567 
" fill="black" />
<path d="
" fill="black" />
<path d="
" fill="black" />
<path d="
M 736 567 
L 763 567 
L 763 623 
L 736 623 
L 736 567 
" fill="black" />
<path d="
" fill="black" />
<path d="
" fill="black" />
<path d="
M 841 567 
L 868 567 
L 868 623 
L 841 623 
L 841 567 
" fill="black" />
<path d="
" fill="black" />
<path d="
" fill="black" />
<path d="
M 946 567 
L 973 567 
L 973 623 
L 946 623 
L 946 567 
" fill="black" />
<path d="
" fill="black" />
<path d="
M 1105 582 
L 1071 595 
L 1105 608 
L 1102 611 
L 1068 598 
L 1068 623 
L 1062 623 
L 1062 599 
L 1028 611 
L 1025 608 
L 1059 595 
L 1025 582 
L 1028 579 
L 1062 591 
L 1062 567 
L 1068 567 
L 1068 591 
L 1102 579 
L 1105 582 
" fill="black" />
</svg>
