<svg xmlns="http://www.w3.org/2000/svg"
viewBox="0 0 1435 635">
<path d="
M 170 554 
L 170 554 
Q 155 554 , 147 554 
Q 139 554 , 129 554 
Q 108 554 , 98 554 
Q 86 554 , 86 554 
Q 86 554 , 98 554 
Q 108 554 , 129 554 
Q 139 554 , 147 554 
Q 155 554 , 170 554 
L 170 554 
Q 159 554 , 149 554 
Q 139 554 , 128 554 
Q 101 554 , 86 554 
Q 70 554 , 70 554 
Q 70 554 , 86 554 
Q 101 554 , 128 554 
Q 139 554 , 149 554 
Q 160 554 , 170 554 
" fill="#545FFF" />
<path d="
M 154 553 
L 154 553 
L 125 553 
L 125 553 
L 170 553 
L 170 553 
Q 159 553 , 148 553 
Q 139 553 , 127 553 
Q 101 553 , 85 553 
Q 70 553 , 70 553 
Q 70 553 , 85 553 
Q 101 553 , 127 553 
Q 138 553 , 147 553 
Q 157 553 , 167 553 
L 167 553 
Q 154 553 , 146 553 
Q 137 553 , 128 553 
Q 107 553 , 96 553 
Q 86 553 , 86 553 
Q 86 553 , 96 553 
Q 107 553 , 128 553 
Q 137 553 , 144 553 
Q 151 553 , 154 553 
" fill="#F5C000" />
<path d="
M 120 552 
L 102 552 
L 136 552 
L 120 552 
M 113 552 
L 127 552 
L 170 552 
L 154 552 
L 142 552 
L 98 552 
L 85 552 
L 70 552 
L 113 552 
" fill="#339541" />
<path d="
M 70 551 
L 88 551 
L 88 551 
Q 88 551 , 96 551 
Q 103 551 , 120 551 
Q 137 551 , 145 551 
Q 152 551 , 152 551 
L 152 551 
L 170 551 
L 170 551 
Q 170 551 , 157 551 
Q 145 551 , 120 551 
Q 96 551 , 83 551 
Q 70 551 , 70 551 
L 70 551 
" fill="#D21010" />
<path d="
M 175 553 
L 184 553 
L 184 554 
Q 184 554 , 188 555 
Q 191 555 , 200 555 
Q 209 555 , 212 555 
Q 216 554 , 216 554 
L 216 553 
L 225 553 
L 225 554 
Q 225 555 , 219 555 
Q 212 555 , 200 555 
Q 188 555 , 181 555 
Q 175 555 , 175 554 
L 175 553 
" fill="#D21010" />
<path d="
M 250 553 
L 241 554 
L 258 554 
L 250 553 
M 246 553 
L 254 553 
L 275 555 
L 267 555 
L 261 554 
L 239 554 
L 232 555 
L 225 555 
L 246 553 
" fill="lightgray" />
<path d="
M 200 549 
L 191 551 
L 208 551 
L 200 549 
M 196 548 
L 204 548 
L 225 553 
L 217 553 
L 211 551 
L 189 551 
L 182 553 
L 175 553 
L 196 548 
" fill="#339541" />
<path d="
M 225 548 
L 234 548 
L 234 551 
Q 234 552 , 238 552 
Q 241 552 , 250 552 
Q 259 552 , 262 552 
Q 266 552 , 266 551 
L 266 548 
L 275 548 
L 275 551 
Q 275 552 , 269 552 
Q 262 553 , 250 553 
Q 238 553 , 231 552 
Q 225 552 , 225 551 
L 225 548 
" fill="lightgray" />
<path d="
M 175 542 
L 184 542 
L 184 545 
Q 184 546 , 188 546 
Q 191 547 , 200 547 
Q 209 547 , 212 546 
Q 216 546 , 216 545 
L 216 542 
L 225 542 
L 225 545 
Q 225 546 , 219 547 
Q 212 547 , 200 547 
Q 188 547 , 181 547 
Q 175 546 , 175 545 
L 175 542 
" fill="#D21010" />
<path d="
M 267 546 
L 267 545 
L 253 545 
L 253 544 
L 275 544 
L 275 547 
Q 270 547 , 264 547 
Q 259 547 , 253 547 
Q 240 547 , 233 546 
Q 225 546 , 225 545 
Q 225 543 , 233 543 
Q 240 542 , 253 542 
Q 259 542 , 264 542 
Q 269 542 , 274 542 
L 274 543 
Q 267 543 , 263 543 
Q 259 543 , 254 543 
Q 244 543 , 238 543 
Q 233 544 , 233 545 
Q 233 546 , 238 546 
Q 244 547 , 254 547 
Q 259 547 , 262 546 
Q 266 546 , 267 546 
" fill="lightgray" />
<path d="
M 217 539 
L 217 533 
L 203 533 
L 203 531 
L 225 531 
L 225 540 
Q 220 541 , 214 541 
Q 209 542 , 203 542 
Q 190 542 , 183 539 
Q 175 536 , 175 531 
Q 175 527 , 183 524 
Q 190 521 , 203 521 
Q 209 521 , 214 521 
Q 219 522 , 224 523 
L 224 525 
Q 217 524 , 213 524 
Q 209 523 , 204 523 
Q 194 523 , 188 525 
Q 183 527 , 183 531 
Q 183 535 , 188 537 
Q 194 539 , 204 539 
Q 209 539 , 212 539 
Q 216 539 , 217 539 
" fill="#F5C000" />
<path d="
M 275 523 
L 275 526 
Q 268 524 , 264 524 
Q 259 523 , 254 523 
Q 244 523 , 239 525 
Q 233 527 , 233 531 
Q 233 535 , 239 537 
Q 244 539 , 254 539 
Q 259 539 , 264 539 
Q 268 538 , 275 536 
L 275 540 
Q 270 541 , 264 541 
Q 260 542 , 254 542 
Q 240 542 , 233 539 
Q 225 536 , 225 531 
Q 225 527 , 233 524 
Q 240 521 , 254 521 
Q 260 521 , 265 522 
Q 270 522 , 275 523 
" fill="lightgray" />
<path d="
M 217 516 
L 217 509 
L 203 509 
L 203 506 
L 225 506 
L 225 518 
Q 220 519 , 214 520 
Q 209 520 , 203 520 
Q 190 520 , 183 517 
Q 175 513 , 175 507 
Q 175 501 , 183 497 
Q 190 494 , 203 494 
Q 209 494 , 214 494 
Q 219 495 , 224 496 
L 224 499 
Q 217 498 , 213 498 
Q 209 497 , 204 497 
Q 194 497 , 188 500 
Q 183 502 , 183 507 
Q 183 512 , 188 515 
Q 194 517 , 204 517 
Q 209 517 , 212 517 
Q 216 517 , 217 516 
" fill="#F5C000" />
<path d="
M 225 494 
L 234 494 
L 234 509 
Q 234 514 , 238 515 
Q 241 517 , 250 517 
Q 259 517 , 262 515 
Q 266 514 , 266 509 
L 266 494 
L 275 494 
L 275 510 
Q 275 515 , 269 517 
Q 262 520 , 250 520 
Q 238 520 , 231 517 
Q 225 515 , 225 510 
L 225 494 
" fill="lightgray" />
<path d="
M 225 469 
L 225 473 
Q 218 470 , 214 470 
Q 209 469 , 204 469 
Q 194 469 , 189 472 
Q 183 474 , 183 479 
Q 183 485 , 189 488 
Q 194 490 , 204 490 
Q 209 490 , 214 490 
Q 218 489 , 225 486 
L 225 491 
Q 220 492 , 214 493 
Q 210 493 , 204 493 
Q 190 493 , 183 490 
Q 175 486 , 175 480 
Q 175 473 , 183 470 
Q 190 466 , 204 466 
Q 210 466 , 215 467 
Q 220 467 , 225 469 
" fill="#545FFF" />
<path d="
M 267 489 
L 267 482 
L 253 482 
L 253 479 
L 275 479 
L 275 491 
Q 270 492 , 264 493 
Q 259 493 , 253 493 
Q 240 493 , 233 490 
Q 225 486 , 225 480 
Q 225 473 , 233 470 
Q 240 466 , 253 466 
Q 259 466 , 264 466 
Q 269 467 , 274 468 
L 274 472 
Q 267 470 , 263 470 
Q 259 469 , 254 469 
Q 244 469 , 238 472 
Q 233 474 , 233 480 
Q 233 485 , 238 488 
Q 244 490 , 254 490 
Q 259 490 , 262 490 
Q 266 490 , 267 489 
" fill="lightgray" />
<path d="
M 330 552 
L 312 553 
L 346 553 
L 330 552 
M 323 551 
L 337 551 
L 380 555 
L 364 555 
L 352 554 
L 308 554 
L 295 555 
L 280 555 
L 323 551 
" fill="#339541" />
<path d="
M 380 544 
L 380 545 
Q 365 544 , 357 544 
Q 349 544 , 339 544 
Q 318 544 , 308 545 
Q 296 545 , 296 546 
Q 296 548 , 308 549 
Q 318 550 , 339 550 
Q 349 550 , 357 550 
Q 365 549 , 380 549 
L 380 550 
Q 369 550 , 359 550 
Q 349 551 , 338 551 
Q 311 551 , 296 550 
Q 280 548 , 280 547 
Q 280 545 , 296 544 
Q 311 543 , 338 543 
Q 349 543 , 359 543 
Q 370 543 , 380 544 
" fill="#545FFF" />
<path d="
M 364 541 
L 364 539 
L 335 539 
L 335 538 
L 380 538 
L 380 542 
Q 369 542 , 358 542 
Q 349 542 , 337 542 
Q 311 542 , 295 541 
Q 280 540 , 280 538 
Q 280 536 , 295 535 
Q 311 534 , 337 534 
Q 348 534 , 357 534 
Q 367 534 , 377 535 
L 377 536 
Q 364 535 , 356 535 
Q 347 535 , 338 535 
Q 317 535 , 306 536 
Q 296 537 , 296 538 
Q 296 540 , 306 541 
Q 317 541 , 338 541 
Q 347 541 , 354 541 
Q 361 541 , 364 541 
" fill="#F5C000" />
<path d="
M 280 517 
L 298 517 
L 298 527 
Q 298 530 , 306 531 
Q 313 532 , 330 532 
Q 347 532 , 355 531 
Q 362 530 , 362 527 
L 362 517 
L 380 517 
L 380 527 
Q 380 531 , 367 532 
Q 355 534 , 330 534 
Q 306 534 , 293 532 
Q 280 531 , 280 527 
L 280 517 
" fill="#D21010" />
<path d="
M 385 553 
L 394 553 
L 394 554 
Q 394 554 , 398 554 
Q 401 554 , 410 554 
Q 419 554 , 422 554 
Q 426 554 , 426 554 
L 426 553 
L 435 553 
L 435 554 
Q 435 554 , 429 554 
Q 422 554 , 410 554 
Q 398 554 , 391 554 
Q 385 554 , 385 554 
L 385 553 
" fill="#D21010" />
<path d="
M 460 553 
L 451 554 
L 468 554 
L 460 553 
M 456 553 
L 464 553 
L 485 554 
L 477 554 
L 471 554 
L 449 554 
L 442 554 
L 435 554 
L 456 553 
" fill="lightgray" />
<path d="
M 385 551 
L 394 551 
L 394 552 
Q 394 552 , 398 553 
Q 401 553 , 410 553 
Q 419 553 , 422 553 
Q 426 552 , 426 552 
L 426 551 
L 435 551 
L 435 552 
Q 435 553 , 429 553 
Q 422 553 , 410 553 
Q 398 553 , 391 553 
Q 385 553 , 385 552 
L 385 551 
" fill="#D21010" />
<path d="
M 477 553 
L 477 552 
L 463 552 
L 463 552 
L 485 552 
L 485 553 
Q 480 553 , 474 553 
Q 469 553 , 463 553 
Q 450 553 , 443 553 
Q 435 552 , 435 552 
Q 435 552 , 443 551 
Q 450 551 , 463 551 
Q 469 551 , 474 551 
Q 479 551 , 484 551 
L 484 551 
Q 477 551 , 473 551 
Q 469 551 , 464 551 
Q 454 551 , 448 551 
Q 443 552 , 443 552 
Q 443 552 , 448 553 
Q 454 553 , 464 553 
Q 469 553 , 472 553 
Q 476 553 , 477 553 
" fill="lightgray" />
<path d="
M 427 548 
L 427 544 
L 413 544 
L 413 542 
L 435 542 
L 435 549 
Q 430 550 , 424 550 
Q 419 550 , 413 550 
Q 400 550 , 393 548 
Q 385 546 , 385 543 
Q 385 539 , 393 537 
Q 400 535 , 413 535 
Q 419 535 , 424 535 
Q 429 536 , 434 536 
L 434 538 
Q 427 537 , 423 537 
Q 419 537 , 414 537 
Q 404 537 , 398 538 
Q 393 540 , 393 543 
Q 393 546 , 398 547 
Q 404 549 , 414 549 
Q 419 549 , 422 549 
Q 426 548 , 427 548 
" fill="#F5C000" />
<path d="
M 435 535 
L 444 535 
L 444 544 
Q 444 547 , 448 548 
Q 451 549 , 460 549 
Q 469 549 , 472 548 
Q 476 547 , 476 544 
L 476 535 
L 485 535 
L 485 544 
Q 485 547 , 479 549 
Q 472 550 , 460 550 
Q 448 550 , 441 549 
Q 435 547 , 435 544 
L 435 535 
" fill="lightgray" />
<path d="
M 435 520 
L 435 522 
Q 428 521 , 424 520 
Q 419 520 , 414 520 
Q 404 520 , 399 522 
Q 393 523 , 393 526 
Q 393 530 , 399 531 
Q 404 533 , 414 533 
Q 419 533 , 424 533 
Q 428 532 , 435 531 
L 435 533 
Q 430 534 , 424 535 
Q 420 535 , 414 535 
Q 400 535 , 393 533 
Q 385 530 , 385 526 
Q 385 523 , 393 520 
Q 400 518 , 414 518 
Q 420 518 , 425 518 
Q 430 519 , 435 520 
" fill="#545FFF" />
<path d="
M 477 533 
L 477 528 
L 463 528 
L 463 526 
L 485 526 
L 485 534 
Q 480 534 , 474 535 
Q 469 535 , 463 535 
Q 450 535 , 443 533 
Q 435 530 , 435 526 
Q 435 523 , 443 520 
Q 450 518 , 463 518 
Q 469 518 , 474 518 
Q 479 519 , 484 519 
L 484 522 
Q 477 521 , 473 520 
Q 469 520 , 464 520 
Q 454 520 , 448 522 
Q 443 523 , 443 526 
Q 443 530 , 448 531 
Q 454 533 , 464 533 
Q 469 533 , 472 533 
Q 476 533 , 477 533 
" fill="lightgray" />
<path d="
M 410 502 
L 401 510 
L 418 510 
L 410 502 
M 406 499 
L 414 499 
L 435 518 
L 427 518 
L 421 512 
L 399 512 
L 392 518 
L 385 518 
L 406 499 
" fill="#339541" />
<path d="
M 435 499 
L 444 499 
L 444 510 
Q 444 513 , 448 514 
Q 451 516 , 460 516 
Q 469 516 , 472 514 
Q 476 513 , 476 510 
L 476 499 
L 485 499 
L 485 510 
Q 485 514 , 479 516 
Q 472 518 , 460 518 
Q 448 518 , 441 516 
Q 435 514 , 435 510 
L 435 499 
" fill="lightgray" />
<path d="
M 427 496 
L 427 490 
L 413 490 
L 413 488 
L 435 488 
L 435 497 
Q 430 498 , 424 498 
Q 419 498 , 413 499 
Q 400 499 , 393 496 
Q 385 493 , 385 488 
Q 385 483 , 393 481 
Q 400 478 , 413 478 
Q 419 478 , 424 478 
Q 429 479 , 434 480 
L 434 482 
Q 427 481 , 423 481 
Q 419 480 , 414 480 
Q 404 480 , 398 482 
Q 393 484 , 393 488 
Q 393 492 , 398 494 
Q 404 496 , 414 496 
Q 419 496 , 422 496 
Q 426 496 , 427 496 
" fill="#F5C000" />
<path d="
M 485 480 
L 485 483 
Q 478 481 , 474 481 
Q 469 480 , 464 480 
Q 454 480 , 449 482 
Q 443 484 , 443 488 
Q 443 492 , 449 494 
Q 454 496 , 464 496 
Q 469 496 , 474 496 
Q 478 495 , 485 493 
L 485 496 
Q 480 498 , 474 498 
Q 470 499 , 464 499 
Q 450 499 , 443 496 
Q 435 493 , 435 488 
Q 435 484 , 443 481 
Q 450 478 , 464 478 
Q 470 478 , 475 479 
Q 480 479 , 485 480 
" fill="lightgray" />
<path d="
M 574 553 
L 574 552 
L 545 552 
L 545 552 
L 590 552 
L 590 554 
Q 579 554 , 568 554 
Q 559 554 , 547 554 
Q 521 554 , 505 553 
Q 490 553 , 490 552 
Q 490 551 , 505 551 
Q 521 550 , 547 550 
Q 558 550 , 567 550 
Q 577 550 , 587 550 
L 587 551 
Q 574 551 , 566 551 
Q 557 550 , 548 550 
Q 527 550 , 516 551 
Q 506 551 , 506 552 
Q 506 553 , 516 553 
Q 527 554 , 548 554 
Q 557 554 , 564 554 
Q 571 553 , 574 553 
" fill="#F5C000" />
<path d="
M 540 544 
L 522 547 
L 556 547 
L 540 544 
M 533 543 
L 547 543 
L 590 549 
L 574 549 
L 562 547 
L 518 547 
L 505 549 
L 490 549 
L 533 543 
" fill="#339541" />
<path d="
M 490 526 
L 508 526 
L 508 536 
Q 508 538 , 516 539 
Q 523 541 , 540 541 
Q 557 541 , 565 539 
Q 572 538 , 572 536 
L 572 526 
L 590 526 
L 590 536 
Q 590 539 , 577 541 
Q 565 542 , 540 542 
Q 516 542 , 503 541 
Q 490 539 , 490 536 
L 490 526 
" fill="#D21010" />
<path d="
M 590 509 
L 590 512 
Q 575 510 , 567 510 
Q 559 509 , 549 509 
Q 528 509 , 518 511 
Q 506 513 , 506 516 
Q 506 520 , 518 522 
Q 528 524 , 549 524 
Q 559 524 , 567 523 
Q 575 523 , 590 521 
L 590 524 
Q 579 525 , 569 525 
Q 559 526 , 548 526 
Q 521 526 , 506 523 
Q 490 521 , 490 516 
Q 490 512 , 506 510 
Q 521 507 , 548 507 
Q 559 507 , 569 507 
Q 580 508 , 590 509 
" fill="#545FFF" />
<path d="
M 595 552 
L 613 552 
L 613 553 
Q 613 554 , 621 554 
Q 628 554 , 645 554 
Q 662 554 , 670 554 
Q 677 554 , 677 553 
L 677 552 
L 695 552 
L 695 554 
Q 695 554 , 682 554 
Q 670 554 , 645 554 
Q 621 554 , 608 554 
Q 595 554 , 595 554 
L 595 552 
" fill="#D21010" />
<path d="
M 695 549 
L 695 550 
Q 680 549 , 672 549 
Q 664 549 , 654 549 
Q 633 549 , 623 550 
Q 611 550 , 611 550 
Q 611 551 , 623 551 
Q 633 551 , 654 551 
Q 664 551 , 672 551 
Q 680 551 , 695 551 
L 695 551 
Q 684 551 , 674 551 
Q 664 552 , 653 552 
Q 626 552 , 611 551 
Q 595 551 , 595 550 
Q 595 550 , 611 549 
Q 626 549 , 653 549 
Q 664 549 , 674 549 
Q 685 549 , 695 549 
" fill="#545FFF" />
<path d="
M 645 546 
L 627 547 
L 661 547 
L 645 546 
M 638 545 
L 652 545 
L 695 548 
L 679 548 
L 667 547 
L 623 547 
L 610 548 
L 595 548 
L 638 545 
" fill="#339541" />
<path d="
M 679 543 
L 679 542 
L 650 542 
L 650 541 
L 695 541 
L 695 544 
Q 684 544 , 673 544 
Q 664 544 , 652 544 
Q 626 544 , 610 543 
Q 595 543 , 595 542 
Q 595 540 , 610 540 
Q 626 539 , 652 539 
Q 663 539 , 672 539 
Q 682 539 , 692 539 
L 692 540 
Q 679 540 , 671 540 
Q 662 540 , 653 540 
Q 632 540 , 621 540 
Q 611 541 , 611 542 
Q 611 543 , 621 543 
Q 632 544 , 653 544 
Q 662 544 , 669 544 
Q 676 543 , 679 543 
" fill="#F5C000" />
<path d="
M 800 554 
L 800 554 
Q 785 554 , 777 554 
Q 769 554 , 759 554 
Q 738 554 , 728 554 
Q 716 554 , 716 554 
Q 716 554 , 728 554 
Q 738 554 , 759 554 
Q 769 554 , 777 554 
Q 785 554 , 800 554 
L 800 554 
Q 789 554 , 779 554 
Q 769 554 , 758 554 
Q 731 554 , 716 554 
Q 700 554 , 700 554 
Q 700 554 , 716 554 
Q 731 554 , 758 554 
Q 769 554 , 779 554 
Q 790 554 , 800 554 
" fill="#545FFF" />
<path d="
M 784 553 
L 784 553 
L 755 553 
L 755 553 
L 800 553 
L 800 553 
Q 789 553 , 778 553 
Q 769 553 , 757 553 
Q 731 553 , 715 553 
Q 700 553 , 700 553 
Q 700 553 , 715 553 
Q 731 553 , 757 553 
Q 768 553 , 777 553 
Q 787 553 , 797 553 
L 797 553 
Q 784 553 , 776 553 
Q 767 553 , 758 553 
Q 737 553 , 726 553 
Q 716 553 , 716 553 
Q 716 553 , 726 553 
Q 737 553 , 758 553 
Q 767 553 , 774 553 
Q 781 553 , 784 553 
" fill="#F5C000" />
<path d="
M 750 552 
L 732 552 
L 766 552 
L 750 552 
M 743 552 
L 757 552 
L 800 552 
L 784 552 
L 772 552 
L 728 552 
L 715 552 
L 700 552 
L 743 552 
" fill="#339541" />
<path d="
M 700 551 
L 718 551 
L 718 551 
Q 718 551 , 726 551 
Q 733 551 , 750 551 
Q 767 551 , 775 551 
Q 782 551 , 782 551 
L 782 551 
L 800 551 
L 800 551 
Q 800 551 , 787 551 
Q 775 551 , 750 551 
Q 726 551 , 713 551 
Q 700 551 , 700 551 
L 700 551 
" fill="#D21010" />
<path d="
M 805 553 
L 823 553 
L 823 554 
Q 823 554 , 831 554 
Q 838 554 , 855 554 
Q 872 554 , 880 554 
Q 887 554 , 887 554 
L 887 553 
L 905 553 
L 905 554 
Q 905 554 , 892 554 
Q 880 554 , 855 554 
Q 831 554 , 818 554 
Q 805 554 , 805 554 
L 805 553 
" fill="#D21010" />
<path d="
M 905 551 
L 905 551 
Q 890 551 , 882 551 
Q 874 551 , 864 551 
Q 843 551 , 833 551 
Q 821 552 , 821 552 
Q 821 552 , 833 552 
Q 843 552 , 864 552 
Q 874 552 , 882 552 
Q 890 552 , 905 552 
L 905 552 
Q 894 553 , 884 553 
Q 874 553 , 863 553 
Q 836 553 , 821 552 
Q 805 552 , 805 552 
Q 805 551 , 821 551 
Q 836 551 , 863 551 
Q 874 551 , 884 551 
Q 895 551 , 905 551 
" fill="#545FFF" />
<path d="
M 889 551 
L 889 550 
L 860 550 
L 860 550 
L 905 550 
L 905 551 
Q 894 551 , 883 551 
Q 874 551 , 862 551 
Q 836 551 , 820 551 
Q 805 550 , 805 550 
Q 805 550 , 820 549 
Q 836 549 , 862 549 
Q 873 549 , 882 549 
Q 892 549 , 902 549 
L 902 549 
Q 889 549 , 881 549 
Q 872 549 , 863 549 
Q 842 549 , 831 549 
Q 821 550 , 821 550 
Q 821 550 , 831 551 
Q 842 551 , 863 551 
Q 872 551 , 879 551 
Q 886 551 , 889 551 
" fill="#F5C000" />
<path d="
M 855 546 
L 837 547 
L 871 547 
L 855 546 
M 848 546 
L 862 546 
L 905 548 
L 889 548 
L 877 547 
L 833 547 
L 820 548 
L 805 548 
L 848 546 
" fill="#339541" />
<path d="
M 910 553 
L 919 553 
L 919 554 
Q 919 554 , 923 554 
Q 926 554 , 935 554 
Q 944 554 , 947 554 
Q 951 554 , 951 554 
L 951 553 
L 960 553 
L 960 554 
Q 960 554 , 954 554 
Q 947 554 , 935 554 
Q 923 554 , 916 554 
Q 910 554 , 910 554 
L 910 553 
" fill="lightgray" />
<path d="
M 985 553 
L 976 554 
L 993 554 
L 985 553 
M 981 553 
L 989 553 
L 1010 554 
L 1002 554 
L 996 554 
L 974 554 
L 967 554 
L 960 554 
L 981 553 
" fill="#339541" />
<path d="
M 910 551 
L 919 551 
L 919 552 
Q 919 552 , 923 553 
Q 926 553 , 935 553 
Q 944 553 , 947 553 
Q 951 552 , 951 552 
L 951 551 
L 960 551 
L 960 552 
Q 960 553 , 954 553 
Q 947 553 , 935 553 
Q 923 553 , 916 553 
Q 910 553 , 910 552 
L 910 551 
" fill="lightgray" />
<path d="
M 1002 553 
L 1002 552 
L 988 552 
L 988 552 
L 1010 552 
L 1010 553 
Q 1005 553 , 999 553 
Q 994 553 , 988 553 
Q 975 553 , 968 553 
Q 960 552 , 960 552 
Q 960 552 , 968 551 
Q 975 551 , 988 551 
Q 994 551 , 999 551 
Q 1004 551 , 1009 551 
L 1009 551 
Q 1002 551 , 998 551 
Q 994 551 , 989 551 
Q 979 551 , 973 551 
Q 968 552 , 968 552 
Q 968 552 , 973 553 
Q 979 553 , 989 553 
Q 994 553 , 997 553 
Q 1001 553 , 1002 553 
" fill="#F5C000" />
<path d="
M 952 548 
L 952 544 
L 938 544 
L 938 542 
L 960 542 
L 960 549 
Q 955 550 , 949 550 
Q 944 550 , 938 550 
Q 925 550 , 918 548 
Q 910 546 , 910 543 
Q 910 539 , 918 537 
Q 925 535 , 938 535 
Q 944 535 , 949 535 
Q 954 536 , 959 536 
L 959 538 
Q 952 537 , 948 537 
Q 944 537 , 939 537 
Q 929 537 , 923 538 
Q 918 540 , 918 543 
Q 918 546 , 923 547 
Q 929 549 , 939 549 
Q 944 549 , 947 549 
Q 951 548 , 952 548 
" fill="lightgray" />
<path d="
M 960 535 
L 969 535 
L 969 544 
Q 969 547 , 973 548 
Q 976 549 , 985 549 
Q 994 549 , 997 548 
Q 1001 547 , 1001 544 
L 1001 535 
L 1010 535 
L 1010 544 
Q 1010 547 , 1004 549 
Q 997 550 , 985 550 
Q 973 550 , 966 549 
Q 960 547 , 960 544 
L 960 535 
" fill="#D21010" />
<path d="
M 960 520 
L 960 522 
Q 953 521 , 949 520 
Q 944 520 , 939 520 
Q 929 520 , 924 522 
Q 918 523 , 918 526 
Q 918 530 , 924 531 
Q 929 533 , 939 533 
Q 944 533 , 949 533 
Q 953 532 , 960 531 
L 960 533 
Q 955 534 , 949 535 
Q 945 535 , 939 535 
Q 925 535 , 918 533 
Q 910 530 , 910 526 
Q 910 523 , 918 520 
Q 925 518 , 939 518 
Q 945 518 , 950 518 
Q 955 519 , 960 520 
" fill="lightgray" />
<path d="
M 1002 533 
L 1002 528 
L 988 528 
L 988 526 
L 1010 526 
L 1010 534 
Q 1005 534 , 999 535 
Q 994 535 , 988 535 
Q 975 535 , 968 533 
Q 960 530 , 960 526 
Q 960 523 , 968 520 
Q 975 518 , 988 518 
Q 994 518 , 999 518 
Q 1004 519 , 1009 519 
L 1009 522 
Q 1002 521 , 998 520 
Q 994 520 , 989 520 
Q 979 520 , 973 522 
Q 968 523 , 968 526 
Q 968 530 , 973 531 
Q 979 533 , 989 533 
Q 994 533 , 997 533 
Q 1001 533 , 1002 533 
" fill="#F5C000" />
<path d="
M 935 502 
L 926 510 
L 943 510 
L 935 502 
M 931 499 
L 939 499 
L 960 518 
L 952 518 
L 946 512 
L 924 512 
L 917 518 
L 910 518 
L 931 499 
" fill="lightgray" />
<path d="
M 960 499 
L 969 499 
L 969 510 
Q 969 513 , 973 514 
Q 976 516 , 985 516 
Q 994 516 , 997 514 
Q 1001 513 , 1001 510 
L 1001 499 
L 1010 499 
L 1010 510 
Q 1010 514 , 1004 516 
Q 997 518 , 985 518 
Q 973 518 , 966 516 
Q 960 514 , 960 510 
L 960 499 
" fill="#D21010" />
<path d="
M 952 496 
L 952 490 
L 938 490 
L 938 488 
L 960 488 
L 960 497 
Q 955 498 , 949 498 
Q 944 498 , 938 499 
Q 925 499 , 918 496 
Q 910 493 , 910 488 
Q 910 483 , 918 481 
Q 925 478 , 938 478 
Q 944 478 , 949 478 
Q 954 479 , 959 480 
L 959 482 
Q 952 481 , 948 481 
Q 944 480 , 939 480 
Q 929 480 , 923 482 
Q 918 484 , 918 488 
Q 918 492 , 923 494 
Q 929 496 , 939 496 
Q 944 496 , 947 496 
Q 951 496 , 952 496 
" fill="lightgray" />
<path d="
M 1010 480 
L 1010 483 
Q 1003 481 , 999 481 
Q 994 480 , 989 480 
Q 979 480 , 974 482 
Q 968 484 , 968 488 
Q 968 492 , 974 494 
Q 979 496 , 989 496 
Q 994 496 , 999 496 
Q 1003 495 , 1010 493 
L 1010 496 
Q 1005 498 , 999 498 
Q 995 499 , 989 499 
Q 975 499 , 968 496 
Q 960 493 , 960 488 
Q 960 484 , 968 481 
Q 975 478 , 989 478 
Q 995 478 , 1000 479 
Q 1005 479 , 1010 480 
" fill="#545FFF" />
<path d="
M 1015 552 
L 1033 552 
L 1033 553 
Q 1033 554 , 1041 554 
Q 1048 554 , 1065 554 
Q 1082 554 , 1090 554 
Q 1097 554 , 1097 553 
L 1097 552 
L 1115 552 
L 1115 553 
Q 1115 554 , 1102 554 
Q 1090 554 , 1065 554 
Q 1041 554 , 1028 554 
Q 1015 554 , 1015 553 
L 1015 552 
" fill="#D21010" />
<path d="
M 1115 549 
L 1115 550 
Q 1100 549 , 1092 549 
Q 1084 549 , 1074 549 
Q 1053 549 , 1043 550 
Q 1031 550 , 1031 550 
Q 1031 551 , 1043 551 
Q 1053 551 , 1074 551 
Q 1084 551 , 1092 551 
Q 1100 551 , 1115 551 
L 1115 551 
Q 1104 552 , 1094 552 
Q 1084 552 , 1073 552 
Q 1046 552 , 1031 551 
Q 1015 551 , 1015 550 
Q 1015 550 , 1031 549 
Q 1046 549 , 1073 549 
Q 1084 549 , 1094 549 
Q 1105 549 , 1115 549 
" fill="#545FFF" />
<path d="
M 1099 548 
L 1099 546 
L 1070 546 
L 1070 546 
L 1115 546 
L 1115 548 
Q 1104 548 , 1093 548 
Q 1084 548 , 1072 548 
Q 1046 548 , 1030 548 
Q 1015 547 , 1015 546 
Q 1015 545 , 1030 545 
Q 1046 544 , 1072 544 
Q 1083 544 , 1092 544 
Q 1102 544 , 1112 544 
L 1112 545 
Q 1099 545 , 1091 545 
Q 1082 544 , 1073 544 
Q 1052 544 , 1041 545 
Q 1031 545 , 1031 546 
Q 1031 547 , 1041 547 
Q 1052 548 , 1073 548 
Q 1082 548 , 1089 548 
Q 1096 548 , 1099 548 
" fill="#F5C000" />
<path d="
M 1065 540 
L 1047 542 
L 1081 542 
L 1065 540 
M 1058 539 
L 1072 539 
L 1115 543 
L 1099 543 
L 1087 542 
L 1043 542 
L 1030 543 
L 1015 543 
L 1058 539 
" fill="#339541" />
<path d="
M 1120 553 
L 1129 553 
L 1129 554 
Q 1129 554 , 1133 555 
Q 1136 555 , 1145 555 
Q 1154 555 , 1157 555 
Q 1161 554 , 1161 554 
L 1161 553 
L 1170 553 
L 1170 554 
Q 1170 555 , 1164 555 
Q 1157 555 , 1145 555 
Q 1133 555 , 1126 555 
Q 1120 555 , 1120 554 
L 1120 553 
" fill="lightgray" />
<path d="
M 1195 553 
L 1186 554 
L 1203 554 
L 1195 553 
M 1191 553 
L 1199 553 
L 1220 555 
L 1212 555 
L 1206 554 
L 1184 554 
L 1177 555 
L 1170 555 
L 1191 553 
" fill="#339541" />
<path d="
M 1145 549 
L 1136 551 
L 1153 551 
L 1145 549 
M 1141 548 
L 1149 548 
L 1170 553 
L 1162 553 
L 1156 551 
L 1134 551 
L 1127 553 
L 1120 553 
L 1141 548 
" fill="lightgray" />
<path d="
M 1170 548 
L 1179 548 
L 1179 551 
Q 1179 552 , 1183 552 
Q 1186 552 , 1195 552 
Q 1204 552 , 1207 552 
Q 1211 552 , 1211 551 
L 1211 548 
L 1220 548 
L 1220 551 
Q 1220 552 , 1214 552 
Q 1207 553 , 1195 553 
Q 1183 553 , 1176 552 
Q 1170 552 , 1170 551 
L 1170 548 
" fill="#D21010" />
<path d="
M 1120 542 
L 1129 542 
L 1129 545 
Q 1129 546 , 1133 546 
Q 1136 547 , 1145 547 
Q 1154 547 , 1157 546 
Q 1161 546 , 1161 545 
L 1161 542 
L 1170 542 
L 1170 545 
Q 1170 546 , 1164 547 
Q 1157 547 , 1145 547 
Q 1133 547 , 1126 547 
Q 1120 546 , 1120 545 
L 1120 542 
" fill="lightgray" />
<path d="
M 1212 546 
L 1212 545 
L 1198 545 
L 1198 544 
L 1220 544 
L 1220 547 
Q 1215 547 , 1209 547 
Q 1204 547 , 1198 547 
Q 1185 547 , 1178 546 
Q 1170 546 , 1170 545 
Q 1170 543 , 1178 543 
Q 1185 542 , 1198 542 
Q 1204 542 , 1209 542 
Q 1214 542 , 1219 542 
L 1219 543 
Q 1212 543 , 1208 543 
Q 1204 543 , 1199 543 
Q 1189 543 , 1183 543 
Q 1178 544 , 1178 545 
Q 1178 546 , 1183 546 
Q 1189 547 , 1199 547 
Q 1204 547 , 1207 546 
Q 1211 546 , 1212 546 
" fill="#F5C000" />
<path d="
M 1162 539 
L 1162 533 
L 1148 533 
L 1148 531 
L 1170 531 
L 1170 540 
Q 1165 541 , 1159 541 
Q 1154 542 , 1148 542 
Q 1135 542 , 1128 539 
Q 1120 536 , 1120 531 
Q 1120 527 , 1128 524 
Q 1135 521 , 1148 521 
Q 1154 521 , 1159 521 
Q 1164 522 , 1169 523 
L 1169 525 
Q 1162 524 , 1158 524 
Q 1154 523 , 1149 523 
Q 1139 523 , 1133 525 
Q 1128 527 , 1128 531 
Q 1128 535 , 1133 537 
Q 1139 539 , 1149 539 
Q 1154 539 , 1157 539 
Q 1161 539 , 1162 539 
" fill="lightgray" />
<path d="
M 1220 523 
L 1220 526 
Q 1213 524 , 1209 524 
Q 1204 523 , 1199 523 
Q 1189 523 , 1184 525 
Q 1178 527 , 1178 531 
Q 1178 535 , 1184 537 
Q 1189 539 , 1199 539 
Q 1204 539 , 1209 539 
Q 1213 538 , 1220 536 
L 1220 540 
Q 1215 541 , 1209 541 
Q 1205 542 , 1199 542 
Q 1185 542 , 1178 539 
Q 1170 536 , 1170 531 
Q 1170 527 , 1178 524 
Q 1185 521 , 1199 521 
Q 1205 521 , 1210 522 
Q 1215 522 , 1220 523 
" fill="#545FFF" />
<path d="
M 1162 516 
L 1162 509 
L 1148 509 
L 1148 506 
L 1170 506 
L 1170 518 
Q 1165 519 , 1159 520 
Q 1154 520 , 1148 520 
Q 1135 520 , 1128 517 
Q 1120 513 , 1120 507 
Q 1120 501 , 1128 497 
Q 1135 494 , 1148 494 
Q 1154 494 , 1159 494 
Q 1164 495 , 1169 496 
L 1169 499 
Q 1162 498 , 1158 498 
Q 1154 497 , 1149 497 
Q 1139 497 , 1133 500 
Q 1128 502 , 1128 507 
Q 1128 512 , 1133 515 
Q 1139 517 , 1149 517 
Q 1154 517 , 1157 517 
Q 1161 517 , 1162 516 
" fill="lightgray" />
<path d="
M 1170 494 
L 1179 494 
L 1179 509 
Q 1179 514 , 1183 515 
Q 1186 517 , 1195 517 
Q 1204 517 , 1207 515 
Q 1211 514 , 1211 509 
L 1211 494 
L 1220 494 
L 1220 510 
Q 1220 515 , 1214 517 
Q 1207 520 , 1195 520 
Q 1183 520 , 1176 517 
Q 1170 515 , 1170 510 
L 1170 494 
" fill="#D21010" />
<path d="
M 1170 469 
L 1170 473 
Q 1163 470 , 1159 470 
Q 1154 469 , 1149 469 
Q 1139 469 , 1134 472 
Q 1128 474 , 1128 479 
Q 1128 485 , 1134 488 
Q 1139 490 , 1149 490 
Q 1154 490 , 1159 490 
Q 1163 489 , 1170 486 
L 1170 491 
Q 1165 492 , 1159 493 
Q 1155 493 , 1149 493 
Q 1135 493 , 1128 490 
Q 1120 486 , 1120 480 
Q 1120 473 , 1128 470 
Q 1135 466 , 1149 466 
Q 1155 466 , 1160 467 
Q 1165 467 , 1170 469 
" fill="lightgray" />
<path d="
M 1212 489 
L 1212 482 
L 1198 482 
L 1198 479 
L 1220 479 
L 1220 491 
Q 1215 492 , 1209 493 
Q 1204 493 , 1198 493 
Q 1185 493 , 1178 490 
Q 1170 486 , 1170 480 
Q 1170 473 , 1178 470 
Q 1185 466 , 1198 466 
Q 1204 466 , 1209 466 
Q 1214 467 , 1219 468 
L 1219 472 
Q 1212 470 , 1208 470 
Q 1204 469 , 1199 469 
Q 1189 469 , 1183 472 
Q 1178 474 , 1178 480 
Q 1178 485 , 1183 488 
Q 1189 490 , 1199 490 
Q 1204 490 , 1207 490 
Q 1211 490 , 1212 489 
" fill="#F5C000" />
<path d="
M 1225 549 
L 1243 549 
L 1243 552 
Q 1243 553 , 1251 553 
Q 1258 554 , 1275 554 
Q 1292 554 , 1300 553 
Q 1307 553 , 1307 552 
L 1307 549 
L 1325 549 
L 1325 552 
Q 1325 553 , 1312 554 
Q 1300 554 , 1275 554 
Q 1251 554 , 1238 554 
Q 1225 553 , 1225 552 
L 1225 549 
" fill="#D21010" />
<path d="
M 1309 547 
L 1309 546 
L 1280 546 
L 1280 545 
L 1325 545 
L 1325 548 
Q 1314 548 , 1303 548 
Q 1294 548 , 1282 548 
Q 1256 548 , 1240 547 
Q 1225 546 , 1225 545 
Q 1225 544 , 1240 543 
Q 1256 542 , 1282 542 
Q 1293 542 , 1302 542 
Q 1312 542 , 1322 542 
L 1322 543 
Q 1309 543 , 1301 543 
Q 1292 543 , 1283 543 
Q 1262 543 , 1251 543 
Q 1241 544 , 1241 545 
Q 1241 546 , 1251 547 
Q 1262 547 , 1283 547 
Q 1292 547 , 1299 547 
Q 1306 547 , 1309 547 
" fill="#F5C000" />
<path d="
M 1275 519 
L 1257 530 
L 1291 530 
L 1275 519 
M 1268 514 
L 1282 514 
L 1325 541 
L 1309 541 
L 1297 533 
L 1253 533 
L 1240 541 
L 1225 541 
L 1268 514 
" fill="#339541" />
<path d="
M 1325 484 
L 1325 489 
Q 1310 485 , 1302 485 
Q 1294 484 , 1284 484 
Q 1263 484 , 1253 487 
Q 1241 490 , 1241 496 
Q 1241 503 , 1253 506 
Q 1263 510 , 1284 510 
Q 1294 510 , 1302 509 
Q 1310 508 , 1325 505 
L 1325 510 
Q 1314 512 , 1304 513 
Q 1294 513 , 1283 513 
Q 1256 513 , 1241 509 
Q 1225 504 , 1225 497 
Q 1225 489 , 1241 485 
Q 1256 480 , 1283 480 
Q 1294 480 , 1304 481 
Q 1315 482 , 1325 484 
" fill="#545FFF" />
<path d="
M 1430 554 
L 1430 554 
Q 1415 554 , 1407 554 
Q 1399 554 , 1389 554 
Q 1368 554 , 1358 554 
Q 1346 554 , 1346 554 
Q 1346 554 , 1358 554 
Q 1368 554 , 1389 554 
Q 1399 554 , 1407 554 
Q 1415 554 , 1430 554 
L 1430 554 
Q 1419 554 , 1409 554 
Q 1399 554 , 1388 554 
Q 1361 554 , 1346 554 
Q 1330 554 , 1330 554 
Q 1330 554 , 1346 554 
Q 1361 554 , 1388 554 
Q 1399 554 , 1409 554 
Q 1420 554 , 1430 554 
" fill="#545FFF" />
<path d="
M 1414 553 
L 1414 553 
L 1385 553 
L 1385 553 
L 1430 553 
L 1430 553 
Q 1419 553 , 1408 553 
Q 1399 553 , 1387 553 
Q 1361 553 , 1345 553 
Q 1330 553 , 1330 553 
Q 1330 553 , 1345 553 
Q 1361 553 , 1387 553 
Q 1398 553 , 1407 553 
Q 1417 553 , 1427 553 
L 1427 553 
Q 1414 553 , 1406 553 
Q 1397 553 , 1388 553 
Q 1367 553 , 1356 553 
Q 1346 553 , 1346 553 
Q 1346 553 , 1356 553 
Q 1367 553 , 1388 553 
Q 1397 553 , 1404 553 
Q 1411 553 , 1414 553 
" fill="#F5C000" />
<path d="
M 1380 552 
L 1362 552 
L 1396 552 
L 1380 552 
M 1373 552 
L 1387 552 
L 1430 552 
L 1414 552 
L 1402 552 
L 1358 552 
L 1345 552 
L 1330 552 
L 1373 552 
" fill="#339541" />
<path d="
M 1330 551 
L 1348 551 
L 1348 551 
Q 1348 551 , 1356 551 
Q 1363 551 , 1380 551 
Q 1397 551 , 1405 551 
Q 1412 551 , 1412 551 
L 1412 551 
L 1430 551 
L 1430 551 
Q 1430 551 , 1417 551 
Q 1405 551 , 1380 551 
Q 1356 551 , 1343 551 
Q 1330 551 , 1330 551 
L 1330 551 
" fill="#D21010" />
<path d="M 65 168 L 65 555 " stroke="black" stroke-width="1.5"/>
<path d="M 55 555 L 65 555 " stroke="black" stroke-width="4"/>
<text text-anchor="end" x="50" y="555" font-size="50" alignment-baseline="middle">0</text>
<path d="M 55 362 L 65 362 " stroke="black" stroke-width="4"/>
<text text-anchor="end" x="50" y="362" font-size="50" alignment-baseline="middle">1</text>
<path d="M 55 168 L 65 168 " stroke="black" stroke-width="4"/>
<text text-anchor="end" x="50" y="168" font-size="50" alignment-baseline="middle">2</text>
<text text-anchor="middle" x="750" y="50" font-size="50" alignment-baseline="baseline"></text>
G<path d="
M 160 582 
L 126 595 
L 160 608 
L 157 611 
L 123 598 
L 123 623 
L 117 623 
L 117 599 
L 83 611 
L 80 608 
L 114 595 
L 80 582 
L 83 579 
L 117 591 
L 117 567 
L 123 567 
L 123 591 
L 157 579 
L 160 582 
" fill="black" />
<path d="
M 265 567 
Q 236 574 , 223 581 
Q 210 588 , 210 595 
Q 210 602 , 223 609 
Q 236 616 , 265 623 
L 241 623 
Q 213 616 , 199 609 
Q 185 602 , 185 595 
Q 185 588 , 199 581 
Q 213 574 , 241 567 
L 265 567 
" fill="black" />
<path d="
" fill="black" />
<path d="
M 316 567 
L 343 567 
L 343 623 
L 316 623 
L 316 567 
" fill="black" />
<path d="
" fill="black" />
<path d="
M 475 567 
Q 446 574 , 433 581 
Q 420 588 , 420 595 
Q 420 602 , 433 609 
Q 446 616 , 475 623 
L 451 623 
Q 423 616 , 409 609 
Q 395 602 , 395 595 
Q 395 588 , 409 581 
Q 423 574 , 451 567 
L 475 567 
" fill="black" />
<path d="
" fill="black" />
<path d="
M 526 567 
L 553 567 
L 553 623 
L 526 623 
L 526 567 
" fill="black" />
<path d="
" fill="black" />
<path d="
" fill="black" />
<path d="
M 622 567 
L 642 567 
L 642 623 
L 622 623 
L 622 567 
" fill="black" />
<path d="
" fill="black" />
<path d="
M 672 567 
L 692 567 
L 692 571 
L 680 623 
L 677 623 
L 689 571 
L 672 571 
L 672 567 
" fill="black" />
<path d="
M 790 582 
L 756 595 
L 790 608 
L 787 611 
L 753 598 
L 753 623 
L 747 623 
L 747 599 
L 713 611 
L 710 608 
L 744 595 
L 710 582 
L 713 579 
L 747 591 
L 747 567 
L 753 567 
L 753 591 
L 787 579 
L 790 582 
" fill="black" />
<path d="
" fill="black" />
<path d="
M 841 567 
L 868 567 
L 868 623 
L 841 623 
L 841 567 
" fill="black" />
<path d="
" fill="black" />
<path d="
M 920 567 
L 944 567 
Q 972 574 , 986 581 
Q 1000 588 , 1000 595 
Q 1000 602 , 986 609 
Q 972 616 , 944 623 
L 920 623 
Q 949 616 , 962 609 
Q 975 602 , 975 595 
Q 975 588 , 962 581 
Q 949 574 , 920 567 
" fill="black" />
<path d="
" fill="black" />
<path d="
M 1051 567 
L 1078 567 
L 1078 623 
L 1051 623 
L 1051 567 
" fill="black" />
<path d="
" fill="black" />
<path d="
M 1130 567 
L 1154 567 
Q 1182 574 , 1196 581 
Q 1210 588 , 1210 595 
Q 1210 602 , 1196 609 
Q 1182 616 , 1154 623 
L 1130 623 
Q 1159 616 , 1172 609 
Q 1185 602 , 1185 595 
Q 1185 588 , 1172 581 
Q 1159 574 , 1130 567 
" fill="black" />
<path d="
" fill="black" />
<path d="
M 1261 567 
L 1288 567 
L 1288 623 
L 1261 623 
L 1261 567 
" fill="black" />
<path d="
" fill="black" />
<path d="
M 1420 582 
L 1386 595 
L 1420 608 
L 1417 611 
L 1383 598 
L 1383 623 
L 1377 623 
L 1377 599 
L 1343 611 
L 1340 608 
L 1374 595 
L 1340 582 
L 1343 579 
L 1377 591 
L 1377 567 
L 1383 567 
L 1383 591 
L 1417 579 
L 1420 582 
" fill="black" />
</svg>
