<svg xmlns="http://www.w3.org/2000/svg"
viewBox="0 0 1435 635">
<path d="
M 120 553 
L 102 554 
L 136 554 
L 120 553 
M 113 553 
L 127 553 
L 170 555 
L 154 555 
L 142 554 
L 98 554 
L 85 555 
L 70 555 
L 113 553 
" fill="#339541" />
<path d="
M 70 550 
L 88 550 
L 88 551 
Q 88 552 , 96 552 
Q 103 552 , 120 552 
Q 137 552 , 145 552 
Q 152 552 , 152 551 
L 152 550 
L 170 550 
L 170 551 
Q 170 552 , 157 552 
Q 145 552 , 120 552 
Q 96 552 , 83 552 
Q 70 552 , 70 551 
L 70 550 
" fill="#D21010" />
<path d="
M 170 547 
L 170 548 
Q 155 547 , 147 547 
Q 139 547 , 129 547 
Q 108 547 , 98 548 
Q 86 548 , 86 548 
Q 86 549 , 98 549 
Q 108 550 , 129 550 
Q 139 550 , 147 549 
Q 155 549 , 170 549 
L 170 550 
Q 159 550 , 149 550 
Q 139 550 , 128 550 
Q 101 550 , 86 549 
Q 70 549 , 70 548 
Q 70 548 , 86 547 
Q 101 547 , 128 547 
Q 139 547 , 149 547 
Q 160 547 , 170 547 
" fill="#545FFF" />
<path d="
M 154 546 
L 154 545 
L 125 545 
L 125 545 
L 170 545 
L 170 547 
Q 159 547 , 148 547 
Q 139 547 , 127 547 
Q 101 547 , 85 546 
Q 70 546 , 70 545 
Q 70 544 , 85 544 
Q 101 543 , 127 543 
Q 138 543 , 147 543 
Q 157 543 , 167 543 
L 167 544 
Q 154 544 , 146 544 
Q 137 543 , 128 543 
Q 107 543 , 96 544 
Q 86 544 , 86 545 
Q 86 546 , 96 546 
Q 107 547 , 128 547 
Q 137 547 , 144 546 
Q 151 546 , 154 546 
" fill="#F5C000" />
<path d="
M 275 549 
L 275 550 
Q 260 549 , 252 549 
Q 244 549 , 234 549 
Q 213 549 , 203 549 
Q 191 550 , 191 551 
Q 191 553 , 203 553 
Q 213 554 , 234 554 
Q 244 554 , 252 554 
Q 260 554 , 275 553 
L 275 554 
Q 264 554 , 254 555 
Q 244 555 , 233 555 
Q 206 555 , 191 554 
Q 175 553 , 175 551 
Q 175 550 , 191 549 
Q 206 548 , 233 548 
Q 244 548 , 254 548 
Q 265 548 , 275 549 
" fill="#545FFF" />
<path d="
M 175 540 
L 193 540 
L 193 544 
Q 193 545 , 201 546 
Q 208 546 , 225 546 
Q 242 546 , 250 546 
Q 257 545 , 257 544 
L 257 540 
L 275 540 
L 275 544 
Q 275 546 , 262 547 
Q 250 547 , 225 547 
Q 201 547 , 188 547 
Q 175 546 , 175 544 
L 175 540 
" fill="#D21010" />
<path d="
M 225 517 
L 207 528 
L 241 528 
L 225 517 
M 218 512 
L 232 512 
L 275 539 
L 259 539 
L 247 531 
L 203 531 
L 190 539 
L 175 539 
L 218 512 
" fill="#339541" />
<path d="
M 259 502 
L 259 484 
L 230 484 
L 230 477 
L 275 477 
L 275 506 
Q 264 509 , 253 510 
Q 244 511 , 232 511 
Q 206 511 , 190 503 
Q 175 494 , 175 479 
Q 175 463 , 190 455 
Q 206 446 , 232 446 
Q 243 446 , 252 447 
Q 262 448 , 272 451 
L 272 460 
Q 259 456 , 251 455 
Q 242 454 , 233 454 
Q 212 454 , 201 460 
Q 191 466 , 191 479 
Q 191 491 , 201 498 
Q 212 504 , 233 504 
Q 242 504 , 249 503 
Q 256 503 , 259 502 
" fill="#F5C000" />
<path d="
M 280 553 
L 289 553 
L 289 554 
Q 289 554 , 293 554 
Q 296 554 , 305 554 
Q 314 554 , 317 554 
Q 321 554 , 321 554 
L 321 553 
L 330 553 
L 330 554 
Q 330 554 , 324 554 
Q 317 555 , 305 555 
Q 293 555 , 286 554 
Q 280 554 , 280 554 
L 280 553 
" fill="#D21010" />
<path d="
M 372 554 
L 372 554 
L 358 554 
L 358 554 
L 380 554 
L 380 554 
Q 375 554 , 369 555 
Q 364 555 , 358 555 
Q 345 555 , 338 554 
Q 330 554 , 330 554 
Q 330 553 , 338 553 
Q 345 553 , 358 553 
Q 364 553 , 369 553 
Q 374 553 , 379 553 
L 379 553 
Q 372 553 , 368 553 
Q 364 553 , 359 553 
Q 349 553 , 343 553 
Q 338 553 , 338 554 
Q 338 554 , 343 554 
Q 349 554 , 359 554 
Q 364 554 , 367 554 
Q 371 554 , 372 554 
" fill="lightgray" />
<path d="
M 322 552 
L 322 552 
L 308 552 
L 308 552 
L 330 552 
L 330 552 
Q 325 553 , 319 553 
Q 314 553 , 308 553 
Q 295 553 , 288 552 
Q 280 552 , 280 552 
Q 280 551 , 288 551 
Q 295 551 , 308 551 
Q 314 551 , 319 551 
Q 324 551 , 329 551 
L 329 551 
Q 322 551 , 318 551 
Q 314 551 , 309 551 
Q 299 551 , 293 551 
Q 288 551 , 288 552 
Q 288 552 , 293 552 
Q 299 552 , 309 552 
Q 314 552 , 317 552 
Q 321 552 , 322 552 
" fill="#F5C000" />
<path d="
M 330 551 
L 339 551 
L 339 552 
Q 339 552 , 343 552 
Q 346 552 , 355 552 
Q 364 552 , 367 552 
Q 371 552 , 371 552 
L 371 551 
L 380 551 
L 380 552 
Q 380 552 , 374 552 
Q 367 553 , 355 553 
Q 343 553 , 336 552 
Q 330 552 , 330 552 
L 330 551 
" fill="lightgray" />
<path d="
M 305 540 
L 296 545 
L 313 545 
L 305 540 
M 301 538 
L 309 538 
L 330 550 
L 322 550 
L 316 547 
L 294 547 
L 287 550 
L 280 550 
L 301 538 
" fill="#339541" />
<path d="
M 330 538 
L 339 538 
L 339 545 
Q 339 547 , 343 548 
Q 346 549 , 355 549 
Q 364 549 , 367 548 
Q 371 547 , 371 545 
L 371 538 
L 380 538 
L 380 545 
Q 380 548 , 374 549 
Q 367 550 , 355 550 
Q 343 550 , 336 549 
Q 330 548 , 330 545 
L 330 538 
" fill="lightgray" />
<path d="
M 280 520 
L 289 520 
L 289 530 
Q 289 533 , 293 534 
Q 296 536 , 305 536 
Q 314 536 , 317 534 
Q 321 533 , 321 530 
L 321 520 
L 330 520 
L 330 531 
Q 330 534 , 324 536 
Q 317 538 , 305 538 
Q 293 538 , 286 536 
Q 280 534 , 280 531 
L 280 520 
" fill="#D21010" />
<path d="
M 355 523 
L 346 530 
L 363 530 
L 355 523 
M 351 520 
L 359 520 
L 380 538 
L 372 538 
L 366 532 
L 344 532 
L 337 538 
L 330 538 
L 351 520 
" fill="lightgray" />
<path d="
M 330 482 
L 330 488 
Q 323 484 , 319 483 
Q 314 482 , 309 482 
Q 299 482 , 294 486 
Q 288 490 , 288 498 
Q 288 506 , 294 511 
Q 299 515 , 309 515 
Q 314 515 , 319 514 
Q 323 512 , 330 508 
L 330 515 
Q 325 517 , 319 518 
Q 315 519 , 309 519 
Q 295 519 , 288 513 
Q 280 508 , 280 498 
Q 280 488 , 288 483 
Q 295 477 , 309 477 
Q 315 477 , 320 478 
Q 325 479 , 330 482 
" fill="#545FFF" />
<path d="
M 372 513 
L 372 502 
L 358 502 
L 358 497 
L 380 497 
L 380 516 
Q 375 518 , 369 518 
Q 364 519 , 358 519 
Q 345 519 , 338 514 
Q 330 508 , 330 498 
Q 330 488 , 338 483 
Q 345 477 , 358 477 
Q 364 477 , 369 478 
Q 374 479 , 379 480 
L 379 486 
Q 372 483 , 368 483 
Q 364 482 , 359 482 
Q 349 482 , 343 486 
Q 338 490 , 338 498 
Q 338 506 , 343 510 
Q 349 514 , 359 514 
Q 364 514 , 367 514 
Q 371 514 , 372 513 
" fill="lightgray" />
<path d="
M 322 460 
L 322 430 
L 308 430 
L 308 418 
L 330 418 
L 330 467 
Q 325 472 , 319 474 
Q 314 476 , 308 476 
Q 295 476 , 288 461 
Q 280 446 , 280 420 
Q 280 394 , 288 379 
Q 295 364 , 308 364 
Q 314 364 , 319 366 
Q 324 368 , 329 373 
L 329 387 
Q 322 381 , 318 379 
Q 314 377 , 309 377 
Q 299 377 , 293 388 
Q 288 398 , 288 420 
Q 288 442 , 293 453 
Q 299 464 , 309 464 
Q 314 464 , 317 462 
Q 321 461 , 322 460 
" fill="#F5C000" />
<path d="
M 380 376 
L 380 393 
Q 373 382 , 369 379 
Q 364 376 , 359 376 
Q 349 376 , 344 387 
Q 338 398 , 338 420 
Q 338 442 , 344 453 
Q 349 464 , 359 464 
Q 364 464 , 369 461 
Q 373 458 , 380 447 
L 380 465 
Q 375 471 , 369 473 
Q 365 476 , 359 476 
Q 345 476 , 338 461 
Q 330 446 , 330 420 
Q 330 394 , 338 379 
Q 345 364 , 359 364 
Q 365 364 , 370 367 
Q 375 369 , 380 376 
" fill="lightgray" />
<path d="
M 435 553 
L 417 554 
L 451 554 
L 435 553 
M 428 553 
L 442 553 
L 485 555 
L 469 555 
L 457 554 
L 413 554 
L 400 555 
L 385 555 
L 428 553 
" fill="#339541" />
<path d="
M 385 540 
L 403 540 
L 403 547 
Q 403 550 , 411 550 
Q 418 551 , 435 551 
Q 452 551 , 460 550 
Q 467 550 , 467 547 
L 467 540 
L 485 540 
L 485 548 
Q 485 550 , 472 551 
Q 460 553 , 435 553 
Q 411 553 , 398 551 
Q 385 550 , 385 548 
L 385 540 
" fill="#D21010" />
<path d="
M 485 510 
L 485 515 
Q 470 511 , 462 511 
Q 454 510 , 444 510 
Q 423 510 , 413 513 
Q 401 516 , 401 523 
Q 401 530 , 413 533 
Q 423 536 , 444 536 
Q 454 536 , 462 535 
Q 470 534 , 485 531 
L 485 536 
Q 474 538 , 464 539 
Q 454 540 , 443 540 
Q 416 540 , 401 535 
Q 385 531 , 385 523 
Q 385 515 , 401 511 
Q 416 506 , 443 506 
Q 454 506 , 464 507 
Q 475 508 , 485 510 
" fill="#545FFF" />
<path d="
M 469 493 
L 469 470 
L 440 470 
L 440 460 
L 485 460 
L 485 499 
Q 474 502 , 463 504 
Q 454 505 , 442 505 
Q 416 505 , 400 494 
Q 385 482 , 385 462 
Q 385 442 , 400 431 
Q 416 419 , 442 419 
Q 453 419 , 462 420 
Q 472 422 , 482 426 
L 482 437 
Q 469 432 , 461 431 
Q 452 429 , 443 429 
Q 422 429 , 411 437 
Q 401 446 , 401 462 
Q 401 479 , 411 488 
Q 422 496 , 443 496 
Q 452 496 , 459 495 
Q 466 494 , 469 493 
" fill="#F5C000" />
<path d="
M 532 554 
L 532 554 
L 518 554 
L 518 554 
L 540 554 
L 540 554 
Q 535 555 , 529 555 
Q 524 555 , 518 555 
Q 505 555 , 498 554 
Q 490 554 , 490 554 
Q 490 553 , 498 553 
Q 505 553 , 518 553 
Q 524 553 , 529 553 
Q 534 553 , 539 553 
L 539 553 
Q 532 553 , 528 553 
Q 524 553 , 519 553 
Q 509 553 , 503 553 
Q 498 553 , 498 554 
Q 498 554 , 503 554 
Q 509 554 , 519 554 
Q 524 554 , 527 554 
Q 531 554 , 532 554 
" fill="#F5C000" />
<path d="
M 540 553 
L 549 553 
L 549 554 
Q 549 554 , 553 554 
Q 556 554 , 565 554 
Q 574 554 , 577 554 
Q 581 554 , 581 554 
L 581 553 
L 590 553 
L 590 554 
Q 590 554 , 584 554 
Q 577 555 , 565 555 
Q 553 555 , 546 554 
Q 540 554 , 540 554 
L 540 553 
" fill="lightgray" />
<path d="
M 515 549 
L 506 550 
L 523 550 
L 515 549 
M 511 548 
L 519 548 
L 540 552 
L 532 552 
L 526 551 
L 504 551 
L 497 552 
L 490 552 
L 511 548 
" fill="#339541" />
<path d="
M 540 548 
L 549 548 
L 549 550 
Q 549 551 , 553 551 
Q 556 552 , 565 552 
Q 574 552 , 577 551 
Q 581 551 , 581 550 
L 581 548 
L 590 548 
L 590 551 
Q 590 551 , 584 552 
Q 577 552 , 565 552 
Q 553 552 , 546 552 
Q 540 551 , 540 551 
L 540 548 
" fill="lightgray" />
<path d="
M 490 540 
L 499 540 
L 499 544 
Q 499 546 , 503 546 
Q 506 546 , 515 546 
Q 524 546 , 527 546 
Q 531 546 , 531 544 
L 531 540 
L 540 540 
L 540 544 
Q 540 546 , 534 547 
Q 527 547 , 515 547 
Q 503 547 , 496 547 
Q 490 546 , 490 544 
L 490 540 
" fill="#D21010" />
<path d="
M 582 546 
L 582 544 
L 568 544 
L 568 543 
L 590 543 
L 590 547 
Q 585 547 , 579 547 
Q 574 547 , 568 547 
Q 555 547 , 548 546 
Q 540 545 , 540 544 
Q 540 542 , 548 541 
Q 555 540 , 568 540 
Q 574 540 , 579 540 
Q 584 540 , 589 541 
L 589 542 
Q 582 541 , 578 541 
Q 574 541 , 569 541 
Q 559 541 , 553 542 
Q 548 542 , 548 544 
Q 548 545 , 553 546 
Q 559 546 , 569 546 
Q 574 546 , 577 546 
Q 581 546 , 582 546 
" fill="lightgray" />
<path d="
M 490 515 
L 499 515 
L 499 529 
Q 499 533 , 503 535 
Q 506 537 , 515 537 
Q 524 537 , 527 535 
Q 531 533 , 531 529 
L 531 515 
L 540 515 
L 540 530 
Q 540 534 , 534 537 
Q 527 539 , 515 539 
Q 503 539 , 496 537 
Q 490 534 , 490 530 
L 490 515 
" fill="#D21010" />
<path d="
M 565 519 
L 556 529 
L 573 529 
L 565 519 
M 561 515 
L 569 515 
L 590 539 
L 582 539 
L 576 532 
L 554 532 
L 547 539 
L 540 539 
L 561 515 
" fill="lightgray" />
<path d="
M 532 510 
L 532 501 
L 518 501 
L 518 497 
L 540 497 
L 540 512 
Q 535 514 , 529 514 
Q 524 515 , 518 515 
Q 505 515 , 498 510 
Q 490 506 , 490 498 
Q 490 490 , 498 486 
Q 505 481 , 518 481 
Q 524 481 , 529 482 
Q 534 482 , 539 484 
L 539 488 
Q 532 486 , 528 486 
Q 524 485 , 519 485 
Q 509 485 , 503 488 
Q 498 491 , 498 498 
Q 498 504 , 503 508 
Q 509 511 , 519 511 
Q 524 511 , 527 511 
Q 531 510 , 532 510 
" fill="#F5C000" />
<path d="
M 590 485 
L 590 490 
Q 583 486 , 579 486 
Q 574 485 , 569 485 
Q 559 485 , 554 488 
Q 548 491 , 548 497 
Q 548 504 , 554 508 
Q 559 511 , 569 511 
Q 574 511 , 579 510 
Q 583 509 , 590 506 
L 590 511 
Q 585 513 , 579 514 
Q 575 515 , 569 515 
Q 555 515 , 548 510 
Q 540 506 , 540 498 
Q 540 490 , 548 486 
Q 555 481 , 569 481 
Q 575 481 , 580 482 
Q 585 483 , 590 485 
" fill="lightgray" />
<path d="
M 540 388 
L 540 404 
Q 533 394 , 529 391 
Q 524 388 , 519 388 
Q 509 388 , 504 398 
Q 498 409 , 498 429 
Q 498 449 , 504 459 
Q 509 469 , 519 469 
Q 524 469 , 529 467 
Q 533 464 , 540 453 
L 540 470 
Q 535 476 , 529 478 
Q 525 480 , 519 480 
Q 505 480 , 498 466 
Q 490 452 , 490 429 
Q 490 405 , 498 391 
Q 505 377 , 519 377 
Q 525 377 , 530 380 
Q 535 382 , 540 388 
" fill="#545FFF" />
<path d="
M 582 465 
L 582 438 
L 568 438 
L 568 426 
L 590 426 
L 590 472 
Q 585 477 , 579 478 
Q 574 480 , 568 480 
Q 555 480 , 548 466 
Q 540 453 , 540 429 
Q 540 405 , 548 391 
Q 555 377 , 568 377 
Q 574 377 , 579 379 
Q 584 381 , 589 385 
L 589 399 
Q 582 393 , 578 391 
Q 574 389 , 569 389 
Q 559 389 , 553 399 
Q 548 409 , 548 429 
Q 548 449 , 553 459 
Q 559 469 , 569 469 
Q 574 469 , 577 468 
Q 581 467 , 582 465 
" fill="lightgray" />
<path d="
M 645 551 
L 627 553 
L 661 553 
L 645 551 
M 638 550 
L 652 550 
L 695 554 
L 679 554 
L 667 553 
L 623 553 
L 610 554 
L 595 554 
L 638 550 
" fill="#339541" />
<path d="
M 695 543 
L 695 544 
Q 680 543 , 672 543 
Q 664 543 , 654 543 
Q 633 543 , 623 544 
Q 611 544 , 611 545 
Q 611 547 , 623 548 
Q 633 549 , 654 549 
Q 664 549 , 672 549 
Q 680 548 , 695 548 
L 695 549 
Q 684 549 , 674 550 
Q 664 550 , 653 550 
Q 626 550 , 611 549 
Q 595 548 , 595 546 
Q 595 544 , 611 543 
Q 626 542 , 653 542 
Q 664 542 , 674 542 
Q 685 542 , 695 543 
" fill="#545FFF" />
<path d="
M 595 527 
L 613 527 
L 613 535 
Q 613 538 , 621 539 
Q 628 539 , 645 539 
Q 662 539 , 670 539 
Q 677 538 , 677 535 
L 677 527 
L 695 527 
L 695 535 
Q 695 538 , 682 540 
Q 670 541 , 645 541 
Q 621 541 , 608 540 
Q 595 538 , 595 535 
L 595 527 
" fill="#D21010" />
<path d="
M 679 523 
L 679 516 
L 650 516 
L 650 514 
L 695 514 
L 695 524 
Q 684 525 , 673 526 
Q 664 526 , 652 526 
Q 626 526 , 610 523 
Q 595 520 , 595 514 
Q 595 508 , 610 505 
Q 626 502 , 652 502 
Q 663 502 , 672 502 
Q 682 503 , 692 504 
L 692 507 
Q 679 506 , 671 505 
Q 662 505 , 653 505 
Q 632 505 , 621 507 
Q 611 509 , 611 514 
Q 611 519 , 621 521 
Q 632 523 , 653 523 
Q 662 523 , 669 523 
Q 676 523 , 679 523 
" fill="#F5C000" />
<path d="
M 750 553 
L 732 554 
L 766 554 
L 750 553 
M 743 553 
L 757 553 
L 800 555 
L 784 555 
L 772 554 
L 728 554 
L 715 555 
L 700 555 
L 743 553 
" fill="#339541" />
<path d="
M 700 550 
L 718 550 
L 718 551 
Q 718 552 , 726 552 
Q 733 552 , 750 552 
Q 767 552 , 775 552 
Q 782 552 , 782 551 
L 782 550 
L 800 550 
L 800 551 
Q 800 552 , 787 552 
Q 775 552 , 750 552 
Q 726 552 , 713 552 
Q 700 552 , 700 551 
L 700 550 
" fill="#D21010" />
<path d="
M 800 547 
L 800 548 
Q 785 547 , 777 547 
Q 769 547 , 759 547 
Q 738 547 , 728 548 
Q 716 548 , 716 548 
Q 716 549 , 728 549 
Q 738 550 , 759 550 
Q 769 550 , 777 549 
Q 785 549 , 800 549 
L 800 550 
Q 789 550 , 779 550 
Q 769 550 , 758 550 
Q 731 550 , 716 549 
Q 700 549 , 700 548 
Q 700 548 , 716 547 
Q 731 547 , 758 547 
Q 769 547 , 779 547 
Q 790 547 , 800 547 
" fill="#545FFF" />
<path d="
M 784 546 
L 784 545 
L 755 545 
L 755 545 
L 800 545 
L 800 547 
Q 789 547 , 778 547 
Q 769 547 , 757 547 
Q 731 547 , 715 546 
Q 700 546 , 700 545 
Q 700 544 , 715 544 
Q 731 543 , 757 543 
Q 768 543 , 777 543 
Q 787 543 , 797 543 
L 797 544 
Q 784 544 , 776 544 
Q 767 543 , 758 543 
Q 737 543 , 726 544 
Q 716 544 , 716 545 
Q 716 546 , 726 546 
Q 737 547 , 758 547 
Q 767 547 , 774 546 
Q 781 546 , 784 546 
" fill="#F5C000" />
<path d="
M 805 549 
L 823 549 
L 823 552 
Q 823 553 , 831 553 
Q 838 554 , 855 554 
Q 872 554 , 880 553 
Q 887 553 , 887 552 
L 887 549 
L 905 549 
L 905 552 
Q 905 553 , 892 554 
Q 880 554 , 855 554 
Q 831 554 , 818 554 
Q 805 553 , 805 552 
L 805 549 
" fill="#D21010" />
<path d="
M 855 544 
L 837 546 
L 871 546 
L 855 544 
M 848 543 
L 862 543 
L 905 549 
L 889 549 
L 877 547 
L 833 547 
L 820 549 
L 805 549 
L 848 543 
" fill="#339541" />
<path d="
M 889 537 
L 889 527 
L 860 527 
L 860 522 
L 905 522 
L 905 539 
Q 894 541 , 883 542 
Q 874 542 , 862 542 
Q 836 542 , 820 537 
Q 805 532 , 805 523 
Q 805 514 , 820 509 
Q 836 504 , 862 504 
Q 873 504 , 882 505 
Q 892 505 , 902 507 
L 902 512 
Q 889 510 , 881 509 
Q 872 509 , 863 509 
Q 842 509 , 831 512 
Q 821 516 , 821 523 
Q 821 531 , 831 534 
Q 842 538 , 863 538 
Q 872 538 , 879 538 
Q 886 537 , 889 537 
" fill="#F5C000" />
<path d="
M 905 458 
L 905 466 
Q 890 461 , 882 460 
Q 874 459 , 864 459 
Q 843 459 , 833 464 
Q 821 469 , 821 478 
Q 821 488 , 833 493 
Q 843 498 , 864 498 
Q 874 498 , 882 497 
Q 890 496 , 905 491 
L 905 499 
Q 894 502 , 884 503 
Q 874 504 , 863 504 
Q 836 504 , 821 497 
Q 805 490 , 805 478 
Q 805 467 , 821 460 
Q 836 453 , 863 453 
Q 874 453 , 884 454 
Q 895 455 , 905 458 
" fill="#545FFF" />
<path d="
M 960 552 
L 942 554 
L 976 554 
L 960 552 
M 953 552 
L 967 552 
L 1010 555 
L 994 555 
L 982 554 
L 938 554 
L 925 555 
L 910 555 
L 953 552 
" fill="#339541" />
<path d="
M 1010 543 
L 1010 545 
Q 995 544 , 987 543 
Q 979 543 , 969 543 
Q 948 543 , 938 544 
Q 926 545 , 926 547 
Q 926 549 , 938 550 
Q 948 551 , 969 551 
Q 979 551 , 987 550 
Q 995 550 , 1010 549 
L 1010 551 
Q 999 551 , 989 552 
Q 979 552 , 968 552 
Q 941 552 , 926 550 
Q 910 549 , 910 547 
Q 910 545 , 926 543 
Q 941 542 , 968 542 
Q 979 542 , 989 542 
Q 1000 542 , 1010 543 
" fill="#545FFF" />
<path d="
M 910 507 
L 928 507 
L 928 528 
Q 928 533 , 936 536 
Q 943 538 , 960 538 
Q 977 538 , 985 536 
Q 992 533 , 992 528 
L 992 507 
L 1010 507 
L 1010 528 
Q 1010 535 , 997 538 
Q 985 542 , 960 542 
Q 936 542 , 923 538 
Q 910 535 , 910 528 
L 910 507 
" fill="#D21010" />
<path d="
M 994 499 
L 994 485 
L 965 485 
L 965 479 
L 1010 479 
L 1010 502 
Q 999 505 , 988 505 
Q 979 506 , 967 506 
Q 941 506 , 925 499 
Q 910 492 , 910 480 
Q 910 468 , 925 461 
Q 941 454 , 967 454 
Q 978 454 , 987 455 
Q 997 456 , 1007 458 
L 1007 465 
Q 994 462 , 986 461 
Q 977 460 , 968 460 
Q 947 460 , 936 465 
Q 926 470 , 926 480 
Q 926 491 , 936 496 
Q 947 501 , 968 501 
Q 977 501 , 984 500 
Q 991 500 , 994 499 
" fill="#F5C000" />
<path d="
M 1057 554 
L 1057 554 
L 1043 554 
L 1043 554 
L 1065 554 
L 1065 554 
Q 1060 555 , 1054 555 
Q 1049 555 , 1043 555 
Q 1030 555 , 1023 554 
Q 1015 554 , 1015 554 
Q 1015 553 , 1023 553 
Q 1030 553 , 1043 553 
Q 1049 553 , 1054 553 
Q 1059 553 , 1064 553 
L 1064 553 
Q 1057 553 , 1053 553 
Q 1049 553 , 1044 553 
Q 1034 553 , 1028 553 
Q 1023 553 , 1023 554 
Q 1023 554 , 1028 554 
Q 1034 554 , 1044 554 
Q 1049 554 , 1052 554 
Q 1056 554 , 1057 554 
" fill="lightgray" />
<path d="
M 1065 553 
L 1074 553 
L 1074 554 
Q 1074 554 , 1078 554 
Q 1081 554 , 1090 554 
Q 1099 554 , 1102 554 
Q 1106 554 , 1106 554 
L 1106 553 
L 1115 553 
L 1115 554 
Q 1115 554 , 1109 554 
Q 1102 555 , 1090 555 
Q 1078 555 , 1071 554 
Q 1065 554 , 1065 554 
L 1065 553 
" fill="#D21010" />
<path d="
M 1040 549 
L 1031 550 
L 1048 550 
L 1040 549 
M 1036 548 
L 1044 548 
L 1065 552 
L 1057 552 
L 1051 551 
L 1029 551 
L 1022 552 
L 1015 552 
L 1036 548 
" fill="lightgray" />
<path d="
M 1065 548 
L 1074 548 
L 1074 550 
Q 1074 551 , 1078 551 
Q 1081 552 , 1090 552 
Q 1099 552 , 1102 551 
Q 1106 551 , 1106 550 
L 1106 548 
L 1115 548 
L 1115 551 
Q 1115 551 , 1109 552 
Q 1102 552 , 1090 552 
Q 1078 552 , 1071 552 
Q 1065 551 , 1065 551 
L 1065 548 
" fill="#D21010" />
<path d="
M 1015 540 
L 1024 540 
L 1024 544 
Q 1024 546 , 1028 546 
Q 1031 546 , 1040 546 
Q 1049 546 , 1052 546 
Q 1056 546 , 1056 544 
L 1056 540 
L 1065 540 
L 1065 544 
Q 1065 546 , 1059 547 
Q 1052 547 , 1040 547 
Q 1028 547 , 1021 547 
Q 1015 546 , 1015 544 
L 1015 540 
" fill="lightgray" />
<path d="
M 1107 546 
L 1107 544 
L 1093 544 
L 1093 543 
L 1115 543 
L 1115 547 
Q 1110 547 , 1104 547 
Q 1099 547 , 1093 547 
Q 1080 547 , 1073 546 
Q 1065 545 , 1065 544 
Q 1065 542 , 1073 541 
Q 1080 540 , 1093 540 
Q 1099 540 , 1104 540 
Q 1109 540 , 1114 541 
L 1114 542 
Q 1107 541 , 1103 541 
Q 1099 541 , 1094 541 
Q 1084 541 , 1078 542 
Q 1073 542 , 1073 544 
Q 1073 545 , 1078 546 
Q 1084 546 , 1094 546 
Q 1099 546 , 1102 546 
Q 1106 546 , 1107 546 
" fill="#F5C000" />
<path d="
M 1015 515 
L 1024 515 
L 1024 529 
Q 1024 533 , 1028 535 
Q 1031 537 , 1040 537 
Q 1049 537 , 1052 535 
Q 1056 533 , 1056 529 
L 1056 515 
L 1065 515 
L 1065 530 
Q 1065 534 , 1059 537 
Q 1052 539 , 1040 539 
Q 1028 539 , 1021 537 
Q 1015 534 , 1015 530 
L 1015 515 
" fill="lightgray" />
<path d="
M 1090 519 
L 1081 529 
L 1098 529 
L 1090 519 
M 1086 515 
L 1094 515 
L 1115 539 
L 1107 539 
L 1101 532 
L 1079 532 
L 1072 539 
L 1065 539 
L 1086 515 
" fill="#339541" />
<path d="
M 1057 510 
L 1057 501 
L 1043 501 
L 1043 497 
L 1065 497 
L 1065 512 
Q 1060 514 , 1054 514 
Q 1049 515 , 1043 515 
Q 1030 515 , 1023 510 
Q 1015 506 , 1015 498 
Q 1015 490 , 1023 486 
Q 1030 481 , 1043 481 
Q 1049 481 , 1054 482 
Q 1059 482 , 1064 484 
L 1064 488 
Q 1057 486 , 1053 486 
Q 1049 485 , 1044 485 
Q 1034 485 , 1028 488 
Q 1023 491 , 1023 498 
Q 1023 504 , 1028 508 
Q 1034 511 , 1044 511 
Q 1049 511 , 1052 511 
Q 1056 510 , 1057 510 
" fill="lightgray" />
<path d="
M 1115 485 
L 1115 490 
Q 1108 486 , 1104 486 
Q 1099 485 , 1094 485 
Q 1084 485 , 1079 488 
Q 1073 491 , 1073 497 
Q 1073 504 , 1079 508 
Q 1084 511 , 1094 511 
Q 1099 511 , 1104 510 
Q 1108 509 , 1115 506 
L 1115 511 
Q 1110 513 , 1104 514 
Q 1100 515 , 1094 515 
Q 1080 515 , 1073 510 
Q 1065 506 , 1065 498 
Q 1065 490 , 1073 486 
Q 1080 481 , 1094 481 
Q 1100 481 , 1105 482 
Q 1110 483 , 1115 485 
" fill="#545FFF" />
<path d="
M 1065 388 
L 1065 404 
Q 1058 394 , 1054 391 
Q 1049 388 , 1044 388 
Q 1034 388 , 1029 398 
Q 1023 409 , 1023 429 
Q 1023 449 , 1029 459 
Q 1034 469 , 1044 469 
Q 1049 469 , 1054 467 
Q 1058 464 , 1065 453 
L 1065 470 
Q 1060 476 , 1054 478 
Q 1050 480 , 1044 480 
Q 1030 480 , 1023 466 
Q 1015 452 , 1015 429 
Q 1015 405 , 1023 391 
Q 1030 377 , 1044 377 
Q 1050 377 , 1055 380 
Q 1060 382 , 1065 388 
" fill="lightgray" />
<path d="
M 1107 465 
L 1107 438 
L 1093 438 
L 1093 426 
L 1115 426 
L 1115 472 
Q 1110 477 , 1104 478 
Q 1099 480 , 1093 480 
Q 1080 480 , 1073 466 
Q 1065 453 , 1065 429 
Q 1065 405 , 1073 391 
Q 1080 377 , 1093 377 
Q 1099 377 , 1104 379 
Q 1109 381 , 1114 385 
L 1114 399 
Q 1107 393 , 1103 391 
Q 1099 389 , 1094 389 
Q 1084 389 , 1078 399 
Q 1073 409 , 1073 429 
Q 1073 449 , 1078 459 
Q 1084 469 , 1094 469 
Q 1099 469 , 1102 468 
Q 1106 467 , 1107 465 
" fill="#F5C000" />
<path d="
M 1170 552 
L 1152 553 
L 1186 553 
L 1170 552 
M 1163 552 
L 1177 552 
L 1220 554 
L 1204 554 
L 1192 554 
L 1148 554 
L 1135 554 
L 1120 554 
L 1163 552 
" fill="#339541" />
<path d="
M 1220 547 
L 1220 548 
Q 1205 548 , 1197 548 
Q 1189 547 , 1179 547 
Q 1158 547 , 1148 548 
Q 1136 548 , 1136 549 
Q 1136 550 , 1148 550 
Q 1158 551 , 1179 551 
Q 1189 551 , 1197 551 
Q 1205 550 , 1220 550 
L 1220 551 
Q 1209 551 , 1199 551 
Q 1189 551 , 1178 551 
Q 1151 551 , 1136 551 
Q 1120 550 , 1120 549 
Q 1120 548 , 1136 548 
Q 1151 547 , 1178 547 
Q 1189 547 , 1199 547 
Q 1210 547 , 1220 547 
" fill="#545FFF" />
<path d="
M 1120 542 
L 1138 542 
L 1138 545 
Q 1138 545 , 1146 546 
Q 1153 546 , 1170 546 
Q 1187 546 , 1195 546 
Q 1202 545 , 1202 545 
L 1202 542 
L 1220 542 
L 1220 545 
Q 1220 546 , 1207 546 
Q 1195 547 , 1170 547 
Q 1146 547 , 1133 546 
Q 1120 546 , 1120 545 
L 1120 542 
" fill="#D21010" />
<path d="
M 1204 540 
L 1204 538 
L 1175 538 
L 1175 537 
L 1220 537 
L 1220 541 
Q 1209 541 , 1198 541 
Q 1189 541 , 1177 541 
Q 1151 541 , 1135 540 
Q 1120 539 , 1120 538 
Q 1120 536 , 1135 535 
Q 1151 534 , 1177 534 
Q 1188 534 , 1197 534 
Q 1207 534 , 1217 535 
L 1217 535 
Q 1204 535 , 1196 535 
Q 1187 535 , 1178 535 
Q 1157 535 , 1146 536 
Q 1136 536 , 1136 538 
Q 1136 539 , 1146 540 
Q 1157 540 , 1178 540 
Q 1187 540 , 1194 540 
Q 1201 540 , 1204 540 
" fill="#F5C000" />
<path d="
M 1225 553 
L 1234 553 
L 1234 554 
Q 1234 554 , 1238 554 
Q 1241 554 , 1250 554 
Q 1259 554 , 1262 554 
Q 1266 554 , 1266 554 
L 1266 553 
L 1275 553 
L 1275 554 
Q 1275 554 , 1269 554 
Q 1262 555 , 1250 555 
Q 1238 555 , 1231 554 
Q 1225 554 , 1225 554 
L 1225 553 
" fill="lightgray" />
<path d="
M 1317 554 
L 1317 554 
L 1303 554 
L 1303 554 
L 1325 554 
L 1325 554 
Q 1320 554 , 1314 555 
Q 1309 555 , 1303 555 
Q 1290 555 , 1283 554 
Q 1275 554 , 1275 554 
Q 1275 553 , 1283 553 
Q 1290 553 , 1303 553 
Q 1309 553 , 1314 553 
Q 1319 553 , 1324 553 
L 1324 553 
Q 1317 553 , 1313 553 
Q 1309 553 , 1304 553 
Q 1294 553 , 1288 553 
Q 1283 553 , 1283 554 
Q 1283 554 , 1288 554 
Q 1294 554 , 1304 554 
Q 1309 554 , 1312 554 
Q 1316 554 , 1317 554 
" fill="#F5C000" />
<path d="
M 1267 552 
L 1267 552 
L 1253 552 
L 1253 552 
L 1275 552 
L 1275 552 
Q 1270 553 , 1264 553 
Q 1259 553 , 1253 553 
Q 1240 553 , 1233 552 
Q 1225 552 , 1225 552 
Q 1225 551 , 1233 551 
Q 1240 551 , 1253 551 
Q 1259 551 , 1264 551 
Q 1269 551 , 1274 551 
L 1274 551 
Q 1267 551 , 1263 551 
Q 1259 551 , 1254 551 
Q 1244 551 , 1238 551 
Q 1233 551 , 1233 552 
Q 1233 552 , 1238 552 
Q 1244 552 , 1254 552 
Q 1259 552 , 1262 552 
Q 1266 552 , 1267 552 
" fill="lightgray" />
<path d="
M 1275 551 
L 1284 551 
L 1284 552 
Q 1284 552 , 1288 552 
Q 1291 552 , 1300 552 
Q 1309 552 , 1312 552 
Q 1316 552 , 1316 552 
L 1316 551 
L 1325 551 
L 1325 552 
Q 1325 552 , 1319 552 
Q 1312 553 , 1300 553 
Q 1288 553 , 1281 552 
Q 1275 552 , 1275 552 
L 1275 551 
" fill="#D21010" />
<path d="
M 1250 540 
L 1241 545 
L 1258 545 
L 1250 540 
M 1246 538 
L 1254 538 
L 1275 550 
L 1267 550 
L 1261 547 
L 1239 547 
L 1232 550 
L 1225 550 
L 1246 538 
" fill="lightgray" />
<path d="
M 1275 538 
L 1284 538 
L 1284 545 
Q 1284 547 , 1288 548 
Q 1291 549 , 1300 549 
Q 1309 549 , 1312 548 
Q 1316 547 , 1316 545 
L 1316 538 
L 1325 538 
L 1325 545 
Q 1325 548 , 1319 549 
Q 1312 550 , 1300 550 
Q 1288 550 , 1281 549 
Q 1275 548 , 1275 545 
L 1275 538 
" fill="#D21010" />
<path d="
M 1225 520 
L 1234 520 
L 1234 530 
Q 1234 533 , 1238 534 
Q 1241 536 , 1250 536 
Q 1259 536 , 1262 534 
Q 1266 533 , 1266 530 
L 1266 520 
L 1275 520 
L 1275 531 
Q 1275 534 , 1269 536 
Q 1262 538 , 1250 538 
Q 1238 538 , 1231 536 
Q 1225 534 , 1225 531 
L 1225 520 
" fill="lightgray" />
<path d="
M 1300 523 
L 1291 530 
L 1308 530 
L 1300 523 
M 1296 520 
L 1304 520 
L 1325 538 
L 1317 538 
L 1311 532 
L 1289 532 
L 1282 538 
L 1275 538 
L 1296 520 
" fill="#339541" />
<path d="
M 1275 482 
L 1275 488 
Q 1268 484 , 1264 483 
Q 1259 482 , 1254 482 
Q 1244 482 , 1239 486 
Q 1233 490 , 1233 498 
Q 1233 506 , 1239 511 
Q 1244 515 , 1254 515 
Q 1259 515 , 1264 514 
Q 1268 512 , 1275 508 
L 1275 515 
Q 1270 517 , 1264 518 
Q 1260 519 , 1254 519 
Q 1240 519 , 1233 513 
Q 1225 508 , 1225 498 
Q 1225 488 , 1233 483 
Q 1240 477 , 1254 477 
Q 1260 477 , 1265 478 
Q 1270 479 , 1275 482 
" fill="lightgray" />
<path d="
M 1317 513 
L 1317 502 
L 1303 502 
L 1303 497 
L 1325 497 
L 1325 516 
Q 1320 518 , 1314 518 
Q 1309 519 , 1303 519 
Q 1290 519 , 1283 514 
Q 1275 508 , 1275 498 
Q 1275 488 , 1283 483 
Q 1290 477 , 1303 477 
Q 1309 477 , 1314 478 
Q 1319 479 , 1324 480 
L 1324 486 
Q 1317 483 , 1313 483 
Q 1309 482 , 1304 482 
Q 1294 482 , 1288 486 
Q 1283 490 , 1283 498 
Q 1283 506 , 1288 510 
Q 1294 514 , 1304 514 
Q 1309 514 , 1312 514 
Q 1316 514 , 1317 513 
" fill="#F5C000" />
<path d="
M 1267 460 
L 1267 430 
L 1253 430 
L 1253 418 
L 1275 418 
L 1275 467 
Q 1270 472 , 1264 474 
Q 1259 476 , 1253 476 
Q 1240 476 , 1233 461 
Q 1225 446 , 1225 420 
Q 1225 394 , 1233 379 
Q 1240 364 , 1253 364 
Q 1259 364 , 1264 366 
Q 1269 368 , 1274 373 
L 1274 387 
Q 1267 381 , 1263 379 
Q 1259 377 , 1254 377 
Q 1244 377 , 1238 388 
Q 1233 398 , 1233 420 
Q 1233 442 , 1238 453 
Q 1244 464 , 1254 464 
Q 1259 464 , 1262 462 
Q 1266 461 , 1267 460 
" fill="lightgray" />
<path d="
M 1325 376 
L 1325 393 
Q 1318 382 , 1314 379 
Q 1309 376 , 1304 376 
Q 1294 376 , 1289 387 
Q 1283 398 , 1283 420 
Q 1283 442 , 1289 453 
Q 1294 464 , 1304 464 
Q 1309 464 , 1314 461 
Q 1318 458 , 1325 447 
L 1325 465 
Q 1320 471 , 1314 473 
Q 1310 476 , 1304 476 
Q 1290 476 , 1283 461 
Q 1275 446 , 1275 420 
Q 1275 394 , 1283 379 
Q 1290 364 , 1304 364 
Q 1310 364 , 1315 367 
Q 1320 369 , 1325 376 
" fill="#545FFF" />
<path d="
M 1380 553 
L 1362 554 
L 1396 554 
L 1380 553 
M 1373 553 
L 1387 553 
L 1430 555 
L 1414 555 
L 1402 554 
L 1358 554 
L 1345 555 
L 1330 555 
L 1373 553 
" fill="#339541" />
<path d="
M 1330 550 
L 1348 550 
L 1348 551 
Q 1348 552 , 1356 552 
Q 1363 552 , 1380 552 
Q 1397 552 , 1405 552 
Q 1412 552 , 1412 551 
L 1412 550 
L 1430 550 
L 1430 551 
Q 1430 552 , 1417 552 
Q 1405 552 , 1380 552 
Q 1356 552 , 1343 552 
Q 1330 552 , 1330 551 
L 1330 550 
" fill="#D21010" />
<path d="
M 1430 547 
L 1430 548 
Q 1415 547 , 1407 547 
Q 1399 547 , 1389 547 
Q 1368 547 , 1358 548 
Q 1346 548 , 1346 548 
Q 1346 549 , 1358 549 
Q 1368 550 , 1389 550 
Q 1399 550 , 1407 549 
Q 1415 549 , 1430 549 
L 1430 550 
Q 1419 550 , 1409 550 
Q 1399 550 , 1388 550 
Q 1361 550 , 1346 549 
Q 1330 549 , 1330 548 
Q 1330 548 , 1346 547 
Q 1361 547 , 1388 547 
Q 1399 547 , 1409 547 
Q 1420 547 , 1430 547 
" fill="#545FFF" />
<path d="
M 1414 546 
L 1414 545 
L 1385 545 
L 1385 545 
L 1430 545 
L 1430 547 
Q 1419 547 , 1408 547 
Q 1399 547 , 1387 547 
Q 1361 547 , 1345 546 
Q 1330 546 , 1330 545 
Q 1330 544 , 1345 544 
Q 1361 543 , 1387 543 
Q 1398 543 , 1407 543 
Q 1417 543 , 1427 543 
L 1427 544 
Q 1414 544 , 1406 544 
Q 1397 543 , 1388 543 
Q 1367 543 , 1356 544 
Q 1346 544 , 1346 545 
Q 1346 546 , 1356 546 
Q 1367 547 , 1388 547 
Q 1397 547 , 1404 546 
Q 1411 546 , 1414 546 
" fill="#F5C000" />
<path d="M 65 168 L 65 555 " stroke="black" stroke-width="1.5"/>
<path d="M 55 555 L 65 555 " stroke="black" stroke-width="4"/>
<text text-anchor="end" x="50" y="555" font-size="50" alignment-baseline="middle">0</text>
<path d="M 55 362 L 65 362 " stroke="black" stroke-width="4"/>
<text text-anchor="end" x="50" y="362" font-size="50" alignment-baseline="middle">1</text>
<path d="M 55 168 L 65 168 " stroke="black" stroke-width="4"/>
<text text-anchor="end" x="50" y="168" font-size="50" alignment-baseline="middle">2</text>
<text text-anchor="middle" x="750" y="50" font-size="50" alignment-baseline="baseline"></text>
G<path d="
M 160 582 
L 126 595 
L 160 608 
L 157 611 
L 123 598 
L 123 623 
L 117 623 
L 117 599 
L 83 611 
L 80 608 
L 114 595 
L 80 582 
L 83 579 
L 117 591 
L 117 567 
L 123 567 
L 123 591 
L 157 579 
L 160 582 
" fill="black" />
<path d="
" fill="black" />
<path d="
M 211 567 
L 238 567 
L 238 623 
L 211 623 
L 211 567 
" fill="black" />
<path d="
" fill="black" />
<path d="
M 370 567 
Q 341 574 , 328 581 
Q 315 588 , 315 595 
Q 315 602 , 328 609 
Q 341 616 , 370 623 
L 346 623 
Q 318 616 , 304 609 
Q 290 602 , 290 595 
Q 290 588 , 304 581 
Q 318 574 , 346 567 
L 370 567 
" fill="black" />
<path d="
" fill="black" />
<path d="
M 421 567 
L 448 567 
L 448 623 
L 421 623 
L 421 567 
" fill="black" />
<path d="
" fill="black" />
<path d="
M 580 567 
Q 551 574 , 538 581 
Q 525 588 , 525 595 
Q 525 602 , 538 609 
Q 551 616 , 580 623 
L 556 623 
Q 528 616 , 514 609 
Q 500 602 , 500 595 
Q 500 588 , 514 581 
Q 528 574 , 556 567 
L 580 567 
" fill="black" />
<path d="
" fill="black" />
<path d="
M 622 567 
L 642 567 
L 642 623 
L 622 623 
L 622 567 
" fill="black" />
<path d="
" fill="black" />
<path d="
M 674 621 
L 674 616 
Q 675 618 , 677 619 
Q 678 619 , 680 619 
Q 686 619 , 688 609 
Q 689 604 , 689 595 
Q 689 597 , 687 600 
Q 685 603 , 681 603 
Q 677 603 , 675 598 
Q 672 593 , 672 586 
Q 672 577 , 675 572 
Q 677 567 , 682 567 
Q 687 567 , 689 574 
Q 692 581 , 692 595 
Q 692 609 , 689 616 
Q 685 623 , 680 623 
Q 678 623 , 677 622 
Q 675 622 , 674 621 
M 676 595 
Q 678 599 , 681 599 
Q 685 599 , 687 595 
Q 689 591 , 689 584 
Q 689 578 , 687 574 
Q 685 571 , 681 571 
Q 678 571 , 676 574 
Q 675 578 , 675 584 
Q 675 591 , 676 595 
" fill="black" />
<path d="
M 790 582 
L 756 595 
L 790 608 
L 787 611 
L 753 598 
L 753 623 
L 747 623 
L 747 599 
L 713 611 
L 710 608 
L 744 595 
L 710 582 
L 713 579 
L 747 591 
L 747 567 
L 753 567 
L 753 591 
L 787 579 
L 790 582 
" fill="black" />
<path d="
" fill="black" />
<path d="
M 841 567 
L 868 567 
L 868 623 
L 841 623 
L 841 567 
" fill="black" />
<path d="
" fill="black" />
<path d="
" fill="black" />
<path d="
M 946 567 
L 973 567 
L 973 623 
L 946 623 
L 946 567 
" fill="black" />
<path d="
" fill="black" />
<path d="
M 1025 567 
L 1049 567 
Q 1077 574 , 1091 581 
Q 1105 588 , 1105 595 
Q 1105 602 , 1091 609 
Q 1077 616 , 1049 623 
L 1025 623 
Q 1054 616 , 1067 609 
Q 1080 602 , 1080 595 
Q 1080 588 , 1067 581 
Q 1054 574 , 1025 567 
" fill="black" />
<path d="
" fill="black" />
<path d="
M 1156 567 
L 1183 567 
L 1183 623 
L 1156 623 
L 1156 567 
" fill="black" />
<path d="
" fill="black" />
<path d="
M 1235 567 
L 1259 567 
Q 1287 574 , 1301 581 
Q 1315 588 , 1315 595 
Q 1315 602 , 1301 609 
Q 1287 616 , 1259 623 
L 1235 623 
Q 1264 616 , 1277 609 
Q 1290 602 , 1290 595 
Q 1290 588 , 1277 581 
Q 1264 574 , 1235 567 
" fill="black" />
<path d="
M 1420 582 
L 1386 595 
L 1420 608 
L 1417 611 
L 1383 598 
L 1383 623 
L 1377 623 
L 1377 599 
L 1343 611 
L 1340 608 
L 1374 595 
L 1340 582 
L 1343 579 
L 1377 591 
L 1377 567 
L 1383 567 
L 1383 591 
L 1417 579 
L 1420 582 
" fill="black" />
</svg>
