<svg xmlns="http://www.w3.org/2000/svg"
viewBox="0 0 1435 635">
<path d="
M 120 554 
L 102 554 
L 136 554 
L 120 554 
M 113 554 
L 127 554 
L 170 555 
L 154 555 
L 142 554 
L 98 554 
L 85 555 
L 70 555 
L 113 554 
" fill="#339541" />
<path d="
M 70 553 
L 88 553 
L 88 553 
Q 88 553 , 96 553 
Q 103 553 , 120 553 
Q 137 553 , 145 553 
Q 152 553 , 152 553 
L 152 553 
L 170 553 
L 170 553 
Q 170 553 , 157 553 
Q 145 554 , 120 554 
Q 96 554 , 83 553 
Q 70 553 , 70 553 
L 70 553 
" fill="#D21010" />
<path d="
M 170 552 
L 170 552 
Q 155 552 , 147 552 
Q 139 552 , 129 552 
Q 108 552 , 98 552 
Q 86 552 , 86 552 
Q 86 552 , 98 553 
Q 108 553 , 129 553 
Q 139 553 , 147 553 
Q 155 553 , 170 552 
L 170 553 
Q 159 553 , 149 553 
Q 139 553 , 128 553 
Q 101 553 , 86 553 
Q 70 552 , 70 552 
Q 70 552 , 86 552 
Q 101 552 , 128 552 
Q 139 552 , 149 552 
Q 160 552 , 170 552 
" fill="#545FFF" />
<path d="
M 154 552 
L 154 551 
L 125 551 
L 125 551 
L 170 551 
L 170 552 
Q 159 552 , 148 552 
Q 139 552 , 127 552 
Q 101 552 , 85 552 
Q 70 552 , 70 551 
Q 70 551 , 85 551 
Q 101 551 , 127 551 
Q 138 551 , 147 551 
Q 157 551 , 167 551 
L 167 551 
Q 154 551 , 146 551 
Q 137 551 , 128 551 
Q 107 551 , 96 551 
Q 86 551 , 86 551 
Q 86 551 , 96 552 
Q 107 552 , 128 552 
Q 137 552 , 144 552 
Q 151 552 , 154 552 
" fill="#F5C000" />
<path d="
M 217 554 
L 217 554 
L 203 554 
L 203 553 
L 225 553 
L 225 554 
Q 220 555 , 214 555 
Q 209 555 , 203 555 
Q 190 555 , 183 554 
Q 175 554 , 175 553 
Q 175 553 , 183 552 
Q 190 552 , 203 552 
Q 209 552 , 214 552 
Q 219 552 , 224 552 
L 224 553 
Q 217 552 , 213 552 
Q 209 552 , 204 552 
Q 194 552 , 188 553 
Q 183 553 , 183 553 
Q 183 554 , 188 554 
Q 194 554 , 204 554 
Q 209 554 , 212 554 
Q 216 554 , 217 554 
" fill="#F5C000" />
<path d="
M 225 552 
L 234 552 
L 234 554 
Q 234 554 , 238 554 
Q 241 554 , 250 554 
Q 259 554 , 262 554 
Q 266 554 , 266 554 
L 266 552 
L 275 552 
L 275 554 
Q 275 554 , 269 554 
Q 262 555 , 250 555 
Q 238 555 , 231 554 
Q 225 554 , 225 554 
L 225 552 
" fill="lightgray" />
<path d="
M 200 547 
L 191 549 
L 208 549 
L 200 547 
M 196 546 
L 204 546 
L 225 551 
L 217 551 
L 211 550 
L 189 550 
L 182 551 
L 175 551 
L 196 546 
" fill="#339541" />
<path d="
M 225 546 
L 234 546 
L 234 549 
Q 234 550 , 238 550 
Q 241 550 , 250 550 
Q 259 550 , 262 550 
Q 266 550 , 266 549 
L 266 546 
L 275 546 
L 275 549 
Q 275 550 , 269 551 
Q 262 551 , 250 551 
Q 238 551 , 231 551 
Q 225 550 , 225 549 
L 225 546 
" fill="lightgray" />
<path d="
M 175 540 
L 184 540 
L 184 543 
Q 184 544 , 188 544 
Q 191 545 , 200 545 
Q 209 545 , 212 544 
Q 216 544 , 216 543 
L 216 540 
L 225 540 
L 225 543 
Q 225 544 , 219 545 
Q 212 545 , 200 545 
Q 188 545 , 181 545 
Q 175 544 , 175 543 
L 175 540 
" fill="#D21010" />
<path d="
M 267 544 
L 267 543 
L 253 543 
L 253 542 
L 275 542 
L 275 545 
Q 270 545 , 264 545 
Q 259 545 , 253 545 
Q 240 545 , 233 544 
Q 225 544 , 225 543 
Q 225 541 , 233 541 
Q 240 540 , 253 540 
Q 259 540 , 264 540 
Q 269 540 , 274 540 
L 274 541 
Q 267 541 , 263 541 
Q 259 541 , 254 541 
Q 244 541 , 238 541 
Q 233 542 , 233 543 
Q 233 544 , 238 544 
Q 244 545 , 254 545 
Q 259 545 , 262 544 
Q 266 544 , 267 544 
" fill="lightgray" />
<path d="
M 175 533 
L 184 533 
L 184 537 
Q 184 538 , 188 538 
Q 191 539 , 200 539 
Q 209 539 , 212 538 
Q 216 538 , 216 537 
L 216 533 
L 225 533 
L 225 537 
Q 225 538 , 219 539 
Q 212 539 , 200 539 
Q 188 539 , 181 539 
Q 175 538 , 175 537 
L 175 533 
" fill="#D21010" />
<path d="
M 250 534 
L 241 537 
L 258 537 
L 250 534 
M 246 533 
L 254 533 
L 275 539 
L 267 539 
L 261 538 
L 239 538 
L 232 539 
L 225 539 
L 246 533 
" fill="lightgray" />
<path d="
M 225 475 
L 225 485 
Q 218 478 , 214 477 
Q 209 475 , 204 475 
Q 194 475 , 189 481 
Q 183 488 , 183 500 
Q 183 513 , 189 519 
Q 194 525 , 204 525 
Q 209 525 , 214 524 
Q 218 522 , 225 516 
L 225 526 
Q 220 529 , 214 531 
Q 210 532 , 204 532 
Q 190 532 , 183 524 
Q 175 515 , 175 500 
Q 175 485 , 183 477 
Q 190 468 , 204 468 
Q 210 468 , 215 470 
Q 220 471 , 225 475 
" fill="#545FFF" />
<path d="
M 267 523 
L 267 506 
L 253 506 
L 253 499 
L 275 499 
L 275 527 
Q 270 530 , 264 531 
Q 259 532 , 253 532 
Q 240 532 , 233 524 
Q 225 515 , 225 500 
Q 225 485 , 233 477 
Q 240 468 , 253 468 
Q 259 468 , 264 469 
Q 269 470 , 274 473 
L 274 481 
Q 267 478 , 263 477 
Q 259 476 , 254 476 
Q 244 476 , 238 482 
Q 233 488 , 233 500 
Q 233 513 , 238 519 
Q 244 525 , 254 525 
Q 259 525 , 262 525 
Q 266 524 , 267 523 
" fill="lightgray" />
<path d="
M 217 446 
L 217 406 
L 203 406 
L 203 389 
L 225 389 
L 225 456 
Q 220 462 , 214 465 
Q 209 467 , 203 467 
Q 190 467 , 183 447 
Q 175 427 , 175 392 
Q 175 357 , 183 337 
Q 190 317 , 203 317 
Q 209 317 , 214 320 
Q 219 322 , 224 329 
L 224 348 
Q 217 340 , 213 337 
Q 209 335 , 204 335 
Q 194 335 , 188 349 
Q 183 363 , 183 392 
Q 183 422 , 188 436 
Q 194 451 , 204 451 
Q 209 451 , 212 449 
Q 216 448 , 217 446 
" fill="#F5C000" />
<path d="
M 275 333 
L 275 356 
Q 268 341 , 264 338 
Q 259 334 , 254 334 
Q 244 334 , 239 348 
Q 233 363 , 233 392 
Q 233 421 , 239 437 
Q 244 451 , 254 451 
Q 259 451 , 264 447 
Q 268 443 , 275 428 
L 275 452 
Q 270 461 , 264 464 
Q 260 467 , 254 467 
Q 240 467 , 233 447 
Q 225 427 , 225 392 
Q 225 358 , 233 338 
Q 240 317 , 254 317 
Q 260 317 , 265 321 
Q 270 324 , 275 333 
" fill="lightgray" />
<path d="
M 280 549 
L 298 549 
L 298 552 
Q 298 553 , 306 554 
Q 313 554 , 330 554 
Q 347 554 , 355 554 
Q 362 553 , 362 552 
L 362 549 
L 380 549 
L 380 552 
Q 380 553 , 367 554 
Q 355 555 , 330 555 
Q 306 555 , 293 554 
Q 280 553 , 280 552 
L 280 549 
" fill="#D21010" />
<path d="
M 330 540 
L 312 544 
L 346 544 
L 330 540 
M 323 538 
L 337 538 
L 380 548 
L 364 548 
L 352 545 
L 308 545 
L 295 548 
L 280 548 
L 323 538 
" fill="#339541" />
<path d="
M 364 534 
L 364 527 
L 335 527 
L 335 525 
L 380 525 
L 380 536 
Q 369 537 , 358 537 
Q 349 538 , 337 538 
Q 311 538 , 295 534 
Q 280 531 , 280 525 
Q 280 520 , 295 516 
Q 311 513 , 337 513 
Q 348 513 , 357 513 
Q 367 514 , 377 515 
L 377 518 
Q 364 517 , 356 516 
Q 347 516 , 338 516 
Q 317 516 , 306 518 
Q 296 521 , 296 525 
Q 296 530 , 306 533 
Q 317 535 , 338 535 
Q 347 535 , 354 535 
Q 361 534 , 364 534 
" fill="#F5C000" />
<path d="
M 380 445 
L 380 457 
Q 365 449 , 357 447 
Q 349 445 , 339 445 
Q 318 445 , 308 453 
Q 296 460 , 296 475 
Q 296 490 , 308 497 
Q 318 505 , 339 505 
Q 349 505 , 357 503 
Q 365 501 , 380 493 
L 380 505 
Q 369 509 , 359 511 
Q 349 513 , 338 513 
Q 311 513 , 296 502 
Q 280 492 , 280 475 
Q 280 458 , 296 447 
Q 311 437 , 338 437 
Q 349 437 , 359 439 
Q 370 441 , 380 445 
" fill="#545FFF" />
<path d="
M 469 554 
L 469 554 
L 440 554 
L 440 554 
L 485 554 
L 485 555 
Q 474 555 , 463 555 
Q 454 555 , 442 555 
Q 416 555 , 400 554 
Q 385 554 , 385 554 
Q 385 553 , 400 553 
Q 416 553 , 442 553 
Q 453 553 , 462 553 
Q 472 553 , 482 553 
L 482 553 
Q 469 553 , 461 553 
Q 452 553 , 443 553 
Q 422 553 , 411 553 
Q 401 554 , 401 554 
Q 401 554 , 411 554 
Q 422 554 , 443 554 
Q 452 554 , 459 554 
Q 466 554 , 469 554 
" fill="#F5C000" />
<path d="
M 485 549 
L 485 550 
Q 470 550 , 462 550 
Q 454 549 , 444 549 
Q 423 549 , 413 550 
Q 401 550 , 401 551 
Q 401 552 , 413 552 
Q 423 552 , 444 552 
Q 454 552 , 462 552 
Q 470 552 , 485 552 
L 485 552 
Q 474 553 , 464 553 
Q 454 553 , 443 553 
Q 416 553 , 401 552 
Q 385 552 , 385 551 
Q 385 550 , 401 550 
Q 416 549 , 443 549 
Q 454 549 , 464 549 
Q 475 549 , 485 549 
" fill="#545FFF" />
<path d="
M 435 546 
L 417 547 
L 451 547 
L 435 546 
M 428 545 
L 442 545 
L 485 549 
L 469 549 
L 457 548 
L 413 548 
L 400 549 
L 385 549 
L 428 545 
" fill="#339541" />
<path d="
M 385 541 
L 403 541 
L 403 543 
Q 403 544 , 411 544 
Q 418 544 , 435 544 
Q 452 544 , 460 544 
Q 467 544 , 467 543 
L 467 541 
L 485 541 
L 485 543 
Q 485 544 , 472 544 
Q 460 545 , 435 545 
Q 411 545 , 398 544 
Q 385 544 , 385 543 
L 385 541 
" fill="#D21010" />
<path d="
M 490 551 
L 508 551 
L 508 553 
Q 508 553 , 516 554 
Q 523 554 , 540 554 
Q 557 554 , 565 554 
Q 572 553 , 572 553 
L 572 551 
L 590 551 
L 590 553 
Q 590 554 , 577 554 
Q 565 554 , 540 554 
Q 516 554 , 503 554 
Q 490 554 , 490 553 
L 490 551 
" fill="#D21010" />
<path d="
M 540 545 
L 522 548 
L 556 548 
L 540 545 
M 533 544 
L 547 544 
L 590 550 
L 574 550 
L 562 548 
L 518 548 
L 505 550 
L 490 550 
L 533 544 
" fill="#339541" />
<path d="
M 590 503 
L 590 510 
Q 575 505 , 567 504 
Q 559 503 , 549 503 
Q 528 503 , 518 508 
Q 506 512 , 506 521 
Q 506 530 , 518 534 
Q 528 539 , 549 539 
Q 559 539 , 567 538 
Q 575 536 , 590 532 
L 590 539 
Q 579 542 , 569 543 
Q 559 544 , 548 544 
Q 521 544 , 506 538 
Q 490 531 , 490 521 
Q 490 510 , 506 504 
Q 521 498 , 548 498 
Q 559 498 , 569 499 
Q 580 500 , 590 503 
" fill="#545FFF" />
<path d="
M 574 487 
L 574 468 
L 545 468 
L 545 460 
L 590 460 
L 590 492 
Q 579 495 , 568 496 
Q 559 498 , 547 498 
Q 521 498 , 505 488 
Q 490 479 , 490 462 
Q 490 445 , 505 436 
Q 521 426 , 547 426 
Q 558 426 , 567 427 
Q 577 429 , 587 432 
L 587 441 
Q 574 437 , 566 436 
Q 557 435 , 548 435 
Q 527 435 , 516 441 
Q 506 448 , 506 462 
Q 506 476 , 516 483 
Q 527 490 , 548 490 
Q 557 490 , 564 489 
Q 571 488 , 574 487 
" fill="#F5C000" />
<path d="
M 595 552 
L 613 552 
L 613 553 
Q 613 554 , 621 554 
Q 628 554 , 645 554 
Q 662 554 , 670 554 
Q 677 554 , 677 553 
L 677 552 
L 695 552 
L 695 554 
Q 695 554 , 682 554 
Q 670 555 , 645 555 
Q 621 555 , 608 554 
Q 595 554 , 595 554 
L 595 552 
" fill="#D21010" />
<path d="
M 645 548 
L 627 550 
L 661 550 
L 645 548 
M 638 547 
L 652 547 
L 695 551 
L 679 551 
L 667 550 
L 623 550 
L 610 551 
L 595 551 
L 638 547 
" fill="#339541" />
<path d="
M 695 542 
L 695 542 
Q 680 542 , 672 542 
Q 664 542 , 654 542 
Q 633 542 , 623 542 
Q 611 543 , 611 544 
Q 611 545 , 623 545 
Q 633 546 , 654 546 
Q 664 546 , 672 546 
Q 680 546 , 695 545 
L 695 546 
Q 684 546 , 674 546 
Q 664 547 , 653 547 
Q 626 547 , 611 546 
Q 595 545 , 595 544 
Q 595 543 , 611 542 
Q 626 541 , 653 541 
Q 664 541 , 674 541 
Q 685 541 , 695 542 
" fill="#545FFF" />
<path d="
M 679 540 
L 679 538 
L 650 538 
L 650 537 
L 695 537 
L 695 540 
Q 684 540 , 673 541 
Q 664 541 , 652 541 
Q 626 541 , 610 540 
Q 595 539 , 595 537 
Q 595 535 , 610 534 
Q 626 533 , 652 533 
Q 663 533 , 672 533 
Q 682 533 , 692 534 
L 692 535 
Q 679 534 , 671 534 
Q 662 534 , 653 534 
Q 632 534 , 621 535 
Q 611 535 , 611 537 
Q 611 538 , 621 539 
Q 632 540 , 653 540 
Q 662 540 , 669 540 
Q 676 540 , 679 540 
" fill="#F5C000" />
<path d="
M 750 554 
L 732 554 
L 766 554 
L 750 554 
M 743 554 
L 757 554 
L 800 555 
L 784 555 
L 772 554 
L 728 554 
L 715 555 
L 700 555 
L 743 554 
" fill="#339541" />
<path d="
M 700 553 
L 718 553 
L 718 553 
Q 718 553 , 726 553 
Q 733 553 , 750 553 
Q 767 553 , 775 553 
Q 782 553 , 782 553 
L 782 553 
L 800 553 
L 800 553 
Q 800 553 , 787 553 
Q 775 554 , 750 554 
Q 726 554 , 713 553 
Q 700 553 , 700 553 
L 700 553 
" fill="#D21010" />
<path d="
M 800 552 
L 800 552 
Q 785 552 , 777 552 
Q 769 552 , 759 552 
Q 738 552 , 728 552 
Q 716 552 , 716 552 
Q 716 552 , 728 553 
Q 738 553 , 759 553 
Q 769 553 , 777 553 
Q 785 553 , 800 552 
L 800 553 
Q 789 553 , 779 553 
Q 769 553 , 758 553 
Q 731 553 , 716 553 
Q 700 552 , 700 552 
Q 700 552 , 716 552 
Q 731 552 , 758 552 
Q 769 552 , 779 552 
Q 790 552 , 800 552 
" fill="#545FFF" />
<path d="
M 784 552 
L 784 551 
L 755 551 
L 755 551 
L 800 551 
L 800 552 
Q 789 552 , 778 552 
Q 769 552 , 757 552 
Q 731 552 , 715 552 
Q 700 552 , 700 551 
Q 700 551 , 715 551 
Q 731 551 , 757 551 
Q 768 551 , 777 551 
Q 787 551 , 797 551 
L 797 551 
Q 784 551 , 776 551 
Q 767 551 , 758 551 
Q 737 551 , 726 551 
Q 716 551 , 716 551 
Q 716 551 , 726 552 
Q 737 552 , 758 552 
Q 767 552 , 774 552 
Q 781 552 , 784 552 
" fill="#F5C000" />
<path d="
M 805 550 
L 823 550 
L 823 552 
Q 823 553 , 831 553 
Q 838 554 , 855 554 
Q 872 554 , 880 553 
Q 887 553 , 887 552 
L 887 550 
L 905 550 
L 905 552 
Q 905 553 , 892 554 
Q 880 554 , 855 554 
Q 831 554 , 818 554 
Q 805 553 , 805 552 
L 805 550 
" fill="#D21010" />
<path d="
M 855 546 
L 837 548 
L 871 548 
L 855 546 
M 848 545 
L 862 545 
L 905 550 
L 889 550 
L 877 548 
L 833 548 
L 820 550 
L 805 550 
L 848 545 
" fill="#339541" />
<path d="
M 905 506 
L 905 512 
Q 890 508 , 882 507 
Q 874 506 , 864 506 
Q 843 506 , 833 510 
Q 821 514 , 821 522 
Q 821 531 , 833 536 
Q 843 540 , 864 540 
Q 874 540 , 882 539 
Q 890 538 , 905 533 
L 905 540 
Q 894 543 , 884 544 
Q 874 545 , 863 545 
Q 836 545 , 821 539 
Q 805 533 , 805 523 
Q 805 513 , 821 507 
Q 836 501 , 863 501 
Q 874 501 , 884 502 
Q 895 503 , 905 506 
" fill="#545FFF" />
<path d="
M 889 487 
L 889 461 
L 860 461 
L 860 451 
L 905 451 
L 905 493 
Q 894 498 , 883 499 
Q 874 501 , 862 501 
Q 836 501 , 820 488 
Q 805 475 , 805 453 
Q 805 431 , 820 418 
Q 836 405 , 862 405 
Q 873 405 , 882 407 
Q 892 408 , 902 413 
L 902 425 
Q 889 420 , 881 418 
Q 872 416 , 863 416 
Q 842 416 , 831 425 
Q 821 434 , 821 453 
Q 821 472 , 831 481 
Q 842 490 , 863 490 
Q 872 490 , 879 489 
Q 886 488 , 889 487 
" fill="#F5C000" />
<path d="
M 952 554 
L 952 554 
L 938 554 
L 938 553 
L 960 553 
L 960 554 
Q 955 555 , 949 555 
Q 944 555 , 938 555 
Q 925 555 , 918 554 
Q 910 554 , 910 553 
Q 910 553 , 918 552 
Q 925 552 , 938 552 
Q 944 552 , 949 552 
Q 954 552 , 959 552 
L 959 553 
Q 952 552 , 948 552 
Q 944 552 , 939 552 
Q 929 552 , 923 553 
Q 918 553 , 918 553 
Q 918 554 , 923 554 
Q 929 554 , 939 554 
Q 944 554 , 947 554 
Q 951 554 , 952 554 
" fill="lightgray" />
<path d="
M 960 552 
L 969 552 
L 969 554 
Q 969 554 , 973 554 
Q 976 554 , 985 554 
Q 994 554 , 997 554 
Q 1001 554 , 1001 554 
L 1001 552 
L 1010 552 
L 1010 554 
Q 1010 554 , 1004 554 
Q 997 555 , 985 555 
Q 973 555 , 966 554 
Q 960 554 , 960 554 
L 960 552 
" fill="#D21010" />
<path d="
M 935 547 
L 926 549 
L 943 549 
L 935 547 
M 931 546 
L 939 546 
L 960 551 
L 952 551 
L 946 550 
L 924 550 
L 917 551 
L 910 551 
L 931 546 
" fill="lightgray" />
<path d="
M 960 546 
L 969 546 
L 969 549 
Q 969 550 , 973 550 
Q 976 550 , 985 550 
Q 994 550 , 997 550 
Q 1001 550 , 1001 549 
L 1001 546 
L 1010 546 
L 1010 549 
Q 1010 550 , 1004 551 
Q 997 551 , 985 551 
Q 973 551 , 966 551 
Q 960 550 , 960 549 
L 960 546 
" fill="#D21010" />
<path d="
M 910 540 
L 919 540 
L 919 543 
Q 919 544 , 923 544 
Q 926 545 , 935 545 
Q 944 545 , 947 544 
Q 951 544 , 951 543 
L 951 540 
L 960 540 
L 960 543 
Q 960 544 , 954 545 
Q 947 545 , 935 545 
Q 923 545 , 916 545 
Q 910 544 , 910 543 
L 910 540 
" fill="lightgray" />
<path d="
M 1002 544 
L 1002 543 
L 988 543 
L 988 542 
L 1010 542 
L 1010 545 
Q 1005 545 , 999 545 
Q 994 545 , 988 545 
Q 975 545 , 968 544 
Q 960 544 , 960 543 
Q 960 541 , 968 541 
Q 975 540 , 988 540 
Q 994 540 , 999 540 
Q 1004 540 , 1009 540 
L 1009 541 
Q 1002 541 , 998 541 
Q 994 541 , 989 541 
Q 979 541 , 973 541 
Q 968 542 , 968 543 
Q 968 544 , 973 544 
Q 979 545 , 989 545 
Q 994 545 , 997 544 
Q 1001 544 , 1002 544 
" fill="#F5C000" />
<path d="
M 910 533 
L 919 533 
L 919 537 
Q 919 538 , 923 538 
Q 926 539 , 935 539 
Q 944 539 , 947 538 
Q 951 538 , 951 537 
L 951 533 
L 960 533 
L 960 537 
Q 960 538 , 954 539 
Q 947 539 , 935 539 
Q 923 539 , 916 539 
Q 910 538 , 910 537 
L 910 533 
" fill="lightgray" />
<path d="
M 985 534 
L 976 537 
L 993 537 
L 985 534 
M 981 533 
L 989 533 
L 1010 539 
L 1002 539 
L 996 538 
L 974 538 
L 967 539 
L 960 539 
L 981 533 
" fill="#339541" />
<path d="
M 960 475 
L 960 485 
Q 953 478 , 949 477 
Q 944 475 , 939 475 
Q 929 475 , 924 481 
Q 918 488 , 918 500 
Q 918 513 , 924 519 
Q 929 525 , 939 525 
Q 944 525 , 949 524 
Q 953 522 , 960 516 
L 960 526 
Q 955 529 , 949 531 
Q 945 532 , 939 532 
Q 925 532 , 918 524 
Q 910 515 , 910 500 
Q 910 485 , 918 477 
Q 925 468 , 939 468 
Q 945 468 , 950 470 
Q 955 471 , 960 475 
" fill="lightgray" />
<path d="
M 1002 523 
L 1002 506 
L 988 506 
L 988 499 
L 1010 499 
L 1010 527 
Q 1005 530 , 999 531 
Q 994 532 , 988 532 
Q 975 532 , 968 524 
Q 960 515 , 960 500 
Q 960 485 , 968 477 
Q 975 468 , 988 468 
Q 994 468 , 999 469 
Q 1004 470 , 1009 473 
L 1009 481 
Q 1002 478 , 998 477 
Q 994 476 , 989 476 
Q 979 476 , 973 482 
Q 968 488 , 968 500 
Q 968 513 , 973 519 
Q 979 525 , 989 525 
Q 994 525 , 997 525 
Q 1001 524 , 1002 523 
" fill="#F5C000" />
<path d="
M 952 446 
L 952 406 
L 938 406 
L 938 389 
L 960 389 
L 960 456 
Q 955 462 , 949 465 
Q 944 467 , 938 467 
Q 925 467 , 918 447 
Q 910 427 , 910 392 
Q 910 357 , 918 337 
Q 925 317 , 938 317 
Q 944 317 , 949 320 
Q 954 322 , 959 329 
L 959 348 
Q 952 340 , 948 337 
Q 944 335 , 939 335 
Q 929 335 , 923 349 
Q 918 363 , 918 392 
Q 918 422 , 923 436 
Q 929 451 , 939 451 
Q 944 451 , 947 449 
Q 951 448 , 952 446 
" fill="lightgray" />
<path d="
M 1010 333 
L 1010 356 
Q 1003 341 , 999 338 
Q 994 334 , 989 334 
Q 979 334 , 974 348 
Q 968 363 , 968 392 
Q 968 421 , 974 437 
Q 979 451 , 989 451 
Q 994 451 , 999 447 
Q 1003 443 , 1010 428 
L 1010 452 
Q 1005 461 , 999 464 
Q 995 467 , 989 467 
Q 975 467 , 968 447 
Q 960 427 , 960 392 
Q 960 358 , 968 338 
Q 975 317 , 989 317 
Q 995 317 , 1000 321 
Q 1005 324 , 1010 333 
" fill="#545FFF" />
<path d="
M 1115 550 
L 1115 550 
Q 1100 550 , 1092 550 
Q 1084 550 , 1074 550 
Q 1053 550 , 1043 550 
Q 1031 551 , 1031 552 
Q 1031 553 , 1043 553 
Q 1053 554 , 1074 554 
Q 1084 554 , 1092 554 
Q 1100 554 , 1115 553 
L 1115 554 
Q 1104 554 , 1094 554 
Q 1084 554 , 1073 554 
Q 1046 554 , 1031 554 
Q 1015 553 , 1015 552 
Q 1015 550 , 1031 550 
Q 1046 549 , 1073 549 
Q 1084 549 , 1094 549 
Q 1105 549 , 1115 550 
" fill="#545FFF" />
<path d="
M 1065 544 
L 1047 546 
L 1081 546 
L 1065 544 
M 1058 543 
L 1072 543 
L 1115 549 
L 1099 549 
L 1087 547 
L 1043 547 
L 1030 549 
L 1015 549 
L 1058 543 
" fill="#339541" />
<path d="
M 1099 542 
L 1099 539 
L 1070 539 
L 1070 538 
L 1115 538 
L 1115 542 
Q 1104 543 , 1093 543 
Q 1084 543 , 1072 543 
Q 1046 543 , 1030 542 
Q 1015 541 , 1015 538 
Q 1015 536 , 1030 535 
Q 1046 534 , 1072 534 
Q 1083 534 , 1092 534 
Q 1102 534 , 1112 535 
L 1112 536 
Q 1099 535 , 1091 535 
Q 1082 535 , 1073 535 
Q 1052 535 , 1041 536 
Q 1031 537 , 1031 538 
Q 1031 540 , 1041 541 
Q 1052 542 , 1073 542 
Q 1082 542 , 1089 542 
Q 1096 542 , 1099 542 
" fill="#F5C000" />
<path d="
M 1015 515 
L 1033 515 
L 1033 526 
Q 1033 529 , 1041 530 
Q 1048 531 , 1065 531 
Q 1082 531 , 1090 530 
Q 1097 529 , 1097 526 
L 1097 515 
L 1115 515 
L 1115 526 
Q 1115 530 , 1102 531 
Q 1090 533 , 1065 533 
Q 1041 533 , 1028 531 
Q 1015 530 , 1015 526 
L 1015 515 
" fill="#D21010" />
<path d="
M 1120 551 
L 1138 551 
L 1138 553 
Q 1138 554 , 1146 554 
Q 1153 554 , 1170 554 
Q 1187 554 , 1195 554 
Q 1202 554 , 1202 553 
L 1202 551 
L 1220 551 
L 1220 553 
Q 1220 554 , 1207 554 
Q 1195 555 , 1170 555 
Q 1146 555 , 1133 554 
Q 1120 554 , 1120 553 
L 1120 551 
" fill="#D21010" />
<path d="
M 1170 546 
L 1152 548 
L 1186 548 
L 1170 546 
M 1163 545 
L 1177 545 
L 1220 551 
L 1204 551 
L 1192 549 
L 1148 549 
L 1135 551 
L 1120 551 
L 1163 545 
" fill="#339541" />
<path d="
M 1220 516 
L 1220 521 
Q 1205 518 , 1197 517 
Q 1189 516 , 1179 516 
Q 1158 516 , 1148 520 
Q 1136 523 , 1136 529 
Q 1136 535 , 1148 538 
Q 1158 541 , 1179 541 
Q 1189 541 , 1197 540 
Q 1205 539 , 1220 536 
L 1220 541 
Q 1209 543 , 1199 544 
Q 1189 545 , 1178 545 
Q 1151 545 , 1136 540 
Q 1120 536 , 1120 529 
Q 1120 522 , 1136 517 
Q 1151 513 , 1178 513 
Q 1189 513 , 1199 514 
Q 1210 515 , 1220 516 
" fill="#545FFF" />
<path d="
M 1204 487 
L 1204 441 
L 1175 441 
L 1175 422 
L 1220 422 
L 1220 499 
Q 1209 506 , 1198 509 
Q 1189 512 , 1177 512 
Q 1151 512 , 1135 489 
Q 1120 466 , 1120 426 
Q 1120 385 , 1135 362 
Q 1151 339 , 1177 339 
Q 1188 339 , 1197 342 
Q 1207 345 , 1217 353 
L 1217 375 
Q 1204 365 , 1196 362 
Q 1187 360 , 1178 360 
Q 1157 360 , 1146 376 
Q 1136 392 , 1136 426 
Q 1136 460 , 1146 476 
Q 1157 493 , 1178 493 
Q 1187 493 , 1194 491 
Q 1201 489 , 1204 487 
" fill="#F5C000" />
<path d="
M 1225 551 
L 1243 551 
L 1243 553 
Q 1243 554 , 1251 554 
Q 1258 554 , 1275 554 
Q 1292 554 , 1300 554 
Q 1307 554 , 1307 553 
L 1307 551 
L 1325 551 
L 1325 553 
Q 1325 554 , 1312 554 
Q 1300 554 , 1275 554 
Q 1251 554 , 1238 554 
Q 1225 554 , 1225 553 
L 1225 551 
" fill="#D21010" />
<path d="
M 1309 550 
L 1309 547 
L 1280 547 
L 1280 546 
L 1325 546 
L 1325 550 
Q 1314 551 , 1303 551 
Q 1294 551 , 1282 551 
Q 1256 551 , 1240 550 
Q 1225 549 , 1225 546 
Q 1225 544 , 1240 543 
Q 1256 542 , 1282 542 
Q 1293 542 , 1302 542 
Q 1312 542 , 1322 543 
L 1322 544 
Q 1309 543 , 1301 543 
Q 1292 543 , 1283 543 
Q 1262 543 , 1251 544 
Q 1241 545 , 1241 546 
Q 1241 548 , 1251 549 
Q 1262 550 , 1283 550 
Q 1292 550 , 1299 550 
Q 1306 550 , 1309 550 
" fill="#F5C000" />
<path d="
M 1275 528 
L 1257 535 
L 1291 535 
L 1275 528 
M 1268 525 
L 1282 525 
L 1325 542 
L 1309 542 
L 1297 537 
L 1253 537 
L 1240 542 
L 1225 542 
L 1268 525 
" fill="#339541" />
<path d="
M 1325 503 
L 1325 506 
Q 1310 504 , 1302 503 
Q 1294 503 , 1284 503 
Q 1263 503 , 1253 505 
Q 1241 508 , 1241 512 
Q 1241 517 , 1253 519 
Q 1263 522 , 1284 522 
Q 1294 522 , 1302 521 
Q 1310 521 , 1325 518 
L 1325 522 
Q 1314 523 , 1304 524 
Q 1294 524 , 1283 524 
Q 1256 524 , 1241 521 
Q 1225 518 , 1225 512 
Q 1225 507 , 1241 503 
Q 1256 500 , 1283 500 
Q 1294 500 , 1304 501 
Q 1315 501 , 1325 503 
" fill="#545FFF" />
<path d="
M 1380 554 
L 1362 554 
L 1396 554 
L 1380 554 
M 1373 554 
L 1387 554 
L 1430 555 
L 1414 555 
L 1402 554 
L 1358 554 
L 1345 555 
L 1330 555 
L 1373 554 
" fill="#339541" />
<path d="
M 1330 553 
L 1348 553 
L 1348 553 
Q 1348 553 , 1356 553 
Q 1363 553 , 1380 553 
Q 1397 553 , 1405 553 
Q 1412 553 , 1412 553 
L 1412 553 
L 1430 553 
L 1430 553 
Q 1430 553 , 1417 553 
Q 1405 554 , 1380 554 
Q 1356 554 , 1343 553 
Q 1330 553 , 1330 553 
L 1330 553 
" fill="#D21010" />
<path d="
M 1430 552 
L 1430 552 
Q 1415 552 , 1407 552 
Q 1399 552 , 1389 552 
Q 1368 552 , 1358 552 
Q 1346 552 , 1346 552 
Q 1346 552 , 1358 553 
Q 1368 553 , 1389 553 
Q 1399 553 , 1407 553 
Q 1415 553 , 1430 552 
L 1430 553 
Q 1419 553 , 1409 553 
Q 1399 553 , 1388 553 
Q 1361 553 , 1346 553 
Q 1330 552 , 1330 552 
Q 1330 552 , 1346 552 
Q 1361 552 , 1388 552 
Q 1399 552 , 1409 552 
Q 1420 552 , 1430 552 
" fill="#545FFF" />
<path d="
M 1414 552 
L 1414 551 
L 1385 551 
L 1385 551 
L 1430 551 
L 1430 552 
Q 1419 552 , 1408 552 
Q 1399 552 , 1387 552 
Q 1361 552 , 1345 552 
Q 1330 552 , 1330 551 
Q 1330 551 , 1345 551 
Q 1361 551 , 1387 551 
Q 1398 551 , 1407 551 
Q 1417 551 , 1427 551 
L 1427 551 
Q 1414 551 , 1406 551 
Q 1397 551 , 1388 551 
Q 1367 551 , 1356 551 
Q 1346 551 , 1346 551 
Q 1346 551 , 1356 552 
Q 1367 552 , 1388 552 
Q 1397 552 , 1404 552 
Q 1411 552 , 1414 552 
" fill="#F5C000" />
<path d="M 65 168 L 65 555 " stroke="black" stroke-width="1.5"/>
<path d="M 55 555 L 65 555 " stroke="black" stroke-width="4"/>
<text text-anchor="end" x="50" y="555" font-size="50" alignment-baseline="middle">0</text>
<path d="M 55 362 L 65 362 " stroke="black" stroke-width="4"/>
<text text-anchor="end" x="50" y="362" font-size="50" alignment-baseline="middle">1</text>
<path d="M 55 168 L 65 168 " stroke="black" stroke-width="4"/>
<text text-anchor="end" x="50" y="168" font-size="50" alignment-baseline="middle">2</text>
<text text-anchor="middle" x="750" y="50" font-size="50" alignment-baseline="baseline"></text>
G<path d="
M 160 582 
L 126 595 
L 160 608 
L 157 611 
L 123 598 
L 123 623 
L 117 623 
L 117 599 
L 83 611 
L 80 608 
L 114 595 
L 80 582 
L 83 579 
L 117 591 
L 117 567 
L 123 567 
L 123 591 
L 157 579 
L 160 582 
" fill="black" />
<path d="
M 265 567 
Q 236 574 , 223 581 
Q 210 588 , 210 595 
Q 210 602 , 223 609 
Q 236 616 , 265 623 
L 241 623 
Q 213 616 , 199 609 
Q 185 602 , 185 595 
Q 185 588 , 199 581 
Q 213 574 , 241 567 
L 265 567 
" fill="black" />
<path d="
" fill="black" />
<path d="
M 316 567 
L 343 567 
L 343 623 
L 316 623 
L 316 567 
" fill="black" />
<path d="
" fill="black" />
<path d="
" fill="black" />
<path d="
M 421 567 
L 448 567 
L 448 623 
L 421 623 
L 421 567 
" fill="black" />
<path d="
" fill="black" />
<path d="
" fill="black" />
<path d="
M 526 567 
L 553 567 
L 553 623 
L 526 623 
L 526 567 
" fill="black" />
<path d="
" fill="black" />
<path d="
" fill="black" />
<path d="
M 622 567 
L 642 567 
L 642 623 
L 622 623 
L 622 567 
" fill="black" />
<path d="
" fill="black" />
<path d="
M 687 595 
Q 686 591 , 682 591 
Q 679 591 , 677 595 
Q 675 599 , 675 605 
Q 675 612 , 677 615 
Q 679 619 , 682 619 
Q 686 619 , 687 615 
Q 689 612 , 689 605 
Q 689 599 , 687 595 
M 690 569 
L 690 574 
Q 689 572 , 687 571 
Q 686 571 , 684 571 
Q 678 571 , 676 581 
Q 675 586 , 675 595 
Q 675 593 , 677 590 
Q 679 587 , 682 587 
Q 687 587 , 689 592 
Q 692 597 , 692 604 
Q 692 613 , 689 618 
Q 687 623 , 682 623 
Q 677 623 , 675 616 
Q 672 609 , 672 595 
Q 672 581 , 675 574 
Q 679 567 , 684 567 
Q 686 567 , 687 568 
Q 689 568 , 690 569 
" fill="black" />
<path d="
M 790 582 
L 756 595 
L 790 608 
L 787 611 
L 753 598 
L 753 623 
L 747 623 
L 747 599 
L 713 611 
L 710 608 
L 744 595 
L 710 582 
L 713 579 
L 747 591 
L 747 567 
L 753 567 
L 753 591 
L 787 579 
L 790 582 
" fill="black" />
<path d="
" fill="black" />
<path d="
M 841 567 
L 868 567 
L 868 623 
L 841 623 
L 841 567 
" fill="black" />
<path d="
" fill="black" />
<path d="
M 920 567 
L 944 567 
Q 972 574 , 986 581 
Q 1000 588 , 1000 595 
Q 1000 602 , 986 609 
Q 972 616 , 944 623 
L 920 623 
Q 949 616 , 962 609 
Q 975 602 , 975 595 
Q 975 588 , 962 581 
Q 949 574 , 920 567 
" fill="black" />
<path d="
" fill="black" />
<path d="
M 1051 567 
L 1078 567 
L 1078 623 
L 1051 623 
L 1051 567 
" fill="black" />
<path d="
" fill="black" />
<path d="
" fill="black" />
<path d="
M 1156 567 
L 1183 567 
L 1183 623 
L 1156 623 
L 1156 567 
" fill="black" />
<path d="
" fill="black" />
<path d="
" fill="black" />
<path d="
M 1261 567 
L 1288 567 
L 1288 623 
L 1261 623 
L 1261 567 
" fill="black" />
<path d="
" fill="black" />
<path d="
M 1420 582 
L 1386 595 
L 1420 608 
L 1417 611 
L 1383 598 
L 1383 623 
L 1377 623 
L 1377 599 
L 1343 611 
L 1340 608 
L 1374 595 
L 1340 582 
L 1343 579 
L 1377 591 
L 1377 567 
L 1383 567 
L 1383 591 
L 1417 579 
L 1420 582 
" fill="black" />
</svg>
