<svg xmlns="http://www.w3.org/2000/svg"
viewBox="0 0 910 635">
<path d="
M 70 554 
L 88 554 
L 88 554 
Q 88 554 , 96 554 
Q 103 554 , 120 554 
Q 137 554 , 145 554 
Q 152 554 , 152 554 
L 152 554 
L 170 554 
L 170 554 
Q 170 554 , 157 554 
Q 145 554 , 120 554 
Q 96 554 , 83 554 
Q 70 554 , 70 554 
L 70 554 
" fill="#D21010" />
<path d="
M 170 553 
L 170 553 
Q 155 553 , 147 553 
Q 139 553 , 129 553 
Q 108 553 , 98 553 
Q 86 553 , 86 553 
Q 86 553 , 98 553 
Q 108 553 , 129 553 
Q 139 553 , 147 553 
Q 155 553 , 170 553 
L 170 553 
Q 159 553 , 149 553 
Q 139 553 , 128 553 
Q 101 553 , 86 553 
Q 70 553 , 70 553 
Q 70 553 , 86 553 
Q 101 553 , 128 553 
Q 139 553 , 149 553 
Q 160 553 , 170 553 
" fill="#545FFF" />
<path d="
M 120 552 
L 102 552 
L 136 552 
L 120 552 
M 113 552 
L 127 552 
L 170 552 
L 154 552 
L 142 552 
L 98 552 
L 85 552 
L 70 552 
L 113 552 
" fill="#339541" />
<path d="
M 154 551 
L 154 551 
L 125 551 
L 125 551 
L 170 551 
L 170 551 
Q 159 551 , 148 551 
Q 139 551 , 127 551 
Q 101 551 , 85 551 
Q 70 551 , 70 551 
Q 70 551 , 85 551 
Q 101 551 , 127 551 
Q 138 551 , 147 551 
Q 157 551 , 167 551 
L 167 551 
Q 154 551 , 146 551 
Q 137 551 , 128 551 
Q 107 551 , 96 551 
Q 86 551 , 86 551 
Q 86 551 , 96 551 
Q 107 551 , 128 551 
Q 137 551 , 144 551 
Q 151 551 , 154 551 
" fill="#F5C000" />
<path d="
M 275 548 
L 275 549 
Q 260 548 , 252 548 
Q 244 548 , 234 548 
Q 213 548 , 203 548 
Q 191 549 , 191 550 
Q 191 552 , 203 553 
Q 213 553 , 234 553 
Q 244 553 , 252 553 
Q 260 553 , 275 552 
L 275 553 
Q 264 554 , 254 554 
Q 244 554 , 233 554 
Q 206 554 , 191 553 
Q 175 552 , 175 551 
Q 175 549 , 191 548 
Q 206 547 , 233 547 
Q 244 547 , 254 547 
Q 265 547 , 275 548 
" fill="#545FFF" />
<path d="
M 259 545 
L 259 543 
L 230 543 
L 230 543 
L 275 543 
L 275 546 
Q 264 546 , 253 546 
Q 244 546 , 232 546 
Q 206 546 , 190 545 
Q 175 544 , 175 543 
Q 175 541 , 190 540 
Q 206 539 , 232 539 
Q 243 539 , 252 539 
Q 262 539 , 272 540 
L 272 541 
Q 259 540 , 251 540 
Q 242 540 , 233 540 
Q 212 540 , 201 541 
Q 191 541 , 191 543 
Q 191 544 , 201 545 
Q 212 546 , 233 546 
Q 242 546 , 249 546 
Q 256 545 , 259 545 
" fill="#F5C000" />
<path d="
M 225 500 
L 207 519 
L 241 519 
L 225 500 
M 218 492 
L 232 492 
L 275 538 
L 259 538 
L 247 525 
L 203 525 
L 190 538 
L 175 538 
L 218 492 
" fill="#339541" />
<path d="
M 175 432 
L 193 432 
L 193 467 
Q 193 477 , 201 481 
Q 208 485 , 225 485 
Q 242 485 , 250 481 
Q 257 477 , 257 467 
L 257 432 
L 275 432 
L 275 468 
Q 275 479 , 262 485 
Q 250 491 , 225 491 
Q 201 491 , 188 485 
Q 175 479 , 175 468 
L 175 432 
" fill="#D21010" />
<path d="
M 330 551 
L 312 553 
L 346 553 
L 330 551 
M 323 550 
L 337 550 
L 380 554 
L 364 554 
L 352 553 
L 308 553 
L 295 554 
L 280 554 
L 323 550 
" fill="#339541" />
<path d="
M 280 544 
L 298 544 
L 298 547 
Q 298 548 , 306 548 
Q 313 549 , 330 549 
Q 347 549 , 355 548 
Q 362 548 , 362 547 
L 362 544 
L 380 544 
L 380 547 
Q 380 548 , 367 549 
Q 355 549 , 330 549 
Q 306 549 , 293 549 
Q 280 548 , 280 547 
L 280 544 
" fill="#D21010" />
<path d="
M 380 531 
L 380 533 
Q 365 532 , 357 532 
Q 349 531 , 339 531 
Q 318 531 , 308 533 
Q 296 534 , 296 536 
Q 296 539 , 308 540 
Q 318 542 , 339 542 
Q 349 542 , 357 541 
Q 365 541 , 380 540 
L 380 542 
Q 369 542 , 359 543 
Q 349 543 , 338 543 
Q 311 543 , 296 541 
Q 280 540 , 280 537 
Q 280 534 , 296 532 
Q 311 530 , 338 530 
Q 349 530 , 359 530 
Q 370 531 , 380 531 
" fill="#545FFF" />
<path d="
M 364 476 
L 364 374 
L 335 374 
L 335 333 
L 380 333 
L 380 501 
Q 369 517 , 358 523 
Q 349 530 , 337 530 
Q 311 530 , 295 479 
Q 280 429 , 280 341 
Q 280 253 , 295 203 
Q 311 152 , 337 152 
Q 348 152 , 357 159 
Q 367 166 , 377 183 
L 377 231 
Q 364 209 , 356 203 
Q 347 197 , 338 197 
Q 317 197 , 306 232 
Q 296 268 , 296 341 
Q 296 416 , 306 452 
Q 317 488 , 338 488 
Q 347 488 , 354 484 
Q 361 480 , 364 476 
" fill="#F5C000" />
<path d="
M 385 552 
L 403 552 
L 403 554 
Q 403 554 , 411 554 
Q 418 554 , 435 554 
Q 452 554 , 460 554 
Q 467 554 , 467 554 
L 467 552 
L 485 552 
L 485 554 
Q 485 554 , 472 554 
Q 460 555 , 435 555 
Q 411 555 , 398 554 
Q 385 554 , 385 554 
L 385 552 
" fill="#D21010" />
<path d="
M 485 536 
L 485 538 
Q 470 537 , 462 536 
Q 454 536 , 444 536 
Q 423 536 , 413 538 
Q 401 539 , 401 542 
Q 401 546 , 413 548 
Q 423 549 , 444 549 
Q 454 549 , 462 549 
Q 470 548 , 485 547 
L 485 549 
Q 474 550 , 464 551 
Q 454 551 , 443 551 
Q 416 551 , 401 549 
Q 385 546 , 385 543 
Q 385 539 , 401 536 
Q 416 534 , 443 534 
Q 454 534 , 464 534 
Q 475 535 , 485 536 
" fill="#545FFF" />
<path d="
M 469 530 
L 469 524 
L 440 524 
L 440 522 
L 485 522 
L 485 531 
Q 474 532 , 463 533 
Q 454 533 , 442 533 
Q 416 533 , 400 530 
Q 385 527 , 385 522 
Q 385 517 , 400 514 
Q 416 511 , 442 511 
Q 453 511 , 462 511 
Q 472 512 , 482 513 
L 482 516 
Q 469 514 , 461 514 
Q 452 514 , 443 514 
Q 422 514 , 411 516 
Q 401 518 , 401 522 
Q 401 526 , 411 529 
Q 422 531 , 443 531 
Q 452 531 , 459 530 
Q 466 530 , 469 530 
" fill="#F5C000" />
<path d="
M 435 483 
L 417 497 
L 451 497 
L 435 483 
M 428 477 
L 442 477 
L 485 511 
L 469 511 
L 457 501 
L 413 501 
L 400 511 
L 385 511 
L 428 477 
" fill="#339541" />
<path d="
M 590 550 
L 590 550 
Q 575 550 , 567 550 
Q 559 550 , 549 550 
Q 528 550 , 518 550 
Q 506 551 , 506 552 
Q 506 553 , 518 553 
Q 528 554 , 549 554 
Q 559 554 , 567 554 
Q 575 553 , 590 553 
L 590 554 
Q 579 554 , 569 554 
Q 559 554 , 548 554 
Q 521 554 , 506 554 
Q 490 553 , 490 552 
Q 490 550 , 506 550 
Q 521 549 , 548 549 
Q 559 549 , 569 549 
Q 580 549 , 590 550 
" fill="#545FFF" />
<path d="
M 574 547 
L 574 542 
L 545 542 
L 545 541 
L 590 541 
L 590 548 
Q 579 548 , 568 548 
Q 559 549 , 547 549 
Q 521 549 , 505 547 
Q 490 545 , 490 541 
Q 490 537 , 505 535 
Q 521 533 , 547 533 
Q 558 533 , 567 533 
Q 577 534 , 587 534 
L 587 536 
Q 574 535 , 566 535 
Q 557 535 , 548 535 
Q 527 535 , 516 536 
Q 506 538 , 506 541 
Q 506 544 , 516 546 
Q 527 547 , 548 547 
Q 557 547 , 564 547 
Q 571 547 , 574 547 
" fill="#F5C000" />
<path d="
M 490 499 
L 508 499 
L 508 519 
Q 508 525 , 516 527 
Q 523 529 , 540 529 
Q 557 529 , 565 527 
Q 572 525 , 572 519 
L 572 499 
L 590 499 
L 590 520 
Q 590 526 , 577 530 
Q 565 533 , 540 533 
Q 516 533 , 503 530 
Q 490 526 , 490 520 
L 490 499 
" fill="#D21010" />
<path d="
M 540 381 
L 522 440 
L 556 440 
L 540 381 
M 533 355 
L 547 355 
L 590 498 
L 574 498 
L 562 456 
L 518 456 
L 505 498 
L 490 498 
L 533 355 
" fill="#339541" />
<path d="
M 595 550 
L 613 550 
L 613 553 
Q 613 554 , 621 554 
Q 628 554 , 645 554 
Q 662 554 , 670 554 
Q 677 554 , 677 553 
L 677 550 
L 695 550 
L 695 553 
Q 695 554 , 682 554 
Q 670 555 , 645 555 
Q 621 555 , 608 554 
Q 595 554 , 595 553 
L 595 550 
" fill="#D21010" />
<path d="
M 645 544 
L 627 547 
L 661 547 
L 645 544 
M 638 543 
L 652 543 
L 695 549 
L 679 549 
L 667 547 
L 623 547 
L 610 549 
L 595 549 
L 638 543 
" fill="#339541" />
<path d="
M 695 507 
L 695 513 
Q 680 509 , 672 508 
Q 664 507 , 654 507 
Q 633 507 , 623 511 
Q 611 515 , 611 522 
Q 611 530 , 623 534 
Q 633 538 , 654 538 
Q 664 538 , 672 537 
Q 680 536 , 695 532 
L 695 538 
Q 684 540 , 674 541 
Q 664 542 , 653 542 
Q 626 542 , 611 537 
Q 595 532 , 595 523 
Q 595 514 , 611 508 
Q 626 503 , 653 503 
Q 664 503 , 674 504 
Q 685 505 , 695 507 
" fill="#545FFF" />
<path d="
M 679 468 
L 679 402 
L 650 402 
L 650 375 
L 695 375 
L 695 484 
Q 684 494 , 673 498 
Q 664 502 , 652 503 
Q 626 503 , 610 470 
Q 595 437 , 595 380 
Q 595 323 , 610 291 
Q 626 258 , 652 258 
Q 663 258 , 672 262 
Q 682 267 , 692 278 
L 692 309 
Q 679 295 , 671 291 
Q 662 287 , 653 287 
Q 632 287 , 621 310 
Q 611 333 , 611 380 
Q 611 429 , 621 452 
Q 632 475 , 653 475 
Q 662 475 , 669 473 
Q 676 471 , 679 468 
" fill="#F5C000" />
<path d="
M 700 548 
L 718 548 
L 718 552 
Q 718 553 , 726 554 
Q 733 554 , 750 554 
Q 767 554 , 775 554 
Q 782 553 , 782 552 
L 782 548 
L 800 548 
L 800 552 
Q 800 553 , 787 554 
Q 775 555 , 750 555 
Q 726 555 , 713 554 
Q 700 553 , 700 552 
L 700 548 
" fill="#D21010" />
<path d="
M 784 547 
L 784 545 
L 755 545 
L 755 544 
L 800 544 
L 800 547 
Q 789 548 , 778 548 
Q 769 548 , 757 548 
Q 731 548 , 715 547 
Q 700 546 , 700 544 
Q 700 542 , 715 541 
Q 731 540 , 757 540 
Q 768 540 , 777 540 
Q 787 540 , 797 541 
L 797 542 
Q 784 541 , 776 541 
Q 767 541 , 758 541 
Q 737 541 , 726 542 
Q 716 542 , 716 544 
Q 716 545 , 726 546 
Q 737 547 , 758 547 
Q 767 547 , 774 547 
Q 781 547 , 784 547 
" fill="#F5C000" />
<path d="
M 800 503 
L 800 509 
Q 785 506 , 777 505 
Q 769 503 , 759 503 
Q 738 503 , 728 507 
Q 716 511 , 716 519 
Q 716 527 , 728 531 
Q 738 535 , 759 535 
Q 769 535 , 777 534 
Q 785 533 , 800 529 
L 800 535 
Q 789 537 , 779 538 
Q 769 539 , 758 539 
Q 731 539 , 716 534 
Q 700 528 , 700 519 
Q 700 510 , 716 505 
Q 731 499 , 758 499 
Q 769 499 , 779 500 
Q 790 501 , 800 503 
" fill="#545FFF" />
<path d="
M 750 465 
L 732 482 
L 766 482 
L 750 465 
M 743 457 
L 757 457 
L 800 499 
L 784 499 
L 772 486 
L 728 486 
L 715 499 
L 700 499 
L 743 457 
" fill="#339541" />
<path d="
M 805 554 
L 823 554 
L 823 554 
Q 823 554 , 831 554 
Q 838 554 , 855 554 
Q 872 554 , 880 554 
Q 887 554 , 887 554 
L 887 554 
L 905 554 
L 905 554 
Q 905 554 , 892 554 
Q 880 554 , 855 554 
Q 831 554 , 818 554 
Q 805 554 , 805 554 
L 805 554 
" fill="#D21010" />
<path d="
M 905 553 
L 905 553 
Q 890 553 , 882 553 
Q 874 553 , 864 553 
Q 843 553 , 833 553 
Q 821 553 , 821 553 
Q 821 553 , 833 553 
Q 843 553 , 864 553 
Q 874 553 , 882 553 
Q 890 553 , 905 553 
L 905 553 
Q 894 553 , 884 553 
Q 874 553 , 863 553 
Q 836 553 , 821 553 
Q 805 553 , 805 553 
Q 805 553 , 821 553 
Q 836 553 , 863 553 
Q 874 553 , 884 553 
Q 895 553 , 905 553 
" fill="#545FFF" />
<path d="
M 855 552 
L 837 552 
L 871 552 
L 855 552 
M 848 552 
L 862 552 
L 905 552 
L 889 552 
L 877 552 
L 833 552 
L 820 552 
L 805 552 
L 848 552 
" fill="#339541" />
<path d="
M 889 551 
L 889 551 
L 860 551 
L 860 551 
L 905 551 
L 905 551 
Q 894 551 , 883 551 
Q 874 551 , 862 551 
Q 836 551 , 820 551 
Q 805 551 , 805 551 
Q 805 551 , 820 551 
Q 836 551 , 862 551 
Q 873 551 , 882 551 
Q 892 551 , 902 551 
L 902 551 
Q 889 551 , 881 551 
Q 872 551 , 863 551 
Q 842 551 , 831 551 
Q 821 551 , 821 551 
Q 821 551 , 831 551 
Q 842 551 , 863 551 
Q 872 551 , 879 551 
Q 886 551 , 889 551 
" fill="#F5C000" />
<path d="M 65 55 L 65 555 " stroke="black" stroke-width="1.5"/>
<path d="M 55 555 L 65 555 " stroke="black" stroke-width="4"/>
<text text-anchor="end" x="50" y="555" font-size="50" alignment-baseline="middle">0</text>
<path d="M 55 305 L 65 305 " stroke="black" stroke-width="4"/>
<text text-anchor="end" x="50" y="305" font-size="50" alignment-baseline="middle">1</text>
<path d="M 55 55 L 65 55 " stroke="black" stroke-width="4"/>
<text text-anchor="end" x="50" y="55" font-size="50" alignment-baseline="middle">2</text>
<text text-anchor="middle" x="487" y="50" font-size="50" alignment-baseline="baseline"></text>
G<path d="
M 160 582 
L 126 595 
L 160 608 
L 157 611 
L 123 598 
L 123 623 
L 117 623 
L 117 599 
L 83 611 
L 80 608 
L 114 595 
L 80 582 
L 83 579 
L 117 591 
L 117 567 
L 123 567 
L 123 591 
L 157 579 
L 160 582 
" fill="black" />
<path d="
" fill="black" />
<path d="
M 211 567 
L 238 567 
L 238 623 
L 211 623 
L 211 567 
" fill="black" />
<path d="
" fill="black" />
<path d="
" fill="black" />
<path d="
M 316 567 
L 343 567 
L 343 623 
L 316 623 
L 316 567 
" fill="black" />
<path d="
" fill="black" />
<path d="
" fill="black" />
<path d="
M 421 567 
L 448 567 
L 448 623 
L 421 623 
L 421 567 
" fill="black" />
<path d="
" fill="black" />
<path d="
" fill="black" />
<path d="
M 526 567 
L 553 567 
L 553 623 
L 526 623 
L 526 567 
" fill="black" />
<path d="
" fill="black" />
<path d="
" fill="black" />
<path d="
M 631 567 
L 658 567 
L 658 623 
L 631 623 
L 631 567 
" fill="black" />
<path d="
" fill="black" />
<path d="
" fill="black" />
<path d="
M 736 567 
L 763 567 
L 763 623 
L 736 623 
L 736 567 
" fill="black" />
<path d="
" fill="black" />
<path d="
M 895 582 
L 861 595 
L 895 608 
L 892 611 
L 858 598 
L 858 623 
L 852 623 
L 852 599 
L 818 611 
L 815 608 
L 849 595 
L 815 582 
L 818 579 
L 852 591 
L 852 567 
L 858 567 
L 858 591 
L 892 579 
L 895 582 
" fill="black" />
</svg>
