<svg xmlns="http://www.w3.org/2000/svg"
viewBox="0 0 700 635">
<path d="
M 120 553 
L 102 554 
L 136 554 
L 120 553 
M 113 553 
L 127 553 
L 170 555 
L 154 555 
L 142 554 
L 98 554 
L 85 555 
L 70 555 
L 113 553 
" fill="#339541" />
<path d="
M 170 551 
L 170 552 
Q 155 551 , 147 551 
Q 139 551 , 129 551 
Q 108 551 , 98 551 
Q 86 552 , 86 552 
Q 86 552 , 98 553 
Q 108 553 , 129 553 
Q 139 553 , 147 553 
Q 155 553 , 170 552 
L 170 553 
Q 159 553 , 149 553 
Q 139 553 , 128 553 
Q 101 553 , 86 553 
Q 70 552 , 70 552 
Q 70 552 , 86 551 
Q 101 551 , 128 551 
Q 139 551 , 149 551 
Q 160 551 , 170 551 
" fill="#545FFF" />
<path d="
M 70 548 
L 88 548 
L 88 549 
Q 88 550 , 96 550 
Q 103 550 , 120 550 
Q 137 550 , 145 550 
Q 152 550 , 152 549 
L 152 548 
L 170 548 
L 170 549 
Q 170 550 , 157 550 
Q 145 550 , 120 550 
Q 96 550 , 83 550 
Q 70 550 , 70 549 
L 70 548 
" fill="#D21010" />
<path d="
M 154 547 
L 154 546 
L 125 546 
L 125 545 
L 170 545 
L 170 547 
Q 159 547 , 148 547 
Q 139 547 , 127 547 
Q 101 547 , 85 547 
Q 70 546 , 70 546 
Q 70 545 , 85 544 
Q 101 544 , 127 544 
Q 138 544 , 147 544 
Q 157 544 , 167 544 
L 167 545 
Q 154 544 , 146 544 
Q 137 544 , 128 544 
Q 107 544 , 96 545 
Q 86 545 , 86 546 
Q 86 546 , 96 546 
Q 107 547 , 128 547 
Q 137 547 , 144 547 
Q 151 547 , 154 547 
" fill="#F5C000" />
<path d="
M 275 551 
L 275 551 
Q 260 551 , 252 551 
Q 244 551 , 234 551 
Q 213 551 , 203 551 
Q 191 551 , 191 552 
Q 191 553 , 203 554 
Q 213 554 , 234 554 
Q 244 554 , 252 554 
Q 260 554 , 275 554 
L 275 554 
Q 264 555 , 254 555 
Q 244 555 , 233 555 
Q 206 555 , 191 554 
Q 175 554 , 175 552 
Q 175 551 , 191 551 
Q 206 550 , 233 550 
Q 244 550 , 254 550 
Q 265 550 , 275 551 
" fill="#545FFF" />
<path d="
M 225 541 
L 207 545 
L 241 545 
L 225 541 
M 218 539 
L 232 539 
L 275 550 
L 259 550 
L 247 547 
L 203 547 
L 190 550 
L 175 550 
L 218 539 
" fill="#339541" />
<path d="
M 259 537 
L 259 534 
L 230 534 
L 230 532 
L 275 532 
L 275 537 
Q 264 538 , 253 538 
Q 244 538 , 232 538 
Q 206 538 , 190 537 
Q 175 535 , 175 533 
Q 175 530 , 190 528 
Q 206 527 , 232 527 
Q 243 527 , 252 527 
Q 262 527 , 272 528 
L 272 529 
Q 259 529 , 251 529 
Q 242 528 , 233 528 
Q 212 528 , 201 529 
Q 191 530 , 191 533 
Q 191 535 , 201 536 
Q 212 537 , 233 537 
Q 242 537 , 249 537 
Q 256 537 , 259 537 
" fill="#F5C000" />
<path d="
M 175 503 
L 193 503 
L 193 517 
Q 193 520 , 201 522 
Q 208 524 , 225 524 
Q 242 524 , 250 522 
Q 257 520 , 257 517 
L 257 503 
L 275 503 
L 275 517 
Q 275 521 , 262 524 
Q 250 526 , 225 526 
Q 201 526 , 188 524 
Q 175 521 , 175 517 
L 175 503 
" fill="#D21010" />
<path d="
M 380 552 
L 380 553 
Q 365 552 , 357 552 
Q 349 552 , 339 552 
Q 318 552 , 308 553 
Q 296 553 , 296 553 
Q 296 554 , 308 554 
Q 318 554 , 339 554 
Q 349 554 , 357 554 
Q 365 554 , 380 554 
L 380 554 
Q 369 554 , 359 555 
Q 349 555 , 338 555 
Q 311 555 , 296 554 
Q 280 554 , 280 553 
Q 280 553 , 296 552 
Q 311 552 , 338 552 
Q 349 552 , 359 552 
Q 370 552 , 380 552 
" fill="#545FFF" />
<path d="
M 330 549 
L 312 551 
L 346 551 
L 330 549 
M 323 549 
L 337 549 
L 380 552 
L 364 552 
L 352 551 
L 308 551 
L 295 552 
L 280 552 
L 323 549 
" fill="#339541" />
<path d="
M 280 506 
L 298 506 
L 298 531 
Q 298 538 , 306 541 
Q 313 543 , 330 543 
Q 347 543 , 355 541 
Q 362 538 , 362 531 
L 362 506 
L 380 506 
L 380 532 
Q 380 540 , 367 544 
Q 355 548 , 330 548 
Q 306 548 , 293 544 
Q 280 540 , 280 532 
L 280 506 
" fill="#D21010" />
<path d="
M 364 465 
L 364 390 
L 335 390 
L 335 359 
L 380 359 
L 380 484 
Q 369 496 , 358 501 
Q 349 505 , 337 506 
Q 311 506 , 295 468 
Q 280 431 , 280 365 
Q 280 299 , 295 262 
Q 311 224 , 337 224 
Q 348 224 , 357 229 
Q 367 234 , 377 247 
L 377 283 
Q 364 267 , 356 262 
Q 347 258 , 338 258 
Q 317 258 , 306 284 
Q 296 310 , 296 365 
Q 296 420 , 306 447 
Q 317 474 , 338 474 
Q 347 474 , 354 471 
Q 361 469 , 364 465 
" fill="#F5C000" />
<path d="
M 485 552 
L 485 553 
Q 470 552 , 462 552 
Q 454 552 , 444 552 
Q 423 552 , 413 552 
Q 401 553 , 401 553 
Q 401 554 , 413 554 
Q 423 554 , 444 554 
Q 454 554 , 462 554 
Q 470 554 , 485 554 
L 485 554 
Q 474 554 , 464 554 
Q 454 554 , 443 554 
Q 416 554 , 401 554 
Q 385 554 , 385 553 
Q 385 553 , 401 552 
Q 416 552 , 443 552 
Q 454 552 , 464 552 
Q 475 552 , 485 552 
" fill="#545FFF" />
<path d="
M 435 549 
L 417 551 
L 451 551 
L 435 549 
M 428 549 
L 442 549 
L 485 552 
L 469 552 
L 457 551 
L 413 551 
L 400 552 
L 385 552 
L 428 549 
" fill="#339541" />
<path d="
M 385 509 
L 403 509 
L 403 532 
Q 403 539 , 411 541 
Q 418 544 , 435 544 
Q 452 544 , 460 541 
Q 467 539 , 467 532 
L 467 509 
L 485 509 
L 485 533 
Q 485 540 , 472 544 
Q 460 548 , 435 548 
Q 411 548 , 398 544 
Q 385 540 , 385 533 
L 385 509 
" fill="#D21010" />
<path d="
M 469 466 
L 469 386 
L 440 386 
L 440 353 
L 485 353 
L 485 486 
Q 474 499 , 463 503 
Q 454 508 , 442 509 
Q 416 509 , 400 469 
Q 385 429 , 385 360 
Q 385 290 , 400 251 
Q 416 211 , 442 211 
Q 453 211 , 462 216 
Q 472 222 , 482 235 
L 482 273 
Q 469 256 , 461 251 
Q 452 247 , 443 247 
Q 422 247 , 411 274 
Q 401 302 , 401 360 
Q 401 419 , 411 447 
Q 422 476 , 443 476 
Q 452 476 , 459 473 
Q 466 470 , 469 466 
" fill="#F5C000" />
<path d="
M 590 551 
L 590 552 
Q 575 552 , 567 551 
Q 559 551 , 549 551 
Q 528 551 , 518 552 
Q 506 552 , 506 552 
Q 506 553 , 518 554 
Q 528 554 , 549 554 
Q 559 554 , 567 554 
Q 575 554 , 590 554 
L 590 554 
Q 579 554 , 569 554 
Q 559 555 , 548 555 
Q 521 555 , 506 554 
Q 490 554 , 490 553 
Q 490 552 , 506 551 
Q 521 551 , 548 551 
Q 559 551 , 569 551 
Q 580 551 , 590 551 
" fill="#545FFF" />
<path d="
M 540 541 
L 522 546 
L 556 546 
L 540 541 
M 533 539 
L 547 539 
L 590 551 
L 574 551 
L 562 547 
L 518 547 
L 505 551 
L 490 551 
L 533 539 
" fill="#339541" />
<path d="
M 574 533 
L 574 521 
L 545 521 
L 545 517 
L 590 517 
L 590 535 
Q 579 537 , 568 538 
Q 559 539 , 547 539 
Q 521 539 , 505 533 
Q 490 528 , 490 518 
Q 490 508 , 505 503 
Q 521 497 , 547 497 
Q 558 497 , 567 498 
Q 577 498 , 587 500 
L 587 506 
Q 574 503 , 566 503 
Q 557 502 , 548 502 
Q 527 502 , 516 506 
Q 506 510 , 506 518 
Q 506 526 , 516 530 
Q 527 534 , 548 534 
Q 557 534 , 564 534 
Q 571 533 , 574 533 
" fill="#F5C000" />
<path d="
M 490 311 
L 508 311 
L 508 420 
Q 508 451 , 516 464 
Q 523 476 , 540 476 
Q 557 476 , 565 464 
Q 572 451 , 572 420 
L 572 311 
L 590 311 
L 590 423 
Q 590 459 , 577 478 
Q 565 496 , 540 496 
Q 516 496 , 503 478 
Q 490 459 , 490 423 
L 490 311 
" fill="#D21010" />
<path d="
M 645 553 
L 627 554 
L 661 554 
L 645 553 
M 638 553 
L 652 553 
L 695 555 
L 679 555 
L 667 554 
L 623 554 
L 610 555 
L 595 555 
L 638 553 
" fill="#339541" />
<path d="
M 695 551 
L 695 552 
Q 680 551 , 672 551 
Q 664 551 , 654 551 
Q 633 551 , 623 551 
Q 611 552 , 611 552 
Q 611 552 , 623 553 
Q 633 553 , 654 553 
Q 664 553 , 672 553 
Q 680 553 , 695 552 
L 695 553 
Q 684 553 , 674 553 
Q 664 553 , 653 553 
Q 626 553 , 611 553 
Q 595 552 , 595 552 
Q 595 552 , 611 551 
Q 626 551 , 653 551 
Q 664 551 , 674 551 
Q 685 551 , 695 551 
" fill="#545FFF" />
<path d="
M 595 548 
L 613 548 
L 613 549 
Q 613 550 , 621 550 
Q 628 550 , 645 550 
Q 662 550 , 670 550 
Q 677 550 , 677 549 
L 677 548 
L 695 548 
L 695 549 
Q 695 550 , 682 550 
Q 670 550 , 645 550 
Q 621 550 , 608 550 
Q 595 550 , 595 549 
L 595 548 
" fill="#D21010" />
<path d="
M 679 547 
L 679 546 
L 650 546 
L 650 545 
L 695 545 
L 695 547 
Q 684 547 , 673 547 
Q 664 547 , 652 547 
Q 626 547 , 610 547 
Q 595 546 , 595 546 
Q 595 545 , 610 544 
Q 626 544 , 652 544 
Q 663 544 , 672 544 
Q 682 544 , 692 544 
L 692 545 
Q 679 544 , 671 544 
Q 662 544 , 653 544 
Q 632 544 , 621 545 
Q 611 545 , 611 546 
Q 611 546 , 621 546 
Q 632 547 , 653 547 
Q 662 547 , 669 547 
Q 676 547 , 679 547 
" fill="#F5C000" />
<path d="M 65 55 L 65 555 " stroke="black" stroke-width="1.5"/>
<path d="M 55 555 L 65 555 " stroke="black" stroke-width="4"/>
<text text-anchor="end" x="50" y="555" font-size="50" alignment-baseline="middle">0</text>
<path d="M 55 305 L 65 305 " stroke="black" stroke-width="4"/>
<text text-anchor="end" x="50" y="305" font-size="50" alignment-baseline="middle">1</text>
<path d="M 55 55 L 65 55 " stroke="black" stroke-width="4"/>
<text text-anchor="end" x="50" y="55" font-size="50" alignment-baseline="middle">2</text>
<text text-anchor="middle" x="382" y="50" font-size="50" alignment-baseline="baseline"></text>
G<path d="
M 160 582 
L 126 595 
L 160 608 
L 157 611 
L 123 598 
L 123 623 
L 117 623 
L 117 599 
L 83 611 
L 80 608 
L 114 595 
L 80 582 
L 83 579 
L 117 591 
L 117 567 
L 123 567 
L 123 591 
L 157 579 
L 160 582 
" fill="black" />
<path d="
" fill="black" />
<path d="
M 211 567 
L 238 567 
L 238 623 
L 211 623 
L 211 567 
" fill="black" />
<path d="
" fill="black" />
<path d="
" fill="black" />
<path d="
M 316 567 
L 343 567 
L 343 623 
L 316 623 
L 316 567 
" fill="black" />
<path d="
" fill="black" />
<path d="
" fill="black" />
<path d="
M 421 567 
L 448 567 
L 448 623 
L 421 623 
L 421 567 
" fill="black" />
<path d="
" fill="black" />
<path d="
" fill="black" />
<path d="
M 526 567 
L 553 567 
L 553 623 
L 526 623 
L 526 567 
" fill="black" />
<path d="
" fill="black" />
<path d="
M 685 582 
L 651 595 
L 685 608 
L 682 611 
L 648 598 
L 648 623 
L 642 623 
L 642 599 
L 608 611 
L 605 608 
L 639 595 
L 605 582 
L 608 579 
L 642 591 
L 642 567 
L 648 567 
L 648 591 
L 682 579 
L 685 582 
" fill="black" />
</svg>
