<svg xmlns="http://www.w3.org/2000/svg"
viewBox="0 0 700 635">
<path d="
M 170 553 
L 170 553 
Q 155 553 , 147 553 
Q 139 553 , 129 553 
Q 108 553 , 98 553 
Q 86 553 , 86 553 
Q 86 554 , 98 554 
Q 108 554 , 129 554 
Q 139 554 , 147 554 
Q 155 554 , 170 554 
L 170 554 
Q 159 555 , 149 555 
Q 139 555 , 128 555 
Q 101 555 , 86 554 
Q 70 554 , 70 554 
Q 70 553 , 86 553 
Q 101 553 , 128 553 
Q 139 553 , 149 553 
Q 160 553 , 170 553 
" fill="#545FFF" />
<path d="
M 70 550 
L 88 550 
L 88 551 
Q 88 552 , 96 552 
Q 103 552 , 120 552 
Q 137 552 , 145 552 
Q 152 552 , 152 551 
L 152 550 
L 170 550 
L 170 551 
Q 170 552 , 157 552 
Q 145 552 , 120 552 
Q 96 552 , 83 552 
Q 70 552 , 70 551 
L 70 550 
" fill="#D21010" />
<path d="
M 154 549 
L 154 548 
L 125 548 
L 125 548 
L 170 548 
L 170 549 
Q 159 549 , 148 549 
Q 139 549 , 127 549 
Q 101 549 , 85 549 
Q 70 549 , 70 548 
Q 70 548 , 85 547 
Q 101 547 , 127 547 
Q 138 547 , 147 547 
Q 157 547 , 167 547 
L 167 548 
Q 154 547 , 146 547 
Q 137 547 , 128 547 
Q 107 547 , 96 548 
Q 86 548 , 86 548 
Q 86 549 , 96 549 
Q 107 549 , 128 549 
Q 137 549 , 144 549 
Q 151 549 , 154 549 
" fill="#F5C000" />
<path d="
M 120 544 
L 102 545 
L 136 545 
L 120 544 
M 113 543 
L 127 543 
L 170 546 
L 154 546 
L 142 545 
L 98 545 
L 85 546 
L 70 546 
L 113 543 
" fill="#339541" />
<path d="
M 275 551 
L 275 552 
Q 260 552 , 252 551 
Q 244 551 , 234 551 
Q 213 551 , 203 552 
Q 191 552 , 191 552 
Q 191 553 , 203 554 
Q 213 554 , 234 554 
Q 244 554 , 252 554 
Q 260 554 , 275 553 
L 275 554 
Q 264 554 , 254 554 
Q 244 554 , 233 554 
Q 206 554 , 191 554 
Q 175 553 , 175 553 
Q 175 552 , 191 551 
Q 206 551 , 233 551 
Q 244 551 , 254 551 
Q 265 551 , 275 551 
" fill="#545FFF" />
<path d="
M 175 542 
L 193 542 
L 193 547 
Q 193 548 , 201 549 
Q 208 549 , 225 549 
Q 242 549 , 250 549 
Q 257 548 , 257 547 
L 257 542 
L 275 542 
L 275 547 
Q 275 549 , 262 549 
Q 250 550 , 225 550 
Q 201 550 , 188 549 
Q 175 549 , 175 547 
L 175 542 
" fill="#D21010" />
<path d="
M 259 532 
L 259 513 
L 230 513 
L 230 505 
L 275 505 
L 275 537 
Q 264 540 , 253 541 
Q 244 542 , 232 542 
Q 206 542 , 190 533 
Q 175 523 , 175 507 
Q 175 491 , 190 481 
Q 206 472 , 232 472 
Q 243 472 , 252 473 
Q 262 475 , 272 478 
L 272 487 
Q 259 483 , 251 481 
Q 242 480 , 233 480 
Q 212 480 , 201 487 
Q 191 493 , 191 507 
Q 191 521 , 201 527 
Q 212 534 , 233 534 
Q 242 534 , 249 533 
Q 256 533 , 259 532 
" fill="#F5C000" />
<path d="
M 225 407 
L 207 439 
L 241 439 
L 225 407 
M 218 393 
L 232 393 
L 275 472 
L 259 472 
L 247 449 
L 203 449 
L 190 472 
L 175 472 
L 218 393 
" fill="#339541" />
<path d="
M 280 549 
L 298 549 
L 298 552 
Q 298 553 , 306 554 
Q 313 554 , 330 554 
Q 347 554 , 355 554 
Q 362 553 , 362 552 
L 362 549 
L 380 549 
L 380 553 
Q 380 554 , 367 554 
Q 355 555 , 330 555 
Q 306 555 , 293 554 
Q 280 554 , 280 553 
L 280 549 
" fill="#D21010" />
<path d="
M 380 543 
L 380 544 
Q 365 543 , 357 543 
Q 349 543 , 339 543 
Q 318 543 , 308 543 
Q 296 544 , 296 545 
Q 296 547 , 308 547 
Q 318 548 , 339 548 
Q 349 548 , 357 548 
Q 365 548 , 380 547 
L 380 548 
Q 369 549 , 359 549 
Q 349 549 , 338 549 
Q 311 549 , 296 548 
Q 280 547 , 280 545 
Q 280 544 , 296 543 
Q 311 542 , 338 542 
Q 349 542 , 359 542 
Q 370 542 , 380 543 
" fill="#545FFF" />
<path d="
M 330 514 
L 312 528 
L 346 528 
L 330 514 
M 323 508 
L 337 508 
L 380 542 
L 364 542 
L 352 532 
L 308 532 
L 295 542 
L 280 542 
L 323 508 
" fill="#339541" />
<path d="
M 364 471 
L 364 402 
L 335 402 
L 335 374 
L 380 374 
L 380 488 
Q 369 499 , 358 503 
Q 349 507 , 337 508 
Q 311 508 , 295 473 
Q 280 439 , 280 380 
Q 280 320 , 295 285 
Q 311 251 , 337 251 
Q 348 251 , 357 255 
Q 367 260 , 377 272 
L 377 305 
Q 364 290 , 356 286 
Q 347 282 , 338 282 
Q 317 282 , 306 306 
Q 296 330 , 296 380 
Q 296 430 , 306 455 
Q 317 479 , 338 479 
Q 347 479 , 354 477 
Q 361 474 , 364 471 
" fill="#F5C000" />
<path d="
M 385 550 
L 403 550 
L 403 553 
Q 403 553 , 411 554 
Q 418 554 , 435 554 
Q 452 554 , 460 554 
Q 467 553 , 467 553 
L 467 550 
L 485 550 
L 485 553 
Q 485 554 , 472 554 
Q 460 554 , 435 554 
Q 411 554 , 398 554 
Q 385 554 , 385 553 
L 385 550 
" fill="#D21010" />
<path d="
M 485 534 
L 485 537 
Q 470 535 , 462 534 
Q 454 534 , 444 534 
Q 423 534 , 413 536 
Q 401 537 , 401 540 
Q 401 544 , 413 546 
Q 423 547 , 444 547 
Q 454 547 , 462 547 
Q 470 547 , 485 545 
L 485 548 
Q 474 549 , 464 549 
Q 454 549 , 443 549 
Q 416 549 , 401 547 
Q 385 545 , 385 541 
Q 385 537 , 401 534 
Q 416 532 , 443 532 
Q 454 532 , 464 532 
Q 475 533 , 485 534 
" fill="#545FFF" />
<path d="
M 469 526 
L 469 518 
L 440 518 
L 440 514 
L 485 514 
L 485 529 
Q 474 530 , 463 531 
Q 454 531 , 442 531 
Q 416 531 , 400 527 
Q 385 522 , 385 515 
Q 385 507 , 400 502 
Q 416 498 , 442 498 
Q 453 498 , 462 499 
Q 472 499 , 482 501 
L 482 505 
Q 469 503 , 461 502 
Q 452 502 , 443 502 
Q 422 502 , 411 505 
Q 401 508 , 401 515 
Q 401 521 , 411 524 
Q 422 527 , 443 527 
Q 452 527 , 459 527 
Q 466 527 , 469 526 
" fill="#F5C000" />
<path d="
M 435 413 
L 417 455 
L 451 455 
L 435 413 
M 428 394 
L 442 394 
L 485 498 
L 469 498 
L 457 467 
L 413 467 
L 400 498 
L 385 498 
L 428 394 
" fill="#339541" />
<path d="
M 490 548 
L 508 548 
L 508 552 
Q 508 553 , 516 553 
Q 523 554 , 540 554 
Q 557 554 , 565 553 
Q 572 553 , 572 552 
L 572 548 
L 590 548 
L 590 552 
Q 590 553 , 577 554 
Q 565 554 , 540 554 
Q 516 554 , 503 554 
Q 490 553 , 490 552 
L 490 548 
" fill="#D21010" />
<path d="
M 590 541 
L 590 542 
Q 575 541 , 567 541 
Q 559 541 , 549 541 
Q 528 541 , 518 541 
Q 506 542 , 506 543 
Q 506 545 , 518 546 
Q 528 546 , 549 546 
Q 559 546 , 567 546 
Q 575 546 , 590 545 
L 590 546 
Q 579 547 , 569 547 
Q 559 547 , 548 547 
Q 521 547 , 506 546 
Q 490 545 , 490 544 
Q 490 542 , 506 541 
Q 521 540 , 548 540 
Q 559 540 , 569 540 
Q 580 540 , 590 541 
" fill="#545FFF" />
<path d="
M 574 533 
L 574 520 
L 545 520 
L 545 515 
L 590 515 
L 590 536 
Q 579 538 , 568 539 
Q 559 540 , 547 540 
Q 521 540 , 505 533 
Q 490 527 , 490 516 
Q 490 505 , 505 499 
Q 521 493 , 547 493 
Q 558 493 , 567 494 
Q 577 495 , 587 497 
L 587 503 
Q 574 500 , 566 499 
Q 557 499 , 548 499 
Q 527 499 , 516 503 
Q 506 507 , 506 516 
Q 506 525 , 516 530 
Q 527 534 , 548 534 
Q 557 534 , 564 534 
Q 571 533 , 574 533 
" fill="#F5C000" />
<path d="
M 540 359 
L 522 425 
L 556 425 
L 540 359 
M 533 329 
L 547 329 
L 590 492 
L 574 492 
L 562 444 
L 518 444 
L 505 492 
L 490 492 
L 533 329 
" fill="#339541" />
<path d="
M 695 553 
L 695 553 
Q 680 553 , 672 553 
Q 664 553 , 654 553 
Q 633 553 , 623 553 
Q 611 553 , 611 553 
Q 611 554 , 623 554 
Q 633 554 , 654 554 
Q 664 554 , 672 554 
Q 680 554 , 695 554 
L 695 554 
Q 684 555 , 674 555 
Q 664 555 , 653 555 
Q 626 555 , 611 554 
Q 595 554 , 595 554 
Q 595 553 , 611 553 
Q 626 553 , 653 553 
Q 664 553 , 674 553 
Q 685 553 , 695 553 
" fill="#545FFF" />
<path d="
M 595 550 
L 613 550 
L 613 551 
Q 613 552 , 621 552 
Q 628 552 , 645 552 
Q 662 552 , 670 552 
Q 677 552 , 677 551 
L 677 550 
L 695 550 
L 695 551 
Q 695 552 , 682 552 
Q 670 552 , 645 552 
Q 621 552 , 608 552 
Q 595 552 , 595 551 
L 595 550 
" fill="#D21010" />
<path d="
M 679 549 
L 679 548 
L 650 548 
L 650 548 
L 695 548 
L 695 549 
Q 684 549 , 673 549 
Q 664 549 , 652 549 
Q 626 549 , 610 549 
Q 595 549 , 595 548 
Q 595 548 , 610 547 
Q 626 547 , 652 547 
Q 663 547 , 672 547 
Q 682 547 , 692 547 
L 692 548 
Q 679 547 , 671 547 
Q 662 547 , 653 547 
Q 632 547 , 621 548 
Q 611 548 , 611 548 
Q 611 549 , 621 549 
Q 632 549 , 653 549 
Q 662 549 , 669 549 
Q 676 549 , 679 549 
" fill="#F5C000" />
<path d="
M 645 544 
L 627 545 
L 661 545 
L 645 544 
M 638 543 
L 652 543 
L 695 546 
L 679 546 
L 667 545 
L 623 545 
L 610 546 
L 595 546 
L 638 543 
" fill="#339541" />
<path d="M 65 55 L 65 555 " stroke="black" stroke-width="1.5"/>
<path d="M 55 555 L 65 555 " stroke="black" stroke-width="4"/>
<text text-anchor="end" x="50" y="555" font-size="50" alignment-baseline="middle">0</text>
<path d="M 55 305 L 65 305 " stroke="black" stroke-width="4"/>
<text text-anchor="end" x="50" y="305" font-size="50" alignment-baseline="middle">1</text>
<path d="M 55 55 L 65 55 " stroke="black" stroke-width="4"/>
<text text-anchor="end" x="50" y="55" font-size="50" alignment-baseline="middle">2</text>
<text text-anchor="middle" x="382" y="50" font-size="50" alignment-baseline="baseline"></text>
G<path d="
M 160 582 
L 126 595 
L 160 608 
L 157 611 
L 123 598 
L 123 623 
L 117 623 
L 117 599 
L 83 611 
L 80 608 
L 114 595 
L 80 582 
L 83 579 
L 117 591 
L 117 567 
L 123 567 
L 123 591 
L 157 579 
L 160 582 
" fill="black" />
<path d="
" fill="black" />
<path d="
M 211 567 
L 238 567 
L 238 623 
L 211 623 
L 211 567 
" fill="black" />
<path d="
" fill="black" />
<path d="
" fill="black" />
<path d="
M 316 567 
L 343 567 
L 343 623 
L 316 623 
L 316 567 
" fill="black" />
<path d="
" fill="black" />
<path d="
" fill="black" />
<path d="
M 421 567 
L 448 567 
L 448 623 
L 421 623 
L 421 567 
" fill="black" />
<path d="
" fill="black" />
<path d="
" fill="black" />
<path d="
M 526 567 
L 553 567 
L 553 623 
L 526 623 
L 526 567 
" fill="black" />
<path d="
" fill="black" />
<path d="
M 685 582 
L 651 595 
L 685 608 
L 682 611 
L 648 598 
L 648 623 
L 642 623 
L 642 599 
L 608 611 
L 605 608 
L 639 595 
L 605 582 
L 608 579 
L 642 591 
L 642 567 
L 648 567 
L 648 591 
L 682 579 
L 685 582 
" fill="black" />
</svg>
