<svg xmlns="http://www.w3.org/2000/svg"
viewBox="0 0 1435 635">
<path d="
M 120 553 
L 102 554 
L 136 554 
L 120 553 
M 113 553 
L 127 553 
L 170 554 
L 154 554 
L 142 554 
L 98 554 
L 85 554 
L 70 554 
L 113 553 
" fill="#339541" />
<path d="
M 170 551 
L 170 551 
Q 155 551 , 147 551 
Q 139 551 , 129 551 
Q 108 551 , 98 551 
Q 86 551 , 86 551 
Q 86 552 , 98 552 
Q 108 552 , 129 552 
Q 139 552 , 147 552 
Q 155 552 , 170 552 
L 170 552 
Q 159 552 , 149 552 
Q 139 552 , 128 552 
Q 101 552 , 86 552 
Q 70 552 , 70 552 
Q 70 551 , 86 551 
Q 101 551 , 128 551 
Q 139 551 , 149 551 
Q 160 551 , 170 551 
" fill="#545FFF" />
<path d="
M 70 548 
L 88 548 
L 88 549 
Q 88 550 , 96 550 
Q 103 550 , 120 550 
Q 137 550 , 145 550 
Q 152 550 , 152 549 
L 152 548 
L 170 548 
L 170 549 
Q 170 550 , 157 550 
Q 145 550 , 120 550 
Q 96 550 , 83 550 
Q 70 550 , 70 549 
L 70 548 
" fill="#D21010" />
<path d="
M 154 547 
L 154 546 
L 125 546 
L 125 546 
L 170 546 
L 170 547 
Q 159 547 , 148 547 
Q 139 547 , 127 547 
Q 101 547 , 85 547 
Q 70 547 , 70 546 
Q 70 546 , 85 545 
Q 101 545 , 127 545 
Q 138 545 , 147 545 
Q 157 545 , 167 545 
L 167 545 
Q 154 545 , 146 545 
Q 137 545 , 128 545 
Q 107 545 , 96 546 
Q 86 546 , 86 546 
Q 86 547 , 96 547 
Q 107 547 , 128 547 
Q 137 547 , 144 547 
Q 151 547 , 154 547 
" fill="#F5C000" />
<path d="
M 217 554 
L 217 554 
L 203 554 
L 203 554 
L 225 554 
L 225 555 
Q 220 555 , 214 555 
Q 209 555 , 203 555 
Q 190 555 , 183 554 
Q 175 554 , 175 554 
Q 175 553 , 183 553 
Q 190 553 , 203 553 
Q 209 553 , 214 553 
Q 219 553 , 224 553 
L 224 553 
Q 217 553 , 213 553 
Q 209 553 , 204 553 
Q 194 553 , 188 553 
Q 183 554 , 183 554 
Q 183 554 , 188 554 
Q 194 554 , 204 554 
Q 209 554 , 212 554 
Q 216 554 , 217 554 
" fill="#F5C000" />
<path d="
M 225 553 
L 234 553 
L 234 554 
Q 234 554 , 238 554 
Q 241 554 , 250 554 
Q 259 554 , 262 554 
Q 266 554 , 266 554 
L 266 553 
L 275 553 
L 275 554 
Q 275 554 , 269 554 
Q 262 555 , 250 555 
Q 238 555 , 231 554 
Q 225 554 , 225 554 
L 225 553 
" fill="lightgray" />
<path d="
M 175 550 
L 184 550 
L 184 551 
Q 184 552 , 188 552 
Q 191 552 , 200 552 
Q 209 552 , 212 552 
Q 216 552 , 216 551 
L 216 550 
L 225 550 
L 225 551 
Q 225 552 , 219 552 
Q 212 552 , 200 552 
Q 188 552 , 181 552 
Q 175 552 , 175 551 
L 175 550 
" fill="#D21010" />
<path d="
M 267 552 
L 267 551 
L 253 551 
L 253 551 
L 275 551 
L 275 552 
Q 270 552 , 264 552 
Q 259 552 , 253 552 
Q 240 552 , 233 552 
Q 225 552 , 225 551 
Q 225 551 , 233 550 
Q 240 550 , 253 550 
Q 259 550 , 264 550 
Q 269 550 , 274 550 
L 274 550 
Q 267 550 , 263 550 
Q 259 550 , 254 550 
Q 244 550 , 238 550 
Q 233 551 , 233 551 
Q 233 551 , 238 552 
Q 244 552 , 254 552 
Q 259 552 , 262 552 
Q 266 552 , 267 552 
" fill="lightgray" />
<path d="
M 225 547 
L 225 548 
Q 218 547 , 214 547 
Q 209 547 , 204 547 
Q 194 547 , 189 547 
Q 183 548 , 183 548 
Q 183 549 , 189 549 
Q 194 549 , 204 549 
Q 209 549 , 214 549 
Q 218 549 , 225 549 
L 225 549 
Q 220 549 , 214 549 
Q 210 549 , 204 549 
Q 190 549 , 183 549 
Q 175 549 , 175 548 
Q 175 548 , 183 547 
Q 190 547 , 204 547 
Q 210 547 , 215 547 
Q 220 547 , 225 547 
" fill="#545FFF" />
<path d="
M 267 549 
L 267 548 
L 253 548 
L 253 548 
L 275 548 
L 275 549 
Q 270 549 , 264 549 
Q 259 549 , 253 549 
Q 240 549 , 233 549 
Q 225 549 , 225 548 
Q 225 548 , 233 547 
Q 240 547 , 253 547 
Q 259 547 , 264 547 
Q 269 547 , 274 547 
L 274 547 
Q 267 547 , 263 547 
Q 259 547 , 254 547 
Q 244 547 , 238 547 
Q 233 548 , 233 548 
Q 233 549 , 238 549 
Q 244 549 , 254 549 
Q 259 549 , 262 549 
Q 266 549 , 267 549 
" fill="lightgray" />
<path d="
M 217 546 
L 217 545 
L 203 545 
L 203 545 
L 225 545 
L 225 546 
Q 220 546 , 214 546 
Q 209 547 , 203 547 
Q 190 547 , 183 546 
Q 175 546 , 175 545 
Q 175 544 , 183 543 
Q 190 543 , 203 543 
Q 209 543 , 214 543 
Q 219 543 , 224 543 
L 224 544 
Q 217 544 , 213 543 
Q 209 543 , 204 543 
Q 194 543 , 188 544 
Q 183 544 , 183 545 
Q 183 545 , 188 546 
Q 194 546 , 204 546 
Q 209 546 , 212 546 
Q 216 546 , 217 546 
" fill="#F5C000" />
<path d="
M 275 543 
L 275 544 
Q 268 544 , 264 543 
Q 259 543 , 254 543 
Q 244 543 , 239 544 
Q 233 544 , 233 544 
Q 233 545 , 239 546 
Q 244 546 , 254 546 
Q 259 546 , 264 546 
Q 268 546 , 275 546 
L 275 546 
Q 270 546 , 264 546 
Q 260 547 , 254 547 
Q 240 547 , 233 546 
Q 225 546 , 225 545 
Q 225 544 , 233 543 
Q 240 543 , 254 543 
Q 260 543 , 265 543 
Q 270 543 , 275 543 
" fill="lightgray" />
<path d="
M 175 539 
L 184 539 
L 184 541 
Q 184 542 , 188 542 
Q 191 542 , 200 542 
Q 209 542 , 212 542 
Q 216 542 , 216 541 
L 216 539 
L 225 539 
L 225 541 
Q 225 542 , 219 542 
Q 212 543 , 200 543 
Q 188 543 , 181 542 
Q 175 542 , 175 541 
L 175 539 
" fill="#D21010" />
<path d="
M 250 540 
L 241 541 
L 258 541 
L 250 540 
M 246 539 
L 254 539 
L 275 543 
L 267 543 
L 261 542 
L 239 542 
L 232 543 
L 225 543 
L 246 539 
" fill="lightgray" />
<path d="
M 200 535 
L 191 537 
L 208 537 
L 200 535 
M 196 534 
L 204 534 
L 225 539 
L 217 539 
L 211 537 
L 189 537 
L 182 539 
L 175 539 
L 196 534 
" fill="#339541" />
<path d="
M 225 534 
L 234 534 
L 234 537 
Q 234 537 , 238 538 
Q 241 538 , 250 538 
Q 259 538 , 262 538 
Q 266 537 , 266 537 
L 266 534 
L 275 534 
L 275 537 
Q 275 538 , 269 538 
Q 262 539 , 250 539 
Q 238 539 , 231 538 
Q 225 538 , 225 537 
L 225 534 
" fill="lightgray" />
<path d="
M 330 553 
L 312 554 
L 346 554 
L 330 553 
M 323 553 
L 337 553 
L 380 554 
L 364 554 
L 352 554 
L 308 554 
L 295 554 
L 280 554 
L 323 553 
" fill="#339541" />
<path d="
M 380 539 
L 380 541 
Q 365 540 , 357 539 
Q 349 539 , 339 539 
Q 318 539 , 308 540 
Q 296 542 , 296 545 
Q 296 548 , 308 550 
Q 318 551 , 339 551 
Q 349 551 , 357 551 
Q 365 550 , 380 549 
L 380 551 
Q 369 552 , 359 552 
Q 349 553 , 338 553 
Q 311 553 , 296 551 
Q 280 549 , 280 545 
Q 280 541 , 296 539 
Q 311 537 , 338 537 
Q 349 537 , 359 537 
Q 370 538 , 380 539 
" fill="#545FFF" />
<path d="
M 364 532 
L 364 526 
L 335 526 
L 335 523 
L 380 523 
L 380 534 
Q 369 535 , 358 536 
Q 349 536 , 337 536 
Q 311 536 , 295 533 
Q 280 529 , 280 524 
Q 280 518 , 295 514 
Q 311 511 , 337 511 
Q 348 511 , 357 511 
Q 367 512 , 377 513 
L 377 516 
Q 364 515 , 356 514 
Q 347 514 , 338 514 
Q 317 514 , 306 516 
Q 296 519 , 296 524 
Q 296 528 , 306 531 
Q 317 533 , 338 533 
Q 347 533 , 354 533 
Q 361 533 , 364 532 
" fill="#F5C000" />
<path d="
M 280 478 
L 298 478 
L 298 497 
Q 298 503 , 306 505 
Q 313 507 , 330 507 
Q 347 507 , 355 505 
Q 362 503 , 362 497 
L 362 478 
L 380 478 
L 380 498 
Q 380 504 , 367 507 
Q 355 511 , 330 511 
Q 306 511 , 293 507 
Q 280 504 , 280 498 
L 280 478 
" fill="#D21010" />
<path d="
M 427 554 
L 427 553 
L 413 553 
L 413 552 
L 435 552 
L 435 554 
Q 430 554 , 424 554 
Q 419 554 , 413 554 
Q 400 554 , 393 554 
Q 385 553 , 385 553 
Q 385 552 , 393 551 
Q 400 551 , 413 551 
Q 419 551 , 424 551 
Q 429 551 , 434 551 
L 434 552 
Q 427 551 , 423 551 
Q 419 551 , 414 551 
Q 404 551 , 398 552 
Q 393 552 , 393 553 
Q 393 553 , 398 553 
Q 404 554 , 414 554 
Q 419 554 , 422 554 
Q 426 554 , 427 554 
" fill="#F5C000" />
<path d="
M 435 551 
L 444 551 
L 444 553 
Q 444 553 , 448 554 
Q 451 554 , 460 554 
Q 469 554 , 472 554 
Q 476 553 , 476 553 
L 476 551 
L 485 551 
L 485 553 
Q 485 553 , 479 554 
Q 472 554 , 460 554 
Q 448 554 , 441 554 
Q 435 553 , 435 553 
L 435 551 
" fill="lightgray" />
<path d="
M 427 550 
L 427 548 
L 413 548 
L 413 548 
L 435 548 
L 435 550 
Q 430 550 , 424 550 
Q 419 550 , 413 550 
Q 400 550 , 393 550 
Q 385 549 , 385 548 
Q 385 546 , 393 546 
Q 400 545 , 413 545 
Q 419 545 , 424 545 
Q 429 545 , 434 545 
L 434 546 
Q 427 546 , 423 546 
Q 419 546 , 414 546 
Q 404 546 , 398 546 
Q 393 547 , 393 548 
Q 393 549 , 398 549 
Q 404 550 , 414 550 
Q 419 550 , 422 550 
Q 426 550 , 427 550 
" fill="#F5C000" />
<path d="
M 485 546 
L 485 546 
Q 478 546 , 474 546 
Q 469 546 , 464 546 
Q 454 546 , 449 546 
Q 443 547 , 443 548 
Q 443 549 , 449 549 
Q 454 550 , 464 550 
Q 469 550 , 474 550 
Q 478 550 , 485 549 
L 485 550 
Q 480 550 , 474 550 
Q 470 550 , 464 550 
Q 450 550 , 443 550 
Q 435 549 , 435 548 
Q 435 546 , 443 546 
Q 450 545 , 464 545 
Q 470 545 , 475 545 
Q 480 545 , 485 546 
" fill="lightgray" />
<path d="
M 385 537 
L 394 537 
L 394 541 
Q 394 542 , 398 543 
Q 401 543 , 410 543 
Q 419 543 , 422 543 
Q 426 542 , 426 541 
L 426 537 
L 435 537 
L 435 541 
Q 435 543 , 429 543 
Q 422 544 , 410 544 
Q 398 544 , 391 543 
Q 385 543 , 385 541 
L 385 537 
" fill="#D21010" />
<path d="
M 477 543 
L 477 541 
L 463 541 
L 463 540 
L 485 540 
L 485 544 
Q 480 544 , 474 544 
Q 469 544 , 463 544 
Q 450 544 , 443 543 
Q 435 542 , 435 541 
Q 435 539 , 443 538 
Q 450 537 , 463 537 
Q 469 537 , 474 537 
Q 479 537 , 484 538 
L 484 539 
Q 477 538 , 473 538 
Q 469 538 , 464 538 
Q 454 538 , 448 539 
Q 443 539 , 443 541 
Q 443 542 , 448 543 
Q 454 543 , 464 543 
Q 469 543 , 472 543 
Q 476 543 , 477 543 
" fill="lightgray" />
<path d="
M 410 529 
L 401 533 
L 418 533 
L 410 529 
M 406 527 
L 414 527 
L 435 537 
L 427 537 
L 421 534 
L 399 534 
L 392 537 
L 385 537 
L 406 527 
" fill="#339541" />
<path d="
M 435 527 
L 444 527 
L 444 533 
Q 444 534 , 448 535 
Q 451 536 , 460 536 
Q 469 536 , 472 535 
Q 476 534 , 476 533 
L 476 527 
L 485 527 
L 485 533 
Q 485 535 , 479 536 
Q 472 537 , 460 537 
Q 448 537 , 441 536 
Q 435 535 , 435 533 
L 435 527 
" fill="lightgray" />
<path d="
M 385 497 
L 394 497 
L 394 514 
Q 394 519 , 398 521 
Q 401 523 , 410 523 
Q 419 523 , 422 521 
Q 426 519 , 426 514 
L 426 497 
L 435 497 
L 435 515 
Q 435 521 , 429 524 
Q 422 527 , 410 527 
Q 398 527 , 391 524 
Q 385 521 , 385 515 
L 385 497 
" fill="#D21010" />
<path d="
M 460 502 
L 451 515 
L 468 515 
L 460 502 
M 456 497 
L 464 497 
L 485 527 
L 477 527 
L 471 518 
L 449 518 
L 442 527 
L 435 527 
L 456 497 
" fill="lightgray" />
<path d="
M 435 470 
L 435 475 
Q 428 472 , 424 471 
Q 419 470 , 414 470 
Q 404 470 , 399 473 
Q 393 476 , 393 482 
Q 393 488 , 399 491 
Q 404 493 , 414 493 
Q 419 493 , 424 493 
Q 428 492 , 435 489 
L 435 494 
Q 430 495 , 424 496 
Q 420 497 , 414 497 
Q 400 497 , 393 493 
Q 385 489 , 385 482 
Q 385 475 , 393 471 
Q 400 467 , 414 467 
Q 420 467 , 425 468 
Q 430 468 , 435 470 
" fill="#545FFF" />
<path d="
M 477 492 
L 477 484 
L 463 484 
L 463 481 
L 485 481 
L 485 494 
Q 480 496 , 474 496 
Q 469 497 , 463 497 
Q 450 497 , 443 493 
Q 435 489 , 435 482 
Q 435 475 , 443 471 
Q 450 467 , 463 467 
Q 469 467 , 474 468 
Q 479 468 , 484 469 
L 484 473 
Q 477 472 , 473 471 
Q 469 471 , 464 471 
Q 454 471 , 448 473 
Q 443 476 , 443 482 
Q 443 488 , 448 491 
Q 454 493 , 464 493 
Q 469 493 , 472 493 
Q 476 493 , 477 492 
" fill="lightgray" />
<path d="
M 590 550 
L 590 551 
Q 575 551 , 567 551 
Q 559 550 , 549 550 
Q 528 550 , 518 551 
Q 506 551 , 506 552 
Q 506 553 , 518 553 
Q 528 554 , 549 554 
Q 559 554 , 567 554 
Q 575 554 , 590 553 
L 590 554 
Q 579 554 , 569 554 
Q 559 554 , 548 554 
Q 521 554 , 506 554 
Q 490 553 , 490 552 
Q 490 551 , 506 551 
Q 521 550 , 548 550 
Q 559 550 , 569 550 
Q 580 550 , 590 550 
" fill="#545FFF" />
<path d="
M 540 544 
L 522 547 
L 556 547 
L 540 544 
M 533 543 
L 547 543 
L 590 549 
L 574 549 
L 562 547 
L 518 547 
L 505 549 
L 490 549 
L 533 543 
" fill="#339541" />
<path d="
M 574 538 
L 574 529 
L 545 529 
L 545 526 
L 590 526 
L 590 540 
Q 579 541 , 568 542 
Q 559 542 , 547 542 
Q 521 542 , 505 538 
Q 490 534 , 490 527 
Q 490 519 , 505 515 
Q 521 511 , 547 511 
Q 558 511 , 567 512 
Q 577 512 , 587 514 
L 587 517 
Q 574 516 , 566 515 
Q 557 515 , 548 515 
Q 527 515 , 516 518 
Q 506 521 , 506 527 
Q 506 533 , 516 536 
Q 527 539 , 548 539 
Q 557 539 , 564 538 
Q 571 538 , 574 538 
" fill="#F5C000" />
<path d="
M 490 347 
L 508 347 
L 508 443 
Q 508 470 , 516 481 
Q 523 492 , 540 492 
Q 557 492 , 565 481 
Q 572 470 , 572 443 
L 572 347 
L 590 347 
L 590 446 
Q 590 477 , 577 493 
Q 565 510 , 540 510 
Q 516 510 , 503 493 
Q 490 477 , 490 446 
L 490 347 
" fill="#D21010" />
<path d="
M 645 552 
L 627 554 
L 661 554 
L 645 552 
M 638 552 
L 652 552 
L 695 555 
L 679 555 
L 667 554 
L 623 554 
L 610 555 
L 595 555 
L 638 552 
" fill="#339541" />
<path d="
M 695 539 
L 695 541 
Q 680 539 , 672 539 
Q 664 539 , 654 539 
Q 633 539 , 623 540 
Q 611 541 , 611 544 
Q 611 547 , 623 548 
Q 633 550 , 654 550 
Q 664 550 , 672 549 
Q 680 549 , 695 547 
L 695 550 
Q 684 550 , 674 551 
Q 664 551 , 653 551 
Q 626 551 , 611 549 
Q 595 547 , 595 544 
Q 595 541 , 611 539 
Q 626 537 , 653 537 
Q 664 537 , 674 537 
Q 685 538 , 695 539 
" fill="#545FFF" />
<path d="
M 595 517 
L 613 517 
L 613 528 
Q 613 532 , 621 533 
Q 628 534 , 645 534 
Q 662 534 , 670 533 
Q 677 532 , 677 528 
L 677 517 
L 695 517 
L 695 529 
Q 695 532 , 682 534 
Q 670 536 , 645 536 
Q 621 536 , 608 534 
Q 595 532 , 595 529 
L 595 517 
" fill="#D21010" />
<path d="
M 679 490 
L 679 440 
L 650 440 
L 650 419 
L 695 419 
L 695 503 
Q 684 511 , 673 514 
Q 664 517 , 652 517 
Q 626 517 , 610 492 
Q 595 467 , 595 424 
Q 595 380 , 610 355 
Q 626 330 , 652 330 
Q 663 330 , 672 333 
Q 682 337 , 692 345 
L 692 369 
Q 679 358 , 671 355 
Q 662 352 , 653 352 
Q 632 352 , 621 370 
Q 611 387 , 611 424 
Q 611 460 , 621 478 
Q 632 496 , 653 496 
Q 662 496 , 669 494 
Q 676 492 , 679 490 
" fill="#F5C000" />
<path d="
M 750 553 
L 732 554 
L 766 554 
L 750 553 
M 743 553 
L 757 553 
L 800 554 
L 784 554 
L 772 554 
L 728 554 
L 715 554 
L 700 554 
L 743 553 
" fill="#339541" />
<path d="
M 800 551 
L 800 551 
Q 785 551 , 777 551 
Q 769 551 , 759 551 
Q 738 551 , 728 551 
Q 716 551 , 716 551 
Q 716 552 , 728 552 
Q 738 552 , 759 552 
Q 769 552 , 777 552 
Q 785 552 , 800 552 
L 800 552 
Q 789 552 , 779 552 
Q 769 552 , 758 552 
Q 731 552 , 716 552 
Q 700 552 , 700 552 
Q 700 551 , 716 551 
Q 731 551 , 758 551 
Q 769 551 , 779 551 
Q 790 551 , 800 551 
" fill="#545FFF" />
<path d="
M 700 548 
L 718 548 
L 718 549 
Q 718 550 , 726 550 
Q 733 550 , 750 550 
Q 767 550 , 775 550 
Q 782 550 , 782 549 
L 782 548 
L 800 548 
L 800 549 
Q 800 550 , 787 550 
Q 775 550 , 750 550 
Q 726 550 , 713 550 
Q 700 550 , 700 549 
L 700 548 
" fill="#D21010" />
<path d="
M 784 547 
L 784 546 
L 755 546 
L 755 546 
L 800 546 
L 800 547 
Q 789 547 , 778 547 
Q 769 547 , 757 547 
Q 731 547 , 715 547 
Q 700 547 , 700 546 
Q 700 546 , 715 545 
Q 731 545 , 757 545 
Q 768 545 , 777 545 
Q 787 545 , 797 545 
L 797 545 
Q 784 545 , 776 545 
Q 767 545 , 758 545 
Q 737 545 , 726 546 
Q 716 546 , 716 546 
Q 716 547 , 726 547 
Q 737 547 , 758 547 
Q 767 547 , 774 547 
Q 781 547 , 784 547 
" fill="#F5C000" />
<path d="
M 905 552 
L 905 553 
Q 890 552 , 882 552 
Q 874 552 , 864 552 
Q 843 552 , 833 553 
Q 821 553 , 821 553 
Q 821 554 , 833 554 
Q 843 555 , 864 555 
Q 874 555 , 882 555 
Q 890 554 , 905 554 
L 905 555 
Q 894 555 , 884 555 
Q 874 555 , 863 555 
Q 836 555 , 821 555 
Q 805 554 , 805 553 
Q 805 553 , 821 552 
Q 836 552 , 863 552 
Q 874 552 , 884 552 
Q 895 552 , 905 552 
" fill="#545FFF" />
<path d="
M 855 540 
L 837 546 
L 871 546 
L 855 540 
M 848 537 
L 862 537 
L 905 552 
L 889 552 
L 877 547 
L 833 547 
L 820 552 
L 805 552 
L 848 537 
" fill="#339541" />
<path d="
M 889 534 
L 889 527 
L 860 527 
L 860 525 
L 905 525 
L 905 535 
Q 894 536 , 883 537 
Q 874 537 , 862 537 
Q 836 537 , 820 534 
Q 805 531 , 805 525 
Q 805 520 , 820 517 
Q 836 514 , 862 514 
Q 873 514 , 882 514 
Q 892 515 , 902 516 
L 902 519 
Q 889 517 , 881 517 
Q 872 517 , 863 517 
Q 842 517 , 831 519 
Q 821 521 , 821 525 
Q 821 530 , 831 532 
Q 842 534 , 863 534 
Q 872 534 , 879 534 
Q 886 534 , 889 534 
" fill="#F5C000" />
<path d="
M 805 451 
L 823 451 
L 823 488 
Q 823 498 , 831 502 
Q 838 506 , 855 506 
Q 872 506 , 880 502 
Q 887 498 , 887 488 
L 887 451 
L 905 451 
L 905 489 
Q 905 501 , 892 507 
Q 880 513 , 855 513 
Q 831 513 , 818 507 
Q 805 501 , 805 489 
L 805 451 
" fill="#D21010" />
<path d="
M 952 554 
L 952 553 
L 938 553 
L 938 552 
L 960 552 
L 960 554 
Q 955 554 , 949 554 
Q 944 554 , 938 554 
Q 925 554 , 918 554 
Q 910 553 , 910 553 
Q 910 552 , 918 551 
Q 925 551 , 938 551 
Q 944 551 , 949 551 
Q 954 551 , 959 551 
L 959 552 
Q 952 551 , 948 551 
Q 944 551 , 939 551 
Q 929 551 , 923 552 
Q 918 552 , 918 553 
Q 918 553 , 923 553 
Q 929 554 , 939 554 
Q 944 554 , 947 554 
Q 951 554 , 952 554 
" fill="lightgray" />
<path d="
M 960 551 
L 969 551 
L 969 553 
Q 969 553 , 973 554 
Q 976 554 , 985 554 
Q 994 554 , 997 554 
Q 1001 553 , 1001 553 
L 1001 551 
L 1010 551 
L 1010 553 
Q 1010 553 , 1004 554 
Q 997 554 , 985 554 
Q 973 554 , 966 554 
Q 960 553 , 960 553 
L 960 551 
" fill="#D21010" />
<path d="
M 952 550 
L 952 548 
L 938 548 
L 938 548 
L 960 548 
L 960 550 
Q 955 550 , 949 550 
Q 944 550 , 938 550 
Q 925 550 , 918 550 
Q 910 549 , 910 548 
Q 910 546 , 918 546 
Q 925 545 , 938 545 
Q 944 545 , 949 545 
Q 954 545 , 959 545 
L 959 546 
Q 952 546 , 948 546 
Q 944 546 , 939 546 
Q 929 546 , 923 546 
Q 918 547 , 918 548 
Q 918 549 , 923 549 
Q 929 550 , 939 550 
Q 944 550 , 947 550 
Q 951 550 , 952 550 
" fill="lightgray" />
<path d="
M 1010 546 
L 1010 546 
Q 1003 546 , 999 546 
Q 994 546 , 989 546 
Q 979 546 , 974 546 
Q 968 547 , 968 548 
Q 968 549 , 974 549 
Q 979 550 , 989 550 
Q 994 550 , 999 550 
Q 1003 550 , 1010 549 
L 1010 550 
Q 1005 550 , 999 550 
Q 995 550 , 989 550 
Q 975 550 , 968 550 
Q 960 549 , 960 548 
Q 960 546 , 968 546 
Q 975 545 , 989 545 
Q 995 545 , 1000 545 
Q 1005 545 , 1010 546 
" fill="#545FFF" />
<path d="
M 910 537 
L 919 537 
L 919 541 
Q 919 542 , 923 543 
Q 926 543 , 935 543 
Q 944 543 , 947 543 
Q 951 542 , 951 541 
L 951 537 
L 960 537 
L 960 541 
Q 960 543 , 954 543 
Q 947 544 , 935 544 
Q 923 544 , 916 543 
Q 910 543 , 910 541 
L 910 537 
" fill="lightgray" />
<path d="
M 1002 543 
L 1002 541 
L 988 541 
L 988 540 
L 1010 540 
L 1010 544 
Q 1005 544 , 999 544 
Q 994 544 , 988 544 
Q 975 544 , 968 543 
Q 960 542 , 960 541 
Q 960 539 , 968 538 
Q 975 537 , 988 537 
Q 994 537 , 999 537 
Q 1004 537 , 1009 538 
L 1009 539 
Q 1002 538 , 998 538 
Q 994 538 , 989 538 
Q 979 538 , 973 539 
Q 968 539 , 968 541 
Q 968 542 , 973 543 
Q 979 543 , 989 543 
Q 994 543 , 997 543 
Q 1001 543 , 1002 543 
" fill="#F5C000" />
<path d="
M 935 529 
L 926 533 
L 943 533 
L 935 529 
M 931 527 
L 939 527 
L 960 537 
L 952 537 
L 946 534 
L 924 534 
L 917 537 
L 910 537 
L 931 527 
" fill="lightgray" />
<path d="
M 960 527 
L 969 527 
L 969 533 
Q 969 534 , 973 535 
Q 976 536 , 985 536 
Q 994 536 , 997 535 
Q 1001 534 , 1001 533 
L 1001 527 
L 1010 527 
L 1010 533 
Q 1010 535 , 1004 536 
Q 997 537 , 985 537 
Q 973 537 , 966 536 
Q 960 535 , 960 533 
L 960 527 
" fill="#D21010" />
<path d="
M 910 497 
L 919 497 
L 919 514 
Q 919 519 , 923 521 
Q 926 523 , 935 523 
Q 944 523 , 947 521 
Q 951 519 , 951 514 
L 951 497 
L 960 497 
L 960 515 
Q 960 521 , 954 524 
Q 947 527 , 935 527 
Q 923 527 , 916 524 
Q 910 521 , 910 515 
L 910 497 
" fill="lightgray" />
<path d="
M 985 502 
L 976 515 
L 993 515 
L 985 502 
M 981 497 
L 989 497 
L 1010 527 
L 1002 527 
L 996 518 
L 974 518 
L 967 527 
L 960 527 
L 981 497 
" fill="#339541" />
<path d="
M 960 470 
L 960 475 
Q 953 472 , 949 471 
Q 944 470 , 939 470 
Q 929 470 , 924 473 
Q 918 476 , 918 482 
Q 918 488 , 924 491 
Q 929 493 , 939 493 
Q 944 493 , 949 493 
Q 953 492 , 960 489 
L 960 494 
Q 955 495 , 949 496 
Q 945 497 , 939 497 
Q 925 497 , 918 493 
Q 910 489 , 910 482 
Q 910 475 , 918 471 
Q 925 467 , 939 467 
Q 945 467 , 950 468 
Q 955 468 , 960 470 
" fill="lightgray" />
<path d="
M 1002 492 
L 1002 484 
L 988 484 
L 988 481 
L 1010 481 
L 1010 494 
Q 1005 496 , 999 496 
Q 994 497 , 988 497 
Q 975 497 , 968 493 
Q 960 489 , 960 482 
Q 960 475 , 968 471 
Q 975 467 , 988 467 
Q 994 467 , 999 468 
Q 1004 468 , 1009 469 
L 1009 473 
Q 1002 472 , 998 471 
Q 994 471 , 989 471 
Q 979 471 , 973 473 
Q 968 476 , 968 482 
Q 968 488 , 973 491 
Q 979 493 , 989 493 
Q 994 493 , 997 493 
Q 1001 493 , 1002 492 
" fill="#F5C000" />
<path d="
M 1065 551 
L 1047 552 
L 1081 552 
L 1065 551 
M 1058 550 
L 1072 550 
L 1115 554 
L 1099 554 
L 1087 553 
L 1043 553 
L 1030 554 
L 1015 554 
L 1058 550 
" fill="#339541" />
<path d="
M 1115 545 
L 1115 546 
Q 1100 545 , 1092 545 
Q 1084 545 , 1074 545 
Q 1053 545 , 1043 545 
Q 1031 546 , 1031 547 
Q 1031 548 , 1043 549 
Q 1053 549 , 1074 549 
Q 1084 549 , 1092 549 
Q 1100 549 , 1115 548 
L 1115 549 
Q 1104 550 , 1094 550 
Q 1084 550 , 1073 550 
Q 1046 550 , 1031 549 
Q 1015 548 , 1015 547 
Q 1015 546 , 1031 545 
Q 1046 544 , 1073 544 
Q 1084 544 , 1094 544 
Q 1105 544 , 1115 545 
" fill="#545FFF" />
<path d="
M 1015 507 
L 1033 507 
L 1033 529 
Q 1033 535 , 1041 537 
Q 1048 540 , 1065 540 
Q 1082 540 , 1090 537 
Q 1097 535 , 1097 529 
L 1097 507 
L 1115 507 
L 1115 529 
Q 1115 536 , 1102 540 
Q 1090 544 , 1065 544 
Q 1041 544 , 1028 540 
Q 1015 536 , 1015 529 
L 1015 507 
" fill="#D21010" />
<path d="
M 1099 488 
L 1099 453 
L 1070 453 
L 1070 438 
L 1115 438 
L 1115 497 
Q 1104 502 , 1093 504 
Q 1084 506 , 1072 507 
Q 1046 507 , 1030 489 
Q 1015 472 , 1015 441 
Q 1015 411 , 1030 394 
Q 1046 376 , 1072 376 
Q 1083 376 , 1092 378 
Q 1102 381 , 1112 387 
L 1112 403 
Q 1099 396 , 1091 394 
Q 1082 392 , 1073 392 
Q 1052 392 , 1041 404 
Q 1031 416 , 1031 441 
Q 1031 467 , 1041 480 
Q 1052 492 , 1073 492 
Q 1082 492 , 1089 491 
Q 1096 490 , 1099 488 
" fill="#F5C000" />
<path d="
M 1162 554 
L 1162 554 
L 1148 554 
L 1148 554 
L 1170 554 
L 1170 555 
Q 1165 555 , 1159 555 
Q 1154 555 , 1148 555 
Q 1135 555 , 1128 554 
Q 1120 554 , 1120 554 
Q 1120 553 , 1128 553 
Q 1135 553 , 1148 553 
Q 1154 553 , 1159 553 
Q 1164 553 , 1169 553 
L 1169 553 
Q 1162 553 , 1158 553 
Q 1154 553 , 1149 553 
Q 1139 553 , 1133 553 
Q 1128 554 , 1128 554 
Q 1128 554 , 1133 554 
Q 1139 554 , 1149 554 
Q 1154 554 , 1157 554 
Q 1161 554 , 1162 554 
" fill="lightgray" />
<path d="
M 1170 553 
L 1179 553 
L 1179 554 
Q 1179 554 , 1183 554 
Q 1186 554 , 1195 554 
Q 1204 554 , 1207 554 
Q 1211 554 , 1211 554 
L 1211 553 
L 1220 553 
L 1220 554 
Q 1220 554 , 1214 554 
Q 1207 555 , 1195 555 
Q 1183 555 , 1176 554 
Q 1170 554 , 1170 554 
L 1170 553 
" fill="#D21010" />
<path d="
M 1120 550 
L 1129 550 
L 1129 551 
Q 1129 552 , 1133 552 
Q 1136 552 , 1145 552 
Q 1154 552 , 1157 552 
Q 1161 552 , 1161 551 
L 1161 550 
L 1170 550 
L 1170 551 
Q 1170 552 , 1164 552 
Q 1157 552 , 1145 552 
Q 1133 552 , 1126 552 
Q 1120 552 , 1120 551 
L 1120 550 
" fill="lightgray" />
<path d="
M 1212 552 
L 1212 551 
L 1198 551 
L 1198 551 
L 1220 551 
L 1220 552 
Q 1215 552 , 1209 552 
Q 1204 552 , 1198 552 
Q 1185 552 , 1178 552 
Q 1170 552 , 1170 551 
Q 1170 551 , 1178 550 
Q 1185 550 , 1198 550 
Q 1204 550 , 1209 550 
Q 1214 550 , 1219 550 
L 1219 550 
Q 1212 550 , 1208 550 
Q 1204 550 , 1199 550 
Q 1189 550 , 1183 550 
Q 1178 551 , 1178 551 
Q 1178 551 , 1183 552 
Q 1189 552 , 1199 552 
Q 1204 552 , 1207 552 
Q 1211 552 , 1212 552 
" fill="#F5C000" />
<path d="
M 1170 547 
L 1170 548 
Q 1163 547 , 1159 547 
Q 1154 547 , 1149 547 
Q 1139 547 , 1134 547 
Q 1128 548 , 1128 548 
Q 1128 549 , 1134 549 
Q 1139 549 , 1149 549 
Q 1154 549 , 1159 549 
Q 1163 549 , 1170 549 
L 1170 549 
Q 1165 549 , 1159 549 
Q 1155 549 , 1149 549 
Q 1135 549 , 1128 549 
Q 1120 549 , 1120 548 
Q 1120 548 , 1128 547 
Q 1135 547 , 1149 547 
Q 1155 547 , 1160 547 
Q 1165 547 , 1170 547 
" fill="lightgray" />
<path d="
M 1212 549 
L 1212 548 
L 1198 548 
L 1198 548 
L 1220 548 
L 1220 549 
Q 1215 549 , 1209 549 
Q 1204 549 , 1198 549 
Q 1185 549 , 1178 549 
Q 1170 549 , 1170 548 
Q 1170 548 , 1178 547 
Q 1185 547 , 1198 547 
Q 1204 547 , 1209 547 
Q 1214 547 , 1219 547 
L 1219 547 
Q 1212 547 , 1208 547 
Q 1204 547 , 1199 547 
Q 1189 547 , 1183 547 
Q 1178 548 , 1178 548 
Q 1178 549 , 1183 549 
Q 1189 549 , 1199 549 
Q 1204 549 , 1207 549 
Q 1211 549 , 1212 549 
" fill="#F5C000" />
<path d="
M 1162 546 
L 1162 545 
L 1148 545 
L 1148 545 
L 1170 545 
L 1170 546 
Q 1165 546 , 1159 546 
Q 1154 547 , 1148 547 
Q 1135 547 , 1128 546 
Q 1120 546 , 1120 545 
Q 1120 544 , 1128 543 
Q 1135 543 , 1148 543 
Q 1154 543 , 1159 543 
Q 1164 543 , 1169 543 
L 1169 544 
Q 1162 544 , 1158 543 
Q 1154 543 , 1149 543 
Q 1139 543 , 1133 544 
Q 1128 544 , 1128 545 
Q 1128 545 , 1133 546 
Q 1139 546 , 1149 546 
Q 1154 546 , 1157 546 
Q 1161 546 , 1162 546 
" fill="lightgray" />
<path d="
M 1220 543 
L 1220 544 
Q 1213 544 , 1209 543 
Q 1204 543 , 1199 543 
Q 1189 543 , 1184 544 
Q 1178 544 , 1178 544 
Q 1178 545 , 1184 546 
Q 1189 546 , 1199 546 
Q 1204 546 , 1209 546 
Q 1213 546 , 1220 546 
L 1220 546 
Q 1215 546 , 1209 546 
Q 1205 547 , 1199 547 
Q 1185 547 , 1178 546 
Q 1170 546 , 1170 545 
Q 1170 544 , 1178 543 
Q 1185 543 , 1199 543 
Q 1205 543 , 1210 543 
Q 1215 543 , 1220 543 
" fill="#545FFF" />
<path d="
M 1120 539 
L 1129 539 
L 1129 541 
Q 1129 542 , 1133 542 
Q 1136 542 , 1145 542 
Q 1154 542 , 1157 542 
Q 1161 542 , 1161 541 
L 1161 539 
L 1170 539 
L 1170 541 
Q 1170 542 , 1164 542 
Q 1157 543 , 1145 543 
Q 1133 543 , 1126 542 
Q 1120 542 , 1120 541 
L 1120 539 
" fill="lightgray" />
<path d="
M 1195 540 
L 1186 541 
L 1203 541 
L 1195 540 
M 1191 539 
L 1199 539 
L 1220 543 
L 1212 543 
L 1206 542 
L 1184 542 
L 1177 543 
L 1170 543 
L 1191 539 
" fill="#339541" />
<path d="
M 1145 535 
L 1136 537 
L 1153 537 
L 1145 535 
M 1141 534 
L 1149 534 
L 1170 539 
L 1162 539 
L 1156 537 
L 1134 537 
L 1127 539 
L 1120 539 
L 1141 534 
" fill="lightgray" />
<path d="
M 1170 534 
L 1179 534 
L 1179 537 
Q 1179 537 , 1183 538 
Q 1186 538 , 1195 538 
Q 1204 538 , 1207 538 
Q 1211 537 , 1211 537 
L 1211 534 
L 1220 534 
L 1220 537 
Q 1220 538 , 1214 538 
Q 1207 539 , 1195 539 
Q 1183 539 , 1176 538 
Q 1170 538 , 1170 537 
L 1170 534 
" fill="#D21010" />
<path d="
M 1325 551 
L 1325 551 
Q 1310 551 , 1302 551 
Q 1294 551 , 1284 551 
Q 1263 551 , 1253 551 
Q 1241 551 , 1241 552 
Q 1241 553 , 1253 554 
Q 1263 554 , 1284 554 
Q 1294 554 , 1302 554 
Q 1310 554 , 1325 554 
L 1325 554 
Q 1314 555 , 1304 555 
Q 1294 555 , 1283 555 
Q 1256 555 , 1241 554 
Q 1225 554 , 1225 552 
Q 1225 551 , 1241 551 
Q 1256 550 , 1283 550 
Q 1294 550 , 1304 550 
Q 1315 550 , 1325 551 
" fill="#545FFF" />
<path d="
M 1275 544 
L 1257 547 
L 1291 547 
L 1275 544 
M 1268 543 
L 1282 543 
L 1325 549 
L 1309 549 
L 1297 547 
L 1253 547 
L 1240 549 
L 1225 549 
L 1268 543 
" fill="#339541" />
<path d="
M 1309 539 
L 1309 534 
L 1280 534 
L 1280 532 
L 1325 532 
L 1325 541 
Q 1314 541 , 1303 542 
Q 1294 542 , 1282 542 
Q 1256 542 , 1240 539 
Q 1225 537 , 1225 532 
Q 1225 527 , 1240 525 
Q 1256 522 , 1282 522 
Q 1293 522 , 1302 522 
Q 1312 523 , 1322 524 
L 1322 526 
Q 1309 525 , 1301 525 
Q 1292 524 , 1283 524 
Q 1262 524 , 1251 526 
Q 1241 528 , 1241 532 
Q 1241 536 , 1251 538 
Q 1262 540 , 1283 540 
Q 1292 540 , 1299 540 
Q 1306 540 , 1309 539 
" fill="#F5C000" />
<path d="
M 1225 499 
L 1243 499 
L 1243 512 
Q 1243 516 , 1251 518 
Q 1258 519 , 1275 519 
Q 1292 519 , 1300 518 
Q 1307 516 , 1307 512 
L 1307 499 
L 1325 499 
L 1325 513 
Q 1325 517 , 1312 519 
Q 1300 522 , 1275 522 
Q 1251 522 , 1238 519 
Q 1225 517 , 1225 513 
L 1225 499 
" fill="#D21010" />
<path d="
M 1380 553 
L 1362 554 
L 1396 554 
L 1380 553 
M 1373 553 
L 1387 553 
L 1430 554 
L 1414 554 
L 1402 554 
L 1358 554 
L 1345 554 
L 1330 554 
L 1373 553 
" fill="#339541" />
<path d="
M 1430 551 
L 1430 551 
Q 1415 551 , 1407 551 
Q 1399 551 , 1389 551 
Q 1368 551 , 1358 551 
Q 1346 551 , 1346 551 
Q 1346 552 , 1358 552 
Q 1368 552 , 1389 552 
Q 1399 552 , 1407 552 
Q 1415 552 , 1430 552 
L 1430 552 
Q 1419 552 , 1409 552 
Q 1399 552 , 1388 552 
Q 1361 552 , 1346 552 
Q 1330 552 , 1330 552 
Q 1330 551 , 1346 551 
Q 1361 551 , 1388 551 
Q 1399 551 , 1409 551 
Q 1420 551 , 1430 551 
" fill="#545FFF" />
<path d="
M 1330 548 
L 1348 548 
L 1348 549 
Q 1348 550 , 1356 550 
Q 1363 550 , 1380 550 
Q 1397 550 , 1405 550 
Q 1412 550 , 1412 549 
L 1412 548 
L 1430 548 
L 1430 549 
Q 1430 550 , 1417 550 
Q 1405 550 , 1380 550 
Q 1356 550 , 1343 550 
Q 1330 550 , 1330 549 
L 1330 548 
" fill="#D21010" />
<path d="
M 1414 547 
L 1414 546 
L 1385 546 
L 1385 546 
L 1430 546 
L 1430 547 
Q 1419 547 , 1408 547 
Q 1399 547 , 1387 547 
Q 1361 547 , 1345 547 
Q 1330 547 , 1330 546 
Q 1330 546 , 1345 545 
Q 1361 545 , 1387 545 
Q 1398 545 , 1407 545 
Q 1417 545 , 1427 545 
L 1427 545 
Q 1414 545 , 1406 545 
Q 1397 545 , 1388 545 
Q 1367 545 , 1356 546 
Q 1346 546 , 1346 546 
Q 1346 547 , 1356 547 
Q 1367 547 , 1388 547 
Q 1397 547 , 1404 547 
Q 1411 547 , 1414 547 
" fill="#F5C000" />
<path d="M 65 168 L 65 555 " stroke="black" stroke-width="1.5"/>
<path d="M 55 555 L 65 555 " stroke="black" stroke-width="4"/>
<text text-anchor="end" x="50" y="555" font-size="50" alignment-baseline="middle">0</text>
<path d="M 55 362 L 65 362 " stroke="black" stroke-width="4"/>
<text text-anchor="end" x="50" y="362" font-size="50" alignment-baseline="middle">1</text>
<path d="M 55 168 L 65 168 " stroke="black" stroke-width="4"/>
<text text-anchor="end" x="50" y="168" font-size="50" alignment-baseline="middle">2</text>
<text text-anchor="middle" x="750" y="50" font-size="50" alignment-baseline="baseline"></text>
G<path d="
M 160 582 
L 126 595 
L 160 608 
L 157 611 
L 123 598 
L 123 623 
L 117 623 
L 117 599 
L 83 611 
L 80 608 
L 114 595 
L 80 582 
L 83 579 
L 117 591 
L 117 567 
L 123 567 
L 123 591 
L 157 579 
L 160 582 
" fill="black" />
<path d="
M 265 567 
Q 236 574 , 223 581 
Q 210 588 , 210 595 
Q 210 602 , 223 609 
Q 236 616 , 265 623 
L 241 623 
Q 213 616 , 199 609 
Q 185 602 , 185 595 
Q 185 588 , 199 581 
Q 213 574 , 241 567 
L 265 567 
" fill="black" />
<path d="
" fill="black" />
<path d="
M 316 567 
L 343 567 
L 343 623 
L 316 623 
L 316 567 
" fill="black" />
<path d="
" fill="black" />
<path d="
M 475 567 
Q 446 574 , 433 581 
Q 420 588 , 420 595 
Q 420 602 , 433 609 
Q 446 616 , 475 623 
L 451 623 
Q 423 616 , 409 609 
Q 395 602 , 395 595 
Q 395 588 , 409 581 
Q 423 574 , 451 567 
L 475 567 
" fill="black" />
<path d="
" fill="black" />
<path d="
M 526 567 
L 553 567 
L 553 623 
L 526 623 
L 526 567 
" fill="black" />
<path d="
" fill="black" />
<path d="
" fill="black" />
<path d="
M 617 567 
L 633 567 
L 633 623 
L 617 623 
L 617 567 
" fill="black" />
<path d="
" fill="black" />
<path d="
M 659 619 
L 665 619 
L 665 572 
L 657 578 
L 657 573 
L 665 567 
L 667 567 
L 667 619 
L 673 619 
L 673 623 
L 659 623 
L 659 619 
" fill="black" />
<path d="
M 685 571 
Q 682 571 , 681 577 
Q 679 583 , 679 595 
Q 679 607 , 681 613 
Q 682 619 , 685 619 
Q 688 619 , 689 613 
Q 691 607 , 691 595 
Q 691 583 , 689 577 
Q 688 571 , 685 571 
M 685 567 
Q 689 567 , 691 573 
Q 693 580 , 693 595 
Q 693 610 , 691 617 
Q 689 623 , 685 623 
Q 681 623 , 679 617 
Q 677 610 , 677 595 
Q 677 580 , 679 573 
Q 681 567 , 685 567 
" fill="black" />
<path d="
M 790 582 
L 756 595 
L 790 608 
L 787 611 
L 753 598 
L 753 623 
L 747 623 
L 747 599 
L 713 611 
L 710 608 
L 744 595 
L 710 582 
L 713 579 
L 747 591 
L 747 567 
L 753 567 
L 753 591 
L 787 579 
L 790 582 
" fill="black" />
<path d="
" fill="black" />
<path d="
M 841 567 
L 868 567 
L 868 623 
L 841 623 
L 841 567 
" fill="black" />
<path d="
" fill="black" />
<path d="
M 920 567 
L 944 567 
Q 972 574 , 986 581 
Q 1000 588 , 1000 595 
Q 1000 602 , 986 609 
Q 972 616 , 944 623 
L 920 623 
Q 949 616 , 962 609 
Q 975 602 , 975 595 
Q 975 588 , 962 581 
Q 949 574 , 920 567 
" fill="black" />
<path d="
" fill="black" />
<path d="
M 1051 567 
L 1078 567 
L 1078 623 
L 1051 623 
L 1051 567 
" fill="black" />
<path d="
" fill="black" />
<path d="
M 1130 567 
L 1154 567 
Q 1182 574 , 1196 581 
Q 1210 588 , 1210 595 
Q 1210 602 , 1196 609 
Q 1182 616 , 1154 623 
L 1130 623 
Q 1159 616 , 1172 609 
Q 1185 602 , 1185 595 
Q 1185 588 , 1172 581 
Q 1159 574 , 1130 567 
" fill="black" />
<path d="
" fill="black" />
<path d="
M 1261 567 
L 1288 567 
L 1288 623 
L 1261 623 
L 1261 567 
" fill="black" />
<path d="
" fill="black" />
<path d="
M 1420 582 
L 1386 595 
L 1420 608 
L 1417 611 
L 1383 598 
L 1383 623 
L 1377 623 
L 1377 599 
L 1343 611 
L 1340 608 
L 1374 595 
L 1340 582 
L 1343 579 
L 1377 591 
L 1377 567 
L 1383 567 
L 1383 591 
L 1417 579 
L 1420 582 
" fill="black" />
</svg>
