<svg xmlns="http://www.w3.org/2000/svg"
viewBox="0 0 1330 635">
<path d="
M 120 553 
L 102 554 
L 136 554 
L 120 553 
M 113 553 
L 127 553 
L 170 555 
L 154 555 
L 142 554 
L 98 554 
L 85 555 
L 70 555 
L 113 553 
" fill="#339541" />
<path d="
M 170 551 
L 170 551 
Q 155 551 , 147 551 
Q 139 551 , 129 551 
Q 108 551 , 98 551 
Q 86 552 , 86 552 
Q 86 552 , 98 552 
Q 108 553 , 129 553 
Q 139 553 , 147 553 
Q 155 553 , 170 552 
L 170 553 
Q 159 553 , 149 553 
Q 139 553 , 128 553 
Q 101 553 , 86 553 
Q 70 552 , 70 552 
Q 70 552 , 86 551 
Q 101 551 , 128 551 
Q 139 551 , 149 551 
Q 160 551 , 170 551 
" fill="#545FFF" />
<path d="
M 70 548 
L 88 548 
L 88 550 
Q 88 550 , 96 550 
Q 103 551 , 120 551 
Q 137 551 , 145 550 
Q 152 550 , 152 550 
L 152 548 
L 170 548 
L 170 550 
Q 170 550 , 157 551 
Q 145 551 , 120 551 
Q 96 551 , 83 551 
Q 70 550 , 70 550 
L 70 548 
" fill="#D21010" />
<path d="
M 154 547 
L 154 547 
L 125 547 
L 125 546 
L 170 546 
L 170 548 
Q 159 548 , 148 548 
Q 139 548 , 127 548 
Q 101 548 , 85 548 
Q 70 547 , 70 546 
Q 70 546 , 85 545 
Q 101 545 , 127 545 
Q 138 545 , 147 545 
Q 157 545 , 167 545 
L 167 546 
Q 154 545 , 146 545 
Q 137 545 , 128 545 
Q 107 545 , 96 546 
Q 86 546 , 86 546 
Q 86 547 , 96 547 
Q 107 548 , 128 548 
Q 137 548 , 144 548 
Q 151 548 , 154 547 
" fill="#F5C000" />
<path d="
M 225 552 
L 207 553 
L 241 553 
L 225 552 
M 218 551 
L 232 551 
L 275 554 
L 259 554 
L 247 553 
L 203 553 
L 190 554 
L 175 554 
L 218 551 
" fill="#339541" />
<path d="
M 275 539 
L 275 541 
Q 260 540 , 252 540 
Q 244 539 , 234 539 
Q 213 539 , 203 541 
Q 191 542 , 191 544 
Q 191 546 , 203 548 
Q 213 549 , 234 549 
Q 244 549 , 252 549 
Q 260 548 , 275 547 
L 275 549 
Q 264 550 , 254 550 
Q 244 550 , 233 550 
Q 206 550 , 191 549 
Q 175 547 , 175 544 
Q 175 541 , 191 540 
Q 206 538 , 233 538 
Q 244 538 , 254 538 
Q 265 539 , 275 539 
" fill="#545FFF" />
<path d="
M 259 530 
L 259 516 
L 230 516 
L 230 510 
L 275 510 
L 275 533 
Q 264 536 , 253 537 
Q 244 537 , 232 538 
Q 206 538 , 190 530 
Q 175 524 , 175 511 
Q 175 499 , 190 492 
Q 206 485 , 232 485 
Q 243 485 , 252 486 
Q 262 487 , 272 489 
L 272 496 
Q 259 493 , 251 492 
Q 242 491 , 233 491 
Q 212 491 , 201 496 
Q 191 501 , 191 511 
Q 191 522 , 201 527 
Q 212 532 , 233 532 
Q 242 532 , 249 531 
Q 256 531 , 259 530 
" fill="#F5C000" />
<path d="
M 175 426 
L 193 426 
L 193 461 
Q 193 470 , 201 474 
Q 208 478 , 225 478 
Q 242 478 , 250 474 
Q 257 470 , 257 461 
L 257 426 
L 275 426 
L 275 461 
Q 275 473 , 262 479 
Q 250 484 , 225 484 
Q 201 484 , 188 479 
Q 175 473 , 175 461 
L 175 426 
" fill="#D21010" />
<path d="
M 380 548 
L 380 549 
Q 365 548 , 357 548 
Q 349 548 , 339 548 
Q 318 548 , 308 548 
Q 296 549 , 296 550 
Q 296 552 , 308 553 
Q 318 553 , 339 553 
Q 349 553 , 357 553 
Q 365 553 , 380 552 
L 380 553 
Q 369 554 , 359 554 
Q 349 554 , 338 554 
Q 311 554 , 296 553 
Q 280 552 , 280 551 
Q 280 549 , 296 548 
Q 311 547 , 338 547 
Q 349 547 , 359 547 
Q 370 547 , 380 548 
" fill="#545FFF" />
<path d="
M 364 545 
L 364 542 
L 335 542 
L 335 541 
L 380 541 
L 380 546 
Q 369 546 , 358 546 
Q 349 546 , 337 546 
Q 311 546 , 295 545 
Q 280 544 , 280 542 
Q 280 539 , 295 538 
Q 311 537 , 337 537 
Q 348 537 , 357 537 
Q 367 537 , 377 538 
L 377 539 
Q 364 538 , 356 538 
Q 347 538 , 338 538 
Q 317 538 , 306 539 
Q 296 540 , 296 542 
Q 296 543 , 306 544 
Q 317 545 , 338 545 
Q 347 545 , 354 545 
Q 361 545 , 364 545 
" fill="#F5C000" />
<path d="
M 330 527 
L 312 532 
L 346 532 
L 330 527 
M 323 525 
L 337 525 
L 380 537 
L 364 537 
L 352 533 
L 308 533 
L 295 537 
L 280 537 
L 323 525 
" fill="#339541" />
<path d="
M 280 496 
L 298 496 
L 298 513 
Q 298 517 , 306 519 
Q 313 521 , 330 521 
Q 347 521 , 355 519 
Q 362 517 , 362 513 
L 362 496 
L 380 496 
L 380 513 
Q 380 519 , 367 522 
Q 355 524 , 330 524 
Q 306 524 , 293 522 
Q 280 519 , 280 513 
L 280 496 
" fill="#D21010" />
<path d="
M 435 552 
L 417 553 
L 451 553 
L 435 552 
M 428 551 
L 442 551 
L 485 554 
L 469 554 
L 457 553 
L 413 553 
L 400 554 
L 385 554 
L 428 551 
" fill="#339541" />
<path d="
M 485 545 
L 485 546 
Q 470 545 , 462 545 
Q 454 545 , 444 545 
Q 423 545 , 413 545 
Q 401 546 , 401 547 
Q 401 548 , 413 549 
Q 423 550 , 444 550 
Q 454 550 , 462 550 
Q 470 549 , 485 549 
L 485 550 
Q 474 550 , 464 550 
Q 454 550 , 443 550 
Q 416 550 , 401 550 
Q 385 549 , 385 547 
Q 385 546 , 401 545 
Q 416 544 , 443 544 
Q 454 544 , 464 544 
Q 475 544 , 485 545 
" fill="#545FFF" />
<path d="
M 385 478 
L 403 478 
L 403 517 
Q 403 528 , 411 532 
Q 418 536 , 435 536 
Q 452 536 , 460 532 
Q 467 528 , 467 517 
L 467 478 
L 485 478 
L 485 518 
Q 485 530 , 472 537 
Q 460 544 , 435 544 
Q 411 544 , 398 537 
Q 385 530 , 385 518 
L 385 478 
" fill="#D21010" />
<path d="
M 469 462 
L 469 431 
L 440 431 
L 440 418 
L 485 418 
L 485 469 
Q 474 474 , 463 476 
Q 454 478 , 442 478 
Q 416 478 , 400 463 
Q 385 448 , 385 421 
Q 385 394 , 400 379 
Q 416 364 , 442 364 
Q 453 364 , 462 366 
Q 472 368 , 482 373 
L 482 388 
Q 469 381 , 461 379 
Q 452 378 , 443 378 
Q 422 378 , 411 388 
Q 401 399 , 401 421 
Q 401 443 , 411 454 
Q 422 465 , 443 465 
Q 452 465 , 459 464 
Q 466 463 , 469 462 
" fill="#F5C000" />
<path d="
M 540 553 
L 522 554 
L 556 554 
L 540 553 
M 533 552 
L 547 552 
L 590 555 
L 574 555 
L 562 554 
L 518 554 
L 505 555 
L 490 555 
L 533 552 
" fill="#339541" />
<path d="
M 590 543 
L 590 544 
Q 575 543 , 567 543 
Q 559 543 , 549 543 
Q 528 543 , 518 544 
Q 506 545 , 506 546 
Q 506 548 , 518 549 
Q 528 550 , 549 550 
Q 559 550 , 567 550 
Q 575 550 , 590 549 
L 590 550 
Q 579 551 , 569 551 
Q 559 551 , 548 551 
Q 521 551 , 506 550 
Q 490 549 , 490 547 
Q 490 545 , 506 543 
Q 521 542 , 548 542 
Q 559 542 , 569 542 
Q 580 542 , 590 543 
" fill="#545FFF" />
<path d="
M 490 487 
L 508 487 
L 508 519 
Q 508 528 , 516 532 
Q 523 535 , 540 535 
Q 557 535 , 565 532 
Q 572 528 , 572 519 
L 572 487 
L 590 487 
L 590 520 
Q 590 530 , 577 536 
Q 565 541 , 540 541 
Q 516 541 , 503 536 
Q 490 530 , 490 520 
L 490 487 
" fill="#D21010" />
<path d="
M 574 466 
L 574 428 
L 545 428 
L 545 413 
L 590 413 
L 590 476 
Q 579 482 , 568 484 
Q 559 487 , 547 487 
Q 521 487 , 505 468 
Q 490 449 , 490 416 
Q 490 383 , 505 364 
Q 521 345 , 547 345 
Q 558 345 , 567 347 
Q 577 350 , 587 356 
L 587 375 
Q 574 367 , 566 364 
Q 557 362 , 548 362 
Q 527 362 , 516 375 
Q 506 389 , 506 416 
Q 506 444 , 516 458 
Q 527 471 , 548 471 
Q 557 471 , 564 470 
Q 571 468 , 574 466 
" fill="#F5C000" />
<path d="
M 645 550 
L 627 552 
L 661 552 
L 645 550 
M 638 549 
L 652 549 
L 695 555 
L 679 555 
L 667 553 
L 623 553 
L 610 555 
L 595 555 
L 638 549 
" fill="#339541" />
<path d="
M 695 536 
L 695 538 
Q 680 537 , 672 537 
Q 664 536 , 654 536 
Q 633 536 , 623 538 
Q 611 539 , 611 541 
Q 611 544 , 623 545 
Q 633 547 , 654 547 
Q 664 547 , 672 546 
Q 680 546 , 695 545 
L 695 547 
Q 684 548 , 674 548 
Q 664 548 , 653 548 
Q 626 548 , 611 546 
Q 595 545 , 595 542 
Q 595 539 , 611 537 
Q 626 535 , 653 535 
Q 664 535 , 674 535 
Q 685 536 , 695 536 
" fill="#545FFF" />
<path d="
M 679 531 
L 679 525 
L 650 525 
L 650 523 
L 695 523 
L 695 533 
Q 684 533 , 673 534 
Q 664 534 , 652 534 
Q 626 534 , 610 531 
Q 595 529 , 595 524 
Q 595 519 , 610 516 
Q 626 513 , 652 513 
Q 663 513 , 672 513 
Q 682 514 , 692 515 
L 692 517 
Q 679 516 , 671 516 
Q 662 516 , 653 516 
Q 632 516 , 621 517 
Q 611 519 , 611 524 
Q 611 528 , 621 530 
Q 632 532 , 653 532 
Q 662 532 , 669 532 
Q 676 531 , 679 531 
" fill="#F5C000" />
<path d="
M 595 468 
L 613 468 
L 613 494 
Q 613 502 , 621 505 
Q 628 508 , 645 508 
Q 662 508 , 670 505 
Q 677 502 , 677 494 
L 677 468 
L 695 468 
L 695 495 
Q 695 504 , 682 508 
Q 670 513 , 645 513 
Q 621 513 , 608 508 
Q 595 504 , 595 495 
L 595 468 
" fill="#D21010" />
<path d="
M 750 552 
L 732 553 
L 766 553 
L 750 552 
M 743 551 
L 757 551 
L 800 554 
L 784 554 
L 772 553 
L 728 553 
L 715 554 
L 700 554 
L 743 551 
" fill="#339541" />
<path d="
M 800 538 
L 800 540 
Q 785 538 , 777 538 
Q 769 538 , 759 538 
Q 738 538 , 728 539 
Q 716 540 , 716 543 
Q 716 546 , 728 548 
Q 738 549 , 759 549 
Q 769 549 , 777 549 
Q 785 548 , 800 547 
L 800 549 
Q 789 550 , 779 550 
Q 769 551 , 758 551 
Q 731 551 , 716 549 
Q 700 547 , 700 543 
Q 700 540 , 716 538 
Q 731 536 , 758 536 
Q 769 536 , 779 536 
Q 790 537 , 800 538 
" fill="#545FFF" />
<path d="
M 700 499 
L 718 499 
L 718 520 
Q 718 526 , 726 529 
Q 733 531 , 750 531 
Q 767 531 , 775 529 
Q 782 526 , 782 520 
L 782 499 
L 800 499 
L 800 521 
Q 800 528 , 787 531 
Q 775 535 , 750 535 
Q 726 535 , 713 531 
Q 700 528 , 700 521 
L 700 499 
" fill="#D21010" />
<path d="
M 784 490 
L 784 475 
L 755 475 
L 755 469 
L 800 469 
L 800 494 
Q 789 496 , 778 497 
Q 769 498 , 757 498 
Q 731 498 , 715 491 
Q 700 483 , 700 470 
Q 700 457 , 715 450 
Q 731 442 , 757 442 
Q 768 442 , 777 443 
Q 787 444 , 797 447 
L 797 454 
Q 784 451 , 776 450 
Q 767 449 , 758 449 
Q 737 449 , 726 454 
Q 716 459 , 716 470 
Q 716 481 , 726 487 
Q 737 492 , 758 492 
Q 767 492 , 774 492 
Q 781 491 , 784 490 
" fill="#F5C000" />
<path d="
M 855 552 
L 837 553 
L 871 553 
L 855 552 
M 848 552 
L 862 552 
L 905 554 
L 889 554 
L 877 554 
L 833 554 
L 820 554 
L 805 554 
L 848 552 
" fill="#339541" />
<path d="
M 905 535 
L 905 538 
Q 890 536 , 882 535 
Q 874 535 , 864 535 
Q 843 535 , 833 537 
Q 821 539 , 821 542 
Q 821 546 , 833 547 
Q 843 549 , 864 549 
Q 874 549 , 882 549 
Q 890 548 , 905 546 
L 905 549 
Q 894 550 , 884 551 
Q 874 551 , 863 551 
Q 836 551 , 821 549 
Q 805 546 , 805 542 
Q 805 538 , 821 535 
Q 836 533 , 863 533 
Q 874 533 , 884 533 
Q 895 534 , 905 535 
" fill="#545FFF" />
<path d="
M 889 529 
L 889 522 
L 860 522 
L 860 519 
L 905 519 
L 905 530 
Q 894 532 , 883 532 
Q 874 532 , 862 532 
Q 836 532 , 820 529 
Q 805 526 , 805 520 
Q 805 514 , 820 510 
Q 836 507 , 862 507 
Q 873 507 , 882 507 
Q 892 508 , 902 509 
L 902 512 
Q 889 511 , 881 510 
Q 872 510 , 863 510 
Q 842 510 , 831 512 
Q 821 515 , 821 520 
Q 821 525 , 831 527 
Q 842 530 , 863 530 
Q 872 530 , 879 529 
Q 886 529 , 889 529 
" fill="#F5C000" />
<path d="
M 805 476 
L 823 476 
L 823 494 
Q 823 499 , 831 501 
Q 838 503 , 855 503 
Q 872 503 , 880 501 
Q 887 499 , 887 494 
L 887 476 
L 905 476 
L 905 495 
Q 905 500 , 892 503 
Q 880 507 , 855 507 
Q 831 507 , 818 503 
Q 805 500 , 805 495 
L 805 476 
" fill="#D21010" />
<path d="
M 1010 550 
L 1010 550 
Q 995 550 , 987 550 
Q 979 550 , 969 550 
Q 948 550 , 938 550 
Q 926 551 , 926 551 
Q 926 552 , 938 553 
Q 948 553 , 969 553 
Q 979 553 , 987 553 
Q 995 553 , 1010 553 
L 1010 554 
Q 999 554 , 989 554 
Q 979 554 , 968 554 
Q 941 554 , 926 553 
Q 910 553 , 910 552 
Q 910 550 , 926 550 
Q 941 549 , 968 549 
Q 979 549 , 989 549 
Q 1000 549 , 1010 550 
" fill="#545FFF" />
<path d="
M 960 532 
L 942 540 
L 976 540 
L 960 532 
M 953 528 
L 967 528 
L 1010 549 
L 994 549 
L 982 543 
L 938 543 
L 925 549 
L 910 549 
L 953 528 
" fill="#339541" />
<path d="
M 994 524 
L 994 516 
L 965 516 
L 965 513 
L 1010 513 
L 1010 526 
Q 999 527 , 988 527 
Q 979 528 , 967 528 
Q 941 528 , 925 524 
Q 910 520 , 910 514 
Q 910 507 , 925 504 
Q 941 500 , 967 500 
Q 978 500 , 987 500 
Q 997 501 , 1007 502 
L 1007 506 
Q 994 504 , 986 504 
Q 977 503 , 968 503 
Q 947 503 , 936 506 
Q 926 508 , 926 514 
Q 926 519 , 936 522 
Q 947 525 , 968 525 
Q 977 525 , 984 524 
Q 991 524 , 994 524 
" fill="#F5C000" />
<path d="
M 910 349 
L 928 349 
L 928 438 
Q 928 462 , 936 473 
Q 943 483 , 960 483 
Q 977 483 , 985 473 
Q 992 462 , 992 438 
L 992 349 
L 1010 349 
L 1010 440 
Q 1010 469 , 997 484 
Q 985 499 , 960 499 
Q 936 499 , 923 484 
Q 910 469 , 910 440 
L 910 349 
" fill="#D21010" />
<path d="
M 1115 551 
L 1115 552 
Q 1100 552 , 1092 551 
Q 1084 551 , 1074 551 
Q 1053 551 , 1043 552 
Q 1031 552 , 1031 552 
Q 1031 553 , 1043 554 
Q 1053 554 , 1074 554 
Q 1084 554 , 1092 554 
Q 1100 554 , 1115 554 
L 1115 554 
Q 1104 554 , 1094 554 
Q 1084 554 , 1073 554 
Q 1046 554 , 1031 554 
Q 1015 553 , 1015 553 
Q 1015 552 , 1031 551 
Q 1046 551 , 1073 551 
Q 1084 551 , 1094 551 
Q 1105 551 , 1115 551 
" fill="#545FFF" />
<path d="
M 1065 544 
L 1047 547 
L 1081 547 
L 1065 544 
M 1058 543 
L 1072 543 
L 1115 550 
L 1099 550 
L 1087 548 
L 1043 548 
L 1030 550 
L 1015 550 
L 1058 543 
" fill="#339541" />
<path d="
M 1015 498 
L 1033 498 
L 1033 525 
Q 1033 532 , 1041 535 
Q 1048 538 , 1065 538 
Q 1082 538 , 1090 535 
Q 1097 532 , 1097 525 
L 1097 498 
L 1115 498 
L 1115 525 
Q 1115 534 , 1102 538 
Q 1090 543 , 1065 543 
Q 1041 543 , 1028 538 
Q 1015 534 , 1015 525 
L 1015 498 
" fill="#D21010" />
<path d="
M 1099 466 
L 1099 407 
L 1070 407 
L 1070 383 
L 1115 383 
L 1115 480 
Q 1104 490 , 1093 493 
Q 1084 497 , 1072 497 
Q 1046 497 , 1030 468 
Q 1015 439 , 1015 388 
Q 1015 337 , 1030 307 
Q 1046 278 , 1072 278 
Q 1083 278 , 1092 282 
Q 1102 286 , 1112 296 
L 1112 324 
Q 1099 311 , 1091 308 
Q 1082 304 , 1073 304 
Q 1052 304 , 1041 325 
Q 1031 345 , 1031 388 
Q 1031 431 , 1041 452 
Q 1052 473 , 1073 473 
Q 1082 473 , 1089 471 
Q 1096 468 , 1099 466 
" fill="#F5C000" />
<path d="
M 1170 551 
L 1152 553 
L 1186 553 
L 1170 551 
M 1163 550 
L 1177 550 
L 1220 555 
L 1204 555 
L 1192 553 
L 1148 553 
L 1135 555 
L 1120 555 
L 1163 550 
" fill="#339541" />
<path d="
M 1220 531 
L 1220 534 
Q 1205 532 , 1197 532 
Q 1189 531 , 1179 531 
Q 1158 531 , 1148 533 
Q 1136 535 , 1136 539 
Q 1136 543 , 1148 545 
Q 1158 547 , 1179 547 
Q 1189 547 , 1197 546 
Q 1205 546 , 1220 544 
L 1220 547 
Q 1209 548 , 1199 549 
Q 1189 549 , 1178 549 
Q 1151 549 , 1136 546 
Q 1120 544 , 1120 539 
Q 1120 534 , 1136 532 
Q 1151 529 , 1178 529 
Q 1189 529 , 1199 529 
Q 1210 530 , 1220 531 
" fill="#545FFF" />
<path d="
M 1120 499 
L 1138 499 
L 1138 516 
Q 1138 521 , 1146 523 
Q 1153 525 , 1170 525 
Q 1187 525 , 1195 523 
Q 1202 521 , 1202 516 
L 1202 499 
L 1220 499 
L 1220 517 
Q 1220 522 , 1207 525 
Q 1195 528 , 1170 528 
Q 1146 528 , 1133 525 
Q 1120 522 , 1120 517 
L 1120 499 
" fill="#D21010" />
<path d="
M 1204 479 
L 1204 442 
L 1175 442 
L 1175 427 
L 1220 427 
L 1220 488 
Q 1209 494 , 1198 496 
Q 1189 499 , 1177 499 
Q 1151 499 , 1135 480 
Q 1120 462 , 1120 430 
Q 1120 398 , 1135 379 
Q 1151 361 , 1177 361 
Q 1188 361 , 1197 363 
Q 1207 366 , 1217 372 
L 1217 390 
Q 1204 382 , 1196 380 
Q 1187 377 , 1178 377 
Q 1157 377 , 1146 390 
Q 1136 403 , 1136 430 
Q 1136 457 , 1146 470 
Q 1157 483 , 1178 483 
Q 1187 483 , 1194 482 
Q 1201 481 , 1204 479 
" fill="#F5C000" />
<path d="
M 1275 553 
L 1257 554 
L 1291 554 
L 1275 553 
M 1268 553 
L 1282 553 
L 1325 555 
L 1309 555 
L 1297 554 
L 1253 554 
L 1240 555 
L 1225 555 
L 1268 553 
" fill="#339541" />
<path d="
M 1325 551 
L 1325 551 
Q 1310 551 , 1302 551 
Q 1294 551 , 1284 551 
Q 1263 551 , 1253 551 
Q 1241 552 , 1241 552 
Q 1241 552 , 1253 552 
Q 1263 553 , 1284 553 
Q 1294 553 , 1302 553 
Q 1310 553 , 1325 552 
L 1325 553 
Q 1314 553 , 1304 553 
Q 1294 553 , 1283 553 
Q 1256 553 , 1241 553 
Q 1225 552 , 1225 552 
Q 1225 552 , 1241 551 
Q 1256 551 , 1283 551 
Q 1294 551 , 1304 551 
Q 1315 551 , 1325 551 
" fill="#545FFF" />
<path d="
M 1225 548 
L 1243 548 
L 1243 550 
Q 1243 550 , 1251 550 
Q 1258 551 , 1275 551 
Q 1292 551 , 1300 550 
Q 1307 550 , 1307 550 
L 1307 548 
L 1325 548 
L 1325 550 
Q 1325 550 , 1312 551 
Q 1300 551 , 1275 551 
Q 1251 551 , 1238 551 
Q 1225 550 , 1225 550 
L 1225 548 
" fill="#D21010" />
<path d="
M 1309 547 
L 1309 547 
L 1280 547 
L 1280 546 
L 1325 546 
L 1325 548 
Q 1314 548 , 1303 548 
Q 1294 548 , 1282 548 
Q 1256 548 , 1240 548 
Q 1225 547 , 1225 546 
Q 1225 546 , 1240 545 
Q 1256 545 , 1282 545 
Q 1293 545 , 1302 545 
Q 1312 545 , 1322 545 
L 1322 546 
Q 1309 545 , 1301 545 
Q 1292 545 , 1283 545 
Q 1262 545 , 1251 546 
Q 1241 546 , 1241 546 
Q 1241 547 , 1251 547 
Q 1262 548 , 1283 548 
Q 1292 548 , 1299 548 
Q 1306 548 , 1309 547 
" fill="#F5C000" />
<path d="M 65 55 L 65 555 " stroke="black" stroke-width="1.5"/>
<path d="M 55 555 L 65 555 " stroke="black" stroke-width="4"/>
<text text-anchor="end" x="50" y="555" font-size="50" alignment-baseline="middle">0</text>
<path d="M 55 305 L 65 305 " stroke="black" stroke-width="4"/>
<text text-anchor="end" x="50" y="305" font-size="50" alignment-baseline="middle">1</text>
<path d="M 55 55 L 65 55 " stroke="black" stroke-width="4"/>
<text text-anchor="end" x="50" y="55" font-size="50" alignment-baseline="middle">2</text>
<text text-anchor="middle" x="697" y="50" font-size="50" alignment-baseline="baseline"></text>
G<path d="
M 160 582 
L 126 595 
L 160 608 
L 157 611 
L 123 598 
L 123 623 
L 117 623 
L 117 599 
L 83 611 
L 80 608 
L 114 595 
L 80 582 
L 83 579 
L 117 591 
L 117 567 
L 123 567 
L 123 591 
L 157 579 
L 160 582 
" fill="black" />
<path d="
" fill="black" />
<path d="
M 211 567 
L 238 567 
L 238 623 
L 211 623 
L 211 567 
" fill="black" />
<path d="
" fill="black" />
<path d="
" fill="black" />
<path d="
M 316 567 
L 343 567 
L 343 623 
L 316 623 
L 316 567 
" fill="black" />
<path d="
" fill="black" />
<path d="
" fill="black" />
<path d="
M 421 567 
L 448 567 
L 448 623 
L 421 623 
L 421 567 
" fill="black" />
<path d="
" fill="black" />
<path d="
" fill="black" />
<path d="
M 526 567 
L 553 567 
L 553 623 
L 526 623 
L 526 567 
" fill="black" />
<path d="
" fill="black" />
<path d="
" fill="black" />
<path d="
M 631 567 
L 658 567 
L 658 623 
L 631 623 
L 631 567 
" fill="black" />
<path d="
" fill="black" />
<path d="
" fill="black" />
<path d="
M 736 567 
L 763 567 
L 763 623 
L 736 623 
L 736 567 
" fill="black" />
<path d="
" fill="black" />
<path d="
" fill="black" />
<path d="
M 841 567 
L 868 567 
L 868 623 
L 841 623 
L 841 567 
" fill="black" />
<path d="
" fill="black" />
<path d="
" fill="black" />
<path d="
M 946 567 
L 973 567 
L 973 623 
L 946 623 
L 946 567 
" fill="black" />
<path d="
" fill="black" />
<path d="
" fill="black" />
<path d="
M 1051 567 
L 1078 567 
L 1078 623 
L 1051 623 
L 1051 567 
" fill="black" />
<path d="
" fill="black" />
<path d="
" fill="black" />
<path d="
M 1156 567 
L 1183 567 
L 1183 623 
L 1156 623 
L 1156 567 
" fill="black" />
<path d="
" fill="black" />
<path d="
M 1315 582 
L 1281 595 
L 1315 608 
L 1312 611 
L 1278 598 
L 1278 623 
L 1272 623 
L 1272 599 
L 1238 611 
L 1235 608 
L 1269 595 
L 1235 582 
L 1238 579 
L 1272 591 
L 1272 567 
L 1278 567 
L 1278 591 
L 1312 579 
L 1315 582 
" fill="black" />
</svg>
