<svg xmlns="http://www.w3.org/2000/svg"
viewBox="0 0 1330 635">
<path d="
M 70 554 
L 88 554 
L 88 554 
Q 88 554 , 96 555 
Q 103 555 , 120 555 
Q 137 555 , 145 555 
Q 152 554 , 152 554 
L 152 554 
L 170 554 
L 170 554 
Q 170 555 , 157 555 
Q 145 555 , 120 555 
Q 96 555 , 83 555 
Q 70 555 , 70 554 
L 70 554 
" fill="#D21010" />
<path d="
M 170 553 
L 170 553 
Q 155 553 , 147 553 
Q 139 553 , 129 553 
Q 108 553 , 98 553 
Q 86 553 , 86 553 
Q 86 553 , 98 554 
Q 108 554 , 129 554 
Q 139 554 , 147 554 
Q 155 554 , 170 554 
L 170 554 
Q 159 554 , 149 554 
Q 139 554 , 128 554 
Q 101 554 , 86 554 
Q 70 554 , 70 553 
Q 70 553 , 86 553 
Q 101 553 , 128 553 
Q 139 553 , 149 553 
Q 160 553 , 170 553 
" fill="#545FFF" />
<path d="
M 154 553 
L 154 553 
L 125 553 
L 125 552 
L 170 552 
L 170 553 
Q 159 553 , 148 553 
Q 139 553 , 127 553 
Q 101 553 , 85 553 
Q 70 553 , 70 552 
Q 70 552 , 85 552 
Q 101 552 , 127 552 
Q 138 552 , 147 552 
Q 157 552 , 167 552 
L 167 552 
Q 154 552 , 146 552 
Q 137 552 , 128 552 
Q 107 552 , 96 552 
Q 86 552 , 86 552 
Q 86 553 , 96 553 
Q 107 553 , 128 553 
Q 137 553 , 144 553 
Q 151 553 , 154 553 
" fill="#F5C000" />
<path d="
M 120 551 
L 102 552 
L 136 552 
L 120 551 
M 113 551 
L 127 551 
L 170 552 
L 154 552 
L 142 552 
L 98 552 
L 85 552 
L 70 552 
L 113 551 
" fill="#339541" />
<path d="
M 175 548 
L 193 548 
L 193 552 
Q 193 553 , 201 553 
Q 208 554 , 225 554 
Q 242 554 , 250 553 
Q 257 553 , 257 552 
L 257 548 
L 275 548 
L 275 552 
Q 275 553 , 262 554 
Q 250 554 , 225 554 
Q 201 554 , 188 554 
Q 175 553 , 175 552 
L 175 548 
" fill="#D21010" />
<path d="
M 225 540 
L 207 544 
L 241 544 
L 225 540 
M 218 538 
L 232 538 
L 275 548 
L 259 548 
L 247 545 
L 203 545 
L 190 548 
L 175 548 
L 218 538 
" fill="#339541" />
<path d="
M 275 506 
L 275 511 
Q 260 508 , 252 507 
Q 244 506 , 234 506 
Q 213 506 , 203 509 
Q 191 513 , 191 520 
Q 191 527 , 203 530 
Q 213 534 , 234 534 
Q 244 534 , 252 533 
Q 260 532 , 275 528 
L 275 534 
Q 264 536 , 254 537 
Q 244 537 , 233 537 
Q 206 537 , 191 533 
Q 175 528 , 175 520 
Q 175 512 , 191 507 
Q 206 502 , 233 502 
Q 244 502 , 254 503 
Q 265 504 , 275 506 
" fill="#545FFF" />
<path d="
M 259 494 
L 259 479 
L 230 479 
L 230 473 
L 275 473 
L 275 498 
Q 264 500 , 253 501 
Q 244 502 , 232 502 
Q 206 502 , 190 494 
Q 175 487 , 175 474 
Q 175 462 , 190 454 
Q 206 447 , 232 447 
Q 243 447 , 252 448 
Q 262 449 , 272 451 
L 272 458 
Q 259 455 , 251 454 
Q 242 454 , 233 454 
Q 212 454 , 201 459 
Q 191 464 , 191 474 
Q 191 485 , 201 491 
Q 212 496 , 233 496 
Q 242 496 , 249 495 
Q 256 495 , 259 494 
" fill="#F5C000" />
<path d="
M 280 552 
L 298 552 
L 298 554 
Q 298 554 , 306 554 
Q 313 554 , 330 554 
Q 347 554 , 355 554 
Q 362 554 , 362 554 
L 362 552 
L 380 552 
L 380 554 
Q 380 554 , 367 554 
Q 355 555 , 330 555 
Q 306 555 , 293 554 
Q 280 554 , 280 554 
L 280 552 
" fill="#D21010" />
<path d="
M 364 549 
L 364 544 
L 335 544 
L 335 542 
L 380 542 
L 380 550 
Q 369 551 , 358 551 
Q 349 551 , 337 552 
Q 311 552 , 295 549 
Q 280 547 , 280 542 
Q 280 538 , 295 535 
Q 311 533 , 337 533 
Q 348 533 , 357 533 
Q 367 534 , 377 534 
L 377 537 
Q 364 536 , 356 536 
Q 347 535 , 338 535 
Q 317 535 , 306 537 
Q 296 539 , 296 542 
Q 296 546 , 306 548 
Q 317 549 , 338 549 
Q 347 549 , 354 549 
Q 361 549 , 364 549 
" fill="#F5C000" />
<path d="
M 380 507 
L 380 511 
Q 365 509 , 357 508 
Q 349 507 , 339 507 
Q 318 507 , 308 510 
Q 296 513 , 296 518 
Q 296 524 , 308 526 
Q 318 529 , 339 529 
Q 349 529 , 357 529 
Q 365 528 , 380 525 
L 380 529 
Q 369 531 , 359 532 
Q 349 532 , 338 532 
Q 311 532 , 296 528 
Q 280 525 , 280 518 
Q 280 512 , 296 508 
Q 311 504 , 338 504 
Q 349 504 , 359 505 
Q 370 505 , 380 507 
" fill="#545FFF" />
<path d="
M 330 462 
L 312 483 
L 346 483 
L 330 462 
M 323 453 
L 337 453 
L 380 504 
L 364 504 
L 352 489 
L 308 489 
L 295 504 
L 280 504 
L 323 453 
" fill="#339541" />
<path d="
M 485 551 
L 485 551 
Q 470 551 , 462 551 
Q 454 551 , 444 551 
Q 423 551 , 413 551 
Q 401 552 , 401 552 
Q 401 553 , 413 554 
Q 423 554 , 444 554 
Q 454 554 , 462 554 
Q 470 554 , 485 554 
L 485 554 
Q 474 555 , 464 555 
Q 454 555 , 443 555 
Q 416 555 , 401 554 
Q 385 554 , 385 552 
Q 385 551 , 401 551 
Q 416 550 , 443 550 
Q 454 550 , 464 550 
Q 475 550 , 485 551 
" fill="#545FFF" />
<path d="
M 469 548 
L 469 544 
L 440 544 
L 440 543 
L 485 543 
L 485 549 
Q 474 549 , 463 549 
Q 454 549 , 442 549 
Q 416 549 , 400 548 
Q 385 546 , 385 543 
Q 385 540 , 400 539 
Q 416 537 , 442 537 
Q 453 537 , 462 537 
Q 472 537 , 482 538 
L 482 540 
Q 469 539 , 461 539 
Q 452 538 , 443 538 
Q 422 538 , 411 540 
Q 401 541 , 401 543 
Q 401 546 , 411 547 
Q 422 548 , 443 548 
Q 452 548 , 459 548 
Q 466 548 , 469 548 
" fill="#F5C000" />
<path d="
M 385 512 
L 403 512 
L 403 527 
Q 403 531 , 411 532 
Q 418 534 , 435 534 
Q 452 534 , 460 532 
Q 467 531 , 467 527 
L 467 512 
L 485 512 
L 485 527 
Q 485 532 , 472 534 
Q 460 537 , 435 537 
Q 411 537 , 398 534 
Q 385 532 , 385 527 
L 385 512 
" fill="#D21010" />
<path d="
M 435 476 
L 417 493 
L 451 493 
L 435 476 
M 428 468 
L 442 468 
L 485 511 
L 469 511 
L 457 498 
L 413 498 
L 400 511 
L 385 511 
L 428 468 
" fill="#339541" />
<path d="
M 490 552 
L 508 552 
L 508 554 
Q 508 554 , 516 554 
Q 523 555 , 540 555 
Q 557 555 , 565 554 
Q 572 554 , 572 554 
L 572 552 
L 590 552 
L 590 554 
Q 590 554 , 577 555 
Q 565 555 , 540 555 
Q 516 555 , 503 555 
Q 490 554 , 490 554 
L 490 552 
" fill="#D21010" />
<path d="
M 540 540 
L 522 545 
L 556 545 
L 540 540 
M 533 537 
L 547 537 
L 590 551 
L 574 551 
L 562 547 
L 518 547 
L 505 551 
L 490 551 
L 533 537 
" fill="#339541" />
<path d="
M 590 523 
L 590 525 
Q 575 524 , 567 523 
Q 559 523 , 549 523 
Q 528 523 , 518 524 
Q 506 526 , 506 529 
Q 506 532 , 518 533 
Q 528 535 , 549 535 
Q 559 535 , 567 535 
Q 575 534 , 590 533 
L 590 535 
Q 579 536 , 569 536 
Q 559 537 , 548 537 
Q 521 537 , 506 535 
Q 490 532 , 490 529 
Q 490 525 , 506 523 
Q 521 521 , 548 521 
Q 559 521 , 569 521 
Q 580 522 , 590 523 
" fill="#545FFF" />
<path d="
M 574 474 
L 574 387 
L 545 387 
L 545 351 
L 590 351 
L 590 496 
Q 579 510 , 568 515 
Q 559 520 , 547 521 
Q 521 521 , 505 477 
Q 490 434 , 490 358 
Q 490 282 , 505 239 
Q 521 195 , 547 195 
Q 558 195 , 567 201 
Q 577 207 , 587 221 
L 587 263 
Q 574 245 , 566 239 
Q 557 234 , 548 234 
Q 527 234 , 516 264 
Q 506 295 , 506 358 
Q 506 422 , 516 454 
Q 527 485 , 548 485 
Q 557 485 , 564 481 
Q 571 478 , 574 474 
" fill="#F5C000" />
<path d="
M 595 552 
L 613 552 
L 613 554 
Q 613 554 , 621 554 
Q 628 555 , 645 555 
Q 662 555 , 670 554 
Q 677 554 , 677 554 
L 677 552 
L 695 552 
L 695 554 
Q 695 554 , 682 555 
Q 670 555 , 645 555 
Q 621 555 , 608 555 
Q 595 554 , 595 554 
L 595 552 
" fill="#D21010" />
<path d="
M 695 530 
L 695 534 
Q 680 532 , 672 531 
Q 664 531 , 654 531 
Q 633 531 , 623 533 
Q 611 535 , 611 539 
Q 611 544 , 623 546 
Q 633 549 , 654 549 
Q 664 549 , 672 548 
Q 680 547 , 695 545 
L 695 549 
Q 684 550 , 674 551 
Q 664 551 , 653 551 
Q 626 551 , 611 548 
Q 595 545 , 595 540 
Q 595 534 , 611 531 
Q 626 528 , 653 528 
Q 664 528 , 674 529 
Q 685 529 , 695 530 
" fill="#545FFF" />
<path d="
M 679 524 
L 679 518 
L 650 518 
L 650 515 
L 695 515 
L 695 526 
Q 684 527 , 673 527 
Q 664 528 , 652 528 
Q 626 528 , 610 525 
Q 595 522 , 595 516 
Q 595 510 , 610 507 
Q 626 504 , 652 504 
Q 663 504 , 672 504 
Q 682 505 , 692 506 
L 692 509 
Q 679 508 , 671 507 
Q 662 507 , 653 507 
Q 632 507 , 621 509 
Q 611 511 , 611 516 
Q 611 521 , 621 523 
Q 632 525 , 653 525 
Q 662 525 , 669 525 
Q 676 525 , 679 524 
" fill="#F5C000" />
<path d="
M 645 453 
L 627 478 
L 661 478 
L 645 453 
M 638 442 
L 652 442 
L 695 503 
L 679 503 
L 667 485 
L 623 485 
L 610 503 
L 595 503 
L 638 442 
" fill="#339541" />
<path d="
M 700 542 
L 718 542 
L 718 549 
Q 718 551 , 726 552 
Q 733 553 , 750 553 
Q 767 553 , 775 552 
Q 782 551 , 782 549 
L 782 542 
L 800 542 
L 800 550 
Q 800 552 , 787 553 
Q 775 554 , 750 554 
Q 726 554 , 713 553 
Q 700 552 , 700 550 
L 700 542 
" fill="#D21010" />
<path d="
M 784 539 
L 784 535 
L 755 535 
L 755 533 
L 800 533 
L 800 540 
Q 789 541 , 778 541 
Q 769 542 , 757 542 
Q 731 542 , 715 540 
Q 700 537 , 700 533 
Q 700 529 , 715 527 
Q 731 525 , 757 525 
Q 768 525 , 777 525 
Q 787 526 , 797 526 
L 797 529 
Q 784 528 , 776 527 
Q 767 527 , 758 527 
Q 737 527 , 726 529 
Q 716 530 , 716 533 
Q 716 537 , 726 538 
Q 737 540 , 758 540 
Q 767 540 , 774 540 
Q 781 540 , 784 539 
" fill="#F5C000" />
<path d="
M 800 506 
L 800 509 
Q 785 507 , 777 507 
Q 769 506 , 759 506 
Q 738 506 , 728 508 
Q 716 510 , 716 514 
Q 716 518 , 728 521 
Q 738 523 , 759 523 
Q 769 523 , 777 522 
Q 785 521 , 800 519 
L 800 523 
Q 789 524 , 779 524 
Q 769 525 , 758 525 
Q 731 525 , 716 522 
Q 700 519 , 700 514 
Q 700 510 , 716 507 
Q 731 504 , 758 504 
Q 769 504 , 779 505 
Q 790 505 , 800 506 
" fill="#545FFF" />
<path d="
M 750 386 
L 732 445 
L 766 445 
L 750 386 
M 743 360 
L 757 360 
L 800 504 
L 784 504 
L 772 461 
L 728 461 
L 715 504 
L 700 504 
L 743 360 
" fill="#339541" />
<path d="
M 805 552 
L 823 552 
L 823 553 
Q 823 554 , 831 554 
Q 838 554 , 855 554 
Q 872 554 , 880 554 
Q 887 554 , 887 553 
L 887 552 
L 905 552 
L 905 553 
Q 905 554 , 892 554 
Q 880 554 , 855 554 
Q 831 554 , 818 554 
Q 805 554 , 805 553 
L 805 552 
" fill="#D21010" />
<path d="
M 855 540 
L 837 546 
L 871 546 
L 855 540 
M 848 537 
L 862 537 
L 905 552 
L 889 552 
L 877 548 
L 833 548 
L 820 552 
L 805 552 
L 848 537 
" fill="#339541" />
<path d="
M 905 503 
L 905 509 
Q 890 505 , 882 504 
Q 874 503 , 864 503 
Q 843 503 , 833 507 
Q 821 510 , 821 517 
Q 821 525 , 833 529 
Q 843 532 , 864 532 
Q 874 532 , 882 531 
Q 890 530 , 905 527 
L 905 532 
Q 894 535 , 884 535 
Q 874 536 , 863 536 
Q 836 536 , 821 531 
Q 805 526 , 805 518 
Q 805 509 , 821 504 
Q 836 499 , 863 499 
Q 874 499 , 884 500 
Q 895 501 , 905 503 
" fill="#545FFF" />
<path d="
M 889 469 
L 889 415 
L 860 415 
L 860 392 
L 905 392 
L 905 483 
Q 894 492 , 883 495 
Q 874 498 , 862 499 
Q 836 499 , 820 471 
Q 805 444 , 805 397 
Q 805 349 , 820 322 
Q 836 295 , 862 295 
Q 873 295 , 882 299 
Q 892 302 , 902 311 
L 902 338 
Q 889 326 , 881 323 
Q 872 319 , 863 319 
Q 842 319 , 831 338 
Q 821 358 , 821 397 
Q 821 437 , 831 457 
Q 842 476 , 863 476 
Q 872 476 , 879 474 
Q 886 472 , 889 469 
" fill="#F5C000" />
<path d="
M 910 553 
L 928 553 
L 928 554 
Q 928 554 , 936 555 
Q 943 555 , 960 555 
Q 977 555 , 985 555 
Q 992 554 , 992 554 
L 992 553 
L 1010 553 
L 1010 554 
Q 1010 554 , 997 555 
Q 985 555 , 960 555 
Q 936 555 , 923 555 
Q 910 554 , 910 554 
L 910 553 
" fill="#D21010" />
<path d="
M 994 551 
L 994 547 
L 965 547 
L 965 545 
L 1010 545 
L 1010 552 
Q 999 552 , 988 553 
Q 979 553 , 967 553 
Q 941 553 , 925 551 
Q 910 549 , 910 545 
Q 910 542 , 925 540 
Q 941 538 , 967 538 
Q 978 538 , 987 538 
Q 997 539 , 1007 539 
L 1007 541 
Q 994 540 , 986 540 
Q 977 540 , 968 540 
Q 947 540 , 936 541 
Q 926 543 , 926 545 
Q 926 548 , 936 550 
Q 947 551 , 968 551 
Q 977 551 , 984 551 
Q 991 551 , 994 551 
" fill="#F5C000" />
<path d="
M 1010 495 
L 1010 502 
Q 995 498 , 987 496 
Q 979 495 , 969 495 
Q 948 495 , 938 500 
Q 926 504 , 926 513 
Q 926 523 , 938 527 
Q 948 532 , 969 532 
Q 979 532 , 987 531 
Q 995 529 , 1010 525 
L 1010 532 
Q 999 535 , 989 536 
Q 979 537 , 968 537 
Q 941 537 , 926 531 
Q 910 524 , 910 514 
Q 910 503 , 926 496 
Q 941 490 , 968 490 
Q 979 490 , 989 491 
Q 1000 492 , 1010 495 
" fill="#545FFF" />
<path d="
M 960 389 
L 942 439 
L 976 439 
L 960 389 
M 953 367 
L 967 367 
L 1010 489 
L 994 489 
L 982 453 
L 938 453 
L 925 489 
L 910 489 
L 953 367 
" fill="#339541" />
<path d="
M 1015 546 
L 1033 546 
L 1033 551 
Q 1033 552 , 1041 553 
Q 1048 553 , 1065 553 
Q 1082 553 , 1090 553 
Q 1097 552 , 1097 551 
L 1097 546 
L 1115 546 
L 1115 551 
Q 1115 552 , 1102 553 
Q 1090 554 , 1065 554 
Q 1041 554 , 1028 553 
Q 1015 552 , 1015 551 
L 1015 546 
" fill="#D21010" />
<path d="
M 1115 537 
L 1115 539 
Q 1100 538 , 1092 537 
Q 1084 537 , 1074 537 
Q 1053 537 , 1043 538 
Q 1031 539 , 1031 541 
Q 1031 543 , 1043 544 
Q 1053 545 , 1074 545 
Q 1084 545 , 1092 544 
Q 1100 544 , 1115 543 
L 1115 545 
Q 1104 545 , 1094 545 
Q 1084 546 , 1073 546 
Q 1046 546 , 1031 544 
Q 1015 543 , 1015 541 
Q 1015 539 , 1031 537 
Q 1046 536 , 1073 536 
Q 1084 536 , 1094 536 
Q 1105 536 , 1115 537 
" fill="#545FFF" />
<path d="
M 1099 534 
L 1099 530 
L 1070 530 
L 1070 529 
L 1115 529 
L 1115 535 
Q 1104 535 , 1093 535 
Q 1084 536 , 1072 536 
Q 1046 536 , 1030 534 
Q 1015 532 , 1015 529 
Q 1015 526 , 1030 524 
Q 1046 522 , 1072 522 
Q 1083 522 , 1092 522 
Q 1102 522 , 1112 523 
L 1112 525 
Q 1099 524 , 1091 524 
Q 1082 524 , 1073 524 
Q 1052 524 , 1041 525 
Q 1031 526 , 1031 529 
Q 1031 531 , 1041 533 
Q 1052 534 , 1073 534 
Q 1082 534 , 1089 534 
Q 1096 534 , 1099 534 
" fill="#F5C000" />
<path d="
M 1065 493 
L 1047 507 
L 1081 507 
L 1065 493 
M 1058 487 
L 1072 487 
L 1115 521 
L 1099 521 
L 1087 511 
L 1043 511 
L 1030 521 
L 1015 521 
L 1058 487 
" fill="#339541" />
<path d="
M 1120 546 
L 1138 546 
L 1138 551 
Q 1138 552 , 1146 553 
Q 1153 553 , 1170 553 
Q 1187 553 , 1195 553 
Q 1202 552 , 1202 551 
L 1202 546 
L 1220 546 
L 1220 551 
Q 1220 552 , 1207 553 
Q 1195 554 , 1170 554 
Q 1146 554 , 1133 553 
Q 1120 552 , 1120 551 
L 1120 546 
" fill="#D21010" />
<path d="
M 1220 534 
L 1220 536 
Q 1205 535 , 1197 535 
Q 1189 534 , 1179 534 
Q 1158 534 , 1148 536 
Q 1136 537 , 1136 539 
Q 1136 542 , 1148 543 
Q 1158 545 , 1179 545 
Q 1189 545 , 1197 544 
Q 1205 544 , 1220 543 
L 1220 545 
Q 1209 545 , 1199 546 
Q 1189 546 , 1178 546 
Q 1151 546 , 1136 544 
Q 1120 542 , 1120 539 
Q 1120 537 , 1136 535 
Q 1151 533 , 1178 533 
Q 1189 533 , 1199 533 
Q 1210 534 , 1220 534 
" fill="#545FFF" />
<path d="
M 1170 509 
L 1152 521 
L 1186 521 
L 1170 509 
M 1163 504 
L 1177 504 
L 1220 532 
L 1204 532 
L 1192 524 
L 1148 524 
L 1135 532 
L 1120 532 
L 1163 504 
" fill="#339541" />
<path d="
M 1204 491 
L 1204 469 
L 1175 469 
L 1175 460 
L 1220 460 
L 1220 497 
Q 1209 500 , 1198 502 
Q 1189 503 , 1177 503 
Q 1151 503 , 1135 492 
Q 1120 481 , 1120 462 
Q 1120 442 , 1135 431 
Q 1151 420 , 1177 420 
Q 1188 420 , 1197 421 
Q 1207 423 , 1217 427 
L 1217 437 
Q 1204 433 , 1196 431 
Q 1187 430 , 1178 430 
Q 1157 430 , 1146 438 
Q 1136 446 , 1136 462 
Q 1136 478 , 1146 486 
Q 1157 494 , 1178 494 
Q 1187 494 , 1194 493 
Q 1201 492 , 1204 491 
" fill="#F5C000" />
<path d="
M 1225 554 
L 1243 554 
L 1243 554 
Q 1243 554 , 1251 555 
Q 1258 555 , 1275 555 
Q 1292 555 , 1300 555 
Q 1307 554 , 1307 554 
L 1307 554 
L 1325 554 
L 1325 554 
Q 1325 555 , 1312 555 
Q 1300 555 , 1275 555 
Q 1251 555 , 1238 555 
Q 1225 555 , 1225 554 
L 1225 554 
" fill="#D21010" />
<path d="
M 1325 553 
L 1325 553 
Q 1310 553 , 1302 553 
Q 1294 553 , 1284 553 
Q 1263 553 , 1253 553 
Q 1241 553 , 1241 553 
Q 1241 553 , 1253 554 
Q 1263 554 , 1284 554 
Q 1294 554 , 1302 554 
Q 1310 554 , 1325 554 
L 1325 554 
Q 1314 554 , 1304 554 
Q 1294 554 , 1283 554 
Q 1256 554 , 1241 554 
Q 1225 554 , 1225 553 
Q 1225 553 , 1241 553 
Q 1256 553 , 1283 553 
Q 1294 553 , 1304 553 
Q 1315 553 , 1325 553 
" fill="#545FFF" />
<path d="
M 1309 553 
L 1309 553 
L 1280 553 
L 1280 552 
L 1325 552 
L 1325 553 
Q 1314 553 , 1303 553 
Q 1294 553 , 1282 553 
Q 1256 553 , 1240 553 
Q 1225 553 , 1225 552 
Q 1225 552 , 1240 552 
Q 1256 552 , 1282 552 
Q 1293 552 , 1302 552 
Q 1312 552 , 1322 552 
L 1322 552 
Q 1309 552 , 1301 552 
Q 1292 552 , 1283 552 
Q 1262 552 , 1251 552 
Q 1241 552 , 1241 552 
Q 1241 553 , 1251 553 
Q 1262 553 , 1283 553 
Q 1292 553 , 1299 553 
Q 1306 553 , 1309 553 
" fill="#F5C000" />
<path d="
M 1275 551 
L 1257 552 
L 1291 552 
L 1275 551 
M 1268 551 
L 1282 551 
L 1325 552 
L 1309 552 
L 1297 552 
L 1253 552 
L 1240 552 
L 1225 552 
L 1268 551 
" fill="#339541" />
<path d="M 65 55 L 65 555 " stroke="black" stroke-width="1.5"/>
<path d="M 55 555 L 65 555 " stroke="black" stroke-width="4"/>
<text text-anchor="end" x="50" y="555" font-size="50" alignment-baseline="middle">0</text>
<path d="M 55 305 L 65 305 " stroke="black" stroke-width="4"/>
<text text-anchor="end" x="50" y="305" font-size="50" alignment-baseline="middle">1</text>
<path d="M 55 55 L 65 55 " stroke="black" stroke-width="4"/>
<text text-anchor="end" x="50" y="55" font-size="50" alignment-baseline="middle">2</text>
<text text-anchor="middle" x="697" y="50" font-size="50" alignment-baseline="baseline"></text>
G<path d="
M 160 582 
L 126 595 
L 160 608 
L 157 611 
L 123 598 
L 123 623 
L 117 623 
L 117 599 
L 83 611 
L 80 608 
L 114 595 
L 80 582 
L 83 579 
L 117 591 
L 117 567 
L 123 567 
L 123 591 
L 157 579 
L 160 582 
" fill="black" />
<path d="
" fill="black" />
<path d="
M 211 567 
L 238 567 
L 238 623 
L 211 623 
L 211 567 
" fill="black" />
<path d="
" fill="black" />
<path d="
" fill="black" />
<path d="
M 316 567 
L 343 567 
L 343 623 
L 316 623 
L 316 567 
" fill="black" />
<path d="
" fill="black" />
<path d="
" fill="black" />
<path d="
M 421 567 
L 448 567 
L 448 623 
L 421 623 
L 421 567 
" fill="black" />
<path d="
" fill="black" />
<path d="
" fill="black" />
<path d="
M 526 567 
L 553 567 
L 553 623 
L 526 623 
L 526 567 
" fill="black" />
<path d="
" fill="black" />
<path d="
" fill="black" />
<path d="
M 631 567 
L 658 567 
L 658 623 
L 631 623 
L 631 567 
" fill="black" />
<path d="
" fill="black" />
<path d="
" fill="black" />
<path d="
M 736 567 
L 763 567 
L 763 623 
L 736 623 
L 736 567 
" fill="black" />
<path d="
" fill="black" />
<path d="
" fill="black" />
<path d="
M 841 567 
L 868 567 
L 868 623 
L 841 623 
L 841 567 
" fill="black" />
<path d="
" fill="black" />
<path d="
" fill="black" />
<path d="
M 946 567 
L 973 567 
L 973 623 
L 946 623 
L 946 567 
" fill="black" />
<path d="
" fill="black" />
<path d="
" fill="black" />
<path d="
M 1051 567 
L 1078 567 
L 1078 623 
L 1051 623 
L 1051 567 
" fill="black" />
<path d="
" fill="black" />
<path d="
" fill="black" />
<path d="
M 1156 567 
L 1183 567 
L 1183 623 
L 1156 623 
L 1156 567 
" fill="black" />
<path d="
" fill="black" />
<path d="
M 1315 582 
L 1281 595 
L 1315 608 
L 1312 611 
L 1278 598 
L 1278 623 
L 1272 623 
L 1272 599 
L 1238 611 
L 1235 608 
L 1269 595 
L 1235 582 
L 1238 579 
L 1272 591 
L 1272 567 
L 1278 567 
L 1278 591 
L 1312 579 
L 1315 582 
" fill="black" />
</svg>
