<svg xmlns="http://www.w3.org/2000/svg"
viewBox="0 0 1435 635">
<path d="
M 170 554 
L 170 554 
Q 155 554 , 147 554 
Q 139 554 , 129 554 
Q 108 554 , 98 554 
Q 86 554 , 86 554 
Q 86 555 , 98 555 
Q 108 555 , 129 555 
Q 139 555 , 147 555 
Q 155 555 , 170 555 
L 170 555 
Q 159 555 , 149 555 
Q 139 555 , 128 555 
Q 101 555 , 86 555 
Q 70 555 , 70 554 
Q 70 554 , 86 554 
Q 101 554 , 128 554 
Q 139 554 , 149 554 
Q 160 554 , 170 554 
" fill="#545FFF" />
<path d="
M 70 553 
L 88 553 
L 88 554 
Q 88 554 , 96 554 
Q 103 554 , 120 554 
Q 137 554 , 145 554 
Q 152 554 , 152 554 
L 152 553 
L 170 553 
L 170 554 
Q 170 554 , 157 554 
Q 145 554 , 120 554 
Q 96 554 , 83 554 
Q 70 554 , 70 554 
L 70 553 
" fill="#D21010" />
<path d="
M 120 552 
L 102 553 
L 136 553 
L 120 552 
M 113 552 
L 127 552 
L 170 553 
L 154 553 
L 142 553 
L 98 553 
L 85 553 
L 70 553 
L 113 552 
" fill="#339541" />
<path d="
M 154 551 
L 154 551 
L 125 551 
L 125 551 
L 170 551 
L 170 551 
Q 159 551 , 148 551 
Q 139 551 , 127 551 
Q 101 551 , 85 551 
Q 70 551 , 70 551 
Q 70 550 , 85 550 
Q 101 550 , 127 550 
Q 138 550 , 147 550 
Q 157 550 , 167 550 
L 167 550 
Q 154 550 , 146 550 
Q 137 550 , 128 550 
Q 107 550 , 96 550 
Q 86 550 , 86 551 
Q 86 551 , 96 551 
Q 107 551 , 128 551 
Q 137 551 , 144 551 
Q 151 551 , 154 551 
" fill="#F5C000" />
<path d="
M 175 552 
L 184 552 
L 184 553 
Q 184 554 , 188 554 
Q 191 554 , 200 554 
Q 209 554 , 212 554 
Q 216 554 , 216 553 
L 216 552 
L 225 552 
L 225 553 
Q 225 554 , 219 554 
Q 212 554 , 200 554 
Q 188 554 , 181 554 
Q 175 554 , 175 553 
L 175 552 
" fill="#D21010" />
<path d="
M 267 554 
L 267 553 
L 253 553 
L 253 553 
L 275 553 
L 275 554 
Q 270 554 , 264 554 
Q 259 554 , 253 554 
Q 240 554 , 233 554 
Q 225 554 , 225 553 
Q 225 553 , 233 552 
Q 240 552 , 253 552 
Q 259 552 , 264 552 
Q 269 552 , 274 552 
L 274 553 
Q 267 552 , 263 552 
Q 259 552 , 254 552 
Q 244 552 , 238 553 
Q 233 553 , 233 553 
Q 233 554 , 238 554 
Q 244 554 , 254 554 
Q 259 554 , 262 554 
Q 266 554 , 267 554 
" fill="lightgray" />
<path d="
M 217 550 
L 217 548 
L 203 548 
L 203 547 
L 225 547 
L 225 551 
Q 220 551 , 214 551 
Q 209 552 , 203 552 
Q 190 552 , 183 550 
Q 175 549 , 175 547 
Q 175 545 , 183 544 
Q 190 543 , 203 543 
Q 209 543 , 214 543 
Q 219 543 , 224 544 
L 224 545 
Q 217 544 , 213 544 
Q 209 544 , 204 544 
Q 194 544 , 188 545 
Q 183 546 , 183 547 
Q 183 549 , 188 550 
Q 194 551 , 204 551 
Q 209 551 , 212 550 
Q 216 550 , 217 550 
" fill="#F5C000" />
<path d="
M 225 543 
L 234 543 
L 234 548 
Q 234 549 , 238 550 
Q 241 551 , 250 551 
Q 259 551 , 262 550 
Q 266 549 , 266 548 
L 266 543 
L 275 543 
L 275 548 
Q 275 550 , 269 551 
Q 262 552 , 250 552 
Q 238 552 , 231 551 
Q 225 550 , 225 548 
L 225 543 
" fill="lightgray" />
<path d="
M 217 541 
L 217 539 
L 203 539 
L 203 538 
L 225 538 
L 225 542 
Q 220 542 , 214 542 
Q 209 543 , 203 543 
Q 190 543 , 183 541 
Q 175 540 , 175 538 
Q 175 536 , 183 534 
Q 190 533 , 203 533 
Q 209 533 , 214 533 
Q 219 533 , 224 534 
L 224 535 
Q 217 534 , 213 534 
Q 209 534 , 204 534 
Q 194 534 , 188 535 
Q 183 536 , 183 538 
Q 183 540 , 188 541 
Q 194 542 , 204 542 
Q 209 542 , 212 541 
Q 216 541 , 217 541 
" fill="#F5C000" />
<path d="
M 275 534 
L 275 536 
Q 268 535 , 264 534 
Q 259 534 , 254 534 
Q 244 534 , 239 535 
Q 233 536 , 233 538 
Q 233 540 , 239 541 
Q 244 542 , 254 542 
Q 259 542 , 264 541 
Q 268 541 , 275 540 
L 275 542 
Q 270 542 , 264 542 
Q 260 543 , 254 543 
Q 240 543 , 233 541 
Q 225 540 , 225 538 
Q 225 536 , 233 534 
Q 240 533 , 254 533 
Q 260 533 , 265 533 
Q 270 533 , 275 534 
" fill="lightgray" />
<path d="
M 175 518 
L 184 518 
L 184 527 
Q 184 529 , 188 530 
Q 191 531 , 200 531 
Q 209 531 , 212 530 
Q 216 529 , 216 527 
L 216 518 
L 225 518 
L 225 527 
Q 225 530 , 219 531 
Q 212 533 , 200 533 
Q 188 533 , 181 531 
Q 175 530 , 175 527 
L 175 518 
" fill="#D21010" />
<path d="
M 250 521 
L 241 527 
L 258 527 
L 250 521 
M 246 518 
L 254 518 
L 275 533 
L 267 533 
L 261 528 
L 239 528 
L 232 533 
L 225 533 
L 246 518 
" fill="lightgray" />
<path d="
M 200 502 
L 191 510 
L 208 510 
L 200 502 
M 196 498 
L 204 498 
L 225 518 
L 217 518 
L 211 512 
L 189 512 
L 182 518 
L 175 518 
L 196 498 
" fill="#339541" />
<path d="
M 225 498 
L 234 498 
L 234 510 
Q 234 513 , 238 514 
Q 241 516 , 250 516 
Q 259 516 , 262 514 
Q 266 513 , 266 510 
L 266 498 
L 275 498 
L 275 510 
Q 275 514 , 269 516 
Q 262 518 , 250 518 
Q 238 518 , 231 516 
Q 225 514 , 225 510 
L 225 498 
" fill="lightgray" />
<path d="
M 225 441 
L 225 450 
Q 218 444 , 214 443 
Q 209 441 , 204 441 
Q 194 441 , 189 447 
Q 183 453 , 183 465 
Q 183 478 , 189 484 
Q 194 490 , 204 490 
Q 209 490 , 214 489 
Q 218 487 , 225 481 
L 225 491 
Q 220 494 , 214 496 
Q 210 497 , 204 497 
Q 190 497 , 183 489 
Q 175 480 , 175 466 
Q 175 451 , 183 443 
Q 190 434 , 204 434 
Q 210 434 , 215 436 
Q 220 437 , 225 441 
" fill="#545FFF" />
<path d="
M 267 488 
L 267 471 
L 253 471 
L 253 464 
L 275 464 
L 275 492 
Q 270 495 , 264 496 
Q 259 497 , 253 497 
Q 240 497 , 233 489 
Q 225 480 , 225 466 
Q 225 451 , 233 442 
Q 240 434 , 253 434 
Q 259 434 , 264 435 
Q 269 436 , 274 439 
L 274 447 
Q 267 444 , 263 443 
Q 259 442 , 254 442 
Q 244 442 , 238 447 
Q 233 453 , 233 466 
Q 233 478 , 238 484 
Q 244 490 , 254 490 
Q 259 490 , 262 489 
Q 266 489 , 267 488 
" fill="lightgray" />
<path d="
M 380 547 
L 380 548 
Q 365 547 , 357 547 
Q 349 547 , 339 547 
Q 318 547 , 308 548 
Q 296 549 , 296 550 
Q 296 552 , 308 553 
Q 318 554 , 339 554 
Q 349 554 , 357 554 
Q 365 553 , 380 553 
L 380 554 
Q 369 554 , 359 555 
Q 349 555 , 338 555 
Q 311 555 , 296 554 
Q 280 552 , 280 550 
Q 280 548 , 296 547 
Q 311 546 , 338 546 
Q 349 546 , 359 546 
Q 370 546 , 380 547 
" fill="#545FFF" />
<path d="
M 364 544 
L 364 541 
L 335 541 
L 335 540 
L 380 540 
L 380 545 
Q 369 545 , 358 545 
Q 349 546 , 337 546 
Q 311 546 , 295 544 
Q 280 543 , 280 540 
Q 280 537 , 295 536 
Q 311 534 , 337 534 
Q 348 534 , 357 534 
Q 367 534 , 377 535 
L 377 536 
Q 364 536 , 356 536 
Q 347 535 , 338 535 
Q 317 535 , 306 536 
Q 296 538 , 296 540 
Q 296 542 , 306 543 
Q 317 544 , 338 544 
Q 347 544 , 354 544 
Q 361 544 , 364 544 
" fill="#F5C000" />
<path d="
M 330 521 
L 312 527 
L 346 527 
L 330 521 
M 323 518 
L 337 518 
L 380 533 
L 364 533 
L 352 529 
L 308 529 
L 295 533 
L 280 533 
L 323 518 
" fill="#339541" />
<path d="
M 280 450 
L 298 450 
L 298 490 
Q 298 501 , 306 505 
Q 313 510 , 330 510 
Q 347 510 , 355 505 
Q 362 501 , 362 490 
L 362 450 
L 380 450 
L 380 491 
Q 380 504 , 367 510 
Q 355 517 , 330 517 
Q 306 517 , 293 510 
Q 280 504 , 280 491 
L 280 450 
" fill="#D21010" />
<path d="
M 485 552 
L 485 553 
Q 470 552 , 462 552 
Q 454 552 , 444 552 
Q 423 552 , 413 552 
Q 401 553 , 401 553 
Q 401 554 , 413 554 
Q 423 554 , 444 554 
Q 454 554 , 462 554 
Q 470 554 , 485 554 
L 485 554 
Q 474 554 , 464 554 
Q 454 554 , 443 554 
Q 416 554 , 401 554 
Q 385 554 , 385 553 
Q 385 553 , 401 552 
Q 416 552 , 443 552 
Q 454 552 , 464 552 
Q 475 552 , 485 552 
" fill="#545FFF" />
<path d="
M 435 543 
L 417 547 
L 451 547 
L 435 543 
M 428 541 
L 442 541 
L 485 552 
L 469 552 
L 457 549 
L 413 549 
L 400 552 
L 385 552 
L 428 541 
" fill="#339541" />
<path d="
M 385 522 
L 403 522 
L 403 533 
Q 403 536 , 411 537 
Q 418 538 , 435 538 
Q 452 538 , 460 537 
Q 467 536 , 467 533 
L 467 522 
L 485 522 
L 485 533 
Q 485 537 , 472 539 
Q 460 541 , 435 541 
Q 411 541 , 398 539 
Q 385 537 , 385 533 
L 385 522 
" fill="#D21010" />
<path d="
M 469 519 
L 469 513 
L 440 513 
L 440 511 
L 485 511 
L 485 520 
Q 474 521 , 463 521 
Q 454 521 , 442 521 
Q 416 521 , 400 519 
Q 385 516 , 385 512 
Q 385 507 , 400 505 
Q 416 502 , 442 502 
Q 453 502 , 462 502 
Q 472 503 , 482 504 
L 482 506 
Q 469 505 , 461 505 
Q 452 504 , 443 504 
Q 422 504 , 411 506 
Q 401 508 , 401 512 
Q 401 515 , 411 517 
Q 422 519 , 443 519 
Q 452 519 , 459 519 
Q 466 519 , 469 519 
" fill="#F5C000" />
<path d="
M 540 551 
L 522 553 
L 556 553 
L 540 551 
M 533 550 
L 547 550 
L 590 554 
L 574 554 
L 562 553 
L 518 553 
L 505 554 
L 490 554 
L 533 550 
" fill="#339541" />
<path d="
M 574 549 
L 574 547 
L 545 547 
L 545 547 
L 590 547 
L 590 549 
Q 579 549 , 568 549 
Q 559 549 , 547 549 
Q 521 549 , 505 549 
Q 490 548 , 490 547 
Q 490 545 , 505 545 
Q 521 544 , 547 544 
Q 558 544 , 567 544 
Q 577 544 , 587 544 
L 587 545 
Q 574 545 , 566 545 
Q 557 545 , 548 545 
Q 527 545 , 516 545 
Q 506 546 , 506 547 
Q 506 548 , 516 548 
Q 527 549 , 548 549 
Q 557 549 , 564 549 
Q 571 549 , 574 549 
" fill="#F5C000" />
<path d="
M 490 529 
L 508 529 
L 508 537 
Q 508 540 , 516 541 
Q 523 542 , 540 542 
Q 557 542 , 565 541 
Q 572 540 , 572 537 
L 572 529 
L 590 529 
L 590 538 
Q 590 540 , 577 542 
Q 565 543 , 540 543 
Q 516 543 , 503 542 
Q 490 540 , 490 538 
L 490 529 
" fill="#D21010" />
<path d="
M 590 513 
L 590 515 
Q 575 514 , 567 513 
Q 559 513 , 549 513 
Q 528 513 , 518 515 
Q 506 516 , 506 519 
Q 506 523 , 518 525 
Q 528 526 , 549 526 
Q 559 526 , 567 526 
Q 575 525 , 590 524 
L 590 526 
Q 579 527 , 569 528 
Q 559 528 , 548 528 
Q 521 528 , 506 526 
Q 490 523 , 490 520 
Q 490 516 , 506 513 
Q 521 511 , 548 511 
Q 559 511 , 569 511 
Q 580 512 , 590 513 
" fill="#545FFF" />
<path d="
M 695 549 
L 695 550 
Q 680 549 , 672 549 
Q 664 549 , 654 549 
Q 633 549 , 623 549 
Q 611 550 , 611 551 
Q 611 552 , 623 553 
Q 633 553 , 654 553 
Q 664 553 , 672 553 
Q 680 553 , 695 553 
L 695 554 
Q 684 554 , 674 554 
Q 664 554 , 653 554 
Q 626 554 , 611 553 
Q 595 552 , 595 551 
Q 595 550 , 611 549 
Q 626 548 , 653 548 
Q 664 548 , 674 548 
Q 685 548 , 695 549 
" fill="#545FFF" />
<path d="
M 595 538 
L 613 538 
L 613 544 
Q 613 545 , 621 546 
Q 628 546 , 645 546 
Q 662 546 , 670 546 
Q 677 545 , 677 544 
L 677 538 
L 695 538 
L 695 544 
Q 695 546 , 682 546 
Q 670 547 , 645 547 
Q 621 547 , 608 546 
Q 595 546 , 595 544 
L 595 538 
" fill="#D21010" />
<path d="
M 645 526 
L 627 531 
L 661 531 
L 645 526 
M 638 523 
L 652 523 
L 695 537 
L 679 537 
L 667 533 
L 623 533 
L 610 537 
L 595 537 
L 638 523 
" fill="#339541" />
<path d="
M 679 517 
L 679 507 
L 650 507 
L 650 503 
L 695 503 
L 695 520 
Q 684 522 , 673 522 
Q 664 523 , 652 523 
Q 626 523 , 610 518 
Q 595 513 , 595 504 
Q 595 495 , 610 490 
Q 626 485 , 652 485 
Q 663 485 , 672 486 
Q 682 486 , 692 488 
L 692 493 
Q 679 491 , 671 490 
Q 662 490 , 653 490 
Q 632 490 , 621 493 
Q 611 497 , 611 504 
Q 611 511 , 621 515 
Q 632 519 , 653 519 
Q 662 519 , 669 518 
Q 676 518 , 679 517 
" fill="#F5C000" />
<path d="
M 800 554 
L 800 554 
Q 785 554 , 777 554 
Q 769 554 , 759 554 
Q 738 554 , 728 554 
Q 716 554 , 716 554 
Q 716 555 , 728 555 
Q 738 555 , 759 555 
Q 769 555 , 777 555 
Q 785 555 , 800 555 
L 800 555 
Q 789 555 , 779 555 
Q 769 555 , 758 555 
Q 731 555 , 716 555 
Q 700 555 , 700 554 
Q 700 554 , 716 554 
Q 731 554 , 758 554 
Q 769 554 , 779 554 
Q 790 554 , 800 554 
" fill="#545FFF" />
<path d="
M 700 553 
L 718 553 
L 718 554 
Q 718 554 , 726 554 
Q 733 554 , 750 554 
Q 767 554 , 775 554 
Q 782 554 , 782 554 
L 782 553 
L 800 553 
L 800 554 
Q 800 554 , 787 554 
Q 775 554 , 750 554 
Q 726 554 , 713 554 
Q 700 554 , 700 554 
L 700 553 
" fill="#D21010" />
<path d="
M 750 552 
L 732 553 
L 766 553 
L 750 552 
M 743 552 
L 757 552 
L 800 553 
L 784 553 
L 772 553 
L 728 553 
L 715 553 
L 700 553 
L 743 552 
" fill="#339541" />
<path d="
M 784 551 
L 784 551 
L 755 551 
L 755 551 
L 800 551 
L 800 551 
Q 789 551 , 778 551 
Q 769 551 , 757 551 
Q 731 551 , 715 551 
Q 700 551 , 700 551 
Q 700 550 , 715 550 
Q 731 550 , 757 550 
Q 768 550 , 777 550 
Q 787 550 , 797 550 
L 797 550 
Q 784 550 , 776 550 
Q 767 550 , 758 550 
Q 737 550 , 726 550 
Q 716 550 , 716 551 
Q 716 551 , 726 551 
Q 737 551 , 758 551 
Q 767 551 , 774 551 
Q 781 551 , 784 551 
" fill="#F5C000" />
<path d="
M 905 552 
L 905 553 
Q 890 552 , 882 552 
Q 874 552 , 864 552 
Q 843 552 , 833 553 
Q 821 553 , 821 553 
Q 821 554 , 833 554 
Q 843 554 , 864 554 
Q 874 554 , 882 554 
Q 890 554 , 905 554 
L 905 554 
Q 894 555 , 884 555 
Q 874 555 , 863 555 
Q 836 555 , 821 554 
Q 805 554 , 805 553 
Q 805 553 , 821 552 
Q 836 552 , 863 552 
Q 874 552 , 884 552 
Q 895 552 , 905 552 
" fill="#545FFF" />
<path d="
M 805 545 
L 823 545 
L 823 549 
Q 823 550 , 831 550 
Q 838 550 , 855 550 
Q 872 550 , 880 550 
Q 887 550 , 887 549 
L 887 545 
L 905 545 
L 905 549 
Q 905 550 , 892 550 
Q 880 551 , 855 551 
Q 831 551 , 818 550 
Q 805 550 , 805 549 
L 805 545 
" fill="#D21010" />
<path d="
M 889 536 
L 889 522 
L 860 522 
L 860 516 
L 905 516 
L 905 540 
Q 894 542 , 883 543 
Q 874 544 , 862 544 
Q 836 544 , 820 537 
Q 805 530 , 805 517 
Q 805 504 , 820 497 
Q 836 490 , 862 490 
Q 873 490 , 882 491 
Q 892 492 , 902 494 
L 902 501 
Q 889 498 , 881 497 
Q 872 496 , 863 496 
Q 842 496 , 831 501 
Q 821 507 , 821 517 
Q 821 528 , 831 533 
Q 842 538 , 863 538 
Q 872 538 , 879 537 
Q 886 537 , 889 536 
" fill="#F5C000" />
<path d="
M 855 440 
L 837 465 
L 871 465 
L 855 440 
M 848 429 
L 862 429 
L 905 489 
L 889 489 
L 877 472 
L 833 472 
L 820 489 
L 805 489 
L 848 429 
" fill="#339541" />
<path d="
M 910 552 
L 919 552 
L 919 553 
Q 919 554 , 923 554 
Q 926 554 , 935 554 
Q 944 554 , 947 554 
Q 951 554 , 951 553 
L 951 552 
L 960 552 
L 960 553 
Q 960 554 , 954 554 
Q 947 554 , 935 554 
Q 923 554 , 916 554 
Q 910 554 , 910 553 
L 910 552 
" fill="lightgray" />
<path d="
M 1002 554 
L 1002 553 
L 988 553 
L 988 553 
L 1010 553 
L 1010 554 
Q 1005 554 , 999 554 
Q 994 554 , 988 554 
Q 975 554 , 968 554 
Q 960 554 , 960 553 
Q 960 553 , 968 552 
Q 975 552 , 988 552 
Q 994 552 , 999 552 
Q 1004 552 , 1009 552 
L 1009 553 
Q 1002 552 , 998 552 
Q 994 552 , 989 552 
Q 979 552 , 973 553 
Q 968 553 , 968 553 
Q 968 554 , 973 554 
Q 979 554 , 989 554 
Q 994 554 , 997 554 
Q 1001 554 , 1002 554 
" fill="#F5C000" />
<path d="
M 952 550 
L 952 548 
L 938 548 
L 938 547 
L 960 547 
L 960 551 
Q 955 551 , 949 551 
Q 944 552 , 938 552 
Q 925 552 , 918 550 
Q 910 549 , 910 547 
Q 910 545 , 918 544 
Q 925 543 , 938 543 
Q 944 543 , 949 543 
Q 954 543 , 959 544 
L 959 545 
Q 952 544 , 948 544 
Q 944 544 , 939 544 
Q 929 544 , 923 545 
Q 918 546 , 918 547 
Q 918 549 , 923 550 
Q 929 551 , 939 551 
Q 944 551 , 947 550 
Q 951 550 , 952 550 
" fill="lightgray" />
<path d="
M 960 543 
L 969 543 
L 969 548 
Q 969 549 , 973 550 
Q 976 551 , 985 551 
Q 994 551 , 997 550 
Q 1001 549 , 1001 548 
L 1001 543 
L 1010 543 
L 1010 548 
Q 1010 550 , 1004 551 
Q 997 552 , 985 552 
Q 973 552 , 966 551 
Q 960 550 , 960 548 
L 960 543 
" fill="#D21010" />
<path d="
M 952 541 
L 952 539 
L 938 539 
L 938 538 
L 960 538 
L 960 542 
Q 955 542 , 949 542 
Q 944 543 , 938 543 
Q 925 543 , 918 541 
Q 910 540 , 910 538 
Q 910 536 , 918 534 
Q 925 533 , 938 533 
Q 944 533 , 949 533 
Q 954 533 , 959 534 
L 959 535 
Q 952 534 , 948 534 
Q 944 534 , 939 534 
Q 929 534 , 923 535 
Q 918 536 , 918 538 
Q 918 540 , 923 541 
Q 929 542 , 939 542 
Q 944 542 , 947 541 
Q 951 541 , 952 541 
" fill="lightgray" />
<path d="
M 1010 534 
L 1010 536 
Q 1003 535 , 999 534 
Q 994 534 , 989 534 
Q 979 534 , 974 535 
Q 968 536 , 968 538 
Q 968 540 , 974 541 
Q 979 542 , 989 542 
Q 994 542 , 999 541 
Q 1003 541 , 1010 540 
L 1010 542 
Q 1005 542 , 999 542 
Q 995 543 , 989 543 
Q 975 543 , 968 541 
Q 960 540 , 960 538 
Q 960 536 , 968 534 
Q 975 533 , 989 533 
Q 995 533 , 1000 533 
Q 1005 533 , 1010 534 
" fill="#545FFF" />
<path d="
M 910 518 
L 919 518 
L 919 527 
Q 919 529 , 923 530 
Q 926 531 , 935 531 
Q 944 531 , 947 530 
Q 951 529 , 951 527 
L 951 518 
L 960 518 
L 960 527 
Q 960 530 , 954 531 
Q 947 533 , 935 533 
Q 923 533 , 916 531 
Q 910 530 , 910 527 
L 910 518 
" fill="lightgray" />
<path d="
M 985 521 
L 976 527 
L 993 527 
L 985 521 
M 981 518 
L 989 518 
L 1010 533 
L 1002 533 
L 996 528 
L 974 528 
L 967 533 
L 960 533 
L 981 518 
" fill="#339541" />
<path d="
M 935 502 
L 926 510 
L 943 510 
L 935 502 
M 931 498 
L 939 498 
L 960 518 
L 952 518 
L 946 512 
L 924 512 
L 917 518 
L 910 518 
L 931 498 
" fill="lightgray" />
<path d="
M 960 498 
L 969 498 
L 969 510 
Q 969 513 , 973 514 
Q 976 516 , 985 516 
Q 994 516 , 997 514 
Q 1001 513 , 1001 510 
L 1001 498 
L 1010 498 
L 1010 510 
Q 1010 514 , 1004 516 
Q 997 518 , 985 518 
Q 973 518 , 966 516 
Q 960 514 , 960 510 
L 960 498 
" fill="#D21010" />
<path d="
M 960 441 
L 960 450 
Q 953 444 , 949 443 
Q 944 441 , 939 441 
Q 929 441 , 924 447 
Q 918 453 , 918 465 
Q 918 478 , 924 484 
Q 929 490 , 939 490 
Q 944 490 , 949 489 
Q 953 487 , 960 481 
L 960 491 
Q 955 494 , 949 496 
Q 945 497 , 939 497 
Q 925 497 , 918 489 
Q 910 480 , 910 466 
Q 910 451 , 918 443 
Q 925 434 , 939 434 
Q 945 434 , 950 436 
Q 955 437 , 960 441 
" fill="lightgray" />
<path d="
M 1002 488 
L 1002 471 
L 988 471 
L 988 464 
L 1010 464 
L 1010 492 
Q 1005 495 , 999 496 
Q 994 497 , 988 497 
Q 975 497 , 968 489 
Q 960 480 , 960 466 
Q 960 451 , 968 442 
Q 975 434 , 988 434 
Q 994 434 , 999 435 
Q 1004 436 , 1009 439 
L 1009 447 
Q 1002 444 , 998 443 
Q 994 442 , 989 442 
Q 979 442 , 973 447 
Q 968 453 , 968 466 
Q 968 478 , 973 484 
Q 979 490 , 989 490 
Q 994 490 , 997 489 
Q 1001 489 , 1002 488 
" fill="#F5C000" />
<path d="
M 1015 551 
L 1033 551 
L 1033 553 
Q 1033 553 , 1041 554 
Q 1048 554 , 1065 554 
Q 1082 554 , 1090 554 
Q 1097 553 , 1097 553 
L 1097 551 
L 1115 551 
L 1115 553 
Q 1115 554 , 1102 554 
Q 1090 554 , 1065 554 
Q 1041 554 , 1028 554 
Q 1015 554 , 1015 553 
L 1015 551 
" fill="#D21010" />
<path d="
M 1115 541 
L 1115 543 
Q 1100 542 , 1092 541 
Q 1084 541 , 1074 541 
Q 1053 541 , 1043 542 
Q 1031 543 , 1031 545 
Q 1031 547 , 1043 548 
Q 1053 549 , 1074 549 
Q 1084 549 , 1092 549 
Q 1100 549 , 1115 548 
L 1115 549 
Q 1104 550 , 1094 550 
Q 1084 550 , 1073 550 
Q 1046 550 , 1031 549 
Q 1015 547 , 1015 545 
Q 1015 543 , 1031 541 
Q 1046 540 , 1073 540 
Q 1084 540 , 1094 540 
Q 1105 541 , 1115 541 
" fill="#545FFF" />
<path d="
M 1099 535 
L 1099 526 
L 1070 526 
L 1070 523 
L 1115 523 
L 1115 537 
Q 1104 539 , 1093 539 
Q 1084 540 , 1072 540 
Q 1046 540 , 1030 535 
Q 1015 531 , 1015 523 
Q 1015 516 , 1030 511 
Q 1046 507 , 1072 507 
Q 1083 507 , 1092 508 
Q 1102 508 , 1112 510 
L 1112 514 
Q 1099 512 , 1091 511 
Q 1082 511 , 1073 511 
Q 1052 511 , 1041 514 
Q 1031 517 , 1031 523 
Q 1031 530 , 1041 533 
Q 1052 536 , 1073 536 
Q 1082 536 , 1089 536 
Q 1096 535 , 1099 535 
" fill="#F5C000" />
<path d="
M 1065 427 
L 1047 467 
L 1081 467 
L 1065 427 
M 1058 409 
L 1072 409 
L 1115 507 
L 1099 507 
L 1087 478 
L 1043 478 
L 1030 507 
L 1015 507 
L 1058 409 
" fill="#339541" />
<path d="
M 1220 551 
L 1220 552 
Q 1205 552 , 1197 552 
Q 1189 551 , 1179 551 
Q 1158 551 , 1148 552 
Q 1136 552 , 1136 553 
Q 1136 554 , 1148 554 
Q 1158 554 , 1179 554 
Q 1189 554 , 1197 554 
Q 1205 554 , 1220 554 
L 1220 554 
Q 1209 555 , 1199 555 
Q 1189 555 , 1178 555 
Q 1151 555 , 1136 554 
Q 1120 554 , 1120 553 
Q 1120 552 , 1136 552 
Q 1151 551 , 1178 551 
Q 1189 551 , 1199 551 
Q 1210 551 , 1220 551 
" fill="#545FFF" />
<path d="
M 1204 550 
L 1204 549 
L 1175 549 
L 1175 549 
L 1220 549 
L 1220 551 
Q 1209 551 , 1198 551 
Q 1189 551 , 1177 551 
Q 1151 551 , 1135 550 
Q 1120 550 , 1120 549 
Q 1120 548 , 1135 548 
Q 1151 547 , 1177 547 
Q 1188 547 , 1197 547 
Q 1207 547 , 1217 547 
L 1217 548 
Q 1204 548 , 1196 548 
Q 1187 547 , 1178 547 
Q 1157 547 , 1146 548 
Q 1136 548 , 1136 549 
Q 1136 550 , 1146 550 
Q 1157 551 , 1178 551 
Q 1187 551 , 1194 550 
Q 1201 550 , 1204 550 
" fill="#F5C000" />
<path d="
M 1170 540 
L 1152 543 
L 1186 543 
L 1170 540 
M 1163 539 
L 1177 539 
L 1220 547 
L 1204 547 
L 1192 544 
L 1148 544 
L 1135 547 
L 1120 547 
L 1163 539 
" fill="#339541" />
<path d="
M 1120 528 
L 1138 528 
L 1138 534 
Q 1138 536 , 1146 537 
Q 1153 537 , 1170 537 
Q 1187 537 , 1195 537 
Q 1202 536 , 1202 534 
L 1202 528 
L 1220 528 
L 1220 534 
Q 1220 536 , 1207 537 
Q 1195 538 , 1170 538 
Q 1146 538 , 1133 537 
Q 1120 536 , 1120 534 
L 1120 528 
" fill="#D21010" />
<path d="
M 1275 550 
L 1257 552 
L 1291 552 
L 1275 550 
M 1268 549 
L 1282 549 
L 1325 554 
L 1309 554 
L 1297 553 
L 1253 553 
L 1240 554 
L 1225 554 
L 1268 549 
" fill="#339541" />
<path d="
M 1225 539 
L 1243 539 
L 1243 545 
Q 1243 547 , 1251 547 
Q 1258 548 , 1275 548 
Q 1292 548 , 1300 547 
Q 1307 547 , 1307 545 
L 1307 539 
L 1325 539 
L 1325 545 
Q 1325 547 , 1312 548 
Q 1300 549 , 1275 549 
Q 1251 549 , 1238 548 
Q 1225 547 , 1225 545 
L 1225 539 
" fill="#D21010" />
<path d="
M 1325 515 
L 1325 519 
Q 1310 516 , 1302 516 
Q 1294 515 , 1284 515 
Q 1263 515 , 1253 518 
Q 1241 520 , 1241 525 
Q 1241 531 , 1253 533 
Q 1263 536 , 1284 536 
Q 1294 536 , 1302 535 
Q 1310 535 , 1325 532 
L 1325 536 
Q 1314 538 , 1304 538 
Q 1294 539 , 1283 539 
Q 1256 539 , 1241 535 
Q 1225 532 , 1225 525 
Q 1225 519 , 1241 516 
Q 1256 512 , 1283 512 
Q 1294 512 , 1304 513 
Q 1315 513 , 1325 515 
" fill="#545FFF" />
<path d="
M 1309 500 
L 1309 478 
L 1280 478 
L 1280 469 
L 1325 469 
L 1325 505 
Q 1314 509 , 1303 510 
Q 1294 511 , 1282 511 
Q 1256 511 , 1240 501 
Q 1225 490 , 1225 471 
Q 1225 452 , 1240 442 
Q 1256 431 , 1282 431 
Q 1293 431 , 1302 432 
Q 1312 434 , 1322 438 
L 1322 448 
Q 1309 443 , 1301 442 
Q 1292 441 , 1283 441 
Q 1262 441 , 1251 448 
Q 1241 456 , 1241 471 
Q 1241 487 , 1251 495 
Q 1262 502 , 1283 502 
Q 1292 502 , 1299 502 
Q 1306 501 , 1309 500 
" fill="#F5C000" />
<path d="
M 1430 554 
L 1430 554 
Q 1415 554 , 1407 554 
Q 1399 554 , 1389 554 
Q 1368 554 , 1358 554 
Q 1346 554 , 1346 554 
Q 1346 555 , 1358 555 
Q 1368 555 , 1389 555 
Q 1399 555 , 1407 555 
Q 1415 555 , 1430 555 
L 1430 555 
Q 1419 555 , 1409 555 
Q 1399 555 , 1388 555 
Q 1361 555 , 1346 555 
Q 1330 555 , 1330 554 
Q 1330 554 , 1346 554 
Q 1361 554 , 1388 554 
Q 1399 554 , 1409 554 
Q 1420 554 , 1430 554 
" fill="#545FFF" />
<path d="
M 1330 553 
L 1348 553 
L 1348 554 
Q 1348 554 , 1356 554 
Q 1363 554 , 1380 554 
Q 1397 554 , 1405 554 
Q 1412 554 , 1412 554 
L 1412 553 
L 1430 553 
L 1430 554 
Q 1430 554 , 1417 554 
Q 1405 554 , 1380 554 
Q 1356 554 , 1343 554 
Q 1330 554 , 1330 554 
L 1330 553 
" fill="#D21010" />
<path d="
M 1380 552 
L 1362 553 
L 1396 553 
L 1380 552 
M 1373 552 
L 1387 552 
L 1430 553 
L 1414 553 
L 1402 553 
L 1358 553 
L 1345 553 
L 1330 553 
L 1373 552 
" fill="#339541" />
<path d="
M 1414 551 
L 1414 551 
L 1385 551 
L 1385 551 
L 1430 551 
L 1430 551 
Q 1419 551 , 1408 551 
Q 1399 551 , 1387 551 
Q 1361 551 , 1345 551 
Q 1330 551 , 1330 551 
Q 1330 550 , 1345 550 
Q 1361 550 , 1387 550 
Q 1398 550 , 1407 550 
Q 1417 550 , 1427 550 
L 1427 550 
Q 1414 550 , 1406 550 
Q 1397 550 , 1388 550 
Q 1367 550 , 1356 550 
Q 1346 550 , 1346 551 
Q 1346 551 , 1356 551 
Q 1367 551 , 1388 551 
Q 1397 551 , 1404 551 
Q 1411 551 , 1414 551 
" fill="#F5C000" />
<path d="M 65 168 L 65 555 " stroke="black" stroke-width="1.5"/>
<path d="M 55 555 L 65 555 " stroke="black" stroke-width="4"/>
<text text-anchor="end" x="50" y="555" font-size="50" alignment-baseline="middle">0</text>
<path d="M 55 362 L 65 362 " stroke="black" stroke-width="4"/>
<text text-anchor="end" x="50" y="362" font-size="50" alignment-baseline="middle">1</text>
<path d="M 55 168 L 65 168 " stroke="black" stroke-width="4"/>
<text text-anchor="end" x="50" y="168" font-size="50" alignment-baseline="middle">2</text>
<text text-anchor="middle" x="750" y="50" font-size="50" alignment-baseline="baseline"></text>
G<path d="
M 160 582 
L 126 595 
L 160 608 
L 157 611 
L 123 598 
L 123 623 
L 117 623 
L 117 599 
L 83 611 
L 80 608 
L 114 595 
L 80 582 
L 83 579 
L 117 591 
L 117 567 
L 123 567 
L 123 591 
L 157 579 
L 160 582 
" fill="black" />
<path d="
M 265 567 
Q 236 574 , 223 581 
Q 210 588 , 210 595 
Q 210 602 , 223 609 
Q 236 616 , 265 623 
L 241 623 
Q 213 616 , 199 609 
Q 185 602 , 185 595 
Q 185 588 , 199 581 
Q 213 574 , 241 567 
L 265 567 
" fill="black" />
<path d="
" fill="black" />
<path d="
M 316 567 
L 343 567 
L 343 623 
L 316 623 
L 316 567 
" fill="black" />
<path d="
" fill="black" />
<path d="
" fill="black" />
<path d="
M 421 567 
L 448 567 
L 448 623 
L 421 623 
L 421 567 
" fill="black" />
<path d="
" fill="black" />
<path d="
" fill="black" />
<path d="
M 526 567 
L 553 567 
L 553 623 
L 526 623 
L 526 567 
" fill="black" />
<path d="
" fill="black" />
<path d="
" fill="black" />
<path d="
M 622 567 
L 642 567 
L 642 623 
L 622 623 
L 622 567 
" fill="black" />
<path d="
" fill="black" />
<path d="
M 672 567 
L 692 567 
L 692 571 
L 680 623 
L 677 623 
L 689 571 
L 672 571 
L 672 567 
" fill="black" />
<path d="
M 790 582 
L 756 595 
L 790 608 
L 787 611 
L 753 598 
L 753 623 
L 747 623 
L 747 599 
L 713 611 
L 710 608 
L 744 595 
L 710 582 
L 713 579 
L 747 591 
L 747 567 
L 753 567 
L 753 591 
L 787 579 
L 790 582 
" fill="black" />
<path d="
" fill="black" />
<path d="
M 841 567 
L 868 567 
L 868 623 
L 841 623 
L 841 567 
" fill="black" />
<path d="
" fill="black" />
<path d="
M 920 567 
L 944 567 
Q 972 574 , 986 581 
Q 1000 588 , 1000 595 
Q 1000 602 , 986 609 
Q 972 616 , 944 623 
L 920 623 
Q 949 616 , 962 609 
Q 975 602 , 975 595 
Q 975 588 , 962 581 
Q 949 574 , 920 567 
" fill="black" />
<path d="
" fill="black" />
<path d="
M 1051 567 
L 1078 567 
L 1078 623 
L 1051 623 
L 1051 567 
" fill="black" />
<path d="
" fill="black" />
<path d="
" fill="black" />
<path d="
M 1156 567 
L 1183 567 
L 1183 623 
L 1156 623 
L 1156 567 
" fill="black" />
<path d="
" fill="black" />
<path d="
" fill="black" />
<path d="
M 1261 567 
L 1288 567 
L 1288 623 
L 1261 623 
L 1261 567 
" fill="black" />
<path d="
" fill="black" />
<path d="
M 1420 582 
L 1386 595 
L 1420 608 
L 1417 611 
L 1383 598 
L 1383 623 
L 1377 623 
L 1377 599 
L 1343 611 
L 1340 608 
L 1374 595 
L 1340 582 
L 1343 579 
L 1377 591 
L 1377 567 
L 1383 567 
L 1383 591 
L 1417 579 
L 1420 582 
" fill="black" />
</svg>
