<svg xmlns="http://www.w3.org/2000/svg"
viewBox="0 0 1435 635">
<path d="
M 120 553 
L 102 554 
L 136 554 
L 120 553 
M 113 553 
L 127 553 
L 170 554 
L 154 554 
L 142 554 
L 98 554 
L 85 554 
L 70 554 
L 113 553 
" fill="#339541" />
<path d="
M 70 551 
L 88 551 
L 88 552 
Q 88 552 , 96 552 
Q 103 552 , 120 552 
Q 137 552 , 145 552 
Q 152 552 , 152 552 
L 152 551 
L 170 551 
L 170 552 
Q 170 552 , 157 552 
Q 145 552 , 120 552 
Q 96 552 , 83 552 
Q 70 552 , 70 552 
L 70 551 
" fill="#D21010" />
<path d="
M 170 549 
L 170 549 
Q 155 549 , 147 549 
Q 139 549 , 129 549 
Q 108 549 , 98 549 
Q 86 549 , 86 549 
Q 86 550 , 98 550 
Q 108 550 , 129 550 
Q 139 550 , 147 550 
Q 155 550 , 170 550 
L 170 550 
Q 159 550 , 149 550 
Q 139 550 , 128 550 
Q 101 550 , 86 550 
Q 70 550 , 70 550 
Q 70 549 , 86 549 
Q 101 549 , 128 549 
Q 139 549 , 149 549 
Q 160 549 , 170 549 
" fill="#545FFF" />
<path d="
M 154 549 
L 154 548 
L 125 548 
L 125 548 
L 170 548 
L 170 549 
Q 159 549 , 148 549 
Q 139 549 , 127 549 
Q 101 549 , 85 549 
Q 70 548 , 70 548 
Q 70 547 , 85 547 
Q 101 547 , 127 547 
Q 138 547 , 147 547 
Q 157 547 , 167 547 
L 167 547 
Q 154 547 , 146 547 
Q 137 547 , 128 547 
Q 107 547 , 96 547 
Q 86 548 , 86 548 
Q 86 548 , 96 548 
Q 107 549 , 128 549 
Q 137 549 , 144 549 
Q 151 549 , 154 549 
" fill="#F5C000" />
<path d="
M 225 551 
L 207 552 
L 241 552 
L 225 551 
M 218 550 
L 232 550 
L 275 554 
L 259 554 
L 247 553 
L 203 553 
L 190 554 
L 175 554 
L 218 550 
" fill="#339541" />
<path d="
M 175 542 
L 193 542 
L 193 546 
Q 193 548 , 201 548 
Q 208 549 , 225 549 
Q 242 549 , 250 548 
Q 257 548 , 257 546 
L 257 542 
L 275 542 
L 275 546 
Q 275 548 , 262 549 
Q 250 549 , 225 549 
Q 201 549 , 188 549 
Q 175 548 , 175 546 
L 175 542 
" fill="#D21010" />
<path d="
M 275 511 
L 275 516 
Q 260 512 , 252 512 
Q 244 511 , 234 511 
Q 213 511 , 203 514 
Q 191 517 , 191 524 
Q 191 531 , 203 534 
Q 213 537 , 234 537 
Q 244 537 , 252 536 
Q 260 536 , 275 532 
L 275 538 
Q 264 539 , 254 540 
Q 244 541 , 233 541 
Q 206 541 , 191 536 
Q 175 532 , 175 524 
Q 175 516 , 191 512 
Q 206 507 , 233 507 
Q 244 507 , 254 508 
Q 265 509 , 275 511 
" fill="#545FFF" />
<path d="
M 259 501 
L 259 492 
L 230 492 
L 230 488 
L 275 488 
L 275 504 
Q 264 505 , 253 506 
Q 244 506 , 232 506 
Q 206 506 , 190 502 
Q 175 497 , 175 489 
Q 175 481 , 190 477 
Q 206 472 , 232 472 
Q 243 472 , 252 473 
Q 262 473 , 272 475 
L 272 479 
Q 259 477 , 251 477 
Q 242 476 , 233 476 
Q 212 476 , 201 479 
Q 191 483 , 191 489 
Q 191 496 , 201 499 
Q 212 502 , 233 502 
Q 242 502 , 249 502 
Q 256 502 , 259 501 
" fill="#F5C000" />
<path d="
M 330 552 
L 312 553 
L 346 553 
L 330 552 
M 323 551 
L 337 551 
L 380 555 
L 364 555 
L 352 554 
L 308 554 
L 295 555 
L 280 555 
L 323 551 
" fill="#339541" />
<path d="
M 364 550 
L 364 549 
L 335 549 
L 335 548 
L 380 548 
L 380 550 
Q 369 550 , 358 551 
Q 349 551 , 337 551 
Q 311 551 , 295 550 
Q 280 549 , 280 548 
Q 280 547 , 295 547 
Q 311 546 , 337 546 
Q 348 546 , 357 546 
Q 367 546 , 377 546 
L 377 547 
Q 364 547 , 356 547 
Q 347 547 , 338 547 
Q 317 547 , 306 547 
Q 296 547 , 296 548 
Q 296 549 , 306 550 
Q 317 550 , 338 550 
Q 347 550 , 354 550 
Q 361 550 , 364 550 
" fill="#F5C000" />
<path d="
M 280 536 
L 298 536 
L 298 541 
Q 298 543 , 306 544 
Q 313 544 , 330 544 
Q 347 544 , 355 544 
Q 362 543 , 362 541 
L 362 536 
L 380 536 
L 380 542 
Q 380 543 , 367 544 
Q 355 545 , 330 545 
Q 306 545 , 293 544 
Q 280 543 , 280 542 
L 280 536 
" fill="#D21010" />
<path d="
M 380 525 
L 380 527 
Q 365 526 , 357 526 
Q 349 525 , 339 525 
Q 318 525 , 308 526 
Q 296 528 , 296 530 
Q 296 532 , 308 533 
Q 318 535 , 339 535 
Q 349 535 , 357 534 
Q 365 534 , 380 533 
L 380 535 
Q 369 535 , 359 536 
Q 349 536 , 338 536 
Q 311 536 , 296 534 
Q 280 533 , 280 530 
Q 280 527 , 296 526 
Q 311 524 , 338 524 
Q 349 524 , 359 524 
Q 370 525 , 380 525 
" fill="#545FFF" />
<path d="
M 427 554 
L 427 554 
L 413 554 
L 413 554 
L 435 554 
L 435 555 
Q 430 555 , 424 555 
Q 419 555 , 413 555 
Q 400 555 , 393 554 
Q 385 554 , 385 554 
Q 385 553 , 393 553 
Q 400 553 , 413 553 
Q 419 553 , 424 553 
Q 429 553 , 434 553 
L 434 553 
Q 427 553 , 423 553 
Q 419 553 , 414 553 
Q 404 553 , 398 553 
Q 393 554 , 393 554 
Q 393 554 , 398 554 
Q 404 554 , 414 554 
Q 419 554 , 422 554 
Q 426 554 , 427 554 
" fill="#F5C000" />
<path d="
M 435 553 
L 444 553 
L 444 554 
Q 444 554 , 448 554 
Q 451 554 , 460 554 
Q 469 554 , 472 554 
Q 476 554 , 476 554 
L 476 553 
L 485 553 
L 485 554 
Q 485 554 , 479 554 
Q 472 555 , 460 555 
Q 448 555 , 441 554 
Q 435 554 , 435 554 
L 435 553 
" fill="lightgray" />
<path d="
M 385 547 
L 394 547 
L 394 550 
Q 394 551 , 398 551 
Q 401 552 , 410 552 
Q 419 552 , 422 551 
Q 426 551 , 426 550 
L 426 547 
L 435 547 
L 435 550 
Q 435 551 , 429 552 
Q 422 552 , 410 552 
Q 398 552 , 391 552 
Q 385 551 , 385 550 
L 385 547 
" fill="#D21010" />
<path d="
M 460 548 
L 451 550 
L 468 550 
L 460 548 
M 456 547 
L 464 547 
L 485 552 
L 477 552 
L 471 551 
L 449 551 
L 442 552 
L 435 552 
L 456 547 
" fill="lightgray" />
<path d="
M 435 539 
L 435 540 
Q 428 539 , 424 539 
Q 419 539 , 414 539 
Q 404 539 , 399 540 
Q 393 541 , 393 542 
Q 393 544 , 399 545 
Q 404 546 , 414 546 
Q 419 546 , 424 545 
Q 428 545 , 435 544 
L 435 546 
Q 430 546 , 424 546 
Q 420 546 , 414 546 
Q 400 546 , 393 545 
Q 385 544 , 385 542 
Q 385 540 , 393 539 
Q 400 538 , 414 538 
Q 420 538 , 425 538 
Q 430 538 , 435 539 
" fill="#545FFF" />
<path d="
M 477 545 
L 477 543 
L 463 543 
L 463 542 
L 485 542 
L 485 546 
Q 480 546 , 474 546 
Q 469 546 , 463 546 
Q 450 546 , 443 545 
Q 435 544 , 435 542 
Q 435 540 , 443 539 
Q 450 538 , 463 538 
Q 469 538 , 474 538 
Q 479 538 , 484 539 
L 484 540 
Q 477 539 , 473 539 
Q 469 539 , 464 539 
Q 454 539 , 448 540 
Q 443 541 , 443 542 
Q 443 544 , 448 545 
Q 454 546 , 464 546 
Q 469 546 , 472 545 
Q 476 545 , 477 545 
" fill="lightgray" />
<path d="
M 385 525 
L 394 525 
L 394 532 
Q 394 534 , 398 535 
Q 401 536 , 410 536 
Q 419 536 , 422 535 
Q 426 534 , 426 532 
L 426 525 
L 435 525 
L 435 532 
Q 435 535 , 429 536 
Q 422 537 , 410 537 
Q 398 537 , 391 536 
Q 385 535 , 385 532 
L 385 525 
" fill="#D21010" />
<path d="
M 477 535 
L 477 532 
L 463 532 
L 463 531 
L 485 531 
L 485 536 
Q 480 537 , 474 537 
Q 469 537 , 463 537 
Q 450 537 , 443 535 
Q 435 534 , 435 531 
Q 435 528 , 443 527 
Q 450 525 , 463 525 
Q 469 525 , 474 525 
Q 479 525 , 484 526 
L 484 528 
Q 477 527 , 473 527 
Q 469 526 , 464 526 
Q 454 526 , 448 528 
Q 443 529 , 443 531 
Q 443 533 , 448 535 
Q 454 536 , 464 536 
Q 469 536 , 472 536 
Q 476 535 , 477 535 
" fill="lightgray" />
<path d="
M 410 483 
L 401 504 
L 418 504 
L 410 483 
M 406 474 
L 414 474 
L 435 525 
L 427 525 
L 421 510 
L 399 510 
L 392 525 
L 385 525 
L 406 474 
" fill="#339541" />
<path d="
M 435 474 
L 444 474 
L 444 504 
Q 444 512 , 448 516 
Q 451 519 , 460 519 
Q 469 519 , 472 516 
Q 476 512 , 476 504 
L 476 474 
L 485 474 
L 485 505 
Q 485 515 , 479 520 
Q 472 525 , 460 525 
Q 448 525 , 441 520 
Q 435 515 , 435 505 
L 435 474 
" fill="lightgray" />
<path d="
M 427 462 
L 427 439 
L 413 439 
L 413 429 
L 435 429 
L 435 467 
Q 430 471 , 424 472 
Q 419 474 , 413 474 
Q 400 474 , 393 462 
Q 385 451 , 385 431 
Q 385 411 , 393 400 
Q 400 388 , 413 388 
Q 419 388 , 424 389 
Q 429 391 , 434 395 
L 434 406 
Q 427 401 , 423 400 
Q 419 398 , 414 398 
Q 404 398 , 398 406 
Q 393 414 , 393 431 
Q 393 448 , 398 456 
Q 404 464 , 414 464 
Q 419 464 , 422 463 
Q 426 463 , 427 462 
" fill="#F5C000" />
<path d="
M 485 397 
L 485 410 
Q 478 402 , 474 400 
Q 469 397 , 464 397 
Q 454 397 , 449 406 
Q 443 414 , 443 431 
Q 443 448 , 449 456 
Q 454 465 , 464 465 
Q 469 465 , 474 462 
Q 478 460 , 485 452 
L 485 465 
Q 480 470 , 474 472 
Q 470 474 , 464 474 
Q 450 474 , 443 462 
Q 435 451 , 435 431 
Q 435 411 , 443 400 
Q 450 388 , 464 388 
Q 470 388 , 475 390 
Q 480 392 , 485 397 
" fill="lightgray" />
<path d="
M 540 552 
L 522 553 
L 556 553 
L 540 552 
M 533 552 
L 547 552 
L 590 554 
L 574 554 
L 562 554 
L 518 554 
L 505 554 
L 490 554 
L 533 552 
" fill="#339541" />
<path d="
M 490 547 
L 508 547 
L 508 550 
Q 508 551 , 516 551 
Q 523 551 , 540 551 
Q 557 551 , 565 551 
Q 572 551 , 572 550 
L 572 547 
L 590 547 
L 590 550 
Q 590 551 , 577 551 
Q 565 552 , 540 552 
Q 516 552 , 503 551 
Q 490 551 , 490 550 
L 490 547 
" fill="#D21010" />
<path d="
M 590 500 
L 590 508 
Q 575 503 , 567 502 
Q 559 501 , 549 501 
Q 528 501 , 518 506 
Q 506 511 , 506 521 
Q 506 531 , 518 536 
Q 528 541 , 549 541 
Q 559 541 , 567 539 
Q 575 538 , 590 533 
L 590 541 
Q 579 544 , 569 545 
Q 559 546 , 548 546 
Q 521 546 , 506 539 
Q 490 532 , 490 521 
Q 490 509 , 506 502 
Q 521 495 , 548 495 
Q 559 495 , 569 496 
Q 580 498 , 590 500 
" fill="#545FFF" />
<path d="
M 574 481 
L 574 457 
L 545 457 
L 545 447 
L 590 447 
L 590 487 
Q 579 491 , 568 493 
Q 559 494 , 547 494 
Q 521 494 , 505 482 
Q 490 470 , 490 449 
Q 490 427 , 505 415 
Q 521 403 , 547 403 
Q 558 403 , 567 405 
Q 577 406 , 587 410 
L 587 422 
Q 574 417 , 566 415 
Q 557 414 , 548 414 
Q 527 414 , 516 422 
Q 506 431 , 506 449 
Q 506 467 , 516 476 
Q 527 484 , 548 484 
Q 557 484 , 564 483 
Q 571 482 , 574 481 
" fill="#F5C000" />
<path d="
M 645 551 
L 627 552 
L 661 552 
L 645 551 
M 638 550 
L 652 550 
L 695 554 
L 679 554 
L 667 553 
L 623 553 
L 610 554 
L 595 554 
L 638 550 
" fill="#339541" />
<path d="
M 679 548 
L 679 547 
L 650 547 
L 650 546 
L 695 546 
L 695 549 
Q 684 549 , 673 549 
Q 664 549 , 652 549 
Q 626 549 , 610 548 
Q 595 548 , 595 547 
Q 595 545 , 610 545 
Q 626 544 , 652 544 
Q 663 544 , 672 544 
Q 682 544 , 692 544 
L 692 545 
Q 679 545 , 671 545 
Q 662 545 , 653 545 
Q 632 545 , 621 545 
Q 611 546 , 611 547 
Q 611 548 , 621 548 
Q 632 549 , 653 549 
Q 662 549 , 669 548 
Q 676 548 , 679 548 
" fill="#F5C000" />
<path d="
M 695 531 
L 695 533 
Q 680 532 , 672 532 
Q 664 531 , 654 531 
Q 633 531 , 623 533 
Q 611 534 , 611 536 
Q 611 539 , 623 541 
Q 633 542 , 654 542 
Q 664 542 , 672 541 
Q 680 541 , 695 540 
L 695 542 
Q 684 543 , 674 543 
Q 664 543 , 653 543 
Q 626 543 , 611 541 
Q 595 540 , 595 537 
Q 595 534 , 611 532 
Q 626 530 , 653 530 
Q 664 530 , 674 530 
Q 685 531 , 695 531 
" fill="#545FFF" />
<path d="
M 595 516 
L 613 516 
L 613 524 
Q 613 526 , 621 527 
Q 628 528 , 645 528 
Q 662 528 , 670 527 
Q 677 526 , 677 524 
L 677 516 
L 695 516 
L 695 524 
Q 695 527 , 682 528 
Q 670 530 , 645 530 
Q 621 530 , 608 528 
Q 595 527 , 595 524 
L 595 516 
" fill="#D21010" />
<path d="
M 750 553 
L 732 554 
L 766 554 
L 750 553 
M 743 553 
L 757 553 
L 800 554 
L 784 554 
L 772 554 
L 728 554 
L 715 554 
L 700 554 
L 743 553 
" fill="#339541" />
<path d="
M 700 551 
L 718 551 
L 718 552 
Q 718 552 , 726 552 
Q 733 552 , 750 552 
Q 767 552 , 775 552 
Q 782 552 , 782 552 
L 782 551 
L 800 551 
L 800 552 
Q 800 552 , 787 552 
Q 775 552 , 750 552 
Q 726 552 , 713 552 
Q 700 552 , 700 552 
L 700 551 
" fill="#D21010" />
<path d="
M 800 549 
L 800 549 
Q 785 549 , 777 549 
Q 769 549 , 759 549 
Q 738 549 , 728 549 
Q 716 549 , 716 549 
Q 716 550 , 728 550 
Q 738 550 , 759 550 
Q 769 550 , 777 550 
Q 785 550 , 800 550 
L 800 550 
Q 789 550 , 779 550 
Q 769 550 , 758 550 
Q 731 550 , 716 550 
Q 700 550 , 700 550 
Q 700 549 , 716 549 
Q 731 549 , 758 549 
Q 769 549 , 779 549 
Q 790 549 , 800 549 
" fill="#545FFF" />
<path d="
M 784 549 
L 784 548 
L 755 548 
L 755 548 
L 800 548 
L 800 549 
Q 789 549 , 778 549 
Q 769 549 , 757 549 
Q 731 549 , 715 549 
Q 700 548 , 700 548 
Q 700 547 , 715 547 
Q 731 547 , 757 547 
Q 768 547 , 777 547 
Q 787 547 , 797 547 
L 797 547 
Q 784 547 , 776 547 
Q 767 547 , 758 547 
Q 737 547 , 726 547 
Q 716 548 , 716 548 
Q 716 548 , 726 548 
Q 737 549 , 758 549 
Q 767 549 , 774 549 
Q 781 549 , 784 549 
" fill="#F5C000" />
<path d="
M 855 550 
L 837 552 
L 871 552 
L 855 550 
M 848 549 
L 862 549 
L 905 554 
L 889 554 
L 877 553 
L 833 553 
L 820 554 
L 805 554 
L 848 549 
" fill="#339541" />
<path d="
M 905 537 
L 905 539 
Q 890 538 , 882 538 
Q 874 537 , 864 537 
Q 843 537 , 833 539 
Q 821 540 , 821 542 
Q 821 544 , 833 546 
Q 843 547 , 864 547 
Q 874 547 , 882 547 
Q 890 546 , 905 545 
L 905 547 
Q 894 548 , 884 548 
Q 874 548 , 863 548 
Q 836 548 , 821 547 
Q 805 545 , 805 542 
Q 805 539 , 821 538 
Q 836 536 , 863 536 
Q 874 536 , 884 536 
Q 895 537 , 905 537 
" fill="#545FFF" />
<path d="
M 805 521 
L 823 521 
L 823 530 
Q 823 532 , 831 533 
Q 838 534 , 855 534 
Q 872 534 , 880 533 
Q 887 532 , 887 530 
L 887 521 
L 905 521 
L 905 530 
Q 905 533 , 892 534 
Q 880 536 , 855 536 
Q 831 536 , 818 534 
Q 805 533 , 805 530 
L 805 521 
" fill="#D21010" />
<path d="
M 889 515 
L 889 502 
L 860 502 
L 860 498 
L 905 498 
L 905 518 
Q 894 519 , 883 520 
Q 874 521 , 862 521 
Q 836 521 , 820 515 
Q 805 509 , 805 499 
Q 805 488 , 820 482 
Q 836 476 , 862 476 
Q 873 476 , 882 477 
Q 892 478 , 902 480 
L 902 485 
Q 889 483 , 881 482 
Q 872 481 , 863 481 
Q 842 481 , 831 486 
Q 821 490 , 821 499 
Q 821 507 , 831 512 
Q 842 516 , 863 516 
Q 872 516 , 879 516 
Q 886 515 , 889 515 
" fill="#F5C000" />
<path d="
M 960 551 
L 942 553 
L 976 553 
L 960 551 
M 953 550 
L 967 550 
L 1010 555 
L 994 555 
L 982 553 
L 938 553 
L 925 555 
L 910 555 
L 953 550 
" fill="#339541" />
<path d="
M 910 544 
L 928 544 
L 928 547 
Q 928 548 , 936 549 
Q 943 549 , 960 549 
Q 977 549 , 985 549 
Q 992 548 , 992 547 
L 992 544 
L 1010 544 
L 1010 548 
Q 1010 549 , 997 549 
Q 985 550 , 960 550 
Q 936 550 , 923 549 
Q 910 549 , 910 548 
L 910 544 
" fill="#D21010" />
<path d="
M 994 541 
L 994 536 
L 965 536 
L 965 534 
L 1010 534 
L 1010 542 
Q 999 542 , 988 543 
Q 979 543 , 967 543 
Q 941 543 , 925 541 
Q 910 538 , 910 535 
Q 910 531 , 925 528 
Q 941 526 , 967 526 
Q 978 526 , 987 526 
Q 997 527 , 1007 527 
L 1007 530 
Q 994 529 , 986 528 
Q 977 528 , 968 528 
Q 947 528 , 936 530 
Q 926 531 , 926 535 
Q 926 538 , 936 539 
Q 947 541 , 968 541 
Q 977 541 , 984 541 
Q 991 541 , 994 541 
" fill="#F5C000" />
<path d="
M 1010 505 
L 1010 509 
Q 995 507 , 987 506 
Q 979 505 , 969 505 
Q 948 505 , 938 508 
Q 926 510 , 926 514 
Q 926 518 , 938 520 
Q 948 523 , 969 523 
Q 979 523 , 987 522 
Q 995 521 , 1010 519 
L 1010 523 
Q 999 524 , 989 525 
Q 979 525 , 968 525 
Q 941 525 , 926 522 
Q 910 519 , 910 514 
Q 910 509 , 926 506 
Q 941 503 , 968 503 
Q 979 503 , 989 504 
Q 1000 504 , 1010 505 
" fill="#545FFF" />
<path d="
M 1065 552 
L 1047 553 
L 1081 553 
L 1065 552 
M 1058 551 
L 1072 551 
L 1115 554 
L 1099 554 
L 1087 553 
L 1043 553 
L 1030 554 
L 1015 554 
L 1058 551 
" fill="#339541" />
<path d="
M 1115 543 
L 1115 544 
Q 1100 543 , 1092 543 
Q 1084 543 , 1074 543 
Q 1053 543 , 1043 544 
Q 1031 545 , 1031 546 
Q 1031 548 , 1043 549 
Q 1053 550 , 1074 550 
Q 1084 550 , 1092 550 
Q 1100 550 , 1115 549 
L 1115 550 
Q 1104 551 , 1094 551 
Q 1084 551 , 1073 551 
Q 1046 551 , 1031 550 
Q 1015 549 , 1015 546 
Q 1015 544 , 1031 543 
Q 1046 542 , 1073 542 
Q 1084 542 , 1094 542 
Q 1105 542 , 1115 543 
" fill="#545FFF" />
<path d="
M 1099 538 
L 1099 532 
L 1070 532 
L 1070 530 
L 1115 530 
L 1115 540 
Q 1104 541 , 1093 541 
Q 1084 541 , 1072 541 
Q 1046 541 , 1030 538 
Q 1015 536 , 1015 530 
Q 1015 525 , 1030 522 
Q 1046 519 , 1072 519 
Q 1083 519 , 1092 519 
Q 1102 520 , 1112 521 
L 1112 524 
Q 1099 522 , 1091 522 
Q 1082 522 , 1073 522 
Q 1052 522 , 1041 524 
Q 1031 526 , 1031 530 
Q 1031 535 , 1041 537 
Q 1052 539 , 1073 539 
Q 1082 539 , 1089 539 
Q 1096 539 , 1099 538 
" fill="#F5C000" />
<path d="
M 1015 496 
L 1033 496 
L 1033 509 
Q 1033 513 , 1041 515 
Q 1048 516 , 1065 516 
Q 1082 516 , 1090 515 
Q 1097 513 , 1097 509 
L 1097 496 
L 1115 496 
L 1115 510 
Q 1115 514 , 1102 516 
Q 1090 519 , 1065 519 
Q 1041 519 , 1028 516 
Q 1015 514 , 1015 510 
L 1015 496 
" fill="#D21010" />
<path d="
M 1170 553 
L 1152 554 
L 1186 554 
L 1170 553 
M 1163 553 
L 1177 553 
L 1220 555 
L 1204 555 
L 1192 554 
L 1148 554 
L 1135 555 
L 1120 555 
L 1163 553 
" fill="#339541" />
<path d="
M 1120 549 
L 1138 549 
L 1138 551 
Q 1138 552 , 1146 552 
Q 1153 552 , 1170 552 
Q 1187 552 , 1195 552 
Q 1202 552 , 1202 551 
L 1202 549 
L 1220 549 
L 1220 551 
Q 1220 552 , 1207 553 
Q 1195 553 , 1170 553 
Q 1146 553 , 1133 553 
Q 1120 552 , 1120 551 
L 1120 549 
" fill="#D21010" />
<path d="
M 1220 510 
L 1220 516 
Q 1205 512 , 1197 511 
Q 1189 510 , 1179 510 
Q 1158 510 , 1148 514 
Q 1136 518 , 1136 526 
Q 1136 535 , 1148 540 
Q 1158 544 , 1179 544 
Q 1189 544 , 1197 543 
Q 1205 541 , 1220 537 
L 1220 544 
Q 1209 546 , 1199 547 
Q 1189 548 , 1178 548 
Q 1151 548 , 1136 543 
Q 1120 537 , 1120 527 
Q 1120 517 , 1136 511 
Q 1151 505 , 1178 505 
Q 1189 505 , 1199 506 
Q 1210 507 , 1220 510 
" fill="#545FFF" />
<path d="
M 1204 483 
L 1204 442 
L 1175 442 
L 1175 425 
L 1220 425 
L 1220 493 
Q 1209 500 , 1198 502 
Q 1189 505 , 1177 505 
Q 1151 505 , 1135 484 
Q 1120 464 , 1120 428 
Q 1120 393 , 1135 372 
Q 1151 352 , 1177 352 
Q 1188 352 , 1197 355 
Q 1207 357 , 1217 364 
L 1217 384 
Q 1204 375 , 1196 373 
Q 1187 370 , 1178 370 
Q 1157 370 , 1146 384 
Q 1136 399 , 1136 428 
Q 1136 458 , 1146 473 
Q 1157 488 , 1178 488 
Q 1187 488 , 1194 486 
Q 1201 485 , 1204 483 
" fill="#F5C000" />
<path d="
M 1267 554 
L 1267 554 
L 1253 554 
L 1253 554 
L 1275 554 
L 1275 555 
Q 1270 555 , 1264 555 
Q 1259 555 , 1253 555 
Q 1240 555 , 1233 554 
Q 1225 554 , 1225 554 
Q 1225 553 , 1233 553 
Q 1240 553 , 1253 553 
Q 1259 553 , 1264 553 
Q 1269 553 , 1274 553 
L 1274 553 
Q 1267 553 , 1263 553 
Q 1259 553 , 1254 553 
Q 1244 553 , 1238 553 
Q 1233 554 , 1233 554 
Q 1233 554 , 1238 554 
Q 1244 554 , 1254 554 
Q 1259 554 , 1262 554 
Q 1266 554 , 1267 554 
" fill="lightgray" />
<path d="
M 1275 553 
L 1284 553 
L 1284 554 
Q 1284 554 , 1288 554 
Q 1291 554 , 1300 554 
Q 1309 554 , 1312 554 
Q 1316 554 , 1316 554 
L 1316 553 
L 1325 553 
L 1325 554 
Q 1325 554 , 1319 554 
Q 1312 555 , 1300 555 
Q 1288 555 , 1281 554 
Q 1275 554 , 1275 554 
L 1275 553 
" fill="#D21010" />
<path d="
M 1225 547 
L 1234 547 
L 1234 550 
Q 1234 551 , 1238 551 
Q 1241 552 , 1250 552 
Q 1259 552 , 1262 551 
Q 1266 551 , 1266 550 
L 1266 547 
L 1275 547 
L 1275 550 
Q 1275 551 , 1269 552 
Q 1262 552 , 1250 552 
Q 1238 552 , 1231 552 
Q 1225 551 , 1225 550 
L 1225 547 
" fill="lightgray" />
<path d="
M 1300 548 
L 1291 550 
L 1308 550 
L 1300 548 
M 1296 547 
L 1304 547 
L 1325 552 
L 1317 552 
L 1311 551 
L 1289 551 
L 1282 552 
L 1275 552 
L 1296 547 
" fill="#339541" />
<path d="
M 1275 539 
L 1275 540 
Q 1268 539 , 1264 539 
Q 1259 539 , 1254 539 
Q 1244 539 , 1239 540 
Q 1233 541 , 1233 542 
Q 1233 544 , 1239 545 
Q 1244 546 , 1254 546 
Q 1259 546 , 1264 545 
Q 1268 545 , 1275 544 
L 1275 546 
Q 1270 546 , 1264 546 
Q 1260 546 , 1254 546 
Q 1240 546 , 1233 545 
Q 1225 544 , 1225 542 
Q 1225 540 , 1233 539 
Q 1240 538 , 1254 538 
Q 1260 538 , 1265 538 
Q 1270 538 , 1275 539 
" fill="lightgray" />
<path d="
M 1317 545 
L 1317 543 
L 1303 543 
L 1303 542 
L 1325 542 
L 1325 546 
Q 1320 546 , 1314 546 
Q 1309 546 , 1303 546 
Q 1290 546 , 1283 545 
Q 1275 544 , 1275 542 
Q 1275 540 , 1283 539 
Q 1290 538 , 1303 538 
Q 1309 538 , 1314 538 
Q 1319 538 , 1324 539 
L 1324 540 
Q 1317 539 , 1313 539 
Q 1309 539 , 1304 539 
Q 1294 539 , 1288 540 
Q 1283 541 , 1283 542 
Q 1283 544 , 1288 545 
Q 1294 546 , 1304 546 
Q 1309 546 , 1312 545 
Q 1316 545 , 1317 545 
" fill="#F5C000" />
<path d="
M 1225 525 
L 1234 525 
L 1234 532 
Q 1234 534 , 1238 535 
Q 1241 536 , 1250 536 
Q 1259 536 , 1262 535 
Q 1266 534 , 1266 532 
L 1266 525 
L 1275 525 
L 1275 532 
Q 1275 535 , 1269 536 
Q 1262 537 , 1250 537 
Q 1238 537 , 1231 536 
Q 1225 535 , 1225 532 
L 1225 525 
" fill="lightgray" />
<path d="
M 1317 535 
L 1317 532 
L 1303 532 
L 1303 531 
L 1325 531 
L 1325 536 
Q 1320 537 , 1314 537 
Q 1309 537 , 1303 537 
Q 1290 537 , 1283 535 
Q 1275 534 , 1275 531 
Q 1275 528 , 1283 527 
Q 1290 525 , 1303 525 
Q 1309 525 , 1314 525 
Q 1319 525 , 1324 526 
L 1324 528 
Q 1317 527 , 1313 527 
Q 1309 526 , 1304 526 
Q 1294 526 , 1288 528 
Q 1283 529 , 1283 531 
Q 1283 533 , 1288 535 
Q 1294 536 , 1304 536 
Q 1309 536 , 1312 536 
Q 1316 535 , 1317 535 
" fill="#F5C000" />
<path d="
M 1250 483 
L 1241 504 
L 1258 504 
L 1250 483 
M 1246 474 
L 1254 474 
L 1275 525 
L 1267 525 
L 1261 510 
L 1239 510 
L 1232 525 
L 1225 525 
L 1246 474 
" fill="lightgray" />
<path d="
M 1275 474 
L 1284 474 
L 1284 504 
Q 1284 512 , 1288 516 
Q 1291 519 , 1300 519 
Q 1309 519 , 1312 516 
Q 1316 512 , 1316 504 
L 1316 474 
L 1325 474 
L 1325 505 
Q 1325 515 , 1319 520 
Q 1312 525 , 1300 525 
Q 1288 525 , 1281 520 
Q 1275 515 , 1275 505 
L 1275 474 
" fill="#D21010" />
<path d="
M 1267 462 
L 1267 439 
L 1253 439 
L 1253 429 
L 1275 429 
L 1275 467 
Q 1270 471 , 1264 472 
Q 1259 474 , 1253 474 
Q 1240 474 , 1233 462 
Q 1225 451 , 1225 431 
Q 1225 411 , 1233 400 
Q 1240 388 , 1253 388 
Q 1259 388 , 1264 389 
Q 1269 391 , 1274 395 
L 1274 406 
Q 1267 401 , 1263 400 
Q 1259 398 , 1254 398 
Q 1244 398 , 1238 406 
Q 1233 414 , 1233 431 
Q 1233 448 , 1238 456 
Q 1244 464 , 1254 464 
Q 1259 464 , 1262 463 
Q 1266 463 , 1267 462 
" fill="lightgray" />
<path d="
M 1325 397 
L 1325 410 
Q 1318 402 , 1314 400 
Q 1309 397 , 1304 397 
Q 1294 397 , 1289 406 
Q 1283 414 , 1283 431 
Q 1283 448 , 1289 456 
Q 1294 465 , 1304 465 
Q 1309 465 , 1314 462 
Q 1318 460 , 1325 452 
L 1325 465 
Q 1320 470 , 1314 472 
Q 1310 474 , 1304 474 
Q 1290 474 , 1283 462 
Q 1275 451 , 1275 431 
Q 1275 411 , 1283 400 
Q 1290 388 , 1304 388 
Q 1310 388 , 1315 390 
Q 1320 392 , 1325 397 
" fill="#545FFF" />
<path d="
M 1380 553 
L 1362 554 
L 1396 554 
L 1380 553 
M 1373 553 
L 1387 553 
L 1430 554 
L 1414 554 
L 1402 554 
L 1358 554 
L 1345 554 
L 1330 554 
L 1373 553 
" fill="#339541" />
<path d="
M 1330 551 
L 1348 551 
L 1348 552 
Q 1348 552 , 1356 552 
Q 1363 552 , 1380 552 
Q 1397 552 , 1405 552 
Q 1412 552 , 1412 552 
L 1412 551 
L 1430 551 
L 1430 552 
Q 1430 552 , 1417 552 
Q 1405 552 , 1380 552 
Q 1356 552 , 1343 552 
Q 1330 552 , 1330 552 
L 1330 551 
" fill="#D21010" />
<path d="
M 1430 549 
L 1430 549 
Q 1415 549 , 1407 549 
Q 1399 549 , 1389 549 
Q 1368 549 , 1358 549 
Q 1346 549 , 1346 549 
Q 1346 550 , 1358 550 
Q 1368 550 , 1389 550 
Q 1399 550 , 1407 550 
Q 1415 550 , 1430 550 
L 1430 550 
Q 1419 550 , 1409 550 
Q 1399 550 , 1388 550 
Q 1361 550 , 1346 550 
Q 1330 550 , 1330 550 
Q 1330 549 , 1346 549 
Q 1361 549 , 1388 549 
Q 1399 549 , 1409 549 
Q 1420 549 , 1430 549 
" fill="#545FFF" />
<path d="
M 1414 549 
L 1414 548 
L 1385 548 
L 1385 548 
L 1430 548 
L 1430 549 
Q 1419 549 , 1408 549 
Q 1399 549 , 1387 549 
Q 1361 549 , 1345 549 
Q 1330 548 , 1330 548 
Q 1330 547 , 1345 547 
Q 1361 547 , 1387 547 
Q 1398 547 , 1407 547 
Q 1417 547 , 1427 547 
L 1427 547 
Q 1414 547 , 1406 547 
Q 1397 547 , 1388 547 
Q 1367 547 , 1356 547 
Q 1346 548 , 1346 548 
Q 1346 548 , 1356 548 
Q 1367 549 , 1388 549 
Q 1397 549 , 1404 549 
Q 1411 549 , 1414 549 
" fill="#F5C000" />
<path d="M 65 168 L 65 555 " stroke="black" stroke-width="1.5"/>
<path d="M 55 555 L 65 555 " stroke="black" stroke-width="4"/>
<text text-anchor="end" x="50" y="555" font-size="50" alignment-baseline="middle">0</text>
<path d="M 55 362 L 65 362 " stroke="black" stroke-width="4"/>
<text text-anchor="end" x="50" y="362" font-size="50" alignment-baseline="middle">1</text>
<path d="M 55 168 L 65 168 " stroke="black" stroke-width="4"/>
<text text-anchor="end" x="50" y="168" font-size="50" alignment-baseline="middle">2</text>
<text text-anchor="middle" x="750" y="50" font-size="50" alignment-baseline="baseline"></text>
G<path d="
M 160 582 
L 126 595 
L 160 608 
L 157 611 
L 123 598 
L 123 623 
L 117 623 
L 117 599 
L 83 611 
L 80 608 
L 114 595 
L 80 582 
L 83 579 
L 117 591 
L 117 567 
L 123 567 
L 123 591 
L 157 579 
L 160 582 
" fill="black" />
<path d="
" fill="black" />
<path d="
M 211 567 
L 238 567 
L 238 623 
L 211 623 
L 211 567 
" fill="black" />
<path d="
" fill="black" />
<path d="
" fill="black" />
<path d="
M 316 567 
L 343 567 
L 343 623 
L 316 623 
L 316 567 
" fill="black" />
<path d="
" fill="black" />
<path d="
M 475 567 
Q 446 574 , 433 581 
Q 420 588 , 420 595 
Q 420 602 , 433 609 
Q 446 616 , 475 623 
L 451 623 
Q 423 616 , 409 609 
Q 395 602 , 395 595 
Q 395 588 , 409 581 
Q 423 574 , 451 567 
L 475 567 
" fill="black" />
<path d="
" fill="black" />
<path d="
M 526 567 
L 553 567 
L 553 623 
L 526 623 
L 526 567 
" fill="black" />
<path d="
" fill="black" />
<path d="
" fill="black" />
<path d="
M 622 567 
L 642 567 
L 642 623 
L 622 623 
L 622 567 
" fill="black" />
<path d="
" fill="black" />
<path d="
M 682 595 
Q 679 595 , 677 599 
Q 675 602 , 675 607 
Q 675 613 , 677 616 
Q 679 619 , 682 619 
Q 685 619 , 687 616 
Q 689 613 , 689 607 
Q 689 602 , 687 599 
Q 685 595 , 682 595 
M 677 593 
Q 675 592 , 674 589 
Q 673 586 , 673 581 
Q 673 575 , 675 571 
Q 678 567 , 682 567 
Q 686 567 , 689 571 
Q 691 575 , 691 581 
Q 691 586 , 690 589 
Q 688 592 , 687 593 
Q 689 594 , 690 598 
Q 692 601 , 692 607 
Q 692 614 , 689 619 
Q 687 623 , 682 623 
Q 677 623 , 675 619 
Q 672 614 , 672 607 
Q 672 601 , 674 598 
Q 675 594 , 677 593 
M 677 573 
Q 675 576 , 675 581 
Q 675 586 , 677 589 
Q 679 592 , 682 592 
Q 685 592 , 687 589 
Q 689 586 , 689 581 
Q 689 576 , 687 574 
Q 685 571 , 682 571 
Q 679 571 , 677 573 
" fill="black" />
<path d="
M 790 582 
L 756 595 
L 790 608 
L 787 611 
L 753 598 
L 753 623 
L 747 623 
L 747 599 
L 713 611 
L 710 608 
L 744 595 
L 710 582 
L 713 579 
L 747 591 
L 747 567 
L 753 567 
L 753 591 
L 787 579 
L 790 582 
" fill="black" />
<path d="
" fill="black" />
<path d="
M 841 567 
L 868 567 
L 868 623 
L 841 623 
L 841 567 
" fill="black" />
<path d="
" fill="black" />
<path d="
" fill="black" />
<path d="
M 946 567 
L 973 567 
L 973 623 
L 946 623 
L 946 567 
" fill="black" />
<path d="
" fill="black" />
<path d="
" fill="black" />
<path d="
M 1051 567 
L 1078 567 
L 1078 623 
L 1051 623 
L 1051 567 
" fill="black" />
<path d="
" fill="black" />
<path d="
" fill="black" />
<path d="
M 1156 567 
L 1183 567 
L 1183 623 
L 1156 623 
L 1156 567 
" fill="black" />
<path d="
" fill="black" />
<path d="
M 1235 567 
L 1259 567 
Q 1287 574 , 1301 581 
Q 1315 588 , 1315 595 
Q 1315 602 , 1301 609 
Q 1287 616 , 1259 623 
L 1235 623 
Q 1264 616 , 1277 609 
Q 1290 602 , 1290 595 
Q 1290 588 , 1277 581 
Q 1264 574 , 1235 567 
" fill="black" />
<path d="
M 1420 582 
L 1386 595 
L 1420 608 
L 1417 611 
L 1383 598 
L 1383 623 
L 1377 623 
L 1377 599 
L 1343 611 
L 1340 608 
L 1374 595 
L 1340 582 
L 1343 579 
L 1377 591 
L 1377 567 
L 1383 567 
L 1383 591 
L 1417 579 
L 1420 582 
" fill="black" />
</svg>
