<svg xmlns="http://www.w3.org/2000/svg"
viewBox="0 0 1435 635">
<path d="
M 120 554 
L 102 555 
L 136 555 
L 120 554 
M 113 554 
L 127 554 
L 170 555 
L 154 555 
L 142 555 
L 98 555 
L 85 555 
L 70 555 
L 113 554 
" fill="#339541" />
<path d="
M 70 552 
L 88 552 
L 88 553 
Q 88 553 , 96 553 
Q 103 553 , 120 553 
Q 137 553 , 145 553 
Q 152 553 , 152 553 
L 152 552 
L 170 552 
L 170 553 
Q 170 553 , 157 553 
Q 145 553 , 120 553 
Q 96 553 , 83 553 
Q 70 553 , 70 553 
L 70 552 
" fill="#D21010" />
<path d="
M 170 550 
L 170 550 
Q 155 550 , 147 550 
Q 139 550 , 129 550 
Q 108 550 , 98 550 
Q 86 550 , 86 550 
Q 86 551 , 98 551 
Q 108 551 , 129 551 
Q 139 551 , 147 551 
Q 155 551 , 170 551 
L 170 551 
Q 159 551 , 149 551 
Q 139 551 , 128 551 
Q 101 551 , 86 551 
Q 70 551 , 70 551 
Q 70 550 , 86 550 
Q 101 550 , 128 550 
Q 139 550 , 149 550 
Q 160 550 , 170 550 
" fill="#545FFF" />
<path d="
M 154 549 
L 154 549 
L 125 549 
L 125 549 
L 170 549 
L 170 550 
Q 159 550 , 148 550 
Q 139 550 , 127 550 
Q 101 550 , 85 549 
Q 70 549 , 70 549 
Q 70 548 , 85 548 
Q 101 548 , 127 548 
Q 138 548 , 147 548 
Q 157 548 , 167 548 
L 167 548 
Q 154 548 , 146 548 
Q 137 548 , 128 548 
Q 107 548 , 96 548 
Q 86 549 , 86 549 
Q 86 549 , 96 549 
Q 107 550 , 128 550 
Q 137 550 , 144 549 
Q 151 549 , 154 549 
" fill="#F5C000" />
<path d="
M 217 554 
L 217 554 
L 203 554 
L 203 554 
L 225 554 
L 225 554 
Q 220 554 , 214 554 
Q 209 554 , 203 554 
Q 190 554 , 183 554 
Q 175 554 , 175 554 
Q 175 553 , 183 553 
Q 190 553 , 203 553 
Q 209 553 , 214 553 
Q 219 553 , 224 553 
L 224 553 
Q 217 553 , 213 553 
Q 209 553 , 204 553 
Q 194 553 , 188 553 
Q 183 553 , 183 554 
Q 183 554 , 188 554 
Q 194 554 , 204 554 
Q 209 554 , 212 554 
Q 216 554 , 217 554 
" fill="#F5C000" />
<path d="
M 225 553 
L 234 553 
L 234 554 
Q 234 554 , 238 554 
Q 241 554 , 250 554 
Q 259 554 , 262 554 
Q 266 554 , 266 554 
L 266 553 
L 275 553 
L 275 554 
Q 275 554 , 269 554 
Q 262 554 , 250 554 
Q 238 554 , 231 554 
Q 225 554 , 225 554 
L 225 553 
" fill="lightgray" />
<path d="
M 175 548 
L 184 548 
L 184 551 
Q 184 552 , 188 552 
Q 191 552 , 200 552 
Q 209 552 , 212 552 
Q 216 552 , 216 551 
L 216 548 
L 225 548 
L 225 551 
Q 225 552 , 219 552 
Q 212 553 , 200 553 
Q 188 553 , 181 552 
Q 175 552 , 175 551 
L 175 548 
" fill="#D21010" />
<path d="
M 267 552 
L 267 551 
L 253 551 
L 253 550 
L 275 550 
L 275 553 
Q 270 553 , 264 553 
Q 259 553 , 253 553 
Q 240 553 , 233 552 
Q 225 552 , 225 550 
Q 225 549 , 233 549 
Q 240 548 , 253 548 
Q 259 548 , 264 548 
Q 269 548 , 274 548 
L 274 549 
Q 267 549 , 263 549 
Q 259 549 , 254 549 
Q 244 549 , 238 549 
Q 233 550 , 233 550 
Q 233 551 , 238 552 
Q 244 552 , 254 552 
Q 259 552 , 262 552 
Q 266 552 , 267 552 
" fill="lightgray" />
<path d="
M 200 537 
L 191 542 
L 208 542 
L 200 537 
M 196 535 
L 204 535 
L 225 548 
L 217 548 
L 211 544 
L 189 544 
L 182 548 
L 175 548 
L 196 535 
" fill="#339541" />
<path d="
M 225 535 
L 234 535 
L 234 542 
Q 234 544 , 238 545 
Q 241 546 , 250 546 
Q 259 546 , 262 545 
Q 266 544 , 266 542 
L 266 535 
L 275 535 
L 275 543 
Q 275 545 , 269 546 
Q 262 548 , 250 548 
Q 238 548 , 231 546 
Q 225 545 , 225 543 
L 225 535 
" fill="lightgray" />
<path d="
M 175 513 
L 184 513 
L 184 526 
Q 184 529 , 188 531 
Q 191 532 , 200 532 
Q 209 532 , 212 531 
Q 216 529 , 216 526 
L 216 513 
L 225 513 
L 225 526 
Q 225 530 , 219 532 
Q 212 535 , 200 535 
Q 188 535 , 181 532 
Q 175 530 , 175 526 
L 175 513 
" fill="#D21010" />
<path d="
M 250 517 
L 241 526 
L 258 526 
L 250 517 
M 246 513 
L 254 513 
L 275 535 
L 267 535 
L 261 528 
L 239 528 
L 232 535 
L 225 535 
L 246 513 
" fill="lightgray" />
<path d="
M 225 490 
L 225 494 
Q 218 491 , 214 490 
Q 209 490 , 204 490 
Q 194 490 , 189 492 
Q 183 495 , 183 499 
Q 183 504 , 189 507 
Q 194 509 , 204 509 
Q 209 509 , 214 509 
Q 218 508 , 225 506 
L 225 510 
Q 220 511 , 214 512 
Q 210 512 , 204 512 
Q 190 512 , 183 509 
Q 175 505 , 175 500 
Q 175 494 , 183 490 
Q 190 487 , 204 487 
Q 210 487 , 215 488 
Q 220 488 , 225 490 
" fill="#545FFF" />
<path d="
M 267 508 
L 267 502 
L 253 502 
L 253 499 
L 275 499 
L 275 510 
Q 270 511 , 264 512 
Q 259 512 , 253 512 
Q 240 512 , 233 509 
Q 225 505 , 225 500 
Q 225 494 , 233 490 
Q 240 487 , 253 487 
Q 259 487 , 264 487 
Q 269 488 , 274 489 
L 274 492 
Q 267 491 , 263 490 
Q 259 490 , 254 490 
Q 244 490 , 238 492 
Q 233 495 , 233 500 
Q 233 504 , 238 507 
Q 244 509 , 254 509 
Q 259 509 , 262 509 
Q 266 509 , 267 508 
" fill="lightgray" />
<path d="
M 217 473 
L 217 447 
L 203 447 
L 203 436 
L 225 436 
L 225 479 
Q 220 483 , 214 485 
Q 209 486 , 203 486 
Q 190 486 , 183 474 
Q 175 461 , 175 438 
Q 175 416 , 183 403 
Q 190 390 , 203 390 
Q 209 390 , 214 392 
Q 219 393 , 224 398 
L 224 410 
Q 217 405 , 213 403 
Q 209 402 , 204 402 
Q 194 402 , 188 411 
Q 183 420 , 183 438 
Q 183 457 , 188 467 
Q 194 476 , 204 476 
Q 209 476 , 212 475 
Q 216 474 , 217 473 
" fill="#F5C000" />
<path d="
M 275 400 
L 275 415 
Q 268 406 , 264 403 
Q 259 401 , 254 401 
Q 244 401 , 239 410 
Q 233 420 , 233 438 
Q 233 457 , 239 467 
Q 244 476 , 254 476 
Q 259 476 , 264 474 
Q 268 471 , 275 461 
L 275 477 
Q 270 482 , 264 484 
Q 260 486 , 254 486 
Q 240 486 , 233 473 
Q 225 460 , 225 438 
Q 225 416 , 233 403 
Q 240 390 , 254 390 
Q 260 390 , 265 392 
Q 270 395 , 275 400 
" fill="lightgray" />
<path d="
M 330 551 
L 312 553 
L 346 553 
L 330 551 
M 323 550 
L 337 550 
L 380 555 
L 364 555 
L 352 553 
L 308 553 
L 295 555 
L 280 555 
L 323 550 
" fill="#339541" />
<path d="
M 280 539 
L 298 539 
L 298 545 
Q 298 547 , 306 548 
Q 313 549 , 330 549 
Q 347 549 , 355 548 
Q 362 547 , 362 545 
L 362 539 
L 380 539 
L 380 545 
Q 380 548 , 367 549 
Q 355 550 , 330 550 
Q 306 550 , 293 549 
Q 280 548 , 280 545 
L 280 539 
" fill="#D21010" />
<path d="
M 364 535 
L 364 528 
L 335 528 
L 335 525 
L 380 525 
L 380 537 
Q 369 538 , 358 538 
Q 349 539 , 337 539 
Q 311 539 , 295 535 
Q 280 532 , 280 526 
Q 280 520 , 295 516 
Q 311 513 , 337 513 
Q 348 513 , 357 513 
Q 367 514 , 377 515 
L 377 518 
Q 364 517 , 356 516 
Q 347 516 , 338 516 
Q 317 516 , 306 518 
Q 296 521 , 296 526 
Q 296 531 , 306 533 
Q 317 536 , 338 536 
Q 347 536 , 354 536 
Q 361 535 , 364 535 
" fill="#F5C000" />
<path d="
M 380 452 
L 380 462 
Q 365 456 , 357 454 
Q 349 452 , 339 452 
Q 318 452 , 308 459 
Q 296 466 , 296 479 
Q 296 492 , 308 498 
Q 318 505 , 339 505 
Q 349 505 , 357 503 
Q 365 501 , 380 495 
L 380 505 
Q 369 509 , 359 511 
Q 349 512 , 338 512 
Q 311 512 , 296 503 
Q 280 494 , 280 479 
Q 280 463 , 296 454 
Q 311 445 , 338 445 
Q 349 445 , 359 447 
Q 370 448 , 380 452 
" fill="#545FFF" />
<path d="
M 435 552 
L 417 553 
L 451 553 
L 435 552 
M 428 551 
L 442 551 
L 485 554 
L 469 554 
L 457 553 
L 413 553 
L 400 554 
L 385 554 
L 428 551 
" fill="#339541" />
<path d="
M 469 549 
L 469 546 
L 440 546 
L 440 545 
L 485 545 
L 485 549 
Q 474 550 , 463 550 
Q 454 550 , 442 550 
Q 416 550 , 400 549 
Q 385 548 , 385 546 
Q 385 543 , 400 542 
Q 416 541 , 442 541 
Q 453 541 , 462 541 
Q 472 541 , 482 542 
L 482 543 
Q 469 542 , 461 542 
Q 452 542 , 443 542 
Q 422 542 , 411 543 
Q 401 544 , 401 546 
Q 401 547 , 411 548 
Q 422 549 , 443 549 
Q 452 549 , 459 549 
Q 466 549 , 469 549 
" fill="#F5C000" />
<path d="
M 485 527 
L 485 529 
Q 470 527 , 462 527 
Q 454 527 , 444 527 
Q 423 527 , 413 528 
Q 401 530 , 401 533 
Q 401 536 , 413 537 
Q 423 539 , 444 539 
Q 454 539 , 462 538 
Q 470 538 , 485 536 
L 485 539 
Q 474 540 , 464 540 
Q 454 540 , 443 540 
Q 416 540 , 401 538 
Q 385 536 , 385 533 
Q 385 529 , 401 527 
Q 416 525 , 443 525 
Q 454 525 , 464 525 
Q 475 526 , 485 527 
" fill="#545FFF" />
<path d="
M 385 503 
L 403 503 
L 403 516 
Q 403 519 , 411 521 
Q 418 522 , 435 522 
Q 452 522 , 460 521 
Q 467 519 , 467 516 
L 467 503 
L 485 503 
L 485 516 
Q 485 520 , 472 522 
Q 460 525 , 435 525 
Q 411 525 , 398 522 
Q 385 520 , 385 516 
L 385 503 
" fill="#D21010" />
<path d="
M 540 552 
L 522 553 
L 556 553 
L 540 552 
M 533 551 
L 547 551 
L 590 555 
L 574 555 
L 562 554 
L 518 554 
L 505 555 
L 490 555 
L 533 551 
" fill="#339541" />
<path d="
M 590 535 
L 590 537 
Q 575 536 , 567 535 
Q 559 535 , 549 535 
Q 528 535 , 518 537 
Q 506 538 , 506 541 
Q 506 545 , 518 547 
Q 528 548 , 549 548 
Q 559 548 , 567 548 
Q 575 548 , 590 546 
L 590 549 
Q 579 549 , 569 550 
Q 559 550 , 548 550 
Q 521 550 , 506 548 
Q 490 546 , 490 542 
Q 490 538 , 506 535 
Q 521 533 , 548 533 
Q 559 533 , 569 533 
Q 580 534 , 590 535 
" fill="#545FFF" />
<path d="
M 490 513 
L 508 513 
L 508 525 
Q 508 528 , 516 529 
Q 523 531 , 540 531 
Q 557 531 , 565 529 
Q 572 528 , 572 525 
L 572 513 
L 590 513 
L 590 525 
Q 590 529 , 577 531 
Q 565 533 , 540 533 
Q 516 533 , 503 531 
Q 490 529 , 490 525 
L 490 513 
" fill="#D21010" />
<path d="
M 574 493 
L 574 457 
L 545 457 
L 545 442 
L 590 442 
L 590 503 
Q 579 508 , 568 511 
Q 559 513 , 547 513 
Q 521 513 , 505 495 
Q 490 477 , 490 445 
Q 490 413 , 505 395 
Q 521 377 , 547 377 
Q 558 377 , 567 379 
Q 577 382 , 587 388 
L 587 405 
Q 574 398 , 566 395 
Q 557 393 , 548 393 
Q 527 393 , 516 406 
Q 506 419 , 506 445 
Q 506 472 , 516 485 
Q 527 498 , 548 498 
Q 557 498 , 564 496 
Q 571 495 , 574 493 
" fill="#F5C000" />
<path d="
M 645 552 
L 627 553 
L 661 553 
L 645 552 
M 638 551 
L 652 551 
L 695 555 
L 679 555 
L 667 554 
L 623 554 
L 610 555 
L 595 555 
L 638 551 
" fill="#339541" />
<path d="
M 595 544 
L 613 544 
L 613 548 
Q 613 549 , 621 549 
Q 628 550 , 645 550 
Q 662 550 , 670 549 
Q 677 549 , 677 548 
L 677 544 
L 695 544 
L 695 548 
Q 695 549 , 682 550 
Q 670 550 , 645 550 
Q 621 550 , 608 550 
Q 595 549 , 595 548 
L 595 544 
" fill="#D21010" />
<path d="
M 695 531 
L 695 533 
Q 680 532 , 672 532 
Q 664 531 , 654 531 
Q 633 531 , 623 533 
Q 611 534 , 611 536 
Q 611 539 , 623 540 
Q 633 542 , 654 542 
Q 664 542 , 672 541 
Q 680 541 , 695 540 
L 695 542 
Q 684 543 , 674 543 
Q 664 543 , 653 543 
Q 626 543 , 611 541 
Q 595 540 , 595 537 
Q 595 534 , 611 532 
Q 626 530 , 653 530 
Q 664 530 , 674 530 
Q 685 531 , 695 531 
" fill="#545FFF" />
<path d="
M 679 527 
L 679 523 
L 650 523 
L 650 521 
L 695 521 
L 695 529 
Q 684 529 , 673 530 
Q 664 530 , 652 530 
Q 626 530 , 610 528 
Q 595 525 , 595 521 
Q 595 518 , 610 515 
Q 626 513 , 652 513 
Q 663 513 , 672 513 
Q 682 514 , 692 514 
L 692 517 
Q 679 516 , 671 515 
Q 662 515 , 653 515 
Q 632 515 , 621 517 
Q 611 518 , 611 521 
Q 611 525 , 621 526 
Q 632 528 , 653 528 
Q 662 528 , 669 528 
Q 676 528 , 679 527 
" fill="#F5C000" />
<path d="
M 750 554 
L 732 555 
L 766 555 
L 750 554 
M 743 554 
L 757 554 
L 800 555 
L 784 555 
L 772 555 
L 728 555 
L 715 555 
L 700 555 
L 743 554 
" fill="#339541" />
<path d="
M 700 552 
L 718 552 
L 718 553 
Q 718 553 , 726 553 
Q 733 553 , 750 553 
Q 767 553 , 775 553 
Q 782 553 , 782 553 
L 782 552 
L 800 552 
L 800 553 
Q 800 553 , 787 553 
Q 775 553 , 750 553 
Q 726 553 , 713 553 
Q 700 553 , 700 553 
L 700 552 
" fill="#D21010" />
<path d="
M 800 550 
L 800 550 
Q 785 550 , 777 550 
Q 769 550 , 759 550 
Q 738 550 , 728 550 
Q 716 550 , 716 550 
Q 716 551 , 728 551 
Q 738 551 , 759 551 
Q 769 551 , 777 551 
Q 785 551 , 800 551 
L 800 551 
Q 789 551 , 779 551 
Q 769 551 , 758 551 
Q 731 551 , 716 551 
Q 700 551 , 700 551 
Q 700 550 , 716 550 
Q 731 550 , 758 550 
Q 769 550 , 779 550 
Q 790 550 , 800 550 
" fill="#545FFF" />
<path d="
M 784 549 
L 784 549 
L 755 549 
L 755 549 
L 800 549 
L 800 550 
Q 789 550 , 778 550 
Q 769 550 , 757 550 
Q 731 550 , 715 549 
Q 700 549 , 700 549 
Q 700 548 , 715 548 
Q 731 548 , 757 548 
Q 768 548 , 777 548 
Q 787 548 , 797 548 
L 797 548 
Q 784 548 , 776 548 
Q 767 548 , 758 548 
Q 737 548 , 726 548 
Q 716 549 , 716 549 
Q 716 549 , 726 549 
Q 737 550 , 758 550 
Q 767 550 , 774 549 
Q 781 549 , 784 549 
" fill="#F5C000" />
<path d="
M 855 551 
L 837 553 
L 871 553 
L 855 551 
M 848 550 
L 862 550 
L 905 555 
L 889 555 
L 877 553 
L 833 553 
L 820 555 
L 805 555 
L 848 550 
" fill="#339541" />
<path d="
M 905 537 
L 905 539 
Q 890 537 , 882 537 
Q 874 537 , 864 537 
Q 843 537 , 833 538 
Q 821 539 , 821 542 
Q 821 545 , 833 546 
Q 843 548 , 864 548 
Q 874 548 , 882 547 
Q 890 547 , 905 546 
L 905 548 
Q 894 549 , 884 549 
Q 874 549 , 863 549 
Q 836 549 , 821 547 
Q 805 546 , 805 542 
Q 805 539 , 821 537 
Q 836 535 , 863 535 
Q 874 535 , 884 535 
Q 895 536 , 905 537 
" fill="#545FFF" />
<path d="
M 805 518 
L 823 518 
L 823 528 
Q 823 530 , 831 532 
Q 838 533 , 855 533 
Q 872 533 , 880 532 
Q 887 530 , 887 528 
L 887 518 
L 905 518 
L 905 528 
Q 905 531 , 892 533 
Q 880 535 , 855 535 
Q 831 535 , 818 533 
Q 805 531 , 805 528 
L 805 518 
" fill="#D21010" />
<path d="
M 889 509 
L 889 494 
L 860 494 
L 860 488 
L 905 488 
L 905 513 
Q 894 515 , 883 516 
Q 874 517 , 862 517 
Q 836 517 , 820 510 
Q 805 502 , 805 490 
Q 805 477 , 820 469 
Q 836 462 , 862 462 
Q 873 462 , 882 463 
Q 892 464 , 902 466 
L 902 474 
Q 889 470 , 881 469 
Q 872 469 , 863 469 
Q 842 469 , 831 474 
Q 821 479 , 821 490 
Q 821 500 , 831 506 
Q 842 511 , 863 511 
Q 872 511 , 879 510 
Q 886 510 , 889 509 
" fill="#F5C000" />
<path d="
M 952 554 
L 952 554 
L 938 554 
L 938 554 
L 960 554 
L 960 554 
Q 955 554 , 949 554 
Q 944 554 , 938 554 
Q 925 554 , 918 554 
Q 910 554 , 910 554 
Q 910 553 , 918 553 
Q 925 553 , 938 553 
Q 944 553 , 949 553 
Q 954 553 , 959 553 
L 959 553 
Q 952 553 , 948 553 
Q 944 553 , 939 553 
Q 929 553 , 923 553 
Q 918 553 , 918 554 
Q 918 554 , 923 554 
Q 929 554 , 939 554 
Q 944 554 , 947 554 
Q 951 554 , 952 554 
" fill="lightgray" />
<path d="
M 960 553 
L 969 553 
L 969 554 
Q 969 554 , 973 554 
Q 976 554 , 985 554 
Q 994 554 , 997 554 
Q 1001 554 , 1001 554 
L 1001 553 
L 1010 553 
L 1010 554 
Q 1010 554 , 1004 554 
Q 997 554 , 985 554 
Q 973 554 , 966 554 
Q 960 554 , 960 554 
L 960 553 
" fill="#D21010" />
<path d="
M 910 548 
L 919 548 
L 919 551 
Q 919 552 , 923 552 
Q 926 552 , 935 552 
Q 944 552 , 947 552 
Q 951 552 , 951 551 
L 951 548 
L 960 548 
L 960 551 
Q 960 552 , 954 552 
Q 947 553 , 935 553 
Q 923 553 , 916 552 
Q 910 552 , 910 551 
L 910 548 
" fill="lightgray" />
<path d="
M 1002 552 
L 1002 551 
L 988 551 
L 988 550 
L 1010 550 
L 1010 553 
Q 1005 553 , 999 553 
Q 994 553 , 988 553 
Q 975 553 , 968 552 
Q 960 552 , 960 550 
Q 960 549 , 968 549 
Q 975 548 , 988 548 
Q 994 548 , 999 548 
Q 1004 548 , 1009 548 
L 1009 549 
Q 1002 549 , 998 549 
Q 994 549 , 989 549 
Q 979 549 , 973 549 
Q 968 550 , 968 550 
Q 968 551 , 973 552 
Q 979 552 , 989 552 
Q 994 552 , 997 552 
Q 1001 552 , 1002 552 
" fill="#F5C000" />
<path d="
M 935 537 
L 926 542 
L 943 542 
L 935 537 
M 931 535 
L 939 535 
L 960 548 
L 952 548 
L 946 544 
L 924 544 
L 917 548 
L 910 548 
L 931 535 
" fill="lightgray" />
<path d="
M 960 535 
L 969 535 
L 969 542 
Q 969 544 , 973 545 
Q 976 546 , 985 546 
Q 994 546 , 997 545 
Q 1001 544 , 1001 542 
L 1001 535 
L 1010 535 
L 1010 543 
Q 1010 545 , 1004 546 
Q 997 548 , 985 548 
Q 973 548 , 966 546 
Q 960 545 , 960 543 
L 960 535 
" fill="#D21010" />
<path d="
M 910 513 
L 919 513 
L 919 526 
Q 919 529 , 923 531 
Q 926 532 , 935 532 
Q 944 532 , 947 531 
Q 951 529 , 951 526 
L 951 513 
L 960 513 
L 960 526 
Q 960 530 , 954 532 
Q 947 535 , 935 535 
Q 923 535 , 916 532 
Q 910 530 , 910 526 
L 910 513 
" fill="lightgray" />
<path d="
M 985 517 
L 976 526 
L 993 526 
L 985 517 
M 981 513 
L 989 513 
L 1010 535 
L 1002 535 
L 996 528 
L 974 528 
L 967 535 
L 960 535 
L 981 513 
" fill="#339541" />
<path d="
M 960 490 
L 960 494 
Q 953 491 , 949 490 
Q 944 490 , 939 490 
Q 929 490 , 924 492 
Q 918 495 , 918 499 
Q 918 504 , 924 507 
Q 929 509 , 939 509 
Q 944 509 , 949 509 
Q 953 508 , 960 506 
L 960 510 
Q 955 511 , 949 512 
Q 945 512 , 939 512 
Q 925 512 , 918 509 
Q 910 505 , 910 500 
Q 910 494 , 918 490 
Q 925 487 , 939 487 
Q 945 487 , 950 488 
Q 955 488 , 960 490 
" fill="lightgray" />
<path d="
M 1002 508 
L 1002 502 
L 988 502 
L 988 499 
L 1010 499 
L 1010 510 
Q 1005 511 , 999 512 
Q 994 512 , 988 512 
Q 975 512 , 968 509 
Q 960 505 , 960 500 
Q 960 494 , 968 490 
Q 975 487 , 988 487 
Q 994 487 , 999 487 
Q 1004 488 , 1009 489 
L 1009 492 
Q 1002 491 , 998 490 
Q 994 490 , 989 490 
Q 979 490 , 973 492 
Q 968 495 , 968 500 
Q 968 504 , 973 507 
Q 979 509 , 989 509 
Q 994 509 , 997 509 
Q 1001 509 , 1002 508 
" fill="#F5C000" />
<path d="
M 952 473 
L 952 447 
L 938 447 
L 938 436 
L 960 436 
L 960 479 
Q 955 483 , 949 485 
Q 944 486 , 938 486 
Q 925 486 , 918 474 
Q 910 461 , 910 438 
Q 910 416 , 918 403 
Q 925 390 , 938 390 
Q 944 390 , 949 392 
Q 954 393 , 959 398 
L 959 410 
Q 952 405 , 948 403 
Q 944 402 , 939 402 
Q 929 402 , 923 411 
Q 918 420 , 918 438 
Q 918 457 , 923 467 
Q 929 476 , 939 476 
Q 944 476 , 947 475 
Q 951 474 , 952 473 
" fill="lightgray" />
<path d="
M 1010 400 
L 1010 415 
Q 1003 406 , 999 403 
Q 994 401 , 989 401 
Q 979 401 , 974 410 
Q 968 420 , 968 438 
Q 968 457 , 974 467 
Q 979 476 , 989 476 
Q 994 476 , 999 474 
Q 1003 471 , 1010 461 
L 1010 477 
Q 1005 482 , 999 484 
Q 995 486 , 989 486 
Q 975 486 , 968 473 
Q 960 460 , 960 438 
Q 960 416 , 968 403 
Q 975 390 , 989 390 
Q 995 390 , 1000 392 
Q 1005 395 , 1010 400 
" fill="#545FFF" />
<path d="
M 1065 552 
L 1047 553 
L 1081 553 
L 1065 552 
M 1058 552 
L 1072 552 
L 1115 555 
L 1099 555 
L 1087 554 
L 1043 554 
L 1030 555 
L 1015 555 
L 1058 552 
" fill="#339541" />
<path d="
M 1115 547 
L 1115 547 
Q 1100 547 , 1092 547 
Q 1084 547 , 1074 547 
Q 1053 547 , 1043 547 
Q 1031 548 , 1031 549 
Q 1031 550 , 1043 550 
Q 1053 551 , 1074 551 
Q 1084 551 , 1092 550 
Q 1100 550 , 1115 550 
L 1115 551 
Q 1104 551 , 1094 551 
Q 1084 551 , 1073 551 
Q 1046 551 , 1031 550 
Q 1015 550 , 1015 549 
Q 1015 547 , 1031 547 
Q 1046 546 , 1073 546 
Q 1084 546 , 1094 546 
Q 1105 546 , 1115 547 
" fill="#545FFF" />
<path d="
M 1099 545 
L 1099 543 
L 1070 543 
L 1070 542 
L 1115 542 
L 1115 545 
Q 1104 545 , 1093 546 
Q 1084 546 , 1072 546 
Q 1046 546 , 1030 545 
Q 1015 544 , 1015 542 
Q 1015 541 , 1030 540 
Q 1046 539 , 1072 539 
Q 1083 539 , 1092 539 
Q 1102 539 , 1112 540 
L 1112 540 
Q 1099 540 , 1091 540 
Q 1082 540 , 1073 540 
Q 1052 540 , 1041 540 
Q 1031 541 , 1031 542 
Q 1031 544 , 1041 544 
Q 1052 545 , 1073 545 
Q 1082 545 , 1089 545 
Q 1096 545 , 1099 545 
" fill="#F5C000" />
<path d="
M 1015 530 
L 1033 530 
L 1033 535 
Q 1033 536 , 1041 537 
Q 1048 538 , 1065 538 
Q 1082 538 , 1090 537 
Q 1097 536 , 1097 535 
L 1097 530 
L 1115 530 
L 1115 535 
Q 1115 537 , 1102 538 
Q 1090 539 , 1065 539 
Q 1041 539 , 1028 538 
Q 1015 537 , 1015 535 
L 1015 530 
" fill="#D21010" />
<path d="
M 1170 552 
L 1152 553 
L 1186 553 
L 1170 552 
M 1163 551 
L 1177 551 
L 1220 555 
L 1204 555 
L 1192 554 
L 1148 554 
L 1135 555 
L 1120 555 
L 1163 551 
" fill="#339541" />
<path d="
M 1220 538 
L 1220 540 
Q 1205 539 , 1197 539 
Q 1189 538 , 1179 538 
Q 1158 538 , 1148 540 
Q 1136 541 , 1136 543 
Q 1136 546 , 1148 547 
Q 1158 549 , 1179 549 
Q 1189 549 , 1197 548 
Q 1205 548 , 1220 547 
L 1220 549 
Q 1209 550 , 1199 550 
Q 1189 550 , 1178 550 
Q 1151 550 , 1136 548 
Q 1120 547 , 1120 544 
Q 1120 541 , 1136 539 
Q 1151 537 , 1178 537 
Q 1189 537 , 1199 537 
Q 1210 538 , 1220 538 
" fill="#545FFF" />
<path d="
M 1120 520 
L 1138 520 
L 1138 530 
Q 1138 532 , 1146 533 
Q 1153 534 , 1170 534 
Q 1187 534 , 1195 533 
Q 1202 532 , 1202 530 
L 1202 520 
L 1220 520 
L 1220 530 
Q 1220 533 , 1207 535 
Q 1195 536 , 1170 536 
Q 1146 536 , 1133 535 
Q 1120 533 , 1120 530 
L 1120 520 
" fill="#D21010" />
<path d="
M 1204 491 
L 1204 437 
L 1175 437 
L 1175 414 
L 1220 414 
L 1220 504 
Q 1209 513 , 1198 516 
Q 1189 519 , 1177 519 
Q 1151 519 , 1135 492 
Q 1120 466 , 1120 419 
Q 1120 372 , 1135 345 
Q 1151 318 , 1177 318 
Q 1188 318 , 1197 321 
Q 1207 325 , 1217 334 
L 1217 360 
Q 1204 349 , 1196 345 
Q 1187 342 , 1178 342 
Q 1157 342 , 1146 361 
Q 1136 380 , 1136 419 
Q 1136 458 , 1146 478 
Q 1157 497 , 1178 497 
Q 1187 497 , 1194 495 
Q 1201 493 , 1204 491 
" fill="#F5C000" />
<path d="
M 1225 552 
L 1243 552 
L 1243 553 
Q 1243 554 , 1251 554 
Q 1258 554 , 1275 554 
Q 1292 554 , 1300 554 
Q 1307 554 , 1307 553 
L 1307 552 
L 1325 552 
L 1325 553 
Q 1325 554 , 1312 554 
Q 1300 554 , 1275 554 
Q 1251 554 , 1238 554 
Q 1225 554 , 1225 553 
L 1225 552 
" fill="#D21010" />
<path d="
M 1275 548 
L 1257 549 
L 1291 549 
L 1275 548 
M 1268 547 
L 1282 547 
L 1325 551 
L 1309 551 
L 1297 550 
L 1253 550 
L 1240 551 
L 1225 551 
L 1268 547 
" fill="#339541" />
<path d="
M 1309 546 
L 1309 544 
L 1280 544 
L 1280 544 
L 1325 544 
L 1325 546 
Q 1314 546 , 1303 546 
Q 1294 546 , 1282 546 
Q 1256 546 , 1240 546 
Q 1225 545 , 1225 544 
Q 1225 542 , 1240 542 
Q 1256 541 , 1282 541 
Q 1293 541 , 1302 541 
Q 1312 541 , 1322 541 
L 1322 542 
Q 1309 542 , 1301 542 
Q 1292 542 , 1283 542 
Q 1262 542 , 1251 542 
Q 1241 543 , 1241 544 
Q 1241 545 , 1251 545 
Q 1262 546 , 1283 546 
Q 1292 546 , 1299 546 
Q 1306 546 , 1309 546 
" fill="#F5C000" />
<path d="
M 1325 534 
L 1325 535 
Q 1310 534 , 1302 534 
Q 1294 534 , 1284 534 
Q 1263 534 , 1253 534 
Q 1241 535 , 1241 536 
Q 1241 538 , 1253 539 
Q 1263 539 , 1284 539 
Q 1294 539 , 1302 539 
Q 1310 539 , 1325 538 
L 1325 539 
Q 1314 540 , 1304 540 
Q 1294 540 , 1283 540 
Q 1256 540 , 1241 539 
Q 1225 538 , 1225 537 
Q 1225 535 , 1241 534 
Q 1256 533 , 1283 533 
Q 1294 533 , 1304 533 
Q 1315 533 , 1325 534 
" fill="#545FFF" />
<path d="
M 1380 554 
L 1362 555 
L 1396 555 
L 1380 554 
M 1373 554 
L 1387 554 
L 1430 555 
L 1414 555 
L 1402 555 
L 1358 555 
L 1345 555 
L 1330 555 
L 1373 554 
" fill="#339541" />
<path d="
M 1330 552 
L 1348 552 
L 1348 553 
Q 1348 553 , 1356 553 
Q 1363 553 , 1380 553 
Q 1397 553 , 1405 553 
Q 1412 553 , 1412 553 
L 1412 552 
L 1430 552 
L 1430 553 
Q 1430 553 , 1417 553 
Q 1405 553 , 1380 553 
Q 1356 553 , 1343 553 
Q 1330 553 , 1330 553 
L 1330 552 
" fill="#D21010" />
<path d="
M 1430 550 
L 1430 550 
Q 1415 550 , 1407 550 
Q 1399 550 , 1389 550 
Q 1368 550 , 1358 550 
Q 1346 550 , 1346 550 
Q 1346 551 , 1358 551 
Q 1368 551 , 1389 551 
Q 1399 551 , 1407 551 
Q 1415 551 , 1430 551 
L 1430 551 
Q 1419 551 , 1409 551 
Q 1399 551 , 1388 551 
Q 1361 551 , 1346 551 
Q 1330 551 , 1330 551 
Q 1330 550 , 1346 550 
Q 1361 550 , 1388 550 
Q 1399 550 , 1409 550 
Q 1420 550 , 1430 550 
" fill="#545FFF" />
<path d="
M 1414 549 
L 1414 549 
L 1385 549 
L 1385 549 
L 1430 549 
L 1430 550 
Q 1419 550 , 1408 550 
Q 1399 550 , 1387 550 
Q 1361 550 , 1345 549 
Q 1330 549 , 1330 549 
Q 1330 548 , 1345 548 
Q 1361 548 , 1387 548 
Q 1398 548 , 1407 548 
Q 1417 548 , 1427 548 
L 1427 548 
Q 1414 548 , 1406 548 
Q 1397 548 , 1388 548 
Q 1367 548 , 1356 548 
Q 1346 549 , 1346 549 
Q 1346 549 , 1356 549 
Q 1367 550 , 1388 550 
Q 1397 550 , 1404 549 
Q 1411 549 , 1414 549 
" fill="#F5C000" />
<path d="M 65 168 L 65 555 " stroke="black" stroke-width="1.5"/>
<path d="M 55 555 L 65 555 " stroke="black" stroke-width="4"/>
<text text-anchor="end" x="50" y="555" font-size="50" alignment-baseline="middle">0</text>
<path d="M 55 362 L 65 362 " stroke="black" stroke-width="4"/>
<text text-anchor="end" x="50" y="362" font-size="50" alignment-baseline="middle">1</text>
<path d="M 55 168 L 65 168 " stroke="black" stroke-width="4"/>
<text text-anchor="end" x="50" y="168" font-size="50" alignment-baseline="middle">2</text>
<text text-anchor="middle" x="750" y="50" font-size="50" alignment-baseline="baseline"></text>
G<path d="
M 160 582 
L 126 595 
L 160 608 
L 157 611 
L 123 598 
L 123 623 
L 117 623 
L 117 599 
L 83 611 
L 80 608 
L 114 595 
L 80 582 
L 83 579 
L 117 591 
L 117 567 
L 123 567 
L 123 591 
L 157 579 
L 160 582 
" fill="black" />
<path d="
M 265 567 
Q 236 574 , 223 581 
Q 210 588 , 210 595 
Q 210 602 , 223 609 
Q 236 616 , 265 623 
L 241 623 
Q 213 616 , 199 609 
Q 185 602 , 185 595 
Q 185 588 , 199 581 
Q 213 574 , 241 567 
L 265 567 
" fill="black" />
<path d="
" fill="black" />
<path d="
M 316 567 
L 343 567 
L 343 623 
L 316 623 
L 316 567 
" fill="black" />
<path d="
" fill="black" />
<path d="
" fill="black" />
<path d="
M 421 567 
L 448 567 
L 448 623 
L 421 623 
L 421 567 
" fill="black" />
<path d="
" fill="black" />
<path d="
" fill="black" />
<path d="
M 526 567 
L 553 567 
L 553 623 
L 526 623 
L 526 567 
" fill="black" />
<path d="
" fill="black" />
<path d="
" fill="black" />
<path d="
M 622 567 
L 642 567 
L 642 623 
L 622 623 
L 622 567 
" fill="black" />
<path d="
" fill="black" />
<path d="
M 682 595 
Q 679 595 , 677 599 
Q 675 602 , 675 607 
Q 675 613 , 677 616 
Q 679 619 , 682 619 
Q 685 619 , 687 616 
Q 689 613 , 689 607 
Q 689 602 , 687 599 
Q 685 595 , 682 595 
M 677 593 
Q 675 592 , 674 589 
Q 673 586 , 673 581 
Q 673 575 , 675 571 
Q 678 567 , 682 567 
Q 686 567 , 689 571 
Q 691 575 , 691 581 
Q 691 586 , 690 589 
Q 688 592 , 687 593 
Q 689 594 , 690 598 
Q 692 601 , 692 607 
Q 692 614 , 689 619 
Q 687 623 , 682 623 
Q 677 623 , 675 619 
Q 672 614 , 672 607 
Q 672 601 , 674 598 
Q 675 594 , 677 593 
M 677 573 
Q 675 576 , 675 581 
Q 675 586 , 677 589 
Q 679 592 , 682 592 
Q 685 592 , 687 589 
Q 689 586 , 689 581 
Q 689 576 , 687 574 
Q 685 571 , 682 571 
Q 679 571 , 677 573 
" fill="black" />
<path d="
M 790 582 
L 756 595 
L 790 608 
L 787 611 
L 753 598 
L 753 623 
L 747 623 
L 747 599 
L 713 611 
L 710 608 
L 744 595 
L 710 582 
L 713 579 
L 747 591 
L 747 567 
L 753 567 
L 753 591 
L 787 579 
L 790 582 
" fill="black" />
<path d="
" fill="black" />
<path d="
M 841 567 
L 868 567 
L 868 623 
L 841 623 
L 841 567 
" fill="black" />
<path d="
" fill="black" />
<path d="
M 920 567 
L 944 567 
Q 972 574 , 986 581 
Q 1000 588 , 1000 595 
Q 1000 602 , 986 609 
Q 972 616 , 944 623 
L 920 623 
Q 949 616 , 962 609 
Q 975 602 , 975 595 
Q 975 588 , 962 581 
Q 949 574 , 920 567 
" fill="black" />
<path d="
" fill="black" />
<path d="
M 1051 567 
L 1078 567 
L 1078 623 
L 1051 623 
L 1051 567 
" fill="black" />
<path d="
" fill="black" />
<path d="
" fill="black" />
<path d="
M 1156 567 
L 1183 567 
L 1183 623 
L 1156 623 
L 1156 567 
" fill="black" />
<path d="
" fill="black" />
<path d="
" fill="black" />
<path d="
M 1261 567 
L 1288 567 
L 1288 623 
L 1261 623 
L 1261 567 
" fill="black" />
<path d="
" fill="black" />
<path d="
M 1420 582 
L 1386 595 
L 1420 608 
L 1417 611 
L 1383 598 
L 1383 623 
L 1377 623 
L 1377 599 
L 1343 611 
L 1340 608 
L 1374 595 
L 1340 582 
L 1343 579 
L 1377 591 
L 1377 567 
L 1383 567 
L 1383 591 
L 1417 579 
L 1420 582 
" fill="black" />
</svg>
