<svg xmlns="http://www.w3.org/2000/svg"
viewBox="0 0 1435 635">
<path d="
M 170 554 
L 170 554 
Q 155 554 , 147 554 
Q 139 554 , 129 554 
Q 108 554 , 98 554 
Q 86 554 , 86 554 
Q 86 554 , 98 554 
Q 108 554 , 129 554 
Q 139 554 , 147 554 
Q 155 554 , 170 554 
L 170 554 
Q 159 554 , 149 554 
Q 139 554 , 128 554 
Q 101 554 , 86 554 
Q 70 554 , 70 554 
Q 70 554 , 86 554 
Q 101 554 , 128 554 
Q 139 554 , 149 554 
Q 160 554 , 170 554 
" fill="#545FFF" />
<path d="
M 154 553 
L 154 553 
L 125 553 
L 125 553 
L 170 553 
L 170 553 
Q 159 553 , 148 553 
Q 139 553 , 127 553 
Q 101 553 , 85 553 
Q 70 553 , 70 553 
Q 70 553 , 85 553 
Q 101 553 , 127 553 
Q 138 553 , 147 553 
Q 157 553 , 167 553 
L 167 553 
Q 154 553 , 146 553 
Q 137 553 , 128 553 
Q 107 553 , 96 553 
Q 86 553 , 86 553 
Q 86 553 , 96 553 
Q 107 553 , 128 553 
Q 137 553 , 144 553 
Q 151 553 , 154 553 
" fill="#F5C000" />
<path d="
M 120 552 
L 102 552 
L 136 552 
L 120 552 
M 113 552 
L 127 552 
L 170 552 
L 154 552 
L 142 552 
L 98 552 
L 85 552 
L 70 552 
L 113 552 
" fill="#339541" />
<path d="
M 70 551 
L 88 551 
L 88 551 
Q 88 551 , 96 551 
Q 103 551 , 120 551 
Q 137 551 , 145 551 
Q 152 551 , 152 551 
L 152 551 
L 170 551 
L 170 551 
Q 170 551 , 157 551 
Q 145 551 , 120 551 
Q 96 551 , 83 551 
Q 70 551 , 70 551 
L 70 551 
" fill="#D21010" />
<path d="
M 175 554 
L 193 554 
L 193 554 
Q 193 554 , 201 554 
Q 208 554 , 225 554 
Q 242 554 , 250 554 
Q 257 554 , 257 554 
L 257 554 
L 275 554 
L 275 554 
Q 275 554 , 262 554 
Q 250 554 , 225 554 
Q 201 554 , 188 554 
Q 175 554 , 175 554 
L 175 554 
" fill="#D21010" />
<path d="
M 225 553 
L 207 553 
L 241 553 
L 225 553 
M 218 553 
L 232 553 
L 275 553 
L 259 553 
L 247 553 
L 203 553 
L 190 553 
L 175 553 
L 218 553 
" fill="#339541" />
<path d="
M 259 552 
L 259 552 
L 230 552 
L 230 552 
L 275 552 
L 275 552 
Q 264 552 , 253 552 
Q 244 552 , 232 552 
Q 206 552 , 190 552 
Q 175 552 , 175 552 
Q 175 552 , 190 552 
Q 206 552 , 232 552 
Q 243 552 , 252 552 
Q 262 552 , 272 552 
L 272 552 
Q 259 552 , 251 552 
Q 242 552 , 233 552 
Q 212 552 , 201 552 
Q 191 552 , 191 552 
Q 191 552 , 201 552 
Q 212 552 , 233 552 
Q 242 552 , 249 552 
Q 256 552 , 259 552 
" fill="#F5C000" />
<path d="
M 275 551 
L 275 551 
Q 260 551 , 252 551 
Q 244 551 , 234 551 
Q 213 551 , 203 551 
Q 191 551 , 191 551 
Q 191 551 , 203 551 
Q 213 551 , 234 551 
Q 244 551 , 252 551 
Q 260 551 , 275 551 
L 275 551 
Q 264 551 , 254 551 
Q 244 551 , 233 551 
Q 206 551 , 191 551 
Q 175 551 , 175 551 
Q 175 551 , 191 551 
Q 206 551 , 233 551 
Q 244 551 , 254 551 
Q 265 551 , 275 551 
" fill="#545FFF" />
<path d="
M 380 552 
L 380 553 
Q 365 552 , 357 552 
Q 349 552 , 339 552 
Q 318 552 , 308 552 
Q 296 553 , 296 553 
Q 296 553 , 308 554 
Q 318 554 , 339 554 
Q 349 554 , 357 554 
Q 365 554 , 380 554 
L 380 554 
Q 369 554 , 359 554 
Q 349 554 , 338 554 
Q 311 554 , 296 554 
Q 280 554 , 280 553 
Q 280 553 , 296 552 
Q 311 552 , 338 552 
Q 349 552 , 359 552 
Q 370 552 , 380 552 
" fill="#545FFF" />
<path d="
M 330 547 
L 312 549 
L 346 549 
L 330 547 
M 323 546 
L 337 546 
L 380 552 
L 364 552 
L 352 550 
L 308 550 
L 295 552 
L 280 552 
L 323 546 
" fill="#339541" />
<path d="
M 364 545 
L 364 543 
L 335 543 
L 335 543 
L 380 543 
L 380 545 
Q 369 545 , 358 546 
Q 349 546 , 337 546 
Q 311 546 , 295 545 
Q 280 544 , 280 543 
Q 280 542 , 295 541 
Q 311 540 , 337 540 
Q 348 540 , 357 540 
Q 367 540 , 377 540 
L 377 541 
Q 364 541 , 356 541 
Q 347 541 , 338 541 
Q 317 541 , 306 541 
Q 296 542 , 296 543 
Q 296 544 , 306 545 
Q 317 545 , 338 545 
Q 347 545 , 354 545 
Q 361 545 , 364 545 
" fill="#F5C000" />
<path d="
M 280 532 
L 298 532 
L 298 536 
Q 298 537 , 306 538 
Q 313 538 , 330 538 
Q 347 538 , 355 538 
Q 362 537 , 362 536 
L 362 532 
L 380 532 
L 380 536 
Q 380 538 , 367 538 
Q 355 539 , 330 539 
Q 306 539 , 293 538 
Q 280 538 , 280 536 
L 280 532 
" fill="#D21010" />
<path d="
M 435 552 
L 435 553 
Q 428 552 , 424 552 
Q 419 552 , 414 552 
Q 404 552 , 399 553 
Q 393 553 , 393 553 
Q 393 554 , 399 554 
Q 404 555 , 414 555 
Q 419 555 , 424 554 
Q 428 554 , 435 554 
L 435 555 
Q 430 555 , 424 555 
Q 420 555 , 414 555 
Q 400 555 , 393 554 
Q 385 554 , 385 553 
Q 385 553 , 393 552 
Q 400 552 , 414 552 
Q 420 552 , 425 552 
Q 430 552 , 435 552 
" fill="#545FFF" />
<path d="
M 477 554 
L 477 554 
L 463 554 
L 463 553 
L 485 553 
L 485 555 
Q 480 555 , 474 555 
Q 469 555 , 463 555 
Q 450 555 , 443 554 
Q 435 554 , 435 553 
Q 435 553 , 443 552 
Q 450 552 , 463 552 
Q 469 552 , 474 552 
Q 479 552 , 484 552 
L 484 553 
Q 477 552 , 473 552 
Q 469 552 , 464 552 
Q 454 552 , 448 553 
Q 443 553 , 443 553 
Q 443 554 , 448 554 
Q 454 555 , 464 555 
Q 469 555 , 472 554 
Q 476 554 , 477 554 
" fill="lightgray" />
<path d="
M 427 551 
L 427 550 
L 413 550 
L 413 550 
L 435 550 
L 435 551 
Q 430 551 , 424 551 
Q 419 551 , 413 551 
Q 400 551 , 393 551 
Q 385 550 , 385 550 
Q 385 549 , 393 548 
Q 400 548 , 413 548 
Q 419 548 , 424 548 
Q 429 548 , 434 548 
L 434 549 
Q 427 549 , 423 548 
Q 419 548 , 414 548 
Q 404 548 , 398 549 
Q 393 549 , 393 550 
Q 393 550 , 398 551 
Q 404 551 , 414 551 
Q 419 551 , 422 551 
Q 426 551 , 427 551 
" fill="#F5C000" />
<path d="
M 435 548 
L 444 548 
L 444 550 
Q 444 551 , 448 551 
Q 451 551 , 460 551 
Q 469 551 , 472 551 
Q 476 551 , 476 550 
L 476 548 
L 485 548 
L 485 550 
Q 485 551 , 479 551 
Q 472 551 , 460 551 
Q 448 551 , 441 551 
Q 435 551 , 435 550 
L 435 548 
" fill="lightgray" />
<path d="
M 385 543 
L 394 543 
L 394 545 
Q 394 546 , 398 546 
Q 401 547 , 410 547 
Q 419 547 , 422 546 
Q 426 546 , 426 545 
L 426 543 
L 435 543 
L 435 545 
Q 435 546 , 429 547 
Q 422 547 , 410 547 
Q 398 547 , 391 547 
Q 385 546 , 385 545 
L 385 543 
" fill="#D21010" />
<path d="
M 477 546 
L 477 545 
L 463 545 
L 463 545 
L 485 545 
L 485 547 
Q 480 547 , 474 547 
Q 469 547 , 463 547 
Q 450 547 , 443 546 
Q 435 546 , 435 545 
Q 435 544 , 443 544 
Q 450 543 , 463 543 
Q 469 543 , 474 543 
Q 479 543 , 484 543 
L 484 544 
Q 477 544 , 473 544 
Q 469 543 , 464 543 
Q 454 543 , 448 544 
Q 443 544 , 443 545 
Q 443 546 , 448 546 
Q 454 547 , 464 547 
Q 469 547 , 472 547 
Q 476 546 , 477 546 
" fill="lightgray" />
<path d="
M 385 537 
L 394 537 
L 394 540 
Q 394 541 , 398 542 
Q 401 542 , 410 542 
Q 419 542 , 422 542 
Q 426 541 , 426 540 
L 426 537 
L 435 537 
L 435 541 
Q 435 542 , 429 542 
Q 422 543 , 410 543 
Q 398 543 , 391 542 
Q 385 542 , 385 541 
L 385 537 
" fill="#D21010" />
<path d="
M 460 538 
L 451 540 
L 468 540 
L 460 538 
M 456 537 
L 464 537 
L 485 543 
L 477 543 
L 471 541 
L 449 541 
L 442 543 
L 435 543 
L 456 537 
" fill="lightgray" />
<path d="
M 410 529 
L 401 533 
L 418 533 
L 410 529 
M 406 527 
L 414 527 
L 435 537 
L 427 537 
L 421 534 
L 399 534 
L 392 537 
L 385 537 
L 406 527 
" fill="#339541" />
<path d="
M 435 527 
L 444 527 
L 444 533 
Q 444 535 , 448 535 
Q 451 536 , 460 536 
Q 469 536 , 472 535 
Q 476 535 , 476 533 
L 476 527 
L 485 527 
L 485 533 
Q 485 535 , 479 536 
Q 472 537 , 460 537 
Q 448 537 , 441 536 
Q 435 535 , 435 533 
L 435 527 
" fill="lightgray" />
<path d="
M 427 525 
L 427 522 
L 413 522 
L 413 520 
L 435 520 
L 435 525 
Q 430 526 , 424 526 
Q 419 526 , 413 526 
Q 400 526 , 393 525 
Q 385 523 , 385 521 
Q 385 518 , 393 517 
Q 400 515 , 413 515 
Q 419 515 , 424 515 
Q 429 515 , 434 516 
L 434 517 
Q 427 517 , 423 517 
Q 419 516 , 414 516 
Q 404 516 , 398 517 
Q 393 518 , 393 521 
Q 393 523 , 398 524 
Q 404 525 , 414 525 
Q 419 525 , 422 525 
Q 426 525 , 427 525 
" fill="#F5C000" />
<path d="
M 485 516 
L 485 518 
Q 478 517 , 474 517 
Q 469 516 , 464 516 
Q 454 516 , 449 517 
Q 443 518 , 443 520 
Q 443 523 , 449 524 
Q 454 525 , 464 525 
Q 469 525 , 474 525 
Q 478 524 , 485 523 
L 485 525 
Q 480 526 , 474 526 
Q 470 526 , 464 526 
Q 450 526 , 443 525 
Q 435 523 , 435 521 
Q 435 518 , 443 517 
Q 450 515 , 464 515 
Q 470 515 , 475 515 
Q 480 516 , 485 516 
" fill="lightgray" />
<path d="
M 590 552 
L 590 553 
Q 575 552 , 567 552 
Q 559 552 , 549 552 
Q 528 552 , 518 553 
Q 506 553 , 506 553 
Q 506 554 , 518 554 
Q 528 554 , 549 554 
Q 559 554 , 567 554 
Q 575 554 , 590 554 
L 590 554 
Q 579 554 , 569 554 
Q 559 554 , 548 554 
Q 521 554 , 506 554 
Q 490 554 , 490 553 
Q 490 553 , 506 552 
Q 521 552 , 548 552 
Q 559 552 , 569 552 
Q 580 552 , 590 552 
" fill="#545FFF" />
<path d="
M 540 546 
L 522 549 
L 556 549 
L 540 546 
M 533 545 
L 547 545 
L 590 552 
L 574 552 
L 562 550 
L 518 550 
L 505 552 
L 490 552 
L 533 545 
" fill="#339541" />
<path d="
M 574 544 
L 574 542 
L 545 542 
L 545 541 
L 590 541 
L 590 544 
Q 579 545 , 568 545 
Q 559 545 , 547 545 
Q 521 545 , 505 544 
Q 490 543 , 490 541 
Q 490 540 , 505 539 
Q 521 538 , 547 538 
Q 558 538 , 567 538 
Q 577 538 , 587 539 
L 587 539 
Q 574 539 , 566 539 
Q 557 539 , 548 539 
Q 527 539 , 516 539 
Q 506 540 , 506 541 
Q 506 543 , 516 543 
Q 527 544 , 548 544 
Q 557 544 , 564 544 
Q 571 544 , 574 544 
" fill="#F5C000" />
<path d="
M 490 528 
L 508 528 
L 508 534 
Q 508 535 , 516 536 
Q 523 537 , 540 537 
Q 557 537 , 565 536 
Q 572 535 , 572 534 
L 572 528 
L 590 528 
L 590 534 
Q 590 536 , 577 537 
Q 565 538 , 540 538 
Q 516 538 , 503 537 
Q 490 536 , 490 534 
L 490 528 
" fill="#D21010" />
<path d="
M 695 551 
L 695 552 
Q 680 552 , 672 551 
Q 664 551 , 654 551 
Q 633 551 , 623 552 
Q 611 552 , 611 552 
Q 611 553 , 623 554 
Q 633 554 , 654 554 
Q 664 554 , 672 554 
Q 680 554 , 695 553 
L 695 554 
Q 684 554 , 674 554 
Q 664 554 , 653 554 
Q 626 554 , 611 554 
Q 595 553 , 595 553 
Q 595 552 , 611 551 
Q 626 551 , 653 551 
Q 664 551 , 674 551 
Q 685 551 , 695 551 
" fill="#545FFF" />
<path d="
M 645 544 
L 627 547 
L 661 547 
L 645 544 
M 638 542 
L 652 542 
L 695 551 
L 679 551 
L 667 548 
L 623 548 
L 610 551 
L 595 551 
L 638 542 
" fill="#339541" />
<path d="
M 595 530 
L 613 530 
L 613 537 
Q 613 539 , 621 539 
Q 628 540 , 645 540 
Q 662 540 , 670 539 
Q 677 539 , 677 537 
L 677 530 
L 695 530 
L 695 537 
Q 695 539 , 682 540 
Q 670 541 , 645 541 
Q 621 541 , 608 540 
Q 595 539 , 595 537 
L 595 530 
" fill="#D21010" />
<path d="
M 679 526 
L 679 521 
L 650 521 
L 650 519 
L 695 519 
L 695 528 
Q 684 529 , 673 529 
Q 664 529 , 652 529 
Q 626 529 , 610 527 
Q 595 524 , 595 520 
Q 595 515 , 610 513 
Q 626 510 , 652 510 
Q 663 510 , 672 510 
Q 682 511 , 692 512 
L 692 514 
Q 679 513 , 671 513 
Q 662 512 , 653 512 
Q 632 512 , 621 514 
Q 611 516 , 611 520 
Q 611 523 , 621 525 
Q 632 527 , 653 527 
Q 662 527 , 669 527 
Q 676 527 , 679 526 
" fill="#F5C000" />
<path d="
M 800 554 
L 800 554 
Q 785 554 , 777 554 
Q 769 554 , 759 554 
Q 738 554 , 728 554 
Q 716 554 , 716 554 
Q 716 554 , 728 554 
Q 738 554 , 759 554 
Q 769 554 , 777 554 
Q 785 554 , 800 554 
L 800 554 
Q 789 554 , 779 554 
Q 769 554 , 758 554 
Q 731 554 , 716 554 
Q 700 554 , 700 554 
Q 700 554 , 716 554 
Q 731 554 , 758 554 
Q 769 554 , 779 554 
Q 790 554 , 800 554 
" fill="#545FFF" />
<path d="
M 784 553 
L 784 553 
L 755 553 
L 755 553 
L 800 553 
L 800 553 
Q 789 553 , 778 553 
Q 769 553 , 757 553 
Q 731 553 , 715 553 
Q 700 553 , 700 553 
Q 700 553 , 715 553 
Q 731 553 , 757 553 
Q 768 553 , 777 553 
Q 787 553 , 797 553 
L 797 553 
Q 784 553 , 776 553 
Q 767 553 , 758 553 
Q 737 553 , 726 553 
Q 716 553 , 716 553 
Q 716 553 , 726 553 
Q 737 553 , 758 553 
Q 767 553 , 774 553 
Q 781 553 , 784 553 
" fill="#F5C000" />
<path d="
M 750 552 
L 732 552 
L 766 552 
L 750 552 
M 743 552 
L 757 552 
L 800 552 
L 784 552 
L 772 552 
L 728 552 
L 715 552 
L 700 552 
L 743 552 
" fill="#339541" />
<path d="
M 700 551 
L 718 551 
L 718 551 
Q 718 551 , 726 551 
Q 733 551 , 750 551 
Q 767 551 , 775 551 
Q 782 551 , 782 551 
L 782 551 
L 800 551 
L 800 551 
Q 800 551 , 787 551 
Q 775 551 , 750 551 
Q 726 551 , 713 551 
Q 700 551 , 700 551 
L 700 551 
" fill="#D21010" />
<path d="
M 905 554 
L 905 554 
Q 890 554 , 882 554 
Q 874 554 , 864 554 
Q 843 554 , 833 554 
Q 821 554 , 821 554 
Q 821 554 , 833 554 
Q 843 554 , 864 554 
Q 874 554 , 882 554 
Q 890 554 , 905 554 
L 905 554 
Q 894 554 , 884 554 
Q 874 554 , 863 554 
Q 836 554 , 821 554 
Q 805 554 , 805 554 
Q 805 554 , 821 554 
Q 836 554 , 863 554 
Q 874 554 , 884 554 
Q 895 554 , 905 554 
" fill="#545FFF" />
<path d="
M 855 553 
L 837 553 
L 871 553 
L 855 553 
M 848 553 
L 862 553 
L 905 553 
L 889 553 
L 877 553 
L 833 553 
L 820 553 
L 805 553 
L 848 553 
" fill="#339541" />
<path d="
M 889 552 
L 889 552 
L 860 552 
L 860 552 
L 905 552 
L 905 552 
Q 894 552 , 883 552 
Q 874 552 , 862 552 
Q 836 552 , 820 552 
Q 805 552 , 805 552 
Q 805 552 , 820 552 
Q 836 552 , 862 552 
Q 873 552 , 882 552 
Q 892 552 , 902 552 
L 902 552 
Q 889 552 , 881 552 
Q 872 552 , 863 552 
Q 842 552 , 831 552 
Q 821 552 , 821 552 
Q 821 552 , 831 552 
Q 842 552 , 863 552 
Q 872 552 , 879 552 
Q 886 552 , 889 552 
" fill="#F5C000" />
<path d="
M 805 551 
L 823 551 
L 823 551 
Q 823 551 , 831 551 
Q 838 551 , 855 551 
Q 872 551 , 880 551 
Q 887 551 , 887 551 
L 887 551 
L 905 551 
L 905 551 
Q 905 551 , 892 551 
Q 880 551 , 855 551 
Q 831 551 , 818 551 
Q 805 551 , 805 551 
L 805 551 
" fill="#D21010" />
<path d="
M 960 552 
L 960 553 
Q 953 552 , 949 552 
Q 944 552 , 939 552 
Q 929 552 , 924 553 
Q 918 553 , 918 553 
Q 918 554 , 924 554 
Q 929 555 , 939 555 
Q 944 555 , 949 554 
Q 953 554 , 960 554 
L 960 555 
Q 955 555 , 949 555 
Q 945 555 , 939 555 
Q 925 555 , 918 554 
Q 910 554 , 910 553 
Q 910 553 , 918 552 
Q 925 552 , 939 552 
Q 945 552 , 950 552 
Q 955 552 , 960 552 
" fill="lightgray" />
<path d="
M 1002 554 
L 1002 554 
L 988 554 
L 988 553 
L 1010 553 
L 1010 555 
Q 1005 555 , 999 555 
Q 994 555 , 988 555 
Q 975 555 , 968 554 
Q 960 554 , 960 553 
Q 960 553 , 968 552 
Q 975 552 , 988 552 
Q 994 552 , 999 552 
Q 1004 552 , 1009 552 
L 1009 553 
Q 1002 552 , 998 552 
Q 994 552 , 989 552 
Q 979 552 , 973 553 
Q 968 553 , 968 553 
Q 968 554 , 973 554 
Q 979 555 , 989 555 
Q 994 555 , 997 554 
Q 1001 554 , 1002 554 
" fill="#F5C000" />
<path d="
M 952 551 
L 952 550 
L 938 550 
L 938 550 
L 960 550 
L 960 551 
Q 955 551 , 949 551 
Q 944 551 , 938 551 
Q 925 551 , 918 551 
Q 910 550 , 910 550 
Q 910 549 , 918 548 
Q 925 548 , 938 548 
Q 944 548 , 949 548 
Q 954 548 , 959 548 
L 959 549 
Q 952 549 , 948 548 
Q 944 548 , 939 548 
Q 929 548 , 923 549 
Q 918 549 , 918 550 
Q 918 550 , 923 551 
Q 929 551 , 939 551 
Q 944 551 , 947 551 
Q 951 551 , 952 551 
" fill="lightgray" />
<path d="
M 960 548 
L 969 548 
L 969 550 
Q 969 551 , 973 551 
Q 976 551 , 985 551 
Q 994 551 , 997 551 
Q 1001 551 , 1001 550 
L 1001 548 
L 1010 548 
L 1010 550 
Q 1010 551 , 1004 551 
Q 997 551 , 985 551 
Q 973 551 , 966 551 
Q 960 551 , 960 550 
L 960 548 
" fill="#D21010" />
<path d="
M 910 543 
L 919 543 
L 919 545 
Q 919 546 , 923 546 
Q 926 547 , 935 547 
Q 944 547 , 947 546 
Q 951 546 , 951 545 
L 951 543 
L 960 543 
L 960 545 
Q 960 546 , 954 547 
Q 947 547 , 935 547 
Q 923 547 , 916 547 
Q 910 546 , 910 545 
L 910 543 
" fill="lightgray" />
<path d="
M 1002 546 
L 1002 545 
L 988 545 
L 988 545 
L 1010 545 
L 1010 547 
Q 1005 547 , 999 547 
Q 994 547 , 988 547 
Q 975 547 , 968 546 
Q 960 546 , 960 545 
Q 960 544 , 968 544 
Q 975 543 , 988 543 
Q 994 543 , 999 543 
Q 1004 543 , 1009 543 
L 1009 544 
Q 1002 544 , 998 544 
Q 994 543 , 989 543 
Q 979 543 , 973 544 
Q 968 544 , 968 545 
Q 968 546 , 973 546 
Q 979 547 , 989 547 
Q 994 547 , 997 547 
Q 1001 546 , 1002 546 
" fill="#F5C000" />
<path d="
M 910 537 
L 919 537 
L 919 540 
Q 919 541 , 923 542 
Q 926 542 , 935 542 
Q 944 542 , 947 542 
Q 951 541 , 951 540 
L 951 537 
L 960 537 
L 960 541 
Q 960 542 , 954 542 
Q 947 543 , 935 543 
Q 923 543 , 916 542 
Q 910 542 , 910 541 
L 910 537 
" fill="lightgray" />
<path d="
M 985 538 
L 976 540 
L 993 540 
L 985 538 
M 981 537 
L 989 537 
L 1010 543 
L 1002 543 
L 996 541 
L 974 541 
L 967 543 
L 960 543 
L 981 537 
" fill="#339541" />
<path d="
M 935 529 
L 926 533 
L 943 533 
L 935 529 
M 931 527 
L 939 527 
L 960 537 
L 952 537 
L 946 534 
L 924 534 
L 917 537 
L 910 537 
L 931 527 
" fill="lightgray" />
<path d="
M 960 527 
L 969 527 
L 969 533 
Q 969 535 , 973 535 
Q 976 536 , 985 536 
Q 994 536 , 997 535 
Q 1001 535 , 1001 533 
L 1001 527 
L 1010 527 
L 1010 533 
Q 1010 535 , 1004 536 
Q 997 537 , 985 537 
Q 973 537 , 966 536 
Q 960 535 , 960 533 
L 960 527 
" fill="#D21010" />
<path d="
M 952 525 
L 952 522 
L 938 522 
L 938 520 
L 960 520 
L 960 525 
Q 955 526 , 949 526 
Q 944 526 , 938 526 
Q 925 526 , 918 525 
Q 910 523 , 910 521 
Q 910 518 , 918 517 
Q 925 515 , 938 515 
Q 944 515 , 949 515 
Q 954 515 , 959 516 
L 959 517 
Q 952 517 , 948 517 
Q 944 516 , 939 516 
Q 929 516 , 923 517 
Q 918 518 , 918 521 
Q 918 523 , 923 524 
Q 929 525 , 939 525 
Q 944 525 , 947 525 
Q 951 525 , 952 525 
" fill="lightgray" />
<path d="
M 1010 516 
L 1010 518 
Q 1003 517 , 999 517 
Q 994 516 , 989 516 
Q 979 516 , 974 517 
Q 968 518 , 968 520 
Q 968 523 , 974 524 
Q 979 525 , 989 525 
Q 994 525 , 999 525 
Q 1003 524 , 1010 523 
L 1010 525 
Q 1005 526 , 999 526 
Q 995 526 , 989 526 
Q 975 526 , 968 525 
Q 960 523 , 960 521 
Q 960 518 , 968 517 
Q 975 515 , 989 515 
Q 995 515 , 1000 515 
Q 1005 516 , 1010 516 
" fill="#545FFF" />
<path d="
M 1115 550 
L 1115 551 
Q 1100 551 , 1092 551 
Q 1084 550 , 1074 550 
Q 1053 550 , 1043 551 
Q 1031 551 , 1031 552 
Q 1031 553 , 1043 553 
Q 1053 554 , 1074 554 
Q 1084 554 , 1092 554 
Q 1100 553 , 1115 553 
L 1115 554 
Q 1104 554 , 1094 554 
Q 1084 554 , 1073 554 
Q 1046 554 , 1031 554 
Q 1015 553 , 1015 552 
Q 1015 551 , 1031 551 
Q 1046 550 , 1073 550 
Q 1084 550 , 1094 550 
Q 1105 550 , 1115 550 
" fill="#545FFF" />
<path d="
M 1065 543 
L 1047 546 
L 1081 546 
L 1065 543 
M 1058 541 
L 1072 541 
L 1115 549 
L 1099 549 
L 1087 547 
L 1043 547 
L 1030 549 
L 1015 549 
L 1058 541 
" fill="#339541" />
<path d="
M 1099 537 
L 1099 530 
L 1070 530 
L 1070 528 
L 1115 528 
L 1115 538 
Q 1104 539 , 1093 540 
Q 1084 540 , 1072 540 
Q 1046 540 , 1030 537 
Q 1015 534 , 1015 528 
Q 1015 522 , 1030 519 
Q 1046 516 , 1072 516 
Q 1083 516 , 1092 516 
Q 1102 517 , 1112 518 
L 1112 521 
Q 1099 520 , 1091 519 
Q 1082 519 , 1073 519 
Q 1052 519 , 1041 521 
Q 1031 523 , 1031 528 
Q 1031 533 , 1041 535 
Q 1052 537 , 1073 537 
Q 1082 537 , 1089 537 
Q 1096 537 , 1099 537 
" fill="#F5C000" />
<path d="
M 1015 480 
L 1033 480 
L 1033 501 
Q 1033 507 , 1041 510 
Q 1048 512 , 1065 512 
Q 1082 512 , 1090 510 
Q 1097 507 , 1097 501 
L 1097 480 
L 1115 480 
L 1115 502 
Q 1115 509 , 1102 512 
Q 1090 516 , 1065 516 
Q 1041 516 , 1028 512 
Q 1015 509 , 1015 502 
L 1015 480 
" fill="#D21010" />
<path d="
M 1220 550 
L 1220 551 
Q 1205 551 , 1197 551 
Q 1189 551 , 1179 551 
Q 1158 551 , 1148 551 
Q 1136 551 , 1136 552 
Q 1136 553 , 1148 554 
Q 1158 554 , 1179 554 
Q 1189 554 , 1197 554 
Q 1205 554 , 1220 553 
L 1220 554 
Q 1209 554 , 1199 555 
Q 1189 555 , 1178 555 
Q 1151 555 , 1136 554 
Q 1120 553 , 1120 552 
Q 1120 551 , 1136 551 
Q 1151 550 , 1178 550 
Q 1189 550 , 1199 550 
Q 1210 550 , 1220 550 
" fill="#545FFF" />
<path d="
M 1170 543 
L 1152 546 
L 1186 546 
L 1170 543 
M 1163 542 
L 1177 542 
L 1220 549 
L 1204 549 
L 1192 547 
L 1148 547 
L 1135 549 
L 1120 549 
L 1163 542 
" fill="#339541" />
<path d="
M 1120 511 
L 1138 511 
L 1138 529 
Q 1138 534 , 1146 536 
Q 1153 538 , 1170 538 
Q 1187 538 , 1195 536 
Q 1202 534 , 1202 529 
L 1202 511 
L 1220 511 
L 1220 530 
Q 1220 535 , 1207 538 
Q 1195 542 , 1170 542 
Q 1146 542 , 1133 538 
Q 1120 535 , 1120 530 
L 1120 511 
" fill="#D21010" />
<path d="
M 1204 504 
L 1204 494 
L 1175 494 
L 1175 489 
L 1220 489 
L 1220 507 
Q 1209 509 , 1198 509 
Q 1189 510 , 1177 510 
Q 1151 510 , 1135 505 
Q 1120 499 , 1120 490 
Q 1120 481 , 1135 475 
Q 1151 470 , 1177 470 
Q 1188 470 , 1197 471 
Q 1207 471 , 1217 473 
L 1217 478 
Q 1204 476 , 1196 475 
Q 1187 475 , 1178 475 
Q 1157 475 , 1146 479 
Q 1136 482 , 1136 490 
Q 1136 498 , 1146 502 
Q 1157 506 , 1178 506 
Q 1187 506 , 1194 505 
Q 1201 505 , 1204 504 
" fill="#F5C000" />
<path d="
M 1275 552 
L 1257 553 
L 1291 553 
L 1275 552 
M 1268 551 
L 1282 551 
L 1325 554 
L 1309 554 
L 1297 553 
L 1253 553 
L 1240 554 
L 1225 554 
L 1268 551 
" fill="#339541" />
<path d="
M 1325 547 
L 1325 548 
Q 1310 548 , 1302 547 
Q 1294 547 , 1284 547 
Q 1263 547 , 1253 548 
Q 1241 548 , 1241 548 
Q 1241 549 , 1253 550 
Q 1263 550 , 1284 550 
Q 1294 550 , 1302 550 
Q 1310 550 , 1325 549 
L 1325 550 
Q 1314 550 , 1304 550 
Q 1294 550 , 1283 550 
Q 1256 550 , 1241 550 
Q 1225 549 , 1225 549 
Q 1225 548 , 1241 547 
Q 1256 547 , 1283 547 
Q 1294 547 , 1304 547 
Q 1315 547 , 1325 547 
" fill="#545FFF" />
<path d="
M 1309 546 
L 1309 545 
L 1280 545 
L 1280 544 
L 1325 544 
L 1325 546 
Q 1314 546 , 1303 546 
Q 1294 546 , 1282 546 
Q 1256 546 , 1240 546 
Q 1225 545 , 1225 544 
Q 1225 543 , 1240 543 
Q 1256 542 , 1282 542 
Q 1293 542 , 1302 542 
Q 1312 542 , 1322 542 
L 1322 543 
Q 1309 543 , 1301 543 
Q 1292 543 , 1283 543 
Q 1262 543 , 1251 543 
Q 1241 543 , 1241 544 
Q 1241 545 , 1251 545 
Q 1262 546 , 1283 546 
Q 1292 546 , 1299 546 
Q 1306 546 , 1309 546 
" fill="#F5C000" />
<path d="
M 1225 534 
L 1243 534 
L 1243 538 
Q 1243 540 , 1251 540 
Q 1258 540 , 1275 540 
Q 1292 540 , 1300 540 
Q 1307 540 , 1307 538 
L 1307 534 
L 1325 534 
L 1325 538 
Q 1325 540 , 1312 541 
Q 1300 541 , 1275 541 
Q 1251 541 , 1238 541 
Q 1225 540 , 1225 538 
L 1225 534 
" fill="#D21010" />
<path d="
M 1430 554 
L 1430 554 
Q 1415 554 , 1407 554 
Q 1399 554 , 1389 554 
Q 1368 554 , 1358 554 
Q 1346 554 , 1346 554 
Q 1346 554 , 1358 554 
Q 1368 554 , 1389 554 
Q 1399 554 , 1407 554 
Q 1415 554 , 1430 554 
L 1430 554 
Q 1419 554 , 1409 554 
Q 1399 554 , 1388 554 
Q 1361 554 , 1346 554 
Q 1330 554 , 1330 554 
Q 1330 554 , 1346 554 
Q 1361 554 , 1388 554 
Q 1399 554 , 1409 554 
Q 1420 554 , 1430 554 
" fill="#545FFF" />
<path d="
M 1414 553 
L 1414 553 
L 1385 553 
L 1385 553 
L 1430 553 
L 1430 553 
Q 1419 553 , 1408 553 
Q 1399 553 , 1387 553 
Q 1361 553 , 1345 553 
Q 1330 553 , 1330 553 
Q 1330 553 , 1345 553 
Q 1361 553 , 1387 553 
Q 1398 553 , 1407 553 
Q 1417 553 , 1427 553 
L 1427 553 
Q 1414 553 , 1406 553 
Q 1397 553 , 1388 553 
Q 1367 553 , 1356 553 
Q 1346 553 , 1346 553 
Q 1346 553 , 1356 553 
Q 1367 553 , 1388 553 
Q 1397 553 , 1404 553 
Q 1411 553 , 1414 553 
" fill="#F5C000" />
<path d="
M 1380 552 
L 1362 552 
L 1396 552 
L 1380 552 
M 1373 552 
L 1387 552 
L 1430 552 
L 1414 552 
L 1402 552 
L 1358 552 
L 1345 552 
L 1330 552 
L 1373 552 
" fill="#339541" />
<path d="
M 1330 551 
L 1348 551 
L 1348 551 
Q 1348 551 , 1356 551 
Q 1363 551 , 1380 551 
Q 1397 551 , 1405 551 
Q 1412 551 , 1412 551 
L 1412 551 
L 1430 551 
L 1430 551 
Q 1430 551 , 1417 551 
Q 1405 551 , 1380 551 
Q 1356 551 , 1343 551 
Q 1330 551 , 1330 551 
L 1330 551 
" fill="#D21010" />
<path d="M 65 168 L 65 555 " stroke="black" stroke-width="1.5"/>
<path d="M 55 555 L 65 555 " stroke="black" stroke-width="4"/>
<text text-anchor="end" x="50" y="555" font-size="50" alignment-baseline="middle">0</text>
<path d="M 55 362 L 65 362 " stroke="black" stroke-width="4"/>
<text text-anchor="end" x="50" y="362" font-size="50" alignment-baseline="middle">1</text>
<path d="M 55 168 L 65 168 " stroke="black" stroke-width="4"/>
<text text-anchor="end" x="50" y="168" font-size="50" alignment-baseline="middle">2</text>
<text text-anchor="middle" x="750" y="50" font-size="50" alignment-baseline="baseline"></text>
G<path d="
M 160 582 
L 126 595 
L 160 608 
L 157 611 
L 123 598 
L 123 623 
L 117 623 
L 117 599 
L 83 611 
L 80 608 
L 114 595 
L 80 582 
L 83 579 
L 117 591 
L 117 567 
L 123 567 
L 123 591 
L 157 579 
L 160 582 
" fill="black" />
<path d="
" fill="black" />
<path d="
M 211 567 
L 238 567 
L 238 623 
L 211 623 
L 211 567 
" fill="black" />
<path d="
" fill="black" />
<path d="
" fill="black" />
<path d="
M 316 567 
L 343 567 
L 343 623 
L 316 623 
L 316 567 
" fill="black" />
<path d="
" fill="black" />
<path d="
M 475 567 
Q 446 574 , 433 581 
Q 420 588 , 420 595 
Q 420 602 , 433 609 
Q 446 616 , 475 623 
L 451 623 
Q 423 616 , 409 609 
Q 395 602 , 395 595 
Q 395 588 , 409 581 
Q 423 574 , 451 567 
L 475 567 
" fill="black" />
<path d="
" fill="black" />
<path d="
M 526 567 
L 553 567 
L 553 623 
L 526 623 
L 526 567 
" fill="black" />
<path d="
" fill="black" />
<path d="
" fill="black" />
<path d="
M 622 567 
L 642 567 
L 642 623 
L 622 623 
L 622 567 
" fill="black" />
<path d="
" fill="black" />
<path d="
M 682 595 
Q 679 595 , 677 599 
Q 675 602 , 675 607 
Q 675 613 , 677 616 
Q 679 619 , 682 619 
Q 685 619 , 687 616 
Q 689 613 , 689 607 
Q 689 602 , 687 599 
Q 685 595 , 682 595 
M 677 593 
Q 675 592 , 674 589 
Q 673 586 , 673 581 
Q 673 575 , 675 571 
Q 678 567 , 682 567 
Q 686 567 , 689 571 
Q 691 575 , 691 581 
Q 691 586 , 690 589 
Q 688 592 , 687 593 
Q 689 594 , 690 598 
Q 692 601 , 692 607 
Q 692 614 , 689 619 
Q 687 623 , 682 623 
Q 677 623 , 675 619 
Q 672 614 , 672 607 
Q 672 601 , 674 598 
Q 675 594 , 677 593 
M 677 573 
Q 675 576 , 675 581 
Q 675 586 , 677 589 
Q 679 592 , 682 592 
Q 685 592 , 687 589 
Q 689 586 , 689 581 
Q 689 576 , 687 574 
Q 685 571 , 682 571 
Q 679 571 , 677 573 
" fill="black" />
<path d="
M 790 582 
L 756 595 
L 790 608 
L 787 611 
L 753 598 
L 753 623 
L 747 623 
L 747 599 
L 713 611 
L 710 608 
L 744 595 
L 710 582 
L 713 579 
L 747 591 
L 747 567 
L 753 567 
L 753 591 
L 787 579 
L 790 582 
" fill="black" />
<path d="
" fill="black" />
<path d="
M 841 567 
L 868 567 
L 868 623 
L 841 623 
L 841 567 
" fill="black" />
<path d="
" fill="black" />
<path d="
M 920 567 
L 944 567 
Q 972 574 , 986 581 
Q 1000 588 , 1000 595 
Q 1000 602 , 986 609 
Q 972 616 , 944 623 
L 920 623 
Q 949 616 , 962 609 
Q 975 602 , 975 595 
Q 975 588 , 962 581 
Q 949 574 , 920 567 
" fill="black" />
<path d="
" fill="black" />
<path d="
M 1051 567 
L 1078 567 
L 1078 623 
L 1051 623 
L 1051 567 
" fill="black" />
<path d="
" fill="black" />
<path d="
" fill="black" />
<path d="
M 1156 567 
L 1183 567 
L 1183 623 
L 1156 623 
L 1156 567 
" fill="black" />
<path d="
" fill="black" />
<path d="
" fill="black" />
<path d="
M 1261 567 
L 1288 567 
L 1288 623 
L 1261 623 
L 1261 567 
" fill="black" />
<path d="
" fill="black" />
<path d="
M 1420 582 
L 1386 595 
L 1420 608 
L 1417 611 
L 1383 598 
L 1383 623 
L 1377 623 
L 1377 599 
L 1343 611 
L 1340 608 
L 1374 595 
L 1340 582 
L 1343 579 
L 1377 591 
L 1377 567 
L 1383 567 
L 1383 591 
L 1417 579 
L 1420 582 
" fill="black" />
</svg>
