<svg xmlns="http://www.w3.org/2000/svg"
viewBox="0 0 1435 635">
<path d="
M 170 554 
L 170 554 
Q 155 554 , 147 554 
Q 139 554 , 129 554 
Q 108 554 , 98 554 
Q 86 554 , 86 554 
Q 86 554 , 98 554 
Q 108 554 , 129 554 
Q 139 554 , 147 554 
Q 155 554 , 170 554 
L 170 554 
Q 159 554 , 149 554 
Q 139 554 , 128 554 
Q 101 554 , 86 554 
Q 70 554 , 70 554 
Q 70 554 , 86 554 
Q 101 554 , 128 554 
Q 139 554 , 149 554 
Q 160 554 , 170 554 
" fill="#545FFF" />
<path d="
M 154 553 
L 154 553 
L 125 553 
L 125 553 
L 170 553 
L 170 553 
Q 159 553 , 148 553 
Q 139 553 , 127 553 
Q 101 553 , 85 553 
Q 70 553 , 70 553 
Q 70 553 , 85 553 
Q 101 553 , 127 553 
Q 138 553 , 147 553 
Q 157 553 , 167 553 
L 167 553 
Q 154 553 , 146 553 
Q 137 553 , 128 553 
Q 107 553 , 96 553 
Q 86 553 , 86 553 
Q 86 553 , 96 553 
Q 107 553 , 128 553 
Q 137 553 , 144 553 
Q 151 553 , 154 553 
" fill="#F5C000" />
<path d="
M 120 552 
L 102 552 
L 136 552 
L 120 552 
M 113 552 
L 127 552 
L 170 552 
L 154 552 
L 142 552 
L 98 552 
L 85 552 
L 70 552 
L 113 552 
" fill="#339541" />
<path d="
M 70 551 
L 88 551 
L 88 551 
Q 88 551 , 96 551 
Q 103 551 , 120 551 
Q 137 551 , 145 551 
Q 152 551 , 152 551 
L 152 551 
L 170 551 
L 170 551 
Q 170 551 , 157 551 
Q 145 551 , 120 551 
Q 96 551 , 83 551 
Q 70 551 , 70 551 
L 70 551 
" fill="#D21010" />
<path d="
M 259 553 
L 259 552 
L 230 552 
L 230 552 
L 275 552 
L 275 554 
Q 264 554 , 253 554 
Q 244 554 , 232 554 
Q 206 554 , 190 554 
Q 175 553 , 175 552 
Q 175 550 , 190 550 
Q 206 549 , 232 549 
Q 243 549 , 252 549 
Q 262 549 , 272 549 
L 272 550 
Q 259 550 , 251 550 
Q 242 550 , 233 550 
Q 212 550 , 201 550 
Q 191 551 , 191 552 
Q 191 553 , 201 553 
Q 212 554 , 233 554 
Q 242 554 , 249 554 
Q 256 554 , 259 553 
" fill="#F5C000" />
<path d="
M 275 544 
L 275 544 
Q 260 544 , 252 544 
Q 244 544 , 234 544 
Q 213 544 , 203 544 
Q 191 545 , 191 546 
Q 191 547 , 203 547 
Q 213 548 , 234 548 
Q 244 548 , 252 548 
Q 260 547 , 275 547 
L 275 548 
Q 264 548 , 254 548 
Q 244 548 , 233 548 
Q 206 548 , 191 548 
Q 175 547 , 175 546 
Q 175 544 , 191 544 
Q 206 543 , 233 543 
Q 244 543 , 254 543 
Q 265 543 , 275 544 
" fill="#545FFF" />
<path d="
M 225 537 
L 207 540 
L 241 540 
L 225 537 
M 218 536 
L 232 536 
L 275 542 
L 259 542 
L 247 540 
L 203 540 
L 190 542 
L 175 542 
L 218 536 
" fill="#339541" />
<path d="
M 175 523 
L 193 523 
L 193 531 
Q 193 533 , 201 533 
Q 208 534 , 225 534 
Q 242 534 , 250 533 
Q 257 533 , 257 531 
L 257 523 
L 275 523 
L 275 531 
Q 275 533 , 262 534 
Q 250 536 , 225 536 
Q 201 536 , 188 534 
Q 175 533 , 175 531 
L 175 523 
" fill="#D21010" />
<path d="
M 330 550 
L 312 552 
L 346 552 
L 330 550 
M 323 549 
L 337 549 
L 380 555 
L 364 555 
L 352 553 
L 308 553 
L 295 555 
L 280 555 
L 323 549 
" fill="#339541" />
<path d="
M 380 540 
L 380 541 
Q 365 541 , 357 540 
Q 349 540 , 339 540 
Q 318 540 , 308 541 
Q 296 542 , 296 544 
Q 296 546 , 308 547 
Q 318 547 , 339 547 
Q 349 547 , 357 547 
Q 365 547 , 380 546 
L 380 548 
Q 369 548 , 359 548 
Q 349 549 , 338 549 
Q 311 549 , 296 547 
Q 280 546 , 280 544 
Q 280 542 , 296 540 
Q 311 539 , 338 539 
Q 349 539 , 359 539 
Q 370 539 , 380 540 
" fill="#545FFF" />
<path d="
M 280 509 
L 298 509 
L 298 526 
Q 298 531 , 306 533 
Q 313 535 , 330 535 
Q 347 535 , 355 533 
Q 362 531 , 362 526 
L 362 509 
L 380 509 
L 380 527 
Q 380 532 , 367 535 
Q 355 538 , 330 538 
Q 306 538 , 293 535 
Q 280 532 , 280 527 
L 280 509 
" fill="#D21010" />
<path d="
M 364 504 
L 364 494 
L 335 494 
L 335 490 
L 380 490 
L 380 506 
Q 369 508 , 358 508 
Q 349 509 , 337 509 
Q 311 509 , 295 504 
Q 280 499 , 280 490 
Q 280 482 , 295 477 
Q 311 472 , 337 472 
Q 348 472 , 357 473 
Q 367 473 , 377 475 
L 377 480 
Q 364 478 , 356 477 
Q 347 476 , 338 476 
Q 317 476 , 306 480 
Q 296 483 , 296 490 
Q 296 498 , 306 501 
Q 317 505 , 338 505 
Q 347 505 , 354 504 
Q 361 504 , 364 504 
" fill="#F5C000" />
<path d="
M 485 548 
L 485 549 
Q 470 548 , 462 548 
Q 454 548 , 444 548 
Q 423 548 , 413 549 
Q 401 549 , 401 550 
Q 401 552 , 413 553 
Q 423 554 , 444 554 
Q 454 554 , 462 553 
Q 470 553 , 485 552 
L 485 554 
Q 474 554 , 464 554 
Q 454 554 , 443 554 
Q 416 554 , 401 553 
Q 385 552 , 385 551 
Q 385 549 , 401 548 
Q 416 547 , 443 547 
Q 454 547 , 464 547 
Q 475 547 , 485 548 
" fill="#545FFF" />
<path d="
M 435 540 
L 417 543 
L 451 543 
L 435 540 
M 428 539 
L 442 539 
L 485 546 
L 469 546 
L 457 544 
L 413 544 
L 400 546 
L 385 546 
L 428 539 
" fill="#339541" />
<path d="
M 469 532 
L 469 519 
L 440 519 
L 440 514 
L 485 514 
L 485 535 
Q 474 537 , 463 538 
Q 454 539 , 442 539 
Q 416 539 , 400 532 
Q 385 526 , 385 515 
Q 385 504 , 400 498 
Q 416 492 , 442 492 
Q 453 492 , 462 493 
Q 472 494 , 482 496 
L 482 502 
Q 469 499 , 461 498 
Q 452 498 , 443 498 
Q 422 498 , 411 502 
Q 401 506 , 401 515 
Q 401 524 , 411 529 
Q 422 533 , 443 533 
Q 452 533 , 459 533 
Q 466 532 , 469 532 
" fill="#F5C000" />
<path d="
M 385 404 
L 403 404 
L 403 456 
Q 403 470 , 411 476 
Q 418 482 , 435 482 
Q 452 482 , 460 476 
Q 467 470 , 467 456 
L 467 404 
L 485 404 
L 485 457 
Q 485 474 , 472 483 
Q 460 491 , 435 491 
Q 411 491 , 398 483 
Q 385 474 , 385 457 
L 385 404 
" fill="#D21010" />
<path d="
M 540 550 
L 522 552 
L 556 552 
L 540 550 
M 533 549 
L 547 549 
L 590 555 
L 574 555 
L 562 553 
L 518 553 
L 505 555 
L 490 555 
L 533 549 
" fill="#339541" />
<path d="
M 590 541 
L 590 542 
Q 575 541 , 567 541 
Q 559 541 , 549 541 
Q 528 541 , 518 542 
Q 506 543 , 506 544 
Q 506 546 , 518 547 
Q 528 548 , 549 548 
Q 559 548 , 567 548 
Q 575 547 , 590 547 
L 590 548 
Q 579 548 , 569 549 
Q 559 549 , 548 549 
Q 521 549 , 506 548 
Q 490 546 , 490 544 
Q 490 542 , 506 541 
Q 521 540 , 548 540 
Q 559 540 , 569 540 
Q 580 540 , 590 541 
" fill="#545FFF" />
<path d="
M 490 494 
L 508 494 
L 508 521 
Q 508 528 , 516 531 
Q 523 534 , 540 534 
Q 557 534 , 565 531 
Q 572 528 , 572 521 
L 572 494 
L 590 494 
L 590 522 
Q 590 530 , 577 535 
Q 565 539 , 540 539 
Q 516 539 , 503 535 
Q 490 530 , 490 522 
L 490 494 
" fill="#D21010" />
<path d="
M 574 484 
L 574 467 
L 545 467 
L 545 460 
L 590 460 
L 590 488 
Q 579 491 , 568 492 
Q 559 493 , 547 493 
Q 521 493 , 505 485 
Q 490 476 , 490 462 
Q 490 447 , 505 438 
Q 521 430 , 547 430 
Q 558 430 , 567 431 
Q 577 432 , 587 435 
L 587 443 
Q 574 440 , 566 439 
Q 557 438 , 548 438 
Q 527 438 , 516 443 
Q 506 449 , 506 462 
Q 506 474 , 516 480 
Q 527 486 , 548 486 
Q 557 486 , 564 486 
Q 571 485 , 574 484 
" fill="#F5C000" />
<path d="
M 645 549 
L 627 552 
L 661 552 
L 645 549 
M 638 548 
L 652 548 
L 695 555 
L 679 555 
L 667 553 
L 623 553 
L 610 555 
L 595 555 
L 638 548 
" fill="#339541" />
<path d="
M 695 540 
L 695 541 
Q 680 540 , 672 540 
Q 664 540 , 654 540 
Q 633 540 , 623 541 
Q 611 542 , 611 543 
Q 611 545 , 623 546 
Q 633 546 , 654 546 
Q 664 546 , 672 546 
Q 680 546 , 695 545 
L 695 546 
Q 684 547 , 674 547 
Q 664 547 , 653 547 
Q 626 547 , 611 546 
Q 595 545 , 595 543 
Q 595 541 , 611 540 
Q 626 539 , 653 539 
Q 664 539 , 674 539 
Q 685 539 , 695 540 
" fill="#545FFF" />
<path d="
M 679 537 
L 679 534 
L 650 534 
L 650 533 
L 695 533 
L 695 537 
Q 684 538 , 673 538 
Q 664 538 , 652 538 
Q 626 538 , 610 537 
Q 595 536 , 595 534 
Q 595 531 , 610 530 
Q 626 529 , 652 529 
Q 663 529 , 672 529 
Q 682 529 , 692 530 
L 692 531 
Q 679 530 , 671 530 
Q 662 530 , 653 530 
Q 632 530 , 621 531 
Q 611 532 , 611 534 
Q 611 535 , 621 536 
Q 632 537 , 653 537 
Q 662 537 , 669 537 
Q 676 537 , 679 537 
" fill="#F5C000" />
<path d="
M 595 506 
L 613 506 
L 613 519 
Q 613 523 , 621 524 
Q 628 526 , 645 526 
Q 662 526 , 670 524 
Q 677 523 , 677 519 
L 677 506 
L 695 506 
L 695 519 
Q 695 524 , 682 526 
Q 670 528 , 645 528 
Q 621 528 , 608 526 
Q 595 524 , 595 519 
L 595 506 
" fill="#D21010" />
<path d="
M 800 554 
L 800 554 
Q 785 554 , 777 554 
Q 769 554 , 759 554 
Q 738 554 , 728 554 
Q 716 554 , 716 554 
Q 716 554 , 728 554 
Q 738 554 , 759 554 
Q 769 554 , 777 554 
Q 785 554 , 800 554 
L 800 554 
Q 789 554 , 779 554 
Q 769 554 , 758 554 
Q 731 554 , 716 554 
Q 700 554 , 700 554 
Q 700 554 , 716 554 
Q 731 554 , 758 554 
Q 769 554 , 779 554 
Q 790 554 , 800 554 
" fill="#545FFF" />
<path d="
M 784 553 
L 784 553 
L 755 553 
L 755 553 
L 800 553 
L 800 553 
Q 789 553 , 778 553 
Q 769 553 , 757 553 
Q 731 553 , 715 553 
Q 700 553 , 700 553 
Q 700 553 , 715 553 
Q 731 553 , 757 553 
Q 768 553 , 777 553 
Q 787 553 , 797 553 
L 797 553 
Q 784 553 , 776 553 
Q 767 553 , 758 553 
Q 737 553 , 726 553 
Q 716 553 , 716 553 
Q 716 553 , 726 553 
Q 737 553 , 758 553 
Q 767 553 , 774 553 
Q 781 553 , 784 553 
" fill="#F5C000" />
<path d="
M 750 552 
L 732 552 
L 766 552 
L 750 552 
M 743 552 
L 757 552 
L 800 552 
L 784 552 
L 772 552 
L 728 552 
L 715 552 
L 700 552 
L 743 552 
" fill="#339541" />
<path d="
M 700 551 
L 718 551 
L 718 551 
Q 718 551 , 726 551 
Q 733 551 , 750 551 
Q 767 551 , 775 551 
Q 782 551 , 782 551 
L 782 551 
L 800 551 
L 800 551 
Q 800 551 , 787 551 
Q 775 551 , 750 551 
Q 726 551 , 713 551 
Q 700 551 , 700 551 
L 700 551 
" fill="#D21010" />
<path d="
M 905 551 
L 905 552 
Q 890 552 , 882 551 
Q 874 551 , 864 551 
Q 843 551 , 833 552 
Q 821 552 , 821 553 
Q 821 554 , 833 554 
Q 843 554 , 864 554 
Q 874 554 , 882 554 
Q 890 554 , 905 554 
L 905 554 
Q 894 554 , 884 555 
Q 874 555 , 863 555 
Q 836 555 , 821 554 
Q 805 554 , 805 553 
Q 805 552 , 821 551 
Q 836 551 , 863 551 
Q 874 551 , 884 551 
Q 895 551 , 905 551 
" fill="#545FFF" />
<path d="
M 889 550 
L 889 548 
L 860 548 
L 860 547 
L 905 547 
L 905 550 
Q 894 550 , 883 550 
Q 874 551 , 862 551 
Q 836 551 , 820 550 
Q 805 549 , 805 547 
Q 805 546 , 820 545 
Q 836 544 , 862 544 
Q 873 544 , 882 544 
Q 892 544 , 902 545 
L 902 545 
Q 889 545 , 881 545 
Q 872 545 , 863 545 
Q 842 545 , 831 545 
Q 821 546 , 821 547 
Q 821 549 , 831 549 
Q 842 550 , 863 550 
Q 872 550 , 879 550 
Q 886 550 , 889 550 
" fill="#F5C000" />
<path d="
M 805 534 
L 823 534 
L 823 540 
Q 823 541 , 831 542 
Q 838 543 , 855 543 
Q 872 543 , 880 542 
Q 887 541 , 887 540 
L 887 534 
L 905 534 
L 905 540 
Q 905 542 , 892 543 
Q 880 544 , 855 544 
Q 831 544 , 818 543 
Q 805 542 , 805 540 
L 805 534 
" fill="#D21010" />
<path d="
M 855 523 
L 837 529 
L 871 529 
L 855 523 
M 848 521 
L 862 521 
L 905 534 
L 889 534 
L 877 530 
L 833 530 
L 820 534 
L 805 534 
L 848 521 
" fill="#339541" />
<path d="
M 960 546 
L 942 550 
L 976 550 
L 960 546 
M 953 544 
L 967 544 
L 1010 554 
L 994 554 
L 982 551 
L 938 551 
L 925 554 
L 910 554 
L 953 544 
" fill="#339541" />
<path d="
M 1010 533 
L 1010 535 
Q 995 534 , 987 534 
Q 979 533 , 969 533 
Q 948 533 , 938 534 
Q 926 535 , 926 537 
Q 926 540 , 938 541 
Q 948 542 , 969 542 
Q 979 542 , 987 542 
Q 995 541 , 1010 540 
L 1010 542 
Q 999 543 , 989 543 
Q 979 543 , 968 543 
Q 941 543 , 926 542 
Q 910 540 , 910 538 
Q 910 535 , 926 534 
Q 941 532 , 968 532 
Q 979 532 , 989 532 
Q 1000 533 , 1010 533 
" fill="#545FFF" />
<path d="
M 910 500 
L 928 500 
L 928 518 
Q 928 524 , 936 526 
Q 943 528 , 960 528 
Q 977 528 , 985 526 
Q 992 524 , 992 518 
L 992 500 
L 1010 500 
L 1010 519 
Q 1010 525 , 997 528 
Q 985 531 , 960 531 
Q 936 531 , 923 528 
Q 910 525 , 910 519 
L 910 500 
" fill="#D21010" />
<path d="
M 994 477 
L 994 437 
L 965 437 
L 965 420 
L 1010 420 
L 1010 488 
Q 999 494 , 988 496 
Q 979 499 , 967 499 
Q 941 499 , 925 479 
Q 910 459 , 910 423 
Q 910 388 , 925 367 
Q 941 347 , 967 347 
Q 978 347 , 987 350 
Q 997 352 , 1007 359 
L 1007 379 
Q 994 370 , 986 368 
Q 977 365 , 968 365 
Q 947 365 , 936 379 
Q 926 394 , 926 423 
Q 926 453 , 936 468 
Q 947 482 , 968 482 
Q 977 482 , 984 481 
Q 991 479 , 994 477 
" fill="#F5C000" />
<path d="
M 1115 551 
L 1115 552 
Q 1100 552 , 1092 552 
Q 1084 551 , 1074 551 
Q 1053 551 , 1043 552 
Q 1031 552 , 1031 553 
Q 1031 554 , 1043 554 
Q 1053 555 , 1074 555 
Q 1084 555 , 1092 554 
Q 1100 554 , 1115 554 
L 1115 555 
Q 1104 555 , 1094 555 
Q 1084 555 , 1073 555 
Q 1046 555 , 1031 554 
Q 1015 554 , 1015 553 
Q 1015 552 , 1031 552 
Q 1046 551 , 1073 551 
Q 1084 551 , 1094 551 
Q 1105 551 , 1115 551 
" fill="#545FFF" />
<path d="
M 1065 540 
L 1047 546 
L 1081 546 
L 1065 540 
M 1058 538 
L 1072 538 
L 1115 551 
L 1099 551 
L 1087 547 
L 1043 547 
L 1030 551 
L 1015 551 
L 1058 538 
" fill="#339541" />
<path d="
M 1099 533 
L 1099 525 
L 1070 525 
L 1070 522 
L 1115 522 
L 1115 535 
Q 1104 537 , 1093 537 
Q 1084 538 , 1072 538 
Q 1046 538 , 1030 534 
Q 1015 530 , 1015 523 
Q 1015 516 , 1030 512 
Q 1046 508 , 1072 508 
Q 1083 508 , 1092 509 
Q 1102 509 , 1112 510 
L 1112 514 
Q 1099 513 , 1091 512 
Q 1082 512 , 1073 512 
Q 1052 512 , 1041 514 
Q 1031 517 , 1031 523 
Q 1031 529 , 1041 532 
Q 1052 534 , 1073 534 
Q 1082 534 , 1089 534 
Q 1096 534 , 1099 533 
" fill="#F5C000" />
<path d="
M 1015 466 
L 1033 466 
L 1033 490 
Q 1033 497 , 1041 500 
Q 1048 503 , 1065 503 
Q 1082 503 , 1090 500 
Q 1097 497 , 1097 490 
L 1097 466 
L 1115 466 
L 1115 491 
Q 1115 499 , 1102 503 
Q 1090 507 , 1065 507 
Q 1041 507 , 1028 503 
Q 1015 499 , 1015 491 
L 1015 466 
" fill="#D21010" />
<path d="
M 1220 543 
L 1220 545 
Q 1205 544 , 1197 544 
Q 1189 543 , 1179 543 
Q 1158 543 , 1148 545 
Q 1136 546 , 1136 548 
Q 1136 550 , 1148 552 
Q 1158 553 , 1179 553 
Q 1189 553 , 1197 553 
Q 1205 552 , 1220 551 
L 1220 553 
Q 1209 554 , 1199 554 
Q 1189 554 , 1178 554 
Q 1151 554 , 1136 553 
Q 1120 551 , 1120 548 
Q 1120 545 , 1136 544 
Q 1151 542 , 1178 542 
Q 1189 542 , 1199 542 
Q 1210 543 , 1220 543 
" fill="#545FFF" />
<path d="
M 1170 530 
L 1152 536 
L 1186 536 
L 1170 530 
M 1163 528 
L 1177 528 
L 1220 541 
L 1204 541 
L 1192 537 
L 1148 537 
L 1135 541 
L 1120 541 
L 1163 528 
" fill="#339541" />
<path d="
M 1120 502 
L 1138 502 
L 1138 517 
Q 1138 521 , 1146 523 
Q 1153 525 , 1170 525 
Q 1187 525 , 1195 523 
Q 1202 521 , 1202 517 
L 1202 502 
L 1220 502 
L 1220 517 
Q 1220 522 , 1207 525 
Q 1195 527 , 1170 527 
Q 1146 527 , 1133 525 
Q 1120 522 , 1120 517 
L 1120 502 
" fill="#D21010" />
<path d="
M 1204 481 
L 1204 444 
L 1175 444 
L 1175 428 
L 1220 428 
L 1220 491 
Q 1209 497 , 1198 499 
Q 1189 501 , 1177 502 
Q 1151 502 , 1135 483 
Q 1120 464 , 1120 431 
Q 1120 399 , 1135 380 
Q 1151 361 , 1177 361 
Q 1188 361 , 1197 363 
Q 1207 366 , 1217 372 
L 1217 390 
Q 1204 382 , 1196 380 
Q 1187 378 , 1178 378 
Q 1157 378 , 1146 391 
Q 1136 404 , 1136 431 
Q 1136 459 , 1146 473 
Q 1157 486 , 1178 486 
Q 1187 486 , 1194 485 
Q 1201 483 , 1204 481 
" fill="#F5C000" />
<path d="
M 1309 554 
L 1309 553 
L 1280 553 
L 1280 553 
L 1325 553 
L 1325 554 
Q 1314 554 , 1303 554 
Q 1294 554 , 1282 554 
Q 1256 554 , 1240 554 
Q 1225 553 , 1225 553 
Q 1225 553 , 1240 552 
Q 1256 552 , 1282 552 
Q 1293 552 , 1302 552 
Q 1312 552 , 1322 552 
L 1322 552 
Q 1309 552 , 1301 552 
Q 1292 552 , 1283 552 
Q 1262 552 , 1251 552 
Q 1241 553 , 1241 553 
Q 1241 553 , 1251 554 
Q 1262 554 , 1283 554 
Q 1292 554 , 1299 554 
Q 1306 554 , 1309 554 
" fill="#F5C000" />
<path d="
M 1325 549 
L 1325 550 
Q 1310 549 , 1302 549 
Q 1294 549 , 1284 549 
Q 1263 549 , 1253 549 
Q 1241 550 , 1241 550 
Q 1241 550 , 1253 551 
Q 1263 551 , 1284 551 
Q 1294 551 , 1302 551 
Q 1310 551 , 1325 551 
L 1325 551 
Q 1314 551 , 1304 551 
Q 1294 551 , 1283 551 
Q 1256 551 , 1241 551 
Q 1225 551 , 1225 550 
Q 1225 550 , 1241 549 
Q 1256 549 , 1283 549 
Q 1294 549 , 1304 549 
Q 1315 549 , 1325 549 
" fill="#545FFF" />
<path d="
M 1275 546 
L 1257 548 
L 1291 548 
L 1275 546 
M 1268 546 
L 1282 546 
L 1325 549 
L 1309 549 
L 1297 548 
L 1253 548 
L 1240 549 
L 1225 549 
L 1268 546 
" fill="#339541" />
<path d="
M 1225 542 
L 1243 542 
L 1243 544 
Q 1243 545 , 1251 545 
Q 1258 545 , 1275 545 
Q 1292 545 , 1300 545 
Q 1307 545 , 1307 544 
L 1307 542 
L 1325 542 
L 1325 544 
Q 1325 545 , 1312 545 
Q 1300 546 , 1275 546 
Q 1251 546 , 1238 545 
Q 1225 545 , 1225 544 
L 1225 542 
" fill="#D21010" />
<path d="
M 1430 554 
L 1430 554 
Q 1415 554 , 1407 554 
Q 1399 554 , 1389 554 
Q 1368 554 , 1358 554 
Q 1346 554 , 1346 554 
Q 1346 554 , 1358 554 
Q 1368 554 , 1389 554 
Q 1399 554 , 1407 554 
Q 1415 554 , 1430 554 
L 1430 554 
Q 1419 554 , 1409 554 
Q 1399 554 , 1388 554 
Q 1361 554 , 1346 554 
Q 1330 554 , 1330 554 
Q 1330 554 , 1346 554 
Q 1361 554 , 1388 554 
Q 1399 554 , 1409 554 
Q 1420 554 , 1430 554 
" fill="#545FFF" />
<path d="
M 1414 553 
L 1414 553 
L 1385 553 
L 1385 553 
L 1430 553 
L 1430 553 
Q 1419 553 , 1408 553 
Q 1399 553 , 1387 553 
Q 1361 553 , 1345 553 
Q 1330 553 , 1330 553 
Q 1330 553 , 1345 553 
Q 1361 553 , 1387 553 
Q 1398 553 , 1407 553 
Q 1417 553 , 1427 553 
L 1427 553 
Q 1414 553 , 1406 553 
Q 1397 553 , 1388 553 
Q 1367 553 , 1356 553 
Q 1346 553 , 1346 553 
Q 1346 553 , 1356 553 
Q 1367 553 , 1388 553 
Q 1397 553 , 1404 553 
Q 1411 553 , 1414 553 
" fill="#F5C000" />
<path d="
M 1380 552 
L 1362 552 
L 1396 552 
L 1380 552 
M 1373 552 
L 1387 552 
L 1430 552 
L 1414 552 
L 1402 552 
L 1358 552 
L 1345 552 
L 1330 552 
L 1373 552 
" fill="#339541" />
<path d="
M 1330 551 
L 1348 551 
L 1348 551 
Q 1348 551 , 1356 551 
Q 1363 551 , 1380 551 
Q 1397 551 , 1405 551 
Q 1412 551 , 1412 551 
L 1412 551 
L 1430 551 
L 1430 551 
Q 1430 551 , 1417 551 
Q 1405 551 , 1380 551 
Q 1356 551 , 1343 551 
Q 1330 551 , 1330 551 
L 1330 551 
" fill="#D21010" />
<path d="M 65 55 L 65 555 " stroke="black" stroke-width="1.5"/>
<path d="M 55 555 L 65 555 " stroke="black" stroke-width="4"/>
<text text-anchor="end" x="50" y="555" font-size="50" alignment-baseline="middle">0</text>
<path d="M 55 305 L 65 305 " stroke="black" stroke-width="4"/>
<text text-anchor="end" x="50" y="305" font-size="50" alignment-baseline="middle">1</text>
<path d="M 55 55 L 65 55 " stroke="black" stroke-width="4"/>
<text text-anchor="end" x="50" y="55" font-size="50" alignment-baseline="middle">2</text>
<text text-anchor="middle" x="750" y="50" font-size="50" alignment-baseline="baseline"></text>
G<path d="
M 160 582 
L 126 595 
L 160 608 
L 157 611 
L 123 598 
L 123 623 
L 117 623 
L 117 599 
L 83 611 
L 80 608 
L 114 595 
L 80 582 
L 83 579 
L 117 591 
L 117 567 
L 123 567 
L 123 591 
L 157 579 
L 160 582 
" fill="black" />
<path d="
" fill="black" />
<path d="
M 211 567 
L 238 567 
L 238 623 
L 211 623 
L 211 567 
" fill="black" />
<path d="
" fill="black" />
<path d="
" fill="black" />
<path d="
M 316 567 
L 343 567 
L 343 623 
L 316 623 
L 316 567 
" fill="black" />
<path d="
" fill="black" />
<path d="
" fill="black" />
<path d="
M 421 567 
L 448 567 
L 448 623 
L 421 623 
L 421 567 
" fill="black" />
<path d="
" fill="black" />
<path d="
" fill="black" />
<path d="
M 526 567 
L 553 567 
L 553 623 
L 526 623 
L 526 567 
" fill="black" />
<path d="
" fill="black" />
<path d="
" fill="black" />
<path d="
M 617 567 
L 633 567 
L 633 623 
L 617 623 
L 617 567 
" fill="black" />
<path d="
" fill="black" />
<path d="
M 669 593 
Q 671 594 , 672 597 
Q 673 601 , 673 606 
Q 673 614 , 671 618 
Q 669 623 , 664 623 
Q 662 623 , 661 622 
Q 659 621 , 657 619 
L 657 613 
Q 659 617 , 660 618 
Q 662 619 , 664 619 
Q 667 619 , 669 616 
Q 671 613 , 671 606 
Q 671 601 , 669 598 
Q 668 595 , 664 595 
L 661 595 
L 661 591 
L 665 591 
Q 667 591 , 669 589 
Q 670 586 , 670 582 
Q 670 577 , 669 574 
Q 667 571 , 664 571 
Q 663 571 , 661 572 
Q 660 573 , 658 575 
L 658 571 
Q 660 569 , 662 568 
Q 663 567 , 665 567 
Q 669 567 , 671 571 
Q 672 575 , 672 581 
Q 672 586 , 671 589 
Q 671 592 , 669 593 
" fill="black" />
<path d="
M 688 571 
L 679 605 
L 688 605 
L 688 571 
M 687 567 
L 690 567 
L 690 605 
L 693 605 
L 693 608 
L 690 608 
L 690 623 
L 688 623 
L 688 608 
L 677 608 
L 677 604 
L 687 567 
" fill="black" />
<path d="
M 790 582 
L 756 595 
L 790 608 
L 787 611 
L 753 598 
L 753 623 
L 747 623 
L 747 599 
L 713 611 
L 710 608 
L 744 595 
L 710 582 
L 713 579 
L 747 591 
L 747 567 
L 753 567 
L 753 591 
L 787 579 
L 790 582 
" fill="black" />
<path d="
" fill="black" />
<path d="
M 841 567 
L 868 567 
L 868 623 
L 841 623 
L 841 567 
" fill="black" />
<path d="
" fill="black" />
<path d="
" fill="black" />
<path d="
M 946 567 
L 973 567 
L 973 623 
L 946 623 
L 946 567 
" fill="black" />
<path d="
" fill="black" />
<path d="
" fill="black" />
<path d="
M 1051 567 
L 1078 567 
L 1078 623 
L 1051 623 
L 1051 567 
" fill="black" />
<path d="
" fill="black" />
<path d="
" fill="black" />
<path d="
M 1156 567 
L 1183 567 
L 1183 623 
L 1156 623 
L 1156 567 
" fill="black" />
<path d="
" fill="black" />
<path d="
" fill="black" />
<path d="
M 1261 567 
L 1288 567 
L 1288 623 
L 1261 623 
L 1261 567 
" fill="black" />
<path d="
" fill="black" />
<path d="
M 1420 582 
L 1386 595 
L 1420 608 
L 1417 611 
L 1383 598 
L 1383 623 
L 1377 623 
L 1377 599 
L 1343 611 
L 1340 608 
L 1374 595 
L 1340 582 
L 1343 579 
L 1377 591 
L 1377 567 
L 1383 567 
L 1383 591 
L 1417 579 
L 1420 582 
" fill="black" />
</svg>
