<svg xmlns="http://www.w3.org/2000/svg"
viewBox="0 0 1225 615">
<path d="
M 93 552 
L 97 552 
L 90 553 
L 100 553 
L 93 552 
M 102 554 
L 86 554 
L 81 554 
L 70 554 
L 88 552 
L 102 552 
L 120 554 
L 106 554 
L 102 554 
" fill="#339541" stroke="black" stroke-width="1"/>
<path d="
M 163 554 
Q 157 554 , 145 554 
Q 133 554 , 126 554 
Q 120 554 , 120 554 
L 120 552 
L 136 552 
L 136 554 
Q 136 554 , 138 554 
Q 141 554 , 146 554 
Q 151 554 , 153 554 
Q 155 554 , 155 554 
L 155 552 
L 170 552 
L 170 554 
Q 170 554 , 163 554 
" fill="white" stroke="black" stroke-width="1"/>
<path d="
M 113 551 
Q 107 552 , 95 552 
Q 83 552 , 76 551 
Q 70 551 , 70 550 
L 70 547 
L 86 547 
L 86 550 
Q 86 551 , 88 551 
Q 91 551 , 96 551 
Q 101 551 , 103 551 
Q 105 551 , 105 550 
L 105 547 
L 120 547 
L 120 550 
Q 120 551 , 113 551 
" fill="#D21010" stroke="black" stroke-width="1"/>
<path d="
M 156 551 
L 156 549 
L 139 549 
L 139 549 
L 170 549 
L 170 551 
Q 159 552 , 149 552 
Q 134 552 , 127 551 
Q 120 550 , 120 549 
Q 120 548 , 127 547 
Q 134 547 , 150 547 
Q 157 547 , 167 547 
L 167 548 
Q 157 548 , 150 548 
Q 142 548 , 137 548 
Q 133 548 , 133 549 
Q 133 551 , 149 551 
Q 153 551 , 156 551 
" fill="white" stroke="black" stroke-width="1"/>
<path d="
M 106 545 
L 106 543 
L 89 543 
L 89 542 
L 120 542 
L 120 546 
Q 109 546 , 99 546 
Q 84 546 , 77 545 
Q 70 545 , 70 543 
Q 70 542 , 77 541 
Q 84 540 , 100 540 
Q 107 540 , 117 540 
L 117 541 
Q 107 541 , 100 541 
Q 92 541 , 87 541 
Q 83 542 , 83 543 
Q 83 545 , 99 545 
Q 103 545 , 106 545 
" fill="#F5C000" stroke="black" stroke-width="1"/>
<path d="
M 120 543 
Q 120 542 , 128 541 
Q 136 540 , 152 540 
Q 160 540 , 169 540 
L 169 541 
Q 158 541 , 152 541 
Q 136 541 , 136 543 
Q 136 544 , 140 544 
Q 144 545 , 152 545 
Q 158 545 , 170 545 
L 170 546 
Q 160 546 , 152 546 
Q 136 546 , 128 545 
Q 120 545 , 120 543 
" fill="white" stroke="black" stroke-width="1"/>
<path d="
M 106 538 
L 106 536 
L 89 536 
L 89 534 
L 120 534 
L 120 539 
Q 109 540 , 99 540 
Q 84 540 , 77 539 
Q 70 538 , 70 535 
Q 70 533 , 77 532 
Q 84 531 , 100 531 
Q 107 531 , 117 531 
L 117 533 
Q 107 532 , 100 532 
Q 92 532 , 87 533 
Q 83 534 , 83 535 
Q 83 539 , 99 539 
Q 103 539 , 106 538 
" fill="#F5C000" stroke="black" stroke-width="1"/>
<path d="
M 163 539 
Q 157 540 , 145 540 
Q 133 540 , 126 539 
Q 120 539 , 120 537 
L 120 531 
L 136 531 
L 136 537 
Q 136 538 , 138 538 
Q 141 539 , 146 539 
Q 151 539 , 153 538 
Q 155 538 , 155 537 
L 155 531 
L 170 531 
L 170 537 
Q 170 539 , 163 539 
" fill="white" stroke="black" stroke-width="1"/>
<path d="
M 113 530 
Q 107 531 , 95 531 
Q 83 531 , 76 530 
Q 70 529 , 70 526 
L 70 516 
L 86 516 
L 86 526 
Q 86 527 , 88 527 
Q 91 528 , 96 528 
Q 101 528 , 103 527 
Q 105 527 , 105 526 
L 105 516 
L 120 516 
L 120 526 
Q 120 529 , 113 530 
" fill="#D21010" stroke="black" stroke-width="1"/>
<path d="
M 143 518 
L 147 518 
L 140 524 
L 150 524 
L 143 518 
M 152 527 
L 136 527 
L 131 531 
L 120 531 
L 138 516 
L 152 516 
L 170 531 
L 156 531 
L 152 527 
" fill="white" stroke="black" stroke-width="1"/>
<path d="
M 70 506 
Q 70 501 , 78 498 
Q 86 496 , 102 496 
Q 110 496 , 119 497 
L 119 500 
Q 108 499 , 102 499 
Q 86 499 , 86 506 
Q 86 509 , 90 510 
Q 94 512 , 102 512 
Q 108 512 , 120 511 
L 120 514 
Q 110 515 , 102 515 
Q 86 515 , 78 513 
Q 70 511 , 70 506 
" fill="#545FFF" stroke="black" stroke-width="1"/>
<path d="
M 156 512 
L 156 506 
L 139 506 
L 139 503 
L 170 503 
L 170 514 
Q 159 515 , 149 515 
Q 134 515 , 127 513 
Q 120 511 , 120 506 
Q 120 501 , 127 498 
Q 134 496 , 150 496 
Q 157 496 , 167 497 
L 167 500 
Q 157 499 , 150 499 
Q 142 499 , 137 500 
Q 133 502 , 133 506 
Q 133 512 , 149 512 
Q 153 512 , 156 512 
" fill="white" stroke="black" stroke-width="1"/>
<path d="
M 218 554 
Q 212 554 , 200 554 
Q 188 554 , 181 554 
Q 175 554 , 175 554 
L 175 552 
L 191 552 
L 191 554 
Q 191 554 , 193 554 
Q 196 554 , 201 554 
Q 206 554 , 208 554 
Q 210 554 , 210 554 
L 210 552 
L 225 552 
L 225 554 
Q 225 554 , 218 554 
" fill="#D21010" stroke="black" stroke-width="1"/>
<path d="
M 248 552 
L 252 552 
L 245 553 
L 255 553 
L 248 552 
M 257 554 
L 241 554 
L 236 554 
L 225 554 
L 243 552 
L 257 552 
L 275 554 
L 261 554 
L 257 554 
" fill="white" stroke="black" stroke-width="1"/>
<path d="
M 175 550 
Q 175 549 , 183 548 
Q 191 548 , 207 548 
Q 215 548 , 224 548 
L 224 549 
Q 213 548 , 207 548 
Q 191 548 , 191 550 
Q 191 550 , 195 550 
Q 199 551 , 207 551 
Q 213 551 , 225 551 
L 225 551 
Q 215 551 , 207 551 
Q 191 551 , 183 550 
Q 175 550 , 175 550 
" fill="#545FFF" stroke="black" stroke-width="1"/>
<path d="
M 261 551 
L 261 550 
L 244 550 
L 244 549 
L 275 549 
L 275 551 
Q 264 551 , 254 551 
Q 239 551 , 232 550 
Q 225 550 , 225 550 
Q 225 549 , 232 548 
Q 239 548 , 255 548 
Q 262 548 , 272 548 
L 272 549 
Q 262 548 , 255 548 
Q 247 548 , 242 548 
Q 238 549 , 238 550 
Q 238 551 , 254 551 
Q 258 551 , 261 551 
" fill="white" stroke="black" stroke-width="1"/>
<path d="
M 218 547 
Q 212 547 , 200 547 
Q 188 547 , 181 547 
Q 175 547 , 175 546 
L 175 543 
L 191 543 
L 191 546 
Q 191 546 , 193 546 
Q 196 547 , 201 547 
Q 206 547 , 208 546 
Q 210 546 , 210 546 
L 210 543 
L 225 543 
L 225 546 
Q 225 547 , 218 547 
" fill="#D21010" stroke="black" stroke-width="1"/>
<path d="
M 261 546 
L 261 545 
L 244 545 
L 244 545 
L 275 545 
L 275 547 
Q 264 547 , 254 547 
Q 239 547 , 232 546 
Q 225 546 , 225 545 
Q 225 544 , 232 543 
Q 239 543 , 255 543 
Q 262 543 , 272 543 
L 272 544 
Q 262 544 , 255 544 
Q 247 544 , 242 544 
Q 238 544 , 238 545 
Q 238 547 , 254 547 
Q 258 547 , 261 546 
" fill="white" stroke="black" stroke-width="1"/>
<path d="
M 211 542 
L 211 540 
L 194 540 
L 194 539 
L 225 539 
L 225 542 
Q 214 543 , 204 543 
Q 189 543 , 182 542 
Q 175 541 , 175 540 
Q 175 538 , 182 537 
Q 189 537 , 205 537 
Q 212 537 , 222 537 
L 222 538 
Q 212 538 , 205 538 
Q 197 538 , 192 538 
Q 188 539 , 188 540 
Q 188 542 , 204 542 
Q 208 542 , 211 542 
" fill="#F5C000" stroke="black" stroke-width="1"/>
<path d="
M 268 542 
Q 262 543 , 250 543 
Q 238 543 , 231 542 
Q 225 542 , 225 541 
L 225 537 
L 241 537 
L 241 541 
Q 241 541 , 243 541 
Q 246 542 , 251 542 
Q 256 542 , 258 541 
Q 260 541 , 260 541 
L 260 537 
L 275 537 
L 275 541 
Q 275 542 , 268 542 
" fill="white" stroke="black" stroke-width="1"/>
<path d="
M 198 532 
L 202 532 
L 195 534 
L 205 534 
L 198 532 
M 207 535 
L 191 535 
L 186 537 
L 175 537 
L 193 531 
L 207 531 
L 225 537 
L 211 537 
L 207 535 
" fill="#339541" stroke="black" stroke-width="1"/>
<path d="
M 268 536 
Q 262 537 , 250 537 
Q 238 537 , 231 536 
Q 225 536 , 225 535 
L 225 531 
L 241 531 
L 241 535 
Q 241 535 , 243 535 
Q 246 536 , 251 536 
Q 256 536 , 258 535 
Q 260 535 , 260 535 
L 260 531 
L 275 531 
L 275 535 
Q 275 536 , 268 536 
" fill="white" stroke="black" stroke-width="1"/>
<path d="
M 211 529 
L 211 526 
L 194 526 
L 194 524 
L 225 524 
L 225 530 
Q 214 530 , 204 530 
Q 189 530 , 182 529 
Q 175 528 , 175 525 
Q 175 523 , 182 521 
Q 189 520 , 205 520 
Q 212 520 , 222 520 
L 222 522 
Q 212 522 , 205 522 
Q 197 522 , 192 522 
Q 188 523 , 188 525 
Q 188 529 , 204 529 
Q 208 529 , 211 529 
" fill="#F5C000" stroke="black" stroke-width="1"/>
<path d="
M 225 525 
Q 225 523 , 233 521 
Q 241 520 , 257 520 
Q 265 520 , 274 521 
L 274 522 
Q 263 522 , 257 522 
Q 241 522 , 241 525 
Q 241 527 , 245 528 
Q 249 529 , 257 529 
Q 263 529 , 275 528 
L 275 530 
Q 265 530 , 257 530 
Q 241 530 , 233 529 
Q 225 528 , 225 525 
" fill="white" stroke="black" stroke-width="1"/>
<path d="
M 325 552 
L 335 552 
L 321 554 
L 339 554 
L 325 552 
M 344 554 
L 312 554 
L 303 555 
L 280 555 
L 316 552 
L 344 552 
L 380 555 
L 353 555 
L 344 554 
" fill="#339541" stroke="black" stroke-width="1"/>
<path d="
M 280 547 
Q 280 544 , 296 543 
Q 312 542 , 343 542 
Q 359 542 , 378 542 
L 378 544 
Q 356 543 , 343 543 
Q 312 543 , 312 547 
Q 312 548 , 320 549 
Q 328 550 , 343 550 
Q 356 550 , 380 549 
L 380 551 
Q 361 551 , 343 551 
Q 312 551 , 296 550 
Q 280 549 , 280 547 
" fill="#545FFF" stroke="black" stroke-width="1"/>
<path d="
M 351 539 
L 351 535 
L 318 535 
L 318 533 
L 380 533 
L 380 540 
Q 358 541 , 338 541 
Q 309 541 , 294 539 
Q 280 538 , 280 534 
Q 280 530 , 294 528 
Q 309 527 , 340 527 
Q 353 527 , 373 528 
L 373 530 
Q 353 529 , 340 529 
Q 324 529 , 315 530 
Q 307 531 , 307 534 
Q 307 539 , 338 539 
Q 347 539 , 351 539 
" fill="#F5C000" stroke="black" stroke-width="1"/>
<path d="
M 367 525 
Q 355 527 , 331 527 
Q 307 527 , 293 525 
Q 280 524 , 280 521 
L 280 508 
L 312 508 
L 312 521 
Q 312 523 , 316 523 
Q 321 524 , 331 524 
Q 342 524 , 346 523 
Q 351 523 , 351 521 
L 351 508 
L 380 508 
L 380 521 
Q 380 524 , 367 525 
" fill="#D21010" stroke="black" stroke-width="1"/>
<path d="
M 385 554 
Q 385 553 , 401 553 
Q 417 553 , 448 553 
Q 464 553 , 483 553 
L 483 553 
Q 461 553 , 448 553 
Q 417 553 , 417 554 
Q 417 554 , 425 554 
Q 433 554 , 448 554 
Q 461 554 , 485 554 
L 485 554 
Q 466 554 , 448 554 
Q 417 554 , 401 554 
Q 385 554 , 385 554 
" fill="#545FFF" stroke="black" stroke-width="1"/>
<path d="
M 430 551 
L 440 551 
L 426 552 
L 444 552 
L 430 551 
M 449 552 
L 417 552 
L 408 553 
L 385 553 
L 421 551 
L 449 551 
L 485 553 
L 458 553 
L 449 552 
" fill="#339541" stroke="black" stroke-width="1"/>
<path d="
M 456 550 
L 456 550 
L 423 550 
L 423 550 
L 485 550 
L 485 551 
Q 463 551 , 443 551 
Q 414 551 , 399 550 
Q 385 550 , 385 550 
Q 385 549 , 399 549 
Q 414 549 , 445 549 
Q 458 549 , 478 549 
L 478 549 
Q 458 549 , 445 549 
Q 429 549 , 420 549 
Q 412 550 , 412 550 
Q 412 551 , 443 551 
Q 452 551 , 456 550 
" fill="#F5C000" stroke="black" stroke-width="1"/>
<path d="
M 472 548 
Q 460 548 , 436 548 
Q 412 548 , 398 548 
Q 385 548 , 385 547 
L 385 546 
L 417 546 
L 417 547 
Q 417 548 , 421 548 
Q 426 548 , 436 548 
Q 447 548 , 451 548 
Q 456 548 , 456 547 
L 456 546 
L 485 546 
L 485 547 
Q 485 548 , 472 548 
" fill="#D21010" stroke="black" stroke-width="1"/>
<path d="
M 490 553 
Q 490 552 , 506 551 
Q 522 551 , 553 551 
Q 569 551 , 588 551 
L 588 552 
Q 566 551 , 553 551 
Q 522 551 , 522 553 
Q 522 553 , 530 553 
Q 538 554 , 553 554 
Q 566 554 , 590 554 
L 590 554 
Q 571 554 , 553 554 
Q 522 554 , 506 553 
Q 490 553 , 490 553 
" fill="#545FFF" stroke="black" stroke-width="1"/>
<path d="
M 535 546 
L 545 546 
L 531 548 
L 549 548 
L 535 546 
M 554 549 
L 522 549 
L 513 550 
L 490 550 
L 526 545 
L 554 545 
L 590 550 
L 563 550 
L 554 549 
" fill="#339541" stroke="black" stroke-width="1"/>
<path d="
M 561 543 
L 561 540 
L 528 540 
L 528 539 
L 590 539 
L 590 544 
Q 568 544 , 548 544 
Q 519 544 , 504 543 
Q 490 542 , 490 540 
Q 490 537 , 504 536 
Q 519 535 , 550 535 
Q 563 535 , 583 535 
L 583 537 
Q 563 536 , 550 536 
Q 534 536 , 525 537 
Q 517 538 , 517 540 
Q 517 543 , 548 543 
Q 557 543 , 561 543 
" fill="#F5C000" stroke="black" stroke-width="1"/>
<path d="
M 577 534 
Q 565 535 , 541 535 
Q 517 535 , 503 534 
Q 490 533 , 490 532 
L 490 523 
L 522 523 
L 522 531 
Q 522 532 , 526 532 
Q 531 533 , 541 533 
Q 552 533 , 556 532 
Q 561 532 , 561 531 
L 561 523 
L 590 523 
L 590 532 
Q 590 533 , 577 534 
" fill="#D21010" stroke="black" stroke-width="1"/>
<path d="
M 743 554 
Q 737 554 , 725 554 
Q 713 554 , 706 554 
Q 700 554 , 700 554 
L 700 552 
L 716 552 
L 716 554 
Q 716 554 , 718 554 
Q 721 554 , 726 554 
Q 731 554 , 733 554 
Q 735 554 , 735 554 
L 735 552 
L 750 552 
L 750 554 
Q 750 554 , 743 554 
" fill="white" stroke="black" stroke-width="1"/>
<path d="
M 773 552 
L 777 552 
L 770 553 
L 780 553 
L 773 552 
M 782 554 
L 766 554 
L 761 554 
L 750 554 
L 768 552 
L 782 552 
L 800 554 
L 786 554 
L 782 554 
" fill="#339541" stroke="black" stroke-width="1"/>
<path d="
M 700 550 
Q 700 549 , 708 548 
Q 716 548 , 732 548 
Q 740 548 , 749 548 
L 749 549 
Q 738 548 , 732 548 
Q 716 548 , 716 550 
Q 716 550 , 720 550 
Q 724 551 , 732 551 
Q 738 551 , 750 551 
L 750 551 
Q 740 551 , 732 551 
Q 716 551 , 708 550 
Q 700 550 , 700 550 
" fill="white" stroke="black" stroke-width="1"/>
<path d="
M 786 551 
L 786 550 
L 769 550 
L 769 549 
L 800 549 
L 800 551 
Q 789 551 , 779 551 
Q 764 551 , 757 550 
Q 750 550 , 750 550 
Q 750 549 , 757 548 
Q 764 548 , 780 548 
Q 787 548 , 797 548 
L 797 549 
Q 787 548 , 780 548 
Q 772 548 , 767 548 
Q 763 549 , 763 550 
Q 763 551 , 779 551 
Q 783 551 , 786 551 
" fill="#F5C000" stroke="black" stroke-width="1"/>
<path d="
M 743 547 
Q 737 547 , 725 547 
Q 713 547 , 706 547 
Q 700 547 , 700 546 
L 700 543 
L 716 543 
L 716 546 
Q 716 546 , 718 546 
Q 721 547 , 726 547 
Q 731 547 , 733 546 
Q 735 546 , 735 546 
L 735 543 
L 750 543 
L 750 546 
Q 750 547 , 743 547 
" fill="white" stroke="black" stroke-width="1"/>
<path d="
M 786 546 
L 786 545 
L 769 545 
L 769 545 
L 800 545 
L 800 547 
Q 789 547 , 779 547 
Q 764 547 , 757 546 
Q 750 546 , 750 545 
Q 750 544 , 757 543 
Q 764 543 , 780 543 
Q 787 543 , 797 543 
L 797 544 
Q 787 544 , 780 544 
Q 772 544 , 767 544 
Q 763 544 , 763 545 
Q 763 547 , 779 547 
Q 783 547 , 786 546 
" fill="#F5C000" stroke="black" stroke-width="1"/>
<path d="
M 736 542 
L 736 540 
L 719 540 
L 719 539 
L 750 539 
L 750 542 
Q 739 543 , 729 543 
Q 714 543 , 707 542 
Q 700 541 , 700 540 
Q 700 538 , 707 537 
Q 714 537 , 730 537 
Q 737 537 , 747 537 
L 747 538 
Q 737 538 , 730 538 
Q 722 538 , 717 538 
Q 713 539 , 713 540 
Q 713 542 , 729 542 
Q 733 542 , 736 542 
" fill="white" stroke="black" stroke-width="1"/>
<path d="
M 793 542 
Q 787 543 , 775 543 
Q 763 543 , 756 542 
Q 750 542 , 750 541 
L 750 537 
L 766 537 
L 766 541 
Q 766 541 , 768 541 
Q 771 542 , 776 542 
Q 781 542 , 783 541 
Q 785 541 , 785 541 
L 785 537 
L 800 537 
L 800 541 
Q 800 542 , 793 542 
" fill="#D21010" stroke="black" stroke-width="1"/>
<path d="
M 723 532 
L 727 532 
L 720 534 
L 730 534 
L 723 532 
M 732 535 
L 716 535 
L 711 537 
L 700 537 
L 718 531 
L 732 531 
L 750 537 
L 736 537 
L 732 535 
" fill="white" stroke="black" stroke-width="1"/>
<path d="
M 793 536 
Q 787 537 , 775 537 
Q 763 537 , 756 536 
Q 750 536 , 750 535 
L 750 531 
L 766 531 
L 766 535 
Q 766 535 , 768 535 
Q 771 536 , 776 536 
Q 781 536 , 783 535 
Q 785 535 , 785 535 
L 785 531 
L 800 531 
L 800 535 
Q 800 536 , 793 536 
" fill="#D21010" stroke="black" stroke-width="1"/>
<path d="
M 736 529 
L 736 526 
L 719 526 
L 719 524 
L 750 524 
L 750 530 
Q 739 530 , 729 530 
Q 714 530 , 707 529 
Q 700 528 , 700 525 
Q 700 523 , 707 521 
Q 714 520 , 730 520 
Q 737 520 , 747 520 
L 747 522 
Q 737 522 , 730 522 
Q 722 522 , 717 522 
Q 713 523 , 713 525 
Q 713 529 , 729 529 
Q 733 529 , 736 529 
" fill="white" stroke="black" stroke-width="1"/>
<path d="
M 750 525 
Q 750 523 , 758 521 
Q 766 520 , 782 520 
Q 790 520 , 799 521 
L 799 522 
Q 788 522 , 782 522 
Q 766 522 , 766 525 
Q 766 527 , 770 528 
Q 774 529 , 782 529 
Q 788 529 , 800 528 
L 800 530 
Q 790 530 , 782 530 
Q 766 530 , 758 529 
Q 750 528 , 750 525 
" fill="#545FFF" stroke="black" stroke-width="1"/>
<path d="
M 850 552 
L 860 552 
L 846 554 
L 864 554 
L 850 552 
M 869 554 
L 837 554 
L 828 555 
L 805 555 
L 841 552 
L 869 552 
L 905 555 
L 878 555 
L 869 554 
" fill="#339541" stroke="black" stroke-width="1"/>
<path d="
M 805 550 
Q 805 549 , 821 548 
Q 837 548 , 868 548 
Q 884 548 , 903 548 
L 903 549 
Q 881 549 , 868 549 
Q 837 549 , 837 550 
Q 837 551 , 845 551 
Q 853 551 , 868 551 
Q 881 551 , 905 551 
L 905 552 
Q 886 552 , 868 552 
Q 837 552 , 821 551 
Q 805 551 , 805 550 
" fill="#545FFF" stroke="black" stroke-width="1"/>
<path d="
M 876 547 
L 876 545 
L 843 545 
L 843 544 
L 905 544 
L 905 547 
Q 883 548 , 863 548 
Q 834 548 , 819 547 
Q 805 546 , 805 545 
Q 805 543 , 819 542 
Q 834 542 , 865 542 
Q 878 542 , 898 542 
L 898 543 
Q 878 543 , 865 543 
Q 849 543 , 840 543 
Q 832 544 , 832 545 
Q 832 547 , 863 547 
Q 872 547 , 876 547 
" fill="#F5C000" stroke="black" stroke-width="1"/>
<path d="
M 892 540 
Q 880 541 , 856 541 
Q 832 541 , 818 540 
Q 805 540 , 805 539 
L 805 534 
L 837 534 
L 837 539 
Q 837 540 , 841 540 
Q 846 540 , 856 540 
Q 867 540 , 871 540 
Q 876 540 , 876 539 
L 876 534 
L 905 534 
L 905 539 
Q 905 540 , 892 540 
" fill="#D21010" stroke="black" stroke-width="1"/>
<path d="
M 910 552 
Q 910 551 , 926 550 
Q 942 550 , 973 550 
Q 989 550 , 1008 550 
L 1008 551 
Q 986 551 , 973 551 
Q 942 551 , 942 552 
Q 942 553 , 950 553 
Q 958 554 , 973 554 
Q 986 554 , 1010 553 
L 1010 554 
Q 991 554 , 973 554 
Q 942 554 , 926 553 
Q 910 553 , 910 552 
" fill="#545FFF" stroke="black" stroke-width="1"/>
<path d="
M 955 545 
L 965 545 
L 951 547 
L 969 547 
L 955 545 
M 974 548 
L 942 548 
L 933 550 
L 910 550 
L 946 544 
L 974 544 
L 1010 550 
L 983 550 
L 974 548 
" fill="#339541" stroke="black" stroke-width="1"/>
<path d="
M 981 542 
L 981 538 
L 948 538 
L 948 537 
L 1010 537 
L 1010 543 
Q 988 544 , 968 544 
Q 939 544 , 924 542 
Q 910 541 , 910 538 
Q 910 535 , 924 533 
Q 939 532 , 970 532 
Q 983 532 , 1003 532 
L 1003 534 
Q 983 534 , 970 534 
Q 954 534 , 945 535 
Q 937 536 , 937 538 
Q 937 542 , 968 542 
Q 977 542 , 981 542 
" fill="#F5C000" stroke="black" stroke-width="1"/>
<path d="
M 997 530 
Q 985 532 , 961 532 
Q 937 532 , 923 530 
Q 910 529 , 910 527 
L 910 515 
L 942 515 
L 942 527 
Q 942 528 , 946 528 
Q 951 529 , 961 529 
Q 972 529 , 976 528 
Q 981 528 , 981 527 
L 981 515 
L 1010 515 
L 1010 527 
Q 1010 529 , 997 530 
" fill="#D21010" stroke="black" stroke-width="1"/>
<path d="
M 1038 552 
L 1042 552 
L 1035 553 
L 1045 553 
L 1038 552 
M 1047 554 
L 1031 554 
L 1026 554 
L 1015 554 
L 1033 552 
L 1047 552 
L 1065 554 
L 1051 554 
L 1047 554 
" fill="white" stroke="black" stroke-width="1"/>
<path d="
M 1108 554 
Q 1102 554 , 1090 554 
Q 1078 554 , 1071 554 
Q 1065 554 , 1065 554 
L 1065 552 
L 1081 552 
L 1081 554 
Q 1081 554 , 1083 554 
Q 1086 554 , 1091 554 
Q 1096 554 , 1098 554 
Q 1100 554 , 1100 554 
L 1100 552 
L 1115 552 
L 1115 554 
Q 1115 554 , 1108 554 
" fill="#D21010" stroke="black" stroke-width="1"/>
<path d="
M 1058 551 
Q 1052 552 , 1040 552 
Q 1028 552 , 1021 551 
Q 1015 551 , 1015 550 
L 1015 547 
L 1031 547 
L 1031 550 
Q 1031 551 , 1033 551 
Q 1036 551 , 1041 551 
Q 1046 551 , 1048 551 
Q 1050 551 , 1050 550 
L 1050 547 
L 1065 547 
L 1065 550 
Q 1065 551 , 1058 551 
" fill="white" stroke="black" stroke-width="1"/>
<path d="
M 1101 551 
L 1101 549 
L 1084 549 
L 1084 549 
L 1115 549 
L 1115 551 
Q 1104 552 , 1094 552 
Q 1079 552 , 1072 551 
Q 1065 550 , 1065 549 
Q 1065 548 , 1072 547 
Q 1079 547 , 1095 547 
Q 1102 547 , 1112 547 
L 1112 548 
Q 1102 548 , 1095 548 
Q 1087 548 , 1082 548 
Q 1078 548 , 1078 549 
Q 1078 551 , 1094 551 
Q 1098 551 , 1101 551 
" fill="#F5C000" stroke="black" stroke-width="1"/>
<path d="
M 1051 545 
L 1051 543 
L 1034 543 
L 1034 542 
L 1065 542 
L 1065 546 
Q 1054 546 , 1044 546 
Q 1029 546 , 1022 545 
Q 1015 545 , 1015 543 
Q 1015 542 , 1022 541 
Q 1029 540 , 1045 540 
Q 1052 540 , 1062 540 
L 1062 541 
Q 1052 541 , 1045 541 
Q 1037 541 , 1032 541 
Q 1028 542 , 1028 543 
Q 1028 545 , 1044 545 
Q 1048 545 , 1051 545 
" fill="white" stroke="black" stroke-width="1"/>
<path d="
M 1065 543 
Q 1065 542 , 1073 541 
Q 1081 540 , 1097 540 
Q 1105 540 , 1114 540 
L 1114 541 
Q 1103 541 , 1097 541 
Q 1081 541 , 1081 543 
Q 1081 544 , 1085 544 
Q 1089 545 , 1097 545 
Q 1103 545 , 1115 545 
L 1115 546 
Q 1105 546 , 1097 546 
Q 1081 546 , 1073 545 
Q 1065 545 , 1065 543 
" fill="#545FFF" stroke="black" stroke-width="1"/>
<path d="
M 1051 538 
L 1051 536 
L 1034 536 
L 1034 534 
L 1065 534 
L 1065 539 
Q 1054 540 , 1044 540 
Q 1029 540 , 1022 539 
Q 1015 538 , 1015 535 
Q 1015 533 , 1022 532 
Q 1029 531 , 1045 531 
Q 1052 531 , 1062 531 
L 1062 533 
Q 1052 532 , 1045 532 
Q 1037 532 , 1032 533 
Q 1028 534 , 1028 535 
Q 1028 539 , 1044 539 
Q 1048 539 , 1051 538 
" fill="white" stroke="black" stroke-width="1"/>
<path d="
M 1108 539 
Q 1102 540 , 1090 540 
Q 1078 540 , 1071 539 
Q 1065 539 , 1065 537 
L 1065 531 
L 1081 531 
L 1081 537 
Q 1081 538 , 1083 538 
Q 1086 539 , 1091 539 
Q 1096 539 , 1098 538 
Q 1100 538 , 1100 537 
L 1100 531 
L 1115 531 
L 1115 537 
Q 1115 539 , 1108 539 
" fill="#D21010" stroke="black" stroke-width="1"/>
<path d="
M 1058 530 
Q 1052 531 , 1040 531 
Q 1028 531 , 1021 530 
Q 1015 529 , 1015 526 
L 1015 516 
L 1031 516 
L 1031 526 
Q 1031 527 , 1033 527 
Q 1036 528 , 1041 528 
Q 1046 528 , 1048 527 
Q 1050 527 , 1050 526 
L 1050 516 
L 1065 516 
L 1065 526 
Q 1065 529 , 1058 530 
" fill="white" stroke="black" stroke-width="1"/>
<path d="
M 1088 518 
L 1092 518 
L 1085 524 
L 1095 524 
L 1088 518 
M 1097 527 
L 1081 527 
L 1076 531 
L 1065 531 
L 1083 516 
L 1097 516 
L 1115 531 
L 1101 531 
L 1097 527 
" fill="#339541" stroke="black" stroke-width="1"/>
<path d="
M 1015 506 
Q 1015 501 , 1023 498 
Q 1031 496 , 1047 496 
Q 1055 496 , 1064 497 
L 1064 500 
Q 1053 499 , 1047 499 
Q 1031 499 , 1031 506 
Q 1031 509 , 1035 510 
Q 1039 512 , 1047 512 
Q 1053 512 , 1065 511 
L 1065 514 
Q 1055 515 , 1047 515 
Q 1031 515 , 1023 513 
Q 1015 511 , 1015 506 
" fill="white" stroke="black" stroke-width="1"/>
<path d="
M 1101 512 
L 1101 506 
L 1084 506 
L 1084 503 
L 1115 503 
L 1115 514 
Q 1104 515 , 1094 515 
Q 1079 515 , 1072 513 
Q 1065 511 , 1065 506 
Q 1065 501 , 1072 498 
Q 1079 496 , 1095 496 
Q 1102 496 , 1112 497 
L 1112 500 
Q 1102 499 , 1095 499 
Q 1087 499 , 1082 500 
Q 1078 502 , 1078 506 
Q 1078 512 , 1094 512 
Q 1098 512 , 1101 512 
" fill="#F5C000" stroke="black" stroke-width="1"/>
<path d="
M 1120 553 
Q 1120 553 , 1136 552 
Q 1152 552 , 1183 552 
Q 1199 552 , 1218 552 
L 1218 553 
Q 1196 552 , 1183 552 
Q 1152 552 , 1152 553 
Q 1152 554 , 1160 554 
Q 1168 554 , 1183 554 
Q 1196 554 , 1220 554 
L 1220 554 
Q 1201 554 , 1183 554 
Q 1152 554 , 1136 554 
Q 1120 554 , 1120 553 
" fill="#545FFF" stroke="black" stroke-width="1"/>
<path d="
M 1191 551 
L 1191 550 
L 1158 550 
L 1158 549 
L 1220 549 
L 1220 551 
Q 1198 552 , 1178 552 
Q 1149 552 , 1134 551 
Q 1120 551 , 1120 550 
Q 1120 549 , 1134 548 
Q 1149 548 , 1180 548 
Q 1193 548 , 1213 548 
L 1213 549 
Q 1193 549 , 1180 549 
Q 1164 549 , 1155 549 
Q 1147 549 , 1147 550 
Q 1147 551 , 1178 551 
Q 1187 551 , 1191 551 
" fill="#F5C000" stroke="black" stroke-width="1"/>
<path d="
M 1165 544 
L 1175 544 
L 1161 545 
L 1179 545 
L 1165 544 
M 1184 546 
L 1152 546 
L 1143 547 
L 1120 547 
L 1156 543 
L 1184 543 
L 1220 547 
L 1193 547 
L 1184 546 
" fill="#339541" stroke="black" stroke-width="1"/>
<path d="
M 1207 542 
Q 1195 542 , 1171 542 
Q 1147 542 , 1133 542 
Q 1120 542 , 1120 541 
L 1120 536 
L 1152 536 
L 1152 540 
Q 1152 541 , 1156 541 
Q 1161 541 , 1171 541 
Q 1182 541 , 1186 541 
Q 1191 541 , 1191 540 
L 1191 536 
L 1220 536 
L 1220 541 
Q 1220 542 , 1207 542 
" fill="#D21010" stroke="black" stroke-width="1"/>
<path d="M 65 168 L 65 555 " stroke="black" stroke-width="1.5"/>
<path d="M 55 555 L 65 555 " stroke="black" stroke-width="4"/>
<text text-anchor="end" x="50" y="555" font-size="50" alignment-baseline="middle">0</text>
<path d="M 55 362 L 65 362 " stroke="black" stroke-width="4"/>
<text text-anchor="end" x="50" y="362" font-size="50" alignment-baseline="middle">1</text>
<path d="M 55 168 L 65 168 " stroke="black" stroke-width="4"/>
<text text-anchor="end" x="50" y="168" font-size="50" alignment-baseline="middle">2</text>
<text text-anchor="middle" x="645" y="50" font-size="50" alignment-baseline="baseline"></text>
G<path d="
M 127 605 
Q 80 597 , 80 585 
Q 80 573 , 127 565 
L 160 565 
Q 107 574 , 107 585 
Q 107 596 , 160 605 
L 127 605 
" fill="black" stroke="black" stroke-width="1"/>
<path d="
M 232 605 
Q 185 597 , 185 585 
Q 185 573 , 232 565 
L 265 565 
Q 212 574 , 212 585 
Q 212 596 , 265 605 
L 232 605 
" fill="black" stroke="black" stroke-width="1"/>
<path d="
M 635 565 
L 655 565 
L 655 578 
L 679 574 
L 685 584 
L 661 588 
L 677 599 
L 661 605 
L 645 594 
L 631 605 
L 615 599 
L 631 588 
L 605 584 
L 611 574 
L 637 578 
L 635 565 
" fill="black" stroke="black" stroke-width="1"/>
<path d="
M 743 565 
Q 790 573 , 790 585 
Q 790 597 , 743 605 
L 710 605 
Q 762 596 , 762 585 
Q 762 574 , 710 565 
L 743 565 
" fill="black" stroke="black" stroke-width="1"/>
<path d="
M 1058 565 
Q 1105 573 , 1105 585 
Q 1105 597 , 1058 605 
L 1025 605 
Q 1077 596 , 1077 585 
Q 1077 574 , 1025 565 
L 1058 565 
" fill="black" stroke="black" stroke-width="1"/>
</svg>
