<svg xmlns="http://www.w3.org/2000/svg"
viewBox="0 0 1330 635">
<path d="
M 70 553 
L 88 553 
L 88 554 
Q 88 554 , 96 554 
Q 103 555 , 120 555 
Q 137 555 , 145 554 
Q 152 554 , 152 554 
L 152 553 
L 170 553 
L 170 554 
Q 170 554 , 157 555 
Q 145 555 , 120 555 
Q 96 555 , 83 555 
Q 70 554 , 70 554 
L 70 553 
" fill="#D21010" />
<path d="
M 120 551 
L 102 552 
L 136 552 
L 120 551 
M 113 551 
L 127 551 
L 170 553 
L 154 553 
L 142 552 
L 98 552 
L 85 553 
L 70 553 
L 113 551 
" fill="#339541" />
<path d="
M 170 548 
L 170 549 
Q 155 548 , 147 548 
Q 139 548 , 129 548 
Q 108 548 , 98 549 
Q 86 549 , 86 549 
Q 86 550 , 98 550 
Q 108 550 , 129 550 
Q 139 550 , 147 550 
Q 155 550 , 170 550 
L 170 550 
Q 159 551 , 149 551 
Q 139 551 , 128 551 
Q 101 551 , 86 550 
Q 70 550 , 70 549 
Q 70 549 , 86 548 
Q 101 548 , 128 548 
Q 139 548 , 149 548 
Q 160 548 , 170 548 
" fill="#545FFF" />
<path d="
M 154 547 
L 154 546 
L 125 546 
L 125 545 
L 170 545 
L 170 547 
Q 159 547 , 148 547 
Q 139 547 , 127 547 
Q 101 547 , 85 547 
Q 70 546 , 70 546 
Q 70 545 , 85 544 
Q 101 544 , 127 544 
Q 138 544 , 147 544 
Q 157 544 , 167 544 
L 167 545 
Q 154 544 , 146 544 
Q 137 544 , 128 544 
Q 107 544 , 96 545 
Q 86 545 , 86 546 
Q 86 546 , 96 546 
Q 107 547 , 128 547 
Q 137 547 , 144 547 
Q 151 547 , 154 547 
" fill="#F5C000" />
<path d="
M 175 550 
L 193 550 
L 193 552 
Q 193 553 , 201 553 
Q 208 554 , 225 554 
Q 242 554 , 250 553 
Q 257 553 , 257 552 
L 257 550 
L 275 550 
L 275 552 
Q 275 553 , 262 554 
Q 250 554 , 225 554 
Q 201 554 , 188 554 
Q 175 553 , 175 552 
L 175 550 
" fill="#D21010" />
<path d="
M 225 545 
L 207 548 
L 241 548 
L 225 545 
M 218 544 
L 232 544 
L 275 550 
L 259 550 
L 247 548 
L 203 548 
L 190 550 
L 175 550 
L 218 544 
" fill="#339541" />
<path d="
M 275 480 
L 275 491 
Q 260 483 , 252 482 
Q 244 480 , 234 480 
Q 213 480 , 203 487 
Q 191 494 , 191 507 
Q 191 521 , 203 529 
Q 213 536 , 234 536 
Q 244 536 , 252 534 
Q 260 532 , 275 525 
L 275 536 
Q 264 540 , 254 542 
Q 244 543 , 233 543 
Q 206 543 , 191 534 
Q 175 524 , 175 508 
Q 175 491 , 191 482 
Q 206 472 , 233 472 
Q 244 472 , 254 474 
Q 265 475 , 275 480 
" fill="#545FFF" />
<path d="
M 259 458 
L 259 434 
L 230 434 
L 230 423 
L 275 423 
L 275 465 
Q 264 469 , 253 470 
Q 244 472 , 232 472 
Q 206 472 , 190 459 
Q 175 447 , 175 425 
Q 175 404 , 190 391 
Q 206 379 , 232 379 
Q 243 379 , 252 381 
Q 262 382 , 272 387 
L 272 398 
Q 259 393 , 251 392 
Q 242 390 , 233 390 
Q 212 390 , 201 399 
Q 191 407 , 191 425 
Q 191 444 , 201 453 
Q 212 461 , 233 461 
Q 242 461 , 249 460 
Q 256 460 , 259 458 
" fill="#F5C000" />
<path d="
M 380 552 
L 380 553 
Q 365 552 , 357 552 
Q 349 552 , 339 552 
Q 318 552 , 308 553 
Q 296 553 , 296 553 
Q 296 554 , 308 554 
Q 318 555 , 339 555 
Q 349 555 , 357 555 
Q 365 554 , 380 554 
L 380 555 
Q 369 555 , 359 555 
Q 349 555 , 338 555 
Q 311 555 , 296 555 
Q 280 554 , 280 553 
Q 280 553 , 296 552 
Q 311 552 , 338 552 
Q 349 552 , 359 552 
Q 370 552 , 380 552 
" fill="#545FFF" />
<path d="
M 364 551 
L 364 550 
L 335 550 
L 335 550 
L 380 550 
L 380 551 
Q 369 552 , 358 552 
Q 349 552 , 337 552 
Q 311 552 , 295 551 
Q 280 551 , 280 550 
Q 280 549 , 295 548 
Q 311 548 , 337 548 
Q 348 548 , 357 548 
Q 367 548 , 377 548 
L 377 549 
Q 364 549 , 356 549 
Q 347 548 , 338 548 
Q 317 548 , 306 549 
Q 296 549 , 296 550 
Q 296 551 , 306 551 
Q 317 551 , 338 551 
Q 347 551 , 354 551 
Q 361 551 , 364 551 
" fill="#F5C000" />
<path d="
M 330 543 
L 312 545 
L 346 545 
L 330 543 
M 323 542 
L 337 542 
L 380 547 
L 364 547 
L 352 546 
L 308 546 
L 295 547 
L 280 547 
L 323 542 
" fill="#339541" />
<path d="
M 280 535 
L 298 535 
L 298 539 
Q 298 540 , 306 541 
Q 313 541 , 330 541 
Q 347 541 , 355 541 
Q 362 540 , 362 539 
L 362 535 
L 380 535 
L 380 539 
Q 380 541 , 367 541 
Q 355 542 , 330 542 
Q 306 542 , 293 541 
Q 280 541 , 280 539 
L 280 535 
" fill="#D21010" />
<path d="
M 385 550 
L 403 550 
L 403 552 
Q 403 553 , 411 553 
Q 418 554 , 435 554 
Q 452 554 , 460 553 
Q 467 553 , 467 552 
L 467 550 
L 485 550 
L 485 553 
Q 485 553 , 472 554 
Q 460 554 , 435 554 
Q 411 554 , 398 554 
Q 385 553 , 385 553 
L 385 550 
" fill="#D21010" />
<path d="
M 435 538 
L 417 544 
L 451 544 
L 435 538 
M 428 535 
L 442 535 
L 485 549 
L 469 549 
L 457 545 
L 413 545 
L 400 549 
L 385 549 
L 428 535 
" fill="#339541" />
<path d="
M 485 500 
L 485 506 
Q 470 502 , 462 501 
Q 454 500 , 444 500 
Q 423 500 , 413 504 
Q 401 508 , 401 515 
Q 401 523 , 413 527 
Q 423 531 , 444 531 
Q 454 531 , 462 530 
Q 470 529 , 485 525 
L 485 531 
Q 474 533 , 464 534 
Q 454 535 , 443 535 
Q 416 535 , 401 530 
Q 385 524 , 385 516 
Q 385 507 , 401 501 
Q 416 496 , 443 496 
Q 454 496 , 464 497 
Q 475 498 , 485 500 
" fill="#545FFF" />
<path d="
M 469 475 
L 469 436 
L 440 436 
L 440 420 
L 485 420 
L 485 484 
Q 474 490 , 463 493 
Q 454 495 , 442 495 
Q 416 495 , 400 476 
Q 385 457 , 385 424 
Q 385 390 , 400 371 
Q 416 352 , 442 352 
Q 453 352 , 462 354 
Q 472 357 , 482 364 
L 482 382 
Q 469 374 , 461 371 
Q 452 369 , 443 369 
Q 422 369 , 411 382 
Q 401 396 , 401 424 
Q 401 452 , 411 466 
Q 422 479 , 443 479 
Q 452 479 , 459 478 
Q 466 476 , 469 475 
" fill="#F5C000" />
<path d="
M 490 552 
L 508 552 
L 508 554 
Q 508 554 , 516 554 
Q 523 555 , 540 555 
Q 557 555 , 565 554 
Q 572 554 , 572 554 
L 572 552 
L 590 552 
L 590 554 
Q 590 554 , 577 555 
Q 565 555 , 540 555 
Q 516 555 , 503 555 
Q 490 554 , 490 554 
L 490 552 
" fill="#D21010" />
<path d="
M 540 543 
L 522 547 
L 556 547 
L 540 543 
M 533 541 
L 547 541 
L 590 552 
L 574 552 
L 562 549 
L 518 549 
L 505 552 
L 490 552 
L 533 541 
" fill="#339541" />
<path d="
M 590 485 
L 590 494 
Q 575 488 , 567 487 
Q 559 485 , 549 485 
Q 528 485 , 518 491 
Q 506 497 , 506 509 
Q 506 521 , 518 528 
Q 528 534 , 549 534 
Q 559 534 , 567 532 
Q 575 530 , 590 524 
L 590 534 
Q 579 538 , 569 539 
Q 559 540 , 548 540 
Q 521 540 , 506 532 
Q 490 524 , 490 509 
Q 490 495 , 506 487 
Q 521 478 , 548 478 
Q 559 478 , 569 480 
Q 580 481 , 590 485 
" fill="#545FFF" />
<path d="
M 574 469 
L 574 452 
L 545 452 
L 545 445 
L 590 445 
L 590 473 
Q 579 476 , 568 477 
Q 559 478 , 547 478 
Q 521 478 , 505 469 
Q 490 461 , 490 446 
Q 490 431 , 505 423 
Q 521 414 , 547 414 
Q 558 414 , 567 415 
Q 577 416 , 587 419 
L 587 427 
Q 574 424 , 566 423 
Q 557 422 , 548 422 
Q 527 422 , 516 428 
Q 506 434 , 506 446 
Q 506 458 , 516 465 
Q 527 471 , 548 471 
Q 557 471 , 564 470 
Q 571 469 , 574 469 
" fill="#F5C000" />
<path d="
M 679 553 
L 679 552 
L 650 552 
L 650 551 
L 695 551 
L 695 554 
Q 684 554 , 673 554 
Q 664 554 , 652 554 
Q 626 554 , 610 553 
Q 595 553 , 595 552 
Q 595 550 , 610 550 
Q 626 549 , 652 549 
Q 663 549 , 672 549 
Q 682 549 , 692 549 
L 692 550 
Q 679 550 , 671 550 
Q 662 550 , 653 550 
Q 632 550 , 621 550 
Q 611 551 , 611 552 
Q 611 553 , 621 553 
Q 632 554 , 653 554 
Q 662 554 , 669 553 
Q 676 553 , 679 553 
" fill="#F5C000" />
<path d="
M 695 543 
L 695 544 
Q 680 543 , 672 543 
Q 664 543 , 654 543 
Q 633 543 , 623 543 
Q 611 544 , 611 545 
Q 611 546 , 623 547 
Q 633 548 , 654 548 
Q 664 548 , 672 547 
Q 680 547 , 695 547 
L 695 548 
Q 684 548 , 674 548 
Q 664 548 , 653 548 
Q 626 548 , 611 547 
Q 595 547 , 595 545 
Q 595 544 , 611 543 
Q 626 542 , 653 542 
Q 664 542 , 674 542 
Q 685 542 , 695 543 
" fill="#545FFF" />
<path d="
M 595 534 
L 613 534 
L 613 538 
Q 613 539 , 621 540 
Q 628 540 , 645 540 
Q 662 540 , 670 540 
Q 677 539 , 677 538 
L 677 534 
L 695 534 
L 695 538 
Q 695 540 , 682 541 
Q 670 541 , 645 541 
Q 621 541 , 608 541 
Q 595 540 , 595 538 
L 595 534 
" fill="#D21010" />
<path d="
M 645 522 
L 627 528 
L 661 528 
L 645 522 
M 638 519 
L 652 519 
L 695 534 
L 679 534 
L 667 529 
L 623 529 
L 610 534 
L 595 534 
L 638 519 
" fill="#339541" />
<path d="
M 750 551 
L 732 553 
L 766 553 
L 750 551 
M 743 550 
L 757 550 
L 800 555 
L 784 555 
L 772 553 
L 728 553 
L 715 555 
L 700 555 
L 743 550 
" fill="#339541" />
<path d="
M 700 542 
L 718 542 
L 718 546 
Q 718 547 , 726 548 
Q 733 548 , 750 548 
Q 767 548 , 775 548 
Q 782 547 , 782 546 
L 782 542 
L 800 542 
L 800 546 
Q 800 548 , 787 549 
Q 775 549 , 750 549 
Q 726 549 , 713 549 
Q 700 548 , 700 546 
L 700 542 
" fill="#D21010" />
<path d="
M 800 491 
L 800 500 
Q 785 494 , 777 493 
Q 769 491 , 759 491 
Q 738 491 , 728 497 
Q 716 502 , 716 513 
Q 716 524 , 728 530 
Q 738 535 , 759 535 
Q 769 535 , 777 534 
Q 785 532 , 800 527 
L 800 535 
Q 789 539 , 779 540 
Q 769 541 , 758 541 
Q 731 541 , 716 534 
Q 700 526 , 700 513 
Q 700 500 , 716 493 
Q 731 485 , 758 485 
Q 769 485 , 779 486 
Q 790 488 , 800 491 
" fill="#545FFF" />
<path d="
M 784 466 
L 784 433 
L 755 433 
L 755 420 
L 800 420 
L 800 475 
Q 789 480 , 778 482 
Q 769 484 , 757 484 
Q 731 484 , 715 468 
Q 700 451 , 700 423 
Q 700 394 , 715 378 
Q 731 361 , 757 361 
Q 768 361 , 777 363 
Q 787 365 , 797 371 
L 797 387 
Q 784 380 , 776 378 
Q 767 376 , 758 376 
Q 737 376 , 726 387 
Q 716 399 , 716 423 
Q 716 447 , 726 459 
Q 737 470 , 758 470 
Q 767 470 , 774 469 
Q 781 468 , 784 466 
" fill="#F5C000" />
<path d="
M 805 553 
L 823 553 
L 823 554 
Q 823 554 , 831 554 
Q 838 555 , 855 555 
Q 872 555 , 880 554 
Q 887 554 , 887 554 
L 887 553 
L 905 553 
L 905 554 
Q 905 554 , 892 555 
Q 880 555 , 855 555 
Q 831 555 , 818 555 
Q 805 554 , 805 554 
L 805 553 
" fill="#D21010" />
<path d="
M 855 547 
L 837 550 
L 871 550 
L 855 547 
M 848 546 
L 862 546 
L 905 553 
L 889 553 
L 877 551 
L 833 551 
L 820 553 
L 805 553 
L 848 546 
" fill="#339541" />
<path d="
M 889 537 
L 889 520 
L 860 520 
L 860 513 
L 905 513 
L 905 541 
Q 894 544 , 883 545 
Q 874 546 , 862 546 
Q 836 546 , 820 537 
Q 805 529 , 805 514 
Q 805 499 , 820 491 
Q 836 482 , 862 482 
Q 873 482 , 882 483 
Q 892 484 , 902 487 
L 902 495 
Q 889 492 , 881 491 
Q 872 490 , 863 490 
Q 842 490 , 831 496 
Q 821 502 , 821 514 
Q 821 526 , 831 533 
Q 842 539 , 863 539 
Q 872 539 , 879 538 
Q 886 537 , 889 537 
" fill="#F5C000" />
<path d="
M 905 348 
L 905 371 
Q 890 356 , 882 352 
Q 874 349 , 864 349 
Q 843 349 , 833 363 
Q 821 378 , 821 407 
Q 821 436 , 833 451 
Q 843 465 , 864 465 
Q 874 465 , 882 461 
Q 890 457 , 905 442 
L 905 466 
Q 894 474 , 884 478 
Q 874 481 , 863 481 
Q 836 481 , 821 461 
Q 805 441 , 805 407 
Q 805 372 , 821 352 
Q 836 332 , 863 332 
Q 874 332 , 884 336 
Q 895 339 , 905 348 
" fill="#545FFF" />
<path d="
M 994 554 
L 994 553 
L 965 553 
L 965 552 
L 1010 552 
L 1010 554 
Q 999 554 , 988 555 
Q 979 555 , 967 555 
Q 941 555 , 925 554 
Q 910 553 , 910 552 
Q 910 551 , 925 551 
Q 941 550 , 967 550 
Q 978 550 , 987 550 
Q 997 550 , 1007 550 
L 1007 551 
Q 994 551 , 986 551 
Q 977 551 , 968 551 
Q 947 551 , 936 551 
Q 926 551 , 926 552 
Q 926 553 , 936 554 
Q 947 554 , 968 554 
Q 977 554 , 984 554 
Q 991 554 , 994 554 
" fill="#F5C000" />
<path d="
M 1010 540 
L 1010 542 
Q 995 541 , 987 540 
Q 979 540 , 969 540 
Q 948 540 , 938 541 
Q 926 542 , 926 544 
Q 926 547 , 938 548 
Q 948 549 , 969 549 
Q 979 549 , 987 548 
Q 995 548 , 1010 547 
L 1010 549 
Q 999 549 , 989 550 
Q 979 550 , 968 550 
Q 941 550 , 926 548 
Q 910 547 , 910 544 
Q 910 542 , 926 540 
Q 941 539 , 968 539 
Q 979 539 , 989 539 
Q 1000 540 , 1010 540 
" fill="#545FFF" />
<path d="
M 960 521 
L 942 530 
L 976 530 
L 960 521 
M 953 517 
L 967 517 
L 1010 539 
L 994 539 
L 982 532 
L 938 532 
L 925 539 
L 910 539 
L 953 517 
" fill="#339541" />
<path d="
M 910 485 
L 928 485 
L 928 503 
Q 928 509 , 936 511 
Q 943 513 , 960 513 
Q 977 513 , 985 511 
Q 992 509 , 992 503 
L 992 485 
L 1010 485 
L 1010 504 
Q 1010 510 , 997 513 
Q 985 516 , 960 516 
Q 936 516 , 923 513 
Q 910 510 , 910 504 
L 910 485 
" fill="#D21010" />
<path d="
M 1015 550 
L 1033 550 
L 1033 553 
Q 1033 553 , 1041 554 
Q 1048 554 , 1065 554 
Q 1082 554 , 1090 554 
Q 1097 553 , 1097 553 
L 1097 550 
L 1115 550 
L 1115 553 
Q 1115 553 , 1102 554 
Q 1090 554 , 1065 554 
Q 1041 554 , 1028 554 
Q 1015 553 , 1015 553 
L 1015 550 
" fill="#D21010" />
<path d="
M 1065 544 
L 1047 547 
L 1081 547 
L 1065 544 
M 1058 543 
L 1072 543 
L 1115 549 
L 1099 549 
L 1087 547 
L 1043 547 
L 1030 549 
L 1015 549 
L 1058 543 
" fill="#339541" />
<path d="
M 1115 501 
L 1115 508 
Q 1100 504 , 1092 502 
Q 1084 501 , 1074 501 
Q 1053 501 , 1043 506 
Q 1031 510 , 1031 519 
Q 1031 529 , 1043 533 
Q 1053 538 , 1074 538 
Q 1084 538 , 1092 537 
Q 1100 535 , 1115 531 
L 1115 538 
Q 1104 541 , 1094 542 
Q 1084 543 , 1073 543 
Q 1046 543 , 1031 536 
Q 1015 530 , 1015 519 
Q 1015 509 , 1031 502 
Q 1046 496 , 1073 496 
Q 1084 496 , 1094 497 
Q 1105 498 , 1115 501 
" fill="#545FFF" />
<path d="
M 1099 466 
L 1099 410 
L 1070 410 
L 1070 387 
L 1115 387 
L 1115 480 
Q 1104 488 , 1093 492 
Q 1084 495 , 1072 495 
Q 1046 495 , 1030 468 
Q 1015 440 , 1015 392 
Q 1015 343 , 1030 316 
Q 1046 288 , 1072 288 
Q 1083 288 , 1092 292 
Q 1102 295 , 1112 305 
L 1112 331 
Q 1099 320 , 1091 316 
Q 1082 313 , 1073 313 
Q 1052 313 , 1041 332 
Q 1031 352 , 1031 392 
Q 1031 433 , 1041 453 
Q 1052 472 , 1073 472 
Q 1082 472 , 1089 470 
Q 1096 468 , 1099 466 
" fill="#F5C000" />
<path d="
M 1120 552 
L 1138 552 
L 1138 554 
Q 1138 554 , 1146 554 
Q 1153 555 , 1170 555 
Q 1187 555 , 1195 554 
Q 1202 554 , 1202 554 
L 1202 552 
L 1220 552 
L 1220 554 
Q 1220 554 , 1207 555 
Q 1195 555 , 1170 555 
Q 1146 555 , 1133 555 
Q 1120 554 , 1120 554 
L 1120 552 
" fill="#D21010" />
<path d="
M 1170 538 
L 1152 545 
L 1186 545 
L 1170 538 
M 1163 535 
L 1177 535 
L 1220 551 
L 1204 551 
L 1192 547 
L 1148 547 
L 1135 551 
L 1120 551 
L 1163 535 
" fill="#339541" />
<path d="
M 1220 510 
L 1220 514 
Q 1205 511 , 1197 511 
Q 1189 510 , 1179 510 
Q 1158 510 , 1148 513 
Q 1136 515 , 1136 520 
Q 1136 526 , 1148 529 
Q 1158 532 , 1179 532 
Q 1189 532 , 1197 531 
Q 1205 530 , 1220 527 
L 1220 532 
Q 1209 533 , 1199 534 
Q 1189 535 , 1178 535 
Q 1151 535 , 1136 531 
Q 1120 527 , 1120 521 
Q 1120 514 , 1136 511 
Q 1151 507 , 1178 507 
Q 1189 507 , 1199 508 
Q 1210 508 , 1220 510 
" fill="#545FFF" />
<path d="
M 1204 501 
L 1204 490 
L 1175 490 
L 1175 485 
L 1220 485 
L 1220 504 
Q 1209 505 , 1198 506 
Q 1189 507 , 1177 507 
Q 1151 507 , 1135 501 
Q 1120 496 , 1120 486 
Q 1120 476 , 1135 471 
Q 1151 465 , 1177 465 
Q 1188 465 , 1197 466 
Q 1207 466 , 1217 468 
L 1217 474 
Q 1204 471 , 1196 471 
Q 1187 470 , 1178 470 
Q 1157 470 , 1146 474 
Q 1136 478 , 1136 486 
Q 1136 494 , 1146 498 
Q 1157 502 , 1178 502 
Q 1187 502 , 1194 502 
Q 1201 501 , 1204 501 
" fill="#F5C000" />
<path d="
M 1225 553 
L 1243 553 
L 1243 554 
Q 1243 554 , 1251 554 
Q 1258 555 , 1275 555 
Q 1292 555 , 1300 554 
Q 1307 554 , 1307 554 
L 1307 553 
L 1325 553 
L 1325 554 
Q 1325 554 , 1312 555 
Q 1300 555 , 1275 555 
Q 1251 555 , 1238 555 
Q 1225 554 , 1225 554 
L 1225 553 
" fill="#D21010" />
<path d="
M 1275 551 
L 1257 552 
L 1291 552 
L 1275 551 
M 1268 551 
L 1282 551 
L 1325 553 
L 1309 553 
L 1297 552 
L 1253 552 
L 1240 553 
L 1225 553 
L 1268 551 
" fill="#339541" />
<path d="
M 1325 548 
L 1325 549 
Q 1310 548 , 1302 548 
Q 1294 548 , 1284 548 
Q 1263 548 , 1253 549 
Q 1241 549 , 1241 549 
Q 1241 550 , 1253 550 
Q 1263 550 , 1284 550 
Q 1294 550 , 1302 550 
Q 1310 550 , 1325 550 
L 1325 550 
Q 1314 551 , 1304 551 
Q 1294 551 , 1283 551 
Q 1256 551 , 1241 550 
Q 1225 550 , 1225 549 
Q 1225 549 , 1241 548 
Q 1256 548 , 1283 548 
Q 1294 548 , 1304 548 
Q 1315 548 , 1325 548 
" fill="#545FFF" />
<path d="
M 1309 547 
L 1309 546 
L 1280 546 
L 1280 545 
L 1325 545 
L 1325 547 
Q 1314 547 , 1303 547 
Q 1294 547 , 1282 547 
Q 1256 547 , 1240 547 
Q 1225 546 , 1225 546 
Q 1225 545 , 1240 544 
Q 1256 544 , 1282 544 
Q 1293 544 , 1302 544 
Q 1312 544 , 1322 544 
L 1322 545 
Q 1309 544 , 1301 544 
Q 1292 544 , 1283 544 
Q 1262 544 , 1251 545 
Q 1241 545 , 1241 546 
Q 1241 546 , 1251 546 
Q 1262 547 , 1283 547 
Q 1292 547 , 1299 547 
Q 1306 547 , 1309 547 
" fill="#F5C000" />
<path d="M 65 55 L 65 555 " stroke="black" stroke-width="1.5"/>
<path d="M 55 555 L 65 555 " stroke="black" stroke-width="4"/>
<text text-anchor="end" x="50" y="555" font-size="50" alignment-baseline="middle">0</text>
<path d="M 55 305 L 65 305 " stroke="black" stroke-width="4"/>
<text text-anchor="end" x="50" y="305" font-size="50" alignment-baseline="middle">1</text>
<path d="M 55 55 L 65 55 " stroke="black" stroke-width="4"/>
<text text-anchor="end" x="50" y="55" font-size="50" alignment-baseline="middle">2</text>
<text text-anchor="middle" x="697" y="50" font-size="50" alignment-baseline="baseline"></text>
G<path d="
M 160 582 
L 126 595 
L 160 608 
L 157 611 
L 123 598 
L 123 623 
L 117 623 
L 117 599 
L 83 611 
L 80 608 
L 114 595 
L 80 582 
L 83 579 
L 117 591 
L 117 567 
L 123 567 
L 123 591 
L 157 579 
L 160 582 
" fill="black" />
<path d="
" fill="black" />
<path d="
M 211 567 
L 238 567 
L 238 623 
L 211 623 
L 211 567 
" fill="black" />
<path d="
" fill="black" />
<path d="
" fill="black" />
<path d="
M 316 567 
L 343 567 
L 343 623 
L 316 623 
L 316 567 
" fill="black" />
<path d="
" fill="black" />
<path d="
" fill="black" />
<path d="
M 421 567 
L 448 567 
L 448 623 
L 421 623 
L 421 567 
" fill="black" />
<path d="
" fill="black" />
<path d="
" fill="black" />
<path d="
M 526 567 
L 553 567 
L 553 623 
L 526 623 
L 526 567 
" fill="black" />
<path d="
" fill="black" />
<path d="
" fill="black" />
<path d="
M 631 567 
L 658 567 
L 658 623 
L 631 623 
L 631 567 
" fill="black" />
<path d="
" fill="black" />
<path d="
" fill="black" />
<path d="
M 736 567 
L 763 567 
L 763 623 
L 736 623 
L 736 567 
" fill="black" />
<path d="
" fill="black" />
<path d="
" fill="black" />
<path d="
M 841 567 
L 868 567 
L 868 623 
L 841 623 
L 841 567 
" fill="black" />
<path d="
" fill="black" />
<path d="
" fill="black" />
<path d="
M 946 567 
L 973 567 
L 973 623 
L 946 623 
L 946 567 
" fill="black" />
<path d="
" fill="black" />
<path d="
" fill="black" />
<path d="
M 1051 567 
L 1078 567 
L 1078 623 
L 1051 623 
L 1051 567 
" fill="black" />
<path d="
" fill="black" />
<path d="
" fill="black" />
<path d="
M 1156 567 
L 1183 567 
L 1183 623 
L 1156 623 
L 1156 567 
" fill="black" />
<path d="
" fill="black" />
<path d="
M 1315 582 
L 1281 595 
L 1315 608 
L 1312 611 
L 1278 598 
L 1278 623 
L 1272 623 
L 1272 599 
L 1238 611 
L 1235 608 
L 1269 595 
L 1235 582 
L 1238 579 
L 1272 591 
L 1272 567 
L 1278 567 
L 1278 591 
L 1312 579 
L 1315 582 
" fill="black" />
</svg>
