<svg xmlns="http://www.w3.org/2000/svg"
viewBox="0 0 1330 635">
<path d="
M 154 554 
L 154 554 
L 125 554 
L 125 554 
L 170 554 
L 170 554 
Q 159 554 , 148 554 
Q 139 554 , 127 554 
Q 101 554 , 85 554 
Q 70 554 , 70 554 
Q 70 554 , 85 554 
Q 101 554 , 127 554 
Q 138 554 , 147 554 
Q 157 554 , 167 554 
L 167 554 
Q 154 554 , 146 554 
Q 137 554 , 128 554 
Q 107 554 , 96 554 
Q 86 554 , 86 554 
Q 86 554 , 96 554 
Q 107 554 , 128 554 
Q 137 554 , 144 554 
Q 151 554 , 154 554 
" fill="#F5C000" />
<path d="
M 70 553 
L 88 553 
L 88 553 
Q 88 553 , 96 553 
Q 103 553 , 120 553 
Q 137 553 , 145 553 
Q 152 553 , 152 553 
L 152 553 
L 170 553 
L 170 553 
Q 170 553 , 157 553 
Q 145 553 , 120 553 
Q 96 553 , 83 553 
Q 70 553 , 70 553 
L 70 553 
" fill="#D21010" />
<path d="
M 120 552 
L 102 552 
L 136 552 
L 120 552 
M 113 552 
L 127 552 
L 170 552 
L 154 552 
L 142 552 
L 98 552 
L 85 552 
L 70 552 
L 113 552 
" fill="#339541" />
<path d="
M 170 551 
L 170 551 
Q 155 551 , 147 551 
Q 139 551 , 129 551 
Q 108 551 , 98 551 
Q 86 551 , 86 551 
Q 86 551 , 98 551 
Q 108 551 , 129 551 
Q 139 551 , 147 551 
Q 155 551 , 170 551 
L 170 551 
Q 159 551 , 149 551 
Q 139 551 , 128 551 
Q 101 551 , 86 551 
Q 70 551 , 70 551 
Q 70 551 , 86 551 
Q 101 551 , 128 551 
Q 139 551 , 149 551 
Q 160 551 , 170 551 
" fill="#545FFF" />
<path d="
M 225 552 
L 207 553 
L 241 553 
L 225 552 
M 218 551 
L 232 551 
L 275 555 
L 259 555 
L 247 554 
L 203 554 
L 190 555 
L 175 555 
L 218 551 
" fill="#339541" />
<path d="
M 259 549 
L 259 546 
L 230 546 
L 230 545 
L 275 545 
L 275 550 
Q 264 550 , 253 550 
Q 244 550 , 232 550 
Q 206 550 , 190 549 
Q 175 548 , 175 545 
Q 175 543 , 190 541 
Q 206 540 , 232 540 
Q 243 540 , 252 540 
Q 262 540 , 272 541 
L 272 542 
Q 259 542 , 251 541 
Q 242 541 , 233 541 
Q 212 541 , 201 542 
Q 191 543 , 191 545 
Q 191 547 , 201 548 
Q 212 549 , 233 549 
Q 242 549 , 249 549 
Q 256 549 , 259 549 
" fill="#F5C000" />
<path d="
M 275 528 
L 275 530 
Q 260 529 , 252 529 
Q 244 528 , 234 528 
Q 213 528 , 203 530 
Q 191 531 , 191 533 
Q 191 536 , 203 537 
Q 213 538 , 234 538 
Q 244 538 , 252 538 
Q 260 538 , 275 537 
L 275 539 
Q 264 539 , 254 540 
Q 244 540 , 233 540 
Q 206 540 , 191 538 
Q 175 536 , 175 533 
Q 175 530 , 191 529 
Q 206 527 , 233 527 
Q 244 527 , 254 527 
Q 265 528 , 275 528 
" fill="#545FFF" />
<path d="
M 175 507 
L 193 507 
L 193 519 
Q 193 522 , 201 523 
Q 208 525 , 225 525 
Q 242 525 , 250 523 
Q 257 522 , 257 519 
L 257 507 
L 275 507 
L 275 519 
Q 275 523 , 262 525 
Q 250 527 , 225 527 
Q 201 527 , 188 525 
Q 175 523 , 175 519 
L 175 507 
" fill="#D21010" />
<path d="
M 330 552 
L 312 554 
L 346 554 
L 330 552 
M 323 552 
L 337 552 
L 380 555 
L 364 555 
L 352 554 
L 308 554 
L 295 555 
L 280 555 
L 323 552 
" fill="#339541" />
<path d="
M 380 549 
L 380 550 
Q 365 549 , 357 549 
Q 349 549 , 339 549 
Q 318 549 , 308 550 
Q 296 550 , 296 550 
Q 296 551 , 308 551 
Q 318 552 , 339 552 
Q 349 552 , 357 551 
Q 365 551 , 380 551 
L 380 552 
Q 369 552 , 359 552 
Q 349 552 , 338 552 
Q 311 552 , 296 551 
Q 280 551 , 280 550 
Q 280 550 , 296 549 
Q 311 549 , 338 549 
Q 349 549 , 359 549 
Q 370 549 , 380 549 
" fill="#545FFF" />
<path d="
M 364 548 
L 364 547 
L 335 547 
L 335 546 
L 380 546 
L 380 548 
Q 369 548 , 358 548 
Q 349 548 , 337 548 
Q 311 548 , 295 548 
Q 280 547 , 280 546 
Q 280 545 , 295 545 
Q 311 544 , 337 544 
Q 348 544 , 357 544 
Q 367 544 , 377 544 
L 377 545 
Q 364 545 , 356 545 
Q 347 545 , 338 545 
Q 317 545 , 306 545 
Q 296 545 , 296 546 
Q 296 547 , 306 548 
Q 317 548 , 338 548 
Q 347 548 , 354 548 
Q 361 548 , 364 548 
" fill="#F5C000" />
<path d="
M 280 538 
L 298 538 
L 298 541 
Q 298 542 , 306 542 
Q 313 543 , 330 543 
Q 347 543 , 355 542 
Q 362 542 , 362 541 
L 362 538 
L 380 538 
L 380 541 
Q 380 542 , 367 543 
Q 355 543 , 330 543 
Q 306 543 , 293 543 
Q 280 542 , 280 541 
L 280 538 
" fill="#D21010" />
<path d="
M 469 554 
L 469 554 
L 440 554 
L 440 554 
L 485 554 
L 485 554 
Q 474 554 , 463 555 
Q 454 555 , 442 555 
Q 416 555 , 400 554 
Q 385 554 , 385 554 
Q 385 553 , 400 553 
Q 416 553 , 442 553 
Q 453 553 , 462 553 
Q 472 553 , 482 553 
L 482 553 
Q 469 553 , 461 553 
Q 452 553 , 443 553 
Q 422 553 , 411 553 
Q 401 553 , 401 554 
Q 401 554 , 411 554 
Q 422 554 , 443 554 
Q 452 554 , 459 554 
Q 466 554 , 469 554 
" fill="#F5C000" />
<path d="
M 435 550 
L 417 551 
L 451 551 
L 435 550 
M 428 550 
L 442 550 
L 485 552 
L 469 552 
L 457 552 
L 413 552 
L 400 552 
L 385 552 
L 428 550 
" fill="#339541" />
<path d="
M 385 547 
L 403 547 
L 403 549 
Q 403 549 , 411 549 
Q 418 549 , 435 549 
Q 452 549 , 460 549 
Q 467 549 , 467 549 
L 467 547 
L 485 547 
L 485 549 
Q 485 549 , 472 549 
Q 460 550 , 435 550 
Q 411 550 , 398 549 
Q 385 549 , 385 549 
L 385 547 
" fill="#D21010" />
<path d="
M 485 544 
L 485 545 
Q 470 544 , 462 544 
Q 454 544 , 444 544 
Q 423 544 , 413 545 
Q 401 545 , 401 545 
Q 401 546 , 413 546 
Q 423 547 , 444 547 
Q 454 547 , 462 546 
Q 470 546 , 485 546 
L 485 547 
Q 474 547 , 464 547 
Q 454 547 , 443 547 
Q 416 547 , 401 546 
Q 385 546 , 385 545 
Q 385 545 , 401 544 
Q 416 544 , 443 544 
Q 454 544 , 464 544 
Q 475 544 , 485 544 
" fill="#545FFF" />
<path d="
M 540 547 
L 522 550 
L 556 550 
L 540 547 
M 533 545 
L 547 545 
L 590 554 
L 574 554 
L 562 552 
L 518 552 
L 505 554 
L 490 554 
L 533 545 
" fill="#339541" />
<path d="
M 574 543 
L 574 540 
L 545 540 
L 545 538 
L 590 538 
L 590 544 
Q 579 544 , 568 544 
Q 559 544 , 547 544 
Q 521 544 , 505 543 
Q 490 541 , 490 539 
Q 490 536 , 505 535 
Q 521 533 , 547 533 
Q 558 533 , 567 533 
Q 577 533 , 587 534 
L 587 535 
Q 574 535 , 566 535 
Q 557 534 , 548 534 
Q 527 534 , 516 535 
Q 506 537 , 506 539 
Q 506 541 , 516 542 
Q 527 543 , 548 543 
Q 557 543 , 564 543 
Q 571 543 , 574 543 
" fill="#F5C000" />
<path d="
M 490 514 
L 508 514 
L 508 525 
Q 508 528 , 516 529 
Q 523 531 , 540 531 
Q 557 531 , 565 529 
Q 572 528 , 572 525 
L 572 514 
L 590 514 
L 590 525 
Q 590 529 , 577 531 
Q 565 533 , 540 533 
Q 516 533 , 503 531 
Q 490 529 , 490 525 
L 490 514 
" fill="#D21010" />
<path d="
M 590 266 
L 590 308 
Q 575 281 , 567 274 
Q 559 267 , 549 267 
Q 528 267 , 518 294 
Q 506 321 , 506 375 
Q 506 429 , 518 457 
Q 528 484 , 549 484 
Q 559 484 , 567 477 
Q 575 469 , 590 442 
L 590 486 
Q 579 501 , 569 507 
Q 559 514 , 548 514 
Q 521 514 , 506 476 
Q 490 439 , 490 375 
Q 490 311 , 506 274 
Q 521 236 , 548 236 
Q 559 236 , 569 243 
Q 580 250 , 590 266 
" fill="#545FFF" />
<path d="
M 679 554 
L 679 553 
L 650 553 
L 650 553 
L 695 553 
L 695 554 
Q 684 555 , 673 555 
Q 664 555 , 652 555 
Q 626 555 , 610 554 
Q 595 554 , 595 553 
Q 595 552 , 610 552 
Q 626 551 , 652 551 
Q 663 551 , 672 551 
Q 682 551 , 692 551 
L 692 552 
Q 679 552 , 671 552 
Q 662 551 , 653 551 
Q 632 551 , 621 552 
Q 611 552 , 611 553 
Q 611 554 , 621 554 
Q 632 554 , 653 554 
Q 662 554 , 669 554 
Q 676 554 , 679 554 
" fill="#F5C000" />
<path d="
M 695 538 
L 695 541 
Q 680 539 , 672 539 
Q 664 539 , 654 539 
Q 633 539 , 623 540 
Q 611 541 , 611 544 
Q 611 547 , 623 548 
Q 633 549 , 654 549 
Q 664 549 , 672 549 
Q 680 549 , 695 547 
L 695 549 
Q 684 550 , 674 551 
Q 664 551 , 653 551 
Q 626 551 , 611 549 
Q 595 547 , 595 544 
Q 595 541 , 611 539 
Q 626 537 , 653 537 
Q 664 537 , 674 537 
Q 685 538 , 695 538 
" fill="#545FFF" />
<path d="
M 645 515 
L 627 526 
L 661 526 
L 645 515 
M 638 510 
L 652 510 
L 695 537 
L 679 537 
L 667 529 
L 623 529 
L 610 537 
L 595 537 
L 638 510 
" fill="#339541" />
<path d="
M 595 469 
L 613 469 
L 613 493 
Q 613 499 , 621 502 
Q 628 505 , 645 505 
Q 662 505 , 670 502 
Q 677 499 , 677 493 
L 677 469 
L 695 469 
L 695 493 
Q 695 501 , 682 505 
Q 670 509 , 645 509 
Q 621 509 , 608 505 
Q 595 501 , 595 493 
L 595 469 
" fill="#D21010" />
<path d="
M 750 551 
L 732 553 
L 766 553 
L 750 551 
M 743 550 
L 757 550 
L 800 554 
L 784 554 
L 772 553 
L 728 553 
L 715 554 
L 700 554 
L 743 550 
" fill="#339541" />
<path d="
M 800 543 
L 800 544 
Q 785 543 , 777 543 
Q 769 543 , 759 543 
Q 738 543 , 728 544 
Q 716 544 , 716 545 
Q 716 547 , 728 548 
Q 738 549 , 759 549 
Q 769 549 , 777 549 
Q 785 548 , 800 548 
L 800 549 
Q 789 549 , 779 550 
Q 769 550 , 758 550 
Q 731 550 , 716 549 
Q 700 548 , 700 546 
Q 700 544 , 716 543 
Q 731 542 , 758 542 
Q 769 542 , 779 542 
Q 790 542 , 800 543 
" fill="#545FFF" />
<path d="
M 784 540 
L 784 537 
L 755 537 
L 755 536 
L 800 536 
L 800 541 
Q 789 541 , 778 541 
Q 769 542 , 757 542 
Q 731 542 , 715 540 
Q 700 539 , 700 536 
Q 700 534 , 715 532 
Q 731 531 , 757 531 
Q 768 531 , 777 531 
Q 787 531 , 797 532 
L 797 533 
Q 784 533 , 776 532 
Q 767 532 , 758 532 
Q 737 532 , 726 533 
Q 716 534 , 716 536 
Q 716 538 , 726 539 
Q 737 540 , 758 540 
Q 767 540 , 774 540 
Q 781 540 , 784 540 
" fill="#F5C000" />
<path d="
M 700 513 
L 718 513 
L 718 523 
Q 718 526 , 726 527 
Q 733 528 , 750 528 
Q 767 528 , 775 527 
Q 782 526 , 782 523 
L 782 513 
L 800 513 
L 800 524 
Q 800 527 , 787 529 
Q 775 530 , 750 530 
Q 726 530 , 713 529 
Q 700 527 , 700 524 
L 700 513 
" fill="#D21010" />
<path d="
M 855 548 
L 837 551 
L 871 551 
L 855 548 
M 848 546 
L 862 546 
L 905 555 
L 889 555 
L 877 552 
L 833 552 
L 820 555 
L 805 555 
L 848 546 
" fill="#339541" />
<path d="
M 889 543 
L 889 539 
L 860 539 
L 860 538 
L 905 538 
L 905 544 
Q 894 545 , 883 545 
Q 874 545 , 862 545 
Q 836 545 , 820 543 
Q 805 541 , 805 538 
Q 805 535 , 820 533 
Q 836 531 , 862 531 
Q 873 531 , 882 531 
Q 892 532 , 902 532 
L 902 534 
Q 889 533 , 881 533 
Q 872 533 , 863 533 
Q 842 533 , 831 534 
Q 821 535 , 821 538 
Q 821 541 , 831 542 
Q 842 544 , 863 544 
Q 872 544 , 879 544 
Q 886 543 , 889 543 
" fill="#F5C000" />
<path d="
M 805 509 
L 823 509 
L 823 522 
Q 823 525 , 831 527 
Q 838 528 , 855 528 
Q 872 528 , 880 527 
Q 887 525 , 887 522 
L 887 509 
L 905 509 
L 905 522 
Q 905 526 , 892 528 
Q 880 531 , 855 531 
Q 831 531 , 818 528 
Q 805 526 , 805 522 
L 805 509 
" fill="#D21010" />
<path d="
M 905 296 
L 905 332 
Q 890 308 , 882 303 
Q 874 296 , 864 296 
Q 843 296 , 833 320 
Q 821 343 , 821 389 
Q 821 436 , 833 459 
Q 843 483 , 864 483 
Q 874 483 , 882 477 
Q 890 470 , 905 447 
L 905 484 
Q 894 498 , 884 503 
Q 874 509 , 863 509 
Q 836 509 , 821 476 
Q 805 444 , 805 389 
Q 805 335 , 821 303 
Q 836 270 , 863 270 
Q 874 270 , 884 276 
Q 895 282 , 905 296 
" fill="#545FFF" />
<path d="
M 994 554 
L 994 553 
L 965 553 
L 965 552 
L 1010 552 
L 1010 554 
Q 999 554 , 988 554 
Q 979 554 , 967 554 
Q 941 554 , 925 554 
Q 910 553 , 910 552 
Q 910 551 , 925 551 
Q 941 550 , 967 550 
Q 978 550 , 987 550 
Q 997 550 , 1007 550 
L 1007 551 
Q 994 551 , 986 551 
Q 977 551 , 968 551 
Q 947 551 , 936 551 
Q 926 551 , 926 552 
Q 926 553 , 936 553 
Q 947 554 , 968 554 
Q 977 554 , 984 554 
Q 991 554 , 994 554 
" fill="#F5C000" />
<path d="
M 1010 540 
L 1010 542 
Q 995 541 , 987 540 
Q 979 540 , 969 540 
Q 948 540 , 938 541 
Q 926 542 , 926 544 
Q 926 547 , 938 548 
Q 948 549 , 969 549 
Q 979 549 , 987 548 
Q 995 548 , 1010 547 
L 1010 549 
Q 999 549 , 989 550 
Q 979 550 , 968 550 
Q 941 550 , 926 548 
Q 910 547 , 910 544 
Q 910 542 , 926 540 
Q 941 539 , 968 539 
Q 979 539 , 989 539 
Q 1000 540 , 1010 540 
" fill="#545FFF" />
<path d="
M 960 521 
L 942 529 
L 976 529 
L 960 521 
M 953 517 
L 967 517 
L 1010 538 
L 994 538 
L 982 532 
L 938 532 
L 925 538 
L 910 538 
L 953 517 
" fill="#339541" />
<path d="
M 910 488 
L 928 488 
L 928 505 
Q 928 510 , 936 512 
Q 943 514 , 960 514 
Q 977 514 , 985 512 
Q 992 510 , 992 505 
L 992 488 
L 1010 488 
L 1010 505 
Q 1010 511 , 997 514 
Q 985 517 , 960 517 
Q 936 517 , 923 514 
Q 910 511 , 910 505 
L 910 488 
" fill="#D21010" />
<path d="
M 1065 552 
L 1047 553 
L 1081 553 
L 1065 552 
M 1058 551 
L 1072 551 
L 1115 555 
L 1099 555 
L 1087 554 
L 1043 554 
L 1030 555 
L 1015 555 
L 1058 551 
" fill="#339541" />
<path d="
M 1099 549 
L 1099 547 
L 1070 547 
L 1070 546 
L 1115 546 
L 1115 550 
Q 1104 550 , 1093 550 
Q 1084 550 , 1072 550 
Q 1046 550 , 1030 549 
Q 1015 548 , 1015 546 
Q 1015 544 , 1030 543 
Q 1046 542 , 1072 542 
Q 1083 542 , 1092 542 
Q 1102 542 , 1112 543 
L 1112 544 
Q 1099 543 , 1091 543 
Q 1082 543 , 1073 543 
Q 1052 543 , 1041 544 
Q 1031 545 , 1031 546 
Q 1031 548 , 1041 549 
Q 1052 550 , 1073 550 
Q 1082 550 , 1089 549 
Q 1096 549 , 1099 549 
" fill="#F5C000" />
<path d="
M 1015 530 
L 1033 530 
L 1033 537 
Q 1033 539 , 1041 539 
Q 1048 540 , 1065 540 
Q 1082 540 , 1090 539 
Q 1097 539 , 1097 537 
L 1097 530 
L 1115 530 
L 1115 537 
Q 1115 539 , 1102 540 
Q 1090 542 , 1065 542 
Q 1041 542 , 1028 540 
Q 1015 539 , 1015 537 
L 1015 530 
" fill="#D21010" />
<path d="
M 1115 516 
L 1115 518 
Q 1100 517 , 1092 516 
Q 1084 516 , 1074 516 
Q 1053 516 , 1043 517 
Q 1031 519 , 1031 522 
Q 1031 525 , 1043 527 
Q 1053 528 , 1074 528 
Q 1084 528 , 1092 528 
Q 1100 527 , 1115 526 
L 1115 528 
Q 1104 529 , 1094 529 
Q 1084 530 , 1073 530 
Q 1046 530 , 1031 528 
Q 1015 526 , 1015 522 
Q 1015 518 , 1031 516 
Q 1046 514 , 1073 514 
Q 1084 514 , 1094 514 
Q 1105 515 , 1115 516 
" fill="#545FFF" />
<path d="
M 1120 554 
L 1138 554 
L 1138 554 
Q 1138 554 , 1146 555 
Q 1153 555 , 1170 555 
Q 1187 555 , 1195 555 
Q 1202 554 , 1202 554 
L 1202 554 
L 1220 554 
L 1220 554 
Q 1220 555 , 1207 555 
Q 1195 555 , 1170 555 
Q 1146 555 , 1133 555 
Q 1120 555 , 1120 554 
L 1120 554 
" fill="#D21010" />
<path d="
M 1170 553 
L 1152 553 
L 1186 553 
L 1170 553 
M 1163 553 
L 1177 553 
L 1220 554 
L 1204 554 
L 1192 553 
L 1148 553 
L 1135 554 
L 1120 554 
L 1163 553 
" fill="#339541" />
<path d="
M 1204 553 
L 1204 552 
L 1175 552 
L 1175 552 
L 1220 552 
L 1220 553 
Q 1209 553 , 1198 553 
Q 1189 553 , 1177 553 
Q 1151 553 , 1135 553 
Q 1120 553 , 1120 552 
Q 1120 552 , 1135 552 
Q 1151 552 , 1177 552 
Q 1188 552 , 1197 552 
Q 1207 552 , 1217 552 
L 1217 552 
Q 1204 552 , 1196 552 
Q 1187 552 , 1178 552 
Q 1157 552 , 1146 552 
Q 1136 552 , 1136 552 
Q 1136 553 , 1146 553 
Q 1157 553 , 1178 553 
Q 1187 553 , 1194 553 
Q 1201 553 , 1204 553 
" fill="#F5C000" />
<path d="
M 1220 551 
L 1220 551 
Q 1205 551 , 1197 551 
Q 1189 551 , 1179 551 
Q 1158 551 , 1148 551 
Q 1136 551 , 1136 551 
Q 1136 552 , 1148 552 
Q 1158 552 , 1179 552 
Q 1189 552 , 1197 552 
Q 1205 552 , 1220 552 
L 1220 552 
Q 1209 552 , 1199 552 
Q 1189 552 , 1178 552 
Q 1151 552 , 1136 552 
Q 1120 552 , 1120 551 
Q 1120 551 , 1136 551 
Q 1151 551 , 1178 551 
Q 1189 551 , 1199 551 
Q 1210 551 , 1220 551 
" fill="#545FFF" />
<path d="
M 1309 554 
L 1309 554 
L 1280 554 
L 1280 554 
L 1325 554 
L 1325 554 
Q 1314 554 , 1303 554 
Q 1294 554 , 1282 554 
Q 1256 554 , 1240 554 
Q 1225 554 , 1225 554 
Q 1225 554 , 1240 554 
Q 1256 554 , 1282 554 
Q 1293 554 , 1302 554 
Q 1312 554 , 1322 554 
L 1322 554 
Q 1309 554 , 1301 554 
Q 1292 554 , 1283 554 
Q 1262 554 , 1251 554 
Q 1241 554 , 1241 554 
Q 1241 554 , 1251 554 
Q 1262 554 , 1283 554 
Q 1292 554 , 1299 554 
Q 1306 554 , 1309 554 
" fill="#F5C000" />
<path d="
M 1225 553 
L 1243 553 
L 1243 553 
Q 1243 553 , 1251 553 
Q 1258 553 , 1275 553 
Q 1292 553 , 1300 553 
Q 1307 553 , 1307 553 
L 1307 553 
L 1325 553 
L 1325 553 
Q 1325 553 , 1312 553 
Q 1300 553 , 1275 553 
Q 1251 553 , 1238 553 
Q 1225 553 , 1225 553 
L 1225 553 
" fill="#D21010" />
<path d="
M 1275 552 
L 1257 552 
L 1291 552 
L 1275 552 
M 1268 552 
L 1282 552 
L 1325 552 
L 1309 552 
L 1297 552 
L 1253 552 
L 1240 552 
L 1225 552 
L 1268 552 
" fill="#339541" />
<path d="
M 1325 551 
L 1325 551 
Q 1310 551 , 1302 551 
Q 1294 551 , 1284 551 
Q 1263 551 , 1253 551 
Q 1241 551 , 1241 551 
Q 1241 551 , 1253 551 
Q 1263 551 , 1284 551 
Q 1294 551 , 1302 551 
Q 1310 551 , 1325 551 
L 1325 551 
Q 1314 551 , 1304 551 
Q 1294 551 , 1283 551 
Q 1256 551 , 1241 551 
Q 1225 551 , 1225 551 
Q 1225 551 , 1241 551 
Q 1256 551 , 1283 551 
Q 1294 551 , 1304 551 
Q 1315 551 , 1325 551 
" fill="#545FFF" />
<path d="M 65 55 L 65 555 " stroke="black" stroke-width="1.5"/>
<path d="M 55 555 L 65 555 " stroke="black" stroke-width="4"/>
<text text-anchor="end" x="50" y="555" font-size="50" alignment-baseline="middle">0</text>
<path d="M 55 305 L 65 305 " stroke="black" stroke-width="4"/>
<text text-anchor="end" x="50" y="305" font-size="50" alignment-baseline="middle">1</text>
<path d="M 55 55 L 65 55 " stroke="black" stroke-width="4"/>
<text text-anchor="end" x="50" y="55" font-size="50" alignment-baseline="middle">2</text>
<text text-anchor="middle" x="697" y="50" font-size="50" alignment-baseline="baseline"></text>
G<path d="
M 160 582 
L 126 595 
L 160 608 
L 157 611 
L 123 598 
L 123 623 
L 117 623 
L 117 599 
L 83 611 
L 80 608 
L 114 595 
L 80 582 
L 83 579 
L 117 591 
L 117 567 
L 123 567 
L 123 591 
L 157 579 
L 160 582 
" fill="black" />
<path d="
" fill="black" />
<path d="
M 211 567 
L 238 567 
L 238 623 
L 211 623 
L 211 567 
" fill="black" />
<path d="
" fill="black" />
<path d="
" fill="black" />
<path d="
M 316 567 
L 343 567 
L 343 623 
L 316 623 
L 316 567 
" fill="black" />
<path d="
" fill="black" />
<path d="
" fill="black" />
<path d="
M 421 567 
L 448 567 
L 448 623 
L 421 623 
L 421 567 
" fill="black" />
<path d="
" fill="black" />
<path d="
" fill="black" />
<path d="
M 526 567 
L 553 567 
L 553 623 
L 526 623 
L 526 567 
" fill="black" />
<path d="
" fill="black" />
<path d="
" fill="black" />
<path d="
M 631 567 
L 658 567 
L 658 623 
L 631 623 
L 631 567 
" fill="black" />
<path d="
" fill="black" />
<path d="
" fill="black" />
<path d="
M 736 567 
L 763 567 
L 763 623 
L 736 623 
L 736 567 
" fill="black" />
<path d="
" fill="black" />
<path d="
" fill="black" />
<path d="
M 841 567 
L 868 567 
L 868 623 
L 841 623 
L 841 567 
" fill="black" />
<path d="
" fill="black" />
<path d="
" fill="black" />
<path d="
M 946 567 
L 973 567 
L 973 623 
L 946 623 
L 946 567 
" fill="black" />
<path d="
" fill="black" />
<path d="
" fill="black" />
<path d="
M 1051 567 
L 1078 567 
L 1078 623 
L 1051 623 
L 1051 567 
" fill="black" />
<path d="
" fill="black" />
<path d="
" fill="black" />
<path d="
M 1156 567 
L 1183 567 
L 1183 623 
L 1156 623 
L 1156 567 
" fill="black" />
<path d="
" fill="black" />
<path d="
M 1315 582 
L 1281 595 
L 1315 608 
L 1312 611 
L 1278 598 
L 1278 623 
L 1272 623 
L 1272 599 
L 1238 611 
L 1235 608 
L 1269 595 
L 1235 582 
L 1238 579 
L 1272 591 
L 1272 567 
L 1278 567 
L 1278 591 
L 1312 579 
L 1315 582 
" fill="black" />
</svg>
