<svg xmlns="http://www.w3.org/2000/svg"
viewBox="0 0 2590 615">
<path d="
M 70 552 
Q 70 551 , 86 550 
Q 102 550 , 133 550 
Q 149 550 , 168 550 
L 168 551 
Q 146 551 , 133 551 
Q 102 551 , 102 552 
Q 102 553 , 110 553 
Q 118 554 , 133 554 
Q 146 554 , 170 554 
L 170 554 
Q 151 555 , 133 555 
Q 102 555 , 86 554 
Q 70 554 , 70 552 
" fill="#545FFF" stroke="black" stroke-width="1"/>
<path d="
M 141 549 
L 141 547 
L 108 547 
L 108 546 
L 170 546 
L 170 549 
Q 148 549 , 128 549 
Q 99 549 , 84 548 
Q 70 548 , 70 547 
Q 70 545 , 84 544 
Q 99 544 , 130 544 
Q 143 544 , 163 544 
L 163 545 
Q 143 545 , 130 545 
Q 114 545 , 105 545 
Q 97 546 , 97 547 
Q 97 549 , 128 549 
Q 137 549 , 141 549 
" fill="#F5C000" stroke="black" stroke-width="1"/>
<path d="
M 115 530 
L 125 530 
L 111 537 
L 129 537 
L 115 530 
M 134 540 
L 102 540 
L 93 544 
L 70 544 
L 106 528 
L 134 528 
L 170 544 
L 143 544 
L 134 540 
" fill="#339541" stroke="black" stroke-width="1"/>
<path d="
M 157 510 
Q 145 528 , 121 528 
Q 97 528 , 83 510 
Q 70 492 , 70 457 
L 70 278 
L 102 278 
L 102 450 
Q 102 473 , 106 481 
Q 111 489 , 121 489 
Q 132 489 , 136 481 
Q 141 473 , 141 450 
L 141 278 
L 170 278 
L 170 457 
Q 170 492 , 157 510 
" fill="#D21010" stroke="black" stroke-width="1"/>
<path d="
M 175 552 
Q 175 551 , 191 550 
Q 207 550 , 238 550 
Q 254 550 , 273 550 
L 273 551 
Q 251 551 , 238 551 
Q 207 551 , 207 552 
Q 207 553 , 215 553 
Q 223 554 , 238 554 
Q 251 554 , 275 554 
L 275 554 
Q 256 555 , 238 555 
Q 207 555 , 191 554 
Q 175 554 , 175 552 
" fill="#545FFF" stroke="black" stroke-width="1"/>
<path d="
M 246 549 
L 246 547 
L 213 547 
L 213 546 
L 275 546 
L 275 549 
Q 253 549 , 233 549 
Q 204 549 , 189 548 
Q 175 548 , 175 547 
Q 175 545 , 189 544 
Q 204 544 , 235 544 
Q 248 544 , 268 544 
L 268 545 
Q 248 545 , 235 545 
Q 219 545 , 210 545 
Q 202 546 , 202 547 
Q 202 549 , 233 549 
Q 242 549 , 246 549 
" fill="#F5C000" stroke="black" stroke-width="1"/>
<path d="
M 220 530 
L 230 530 
L 216 537 
L 234 537 
L 220 530 
M 239 540 
L 207 540 
L 198 544 
L 175 544 
L 211 528 
L 239 528 
L 275 544 
L 248 544 
L 239 540 
" fill="#339541" stroke="black" stroke-width="1"/>
<path d="
M 262 510 
Q 250 528 , 226 528 
Q 202 528 , 188 510 
Q 175 492 , 175 457 
L 175 278 
L 207 278 
L 207 450 
Q 207 473 , 211 481 
Q 216 489 , 226 489 
Q 237 489 , 241 481 
Q 246 473 , 246 450 
L 246 278 
L 275 278 
L 275 457 
Q 275 492 , 262 510 
" fill="#D21010" stroke="black" stroke-width="1"/>
<path d="
M 280 552 
Q 280 551 , 296 550 
Q 312 550 , 343 550 
Q 359 550 , 378 550 
L 378 551 
Q 356 551 , 343 551 
Q 312 551 , 312 552 
Q 312 553 , 320 553 
Q 328 554 , 343 554 
Q 356 554 , 380 554 
L 380 554 
Q 361 555 , 343 555 
Q 312 555 , 296 554 
Q 280 554 , 280 552 
" fill="#545FFF" stroke="black" stroke-width="1"/>
<path d="
M 351 549 
L 351 547 
L 318 547 
L 318 546 
L 380 546 
L 380 549 
Q 358 549 , 338 549 
Q 309 549 , 294 548 
Q 280 548 , 280 547 
Q 280 545 , 294 544 
Q 309 544 , 340 544 
Q 353 544 , 373 544 
L 373 545 
Q 353 545 , 340 545 
Q 324 545 , 315 545 
Q 307 546 , 307 547 
Q 307 549 , 338 549 
Q 347 549 , 351 549 
" fill="#F5C000" stroke="black" stroke-width="1"/>
<path d="
M 325 530 
L 335 530 
L 321 537 
L 339 537 
L 325 530 
M 344 540 
L 312 540 
L 303 544 
L 280 544 
L 316 528 
L 344 528 
L 380 544 
L 353 544 
L 344 540 
" fill="#339541" stroke="black" stroke-width="1"/>
<path d="
M 367 510 
Q 355 528 , 331 528 
Q 307 528 , 293 510 
Q 280 492 , 280 457 
L 280 278 
L 312 278 
L 312 450 
Q 312 473 , 316 481 
Q 321 489 , 331 489 
Q 342 489 , 346 481 
Q 351 473 , 351 450 
L 351 278 
L 380 278 
L 380 457 
Q 380 492 , 367 510 
" fill="#D21010" stroke="black" stroke-width="1"/>
<path d="
M 385 552 
Q 385 551 , 401 550 
Q 417 550 , 448 550 
Q 464 550 , 483 550 
L 483 551 
Q 461 551 , 448 551 
Q 417 551 , 417 552 
Q 417 553 , 425 553 
Q 433 554 , 448 554 
Q 461 554 , 485 554 
L 485 554 
Q 466 555 , 448 555 
Q 417 555 , 401 554 
Q 385 554 , 385 552 
" fill="#545FFF" stroke="black" stroke-width="1"/>
<path d="
M 456 549 
L 456 547 
L 423 547 
L 423 546 
L 485 546 
L 485 549 
Q 463 549 , 443 549 
Q 414 549 , 399 548 
Q 385 548 , 385 547 
Q 385 545 , 399 544 
Q 414 544 , 445 544 
Q 458 544 , 478 544 
L 478 545 
Q 458 545 , 445 545 
Q 429 545 , 420 545 
Q 412 546 , 412 547 
Q 412 549 , 443 549 
Q 452 549 , 456 549 
" fill="#F5C000" stroke="black" stroke-width="1"/>
<path d="
M 430 530 
L 440 530 
L 426 537 
L 444 537 
L 430 530 
M 449 540 
L 417 540 
L 408 544 
L 385 544 
L 421 528 
L 449 528 
L 485 544 
L 458 544 
L 449 540 
" fill="#339541" stroke="black" stroke-width="1"/>
<path d="
M 472 510 
Q 460 528 , 436 528 
Q 412 528 , 398 510 
Q 385 492 , 385 457 
L 385 278 
L 417 278 
L 417 450 
Q 417 473 , 421 481 
Q 426 489 , 436 489 
Q 447 489 , 451 481 
Q 456 473 , 456 450 
L 456 278 
L 485 278 
L 485 457 
Q 485 492 , 472 510 
" fill="#D21010" stroke="black" stroke-width="1"/>
<path d="
M 490 552 
Q 490 551 , 506 550 
Q 522 550 , 553 550 
Q 569 550 , 588 550 
L 588 551 
Q 566 551 , 553 551 
Q 522 551 , 522 552 
Q 522 553 , 530 553 
Q 538 554 , 553 554 
Q 566 554 , 590 554 
L 590 554 
Q 571 555 , 553 555 
Q 522 555 , 506 554 
Q 490 554 , 490 552 
" fill="#545FFF" stroke="black" stroke-width="1"/>
<path d="
M 561 549 
L 561 547 
L 528 547 
L 528 546 
L 590 546 
L 590 549 
Q 568 549 , 548 549 
Q 519 549 , 504 548 
Q 490 548 , 490 547 
Q 490 545 , 504 544 
Q 519 544 , 550 544 
Q 563 544 , 583 544 
L 583 545 
Q 563 545 , 550 545 
Q 534 545 , 525 545 
Q 517 546 , 517 547 
Q 517 549 , 548 549 
Q 557 549 , 561 549 
" fill="#F5C000" stroke="black" stroke-width="1"/>
<path d="
M 535 530 
L 545 530 
L 531 537 
L 549 537 
L 535 530 
M 554 540 
L 522 540 
L 513 544 
L 490 544 
L 526 528 
L 554 528 
L 590 544 
L 563 544 
L 554 540 
" fill="#339541" stroke="black" stroke-width="1"/>
<path d="
M 577 510 
Q 565 528 , 541 528 
Q 517 528 , 503 510 
Q 490 492 , 490 457 
L 490 278 
L 522 278 
L 522 450 
Q 522 473 , 526 481 
Q 531 489 , 541 489 
Q 552 489 , 556 481 
Q 561 473 , 561 450 
L 561 278 
L 590 278 
L 590 457 
Q 590 492 , 577 510 
" fill="#D21010" stroke="black" stroke-width="1"/>
<path d="
M 595 552 
Q 595 551 , 611 550 
Q 627 550 , 658 550 
Q 674 550 , 693 550 
L 693 551 
Q 671 551 , 658 551 
Q 627 551 , 627 552 
Q 627 553 , 635 553 
Q 643 554 , 658 554 
Q 671 554 , 695 554 
L 695 554 
Q 676 555 , 658 555 
Q 627 555 , 611 554 
Q 595 554 , 595 552 
" fill="#545FFF" stroke="black" stroke-width="1"/>
<path d="
M 666 549 
L 666 547 
L 633 547 
L 633 546 
L 695 546 
L 695 549 
Q 673 549 , 653 549 
Q 624 549 , 609 548 
Q 595 548 , 595 547 
Q 595 545 , 609 544 
Q 624 544 , 655 544 
Q 668 544 , 688 544 
L 688 545 
Q 668 545 , 655 545 
Q 639 545 , 630 545 
Q 622 546 , 622 547 
Q 622 549 , 653 549 
Q 662 549 , 666 549 
" fill="#F5C000" stroke="black" stroke-width="1"/>
<path d="
M 640 530 
L 650 530 
L 636 537 
L 654 537 
L 640 530 
M 659 540 
L 627 540 
L 618 544 
L 595 544 
L 631 528 
L 659 528 
L 695 544 
L 668 544 
L 659 540 
" fill="#339541" stroke="black" stroke-width="1"/>
<path d="
M 682 510 
Q 670 528 , 646 528 
Q 622 528 , 608 510 
Q 595 492 , 595 457 
L 595 278 
L 627 278 
L 627 450 
Q 627 473 , 631 481 
Q 636 489 , 646 489 
Q 657 489 , 661 481 
Q 666 473 , 666 450 
L 666 278 
L 695 278 
L 695 457 
Q 695 492 , 682 510 
" fill="#D21010" stroke="black" stroke-width="1"/>
<path d="
M 700 552 
Q 700 551 , 716 550 
Q 732 550 , 763 550 
Q 779 550 , 798 550 
L 798 551 
Q 776 551 , 763 551 
Q 732 551 , 732 552 
Q 732 553 , 740 553 
Q 748 554 , 763 554 
Q 776 554 , 800 554 
L 800 554 
Q 781 555 , 763 555 
Q 732 555 , 716 554 
Q 700 554 , 700 552 
" fill="#545FFF" stroke="black" stroke-width="1"/>
<path d="
M 771 549 
L 771 547 
L 738 547 
L 738 546 
L 800 546 
L 800 549 
Q 778 549 , 758 549 
Q 729 549 , 714 548 
Q 700 548 , 700 547 
Q 700 545 , 714 544 
Q 729 544 , 760 544 
Q 773 544 , 793 544 
L 793 545 
Q 773 545 , 760 545 
Q 744 545 , 735 545 
Q 727 546 , 727 547 
Q 727 549 , 758 549 
Q 767 549 , 771 549 
" fill="#F5C000" stroke="black" stroke-width="1"/>
<path d="
M 745 530 
L 755 530 
L 741 537 
L 759 537 
L 745 530 
M 764 540 
L 732 540 
L 723 544 
L 700 544 
L 736 528 
L 764 528 
L 800 544 
L 773 544 
L 764 540 
" fill="#339541" stroke="black" stroke-width="1"/>
<path d="
M 787 510 
Q 775 528 , 751 528 
Q 727 528 , 713 510 
Q 700 492 , 700 457 
L 700 278 
L 732 278 
L 732 450 
Q 732 473 , 736 481 
Q 741 489 , 751 489 
Q 762 489 , 766 481 
Q 771 473 , 771 450 
L 771 278 
L 800 278 
L 800 457 
Q 800 492 , 787 510 
" fill="#D21010" stroke="black" stroke-width="1"/>
<path d="
M 805 552 
Q 805 551 , 821 550 
Q 837 550 , 868 550 
Q 884 550 , 903 550 
L 903 551 
Q 881 551 , 868 551 
Q 837 551 , 837 552 
Q 837 553 , 845 553 
Q 853 554 , 868 554 
Q 881 554 , 905 554 
L 905 554 
Q 886 555 , 868 555 
Q 837 555 , 821 554 
Q 805 554 , 805 552 
" fill="#545FFF" stroke="black" stroke-width="1"/>
<path d="
M 876 549 
L 876 547 
L 843 547 
L 843 546 
L 905 546 
L 905 549 
Q 883 549 , 863 549 
Q 834 549 , 819 548 
Q 805 548 , 805 547 
Q 805 545 , 819 544 
Q 834 544 , 865 544 
Q 878 544 , 898 544 
L 898 545 
Q 878 545 , 865 545 
Q 849 545 , 840 545 
Q 832 546 , 832 547 
Q 832 549 , 863 549 
Q 872 549 , 876 549 
" fill="#F5C000" stroke="black" stroke-width="1"/>
<path d="
M 850 530 
L 860 530 
L 846 537 
L 864 537 
L 850 530 
M 869 540 
L 837 540 
L 828 544 
L 805 544 
L 841 528 
L 869 528 
L 905 544 
L 878 544 
L 869 540 
" fill="#339541" stroke="black" stroke-width="1"/>
<path d="
M 892 510 
Q 880 528 , 856 528 
Q 832 528 , 818 510 
Q 805 492 , 805 457 
L 805 278 
L 837 278 
L 837 450 
Q 837 473 , 841 481 
Q 846 489 , 856 489 
Q 867 489 , 871 481 
Q 876 473 , 876 450 
L 876 278 
L 905 278 
L 905 457 
Q 905 492 , 892 510 
" fill="#D21010" stroke="black" stroke-width="1"/>
<path d="
M 910 552 
Q 910 551 , 926 550 
Q 942 550 , 973 550 
Q 989 550 , 1008 550 
L 1008 551 
Q 986 551 , 973 551 
Q 942 551 , 942 552 
Q 942 553 , 950 553 
Q 958 554 , 973 554 
Q 986 554 , 1010 554 
L 1010 554 
Q 991 555 , 973 555 
Q 942 555 , 926 554 
Q 910 554 , 910 552 
" fill="#545FFF" stroke="black" stroke-width="1"/>
<path d="
M 981 549 
L 981 547 
L 948 547 
L 948 546 
L 1010 546 
L 1010 549 
Q 988 549 , 968 549 
Q 939 549 , 924 548 
Q 910 548 , 910 547 
Q 910 545 , 924 544 
Q 939 544 , 970 544 
Q 983 544 , 1003 544 
L 1003 545 
Q 983 545 , 970 545 
Q 954 545 , 945 545 
Q 937 546 , 937 547 
Q 937 549 , 968 549 
Q 977 549 , 981 549 
" fill="#F5C000" stroke="black" stroke-width="1"/>
<path d="
M 955 530 
L 965 530 
L 951 537 
L 969 537 
L 955 530 
M 974 540 
L 942 540 
L 933 544 
L 910 544 
L 946 528 
L 974 528 
L 1010 544 
L 983 544 
L 974 540 
" fill="#339541" stroke="black" stroke-width="1"/>
<path d="
M 997 510 
Q 985 528 , 961 528 
Q 937 528 , 923 510 
Q 910 492 , 910 457 
L 910 278 
L 942 278 
L 942 450 
Q 942 473 , 946 481 
Q 951 489 , 961 489 
Q 972 489 , 976 481 
Q 981 473 , 981 450 
L 981 278 
L 1010 278 
L 1010 457 
Q 1010 492 , 997 510 
" fill="#D21010" stroke="black" stroke-width="1"/>
<path d="
M 1015 552 
Q 1015 551 , 1031 550 
Q 1047 550 , 1078 550 
Q 1094 550 , 1113 550 
L 1113 551 
Q 1091 551 , 1078 551 
Q 1047 551 , 1047 552 
Q 1047 553 , 1055 553 
Q 1063 554 , 1078 554 
Q 1091 554 , 1115 554 
L 1115 554 
Q 1096 555 , 1078 555 
Q 1047 555 , 1031 554 
Q 1015 554 , 1015 552 
" fill="#545FFF" stroke="black" stroke-width="1"/>
<path d="
M 1086 549 
L 1086 547 
L 1053 547 
L 1053 546 
L 1115 546 
L 1115 549 
Q 1093 549 , 1073 549 
Q 1044 549 , 1029 548 
Q 1015 548 , 1015 547 
Q 1015 545 , 1029 544 
Q 1044 544 , 1075 544 
Q 1088 544 , 1108 544 
L 1108 545 
Q 1088 545 , 1075 545 
Q 1059 545 , 1050 545 
Q 1042 546 , 1042 547 
Q 1042 549 , 1073 549 
Q 1082 549 , 1086 549 
" fill="#F5C000" stroke="black" stroke-width="1"/>
<path d="
M 1060 530 
L 1070 530 
L 1056 537 
L 1074 537 
L 1060 530 
M 1079 540 
L 1047 540 
L 1038 544 
L 1015 544 
L 1051 528 
L 1079 528 
L 1115 544 
L 1088 544 
L 1079 540 
" fill="#339541" stroke="black" stroke-width="1"/>
<path d="
M 1102 510 
Q 1090 528 , 1066 528 
Q 1042 528 , 1028 510 
Q 1015 492 , 1015 457 
L 1015 278 
L 1047 278 
L 1047 450 
Q 1047 473 , 1051 481 
Q 1056 489 , 1066 489 
Q 1077 489 , 1081 481 
Q 1086 473 , 1086 450 
L 1086 278 
L 1115 278 
L 1115 457 
Q 1115 492 , 1102 510 
" fill="#D21010" stroke="black" stroke-width="1"/>
<path d="
M 1120 552 
Q 1120 551 , 1136 550 
Q 1152 550 , 1183 550 
Q 1199 550 , 1218 550 
L 1218 551 
Q 1196 551 , 1183 551 
Q 1152 551 , 1152 552 
Q 1152 553 , 1160 553 
Q 1168 554 , 1183 554 
Q 1196 554 , 1220 554 
L 1220 554 
Q 1201 555 , 1183 555 
Q 1152 555 , 1136 554 
Q 1120 554 , 1120 552 
" fill="#545FFF" stroke="black" stroke-width="1"/>
<path d="
M 1191 549 
L 1191 547 
L 1158 547 
L 1158 546 
L 1220 546 
L 1220 549 
Q 1198 549 , 1178 549 
Q 1149 549 , 1134 548 
Q 1120 548 , 1120 547 
Q 1120 545 , 1134 544 
Q 1149 544 , 1180 544 
Q 1193 544 , 1213 544 
L 1213 545 
Q 1193 545 , 1180 545 
Q 1164 545 , 1155 545 
Q 1147 546 , 1147 547 
Q 1147 549 , 1178 549 
Q 1187 549 , 1191 549 
" fill="#F5C000" stroke="black" stroke-width="1"/>
<path d="
M 1165 530 
L 1175 530 
L 1161 537 
L 1179 537 
L 1165 530 
M 1184 540 
L 1152 540 
L 1143 544 
L 1120 544 
L 1156 528 
L 1184 528 
L 1220 544 
L 1193 544 
L 1184 540 
" fill="#339541" stroke="black" stroke-width="1"/>
<path d="
M 1207 510 
Q 1195 528 , 1171 528 
Q 1147 528 , 1133 510 
Q 1120 492 , 1120 457 
L 1120 278 
L 1152 278 
L 1152 450 
Q 1152 473 , 1156 481 
Q 1161 489 , 1171 489 
Q 1182 489 , 1186 481 
Q 1191 473 , 1191 450 
L 1191 278 
L 1220 278 
L 1220 457 
Q 1220 492 , 1207 510 
" fill="#D21010" stroke="black" stroke-width="1"/>
<path d="
M 1225 552 
Q 1225 551 , 1241 550 
Q 1257 550 , 1288 550 
Q 1304 550 , 1323 550 
L 1323 551 
Q 1301 551 , 1288 551 
Q 1257 551 , 1257 552 
Q 1257 553 , 1265 553 
Q 1273 554 , 1288 554 
Q 1301 554 , 1325 554 
L 1325 554 
Q 1306 555 , 1288 555 
Q 1257 555 , 1241 554 
Q 1225 554 , 1225 552 
" fill="#545FFF" stroke="black" stroke-width="1"/>
<path d="
M 1296 549 
L 1296 547 
L 1263 547 
L 1263 546 
L 1325 546 
L 1325 549 
Q 1303 549 , 1283 549 
Q 1254 549 , 1239 548 
Q 1225 548 , 1225 547 
Q 1225 545 , 1239 544 
Q 1254 544 , 1285 544 
Q 1298 544 , 1318 544 
L 1318 545 
Q 1298 545 , 1285 545 
Q 1269 545 , 1260 545 
Q 1252 546 , 1252 547 
Q 1252 549 , 1283 549 
Q 1292 549 , 1296 549 
" fill="#F5C000" stroke="black" stroke-width="1"/>
<path d="
M 1270 530 
L 1280 530 
L 1266 537 
L 1284 537 
L 1270 530 
M 1289 540 
L 1257 540 
L 1248 544 
L 1225 544 
L 1261 528 
L 1289 528 
L 1325 544 
L 1298 544 
L 1289 540 
" fill="#339541" stroke="black" stroke-width="1"/>
<path d="
M 1312 510 
Q 1300 528 , 1276 528 
Q 1252 528 , 1238 510 
Q 1225 492 , 1225 457 
L 1225 278 
L 1257 278 
L 1257 450 
Q 1257 473 , 1261 481 
Q 1266 489 , 1276 489 
Q 1287 489 , 1291 481 
Q 1296 473 , 1296 450 
L 1296 278 
L 1325 278 
L 1325 457 
Q 1325 492 , 1312 510 
" fill="#D21010" stroke="black" stroke-width="1"/>
<path d="
M 1330 552 
Q 1330 551 , 1346 550 
Q 1362 550 , 1393 550 
Q 1409 550 , 1428 550 
L 1428 551 
Q 1406 551 , 1393 551 
Q 1362 551 , 1362 552 
Q 1362 553 , 1370 553 
Q 1378 554 , 1393 554 
Q 1406 554 , 1430 554 
L 1430 554 
Q 1411 555 , 1393 555 
Q 1362 555 , 1346 554 
Q 1330 554 , 1330 552 
" fill="#545FFF" stroke="black" stroke-width="1"/>
<path d="
M 1401 549 
L 1401 547 
L 1368 547 
L 1368 546 
L 1430 546 
L 1430 549 
Q 1408 549 , 1388 549 
Q 1359 549 , 1344 548 
Q 1330 548 , 1330 547 
Q 1330 545 , 1344 544 
Q 1359 544 , 1390 544 
Q 1403 544 , 1423 544 
L 1423 545 
Q 1403 545 , 1390 545 
Q 1374 545 , 1365 545 
Q 1357 546 , 1357 547 
Q 1357 549 , 1388 549 
Q 1397 549 , 1401 549 
" fill="#F5C000" stroke="black" stroke-width="1"/>
<path d="
M 1375 530 
L 1385 530 
L 1371 537 
L 1389 537 
L 1375 530 
M 1394 540 
L 1362 540 
L 1353 544 
L 1330 544 
L 1366 528 
L 1394 528 
L 1430 544 
L 1403 544 
L 1394 540 
" fill="#339541" stroke="black" stroke-width="1"/>
<path d="
M 1417 510 
Q 1405 528 , 1381 528 
Q 1357 528 , 1343 510 
Q 1330 492 , 1330 457 
L 1330 278 
L 1362 278 
L 1362 450 
Q 1362 473 , 1366 481 
Q 1371 489 , 1381 489 
Q 1392 489 , 1396 481 
Q 1401 473 , 1401 450 
L 1401 278 
L 1430 278 
L 1430 457 
Q 1430 492 , 1417 510 
" fill="#D21010" stroke="black" stroke-width="1"/>
<path d="
M 1435 552 
Q 1435 551 , 1451 550 
Q 1467 550 , 1498 550 
Q 1514 550 , 1533 550 
L 1533 551 
Q 1511 551 , 1498 551 
Q 1467 551 , 1467 552 
Q 1467 553 , 1475 553 
Q 1483 554 , 1498 554 
Q 1511 554 , 1535 554 
L 1535 554 
Q 1516 555 , 1498 555 
Q 1467 555 , 1451 554 
Q 1435 554 , 1435 552 
" fill="#545FFF" stroke="black" stroke-width="1"/>
<path d="
M 1506 549 
L 1506 547 
L 1473 547 
L 1473 546 
L 1535 546 
L 1535 549 
Q 1513 549 , 1493 549 
Q 1464 549 , 1449 548 
Q 1435 548 , 1435 547 
Q 1435 545 , 1449 544 
Q 1464 544 , 1495 544 
Q 1508 544 , 1528 544 
L 1528 545 
Q 1508 545 , 1495 545 
Q 1479 545 , 1470 545 
Q 1462 546 , 1462 547 
Q 1462 549 , 1493 549 
Q 1502 549 , 1506 549 
" fill="#F5C000" stroke="black" stroke-width="1"/>
<path d="
M 1480 530 
L 1490 530 
L 1476 537 
L 1494 537 
L 1480 530 
M 1499 540 
L 1467 540 
L 1458 544 
L 1435 544 
L 1471 528 
L 1499 528 
L 1535 544 
L 1508 544 
L 1499 540 
" fill="#339541" stroke="black" stroke-width="1"/>
<path d="
M 1522 510 
Q 1510 528 , 1486 528 
Q 1462 528 , 1448 510 
Q 1435 492 , 1435 457 
L 1435 278 
L 1467 278 
L 1467 450 
Q 1467 473 , 1471 481 
Q 1476 489 , 1486 489 
Q 1497 489 , 1501 481 
Q 1506 473 , 1506 450 
L 1506 278 
L 1535 278 
L 1535 457 
Q 1535 492 , 1522 510 
" fill="#D21010" stroke="black" stroke-width="1"/>
<path d="
M 1540 553 
Q 1540 552 , 1548 551 
Q 1556 551 , 1572 551 
Q 1580 551 , 1589 551 
L 1589 552 
Q 1578 552 , 1572 552 
Q 1556 552 , 1556 553 
Q 1556 553 , 1560 553 
Q 1564 554 , 1572 554 
Q 1578 554 , 1590 554 
L 1590 554 
Q 1580 554 , 1572 554 
Q 1556 554 , 1548 554 
Q 1540 554 , 1540 553 
" fill="#545FFF" stroke="black" stroke-width="1"/>
<path d="
M 1626 554 
L 1626 553 
L 1609 553 
L 1609 552 
L 1640 552 
L 1640 554 
Q 1629 554 , 1619 554 
Q 1604 554 , 1597 554 
Q 1590 554 , 1590 553 
Q 1590 552 , 1597 551 
Q 1604 551 , 1620 551 
Q 1627 551 , 1637 551 
L 1637 552 
Q 1627 552 , 1620 552 
Q 1612 552 , 1607 552 
Q 1603 552 , 1603 553 
Q 1603 554 , 1619 554 
Q 1623 554 , 1626 554 
" fill="white" stroke="black" stroke-width="1"/>
<path d="
M 1563 547 
L 1567 547 
L 1560 549 
L 1570 549 
L 1563 547 
M 1572 549 
L 1556 549 
L 1551 551 
L 1540 551 
L 1558 546 
L 1572 546 
L 1590 551 
L 1576 551 
L 1572 549 
" fill="#339541" stroke="black" stroke-width="1"/>
<path d="
M 1633 550 
Q 1627 551 , 1615 551 
Q 1603 551 , 1596 550 
Q 1590 550 , 1590 549 
L 1590 546 
L 1606 546 
L 1606 549 
Q 1606 550 , 1608 550 
Q 1611 550 , 1616 550 
Q 1621 550 , 1623 550 
Q 1625 550 , 1625 549 
L 1625 546 
L 1640 546 
L 1640 549 
Q 1640 550 , 1633 550 
" fill="white" stroke="black" stroke-width="1"/>
<path d="
M 1576 544 
L 1576 543 
L 1559 543 
L 1559 542 
L 1590 542 
L 1590 545 
Q 1579 545 , 1569 545 
Q 1554 545 , 1547 544 
Q 1540 544 , 1540 543 
Q 1540 541 , 1547 540 
Q 1554 540 , 1570 540 
Q 1577 540 , 1587 540 
L 1587 541 
Q 1577 541 , 1570 541 
Q 1562 541 , 1557 541 
Q 1553 542 , 1553 543 
Q 1553 544 , 1569 544 
Q 1573 544 , 1576 544 
" fill="#F5C000" stroke="black" stroke-width="1"/>
<path d="
M 1633 544 
Q 1627 545 , 1615 545 
Q 1603 545 , 1596 544 
Q 1590 544 , 1590 544 
L 1590 540 
L 1606 540 
L 1606 544 
Q 1606 544 , 1608 544 
Q 1611 544 , 1616 544 
Q 1621 544 , 1623 544 
Q 1625 544 , 1625 544 
L 1625 540 
L 1640 540 
L 1640 544 
Q 1640 544 , 1633 544 
" fill="white" stroke="black" stroke-width="1"/>
<path d="
M 1576 536 
L 1576 531 
L 1559 531 
L 1559 528 
L 1590 528 
L 1590 538 
Q 1579 539 , 1569 539 
Q 1554 539 , 1547 537 
Q 1540 535 , 1540 530 
Q 1540 526 , 1547 523 
Q 1554 521 , 1570 521 
Q 1577 521 , 1587 522 
L 1587 525 
Q 1577 524 , 1570 524 
Q 1562 524 , 1557 525 
Q 1553 527 , 1553 530 
Q 1553 537 , 1569 537 
Q 1573 537 , 1576 536 
" fill="#F5C000" stroke="black" stroke-width="1"/>
<path d="
M 1590 530 
Q 1590 525 , 1598 523 
Q 1606 521 , 1622 521 
Q 1630 521 , 1639 522 
L 1639 525 
Q 1628 524 , 1622 524 
Q 1606 524 , 1606 530 
Q 1606 534 , 1610 535 
Q 1614 537 , 1622 537 
Q 1628 537 , 1640 535 
L 1640 538 
Q 1630 539 , 1622 539 
Q 1606 539 , 1598 537 
Q 1590 535 , 1590 530 
" fill="white" stroke="black" stroke-width="1"/>
<path d="
M 1583 518 
Q 1577 520 , 1565 520 
Q 1553 520 , 1546 518 
Q 1540 516 , 1540 511 
L 1540 488 
L 1556 488 
L 1556 510 
Q 1556 513 , 1558 514 
Q 1561 515 , 1566 515 
Q 1571 515 , 1573 514 
Q 1575 513 , 1575 510 
L 1575 488 
L 1590 488 
L 1590 511 
Q 1590 516 , 1583 518 
" fill="#D21010" stroke="black" stroke-width="1"/>
<path d="
M 1626 515 
L 1626 505 
L 1609 505 
L 1609 501 
L 1640 501 
L 1640 518 
Q 1629 520 , 1619 520 
Q 1604 520 , 1597 516 
Q 1590 513 , 1590 504 
Q 1590 496 , 1597 492 
Q 1604 488 , 1620 488 
Q 1627 488 , 1637 489 
L 1637 495 
Q 1627 493 , 1620 493 
Q 1612 493 , 1607 495 
Q 1603 498 , 1603 504 
Q 1603 516 , 1619 516 
Q 1623 516 , 1626 515 
" fill="white" stroke="black" stroke-width="1"/>
<path d="
M 1583 483 
Q 1577 487 , 1565 487 
Q 1553 487 , 1546 483 
Q 1540 480 , 1540 472 
L 1540 435 
L 1556 435 
L 1556 471 
Q 1556 476 , 1558 477 
Q 1561 479 , 1566 479 
Q 1571 479 , 1573 477 
Q 1575 476 , 1575 471 
L 1575 435 
L 1590 435 
L 1590 472 
Q 1590 480 , 1583 483 
" fill="#D21010" stroke="black" stroke-width="1"/>
<path d="
M 1613 443 
L 1617 443 
L 1610 465 
L 1620 465 
L 1613 443 
M 1622 473 
L 1606 473 
L 1601 487 
L 1590 487 
L 1608 435 
L 1622 435 
L 1640 487 
L 1626 487 
L 1622 473 
" fill="white" stroke="black" stroke-width="1"/>
<path d="
M 1645 554 
Q 1645 553 , 1661 553 
Q 1677 553 , 1708 553 
Q 1724 553 , 1743 553 
L 1743 553 
Q 1721 553 , 1708 553 
Q 1677 553 , 1677 554 
Q 1677 554 , 1685 554 
Q 1693 554 , 1708 554 
Q 1721 554 , 1745 554 
L 1745 554 
Q 1726 555 , 1708 555 
Q 1677 555 , 1661 554 
Q 1645 554 , 1645 554 
" fill="#545FFF" stroke="black" stroke-width="1"/>
<path d="
M 1690 546 
L 1700 546 
L 1686 549 
L 1704 549 
L 1690 546 
M 1709 550 
L 1677 550 
L 1668 552 
L 1645 552 
L 1681 545 
L 1709 545 
L 1745 552 
L 1718 552 
L 1709 550 
" fill="#339541" stroke="black" stroke-width="1"/>
<path d="
M 1716 536 
L 1716 519 
L 1683 519 
L 1683 511 
L 1745 511 
L 1745 541 
Q 1723 545 , 1703 545 
Q 1674 545 , 1659 538 
Q 1645 531 , 1645 517 
Q 1645 503 , 1659 496 
Q 1674 490 , 1705 490 
Q 1718 490 , 1738 492 
L 1738 501 
Q 1718 498 , 1705 498 
Q 1689 498 , 1680 502 
Q 1672 507 , 1672 517 
Q 1672 536 , 1703 536 
Q 1712 536 , 1716 536 
" fill="#F5C000" stroke="black" stroke-width="1"/>
<path d="
M 1732 485 
Q 1720 490 , 1696 490 
Q 1672 490 , 1658 485 
Q 1645 481 , 1645 472 
L 1645 426 
L 1677 426 
L 1677 470 
Q 1677 476 , 1681 478 
Q 1686 480 , 1696 480 
Q 1707 480 , 1711 478 
Q 1716 476 , 1716 470 
L 1716 426 
L 1745 426 
L 1745 472 
Q 1745 481 , 1732 485 
" fill="#D21010" stroke="black" stroke-width="1"/>
<path d="
M 1750 553 
Q 1750 553 , 1766 552 
Q 1782 552 , 1813 552 
Q 1829 552 , 1848 552 
L 1848 552 
Q 1826 552 , 1813 552 
Q 1782 552 , 1782 553 
Q 1782 554 , 1790 554 
Q 1798 554 , 1813 554 
Q 1826 554 , 1850 554 
L 1850 554 
Q 1831 554 , 1813 554 
Q 1782 554 , 1766 554 
Q 1750 554 , 1750 553 
" fill="#545FFF" stroke="black" stroke-width="1"/>
<path d="
M 1821 550 
L 1821 547 
L 1788 547 
L 1788 545 
L 1850 545 
L 1850 551 
Q 1828 552 , 1808 552 
Q 1779 552 , 1764 550 
Q 1750 549 , 1750 546 
Q 1750 544 , 1764 542 
Q 1779 541 , 1810 541 
Q 1823 541 , 1843 541 
L 1843 543 
Q 1823 543 , 1810 543 
Q 1794 543 , 1785 543 
Q 1777 544 , 1777 546 
Q 1777 550 , 1808 550 
Q 1817 550 , 1821 550 
" fill="#F5C000" stroke="black" stroke-width="1"/>
<path d="
M 1795 512 
L 1805 512 
L 1791 526 
L 1809 526 
L 1795 512 
M 1814 531 
L 1782 531 
L 1773 540 
L 1750 540 
L 1786 507 
L 1814 507 
L 1850 540 
L 1823 540 
L 1814 531 
" fill="#339541" stroke="black" stroke-width="1"/>
<path d="
M 1837 503 
Q 1825 506 , 1801 506 
Q 1777 506 , 1763 503 
Q 1750 501 , 1750 496 
L 1750 471 
L 1782 471 
L 1782 495 
Q 1782 498 , 1786 499 
Q 1791 501 , 1801 501 
Q 1812 501 , 1816 499 
Q 1821 498 , 1821 495 
L 1821 471 
L 1850 471 
L 1850 496 
Q 1850 501 , 1837 503 
" fill="#D21010" stroke="black" stroke-width="1"/>
<path d="
M 1855 553 
Q 1855 553 , 1863 552 
Q 1871 552 , 1887 552 
Q 1895 552 , 1904 552 
L 1904 553 
Q 1893 552 , 1887 552 
Q 1871 552 , 1871 553 
Q 1871 554 , 1875 554 
Q 1879 555 , 1887 555 
Q 1893 555 , 1905 554 
L 1905 555 
Q 1895 555 , 1887 555 
Q 1871 555 , 1863 554 
Q 1855 554 , 1855 553 
" fill="#545FFF" stroke="black" stroke-width="1"/>
<path d="
M 1941 554 
L 1941 554 
L 1924 554 
L 1924 553 
L 1955 553 
L 1955 555 
Q 1944 555 , 1934 555 
Q 1919 555 , 1912 554 
Q 1905 554 , 1905 553 
Q 1905 553 , 1912 552 
Q 1919 552 , 1935 552 
Q 1942 552 , 1952 552 
L 1952 553 
Q 1942 552 , 1935 552 
Q 1927 552 , 1922 552 
Q 1918 553 , 1918 553 
Q 1918 555 , 1934 555 
Q 1938 555 , 1941 554 
" fill="white" stroke="black" stroke-width="1"/>
<path d="
M 1878 545 
L 1882 545 
L 1875 548 
L 1885 548 
L 1878 545 
M 1887 550 
L 1871 550 
L 1866 552 
L 1855 552 
L 1873 544 
L 1887 544 
L 1905 552 
L 1891 552 
L 1887 550 
" fill="#339541" stroke="black" stroke-width="1"/>
<path d="
M 1948 551 
Q 1942 552 , 1930 552 
Q 1918 552 , 1911 551 
Q 1905 551 , 1905 550 
L 1905 544 
L 1921 544 
L 1921 549 
Q 1921 550 , 1923 550 
Q 1926 551 , 1931 551 
Q 1936 551 , 1938 550 
Q 1940 550 , 1940 549 
L 1940 544 
L 1955 544 
L 1955 550 
Q 1955 551 , 1948 551 
" fill="white" stroke="black" stroke-width="1"/>
<path d="
M 1891 542 
L 1891 539 
L 1874 539 
L 1874 538 
L 1905 538 
L 1905 543 
Q 1894 543 , 1884 543 
Q 1869 543 , 1862 542 
Q 1855 541 , 1855 539 
Q 1855 537 , 1862 536 
Q 1869 535 , 1885 535 
Q 1892 535 , 1902 535 
L 1902 537 
Q 1892 536 , 1885 536 
Q 1877 536 , 1872 536 
Q 1868 537 , 1868 539 
Q 1868 542 , 1884 542 
Q 1888 542 , 1891 542 
" fill="#F5C000" stroke="black" stroke-width="1"/>
<path d="
M 1948 542 
Q 1942 543 , 1930 543 
Q 1918 543 , 1911 542 
Q 1905 542 , 1905 541 
L 1905 535 
L 1921 535 
L 1921 541 
Q 1921 541 , 1923 541 
Q 1926 542 , 1931 542 
Q 1936 542 , 1938 541 
Q 1940 541 , 1940 541 
L 1940 535 
L 1955 535 
L 1955 541 
Q 1955 542 , 1948 542 
" fill="white" stroke="black" stroke-width="1"/>
<path d="
M 1898 533 
Q 1892 535 , 1880 535 
Q 1868 535 , 1861 533 
Q 1855 532 , 1855 530 
L 1855 519 
L 1871 519 
L 1871 530 
Q 1871 531 , 1873 531 
Q 1876 532 , 1881 532 
Q 1886 532 , 1888 531 
Q 1890 531 , 1890 530 
L 1890 519 
L 1905 519 
L 1905 530 
Q 1905 532 , 1898 533 
" fill="#D21010" stroke="black" stroke-width="1"/>
<path d="
M 1941 532 
L 1941 527 
L 1924 527 
L 1924 525 
L 1955 525 
L 1955 534 
Q 1944 535 , 1934 535 
Q 1919 535 , 1912 533 
Q 1905 531 , 1905 527 
Q 1905 523 , 1912 521 
Q 1919 519 , 1935 519 
Q 1942 519 , 1952 520 
L 1952 522 
Q 1942 521 , 1935 521 
Q 1927 521 , 1922 522 
Q 1918 524 , 1918 527 
Q 1918 532 , 1934 532 
Q 1938 532 , 1941 532 
" fill="white" stroke="black" stroke-width="1"/>
<path d="
M 1898 517 
Q 1892 519 , 1880 519 
Q 1868 519 , 1861 517 
Q 1855 516 , 1855 514 
L 1855 501 
L 1871 501 
L 1871 513 
Q 1871 515 , 1873 515 
Q 1876 516 , 1881 516 
Q 1886 516 , 1888 515 
Q 1890 515 , 1890 513 
L 1890 501 
L 1905 501 
L 1905 514 
Q 1905 516 , 1898 517 
" fill="#D21010" stroke="black" stroke-width="1"/>
<path d="
M 1928 504 
L 1932 504 
L 1925 511 
L 1935 511 
L 1928 504 
M 1937 514 
L 1921 514 
L 1916 519 
L 1905 519 
L 1923 501 
L 1937 501 
L 1955 519 
L 1941 519 
L 1937 514 
" fill="white" stroke="black" stroke-width="1"/>
<path d="
M 1891 491 
L 1891 475 
L 1874 475 
L 1874 467 
L 1905 467 
L 1905 497 
Q 1894 500 , 1884 500 
Q 1869 500 , 1862 493 
Q 1855 487 , 1855 473 
Q 1855 459 , 1862 452 
Q 1869 446 , 1885 446 
Q 1892 446 , 1902 448 
L 1902 457 
Q 1892 454 , 1885 454 
Q 1877 454 , 1872 458 
Q 1868 463 , 1868 473 
Q 1868 492 , 1884 492 
Q 1888 492 , 1891 491 
" fill="#F5C000" stroke="black" stroke-width="1"/>
<path d="
M 1905 473 
Q 1905 459 , 1913 452 
Q 1921 446 , 1937 446 
Q 1945 446 , 1954 449 
L 1954 458 
Q 1943 454 , 1937 454 
Q 1921 454 , 1921 473 
Q 1921 484 , 1925 488 
Q 1929 492 , 1937 492 
Q 1943 492 , 1955 488 
L 1955 498 
Q 1945 500 , 1937 500 
Q 1921 500 , 1913 493 
Q 1905 487 , 1905 473 
" fill="white" stroke="black" stroke-width="1"/>
<path d="
M 2110 547 
L 2120 547 
L 2106 551 
L 2124 551 
L 2110 547 
M 2129 552 
L 2097 552 
L 2088 555 
L 2065 555 
L 2101 546 
L 2129 546 
L 2165 555 
L 2138 555 
L 2129 552 
" fill="#339541" stroke="black" stroke-width="1"/>
<path d="
M 2065 540 
Q 2065 537 , 2081 536 
Q 2097 535 , 2128 535 
Q 2144 535 , 2163 536 
L 2163 537 
Q 2141 537 , 2128 537 
Q 2097 537 , 2097 540 
Q 2097 542 , 2105 543 
Q 2113 544 , 2128 544 
Q 2141 544 , 2165 543 
L 2165 545 
Q 2146 545 , 2128 545 
Q 2097 545 , 2081 544 
Q 2065 543 , 2065 540 
" fill="#545FFF" stroke="black" stroke-width="1"/>
<path d="
M 2136 532 
L 2136 529 
L 2103 529 
L 2103 527 
L 2165 527 
L 2165 534 
Q 2143 534 , 2123 534 
Q 2094 534 , 2079 532 
Q 2065 531 , 2065 529 
Q 2065 526 , 2079 524 
Q 2094 523 , 2125 523 
Q 2138 523 , 2158 523 
L 2158 525 
Q 2138 525 , 2125 525 
Q 2109 525 , 2100 525 
Q 2092 526 , 2092 529 
Q 2092 532 , 2123 532 
Q 2132 532 , 2136 532 
" fill="#F5C000" stroke="black" stroke-width="1"/>
<path d="
M 2152 520 
Q 2140 523 , 2116 523 
Q 2092 523 , 2078 520 
Q 2065 517 , 2065 510 
L 2065 479 
L 2097 479 
L 2097 509 
Q 2097 513 , 2101 514 
Q 2106 516 , 2116 516 
Q 2127 516 , 2131 514 
Q 2136 513 , 2136 509 
L 2136 479 
L 2165 479 
L 2165 510 
Q 2165 517 , 2152 520 
" fill="#D21010" stroke="black" stroke-width="1"/>
<path d="
M 2215 551 
L 2225 551 
L 2211 553 
L 2229 553 
L 2215 551 
M 2234 553 
L 2202 553 
L 2193 554 
L 2170 554 
L 2206 551 
L 2234 551 
L 2270 554 
L 2243 554 
L 2234 553 
" fill="#339541" stroke="black" stroke-width="1"/>
<path d="
M 2257 550 
Q 2245 551 , 2221 551 
Q 2197 551 , 2183 550 
Q 2170 549 , 2170 548 
L 2170 541 
L 2202 541 
L 2202 548 
Q 2202 548 , 2206 548 
Q 2211 549 , 2221 549 
Q 2232 549 , 2236 548 
Q 2241 548 , 2241 548 
L 2241 541 
L 2270 541 
L 2270 548 
Q 2270 549 , 2257 550 
" fill="#D21010" stroke="black" stroke-width="1"/>
<path d="
M 2241 535 
L 2241 527 
L 2208 527 
L 2208 522 
L 2270 522 
L 2270 538 
Q 2248 540 , 2228 540 
Q 2199 540 , 2184 536 
Q 2170 533 , 2170 525 
Q 2170 518 , 2184 514 
Q 2199 511 , 2230 511 
Q 2243 511 , 2263 512 
L 2263 517 
Q 2243 515 , 2230 515 
Q 2214 515 , 2205 517 
Q 2197 520 , 2197 525 
Q 2197 536 , 2228 536 
Q 2237 536 , 2241 535 
" fill="#F5C000" stroke="black" stroke-width="1"/>
<path d="
M 2170 491 
Q 2170 481 , 2186 476 
Q 2202 472 , 2233 472 
Q 2249 472 , 2268 474 
L 2268 480 
Q 2246 478 , 2233 478 
Q 2202 478 , 2202 491 
Q 2202 499 , 2210 502 
Q 2218 505 , 2233 505 
Q 2246 505 , 2270 502 
L 2270 509 
Q 2251 511 , 2233 511 
Q 2202 511 , 2186 506 
Q 2170 501 , 2170 491 
" fill="#545FFF" stroke="black" stroke-width="1"/>
<path d="
M 2320 549 
L 2330 549 
L 2316 552 
L 2334 552 
L 2320 549 
M 2339 553 
L 2307 553 
L 2298 554 
L 2275 554 
L 2311 548 
L 2339 548 
L 2375 554 
L 2348 554 
L 2339 553 
" fill="#339541" stroke="black" stroke-width="1"/>
<path d="
M 2346 546 
L 2346 543 
L 2313 543 
L 2313 542 
L 2375 542 
L 2375 547 
Q 2353 547 , 2333 547 
Q 2304 547 , 2289 546 
Q 2275 545 , 2275 543 
Q 2275 540 , 2289 539 
Q 2304 538 , 2335 538 
Q 2348 538 , 2368 538 
L 2368 540 
Q 2348 539 , 2335 539 
Q 2319 539 , 2310 540 
Q 2302 541 , 2302 543 
Q 2302 546 , 2333 546 
Q 2342 546 , 2346 546 
" fill="#F5C000" stroke="black" stroke-width="1"/>
<path d="
M 2275 531 
Q 2275 527 , 2291 525 
Q 2307 524 , 2338 524 
Q 2354 524 , 2373 525 
L 2373 527 
Q 2351 526 , 2338 526 
Q 2307 526 , 2307 531 
Q 2307 533 , 2315 534 
Q 2323 535 , 2338 535 
Q 2351 535 , 2375 534 
L 2375 537 
Q 2356 537 , 2338 537 
Q 2307 537 , 2291 535 
Q 2275 534 , 2275 531 
" fill="#545FFF" stroke="black" stroke-width="1"/>
<path d="
M 2362 521 
Q 2350 524 , 2326 524 
Q 2302 524 , 2288 521 
Q 2275 518 , 2275 513 
L 2275 487 
L 2307 487 
L 2307 512 
Q 2307 516 , 2311 517 
Q 2316 518 , 2326 518 
Q 2337 518 , 2341 517 
Q 2346 516 , 2346 512 
L 2346 487 
L 2375 487 
L 2375 513 
Q 2375 518 , 2362 521 
" fill="#D21010" stroke="black" stroke-width="1"/>
<path d="
M 2380 553 
Q 2380 553 , 2388 552 
Q 2396 552 , 2412 552 
Q 2420 552 , 2429 552 
L 2429 553 
Q 2418 552 , 2412 552 
Q 2396 552 , 2396 553 
Q 2396 554 , 2400 554 
Q 2404 555 , 2412 555 
Q 2418 555 , 2430 554 
L 2430 555 
Q 2420 555 , 2412 555 
Q 2396 555 , 2388 554 
Q 2380 554 , 2380 553 
" fill="white" stroke="black" stroke-width="1"/>
<path d="
M 2466 554 
L 2466 554 
L 2449 554 
L 2449 553 
L 2480 553 
L 2480 555 
Q 2469 555 , 2459 555 
Q 2444 555 , 2437 554 
Q 2430 554 , 2430 553 
Q 2430 553 , 2437 552 
Q 2444 552 , 2460 552 
Q 2467 552 , 2477 552 
L 2477 553 
Q 2467 552 , 2460 552 
Q 2452 552 , 2447 552 
Q 2443 553 , 2443 553 
Q 2443 555 , 2459 555 
Q 2463 555 , 2466 554 
" fill="#F5C000" stroke="black" stroke-width="1"/>
<path d="
M 2403 545 
L 2407 545 
L 2400 548 
L 2410 548 
L 2403 545 
M 2412 550 
L 2396 550 
L 2391 552 
L 2380 552 
L 2398 544 
L 2412 544 
L 2430 552 
L 2416 552 
L 2412 550 
" fill="white" stroke="black" stroke-width="1"/>
<path d="
M 2473 551 
Q 2467 552 , 2455 552 
Q 2443 552 , 2436 551 
Q 2430 551 , 2430 550 
L 2430 544 
L 2446 544 
L 2446 549 
Q 2446 550 , 2448 550 
Q 2451 551 , 2456 551 
Q 2461 551 , 2463 550 
Q 2465 550 , 2465 549 
L 2465 544 
L 2480 544 
L 2480 550 
Q 2480 551 , 2473 551 
" fill="#D21010" stroke="black" stroke-width="1"/>
<path d="
M 2416 542 
L 2416 539 
L 2399 539 
L 2399 538 
L 2430 538 
L 2430 543 
Q 2419 543 , 2409 543 
Q 2394 543 , 2387 542 
Q 2380 541 , 2380 539 
Q 2380 537 , 2387 536 
Q 2394 535 , 2410 535 
Q 2417 535 , 2427 535 
L 2427 537 
Q 2417 536 , 2410 536 
Q 2402 536 , 2397 536 
Q 2393 537 , 2393 539 
Q 2393 542 , 2409 542 
Q 2413 542 , 2416 542 
" fill="white" stroke="black" stroke-width="1"/>
<path d="
M 2473 542 
Q 2467 543 , 2455 543 
Q 2443 543 , 2436 542 
Q 2430 542 , 2430 541 
L 2430 535 
L 2446 535 
L 2446 541 
Q 2446 541 , 2448 541 
Q 2451 542 , 2456 542 
Q 2461 542 , 2463 541 
Q 2465 541 , 2465 541 
L 2465 535 
L 2480 535 
L 2480 541 
Q 2480 542 , 2473 542 
" fill="#D21010" stroke="black" stroke-width="1"/>
<path d="
M 2423 533 
Q 2417 535 , 2405 535 
Q 2393 535 , 2386 533 
Q 2380 532 , 2380 530 
L 2380 519 
L 2396 519 
L 2396 530 
Q 2396 531 , 2398 531 
Q 2401 532 , 2406 532 
Q 2411 532 , 2413 531 
Q 2415 531 , 2415 530 
L 2415 519 
L 2430 519 
L 2430 530 
Q 2430 532 , 2423 533 
" fill="white" stroke="black" stroke-width="1"/>
<path d="
M 2466 532 
L 2466 527 
L 2449 527 
L 2449 525 
L 2480 525 
L 2480 534 
Q 2469 535 , 2459 535 
Q 2444 535 , 2437 533 
Q 2430 531 , 2430 527 
Q 2430 523 , 2437 521 
Q 2444 519 , 2460 519 
Q 2467 519 , 2477 520 
L 2477 522 
Q 2467 521 , 2460 521 
Q 2452 521 , 2447 522 
Q 2443 524 , 2443 527 
Q 2443 532 , 2459 532 
Q 2463 532 , 2466 532 
" fill="#F5C000" stroke="black" stroke-width="1"/>
<path d="
M 2423 517 
Q 2417 519 , 2405 519 
Q 2393 519 , 2386 517 
Q 2380 516 , 2380 514 
L 2380 501 
L 2396 501 
L 2396 513 
Q 2396 515 , 2398 515 
Q 2401 516 , 2406 516 
Q 2411 516 , 2413 515 
Q 2415 515 , 2415 513 
L 2415 501 
L 2430 501 
L 2430 514 
Q 2430 516 , 2423 517 
" fill="white" stroke="black" stroke-width="1"/>
<path d="
M 2453 504 
L 2457 504 
L 2450 511 
L 2460 511 
L 2453 504 
M 2462 514 
L 2446 514 
L 2441 519 
L 2430 519 
L 2448 501 
L 2462 501 
L 2480 519 
L 2466 519 
L 2462 514 
" fill="#339541" stroke="black" stroke-width="1"/>
<path d="
M 2416 491 
L 2416 475 
L 2399 475 
L 2399 467 
L 2430 467 
L 2430 497 
Q 2419 500 , 2409 500 
Q 2394 500 , 2387 493 
Q 2380 487 , 2380 473 
Q 2380 459 , 2387 452 
Q 2394 446 , 2410 446 
Q 2417 446 , 2427 448 
L 2427 457 
Q 2417 454 , 2410 454 
Q 2402 454 , 2397 458 
Q 2393 463 , 2393 473 
Q 2393 492 , 2409 492 
Q 2413 492 , 2416 491 
" fill="white" stroke="black" stroke-width="1"/>
<path d="
M 2430 473 
Q 2430 459 , 2438 452 
Q 2446 446 , 2462 446 
Q 2470 446 , 2479 449 
L 2479 458 
Q 2468 454 , 2462 454 
Q 2446 454 , 2446 473 
Q 2446 484 , 2450 488 
Q 2454 492 , 2462 492 
Q 2468 492 , 2480 488 
L 2480 498 
Q 2470 500 , 2462 500 
Q 2446 500 , 2438 493 
Q 2430 487 , 2430 473 
" fill="#545FFF" stroke="black" stroke-width="1"/>
<path d="
M 2485 553 
Q 2485 552 , 2493 551 
Q 2501 551 , 2517 551 
Q 2525 551 , 2534 551 
L 2534 552 
Q 2523 552 , 2517 552 
Q 2501 552 , 2501 553 
Q 2501 553 , 2505 553 
Q 2509 554 , 2517 554 
Q 2523 554 , 2535 554 
L 2535 554 
Q 2525 554 , 2517 554 
Q 2501 554 , 2493 554 
Q 2485 554 , 2485 553 
" fill="white" stroke="black" stroke-width="1"/>
<path d="
M 2571 554 
L 2571 553 
L 2554 553 
L 2554 552 
L 2585 552 
L 2585 554 
Q 2574 554 , 2564 554 
Q 2549 554 , 2542 554 
Q 2535 554 , 2535 553 
Q 2535 552 , 2542 551 
Q 2549 551 , 2565 551 
Q 2572 551 , 2582 551 
L 2582 552 
Q 2572 552 , 2565 552 
Q 2557 552 , 2552 552 
Q 2548 552 , 2548 553 
Q 2548 554 , 2564 554 
Q 2568 554 , 2571 554 
" fill="#F5C000" stroke="black" stroke-width="1"/>
<path d="
M 2508 547 
L 2512 547 
L 2505 549 
L 2515 549 
L 2508 547 
M 2517 549 
L 2501 549 
L 2496 551 
L 2485 551 
L 2503 546 
L 2517 546 
L 2535 551 
L 2521 551 
L 2517 549 
" fill="white" stroke="black" stroke-width="1"/>
<path d="
M 2578 550 
Q 2572 551 , 2560 551 
Q 2548 551 , 2541 550 
Q 2535 550 , 2535 549 
L 2535 546 
L 2551 546 
L 2551 549 
Q 2551 550 , 2553 550 
Q 2556 550 , 2561 550 
Q 2566 550 , 2568 550 
Q 2570 550 , 2570 549 
L 2570 546 
L 2585 546 
L 2585 549 
Q 2585 550 , 2578 550 
" fill="#D21010" stroke="black" stroke-width="1"/>
<path d="
M 2521 544 
L 2521 543 
L 2504 543 
L 2504 542 
L 2535 542 
L 2535 545 
Q 2524 545 , 2514 545 
Q 2499 545 , 2492 544 
Q 2485 544 , 2485 543 
Q 2485 541 , 2492 540 
Q 2499 540 , 2515 540 
Q 2522 540 , 2532 540 
L 2532 541 
Q 2522 541 , 2515 541 
Q 2507 541 , 2502 541 
Q 2498 542 , 2498 543 
Q 2498 544 , 2514 544 
Q 2518 544 , 2521 544 
" fill="white" stroke="black" stroke-width="1"/>
<path d="
M 2578 544 
Q 2572 545 , 2560 545 
Q 2548 545 , 2541 544 
Q 2535 544 , 2535 544 
L 2535 540 
L 2551 540 
L 2551 544 
Q 2551 544 , 2553 544 
Q 2556 544 , 2561 544 
Q 2566 544 , 2568 544 
Q 2570 544 , 2570 544 
L 2570 540 
L 2585 540 
L 2585 544 
Q 2585 544 , 2578 544 
" fill="#D21010" stroke="black" stroke-width="1"/>
<path d="
M 2521 536 
L 2521 531 
L 2504 531 
L 2504 528 
L 2535 528 
L 2535 538 
Q 2524 539 , 2514 539 
Q 2499 539 , 2492 537 
Q 2485 535 , 2485 530 
Q 2485 526 , 2492 523 
Q 2499 521 , 2515 521 
Q 2522 521 , 2532 522 
L 2532 525 
Q 2522 524 , 2515 524 
Q 2507 524 , 2502 525 
Q 2498 527 , 2498 530 
Q 2498 537 , 2514 537 
Q 2518 537 , 2521 536 
" fill="white" stroke="black" stroke-width="1"/>
<path d="
M 2535 530 
Q 2535 525 , 2543 523 
Q 2551 521 , 2567 521 
Q 2575 521 , 2584 522 
L 2584 525 
Q 2573 524 , 2567 524 
Q 2551 524 , 2551 530 
Q 2551 534 , 2555 535 
Q 2559 537 , 2567 537 
Q 2573 537 , 2585 535 
L 2585 538 
Q 2575 539 , 2567 539 
Q 2551 539 , 2543 537 
Q 2535 535 , 2535 530 
" fill="#545FFF" stroke="black" stroke-width="1"/>
<path d="
M 2528 518 
Q 2522 520 , 2510 520 
Q 2498 520 , 2491 518 
Q 2485 516 , 2485 511 
L 2485 488 
L 2501 488 
L 2501 510 
Q 2501 513 , 2503 514 
Q 2506 515 , 2511 515 
Q 2516 515 , 2518 514 
Q 2520 513 , 2520 510 
L 2520 488 
L 2535 488 
L 2535 511 
Q 2535 516 , 2528 518 
" fill="white" stroke="black" stroke-width="1"/>
<path d="
M 2571 515 
L 2571 505 
L 2554 505 
L 2554 501 
L 2585 501 
L 2585 518 
Q 2574 520 , 2564 520 
Q 2549 520 , 2542 516 
Q 2535 513 , 2535 504 
Q 2535 496 , 2542 492 
Q 2549 488 , 2565 488 
Q 2572 488 , 2582 489 
L 2582 495 
Q 2572 493 , 2565 493 
Q 2557 493 , 2552 495 
Q 2548 498 , 2548 504 
Q 2548 516 , 2564 516 
Q 2568 516 , 2571 515 
" fill="#F5C000" stroke="black" stroke-width="1"/>
<path d="
M 2528 483 
Q 2522 487 , 2510 487 
Q 2498 487 , 2491 483 
Q 2485 480 , 2485 472 
L 2485 435 
L 2501 435 
L 2501 471 
Q 2501 476 , 2503 477 
Q 2506 479 , 2511 479 
Q 2516 479 , 2518 477 
Q 2520 476 , 2520 471 
L 2520 435 
L 2535 435 
L 2535 472 
Q 2535 480 , 2528 483 
" fill="white" stroke="black" stroke-width="1"/>
<path d="
M 2558 443 
L 2562 443 
L 2555 465 
L 2565 465 
L 2558 443 
M 2567 473 
L 2551 473 
L 2546 487 
L 2535 487 
L 2553 435 
L 2567 435 
L 2585 487 
L 2571 487 
L 2567 473 
" fill="#339541" stroke="black" stroke-width="1"/>
<path d="M 65 168 L 65 555 " stroke="black" stroke-width="1.5"/>
<path d="M 55 555 L 65 555 " stroke="black" stroke-width="4"/>
<text text-anchor="end" x="50" y="555" font-size="50" alignment-baseline="middle">0</text>
<path d="M 55 362 L 65 362 " stroke="black" stroke-width="4"/>
<text text-anchor="end" x="50" y="362" font-size="50" alignment-baseline="middle">1</text>
<path d="M 55 168 L 65 168 " stroke="black" stroke-width="4"/>
<text text-anchor="end" x="50" y="168" font-size="50" alignment-baseline="middle">2</text>
<text text-anchor="middle" x="1327" y="50" font-size="50" alignment-baseline="baseline"></text>
G<path d="
M 1597 605 
Q 1550 597 , 1550 585 
Q 1550 573 , 1597 565 
L 1630 565 
Q 1577 574 , 1577 585 
Q 1577 596 , 1630 605 
L 1597 605 
" fill="black" stroke="black" stroke-width="1"/>
<path d="
M 1912 605 
Q 1865 597 , 1865 585 
Q 1865 573 , 1912 565 
L 1945 565 
Q 1892 574 , 1892 585 
Q 1892 596 , 1945 605 
L 1912 605 
" fill="black" stroke="black" stroke-width="1"/>
<path d="
M 2000 565 
L 2020 565 
L 2020 578 
L 2044 574 
L 2050 584 
L 2026 588 
L 2042 599 
L 2026 605 
L 2010 594 
L 1996 605 
L 1980 599 
L 1996 588 
L 1970 584 
L 1976 574 
L 2002 578 
L 2000 565 
" fill="black" stroke="black" stroke-width="1"/>
<path d="
M 2423 565 
Q 2470 573 , 2470 585 
Q 2470 597 , 2423 605 
L 2390 605 
Q 2442 596 , 2442 585 
Q 2442 574 , 2390 565 
L 2423 565 
" fill="black" stroke="black" stroke-width="1"/>
<path d="
M 2528 565 
Q 2575 573 , 2575 585 
Q 2575 597 , 2528 605 
L 2495 605 
Q 2547 596 , 2547 585 
Q 2547 574 , 2495 565 
L 2528 565 
" fill="black" stroke="black" stroke-width="1"/>
</svg>
