<svg xmlns="http://www.w3.org/2000/svg"
viewBox="0 0 1435 635">
<path d="
M 120 553 
L 102 554 
L 136 554 
L 120 553 
M 113 553 
L 127 553 
L 170 555 
L 154 555 
L 142 554 
L 98 554 
L 85 555 
L 70 555 
L 113 553 
" fill="#339541" />
<path d="
M 154 552 
L 154 552 
L 125 552 
L 125 551 
L 170 551 
L 170 552 
Q 159 553 , 148 553 
Q 139 553 , 127 553 
Q 101 553 , 85 552 
Q 70 552 , 70 551 
Q 70 551 , 85 550 
Q 101 550 , 127 550 
Q 138 550 , 147 550 
Q 157 550 , 167 550 
L 167 551 
Q 154 550 , 146 550 
Q 137 550 , 128 550 
Q 107 550 , 96 551 
Q 86 551 , 86 551 
Q 86 552 , 96 552 
Q 107 552 , 128 552 
Q 137 552 , 144 552 
Q 151 552 , 154 552 
" fill="#F5C000" />
<path d="
M 170 547 
L 170 548 
Q 155 547 , 147 547 
Q 139 547 , 129 547 
Q 108 547 , 98 548 
Q 86 548 , 86 548 
Q 86 549 , 98 549 
Q 108 549 , 129 549 
Q 139 549 , 147 549 
Q 155 549 , 170 549 
L 170 549 
Q 159 550 , 149 550 
Q 139 550 , 128 550 
Q 101 550 , 86 549 
Q 70 549 , 70 548 
Q 70 548 , 86 547 
Q 101 547 , 128 547 
Q 139 547 , 149 547 
Q 160 547 , 170 547 
" fill="#545FFF" />
<path d="
M 70 543 
L 88 543 
L 88 545 
Q 88 546 , 96 546 
Q 103 546 , 120 546 
Q 137 546 , 145 546 
Q 152 546 , 152 545 
L 152 543 
L 170 543 
L 170 545 
Q 170 546 , 157 546 
Q 145 547 , 120 547 
Q 96 547 , 83 546 
Q 70 546 , 70 545 
L 70 543 
" fill="#D21010" />
<path d="
M 275 553 
L 275 553 
Q 260 553 , 252 553 
Q 244 553 , 234 553 
Q 213 553 , 203 553 
Q 191 554 , 191 554 
Q 191 554 , 203 554 
Q 213 555 , 234 555 
Q 244 555 , 252 555 
Q 260 555 , 275 554 
L 275 555 
Q 264 555 , 254 555 
Q 244 555 , 233 555 
Q 206 555 , 191 555 
Q 175 554 , 175 554 
Q 175 554 , 191 553 
Q 206 553 , 233 553 
Q 244 553 , 254 553 
Q 265 553 , 275 553 
" fill="#545FFF" />
<path d="
M 259 552 
L 259 551 
L 230 551 
L 230 551 
L 275 551 
L 275 552 
Q 264 552 , 253 552 
Q 244 552 , 232 552 
Q 206 552 , 190 552 
Q 175 551 , 175 551 
Q 175 550 , 190 549 
Q 206 549 , 232 549 
Q 243 549 , 252 549 
Q 262 549 , 272 549 
L 272 550 
Q 259 550 , 251 549 
Q 242 549 , 233 549 
Q 212 549 , 201 550 
Q 191 550 , 191 551 
Q 191 551 , 201 552 
Q 212 552 , 233 552 
Q 242 552 , 249 552 
Q 256 552 , 259 552 
" fill="#F5C000" />
<path d="
M 225 545 
L 207 547 
L 241 547 
L 225 545 
M 218 544 
L 232 544 
L 275 549 
L 259 549 
L 247 547 
L 203 547 
L 190 549 
L 175 549 
L 218 544 
" fill="#339541" />
<path d="
M 175 99 
L 193 99 
L 193 361 
Q 193 434 , 201 465 
Q 208 494 , 225 494 
Q 242 494 , 250 465 
Q 257 434 , 257 361 
L 257 99 
L 275 99 
L 275 368 
Q 275 453 , 262 498 
Q 250 543 , 225 543 
Q 201 543 , 188 498 
Q 175 453 , 175 368 
L 175 99 
" fill="#D21010" />
<path d="
M 380 551 
L 380 552 
Q 365 551 , 357 551 
Q 349 551 , 339 551 
Q 318 551 , 308 552 
Q 296 552 , 296 552 
Q 296 553 , 308 553 
Q 318 554 , 339 554 
Q 349 554 , 357 554 
Q 365 554 , 380 553 
L 380 554 
Q 369 554 , 359 554 
Q 349 554 , 338 554 
Q 311 554 , 296 554 
Q 280 553 , 280 553 
Q 280 552 , 296 551 
Q 311 551 , 338 551 
Q 349 551 , 359 551 
Q 370 551 , 380 551 
" fill="#545FFF" />
<path d="
M 364 550 
L 364 548 
L 335 548 
L 335 547 
L 380 547 
L 380 550 
Q 369 551 , 358 551 
Q 349 551 , 337 551 
Q 311 551 , 295 550 
Q 280 549 , 280 547 
Q 280 546 , 295 545 
Q 311 544 , 337 544 
Q 348 544 , 357 544 
Q 367 544 , 377 545 
L 377 545 
Q 364 545 , 356 545 
Q 347 545 , 338 545 
Q 317 545 , 306 545 
Q 296 546 , 296 547 
Q 296 549 , 306 549 
Q 317 550 , 338 550 
Q 347 550 , 354 550 
Q 361 550 , 364 550 
" fill="#F5C000" />
<path d="
M 330 538 
L 312 541 
L 346 541 
L 330 538 
M 323 537 
L 337 537 
L 380 544 
L 364 544 
L 352 542 
L 308 542 
L 295 544 
L 280 544 
L 323 537 
" fill="#339541" />
<path d="
M 280 128 
L 298 128 
L 298 369 
Q 298 436 , 306 464 
Q 313 490 , 330 490 
Q 347 490 , 355 464 
Q 362 436 , 362 369 
L 362 128 
L 380 128 
L 380 375 
Q 380 454 , 367 495 
Q 355 536 , 330 536 
Q 306 536 , 293 495 
Q 280 454 , 280 375 
L 280 128 
" fill="#D21010" />
<path d="
M 485 553 
L 485 553 
Q 470 553 , 462 553 
Q 454 553 , 444 553 
Q 423 553 , 413 553 
Q 401 553 , 401 553 
Q 401 554 , 413 554 
Q 423 554 , 444 554 
Q 454 554 , 462 554 
Q 470 554 , 485 554 
L 485 554 
Q 474 554 , 464 554 
Q 454 554 , 443 554 
Q 416 554 , 401 554 
Q 385 554 , 385 554 
Q 385 553 , 401 553 
Q 416 553 , 443 553 
Q 454 553 , 464 553 
Q 475 553 , 485 553 
" fill="#545FFF" />
<path d="
M 435 550 
L 417 551 
L 451 551 
L 435 550 
M 428 550 
L 442 550 
L 485 552 
L 469 552 
L 457 552 
L 413 552 
L 400 552 
L 385 552 
L 428 550 
" fill="#339541" />
<path d="
M 469 549 
L 469 547 
L 440 547 
L 440 546 
L 485 546 
L 485 549 
Q 474 550 , 463 550 
Q 454 550 , 442 550 
Q 416 550 , 400 549 
Q 385 548 , 385 546 
Q 385 545 , 400 544 
Q 416 543 , 442 543 
Q 453 543 , 462 543 
Q 472 543 , 482 544 
L 482 544 
Q 469 544 , 461 544 
Q 452 544 , 443 544 
Q 422 544 , 411 544 
Q 401 545 , 401 546 
Q 401 548 , 411 548 
Q 422 549 , 443 549 
Q 452 549 , 459 549 
Q 466 549 , 469 549 
" fill="#F5C000" />
<path d="
M 385 100 
L 403 100 
L 403 361 
Q 403 434 , 411 464 
Q 418 493 , 435 493 
Q 452 493 , 460 464 
Q 467 434 , 467 361 
L 467 100 
L 485 100 
L 485 368 
Q 485 453 , 472 497 
Q 460 543 , 435 543 
Q 411 543 , 398 497 
Q 385 453 , 385 368 
L 385 100 
" fill="#D21010" />
<path d="
M 540 553 
L 522 554 
L 556 554 
L 540 553 
M 533 553 
L 547 553 
L 590 555 
L 574 555 
L 562 554 
L 518 554 
L 505 555 
L 490 555 
L 533 553 
" fill="#339541" />
<path d="
M 590 550 
L 590 551 
Q 575 550 , 567 550 
Q 559 550 , 549 550 
Q 528 550 , 518 551 
Q 506 551 , 506 551 
Q 506 552 , 518 552 
Q 528 553 , 549 553 
Q 559 553 , 567 552 
Q 575 552 , 590 552 
L 590 553 
Q 579 553 , 569 553 
Q 559 553 , 548 553 
Q 521 553 , 506 552 
Q 490 552 , 490 551 
Q 490 551 , 506 550 
Q 521 550 , 548 550 
Q 559 550 , 569 550 
Q 580 550 , 590 550 
" fill="#545FFF" />
<path d="
M 574 548 
L 574 546 
L 545 546 
L 545 545 
L 590 545 
L 590 549 
Q 579 549 , 568 549 
Q 559 549 , 547 549 
Q 521 549 , 505 548 
Q 490 547 , 490 545 
Q 490 543 , 505 542 
Q 521 541 , 547 541 
Q 558 541 , 567 541 
Q 577 541 , 587 542 
L 587 543 
Q 574 542 , 566 542 
Q 557 542 , 548 542 
Q 527 542 , 516 543 
Q 506 544 , 506 545 
Q 506 547 , 516 547 
Q 527 548 , 548 548 
Q 557 548 , 564 548 
Q 571 548 , 574 548 
" fill="#F5C000" />
<path d="
M 490 109 
L 508 109 
L 508 364 
Q 508 435 , 516 464 
Q 523 492 , 540 492 
Q 557 492 , 565 464 
Q 572 435 , 572 364 
L 572 109 
L 590 109 
L 590 371 
Q 590 453 , 577 497 
Q 565 541 , 540 541 
Q 516 541 , 503 497 
Q 490 453 , 490 371 
L 490 109 
" fill="#D21010" />
<path d="
M 695 553 
L 695 553 
Q 680 553 , 672 553 
Q 664 553 , 654 553 
Q 633 553 , 623 553 
Q 611 553 , 611 553 
Q 611 554 , 623 554 
Q 633 554 , 654 554 
Q 664 554 , 672 554 
Q 680 554 , 695 554 
L 695 554 
Q 684 554 , 674 554 
Q 664 554 , 653 554 
Q 626 554 , 611 554 
Q 595 554 , 595 554 
Q 595 553 , 611 553 
Q 626 553 , 653 553 
Q 664 553 , 674 553 
Q 685 553 , 695 553 
" fill="#545FFF" />
<path d="
M 645 551 
L 627 552 
L 661 552 
L 645 551 
M 638 551 
L 652 551 
L 695 553 
L 679 553 
L 667 552 
L 623 552 
L 610 553 
L 595 553 
L 638 551 
" fill="#339541" />
<path d="
M 679 546 
L 679 538 
L 650 538 
L 650 535 
L 695 535 
L 695 548 
Q 684 549 , 673 550 
Q 664 550 , 652 550 
Q 626 550 , 610 547 
Q 595 543 , 595 536 
Q 595 529 , 610 525 
Q 626 521 , 652 521 
Q 663 521 , 672 522 
Q 682 522 , 692 523 
L 692 527 
Q 679 525 , 671 525 
Q 662 525 , 653 525 
Q 632 525 , 621 527 
Q 611 530 , 611 536 
Q 611 542 , 621 544 
Q 632 547 , 653 547 
Q 662 547 , 669 547 
Q 676 547 , 679 546 
" fill="#F5C000" />
<path d="
M 595 169 
L 613 169 
L 613 376 
Q 613 434 , 621 458 
Q 628 481 , 645 481 
Q 662 481 , 670 458 
Q 677 434 , 677 376 
L 677 169 
L 695 169 
L 695 382 
Q 695 449 , 682 484 
Q 670 520 , 645 520 
Q 621 520 , 608 484 
Q 595 449 , 595 382 
L 595 169 
" fill="#D21010" />
<path d="
M 750 553 
L 732 554 
L 766 554 
L 750 553 
M 743 553 
L 757 553 
L 800 555 
L 784 555 
L 772 554 
L 728 554 
L 715 555 
L 700 555 
L 743 553 
" fill="#339541" />
<path d="
M 784 552 
L 784 552 
L 755 552 
L 755 551 
L 800 551 
L 800 552 
Q 789 553 , 778 553 
Q 769 553 , 757 553 
Q 731 553 , 715 552 
Q 700 552 , 700 551 
Q 700 551 , 715 550 
Q 731 550 , 757 550 
Q 768 550 , 777 550 
Q 787 550 , 797 550 
L 797 551 
Q 784 550 , 776 550 
Q 767 550 , 758 550 
Q 737 550 , 726 551 
Q 716 551 , 716 551 
Q 716 552 , 726 552 
Q 737 552 , 758 552 
Q 767 552 , 774 552 
Q 781 552 , 784 552 
" fill="#F5C000" />
<path d="
M 800 547 
L 800 548 
Q 785 547 , 777 547 
Q 769 547 , 759 547 
Q 738 547 , 728 548 
Q 716 548 , 716 548 
Q 716 549 , 728 549 
Q 738 549 , 759 549 
Q 769 549 , 777 549 
Q 785 549 , 800 549 
L 800 549 
Q 789 550 , 779 550 
Q 769 550 , 758 550 
Q 731 550 , 716 549 
Q 700 549 , 700 548 
Q 700 548 , 716 547 
Q 731 547 , 758 547 
Q 769 547 , 779 547 
Q 790 547 , 800 547 
" fill="#545FFF" />
<path d="
M 700 543 
L 718 543 
L 718 545 
Q 718 546 , 726 546 
Q 733 546 , 750 546 
Q 767 546 , 775 546 
Q 782 546 , 782 545 
L 782 543 
L 800 543 
L 800 545 
Q 800 546 , 787 546 
Q 775 547 , 750 547 
Q 726 547 , 713 546 
Q 700 546 , 700 545 
L 700 543 
" fill="#D21010" />
<path d="
M 855 552 
L 837 554 
L 871 554 
L 855 552 
M 848 552 
L 862 552 
L 905 555 
L 889 555 
L 877 554 
L 833 554 
L 820 555 
L 805 555 
L 848 552 
" fill="#339541" />
<path d="
M 805 547 
L 823 547 
L 823 549 
Q 823 550 , 831 550 
Q 838 551 , 855 551 
Q 872 551 , 880 550 
Q 887 550 , 887 549 
L 887 547 
L 905 547 
L 905 550 
Q 905 550 , 892 551 
Q 880 551 , 855 551 
Q 831 551 , 818 551 
Q 805 550 , 805 550 
L 805 547 
" fill="#D21010" />
<path d="
M 889 540 
L 889 527 
L 860 527 
L 860 522 
L 905 522 
L 905 543 
Q 894 545 , 883 546 
Q 874 547 , 862 547 
Q 836 547 , 820 540 
Q 805 534 , 805 523 
Q 805 512 , 820 505 
Q 836 499 , 862 499 
Q 873 499 , 882 500 
Q 892 501 , 902 503 
L 902 509 
Q 889 506 , 881 505 
Q 872 505 , 863 505 
Q 842 505 , 831 509 
Q 821 514 , 821 523 
Q 821 532 , 831 537 
Q 842 541 , 863 541 
Q 872 541 , 879 541 
Q 886 540 , 889 540 
" fill="#F5C000" />
<path d="
M 905 280 
L 905 318 
Q 890 293 , 882 287 
Q 874 281 , 864 281 
Q 843 281 , 833 305 
Q 821 329 , 821 376 
Q 821 424 , 833 448 
Q 843 472 , 864 472 
Q 874 472 , 882 466 
Q 890 459 , 905 435 
L 905 474 
Q 894 488 , 884 493 
Q 874 499 , 863 499 
Q 836 499 , 821 466 
Q 805 433 , 805 377 
Q 805 320 , 821 287 
Q 836 254 , 863 254 
Q 874 254 , 884 260 
Q 895 266 , 905 280 
" fill="#545FFF" />
<path d="
M 1010 552 
L 1010 553 
Q 995 552 , 987 552 
Q 979 552 , 969 552 
Q 948 552 , 938 553 
Q 926 553 , 926 553 
Q 926 554 , 938 554 
Q 948 554 , 969 554 
Q 979 554 , 987 554 
Q 995 554 , 1010 554 
L 1010 555 
Q 999 555 , 989 555 
Q 979 555 , 968 555 
Q 941 555 , 926 554 
Q 910 554 , 910 553 
Q 910 553 , 926 552 
Q 941 552 , 968 552 
Q 979 552 , 989 552 
Q 1000 552 , 1010 552 
" fill="#545FFF" />
<path d="
M 994 550 
L 994 547 
L 965 547 
L 965 546 
L 1010 546 
L 1010 551 
Q 999 552 , 988 552 
Q 979 552 , 967 552 
Q 941 552 , 925 550 
Q 910 549 , 910 546 
Q 910 543 , 925 542 
Q 941 540 , 967 540 
Q 978 540 , 987 540 
Q 997 540 , 1007 541 
L 1007 542 
Q 994 542 , 986 542 
Q 977 541 , 968 541 
Q 947 541 , 936 543 
Q 926 544 , 926 546 
Q 926 548 , 936 549 
Q 947 551 , 968 551 
Q 977 551 , 984 550 
Q 991 550 , 994 550 
" fill="#F5C000" />
<path d="
M 910 487 
L 928 487 
L 928 518 
Q 928 526 , 936 530 
Q 943 533 , 960 533 
Q 977 533 , 985 530 
Q 992 526 , 992 518 
L 992 487 
L 1010 487 
L 1010 519 
Q 1010 529 , 997 534 
Q 985 539 , 960 539 
Q 936 539 , 923 534 
Q 910 529 , 910 519 
L 910 487 
" fill="#D21010" />
<path d="
M 960 415 
L 942 451 
L 976 451 
L 960 415 
M 953 399 
L 967 399 
L 1010 486 
L 994 486 
L 982 461 
L 938 461 
L 925 486 
L 910 486 
L 953 399 
" fill="#339541" />
<path d="
M 1015 553 
L 1033 553 
L 1033 554 
Q 1033 554 , 1041 554 
Q 1048 554 , 1065 554 
Q 1082 554 , 1090 554 
Q 1097 554 , 1097 554 
L 1097 553 
L 1115 553 
L 1115 554 
Q 1115 554 , 1102 554 
Q 1090 555 , 1065 555 
Q 1041 555 , 1028 554 
Q 1015 554 , 1015 554 
L 1015 553 
" fill="#D21010" />
<path d="
M 1065 550 
L 1047 551 
L 1081 551 
L 1065 550 
M 1058 549 
L 1072 549 
L 1115 552 
L 1099 552 
L 1087 551 
L 1043 551 
L 1030 552 
L 1015 552 
L 1058 549 
" fill="#339541" />
<path d="
M 1099 537 
L 1099 515 
L 1070 515 
L 1070 506 
L 1115 506 
L 1115 543 
Q 1104 546 , 1093 547 
Q 1084 549 , 1072 549 
Q 1046 549 , 1030 538 
Q 1015 527 , 1015 508 
Q 1015 489 , 1030 478 
Q 1046 467 , 1072 467 
Q 1083 467 , 1092 468 
Q 1102 470 , 1112 474 
L 1112 484 
Q 1099 479 , 1091 478 
Q 1082 477 , 1073 477 
Q 1052 477 , 1041 484 
Q 1031 492 , 1031 508 
Q 1031 524 , 1041 532 
Q 1052 540 , 1073 540 
Q 1082 540 , 1089 539 
Q 1096 538 , 1099 537 
" fill="#F5C000" />
<path d="
M 1115 343 
L 1115 364 
Q 1100 350 , 1092 347 
Q 1084 343 , 1074 343 
Q 1053 343 , 1043 357 
Q 1031 371 , 1031 397 
Q 1031 424 , 1043 438 
Q 1053 452 , 1074 452 
Q 1084 452 , 1092 448 
Q 1100 444 , 1115 431 
L 1115 453 
Q 1104 460 , 1094 463 
Q 1084 467 , 1073 467 
Q 1046 467 , 1031 448 
Q 1015 429 , 1015 397 
Q 1015 366 , 1031 347 
Q 1046 328 , 1073 328 
Q 1084 328 , 1094 331 
Q 1105 335 , 1115 343 
" fill="#545FFF" />
<path d="
M 1220 551 
L 1220 552 
Q 1205 552 , 1197 551 
Q 1189 551 , 1179 551 
Q 1158 551 , 1148 552 
Q 1136 552 , 1136 552 
Q 1136 553 , 1148 554 
Q 1158 554 , 1179 554 
Q 1189 554 , 1197 554 
Q 1205 554 , 1220 553 
L 1220 554 
Q 1209 554 , 1199 554 
Q 1189 554 , 1178 554 
Q 1151 554 , 1136 554 
Q 1120 553 , 1120 553 
Q 1120 552 , 1136 551 
Q 1151 551 , 1178 551 
Q 1189 551 , 1199 551 
Q 1210 551 , 1220 551 
" fill="#545FFF" />
<path d="
M 1170 547 
L 1152 549 
L 1186 549 
L 1170 547 
M 1163 546 
L 1177 546 
L 1220 551 
L 1204 551 
L 1192 549 
L 1148 549 
L 1135 551 
L 1120 551 
L 1163 546 
" fill="#339541" />
<path d="
M 1204 542 
L 1204 536 
L 1175 536 
L 1175 533 
L 1220 533 
L 1220 544 
Q 1209 545 , 1198 545 
Q 1189 546 , 1177 546 
Q 1151 546 , 1135 542 
Q 1120 539 , 1120 534 
Q 1120 528 , 1135 525 
Q 1151 522 , 1177 522 
Q 1188 522 , 1197 522 
Q 1207 523 , 1217 524 
L 1217 527 
Q 1204 526 , 1196 525 
Q 1187 525 , 1178 525 
Q 1157 525 , 1146 527 
Q 1136 529 , 1136 534 
Q 1136 538 , 1146 541 
Q 1157 543 , 1178 543 
Q 1187 543 , 1194 543 
Q 1201 542 , 1204 542 
" fill="#F5C000" />
<path d="
M 1120 179 
L 1138 179 
L 1138 381 
Q 1138 438 , 1146 461 
Q 1153 484 , 1170 484 
Q 1187 484 , 1195 461 
Q 1202 438 , 1202 381 
L 1202 179 
L 1220 179 
L 1220 387 
Q 1220 452 , 1207 487 
Q 1195 522 , 1170 522 
Q 1146 522 , 1133 487 
Q 1120 452 , 1120 387 
L 1120 179 
" fill="#D21010" />
<path d="
M 1275 553 
L 1257 554 
L 1291 554 
L 1275 553 
M 1268 553 
L 1282 553 
L 1325 555 
L 1309 555 
L 1297 554 
L 1253 554 
L 1240 555 
L 1225 555 
L 1268 553 
" fill="#339541" />
<path d="
M 1225 550 
L 1243 550 
L 1243 552 
Q 1243 552 , 1251 552 
Q 1258 553 , 1275 553 
Q 1292 553 , 1300 552 
Q 1307 552 , 1307 552 
L 1307 550 
L 1325 550 
L 1325 552 
Q 1325 552 , 1312 553 
Q 1300 553 , 1275 553 
Q 1251 553 , 1238 553 
Q 1225 552 , 1225 552 
L 1225 550 
" fill="#D21010" />
<path d="
M 1325 534 
L 1325 536 
Q 1310 535 , 1302 534 
Q 1294 534 , 1284 534 
Q 1263 534 , 1253 536 
Q 1241 537 , 1241 540 
Q 1241 544 , 1253 546 
Q 1263 547 , 1284 547 
Q 1294 547 , 1302 547 
Q 1310 546 , 1325 545 
L 1325 547 
Q 1314 548 , 1304 549 
Q 1294 549 , 1283 549 
Q 1256 549 , 1241 547 
Q 1225 545 , 1225 541 
Q 1225 537 , 1241 534 
Q 1256 532 , 1283 532 
Q 1294 532 , 1304 532 
Q 1315 533 , 1325 534 
" fill="#545FFF" />
<path d="
M 1309 476 
L 1309 371 
L 1280 371 
L 1280 328 
L 1325 328 
L 1325 502 
Q 1314 518 , 1303 524 
Q 1294 531 , 1282 531 
Q 1256 531 , 1240 479 
Q 1225 428 , 1225 337 
Q 1225 246 , 1240 194 
Q 1256 142 , 1282 142 
Q 1293 142 , 1302 149 
Q 1312 156 , 1322 174 
L 1322 223 
Q 1309 201 , 1301 195 
Q 1292 188 , 1283 188 
Q 1262 188 , 1251 225 
Q 1241 262 , 1241 337 
Q 1241 413 , 1251 451 
Q 1262 488 , 1283 488 
Q 1292 488 , 1299 484 
Q 1306 480 , 1309 476 
" fill="#F5C000" />
<path d="
M 1380 553 
L 1362 554 
L 1396 554 
L 1380 553 
M 1373 553 
L 1387 553 
L 1430 555 
L 1414 555 
L 1402 554 
L 1358 554 
L 1345 555 
L 1330 555 
L 1373 553 
" fill="#339541" />
<path d="
M 1414 552 
L 1414 552 
L 1385 552 
L 1385 551 
L 1430 551 
L 1430 552 
Q 1419 553 , 1408 553 
Q 1399 553 , 1387 553 
Q 1361 553 , 1345 552 
Q 1330 552 , 1330 551 
Q 1330 551 , 1345 550 
Q 1361 550 , 1387 550 
Q 1398 550 , 1407 550 
Q 1417 550 , 1427 550 
L 1427 551 
Q 1414 550 , 1406 550 
Q 1397 550 , 1388 550 
Q 1367 550 , 1356 551 
Q 1346 551 , 1346 551 
Q 1346 552 , 1356 552 
Q 1367 552 , 1388 552 
Q 1397 552 , 1404 552 
Q 1411 552 , 1414 552 
" fill="#F5C000" />
<path d="
M 1430 547 
L 1430 548 
Q 1415 547 , 1407 547 
Q 1399 547 , 1389 547 
Q 1368 547 , 1358 548 
Q 1346 548 , 1346 548 
Q 1346 549 , 1358 549 
Q 1368 549 , 1389 549 
Q 1399 549 , 1407 549 
Q 1415 549 , 1430 549 
L 1430 549 
Q 1419 550 , 1409 550 
Q 1399 550 , 1388 550 
Q 1361 550 , 1346 549 
Q 1330 549 , 1330 548 
Q 1330 548 , 1346 547 
Q 1361 547 , 1388 547 
Q 1399 547 , 1409 547 
Q 1420 547 , 1430 547 
" fill="#545FFF" />
<path d="
M 1330 543 
L 1348 543 
L 1348 545 
Q 1348 546 , 1356 546 
Q 1363 546 , 1380 546 
Q 1397 546 , 1405 546 
Q 1412 546 , 1412 545 
L 1412 543 
L 1430 543 
L 1430 545 
Q 1430 546 , 1417 546 
Q 1405 547 , 1380 547 
Q 1356 547 , 1343 546 
Q 1330 546 , 1330 545 
L 1330 543 
" fill="#D21010" />
<path d="M 65 55 L 65 555 " stroke="black" stroke-width="1.5"/>
<path d="M 55 555 L 65 555 " stroke="black" stroke-width="4"/>
<text text-anchor="end" x="50" y="555" font-size="50" alignment-baseline="middle">0</text>
<path d="M 55 305 L 65 305 " stroke="black" stroke-width="4"/>
<text text-anchor="end" x="50" y="305" font-size="50" alignment-baseline="middle">1</text>
<path d="M 55 55 L 65 55 " stroke="black" stroke-width="4"/>
<text text-anchor="end" x="50" y="55" font-size="50" alignment-baseline="middle">2</text>
<text text-anchor="middle" x="750" y="50" font-size="50" alignment-baseline="baseline"></text>
G<path d="
M 160 582 
L 126 595 
L 160 608 
L 157 611 
L 123 598 
L 123 623 
L 117 623 
L 117 599 
L 83 611 
L 80 608 
L 114 595 
L 80 582 
L 83 579 
L 117 591 
L 117 567 
L 123 567 
L 123 591 
L 157 579 
L 160 582 
" fill="black" />
<path d="
" fill="black" />
<path d="
M 211 567 
L 238 567 
L 238 623 
L 211 623 
L 211 567 
" fill="black" />
<path d="
" fill="black" />
<path d="
" fill="black" />
<path d="
M 316 567 
L 343 567 
L 343 623 
L 316 623 
L 316 567 
" fill="black" />
<path d="
" fill="black" />
<path d="
" fill="black" />
<path d="
M 421 567 
L 448 567 
L 448 623 
L 421 623 
L 421 567 
" fill="black" />
<path d="
" fill="black" />
<path d="
" fill="black" />
<path d="
M 526 567 
L 553 567 
L 553 623 
L 526 623 
L 526 567 
" fill="black" />
<path d="
" fill="black" />
<path d="
" fill="black" />
<path d="
M 617 567 
L 633 567 
L 633 623 
L 617 623 
L 617 567 
" fill="black" />
<path d="
" fill="black" />
<path d="
M 668 571 
L 659 605 
L 668 605 
L 668 571 
M 667 567 
L 670 567 
L 670 605 
L 673 605 
L 673 608 
L 670 608 
L 670 623 
L 668 623 
L 668 608 
L 657 608 
L 657 604 
L 667 567 
" fill="black" />
<path d="
M 689 593 
Q 691 594 , 692 597 
Q 693 601 , 693 606 
Q 693 614 , 691 618 
Q 689 623 , 684 623 
Q 682 623 , 681 622 
Q 679 621 , 677 619 
L 677 613 
Q 679 617 , 680 618 
Q 682 619 , 684 619 
Q 687 619 , 689 616 
Q 691 613 , 691 606 
Q 691 601 , 689 598 
Q 688 595 , 684 595 
L 681 595 
L 681 591 
L 685 591 
Q 687 591 , 689 589 
Q 690 586 , 690 582 
Q 690 577 , 689 574 
Q 687 571 , 684 571 
Q 683 571 , 681 572 
Q 680 573 , 678 575 
L 678 571 
Q 680 569 , 682 568 
Q 683 567 , 685 567 
Q 689 567 , 691 571 
Q 692 575 , 692 581 
Q 692 586 , 691 589 
Q 691 592 , 689 593 
" fill="black" />
<path d="
M 790 582 
L 756 595 
L 790 608 
L 787 611 
L 753 598 
L 753 623 
L 747 623 
L 747 599 
L 713 611 
L 710 608 
L 744 595 
L 710 582 
L 713 579 
L 747 591 
L 747 567 
L 753 567 
L 753 591 
L 787 579 
L 790 582 
" fill="black" />
<path d="
" fill="black" />
<path d="
M 841 567 
L 868 567 
L 868 623 
L 841 623 
L 841 567 
" fill="black" />
<path d="
" fill="black" />
<path d="
" fill="black" />
<path d="
M 946 567 
L 973 567 
L 973 623 
L 946 623 
L 946 567 
" fill="black" />
<path d="
" fill="black" />
<path d="
" fill="black" />
<path d="
M 1051 567 
L 1078 567 
L 1078 623 
L 1051 623 
L 1051 567 
" fill="black" />
<path d="
" fill="black" />
<path d="
" fill="black" />
<path d="
M 1156 567 
L 1183 567 
L 1183 623 
L 1156 623 
L 1156 567 
" fill="black" />
<path d="
" fill="black" />
<path d="
" fill="black" />
<path d="
M 1261 567 
L 1288 567 
L 1288 623 
L 1261 623 
L 1261 567 
" fill="black" />
<path d="
" fill="black" />
<path d="
M 1420 582 
L 1386 595 
L 1420 608 
L 1417 611 
L 1383 598 
L 1383 623 
L 1377 623 
L 1377 599 
L 1343 611 
L 1340 608 
L 1374 595 
L 1340 582 
L 1343 579 
L 1377 591 
L 1377 567 
L 1383 567 
L 1383 591 
L 1417 579 
L 1420 582 
" fill="black" />
</svg>
