<svg xmlns="http://www.w3.org/2000/svg"
viewBox="0 0 1225 615">
<path d="
M 113 555 
Q 107 555 , 95 555 
Q 83 555 , 76 555 
Q 70 555 , 70 554 
L 70 554 
L 86 554 
L 86 554 
Q 86 555 , 88 555 
Q 91 555 , 96 555 
Q 101 555 , 103 555 
Q 105 555 , 105 554 
L 105 554 
L 120 554 
L 120 554 
Q 120 555 , 113 555 
" fill="#D21010" stroke="black" stroke-width="1"/>
<path d="
M 143 554 
L 147 554 
L 140 554 
L 150 554 
L 143 554 
M 152 554 
L 136 554 
L 131 555 
L 120 555 
L 138 554 
L 152 554 
L 170 555 
L 156 555 
L 152 554 
" fill="white" stroke="black" stroke-width="1"/>
<path d="
M 106 554 
L 106 553 
L 89 553 
L 89 553 
L 120 553 
L 120 554 
Q 109 554 , 99 554 
Q 84 554 , 77 554 
Q 70 554 , 70 553 
Q 70 553 , 77 553 
Q 84 553 , 100 553 
Q 107 553 , 117 553 
L 117 553 
Q 107 553 , 100 553 
Q 92 553 , 87 553 
Q 83 553 , 83 553 
Q 83 554 , 99 554 
Q 103 554 , 106 554 
" fill="#F5C000" stroke="black" stroke-width="1"/>
<path d="
M 120 553 
Q 120 553 , 128 553 
Q 136 553 , 152 553 
Q 160 553 , 169 553 
L 169 553 
Q 158 553 , 152 553 
Q 136 553 , 136 553 
Q 136 554 , 140 554 
Q 144 554 , 152 554 
Q 158 554 , 170 554 
L 170 554 
Q 160 554 , 152 554 
Q 136 554 , 128 554 
Q 120 554 , 120 553 
" fill="white" stroke="black" stroke-width="1"/>
<path d="
M 70 552 
Q 70 552 , 78 552 
Q 86 552 , 102 552 
Q 110 552 , 119 552 
L 119 552 
Q 108 552 , 102 552 
Q 86 552 , 86 552 
Q 86 553 , 90 553 
Q 94 553 , 102 553 
Q 108 553 , 120 553 
L 120 553 
Q 110 553 , 102 553 
Q 86 553 , 78 553 
Q 70 553 , 70 552 
" fill="#545FFF" stroke="black" stroke-width="1"/>
<path d="
M 156 553 
L 156 552 
L 139 552 
L 139 552 
L 170 552 
L 170 553 
Q 159 553 , 149 553 
Q 134 553 , 127 553 
Q 120 553 , 120 552 
Q 120 552 , 127 552 
Q 134 552 , 150 552 
Q 157 552 , 167 552 
L 167 552 
Q 157 552 , 150 552 
Q 142 552 , 137 552 
Q 133 552 , 133 552 
Q 133 553 , 149 553 
Q 153 553 , 156 553 
" fill="white" stroke="black" stroke-width="1"/>
<path d="
M 106 551 
L 106 551 
L 89 551 
L 89 550 
L 120 550 
L 120 551 
Q 109 551 , 99 551 
Q 84 551 , 77 551 
Q 70 551 , 70 551 
Q 70 550 , 77 550 
Q 84 550 , 100 550 
Q 107 550 , 117 550 
L 117 550 
Q 107 550 , 100 550 
Q 92 550 , 87 550 
Q 83 550 , 83 551 
Q 83 551 , 99 551 
Q 103 551 , 106 551 
" fill="#F5C000" stroke="black" stroke-width="1"/>
<path d="
M 163 551 
Q 157 551 , 145 551 
Q 133 551 , 126 551 
Q 120 551 , 120 551 
L 120 550 
L 136 550 
L 136 551 
Q 136 551 , 138 551 
Q 141 551 , 146 551 
Q 151 551 , 153 551 
Q 155 551 , 155 551 
L 155 550 
L 170 550 
L 170 551 
Q 170 551 , 163 551 
" fill="white" stroke="black" stroke-width="1"/>
<path d="
M 113 549 
Q 107 549 , 95 549 
Q 83 549 , 76 549 
Q 70 549 , 70 549 
L 70 548 
L 86 548 
L 86 549 
Q 86 549 , 88 549 
Q 91 549 , 96 549 
Q 101 549 , 103 549 
Q 105 549 , 105 549 
L 105 548 
L 120 548 
L 120 549 
Q 120 549 , 113 549 
" fill="#D21010" stroke="black" stroke-width="1"/>
<path d="
M 156 549 
L 156 549 
L 139 549 
L 139 548 
L 170 548 
L 170 549 
Q 159 549 , 149 549 
Q 134 549 , 127 549 
Q 120 549 , 120 549 
Q 120 548 , 127 548 
Q 134 548 , 150 548 
Q 157 548 , 167 548 
L 167 548 
Q 157 548 , 150 548 
Q 142 548 , 137 548 
Q 133 548 , 133 549 
Q 133 549 , 149 549 
Q 153 549 , 156 549 
" fill="white" stroke="black" stroke-width="1"/>
<path d="
M 93 546 
L 97 546 
L 90 547 
L 100 547 
L 93 546 
M 102 547 
L 86 547 
L 81 547 
L 70 547 
L 88 546 
L 102 546 
L 120 547 
L 106 547 
L 102 547 
" fill="#339541" stroke="black" stroke-width="1"/>
<path d="
M 163 547 
Q 157 547 , 145 547 
Q 133 547 , 126 547 
Q 120 547 , 120 547 
L 120 546 
L 136 546 
L 136 547 
Q 136 547 , 138 547 
Q 141 547 , 146 547 
Q 151 547 , 153 547 
Q 155 547 , 155 547 
L 155 546 
L 170 546 
L 170 547 
Q 170 547 , 163 547 
" fill="white" stroke="black" stroke-width="1"/>
<path d="
M 218 554 
Q 212 554 , 200 554 
Q 188 554 , 181 554 
Q 175 554 , 175 553 
L 175 551 
L 191 551 
L 191 553 
Q 191 553 , 193 553 
Q 196 554 , 201 554 
Q 206 554 , 208 553 
Q 210 553 , 210 553 
L 210 551 
L 225 551 
L 225 553 
Q 225 554 , 218 554 
" fill="#D21010" stroke="black" stroke-width="1"/>
<path d="
M 261 554 
L 261 553 
L 244 553 
L 244 552 
L 275 552 
L 275 554 
Q 264 554 , 254 554 
Q 239 554 , 232 553 
Q 225 553 , 225 553 
Q 225 552 , 232 551 
Q 239 551 , 255 551 
Q 262 551 , 272 551 
L 272 552 
Q 262 551 , 255 551 
Q 247 551 , 242 551 
Q 238 552 , 238 553 
Q 238 554 , 254 554 
Q 258 554 , 261 554 
" fill="white" stroke="black" stroke-width="1"/>
<path d="
M 211 549 
L 211 546 
L 194 546 
L 194 545 
L 225 545 
L 225 550 
Q 214 550 , 204 550 
Q 189 550 , 182 549 
Q 175 548 , 175 546 
Q 175 544 , 182 543 
Q 189 542 , 205 542 
Q 212 542 , 222 542 
L 222 544 
Q 212 543 , 205 543 
Q 197 543 , 192 543 
Q 188 544 , 188 546 
Q 188 549 , 204 549 
Q 208 549 , 211 549 
" fill="#F5C000" stroke="black" stroke-width="1"/>
<path d="
M 268 549 
Q 262 550 , 250 550 
Q 238 550 , 231 549 
Q 225 549 , 225 548 
L 225 542 
L 241 542 
L 241 548 
Q 241 548 , 243 548 
Q 246 549 , 251 549 
Q 256 549 , 258 548 
Q 260 548 , 260 548 
L 260 542 
L 275 542 
L 275 548 
Q 275 549 , 268 549 
" fill="white" stroke="black" stroke-width="1"/>
<path d="
M 198 534 
L 202 534 
L 195 538 
L 205 538 
L 198 534 
M 207 539 
L 191 539 
L 186 541 
L 175 541 
L 193 533 
L 207 533 
L 225 541 
L 211 541 
L 207 539 
" fill="#339541" stroke="black" stroke-width="1"/>
<path d="
M 268 540 
Q 262 541 , 250 541 
Q 238 541 , 231 540 
Q 225 540 , 225 539 
L 225 533 
L 241 533 
L 241 539 
Q 241 539 , 243 539 
Q 246 540 , 251 540 
Q 256 540 , 258 539 
Q 260 539 , 260 539 
L 260 533 
L 275 533 
L 275 539 
Q 275 540 , 268 540 
" fill="white" stroke="black" stroke-width="1"/>
<path d="
M 175 527 
Q 175 525 , 183 523 
Q 191 522 , 207 522 
Q 215 522 , 224 523 
L 224 524 
Q 213 524 , 207 524 
Q 191 524 , 191 527 
Q 191 529 , 195 530 
Q 199 531 , 207 531 
Q 213 531 , 225 530 
L 225 532 
Q 215 533 , 207 533 
Q 191 533 , 183 531 
Q 175 530 , 175 527 
" fill="#545FFF" stroke="black" stroke-width="1"/>
<path d="
M 261 531 
L 261 528 
L 244 528 
L 244 526 
L 275 526 
L 275 532 
Q 264 533 , 254 533 
Q 239 533 , 232 531 
Q 225 530 , 225 527 
Q 225 525 , 232 523 
Q 239 522 , 255 522 
Q 262 522 , 272 522 
L 272 524 
Q 262 524 , 255 524 
Q 247 524 , 242 524 
Q 238 525 , 238 527 
Q 238 531 , 254 531 
Q 258 531 , 261 531 
" fill="white" stroke="black" stroke-width="1"/>
<path d="
M 211 519 
L 211 514 
L 194 514 
L 194 512 
L 225 512 
L 225 521 
Q 214 522 , 204 522 
Q 189 522 , 182 520 
Q 175 518 , 175 514 
Q 175 510 , 182 508 
Q 189 506 , 205 506 
Q 212 506 , 222 507 
L 222 509 
Q 212 508 , 205 508 
Q 197 508 , 192 509 
Q 188 511 , 188 514 
Q 188 519 , 204 519 
Q 208 519 , 211 519 
" fill="#F5C000" stroke="black" stroke-width="1"/>
<path d="
M 225 514 
Q 225 510 , 233 508 
Q 241 506 , 257 506 
Q 265 506 , 274 507 
L 274 509 
Q 263 508 , 257 508 
Q 241 508 , 241 514 
Q 241 517 , 245 518 
Q 249 519 , 257 519 
Q 263 519 , 275 518 
L 275 521 
Q 265 522 , 257 522 
Q 241 522 , 233 520 
Q 225 518 , 225 514 
" fill="white" stroke="black" stroke-width="1"/>
<path d="
M 218 503 
Q 212 506 , 200 506 
Q 188 506 , 181 503 
Q 175 500 , 175 494 
L 175 464 
L 191 464 
L 191 493 
Q 191 497 , 193 498 
Q 196 499 , 201 499 
Q 206 499 , 208 498 
Q 210 497 , 210 493 
L 210 464 
L 225 464 
L 225 494 
Q 225 500 , 218 503 
" fill="#D21010" stroke="black" stroke-width="1"/>
<path d="
M 248 470 
L 252 470 
L 245 488 
L 255 488 
L 248 470 
M 257 495 
L 241 495 
L 236 506 
L 225 506 
L 243 464 
L 257 464 
L 275 506 
L 261 506 
L 257 495 
" fill="white" stroke="black" stroke-width="1"/>
<path d="
M 325 553 
L 335 553 
L 321 554 
L 339 554 
L 325 553 
M 344 554 
L 312 554 
L 303 554 
L 280 554 
L 316 553 
L 344 553 
L 380 554 
L 353 554 
L 344 554 
" fill="#339541" stroke="black" stroke-width="1"/>
<path d="
M 351 550 
L 351 546 
L 318 546 
L 318 544 
L 380 544 
L 380 551 
Q 358 552 , 338 552 
Q 309 552 , 294 550 
Q 280 549 , 280 546 
Q 280 542 , 294 540 
Q 309 539 , 340 539 
Q 353 539 , 373 540 
L 373 542 
Q 353 541 , 340 541 
Q 324 541 , 315 542 
Q 307 543 , 307 546 
Q 307 550 , 338 550 
Q 347 550 , 351 550 
" fill="#F5C000" stroke="black" stroke-width="1"/>
<path d="
M 280 522 
Q 280 514 , 296 510 
Q 312 506 , 343 506 
Q 359 506 , 378 508 
L 378 513 
Q 356 511 , 343 511 
Q 312 511 , 312 522 
Q 312 529 , 320 531 
Q 328 533 , 343 533 
Q 356 533 , 380 531 
L 380 537 
Q 361 538 , 343 538 
Q 312 538 , 296 534 
Q 280 531 , 280 522 
" fill="#545FFF" stroke="black" stroke-width="1"/>
<path d="
M 367 503 
Q 355 506 , 331 506 
Q 307 506 , 293 503 
Q 280 500 , 280 494 
L 280 464 
L 312 464 
L 312 493 
Q 312 497 , 316 498 
Q 321 499 , 331 499 
Q 342 499 , 346 498 
Q 351 497 , 351 493 
L 351 464 
L 380 464 
L 380 494 
Q 380 500 , 367 503 
" fill="#D21010" stroke="black" stroke-width="1"/>
<path d="
M 430 552 
L 440 552 
L 426 553 
L 444 553 
L 430 552 
M 449 554 
L 417 554 
L 408 555 
L 385 555 
L 421 551 
L 449 551 
L 485 555 
L 458 555 
L 449 554 
" fill="#339541" stroke="black" stroke-width="1"/>
<path d="
M 456 548 
L 456 543 
L 423 543 
L 423 540 
L 485 540 
L 485 550 
Q 463 551 , 443 551 
Q 414 551 , 399 548 
Q 385 546 , 385 542 
Q 385 537 , 399 535 
Q 414 533 , 445 533 
Q 458 533 , 478 534 
L 478 537 
Q 458 536 , 445 536 
Q 429 536 , 420 537 
Q 412 539 , 412 542 
Q 412 548 , 443 548 
Q 452 548 , 456 548 
" fill="#F5C000" stroke="black" stroke-width="1"/>
<path d="
M 385 523 
Q 385 518 , 401 515 
Q 417 513 , 448 513 
Q 464 513 , 483 514 
L 483 517 
Q 461 516 , 448 516 
Q 417 516 , 417 523 
Q 417 527 , 425 528 
Q 433 529 , 448 529 
Q 461 529 , 485 528 
L 485 531 
Q 466 532 , 448 532 
Q 417 532 , 401 530 
Q 385 528 , 385 523 
" fill="#545FFF" stroke="black" stroke-width="1"/>
<path d="
M 472 507 
Q 460 513 , 436 513 
Q 412 513 , 398 507 
Q 385 501 , 385 489 
L 385 429 
L 417 429 
L 417 487 
Q 417 494 , 421 497 
Q 426 500 , 436 500 
Q 447 500 , 451 497 
Q 456 494 , 456 487 
L 456 429 
L 485 429 
L 485 489 
Q 485 501 , 472 507 
" fill="#D21010" stroke="black" stroke-width="1"/>
<path d="
M 535 552 
L 545 552 
L 531 554 
L 549 554 
L 535 552 
M 554 554 
L 522 554 
L 513 555 
L 490 555 
L 526 552 
L 554 552 
L 590 555 
L 563 555 
L 554 554 
" fill="#339541" stroke="black" stroke-width="1"/>
<path d="
M 490 543 
Q 490 539 , 506 537 
Q 522 535 , 553 535 
Q 569 535 , 588 536 
L 588 539 
Q 566 538 , 553 538 
Q 522 538 , 522 543 
Q 522 547 , 530 548 
Q 538 549 , 553 549 
Q 566 549 , 590 548 
L 590 551 
Q 571 552 , 553 552 
Q 522 552 , 506 550 
Q 490 548 , 490 543 
" fill="#545FFF" stroke="black" stroke-width="1"/>
<path d="
M 561 532 
L 561 526 
L 528 526 
L 528 523 
L 590 523 
L 590 534 
Q 568 535 , 548 535 
Q 519 535 , 504 532 
Q 490 530 , 490 525 
Q 490 520 , 504 517 
Q 519 515 , 550 515 
Q 563 515 , 583 516 
L 583 519 
Q 563 518 , 550 518 
Q 534 518 , 525 519 
Q 517 521 , 517 525 
Q 517 532 , 548 532 
Q 557 532 , 561 532 
" fill="#F5C000" stroke="black" stroke-width="1"/>
<path d="
M 577 509 
Q 565 514 , 541 514 
Q 517 514 , 503 509 
Q 490 505 , 490 497 
L 490 454 
L 522 454 
L 522 495 
Q 522 501 , 526 503 
Q 531 505 , 541 505 
Q 552 505 , 556 503 
Q 561 501 , 561 495 
L 561 454 
L 590 454 
L 590 497 
Q 590 505 , 577 509 
" fill="#D21010" stroke="black" stroke-width="1"/>
<path d="
M 743 554 
Q 737 554 , 725 554 
Q 713 554 , 706 554 
Q 700 554 , 700 553 
L 700 551 
L 716 551 
L 716 553 
Q 716 553 , 718 553 
Q 721 554 , 726 554 
Q 731 554 , 733 553 
Q 735 553 , 735 553 
L 735 551 
L 750 551 
L 750 553 
Q 750 554 , 743 554 
" fill="white" stroke="black" stroke-width="1"/>
<path d="
M 786 554 
L 786 553 
L 769 553 
L 769 552 
L 800 552 
L 800 554 
Q 789 554 , 779 554 
Q 764 554 , 757 553 
Q 750 553 , 750 553 
Q 750 552 , 757 551 
Q 764 551 , 780 551 
Q 787 551 , 797 551 
L 797 552 
Q 787 551 , 780 551 
Q 772 551 , 767 551 
Q 763 552 , 763 553 
Q 763 554 , 779 554 
Q 783 554 , 786 554 
" fill="#F5C000" stroke="black" stroke-width="1"/>
<path d="
M 736 549 
L 736 546 
L 719 546 
L 719 545 
L 750 545 
L 750 550 
Q 739 550 , 729 550 
Q 714 550 , 707 549 
Q 700 548 , 700 546 
Q 700 544 , 707 543 
Q 714 542 , 730 542 
Q 737 542 , 747 542 
L 747 544 
Q 737 543 , 730 543 
Q 722 543 , 717 543 
Q 713 544 , 713 546 
Q 713 549 , 729 549 
Q 733 549 , 736 549 
" fill="white" stroke="black" stroke-width="1"/>
<path d="
M 793 549 
Q 787 550 , 775 550 
Q 763 550 , 756 549 
Q 750 549 , 750 548 
L 750 542 
L 766 542 
L 766 548 
Q 766 548 , 768 548 
Q 771 549 , 776 549 
Q 781 549 , 783 548 
Q 785 548 , 785 548 
L 785 542 
L 800 542 
L 800 548 
Q 800 549 , 793 549 
" fill="#D21010" stroke="black" stroke-width="1"/>
<path d="
M 723 534 
L 727 534 
L 720 538 
L 730 538 
L 723 534 
M 732 539 
L 716 539 
L 711 541 
L 700 541 
L 718 533 
L 732 533 
L 750 541 
L 736 541 
L 732 539 
" fill="white" stroke="black" stroke-width="1"/>
<path d="
M 793 540 
Q 787 541 , 775 541 
Q 763 541 , 756 540 
Q 750 540 , 750 539 
L 750 533 
L 766 533 
L 766 539 
Q 766 539 , 768 539 
Q 771 540 , 776 540 
Q 781 540 , 783 539 
Q 785 539 , 785 539 
L 785 533 
L 800 533 
L 800 539 
Q 800 540 , 793 540 
" fill="#D21010" stroke="black" stroke-width="1"/>
<path d="
M 700 527 
Q 700 525 , 708 523 
Q 716 522 , 732 522 
Q 740 522 , 749 523 
L 749 524 
Q 738 524 , 732 524 
Q 716 524 , 716 527 
Q 716 529 , 720 530 
Q 724 531 , 732 531 
Q 738 531 , 750 530 
L 750 532 
Q 740 533 , 732 533 
Q 716 533 , 708 531 
Q 700 530 , 700 527 
" fill="white" stroke="black" stroke-width="1"/>
<path d="
M 786 531 
L 786 528 
L 769 528 
L 769 526 
L 800 526 
L 800 532 
Q 789 533 , 779 533 
Q 764 533 , 757 531 
Q 750 530 , 750 527 
Q 750 525 , 757 523 
Q 764 522 , 780 522 
Q 787 522 , 797 522 
L 797 524 
Q 787 524 , 780 524 
Q 772 524 , 767 524 
Q 763 525 , 763 527 
Q 763 531 , 779 531 
Q 783 531 , 786 531 
" fill="#F5C000" stroke="black" stroke-width="1"/>
<path d="
M 736 519 
L 736 514 
L 719 514 
L 719 512 
L 750 512 
L 750 521 
Q 739 522 , 729 522 
Q 714 522 , 707 520 
Q 700 518 , 700 514 
Q 700 510 , 707 508 
Q 714 506 , 730 506 
Q 737 506 , 747 507 
L 747 509 
Q 737 508 , 730 508 
Q 722 508 , 717 509 
Q 713 511 , 713 514 
Q 713 519 , 729 519 
Q 733 519 , 736 519 
" fill="white" stroke="black" stroke-width="1"/>
<path d="
M 750 514 
Q 750 510 , 758 508 
Q 766 506 , 782 506 
Q 790 506 , 799 507 
L 799 509 
Q 788 508 , 782 508 
Q 766 508 , 766 514 
Q 766 517 , 770 518 
Q 774 519 , 782 519 
Q 788 519 , 800 518 
L 800 521 
Q 790 522 , 782 522 
Q 766 522 , 758 520 
Q 750 518 , 750 514 
" fill="#545FFF" stroke="black" stroke-width="1"/>
<path d="
M 743 503 
Q 737 506 , 725 506 
Q 713 506 , 706 503 
Q 700 500 , 700 494 
L 700 464 
L 716 464 
L 716 493 
Q 716 497 , 718 498 
Q 721 499 , 726 499 
Q 731 499 , 733 498 
Q 735 497 , 735 493 
L 735 464 
L 750 464 
L 750 494 
Q 750 500 , 743 503 
" fill="white" stroke="black" stroke-width="1"/>
<path d="
M 773 470 
L 777 470 
L 770 488 
L 780 488 
L 773 470 
M 782 495 
L 766 495 
L 761 506 
L 750 506 
L 768 464 
L 782 464 
L 800 506 
L 786 506 
L 782 495 
" fill="#339541" stroke="black" stroke-width="1"/>
<path d="
M 848 555 
Q 842 555 , 830 555 
Q 818 555 , 811 555 
Q 805 555 , 805 554 
L 805 554 
L 821 554 
L 821 554 
Q 821 555 , 823 555 
Q 826 555 , 831 555 
Q 836 555 , 838 555 
Q 840 555 , 840 554 
L 840 554 
L 855 554 
L 855 554 
Q 855 555 , 848 555 
" fill="white" stroke="black" stroke-width="1"/>
<path d="
M 878 554 
L 882 554 
L 875 554 
L 885 554 
L 878 554 
M 887 554 
L 871 554 
L 866 555 
L 855 555 
L 873 554 
L 887 554 
L 905 555 
L 891 555 
L 887 554 
" fill="#339541" stroke="black" stroke-width="1"/>
<path d="
M 841 554 
L 841 553 
L 824 553 
L 824 553 
L 855 553 
L 855 554 
Q 844 554 , 834 554 
Q 819 554 , 812 554 
Q 805 554 , 805 553 
Q 805 553 , 812 553 
Q 819 553 , 835 553 
Q 842 553 , 852 553 
L 852 553 
Q 842 553 , 835 553 
Q 827 553 , 822 553 
Q 818 553 , 818 553 
Q 818 554 , 834 554 
Q 838 554 , 841 554 
" fill="white" stroke="black" stroke-width="1"/>
<path d="
M 855 553 
Q 855 553 , 863 553 
Q 871 553 , 887 553 
Q 895 553 , 904 553 
L 904 553 
Q 893 553 , 887 553 
Q 871 553 , 871 553 
Q 871 554 , 875 554 
Q 879 554 , 887 554 
Q 893 554 , 905 554 
L 905 554 
Q 895 554 , 887 554 
Q 871 554 , 863 554 
Q 855 554 , 855 553 
" fill="#545FFF" stroke="black" stroke-width="1"/>
<path d="
M 805 552 
Q 805 552 , 813 552 
Q 821 552 , 837 552 
Q 845 552 , 854 552 
L 854 552 
Q 843 552 , 837 552 
Q 821 552 , 821 552 
Q 821 553 , 825 553 
Q 829 553 , 837 553 
Q 843 553 , 855 553 
L 855 553 
Q 845 553 , 837 553 
Q 821 553 , 813 553 
Q 805 553 , 805 552 
" fill="white" stroke="black" stroke-width="1"/>
<path d="
M 891 553 
L 891 552 
L 874 552 
L 874 552 
L 905 552 
L 905 553 
Q 894 553 , 884 553 
Q 869 553 , 862 553 
Q 855 553 , 855 552 
Q 855 552 , 862 552 
Q 869 552 , 885 552 
Q 892 552 , 902 552 
L 902 552 
Q 892 552 , 885 552 
Q 877 552 , 872 552 
Q 868 552 , 868 552 
Q 868 553 , 884 553 
Q 888 553 , 891 553 
" fill="#F5C000" stroke="black" stroke-width="1"/>
<path d="
M 841 551 
L 841 551 
L 824 551 
L 824 550 
L 855 550 
L 855 551 
Q 844 551 , 834 551 
Q 819 551 , 812 551 
Q 805 551 , 805 551 
Q 805 550 , 812 550 
Q 819 550 , 835 550 
Q 842 550 , 852 550 
L 852 550 
Q 842 550 , 835 550 
Q 827 550 , 822 550 
Q 818 550 , 818 551 
Q 818 551 , 834 551 
Q 838 551 , 841 551 
" fill="white" stroke="black" stroke-width="1"/>
<path d="
M 898 551 
Q 892 551 , 880 551 
Q 868 551 , 861 551 
Q 855 551 , 855 551 
L 855 550 
L 871 550 
L 871 551 
Q 871 551 , 873 551 
Q 876 551 , 881 551 
Q 886 551 , 888 551 
Q 890 551 , 890 551 
L 890 550 
L 905 550 
L 905 551 
Q 905 551 , 898 551 
" fill="#D21010" stroke="black" stroke-width="1"/>
<path d="
M 848 549 
Q 842 549 , 830 549 
Q 818 549 , 811 549 
Q 805 549 , 805 549 
L 805 548 
L 821 548 
L 821 549 
Q 821 549 , 823 549 
Q 826 549 , 831 549 
Q 836 549 , 838 549 
Q 840 549 , 840 549 
L 840 548 
L 855 548 
L 855 549 
Q 855 549 , 848 549 
" fill="white" stroke="black" stroke-width="1"/>
<path d="
M 891 549 
L 891 549 
L 874 549 
L 874 548 
L 905 548 
L 905 549 
Q 894 549 , 884 549 
Q 869 549 , 862 549 
Q 855 549 , 855 549 
Q 855 548 , 862 548 
Q 869 548 , 885 548 
Q 892 548 , 902 548 
L 902 548 
Q 892 548 , 885 548 
Q 877 548 , 872 548 
Q 868 548 , 868 549 
Q 868 549 , 884 549 
Q 888 549 , 891 549 
" fill="#F5C000" stroke="black" stroke-width="1"/>
<path d="
M 828 546 
L 832 546 
L 825 547 
L 835 547 
L 828 546 
M 837 547 
L 821 547 
L 816 547 
L 805 547 
L 823 546 
L 837 546 
L 855 547 
L 841 547 
L 837 547 
" fill="white" stroke="black" stroke-width="1"/>
<path d="
M 898 547 
Q 892 547 , 880 547 
Q 868 547 , 861 547 
Q 855 547 , 855 547 
L 855 546 
L 871 546 
L 871 547 
Q 871 547 , 873 547 
Q 876 547 , 881 547 
Q 886 547 , 888 547 
Q 890 547 , 890 547 
L 890 546 
L 905 546 
L 905 547 
Q 905 547 , 898 547 
" fill="#D21010" stroke="black" stroke-width="1"/>
<path d="
M 955 550 
L 965 550 
L 951 552 
L 969 552 
L 955 550 
M 974 553 
L 942 553 
L 933 555 
L 910 555 
L 946 549 
L 974 549 
L 1010 555 
L 983 555 
L 974 553 
" fill="#339541" stroke="black" stroke-width="1"/>
<path d="
M 910 543 
Q 910 541 , 926 539 
Q 942 538 , 973 538 
Q 989 538 , 1008 539 
L 1008 540 
Q 986 540 , 973 540 
Q 942 540 , 942 543 
Q 942 546 , 950 546 
Q 958 547 , 973 547 
Q 986 547 , 1010 546 
L 1010 548 
Q 991 549 , 973 549 
Q 942 549 , 926 547 
Q 910 546 , 910 543 
" fill="#545FFF" stroke="black" stroke-width="1"/>
<path d="
M 981 534 
L 981 529 
L 948 529 
L 948 526 
L 1010 526 
L 1010 537 
Q 988 538 , 968 538 
Q 939 538 , 924 535 
Q 910 533 , 910 528 
Q 910 523 , 924 520 
Q 939 518 , 970 518 
Q 983 518 , 1003 519 
L 1003 522 
Q 983 521 , 970 521 
Q 954 521 , 945 522 
Q 937 524 , 937 528 
Q 937 535 , 968 535 
Q 977 535 , 981 534 
" fill="#F5C000" stroke="black" stroke-width="1"/>
<path d="
M 997 513 
Q 985 517 , 961 517 
Q 937 517 , 923 513 
Q 910 509 , 910 501 
L 910 458 
L 942 458 
L 942 499 
Q 942 504 , 946 506 
Q 951 508 , 961 508 
Q 972 508 , 976 506 
Q 981 504 , 981 499 
L 981 458 
L 1010 458 
L 1010 501 
Q 1010 509 , 997 513 
" fill="#D21010" stroke="black" stroke-width="1"/>
<path d="
M 1060 552 
L 1070 552 
L 1056 553 
L 1074 553 
L 1060 552 
M 1079 554 
L 1047 554 
L 1038 554 
L 1015 554 
L 1051 552 
L 1079 552 
L 1115 554 
L 1088 554 
L 1079 554 
" fill="#339541" stroke="black" stroke-width="1"/>
<path d="
M 1102 550 
Q 1090 551 , 1066 551 
Q 1042 551 , 1028 550 
Q 1015 549 , 1015 547 
L 1015 536 
L 1047 536 
L 1047 547 
Q 1047 548 , 1051 548 
Q 1056 549 , 1066 549 
Q 1077 549 , 1081 548 
Q 1086 548 , 1086 547 
L 1086 536 
L 1115 536 
L 1115 547 
Q 1115 549 , 1102 550 
" fill="#D21010" stroke="black" stroke-width="1"/>
<path d="
M 1086 533 
L 1086 529 
L 1053 529 
L 1053 526 
L 1115 526 
L 1115 535 
Q 1093 536 , 1073 536 
Q 1044 536 , 1029 534 
Q 1015 532 , 1015 528 
Q 1015 524 , 1029 522 
Q 1044 520 , 1075 520 
Q 1088 520 , 1108 521 
L 1108 523 
Q 1088 522 , 1075 522 
Q 1059 522 , 1050 523 
Q 1042 525 , 1042 528 
Q 1042 533 , 1073 533 
Q 1082 533 , 1086 533 
" fill="#F5C000" stroke="black" stroke-width="1"/>
<path d="
M 1015 504 
Q 1015 497 , 1031 493 
Q 1047 489 , 1078 489 
Q 1094 489 , 1113 491 
L 1113 496 
Q 1091 494 , 1078 494 
Q 1047 494 , 1047 504 
Q 1047 511 , 1055 513 
Q 1063 515 , 1078 515 
Q 1091 515 , 1115 513 
L 1115 518 
Q 1096 520 , 1078 520 
Q 1047 520 , 1031 516 
Q 1015 513 , 1015 504 
" fill="#545FFF" stroke="black" stroke-width="1"/>
<path d="
M 1165 549 
L 1175 549 
L 1161 552 
L 1179 552 
L 1165 549 
M 1184 553 
L 1152 553 
L 1143 555 
L 1120 555 
L 1156 548 
L 1184 548 
L 1220 555 
L 1193 555 
L 1184 553 
" fill="#339541" stroke="black" stroke-width="1"/>
<path d="
M 1120 542 
Q 1120 540 , 1136 538 
Q 1152 537 , 1183 537 
Q 1199 537 , 1218 538 
L 1218 539 
Q 1196 539 , 1183 539 
Q 1152 539 , 1152 542 
Q 1152 544 , 1160 545 
Q 1168 546 , 1183 546 
Q 1196 546 , 1220 545 
L 1220 547 
Q 1201 547 , 1183 547 
Q 1152 547 , 1136 546 
Q 1120 545 , 1120 542 
" fill="#545FFF" stroke="black" stroke-width="1"/>
<path d="
M 1191 533 
L 1191 528 
L 1158 528 
L 1158 525 
L 1220 525 
L 1220 535 
Q 1198 536 , 1178 536 
Q 1149 536 , 1134 534 
Q 1120 532 , 1120 527 
Q 1120 522 , 1134 520 
Q 1149 518 , 1180 518 
Q 1193 518 , 1213 519 
L 1213 522 
Q 1193 521 , 1180 521 
Q 1164 521 , 1155 522 
Q 1147 524 , 1147 527 
Q 1147 533 , 1178 533 
Q 1187 533 , 1191 533 
" fill="#F5C000" stroke="black" stroke-width="1"/>
<path d="
M 1207 514 
Q 1195 518 , 1171 518 
Q 1147 518 , 1133 514 
Q 1120 510 , 1120 502 
L 1120 463 
L 1152 463 
L 1152 501 
Q 1152 506 , 1156 507 
Q 1161 509 , 1171 509 
Q 1182 509 , 1186 507 
Q 1191 506 , 1191 501 
L 1191 463 
L 1220 463 
L 1220 502 
Q 1220 510 , 1207 514 
" fill="#D21010" stroke="black" stroke-width="1"/>
<path d="M 65 168 L 65 555 " stroke="black" stroke-width="1.5"/>
<path d="M 55 555 L 65 555 " stroke="black" stroke-width="4"/>
<text text-anchor="end" x="50" y="555" font-size="50" alignment-baseline="middle">0</text>
<path d="M 55 362 L 65 362 " stroke="black" stroke-width="4"/>
<text text-anchor="end" x="50" y="362" font-size="50" alignment-baseline="middle">1</text>
<path d="M 55 168 L 65 168 " stroke="black" stroke-width="4"/>
<text text-anchor="end" x="50" y="168" font-size="50" alignment-baseline="middle">2</text>
<text text-anchor="middle" x="645" y="50" font-size="50" alignment-baseline="baseline"></text>
G<path d="
M 127 605 
Q 80 597 , 80 585 
Q 80 573 , 127 565 
L 160 565 
Q 107 574 , 107 585 
Q 107 596 , 160 605 
L 127 605 
" fill="black" stroke="black" stroke-width="1"/>
<path d="
M 232 605 
Q 185 597 , 185 585 
Q 185 573 , 232 565 
L 265 565 
Q 212 574 , 212 585 
Q 212 596 , 265 605 
L 232 605 
" fill="black" stroke="black" stroke-width="1"/>
<path d="
M 635 565 
L 655 565 
L 655 578 
L 679 574 
L 685 584 
L 661 588 
L 677 599 
L 661 605 
L 645 594 
L 631 605 
L 615 599 
L 631 588 
L 605 584 
L 611 574 
L 637 578 
L 635 565 
" fill="black" stroke="black" stroke-width="1"/>
<path d="
M 743 565 
Q 790 573 , 790 585 
Q 790 597 , 743 605 
L 710 605 
Q 762 596 , 762 585 
Q 762 574 , 710 565 
L 743 565 
" fill="black" stroke="black" stroke-width="1"/>
<path d="
M 848 565 
Q 895 573 , 895 585 
Q 895 597 , 848 605 
L 815 605 
Q 867 596 , 867 585 
Q 867 574 , 815 565 
L 848 565 
" fill="black" stroke="black" stroke-width="1"/>
</svg>
