<svg xmlns="http://www.w3.org/2000/svg"
viewBox="0 0 1120 635">
<path d="
M 170 554 
L 170 554 
Q 155 554 , 147 554 
Q 139 554 , 129 554 
Q 108 554 , 98 554 
Q 86 554 , 86 554 
Q 86 554 , 98 554 
Q 108 554 , 129 554 
Q 139 554 , 147 554 
Q 155 554 , 170 554 
L 170 554 
Q 159 554 , 149 554 
Q 139 554 , 128 554 
Q 101 554 , 86 554 
Q 70 554 , 70 554 
Q 70 554 , 86 554 
Q 101 554 , 128 554 
Q 139 554 , 149 554 
Q 160 554 , 170 554 
" fill="#545FFF" />
<path d="
M 154 553 
L 154 553 
L 125 553 
L 125 553 
L 170 553 
L 170 553 
Q 159 553 , 148 553 
Q 139 553 , 127 553 
Q 101 553 , 85 553 
Q 70 553 , 70 553 
Q 70 553 , 85 553 
Q 101 553 , 127 553 
Q 138 553 , 147 553 
Q 157 553 , 167 553 
L 167 553 
Q 154 553 , 146 553 
Q 137 553 , 128 553 
Q 107 553 , 96 553 
Q 86 553 , 86 553 
Q 86 553 , 96 553 
Q 107 553 , 128 553 
Q 137 553 , 144 553 
Q 151 553 , 154 553 
" fill="#F5C000" />
<path d="
M 70 552 
L 88 552 
L 88 552 
Q 88 552 , 96 552 
Q 103 552 , 120 552 
Q 137 552 , 145 552 
Q 152 552 , 152 552 
L 152 552 
L 170 552 
L 170 552 
Q 170 552 , 157 552 
Q 145 552 , 120 552 
Q 96 552 , 83 552 
Q 70 552 , 70 552 
L 70 552 
" fill="#D21010" />
<path d="
M 120 551 
L 102 551 
L 136 551 
L 120 551 
M 113 551 
L 127 551 
L 170 551 
L 154 551 
L 142 551 
L 98 551 
L 85 551 
L 70 551 
L 113 551 
" fill="#339541" />
<path d="
M 259 554 
L 259 554 
L 230 554 
L 230 553 
L 275 553 
L 275 554 
Q 264 555 , 253 555 
Q 244 555 , 232 555 
Q 206 555 , 190 554 
Q 175 554 , 175 553 
Q 175 553 , 190 552 
Q 206 552 , 232 552 
Q 243 552 , 252 552 
Q 262 552 , 272 552 
L 272 553 
Q 259 552 , 251 552 
Q 242 552 , 233 552 
Q 212 552 , 201 553 
Q 191 553 , 191 553 
Q 191 554 , 201 554 
Q 212 554 , 233 554 
Q 242 554 , 249 554 
Q 256 554 , 259 554 
" fill="#F5C000" />
<path d="
M 225 536 
L 207 544 
L 241 544 
L 225 536 
M 218 533 
L 232 533 
L 275 552 
L 259 552 
L 247 546 
L 203 546 
L 190 552 
L 175 552 
L 218 533 
" fill="#339541" />
<path d="
M 275 511 
L 275 514 
Q 260 512 , 252 511 
Q 244 511 , 234 511 
Q 213 511 , 203 513 
Q 191 515 , 191 520 
Q 191 525 , 203 527 
Q 213 530 , 234 530 
Q 244 530 , 252 529 
Q 260 528 , 275 526 
L 275 530 
Q 264 531 , 254 532 
Q 244 532 , 233 532 
Q 206 532 , 191 529 
Q 175 526 , 175 520 
Q 175 515 , 191 511 
Q 206 508 , 233 508 
Q 244 508 , 254 509 
Q 265 509 , 275 511 
" fill="#545FFF" />
<path d="
M 175 465 
L 193 465 
L 193 490 
Q 193 497 , 201 500 
Q 208 503 , 225 503 
Q 242 503 , 250 500 
Q 257 497 , 257 490 
L 257 465 
L 275 465 
L 275 491 
Q 275 499 , 262 503 
Q 250 508 , 225 508 
Q 201 508 , 188 503 
Q 175 499 , 175 491 
L 175 465 
" fill="#D21010" />
<path d="
M 280 549 
L 298 549 
L 298 552 
Q 298 553 , 306 553 
Q 313 553 , 330 553 
Q 347 553 , 355 553 
Q 362 553 , 362 552 
L 362 549 
L 380 549 
L 380 552 
Q 380 553 , 367 553 
Q 355 554 , 330 554 
Q 306 554 , 293 553 
Q 280 553 , 280 552 
L 280 549 
" fill="#D21010" />
<path d="
M 330 540 
L 312 544 
L 346 544 
L 330 540 
M 323 538 
L 337 538 
L 380 548 
L 364 548 
L 352 545 
L 308 545 
L 295 548 
L 280 548 
L 323 538 
" fill="#339541" />
<path d="
M 380 518 
L 380 521 
Q 365 519 , 357 519 
Q 349 518 , 339 518 
Q 318 518 , 308 520 
Q 296 522 , 296 526 
Q 296 531 , 308 533 
Q 318 535 , 339 535 
Q 349 535 , 357 534 
Q 365 534 , 380 532 
L 380 535 
Q 369 536 , 359 537 
Q 349 537 , 338 537 
Q 311 537 , 296 534 
Q 280 531 , 280 527 
Q 280 522 , 296 519 
Q 311 516 , 338 516 
Q 349 516 , 359 517 
Q 370 517 , 380 518 
" fill="#545FFF" />
<path d="
M 364 511 
L 364 503 
L 335 503 
L 335 500 
L 380 500 
L 380 513 
Q 369 515 , 358 515 
Q 349 516 , 337 516 
Q 311 516 , 295 512 
Q 280 508 , 280 500 
Q 280 493 , 295 489 
Q 311 485 , 337 485 
Q 348 485 , 357 486 
Q 367 486 , 377 487 
L 377 491 
Q 364 490 , 356 489 
Q 347 489 , 338 489 
Q 317 489 , 306 492 
Q 296 494 , 296 500 
Q 296 506 , 306 509 
Q 317 512 , 338 512 
Q 347 512 , 354 512 
Q 361 512 , 364 511 
" fill="#F5C000" />
<path d="
M 385 548 
L 403 548 
L 403 552 
Q 403 553 , 411 554 
Q 418 554 , 435 554 
Q 452 554 , 460 554 
Q 467 553 , 467 552 
L 467 548 
L 485 548 
L 485 552 
Q 485 553 , 472 554 
Q 460 555 , 435 555 
Q 411 555 , 398 554 
Q 385 553 , 385 552 
L 385 548 
" fill="#D21010" />
<path d="
M 435 541 
L 417 544 
L 451 544 
L 435 541 
M 428 539 
L 442 539 
L 485 548 
L 469 548 
L 457 545 
L 413 545 
L 400 548 
L 385 548 
L 428 539 
" fill="#339541" />
<path d="
M 485 502 
L 485 508 
Q 470 504 , 462 504 
Q 454 502 , 444 502 
Q 423 502 , 413 506 
Q 401 510 , 401 518 
Q 401 526 , 413 530 
Q 423 534 , 444 534 
Q 454 534 , 462 533 
Q 470 532 , 485 528 
L 485 534 
Q 474 536 , 464 537 
Q 454 538 , 443 538 
Q 416 538 , 401 533 
Q 385 527 , 385 518 
Q 385 509 , 401 504 
Q 416 498 , 443 498 
Q 454 498 , 464 499 
Q 475 500 , 485 502 
" fill="#545FFF" />
<path d="
M 469 489 
L 469 472 
L 440 472 
L 440 465 
L 485 465 
L 485 493 
Q 474 495 , 463 496 
Q 454 497 , 442 497 
Q 416 497 , 400 489 
Q 385 481 , 385 467 
Q 385 452 , 400 444 
Q 416 436 , 442 436 
Q 453 436 , 462 437 
Q 472 438 , 482 441 
L 482 449 
Q 469 445 , 461 444 
Q 452 443 , 443 443 
Q 422 443 , 411 449 
Q 401 455 , 401 467 
Q 401 479 , 411 485 
Q 422 491 , 443 491 
Q 452 491 , 459 490 
Q 466 489 , 469 489 
" fill="#F5C000" />
<path d="
M 574 554 
L 574 552 
L 545 552 
L 545 552 
L 590 552 
L 590 554 
Q 579 554 , 568 554 
Q 559 554 , 547 554 
Q 521 554 , 505 554 
Q 490 553 , 490 552 
Q 490 550 , 505 550 
Q 521 549 , 547 549 
Q 558 549 , 567 549 
Q 577 549 , 587 549 
L 587 550 
Q 574 550 , 566 550 
Q 557 550 , 548 550 
Q 527 550 , 516 550 
Q 506 551 , 506 552 
Q 506 553 , 516 553 
Q 527 554 , 548 554 
Q 557 554 , 564 554 
Q 571 554 , 574 554 
" fill="#F5C000" />
<path d="
M 590 543 
L 590 544 
Q 575 543 , 567 543 
Q 559 543 , 549 543 
Q 528 543 , 518 543 
Q 506 544 , 506 545 
Q 506 547 , 518 547 
Q 528 548 , 549 548 
Q 559 548 , 567 548 
Q 575 548 , 590 547 
L 590 548 
Q 579 549 , 569 549 
Q 559 549 , 548 549 
Q 521 549 , 506 548 
Q 490 547 , 490 545 
Q 490 544 , 506 543 
Q 521 542 , 548 542 
Q 559 542 , 569 542 
Q 580 542 , 590 543 
" fill="#545FFF" />
<path d="
M 540 489 
L 522 515 
L 556 515 
L 540 489 
M 533 477 
L 547 477 
L 590 542 
L 574 542 
L 562 523 
L 518 523 
L 505 542 
L 490 542 
L 533 477 
" fill="#339541" />
<path d="
M 490 407 
L 508 407 
L 508 448 
Q 508 460 , 516 465 
Q 523 469 , 540 469 
Q 557 469 , 565 465 
Q 572 460 , 572 448 
L 572 407 
L 590 407 
L 590 449 
Q 590 463 , 577 470 
Q 565 477 , 540 477 
Q 516 477 , 503 470 
Q 490 463 , 490 449 
L 490 407 
" fill="#D21010" />
<path d="
M 645 543 
L 627 549 
L 661 549 
L 645 543 
M 638 541 
L 652 541 
L 695 554 
L 679 554 
L 667 550 
L 623 550 
L 610 554 
L 595 554 
L 638 541 
" fill="#339541" />
<path d="
M 595 526 
L 613 526 
L 613 535 
Q 613 537 , 621 538 
Q 628 539 , 645 539 
Q 662 539 , 670 538 
Q 677 537 , 677 535 
L 677 526 
L 695 526 
L 695 535 
Q 695 538 , 682 539 
Q 670 541 , 645 541 
Q 621 541 , 608 539 
Q 595 538 , 595 535 
L 595 526 
" fill="#D21010" />
<path d="
M 695 505 
L 695 509 
Q 680 507 , 672 506 
Q 664 505 , 654 505 
Q 633 505 , 623 508 
Q 611 510 , 611 514 
Q 611 518 , 623 521 
Q 633 523 , 654 523 
Q 664 523 , 672 522 
Q 680 522 , 695 519 
L 695 523 
Q 684 524 , 674 525 
Q 664 525 , 653 525 
Q 626 525 , 611 522 
Q 595 519 , 595 514 
Q 595 509 , 611 506 
Q 626 503 , 653 503 
Q 664 503 , 674 504 
Q 685 504 , 695 505 
" fill="#545FFF" />
<path d="
M 679 483 
L 679 448 
L 650 448 
L 650 433 
L 695 433 
L 695 492 
Q 684 498 , 673 500 
Q 664 502 , 652 502 
Q 626 502 , 610 484 
Q 595 467 , 595 436 
Q 595 405 , 610 388 
Q 626 370 , 652 370 
Q 663 370 , 672 372 
Q 682 375 , 692 381 
L 692 398 
Q 679 390 , 671 388 
Q 662 386 , 653 386 
Q 632 386 , 621 398 
Q 611 411 , 611 436 
Q 611 462 , 621 475 
Q 632 488 , 653 488 
Q 662 488 , 669 486 
Q 676 485 , 679 483 
" fill="#F5C000" />
<path d="
M 700 552 
L 718 552 
L 718 554 
Q 718 554 , 726 554 
Q 733 554 , 750 554 
Q 767 554 , 775 554 
Q 782 554 , 782 554 
L 782 552 
L 800 552 
L 800 554 
Q 800 554 , 787 554 
Q 775 555 , 750 555 
Q 726 555 , 713 554 
Q 700 554 , 700 554 
L 700 552 
" fill="#D21010" />
<path d="
M 800 535 
L 800 538 
Q 785 536 , 777 535 
Q 769 535 , 759 535 
Q 738 535 , 728 537 
Q 716 539 , 716 542 
Q 716 546 , 728 548 
Q 738 549 , 759 549 
Q 769 549 , 777 549 
Q 785 548 , 800 547 
L 800 549 
Q 789 550 , 779 551 
Q 769 551 , 758 551 
Q 731 551 , 716 549 
Q 700 546 , 700 542 
Q 700 538 , 716 535 
Q 731 533 , 758 533 
Q 769 533 , 779 533 
Q 790 534 , 800 535 
" fill="#545FFF" />
<path d="
M 750 517 
L 732 525 
L 766 525 
L 750 517 
M 743 513 
L 757 513 
L 800 533 
L 784 533 
L 772 527 
L 728 527 
L 715 533 
L 700 533 
L 743 513 
" fill="#339541" />
<path d="
M 784 509 
L 784 500 
L 755 500 
L 755 497 
L 800 497 
L 800 511 
Q 789 512 , 778 512 
Q 769 513 , 757 513 
Q 731 513 , 715 509 
Q 700 505 , 700 497 
Q 700 490 , 715 486 
Q 731 482 , 757 482 
Q 768 482 , 777 483 
Q 787 483 , 797 485 
L 797 488 
Q 784 487 , 776 486 
Q 767 486 , 758 486 
Q 737 486 , 726 489 
Q 716 492 , 716 497 
Q 716 504 , 726 507 
Q 737 510 , 758 510 
Q 767 510 , 774 509 
Q 781 509 , 784 509 
" fill="#F5C000" />
<path d="
M 889 553 
L 889 552 
L 860 552 
L 860 551 
L 905 551 
L 905 554 
Q 894 554 , 883 554 
Q 874 554 , 862 554 
Q 836 554 , 820 553 
Q 805 553 , 805 551 
Q 805 550 , 820 549 
Q 836 548 , 862 548 
Q 873 548 , 882 548 
Q 892 548 , 902 549 
L 902 549 
Q 889 549 , 881 549 
Q 872 549 , 863 549 
Q 842 549 , 831 549 
Q 821 550 , 821 551 
Q 821 552 , 831 553 
Q 842 554 , 863 554 
Q 872 554 , 879 554 
Q 886 553 , 889 553 
" fill="#F5C000" />
<path d="
M 905 536 
L 905 538 
Q 890 537 , 882 537 
Q 874 536 , 864 536 
Q 843 536 , 833 538 
Q 821 539 , 821 541 
Q 821 544 , 833 545 
Q 843 546 , 864 546 
Q 874 546 , 882 546 
Q 890 545 , 905 544 
L 905 546 
Q 894 547 , 884 547 
Q 874 547 , 863 547 
Q 836 547 , 821 546 
Q 805 544 , 805 541 
Q 805 538 , 821 537 
Q 836 535 , 863 535 
Q 874 535 , 884 535 
Q 895 536 , 905 536 
" fill="#545FFF" />
<path d="
M 805 499 
L 823 499 
L 823 520 
Q 823 526 , 831 528 
Q 838 531 , 855 531 
Q 872 531 , 880 528 
Q 887 526 , 887 520 
L 887 499 
L 905 499 
L 905 521 
Q 905 527 , 892 531 
Q 880 535 , 855 535 
Q 831 535 , 818 531 
Q 805 527 , 805 521 
L 805 499 
" fill="#D21010" />
<path d="
M 855 425 
L 837 462 
L 871 462 
L 855 425 
M 848 409 
L 862 409 
L 905 498 
L 889 498 
L 877 472 
L 833 472 
L 820 498 
L 805 498 
L 848 409 
" fill="#339541" />
<path d="
M 910 543 
L 928 543 
L 928 550 
Q 928 552 , 936 553 
Q 943 553 , 960 553 
Q 977 553 , 985 553 
Q 992 552 , 992 550 
L 992 543 
L 1010 543 
L 1010 550 
Q 1010 552 , 997 553 
Q 985 555 , 960 555 
Q 936 555 , 923 553 
Q 910 552 , 910 550 
L 910 543 
" fill="#D21010" />
<path d="
M 1010 526 
L 1010 529 
Q 995 527 , 987 526 
Q 979 526 , 969 526 
Q 948 526 , 938 528 
Q 926 530 , 926 533 
Q 926 537 , 938 538 
Q 948 540 , 969 540 
Q 979 540 , 987 540 
Q 995 539 , 1010 537 
L 1010 540 
Q 999 541 , 989 542 
Q 979 542 , 968 542 
Q 941 542 , 926 540 
Q 910 537 , 910 533 
Q 910 529 , 926 526 
Q 941 524 , 968 524 
Q 979 524 , 989 524 
Q 1000 525 , 1010 526 
" fill="#545FFF" />
<path d="
M 960 508 
L 942 516 
L 976 516 
L 960 508 
M 953 505 
L 967 505 
L 1010 523 
L 994 523 
L 982 518 
L 938 518 
L 925 523 
L 910 523 
L 953 505 
" fill="#339541" />
<path d="
M 994 490 
L 994 463 
L 965 463 
L 965 451 
L 1010 451 
L 1010 497 
Q 999 501 , 988 503 
Q 979 505 , 967 505 
Q 941 505 , 925 491 
Q 910 478 , 910 454 
Q 910 429 , 925 416 
Q 941 402 , 967 402 
Q 978 402 , 987 404 
Q 997 406 , 1007 410 
L 1007 424 
Q 994 418 , 986 416 
Q 977 414 , 968 414 
Q 947 414 , 936 424 
Q 926 434 , 926 454 
Q 926 474 , 936 484 
Q 947 494 , 968 494 
Q 977 494 , 984 493 
Q 991 491 , 994 490 
" fill="#F5C000" />
<path d="
M 1115 554 
L 1115 554 
Q 1100 554 , 1092 554 
Q 1084 554 , 1074 554 
Q 1053 554 , 1043 554 
Q 1031 554 , 1031 554 
Q 1031 554 , 1043 554 
Q 1053 554 , 1074 554 
Q 1084 554 , 1092 554 
Q 1100 554 , 1115 554 
L 1115 554 
Q 1104 554 , 1094 554 
Q 1084 554 , 1073 554 
Q 1046 554 , 1031 554 
Q 1015 554 , 1015 554 
Q 1015 554 , 1031 554 
Q 1046 554 , 1073 554 
Q 1084 554 , 1094 554 
Q 1105 554 , 1115 554 
" fill="#545FFF" />
<path d="
M 1099 553 
L 1099 553 
L 1070 553 
L 1070 553 
L 1115 553 
L 1115 553 
Q 1104 553 , 1093 553 
Q 1084 553 , 1072 553 
Q 1046 553 , 1030 553 
Q 1015 553 , 1015 553 
Q 1015 553 , 1030 553 
Q 1046 553 , 1072 553 
Q 1083 553 , 1092 553 
Q 1102 553 , 1112 553 
L 1112 553 
Q 1099 553 , 1091 553 
Q 1082 553 , 1073 553 
Q 1052 553 , 1041 553 
Q 1031 553 , 1031 553 
Q 1031 553 , 1041 553 
Q 1052 553 , 1073 553 
Q 1082 553 , 1089 553 
Q 1096 553 , 1099 553 
" fill="#F5C000" />
<path d="
M 1015 552 
L 1033 552 
L 1033 552 
Q 1033 552 , 1041 552 
Q 1048 552 , 1065 552 
Q 1082 552 , 1090 552 
Q 1097 552 , 1097 552 
L 1097 552 
L 1115 552 
L 1115 552 
Q 1115 552 , 1102 552 
Q 1090 552 , 1065 552 
Q 1041 552 , 1028 552 
Q 1015 552 , 1015 552 
L 1015 552 
" fill="#D21010" />
<path d="
M 1065 551 
L 1047 551 
L 1081 551 
L 1065 551 
M 1058 551 
L 1072 551 
L 1115 551 
L 1099 551 
L 1087 551 
L 1043 551 
L 1030 551 
L 1015 551 
L 1058 551 
" fill="#339541" />
<path d="M 65 55 L 65 555 " stroke="black" stroke-width="1.5"/>
<path d="M 55 555 L 65 555 " stroke="black" stroke-width="4"/>
<text text-anchor="end" x="50" y="555" font-size="50" alignment-baseline="middle">0</text>
<path d="M 55 305 L 65 305 " stroke="black" stroke-width="4"/>
<text text-anchor="end" x="50" y="305" font-size="50" alignment-baseline="middle">1</text>
<path d="M 55 55 L 65 55 " stroke="black" stroke-width="4"/>
<text text-anchor="end" x="50" y="55" font-size="50" alignment-baseline="middle">2</text>
<text text-anchor="middle" x="592" y="50" font-size="50" alignment-baseline="baseline"></text>
G<path d="
M 160 582 
L 126 595 
L 160 608 
L 157 611 
L 123 598 
L 123 623 
L 117 623 
L 117 599 
L 83 611 
L 80 608 
L 114 595 
L 80 582 
L 83 579 
L 117 591 
L 117 567 
L 123 567 
L 123 591 
L 157 579 
L 160 582 
" fill="black" />
<path d="
" fill="black" />
<path d="
M 211 567 
L 238 567 
L 238 623 
L 211 623 
L 211 567 
" fill="black" />
<path d="
" fill="black" />
<path d="
" fill="black" />
<path d="
M 316 567 
L 343 567 
L 343 623 
L 316 623 
L 316 567 
" fill="black" />
<path d="
" fill="black" />
<path d="
" fill="black" />
<path d="
M 421 567 
L 448 567 
L 448 623 
L 421 623 
L 421 567 
" fill="black" />
<path d="
" fill="black" />
<path d="
" fill="black" />
<path d="
M 526 567 
L 553 567 
L 553 623 
L 526 623 
L 526 567 
" fill="black" />
<path d="
" fill="black" />
<path d="
" fill="black" />
<path d="
M 631 567 
L 658 567 
L 658 623 
L 631 623 
L 631 567 
" fill="black" />
<path d="
" fill="black" />
<path d="
" fill="black" />
<path d="
M 736 567 
L 763 567 
L 763 623 
L 736 623 
L 736 567 
" fill="black" />
<path d="
" fill="black" />
<path d="
" fill="black" />
<path d="
M 841 567 
L 868 567 
L 868 623 
L 841 623 
L 841 567 
" fill="black" />
<path d="
" fill="black" />
<path d="
" fill="black" />
<path d="
M 946 567 
L 973 567 
L 973 623 
L 946 623 
L 946 567 
" fill="black" />
<path d="
" fill="black" />
<path d="
M 1105 582 
L 1071 595 
L 1105 608 
L 1102 611 
L 1068 598 
L 1068 623 
L 1062 623 
L 1062 599 
L 1028 611 
L 1025 608 
L 1059 595 
L 1025 582 
L 1028 579 
L 1062 591 
L 1062 567 
L 1068 567 
L 1068 591 
L 1102 579 
L 1105 582 
" fill="black" />
</svg>
