<svg xmlns="http://www.w3.org/2000/svg"
viewBox="0 0 1435 635">
<path d="
M 70 554 
L 88 554 
L 88 554 
Q 88 555 , 96 555 
Q 103 555 , 120 555 
Q 137 555 , 145 555 
Q 152 555 , 152 554 
L 152 554 
L 170 554 
L 170 554 
Q 170 555 , 157 555 
Q 145 555 , 120 555 
Q 96 555 , 83 555 
Q 70 555 , 70 554 
L 70 554 
" fill="#D21010" />
<path d="
M 120 553 
L 102 553 
L 136 553 
L 120 553 
M 113 553 
L 127 553 
L 170 554 
L 154 554 
L 142 554 
L 98 554 
L 85 554 
L 70 554 
L 113 553 
" fill="#339541" />
<path d="
M 170 552 
L 170 552 
Q 155 552 , 147 552 
Q 139 552 , 129 552 
Q 108 552 , 98 552 
Q 86 552 , 86 552 
Q 86 553 , 98 553 
Q 108 553 , 129 553 
Q 139 553 , 147 553 
Q 155 553 , 170 553 
L 170 553 
Q 159 553 , 149 553 
Q 139 553 , 128 553 
Q 101 553 , 86 553 
Q 70 553 , 70 552 
Q 70 552 , 86 552 
Q 101 552 , 128 552 
Q 139 552 , 149 552 
Q 160 552 , 170 552 
" fill="#545FFF" />
<path d="
M 154 552 
L 154 552 
L 125 552 
L 125 551 
L 170 551 
L 170 552 
Q 159 552 , 148 552 
Q 139 552 , 127 552 
Q 101 552 , 85 552 
Q 70 552 , 70 551 
Q 70 551 , 85 551 
Q 101 551 , 127 551 
Q 138 551 , 147 551 
Q 157 551 , 167 551 
L 167 551 
Q 154 551 , 146 551 
Q 137 551 , 128 551 
Q 107 551 , 96 551 
Q 86 551 , 86 551 
Q 86 552 , 96 552 
Q 107 552 , 128 552 
Q 137 552 , 144 552 
Q 151 552 , 154 552 
" fill="#F5C000" />
<path d="
M 217 555 
L 217 554 
L 203 554 
L 203 554 
L 225 554 
L 225 555 
Q 220 555 , 214 555 
Q 209 555 , 203 555 
Q 190 555 , 183 555 
Q 175 554 , 175 554 
Q 175 554 , 183 553 
Q 190 553 , 203 553 
Q 209 553 , 214 553 
Q 219 553 , 224 553 
L 224 553 
Q 217 553 , 213 553 
Q 209 553 , 204 553 
Q 194 553 , 188 553 
Q 183 554 , 183 554 
Q 183 554 , 188 555 
Q 194 555 , 204 555 
Q 209 555 , 212 555 
Q 216 555 , 217 555 
" fill="#F5C000" />
<path d="
M 225 553 
L 234 553 
L 234 554 
Q 234 554 , 238 555 
Q 241 555 , 250 555 
Q 259 555 , 262 555 
Q 266 554 , 266 554 
L 266 553 
L 275 553 
L 275 554 
Q 275 555 , 269 555 
Q 262 555 , 250 555 
Q 238 555 , 231 555 
Q 225 555 , 225 554 
L 225 553 
" fill="lightgray" />
<path d="
M 200 550 
L 191 551 
L 208 551 
L 200 550 
M 196 549 
L 204 549 
L 225 552 
L 217 552 
L 211 551 
L 189 551 
L 182 552 
L 175 552 
L 196 549 
" fill="#339541" />
<path d="
M 225 549 
L 234 549 
L 234 551 
Q 234 552 , 238 552 
Q 241 552 , 250 552 
Q 259 552 , 262 552 
Q 266 552 , 266 551 
L 266 549 
L 275 549 
L 275 551 
Q 275 552 , 269 552 
Q 262 552 , 250 552 
Q 238 552 , 231 552 
Q 225 552 , 225 551 
L 225 549 
" fill="lightgray" />
<path d="
M 175 538 
L 184 538 
L 184 544 
Q 184 546 , 188 547 
Q 191 548 , 200 548 
Q 209 548 , 212 547 
Q 216 546 , 216 544 
L 216 538 
L 225 538 
L 225 545 
Q 225 547 , 219 548 
Q 212 549 , 200 549 
Q 188 549 , 181 548 
Q 175 547 , 175 545 
L 175 538 
" fill="#D21010" />
<path d="
M 267 547 
L 267 544 
L 253 544 
L 253 543 
L 275 543 
L 275 548 
Q 270 548 , 264 549 
Q 259 549 , 253 549 
Q 240 549 , 233 547 
Q 225 546 , 225 543 
Q 225 541 , 233 539 
Q 240 538 , 253 538 
Q 259 538 , 264 538 
Q 269 538 , 274 539 
L 274 540 
Q 267 540 , 263 539 
Q 259 539 , 254 539 
Q 244 539 , 238 540 
Q 233 541 , 233 543 
Q 233 546 , 238 547 
Q 244 548 , 254 548 
Q 259 548 , 262 548 
Q 266 547 , 267 547 
" fill="lightgray" />
<path d="
M 175 525 
L 184 525 
L 184 532 
Q 184 534 , 188 535 
Q 191 536 , 200 536 
Q 209 536 , 212 535 
Q 216 534 , 216 532 
L 216 525 
L 225 525 
L 225 533 
Q 225 535 , 219 536 
Q 212 538 , 200 538 
Q 188 538 , 181 536 
Q 175 535 , 175 533 
L 175 525 
" fill="#D21010" />
<path d="
M 250 527 
L 241 532 
L 258 532 
L 250 527 
M 246 525 
L 254 525 
L 275 538 
L 267 538 
L 261 534 
L 239 534 
L 232 538 
L 225 538 
L 246 525 
" fill="lightgray" />
<path d="
M 217 520 
L 217 512 
L 203 512 
L 203 509 
L 225 509 
L 225 522 
Q 220 523 , 214 524 
Q 209 524 , 203 524 
Q 190 524 , 183 520 
Q 175 516 , 175 509 
Q 175 502 , 183 498 
Q 190 494 , 203 494 
Q 209 494 , 214 495 
Q 219 495 , 224 496 
L 224 500 
Q 217 499 , 213 498 
Q 209 498 , 204 498 
Q 194 498 , 188 500 
Q 183 503 , 183 509 
Q 183 515 , 188 518 
Q 194 521 , 204 521 
Q 209 521 , 212 521 
Q 216 520 , 217 520 
" fill="#F5C000" />
<path d="
M 275 497 
L 275 502 
Q 268 499 , 264 498 
Q 259 497 , 254 497 
Q 244 497 , 239 500 
Q 233 503 , 233 509 
Q 233 515 , 239 518 
Q 244 521 , 254 521 
Q 259 521 , 264 520 
Q 268 520 , 275 517 
L 275 521 
Q 270 523 , 264 524 
Q 260 524 , 254 524 
Q 240 524 , 233 520 
Q 225 516 , 225 509 
Q 225 502 , 233 498 
Q 240 494 , 254 494 
Q 260 494 , 265 495 
Q 270 495 , 275 497 
" fill="lightgray" />
<path d="
M 225 466 
L 225 471 
Q 218 468 , 214 467 
Q 209 466 , 204 466 
Q 194 466 , 189 469 
Q 183 472 , 183 478 
Q 183 484 , 189 487 
Q 194 490 , 204 490 
Q 209 490 , 214 489 
Q 218 489 , 225 486 
L 225 490 
Q 220 492 , 214 493 
Q 210 494 , 204 494 
Q 190 494 , 183 489 
Q 175 485 , 175 478 
Q 175 471 , 183 467 
Q 190 463 , 204 463 
Q 210 463 , 215 464 
Q 220 464 , 225 466 
" fill="#545FFF" />
<path d="
M 267 489 
L 267 481 
L 253 481 
L 253 478 
L 275 478 
L 275 491 
Q 270 492 , 264 493 
Q 259 493 , 253 494 
Q 240 494 , 233 489 
Q 225 485 , 225 478 
Q 225 471 , 233 467 
Q 240 463 , 253 463 
Q 259 463 , 264 464 
Q 269 464 , 274 465 
L 274 469 
Q 267 468 , 263 467 
Q 259 467 , 254 467 
Q 244 467 , 238 469 
Q 233 472 , 233 478 
Q 233 484 , 238 487 
Q 244 490 , 254 490 
Q 259 490 , 262 490 
Q 266 490 , 267 489 
" fill="lightgray" />
<path d="
M 280 553 
L 289 553 
L 289 554 
Q 289 554 , 293 554 
Q 296 554 , 305 554 
Q 314 554 , 317 554 
Q 321 554 , 321 554 
L 321 553 
L 330 553 
L 330 554 
Q 330 554 , 324 554 
Q 317 554 , 305 554 
Q 293 554 , 286 554 
Q 280 554 , 280 554 
L 280 553 
" fill="#D21010" />
<path d="
M 372 554 
L 372 554 
L 358 554 
L 358 553 
L 380 553 
L 380 554 
Q 375 554 , 369 554 
Q 364 554 , 358 554 
Q 345 554 , 338 554 
Q 330 554 , 330 554 
Q 330 553 , 338 553 
Q 345 553 , 358 553 
Q 364 553 , 369 553 
Q 374 553 , 379 553 
L 379 553 
Q 372 553 , 368 553 
Q 364 553 , 359 553 
Q 349 553 , 343 553 
Q 338 553 , 338 554 
Q 338 554 , 343 554 
Q 349 554 , 359 554 
Q 364 554 , 367 554 
Q 371 554 , 372 554 
" fill="lightgray" />
<path d="
M 322 553 
L 322 552 
L 308 552 
L 308 552 
L 330 552 
L 330 553 
Q 325 553 , 319 553 
Q 314 553 , 308 553 
Q 295 553 , 288 553 
Q 280 552 , 280 552 
Q 280 552 , 288 551 
Q 295 551 , 308 551 
Q 314 551 , 319 551 
Q 324 551 , 329 551 
L 329 551 
Q 322 551 , 318 551 
Q 314 551 , 309 551 
Q 299 551 , 293 551 
Q 288 552 , 288 552 
Q 288 552 , 293 553 
Q 299 553 , 309 553 
Q 314 553 , 317 553 
Q 321 553 , 322 553 
" fill="#F5C000" />
<path d="
M 330 551 
L 339 551 
L 339 552 
Q 339 552 , 343 553 
Q 346 553 , 355 553 
Q 364 553 , 367 553 
Q 371 552 , 371 552 
L 371 551 
L 380 551 
L 380 552 
Q 380 553 , 374 553 
Q 367 553 , 355 553 
Q 343 553 , 336 553 
Q 330 553 , 330 552 
L 330 551 
" fill="lightgray" />
<path d="
M 280 547 
L 289 547 
L 289 549 
Q 289 550 , 293 550 
Q 296 550 , 305 550 
Q 314 550 , 317 550 
Q 321 550 , 321 549 
L 321 547 
L 330 547 
L 330 549 
Q 330 550 , 324 550 
Q 317 550 , 305 550 
Q 293 550 , 286 550 
Q 280 550 , 280 549 
L 280 547 
" fill="#D21010" />
<path d="
M 355 548 
L 346 549 
L 363 549 
L 355 548 
M 351 547 
L 359 547 
L 380 551 
L 372 551 
L 366 549 
L 344 549 
L 337 551 
L 330 551 
L 351 547 
" fill="lightgray" />
<path d="
M 305 540 
L 296 543 
L 313 543 
L 305 540 
M 301 538 
L 309 538 
L 330 547 
L 322 547 
L 316 544 
L 294 544 
L 287 547 
L 280 547 
L 301 538 
" fill="#339541" />
<path d="
M 330 538 
L 339 538 
L 339 543 
Q 339 544 , 343 545 
Q 346 546 , 355 546 
Q 364 546 , 367 545 
Q 371 544 , 371 543 
L 371 538 
L 380 538 
L 380 543 
Q 380 545 , 374 546 
Q 367 547 , 355 547 
Q 343 547 , 336 546 
Q 330 545 , 330 543 
L 330 538 
" fill="lightgray" />
<path d="
M 330 467 
L 330 480 
Q 323 472 , 319 470 
Q 314 468 , 309 468 
Q 299 468 , 294 475 
Q 288 483 , 288 498 
Q 288 514 , 294 522 
Q 299 529 , 309 529 
Q 314 529 , 319 527 
Q 323 525 , 330 517 
L 330 530 
Q 325 534 , 319 536 
Q 315 538 , 309 538 
Q 295 538 , 288 527 
Q 280 517 , 280 498 
Q 280 480 , 288 470 
Q 295 459 , 309 459 
Q 315 459 , 320 461 
Q 325 463 , 330 467 
" fill="#545FFF" />
<path d="
M 372 527 
L 372 505 
L 358 505 
L 358 497 
L 380 497 
L 380 532 
Q 375 535 , 369 536 
Q 364 538 , 358 538 
Q 345 538 , 338 527 
Q 330 517 , 330 498 
Q 330 480 , 338 470 
Q 345 459 , 358 459 
Q 364 459 , 369 460 
Q 374 462 , 379 465 
L 379 475 
Q 372 471 , 368 470 
Q 364 468 , 359 468 
Q 349 468 , 343 476 
Q 338 483 , 338 498 
Q 338 514 , 343 522 
Q 349 529 , 359 529 
Q 364 529 , 367 528 
Q 371 528 , 372 527 
" fill="lightgray" />
<path d="
M 322 436 
L 322 394 
L 308 394 
L 308 377 
L 330 377 
L 330 447 
Q 325 454 , 319 456 
Q 314 459 , 308 459 
Q 295 459 , 288 438 
Q 280 417 , 280 381 
Q 280 344 , 288 323 
Q 295 302 , 308 302 
Q 314 302 , 319 305 
Q 324 308 , 329 315 
L 329 335 
Q 322 326 , 318 323 
Q 314 321 , 309 321 
Q 299 321 , 293 335 
Q 288 350 , 288 381 
Q 288 411 , 293 427 
Q 299 441 , 309 441 
Q 314 441 , 317 440 
Q 321 438 , 322 436 
" fill="#F5C000" />
<path d="
M 380 319 
L 380 343 
Q 373 327 , 369 323 
Q 364 319 , 359 319 
Q 349 319 , 344 335 
Q 338 350 , 338 380 
Q 338 411 , 344 427 
Q 349 442 , 359 442 
Q 364 442 , 369 438 
Q 373 434 , 380 418 
L 380 443 
Q 375 452 , 369 455 
Q 365 459 , 359 459 
Q 345 459 , 338 438 
Q 330 417 , 330 381 
Q 330 344 , 338 323 
Q 345 302 , 359 302 
Q 365 302 , 370 306 
Q 375 310 , 380 319 
" fill="lightgray" />
<path d="
M 385 554 
L 403 554 
L 403 555 
Q 403 555 , 411 555 
Q 418 555 , 435 555 
Q 452 555 , 460 555 
Q 467 555 , 467 555 
L 467 554 
L 485 554 
L 485 555 
Q 485 555 , 472 555 
Q 460 555 , 435 555 
Q 411 555 , 398 555 
Q 385 555 , 385 555 
L 385 554 
" fill="#D21010" />
<path d="
M 469 551 
L 469 547 
L 440 547 
L 440 545 
L 485 545 
L 485 553 
Q 474 553 , 463 554 
Q 454 554 , 442 554 
Q 416 554 , 400 552 
Q 385 549 , 385 545 
Q 385 541 , 400 538 
Q 416 536 , 442 536 
Q 453 536 , 462 536 
Q 472 537 , 482 537 
L 482 540 
Q 469 539 , 461 538 
Q 452 538 , 443 538 
Q 422 538 , 411 540 
Q 401 542 , 401 545 
Q 401 549 , 411 550 
Q 422 552 , 443 552 
Q 452 552 , 459 552 
Q 466 552 , 469 551 
" fill="#F5C000" />
<path d="
M 435 518 
L 417 527 
L 451 527 
L 435 518 
M 428 514 
L 442 514 
L 485 535 
L 469 535 
L 457 529 
L 413 529 
L 400 535 
L 385 535 
L 428 514 
" fill="#339541" />
<path d="
M 485 490 
L 485 494 
Q 470 491 , 462 491 
Q 454 490 , 444 490 
Q 423 490 , 413 492 
Q 401 495 , 401 500 
Q 401 505 , 413 508 
Q 423 510 , 444 510 
Q 454 510 , 462 510 
Q 470 509 , 485 506 
L 485 510 
Q 474 512 , 464 512 
Q 454 513 , 443 513 
Q 416 513 , 401 509 
Q 385 506 , 385 500 
Q 385 494 , 401 491 
Q 416 487 , 443 487 
Q 454 487 , 464 488 
Q 475 488 , 485 490 
" fill="#545FFF" />
<path d="
M 574 554 
L 574 554 
L 545 554 
L 545 554 
L 590 554 
L 590 554 
Q 579 554 , 568 554 
Q 559 554 , 547 554 
Q 521 554 , 505 554 
Q 490 554 , 490 554 
Q 490 553 , 505 553 
Q 521 553 , 547 553 
Q 558 553 , 567 553 
Q 577 553 , 587 553 
L 587 553 
Q 574 553 , 566 553 
Q 557 553 , 548 553 
Q 527 553 , 516 553 
Q 506 553 , 506 554 
Q 506 554 , 516 554 
Q 527 554 , 548 554 
Q 557 554 , 564 554 
Q 571 554 , 574 554 
" fill="#F5C000" />
<path d="
M 540 551 
L 522 552 
L 556 552 
L 540 551 
M 533 551 
L 547 551 
L 590 552 
L 574 552 
L 562 552 
L 518 552 
L 505 552 
L 490 552 
L 533 551 
" fill="#339541" />
<path d="
M 590 549 
L 590 549 
Q 575 549 , 567 549 
Q 559 549 , 549 549 
Q 528 549 , 518 549 
Q 506 549 , 506 549 
Q 506 550 , 518 550 
Q 528 550 , 549 550 
Q 559 550 , 567 550 
Q 575 550 , 590 550 
L 590 550 
Q 579 551 , 569 551 
Q 559 551 , 548 551 
Q 521 551 , 506 550 
Q 490 550 , 490 550 
Q 490 549 , 506 549 
Q 521 549 , 548 549 
Q 559 549 , 569 549 
Q 580 549 , 590 549 
" fill="#545FFF" />
<path d="
M 490 547 
L 508 547 
L 508 548 
Q 508 548 , 516 548 
Q 523 549 , 540 549 
Q 557 549 , 565 548 
Q 572 548 , 572 548 
L 572 547 
L 590 547 
L 590 548 
Q 590 548 , 577 549 
Q 565 549 , 540 549 
Q 516 549 , 503 549 
Q 490 548 , 490 548 
L 490 547 
" fill="#D21010" />
<path d="
M 595 550 
L 613 550 
L 613 553 
Q 613 553 , 621 554 
Q 628 554 , 645 554 
Q 662 554 , 670 554 
Q 677 553 , 677 553 
L 677 550 
L 695 550 
L 695 553 
Q 695 554 , 682 554 
Q 670 554 , 645 554 
Q 621 554 , 608 554 
Q 595 554 , 595 553 
L 595 550 
" fill="#D21010" />
<path d="
M 645 544 
L 627 547 
L 661 547 
L 645 544 
M 638 543 
L 652 543 
L 695 549 
L 679 549 
L 667 547 
L 623 547 
L 610 549 
L 595 549 
L 638 543 
" fill="#339541" />
<path d="
M 695 511 
L 695 516 
Q 680 513 , 672 512 
Q 664 511 , 654 511 
Q 633 511 , 623 514 
Q 611 518 , 611 525 
Q 611 532 , 623 535 
Q 633 539 , 654 539 
Q 664 539 , 672 538 
Q 680 537 , 695 534 
L 695 539 
Q 684 541 , 674 542 
Q 664 543 , 653 543 
Q 626 543 , 611 538 
Q 595 533 , 595 525 
Q 595 517 , 611 512 
Q 626 507 , 653 507 
Q 664 507 , 674 508 
Q 685 509 , 695 511 
" fill="#545FFF" />
<path d="
M 679 488 
L 679 453 
L 650 453 
L 650 439 
L 695 439 
L 695 496 
Q 684 502 , 673 504 
Q 664 506 , 652 506 
Q 626 506 , 610 489 
Q 595 472 , 595 442 
Q 595 411 , 610 394 
Q 626 377 , 652 377 
Q 663 377 , 672 379 
Q 682 382 , 692 387 
L 692 404 
Q 679 397 , 671 394 
Q 662 392 , 653 392 
Q 632 392 , 621 404 
Q 611 417 , 611 442 
Q 611 467 , 621 479 
Q 632 492 , 653 492 
Q 662 492 , 669 490 
Q 676 489 , 679 488 
" fill="#F5C000" />
<path d="
M 700 554 
L 718 554 
L 718 554 
Q 718 555 , 726 555 
Q 733 555 , 750 555 
Q 767 555 , 775 555 
Q 782 555 , 782 554 
L 782 554 
L 800 554 
L 800 554 
Q 800 555 , 787 555 
Q 775 555 , 750 555 
Q 726 555 , 713 555 
Q 700 555 , 700 554 
L 700 554 
" fill="#D21010" />
<path d="
M 750 553 
L 732 553 
L 766 553 
L 750 553 
M 743 553 
L 757 553 
L 800 554 
L 784 554 
L 772 554 
L 728 554 
L 715 554 
L 700 554 
L 743 553 
" fill="#339541" />
<path d="
M 800 552 
L 800 552 
Q 785 552 , 777 552 
Q 769 552 , 759 552 
Q 738 552 , 728 552 
Q 716 552 , 716 552 
Q 716 553 , 728 553 
Q 738 553 , 759 553 
Q 769 553 , 777 553 
Q 785 553 , 800 553 
L 800 553 
Q 789 553 , 779 553 
Q 769 553 , 758 553 
Q 731 553 , 716 553 
Q 700 553 , 700 552 
Q 700 552 , 716 552 
Q 731 552 , 758 552 
Q 769 552 , 779 552 
Q 790 552 , 800 552 
" fill="#545FFF" />
<path d="
M 784 552 
L 784 552 
L 755 552 
L 755 551 
L 800 551 
L 800 552 
Q 789 552 , 778 552 
Q 769 552 , 757 552 
Q 731 552 , 715 552 
Q 700 552 , 700 551 
Q 700 551 , 715 551 
Q 731 551 , 757 551 
Q 768 551 , 777 551 
Q 787 551 , 797 551 
L 797 551 
Q 784 551 , 776 551 
Q 767 551 , 758 551 
Q 737 551 , 726 551 
Q 716 551 , 716 551 
Q 716 552 , 726 552 
Q 737 552 , 758 552 
Q 767 552 , 774 552 
Q 781 552 , 784 552 
" fill="#F5C000" />
<path d="
M 889 554 
L 889 553 
L 860 553 
L 860 553 
L 905 553 
L 905 554 
Q 894 554 , 883 554 
Q 874 554 , 862 554 
Q 836 554 , 820 554 
Q 805 554 , 805 553 
Q 805 553 , 820 552 
Q 836 552 , 862 552 
Q 873 552 , 882 552 
Q 892 552 , 902 552 
L 902 552 
Q 889 552 , 881 552 
Q 872 552 , 863 552 
Q 842 552 , 831 552 
Q 821 553 , 821 553 
Q 821 553 , 831 554 
Q 842 554 , 863 554 
Q 872 554 , 879 554 
Q 886 554 , 889 554 
" fill="#F5C000" />
<path d="
M 855 549 
L 837 550 
L 871 550 
L 855 549 
M 848 548 
L 862 548 
L 905 551 
L 889 551 
L 877 550 
L 833 550 
L 820 551 
L 805 551 
L 848 548 
" fill="#339541" />
<path d="
M 805 544 
L 823 544 
L 823 546 
Q 823 547 , 831 547 
Q 838 547 , 855 547 
Q 872 547 , 880 547 
Q 887 547 , 887 546 
L 887 544 
L 905 544 
L 905 546 
Q 905 547 , 892 547 
Q 880 548 , 855 548 
Q 831 548 , 818 547 
Q 805 547 , 805 546 
L 805 544 
" fill="#D21010" />
<path d="
M 905 539 
L 905 539 
Q 890 539 , 882 539 
Q 874 539 , 864 539 
Q 843 539 , 833 539 
Q 821 540 , 821 541 
Q 821 542 , 833 542 
Q 843 543 , 864 543 
Q 874 543 , 882 542 
Q 890 542 , 905 542 
L 905 543 
Q 894 543 , 884 543 
Q 874 543 , 863 543 
Q 836 543 , 821 542 
Q 805 542 , 805 541 
Q 805 539 , 821 539 
Q 836 538 , 863 538 
Q 874 538 , 884 538 
Q 895 538 , 905 539 
" fill="#545FFF" />
<path d="
M 910 553 
L 919 553 
L 919 554 
Q 919 554 , 923 554 
Q 926 554 , 935 554 
Q 944 554 , 947 554 
Q 951 554 , 951 554 
L 951 553 
L 960 553 
L 960 554 
Q 960 554 , 954 554 
Q 947 554 , 935 554 
Q 923 554 , 916 554 
Q 910 554 , 910 554 
L 910 553 
" fill="lightgray" />
<path d="
M 1002 554 
L 1002 554 
L 988 554 
L 988 553 
L 1010 553 
L 1010 554 
Q 1005 554 , 999 554 
Q 994 554 , 988 554 
Q 975 554 , 968 554 
Q 960 554 , 960 554 
Q 960 553 , 968 553 
Q 975 553 , 988 553 
Q 994 553 , 999 553 
Q 1004 553 , 1009 553 
L 1009 553 
Q 1002 553 , 998 553 
Q 994 553 , 989 553 
Q 979 553 , 973 553 
Q 968 553 , 968 554 
Q 968 554 , 973 554 
Q 979 554 , 989 554 
Q 994 554 , 997 554 
Q 1001 554 , 1002 554 
" fill="#F5C000" />
<path d="
M 952 553 
L 952 552 
L 938 552 
L 938 552 
L 960 552 
L 960 553 
Q 955 553 , 949 553 
Q 944 553 , 938 553 
Q 925 553 , 918 553 
Q 910 552 , 910 552 
Q 910 552 , 918 551 
Q 925 551 , 938 551 
Q 944 551 , 949 551 
Q 954 551 , 959 551 
L 959 551 
Q 952 551 , 948 551 
Q 944 551 , 939 551 
Q 929 551 , 923 551 
Q 918 552 , 918 552 
Q 918 552 , 923 553 
Q 929 553 , 939 553 
Q 944 553 , 947 553 
Q 951 553 , 952 553 
" fill="lightgray" />
<path d="
M 960 551 
L 969 551 
L 969 552 
Q 969 552 , 973 553 
Q 976 553 , 985 553 
Q 994 553 , 997 553 
Q 1001 552 , 1001 552 
L 1001 551 
L 1010 551 
L 1010 552 
Q 1010 553 , 1004 553 
Q 997 553 , 985 553 
Q 973 553 , 966 553 
Q 960 553 , 960 552 
L 960 551 
" fill="#D21010" />
<path d="
M 910 547 
L 919 547 
L 919 549 
Q 919 550 , 923 550 
Q 926 550 , 935 550 
Q 944 550 , 947 550 
Q 951 550 , 951 549 
L 951 547 
L 960 547 
L 960 549 
Q 960 550 , 954 550 
Q 947 550 , 935 550 
Q 923 550 , 916 550 
Q 910 550 , 910 549 
L 910 547 
" fill="lightgray" />
<path d="
M 985 548 
L 976 549 
L 993 549 
L 985 548 
M 981 547 
L 989 547 
L 1010 551 
L 1002 551 
L 996 549 
L 974 549 
L 967 551 
L 960 551 
L 981 547 
" fill="#339541" />
<path d="
M 935 540 
L 926 543 
L 943 543 
L 935 540 
M 931 538 
L 939 538 
L 960 547 
L 952 547 
L 946 544 
L 924 544 
L 917 547 
L 910 547 
L 931 538 
" fill="lightgray" />
<path d="
M 960 538 
L 969 538 
L 969 543 
Q 969 544 , 973 545 
Q 976 546 , 985 546 
Q 994 546 , 997 545 
Q 1001 544 , 1001 543 
L 1001 538 
L 1010 538 
L 1010 543 
Q 1010 545 , 1004 546 
Q 997 547 , 985 547 
Q 973 547 , 966 546 
Q 960 545 , 960 543 
L 960 538 
" fill="#D21010" />
<path d="
M 960 467 
L 960 480 
Q 953 472 , 949 470 
Q 944 468 , 939 468 
Q 929 468 , 924 475 
Q 918 483 , 918 498 
Q 918 514 , 924 522 
Q 929 529 , 939 529 
Q 944 529 , 949 527 
Q 953 525 , 960 517 
L 960 530 
Q 955 534 , 949 536 
Q 945 538 , 939 538 
Q 925 538 , 918 527 
Q 910 517 , 910 498 
Q 910 480 , 918 470 
Q 925 459 , 939 459 
Q 945 459 , 950 461 
Q 955 463 , 960 467 
" fill="lightgray" />
<path d="
M 1002 527 
L 1002 505 
L 988 505 
L 988 497 
L 1010 497 
L 1010 532 
Q 1005 535 , 999 536 
Q 994 538 , 988 538 
Q 975 538 , 968 527 
Q 960 517 , 960 498 
Q 960 480 , 968 470 
Q 975 459 , 988 459 
Q 994 459 , 999 460 
Q 1004 462 , 1009 465 
L 1009 475 
Q 1002 471 , 998 470 
Q 994 468 , 989 468 
Q 979 468 , 973 476 
Q 968 483 , 968 498 
Q 968 514 , 973 522 
Q 979 529 , 989 529 
Q 994 529 , 997 528 
Q 1001 528 , 1002 527 
" fill="#F5C000" />
<path d="
M 952 436 
L 952 394 
L 938 394 
L 938 377 
L 960 377 
L 960 447 
Q 955 454 , 949 456 
Q 944 459 , 938 459 
Q 925 459 , 918 438 
Q 910 417 , 910 381 
Q 910 344 , 918 323 
Q 925 302 , 938 302 
Q 944 302 , 949 305 
Q 954 308 , 959 315 
L 959 335 
Q 952 326 , 948 323 
Q 944 321 , 939 321 
Q 929 321 , 923 335 
Q 918 350 , 918 381 
Q 918 411 , 923 427 
Q 929 441 , 939 441 
Q 944 441 , 947 440 
Q 951 438 , 952 436 
" fill="lightgray" />
<path d="
M 1010 319 
L 1010 343 
Q 1003 327 , 999 323 
Q 994 319 , 989 319 
Q 979 319 , 974 335 
Q 968 350 , 968 380 
Q 968 411 , 974 427 
Q 979 442 , 989 442 
Q 994 442 , 999 438 
Q 1003 434 , 1010 418 
L 1010 443 
Q 1005 452 , 999 455 
Q 995 459 , 989 459 
Q 975 459 , 968 438 
Q 960 417 , 960 381 
Q 960 344 , 968 323 
Q 975 302 , 989 302 
Q 995 302 , 1000 306 
Q 1005 310 , 1010 319 
" fill="#545FFF" />
<path d="
M 1057 555 
L 1057 554 
L 1043 554 
L 1043 554 
L 1065 554 
L 1065 555 
Q 1060 555 , 1054 555 
Q 1049 555 , 1043 555 
Q 1030 555 , 1023 555 
Q 1015 554 , 1015 554 
Q 1015 554 , 1023 553 
Q 1030 553 , 1043 553 
Q 1049 553 , 1054 553 
Q 1059 553 , 1064 553 
L 1064 553 
Q 1057 553 , 1053 553 
Q 1049 553 , 1044 553 
Q 1034 553 , 1028 553 
Q 1023 554 , 1023 554 
Q 1023 554 , 1028 555 
Q 1034 555 , 1044 555 
Q 1049 555 , 1052 555 
Q 1056 555 , 1057 555 
" fill="lightgray" />
<path d="
M 1065 553 
L 1074 553 
L 1074 554 
Q 1074 554 , 1078 555 
Q 1081 555 , 1090 555 
Q 1099 555 , 1102 555 
Q 1106 554 , 1106 554 
L 1106 553 
L 1115 553 
L 1115 554 
Q 1115 555 , 1109 555 
Q 1102 555 , 1090 555 
Q 1078 555 , 1071 555 
Q 1065 555 , 1065 554 
L 1065 553 
" fill="#D21010" />
<path d="
M 1040 550 
L 1031 551 
L 1048 551 
L 1040 550 
M 1036 549 
L 1044 549 
L 1065 552 
L 1057 552 
L 1051 551 
L 1029 551 
L 1022 552 
L 1015 552 
L 1036 549 
" fill="lightgray" />
<path d="
M 1065 549 
L 1074 549 
L 1074 551 
Q 1074 552 , 1078 552 
Q 1081 552 , 1090 552 
Q 1099 552 , 1102 552 
Q 1106 552 , 1106 551 
L 1106 549 
L 1115 549 
L 1115 551 
Q 1115 552 , 1109 552 
Q 1102 552 , 1090 552 
Q 1078 552 , 1071 552 
Q 1065 552 , 1065 551 
L 1065 549 
" fill="#D21010" />
<path d="
M 1015 538 
L 1024 538 
L 1024 544 
Q 1024 546 , 1028 547 
Q 1031 548 , 1040 548 
Q 1049 548 , 1052 547 
Q 1056 546 , 1056 544 
L 1056 538 
L 1065 538 
L 1065 545 
Q 1065 547 , 1059 548 
Q 1052 549 , 1040 549 
Q 1028 549 , 1021 548 
Q 1015 547 , 1015 545 
L 1015 538 
" fill="lightgray" />
<path d="
M 1107 547 
L 1107 544 
L 1093 544 
L 1093 543 
L 1115 543 
L 1115 548 
Q 1110 548 , 1104 549 
Q 1099 549 , 1093 549 
Q 1080 549 , 1073 547 
Q 1065 546 , 1065 543 
Q 1065 541 , 1073 539 
Q 1080 538 , 1093 538 
Q 1099 538 , 1104 538 
Q 1109 538 , 1114 539 
L 1114 540 
Q 1107 540 , 1103 539 
Q 1099 539 , 1094 539 
Q 1084 539 , 1078 540 
Q 1073 541 , 1073 543 
Q 1073 546 , 1078 547 
Q 1084 548 , 1094 548 
Q 1099 548 , 1102 548 
Q 1106 547 , 1107 547 
" fill="#F5C000" />
<path d="
M 1015 525 
L 1024 525 
L 1024 532 
Q 1024 534 , 1028 535 
Q 1031 536 , 1040 536 
Q 1049 536 , 1052 535 
Q 1056 534 , 1056 532 
L 1056 525 
L 1065 525 
L 1065 533 
Q 1065 535 , 1059 536 
Q 1052 538 , 1040 538 
Q 1028 538 , 1021 536 
Q 1015 535 , 1015 533 
L 1015 525 
" fill="lightgray" />
<path d="
M 1090 527 
L 1081 532 
L 1098 532 
L 1090 527 
M 1086 525 
L 1094 525 
L 1115 538 
L 1107 538 
L 1101 534 
L 1079 534 
L 1072 538 
L 1065 538 
L 1086 525 
" fill="#339541" />
<path d="
M 1057 520 
L 1057 512 
L 1043 512 
L 1043 509 
L 1065 509 
L 1065 522 
Q 1060 523 , 1054 524 
Q 1049 524 , 1043 524 
Q 1030 524 , 1023 520 
Q 1015 516 , 1015 509 
Q 1015 502 , 1023 498 
Q 1030 494 , 1043 494 
Q 1049 494 , 1054 495 
Q 1059 495 , 1064 496 
L 1064 500 
Q 1057 499 , 1053 498 
Q 1049 498 , 1044 498 
Q 1034 498 , 1028 500 
Q 1023 503 , 1023 509 
Q 1023 515 , 1028 518 
Q 1034 521 , 1044 521 
Q 1049 521 , 1052 521 
Q 1056 520 , 1057 520 
" fill="lightgray" />
<path d="
M 1115 497 
L 1115 502 
Q 1108 499 , 1104 498 
Q 1099 497 , 1094 497 
Q 1084 497 , 1079 500 
Q 1073 503 , 1073 509 
Q 1073 515 , 1079 518 
Q 1084 521 , 1094 521 
Q 1099 521 , 1104 520 
Q 1108 520 , 1115 517 
L 1115 521 
Q 1110 523 , 1104 524 
Q 1100 524 , 1094 524 
Q 1080 524 , 1073 520 
Q 1065 516 , 1065 509 
Q 1065 502 , 1073 498 
Q 1080 494 , 1094 494 
Q 1100 494 , 1105 495 
Q 1110 495 , 1115 497 
" fill="#545FFF" />
<path d="
M 1065 466 
L 1065 471 
Q 1058 468 , 1054 467 
Q 1049 466 , 1044 466 
Q 1034 466 , 1029 469 
Q 1023 472 , 1023 478 
Q 1023 484 , 1029 487 
Q 1034 490 , 1044 490 
Q 1049 490 , 1054 489 
Q 1058 489 , 1065 486 
L 1065 490 
Q 1060 492 , 1054 493 
Q 1050 494 , 1044 494 
Q 1030 494 , 1023 489 
Q 1015 485 , 1015 478 
Q 1015 471 , 1023 467 
Q 1030 463 , 1044 463 
Q 1050 463 , 1055 464 
Q 1060 464 , 1065 466 
" fill="lightgray" />
<path d="
M 1107 489 
L 1107 481 
L 1093 481 
L 1093 478 
L 1115 478 
L 1115 491 
Q 1110 492 , 1104 493 
Q 1099 493 , 1093 494 
Q 1080 494 , 1073 489 
Q 1065 485 , 1065 478 
Q 1065 471 , 1073 467 
Q 1080 463 , 1093 463 
Q 1099 463 , 1104 464 
Q 1109 464 , 1114 465 
L 1114 469 
Q 1107 468 , 1103 467 
Q 1099 467 , 1094 467 
Q 1084 467 , 1078 469 
Q 1073 472 , 1073 478 
Q 1073 484 , 1078 487 
Q 1084 490 , 1094 490 
Q 1099 490 , 1102 490 
Q 1106 490 , 1107 489 
" fill="#F5C000" />
<path d="
M 1220 553 
L 1220 553 
Q 1205 553 , 1197 553 
Q 1189 553 , 1179 553 
Q 1158 553 , 1148 553 
Q 1136 553 , 1136 553 
Q 1136 554 , 1148 554 
Q 1158 554 , 1179 554 
Q 1189 554 , 1197 554 
Q 1205 554 , 1220 554 
L 1220 554 
Q 1209 554 , 1199 554 
Q 1189 554 , 1178 554 
Q 1151 554 , 1136 554 
Q 1120 554 , 1120 554 
Q 1120 553 , 1136 553 
Q 1151 553 , 1178 553 
Q 1189 553 , 1199 553 
Q 1210 553 , 1220 553 
" fill="#545FFF" />
<path d="
M 1170 550 
L 1152 551 
L 1186 551 
L 1170 550 
M 1163 550 
L 1177 550 
L 1220 552 
L 1204 552 
L 1192 551 
L 1148 551 
L 1135 552 
L 1120 552 
L 1163 550 
" fill="#339541" />
<path d="
M 1120 547 
L 1138 547 
L 1138 548 
Q 1138 549 , 1146 549 
Q 1153 549 , 1170 549 
Q 1187 549 , 1195 549 
Q 1202 549 , 1202 548 
L 1202 547 
L 1220 547 
L 1220 548 
Q 1220 549 , 1207 549 
Q 1195 549 , 1170 549 
Q 1146 549 , 1133 549 
Q 1120 549 , 1120 548 
L 1120 547 
" fill="#D21010" />
<path d="
M 1204 546 
L 1204 546 
L 1175 546 
L 1175 545 
L 1220 545 
L 1220 546 
Q 1209 547 , 1198 547 
Q 1189 547 , 1177 547 
Q 1151 547 , 1135 546 
Q 1120 546 , 1120 545 
Q 1120 545 , 1135 544 
Q 1151 544 , 1177 544 
Q 1188 544 , 1197 544 
Q 1207 544 , 1217 544 
L 1217 545 
Q 1204 544 , 1196 544 
Q 1187 544 , 1178 544 
Q 1157 544 , 1146 545 
Q 1136 545 , 1136 545 
Q 1136 546 , 1146 546 
Q 1157 546 , 1178 546 
Q 1187 546 , 1194 546 
Q 1201 546 , 1204 546 
" fill="#F5C000" />
<path d="
M 1225 553 
L 1243 553 
L 1243 554 
Q 1243 554 , 1251 554 
Q 1258 554 , 1275 554 
Q 1292 554 , 1300 554 
Q 1307 554 , 1307 554 
L 1307 553 
L 1325 553 
L 1325 554 
Q 1325 554 , 1312 554 
Q 1300 555 , 1275 555 
Q 1251 555 , 1238 554 
Q 1225 554 , 1225 554 
L 1225 553 
" fill="#D21010" />
<path d="
M 1275 542 
L 1257 547 
L 1291 547 
L 1275 542 
M 1268 540 
L 1282 540 
L 1325 553 
L 1309 553 
L 1297 549 
L 1253 549 
L 1240 553 
L 1225 553 
L 1268 540 
" fill="#339541" />
<path d="
M 1325 510 
L 1325 515 
Q 1310 511 , 1302 511 
Q 1294 510 , 1284 510 
Q 1263 510 , 1253 513 
Q 1241 516 , 1241 522 
Q 1241 529 , 1253 533 
Q 1263 536 , 1284 536 
Q 1294 536 , 1302 535 
Q 1310 534 , 1325 531 
L 1325 536 
Q 1314 538 , 1304 539 
Q 1294 539 , 1283 539 
Q 1256 539 , 1241 535 
Q 1225 530 , 1225 523 
Q 1225 515 , 1241 511 
Q 1256 506 , 1283 506 
Q 1294 506 , 1304 507 
Q 1315 508 , 1325 510 
" fill="#545FFF" />
<path d="
M 1309 492 
L 1309 467 
L 1280 467 
L 1280 456 
L 1325 456 
L 1325 499 
Q 1314 503 , 1303 504 
Q 1294 506 , 1282 506 
Q 1256 506 , 1240 493 
Q 1225 481 , 1225 458 
Q 1225 436 , 1240 424 
Q 1256 411 , 1282 411 
Q 1293 411 , 1302 413 
Q 1312 414 , 1322 419 
L 1322 431 
Q 1309 425 , 1301 424 
Q 1292 422 , 1283 422 
Q 1262 422 , 1251 431 
Q 1241 440 , 1241 458 
Q 1241 477 , 1251 486 
Q 1262 495 , 1283 495 
Q 1292 495 , 1299 494 
Q 1306 493 , 1309 492 
" fill="#F5C000" />
<path d="
M 1330 554 
L 1348 554 
L 1348 554 
Q 1348 555 , 1356 555 
Q 1363 555 , 1380 555 
Q 1397 555 , 1405 555 
Q 1412 555 , 1412 554 
L 1412 554 
L 1430 554 
L 1430 554 
Q 1430 555 , 1417 555 
Q 1405 555 , 1380 555 
Q 1356 555 , 1343 555 
Q 1330 555 , 1330 554 
L 1330 554 
" fill="#D21010" />
<path d="
M 1380 553 
L 1362 553 
L 1396 553 
L 1380 553 
M 1373 553 
L 1387 553 
L 1430 554 
L 1414 554 
L 1402 554 
L 1358 554 
L 1345 554 
L 1330 554 
L 1373 553 
" fill="#339541" />
<path d="
M 1430 552 
L 1430 552 
Q 1415 552 , 1407 552 
Q 1399 552 , 1389 552 
Q 1368 552 , 1358 552 
Q 1346 552 , 1346 552 
Q 1346 553 , 1358 553 
Q 1368 553 , 1389 553 
Q 1399 553 , 1407 553 
Q 1415 553 , 1430 553 
L 1430 553 
Q 1419 553 , 1409 553 
Q 1399 553 , 1388 553 
Q 1361 553 , 1346 553 
Q 1330 553 , 1330 552 
Q 1330 552 , 1346 552 
Q 1361 552 , 1388 552 
Q 1399 552 , 1409 552 
Q 1420 552 , 1430 552 
" fill="#545FFF" />
<path d="
M 1414 552 
L 1414 552 
L 1385 552 
L 1385 551 
L 1430 551 
L 1430 552 
Q 1419 552 , 1408 552 
Q 1399 552 , 1387 552 
Q 1361 552 , 1345 552 
Q 1330 552 , 1330 551 
Q 1330 551 , 1345 551 
Q 1361 551 , 1387 551 
Q 1398 551 , 1407 551 
Q 1417 551 , 1427 551 
L 1427 551 
Q 1414 551 , 1406 551 
Q 1397 551 , 1388 551 
Q 1367 551 , 1356 551 
Q 1346 551 , 1346 551 
Q 1346 552 , 1356 552 
Q 1367 552 , 1388 552 
Q 1397 552 , 1404 552 
Q 1411 552 , 1414 552 
" fill="#F5C000" />
<path d="M 65 168 L 65 555 " stroke="black" stroke-width="1.5"/>
<path d="M 55 555 L 65 555 " stroke="black" stroke-width="4"/>
<text text-anchor="end" x="50" y="555" font-size="50" alignment-baseline="middle">0</text>
<path d="M 55 362 L 65 362 " stroke="black" stroke-width="4"/>
<text text-anchor="end" x="50" y="362" font-size="50" alignment-baseline="middle">1</text>
<path d="M 55 168 L 65 168 " stroke="black" stroke-width="4"/>
<text text-anchor="end" x="50" y="168" font-size="50" alignment-baseline="middle">2</text>
<text text-anchor="middle" x="750" y="50" font-size="50" alignment-baseline="baseline"></text>
G<path d="
M 160 582 
L 126 595 
L 160 608 
L 157 611 
L 123 598 
L 123 623 
L 117 623 
L 117 599 
L 83 611 
L 80 608 
L 114 595 
L 80 582 
L 83 579 
L 117 591 
L 117 567 
L 123 567 
L 123 591 
L 157 579 
L 160 582 
" fill="black" />
<path d="
M 265 567 
Q 236 574 , 223 581 
Q 210 588 , 210 595 
Q 210 602 , 223 609 
Q 236 616 , 265 623 
L 241 623 
Q 213 616 , 199 609 
Q 185 602 , 185 595 
Q 185 588 , 199 581 
Q 213 574 , 241 567 
L 265 567 
" fill="black" />
<path d="
M 370 567 
Q 341 574 , 328 581 
Q 315 588 , 315 595 
Q 315 602 , 328 609 
Q 341 616 , 370 623 
L 346 623 
Q 318 616 , 304 609 
Q 290 602 , 290 595 
Q 290 588 , 304 581 
Q 318 574 , 346 567 
L 370 567 
" fill="black" />
<path d="
" fill="black" />
<path d="
M 421 567 
L 448 567 
L 448 623 
L 421 623 
L 421 567 
" fill="black" />
<path d="
" fill="black" />
<path d="
" fill="black" />
<path d="
M 526 567 
L 553 567 
L 553 623 
L 526 623 
L 526 567 
" fill="black" />
<path d="
" fill="black" />
<path d="
" fill="black" />
<path d="
M 622 567 
L 642 567 
L 642 623 
L 622 623 
L 622 567 
" fill="black" />
<path d="
" fill="black" />
<path d="
M 687 595 
Q 686 591 , 682 591 
Q 679 591 , 677 595 
Q 675 599 , 675 605 
Q 675 612 , 677 615 
Q 679 619 , 682 619 
Q 686 619 , 687 615 
Q 689 612 , 689 605 
Q 689 599 , 687 595 
M 690 569 
L 690 574 
Q 689 572 , 687 571 
Q 686 571 , 684 571 
Q 678 571 , 676 581 
Q 675 586 , 675 595 
Q 675 593 , 677 590 
Q 679 587 , 682 587 
Q 687 587 , 689 592 
Q 692 597 , 692 604 
Q 692 613 , 689 618 
Q 687 623 , 682 623 
Q 677 623 , 675 616 
Q 672 609 , 672 595 
Q 672 581 , 675 574 
Q 679 567 , 684 567 
Q 686 567 , 687 568 
Q 689 568 , 690 569 
" fill="black" />
<path d="
M 790 582 
L 756 595 
L 790 608 
L 787 611 
L 753 598 
L 753 623 
L 747 623 
L 747 599 
L 713 611 
L 710 608 
L 744 595 
L 710 582 
L 713 579 
L 747 591 
L 747 567 
L 753 567 
L 753 591 
L 787 579 
L 790 582 
" fill="black" />
<path d="
" fill="black" />
<path d="
M 841 567 
L 868 567 
L 868 623 
L 841 623 
L 841 567 
" fill="black" />
<path d="
" fill="black" />
<path d="
M 920 567 
L 944 567 
Q 972 574 , 986 581 
Q 1000 588 , 1000 595 
Q 1000 602 , 986 609 
Q 972 616 , 944 623 
L 920 623 
Q 949 616 , 962 609 
Q 975 602 , 975 595 
Q 975 588 , 962 581 
Q 949 574 , 920 567 
" fill="black" />
<path d="
M 1025 567 
L 1049 567 
Q 1077 574 , 1091 581 
Q 1105 588 , 1105 595 
Q 1105 602 , 1091 609 
Q 1077 616 , 1049 623 
L 1025 623 
Q 1054 616 , 1067 609 
Q 1080 602 , 1080 595 
Q 1080 588 , 1067 581 
Q 1054 574 , 1025 567 
" fill="black" />
<path d="
" fill="black" />
<path d="
M 1156 567 
L 1183 567 
L 1183 623 
L 1156 623 
L 1156 567 
" fill="black" />
<path d="
" fill="black" />
<path d="
" fill="black" />
<path d="
M 1261 567 
L 1288 567 
L 1288 623 
L 1261 623 
L 1261 567 
" fill="black" />
<path d="
" fill="black" />
<path d="
M 1420 582 
L 1386 595 
L 1420 608 
L 1417 611 
L 1383 598 
L 1383 623 
L 1377 623 
L 1377 599 
L 1343 611 
L 1340 608 
L 1374 595 
L 1340 582 
L 1343 579 
L 1377 591 
L 1377 567 
L 1383 567 
L 1383 591 
L 1417 579 
L 1420 582 
" fill="black" />
</svg>
