<svg xmlns="http://www.w3.org/2000/svg"
viewBox="0 0 1330 635">
<path d="
M 70 554 
L 88 554 
L 88 555 
Q 88 555 , 96 555 
Q 103 555 , 120 555 
Q 137 555 , 145 555 
Q 152 555 , 152 555 
L 152 554 
L 170 554 
L 170 555 
Q 170 555 , 157 555 
Q 145 555 , 120 555 
Q 96 555 , 83 555 
Q 70 555 , 70 555 
L 70 554 
" fill="#D21010" />
<path d="
M 120 553 
L 102 554 
L 136 554 
L 120 553 
M 113 553 
L 127 553 
L 170 554 
L 154 554 
L 142 554 
L 98 554 
L 85 554 
L 70 554 
L 113 553 
" fill="#339541" />
<path d="
M 154 552 
L 154 552 
L 125 552 
L 125 552 
L 170 552 
L 170 552 
Q 159 552 , 148 552 
Q 139 552 , 127 552 
Q 101 552 , 85 552 
Q 70 552 , 70 552 
Q 70 551 , 85 551 
Q 101 551 , 127 551 
Q 138 551 , 147 551 
Q 157 551 , 167 551 
L 167 551 
Q 154 551 , 146 551 
Q 137 551 , 128 551 
Q 107 551 , 96 551 
Q 86 551 , 86 552 
Q 86 552 , 96 552 
Q 107 552 , 128 552 
Q 137 552 , 144 552 
Q 151 552 , 154 552 
" fill="#F5C000" />
<path d="
M 170 549 
L 170 549 
Q 155 549 , 147 549 
Q 139 549 , 129 549 
Q 108 549 , 98 549 
Q 86 549 , 86 549 
Q 86 550 , 98 550 
Q 108 550 , 129 550 
Q 139 550 , 147 550 
Q 155 550 , 170 550 
L 170 550 
Q 159 550 , 149 550 
Q 139 550 , 128 550 
Q 101 550 , 86 550 
Q 70 550 , 70 550 
Q 70 549 , 86 549 
Q 101 549 , 128 549 
Q 139 549 , 149 549 
Q 160 549 , 170 549 
" fill="#545FFF" />
<path d="
M 225 549 
L 207 552 
L 241 552 
L 225 549 
M 218 548 
L 232 548 
L 275 554 
L 259 554 
L 247 552 
L 203 552 
L 190 554 
L 175 554 
L 218 548 
" fill="#339541" />
<path d="
M 175 541 
L 193 541 
L 193 545 
Q 193 546 , 201 547 
Q 208 547 , 225 547 
Q 242 547 , 250 547 
Q 257 546 , 257 545 
L 257 541 
L 275 541 
L 275 545 
Q 275 547 , 262 547 
Q 250 548 , 225 548 
Q 201 548 , 188 547 
Q 175 547 , 175 545 
L 175 541 
" fill="#D21010" />
<path d="
M 275 528 
L 275 530 
Q 260 528 , 252 528 
Q 244 528 , 234 528 
Q 213 528 , 203 529 
Q 191 531 , 191 533 
Q 191 536 , 203 538 
Q 213 539 , 234 539 
Q 244 539 , 252 539 
Q 260 538 , 275 537 
L 275 539 
Q 264 540 , 254 540 
Q 244 541 , 233 541 
Q 206 541 , 191 539 
Q 175 537 , 175 533 
Q 175 530 , 191 528 
Q 206 526 , 233 526 
Q 244 526 , 254 526 
Q 265 527 , 275 528 
" fill="#545FFF" />
<path d="
M 259 523 
L 259 517 
L 230 517 
L 230 514 
L 275 514 
L 275 524 
Q 264 525 , 253 526 
Q 244 526 , 232 526 
Q 206 526 , 190 523 
Q 175 520 , 175 514 
Q 175 509 , 190 506 
Q 206 503 , 232 503 
Q 243 503 , 252 503 
Q 262 504 , 272 505 
L 272 508 
Q 259 506 , 251 506 
Q 242 506 , 233 506 
Q 212 506 , 201 508 
Q 191 510 , 191 514 
Q 191 519 , 201 521 
Q 212 523 , 233 523 
Q 242 523 , 249 523 
Q 256 523 , 259 523 
" fill="#F5C000" />
<path d="
M 280 552 
L 298 552 
L 298 554 
Q 298 554 , 306 554 
Q 313 554 , 330 554 
Q 347 554 , 355 554 
Q 362 554 , 362 554 
L 362 552 
L 380 552 
L 380 554 
Q 380 554 , 367 554 
Q 355 555 , 330 555 
Q 306 555 , 293 554 
Q 280 554 , 280 554 
L 280 552 
" fill="#D21010" />
<path d="
M 380 537 
L 380 539 
Q 365 538 , 357 537 
Q 349 537 , 339 537 
Q 318 537 , 308 538 
Q 296 540 , 296 543 
Q 296 546 , 308 548 
Q 318 550 , 339 550 
Q 349 550 , 357 549 
Q 365 549 , 380 547 
L 380 550 
Q 369 551 , 359 551 
Q 349 551 , 338 551 
Q 311 551 , 296 549 
Q 280 547 , 280 543 
Q 280 539 , 296 537 
Q 311 535 , 338 535 
Q 349 535 , 359 535 
Q 370 536 , 380 537 
" fill="#545FFF" />
<path d="
M 330 520 
L 312 527 
L 346 527 
L 330 520 
M 323 517 
L 337 517 
L 380 534 
L 364 534 
L 352 529 
L 308 529 
L 295 534 
L 280 534 
L 323 517 
" fill="#339541" />
<path d="
M 364 514 
L 364 508 
L 335 508 
L 335 505 
L 380 505 
L 380 515 
Q 369 516 , 358 516 
Q 349 517 , 337 517 
Q 311 517 , 295 514 
Q 280 511 , 280 506 
Q 280 501 , 295 498 
Q 311 495 , 337 495 
Q 348 495 , 357 495 
Q 367 496 , 377 497 
L 377 500 
Q 364 498 , 356 498 
Q 347 498 , 338 498 
Q 317 498 , 306 500 
Q 296 502 , 296 506 
Q 296 510 , 306 512 
Q 317 514 , 338 514 
Q 347 514 , 354 514 
Q 361 514 , 364 514 
" fill="#F5C000" />
<path d="
M 435 552 
L 417 553 
L 451 553 
L 435 552 
M 428 552 
L 442 552 
L 485 555 
L 469 555 
L 457 554 
L 413 554 
L 400 555 
L 385 555 
L 428 552 
" fill="#339541" />
<path d="
M 469 550 
L 469 549 
L 440 549 
L 440 548 
L 485 548 
L 485 551 
Q 474 551 , 463 551 
Q 454 551 , 442 551 
Q 416 551 , 400 550 
Q 385 550 , 385 548 
Q 385 547 , 400 546 
Q 416 545 , 442 545 
Q 453 545 , 462 545 
Q 472 545 , 482 546 
L 482 546 
Q 469 546 , 461 546 
Q 452 546 , 443 546 
Q 422 546 , 411 546 
Q 401 547 , 401 548 
Q 401 549 , 411 550 
Q 422 551 , 443 551 
Q 452 551 , 459 551 
Q 466 550 , 469 550 
" fill="#F5C000" />
<path d="
M 385 537 
L 403 537 
L 403 541 
Q 403 542 , 411 543 
Q 418 543 , 435 543 
Q 452 543 , 460 543 
Q 467 542 , 467 541 
L 467 537 
L 485 537 
L 485 541 
Q 485 543 , 472 543 
Q 460 544 , 435 544 
Q 411 544 , 398 543 
Q 385 543 , 385 541 
L 385 537 
" fill="#D21010" />
<path d="
M 485 530 
L 485 531 
Q 470 530 , 462 530 
Q 454 530 , 444 530 
Q 423 530 , 413 530 
Q 401 531 , 401 532 
Q 401 534 , 413 535 
Q 423 535 , 444 535 
Q 454 535 , 462 535 
Q 470 535 , 485 534 
L 485 535 
Q 474 536 , 464 536 
Q 454 536 , 443 536 
Q 416 536 , 401 535 
Q 385 534 , 385 533 
Q 385 531 , 401 530 
Q 416 529 , 443 529 
Q 454 529 , 464 529 
Q 475 529 , 485 530 
" fill="#545FFF" />
<path d="
M 540 549 
L 522 552 
L 556 552 
L 540 549 
M 533 548 
L 547 548 
L 590 555 
L 574 555 
L 562 553 
L 518 553 
L 505 555 
L 490 555 
L 533 548 
" fill="#339541" />
<path d="
M 490 537 
L 508 537 
L 508 543 
Q 508 545 , 516 546 
Q 523 547 , 540 547 
Q 557 547 , 565 546 
Q 572 545 , 572 543 
L 572 537 
L 590 537 
L 590 544 
Q 590 546 , 577 547 
Q 565 548 , 540 548 
Q 516 548 , 503 547 
Q 490 546 , 490 544 
L 490 537 
" fill="#D21010" />
<path d="
M 590 501 
L 590 507 
Q 575 503 , 567 502 
Q 559 501 , 549 501 
Q 528 501 , 518 505 
Q 506 509 , 506 516 
Q 506 524 , 518 528 
Q 528 532 , 549 532 
Q 559 532 , 567 531 
Q 575 530 , 590 526 
L 590 532 
Q 579 535 , 569 535 
Q 559 536 , 548 536 
Q 521 536 , 506 531 
Q 490 526 , 490 517 
Q 490 508 , 506 502 
Q 521 497 , 548 497 
Q 559 497 , 569 498 
Q 580 499 , 590 501 
" fill="#545FFF" />
<path d="
M 574 476 
L 574 438 
L 545 438 
L 545 423 
L 590 423 
L 590 485 
Q 579 491 , 568 494 
Q 559 496 , 547 496 
Q 521 496 , 505 477 
Q 490 459 , 490 426 
Q 490 393 , 505 375 
Q 521 356 , 547 356 
Q 558 356 , 567 358 
Q 577 361 , 587 367 
L 587 385 
Q 574 377 , 566 375 
Q 557 373 , 548 373 
Q 527 373 , 516 386 
Q 506 399 , 506 426 
Q 506 454 , 516 467 
Q 527 481 , 548 481 
Q 557 481 , 564 479 
Q 571 478 , 574 476 
" fill="#F5C000" />
<path d="
M 595 550 
L 613 550 
L 613 553 
Q 613 553 , 621 554 
Q 628 554 , 645 554 
Q 662 554 , 670 554 
Q 677 553 , 677 553 
L 677 550 
L 695 550 
L 695 553 
Q 695 554 , 682 554 
Q 670 555 , 645 555 
Q 621 555 , 608 554 
Q 595 554 , 595 553 
L 595 550 
" fill="#D21010" />
<path d="
M 695 538 
L 695 540 
Q 680 539 , 672 539 
Q 664 538 , 654 538 
Q 633 538 , 623 540 
Q 611 541 , 611 543 
Q 611 546 , 623 547 
Q 633 548 , 654 548 
Q 664 548 , 672 548 
Q 680 548 , 695 546 
L 695 548 
Q 684 549 , 674 549 
Q 664 550 , 653 550 
Q 626 550 , 611 548 
Q 595 546 , 595 543 
Q 595 540 , 611 539 
Q 626 537 , 653 537 
Q 664 537 , 674 537 
Q 685 538 , 695 538 
" fill="#545FFF" />
<path d="
M 679 535 
L 679 531 
L 650 531 
L 650 529 
L 695 529 
L 695 536 
Q 684 536 , 673 536 
Q 664 537 , 652 537 
Q 626 537 , 610 535 
Q 595 533 , 595 529 
Q 595 526 , 610 524 
Q 626 522 , 652 522 
Q 663 522 , 672 522 
Q 682 523 , 692 523 
L 692 525 
Q 679 524 , 671 524 
Q 662 524 , 653 524 
Q 632 524 , 621 525 
Q 611 527 , 611 529 
Q 611 532 , 621 534 
Q 632 535 , 653 535 
Q 662 535 , 669 535 
Q 676 535 , 679 535 
" fill="#F5C000" />
<path d="
M 645 497 
L 627 509 
L 661 509 
L 645 497 
M 638 492 
L 652 492 
L 695 521 
L 679 521 
L 667 513 
L 623 513 
L 610 521 
L 595 521 
L 638 492 
" fill="#339541" />
<path d="
M 700 545 
L 718 545 
L 718 550 
Q 718 552 , 726 553 
Q 733 553 , 750 553 
Q 767 553 , 775 553 
Q 782 552 , 782 550 
L 782 545 
L 800 545 
L 800 551 
Q 800 552 , 787 553 
Q 775 554 , 750 554 
Q 726 554 , 713 553 
Q 700 552 , 700 551 
L 700 545 
" fill="#D21010" />
<path d="
M 750 533 
L 732 539 
L 766 539 
L 750 533 
M 743 530 
L 757 530 
L 800 545 
L 784 545 
L 772 540 
L 728 540 
L 715 545 
L 700 545 
L 743 530 
" fill="#339541" />
<path d="
M 784 526 
L 784 519 
L 755 519 
L 755 516 
L 800 516 
L 800 528 
Q 789 529 , 778 530 
Q 769 530 , 757 530 
Q 731 530 , 715 526 
Q 700 523 , 700 517 
Q 700 511 , 715 507 
Q 731 504 , 757 504 
Q 768 504 , 777 504 
Q 787 505 , 797 506 
L 797 509 
Q 784 508 , 776 508 
Q 767 507 , 758 507 
Q 737 507 , 726 510 
Q 716 512 , 716 517 
Q 716 522 , 726 525 
Q 737 527 , 758 527 
Q 767 527 , 774 527 
Q 781 527 , 784 526 
" fill="#F5C000" />
<path d="
M 800 414 
L 800 429 
Q 785 419 , 777 417 
Q 769 414 , 759 414 
Q 738 414 , 728 424 
Q 716 434 , 716 453 
Q 716 473 , 728 483 
Q 738 493 , 759 493 
Q 769 493 , 777 490 
Q 785 487 , 800 477 
L 800 493 
Q 789 499 , 779 501 
Q 769 504 , 758 504 
Q 731 504 , 716 490 
Q 700 476 , 700 453 
Q 700 430 , 716 417 
Q 731 403 , 758 403 
Q 769 403 , 779 405 
Q 790 408 , 800 414 
" fill="#545FFF" />
<path d="
M 805 553 
L 823 553 
L 823 554 
Q 823 554 , 831 554 
Q 838 555 , 855 555 
Q 872 555 , 880 554 
Q 887 554 , 887 554 
L 887 553 
L 905 553 
L 905 554 
Q 905 554 , 892 555 
Q 880 555 , 855 555 
Q 831 555 , 818 555 
Q 805 554 , 805 554 
L 805 553 
" fill="#D21010" />
<path d="
M 855 547 
L 837 550 
L 871 550 
L 855 547 
M 848 546 
L 862 546 
L 905 553 
L 889 553 
L 877 551 
L 833 551 
L 820 553 
L 805 553 
L 848 546 
" fill="#339541" />
<path d="
M 889 535 
L 889 514 
L 860 514 
L 860 506 
L 905 506 
L 905 540 
Q 894 543 , 883 544 
Q 874 545 , 862 545 
Q 836 545 , 820 535 
Q 805 525 , 805 508 
Q 805 490 , 820 480 
Q 836 470 , 862 470 
Q 873 470 , 882 471 
Q 892 473 , 902 476 
L 902 486 
Q 889 481 , 881 480 
Q 872 479 , 863 479 
Q 842 479 , 831 486 
Q 821 493 , 821 508 
Q 821 523 , 831 530 
Q 842 537 , 863 537 
Q 872 537 , 879 536 
Q 886 536 , 889 535 
" fill="#F5C000" />
<path d="
M 905 371 
L 905 388 
Q 890 377 , 882 374 
Q 874 371 , 864 371 
Q 843 371 , 833 382 
Q 821 393 , 821 414 
Q 821 436 , 833 447 
Q 843 458 , 864 458 
Q 874 458 , 882 455 
Q 890 452 , 905 441 
L 905 458 
Q 894 464 , 884 467 
Q 874 470 , 863 470 
Q 836 470 , 821 455 
Q 805 440 , 805 414 
Q 805 389 , 821 374 
Q 836 359 , 863 359 
Q 874 359 , 884 362 
Q 895 364 , 905 371 
" fill="#545FFF" />
<path d="
M 994 554 
L 994 552 
L 965 552 
L 965 552 
L 1010 552 
L 1010 554 
Q 999 555 , 988 555 
Q 979 555 , 967 555 
Q 941 555 , 925 554 
Q 910 553 , 910 552 
Q 910 551 , 925 550 
Q 941 549 , 967 549 
Q 978 549 , 987 549 
Q 997 549 , 1007 549 
L 1007 550 
Q 994 550 , 986 550 
Q 977 550 , 968 550 
Q 947 550 , 936 550 
Q 926 551 , 926 552 
Q 926 553 , 936 554 
Q 947 554 , 968 554 
Q 977 554 , 984 554 
Q 991 554 , 994 554 
" fill="#F5C000" />
<path d="
M 1010 541 
L 1010 542 
Q 995 541 , 987 541 
Q 979 541 , 969 541 
Q 948 541 , 938 542 
Q 926 543 , 926 544 
Q 926 546 , 938 547 
Q 948 548 , 969 548 
Q 979 548 , 987 548 
Q 995 547 , 1010 547 
L 1010 548 
Q 999 548 , 989 549 
Q 979 549 , 968 549 
Q 941 549 , 926 548 
Q 910 546 , 910 544 
Q 910 542 , 926 541 
Q 941 540 , 968 540 
Q 979 540 , 989 540 
Q 1000 540 , 1010 541 
" fill="#545FFF" />
<path d="
M 960 521 
L 942 530 
L 976 530 
L 960 521 
M 953 517 
L 967 517 
L 1010 540 
L 994 540 
L 982 533 
L 938 533 
L 925 540 
L 910 540 
L 953 517 
" fill="#339541" />
<path d="
M 910 484 
L 928 484 
L 928 503 
Q 928 508 , 936 510 
Q 943 513 , 960 513 
Q 977 513 , 985 510 
Q 992 508 , 992 503 
L 992 484 
L 1010 484 
L 1010 503 
Q 1010 510 , 997 513 
Q 985 516 , 960 516 
Q 936 516 , 923 513 
Q 910 510 , 910 503 
L 910 484 
" fill="#D21010" />
<path d="
M 1065 544 
L 1047 549 
L 1081 549 
L 1065 544 
M 1058 542 
L 1072 542 
L 1115 554 
L 1099 554 
L 1087 551 
L 1043 551 
L 1030 554 
L 1015 554 
L 1058 542 
" fill="#339541" />
<path d="
M 1115 530 
L 1115 532 
Q 1100 531 , 1092 531 
Q 1084 530 , 1074 530 
Q 1053 530 , 1043 532 
Q 1031 533 , 1031 535 
Q 1031 538 , 1043 539 
Q 1053 540 , 1074 540 
Q 1084 540 , 1092 540 
Q 1100 540 , 1115 538 
L 1115 540 
Q 1104 541 , 1094 541 
Q 1084 542 , 1073 542 
Q 1046 542 , 1031 540 
Q 1015 538 , 1015 535 
Q 1015 532 , 1031 531 
Q 1046 529 , 1073 529 
Q 1084 529 , 1094 529 
Q 1105 530 , 1115 530 
" fill="#545FFF" />
<path d="
M 1015 507 
L 1033 507 
L 1033 520 
Q 1033 523 , 1041 525 
Q 1048 526 , 1065 526 
Q 1082 526 , 1090 525 
Q 1097 523 , 1097 520 
L 1097 507 
L 1115 507 
L 1115 520 
Q 1115 524 , 1102 526 
Q 1090 529 , 1065 529 
Q 1041 529 , 1028 526 
Q 1015 524 , 1015 520 
L 1015 507 
" fill="#D21010" />
<path d="
M 1099 475 
L 1099 418 
L 1070 418 
L 1070 394 
L 1115 394 
L 1115 490 
Q 1104 499 , 1093 502 
Q 1084 506 , 1072 506 
Q 1046 506 , 1030 477 
Q 1015 449 , 1015 399 
Q 1015 348 , 1030 320 
Q 1046 291 , 1072 291 
Q 1083 291 , 1092 295 
Q 1102 299 , 1112 308 
L 1112 336 
Q 1099 324 , 1091 320 
Q 1082 317 , 1073 317 
Q 1052 317 , 1041 337 
Q 1031 357 , 1031 399 
Q 1031 441 , 1041 462 
Q 1052 482 , 1073 482 
Q 1082 482 , 1089 480 
Q 1096 478 , 1099 475 
" fill="#F5C000" />
<path d="
M 1120 549 
L 1138 549 
L 1138 552 
Q 1138 553 , 1146 553 
Q 1153 554 , 1170 554 
Q 1187 554 , 1195 553 
Q 1202 553 , 1202 552 
L 1202 549 
L 1220 549 
L 1220 552 
Q 1220 553 , 1207 554 
Q 1195 554 , 1170 554 
Q 1146 554 , 1133 554 
Q 1120 553 , 1120 552 
L 1120 549 
" fill="#D21010" />
<path d="
M 1170 538 
L 1152 544 
L 1186 544 
L 1170 538 
M 1163 536 
L 1177 536 
L 1220 549 
L 1204 549 
L 1192 545 
L 1148 545 
L 1135 549 
L 1120 549 
L 1163 536 
" fill="#339541" />
<path d="
M 1220 508 
L 1220 513 
Q 1205 510 , 1197 509 
Q 1189 508 , 1179 508 
Q 1158 508 , 1148 511 
Q 1136 514 , 1136 520 
Q 1136 526 , 1148 529 
Q 1158 532 , 1179 532 
Q 1189 532 , 1197 531 
Q 1205 530 , 1220 527 
L 1220 532 
Q 1209 534 , 1199 535 
Q 1189 535 , 1178 535 
Q 1151 535 , 1136 531 
Q 1120 527 , 1120 520 
Q 1120 513 , 1136 509 
Q 1151 505 , 1178 505 
Q 1189 505 , 1199 506 
Q 1210 506 , 1220 508 
" fill="#545FFF" />
<path d="
M 1204 496 
L 1204 481 
L 1175 481 
L 1175 475 
L 1220 475 
L 1220 500 
Q 1209 503 , 1198 504 
Q 1189 505 , 1177 505 
Q 1151 505 , 1135 497 
Q 1120 489 , 1120 476 
Q 1120 462 , 1135 455 
Q 1151 447 , 1177 447 
Q 1188 447 , 1197 448 
Q 1207 449 , 1217 452 
L 1217 459 
Q 1204 456 , 1196 455 
Q 1187 454 , 1178 454 
Q 1157 454 , 1146 459 
Q 1136 465 , 1136 476 
Q 1136 487 , 1146 493 
Q 1157 498 , 1178 498 
Q 1187 498 , 1194 498 
Q 1201 497 , 1204 496 
" fill="#F5C000" />
<path d="
M 1225 554 
L 1243 554 
L 1243 555 
Q 1243 555 , 1251 555 
Q 1258 555 , 1275 555 
Q 1292 555 , 1300 555 
Q 1307 555 , 1307 555 
L 1307 554 
L 1325 554 
L 1325 555 
Q 1325 555 , 1312 555 
Q 1300 555 , 1275 555 
Q 1251 555 , 1238 555 
Q 1225 555 , 1225 555 
L 1225 554 
" fill="#D21010" />
<path d="
M 1275 553 
L 1257 554 
L 1291 554 
L 1275 553 
M 1268 553 
L 1282 553 
L 1325 554 
L 1309 554 
L 1297 554 
L 1253 554 
L 1240 554 
L 1225 554 
L 1268 553 
" fill="#339541" />
<path d="
M 1309 552 
L 1309 552 
L 1280 552 
L 1280 552 
L 1325 552 
L 1325 552 
Q 1314 552 , 1303 552 
Q 1294 552 , 1282 552 
Q 1256 552 , 1240 552 
Q 1225 552 , 1225 552 
Q 1225 551 , 1240 551 
Q 1256 551 , 1282 551 
Q 1293 551 , 1302 551 
Q 1312 551 , 1322 551 
L 1322 551 
Q 1309 551 , 1301 551 
Q 1292 551 , 1283 551 
Q 1262 551 , 1251 551 
Q 1241 551 , 1241 552 
Q 1241 552 , 1251 552 
Q 1262 552 , 1283 552 
Q 1292 552 , 1299 552 
Q 1306 552 , 1309 552 
" fill="#F5C000" />
<path d="
M 1325 549 
L 1325 549 
Q 1310 549 , 1302 549 
Q 1294 549 , 1284 549 
Q 1263 549 , 1253 549 
Q 1241 549 , 1241 549 
Q 1241 550 , 1253 550 
Q 1263 550 , 1284 550 
Q 1294 550 , 1302 550 
Q 1310 550 , 1325 550 
L 1325 550 
Q 1314 550 , 1304 550 
Q 1294 550 , 1283 550 
Q 1256 550 , 1241 550 
Q 1225 550 , 1225 550 
Q 1225 549 , 1241 549 
Q 1256 549 , 1283 549 
Q 1294 549 , 1304 549 
Q 1315 549 , 1325 549 
" fill="#545FFF" />
<path d="M 65 55 L 65 555 " stroke="black" stroke-width="1.5"/>
<path d="M 55 555 L 65 555 " stroke="black" stroke-width="4"/>
<text text-anchor="end" x="50" y="555" font-size="50" alignment-baseline="middle">0</text>
<path d="M 55 305 L 65 305 " stroke="black" stroke-width="4"/>
<text text-anchor="end" x="50" y="305" font-size="50" alignment-baseline="middle">1</text>
<path d="M 55 55 L 65 55 " stroke="black" stroke-width="4"/>
<text text-anchor="end" x="50" y="55" font-size="50" alignment-baseline="middle">2</text>
<text text-anchor="middle" x="697" y="50" font-size="50" alignment-baseline="baseline"></text>
G<path d="
M 160 582 
L 126 595 
L 160 608 
L 157 611 
L 123 598 
L 123 623 
L 117 623 
L 117 599 
L 83 611 
L 80 608 
L 114 595 
L 80 582 
L 83 579 
L 117 591 
L 117 567 
L 123 567 
L 123 591 
L 157 579 
L 160 582 
" fill="black" />
<path d="
" fill="black" />
<path d="
M 211 567 
L 238 567 
L 238 623 
L 211 623 
L 211 567 
" fill="black" />
<path d="
" fill="black" />
<path d="
" fill="black" />
<path d="
M 316 567 
L 343 567 
L 343 623 
L 316 623 
L 316 567 
" fill="black" />
<path d="
" fill="black" />
<path d="
" fill="black" />
<path d="
M 421 567 
L 448 567 
L 448 623 
L 421 623 
L 421 567 
" fill="black" />
<path d="
" fill="black" />
<path d="
" fill="black" />
<path d="
M 526 567 
L 553 567 
L 553 623 
L 526 623 
L 526 567 
" fill="black" />
<path d="
" fill="black" />
<path d="
" fill="black" />
<path d="
M 631 567 
L 658 567 
L 658 623 
L 631 623 
L 631 567 
" fill="black" />
<path d="
" fill="black" />
<path d="
" fill="black" />
<path d="
M 736 567 
L 763 567 
L 763 623 
L 736 623 
L 736 567 
" fill="black" />
<path d="
" fill="black" />
<path d="
" fill="black" />
<path d="
M 841 567 
L 868 567 
L 868 623 
L 841 623 
L 841 567 
" fill="black" />
<path d="
" fill="black" />
<path d="
" fill="black" />
<path d="
M 946 567 
L 973 567 
L 973 623 
L 946 623 
L 946 567 
" fill="black" />
<path d="
" fill="black" />
<path d="
" fill="black" />
<path d="
M 1051 567 
L 1078 567 
L 1078 623 
L 1051 623 
L 1051 567 
" fill="black" />
<path d="
" fill="black" />
<path d="
" fill="black" />
<path d="
M 1156 567 
L 1183 567 
L 1183 623 
L 1156 623 
L 1156 567 
" fill="black" />
<path d="
" fill="black" />
<path d="
M 1315 582 
L 1281 595 
L 1315 608 
L 1312 611 
L 1278 598 
L 1278 623 
L 1272 623 
L 1272 599 
L 1238 611 
L 1235 608 
L 1269 595 
L 1235 582 
L 1238 579 
L 1272 591 
L 1272 567 
L 1278 567 
L 1278 591 
L 1312 579 
L 1315 582 
" fill="black" />
</svg>
