<svg xmlns="http://www.w3.org/2000/svg"
viewBox="0 0 1330 635">
<path d="
M 170 554 
L 170 554 
Q 155 554 , 147 554 
Q 139 554 , 129 554 
Q 108 554 , 98 554 
Q 86 554 , 86 554 
Q 86 554 , 98 554 
Q 108 555 , 129 555 
Q 139 555 , 147 555 
Q 155 555 , 170 554 
L 170 555 
Q 159 555 , 149 555 
Q 139 555 , 128 555 
Q 101 555 , 86 555 
Q 70 554 , 70 554 
Q 70 554 , 86 554 
Q 101 554 , 128 554 
Q 139 554 , 149 554 
Q 160 554 , 170 554 
" fill="#545FFF" />
<path d="
M 154 554 
L 154 553 
L 125 553 
L 125 553 
L 170 553 
L 170 554 
Q 159 554 , 148 554 
Q 139 554 , 127 554 
Q 101 554 , 85 554 
Q 70 554 , 70 553 
Q 70 553 , 85 553 
Q 101 553 , 127 553 
Q 138 553 , 147 553 
Q 157 553 , 167 553 
L 167 553 
Q 154 553 , 146 553 
Q 137 553 , 128 553 
Q 107 553 , 96 553 
Q 86 553 , 86 553 
Q 86 554 , 96 554 
Q 107 554 , 128 554 
Q 137 554 , 144 554 
Q 151 554 , 154 554 
" fill="#F5C000" />
<path d="
M 120 552 
L 102 552 
L 136 552 
L 120 552 
M 113 552 
L 127 552 
L 170 553 
L 154 553 
L 142 553 
L 98 553 
L 85 553 
L 70 553 
L 113 552 
" fill="#339541" />
<path d="
M 70 551 
L 88 551 
L 88 552 
Q 88 552 , 96 552 
Q 103 552 , 120 552 
Q 137 552 , 145 552 
Q 152 552 , 152 552 
L 152 551 
L 170 551 
L 170 552 
Q 170 552 , 157 552 
Q 145 552 , 120 552 
Q 96 552 , 83 552 
Q 70 552 , 70 552 
L 70 551 
" fill="#D21010" />
<path d="
M 225 552 
L 207 553 
L 241 553 
L 225 552 
M 218 551 
L 232 551 
L 275 555 
L 259 555 
L 247 554 
L 203 554 
L 190 555 
L 175 555 
L 218 551 
" fill="#339541" />
<path d="
M 275 545 
L 275 546 
Q 260 545 , 252 545 
Q 244 545 , 234 545 
Q 213 545 , 203 545 
Q 191 546 , 191 547 
Q 191 548 , 203 549 
Q 213 550 , 234 550 
Q 244 550 , 252 549 
Q 260 549 , 275 549 
L 275 550 
Q 264 550 , 254 550 
Q 244 550 , 233 550 
Q 206 550 , 191 549 
Q 175 549 , 175 547 
Q 175 546 , 191 545 
Q 206 544 , 233 544 
Q 244 544 , 254 544 
Q 265 544 , 275 545 
" fill="#545FFF" />
<path d="
M 259 542 
L 259 539 
L 230 539 
L 230 538 
L 275 538 
L 275 543 
Q 264 543 , 253 543 
Q 244 544 , 232 544 
Q 206 544 , 190 542 
Q 175 541 , 175 538 
Q 175 535 , 190 534 
Q 206 532 , 232 532 
Q 243 532 , 252 532 
Q 262 532 , 272 533 
L 272 534 
Q 259 534 , 251 534 
Q 242 533 , 233 533 
Q 212 533 , 201 534 
Q 191 536 , 191 538 
Q 191 540 , 201 541 
Q 212 542 , 233 542 
Q 242 542 , 249 542 
Q 256 542 , 259 542 
" fill="#F5C000" />
<path d="
M 175 515 
L 193 515 
L 193 525 
Q 193 527 , 201 529 
Q 208 530 , 225 530 
Q 242 530 , 250 529 
Q 257 527 , 257 525 
L 257 515 
L 275 515 
L 275 525 
Q 275 528 , 262 530 
Q 250 532 , 225 532 
Q 201 532 , 188 530 
Q 175 528 , 175 525 
L 175 515 
" fill="#D21010" />
<path d="
M 380 552 
L 380 553 
Q 365 552 , 357 552 
Q 349 552 , 339 552 
Q 318 552 , 308 553 
Q 296 553 , 296 553 
Q 296 554 , 308 554 
Q 318 554 , 339 554 
Q 349 554 , 357 554 
Q 365 554 , 380 554 
L 380 554 
Q 369 555 , 359 555 
Q 349 555 , 338 555 
Q 311 555 , 296 554 
Q 280 554 , 280 553 
Q 280 553 , 296 552 
Q 311 552 , 338 552 
Q 349 552 , 359 552 
Q 370 552 , 380 552 
" fill="#545FFF" />
<path d="
M 330 545 
L 312 549 
L 346 549 
L 330 545 
M 323 544 
L 337 544 
L 380 552 
L 364 552 
L 352 550 
L 308 550 
L 295 552 
L 280 552 
L 323 544 
" fill="#339541" />
<path d="
M 364 542 
L 364 540 
L 335 540 
L 335 539 
L 380 539 
L 380 543 
Q 369 543 , 358 544 
Q 349 544 , 337 544 
Q 311 544 , 295 542 
Q 280 541 , 280 539 
Q 280 537 , 295 535 
Q 311 534 , 337 534 
Q 348 534 , 357 534 
Q 367 534 , 377 535 
L 377 536 
Q 364 535 , 356 535 
Q 347 535 , 338 535 
Q 317 535 , 306 536 
Q 296 537 , 296 539 
Q 296 541 , 306 542 
Q 317 543 , 338 543 
Q 347 543 , 354 543 
Q 361 542 , 364 542 
" fill="#F5C000" />
<path d="
M 280 519 
L 298 519 
L 298 527 
Q 298 530 , 306 531 
Q 313 532 , 330 532 
Q 347 532 , 355 531 
Q 362 530 , 362 527 
L 362 519 
L 380 519 
L 380 528 
Q 380 530 , 367 532 
Q 355 533 , 330 533 
Q 306 533 , 293 532 
Q 280 530 , 280 528 
L 280 519 
" fill="#D21010" />
<path d="
M 410 552 
L 401 553 
L 418 553 
L 410 552 
M 406 551 
L 414 551 
L 435 554 
L 427 554 
L 421 553 
L 399 553 
L 392 554 
L 385 554 
L 406 551 
" fill="#339541" />
<path d="
M 435 551 
L 444 551 
L 444 553 
Q 444 553 , 448 553 
Q 451 554 , 460 554 
Q 469 554 , 472 553 
Q 476 553 , 476 553 
L 476 551 
L 485 551 
L 485 553 
Q 485 553 , 479 554 
Q 472 554 , 460 554 
Q 448 554 , 441 554 
Q 435 553 , 435 553 
L 435 551 
" fill="lightgray" />
<path d="
M 385 546 
L 394 546 
L 394 549 
Q 394 549 , 398 550 
Q 401 550 , 410 550 
Q 419 550 , 422 550 
Q 426 549 , 426 549 
L 426 546 
L 435 546 
L 435 549 
Q 435 550 , 429 550 
Q 422 550 , 410 550 
Q 398 550 , 391 550 
Q 385 550 , 385 549 
L 385 546 
" fill="#D21010" />
<path d="
M 460 547 
L 451 549 
L 468 549 
L 460 547 
M 456 546 
L 464 546 
L 485 550 
L 477 550 
L 471 549 
L 449 549 
L 442 550 
L 435 550 
L 456 546 
" fill="lightgray" />
<path d="
M 427 545 
L 427 543 
L 413 543 
L 413 542 
L 435 542 
L 435 545 
Q 430 546 , 424 546 
Q 419 546 , 413 546 
Q 400 546 , 393 545 
Q 385 544 , 385 542 
Q 385 541 , 393 540 
Q 400 539 , 413 539 
Q 419 539 , 424 539 
Q 429 539 , 434 540 
L 434 540 
Q 427 540 , 423 540 
Q 419 540 , 414 540 
Q 404 540 , 398 540 
Q 393 541 , 393 542 
Q 393 544 , 398 545 
Q 404 545 , 414 545 
Q 419 545 , 422 545 
Q 426 545 , 427 545 
" fill="#F5C000" />
<path d="
M 485 540 
L 485 541 
Q 478 540 , 474 540 
Q 469 540 , 464 540 
Q 454 540 , 449 540 
Q 443 541 , 443 542 
Q 443 544 , 449 545 
Q 454 545 , 464 545 
Q 469 545 , 474 545 
Q 478 545 , 485 544 
L 485 545 
Q 480 546 , 474 546 
Q 470 546 , 464 546 
Q 450 546 , 443 545 
Q 435 544 , 435 542 
Q 435 541 , 443 540 
Q 450 539 , 464 539 
Q 470 539 , 475 539 
Q 480 539 , 485 540 
" fill="lightgray" />
<path d="
M 435 532 
L 435 533 
Q 428 532 , 424 532 
Q 419 532 , 414 532 
Q 404 532 , 399 533 
Q 393 533 , 393 534 
Q 393 536 , 399 537 
Q 404 538 , 414 538 
Q 419 538 , 424 537 
Q 428 537 , 435 536 
L 435 538 
Q 430 538 , 424 538 
Q 420 538 , 414 538 
Q 400 538 , 393 537 
Q 385 536 , 385 535 
Q 385 533 , 393 532 
Q 400 531 , 414 531 
Q 420 531 , 425 531 
Q 430 531 , 435 532 
" fill="#545FFF" />
<path d="
M 477 537 
L 477 535 
L 463 535 
L 463 534 
L 485 534 
L 485 538 
Q 480 538 , 474 538 
Q 469 538 , 463 538 
Q 450 538 , 443 537 
Q 435 536 , 435 535 
Q 435 533 , 443 532 
Q 450 531 , 463 531 
Q 469 531 , 474 531 
Q 479 531 , 484 532 
L 484 533 
Q 477 532 , 473 532 
Q 469 532 , 464 532 
Q 454 532 , 448 533 
Q 443 533 , 443 535 
Q 443 536 , 448 537 
Q 454 537 , 464 537 
Q 469 537 , 472 537 
Q 476 537 , 477 537 
" fill="lightgray" />
<path d="
M 427 528 
L 427 525 
L 413 525 
L 413 523 
L 435 523 
L 435 529 
Q 430 530 , 424 530 
Q 419 530 , 413 530 
Q 400 530 , 393 529 
Q 385 527 , 385 524 
Q 385 521 , 393 519 
Q 400 517 , 413 517 
Q 419 517 , 424 517 
Q 429 517 , 434 518 
L 434 520 
Q 427 519 , 423 519 
Q 419 519 , 414 519 
Q 404 519 , 398 520 
Q 393 521 , 393 524 
Q 393 526 , 398 528 
Q 404 529 , 414 529 
Q 419 529 , 422 529 
Q 426 529 , 427 528 
" fill="#F5C000" />
<path d="
M 435 517 
L 444 517 
L 444 525 
Q 444 527 , 448 528 
Q 451 529 , 460 529 
Q 469 529 , 472 528 
Q 476 527 , 476 525 
L 476 517 
L 485 517 
L 485 525 
Q 485 528 , 479 529 
Q 472 530 , 460 530 
Q 448 530 , 441 529 
Q 435 528 , 435 525 
L 435 517 
" fill="lightgray" />
<path d="
M 385 495 
L 394 495 
L 394 508 
Q 394 511 , 398 513 
Q 401 514 , 410 514 
Q 419 514 , 422 513 
Q 426 511 , 426 508 
L 426 495 
L 435 495 
L 435 508 
Q 435 512 , 429 514 
Q 422 516 , 410 516 
Q 398 516 , 391 514 
Q 385 512 , 385 508 
L 385 495 
" fill="#D21010" />
<path d="
M 477 513 
L 477 508 
L 463 508 
L 463 505 
L 485 505 
L 485 515 
Q 480 516 , 474 516 
Q 469 516 , 463 516 
Q 450 516 , 443 513 
Q 435 511 , 435 506 
Q 435 501 , 443 498 
Q 450 495 , 463 495 
Q 469 495 , 474 495 
Q 479 496 , 484 497 
L 484 499 
Q 477 498 , 473 498 
Q 469 498 , 464 498 
Q 454 498 , 448 500 
Q 443 502 , 443 506 
Q 443 510 , 448 512 
Q 454 514 , 464 514 
Q 469 514 , 472 514 
Q 476 513 , 477 513 
" fill="lightgray" />
<path d="
M 590 552 
L 590 553 
Q 575 552 , 567 552 
Q 559 552 , 549 552 
Q 528 552 , 518 553 
Q 506 553 , 506 553 
Q 506 554 , 518 554 
Q 528 554 , 549 554 
Q 559 554 , 567 554 
Q 575 554 , 590 554 
L 590 554 
Q 579 555 , 569 555 
Q 559 555 , 548 555 
Q 521 555 , 506 554 
Q 490 554 , 490 553 
Q 490 553 , 506 552 
Q 521 552 , 548 552 
Q 559 552 , 569 552 
Q 580 552 , 590 552 
" fill="#545FFF" />
<path d="
M 574 551 
L 574 549 
L 545 549 
L 545 549 
L 590 549 
L 590 551 
Q 579 551 , 568 551 
Q 559 552 , 547 552 
Q 521 552 , 505 551 
Q 490 550 , 490 549 
Q 490 547 , 505 547 
Q 521 546 , 547 546 
Q 558 546 , 567 546 
Q 577 546 , 587 546 
L 587 547 
Q 574 547 , 566 547 
Q 557 547 , 548 547 
Q 527 547 , 516 547 
Q 506 548 , 506 549 
Q 506 550 , 516 550 
Q 527 551 , 548 551 
Q 557 551 , 564 551 
Q 571 551 , 574 551 
" fill="#F5C000" />
<path d="
M 490 538 
L 508 538 
L 508 543 
Q 508 544 , 516 545 
Q 523 545 , 540 545 
Q 557 545 , 565 545 
Q 572 544 , 572 543 
L 572 538 
L 590 538 
L 590 543 
Q 590 544 , 577 545 
Q 565 546 , 540 546 
Q 516 546 , 503 545 
Q 490 544 , 490 543 
L 490 538 
" fill="#D21010" />
<path d="
M 540 529 
L 522 533 
L 556 533 
L 540 529 
M 533 527 
L 547 527 
L 590 537 
L 574 537 
L 562 534 
L 518 534 
L 505 537 
L 490 537 
L 533 527 
" fill="#339541" />
<path d="
M 645 549 
L 627 552 
L 661 552 
L 645 549 
M 638 548 
L 652 548 
L 695 554 
L 679 554 
L 667 553 
L 623 553 
L 610 554 
L 595 554 
L 638 548 
" fill="#339541" />
<path d="
M 679 545 
L 679 541 
L 650 541 
L 650 539 
L 695 539 
L 695 546 
Q 684 547 , 673 547 
Q 664 547 , 652 547 
Q 626 547 , 610 545 
Q 595 543 , 595 540 
Q 595 536 , 610 534 
Q 626 532 , 652 532 
Q 663 532 , 672 532 
Q 682 533 , 692 533 
L 692 535 
Q 679 534 , 671 534 
Q 662 534 , 653 534 
Q 632 534 , 621 535 
Q 611 537 , 611 540 
Q 611 543 , 621 544 
Q 632 545 , 653 545 
Q 662 545 , 669 545 
Q 676 545 , 679 545 
" fill="#F5C000" />
<path d="
M 695 518 
L 695 520 
Q 680 519 , 672 518 
Q 664 518 , 654 518 
Q 633 518 , 623 519 
Q 611 521 , 611 524 
Q 611 527 , 623 528 
Q 633 530 , 654 530 
Q 664 530 , 672 530 
Q 680 529 , 695 528 
L 695 530 
Q 684 531 , 674 531 
Q 664 532 , 653 532 
Q 626 532 , 611 529 
Q 595 527 , 595 524 
Q 595 520 , 611 518 
Q 626 516 , 653 516 
Q 664 516 , 674 516 
Q 685 517 , 695 518 
" fill="#545FFF" />
<path d="
M 595 356 
L 613 356 
L 613 450 
Q 613 476 , 621 487 
Q 628 497 , 645 497 
Q 662 497 , 670 487 
Q 677 476 , 677 450 
L 677 356 
L 695 356 
L 695 452 
Q 695 483 , 682 499 
Q 670 515 , 645 515 
Q 621 515 , 608 499 
Q 595 483 , 595 452 
L 595 356 
" fill="#D21010" />
<path d="
M 800 551 
L 800 551 
Q 785 551 , 777 551 
Q 769 551 , 759 551 
Q 738 551 , 728 551 
Q 716 551 , 716 552 
Q 716 553 , 728 554 
Q 738 554 , 759 554 
Q 769 554 , 777 554 
Q 785 554 , 800 553 
L 800 554 
Q 789 554 , 779 555 
Q 769 555 , 758 555 
Q 731 555 , 716 554 
Q 700 553 , 700 552 
Q 700 551 , 716 551 
Q 731 550 , 758 550 
Q 769 550 , 779 550 
Q 790 550 , 800 551 
" fill="#545FFF" />
<path d="
M 750 544 
L 732 547 
L 766 547 
L 750 544 
M 743 543 
L 757 543 
L 800 549 
L 784 549 
L 772 547 
L 728 547 
L 715 549 
L 700 549 
L 743 543 
" fill="#339541" />
<path d="
M 784 537 
L 784 527 
L 755 527 
L 755 523 
L 800 523 
L 800 540 
Q 789 542 , 778 542 
Q 769 543 , 757 543 
Q 731 543 , 715 538 
Q 700 533 , 700 524 
Q 700 515 , 715 510 
Q 731 505 , 757 505 
Q 768 505 , 777 506 
Q 787 506 , 797 508 
L 797 513 
Q 784 511 , 776 510 
Q 767 510 , 758 510 
Q 737 510 , 726 513 
Q 716 517 , 716 524 
Q 716 531 , 726 535 
Q 737 539 , 758 539 
Q 767 539 , 774 538 
Q 781 538 , 784 537 
" fill="#F5C000" />
<path d="
M 700 458 
L 718 458 
L 718 485 
Q 718 493 , 726 496 
Q 733 499 , 750 499 
Q 767 499 , 775 496 
Q 782 493 , 782 485 
L 782 458 
L 800 458 
L 800 486 
Q 800 495 , 787 499 
Q 775 504 , 750 504 
Q 726 504 , 713 499 
Q 700 495 , 700 486 
L 700 458 
" fill="#D21010" />
<path d="
M 905 551 
L 905 552 
Q 890 552 , 882 552 
Q 874 551 , 864 551 
Q 843 551 , 833 552 
Q 821 552 , 821 553 
Q 821 554 , 833 554 
Q 843 554 , 864 554 
Q 874 554 , 882 554 
Q 890 554 , 905 554 
L 905 554 
Q 894 555 , 884 555 
Q 874 555 , 863 555 
Q 836 555 , 821 554 
Q 805 554 , 805 553 
Q 805 552 , 821 552 
Q 836 551 , 863 551 
Q 874 551 , 884 551 
Q 895 551 , 905 551 
" fill="#545FFF" />
<path d="
M 855 544 
L 837 548 
L 871 548 
L 855 544 
M 848 543 
L 862 543 
L 905 551 
L 889 551 
L 877 549 
L 833 549 
L 820 551 
L 805 551 
L 848 543 
" fill="#339541" />
<path d="
M 805 524 
L 823 524 
L 823 535 
Q 823 538 , 831 539 
Q 838 540 , 855 540 
Q 872 540 , 880 539 
Q 887 538 , 887 535 
L 887 524 
L 905 524 
L 905 535 
Q 905 539 , 892 541 
Q 880 542 , 855 542 
Q 831 542 , 818 541 
Q 805 539 , 805 535 
L 805 524 
" fill="#D21010" />
<path d="
M 889 520 
L 889 514 
L 860 514 
L 860 511 
L 905 511 
L 905 522 
Q 894 523 , 883 523 
Q 874 524 , 862 524 
Q 836 524 , 820 520 
Q 805 517 , 805 511 
Q 805 506 , 820 502 
Q 836 499 , 862 499 
Q 873 499 , 882 499 
Q 892 500 , 902 501 
L 902 504 
Q 889 503 , 881 502 
Q 872 502 , 863 502 
Q 842 502 , 831 504 
Q 821 507 , 821 511 
Q 821 516 , 831 519 
Q 842 521 , 863 521 
Q 872 521 , 879 521 
Q 886 520 , 889 520 
" fill="#F5C000" />
<path d="
M 935 552 
L 926 553 
L 943 553 
L 935 552 
M 931 551 
L 939 551 
L 960 554 
L 952 554 
L 946 553 
L 924 553 
L 917 554 
L 910 554 
L 931 551 
" fill="lightgray" />
<path d="
M 960 551 
L 969 551 
L 969 553 
Q 969 553 , 973 553 
Q 976 554 , 985 554 
Q 994 554 , 997 553 
Q 1001 553 , 1001 553 
L 1001 551 
L 1010 551 
L 1010 553 
Q 1010 553 , 1004 554 
Q 997 554 , 985 554 
Q 973 554 , 966 554 
Q 960 553 , 960 553 
L 960 551 
" fill="#D21010" />
<path d="
M 910 546 
L 919 546 
L 919 549 
Q 919 549 , 923 550 
Q 926 550 , 935 550 
Q 944 550 , 947 550 
Q 951 549 , 951 549 
L 951 546 
L 960 546 
L 960 549 
Q 960 550 , 954 550 
Q 947 550 , 935 550 
Q 923 550 , 916 550 
Q 910 550 , 910 549 
L 910 546 
" fill="lightgray" />
<path d="
M 985 547 
L 976 549 
L 993 549 
L 985 547 
M 981 546 
L 989 546 
L 1010 550 
L 1002 550 
L 996 549 
L 974 549 
L 967 550 
L 960 550 
L 981 546 
" fill="#339541" />
<path d="
M 952 545 
L 952 543 
L 938 543 
L 938 542 
L 960 542 
L 960 545 
Q 955 546 , 949 546 
Q 944 546 , 938 546 
Q 925 546 , 918 545 
Q 910 544 , 910 542 
Q 910 541 , 918 540 
Q 925 539 , 938 539 
Q 944 539 , 949 539 
Q 954 539 , 959 540 
L 959 540 
Q 952 540 , 948 540 
Q 944 540 , 939 540 
Q 929 540 , 923 540 
Q 918 541 , 918 542 
Q 918 544 , 923 545 
Q 929 545 , 939 545 
Q 944 545 , 947 545 
Q 951 545 , 952 545 
" fill="lightgray" />
<path d="
M 1010 540 
L 1010 541 
Q 1003 540 , 999 540 
Q 994 540 , 989 540 
Q 979 540 , 974 540 
Q 968 541 , 968 542 
Q 968 544 , 974 545 
Q 979 545 , 989 545 
Q 994 545 , 999 545 
Q 1003 545 , 1010 544 
L 1010 545 
Q 1005 546 , 999 546 
Q 995 546 , 989 546 
Q 975 546 , 968 545 
Q 960 544 , 960 542 
Q 960 541 , 968 540 
Q 975 539 , 989 539 
Q 995 539 , 1000 539 
Q 1005 539 , 1010 540 
" fill="#545FFF" />
<path d="
M 960 532 
L 960 533 
Q 953 532 , 949 532 
Q 944 532 , 939 532 
Q 929 532 , 924 533 
Q 918 533 , 918 534 
Q 918 536 , 924 537 
Q 929 538 , 939 538 
Q 944 538 , 949 537 
Q 953 537 , 960 536 
L 960 538 
Q 955 538 , 949 538 
Q 945 538 , 939 538 
Q 925 538 , 918 537 
Q 910 536 , 910 535 
Q 910 533 , 918 532 
Q 925 531 , 939 531 
Q 945 531 , 950 531 
Q 955 531 , 960 532 
" fill="lightgray" />
<path d="
M 1002 537 
L 1002 535 
L 988 535 
L 988 534 
L 1010 534 
L 1010 538 
Q 1005 538 , 999 538 
Q 994 538 , 988 538 
Q 975 538 , 968 537 
Q 960 536 , 960 535 
Q 960 533 , 968 532 
Q 975 531 , 988 531 
Q 994 531 , 999 531 
Q 1004 531 , 1009 532 
L 1009 533 
Q 1002 532 , 998 532 
Q 994 532 , 989 532 
Q 979 532 , 973 533 
Q 968 533 , 968 535 
Q 968 536 , 973 537 
Q 979 537 , 989 537 
Q 994 537 , 997 537 
Q 1001 537 , 1002 537 
" fill="#F5C000" />
<path d="
M 952 528 
L 952 525 
L 938 525 
L 938 523 
L 960 523 
L 960 529 
Q 955 530 , 949 530 
Q 944 530 , 938 530 
Q 925 530 , 918 529 
Q 910 527 , 910 524 
Q 910 521 , 918 519 
Q 925 517 , 938 517 
Q 944 517 , 949 517 
Q 954 517 , 959 518 
L 959 520 
Q 952 519 , 948 519 
Q 944 519 , 939 519 
Q 929 519 , 923 520 
Q 918 521 , 918 524 
Q 918 526 , 923 528 
Q 929 529 , 939 529 
Q 944 529 , 947 529 
Q 951 529 , 952 528 
" fill="lightgray" />
<path d="
M 960 517 
L 969 517 
L 969 525 
Q 969 527 , 973 528 
Q 976 529 , 985 529 
Q 994 529 , 997 528 
Q 1001 527 , 1001 525 
L 1001 517 
L 1010 517 
L 1010 525 
Q 1010 528 , 1004 529 
Q 997 530 , 985 530 
Q 973 530 , 966 529 
Q 960 528 , 960 525 
L 960 517 
" fill="#D21010" />
<path d="
M 910 495 
L 919 495 
L 919 508 
Q 919 511 , 923 513 
Q 926 514 , 935 514 
Q 944 514 , 947 513 
Q 951 511 , 951 508 
L 951 495 
L 960 495 
L 960 508 
Q 960 512 , 954 514 
Q 947 516 , 935 516 
Q 923 516 , 916 514 
Q 910 512 , 910 508 
L 910 495 
" fill="lightgray" />
<path d="
M 1002 513 
L 1002 508 
L 988 508 
L 988 505 
L 1010 505 
L 1010 515 
Q 1005 516 , 999 516 
Q 994 516 , 988 516 
Q 975 516 , 968 513 
Q 960 511 , 960 506 
Q 960 501 , 968 498 
Q 975 495 , 988 495 
Q 994 495 , 999 495 
Q 1004 496 , 1009 497 
L 1009 499 
Q 1002 498 , 998 498 
Q 994 498 , 989 498 
Q 979 498 , 973 500 
Q 968 502 , 968 506 
Q 968 510 , 973 512 
Q 979 514 , 989 514 
Q 994 514 , 997 514 
Q 1001 513 , 1002 513 
" fill="#F5C000" />
<path d="
M 1115 551 
L 1115 552 
Q 1100 552 , 1092 551 
Q 1084 551 , 1074 551 
Q 1053 551 , 1043 552 
Q 1031 552 , 1031 552 
Q 1031 553 , 1043 554 
Q 1053 554 , 1074 554 
Q 1084 554 , 1092 554 
Q 1100 554 , 1115 553 
L 1115 554 
Q 1104 554 , 1094 554 
Q 1084 554 , 1073 554 
Q 1046 554 , 1031 554 
Q 1015 553 , 1015 553 
Q 1015 552 , 1031 551 
Q 1046 551 , 1073 551 
Q 1084 551 , 1094 551 
Q 1105 551 , 1115 551 
" fill="#545FFF" />
<path d="
M 1065 546 
L 1047 548 
L 1081 548 
L 1065 546 
M 1058 545 
L 1072 545 
L 1115 551 
L 1099 551 
L 1087 549 
L 1043 549 
L 1030 551 
L 1015 551 
L 1058 545 
" fill="#339541" />
<path d="
M 1099 544 
L 1099 542 
L 1070 542 
L 1070 541 
L 1115 541 
L 1115 544 
Q 1104 544 , 1093 545 
Q 1084 545 , 1072 545 
Q 1046 545 , 1030 544 
Q 1015 543 , 1015 541 
Q 1015 539 , 1030 538 
Q 1046 537 , 1072 537 
Q 1083 537 , 1092 537 
Q 1102 537 , 1112 538 
L 1112 539 
Q 1099 538 , 1091 538 
Q 1082 538 , 1073 538 
Q 1052 538 , 1041 539 
Q 1031 539 , 1031 541 
Q 1031 542 , 1041 543 
Q 1052 544 , 1073 544 
Q 1082 544 , 1089 544 
Q 1096 544 , 1099 544 
" fill="#F5C000" />
<path d="
M 1015 524 
L 1033 524 
L 1033 531 
Q 1033 533 , 1041 534 
Q 1048 535 , 1065 535 
Q 1082 535 , 1090 534 
Q 1097 533 , 1097 531 
L 1097 524 
L 1115 524 
L 1115 532 
Q 1115 534 , 1102 535 
Q 1090 536 , 1065 536 
Q 1041 536 , 1028 535 
Q 1015 534 , 1015 532 
L 1015 524 
" fill="#D21010" />
<path d="
M 1220 552 
L 1220 553 
Q 1205 552 , 1197 552 
Q 1189 552 , 1179 552 
Q 1158 552 , 1148 553 
Q 1136 553 , 1136 553 
Q 1136 554 , 1148 554 
Q 1158 555 , 1179 555 
Q 1189 555 , 1197 554 
Q 1205 554 , 1220 554 
L 1220 555 
Q 1209 555 , 1199 555 
Q 1189 555 , 1178 555 
Q 1151 555 , 1136 554 
Q 1120 554 , 1120 553 
Q 1120 553 , 1136 552 
Q 1151 552 , 1178 552 
Q 1189 552 , 1199 552 
Q 1210 552 , 1220 552 
" fill="#545FFF" />
<path d="
M 1204 550 
L 1204 549 
L 1175 549 
L 1175 548 
L 1220 548 
L 1220 551 
Q 1209 551 , 1198 551 
Q 1189 551 , 1177 551 
Q 1151 551 , 1135 550 
Q 1120 550 , 1120 548 
Q 1120 547 , 1135 546 
Q 1151 545 , 1177 545 
Q 1188 545 , 1197 545 
Q 1207 545 , 1217 546 
L 1217 546 
Q 1204 546 , 1196 546 
Q 1187 546 , 1178 546 
Q 1157 546 , 1146 546 
Q 1136 547 , 1136 548 
Q 1136 549 , 1146 550 
Q 1157 551 , 1178 551 
Q 1187 551 , 1194 551 
Q 1201 551 , 1204 550 
" fill="#F5C000" />
<path d="
M 1170 538 
L 1152 541 
L 1186 541 
L 1170 538 
M 1163 536 
L 1177 536 
L 1220 544 
L 1204 544 
L 1192 542 
L 1148 542 
L 1135 544 
L 1120 544 
L 1163 536 
" fill="#339541" />
<path d="
M 1120 524 
L 1138 524 
L 1138 531 
Q 1138 533 , 1146 534 
Q 1153 535 , 1170 535 
Q 1187 535 , 1195 534 
Q 1202 533 , 1202 531 
L 1202 524 
L 1220 524 
L 1220 531 
Q 1220 534 , 1207 535 
Q 1195 536 , 1170 536 
Q 1146 536 , 1133 535 
Q 1120 534 , 1120 531 
L 1120 524 
" fill="#D21010" />
<path d="
M 1325 554 
L 1325 554 
Q 1310 554 , 1302 554 
Q 1294 554 , 1284 554 
Q 1263 554 , 1253 554 
Q 1241 554 , 1241 554 
Q 1241 554 , 1253 554 
Q 1263 555 , 1284 555 
Q 1294 555 , 1302 555 
Q 1310 555 , 1325 554 
L 1325 555 
Q 1314 555 , 1304 555 
Q 1294 555 , 1283 555 
Q 1256 555 , 1241 555 
Q 1225 554 , 1225 554 
Q 1225 554 , 1241 554 
Q 1256 554 , 1283 554 
Q 1294 554 , 1304 554 
Q 1315 554 , 1325 554 
" fill="#545FFF" />
<path d="
M 1309 554 
L 1309 553 
L 1280 553 
L 1280 553 
L 1325 553 
L 1325 554 
Q 1314 554 , 1303 554 
Q 1294 554 , 1282 554 
Q 1256 554 , 1240 554 
Q 1225 554 , 1225 553 
Q 1225 553 , 1240 553 
Q 1256 553 , 1282 553 
Q 1293 553 , 1302 553 
Q 1312 553 , 1322 553 
L 1322 553 
Q 1309 553 , 1301 553 
Q 1292 553 , 1283 553 
Q 1262 553 , 1251 553 
Q 1241 553 , 1241 553 
Q 1241 554 , 1251 554 
Q 1262 554 , 1283 554 
Q 1292 554 , 1299 554 
Q 1306 554 , 1309 554 
" fill="#F5C000" />
<path d="
M 1275 552 
L 1257 552 
L 1291 552 
L 1275 552 
M 1268 552 
L 1282 552 
L 1325 553 
L 1309 553 
L 1297 553 
L 1253 553 
L 1240 553 
L 1225 553 
L 1268 552 
" fill="#339541" />
<path d="
M 1225 551 
L 1243 551 
L 1243 552 
Q 1243 552 , 1251 552 
Q 1258 552 , 1275 552 
Q 1292 552 , 1300 552 
Q 1307 552 , 1307 552 
L 1307 551 
L 1325 551 
L 1325 552 
Q 1325 552 , 1312 552 
Q 1300 552 , 1275 552 
Q 1251 552 , 1238 552 
Q 1225 552 , 1225 552 
L 1225 551 
" fill="#D21010" />
<path d="M 65 168 L 65 555 " stroke="black" stroke-width="1.5"/>
<path d="M 55 555 L 65 555 " stroke="black" stroke-width="4"/>
<text text-anchor="end" x="50" y="555" font-size="50" alignment-baseline="middle">0</text>
<path d="M 55 362 L 65 362 " stroke="black" stroke-width="4"/>
<text text-anchor="end" x="50" y="362" font-size="50" alignment-baseline="middle">1</text>
<path d="M 55 168 L 65 168 " stroke="black" stroke-width="4"/>
<text text-anchor="end" x="50" y="168" font-size="50" alignment-baseline="middle">2</text>
<text text-anchor="middle" x="697" y="50" font-size="50" alignment-baseline="baseline"></text>
G<path d="
M 160 582 
L 126 595 
L 160 608 
L 157 611 
L 123 598 
L 123 623 
L 117 623 
L 117 599 
L 83 611 
L 80 608 
L 114 595 
L 80 582 
L 83 579 
L 117 591 
L 117 567 
L 123 567 
L 123 591 
L 157 579 
L 160 582 
" fill="black" />
<path d="
" fill="black" />
<path d="
M 211 567 
L 238 567 
L 238 623 
L 211 623 
L 211 567 
" fill="black" />
<path d="
" fill="black" />
<path d="
" fill="black" />
<path d="
M 307 567 
L 327 567 
L 327 623 
L 307 623 
L 307 567 
" fill="black" />
<path d="
" fill="black" />
<path d="
M 360 619 
L 377 619 
L 377 623 
L 357 623 
L 357 619 
L 365 604 
Q 367 599 , 370 595 
Q 372 591 , 372 589 
Q 373 587 , 373 583 
Q 373 577 , 371 573 
Q 370 571 , 366 571 
Q 364 571 , 362 573 
Q 361 574 , 357 577 
L 357 573 
Q 359 571 , 361 569 
Q 364 567 , 366 567 
Q 370 567 , 373 571 
Q 376 574 , 376 583 
Q 376 586 , 375 589 
Q 374 593 , 372 597 
Q 372 598 , 369 603 
L 360 619 
" fill="black" />
<path d="
M 475 567 
Q 446 574 , 433 581 
Q 420 588 , 420 595 
Q 420 602 , 433 609 
Q 446 616 , 475 623 
L 451 623 
Q 423 616 , 409 609 
Q 395 602 , 395 595 
Q 395 588 , 409 581 
Q 423 574 , 451 567 
L 475 567 
" fill="black" />
<path d="
" fill="black" />
<path d="
M 526 567 
L 553 567 
L 553 623 
L 526 623 
L 526 567 
" fill="black" />
<path d="
" fill="black" />
<path d="
" fill="black" />
<path d="
M 631 567 
L 658 567 
L 658 623 
L 631 623 
L 631 567 
" fill="black" />
<path d="
" fill="black" />
<path d="
" fill="black" />
<path d="
M 736 567 
L 763 567 
L 763 623 
L 736 623 
L 736 567 
" fill="black" />
<path d="
" fill="black" />
<path d="
" fill="black" />
<path d="
M 832 567 
L 852 567 
L 852 623 
L 832 623 
L 832 567 
" fill="black" />
<path d="
" fill="black" />
<path d="
M 885 619 
L 902 619 
L 902 623 
L 882 623 
L 882 619 
L 890 604 
Q 892 599 , 895 595 
Q 897 591 , 897 589 
Q 898 587 , 898 583 
Q 898 577 , 896 573 
Q 895 571 , 891 571 
Q 889 571 , 887 573 
Q 886 574 , 882 577 
L 882 573 
Q 884 571 , 886 569 
Q 889 567 , 891 567 
Q 895 567 , 898 571 
Q 901 574 , 901 583 
Q 901 586 , 900 589 
Q 899 593 , 897 597 
Q 897 598 , 894 603 
L 885 619 
" fill="black" />
<path d="
M 920 567 
L 944 567 
Q 972 574 , 986 581 
Q 1000 588 , 1000 595 
Q 1000 602 , 986 609 
Q 972 616 , 944 623 
L 920 623 
Q 949 616 , 962 609 
Q 975 602 , 975 595 
Q 975 588 , 962 581 
Q 949 574 , 920 567 
" fill="black" />
<path d="
" fill="black" />
<path d="
M 1051 567 
L 1078 567 
L 1078 623 
L 1051 623 
L 1051 567 
" fill="black" />
<path d="
" fill="black" />
<path d="
" fill="black" />
<path d="
M 1156 567 
L 1183 567 
L 1183 623 
L 1156 623 
L 1156 567 
" fill="black" />
<path d="
" fill="black" />
<path d="
M 1315 582 
L 1281 595 
L 1315 608 
L 1312 611 
L 1278 598 
L 1278 623 
L 1272 623 
L 1272 599 
L 1238 611 
L 1235 608 
L 1269 595 
L 1235 582 
L 1238 579 
L 1272 591 
L 1272 567 
L 1278 567 
L 1278 591 
L 1312 579 
L 1315 582 
" fill="black" />
</svg>
