<svg xmlns="http://www.w3.org/2000/svg"
viewBox="0 0 1435 635">
<path d="
M 170 554 
L 170 554 
Q 155 554 , 147 554 
Q 139 554 , 129 554 
Q 108 554 , 98 554 
Q 86 554 , 86 554 
Q 86 555 , 98 555 
Q 108 555 , 129 555 
Q 139 555 , 147 555 
Q 155 555 , 170 555 
L 170 555 
Q 159 555 , 149 555 
Q 139 555 , 128 555 
Q 101 555 , 86 555 
Q 70 555 , 70 554 
Q 70 554 , 86 554 
Q 101 554 , 128 554 
Q 139 554 , 149 554 
Q 160 554 , 170 554 
" fill="#545FFF" />
<path d="
M 154 554 
L 154 554 
L 125 554 
L 125 553 
L 170 553 
L 170 554 
Q 159 554 , 148 554 
Q 139 554 , 127 554 
Q 101 554 , 85 554 
Q 70 554 , 70 553 
Q 70 553 , 85 553 
Q 101 553 , 127 553 
Q 138 553 , 147 553 
Q 157 553 , 167 553 
L 167 553 
Q 154 553 , 146 553 
Q 137 553 , 128 553 
Q 107 553 , 96 553 
Q 86 553 , 86 553 
Q 86 554 , 96 554 
Q 107 554 , 128 554 
Q 137 554 , 144 554 
Q 151 554 , 154 554 
" fill="#F5C000" />
<path d="
M 120 551 
L 102 552 
L 136 552 
L 120 551 
M 113 551 
L 127 551 
L 170 552 
L 154 552 
L 142 552 
L 98 552 
L 85 552 
L 70 552 
L 113 551 
" fill="#339541" />
<path d="
M 70 549 
L 88 549 
L 88 550 
Q 88 550 , 96 550 
Q 103 550 , 120 550 
Q 137 550 , 145 550 
Q 152 550 , 152 550 
L 152 549 
L 170 549 
L 170 550 
Q 170 550 , 157 550 
Q 145 550 , 120 550 
Q 96 550 , 83 550 
Q 70 550 , 70 550 
L 70 549 
" fill="#D21010" />
<path d="
M 225 546 
L 207 550 
L 241 550 
L 225 546 
M 218 544 
L 232 544 
L 275 554 
L 259 554 
L 247 551 
L 203 551 
L 190 554 
L 175 554 
L 218 544 
" fill="#339541" />
<path d="
M 259 542 
L 259 539 
L 230 539 
L 230 538 
L 275 538 
L 275 542 
Q 264 543 , 253 543 
Q 244 543 , 232 543 
Q 206 543 , 190 542 
Q 175 541 , 175 538 
Q 175 536 , 190 534 
Q 206 533 , 232 533 
Q 243 533 , 252 533 
Q 262 533 , 272 534 
L 272 535 
Q 259 535 , 251 534 
Q 242 534 , 233 534 
Q 212 534 , 201 535 
Q 191 536 , 191 538 
Q 191 540 , 201 541 
Q 212 542 , 233 542 
Q 242 542 , 249 542 
Q 256 542 , 259 542 
" fill="#F5C000" />
<path d="
M 275 521 
L 275 523 
Q 260 522 , 252 522 
Q 244 521 , 234 521 
Q 213 521 , 203 523 
Q 191 524 , 191 526 
Q 191 528 , 203 530 
Q 213 531 , 234 531 
Q 244 531 , 252 531 
Q 260 530 , 275 529 
L 275 531 
Q 264 532 , 254 532 
Q 244 532 , 233 532 
Q 206 532 , 191 531 
Q 175 529 , 175 526 
Q 175 523 , 191 522 
Q 206 520 , 233 520 
Q 244 520 , 254 520 
Q 265 521 , 275 521 
" fill="#545FFF" />
<path d="
M 175 481 
L 193 481 
L 193 504 
Q 193 510 , 201 513 
Q 208 515 , 225 515 
Q 242 515 , 250 513 
Q 257 510 , 257 504 
L 257 481 
L 275 481 
L 275 504 
Q 275 512 , 262 516 
Q 250 520 , 225 520 
Q 201 520 , 188 516 
Q 175 512 , 175 504 
L 175 481 
" fill="#D21010" />
<path d="
M 380 546 
L 380 547 
Q 365 546 , 357 546 
Q 349 546 , 339 546 
Q 318 546 , 308 547 
Q 296 548 , 296 549 
Q 296 551 , 308 552 
Q 318 553 , 339 553 
Q 349 553 , 357 553 
Q 365 553 , 380 552 
L 380 553 
Q 369 554 , 359 554 
Q 349 554 , 338 554 
Q 311 554 , 296 553 
Q 280 552 , 280 550 
Q 280 547 , 296 546 
Q 311 545 , 338 545 
Q 349 545 , 359 545 
Q 370 545 , 380 546 
" fill="#545FFF" />
<path d="
M 330 537 
L 312 540 
L 346 540 
L 330 537 
M 323 535 
L 337 535 
L 380 544 
L 364 544 
L 352 542 
L 308 542 
L 295 544 
L 280 544 
L 323 535 
" fill="#339541" />
<path d="
M 364 529 
L 364 519 
L 335 519 
L 335 515 
L 380 515 
L 380 531 
Q 369 533 , 358 533 
Q 349 534 , 337 534 
Q 311 534 , 295 529 
Q 280 524 , 280 516 
Q 280 508 , 295 503 
Q 311 498 , 337 498 
Q 348 498 , 357 499 
Q 367 499 , 377 501 
L 377 506 
Q 364 503 , 356 503 
Q 347 502 , 338 502 
Q 317 502 , 306 506 
Q 296 509 , 296 516 
Q 296 523 , 306 527 
Q 317 530 , 338 530 
Q 347 530 , 354 530 
Q 361 529 , 364 529 
" fill="#F5C000" />
<path d="
M 280 334 
L 298 334 
L 298 431 
Q 298 458 , 306 469 
Q 313 480 , 330 480 
Q 347 480 , 355 469 
Q 362 458 , 362 431 
L 362 334 
L 380 334 
L 380 433 
Q 380 465 , 367 481 
Q 355 498 , 330 498 
Q 306 498 , 293 481 
Q 280 465 , 280 433 
L 280 334 
" fill="#D21010" />
<path d="
M 485 550 
L 485 550 
Q 470 550 , 462 550 
Q 454 550 , 444 550 
Q 423 550 , 413 550 
Q 401 551 , 401 552 
Q 401 553 , 413 553 
Q 423 554 , 444 554 
Q 454 554 , 462 554 
Q 470 553 , 485 553 
L 485 554 
Q 474 554 , 464 554 
Q 454 554 , 443 554 
Q 416 554 , 401 554 
Q 385 553 , 385 552 
Q 385 550 , 401 550 
Q 416 549 , 443 549 
Q 454 549 , 464 549 
Q 475 549 , 485 550 
" fill="#545FFF" />
<path d="
M 435 543 
L 417 546 
L 451 546 
L 435 543 
M 428 542 
L 442 542 
L 485 548 
L 469 548 
L 457 547 
L 413 547 
L 400 548 
L 385 548 
L 428 542 
" fill="#339541" />
<path d="
M 469 531 
L 469 513 
L 440 513 
L 440 505 
L 485 505 
L 485 536 
Q 474 539 , 463 540 
Q 454 541 , 442 541 
Q 416 541 , 400 532 
Q 385 523 , 385 507 
Q 385 491 , 400 481 
Q 416 472 , 442 472 
Q 453 472 , 462 473 
Q 472 474 , 482 478 
L 482 487 
Q 469 483 , 461 481 
Q 452 480 , 443 480 
Q 422 480 , 411 487 
Q 401 493 , 401 507 
Q 401 520 , 411 527 
Q 422 534 , 443 534 
Q 452 534 , 459 533 
Q 466 532 , 469 531 
" fill="#F5C000" />
<path d="
M 385 399 
L 403 399 
L 403 442 
Q 403 454 , 411 459 
Q 418 463 , 435 463 
Q 452 463 , 460 459 
Q 467 454 , 467 442 
L 467 399 
L 485 399 
L 485 443 
Q 485 457 , 472 464 
Q 460 471 , 435 471 
Q 411 471 , 398 464 
Q 385 457 , 385 443 
L 385 399 
" fill="#D21010" />
<path d="
M 590 549 
L 590 550 
Q 575 549 , 567 549 
Q 559 549 , 549 549 
Q 528 549 , 518 549 
Q 506 550 , 506 551 
Q 506 553 , 518 553 
Q 528 554 , 549 554 
Q 559 554 , 567 554 
Q 575 554 , 590 553 
L 590 554 
Q 579 554 , 569 555 
Q 559 555 , 548 555 
Q 521 555 , 506 554 
Q 490 553 , 490 551 
Q 490 550 , 506 549 
Q 521 548 , 548 548 
Q 559 548 , 569 548 
Q 580 548 , 590 549 
" fill="#545FFF" />
<path d="
M 540 541 
L 522 544 
L 556 544 
L 540 541 
M 533 539 
L 547 539 
L 590 548 
L 574 548 
L 562 545 
L 518 545 
L 505 548 
L 490 548 
L 533 539 
" fill="#339541" />
<path d="
M 574 532 
L 574 520 
L 545 520 
L 545 515 
L 590 515 
L 590 535 
Q 579 537 , 568 537 
Q 559 538 , 547 538 
Q 521 538 , 505 532 
Q 490 526 , 490 516 
Q 490 505 , 505 499 
Q 521 493 , 547 493 
Q 558 493 , 567 494 
Q 577 495 , 587 497 
L 587 502 
Q 574 500 , 566 499 
Q 557 498 , 548 498 
Q 527 498 , 516 503 
Q 506 507 , 506 516 
Q 506 524 , 516 529 
Q 527 533 , 548 533 
Q 557 533 , 564 533 
Q 571 532 , 574 532 
" fill="#F5C000" />
<path d="
M 490 374 
L 508 374 
L 508 444 
Q 508 463 , 516 471 
Q 523 479 , 540 479 
Q 557 479 , 565 471 
Q 572 463 , 572 444 
L 572 374 
L 590 374 
L 590 446 
Q 590 468 , 577 480 
Q 565 492 , 540 492 
Q 516 492 , 503 480 
Q 490 468 , 490 446 
L 490 374 
" fill="#D21010" />
<path d="
M 695 552 
L 695 553 
Q 680 552 , 672 552 
Q 664 552 , 654 552 
Q 633 552 , 623 553 
Q 611 553 , 611 553 
Q 611 554 , 623 554 
Q 633 555 , 654 555 
Q 664 555 , 672 555 
Q 680 554 , 695 554 
L 695 555 
Q 684 555 , 674 555 
Q 664 555 , 653 555 
Q 626 555 , 611 554 
Q 595 554 , 595 553 
Q 595 553 , 611 552 
Q 626 552 , 653 552 
Q 664 552 , 674 552 
Q 685 552 , 695 552 
" fill="#545FFF" />
<path d="
M 679 550 
L 679 547 
L 650 547 
L 650 546 
L 695 546 
L 695 551 
Q 684 551 , 673 551 
Q 664 552 , 652 552 
Q 626 552 , 610 550 
Q 595 549 , 595 546 
Q 595 544 , 610 542 
Q 626 541 , 652 541 
Q 663 541 , 672 541 
Q 682 541 , 692 542 
L 692 543 
Q 679 543 , 671 542 
Q 662 542 , 653 542 
Q 632 542 , 621 543 
Q 611 544 , 611 546 
Q 611 548 , 621 549 
Q 632 550 , 653 550 
Q 662 550 , 669 550 
Q 676 550 , 679 550 
" fill="#F5C000" />
<path d="
M 595 530 
L 613 530 
L 613 536 
Q 613 538 , 621 539 
Q 628 540 , 645 540 
Q 662 540 , 670 539 
Q 677 538 , 677 536 
L 677 530 
L 695 530 
L 695 537 
Q 695 539 , 682 540 
Q 670 541 , 645 541 
Q 621 541 , 608 540 
Q 595 539 , 595 537 
L 595 530 
" fill="#D21010" />
<path d="
M 645 519 
L 627 525 
L 661 525 
L 645 519 
M 638 517 
L 652 517 
L 695 530 
L 679 530 
L 667 526 
L 623 526 
L 610 530 
L 595 530 
L 638 517 
" fill="#339541" />
<path d="
M 800 554 
L 800 554 
Q 785 554 , 777 554 
Q 769 554 , 759 554 
Q 738 554 , 728 554 
Q 716 554 , 716 554 
Q 716 555 , 728 555 
Q 738 555 , 759 555 
Q 769 555 , 777 555 
Q 785 555 , 800 555 
L 800 555 
Q 789 555 , 779 555 
Q 769 555 , 758 555 
Q 731 555 , 716 555 
Q 700 555 , 700 554 
Q 700 554 , 716 554 
Q 731 554 , 758 554 
Q 769 554 , 779 554 
Q 790 554 , 800 554 
" fill="#545FFF" />
<path d="
M 784 554 
L 784 554 
L 755 554 
L 755 553 
L 800 553 
L 800 554 
Q 789 554 , 778 554 
Q 769 554 , 757 554 
Q 731 554 , 715 554 
Q 700 554 , 700 553 
Q 700 553 , 715 553 
Q 731 553 , 757 553 
Q 768 553 , 777 553 
Q 787 553 , 797 553 
L 797 553 
Q 784 553 , 776 553 
Q 767 553 , 758 553 
Q 737 553 , 726 553 
Q 716 553 , 716 553 
Q 716 554 , 726 554 
Q 737 554 , 758 554 
Q 767 554 , 774 554 
Q 781 554 , 784 554 
" fill="#F5C000" />
<path d="
M 750 551 
L 732 552 
L 766 552 
L 750 551 
M 743 551 
L 757 551 
L 800 552 
L 784 552 
L 772 552 
L 728 552 
L 715 552 
L 700 552 
L 743 551 
" fill="#339541" />
<path d="
M 700 549 
L 718 549 
L 718 550 
Q 718 550 , 726 550 
Q 733 550 , 750 550 
Q 767 550 , 775 550 
Q 782 550 , 782 550 
L 782 549 
L 800 549 
L 800 550 
Q 800 550 , 787 550 
Q 775 550 , 750 550 
Q 726 550 , 713 550 
Q 700 550 , 700 550 
L 700 549 
" fill="#D21010" />
<path d="
M 855 552 
L 837 553 
L 871 553 
L 855 552 
M 848 551 
L 862 551 
L 905 554 
L 889 554 
L 877 553 
L 833 553 
L 820 554 
L 805 554 
L 848 551 
" fill="#339541" />
<path d="
M 889 549 
L 889 545 
L 860 545 
L 860 543 
L 905 543 
L 905 549 
Q 894 550 , 883 550 
Q 874 551 , 862 551 
Q 836 551 , 820 549 
Q 805 547 , 805 543 
Q 805 540 , 820 538 
Q 836 536 , 862 536 
Q 873 536 , 882 536 
Q 892 537 , 902 537 
L 902 539 
Q 889 538 , 881 538 
Q 872 538 , 863 538 
Q 842 538 , 831 539 
Q 821 540 , 821 543 
Q 821 546 , 831 548 
Q 842 549 , 863 549 
Q 872 549 , 879 549 
Q 886 549 , 889 549 
" fill="#F5C000" />
<path d="
M 805 501 
L 823 501 
L 823 521 
Q 823 527 , 831 529 
Q 838 531 , 855 531 
Q 872 531 , 880 529 
Q 887 527 , 887 521 
L 887 501 
L 905 501 
L 905 522 
Q 905 528 , 892 532 
Q 880 535 , 855 535 
Q 831 535 , 818 532 
Q 805 528 , 805 522 
L 805 501 
" fill="#D21010" />
<path d="
M 905 455 
L 905 463 
Q 890 458 , 882 457 
Q 874 456 , 864 456 
Q 843 456 , 833 461 
Q 821 466 , 821 475 
Q 821 485 , 833 490 
Q 843 495 , 864 495 
Q 874 495 , 882 494 
Q 890 493 , 905 488 
L 905 496 
Q 894 499 , 884 500 
Q 874 501 , 863 501 
Q 836 501 , 821 494 
Q 805 487 , 805 475 
Q 805 464 , 821 457 
Q 836 450 , 863 450 
Q 874 450 , 884 451 
Q 895 452 , 905 455 
" fill="#545FFF" />
<path d="
M 960 550 
L 942 552 
L 976 552 
L 960 550 
M 953 549 
L 967 549 
L 1010 554 
L 994 554 
L 982 553 
L 938 553 
L 925 554 
L 910 554 
L 953 549 
" fill="#339541" />
<path d="
M 994 546 
L 994 540 
L 965 540 
L 965 537 
L 1010 537 
L 1010 547 
Q 999 548 , 988 548 
Q 979 549 , 967 549 
Q 941 549 , 925 546 
Q 910 543 , 910 538 
Q 910 533 , 925 530 
Q 941 527 , 967 527 
Q 978 527 , 987 527 
Q 997 528 , 1007 529 
L 1007 532 
Q 994 530 , 986 530 
Q 977 530 , 968 530 
Q 947 530 , 936 532 
Q 926 534 , 926 538 
Q 926 542 , 936 544 
Q 947 546 , 968 546 
Q 977 546 , 984 546 
Q 991 546 , 994 546 
" fill="#F5C000" />
<path d="
M 1010 504 
L 1010 508 
Q 995 505 , 987 504 
Q 979 504 , 969 504 
Q 948 504 , 938 506 
Q 926 509 , 926 514 
Q 926 519 , 938 521 
Q 948 524 , 969 524 
Q 979 524 , 987 523 
Q 995 522 , 1010 520 
L 1010 524 
Q 999 525 , 989 526 
Q 979 526 , 968 526 
Q 941 526 , 926 523 
Q 910 520 , 910 514 
Q 910 508 , 926 504 
Q 941 501 , 968 501 
Q 979 501 , 989 502 
Q 1000 502 , 1010 504 
" fill="#545FFF" />
<path d="
M 910 327 
L 928 327 
L 928 429 
Q 928 458 , 936 470 
Q 943 481 , 960 481 
Q 977 481 , 985 470 
Q 992 458 , 992 429 
L 992 327 
L 1010 327 
L 1010 432 
Q 1010 465 , 997 483 
Q 985 500 , 960 500 
Q 936 500 , 923 483 
Q 910 465 , 910 432 
L 910 327 
" fill="#D21010" />
<path d="
M 1065 552 
L 1047 553 
L 1081 553 
L 1065 552 
M 1058 551 
L 1072 551 
L 1115 555 
L 1099 555 
L 1087 554 
L 1043 554 
L 1030 555 
L 1015 555 
L 1058 551 
" fill="#339541" />
<path d="
M 1115 542 
L 1115 543 
Q 1100 542 , 1092 542 
Q 1084 542 , 1074 542 
Q 1053 542 , 1043 543 
Q 1031 544 , 1031 545 
Q 1031 547 , 1043 548 
Q 1053 549 , 1074 549 
Q 1084 549 , 1092 549 
Q 1100 549 , 1115 548 
L 1115 549 
Q 1104 550 , 1094 550 
Q 1084 550 , 1073 550 
Q 1046 550 , 1031 549 
Q 1015 548 , 1015 546 
Q 1015 543 , 1031 542 
Q 1046 541 , 1073 541 
Q 1084 541 , 1094 541 
Q 1105 541 , 1115 542 
" fill="#545FFF" />
<path d="
M 1015 502 
L 1033 502 
L 1033 524 
Q 1033 531 , 1041 533 
Q 1048 536 , 1065 536 
Q 1082 536 , 1090 533 
Q 1097 531 , 1097 524 
L 1097 502 
L 1115 502 
L 1115 525 
Q 1115 532 , 1102 536 
Q 1090 540 , 1065 540 
Q 1041 540 , 1028 536 
Q 1015 532 , 1015 525 
L 1015 502 
" fill="#D21010" />
<path d="
M 1099 468 
L 1099 406 
L 1070 406 
L 1070 380 
L 1115 380 
L 1115 483 
Q 1104 493 , 1093 497 
Q 1084 501 , 1072 501 
Q 1046 501 , 1030 470 
Q 1015 439 , 1015 385 
Q 1015 331 , 1030 300 
Q 1046 269 , 1072 269 
Q 1083 269 , 1092 273 
Q 1102 277 , 1112 288 
L 1112 318 
Q 1099 304 , 1091 300 
Q 1082 297 , 1073 297 
Q 1052 297 , 1041 318 
Q 1031 340 , 1031 385 
Q 1031 431 , 1041 453 
Q 1052 475 , 1073 475 
Q 1082 475 , 1089 473 
Q 1096 471 , 1099 468 
" fill="#F5C000" />
<path d="
M 1170 552 
L 1152 553 
L 1186 553 
L 1170 552 
M 1163 551 
L 1177 551 
L 1220 555 
L 1204 555 
L 1192 554 
L 1148 554 
L 1135 555 
L 1120 555 
L 1163 551 
" fill="#339541" />
<path d="
M 1220 538 
L 1220 540 
Q 1205 539 , 1197 539 
Q 1189 538 , 1179 538 
Q 1158 538 , 1148 540 
Q 1136 541 , 1136 543 
Q 1136 546 , 1148 548 
Q 1158 549 , 1179 549 
Q 1189 549 , 1197 548 
Q 1205 548 , 1220 547 
L 1220 549 
Q 1209 550 , 1199 550 
Q 1189 550 , 1178 550 
Q 1151 550 , 1136 548 
Q 1120 547 , 1120 544 
Q 1120 541 , 1136 539 
Q 1151 537 , 1178 537 
Q 1189 537 , 1199 537 
Q 1210 538 , 1220 538 
" fill="#545FFF" />
<path d="
M 1204 531 
L 1204 521 
L 1175 521 
L 1175 516 
L 1220 516 
L 1220 534 
Q 1209 535 , 1198 536 
Q 1189 536 , 1177 536 
Q 1151 536 , 1135 531 
Q 1120 526 , 1120 517 
Q 1120 508 , 1135 503 
Q 1151 498 , 1177 498 
Q 1188 498 , 1197 499 
Q 1207 499 , 1217 501 
L 1217 506 
Q 1204 504 , 1196 503 
Q 1187 503 , 1178 503 
Q 1157 503 , 1146 506 
Q 1136 510 , 1136 517 
Q 1136 525 , 1146 529 
Q 1157 532 , 1178 532 
Q 1187 532 , 1194 532 
Q 1201 531 , 1204 531 
" fill="#F5C000" />
<path d="
M 1120 439 
L 1138 439 
L 1138 474 
Q 1138 483 , 1146 487 
Q 1153 491 , 1170 491 
Q 1187 491 , 1195 487 
Q 1202 483 , 1202 474 
L 1202 439 
L 1220 439 
L 1220 475 
Q 1220 486 , 1207 492 
Q 1195 498 , 1170 498 
Q 1146 498 , 1133 492 
Q 1120 486 , 1120 475 
L 1120 439 
" fill="#D21010" />
<path d="
M 1275 553 
L 1257 554 
L 1291 554 
L 1275 553 
M 1268 553 
L 1282 553 
L 1325 554 
L 1309 554 
L 1297 554 
L 1253 554 
L 1240 554 
L 1225 554 
L 1268 553 
" fill="#339541" />
<path d="
M 1325 551 
L 1325 551 
Q 1310 551 , 1302 551 
Q 1294 551 , 1284 551 
Q 1263 551 , 1253 551 
Q 1241 551 , 1241 551 
Q 1241 552 , 1253 552 
Q 1263 552 , 1284 552 
Q 1294 552 , 1302 552 
Q 1310 552 , 1325 552 
L 1325 552 
Q 1314 552 , 1304 552 
Q 1294 552 , 1283 552 
Q 1256 552 , 1241 552 
Q 1225 552 , 1225 552 
Q 1225 551 , 1241 551 
Q 1256 551 , 1283 551 
Q 1294 551 , 1304 551 
Q 1315 551 , 1325 551 
" fill="#545FFF" />
<path d="
M 1225 549 
L 1243 549 
L 1243 550 
Q 1243 550 , 1251 550 
Q 1258 551 , 1275 551 
Q 1292 551 , 1300 550 
Q 1307 550 , 1307 550 
L 1307 549 
L 1325 549 
L 1325 550 
Q 1325 550 , 1312 551 
Q 1300 551 , 1275 551 
Q 1251 551 , 1238 551 
Q 1225 550 , 1225 550 
L 1225 549 
" fill="#D21010" />
<path d="
M 1309 548 
L 1309 547 
L 1280 547 
L 1280 547 
L 1325 547 
L 1325 548 
Q 1314 548 , 1303 548 
Q 1294 548 , 1282 548 
Q 1256 548 , 1240 548 
Q 1225 548 , 1225 547 
Q 1225 547 , 1240 546 
Q 1256 546 , 1282 546 
Q 1293 546 , 1302 546 
Q 1312 546 , 1322 546 
L 1322 546 
Q 1309 546 , 1301 546 
Q 1292 546 , 1283 546 
Q 1262 546 , 1251 546 
Q 1241 547 , 1241 547 
Q 1241 548 , 1251 548 
Q 1262 548 , 1283 548 
Q 1292 548 , 1299 548 
Q 1306 548 , 1309 548 
" fill="#F5C000" />
<path d="
M 1430 554 
L 1430 554 
Q 1415 554 , 1407 554 
Q 1399 554 , 1389 554 
Q 1368 554 , 1358 554 
Q 1346 554 , 1346 554 
Q 1346 555 , 1358 555 
Q 1368 555 , 1389 555 
Q 1399 555 , 1407 555 
Q 1415 555 , 1430 555 
L 1430 555 
Q 1419 555 , 1409 555 
Q 1399 555 , 1388 555 
Q 1361 555 , 1346 555 
Q 1330 555 , 1330 554 
Q 1330 554 , 1346 554 
Q 1361 554 , 1388 554 
Q 1399 554 , 1409 554 
Q 1420 554 , 1430 554 
" fill="#545FFF" />
<path d="
M 1414 554 
L 1414 554 
L 1385 554 
L 1385 553 
L 1430 553 
L 1430 554 
Q 1419 554 , 1408 554 
Q 1399 554 , 1387 554 
Q 1361 554 , 1345 554 
Q 1330 554 , 1330 553 
Q 1330 553 , 1345 553 
Q 1361 553 , 1387 553 
Q 1398 553 , 1407 553 
Q 1417 553 , 1427 553 
L 1427 553 
Q 1414 553 , 1406 553 
Q 1397 553 , 1388 553 
Q 1367 553 , 1356 553 
Q 1346 553 , 1346 553 
Q 1346 554 , 1356 554 
Q 1367 554 , 1388 554 
Q 1397 554 , 1404 554 
Q 1411 554 , 1414 554 
" fill="#F5C000" />
<path d="
M 1380 551 
L 1362 552 
L 1396 552 
L 1380 551 
M 1373 551 
L 1387 551 
L 1430 552 
L 1414 552 
L 1402 552 
L 1358 552 
L 1345 552 
L 1330 552 
L 1373 551 
" fill="#339541" />
<path d="
M 1330 549 
L 1348 549 
L 1348 550 
Q 1348 550 , 1356 550 
Q 1363 550 , 1380 550 
Q 1397 550 , 1405 550 
Q 1412 550 , 1412 550 
L 1412 549 
L 1430 549 
L 1430 550 
Q 1430 550 , 1417 550 
Q 1405 550 , 1380 550 
Q 1356 550 , 1343 550 
Q 1330 550 , 1330 550 
L 1330 549 
" fill="#D21010" />
<path d="M 65 55 L 65 555 " stroke="black" stroke-width="1.5"/>
<path d="M 55 555 L 65 555 " stroke="black" stroke-width="4"/>
<text text-anchor="end" x="50" y="555" font-size="50" alignment-baseline="middle">0</text>
<path d="M 55 305 L 65 305 " stroke="black" stroke-width="4"/>
<text text-anchor="end" x="50" y="305" font-size="50" alignment-baseline="middle">1</text>
<path d="M 55 55 L 65 55 " stroke="black" stroke-width="4"/>
<text text-anchor="end" x="50" y="55" font-size="50" alignment-baseline="middle">2</text>
<text text-anchor="middle" x="750" y="50" font-size="50" alignment-baseline="baseline"></text>
G<path d="
M 160 582 
L 126 595 
L 160 608 
L 157 611 
L 123 598 
L 123 623 
L 117 623 
L 117 599 
L 83 611 
L 80 608 
L 114 595 
L 80 582 
L 83 579 
L 117 591 
L 117 567 
L 123 567 
L 123 591 
L 157 579 
L 160 582 
" fill="black" />
<path d="
" fill="black" />
<path d="
M 211 567 
L 238 567 
L 238 623 
L 211 623 
L 211 567 
" fill="black" />
<path d="
" fill="black" />
<path d="
" fill="black" />
<path d="
M 316 567 
L 343 567 
L 343 623 
L 316 623 
L 316 567 
" fill="black" />
<path d="
" fill="black" />
<path d="
" fill="black" />
<path d="
M 421 567 
L 448 567 
L 448 623 
L 421 623 
L 421 567 
" fill="black" />
<path d="
" fill="black" />
<path d="
" fill="black" />
<path d="
M 526 567 
L 553 567 
L 553 623 
L 526 623 
L 526 567 
" fill="black" />
<path d="
" fill="black" />
<path d="
" fill="black" />
<path d="
M 617 567 
L 633 567 
L 633 623 
L 617 623 
L 617 567 
" fill="black" />
<path d="
" fill="black" />
<path d="
M 669 593 
Q 671 594 , 672 597 
Q 673 601 , 673 606 
Q 673 614 , 671 618 
Q 669 623 , 664 623 
Q 662 623 , 661 622 
Q 659 621 , 657 619 
L 657 613 
Q 659 617 , 660 618 
Q 662 619 , 664 619 
Q 667 619 , 669 616 
Q 671 613 , 671 606 
Q 671 601 , 669 598 
Q 668 595 , 664 595 
L 661 595 
L 661 591 
L 665 591 
Q 667 591 , 669 589 
Q 670 586 , 670 582 
Q 670 577 , 669 574 
Q 667 571 , 664 571 
Q 663 571 , 661 572 
Q 660 573 , 658 575 
L 658 571 
Q 660 569 , 662 568 
Q 663 567 , 665 567 
Q 669 567 , 671 571 
Q 672 575 , 672 581 
Q 672 586 , 671 589 
Q 671 592 , 669 593 
" fill="black" />
<path d="
M 678 567 
L 691 567 
L 691 571 
L 680 571 
L 680 588 
Q 681 588 , 682 587 
Q 682 587 , 684 587 
Q 688 587 , 691 592 
Q 693 596 , 693 604 
Q 693 613 , 691 618 
Q 688 623 , 683 623 
Q 682 623 , 680 623 
Q 679 622 , 677 621 
L 677 616 
Q 679 618 , 680 618 
Q 682 619 , 683 619 
Q 687 619 , 689 615 
Q 691 611 , 691 604 
Q 691 598 , 689 594 
Q 687 591 , 683 591 
Q 683 591 , 681 591 
Q 680 592 , 678 594 
L 678 567 
" fill="black" />
<path d="
M 790 582 
L 756 595 
L 790 608 
L 787 611 
L 753 598 
L 753 623 
L 747 623 
L 747 599 
L 713 611 
L 710 608 
L 744 595 
L 710 582 
L 713 579 
L 747 591 
L 747 567 
L 753 567 
L 753 591 
L 787 579 
L 790 582 
" fill="black" />
<path d="
" fill="black" />
<path d="
M 841 567 
L 868 567 
L 868 623 
L 841 623 
L 841 567 
" fill="black" />
<path d="
" fill="black" />
<path d="
" fill="black" />
<path d="
M 946 567 
L 973 567 
L 973 623 
L 946 623 
L 946 567 
" fill="black" />
<path d="
" fill="black" />
<path d="
" fill="black" />
<path d="
M 1051 567 
L 1078 567 
L 1078 623 
L 1051 623 
L 1051 567 
" fill="black" />
<path d="
" fill="black" />
<path d="
" fill="black" />
<path d="
M 1156 567 
L 1183 567 
L 1183 623 
L 1156 623 
L 1156 567 
" fill="black" />
<path d="
" fill="black" />
<path d="
" fill="black" />
<path d="
M 1261 567 
L 1288 567 
L 1288 623 
L 1261 623 
L 1261 567 
" fill="black" />
<path d="
" fill="black" />
<path d="
M 1420 582 
L 1386 595 
L 1420 608 
L 1417 611 
L 1383 598 
L 1383 623 
L 1377 623 
L 1377 599 
L 1343 611 
L 1340 608 
L 1374 595 
L 1340 582 
L 1343 579 
L 1377 591 
L 1377 567 
L 1383 567 
L 1383 591 
L 1417 579 
L 1420 582 
" fill="black" />
</svg>
