<svg xmlns="http://www.w3.org/2000/svg"
viewBox="0 0 1435 635">
<path d="
M 170 552 
L 170 553 
Q 155 552 , 147 552 
Q 139 552 , 129 552 
Q 108 552 , 98 552 
Q 86 553 , 86 553 
Q 86 554 , 98 554 
Q 108 554 , 129 554 
Q 139 554 , 147 554 
Q 155 554 , 170 554 
L 170 554 
Q 159 554 , 149 554 
Q 139 554 , 128 554 
Q 101 554 , 86 554 
Q 70 554 , 70 553 
Q 70 553 , 86 552 
Q 101 552 , 128 552 
Q 139 552 , 149 552 
Q 160 552 , 170 552 
" fill="#545FFF" />
<path d="
M 120 550 
L 102 551 
L 136 551 
L 120 550 
M 113 549 
L 127 549 
L 170 552 
L 154 552 
L 142 551 
L 98 551 
L 85 552 
L 70 552 
L 113 549 
" fill="#339541" />
<path d="
M 154 548 
L 154 547 
L 125 547 
L 125 547 
L 170 547 
L 170 548 
Q 159 548 , 148 548 
Q 139 548 , 127 548 
Q 101 548 , 85 548 
Q 70 548 , 70 547 
Q 70 546 , 85 545 
Q 101 545 , 127 545 
Q 138 545 , 147 545 
Q 157 545 , 167 545 
L 167 546 
Q 154 546 , 146 545 
Q 137 545 , 128 545 
Q 107 545 , 96 546 
Q 86 546 , 86 547 
Q 86 547 , 96 548 
Q 107 548 , 128 548 
Q 137 548 , 144 548 
Q 151 548 , 154 548 
" fill="#F5C000" />
<path d="
M 70 539 
L 88 539 
L 88 542 
Q 88 543 , 96 543 
Q 103 544 , 120 544 
Q 137 544 , 145 543 
Q 152 543 , 152 542 
L 152 539 
L 170 539 
L 170 542 
Q 170 543 , 157 544 
Q 145 544 , 120 544 
Q 96 544 , 83 544 
Q 70 543 , 70 542 
L 70 539 
" fill="#D21010" />
<path d="
M 275 551 
L 275 552 
Q 260 552 , 252 551 
Q 244 551 , 234 551 
Q 213 551 , 203 552 
Q 191 552 , 191 552 
Q 191 553 , 203 554 
Q 213 554 , 234 554 
Q 244 554 , 252 554 
Q 260 554 , 275 553 
L 275 554 
Q 264 554 , 254 554 
Q 244 554 , 233 554 
Q 206 554 , 191 554 
Q 175 553 , 175 553 
Q 175 552 , 191 551 
Q 206 551 , 233 551 
Q 244 551 , 254 551 
Q 265 551 , 275 551 
" fill="#545FFF" />
<path d="
M 225 543 
L 207 546 
L 241 546 
L 225 543 
M 218 541 
L 232 541 
L 275 550 
L 259 550 
L 247 548 
L 203 548 
L 190 550 
L 175 550 
L 218 541 
" fill="#339541" />
<path d="
M 175 508 
L 193 508 
L 193 527 
Q 193 532 , 201 534 
Q 208 537 , 225 537 
Q 242 537 , 250 534 
Q 257 532 , 257 527 
L 257 508 
L 275 508 
L 275 527 
Q 275 534 , 262 537 
Q 250 540 , 225 540 
Q 201 540 , 188 537 
Q 175 534 , 175 527 
L 175 508 
" fill="#D21010" />
<path d="
M 259 501 
L 259 488 
L 230 488 
L 230 483 
L 275 483 
L 275 504 
Q 264 506 , 253 507 
Q 244 508 , 232 508 
Q 206 508 , 190 501 
Q 175 495 , 175 484 
Q 175 473 , 190 466 
Q 206 460 , 232 460 
Q 243 460 , 252 461 
Q 262 462 , 272 464 
L 272 470 
Q 259 467 , 251 466 
Q 242 466 , 233 466 
Q 212 466 , 201 470 
Q 191 475 , 191 484 
Q 191 493 , 201 498 
Q 212 502 , 233 502 
Q 242 502 , 249 502 
Q 256 501 , 259 501 
" fill="#F5C000" />
<path d="
M 322 554 
L 322 553 
L 308 553 
L 308 552 
L 330 552 
L 330 554 
Q 325 554 , 319 554 
Q 314 554 , 308 554 
Q 295 554 , 288 554 
Q 280 553 , 280 553 
Q 280 552 , 288 551 
Q 295 551 , 308 551 
Q 314 551 , 319 551 
Q 324 551 , 329 551 
L 329 552 
Q 322 551 , 318 551 
Q 314 551 , 309 551 
Q 299 551 , 293 552 
Q 288 552 , 288 553 
Q 288 553 , 293 553 
Q 299 554 , 309 554 
Q 314 554 , 317 554 
Q 321 554 , 322 554 
" fill="#F5C000" />
<path d="
M 330 551 
L 339 551 
L 339 553 
Q 339 553 , 343 553 
Q 346 554 , 355 554 
Q 364 554 , 367 553 
Q 371 553 , 371 553 
L 371 551 
L 380 551 
L 380 553 
Q 380 553 , 374 554 
Q 367 554 , 355 554 
Q 343 554 , 336 554 
Q 330 553 , 330 553 
L 330 551 
" fill="lightgray" />
<path d="
M 322 550 
L 322 549 
L 308 549 
L 308 548 
L 330 548 
L 330 550 
Q 325 550 , 319 550 
Q 314 550 , 308 550 
Q 295 550 , 288 550 
Q 280 549 , 280 548 
Q 280 547 , 288 547 
Q 295 546 , 308 546 
Q 314 546 , 319 546 
Q 324 546 , 329 546 
L 329 547 
Q 322 547 , 318 547 
Q 314 547 , 309 547 
Q 299 547 , 293 547 
Q 288 547 , 288 548 
Q 288 549 , 293 550 
Q 299 550 , 309 550 
Q 314 550 , 317 550 
Q 321 550 , 322 550 
" fill="#F5C000" />
<path d="
M 380 546 
L 380 547 
Q 373 547 , 369 547 
Q 364 546 , 359 546 
Q 349 546 , 344 547 
Q 338 547 , 338 548 
Q 338 549 , 344 550 
Q 349 550 , 359 550 
Q 364 550 , 369 550 
Q 373 550 , 380 549 
L 380 550 
Q 375 550 , 369 550 
Q 365 550 , 359 550 
Q 345 550 , 338 550 
Q 330 549 , 330 548 
Q 330 547 , 338 547 
Q 345 546 , 359 546 
Q 365 546 , 370 546 
Q 375 546 , 380 546 
" fill="lightgray" />
<path d="
M 280 536 
L 289 536 
L 289 541 
Q 289 543 , 293 544 
Q 296 544 , 305 544 
Q 314 544 , 317 544 
Q 321 543 , 321 541 
L 321 536 
L 330 536 
L 330 542 
Q 330 543 , 324 544 
Q 317 545 , 305 545 
Q 293 545 , 286 544 
Q 280 543 , 280 542 
L 280 536 
" fill="#D21010" />
<path d="
M 372 544 
L 372 541 
L 358 541 
L 358 540 
L 380 540 
L 380 545 
Q 375 545 , 369 545 
Q 364 545 , 358 545 
Q 345 545 , 338 544 
Q 330 543 , 330 541 
Q 330 538 , 338 537 
Q 345 536 , 358 536 
Q 364 536 , 369 536 
Q 374 536 , 379 537 
L 379 538 
Q 372 537 , 368 537 
Q 364 537 , 359 537 
Q 349 537 , 343 538 
Q 338 539 , 338 541 
Q 338 542 , 343 543 
Q 349 544 , 359 544 
Q 364 544 , 367 544 
Q 371 544 , 372 544 
" fill="lightgray" />
<path d="
M 305 525 
L 296 530 
L 313 530 
L 305 525 
M 301 523 
L 309 523 
L 330 535 
L 322 535 
L 316 532 
L 294 532 
L 287 535 
L 280 535 
L 301 523 
" fill="#339541" />
<path d="
M 330 523 
L 339 523 
L 339 530 
Q 339 532 , 343 533 
Q 346 534 , 355 534 
Q 364 534 , 367 533 
Q 371 532 , 371 530 
L 371 523 
L 380 523 
L 380 530 
Q 380 533 , 374 534 
Q 367 535 , 355 535 
Q 343 535 , 336 534 
Q 330 533 , 330 530 
L 330 523 
" fill="lightgray" />
<path d="
M 330 510 
L 330 512 
Q 323 510 , 319 510 
Q 314 510 , 309 510 
Q 299 510 , 294 511 
Q 288 512 , 288 515 
Q 288 518 , 294 519 
Q 299 521 , 309 521 
Q 314 521 , 319 520 
Q 323 520 , 330 518 
L 330 521 
Q 325 521 , 319 522 
Q 315 522 , 309 522 
Q 295 522 , 288 520 
Q 280 518 , 280 515 
Q 280 512 , 288 510 
Q 295 508 , 309 508 
Q 315 508 , 320 508 
Q 325 509 , 330 510 
" fill="#545FFF" />
<path d="
M 372 520 
L 372 516 
L 358 516 
L 358 515 
L 380 515 
L 380 521 
Q 375 522 , 369 522 
Q 364 522 , 358 522 
Q 345 522 , 338 520 
Q 330 518 , 330 515 
Q 330 512 , 338 510 
Q 345 508 , 358 508 
Q 364 508 , 369 508 
Q 374 509 , 379 509 
L 379 511 
Q 372 510 , 368 510 
Q 364 510 , 359 510 
Q 349 510 , 343 511 
Q 338 512 , 338 515 
Q 338 518 , 343 519 
Q 349 521 , 359 521 
Q 364 521 , 367 520 
Q 371 520 , 372 520 
" fill="lightgray" />
<path d="
M 280 474 
L 289 474 
L 289 494 
Q 289 499 , 293 501 
Q 296 503 , 305 503 
Q 314 503 , 317 501 
Q 321 499 , 321 494 
L 321 474 
L 330 474 
L 330 494 
Q 330 500 , 324 504 
Q 317 507 , 305 507 
Q 293 507 , 286 504 
Q 280 500 , 280 494 
L 280 474 
" fill="#D21010" />
<path d="
M 355 480 
L 346 494 
L 363 494 
L 355 480 
M 351 474 
L 359 474 
L 380 507 
L 372 507 
L 366 497 
L 344 497 
L 337 507 
L 330 507 
L 351 474 
" fill="lightgray" />
<path d="
M 435 549 
L 417 552 
L 451 552 
L 435 549 
M 428 548 
L 442 548 
L 485 555 
L 469 555 
L 457 553 
L 413 553 
L 400 555 
L 385 555 
L 428 548 
" fill="#339541" />
<path d="
M 485 537 
L 485 539 
Q 470 538 , 462 538 
Q 454 537 , 444 537 
Q 423 537 , 413 538 
Q 401 539 , 401 541 
Q 401 544 , 413 545 
Q 423 546 , 444 546 
Q 454 546 , 462 546 
Q 470 546 , 485 544 
L 485 546 
Q 474 547 , 464 547 
Q 454 547 , 443 547 
Q 416 547 , 401 546 
Q 385 544 , 385 542 
Q 385 539 , 401 538 
Q 416 536 , 443 536 
Q 454 536 , 464 536 
Q 475 537 , 485 537 
" fill="#545FFF" />
<path d="
M 469 532 
L 469 526 
L 440 526 
L 440 524 
L 485 524 
L 485 534 
Q 474 535 , 463 535 
Q 454 536 , 442 536 
Q 416 536 , 400 533 
Q 385 530 , 385 524 
Q 385 519 , 400 516 
Q 416 513 , 442 513 
Q 453 513 , 462 513 
Q 472 514 , 482 515 
L 482 518 
Q 469 516 , 461 516 
Q 452 516 , 443 516 
Q 422 516 , 411 518 
Q 401 520 , 401 524 
Q 401 529 , 411 531 
Q 422 533 , 443 533 
Q 452 533 , 459 533 
Q 466 533 , 469 532 
" fill="#F5C000" />
<path d="
M 385 402 
L 403 402 
L 403 467 
Q 403 486 , 411 493 
Q 418 501 , 435 501 
Q 452 501 , 460 493 
Q 467 486 , 467 467 
L 467 402 
L 485 402 
L 485 469 
Q 485 490 , 472 502 
Q 460 513 , 435 513 
Q 411 513 , 398 502 
Q 385 490 , 385 469 
L 385 402 
" fill="#D21010" />
<path d="
M 590 551 
L 590 552 
Q 575 552 , 567 551 
Q 559 551 , 549 551 
Q 528 551 , 518 552 
Q 506 552 , 506 552 
Q 506 553 , 518 554 
Q 528 554 , 549 554 
Q 559 554 , 567 554 
Q 575 554 , 590 554 
L 590 554 
Q 579 554 , 569 554 
Q 559 554 , 548 554 
Q 521 554 , 506 554 
Q 490 553 , 490 553 
Q 490 552 , 506 551 
Q 521 551 , 548 551 
Q 559 551 , 569 551 
Q 580 551 , 590 551 
" fill="#545FFF" />
<path d="
M 540 546 
L 522 548 
L 556 548 
L 540 546 
M 533 545 
L 547 545 
L 590 550 
L 574 550 
L 562 549 
L 518 549 
L 505 550 
L 490 550 
L 533 545 
" fill="#339541" />
<path d="
M 574 536 
L 574 522 
L 545 522 
L 545 516 
L 590 516 
L 590 540 
Q 579 542 , 568 543 
Q 559 544 , 547 544 
Q 521 544 , 505 537 
Q 490 530 , 490 517 
Q 490 504 , 505 497 
Q 521 490 , 547 490 
Q 558 490 , 567 491 
Q 577 492 , 587 494 
L 587 501 
Q 574 498 , 566 497 
Q 557 496 , 548 496 
Q 527 496 , 516 501 
Q 506 507 , 506 517 
Q 506 528 , 516 533 
Q 527 538 , 548 538 
Q 557 538 , 564 538 
Q 571 537 , 574 536 
" fill="#F5C000" />
<path d="
M 490 427 
L 508 427 
L 508 464 
Q 508 474 , 516 478 
Q 523 482 , 540 482 
Q 557 482 , 565 478 
Q 572 474 , 572 464 
L 572 427 
L 590 427 
L 590 465 
Q 590 477 , 577 483 
Q 565 489 , 540 489 
Q 516 489 , 503 483 
Q 490 477 , 490 465 
L 490 427 
" fill="#D21010" />
<path d="
M 695 550 
L 695 551 
Q 680 551 , 672 551 
Q 664 550 , 654 550 
Q 633 550 , 623 551 
Q 611 551 , 611 552 
Q 611 553 , 623 553 
Q 633 554 , 654 554 
Q 664 554 , 672 554 
Q 680 554 , 695 553 
L 695 554 
Q 684 554 , 674 554 
Q 664 554 , 653 554 
Q 626 554 , 611 554 
Q 595 553 , 595 552 
Q 595 551 , 611 551 
Q 626 550 , 653 550 
Q 664 550 , 674 550 
Q 685 550 , 695 550 
" fill="#545FFF" />
<path d="
M 645 544 
L 627 547 
L 661 547 
L 645 544 
M 638 543 
L 652 543 
L 695 550 
L 679 550 
L 667 548 
L 623 548 
L 610 550 
L 595 550 
L 638 543 
" fill="#339541" />
<path d="
M 679 537 
L 679 526 
L 650 526 
L 650 522 
L 695 522 
L 695 539 
Q 684 541 , 673 541 
Q 664 542 , 652 542 
Q 626 542 , 610 537 
Q 595 532 , 595 523 
Q 595 514 , 610 509 
Q 626 504 , 652 504 
Q 663 504 , 672 505 
Q 682 505 , 692 507 
L 692 512 
Q 679 510 , 671 509 
Q 662 509 , 653 509 
Q 632 509 , 621 512 
Q 611 516 , 611 523 
Q 611 531 , 621 534 
Q 632 538 , 653 538 
Q 662 538 , 669 537 
Q 676 537 , 679 537 
" fill="#F5C000" />
<path d="
M 595 460 
L 613 460 
L 613 486 
Q 613 493 , 621 496 
Q 628 499 , 645 499 
Q 662 499 , 670 496 
Q 677 493 , 677 486 
L 677 460 
L 695 460 
L 695 486 
Q 695 495 , 682 499 
Q 670 503 , 645 503 
Q 621 503 , 608 499 
Q 595 495 , 595 486 
L 595 460 
" fill="#D21010" />
<path d="
M 800 552 
L 800 553 
Q 785 552 , 777 552 
Q 769 552 , 759 552 
Q 738 552 , 728 552 
Q 716 553 , 716 553 
Q 716 554 , 728 554 
Q 738 554 , 759 554 
Q 769 554 , 777 554 
Q 785 554 , 800 554 
L 800 554 
Q 789 554 , 779 554 
Q 769 554 , 758 554 
Q 731 554 , 716 554 
Q 700 554 , 700 553 
Q 700 553 , 716 552 
Q 731 552 , 758 552 
Q 769 552 , 779 552 
Q 790 552 , 800 552 
" fill="#545FFF" />
<path d="
M 750 550 
L 732 551 
L 766 551 
L 750 550 
M 743 549 
L 757 549 
L 800 552 
L 784 552 
L 772 551 
L 728 551 
L 715 552 
L 700 552 
L 743 549 
" fill="#339541" />
<path d="
M 784 548 
L 784 547 
L 755 547 
L 755 547 
L 800 547 
L 800 548 
Q 789 548 , 778 548 
Q 769 548 , 757 548 
Q 731 548 , 715 548 
Q 700 548 , 700 547 
Q 700 546 , 715 545 
Q 731 545 , 757 545 
Q 768 545 , 777 545 
Q 787 545 , 797 545 
L 797 546 
Q 784 546 , 776 545 
Q 767 545 , 758 545 
Q 737 545 , 726 546 
Q 716 546 , 716 547 
Q 716 547 , 726 548 
Q 737 548 , 758 548 
Q 767 548 , 774 548 
Q 781 548 , 784 548 
" fill="#F5C000" />
<path d="
M 700 539 
L 718 539 
L 718 542 
Q 718 543 , 726 543 
Q 733 544 , 750 544 
Q 767 544 , 775 543 
Q 782 543 , 782 542 
L 782 539 
L 800 539 
L 800 542 
Q 800 543 , 787 544 
Q 775 544 , 750 544 
Q 726 544 , 713 544 
Q 700 543 , 700 542 
L 700 539 
" fill="#D21010" />
<path d="
M 905 548 
L 905 549 
Q 890 548 , 882 548 
Q 874 548 , 864 548 
Q 843 548 , 833 549 
Q 821 549 , 821 550 
Q 821 552 , 833 553 
Q 843 553 , 864 553 
Q 874 553 , 882 553 
Q 890 553 , 905 552 
L 905 554 
Q 894 554 , 884 554 
Q 874 554 , 863 554 
Q 836 554 , 821 553 
Q 805 552 , 805 551 
Q 805 549 , 821 548 
Q 836 547 , 863 547 
Q 874 547 , 884 547 
Q 895 547 , 905 548 
" fill="#545FFF" />
<path d="
M 855 537 
L 837 542 
L 871 542 
L 855 537 
M 848 535 
L 862 535 
L 905 546 
L 889 546 
L 877 543 
L 833 543 
L 820 546 
L 805 546 
L 848 535 
" fill="#339541" />
<path d="
M 889 532 
L 889 526 
L 860 526 
L 860 523 
L 905 523 
L 905 533 
Q 894 534 , 883 534 
Q 874 535 , 862 535 
Q 836 535 , 820 532 
Q 805 529 , 805 524 
Q 805 519 , 820 516 
Q 836 513 , 862 513 
Q 873 513 , 882 513 
Q 892 514 , 902 515 
L 902 518 
Q 889 516 , 881 516 
Q 872 516 , 863 516 
Q 842 516 , 831 518 
Q 821 520 , 821 524 
Q 821 528 , 831 530 
Q 842 532 , 863 532 
Q 872 532 , 879 532 
Q 886 532 , 889 532 
" fill="#F5C000" />
<path d="
M 805 394 
L 823 394 
L 823 464 
Q 823 483 , 831 491 
Q 838 499 , 855 499 
Q 872 499 , 880 491 
Q 887 483 , 887 464 
L 887 394 
L 905 394 
L 905 466 
Q 905 488 , 892 500 
Q 880 512 , 855 512 
Q 831 512 , 818 500 
Q 805 488 , 805 466 
L 805 394 
" fill="#D21010" />
<path d="
M 960 553 
L 942 554 
L 976 554 
L 960 553 
M 953 553 
L 967 553 
L 1010 554 
L 994 554 
L 982 554 
L 938 554 
L 925 554 
L 910 554 
L 953 553 
" fill="#339541" />
<path d="
M 1010 540 
L 1010 542 
Q 995 540 , 987 540 
Q 979 540 , 969 540 
Q 948 540 , 938 541 
Q 926 543 , 926 545 
Q 926 548 , 938 550 
Q 948 551 , 969 551 
Q 979 551 , 987 551 
Q 995 550 , 1010 549 
L 1010 551 
Q 999 552 , 989 553 
Q 979 553 , 968 553 
Q 941 553 , 926 551 
Q 910 549 , 910 545 
Q 910 542 , 926 540 
Q 941 538 , 968 538 
Q 979 538 , 989 538 
Q 1000 539 , 1010 540 
" fill="#545FFF" />
<path d="
M 994 534 
L 994 528 
L 965 528 
L 965 525 
L 1010 525 
L 1010 536 
Q 999 537 , 988 537 
Q 979 538 , 967 538 
Q 941 538 , 925 535 
Q 910 531 , 910 525 
Q 910 520 , 925 516 
Q 941 513 , 967 513 
Q 978 513 , 987 513 
Q 997 514 , 1007 515 
L 1007 518 
Q 994 517 , 986 516 
Q 977 516 , 968 516 
Q 947 516 , 936 518 
Q 926 521 , 926 525 
Q 926 530 , 936 533 
Q 947 535 , 968 535 
Q 977 535 , 984 535 
Q 991 535 , 994 534 
" fill="#F5C000" />
<path d="
M 910 486 
L 928 486 
L 928 502 
Q 928 506 , 936 508 
Q 943 510 , 960 510 
Q 977 510 , 985 508 
Q 992 506 , 992 502 
L 992 486 
L 1010 486 
L 1010 502 
Q 1010 508 , 997 510 
Q 985 513 , 960 513 
Q 936 513 , 923 510 
Q 910 508 , 910 502 
L 910 486 
" fill="#D21010" />
<path d="
M 1115 551 
L 1115 551 
Q 1100 551 , 1092 551 
Q 1084 551 , 1074 551 
Q 1053 551 , 1043 551 
Q 1031 551 , 1031 552 
Q 1031 553 , 1043 554 
Q 1053 554 , 1074 554 
Q 1084 554 , 1092 554 
Q 1100 554 , 1115 553 
L 1115 554 
Q 1104 554 , 1094 555 
Q 1084 555 , 1073 555 
Q 1046 555 , 1031 554 
Q 1015 553 , 1015 552 
Q 1015 551 , 1031 551 
Q 1046 550 , 1073 550 
Q 1084 550 , 1094 550 
Q 1105 550 , 1115 551 
" fill="#545FFF" />
<path d="
M 1065 543 
L 1047 546 
L 1081 546 
L 1065 543 
M 1058 541 
L 1072 541 
L 1115 550 
L 1099 550 
L 1087 547 
L 1043 547 
L 1030 550 
L 1015 550 
L 1058 541 
" fill="#339541" />
<path d="
M 1099 537 
L 1099 530 
L 1070 530 
L 1070 528 
L 1115 528 
L 1115 538 
Q 1104 539 , 1093 540 
Q 1084 540 , 1072 540 
Q 1046 540 , 1030 537 
Q 1015 534 , 1015 528 
Q 1015 522 , 1030 519 
Q 1046 516 , 1072 516 
Q 1083 516 , 1092 516 
Q 1102 517 , 1112 518 
L 1112 521 
Q 1099 520 , 1091 519 
Q 1082 519 , 1073 519 
Q 1052 519 , 1041 521 
Q 1031 523 , 1031 528 
Q 1031 533 , 1041 535 
Q 1052 538 , 1073 538 
Q 1082 538 , 1089 537 
Q 1096 537 , 1099 537 
" fill="#F5C000" />
<path d="
M 1015 342 
L 1033 342 
L 1033 444 
Q 1033 473 , 1041 485 
Q 1048 496 , 1065 496 
Q 1082 496 , 1090 485 
Q 1097 473 , 1097 444 
L 1097 342 
L 1115 342 
L 1115 447 
Q 1115 480 , 1102 498 
Q 1090 515 , 1065 515 
Q 1041 515 , 1028 498 
Q 1015 480 , 1015 447 
L 1015 342 
" fill="#D21010" />
<path d="
M 1162 554 
L 1162 553 
L 1148 553 
L 1148 552 
L 1170 552 
L 1170 554 
Q 1165 554 , 1159 554 
Q 1154 554 , 1148 554 
Q 1135 554 , 1128 554 
Q 1120 553 , 1120 553 
Q 1120 552 , 1128 551 
Q 1135 551 , 1148 551 
Q 1154 551 , 1159 551 
Q 1164 551 , 1169 551 
L 1169 552 
Q 1162 551 , 1158 551 
Q 1154 551 , 1149 551 
Q 1139 551 , 1133 552 
Q 1128 552 , 1128 553 
Q 1128 553 , 1133 553 
Q 1139 554 , 1149 554 
Q 1154 554 , 1157 554 
Q 1161 554 , 1162 554 
" fill="lightgray" />
<path d="
M 1170 551 
L 1179 551 
L 1179 553 
Q 1179 553 , 1183 553 
Q 1186 554 , 1195 554 
Q 1204 554 , 1207 553 
Q 1211 553 , 1211 553 
L 1211 551 
L 1220 551 
L 1220 553 
Q 1220 553 , 1214 554 
Q 1207 554 , 1195 554 
Q 1183 554 , 1176 554 
Q 1170 553 , 1170 553 
L 1170 551 
" fill="#D21010" />
<path d="
M 1162 550 
L 1162 549 
L 1148 549 
L 1148 548 
L 1170 548 
L 1170 550 
Q 1165 550 , 1159 550 
Q 1154 550 , 1148 550 
Q 1135 550 , 1128 550 
Q 1120 549 , 1120 548 
Q 1120 547 , 1128 547 
Q 1135 546 , 1148 546 
Q 1154 546 , 1159 546 
Q 1164 546 , 1169 546 
L 1169 547 
Q 1162 547 , 1158 547 
Q 1154 547 , 1149 547 
Q 1139 547 , 1133 547 
Q 1128 547 , 1128 548 
Q 1128 549 , 1133 550 
Q 1139 550 , 1149 550 
Q 1154 550 , 1157 550 
Q 1161 550 , 1162 550 
" fill="lightgray" />
<path d="
M 1220 546 
L 1220 547 
Q 1213 547 , 1209 547 
Q 1204 546 , 1199 546 
Q 1189 546 , 1184 547 
Q 1178 547 , 1178 548 
Q 1178 549 , 1184 550 
Q 1189 550 , 1199 550 
Q 1204 550 , 1209 550 
Q 1213 550 , 1220 549 
L 1220 550 
Q 1215 550 , 1209 550 
Q 1205 550 , 1199 550 
Q 1185 550 , 1178 550 
Q 1170 549 , 1170 548 
Q 1170 547 , 1178 547 
Q 1185 546 , 1199 546 
Q 1205 546 , 1210 546 
Q 1215 546 , 1220 546 
" fill="#545FFF" />
<path d="
M 1120 536 
L 1129 536 
L 1129 541 
Q 1129 543 , 1133 544 
Q 1136 544 , 1145 544 
Q 1154 544 , 1157 544 
Q 1161 543 , 1161 541 
L 1161 536 
L 1170 536 
L 1170 542 
Q 1170 543 , 1164 544 
Q 1157 545 , 1145 545 
Q 1133 545 , 1126 544 
Q 1120 543 , 1120 542 
L 1120 536 
" fill="lightgray" />
<path d="
M 1212 544 
L 1212 541 
L 1198 541 
L 1198 540 
L 1220 540 
L 1220 545 
Q 1215 545 , 1209 545 
Q 1204 545 , 1198 545 
Q 1185 545 , 1178 544 
Q 1170 543 , 1170 541 
Q 1170 538 , 1178 537 
Q 1185 536 , 1198 536 
Q 1204 536 , 1209 536 
Q 1214 536 , 1219 537 
L 1219 538 
Q 1212 537 , 1208 537 
Q 1204 537 , 1199 537 
Q 1189 537 , 1183 538 
Q 1178 539 , 1178 541 
Q 1178 542 , 1183 543 
Q 1189 544 , 1199 544 
Q 1204 544 , 1207 544 
Q 1211 544 , 1212 544 
" fill="#F5C000" />
<path d="
M 1145 525 
L 1136 530 
L 1153 530 
L 1145 525 
M 1141 523 
L 1149 523 
L 1170 535 
L 1162 535 
L 1156 532 
L 1134 532 
L 1127 535 
L 1120 535 
L 1141 523 
" fill="lightgray" />
<path d="
M 1170 523 
L 1179 523 
L 1179 530 
Q 1179 532 , 1183 533 
Q 1186 534 , 1195 534 
Q 1204 534 , 1207 533 
Q 1211 532 , 1211 530 
L 1211 523 
L 1220 523 
L 1220 530 
Q 1220 533 , 1214 534 
Q 1207 535 , 1195 535 
Q 1183 535 , 1176 534 
Q 1170 533 , 1170 530 
L 1170 523 
" fill="#D21010" />
<path d="
M 1170 510 
L 1170 512 
Q 1163 510 , 1159 510 
Q 1154 510 , 1149 510 
Q 1139 510 , 1134 511 
Q 1128 512 , 1128 515 
Q 1128 518 , 1134 519 
Q 1139 521 , 1149 521 
Q 1154 521 , 1159 520 
Q 1163 520 , 1170 518 
L 1170 521 
Q 1165 521 , 1159 522 
Q 1155 522 , 1149 522 
Q 1135 522 , 1128 520 
Q 1120 518 , 1120 515 
Q 1120 512 , 1128 510 
Q 1135 508 , 1149 508 
Q 1155 508 , 1160 508 
Q 1165 509 , 1170 510 
" fill="lightgray" />
<path d="
M 1212 520 
L 1212 516 
L 1198 516 
L 1198 515 
L 1220 515 
L 1220 521 
Q 1215 522 , 1209 522 
Q 1204 522 , 1198 522 
Q 1185 522 , 1178 520 
Q 1170 518 , 1170 515 
Q 1170 512 , 1178 510 
Q 1185 508 , 1198 508 
Q 1204 508 , 1209 508 
Q 1214 509 , 1219 509 
L 1219 511 
Q 1212 510 , 1208 510 
Q 1204 510 , 1199 510 
Q 1189 510 , 1183 511 
Q 1178 512 , 1178 515 
Q 1178 518 , 1183 519 
Q 1189 521 , 1199 521 
Q 1204 521 , 1207 520 
Q 1211 520 , 1212 520 
" fill="#F5C000" />
<path d="
M 1120 474 
L 1129 474 
L 1129 494 
Q 1129 499 , 1133 501 
Q 1136 503 , 1145 503 
Q 1154 503 , 1157 501 
Q 1161 499 , 1161 494 
L 1161 474 
L 1170 474 
L 1170 494 
Q 1170 500 , 1164 504 
Q 1157 507 , 1145 507 
Q 1133 507 , 1126 504 
Q 1120 500 , 1120 494 
L 1120 474 
" fill="lightgray" />
<path d="
M 1195 480 
L 1186 494 
L 1203 494 
L 1195 480 
M 1191 474 
L 1199 474 
L 1220 507 
L 1212 507 
L 1206 497 
L 1184 497 
L 1177 507 
L 1170 507 
L 1191 474 
" fill="#339541" />
<path d="
M 1275 550 
L 1257 552 
L 1291 552 
L 1275 550 
M 1268 549 
L 1282 549 
L 1325 554 
L 1309 554 
L 1297 553 
L 1253 553 
L 1240 554 
L 1225 554 
L 1268 549 
" fill="#339541" />
<path d="
M 1325 543 
L 1325 544 
Q 1310 543 , 1302 543 
Q 1294 543 , 1284 543 
Q 1263 543 , 1253 543 
Q 1241 544 , 1241 545 
Q 1241 546 , 1253 547 
Q 1263 547 , 1284 547 
Q 1294 547 , 1302 547 
Q 1310 547 , 1325 547 
L 1325 547 
Q 1314 548 , 1304 548 
Q 1294 548 , 1283 548 
Q 1256 548 , 1241 547 
Q 1225 546 , 1225 545 
Q 1225 544 , 1241 543 
Q 1256 542 , 1283 542 
Q 1294 542 , 1304 542 
Q 1315 542 , 1325 543 
" fill="#545FFF" />
<path d="
M 1225 521 
L 1243 521 
L 1243 533 
Q 1243 536 , 1251 538 
Q 1258 539 , 1275 539 
Q 1292 539 , 1300 538 
Q 1307 536 , 1307 533 
L 1307 521 
L 1325 521 
L 1325 533 
Q 1325 537 , 1312 539 
Q 1300 541 , 1275 541 
Q 1251 541 , 1238 539 
Q 1225 537 , 1225 533 
L 1225 521 
" fill="#D21010" />
<path d="
M 1309 516 
L 1309 509 
L 1280 509 
L 1280 507 
L 1325 507 
L 1325 518 
Q 1314 519 , 1303 520 
Q 1294 520 , 1282 520 
Q 1256 520 , 1240 517 
Q 1225 513 , 1225 507 
Q 1225 501 , 1240 498 
Q 1256 494 , 1282 494 
Q 1293 494 , 1302 494 
Q 1312 495 , 1322 496 
L 1322 499 
Q 1309 498 , 1301 498 
Q 1292 497 , 1283 497 
Q 1262 497 , 1251 500 
Q 1241 502 , 1241 507 
Q 1241 512 , 1251 515 
Q 1262 517 , 1283 517 
Q 1292 517 , 1299 517 
Q 1306 517 , 1309 516 
" fill="#F5C000" />
<path d="
M 1430 552 
L 1430 553 
Q 1415 552 , 1407 552 
Q 1399 552 , 1389 552 
Q 1368 552 , 1358 552 
Q 1346 553 , 1346 553 
Q 1346 554 , 1358 554 
Q 1368 554 , 1389 554 
Q 1399 554 , 1407 554 
Q 1415 554 , 1430 554 
L 1430 554 
Q 1419 554 , 1409 554 
Q 1399 554 , 1388 554 
Q 1361 554 , 1346 554 
Q 1330 554 , 1330 553 
Q 1330 553 , 1346 552 
Q 1361 552 , 1388 552 
Q 1399 552 , 1409 552 
Q 1420 552 , 1430 552 
" fill="#545FFF" />
<path d="
M 1380 550 
L 1362 551 
L 1396 551 
L 1380 550 
M 1373 549 
L 1387 549 
L 1430 552 
L 1414 552 
L 1402 551 
L 1358 551 
L 1345 552 
L 1330 552 
L 1373 549 
" fill="#339541" />
<path d="
M 1414 548 
L 1414 547 
L 1385 547 
L 1385 547 
L 1430 547 
L 1430 548 
Q 1419 548 , 1408 548 
Q 1399 548 , 1387 548 
Q 1361 548 , 1345 548 
Q 1330 548 , 1330 547 
Q 1330 546 , 1345 545 
Q 1361 545 , 1387 545 
Q 1398 545 , 1407 545 
Q 1417 545 , 1427 545 
L 1427 546 
Q 1414 546 , 1406 545 
Q 1397 545 , 1388 545 
Q 1367 545 , 1356 546 
Q 1346 546 , 1346 547 
Q 1346 547 , 1356 548 
Q 1367 548 , 1388 548 
Q 1397 548 , 1404 548 
Q 1411 548 , 1414 548 
" fill="#F5C000" />
<path d="
M 1330 539 
L 1348 539 
L 1348 542 
Q 1348 543 , 1356 543 
Q 1363 544 , 1380 544 
Q 1397 544 , 1405 543 
Q 1412 543 , 1412 542 
L 1412 539 
L 1430 539 
L 1430 542 
Q 1430 543 , 1417 544 
Q 1405 544 , 1380 544 
Q 1356 544 , 1343 544 
Q 1330 543 , 1330 542 
L 1330 539 
" fill="#D21010" />
<path d="M 65 168 L 65 555 " stroke="black" stroke-width="1.5"/>
<path d="M 55 555 L 65 555 " stroke="black" stroke-width="4"/>
<text text-anchor="end" x="50" y="555" font-size="50" alignment-baseline="middle">0</text>
<path d="M 55 362 L 65 362 " stroke="black" stroke-width="4"/>
<text text-anchor="end" x="50" y="362" font-size="50" alignment-baseline="middle">1</text>
<path d="M 55 168 L 65 168 " stroke="black" stroke-width="4"/>
<text text-anchor="end" x="50" y="168" font-size="50" alignment-baseline="middle">2</text>
<text text-anchor="middle" x="750" y="50" font-size="50" alignment-baseline="baseline"></text>
G<path d="
M 160 582 
L 126 595 
L 160 608 
L 157 611 
L 123 598 
L 123 623 
L 117 623 
L 117 599 
L 83 611 
L 80 608 
L 114 595 
L 80 582 
L 83 579 
L 117 591 
L 117 567 
L 123 567 
L 123 591 
L 157 579 
L 160 582 
" fill="black" />
<path d="
" fill="black" />
<path d="
M 211 567 
L 238 567 
L 238 623 
L 211 623 
L 211 567 
" fill="black" />
<path d="
" fill="black" />
<path d="
M 370 567 
Q 341 574 , 328 581 
Q 315 588 , 315 595 
Q 315 602 , 328 609 
Q 341 616 , 370 623 
L 346 623 
Q 318 616 , 304 609 
Q 290 602 , 290 595 
Q 290 588 , 304 581 
Q 318 574 , 346 567 
L 370 567 
" fill="black" />
<path d="
" fill="black" />
<path d="
M 421 567 
L 448 567 
L 448 623 
L 421 623 
L 421 567 
" fill="black" />
<path d="
" fill="black" />
<path d="
" fill="black" />
<path d="
M 526 567 
L 553 567 
L 553 623 
L 526 623 
L 526 567 
" fill="black" />
<path d="
" fill="black" />
<path d="
" fill="black" />
<path d="
M 622 567 
L 642 567 
L 642 623 
L 622 623 
L 622 567 
" fill="black" />
<path d="
" fill="black" />
<path d="
M 682 595 
Q 679 595 , 677 599 
Q 675 602 , 675 607 
Q 675 613 , 677 616 
Q 679 619 , 682 619 
Q 685 619 , 687 616 
Q 689 613 , 689 607 
Q 689 602 , 687 599 
Q 685 595 , 682 595 
M 677 593 
Q 675 592 , 674 589 
Q 673 586 , 673 581 
Q 673 575 , 675 571 
Q 678 567 , 682 567 
Q 686 567 , 689 571 
Q 691 575 , 691 581 
Q 691 586 , 690 589 
Q 688 592 , 687 593 
Q 689 594 , 690 598 
Q 692 601 , 692 607 
Q 692 614 , 689 619 
Q 687 623 , 682 623 
Q 677 623 , 675 619 
Q 672 614 , 672 607 
Q 672 601 , 674 598 
Q 675 594 , 677 593 
M 677 573 
Q 675 576 , 675 581 
Q 675 586 , 677 589 
Q 679 592 , 682 592 
Q 685 592 , 687 589 
Q 689 586 , 689 581 
Q 689 576 , 687 574 
Q 685 571 , 682 571 
Q 679 571 , 677 573 
" fill="black" />
<path d="
M 790 582 
L 756 595 
L 790 608 
L 787 611 
L 753 598 
L 753 623 
L 747 623 
L 747 599 
L 713 611 
L 710 608 
L 744 595 
L 710 582 
L 713 579 
L 747 591 
L 747 567 
L 753 567 
L 753 591 
L 787 579 
L 790 582 
" fill="black" />
<path d="
" fill="black" />
<path d="
M 841 567 
L 868 567 
L 868 623 
L 841 623 
L 841 567 
" fill="black" />
<path d="
" fill="black" />
<path d="
" fill="black" />
<path d="
M 946 567 
L 973 567 
L 973 623 
L 946 623 
L 946 567 
" fill="black" />
<path d="
" fill="black" />
<path d="
" fill="black" />
<path d="
M 1051 567 
L 1078 567 
L 1078 623 
L 1051 623 
L 1051 567 
" fill="black" />
<path d="
" fill="black" />
<path d="
M 1130 567 
L 1154 567 
Q 1182 574 , 1196 581 
Q 1210 588 , 1210 595 
Q 1210 602 , 1196 609 
Q 1182 616 , 1154 623 
L 1130 623 
Q 1159 616 , 1172 609 
Q 1185 602 , 1185 595 
Q 1185 588 , 1172 581 
Q 1159 574 , 1130 567 
" fill="black" />
<path d="
" fill="black" />
<path d="
M 1261 567 
L 1288 567 
L 1288 623 
L 1261 623 
L 1261 567 
" fill="black" />
<path d="
" fill="black" />
<path d="
M 1420 582 
L 1386 595 
L 1420 608 
L 1417 611 
L 1383 598 
L 1383 623 
L 1377 623 
L 1377 599 
L 1343 611 
L 1340 608 
L 1374 595 
L 1340 582 
L 1343 579 
L 1377 591 
L 1377 567 
L 1383 567 
L 1383 591 
L 1417 579 
L 1420 582 
" fill="black" />
</svg>
