<svg xmlns="http://www.w3.org/2000/svg"
viewBox="0 0 1435 635">
<path d="
M 120 553 
L 102 554 
L 136 554 
L 120 553 
M 113 552 
L 127 552 
L 170 555 
L 154 555 
L 142 554 
L 98 554 
L 85 555 
L 70 555 
L 113 552 
" fill="#339541" />
<path d="
M 70 548 
L 88 548 
L 88 550 
Q 88 550 , 96 551 
Q 103 551 , 120 551 
Q 137 551 , 145 551 
Q 152 550 , 152 550 
L 152 548 
L 170 548 
L 170 550 
Q 170 550 , 157 551 
Q 145 551 , 120 551 
Q 96 551 , 83 551 
Q 70 550 , 70 550 
L 70 548 
" fill="#D21010" />
<path d="
M 170 543 
L 170 544 
Q 155 544 , 147 544 
Q 139 544 , 129 544 
Q 108 544 , 98 544 
Q 86 544 , 86 545 
Q 86 546 , 98 547 
Q 108 547 , 129 547 
Q 139 547 , 147 547 
Q 155 547 , 170 546 
L 170 547 
Q 159 547 , 149 548 
Q 139 548 , 128 548 
Q 101 548 , 86 547 
Q 70 546 , 70 545 
Q 70 544 , 86 544 
Q 101 543 , 128 543 
Q 139 543 , 149 543 
Q 160 543 , 170 543 
" fill="#545FFF" />
<path d="
M 154 541 
L 154 540 
L 125 540 
L 125 539 
L 170 539 
L 170 542 
Q 159 542 , 148 542 
Q 139 542 , 127 542 
Q 101 542 , 85 541 
Q 70 541 , 70 539 
Q 70 538 , 85 537 
Q 101 536 , 127 536 
Q 138 536 , 147 536 
Q 157 536 , 167 536 
L 167 537 
Q 154 537 , 146 537 
Q 137 537 , 128 537 
Q 107 537 , 96 537 
Q 86 538 , 86 539 
Q 86 540 , 96 541 
Q 107 541 , 128 541 
Q 137 541 , 144 541 
Q 151 541 , 154 541 
" fill="#F5C000" />
<path d="
M 259 554 
L 259 553 
L 230 553 
L 230 553 
L 275 553 
L 275 554 
Q 264 554 , 253 554 
Q 244 554 , 232 554 
Q 206 554 , 190 554 
Q 175 553 , 175 553 
Q 175 552 , 190 551 
Q 206 551 , 232 551 
Q 243 551 , 252 551 
Q 262 551 , 272 551 
L 272 552 
Q 259 551 , 251 551 
Q 242 551 , 233 551 
Q 212 551 , 201 552 
Q 191 552 , 191 553 
Q 191 553 , 201 554 
Q 212 554 , 233 554 
Q 242 554 , 249 554 
Q 256 554 , 259 554 
" fill="#F5C000" />
<path d="
M 225 548 
L 207 549 
L 241 549 
L 225 548 
M 218 547 
L 232 547 
L 275 550 
L 259 550 
L 247 549 
L 203 549 
L 190 550 
L 175 550 
L 218 547 
" fill="#339541" />
<path d="
M 275 542 
L 275 543 
Q 260 543 , 252 543 
Q 244 542 , 234 542 
Q 213 542 , 203 543 
Q 191 543 , 191 544 
Q 191 545 , 203 545 
Q 213 546 , 234 546 
Q 244 546 , 252 546 
Q 260 545 , 275 545 
L 275 546 
Q 264 546 , 254 546 
Q 244 546 , 233 546 
Q 206 546 , 191 546 
Q 175 545 , 175 544 
Q 175 543 , 191 543 
Q 206 542 , 233 542 
Q 244 542 , 254 542 
Q 265 542 , 275 542 
" fill="#545FFF" />
<path d="
M 175 535 
L 193 535 
L 193 539 
Q 193 540 , 201 541 
Q 208 541 , 225 541 
Q 242 541 , 250 541 
Q 257 540 , 257 539 
L 257 535 
L 275 535 
L 275 539 
Q 275 540 , 262 541 
Q 250 542 , 225 542 
Q 201 542 , 188 541 
Q 175 540 , 175 539 
L 175 535 
" fill="#D21010" />
<path d="
M 280 545 
L 298 545 
L 298 550 
Q 298 552 , 306 552 
Q 313 553 , 330 553 
Q 347 553 , 355 552 
Q 362 552 , 362 550 
L 362 545 
L 380 545 
L 380 550 
Q 380 552 , 367 553 
Q 355 554 , 330 554 
Q 306 554 , 293 553 
Q 280 552 , 280 550 
L 280 545 
" fill="#D21010" />
<path d="
M 330 537 
L 312 541 
L 346 541 
L 330 537 
M 323 535 
L 337 535 
L 380 545 
L 364 545 
L 352 542 
L 308 542 
L 295 545 
L 280 545 
L 323 535 
" fill="#339541" />
<path d="
M 380 520 
L 380 522 
Q 365 521 , 357 520 
Q 349 520 , 339 520 
Q 318 520 , 308 521 
Q 296 523 , 296 526 
Q 296 529 , 308 531 
Q 318 533 , 339 533 
Q 349 533 , 357 532 
Q 365 532 , 380 530 
L 380 533 
Q 369 534 , 359 534 
Q 349 534 , 338 534 
Q 311 534 , 296 532 
Q 280 530 , 280 526 
Q 280 522 , 296 520 
Q 311 518 , 338 518 
Q 349 518 , 359 518 
Q 370 519 , 380 520 
" fill="#545FFF" />
<path d="
M 364 473 
L 364 391 
L 335 391 
L 335 357 
L 380 357 
L 380 494 
Q 369 507 , 358 512 
Q 349 517 , 337 517 
Q 311 517 , 295 476 
Q 280 435 , 280 364 
Q 280 292 , 295 251 
Q 311 210 , 337 210 
Q 348 210 , 357 215 
Q 367 221 , 377 235 
L 377 274 
Q 364 257 , 356 252 
Q 347 247 , 338 247 
Q 317 247 , 306 275 
Q 296 304 , 296 364 
Q 296 424 , 306 454 
Q 317 483 , 338 483 
Q 347 483 , 354 480 
Q 361 477 , 364 473 
" fill="#F5C000" />
<path d="
M 435 552 
L 417 553 
L 451 553 
L 435 552 
M 428 551 
L 442 551 
L 485 555 
L 469 555 
L 457 554 
L 413 554 
L 400 555 
L 385 555 
L 428 551 
" fill="#339541" />
<path d="
M 385 545 
L 403 545 
L 403 548 
Q 403 549 , 411 550 
Q 418 550 , 435 550 
Q 452 550 , 460 550 
Q 467 549 , 467 548 
L 467 545 
L 485 545 
L 485 548 
Q 485 549 , 472 550 
Q 460 551 , 435 551 
Q 411 551 , 398 550 
Q 385 549 , 385 548 
L 385 545 
" fill="#D21010" />
<path d="
M 485 522 
L 485 526 
Q 470 523 , 462 523 
Q 454 522 , 444 522 
Q 423 522 , 413 524 
Q 401 527 , 401 532 
Q 401 537 , 413 539 
Q 423 542 , 444 542 
Q 454 542 , 462 541 
Q 470 541 , 485 538 
L 485 542 
Q 474 544 , 464 544 
Q 454 545 , 443 545 
Q 416 545 , 401 541 
Q 385 538 , 385 532 
Q 385 526 , 401 523 
Q 416 519 , 443 519 
Q 454 519 , 464 520 
Q 475 520 , 485 522 
" fill="#545FFF" />
<path d="
M 469 472 
L 469 385 
L 440 385 
L 440 349 
L 485 349 
L 485 493 
Q 474 507 , 463 513 
Q 454 518 , 442 518 
Q 416 518 , 400 475 
Q 385 432 , 385 356 
Q 385 281 , 400 237 
Q 416 194 , 442 194 
Q 453 194 , 462 200 
Q 472 206 , 482 220 
L 482 262 
Q 469 243 , 461 238 
Q 452 233 , 443 233 
Q 422 233 , 411 263 
Q 401 294 , 401 356 
Q 401 420 , 411 451 
Q 422 482 , 443 482 
Q 452 482 , 459 479 
Q 466 476 , 469 472 
" fill="#F5C000" />
<path d="
M 490 551 
L 508 551 
L 508 553 
Q 508 553 , 516 553 
Q 523 554 , 540 554 
Q 557 554 , 565 553 
Q 572 553 , 572 553 
L 572 551 
L 590 551 
L 590 553 
Q 590 553 , 577 554 
Q 565 554 , 540 554 
Q 516 554 , 503 554 
Q 490 553 , 490 553 
L 490 551 
" fill="#D21010" />
<path d="
M 540 548 
L 522 549 
L 556 549 
L 540 548 
M 533 547 
L 547 547 
L 590 551 
L 574 551 
L 562 550 
L 518 550 
L 505 551 
L 490 551 
L 533 547 
" fill="#339541" />
<path d="
M 590 496 
L 590 505 
Q 575 499 , 567 498 
Q 559 496 , 549 496 
Q 528 496 , 518 502 
Q 506 507 , 506 518 
Q 506 529 , 518 534 
Q 528 540 , 549 540 
Q 559 540 , 567 539 
Q 575 537 , 590 531 
L 590 540 
Q 579 543 , 569 545 
Q 559 546 , 548 546 
Q 521 546 , 506 538 
Q 490 531 , 490 518 
Q 490 505 , 506 498 
Q 521 490 , 548 490 
Q 559 490 , 569 491 
Q 580 493 , 590 496 
" fill="#545FFF" />
<path d="
M 574 460 
L 574 404 
L 545 404 
L 545 381 
L 590 381 
L 590 473 
Q 579 482 , 568 486 
Q 559 489 , 547 489 
Q 521 489 , 505 461 
Q 490 434 , 490 386 
Q 490 337 , 505 310 
Q 521 282 , 547 282 
Q 558 282 , 567 286 
Q 577 289 , 587 299 
L 587 325 
Q 574 314 , 566 310 
Q 557 307 , 548 307 
Q 527 307 , 516 326 
Q 506 346 , 506 386 
Q 506 426 , 516 446 
Q 527 466 , 548 466 
Q 557 466 , 564 464 
Q 571 462 , 574 460 
" fill="#F5C000" />
<path d="
M 679 554 
L 679 553 
L 650 553 
L 650 553 
L 695 553 
L 695 554 
Q 684 555 , 673 555 
Q 664 555 , 652 555 
Q 626 555 , 610 554 
Q 595 554 , 595 553 
Q 595 552 , 610 552 
Q 626 551 , 652 551 
Q 663 551 , 672 551 
Q 682 551 , 692 551 
L 692 552 
Q 679 552 , 671 552 
Q 662 551 , 653 551 
Q 632 551 , 621 552 
Q 611 552 , 611 553 
Q 611 554 , 621 554 
Q 632 554 , 653 554 
Q 662 554 , 669 554 
Q 676 554 , 679 554 
" fill="#F5C000" />
<path d="
M 595 543 
L 613 543 
L 613 547 
Q 613 548 , 621 549 
Q 628 549 , 645 549 
Q 662 549 , 670 549 
Q 677 548 , 677 547 
L 677 543 
L 695 543 
L 695 547 
Q 695 549 , 682 549 
Q 670 550 , 645 550 
Q 621 550 , 608 549 
Q 595 549 , 595 547 
L 595 543 
" fill="#D21010" />
<path d="
M 645 536 
L 627 539 
L 661 539 
L 645 536 
M 638 534 
L 652 534 
L 695 542 
L 679 542 
L 667 540 
L 623 540 
L 610 542 
L 595 542 
L 638 534 
" fill="#339541" />
<path d="
M 695 521 
L 695 523 
Q 680 522 , 672 522 
Q 664 521 , 654 521 
Q 633 521 , 623 523 
Q 611 524 , 611 526 
Q 611 529 , 623 531 
Q 633 532 , 654 532 
Q 664 532 , 672 532 
Q 680 531 , 695 530 
L 695 532 
Q 684 533 , 674 533 
Q 664 533 , 653 533 
Q 626 533 , 611 532 
Q 595 530 , 595 527 
Q 595 524 , 611 522 
Q 626 520 , 653 520 
Q 664 520 , 674 520 
Q 685 521 , 695 521 
" fill="#545FFF" />
<path d="
M 750 553 
L 732 554 
L 766 554 
L 750 553 
M 743 552 
L 757 552 
L 800 555 
L 784 555 
L 772 554 
L 728 554 
L 715 555 
L 700 555 
L 743 552 
" fill="#339541" />
<path d="
M 700 548 
L 718 548 
L 718 550 
Q 718 550 , 726 551 
Q 733 551 , 750 551 
Q 767 551 , 775 551 
Q 782 550 , 782 550 
L 782 548 
L 800 548 
L 800 550 
Q 800 550 , 787 551 
Q 775 551 , 750 551 
Q 726 551 , 713 551 
Q 700 550 , 700 550 
L 700 548 
" fill="#D21010" />
<path d="
M 800 543 
L 800 544 
Q 785 544 , 777 544 
Q 769 544 , 759 544 
Q 738 544 , 728 544 
Q 716 544 , 716 545 
Q 716 546 , 728 547 
Q 738 547 , 759 547 
Q 769 547 , 777 547 
Q 785 547 , 800 546 
L 800 547 
Q 789 547 , 779 548 
Q 769 548 , 758 548 
Q 731 548 , 716 547 
Q 700 546 , 700 545 
Q 700 544 , 716 544 
Q 731 543 , 758 543 
Q 769 543 , 779 543 
Q 790 543 , 800 543 
" fill="#545FFF" />
<path d="
M 784 541 
L 784 540 
L 755 540 
L 755 539 
L 800 539 
L 800 542 
Q 789 542 , 778 542 
Q 769 542 , 757 542 
Q 731 542 , 715 541 
Q 700 541 , 700 539 
Q 700 538 , 715 537 
Q 731 536 , 757 536 
Q 768 536 , 777 536 
Q 787 536 , 797 536 
L 797 537 
Q 784 537 , 776 537 
Q 767 537 , 758 537 
Q 737 537 , 726 537 
Q 716 538 , 716 539 
Q 716 540 , 726 541 
Q 737 541 , 758 541 
Q 767 541 , 774 541 
Q 781 541 , 784 541 
" fill="#F5C000" />
<path d="
M 905 552 
L 905 553 
Q 890 552 , 882 552 
Q 874 552 , 864 552 
Q 843 552 , 833 552 
Q 821 553 , 821 553 
Q 821 554 , 833 554 
Q 843 554 , 864 554 
Q 874 554 , 882 554 
Q 890 554 , 905 554 
L 905 554 
Q 894 554 , 884 554 
Q 874 554 , 863 554 
Q 836 554 , 821 554 
Q 805 554 , 805 553 
Q 805 553 , 821 552 
Q 836 552 , 863 552 
Q 874 552 , 884 552 
Q 895 552 , 905 552 
" fill="#545FFF" />
<path d="
M 855 549 
L 837 550 
L 871 550 
L 855 549 
M 848 549 
L 862 549 
L 905 551 
L 889 551 
L 877 551 
L 833 551 
L 820 551 
L 805 551 
L 848 549 
" fill="#339541" />
<path d="
M 889 548 
L 889 547 
L 860 547 
L 860 546 
L 905 546 
L 905 548 
Q 894 548 , 883 548 
Q 874 548 , 862 548 
Q 836 548 , 820 548 
Q 805 547 , 805 547 
Q 805 546 , 820 545 
Q 836 545 , 862 545 
Q 873 545 , 882 545 
Q 892 545 , 902 545 
L 902 546 
Q 889 545 , 881 545 
Q 872 545 , 863 545 
Q 842 545 , 831 546 
Q 821 546 , 821 547 
Q 821 547 , 831 547 
Q 842 548 , 863 548 
Q 872 548 , 879 548 
Q 886 548 , 889 548 
" fill="#F5C000" />
<path d="
M 805 540 
L 823 540 
L 823 543 
Q 823 543 , 831 544 
Q 838 544 , 855 544 
Q 872 544 , 880 544 
Q 887 543 , 887 543 
L 887 540 
L 905 540 
L 905 543 
Q 905 543 , 892 544 
Q 880 544 , 855 544 
Q 831 544 , 818 544 
Q 805 543 , 805 543 
L 805 540 
" fill="#D21010" />
<path d="
M 960 551 
L 942 553 
L 976 553 
L 960 551 
M 953 550 
L 967 550 
L 1010 554 
L 994 554 
L 982 553 
L 938 553 
L 925 554 
L 910 554 
L 953 550 
" fill="#339541" />
<path d="
M 910 534 
L 928 534 
L 928 543 
Q 928 546 , 936 547 
Q 943 548 , 960 548 
Q 977 548 , 985 547 
Q 992 546 , 992 543 
L 992 534 
L 1010 534 
L 1010 543 
Q 1010 546 , 997 548 
Q 985 550 , 960 550 
Q 936 550 , 923 548 
Q 910 546 , 910 543 
L 910 534 
" fill="#D21010" />
<path d="
M 1010 519 
L 1010 521 
Q 995 520 , 987 519 
Q 979 519 , 969 519 
Q 948 519 , 938 520 
Q 926 522 , 926 525 
Q 926 529 , 938 530 
Q 948 532 , 969 532 
Q 979 532 , 987 531 
Q 995 531 , 1010 529 
L 1010 532 
Q 999 533 , 989 533 
Q 979 534 , 968 534 
Q 941 534 , 926 531 
Q 910 529 , 910 525 
Q 910 521 , 926 519 
Q 941 517 , 968 517 
Q 979 517 , 989 517 
Q 1000 518 , 1010 519 
" fill="#545FFF" />
<path d="
M 994 473 
L 994 392 
L 965 392 
L 965 359 
L 1010 359 
L 1010 493 
Q 999 506 , 988 511 
Q 979 516 , 967 516 
Q 941 516 , 925 476 
Q 910 436 , 910 365 
Q 910 295 , 925 255 
Q 941 214 , 967 214 
Q 978 214 , 987 219 
Q 997 225 , 1007 238 
L 1007 277 
Q 994 260 , 986 255 
Q 977 250 , 968 250 
Q 947 250 , 936 278 
Q 926 307 , 926 365 
Q 926 425 , 936 454 
Q 947 483 , 968 483 
Q 977 483 , 984 480 
Q 991 477 , 994 473 
" fill="#F5C000" />
<path d="
M 1065 553 
L 1047 554 
L 1081 554 
L 1065 553 
M 1058 553 
L 1072 553 
L 1115 555 
L 1099 555 
L 1087 554 
L 1043 554 
L 1030 555 
L 1015 555 
L 1058 553 
" fill="#339541" />
<path d="
M 1015 547 
L 1033 547 
L 1033 550 
Q 1033 551 , 1041 551 
Q 1048 552 , 1065 552 
Q 1082 552 , 1090 551 
Q 1097 551 , 1097 550 
L 1097 547 
L 1115 547 
L 1115 550 
Q 1115 551 , 1102 552 
Q 1090 552 , 1065 552 
Q 1041 552 , 1028 552 
Q 1015 551 , 1015 550 
L 1015 547 
" fill="#D21010" />
<path d="
M 1099 535 
L 1099 513 
L 1070 513 
L 1070 504 
L 1115 504 
L 1115 541 
Q 1104 544 , 1093 546 
Q 1084 547 , 1072 547 
Q 1046 547 , 1030 536 
Q 1015 525 , 1015 506 
Q 1015 486 , 1030 475 
Q 1046 464 , 1072 464 
Q 1083 464 , 1092 465 
Q 1102 467 , 1112 471 
L 1112 481 
Q 1099 477 , 1091 475 
Q 1082 474 , 1073 474 
Q 1052 474 , 1041 482 
Q 1031 489 , 1031 506 
Q 1031 522 , 1041 530 
Q 1052 538 , 1073 538 
Q 1082 538 , 1089 537 
Q 1096 536 , 1099 535 
" fill="#F5C000" />
<path d="
M 1115 368 
L 1115 384 
Q 1100 373 , 1092 371 
Q 1084 368 , 1074 368 
Q 1053 368 , 1043 378 
Q 1031 389 , 1031 410 
Q 1031 431 , 1043 442 
Q 1053 452 , 1074 452 
Q 1084 452 , 1092 450 
Q 1100 447 , 1115 436 
L 1115 453 
Q 1104 459 , 1094 462 
Q 1084 464 , 1073 464 
Q 1046 464 , 1031 449 
Q 1015 435 , 1015 410 
Q 1015 385 , 1031 371 
Q 1046 356 , 1073 356 
Q 1084 356 , 1094 359 
Q 1105 361 , 1115 368 
" fill="#545FFF" />
<path d="
M 1170 551 
L 1152 552 
L 1186 552 
L 1170 551 
M 1163 550 
L 1177 550 
L 1220 554 
L 1204 554 
L 1192 553 
L 1148 553 
L 1135 554 
L 1120 554 
L 1163 550 
" fill="#339541" />
<path d="
M 1120 542 
L 1138 542 
L 1138 546 
Q 1138 548 , 1146 548 
Q 1153 549 , 1170 549 
Q 1187 549 , 1195 548 
Q 1202 548 , 1202 546 
L 1202 542 
L 1220 542 
L 1220 547 
Q 1220 548 , 1207 549 
Q 1195 549 , 1170 549 
Q 1146 549 , 1133 549 
Q 1120 548 , 1120 547 
L 1120 542 
" fill="#D21010" />
<path d="
M 1204 537 
L 1204 529 
L 1175 529 
L 1175 526 
L 1220 526 
L 1220 540 
Q 1209 541 , 1198 541 
Q 1189 542 , 1177 542 
Q 1151 542 , 1135 538 
Q 1120 534 , 1120 526 
Q 1120 519 , 1135 515 
Q 1151 511 , 1177 511 
Q 1188 511 , 1197 512 
Q 1207 512 , 1217 514 
L 1217 517 
Q 1204 516 , 1196 515 
Q 1187 515 , 1178 515 
Q 1157 515 , 1146 518 
Q 1136 521 , 1136 526 
Q 1136 533 , 1146 536 
Q 1157 538 , 1178 538 
Q 1187 538 , 1194 538 
Q 1201 538 , 1204 537 
" fill="#F5C000" />
<path d="
M 1220 260 
L 1220 303 
Q 1205 275 , 1197 268 
Q 1189 261 , 1179 261 
Q 1158 261 , 1148 288 
Q 1136 316 , 1136 370 
Q 1136 425 , 1148 453 
Q 1158 480 , 1179 480 
Q 1189 480 , 1197 473 
Q 1205 466 , 1220 438 
L 1220 482 
Q 1209 498 , 1199 504 
Q 1189 511 , 1178 511 
Q 1151 511 , 1136 473 
Q 1120 435 , 1120 371 
Q 1120 306 , 1136 268 
Q 1151 230 , 1178 230 
Q 1189 230 , 1199 237 
Q 1210 244 , 1220 260 
" fill="#545FFF" />
<path d="
M 1275 549 
L 1257 552 
L 1291 552 
L 1275 549 
M 1268 548 
L 1282 548 
L 1325 554 
L 1309 554 
L 1297 552 
L 1253 552 
L 1240 554 
L 1225 554 
L 1268 548 
" fill="#339541" />
<path d="
M 1309 546 
L 1309 544 
L 1280 544 
L 1280 543 
L 1325 543 
L 1325 547 
Q 1314 547 , 1303 547 
Q 1294 547 , 1282 547 
Q 1256 547 , 1240 546 
Q 1225 545 , 1225 543 
Q 1225 541 , 1240 540 
Q 1256 539 , 1282 539 
Q 1293 539 , 1302 539 
Q 1312 539 , 1322 540 
L 1322 541 
Q 1309 540 , 1301 540 
Q 1292 540 , 1283 540 
Q 1262 540 , 1251 541 
Q 1241 542 , 1241 543 
Q 1241 545 , 1251 546 
Q 1262 546 , 1283 546 
Q 1292 546 , 1299 546 
Q 1306 546 , 1309 546 
" fill="#F5C000" />
<path d="
M 1325 510 
L 1325 515 
Q 1310 512 , 1302 511 
Q 1294 510 , 1284 510 
Q 1263 510 , 1253 513 
Q 1241 517 , 1241 523 
Q 1241 529 , 1253 532 
Q 1263 535 , 1284 535 
Q 1294 535 , 1302 534 
Q 1310 533 , 1325 530 
L 1325 535 
Q 1314 537 , 1304 537 
Q 1294 538 , 1283 538 
Q 1256 538 , 1241 534 
Q 1225 530 , 1225 523 
Q 1225 515 , 1241 511 
Q 1256 507 , 1283 507 
Q 1294 507 , 1304 508 
Q 1315 509 , 1325 510 
" fill="#545FFF" />
<path d="
M 1225 475 
L 1243 475 
L 1243 494 
Q 1243 499 , 1251 501 
Q 1258 503 , 1275 503 
Q 1292 503 , 1300 501 
Q 1307 499 , 1307 494 
L 1307 475 
L 1325 475 
L 1325 494 
Q 1325 500 , 1312 503 
Q 1300 507 , 1275 507 
Q 1251 507 , 1238 503 
Q 1225 500 , 1225 494 
L 1225 475 
" fill="#D21010" />
<path d="
M 1380 553 
L 1362 554 
L 1396 554 
L 1380 553 
M 1373 552 
L 1387 552 
L 1430 555 
L 1414 555 
L 1402 554 
L 1358 554 
L 1345 555 
L 1330 555 
L 1373 552 
" fill="#339541" />
<path d="
M 1330 548 
L 1348 548 
L 1348 550 
Q 1348 550 , 1356 551 
Q 1363 551 , 1380 551 
Q 1397 551 , 1405 551 
Q 1412 550 , 1412 550 
L 1412 548 
L 1430 548 
L 1430 550 
Q 1430 550 , 1417 551 
Q 1405 551 , 1380 551 
Q 1356 551 , 1343 551 
Q 1330 550 , 1330 550 
L 1330 548 
" fill="#D21010" />
<path d="
M 1430 543 
L 1430 544 
Q 1415 544 , 1407 544 
Q 1399 544 , 1389 544 
Q 1368 544 , 1358 544 
Q 1346 544 , 1346 545 
Q 1346 546 , 1358 547 
Q 1368 547 , 1389 547 
Q 1399 547 , 1407 547 
Q 1415 547 , 1430 546 
L 1430 547 
Q 1419 547 , 1409 548 
Q 1399 548 , 1388 548 
Q 1361 548 , 1346 547 
Q 1330 546 , 1330 545 
Q 1330 544 , 1346 544 
Q 1361 543 , 1388 543 
Q 1399 543 , 1409 543 
Q 1420 543 , 1430 543 
" fill="#545FFF" />
<path d="
M 1414 541 
L 1414 540 
L 1385 540 
L 1385 539 
L 1430 539 
L 1430 542 
Q 1419 542 , 1408 542 
Q 1399 542 , 1387 542 
Q 1361 542 , 1345 541 
Q 1330 541 , 1330 539 
Q 1330 538 , 1345 537 
Q 1361 536 , 1387 536 
Q 1398 536 , 1407 536 
Q 1417 536 , 1427 536 
L 1427 537 
Q 1414 537 , 1406 537 
Q 1397 537 , 1388 537 
Q 1367 537 , 1356 537 
Q 1346 538 , 1346 539 
Q 1346 540 , 1356 541 
Q 1367 541 , 1388 541 
Q 1397 541 , 1404 541 
Q 1411 541 , 1414 541 
" fill="#F5C000" />
<path d="M 65 55 L 65 555 " stroke="black" stroke-width="1.5"/>
<path d="M 55 555 L 65 555 " stroke="black" stroke-width="4"/>
<text text-anchor="end" x="50" y="555" font-size="50" alignment-baseline="middle">0</text>
<path d="M 55 305 L 65 305 " stroke="black" stroke-width="4"/>
<text text-anchor="end" x="50" y="305" font-size="50" alignment-baseline="middle">1</text>
<path d="M 55 55 L 65 55 " stroke="black" stroke-width="4"/>
<text text-anchor="end" x="50" y="55" font-size="50" alignment-baseline="middle">2</text>
<text text-anchor="middle" x="750" y="50" font-size="50" alignment-baseline="baseline"></text>
G<path d="
M 160 582 
L 126 595 
L 160 608 
L 157 611 
L 123 598 
L 123 623 
L 117 623 
L 117 599 
L 83 611 
L 80 608 
L 114 595 
L 80 582 
L 83 579 
L 117 591 
L 117 567 
L 123 567 
L 123 591 
L 157 579 
L 160 582 
" fill="black" />
<path d="
" fill="black" />
<path d="
M 211 567 
L 238 567 
L 238 623 
L 211 623 
L 211 567 
" fill="black" />
<path d="
" fill="black" />
<path d="
" fill="black" />
<path d="
M 316 567 
L 343 567 
L 343 623 
L 316 623 
L 316 567 
" fill="black" />
<path d="
" fill="black" />
<path d="
" fill="black" />
<path d="
M 421 567 
L 448 567 
L 448 623 
L 421 623 
L 421 567 
" fill="black" />
<path d="
" fill="black" />
<path d="
" fill="black" />
<path d="
M 526 567 
L 553 567 
L 553 623 
L 526 623 
L 526 567 
" fill="black" />
<path d="
" fill="black" />
<path d="
" fill="black" />
<path d="
M 617 567 
L 633 567 
L 633 623 
L 617 623 
L 617 567 
" fill="black" />
<path d="
" fill="black" />
<path d="
M 669 593 
Q 671 594 , 672 597 
Q 673 601 , 673 606 
Q 673 614 , 671 618 
Q 669 623 , 664 623 
Q 662 623 , 661 622 
Q 659 621 , 657 619 
L 657 613 
Q 659 617 , 660 618 
Q 662 619 , 664 619 
Q 667 619 , 669 616 
Q 671 613 , 671 606 
Q 671 601 , 669 598 
Q 668 595 , 664 595 
L 661 595 
L 661 591 
L 665 591 
Q 667 591 , 669 589 
Q 670 586 , 670 582 
Q 670 577 , 669 574 
Q 667 571 , 664 571 
Q 663 571 , 661 572 
Q 660 573 , 658 575 
L 658 571 
Q 660 569 , 662 568 
Q 663 567 , 665 567 
Q 669 567 , 671 571 
Q 672 575 , 672 581 
Q 672 586 , 671 589 
Q 671 592 , 669 593 
" fill="black" />
<path d="
M 689 593 
Q 691 594 , 692 597 
Q 693 601 , 693 606 
Q 693 614 , 691 618 
Q 689 623 , 684 623 
Q 682 623 , 681 622 
Q 679 621 , 677 619 
L 677 613 
Q 679 617 , 680 618 
Q 682 619 , 684 619 
Q 687 619 , 689 616 
Q 691 613 , 691 606 
Q 691 601 , 689 598 
Q 688 595 , 684 595 
L 681 595 
L 681 591 
L 685 591 
Q 687 591 , 689 589 
Q 690 586 , 690 582 
Q 690 577 , 689 574 
Q 687 571 , 684 571 
Q 683 571 , 681 572 
Q 680 573 , 678 575 
L 678 571 
Q 680 569 , 682 568 
Q 683 567 , 685 567 
Q 689 567 , 691 571 
Q 692 575 , 692 581 
Q 692 586 , 691 589 
Q 691 592 , 689 593 
" fill="black" />
<path d="
M 790 582 
L 756 595 
L 790 608 
L 787 611 
L 753 598 
L 753 623 
L 747 623 
L 747 599 
L 713 611 
L 710 608 
L 744 595 
L 710 582 
L 713 579 
L 747 591 
L 747 567 
L 753 567 
L 753 591 
L 787 579 
L 790 582 
" fill="black" />
<path d="
" fill="black" />
<path d="
M 841 567 
L 868 567 
L 868 623 
L 841 623 
L 841 567 
" fill="black" />
<path d="
" fill="black" />
<path d="
" fill="black" />
<path d="
M 946 567 
L 973 567 
L 973 623 
L 946 623 
L 946 567 
" fill="black" />
<path d="
" fill="black" />
<path d="
" fill="black" />
<path d="
M 1051 567 
L 1078 567 
L 1078 623 
L 1051 623 
L 1051 567 
" fill="black" />
<path d="
" fill="black" />
<path d="
" fill="black" />
<path d="
M 1156 567 
L 1183 567 
L 1183 623 
L 1156 623 
L 1156 567 
" fill="black" />
<path d="
" fill="black" />
<path d="
" fill="black" />
<path d="
M 1261 567 
L 1288 567 
L 1288 623 
L 1261 623 
L 1261 567 
" fill="black" />
<path d="
" fill="black" />
<path d="
M 1420 582 
L 1386 595 
L 1420 608 
L 1417 611 
L 1383 598 
L 1383 623 
L 1377 623 
L 1377 599 
L 1343 611 
L 1340 608 
L 1374 595 
L 1340 582 
L 1343 579 
L 1377 591 
L 1377 567 
L 1383 567 
L 1383 591 
L 1417 579 
L 1420 582 
" fill="black" />
</svg>
