<svg xmlns="http://www.w3.org/2000/svg"
viewBox="0 0 700 635">
<path d="
M 170 554 
L 170 554 
Q 155 554 , 147 554 
Q 139 554 , 129 554 
Q 108 554 , 98 554 
Q 86 554 , 86 554 
Q 86 554 , 98 554 
Q 108 554 , 129 554 
Q 139 554 , 147 554 
Q 155 554 , 170 554 
L 170 554 
Q 159 554 , 149 554 
Q 139 554 , 128 554 
Q 101 554 , 86 554 
Q 70 554 , 70 554 
Q 70 554 , 86 554 
Q 101 554 , 128 554 
Q 139 554 , 149 554 
Q 160 554 , 170 554 
" fill="#545FFF" />
<path d="
M 120 553 
L 102 553 
L 136 553 
L 120 553 
M 113 553 
L 127 553 
L 170 553 
L 154 553 
L 142 553 
L 98 553 
L 85 553 
L 70 553 
L 113 553 
" fill="#339541" />
<path d="
M 70 552 
L 88 552 
L 88 552 
Q 88 552 , 96 552 
Q 103 552 , 120 552 
Q 137 552 , 145 552 
Q 152 552 , 152 552 
L 152 552 
L 170 552 
L 170 552 
Q 170 552 , 157 552 
Q 145 552 , 120 552 
Q 96 552 , 83 552 
Q 70 552 , 70 552 
L 70 552 
" fill="#D21010" />
<path d="
M 154 551 
L 154 551 
L 125 551 
L 125 551 
L 170 551 
L 170 551 
Q 159 551 , 148 551 
Q 139 551 , 127 551 
Q 101 551 , 85 551 
Q 70 551 , 70 551 
Q 70 551 , 85 551 
Q 101 551 , 127 551 
Q 138 551 , 147 551 
Q 157 551 , 167 551 
L 167 551 
Q 154 551 , 146 551 
Q 137 551 , 128 551 
Q 107 551 , 96 551 
Q 86 551 , 86 551 
Q 86 551 , 96 551 
Q 107 551 , 128 551 
Q 137 551 , 144 551 
Q 151 551 , 154 551 
" fill="#F5C000" />
<path d="
M 259 554 
L 259 552 
L 230 552 
L 230 551 
L 275 551 
L 275 554 
Q 264 555 , 253 555 
Q 244 555 , 232 555 
Q 206 555 , 190 554 
Q 175 553 , 175 551 
Q 175 550 , 190 549 
Q 206 548 , 232 548 
Q 243 548 , 252 548 
Q 262 548 , 272 549 
L 272 549 
Q 259 549 , 251 549 
Q 242 549 , 233 549 
Q 212 549 , 201 549 
Q 191 550 , 191 551 
Q 191 553 , 201 554 
Q 212 554 , 233 554 
Q 242 554 , 249 554 
Q 256 554 , 259 554 
" fill="#F5C000" />
<path d="
M 225 541 
L 207 545 
L 241 545 
L 225 541 
M 218 540 
L 232 540 
L 275 548 
L 259 548 
L 247 546 
L 203 546 
L 190 548 
L 175 548 
L 218 540 
" fill="#339541" />
<path d="
M 275 517 
L 275 521 
Q 260 518 , 252 518 
Q 244 517 , 234 517 
Q 213 517 , 203 519 
Q 191 522 , 191 527 
Q 191 532 , 203 535 
Q 213 537 , 234 537 
Q 244 537 , 252 536 
Q 260 536 , 275 533 
L 275 537 
Q 264 539 , 254 539 
Q 244 540 , 233 540 
Q 206 540 , 191 536 
Q 175 533 , 175 527 
Q 175 521 , 191 518 
Q 206 514 , 233 514 
Q 244 514 , 254 515 
Q 265 515 , 275 517 
" fill="#545FFF" />
<path d="
M 175 477 
L 193 477 
L 193 498 
Q 193 504 , 201 507 
Q 208 509 , 225 509 
Q 242 509 , 250 507 
Q 257 504 , 257 498 
L 257 477 
L 275 477 
L 275 499 
Q 275 506 , 262 510 
Q 250 513 , 225 513 
Q 201 513 , 188 510 
Q 175 506 , 175 499 
L 175 477 
" fill="#D21010" />
<path d="
M 330 551 
L 312 553 
L 346 553 
L 330 551 
M 323 550 
L 337 550 
L 380 555 
L 364 555 
L 352 553 
L 308 553 
L 295 555 
L 280 555 
L 323 550 
" fill="#339541" />
<path d="
M 280 528 
L 298 528 
L 298 541 
Q 298 544 , 306 546 
Q 313 547 , 330 547 
Q 347 547 , 355 546 
Q 362 544 , 362 541 
L 362 528 
L 380 528 
L 380 541 
Q 380 545 , 367 547 
Q 355 549 , 330 549 
Q 306 549 , 293 547 
Q 280 545 , 280 541 
L 280 528 
" fill="#D21010" />
<path d="
M 380 503 
L 380 507 
Q 365 504 , 357 504 
Q 349 503 , 339 503 
Q 318 503 , 308 506 
Q 296 508 , 296 513 
Q 296 519 , 308 522 
Q 318 524 , 339 524 
Q 349 524 , 357 524 
Q 365 523 , 380 520 
L 380 525 
Q 369 526 , 359 527 
Q 349 527 , 338 527 
Q 311 527 , 296 524 
Q 280 520 , 280 514 
Q 280 507 , 296 504 
Q 311 500 , 338 500 
Q 349 500 , 359 501 
Q 370 501 , 380 503 
" fill="#545FFF" />
<path d="
M 364 482 
L 364 449 
L 335 449 
L 335 435 
L 380 435 
L 380 490 
Q 369 495 , 358 497 
Q 349 499 , 337 499 
Q 311 499 , 295 483 
Q 280 467 , 280 438 
Q 280 410 , 295 393 
Q 311 377 , 337 377 
Q 348 377 , 357 379 
Q 367 381 , 377 387 
L 377 402 
Q 364 396 , 356 394 
Q 347 392 , 338 392 
Q 317 392 , 306 403 
Q 296 414 , 296 438 
Q 296 462 , 306 474 
Q 317 485 , 338 485 
Q 347 485 , 354 484 
Q 361 483 , 364 482 
" fill="#F5C000" />
<path d="
M 435 553 
L 417 554 
L 451 554 
L 435 553 
M 428 552 
L 442 552 
L 485 555 
L 469 555 
L 457 554 
L 413 554 
L 400 555 
L 385 555 
L 428 552 
" fill="#339541" />
<path d="
M 485 531 
L 485 535 
Q 470 533 , 462 532 
Q 454 531 , 444 531 
Q 423 531 , 413 534 
Q 401 536 , 401 540 
Q 401 545 , 413 547 
Q 423 549 , 444 549 
Q 454 549 , 462 548 
Q 470 548 , 485 546 
L 485 549 
Q 474 550 , 464 551 
Q 454 551 , 443 551 
Q 416 551 , 401 548 
Q 385 545 , 385 540 
Q 385 535 , 401 532 
Q 416 529 , 443 529 
Q 454 529 , 464 530 
Q 475 530 , 485 531 
" fill="#545FFF" />
<path d="
M 385 497 
L 403 497 
L 403 515 
Q 403 520 , 411 523 
Q 418 525 , 435 525 
Q 452 525 , 460 523 
Q 467 520 , 467 515 
L 467 497 
L 485 497 
L 485 516 
Q 485 522 , 472 525 
Q 460 528 , 435 528 
Q 411 528 , 398 525 
Q 385 522 , 385 516 
L 385 497 
" fill="#D21010" />
<path d="
M 469 479 
L 469 447 
L 440 447 
L 440 433 
L 485 433 
L 485 487 
Q 474 492 , 463 494 
Q 454 496 , 442 496 
Q 416 496 , 400 480 
Q 385 464 , 385 436 
Q 385 408 , 400 392 
Q 416 376 , 442 376 
Q 453 376 , 462 378 
Q 472 380 , 482 386 
L 482 401 
Q 469 394 , 461 392 
Q 452 390 , 443 390 
Q 422 390 , 411 402 
Q 401 413 , 401 436 
Q 401 460 , 411 471 
Q 422 483 , 443 483 
Q 452 483 , 459 482 
Q 466 480 , 469 479 
" fill="#F5C000" />
<path d="
M 540 552 
L 522 553 
L 556 553 
L 540 552 
M 533 551 
L 547 551 
L 590 555 
L 574 555 
L 562 553 
L 518 553 
L 505 555 
L 490 555 
L 533 551 
" fill="#339541" />
<path d="
M 590 540 
L 590 542 
Q 575 541 , 567 541 
Q 559 540 , 549 540 
Q 528 540 , 518 541 
Q 506 542 , 506 544 
Q 506 547 , 518 548 
Q 528 549 , 549 549 
Q 559 549 , 567 549 
Q 575 548 , 590 547 
L 590 549 
Q 579 550 , 569 550 
Q 559 550 , 548 550 
Q 521 550 , 506 549 
Q 490 547 , 490 545 
Q 490 542 , 506 541 
Q 521 539 , 548 539 
Q 559 539 , 569 539 
Q 580 540 , 590 540 
" fill="#545FFF" />
<path d="
M 490 484 
L 508 484 
L 508 516 
Q 508 525 , 516 529 
Q 523 532 , 540 532 
Q 557 532 , 565 529 
Q 572 525 , 572 516 
L 572 484 
L 590 484 
L 590 517 
Q 590 527 , 577 533 
Q 565 538 , 540 538 
Q 516 538 , 503 533 
Q 490 527 , 490 517 
L 490 484 
" fill="#D21010" />
<path d="
M 574 475 
L 574 460 
L 545 460 
L 545 454 
L 590 454 
L 590 479 
Q 579 481 , 568 482 
Q 559 483 , 547 483 
Q 521 483 , 505 476 
Q 490 468 , 490 455 
Q 490 442 , 505 435 
Q 521 427 , 547 427 
Q 558 427 , 567 428 
Q 577 429 , 587 432 
L 587 439 
Q 574 436 , 566 435 
Q 557 434 , 548 434 
Q 527 434 , 516 439 
Q 506 444 , 506 455 
Q 506 466 , 516 471 
Q 527 477 , 548 477 
Q 557 477 , 564 476 
Q 571 476 , 574 475 
" fill="#F5C000" />
<path d="
M 695 554 
L 695 554 
Q 680 554 , 672 554 
Q 664 554 , 654 554 
Q 633 554 , 623 554 
Q 611 554 , 611 554 
Q 611 554 , 623 554 
Q 633 554 , 654 554 
Q 664 554 , 672 554 
Q 680 554 , 695 554 
L 695 554 
Q 684 554 , 674 554 
Q 664 554 , 653 554 
Q 626 554 , 611 554 
Q 595 554 , 595 554 
Q 595 554 , 611 554 
Q 626 554 , 653 554 
Q 664 554 , 674 554 
Q 685 554 , 695 554 
" fill="#545FFF" />
<path d="
M 645 553 
L 627 553 
L 661 553 
L 645 553 
M 638 553 
L 652 553 
L 695 553 
L 679 553 
L 667 553 
L 623 553 
L 610 553 
L 595 553 
L 638 553 
" fill="#339541" />
<path d="
M 595 552 
L 613 552 
L 613 552 
Q 613 552 , 621 552 
Q 628 552 , 645 552 
Q 662 552 , 670 552 
Q 677 552 , 677 552 
L 677 552 
L 695 552 
L 695 552 
Q 695 552 , 682 552 
Q 670 552 , 645 552 
Q 621 552 , 608 552 
Q 595 552 , 595 552 
L 595 552 
" fill="#D21010" />
<path d="
M 679 551 
L 679 551 
L 650 551 
L 650 551 
L 695 551 
L 695 551 
Q 684 551 , 673 551 
Q 664 551 , 652 551 
Q 626 551 , 610 551 
Q 595 551 , 595 551 
Q 595 551 , 610 551 
Q 626 551 , 652 551 
Q 663 551 , 672 551 
Q 682 551 , 692 551 
L 692 551 
Q 679 551 , 671 551 
Q 662 551 , 653 551 
Q 632 551 , 621 551 
Q 611 551 , 611 551 
Q 611 551 , 621 551 
Q 632 551 , 653 551 
Q 662 551 , 669 551 
Q 676 551 , 679 551 
" fill="#F5C000" />
<path d="M 65 55 L 65 555 " stroke="black" stroke-width="1.5"/>
<path d="M 55 555 L 65 555 " stroke="black" stroke-width="4"/>
<text text-anchor="end" x="50" y="555" font-size="50" alignment-baseline="middle">0</text>
<path d="M 55 305 L 65 305 " stroke="black" stroke-width="4"/>
<text text-anchor="end" x="50" y="305" font-size="50" alignment-baseline="middle">1</text>
<path d="M 55 55 L 65 55 " stroke="black" stroke-width="4"/>
<text text-anchor="end" x="50" y="55" font-size="50" alignment-baseline="middle">2</text>
<text text-anchor="middle" x="382" y="50" font-size="50" alignment-baseline="baseline"></text>
G<path d="
M 160 582 
L 126 595 
L 160 608 
L 157 611 
L 123 598 
L 123 623 
L 117 623 
L 117 599 
L 83 611 
L 80 608 
L 114 595 
L 80 582 
L 83 579 
L 117 591 
L 117 567 
L 123 567 
L 123 591 
L 157 579 
L 160 582 
" fill="black" />
<path d="
" fill="black" />
<path d="
M 211 567 
L 238 567 
L 238 623 
L 211 623 
L 211 567 
" fill="black" />
<path d="
" fill="black" />
<path d="
" fill="black" />
<path d="
M 316 567 
L 343 567 
L 343 623 
L 316 623 
L 316 567 
" fill="black" />
<path d="
" fill="black" />
<path d="
" fill="black" />
<path d="
M 421 567 
L 448 567 
L 448 623 
L 421 623 
L 421 567 
" fill="black" />
<path d="
" fill="black" />
<path d="
" fill="black" />
<path d="
M 526 567 
L 553 567 
L 553 623 
L 526 623 
L 526 567 
" fill="black" />
<path d="
" fill="black" />
<path d="
M 685 582 
L 651 595 
L 685 608 
L 682 611 
L 648 598 
L 648 623 
L 642 623 
L 642 599 
L 608 611 
L 605 608 
L 639 595 
L 605 582 
L 608 579 
L 642 591 
L 642 567 
L 648 567 
L 648 591 
L 682 579 
L 685 582 
" fill="black" />
</svg>
