<svg xmlns="http://www.w3.org/2000/svg"
viewBox="0 0 595 635">
<path d="
M 170 554 
L 170 554 
Q 155 554 , 147 554 
Q 139 554 , 129 554 
Q 108 554 , 98 554 
Q 86 554 , 86 554 
Q 86 554 , 98 554 
Q 108 554 , 129 554 
Q 139 554 , 147 554 
Q 155 554 , 170 554 
L 170 554 
Q 159 554 , 149 554 
Q 139 554 , 128 554 
Q 101 554 , 86 554 
Q 70 554 , 70 554 
Q 70 554 , 86 554 
Q 101 554 , 128 554 
Q 139 554 , 149 554 
Q 160 554 , 170 554 
" fill="#545FFF" />
<path d="
M 120 553 
L 102 553 
L 136 553 
L 120 553 
M 113 553 
L 127 553 
L 170 553 
L 154 553 
L 142 553 
L 98 553 
L 85 553 
L 70 553 
L 113 553 
" fill="#339541" />
<path d="
M 70 552 
L 88 552 
L 88 552 
Q 88 552 , 96 552 
Q 103 552 , 120 552 
Q 137 552 , 145 552 
Q 152 552 , 152 552 
L 152 552 
L 170 552 
L 170 552 
Q 170 552 , 157 552 
Q 145 552 , 120 552 
Q 96 552 , 83 552 
Q 70 552 , 70 552 
L 70 552 
" fill="#D21010" />
<path d="
M 154 551 
L 154 551 
L 125 551 
L 125 551 
L 170 551 
L 170 551 
Q 159 551 , 148 551 
Q 139 551 , 127 551 
Q 101 551 , 85 551 
Q 70 551 , 70 551 
Q 70 551 , 85 551 
Q 101 551 , 127 551 
Q 138 551 , 147 551 
Q 157 551 , 167 551 
L 167 551 
Q 154 551 , 146 551 
Q 137 551 , 128 551 
Q 107 551 , 96 551 
Q 86 551 , 86 551 
Q 86 551 , 96 551 
Q 107 551 , 128 551 
Q 137 551 , 144 551 
Q 151 551 , 154 551 
" fill="#F5C000" />
<path d="
M 225 553 
L 207 554 
L 241 554 
L 225 553 
M 218 552 
L 232 552 
L 275 555 
L 259 555 
L 247 554 
L 203 554 
L 190 555 
L 175 555 
L 218 552 
" fill="#339541" />
<path d="
M 175 533 
L 193 533 
L 193 544 
Q 193 547 , 201 549 
Q 208 550 , 225 550 
Q 242 550 , 250 549 
Q 257 547 , 257 544 
L 257 533 
L 275 533 
L 275 544 
Q 275 548 , 262 550 
Q 250 552 , 225 552 
Q 201 552 , 188 550 
Q 175 548 , 175 544 
L 175 533 
" fill="#D21010" />
<path d="
M 275 511 
L 275 514 
Q 260 512 , 252 511 
Q 244 511 , 234 511 
Q 213 511 , 203 513 
Q 191 516 , 191 520 
Q 191 525 , 203 527 
Q 213 530 , 234 530 
Q 244 530 , 252 529 
Q 260 528 , 275 526 
L 275 530 
Q 264 531 , 254 532 
Q 244 532 , 233 532 
Q 206 532 , 191 529 
Q 175 526 , 175 520 
Q 175 515 , 191 511 
Q 206 508 , 233 508 
Q 244 508 , 254 509 
Q 265 509 , 275 511 
" fill="#545FFF" />
<path d="
M 259 501 
L 259 489 
L 230 489 
L 230 484 
L 275 484 
L 275 504 
Q 264 506 , 253 507 
Q 244 508 , 232 508 
Q 206 508 , 190 502 
Q 175 496 , 175 485 
Q 175 475 , 190 469 
Q 206 463 , 232 463 
Q 243 463 , 252 464 
Q 262 465 , 272 467 
L 272 472 
Q 259 470 , 251 469 
Q 242 468 , 233 468 
Q 212 468 , 201 472 
Q 191 477 , 191 485 
Q 191 494 , 201 498 
Q 212 503 , 233 503 
Q 242 503 , 249 502 
Q 256 502 , 259 501 
" fill="#F5C000" />
<path d="
M 330 551 
L 312 552 
L 346 552 
L 330 551 
M 323 550 
L 337 550 
L 380 554 
L 364 554 
L 352 553 
L 308 553 
L 295 554 
L 280 554 
L 323 550 
" fill="#339541" />
<path d="
M 280 527 
L 298 527 
L 298 540 
Q 298 544 , 306 546 
Q 313 547 , 330 547 
Q 347 547 , 355 546 
Q 362 544 , 362 540 
L 362 527 
L 380 527 
L 380 541 
Q 380 545 , 367 548 
Q 355 550 , 330 550 
Q 306 550 , 293 548 
Q 280 545 , 280 541 
L 280 527 
" fill="#D21010" />
<path d="
M 380 503 
L 380 507 
Q 365 504 , 357 504 
Q 349 503 , 339 503 
Q 318 503 , 308 506 
Q 296 508 , 296 513 
Q 296 519 , 308 521 
Q 318 524 , 339 524 
Q 349 524 , 357 523 
Q 365 522 , 380 520 
L 380 524 
Q 369 526 , 359 526 
Q 349 527 , 338 527 
Q 311 527 , 296 523 
Q 280 520 , 280 513 
Q 280 507 , 296 504 
Q 311 500 , 338 500 
Q 349 500 , 359 501 
Q 370 501 , 380 503 
" fill="#545FFF" />
<path d="
M 364 476 
L 364 432 
L 335 432 
L 335 414 
L 380 414 
L 380 487 
Q 369 494 , 358 497 
Q 349 500 , 337 500 
Q 311 500 , 295 478 
Q 280 456 , 280 417 
Q 280 379 , 295 357 
Q 311 335 , 337 335 
Q 348 335 , 357 338 
Q 367 341 , 377 348 
L 377 369 
Q 364 360 , 356 357 
Q 347 355 , 338 355 
Q 317 355 , 306 370 
Q 296 386 , 296 417 
Q 296 450 , 306 466 
Q 317 481 , 338 481 
Q 347 481 , 354 480 
Q 361 478 , 364 476 
" fill="#F5C000" />
<path d="
M 435 551 
L 417 553 
L 451 553 
L 435 551 
M 428 550 
L 442 550 
L 485 554 
L 469 554 
L 457 553 
L 413 553 
L 400 554 
L 385 554 
L 428 550 
" fill="#339541" />
<path d="
M 485 538 
L 485 540 
Q 470 539 , 462 539 
Q 454 538 , 444 538 
Q 423 538 , 413 540 
Q 401 541 , 401 543 
Q 401 545 , 413 547 
Q 423 548 , 444 548 
Q 454 548 , 462 548 
Q 470 547 , 485 546 
L 485 548 
Q 474 549 , 464 549 
Q 454 549 , 443 549 
Q 416 549 , 401 548 
Q 385 546 , 385 543 
Q 385 540 , 401 539 
Q 416 537 , 443 537 
Q 454 537 , 464 537 
Q 475 538 , 485 538 
" fill="#545FFF" />
<path d="
M 469 530 
L 469 519 
L 440 519 
L 440 515 
L 485 515 
L 485 533 
Q 474 535 , 463 535 
Q 454 536 , 442 536 
Q 416 536 , 400 531 
Q 385 525 , 385 516 
Q 385 506 , 400 501 
Q 416 495 , 442 495 
Q 453 495 , 462 496 
Q 472 496 , 482 498 
L 482 504 
Q 469 501 , 461 501 
Q 452 500 , 443 500 
Q 422 500 , 411 504 
Q 401 508 , 401 516 
Q 401 524 , 411 528 
Q 422 532 , 443 532 
Q 452 532 , 459 531 
Q 466 531 , 469 530 
" fill="#F5C000" />
<path d="
M 385 423 
L 403 423 
L 403 465 
Q 403 477 , 411 482 
Q 418 486 , 435 486 
Q 452 486 , 460 482 
Q 467 477 , 467 465 
L 467 423 
L 485 423 
L 485 466 
Q 485 480 , 472 487 
Q 460 494 , 435 494 
Q 411 494 , 398 487 
Q 385 480 , 385 466 
L 385 423 
" fill="#D21010" />
<path d="
M 590 554 
L 590 554 
Q 575 554 , 567 554 
Q 559 554 , 549 554 
Q 528 554 , 518 554 
Q 506 554 , 506 554 
Q 506 554 , 518 554 
Q 528 554 , 549 554 
Q 559 554 , 567 554 
Q 575 554 , 590 554 
L 590 554 
Q 579 554 , 569 554 
Q 559 554 , 548 554 
Q 521 554 , 506 554 
Q 490 554 , 490 554 
Q 490 554 , 506 554 
Q 521 554 , 548 554 
Q 559 554 , 569 554 
Q 580 554 , 590 554 
" fill="#545FFF" />
<path d="
M 540 553 
L 522 553 
L 556 553 
L 540 553 
M 533 553 
L 547 553 
L 590 553 
L 574 553 
L 562 553 
L 518 553 
L 505 553 
L 490 553 
L 533 553 
" fill="#339541" />
<path d="
M 490 552 
L 508 552 
L 508 552 
Q 508 552 , 516 552 
Q 523 552 , 540 552 
Q 557 552 , 565 552 
Q 572 552 , 572 552 
L 572 552 
L 590 552 
L 590 552 
Q 590 552 , 577 552 
Q 565 552 , 540 552 
Q 516 552 , 503 552 
Q 490 552 , 490 552 
L 490 552 
" fill="#D21010" />
<path d="
M 574 551 
L 574 551 
L 545 551 
L 545 551 
L 590 551 
L 590 551 
Q 579 551 , 568 551 
Q 559 551 , 547 551 
Q 521 551 , 505 551 
Q 490 551 , 490 551 
Q 490 551 , 505 551 
Q 521 551 , 547 551 
Q 558 551 , 567 551 
Q 577 551 , 587 551 
L 587 551 
Q 574 551 , 566 551 
Q 557 551 , 548 551 
Q 527 551 , 516 551 
Q 506 551 , 506 551 
Q 506 551 , 516 551 
Q 527 551 , 548 551 
Q 557 551 , 564 551 
Q 571 551 , 574 551 
" fill="#F5C000" />
<path d="M 65 55 L 65 555 " stroke="black" stroke-width="1.5"/>
<path d="M 55 555 L 65 555 " stroke="black" stroke-width="4"/>
<text text-anchor="end" x="50" y="555" font-size="50" alignment-baseline="middle">0</text>
<path d="M 55 305 L 65 305 " stroke="black" stroke-width="4"/>
<text text-anchor="end" x="50" y="305" font-size="50" alignment-baseline="middle">1</text>
<path d="M 55 55 L 65 55 " stroke="black" stroke-width="4"/>
<text text-anchor="end" x="50" y="55" font-size="50" alignment-baseline="middle">2</text>
<text text-anchor="middle" x="330" y="50" font-size="50" alignment-baseline="baseline"></text>
G<path d="
M 160 582 
L 126 595 
L 160 608 
L 157 611 
L 123 598 
L 123 623 
L 117 623 
L 117 599 
L 83 611 
L 80 608 
L 114 595 
L 80 582 
L 83 579 
L 117 591 
L 117 567 
L 123 567 
L 123 591 
L 157 579 
L 160 582 
" fill="black" />
<path d="
" fill="black" />
<path d="
M 211 567 
L 238 567 
L 238 623 
L 211 623 
L 211 567 
" fill="black" />
<path d="
" fill="black" />
<path d="
" fill="black" />
<path d="
M 316 567 
L 343 567 
L 343 623 
L 316 623 
L 316 567 
" fill="black" />
<path d="
" fill="black" />
<path d="
" fill="black" />
<path d="
M 421 567 
L 448 567 
L 448 623 
L 421 623 
L 421 567 
" fill="black" />
<path d="
" fill="black" />
<path d="
M 580 582 
L 546 595 
L 580 608 
L 577 611 
L 543 598 
L 543 623 
L 537 623 
L 537 599 
L 503 611 
L 500 608 
L 534 595 
L 500 582 
L 503 579 
L 537 591 
L 537 567 
L 543 567 
L 543 591 
L 577 579 
L 580 582 
" fill="black" />
</svg>
