<svg xmlns="http://www.w3.org/2000/svg"
viewBox="0 0 1330 635">
<path d="
M 70 554 
L 88 554 
L 88 555 
Q 88 555 , 96 555 
Q 103 555 , 120 555 
Q 137 555 , 145 555 
Q 152 555 , 152 555 
L 152 554 
L 170 554 
L 170 555 
Q 170 555 , 157 555 
Q 145 555 , 120 555 
Q 96 555 , 83 555 
Q 70 555 , 70 555 
L 70 554 
" fill="#D21010" />
<path d="
M 170 553 
L 170 553 
Q 155 553 , 147 553 
Q 139 553 , 129 553 
Q 108 553 , 98 553 
Q 86 553 , 86 553 
Q 86 554 , 98 554 
Q 108 554 , 129 554 
Q 139 554 , 147 554 
Q 155 554 , 170 554 
L 170 554 
Q 159 554 , 149 554 
Q 139 554 , 128 554 
Q 101 554 , 86 554 
Q 70 554 , 70 553 
Q 70 553 , 86 553 
Q 101 553 , 128 553 
Q 139 553 , 149 553 
Q 160 553 , 170 553 
" fill="#545FFF" />
<path d="
M 120 551 
L 102 552 
L 136 552 
L 120 551 
M 113 551 
L 127 551 
L 170 552 
L 154 552 
L 142 552 
L 98 552 
L 85 552 
L 70 552 
L 113 551 
" fill="#339541" />
<path d="
M 154 550 
L 154 550 
L 125 550 
L 125 550 
L 170 550 
L 170 550 
Q 159 550 , 148 550 
Q 139 550 , 127 550 
Q 101 550 , 85 550 
Q 70 550 , 70 550 
Q 70 549 , 85 549 
Q 101 549 , 127 549 
Q 138 549 , 147 549 
Q 157 549 , 167 549 
L 167 549 
Q 154 549 , 146 549 
Q 137 549 , 128 549 
Q 107 549 , 96 549 
Q 86 549 , 86 550 
Q 86 550 , 96 550 
Q 107 550 , 128 550 
Q 137 550 , 144 550 
Q 151 550 , 154 550 
" fill="#F5C000" />
<path d="
M 175 543 
L 193 543 
L 193 550 
Q 193 552 , 201 553 
Q 208 553 , 225 553 
Q 242 553 , 250 553 
Q 257 552 , 257 550 
L 257 543 
L 275 543 
L 275 550 
Q 275 552 , 262 553 
Q 250 555 , 225 555 
Q 201 555 , 188 553 
Q 175 552 , 175 550 
L 175 543 
" fill="#D21010" />
<path d="
M 225 528 
L 207 535 
L 241 535 
L 225 528 
M 218 525 
L 232 525 
L 275 542 
L 259 542 
L 247 537 
L 203 537 
L 190 542 
L 175 542 
L 218 525 
" fill="#339541" />
<path d="
M 275 507 
L 275 510 
Q 260 508 , 252 508 
Q 244 507 , 234 507 
Q 213 507 , 203 509 
Q 191 511 , 191 514 
Q 191 518 , 203 520 
Q 213 522 , 234 522 
Q 244 522 , 252 521 
Q 260 521 , 275 519 
L 275 522 
Q 264 523 , 254 524 
Q 244 524 , 233 524 
Q 206 524 , 191 521 
Q 175 519 , 175 515 
Q 175 510 , 191 508 
Q 206 505 , 233 505 
Q 244 505 , 254 505 
Q 265 506 , 275 507 
" fill="#545FFF" />
<path d="
M 259 490 
L 259 462 
L 230 462 
L 230 451 
L 275 451 
L 275 497 
Q 264 501 , 253 503 
Q 244 504 , 232 505 
Q 206 505 , 190 491 
Q 175 477 , 175 453 
Q 175 429 , 190 415 
Q 206 401 , 232 401 
Q 243 401 , 252 403 
Q 262 405 , 272 409 
L 272 423 
Q 259 417 , 251 415 
Q 242 413 , 233 413 
Q 212 413 , 201 423 
Q 191 433 , 191 453 
Q 191 473 , 201 483 
Q 212 493 , 233 493 
Q 242 493 , 249 492 
Q 256 491 , 259 490 
" fill="#F5C000" />
<path d="
M 280 550 
L 298 550 
L 298 553 
Q 298 553 , 306 554 
Q 313 554 , 330 554 
Q 347 554 , 355 554 
Q 362 553 , 362 553 
L 362 550 
L 380 550 
L 380 553 
Q 380 554 , 367 554 
Q 355 555 , 330 555 
Q 306 555 , 293 554 
Q 280 554 , 280 553 
L 280 550 
" fill="#D21010" />
<path d="
M 380 542 
L 380 543 
Q 365 542 , 357 542 
Q 349 542 , 339 542 
Q 318 542 , 308 543 
Q 296 544 , 296 545 
Q 296 547 , 308 548 
Q 318 549 , 339 549 
Q 349 549 , 357 549 
Q 365 548 , 380 548 
L 380 549 
Q 369 549 , 359 550 
Q 349 550 , 338 550 
Q 311 550 , 296 549 
Q 280 547 , 280 545 
Q 280 543 , 296 542 
Q 311 541 , 338 541 
Q 349 541 , 359 541 
Q 370 541 , 380 542 
" fill="#545FFF" />
<path d="
M 330 494 
L 312 517 
L 346 517 
L 330 494 
M 323 483 
L 337 483 
L 380 540 
L 364 540 
L 352 524 
L 308 524 
L 295 540 
L 280 540 
L 323 483 
" fill="#339541" />
<path d="
M 364 473 
L 364 455 
L 335 455 
L 335 447 
L 380 447 
L 380 477 
Q 369 480 , 358 481 
Q 349 482 , 337 483 
Q 311 483 , 295 474 
Q 280 465 , 280 449 
Q 280 433 , 295 424 
Q 311 415 , 337 415 
Q 348 415 , 357 416 
Q 367 417 , 377 420 
L 377 429 
Q 364 425 , 356 424 
Q 347 423 , 338 423 
Q 317 423 , 306 429 
Q 296 436 , 296 449 
Q 296 462 , 306 469 
Q 317 475 , 338 475 
Q 347 475 , 354 474 
Q 361 474 , 364 473 
" fill="#F5C000" />
<path d="
M 485 550 
L 485 550 
Q 470 550 , 462 550 
Q 454 550 , 444 550 
Q 423 550 , 413 550 
Q 401 551 , 401 552 
Q 401 553 , 413 553 
Q 423 554 , 444 554 
Q 454 554 , 462 554 
Q 470 554 , 485 553 
L 485 554 
Q 474 554 , 464 555 
Q 454 555 , 443 555 
Q 416 555 , 401 554 
Q 385 553 , 385 552 
Q 385 551 , 401 550 
Q 416 549 , 443 549 
Q 454 549 , 464 549 
Q 475 549 , 485 550 
" fill="#545FFF" />
<path d="
M 469 546 
L 469 541 
L 440 541 
L 440 540 
L 485 540 
L 485 547 
Q 474 547 , 463 548 
Q 454 548 , 442 548 
Q 416 548 , 400 546 
Q 385 544 , 385 540 
Q 385 536 , 400 534 
Q 416 532 , 442 532 
Q 453 532 , 462 532 
Q 472 533 , 482 533 
L 482 535 
Q 469 534 , 461 534 
Q 452 534 , 443 534 
Q 422 534 , 411 535 
Q 401 537 , 401 540 
Q 401 543 , 411 545 
Q 422 546 , 443 546 
Q 452 546 , 459 546 
Q 466 546 , 469 546 
" fill="#F5C000" />
<path d="
M 385 498 
L 403 498 
L 403 518 
Q 403 523 , 411 525 
Q 418 527 , 435 527 
Q 452 527 , 460 525 
Q 467 523 , 467 518 
L 467 498 
L 485 498 
L 485 518 
Q 485 524 , 472 528 
Q 460 531 , 435 531 
Q 411 531 , 398 528 
Q 385 524 , 385 518 
L 385 498 
" fill="#D21010" />
<path d="
M 435 388 
L 417 443 
L 451 443 
L 435 388 
M 428 364 
L 442 364 
L 485 497 
L 469 497 
L 457 458 
L 413 458 
L 400 497 
L 385 497 
L 428 364 
" fill="#339541" />
<path d="
M 490 549 
L 508 549 
L 508 552 
Q 508 553 , 516 553 
Q 523 554 , 540 554 
Q 557 554 , 565 553 
Q 572 553 , 572 552 
L 572 549 
L 590 549 
L 590 552 
Q 590 553 , 577 554 
Q 565 554 , 540 554 
Q 516 554 , 503 554 
Q 490 553 , 490 552 
L 490 549 
" fill="#D21010" />
<path d="
M 590 535 
L 590 537 
Q 575 536 , 567 535 
Q 559 535 , 549 535 
Q 528 535 , 518 536 
Q 506 538 , 506 541 
Q 506 544 , 518 546 
Q 528 547 , 549 547 
Q 559 547 , 567 547 
Q 575 546 , 590 545 
L 590 547 
Q 579 548 , 569 548 
Q 559 549 , 548 549 
Q 521 549 , 506 547 
Q 490 544 , 490 541 
Q 490 537 , 506 535 
Q 521 533 , 548 533 
Q 559 533 , 569 533 
Q 580 534 , 590 535 
" fill="#545FFF" />
<path d="
M 540 504 
L 522 518 
L 556 518 
L 540 504 
M 533 498 
L 547 498 
L 590 532 
L 574 532 
L 562 522 
L 518 522 
L 505 532 
L 490 532 
L 533 498 
" fill="#339541" />
<path d="
M 574 478 
L 574 441 
L 545 441 
L 545 426 
L 590 426 
L 590 487 
Q 579 493 , 568 495 
Q 559 498 , 547 498 
Q 521 498 , 505 479 
Q 490 461 , 490 429 
Q 490 398 , 505 379 
Q 521 361 , 547 361 
Q 558 361 , 567 363 
Q 577 366 , 587 372 
L 587 390 
Q 574 382 , 566 380 
Q 557 377 , 548 377 
Q 527 377 , 516 390 
Q 506 403 , 506 429 
Q 506 456 , 516 470 
Q 527 483 , 548 483 
Q 557 483 , 564 481 
Q 571 480 , 574 478 
" fill="#F5C000" />
<path d="
M 595 553 
L 613 553 
L 613 554 
Q 613 554 , 621 555 
Q 628 555 , 645 555 
Q 662 555 , 670 555 
Q 677 554 , 677 554 
L 677 553 
L 695 553 
L 695 554 
Q 695 554 , 682 555 
Q 670 555 , 645 555 
Q 621 555 , 608 555 
Q 595 554 , 595 554 
L 595 553 
" fill="#D21010" />
<path d="
M 695 534 
L 695 537 
Q 680 535 , 672 535 
Q 664 534 , 654 534 
Q 633 534 , 623 536 
Q 611 538 , 611 542 
Q 611 546 , 623 548 
Q 633 550 , 654 550 
Q 664 550 , 672 550 
Q 680 549 , 695 547 
L 695 551 
Q 684 552 , 674 552 
Q 664 553 , 653 553 
Q 626 553 , 611 550 
Q 595 547 , 595 542 
Q 595 538 , 611 535 
Q 626 532 , 653 532 
Q 664 532 , 674 533 
Q 685 533 , 695 534 
" fill="#545FFF" />
<path d="
M 679 528 
L 679 521 
L 650 521 
L 650 519 
L 695 519 
L 695 529 
Q 684 530 , 673 531 
Q 664 531 , 652 531 
Q 626 531 , 610 528 
Q 595 525 , 595 519 
Q 595 513 , 610 510 
Q 626 507 , 652 507 
Q 663 507 , 672 507 
Q 682 508 , 692 509 
L 692 512 
Q 679 511 , 671 510 
Q 662 510 , 653 510 
Q 632 510 , 621 512 
Q 611 514 , 611 519 
Q 611 524 , 621 526 
Q 632 528 , 653 528 
Q 662 528 , 669 528 
Q 676 528 , 679 528 
" fill="#F5C000" />
<path d="
M 645 486 
L 627 496 
L 661 496 
L 645 486 
M 638 481 
L 652 481 
L 695 507 
L 679 507 
L 667 499 
L 623 499 
L 610 507 
L 595 507 
L 638 481 
" fill="#339541" />
<path d="
M 800 551 
L 800 552 
Q 785 552 , 777 552 
Q 769 551 , 759 551 
Q 738 551 , 728 552 
Q 716 552 , 716 553 
Q 716 554 , 728 554 
Q 738 555 , 759 555 
Q 769 555 , 777 554 
Q 785 554 , 800 554 
L 800 555 
Q 789 555 , 779 555 
Q 769 555 , 758 555 
Q 731 555 , 716 554 
Q 700 554 , 700 553 
Q 700 552 , 716 552 
Q 731 551 , 758 551 
Q 769 551 , 779 551 
Q 790 551 , 800 551 
" fill="#545FFF" />
<path d="
M 784 549 
L 784 545 
L 755 545 
L 755 544 
L 800 544 
L 800 550 
Q 789 550 , 778 550 
Q 769 550 , 757 550 
Q 731 550 , 715 549 
Q 700 547 , 700 544 
Q 700 541 , 715 540 
Q 731 538 , 757 538 
Q 768 538 , 777 538 
Q 787 538 , 797 539 
L 797 541 
Q 784 540 , 776 540 
Q 767 539 , 758 539 
Q 737 539 , 726 541 
Q 716 542 , 716 544 
Q 716 547 , 726 548 
Q 737 549 , 758 549 
Q 767 549 , 774 549 
Q 781 549 , 784 549 
" fill="#F5C000" />
<path d="
M 700 501 
L 718 501 
L 718 522 
Q 718 528 , 726 531 
Q 733 533 , 750 533 
Q 767 533 , 775 531 
Q 782 528 , 782 522 
L 782 501 
L 800 501 
L 800 523 
Q 800 530 , 787 533 
Q 775 537 , 750 537 
Q 726 537 , 713 533 
Q 700 530 , 700 523 
L 700 501 
" fill="#D21010" />
<path d="
M 750 462 
L 732 481 
L 766 481 
L 750 462 
M 743 453 
L 757 453 
L 800 500 
L 784 500 
L 772 486 
L 728 486 
L 715 500 
L 700 500 
L 743 453 
" fill="#339541" />
<path d="
M 805 549 
L 823 549 
L 823 552 
Q 823 553 , 831 553 
Q 838 554 , 855 554 
Q 872 554 , 880 553 
Q 887 553 , 887 552 
L 887 549 
L 905 549 
L 905 552 
Q 905 553 , 892 554 
Q 880 554 , 855 554 
Q 831 554 , 818 554 
Q 805 553 , 805 552 
L 805 549 
" fill="#D21010" />
<path d="
M 905 537 
L 905 539 
Q 890 538 , 882 538 
Q 874 537 , 864 537 
Q 843 537 , 833 539 
Q 821 540 , 821 542 
Q 821 545 , 833 546 
Q 843 547 , 864 547 
Q 874 547 , 882 547 
Q 890 547 , 905 545 
L 905 547 
Q 894 548 , 884 548 
Q 874 549 , 863 549 
Q 836 549 , 821 547 
Q 805 545 , 805 542 
Q 805 539 , 821 538 
Q 836 536 , 863 536 
Q 874 536 , 884 536 
Q 895 537 , 905 537 
" fill="#545FFF" />
<path d="
M 855 519 
L 837 527 
L 871 527 
L 855 519 
M 848 515 
L 862 515 
L 905 535 
L 889 535 
L 877 529 
L 833 529 
L 820 535 
L 805 535 
L 848 515 
" fill="#339541" />
<path d="
M 889 473 
L 889 395 
L 860 395 
L 860 363 
L 905 363 
L 905 493 
Q 894 505 , 883 510 
Q 874 515 , 862 515 
Q 836 515 , 820 476 
Q 805 437 , 805 369 
Q 805 301 , 820 262 
Q 836 223 , 862 223 
Q 873 223 , 882 228 
Q 892 233 , 902 247 
L 902 284 
Q 889 267 , 881 263 
Q 872 258 , 863 258 
Q 842 258 , 831 285 
Q 821 313 , 821 369 
Q 821 426 , 831 455 
Q 842 482 , 863 482 
Q 872 482 , 879 480 
Q 886 477 , 889 473 
" fill="#F5C000" />
<path d="
M 910 551 
L 928 551 
L 928 553 
Q 928 553 , 936 553 
Q 943 554 , 960 554 
Q 977 554 , 985 553 
Q 992 553 , 992 553 
L 992 551 
L 1010 551 
L 1010 553 
Q 1010 553 , 997 554 
Q 985 554 , 960 554 
Q 936 554 , 923 554 
Q 910 553 , 910 553 
L 910 551 
" fill="#D21010" />
<path d="
M 1010 544 
L 1010 545 
Q 995 544 , 987 544 
Q 979 544 , 969 544 
Q 948 544 , 938 545 
Q 926 545 , 926 546 
Q 926 548 , 938 549 
Q 948 550 , 969 550 
Q 979 550 , 987 550 
Q 995 550 , 1010 549 
L 1010 550 
Q 999 550 , 989 551 
Q 979 551 , 968 551 
Q 941 551 , 926 550 
Q 910 549 , 910 547 
Q 910 545 , 926 544 
Q 941 543 , 968 543 
Q 979 543 , 989 543 
Q 1000 543 , 1010 544 
" fill="#545FFF" />
<path d="
M 994 533 
L 994 516 
L 965 516 
L 965 509 
L 1010 509 
L 1010 538 
Q 999 540 , 988 541 
Q 979 542 , 967 543 
Q 941 543 , 925 534 
Q 910 525 , 910 510 
Q 910 495 , 925 487 
Q 941 478 , 967 478 
Q 978 478 , 987 479 
Q 997 480 , 1007 483 
L 1007 491 
Q 994 488 , 986 487 
Q 977 486 , 968 486 
Q 947 486 , 936 492 
Q 926 498 , 926 510 
Q 926 523 , 936 529 
Q 947 535 , 968 535 
Q 977 535 , 984 535 
Q 991 534 , 994 533 
" fill="#F5C000" />
<path d="
M 960 393 
L 942 435 
L 976 435 
L 960 393 
M 953 374 
L 967 374 
L 1010 478 
L 994 478 
L 982 447 
L 938 447 
L 925 478 
L 910 478 
L 953 374 
" fill="#339541" />
<path d="
M 1115 549 
L 1115 550 
Q 1100 549 , 1092 549 
Q 1084 549 , 1074 549 
Q 1053 549 , 1043 549 
Q 1031 550 , 1031 551 
Q 1031 553 , 1043 553 
Q 1053 554 , 1074 554 
Q 1084 554 , 1092 554 
Q 1100 554 , 1115 553 
L 1115 554 
Q 1104 555 , 1094 555 
Q 1084 555 , 1073 555 
Q 1046 555 , 1031 554 
Q 1015 553 , 1015 551 
Q 1015 550 , 1031 549 
Q 1046 548 , 1073 548 
Q 1084 548 , 1094 548 
Q 1105 548 , 1115 549 
" fill="#545FFF" />
<path d="
M 1099 546 
L 1099 544 
L 1070 544 
L 1070 542 
L 1115 542 
L 1115 547 
Q 1104 547 , 1093 547 
Q 1084 547 , 1072 547 
Q 1046 547 , 1030 546 
Q 1015 545 , 1015 543 
Q 1015 540 , 1030 539 
Q 1046 538 , 1072 538 
Q 1083 538 , 1092 538 
Q 1102 538 , 1112 539 
L 1112 540 
Q 1099 539 , 1091 539 
Q 1082 539 , 1073 539 
Q 1052 539 , 1041 540 
Q 1031 541 , 1031 543 
Q 1031 545 , 1041 545 
Q 1052 546 , 1073 546 
Q 1082 546 , 1089 546 
Q 1096 546 , 1099 546 
" fill="#F5C000" />
<path d="
M 1015 519 
L 1033 519 
L 1033 530 
Q 1033 533 , 1041 534 
Q 1048 535 , 1065 535 
Q 1082 535 , 1090 534 
Q 1097 533 , 1097 530 
L 1097 519 
L 1115 519 
L 1115 530 
Q 1115 534 , 1102 535 
Q 1090 537 , 1065 537 
Q 1041 537 , 1028 535 
Q 1015 534 , 1015 530 
L 1015 519 
" fill="#D21010" />
<path d="
M 1065 489 
L 1047 504 
L 1081 504 
L 1065 489 
M 1058 483 
L 1072 483 
L 1115 518 
L 1099 518 
L 1087 508 
L 1043 508 
L 1030 518 
L 1015 518 
L 1058 483 
" fill="#339541" />
<path d="
M 1120 549 
L 1138 549 
L 1138 552 
Q 1138 553 , 1146 553 
Q 1153 554 , 1170 554 
Q 1187 554 , 1195 553 
Q 1202 553 , 1202 552 
L 1202 549 
L 1220 549 
L 1220 552 
Q 1220 553 , 1207 554 
Q 1195 554 , 1170 554 
Q 1146 554 , 1133 554 
Q 1120 553 , 1120 552 
L 1120 549 
" fill="#D21010" />
<path d="
M 1170 533 
L 1152 541 
L 1186 541 
L 1170 533 
M 1163 530 
L 1177 530 
L 1220 548 
L 1204 548 
L 1192 543 
L 1148 543 
L 1135 548 
L 1120 548 
L 1163 530 
" fill="#339541" />
<path d="
M 1220 510 
L 1220 514 
Q 1205 512 , 1197 511 
Q 1189 510 , 1179 510 
Q 1158 510 , 1148 513 
Q 1136 515 , 1136 519 
Q 1136 523 , 1148 525 
Q 1158 528 , 1179 528 
Q 1189 528 , 1197 527 
Q 1205 526 , 1220 524 
L 1220 528 
Q 1209 529 , 1199 529 
Q 1189 530 , 1178 530 
Q 1151 530 , 1136 527 
Q 1120 524 , 1120 519 
Q 1120 514 , 1136 511 
Q 1151 508 , 1178 508 
Q 1189 508 , 1199 509 
Q 1210 509 , 1220 510 
" fill="#545FFF" />
<path d="
M 1204 498 
L 1204 481 
L 1175 481 
L 1175 474 
L 1220 474 
L 1220 503 
Q 1209 505 , 1198 506 
Q 1189 507 , 1177 507 
Q 1151 507 , 1135 499 
Q 1120 491 , 1120 476 
Q 1120 461 , 1135 453 
Q 1151 444 , 1177 444 
Q 1188 444 , 1197 445 
Q 1207 446 , 1217 449 
L 1217 457 
Q 1204 454 , 1196 453 
Q 1187 452 , 1178 452 
Q 1157 452 , 1146 457 
Q 1136 463 , 1136 476 
Q 1136 488 , 1146 494 
Q 1157 500 , 1178 500 
Q 1187 500 , 1194 500 
Q 1201 499 , 1204 498 
" fill="#F5C000" />
<path d="
M 1225 554 
L 1243 554 
L 1243 555 
Q 1243 555 , 1251 555 
Q 1258 555 , 1275 555 
Q 1292 555 , 1300 555 
Q 1307 555 , 1307 555 
L 1307 554 
L 1325 554 
L 1325 555 
Q 1325 555 , 1312 555 
Q 1300 555 , 1275 555 
Q 1251 555 , 1238 555 
Q 1225 555 , 1225 555 
L 1225 554 
" fill="#D21010" />
<path d="
M 1325 553 
L 1325 553 
Q 1310 553 , 1302 553 
Q 1294 553 , 1284 553 
Q 1263 553 , 1253 553 
Q 1241 553 , 1241 553 
Q 1241 554 , 1253 554 
Q 1263 554 , 1284 554 
Q 1294 554 , 1302 554 
Q 1310 554 , 1325 554 
L 1325 554 
Q 1314 554 , 1304 554 
Q 1294 554 , 1283 554 
Q 1256 554 , 1241 554 
Q 1225 554 , 1225 553 
Q 1225 553 , 1241 553 
Q 1256 553 , 1283 553 
Q 1294 553 , 1304 553 
Q 1315 553 , 1325 553 
" fill="#545FFF" />
<path d="
M 1275 551 
L 1257 552 
L 1291 552 
L 1275 551 
M 1268 551 
L 1282 551 
L 1325 552 
L 1309 552 
L 1297 552 
L 1253 552 
L 1240 552 
L 1225 552 
L 1268 551 
" fill="#339541" />
<path d="
M 1309 550 
L 1309 550 
L 1280 550 
L 1280 550 
L 1325 550 
L 1325 550 
Q 1314 550 , 1303 550 
Q 1294 550 , 1282 550 
Q 1256 550 , 1240 550 
Q 1225 550 , 1225 550 
Q 1225 549 , 1240 549 
Q 1256 549 , 1282 549 
Q 1293 549 , 1302 549 
Q 1312 549 , 1322 549 
L 1322 549 
Q 1309 549 , 1301 549 
Q 1292 549 , 1283 549 
Q 1262 549 , 1251 549 
Q 1241 549 , 1241 550 
Q 1241 550 , 1251 550 
Q 1262 550 , 1283 550 
Q 1292 550 , 1299 550 
Q 1306 550 , 1309 550 
" fill="#F5C000" />
<path d="M 65 55 L 65 555 " stroke="black" stroke-width="1.5"/>
<path d="M 55 555 L 65 555 " stroke="black" stroke-width="4"/>
<text text-anchor="end" x="50" y="555" font-size="50" alignment-baseline="middle">0</text>
<path d="M 55 305 L 65 305 " stroke="black" stroke-width="4"/>
<text text-anchor="end" x="50" y="305" font-size="50" alignment-baseline="middle">1</text>
<path d="M 55 55 L 65 55 " stroke="black" stroke-width="4"/>
<text text-anchor="end" x="50" y="55" font-size="50" alignment-baseline="middle">2</text>
<text text-anchor="middle" x="697" y="50" font-size="50" alignment-baseline="baseline"></text>
G<path d="
M 160 582 
L 126 595 
L 160 608 
L 157 611 
L 123 598 
L 123 623 
L 117 623 
L 117 599 
L 83 611 
L 80 608 
L 114 595 
L 80 582 
L 83 579 
L 117 591 
L 117 567 
L 123 567 
L 123 591 
L 157 579 
L 160 582 
" fill="black" />
<path d="
" fill="black" />
<path d="
M 211 567 
L 238 567 
L 238 623 
L 211 623 
L 211 567 
" fill="black" />
<path d="
" fill="black" />
<path d="
" fill="black" />
<path d="
M 316 567 
L 343 567 
L 343 623 
L 316 623 
L 316 567 
" fill="black" />
<path d="
" fill="black" />
<path d="
" fill="black" />
<path d="
M 421 567 
L 448 567 
L 448 623 
L 421 623 
L 421 567 
" fill="black" />
<path d="
" fill="black" />
<path d="
" fill="black" />
<path d="
M 526 567 
L 553 567 
L 553 623 
L 526 623 
L 526 567 
" fill="black" />
<path d="
" fill="black" />
<path d="
" fill="black" />
<path d="
M 631 567 
L 658 567 
L 658 623 
L 631 623 
L 631 567 
" fill="black" />
<path d="
" fill="black" />
<path d="
" fill="black" />
<path d="
M 736 567 
L 763 567 
L 763 623 
L 736 623 
L 736 567 
" fill="black" />
<path d="
" fill="black" />
<path d="
" fill="black" />
<path d="
M 841 567 
L 868 567 
L 868 623 
L 841 623 
L 841 567 
" fill="black" />
<path d="
" fill="black" />
<path d="
" fill="black" />
<path d="
M 946 567 
L 973 567 
L 973 623 
L 946 623 
L 946 567 
" fill="black" />
<path d="
" fill="black" />
<path d="
" fill="black" />
<path d="
M 1051 567 
L 1078 567 
L 1078 623 
L 1051 623 
L 1051 567 
" fill="black" />
<path d="
" fill="black" />
<path d="
" fill="black" />
<path d="
M 1156 567 
L 1183 567 
L 1183 623 
L 1156 623 
L 1156 567 
" fill="black" />
<path d="
" fill="black" />
<path d="
M 1315 582 
L 1281 595 
L 1315 608 
L 1312 611 
L 1278 598 
L 1278 623 
L 1272 623 
L 1272 599 
L 1238 611 
L 1235 608 
L 1269 595 
L 1235 582 
L 1238 579 
L 1272 591 
L 1272 567 
L 1278 567 
L 1278 591 
L 1312 579 
L 1315 582 
" fill="black" />
</svg>
