<svg xmlns="http://www.w3.org/2000/svg"
viewBox="0 0 1435 635">
<path d="
M 120 554 
L 102 554 
L 136 554 
L 120 554 
M 113 554 
L 127 554 
L 170 555 
L 154 555 
L 142 554 
L 98 554 
L 85 555 
L 70 555 
L 113 554 
" fill="#339541" />
<path d="
M 70 553 
L 88 553 
L 88 553 
Q 88 554 , 96 554 
Q 103 554 , 120 554 
Q 137 554 , 145 554 
Q 152 554 , 152 553 
L 152 553 
L 170 553 
L 170 553 
Q 170 554 , 157 554 
Q 145 554 , 120 554 
Q 96 554 , 83 554 
Q 70 554 , 70 553 
L 70 553 
" fill="#D21010" />
<path d="
M 170 552 
L 170 552 
Q 155 552 , 147 552 
Q 139 552 , 129 552 
Q 108 552 , 98 552 
Q 86 552 , 86 552 
Q 86 553 , 98 553 
Q 108 553 , 129 553 
Q 139 553 , 147 553 
Q 155 553 , 170 553 
L 170 553 
Q 159 553 , 149 553 
Q 139 553 , 128 553 
Q 101 553 , 86 553 
Q 70 553 , 70 552 
Q 70 552 , 86 552 
Q 101 552 , 128 552 
Q 139 552 , 149 552 
Q 160 552 , 170 552 
" fill="#545FFF" />
<path d="
M 154 552 
L 154 552 
L 125 552 
L 125 551 
L 170 551 
L 170 552 
Q 159 552 , 148 552 
Q 139 552 , 127 552 
Q 101 552 , 85 552 
Q 70 552 , 70 551 
Q 70 551 , 85 551 
Q 101 551 , 127 551 
Q 138 551 , 147 551 
Q 157 551 , 167 551 
L 167 551 
Q 154 551 , 146 551 
Q 137 551 , 128 551 
Q 107 551 , 96 551 
Q 86 551 , 86 551 
Q 86 552 , 96 552 
Q 107 552 , 128 552 
Q 137 552 , 144 552 
Q 151 552 , 154 552 
" fill="#F5C000" />
<path d="
M 217 554 
L 217 554 
L 203 554 
L 203 553 
L 225 553 
L 225 555 
Q 220 555 , 214 555 
Q 209 555 , 203 555 
Q 190 555 , 183 554 
Q 175 554 , 175 553 
Q 175 553 , 183 552 
Q 190 552 , 203 552 
Q 209 552 , 214 552 
Q 219 552 , 224 552 
L 224 553 
Q 217 552 , 213 552 
Q 209 552 , 204 552 
Q 194 552 , 188 553 
Q 183 553 , 183 553 
Q 183 554 , 188 554 
Q 194 555 , 204 555 
Q 209 555 , 212 555 
Q 216 554 , 217 554 
" fill="#F5C000" />
<path d="
M 225 552 
L 234 552 
L 234 554 
Q 234 554 , 238 554 
Q 241 555 , 250 555 
Q 259 555 , 262 554 
Q 266 554 , 266 554 
L 266 552 
L 275 552 
L 275 554 
Q 275 554 , 269 555 
Q 262 555 , 250 555 
Q 238 555 , 231 555 
Q 225 554 , 225 554 
L 225 552 
" fill="lightgray" />
<path d="
M 175 548 
L 184 548 
L 184 550 
Q 184 551 , 188 551 
Q 191 551 , 200 551 
Q 209 551 , 212 551 
Q 216 551 , 216 550 
L 216 548 
L 225 548 
L 225 550 
Q 225 551 , 219 551 
Q 212 551 , 200 551 
Q 188 551 , 181 551 
Q 175 551 , 175 550 
L 175 548 
" fill="#D21010" />
<path d="
M 267 551 
L 267 550 
L 253 550 
L 253 550 
L 275 550 
L 275 551 
Q 270 551 , 264 551 
Q 259 551 , 253 551 
Q 240 551 , 233 551 
Q 225 551 , 225 550 
Q 225 549 , 233 548 
Q 240 548 , 253 548 
Q 259 548 , 264 548 
Q 269 548 , 274 548 
L 274 549 
Q 267 549 , 263 548 
Q 259 548 , 254 548 
Q 244 548 , 238 549 
Q 233 549 , 233 550 
Q 233 550 , 238 551 
Q 244 551 , 254 551 
Q 259 551 , 262 551 
Q 266 551 , 267 551 
" fill="lightgray" />
<path d="
M 200 545 
L 191 546 
L 208 546 
L 200 545 
M 196 544 
L 204 544 
L 225 548 
L 217 548 
L 211 547 
L 189 547 
L 182 548 
L 175 548 
L 196 544 
" fill="#339541" />
<path d="
M 225 544 
L 234 544 
L 234 546 
Q 234 547 , 238 547 
Q 241 548 , 250 548 
Q 259 548 , 262 547 
Q 266 547 , 266 546 
L 266 544 
L 275 544 
L 275 546 
Q 275 547 , 269 548 
Q 262 548 , 250 548 
Q 238 548 , 231 548 
Q 225 547 , 225 546 
L 225 544 
" fill="lightgray" />
<path d="
M 175 538 
L 184 538 
L 184 541 
Q 184 542 , 188 542 
Q 191 543 , 200 543 
Q 209 543 , 212 542 
Q 216 542 , 216 541 
L 216 538 
L 225 538 
L 225 541 
Q 225 542 , 219 543 
Q 212 543 , 200 543 
Q 188 543 , 181 543 
Q 175 542 , 175 541 
L 175 538 
" fill="#D21010" />
<path d="
M 250 539 
L 241 541 
L 258 541 
L 250 539 
M 246 538 
L 254 538 
L 275 543 
L 267 543 
L 261 542 
L 239 542 
L 232 543 
L 225 543 
L 246 538 
" fill="lightgray" />
<path d="
M 225 532 
L 225 533 
Q 218 532 , 214 532 
Q 209 532 , 204 532 
Q 194 532 , 189 532 
Q 183 533 , 183 534 
Q 183 536 , 189 536 
Q 194 537 , 204 537 
Q 209 537 , 214 537 
Q 218 537 , 225 536 
L 225 537 
Q 220 538 , 214 538 
Q 210 538 , 204 538 
Q 190 538 , 183 537 
Q 175 536 , 175 534 
Q 175 533 , 183 532 
Q 190 531 , 204 531 
Q 210 531 , 215 531 
Q 220 531 , 225 532 
" fill="#545FFF" />
<path d="
M 267 537 
L 267 535 
L 253 535 
L 253 534 
L 275 534 
L 275 537 
Q 270 538 , 264 538 
Q 259 538 , 253 538 
Q 240 538 , 233 537 
Q 225 536 , 225 534 
Q 225 533 , 233 532 
Q 240 531 , 253 531 
Q 259 531 , 264 531 
Q 269 531 , 274 532 
L 274 532 
Q 267 532 , 263 532 
Q 259 532 , 254 532 
Q 244 532 , 238 532 
Q 233 533 , 233 534 
Q 233 536 , 238 536 
Q 244 537 , 254 537 
Q 259 537 , 262 537 
Q 266 537 , 267 537 
" fill="lightgray" />
<path d="
M 217 529 
L 217 526 
L 203 526 
L 203 525 
L 225 525 
L 225 530 
Q 220 530 , 214 530 
Q 209 531 , 203 531 
Q 190 531 , 183 529 
Q 175 528 , 175 525 
Q 175 522 , 183 521 
Q 190 519 , 203 519 
Q 209 519 , 214 519 
Q 219 519 , 224 520 
L 224 521 
Q 217 521 , 213 521 
Q 209 520 , 204 520 
Q 194 520 , 188 521 
Q 183 523 , 183 525 
Q 183 527 , 188 528 
Q 194 529 , 204 529 
Q 209 529 , 212 529 
Q 216 529 , 217 529 
" fill="#F5C000" />
<path d="
M 275 520 
L 275 522 
Q 268 521 , 264 521 
Q 259 520 , 254 520 
Q 244 520 , 239 521 
Q 233 523 , 233 525 
Q 233 527 , 239 528 
Q 244 529 , 254 529 
Q 259 529 , 264 529 
Q 268 529 , 275 528 
L 275 529 
Q 270 530 , 264 530 
Q 260 531 , 254 531 
Q 240 531 , 233 529 
Q 225 528 , 225 525 
Q 225 522 , 233 521 
Q 240 519 , 254 519 
Q 260 519 , 265 519 
Q 270 520 , 275 520 
" fill="lightgray" />
<path d="
M 280 551 
L 289 551 
L 289 553 
Q 289 554 , 293 554 
Q 296 554 , 305 554 
Q 314 554 , 317 554 
Q 321 554 , 321 553 
L 321 551 
L 330 551 
L 330 553 
Q 330 554 , 324 555 
Q 317 555 , 305 555 
Q 293 555 , 286 555 
Q 280 554 , 280 553 
L 280 551 
" fill="#D21010" />
<path d="
M 372 554 
L 372 553 
L 358 553 
L 358 553 
L 380 553 
L 380 555 
Q 375 555 , 369 555 
Q 364 555 , 358 555 
Q 345 555 , 338 554 
Q 330 554 , 330 553 
Q 330 552 , 338 552 
Q 345 551 , 358 551 
Q 364 551 , 369 551 
Q 374 551 , 379 551 
L 379 552 
Q 372 552 , 368 552 
Q 364 551 , 359 551 
Q 349 551 , 343 552 
Q 338 552 , 338 553 
Q 338 554 , 343 554 
Q 349 554 , 359 554 
Q 364 554 , 367 554 
Q 371 554 , 372 554 
" fill="lightgray" />
<path d="
M 322 550 
L 322 549 
L 308 549 
L 308 548 
L 330 548 
L 330 551 
Q 325 551 , 319 551 
Q 314 551 , 308 551 
Q 295 551 , 288 550 
Q 280 549 , 280 548 
Q 280 547 , 288 546 
Q 295 545 , 308 545 
Q 314 545 , 319 545 
Q 324 545 , 329 545 
L 329 546 
Q 322 546 , 318 546 
Q 314 546 , 309 546 
Q 299 546 , 293 546 
Q 288 547 , 288 548 
Q 288 549 , 293 550 
Q 299 550 , 309 550 
Q 314 550 , 317 550 
Q 321 550 , 322 550 
" fill="#F5C000" />
<path d="
M 330 545 
L 339 545 
L 339 549 
Q 339 550 , 343 550 
Q 346 550 , 355 550 
Q 364 550 , 367 550 
Q 371 550 , 371 549 
L 371 545 
L 380 545 
L 380 549 
Q 380 550 , 374 550 
Q 367 551 , 355 551 
Q 343 551 , 336 550 
Q 330 550 , 330 549 
L 330 545 
" fill="lightgray" />
<path d="
M 280 537 
L 289 537 
L 289 541 
Q 289 543 , 293 543 
Q 296 544 , 305 544 
Q 314 544 , 317 543 
Q 321 543 , 321 541 
L 321 537 
L 330 537 
L 330 542 
Q 330 543 , 324 544 
Q 317 544 , 305 544 
Q 293 544 , 286 544 
Q 280 543 , 280 542 
L 280 537 
" fill="#D21010" />
<path d="
M 355 538 
L 346 541 
L 363 541 
L 355 538 
M 351 537 
L 359 537 
L 380 544 
L 372 544 
L 366 542 
L 344 542 
L 337 544 
L 330 544 
L 351 537 
" fill="lightgray" />
<path d="
M 305 526 
L 296 532 
L 313 532 
L 305 526 
M 301 524 
L 309 524 
L 330 537 
L 322 537 
L 316 533 
L 294 533 
L 287 537 
L 280 537 
L 301 524 
" fill="#339541" />
<path d="
M 330 524 
L 339 524 
L 339 532 
Q 339 534 , 343 535 
Q 346 535 , 355 535 
Q 364 535 , 367 535 
Q 371 534 , 371 532 
L 371 524 
L 380 524 
L 380 532 
Q 380 534 , 374 536 
Q 367 537 , 355 537 
Q 343 537 , 336 536 
Q 330 534 , 330 532 
L 330 524 
" fill="lightgray" />
<path d="
M 322 522 
L 322 518 
L 308 518 
L 308 516 
L 330 516 
L 330 523 
Q 325 523 , 319 523 
Q 314 524 , 308 524 
Q 295 524 , 288 522 
Q 280 520 , 280 516 
Q 280 513 , 288 511 
Q 295 509 , 308 509 
Q 314 509 , 319 509 
Q 324 510 , 329 510 
L 329 512 
Q 322 511 , 318 511 
Q 314 511 , 309 511 
Q 299 511 , 293 512 
Q 288 514 , 288 516 
Q 288 519 , 293 521 
Q 299 522 , 309 522 
Q 314 522 , 317 522 
Q 321 522 , 322 522 
" fill="#F5C000" />
<path d="
M 380 511 
L 380 513 
Q 373 511 , 369 511 
Q 364 511 , 359 511 
Q 349 511 , 344 512 
Q 338 514 , 338 516 
Q 338 519 , 344 521 
Q 349 522 , 359 522 
Q 364 522 , 369 522 
Q 373 521 , 380 520 
L 380 522 
Q 375 523 , 369 523 
Q 365 524 , 359 524 
Q 345 524 , 338 522 
Q 330 520 , 330 516 
Q 330 513 , 338 511 
Q 345 509 , 359 509 
Q 365 509 , 370 509 
Q 375 510 , 380 511 
" fill="lightgray" />
<path d="
M 330 473 
L 330 479 
Q 323 475 , 319 474 
Q 314 473 , 309 473 
Q 299 473 , 294 477 
Q 288 481 , 288 489 
Q 288 497 , 294 501 
Q 299 504 , 309 504 
Q 314 504 , 319 503 
Q 323 502 , 330 498 
L 330 505 
Q 325 507 , 319 508 
Q 315 509 , 309 509 
Q 295 509 , 288 503 
Q 280 498 , 280 489 
Q 280 480 , 288 474 
Q 295 469 , 309 469 
Q 315 469 , 320 470 
Q 325 471 , 330 473 
" fill="#545FFF" />
<path d="
M 372 503 
L 372 492 
L 358 492 
L 358 488 
L 380 488 
L 380 506 
Q 375 507 , 369 508 
Q 364 509 , 358 509 
Q 345 509 , 338 503 
Q 330 498 , 330 489 
Q 330 480 , 338 474 
Q 345 469 , 358 469 
Q 364 469 , 369 470 
Q 374 470 , 379 472 
L 379 477 
Q 372 475 , 368 474 
Q 364 474 , 359 474 
Q 349 474 , 343 477 
Q 338 481 , 338 489 
Q 338 497 , 343 501 
Q 349 504 , 359 504 
Q 364 504 , 367 504 
Q 371 504 , 372 503 
" fill="lightgray" />
<path d="
M 435 552 
L 417 554 
L 451 554 
L 435 552 
M 428 552 
L 442 552 
L 485 555 
L 469 555 
L 457 554 
L 413 554 
L 400 555 
L 385 555 
L 428 552 
" fill="#339541" />
<path d="
M 485 543 
L 485 544 
Q 470 544 , 462 543 
Q 454 543 , 444 543 
Q 423 543 , 413 544 
Q 401 545 , 401 546 
Q 401 548 , 413 549 
Q 423 550 , 444 550 
Q 454 550 , 462 550 
Q 470 550 , 485 549 
L 485 550 
Q 474 551 , 464 551 
Q 454 551 , 443 551 
Q 416 551 , 401 550 
Q 385 549 , 385 547 
Q 385 545 , 401 543 
Q 416 542 , 443 542 
Q 454 542 , 464 542 
Q 475 542 , 485 543 
" fill="#545FFF" />
<path d="
M 385 530 
L 403 530 
L 403 536 
Q 403 538 , 411 539 
Q 418 540 , 435 540 
Q 452 540 , 460 539 
Q 467 538 , 467 536 
L 467 530 
L 485 530 
L 485 537 
Q 485 539 , 472 540 
Q 460 541 , 435 541 
Q 411 541 , 398 540 
Q 385 539 , 385 537 
L 385 530 
" fill="#D21010" />
<path d="
M 469 527 
L 469 523 
L 440 523 
L 440 521 
L 485 521 
L 485 528 
Q 474 529 , 463 529 
Q 454 529 , 442 529 
Q 416 529 , 400 527 
Q 385 525 , 385 521 
Q 385 517 , 400 515 
Q 416 513 , 442 513 
Q 453 513 , 462 513 
Q 472 514 , 482 514 
L 482 516 
Q 469 515 , 461 515 
Q 452 515 , 443 515 
Q 422 515 , 411 516 
Q 401 518 , 401 521 
Q 401 524 , 411 526 
Q 422 528 , 443 528 
Q 452 528 , 459 527 
Q 466 527 , 469 527 
" fill="#F5C000" />
<path d="
M 540 551 
L 522 552 
L 556 552 
L 540 551 
M 533 550 
L 547 550 
L 590 554 
L 574 554 
L 562 553 
L 518 553 
L 505 554 
L 490 554 
L 533 550 
" fill="#339541" />
<path d="
M 590 535 
L 590 537 
Q 575 536 , 567 535 
Q 559 535 , 549 535 
Q 528 535 , 518 536 
Q 506 538 , 506 541 
Q 506 544 , 518 546 
Q 528 548 , 549 548 
Q 559 548 , 567 547 
Q 575 547 , 590 545 
L 590 548 
Q 579 549 , 569 549 
Q 559 550 , 548 550 
Q 521 550 , 506 547 
Q 490 545 , 490 541 
Q 490 537 , 506 535 
Q 521 533 , 548 533 
Q 559 533 , 569 533 
Q 580 534 , 590 535 
" fill="#545FFF" />
<path d="
M 490 513 
L 508 513 
L 508 525 
Q 508 528 , 516 529 
Q 523 531 , 540 531 
Q 557 531 , 565 529 
Q 572 528 , 572 525 
L 572 513 
L 590 513 
L 590 525 
Q 590 529 , 577 531 
Q 565 533 , 540 533 
Q 516 533 , 503 531 
Q 490 529 , 490 525 
L 490 513 
" fill="#D21010" />
<path d="
M 574 500 
L 574 478 
L 545 478 
L 545 469 
L 590 469 
L 590 506 
Q 579 509 , 568 511 
Q 559 512 , 547 512 
Q 521 512 , 505 501 
Q 490 490 , 490 471 
Q 490 451 , 505 440 
Q 521 429 , 547 429 
Q 558 429 , 567 430 
Q 577 432 , 587 436 
L 587 446 
Q 574 442 , 566 440 
Q 557 439 , 548 439 
Q 527 439 , 516 447 
Q 506 455 , 506 471 
Q 506 487 , 516 495 
Q 527 503 , 548 503 
Q 557 503 , 564 502 
Q 571 501 , 574 500 
" fill="#F5C000" />
<path d="
M 645 553 
L 627 554 
L 661 554 
L 645 553 
M 638 552 
L 652 552 
L 695 555 
L 679 555 
L 667 554 
L 623 554 
L 610 555 
L 595 555 
L 638 552 
" fill="#339541" />
<path d="
M 695 542 
L 695 544 
Q 680 543 , 672 542 
Q 664 542 , 654 542 
Q 633 542 , 623 543 
Q 611 544 , 611 546 
Q 611 549 , 623 550 
Q 633 551 , 654 551 
Q 664 551 , 672 550 
Q 680 550 , 695 549 
L 695 551 
Q 684 551 , 674 552 
Q 664 552 , 653 552 
Q 626 552 , 611 550 
Q 595 549 , 595 546 
Q 595 544 , 611 542 
Q 626 541 , 653 541 
Q 664 541 , 674 541 
Q 685 542 , 695 542 
" fill="#545FFF" />
<path d="
M 595 529 
L 613 529 
L 613 536 
Q 613 537 , 621 538 
Q 628 539 , 645 539 
Q 662 539 , 670 538 
Q 677 537 , 677 536 
L 677 529 
L 695 529 
L 695 536 
Q 695 538 , 682 539 
Q 670 540 , 645 540 
Q 621 540 , 608 539 
Q 595 538 , 595 536 
L 595 529 
" fill="#D21010" />
<path d="
M 679 526 
L 679 520 
L 650 520 
L 650 518 
L 695 518 
L 695 527 
Q 684 528 , 673 529 
Q 664 529 , 652 529 
Q 626 529 , 610 526 
Q 595 523 , 595 518 
Q 595 514 , 610 511 
Q 626 508 , 652 508 
Q 663 508 , 672 508 
Q 682 509 , 692 510 
L 692 512 
Q 679 511 , 671 511 
Q 662 510 , 653 510 
Q 632 510 , 621 512 
Q 611 514 , 611 518 
Q 611 523 , 621 525 
Q 632 527 , 653 527 
Q 662 527 , 669 526 
Q 676 526 , 679 526 
" fill="#F5C000" />
<path d="
M 750 554 
L 732 554 
L 766 554 
L 750 554 
M 743 554 
L 757 554 
L 800 555 
L 784 555 
L 772 554 
L 728 554 
L 715 555 
L 700 555 
L 743 554 
" fill="#339541" />
<path d="
M 700 553 
L 718 553 
L 718 553 
Q 718 554 , 726 554 
Q 733 554 , 750 554 
Q 767 554 , 775 554 
Q 782 554 , 782 553 
L 782 553 
L 800 553 
L 800 553 
Q 800 554 , 787 554 
Q 775 554 , 750 554 
Q 726 554 , 713 554 
Q 700 554 , 700 553 
L 700 553 
" fill="#D21010" />
<path d="
M 800 552 
L 800 552 
Q 785 552 , 777 552 
Q 769 552 , 759 552 
Q 738 552 , 728 552 
Q 716 552 , 716 552 
Q 716 553 , 728 553 
Q 738 553 , 759 553 
Q 769 553 , 777 553 
Q 785 553 , 800 553 
L 800 553 
Q 789 553 , 779 553 
Q 769 553 , 758 553 
Q 731 553 , 716 553 
Q 700 553 , 700 552 
Q 700 552 , 716 552 
Q 731 552 , 758 552 
Q 769 552 , 779 552 
Q 790 552 , 800 552 
" fill="#545FFF" />
<path d="
M 784 552 
L 784 552 
L 755 552 
L 755 551 
L 800 551 
L 800 552 
Q 789 552 , 778 552 
Q 769 552 , 757 552 
Q 731 552 , 715 552 
Q 700 552 , 700 551 
Q 700 551 , 715 551 
Q 731 551 , 757 551 
Q 768 551 , 777 551 
Q 787 551 , 797 551 
L 797 551 
Q 784 551 , 776 551 
Q 767 551 , 758 551 
Q 737 551 , 726 551 
Q 716 551 , 716 551 
Q 716 552 , 726 552 
Q 737 552 , 758 552 
Q 767 552 , 774 552 
Q 781 552 , 784 552 
" fill="#F5C000" />
<path d="
M 805 551 
L 814 551 
L 814 553 
Q 814 554 , 818 554 
Q 821 554 , 830 554 
Q 839 554 , 842 554 
Q 846 554 , 846 553 
L 846 551 
L 855 551 
L 855 553 
Q 855 554 , 849 555 
Q 842 555 , 830 555 
Q 818 555 , 811 555 
Q 805 554 , 805 553 
L 805 551 
" fill="lightgray" />
<path d="
M 897 554 
L 897 553 
L 883 553 
L 883 553 
L 905 553 
L 905 555 
Q 900 555 , 894 555 
Q 889 555 , 883 555 
Q 870 555 , 863 554 
Q 855 554 , 855 553 
Q 855 552 , 863 552 
Q 870 551 , 883 551 
Q 889 551 , 894 551 
Q 899 551 , 904 551 
L 904 552 
Q 897 552 , 893 552 
Q 889 551 , 884 551 
Q 874 551 , 868 552 
Q 863 552 , 863 553 
Q 863 554 , 868 554 
Q 874 554 , 884 554 
Q 889 554 , 892 554 
Q 896 554 , 897 554 
" fill="#F5C000" />
<path d="
M 847 550 
L 847 549 
L 833 549 
L 833 548 
L 855 548 
L 855 551 
Q 850 551 , 844 551 
Q 839 551 , 833 551 
Q 820 551 , 813 550 
Q 805 549 , 805 548 
Q 805 547 , 813 546 
Q 820 545 , 833 545 
Q 839 545 , 844 545 
Q 849 545 , 854 545 
L 854 546 
Q 847 546 , 843 546 
Q 839 546 , 834 546 
Q 824 546 , 818 546 
Q 813 547 , 813 548 
Q 813 549 , 818 550 
Q 824 550 , 834 550 
Q 839 550 , 842 550 
Q 846 550 , 847 550 
" fill="lightgray" />
<path d="
M 855 545 
L 864 545 
L 864 549 
Q 864 550 , 868 550 
Q 871 550 , 880 550 
Q 889 550 , 892 550 
Q 896 550 , 896 549 
L 896 545 
L 905 545 
L 905 549 
Q 905 550 , 899 550 
Q 892 551 , 880 551 
Q 868 551 , 861 550 
Q 855 550 , 855 549 
L 855 545 
" fill="#D21010" />
<path d="
M 805 537 
L 814 537 
L 814 541 
Q 814 543 , 818 543 
Q 821 544 , 830 544 
Q 839 544 , 842 543 
Q 846 543 , 846 541 
L 846 537 
L 855 537 
L 855 542 
Q 855 543 , 849 544 
Q 842 544 , 830 544 
Q 818 544 , 811 544 
Q 805 543 , 805 542 
L 805 537 
" fill="lightgray" />
<path d="
M 880 538 
L 871 541 
L 888 541 
L 880 538 
M 876 537 
L 884 537 
L 905 544 
L 897 544 
L 891 542 
L 869 542 
L 862 544 
L 855 544 
L 876 537 
" fill="#339541" />
<path d="
M 830 526 
L 821 532 
L 838 532 
L 830 526 
M 826 524 
L 834 524 
L 855 537 
L 847 537 
L 841 533 
L 819 533 
L 812 537 
L 805 537 
L 826 524 
" fill="lightgray" />
<path d="
M 855 524 
L 864 524 
L 864 532 
Q 864 534 , 868 535 
Q 871 535 , 880 535 
Q 889 535 , 892 535 
Q 896 534 , 896 532 
L 896 524 
L 905 524 
L 905 532 
Q 905 534 , 899 536 
Q 892 537 , 880 537 
Q 868 537 , 861 536 
Q 855 534 , 855 532 
L 855 524 
" fill="#D21010" />
<path d="
M 847 522 
L 847 518 
L 833 518 
L 833 516 
L 855 516 
L 855 523 
Q 850 523 , 844 523 
Q 839 524 , 833 524 
Q 820 524 , 813 522 
Q 805 520 , 805 516 
Q 805 513 , 813 511 
Q 820 509 , 833 509 
Q 839 509 , 844 509 
Q 849 510 , 854 510 
L 854 512 
Q 847 511 , 843 511 
Q 839 511 , 834 511 
Q 824 511 , 818 512 
Q 813 514 , 813 516 
Q 813 519 , 818 521 
Q 824 522 , 834 522 
Q 839 522 , 842 522 
Q 846 522 , 847 522 
" fill="lightgray" />
<path d="
M 905 511 
L 905 513 
Q 898 511 , 894 511 
Q 889 511 , 884 511 
Q 874 511 , 869 512 
Q 863 514 , 863 516 
Q 863 519 , 869 521 
Q 874 522 , 884 522 
Q 889 522 , 894 522 
Q 898 521 , 905 520 
L 905 522 
Q 900 523 , 894 523 
Q 890 524 , 884 524 
Q 870 524 , 863 522 
Q 855 520 , 855 516 
Q 855 513 , 863 511 
Q 870 509 , 884 509 
Q 890 509 , 895 509 
Q 900 510 , 905 511 
" fill="#545FFF" />
<path d="
M 855 473 
L 855 479 
Q 848 475 , 844 474 
Q 839 473 , 834 473 
Q 824 473 , 819 477 
Q 813 481 , 813 489 
Q 813 497 , 819 501 
Q 824 504 , 834 504 
Q 839 504 , 844 503 
Q 848 502 , 855 498 
L 855 505 
Q 850 507 , 844 508 
Q 840 509 , 834 509 
Q 820 509 , 813 503 
Q 805 498 , 805 489 
Q 805 480 , 813 474 
Q 820 469 , 834 469 
Q 840 469 , 845 470 
Q 850 471 , 855 473 
" fill="lightgray" />
<path d="
M 897 503 
L 897 492 
L 883 492 
L 883 488 
L 905 488 
L 905 506 
Q 900 507 , 894 508 
Q 889 509 , 883 509 
Q 870 509 , 863 503 
Q 855 498 , 855 489 
Q 855 480 , 863 474 
Q 870 469 , 883 469 
Q 889 469 , 894 470 
Q 899 470 , 904 472 
L 904 477 
Q 897 475 , 893 474 
Q 889 474 , 884 474 
Q 874 474 , 868 477 
Q 863 481 , 863 489 
Q 863 497 , 868 501 
Q 874 504 , 884 504 
Q 889 504 , 892 504 
Q 896 504 , 897 503 
" fill="#F5C000" />
<path d="
M 952 554 
L 952 554 
L 938 554 
L 938 553 
L 960 553 
L 960 555 
Q 955 555 , 949 555 
Q 944 555 , 938 555 
Q 925 555 , 918 554 
Q 910 554 , 910 553 
Q 910 553 , 918 552 
Q 925 552 , 938 552 
Q 944 552 , 949 552 
Q 954 552 , 959 552 
L 959 553 
Q 952 552 , 948 552 
Q 944 552 , 939 552 
Q 929 552 , 923 553 
Q 918 553 , 918 553 
Q 918 554 , 923 554 
Q 929 555 , 939 555 
Q 944 555 , 947 555 
Q 951 554 , 952 554 
" fill="lightgray" />
<path d="
M 960 552 
L 969 552 
L 969 554 
Q 969 554 , 973 554 
Q 976 555 , 985 555 
Q 994 555 , 997 554 
Q 1001 554 , 1001 554 
L 1001 552 
L 1010 552 
L 1010 554 
Q 1010 554 , 1004 555 
Q 997 555 , 985 555 
Q 973 555 , 966 555 
Q 960 554 , 960 554 
L 960 552 
" fill="#D21010" />
<path d="
M 910 548 
L 919 548 
L 919 550 
Q 919 551 , 923 551 
Q 926 551 , 935 551 
Q 944 551 , 947 551 
Q 951 551 , 951 550 
L 951 548 
L 960 548 
L 960 550 
Q 960 551 , 954 551 
Q 947 551 , 935 551 
Q 923 551 , 916 551 
Q 910 551 , 910 550 
L 910 548 
" fill="lightgray" />
<path d="
M 1002 551 
L 1002 550 
L 988 550 
L 988 550 
L 1010 550 
L 1010 551 
Q 1005 551 , 999 551 
Q 994 551 , 988 551 
Q 975 551 , 968 551 
Q 960 551 , 960 550 
Q 960 549 , 968 548 
Q 975 548 , 988 548 
Q 994 548 , 999 548 
Q 1004 548 , 1009 548 
L 1009 549 
Q 1002 549 , 998 548 
Q 994 548 , 989 548 
Q 979 548 , 973 549 
Q 968 549 , 968 550 
Q 968 550 , 973 551 
Q 979 551 , 989 551 
Q 994 551 , 997 551 
Q 1001 551 , 1002 551 
" fill="#F5C000" />
<path d="
M 935 545 
L 926 546 
L 943 546 
L 935 545 
M 931 544 
L 939 544 
L 960 548 
L 952 548 
L 946 547 
L 924 547 
L 917 548 
L 910 548 
L 931 544 
" fill="lightgray" />
<path d="
M 960 544 
L 969 544 
L 969 546 
Q 969 547 , 973 547 
Q 976 548 , 985 548 
Q 994 548 , 997 547 
Q 1001 547 , 1001 546 
L 1001 544 
L 1010 544 
L 1010 546 
Q 1010 547 , 1004 548 
Q 997 548 , 985 548 
Q 973 548 , 966 548 
Q 960 547 , 960 546 
L 960 544 
" fill="#D21010" />
<path d="
M 910 538 
L 919 538 
L 919 541 
Q 919 542 , 923 542 
Q 926 543 , 935 543 
Q 944 543 , 947 542 
Q 951 542 , 951 541 
L 951 538 
L 960 538 
L 960 541 
Q 960 542 , 954 543 
Q 947 543 , 935 543 
Q 923 543 , 916 543 
Q 910 542 , 910 541 
L 910 538 
" fill="lightgray" />
<path d="
M 985 539 
L 976 541 
L 993 541 
L 985 539 
M 981 538 
L 989 538 
L 1010 543 
L 1002 543 
L 996 542 
L 974 542 
L 967 543 
L 960 543 
L 981 538 
" fill="#339541" />
<path d="
M 960 532 
L 960 533 
Q 953 532 , 949 532 
Q 944 532 , 939 532 
Q 929 532 , 924 532 
Q 918 533 , 918 534 
Q 918 536 , 924 536 
Q 929 537 , 939 537 
Q 944 537 , 949 537 
Q 953 537 , 960 536 
L 960 537 
Q 955 538 , 949 538 
Q 945 538 , 939 538 
Q 925 538 , 918 537 
Q 910 536 , 910 534 
Q 910 533 , 918 532 
Q 925 531 , 939 531 
Q 945 531 , 950 531 
Q 955 531 , 960 532 
" fill="lightgray" />
<path d="
M 1002 537 
L 1002 535 
L 988 535 
L 988 534 
L 1010 534 
L 1010 537 
Q 1005 538 , 999 538 
Q 994 538 , 988 538 
Q 975 538 , 968 537 
Q 960 536 , 960 534 
Q 960 533 , 968 532 
Q 975 531 , 988 531 
Q 994 531 , 999 531 
Q 1004 531 , 1009 532 
L 1009 532 
Q 1002 532 , 998 532 
Q 994 532 , 989 532 
Q 979 532 , 973 532 
Q 968 533 , 968 534 
Q 968 536 , 973 536 
Q 979 537 , 989 537 
Q 994 537 , 997 537 
Q 1001 537 , 1002 537 
" fill="#F5C000" />
<path d="
M 952 529 
L 952 526 
L 938 526 
L 938 525 
L 960 525 
L 960 530 
Q 955 530 , 949 530 
Q 944 531 , 938 531 
Q 925 531 , 918 529 
Q 910 528 , 910 525 
Q 910 522 , 918 521 
Q 925 519 , 938 519 
Q 944 519 , 949 519 
Q 954 519 , 959 520 
L 959 521 
Q 952 521 , 948 521 
Q 944 520 , 939 520 
Q 929 520 , 923 521 
Q 918 523 , 918 525 
Q 918 527 , 923 528 
Q 929 529 , 939 529 
Q 944 529 , 947 529 
Q 951 529 , 952 529 
" fill="lightgray" />
<path d="
M 1010 520 
L 1010 522 
Q 1003 521 , 999 521 
Q 994 520 , 989 520 
Q 979 520 , 974 521 
Q 968 523 , 968 525 
Q 968 527 , 974 528 
Q 979 529 , 989 529 
Q 994 529 , 999 529 
Q 1003 529 , 1010 528 
L 1010 529 
Q 1005 530 , 999 530 
Q 995 531 , 989 531 
Q 975 531 , 968 529 
Q 960 528 , 960 525 
Q 960 522 , 968 521 
Q 975 519 , 989 519 
Q 995 519 , 1000 519 
Q 1005 520 , 1010 520 
" fill="#545FFF" />
<path d="
M 1065 550 
L 1047 552 
L 1081 552 
L 1065 550 
M 1058 549 
L 1072 549 
L 1115 555 
L 1099 555 
L 1087 553 
L 1043 553 
L 1030 555 
L 1015 555 
L 1058 549 
" fill="#339541" />
<path d="
M 1115 542 
L 1115 543 
Q 1100 542 , 1092 542 
Q 1084 542 , 1074 542 
Q 1053 542 , 1043 543 
Q 1031 543 , 1031 544 
Q 1031 546 , 1043 547 
Q 1053 548 , 1074 548 
Q 1084 548 , 1092 547 
Q 1100 547 , 1115 547 
L 1115 548 
Q 1104 548 , 1094 548 
Q 1084 548 , 1073 548 
Q 1046 548 , 1031 547 
Q 1015 546 , 1015 545 
Q 1015 543 , 1031 542 
Q 1046 541 , 1073 541 
Q 1084 541 , 1094 541 
Q 1105 541 , 1115 542 
" fill="#545FFF" />
<path d="
M 1015 524 
L 1033 524 
L 1033 534 
Q 1033 537 , 1041 538 
Q 1048 539 , 1065 539 
Q 1082 539 , 1090 538 
Q 1097 537 , 1097 534 
L 1097 524 
L 1115 524 
L 1115 534 
Q 1115 537 , 1102 539 
Q 1090 541 , 1065 541 
Q 1041 541 , 1028 539 
Q 1015 537 , 1015 534 
L 1015 524 
" fill="#D21010" />
<path d="
M 1099 519 
L 1099 510 
L 1070 510 
L 1070 507 
L 1115 507 
L 1115 521 
Q 1104 523 , 1093 523 
Q 1084 524 , 1072 524 
Q 1046 524 , 1030 519 
Q 1015 515 , 1015 507 
Q 1015 500 , 1030 495 
Q 1046 491 , 1072 491 
Q 1083 491 , 1092 492 
Q 1102 492 , 1112 494 
L 1112 498 
Q 1099 496 , 1091 495 
Q 1082 495 , 1073 495 
Q 1052 495 , 1041 498 
Q 1031 501 , 1031 507 
Q 1031 514 , 1041 517 
Q 1052 520 , 1073 520 
Q 1082 520 , 1089 520 
Q 1096 519 , 1099 519 
" fill="#F5C000" />
<path d="
M 1120 550 
L 1138 550 
L 1138 553 
Q 1138 553 , 1146 554 
Q 1153 554 , 1170 554 
Q 1187 554 , 1195 554 
Q 1202 553 , 1202 553 
L 1202 550 
L 1220 550 
L 1220 553 
Q 1220 554 , 1207 554 
Q 1195 555 , 1170 555 
Q 1146 555 , 1133 554 
Q 1120 554 , 1120 553 
L 1120 550 
" fill="#D21010" />
<path d="
M 1170 544 
L 1152 547 
L 1186 547 
L 1170 544 
M 1163 543 
L 1177 543 
L 1220 550 
L 1204 550 
L 1192 548 
L 1148 548 
L 1135 550 
L 1120 550 
L 1163 543 
" fill="#339541" />
<path d="
M 1220 511 
L 1220 516 
Q 1205 513 , 1197 512 
Q 1189 511 , 1179 511 
Q 1158 511 , 1148 514 
Q 1136 518 , 1136 524 
Q 1136 531 , 1148 535 
Q 1158 538 , 1179 538 
Q 1189 538 , 1197 537 
Q 1205 536 , 1220 533 
L 1220 539 
Q 1209 540 , 1199 541 
Q 1189 542 , 1178 542 
Q 1151 542 , 1136 537 
Q 1120 533 , 1120 525 
Q 1120 516 , 1136 512 
Q 1151 507 , 1178 507 
Q 1189 507 , 1199 508 
Q 1210 509 , 1220 511 
" fill="#545FFF" />
<path d="
M 1204 499 
L 1204 485 
L 1175 485 
L 1175 479 
L 1220 479 
L 1220 502 
Q 1209 504 , 1198 505 
Q 1189 506 , 1177 506 
Q 1151 506 , 1135 499 
Q 1120 492 , 1120 480 
Q 1120 468 , 1135 461 
Q 1151 454 , 1177 454 
Q 1188 454 , 1197 455 
Q 1207 456 , 1217 458 
L 1217 465 
Q 1204 462 , 1196 461 
Q 1187 460 , 1178 460 
Q 1157 460 , 1146 465 
Q 1136 470 , 1136 480 
Q 1136 490 , 1146 495 
Q 1157 500 , 1178 500 
Q 1187 500 , 1194 500 
Q 1201 499 , 1204 499 
" fill="#F5C000" />
<path d="
M 1275 552 
L 1257 553 
L 1291 553 
L 1275 552 
M 1268 552 
L 1282 552 
L 1325 554 
L 1309 554 
L 1297 553 
L 1253 553 
L 1240 554 
L 1225 554 
L 1268 552 
" fill="#339541" />
<path d="
M 1225 547 
L 1243 547 
L 1243 550 
Q 1243 551 , 1251 551 
Q 1258 551 , 1275 551 
Q 1292 551 , 1300 551 
Q 1307 551 , 1307 550 
L 1307 547 
L 1325 547 
L 1325 550 
Q 1325 551 , 1312 551 
Q 1300 552 , 1275 552 
Q 1251 552 , 1238 551 
Q 1225 551 , 1225 550 
L 1225 547 
" fill="#D21010" />
<path d="
M 1309 546 
L 1309 545 
L 1280 545 
L 1280 544 
L 1325 544 
L 1325 546 
Q 1314 547 , 1303 547 
Q 1294 547 , 1282 547 
Q 1256 547 , 1240 546 
Q 1225 545 , 1225 544 
Q 1225 543 , 1240 542 
Q 1256 541 , 1282 541 
Q 1293 541 , 1302 541 
Q 1312 541 , 1322 541 
L 1322 542 
Q 1309 542 , 1301 542 
Q 1292 542 , 1283 542 
Q 1262 542 , 1251 542 
Q 1241 543 , 1241 544 
Q 1241 545 , 1251 546 
Q 1262 546 , 1283 546 
Q 1292 546 , 1299 546 
Q 1306 546 , 1309 546 
" fill="#F5C000" />
<path d="
M 1325 535 
L 1325 536 
Q 1310 535 , 1302 535 
Q 1294 535 , 1284 535 
Q 1263 535 , 1253 535 
Q 1241 536 , 1241 537 
Q 1241 538 , 1253 539 
Q 1263 540 , 1284 540 
Q 1294 540 , 1302 539 
Q 1310 539 , 1325 539 
L 1325 540 
Q 1314 540 , 1304 540 
Q 1294 540 , 1283 540 
Q 1256 540 , 1241 539 
Q 1225 539 , 1225 537 
Q 1225 536 , 1241 535 
Q 1256 534 , 1283 534 
Q 1294 534 , 1304 534 
Q 1315 534 , 1325 535 
" fill="#545FFF" />
<path d="
M 1380 554 
L 1362 554 
L 1396 554 
L 1380 554 
M 1373 554 
L 1387 554 
L 1430 555 
L 1414 555 
L 1402 554 
L 1358 554 
L 1345 555 
L 1330 555 
L 1373 554 
" fill="#339541" />
<path d="
M 1330 553 
L 1348 553 
L 1348 553 
Q 1348 554 , 1356 554 
Q 1363 554 , 1380 554 
Q 1397 554 , 1405 554 
Q 1412 554 , 1412 553 
L 1412 553 
L 1430 553 
L 1430 553 
Q 1430 554 , 1417 554 
Q 1405 554 , 1380 554 
Q 1356 554 , 1343 554 
Q 1330 554 , 1330 553 
L 1330 553 
" fill="#D21010" />
<path d="
M 1430 552 
L 1430 552 
Q 1415 552 , 1407 552 
Q 1399 552 , 1389 552 
Q 1368 552 , 1358 552 
Q 1346 552 , 1346 552 
Q 1346 553 , 1358 553 
Q 1368 553 , 1389 553 
Q 1399 553 , 1407 553 
Q 1415 553 , 1430 553 
L 1430 553 
Q 1419 553 , 1409 553 
Q 1399 553 , 1388 553 
Q 1361 553 , 1346 553 
Q 1330 553 , 1330 552 
Q 1330 552 , 1346 552 
Q 1361 552 , 1388 552 
Q 1399 552 , 1409 552 
Q 1420 552 , 1430 552 
" fill="#545FFF" />
<path d="
M 1414 552 
L 1414 552 
L 1385 552 
L 1385 551 
L 1430 551 
L 1430 552 
Q 1419 552 , 1408 552 
Q 1399 552 , 1387 552 
Q 1361 552 , 1345 552 
Q 1330 552 , 1330 551 
Q 1330 551 , 1345 551 
Q 1361 551 , 1387 551 
Q 1398 551 , 1407 551 
Q 1417 551 , 1427 551 
L 1427 551 
Q 1414 551 , 1406 551 
Q 1397 551 , 1388 551 
Q 1367 551 , 1356 551 
Q 1346 551 , 1346 551 
Q 1346 552 , 1356 552 
Q 1367 552 , 1388 552 
Q 1397 552 , 1404 552 
Q 1411 552 , 1414 552 
" fill="#F5C000" />
<path d="M 65 168 L 65 555 " stroke="black" stroke-width="1.5"/>
<path d="M 55 555 L 65 555 " stroke="black" stroke-width="4"/>
<text text-anchor="end" x="50" y="555" font-size="50" alignment-baseline="middle">0</text>
<path d="M 55 362 L 65 362 " stroke="black" stroke-width="4"/>
<text text-anchor="end" x="50" y="362" font-size="50" alignment-baseline="middle">1</text>
<path d="M 55 168 L 65 168 " stroke="black" stroke-width="4"/>
<text text-anchor="end" x="50" y="168" font-size="50" alignment-baseline="middle">2</text>
<text text-anchor="middle" x="750" y="50" font-size="50" alignment-baseline="baseline"></text>
G<path d="
M 160 582 
L 126 595 
L 160 608 
L 157 611 
L 123 598 
L 123 623 
L 117 623 
L 117 599 
L 83 611 
L 80 608 
L 114 595 
L 80 582 
L 83 579 
L 117 591 
L 117 567 
L 123 567 
L 123 591 
L 157 579 
L 160 582 
" fill="black" />
<path d="
M 265 567 
Q 236 574 , 223 581 
Q 210 588 , 210 595 
Q 210 602 , 223 609 
Q 236 616 , 265 623 
L 241 623 
Q 213 616 , 199 609 
Q 185 602 , 185 595 
Q 185 588 , 199 581 
Q 213 574 , 241 567 
L 265 567 
" fill="black" />
<path d="
M 370 567 
Q 341 574 , 328 581 
Q 315 588 , 315 595 
Q 315 602 , 328 609 
Q 341 616 , 370 623 
L 346 623 
Q 318 616 , 304 609 
Q 290 602 , 290 595 
Q 290 588 , 304 581 
Q 318 574 , 346 567 
L 370 567 
" fill="black" />
<path d="
" fill="black" />
<path d="
M 421 567 
L 448 567 
L 448 623 
L 421 623 
L 421 567 
" fill="black" />
<path d="
" fill="black" />
<path d="
" fill="black" />
<path d="
M 526 567 
L 553 567 
L 553 623 
L 526 623 
L 526 567 
" fill="black" />
<path d="
" fill="black" />
<path d="
" fill="black" />
<path d="
M 622 567 
L 642 567 
L 642 623 
L 622 623 
L 622 567 
" fill="black" />
<path d="
" fill="black" />
<path d="
M 687 595 
Q 686 591 , 682 591 
Q 679 591 , 677 595 
Q 675 599 , 675 605 
Q 675 612 , 677 615 
Q 679 619 , 682 619 
Q 686 619 , 687 615 
Q 689 612 , 689 605 
Q 689 599 , 687 595 
M 690 569 
L 690 574 
Q 689 572 , 687 571 
Q 686 571 , 684 571 
Q 678 571 , 676 581 
Q 675 586 , 675 595 
Q 675 593 , 677 590 
Q 679 587 , 682 587 
Q 687 587 , 689 592 
Q 692 597 , 692 604 
Q 692 613 , 689 618 
Q 687 623 , 682 623 
Q 677 623 , 675 616 
Q 672 609 , 672 595 
Q 672 581 , 675 574 
Q 679 567 , 684 567 
Q 686 567 , 687 568 
Q 689 568 , 690 569 
" fill="black" />
<path d="
M 790 582 
L 756 595 
L 790 608 
L 787 611 
L 753 598 
L 753 623 
L 747 623 
L 747 599 
L 713 611 
L 710 608 
L 744 595 
L 710 582 
L 713 579 
L 747 591 
L 747 567 
L 753 567 
L 753 591 
L 787 579 
L 790 582 
" fill="black" />
<path d="
M 815 567 
L 839 567 
Q 867 574 , 881 581 
Q 895 588 , 895 595 
Q 895 602 , 881 609 
Q 867 616 , 839 623 
L 815 623 
Q 844 616 , 857 609 
Q 870 602 , 870 595 
Q 870 588 , 857 581 
Q 844 574 , 815 567 
" fill="black" />
<path d="
M 920 567 
L 944 567 
Q 972 574 , 986 581 
Q 1000 588 , 1000 595 
Q 1000 602 , 986 609 
Q 972 616 , 944 623 
L 920 623 
Q 949 616 , 962 609 
Q 975 602 , 975 595 
Q 975 588 , 962 581 
Q 949 574 , 920 567 
" fill="black" />
<path d="
" fill="black" />
<path d="
M 1051 567 
L 1078 567 
L 1078 623 
L 1051 623 
L 1051 567 
" fill="black" />
<path d="
" fill="black" />
<path d="
" fill="black" />
<path d="
M 1156 567 
L 1183 567 
L 1183 623 
L 1156 623 
L 1156 567 
" fill="black" />
<path d="
" fill="black" />
<path d="
" fill="black" />
<path d="
M 1261 567 
L 1288 567 
L 1288 623 
L 1261 623 
L 1261 567 
" fill="black" />
<path d="
" fill="black" />
<path d="
M 1420 582 
L 1386 595 
L 1420 608 
L 1417 611 
L 1383 598 
L 1383 623 
L 1377 623 
L 1377 599 
L 1343 611 
L 1340 608 
L 1374 595 
L 1340 582 
L 1343 579 
L 1377 591 
L 1377 567 
L 1383 567 
L 1383 591 
L 1417 579 
L 1420 582 
" fill="black" />
</svg>
