<svg xmlns="http://www.w3.org/2000/svg"
viewBox="0 0 1435 635">
<path d="
M 120 554 
L 102 555 
L 136 555 
L 120 554 
M 113 554 
L 127 554 
L 170 555 
L 154 555 
L 142 555 
L 98 555 
L 85 555 
L 70 555 
L 113 554 
" fill="#339541" />
<path d="
M 170 553 
L 170 553 
Q 155 553 , 147 553 
Q 139 553 , 129 553 
Q 108 553 , 98 553 
Q 86 553 , 86 553 
Q 86 554 , 98 554 
Q 108 554 , 129 554 
Q 139 554 , 147 554 
Q 155 554 , 170 554 
L 170 554 
Q 159 554 , 149 554 
Q 139 554 , 128 554 
Q 101 554 , 86 554 
Q 70 554 , 70 553 
Q 70 553 , 86 553 
Q 101 553 , 128 553 
Q 139 553 , 149 553 
Q 160 553 , 170 553 
" fill="#545FFF" />
<path d="
M 70 552 
L 88 552 
L 88 553 
Q 88 553 , 96 553 
Q 103 553 , 120 553 
Q 137 553 , 145 553 
Q 152 553 , 152 553 
L 152 552 
L 170 552 
L 170 553 
Q 170 553 , 157 553 
Q 145 553 , 120 553 
Q 96 553 , 83 553 
Q 70 553 , 70 553 
L 70 552 
" fill="#D21010" />
<path d="
M 154 551 
L 154 551 
L 125 551 
L 125 551 
L 170 551 
L 170 551 
Q 159 551 , 148 551 
Q 139 551 , 127 551 
Q 101 551 , 85 551 
Q 70 551 , 70 551 
Q 70 550 , 85 550 
Q 101 550 , 127 550 
Q 138 550 , 147 550 
Q 157 550 , 167 550 
L 167 550 
Q 154 550 , 146 550 
Q 137 550 , 128 550 
Q 107 550 , 96 550 
Q 86 550 , 86 551 
Q 86 551 , 96 551 
Q 107 551 , 128 551 
Q 137 551 , 144 551 
Q 151 551 , 154 551 
" fill="#F5C000" />
<path d="
M 259 554 
L 259 554 
L 230 554 
L 230 554 
L 275 554 
L 275 554 
Q 264 554 , 253 554 
Q 244 554 , 232 554 
Q 206 554 , 190 554 
Q 175 554 , 175 554 
Q 175 553 , 190 553 
Q 206 553 , 232 553 
Q 243 553 , 252 553 
Q 262 553 , 272 553 
L 272 553 
Q 259 553 , 251 553 
Q 242 553 , 233 553 
Q 212 553 , 201 553 
Q 191 553 , 191 554 
Q 191 554 , 201 554 
Q 212 554 , 233 554 
Q 242 554 , 249 554 
Q 256 554 , 259 554 
" fill="#F5C000" />
<path d="
M 225 551 
L 207 552 
L 241 552 
L 225 551 
M 218 551 
L 232 551 
L 275 552 
L 259 552 
L 247 552 
L 203 552 
L 190 552 
L 175 552 
L 218 551 
" fill="#339541" />
<path d="
M 175 549 
L 193 549 
L 193 550 
Q 193 550 , 201 550 
Q 208 551 , 225 551 
Q 242 551 , 250 550 
Q 257 550 , 257 550 
L 257 549 
L 275 549 
L 275 550 
Q 275 550 , 262 551 
Q 250 551 , 225 551 
Q 201 551 , 188 551 
Q 175 550 , 175 550 
L 175 549 
" fill="#D21010" />
<path d="
M 275 546 
L 275 547 
Q 260 546 , 252 546 
Q 244 546 , 234 546 
Q 213 546 , 203 546 
Q 191 547 , 191 547 
Q 191 547 , 203 548 
Q 213 548 , 234 548 
Q 244 548 , 252 548 
Q 260 548 , 275 548 
L 275 548 
Q 264 548 , 254 548 
Q 244 548 , 233 548 
Q 206 548 , 191 548 
Q 175 548 , 175 547 
Q 175 547 , 191 546 
Q 206 546 , 233 546 
Q 244 546 , 254 546 
Q 265 546 , 275 546 
" fill="#545FFF" />
<path d="
M 322 554 
L 322 553 
L 308 553 
L 308 553 
L 330 553 
L 330 554 
Q 325 554 , 319 554 
Q 314 554 , 308 554 
Q 295 554 , 288 554 
Q 280 554 , 280 553 
Q 280 553 , 288 552 
Q 295 552 , 308 552 
Q 314 552 , 319 552 
Q 324 552 , 329 552 
L 329 552 
Q 322 552 , 318 552 
Q 314 552 , 309 552 
Q 299 552 , 293 552 
Q 288 553 , 288 553 
Q 288 554 , 293 554 
Q 299 554 , 309 554 
Q 314 554 , 317 554 
Q 321 554 , 322 554 
" fill="#F5C000" />
<path d="
M 330 552 
L 339 552 
L 339 553 
Q 339 554 , 343 554 
Q 346 554 , 355 554 
Q 364 554 , 367 554 
Q 371 554 , 371 553 
L 371 552 
L 380 552 
L 380 553 
Q 380 554 , 374 554 
Q 367 554 , 355 554 
Q 343 554 , 336 554 
Q 330 554 , 330 553 
L 330 552 
" fill="lightgray" />
<path d="
M 280 549 
L 289 549 
L 289 551 
Q 289 551 , 293 551 
Q 296 552 , 305 552 
Q 314 552 , 317 551 
Q 321 551 , 321 551 
L 321 549 
L 330 549 
L 330 551 
Q 330 551 , 324 552 
Q 317 552 , 305 552 
Q 293 552 , 286 552 
Q 280 551 , 280 551 
L 280 549 
" fill="#D21010" />
<path d="
M 372 552 
L 372 551 
L 358 551 
L 358 550 
L 380 550 
L 380 552 
Q 375 552 , 369 552 
Q 364 552 , 358 552 
Q 345 552 , 338 552 
Q 330 551 , 330 550 
Q 330 550 , 338 549 
Q 345 549 , 358 549 
Q 364 549 , 369 549 
Q 374 549 , 379 549 
L 379 550 
Q 372 549 , 368 549 
Q 364 549 , 359 549 
Q 349 549 , 343 550 
Q 338 550 , 338 550 
Q 338 551 , 343 551 
Q 349 552 , 359 552 
Q 364 552 , 367 552 
Q 371 552 , 372 552 
" fill="lightgray" />
<path d="
M 330 542 
L 330 543 
Q 323 542 , 319 542 
Q 314 542 , 309 542 
Q 299 542 , 294 543 
Q 288 543 , 288 544 
Q 288 546 , 294 547 
Q 299 547 , 309 547 
Q 314 547 , 319 547 
Q 323 547 , 330 546 
L 330 548 
Q 325 548 , 319 548 
Q 315 548 , 309 548 
Q 295 548 , 288 547 
Q 280 546 , 280 545 
Q 280 543 , 288 542 
Q 295 541 , 309 541 
Q 315 541 , 320 541 
Q 325 541 , 330 542 
" fill="#545FFF" />
<path d="
M 372 547 
L 372 545 
L 358 545 
L 358 544 
L 380 544 
L 380 548 
Q 375 548 , 369 548 
Q 364 548 , 358 548 
Q 345 548 , 338 547 
Q 330 546 , 330 545 
Q 330 543 , 338 542 
Q 345 541 , 358 541 
Q 364 541 , 369 541 
Q 374 541 , 379 542 
L 379 543 
Q 372 542 , 368 542 
Q 364 542 , 359 542 
Q 349 542 , 343 543 
Q 338 543 , 338 545 
Q 338 546 , 343 547 
Q 349 547 , 359 547 
Q 364 547 , 367 547 
Q 371 547 , 372 547 
" fill="lightgray" />
<path d="
M 280 526 
L 289 526 
L 289 534 
Q 289 537 , 293 538 
Q 296 539 , 305 539 
Q 314 539 , 317 538 
Q 321 537 , 321 534 
L 321 526 
L 330 526 
L 330 535 
Q 330 537 , 324 539 
Q 317 540 , 305 540 
Q 293 540 , 286 539 
Q 280 537 , 280 535 
L 280 526 
" fill="#D21010" />
<path d="
M 355 529 
L 346 535 
L 363 535 
L 355 529 
M 351 526 
L 359 526 
L 380 540 
L 372 540 
L 366 536 
L 344 536 
L 337 540 
L 330 540 
L 351 526 
" fill="lightgray" />
<path d="
M 305 512 
L 296 519 
L 313 519 
L 305 512 
M 301 509 
L 309 509 
L 330 526 
L 322 526 
L 316 521 
L 294 521 
L 287 526 
L 280 526 
L 301 509 
" fill="#339541" />
<path d="
M 330 509 
L 339 509 
L 339 519 
Q 339 522 , 343 523 
Q 346 524 , 355 524 
Q 364 524 , 367 523 
Q 371 522 , 371 519 
L 371 509 
L 380 509 
L 380 519 
Q 380 522 , 374 524 
Q 367 526 , 355 526 
Q 343 526 , 336 524 
Q 330 522 , 330 519 
L 330 509 
" fill="lightgray" />
<path d="
M 322 506 
L 322 501 
L 308 501 
L 308 498 
L 330 498 
L 330 507 
Q 325 508 , 319 508 
Q 314 509 , 308 509 
Q 295 509 , 288 506 
Q 280 503 , 280 499 
Q 280 494 , 288 492 
Q 295 489 , 308 489 
Q 314 489 , 319 489 
Q 324 490 , 329 491 
L 329 493 
Q 322 492 , 318 492 
Q 314 491 , 309 491 
Q 299 491 , 293 493 
Q 288 495 , 288 499 
Q 288 503 , 293 505 
Q 299 506 , 309 506 
Q 314 506 , 317 506 
Q 321 506 , 322 506 
" fill="#F5C000" />
<path d="
M 380 491 
L 380 494 
Q 373 492 , 369 492 
Q 364 491 , 359 491 
Q 349 491 , 344 493 
Q 338 495 , 338 499 
Q 338 503 , 344 505 
Q 349 507 , 359 507 
Q 364 507 , 369 506 
Q 373 505 , 380 504 
L 380 507 
Q 375 508 , 369 508 
Q 365 509 , 359 509 
Q 345 509 , 338 506 
Q 330 503 , 330 499 
Q 330 494 , 338 492 
Q 345 489 , 359 489 
Q 365 489 , 370 489 
Q 375 490 , 380 491 
" fill="lightgray" />
<path d="
M 485 549 
L 485 550 
Q 470 549 , 462 549 
Q 454 549 , 444 549 
Q 423 549 , 413 549 
Q 401 550 , 401 551 
Q 401 553 , 413 553 
Q 423 554 , 444 554 
Q 454 554 , 462 554 
Q 470 554 , 485 553 
L 485 554 
Q 474 554 , 464 555 
Q 454 555 , 443 555 
Q 416 555 , 401 554 
Q 385 553 , 385 551 
Q 385 550 , 401 549 
Q 416 548 , 443 548 
Q 454 548 , 464 548 
Q 475 548 , 485 549 
" fill="#545FFF" />
<path d="
M 435 541 
L 417 544 
L 451 544 
L 435 541 
M 428 539 
L 442 539 
L 485 547 
L 469 547 
L 457 545 
L 413 545 
L 400 547 
L 385 547 
L 428 539 
" fill="#339541" />
<path d="
M 385 516 
L 403 516 
L 403 529 
Q 403 533 , 411 534 
Q 418 536 , 435 536 
Q 452 536 , 460 534 
Q 467 533 , 467 529 
L 467 516 
L 485 516 
L 485 529 
Q 485 534 , 472 536 
Q 460 538 , 435 538 
Q 411 538 , 398 536 
Q 385 534 , 385 529 
L 385 516 
" fill="#D21010" />
<path d="
M 469 491 
L 469 445 
L 440 445 
L 440 427 
L 485 427 
L 485 502 
Q 474 510 , 463 512 
Q 454 515 , 442 515 
Q 416 515 , 400 493 
Q 385 470 , 385 430 
Q 385 390 , 400 368 
Q 416 345 , 442 345 
Q 453 345 , 462 348 
Q 472 351 , 482 359 
L 482 381 
Q 469 371 , 461 368 
Q 452 365 , 443 365 
Q 422 365 , 411 381 
Q 401 397 , 401 430 
Q 401 464 , 411 480 
Q 422 496 , 443 496 
Q 452 496 , 459 495 
Q 466 493 , 469 491 
" fill="#F5C000" />
<path d="
M 490 549 
L 508 549 
L 508 552 
Q 508 553 , 516 554 
Q 523 554 , 540 554 
Q 557 554 , 565 554 
Q 572 553 , 572 552 
L 572 549 
L 590 549 
L 590 553 
Q 590 554 , 577 554 
Q 565 555 , 540 555 
Q 516 555 , 503 554 
Q 490 554 , 490 553 
L 490 549 
" fill="#D21010" />
<path d="
M 540 536 
L 522 542 
L 556 542 
L 540 536 
M 533 533 
L 547 533 
L 590 549 
L 574 549 
L 562 544 
L 518 544 
L 505 549 
L 490 549 
L 533 533 
" fill="#339541" />
<path d="
M 590 516 
L 590 519 
Q 575 517 , 567 517 
Q 559 516 , 549 516 
Q 528 516 , 518 518 
Q 506 520 , 506 523 
Q 506 527 , 518 529 
Q 528 530 , 549 530 
Q 559 530 , 567 530 
Q 575 530 , 590 528 
L 590 531 
Q 579 532 , 569 532 
Q 559 532 , 548 532 
Q 521 532 , 506 530 
Q 490 527 , 490 523 
Q 490 519 , 506 517 
Q 521 514 , 548 514 
Q 559 514 , 569 514 
Q 580 515 , 590 516 
" fill="#545FFF" />
<path d="
M 574 500 
L 574 473 
L 545 473 
L 545 462 
L 590 462 
L 590 506 
Q 579 511 , 568 512 
Q 559 514 , 547 514 
Q 521 514 , 505 501 
Q 490 487 , 490 464 
Q 490 441 , 505 427 
Q 521 414 , 547 414 
Q 558 414 , 567 416 
Q 577 418 , 587 422 
L 587 435 
Q 574 429 , 566 428 
Q 557 426 , 548 426 
Q 527 426 , 516 435 
Q 506 445 , 506 464 
Q 506 484 , 516 493 
Q 527 503 , 548 503 
Q 557 503 , 564 502 
Q 571 501 , 574 500 
" fill="#F5C000" />
<path d="
M 695 551 
L 695 552 
Q 680 552 , 672 551 
Q 664 551 , 654 551 
Q 633 551 , 623 552 
Q 611 552 , 611 552 
Q 611 553 , 623 554 
Q 633 554 , 654 554 
Q 664 554 , 672 554 
Q 680 554 , 695 553 
L 695 554 
Q 684 554 , 674 554 
Q 664 554 , 653 554 
Q 626 554 , 611 554 
Q 595 553 , 595 553 
Q 595 552 , 611 551 
Q 626 551 , 653 551 
Q 664 551 , 674 551 
Q 685 551 , 695 551 
" fill="#545FFF" />
<path d="
M 595 547 
L 613 547 
L 613 549 
Q 613 550 , 621 550 
Q 628 551 , 645 551 
Q 662 551 , 670 550 
Q 677 550 , 677 549 
L 677 547 
L 695 547 
L 695 549 
Q 695 550 , 682 551 
Q 670 551 , 645 551 
Q 621 551 , 608 551 
Q 595 550 , 595 549 
L 595 547 
" fill="#D21010" />
<path d="
M 679 546 
L 679 544 
L 650 544 
L 650 544 
L 695 544 
L 695 546 
Q 684 546 , 673 546 
Q 664 546 , 652 546 
Q 626 546 , 610 546 
Q 595 545 , 595 544 
Q 595 542 , 610 542 
Q 626 541 , 652 541 
Q 663 541 , 672 541 
Q 682 541 , 692 541 
L 692 542 
Q 679 542 , 671 542 
Q 662 542 , 653 542 
Q 632 542 , 621 542 
Q 611 543 , 611 544 
Q 611 545 , 621 545 
Q 632 546 , 653 546 
Q 662 546 , 669 546 
Q 676 546 , 679 546 
" fill="#F5C000" />
<path d="
M 645 534 
L 627 537 
L 661 537 
L 645 534 
M 638 532 
L 652 532 
L 695 541 
L 679 541 
L 667 538 
L 623 538 
L 610 541 
L 595 541 
L 638 532 
" fill="#339541" />
<path d="
M 750 554 
L 732 555 
L 766 555 
L 750 554 
M 743 554 
L 757 554 
L 800 555 
L 784 555 
L 772 555 
L 728 555 
L 715 555 
L 700 555 
L 743 554 
" fill="#339541" />
<path d="
M 800 553 
L 800 553 
Q 785 553 , 777 553 
Q 769 553 , 759 553 
Q 738 553 , 728 553 
Q 716 553 , 716 553 
Q 716 554 , 728 554 
Q 738 554 , 759 554 
Q 769 554 , 777 554 
Q 785 554 , 800 554 
L 800 554 
Q 789 554 , 779 554 
Q 769 554 , 758 554 
Q 731 554 , 716 554 
Q 700 554 , 700 553 
Q 700 553 , 716 553 
Q 731 553 , 758 553 
Q 769 553 , 779 553 
Q 790 553 , 800 553 
" fill="#545FFF" />
<path d="
M 700 552 
L 718 552 
L 718 553 
Q 718 553 , 726 553 
Q 733 553 , 750 553 
Q 767 553 , 775 553 
Q 782 553 , 782 553 
L 782 552 
L 800 552 
L 800 553 
Q 800 553 , 787 553 
Q 775 553 , 750 553 
Q 726 553 , 713 553 
Q 700 553 , 700 553 
L 700 552 
" fill="#D21010" />
<path d="
M 784 551 
L 784 551 
L 755 551 
L 755 551 
L 800 551 
L 800 551 
Q 789 551 , 778 551 
Q 769 551 , 757 551 
Q 731 551 , 715 551 
Q 700 551 , 700 551 
Q 700 550 , 715 550 
Q 731 550 , 757 550 
Q 768 550 , 777 550 
Q 787 550 , 797 550 
L 797 550 
Q 784 550 , 776 550 
Q 767 550 , 758 550 
Q 737 550 , 726 550 
Q 716 550 , 716 551 
Q 716 551 , 726 551 
Q 737 551 , 758 551 
Q 767 551 , 774 551 
Q 781 551 , 784 551 
" fill="#F5C000" />
<path d="
M 855 551 
L 837 553 
L 871 553 
L 855 551 
M 848 550 
L 862 550 
L 905 555 
L 889 555 
L 877 553 
L 833 553 
L 820 555 
L 805 555 
L 848 550 
" fill="#339541" />
<path d="
M 905 544 
L 905 545 
Q 890 544 , 882 544 
Q 874 544 , 864 544 
Q 843 544 , 833 544 
Q 821 545 , 821 546 
Q 821 548 , 833 548 
Q 843 549 , 864 549 
Q 874 549 , 882 549 
Q 890 549 , 905 548 
L 905 549 
Q 894 549 , 884 550 
Q 874 550 , 863 550 
Q 836 550 , 821 549 
Q 805 548 , 805 546 
Q 805 545 , 821 544 
Q 836 543 , 863 543 
Q 874 543 , 884 543 
Q 895 543 , 905 544 
" fill="#545FFF" />
<path d="
M 889 539 
L 889 531 
L 860 531 
L 860 528 
L 905 528 
L 905 541 
Q 894 542 , 883 542 
Q 874 543 , 862 543 
Q 836 543 , 820 539 
Q 805 535 , 805 529 
Q 805 522 , 820 519 
Q 836 515 , 862 515 
Q 873 515 , 882 515 
Q 892 516 , 902 517 
L 902 521 
Q 889 519 , 881 519 
Q 872 518 , 863 518 
Q 842 518 , 831 521 
Q 821 524 , 821 529 
Q 821 534 , 831 537 
Q 842 540 , 863 540 
Q 872 540 , 879 539 
Q 886 539 , 889 539 
" fill="#F5C000" />
<path d="
M 805 483 
L 823 483 
L 823 501 
Q 823 507 , 831 509 
Q 838 511 , 855 511 
Q 872 511 , 880 509 
Q 887 507 , 887 501 
L 887 483 
L 905 483 
L 905 502 
Q 905 508 , 892 511 
Q 880 514 , 855 514 
Q 831 514 , 818 511 
Q 805 508 , 805 502 
L 805 483 
" fill="#D21010" />
<path d="
M 960 552 
L 942 553 
L 976 553 
L 960 552 
M 953 551 
L 967 551 
L 1010 555 
L 994 555 
L 982 554 
L 938 554 
L 925 555 
L 910 555 
L 953 551 
" fill="#339541" />
<path d="
M 910 542 
L 928 542 
L 928 547 
Q 928 548 , 936 549 
Q 943 549 , 960 549 
Q 977 549 , 985 549 
Q 992 548 , 992 547 
L 992 542 
L 1010 542 
L 1010 547 
Q 1010 549 , 997 549 
Q 985 550 , 960 550 
Q 936 550 , 923 549 
Q 910 549 , 910 547 
L 910 542 
" fill="#D21010" />
<path d="
M 1010 521 
L 1010 525 
Q 995 523 , 987 522 
Q 979 521 , 969 521 
Q 948 521 , 938 524 
Q 926 526 , 926 530 
Q 926 534 , 938 537 
Q 948 539 , 969 539 
Q 979 539 , 987 538 
Q 995 538 , 1010 536 
L 1010 539 
Q 999 540 , 989 541 
Q 979 541 , 968 541 
Q 941 541 , 926 538 
Q 910 535 , 910 530 
Q 910 525 , 926 522 
Q 941 519 , 968 519 
Q 979 519 , 989 520 
Q 1000 520 , 1010 521 
" fill="#545FFF" />
<path d="
M 994 514 
L 994 506 
L 965 506 
L 965 503 
L 1010 503 
L 1010 516 
Q 999 517 , 988 518 
Q 979 518 , 967 518 
Q 941 518 , 925 515 
Q 910 511 , 910 504 
Q 910 497 , 925 493 
Q 941 489 , 967 489 
Q 978 489 , 987 490 
Q 997 490 , 1007 491 
L 1007 495 
Q 994 493 , 986 493 
Q 977 493 , 968 493 
Q 947 493 , 936 495 
Q 926 498 , 926 504 
Q 926 510 , 936 512 
Q 947 515 , 968 515 
Q 977 515 , 984 515 
Q 991 515 , 994 514 
" fill="#F5C000" />
<path d="
M 1065 552 
L 1047 553 
L 1081 553 
L 1065 552 
M 1058 551 
L 1072 551 
L 1115 554 
L 1099 554 
L 1087 553 
L 1043 553 
L 1030 554 
L 1015 554 
L 1058 551 
" fill="#339541" />
<path d="
M 1015 544 
L 1033 544 
L 1033 548 
Q 1033 549 , 1041 550 
Q 1048 550 , 1065 550 
Q 1082 550 , 1090 550 
Q 1097 549 , 1097 548 
L 1097 544 
L 1115 544 
L 1115 548 
Q 1115 550 , 1102 550 
Q 1090 551 , 1065 551 
Q 1041 551 , 1028 550 
Q 1015 550 , 1015 548 
L 1015 544 
" fill="#D21010" />
<path d="
M 1115 530 
L 1115 532 
Q 1100 531 , 1092 530 
Q 1084 530 , 1074 530 
Q 1053 530 , 1043 531 
Q 1031 533 , 1031 536 
Q 1031 539 , 1043 540 
Q 1053 542 , 1074 542 
Q 1084 542 , 1092 541 
Q 1100 541 , 1115 539 
L 1115 542 
Q 1104 543 , 1094 543 
Q 1084 544 , 1073 544 
Q 1046 544 , 1031 541 
Q 1015 539 , 1015 536 
Q 1015 532 , 1031 530 
Q 1046 528 , 1073 528 
Q 1084 528 , 1094 528 
Q 1105 529 , 1115 530 
" fill="#545FFF" />
<path d="
M 1099 525 
L 1099 520 
L 1070 520 
L 1070 518 
L 1115 518 
L 1115 526 
Q 1104 526 , 1093 527 
Q 1084 527 , 1072 527 
Q 1046 527 , 1030 525 
Q 1015 522 , 1015 519 
Q 1015 515 , 1030 512 
Q 1046 510 , 1072 510 
Q 1083 510 , 1092 510 
Q 1102 511 , 1112 511 
L 1112 514 
Q 1099 513 , 1091 512 
Q 1082 512 , 1073 512 
Q 1052 512 , 1041 514 
Q 1031 515 , 1031 519 
Q 1031 522 , 1041 523 
Q 1052 525 , 1073 525 
Q 1082 525 , 1089 525 
Q 1096 525 , 1099 525 
" fill="#F5C000" />
<path d="
M 1162 554 
L 1162 553 
L 1148 553 
L 1148 553 
L 1170 553 
L 1170 554 
Q 1165 554 , 1159 554 
Q 1154 554 , 1148 554 
Q 1135 554 , 1128 554 
Q 1120 554 , 1120 553 
Q 1120 553 , 1128 552 
Q 1135 552 , 1148 552 
Q 1154 552 , 1159 552 
Q 1164 552 , 1169 552 
L 1169 552 
Q 1162 552 , 1158 552 
Q 1154 552 , 1149 552 
Q 1139 552 , 1133 552 
Q 1128 553 , 1128 553 
Q 1128 554 , 1133 554 
Q 1139 554 , 1149 554 
Q 1154 554 , 1157 554 
Q 1161 554 , 1162 554 
" fill="lightgray" />
<path d="
M 1170 552 
L 1179 552 
L 1179 553 
Q 1179 554 , 1183 554 
Q 1186 554 , 1195 554 
Q 1204 554 , 1207 554 
Q 1211 554 , 1211 553 
L 1211 552 
L 1220 552 
L 1220 553 
Q 1220 554 , 1214 554 
Q 1207 554 , 1195 554 
Q 1183 554 , 1176 554 
Q 1170 554 , 1170 553 
L 1170 552 
" fill="#D21010" />
<path d="
M 1120 549 
L 1129 549 
L 1129 551 
Q 1129 551 , 1133 551 
Q 1136 552 , 1145 552 
Q 1154 552 , 1157 551 
Q 1161 551 , 1161 551 
L 1161 549 
L 1170 549 
L 1170 551 
Q 1170 551 , 1164 552 
Q 1157 552 , 1145 552 
Q 1133 552 , 1126 552 
Q 1120 551 , 1120 551 
L 1120 549 
" fill="lightgray" />
<path d="
M 1212 552 
L 1212 551 
L 1198 551 
L 1198 550 
L 1220 550 
L 1220 552 
Q 1215 552 , 1209 552 
Q 1204 552 , 1198 552 
Q 1185 552 , 1178 552 
Q 1170 551 , 1170 550 
Q 1170 550 , 1178 549 
Q 1185 549 , 1198 549 
Q 1204 549 , 1209 549 
Q 1214 549 , 1219 549 
L 1219 550 
Q 1212 549 , 1208 549 
Q 1204 549 , 1199 549 
Q 1189 549 , 1183 550 
Q 1178 550 , 1178 550 
Q 1178 551 , 1183 551 
Q 1189 552 , 1199 552 
Q 1204 552 , 1207 552 
Q 1211 552 , 1212 552 
" fill="#F5C000" />
<path d="
M 1170 542 
L 1170 543 
Q 1163 542 , 1159 542 
Q 1154 542 , 1149 542 
Q 1139 542 , 1134 543 
Q 1128 543 , 1128 544 
Q 1128 546 , 1134 547 
Q 1139 547 , 1149 547 
Q 1154 547 , 1159 547 
Q 1163 547 , 1170 546 
L 1170 548 
Q 1165 548 , 1159 548 
Q 1155 548 , 1149 548 
Q 1135 548 , 1128 547 
Q 1120 546 , 1120 545 
Q 1120 543 , 1128 542 
Q 1135 541 , 1149 541 
Q 1155 541 , 1160 541 
Q 1165 541 , 1170 542 
" fill="lightgray" />
<path d="
M 1212 547 
L 1212 545 
L 1198 545 
L 1198 544 
L 1220 544 
L 1220 548 
Q 1215 548 , 1209 548 
Q 1204 548 , 1198 548 
Q 1185 548 , 1178 547 
Q 1170 546 , 1170 545 
Q 1170 543 , 1178 542 
Q 1185 541 , 1198 541 
Q 1204 541 , 1209 541 
Q 1214 541 , 1219 542 
L 1219 543 
Q 1212 542 , 1208 542 
Q 1204 542 , 1199 542 
Q 1189 542 , 1183 543 
Q 1178 543 , 1178 545 
Q 1178 546 , 1183 547 
Q 1189 547 , 1199 547 
Q 1204 547 , 1207 547 
Q 1211 547 , 1212 547 
" fill="#F5C000" />
<path d="
M 1120 526 
L 1129 526 
L 1129 534 
Q 1129 537 , 1133 538 
Q 1136 539 , 1145 539 
Q 1154 539 , 1157 538 
Q 1161 537 , 1161 534 
L 1161 526 
L 1170 526 
L 1170 535 
Q 1170 537 , 1164 539 
Q 1157 540 , 1145 540 
Q 1133 540 , 1126 539 
Q 1120 537 , 1120 535 
L 1120 526 
" fill="lightgray" />
<path d="
M 1195 529 
L 1186 535 
L 1203 535 
L 1195 529 
M 1191 526 
L 1199 526 
L 1220 540 
L 1212 540 
L 1206 536 
L 1184 536 
L 1177 540 
L 1170 540 
L 1191 526 
" fill="#339541" />
<path d="
M 1145 512 
L 1136 519 
L 1153 519 
L 1145 512 
M 1141 509 
L 1149 509 
L 1170 526 
L 1162 526 
L 1156 521 
L 1134 521 
L 1127 526 
L 1120 526 
L 1141 509 
" fill="lightgray" />
<path d="
M 1170 509 
L 1179 509 
L 1179 519 
Q 1179 522 , 1183 523 
Q 1186 524 , 1195 524 
Q 1204 524 , 1207 523 
Q 1211 522 , 1211 519 
L 1211 509 
L 1220 509 
L 1220 519 
Q 1220 522 , 1214 524 
Q 1207 526 , 1195 526 
Q 1183 526 , 1176 524 
Q 1170 522 , 1170 519 
L 1170 509 
" fill="#D21010" />
<path d="
M 1162 506 
L 1162 501 
L 1148 501 
L 1148 498 
L 1170 498 
L 1170 507 
Q 1165 508 , 1159 508 
Q 1154 509 , 1148 509 
Q 1135 509 , 1128 506 
Q 1120 503 , 1120 499 
Q 1120 494 , 1128 492 
Q 1135 489 , 1148 489 
Q 1154 489 , 1159 489 
Q 1164 490 , 1169 491 
L 1169 493 
Q 1162 492 , 1158 492 
Q 1154 491 , 1149 491 
Q 1139 491 , 1133 493 
Q 1128 495 , 1128 499 
Q 1128 503 , 1133 505 
Q 1139 506 , 1149 506 
Q 1154 506 , 1157 506 
Q 1161 506 , 1162 506 
" fill="lightgray" />
<path d="
M 1220 491 
L 1220 494 
Q 1213 492 , 1209 492 
Q 1204 491 , 1199 491 
Q 1189 491 , 1184 493 
Q 1178 495 , 1178 499 
Q 1178 503 , 1184 505 
Q 1189 507 , 1199 507 
Q 1204 507 , 1209 506 
Q 1213 505 , 1220 504 
L 1220 507 
Q 1215 508 , 1209 508 
Q 1205 509 , 1199 509 
Q 1185 509 , 1178 506 
Q 1170 503 , 1170 499 
Q 1170 494 , 1178 492 
Q 1185 489 , 1199 489 
Q 1205 489 , 1210 489 
Q 1215 490 , 1220 491 
" fill="#545FFF" />
<path d="
M 1325 552 
L 1325 553 
Q 1310 552 , 1302 552 
Q 1294 552 , 1284 552 
Q 1263 552 , 1253 553 
Q 1241 553 , 1241 553 
Q 1241 554 , 1253 554 
Q 1263 554 , 1284 554 
Q 1294 554 , 1302 554 
Q 1310 554 , 1325 554 
L 1325 554 
Q 1314 555 , 1304 555 
Q 1294 555 , 1283 555 
Q 1256 555 , 1241 554 
Q 1225 554 , 1225 553 
Q 1225 553 , 1241 552 
Q 1256 552 , 1283 552 
Q 1294 552 , 1304 552 
Q 1315 552 , 1325 552 
" fill="#545FFF" />
<path d="
M 1225 542 
L 1243 542 
L 1243 548 
Q 1243 549 , 1251 550 
Q 1258 551 , 1275 551 
Q 1292 551 , 1300 550 
Q 1307 549 , 1307 548 
L 1307 542 
L 1325 542 
L 1325 548 
Q 1325 550 , 1312 551 
Q 1300 552 , 1275 552 
Q 1251 552 , 1238 551 
Q 1225 550 , 1225 548 
L 1225 542 
" fill="#D21010" />
<path d="
M 1275 532 
L 1257 537 
L 1291 537 
L 1275 532 
M 1268 530 
L 1282 530 
L 1325 542 
L 1309 542 
L 1297 538 
L 1253 538 
L 1240 542 
L 1225 542 
L 1268 530 
" fill="#339541" />
<path d="
M 1309 527 
L 1309 522 
L 1280 522 
L 1280 521 
L 1325 521 
L 1325 528 
Q 1314 529 , 1303 529 
Q 1294 530 , 1282 530 
Q 1256 530 , 1240 527 
Q 1225 525 , 1225 521 
Q 1225 517 , 1240 514 
Q 1256 512 , 1282 512 
Q 1293 512 , 1302 512 
Q 1312 513 , 1322 513 
L 1322 516 
Q 1309 515 , 1301 514 
Q 1292 514 , 1283 514 
Q 1262 514 , 1251 516 
Q 1241 517 , 1241 521 
Q 1241 524 , 1251 526 
Q 1262 528 , 1283 528 
Q 1292 528 , 1299 528 
Q 1306 527 , 1309 527 
" fill="#F5C000" />
<path d="
M 1380 554 
L 1362 555 
L 1396 555 
L 1380 554 
M 1373 554 
L 1387 554 
L 1430 555 
L 1414 555 
L 1402 555 
L 1358 555 
L 1345 555 
L 1330 555 
L 1373 554 
" fill="#339541" />
<path d="
M 1430 553 
L 1430 553 
Q 1415 553 , 1407 553 
Q 1399 553 , 1389 553 
Q 1368 553 , 1358 553 
Q 1346 553 , 1346 553 
Q 1346 554 , 1358 554 
Q 1368 554 , 1389 554 
Q 1399 554 , 1407 554 
Q 1415 554 , 1430 554 
L 1430 554 
Q 1419 554 , 1409 554 
Q 1399 554 , 1388 554 
Q 1361 554 , 1346 554 
Q 1330 554 , 1330 553 
Q 1330 553 , 1346 553 
Q 1361 553 , 1388 553 
Q 1399 553 , 1409 553 
Q 1420 553 , 1430 553 
" fill="#545FFF" />
<path d="
M 1330 552 
L 1348 552 
L 1348 553 
Q 1348 553 , 1356 553 
Q 1363 553 , 1380 553 
Q 1397 553 , 1405 553 
Q 1412 553 , 1412 553 
L 1412 552 
L 1430 552 
L 1430 553 
Q 1430 553 , 1417 553 
Q 1405 553 , 1380 553 
Q 1356 553 , 1343 553 
Q 1330 553 , 1330 553 
L 1330 552 
" fill="#D21010" />
<path d="
M 1414 551 
L 1414 551 
L 1385 551 
L 1385 551 
L 1430 551 
L 1430 551 
Q 1419 551 , 1408 551 
Q 1399 551 , 1387 551 
Q 1361 551 , 1345 551 
Q 1330 551 , 1330 551 
Q 1330 550 , 1345 550 
Q 1361 550 , 1387 550 
Q 1398 550 , 1407 550 
Q 1417 550 , 1427 550 
L 1427 550 
Q 1414 550 , 1406 550 
Q 1397 550 , 1388 550 
Q 1367 550 , 1356 550 
Q 1346 550 , 1346 551 
Q 1346 551 , 1356 551 
Q 1367 551 , 1388 551 
Q 1397 551 , 1404 551 
Q 1411 551 , 1414 551 
" fill="#F5C000" />
<path d="M 65 168 L 65 555 " stroke="black" stroke-width="1.5"/>
<path d="M 55 555 L 65 555 " stroke="black" stroke-width="4"/>
<text text-anchor="end" x="50" y="555" font-size="50" alignment-baseline="middle">0</text>
<path d="M 55 362 L 65 362 " stroke="black" stroke-width="4"/>
<text text-anchor="end" x="50" y="362" font-size="50" alignment-baseline="middle">1</text>
<path d="M 55 168 L 65 168 " stroke="black" stroke-width="4"/>
<text text-anchor="end" x="50" y="168" font-size="50" alignment-baseline="middle">2</text>
<text text-anchor="middle" x="750" y="50" font-size="50" alignment-baseline="baseline"></text>
G<path d="
M 160 582 
L 126 595 
L 160 608 
L 157 611 
L 123 598 
L 123 623 
L 117 623 
L 117 599 
L 83 611 
L 80 608 
L 114 595 
L 80 582 
L 83 579 
L 117 591 
L 117 567 
L 123 567 
L 123 591 
L 157 579 
L 160 582 
" fill="black" />
<path d="
" fill="black" />
<path d="
M 211 567 
L 238 567 
L 238 623 
L 211 623 
L 211 567 
" fill="black" />
<path d="
" fill="black" />
<path d="
M 370 567 
Q 341 574 , 328 581 
Q 315 588 , 315 595 
Q 315 602 , 328 609 
Q 341 616 , 370 623 
L 346 623 
Q 318 616 , 304 609 
Q 290 602 , 290 595 
Q 290 588 , 304 581 
Q 318 574 , 346 567 
L 370 567 
" fill="black" />
<path d="
" fill="black" />
<path d="
M 421 567 
L 448 567 
L 448 623 
L 421 623 
L 421 567 
" fill="black" />
<path d="
" fill="black" />
<path d="
" fill="black" />
<path d="
M 526 567 
L 553 567 
L 553 623 
L 526 623 
L 526 567 
" fill="black" />
<path d="
" fill="black" />
<path d="
" fill="black" />
<path d="
M 622 567 
L 642 567 
L 642 623 
L 622 623 
L 622 567 
" fill="black" />
<path d="
" fill="black" />
<path d="
M 682 595 
Q 679 595 , 677 599 
Q 675 602 , 675 607 
Q 675 613 , 677 616 
Q 679 619 , 682 619 
Q 685 619 , 687 616 
Q 689 613 , 689 607 
Q 689 602 , 687 599 
Q 685 595 , 682 595 
M 677 593 
Q 675 592 , 674 589 
Q 673 586 , 673 581 
Q 673 575 , 675 571 
Q 678 567 , 682 567 
Q 686 567 , 689 571 
Q 691 575 , 691 581 
Q 691 586 , 690 589 
Q 688 592 , 687 593 
Q 689 594 , 690 598 
Q 692 601 , 692 607 
Q 692 614 , 689 619 
Q 687 623 , 682 623 
Q 677 623 , 675 619 
Q 672 614 , 672 607 
Q 672 601 , 674 598 
Q 675 594 , 677 593 
M 677 573 
Q 675 576 , 675 581 
Q 675 586 , 677 589 
Q 679 592 , 682 592 
Q 685 592 , 687 589 
Q 689 586 , 689 581 
Q 689 576 , 687 574 
Q 685 571 , 682 571 
Q 679 571 , 677 573 
" fill="black" />
<path d="
M 790 582 
L 756 595 
L 790 608 
L 787 611 
L 753 598 
L 753 623 
L 747 623 
L 747 599 
L 713 611 
L 710 608 
L 744 595 
L 710 582 
L 713 579 
L 747 591 
L 747 567 
L 753 567 
L 753 591 
L 787 579 
L 790 582 
" fill="black" />
<path d="
" fill="black" />
<path d="
M 841 567 
L 868 567 
L 868 623 
L 841 623 
L 841 567 
" fill="black" />
<path d="
" fill="black" />
<path d="
" fill="black" />
<path d="
M 946 567 
L 973 567 
L 973 623 
L 946 623 
L 946 567 
" fill="black" />
<path d="
" fill="black" />
<path d="
" fill="black" />
<path d="
M 1051 567 
L 1078 567 
L 1078 623 
L 1051 623 
L 1051 567 
" fill="black" />
<path d="
" fill="black" />
<path d="
M 1130 567 
L 1154 567 
Q 1182 574 , 1196 581 
Q 1210 588 , 1210 595 
Q 1210 602 , 1196 609 
Q 1182 616 , 1154 623 
L 1130 623 
Q 1159 616 , 1172 609 
Q 1185 602 , 1185 595 
Q 1185 588 , 1172 581 
Q 1159 574 , 1130 567 
" fill="black" />
<path d="
" fill="black" />
<path d="
M 1261 567 
L 1288 567 
L 1288 623 
L 1261 623 
L 1261 567 
" fill="black" />
<path d="
" fill="black" />
<path d="
M 1420 582 
L 1386 595 
L 1420 608 
L 1417 611 
L 1383 598 
L 1383 623 
L 1377 623 
L 1377 599 
L 1343 611 
L 1340 608 
L 1374 595 
L 1340 582 
L 1343 579 
L 1377 591 
L 1377 567 
L 1383 567 
L 1383 591 
L 1417 579 
L 1420 582 
" fill="black" />
</svg>
