<svg xmlns="http://www.w3.org/2000/svg"
viewBox="0 0 1330 635">
<path d="
M 120 554 
L 102 554 
L 136 554 
L 120 554 
M 113 554 
L 127 554 
L 170 554 
L 154 554 
L 142 554 
L 98 554 
L 85 554 
L 70 554 
L 113 554 
" fill="#339541" />
<path d="
M 70 553 
L 88 553 
L 88 553 
Q 88 553 , 96 553 
Q 103 554 , 120 554 
Q 137 554 , 145 553 
Q 152 553 , 152 553 
L 152 553 
L 170 553 
L 170 553 
Q 170 553 , 157 554 
Q 145 554 , 120 554 
Q 96 554 , 83 554 
Q 70 553 , 70 553 
L 70 553 
" fill="#D21010" />
<path d="
M 170 552 
L 170 552 
Q 155 552 , 147 552 
Q 139 552 , 129 552 
Q 108 552 , 98 552 
Q 86 552 , 86 552 
Q 86 552 , 98 552 
Q 108 553 , 129 553 
Q 139 553 , 147 553 
Q 155 552 , 170 552 
L 170 553 
Q 159 553 , 149 553 
Q 139 553 , 128 553 
Q 101 553 , 86 553 
Q 70 552 , 70 552 
Q 70 552 , 86 552 
Q 101 552 , 128 552 
Q 139 552 , 149 552 
Q 160 552 , 170 552 
" fill="#545FFF" />
<path d="
M 154 552 
L 154 551 
L 125 551 
L 125 551 
L 170 551 
L 170 552 
Q 159 552 , 148 552 
Q 139 552 , 127 552 
Q 101 552 , 85 552 
Q 70 551 , 70 551 
Q 70 551 , 85 551 
Q 101 551 , 127 551 
Q 138 551 , 147 551 
Q 157 551 , 167 551 
L 167 551 
Q 154 551 , 146 551 
Q 137 551 , 128 551 
Q 107 551 , 96 551 
Q 86 551 , 86 551 
Q 86 551 , 96 552 
Q 107 552 , 128 552 
Q 137 552 , 144 552 
Q 151 552 , 154 552 
" fill="#F5C000" />
<path d="
M 259 554 
L 259 553 
L 230 553 
L 230 552 
L 275 552 
L 275 554 
Q 264 555 , 253 555 
Q 244 555 , 232 555 
Q 206 555 , 190 554 
Q 175 553 , 175 552 
Q 175 551 , 190 551 
Q 206 550 , 232 550 
Q 243 550 , 252 550 
Q 262 550 , 272 550 
L 272 551 
Q 259 551 , 251 551 
Q 242 551 , 233 551 
Q 212 551 , 201 551 
Q 191 551 , 191 552 
Q 191 553 , 201 554 
Q 212 554 , 233 554 
Q 242 554 , 249 554 
Q 256 554 , 259 554 
" fill="#F5C000" />
<path d="
M 225 545 
L 207 547 
L 241 547 
L 225 545 
M 218 544 
L 232 544 
L 275 549 
L 259 549 
L 247 548 
L 203 548 
L 190 549 
L 175 549 
L 218 544 
" fill="#339541" />
<path d="
M 275 538 
L 275 539 
Q 260 538 , 252 538 
Q 244 538 , 234 538 
Q 213 538 , 203 538 
Q 191 539 , 191 540 
Q 191 541 , 203 542 
Q 213 543 , 234 543 
Q 244 543 , 252 542 
Q 260 542 , 275 542 
L 275 543 
Q 264 543 , 254 543 
Q 244 543 , 233 543 
Q 206 543 , 191 542 
Q 175 542 , 175 540 
Q 175 539 , 191 538 
Q 206 537 , 233 537 
Q 244 537 , 254 537 
Q 265 537 , 275 538 
" fill="#545FFF" />
<path d="
M 175 524 
L 193 524 
L 193 531 
Q 193 533 , 201 534 
Q 208 535 , 225 535 
Q 242 535 , 250 534 
Q 257 533 , 257 531 
L 257 524 
L 275 524 
L 275 531 
Q 275 534 , 262 535 
Q 250 536 , 225 536 
Q 201 536 , 188 535 
Q 175 534 , 175 531 
L 175 524 
" fill="#D21010" />
<path d="
M 330 551 
L 312 553 
L 346 553 
L 330 551 
M 323 550 
L 337 550 
L 380 555 
L 364 555 
L 352 553 
L 308 553 
L 295 555 
L 280 555 
L 323 550 
" fill="#339541" />
<path d="
M 280 533 
L 298 533 
L 298 543 
Q 298 546 , 306 547 
Q 313 548 , 330 548 
Q 347 548 , 355 547 
Q 362 546 , 362 543 
L 362 533 
L 380 533 
L 380 543 
Q 380 546 , 367 548 
Q 355 550 , 330 550 
Q 306 550 , 293 548 
Q 280 546 , 280 543 
L 280 533 
" fill="#D21010" />
<path d="
M 364 528 
L 364 519 
L 335 519 
L 335 515 
L 380 515 
L 380 530 
Q 369 531 , 358 532 
Q 349 532 , 337 532 
Q 311 532 , 295 528 
Q 280 524 , 280 516 
Q 280 509 , 295 504 
Q 311 500 , 337 500 
Q 348 500 , 357 501 
Q 367 501 , 377 503 
L 377 507 
Q 364 505 , 356 504 
Q 347 504 , 338 504 
Q 317 504 , 306 507 
Q 296 510 , 296 516 
Q 296 523 , 306 526 
Q 317 529 , 338 529 
Q 347 529 , 354 528 
Q 361 528 , 364 528 
" fill="#F5C000" />
<path d="
M 380 414 
L 380 429 
Q 365 419 , 357 417 
Q 349 415 , 339 415 
Q 318 415 , 308 424 
Q 296 433 , 296 451 
Q 296 470 , 308 480 
Q 318 489 , 339 489 
Q 349 489 , 357 487 
Q 365 484 , 380 475 
L 380 490 
Q 369 495 , 359 497 
Q 349 500 , 338 500 
Q 311 500 , 296 487 
Q 280 474 , 280 452 
Q 280 430 , 296 417 
Q 311 404 , 338 404 
Q 349 404 , 359 406 
Q 370 409 , 380 414 
" fill="#545FFF" />
<path d="
M 435 552 
L 417 553 
L 451 553 
L 435 552 
M 428 552 
L 442 552 
L 485 554 
L 469 554 
L 457 554 
L 413 554 
L 400 554 
L 385 554 
L 428 552 
" fill="#339541" />
<path d="
M 485 535 
L 485 538 
Q 470 536 , 462 536 
Q 454 535 , 444 535 
Q 423 535 , 413 537 
Q 401 539 , 401 542 
Q 401 546 , 413 548 
Q 423 549 , 444 549 
Q 454 549 , 462 549 
Q 470 548 , 485 547 
L 485 550 
Q 474 551 , 464 551 
Q 454 551 , 443 551 
Q 416 551 , 401 549 
Q 385 546 , 385 542 
Q 385 538 , 401 536 
Q 416 533 , 443 533 
Q 454 533 , 464 533 
Q 475 534 , 485 535 
" fill="#545FFF" />
<path d="
M 385 511 
L 403 511 
L 403 524 
Q 403 527 , 411 529 
Q 418 530 , 435 530 
Q 452 530 , 460 529 
Q 467 527 , 467 524 
L 467 511 
L 485 511 
L 485 524 
Q 485 528 , 472 530 
Q 460 533 , 435 533 
Q 411 533 , 398 530 
Q 385 528 , 385 524 
L 385 511 
" fill="#D21010" />
<path d="
M 469 507 
L 469 500 
L 440 500 
L 440 497 
L 485 497 
L 485 509 
Q 474 510 , 463 510 
Q 454 511 , 442 511 
Q 416 511 , 400 507 
Q 385 504 , 385 498 
Q 385 492 , 400 488 
Q 416 485 , 442 485 
Q 453 485 , 462 485 
Q 472 486 , 482 487 
L 482 490 
Q 469 489 , 461 488 
Q 452 488 , 443 488 
Q 422 488 , 411 490 
Q 401 493 , 401 498 
Q 401 503 , 411 505 
Q 422 508 , 443 508 
Q 452 508 , 459 508 
Q 466 507 , 469 507 
" fill="#F5C000" />
<path d="
M 540 550 
L 522 552 
L 556 552 
L 540 550 
M 533 549 
L 547 549 
L 590 555 
L 574 555 
L 562 553 
L 518 553 
L 505 555 
L 490 555 
L 533 549 
" fill="#339541" />
<path d="
M 574 548 
L 574 546 
L 545 546 
L 545 545 
L 590 545 
L 590 548 
Q 579 548 , 568 549 
Q 559 549 , 547 549 
Q 521 549 , 505 548 
Q 490 547 , 490 545 
Q 490 543 , 505 542 
Q 521 541 , 547 541 
Q 558 541 , 567 541 
Q 577 541 , 587 542 
L 587 543 
Q 574 542 , 566 542 
Q 557 542 , 548 542 
Q 527 542 , 516 543 
Q 506 543 , 506 545 
Q 506 546 , 516 547 
Q 527 548 , 548 548 
Q 557 548 , 564 548 
Q 571 548 , 574 548 
" fill="#F5C000" />
<path d="
M 490 530 
L 508 530 
L 508 536 
Q 508 538 , 516 538 
Q 523 539 , 540 539 
Q 557 539 , 565 538 
Q 572 538 , 572 536 
L 572 530 
L 590 530 
L 590 536 
Q 590 538 , 577 539 
Q 565 540 , 540 540 
Q 516 540 , 503 539 
Q 490 538 , 490 536 
L 490 530 
" fill="#D21010" />
<path d="
M 590 511 
L 590 514 
Q 575 512 , 567 512 
Q 559 511 , 549 511 
Q 528 511 , 518 513 
Q 506 515 , 506 519 
Q 506 523 , 518 526 
Q 528 528 , 549 528 
Q 559 528 , 567 527 
Q 575 527 , 590 524 
L 590 528 
Q 579 529 , 569 529 
Q 559 530 , 548 530 
Q 521 530 , 506 527 
Q 490 524 , 490 519 
Q 490 515 , 506 512 
Q 521 509 , 548 509 
Q 559 509 , 569 510 
Q 580 510 , 590 511 
" fill="#545FFF" />
<path d="
M 645 553 
L 627 554 
L 661 554 
L 645 553 
M 638 552 
L 652 552 
L 695 555 
L 679 555 
L 667 554 
L 623 554 
L 610 555 
L 595 555 
L 638 552 
" fill="#339541" />
<path d="
M 695 537 
L 695 539 
Q 680 538 , 672 537 
Q 664 537 , 654 537 
Q 633 537 , 623 538 
Q 611 540 , 611 543 
Q 611 547 , 623 548 
Q 633 550 , 654 550 
Q 664 550 , 672 549 
Q 680 549 , 695 547 
L 695 550 
Q 684 551 , 674 551 
Q 664 552 , 653 552 
Q 626 552 , 611 549 
Q 595 547 , 595 543 
Q 595 539 , 611 537 
Q 626 535 , 653 535 
Q 664 535 , 674 535 
Q 685 536 , 695 537 
" fill="#545FFF" />
<path d="
M 679 530 
L 679 521 
L 650 521 
L 650 517 
L 695 517 
L 695 532 
Q 684 534 , 673 534 
Q 664 535 , 652 535 
Q 626 535 , 610 530 
Q 595 526 , 595 518 
Q 595 510 , 610 506 
Q 626 501 , 652 501 
Q 663 501 , 672 502 
Q 682 502 , 692 504 
L 692 508 
Q 679 506 , 671 506 
Q 662 505 , 653 505 
Q 632 505 , 621 508 
Q 611 511 , 611 518 
Q 611 525 , 621 528 
Q 632 531 , 653 531 
Q 662 531 , 669 531 
Q 676 530 , 679 530 
" fill="#F5C000" />
<path d="
M 595 440 
L 613 440 
L 613 476 
Q 613 486 , 621 490 
Q 628 494 , 645 494 
Q 662 494 , 670 490 
Q 677 486 , 677 476 
L 677 440 
L 695 440 
L 695 477 
Q 695 488 , 682 495 
Q 670 501 , 645 501 
Q 621 501 , 608 495 
Q 595 488 , 595 477 
L 595 440 
" fill="#D21010" />
<path d="
M 750 552 
L 732 553 
L 766 553 
L 750 552 
M 743 551 
L 757 551 
L 800 554 
L 784 554 
L 772 553 
L 728 553 
L 715 554 
L 700 554 
L 743 551 
" fill="#339541" />
<path d="
M 700 533 
L 718 533 
L 718 543 
Q 718 546 , 726 547 
Q 733 548 , 750 548 
Q 767 548 , 775 547 
Q 782 546 , 782 543 
L 782 533 
L 800 533 
L 800 543 
Q 800 547 , 787 548 
Q 775 550 , 750 550 
Q 726 550 , 713 548 
Q 700 547 , 700 543 
L 700 533 
" fill="#D21010" />
<path d="
M 800 509 
L 800 513 
Q 785 510 , 777 510 
Q 769 509 , 759 509 
Q 738 509 , 728 512 
Q 716 514 , 716 519 
Q 716 525 , 728 527 
Q 738 530 , 759 530 
Q 769 530 , 777 529 
Q 785 529 , 800 526 
L 800 530 
Q 789 532 , 779 532 
Q 769 533 , 758 533 
Q 731 533 , 716 529 
Q 700 526 , 700 520 
Q 700 513 , 716 510 
Q 731 506 , 758 506 
Q 769 506 , 779 507 
Q 790 507 , 800 509 
" fill="#545FFF" />
<path d="
M 784 498 
L 784 484 
L 755 484 
L 755 478 
L 800 478 
L 800 501 
Q 789 503 , 778 504 
Q 769 505 , 757 505 
Q 731 505 , 715 498 
Q 700 491 , 700 480 
Q 700 468 , 715 461 
Q 731 454 , 757 454 
Q 768 454 , 777 455 
Q 787 456 , 797 458 
L 797 465 
Q 784 462 , 776 461 
Q 767 460 , 758 460 
Q 737 460 , 726 465 
Q 716 470 , 716 480 
Q 716 490 , 726 495 
Q 737 499 , 758 499 
Q 767 499 , 774 499 
Q 781 498 , 784 498 
" fill="#F5C000" />
<path d="
M 855 548 
L 837 551 
L 871 551 
L 855 548 
M 848 547 
L 862 547 
L 905 554 
L 889 554 
L 877 552 
L 833 552 
L 820 554 
L 805 554 
L 848 547 
" fill="#339541" />
<path d="
M 889 545 
L 889 543 
L 860 543 
L 860 542 
L 905 542 
L 905 546 
Q 894 546 , 883 546 
Q 874 546 , 862 546 
Q 836 546 , 820 545 
Q 805 544 , 805 542 
Q 805 540 , 820 539 
Q 836 538 , 862 538 
Q 873 538 , 882 538 
Q 892 538 , 902 539 
L 902 540 
Q 889 539 , 881 539 
Q 872 539 , 863 539 
Q 842 539 , 831 540 
Q 821 541 , 821 542 
Q 821 544 , 831 545 
Q 842 545 , 863 545 
Q 872 545 , 879 545 
Q 886 545 , 889 545 
" fill="#F5C000" />
<path d="
M 905 515 
L 905 519 
Q 890 516 , 882 515 
Q 874 515 , 864 515 
Q 843 515 , 833 517 
Q 821 520 , 821 525 
Q 821 530 , 833 532 
Q 843 535 , 864 535 
Q 874 535 , 882 534 
Q 890 533 , 905 531 
L 905 535 
Q 894 536 , 884 537 
Q 874 537 , 863 537 
Q 836 537 , 821 534 
Q 805 531 , 805 525 
Q 805 519 , 821 515 
Q 836 512 , 863 512 
Q 874 512 , 884 513 
Q 895 513 , 905 515 
" fill="#545FFF" />
<path d="
M 805 473 
L 823 473 
L 823 496 
Q 823 502 , 831 505 
Q 838 507 , 855 507 
Q 872 507 , 880 505 
Q 887 502 , 887 496 
L 887 473 
L 905 473 
L 905 496 
Q 905 504 , 892 508 
Q 880 512 , 855 512 
Q 831 512 , 818 508 
Q 805 504 , 805 496 
L 805 473 
" fill="#D21010" />
<path d="
M 960 552 
L 942 553 
L 976 553 
L 960 552 
M 953 552 
L 967 552 
L 1010 554 
L 994 554 
L 982 554 
L 938 554 
L 925 554 
L 910 554 
L 953 552 
" fill="#339541" />
<path d="
M 910 534 
L 928 534 
L 928 544 
Q 928 547 , 936 548 
Q 943 549 , 960 549 
Q 977 549 , 985 548 
Q 992 547 , 992 544 
L 992 534 
L 1010 534 
L 1010 544 
Q 1010 548 , 997 549 
Q 985 551 , 960 551 
Q 936 551 , 923 549 
Q 910 548 , 910 544 
L 910 534 
" fill="#D21010" />
<path d="
M 1010 515 
L 1010 518 
Q 995 516 , 987 516 
Q 979 515 , 969 515 
Q 948 515 , 938 517 
Q 926 519 , 926 523 
Q 926 527 , 938 529 
Q 948 531 , 969 531 
Q 979 531 , 987 530 
Q 995 530 , 1010 528 
L 1010 531 
Q 999 532 , 989 533 
Q 979 533 , 968 533 
Q 941 533 , 926 530 
Q 910 528 , 910 523 
Q 910 518 , 926 516 
Q 941 513 , 968 513 
Q 979 513 , 989 513 
Q 1000 514 , 1010 515 
" fill="#545FFF" />
<path d="
M 994 509 
L 994 503 
L 965 503 
L 965 501 
L 1010 501 
L 1010 511 
Q 999 512 , 988 512 
Q 979 513 , 967 513 
Q 941 513 , 925 510 
Q 910 507 , 910 501 
Q 910 496 , 925 493 
Q 941 490 , 967 490 
Q 978 490 , 987 490 
Q 997 491 , 1007 492 
L 1007 495 
Q 994 493 , 986 493 
Q 977 493 , 968 493 
Q 947 493 , 936 495 
Q 926 497 , 926 501 
Q 926 506 , 936 508 
Q 947 510 , 968 510 
Q 977 510 , 984 510 
Q 991 510 , 994 509 
" fill="#F5C000" />
<path d="
M 1065 553 
L 1047 554 
L 1081 554 
L 1065 553 
M 1058 552 
L 1072 552 
L 1115 555 
L 1099 555 
L 1087 554 
L 1043 554 
L 1030 555 
L 1015 555 
L 1058 552 
" fill="#339541" />
<path d="
M 1015 536 
L 1033 536 
L 1033 545 
Q 1033 548 , 1041 549 
Q 1048 550 , 1065 550 
Q 1082 550 , 1090 549 
Q 1097 548 , 1097 545 
L 1097 536 
L 1115 536 
L 1115 546 
Q 1115 549 , 1102 550 
Q 1090 552 , 1065 552 
Q 1041 552 , 1028 550 
Q 1015 549 , 1015 546 
L 1015 536 
" fill="#D21010" />
<path d="
M 1115 514 
L 1115 518 
Q 1100 516 , 1092 515 
Q 1084 515 , 1074 515 
Q 1053 515 , 1043 517 
Q 1031 519 , 1031 523 
Q 1031 528 , 1043 531 
Q 1053 533 , 1074 533 
Q 1084 533 , 1092 532 
Q 1100 532 , 1115 529 
L 1115 533 
Q 1104 534 , 1094 535 
Q 1084 535 , 1073 535 
Q 1046 535 , 1031 532 
Q 1015 529 , 1015 524 
Q 1015 518 , 1031 515 
Q 1046 512 , 1073 512 
Q 1084 512 , 1094 513 
Q 1105 513 , 1115 514 
" fill="#545FFF" />
<path d="
M 1099 507 
L 1099 498 
L 1070 498 
L 1070 495 
L 1115 495 
L 1115 509 
Q 1104 510 , 1093 511 
Q 1084 511 , 1072 511 
Q 1046 511 , 1030 507 
Q 1015 503 , 1015 495 
Q 1015 488 , 1030 483 
Q 1046 479 , 1072 479 
Q 1083 479 , 1092 480 
Q 1102 480 , 1112 482 
L 1112 486 
Q 1099 484 , 1091 483 
Q 1082 483 , 1073 483 
Q 1052 483 , 1041 486 
Q 1031 489 , 1031 495 
Q 1031 502 , 1041 505 
Q 1052 508 , 1073 508 
Q 1082 508 , 1089 508 
Q 1096 507 , 1099 507 
" fill="#F5C000" />
<path d="
M 1170 550 
L 1152 552 
L 1186 552 
L 1170 550 
M 1163 549 
L 1177 549 
L 1220 555 
L 1204 555 
L 1192 553 
L 1148 553 
L 1135 555 
L 1120 555 
L 1163 549 
" fill="#339541" />
<path d="
M 1204 547 
L 1204 545 
L 1175 545 
L 1175 544 
L 1220 544 
L 1220 548 
Q 1209 548 , 1198 548 
Q 1189 548 , 1177 548 
Q 1151 548 , 1135 547 
Q 1120 546 , 1120 544 
Q 1120 542 , 1135 541 
Q 1151 540 , 1177 540 
Q 1188 540 , 1197 540 
Q 1207 540 , 1217 541 
L 1217 542 
Q 1204 541 , 1196 541 
Q 1187 541 , 1178 541 
Q 1157 541 , 1146 542 
Q 1136 543 , 1136 544 
Q 1136 546 , 1146 547 
Q 1157 547 , 1178 547 
Q 1187 547 , 1194 547 
Q 1201 547 , 1204 547 
" fill="#F5C000" />
<path d="
M 1220 526 
L 1220 528 
Q 1205 526 , 1197 526 
Q 1189 526 , 1179 526 
Q 1158 526 , 1148 527 
Q 1136 529 , 1136 531 
Q 1136 534 , 1148 536 
Q 1158 537 , 1179 537 
Q 1189 537 , 1197 537 
Q 1205 537 , 1220 535 
L 1220 538 
Q 1209 538 , 1199 539 
Q 1189 539 , 1178 539 
Q 1151 539 , 1136 537 
Q 1120 535 , 1120 532 
Q 1120 528 , 1136 526 
Q 1151 524 , 1178 524 
Q 1189 524 , 1199 524 
Q 1210 525 , 1220 526 
" fill="#545FFF" />
<path d="
M 1120 499 
L 1138 499 
L 1138 513 
Q 1138 517 , 1146 519 
Q 1153 521 , 1170 521 
Q 1187 521 , 1195 519 
Q 1202 517 , 1202 513 
L 1202 499 
L 1220 499 
L 1220 514 
Q 1220 519 , 1207 521 
Q 1195 523 , 1170 523 
Q 1146 523 , 1133 521 
Q 1120 519 , 1120 514 
L 1120 499 
" fill="#D21010" />
<path d="
M 1275 554 
L 1257 554 
L 1291 554 
L 1275 554 
M 1268 554 
L 1282 554 
L 1325 554 
L 1309 554 
L 1297 554 
L 1253 554 
L 1240 554 
L 1225 554 
L 1268 554 
" fill="#339541" />
<path d="
M 1225 553 
L 1243 553 
L 1243 553 
Q 1243 553 , 1251 553 
Q 1258 554 , 1275 554 
Q 1292 554 , 1300 553 
Q 1307 553 , 1307 553 
L 1307 553 
L 1325 553 
L 1325 553 
Q 1325 553 , 1312 554 
Q 1300 554 , 1275 554 
Q 1251 554 , 1238 554 
Q 1225 553 , 1225 553 
L 1225 553 
" fill="#D21010" />
<path d="
M 1325 552 
L 1325 552 
Q 1310 552 , 1302 552 
Q 1294 552 , 1284 552 
Q 1263 552 , 1253 552 
Q 1241 552 , 1241 552 
Q 1241 552 , 1253 552 
Q 1263 553 , 1284 553 
Q 1294 553 , 1302 553 
Q 1310 552 , 1325 552 
L 1325 553 
Q 1314 553 , 1304 553 
Q 1294 553 , 1283 553 
Q 1256 553 , 1241 553 
Q 1225 552 , 1225 552 
Q 1225 552 , 1241 552 
Q 1256 552 , 1283 552 
Q 1294 552 , 1304 552 
Q 1315 552 , 1325 552 
" fill="#545FFF" />
<path d="
M 1309 552 
L 1309 551 
L 1280 551 
L 1280 551 
L 1325 551 
L 1325 552 
Q 1314 552 , 1303 552 
Q 1294 552 , 1282 552 
Q 1256 552 , 1240 552 
Q 1225 551 , 1225 551 
Q 1225 551 , 1240 551 
Q 1256 551 , 1282 551 
Q 1293 551 , 1302 551 
Q 1312 551 , 1322 551 
L 1322 551 
Q 1309 551 , 1301 551 
Q 1292 551 , 1283 551 
Q 1262 551 , 1251 551 
Q 1241 551 , 1241 551 
Q 1241 551 , 1251 552 
Q 1262 552 , 1283 552 
Q 1292 552 , 1299 552 
Q 1306 552 , 1309 552 
" fill="#F5C000" />
<path d="M 65 55 L 65 555 " stroke="black" stroke-width="1.5"/>
<path d="M 55 555 L 65 555 " stroke="black" stroke-width="4"/>
<text text-anchor="end" x="50" y="555" font-size="50" alignment-baseline="middle">0</text>
<path d="M 55 305 L 65 305 " stroke="black" stroke-width="4"/>
<text text-anchor="end" x="50" y="305" font-size="50" alignment-baseline="middle">1</text>
<path d="M 55 55 L 65 55 " stroke="black" stroke-width="4"/>
<text text-anchor="end" x="50" y="55" font-size="50" alignment-baseline="middle">2</text>
<text text-anchor="middle" x="697" y="50" font-size="50" alignment-baseline="baseline"></text>
G<path d="
M 160 582 
L 126 595 
L 160 608 
L 157 611 
L 123 598 
L 123 623 
L 117 623 
L 117 599 
L 83 611 
L 80 608 
L 114 595 
L 80 582 
L 83 579 
L 117 591 
L 117 567 
L 123 567 
L 123 591 
L 157 579 
L 160 582 
" fill="black" />
<path d="
" fill="black" />
<path d="
M 211 567 
L 238 567 
L 238 623 
L 211 623 
L 211 567 
" fill="black" />
<path d="
" fill="black" />
<path d="
" fill="black" />
<path d="
M 316 567 
L 343 567 
L 343 623 
L 316 623 
L 316 567 
" fill="black" />
<path d="
" fill="black" />
<path d="
" fill="black" />
<path d="
M 421 567 
L 448 567 
L 448 623 
L 421 623 
L 421 567 
" fill="black" />
<path d="
" fill="black" />
<path d="
" fill="black" />
<path d="
M 526 567 
L 553 567 
L 553 623 
L 526 623 
L 526 567 
" fill="black" />
<path d="
" fill="black" />
<path d="
" fill="black" />
<path d="
M 631 567 
L 658 567 
L 658 623 
L 631 623 
L 631 567 
" fill="black" />
<path d="
" fill="black" />
<path d="
" fill="black" />
<path d="
M 736 567 
L 763 567 
L 763 623 
L 736 623 
L 736 567 
" fill="black" />
<path d="
" fill="black" />
<path d="
" fill="black" />
<path d="
M 841 567 
L 868 567 
L 868 623 
L 841 623 
L 841 567 
" fill="black" />
<path d="
" fill="black" />
<path d="
" fill="black" />
<path d="
M 946 567 
L 973 567 
L 973 623 
L 946 623 
L 946 567 
" fill="black" />
<path d="
" fill="black" />
<path d="
" fill="black" />
<path d="
M 1051 567 
L 1078 567 
L 1078 623 
L 1051 623 
L 1051 567 
" fill="black" />
<path d="
" fill="black" />
<path d="
" fill="black" />
<path d="
M 1156 567 
L 1183 567 
L 1183 623 
L 1156 623 
L 1156 567 
" fill="black" />
<path d="
" fill="black" />
<path d="
M 1315 582 
L 1281 595 
L 1315 608 
L 1312 611 
L 1278 598 
L 1278 623 
L 1272 623 
L 1272 599 
L 1238 611 
L 1235 608 
L 1269 595 
L 1235 582 
L 1238 579 
L 1272 591 
L 1272 567 
L 1278 567 
L 1278 591 
L 1312 579 
L 1315 582 
" fill="black" />
</svg>
