<svg xmlns="http://www.w3.org/2000/svg"
viewBox="0 0 1435 635">
<path d="
M 120 553 
L 102 554 
L 136 554 
L 120 553 
M 113 553 
L 127 553 
L 170 554 
L 154 554 
L 142 554 
L 98 554 
L 85 554 
L 70 554 
L 113 553 
" fill="#339541" />
<path d="
M 70 551 
L 88 551 
L 88 552 
Q 88 552 , 96 552 
Q 103 552 , 120 552 
Q 137 552 , 145 552 
Q 152 552 , 152 552 
L 152 551 
L 170 551 
L 170 552 
Q 170 552 , 157 552 
Q 145 552 , 120 552 
Q 96 552 , 83 552 
Q 70 552 , 70 552 
L 70 551 
" fill="#D21010" />
<path d="
M 170 549 
L 170 549 
Q 155 549 , 147 549 
Q 139 549 , 129 549 
Q 108 549 , 98 549 
Q 86 550 , 86 550 
Q 86 550 , 98 550 
Q 108 550 , 129 550 
Q 139 550 , 147 550 
Q 155 550 , 170 550 
L 170 550 
Q 159 551 , 149 551 
Q 139 551 , 128 551 
Q 101 551 , 86 550 
Q 70 550 , 70 550 
Q 70 549 , 86 549 
Q 101 549 , 128 549 
Q 139 549 , 149 549 
Q 160 549 , 170 549 
" fill="#545FFF" />
<path d="
M 154 548 
L 154 547 
L 125 547 
L 125 547 
L 170 547 
L 170 548 
Q 159 548 , 148 548 
Q 139 548 , 127 548 
Q 101 548 , 85 548 
Q 70 548 , 70 547 
Q 70 547 , 85 546 
Q 101 546 , 127 546 
Q 138 546 , 147 546 
Q 157 546 , 167 546 
L 167 546 
Q 154 546 , 146 546 
Q 137 546 , 128 546 
Q 107 546 , 96 546 
Q 86 547 , 86 547 
Q 86 547 , 96 548 
Q 107 548 , 128 548 
Q 137 548 , 144 548 
Q 151 548 , 154 548 
" fill="#F5C000" />
<path d="
M 225 553 
L 207 554 
L 241 554 
L 225 553 
M 218 553 
L 232 553 
L 275 555 
L 259 555 
L 247 554 
L 203 554 
L 190 555 
L 175 555 
L 218 553 
" fill="#339541" />
<path d="
M 175 550 
L 193 550 
L 193 551 
Q 193 552 , 201 552 
Q 208 552 , 225 552 
Q 242 552 , 250 552 
Q 257 552 , 257 551 
L 257 550 
L 275 550 
L 275 551 
Q 275 552 , 262 552 
Q 250 552 , 225 552 
Q 201 552 , 188 552 
Q 175 552 , 175 551 
L 175 550 
" fill="#D21010" />
<path d="
M 259 549 
L 259 548 
L 230 548 
L 230 548 
L 275 548 
L 275 549 
Q 264 549 , 253 549 
Q 244 549 , 232 549 
Q 206 549 , 190 549 
Q 175 549 , 175 548 
Q 175 548 , 190 547 
Q 206 547 , 232 547 
Q 243 547 , 252 547 
Q 262 547 , 272 547 
L 272 547 
Q 259 547 , 251 547 
Q 242 547 , 233 547 
Q 212 547 , 201 547 
Q 191 548 , 191 548 
Q 191 549 , 201 549 
Q 212 549 , 233 549 
Q 242 549 , 249 549 
Q 256 549 , 259 549 
" fill="#F5C000" />
<path d="
M 275 543 
L 275 544 
Q 260 544 , 252 543 
Q 244 543 , 234 543 
Q 213 543 , 203 544 
Q 191 544 , 191 544 
Q 191 545 , 203 546 
Q 213 546 , 234 546 
Q 244 546 , 252 546 
Q 260 546 , 275 546 
L 275 546 
Q 264 546 , 254 546 
Q 244 546 , 233 546 
Q 206 546 , 191 546 
Q 175 546 , 175 545 
Q 175 544 , 191 543 
Q 206 543 , 233 543 
Q 244 543 , 254 543 
Q 265 543 , 275 543 
" fill="#545FFF" />
<path d="
M 322 554 
L 322 554 
L 308 554 
L 308 553 
L 330 553 
L 330 555 
Q 325 555 , 319 555 
Q 314 555 , 308 555 
Q 295 555 , 288 555 
Q 280 554 , 280 553 
Q 280 553 , 288 552 
Q 295 552 , 308 552 
Q 314 552 , 319 552 
Q 324 552 , 329 552 
L 329 553 
Q 322 552 , 318 552 
Q 314 552 , 309 552 
Q 299 552 , 293 553 
Q 288 553 , 288 553 
Q 288 554 , 293 554 
Q 299 555 , 309 555 
Q 314 555 , 317 555 
Q 321 555 , 322 554 
" fill="#F5C000" />
<path d="
M 330 552 
L 339 552 
L 339 554 
Q 339 554 , 343 554 
Q 346 555 , 355 555 
Q 364 555 , 367 554 
Q 371 554 , 371 554 
L 371 552 
L 380 552 
L 380 554 
Q 380 554 , 374 555 
Q 367 555 , 355 555 
Q 343 555 , 336 555 
Q 330 554 , 330 554 
L 330 552 
" fill="lightgray" />
<path d="
M 280 547 
L 289 547 
L 289 550 
Q 289 551 , 293 551 
Q 296 551 , 305 551 
Q 314 551 , 317 551 
Q 321 551 , 321 550 
L 321 547 
L 330 547 
L 330 550 
Q 330 551 , 324 551 
Q 317 552 , 305 552 
Q 293 552 , 286 551 
Q 280 551 , 280 550 
L 280 547 
" fill="#D21010" />
<path d="
M 355 548 
L 346 550 
L 363 550 
L 355 548 
M 351 547 
L 359 547 
L 380 552 
L 372 552 
L 366 550 
L 344 550 
L 337 552 
L 330 552 
L 351 547 
" fill="lightgray" />
<path d="
M 280 538 
L 289 538 
L 289 543 
Q 289 544 , 293 545 
Q 296 546 , 305 546 
Q 314 546 , 317 545 
Q 321 544 , 321 543 
L 321 538 
L 330 538 
L 330 543 
Q 330 545 , 324 546 
Q 317 547 , 305 547 
Q 293 547 , 286 546 
Q 280 545 , 280 543 
L 280 538 
" fill="#D21010" />
<path d="
M 372 545 
L 372 543 
L 358 543 
L 358 542 
L 380 542 
L 380 546 
Q 375 546 , 369 546 
Q 364 547 , 358 547 
Q 345 547 , 338 545 
Q 330 544 , 330 542 
Q 330 540 , 338 539 
Q 345 538 , 358 538 
Q 364 538 , 369 538 
Q 374 538 , 379 539 
L 379 540 
Q 372 539 , 368 539 
Q 364 539 , 359 539 
Q 349 539 , 343 540 
Q 338 541 , 338 542 
Q 338 544 , 343 545 
Q 349 546 , 359 546 
Q 364 546 , 367 545 
Q 371 545 , 372 545 
" fill="lightgray" />
<path d="
M 330 520 
L 330 523 
Q 323 521 , 319 521 
Q 314 520 , 309 520 
Q 299 520 , 294 522 
Q 288 524 , 288 527 
Q 288 531 , 294 533 
Q 299 535 , 309 535 
Q 314 535 , 319 535 
Q 323 534 , 330 532 
L 330 535 
Q 325 536 , 319 537 
Q 315 537 , 309 537 
Q 295 537 , 288 535 
Q 280 532 , 280 528 
Q 280 523 , 288 521 
Q 295 518 , 309 518 
Q 315 518 , 320 518 
Q 325 519 , 330 520 
" fill="#545FFF" />
<path d="
M 372 534 
L 372 529 
L 358 529 
L 358 527 
L 380 527 
L 380 536 
Q 375 537 , 369 537 
Q 364 537 , 358 537 
Q 345 537 , 338 535 
Q 330 532 , 330 528 
Q 330 523 , 338 521 
Q 345 518 , 358 518 
Q 364 518 , 369 518 
Q 374 519 , 379 520 
L 379 522 
Q 372 521 , 368 521 
Q 364 520 , 359 520 
Q 349 520 , 343 522 
Q 338 524 , 338 528 
Q 338 531 , 343 533 
Q 349 535 , 359 535 
Q 364 535 , 367 535 
Q 371 535 , 372 534 
" fill="lightgray" />
<path d="
M 305 491 
L 296 504 
L 313 504 
L 305 491 
M 301 485 
L 309 485 
L 330 517 
L 322 517 
L 316 508 
L 294 508 
L 287 517 
L 280 517 
L 301 485 
" fill="#339541" />
<path d="
M 330 485 
L 339 485 
L 339 504 
Q 339 509 , 343 512 
Q 346 514 , 355 514 
Q 364 514 , 367 512 
Q 371 509 , 371 504 
L 371 485 
L 380 485 
L 380 505 
Q 380 511 , 374 514 
Q 367 517 , 355 517 
Q 343 517 , 336 514 
Q 330 511 , 330 505 
L 330 485 
" fill="lightgray" />
<path d="
M 322 468 
L 322 436 
L 308 436 
L 308 423 
L 330 423 
L 330 475 
Q 325 481 , 319 482 
Q 314 484 , 308 485 
Q 295 485 , 288 469 
Q 280 453 , 280 425 
Q 280 398 , 288 382 
Q 295 366 , 308 366 
Q 314 366 , 319 368 
Q 324 370 , 329 376 
L 329 391 
Q 322 384 , 318 382 
Q 314 380 , 309 380 
Q 299 380 , 293 391 
Q 288 402 , 288 425 
Q 288 449 , 293 460 
Q 299 471 , 309 471 
Q 314 471 , 317 470 
Q 321 469 , 322 468 
" fill="#F5C000" />
<path d="
M 380 379 
L 380 397 
Q 373 385 , 369 382 
Q 364 379 , 359 379 
Q 349 379 , 344 391 
Q 338 402 , 338 425 
Q 338 448 , 344 460 
Q 349 472 , 359 472 
Q 364 472 , 369 469 
Q 373 466 , 380 454 
L 380 473 
Q 375 479 , 369 482 
Q 365 485 , 359 485 
Q 345 485 , 338 469 
Q 330 453 , 330 425 
Q 330 398 , 338 382 
Q 345 366 , 359 366 
Q 365 366 , 370 369 
Q 375 372 , 380 379 
" fill="lightgray" />
<path d="
M 385 549 
L 403 549 
L 403 552 
Q 403 553 , 411 554 
Q 418 554 , 435 554 
Q 452 554 , 460 554 
Q 467 553 , 467 552 
L 467 549 
L 485 549 
L 485 553 
Q 485 554 , 472 554 
Q 460 555 , 435 555 
Q 411 555 , 398 554 
Q 385 554 , 385 553 
L 385 549 
" fill="#D21010" />
<path d="
M 435 543 
L 417 546 
L 451 546 
L 435 543 
M 428 542 
L 442 542 
L 485 548 
L 469 548 
L 457 546 
L 413 546 
L 400 548 
L 385 548 
L 428 542 
" fill="#339541" />
<path d="
M 485 527 
L 485 529 
Q 470 528 , 462 527 
Q 454 527 , 444 527 
Q 423 527 , 413 529 
Q 401 530 , 401 533 
Q 401 537 , 413 538 
Q 423 540 , 444 540 
Q 454 540 , 462 540 
Q 470 539 , 485 538 
L 485 540 
Q 474 541 , 464 542 
Q 454 542 , 443 542 
Q 416 542 , 401 540 
Q 385 537 , 385 534 
Q 385 530 , 401 527 
Q 416 525 , 443 525 
Q 454 525 , 464 525 
Q 475 526 , 485 527 
" fill="#545FFF" />
<path d="
M 469 520 
L 469 513 
L 440 513 
L 440 509 
L 485 509 
L 485 522 
Q 474 523 , 463 524 
Q 454 524 , 442 524 
Q 416 524 , 400 520 
Q 385 517 , 385 510 
Q 385 503 , 400 500 
Q 416 496 , 442 496 
Q 453 496 , 462 496 
Q 472 497 , 482 498 
L 482 502 
Q 469 500 , 461 500 
Q 452 499 , 443 499 
Q 422 499 , 411 502 
Q 401 505 , 401 510 
Q 401 516 , 411 518 
Q 422 521 , 443 521 
Q 452 521 , 459 521 
Q 466 520 , 469 520 
" fill="#F5C000" />
<path d="
M 490 549 
L 508 549 
L 508 552 
Q 508 553 , 516 553 
Q 523 554 , 540 554 
Q 557 554 , 565 553 
Q 572 553 , 572 552 
L 572 549 
L 590 549 
L 590 552 
Q 590 553 , 577 554 
Q 565 554 , 540 554 
Q 516 554 , 503 554 
Q 490 553 , 490 552 
L 490 549 
" fill="#D21010" />
<path d="
M 540 543 
L 522 546 
L 556 546 
L 540 543 
M 533 542 
L 547 542 
L 590 549 
L 574 549 
L 562 547 
L 518 547 
L 505 549 
L 490 549 
L 533 542 
" fill="#339541" />
<path d="
M 590 531 
L 590 533 
Q 575 532 , 567 532 
Q 559 531 , 549 531 
Q 528 531 , 518 532 
Q 506 534 , 506 536 
Q 506 538 , 518 539 
Q 528 541 , 549 541 
Q 559 541 , 567 540 
Q 575 540 , 590 539 
L 590 541 
Q 579 541 , 569 542 
Q 559 542 , 548 542 
Q 521 542 , 506 540 
Q 490 539 , 490 536 
Q 490 533 , 506 532 
Q 521 530 , 548 530 
Q 559 530 , 569 530 
Q 580 531 , 590 531 
" fill="#545FFF" />
<path d="
M 574 526 
L 574 520 
L 545 520 
L 545 517 
L 590 517 
L 590 528 
Q 579 529 , 568 529 
Q 559 529 , 547 529 
Q 521 529 , 505 526 
Q 490 523 , 490 518 
Q 490 512 , 505 509 
Q 521 506 , 547 506 
Q 558 506 , 567 506 
Q 577 507 , 587 508 
L 587 511 
Q 574 510 , 566 509 
Q 557 509 , 548 509 
Q 527 509 , 516 511 
Q 506 513 , 506 518 
Q 506 522 , 516 525 
Q 527 527 , 548 527 
Q 557 527 , 564 527 
Q 571 526 , 574 526 
" fill="#F5C000" />
<path d="
M 645 552 
L 627 553 
L 661 553 
L 645 552 
M 638 551 
L 652 551 
L 695 554 
L 679 554 
L 667 553 
L 623 553 
L 610 554 
L 595 554 
L 638 551 
" fill="#339541" />
<path d="
M 695 542 
L 695 543 
Q 680 542 , 672 542 
Q 664 542 , 654 542 
Q 633 542 , 623 543 
Q 611 544 , 611 545 
Q 611 547 , 623 548 
Q 633 549 , 654 549 
Q 664 549 , 672 549 
Q 680 549 , 695 548 
L 695 549 
Q 684 550 , 674 550 
Q 664 550 , 653 550 
Q 626 550 , 611 549 
Q 595 548 , 595 546 
Q 595 544 , 611 542 
Q 626 541 , 653 541 
Q 664 541 , 674 541 
Q 685 541 , 695 542 
" fill="#545FFF" />
<path d="
M 595 528 
L 613 528 
L 613 535 
Q 613 537 , 621 538 
Q 628 539 , 645 539 
Q 662 539 , 670 538 
Q 677 537 , 677 535 
L 677 528 
L 695 528 
L 695 536 
Q 695 538 , 682 539 
Q 670 541 , 645 541 
Q 621 541 , 608 539 
Q 595 538 , 595 536 
L 595 528 
" fill="#D21010" />
<path d="
M 679 524 
L 679 519 
L 650 519 
L 650 517 
L 695 517 
L 695 526 
Q 684 526 , 673 527 
Q 664 527 , 652 527 
Q 626 527 , 610 524 
Q 595 522 , 595 517 
Q 595 512 , 610 510 
Q 626 507 , 652 507 
Q 663 507 , 672 507 
Q 682 508 , 692 509 
L 692 511 
Q 679 510 , 671 510 
Q 662 509 , 653 509 
Q 632 509 , 621 511 
Q 611 513 , 611 517 
Q 611 521 , 621 523 
Q 632 525 , 653 525 
Q 662 525 , 669 525 
Q 676 524 , 679 524 
" fill="#F5C000" />
<path d="
M 750 553 
L 732 554 
L 766 554 
L 750 553 
M 743 553 
L 757 553 
L 800 554 
L 784 554 
L 772 554 
L 728 554 
L 715 554 
L 700 554 
L 743 553 
" fill="#339541" />
<path d="
M 700 551 
L 718 551 
L 718 552 
Q 718 552 , 726 552 
Q 733 552 , 750 552 
Q 767 552 , 775 552 
Q 782 552 , 782 552 
L 782 551 
L 800 551 
L 800 552 
Q 800 552 , 787 552 
Q 775 552 , 750 552 
Q 726 552 , 713 552 
Q 700 552 , 700 552 
L 700 551 
" fill="#D21010" />
<path d="
M 800 549 
L 800 549 
Q 785 549 , 777 549 
Q 769 549 , 759 549 
Q 738 549 , 728 549 
Q 716 550 , 716 550 
Q 716 550 , 728 550 
Q 738 550 , 759 550 
Q 769 550 , 777 550 
Q 785 550 , 800 550 
L 800 550 
Q 789 551 , 779 551 
Q 769 551 , 758 551 
Q 731 551 , 716 550 
Q 700 550 , 700 550 
Q 700 549 , 716 549 
Q 731 549 , 758 549 
Q 769 549 , 779 549 
Q 790 549 , 800 549 
" fill="#545FFF" />
<path d="
M 784 548 
L 784 547 
L 755 547 
L 755 547 
L 800 547 
L 800 548 
Q 789 548 , 778 548 
Q 769 548 , 757 548 
Q 731 548 , 715 548 
Q 700 548 , 700 547 
Q 700 547 , 715 546 
Q 731 546 , 757 546 
Q 768 546 , 777 546 
Q 787 546 , 797 546 
L 797 546 
Q 784 546 , 776 546 
Q 767 546 , 758 546 
Q 737 546 , 726 546 
Q 716 547 , 716 547 
Q 716 547 , 726 548 
Q 737 548 , 758 548 
Q 767 548 , 774 548 
Q 781 548 , 784 548 
" fill="#F5C000" />
<path d="
M 855 552 
L 837 553 
L 871 553 
L 855 552 
M 848 551 
L 862 551 
L 905 555 
L 889 555 
L 877 554 
L 833 554 
L 820 555 
L 805 555 
L 848 551 
" fill="#339541" />
<path d="
M 805 541 
L 823 541 
L 823 546 
Q 823 548 , 831 549 
Q 838 549 , 855 549 
Q 872 549 , 880 549 
Q 887 548 , 887 546 
L 887 541 
L 905 541 
L 905 547 
Q 905 548 , 892 549 
Q 880 550 , 855 550 
Q 831 550 , 818 549 
Q 805 548 , 805 547 
L 805 541 
" fill="#D21010" />
<path d="
M 889 537 
L 889 529 
L 860 529 
L 860 526 
L 905 526 
L 905 539 
Q 894 540 , 883 540 
Q 874 541 , 862 541 
Q 836 541 , 820 537 
Q 805 533 , 805 526 
Q 805 520 , 820 516 
Q 836 512 , 862 512 
Q 873 512 , 882 512 
Q 892 513 , 902 514 
L 902 518 
Q 889 516 , 881 516 
Q 872 515 , 863 515 
Q 842 515 , 831 518 
Q 821 521 , 821 526 
Q 821 532 , 831 535 
Q 842 538 , 863 538 
Q 872 538 , 879 537 
Q 886 537 , 889 537 
" fill="#F5C000" />
<path d="
M 905 466 
L 905 474 
Q 890 469 , 882 468 
Q 874 467 , 864 467 
Q 843 467 , 833 471 
Q 821 476 , 821 486 
Q 821 496 , 833 501 
Q 843 506 , 864 506 
Q 874 506 , 882 504 
Q 890 503 , 905 498 
L 905 506 
Q 894 509 , 884 510 
Q 874 511 , 863 511 
Q 836 511 , 821 504 
Q 805 498 , 805 486 
Q 805 475 , 821 468 
Q 836 461 , 863 461 
Q 874 461 , 884 462 
Q 895 463 , 905 466 
" fill="#545FFF" />
<path d="
M 952 554 
L 952 554 
L 938 554 
L 938 553 
L 960 553 
L 960 555 
Q 955 555 , 949 555 
Q 944 555 , 938 555 
Q 925 555 , 918 555 
Q 910 554 , 910 553 
Q 910 553 , 918 552 
Q 925 552 , 938 552 
Q 944 552 , 949 552 
Q 954 552 , 959 552 
L 959 553 
Q 952 552 , 948 552 
Q 944 552 , 939 552 
Q 929 552 , 923 553 
Q 918 553 , 918 553 
Q 918 554 , 923 554 
Q 929 555 , 939 555 
Q 944 555 , 947 555 
Q 951 555 , 952 554 
" fill="lightgray" />
<path d="
M 960 552 
L 969 552 
L 969 554 
Q 969 554 , 973 554 
Q 976 555 , 985 555 
Q 994 555 , 997 554 
Q 1001 554 , 1001 554 
L 1001 552 
L 1010 552 
L 1010 554 
Q 1010 554 , 1004 555 
Q 997 555 , 985 555 
Q 973 555 , 966 555 
Q 960 554 , 960 554 
L 960 552 
" fill="#D21010" />
<path d="
M 910 547 
L 919 547 
L 919 550 
Q 919 551 , 923 551 
Q 926 551 , 935 551 
Q 944 551 , 947 551 
Q 951 551 , 951 550 
L 951 547 
L 960 547 
L 960 550 
Q 960 551 , 954 551 
Q 947 552 , 935 552 
Q 923 552 , 916 551 
Q 910 551 , 910 550 
L 910 547 
" fill="lightgray" />
<path d="
M 985 548 
L 976 550 
L 993 550 
L 985 548 
M 981 547 
L 989 547 
L 1010 552 
L 1002 552 
L 996 550 
L 974 550 
L 967 552 
L 960 552 
L 981 547 
" fill="#339541" />
<path d="
M 910 538 
L 919 538 
L 919 543 
Q 919 544 , 923 545 
Q 926 546 , 935 546 
Q 944 546 , 947 545 
Q 951 544 , 951 543 
L 951 538 
L 960 538 
L 960 543 
Q 960 545 , 954 546 
Q 947 547 , 935 547 
Q 923 547 , 916 546 
Q 910 545 , 910 543 
L 910 538 
" fill="lightgray" />
<path d="
M 1002 545 
L 1002 543 
L 988 543 
L 988 542 
L 1010 542 
L 1010 546 
Q 1005 546 , 999 546 
Q 994 547 , 988 547 
Q 975 547 , 968 545 
Q 960 544 , 960 542 
Q 960 540 , 968 539 
Q 975 538 , 988 538 
Q 994 538 , 999 538 
Q 1004 538 , 1009 539 
L 1009 540 
Q 1002 539 , 998 539 
Q 994 539 , 989 539 
Q 979 539 , 973 540 
Q 968 541 , 968 542 
Q 968 544 , 973 545 
Q 979 546 , 989 546 
Q 994 546 , 997 545 
Q 1001 545 , 1002 545 
" fill="#F5C000" />
<path d="
M 960 520 
L 960 523 
Q 953 521 , 949 521 
Q 944 520 , 939 520 
Q 929 520 , 924 522 
Q 918 524 , 918 527 
Q 918 531 , 924 533 
Q 929 535 , 939 535 
Q 944 535 , 949 535 
Q 953 534 , 960 532 
L 960 535 
Q 955 536 , 949 537 
Q 945 537 , 939 537 
Q 925 537 , 918 535 
Q 910 532 , 910 528 
Q 910 523 , 918 521 
Q 925 518 , 939 518 
Q 945 518 , 950 518 
Q 955 519 , 960 520 
" fill="lightgray" />
<path d="
M 1002 534 
L 1002 529 
L 988 529 
L 988 527 
L 1010 527 
L 1010 536 
Q 1005 537 , 999 537 
Q 994 537 , 988 537 
Q 975 537 , 968 535 
Q 960 532 , 960 528 
Q 960 523 , 968 521 
Q 975 518 , 988 518 
Q 994 518 , 999 518 
Q 1004 519 , 1009 520 
L 1009 522 
Q 1002 521 , 998 521 
Q 994 520 , 989 520 
Q 979 520 , 973 522 
Q 968 524 , 968 528 
Q 968 531 , 973 533 
Q 979 535 , 989 535 
Q 994 535 , 997 535 
Q 1001 535 , 1002 534 
" fill="#F5C000" />
<path d="
M 935 491 
L 926 504 
L 943 504 
L 935 491 
M 931 485 
L 939 485 
L 960 517 
L 952 517 
L 946 508 
L 924 508 
L 917 517 
L 910 517 
L 931 485 
" fill="lightgray" />
<path d="
M 960 485 
L 969 485 
L 969 504 
Q 969 509 , 973 512 
Q 976 514 , 985 514 
Q 994 514 , 997 512 
Q 1001 509 , 1001 504 
L 1001 485 
L 1010 485 
L 1010 505 
Q 1010 511 , 1004 514 
Q 997 517 , 985 517 
Q 973 517 , 966 514 
Q 960 511 , 960 505 
L 960 485 
" fill="#D21010" />
<path d="
M 952 468 
L 952 436 
L 938 436 
L 938 423 
L 960 423 
L 960 475 
Q 955 481 , 949 482 
Q 944 484 , 938 485 
Q 925 485 , 918 469 
Q 910 453 , 910 425 
Q 910 398 , 918 382 
Q 925 366 , 938 366 
Q 944 366 , 949 368 
Q 954 370 , 959 376 
L 959 391 
Q 952 384 , 948 382 
Q 944 380 , 939 380 
Q 929 380 , 923 391 
Q 918 402 , 918 425 
Q 918 449 , 923 460 
Q 929 471 , 939 471 
Q 944 471 , 947 470 
Q 951 469 , 952 468 
" fill="lightgray" />
<path d="
M 1010 379 
L 1010 397 
Q 1003 385 , 999 382 
Q 994 379 , 989 379 
Q 979 379 , 974 391 
Q 968 402 , 968 425 
Q 968 448 , 974 460 
Q 979 472 , 989 472 
Q 994 472 , 999 469 
Q 1003 466 , 1010 454 
L 1010 473 
Q 1005 479 , 999 482 
Q 995 485 , 989 485 
Q 975 485 , 968 469 
Q 960 453 , 960 425 
Q 960 398 , 968 382 
Q 975 366 , 989 366 
Q 995 366 , 1000 369 
Q 1005 372 , 1010 379 
" fill="#545FFF" />
<path d="
M 1065 551 
L 1047 553 
L 1081 553 
L 1065 551 
M 1058 550 
L 1072 550 
L 1115 554 
L 1099 554 
L 1087 553 
L 1043 553 
L 1030 554 
L 1015 554 
L 1058 550 
" fill="#339541" />
<path d="
M 1015 542 
L 1033 542 
L 1033 546 
Q 1033 547 , 1041 548 
Q 1048 548 , 1065 548 
Q 1082 548 , 1090 548 
Q 1097 547 , 1097 546 
L 1097 542 
L 1115 542 
L 1115 546 
Q 1115 548 , 1102 548 
Q 1090 549 , 1065 549 
Q 1041 549 , 1028 548 
Q 1015 548 , 1015 546 
L 1015 542 
" fill="#D21010" />
<path d="
M 1115 510 
L 1115 515 
Q 1100 512 , 1092 511 
Q 1084 510 , 1074 510 
Q 1053 510 , 1043 513 
Q 1031 517 , 1031 523 
Q 1031 530 , 1043 534 
Q 1053 537 , 1074 537 
Q 1084 537 , 1092 537 
Q 1100 536 , 1115 532 
L 1115 538 
Q 1104 540 , 1094 540 
Q 1084 541 , 1073 541 
Q 1046 541 , 1031 536 
Q 1015 532 , 1015 524 
Q 1015 516 , 1031 511 
Q 1046 506 , 1073 506 
Q 1084 506 , 1094 507 
Q 1105 508 , 1115 510 
" fill="#545FFF" />
<path d="
M 1099 489 
L 1099 459 
L 1070 459 
L 1070 447 
L 1115 447 
L 1115 497 
Q 1104 502 , 1093 504 
Q 1084 505 , 1072 506 
Q 1046 506 , 1030 491 
Q 1015 476 , 1015 449 
Q 1015 423 , 1030 408 
Q 1046 393 , 1072 393 
Q 1083 393 , 1092 395 
Q 1102 397 , 1112 402 
L 1112 417 
Q 1099 410 , 1091 408 
Q 1082 406 , 1073 406 
Q 1052 406 , 1041 417 
Q 1031 428 , 1031 449 
Q 1031 472 , 1041 482 
Q 1052 493 , 1073 493 
Q 1082 493 , 1089 492 
Q 1096 491 , 1099 489 
" fill="#F5C000" />
<path d="
M 1170 553 
L 1152 554 
L 1186 554 
L 1170 553 
M 1163 553 
L 1177 553 
L 1220 555 
L 1204 555 
L 1192 554 
L 1148 554 
L 1135 555 
L 1120 555 
L 1163 553 
" fill="#339541" />
<path d="
M 1220 538 
L 1220 540 
Q 1205 539 , 1197 538 
Q 1189 538 , 1179 538 
Q 1158 538 , 1148 539 
Q 1136 541 , 1136 544 
Q 1136 547 , 1148 549 
Q 1158 551 , 1179 551 
Q 1189 551 , 1197 550 
Q 1205 550 , 1220 548 
L 1220 551 
Q 1209 552 , 1199 552 
Q 1189 553 , 1178 553 
Q 1151 553 , 1136 550 
Q 1120 548 , 1120 544 
Q 1120 540 , 1136 538 
Q 1151 536 , 1178 536 
Q 1189 536 , 1199 536 
Q 1210 537 , 1220 538 
" fill="#545FFF" />
<path d="
M 1120 516 
L 1138 516 
L 1138 528 
Q 1138 531 , 1146 532 
Q 1153 533 , 1170 533 
Q 1187 533 , 1195 532 
Q 1202 531 , 1202 528 
L 1202 516 
L 1220 516 
L 1220 528 
Q 1220 532 , 1207 534 
Q 1195 536 , 1170 536 
Q 1146 536 , 1133 534 
Q 1120 532 , 1120 528 
L 1120 516 
" fill="#D21010" />
<path d="
M 1204 510 
L 1204 500 
L 1175 500 
L 1175 496 
L 1220 496 
L 1220 512 
Q 1209 514 , 1198 514 
Q 1189 515 , 1177 515 
Q 1151 515 , 1135 510 
Q 1120 505 , 1120 497 
Q 1120 488 , 1135 483 
Q 1151 478 , 1177 478 
Q 1188 478 , 1197 479 
Q 1207 479 , 1217 481 
L 1217 486 
Q 1204 484 , 1196 483 
Q 1187 482 , 1178 482 
Q 1157 482 , 1146 486 
Q 1136 489 , 1136 497 
Q 1136 504 , 1146 507 
Q 1157 511 , 1178 511 
Q 1187 511 , 1194 511 
Q 1201 510 , 1204 510 
" fill="#F5C000" />
<path d="
M 1225 552 
L 1243 552 
L 1243 553 
Q 1243 554 , 1251 554 
Q 1258 554 , 1275 554 
Q 1292 554 , 1300 554 
Q 1307 554 , 1307 553 
L 1307 552 
L 1325 552 
L 1325 553 
Q 1325 554 , 1312 554 
Q 1300 554 , 1275 554 
Q 1251 554 , 1238 554 
Q 1225 554 , 1225 553 
L 1225 552 
" fill="#D21010" />
<path d="
M 1325 549 
L 1325 550 
Q 1310 549 , 1302 549 
Q 1294 549 , 1284 549 
Q 1263 549 , 1253 550 
Q 1241 550 , 1241 550 
Q 1241 551 , 1253 551 
Q 1263 551 , 1284 551 
Q 1294 551 , 1302 551 
Q 1310 551 , 1325 551 
L 1325 551 
Q 1314 551 , 1304 551 
Q 1294 551 , 1283 551 
Q 1256 551 , 1241 551 
Q 1225 551 , 1225 550 
Q 1225 550 , 1241 549 
Q 1256 549 , 1283 549 
Q 1294 549 , 1304 549 
Q 1315 549 , 1325 549 
" fill="#545FFF" />
<path d="
M 1275 546 
L 1257 547 
L 1291 547 
L 1275 546 
M 1268 545 
L 1282 545 
L 1325 548 
L 1309 548 
L 1297 547 
L 1253 547 
L 1240 548 
L 1225 548 
L 1268 545 
" fill="#339541" />
<path d="
M 1309 544 
L 1309 543 
L 1280 543 
L 1280 542 
L 1325 542 
L 1325 544 
Q 1314 544 , 1303 544 
Q 1294 544 , 1282 544 
Q 1256 544 , 1240 544 
Q 1225 543 , 1225 542 
Q 1225 541 , 1240 541 
Q 1256 540 , 1282 540 
Q 1293 540 , 1302 540 
Q 1312 540 , 1322 540 
L 1322 541 
Q 1309 541 , 1301 541 
Q 1292 541 , 1283 541 
Q 1262 541 , 1251 541 
Q 1241 541 , 1241 542 
Q 1241 543 , 1251 543 
Q 1262 544 , 1283 544 
Q 1292 544 , 1299 544 
Q 1306 544 , 1309 544 
" fill="#F5C000" />
<path d="
M 1380 553 
L 1362 554 
L 1396 554 
L 1380 553 
M 1373 553 
L 1387 553 
L 1430 554 
L 1414 554 
L 1402 554 
L 1358 554 
L 1345 554 
L 1330 554 
L 1373 553 
" fill="#339541" />
<path d="
M 1330 551 
L 1348 551 
L 1348 552 
Q 1348 552 , 1356 552 
Q 1363 552 , 1380 552 
Q 1397 552 , 1405 552 
Q 1412 552 , 1412 552 
L 1412 551 
L 1430 551 
L 1430 552 
Q 1430 552 , 1417 552 
Q 1405 552 , 1380 552 
Q 1356 552 , 1343 552 
Q 1330 552 , 1330 552 
L 1330 551 
" fill="#D21010" />
<path d="
M 1430 549 
L 1430 549 
Q 1415 549 , 1407 549 
Q 1399 549 , 1389 549 
Q 1368 549 , 1358 549 
Q 1346 550 , 1346 550 
Q 1346 550 , 1358 550 
Q 1368 550 , 1389 550 
Q 1399 550 , 1407 550 
Q 1415 550 , 1430 550 
L 1430 550 
Q 1419 551 , 1409 551 
Q 1399 551 , 1388 551 
Q 1361 551 , 1346 550 
Q 1330 550 , 1330 550 
Q 1330 549 , 1346 549 
Q 1361 549 , 1388 549 
Q 1399 549 , 1409 549 
Q 1420 549 , 1430 549 
" fill="#545FFF" />
<path d="
M 1414 548 
L 1414 547 
L 1385 547 
L 1385 547 
L 1430 547 
L 1430 548 
Q 1419 548 , 1408 548 
Q 1399 548 , 1387 548 
Q 1361 548 , 1345 548 
Q 1330 548 , 1330 547 
Q 1330 547 , 1345 546 
Q 1361 546 , 1387 546 
Q 1398 546 , 1407 546 
Q 1417 546 , 1427 546 
L 1427 546 
Q 1414 546 , 1406 546 
Q 1397 546 , 1388 546 
Q 1367 546 , 1356 546 
Q 1346 547 , 1346 547 
Q 1346 547 , 1356 548 
Q 1367 548 , 1388 548 
Q 1397 548 , 1404 548 
Q 1411 548 , 1414 548 
" fill="#F5C000" />
<path d="M 65 168 L 65 555 " stroke="black" stroke-width="1.5"/>
<path d="M 55 555 L 65 555 " stroke="black" stroke-width="4"/>
<text text-anchor="end" x="50" y="555" font-size="50" alignment-baseline="middle">0</text>
<path d="M 55 362 L 65 362 " stroke="black" stroke-width="4"/>
<text text-anchor="end" x="50" y="362" font-size="50" alignment-baseline="middle">1</text>
<path d="M 55 168 L 65 168 " stroke="black" stroke-width="4"/>
<text text-anchor="end" x="50" y="168" font-size="50" alignment-baseline="middle">2</text>
<text text-anchor="middle" x="750" y="50" font-size="50" alignment-baseline="baseline"></text>
G<path d="
M 160 582 
L 126 595 
L 160 608 
L 157 611 
L 123 598 
L 123 623 
L 117 623 
L 117 599 
L 83 611 
L 80 608 
L 114 595 
L 80 582 
L 83 579 
L 117 591 
L 117 567 
L 123 567 
L 123 591 
L 157 579 
L 160 582 
" fill="black" />
<path d="
" fill="black" />
<path d="
M 211 567 
L 238 567 
L 238 623 
L 211 623 
L 211 567 
" fill="black" />
<path d="
" fill="black" />
<path d="
M 370 567 
Q 341 574 , 328 581 
Q 315 588 , 315 595 
Q 315 602 , 328 609 
Q 341 616 , 370 623 
L 346 623 
Q 318 616 , 304 609 
Q 290 602 , 290 595 
Q 290 588 , 304 581 
Q 318 574 , 346 567 
L 370 567 
" fill="black" />
<path d="
" fill="black" />
<path d="
M 421 567 
L 448 567 
L 448 623 
L 421 623 
L 421 567 
" fill="black" />
<path d="
" fill="black" />
<path d="
" fill="black" />
<path d="
M 526 567 
L 553 567 
L 553 623 
L 526 623 
L 526 567 
" fill="black" />
<path d="
" fill="black" />
<path d="
" fill="black" />
<path d="
M 622 567 
L 642 567 
L 642 623 
L 622 623 
L 622 567 
" fill="black" />
<path d="
" fill="black" />
<path d="
M 672 567 
L 692 567 
L 692 571 
L 680 623 
L 677 623 
L 689 571 
L 672 571 
L 672 567 
" fill="black" />
<path d="
M 790 582 
L 756 595 
L 790 608 
L 787 611 
L 753 598 
L 753 623 
L 747 623 
L 747 599 
L 713 611 
L 710 608 
L 744 595 
L 710 582 
L 713 579 
L 747 591 
L 747 567 
L 753 567 
L 753 591 
L 787 579 
L 790 582 
" fill="black" />
<path d="
" fill="black" />
<path d="
M 841 567 
L 868 567 
L 868 623 
L 841 623 
L 841 567 
" fill="black" />
<path d="
" fill="black" />
<path d="
M 920 567 
L 944 567 
Q 972 574 , 986 581 
Q 1000 588 , 1000 595 
Q 1000 602 , 986 609 
Q 972 616 , 944 623 
L 920 623 
Q 949 616 , 962 609 
Q 975 602 , 975 595 
Q 975 588 , 962 581 
Q 949 574 , 920 567 
" fill="black" />
<path d="
" fill="black" />
<path d="
M 1051 567 
L 1078 567 
L 1078 623 
L 1051 623 
L 1051 567 
" fill="black" />
<path d="
" fill="black" />
<path d="
" fill="black" />
<path d="
M 1156 567 
L 1183 567 
L 1183 623 
L 1156 623 
L 1156 567 
" fill="black" />
<path d="
" fill="black" />
<path d="
" fill="black" />
<path d="
M 1261 567 
L 1288 567 
L 1288 623 
L 1261 623 
L 1261 567 
" fill="black" />
<path d="
" fill="black" />
<path d="
M 1420 582 
L 1386 595 
L 1420 608 
L 1417 611 
L 1383 598 
L 1383 623 
L 1377 623 
L 1377 599 
L 1343 611 
L 1340 608 
L 1374 595 
L 1340 582 
L 1343 579 
L 1377 591 
L 1377 567 
L 1383 567 
L 1383 591 
L 1417 579 
L 1420 582 
" fill="black" />
</svg>
