<svg xmlns="http://www.w3.org/2000/svg"
viewBox="0 0 1435 635">
<path d="
M 120 554 
L 102 554 
L 136 554 
L 120 554 
M 113 554 
L 127 554 
L 170 555 
L 154 555 
L 142 554 
L 98 554 
L 85 555 
L 70 555 
L 113 554 
" fill="#339541" />
<path d="
M 70 553 
L 88 553 
L 88 553 
Q 88 554 , 96 554 
Q 103 554 , 120 554 
Q 137 554 , 145 554 
Q 152 554 , 152 553 
L 152 553 
L 170 553 
L 170 553 
Q 170 554 , 157 554 
Q 145 554 , 120 554 
Q 96 554 , 83 554 
Q 70 554 , 70 553 
L 70 553 
" fill="#D21010" />
<path d="
M 170 552 
L 170 552 
Q 155 552 , 147 552 
Q 139 552 , 129 552 
Q 108 552 , 98 552 
Q 86 552 , 86 552 
Q 86 553 , 98 553 
Q 108 553 , 129 553 
Q 139 553 , 147 553 
Q 155 553 , 170 553 
L 170 553 
Q 159 553 , 149 553 
Q 139 553 , 128 553 
Q 101 553 , 86 553 
Q 70 553 , 70 552 
Q 70 552 , 86 552 
Q 101 552 , 128 552 
Q 139 552 , 149 552 
Q 160 552 , 170 552 
" fill="#545FFF" />
<path d="
M 154 551 
L 154 551 
L 125 551 
L 125 550 
L 170 550 
L 170 551 
Q 159 551 , 148 551 
Q 139 551 , 127 551 
Q 101 551 , 85 551 
Q 70 551 , 70 551 
Q 70 550 , 85 550 
Q 101 550 , 127 550 
Q 138 550 , 147 550 
Q 157 550 , 167 550 
L 167 550 
Q 154 550 , 146 550 
Q 137 550 , 128 550 
Q 107 550 , 96 550 
Q 86 550 , 86 551 
Q 86 551 , 96 551 
Q 107 551 , 128 551 
Q 137 551 , 144 551 
Q 151 551 , 154 551 
" fill="#F5C000" />
<path d="
M 175 552 
L 193 552 
L 193 553 
Q 193 554 , 201 554 
Q 208 554 , 225 554 
Q 242 554 , 250 554 
Q 257 554 , 257 553 
L 257 552 
L 275 552 
L 275 554 
Q 275 554 , 262 554 
Q 250 555 , 225 555 
Q 201 555 , 188 554 
Q 175 554 , 175 554 
L 175 552 
" fill="#D21010" />
<path d="
M 225 547 
L 207 549 
L 241 549 
L 225 547 
M 218 546 
L 232 546 
L 275 552 
L 259 552 
L 247 550 
L 203 550 
L 190 552 
L 175 552 
L 218 546 
" fill="#339541" />
<path d="
M 259 545 
L 259 542 
L 230 542 
L 230 541 
L 275 541 
L 275 545 
Q 264 546 , 253 546 
Q 244 546 , 232 546 
Q 206 546 , 190 545 
Q 175 544 , 175 541 
Q 175 539 , 190 538 
Q 206 537 , 232 537 
Q 243 537 , 252 537 
Q 262 537 , 272 538 
L 272 539 
Q 259 538 , 251 538 
Q 242 538 , 233 538 
Q 212 538 , 201 539 
Q 191 540 , 191 541 
Q 191 543 , 201 544 
Q 212 545 , 233 545 
Q 242 545 , 249 545 
Q 256 545 , 259 545 
" fill="#F5C000" />
<path d="
M 275 528 
L 275 529 
Q 260 528 , 252 528 
Q 244 528 , 234 528 
Q 213 528 , 203 529 
Q 191 530 , 191 531 
Q 191 533 , 203 534 
Q 213 535 , 234 535 
Q 244 535 , 252 535 
Q 260 535 , 275 534 
L 275 535 
Q 264 536 , 254 536 
Q 244 536 , 233 536 
Q 206 536 , 191 535 
Q 175 534 , 175 532 
Q 175 529 , 191 528 
Q 206 527 , 233 527 
Q 244 527 , 254 527 
Q 265 527 , 275 528 
" fill="#545FFF" />
<path d="
M 322 554 
L 322 554 
L 308 554 
L 308 553 
L 330 553 
L 330 554 
Q 325 554 , 319 554 
Q 314 554 , 308 554 
Q 295 554 , 288 554 
Q 280 554 , 280 554 
Q 280 553 , 288 553 
Q 295 553 , 308 553 
Q 314 553 , 319 553 
Q 324 553 , 329 553 
L 329 553 
Q 322 553 , 318 553 
Q 314 553 , 309 553 
Q 299 553 , 293 553 
Q 288 553 , 288 554 
Q 288 554 , 293 554 
Q 299 554 , 309 554 
Q 314 554 , 317 554 
Q 321 554 , 322 554 
" fill="#F5C000" />
<path d="
M 330 553 
L 339 553 
L 339 554 
Q 339 554 , 343 554 
Q 346 554 , 355 554 
Q 364 554 , 367 554 
Q 371 554 , 371 554 
L 371 553 
L 380 553 
L 380 554 
Q 380 554 , 374 554 
Q 367 554 , 355 554 
Q 343 554 , 336 554 
Q 330 554 , 330 554 
L 330 553 
" fill="lightgray" />
<path d="
M 280 547 
L 289 547 
L 289 551 
Q 289 551 , 293 552 
Q 296 552 , 305 552 
Q 314 552 , 317 552 
Q 321 551 , 321 551 
L 321 547 
L 330 547 
L 330 551 
Q 330 552 , 324 552 
Q 317 553 , 305 553 
Q 293 553 , 286 552 
Q 280 552 , 280 551 
L 280 547 
" fill="#D21010" />
<path d="
M 355 548 
L 346 551 
L 363 551 
L 355 548 
M 351 547 
L 359 547 
L 380 553 
L 372 553 
L 366 551 
L 344 551 
L 337 553 
L 330 553 
L 351 547 
" fill="lightgray" />
<path d="
M 280 535 
L 289 535 
L 289 542 
Q 289 543 , 293 544 
Q 296 545 , 305 545 
Q 314 545 , 317 544 
Q 321 543 , 321 542 
L 321 535 
L 330 535 
L 330 542 
Q 330 544 , 324 545 
Q 317 546 , 305 546 
Q 293 546 , 286 545 
Q 280 544 , 280 542 
L 280 535 
" fill="#D21010" />
<path d="
M 372 544 
L 372 541 
L 358 541 
L 358 540 
L 380 540 
L 380 545 
Q 375 546 , 369 546 
Q 364 546 , 358 546 
Q 345 546 , 338 545 
Q 330 543 , 330 541 
Q 330 538 , 338 536 
Q 345 535 , 358 535 
Q 364 535 , 369 535 
Q 374 535 , 379 536 
L 379 537 
Q 372 537 , 368 536 
Q 364 536 , 359 536 
Q 349 536 , 343 537 
Q 338 538 , 338 541 
Q 338 543 , 343 544 
Q 349 545 , 359 545 
Q 364 545 , 367 545 
Q 371 545 , 372 544 
" fill="lightgray" />
<path d="
M 305 525 
L 296 530 
L 313 530 
L 305 525 
M 301 523 
L 309 523 
L 330 534 
L 322 534 
L 316 531 
L 294 531 
L 287 534 
L 280 534 
L 301 523 
" fill="#339541" />
<path d="
M 330 523 
L 339 523 
L 339 530 
Q 339 531 , 343 532 
Q 346 533 , 355 533 
Q 364 533 , 367 532 
Q 371 531 , 371 530 
L 371 523 
L 380 523 
L 380 530 
Q 380 532 , 374 533 
Q 367 534 , 355 534 
Q 343 534 , 336 533 
Q 330 532 , 330 530 
L 330 523 
" fill="lightgray" />
<path d="
M 322 518 
L 322 510 
L 308 510 
L 308 506 
L 330 506 
L 330 520 
Q 325 521 , 319 522 
Q 314 522 , 308 523 
Q 295 523 , 288 518 
Q 280 514 , 280 507 
Q 280 499 , 288 495 
Q 295 491 , 308 491 
Q 314 491 , 319 492 
Q 324 492 , 329 494 
L 329 498 
Q 322 496 , 318 495 
Q 314 495 , 309 495 
Q 299 495 , 293 498 
Q 288 501 , 288 507 
Q 288 513 , 293 516 
Q 299 519 , 309 519 
Q 314 519 , 317 519 
Q 321 518 , 322 518 
" fill="#F5C000" />
<path d="
M 380 494 
L 380 499 
Q 373 496 , 369 495 
Q 364 494 , 359 494 
Q 349 494 , 344 498 
Q 338 501 , 338 507 
Q 338 513 , 344 516 
Q 349 519 , 359 519 
Q 364 519 , 369 518 
Q 373 517 , 380 514 
L 380 519 
Q 375 521 , 369 522 
Q 365 523 , 359 523 
Q 345 523 , 338 518 
Q 330 514 , 330 507 
Q 330 500 , 338 495 
Q 345 491 , 359 491 
Q 365 491 , 370 492 
Q 375 493 , 380 494 
" fill="lightgray" />
<path d="
M 330 455 
L 330 461 
Q 323 457 , 319 456 
Q 314 455 , 309 455 
Q 299 455 , 294 459 
Q 288 463 , 288 470 
Q 288 478 , 294 482 
Q 299 486 , 309 486 
Q 314 486 , 319 485 
Q 323 484 , 330 480 
L 330 486 
Q 325 488 , 319 489 
Q 315 490 , 309 490 
Q 295 490 , 288 485 
Q 280 480 , 280 471 
Q 280 462 , 288 456 
Q 295 451 , 309 451 
Q 315 451 , 320 452 
Q 325 453 , 330 455 
" fill="#545FFF" />
<path d="
M 372 485 
L 372 474 
L 358 474 
L 358 470 
L 380 470 
L 380 487 
Q 375 489 , 369 490 
Q 364 490 , 358 490 
Q 345 490 , 338 485 
Q 330 480 , 330 471 
Q 330 461 , 338 456 
Q 345 451 , 358 451 
Q 364 451 , 369 452 
Q 374 452 , 379 454 
L 379 459 
Q 372 457 , 368 456 
Q 364 456 , 359 456 
Q 349 456 , 343 459 
Q 338 463 , 338 471 
Q 338 478 , 343 482 
Q 349 486 , 359 486 
Q 364 486 , 367 485 
Q 371 485 , 372 485 
" fill="lightgray" />
<path d="
M 410 552 
L 401 553 
L 418 553 
L 410 552 
M 406 551 
L 414 551 
L 435 554 
L 427 554 
L 421 553 
L 399 553 
L 392 554 
L 385 554 
L 406 551 
" fill="#339541" />
<path d="
M 435 551 
L 444 551 
L 444 553 
Q 444 553 , 448 554 
Q 451 554 , 460 554 
Q 469 554 , 472 554 
Q 476 553 , 476 553 
L 476 551 
L 485 551 
L 485 553 
Q 485 554 , 479 554 
Q 472 554 , 460 554 
Q 448 554 , 441 554 
Q 435 554 , 435 553 
L 435 551 
" fill="lightgray" />
<path d="
M 385 545 
L 394 545 
L 394 548 
Q 394 549 , 398 550 
Q 401 550 , 410 550 
Q 419 550 , 422 550 
Q 426 549 , 426 548 
L 426 545 
L 435 545 
L 435 549 
Q 435 550 , 429 550 
Q 422 551 , 410 551 
Q 398 551 , 391 550 
Q 385 550 , 385 549 
L 385 545 
" fill="#D21010" />
<path d="
M 477 550 
L 477 548 
L 463 548 
L 463 548 
L 485 548 
L 485 550 
Q 480 551 , 474 551 
Q 469 551 , 463 551 
Q 450 551 , 443 550 
Q 435 549 , 435 548 
Q 435 547 , 443 546 
Q 450 545 , 463 545 
Q 469 545 , 474 545 
Q 479 545 , 484 545 
L 484 546 
Q 477 546 , 473 546 
Q 469 546 , 464 546 
Q 454 546 , 448 546 
Q 443 547 , 443 548 
Q 443 549 , 448 550 
Q 454 550 , 464 550 
Q 469 550 , 472 550 
Q 476 550 , 477 550 
" fill="lightgray" />
<path d="
M 427 543 
L 427 542 
L 413 542 
L 413 541 
L 435 541 
L 435 544 
Q 430 544 , 424 544 
Q 419 544 , 413 544 
Q 400 544 , 393 543 
Q 385 542 , 385 541 
Q 385 540 , 393 539 
Q 400 538 , 413 538 
Q 419 538 , 424 538 
Q 429 538 , 434 538 
L 434 539 
Q 427 539 , 423 539 
Q 419 539 , 414 539 
Q 404 539 , 398 539 
Q 393 540 , 393 541 
Q 393 542 , 398 543 
Q 404 543 , 414 543 
Q 419 543 , 422 543 
Q 426 543 , 427 543 
" fill="#F5C000" />
<path d="
M 435 538 
L 444 538 
L 444 542 
Q 444 543 , 448 543 
Q 451 543 , 460 543 
Q 469 543 , 472 543 
Q 476 543 , 476 542 
L 476 538 
L 485 538 
L 485 542 
Q 485 543 , 479 543 
Q 472 544 , 460 544 
Q 448 544 , 441 543 
Q 435 543 , 435 542 
L 435 538 
" fill="lightgray" />
<path d="
M 385 529 
L 394 529 
L 394 534 
Q 394 536 , 398 536 
Q 401 537 , 410 537 
Q 419 537 , 422 536 
Q 426 536 , 426 534 
L 426 529 
L 435 529 
L 435 534 
Q 435 536 , 429 537 
Q 422 538 , 410 538 
Q 398 538 , 391 537 
Q 385 536 , 385 534 
L 385 529 
" fill="#D21010" />
<path d="
M 460 531 
L 451 534 
L 468 534 
L 460 531 
M 456 529 
L 464 529 
L 485 538 
L 477 538 
L 471 535 
L 449 535 
L 442 538 
L 435 538 
L 456 529 
" fill="lightgray" />
<path d="
M 435 508 
L 435 511 
Q 428 509 , 424 508 
Q 419 508 , 414 508 
Q 404 508 , 399 510 
Q 393 512 , 393 516 
Q 393 521 , 399 524 
Q 404 526 , 414 526 
Q 419 526 , 424 525 
Q 428 525 , 435 522 
L 435 526 
Q 430 528 , 424 528 
Q 420 529 , 414 529 
Q 400 529 , 393 525 
Q 385 522 , 385 517 
Q 385 511 , 393 508 
Q 400 505 , 414 505 
Q 420 505 , 425 506 
Q 430 506 , 435 508 
" fill="#545FFF" />
<path d="
M 477 525 
L 477 519 
L 463 519 
L 463 516 
L 485 516 
L 485 527 
Q 480 528 , 474 528 
Q 469 529 , 463 529 
Q 450 529 , 443 525 
Q 435 522 , 435 517 
Q 435 511 , 443 508 
Q 450 505 , 463 505 
Q 469 505 , 474 505 
Q 479 506 , 484 507 
L 484 510 
Q 477 509 , 473 508 
Q 469 508 , 464 508 
Q 454 508 , 448 510 
Q 443 512 , 443 517 
Q 443 521 , 448 524 
Q 454 526 , 464 526 
Q 469 526 , 472 526 
Q 476 526 , 477 525 
" fill="lightgray" />
<path d="
M 427 500 
L 427 493 
L 413 493 
L 413 490 
L 435 490 
L 435 502 
Q 430 503 , 424 504 
Q 419 504 , 413 504 
Q 400 504 , 393 500 
Q 385 497 , 385 491 
Q 385 484 , 393 481 
Q 400 477 , 413 477 
Q 419 477 , 424 477 
Q 429 478 , 434 479 
L 434 483 
Q 427 481 , 423 481 
Q 419 480 , 414 480 
Q 404 480 , 398 483 
Q 393 485 , 393 491 
Q 393 496 , 398 499 
Q 404 501 , 414 501 
Q 419 501 , 422 501 
Q 426 501 , 427 500 
" fill="#F5C000" />
<path d="
M 485 480 
L 485 484 
Q 478 481 , 474 481 
Q 469 480 , 464 480 
Q 454 480 , 449 483 
Q 443 485 , 443 490 
Q 443 496 , 449 499 
Q 454 501 , 464 501 
Q 469 501 , 474 500 
Q 478 500 , 485 497 
L 485 501 
Q 480 503 , 474 503 
Q 470 504 , 464 504 
Q 450 504 , 443 500 
Q 435 497 , 435 491 
Q 435 484 , 443 481 
Q 450 477 , 464 477 
Q 470 477 , 475 478 
Q 480 478 , 485 480 
" fill="lightgray" />
<path d="
M 540 552 
L 522 553 
L 556 553 
L 540 552 
M 533 551 
L 547 551 
L 590 555 
L 574 555 
L 562 554 
L 518 554 
L 505 555 
L 490 555 
L 533 551 
" fill="#339541" />
<path d="
M 490 546 
L 508 546 
L 508 549 
Q 508 549 , 516 550 
Q 523 550 , 540 550 
Q 557 550 , 565 550 
Q 572 549 , 572 549 
L 572 546 
L 590 546 
L 590 549 
Q 590 550 , 577 550 
Q 565 551 , 540 551 
Q 516 551 , 503 550 
Q 490 550 , 490 549 
L 490 546 
" fill="#D21010" />
<path d="
M 590 503 
L 590 510 
Q 575 506 , 567 505 
Q 559 503 , 549 503 
Q 528 503 , 518 508 
Q 506 513 , 506 522 
Q 506 531 , 518 536 
Q 528 541 , 549 541 
Q 559 541 , 567 539 
Q 575 538 , 590 533 
L 590 541 
Q 579 543 , 569 545 
Q 559 546 , 548 546 
Q 521 546 , 506 539 
Q 490 533 , 490 522 
Q 490 511 , 506 505 
Q 521 498 , 548 498 
Q 559 498 , 569 499 
Q 580 500 , 590 503 
" fill="#545FFF" />
<path d="
M 574 485 
L 574 461 
L 545 461 
L 545 452 
L 590 452 
L 590 491 
Q 579 494 , 568 496 
Q 559 497 , 547 497 
Q 521 497 , 505 486 
Q 490 474 , 490 454 
Q 490 433 , 505 422 
Q 521 410 , 547 410 
Q 558 410 , 567 412 
Q 577 413 , 587 417 
L 587 428 
Q 574 423 , 566 422 
Q 557 420 , 548 420 
Q 527 420 , 516 429 
Q 506 437 , 506 454 
Q 506 471 , 516 479 
Q 527 488 , 548 488 
Q 557 488 , 564 487 
Q 571 486 , 574 485 
" fill="#F5C000" />
<path d="
M 645 552 
L 627 553 
L 661 553 
L 645 552 
M 638 552 
L 652 552 
L 695 554 
L 679 554 
L 667 554 
L 623 554 
L 610 554 
L 595 554 
L 638 552 
" fill="#339541" />
<path d="
M 695 542 
L 695 544 
Q 680 543 , 672 542 
Q 664 542 , 654 542 
Q 633 542 , 623 543 
Q 611 544 , 611 546 
Q 611 548 , 623 550 
Q 633 551 , 654 551 
Q 664 551 , 672 550 
Q 680 550 , 695 549 
L 695 551 
Q 684 551 , 674 551 
Q 664 552 , 653 552 
Q 626 552 , 611 550 
Q 595 549 , 595 546 
Q 595 544 , 611 542 
Q 626 541 , 653 541 
Q 664 541 , 674 541 
Q 685 542 , 695 542 
" fill="#545FFF" />
<path d="
M 679 538 
L 679 533 
L 650 533 
L 650 531 
L 695 531 
L 695 539 
Q 684 540 , 673 540 
Q 664 540 , 652 540 
Q 626 540 , 610 538 
Q 595 536 , 595 531 
Q 595 527 , 610 524 
Q 626 522 , 652 522 
Q 663 522 , 672 522 
Q 682 523 , 692 523 
L 692 526 
Q 679 525 , 671 524 
Q 662 524 , 653 524 
Q 632 524 , 621 526 
Q 611 528 , 611 531 
Q 611 535 , 621 537 
Q 632 538 , 653 538 
Q 662 538 , 669 538 
Q 676 538 , 679 538 
" fill="#F5C000" />
<path d="
M 595 501 
L 613 501 
L 613 513 
Q 613 517 , 621 518 
Q 628 519 , 645 519 
Q 662 519 , 670 518 
Q 677 517 , 677 513 
L 677 501 
L 695 501 
L 695 514 
Q 695 518 , 682 520 
Q 670 522 , 645 522 
Q 621 522 , 608 520 
Q 595 518 , 595 514 
L 595 501 
" fill="#D21010" />
<path d="
M 750 554 
L 732 554 
L 766 554 
L 750 554 
M 743 554 
L 757 554 
L 800 555 
L 784 555 
L 772 554 
L 728 554 
L 715 555 
L 700 555 
L 743 554 
" fill="#339541" />
<path d="
M 700 553 
L 718 553 
L 718 553 
Q 718 554 , 726 554 
Q 733 554 , 750 554 
Q 767 554 , 775 554 
Q 782 554 , 782 553 
L 782 553 
L 800 553 
L 800 553 
Q 800 554 , 787 554 
Q 775 554 , 750 554 
Q 726 554 , 713 554 
Q 700 554 , 700 553 
L 700 553 
" fill="#D21010" />
<path d="
M 800 552 
L 800 552 
Q 785 552 , 777 552 
Q 769 552 , 759 552 
Q 738 552 , 728 552 
Q 716 552 , 716 552 
Q 716 553 , 728 553 
Q 738 553 , 759 553 
Q 769 553 , 777 553 
Q 785 553 , 800 553 
L 800 553 
Q 789 553 , 779 553 
Q 769 553 , 758 553 
Q 731 553 , 716 553 
Q 700 553 , 700 552 
Q 700 552 , 716 552 
Q 731 552 , 758 552 
Q 769 552 , 779 552 
Q 790 552 , 800 552 
" fill="#545FFF" />
<path d="
M 784 551 
L 784 551 
L 755 551 
L 755 550 
L 800 550 
L 800 551 
Q 789 551 , 778 551 
Q 769 551 , 757 551 
Q 731 551 , 715 551 
Q 700 551 , 700 551 
Q 700 550 , 715 550 
Q 731 550 , 757 550 
Q 768 550 , 777 550 
Q 787 550 , 797 550 
L 797 550 
Q 784 550 , 776 550 
Q 767 550 , 758 550 
Q 737 550 , 726 550 
Q 716 550 , 716 551 
Q 716 551 , 726 551 
Q 737 551 , 758 551 
Q 767 551 , 774 551 
Q 781 551 , 784 551 
" fill="#F5C000" />
<path d="
M 805 550 
L 823 550 
L 823 552 
Q 823 553 , 831 553 
Q 838 554 , 855 554 
Q 872 554 , 880 553 
Q 887 553 , 887 552 
L 887 550 
L 905 550 
L 905 552 
Q 905 553 , 892 554 
Q 880 554 , 855 554 
Q 831 554 , 818 554 
Q 805 553 , 805 552 
L 805 550 
" fill="#D21010" />
<path d="
M 855 543 
L 837 546 
L 871 546 
L 855 543 
M 848 542 
L 862 542 
L 905 549 
L 889 549 
L 877 547 
L 833 547 
L 820 549 
L 805 549 
L 848 542 
" fill="#339541" />
<path d="
M 905 535 
L 905 536 
Q 890 535 , 882 535 
Q 874 535 , 864 535 
Q 843 535 , 833 536 
Q 821 536 , 821 537 
Q 821 539 , 833 540 
Q 843 541 , 864 541 
Q 874 541 , 882 541 
Q 890 541 , 905 540 
L 905 541 
Q 894 541 , 884 542 
Q 874 542 , 863 542 
Q 836 542 , 821 541 
Q 805 540 , 805 538 
Q 805 536 , 821 535 
Q 836 534 , 863 534 
Q 874 534 , 884 534 
Q 895 534 , 905 535 
" fill="#545FFF" />
<path d="
M 889 531 
L 889 527 
L 860 527 
L 860 525 
L 905 525 
L 905 533 
Q 894 533 , 883 534 
Q 874 534 , 862 534 
Q 836 534 , 820 532 
Q 805 529 , 805 525 
Q 805 522 , 820 519 
Q 836 517 , 862 517 
Q 873 517 , 882 517 
Q 892 518 , 902 518 
L 902 521 
Q 889 520 , 881 519 
Q 872 519 , 863 519 
Q 842 519 , 831 521 
Q 821 522 , 821 525 
Q 821 529 , 831 530 
Q 842 532 , 863 532 
Q 872 532 , 879 532 
Q 886 532 , 889 531 
" fill="#F5C000" />
<path d="
M 935 552 
L 926 553 
L 943 553 
L 935 552 
M 931 551 
L 939 551 
L 960 554 
L 952 554 
L 946 553 
L 924 553 
L 917 554 
L 910 554 
L 931 551 
" fill="lightgray" />
<path d="
M 960 551 
L 969 551 
L 969 553 
Q 969 553 , 973 554 
Q 976 554 , 985 554 
Q 994 554 , 997 554 
Q 1001 553 , 1001 553 
L 1001 551 
L 1010 551 
L 1010 553 
Q 1010 554 , 1004 554 
Q 997 554 , 985 554 
Q 973 554 , 966 554 
Q 960 554 , 960 553 
L 960 551 
" fill="#D21010" />
<path d="
M 910 545 
L 919 545 
L 919 548 
Q 919 549 , 923 550 
Q 926 550 , 935 550 
Q 944 550 , 947 550 
Q 951 549 , 951 548 
L 951 545 
L 960 545 
L 960 549 
Q 960 550 , 954 550 
Q 947 551 , 935 551 
Q 923 551 , 916 550 
Q 910 550 , 910 549 
L 910 545 
" fill="lightgray" />
<path d="
M 1002 550 
L 1002 548 
L 988 548 
L 988 548 
L 1010 548 
L 1010 550 
Q 1005 551 , 999 551 
Q 994 551 , 988 551 
Q 975 551 , 968 550 
Q 960 549 , 960 548 
Q 960 547 , 968 546 
Q 975 545 , 988 545 
Q 994 545 , 999 545 
Q 1004 545 , 1009 545 
L 1009 546 
Q 1002 546 , 998 546 
Q 994 546 , 989 546 
Q 979 546 , 973 546 
Q 968 547 , 968 548 
Q 968 549 , 973 550 
Q 979 550 , 989 550 
Q 994 550 , 997 550 
Q 1001 550 , 1002 550 
" fill="#F5C000" />
<path d="
M 952 543 
L 952 542 
L 938 542 
L 938 541 
L 960 541 
L 960 544 
Q 955 544 , 949 544 
Q 944 544 , 938 544 
Q 925 544 , 918 543 
Q 910 542 , 910 541 
Q 910 540 , 918 539 
Q 925 538 , 938 538 
Q 944 538 , 949 538 
Q 954 538 , 959 538 
L 959 539 
Q 952 539 , 948 539 
Q 944 539 , 939 539 
Q 929 539 , 923 539 
Q 918 540 , 918 541 
Q 918 542 , 923 543 
Q 929 543 , 939 543 
Q 944 543 , 947 543 
Q 951 543 , 952 543 
" fill="lightgray" />
<path d="
M 960 538 
L 969 538 
L 969 542 
Q 969 543 , 973 543 
Q 976 543 , 985 543 
Q 994 543 , 997 543 
Q 1001 543 , 1001 542 
L 1001 538 
L 1010 538 
L 1010 542 
Q 1010 543 , 1004 543 
Q 997 544 , 985 544 
Q 973 544 , 966 543 
Q 960 543 , 960 542 
L 960 538 
" fill="#D21010" />
<path d="
M 910 529 
L 919 529 
L 919 534 
Q 919 536 , 923 536 
Q 926 537 , 935 537 
Q 944 537 , 947 536 
Q 951 536 , 951 534 
L 951 529 
L 960 529 
L 960 534 
Q 960 536 , 954 537 
Q 947 538 , 935 538 
Q 923 538 , 916 537 
Q 910 536 , 910 534 
L 910 529 
" fill="lightgray" />
<path d="
M 985 531 
L 976 534 
L 993 534 
L 985 531 
M 981 529 
L 989 529 
L 1010 538 
L 1002 538 
L 996 535 
L 974 535 
L 967 538 
L 960 538 
L 981 529 
" fill="#339541" />
<path d="
M 960 508 
L 960 511 
Q 953 509 , 949 508 
Q 944 508 , 939 508 
Q 929 508 , 924 510 
Q 918 512 , 918 516 
Q 918 521 , 924 524 
Q 929 526 , 939 526 
Q 944 526 , 949 525 
Q 953 525 , 960 522 
L 960 526 
Q 955 528 , 949 528 
Q 945 529 , 939 529 
Q 925 529 , 918 525 
Q 910 522 , 910 517 
Q 910 511 , 918 508 
Q 925 505 , 939 505 
Q 945 505 , 950 506 
Q 955 506 , 960 508 
" fill="lightgray" />
<path d="
M 1002 525 
L 1002 519 
L 988 519 
L 988 516 
L 1010 516 
L 1010 527 
Q 1005 528 , 999 528 
Q 994 529 , 988 529 
Q 975 529 , 968 525 
Q 960 522 , 960 517 
Q 960 511 , 968 508 
Q 975 505 , 988 505 
Q 994 505 , 999 505 
Q 1004 506 , 1009 507 
L 1009 510 
Q 1002 509 , 998 508 
Q 994 508 , 989 508 
Q 979 508 , 973 510 
Q 968 512 , 968 517 
Q 968 521 , 973 524 
Q 979 526 , 989 526 
Q 994 526 , 997 526 
Q 1001 526 , 1002 525 
" fill="#F5C000" />
<path d="
M 952 500 
L 952 493 
L 938 493 
L 938 490 
L 960 490 
L 960 502 
Q 955 503 , 949 504 
Q 944 504 , 938 504 
Q 925 504 , 918 500 
Q 910 497 , 910 491 
Q 910 484 , 918 481 
Q 925 477 , 938 477 
Q 944 477 , 949 477 
Q 954 478 , 959 479 
L 959 483 
Q 952 481 , 948 481 
Q 944 480 , 939 480 
Q 929 480 , 923 483 
Q 918 485 , 918 491 
Q 918 496 , 923 499 
Q 929 501 , 939 501 
Q 944 501 , 947 501 
Q 951 501 , 952 500 
" fill="lightgray" />
<path d="
M 1010 480 
L 1010 484 
Q 1003 481 , 999 481 
Q 994 480 , 989 480 
Q 979 480 , 974 483 
Q 968 485 , 968 490 
Q 968 496 , 974 499 
Q 979 501 , 989 501 
Q 994 501 , 999 500 
Q 1003 500 , 1010 497 
L 1010 501 
Q 1005 503 , 999 503 
Q 995 504 , 989 504 
Q 975 504 , 968 500 
Q 960 497 , 960 491 
Q 960 484 , 968 481 
Q 975 477 , 989 477 
Q 995 477 , 1000 478 
Q 1005 478 , 1010 480 
" fill="#545FFF" />
<path d="
M 1057 554 
L 1057 554 
L 1043 554 
L 1043 553 
L 1065 553 
L 1065 554 
Q 1060 554 , 1054 554 
Q 1049 554 , 1043 554 
Q 1030 554 , 1023 554 
Q 1015 554 , 1015 554 
Q 1015 553 , 1023 553 
Q 1030 553 , 1043 553 
Q 1049 553 , 1054 553 
Q 1059 553 , 1064 553 
L 1064 553 
Q 1057 553 , 1053 553 
Q 1049 553 , 1044 553 
Q 1034 553 , 1028 553 
Q 1023 553 , 1023 554 
Q 1023 554 , 1028 554 
Q 1034 554 , 1044 554 
Q 1049 554 , 1052 554 
Q 1056 554 , 1057 554 
" fill="lightgray" />
<path d="
M 1065 553 
L 1074 553 
L 1074 554 
Q 1074 554 , 1078 554 
Q 1081 554 , 1090 554 
Q 1099 554 , 1102 554 
Q 1106 554 , 1106 554 
L 1106 553 
L 1115 553 
L 1115 554 
Q 1115 554 , 1109 554 
Q 1102 554 , 1090 554 
Q 1078 554 , 1071 554 
Q 1065 554 , 1065 554 
L 1065 553 
" fill="#D21010" />
<path d="
M 1015 547 
L 1024 547 
L 1024 551 
Q 1024 551 , 1028 552 
Q 1031 552 , 1040 552 
Q 1049 552 , 1052 552 
Q 1056 551 , 1056 551 
L 1056 547 
L 1065 547 
L 1065 551 
Q 1065 552 , 1059 552 
Q 1052 553 , 1040 553 
Q 1028 553 , 1021 552 
Q 1015 552 , 1015 551 
L 1015 547 
" fill="lightgray" />
<path d="
M 1090 548 
L 1081 551 
L 1098 551 
L 1090 548 
M 1086 547 
L 1094 547 
L 1115 553 
L 1107 553 
L 1101 551 
L 1079 551 
L 1072 553 
L 1065 553 
L 1086 547 
" fill="#339541" />
<path d="
M 1015 535 
L 1024 535 
L 1024 542 
Q 1024 543 , 1028 544 
Q 1031 545 , 1040 545 
Q 1049 545 , 1052 544 
Q 1056 543 , 1056 542 
L 1056 535 
L 1065 535 
L 1065 542 
Q 1065 544 , 1059 545 
Q 1052 546 , 1040 546 
Q 1028 546 , 1021 545 
Q 1015 544 , 1015 542 
L 1015 535 
" fill="lightgray" />
<path d="
M 1107 544 
L 1107 541 
L 1093 541 
L 1093 540 
L 1115 540 
L 1115 545 
Q 1110 546 , 1104 546 
Q 1099 546 , 1093 546 
Q 1080 546 , 1073 545 
Q 1065 543 , 1065 541 
Q 1065 538 , 1073 536 
Q 1080 535 , 1093 535 
Q 1099 535 , 1104 535 
Q 1109 535 , 1114 536 
L 1114 537 
Q 1107 537 , 1103 536 
Q 1099 536 , 1094 536 
Q 1084 536 , 1078 537 
Q 1073 538 , 1073 541 
Q 1073 543 , 1078 544 
Q 1084 545 , 1094 545 
Q 1099 545 , 1102 545 
Q 1106 545 , 1107 544 
" fill="#F5C000" />
<path d="
M 1040 525 
L 1031 530 
L 1048 530 
L 1040 525 
M 1036 523 
L 1044 523 
L 1065 534 
L 1057 534 
L 1051 531 
L 1029 531 
L 1022 534 
L 1015 534 
L 1036 523 
" fill="lightgray" />
<path d="
M 1065 523 
L 1074 523 
L 1074 530 
Q 1074 531 , 1078 532 
Q 1081 533 , 1090 533 
Q 1099 533 , 1102 532 
Q 1106 531 , 1106 530 
L 1106 523 
L 1115 523 
L 1115 530 
Q 1115 532 , 1109 533 
Q 1102 534 , 1090 534 
Q 1078 534 , 1071 533 
Q 1065 532 , 1065 530 
L 1065 523 
" fill="#D21010" />
<path d="
M 1057 518 
L 1057 510 
L 1043 510 
L 1043 506 
L 1065 506 
L 1065 520 
Q 1060 521 , 1054 522 
Q 1049 522 , 1043 523 
Q 1030 523 , 1023 518 
Q 1015 514 , 1015 507 
Q 1015 499 , 1023 495 
Q 1030 491 , 1043 491 
Q 1049 491 , 1054 492 
Q 1059 492 , 1064 494 
L 1064 498 
Q 1057 496 , 1053 495 
Q 1049 495 , 1044 495 
Q 1034 495 , 1028 498 
Q 1023 501 , 1023 507 
Q 1023 513 , 1028 516 
Q 1034 519 , 1044 519 
Q 1049 519 , 1052 519 
Q 1056 518 , 1057 518 
" fill="lightgray" />
<path d="
M 1115 494 
L 1115 499 
Q 1108 496 , 1104 495 
Q 1099 494 , 1094 494 
Q 1084 494 , 1079 498 
Q 1073 501 , 1073 507 
Q 1073 513 , 1079 516 
Q 1084 519 , 1094 519 
Q 1099 519 , 1104 518 
Q 1108 517 , 1115 514 
L 1115 519 
Q 1110 521 , 1104 522 
Q 1100 523 , 1094 523 
Q 1080 523 , 1073 518 
Q 1065 514 , 1065 507 
Q 1065 500 , 1073 495 
Q 1080 491 , 1094 491 
Q 1100 491 , 1105 492 
Q 1110 493 , 1115 494 
" fill="#545FFF" />
<path d="
M 1065 455 
L 1065 461 
Q 1058 457 , 1054 456 
Q 1049 455 , 1044 455 
Q 1034 455 , 1029 459 
Q 1023 463 , 1023 470 
Q 1023 478 , 1029 482 
Q 1034 486 , 1044 486 
Q 1049 486 , 1054 485 
Q 1058 484 , 1065 480 
L 1065 486 
Q 1060 488 , 1054 489 
Q 1050 490 , 1044 490 
Q 1030 490 , 1023 485 
Q 1015 480 , 1015 471 
Q 1015 462 , 1023 456 
Q 1030 451 , 1044 451 
Q 1050 451 , 1055 452 
Q 1060 453 , 1065 455 
" fill="lightgray" />
<path d="
M 1107 485 
L 1107 474 
L 1093 474 
L 1093 470 
L 1115 470 
L 1115 487 
Q 1110 489 , 1104 490 
Q 1099 490 , 1093 490 
Q 1080 490 , 1073 485 
Q 1065 480 , 1065 471 
Q 1065 461 , 1073 456 
Q 1080 451 , 1093 451 
Q 1099 451 , 1104 452 
Q 1109 452 , 1114 454 
L 1114 459 
Q 1107 457 , 1103 456 
Q 1099 456 , 1094 456 
Q 1084 456 , 1078 459 
Q 1073 463 , 1073 471 
Q 1073 478 , 1078 482 
Q 1084 486 , 1094 486 
Q 1099 486 , 1102 485 
Q 1106 485 , 1107 485 
" fill="#F5C000" />
<path d="
M 1170 553 
L 1152 554 
L 1186 554 
L 1170 553 
M 1163 552 
L 1177 552 
L 1220 555 
L 1204 555 
L 1192 554 
L 1148 554 
L 1135 555 
L 1120 555 
L 1163 552 
" fill="#339541" />
<path d="
M 1120 548 
L 1138 548 
L 1138 550 
Q 1138 550 , 1146 551 
Q 1153 551 , 1170 551 
Q 1187 551 , 1195 551 
Q 1202 550 , 1202 550 
L 1202 548 
L 1220 548 
L 1220 550 
Q 1220 551 , 1207 551 
Q 1195 551 , 1170 551 
Q 1146 551 , 1133 551 
Q 1120 551 , 1120 550 
L 1120 548 
" fill="#D21010" />
<path d="
M 1204 547 
L 1204 545 
L 1175 545 
L 1175 545 
L 1220 545 
L 1220 547 
Q 1209 548 , 1198 548 
Q 1189 548 , 1177 548 
Q 1151 548 , 1135 547 
Q 1120 546 , 1120 545 
Q 1120 544 , 1135 543 
Q 1151 542 , 1177 542 
Q 1188 542 , 1197 542 
Q 1207 542 , 1217 542 
L 1217 543 
Q 1204 543 , 1196 543 
Q 1187 543 , 1178 543 
Q 1157 543 , 1146 543 
Q 1136 544 , 1136 545 
Q 1136 546 , 1146 547 
Q 1157 547 , 1178 547 
Q 1187 547 , 1194 547 
Q 1201 547 , 1204 547 
" fill="#F5C000" />
<path d="
M 1220 536 
L 1220 537 
Q 1205 536 , 1197 536 
Q 1189 536 , 1179 536 
Q 1158 536 , 1148 536 
Q 1136 537 , 1136 538 
Q 1136 540 , 1148 540 
Q 1158 541 , 1179 541 
Q 1189 541 , 1197 541 
Q 1205 541 , 1220 540 
L 1220 541 
Q 1209 542 , 1199 542 
Q 1189 542 , 1178 542 
Q 1151 542 , 1136 541 
Q 1120 540 , 1120 538 
Q 1120 537 , 1136 536 
Q 1151 535 , 1178 535 
Q 1189 535 , 1199 535 
Q 1210 535 , 1220 536 
" fill="#545FFF" />
<path d="
M 1225 553 
L 1243 553 
L 1243 554 
Q 1243 554 , 1251 555 
Q 1258 555 , 1275 555 
Q 1292 555 , 1300 555 
Q 1307 554 , 1307 554 
L 1307 553 
L 1325 553 
L 1325 554 
Q 1325 555 , 1312 555 
Q 1300 555 , 1275 555 
Q 1251 555 , 1238 555 
Q 1225 555 , 1225 554 
L 1225 553 
" fill="#D21010" />
<path d="
M 1275 550 
L 1257 551 
L 1291 551 
L 1275 550 
M 1268 550 
L 1282 550 
L 1325 552 
L 1309 552 
L 1297 552 
L 1253 552 
L 1240 552 
L 1225 552 
L 1268 550 
" fill="#339541" />
<path d="
M 1325 546 
L 1325 547 
Q 1310 547 , 1302 546 
Q 1294 546 , 1284 546 
Q 1263 546 , 1253 547 
Q 1241 547 , 1241 547 
Q 1241 548 , 1253 549 
Q 1263 549 , 1284 549 
Q 1294 549 , 1302 549 
Q 1310 549 , 1325 549 
L 1325 549 
Q 1314 549 , 1304 549 
Q 1294 550 , 1283 550 
Q 1256 550 , 1241 549 
Q 1225 549 , 1225 548 
Q 1225 547 , 1241 546 
Q 1256 546 , 1283 546 
Q 1294 546 , 1304 546 
Q 1315 546 , 1325 546 
" fill="#545FFF" />
<path d="
M 1309 545 
L 1309 543 
L 1280 543 
L 1280 543 
L 1325 543 
L 1325 545 
Q 1314 545 , 1303 545 
Q 1294 545 , 1282 545 
Q 1256 545 , 1240 545 
Q 1225 544 , 1225 543 
Q 1225 542 , 1240 542 
Q 1256 541 , 1282 541 
Q 1293 541 , 1302 541 
Q 1312 541 , 1322 541 
L 1322 542 
Q 1309 542 , 1301 542 
Q 1292 541 , 1283 541 
Q 1262 541 , 1251 542 
Q 1241 542 , 1241 543 
Q 1241 544 , 1251 544 
Q 1262 545 , 1283 545 
Q 1292 545 , 1299 545 
Q 1306 545 , 1309 545 
" fill="#F5C000" />
<path d="
M 1380 554 
L 1362 554 
L 1396 554 
L 1380 554 
M 1373 554 
L 1387 554 
L 1430 555 
L 1414 555 
L 1402 554 
L 1358 554 
L 1345 555 
L 1330 555 
L 1373 554 
" fill="#339541" />
<path d="
M 1330 553 
L 1348 553 
L 1348 553 
Q 1348 554 , 1356 554 
Q 1363 554 , 1380 554 
Q 1397 554 , 1405 554 
Q 1412 554 , 1412 553 
L 1412 553 
L 1430 553 
L 1430 553 
Q 1430 554 , 1417 554 
Q 1405 554 , 1380 554 
Q 1356 554 , 1343 554 
Q 1330 554 , 1330 553 
L 1330 553 
" fill="#D21010" />
<path d="
M 1430 552 
L 1430 552 
Q 1415 552 , 1407 552 
Q 1399 552 , 1389 552 
Q 1368 552 , 1358 552 
Q 1346 552 , 1346 552 
Q 1346 553 , 1358 553 
Q 1368 553 , 1389 553 
Q 1399 553 , 1407 553 
Q 1415 553 , 1430 553 
L 1430 553 
Q 1419 553 , 1409 553 
Q 1399 553 , 1388 553 
Q 1361 553 , 1346 553 
Q 1330 553 , 1330 552 
Q 1330 552 , 1346 552 
Q 1361 552 , 1388 552 
Q 1399 552 , 1409 552 
Q 1420 552 , 1430 552 
" fill="#545FFF" />
<path d="
M 1414 551 
L 1414 551 
L 1385 551 
L 1385 550 
L 1430 550 
L 1430 551 
Q 1419 551 , 1408 551 
Q 1399 551 , 1387 551 
Q 1361 551 , 1345 551 
Q 1330 551 , 1330 551 
Q 1330 550 , 1345 550 
Q 1361 550 , 1387 550 
Q 1398 550 , 1407 550 
Q 1417 550 , 1427 550 
L 1427 550 
Q 1414 550 , 1406 550 
Q 1397 550 , 1388 550 
Q 1367 550 , 1356 550 
Q 1346 550 , 1346 551 
Q 1346 551 , 1356 551 
Q 1367 551 , 1388 551 
Q 1397 551 , 1404 551 
Q 1411 551 , 1414 551 
" fill="#F5C000" />
<path d="M 65 168 L 65 555 " stroke="black" stroke-width="1.5"/>
<path d="M 55 555 L 65 555 " stroke="black" stroke-width="4"/>
<text text-anchor="end" x="50" y="555" font-size="50" alignment-baseline="middle">0</text>
<path d="M 55 362 L 65 362 " stroke="black" stroke-width="4"/>
<text text-anchor="end" x="50" y="362" font-size="50" alignment-baseline="middle">1</text>
<path d="M 55 168 L 65 168 " stroke="black" stroke-width="4"/>
<text text-anchor="end" x="50" y="168" font-size="50" alignment-baseline="middle">2</text>
<text text-anchor="middle" x="750" y="50" font-size="50" alignment-baseline="baseline"></text>
G<path d="
M 160 582 
L 126 595 
L 160 608 
L 157 611 
L 123 598 
L 123 623 
L 117 623 
L 117 599 
L 83 611 
L 80 608 
L 114 595 
L 80 582 
L 83 579 
L 117 591 
L 117 567 
L 123 567 
L 123 591 
L 157 579 
L 160 582 
" fill="black" />
<path d="
" fill="black" />
<path d="
M 211 567 
L 238 567 
L 238 623 
L 211 623 
L 211 567 
" fill="black" />
<path d="
" fill="black" />
<path d="
M 370 567 
Q 341 574 , 328 581 
Q 315 588 , 315 595 
Q 315 602 , 328 609 
Q 341 616 , 370 623 
L 346 623 
Q 318 616 , 304 609 
Q 290 602 , 290 595 
Q 290 588 , 304 581 
Q 318 574 , 346 567 
L 370 567 
" fill="black" />
<path d="
M 475 567 
Q 446 574 , 433 581 
Q 420 588 , 420 595 
Q 420 602 , 433 609 
Q 446 616 , 475 623 
L 451 623 
Q 423 616 , 409 609 
Q 395 602 , 395 595 
Q 395 588 , 409 581 
Q 423 574 , 451 567 
L 475 567 
" fill="black" />
<path d="
" fill="black" />
<path d="
M 526 567 
L 553 567 
L 553 623 
L 526 623 
L 526 567 
" fill="black" />
<path d="
" fill="black" />
<path d="
" fill="black" />
<path d="
M 622 567 
L 642 567 
L 642 623 
L 622 623 
L 622 567 
" fill="black" />
<path d="
" fill="black" />
<path d="
M 672 567 
L 692 567 
L 692 571 
L 680 623 
L 677 623 
L 689 571 
L 672 571 
L 672 567 
" fill="black" />
<path d="
M 790 582 
L 756 595 
L 790 608 
L 787 611 
L 753 598 
L 753 623 
L 747 623 
L 747 599 
L 713 611 
L 710 608 
L 744 595 
L 710 582 
L 713 579 
L 747 591 
L 747 567 
L 753 567 
L 753 591 
L 787 579 
L 790 582 
" fill="black" />
<path d="
" fill="black" />
<path d="
M 841 567 
L 868 567 
L 868 623 
L 841 623 
L 841 567 
" fill="black" />
<path d="
" fill="black" />
<path d="
M 920 567 
L 944 567 
Q 972 574 , 986 581 
Q 1000 588 , 1000 595 
Q 1000 602 , 986 609 
Q 972 616 , 944 623 
L 920 623 
Q 949 616 , 962 609 
Q 975 602 , 975 595 
Q 975 588 , 962 581 
Q 949 574 , 920 567 
" fill="black" />
<path d="
M 1025 567 
L 1049 567 
Q 1077 574 , 1091 581 
Q 1105 588 , 1105 595 
Q 1105 602 , 1091 609 
Q 1077 616 , 1049 623 
L 1025 623 
Q 1054 616 , 1067 609 
Q 1080 602 , 1080 595 
Q 1080 588 , 1067 581 
Q 1054 574 , 1025 567 
" fill="black" />
<path d="
" fill="black" />
<path d="
M 1156 567 
L 1183 567 
L 1183 623 
L 1156 623 
L 1156 567 
" fill="black" />
<path d="
" fill="black" />
<path d="
" fill="black" />
<path d="
M 1261 567 
L 1288 567 
L 1288 623 
L 1261 623 
L 1261 567 
" fill="black" />
<path d="
" fill="black" />
<path d="
M 1420 582 
L 1386 595 
L 1420 608 
L 1417 611 
L 1383 598 
L 1383 623 
L 1377 623 
L 1377 599 
L 1343 611 
L 1340 608 
L 1374 595 
L 1340 582 
L 1343 579 
L 1377 591 
L 1377 567 
L 1383 567 
L 1383 591 
L 1417 579 
L 1420 582 
" fill="black" />
</svg>
