<svg xmlns="http://www.w3.org/2000/svg"
viewBox="0 0 1435 635">
<path d="
M 170 550 
L 170 551 
Q 155 551 , 147 551 
Q 139 550 , 129 550 
Q 108 550 , 98 551 
Q 86 551 , 86 552 
Q 86 553 , 98 553 
Q 108 554 , 129 554 
Q 139 554 , 147 553 
Q 155 553 , 170 553 
L 170 554 
Q 159 554 , 149 554 
Q 139 554 , 128 554 
Q 101 554 , 86 553 
Q 70 553 , 70 552 
Q 70 551 , 86 551 
Q 101 550 , 128 550 
Q 139 550 , 149 550 
Q 160 550 , 170 550 
" fill="#545FFF" />
<path d="
M 154 549 
L 154 548 
L 125 548 
L 125 547 
L 170 547 
L 170 549 
Q 159 549 , 148 549 
Q 139 549 , 127 549 
Q 101 549 , 85 549 
Q 70 548 , 70 547 
Q 70 546 , 85 546 
Q 101 545 , 127 545 
Q 138 545 , 147 545 
Q 157 545 , 167 545 
L 167 546 
Q 154 546 , 146 546 
Q 137 546 , 128 546 
Q 107 546 , 96 546 
Q 86 546 , 86 547 
Q 86 548 , 96 549 
Q 107 549 , 128 549 
Q 137 549 , 144 549 
Q 151 549 , 154 549 
" fill="#F5C000" />
<path d="
M 70 537 
L 88 537 
L 88 541 
Q 88 543 , 96 543 
Q 103 544 , 120 544 
Q 137 544 , 145 543 
Q 152 543 , 152 541 
L 152 537 
L 170 537 
L 170 542 
Q 170 543 , 157 544 
Q 145 545 , 120 545 
Q 96 545 , 83 544 
Q 70 543 , 70 542 
L 70 537 
" fill="#D21010" />
<path d="
M 120 528 
L 102 532 
L 136 532 
L 120 528 
M 113 526 
L 127 526 
L 170 536 
L 154 536 
L 142 533 
L 98 533 
L 85 536 
L 70 536 
L 113 526 
" fill="#339541" />
<path d="
M 275 550 
L 275 551 
Q 260 551 , 252 551 
Q 244 551 , 234 551 
Q 213 551 , 203 551 
Q 191 551 , 191 552 
Q 191 553 , 203 554 
Q 213 554 , 234 554 
Q 244 554 , 252 554 
Q 260 554 , 275 553 
L 275 554 
Q 264 554 , 254 555 
Q 244 555 , 233 555 
Q 206 555 , 191 554 
Q 175 553 , 175 552 
Q 175 551 , 191 551 
Q 206 550 , 233 550 
Q 244 550 , 254 550 
Q 265 550 , 275 550 
" fill="#545FFF" />
<path d="
M 259 548 
L 259 546 
L 230 546 
L 230 545 
L 275 545 
L 275 549 
Q 264 549 , 253 549 
Q 244 549 , 232 549 
Q 206 549 , 190 548 
Q 175 547 , 175 545 
Q 175 543 , 190 542 
Q 206 541 , 232 541 
Q 243 541 , 252 541 
Q 262 541 , 272 542 
L 272 543 
Q 259 542 , 251 542 
Q 242 542 , 233 542 
Q 212 542 , 201 543 
Q 191 544 , 191 545 
Q 191 547 , 201 548 
Q 212 548 , 233 548 
Q 242 548 , 249 548 
Q 256 548 , 259 548 
" fill="#F5C000" />
<path d="
M 225 500 
L 207 520 
L 241 520 
L 225 500 
M 218 491 
L 232 491 
L 275 541 
L 259 541 
L 247 526 
L 203 526 
L 190 541 
L 175 541 
L 218 491 
" fill="#339541" />
<path d="
M 175 340 
L 193 340 
L 193 429 
Q 193 454 , 201 464 
Q 208 474 , 225 474 
Q 242 474 , 250 464 
Q 257 454 , 257 429 
L 257 340 
L 275 340 
L 275 431 
Q 275 460 , 262 476 
Q 250 491 , 225 491 
Q 201 491 , 188 476 
Q 175 460 , 175 431 
L 175 340 
" fill="#D21010" />
<path d="
M 380 553 
L 380 553 
Q 365 553 , 357 553 
Q 349 553 , 339 553 
Q 318 553 , 308 553 
Q 296 554 , 296 554 
Q 296 554 , 308 554 
Q 318 554 , 339 554 
Q 349 554 , 357 554 
Q 365 554 , 380 554 
L 380 555 
Q 369 555 , 359 555 
Q 349 555 , 338 555 
Q 311 555 , 296 554 
Q 280 554 , 280 554 
Q 280 553 , 296 553 
Q 311 553 , 338 553 
Q 349 553 , 359 553 
Q 370 553 , 380 553 
" fill="#545FFF" />
<path d="
M 364 552 
L 364 551 
L 335 551 
L 335 550 
L 380 550 
L 380 552 
Q 369 552 , 358 552 
Q 349 552 , 337 552 
Q 311 552 , 295 552 
Q 280 551 , 280 550 
Q 280 549 , 295 549 
Q 311 548 , 337 548 
Q 348 548 , 357 548 
Q 367 548 , 377 548 
L 377 549 
Q 364 549 , 356 549 
Q 347 549 , 338 549 
Q 317 549 , 306 549 
Q 296 549 , 296 550 
Q 296 551 , 306 552 
Q 317 552 , 338 552 
Q 347 552 , 354 552 
Q 361 552 , 364 552 
" fill="#F5C000" />
<path d="
M 280 503 
L 298 503 
L 298 529 
Q 298 536 , 306 539 
Q 313 542 , 330 542 
Q 347 542 , 355 539 
Q 362 536 , 362 529 
L 362 503 
L 380 503 
L 380 530 
Q 380 538 , 367 543 
Q 355 547 , 330 547 
Q 306 547 , 293 543 
Q 280 538 , 280 530 
L 280 503 
" fill="#D21010" />
<path d="
M 330 285 
L 312 393 
L 346 393 
L 330 285 
M 323 236 
L 337 236 
L 380 502 
L 364 502 
L 352 424 
L 308 424 
L 295 502 
L 280 502 
L 323 236 
" fill="#339541" />
<path d="
M 485 550 
L 485 551 
Q 470 551 , 462 551 
Q 454 550 , 444 550 
Q 423 550 , 413 551 
Q 401 551 , 401 552 
Q 401 553 , 413 553 
Q 423 554 , 444 554 
Q 454 554 , 462 553 
Q 470 553 , 485 553 
L 485 554 
Q 474 554 , 464 554 
Q 454 554 , 443 554 
Q 416 554 , 401 553 
Q 385 553 , 385 552 
Q 385 551 , 401 551 
Q 416 550 , 443 550 
Q 454 550 , 464 550 
Q 475 550 , 485 550 
" fill="#545FFF" />
<path d="
M 469 548 
L 469 546 
L 440 546 
L 440 546 
L 485 546 
L 485 549 
Q 474 549 , 463 549 
Q 454 549 , 442 549 
Q 416 549 , 400 548 
Q 385 547 , 385 546 
Q 385 544 , 400 543 
Q 416 542 , 442 542 
Q 453 542 , 462 542 
Q 472 542 , 482 543 
L 482 544 
Q 469 543 , 461 543 
Q 452 543 , 443 543 
Q 422 543 , 411 544 
Q 401 544 , 401 546 
Q 401 547 , 411 548 
Q 422 549 , 443 549 
Q 452 549 , 459 549 
Q 466 548 , 469 548 
" fill="#F5C000" />
<path d="
M 385 524 
L 403 524 
L 403 534 
Q 403 537 , 411 538 
Q 418 540 , 435 540 
Q 452 540 , 460 538 
Q 467 537 , 467 534 
L 467 524 
L 485 524 
L 485 535 
Q 485 538 , 472 540 
Q 460 542 , 435 542 
Q 411 542 , 398 540 
Q 385 538 , 385 535 
L 385 524 
" fill="#D21010" />
<path d="
M 435 241 
L 417 382 
L 451 382 
L 435 241 
M 428 177 
L 442 177 
L 485 524 
L 469 524 
L 457 422 
L 413 422 
L 400 524 
L 385 524 
L 428 177 
" fill="#339541" />
<path d="
M 574 553 
L 574 552 
L 545 552 
L 545 551 
L 590 551 
L 590 554 
Q 579 554 , 568 554 
Q 559 554 , 547 554 
Q 521 554 , 505 553 
Q 490 553 , 490 551 
Q 490 550 , 505 549 
Q 521 548 , 547 548 
Q 558 548 , 567 548 
Q 577 548 , 587 549 
L 587 549 
Q 574 549 , 566 549 
Q 557 549 , 548 549 
Q 527 549 , 516 549 
Q 506 550 , 506 551 
Q 506 552 , 516 553 
Q 527 554 , 548 554 
Q 557 554 , 564 553 
Q 571 553 , 574 553 
" fill="#F5C000" />
<path d="
M 590 542 
L 590 543 
Q 575 542 , 567 542 
Q 559 542 , 549 542 
Q 528 542 , 518 542 
Q 506 543 , 506 544 
Q 506 545 , 518 546 
Q 528 547 , 549 547 
Q 559 547 , 567 546 
Q 575 546 , 590 546 
L 590 547 
Q 579 547 , 569 547 
Q 559 547 , 548 547 
Q 521 547 , 506 546 
Q 490 546 , 490 544 
Q 490 543 , 506 542 
Q 521 541 , 548 541 
Q 559 541 , 569 541 
Q 580 541 , 590 542 
" fill="#545FFF" />
<path d="
M 540 493 
L 522 517 
L 556 517 
L 540 493 
M 533 482 
L 547 482 
L 590 541 
L 574 541 
L 562 524 
L 518 524 
L 505 541 
L 490 541 
L 533 482 
" fill="#339541" />
<path d="
M 490 403 
L 508 403 
L 508 449 
Q 508 462 , 516 468 
Q 523 473 , 540 473 
Q 557 473 , 565 468 
Q 572 462 , 572 449 
L 572 403 
L 590 403 
L 590 451 
Q 590 466 , 577 474 
Q 565 482 , 540 482 
Q 516 482 , 503 474 
Q 490 466 , 490 451 
L 490 403 
" fill="#D21010" />
<path d="
M 695 550 
L 695 551 
Q 680 551 , 672 551 
Q 664 551 , 654 551 
Q 633 551 , 623 551 
Q 611 551 , 611 552 
Q 611 553 , 623 554 
Q 633 554 , 654 554 
Q 664 554 , 672 554 
Q 680 554 , 695 553 
L 695 554 
Q 684 554 , 674 555 
Q 664 555 , 653 555 
Q 626 555 , 611 554 
Q 595 553 , 595 552 
Q 595 551 , 611 551 
Q 626 550 , 653 550 
Q 664 550 , 674 550 
Q 685 550 , 695 550 
" fill="#545FFF" />
<path d="
M 679 548 
L 679 546 
L 650 546 
L 650 546 
L 695 546 
L 695 549 
Q 684 549 , 673 549 
Q 664 549 , 652 549 
Q 626 549 , 610 548 
Q 595 547 , 595 546 
Q 595 544 , 610 543 
Q 626 542 , 652 542 
Q 663 542 , 672 542 
Q 682 542 , 692 543 
L 692 544 
Q 679 543 , 671 543 
Q 662 543 , 653 543 
Q 632 543 , 621 544 
Q 611 544 , 611 546 
Q 611 547 , 621 548 
Q 632 549 , 653 549 
Q 662 549 , 669 548 
Q 676 548 , 679 548 
" fill="#F5C000" />
<path d="
M 595 523 
L 613 523 
L 613 534 
Q 613 537 , 621 538 
Q 628 539 , 645 539 
Q 662 539 , 670 538 
Q 677 537 , 677 534 
L 677 523 
L 695 523 
L 695 534 
Q 695 538 , 682 540 
Q 670 541 , 645 541 
Q 621 541 , 608 540 
Q 595 538 , 595 534 
L 595 523 
" fill="#D21010" />
<path d="
M 645 246 
L 627 384 
L 661 384 
L 645 246 
M 638 184 
L 652 184 
L 695 523 
L 679 523 
L 667 423 
L 623 423 
L 610 523 
L 595 523 
L 638 184 
" fill="#339541" />
<path d="
M 800 550 
L 800 551 
Q 785 551 , 777 551 
Q 769 550 , 759 550 
Q 738 550 , 728 551 
Q 716 551 , 716 552 
Q 716 553 , 728 553 
Q 738 554 , 759 554 
Q 769 554 , 777 553 
Q 785 553 , 800 553 
L 800 554 
Q 789 554 , 779 554 
Q 769 554 , 758 554 
Q 731 554 , 716 553 
Q 700 553 , 700 552 
Q 700 551 , 716 551 
Q 731 550 , 758 550 
Q 769 550 , 779 550 
Q 790 550 , 800 550 
" fill="#545FFF" />
<path d="
M 784 549 
L 784 548 
L 755 548 
L 755 547 
L 800 547 
L 800 549 
Q 789 549 , 778 549 
Q 769 549 , 757 549 
Q 731 549 , 715 549 
Q 700 548 , 700 547 
Q 700 546 , 715 546 
Q 731 545 , 757 545 
Q 768 545 , 777 545 
Q 787 545 , 797 545 
L 797 546 
Q 784 546 , 776 546 
Q 767 546 , 758 546 
Q 737 546 , 726 546 
Q 716 546 , 716 547 
Q 716 548 , 726 549 
Q 737 549 , 758 549 
Q 767 549 , 774 549 
Q 781 549 , 784 549 
" fill="#F5C000" />
<path d="
M 700 537 
L 718 537 
L 718 541 
Q 718 543 , 726 543 
Q 733 544 , 750 544 
Q 767 544 , 775 543 
Q 782 543 , 782 541 
L 782 537 
L 800 537 
L 800 542 
Q 800 543 , 787 544 
Q 775 545 , 750 545 
Q 726 545 , 713 544 
Q 700 543 , 700 542 
L 700 537 
" fill="#D21010" />
<path d="
M 750 528 
L 732 532 
L 766 532 
L 750 528 
M 743 526 
L 757 526 
L 800 536 
L 784 536 
L 772 533 
L 728 533 
L 715 536 
L 700 536 
L 743 526 
" fill="#339541" />
<path d="
M 905 550 
L 905 550 
Q 890 550 , 882 550 
Q 874 550 , 864 550 
Q 843 550 , 833 550 
Q 821 551 , 821 552 
Q 821 553 , 833 553 
Q 843 554 , 864 554 
Q 874 554 , 882 554 
Q 890 554 , 905 553 
L 905 554 
Q 894 554 , 884 554 
Q 874 554 , 863 554 
Q 836 554 , 821 554 
Q 805 553 , 805 552 
Q 805 550 , 821 550 
Q 836 549 , 863 549 
Q 874 549 , 884 549 
Q 895 549 , 905 550 
" fill="#545FFF" />
<path d="
M 855 534 
L 837 541 
L 871 541 
L 855 534 
M 848 531 
L 862 531 
L 905 548 
L 889 548 
L 877 543 
L 833 543 
L 820 548 
L 805 548 
L 848 531 
" fill="#339541" />
<path d="
M 889 526 
L 889 518 
L 860 518 
L 860 515 
L 905 515 
L 905 528 
Q 894 529 , 883 530 
Q 874 530 , 862 530 
Q 836 530 , 820 526 
Q 805 522 , 805 516 
Q 805 509 , 820 505 
Q 836 501 , 862 501 
Q 873 501 , 882 502 
Q 892 502 , 902 503 
L 902 507 
Q 889 505 , 881 505 
Q 872 504 , 863 504 
Q 842 504 , 831 507 
Q 821 510 , 821 516 
Q 821 521 , 831 524 
Q 842 527 , 863 527 
Q 872 527 , 879 527 
Q 886 526 , 889 526 
" fill="#F5C000" />
<path d="
M 805 408 
L 823 408 
L 823 463 
Q 823 478 , 831 484 
Q 838 490 , 855 490 
Q 872 490 , 880 484 
Q 887 478 , 887 463 
L 887 408 
L 905 408 
L 905 464 
Q 905 482 , 892 491 
Q 880 501 , 855 501 
Q 831 501 , 818 491 
Q 805 482 , 805 464 
L 805 408 
" fill="#D21010" />
<path d="
M 1010 552 
L 1010 553 
Q 995 552 , 987 552 
Q 979 552 , 969 552 
Q 948 552 , 938 553 
Q 926 553 , 926 553 
Q 926 554 , 938 554 
Q 948 555 , 969 555 
Q 979 555 , 987 555 
Q 995 555 , 1010 554 
L 1010 555 
Q 999 555 , 989 555 
Q 979 555 , 968 555 
Q 941 555 , 926 555 
Q 910 554 , 910 553 
Q 910 553 , 926 552 
Q 941 552 , 968 552 
Q 979 552 , 989 552 
Q 1000 552 , 1010 552 
" fill="#545FFF" />
<path d="
M 994 551 
L 994 550 
L 965 550 
L 965 549 
L 1010 549 
L 1010 551 
Q 999 551 , 988 552 
Q 979 552 , 967 552 
Q 941 552 , 925 551 
Q 910 550 , 910 549 
Q 910 548 , 925 548 
Q 941 547 , 967 547 
Q 978 547 , 987 547 
Q 997 547 , 1007 547 
L 1007 548 
Q 994 548 , 986 548 
Q 977 548 , 968 548 
Q 947 548 , 936 548 
Q 926 548 , 926 549 
Q 926 550 , 936 551 
Q 947 551 , 968 551 
Q 977 551 , 984 551 
Q 991 551 , 994 551 
" fill="#F5C000" />
<path d="
M 910 494 
L 928 494 
L 928 525 
Q 928 534 , 936 537 
Q 943 541 , 960 541 
Q 977 541 , 985 537 
Q 992 534 , 992 525 
L 992 494 
L 1010 494 
L 1010 526 
Q 1010 536 , 997 541 
Q 985 547 , 960 547 
Q 936 547 , 923 541 
Q 910 536 , 910 526 
L 910 494 
" fill="#D21010" />
<path d="
M 960 320 
L 942 407 
L 976 407 
L 960 320 
M 953 281 
L 967 281 
L 1010 494 
L 994 494 
L 982 431 
L 938 431 
L 925 494 
L 910 494 
L 953 281 
" fill="#339541" />
<path d="
M 1115 552 
L 1115 553 
Q 1100 552 , 1092 552 
Q 1084 552 , 1074 552 
Q 1053 552 , 1043 553 
Q 1031 553 , 1031 553 
Q 1031 554 , 1043 554 
Q 1053 555 , 1074 555 
Q 1084 555 , 1092 555 
Q 1100 555 , 1115 554 
L 1115 555 
Q 1104 555 , 1094 555 
Q 1084 555 , 1073 555 
Q 1046 555 , 1031 555 
Q 1015 554 , 1015 553 
Q 1015 553 , 1031 552 
Q 1046 552 , 1073 552 
Q 1084 552 , 1094 552 
Q 1105 552 , 1115 552 
" fill="#545FFF" />
<path d="
M 1099 550 
L 1099 548 
L 1070 548 
L 1070 547 
L 1115 547 
L 1115 551 
Q 1104 551 , 1093 551 
Q 1084 551 , 1072 551 
Q 1046 551 , 1030 550 
Q 1015 549 , 1015 547 
Q 1015 545 , 1030 544 
Q 1046 543 , 1072 543 
Q 1083 543 , 1092 543 
Q 1102 543 , 1112 544 
L 1112 545 
Q 1099 544 , 1091 544 
Q 1082 544 , 1073 544 
Q 1052 544 , 1041 545 
Q 1031 545 , 1031 547 
Q 1031 549 , 1041 549 
Q 1052 550 , 1073 550 
Q 1082 550 , 1089 550 
Q 1096 550 , 1099 550 
" fill="#F5C000" />
<path d="
M 1015 517 
L 1033 517 
L 1033 532 
Q 1033 537 , 1041 538 
Q 1048 540 , 1065 540 
Q 1082 540 , 1090 538 
Q 1097 537 , 1097 532 
L 1097 517 
L 1115 517 
L 1115 533 
Q 1115 538 , 1102 540 
Q 1090 543 , 1065 543 
Q 1041 543 , 1028 540 
Q 1015 538 , 1015 533 
L 1015 517 
" fill="#D21010" />
<path d="
M 1065 263 
L 1047 389 
L 1081 389 
L 1065 263 
M 1058 206 
L 1072 206 
L 1115 516 
L 1099 516 
L 1087 425 
L 1043 425 
L 1030 516 
L 1015 516 
L 1058 206 
" fill="#339541" />
<path d="
M 1220 550 
L 1220 551 
Q 1205 551 , 1197 551 
Q 1189 550 , 1179 550 
Q 1158 550 , 1148 551 
Q 1136 551 , 1136 552 
Q 1136 553 , 1148 554 
Q 1158 554 , 1179 554 
Q 1189 554 , 1197 554 
Q 1205 554 , 1220 553 
L 1220 554 
Q 1209 554 , 1199 554 
Q 1189 554 , 1178 554 
Q 1151 554 , 1136 554 
Q 1120 553 , 1120 552 
Q 1120 551 , 1136 551 
Q 1151 550 , 1178 550 
Q 1189 550 , 1199 550 
Q 1210 550 , 1220 550 
" fill="#545FFF" />
<path d="
M 1204 549 
L 1204 547 
L 1175 547 
L 1175 546 
L 1220 546 
L 1220 549 
Q 1209 550 , 1198 550 
Q 1189 550 , 1177 550 
Q 1151 550 , 1135 549 
Q 1120 548 , 1120 546 
Q 1120 545 , 1135 544 
Q 1151 543 , 1177 543 
Q 1188 543 , 1197 543 
Q 1207 543 , 1217 544 
L 1217 544 
Q 1204 544 , 1196 544 
Q 1187 544 , 1178 544 
Q 1157 544 , 1146 544 
Q 1136 545 , 1136 546 
Q 1136 548 , 1146 549 
Q 1157 549 , 1178 549 
Q 1187 549 , 1194 549 
Q 1201 549 , 1204 549 
" fill="#F5C000" />
<path d="
M 1120 521 
L 1138 521 
L 1138 534 
Q 1138 537 , 1146 539 
Q 1153 540 , 1170 540 
Q 1187 540 , 1195 539 
Q 1202 537 , 1202 534 
L 1202 521 
L 1220 521 
L 1220 534 
Q 1220 538 , 1207 540 
Q 1195 543 , 1170 543 
Q 1146 543 , 1133 540 
Q 1120 538 , 1120 534 
L 1120 521 
" fill="#D21010" />
<path d="
M 1170 253 
L 1152 387 
L 1186 387 
L 1170 253 
M 1163 193 
L 1177 193 
L 1220 521 
L 1204 521 
L 1192 424 
L 1148 424 
L 1135 521 
L 1120 521 
L 1163 193 
" fill="#339541" />
<path d="
M 1309 554 
L 1309 553 
L 1280 553 
L 1280 552 
L 1325 552 
L 1325 554 
Q 1314 554 , 1303 554 
Q 1294 554 , 1282 554 
Q 1256 554 , 1240 554 
Q 1225 553 , 1225 553 
Q 1225 552 , 1240 551 
Q 1256 551 , 1282 551 
Q 1293 551 , 1302 551 
Q 1312 551 , 1322 551 
L 1322 552 
Q 1309 551 , 1301 551 
Q 1292 551 , 1283 551 
Q 1262 551 , 1251 552 
Q 1241 552 , 1241 553 
Q 1241 553 , 1251 553 
Q 1262 554 , 1283 554 
Q 1292 554 , 1299 554 
Q 1306 554 , 1309 554 
" fill="#F5C000" />
<path d="
M 1325 543 
L 1325 544 
Q 1310 543 , 1302 543 
Q 1294 543 , 1284 543 
Q 1263 543 , 1253 544 
Q 1241 545 , 1241 546 
Q 1241 548 , 1253 549 
Q 1263 550 , 1284 550 
Q 1294 550 , 1302 549 
Q 1310 549 , 1325 548 
L 1325 550 
Q 1314 550 , 1304 550 
Q 1294 550 , 1283 550 
Q 1256 550 , 1241 549 
Q 1225 548 , 1225 546 
Q 1225 544 , 1241 543 
Q 1256 542 , 1283 542 
Q 1294 542 , 1304 542 
Q 1315 542 , 1325 543 
" fill="#545FFF" />
<path d="
M 1275 533 
L 1257 537 
L 1291 537 
L 1275 533 
M 1268 531 
L 1282 531 
L 1325 541 
L 1309 541 
L 1297 538 
L 1253 538 
L 1240 541 
L 1225 541 
L 1268 531 
" fill="#339541" />
<path d="
M 1225 518 
L 1243 518 
L 1243 525 
Q 1243 528 , 1251 528 
Q 1258 529 , 1275 529 
Q 1292 529 , 1300 528 
Q 1307 528 , 1307 525 
L 1307 518 
L 1325 518 
L 1325 526 
Q 1325 528 , 1312 529 
Q 1300 531 , 1275 531 
Q 1251 531 , 1238 529 
Q 1225 528 , 1225 526 
L 1225 518 
" fill="#D21010" />
<path d="
M 1430 550 
L 1430 551 
Q 1415 551 , 1407 551 
Q 1399 550 , 1389 550 
Q 1368 550 , 1358 551 
Q 1346 551 , 1346 552 
Q 1346 553 , 1358 553 
Q 1368 554 , 1389 554 
Q 1399 554 , 1407 553 
Q 1415 553 , 1430 553 
L 1430 554 
Q 1419 554 , 1409 554 
Q 1399 554 , 1388 554 
Q 1361 554 , 1346 553 
Q 1330 553 , 1330 552 
Q 1330 551 , 1346 551 
Q 1361 550 , 1388 550 
Q 1399 550 , 1409 550 
Q 1420 550 , 1430 550 
" fill="#545FFF" />
<path d="
M 1414 549 
L 1414 548 
L 1385 548 
L 1385 547 
L 1430 547 
L 1430 549 
Q 1419 549 , 1408 549 
Q 1399 549 , 1387 549 
Q 1361 549 , 1345 549 
Q 1330 548 , 1330 547 
Q 1330 546 , 1345 546 
Q 1361 545 , 1387 545 
Q 1398 545 , 1407 545 
Q 1417 545 , 1427 545 
L 1427 546 
Q 1414 546 , 1406 546 
Q 1397 546 , 1388 546 
Q 1367 546 , 1356 546 
Q 1346 546 , 1346 547 
Q 1346 548 , 1356 549 
Q 1367 549 , 1388 549 
Q 1397 549 , 1404 549 
Q 1411 549 , 1414 549 
" fill="#F5C000" />
<path d="
M 1330 537 
L 1348 537 
L 1348 541 
Q 1348 543 , 1356 543 
Q 1363 544 , 1380 544 
Q 1397 544 , 1405 543 
Q 1412 543 , 1412 541 
L 1412 537 
L 1430 537 
L 1430 542 
Q 1430 543 , 1417 544 
Q 1405 545 , 1380 545 
Q 1356 545 , 1343 544 
Q 1330 543 , 1330 542 
L 1330 537 
" fill="#D21010" />
<path d="
M 1380 528 
L 1362 532 
L 1396 532 
L 1380 528 
M 1373 526 
L 1387 526 
L 1430 536 
L 1414 536 
L 1402 533 
L 1358 533 
L 1345 536 
L 1330 536 
L 1373 526 
" fill="#339541" />
<path d="M 65 55 L 65 555 " stroke="black" stroke-width="1.5"/>
<path d="M 55 555 L 65 555 " stroke="black" stroke-width="4"/>
<text text-anchor="end" x="50" y="555" font-size="50" alignment-baseline="middle">0</text>
<path d="M 55 305 L 65 305 " stroke="black" stroke-width="4"/>
<text text-anchor="end" x="50" y="305" font-size="50" alignment-baseline="middle">1</text>
<path d="M 55 55 L 65 55 " stroke="black" stroke-width="4"/>
<text text-anchor="end" x="50" y="55" font-size="50" alignment-baseline="middle">2</text>
<text text-anchor="middle" x="750" y="50" font-size="50" alignment-baseline="baseline"></text>
G<path d="
M 160 582 
L 126 595 
L 160 608 
L 157 611 
L 123 598 
L 123 623 
L 117 623 
L 117 599 
L 83 611 
L 80 608 
L 114 595 
L 80 582 
L 83 579 
L 117 591 
L 117 567 
L 123 567 
L 123 591 
L 157 579 
L 160 582 
" fill="black" />
<path d="
" fill="black" />
<path d="
M 211 567 
L 238 567 
L 238 623 
L 211 623 
L 211 567 
" fill="black" />
<path d="
" fill="black" />
<path d="
" fill="black" />
<path d="
M 316 567 
L 343 567 
L 343 623 
L 316 623 
L 316 567 
" fill="black" />
<path d="
" fill="black" />
<path d="
" fill="black" />
<path d="
M 421 567 
L 448 567 
L 448 623 
L 421 623 
L 421 567 
" fill="black" />
<path d="
" fill="black" />
<path d="
" fill="black" />
<path d="
M 526 567 
L 553 567 
L 553 623 
L 526 623 
L 526 567 
" fill="black" />
<path d="
" fill="black" />
<path d="
" fill="black" />
<path d="
M 617 567 
L 633 567 
L 633 623 
L 617 623 
L 617 567 
" fill="black" />
<path d="
" fill="black" />
<path d="
M 669 593 
Q 671 594 , 672 597 
Q 673 601 , 673 606 
Q 673 614 , 671 618 
Q 669 623 , 664 623 
Q 662 623 , 661 622 
Q 659 621 , 657 619 
L 657 613 
Q 659 617 , 660 618 
Q 662 619 , 664 619 
Q 667 619 , 669 616 
Q 671 613 , 671 606 
Q 671 601 , 669 598 
Q 668 595 , 664 595 
L 661 595 
L 661 591 
L 665 591 
Q 667 591 , 669 589 
Q 670 586 , 670 582 
Q 670 577 , 669 574 
Q 667 571 , 664 571 
Q 663 571 , 661 572 
Q 660 573 , 658 575 
L 658 571 
Q 660 569 , 662 568 
Q 663 567 , 665 567 
Q 669 567 , 671 571 
Q 672 575 , 672 581 
Q 672 586 , 671 589 
Q 671 592 , 669 593 
" fill="black" />
<path d="
M 679 619 
L 685 619 
L 685 572 
L 677 578 
L 677 573 
L 685 567 
L 687 567 
L 687 619 
L 693 619 
L 693 623 
L 679 623 
L 679 619 
" fill="black" />
<path d="
M 790 582 
L 756 595 
L 790 608 
L 787 611 
L 753 598 
L 753 623 
L 747 623 
L 747 599 
L 713 611 
L 710 608 
L 744 595 
L 710 582 
L 713 579 
L 747 591 
L 747 567 
L 753 567 
L 753 591 
L 787 579 
L 790 582 
" fill="black" />
<path d="
" fill="black" />
<path d="
M 841 567 
L 868 567 
L 868 623 
L 841 623 
L 841 567 
" fill="black" />
<path d="
" fill="black" />
<path d="
" fill="black" />
<path d="
M 946 567 
L 973 567 
L 973 623 
L 946 623 
L 946 567 
" fill="black" />
<path d="
" fill="black" />
<path d="
" fill="black" />
<path d="
M 1051 567 
L 1078 567 
L 1078 623 
L 1051 623 
L 1051 567 
" fill="black" />
<path d="
" fill="black" />
<path d="
" fill="black" />
<path d="
M 1156 567 
L 1183 567 
L 1183 623 
L 1156 623 
L 1156 567 
" fill="black" />
<path d="
" fill="black" />
<path d="
" fill="black" />
<path d="
M 1261 567 
L 1288 567 
L 1288 623 
L 1261 623 
L 1261 567 
" fill="black" />
<path d="
" fill="black" />
<path d="
M 1420 582 
L 1386 595 
L 1420 608 
L 1417 611 
L 1383 598 
L 1383 623 
L 1377 623 
L 1377 599 
L 1343 611 
L 1340 608 
L 1374 595 
L 1340 582 
L 1343 579 
L 1377 591 
L 1377 567 
L 1383 567 
L 1383 591 
L 1417 579 
L 1420 582 
" fill="black" />
</svg>
