<svg xmlns="http://www.w3.org/2000/svg"
viewBox="0 0 805 635">
<path d="
M 154 554 
L 154 552 
L 125 552 
L 125 552 
L 170 552 
L 170 554 
Q 159 554 , 148 554 
Q 139 554 , 127 554 
Q 101 554 , 85 554 
Q 70 553 , 70 552 
Q 70 550 , 85 550 
Q 101 549 , 127 549 
Q 138 549 , 147 549 
Q 157 549 , 167 549 
L 167 550 
Q 154 550 , 146 550 
Q 137 550 , 128 550 
Q 107 550 , 96 550 
Q 86 551 , 86 552 
Q 86 553 , 96 553 
Q 107 554 , 128 554 
Q 137 554 , 144 554 
Q 151 554 , 154 554 
" fill="#F5C000" />
<path d="
M 170 544 
L 170 544 
Q 155 544 , 147 544 
Q 139 544 , 129 544 
Q 108 544 , 98 544 
Q 86 545 , 86 546 
Q 86 547 , 98 547 
Q 108 548 , 129 548 
Q 139 548 , 147 548 
Q 155 548 , 170 547 
L 170 548 
Q 159 548 , 149 549 
Q 139 549 , 128 549 
Q 101 549 , 86 548 
Q 70 547 , 70 546 
Q 70 545 , 86 544 
Q 101 543 , 128 543 
Q 139 543 , 149 543 
Q 160 543 , 170 544 
" fill="#545FFF" />
<path d="
M 120 536 
L 102 539 
L 136 539 
L 120 536 
M 113 534 
L 127 534 
L 170 542 
L 154 542 
L 142 540 
L 98 540 
L 85 542 
L 70 542 
L 113 534 
" fill="#339541" />
<path d="
M 70 518 
L 88 518 
L 88 527 
Q 88 529 , 96 530 
Q 103 531 , 120 531 
Q 137 531 , 145 530 
Q 152 529 , 152 527 
L 152 518 
L 170 518 
L 170 527 
Q 170 530 , 157 532 
Q 145 533 , 120 533 
Q 96 533 , 83 532 
Q 70 530 , 70 527 
L 70 518 
" fill="#D21010" />
<path d="
M 259 554 
L 259 552 
L 230 552 
L 230 552 
L 275 552 
L 275 554 
Q 264 555 , 253 555 
Q 244 555 , 232 555 
Q 206 555 , 190 554 
Q 175 553 , 175 552 
Q 175 551 , 190 550 
Q 206 549 , 232 549 
Q 243 549 , 252 549 
Q 262 549 , 272 549 
L 272 550 
Q 259 550 , 251 550 
Q 242 550 , 233 550 
Q 212 550 , 201 550 
Q 191 551 , 191 552 
Q 191 553 , 201 554 
Q 212 554 , 233 554 
Q 242 554 , 249 554 
Q 256 554 , 259 554 
" fill="#F5C000" />
<path d="
M 275 540 
L 275 541 
Q 260 541 , 252 540 
Q 244 540 , 234 540 
Q 213 540 , 203 541 
Q 191 542 , 191 544 
Q 191 546 , 203 546 
Q 213 547 , 234 547 
Q 244 547 , 252 547 
Q 260 547 , 275 546 
L 275 547 
Q 264 548 , 254 548 
Q 244 548 , 233 548 
Q 206 548 , 191 547 
Q 175 546 , 175 544 
Q 175 542 , 191 540 
Q 206 539 , 233 539 
Q 244 539 , 254 539 
Q 265 539 , 275 540 
" fill="#545FFF" />
<path d="
M 225 522 
L 207 530 
L 241 530 
L 225 522 
M 218 518 
L 232 518 
L 275 539 
L 259 539 
L 247 533 
L 203 533 
L 190 539 
L 175 539 
L 218 518 
" fill="#339541" />
<path d="
M 175 211 
L 193 211 
L 193 392 
Q 193 442 , 201 463 
Q 208 483 , 225 483 
Q 242 483 , 250 463 
Q 257 442 , 257 392 
L 257 211 
L 275 211 
L 275 397 
Q 275 455 , 262 486 
Q 250 517 , 225 517 
Q 201 517 , 188 486 
Q 175 455 , 175 397 
L 175 211 
" fill="#D21010" />
<path d="
M 380 548 
L 380 549 
Q 365 548 , 357 548 
Q 349 548 , 339 548 
Q 318 548 , 308 548 
Q 296 549 , 296 550 
Q 296 552 , 308 553 
Q 318 553 , 339 553 
Q 349 553 , 357 553 
Q 365 553 , 380 552 
L 380 553 
Q 369 554 , 359 554 
Q 349 554 , 338 554 
Q 311 554 , 296 553 
Q 280 552 , 280 551 
Q 280 549 , 296 548 
Q 311 547 , 338 547 
Q 349 547 , 359 547 
Q 370 547 , 380 548 
" fill="#545FFF" />
<path d="
M 364 545 
L 364 541 
L 335 541 
L 335 540 
L 380 540 
L 380 546 
Q 369 546 , 358 546 
Q 349 547 , 337 547 
Q 311 547 , 295 545 
Q 280 543 , 280 540 
Q 280 537 , 295 536 
Q 311 534 , 337 534 
Q 348 534 , 357 534 
Q 367 534 , 377 535 
L 377 537 
Q 364 536 , 356 536 
Q 347 536 , 338 536 
Q 317 536 , 306 537 
Q 296 538 , 296 540 
Q 296 543 , 306 544 
Q 317 545 , 338 545 
Q 347 545 , 354 545 
Q 361 545 , 364 545 
" fill="#F5C000" />
<path d="
M 330 522 
L 312 528 
L 346 528 
L 330 522 
M 323 519 
L 337 519 
L 380 534 
L 364 534 
L 352 530 
L 308 530 
L 295 534 
L 280 534 
L 323 519 
" fill="#339541" />
<path d="
M 280 209 
L 298 209 
L 298 392 
Q 298 442 , 306 464 
Q 313 484 , 330 484 
Q 347 484 , 355 464 
Q 362 442 , 362 392 
L 362 209 
L 380 209 
L 380 397 
Q 380 456 , 367 487 
Q 355 519 , 330 519 
Q 306 519 , 293 487 
Q 280 456 , 280 397 
L 280 209 
" fill="#D21010" />
<path d="
M 485 551 
L 485 551 
Q 470 551 , 462 551 
Q 454 551 , 444 551 
Q 423 551 , 413 551 
Q 401 551 , 401 552 
Q 401 553 , 413 554 
Q 423 554 , 444 554 
Q 454 554 , 462 554 
Q 470 554 , 485 553 
L 485 554 
Q 474 554 , 464 555 
Q 454 555 , 443 555 
Q 416 555 , 401 554 
Q 385 553 , 385 552 
Q 385 551 , 401 551 
Q 416 550 , 443 550 
Q 454 550 , 464 550 
Q 475 550 , 485 551 
" fill="#545FFF" />
<path d="
M 469 548 
L 469 545 
L 440 545 
L 440 544 
L 485 544 
L 485 549 
Q 474 549 , 463 549 
Q 454 550 , 442 550 
Q 416 550 , 400 548 
Q 385 547 , 385 544 
Q 385 542 , 400 540 
Q 416 539 , 442 539 
Q 453 539 , 462 539 
Q 472 539 , 482 540 
L 482 541 
Q 469 541 , 461 540 
Q 452 540 , 443 540 
Q 422 540 , 411 541 
Q 401 542 , 401 544 
Q 401 546 , 411 547 
Q 422 548 , 443 548 
Q 452 548 , 459 548 
Q 466 548 , 469 548 
" fill="#F5C000" />
<path d="
M 435 512 
L 417 525 
L 451 525 
L 435 512 
M 428 506 
L 442 506 
L 485 538 
L 469 538 
L 457 529 
L 413 529 
L 400 538 
L 385 538 
L 428 506 
" fill="#339541" />
<path d="
M 385 261 
L 403 261 
L 403 405 
Q 403 445 , 411 462 
Q 418 478 , 435 478 
Q 452 478 , 460 462 
Q 467 445 , 467 405 
L 467 261 
L 485 261 
L 485 409 
Q 485 456 , 472 481 
Q 460 505 , 435 505 
Q 411 505 , 398 481 
Q 385 456 , 385 409 
L 385 261 
" fill="#D21010" />
<path d="
M 590 551 
L 590 551 
Q 575 551 , 567 551 
Q 559 551 , 549 551 
Q 528 551 , 518 551 
Q 506 552 , 506 552 
Q 506 553 , 518 554 
Q 528 554 , 549 554 
Q 559 554 , 567 554 
Q 575 554 , 590 554 
L 590 554 
Q 579 555 , 569 555 
Q 559 555 , 548 555 
Q 521 555 , 506 554 
Q 490 554 , 490 552 
Q 490 551 , 506 551 
Q 521 550 , 548 550 
Q 559 550 , 569 550 
Q 580 550 , 590 551 
" fill="#545FFF" />
<path d="
M 574 549 
L 574 547 
L 545 547 
L 545 546 
L 590 546 
L 590 549 
Q 579 550 , 568 550 
Q 559 550 , 547 550 
Q 521 550 , 505 549 
Q 490 548 , 490 546 
Q 490 544 , 505 543 
Q 521 542 , 547 542 
Q 558 542 , 567 542 
Q 577 542 , 587 543 
L 587 544 
Q 574 543 , 566 543 
Q 557 543 , 548 543 
Q 527 543 , 516 544 
Q 506 544 , 506 546 
Q 506 548 , 516 548 
Q 527 549 , 548 549 
Q 557 549 , 564 549 
Q 571 549 , 574 549 
" fill="#F5C000" />
<path d="
M 540 503 
L 522 522 
L 556 522 
L 540 503 
M 533 495 
L 547 495 
L 590 541 
L 574 541 
L 562 528 
L 518 528 
L 505 541 
L 490 541 
L 533 495 
" fill="#339541" />
<path d="
M 490 317 
L 508 317 
L 508 422 
Q 508 451 , 516 464 
Q 523 475 , 540 475 
Q 557 475 , 565 464 
Q 572 451 , 572 422 
L 572 317 
L 590 317 
L 590 425 
Q 590 459 , 577 477 
Q 565 495 , 540 495 
Q 516 495 , 503 477 
Q 490 459 , 490 425 
L 490 317 
" fill="#D21010" />
<path d="
M 679 554 
L 679 554 
L 650 554 
L 650 553 
L 695 553 
L 695 555 
Q 684 555 , 673 555 
Q 664 555 , 652 555 
Q 626 555 , 610 554 
Q 595 554 , 595 553 
Q 595 553 , 610 552 
Q 626 552 , 652 552 
Q 663 552 , 672 552 
Q 682 552 , 692 552 
L 692 553 
Q 679 552 , 671 552 
Q 662 552 , 653 552 
Q 632 552 , 621 553 
Q 611 553 , 611 553 
Q 611 554 , 621 554 
Q 632 555 , 653 555 
Q 662 555 , 669 555 
Q 676 554 , 679 554 
" fill="#F5C000" />
<path d="
M 695 545 
L 695 546 
Q 680 545 , 672 545 
Q 664 545 , 654 545 
Q 633 545 , 623 546 
Q 611 546 , 611 547 
Q 611 549 , 623 550 
Q 633 551 , 654 551 
Q 664 551 , 672 550 
Q 680 550 , 695 549 
L 695 551 
Q 684 551 , 674 551 
Q 664 551 , 653 551 
Q 626 551 , 611 550 
Q 595 549 , 595 548 
Q 595 546 , 611 545 
Q 626 544 , 653 544 
Q 664 544 , 674 544 
Q 685 544 , 695 545 
" fill="#545FFF" />
<path d="
M 645 503 
L 627 523 
L 661 523 
L 645 503 
M 638 494 
L 652 494 
L 695 543 
L 679 543 
L 667 529 
L 623 529 
L 610 543 
L 595 543 
L 638 494 
" fill="#339541" />
<path d="
M 595 295 
L 613 295 
L 613 412 
Q 613 445 , 621 459 
Q 628 471 , 645 471 
Q 662 471 , 670 459 
Q 677 445 , 677 412 
L 677 295 
L 695 295 
L 695 415 
Q 695 453 , 682 473 
Q 670 494 , 645 494 
Q 621 494 , 608 473 
Q 595 453 , 595 415 
L 595 295 
" fill="#D21010" />
<path d="
M 784 554 
L 784 552 
L 755 552 
L 755 552 
L 800 552 
L 800 554 
Q 789 554 , 778 554 
Q 769 554 , 757 554 
Q 731 554 , 715 554 
Q 700 553 , 700 552 
Q 700 550 , 715 550 
Q 731 549 , 757 549 
Q 768 549 , 777 549 
Q 787 549 , 797 549 
L 797 550 
Q 784 550 , 776 550 
Q 767 550 , 758 550 
Q 737 550 , 726 550 
Q 716 551 , 716 552 
Q 716 553 , 726 553 
Q 737 554 , 758 554 
Q 767 554 , 774 554 
Q 781 554 , 784 554 
" fill="#F5C000" />
<path d="
M 800 544 
L 800 544 
Q 785 544 , 777 544 
Q 769 544 , 759 544 
Q 738 544 , 728 544 
Q 716 545 , 716 546 
Q 716 547 , 728 547 
Q 738 548 , 759 548 
Q 769 548 , 777 548 
Q 785 548 , 800 547 
L 800 548 
Q 789 548 , 779 549 
Q 769 549 , 758 549 
Q 731 549 , 716 548 
Q 700 547 , 700 546 
Q 700 545 , 716 544 
Q 731 543 , 758 543 
Q 769 543 , 779 543 
Q 790 543 , 800 544 
" fill="#545FFF" />
<path d="
M 750 536 
L 732 539 
L 766 539 
L 750 536 
M 743 534 
L 757 534 
L 800 542 
L 784 542 
L 772 540 
L 728 540 
L 715 542 
L 700 542 
L 743 534 
" fill="#339541" />
<path d="
M 700 518 
L 718 518 
L 718 527 
Q 718 529 , 726 530 
Q 733 531 , 750 531 
Q 767 531 , 775 530 
Q 782 529 , 782 527 
L 782 518 
L 800 518 
L 800 527 
Q 800 530 , 787 532 
Q 775 533 , 750 533 
Q 726 533 , 713 532 
Q 700 530 , 700 527 
L 700 518 
" fill="#D21010" />
<path d="M 65 55 L 65 555 " stroke="black" stroke-width="1.5"/>
<path d="M 55 555 L 65 555 " stroke="black" stroke-width="4"/>
<text text-anchor="end" x="50" y="555" font-size="50" alignment-baseline="middle">0</text>
<path d="M 55 305 L 65 305 " stroke="black" stroke-width="4"/>
<text text-anchor="end" x="50" y="305" font-size="50" alignment-baseline="middle">1</text>
<path d="M 55 55 L 65 55 " stroke="black" stroke-width="4"/>
<text text-anchor="end" x="50" y="55" font-size="50" alignment-baseline="middle">2</text>
<text text-anchor="middle" x="435" y="50" font-size="50" alignment-baseline="baseline"></text>
G<path d="
M 160 582 
L 126 595 
L 160 608 
L 157 611 
L 123 598 
L 123 623 
L 117 623 
L 117 599 
L 83 611 
L 80 608 
L 114 595 
L 80 582 
L 83 579 
L 117 591 
L 117 567 
L 123 567 
L 123 591 
L 157 579 
L 160 582 
" fill="black" />
<path d="
" fill="black" />
<path d="
M 211 567 
L 238 567 
L 238 623 
L 211 623 
L 211 567 
" fill="black" />
<path d="
" fill="black" />
<path d="
" fill="black" />
<path d="
M 316 567 
L 343 567 
L 343 623 
L 316 623 
L 316 567 
" fill="black" />
<path d="
" fill="black" />
<path d="
" fill="black" />
<path d="
M 421 567 
L 448 567 
L 448 623 
L 421 623 
L 421 567 
" fill="black" />
<path d="
" fill="black" />
<path d="
" fill="black" />
<path d="
M 526 567 
L 553 567 
L 553 623 
L 526 623 
L 526 567 
" fill="black" />
<path d="
" fill="black" />
<path d="
" fill="black" />
<path d="
M 631 567 
L 658 567 
L 658 623 
L 631 623 
L 631 567 
" fill="black" />
<path d="
" fill="black" />
<path d="
M 790 582 
L 756 595 
L 790 608 
L 787 611 
L 753 598 
L 753 623 
L 747 623 
L 747 599 
L 713 611 
L 710 608 
L 744 595 
L 710 582 
L 713 579 
L 747 591 
L 747 567 
L 753 567 
L 753 591 
L 787 579 
L 790 582 
" fill="black" />
</svg>
