<svg xmlns="http://www.w3.org/2000/svg"
viewBox="0 0 595 635">
<path d="
M 154 554 
L 154 552 
L 125 552 
L 125 552 
L 170 552 
L 170 554 
Q 159 554 , 148 555 
Q 139 555 , 127 555 
Q 101 555 , 85 554 
Q 70 553 , 70 552 
Q 70 551 , 85 550 
Q 101 549 , 127 549 
Q 138 549 , 147 549 
Q 157 549 , 167 549 
L 167 550 
Q 154 550 , 146 550 
Q 137 550 , 128 550 
Q 107 550 , 96 550 
Q 86 551 , 86 552 
Q 86 553 , 96 553 
Q 107 554 , 128 554 
Q 137 554 , 144 554 
Q 151 554 , 154 554 
" fill="#F5C000" />
<path d="
M 170 544 
L 170 545 
Q 155 544 , 147 544 
Q 139 544 , 129 544 
Q 108 544 , 98 544 
Q 86 545 , 86 546 
Q 86 547 , 98 548 
Q 108 548 , 129 548 
Q 139 548 , 147 548 
Q 155 548 , 170 547 
L 170 548 
Q 159 549 , 149 549 
Q 139 549 , 128 549 
Q 101 549 , 86 548 
Q 70 547 , 70 546 
Q 70 545 , 86 544 
Q 101 543 , 128 543 
Q 139 543 , 149 543 
Q 160 543 , 170 544 
" fill="#545FFF" />
<path d="
M 120 536 
L 102 539 
L 136 539 
L 120 536 
M 113 534 
L 127 534 
L 170 543 
L 154 543 
L 142 540 
L 98 540 
L 85 543 
L 70 543 
L 113 534 
" fill="#339541" />
<path d="
M 70 517 
L 88 517 
L 88 527 
Q 88 529 , 96 530 
Q 103 531 , 120 531 
Q 137 531 , 145 530 
Q 152 529 , 152 527 
L 152 517 
L 170 517 
L 170 527 
Q 170 530 , 157 532 
Q 145 533 , 120 533 
Q 96 533 , 83 532 
Q 70 530 , 70 527 
L 70 517 
" fill="#D21010" />
<path d="
M 275 548 
L 275 549 
Q 260 548 , 252 548 
Q 244 548 , 234 548 
Q 213 548 , 203 548 
Q 191 549 , 191 550 
Q 191 552 , 203 553 
Q 213 553 , 234 553 
Q 244 553 , 252 553 
Q 260 553 , 275 552 
L 275 553 
Q 264 554 , 254 554 
Q 244 554 , 233 554 
Q 206 554 , 191 553 
Q 175 552 , 175 551 
Q 175 549 , 191 548 
Q 206 547 , 233 547 
Q 244 547 , 254 547 
Q 265 547 , 275 548 
" fill="#545FFF" />
<path d="
M 225 533 
L 207 540 
L 241 540 
L 225 533 
M 218 530 
L 232 530 
L 275 547 
L 259 547 
L 247 542 
L 203 542 
L 190 547 
L 175 547 
L 218 530 
" fill="#339541" />
<path d="
M 259 527 
L 259 522 
L 230 522 
L 230 520 
L 275 520 
L 275 528 
Q 264 529 , 253 529 
Q 244 530 , 232 530 
Q 206 530 , 190 527 
Q 175 525 , 175 520 
Q 175 516 , 190 514 
Q 206 511 , 232 511 
Q 243 511 , 252 511 
Q 262 512 , 272 513 
L 272 515 
Q 259 514 , 251 514 
Q 242 513 , 233 513 
Q 212 513 , 201 515 
Q 191 517 , 191 520 
Q 191 524 , 201 526 
Q 212 528 , 233 528 
Q 242 528 , 249 528 
Q 256 527 , 259 527 
" fill="#F5C000" />
<path d="
M 175 252 
L 193 252 
L 193 405 
Q 193 447 , 201 465 
Q 208 482 , 225 482 
Q 242 482 , 250 465 
Q 257 447 , 257 405 
L 257 252 
L 275 252 
L 275 409 
Q 275 458 , 262 485 
Q 250 511 , 225 511 
Q 201 511 , 188 485 
Q 175 458 , 175 409 
L 175 252 
" fill="#D21010" />
<path d="
M 380 550 
L 380 550 
Q 365 550 , 357 550 
Q 349 550 , 339 550 
Q 318 550 , 308 550 
Q 296 551 , 296 551 
Q 296 552 , 308 553 
Q 318 553 , 339 553 
Q 349 553 , 357 553 
Q 365 553 , 380 553 
L 380 554 
Q 369 554 , 359 554 
Q 349 554 , 338 554 
Q 311 554 , 296 553 
Q 280 553 , 280 552 
Q 280 550 , 296 550 
Q 311 549 , 338 549 
Q 349 549 , 359 549 
Q 370 549 , 380 550 
" fill="#545FFF" />
<path d="
M 364 546 
L 364 542 
L 335 542 
L 335 540 
L 380 540 
L 380 548 
Q 369 548 , 358 549 
Q 349 549 , 337 549 
Q 311 549 , 295 547 
Q 280 544 , 280 540 
Q 280 536 , 295 534 
Q 311 532 , 337 532 
Q 348 532 , 357 532 
Q 367 533 , 377 533 
L 377 536 
Q 364 535 , 356 534 
Q 347 534 , 338 534 
Q 317 534 , 306 536 
Q 296 537 , 296 540 
Q 296 544 , 306 545 
Q 317 547 , 338 547 
Q 347 547 , 354 547 
Q 361 547 , 364 546 
" fill="#F5C000" />
<path d="
M 330 508 
L 312 520 
L 346 520 
L 330 508 
M 323 503 
L 337 503 
L 380 531 
L 364 531 
L 352 523 
L 308 523 
L 295 531 
L 280 531 
L 323 503 
" fill="#339541" />
<path d="
M 280 292 
L 298 292 
L 298 416 
Q 298 451 , 306 465 
Q 313 479 , 330 479 
Q 347 479 , 355 465 
Q 362 451 , 362 416 
L 362 292 
L 380 292 
L 380 419 
Q 380 460 , 367 481 
Q 355 502 , 330 502 
Q 306 502 , 293 481 
Q 280 460 , 280 419 
L 280 292 
" fill="#D21010" />
<path d="
M 485 550 
L 485 551 
Q 470 551 , 462 551 
Q 454 550 , 444 550 
Q 423 550 , 413 551 
Q 401 551 , 401 552 
Q 401 553 , 413 553 
Q 423 554 , 444 554 
Q 454 554 , 462 554 
Q 470 554 , 485 553 
L 485 554 
Q 474 554 , 464 554 
Q 454 554 , 443 554 
Q 416 554 , 401 554 
Q 385 553 , 385 552 
Q 385 551 , 401 551 
Q 416 550 , 443 550 
Q 454 550 , 464 550 
Q 475 550 , 485 550 
" fill="#545FFF" />
<path d="
M 469 549 
L 469 547 
L 440 547 
L 440 546 
L 485 546 
L 485 549 
Q 474 549 , 463 550 
Q 454 550 , 442 550 
Q 416 550 , 400 549 
Q 385 548 , 385 546 
Q 385 544 , 400 543 
Q 416 542 , 442 542 
Q 453 542 , 462 542 
Q 472 542 , 482 543 
L 482 544 
Q 469 543 , 461 543 
Q 452 543 , 443 543 
Q 422 543 , 411 544 
Q 401 544 , 401 546 
Q 401 547 , 411 548 
Q 422 549 , 443 549 
Q 452 549 , 459 549 
Q 466 549 , 469 549 
" fill="#F5C000" />
<path d="
M 435 504 
L 417 523 
L 451 523 
L 435 504 
M 428 495 
L 442 495 
L 485 542 
L 469 542 
L 457 528 
L 413 528 
L 400 542 
L 385 542 
L 428 495 
" fill="#339541" />
<path d="
M 385 306 
L 403 306 
L 403 417 
Q 403 448 , 411 461 
Q 418 473 , 435 473 
Q 452 473 , 460 461 
Q 467 448 , 467 417 
L 467 306 
L 485 306 
L 485 420 
Q 485 456 , 472 475 
Q 460 494 , 435 494 
Q 411 494 , 398 475 
Q 385 456 , 385 420 
L 385 306 
" fill="#D21010" />
<path d="
M 574 554 
L 574 552 
L 545 552 
L 545 552 
L 590 552 
L 590 554 
Q 579 554 , 568 555 
Q 559 555 , 547 555 
Q 521 555 , 505 554 
Q 490 553 , 490 552 
Q 490 551 , 505 550 
Q 521 549 , 547 549 
Q 558 549 , 567 549 
Q 577 549 , 587 549 
L 587 550 
Q 574 550 , 566 550 
Q 557 550 , 548 550 
Q 527 550 , 516 550 
Q 506 551 , 506 552 
Q 506 553 , 516 553 
Q 527 554 , 548 554 
Q 557 554 , 564 554 
Q 571 554 , 574 554 
" fill="#F5C000" />
<path d="
M 590 544 
L 590 545 
Q 575 544 , 567 544 
Q 559 544 , 549 544 
Q 528 544 , 518 544 
Q 506 545 , 506 546 
Q 506 547 , 518 548 
Q 528 548 , 549 548 
Q 559 548 , 567 548 
Q 575 548 , 590 547 
L 590 548 
Q 579 549 , 569 549 
Q 559 549 , 548 549 
Q 521 549 , 506 548 
Q 490 547 , 490 546 
Q 490 545 , 506 544 
Q 521 543 , 548 543 
Q 559 543 , 569 543 
Q 580 543 , 590 544 
" fill="#545FFF" />
<path d="
M 540 536 
L 522 539 
L 556 539 
L 540 536 
M 533 534 
L 547 534 
L 590 543 
L 574 543 
L 562 540 
L 518 540 
L 505 543 
L 490 543 
L 533 534 
" fill="#339541" />
<path d="
M 490 517 
L 508 517 
L 508 527 
Q 508 529 , 516 530 
Q 523 531 , 540 531 
Q 557 531 , 565 530 
Q 572 529 , 572 527 
L 572 517 
L 590 517 
L 590 527 
Q 590 530 , 577 532 
Q 565 533 , 540 533 
Q 516 533 , 503 532 
Q 490 530 , 490 527 
L 490 517 
" fill="#D21010" />
<path d="M 65 55 L 65 555 " stroke="black" stroke-width="1.5"/>
<path d="M 55 555 L 65 555 " stroke="black" stroke-width="4"/>
<text text-anchor="end" x="50" y="555" font-size="50" alignment-baseline="middle">0</text>
<path d="M 55 305 L 65 305 " stroke="black" stroke-width="4"/>
<text text-anchor="end" x="50" y="305" font-size="50" alignment-baseline="middle">1</text>
<path d="M 55 55 L 65 55 " stroke="black" stroke-width="4"/>
<text text-anchor="end" x="50" y="55" font-size="50" alignment-baseline="middle">2</text>
<text text-anchor="middle" x="330" y="50" font-size="50" alignment-baseline="baseline"></text>
G<path d="
M 160 582 
L 126 595 
L 160 608 
L 157 611 
L 123 598 
L 123 623 
L 117 623 
L 117 599 
L 83 611 
L 80 608 
L 114 595 
L 80 582 
L 83 579 
L 117 591 
L 117 567 
L 123 567 
L 123 591 
L 157 579 
L 160 582 
" fill="black" />
<path d="
" fill="black" />
<path d="
M 211 567 
L 238 567 
L 238 623 
L 211 623 
L 211 567 
" fill="black" />
<path d="
" fill="black" />
<path d="
" fill="black" />
<path d="
M 316 567 
L 343 567 
L 343 623 
L 316 623 
L 316 567 
" fill="black" />
<path d="
" fill="black" />
<path d="
" fill="black" />
<path d="
M 421 567 
L 448 567 
L 448 623 
L 421 623 
L 421 567 
" fill="black" />
<path d="
" fill="black" />
<path d="
M 580 582 
L 546 595 
L 580 608 
L 577 611 
L 543 598 
L 543 623 
L 537 623 
L 537 599 
L 503 611 
L 500 608 
L 534 595 
L 500 582 
L 503 579 
L 537 591 
L 537 567 
L 543 567 
L 543 591 
L 577 579 
L 580 582 
" fill="black" />
</svg>
