<svg xmlns="http://www.w3.org/2000/svg"
viewBox="0 0 595 615">
<path d="
M 141 554 
L 141 552 
L 108 552 
L 108 551 
L 170 551 
L 170 554 
Q 148 555 , 128 555 
Q 99 555 , 84 554 
Q 70 553 , 70 552 
Q 70 550 , 84 549 
Q 99 549 , 130 549 
Q 143 549 , 163 549 
L 163 550 
Q 143 550 , 130 550 
Q 114 550 , 105 550 
Q 97 551 , 97 552 
Q 97 554 , 128 554 
Q 137 554 , 141 554 
" fill="#F5C000" stroke="black" stroke-width="1"/>
<path d="
M 70 544 
Q 70 541 , 86 540 
Q 102 539 , 133 539 
Q 149 539 , 168 539 
L 168 541 
Q 146 540 , 133 540 
Q 102 540 , 102 544 
Q 102 546 , 110 546 
Q 118 547 , 133 547 
Q 146 547 , 170 546 
L 170 548 
Q 151 548 , 133 548 
Q 102 548 , 86 547 
Q 70 546 , 70 544 
" fill="#545FFF" stroke="black" stroke-width="1"/>
<path d="
M 115 521 
L 125 521 
L 111 530 
L 129 530 
L 115 521 
M 134 533 
L 102 533 
L 93 539 
L 70 539 
L 106 518 
L 134 518 
L 170 539 
L 143 539 
L 134 533 
" fill="#339541" stroke="black" stroke-width="1"/>
<path d="
M 157 495 
Q 145 517 , 121 517 
Q 97 517 , 83 495 
Q 70 474 , 70 430 
L 70 211 
L 102 211 
L 102 422 
Q 102 450 , 106 460 
Q 111 470 , 121 470 
Q 132 470 , 136 460 
Q 141 450 , 141 422 
L 141 211 
L 170 211 
L 170 430 
Q 170 474 , 157 495 
" fill="#D21010" stroke="black" stroke-width="1"/>
<path d="
M 175 551 
Q 175 549 , 191 548 
Q 207 547 , 238 547 
Q 254 547 , 273 547 
L 273 549 
Q 251 548 , 238 548 
Q 207 548 , 207 551 
Q 207 552 , 215 552 
Q 223 553 , 238 553 
Q 251 553 , 275 552 
L 275 554 
Q 256 554 , 238 554 
Q 207 554 , 191 553 
Q 175 552 , 175 551 
" fill="#545FFF" stroke="black" stroke-width="1"/>
<path d="
M 246 545 
L 246 541 
L 213 541 
L 213 539 
L 275 539 
L 275 546 
Q 253 547 , 233 547 
Q 204 547 , 189 545 
Q 175 544 , 175 540 
Q 175 537 , 189 535 
Q 204 534 , 235 534 
Q 248 534 , 268 534 
L 268 537 
Q 248 536 , 235 536 
Q 219 536 , 210 537 
Q 202 538 , 202 540 
Q 202 545 , 233 545 
Q 242 545 , 246 545 
" fill="#F5C000" stroke="black" stroke-width="1"/>
<path d="
M 220 521 
L 230 521 
L 216 528 
L 234 528 
L 220 521 
M 239 530 
L 207 530 
L 198 534 
L 175 534 
L 211 519 
L 239 519 
L 275 534 
L 248 534 
L 239 530 
" fill="#339541" stroke="black" stroke-width="1"/>
<path d="
M 262 496 
Q 250 519 , 226 519 
Q 202 519 , 188 496 
Q 175 474 , 175 430 
L 175 209 
L 207 209 
L 207 422 
Q 207 451 , 211 461 
Q 216 471 , 226 471 
Q 237 471 , 241 461 
Q 246 451 , 246 422 
L 246 209 
L 275 209 
L 275 430 
Q 275 474 , 262 496 
" fill="#D21010" stroke="black" stroke-width="1"/>
<path d="
M 280 552 
Q 280 551 , 296 550 
Q 312 550 , 343 550 
Q 359 550 , 378 550 
L 378 551 
Q 356 551 , 343 551 
Q 312 551 , 312 552 
Q 312 553 , 320 553 
Q 328 554 , 343 554 
Q 356 554 , 380 554 
L 380 554 
Q 361 555 , 343 555 
Q 312 555 , 296 554 
Q 280 554 , 280 552 
" fill="#545FFF" stroke="black" stroke-width="1"/>
<path d="
M 351 548 
L 351 545 
L 318 545 
L 318 543 
L 380 543 
L 380 549 
Q 358 550 , 338 550 
Q 309 550 , 294 548 
Q 280 547 , 280 544 
Q 280 542 , 294 540 
Q 309 539 , 340 539 
Q 353 539 , 373 539 
L 373 541 
Q 353 541 , 340 541 
Q 324 541 , 315 541 
Q 307 542 , 307 544 
Q 307 548 , 338 548 
Q 347 548 , 351 548 
" fill="#F5C000" stroke="black" stroke-width="1"/>
<path d="
M 325 511 
L 335 511 
L 321 524 
L 339 524 
L 325 511 
M 344 529 
L 312 529 
L 303 538 
L 280 538 
L 316 506 
L 344 506 
L 380 538 
L 353 538 
L 344 529 
" fill="#339541" stroke="black" stroke-width="1"/>
<path d="
M 367 488 
Q 355 505 , 331 505 
Q 307 505 , 293 488 
Q 280 471 , 280 436 
L 280 261 
L 312 261 
L 312 430 
Q 312 452 , 316 460 
Q 321 468 , 331 468 
Q 342 468 , 346 460 
Q 351 452 , 351 430 
L 351 261 
L 380 261 
L 380 436 
Q 380 471 , 367 488 
" fill="#D21010" stroke="black" stroke-width="1"/>
<path d="
M 385 552 
Q 385 551 , 401 550 
Q 417 550 , 448 550 
Q 464 550 , 483 550 
L 483 551 
Q 461 551 , 448 551 
Q 417 551 , 417 552 
Q 417 553 , 425 553 
Q 433 554 , 448 554 
Q 461 554 , 485 554 
L 485 555 
Q 466 555 , 448 555 
Q 417 555 , 401 554 
Q 385 554 , 385 552 
" fill="#545FFF" stroke="black" stroke-width="1"/>
<path d="
M 456 549 
L 456 546 
L 423 546 
L 423 545 
L 485 545 
L 485 549 
Q 463 550 , 443 550 
Q 414 550 , 399 549 
Q 385 548 , 385 546 
Q 385 544 , 399 543 
Q 414 542 , 445 542 
Q 458 542 , 478 542 
L 478 544 
Q 458 543 , 445 543 
Q 429 543 , 420 543 
Q 412 544 , 412 546 
Q 412 549 , 443 549 
Q 452 549 , 456 549 
" fill="#F5C000" stroke="black" stroke-width="1"/>
<path d="
M 430 502 
L 440 502 
L 426 522 
L 444 522 
L 430 502 
M 449 529 
L 417 529 
L 408 541 
L 385 541 
L 421 495 
L 449 495 
L 485 541 
L 458 541 
L 449 529 
" fill="#339541" stroke="black" stroke-width="1"/>
<path d="
M 472 482 
Q 460 495 , 436 495 
Q 412 495 , 398 482 
Q 385 470 , 385 444 
L 385 317 
L 417 317 
L 417 440 
Q 417 456 , 421 462 
Q 426 468 , 436 468 
Q 447 468 , 451 462 
Q 456 456 , 456 440 
L 456 317 
L 485 317 
L 485 444 
Q 485 470 , 472 482 
" fill="#D21010" stroke="black" stroke-width="1"/>
<path d="
M 561 554 
L 561 554 
L 528 554 
L 528 553 
L 590 553 
L 590 555 
Q 568 555 , 548 555 
Q 519 555 , 504 554 
Q 490 554 , 490 553 
Q 490 553 , 504 552 
Q 519 552 , 550 552 
Q 563 552 , 583 552 
L 583 553 
Q 563 552 , 550 552 
Q 534 552 , 525 552 
Q 517 553 , 517 553 
Q 517 554 , 548 554 
Q 557 554 , 561 554 
" fill="#F5C000" stroke="black" stroke-width="1"/>
<path d="
M 490 548 
Q 490 546 , 506 545 
Q 522 544 , 553 544 
Q 569 544 , 588 544 
L 588 546 
Q 566 545 , 553 545 
Q 522 545 , 522 548 
Q 522 549 , 530 549 
Q 538 550 , 553 550 
Q 566 550 , 590 550 
L 590 551 
Q 571 551 , 553 551 
Q 522 551 , 506 550 
Q 490 550 , 490 548 
" fill="#545FFF" stroke="black" stroke-width="1"/>
<path d="
M 535 502 
L 545 502 
L 531 522 
L 549 522 
L 535 502 
M 554 530 
L 522 530 
L 513 543 
L 490 543 
L 526 494 
L 554 494 
L 590 543 
L 563 543 
L 554 530 
" fill="#339541" stroke="black" stroke-width="1"/>
<path d="
M 577 479 
Q 565 494 , 541 494 
Q 517 494 , 503 479 
Q 490 465 , 490 437 
L 490 295 
L 522 295 
L 522 432 
Q 522 450 , 526 456 
Q 531 463 , 541 463 
Q 552 463 , 556 456 
Q 561 450 , 561 432 
L 561 295 
L 590 295 
L 590 437 
Q 590 465 , 577 479 
" fill="#D21010" stroke="black" stroke-width="1"/>
<path d="M 65 55 L 65 555 " stroke="black" stroke-width="1.5"/>
<path d="M 55 555 L 65 555 " stroke="black" stroke-width="4"/>
<text text-anchor="end" x="50" y="555" font-size="50" alignment-baseline="middle">0</text>
<path d="M 55 305 L 65 305 " stroke="black" stroke-width="4"/>
<text text-anchor="end" x="50" y="305" font-size="50" alignment-baseline="middle">1</text>
<path d="M 55 55 L 65 55 " stroke="black" stroke-width="4"/>
<text text-anchor="end" x="50" y="55" font-size="50" alignment-baseline="middle">2</text>
<text text-anchor="middle" x="330" y="50" font-size="50" alignment-baseline="baseline"></text>
G</svg>
