<svg xmlns="http://www.w3.org/2000/svg"
viewBox="0 0 700 635">
<path d="
M 154 554 
L 154 552 
L 125 552 
L 125 552 
L 170 552 
L 170 554 
Q 159 554 , 148 554 
Q 139 554 , 127 555 
Q 101 555 , 85 554 
Q 70 553 , 70 552 
Q 70 550 , 85 550 
Q 101 549 , 127 549 
Q 138 549 , 147 549 
Q 157 549 , 167 549 
L 167 550 
Q 154 550 , 146 550 
Q 137 550 , 128 550 
Q 107 550 , 96 550 
Q 86 551 , 86 552 
Q 86 553 , 96 553 
Q 107 554 , 128 554 
Q 137 554 , 144 554 
Q 151 554 , 154 554 
" fill="#F5C000" />
<path d="
M 170 544 
L 170 544 
Q 155 544 , 147 544 
Q 139 544 , 129 544 
Q 108 544 , 98 544 
Q 86 545 , 86 546 
Q 86 547 , 98 548 
Q 108 548 , 129 548 
Q 139 548 , 147 548 
Q 155 548 , 170 547 
L 170 548 
Q 159 548 , 149 549 
Q 139 549 , 128 549 
Q 101 549 , 86 548 
Q 70 547 , 70 546 
Q 70 545 , 86 544 
Q 101 543 , 128 543 
Q 139 543 , 149 543 
Q 160 543 , 170 544 
" fill="#545FFF" />
<path d="
M 120 536 
L 102 539 
L 136 539 
L 120 536 
M 113 534 
L 127 534 
L 170 543 
L 154 543 
L 142 540 
L 98 540 
L 85 543 
L 70 543 
L 113 534 
" fill="#339541" />
<path d="
M 70 518 
L 88 518 
L 88 527 
Q 88 530 , 96 531 
Q 103 532 , 120 532 
Q 137 532 , 145 531 
Q 152 530 , 152 527 
L 152 518 
L 170 518 
L 170 527 
Q 170 530 , 157 532 
Q 145 534 , 120 534 
Q 96 534 , 83 532 
Q 70 530 , 70 527 
L 70 518 
" fill="#D21010" />
<path d="
M 275 548 
L 275 549 
Q 260 548 , 252 548 
Q 244 548 , 234 548 
Q 213 548 , 203 549 
Q 191 549 , 191 550 
Q 191 552 , 203 553 
Q 213 554 , 234 554 
Q 244 554 , 252 554 
Q 260 554 , 275 553 
L 275 554 
Q 264 554 , 254 555 
Q 244 555 , 233 555 
Q 206 555 , 191 554 
Q 175 553 , 175 551 
Q 175 549 , 191 548 
Q 206 547 , 233 547 
Q 244 547 , 254 547 
Q 265 547 , 275 548 
" fill="#545FFF" />
<path d="
M 225 536 
L 207 541 
L 241 541 
L 225 536 
M 218 534 
L 232 534 
L 275 546 
L 259 546 
L 247 543 
L 203 543 
L 190 546 
L 175 546 
L 218 534 
" fill="#339541" />
<path d="
M 259 531 
L 259 527 
L 230 527 
L 230 526 
L 275 526 
L 275 532 
Q 264 533 , 253 533 
Q 244 533 , 232 533 
Q 206 533 , 190 531 
Q 175 529 , 175 526 
Q 175 523 , 190 521 
Q 206 519 , 232 519 
Q 243 519 , 252 519 
Q 262 520 , 272 520 
L 272 522 
Q 259 521 , 251 521 
Q 242 521 , 233 521 
Q 212 521 , 201 522 
Q 191 523 , 191 526 
Q 191 529 , 201 530 
Q 212 532 , 233 532 
Q 242 532 , 249 531 
Q 256 531 , 259 531 
" fill="#F5C000" />
<path d="
M 175 208 
L 193 208 
L 193 391 
Q 193 442 , 201 463 
Q 208 483 , 225 483 
Q 242 483 , 250 463 
Q 257 442 , 257 391 
L 257 208 
L 275 208 
L 275 396 
Q 275 455 , 262 487 
Q 250 518 , 225 518 
Q 201 518 , 188 487 
Q 175 455 , 175 396 
L 175 208 
" fill="#D21010" />
<path d="
M 380 550 
L 380 550 
Q 365 550 , 357 550 
Q 349 550 , 339 550 
Q 318 550 , 308 550 
Q 296 551 , 296 552 
Q 296 553 , 308 553 
Q 318 554 , 339 554 
Q 349 554 , 357 554 
Q 365 553 , 380 553 
L 380 554 
Q 369 554 , 359 554 
Q 349 554 , 338 554 
Q 311 554 , 296 554 
Q 280 553 , 280 552 
Q 280 550 , 296 550 
Q 311 549 , 338 549 
Q 349 549 , 359 549 
Q 370 549 , 380 550 
" fill="#545FFF" />
<path d="
M 364 547 
L 364 543 
L 335 543 
L 335 541 
L 380 541 
L 380 548 
Q 369 548 , 358 548 
Q 349 549 , 337 549 
Q 311 549 , 295 547 
Q 280 545 , 280 541 
Q 280 538 , 295 536 
Q 311 534 , 337 534 
Q 348 534 , 357 534 
Q 367 535 , 377 535 
L 377 537 
Q 364 536 , 356 536 
Q 347 536 , 338 536 
Q 317 536 , 306 537 
Q 296 538 , 296 541 
Q 296 544 , 306 546 
Q 317 547 , 338 547 
Q 347 547 , 354 547 
Q 361 547 , 364 547 
" fill="#F5C000" />
<path d="
M 330 518 
L 312 525 
L 346 525 
L 330 518 
M 323 514 
L 337 514 
L 380 533 
L 364 533 
L 352 528 
L 308 528 
L 295 533 
L 280 533 
L 323 514 
" fill="#339541" />
<path d="
M 280 228 
L 298 228 
L 298 397 
Q 298 443 , 306 463 
Q 313 482 , 330 482 
Q 347 482 , 355 463 
Q 362 443 , 362 397 
L 362 228 
L 380 228 
L 380 401 
Q 380 456 , 367 485 
Q 355 514 , 330 514 
Q 306 514 , 293 485 
Q 280 456 , 280 401 
L 280 228 
" fill="#D21010" />
<path d="
M 485 551 
L 485 552 
Q 470 552 , 462 551 
Q 454 551 , 444 551 
Q 423 551 , 413 552 
Q 401 552 , 401 552 
Q 401 553 , 413 554 
Q 423 554 , 444 554 
Q 454 554 , 462 554 
Q 470 554 , 485 554 
L 485 554 
Q 474 554 , 464 554 
Q 454 554 , 443 554 
Q 416 554 , 401 554 
Q 385 554 , 385 553 
Q 385 552 , 401 551 
Q 416 551 , 443 551 
Q 454 551 , 464 551 
Q 475 551 , 485 551 
" fill="#545FFF" />
<path d="
M 469 549 
L 469 546 
L 440 546 
L 440 545 
L 485 545 
L 485 550 
Q 474 550 , 463 550 
Q 454 550 , 442 550 
Q 416 550 , 400 549 
Q 385 548 , 385 545 
Q 385 543 , 400 541 
Q 416 540 , 442 540 
Q 453 540 , 462 540 
Q 472 540 , 482 541 
L 482 542 
Q 469 542 , 461 541 
Q 452 541 , 443 541 
Q 422 541 , 411 542 
Q 401 543 , 401 545 
Q 401 547 , 411 548 
Q 422 549 , 443 549 
Q 452 549 , 459 549 
Q 466 549 , 469 549 
" fill="#F5C000" />
<path d="
M 435 507 
L 417 523 
L 451 523 
L 435 507 
M 428 499 
L 442 499 
L 485 540 
L 469 540 
L 457 528 
L 413 528 
L 400 540 
L 385 540 
L 428 499 
" fill="#339541" />
<path d="
M 385 291 
L 403 291 
L 403 413 
Q 403 447 , 411 462 
Q 418 475 , 435 475 
Q 452 475 , 460 462 
Q 467 447 , 467 413 
L 467 291 
L 485 291 
L 485 417 
Q 485 456 , 472 477 
Q 460 498 , 435 498 
Q 411 498 , 398 477 
Q 385 456 , 385 417 
L 385 291 
" fill="#D21010" />
<path d="
M 590 550 
L 590 551 
Q 575 551 , 567 551 
Q 559 550 , 549 550 
Q 528 550 , 518 551 
Q 506 551 , 506 552 
Q 506 553 , 518 553 
Q 528 554 , 549 554 
Q 559 554 , 567 554 
Q 575 554 , 590 553 
L 590 554 
Q 579 554 , 569 554 
Q 559 554 , 548 554 
Q 521 554 , 506 554 
Q 490 553 , 490 552 
Q 490 551 , 506 551 
Q 521 550 , 548 550 
Q 559 550 , 569 550 
Q 580 550 , 590 550 
" fill="#545FFF" />
<path d="
M 574 548 
L 574 547 
L 545 547 
L 545 546 
L 590 546 
L 590 549 
Q 579 549 , 568 549 
Q 559 549 , 547 549 
Q 521 549 , 505 548 
Q 490 548 , 490 547 
Q 490 545 , 505 545 
Q 521 544 , 547 544 
Q 558 544 , 567 544 
Q 577 544 , 587 544 
L 587 545 
Q 574 545 , 566 545 
Q 557 545 , 548 545 
Q 527 545 , 516 545 
Q 506 546 , 506 547 
Q 506 548 , 516 548 
Q 527 548 , 548 548 
Q 557 548 , 564 548 
Q 571 548 , 574 548 
" fill="#F5C000" />
<path d="
M 540 501 
L 522 522 
L 556 522 
L 540 501 
M 533 491 
L 547 491 
L 590 544 
L 574 544 
L 562 528 
L 518 528 
L 505 544 
L 490 544 
L 533 491 
" fill="#339541" />
<path d="
M 490 301 
L 508 301 
L 508 413 
Q 508 444 , 516 457 
Q 523 469 , 540 469 
Q 557 469 , 565 457 
Q 572 444 , 572 413 
L 572 301 
L 590 301 
L 590 416 
Q 590 452 , 577 471 
Q 565 490 , 540 490 
Q 516 490 , 503 471 
Q 490 452 , 490 416 
L 490 301 
" fill="#D21010" />
<path d="
M 679 554 
L 679 552 
L 650 552 
L 650 552 
L 695 552 
L 695 554 
Q 684 554 , 673 554 
Q 664 554 , 652 555 
Q 626 555 , 610 554 
Q 595 553 , 595 552 
Q 595 550 , 610 550 
Q 626 549 , 652 549 
Q 663 549 , 672 549 
Q 682 549 , 692 549 
L 692 550 
Q 679 550 , 671 550 
Q 662 550 , 653 550 
Q 632 550 , 621 550 
Q 611 551 , 611 552 
Q 611 553 , 621 553 
Q 632 554 , 653 554 
Q 662 554 , 669 554 
Q 676 554 , 679 554 
" fill="#F5C000" />
<path d="
M 695 544 
L 695 544 
Q 680 544 , 672 544 
Q 664 544 , 654 544 
Q 633 544 , 623 544 
Q 611 545 , 611 546 
Q 611 547 , 623 548 
Q 633 548 , 654 548 
Q 664 548 , 672 548 
Q 680 548 , 695 547 
L 695 548 
Q 684 548 , 674 549 
Q 664 549 , 653 549 
Q 626 549 , 611 548 
Q 595 547 , 595 546 
Q 595 545 , 611 544 
Q 626 543 , 653 543 
Q 664 543 , 674 543 
Q 685 543 , 695 544 
" fill="#545FFF" />
<path d="
M 645 536 
L 627 539 
L 661 539 
L 645 536 
M 638 534 
L 652 534 
L 695 543 
L 679 543 
L 667 540 
L 623 540 
L 610 543 
L 595 543 
L 638 534 
" fill="#339541" />
<path d="
M 595 518 
L 613 518 
L 613 527 
Q 613 530 , 621 531 
Q 628 532 , 645 532 
Q 662 532 , 670 531 
Q 677 530 , 677 527 
L 677 518 
L 695 518 
L 695 527 
Q 695 530 , 682 532 
Q 670 534 , 645 534 
Q 621 534 , 608 532 
Q 595 530 , 595 527 
L 595 518 
" fill="#D21010" />
<path d="M 65 55 L 65 555 " stroke="black" stroke-width="1.5"/>
<path d="M 55 555 L 65 555 " stroke="black" stroke-width="4"/>
<text text-anchor="end" x="50" y="555" font-size="50" alignment-baseline="middle">0</text>
<path d="M 55 305 L 65 305 " stroke="black" stroke-width="4"/>
<text text-anchor="end" x="50" y="305" font-size="50" alignment-baseline="middle">1</text>
<path d="M 55 55 L 65 55 " stroke="black" stroke-width="4"/>
<text text-anchor="end" x="50" y="55" font-size="50" alignment-baseline="middle">2</text>
<text text-anchor="middle" x="382" y="50" font-size="50" alignment-baseline="baseline"></text>
G<path d="
M 160 582 
L 126 595 
L 160 608 
L 157 611 
L 123 598 
L 123 623 
L 117 623 
L 117 599 
L 83 611 
L 80 608 
L 114 595 
L 80 582 
L 83 579 
L 117 591 
L 117 567 
L 123 567 
L 123 591 
L 157 579 
L 160 582 
" fill="black" />
<path d="
" fill="black" />
<path d="
M 211 567 
L 238 567 
L 238 623 
L 211 623 
L 211 567 
" fill="black" />
<path d="
" fill="black" />
<path d="
" fill="black" />
<path d="
M 316 567 
L 343 567 
L 343 623 
L 316 623 
L 316 567 
" fill="black" />
<path d="
" fill="black" />
<path d="
" fill="black" />
<path d="
M 421 567 
L 448 567 
L 448 623 
L 421 623 
L 421 567 
" fill="black" />
<path d="
" fill="black" />
<path d="
" fill="black" />
<path d="
M 526 567 
L 553 567 
L 553 623 
L 526 623 
L 526 567 
" fill="black" />
<path d="
" fill="black" />
<path d="
M 685 582 
L 651 595 
L 685 608 
L 682 611 
L 648 598 
L 648 623 
L 642 623 
L 642 599 
L 608 611 
L 605 608 
L 639 595 
L 605 582 
L 608 579 
L 642 591 
L 642 567 
L 648 567 
L 648 591 
L 682 579 
L 685 582 
" fill="black" />
</svg>
