<svg xmlns="http://www.w3.org/2000/svg"
viewBox="0 0 1435 635">
<path d="
M 120 553 
L 102 554 
L 136 554 
L 120 553 
M 113 552 
L 127 552 
L 170 555 
L 154 555 
L 142 554 
L 98 554 
L 85 555 
L 70 555 
L 113 552 
" fill="#339541" />
<path d="
M 70 548 
L 88 548 
L 88 550 
Q 88 551 , 96 551 
Q 103 551 , 120 551 
Q 137 551 , 145 551 
Q 152 551 , 152 550 
L 152 548 
L 170 548 
L 170 550 
Q 170 551 , 157 551 
Q 145 551 , 120 551 
Q 96 551 , 83 551 
Q 70 551 , 70 550 
L 70 548 
" fill="#D21010" />
<path d="
M 170 543 
L 170 544 
Q 155 543 , 147 543 
Q 139 543 , 129 543 
Q 108 543 , 98 543 
Q 86 544 , 86 545 
Q 86 546 , 98 547 
Q 108 547 , 129 547 
Q 139 547 , 147 547 
Q 155 547 , 170 546 
L 170 547 
Q 159 548 , 149 548 
Q 139 548 , 128 548 
Q 101 548 , 86 547 
Q 70 546 , 70 545 
Q 70 544 , 86 543 
Q 101 542 , 128 542 
Q 139 542 , 149 542 
Q 160 542 , 170 543 
" fill="#545FFF" />
<path d="
M 154 540 
L 154 538 
L 125 538 
L 125 538 
L 170 538 
L 170 541 
Q 159 541 , 148 541 
Q 139 542 , 127 542 
Q 101 542 , 85 541 
Q 70 540 , 70 538 
Q 70 536 , 85 535 
Q 101 534 , 127 534 
Q 138 534 , 147 534 
Q 157 534 , 167 535 
L 167 536 
Q 154 535 , 146 535 
Q 137 535 , 128 535 
Q 107 535 , 96 536 
Q 86 536 , 86 538 
Q 86 539 , 96 540 
Q 107 541 , 128 541 
Q 137 541 , 144 541 
Q 151 541 , 154 540 
" fill="#F5C000" />
<path d="
M 225 552 
L 207 553 
L 241 553 
L 225 552 
M 218 551 
L 232 551 
L 275 554 
L 259 554 
L 247 553 
L 203 553 
L 190 554 
L 175 554 
L 218 551 
" fill="#339541" />
<path d="
M 175 540 
L 193 540 
L 193 546 
Q 193 548 , 201 548 
Q 208 549 , 225 549 
Q 242 549 , 250 548 
Q 257 548 , 257 546 
L 257 540 
L 275 540 
L 275 546 
Q 275 548 , 262 549 
Q 250 550 , 225 550 
Q 201 550 , 188 549 
Q 175 548 , 175 546 
L 175 540 
" fill="#D21010" />
<path d="
M 275 522 
L 275 525 
Q 260 523 , 252 523 
Q 244 522 , 234 522 
Q 213 522 , 203 524 
Q 191 526 , 191 530 
Q 191 534 , 203 536 
Q 213 538 , 234 538 
Q 244 538 , 252 537 
Q 260 537 , 275 535 
L 275 538 
Q 264 539 , 254 539 
Q 244 540 , 233 540 
Q 206 540 , 191 537 
Q 175 535 , 175 530 
Q 175 525 , 191 523 
Q 206 520 , 233 520 
Q 244 520 , 254 520 
Q 265 521 , 275 522 
" fill="#545FFF" />
<path d="
M 259 515 
L 259 506 
L 230 506 
L 230 503 
L 275 503 
L 275 517 
Q 264 518 , 253 519 
Q 244 519 , 232 519 
Q 206 519 , 190 515 
Q 175 511 , 175 504 
Q 175 496 , 190 492 
Q 206 488 , 232 488 
Q 243 488 , 252 489 
Q 262 489 , 272 491 
L 272 495 
Q 259 493 , 251 492 
Q 242 492 , 233 492 
Q 212 492 , 201 495 
Q 191 498 , 191 504 
Q 191 510 , 201 513 
Q 212 516 , 233 516 
Q 242 516 , 249 515 
Q 256 515 , 259 515 
" fill="#F5C000" />
<path d="
M 330 552 
L 312 553 
L 346 553 
L 330 552 
M 323 552 
L 337 552 
L 380 554 
L 364 554 
L 352 553 
L 308 553 
L 295 554 
L 280 554 
L 323 552 
" fill="#339541" />
<path d="
M 280 539 
L 298 539 
L 298 546 
Q 298 548 , 306 549 
Q 313 550 , 330 550 
Q 347 550 , 355 549 
Q 362 548 , 362 546 
L 362 539 
L 380 539 
L 380 547 
Q 380 549 , 367 550 
Q 355 551 , 330 551 
Q 306 551 , 293 550 
Q 280 549 , 280 547 
L 280 539 
" fill="#D21010" />
<path d="
M 380 510 
L 380 515 
Q 365 512 , 357 511 
Q 349 510 , 339 510 
Q 318 510 , 308 514 
Q 296 517 , 296 523 
Q 296 529 , 308 532 
Q 318 535 , 339 535 
Q 349 535 , 357 534 
Q 365 533 , 380 530 
L 380 535 
Q 369 537 , 359 538 
Q 349 538 , 338 538 
Q 311 538 , 296 534 
Q 280 530 , 280 523 
Q 280 516 , 296 511 
Q 311 507 , 338 507 
Q 349 507 , 359 508 
Q 370 509 , 380 510 
" fill="#545FFF" />
<path d="
M 364 497 
L 364 477 
L 335 477 
L 335 469 
L 380 469 
L 380 501 
Q 369 505 , 358 506 
Q 349 507 , 337 507 
Q 311 507 , 295 497 
Q 280 488 , 280 471 
Q 280 454 , 295 445 
Q 311 435 , 337 435 
Q 348 435 , 357 436 
Q 367 438 , 377 441 
L 377 450 
Q 364 446 , 356 445 
Q 347 444 , 338 444 
Q 317 444 , 306 450 
Q 296 457 , 296 471 
Q 296 485 , 306 492 
Q 317 499 , 338 499 
Q 347 499 , 354 498 
Q 361 498 , 364 497 
" fill="#F5C000" />
<path d="
M 385 553 
L 394 553 
L 394 554 
Q 394 554 , 398 554 
Q 401 555 , 410 555 
Q 419 555 , 422 554 
Q 426 554 , 426 554 
L 426 553 
L 435 553 
L 435 554 
Q 435 554 , 429 555 
Q 422 555 , 410 555 
Q 398 555 , 391 555 
Q 385 554 , 385 554 
L 385 553 
" fill="#D21010" />
<path d="
M 477 554 
L 477 554 
L 463 554 
L 463 554 
L 485 554 
L 485 555 
Q 480 555 , 474 555 
Q 469 555 , 463 555 
Q 450 555 , 443 554 
Q 435 554 , 435 554 
Q 435 553 , 443 553 
Q 450 553 , 463 553 
Q 469 553 , 474 553 
Q 479 553 , 484 553 
L 484 553 
Q 477 553 , 473 553 
Q 469 553 , 464 553 
Q 454 553 , 448 553 
Q 443 554 , 443 554 
Q 443 554 , 448 554 
Q 454 555 , 464 555 
Q 469 555 , 472 554 
Q 476 554 , 477 554 
" fill="lightgray" />
<path d="
M 427 552 
L 427 550 
L 413 550 
L 413 550 
L 435 550 
L 435 552 
Q 430 552 , 424 553 
Q 419 553 , 413 553 
Q 400 553 , 393 552 
Q 385 551 , 385 550 
Q 385 549 , 393 548 
Q 400 547 , 413 547 
Q 419 547 , 424 547 
Q 429 547 , 434 547 
L 434 548 
Q 427 548 , 423 548 
Q 419 548 , 414 548 
Q 404 548 , 398 548 
Q 393 549 , 393 550 
Q 393 551 , 398 551 
Q 404 552 , 414 552 
Q 419 552 , 422 552 
Q 426 552 , 427 552 
" fill="#F5C000" />
<path d="
M 435 547 
L 444 547 
L 444 550 
Q 444 551 , 448 552 
Q 451 552 , 460 552 
Q 469 552 , 472 552 
Q 476 551 , 476 550 
L 476 547 
L 485 547 
L 485 550 
Q 485 552 , 479 552 
Q 472 553 , 460 553 
Q 448 553 , 441 552 
Q 435 552 , 435 550 
L 435 547 
" fill="lightgray" />
<path d="
M 410 540 
L 401 543 
L 418 543 
L 410 540 
M 406 538 
L 414 538 
L 435 547 
L 427 547 
L 421 544 
L 399 544 
L 392 547 
L 385 547 
L 406 538 
" fill="#339541" />
<path d="
M 435 538 
L 444 538 
L 444 543 
Q 444 544 , 448 545 
Q 451 546 , 460 546 
Q 469 546 , 472 545 
Q 476 544 , 476 543 
L 476 538 
L 485 538 
L 485 543 
Q 485 545 , 479 546 
Q 472 546 , 460 546 
Q 448 546 , 441 546 
Q 435 545 , 435 543 
L 435 538 
" fill="lightgray" />
<path d="
M 427 536 
L 427 534 
L 413 534 
L 413 533 
L 435 533 
L 435 537 
Q 430 537 , 424 538 
Q 419 538 , 413 538 
Q 400 538 , 393 536 
Q 385 535 , 385 533 
Q 385 531 , 393 529 
Q 400 528 , 413 528 
Q 419 528 , 424 528 
Q 429 528 , 434 529 
L 434 530 
Q 427 529 , 423 529 
Q 419 529 , 414 529 
Q 404 529 , 398 530 
Q 393 531 , 393 533 
Q 393 535 , 398 536 
Q 404 537 , 414 537 
Q 419 537 , 422 537 
Q 426 537 , 427 536 
" fill="#F5C000" />
<path d="
M 485 529 
L 485 531 
Q 478 530 , 474 529 
Q 469 529 , 464 529 
Q 454 529 , 449 530 
Q 443 531 , 443 533 
Q 443 535 , 449 536 
Q 454 537 , 464 537 
Q 469 537 , 474 536 
Q 478 536 , 485 535 
L 485 537 
Q 480 537 , 474 538 
Q 470 538 , 464 538 
Q 450 538 , 443 536 
Q 435 535 , 435 533 
Q 435 531 , 443 529 
Q 450 528 , 464 528 
Q 470 528 , 475 528 
Q 480 528 , 485 529 
" fill="lightgray" />
<path d="
M 385 515 
L 394 515 
L 394 522 
Q 394 524 , 398 525 
Q 401 526 , 410 526 
Q 419 526 , 422 525 
Q 426 524 , 426 522 
L 426 515 
L 435 515 
L 435 522 
Q 435 525 , 429 526 
Q 422 527 , 410 527 
Q 398 527 , 391 526 
Q 385 525 , 385 522 
L 385 515 
" fill="#D21010" />
<path d="
M 460 517 
L 451 522 
L 468 522 
L 460 517 
M 456 515 
L 464 515 
L 485 527 
L 477 527 
L 471 524 
L 449 524 
L 442 527 
L 435 527 
L 456 515 
" fill="lightgray" />
<path d="
M 435 493 
L 435 496 
Q 428 494 , 424 493 
Q 419 493 , 414 493 
Q 404 493 , 399 495 
Q 393 497 , 393 502 
Q 393 507 , 399 509 
Q 404 511 , 414 511 
Q 419 511 , 424 511 
Q 428 510 , 435 508 
L 435 512 
Q 430 513 , 424 513 
Q 420 514 , 414 514 
Q 400 514 , 393 511 
Q 385 508 , 385 502 
Q 385 496 , 393 493 
Q 400 490 , 414 490 
Q 420 490 , 425 491 
Q 430 491 , 435 493 
" fill="#545FFF" />
<path d="
M 477 511 
L 477 504 
L 463 504 
L 463 501 
L 485 501 
L 485 512 
Q 480 513 , 474 514 
Q 469 514 , 463 514 
Q 450 514 , 443 511 
Q 435 508 , 435 502 
Q 435 496 , 443 493 
Q 450 490 , 463 490 
Q 469 490 , 474 490 
Q 479 491 , 484 492 
L 484 495 
Q 477 494 , 473 493 
Q 469 493 , 464 493 
Q 454 493 , 448 495 
Q 443 497 , 443 502 
Q 443 507 , 448 509 
Q 454 511 , 464 511 
Q 469 511 , 472 511 
Q 476 511 , 477 511 
" fill="lightgray" />
<path d="
M 490 549 
L 499 549 
L 499 552 
Q 499 553 , 503 554 
Q 506 554 , 515 554 
Q 524 554 , 527 554 
Q 531 553 , 531 552 
L 531 549 
L 540 549 
L 540 553 
Q 540 554 , 534 554 
Q 527 555 , 515 555 
Q 503 555 , 496 554 
Q 490 554 , 490 553 
L 490 549 
" fill="#D21010" />
<path d="
M 582 554 
L 582 552 
L 568 552 
L 568 552 
L 590 552 
L 590 554 
Q 585 555 , 579 555 
Q 574 555 , 568 555 
Q 555 555 , 548 554 
Q 540 553 , 540 552 
Q 540 551 , 548 550 
Q 555 549 , 568 549 
Q 574 549 , 579 549 
Q 584 549 , 589 549 
L 589 550 
Q 582 550 , 578 550 
Q 574 550 , 569 550 
Q 559 550 , 553 550 
Q 548 551 , 548 552 
Q 548 553 , 553 554 
Q 559 554 , 569 554 
Q 574 554 , 577 554 
Q 581 554 , 582 554 
" fill="lightgray" />
<path d="
M 490 542 
L 499 542 
L 499 546 
Q 499 547 , 503 548 
Q 506 548 , 515 548 
Q 524 548 , 527 548 
Q 531 547 , 531 546 
L 531 542 
L 540 542 
L 540 546 
Q 540 547 , 534 548 
Q 527 549 , 515 549 
Q 503 549 , 496 548 
Q 490 547 , 490 546 
L 490 542 
" fill="#D21010" />
<path d="
M 565 543 
L 556 546 
L 573 546 
L 565 543 
M 561 542 
L 569 542 
L 590 549 
L 582 549 
L 576 547 
L 554 547 
L 547 549 
L 540 549 
L 561 542 
" fill="lightgray" />
<path d="
M 532 540 
L 532 538 
L 518 538 
L 518 537 
L 540 537 
L 540 541 
Q 535 541 , 529 541 
Q 524 541 , 518 541 
Q 505 541 , 498 540 
Q 490 539 , 490 538 
Q 490 536 , 498 535 
Q 505 534 , 518 534 
Q 524 534 , 529 534 
Q 534 534 , 539 535 
L 539 536 
Q 532 535 , 528 535 
Q 524 535 , 519 535 
Q 509 535 , 503 536 
Q 498 536 , 498 538 
Q 498 539 , 503 540 
Q 509 540 , 519 540 
Q 524 540 , 527 540 
Q 531 540 , 532 540 
" fill="#F5C000" />
<path d="
M 540 534 
L 549 534 
L 549 538 
Q 549 539 , 553 540 
Q 556 540 , 565 540 
Q 574 540 , 577 540 
Q 581 539 , 581 538 
L 581 534 
L 590 534 
L 590 538 
Q 590 540 , 584 540 
Q 577 541 , 565 541 
Q 553 541 , 546 540 
Q 540 540 , 540 538 
L 540 534 
" fill="lightgray" />
<path d="
M 540 519 
L 540 521 
Q 533 520 , 529 519 
Q 524 519 , 519 519 
Q 509 519 , 504 520 
Q 498 522 , 498 525 
Q 498 528 , 504 530 
Q 509 532 , 519 532 
Q 524 532 , 529 531 
Q 533 531 , 540 529 
L 540 532 
Q 535 533 , 529 533 
Q 525 533 , 519 533 
Q 505 533 , 498 531 
Q 490 529 , 490 525 
Q 490 521 , 498 519 
Q 505 517 , 519 517 
Q 525 517 , 530 517 
Q 535 518 , 540 519 
" fill="#545FFF" />
<path d="
M 582 531 
L 582 527 
L 568 527 
L 568 525 
L 590 525 
L 590 532 
Q 585 533 , 579 533 
Q 574 533 , 568 533 
Q 555 533 , 548 531 
Q 540 529 , 540 525 
Q 540 521 , 548 519 
Q 555 517 , 568 517 
Q 574 517 , 579 517 
Q 584 518 , 589 518 
L 589 520 
Q 582 520 , 578 519 
Q 574 519 , 569 519 
Q 559 519 , 553 521 
Q 548 522 , 548 525 
Q 548 528 , 553 530 
Q 559 532 , 569 532 
Q 574 532 , 577 531 
Q 581 531 , 582 531 
" fill="lightgray" />
<path d="
M 515 495 
L 506 506 
L 523 506 
L 515 495 
M 511 490 
L 519 490 
L 540 517 
L 532 517 
L 526 509 
L 504 509 
L 497 517 
L 490 517 
L 511 490 
" fill="#339541" />
<path d="
M 540 490 
L 549 490 
L 549 506 
Q 549 510 , 553 512 
Q 556 514 , 565 514 
Q 574 514 , 577 512 
Q 581 510 , 581 506 
L 581 490 
L 590 490 
L 590 506 
Q 590 511 , 584 514 
Q 577 517 , 565 517 
Q 553 517 , 546 514 
Q 540 511 , 540 506 
L 540 490 
" fill="lightgray" />
<path d="
M 532 472 
L 532 440 
L 518 440 
L 518 426 
L 540 426 
L 540 480 
Q 535 486 , 529 488 
Q 524 490 , 518 490 
Q 505 490 , 498 473 
Q 490 457 , 490 429 
Q 490 400 , 498 384 
Q 505 368 , 518 368 
Q 524 368 , 529 370 
Q 534 372 , 539 378 
L 539 393 
Q 532 387 , 528 384 
Q 524 383 , 519 383 
Q 509 383 , 503 394 
Q 498 405 , 498 429 
Q 498 453 , 503 465 
Q 509 476 , 519 476 
Q 524 476 , 527 475 
Q 531 474 , 532 472 
" fill="#F5C000" />
<path d="
M 590 381 
L 590 400 
Q 583 388 , 579 385 
Q 574 381 , 569 381 
Q 559 381 , 554 393 
Q 548 405 , 548 428 
Q 548 452 , 554 465 
Q 559 477 , 569 477 
Q 574 477 , 579 473 
Q 583 470 , 590 458 
L 590 477 
Q 585 484 , 579 487 
Q 575 490 , 569 490 
Q 555 490 , 548 473 
Q 540 457 , 540 429 
Q 540 401 , 548 385 
Q 555 368 , 569 368 
Q 575 368 , 580 371 
Q 585 374 , 590 381 
" fill="lightgray" />
<path d="
M 645 549 
L 627 552 
L 661 552 
L 645 549 
M 638 548 
L 652 548 
L 695 554 
L 679 554 
L 667 552 
L 623 552 
L 610 554 
L 595 554 
L 638 548 
" fill="#339541" />
<path d="
M 695 534 
L 695 536 
Q 680 534 , 672 534 
Q 664 534 , 654 534 
Q 633 534 , 623 535 
Q 611 537 , 611 540 
Q 611 543 , 623 544 
Q 633 546 , 654 546 
Q 664 546 , 672 545 
Q 680 545 , 695 543 
L 695 546 
Q 684 547 , 674 547 
Q 664 547 , 653 547 
Q 626 547 , 611 545 
Q 595 543 , 595 540 
Q 595 536 , 611 534 
Q 626 532 , 653 532 
Q 664 532 , 674 532 
Q 685 533 , 695 534 
" fill="#545FFF" />
<path d="
M 595 515 
L 613 515 
L 613 525 
Q 613 527 , 621 528 
Q 628 529 , 645 529 
Q 662 529 , 670 528 
Q 677 527 , 677 525 
L 677 515 
L 695 515 
L 695 525 
Q 695 528 , 682 530 
Q 670 531 , 645 531 
Q 621 531 , 608 530 
Q 595 528 , 595 525 
L 595 515 
" fill="#D21010" />
<path d="
M 679 492 
L 679 452 
L 650 452 
L 650 435 
L 695 435 
L 695 502 
Q 684 509 , 673 511 
Q 664 514 , 652 514 
Q 626 514 , 610 494 
Q 595 474 , 595 438 
Q 595 403 , 610 382 
Q 626 362 , 652 362 
Q 663 362 , 672 365 
Q 682 367 , 692 374 
L 692 394 
Q 679 385 , 671 383 
Q 662 380 , 653 380 
Q 632 380 , 621 394 
Q 611 409 , 611 438 
Q 611 468 , 621 483 
Q 632 497 , 653 497 
Q 662 497 , 669 496 
Q 676 494 , 679 492 
" fill="#F5C000" />
<path d="
M 750 553 
L 732 554 
L 766 554 
L 750 553 
M 743 552 
L 757 552 
L 800 555 
L 784 555 
L 772 554 
L 728 554 
L 715 555 
L 700 555 
L 743 552 
" fill="#339541" />
<path d="
M 700 548 
L 718 548 
L 718 550 
Q 718 551 , 726 551 
Q 733 551 , 750 551 
Q 767 551 , 775 551 
Q 782 551 , 782 550 
L 782 548 
L 800 548 
L 800 550 
Q 800 551 , 787 551 
Q 775 551 , 750 551 
Q 726 551 , 713 551 
Q 700 551 , 700 550 
L 700 548 
" fill="#D21010" />
<path d="
M 800 543 
L 800 544 
Q 785 543 , 777 543 
Q 769 543 , 759 543 
Q 738 543 , 728 543 
Q 716 544 , 716 545 
Q 716 546 , 728 547 
Q 738 547 , 759 547 
Q 769 547 , 777 547 
Q 785 547 , 800 546 
L 800 547 
Q 789 548 , 779 548 
Q 769 548 , 758 548 
Q 731 548 , 716 547 
Q 700 546 , 700 545 
Q 700 544 , 716 543 
Q 731 542 , 758 542 
Q 769 542 , 779 542 
Q 790 542 , 800 543 
" fill="#545FFF" />
<path d="
M 784 540 
L 784 538 
L 755 538 
L 755 538 
L 800 538 
L 800 541 
Q 789 541 , 778 541 
Q 769 542 , 757 542 
Q 731 542 , 715 541 
Q 700 540 , 700 538 
Q 700 536 , 715 535 
Q 731 534 , 757 534 
Q 768 534 , 777 534 
Q 787 534 , 797 535 
L 797 536 
Q 784 535 , 776 535 
Q 767 535 , 758 535 
Q 737 535 , 726 536 
Q 716 536 , 716 538 
Q 716 539 , 726 540 
Q 737 541 , 758 541 
Q 767 541 , 774 541 
Q 781 541 , 784 540 
" fill="#F5C000" />
<path d="
M 855 553 
L 837 554 
L 871 554 
L 855 553 
M 848 553 
L 862 553 
L 905 555 
L 889 555 
L 877 554 
L 833 554 
L 820 555 
L 805 555 
L 848 553 
" fill="#339541" />
<path d="
M 805 547 
L 823 547 
L 823 550 
Q 823 551 , 831 552 
Q 838 552 , 855 552 
Q 872 552 , 880 552 
Q 887 551 , 887 550 
L 887 547 
L 905 547 
L 905 551 
Q 905 552 , 892 552 
Q 880 553 , 855 553 
Q 831 553 , 818 552 
Q 805 552 , 805 551 
L 805 547 
" fill="#D21010" />
<path d="
M 905 495 
L 905 504 
Q 890 498 , 882 497 
Q 874 495 , 864 495 
Q 843 495 , 833 501 
Q 821 507 , 821 518 
Q 821 529 , 833 535 
Q 843 541 , 864 541 
Q 874 541 , 882 539 
Q 890 538 , 905 532 
L 905 541 
Q 894 544 , 884 546 
Q 874 547 , 863 547 
Q 836 547 , 821 539 
Q 805 531 , 805 518 
Q 805 505 , 821 497 
Q 836 489 , 863 489 
Q 874 489 , 884 490 
Q 895 492 , 905 495 
" fill="#545FFF" />
<path d="
M 889 478 
L 889 459 
L 860 459 
L 860 451 
L 905 451 
L 905 483 
Q 894 486 , 883 487 
Q 874 488 , 862 488 
Q 836 488 , 820 479 
Q 805 469 , 805 452 
Q 805 435 , 820 426 
Q 836 416 , 862 416 
Q 873 416 , 882 417 
Q 892 419 , 902 422 
L 902 431 
Q 889 427 , 881 426 
Q 872 425 , 863 425 
Q 842 425 , 831 431 
Q 821 438 , 821 452 
Q 821 466 , 831 473 
Q 842 480 , 863 480 
Q 872 480 , 879 480 
Q 886 479 , 889 478 
" fill="#F5C000" />
<path d="
M 960 553 
L 942 554 
L 976 554 
L 960 553 
M 953 553 
L 967 553 
L 1010 555 
L 994 555 
L 982 554 
L 938 554 
L 925 555 
L 910 555 
L 953 553 
" fill="#339541" />
<path d="
M 910 543 
L 928 543 
L 928 549 
Q 928 551 , 936 551 
Q 943 552 , 960 552 
Q 977 552 , 985 551 
Q 992 551 , 992 549 
L 992 543 
L 1010 543 
L 1010 549 
Q 1010 551 , 997 552 
Q 985 553 , 960 553 
Q 936 553 , 923 552 
Q 910 551 , 910 549 
L 910 543 
" fill="#D21010" />
<path d="
M 994 536 
L 994 525 
L 965 525 
L 965 520 
L 1010 520 
L 1010 539 
Q 999 541 , 988 542 
Q 979 542 , 967 542 
Q 941 542 , 925 537 
Q 910 531 , 910 521 
Q 910 511 , 925 506 
Q 941 500 , 967 500 
Q 978 500 , 987 501 
Q 997 502 , 1007 503 
L 1007 509 
Q 994 506 , 986 506 
Q 977 505 , 968 505 
Q 947 505 , 936 509 
Q 926 513 , 926 521 
Q 926 529 , 936 534 
Q 947 538 , 968 538 
Q 977 538 , 984 537 
Q 991 537 , 994 536 
" fill="#F5C000" />
<path d="
M 1010 448 
L 1010 457 
Q 995 451 , 987 450 
Q 979 448 , 969 448 
Q 948 448 , 938 454 
Q 926 460 , 926 471 
Q 926 482 , 938 488 
Q 948 494 , 969 494 
Q 979 494 , 987 492 
Q 995 491 , 1010 485 
L 1010 494 
Q 999 497 , 989 499 
Q 979 500 , 968 500 
Q 941 500 , 926 492 
Q 910 484 , 910 471 
Q 910 458 , 926 450 
Q 941 442 , 968 442 
Q 979 442 , 989 443 
Q 1000 445 , 1010 448 
" fill="#545FFF" />
<path d="
M 1015 549 
L 1024 549 
L 1024 552 
Q 1024 553 , 1028 554 
Q 1031 554 , 1040 554 
Q 1049 554 , 1052 554 
Q 1056 553 , 1056 552 
L 1056 549 
L 1065 549 
L 1065 553 
Q 1065 554 , 1059 554 
Q 1052 555 , 1040 555 
Q 1028 555 , 1021 554 
Q 1015 554 , 1015 553 
L 1015 549 
" fill="lightgray" />
<path d="
M 1107 554 
L 1107 552 
L 1093 552 
L 1093 552 
L 1115 552 
L 1115 554 
Q 1110 555 , 1104 555 
Q 1099 555 , 1093 555 
Q 1080 555 , 1073 554 
Q 1065 553 , 1065 552 
Q 1065 551 , 1073 550 
Q 1080 549 , 1093 549 
Q 1099 549 , 1104 549 
Q 1109 549 , 1114 549 
L 1114 550 
Q 1107 550 , 1103 550 
Q 1099 550 , 1094 550 
Q 1084 550 , 1078 550 
Q 1073 551 , 1073 552 
Q 1073 553 , 1078 554 
Q 1084 554 , 1094 554 
Q 1099 554 , 1102 554 
Q 1106 554 , 1107 554 
" fill="#F5C000" />
<path d="
M 1015 542 
L 1024 542 
L 1024 546 
Q 1024 547 , 1028 548 
Q 1031 548 , 1040 548 
Q 1049 548 , 1052 548 
Q 1056 547 , 1056 546 
L 1056 542 
L 1065 542 
L 1065 546 
Q 1065 547 , 1059 548 
Q 1052 549 , 1040 549 
Q 1028 549 , 1021 548 
Q 1015 547 , 1015 546 
L 1015 542 
" fill="lightgray" />
<path d="
M 1090 543 
L 1081 546 
L 1098 546 
L 1090 543 
M 1086 542 
L 1094 542 
L 1115 549 
L 1107 549 
L 1101 547 
L 1079 547 
L 1072 549 
L 1065 549 
L 1086 542 
" fill="#339541" />
<path d="
M 1057 540 
L 1057 538 
L 1043 538 
L 1043 537 
L 1065 537 
L 1065 541 
Q 1060 541 , 1054 541 
Q 1049 541 , 1043 541 
Q 1030 541 , 1023 540 
Q 1015 539 , 1015 538 
Q 1015 536 , 1023 535 
Q 1030 534 , 1043 534 
Q 1049 534 , 1054 534 
Q 1059 534 , 1064 535 
L 1064 536 
Q 1057 535 , 1053 535 
Q 1049 535 , 1044 535 
Q 1034 535 , 1028 536 
Q 1023 536 , 1023 538 
Q 1023 539 , 1028 540 
Q 1034 540 , 1044 540 
Q 1049 540 , 1052 540 
Q 1056 540 , 1057 540 
" fill="lightgray" />
<path d="
M 1065 534 
L 1074 534 
L 1074 538 
Q 1074 539 , 1078 540 
Q 1081 540 , 1090 540 
Q 1099 540 , 1102 540 
Q 1106 539 , 1106 538 
L 1106 534 
L 1115 534 
L 1115 538 
Q 1115 540 , 1109 540 
Q 1102 541 , 1090 541 
Q 1078 541 , 1071 540 
Q 1065 540 , 1065 538 
L 1065 534 
" fill="#D21010" />
<path d="
M 1065 519 
L 1065 521 
Q 1058 520 , 1054 519 
Q 1049 519 , 1044 519 
Q 1034 519 , 1029 520 
Q 1023 522 , 1023 525 
Q 1023 528 , 1029 530 
Q 1034 532 , 1044 532 
Q 1049 532 , 1054 531 
Q 1058 531 , 1065 529 
L 1065 532 
Q 1060 533 , 1054 533 
Q 1050 533 , 1044 533 
Q 1030 533 , 1023 531 
Q 1015 529 , 1015 525 
Q 1015 521 , 1023 519 
Q 1030 517 , 1044 517 
Q 1050 517 , 1055 517 
Q 1060 518 , 1065 519 
" fill="lightgray" />
<path d="
M 1107 531 
L 1107 527 
L 1093 527 
L 1093 525 
L 1115 525 
L 1115 532 
Q 1110 533 , 1104 533 
Q 1099 533 , 1093 533 
Q 1080 533 , 1073 531 
Q 1065 529 , 1065 525 
Q 1065 521 , 1073 519 
Q 1080 517 , 1093 517 
Q 1099 517 , 1104 517 
Q 1109 518 , 1114 518 
L 1114 520 
Q 1107 520 , 1103 519 
Q 1099 519 , 1094 519 
Q 1084 519 , 1078 521 
Q 1073 522 , 1073 525 
Q 1073 528 , 1078 530 
Q 1084 532 , 1094 532 
Q 1099 532 , 1102 531 
Q 1106 531 , 1107 531 
" fill="#F5C000" />
<path d="
M 1040 495 
L 1031 506 
L 1048 506 
L 1040 495 
M 1036 490 
L 1044 490 
L 1065 517 
L 1057 517 
L 1051 509 
L 1029 509 
L 1022 517 
L 1015 517 
L 1036 490 
" fill="lightgray" />
<path d="
M 1065 490 
L 1074 490 
L 1074 506 
Q 1074 510 , 1078 512 
Q 1081 514 , 1090 514 
Q 1099 514 , 1102 512 
Q 1106 510 , 1106 506 
L 1106 490 
L 1115 490 
L 1115 506 
Q 1115 511 , 1109 514 
Q 1102 517 , 1090 517 
Q 1078 517 , 1071 514 
Q 1065 511 , 1065 506 
L 1065 490 
" fill="#D21010" />
<path d="
M 1057 472 
L 1057 440 
L 1043 440 
L 1043 426 
L 1065 426 
L 1065 480 
Q 1060 486 , 1054 488 
Q 1049 490 , 1043 490 
Q 1030 490 , 1023 473 
Q 1015 457 , 1015 429 
Q 1015 400 , 1023 384 
Q 1030 368 , 1043 368 
Q 1049 368 , 1054 370 
Q 1059 372 , 1064 378 
L 1064 393 
Q 1057 387 , 1053 384 
Q 1049 383 , 1044 383 
Q 1034 383 , 1028 394 
Q 1023 405 , 1023 429 
Q 1023 453 , 1028 465 
Q 1034 476 , 1044 476 
Q 1049 476 , 1052 475 
Q 1056 474 , 1057 472 
" fill="lightgray" />
<path d="
M 1115 381 
L 1115 400 
Q 1108 388 , 1104 385 
Q 1099 381 , 1094 381 
Q 1084 381 , 1079 393 
Q 1073 405 , 1073 428 
Q 1073 452 , 1079 465 
Q 1084 477 , 1094 477 
Q 1099 477 , 1104 473 
Q 1108 470 , 1115 458 
L 1115 477 
Q 1110 484 , 1104 487 
Q 1100 490 , 1094 490 
Q 1080 490 , 1073 473 
Q 1065 457 , 1065 429 
Q 1065 401 , 1073 385 
Q 1080 368 , 1094 368 
Q 1100 368 , 1105 371 
Q 1110 374 , 1115 381 
" fill="#545FFF" />
<path d="
M 1170 552 
L 1152 553 
L 1186 553 
L 1170 552 
M 1163 552 
L 1177 552 
L 1220 555 
L 1204 555 
L 1192 554 
L 1148 554 
L 1135 555 
L 1120 555 
L 1163 552 
" fill="#339541" />
<path d="
M 1120 541 
L 1138 541 
L 1138 547 
Q 1138 549 , 1146 550 
Q 1153 550 , 1170 550 
Q 1187 550 , 1195 550 
Q 1202 549 , 1202 547 
L 1202 541 
L 1220 541 
L 1220 547 
Q 1220 549 , 1207 550 
Q 1195 551 , 1170 551 
Q 1146 551 , 1133 550 
Q 1120 549 , 1120 547 
L 1120 541 
" fill="#D21010" />
<path d="
M 1220 513 
L 1220 518 
Q 1205 515 , 1197 514 
Q 1189 513 , 1179 513 
Q 1158 513 , 1148 516 
Q 1136 519 , 1136 525 
Q 1136 531 , 1148 534 
Q 1158 537 , 1179 537 
Q 1189 537 , 1197 537 
Q 1205 536 , 1220 533 
L 1220 538 
Q 1209 539 , 1199 540 
Q 1189 541 , 1178 541 
Q 1151 541 , 1136 537 
Q 1120 532 , 1120 525 
Q 1120 518 , 1136 514 
Q 1151 510 , 1178 510 
Q 1189 510 , 1199 511 
Q 1210 511 , 1220 513 
" fill="#545FFF" />
<path d="
M 1204 504 
L 1204 494 
L 1175 494 
L 1175 489 
L 1220 489 
L 1220 507 
Q 1209 508 , 1198 509 
Q 1189 509 , 1177 509 
Q 1151 509 , 1135 504 
Q 1120 499 , 1120 490 
Q 1120 481 , 1135 476 
Q 1151 471 , 1177 471 
Q 1188 471 , 1197 472 
Q 1207 472 , 1217 474 
L 1217 479 
Q 1204 477 , 1196 476 
Q 1187 476 , 1178 476 
Q 1157 476 , 1146 479 
Q 1136 483 , 1136 490 
Q 1136 498 , 1146 502 
Q 1157 505 , 1178 505 
Q 1187 505 , 1194 505 
Q 1201 504 , 1204 504 
" fill="#F5C000" />
<path d="
M 1225 553 
L 1234 553 
L 1234 554 
Q 1234 554 , 1238 554 
Q 1241 555 , 1250 555 
Q 1259 555 , 1262 554 
Q 1266 554 , 1266 554 
L 1266 553 
L 1275 553 
L 1275 554 
Q 1275 554 , 1269 555 
Q 1262 555 , 1250 555 
Q 1238 555 , 1231 555 
Q 1225 554 , 1225 554 
L 1225 553 
" fill="lightgray" />
<path d="
M 1317 554 
L 1317 554 
L 1303 554 
L 1303 554 
L 1325 554 
L 1325 555 
Q 1320 555 , 1314 555 
Q 1309 555 , 1303 555 
Q 1290 555 , 1283 554 
Q 1275 554 , 1275 554 
Q 1275 553 , 1283 553 
Q 1290 553 , 1303 553 
Q 1309 553 , 1314 553 
Q 1319 553 , 1324 553 
L 1324 553 
Q 1317 553 , 1313 553 
Q 1309 553 , 1304 553 
Q 1294 553 , 1288 553 
Q 1283 554 , 1283 554 
Q 1283 554 , 1288 554 
Q 1294 555 , 1304 555 
Q 1309 555 , 1312 554 
Q 1316 554 , 1317 554 
" fill="#F5C000" />
<path d="
M 1267 552 
L 1267 550 
L 1253 550 
L 1253 550 
L 1275 550 
L 1275 552 
Q 1270 552 , 1264 553 
Q 1259 553 , 1253 553 
Q 1240 553 , 1233 552 
Q 1225 551 , 1225 550 
Q 1225 549 , 1233 548 
Q 1240 547 , 1253 547 
Q 1259 547 , 1264 547 
Q 1269 547 , 1274 547 
L 1274 548 
Q 1267 548 , 1263 548 
Q 1259 548 , 1254 548 
Q 1244 548 , 1238 548 
Q 1233 549 , 1233 550 
Q 1233 551 , 1238 551 
Q 1244 552 , 1254 552 
Q 1259 552 , 1262 552 
Q 1266 552 , 1267 552 
" fill="lightgray" />
<path d="
M 1275 547 
L 1284 547 
L 1284 550 
Q 1284 551 , 1288 552 
Q 1291 552 , 1300 552 
Q 1309 552 , 1312 552 
Q 1316 551 , 1316 550 
L 1316 547 
L 1325 547 
L 1325 550 
Q 1325 552 , 1319 552 
Q 1312 553 , 1300 553 
Q 1288 553 , 1281 552 
Q 1275 552 , 1275 550 
L 1275 547 
" fill="#D21010" />
<path d="
M 1250 540 
L 1241 543 
L 1258 543 
L 1250 540 
M 1246 538 
L 1254 538 
L 1275 547 
L 1267 547 
L 1261 544 
L 1239 544 
L 1232 547 
L 1225 547 
L 1246 538 
" fill="lightgray" />
<path d="
M 1275 538 
L 1284 538 
L 1284 543 
Q 1284 544 , 1288 545 
Q 1291 546 , 1300 546 
Q 1309 546 , 1312 545 
Q 1316 544 , 1316 543 
L 1316 538 
L 1325 538 
L 1325 543 
Q 1325 545 , 1319 546 
Q 1312 546 , 1300 546 
Q 1288 546 , 1281 546 
Q 1275 545 , 1275 543 
L 1275 538 
" fill="#D21010" />
<path d="
M 1267 536 
L 1267 534 
L 1253 534 
L 1253 533 
L 1275 533 
L 1275 537 
Q 1270 537 , 1264 538 
Q 1259 538 , 1253 538 
Q 1240 538 , 1233 536 
Q 1225 535 , 1225 533 
Q 1225 531 , 1233 529 
Q 1240 528 , 1253 528 
Q 1259 528 , 1264 528 
Q 1269 528 , 1274 529 
L 1274 530 
Q 1267 529 , 1263 529 
Q 1259 529 , 1254 529 
Q 1244 529 , 1238 530 
Q 1233 531 , 1233 533 
Q 1233 535 , 1238 536 
Q 1244 537 , 1254 537 
Q 1259 537 , 1262 537 
Q 1266 537 , 1267 536 
" fill="lightgray" />
<path d="
M 1325 529 
L 1325 531 
Q 1318 530 , 1314 529 
Q 1309 529 , 1304 529 
Q 1294 529 , 1289 530 
Q 1283 531 , 1283 533 
Q 1283 535 , 1289 536 
Q 1294 537 , 1304 537 
Q 1309 537 , 1314 536 
Q 1318 536 , 1325 535 
L 1325 537 
Q 1320 537 , 1314 538 
Q 1310 538 , 1304 538 
Q 1290 538 , 1283 536 
Q 1275 535 , 1275 533 
Q 1275 531 , 1283 529 
Q 1290 528 , 1304 528 
Q 1310 528 , 1315 528 
Q 1320 528 , 1325 529 
" fill="#545FFF" />
<path d="
M 1225 515 
L 1234 515 
L 1234 522 
Q 1234 524 , 1238 525 
Q 1241 526 , 1250 526 
Q 1259 526 , 1262 525 
Q 1266 524 , 1266 522 
L 1266 515 
L 1275 515 
L 1275 522 
Q 1275 525 , 1269 526 
Q 1262 527 , 1250 527 
Q 1238 527 , 1231 526 
Q 1225 525 , 1225 522 
L 1225 515 
" fill="lightgray" />
<path d="
M 1300 517 
L 1291 522 
L 1308 522 
L 1300 517 
M 1296 515 
L 1304 515 
L 1325 527 
L 1317 527 
L 1311 524 
L 1289 524 
L 1282 527 
L 1275 527 
L 1296 515 
" fill="#339541" />
<path d="
M 1275 493 
L 1275 496 
Q 1268 494 , 1264 493 
Q 1259 493 , 1254 493 
Q 1244 493 , 1239 495 
Q 1233 497 , 1233 502 
Q 1233 507 , 1239 509 
Q 1244 511 , 1254 511 
Q 1259 511 , 1264 511 
Q 1268 510 , 1275 508 
L 1275 512 
Q 1270 513 , 1264 513 
Q 1260 514 , 1254 514 
Q 1240 514 , 1233 511 
Q 1225 508 , 1225 502 
Q 1225 496 , 1233 493 
Q 1240 490 , 1254 490 
Q 1260 490 , 1265 491 
Q 1270 491 , 1275 493 
" fill="lightgray" />
<path d="
M 1317 511 
L 1317 504 
L 1303 504 
L 1303 501 
L 1325 501 
L 1325 512 
Q 1320 513 , 1314 514 
Q 1309 514 , 1303 514 
Q 1290 514 , 1283 511 
Q 1275 508 , 1275 502 
Q 1275 496 , 1283 493 
Q 1290 490 , 1303 490 
Q 1309 490 , 1314 490 
Q 1319 491 , 1324 492 
L 1324 495 
Q 1317 494 , 1313 493 
Q 1309 493 , 1304 493 
Q 1294 493 , 1288 495 
Q 1283 497 , 1283 502 
Q 1283 507 , 1288 509 
Q 1294 511 , 1304 511 
Q 1309 511 , 1312 511 
Q 1316 511 , 1317 511 
" fill="#F5C000" />
<path d="
M 1380 553 
L 1362 554 
L 1396 554 
L 1380 553 
M 1373 552 
L 1387 552 
L 1430 555 
L 1414 555 
L 1402 554 
L 1358 554 
L 1345 555 
L 1330 555 
L 1373 552 
" fill="#339541" />
<path d="
M 1330 548 
L 1348 548 
L 1348 550 
Q 1348 551 , 1356 551 
Q 1363 551 , 1380 551 
Q 1397 551 , 1405 551 
Q 1412 551 , 1412 550 
L 1412 548 
L 1430 548 
L 1430 550 
Q 1430 551 , 1417 551 
Q 1405 551 , 1380 551 
Q 1356 551 , 1343 551 
Q 1330 551 , 1330 550 
L 1330 548 
" fill="#D21010" />
<path d="
M 1430 543 
L 1430 544 
Q 1415 543 , 1407 543 
Q 1399 543 , 1389 543 
Q 1368 543 , 1358 543 
Q 1346 544 , 1346 545 
Q 1346 546 , 1358 547 
Q 1368 547 , 1389 547 
Q 1399 547 , 1407 547 
Q 1415 547 , 1430 546 
L 1430 547 
Q 1419 548 , 1409 548 
Q 1399 548 , 1388 548 
Q 1361 548 , 1346 547 
Q 1330 546 , 1330 545 
Q 1330 544 , 1346 543 
Q 1361 542 , 1388 542 
Q 1399 542 , 1409 542 
Q 1420 542 , 1430 543 
" fill="#545FFF" />
<path d="
M 1414 540 
L 1414 538 
L 1385 538 
L 1385 538 
L 1430 538 
L 1430 541 
Q 1419 541 , 1408 541 
Q 1399 542 , 1387 542 
Q 1361 542 , 1345 541 
Q 1330 540 , 1330 538 
Q 1330 536 , 1345 535 
Q 1361 534 , 1387 534 
Q 1398 534 , 1407 534 
Q 1417 534 , 1427 535 
L 1427 536 
Q 1414 535 , 1406 535 
Q 1397 535 , 1388 535 
Q 1367 535 , 1356 536 
Q 1346 536 , 1346 538 
Q 1346 539 , 1356 540 
Q 1367 541 , 1388 541 
Q 1397 541 , 1404 541 
Q 1411 541 , 1414 540 
" fill="#F5C000" />
<path d="M 65 168 L 65 555 " stroke="black" stroke-width="1.5"/>
<path d="M 55 555 L 65 555 " stroke="black" stroke-width="4"/>
<text text-anchor="end" x="50" y="555" font-size="50" alignment-baseline="middle">0</text>
<path d="M 55 362 L 65 362 " stroke="black" stroke-width="4"/>
<text text-anchor="end" x="50" y="362" font-size="50" alignment-baseline="middle">1</text>
<path d="M 55 168 L 65 168 " stroke="black" stroke-width="4"/>
<text text-anchor="end" x="50" y="168" font-size="50" alignment-baseline="middle">2</text>
<text text-anchor="middle" x="750" y="50" font-size="50" alignment-baseline="baseline"></text>
G<path d="
M 160 582 
L 126 595 
L 160 608 
L 157 611 
L 123 598 
L 123 623 
L 117 623 
L 117 599 
L 83 611 
L 80 608 
L 114 595 
L 80 582 
L 83 579 
L 117 591 
L 117 567 
L 123 567 
L 123 591 
L 157 579 
L 160 582 
" fill="black" />
<path d="
" fill="black" />
<path d="
M 211 567 
L 238 567 
L 238 623 
L 211 623 
L 211 567 
" fill="black" />
<path d="
" fill="black" />
<path d="
" fill="black" />
<path d="
M 316 567 
L 343 567 
L 343 623 
L 316 623 
L 316 567 
" fill="black" />
<path d="
" fill="black" />
<path d="
M 475 567 
Q 446 574 , 433 581 
Q 420 588 , 420 595 
Q 420 602 , 433 609 
Q 446 616 , 475 623 
L 451 623 
Q 423 616 , 409 609 
Q 395 602 , 395 595 
Q 395 588 , 409 581 
Q 423 574 , 451 567 
L 475 567 
" fill="black" />
<path d="
M 580 567 
Q 551 574 , 538 581 
Q 525 588 , 525 595 
Q 525 602 , 538 609 
Q 551 616 , 580 623 
L 556 623 
Q 528 616 , 514 609 
Q 500 602 , 500 595 
Q 500 588 , 514 581 
Q 528 574 , 556 567 
L 580 567 
" fill="black" />
<path d="
" fill="black" />
<path d="
M 617 567 
L 633 567 
L 633 623 
L 617 623 
L 617 567 
" fill="black" />
<path d="
" fill="black" />
<path d="
M 659 619 
L 665 619 
L 665 572 
L 657 578 
L 657 573 
L 665 567 
L 667 567 
L 667 619 
L 673 619 
L 673 623 
L 659 623 
L 659 619 
" fill="black" />
<path d="
M 685 571 
Q 682 571 , 681 577 
Q 679 583 , 679 595 
Q 679 607 , 681 613 
Q 682 619 , 685 619 
Q 688 619 , 689 613 
Q 691 607 , 691 595 
Q 691 583 , 689 577 
Q 688 571 , 685 571 
M 685 567 
Q 689 567 , 691 573 
Q 693 580 , 693 595 
Q 693 610 , 691 617 
Q 689 623 , 685 623 
Q 681 623 , 679 617 
Q 677 610 , 677 595 
Q 677 580 , 679 573 
Q 681 567 , 685 567 
" fill="black" />
<path d="
M 790 582 
L 756 595 
L 790 608 
L 787 611 
L 753 598 
L 753 623 
L 747 623 
L 747 599 
L 713 611 
L 710 608 
L 744 595 
L 710 582 
L 713 579 
L 747 591 
L 747 567 
L 753 567 
L 753 591 
L 787 579 
L 790 582 
" fill="black" />
<path d="
" fill="black" />
<path d="
M 841 567 
L 868 567 
L 868 623 
L 841 623 
L 841 567 
" fill="black" />
<path d="
" fill="black" />
<path d="
" fill="black" />
<path d="
M 946 567 
L 973 567 
L 973 623 
L 946 623 
L 946 567 
" fill="black" />
<path d="
" fill="black" />
<path d="
M 1025 567 
L 1049 567 
Q 1077 574 , 1091 581 
Q 1105 588 , 1105 595 
Q 1105 602 , 1091 609 
Q 1077 616 , 1049 623 
L 1025 623 
Q 1054 616 , 1067 609 
Q 1080 602 , 1080 595 
Q 1080 588 , 1067 581 
Q 1054 574 , 1025 567 
" fill="black" />
<path d="
" fill="black" />
<path d="
M 1156 567 
L 1183 567 
L 1183 623 
L 1156 623 
L 1156 567 
" fill="black" />
<path d="
" fill="black" />
<path d="
M 1235 567 
L 1259 567 
Q 1287 574 , 1301 581 
Q 1315 588 , 1315 595 
Q 1315 602 , 1301 609 
Q 1287 616 , 1259 623 
L 1235 623 
Q 1264 616 , 1277 609 
Q 1290 602 , 1290 595 
Q 1290 588 , 1277 581 
Q 1264 574 , 1235 567 
" fill="black" />
<path d="
M 1420 582 
L 1386 595 
L 1420 608 
L 1417 611 
L 1383 598 
L 1383 623 
L 1377 623 
L 1377 599 
L 1343 611 
L 1340 608 
L 1374 595 
L 1340 582 
L 1343 579 
L 1377 591 
L 1377 567 
L 1383 567 
L 1383 591 
L 1417 579 
L 1420 582 
" fill="black" />
</svg>
