<svg xmlns="http://www.w3.org/2000/svg"
viewBox="0 0 385 615">
<path d="
M 157 554 
Q 145 554 , 121 554 
Q 97 554 , 83 554 
Q 70 554 , 70 553 
L 70 551 
L 102 551 
L 102 553 
Q 102 554 , 106 554 
Q 111 554 , 121 554 
Q 132 554 , 136 554 
Q 141 554 , 141 553 
L 141 551 
L 170 551 
L 170 553 
Q 170 554 , 157 554 
" fill="#D21010" stroke="black" stroke-width="1"/>
<path d="
M 115 546 
L 125 546 
L 111 548 
L 129 548 
L 115 546 
M 134 549 
L 102 549 
L 93 551 
L 70 551 
L 106 545 
L 134 545 
L 170 551 
L 143 551 
L 134 549 
" fill="#339541" stroke="black" stroke-width="1"/>
<path d="
M 70 536 
Q 70 531 , 86 529 
Q 102 527 , 133 527 
Q 149 527 , 168 528 
L 168 531 
Q 146 530 , 133 530 
Q 102 530 , 102 536 
Q 102 539 , 110 540 
Q 118 542 , 133 542 
Q 146 542 , 170 540 
L 170 543 
Q 151 544 , 133 544 
Q 102 544 , 86 542 
Q 70 540 , 70 536 
" fill="#545FFF" stroke="black" stroke-width="1"/>
<path d="
M 141 466 
L 141 359 
L 108 359 
L 108 304 
L 170 304 
L 170 504 
Q 148 527 , 128 527 
Q 99 527 , 84 482 
Q 70 438 , 70 345 
Q 70 252 , 84 207 
Q 99 163 , 130 163 
Q 143 163 , 163 177 
L 163 238 
Q 143 218 , 130 218 
Q 114 218 , 105 247 
Q 97 276 , 97 345 
Q 97 471 , 128 471 
Q 137 471 , 141 466 
" fill="#F5C000" stroke="black" stroke-width="1"/>
<path d="
M 262 554 
Q 250 554 , 226 554 
Q 202 554 , 188 554 
Q 175 554 , 175 553 
L 175 551 
L 207 551 
L 207 553 
Q 207 554 , 211 554 
Q 216 554 , 226 554 
Q 237 554 , 241 554 
Q 246 554 , 246 553 
L 246 551 
L 275 551 
L 275 553 
Q 275 554 , 262 554 
" fill="#D21010" stroke="black" stroke-width="1"/>
<path d="
M 220 544 
L 230 544 
L 216 548 
L 234 548 
L 220 544 
M 239 549 
L 207 549 
L 198 551 
L 175 551 
L 211 543 
L 239 543 
L 275 551 
L 248 551 
L 239 549 
" fill="#339541" stroke="black" stroke-width="1"/>
<path d="
M 175 538 
Q 175 535 , 191 534 
Q 207 533 , 238 533 
Q 254 533 , 273 533 
L 273 535 
Q 251 535 , 238 535 
Q 207 535 , 207 538 
Q 207 540 , 215 540 
Q 223 541 , 238 541 
Q 251 541 , 275 541 
L 275 542 
Q 256 543 , 238 543 
Q 207 543 , 191 542 
Q 175 541 , 175 538 
" fill="#545FFF" stroke="black" stroke-width="1"/>
<path d="
M 246 467 
L 246 353 
L 213 353 
L 213 295 
L 275 295 
L 275 508 
Q 253 532 , 233 532 
Q 204 532 , 189 485 
Q 175 438 , 175 339 
Q 175 240 , 189 193 
Q 204 146 , 235 146 
Q 248 146 , 268 161 
L 268 226 
Q 248 205 , 235 205 
Q 219 205 , 210 235 
Q 202 265 , 202 339 
Q 202 473 , 233 473 
Q 242 473 , 246 467 
" fill="#F5C000" stroke="black" stroke-width="1"/>
<path d="
M 367 554 
Q 355 555 , 331 555 
Q 307 555 , 293 554 
Q 280 554 , 280 553 
L 280 549 
L 312 549 
L 312 553 
Q 312 553 , 316 553 
Q 321 554 , 331 554 
Q 342 554 , 346 553 
Q 351 553 , 351 553 
L 351 549 
L 380 549 
L 380 553 
Q 380 554 , 367 554 
" fill="#D21010" stroke="black" stroke-width="1"/>
<path d="
M 351 547 
L 351 545 
L 318 545 
L 318 543 
L 380 543 
L 380 548 
Q 358 549 , 338 549 
Q 309 549 , 294 547 
Q 280 546 , 280 544 
Q 280 542 , 294 541 
Q 309 540 , 340 540 
Q 353 540 , 373 540 
L 373 542 
Q 353 541 , 340 541 
Q 324 541 , 315 542 
Q 307 543 , 307 544 
Q 307 547 , 338 547 
Q 347 547 , 351 547 
" fill="#F5C000" stroke="black" stroke-width="1"/>
<path d="
M 280 521 
Q 280 511 , 296 506 
Q 312 502 , 343 502 
Q 359 502 , 378 504 
L 378 510 
Q 356 508 , 343 508 
Q 312 508 , 312 521 
Q 312 528 , 320 531 
Q 328 534 , 343 534 
Q 356 534 , 380 531 
L 380 538 
Q 361 540 , 343 540 
Q 312 540 , 296 535 
Q 280 531 , 280 521 
" fill="#545FFF" stroke="black" stroke-width="1"/>
<path d="
M 325 318 
L 335 318 
L 321 410 
L 339 410 
L 325 318 
M 344 443 
L 312 443 
L 303 502 
L 280 502 
L 316 285 
L 344 285 
L 380 502 
L 353 502 
L 344 443 
" fill="#339541" stroke="black" stroke-width="1"/>
<path d="M 65 55 L 65 555 " stroke="black" stroke-width="1.5"/>
<path d="M 55 555 L 65 555 " stroke="black" stroke-width="4"/>
<text text-anchor="end" x="50" y="555" font-size="50" alignment-baseline="middle">0</text>
<path d="M 55 305 L 65 305 " stroke="black" stroke-width="4"/>
<text text-anchor="end" x="50" y="305" font-size="50" alignment-baseline="middle">1</text>
<path d="M 55 55 L 65 55 " stroke="black" stroke-width="4"/>
<text text-anchor="end" x="50" y="55" font-size="50" alignment-baseline="middle">2</text>
<text text-anchor="middle" x="225" y="50" font-size="50" alignment-baseline="baseline"></text>
G</svg>
