<svg xmlns="http://www.w3.org/2000/svg"
viewBox="0 0 1330 635">
<path d="
M 70 553 
L 88 553 
L 88 554 
Q 88 554 , 96 554 
Q 103 554 , 120 554 
Q 137 554 , 145 554 
Q 152 554 , 152 554 
L 152 553 
L 170 553 
L 170 554 
Q 170 554 , 157 554 
Q 145 554 , 120 554 
Q 96 554 , 83 554 
Q 70 554 , 70 554 
L 70 553 
" fill="#D21010" />
<path d="
M 120 551 
L 102 552 
L 136 552 
L 120 551 
M 113 551 
L 127 551 
L 170 553 
L 154 553 
L 142 552 
L 98 552 
L 85 553 
L 70 553 
L 113 551 
" fill="#339541" />
<path d="
M 170 549 
L 170 550 
Q 155 549 , 147 549 
Q 139 549 , 129 549 
Q 108 549 , 98 549 
Q 86 550 , 86 550 
Q 86 550 , 98 551 
Q 108 551 , 129 551 
Q 139 551 , 147 551 
Q 155 551 , 170 550 
L 170 551 
Q 159 551 , 149 551 
Q 139 551 , 128 551 
Q 101 551 , 86 551 
Q 70 550 , 70 550 
Q 70 550 , 86 549 
Q 101 549 , 128 549 
Q 139 549 , 149 549 
Q 160 549 , 170 549 
" fill="#545FFF" />
<path d="
M 154 548 
L 154 547 
L 125 547 
L 125 547 
L 170 547 
L 170 548 
Q 159 548 , 148 548 
Q 139 549 , 127 549 
Q 101 549 , 85 548 
Q 70 548 , 70 547 
Q 70 547 , 85 546 
Q 101 546 , 127 546 
Q 138 546 , 147 546 
Q 157 546 , 167 546 
L 167 547 
Q 154 546 , 146 546 
Q 137 546 , 128 546 
Q 107 546 , 96 547 
Q 86 547 , 86 547 
Q 86 548 , 96 548 
Q 107 548 , 128 548 
Q 137 548 , 144 548 
Q 151 548 , 154 548 
" fill="#F5C000" />
<path d="
M 225 549 
L 207 552 
L 241 552 
L 225 549 
M 218 548 
L 232 548 
L 275 555 
L 259 555 
L 247 553 
L 203 553 
L 190 555 
L 175 555 
L 218 548 
" fill="#339541" />
<path d="
M 175 534 
L 193 534 
L 193 542 
Q 193 544 , 201 545 
Q 208 546 , 225 546 
Q 242 546 , 250 545 
Q 257 544 , 257 542 
L 257 534 
L 275 534 
L 275 542 
Q 275 545 , 262 546 
Q 250 547 , 225 547 
Q 201 547 , 188 546 
Q 175 545 , 175 542 
L 175 534 
" fill="#D21010" />
<path d="
M 275 503 
L 275 508 
Q 260 505 , 252 504 
Q 244 503 , 234 503 
Q 213 503 , 203 506 
Q 191 510 , 191 516 
Q 191 523 , 203 526 
Q 213 530 , 234 530 
Q 244 530 , 252 529 
Q 260 528 , 275 524 
L 275 530 
Q 264 532 , 254 532 
Q 244 533 , 233 533 
Q 206 533 , 191 529 
Q 175 524 , 175 516 
Q 175 508 , 191 504 
Q 206 499 , 233 499 
Q 244 499 , 254 500 
Q 265 501 , 275 503 
" fill="#545FFF" />
<path d="
M 259 475 
L 259 431 
L 230 431 
L 230 413 
L 275 413 
L 275 486 
Q 264 493 , 253 496 
Q 244 499 , 232 499 
Q 206 499 , 190 477 
Q 175 455 , 175 417 
Q 175 378 , 190 356 
Q 206 334 , 232 334 
Q 243 334 , 252 337 
Q 262 340 , 272 347 
L 272 368 
Q 259 359 , 251 356 
Q 242 354 , 233 354 
Q 212 354 , 201 369 
Q 191 385 , 191 417 
Q 191 449 , 201 465 
Q 212 480 , 233 480 
Q 242 480 , 249 479 
Q 256 477 , 259 475 
" fill="#F5C000" />
<path d="
M 280 552 
L 298 552 
L 298 553 
Q 298 554 , 306 554 
Q 313 554 , 330 554 
Q 347 554 , 355 554 
Q 362 554 , 362 553 
L 362 552 
L 380 552 
L 380 554 
Q 380 554 , 367 554 
Q 355 555 , 330 555 
Q 306 555 , 293 554 
Q 280 554 , 280 554 
L 280 552 
" fill="#D21010" />
<path d="
M 380 535 
L 380 538 
Q 365 536 , 357 536 
Q 349 535 , 339 535 
Q 318 535 , 308 537 
Q 296 539 , 296 542 
Q 296 546 , 308 548 
Q 318 550 , 339 550 
Q 349 550 , 357 549 
Q 365 549 , 380 547 
L 380 550 
Q 369 551 , 359 551 
Q 349 552 , 338 552 
Q 311 552 , 296 549 
Q 280 547 , 280 542 
Q 280 538 , 296 536 
Q 311 533 , 338 533 
Q 349 533 , 359 533 
Q 370 534 , 380 535 
" fill="#545FFF" />
<path d="
M 330 502 
L 312 517 
L 346 517 
L 330 502 
M 323 495 
L 337 495 
L 380 532 
L 364 532 
L 352 521 
L 308 521 
L 295 532 
L 280 532 
L 323 495 
" fill="#339541" />
<path d="
M 364 475 
L 364 441 
L 335 441 
L 335 426 
L 380 426 
L 380 484 
Q 369 490 , 358 492 
Q 349 494 , 337 494 
Q 311 494 , 295 477 
Q 280 459 , 280 429 
Q 280 399 , 295 381 
Q 311 364 , 337 364 
Q 348 364 , 357 366 
Q 367 369 , 377 375 
L 377 391 
Q 364 384 , 356 382 
Q 347 380 , 338 380 
Q 317 380 , 306 392 
Q 296 404 , 296 429 
Q 296 455 , 306 467 
Q 317 480 , 338 480 
Q 347 480 , 354 478 
Q 361 477 , 364 475 
" fill="#F5C000" />
<path d="
M 469 553 
L 469 551 
L 440 551 
L 440 550 
L 485 550 
L 485 554 
Q 474 554 , 463 555 
Q 454 555 , 442 555 
Q 416 555 , 400 554 
Q 385 552 , 385 550 
Q 385 548 , 400 547 
Q 416 546 , 442 546 
Q 453 546 , 462 546 
Q 472 546 , 482 547 
L 482 548 
Q 469 547 , 461 547 
Q 452 547 , 443 547 
Q 422 547 , 411 548 
Q 401 549 , 401 550 
Q 401 552 , 411 553 
Q 422 554 , 443 554 
Q 452 554 , 459 554 
Q 466 554 , 469 553 
" fill="#F5C000" />
<path d="
M 385 536 
L 403 536 
L 403 542 
Q 403 543 , 411 544 
Q 418 544 , 435 544 
Q 452 544 , 460 544 
Q 467 543 , 467 542 
L 467 536 
L 485 536 
L 485 542 
Q 485 544 , 472 544 
Q 460 545 , 435 545 
Q 411 545 , 398 544 
Q 385 544 , 385 542 
L 385 536 
" fill="#D21010" />
<path d="
M 485 506 
L 485 511 
Q 470 507 , 462 507 
Q 454 506 , 444 506 
Q 423 506 , 413 509 
Q 401 512 , 401 518 
Q 401 525 , 413 528 
Q 423 532 , 444 532 
Q 454 532 , 462 531 
Q 470 530 , 485 526 
L 485 532 
Q 474 534 , 464 534 
Q 454 535 , 443 535 
Q 416 535 , 401 531 
Q 385 526 , 385 519 
Q 385 511 , 401 507 
Q 416 502 , 443 502 
Q 454 502 , 464 503 
Q 475 504 , 485 506 
" fill="#545FFF" />
<path d="
M 435 440 
L 417 471 
L 451 471 
L 435 440 
M 428 426 
L 442 426 
L 485 502 
L 469 502 
L 457 480 
L 413 480 
L 400 502 
L 385 502 
L 428 426 
" fill="#339541" />
<path d="
M 490 548 
L 508 548 
L 508 552 
Q 508 553 , 516 553 
Q 523 554 , 540 554 
Q 557 554 , 565 553 
Q 572 553 , 572 552 
L 572 548 
L 590 548 
L 590 552 
Q 590 553 , 577 554 
Q 565 554 , 540 554 
Q 516 554 , 503 554 
Q 490 553 , 490 552 
L 490 548 
" fill="#D21010" />
<path d="
M 540 541 
L 522 544 
L 556 544 
L 540 541 
M 533 539 
L 547 539 
L 590 547 
L 574 547 
L 562 545 
L 518 545 
L 505 547 
L 490 547 
L 533 539 
" fill="#339541" />
<path d="
M 590 496 
L 590 503 
Q 575 499 , 567 497 
Q 559 496 , 549 496 
Q 528 496 , 518 501 
Q 506 505 , 506 514 
Q 506 524 , 518 528 
Q 528 533 , 549 533 
Q 559 533 , 567 532 
Q 575 531 , 590 526 
L 590 533 
Q 579 536 , 569 537 
Q 559 538 , 548 538 
Q 521 538 , 506 532 
Q 490 525 , 490 515 
Q 490 504 , 506 497 
Q 521 491 , 548 491 
Q 559 491 , 569 492 
Q 580 493 , 590 496 
" fill="#545FFF" />
<path d="
M 574 473 
L 574 440 
L 545 440 
L 545 426 
L 590 426 
L 590 481 
Q 579 487 , 568 489 
Q 559 491 , 547 491 
Q 521 491 , 505 474 
Q 490 458 , 490 429 
Q 490 400 , 505 384 
Q 521 367 , 547 367 
Q 558 367 , 567 369 
Q 577 371 , 587 377 
L 587 393 
Q 574 386 , 566 384 
Q 557 382 , 548 382 
Q 527 382 , 516 393 
Q 506 405 , 506 429 
Q 506 453 , 516 465 
Q 527 477 , 548 477 
Q 557 477 , 564 476 
Q 571 475 , 574 473 
" fill="#F5C000" />
<path d="
M 595 552 
L 613 552 
L 613 554 
Q 613 554 , 621 554 
Q 628 555 , 645 555 
Q 662 555 , 670 554 
Q 677 554 , 677 554 
L 677 552 
L 695 552 
L 695 554 
Q 695 554 , 682 555 
Q 670 555 , 645 555 
Q 621 555 , 608 555 
Q 595 554 , 595 554 
L 595 552 
" fill="#D21010" />
<path d="
M 645 540 
L 627 546 
L 661 546 
L 645 540 
M 638 537 
L 652 537 
L 695 551 
L 679 551 
L 667 547 
L 623 547 
L 610 551 
L 595 551 
L 638 537 
" fill="#339541" />
<path d="
M 695 506 
L 695 511 
Q 680 508 , 672 507 
Q 664 506 , 654 506 
Q 633 506 , 623 509 
Q 611 513 , 611 519 
Q 611 526 , 623 529 
Q 633 533 , 654 533 
Q 664 533 , 672 532 
Q 680 531 , 695 528 
L 695 533 
Q 684 535 , 674 536 
Q 664 537 , 653 537 
Q 626 537 , 611 532 
Q 595 527 , 595 519 
Q 595 511 , 611 507 
Q 626 502 , 653 502 
Q 664 502 , 674 503 
Q 685 504 , 695 506 
" fill="#545FFF" />
<path d="
M 679 495 
L 679 485 
L 650 485 
L 650 480 
L 695 480 
L 695 498 
Q 684 500 , 673 500 
Q 664 501 , 652 501 
Q 626 501 , 610 496 
Q 595 490 , 595 481 
Q 595 472 , 610 466 
Q 626 461 , 652 461 
Q 663 461 , 672 462 
Q 682 462 , 692 464 
L 692 469 
Q 679 467 , 671 466 
Q 662 466 , 653 466 
Q 632 466 , 621 470 
Q 611 473 , 611 481 
Q 611 489 , 621 493 
Q 632 497 , 653 497 
Q 662 497 , 669 496 
Q 676 496 , 679 495 
" fill="#F5C000" />
<path d="
M 784 554 
L 784 552 
L 755 552 
L 755 552 
L 800 552 
L 800 554 
Q 789 554 , 778 554 
Q 769 554 , 757 554 
Q 731 554 , 715 554 
Q 700 553 , 700 552 
Q 700 551 , 715 551 
Q 731 550 , 757 550 
Q 768 550 , 777 550 
Q 787 550 , 797 550 
L 797 551 
Q 784 551 , 776 551 
Q 767 551 , 758 551 
Q 737 551 , 726 551 
Q 716 551 , 716 552 
Q 716 553 , 726 553 
Q 737 554 , 758 554 
Q 767 554 , 774 554 
Q 781 554 , 784 554 
" fill="#F5C000" />
<path d="
M 800 542 
L 800 543 
Q 785 542 , 777 542 
Q 769 542 , 759 542 
Q 738 542 , 728 543 
Q 716 544 , 716 545 
Q 716 547 , 728 548 
Q 738 549 , 759 549 
Q 769 549 , 777 548 
Q 785 548 , 800 547 
L 800 549 
Q 789 549 , 779 549 
Q 769 549 , 758 549 
Q 731 549 , 716 548 
Q 700 547 , 700 545 
Q 700 543 , 716 542 
Q 731 541 , 758 541 
Q 769 541 , 779 541 
Q 790 541 , 800 542 
" fill="#545FFF" />
<path d="
M 700 524 
L 718 524 
L 718 534 
Q 718 536 , 726 537 
Q 733 539 , 750 539 
Q 767 539 , 775 537 
Q 782 536 , 782 534 
L 782 524 
L 800 524 
L 800 534 
Q 800 537 , 787 539 
Q 775 540 , 750 540 
Q 726 540 , 713 539 
Q 700 537 , 700 534 
L 700 524 
" fill="#D21010" />
<path d="
M 750 508 
L 732 516 
L 766 516 
L 750 508 
M 743 505 
L 757 505 
L 800 524 
L 784 524 
L 772 518 
L 728 518 
L 715 524 
L 700 524 
L 743 505 
" fill="#339541" />
<path d="
M 805 550 
L 823 550 
L 823 553 
Q 823 553 , 831 554 
Q 838 554 , 855 554 
Q 872 554 , 880 554 
Q 887 553 , 887 553 
L 887 550 
L 905 550 
L 905 553 
Q 905 554 , 892 554 
Q 880 555 , 855 555 
Q 831 555 , 818 554 
Q 805 554 , 805 553 
L 805 550 
" fill="#D21010" />
<path d="
M 855 536 
L 837 543 
L 871 543 
L 855 536 
M 848 533 
L 862 533 
L 905 549 
L 889 549 
L 877 545 
L 833 545 
L 820 549 
L 805 549 
L 848 533 
" fill="#339541" />
<path d="
M 905 518 
L 905 520 
Q 890 519 , 882 518 
Q 874 518 , 864 518 
Q 843 518 , 833 519 
Q 821 521 , 821 524 
Q 821 527 , 833 529 
Q 843 531 , 864 531 
Q 874 531 , 882 530 
Q 890 530 , 905 528 
L 905 531 
Q 894 532 , 884 532 
Q 874 533 , 863 533 
Q 836 533 , 821 530 
Q 805 528 , 805 524 
Q 805 520 , 821 518 
Q 836 516 , 863 516 
Q 874 516 , 884 516 
Q 895 517 , 905 518 
" fill="#545FFF" />
<path d="
M 889 473 
L 889 394 
L 860 394 
L 860 361 
L 905 361 
L 905 493 
Q 894 505 , 883 510 
Q 874 515 , 862 515 
Q 836 515 , 820 476 
Q 805 437 , 805 368 
Q 805 299 , 820 260 
Q 836 220 , 862 220 
Q 873 220 , 882 225 
Q 892 231 , 902 244 
L 902 282 
Q 889 265 , 881 260 
Q 872 255 , 863 255 
Q 842 255 , 831 283 
Q 821 311 , 821 368 
Q 821 426 , 831 455 
Q 842 483 , 863 483 
Q 872 483 , 879 480 
Q 886 477 , 889 473 
" fill="#F5C000" />
<path d="
M 910 550 
L 928 550 
L 928 552 
Q 928 553 , 936 553 
Q 943 554 , 960 554 
Q 977 554 , 985 553 
Q 992 553 , 992 552 
L 992 550 
L 1010 550 
L 1010 552 
Q 1010 553 , 997 554 
Q 985 554 , 960 554 
Q 936 554 , 923 554 
Q 910 553 , 910 552 
L 910 550 
" fill="#D21010" />
<path d="
M 1010 529 
L 1010 533 
Q 995 531 , 987 530 
Q 979 529 , 969 529 
Q 948 529 , 938 532 
Q 926 534 , 926 538 
Q 926 542 , 938 545 
Q 948 547 , 969 547 
Q 979 547 , 987 546 
Q 995 546 , 1010 543 
L 1010 547 
Q 999 548 , 989 549 
Q 979 549 , 968 549 
Q 941 549 , 926 546 
Q 910 543 , 910 538 
Q 910 533 , 926 530 
Q 941 527 , 968 527 
Q 979 527 , 989 528 
Q 1000 528 , 1010 529 
" fill="#545FFF" />
<path d="
M 960 503 
L 942 515 
L 976 515 
L 960 503 
M 953 498 
L 967 498 
L 1010 526 
L 994 526 
L 982 518 
L 938 518 
L 925 526 
L 910 526 
L 953 498 
" fill="#339541" />
<path d="
M 994 478 
L 994 443 
L 965 443 
L 965 429 
L 1010 429 
L 1010 487 
Q 999 493 , 988 495 
Q 979 497 , 967 497 
Q 941 497 , 925 479 
Q 910 462 , 910 432 
Q 910 401 , 925 384 
Q 941 366 , 967 366 
Q 978 366 , 987 368 
Q 997 371 , 1007 377 
L 1007 393 
Q 994 386 , 986 384 
Q 977 382 , 968 382 
Q 947 382 , 936 394 
Q 926 406 , 926 432 
Q 926 457 , 936 470 
Q 947 482 , 968 482 
Q 977 482 , 984 481 
Q 991 480 , 994 478 
" fill="#F5C000" />
<path d="
M 1015 547 
L 1033 547 
L 1033 551 
Q 1033 552 , 1041 553 
Q 1048 553 , 1065 553 
Q 1082 553 , 1090 553 
Q 1097 552 , 1097 551 
L 1097 547 
L 1115 547 
L 1115 551 
Q 1115 553 , 1102 553 
Q 1090 554 , 1065 554 
Q 1041 554 , 1028 553 
Q 1015 553 , 1015 551 
L 1015 547 
" fill="#D21010" />
<path d="
M 1099 545 
L 1099 541 
L 1070 541 
L 1070 540 
L 1115 540 
L 1115 546 
Q 1104 546 , 1093 547 
Q 1084 547 , 1072 547 
Q 1046 547 , 1030 545 
Q 1015 543 , 1015 540 
Q 1015 537 , 1030 536 
Q 1046 534 , 1072 534 
Q 1083 534 , 1092 534 
Q 1102 534 , 1112 535 
L 1112 537 
Q 1099 536 , 1091 536 
Q 1082 536 , 1073 536 
Q 1052 536 , 1041 537 
Q 1031 538 , 1031 540 
Q 1031 543 , 1041 544 
Q 1052 545 , 1073 545 
Q 1082 545 , 1089 545 
Q 1096 545 , 1099 545 
" fill="#F5C000" />
<path d="
M 1115 517 
L 1115 520 
Q 1100 518 , 1092 517 
Q 1084 517 , 1074 517 
Q 1053 517 , 1043 519 
Q 1031 521 , 1031 524 
Q 1031 527 , 1043 529 
Q 1053 531 , 1074 531 
Q 1084 531 , 1092 531 
Q 1100 530 , 1115 528 
L 1115 531 
Q 1104 532 , 1094 533 
Q 1084 533 , 1073 533 
Q 1046 533 , 1031 531 
Q 1015 528 , 1015 524 
Q 1015 520 , 1031 517 
Q 1046 515 , 1073 515 
Q 1084 515 , 1094 515 
Q 1105 516 , 1115 517 
" fill="#545FFF" />
<path d="
M 1065 477 
L 1047 496 
L 1081 496 
L 1065 477 
M 1058 468 
L 1072 468 
L 1115 515 
L 1099 515 
L 1087 501 
L 1043 501 
L 1030 515 
L 1015 515 
L 1058 468 
" fill="#339541" />
<path d="
M 1120 551 
L 1138 551 
L 1138 553 
Q 1138 554 , 1146 554 
Q 1153 554 , 1170 554 
Q 1187 554 , 1195 554 
Q 1202 554 , 1202 553 
L 1202 551 
L 1220 551 
L 1220 553 
Q 1220 554 , 1207 554 
Q 1195 555 , 1170 555 
Q 1146 555 , 1133 554 
Q 1120 554 , 1120 553 
L 1120 551 
" fill="#D21010" />
<path d="
M 1170 539 
L 1152 545 
L 1186 545 
L 1170 539 
M 1163 537 
L 1177 537 
L 1220 550 
L 1204 550 
L 1192 546 
L 1148 546 
L 1135 550 
L 1120 550 
L 1163 537 
" fill="#339541" />
<path d="
M 1220 511 
L 1220 515 
Q 1205 513 , 1197 512 
Q 1189 511 , 1179 511 
Q 1158 511 , 1148 514 
Q 1136 517 , 1136 522 
Q 1136 528 , 1148 531 
Q 1158 533 , 1179 533 
Q 1189 533 , 1197 533 
Q 1205 532 , 1220 529 
L 1220 533 
Q 1209 535 , 1199 536 
Q 1189 536 , 1178 536 
Q 1151 536 , 1136 533 
Q 1120 529 , 1120 522 
Q 1120 516 , 1136 512 
Q 1151 508 , 1178 508 
Q 1189 508 , 1199 509 
Q 1210 509 , 1220 511 
" fill="#545FFF" />
<path d="
M 1204 503 
L 1204 493 
L 1175 493 
L 1175 489 
L 1220 489 
L 1220 505 
Q 1209 506 , 1198 507 
Q 1189 508 , 1177 508 
Q 1151 508 , 1135 503 
Q 1120 498 , 1120 490 
Q 1120 482 , 1135 477 
Q 1151 472 , 1177 472 
Q 1188 472 , 1197 473 
Q 1207 473 , 1217 475 
L 1217 479 
Q 1204 477 , 1196 477 
Q 1187 476 , 1178 476 
Q 1157 476 , 1146 480 
Q 1136 483 , 1136 490 
Q 1136 497 , 1146 500 
Q 1157 504 , 1178 504 
Q 1187 504 , 1194 503 
Q 1201 503 , 1204 503 
" fill="#F5C000" />
<path d="
M 1225 553 
L 1243 553 
L 1243 554 
Q 1243 554 , 1251 554 
Q 1258 554 , 1275 554 
Q 1292 554 , 1300 554 
Q 1307 554 , 1307 554 
L 1307 553 
L 1325 553 
L 1325 554 
Q 1325 554 , 1312 554 
Q 1300 554 , 1275 554 
Q 1251 554 , 1238 554 
Q 1225 554 , 1225 554 
L 1225 553 
" fill="#D21010" />
<path d="
M 1275 551 
L 1257 552 
L 1291 552 
L 1275 551 
M 1268 551 
L 1282 551 
L 1325 553 
L 1309 553 
L 1297 552 
L 1253 552 
L 1240 553 
L 1225 553 
L 1268 551 
" fill="#339541" />
<path d="
M 1325 549 
L 1325 550 
Q 1310 549 , 1302 549 
Q 1294 549 , 1284 549 
Q 1263 549 , 1253 549 
Q 1241 550 , 1241 550 
Q 1241 550 , 1253 551 
Q 1263 551 , 1284 551 
Q 1294 551 , 1302 551 
Q 1310 551 , 1325 550 
L 1325 551 
Q 1314 551 , 1304 551 
Q 1294 551 , 1283 551 
Q 1256 551 , 1241 551 
Q 1225 550 , 1225 550 
Q 1225 550 , 1241 549 
Q 1256 549 , 1283 549 
Q 1294 549 , 1304 549 
Q 1315 549 , 1325 549 
" fill="#545FFF" />
<path d="
M 1309 548 
L 1309 547 
L 1280 547 
L 1280 547 
L 1325 547 
L 1325 548 
Q 1314 548 , 1303 548 
Q 1294 549 , 1282 549 
Q 1256 549 , 1240 548 
Q 1225 548 , 1225 547 
Q 1225 547 , 1240 546 
Q 1256 546 , 1282 546 
Q 1293 546 , 1302 546 
Q 1312 546 , 1322 546 
L 1322 547 
Q 1309 546 , 1301 546 
Q 1292 546 , 1283 546 
Q 1262 546 , 1251 547 
Q 1241 547 , 1241 547 
Q 1241 548 , 1251 548 
Q 1262 548 , 1283 548 
Q 1292 548 , 1299 548 
Q 1306 548 , 1309 548 
" fill="#F5C000" />
<path d="M 65 55 L 65 555 " stroke="black" stroke-width="1.5"/>
<path d="M 55 555 L 65 555 " stroke="black" stroke-width="4"/>
<text text-anchor="end" x="50" y="555" font-size="50" alignment-baseline="middle">0</text>
<path d="M 55 305 L 65 305 " stroke="black" stroke-width="4"/>
<text text-anchor="end" x="50" y="305" font-size="50" alignment-baseline="middle">1</text>
<path d="M 55 55 L 65 55 " stroke="black" stroke-width="4"/>
<text text-anchor="end" x="50" y="55" font-size="50" alignment-baseline="middle">2</text>
<text text-anchor="middle" x="697" y="50" font-size="50" alignment-baseline="baseline"></text>
G<path d="
M 160 582 
L 126 595 
L 160 608 
L 157 611 
L 123 598 
L 123 623 
L 117 623 
L 117 599 
L 83 611 
L 80 608 
L 114 595 
L 80 582 
L 83 579 
L 117 591 
L 117 567 
L 123 567 
L 123 591 
L 157 579 
L 160 582 
" fill="black" />
<path d="
" fill="black" />
<path d="
M 211 567 
L 238 567 
L 238 623 
L 211 623 
L 211 567 
" fill="black" />
<path d="
" fill="black" />
<path d="
" fill="black" />
<path d="
M 316 567 
L 343 567 
L 343 623 
L 316 623 
L 316 567 
" fill="black" />
<path d="
" fill="black" />
<path d="
" fill="black" />
<path d="
M 421 567 
L 448 567 
L 448 623 
L 421 623 
L 421 567 
" fill="black" />
<path d="
" fill="black" />
<path d="
" fill="black" />
<path d="
M 526 567 
L 553 567 
L 553 623 
L 526 623 
L 526 567 
" fill="black" />
<path d="
" fill="black" />
<path d="
" fill="black" />
<path d="
M 631 567 
L 658 567 
L 658 623 
L 631 623 
L 631 567 
" fill="black" />
<path d="
" fill="black" />
<path d="
" fill="black" />
<path d="
M 736 567 
L 763 567 
L 763 623 
L 736 623 
L 736 567 
" fill="black" />
<path d="
" fill="black" />
<path d="
" fill="black" />
<path d="
M 841 567 
L 868 567 
L 868 623 
L 841 623 
L 841 567 
" fill="black" />
<path d="
" fill="black" />
<path d="
" fill="black" />
<path d="
M 946 567 
L 973 567 
L 973 623 
L 946 623 
L 946 567 
" fill="black" />
<path d="
" fill="black" />
<path d="
" fill="black" />
<path d="
M 1051 567 
L 1078 567 
L 1078 623 
L 1051 623 
L 1051 567 
" fill="black" />
<path d="
" fill="black" />
<path d="
" fill="black" />
<path d="
M 1156 567 
L 1183 567 
L 1183 623 
L 1156 623 
L 1156 567 
" fill="black" />
<path d="
" fill="black" />
<path d="
M 1315 582 
L 1281 595 
L 1315 608 
L 1312 611 
L 1278 598 
L 1278 623 
L 1272 623 
L 1272 599 
L 1238 611 
L 1235 608 
L 1269 595 
L 1235 582 
L 1238 579 
L 1272 591 
L 1272 567 
L 1278 567 
L 1278 591 
L 1312 579 
L 1315 582 
" fill="black" />
</svg>
