<svg xmlns="http://www.w3.org/2000/svg"
viewBox="0 0 490 615">
<path d="
M 157 554 
Q 145 555 , 121 555 
Q 97 555 , 83 554 
Q 70 554 , 70 554 
L 70 551 
L 102 551 
L 102 554 
Q 102 554 , 106 554 
Q 111 554 , 121 554 
Q 132 554 , 136 554 
Q 141 554 , 141 554 
L 141 551 
L 170 551 
L 170 554 
Q 170 554 , 157 554 
" fill="#D21010" stroke="black" stroke-width="1"/>
<path d="
M 115 546 
L 125 546 
L 111 548 
L 129 548 
L 115 546 
M 134 549 
L 102 549 
L 93 550 
L 70 550 
L 106 545 
L 134 545 
L 170 550 
L 143 550 
L 134 549 
" fill="#339541" stroke="black" stroke-width="1"/>
<path d="
M 70 537 
Q 70 533 , 86 531 
Q 102 529 , 133 529 
Q 149 529 , 168 530 
L 168 532 
Q 146 531 , 133 531 
Q 102 531 , 102 537 
Q 102 540 , 110 541 
Q 118 542 , 133 542 
Q 146 542 , 170 541 
L 170 544 
Q 151 544 , 133 544 
Q 102 544 , 86 542 
Q 70 541 , 70 537 
" fill="#545FFF" stroke="black" stroke-width="1"/>
<path d="
M 141 466 
L 141 357 
L 108 357 
L 108 301 
L 170 301 
L 170 505 
Q 148 528 , 128 528 
Q 99 528 , 84 482 
Q 70 437 , 70 342 
Q 70 248 , 84 202 
Q 99 157 , 130 157 
Q 143 157 , 163 172 
L 163 234 
Q 143 213 , 130 213 
Q 114 213 , 105 242 
Q 97 272 , 97 342 
Q 97 471 , 128 471 
Q 137 471 , 141 466 
" fill="#F5C000" stroke="black" stroke-width="1"/>
<path d="
M 262 554 
Q 250 554 , 226 554 
Q 202 554 , 188 554 
Q 175 554 , 175 554 
L 175 552 
L 207 552 
L 207 554 
Q 207 554 , 211 554 
Q 216 554 , 226 554 
Q 237 554 , 241 554 
Q 246 554 , 246 554 
L 246 552 
L 275 552 
L 275 554 
Q 275 554 , 262 554 
" fill="#D21010" stroke="black" stroke-width="1"/>
<path d="
M 175 546 
Q 175 543 , 191 541 
Q 207 540 , 238 540 
Q 254 540 , 273 541 
L 273 542 
Q 251 542 , 238 542 
Q 207 542 , 207 546 
Q 207 548 , 215 548 
Q 223 549 , 238 549 
Q 251 549 , 275 549 
L 275 551 
Q 256 551 , 238 551 
Q 207 551 , 191 549 
Q 175 548 , 175 546 
" fill="#545FFF" stroke="black" stroke-width="1"/>
<path d="
M 220 528 
L 230 528 
L 216 534 
L 234 534 
L 220 528 
M 239 536 
L 207 536 
L 198 540 
L 175 540 
L 211 526 
L 239 526 
L 275 540 
L 248 540 
L 239 536 
" fill="#339541" stroke="black" stroke-width="1"/>
<path d="
M 246 465 
L 246 360 
L 213 360 
L 213 306 
L 275 306 
L 275 503 
Q 253 525 , 233 525 
Q 204 525 , 189 481 
Q 175 438 , 175 346 
Q 175 255 , 189 211 
Q 204 168 , 235 168 
Q 248 168 , 268 182 
L 268 242 
Q 248 222 , 235 222 
Q 219 222 , 210 250 
Q 202 278 , 202 346 
Q 202 471 , 233 471 
Q 242 471 , 246 465 
" fill="#F5C000" stroke="black" stroke-width="1"/>
<path d="
M 367 555 
Q 355 555 , 331 555 
Q 307 555 , 293 555 
Q 280 555 , 280 554 
L 280 552 
L 312 552 
L 312 554 
Q 312 554 , 316 554 
Q 321 555 , 331 555 
Q 342 555 , 346 554 
Q 351 554 , 351 554 
L 351 552 
L 380 552 
L 380 554 
Q 380 555 , 367 555 
" fill="#D21010" stroke="black" stroke-width="1"/>
<path d="
M 351 550 
L 351 547 
L 318 547 
L 318 546 
L 380 546 
L 380 551 
Q 358 551 , 338 551 
Q 309 551 , 294 550 
Q 280 549 , 280 547 
Q 280 544 , 294 543 
Q 309 542 , 340 542 
Q 353 542 , 373 542 
L 373 544 
Q 353 543 , 340 543 
Q 324 543 , 315 544 
Q 307 545 , 307 547 
Q 307 550 , 338 550 
Q 347 550 , 351 550 
" fill="#F5C000" stroke="black" stroke-width="1"/>
<path d="
M 280 516 
Q 280 503 , 296 497 
Q 312 491 , 343 491 
Q 359 491 , 378 493 
L 378 502 
Q 356 499 , 343 499 
Q 312 499 , 312 516 
Q 312 526 , 320 529 
Q 328 533 , 343 533 
Q 356 533 , 380 530 
L 380 539 
Q 361 541 , 343 541 
Q 312 541 , 296 535 
Q 280 529 , 280 516 
" fill="#545FFF" stroke="black" stroke-width="1"/>
<path d="
M 325 346 
L 335 346 
L 321 418 
L 339 418 
L 325 346 
M 344 445 
L 312 445 
L 303 490 
L 280 490 
L 316 320 
L 344 320 
L 380 490 
L 353 490 
L 344 445 
" fill="#339541" stroke="black" stroke-width="1"/>
<path d="
M 472 553 
Q 460 554 , 436 554 
Q 412 554 , 398 553 
Q 385 553 , 385 553 
L 385 549 
L 417 549 
L 417 552 
Q 417 553 , 421 553 
Q 426 553 , 436 553 
Q 447 553 , 451 553 
Q 456 553 , 456 552 
L 456 549 
L 485 549 
L 485 553 
Q 485 553 , 472 553 
" fill="#D21010" stroke="black" stroke-width="1"/>
<path d="
M 430 540 
L 440 540 
L 426 544 
L 444 544 
L 430 540 
M 449 545 
L 417 545 
L 408 548 
L 385 548 
L 421 538 
L 449 538 
L 485 548 
L 458 548 
L 449 545 
" fill="#339541" stroke="black" stroke-width="1"/>
<path d="
M 456 531 
L 456 519 
L 423 519 
L 423 513 
L 485 513 
L 485 535 
Q 463 538 , 443 538 
Q 414 538 , 399 533 
Q 385 528 , 385 518 
Q 385 508 , 399 503 
Q 414 498 , 445 498 
Q 458 498 , 478 500 
L 478 506 
Q 458 504 , 445 504 
Q 429 504 , 420 507 
Q 412 510 , 412 518 
Q 412 532 , 443 532 
Q 452 532 , 456 531 
" fill="#F5C000" stroke="black" stroke-width="1"/>
<path d="
M 385 474 
Q 385 462 , 401 456 
Q 417 450 , 448 450 
Q 464 450 , 483 452 
L 483 460 
Q 461 457 , 448 457 
Q 417 457 , 417 474 
Q 417 483 , 425 486 
Q 433 490 , 448 490 
Q 461 490 , 485 487 
L 485 495 
Q 466 498 , 448 498 
Q 417 498 , 401 492 
Q 385 486 , 385 474 
" fill="#545FFF" stroke="black" stroke-width="1"/>
<path d="M 65 55 L 65 555 " stroke="black" stroke-width="1.5"/>
<path d="M 55 555 L 65 555 " stroke="black" stroke-width="4"/>
<text text-anchor="end" x="50" y="555" font-size="50" alignment-baseline="middle">0</text>
<path d="M 55 305 L 65 305 " stroke="black" stroke-width="4"/>
<text text-anchor="end" x="50" y="305" font-size="50" alignment-baseline="middle">1</text>
<path d="M 55 55 L 65 55 " stroke="black" stroke-width="4"/>
<text text-anchor="end" x="50" y="55" font-size="50" alignment-baseline="middle">2</text>
<text text-anchor="middle" x="277" y="50" font-size="50" alignment-baseline="baseline"></text>
G</svg>
