<svg xmlns="http://www.w3.org/2000/svg"
viewBox="0 0 1435 635">
<path d="
M 70 553 
L 88 553 
L 88 554 
Q 88 554 , 96 554 
Q 103 555 , 120 555 
Q 137 555 , 145 554 
Q 152 554 , 152 554 
L 152 553 
L 170 553 
L 170 554 
Q 170 554 , 157 555 
Q 145 555 , 120 555 
Q 96 555 , 83 555 
Q 70 554 , 70 554 
L 70 553 
" fill="#D21010" />
<path d="
M 120 551 
L 102 552 
L 136 552 
L 120 551 
M 113 551 
L 127 551 
L 170 553 
L 154 553 
L 142 552 
L 98 552 
L 85 553 
L 70 553 
L 113 551 
" fill="#339541" />
<path d="
M 170 547 
L 170 548 
Q 155 548 , 147 547 
Q 139 547 , 129 547 
Q 108 547 , 98 548 
Q 86 548 , 86 548 
Q 86 549 , 98 549 
Q 108 550 , 129 550 
Q 139 550 , 147 550 
Q 155 550 , 170 549 
L 170 550 
Q 159 550 , 149 550 
Q 139 550 , 128 550 
Q 101 550 , 86 550 
Q 70 549 , 70 549 
Q 70 548 , 86 547 
Q 101 547 , 128 547 
Q 139 547 , 149 547 
Q 160 547 , 170 547 
" fill="#545FFF" />
<path d="
M 154 546 
L 154 545 
L 125 545 
L 125 545 
L 170 545 
L 170 546 
Q 159 546 , 148 546 
Q 139 546 , 127 546 
Q 101 546 , 85 546 
Q 70 545 , 70 545 
Q 70 544 , 85 543 
Q 101 543 , 127 543 
Q 138 543 , 147 543 
Q 157 543 , 167 543 
L 167 544 
Q 154 544 , 146 543 
Q 137 543 , 128 543 
Q 107 543 , 96 544 
Q 86 544 , 86 545 
Q 86 545 , 96 546 
Q 107 546 , 128 546 
Q 137 546 , 144 546 
Q 151 546 , 154 546 
" fill="#F5C000" />
<path d="
M 225 549 
L 207 552 
L 241 552 
L 225 549 
M 218 548 
L 232 548 
L 275 555 
L 259 555 
L 247 553 
L 203 553 
L 190 555 
L 175 555 
L 218 548 
" fill="#339541" />
<path d="
M 175 534 
L 193 534 
L 193 542 
Q 193 544 , 201 545 
Q 208 546 , 225 546 
Q 242 546 , 250 545 
Q 257 544 , 257 542 
L 257 534 
L 275 534 
L 275 542 
Q 275 545 , 262 546 
Q 250 548 , 225 548 
Q 201 548 , 188 546 
Q 175 545 , 175 542 
L 175 534 
" fill="#D21010" />
<path d="
M 275 519 
L 275 521 
Q 260 520 , 252 519 
Q 244 519 , 234 519 
Q 213 519 , 203 520 
Q 191 522 , 191 525 
Q 191 528 , 203 530 
Q 213 532 , 234 532 
Q 244 532 , 252 531 
Q 260 531 , 275 529 
L 275 532 
Q 264 533 , 254 533 
Q 244 533 , 233 533 
Q 206 533 , 191 531 
Q 175 529 , 175 525 
Q 175 521 , 191 519 
Q 206 517 , 233 517 
Q 244 517 , 254 517 
Q 265 518 , 275 519 
" fill="#545FFF" />
<path d="
M 259 493 
L 259 449 
L 230 449 
L 230 431 
L 275 431 
L 275 504 
Q 264 511 , 253 513 
Q 244 516 , 232 516 
Q 206 516 , 190 494 
Q 175 473 , 175 434 
Q 175 396 , 190 374 
Q 206 352 , 232 352 
Q 243 352 , 252 355 
Q 262 358 , 272 365 
L 272 386 
Q 259 377 , 251 374 
Q 242 372 , 233 372 
Q 212 372 , 201 387 
Q 191 402 , 191 434 
Q 191 467 , 201 482 
Q 212 498 , 233 498 
Q 242 498 , 249 496 
Q 256 495 , 259 493 
" fill="#F5C000" />
<path d="
M 280 552 
L 298 552 
L 298 554 
Q 298 554 , 306 554 
Q 313 554 , 330 554 
Q 347 554 , 355 554 
Q 362 554 , 362 554 
L 362 552 
L 380 552 
L 380 554 
Q 380 554 , 367 554 
Q 355 555 , 330 555 
Q 306 555 , 293 554 
Q 280 554 , 280 554 
L 280 552 
" fill="#D21010" />
<path d="
M 330 546 
L 312 549 
L 346 549 
L 330 546 
M 323 545 
L 337 545 
L 380 551 
L 364 551 
L 352 549 
L 308 549 
L 295 551 
L 280 551 
L 323 545 
" fill="#339541" />
<path d="
M 364 538 
L 364 525 
L 335 525 
L 335 520 
L 380 520 
L 380 541 
Q 369 543 , 358 544 
Q 349 544 , 337 544 
Q 311 544 , 295 538 
Q 280 532 , 280 521 
Q 280 510 , 295 503 
Q 311 497 , 337 497 
Q 348 497 , 357 498 
Q 367 499 , 377 501 
L 377 507 
Q 364 504 , 356 503 
Q 347 503 , 338 503 
Q 317 503 , 306 507 
Q 296 512 , 296 521 
Q 296 530 , 306 535 
Q 317 539 , 338 539 
Q 347 539 , 354 539 
Q 361 538 , 364 538 
" fill="#F5C000" />
<path d="
M 380 424 
L 380 436 
Q 365 428 , 357 426 
Q 349 424 , 339 424 
Q 318 424 , 308 432 
Q 296 440 , 296 456 
Q 296 472 , 308 480 
Q 318 488 , 339 488 
Q 349 488 , 357 486 
Q 365 484 , 380 476 
L 380 488 
Q 369 493 , 359 495 
Q 349 497 , 338 497 
Q 311 497 , 296 486 
Q 280 475 , 280 456 
Q 280 437 , 296 426 
Q 311 415 , 338 415 
Q 349 415 , 359 417 
Q 370 419 , 380 424 
" fill="#545FFF" />
<path d="
M 469 554 
L 469 553 
L 440 553 
L 440 553 
L 485 553 
L 485 554 
Q 474 555 , 463 555 
Q 454 555 , 442 555 
Q 416 555 , 400 554 
Q 385 554 , 385 553 
Q 385 552 , 400 552 
Q 416 551 , 442 551 
Q 453 551 , 462 551 
Q 472 551 , 482 551 
L 482 552 
Q 469 552 , 461 552 
Q 452 551 , 443 551 
Q 422 551 , 411 552 
Q 401 552 , 401 553 
Q 401 554 , 411 554 
Q 422 554 , 443 554 
Q 452 554 , 459 554 
Q 466 554 , 469 554 
" fill="#F5C000" />
<path d="
M 385 539 
L 403 539 
L 403 546 
Q 403 548 , 411 548 
Q 418 549 , 435 549 
Q 452 549 , 460 548 
Q 467 548 , 467 546 
L 467 539 
L 485 539 
L 485 546 
Q 485 548 , 472 549 
Q 460 550 , 435 550 
Q 411 550 , 398 549 
Q 385 548 , 385 546 
L 385 539 
" fill="#D21010" />
<path d="
M 435 526 
L 417 532 
L 451 532 
L 435 526 
M 428 523 
L 442 523 
L 485 539 
L 469 539 
L 457 534 
L 413 534 
L 400 539 
L 385 539 
L 428 523 
" fill="#339541" />
<path d="
M 485 492 
L 485 497 
Q 470 493 , 462 493 
Q 454 492 , 444 492 
Q 423 492 , 413 495 
Q 401 498 , 401 505 
Q 401 512 , 413 515 
Q 423 518 , 444 518 
Q 454 518 , 462 518 
Q 470 517 , 485 513 
L 485 519 
Q 474 521 , 464 521 
Q 454 522 , 443 522 
Q 416 522 , 401 517 
Q 385 513 , 385 505 
Q 385 497 , 401 493 
Q 416 488 , 443 488 
Q 454 488 , 464 489 
Q 475 490 , 485 492 
" fill="#545FFF" />
<path d="
M 490 552 
L 499 552 
L 499 554 
Q 499 554 , 503 554 
Q 506 554 , 515 554 
Q 524 554 , 527 554 
Q 531 554 , 531 554 
L 531 552 
L 540 552 
L 540 554 
Q 540 554 , 534 554 
Q 527 555 , 515 555 
Q 503 555 , 496 554 
Q 490 554 , 490 554 
L 490 552 
" fill="#D21010" />
<path d="
M 565 552 
L 556 554 
L 573 554 
L 565 552 
M 561 552 
L 569 552 
L 590 555 
L 582 555 
L 576 554 
L 554 554 
L 547 555 
L 540 555 
L 561 552 
" fill="lightgray" />
<path d="
M 490 548 
L 499 548 
L 499 550 
Q 499 551 , 503 551 
Q 506 551 , 515 551 
Q 524 551 , 527 551 
Q 531 551 , 531 550 
L 531 548 
L 540 548 
L 540 550 
Q 540 551 , 534 551 
Q 527 551 , 515 551 
Q 503 551 , 496 551 
Q 490 551 , 490 550 
L 490 548 
" fill="#D21010" />
<path d="
M 582 551 
L 582 550 
L 568 550 
L 568 550 
L 590 550 
L 590 551 
Q 585 551 , 579 551 
Q 574 551 , 568 551 
Q 555 551 , 548 551 
Q 540 550 , 540 550 
Q 540 549 , 548 548 
Q 555 548 , 568 548 
Q 574 548 , 579 548 
Q 584 548 , 589 548 
L 589 549 
Q 582 549 , 578 548 
Q 574 548 , 569 548 
Q 559 548 , 553 549 
Q 548 549 , 548 550 
Q 548 550 , 553 551 
Q 559 551 , 569 551 
Q 574 551 , 577 551 
Q 581 551 , 582 551 
" fill="lightgray" />
<path d="
M 532 546 
L 532 542 
L 518 542 
L 518 541 
L 540 541 
L 540 547 
Q 535 547 , 529 547 
Q 524 548 , 518 548 
Q 505 548 , 498 546 
Q 490 544 , 490 541 
Q 490 538 , 498 537 
Q 505 535 , 518 535 
Q 524 535 , 529 535 
Q 534 535 , 539 536 
L 539 538 
Q 532 537 , 528 537 
Q 524 536 , 519 536 
Q 509 536 , 503 538 
Q 498 539 , 498 541 
Q 498 544 , 503 545 
Q 509 546 , 519 546 
Q 524 546 , 527 546 
Q 531 546 , 532 546 
" fill="#F5C000" />
<path d="
M 540 535 
L 549 535 
L 549 542 
Q 549 544 , 553 545 
Q 556 546 , 565 546 
Q 574 546 , 577 545 
Q 581 544 , 581 542 
L 581 535 
L 590 535 
L 590 543 
Q 590 545 , 584 546 
Q 577 548 , 565 548 
Q 553 548 , 546 546 
Q 540 545 , 540 543 
L 540 535 
" fill="lightgray" />
<path d="
M 540 516 
L 540 519 
Q 533 517 , 529 517 
Q 524 516 , 519 516 
Q 509 516 , 504 518 
Q 498 520 , 498 524 
Q 498 528 , 504 531 
Q 509 533 , 519 533 
Q 524 533 , 529 532 
Q 533 531 , 540 529 
L 540 533 
Q 535 534 , 529 534 
Q 525 535 , 519 535 
Q 505 535 , 498 532 
Q 490 529 , 490 524 
Q 490 520 , 498 517 
Q 505 514 , 519 514 
Q 525 514 , 530 515 
Q 535 515 , 540 516 
" fill="#545FFF" />
<path d="
M 582 532 
L 582 526 
L 568 526 
L 568 524 
L 590 524 
L 590 533 
Q 585 534 , 579 534 
Q 574 535 , 568 535 
Q 555 535 , 548 532 
Q 540 529 , 540 524 
Q 540 520 , 548 517 
Q 555 514 , 568 514 
Q 574 514 , 579 514 
Q 584 515 , 589 516 
L 589 518 
Q 582 517 , 578 517 
Q 574 516 , 569 516 
Q 559 516 , 553 518 
Q 548 520 , 548 524 
Q 548 528 , 553 530 
Q 559 532 , 569 532 
Q 574 532 , 577 532 
Q 581 532 , 582 532 
" fill="lightgray" />
<path d="
M 515 491 
L 506 502 
L 523 502 
L 515 491 
M 511 486 
L 519 486 
L 540 513 
L 532 513 
L 526 505 
L 504 505 
L 497 513 
L 490 513 
L 511 486 
" fill="#339541" />
<path d="
M 540 486 
L 549 486 
L 549 502 
Q 549 507 , 553 508 
Q 556 510 , 565 510 
Q 574 510 , 577 508 
Q 581 507 , 581 502 
L 581 486 
L 590 486 
L 590 502 
Q 590 508 , 584 510 
Q 577 513 , 565 513 
Q 553 513 , 546 510 
Q 540 508 , 540 502 
L 540 486 
" fill="lightgray" />
<path d="
M 532 470 
L 532 440 
L 518 440 
L 518 428 
L 540 428 
L 540 477 
Q 535 482 , 529 484 
Q 524 486 , 518 486 
Q 505 486 , 498 471 
Q 490 456 , 490 430 
Q 490 405 , 498 390 
Q 505 375 , 518 375 
Q 524 375 , 529 377 
Q 534 379 , 539 384 
L 539 398 
Q 532 392 , 528 390 
Q 524 388 , 519 388 
Q 509 388 , 503 399 
Q 498 409 , 498 430 
Q 498 452 , 503 463 
Q 509 473 , 519 473 
Q 524 473 , 527 472 
Q 531 471 , 532 470 
" fill="#F5C000" />
<path d="
M 590 387 
L 590 404 
Q 583 393 , 579 390 
Q 574 387 , 569 387 
Q 559 387 , 554 398 
Q 548 409 , 548 430 
Q 548 452 , 554 463 
Q 559 474 , 569 474 
Q 574 474 , 579 471 
Q 583 468 , 590 457 
L 590 474 
Q 585 481 , 579 483 
Q 575 486 , 569 486 
Q 555 486 , 548 471 
Q 540 456 , 540 430 
Q 540 405 , 548 390 
Q 555 375 , 569 375 
Q 575 375 , 580 378 
Q 585 380 , 590 387 
" fill="lightgray" />
<path d="
M 645 550 
L 627 552 
L 661 552 
L 645 550 
M 638 549 
L 652 549 
L 695 554 
L 679 554 
L 667 553 
L 623 553 
L 610 554 
L 595 554 
L 638 549 
" fill="#339541" />
<path d="
M 595 542 
L 613 542 
L 613 546 
Q 613 547 , 621 547 
Q 628 548 , 645 548 
Q 662 548 , 670 547 
Q 677 547 , 677 546 
L 677 542 
L 695 542 
L 695 546 
Q 695 547 , 682 548 
Q 670 549 , 645 549 
Q 621 549 , 608 548 
Q 595 547 , 595 546 
L 595 542 
" fill="#D21010" />
<path d="
M 695 511 
L 695 516 
Q 680 513 , 672 512 
Q 664 511 , 654 511 
Q 633 511 , 623 514 
Q 611 518 , 611 524 
Q 611 531 , 623 535 
Q 633 538 , 654 538 
Q 664 538 , 672 537 
Q 680 536 , 695 533 
L 695 538 
Q 684 540 , 674 541 
Q 664 542 , 653 542 
Q 626 542 , 611 537 
Q 595 533 , 595 525 
Q 595 516 , 611 512 
Q 626 507 , 653 507 
Q 664 507 , 674 508 
Q 685 509 , 695 511 
" fill="#545FFF" />
<path d="
M 679 497 
L 679 479 
L 650 479 
L 650 472 
L 695 472 
L 695 501 
Q 684 504 , 673 505 
Q 664 506 , 652 506 
Q 626 506 , 610 497 
Q 595 489 , 595 474 
Q 595 458 , 610 450 
Q 626 441 , 652 441 
Q 663 441 , 672 442 
Q 682 443 , 692 446 
L 692 455 
Q 679 451 , 671 450 
Q 662 449 , 653 449 
Q 632 449 , 621 455 
Q 611 461 , 611 474 
Q 611 486 , 621 493 
Q 632 499 , 653 499 
Q 662 499 , 669 498 
Q 676 498 , 679 497 
" fill="#F5C000" />
<path d="
M 700 553 
L 718 553 
L 718 554 
Q 718 554 , 726 554 
Q 733 555 , 750 555 
Q 767 555 , 775 554 
Q 782 554 , 782 554 
L 782 553 
L 800 553 
L 800 554 
Q 800 554 , 787 555 
Q 775 555 , 750 555 
Q 726 555 , 713 555 
Q 700 554 , 700 554 
L 700 553 
" fill="#D21010" />
<path d="
M 750 551 
L 732 552 
L 766 552 
L 750 551 
M 743 551 
L 757 551 
L 800 553 
L 784 553 
L 772 552 
L 728 552 
L 715 553 
L 700 553 
L 743 551 
" fill="#339541" />
<path d="
M 800 547 
L 800 548 
Q 785 548 , 777 547 
Q 769 547 , 759 547 
Q 738 547 , 728 548 
Q 716 548 , 716 548 
Q 716 549 , 728 549 
Q 738 550 , 759 550 
Q 769 550 , 777 550 
Q 785 550 , 800 549 
L 800 550 
Q 789 550 , 779 550 
Q 769 550 , 758 550 
Q 731 550 , 716 550 
Q 700 549 , 700 549 
Q 700 548 , 716 547 
Q 731 547 , 758 547 
Q 769 547 , 779 547 
Q 790 547 , 800 547 
" fill="#545FFF" />
<path d="
M 784 546 
L 784 545 
L 755 545 
L 755 545 
L 800 545 
L 800 546 
Q 789 546 , 778 546 
Q 769 546 , 757 546 
Q 731 546 , 715 546 
Q 700 545 , 700 545 
Q 700 544 , 715 543 
Q 731 543 , 757 543 
Q 768 543 , 777 543 
Q 787 543 , 797 543 
L 797 544 
Q 784 544 , 776 543 
Q 767 543 , 758 543 
Q 737 543 , 726 544 
Q 716 544 , 716 545 
Q 716 545 , 726 546 
Q 737 546 , 758 546 
Q 767 546 , 774 546 
Q 781 546 , 784 546 
" fill="#F5C000" />
<path d="
M 855 551 
L 837 552 
L 871 552 
L 855 551 
M 848 550 
L 862 550 
L 905 554 
L 889 554 
L 877 553 
L 833 553 
L 820 554 
L 805 554 
L 848 550 
" fill="#339541" />
<path d="
M 805 541 
L 823 541 
L 823 546 
Q 823 547 , 831 548 
Q 838 548 , 855 548 
Q 872 548 , 880 548 
Q 887 547 , 887 546 
L 887 541 
L 905 541 
L 905 546 
Q 905 547 , 892 548 
Q 880 549 , 855 549 
Q 831 549 , 818 548 
Q 805 547 , 805 546 
L 805 541 
" fill="#D21010" />
<path d="
M 889 540 
L 889 537 
L 860 537 
L 860 536 
L 905 536 
L 905 540 
Q 894 541 , 883 541 
Q 874 541 , 862 541 
Q 836 541 , 820 540 
Q 805 538 , 805 536 
Q 805 534 , 820 532 
Q 836 531 , 862 531 
Q 873 531 , 882 531 
Q 892 531 , 902 532 
L 902 533 
Q 889 533 , 881 532 
Q 872 532 , 863 532 
Q 842 532 , 831 533 
Q 821 534 , 821 536 
Q 821 538 , 831 539 
Q 842 540 , 863 540 
Q 872 540 , 879 540 
Q 886 540 , 889 540 
" fill="#F5C000" />
<path d="
M 905 512 
L 905 515 
Q 890 513 , 882 513 
Q 874 512 , 864 512 
Q 843 512 , 833 514 
Q 821 516 , 821 520 
Q 821 524 , 833 526 
Q 843 528 , 864 528 
Q 874 528 , 882 528 
Q 890 527 , 905 525 
L 905 528 
Q 894 529 , 884 530 
Q 874 530 , 863 530 
Q 836 530 , 821 528 
Q 805 525 , 805 520 
Q 805 516 , 821 513 
Q 836 510 , 863 510 
Q 874 510 , 884 511 
Q 895 511 , 905 512 
" fill="#545FFF" />
<path d="
M 910 551 
L 928 551 
L 928 553 
Q 928 554 , 936 554 
Q 943 554 , 960 554 
Q 977 554 , 985 554 
Q 992 554 , 992 553 
L 992 551 
L 1010 551 
L 1010 553 
Q 1010 554 , 997 554 
Q 985 555 , 960 555 
Q 936 555 , 923 554 
Q 910 554 , 910 553 
L 910 551 
" fill="#D21010" />
<path d="
M 960 544 
L 942 547 
L 976 547 
L 960 544 
M 953 543 
L 967 543 
L 1010 550 
L 994 550 
L 982 548 
L 938 548 
L 925 550 
L 910 550 
L 953 543 
" fill="#339541" />
<path d="
M 1010 507 
L 1010 513 
Q 995 509 , 987 508 
Q 979 507 , 969 507 
Q 948 507 , 938 511 
Q 926 515 , 926 522 
Q 926 530 , 938 534 
Q 948 538 , 969 538 
Q 979 538 , 987 537 
Q 995 536 , 1010 532 
L 1010 538 
Q 999 540 , 989 541 
Q 979 542 , 968 542 
Q 941 542 , 926 537 
Q 910 532 , 910 523 
Q 910 514 , 926 508 
Q 941 503 , 968 503 
Q 979 503 , 989 504 
Q 1000 505 , 1010 507 
" fill="#545FFF" />
<path d="
M 994 495 
L 994 482 
L 965 482 
L 965 477 
L 1010 477 
L 1010 499 
Q 999 501 , 988 501 
Q 979 502 , 967 502 
Q 941 502 , 925 496 
Q 910 489 , 910 478 
Q 910 467 , 925 460 
Q 941 454 , 967 454 
Q 978 454 , 987 455 
Q 997 456 , 1007 458 
L 1007 464 
Q 994 461 , 986 461 
Q 977 460 , 968 460 
Q 947 460 , 936 464 
Q 926 469 , 926 478 
Q 926 488 , 936 492 
Q 947 497 , 968 497 
Q 977 497 , 984 497 
Q 991 496 , 994 495 
" fill="#F5C000" />
<path d="
M 1015 552 
L 1024 552 
L 1024 554 
Q 1024 554 , 1028 554 
Q 1031 554 , 1040 554 
Q 1049 554 , 1052 554 
Q 1056 554 , 1056 554 
L 1056 552 
L 1065 552 
L 1065 554 
Q 1065 554 , 1059 554 
Q 1052 555 , 1040 555 
Q 1028 555 , 1021 554 
Q 1015 554 , 1015 554 
L 1015 552 
" fill="lightgray" />
<path d="
M 1090 552 
L 1081 554 
L 1098 554 
L 1090 552 
M 1086 552 
L 1094 552 
L 1115 555 
L 1107 555 
L 1101 554 
L 1079 554 
L 1072 555 
L 1065 555 
L 1086 552 
" fill="#339541" />
<path d="
M 1015 548 
L 1024 548 
L 1024 550 
Q 1024 551 , 1028 551 
Q 1031 551 , 1040 551 
Q 1049 551 , 1052 551 
Q 1056 551 , 1056 550 
L 1056 548 
L 1065 548 
L 1065 550 
Q 1065 551 , 1059 551 
Q 1052 551 , 1040 551 
Q 1028 551 , 1021 551 
Q 1015 551 , 1015 550 
L 1015 548 
" fill="lightgray" />
<path d="
M 1107 551 
L 1107 550 
L 1093 550 
L 1093 550 
L 1115 550 
L 1115 551 
Q 1110 551 , 1104 551 
Q 1099 551 , 1093 551 
Q 1080 551 , 1073 551 
Q 1065 550 , 1065 550 
Q 1065 549 , 1073 548 
Q 1080 548 , 1093 548 
Q 1099 548 , 1104 548 
Q 1109 548 , 1114 548 
L 1114 549 
Q 1107 549 , 1103 548 
Q 1099 548 , 1094 548 
Q 1084 548 , 1078 549 
Q 1073 549 , 1073 550 
Q 1073 550 , 1078 551 
Q 1084 551 , 1094 551 
Q 1099 551 , 1102 551 
Q 1106 551 , 1107 551 
" fill="#F5C000" />
<path d="
M 1057 546 
L 1057 542 
L 1043 542 
L 1043 541 
L 1065 541 
L 1065 547 
Q 1060 547 , 1054 547 
Q 1049 548 , 1043 548 
Q 1030 548 , 1023 546 
Q 1015 544 , 1015 541 
Q 1015 538 , 1023 537 
Q 1030 535 , 1043 535 
Q 1049 535 , 1054 535 
Q 1059 535 , 1064 536 
L 1064 538 
Q 1057 537 , 1053 537 
Q 1049 536 , 1044 536 
Q 1034 536 , 1028 538 
Q 1023 539 , 1023 541 
Q 1023 544 , 1028 545 
Q 1034 546 , 1044 546 
Q 1049 546 , 1052 546 
Q 1056 546 , 1057 546 
" fill="lightgray" />
<path d="
M 1065 535 
L 1074 535 
L 1074 542 
Q 1074 544 , 1078 545 
Q 1081 546 , 1090 546 
Q 1099 546 , 1102 545 
Q 1106 544 , 1106 542 
L 1106 535 
L 1115 535 
L 1115 543 
Q 1115 545 , 1109 546 
Q 1102 548 , 1090 548 
Q 1078 548 , 1071 546 
Q 1065 545 , 1065 543 
L 1065 535 
" fill="#D21010" />
<path d="
M 1065 516 
L 1065 519 
Q 1058 517 , 1054 517 
Q 1049 516 , 1044 516 
Q 1034 516 , 1029 518 
Q 1023 520 , 1023 524 
Q 1023 528 , 1029 531 
Q 1034 533 , 1044 533 
Q 1049 533 , 1054 532 
Q 1058 531 , 1065 529 
L 1065 533 
Q 1060 534 , 1054 534 
Q 1050 535 , 1044 535 
Q 1030 535 , 1023 532 
Q 1015 529 , 1015 524 
Q 1015 520 , 1023 517 
Q 1030 514 , 1044 514 
Q 1050 514 , 1055 515 
Q 1060 515 , 1065 516 
" fill="lightgray" />
<path d="
M 1107 532 
L 1107 526 
L 1093 526 
L 1093 524 
L 1115 524 
L 1115 533 
Q 1110 534 , 1104 534 
Q 1099 535 , 1093 535 
Q 1080 535 , 1073 532 
Q 1065 529 , 1065 524 
Q 1065 520 , 1073 517 
Q 1080 514 , 1093 514 
Q 1099 514 , 1104 514 
Q 1109 515 , 1114 516 
L 1114 518 
Q 1107 517 , 1103 517 
Q 1099 516 , 1094 516 
Q 1084 516 , 1078 518 
Q 1073 520 , 1073 524 
Q 1073 528 , 1078 530 
Q 1084 532 , 1094 532 
Q 1099 532 , 1102 532 
Q 1106 532 , 1107 532 
" fill="#F5C000" />
<path d="
M 1040 491 
L 1031 502 
L 1048 502 
L 1040 491 
M 1036 486 
L 1044 486 
L 1065 513 
L 1057 513 
L 1051 505 
L 1029 505 
L 1022 513 
L 1015 513 
L 1036 486 
" fill="lightgray" />
<path d="
M 1065 486 
L 1074 486 
L 1074 502 
Q 1074 507 , 1078 508 
Q 1081 510 , 1090 510 
Q 1099 510 , 1102 508 
Q 1106 507 , 1106 502 
L 1106 486 
L 1115 486 
L 1115 502 
Q 1115 508 , 1109 510 
Q 1102 513 , 1090 513 
Q 1078 513 , 1071 510 
Q 1065 508 , 1065 502 
L 1065 486 
" fill="#D21010" />
<path d="
M 1057 470 
L 1057 440 
L 1043 440 
L 1043 428 
L 1065 428 
L 1065 477 
Q 1060 482 , 1054 484 
Q 1049 486 , 1043 486 
Q 1030 486 , 1023 471 
Q 1015 456 , 1015 430 
Q 1015 405 , 1023 390 
Q 1030 375 , 1043 375 
Q 1049 375 , 1054 377 
Q 1059 379 , 1064 384 
L 1064 398 
Q 1057 392 , 1053 390 
Q 1049 388 , 1044 388 
Q 1034 388 , 1028 399 
Q 1023 409 , 1023 430 
Q 1023 452 , 1028 463 
Q 1034 473 , 1044 473 
Q 1049 473 , 1052 472 
Q 1056 471 , 1057 470 
" fill="lightgray" />
<path d="
M 1115 387 
L 1115 404 
Q 1108 393 , 1104 390 
Q 1099 387 , 1094 387 
Q 1084 387 , 1079 398 
Q 1073 409 , 1073 430 
Q 1073 452 , 1079 463 
Q 1084 474 , 1094 474 
Q 1099 474 , 1104 471 
Q 1108 468 , 1115 457 
L 1115 474 
Q 1110 481 , 1104 483 
Q 1100 486 , 1094 486 
Q 1080 486 , 1073 471 
Q 1065 456 , 1065 430 
Q 1065 405 , 1073 390 
Q 1080 375 , 1094 375 
Q 1100 375 , 1105 378 
Q 1110 380 , 1115 387 
" fill="#545FFF" />
<path d="
M 1220 549 
L 1220 550 
Q 1205 549 , 1197 549 
Q 1189 549 , 1179 549 
Q 1158 549 , 1148 549 
Q 1136 550 , 1136 551 
Q 1136 553 , 1148 553 
Q 1158 554 , 1179 554 
Q 1189 554 , 1197 554 
Q 1205 554 , 1220 553 
L 1220 554 
Q 1209 554 , 1199 555 
Q 1189 555 , 1178 555 
Q 1151 555 , 1136 554 
Q 1120 553 , 1120 551 
Q 1120 550 , 1136 549 
Q 1151 548 , 1178 548 
Q 1189 548 , 1199 548 
Q 1210 548 , 1220 549 
" fill="#545FFF" />
<path d="
M 1170 541 
L 1152 544 
L 1186 544 
L 1170 541 
M 1163 539 
L 1177 539 
L 1220 547 
L 1204 547 
L 1192 545 
L 1148 545 
L 1135 547 
L 1120 547 
L 1163 539 
" fill="#339541" />
<path d="
M 1120 513 
L 1138 513 
L 1138 528 
Q 1138 533 , 1146 534 
Q 1153 536 , 1170 536 
Q 1187 536 , 1195 534 
Q 1202 533 , 1202 528 
L 1202 513 
L 1220 513 
L 1220 529 
Q 1220 534 , 1207 536 
Q 1195 539 , 1170 539 
Q 1146 539 , 1133 536 
Q 1120 534 , 1120 529 
L 1120 513 
" fill="#D21010" />
<path d="
M 1204 501 
L 1204 481 
L 1175 481 
L 1175 472 
L 1220 472 
L 1220 506 
Q 1209 509 , 1198 511 
Q 1189 512 , 1177 512 
Q 1151 512 , 1135 502 
Q 1120 492 , 1120 474 
Q 1120 456 , 1135 446 
Q 1151 436 , 1177 436 
Q 1188 436 , 1197 437 
Q 1207 439 , 1217 442 
L 1217 452 
Q 1204 448 , 1196 446 
Q 1187 445 , 1178 445 
Q 1157 445 , 1146 452 
Q 1136 459 , 1136 474 
Q 1136 489 , 1146 496 
Q 1157 504 , 1178 504 
Q 1187 504 , 1194 503 
Q 1201 502 , 1204 501 
" fill="#F5C000" />
<path d="
M 1225 548 
L 1243 548 
L 1243 552 
Q 1243 553 , 1251 553 
Q 1258 554 , 1275 554 
Q 1292 554 , 1300 553 
Q 1307 553 , 1307 552 
L 1307 548 
L 1325 548 
L 1325 552 
Q 1325 553 , 1312 554 
Q 1300 554 , 1275 554 
Q 1251 554 , 1238 554 
Q 1225 553 , 1225 552 
L 1225 548 
" fill="#D21010" />
<path d="
M 1275 541 
L 1257 544 
L 1291 544 
L 1275 541 
M 1268 540 
L 1282 540 
L 1325 547 
L 1309 547 
L 1297 545 
L 1253 545 
L 1240 547 
L 1225 547 
L 1268 540 
" fill="#339541" />
<path d="
M 1325 525 
L 1325 527 
Q 1310 526 , 1302 525 
Q 1294 525 , 1284 525 
Q 1263 525 , 1253 527 
Q 1241 528 , 1241 531 
Q 1241 535 , 1253 536 
Q 1263 538 , 1284 538 
Q 1294 538 , 1302 538 
Q 1310 537 , 1325 535 
L 1325 538 
Q 1314 539 , 1304 539 
Q 1294 540 , 1283 540 
Q 1256 540 , 1241 538 
Q 1225 535 , 1225 531 
Q 1225 528 , 1241 525 
Q 1256 523 , 1283 523 
Q 1294 523 , 1304 523 
Q 1315 524 , 1325 525 
" fill="#545FFF" />
<path d="
M 1309 491 
L 1309 432 
L 1280 432 
L 1280 408 
L 1325 408 
L 1325 506 
Q 1314 515 , 1303 519 
Q 1294 522 , 1282 523 
Q 1256 523 , 1240 493 
Q 1225 464 , 1225 413 
Q 1225 362 , 1240 332 
Q 1256 303 , 1282 303 
Q 1293 303 , 1302 307 
Q 1312 311 , 1322 321 
L 1322 349 
Q 1309 336 , 1301 333 
Q 1292 329 , 1283 329 
Q 1262 329 , 1251 350 
Q 1241 370 , 1241 413 
Q 1241 456 , 1251 477 
Q 1262 498 , 1283 498 
Q 1292 498 , 1299 496 
Q 1306 494 , 1309 491 
" fill="#F5C000" />
<path d="
M 1330 553 
L 1348 553 
L 1348 554 
Q 1348 554 , 1356 554 
Q 1363 555 , 1380 555 
Q 1397 555 , 1405 554 
Q 1412 554 , 1412 554 
L 1412 553 
L 1430 553 
L 1430 554 
Q 1430 554 , 1417 555 
Q 1405 555 , 1380 555 
Q 1356 555 , 1343 555 
Q 1330 554 , 1330 554 
L 1330 553 
" fill="#D21010" />
<path d="
M 1380 551 
L 1362 552 
L 1396 552 
L 1380 551 
M 1373 551 
L 1387 551 
L 1430 553 
L 1414 553 
L 1402 552 
L 1358 552 
L 1345 553 
L 1330 553 
L 1373 551 
" fill="#339541" />
<path d="
M 1430 547 
L 1430 548 
Q 1415 548 , 1407 547 
Q 1399 547 , 1389 547 
Q 1368 547 , 1358 548 
Q 1346 548 , 1346 548 
Q 1346 549 , 1358 549 
Q 1368 550 , 1389 550 
Q 1399 550 , 1407 550 
Q 1415 550 , 1430 549 
L 1430 550 
Q 1419 550 , 1409 550 
Q 1399 550 , 1388 550 
Q 1361 550 , 1346 550 
Q 1330 549 , 1330 549 
Q 1330 548 , 1346 547 
Q 1361 547 , 1388 547 
Q 1399 547 , 1409 547 
Q 1420 547 , 1430 547 
" fill="#545FFF" />
<path d="
M 1414 546 
L 1414 545 
L 1385 545 
L 1385 545 
L 1430 545 
L 1430 546 
Q 1419 546 , 1408 546 
Q 1399 546 , 1387 546 
Q 1361 546 , 1345 546 
Q 1330 545 , 1330 545 
Q 1330 544 , 1345 543 
Q 1361 543 , 1387 543 
Q 1398 543 , 1407 543 
Q 1417 543 , 1427 543 
L 1427 544 
Q 1414 544 , 1406 543 
Q 1397 543 , 1388 543 
Q 1367 543 , 1356 544 
Q 1346 544 , 1346 545 
Q 1346 545 , 1356 546 
Q 1367 546 , 1388 546 
Q 1397 546 , 1404 546 
Q 1411 546 , 1414 546 
" fill="#F5C000" />
<path d="M 65 168 L 65 555 " stroke="black" stroke-width="1.5"/>
<path d="M 55 555 L 65 555 " stroke="black" stroke-width="4"/>
<text text-anchor="end" x="50" y="555" font-size="50" alignment-baseline="middle">0</text>
<path d="M 55 362 L 65 362 " stroke="black" stroke-width="4"/>
<text text-anchor="end" x="50" y="362" font-size="50" alignment-baseline="middle">1</text>
<path d="M 55 168 L 65 168 " stroke="black" stroke-width="4"/>
<text text-anchor="end" x="50" y="168" font-size="50" alignment-baseline="middle">2</text>
<text text-anchor="middle" x="750" y="50" font-size="50" alignment-baseline="baseline"></text>
G<path d="
M 160 582 
L 126 595 
L 160 608 
L 157 611 
L 123 598 
L 123 623 
L 117 623 
L 117 599 
L 83 611 
L 80 608 
L 114 595 
L 80 582 
L 83 579 
L 117 591 
L 117 567 
L 123 567 
L 123 591 
L 157 579 
L 160 582 
" fill="black" />
<path d="
" fill="black" />
<path d="
M 211 567 
L 238 567 
L 238 623 
L 211 623 
L 211 567 
" fill="black" />
<path d="
" fill="black" />
<path d="
" fill="black" />
<path d="
M 316 567 
L 343 567 
L 343 623 
L 316 623 
L 316 567 
" fill="black" />
<path d="
" fill="black" />
<path d="
" fill="black" />
<path d="
M 421 567 
L 448 567 
L 448 623 
L 421 623 
L 421 567 
" fill="black" />
<path d="
" fill="black" />
<path d="
M 580 567 
Q 551 574 , 538 581 
Q 525 588 , 525 595 
Q 525 602 , 538 609 
Q 551 616 , 580 623 
L 556 623 
Q 528 616 , 514 609 
Q 500 602 , 500 595 
Q 500 588 , 514 581 
Q 528 574 , 556 567 
L 580 567 
" fill="black" />
<path d="
" fill="black" />
<path d="
M 622 567 
L 642 567 
L 642 623 
L 622 623 
L 622 567 
" fill="black" />
<path d="
" fill="black" />
<path d="
M 672 567 
L 692 567 
L 692 571 
L 680 623 
L 677 623 
L 689 571 
L 672 571 
L 672 567 
" fill="black" />
<path d="
M 790 582 
L 756 595 
L 790 608 
L 787 611 
L 753 598 
L 753 623 
L 747 623 
L 747 599 
L 713 611 
L 710 608 
L 744 595 
L 710 582 
L 713 579 
L 747 591 
L 747 567 
L 753 567 
L 753 591 
L 787 579 
L 790 582 
" fill="black" />
<path d="
" fill="black" />
<path d="
M 841 567 
L 868 567 
L 868 623 
L 841 623 
L 841 567 
" fill="black" />
<path d="
" fill="black" />
<path d="
" fill="black" />
<path d="
M 946 567 
L 973 567 
L 973 623 
L 946 623 
L 946 567 
" fill="black" />
<path d="
" fill="black" />
<path d="
M 1025 567 
L 1049 567 
Q 1077 574 , 1091 581 
Q 1105 588 , 1105 595 
Q 1105 602 , 1091 609 
Q 1077 616 , 1049 623 
L 1025 623 
Q 1054 616 , 1067 609 
Q 1080 602 , 1080 595 
Q 1080 588 , 1067 581 
Q 1054 574 , 1025 567 
" fill="black" />
<path d="
" fill="black" />
<path d="
M 1156 567 
L 1183 567 
L 1183 623 
L 1156 623 
L 1156 567 
" fill="black" />
<path d="
" fill="black" />
<path d="
" fill="black" />
<path d="
M 1261 567 
L 1288 567 
L 1288 623 
L 1261 623 
L 1261 567 
" fill="black" />
<path d="
" fill="black" />
<path d="
M 1420 582 
L 1386 595 
L 1420 608 
L 1417 611 
L 1383 598 
L 1383 623 
L 1377 623 
L 1377 599 
L 1343 611 
L 1340 608 
L 1374 595 
L 1340 582 
L 1343 579 
L 1377 591 
L 1377 567 
L 1383 567 
L 1383 591 
L 1417 579 
L 1420 582 
" fill="black" />
</svg>
